<?xml version="1.0" encoding="UTF-8"?>
<svg version="1.1" xmlns="http://www.w3.org/2000/svg" width="900" height="600" viewBox="0 0 300 200" preserveAspectRatio="xMidYMid slice">
<path d="M0 0 C99 0 198 0 300 0 C300 66 300 132 300 200 C201 200 102 200 0 200 C0 134 0 68 0 0 Z " fill="#322AA7" transform="translate(0,0)"/>
<path d="M0 0 C1.46 0.14 2.92 0.29 4.38 0.44 C5.59 0.56 5.59 0.56 6.84 0.68 C9 1 9 1 11 2 C10.67 3.98 10.34 5.96 10 8 C11.51 8 13 7.75 14.5 7.56 C15.22 7.48 15.93 7.39 16.67 7.3 C18.25 7.1 19.82 6.86 21.39 6.61 C27.41 5.7 27.41 5.7 30.56 7.31 C32 9 32 9 32 11 C33.11 10.65 34.23 10.3 35.38 9.94 C39 9 39 9 41 10 C40.5 8.02 40.5 8.02 40 6 C45.48 5.9 50.59 6.04 56 7 C58.33 7.04 60.67 7.05 63 7 C63 7.66 63 8.32 63 9 C63.5 8.84 63.99 8.67 64.5 8.5 C68.03 7.79 71.4 7.94 75 8 C74.67 7.34 74.34 6.68 74 6 C80.78 5.6 86.6 6.42 93.14 8.25 C96.08 9.02 99 9.54 102 10 C102 11.65 102 13.3 102 15 C99.69 14.67 97.38 14.34 95 14 C94.66 17.12 94.66 17.12 97 19.19 C97.99 20.08 97.99 20.08 99 21 C98.53 21.39 98.05 21.78 97.56 22.19 C95.65 24.41 95.39 26.13 95 29 C92.03 29.49 92.03 29.49 89 30 C89 31.65 89 33.3 89 35 C89.96 35.28 89.96 35.28 90.94 35.56 C93 37 93 37 93.75 40.25 C93.97 43.52 94.08 46.73 94 50 C93.34 50 92.68 50 92 50 C87.75 45.75 84.35 41.41 83.48 35.38 C83.5 32.21 83.64 29.14 84 26 C83.67 26.99 83.34 27.98 83 29 C82.34 29 81.68 29 81 29 C81 28.34 81 27.68 81 27 C79.68 27 78.36 27 77 27 C77.99 30.47 77.99 30.47 79 34 C77.97 34.14 76.94 34.29 75.88 34.44 C72.57 34.92 69.29 35.44 66 36 C65.01 39.63 64.02 43.26 63 47 C64.67 46.94 64.67 46.94 66.38 46.88 C70 47 70 47 72 49 C72.99 48.01 72.99 48.01 74 47 C78 51.85 80.71 55.81 82 62 C81.01 62.5 81.01 62.5 80 63 C78.35 59.7 76.7 56.4 75 53 C75.33 54.32 75.66 55.64 76 57 C76.12 58.81 76.17 60.62 76.19 62.44 C76.2 63.36 76.22 64.29 76.23 65.25 C75.99 68.18 75.22 70.34 74 73 C73.01 73 72.02 73 71 73 C70.34 75.31 69.68 77.62 69 80 C69.64 80.54 70.28 81.07 70.94 81.62 C73.39 84.44 73.67 86.34 74 90 C72.68 90.33 71.36 90.66 70 91 C69.6 89.55 69.6 89.55 69.19 88.06 C68.8 87.05 68.4 86.04 68 85 C67.01 84.67 66.02 84.34 65 84 C65 82.68 65 81.36 65 80 C62.52 80.99 62.52 80.99 60 82 C60 80.68 60 79.36 60 78 C59.34 78 58.68 78 58 78 C57.34 79.98 56.68 81.96 56 84 C58.31 84.33 60.62 84.66 63 85 C62.34 85.99 61.68 86.98 61 88 C61.33 91.43 62.97 93.32 65 96 C67.15 100.08 67.02 102.54 66 107 C65.81 107.95 65.63 108.9 65.44 109.88 C65.29 110.58 65.15 111.28 65 112 C64.34 112 63.68 112 63 112 C62.97 112.9 62.97 112.9 62.94 113.81 C62 116 62 116 58.44 117.75 C57.3 118.16 56.17 118.57 55 119 C55 120.65 55 122.3 55 124 C53.51 124.5 53.51 124.5 52 125 C52 123.35 52 121.7 52 120 C51.01 120 50.02 120 49 120 C47.94 122.09 47.94 122.09 48 125 C49.41 127.12 51.01 129.03 52.63 131 C54.49 133.72 54.48 135.79 54 139 C53.04 139.4 53.04 139.4 52.06 139.81 C49.67 140.89 49.67 140.89 49 144 C48.67 143.01 48.34 142.02 48 141 C47.01 141 46.02 141 45 141 C42.81 139 42.81 139 41 137 C40.13 139.71 40.13 139.71 40 143 C41.73 146.11 43.49 148.49 46 151 C46.57 153.66 46.74 156.29 47 159 C46.34 159 45.68 159 45 159 C45 158.34 45 157.68 45 157 C44.34 157 43.68 157 43 157 C40.81 153.71 40.05 150.78 39 147 C38.67 146.67 38.34 146.34 38 146 C37.63 144.09 37.3 142.17 37 140.25 C36.41 136.48 35.77 132.74 35 129 C33.35 129.33 31.7 129.66 30 130 C29.73 128.93 29.46 127.86 29.19 126.75 C28.12 123.39 27.17 121.66 25 119 C25 118.34 25 117.68 25 117 C24.34 117 23.68 117 23 117 C23 117.66 23 118.32 23 119 C22.36 119.1 21.72 119.21 21.06 119.31 C20.38 119.54 19.7 119.77 19 120 C18.5 121.49 18.5 121.49 18 123 C16.69 124.36 15.35 125.69 14 127 C13.46 127.74 12.93 128.49 12.38 129.25 C11.92 129.83 11.47 130.41 11 131 C10.34 131 9.68 131 9 131 C9.05 131.75 9.09 132.5 9.14 133.27 C9.18 134.25 9.21 135.24 9.25 136.25 C9.3 137.22 9.34 138.2 9.39 139.2 C8.9 142.7 7.67 143.8 5 146 C0.92 137.81 -2.16 129.97 -4 121 C-5.32 121 -6.64 121 -8 121 C-8.27 120.4 -8.54 119.8 -8.81 119.19 C-10.04 116.93 -11.01 115.6 -13 114 C-15.12 113.71 -15.12 113.71 -17.38 113.94 C-21.08 114.08 -23.64 113.73 -27 112 C-27 111.34 -27 110.68 -27 110 C-28.08 110.4 -28.08 110.4 -29.19 110.81 C-32 111 -32 111 -34.81 108.69 C-37 106 -37 106 -37 104 C-38.32 104 -39.64 104 -41 104 C-40.65 104.53 -40.3 105.06 -39.94 105.61 C-39.26 106.67 -39.26 106.67 -38.56 107.75 C-37.88 108.79 -37.88 108.79 -37.19 109.86 C-36.04 111.93 -35.45 113.69 -35 116 C-31.73 115.44 -30.17 114.5 -28 112 C-27.67 112.99 -27.34 113.98 -27 115 C-25 116.69 -25 116.69 -23 118 C-23.71 121.71 -25.01 124.78 -27 128 C-30 129.69 -30 129.69 -33 131 C-33.48 131.48 -33.95 131.95 -34.44 132.44 C-36.16 134.16 -37.78 135.14 -39.94 136.25 C-40.94 136.78 -40.94 136.78 -41.96 137.33 C-44.38 138.13 -45.63 137.83 -48 137 C-48.1 136.44 -48.2 135.89 -48.3 135.31 C-49.27 130.35 -50.67 126.22 -53.06 121.77 C-54.22 119.58 -55.09 117.31 -56 115 C-57.36 111.78 -57.36 111.78 -59 109 C-59.99 108.67 -60.98 108.34 -62 108 C-62.5 105.03 -62.5 105.03 -63 102 C-61.52 101.01 -61.52 101.01 -60 100 C-59.21 97.81 -59.21 97.81 -58.81 95.38 C-58.65 94.56 -58.5 93.74 -58.33 92.9 C-58.22 92.27 -58.11 91.65 -58 91 C-58.7 91.19 -59.4 91.37 -60.12 91.56 C-63.44 92.07 -65.78 91.93 -69 91 C-70.44 89.19 -70.44 89.19 -71 87 C-70.75 84.98 -70.75 84.98 -70 83 C-63.49 79.5 -58.18 79.9 -51 81 C-52.37 77.84 -52.99 77.01 -56 75 C-54.79 71.28 -53.49 67.62 -52 64 C-52.97 63.73 -53.94 63.46 -54.94 63.19 C-55.95 62.8 -56.96 62.4 -58 62 C-58.5 60.52 -58.5 60.52 -59 59 C-59.99 59 -60.98 59 -62 59 C-62 56.69 -62 54.38 -62 52 C-62.99 52 -63.98 52 -65 52 C-66.11 46.35 -66 43.12 -62.89 38.27 C-61.66 35.13 -62.11 32.71 -62.5 29.38 C-62.91 25.9 -62.91 25.9 -63 23 C-62.34 22.34 -61.68 21.68 -61 21 C-56.12 21.22 -53.57 22.75 -50 26 C-50.33 26.99 -50.66 27.98 -51 29 C-53.31 28.67 -55.62 28.34 -58 28 C-56.88 31.73 -56.88 31.73 -54 34 C-54 33.34 -54 32.68 -54 32 C-53.34 32 -52.68 32 -52 32 C-51.34 31.01 -50.68 30.02 -50 29 C-49.01 29 -48.02 29 -47 29 C-47 27.35 -47 25.7 -47 24 C-46.34 24 -45.68 24 -45 24 C-44.67 24.66 -44.34 25.32 -44 26 C-43.67 24.68 -43.34 23.36 -43 22 C-41.95 22.16 -40.9 22.33 -39.81 22.5 C-36.8 22.9 -34.03 23.09 -31 23 C-31 22.34 -31 21.68 -31 21 C-28.69 21.33 -26.38 21.66 -24 22 C-24.66 21.67 -25.32 21.34 -26 21 C-25.67 18.36 -25.34 15.72 -25 13 C-24.01 13 -23.02 13 -22 13 C-21.3 14.58 -20.61 16.16 -19.94 17.75 C-19.36 19.07 -19.36 19.07 -18.78 20.42 C-17.95 23.15 -18.02 24.37 -19 27 C-17.42 25.42 -17.25 24.21 -17 22 C-17.98 20.32 -18.98 18.66 -20 17 C-19.5 15.52 -19.5 15.52 -19 14 C-17.67 13.67 -16.33 13.33 -15 13 C-14.67 12.01 -14.34 11.02 -14 10 C-13.01 9.34 -12.02 8.68 -11 8 C-10.38 7.29 -10.38 7.29 -9.75 6.56 C-7.19 4.28 -4.14 3.34 -1 2 C-0.67 1.34 -0.34 0.68 0 0 Z " fill="#168214" transform="translate(133,13)"/>
<path d="M0 0 C-0.06 1.46 -0.15 2.92 -0.25 4.38 C-0.3 5.19 -0.34 6 -0.39 6.84 C-1 9 -1 9 -3.05 10.29 C-4.01 10.64 -4.01 10.64 -5 11 C-4.5 13.97 -4.5 13.97 -4 17 C-3.4 17.04 -2.8 17.08 -2.19 17.12 C1.13 18.45 1.51 20.81 3 24 C3.59 25.21 4.19 26.41 4.79 27.62 C5.4 28.89 6.01 30.16 6.62 31.44 C6.94 32.07 7.25 32.7 7.57 33.35 C9.6 37.61 10.55 41.3 11 46 C13.92 45.29 16.81 44.51 19.69 43.62 C20.48 43.39 21.26 43.16 22.07 42.91 C22.71 42.61 23.35 42.31 24 42 C24.33 41.01 24.66 40.02 25 39 C25.97 38.73 26.94 38.46 27.94 38.19 C31.26 37.31 31.26 37.31 32.31 34.12 C32.54 33.09 32.77 32.06 33 31 C33.46 29.98 33.46 29.98 33.94 28.94 C34.23 26.63 34.23 26.63 31.56 24.25 C30.29 23.14 30.29 23.14 29 22 C28.01 23.48 28.01 23.48 27 25 C25.68 25 24.36 25 23 25 C20.68 21.06 18.57 17.31 17 13 C18.32 13 19.64 13 21 13 C21.23 13.62 21.45 14.24 21.69 14.88 C23.41 17.66 24.91 18.1 28 19 C28.99 19 29.98 19 31 19 C31.5 19.99 31.5 19.99 32 21 C36.37 21.73 40.56 22.14 45 22 C45.5 23.48 45.5 23.48 46 25 C46.66 25.33 47.32 25.66 48 26 C48.66 26.33 49.32 26.66 50 27 C50.5 28.49 50.5 28.49 51 30 C51.66 30 52.32 30 53 30 C53.66 29.34 54.32 28.68 55 28 C55.16 28.87 55.32 29.74 55.48 30.64 C57.11 38.96 59.42 46.28 63 54 C65.26 52.22 65.95 51.38 66.34 48.48 C66.35 47.54 66.36 46.59 66.38 45.62 C66.63 41.46 66.72 40.35 69.44 37 C70.28 36.34 71.13 35.68 72 35 C72.66 34.01 73.32 33.02 74 32 C74.66 32 75.32 32 76 32 C76.33 30.68 76.66 29.36 77 28 C78.32 28 79.64 28 81 28 C81 27.34 81 26.68 81 26 C81.66 26 82.32 26 83 26 C85.74 29.35 87.86 32.67 88.31 37 C88.21 37.66 88.11 38.32 88 39 C90.48 38.5 90.48 38.5 93 38 C95.3 43.79 97.29 49.72 96 56 C94.6 57.76 94.6 57.76 93 59 C92.34 59 91.68 59 91 59 C91.36 59.44 91.73 59.88 92.1 60.33 C96.09 65.35 98.9 70.55 101.61 76.36 C102.89 78.78 104.06 80.14 106 82 C106.33 82.99 106.66 83.98 107 85 C108.73 85.74 108.73 85.74 110.88 86.06 C112.08 86.29 112.08 86.29 113.3 86.53 C114.64 86.76 114.64 86.76 116 87 C117 87.19 118.01 87.37 119.04 87.57 C121.69 88.06 124.35 88.53 127 89 C127 89.66 127 90.32 127 91 C128.65 91 130.3 91 132 91 C132 92.65 132 94.3 132 96 C63.69 96 -4.62 96 -75 96 C-75 60 -75 60 -68 50.69 C-63.83 47.5 -63.83 47.5 -61.81 46.18 C-59.57 44.72 -57.65 43.01 -55.69 41.19 C-55.09 40.69 -54.5 40.18 -53.88 39.67 C-51.49 37.55 -49.29 35.28 -47.06 33 C-44.09 29.99 -41.16 27.25 -37.75 24.75 C-33.41 21.53 -29.76 17.8 -26 13.94 C-18.16 5.91 -11.71 -0.22 0 0 Z " fill="#2D25A5" transform="translate(75,104)"/>
<path d="M0 0 C45.87 0 91.74 0 139 0 C137.68 2.64 136.36 5.28 135 8 C134.67 9.32 134.34 10.64 134 12 C134.99 12.5 134.99 12.5 136 13 C135.01 13.66 134.02 14.32 133 15 C132.34 15.66 131.68 16.32 131 17 C128.37 17.86 125.7 18.39 123 19 C123 20.32 123 21.64 123 23 C121.68 23.33 120.36 23.66 119 24 C119 24.99 119 25.98 119 27 C117.35 27.33 115.7 27.66 114 28 C114.5 30.97 114.5 30.97 115 34 C116.48 34.49 116.48 34.49 118 35 C117.34 35 116.68 35 116 35 C115.67 36.98 115.34 38.96 115 41 C113.02 40.51 113.02 40.51 111 40 C111.99 40 112.98 40 114 40 C113.22 35.15 111.6 30.62 110 26 C108.62 28.66 107.63 31.06 107 34 C108.48 34.49 108.48 34.49 110 35 C106.38 36.21 105.36 35.54 102 34 C102 34.66 102 35.32 102 36 C98.37 36.33 94.74 36.66 91 37 C90.67 36.34 90.34 35.68 90 35 C89.67 36.65 89.34 38.3 89 40 C88.34 39.67 87.68 39.34 87 39 C87.5 38.01 87.5 38.01 88 37 C87.34 37 86.68 37 86 37 C86 38.65 86 40.3 86 42 C84.52 42.49 84.52 42.49 83 43 C82.34 43.99 81.68 44.98 81 46 C80.34 45.67 79.68 45.34 79 45 C79 45.66 79 46.32 79 47 C77.52 46.51 77.52 46.51 76 46 C74.81 42.94 74.81 42.94 74 40 C76.64 40.33 79.28 40.66 82 41 C82 40.34 82 39.68 82 39 C80.93 38.32 79.86 37.64 78.75 36.94 C78.15 36.55 77.54 36.17 76.92 35.78 C74.54 34.82 73.38 35.16 71 36 C71.16 37.55 71.16 37.55 71.32 39.14 C71.45 40.51 71.57 41.88 71.69 43.25 C71.76 43.93 71.83 44.61 71.91 45.32 C72.17 48.51 72.33 50.48 70.56 53.23 C69.79 54.1 69.79 54.1 69 55 C68.19 58.27 68 61.63 68 65 C68.99 65 69.98 65 71 65 C72.12 69.75 72.12 69.75 71 72 C71.99 72 72.98 72 74 72 C74.99 73.48 74.99 73.48 76 75 C78.55 76.2 78.55 76.2 81 77 C80.39 81.13 78.96 84.33 77 88 C77.62 88.25 78.24 88.5 78.88 88.75 C81.35 90.21 81.95 91.38 83 94 C82 95 82 95 79.25 95.12 C76 95 76 95 73.62 94.31 C69.67 93.84 66.58 95.43 63 97 C63.49 100.47 63.49 100.47 64 104 C65.98 104.5 65.98 104.5 68 105 C66.93 105.43 65.86 105.87 64.75 106.31 C56.41 110.48 49.77 118.16 43.31 124.75 C40.59 127.51 37.86 129.94 34.75 132.25 C29.98 135.83 25.91 139.98 21.74 144.23 C18.24 147.79 14.66 151.14 10.85 154.37 C7.94 156.93 5.26 159.71 2.57 162.5 C1 164 1 164 0 164 C0 109.88 0 55.76 0 0 Z " fill="#534ABE" transform="translate(0,0)"/>
<path d="M0 0 C0 46.53 0 93.06 0 141 C-30.69 141 -61.38 141 -93 141 C-93.99 139.02 -93.99 139.02 -95 137 C-95.99 136.67 -96.98 136.34 -98 136 C-98 135.34 -98 134.68 -98 134 C-99.22 134.04 -100.43 134.08 -101.69 134.12 C-105.29 134.13 -107.69 133.44 -111 132 C-112.18 131.92 -113.35 131.84 -114.56 131.75 C-118 131 -118 131 -120.12 128.44 C-120.74 127.3 -121.36 126.17 -122 125 C-122.85 123.66 -123.7 122.33 -124.56 121 C-126.04 118.63 -127.33 116.33 -128.56 113.81 C-130.07 110.86 -131.86 108.51 -134 106 C-133.5 105.01 -133.5 105.01 -133 104 C-128.47 106.33 -126.13 109.1 -123 113 C-122.34 113.33 -121.68 113.66 -121 114 C-120.63 115.24 -120.63 115.24 -120.25 116.5 C-119.63 117.74 -119.63 117.74 -119 119 C-115.95 119.9 -115.95 119.9 -113 120 C-113 117.69 -113 115.38 -113 113 C-112.36 112.9 -111.72 112.79 -111.06 112.69 C-110.38 112.46 -109.7 112.23 -109 112 C-108.5 110.51 -108.5 110.51 -108 109 C-106.56 107.31 -106.56 107.31 -105 106 C-104.34 106 -103.68 106 -103 106 C-102.34 104.68 -101.68 103.36 -101 102 C-100.01 102.66 -99.02 103.32 -98 104 C-98.33 105.65 -98.66 107.3 -99 109 C-98.01 109 -97.02 109 -96 109 C-95.34 107.68 -94.68 106.36 -94 105 C-93.34 105 -92.68 105 -92 105 C-92 104.34 -92 103.68 -92 103 C-92.33 102.67 -92.66 102.34 -93 102 C-93 101.01 -93 100.02 -93 99 C-92.34 99 -91.68 99 -91 99 C-91.33 97.68 -91.66 96.36 -92 95 C-92.66 95 -93.32 95 -94 95 C-96.9 91.17 -97.66 87.75 -98 83 C-97.56 80.06 -97.56 80.06 -97 78 C-95.5 79.38 -95.5 79.38 -94 81 C-94 81.66 -94 82.32 -94 83 C-93.34 83 -92.68 83 -92 83 C-91.77 82.43 -91.54 81.87 -91.31 81.28 C-89.65 78.39 -87.59 76.67 -85.06 74.5 C-82.54 72.33 -80.29 70.39 -78.31 67.72 C-77.88 67.15 -77.44 66.58 -77 66 C-76.34 66 -75.68 66 -75 66 C-74.74 65.43 -74.48 64.86 -74.21 64.28 C-70.92 58.08 -65.98 52.86 -61 48 C-57.41 44.1 -54.04 40.11 -50.94 35.81 C-49.1 33.3 -47.3 31.26 -44.88 29.31 C-41.93 27.13 -41.93 27.13 -39.94 24.31 C-37.76 21.71 -36.11 21.18 -33 20 C-32.5 18.52 -32.5 18.52 -32 17 C-28.56 14 -28.56 14 -26 14 C-25.67 13.01 -25.34 12.02 -25 11 C-23.04 9.39 -23.04 9.39 -20.62 7.81 C-19.83 7.28 -19.04 6.75 -18.23 6.21 C-16 5 -16 5 -13 5 C-13 4.34 -13 3.68 -13 3 C-11.59 2.49 -10.17 1.99 -8.75 1.5 C-7.96 1.22 -7.17 0.94 -6.36 0.66 C-4 0 -4 0 0 0 Z " fill="#4F46BC" transform="translate(300,59)"/>
<path d="M0 0 C1.46 0.14 2.92 0.29 4.38 0.44 C5.59 0.56 5.59 0.56 6.84 0.68 C9 1 9 1 11 2 C10.67 3.98 10.34 5.96 10 8 C12.23 8 14.45 7.57 16.66 7.29 C20.43 6.82 24.22 6.41 28 6 C28.99 7.98 28.99 7.98 30 10 C25.29 16.27 20.28 22.24 15.09 28.13 C12.61 30.98 10.55 33.52 9 37 C5.95 40.96 2.96 43.92 -1 47 C-1.5 47.99 -1.5 47.99 -2 49 C-2.66 49 -3.32 49 -4 49 C-4.31 49.84 -4.31 49.84 -4.62 50.69 C-6 53 -6 53 -8.94 55.44 C-11.92 57.93 -13.06 59.73 -15 63 C-16.15 64.17 -17.31 65.31 -18.5 66.44 C-21.52 69.35 -23.38 72.09 -25 76 C-25.66 76 -26.32 76 -27 76 C-27 76.66 -27 77.32 -27 78 C-27.66 78 -28.32 78 -29 78 C-31.24 84.35 -31.24 84.35 -32 91 C-33.03 90.86 -34.06 90.71 -35.12 90.56 C-39.43 91.05 -39.71 91.33 -42.25 94.5 C-42.71 95.15 -43.17 95.8 -43.64 96.47 C-44.09 96.97 -44.54 97.48 -45 98 C-45.99 98 -46.98 98 -48 98 C-48.27 98.54 -48.54 99.07 -48.81 99.62 C-49.2 100.41 -49.6 101.19 -50 102 C-50.47 103.01 -50.95 104.02 -51.44 105.06 C-52.78 107.59 -53.76 109.25 -56 111 C-56.66 111 -57.32 111 -58 111 C-58.33 110.34 -58.66 109.68 -59 109 C-59.99 108.67 -60.98 108.34 -62 108 C-62.5 105.03 -62.5 105.03 -63 102 C-61.52 101.01 -61.52 101.01 -60 100 C-59.21 97.81 -59.21 97.81 -58.81 95.38 C-58.65 94.56 -58.5 93.74 -58.33 92.9 C-58.22 92.27 -58.11 91.65 -58 91 C-58.7 91.19 -59.4 91.37 -60.12 91.56 C-63.44 92.07 -65.78 91.93 -69 91 C-70.44 89.19 -70.44 89.19 -71 87 C-70.75 84.98 -70.75 84.98 -70 83 C-63.49 79.5 -58.18 79.9 -51 81 C-52.37 77.84 -52.99 77.01 -56 75 C-54.79 71.28 -53.49 67.62 -52 64 C-52.97 63.73 -53.94 63.46 -54.94 63.19 C-55.95 62.8 -56.96 62.4 -58 62 C-58.5 60.52 -58.5 60.52 -59 59 C-59.99 59 -60.98 59 -62 59 C-62 56.69 -62 54.38 -62 52 C-62.99 52 -63.98 52 -65 52 C-66.11 46.35 -66 43.12 -62.89 38.27 C-61.66 35.13 -62.11 32.71 -62.5 29.38 C-62.91 25.9 -62.91 25.9 -63 23 C-62.34 22.34 -61.68 21.68 -61 21 C-56.12 21.22 -53.57 22.75 -50 26 C-50.33 26.99 -50.66 27.98 -51 29 C-53.31 28.67 -55.62 28.34 -58 28 C-56.88 31.73 -56.88 31.73 -54 34 C-54 33.34 -54 32.68 -54 32 C-53.34 32 -52.68 32 -52 32 C-51.34 31.01 -50.68 30.02 -50 29 C-49.01 29 -48.02 29 -47 29 C-47 27.35 -47 25.7 -47 24 C-46.34 24 -45.68 24 -45 24 C-44.67 24.66 -44.34 25.32 -44 26 C-43.67 24.68 -43.34 23.36 -43 22 C-41.95 22.16 -40.9 22.33 -39.81 22.5 C-36.8 22.9 -34.03 23.09 -31 23 C-31 22.34 -31 21.68 -31 21 C-28.69 21.33 -26.38 21.66 -24 22 C-24.66 21.67 -25.32 21.34 -26 21 C-25.67 18.36 -25.34 15.72 -25 13 C-24.01 13 -23.02 13 -22 13 C-21.3 14.58 -20.61 16.16 -19.94 17.75 C-19.36 19.07 -19.36 19.07 -18.78 20.42 C-17.95 23.15 -18.02 24.37 -19 27 C-17.42 25.42 -17.25 24.21 -17 22 C-17.98 20.32 -18.98 18.66 -20 17 C-19.5 15.52 -19.5 15.52 -19 14 C-17.67 13.67 -16.33 13.33 -15 13 C-14.67 12.01 -14.34 11.02 -14 10 C-13.01 9.34 -12.02 8.68 -11 8 C-10.38 7.29 -10.38 7.29 -9.75 6.56 C-7.19 4.28 -4.14 3.34 -1 2 C-0.67 1.34 -0.34 0.68 0 0 Z " fill="#369636" transform="translate(133,13)"/>
<path d="M0 0 C0.99 0.66 1.98 1.32 3 2 C2.72 3.14 2.72 3.14 2.44 4.31 C1.77 7.09 1.77 7.09 3 10 C6.3 10.33 9.6 10.66 13 11 C13 11.66 13 12.32 13 13 C11.02 13 9.04 13 7 13 C7 13.66 7 14.32 7 15 C7.99 15.33 8.98 15.66 10 16 C9.5 17.49 9.5 17.49 9 19 C8.66 20.33 8.32 21.66 8 23 C7.67 22.67 7.34 22.34 7 22 C7 24.97 7 27.94 7 31 C7.66 31.33 8.32 31.66 9 32 C8.01 32.33 7.02 32.66 6 33 C5.5 33.99 5.5 33.99 5 35 C4.01 34.5 4.01 34.5 3 34 C3 33.34 3 32.68 3 32 C1.17 32.06 1.17 32.06 -0.69 32.12 C-4.29 32.13 -6.69 31.44 -10 30 C-11.18 29.92 -12.35 29.84 -13.56 29.75 C-17 29 -17 29 -19.12 26.44 C-19.74 25.3 -20.36 24.17 -21 23 C-21.85 21.66 -22.7 20.33 -23.56 19 C-25.04 16.63 -26.33 14.33 -27.56 11.81 C-29.07 8.86 -30.86 6.51 -33 4 C-32.67 3.34 -32.34 2.68 -32 2 C-27.47 4.33 -25.13 7.1 -22 11 C-21.34 11.33 -20.68 11.66 -20 12 C-19.75 12.82 -19.5 13.65 -19.25 14.5 C-18.84 15.32 -18.43 16.15 -18 17 C-14.95 17.9 -14.95 17.9 -12 18 C-12 15.69 -12 13.38 -12 11 C-11.36 10.9 -10.72 10.79 -10.06 10.69 C-9.38 10.46 -8.7 10.23 -8 10 C-7.67 9.01 -7.34 8.02 -7 7 C-5.56 5.31 -5.56 5.31 -4 4 C-3.34 4 -2.68 4 -2 4 C-1.34 2.68 -0.68 1.36 0 0 Z " fill="#4648AD" transform="translate(199,161)"/>
<path d="M0 0 C0.99 0.66 1.98 1.32 3 2 C2.79 2.72 2.59 3.44 2.38 4.19 C1.94 7.45 2.58 9.08 4 12 C3.34 12 2.68 12 2 12 C2 13.32 2 14.64 2 16 C1.34 16 0.68 16 0 16 C-0.12 16.8 -0.25 17.61 -0.38 18.44 C-0.58 19.28 -0.79 20.13 -1 21 C-1.66 21.33 -2.32 21.66 -3 22 C-3 21.34 -3 20.68 -3 20 C-5.31 20 -7.62 20 -10 20 C-10.66 17.03 -11.32 14.06 -12 11 C-10.68 10.67 -9.36 10.34 -8 10 C-7.67 9.01 -7.34 8.02 -7 7 C-5.56 5.31 -5.56 5.31 -4 4 C-3.34 4 -2.68 4 -2 4 C-1.34 2.68 -0.68 1.36 0 0 Z " fill="#3A973D" transform="translate(199,161)"/>
<path d="M0 0 C0.66 0.33 1.32 0.66 2 1 C1.01 2.49 1.01 2.49 0 4 C0.66 4 1.32 4 2 4 C0.8 6.83 -0.56 8.67 -2.56 11.06 C-5.14 13.8 -5.14 13.8 -6 17 C-5.34 17 -4.68 17 -4 17 C-4 18.65 -4 20.3 -4 22 C-7 23 -7 23 -10 22 C-12.92 18.18 -13.66 14.76 -14 10 C-13.56 7.06 -13.56 7.06 -13 5 C-11.5 6.38 -11.5 6.38 -10 8 C-10 8.66 -10 9.32 -10 10 C-9.34 10 -8.68 10 -8 10 C-7.79 9.46 -7.59 8.93 -7.38 8.38 C-5.42 5 -2.82 2.7 0 0 Z " fill="#463FB5" transform="translate(216,132)"/>
<path d="M0 0 C2.94 0.81 2.94 0.81 6 2 C6.33 2.99 6.66 3.98 7 5 C6.34 5 5.68 5 5 5 C4.67 5.99 4.34 6.98 4 8 C4.99 9.48 4.99 9.48 6 11 C6.44 12.88 6.81 14.78 7.12 16.69 C7.38 18.18 7.38 18.18 7.63 19.7 C7.75 20.46 7.88 21.22 8 22 C6.35 22.33 4.7 22.66 3 23 C3 23.99 3 24.98 3 26 C2.36 26.25 1.72 26.5 1.06 26.75 C-1.19 27.82 -1.19 27.82 -1.75 30.12 C-1.83 30.74 -1.91 31.36 -2 32 C-2.66 32 -3.32 32 -4 32 C-4 30.68 -4 29.36 -4 28 C-4.66 28 -5.32 28 -6 28 C-5.49 25.83 -5 24 -4 22 C-2.35 22 -0.7 22 1 22 C1 20.68 1 19.36 1 18 C1.66 18 2.32 18 3 18 C2.87 17.43 2.73 16.86 2.6 16.28 C0 4.92 0 4.92 0 0 Z " fill="#2C7F3C" transform="translate(215,79)"/>
<path d="M0 0 C0.33 1.32 0.66 2.64 1 4 C0.01 4.66 -0.98 5.32 -2 6 C-1.55 6.8 -1.09 7.61 -0.62 8.44 C1.26 12.57 2.16 16.56 3 21 C0.2 21.23 -1.46 21.34 -3.88 19.81 C-4.43 18.92 -4.43 18.92 -5 18 C-4.81 17.26 -4.63 16.52 -4.44 15.75 C-3.92 12.53 -4.36 12.07 -6.06 9.44 C-8 6 -8 6 -7.44 3.69 C-5.11 0.95 -3.61 0 0 0 Z " fill="#383AA0" transform="translate(98,83)"/>
<path d="M0 0 C1.65 0 3.3 0 5 0 C5 1.65 5 3.3 5 5 C5.54 4.46 6.07 3.93 6.62 3.38 C7.8 2.69 7.8 2.69 9 2 C10.98 2.66 12.96 3.32 15 4 C14.67 8.29 14.34 12.58 14 17 C12.35 16.67 10.7 16.34 9 16 C9.23 15.4 9.45 14.8 9.69 14.19 C10.25 11.99 10.25 11.99 8.94 10.44 C6.92 8.82 6.92 8.82 3.88 7.69 C1 6 1 6 0.12 2.81 C0.08 1.88 0.04 0.96 0 0 Z " fill="#44994C" transform="translate(222,176)"/>
<path d="M0 0 C4.69 1.24 6.78 3.77 9.67 7.44 C10.94 9.13 10.94 9.13 13 10 C13.72 11.64 14.39 13.31 15 15 C15.66 15 16.32 15 17 15 C16.67 17.64 16.34 20.28 16 23 C12.7 21.63 11.24 20.32 9.44 17.25 C9.01 16.54 8.59 15.82 8.16 15.09 C7.2 13.36 6.31 11.59 5.44 9.81 C3.93 6.87 2.07 4.57 0 2 C0 1.34 0 0.68 0 0 Z " fill="#328E37" transform="translate(166,163)"/>
<path d="M0 0 C1.5 1.19 1.5 1.19 3 3 C2.91 4.21 2.91 4.21 2.81 5.44 C2.87 6.28 2.94 7.13 3 8 C3.99 8.66 4.98 9.32 6 10 C6.99 10.66 7.98 11.32 9 12 C9.38 14.75 9.38 14.75 9 17 C6 18 6 18 3 17 C0.08 13.18 -0.66 9.76 -1 5 C-0.56 2.06 -0.56 2.06 0 0 Z " fill="#426A7B" transform="translate(203,137)"/>
<path d="M0 0 C-0.33 0.99 -0.66 1.98 -1 3 C-1.78 3.31 -2.57 3.62 -3.38 3.94 C-6.46 5.18 -7.52 6.03 -9 9 C-8.77 12.19 -8.77 12.19 -8 15 C-9.32 15 -10.64 15 -12 15 C-12 14.34 -12 13.68 -12 13 C-12.66 13 -13.32 13 -14 13 C-12.74 8.5 -11.32 5.32 -8 2 C-5.22 0.83 -3.02 0 0 0 Z " fill="#459158" transform="translate(106,17)"/>
<path d="M0 0 C3 1 3 1 6 3 C7.66 3.69 9.32 4.36 11 5 C11 5.66 11 6.32 11 7 C7.37 7 3.74 7 0 7 C-0.66 5.35 -1.32 3.7 -2 2 C-1.34 1.34 -0.68 0.68 0 0 Z " fill="#486B88" transform="translate(122,5)"/>
<path d="M0 0 C5.13 0.64 9.8 1.88 14 5 C14 5.33 14 5.66 14 6 C8.92 6.25 4.81 5.55 0 4 C-0.33 3.01 -0.66 2.02 -1 1 C-0.67 0.67 -0.34 0.34 0 0 Z " fill="#398E46" transform="translate(183,186)"/>
<path d="M0 0 C2 2.5 2 2.5 4 5 C4.72 5.8 5.44 6.61 6.19 7.44 C8.25 10.35 8.67 12.48 9 16 C8.34 16 7.68 16 7 16 C5.35 12.7 3.7 9.4 2 6 C1.01 6.5 1.01 6.5 0 7 C0 4.69 0 2.38 0 0 Z " fill="#1B712F" transform="translate(206,60)"/>
<path d="M0 0 C0.33 0.66 0.66 1.32 1 2 C2.32 1.67 3.64 1.34 5 1 C4 5 4 5 3 9 C2.67 8.67 2.34 8.34 2 8 C1.34 8.99 0.68 9.98 0 11 C-0.19 9.54 -0.38 8.08 -0.56 6.62 C-0.67 5.81 -0.77 5 -0.88 4.16 C-1 2 -1 2 0 0 Z " fill="#3F9449" transform="translate(204,175)"/>
<path d="M0 0 C2.97 0.33 5.94 0.66 9 1 C8.67 2.65 8.34 4.3 8 6 C7.01 5.67 6.02 5.34 5 5 C5 5.66 5 6.32 5 7 C4.01 6.67 3.02 6.34 2 6 C0.81 2.94 0.81 2.94 0 0 Z " fill="#4E5BA3" transform="translate(74,40)"/>
<path d="M0 0 C1.35 0.15 1.35 0.15 2.73 0.31 C3.42 0.39 4.1 0.48 4.81 0.56 C4.81 0.89 4.81 1.22 4.81 1.56 C3.23 1.78 3.23 1.78 1.62 2 C-1.34 2.44 -4.26 2.94 -7.19 3.56 C-7.52 2.57 -7.85 1.58 -8.19 0.56 C-4.99 -0.5 -3.3 -0.39 0 0 Z " fill="#2E764E" transform="translate(172.1875,11.4375)"/>
<path d="M0 0 C0.66 0.33 1.32 0.66 2 1 C1.67 3.31 1.34 5.62 1 8 C0.34 8 -0.32 8 -1 8 C-1 6.68 -1 5.36 -1 4 C-1.99 4 -2.98 4 -4 4 C-4.33 4.66 -4.66 5.32 -5 6 C-5 5.01 -5 4.02 -5 3 C-2.62 1.25 -2.62 1.25 0 0 Z " fill="#408D50" transform="translate(212,155)"/>
<path d="M0 0 C1.5 1.19 1.5 1.19 3 3 C3.04 4.67 3.04 6.33 3 8 C3.66 8.66 4.32 9.32 5 10 C3.68 10 2.36 10 1 10 C-0.84 6.22 -1.16 4.05 0 0 Z " fill="#398F41" transform="translate(203,137)"/>
<path d="M0 0 C2.69 0.18 5.33 0.62 8 1 C8.33 1.99 8.66 2.98 9 4 C1.25 3.25 1.25 3.25 -1 1 C-0.67 0.67 -0.34 0.34 0 0 Z " fill="#428B59" transform="translate(124,8)"/>
<path d="M0 0 C0 0.66 0 1.32 0 2 C0.66 2.33 1.32 2.66 2 3 C1.36 3.25 0.72 3.5 0.06 3.75 C-2.19 4.82 -2.19 4.82 -2.75 7.12 C-2.83 7.74 -2.91 8.36 -3 9 C-3.66 8.67 -4.32 8.34 -5 8 C-5.19 5.12 -5.19 5.12 -5 2 C-2 0 -2 0 0 0 Z " fill="#35626C" transform="translate(216,102)"/>
<path d="M0 0 C3.06 0.19 3.06 0.19 5.06 2.19 C4.07 2.52 3.08 2.85 2.06 3.19 C1.73 3.85 1.4 4.51 1.06 5.19 C0.4 4.86 -0.26 4.53 -0.94 4.19 C-0.94 3.53 -0.94 2.87 -0.94 2.19 C-1.93 1.86 -2.92 1.53 -3.94 1.19 C-2.94 0.19 -2.94 0.19 0 0 Z " fill="#446F7D" transform="translate(202.9375,190.8125)"/>
<path d="M0 0 C2.06 0.44 2.06 0.44 4 1 C3.34 1.66 2.68 2.32 2 3 C2.66 4.65 3.32 6.3 4 8 C3.34 7.67 2.68 7.34 2 7 C2 6.34 2 5.68 2 5 C1.34 5 0.68 5 0 5 C-0.56 3.06 -0.56 3.06 -1 1 C-0.67 0.67 -0.34 0.34 0 0 Z " fill="#427F67" transform="translate(119,23)"/>
<path d="M0 0 C0.33 0.66 0.66 1.32 1 2 C1.99 2.33 2.98 2.66 4 3 C3.34 3 2.68 3 2 3 C1.67 4.98 1.34 6.96 1 9 C-0.32 8.67 -1.64 8.34 -3 8 C-2.01 8 -1.02 8 0 8 C-0.19 7.05 -0.37 6.1 -0.56 5.12 C-1 2 -1 2 0 0 Z " fill="#45618E" transform="translate(114,32)"/>
<path d="M0 0 C0.66 0 1.32 0 2 0 C2.66 1.32 3.32 2.64 4 4 C2.02 4.99 2.02 4.99 0 6 C-1.12 2.25 -1.12 2.25 0 0 Z " fill="#45519D" transform="translate(206,148)"/>
</svg>
