<?xml version="1.0" encoding="UTF-8"?>
<svg version="1.1" xmlns="http://www.w3.org/2000/svg" width="900" height="600" viewBox="0 0 300 200" preserveAspectRatio="xMidYMid slice">
<path d="M0 0 C99 0 198 0 300 0 C300 66 300 132 300 200 C201 200 102 200 0 200 C0 134 0 68 0 0 Z " fill="#3E35B0" transform="translate(0,0)"/>
<path d="M0 0 C45.87 0 91.74 0 139 0 C137.68 2.64 136.36 5.28 135 8 C134.48 9.13 133.97 10.27 133.44 11.44 C132 14 132 14 129 15 C129 15.66 129 16.32 129 17 C127.68 17.33 126.36 17.66 125 18 C125.33 17.34 125.66 16.68 126 16 C119.76 17.47 119.76 17.47 115.06 21.5 C114.71 22.32 114.36 23.15 114 24 C113.01 25.48 113.01 25.48 112 27 C111.34 27 110.68 27 110 27 C110.19 28.2 110.37 29.39 110.56 30.62 C111.03 34.28 110.81 37.38 110 41 C109.34 41 108.68 41 108 41 C107.67 42.32 107.34 43.64 107 45 C106.34 45 105.68 45 105 45 C105 45.99 105 46.98 105 48 C104.01 48.49 104.01 48.49 103 49 C102.34 52.03 102.34 52.03 102 55 C102.66 55.33 103.32 55.66 104 56 C103.67 56.74 103.34 57.48 103 58.25 C101.77 61.14 101.77 61.14 102 65 C102.62 65.1 103.24 65.2 103.87 65.3 C106.92 66.3 107.63 68.39 109.05 71.13 C109.38 71.81 109.72 72.49 110.06 73.19 C110.4 73.85 110.74 74.51 111.09 75.19 C112.63 78.21 114.13 81.26 115.62 84.3 C117.57 88.47 117.57 88.47 121.25 90.88 C125.92 92.78 129.19 95.79 132 100 C132.2 102.66 132.2 102.66 132.12 105.91 C132.1 107.75 132.1 107.75 132.07 109.61 C132.06 110.27 132.05 110.92 132.04 111.59 C131.81 124.25 132.17 136.81 133 149.44 C133.05 150.17 133.1 150.91 133.15 151.66 C133.42 155.78 133.7 159.89 134 164 C134.66 164 135.32 164 136 164 C136 162.68 136 161.36 136 160 C136.66 160 137.32 160 138 160 C138.33 163.63 138.66 167.26 139 171 C138.01 171 137.02 171 136 171 C136 171.66 136 172.32 136 173 C136.99 173 137.98 173 139 173 C139.27 173.75 139.53 174.5 139.8 175.27 C140.16 176.25 140.51 177.24 140.88 178.25 C141.22 179.22 141.57 180.2 141.93 181.2 C142.83 183.56 143.82 185.77 145 188 C144.67 188.33 144.34 188.66 144 189 C144.66 189.33 145.32 189.66 146 190 C146 190.66 146 191.32 146 192 C147.65 192 149.3 192 151 192 C151 192.66 151 193.32 151 194 C152.98 194 154.96 194 157 194 C157 194.66 157 195.32 157 196 C157.56 195.67 158.11 195.34 158.69 195 C161.3 193.87 163.18 193.84 166 194 C164.47 196.94 163.7 198.18 161 200 C155.91 200.93 150.81 200.76 145.65 200.68 C144.04 200.68 142.43 200.68 140.82 200.68 C136.5 200.68 132.18 200.65 127.87 200.61 C123.82 200.57 119.77 200.57 115.72 200.57 C103.87 200.54 92.03 200.45 80.19 200.38 C53.73 200.25 27.26 200.13 0 200 C0 134 0 68 0 0 Z " fill="#3F37B2" transform="translate(0,0)"/>
<path d="M0 0 C0 0.33 0 0.66 0 1 C0.66 1 1.32 1 2 1 C2 0.34 2 -0.32 2 -1 C2.66 -1 3.32 -1 4 -1 C4 -0.34 4 0.32 4 1 C4.66 1 5.32 1 6 1 C6 1.66 6 2.32 6 3 C7.39 2.94 7.39 2.94 8.81 2.88 C12 3 12 3 15 5 C15 4.34 15 3.68 15 3 C16.98 2.67 18.96 2.34 21 2 C20.67 2.99 20.34 3.98 20 5 C20.99 5.33 21.98 5.66 23 6 C23 6.99 23 7.98 23 9 C23.74 9.06 24.49 9.12 25.25 9.19 C28 10 28 10 29.69 12.44 C32.77 15.85 35.25 15.78 39.65 16.49 C42 17 42 17 44.56 18.75 C46.32 21.49 46.71 23.78 47 27 C47.66 27 48.32 27 49 27 C47.5 30.11 45.8 33.05 44 36 C44.66 35.67 45.32 35.34 46 35 C46.33 34.01 46.66 33.02 47 32 C48.65 32 50.3 32 52 32 C51.67 33.32 51.34 34.64 51 36 C51.66 36 52.32 36 53 36 C53 35.34 53 34.68 53 34 C55.31 34.33 57.62 34.66 60 35 C60.5 36.98 60.5 36.98 61 39 C62.12 38.95 62.12 38.95 63.27 38.89 C64.25 38.87 65.24 38.84 66.25 38.81 C67.22 38.78 68.2 38.74 69.2 38.71 C72.4 39.04 73.73 39.77 76 42 C76 42.66 76 43.32 76 44 C77.13 44.14 78.27 44.29 79.44 44.44 C83 45 83 45 84 46 C84.26 50.57 84.17 53.95 82 58 C81.53 58.53 81.05 59.05 80.57 59.59 C75.73 65.07 75.37 69.52 75.13 76.72 C74.88 83.07 73.22 88.1 69 93 C65.44 94.31 65.44 94.31 62 95 C58.49 96.17 57.21 97.03 55 100 C55 101.95 55.01 103.91 55.11 105.86 C54.95 109.03 53.68 111.25 52.13 113.97 C50.95 115.99 50.95 115.99 50.09 118.25 C49.21 120.38 48.41 122.17 47 124 C43.46 124.99 40.64 125 37 125 C37.47 125.41 37.95 125.82 38.44 126.25 C40.21 128.23 40.75 129.37 41 132 C39 135 39 135 37.05 135.51 C35.98 135.6 35.98 135.6 34.88 135.69 C32.96 135.84 32.96 135.84 31 136 C31 137.65 31 139.3 31 141 C29.02 141 27.04 141 25 141 C25.5 141.77 25.5 141.77 26 142.56 C27.32 145.78 27.13 148.56 27 152 C26.34 152 25.68 152 25 152 C26.12 155.73 26.12 155.73 29 158 C29 158.99 29 159.98 29 161 C28.34 161 27.68 161 27 161 C26.98 162.28 26.96 163.56 26.94 164.88 C26.93 165.59 26.91 166.31 26.9 167.05 C26.87 169.08 26.87 169.08 28 171 C27.34 171.33 26.68 171.66 26 172 C25.67 172.99 25.34 173.98 25 175 C23.68 175 22.36 175 21 175 C21 174.34 21 173.68 21 173 C21.66 172.67 22.32 172.34 23 172 C21.61 171.63 21.61 171.63 20.19 171.25 C16.64 169.86 15.71 169.34 14 166 C13.18 163.02 12.55 160.04 12 157 C11.01 157 10.02 157 9 157 C9 156.34 9 155.68 9 155 C9.99 155 10.98 155 12 155 C11.67 151.37 11.34 147.74 11 144 C10.34 144 9.68 144 9 144 C9 145.32 9 146.64 9 148 C8.34 148 7.68 148 7 148 C4.61 143.21 5.26 136.53 4.94 131.19 C4.89 130.46 4.85 129.73 4.8 128.97 C4.07 116.94 3.83 104.96 3.99 92.9 C4 91.77 4.01 90.64 4.03 89.48 C4.05 88.49 4.06 87.5 4.08 86.48 C4.11 83.87 4.11 83.87 3 81 C1.51 80.5 1.51 80.5 0 80 C0 79.34 0 78.68 0 78 C-2.16 76.88 -4.16 75.95 -6.5 75.25 C-12.03 72.48 -14.57 65.11 -17.19 59.75 C-17.54 59.03 -17.9 58.31 -18.26 57.57 C-19.18 55.72 -20.09 53.86 -21 52 C-21.33 51.34 -21.66 50.68 -22 50 C-22.99 49.67 -23.98 49.34 -25 49 C-25.62 46.19 -25.62 46.19 -26 43 C-25.34 42.01 -24.68 41.02 -24 40 C-24.33 39.67 -24.66 39.34 -25 39 C-25.04 37 -25.04 35 -25 33 C-23.52 32.51 -23.52 32.51 -22 32 C-22 31.01 -22 30.02 -22 29 C-21.34 28.67 -20.68 28.34 -20 28 C-19.67 27.01 -19.34 26.02 -19 25 C-18.34 25 -17.68 25 -17 25 C-17 20.38 -17 15.76 -17 11 C-16.34 11 -15.68 11 -15 11 C-14.73 10.44 -14.46 9.89 -14.19 9.31 C-13.6 8.17 -13.6 8.17 -13 7 C-12.61 6.15 -12.22 5.31 -11.81 4.44 C-8.8 0.39 -4.87 -1.62 0 0 Z " fill="#2A842A" transform="translate(127,16)"/>
<path d="M0 0 C0 0.33 0 0.66 0 1 C0.66 1 1.32 1 2 1 C2 0.34 2 -0.32 2 -1 C2.66 -1 3.32 -1 4 -1 C4 -0.34 4 0.32 4 1 C4.66 1 5.32 1 6 1 C6 1.66 6 2.32 6 3 C7.39 2.94 7.39 2.94 8.81 2.88 C12 3 12 3 15 5 C15 4.34 15 3.68 15 3 C16.98 2.67 18.96 2.34 21 2 C20.67 2.99 20.34 3.98 20 5 C20.99 5.33 21.98 5.66 23 6 C23 6.99 23 7.98 23 9 C23.66 9 24.32 9 25 9 C24.68 10.34 24.34 11.67 24 13 C23.77 14.2 23.55 15.39 23.31 16.62 C22 20 22 20 18.88 21.44 C17.93 21.62 16.98 21.81 16 22 C16.16 22.64 16.33 23.28 16.5 23.94 C17 26 17 26 17 27 C18.16 25.78 19.3 24.55 20.44 23.31 C21.08 22.63 21.71 21.94 22.37 21.24 C24.17 18.77 24.48 16.97 25 14 C25.66 13.67 26.32 13.34 27 13 C26.67 15.97 26.34 18.94 26 22 C25.34 22 24.68 22 24 22 C23.75 22.56 23.5 23.11 23.25 23.69 C21.77 26.42 20.07 28.68 18 31 C17.34 31 16.68 31 16 31 C15.67 31.99 15.34 32.98 15 34 C14.34 34 13.68 34 13 34 C12.79 34.72 12.59 35.44 12.38 36.19 C10.55 39.92 8.26 41.44 5 44 C4.67 44.66 4.34 45.32 4 46 C3.34 46 2.68 46 2 46 C1.75 46.58 1.5 47.16 1.25 47.75 C-0.18 50.33 -1.78 52.06 -4 54 C-4.66 54 -5.32 54 -6 54 C-6.25 54.72 -6.5 55.44 -6.75 56.19 C-8.13 59.3 -9.67 61.53 -12 64 C-12.99 64 -13.98 64 -15 64 C-15.47 63 -15.94 62 -16.43 60.97 C-17.05 59.67 -17.68 58.37 -18.31 57.06 C-18.62 56.4 -18.93 55.74 -19.25 55.06 C-20.09 53.34 -21.04 51.66 -22 50 C-22.99 49.67 -23.98 49.34 -25 49 C-25.62 46.19 -25.62 46.19 -26 43 C-25.34 42.01 -24.68 41.02 -24 40 C-24.33 39.67 -24.66 39.34 -25 39 C-25.04 37 -25.04 35 -25 33 C-23.52 32.51 -23.52 32.51 -22 32 C-22 31.01 -22 30.02 -22 29 C-21.34 28.67 -20.68 28.34 -20 28 C-19.67 27.01 -19.34 26.02 -19 25 C-18.34 25 -17.68 25 -17 25 C-17 20.38 -17 15.76 -17 11 C-16.34 11 -15.68 11 -15 11 C-14.73 10.44 -14.46 9.89 -14.19 9.31 C-13.6 8.17 -13.6 8.17 -13 7 C-12.61 6.15 -12.22 5.31 -11.81 4.44 C-8.8 0.39 -4.87 -1.62 0 0 Z " fill="#459646" transform="translate(127,16)"/>
<path d="M0 0 C0.33 0.99 0.66 1.98 1 3 C0.46 3.38 -0.09 3.75 -0.64 4.14 C-4.78 7.09 -7.58 9.43 -10 14 C-10.66 14 -11.32 14 -12 14 C-11.69 15.64 -11.69 15.64 -11.38 17.31 C-11 21 -11 21 -13 24 C-12.01 24 -11.02 24 -10 24 C-10.33 25.32 -10.66 26.64 -11 28 C-11 27.34 -11 26.68 -11 26 C-12.32 25.34 -13.64 24.68 -15 24 C-15 22.68 -15 21.36 -15 20 C-14.34 20 -13.68 20 -13 20 C-13.66 16.37 -14.32 12.74 -15 9 C-13.02 9 -11.04 9 -9 9 C-9 7.35 -9 5.7 -9 4 C-8.43 3.88 -7.87 3.76 -7.29 3.63 C-6.18 3.38 -6.18 3.38 -5.06 3.12 C-4.33 2.96 -3.6 2.8 -2.85 2.63 C-0.79 2.17 -0.79 2.17 0 0 Z " fill="#333F90" transform="translate(167,148)"/>
<path d="M0 0 C3.33 1.67 6.67 3.33 10 5 C7.38 6.75 5.96 7.39 3 8 C3 7.34 3 6.68 3 6 C1.35 6 -0.3 6 -2 6 C-2 5.34 -2 4.68 -2 4 C-1.34 4 -0.68 4 0 4 C-0.33 3.01 -0.66 2.02 -1 1 C-0.67 0.67 -0.34 0.34 0 0 Z " fill="#39725F" transform="translate(154,188)"/>
<path d="M0 0 C0.33 0.66 0.66 1.32 1 2 C0.34 2.66 -0.32 3.32 -1 4 C-1 4.66 -1 5.32 -1 6 C-1.66 6 -2.32 6 -3 6 C-3.33 6.66 -3.66 7.32 -4 8 C-4 7.34 -4 6.68 -4 6 C-5.65 6 -7.3 6 -9 6 C-9 5.34 -9 4.68 -9 4 C-9.99 3.67 -10.98 3.34 -12 3 C-10 1 -10 1 -7.38 0.88 C-6.59 0.92 -5.81 0.96 -5 1 C-4.67 1.66 -4.34 2.32 -4 3 C-4.99 3 -5.98 3 -7 3 C-7 3.66 -7 4.32 -7 5 C-5.68 5 -4.36 5 -3 5 C-2.88 4.36 -2.75 3.72 -2.62 3.06 C-2.42 2.38 -2.21 1.7 -2 1 C-1.34 0.67 -0.68 0.34 0 0 Z " fill="#334D81" transform="translate(155,186)"/>
<path d="M0 0 C2.01 0.29 4.01 0.62 6 1 C6 1.66 6 2.32 6 3 C7.32 3.33 8.64 3.66 10 4 C8.68 4 7.36 4 6 4 C6 4.66 6 5.32 6 6 C5.01 6.33 4.02 6.66 3 7 C3.66 5.35 4.32 3.7 5 2 C3.35 2 1.7 2 0 2 C-0.33 3.32 -0.66 4.64 -1 6 C-1.66 6 -2.32 6 -3 6 C-1.12 1.12 -1.12 1.12 0 0 Z " fill="#244073" transform="translate(174,46)"/>
<path d="M0 0 C0.99 0 1.98 0 3 0 C3.66 2.31 4.32 4.62 5 7 C3.06 7.56 3.06 7.56 1 8 C0 7 0 7 -0.06 3.44 C-0.04 2.3 -0.02 1.17 0 0 Z " fill="#2B3D85" transform="translate(136,173)"/>
<path d="M0 0 C0.33 0 0.66 0 1 0 C1.33 3.63 1.66 7.26 2 11 C1.01 11 0.02 11 -1 11 C-1.33 11.66 -1.66 12.32 -2 13 C-2 11.02 -2 9.04 -2 7 C-1.34 7 -0.68 7 0 7 C0 4.69 0 2.38 0 0 Z " fill="#294477" transform="translate(137,160)"/>
<path d="M0 0 C0.99 0 1.98 0 3 0 C3 1.98 3 3.96 3 6 C3.66 6.33 4.32 6.66 5 7 C4.01 7 3.02 7 2 7 C1.67 6.01 1.34 5.02 1 4 C0.34 3.67 -0.32 3.34 -1 3 C-0.67 2.01 -0.34 1.02 0 0 Z " fill="#425F87" transform="translate(148,18)"/>
<path d="M0 0 C3.16 1.37 3.99 1.99 6 5 C4.35 4.67 2.7 4.34 1 4 C1 3.34 1 2.68 1 2 C0.34 1.67 -0.32 1.34 -1 1 C-0.67 0.67 -0.34 0.34 0 0 Z " fill="#398743" transform="translate(154,188)"/>
</svg>
