<?xml version="1.0" encoding="UTF-8"?>
<!-- Generator: https://ezgif.com/png-to-svg -->
<svg version="1.1" xmlns="http://www.w3.org/2000/svg" width="300" height="200">
<path d="M0 0 C99 0 198 0 300 0 C300 66 300 132 300 200 C201 200 102 200 0 200 C0 134 0 68 0 0 Z " fill="#4239B3" transform="translate(0,0)"/>
<path d="M0 0 C14.65 13.25 26.82 32.41 28.67 52.41 C29 52.74 29.33 53.07 29.67 53.41 C31.64 75.94 27.77 94.9 16.67 114.41 C16.19 115.26 15.7 116.11 15.21 116.98 C3.3 136.19 -16.63 149.72 -38.33 155.41 C-63.16 160.93 -86.43 156.99 -108.33 144.41 C-111.94 141.99 -115.14 139.36 -118.33 136.41 C-119.11 135.77 -119.88 135.12 -120.68 134.45 C-133.89 123.3 -133.89 123.3 -134.77 115.6 C-133.18 112.09 -132.7 111.79 -129.39 110.23 C-128.68 109.96 -127.97 109.7 -127.24 109.43 C-124.76 108.11 -124.25 107.05 -123.33 104.41 C-123.17 102.79 -123.07 101.17 -123.02 99.54 C-122.74 95.81 -122.29 93.84 -119.71 91.1 C-117.05 88.68 -117.05 88.68 -117.27 85.73 C-118.58 82.88 -119.57 81.91 -122.33 80.41 C-125.48 79.69 -125.48 79.69 -128.33 79.41 C-128.33 78.75 -128.33 78.09 -128.33 77.41 C-130.64 77.41 -132.95 77.41 -135.33 77.41 C-135.66 76.75 -135.99 76.09 -136.33 75.41 C-135.67 75.41 -135.01 75.41 -134.33 75.41 C-135.18 72.78 -135.86 70.72 -137.33 68.41 C-140.66 66.72 -140.66 66.72 -144.33 65.41 C-147.22 63.99 -148.15 63.03 -150.33 60.41 C-152.51 45.6 -142.01 25.52 -133.63 14.17 C-119.58 -4.16 -99.53 -18.46 -76.24 -21.89 C-47.61 -25.38 -22.2 -18.73 0 0 Z " fill="#18C2C2" transform="translate(210.33203125,32.5859375)"/>
<path d="M0 0 C45.87 0 91.74 0 139 0 C133.23 11.54 133.23 11.54 128.7 13.24 C127.36 13.61 126.03 13.96 124.69 14.31 C112.83 17.72 102.37 22.86 93 31 C91.8 31.96 91.8 31.96 90.58 32.95 C74.35 46.57 64.18 66.68 61.19 87.5 C60.35 92.13 58.41 94.03 54.68 96.75 C52.69 98.23 51.45 100.01 50 102 C49.34 102 48.68 102 48 102 C48 102.66 48 103.32 48 104 C46.43 105.52 46.43 105.52 44.31 107.25 C41.75 109.42 39.66 111.41 37.5 114 C35.46 116.45 33.61 118.23 31.19 120.25 C27.97 122.97 25.44 125.85 22.88 129.19 C19.89 133.04 17.23 135.5 13 138 C10.69 139.74 8.42 141.53 6.15 143.32 C4.12 144.91 2.06 146.45 0 148 C0 99.16 0 50.32 0 0 Z " fill="#544BC0" transform="translate(0,0)"/>
<path d="M0 0 C28.01 -0.82 50.89 5.9 72 25 C82.55 35.4 94.43 51.33 96.32 66.56 C96 69 96 69 94.32 70.48 C93.6 70.9 92.87 71.32 92.12 71.75 C89.53 73.49 88.23 74.39 87.13 77.35 C86.66 79.78 86.66 79.78 86.45 82.14 C86.23 83.06 86.23 83.06 86 84 C84.51 84.5 84.51 84.5 83 85 C79.91 78.92 78.43 73.82 78 67 C77.01 67 76.02 67 75 67 C74.48 66.2 73.97 65.39 73.44 64.56 C70.18 61.14 67.81 61.37 63.24 61.24 C61 61 61 61 59 59 C57.76 58.81 57.76 58.81 56.5 58.62 C55.68 58.42 54.85 58.21 54 58 C52.81 56 52.81 56 52 54 C51.34 53.67 50.68 53.34 50 53 C50.66 55.31 51.32 57.62 52 60 C52.66 60 53.32 60 54 60 C54 60.66 54 61.32 54 62 C54.74 61.77 55.49 61.55 56.25 61.31 C59 61 59 61 61.31 62.44 C61.87 62.95 62.43 63.47 63 64 C62.51 68.41 61.41 70.19 58 73 C49.66 79.17 49.66 79.17 44 80 C44.33 80.66 44.66 81.32 45 82 C47.64 81.67 50.28 81.34 53 81 C52.16 88.09 49.7 92.35 44.88 97.5 C41.73 100.94 39.89 103.14 40 108 C40.32 109.67 40.65 111.34 41 113 C41.12 114.56 41.2 116.12 41.25 117.69 C41.28 118.45 41.3 119.22 41.33 120.01 C41.22 120.67 41.11 121.32 41 122 C38 124 38 124 35 124 C35 127.3 35 130.6 35 134 C34.01 134.33 33.02 134.66 32 135 C31.96 135.85 31.92 136.69 31.88 137.56 C30.7 142.17 28.95 145.25 25 148 C21.32 148.86 17.78 149.05 14 149 C13.88 148.42 13.76 147.84 13.63 147.24 C12.5 141.97 11.17 136.93 9.17 131.91 C7.42 127.24 6.8 123.95 7.66 119.04 C8.74 112.61 8.52 108.27 4.89 102.84 C3.23 99.41 3.7 95.71 4 92 C2.68 92 1.36 92 0 92 C0 91.01 0 90.02 0 89 C-1.16 89.29 -2.32 89.57 -3.51 89.87 C-5.05 90.2 -6.59 90.54 -8.12 90.88 C-8.89 91.07 -9.65 91.26 -10.43 91.46 C-16.02 92.62 -16.02 92.62 -18.81 90.86 C-20.38 89.32 -21.7 87.77 -23 86 C-23.72 85.05 -23.72 85.05 -24.46 84.09 C-27.57 78.26 -28.01 72.49 -27 66 C-25.45 61.97 -23.51 58.46 -20.4 55.45 C-18.34 53.32 -17.91 50.78 -17 48 C-16.01 47.51 -16.01 47.51 -15 47 C-14.34 44.47 -14.34 44.47 -14 42 C-14.99 42 -15.98 42 -17 42 C-17 38.7 -17 35.4 -17 32 C-14.03 32 -11.06 32 -8 32 C-8.6 29.98 -9.27 27.98 -10 26 C-10.66 25.67 -11.32 25.34 -12 25 C-12 24.34 -12 23.68 -12 23 C-11.01 23 -10.02 23 -9 23 C-9 22.34 -9 21.68 -9 21 C-7.68 21 -6.36 21 -5 21 C-4.67 20.01 -4.34 19.02 -4 18 C-3.01 18 -2.02 18 -1 18 C-0.67 17.01 -0.34 16.02 0 15 C1.32 15 2.64 15 4 15 C3.67 12.36 3.34 9.72 3 7 C2.34 7 1.68 7 1 7 C0.67 4.69 0.34 2.38 0 0 Z " fill="#197C18" transform="translate(141,10)"/>
<path d="M0 0 C1.19 0 2.37 0 3.59 0 C4.25 0 4.91 0 5.59 0 C7.81 -0 10.03 0 12.26 0.01 C13.84 0.01 15.43 0.01 17.01 0.01 C21.33 0.01 25.65 0.01 29.97 0.02 C34.48 0.03 38.99 0.03 43.5 0.03 C52.05 0.03 60.6 0.04 69.14 0.05 C78.87 0.06 88.59 0.07 98.32 0.07 C118.33 0.08 138.35 0.1 158.36 0.12 C158.36 20.25 158.36 40.38 158.36 61.12 C153.36 63.12 153.36 63.12 151.3 63.56 C149.27 64.03 149.27 64.03 147.55 65.5 C145.56 66.98 143.95 67.77 141.68 68.69 C138.29 69.73 138.29 69.73 137.36 72.12 C135.7 73.14 134.04 74.13 132.36 75.12 C129.11 77.59 126.2 80.19 123.36 83.12 C122.56 83.91 121.75 84.69 120.93 85.5 C119.03 87.44 117.36 89.33 115.68 91.44 C114.91 92.32 114.15 93.21 113.36 94.12 C112.7 94.12 112.04 94.12 111.36 94.12 C110.87 95.61 110.87 95.61 110.36 97.12 C109.62 97.7 108.88 98.28 108.11 98.87 C105.7 100.85 104.39 102.35 102.68 104.87 C101.91 105.95 101.15 107.02 100.36 108.12 C99.7 108.12 99.04 108.12 98.36 108.12 C98.34 107.46 98.31 106.8 98.29 106.12 C98.17 103.14 98.05 100.16 97.93 97.19 C97.89 96.14 97.85 95.1 97.81 94.03 C97.76 93.04 97.72 92.05 97.68 91.03 C97.64 90.12 97.61 89.2 97.57 88.26 C97.59 86.14 97.59 86.14 96.36 85.12 C96.09 83.54 95.84 81.96 95.61 80.37 C91.83 59.18 78.16 39.75 60.81 27.29 C43.21 15.61 25.12 10.7 4.18 11 C2.32 11.01 2.32 11.01 0.42 11.03 C-2.6 11.05 -5.62 11.08 -8.64 11.12 C-8.34 10.53 -8.04 9.93 -7.74 9.32 C-6.84 7.53 -5.96 5.73 -5.07 3.94 C-3.14 0.15 -3.14 0.15 0 0 Z " fill="#2D24A6" transform="translate(141.63744449615479,-0.1230478286743164)"/>
<path d="M0 0 C1 3 1 3 1 6 C1.66 6 2.32 6 3 6 C3.5 9.96 3.5 9.96 4 14 C3.36 14.12 2.72 14.25 2.06 14.38 C1.38 14.58 0.7 14.79 0 15 C-0.33 15.66 -0.66 16.32 -1 17 C-2.49 17.49 -2.49 17.49 -4 18 C-4.33 18.66 -4.66 19.32 -5 20 C-6.32 20 -7.64 20 -9 20 C-9 20.66 -9 21.32 -9 22 C-9.99 22 -10.98 22 -12 22 C-12 22.66 -12 23.32 -12 24 C-10.68 24.66 -9.36 25.32 -8 26 C-8 27.65 -8 29.3 -8 31 C-10.97 31 -13.94 31 -17 31 C-17 34.3 -17 37.6 -17 41 C-16.01 41 -15.02 41 -14 41 C-13.81 43.38 -13.81 43.38 -14 46 C-14.99 46.66 -15.98 47.32 -17 48 C-17.31 49.11 -17.62 50.23 -17.94 51.38 C-19.08 55.27 -20.13 56.3 -23 59 C-26.84 64.49 -26.95 70.54 -26 77 C-24.84 79.53 -23.48 81.77 -22 84.11 C-21 86 -21 86 -21.38 88.62 C-23.15 91.22 -24.95 93.78 -26.88 96.25 C-28.12 97.97 -28.12 97.97 -28.52 100.14 C-29 102 -29 102 -31.06 103.25 C-31.7 103.5 -32.34 103.75 -33 104 C-32.67 102.35 -32.34 100.7 -32 99 C-33.26 99.06 -34.52 99.12 -35.81 99.19 C-38.49 99.18 -39.71 99.16 -42.06 97.81 C-43.38 95.26 -42.8 93.68 -42 91 C-41.34 91 -40.68 91 -40 91 C-40.33 90.34 -40.66 89.68 -41 89 C-41.99 89.33 -42.98 89.66 -44 90 C-44 90.66 -44 91.32 -44 92 C-47.47 92.5 -47.47 92.5 -51 93 C-51 93.99 -51 94.98 -51 96 C-51.66 96 -52.32 96 -53 96 C-53 97.32 -53 98.64 -53 100 C-57.44 100.11 -61.64 99.86 -66 99 C-66.33 98.34 -66.66 97.68 -67 97 C-66.34 97 -65.68 97 -65 97 C-65.84 94.37 -66.53 92.3 -68 90 C-71.33 88.3 -71.33 88.3 -75 87 C-77.89 85.58 -78.82 84.62 -81 82 C-83.18 67.19 -72.68 47.11 -64.3 35.76 C-49.68 16.69 -25.37 -1.75 0 0 Z " fill="#32CACA" transform="translate(141,11)"/>
<path d="M0 0 C2.82 1.09 5.46 2.44 8.12 3.88 C8.86 4.27 9.6 4.67 10.36 5.08 C30.77 16.43 45.86 35.83 53 58 C53.32 60.56 53.32 60.56 53 63 C51.32 64.48 51.32 64.48 49.12 65.75 C46.53 67.49 45.23 68.39 44.13 71.35 C43.66 73.78 43.66 73.78 43.45 76.14 C43.23 77.06 43.23 77.06 43 78 C41.51 78.5 41.51 78.5 40 79 C36.91 72.92 35.43 67.82 35 61 C34.01 61 33.02 61 32 61 C31.48 60.2 30.97 59.39 30.44 58.56 C27.18 55.14 24.81 55.37 20.24 55.24 C18 55 18 55 16 53 C14.76 52.81 14.76 52.81 13.5 52.62 C12.68 52.42 11.85 52.21 11 52 C9.81 50 9.81 50 9 48 C8.01 47.51 8.01 47.51 7 47 C7.66 49.31 8.32 51.62 9 54 C9.66 54 10.32 54 11 54 C11 54.66 11 55.32 11 56 C11.74 55.77 12.49 55.55 13.25 55.31 C16 55 16 55 18.31 56.44 C18.87 56.95 19.43 57.47 20 58 C19.51 62.38 18.36 64.17 15 67 C14.48 67.45 13.96 67.9 13.43 68.36 C9.24 71.71 6.51 72.56 1 72 C0.73 71.09 0.46 70.19 0.19 69.25 C-0.77 66.09 -0.77 66.09 -2.44 64.19 C-4.85 60.8 -5.79 56.95 -7 53 C-7.65 49.89 -7.65 49.89 -10 48.94 C-10.66 48.63 -11.32 48.32 -12 48 C-12.33 47.34 -12.66 46.68 -13 46 C-11.68 46 -10.36 46 -9 46 C-8.67 43.36 -8.34 40.72 -8 38 C-9.89 38.15 -9.89 38.15 -11.81 38.31 C-14.02 38.32 -14.02 38.32 -16 38 C-18.03 35.59 -19 34.17 -19 31 C-19.99 31.49 -19.99 31.49 -21 32 C-21.66 34.53 -21.66 34.53 -22 37 C-25 36 -25 36 -26.19 34.19 C-27 32 -27 32 -27 28 C-29.47 27.01 -29.47 27.01 -32 26 C-32 22.77 -31.61 20.67 -29.4 18.25 C-27.31 16.44 -25.17 14.72 -23 13 C-21.17 11.36 -19.36 9.72 -17.54 8.07 C-16 7 -16 7 -13 7 C-13 6.34 -13 5.68 -13 5 C-12.01 5 -11.02 5 -10 5 C-9.88 4.2 -9.75 3.39 -9.62 2.56 C-9.32 1.29 -9.32 1.29 -9 0 C-5.81 -1.59 -3.44 -0.71 0 0 Z " fill="#156815" transform="translate(184,16)"/>
<path d="M0 0 C11.94 -0.35 23.41 -0.26 35 3 C35.66 3.66 36.32 4.32 37 5 C36.01 5.66 35.02 6.32 34 7 C33.28 9.06 33.28 9.06 33 11 C32.01 11 31.02 11 30 11 C30 11.66 30 12.32 30 13 C29.05 13.43 28.1 13.87 27.12 14.31 C23.8 15.79 23.8 15.79 22 19 C21.34 19 20.68 19 20 19 C19.67 19.66 19.34 20.32 19 21 C18.03 21.74 17.06 22.48 16.06 23.25 C12.94 25.76 11.92 28.06 11 32 C11.76 32.16 12.53 32.33 13.31 32.5 C17.24 34.69 17.8 37.82 19 42 C19.66 42 20.32 42 21 42 C21.33 40.35 21.66 38.7 22 37 C22.66 37 23.32 37 24 37 C24.5 38.45 24.5 38.45 25 39.94 C26.61 43.11 26.61 43.11 28.98 43.62 C30.98 43.85 32.99 43.93 35 44 C35.12 49.75 35.12 49.75 34 52 C28.22 52.24 23.49 51.87 18 50 C17.67 50.99 17.34 51.98 17 53 C12.49 52.47 9.48 50.91 6 48 C5.83 45.36 5.83 45.36 6 43 C0.2 42.87 -3.91 43.36 -8.34 47.31 C-9.7 48.66 -11.05 50.04 -12.38 51.44 C-13.73 52.81 -15.1 54.19 -16.46 55.56 C-17.05 56.17 -17.63 56.78 -18.24 57.41 C-20.06 59.05 -21.77 60.02 -24 61 C-23.03 58.85 -22.25 57.23 -20.5 55.62 C-18.43 53.38 -17.94 50.88 -17 48 C-16.01 47.51 -16.01 47.51 -15 47 C-14.34 44.47 -14.34 44.47 -14 42 C-14.99 42 -15.98 42 -17 42 C-17 38.7 -17 35.4 -17 32 C-14.03 32 -11.06 32 -8 32 C-8.6 29.98 -9.27 27.98 -10 26 C-10.66 25.67 -11.32 25.34 -12 25 C-12 24.34 -12 23.68 -12 23 C-11.01 23 -10.02 23 -9 23 C-9 22.34 -9 21.68 -9 21 C-7.68 21 -6.36 21 -5 21 C-4.67 20.01 -4.34 19.02 -4 18 C-3.01 18 -2.02 18 -1 18 C-0.67 17.01 -0.34 16.02 0 15 C1.32 15 2.64 15 4 15 C3.67 12.36 3.34 9.72 3 7 C2.34 7 1.68 7 1 7 C0.67 4.69 0.34 2.38 0 0 Z " fill="#2E7D32" transform="translate(141,10)"/>
<path d="M0 0 C2.63 1.52 4.84 2.84 7 5 C7.97 5.27 8.94 5.54 9.94 5.81 C13 7 13 7 14.94 9.38 C16.08 12.2 16.13 13.23 15 16 C17.31 16.33 19.62 16.66 22 17 C22 17.66 22 18.32 22 19 C22.87 18.9 23.73 18.79 24.62 18.69 C29.24 19.11 30.69 20.85 34 24 C33.63 27.23 33.23 28.75 31 31.19 C28.46 34.75 28.55 37.36 28.26 41.63 C27.91 44.8 27.11 46.6 25 49 C19.93 52 19.93 52 17 52 C17 53.98 17 55.96 17 58 C16.34 58 15.68 58 15 58 C4.19 38.85 -0.44 21.99 0 0 Z " fill="#256F26" transform="translate(60,93)"/>
<path d="M0 0 C2.94 1.37 2.94 1.37 5 3 C5 3.99 5 4.98 5 6 C4.34 6 3.68 6 3 6 C3 6.99 3 7.98 3 9 C1.68 10.48 1.68 10.48 0 12 C-1.94 14.2 -3.7 16.36 -5 19 C-4.46 21.81 -4.46 21.81 -3 24 C-3 24.66 -3 25.32 -3 26 C-2.34 26.33 -1.68 26.66 -1 27 C-1 27.99 -1 28.98 -1 30 C-5.62 30 -10.24 30 -15 30 C-15.66 31.98 -16.32 33.96 -17 36 C-19 33 -19 33 -19 31 C-19.99 31.49 -19.99 31.49 -21 32 C-21.66 34.53 -21.66 34.53 -22 37 C-25 36 -25 36 -26.19 34.19 C-27 32 -27 32 -27 28 C-29.47 27.01 -29.47 27.01 -32 26 C-32 22.77 -31.61 20.67 -29.4 18.25 C-27.31 16.44 -25.17 14.72 -23 13 C-21.17 11.36 -19.36 9.72 -17.54 8.07 C-16 7 -16 7 -13 7 C-13 6.34 -13 5.68 -13 5 C-12.01 5 -11.02 5 -10 5 C-9.88 4.2 -9.75 3.39 -9.62 2.56 C-9.32 1.29 -9.32 1.29 -9 0 C-5.85 -1.58 -3.38 -0.69 0 0 Z " fill="#1F701F" transform="translate(184,16)"/>
<path d="M0 0 C0.99 0.33 1.98 0.66 3 1 C3 1.66 3 2.32 3 3 C4.14 3.25 4.14 3.25 5.31 3.5 C9.24 5.69 9.8 8.82 11 13 C11.66 13 12.32 13 13 13 C13.33 11.35 13.66 9.7 14 8 C14.66 8 15.32 8 16 8 C16.5 9.45 16.5 9.45 17 10.94 C18.61 14.11 18.61 14.11 20.98 14.62 C22.98 14.85 24.99 14.93 27 15 C27.12 20.75 27.12 20.75 26 23 C20.22 23.24 15.49 22.87 10 21 C9.67 21.99 9.34 22.98 9 24 C4.49 23.47 1.48 21.91 -2 19 C-2.17 16.36 -2.17 16.36 -2 14 C-8.37 14.49 -14.69 15 -21 16 C-20 14 -20 14 -18.12 13.19 C-15.32 11.62 -14.53 9.79 -13 7 C-11.15 3.67 -10.35 3.11 -6.62 1.94 C-3 2 -3 2 -0.25 4.31 C0.49 5.2 1.24 6.09 2 7 C2.99 7.66 3.98 8.32 5 9 C5.33 8.67 5.66 8.34 6 8 C5.01 7.24 4.02 6.47 3 5.69 C1.31 4.39 1.31 4.39 0 3 C0 2.01 0 1.02 0 0 Z " fill="#11CAC6" transform="translate(149,39)"/>
<path d="M0 0 C2.63 1.52 4.84 2.84 7 5 C7.97 5.27 8.94 5.54 9.94 5.81 C13 7 13 7 14.94 9.38 C16.12 12.29 15.9 13.11 15 16 C15.66 16.66 16.32 17.32 17 18 C16.31 18.09 15.63 18.17 14.92 18.26 C9.26 18.97 9.26 18.97 5 22.38 C4.67 23.24 4.34 24.11 4 25 C3.34 26.34 2.68 27.67 2 29 C-0.38 19.34 -0.2 9.87 0 0 Z " fill="#377C3D" transform="translate(60,93)"/>
<path d="M0 0 C3 -0.05 6 -0.09 9 -0.12 C9.84 -0.14 10.68 -0.16 11.54 -0.18 C17.05 -0.22 21.71 0.44 27 2 C27 2.33 27 2.66 27 3 C25.35 3 23.7 3 22 3 C22 4.65 22 6.3 22 8 C21.01 8 20.02 8 19 8 C18.34 9.65 17.68 11.3 17 13 C15.56 13.2 14.13 13.38 12.69 13.56 C11.89 13.67 11.09 13.77 10.26 13.88 C8 14 8 14 5 13 C5.33 11.02 5.66 9.04 6 7 C5.34 7 4.68 7 4 7 C3.67 7.66 3.34 8.32 3 9 C3 8.34 3 7.68 3 7 C2.34 7 1.68 7 1 7 C0.67 4.69 0.34 2.38 0 0 Z " fill="#2EB6AF" transform="translate(141,10)"/>
<path d="M0 0 C0.74 0.19 1.49 0.37 2.25 0.56 C4.95 0.99 6.45 0.85 9 0 C9.29 0.8 9.58 1.61 9.88 2.44 C10.73 5.13 10.73 5.13 13 6 C13 6.99 13 7.98 13 9 C12.26 8.99 11.53 8.98 10.77 8.96 C9.79 8.96 8.82 8.95 7.81 8.94 C6.85 8.93 5.89 8.91 4.89 8.9 C2.14 9 -0.32 9.38 -3 10 C-2.49 6.28 -1.88 3.27 0 0 Z " fill="#09B3A8" transform="translate(170,37)"/>
<path d="M0 0 C4.62 0 9.24 0 14 0 C14.66 1.32 15.32 2.64 16 4 C15.01 4.5 15.01 4.5 14 5 C13.88 5.64 13.75 6.28 13.62 6.94 C13 9 13 9 10.94 10.25 C10.3 10.5 9.66 10.74 9 11 C7.51 8.03 7.51 8.03 6 5 C4.35 5.33 2.7 5.66 1 6 C0.67 4.02 0.34 2.04 0 0 Z " fill="#377D3B" transform="translate(141,10)"/>
<path d="M0 0 C2.73 1.01 3.8 1.61 5.16 4.24 C5.46 5.11 5.76 5.98 6.06 6.88 C7.03 9.65 7.83 11.77 9.61 14.12 C11.55 16.75 11.22 18.82 11 22 C10.34 21.67 9.68 21.34 9 21 C9 20.34 9 19.68 9 19 C8.01 18.67 7.02 18.34 6 18 C5.16 15.93 5.16 15.93 4.5 13.31 C3.4 9.24 1.97 5.74 0 2 C0 1.34 0 0.68 0 0 Z " fill="#02C5B8" transform="translate(174,67)"/>
<path d="M0 0 C0.33 1.32 0.66 2.64 1 4 C0.43 4.38 -0.13 4.75 -0.71 5.14 C-5.32 8.13 -5.32 8.13 -7.88 12.75 C-7.92 13.49 -7.96 14.23 -8 15 C-8.66 15.66 -9.32 16.32 -10 17 C-10.11 13.84 -9.95 11.03 -9 8 C-7.08 6.03 -5.14 4.65 -2.81 3.19 C-0.85 2.12 -0.85 2.12 0 0 Z " fill="#2BAAA8" transform="translate(237,77)"/>
<path d="M0 0 C0.33 0 0.66 0 1 0 C2.21 4.67 2.09 9.21 2 14 C0.02 14.99 0.02 14.99 -2 16 C-1.67 15.29 -1.35 14.59 -1.01 13.86 C0.08 10.76 0.2 8.46 0.12 5.19 C0.11 4.21 0.09 3.24 0.07 2.23 C0.05 1.49 0.02 0.76 0 0 Z " fill="#278B40" transform="translate(180,118)"/>
<path d="M0 0 C0.33 0 0.66 0 1 0 C1.35 5.37 1.35 5.37 1 8 C-1 10 -1 10 -3 11 C-3.33 10.01 -3.66 9.02 -4 8 C-2.62 5.5 -2.62 5.5 -1 3 C-0.67 2.01 -0.34 1.02 0 0 Z " fill="#1FB0A4" transform="translate(219,76)"/>
<path d="M0 0 C0 1.98 0 3.96 0 6 C-0.33 4.68 -0.66 3.36 -1 2 C-3.64 2 -6.28 2 -9 2 C-9 1.67 -9 1.34 -9 1 C-3.38 -1.12 -3.38 -1.12 0 0 Z " fill="#0E813A" transform="translate(177,52)"/>
<path d="M0 0 C0.99 0.33 1.98 0.66 3 1 C2.01 1.49 2.01 1.49 1 2 C0.34 4.53 0.34 4.53 0 7 C-0.99 6.67 -1.98 6.34 -3 6 C-3 5.34 -3 4.68 -3 4 C-2.34 4 -1.68 4 -1 4 C-0.67 2.68 -0.34 1.36 0 0 Z " fill="#178F54" transform="translate(162,46)"/>
</svg>
