<?xml version="1.0" encoding="UTF-8"?>
<!-- Generator: https://ezgif.com/png-to-svg -->
<svg version="1.1" xmlns="http://www.w3.org/2000/svg" width="512" height="512" viewBox="-36.75 -186.654 675.405 675.405" preserveAspectRatio="xMidYMid meet">
<path d="M0 0 C2 -0 4 -0.01 6.01 -0.01 C12.29 -0.03 18.57 -0.03 24.85 -0.01 C31.29 0.01 37.72 -0.01 44.16 -0.04 C49.73 -0.07 55.3 -0.08 60.87 -0.07 C64.18 -0.06 67.48 -0.07 70.79 -0.08 C96.85 -0.21 96.85 -0.21 108.44 5.57 C109.45 6.02 110.46 6.47 111.5 6.94 C114.23 8.16 116.9 9.47 119.56 10.82 C120.5 11.29 121.44 11.76 122.41 12.25 C140.41 21.51 140.41 21.51 143.44 27.57 C143.78 26.94 144.12 26.31 144.47 25.66 C151.69 12.92 160.68 6.53 174.33 1.5 C179.98 -0.06 185.86 0.2 191.68 0.16 C192.97 0.15 194.25 0.14 195.57 0.13 C198.29 0.1 201.01 0.09 203.72 0.09 C206.47 0.08 209.23 0.05 211.98 0 C240.9 -0.47 240.9 -0.47 254.44 6.57 C256.11 7.34 256.11 7.34 257.82 8.13 C261.03 9.64 264.17 11.24 267.31 12.88 C268.35 13.4 269.39 13.91 270.45 14.45 C277.77 18.24 283.57 22.79 289.44 28.57 C289.99 27.71 290.55 26.85 291.12 25.97 C299.7 13.01 309.16 5.06 324.44 0.57 C327.36 0.3 327.36 0.3 330.45 0.28 C332.2 0.26 332.2 0.26 333.98 0.24 C335.23 0.23 336.48 0.23 337.76 0.23 C339.06 0.22 340.36 0.22 341.69 0.21 C344.44 0.2 347.18 0.19 349.92 0.2 C353.41 0.2 356.89 0.17 360.38 0.13 C363.73 0.11 367.09 0.11 370.45 0.11 C371.69 0.09 372.92 0.08 374.2 0.06 C382.07 0.1 388.26 1.36 395.44 4.57 C396.49 5.01 397.54 5.46 398.62 5.92 C399.88 6.51 399.88 6.51 401.16 7.12 C402.1 7.56 403.05 8.01 404.03 8.47 C434.66 23.26 434.66 23.26 440.55 38.71 C443.91 53.31 441.98 67.86 436.44 81.57 C435.54 83.85 434.65 86.13 433.75 88.41 C431.7 93.61 429.62 98.79 427.51 103.96 C424.41 111.59 421.42 119.26 418.47 126.95 C416.75 131.38 414.93 135.74 412.93 140.06 C410.52 145.29 408.44 150.6 406.44 156 C404.05 162.43 401.54 168.78 398.89 175.1 C395.8 182.47 392.78 189.87 389.75 197.25 C389.4 198.12 389.04 198.98 388.68 199.87 C384.47 210.12 380.28 220.39 376.19 230.69 C374.61 234.65 373.02 238.61 371.44 242.57 C370.71 244.38 370.71 244.38 369.97 246.23 C368.66 249.48 367.35 252.73 366.03 255.97 C365.28 257.8 364.54 259.64 363.81 261.48 C356.6 279.09 347.78 293.31 329.89 301.11 C322.35 303.58 314.25 303.06 306.4 303.07 C304.64 303.08 302.87 303.09 301.11 303.1 C297.42 303.12 293.72 303.12 290.03 303.12 C285.34 303.12 280.66 303.16 275.97 303.21 C272.32 303.25 268.68 303.25 265.03 303.25 C263.31 303.26 261.58 303.27 259.85 303.29 C247.81 303.44 238.41 301.56 227.44 296.57 C226.35 296.07 225.25 295.58 224.13 295.07 C221.39 293.79 218.69 292.44 216 291.07 C215.1 290.62 214.2 290.17 213.27 289.71 C207.35 286.73 201.87 283.35 196.44 279.57 C195.45 278.91 194.46 278.25 193.44 277.57 C193.21 278.27 192.98 278.97 192.75 279.7 C191.17 283.16 189 285.74 186.44 288.5 C185.95 289.03 185.46 289.56 184.96 290.1 C178.02 297.36 170.08 302.05 159.89 302.84 C158.63 302.85 157.38 302.86 156.09 302.87 C155.39 302.88 154.69 302.89 153.97 302.9 C151.68 302.92 149.39 302.93 147.09 302.94 C145.48 302.95 143.87 302.96 142.25 302.96 C138.88 302.98 135.5 302.99 132.12 302.99 C127.83 303 123.54 303.03 119.25 303.08 C115.92 303.11 112.58 303.12 109.25 303.12 C107.67 303.12 106.09 303.14 104.51 303.16 C88.25 303.36 75.71 298.65 61.19 291.25 C60.11 290.72 59.03 290.19 57.91 289.65 C51.36 286.35 45.5 282.65 39.69 278.18 C37.45 276.41 37.45 276.41 34.44 275.57 C34.05 276.12 33.66 276.68 33.26 277.25 C23.3 290.83 8.86 299.25 -7.56 302.57 C-21.4 304.09 -34.77 303.2 -47.56 297.57 C-48.45 297.17 -49.34 296.78 -50.26 296.38 C-74.9 285.35 -99.57 272.69 -109.83 246.18 C-116.78 226.16 -111.58 204.2 -107.56 184.13 C-107.08 181.63 -106.6 179.14 -106.12 176.64 C-104.95 170.61 -103.77 164.59 -102.56 158.57 C-103.48 158.27 -104.39 157.98 -105.33 157.67 C-107.77 156.84 -109.99 155.98 -112.3 154.83 C-112.95 154.51 -113.6 154.19 -114.27 153.85 C-114.94 153.51 -115.62 153.17 -116.31 152.82 C-117.02 152.46 -117.72 152.1 -118.45 151.73 C-128.31 146.69 -136.61 141.38 -144.56 133.57 C-145.43 132.72 -145.43 132.72 -146.31 131.86 C-157.87 119.52 -159.13 104.67 -158.88 88.64 C-158.63 81.95 -157.68 76.57 -154.56 70.57 C-154.14 69.72 -153.71 68.87 -153.28 67.99 C-144.59 52.19 -131.37 43.96 -115.31 36.94 C-113.95 36.33 -112.58 35.73 -111.21 35.12 C-107 33.25 -102.78 31.41 -98.56 29.57 C-97.91 29.28 -97.25 28.99 -96.57 28.7 C-90.92 26.23 -85.26 23.78 -79.59 21.34 C-73.43 18.69 -67.28 16 -61.17 13.23 C-59.98 12.69 -58.78 12.14 -57.55 11.59 C-55.32 10.57 -53.09 9.55 -50.87 8.52 C-47.79 7.13 -44.69 5.83 -41.56 4.57 C-40.67 4.2 -39.78 3.84 -38.86 3.46 C-26.28 -0.86 -13.14 -0.03 0 0 Z " fill="#020202" transform="translate(158.5625,-0.56640625)"/>
<path d="M0 0 C6.94 -0.13 13.87 -0.21 20.81 -0.27 C23.17 -0.3 25.53 -0.33 27.88 -0.38 C31.28 -0.44 34.68 -0.47 38.09 -0.49 C39.13 -0.51 40.17 -0.54 41.24 -0.57 C49.56 -0.57 56.25 1.53 62.44 7.25 C69.83 20.27 68.23 37.06 68.75 51.64 C68.82 53.43 68.89 55.21 68.95 56.99 C69.09 60.71 69.22 64.43 69.36 68.14 C69.49 71.9 69.63 75.66 69.77 79.42 C70.55 99.95 71.26 120.45 71 141 C71.66 141 72.32 141 73 141 C73.1 140 73.21 139.01 73.31 137.98 C73.91 133.84 75.35 130.14 76.98 126.3 C77.28 125.58 77.58 124.87 77.89 124.13 C78.83 121.85 79.79 119.58 80.75 117.31 C81.38 115.81 82.01 114.3 82.63 112.8 C84.14 109.19 85.66 105.57 87.17 101.97 C90.17 94.83 93.15 87.69 96 80.5 C98.23 74.9 100.52 69.32 102.85 63.76 C104.24 60.42 105.58 57.06 106.92 53.69 C108.02 50.94 109.17 48.21 110.33 45.48 C112.1 41.25 113.77 37.01 115.36 32.71 C115.75 31.67 116.15 30.62 116.55 29.55 C117.35 27.43 118.13 25.31 118.9 23.18 C122.45 13.92 127.23 5.95 136.55 1.75 C142.39 -0.42 147.86 -0.58 154.04 -0.53 C155.15 -0.54 156.27 -0.54 157.43 -0.54 C159.78 -0.55 162.13 -0.54 164.48 -0.52 C168.06 -0.5 171.63 -0.52 175.21 -0.55 C177.51 -0.54 179.8 -0.54 182.1 -0.53 C183.16 -0.54 184.22 -0.55 185.31 -0.56 C193.36 -0.46 199.02 1.53 205.81 5.75 C216.34 16.58 214.47 35.88 215.06 50 C215.15 51.86 215.23 53.72 215.31 55.58 C215.86 67.8 216.32 80.01 216.66 92.23 C216.82 97.85 217.09 103.43 217.52 109.02 C218.02 115.65 218.12 122.23 218.06 128.88 C218.06 129.96 218.05 131.04 218.05 132.15 C218.04 134.77 218.02 137.38 218 140 C218.66 140 219.32 140 220 140 C220.15 138.77 220.15 138.77 220.3 137.51 C221.13 133.35 222.59 129.76 224.25 125.88 C224.57 125.12 224.88 124.37 225.21 123.59 C226.14 121.39 227.07 119.19 228 117 C231.44 108.82 234.77 100.59 238.06 92.34 C240.21 86.96 242.41 81.6 244.66 76.25 C246.84 70.97 248.94 65.66 251.05 60.35 C253.25 54.86 255.49 49.38 257.79 43.92 C258.96 41.09 260.1 38.24 261.23 35.39 C272.14 7.81 272.14 7.81 283.88 1.44 C289.09 -0.74 294.46 -0.43 300.03 -0.4 C301.76 -0.4 301.76 -0.4 303.52 -0.41 C305.94 -0.41 308.36 -0.4 310.79 -0.39 C314.49 -0.38 318.19 -0.39 321.89 -0.41 C324.25 -0.41 326.61 -0.4 328.97 -0.4 C330.07 -0.4 331.17 -0.41 332.31 -0.42 C339.12 -0.35 344.56 0.05 349.93 4.65 C350.38 5.22 350.84 5.79 351.31 6.38 C352.02 7.22 352.02 7.22 352.74 8.09 C356.54 13.85 356.71 19.3 356 26 C353.26 36.03 349.23 45.66 345.21 55.24 C343.66 58.93 342.13 62.63 340.59 66.34 C340.28 67.07 339.98 67.81 339.66 68.57 C336.84 75.36 334.1 82.17 331.38 89 C330.99 89.98 330.6 90.95 330.2 91.96 C329.13 94.64 328.07 97.32 327 100 C322.88 110.35 318.68 120.67 314.49 130.99 C313.5 133.42 312.52 135.85 311.53 138.28 C311.24 139.01 310.94 139.73 310.64 140.48 C308.75 145.13 306.88 149.79 305.02 154.45 C303.31 158.71 301.59 162.98 299.88 167.24 C299.49 168.19 299.11 169.14 298.71 170.12 C295.34 178.47 291.97 186.81 288.58 195.14 C286.43 200.45 284.29 205.76 282.17 211.08 C281.36 213.11 280.54 215.14 279.72 217.17 C278.78 219.51 277.84 221.85 276.92 224.19 C272.58 234.86 267.43 243.52 257 249 C253.5 250.17 250.72 250.15 247.03 250.18 C245.97 250.19 245.97 250.19 244.89 250.2 C242.55 250.22 240.21 250.23 237.87 250.24 C236.67 250.24 236.67 250.24 235.44 250.25 C231.2 250.27 226.95 250.29 222.71 250.3 C218.34 250.31 213.98 250.34 209.61 250.38 C206.24 250.41 202.87 250.41 199.49 250.42 C197.89 250.42 196.28 250.43 194.67 250.45 C175.56 250.66 175.56 250.66 167.91 244.24 C160.13 236.63 157.99 224.83 157.72 214.34 C157.68 213.05 157.64 211.76 157.61 210.43 C157.57 209.08 157.53 207.73 157.5 206.38 C157.43 203.74 157.36 201.1 157.28 198.46 C157.25 197.29 157.22 196.13 157.19 194.92 C157.04 191.87 156.81 188.87 156.52 185.83 C155.93 179.67 155.68 173.51 155.46 167.33 C155.42 166.17 155.38 165.01 155.33 163.81 C155.2 160.15 155.07 156.48 154.94 152.81 C154.85 150.31 154.75 147.81 154.66 145.3 C154.44 139.2 154.22 133.1 154 127 C152.29 131.33 150.58 135.67 148.88 140 C148.5 140.96 148.5 140.96 148.11 141.94 C144.81 150.33 141.56 158.73 138.51 167.21 C137.24 170.56 135.72 173.78 134.2 177.03 C131.18 183.5 128.49 190.07 125.88 196.72 C124.58 200 123.27 203.28 121.96 206.55 C120.57 210.06 119.17 213.56 117.79 217.07 C107.54 242.84 107.54 242.84 95.78 248.57 C89.39 250.9 82.63 250.47 75.91 250.47 C74.45 250.48 72.98 250.48 71.51 250.49 C68.45 250.51 65.38 250.51 62.32 250.5 C58.42 250.5 54.52 250.53 50.61 250.57 C47.59 250.59 44.56 250.59 41.53 250.59 C40.1 250.59 38.66 250.6 37.22 250.62 C27.34 250.73 19.51 249.85 11.9 243.15 C3.34 234.59 1.95 222.72 1.46 211.21 C1.42 210.24 1.38 209.28 1.33 208.28 C0.95 199.6 0.64 190.91 0.34 182.22 C0.16 176.91 -0.06 171.61 -0.4 166.3 C-2.03 139.27 4.32 113.08 9.64 86.74 C14.11 65.64 14.11 65.64 15.38 44.19 C15.37 42.59 15.37 42.59 15.37 40.96 C15.21 26.38 10.8 14.95 1.32 3.74 C0 2 0 2 0 0 Z " fill="#FDFDFD" transform="translate(198,19)"/>
<path d="M0 0 C0.8 0.01 1.6 0.01 2.42 0.02 C15.18 0.28 26.08 5.34 35.25 14.31 C42.97 23.8 46.99 32.84 46.69 45.12 C46.67 46.57 46.67 46.57 46.65 48.05 C46.5 54.25 45.85 60 44.14 65.98 C43.19 69.54 42.49 73.08 41.83 76.7 C41.57 78.13 41.3 79.55 41.04 80.98 C40.91 81.7 40.78 82.43 40.64 83.17 C40.04 86.48 39.42 89.79 38.8 93.09 C38.55 94.42 38.3 95.75 38.06 97.08 C37.93 97.75 37.8 98.43 37.67 99.13 C37.55 99.83 37.42 100.52 37.28 101.24 C35.48 110.9 33.68 120.56 31.87 130.22 C31.24 133.6 30.6 136.99 29.97 140.37 C29.73 141.63 29.73 141.63 29.49 142.92 C27.58 153.13 25.69 163.35 23.84 173.57 C22.88 178.89 21.91 184.21 20.93 189.53 C20.48 191.99 20.04 194.44 19.6 196.9 C16.29 215.64 12.63 230.91 -3.19 243.19 C-14.08 250.33 -27.04 251.64 -39.75 250.31 C-52.61 247.14 -62.98 238.78 -69.87 227.66 C-81.31 207.34 -74.13 184.73 -69.75 163.31 C-69.38 161.45 -69.01 159.59 -68.64 157.72 C-67.94 154.2 -67.17 150.69 -66.38 147.19 C-64.7 139.48 -63.44 131.71 -62.2 123.93 C-61.24 118 -60.11 112.16 -58.75 106.31 C-60.2 106.94 -60.2 106.94 -61.67 107.59 C-62.95 108.14 -64.22 108.7 -65.5 109.25 C-66.13 109.53 -66.77 109.81 -67.42 110.09 C-76.93 114.2 -87.58 115.05 -97.56 111.81 C-107.53 107.57 -114.02 100.94 -118.75 91.31 C-119.26 90.41 -119.26 90.41 -119.78 89.5 C-123.44 81.96 -122.85 71.36 -121.09 63.3 C-116.61 50.97 -107.14 43.19 -95.53 37.73 C-92.39 36.31 -89.23 34.93 -86.06 33.56 C-84.77 32.99 -83.48 32.43 -82.19 31.86 C-77.55 29.82 -72.91 27.81 -68.26 25.82 C-64.81 24.34 -61.39 22.82 -57.97 21.28 C-57.35 21 -56.73 20.73 -56.1 20.44 C-54.15 19.57 -52.2 18.69 -50.25 17.81 C-47.68 16.66 -45.1 15.5 -42.53 14.34 C-41.4 13.83 -40.26 13.32 -39.1 12.8 C-35.66 11.27 -32.21 9.79 -28.75 8.31 C-27.58 7.81 -26.42 7.3 -25.21 6.78 C-24.05 6.27 -22.89 5.77 -21.69 5.25 C-20.52 4.74 -19.35 4.24 -18.15 3.71 C-11.82 1.1 -6.8 -0.05 0 0 Z " fill="#FDFDFD" transform="translate(140.75,18.6875)"/>
<path d="M0 0 C0.66 0.33 1.32 0.66 2 1 C-1.63 4.63 -5.26 8.26 -9 12 C-9 7.84 -6.75 5.85 -4 3 C-1.69 1.12 -1.69 1.12 0 0 Z " fill="#DADADA" transform="translate(35,62)"/>
<path d="M0 0 C0.33 0 0.66 0 1 0 C1 4.29 1 8.58 1 13 C0.67 13 0.34 13 0 13 C-0.33 11.35 -0.66 9.7 -1 8 C-1.99 8.5 -1.99 8.5 -3 9 C-2.01 6.03 -1.02 3.06 0 0 Z " fill="#3F3F3F" transform="translate(352,145)"/>
</svg>
