<?xml version="1.0" encoding="UTF-8"?>
<!-- Generator: https://ezgif.com/png-to-svg -->
<svg version="1.1" xmlns="http://www.w3.org/2000/svg" width="143" height="143">
<path d="M0 0 C14.18 10.78 25.9 26.73 29.6 44.42 C32.08 66.47 29.14 85.67 15.56 103.81 C14.39 105.22 13.21 106.62 12 108 C11.42 108.68 10.84 109.35 10.24 110.05 C-1.5 122.75 -19.04 130.59 -36.26 131.34 C-59.42 131.72 -77.22 125.34 -94.12 109.25 C-108.14 94.84 -113.44 77.11 -113.36 57.45 C-113.04 40.14 -106.57 23.95 -95 11 C-94.4 10.31 -93.79 9.63 -93.17 8.92 C-69.38 -16.46 -28.26 -19.39 0 0 Z " fill="#0D0506" transform="translate(113,12)"/>
<path d="M0 0 C10.25 7.79 20.67 18.67 25 31 C24.15 33.32 24.15 33.32 23 35 C22.67 35 22.34 35 22 35 C21.67 32.69 21.34 30.38 21 28 C20.34 28 19.68 28 19 28 C18.01 26.02 17.02 24.04 16 22 C15.01 22 14.02 22 13 22 C13.31 23.48 13.62 24.96 13.94 26.44 C14.11 27.26 14.29 28.08 14.46 28.93 C14.81 30.98 14.81 30.98 16 32 C16.04 34.33 16.04 36.67 16 39 C17.32 39.33 18.64 39.66 20 40 C20.99 43.96 20.99 43.96 22 48 C21.34 48 20.68 48 20 48 C20.19 49.3 20.37 50.6 20.56 51.94 C21.12 56.81 20.69 61.16 20 66 C19.34 66 18.68 66 18 66 C17.95 64.96 17.9 63.93 17.85 62.86 C17.78 61.49 17.7 60.12 17.62 58.75 C17.58 57.73 17.58 57.73 17.53 56.68 C17.31 52.95 16.83 50.25 15 47 C15 46.01 15 45.02 15 44 C13.68 44 12.36 44 11 44 C8 44 8 44 5 42 C5 41.34 5 40.68 5 40 C4.22 39.86 3.43 39.71 2.62 39.56 C-0 39 -0 39 -2 38 C-4.04 37.61 -6.08 37.26 -8.12 36.94 C-9.22 36.76 -10.32 36.58 -11.45 36.4 C-12.29 36.27 -13.13 36.14 -14 36 C-14 35.34 -14 34.68 -14 34 C-14.99 34.49 -14.99 34.49 -16 35 C-18.74 35.1 -21.45 35.14 -24.19 35.12 C-24.93 35.13 -25.67 35.13 -26.44 35.14 C-33.85 35.12 -40.31 34.34 -47 31 C-47.99 31 -48.98 31 -50 31 C-50 31.66 -50 32.32 -50 33 C-52.31 33.66 -54.62 34.32 -57 35 C-57 34.34 -57 33.68 -57 33 C-58.3 33.14 -59.6 33.29 -60.94 33.44 C-61.67 33.52 -62.4 33.6 -63.15 33.68 C-65.01 33.82 -65.01 33.82 -66 35 C-68.8 35.1 -71.57 35.14 -74.38 35.12 C-75.16 35.13 -75.94 35.13 -76.74 35.14 C-80.08 35.13 -82.82 35.06 -86 34 C-86 34.66 -86 35.32 -86 36 C-87.07 36.12 -88.14 36.25 -89.25 36.38 C-95.19 37.36 -98.04 39.4 -102 44 C-102.87 46.68 -102.87 46.68 -103 49 C-103.66 49 -104.32 49 -105 49 C-105.66 49.66 -106.32 50.32 -107 51 C-107.68 51.14 -108.36 51.29 -109.06 51.44 C-109.7 51.62 -110.34 51.81 -111 52 C-111.33 52.99 -111.66 53.98 -112 55 C-111.34 55.33 -110.68 55.66 -110 56 C-111.48 56.5 -111.48 56.5 -113 57 C-114.26 41.54 -106.53 24.66 -96.8 13.02 C-96.21 12.35 -95.61 11.69 -95 11 C-94.4 10.31 -93.79 9.63 -93.17 8.92 C-69.38 -16.46 -28.26 -19.39 0 0 Z " fill="#0D0506" transform="translate(113,12)"/>
<path d="M0 0 C0 2.31 0 4.62 0 7 C0.99 7 1.98 7 3 7 C3 7.66 3 8.32 3 9 C4.58 8.97 4.58 8.97 6.19 8.94 C10.13 8.86 14.06 8.82 18 8.78 C19.69 8.76 21.39 8.73 23.09 8.7 C25.54 8.65 27.99 8.63 30.44 8.61 C31.57 8.58 31.57 8.58 32.72 8.55 C39.12 8.54 42.74 10.69 47.94 14.38 C49.63 16.96 49.38 19 49 22 C47.62 23.88 47.62 23.88 46 25 C45.34 25 44.68 25 44 25 C45.24 26.18 45.24 26.18 46.5 27.38 C49 30 49 30 49 32 C49.99 32.28 49.99 32.28 51 32.56 C55.29 34.62 58.63 37.66 62 41 C62 41.33 62 41.66 62 42 C43.84 43.91 43.84 43.91 38.29 39.66 C34.62 36.2 31.79 32.18 29 28 C26.94 27.28 26.94 27.28 25 27 C25.17 27.8 25.33 28.61 25.5 29.44 C26.1 33.69 26.07 37.71 26 42 C21.05 42 16.1 42 11 42 C10.01 36.06 10.01 36.06 9 30 C8.48 31.28 8.48 31.28 7.94 32.59 C7.49 33.69 7.03 34.8 6.56 35.94 C6.11 37.04 5.66 38.14 5.19 39.28 C4 42 4 42 3 43 C1.66 43.09 0.31 43.11 -1.04 43.1 C-1.84 43.09 -2.65 43.09 -3.49 43.09 C-4.34 43.08 -5.19 43.07 -6.06 43.06 C-6.92 43.06 -7.77 43.05 -8.65 43.05 C-10.77 43.04 -12.88 43.02 -15 43 C-15 42.34 -15 41.68 -15 41 C-15.99 41.33 -16.98 41.66 -18 42 C-18.99 41.67 -19.98 41.34 -21 41 C-21.49 41.99 -21.49 41.99 -22 43 C-37.51 43 -53.02 43 -69 43 C-68.67 41.68 -68.34 40.36 -68 39 C-67.34 39 -66.68 39 -66 39 C-66 39.66 -66 40.32 -66 41 C-65.34 41 -64.68 41 -64 41 C-64.06 39.69 -64.06 39.69 -64.11 38.34 C-64 34.95 -63.37 32.66 -62.19 29.5 C-60.55 24.91 -59.35 20.37 -58.36 15.59 C-58.1 14.35 -57.85 13.11 -57.58 11.83 C-57.39 10.9 -57.2 9.96 -57 9 C-51.09 8.85 -45.18 8.74 -39.28 8.67 C-37.27 8.64 -35.26 8.6 -33.25 8.55 C-30.36 8.47 -27.47 8.44 -24.58 8.41 C-23.68 8.38 -22.78 8.35 -21.86 8.32 C-19.43 8.32 -17.35 8.38 -15 9 C-12.49 11.84 -12.49 11.84 -11 15 C-10.51 16.02 -10.02 17.05 -9.52 18.11 C-9.1 19.12 -8.68 20.14 -8.25 21.19 C-7.82 22.21 -7.39 23.24 -6.95 24.29 C-6 27 -6 27 -6 30 C-5.34 30 -4.68 30 -4 30 C-3.92 29.24 -3.83 28.47 -3.75 27.69 C-2.87 23.36 -1.4 19.42 0.16 15.29 C1.06 13.25 1.06 13.25 1 12 C-0.98 12 -2.96 12 -5 12 C-5 11.34 -5 10.68 -5 10 C-7.64 10 -10.28 10 -13 10 C-12.78 6.19 -12.01 5.01 -9.31 2.19 C-5.74 -0.17 -4.17 -0.5 0 0 Z " fill="#B4B2BE" transform="translate(72,45)"/>
<path d="M0 0 C0.5 1.48 0.5 1.48 1 3 C-0.05 3.25 -1.1 3.49 -2.19 3.75 C-5.83 4.8 -8.28 6.28 -11 9 C-11.87 11.13 -11.87 11.13 -12 13 C-9.36 13 -6.72 13 -4 13 C-4 13.66 -4 14.32 -4 15 C-2.02 15 -0.04 15 2 15 C2.33 14.34 2.66 13.68 3 13 C1.63 19.96 -0.45 26.39 -3 33 C-3.66 33 -4.32 33 -5 33 C-5.4 31.98 -5.8 30.95 -6.21 29.89 C-6.74 28.53 -7.28 27.17 -7.81 25.81 C-8.07 25.14 -8.33 24.47 -8.6 23.77 C-8.86 23.11 -9.13 22.45 -9.39 21.77 C-9.63 21.17 -9.87 20.57 -10.11 19.94 C-10.4 19.3 -10.7 18.66 -11 18 C-11.33 17.11 -11.67 16.22 -12.01 15.31 C-14.32 12.63 -14.81 12.62 -18.2 12.34 C-19.96 12.3 -21.72 12.29 -23.48 12.29 C-24.41 12.28 -25.34 12.26 -26.29 12.25 C-29.26 12.2 -32.22 12.2 -35.19 12.19 C-37.2 12.16 -39.21 12.14 -41.22 12.11 C-46.14 12.05 -51.07 12.02 -56 12 C-56.15 13.24 -56.29 14.48 -56.44 15.75 C-56.79 18.55 -57.19 21.27 -57.9 24 C-58.15 24.99 -58.15 24.99 -58.41 26 C-58.59 26.66 -58.76 27.32 -58.94 28 C-59.11 28.66 -59.28 29.32 -59.45 30 C-59.79 31.32 -60.13 32.65 -60.48 33.97 C-61.34 37.31 -62.17 40.65 -63 44 C-63.66 44 -64.32 44 -65 44 C-65 43.34 -65 42.68 -65 42 C-65.99 42.5 -65.99 42.5 -67 43 C-67.33 43.99 -67.66 44.98 -68 46 C-52.49 46 -36.98 46 -21 46 C-20.67 45.01 -20.34 44.02 -20 43 C-17.03 43.5 -17.03 43.5 -14 44 C-14 44.66 -14 45.32 -14 46 C-8.06 45.67 -2.12 45.34 4 45 C6.97 37.58 6.97 37.58 10 30 C10.33 30 10.66 30 11 30 C12.04 35.08 12.08 39.84 12 45 C16.95 45 21.9 45 27 45 C26.5 37.58 26.5 37.58 26 30 C31.5 31.1 32.18 31.79 35.62 35.88 C36.38 36.76 37.14 37.64 37.91 38.55 C40 41 40 41 41.26 42.78 C44.22 44.86 47.69 44.58 51.19 44.69 C51.94 44.72 52.69 44.76 53.46 44.79 C55.31 44.87 57.15 44.94 59 45 C59 45.33 59 45.66 59 46 C57.86 46.05 56.71 46.1 55.54 46.15 C54.04 46.22 52.55 46.3 51.06 46.38 C49.93 46.42 49.93 46.42 48.78 46.47 C46.84 46.57 44.92 46.78 43 47 C42.5 47.99 42.5 47.99 42 49 C39.31 49.41 39.31 49.41 36 49.62 C34.91 49.7 33.81 49.77 32.69 49.85 C30.75 49.96 28.93 50 27 50 C26.5 50.99 26.5 50.99 26 52 C25.18 51.97 24.36 51.93 23.52 51.89 C21.9 51.85 21.9 51.85 20.25 51.81 C19.18 51.78 18.12 51.74 17.02 51.71 C13.99 51.73 13.99 51.73 12.09 53.5 C8.99 55.72 5.91 55.32 2.25 55.19 C1.55 55.17 0.86 55.16 0.14 55.15 C-1.58 55.11 -3.29 55.06 -5 55 C-5 55.66 -5 56.32 -5 57 C-5.61 56.93 -6.23 56.86 -6.86 56.78 C-8.08 56.64 -8.08 56.64 -9.31 56.5 C-10.51 56.36 -10.51 56.36 -11.74 56.22 C-16.88 55.72 -21.85 56.6 -26.93 57.29 C-32.84 58.06 -38.13 58.2 -44 57 C-45.67 56.96 -47.33 56.95 -49 57 C-49.33 57.66 -49.66 58.32 -50 59 C-52.31 59 -54.62 59 -57 59 C-56.51 60.09 -56.01 61.19 -55.5 62.31 C-54 66 -54 66 -54 69 C-53.34 69 -52.68 69 -52 69 C-51.67 69.99 -51.34 70.98 -51 72 C-52.48 72.99 -52.48 72.99 -54 74 C-63.15 69.31 -66.68 57.21 -69.69 47.87 C-71.96 39.33 -72.49 29.21 -69 21 C-67 20.38 -67 20.38 -65 20 C-63.72 18.02 -63.72 18.02 -63 16 C-63 16.99 -63 17.98 -63 19 C-62.34 19 -61.68 19 -61 19 C-61.1 18.28 -61.21 17.56 -61.31 16.81 C-60.87 12.82 -58.98 11.58 -56 9 C-55.1 8.1 -55.1 8.1 -54.19 7.19 C-50.8 5.35 -47.82 5.81 -44 6 C-44 5.34 -44 4.68 -44 4 C-43.1 4.01 -43.1 4.01 -42.18 4.02 C-39.47 4.04 -36.77 4.05 -34.06 4.06 C-33.12 4.07 -32.17 4.08 -31.2 4.09 C-30.3 4.09 -29.4 4.09 -28.47 4.1 C-27.64 4.1 -26.81 4.11 -25.95 4.11 C-23.99 4.22 -23.99 4.22 -23 3 C-20.33 2.86 -17.68 2.96 -15 3 C-15 3.66 -15 4.32 -15 5 C-14.4 4.67 -13.8 4.34 -13.19 4 C-11 3 -11 3 -8 3 C-8 2.34 -8 1.68 -8 1 C-5.07 0.02 -3.04 -0.08 0 0 Z " fill="#25151C" transform="translate(71,42)"/>
<path d="M0 0 C2.31 -0.03 4.62 -0.05 6.94 -0.06 C8.23 -0.07 9.51 -0.09 10.84 -0.1 C14 0 14 0 15 1 C16.54 1.05 18.08 1.04 19.62 1 C23.88 0.95 27.81 1.27 32 2 C31.77 2.72 31.55 3.44 31.31 4.19 C30.9 7.88 32.05 8.83 34 12 C35.47 15.03 36.83 18.11 38.19 21.19 C38.56 22.01 38.92 22.83 39.3 23.67 C39.65 24.45 40 25.24 40.36 26.04 C40.83 27.11 40.83 27.11 41.31 28.2 C42 30 42 30 42 32 C39 33 39 33 36 32 C35.51 32.99 35.51 32.99 35 34 C19.49 34 3.98 34 -12 34 C-11.67 32.68 -11.34 31.36 -11 30 C-10.34 30 -9.68 30 -9 30 C-9 30.66 -9 31.32 -9 32 C-8.34 32 -7.68 32 -7 32 C-7.06 30.69 -7.06 30.69 -7.11 29.34 C-7 25.95 -6.37 23.66 -5.19 20.5 C-2.81 13.77 -1.37 7.01 0 0 Z " fill="#B3B3BF" transform="translate(15,54)"/>
<path d="M0 0 C1.94 0.06 1.94 0.06 4 1 C5.25 4.06 5.25 4.06 6 7 C6.66 7 7.32 7 8 7 C8.66 8.98 9.32 10.96 10 13 C10.99 12.67 11.98 12.34 13 12 C12.82 12.56 12.65 13.13 12.47 13.71 C11.95 16.25 12.13 18.13 12.5 20.69 C12.71 22.12 12.88 23.56 13 25 C12.5 25.49 12.5 25.49 12 26 C12.66 26.33 13.32 26.66 14 27 C14.73 28.98 15.4 30.98 16 33 C15.34 33 14.68 33 14 33 C14.19 34.3 14.37 35.6 14.56 36.94 C14.88 39.15 14.88 39.15 15 41 C14.67 41.33 14.34 41.66 14 42 C13.96 43.67 13.96 45.33 14 47 C12.02 47 10.04 47 8 47 C8 47.99 8 48.98 8 50 C7.01 50.66 6.02 51.32 5 52 C4.45 51.51 3.89 51.01 3.32 50.5 C2.6 49.86 1.87 49.22 1.12 48.56 C0.41 47.92 -0.31 47.29 -1.05 46.63 C-2.91 44.95 -2.91 44.95 -5 44 C-5 43.34 -5 42.68 -5 42 C-5.64 41.73 -6.28 41.46 -6.94 41.19 C-9 40 -9 40 -10 37 C-9.34 36.63 -8.68 36.26 -8 35.88 C-5.74 34.11 -5.74 34.11 -5.38 31.12 C-6.25 26.73 -8.38 25.48 -12 23 C-15.73 21.76 -19.27 21.77 -23.17 21.68 C-23.96 21.66 -24.76 21.64 -25.58 21.62 C-28.11 21.56 -30.65 21.5 -33.19 21.44 C-34.91 21.39 -36.63 21.35 -38.35 21.31 C-42.57 21.2 -46.78 21.1 -51 21 C-51 20.34 -51 19.68 -51 19 C-51.99 19 -52.98 19 -54 19 C-54 16.69 -54 14.38 -54 12 C-53.39 12.07 -52.78 12.14 -52.16 12.22 C-43.76 13.11 -35.43 13.1 -27 13 C-27 13.66 -27 14.32 -27 15 C-26.21 15.04 -25.43 15.07 -24.62 15.11 C-18.45 15.5 -13.42 15.94 -8 19 C-7.34 19.99 -6.68 20.98 -6 22 C-4.86 21.69 -4.86 21.69 -3.69 21.38 C-1 21 -1 21 2 23 C6.22 29.72 5.27 37.36 5 45 C5.66 45 6.32 45 7 45 C7 39.06 7 33.12 7 27 C7.66 27 8.32 27 9 27 C8.01 24.36 7.02 21.72 6 19 C4.68 19 3.36 19 2 19 C2.33 16.36 2.66 13.72 3 11 C2.34 10.67 1.68 10.34 1 10 C0.44 7.69 0.44 7.69 0 5 C-0.21 4.26 -0.41 3.52 -0.62 2.75 C-0.75 2.17 -0.87 1.59 -1 1 C-0.67 0.67 -0.34 0.34 0 0 Z " fill="#2A1A23" transform="translate(126,33)"/>
<path d="M0 0 C2.94 -0.13 5.87 -0.23 8.81 -0.31 C10.06 -0.38 10.06 -0.38 11.34 -0.44 C13.65 -0.49 15.73 -0.45 18 0 C19.81 1.95 19.81 1.95 21 5 C21.68 6.45 22.36 7.91 23.04 9.36 C23.76 10.96 24.48 12.58 25.19 14.19 C25.74 15.42 25.74 15.42 26.3 16.67 C26.65 17.45 27 18.24 27.36 19.04 C27.83 20.11 27.83 20.11 28.31 21.2 C29 23 29 23 29 25 C25.87 26.04 25.01 25.93 22 25 C22 22.69 22 20.38 22 18 C14.08 18 6.16 18 -2 18 C-2 16.02 -2 14.04 -2 12 C1.96 12 5.92 12 10 12 C10 11.34 10 10.68 10 10 C7.03 10 4.06 10 1 10 C1.99 9.67 2.98 9.34 4 9 C4 8.34 4 7.68 4 7 C3.01 7.33 2.02 7.66 1 8 C-0.35 5.29 -0.07 2.99 0 0 Z " fill="#A9A9B2" transform="translate(28,61)"/>
<path d="M0 0 C1.94 0.06 1.94 0.06 4 1 C5.25 4.06 5.25 4.06 6 7 C6.66 7 7.32 7 8 7 C8.66 8.98 9.32 10.96 10 13 C10.99 12.67 11.98 12.34 13 12 C12.74 12.84 12.74 12.84 12.47 13.71 C11.95 16.25 12.13 18.13 12.5 20.69 C12.71 22.12 12.88 23.56 13 25 C12.67 25.33 12.34 25.66 12 26 C12.66 26.33 13.32 26.66 14 27 C14.73 28.98 15.4 30.98 16 33 C15.34 33 14.68 33 14 33 C14.19 34.3 14.37 35.6 14.56 36.94 C14.88 39.15 14.88 39.15 15 41 C14.67 41.33 14.34 41.66 14 42 C13.96 43.67 13.96 45.33 14 47 C12.02 47 10.04 47 8 47 C8 47.99 8 48.98 8 50 C6 50 6 50 3.88 48.25 C1.04 43.34 1.68 38.55 2 33 C1.01 32.67 0.02 32.34 -1 32 C-2.06 30.12 -2.06 30.12 -3 28 C-3.66 27.01 -4.32 26.02 -5 25 C-4.62 22.81 -4.62 22.81 -4 21 C-1.83 21.51 -0 22 2 23 C6.18 29.76 5.27 37.34 5 45 C5.66 45 6.32 45 7 45 C7 39.06 7 33.12 7 27 C7.66 27 8.32 27 9 27 C8.01 24.36 7.02 21.72 6 19 C4.68 19 3.36 19 2 19 C2.33 16.36 2.66 13.72 3 11 C2.34 10.67 1.68 10.34 1 10 C0.44 7.69 0.44 7.69 0 5 C-0.21 4.26 -0.41 3.52 -0.62 2.75 C-0.75 2.17 -0.87 1.59 -1 1 C-0.67 0.67 -0.34 0.34 0 0 Z " fill="#1D1319" transform="translate(126,33)"/>
<path d="M0 0 C0.33 0 0.66 0 1 0 C2.04 5.08 2.08 9.84 2 15 C6.95 15 11.9 15 17 15 C16.67 10.05 16.34 5.1 16 0 C21.5 1.1 22.18 1.79 25.62 5.88 C26.38 6.76 27.14 7.64 27.91 8.55 C30 11 30 11 31.26 12.78 C34.22 14.86 37.69 14.58 41.19 14.69 C41.94 14.72 42.69 14.76 43.46 14.79 C45.31 14.87 47.15 14.94 49 15 C49 15.33 49 15.66 49 16 C47.86 16.05 46.71 16.1 45.54 16.15 C44.04 16.22 42.55 16.3 41.06 16.38 C39.93 16.42 39.93 16.42 38.78 16.47 C36.84 16.57 34.92 16.78 33 17 C32.67 17.66 32.34 18.32 32 19 C29.31 19.41 29.31 19.41 26 19.62 C24.91 19.7 23.81 19.77 22.69 19.85 C20.75 19.96 18.93 20 17 20 C16.67 20.66 16.34 21.32 16 22 C8.41 22 0.82 22 -7 22 C-7 21.34 -7 20.68 -7 20 C-4.69 20 -2.38 20 0 20 C0.33 19.34 0.66 18.68 1 18 C5.29 18 9.58 18 14 18 C11.73 17.61 9.46 17.24 7.19 16.88 C5.92 16.67 4.66 16.46 3.36 16.24 C-0.13 15.65 -0.13 15.65 -3 18 C-3.99 17.67 -4.98 17.34 -6 17 C-4.34 11.14 -2.53 5.54 0 0 Z " fill="#28161D" transform="translate(81,72)"/>
<path d="M0 0 C0 2.31 0 4.62 0 7 C0.99 7 1.98 7 3 7 C3 7.66 3 8.32 3 9 C4.07 8.99 5.15 8.98 6.26 8.97 C10.24 8.93 14.23 8.91 18.22 8.89 C19.94 8.88 21.67 8.87 23.39 8.85 C25.87 8.82 28.35 8.81 30.83 8.8 C31.6 8.79 32.38 8.78 33.17 8.77 C36.99 8.77 38.74 8.83 42 11 C41.67 11.99 41.34 12.98 41 14 C39.68 13.67 38.36 13.34 37 13 C37 13.99 37 14.98 37 16 C37.66 16 38.32 16 39 16 C39.33 15.34 39.66 14.68 40 14 C40.99 14.99 41.98 15.98 43 17 C40.03 17.66 37.06 18.32 34 19 C34 20.65 34 22.3 34 24 C35.98 23.67 37.96 23.34 40 23 C39.5 24.48 39.5 24.48 39 26 C37 26.68 35 27.35 33 28 C32.34 28.99 31.68 29.98 31 31 C31.02 30.05 31.04 29.1 31.06 28.12 C31.23 25.09 31.23 25.09 30 23 C30.66 23 31.32 23 32 23 C32 22.34 32 21.68 32 21 C29.03 21 26.06 21 23 21 C23 19.02 23 17.04 23 15 C22.01 15 21.02 15 20 15 C20 13.35 20 11.7 20 10 C15.38 10 10.76 10 6 10 C5.67 10.66 5.34 11.32 5 12 C5 11.34 5 10.68 5 10 C4.34 10 3.68 10 3 10 C2.67 10.66 2.34 11.32 2 12 C-0.31 12 -2.62 12 -5 12 C-5 11.34 -5 10.68 -5 10 C-7.64 10 -10.28 10 -13 10 C-12.78 6.19 -12.01 5.01 -9.31 2.19 C-5.74 -0.17 -4.17 -0.5 0 0 Z " fill="#ABABB8" transform="translate(72,45)"/>
<path d="M0 0 C1.32 0 2.64 0 4 0 C4 1.32 4 2.64 4 4 C3.01 4 2.02 4 1 4 C1 4.66 1 5.32 1 6 C0.03 6.25 -0.94 6.5 -1.94 6.75 C-2.95 7.16 -3.96 7.57 -5 8 C-5.14 8.64 -5.27 9.28 -5.41 9.95 C-6 12 -6 12 -7.93 13.2 C-19.9 17.64 -32.32 19.97 -45 17 C-44.12 14.5 -44.12 14.5 -42 12 C-38.63 11.54 -35.38 11.71 -32 12 C-31.67 11.01 -31.34 10.02 -31 9 C-27.37 9 -23.74 9 -20 9 C-19.67 7.68 -19.34 6.36 -19 5 C-18.01 4.67 -17.02 4.34 -16 4 C-15.67 3.34 -15.34 2.68 -15 2 C-14.22 2.19 -13.43 2.37 -12.62 2.56 C-10.03 3.26 -10.03 3.26 -8 2 C-6.82 1.83 -5.65 1.67 -4.44 1.5 C-1.18 1.38 -1.18 1.38 0 0 Z " fill="#111319" transform="translate(108,125)"/>
<path d="M0 0 C1.38 1.29 2.71 2.63 4 4 C4 4.66 4 5.32 4 6 C4.66 6.33 5.32 6.66 6 7 C5.01 8.48 5.01 8.48 4 10 C2.64 10.19 2.64 10.19 1.25 10.38 C-3.13 11.22 -4.83 12.9 -8 16 C-8 16.66 -8 17.32 -8 18 C-9.65 18 -11.3 18 -13 18 C-13 17.34 -13 16.68 -13 16 C-13.58 16.35 -14.16 16.7 -14.75 17.06 C-17.36 18.15 -18.39 17.93 -21 17 C-20.13 13.43 -19.52 11.44 -16.68 9.02 C-15.75 8.48 -14.83 7.94 -13.88 7.38 C-12.9 6.79 -11.92 6.21 -10.91 5.61 C-7.32 3.62 -3.71 1.75 0 0 Z " fill="#0D0B0F" transform="translate(45,4)"/>
<path d="M0 0 C0 0.99 0 1.98 0 3 C2.64 3 5.28 3 8 3 C8 3.66 8 4.32 8 5 C9.98 5 11.96 5 14 5 C14.33 4.34 14.66 3.68 15 3 C13.63 9.96 11.55 16.39 9 23 C8.34 23 7.68 23 7 23 C6.6 21.98 6.2 20.95 5.79 19.89 C5.26 18.53 4.72 17.17 4.19 15.81 C3.93 15.14 3.67 14.47 3.4 13.77 C3.14 13.11 2.87 12.45 2.61 11.77 C2.37 11.17 2.13 10.57 1.89 9.94 C1.6 9.3 1.3 8.66 1 8 C0.66 7.11 0.33 6.22 -0.02 5.31 C-2.31 2.64 -2.76 2.62 -6.1 2.34 C-7.82 2.3 -9.54 2.29 -11.26 2.29 C-12.17 2.28 -13.07 2.26 -14.01 2.25 C-16.9 2.2 -19.79 2.2 -22.69 2.19 C-24.65 2.16 -26.61 2.14 -28.57 2.11 C-33.38 2.05 -38.19 2.02 -43 2 C-43 1.67 -43 1.34 -43 1 C-37.36 0.86 -31.72 0.71 -26.07 0.57 C-24.16 0.52 -22.24 0.48 -20.32 0.43 C-17.56 0.36 -14.8 0.29 -12.04 0.22 C-10.75 0.19 -10.75 0.19 -9.44 0.15 C-8.64 0.13 -7.84 0.11 -7.01 0.09 C-5.96 0.07 -5.96 0.07 -4.88 0.04 C-3.25 0.01 -1.63 0 0 0 Z " fill="#4B434E" transform="translate(59,52)"/>
<path d="M0 0 C0.66 0.66 1.32 1.32 2 2 C3.32 2 4.64 2 6 2 C6 2.66 6 3.32 6 4 C4.68 4.33 3.36 4.66 2 5 C2 6.32 2 7.64 2 9 C2 11.33 2 13.67 2 16 C1.34 16 0.68 16 0 16 C0.33 16.66 0.66 17.32 1 18 C3.3 14.56 3.54 12.06 4 8 C4.33 8 4.66 8 5 8 C5 11.96 5 15.92 5 20 C5.99 20.33 6.98 20.66 8 21 C8 21.99 8 22.98 8 24 C17.57 24.33 27.14 24.66 37 25 C37 25.33 37 25.66 37 26 C21.49 26 5.98 26 -10 26 C-9.67 24.68 -9.34 23.36 -9 22 C-8.34 22 -7.68 22 -7 22 C-7 22.66 -7 23.32 -7 24 C-6.34 24 -5.68 24 -5 24 C-5.04 23.13 -5.08 22.27 -5.12 21.38 C-4.99 17.84 -4.27 15.31 -3.06 12 C-1.61 7.99 -0.6 4.23 0 0 Z " fill="#A5A5AF" transform="translate(13,62)"/>
<path d="M0 0 C2.83 3.38 4.5 7.09 6.19 11.12 C6.6 12.07 6.6 12.07 7.01 13.04 C9 17.73 9 17.73 9 20 C5.87 21.04 5.01 20.93 2 20 C2 17.69 2 15.38 2 13 C-5.92 13 -13.84 13 -22 13 C-22 11.35 -22 9.7 -22 8 C-15.07 8 -8.14 8 -1 8 C-0.67 5.36 -0.34 2.72 0 0 Z " fill="#5E565F" transform="translate(48,66)"/>
<path d="M0 0 C1.32 0 2.64 0 4 0 C4 1.32 4 2.64 4 4 C3.01 4 2.02 4 1 4 C1 4.66 1 5.32 1 6 C0.03 6.25 -0.94 6.5 -1.94 6.75 C-2.95 7.16 -3.96 7.57 -5 8 C-5.13 8.64 -5.26 9.28 -5.4 9.93 C-6 12 -6 12 -8.07 13.3 C-16.75 16.66 -16.75 16.66 -22 15 C-22 14.67 -22 14.34 -22 14 C-17.05 12.51 -17.05 12.51 -12 11 C-12.33 10.01 -12.66 9.02 -13 8 C-13.6 8.35 -14.2 8.7 -14.81 9.06 C-17 10 -17 10 -20 9 C-19.69 7.06 -19.69 7.06 -19 5 C-18.01 4.67 -17.02 4.34 -16 4 C-15.67 3.34 -15.34 2.68 -15 2 C-14.22 2.19 -13.43 2.37 -12.62 2.56 C-10.03 3.26 -10.03 3.26 -8 2 C-6.24 1.75 -6.24 1.75 -4.44 1.5 C-1.18 1.38 -1.18 1.38 0 0 Z " fill="#0F0C13" transform="translate(108,125)"/>
<path d="M0 0 C1.94 0.06 1.94 0.06 4 1 C5.25 4.06 5.25 4.06 6 7 C6.66 7 7.32 7 8 7 C8.66 8.98 9.32 10.96 10 13 C10.99 12.67 11.98 12.34 13 12 C12.83 12.56 12.65 13.12 12.47 13.7 C11.95 16.25 12.1 18.18 12.44 20.75 C12.54 21.55 12.64 22.35 12.75 23.17 C12.83 23.78 12.91 24.38 13 25 C11.35 25 9.7 25 8 25 C7.34 23.02 6.68 21.04 6 19 C4.68 19 3.36 19 2 19 C2.33 16.36 2.66 13.72 3 11 C2.34 10.67 1.68 10.34 1 10 C0.44 7.69 0.44 7.69 0 5 C-0.21 4.26 -0.41 3.52 -0.62 2.75 C-0.75 2.17 -0.87 1.59 -1 1 C-0.67 0.67 -0.34 0.34 0 0 Z " fill="#1C141B" transform="translate(126,33)"/>
<path d="M0 0 C1.44 3.8 0.5 6.15 -0.88 9.88 C-2.36 13.93 -3.4 17.72 -4 22 C-4.66 22 -5.32 22 -6 22 C-6 21.34 -6 20.68 -6 20 C-6.66 20.33 -7.32 20.66 -8 21 C-8.33 21.99 -8.66 22.98 -9 24 C-9.66 24 -10.32 24 -11 24 C-12.01 19.84 -12.1 15.96 -12.06 11.69 C-12.05 10.43 -12.04 9.18 -12.04 7.89 C-12.02 6.46 -12.02 6.46 -12 5 C-10.02 5 -8.04 5 -6 5 C-5.67 5.99 -5.34 6.98 -5 8 C-2.75 5.31 -1.12 3.35 0 0 Z " fill="#3B3841" transform="translate(12,64)"/>
<path d="M0 0 C0.33 0 0.66 0 1 0 C2.04 5.08 2.08 9.84 2 15 C6.95 15 11.9 15 17 15 C16.67 10.05 16.34 5.1 16 0 C21 1 21 1 22.81 3.44 C24 6 24 6 24 8 C23.34 8 22.68 8 22 8 C22 8.66 22 9.32 22 10 C20.68 10.33 19.36 10.66 18 11 C18 12.65 18 14.3 18 16 C16.74 15.98 15.47 15.95 14.17 15.93 C12.51 15.91 10.85 15.89 9.19 15.88 C8.35 15.86 7.52 15.84 6.66 15.82 C5.46 15.81 5.46 15.81 4.23 15.8 C3.49 15.79 2.75 15.78 1.99 15.77 C-0.32 15.88 -0.32 15.88 -3 18 C-3.99 17.67 -4.98 17.34 -6 17 C-4.34 11.14 -2.53 5.54 0 0 Z " fill="#5E565F" transform="translate(81,72)"/>
<path d="M0 0 C2.58 -0.05 5.17 -0.09 7.75 -0.12 C8.84 -0.15 8.84 -0.15 9.96 -0.18 C13.86 -0.21 16.66 -0.08 20 2 C21.66 2.38 23.32 2.72 25 3 C25 2.34 25 1.68 25 1 C25.99 1 26.98 1 28 1 C28.33 2.32 28.66 3.64 29 5 C25.7 4.67 22.4 4.34 19 4 C19 4.66 19 5.32 19 6 C18.01 6 17.02 6 16 6 C16 5.34 16 4.68 16 4 C14.68 4 13.36 4 12 4 C11.34 4.66 10.68 5.32 10 6 C9.01 6.5 9.01 6.5 8 7 C8.33 8.65 8.66 10.3 9 12 C7.68 12.33 6.36 12.66 5 13 C2 6.38 2 6.38 2 3 C2.66 2.67 3.32 2.34 4 2 C2.68 2 1.36 2 0 2 C0 1.34 0 0.68 0 0 Z " fill="#2B202A" transform="translate(2,88)"/>
<path d="M0 0 C3.17 1.22 4.17 2.23 6.25 5.06 C9.63 8.7 13.68 8.67 18.38 8.88 C20.92 8.96 23.45 8.99 26 9 C26 9.33 26 9.66 26 10 C24.86 10.05 23.71 10.1 22.54 10.15 C21.04 10.22 19.55 10.3 18.06 10.38 C16.93 10.42 16.93 10.42 15.78 10.47 C13.84 10.57 11.92 10.78 10 11 C9.67 11.66 9.34 12.32 9 13 C6.28 13.41 6.28 13.41 2.94 13.62 C1.83 13.7 0.73 13.77 -0.41 13.85 C-1.26 13.9 -2.12 13.95 -3 14 C-2.67 13.34 -2.34 12.68 -2 12 C0.07 11.59 0.07 11.59 2.56 11.38 C3.39 11.3 4.22 11.23 5.07 11.15 C6.02 11.07 6.02 11.07 7 11 C7 10.01 7 9.02 7 8 C5.68 8 4.36 8 3 8 C-0.69 7.62 -0.69 7.62 -4 7 C-4.33 6.34 -4.66 5.68 -5 5 C-3.68 4.67 -2.36 4.34 -1 4 C-0.67 2.68 -0.34 1.36 0 0 Z " fill="#3D333B" transform="translate(104,78)"/>
<path d="M0 0 C1.65 0 3.3 0 5 0 C5.66 1.32 6.32 2.64 7 4 C6.34 4 5.68 4 5 4 C5.19 5.3 5.37 6.6 5.56 7.94 C5.88 10.15 5.88 10.15 6 12 C5.67 12.33 5.34 12.66 5 13 C4.96 14.67 4.96 16.33 5 18 C3.35 18 1.7 18 0 18 C0 12.06 0 6.12 0 0 Z " fill="#55515D" transform="translate(135,62)"/>
<path d="M0 0 C0.33 0.66 0.66 1.32 1 2 C1.58 1.79 2.16 1.59 2.75 1.38 C5.52 0.91 6.65 1.57 9 3 C9 2.34 9 1.68 9 1 C11.31 1.14 13.63 1.29 15.94 1.44 C17.87 1.56 17.87 1.56 19.84 1.68 C23 2 23 2 24 3 C26.7 3.07 29.37 3.09 32.06 3.06 C33.2 3.06 33.2 3.06 34.36 3.05 C36.24 3.04 38.12 3.02 40 3 C40.5 4.48 40.5 4.48 41 6 C28.46 5.67 15.92 5.34 3 5 C3 4.34 3 3.68 3 3 C2.01 3 1.02 3 0 3 C0 2.01 0 1.02 0 0 Z " fill="#362732" transform="translate(72,49)"/>
<path d="M0 0 C2.79 -0.05 5.58 -0.09 8.38 -0.12 C9.17 -0.14 9.96 -0.16 10.78 -0.18 C12.85 -0.19 14.93 -0.1 17 0 C19 2 19 2 19 5 C12.73 5 6.46 5 0 5 C0 3.35 0 1.7 0 0 Z " fill="#5A525C" transform="translate(29,61)"/>
<path d="M0 0 C1.32 0.33 2.64 0.66 4 1 C4 2.32 4 3.64 4 5 C-4.91 6.48 -4.91 6.48 -14 8 C-14.33 6.02 -14.66 4.04 -15 2 C-12.39 0.7 -10.41 0.87 -7.5 0.88 C-6.52 0.87 -5.54 0.87 -4.53 0.87 C-2 1 -2 1 0 2 C0 1.34 0 0.68 0 0 Z " fill="#24282C" transform="translate(66,2)"/>
<path d="M0 0 C3.08 0.74 3.08 0.74 7.69 -0.5 C6.04 4.12 4.39 8.74 2.69 13.5 C2.03 13.5 1.37 13.5 0.69 13.5 C-0.96 9.21 -2.61 4.92 -4.31 0.5 C-2.31 -0.5 -2.31 -0.5 0 0 Z " fill="#675F68" transform="translate(65.3125,61.5)"/>
<path d="M0 0 C2.88 0.25 2.88 0.25 6 1 C7.87 3.55 8 4.81 8 8 C8.66 8 9.32 8 10 8 C10.33 8.99 10.66 9.98 11 11 C10.01 11.66 9.02 12.32 8 13 C3.98 10.94 1.87 9.14 0 5 C-0.19 2.19 -0.19 2.19 0 0 Z " fill="#4C494F" transform="translate(9,103)"/>
<path d="M0 0 C0.33 0 0.66 0 1 0 C2.13 5.36 2.1 10.55 2 16 C-2.62 18.12 -2.62 18.12 -6 17 C-4.34 11.14 -2.53 5.54 0 0 Z " fill="#3E303B" transform="translate(81,72)"/>
<path d="M0 0 C3.63 0 7.26 0 11 0 C11 0.99 11 1.98 11 3 C17.93 3.5 17.93 3.5 25 4 C25 6.64 25 9.28 25 12 C24.67 12 24.34 12 24 12 C24 9.69 24 7.38 24 5 C16.08 5 8.16 5 0 5 C0 3.35 0 1.7 0 0 Z " fill="#6D6670" transform="translate(26,74)"/>
<path d="M0 0 C0.33 1.32 0.66 2.64 1 4 C-1.64 5.32 -3.68 5.1 -6.62 5.06 C-7.63 5.05 -8.63 5.04 -9.66 5.04 C-10.43 5.02 -11.21 5.01 -12 5 C-12 4.34 -12 3.68 -12 3 C-12.66 3 -13.32 3 -14 3 C-14 3.66 -14 4.32 -14 5 C-15.32 5 -16.64 5 -18 5 C-18 3.68 -18 2.36 -18 1 C-15.56 0.83 -13.13 0.67 -10.69 0.5 C-10 0.45 -9.31 0.4 -8.6 0.36 C-5.72 0.16 -2.88 0 0 0 Z " fill="#6E737A" transform="translate(84,136)"/>
<path d="M0 0 C0.12 0.64 0.25 1.28 0.38 1.94 C0.58 2.62 0.79 3.3 1 4 C1.66 4.33 2.32 4.66 3 5 C2.01 6.48 2.01 6.48 1 8 C-0.95 8.29 -0.95 8.29 -3.12 8.19 C-4.4 8.13 -5.68 8.06 -7 8 C-7.66 6.35 -8.32 4.7 -9 3 C-3.38 0 -3.38 0 0 0 Z " fill="#2F2C32" transform="translate(48,6)"/>
<path d="M0 0 C1.98 0 3.96 0 6 0 C7.3 4.61 6.71 8.34 6 13 C5.01 13.33 4.02 13.66 3 14 C2.34 13.34 1.68 12.68 1 12 C1.38 8.88 1.38 8.88 2 6 C1.34 5.67 0.68 5.34 0 5 C0 3.35 0 1.7 0 0 Z " fill="#6D6271" transform="translate(0,69)"/>
<path d="M0 0 C-0.33 2.31 -0.66 4.62 -1 7 C-3.02 6.97 -5.04 6.93 -7.05 6.9 C-9.08 6.87 -9.08 6.87 -11 8 C-11.66 7.34 -12.32 6.68 -13 6 C-6.07 -0.89 -6.07 -0.89 0 0 Z " fill="#AAA5AD" transform="translate(72,45)"/>
<path d="M0 0 C0 1.32 0 2.64 0 4 C-0.99 4 -1.98 4 -3 4 C-3 4.66 -3 5.32 -3 6 C-5.3 7.07 -7.64 8.06 -10 9 C-10.66 8.67 -11.32 8.34 -12 8 C-11.62 5.25 -11.22 4.2 -9.12 2.31 C-5.86 0.3 -3.88 0 0 0 Z " fill="#72777C" transform="translate(112,125)"/>
<path d="M0 0 C6.62 -0.25 6.62 -0.25 10 2 C10 2.99 10 3.98 10 5 C6.79 6.61 3.56 6.06 0 6 C0 4.02 0 2.04 0 0 Z " fill="#59565E" transform="translate(95,60)"/>
<path d="M0 0 C1.81 0.12 1.81 0.12 4 1 C6.38 4.75 7.39 7.56 7 12 C6.01 12 5.02 12 4 12 C3.13 10.57 2.28 9.13 1.44 7.69 C0.72 6.49 0.72 6.49 -0 5.26 C-1 3 -1 3 0 0 Z " fill="#74707A" transform="translate(126,33)"/>
<path d="M0 0 C0.9 0.31 0.9 0.31 1.81 0.62 C0.44 3.79 -0.18 4.62 -3.19 6.62 C-4.18 6.62 -5.17 6.62 -6.19 6.62 C-6.52 7.62 -6.85 8.61 -7.19 9.62 C-8.51 9.3 -9.83 8.96 -11.19 8.62 C-11.19 7.96 -11.19 7.3 -11.19 6.62 C-9.87 6.3 -8.55 5.96 -7.19 5.62 C-7.19 4.96 -7.19 4.3 -7.19 3.62 C-6.53 3.62 -5.87 3.62 -5.19 3.62 C-5.19 2.96 -5.19 2.3 -5.19 1.62 C-2.19 -0.38 -2.19 -0.38 0 0 Z " fill="#6E7377" transform="translate(35.1875,12.375)"/>
<path d="M0 0 C1.65 0 3.3 0 5 0 C5.33 2.97 5.66 5.94 6 9 C4.35 9 2.7 9 1 9 C-0.48 6.04 -0.06 3.26 0 0 Z " fill="#5C5261" transform="translate(133,49)"/>
<path d="M0 0 C1.65 0 3.3 0 5 0 C5 1.65 5 3.3 5 5 C5.66 5 6.32 5 7 5 C7 6.32 7 7.64 7 9 C5.68 9.33 4.36 9.66 3 10 C0 3.38 0 3.38 0 0 Z " fill="#746B78" transform="translate(4,91)"/>
<path d="M0 0 C0 1.65 0 3.3 0 5 C-0.66 5 -1.32 5 -2 5 C-2 6.32 -2 7.64 -2 9 C3.61 9 9.22 9 15 9 C15 9.33 15 9.66 15 10 C9.06 10 3.12 10 -3 10 C-3.66 7.69 -4.32 5.38 -5 3 C-2.25 0 -2.25 0 0 0 Z " fill="#9C97A1" transform="translate(60,78)"/>
<path d="M0 0 C0.33 0.99 0.66 1.98 1 3 C-2.12 3.97 -4.52 3.99 -7.75 3.56 C-8.95 3.41 -8.95 3.41 -10.17 3.25 C-10.78 3.17 -11.38 3.09 -12 3 C-12 2.01 -12 1.02 -12 0 C-7.92 -1.53 -4.21 -0.63 0 0 Z " fill="#B6B3C0" transform="translate(71,52)"/>
<path d="M0 0 C1.5 1.06 1.5 1.06 3 3 C3.19 6.69 3.19 6.69 3 10 C2.34 10 1.68 10 1 10 C1 9.34 1 8.68 1 8 C0.36 7.73 -0.28 7.46 -0.94 7.19 C-3 6 -3 6 -4 3 C-2.68 2.01 -1.36 1.02 0 0 Z " fill="#403644" transform="translate(120,67)"/>
<path d="M0 0 C0.99 0.66 1.98 1.32 3 2 C2.67 2.99 2.34 3.98 2 5 C-0.9 6.45 -2.74 7 -6 7 C-6 5.35 -6 3.7 -6 2 C-3.53 2.5 -3.53 2.5 -1 3 C-0.67 2.01 -0.34 1.02 0 0 Z " fill="#73767E" transform="translate(94,132)"/>
<path d="M0 0 C2.47 0.5 2.47 0.5 5 1 C4.67 3.64 4.34 6.28 4 9 C2.68 9 1.36 9 0 9 C0 6.03 0 3.06 0 0 Z " fill="#756D7B" transform="translate(136,71)"/>
<path d="M0 0 C1.88 0.62 1.88 0.62 4 2 C5.25 5.12 5.25 5.12 6 8 C5.01 8.33 4.02 8.66 3 9 C2.01 8.34 1.02 7.68 0 7 C-0.19 3.38 -0.19 3.38 0 0 Z " fill="#4B3F4C" transform="translate(51,78)"/>
<path d="M0 0 C2.06 0.44 2.06 0.44 4 1 C4.33 3.31 4.66 5.62 5 8 C4.01 8.5 4.01 8.5 3 9 C3 8.34 3 7.68 3 7 C2.34 7 1.68 7 1 7 C0.34 5.02 -0.32 3.04 -1 1 C-0.67 0.67 -0.34 0.34 0 0 Z " fill="#87808C" transform="translate(11,103)"/>
<path d="M0 0 C0.33 0.66 0.66 1.32 1 2 C2.32 1.67 3.64 1.34 5 1 C5.33 1.99 5.66 2.98 6 4 C11.28 4 16.56 4 22 4 C22 4.33 22 4.66 22 5 C15.73 5 9.46 5 3 5 C3 4.34 3 3.68 3 3 C2.01 3 1.02 3 0 3 C0 2.01 0 1.02 0 0 Z " fill="#463A47" transform="translate(72,49)"/>
<path d="M0 0 C0 0.99 0 1.98 0 3 C-0.99 3.33 -1.98 3.66 -3 4 C-3 3.01 -3 2.02 -3 1 C-3.66 1 -4.32 1 -5 1 C-5 2.32 -5 3.64 -5 5 C-5.99 5 -6.98 5 -8 5 C-8.33 3.68 -8.66 2.36 -9 1 C-6.04 -0.48 -3.26 -0.06 0 0 Z " fill="#6E7176" transform="translate(60,3)"/>
<path d="M0 0 C2.6 -0.05 5.21 -0.09 7.81 -0.12 C8.55 -0.14 9.29 -0.16 10.05 -0.18 C13.91 -0.21 15.71 -0.19 19 2 C18.67 2.99 18.34 3.98 18 5 C16.68 4.34 15.36 3.68 14 3 C14 2.34 14 1.68 14 1 C9.38 1 4.76 1 0 1 C0 0.67 0 0.34 0 0 Z " fill="#A29FAB" transform="translate(95,54)"/>
<path d="M0 0 C0.99 0 1.98 0 3 0 C3.33 2.31 3.66 4.62 4 7 C3.01 7.33 2.02 7.66 1 8 C0.34 7.34 -0.32 6.68 -1 6 C-0.62 2.88 -0.62 2.88 0 0 Z " fill="#8E8D97" transform="translate(2,75)"/>
<path d="M0 0 C2.31 0 4.62 0 7 0 C5.68 0.33 4.36 0.66 3 1 C3 2.32 3 3.64 3 5 C4.65 5 6.3 5 8 5 C8 5.33 8 5.66 8 6 C5.36 6 2.72 6 0 6 C0 4.02 0 2.04 0 0 Z " fill="#6B6671" transform="translate(95,60)"/>
<path d="M0 0 C1.32 0.33 2.64 0.66 4 1 C4 1.99 4 2.98 4 4 C1.36 4.33 -1.28 4.66 -4 5 C-4 3.68 -4 2.36 -4 1 C-2.68 1.33 -1.36 1.66 0 2 C0 1.34 0 0.68 0 0 Z " fill="#6A7074" transform="translate(66,2)"/>
<path d="M0 0 C0.33 0 0.66 0 1 0 C1.33 3.63 1.66 7.26 2 11 C1.01 11 0.02 11 -1 11 C-2.19 9.44 -2.19 9.44 -3 7 C-1.62 3.25 -1.62 3.25 0 0 Z " fill="#6D6A71" transform="translate(81,72)"/>
<path d="M0 0 C1.94 0.81 1.94 0.81 4 2 C4.33 2.99 4.66 3.98 5 5 C4.01 5.33 3.02 5.66 2 6 C2 5.01 2 4.02 2 3 C0.68 3 -0.64 3 -2 3 C-2.33 3.66 -2.66 4.32 -3 5 C-3.66 3.68 -4.32 2.36 -5 1 C-3.35 1 -1.7 1 0 1 C0 0.67 0 0.34 0 0 Z " fill="#191818" transform="translate(110,122)"/>
<path d="M0 0 C0.99 0.33 1.98 0.66 3 1 C2.67 5.29 2.34 9.58 2 14 C1.67 14 1.34 14 1 14 C-0.21 9.33 -0.09 4.79 0 0 Z " fill="#302E34" transform="translate(0,74)"/>
<path d="M0 0 C2 3 2 3 2 7 C1.34 7 0.68 7 0 7 C0 6.34 0 5.68 0 5 C-2.33 5.96 -2.33 5.96 -4 9 C-4 7.02 -4 5.04 -4 3 C-3.01 3 -2.02 3 -1 3 C-0.67 2.01 -0.34 1.02 0 0 Z " fill="#54565C" transform="translate(6,79)"/>
<path d="M0 0 C2.44 0.38 2.44 0.38 5 1 C5.33 1.66 5.66 2.32 6 3 C5.34 3 4.68 3 4 3 C2.98 3.98 1.98 4.98 1 6 C0.67 6 0.34 6 0 6 C0 4.02 0 2.04 0 0 Z " fill="#737079" transform="translate(97,72)"/>
<path d="M0 0 C1.65 0 3.3 0 5 0 C4.67 1.32 4.34 2.64 4 4 C2.02 4 0.04 4 -2 4 C-1.34 2.68 -0.68 1.36 0 0 Z " fill="#82818D" transform="translate(67,48)"/>
<path d="M0 0 C0.99 0 1.98 0 3 0 C3.33 1.65 3.66 3.3 4 5 C2.68 4.67 1.36 4.34 0 4 C-0.33 4.66 -0.66 5.32 -1 6 C-1.62 4.12 -1.62 4.12 -2 2 C-1.34 1.34 -0.68 0.68 0 0 Z " fill="#514952" transform="translate(79,80)"/>
<path d="M0 0 C2.5 1.62 2.5 1.62 5 4 C5.31 7.25 5.31 7.25 5 10 C4.75 9.42 4.5 8.84 4.25 8.25 C2.83 5.7 1.12 3.98 -1 2 C-0.67 1.34 -0.34 0.68 0 0 Z " fill="#A09AA7" transform="translate(116,57)"/>
<path d="M0 0 C-0.33 1.65 -0.66 3.3 -1 5 C-1.99 4.67 -2.98 4.34 -4 4 C-4.33 3.01 -4.66 2.02 -5 1 C-3 0 -3 0 0 0 Z " fill="#6F6E76" transform="translate(48,6)"/>
<path d="M0 0 C0 3 0 3 -1 6 C-1.66 6 -2.32 6 -3 6 C-3 5.34 -3 4.68 -3 4 C-3.99 4.33 -4.98 4.66 -6 5 C-6 4.34 -6 3.68 -6 3 C-4.02 2.01 -2.04 1.02 0 0 Z " fill="#18161D" transform="translate(35,16)"/>
</svg>
