<?xml version="1.0" encoding="UTF-8"?>
<!-- Generator: https://ezgif.com/png-to-svg -->
<svg version="1.1" xmlns="http://www.w3.org/2000/svg" width="512" height="512" viewBox="-36.656 -36.694 673.322 673.322" preserveAspectRatio="xMidYMid meet">
<path d="M0 0 C1.16 -0.01 2.31 -0.02 3.5 -0.03 C50.57 -0.35 50.57 -0.35 71.86 4.24 C72.91 4.45 73.97 4.66 75.05 4.87 C127.41 15.27 177.19 39.57 216.4 75.97 C218.56 77.96 220.75 79.89 222.98 81.8 C230.18 88.07 236.69 94.96 242.86 102.24 C243.58 103.07 244.31 103.91 245.05 104.77 C261.25 123.73 275.39 144.8 285.98 167.39 C286.84 169.21 287.73 171.01 288.61 172.82 C302.67 201.67 310.59 232.53 314.86 264.24 C314.99 265.22 314.99 265.22 315.13 266.23 C315.9 272.46 316.05 278.64 316.09 284.91 C316.1 286.02 316.11 287.13 316.12 288.27 C316.45 334.51 316.45 334.51 311.86 356.24 C311.63 357.32 311.41 358.41 311.17 359.52 C305.13 387.93 295.64 415.63 281.86 441.24 C281.48 441.95 281.1 442.66 280.72 443.4 C269.47 464.64 255.49 484.58 238.9 502.02 C236.83 504.06 236.83 504.06 235.86 506.24 C235.2 506.24 234.54 506.24 233.86 506.24 C233.61 506.81 233.36 507.38 233.11 507.97 C231.66 510.59 229.97 512.39 227.86 514.49 C227.15 515.19 226.45 515.9 225.73 516.63 C223.86 518.24 223.86 518.24 221.86 518.24 C221.53 519.23 221.2 520.22 220.86 521.24 C218.43 523.82 215.58 525.98 212.86 528.24 C212.3 528.71 211.74 529.17 211.17 529.66 C197.5 541.12 183.14 551.04 167.86 560.24 C166.72 560.97 166.72 560.97 165.57 561.71 C134.17 581.63 96.25 592.42 59.86 598.24 C58.74 598.43 57.63 598.61 56.48 598.8 C43.25 600.76 29.96 600.64 16.61 600.61 C14.73 600.61 14.73 600.61 12.82 600.61 C-5.21 600.58 -22.47 600.04 -40.14 596.24 C-41.73 595.92 -41.73 595.92 -43.34 595.6 C-95.7 585.21 -145.48 560.91 -184.69 524.51 C-186.85 522.51 -189.04 520.59 -191.27 518.68 C-198.47 512.41 -204.98 505.52 -211.14 498.24 C-211.87 497.4 -212.6 496.57 -213.34 495.7 C-229.54 476.74 -243.68 455.67 -254.28 433.08 C-255.12 431.29 -255.99 429.53 -256.87 427.76 C-273.54 393.51 -284.12 354.3 -284.38 316.09 C-284.39 314.94 -284.4 313.78 -284.41 312.59 C-284.73 265.53 -284.73 265.53 -280.14 244.24 C-279.94 243.18 -279.73 242.13 -279.51 241.04 C-274.69 216.77 -266.95 193.49 -256.14 171.24 C-255.81 170.54 -255.48 169.84 -255.13 169.11 C-243.01 143.63 -227.27 120.42 -208.26 99.57 C-206.37 97.49 -204.53 95.37 -202.71 93.24 C-196.1 85.66 -188.86 78.68 -181.14 72.24 C-180.6 71.78 -180.06 71.32 -179.5 70.85 C-165.81 59.37 -151.44 49.44 -136.14 40.24 C-135.39 39.75 -134.63 39.27 -133.86 38.77 C-125.54 33.49 -116.52 29.49 -107.6 25.37 C-105.58 24.44 -103.56 23.49 -101.55 22.54 C-76.38 11.14 -48.45 4.81 -21.14 1.24 C-20.5 1.15 -19.86 1.06 -19.2 0.97 C-12.8 0.18 -6.45 0.04 0 0 Z " fill="#FCFCFC" transform="translate(284.14453125,-0.23828125)"/>
<path d="M0 0 C1.28 -0.02 2.55 -0.04 3.87 -0.06 C12.77 -0.1 20.76 1.11 29.38 3.25 C31.02 3.6 32.66 3.95 34.31 4.29 C63.94 10.87 90.56 26.33 112.38 47.25 C113.19 48.02 114.01 48.78 114.85 49.57 C143.2 76.86 160.78 116.76 161.76 156.03 C161.81 159.02 161.82 162.01 161.81 165 C161.81 165.7 161.81 166.41 161.81 167.13 C161.77 180.63 160.43 193.9 156.81 206.94 C156.56 207.86 156.3 208.79 156.04 209.74 C153.14 219.71 149.05 229 144.38 238.25 C144.02 238.96 143.66 239.68 143.29 240.41 C123.11 279.74 87.98 307.61 46.34 321.29 C5.42 334.33 -39.21 330.05 -77.31 310.56 C-92.71 302.4 -106.33 292.6 -118.62 280.25 C-119.39 279.49 -119.39 279.49 -120.17 278.72 C-132.86 265.96 -142.27 251.11 -150.62 235.25 C-150.97 234.61 -151.31 233.97 -151.66 233.31 C-154.14 228.52 -156.02 223.69 -157.69 218.56 C-157.95 217.77 -158.2 216.98 -158.47 216.16 C-171.94 174.15 -168.95 129.57 -149.15 90.15 C-128.82 50.74 -93.79 21.21 -51.73 7.27 C-42.24 4.33 -32.43 2.74 -22.62 1.25 C-21.39 1.06 -20.16 0.86 -18.89 0.66 C-12.63 -0.08 -6.3 0.02 0 0 Z " fill="#FCFCFC" transform="translate(302.625,135.75)"/>
<path d="M0 0 C1.16 -0.01 2.31 -0.02 3.5 -0.03 C50.57 -0.35 50.57 -0.35 71.86 4.24 C72.91 4.45 73.97 4.66 75.05 4.87 C127.41 15.27 177.19 39.57 216.4 75.97 C218.56 77.96 220.75 79.89 222.98 81.8 C230.18 88.07 236.69 94.96 242.86 102.24 C243.58 103.07 244.31 103.91 245.05 104.77 C261.25 123.73 275.39 144.8 285.98 167.39 C286.84 169.21 287.73 171.01 288.61 172.82 C302.67 201.67 310.59 232.53 314.86 264.24 C314.99 265.22 314.99 265.22 315.13 266.23 C315.9 272.46 316.05 278.64 316.09 284.91 C316.1 286.02 316.11 287.13 316.12 288.27 C316.45 334.51 316.45 334.51 311.86 356.24 C311.63 357.32 311.41 358.41 311.17 359.52 C305.13 387.93 295.64 415.63 281.86 441.24 C281.48 441.95 281.1 442.66 280.72 443.4 C269.47 464.64 255.49 484.58 238.9 502.02 C236.83 504.06 236.83 504.06 235.86 506.24 C235.2 506.24 234.54 506.24 233.86 506.24 C233.61 506.81 233.36 507.38 233.11 507.97 C231.66 510.59 229.97 512.39 227.86 514.49 C227.15 515.19 226.45 515.9 225.73 516.63 C223.86 518.24 223.86 518.24 221.86 518.24 C221.53 519.23 221.2 520.22 220.86 521.24 C218.43 523.82 215.58 525.98 212.86 528.24 C212.3 528.71 211.74 529.17 211.17 529.66 C197.5 541.12 183.14 551.04 167.86 560.24 C166.72 560.97 166.72 560.97 165.57 561.71 C134.17 581.63 96.25 592.42 59.86 598.24 C58.74 598.43 57.63 598.61 56.48 598.8 C43.25 600.76 29.96 600.64 16.61 600.61 C14.73 600.61 14.73 600.61 12.82 600.61 C-5.21 600.58 -22.47 600.04 -40.14 596.24 C-41.73 595.92 -41.73 595.92 -43.34 595.6 C-95.7 585.21 -145.48 560.91 -184.69 524.51 C-186.85 522.51 -189.04 520.59 -191.27 518.68 C-198.47 512.41 -204.98 505.52 -211.14 498.24 C-211.87 497.4 -212.6 496.57 -213.34 495.7 C-229.54 476.74 -243.68 455.67 -254.28 433.08 C-255.12 431.29 -255.99 429.53 -256.87 427.76 C-273.54 393.51 -284.12 354.3 -284.38 316.09 C-284.39 314.94 -284.4 313.78 -284.41 312.59 C-284.73 265.53 -284.73 265.53 -280.14 244.24 C-279.94 243.18 -279.73 242.13 -279.51 241.04 C-274.69 216.77 -266.95 193.49 -256.14 171.24 C-255.81 170.54 -255.48 169.84 -255.13 169.11 C-243.01 143.63 -227.27 120.42 -208.26 99.57 C-206.37 97.49 -204.53 95.37 -202.71 93.24 C-196.1 85.66 -188.86 78.68 -181.14 72.24 C-180.6 71.78 -180.06 71.32 -179.5 70.85 C-165.81 59.37 -151.44 49.44 -136.14 40.24 C-135.39 39.75 -134.63 39.27 -133.86 38.77 C-125.54 33.49 -116.52 29.49 -107.6 25.37 C-105.58 24.44 -103.56 23.49 -101.55 22.54 C-76.38 11.14 -48.45 4.81 -21.14 1.24 C-20.5 1.15 -19.86 1.06 -19.2 0.97 C-12.8 0.18 -6.45 0.04 0 0 Z M-136.14 66.24 C-137.23 66.96 -137.23 66.96 -138.33 67.7 C-148.12 74.3 -157.3 81.42 -166.14 89.24 C-166.93 89.92 -167.72 90.59 -168.54 91.29 C-181.42 102.56 -193.7 114.7 -203.85 128.5 C-205.19 130.3 -206.58 132.06 -207.98 133.82 C-227.56 158.61 -241.89 188.13 -251.14 218.24 C-251.43 219.17 -251.72 220.1 -252.01 221.05 C-255.53 232.71 -258.04 244.27 -259.6 256.34 C-260.14 260.24 -260.14 260.24 -261.14 263.24 C-266.8 300.28 -263.73 341.62 -252.14 377.24 C-251.8 378.43 -251.46 379.62 -251.1 380.85 C-246.01 398.35 -238.72 415.18 -230.14 431.24 C-229.81 431.87 -229.48 432.51 -229.13 433.16 C-221.03 448.47 -211.31 462.99 -200.14 476.24 C-199.41 477.16 -198.68 478.07 -197.92 479.02 C-186.22 493.36 -172.94 507.07 -158.14 518.24 C-157.15 519.03 -156.15 519.82 -155.12 520.63 C-133.49 537.75 -108.29 553.19 -81.82 561.38 C-79.29 562.19 -76.9 563.14 -74.46 564.18 C-36.78 579.39 6.88 582.24 46.86 577.24 C47.88 577.11 48.9 576.99 49.96 576.86 C83.34 572.74 115.24 563.39 144.86 547.24 C145.58 546.85 146.31 546.46 147.06 546.06 C179.74 528.53 211.59 504.21 233.86 474.24 C234.72 473.11 235.58 471.98 236.44 470.84 C251.62 450.68 263.91 429.42 273.86 406.24 C274.14 405.59 274.42 404.94 274.72 404.28 C279.96 392.33 283.44 379.81 286.86 367.24 C287.12 366.28 287.38 365.32 287.65 364.33 C289.7 356.58 290.93 348.81 291.98 340.86 C292.15 339.65 292.32 338.44 292.49 337.19 C301.89 267.81 284.9 193.97 242.61 137.61 C241.14 135.7 239.66 133.8 238.17 131.9 C237.01 130.44 235.88 128.96 234.75 127.48 C221.92 110.98 206.53 94.84 189.86 82.24 C189.31 81.82 188.77 81.41 188.21 80.98 C167.52 65.25 145.72 52.48 121.86 42.24 C121.21 41.95 120.56 41.67 119.89 41.38 C107.94 36.13 95.43 32.65 82.86 29.24 C81.9 28.97 80.94 28.71 79.95 28.44 C72.2 26.39 64.43 25.16 56.48 24.11 C54.66 23.86 54.66 23.86 52.81 23.6 C-12.64 14.74 -81.11 29.3 -136.14 66.24 Z " fill="#FDFDFD" transform="translate(284.14453125,-0.23828125)"/>
<path d="M0 0 C1.28 -0.02 2.55 -0.04 3.87 -0.06 C12.77 -0.1 20.76 1.11 29.38 3.25 C31.02 3.6 32.66 3.95 34.31 4.29 C63.94 10.87 90.56 26.33 112.38 47.25 C113.19 48.02 114.01 48.78 114.85 49.57 C143.2 76.86 160.78 116.76 161.76 156.03 C161.81 159.02 161.82 162.01 161.81 165 C161.81 165.7 161.81 166.41 161.81 167.13 C161.77 180.63 160.43 193.9 156.81 206.94 C156.56 207.86 156.3 208.79 156.04 209.74 C153.14 219.71 149.05 229 144.38 238.25 C144.02 238.96 143.66 239.68 143.29 240.41 C123.11 279.74 87.98 307.61 46.34 321.29 C5.42 334.33 -39.21 330.05 -77.31 310.56 C-92.71 302.4 -106.33 292.6 -118.62 280.25 C-119.39 279.49 -119.39 279.49 -120.17 278.72 C-132.86 265.96 -142.27 251.11 -150.62 235.25 C-150.97 234.61 -151.31 233.97 -151.66 233.31 C-154.14 228.52 -156.02 223.69 -157.69 218.56 C-157.95 217.77 -158.2 216.98 -158.47 216.16 C-171.94 174.15 -168.95 129.57 -149.15 90.15 C-128.82 50.74 -93.79 21.21 -51.73 7.27 C-42.24 4.33 -32.43 2.74 -22.62 1.25 C-21.39 1.06 -20.16 0.86 -18.89 0.66 C-12.63 -0.08 -6.3 0.02 0 0 Z M-44.23 19.83 C-45.02 20.63 -45.81 21.43 -46.62 22.25 C-47.61 23.16 -48.59 24.08 -49.58 24.98 C-63.48 38.03 -73.26 54.78 -80.62 72.25 C-81.02 73.16 -81.41 74.07 -81.82 75.01 C-83.53 79.11 -84.62 81.74 -84.62 86.25 C-79.34 86.25 -74.06 86.25 -68.62 86.25 C-69.28 87.24 -69.94 88.23 -70.62 89.25 C-73.4 89.63 -75.97 89.85 -78.75 89.94 C-79.5 89.97 -80.26 90.01 -81.04 90.04 C-82.9 90.12 -84.76 90.19 -86.62 90.25 C-89.03 96.18 -90.53 101.91 -91.69 108.19 C-92.01 109.88 -92.33 111.58 -92.66 113.28 C-92.82 114.11 -92.98 114.95 -93.14 115.81 C-93.6 118.1 -94.13 120.37 -94.68 122.64 C-95.9 128.07 -96.32 133.53 -96.75 139.06 C-96.84 140.07 -96.92 141.07 -97.01 142.1 C-97.59 149.22 -97.62 156.03 -97.62 163.25 C-80.8 163.75 -80.8 163.75 -63.62 164.25 C-65.58 166.2 -69.27 165.5 -71.94 165.57 C-72.67 165.59 -73.4 165.61 -74.16 165.63 C-76.5 165.69 -78.84 165.75 -81.19 165.81 C-82.77 165.86 -84.36 165.9 -85.94 165.94 C-89.84 166.05 -93.73 166.15 -97.62 166.25 C-97.81 183.16 -96.01 199.55 -92.69 216.12 C-92.43 217.39 -92.18 218.65 -91.92 219.96 C-90.55 226.57 -88.92 232.9 -86.62 239.25 C-83 239.25 -79.37 239.25 -75.62 239.25 C-75.62 240.24 -75.62 241.23 -75.62 242.25 C-78.59 242.25 -81.56 242.25 -84.62 242.25 C-83.39 248.56 -81.68 254.1 -79 259.94 C-78.65 260.71 -78.29 261.49 -77.93 262.29 C-71.11 277.08 -62.46 290.11 -51.5 302.19 C-51.02 302.72 -50.54 303.25 -50.05 303.8 C-44.8 309.45 -39.79 313.48 -32.06 315 C-30.99 315.22 -29.91 315.44 -28.81 315.67 C-19.83 317.3 -13.46 317.25 -3.62 317.25 C-3.62 299.76 -3.62 282.27 -3.62 264.25 C-2.63 264.25 -1.64 264.25 -0.62 264.25 C-0.62 281.74 -0.62 299.23 -0.62 317.25 C23.19 317.61 23.19 317.61 43.24 306.52 C43.95 305.77 44.65 305.02 45.38 304.25 C45.98 303.72 46.58 303.19 47.2 302.64 C63.48 287.98 74.54 264.71 81.38 244.25 C81.38 243.59 81.38 242.93 81.38 242.25 C78.07 242.25 74.77 242.25 71.38 242.25 C71.38 241.26 71.38 240.27 71.38 239.25 C75 239.25 78.63 239.25 82.38 239.25 C92.79 218.41 94.18 189.16 93.38 166.25 C92.38 166.22 91.39 166.2 90.36 166.17 C86.68 166.08 83.01 165.98 79.33 165.88 C77.74 165.83 76.14 165.79 74.55 165.75 C72.26 165.7 69.98 165.63 67.69 165.57 C66.97 165.55 66.26 165.53 65.52 165.52 C60.49 165.36 60.49 165.36 59.38 164.25 C70.6 163.92 81.81 163.59 93.38 163.25 C93.38 154.01 93.02 145.27 92.12 136.12 C92.06 135.45 91.99 134.77 91.93 134.07 C90.86 123.24 89.16 112.78 86.38 102.25 C85.79 99.88 85.21 97.5 84.62 95.12 C84.01 92.71 84.01 92.71 83.38 90.25 C77.76 89.92 72.15 89.59 66.38 89.25 C66.04 88.59 65.72 87.93 65.38 87.25 C70.65 87.25 75.94 87.25 81.38 87.25 C80.55 82.28 79.4 78.44 77.38 73.94 C77.07 73.25 76.76 72.56 76.44 71.84 C70.34 58.4 63.44 45.92 54.38 34.25 C53.43 33.02 53.43 33.02 52.46 31.77 C50.54 29.45 48.53 27.35 46.38 25.25 C45.91 24.79 45.45 24.33 44.97 23.85 C31.39 10.7 17.87 11.25 -0.62 11.25 C-0.62 36.33 -0.62 61.41 -0.62 87.25 C3.67 87.58 7.95 87.91 12.38 88.25 C9.91 90.71 2.41 90.03 -0.62 90.25 C-1.12 96.19 -1.12 96.19 -1.62 102.25 C-1.95 102.25 -2.28 102.25 -2.62 102.25 C-2.95 98.29 -3.28 94.33 -3.62 90.25 C-6.56 90.03 -6.56 90.03 -9.56 89.81 C-15.5 89.38 -15.5 89.38 -16.62 88.25 C-12.33 87.92 -8.05 87.59 -3.62 87.25 C-3.62 62.17 -3.62 37.09 -3.62 11.25 C-25.52 10.37 -25.52 10.37 -44.23 19.83 Z " fill="#0C0E0F" transform="translate(302.625,135.75)"/>
<path d="M0 0 C1.87 1 3.76 1.97 5.65 2.94 C13.73 7.11 21.32 11.72 28.78 16.95 C29.91 17.73 31.04 18.51 32.18 19.29 C39.87 24.64 47.11 30.37 54.16 36.54 C55.31 37.54 56.46 38.54 57.62 39.53 C69.67 49.91 81.13 61.29 90.78 73.95 C91.97 75.45 91.97 75.45 93.18 76.98 C104.8 91.68 114.15 107.33 122.78 123.95 C123.19 124.75 123.61 125.55 124.04 126.37 C134.37 146.43 141.21 167.9 145.78 189.95 C145.96 190.81 146.14 191.66 146.33 192.54 C155.08 233.3 155.03 278.96 142.4 318.91 C141.77 320.99 141.22 323.08 140.7 325.2 C135.99 344.01 127.9 361.88 118.78 378.95 C118.28 379.9 118.28 379.9 117.77 380.87 C109.66 396.18 99.95 410.71 88.78 423.95 C88.04 424.87 87.31 425.79 86.55 426.73 C74.88 441.05 61.62 454.9 46.78 465.95 C45.33 467.06 43.87 468.17 42.42 469.27 C33.42 476.07 24.33 482.39 14.52 487.95 C12.81 488.93 11.13 489.95 9.44 490.96 C-0.41 496.81 -10.7 501.45 -21.22 505.95 C-21.93 506.25 -22.63 506.56 -23.36 506.87 C-32.14 510.6 -41 513.5 -50.22 515.95 C-51.61 516.35 -52.99 516.76 -54.38 517.17 C-68.12 521.12 -82.06 523.17 -96.22 524.95 C-97.17 525.07 -98.12 525.19 -99.09 525.32 C-141.42 530.49 -188.7 525.94 -227.75 508.03 C-230.63 506.77 -233.57 505.68 -236.52 504.58 C-243.08 502.09 -249.27 499.09 -255.47 495.83 C-256.55 495.26 -257.63 494.69 -258.75 494.11 C-272.4 486.86 -285.05 478.47 -297.22 468.95 C-298.05 468.32 -298.87 467.69 -299.72 467.04 C-316.31 454.12 -332.54 438.73 -345.22 421.95 C-345.64 421.41 -346.05 420.86 -346.48 420.3 C-363.41 398.04 -376.91 374.52 -387.21 348.5 C-388.03 346.43 -388.89 344.37 -389.75 342.31 C-408.33 297.03 -411.1 242.55 -401.22 194.95 C-401.04 193.86 -400.86 192.78 -400.68 191.65 C-392.78 145.63 -369.28 102.21 -339.22 66.95 C-338.59 66.2 -337.95 65.46 -337.3 64.69 C-326.33 52.17 -314.47 40.05 -301.22 29.95 C-300.25 29.17 -299.27 28.39 -298.27 27.58 C-266.77 2.5 -229.35 -14.97 -190.22 -24.05 C-189.46 -24.23 -188.7 -24.41 -187.91 -24.59 C-125.29 -39.11 -56.67 -30.52 0 0 Z M-177.85 -15.86 C-178.94 -15.65 -180.03 -15.44 -181.15 -15.22 C-197.24 -11.96 -213.22 -7.51 -228.27 -0.9 C-230.48 0.06 -232.69 1 -234.91 1.94 C-262.17 13.68 -287 30.2 -308.6 50.54 C-311.22 52.95 -311.22 52.95 -314.06 55.14 C-314.78 55.74 -315.49 56.34 -316.22 56.95 C-316.22 57.61 -316.22 58.27 -316.22 58.95 C-317.71 59.45 -317.71 59.45 -319.22 59.95 C-320.8 61.47 -320.8 61.47 -322.35 63.39 C-324.9 66.41 -327.51 69.32 -330.22 72.2 C-342.74 86.15 -353.05 101.66 -362.22 117.95 C-362.62 118.65 -363.01 119.34 -363.41 120.06 C-368.3 128.76 -372.51 137.68 -376.22 146.95 C-376.72 148.17 -377.21 149.39 -377.72 150.65 C-383.67 165.73 -387.86 181.24 -390.97 197.14 C-391.17 198.15 -391.37 199.15 -391.57 200.19 C-394.51 215.93 -395.61 231.52 -395.54 247.51 C-395.53 248.38 -395.53 249.25 -395.53 250.15 C-395.44 272.6 -392.63 293.52 -386.93 315.24 C-386.31 317.63 -385.71 320.03 -385.12 322.43 C-383.15 330.31 -380.5 337.53 -377.22 344.95 C-376.56 346.53 -375.91 348.11 -375.25 349.7 C-365.16 374.01 -352.37 395.23 -336.22 415.95 C-335.43 416.97 -334.64 417.99 -333.82 419.04 C-319.81 436.3 -303.43 452.2 -285.22 464.95 C-284.11 465.76 -283 466.57 -281.89 467.38 C-268.51 476.94 -254.12 485.01 -239.22 491.95 C-238.44 492.32 -237.66 492.68 -236.85 493.06 C-215.53 502.86 -193.48 509.06 -170.41 513.08 C-169.45 513.25 -168.49 513.42 -167.5 513.59 C-153.54 515.93 -139.41 516.18 -125.29 516.2 C-124.54 516.2 -123.79 516.21 -123.02 516.21 C-109.4 516.22 -95.59 515.76 -82.22 512.95 C-81.89 512.62 -81.56 512.29 -81.22 511.95 C-79.72 511.63 -78.2 511.36 -76.68 511.11 C-52.38 506.87 -29.33 498.85 -7.22 487.95 C-6.5 487.6 -5.77 487.24 -5.02 486.88 C11.43 478.77 26.51 468.45 40.78 456.95 C41.76 456.17 42.75 455.39 43.76 454.59 C58.02 442.95 71.72 429.69 82.78 414.95 C83.71 413.76 84.65 412.56 85.58 411.37 C93.1 401.68 99.69 391.59 105.78 380.95 C106.2 380.21 106.63 379.47 107.07 378.71 C142.08 316.94 149.95 242.92 131.38 174.71 C126.15 156.34 118.8 138.77 109.78 121.95 C109.42 121.28 109.05 120.61 108.68 119.91 C101.19 106.06 92.6 93.26 82.78 80.95 C82.15 80.15 81.52 79.35 80.87 78.52 C75.02 71.21 68.72 64.54 62.09 57.95 C61.56 57.42 61.03 56.9 60.49 56.35 C53.21 49.12 45.9 42.16 37.52 36.21 C35.55 34.79 33.61 33.32 31.67 31.84 C-14.05 -2.54 -70.75 -20.26 -127.66 -20.36 C-128.92 -20.37 -128.92 -20.37 -130.2 -20.37 C-146.31 -20.41 -162.03 -18.96 -177.85 -15.86 Z " fill="#0C0E0F" transform="translate(427.22314453125,52.04833984375)"/>
<path d="M0 0 C5.23 4.35 10.03 8.96 14.76 13.84 C16.22 15.33 17.69 16.82 19.15 18.31 C21.43 20.63 23.71 22.96 25.98 25.31 C28.19 27.58 30.41 29.84 32.64 32.09 C33.32 32.8 34 33.51 34.69 34.24 C35.33 34.88 35.97 35.52 36.63 36.18 C37.18 36.75 37.74 37.32 38.31 37.91 C39.94 39.19 39.94 39.19 41.96 38.9 C44.5 37.78 45.99 36.37 47.94 34.4 C48.7 33.64 49.46 32.88 50.25 32.09 C51.06 31.27 51.87 30.44 52.7 29.59 C53.54 28.75 54.38 27.91 55.24 27.04 C57.92 24.34 60.58 21.64 63.25 18.94 C65.06 17.11 66.87 15.28 68.69 13.46 C73.13 8.98 77.57 4.49 82 0 C87.41 2.54 91.13 6.72 95.33 10.9 C96.81 12.38 98.32 13.83 99.82 15.28 C100.75 16.21 101.68 17.13 102.64 18.09 C103.5 18.93 104.36 19.78 105.25 20.65 C107 23 107 23 106.83 24.9 C105.79 27.53 104.41 28.95 102.4 30.94 C101.64 31.7 100.88 32.46 100.09 33.25 C98.85 34.46 98.85 34.46 97.59 35.7 C96.75 36.54 95.91 37.38 95.04 38.24 C92.34 40.92 89.64 43.58 86.94 46.25 C85.11 48.06 83.28 49.87 81.46 51.69 C76.98 56.13 72.49 60.57 68 65 C69.42 68.23 71.11 70.34 73.64 72.79 C74.76 73.88 74.76 73.88 75.89 74.99 C76.7 75.77 77.5 76.54 78.32 77.34 C80.01 79 81.69 80.65 83.38 82.31 C86.04 84.91 88.7 87.52 91.38 90.11 C93.95 92.61 96.51 95.13 99.07 97.66 C99.88 98.43 100.69 99.21 101.52 100.01 C102.26 100.74 102.99 101.46 103.75 102.21 C104.4 102.85 105.06 103.49 105.73 104.14 C107 106 107 106 106.84 108.08 C105.53 111.07 103.4 112.93 101.09 115.2 C100.6 115.69 100.12 116.17 99.61 116.67 C98.06 118.2 96.5 119.73 94.94 121.25 C93.88 122.29 92.83 123.33 91.77 124.38 C89.19 126.92 86.6 129.46 84 132 C80.77 130.58 78.66 128.89 76.21 126.36 C75.49 125.62 74.76 124.87 74.01 124.11 C72.84 122.9 72.84 122.9 71.66 121.68 C70 119.99 68.35 118.31 66.69 116.62 C64.09 113.96 61.48 111.3 58.89 108.62 C56.39 106.05 53.87 103.49 51.34 100.93 C50.57 100.12 49.79 99.31 48.99 98.48 C48.26 97.74 47.54 97.01 46.79 96.25 C46.15 95.6 45.51 94.94 44.86 94.27 C43.1 92.8 43.1 92.8 41.01 93.07 C38.51 94.23 37 95.64 35.06 97.6 C34.3 98.36 33.54 99.12 32.75 99.91 C31.94 100.73 31.13 101.56 30.3 102.41 C29.04 103.67 29.04 103.67 27.76 104.96 C25.08 107.66 22.42 110.36 19.75 113.06 C17.94 114.89 16.13 116.72 14.31 118.54 C9.87 123.02 5.43 127.51 1 132 C-3.01 128.62 -6.92 125.2 -10.62 121.48 C-11.81 120.29 -11.81 120.29 -13.01 119.07 C-14.21 117.86 -14.21 117.86 -15.44 116.62 C-16.26 115.79 -17.09 114.96 -17.94 114.11 C-19.96 112.07 -21.98 110.04 -24 108 C-22.58 104.77 -20.87 102.63 -18.38 100.15 C-17.64 99.41 -16.9 98.67 -16.13 97.91 C-15.33 97.12 -14.53 96.33 -13.71 95.52 C-12.48 94.29 -12.48 94.29 -11.23 93.04 C-8.62 90.44 -6 87.85 -3.38 85.25 C-1.6 83.49 0.17 81.72 1.95 79.96 C6.29 75.63 10.64 71.31 15 67 C13.58 63.77 11.87 61.63 9.38 59.15 C8.64 58.41 7.9 57.67 7.13 56.91 C6.33 56.12 5.53 55.33 4.71 54.52 C3.89 53.7 3.07 52.88 2.23 52.04 C-0.38 49.44 -3 46.85 -5.62 44.25 C-7.4 42.49 -9.17 40.72 -10.95 38.96 C-15.29 34.63 -19.64 30.31 -24 26 C-22.22 22.19 -20 19.77 -16.99 16.8 C-16.51 16.31 -16.02 15.83 -15.52 15.33 C-13.98 13.8 -12.43 12.28 -10.88 10.75 C-9.82 9.71 -8.77 8.67 -7.72 7.62 C-5.15 5.08 -2.58 2.54 0 0 Z " fill="#07090A" transform="translate(259,208)"/>
<path d="M0 0 C43.89 0 87.78 0 133 0 C133 11.88 133 23.76 133 36 C89.11 36 45.22 36 0 36 C0 24.12 0 12.24 0 0 Z " fill="#0A0C0D" transform="translate(234,357)"/>
<path d="M0 0 C1.22 0.01 1.22 0.01 2.46 0.03 C3.38 0.03 4.3 0.03 5.25 0.03 C6.73 0.06 6.73 0.06 8.25 0.09 C9.77 0.1 9.77 0.1 11.33 0.11 C14.58 0.13 17.83 0.18 21.08 0.23 C23.28 0.25 25.49 0.27 27.69 0.29 C33.09 0.33 38.49 0.4 43.89 0.48 C42.85 5.73 41.8 10.99 40.67 16.22 C36.62 35.47 34.99 53.78 33.89 73.48 C15.74 73.48 -2.41 73.48 -21.11 73.48 C-21.11 58.95 -19.86 47.19 -16.11 33.48 C-15.83 32.46 -15.56 31.45 -15.27 30.4 C-13.44 24.05 -11.17 17.98 -8.54 11.92 C-8.25 11.24 -7.96 10.56 -7.66 9.86 C-3.64 0.83 -3.64 0.83 0 0 Z " fill="#FCFCFC" transform="translate(168.1071014404297,225.51898193359375)"/>
<path d="M0 0 C18.15 0 36.3 0 55 0 C55.23 4.21 55.45 8.42 55.69 12.75 C56.35 23.23 57.5 33.47 59.38 43.81 C59.57 44.9 59.77 45.99 59.97 47.11 C61.64 55.86 63.83 64.33 66 73 C50.49 73 34.98 73 19 73 C11.62 57.43 6.13 45.09 2.75 28.69 C2.48 27.47 2.21 26.26 1.94 25 C1.68 23.79 1.43 22.57 1.17 21.32 C0.95 20.25 0.72 19.18 0.49 18.08 C-0.23 12.09 0 6.03 0 0 Z " fill="#FCFCFC" transform="translate(147,302)"/>
<path d="M0 0 C6.3 -0.25 12.59 -0.43 18.9 -0.55 C21.04 -0.6 23.18 -0.67 25.32 -0.75 C43.08 -1.46 43.08 -1.46 47.68 2.03 C49.31 4.68 50.21 7 51 10 C51.51 11.18 52.02 12.36 52.54 13.58 C53.08 15.18 53.08 15.18 53.62 16.81 C54.03 18.01 54.43 19.21 54.85 20.45 C55.23 21.62 55.61 22.79 56 24 C56.35 25.02 56.7 26.03 57.06 27.08 C59.2 33.57 60.82 40.14 62.25 46.81 C62.43 47.58 62.6 48.35 62.78 49.14 C64.46 57.39 64 64.11 64 73 C46.18 73 28.36 73 10 73 C9.12 58.38 9.12 58.38 8.86 53.86 C7.87 37.86 6.34 20.89 0.55 5.83 C0 4 0 4 0 0 Z " fill="#FBFBFB" transform="translate(389,226)"/>
<path d="M0 0 C17.82 0 35.64 0 54 0 C54 15.79 54 15.79 52.97 21.01 C52.74 22.17 52.51 23.33 52.27 24.53 C52.02 25.72 51.76 26.9 51.5 28.12 C51.24 29.38 50.97 30.63 50.7 31.93 C47.41 46.72 41.77 59.46 35 73 C20.15 73 5.3 73 -10 73 C-7.76 60.71 -7.76 60.71 -6.78 56.53 C-2.41 37.51 -0.94 19.74 0 0 Z " fill="#FCFCFC" transform="translate(399,302)"/>
<path d="M0 0 C4.92 -0.43 9.23 -0.35 14 1 C17.99 4.78 20.32 9.3 22.81 14.12 C23.53 15.41 24.25 16.7 24.97 17.99 C26.38 20.5 27.77 23.03 29.14 25.57 C31.45 29.83 33.95 33.95 36.5 38.06 C38.34 41.09 39.88 43.64 41 47 C41.12 45.83 41.23 44.67 41.35 43.47 C41.78 39.15 42.22 34.82 42.65 30.5 C42.84 28.63 43.03 26.76 43.22 24.89 C43.48 22.2 43.75 19.51 44.03 16.82 C44.15 15.57 44.15 15.57 44.28 14.29 C44.61 11.04 44.96 8.11 46 5 C52.93 5.49 52.93 5.49 60 6 C59.79 8.07 59.79 8.07 59.57 10.17 C58.94 16.52 58.37 22.87 57.81 29.23 C57.7 30.46 57.59 31.68 57.48 32.95 C57.13 36.84 56.78 40.73 56.44 44.62 C56.2 47.28 55.96 49.93 55.73 52.58 C55.15 59.05 54.58 65.53 54 72 C52.75 72 51.51 71.99 50.23 71.99 C47.59 71.98 45.01 72.05 42.38 72.19 C37.59 70.5 36.81 67.77 34.64 63.34 C32.88 59.77 30.89 56.39 28.81 53 C23.4 44.08 18.2 35.04 13 26 C10.82 34.42 10.13 42.92 9.38 51.56 C9.24 53.06 9.1 54.56 8.97 56.06 C8.64 59.71 8.32 63.35 8 67 C3.16 67.04 -1.23 66.95 -6 66 C-6.12 58.98 -5.65 52.15 -4.94 45.18 C-4.83 44.07 -4.72 42.97 -4.61 41.83 C-4.38 39.5 -4.15 37.18 -3.92 34.86 C-3.56 31.31 -3.21 27.77 -2.87 24.22 C-2.64 21.95 -2.42 19.69 -2.19 17.43 C-2.09 16.37 -1.98 15.31 -1.88 14.22 C-1.39 9.45 -0.88 4.72 0 0 Z " fill="#0C0E0F" transform="translate(295,51)"/>
<path d="M0 0 C1.05 3.15 1.1 5.39 1.06 8.69 C1.05 9.68 1.04 10.68 1.04 11.7 C1.02 12.46 1.01 13.22 1 14 C4.56 11.94 4.56 11.94 7.75 9.38 C11.3 7.21 14.88 6.89 19 7 C24.28 8.73 26.78 11.67 30 16 C32.33 20.66 31.78 27.53 30.25 32.39 C29.28 34.37 28.23 36.17 27 38 C26.13 39.36 26.13 39.36 25.25 40.75 C20.86 45.14 16.3 47.23 10.06 47.31 C6.19 47.19 6.19 47.19 5 46 C4.67 47.32 4.34 48.64 4 50 C1.03 50.66 -1.94 51.32 -5 52 C-5 50.68 -5 49.36 -5 48 C-5.66 48 -6.32 48 -7 48 C-7.38 48.92 -7.38 48.92 -7.77 49.86 C-9.84 53.47 -13.18 54.65 -17 56 C-22.25 56.63 -25.56 55.86 -30 53 C-32.75 50.2 -33.91 48.61 -34.5 44.7 C-34.33 34.53 -33.35 28.51 -26 21 C-20.19 16.67 -16.18 16.61 -9 17 C-9.33 12.05 -9.66 7.1 -10 2 C-3 0 -3 0 0 0 Z " fill="#0C0E0F" transform="translate(366,476)"/>
<path d="M0 0 C5.25 4.07 7.59 8.57 9.35 14.86 C9.51 17.61 9.58 20.24 9.54 22.99 C9.53 23.69 9.53 24.39 9.53 25.12 C9.49 30.3 9.49 30.3 8.87 32.75 C8.25 35.27 8.03 37.7 7.81 40.29 C7.73 41.31 7.64 42.33 7.55 43.39 C7.46 44.45 7.37 45.52 7.29 46.61 C7.19 47.69 7.1 48.77 7.01 49.88 C6.79 52.54 6.57 55.2 6.35 57.86 C4.22 58.87 2.1 59.87 -0.03 60.86 C-1.21 61.42 -2.39 61.98 -3.61 62.55 C-6.65 63.86 -6.65 63.86 -8.65 63.86 C-8.9 54.63 -8.34 45.94 -6.65 36.86 C-7.27 37.15 -7.89 37.44 -8.52 37.74 C-14.25 40.25 -19.38 42.17 -25.65 40.86 C-32.03 38.1 -35.66 33.92 -39.4 28.18 C-41.59 22.37 -41.69 16.49 -39.21 10.74 C-35.47 4.21 -29.08 -1.51 -21.82 -3.74 C-13.84 -5.21 -6.83 -4.7 0 0 Z " fill="#0C0E0F" transform="translate(217.65234375,78.13671875)"/>
<path d="M0 0 C-0.74 0.62 -1.48 1.24 -2.24 1.88 C-22.45 19.33 -34.67 44.01 -43 69 C-58.18 69 -73.36 69 -89 69 C-87.26 64.65 -85.32 61.25 -82.62 57.5 C-82.19 56.89 -81.76 56.29 -81.31 55.66 C-76.39 48.95 -70.77 42.97 -65 37 C-64.39 36.33 -63.77 35.67 -63.14 34.98 C-52.5 23.71 -16.58 -5.53 0 0 Z " fill="#F8F8F8" transform="translate(257,154)"/>
<path d="M0 0 C14.85 0 29.7 0 45 0 C50 12 50 12 51.75 16.69 C58.75 34.12 69.73 53.46 84.76 65.15 C85.5 65.76 86.24 66.37 87 67 C87 67.66 87 68.32 87 69 C50.65 59.82 21.43 34.18 0.96 3.71 C0 2 0 2 0 0 Z " fill="#F9F9F9" transform="translate(169,378)"/>
<path d="M0 0 C22.99 6.25 42.49 19.18 60 35 C60.86 35.78 61.72 36.55 62.61 37.35 C70.06 44.44 76.07 52.63 82 61 C82.41 61.58 82.82 62.15 83.24 62.75 C86 66.75 86 66.75 86 69 C71.15 69 56.3 69 41 69 C39.68 65.04 38.36 61.08 37 57 C30.28 39.56 17.7 10.85 0 2 C0 1.34 0 0.68 0 0 Z " fill="#F9F9F9" transform="translate(346,154)"/>
<path d="M0 0 C14.52 0 29.04 0 44 0 C33.09 27.28 3.67 48.75 -21.94 61 C-22.69 61.36 -23.45 61.72 -24.23 62.1 C-29.68 64.6 -35.22 66.41 -41 68 C-35.62 61.65 -35.62 61.65 -32.95 58.84 C-22.63 47.87 -15.28 35.43 -8.9 21.87 C-8.3 20.63 -7.68 19.39 -7.03 18.17 C-3.83 12.14 -2.26 6.78 0 0 Z " fill="#F9FAFA" transform="translate(387,378)"/>
<path d="M0 0 C3.97 1.51 7.72 3.31 11.51 5.22 C12.42 5.68 12.42 5.68 13.35 6.15 C15.27 7.12 17.2 8.09 19.12 9.06 C21.67 10.35 24.21 11.63 26.76 12.91 C27.88 13.48 29.01 14.05 30.17 14.63 C32.98 16.06 32.98 16.06 36 17 C35.46 21.56 34.21 24.97 32 29 C28.34 28.41 25.43 27.39 22.14 25.71 C20.81 25.04 20.81 25.04 19.45 24.36 C18.54 23.89 17.63 23.42 16.69 22.94 C15.29 22.23 15.29 22.23 13.87 21.51 C11.57 20.34 9.29 19.17 7 18 C6.7 18.92 6.41 19.84 6.1 20.79 C4.99 24.03 3.59 26.96 2 30 C3.26 30.38 3.26 30.38 4.54 30.77 C8.33 32.12 11.8 33.79 15.38 35.62 C16.02 35.95 16.66 36.27 17.32 36.61 C18.88 37.4 20.44 38.2 22 39 C20.71 43.04 19.31 46.43 17 50 C11.55 48.32 6.74 45.89 1.71 43.24 C-0.96 41.79 -0.96 41.79 -4 42 C-5.98 46.29 -7.96 50.58 -10 55 C-8.02 55.66 -6.04 56.32 -4 57 C-2.55 57.68 -1.11 58.4 0.3 59.16 C1.05 59.56 1.8 59.96 2.57 60.38 C3.71 60.99 3.71 60.99 4.88 61.62 C5.66 62.05 6.44 62.47 7.25 62.9 C9.17 63.93 11.08 64.96 13 66 C12.28 70.12 10.98 73.3 9 77 C3.88 76.36 -0.41 74.09 -5 71.88 C-6.25 71.27 -6.25 71.27 -7.53 70.66 C-14.47 67.32 -21.27 63.76 -28 60 C-27.53 54.42 -25.9 50.37 -23.12 45.5 C-19.29 38.53 -15.77 31.45 -12.38 24.25 C-8.49 16.02 -4.46 7.93 0 0 Z " fill="#0C0E0F" transform="translate(392,70)"/>
<path d="M0 0 C0.66 0 1.32 0 2 0 C2 0.99 2 1.98 2 3 C2.59 3.26 3.17 3.53 3.78 3.8 C23.15 14.25 36.87 46.16 43 66 C43.33 67.98 43.66 69.96 44 72 C59.18 72 74.36 72 90 72 C90 72.33 90 72.66 90 73 C75.15 73 60.3 73 45 73 C46.32 77.29 47.64 81.58 49 86 C49.77 89.22 50.5 92.38 51.12 95.62 C51.29 96.47 51.45 97.32 51.62 98.2 C54.74 114.86 55 130.89 55 148 C72.82 148 90.64 148 109 148 C109 148.33 109 148.66 109 149 C91.18 149 73.36 149 55 149 C55 155.93 55 162.86 55 170 C54.21 181.73 52.08 192.87 49.5 204.31 C49.34 205 49.19 205.69 49.03 206.4 C47.66 212.43 46.3 218.24 44 224 C58.52 224 73.04 224 88 224 C87.67 224.99 87.34 225.98 87 227 C87 226.34 87 225.68 87 225 C72.48 225 57.96 225 43 225 C42.01 228.96 41.02 232.92 40 237 C38.8 239.81 37.62 242.39 36.19 245.06 C35.83 245.74 35.48 246.42 35.12 247.12 C34.41 248.47 33.7 249.82 32.98 251.16 C32.12 252.77 31.29 254.39 30.46 256.01 C24.93 266.6 18.16 276.1 10.01 284.84 C8.28 286.7 6.66 288.59 5.06 290.56 C3 293 3 293 1 294 C1 293.34 1 292.68 1 292 C-0.65 292.66 -2.3 293.32 -4 294 C-3.36 293.36 -2.72 292.72 -2.06 292.06 C-1.6 291.6 -1.14 291.13 -0.67 290.65 C0.52 289.48 1.73 288.33 2.95 287.19 C20.74 270.29 31.37 247.64 40 225 C36.7 225 33.4 225 30 225 C30 224.01 30 223.02 30 222 C33.63 221.67 37.26 221.34 41 221 C47.21 197.25 51.26 173.56 52 149 C50.52 149.02 50.52 149.02 49 149.05 C45.34 149.1 41.67 149.14 38.01 149.16 C36.42 149.18 34.84 149.2 33.25 149.23 C30.97 149.26 28.69 149.28 26.41 149.29 C25.7 149.31 24.99 149.32 24.26 149.34 C22.26 149.34 22.26 149.34 19 149 C18.34 148.01 17.68 147.02 17 146 C28.55 146 40.1 146 52 146 C51.51 140.2 51.02 134.41 50.51 128.62 C50.34 126.65 50.17 124.69 50.01 122.73 C49.06 111.21 47.68 100.08 44.92 88.84 C43.66 83.59 42.82 78.33 42 73 C36.39 73 30.78 73 25 73 C24.67 72.01 24.34 71.02 24 70 C29.28 70 34.56 70 40 70 C30.94 45.98 19.81 20.24 -1 4 C-0.67 2.68 -0.34 1.36 0 0 Z " fill="#1D1F20" transform="translate(344,153)"/>
<path d="M0 0 C4.29 2.43 8.12 5.28 12 8.31 C12.6 8.77 13.21 9.23 13.83 9.71 C23.49 17.26 23.49 17.26 24.56 23 C23.64 27.92 21.19 30.9 17.56 34.25 C12.58 37.65 8.05 38.89 2 38 C-4.42 35.92 -9.17 31.57 -14 27 C-16.73 28.26 -18.89 29.62 -21.12 31.62 C-24 34 -24 34 -26 34 C-26 34.66 -26 35.32 -26 36 C-30.25 35.53 -32.27 33.11 -35 30 C-35 29.34 -35 28.68 -35 28 C-32.97 26.28 -30.93 24.66 -28.81 23.06 C-23.81 19.22 -18.91 15.3 -14.12 11.19 C-9.54 7.27 -4.88 3.54 0 0 Z " fill="#0E1011" transform="translate(168,443)"/>
<path d="M0 0 C0.44 2.06 0.44 2.06 0 5 C-1.24 6.43 -1.24 6.43 -2.94 8 C-18.39 22.42 -27.24 44.48 -34 64 C-28.72 64 -23.44 64 -18 64 C-18.99 65.98 -18.99 65.98 -20 68 C-22.83 68.47 -25.29 68.7 -28.12 68.75 C-28.88 68.78 -29.63 68.81 -30.41 68.84 C-32.27 68.91 -34.14 68.96 -36 69 C-37.19 73.54 -38.33 78.08 -39.43 82.64 C-39.79 84.14 -40.16 85.64 -40.53 87.14 C-44.87 104.83 -45.65 122.89 -47 141 C-35.45 141 -23.9 141 -12 141 C-12.66 141.99 -13.32 142.98 -14 144 C-16.55 144.27 -18.86 144.35 -21.41 144.29 C-22.14 144.29 -22.87 144.28 -23.63 144.28 C-25.96 144.26 -28.29 144.23 -30.62 144.19 C-32.21 144.17 -33.79 144.16 -35.37 144.15 C-39.25 144.11 -43.12 144.06 -47 144 C-45.59 164.75 -43.19 184.8 -38.62 205.1 C-37.99 208.06 -37.47 211.02 -37 214 C-37.99 214.33 -38.98 214.66 -40 215 C-47.24 191.51 -50 168.56 -50 144 C-68.15 144 -86.3 144 -105 144 C-105 143.67 -105 143.34 -105 143 C-86.85 143 -68.7 143 -50 143 C-50 136.4 -50 129.8 -50 123 C-48.78 104.56 -45.86 85.58 -40 68 C-55.18 68 -70.36 68 -86 68 C-86 67.67 -86 67.34 -86 67 C-62.74 66.5 -62.74 66.5 -39 66 C-37.35 61.05 -35.7 56.1 -34 51 C-32.5 47.43 -31 43.97 -29.31 40.5 C-28.88 39.61 -28.46 38.72 -28.02 37.81 C-24.37 30.41 -9.18 0 0 0 Z " fill="#232526" transform="translate(252,158)"/>
<path d="M0 0 C3.66 2.44 6.25 4.95 8.04 9.05 C8.04 10.37 8.04 11.69 8.04 13.05 C4.58 15.06 1.12 17.06 -2.34 19.05 C-3.32 19.62 -4.31 20.2 -5.32 20.79 C-6.26 21.33 -7.2 21.87 -8.17 22.43 C-9.48 23.18 -9.48 23.18 -10.81 23.95 C-12.96 25.05 -12.96 25.05 -14.96 25.05 C-13.82 27.64 -13.82 27.64 -11.96 30.05 C-9.59 30.89 -9.59 30.89 -6.96 30.05 C-2.83 27.16 -0.29 24.59 2.04 20.05 C4.68 20.38 7.32 20.71 10.04 21.05 C9.15 28.37 5.36 33.39 -0.25 37.83 C-5.36 41.48 -10.82 42 -16.96 41.05 C-21.12 39.11 -23.91 35.57 -25.49 31.27 C-26.78 25.16 -26.81 18.69 -24.9 12.74 C-19.08 4.67 -11.14 -5.39 0 0 Z " fill="#0D0F10" transform="translate(426.9609375,463.94921875)"/>
<path d="M0 0 C1.09 5.37 2.17 10.73 3.25 16.1 C3.62 17.92 3.99 19.74 4.36 21.55 C7.28 35.98 9.96 50.42 12 65 C7.13 66.59 3.19 67.21 -2 67 C-4.56 58.33 -6.34 49.56 -8 40.69 C-8.5 38.05 -9 35.4 -9.5 32.76 C-9.74 31.48 -9.99 30.19 -10.24 28.86 C-11.22 23.9 -12.31 18.97 -13.43 14.04 C-14.2 9.93 -14.22 6.16 -14 2 C-12.61 1.66 -11.21 1.33 -9.81 1 C-8.65 0.72 -8.65 0.72 -7.46 0.44 C-4.92 -0.01 -2.57 -0.03 0 0 Z " fill="#0D0F10" transform="translate(260,56)"/>
<path d="M0 0 C6.43 1.58 11.22 4.48 16 9 C15.62 11.72 15.16 12.84 13.19 14.81 C11 16 11 16 9.06 15.94 C6.35 14.7 4.32 12.87 2 11 C-2.06 8.87 -5.46 8.82 -10 9 C-10 9.66 -10 10.32 -10 11 C-8.68 11.67 -8.68 11.67 -7.33 12.36 C-6.17 12.96 -5.01 13.56 -3.81 14.19 C-2.66 14.78 -1.52 15.37 -0.33 15.98 C3.04 18.02 5.47 19.99 8 23 C8.16 27.46 7.52 29.36 4.69 32.81 C-1.26 37.65 -6.49 37.76 -14 37 C-20.77 35.17 -27.02 31.98 -32 27 C-32 26.01 -32 25.02 -32 24 C-27.08 19.97 -27.08 19.97 -23.69 20.06 C-22 21 -22 21 -21 24 C-18.58 25.17 -18.58 25.17 -16 26 C-15.34 26.33 -14.68 26.66 -14 27 C-12.29 27.07 -10.58 27.08 -8.88 27.06 C-7.96 27.05 -7.05 27.04 -6.12 27.04 C-5.42 27.02 -4.72 27.01 -4 27 C-7.16 23.41 -11.2 21.72 -15.41 19.6 C-18.08 17.95 -19.43 16.69 -21 14 C-21.53 9.81 -21.49 7.76 -19.19 4.19 C-13.54 -1.46 -7.58 -0.66 0 0 Z " fill="#0F1112" transform="translate(249,493)"/>
<path d="M0 0 C2.46 0.78 4.61 1.62 6.84 2.9 C4.8 7.79 1.1 11.65 -2.26 15.68 C-4.94 18.98 -6.96 21.49 -7.16 25.9 C-6.34 27.9 -6.34 27.9 -4.16 28.9 C0.53 29.27 3.81 29.51 7.84 26.9 C10.13 24.45 10.13 24.45 12.34 21.59 C13.09 20.64 13.84 19.7 14.62 18.73 C15.35 17.79 16.08 16.86 16.84 15.9 C18.17 14.23 19.5 12.57 20.84 10.9 C24.24 11.96 26.85 12.91 29.84 14.9 C28.31 19.92 25.27 23.15 21.84 26.96 C20.75 28.18 19.67 29.4 18.59 30.62 C17.87 31.43 17.87 31.43 17.13 32.24 C15.73 34.03 14.79 35.84 13.84 37.9 C14.5 37.9 15.16 37.9 15.84 37.9 C14.76 40.82 14.06 42.68 11.84 44.9 C8.15 44.8 6.84 43.91 4.02 41.46 C1.84 38.9 1.84 38.9 1.84 36.9 C1.11 36.95 0.39 37 -0.36 37.04 C-6.53 37.27 -10.37 37.23 -15.16 32.9 C-18.01 30.13 -19.04 28.56 -19.79 24.65 C-18.9 19.31 -16.43 16.13 -13.16 11.9 C-12.78 11.38 -12.39 10.85 -12 10.31 C-10.74 8.61 -9.46 6.94 -8.16 5.28 C-6.96 3.71 -6.96 3.71 -5.73 2.11 C-3.16 -0.1 -3.16 -0.1 0 0 Z " fill="#0F1011" transform="translate(196.1640625,474.09765625)"/>
<path d="M0 0 C3.63 0 7.26 0 11 0 C9.81 4.74 8.29 9.35 6.73 13.98 C5.4 18.1 4.63 21.61 5 26 C6.57 27.57 8.14 27.21 10.31 27.25 C11.09 27.28 11.87 27.3 12.68 27.33 C15.71 26.9 16.86 26.22 19 24 C20.04 21.55 20.87 19.28 21.62 16.75 C21.83 16.11 22.03 15.46 22.24 14.8 C23.57 10.56 24.79 6.28 26 2 C29.63 2 33.26 2 37 2 C36.33 6.9 35.03 11.38 33.5 16.06 C32.11 20.34 30.76 24.56 30 29 C30.66 29.33 31.32 29.66 32 30 C31.34 32.31 30.68 34.62 30 37 C28.74 37.04 27.48 37.08 26.19 37.12 C25.48 37.15 24.77 37.17 24.04 37.2 C22 37 22 37 19 35 C19 34.34 19 33.68 19 33 C18.26 33.47 17.51 33.95 16.75 34.44 C12 37.13 7.44 37.61 2 37 C-1.75 35.33 -3.78 33.42 -6 30 C-8.29 20.33 -3.01 9.04 0 0 Z " fill="#0E1011" transform="translate(272,499)"/>
<path d="M0 0 C1.67 -0.04 3.33 -0.04 5 0 C6.64 1.64 6.26 3.6 6.39 5.86 C7.6 24.54 10.37 42.12 16 60 C16.21 60.69 16.42 61.38 16.63 62.08 C20.05 73.34 24.34 83.69 30 94 C30.41 94.76 30.83 95.52 31.25 96.3 C39.35 111.04 48.42 124.75 60 137 C59.34 138.32 58.68 139.64 58 141 C54.73 140.43 53.28 139.62 51.19 137.07 C50.42 136.14 50.42 136.14 49.64 135.19 C48.83 134.17 48.83 134.17 48 133.12 C47.43 132.42 46.87 131.71 46.28 130.98 C33 114.03 22.66 95.14 14.84 75.13 C14.26 73.65 13.65 72.18 13.03 70.71 C3.93 48.91 -1.09 23.66 0 0 Z " fill="#141617" transform="translate(80,305)"/>
<path d="M0 0 C0.33 0 0.66 0 1 0 C1.16 0.77 1.32 1.55 1.48 2.34 C3.82 12.78 7.29 19.65 16 26 C17.65 27.02 19.32 28.03 21 29 C21 29.33 21 29.66 21 30 C20.38 30.07 19.77 30.15 19.13 30.23 C10.37 31.59 4.06 35.03 -1.44 42.06 C-3.41 44.91 -4.96 47.67 -6 51 C-6.66 51 -7.32 51 -8 51 C-8.03 50.37 -8.05 49.74 -8.08 49.09 C-8.67 40.1 -10.78 34.74 -17.56 28.69 C-19.04 27.46 -20.52 26.23 -22 25 C-23.01 24.01 -24.02 23.02 -25 22 C-24.12 21.7 -23.24 21.39 -22.33 21.08 C-10.51 16.82 -5.39 11.06 0 0 Z " fill="#0C0E0F" transform="translate(91,239)"/>
<path d="M0 0 C2.18 2.18 2.9 3.89 4.12 6.69 C7.15 12.81 11.03 17.31 17.41 20.02 C18.93 20.52 20.47 20.99 22.02 21.39 C24 22 24 22 27 24 C26.13 24.51 26.13 24.51 25.24 25.03 C18.27 29.36 12.2 34.79 10 43 C9.57 45.99 9.25 48.99 9 52 C7 51 7 51 5.44 47.44 C2.26 40.87 -3.39 35.75 -10.19 33.06 C-13.47 32.15 -16.62 31.42 -20 31 C-17.78 28.58 -15.52 27.08 -12.69 25.44 C-6.41 21.28 -2.98 16 -1.19 8.69 C-0.7 5.79 -0.29 2.92 0 0 Z " fill="#0C0E0F" transform="translate(507,238)"/>
<path d="M0 0 C1.65 0 3.3 0 5 0 C5.76 29.05 -0.55 59.72 -14.18 85.54 C-15.43 87.91 -16.6 90.25 -17.73 92.68 C-23.29 104.55 -30.46 115.3 -38 126 C-38.52 126.75 -39.03 127.5 -39.57 128.28 C-40.04 128.85 -40.51 129.41 -41 130 C-41.66 130 -42.32 130 -43 130 C-44.26 127.88 -44.26 127.88 -45 125 C-43.73 122.72 -42.51 120.99 -40.88 119 C-28.62 102.96 -19.96 84.86 -13 66 C-12.6 64.93 -12.2 63.85 -11.79 62.75 C-4.62 42.36 -1.91 21.44 0 0 Z " fill="#151617" transform="translate(514,306)"/>
<path d="M0 0 C2.06 1.69 2.06 1.69 4 4 C4.19 6.38 4.19 6.38 3 9 C0.85 11.26 -1.41 13.26 -4 15 C-4.66 15 -5.32 15 -6 15 C-3.36 20.28 -0.72 25.56 2 31 C3.65 30.67 5.3 30.34 7 30 C8.87 26.53 8.87 26.53 10 23 C12.92 24.07 14.78 24.78 17 27 C16.52 32.78 13.93 37.39 9.81 41.38 C7.2 43.46 5.23 44.48 1.88 44.75 C-2.88 43.83 -4.39 41.8 -7 38 C-8.4 35.6 -9.62 33.14 -10.81 30.62 C-11.12 29.98 -11.44 29.34 -11.76 28.68 C-12.51 27.13 -13.26 25.56 -14 24 C-15.65 24.66 -17.3 25.32 -19 26 C-22.03 21.63 -22.03 21.63 -21.88 18.75 C-21 17 -21 17 -18 16 C-18.66 13.69 -19.32 11.38 -20 9 C-15.38 4.12 -15.38 4.12 -12 3 C-11.67 4.65 -11.34 6.3 -11 8 C-10.01 8 -9.02 8 -8 8 C-8 7.34 -8 6.68 -8 6 C-6.25 4.49 -6.25 4.49 -4 2.88 C-3.26 2.34 -2.51 1.8 -1.75 1.24 C-0.88 0.63 -0.88 0.63 0 0 Z " fill="#0F1112" transform="translate(451,437)"/>
<path d="M0 0 C7.89 3.66 14.3 10.06 20.65 15.88 C22.63 17.66 24.63 19.37 26.69 21.06 C29.83 23.73 32.48 26.69 35.14 29.83 C36.4 31.3 37.69 32.73 39.02 34.14 C53.92 49.95 79 81.4 79 104 C77.35 104 75.7 104 74 104 C73.7 103.32 73.4 102.63 73.09 101.93 C64.05 81.53 54.28 62.27 40 45 C39.13 43.93 38.26 42.85 37.39 41.78 C26.2 28.11 13.74 15.83 -1 6 C-0.67 4.02 -0.34 2.04 0 0 Z " fill="#141617" transform="translate(427,122)"/>
<path d="M0 0 C1.32 0.66 2.64 1.32 4 2 C4 2.99 4 3.98 4 5 C2.16 6.58 0.35 7.98 -1.62 9.38 C-12.06 17.09 -21.83 25.89 -30 36 C-30.89 37.05 -31.77 38.1 -32.66 39.15 C-48.06 57.63 -61.21 79.17 -69 102 C-70.98 102 -72.96 102 -75 102 C-73.19 95.43 -71.02 89.27 -68.06 83.12 C-67.48 81.91 -67.48 81.91 -66.89 80.67 C-56.11 58.71 -42 39.52 -25 22 C-24.15 21.11 -23.3 20.22 -22.42 19.3 C-15.49 12.18 -7.97 5.91 0 0 Z " fill="#141617" transform="translate(168,124)"/>
<path d="M0 0 C3.3 0 6.6 0 10 0 C9.49 13.36 7.38 27.06 4 40 C5.32 40 6.64 40 8 40 C7.67 42.97 7.34 45.94 7 49 C5.4 49.08 3.79 49.14 2.19 49.19 C0.85 49.24 0.85 49.24 -0.52 49.29 C-3 49 -3 49 -4.83 47.89 C-6.61 45.02 -6.19 42.91 -5.94 39.56 C-5.89 38.9 -5.84 38.23 -5.78 37.54 C-3.06 6.12 -3.06 6.12 0 0 Z " fill="#0E0F10" transform="translate(318,486)"/>
<path d="M0 0 C3.25 0.38 3.25 0.38 6.12 2.38 C8.37 5.54 8.93 7.5 8.68 11.38 C7.78 15.56 5.32 18.31 2.38 21.25 C-0.53 22.79 -2.52 22.79 -5.75 22.38 C-7.4 21.25 -7.4 21.25 -8.75 19.38 C-9.51 14.58 -10.12 8.79 -7.66 4.45 C-6.31 3.12 -6.31 3.12 -3.75 1.38 C-2.75 0.38 -2.75 0.38 0 0 Z " fill="#F8F8F8" transform="translate(378.75,492.625)"/>
<path d="M0 0 C2.66 2.66 2.33 4.1 2.38 7.81 C2.31 11.81 2.22 13.62 0.19 17.12 C-2.55 19.47 -4.31 20.91 -7.94 21.38 C-11 21 -11 21 -13.38 19.62 C-15.91 15.52 -15.98 11.68 -15 7 C-11.03 0.27 -7.69 -1.51 0 0 Z " fill="#F4F4F4" transform="translate(357,502)"/>
<path d="M0 0 C2.86 1.34 3.86 2.49 6 5 C6.9 9.5 6.34 11.4 4.06 15.38 C1.18 18.42 -1.74 19.09 -5.84 19.31 C-8 19 -8 19 -11 16.69 C-13.86 12.84 -14.47 10.82 -14 6 C-10.23 0.35 -6.75 -1.09 0 0 Z " fill="#F5F5F5" transform="translate(205,87)"/>
<path d="M0 0 C0.5 1.49 0.5 1.49 1 3 C4.63 3 8.26 3 12 3 C12 3.99 12 4.98 12 6 C9.03 6 6.06 6 3 6 C10.62 27.24 19.78 45.42 34 63 C32.68 63.33 31.36 63.66 30 64 C15.46 47.42 6.23 27.65 -1 7 C-15.85 6.67 -30.7 6.34 -46 6 C-46.33 6.66 -46.66 7.32 -47 8 C-47 7.01 -47 6.02 -47 5 C-24.72 4.5 -24.72 4.5 -2 4 C-1.34 2.68 -0.68 1.36 0 0 Z " fill="#1C1E1F" transform="translate(215,372)"/>
<path d="M0 0 C2.71 1.05 4.62 2.56 6.88 4.39 C7.68 5.03 8.48 5.67 9.3 6.33 C9.91 6.83 10.51 7.32 11.13 7.83 C10.82 10.2 10.82 10.2 10.13 12.83 C6.27 15.4 4.73 15.5 0.13 14.83 C-3.11 12.76 -6 10.38 -8.87 7.83 C-7.16 4.12 -4.66 -0.43 0 0 Z " fill="#F3F3F3" transform="translate(169.8671875,456.171875)"/>
<path d="M0 0 C0.95 2.54 1.1 3.71 0.18 6.3 C-0.25 7.15 -0.68 8 -1.12 8.88 C-4.3 15.44 -6.61 22.11 -9 29 C-3.72 29 1.56 29 7 29 C6.67 29.66 6.34 30.32 6 31 C0.72 30.67 -4.56 30.34 -10 30 C-12.25 23.25 -12.25 23.25 -10.77 19.91 C-10.46 19.19 -10.15 18.47 -9.83 17.72 C-9.5 16.99 -9.16 16.26 -8.81 15.5 C-8.49 14.77 -8.18 14.03 -7.85 13.28 C-6.93 11.17 -5.97 9.08 -5 7 C-4.2 5.28 -4.2 5.28 -3.39 3.53 C-2 1 -2 1 0 0 Z " fill="#1A1C1D" transform="translate(227,193)"/>
<path d="M0 0 C1.67 -0.04 3.33 -0.04 5 0 C6.68 1.68 6.23 3.82 6.32 6.13 C6.38 7.68 6.38 7.68 6.44 9.26 C6.48 10.35 6.52 11.44 6.56 12.56 C6.61 13.65 6.65 14.75 6.69 15.87 C6.8 18.58 6.9 21.29 7 24 C6.67 24 6.34 24 6 24 C5.86 22.87 5.71 21.73 5.56 20.56 C5.39 17.19 5.39 17.19 4 16 C3.67 17.65 3.34 19.3 3 21 C2.34 21 1.68 21 1 21 C-0.33 14.03 -0.09 7.07 0 0 Z " fill="#2B2D2E" transform="translate(80,305)"/>
<path d="M0 0 C0.33 0 0.66 0 1 0 C2.89 13.39 4.54 26.46 4 40 C3.67 40 3.34 40 3 40 C3 35.38 3 30.76 3 26 C2.34 26 1.68 26 1 26 C1 28.31 1 30.62 1 33 C0.67 33 0.34 33 0 33 C-0.34 29.29 -0.67 25.58 -1 21.88 C-1.1 20.83 -1.19 19.78 -1.29 18.7 C-1.72 13.79 -2.14 8.94 -2 4 C-1.34 4 -0.68 4 0 4 C0 2.68 0 1.36 0 0 Z " fill="#353738" transform="translate(395,254)"/>
<path d="M0 0 C0.33 0 0.66 0 1 0 C1.2 9.37 1.13 18.61 0.12 27.94 C0.05 28.7 -0.03 29.46 -0.11 30.25 C-0.54 33.86 -0.95 35.93 -3 39 C-3.33 38.67 -3.66 38.34 -4 38 C-4.66 38.99 -5.32 39.98 -6 41 C-5.69 38.15 -5.38 35.29 -5.06 32.44 C-4.98 31.64 -4.89 30.84 -4.8 30.01 C-4.28 25.33 -3.69 20.66 -3 16 C-2.34 16 -1.68 16 -1 16 C-0.67 10.72 -0.34 5.44 0 0 Z " fill="#2D2F30" transform="translate(398,305)"/>
<path d="M0 0 C0.33 0.66 0.66 1.32 1 2 C-0.96 3.17 -2.91 4.34 -4.88 5.5 C-5.97 6.15 -7.06 6.8 -8.18 7.47 C-11 9 -11 9 -13 9 C-12.43 5.12 -10.57 2.88 -8 0 C-5.1 -1.45 -3.09 -0.72 0 0 Z " fill="#DFDFDF" transform="translate(423,473)"/>
<path d="M0 0 C0.66 0.33 1.32 0.66 2 1 C-5.92 8.92 -13.84 16.84 -22 25 C-22.66 24.67 -23.32 24.34 -24 24 C-9.64 8.3 -9.64 8.3 -2 2 C-1.34 1.34 -0.68 0.68 0 0 Z " fill="#DDDEDE" transform="translate(161,136)"/>
<path d="M0 0 C0.66 0.33 1.32 0.66 2 1 C-6.25 9.25 -14.5 17.5 -23 26 C-23.66 25.67 -24.32 25.34 -25 25 C-24.45 24.46 -23.89 23.91 -23.32 23.36 C-22.6 22.64 -21.87 21.92 -21.12 21.19 C-20.41 20.48 -19.69 19.77 -18.95 19.04 C-16.85 16.96 -16.85 16.96 -15 14 C-14.34 14 -13.68 14 -13 14 C-13 13.34 -13 12.68 -13 12 C-11.43 10.45 -11.43 10.45 -9.31 8.69 C-6.05 5.92 -2.98 3.07 0 0 Z " fill="#E4E4E4" transform="translate(124,97)"/>
<path d="M0 0 C0.99 0 1.98 0 3 0 C2.5 3.75 1.92 7.33 1 11 C6.28 11 11.56 11 17 11 C16.67 11.66 16.34 12.32 16 13 C10.72 12.67 5.44 12.34 0 12 C-2.25 5.25 -2.25 5.25 0 0 Z " fill="#4B4C4D" transform="translate(217,211)"/>
<path d="M0 0 C-0.37 2.72 -0.73 4.61 -2.31 6.88 C-4 8 -4 8 -6.19 7.69 C-6.79 7.46 -7.38 7.23 -8 7 C-8 6.01 -8 5.02 -8 4 C-3.77 0 -3.77 0 0 0 Z " fill="#161819" transform="translate(436,435)"/>
<path d="M0 0 C1.45 0.03 1.45 0.03 2.94 0.06 C2.94 0.39 2.94 0.72 2.94 1.06 C1.58 1.43 1.58 1.43 0.19 1.81 C-3.32 3.16 -4.74 4.15 -7.06 7.06 C-7.76 10.09 -7.76 10.09 -7.81 13.31 C-7.87 14.39 -7.93 15.47 -7.98 16.58 C-8.01 17.4 -8.04 18.22 -8.06 19.06 C-8.39 19.06 -8.72 19.06 -9.06 19.06 C-9.83 7.44 -9.83 7.44 -7.98 4.12 C-6.62 2.81 -6.62 2.81 -4.06 1.06 C-3.06 0.06 -3.06 0.06 0 0 Z " fill="#C4C4C4" transform="translate(379.0625,492.9375)"/>
<path d="M0 0 C0.99 0.33 1.98 0.66 3 1 C3 2.32 3 3.64 3 5 C2.34 5 1.68 5 1 5 C0.34 6.32 -0.32 7.64 -1 9 C-3 6 -3 6 -2.75 3.38 C-2.5 2.59 -2.25 1.81 -2 1 C-1.34 0.67 -0.68 0.34 0 0 Z " fill="#262829" transform="translate(87,340)"/>
<path d="M0 0 C4.43 5.14 4.43 5.14 5 9 C3.35 8.67 1.7 8.34 0 8 C-0.66 5.69 -1.32 3.38 -2 1 C-1.34 0.67 -0.68 0.34 0 0 Z " fill="#313334" transform="translate(374,192)"/>
<path d="M0 0 C-0.33 4.29 -0.66 8.58 -1 13 C-3 11 -3 11 -3.2 8.62 C-3.17 7.71 -3.15 6.81 -3.12 5.88 C-3.11 4.96 -3.09 4.05 -3.07 3.12 C-3.05 2.42 -3.02 1.72 -3 1 C-1 0 -1 0 0 0 Z " fill="#121415" transform="translate(209,250)"/>
<path d="M0 0 C0.33 0.66 0.66 1.32 1 2 C1.99 1.67 2.98 1.34 4 1 C3.4 3.35 2.73 5.69 2 8 C1.01 8.5 1.01 8.5 0 9 C-0.66 8.67 -1.32 8.34 -2 8 C-1.48 5.24 -0.89 2.67 0 0 Z " fill="#363839" transform="translate(380,387)"/>
<path d="M0 0 C0.33 0 0.66 0 1 0 C1.29 8.57 1.29 8.57 -1 12 C-2 11 -2 11 -2.19 7.69 C-2.02 4.35 -1.76 2.74 0 0 Z " fill="#0C0E0F" transform="translate(394,342)"/>
<path d="M0 0 C1.77 0.11 3.54 0.24 5.31 0.38 C6.79 0.48 6.79 0.48 8.3 0.59 C11 1 11 1 14 3 C12.04 3.08 10.08 3.14 8.12 3.19 C6.49 3.24 6.49 3.24 4.82 3.29 C3.89 3.2 2.96 3.1 2 3 C1.34 2.01 0.68 1.02 0 0 Z " fill="#222425" transform="translate(285,223)"/>
<path d="M0 0 C0.66 1.32 1.32 2.64 2 4 C0.35 5.65 -1.3 7.3 -3 9 C-4.32 8.34 -5.64 7.68 -7 7 C-6.22 6.59 -5.43 6.18 -4.62 5.75 C-1.94 3.96 -1.12 2.95 0 0 Z " fill="#B5B6B6" transform="translate(436,436)"/>
<path d="M0 0 C2.33 3.63 2.16 6.77 2 11 C1.34 10.34 0.68 9.68 0 9 C-0.66 9.99 -1.32 10.98 -2 12 C-1.45 7.97 -0.84 3.98 0 0 Z " fill="#323435" transform="translate(391,349)"/>
<path d="M0 0 C0.33 0.66 0.66 1.32 1 2 C1.99 1.67 2.98 1.34 4 1 C2.88 3.97 1.78 6.33 0 9 C0 8.34 0 7.68 0 7 C-0.66 7 -1.32 7 -2 7 C-1.34 4.69 -0.68 2.38 0 0 Z " fill="#323434" transform="translate(220,204)"/>
<path d="M0 0 C0.66 0.33 1.32 0.66 2 1 C0.68 1.33 -0.64 1.66 -2 2 C-2.33 3.65 -2.66 5.3 -3 7 C-4.65 6.01 -6.3 5.02 -8 4 C-5.31 2.21 -3.05 1.02 0 0 Z " fill="#303233" transform="translate(74,258)"/>
<path d="M0 0 C0.33 0 0.66 0 1 0 C1 2.64 1 5.28 1 8 C0.01 8.33 -0.98 8.66 -2 9 C-3 6 -3 6 -1.56 2.81 C-1.05 1.88 -0.53 0.96 0 0 Z " fill="#212223" transform="translate(91,239)"/>
<path d="M0 0 C2.95 2.95 3.09 5.96 4 10 C0.69 8.35 -0.45 5.2 -2 2 C-1.34 2 -0.68 2 0 2 C0 1.34 0 0.68 0 0 Z " fill="#393B3C" transform="translate(383,211)"/>
<path d="M0 0 C2.73 4.09 2.73 4.09 3 7 C1.56 8.75 1.56 8.75 0 10 C-1.12 6.69 -1.12 6.69 -2 3 C-1.34 2.01 -0.68 1.02 0 0 Z " fill="#343637" transform="translate(221,389)"/>
<path d="M0 0 C0.99 0 1.98 0 3 0 C2.67 1.65 2.34 3.3 2 5 C1.01 5.33 0.02 5.66 -1 6 C-0.67 4.02 -0.34 2.04 0 0 Z " fill="#181A1A" transform="translate(377,395)"/>
<path d="M0 0 C0.33 0.99 0.66 1.98 1 3 C1.66 3 2.32 3 3 3 C3.33 2.34 3.66 1.68 4 1 C3.67 3.64 3.34 6.28 3 9 C1.5 7.88 1.5 7.88 0 6 C-0.19 2.81 -0.19 2.81 0 0 Z " fill="#515353" transform="translate(207,245)"/>
<path d="M0 0 C0.99 0 1.98 0 3 0 C2.69 0.54 2.38 1.07 2.06 1.62 C0.82 4.4 0.41 7 0 10 C-0.33 10 -0.66 10 -1 10 C-1.12 2.25 -1.12 2.25 0 0 Z " fill="#353738" transform="translate(318,486)"/>
</svg>
