<?xml version="1.0" encoding="UTF-8"?>
<!-- Generator: https://ezgif.com/png-to-svg -->
<svg version="1.1" xmlns="http://www.w3.org/2000/svg" width="512" height="512" viewBox="-36.035 -84.343 672.627 672.627" preserveAspectRatio="xMidYMid meet">
<path d="M0 0 C5.49 0.62 8.2 3.15 12.34 6.64 C13.94 7.93 15.54 9.23 17.14 10.52 C17.94 11.18 18.75 11.84 19.58 12.52 C23.17 15.43 26.84 18.22 30.52 21.01 C31.94 22.09 33.35 23.17 34.76 24.25 C35.81 25.04 35.81 25.04 36.87 25.85 C39.63 27.96 42.38 30.06 45.13 32.17 C52.32 37.67 59.51 43.16 66.71 48.64 C72.3 52.9 77.89 57.16 83.46 61.45 C87.25 64.37 91.05 67.28 94.86 70.19 C96.18 71.2 96.18 71.2 97.53 72.24 C99.36 73.63 101.19 75 103.04 76.37 C107.3 79.54 111.3 82.67 114.99 86.5 C118.57 90.06 121.9 93.34 126.96 94.45 C134.69 93.6 141.69 89.56 148.54 86.11 C154.15 83.39 159.96 81.2 165.77 78.95 C168.27 77.96 170.76 76.96 173.25 75.96 C173.91 75.7 174.58 75.44 175.26 75.16 C181.36 72.71 187.43 70.2 193.51 67.68 C195.53 66.85 197.54 66.02 199.56 65.19 C203.54 63.55 207.51 61.9 211.49 60.24 C213.32 59.48 215.16 58.72 217 57.96 C217.85 57.61 218.69 57.25 219.57 56.89 C220.35 56.57 221.14 56.24 221.94 55.91 C222.63 55.63 223.31 55.34 224.01 55.05 C225.96 54.45 225.96 54.45 229.96 54.45 C228.4 59.67 226.14 64.36 223.69 69.21 C223.27 70.07 222.84 70.93 222.39 71.81 C220.98 74.64 219.56 77.46 218.14 80.29 C217.16 82.25 216.17 84.21 215.19 86.18 C212.61 91.34 210.02 96.5 207.43 101.65 C204.78 106.92 202.14 112.19 199.5 117.46 C194.33 127.79 189.15 138.12 183.96 148.45 C185.86 150.04 187.76 151.64 189.67 153.23 C190.2 153.67 190.73 154.12 191.28 154.58 C195.75 158.32 200.36 161.8 205.09 165.2 C211.44 169.83 217.71 174.54 223.9 179.39 C230.19 184.32 236.55 189.17 242.96 193.95 C250.33 199.45 257.63 205.03 264.88 210.71 C265.9 211.51 265.9 211.51 266.95 212.33 C267.6 212.85 268.26 213.36 268.94 213.9 C271.69 216.01 274.49 218.05 277.31 220.07 C279.72 222.08 280.87 223.82 281.33 226.94 C281.35 227.87 281.38 228.8 281.4 229.76 C281.44 230.69 281.48 231.61 281.52 232.56 C280.3 238.86 274.85 242.56 269.96 246.2 C268.79 247.08 267.63 247.95 266.46 248.83 C265.87 249.27 265.29 249.71 264.68 250.16 C262.09 252.11 259.52 254.09 256.96 256.07 C250.32 261.19 243.64 266.27 236.97 271.35 C231.38 275.6 225.79 279.87 220.21 284.14 C219.52 284.66 218.83 285.19 218.12 285.73 C216.07 287.3 214.02 288.88 211.96 290.45 C201.9 298.15 191.84 305.83 181.76 313.51 C176.32 317.65 170.89 321.8 165.46 325.95 C157.43 332.09 149.4 338.22 141.36 344.34 C137.79 347.06 134.22 349.78 130.66 352.5 C122.06 359.06 113.44 365.6 104.77 372.07 C97.72 377.34 90.75 382.69 83.81 388.11 C75.5 394.6 67.11 400.98 58.71 407.36 C55.83 409.55 52.95 411.75 50.07 413.95 C48.63 415.05 48.63 415.05 47.16 416.17 C45.31 417.58 43.47 418.99 41.62 420.4 C40.79 421.03 39.96 421.66 39.11 422.32 C38.38 422.87 37.65 423.43 36.9 424.01 C32.94 426.96 30.93 428.05 25.96 427.45 C23.26 425.65 21.42 424.37 19.96 421.45 C19.34 415.82 21.2 411.97 23.58 407.04 C23.96 406.23 24.33 405.43 24.72 404.6 C25.94 402 27.17 399.41 28.4 396.82 C29.23 395.05 30.06 393.28 30.89 391.51 C32.51 388.05 34.14 384.59 35.77 381.13 C38.44 375.45 41.03 369.74 43.59 364.01 C43.94 363.21 44.3 362.41 44.67 361.58 C45.44 359.87 46.2 358.16 46.96 356.45 C45.98 356.9 45 357.35 43.99 357.82 C17.13 370.11 -10.25 381.28 -37.46 392.75 C-60.05 402.28 -82.6 411.9 -105.14 421.51 C-115.32 425.85 -125.5 430.18 -135.68 434.52 C-141.28 436.9 -146.88 439.29 -152.48 441.68 C-153.6 442.15 -154.71 442.62 -155.85 443.11 C-162.74 446.04 -169.63 448.98 -176.52 451.92 C-215.59 468.56 -215.59 468.56 -230.91 475.07 C-231.76 475.43 -232.61 475.79 -233.48 476.17 C-237.54 477.89 -241.61 479.62 -245.68 481.34 C-253.25 484.55 -260.82 487.78 -268.37 491.05 C-272.09 492.65 -275.81 494.25 -279.54 495.85 C-281.31 496.62 -283.09 497.39 -284.86 498.16 C-287.31 499.22 -289.76 500.28 -292.21 501.33 C-293.29 501.8 -293.29 501.8 -294.39 502.29 C-298.07 503.86 -301.02 504.84 -305.04 504.45 C-303.77 500.4 -302.27 496.66 -300.37 492.87 C-299.83 491.78 -299.29 490.7 -298.73 489.58 C-297.84 487.82 -297.84 487.82 -296.94 486.02 C-296.31 484.76 -295.68 483.49 -295.04 482.23 C-293.34 478.82 -291.63 475.41 -289.91 471.99 C-288.12 468.42 -286.33 464.85 -284.55 461.28 C-281.17 454.52 -277.78 447.76 -274.39 441.01 C-270.53 433.31 -266.68 425.62 -262.83 417.92 C-254.9 402.1 -246.97 386.27 -239.04 370.45 C-240.49 371.06 -240.49 371.06 -241.98 371.68 C-278.47 386.92 -278.47 386.92 -295.59 393.84 C-298.29 394.94 -300.99 396.04 -303.69 397.14 C-305.43 397.85 -307.18 398.55 -308.92 399.26 C-309.72 399.58 -310.51 399.91 -311.33 400.24 C-316.81 402.45 -316.81 402.45 -319.04 402.45 C-318.48 397.12 -316.65 393.1 -314.26 388.39 C-313.86 387.6 -313.47 386.81 -313.06 385.99 C-311.74 383.33 -310.41 380.68 -309.07 378.03 C-308.12 376.12 -307.17 374.22 -306.22 372.31 C-303.64 367.13 -301.04 361.96 -298.45 356.79 C-295.72 351.37 -293.01 345.94 -290.3 340.51 C-285.73 331.38 -281.16 322.26 -276.59 313.14 C-271.32 302.62 -266.05 292.11 -260.79 281.59 C-255.18 270.36 -249.56 259.13 -243.94 247.91 C-242.33 244.69 -240.72 241.47 -239.11 238.26 C-236.57 233.17 -234.02 228.09 -231.47 223 C-230.54 221.15 -229.61 219.3 -228.68 217.44 C-224.34 208.76 -219.96 200.13 -215.24 191.65 C-214.9 191.02 -214.55 190.39 -214.19 189.74 C-206.12 175.44 -194.19 164.48 -179.3 157.64 C-178.56 157.3 -177.83 156.96 -177.07 156.61 C-169.35 153.07 -161.5 149.87 -153.61 146.73 C-149.98 145.28 -146.36 143.82 -142.74 142.36 C-140.8 141.58 -138.87 140.81 -136.94 140.03 C-125.93 135.61 -114.96 131.12 -103.98 126.64 C-101.91 125.79 -99.85 124.95 -97.78 124.11 C-89.47 120.71 -81.16 117.32 -72.85 113.92 C-43.58 101.96 -14.31 90 15.04 78.23 C16.65 77.58 18.24 76.9 19.84 76.22 C21.96 75.45 21.96 75.45 24.96 75.45 C24.55 74.57 24.15 73.68 23.73 72.78 C19.93 64.52 16.15 56.26 12.39 47.99 C10.5 43.83 8.61 39.68 6.7 35.54 C4.9 31.63 3.12 27.72 1.35 23.8 C0.68 22.32 -0 20.84 -0.69 19.36 C-1.65 17.3 -2.58 15.22 -3.52 13.14 C-4.05 11.97 -4.59 10.79 -5.14 9.58 C-6.04 6.45 -6.04 6.45 -5.26 3.59 C-3.51 0.52 -3.51 0.52 0 0 Z " fill="#FDFDFD" transform="translate(319.0390625,-0.44921875)"/>
<path d="M0 0 C-1.81 4.86 -4.14 9.43 -6.46 14.05 C-7.15 15.42 -7.15 15.42 -7.85 16.82 C-9.38 19.89 -10.91 22.95 -12.44 26.01 C-13.54 28.21 -14.64 30.41 -15.73 32.6 C-18.41 37.95 -21.08 43.3 -23.76 48.66 C-25.94 53.01 -28.12 57.37 -30.3 61.73 C-30.76 62.66 -30.76 62.66 -31.24 63.61 C-31.87 64.87 -32.5 66.13 -33.13 67.4 C-39.05 79.24 -44.97 91.08 -50.89 102.92 C-55.96 113.04 -61.02 123.16 -66.08 133.28 C-71.96 145.06 -77.85 156.84 -83.74 168.61 C-84.37 169.88 -85 171.14 -85.63 172.4 C-85.94 173.02 -86.25 173.64 -86.57 174.28 C-88.74 178.62 -90.91 182.95 -93.08 187.29 C-96.01 193.16 -98.95 199.03 -101.88 204.9 C-102.95 207.04 -104.02 209.18 -105.09 211.32 C-111.26 223.66 -117.53 235.92 -124 248.11 C-125.37 250.71 -126.72 253.32 -128.06 255.94 C-148.83 293.62 -185.99 307.58 -223.53 323.19 C-233.25 327.23 -242.9 331.43 -252.51 335.75 C-253.47 336.18 -254.44 336.61 -255.43 337.05 C-256.69 337.62 -256.69 337.62 -257.97 338.2 C-260 339 -260 339 -262 339 C-260.3 334.48 -258.17 330.21 -256 325.9 C-255.4 324.7 -255.4 324.7 -254.78 323.47 C-253.91 321.73 -253.04 319.99 -252.16 318.25 C-250.77 315.47 -249.37 312.69 -247.98 309.91 C-244.51 302.99 -241.04 296.07 -237.57 289.15 C-234.18 282.4 -230.79 275.64 -227.41 268.88 C-226.94 267.95 -226.48 267.02 -225.99 266.06 C-220.3 254.68 -214.64 243.3 -209.23 231.78 C-205.97 224.84 -202.42 218.05 -198.78 211.3 C-197.48 208.88 -196.22 206.46 -195 204 C-196.17 204.52 -197.35 205.05 -198.55 205.59 C-213.9 212.38 -229.43 218.68 -245 224.93 C-245.87 225.29 -246.75 225.64 -247.65 226 C-249.37 226.69 -251.09 227.38 -252.81 228.07 C-256.66 229.62 -260.49 231.2 -264.28 232.88 C-264.93 233.17 -265.58 233.46 -266.25 233.76 C-267.96 234.52 -269.66 235.3 -271.36 236.08 C-274 237 -274 237 -277 236 C-268.01 217.9 -259 199.8 -249.98 181.71 C-245.79 173.3 -241.61 164.9 -237.44 156.49 C-233.79 149.16 -230.15 141.83 -226.49 134.51 C-224.56 130.64 -222.63 126.76 -220.7 122.88 C-218.89 119.22 -217.07 115.57 -215.24 111.91 C-214.57 110.58 -213.91 109.24 -213.25 107.91 C-204.13 89.42 -193.1 77.65 -173.7 70.06 C-170.97 68.99 -168.27 67.89 -165.56 66.78 C-164.65 66.41 -163.73 66.03 -162.79 65.64 C-161.87 65.27 -160.95 64.89 -160 64.5 C-141.01 56.71 -141.01 56.71 -132.84 53.72 C-127.47 51.76 -122.23 49.75 -117.18 47.06 C-112.27 44.67 -107.11 42.79 -102.03 40.8 C-92.69 37.12 -83.4 33.3 -74.12 29.49 C-61.31 24.23 -48.51 18.97 -35.69 13.75 C-34.11 13.11 -34.11 13.11 -32.5 12.45 C-27.9 10.58 -23.29 8.71 -18.68 6.88 C-13.91 4.97 -9.19 2.97 -4.47 0.95 C-2 0 -2 0 0 0 Z " fill="#010101" transform="translate(336,109)"/>
<path d="M0 0 C-1.26 3.97 -2.71 7.68 -4.55 11.42 C-5.06 12.45 -5.56 13.49 -6.09 14.55 C-6.64 15.66 -7.18 16.77 -7.75 17.91 C-8.61 19.64 -8.61 19.64 -9.49 21.41 C-10.7 23.86 -11.92 26.31 -13.14 28.75 C-14.37 31.23 -15.6 33.72 -16.82 36.2 C-25 52.87 -33.12 67.97 -45.85 81.64 C-48.02 84.02 -50.01 86.47 -52 89 C-55.42 93.34 -59.06 97.42 -62.78 101.5 C-64.95 103.94 -66.98 106.44 -69 109 C-71.7 112.43 -74.5 115.71 -77.44 118.94 C-81.29 123.17 -84.93 127.53 -88.52 131.98 C-91.95 136.16 -95.48 140.24 -99.01 144.32 C-101.17 146.81 -103.17 149.25 -105 152 C-103.85 151.49 -102.7 150.97 -101.52 150.45 C-87.53 144.26 -73.4 138.42 -59.25 132.62 C-58.29 132.23 -57.32 131.83 -56.33 131.43 C-36.13 123.15 -36.13 123.15 -27 120 C-28.25 123.95 -29.68 127.64 -31.5 131.36 C-32 132.38 -32.5 133.4 -33.01 134.45 C-33.55 135.54 -34.08 136.63 -34.64 137.75 C-35.19 138.88 -35.75 140.01 -36.33 141.18 C-37.51 143.57 -38.69 145.95 -39.87 148.34 C-41.38 151.38 -42.87 154.43 -44.36 157.48 C-45.79 160.41 -47.25 163.33 -48.7 166.25 C-49.23 167.34 -49.75 168.43 -50.29 169.55 C-55.54 179.97 -61.17 184.16 -71.89 188.35 C-72.82 188.73 -73.76 189.11 -74.73 189.5 C-77.71 190.7 -80.7 191.88 -83.69 193.06 C-85.67 193.86 -87.66 194.66 -89.65 195.46 C-93.33 196.94 -97.02 198.41 -100.71 199.88 C-105.48 201.78 -110.23 203.76 -114.97 205.74 C-119.89 207.79 -124.83 209.78 -129.77 211.77 C-130.86 212.2 -131.94 212.64 -133.06 213.09 C-136.5 214.48 -139.94 215.86 -143.38 217.25 C-170.87 228.29 -170.87 228.29 -198.25 239.62 C-204.13 242.09 -210.08 244.39 -216.04 246.68 C-220.07 248.21 -220.07 248.21 -224 250 C-223.4 246.33 -222.38 243.37 -220.73 240.05 C-220.26 239.09 -219.79 238.13 -219.31 237.14 C-218.79 236.12 -218.28 235.09 -217.75 234.03 C-217.22 232.96 -216.69 231.89 -216.14 230.78 C-215.01 228.51 -213.87 226.24 -212.74 223.97 C-211.02 220.55 -209.33 217.11 -207.63 213.67 C-200.45 199.24 -193.28 186.3 -182.24 174.45 C-179.95 171.95 -177.81 169.38 -175.69 166.75 C-172.25 162.51 -168.75 158.33 -165.19 154.19 C-164.68 153.6 -164.18 153.01 -163.66 152.41 C-161.59 150 -159.51 147.6 -157.44 145.19 C-155.9 143.4 -154.35 141.61 -152.81 139.81 C-152.31 139.23 -151.81 138.65 -151.3 138.05 C-148.25 134.49 -145.26 130.89 -142.31 127.25 C-138.72 122.83 -134.98 118.57 -131.14 114.36 C-129.1 112.11 -127.07 109.84 -125.06 107.56 C-124.24 106.64 -124.24 106.64 -123.41 105.69 C-121.82 103.84 -121.82 103.84 -120 101 C-121.03 101.43 -122.06 101.86 -123.11 102.3 C-132.63 106.26 -132.63 106.26 -142.15 110.23 C-142.95 110.56 -143.74 110.89 -144.56 111.23 C-146.15 111.9 -147.75 112.56 -149.34 113.22 C-152.75 114.65 -156.16 116.07 -159.57 117.49 C-165.03 119.77 -170.51 122.04 -176 124.25 C-176.63 124.51 -177.26 124.76 -177.9 125.02 C-180.91 126.23 -183.85 127.26 -187 128 C-181 115.23 -174.9 102.53 -168.62 89.9 C-167.7 88.03 -166.77 86.15 -165.85 84.28 C-164.5 81.52 -163.14 78.76 -161.77 76.01 C-161.36 75.17 -160.96 74.34 -160.54 73.48 C-152.75 57.97 -135.13 53.9 -119.95 47.91 C-114.38 45.72 -108.82 43.5 -103.26 41.29 C-101.59 40.62 -101.59 40.62 -99.87 39.94 C-87.61 35.06 -75.41 30.05 -63.21 25.03 C-62.45 24.71 -61.7 24.4 -60.92 24.08 C-59.55 23.52 -58.17 22.95 -56.8 22.38 C-53.25 20.91 -49.68 19.47 -46.11 18.04 C-41.24 16.1 -36.4 14.11 -31.56 12.11 C-29.83 11.39 -28.09 10.68 -26.36 9.96 C-23.66 8.85 -20.96 7.73 -18.26 6.62 C-15.64 5.53 -13.01 4.44 -10.38 3.36 C-9.56 3.02 -8.75 2.68 -7.92 2.34 C-2.23 0 -2.23 0 0 0 Z " fill="#020202" transform="translate(489,109)"/>
<path d="M0 0 C3.67 0.43 5.9 1.35 8.76 3.67 C9.46 4.22 10.15 4.78 10.87 5.35 C11.62 5.96 12.36 6.56 13.12 7.19 C14.74 8.47 16.36 9.76 17.98 11.04 C18.81 11.7 19.64 12.36 20.49 13.04 C24.43 16.12 28.46 19.06 32.5 22 C39.01 26.76 45.45 31.61 51.81 36.56 C52.55 37.13 53.28 37.71 54.04 38.29 C58.09 41.46 62.07 44.69 66 48 C65.2 54.61 60.99 57.04 56 61 C52.14 63.98 48.22 66.9 44.3 69.8 C40.76 72.42 37.26 75.08 33.78 77.77 C30.95 79.94 28.12 82.1 25.29 84.25 C23.68 85.48 22.08 86.71 20.48 87.94 C17.91 89.91 15.33 91.86 12.75 93.81 C11.95 94.43 11.15 95.05 10.33 95.68 C9.2 96.53 9.2 96.53 8.05 97.39 C7.05 98.15 7.05 98.15 6.04 98.92 C3.55 100.24 1.78 100.2 -1 100 C-1.75 97.88 -1.75 97.88 -2 95 C-0.34 92.12 -0.34 92.12 2.06 89 C13.23 73.79 16.89 57.65 15 39 C13 27.99 7.55 16.83 0 8.56 C-2 6 -2 6 -1.88 3.19 C-1 1 -1 1 0 0 Z " fill="#040404" transform="translate(502,180)"/>
<path d="M0 0 C-1.54 2.94 -3.08 5.88 -4.62 8.81 C-5.05 9.63 -5.48 10.44 -5.92 11.28 C-6.81 12.97 -7.71 14.66 -8.62 16.34 C-10.05 18.99 -10.05 18.99 -11.16 21.86 C-14.19 28.76 -17.92 31.69 -24.74 34.48 C-26.71 35.24 -28.7 35.96 -30.69 36.69 C-32.03 37.21 -33.38 37.74 -34.72 38.27 C-44.3 42 -44.3 42 -48 42 C-45.99 35.73 -43.37 29.88 -40.56 23.94 C-40.09 22.86 -39.62 21.79 -39.13 20.68 C-35.85 13.81 -33.06 10.62 -25.88 7.97 C-24.93 7.65 -23.98 7.33 -23 7 C-21.21 6.25 -19.43 5.5 -17.66 4.73 C-15.94 4.02 -14.22 3.32 -12.5 2.62 C-11.62 2.26 -10.74 1.89 -9.84 1.51 C-8.99 1.17 -8.15 0.83 -7.28 0.48 C-6.53 0.17 -5.78 -0.14 -5 -0.46 C-3 -1 -3 -1 0 0 Z " fill="#F8F8F8" transform="translate(209,215)"/>
</svg>
