<?xml version="1.0" encoding="UTF-8"?>
<!-- Generator: https://ezgif.com/webp-to-svg -->
<svg version="1.1" xmlns="http://www.w3.org/2000/svg" width="100" height="100">
<path d="M0 0 C13.16 0.64 22.11 5.75 31.69 14.44 C40.22 23.89 44.44 33.15 45 46 C45.9 46.06 45.9 46.06 46.83 46.11 C54.77 46.77 54.77 46.77 58 50 C57.67 50.99 57.34 51.98 57 53 C54.03 53 51.06 53 48 53 C48.33 53.66 48.66 54.32 49 55 C49.04 57.33 49.04 59.67 49 62 C51.31 62 53.62 62 56 62 C56 63.32 56 64.64 56 66 C55.47 66.12 54.93 66.25 54.38 66.38 C47.25 68.35 42.57 72.26 37 77 C32.15 80.84 27.19 82.73 21 83 C18.7 82.04 18.7 82.04 17 81 C19.07 85.7 21.49 88.82 25.19 92.38 C26.09 93.25 26.99 94.12 27.92 95.02 C28.95 96 28.95 96 30 97 C29.5 98.48 29.5 98.48 29 100 C26.44 100.14 23.88 100.23 21.31 100.31 C20.59 100.35 19.87 100.4 19.13 100.44 C14.96 100.53 13.43 100.33 9.98 97.72 C7.69 94.58 7.83 92.92 8.07 89.12 C7.94 85.24 6.32 82.06 4 79 C1.02 77.22 1.02 77.22 -2 76 C-3.87 73.81 -3.87 73.81 -5 72 C-5.99 72.5 -5.99 72.5 -7 73 C-10.87 73.38 -14.74 73.42 -18.62 73.5 C-20.23 73.58 -20.23 73.58 -21.86 73.66 C-27.59 73.76 -31.17 73.5 -35.59 69.66 C-36.75 68.46 -37.89 67.25 -39 66 C-39.57 65.49 -40.14 64.97 -40.73 64.44 C-41.15 63.96 -41.57 63.49 -42 63 C-41.69 60.31 -41.69 60.31 -41 58 C-38.56 57.92 -36.13 57.86 -33.69 57.81 C-33 57.79 -32.31 57.76 -31.6 57.74 C-26.41 57.66 -26.41 57.66 -24.22 59.47 C-23.82 59.97 -23.41 60.48 -23 61 C-19.89 61.73 -19.89 61.73 -17 62 C-18.21 57.79 -18.21 57.79 -20.54 54.16 C-22.41 51.39 -22.44 49.53 -22.55 46.21 C-22.59 45.1 -22.63 44 -22.67 42.86 C-22.7 41.71 -22.72 40.56 -22.75 39.38 C-22.79 38.22 -22.84 37.06 -22.88 35.87 C-23.15 27.3 -23.15 27.3 -22 25 C-20.35 25 -18.7 25 -17 25 C-16.99 26.09 -16.99 26.09 -16.97 27.2 C-16.92 30.51 -16.83 33.82 -16.75 37.12 C-16.74 38.27 -16.72 39.41 -16.71 40.59 C-16.52 47.13 -16.11 50.9 -12 56 C-11.34 58.97 -11.64 60.89 -12 64 C-13.21 65.71 -13.21 65.71 -15 67 C-17.37 67.4 -17.37 67.4 -20 67.38 C-21.3 67.39 -21.3 67.39 -22.62 67.4 C-25.45 66.92 -26.1 66.04 -28 64 C-31.13 63.75 -31.13 63.75 -34 64 C-31.74 66.5 -29.91 67.88 -26.52 68.33 C-23.57 68.39 -20.64 68.35 -17.69 68.25 C-16.66 68.23 -15.63 68.21 -14.58 68.2 C-12.05 68.15 -9.53 68.08 -7 68 C-7.03 66.99 -7.07 65.97 -7.11 64.93 C-7.13 63.58 -7.16 62.23 -7.19 60.88 C-7.21 60.21 -7.24 59.54 -7.26 58.86 C-7.33 54.14 -6.54 50.98 -4 47 C-3.15 46.61 -2.31 46.22 -1.44 45.81 C1.7 43.48 1.6 42.15 2.25 38.38 C2.38 37.39 2.51 36.41 2.64 35.4 C3 33 3 33 4 32 C11.4 31.79 16.93 33.91 23 38 C23.33 38.33 23.66 38.66 24 39 C24.33 37.68 24.66 36.36 25 35 C27.92 35.32 29.29 36.22 31.69 38 C34.72 41.93 34.88 45.15 35 50 C35.6 49.51 36.2 49.01 36.81 48.5 C39 47 39 47 42 47 C37.13 32.92 32.05 19.46 17.81 12.43 C11.87 10.02 6.38 8.49 0 8 C-1 7 -1 7 -1.12 4 C-1 1 -1 1 0 0 Z M6 35 C5.98 35.89 5.98 35.89 5.96 36.79 C5.69 41.18 5.5 43.39 2.62 46.88 C1.2 48.03 -0.22 49.17 -1.65 50.31 C-3.52 52.65 -3.3 54.24 -3.19 57.19 C-3.16 58.09 -3.13 58.99 -3.11 59.92 C-3.07 60.61 -3.04 61.29 -3 62 C-1.05 61.69 -1.05 61.69 1 61 C2.77 58.52 2.77 58.52 4 56 C5.42 56.12 6.83 56.24 8.25 56.38 C9.04 56.44 9.83 56.51 10.64 56.59 C13.09 57.02 14.85 57.79 17 59 C17.37 58.07 17.74 57.14 18.12 56.19 C20.31 52.47 22.07 51.57 26 50 C26 46.27 25.98 44.06 23.4 41.27 C17.98 37.04 12.96 35 6 35 Z M28 41 C28.26 43.34 28.59 45.68 29 48 C29.66 48.33 30.32 48.66 31 49 C31.25 46.08 31.25 46.08 31 43 C30.01 42.34 29.02 41.68 28 41 Z M39.25 51.75 C38.51 52.49 37.77 53.23 37 54 C37 55.32 37 56.64 37 58 C38.91 57.88 38.91 57.88 41 57 C42.66 54.59 42.66 54.59 44 52 C44.66 51.34 45.32 50.68 46 50 C42.02 49.64 42.02 49.64 39.25 51.75 Z M26 53.94 C24.92 54.48 24.92 54.48 23.81 55.03 C22.03 55.87 22.03 55.87 21 57 C20.76 60.04 20.62 63.07 20.48 66.12 C19.94 69.34 19.28 69.86 17 72 C17 73.32 17 74.64 17 76 C17.99 75.67 18.98 75.34 20 75 C20 74.01 20 73.02 20 72 C20.66 71.67 21.32 71.34 22 71 C22 70.01 22 69.02 22 68 C24 67 26 66 28 65 C28 63.68 28 62.36 28 61 C28.99 61 29.98 61 31 61 C31 58.03 31 55.06 31 52 C29.17 52 27.6 53.13 26 53.94 Z M8 61 C9.21 64.72 10.51 68.38 12 72 C13.32 70.35 14.64 68.7 16 67 C15.24 66.01 14.47 65.02 13.69 64 C13.26 63.44 12.83 62.89 12.39 62.31 C10.96 60.66 10.96 60.66 8 61 Z M34 62 C32.02 63.73 32.02 63.73 30 66 C28.95 66.62 27.9 67.24 26.81 67.88 C23.71 69.77 23.71 69.77 23.12 73.25 C23.08 74.16 23.04 75.06 23 76 C28.46 76.56 31.1 75.75 35.24 72.45 C35.8 71.97 36.36 71.49 36.94 71 C37.53 70.52 38.11 70.05 38.72 69.55 C40.16 68.38 41.58 67.19 43 66 C42.67 64.68 42.34 63.36 42 62 C41.13 62.28 41.13 62.28 40.25 62.56 C38 63 38 63 36 62.31 C35.34 62.21 34.68 62.11 34 62 Z M5 63 C5 63.66 5 64.32 5 65 C3.35 65.66 1.7 66.32 0 67 C1.27 70.62 1.27 70.62 3 74 C4.21 74.43 4.21 74.43 5.44 74.88 C9.13 76.5 9.82 78.91 11.3 82.55 C11.99 84.98 12.16 86.86 12.06 89.38 C11.72 92.83 11.72 92.83 13 95 C16.28 96.64 19.37 96.18 23 96 C22.11 95.07 21.23 94.14 20.31 93.19 C13.92 85.69 11.18 75.98 8.11 66.77 C7.31 63.88 7.31 63.88 5 63 Z " fill="#CE122C" transform="translate(42,0)"/>
</svg>
