<?xml version="1.0" encoding="UTF-8"?>
<svg version="1.1" xmlns="http://www.w3.org/2000/svg" width="50" height="50">
<path d="M0 0 C0.70318359 -0.02449219 1.40636719 -0.04898437 2.13085938 -0.07421875 C5.56024105 -0.093503 7.81232848 0.2306153 10.796875 1.953125 C13.56052231 4.90736868 15.45182199 7.9601847 17.375 11.5 C17.73400391 12.13292969 18.09300781 12.76585937 18.46289062 13.41796875 C21.0625 18.08241071 21.0625 18.08241071 21.0625 20.375 C22.0525 20.375 23.0425 20.375 24.0625 20.375 C24.0625 21.365 24.0625 22.355 24.0625 23.375 C19.1125 23.375 14.1625 23.375 9.0625 23.375 C9.3925 22.055 9.7225 20.735 10.0625 19.375 C8.95225676 16.96947297 7.83905258 14.90785435 6.4375 12.6875 C6.09332031 12.09388672 5.74914062 11.50027344 5.39453125 10.88867188 C3.60813426 7.99813653 2.57564889 6.54050858 -0.7109375 5.48046875 C-1.44570313 5.44566406 -2.18046875 5.41085938 -2.9375 5.375 C-3.164375 6.014375 -3.39125 6.65375 -3.625 7.3125 C-5.1167465 10.79324184 -6.96856013 13.94702803 -8.9140625 17.19140625 C-10.22042825 19.57672959 -10.22042825 19.57672959 -9.9375 23.375 C-14.5575 23.375 -19.1775 23.375 -23.9375 23.375 C-23.9375 22.385 -23.9375 21.395 -23.9375 20.375 C-23.36 19.80007812 -22.7825 19.22515625 -22.1875 18.6328125 C-18.92729869 15.36129105 -17.05235492 11.3882569 -14.9375 7.33203125 C-13.59354254 4.85935951 -12.39789106 2.74413315 -10.18359375 0.96875 C-6.80060012 0.07446299 -3.47386787 0.0063334 0 0 Z " fill="#6637EC" transform="translate(24.9375,12.625)"/>
<path d="M0 0 C3.29714793 0.32971479 4.6226839 0.6226839 7 3 C6.9375 5.5 6.9375 5.5 6 8 C3.6875 9.5 3.6875 9.5 1 10 C-1.3125 8.625 -1.3125 8.625 -3 7 C-2.25 2.25 -2.25 2.25 0 0 Z " fill="#6836ED" transform="translate(23,26)"/>
</svg>
