<?xml version="1.0" encoding="UTF-8"?>
<!-- Generator: https://ezgif.com/png-to-svg -->
<svg version="1.1" xmlns="http://www.w3.org/2000/svg" width="512" height="512" viewBox="-3 -3 56 56" preserveAspectRatio="xMidYMid meet">
<path d="M0 0 C0.66 0 1.32 0 2 0 C3.74 3.62 5.47 7.25 7.18 10.89 C7.77 12.12 8.36 13.36 8.95 14.59 C9.8 16.36 10.64 18.14 11.47 19.92 C12.23 21.52 12.23 21.52 13.01 23.16 C14 26 14 26 14.04 28.13 C12.37 31.13 9.88 32.27 6.95 34 C6.04 34.55 6.04 34.55 5.11 35.11 C3.16 36.27 1.21 37.42 -0.75 38.56 C-2.05 39.34 -3.35 40.11 -4.66 40.89 C-7.06 42.32 -9.47 43.75 -11.88 45.16 C-13.86 46.33 -15.83 47.52 -17.79 48.74 C-20 50 -20 50 -22 50 C-20.64 45.68 -18.99 41.65 -17.06 37.56 C-14.56 32.2 -12.14 26.82 -9.92 21.34 C-6.94 14.04 -3.61 7 0 0 Z M0 13 C-1.67 16.62 -3.34 20.25 -5 23.88 C-5.48 24.91 -5.95 25.94 -6.45 27 C-7.12 28.48 -7.12 28.48 -7.81 29.99 C-8.23 30.9 -8.65 31.81 -9.08 32.75 C-10.13 34.9 -10.13 34.9 -10 37 C-5.96 35.51 -2.39 33.57 1.31 31.38 C2.38 30.74 3.45 30.11 4.55 29.46 C5.36 28.98 6.17 28.5 7 28 C6.46 24.04 5.64 20.74 3.94 17.12 C3.58 16.34 3.21 15.56 2.84 14.76 C2.56 14.18 2.29 13.6 2 13 C1.34 13 0.68 13 0 13 Z " fill="#8B939D" transform="translate(24,0)"/>
<path d="M0 0 C0.66 0 1.32 0 2 0 C0.6 4.47 -1.14 8.64 -3.12 12.88 C-3.66 14.03 -4.2 15.18 -4.76 16.37 C-5.37 17.67 -5.37 17.67 -6 19 C-4.08 18.21 -2.17 17.42 -0.25 16.62 C0.82 16.18 1.88 15.74 2.98 15.29 C5.89 14.1 5.89 14.1 8.14 12.84 C10 12 10 12 14 12 C14 12.66 14 13.32 14 14 C11.86 15.47 9.74 16.82 7.51 18.13 C6.52 18.73 6.52 18.73 5.5 19.33 C4.1 20.17 2.7 21.01 1.29 21.84 C-0.86 23.12 -3.01 24.41 -5.16 25.7 C-6.52 26.51 -7.88 27.32 -9.24 28.13 C-9.89 28.52 -10.53 28.91 -11.2 29.31 C-15.77 32 -15.77 32 -18 32 C-16.64 27.68 -14.99 23.65 -13.06 19.56 C-11.42 16.06 -9.79 12.57 -8.31 9 C-7.06 6.15 -5.78 3.56 -4 1 C-3.34 1 -2.68 1 -2 1 C-2.33 2.32 -2.66 3.64 -3 5 C-2.55 4.18 -2.09 3.35 -1.62 2.5 C-1.09 1.68 -0.55 0.85 0 0 Z " fill="#99A3B0" transform="translate(20,18)"/>
<path d="M0 0 C1.36 2.47 2.55 4.87 3.69 7.44 C4.01 8.13 4.33 8.83 4.66 9.54 C7 14.7 7 14.7 7 17 C2.24 16.31 -1.88 14.53 -6.25 12.62 C-7.35 12.17 -7.35 12.17 -8.47 11.7 C-10.35 10.89 -12.18 9.95 -14 9 C-14.33 8.01 -14.66 7.02 -15 6 C-13.07 4.8 -11.13 3.62 -9.19 2.44 C-7.57 1.45 -7.57 1.45 -5.92 0.43 C-3 -1 -3 -1 0 0 Z " fill="#A5ADBA" transform="translate(41,33)"/>
<path d="M0 0 C0.66 0 1.32 0 2 0 C2.99 3.08 2.92 4.92 2 8 C2 8.66 2 9.32 2 10 C1.51 10.43 1.01 10.87 0.5 11.31 C-1.27 12.96 -1.27 12.96 -1.19 15.69 C-1.09 16.83 -1.09 16.83 -1 18 C-1.99 18 -2.98 18 -4 18 C-4.27 18.78 -4.54 19.57 -4.81 20.38 C-6 23 -6 23 -9 25 C-8 23 -7 21 -6 19 C-6.66 19 -7.32 19 -8 19 C-6.21 12.05 -3.74 6.13 0 0 Z " fill="#3F464D" transform="translate(24,0)"/>
<path d="M0 0 C3 1 3 1 4.68 3.98 C5.23 5.23 5.78 6.49 6.31 7.75 C6.6 8.37 6.89 8.99 7.19 9.63 C8.57 12.84 9.13 14.55 8.17 17.95 C7.78 18.63 7.4 19.3 7 20 C5 18 5 18 4 15.44 C3.25 12.85 3.25 12.85 1 12 C1 11.34 1 10.68 1 10 C0.34 10 -0.32 10 -1 10 C-1.66 11.32 -2.32 12.64 -3 14 C-2.67 12.02 -2.34 10.04 -2 8 C-1.01 7.67 -0.02 7.34 1 7 C0.67 4.69 0.34 2.38 0 0 Z " fill="#9098A3" transform="translate(25,3)"/>
<path d="M0 0 C0 0.66 0 1.32 0 2 C-0.99 2.49 -0.99 2.49 -2 3 C-1.67 4.65 -1.34 6.3 -1 8 C-2.28 7.96 -3.56 7.92 -4.88 7.88 C-7.02 7.76 -7.02 7.76 -9 8 C-9.66 8.66 -10.32 9.32 -11 10 C-12.32 9.34 -13.64 8.68 -15 8 C-15 7.34 -15 6.68 -15 6 C-12.48 4.24 -12.48 4.24 -9.19 2.31 C-8.11 1.67 -7.03 1.03 -5.92 0.36 C-3 -1 -3 -1 0 0 Z " fill="#A8B3C0" transform="translate(41,33)"/>
<path d="M0 0 C0.33 0 0.66 0 1 0 C1.33 1.98 1.66 3.96 2 6 C3.32 6.33 4.64 6.66 6 7 C4.64 7.87 4.64 7.87 3.25 8.75 C0.03 10.84 0.03 10.84 -2.25 13.25 C-2.83 13.83 -3.41 14.41 -4 15 C-4.66 15 -5.32 15 -6 15 C-4.4 9.8 -2.26 4.93 0 0 Z " fill="#D3DAE1" transform="translate(8,35)"/>
<path d="M0 0 C2.97 0.33 5.94 0.66 9 1 C9.66 2.65 10.32 4.3 11 6 C9.56 5.89 8.12 5.76 6.69 5.62 C5.89 5.56 5.09 5.49 4.26 5.41 C2 5 2 5 -1 3 C-0.67 2.01 -0.34 1.02 0 0 Z " fill="#97A4B4" transform="translate(32,40)"/>
<path d="M0 0 C0.99 0.33 1.98 0.66 3 1 C4.19 3.56 4.19 3.56 5 6 C5.66 5.34 6.32 4.68 7 4 C7.66 4.33 8.32 4.66 9 5 C9.59 7.65 9.74 10.29 10 13 C7.68 12.88 7.68 12.88 5 12 C3.42 9.28 3.42 9.28 2.19 5.94 C1.77 4.83 1.35 3.73 0.92 2.59 C0.62 1.74 0.31 0.88 0 0 Z " fill="#AFB7C1" transform="translate(26,15)"/>
<path d="M0 0 C0.66 0 1.32 0 2 0 C3.46 2.65 4 3.89 4 7 C1.11 9.11 -0.38 10 -4 10 C-2.89 6.51 -1.74 3.23 0 0 Z " fill="#A2AABA" transform="translate(24,20)"/>
<path d="M0 0 C0.99 0 1.98 0 3 0 C3.99 2.97 4.98 5.94 6 9 C5.01 9.99 4.02 10.98 3 12 C2.3 10.57 1.62 9.13 0.94 7.69 C0.55 6.89 0.17 6.09 -0.22 5.26 C-1 3 -1 3 0 0 Z " fill="#3D444B" transform="translate(28,11)"/>
<path d="M0 0 C0.66 0 1.32 0 2 0 C2.99 2.31 3.98 4.62 5 7 C4.01 7 3.02 7 2 7 C1.73 7.78 1.46 8.57 1.19 9.38 C0 12 0 12 -3 14 C-1.5 11 -1.5 11 0 8 C-0.66 8 -1.32 8 -2 8 C-1.34 5.36 -0.68 2.72 0 0 Z " fill="#515A63" transform="translate(18,11)"/>
<path d="M0 0 C0.99 0.33 1.98 0.66 3 1 C3.75 3.19 3.75 3.19 4 6 C2.06 8.81 2.06 8.81 0 11 C-1.9 9.1 -1.12 6.43 -1.13 3.91 C-1 2 -1 2 0 0 Z " fill="#8693A3" transform="translate(10,31)"/>
<path d="M0 0 C1.65 0 3.3 0 5 0 C6.6 3.51 7.22 6.14 7 10 C4.5 7.75 4.5 7.75 2 5 C2 3.68 2 2.36 2 1 C1.34 0.67 0.68 0.34 0 0 Z " fill="#B5C1CC" transform="translate(37,35)"/>
<path d="M0 0 C0 0.99 0 1.98 0 3 C-1.79 4.03 -3.58 5.05 -5.38 6.06 C-6.87 6.92 -6.87 6.92 -8.4 7.79 C-9.26 8.19 -10.12 8.59 -11 9 C-11.66 8.67 -12.32 8.34 -13 8 C-8.71 5.36 -4.42 2.72 0 0 Z " fill="#4D535E" transform="translate(31,27)"/>
<path d="M0 0 C0.66 0.66 1.32 1.32 2 2 C2.66 1.34 3.32 0.68 4 0 C4.99 0.33 5.98 0.66 7 1 C6.01 2.98 5.02 4.96 4 7 C3.34 7 2.68 7 2 7 C2 6.01 2 5.02 2 4 C1.34 4 0.68 4 0 4 C0 2.68 0 1.36 0 0 Z " fill="#959FAC" transform="translate(11,28)"/>
<path d="M0 0 C0.33 0 0.66 0 1 0 C1.09 3.2 0.91 5.93 0 9 C-1.32 9.33 -2.64 9.66 -4 10 C-2.89 6.51 -1.74 3.23 0 0 Z " fill="#7A8391" transform="translate(6,40)"/>
<path d="M0 0 C-0.33 1.98 -0.66 3.96 -1 6 C-3.48 5.01 -3.48 5.01 -6 4 C-6 3.34 -6 2.68 -6 2 C-2.25 0 -2.25 0 0 0 Z " fill="#5C666F" transform="translate(32,37)"/>
<path d="M0 0 C0.66 0 1.32 0 2 0 C2.33 0.99 2.66 1.98 3 3 C2.34 3 1.68 3 1 3 C0.67 4.32 0.34 5.64 0 7 C-0.99 7 -1.98 7 -3 7 C-2.01 4.69 -1.02 2.38 0 0 Z " fill="#6E767F" transform="translate(24,20)"/>
<path d="M0 0 C1.12 1.69 1.12 1.69 2 4 C1.12 6.75 1.12 6.75 0 9 C-0.33 9 -0.66 9 -1 9 C-1.12 2.25 -1.12 2.25 0 0 Z " fill="#636E79" transform="translate(10,31)"/>
<path d="M0 0 C0.99 0.33 1.98 0.66 3 1 C3 1.66 3 2.32 3 3 C0.03 3.66 -2.94 4.32 -6 5 C-3 2 -3 2 0 0 Z " fill="#555B64" transform="translate(38,32)"/>
<path d="M0 0 C0.66 0 1.32 0 2 0 C1.25 2.88 1.25 2.88 0 6 C-1.98 6.99 -1.98 6.99 -4 8 C-2.68 5.36 -1.36 2.72 0 0 Z " fill="#98A1AE" transform="translate(16,19)"/>
</svg>
