<?xml version="1.0" encoding="UTF-8"?>
<!-- Generator: https://ezgif.com/png-to-svg -->
<svg version="1.1" xmlns="http://www.w3.org/2000/svg" width="512" height="512" viewBox="-36 -39.6 672 672" preserveAspectRatio="xMidYMid meet">
<path d="M0 0 C76 -0.2 76 -0.2 107.94 0.44 C108.98 0.46 110.02 0.48 111.09 0.5 C144.08 1.14 171.23 4.48 195.25 29.12 C198.75 33.22 201.62 37.43 204.25 42.14 C204.83 43.18 204.83 43.18 205.42 44.23 C210.09 52.77 213.91 61.69 217.75 70.62 C218.54 72.44 219.33 74.26 220.12 76.08 C222.07 80.57 224.01 85.06 225.94 89.55 C227.47 93.08 229 96.61 230.53 100.14 C232.1 103.77 233.67 107.4 235.24 111.02 C239.28 120.37 243.38 129.69 247.5 139 C252.35 149.96 257.17 160.94 261.94 171.94 C262.34 172.87 262.34 172.87 262.76 173.83 C266.3 182.01 269.82 190.21 273.2 198.45 C275.1 203.02 277.16 207.51 279.27 211.98 C282.78 219.45 286.08 227.01 289.34 234.6 C291.07 238.64 292.81 242.68 294.55 246.72 C295.1 247.98 295.1 247.98 295.66 249.27 C299.71 258.66 303.82 268.02 307.94 277.38 C309.44 280.8 310.95 284.23 312.46 287.66 C313.02 288.93 313.02 288.93 313.59 290.23 C317.42 298.94 321.23 307.66 325.04 316.38 C325.75 318 326.45 319.63 327.16 321.25 C330.86 329.7 334.5 338.18 338.05 346.7 C340.7 353.03 343.48 359.27 346.43 365.48 C350.17 373.4 353.5 381.51 356.88 389.59 C360.22 397.58 363.66 405.5 367.37 413.33 C370.84 420.71 373.97 428.23 377.12 435.75 C378.02 437.88 378.92 440.02 379.82 442.15 C380.4 443.53 380.97 444.9 381.55 446.28 C383.59 451.13 385.81 455.88 388.18 460.59 C389.19 463.55 389.01 465.84 388.69 468.94 C388.52 472.79 388.62 474.46 390.86 477.65 C392.15 479.05 393.44 480.45 394.75 481.84 C400.97 488.75 404.06 497.32 407.64 505.79 C409.04 509.09 410.46 512.37 411.89 515.65 C413.74 519.91 415.59 524.17 417.43 528.44 C422.09 539.25 426.83 550.03 431.56 560.81 C431.95 561.7 432.35 562.59 432.75 563.51 C433.87 566.08 435 568.64 436.13 571.21 C436.46 571.96 436.79 572.72 437.13 573.5 C437.45 574.22 437.77 574.94 438.1 575.69 C438.41 576.4 438.72 577.1 439.03 577.83 C439.72 579.36 440.42 580.89 441.13 582.41 C441.5 583.2 441.86 583.99 442.24 584.8 C442.58 585.51 442.91 586.22 443.26 586.95 C444 589 444 589 444 593 C400.11 593 356.22 593 311 593 C293.87 554.18 293.87 554.18 288.5 541.31 C285.03 533.02 281.48 524.8 277.64 516.67 C274.29 509.54 271.21 502.31 268.12 495.06 C267.48 493.56 266.84 492.06 266.2 490.57 C263 483.06 259.81 475.56 256.63 468.04 C255.5 465.36 254.36 462.68 253.22 460 C251.78 456.59 250.34 453.18 248.9 449.77 C245.6 441.96 242.21 434.22 238.59 426.55 C235.12 419.18 231.94 411.68 228.75 404.19 C228.09 402.65 227.44 401.12 226.78 399.58 C223.78 392.55 220.79 385.52 217.83 378.47 C217.35 377.33 216.86 376.18 216.37 375.01 C215.5 372.93 214.63 370.86 213.76 368.79 C211.5 363.39 209.12 358.07 206.62 352.77 C203.24 345.59 200.08 338.33 196.98 331.03 C195.35 327.21 193.72 323.39 192.09 319.57 C191.75 318.78 191.42 317.99 191.07 317.18 C187.44 308.69 183.79 300.22 180.12 291.75 C179.8 290.99 179.47 290.24 179.13 289.45 C167.51 262.6 155.82 235.77 144 209 C136.01 227.01 128.09 245.04 120.36 263.16 C115.91 273.6 111.35 283.99 106.71 294.34 C101.31 306.43 96.18 318.63 91.05 330.83 C87.69 338.8 84.26 346.7 80.56 354.51 C77.51 360.98 74.71 367.56 71.92 374.14 C66.53 386.85 61.04 399.51 55.44 412.12 C49.76 424.92 44.23 437.77 38.83 450.68 C35.95 457.54 32.95 464.31 29.76 471.04 C26.13 478.78 22.81 486.66 19.47 494.53 C13.59 508.37 7.65 522.18 1.49 535.89 C-1.42 542.41 -4.29 548.96 -7.11 555.52 C-7.65 556.76 -7.65 556.76 -8.2 558.03 C-9.96 562.13 -11.73 566.24 -13.48 570.34 C-14.13 571.85 -14.78 573.37 -15.43 574.88 C-15.72 575.55 -16.01 576.22 -16.3 576.91 C-18.67 582.41 -21.31 587.62 -24 593 C-67.56 593 -111.12 593 -156 593 C-155.25 588.49 -154.67 585.8 -152.88 581.82 C-152.23 580.36 -152.23 580.36 -151.56 578.86 C-150.85 577.29 -150.85 577.29 -150.12 575.69 C-149.11 573.41 -148.09 571.13 -147.07 568.85 C-146.56 567.7 -146.04 566.54 -145.51 565.36 C-143.3 560.43 -141.11 555.5 -138.94 550.56 C-138.51 549.58 -138.07 548.61 -137.63 547.6 C-134.56 540.62 -131.55 533.62 -128.55 526.61 C-127.96 525.23 -127.96 525.23 -127.36 523.82 C-125.39 519.21 -123.42 514.6 -121.46 509.98 C-118.21 502.36 -114.94 494.75 -111.39 487.26 C-107.69 479.43 -104.34 471.48 -101 463.5 C-97.33 454.72 -93.59 446.01 -89.52 437.41 C-86.67 431.35 -84.07 425.19 -81.5 419 C-78.65 412.2 -75.8 405.41 -72.62 398.75 C-69.24 391.64 -66.12 384.42 -63 377.19 C-58.22 366.1 -53.38 355.04 -48.5 344 C-43.73 333.22 -39 322.44 -34.31 311.62 C-34.05 311.02 -33.78 310.41 -33.51 309.78 C-30.58 303 -27.66 296.22 -24.77 289.43 C-20.3 278.95 -15.82 268.49 -10.93 258.19 C-8.22 252.39 -5.72 246.5 -3.19 240.62 C2.06 228.46 7.36 216.32 12.69 204.19 C13.06 203.33 13.44 202.47 13.83 201.58 C16.95 194.5 20.06 187.41 23.18 180.32 C25.89 174.15 28.6 167.98 31.31 161.81 C31.69 160.95 32.07 160.1 32.46 159.21 C37.28 148.24 42.06 137.25 46.81 126.25 C53.06 111.77 59.51 97.38 66 83 C62.27 77.93 58.42 73.02 54.31 68.25 C46 58.57 46 58.57 46 56 C45.34 56 44.68 56 44 56 C42.73 54.59 42.73 54.59 41.19 52.5 C37.76 47.96 34.22 43.53 30.62 39.12 C29.78 38.08 29.78 38.08 28.91 37.02 C25.69 33.07 22.47 29.13 19.25 25.19 C18.2 23.9 18.2 23.9 17.12 22.58 C15.64 20.78 14.15 18.99 12.66 17.2 C11.5 15.8 11.5 15.8 10.31 14.38 C9.63 13.56 8.94 12.74 8.24 11.9 C6.33 9.42 4.59 6.92 2.86 4.32 C2.32 3.51 1.79 2.7 1.23 1.87 C0.83 1.25 0.42 0.63 0 0 Z " fill="#FEFEFE" transform="translate(156,0)"/>
<path d="M0 0 C76 -0.2 76 -0.2 107.94 0.44 C109.5 0.47 109.5 0.47 111.09 0.5 C144.08 1.14 171.23 4.48 195.25 29.12 C198.75 33.22 201.62 37.43 204.25 42.14 C204.83 43.18 204.83 43.18 205.42 44.23 C210.09 52.77 213.91 61.69 217.75 70.62 C218.54 72.44 219.33 74.26 220.12 76.08 C222.07 80.57 224.01 85.06 225.94 89.55 C227.47 93.08 229 96.61 230.53 100.14 C232.1 103.77 233.67 107.4 235.24 111.02 C239.28 120.37 243.38 129.69 247.5 139 C252.35 149.96 257.17 160.94 261.94 171.94 C262.34 172.87 262.34 172.87 262.76 173.83 C266.3 182.01 269.82 190.21 273.2 198.45 C275.1 203.02 277.16 207.51 279.27 211.98 C282.78 219.45 286.08 227.01 289.34 234.6 C291.07 238.64 292.81 242.68 294.55 246.72 C295.1 247.98 295.1 247.98 295.66 249.27 C299.71 258.66 303.82 268.02 307.94 277.38 C309.44 280.8 310.95 284.23 312.46 287.66 C313.02 288.93 313.02 288.93 313.59 290.23 C317.42 298.94 321.23 307.66 325.04 316.38 C325.75 318 326.45 319.63 327.16 321.25 C330.86 329.7 334.5 338.18 338.05 346.7 C340.7 353.03 343.48 359.27 346.43 365.48 C350.17 373.4 353.5 381.51 356.88 389.59 C360.22 397.58 363.66 405.5 367.37 413.33 C370.84 420.71 373.97 428.23 377.12 435.75 C378.31 438.58 379.5 441.41 380.7 444.23 C380.98 444.91 381.26 445.58 381.55 446.28 C383.6 451.14 385.8 455.92 388.11 460.67 C389.6 464.58 389.39 467.86 389 472 C388.67 472.66 388.34 473.32 388 474 C383.95 472.65 382.35 469.91 379.88 466.62 C378.88 465.33 377.89 464.04 376.89 462.75 C376.4 462.11 375.91 461.47 375.4 460.81 C373.52 458.38 371.58 456 369.62 453.62 C365.9 449.1 362.19 444.55 358.5 440 C352.23 432.28 345.95 424.57 339.62 416.9 C334.09 410.2 328.58 403.5 323.18 396.7 C320.21 393.02 317.2 389.39 314.19 385.75 C309.8 380.45 305.48 375.11 301.25 369.69 C297.07 364.32 292.78 359.08 288.4 353.87 C284.56 349.28 280.78 344.64 277 340 C276.25 339.08 275.49 338.16 274.72 337.22 C271.21 332.94 267.7 328.64 264.25 324.31 C253.98 311.44 243.53 298.7 233.05 285.99 C223.66 274.61 214.33 263.19 205.14 251.66 C200.69 246.12 196.19 240.61 191.71 235.1 C189.51 232.39 187.31 229.69 185.11 226.99 C184.04 225.66 182.96 224.33 181.88 223.01 C179.14 219.64 176.41 216.27 173.68 212.89 C168.64 206.67 163.58 200.47 158.38 194.38 C154.11 189.38 150.02 184.27 145.98 179.08 C142.53 174.66 139 170.29 135.43 165.96 C132.52 162.42 129.64 158.87 126.75 155.31 C126.2 154.64 125.65 153.96 125.09 153.27 C122.82 150.48 120.56 147.69 118.29 144.9 C110.41 135.19 110.41 135.19 102.5 125.5 C98.91 121.11 95.33 116.71 91.75 112.31 C91.2 111.64 90.66 110.97 90.1 110.28 C87.21 106.72 84.32 103.16 81.45 99.59 C80.87 98.88 80.3 98.16 79.7 97.42 C78.6 96.05 77.5 94.69 76.4 93.32 C73.45 89.66 70.37 86.29 67 83 C61 76.59 55.42 69.9 50 63 C49.26 62.12 48.53 61.24 47.77 60.33 C46 58 46 58 46 56 C45.34 56 44.68 56 44 56 C42.73 54.59 42.73 54.59 41.19 52.5 C37.76 47.96 34.22 43.53 30.62 39.12 C29.78 38.08 29.78 38.08 28.91 37.02 C25.69 33.07 22.47 29.13 19.25 25.19 C18.55 24.33 17.84 23.47 17.12 22.58 C15.64 20.78 14.15 18.99 12.66 17.2 C11.89 16.27 11.11 15.34 10.31 14.38 C9.63 13.56 8.94 12.74 8.24 11.9 C6.33 9.42 4.59 6.92 2.86 4.32 C2.32 3.51 1.79 2.7 1.23 1.87 C0.83 1.25 0.42 0.63 0 0 Z " fill="#CE0026" transform="translate(156,0)"/>
</svg>
