<?xml version="1.0" encoding="UTF-8"?>
<!-- Generator: https://ezgif.com/png-to-svg -->
<svg version="1.1" xmlns="http://www.w3.org/2000/svg" width="512" height="512" viewBox="-36.521 -49.243 673.826 673.826" preserveAspectRatio="xMidYMid meet">
<path d="M0 0 C5 1.21 7.62 5.59 10.5 9.6 C13.73 14.89 16.39 20.49 19.12 26.05 C19.95 27.7 20.78 29.36 21.61 31.02 C23.84 35.49 26.06 39.96 28.28 44.44 C30.6 49.13 32.94 53.81 35.28 58.49 C39.69 67.35 44.09 76.21 48.49 85.08 C53.5 95.17 58.53 105.26 63.55 115.35 C73.89 136.09 84.2 156.85 94.5 177.6 C97.5 176.19 100.5 174.77 103.49 173.36 C104.33 172.96 105.17 172.57 106.03 172.16 C113.26 168.74 120.41 165.19 127.55 161.59 C130.86 159.92 134.18 158.26 137.5 156.6 C138.84 155.94 140.17 155.27 141.5 154.6 C149.5 150.6 149.5 150.6 151.39 149.66 C152.72 148.99 154.06 148.33 155.39 147.66 C158.61 146.05 161.82 144.44 165.04 142.84 C173.43 138.64 181.83 134.44 190.21 130.24 C198.1 126.29 205.98 122.34 213.87 118.4 C219.15 115.75 224.43 113.11 229.7 110.47 C234.85 107.89 240 105.31 245.15 102.74 C247.1 101.76 249.05 100.78 251.01 99.8 C253.72 98.44 256.44 97.08 259.16 95.72 C259.96 95.32 260.77 94.91 261.6 94.5 C262.33 94.13 263.07 93.76 263.83 93.38 C264.47 93.06 265.11 92.74 265.77 92.41 C270.3 90.3 274.59 89.86 279.5 90.6 C282.57 92.67 282.57 92.67 284.5 95.6 C285.41 107.45 278.52 119.17 273.63 129.7 C271.96 133.29 270.32 136.9 268.67 140.5 C268.15 141.62 268.15 141.62 267.63 142.77 C263.87 150.95 260.22 159.18 256.57 167.42 C255.9 168.93 255.23 170.44 254.56 171.95 C253.21 174.98 251.86 178.02 250.52 181.06 C247.52 187.83 244.51 194.59 241.5 201.36 C239.84 205.11 238.17 208.85 236.5 212.6 C235.84 214.1 235.17 215.6 234.5 217.1 C234.17 217.85 233.84 218.59 233.5 219.35 C230.5 226.1 230.5 226.1 229.5 228.35 C228.84 229.85 228.17 231.36 227.5 232.86 C225.85 236.58 224.19 240.31 222.53 244.03 C219.4 251.08 216.27 258.13 213.14 265.17 C211.66 268.51 210.18 271.85 208.7 275.19 C207.99 276.79 207.28 278.38 206.58 279.98 C205.6 282.19 204.62 284.4 203.64 286.6 C203.35 287.26 203.06 287.91 202.76 288.58 C201.41 291.62 200.03 294.64 198.5 297.6 C199.51 297.72 200.51 297.84 201.55 297.96 C205.46 298.52 209.05 299.63 212.8 300.9 C213.83 301.25 213.83 301.25 214.89 301.61 C217.16 302.37 219.42 303.14 221.69 303.92 C223.3 304.46 224.91 305 226.52 305.55 C229.86 306.67 233.2 307.8 236.54 308.93 C241.94 310.76 247.35 312.55 252.76 314.35 C258.68 316.31 264.59 318.28 270.5 320.26 C274.56 321.62 278.62 322.97 282.68 324.31 C287.07 325.76 291.46 327.22 295.84 328.69 C297.51 329.25 299.19 329.81 300.87 330.36 C303.21 331.12 305.54 331.91 307.87 332.69 C308.56 332.91 309.24 333.13 309.95 333.36 C314.78 335.02 317.87 337.12 321.5 340.6 C322.71 344.07 322.38 347.07 321.5 350.6 C317.81 357.12 310.99 361.66 305.22 366.23 C302.56 368.36 299.95 370.54 297.32 372.72 C290.59 378.31 283.78 383.75 276.81 389.05 C272.98 391.98 269.24 395.04 265.5 398.1 C259.65 402.89 253.72 407.56 247.71 412.15 C244.3 414.75 240.93 417.39 237.57 420.04 C236.98 420.5 236.4 420.96 235.8 421.43 C234.63 422.36 233.45 423.28 232.27 424.21 C229.35 426.51 226.43 428.81 223.5 431.1 C222.34 432.02 221.17 432.94 220 433.85 C213 439.35 213 439.35 211.25 440.73 C210.09 441.65 208.92 442.56 207.75 443.48 C204.85 445.76 201.94 448.04 199.04 450.32 C197.88 451.23 196.72 452.13 195.57 453.04 C194.99 453.49 194.42 453.94 193.83 454.4 C190.11 457.32 186.42 460.27 182.74 463.24 C180.25 465.25 177.74 467.24 175.23 469.22 C173.62 470.51 172.02 471.82 170.43 473.14 C165.55 477 161.91 479.5 155.57 479.47 C152.29 478.09 150.4 475.52 148.5 472.6 C147.37 469.79 146.7 466.94 146.05 463.99 C145.76 462.76 145.76 462.76 145.46 461.51 C145.06 459.8 144.67 458.08 144.28 456.36 C143.69 453.74 143.08 451.13 142.46 448.52 C142.07 446.84 141.68 445.17 141.3 443.49 C141.12 442.72 140.93 441.94 140.75 441.15 C139.65 436.19 139.16 431.69 139.5 426.6 C143.96 419.66 151.09 415.05 157.58 410.09 C160.75 407.64 163.88 405.12 167 402.6 C173.56 397.35 180.15 392.15 186.77 386.97 C188.52 385.59 190.28 384.21 192.03 382.82 C192.63 382.36 193.22 381.89 193.83 381.41 C195.44 380.14 197.05 378.87 198.66 377.6 C204.24 373.23 209.88 368.92 215.5 364.6 C210.48 362.87 205.46 361.14 200.43 359.42 C198.61 358.79 196.78 358.17 194.95 357.54 C184.16 353.83 173.34 350.2 162.45 346.77 C160.5 346.15 158.54 345.53 156.58 344.91 C152.84 343.72 149.09 342.55 145.33 341.4 C143.61 340.85 141.88 340.31 140.15 339.76 C139.38 339.53 138.6 339.3 137.81 339.06 C132.49 337.35 128.19 334.89 124.5 330.6 C121.09 319.12 130.48 305.15 135.23 295 C140.05 284.69 144.64 274.28 149.19 263.85 C155.44 249.55 161.75 235.28 168.13 221.04 C168.5 220.2 168.88 219.36 169.27 218.5 C171.34 213.87 173.42 209.23 175.5 204.6 C172.63 205.23 170.21 206.13 167.59 207.46 C166.82 207.85 166.06 208.24 165.27 208.64 C164.44 209.06 163.6 209.49 162.75 209.92 C161.42 210.59 161.42 210.59 160.07 211.28 C158.15 212.25 156.23 213.22 154.32 214.2 C151.28 215.74 148.24 217.28 145.2 218.81 C136.55 223.17 127.9 227.54 119.27 231.93 C113.99 234.61 108.7 237.29 103.4 239.95 C101.39 240.96 99.38 241.98 97.37 243.01 C94.56 244.45 91.73 245.87 88.91 247.28 C88.09 247.71 87.26 248.13 86.42 248.57 C81.27 251.12 76.34 253.06 70.5 252.6 C64.55 250.04 62.46 245.65 59.75 240.09 C59.11 238.83 59.11 238.83 58.46 237.55 C57.13 234.91 55.82 232.26 54.5 229.6 C53.68 227.98 52.86 226.36 52.04 224.74 C49.53 219.77 47.04 214.79 44.56 209.81 C43.65 208 42.75 206.19 41.84 204.38 C39.5 199.68 37.15 194.98 34.81 190.29 C32.41 185.47 30 180.64 27.59 175.82 C22.89 166.42 18.2 157.01 13.5 147.6 C10.25 159.05 7.23 170.53 4.45 182.11 C3.4 186.5 2.32 190.89 1.25 195.28 C-0.1 200.81 -1.45 206.35 -2.77 211.88 C-3.86 216.42 -4.96 220.94 -6.08 225.47 C-6.5 227.17 -6.91 228.89 -7.31 230.6 C-11.31 247.52 -11.31 247.52 -17.5 252.6 C-25.05 255.44 -33.94 250.42 -40.75 247.42 C-42.02 246.87 -43.3 246.32 -44.57 245.78 C-47.9 244.36 -51.21 242.92 -54.53 241.46 C-57.67 240.09 -60.82 238.73 -63.97 237.37 C-67.67 235.77 -71.36 234.17 -75.05 232.56 C-89.14 226.42 -103.32 220.51 -117.5 214.6 C-115.13 223.17 -112.02 231.43 -108.87 239.72 C-108.31 241.19 -107.76 242.66 -107.2 244.13 C-105.75 247.99 -104.28 251.85 -102.82 255.7 C-101.37 259.53 -99.92 263.36 -98.47 267.19 C-98.19 267.94 -97.9 268.69 -97.61 269.46 C-96.2 273.21 -94.78 276.95 -93.37 280.7 C-92.82 282.17 -92.26 283.63 -91.71 285.1 C-91.31 286.18 -91.31 286.18 -90.89 287.27 C-89.34 291.39 -87.77 295.5 -86.17 299.61 C-84.99 302.66 -83.83 305.71 -82.66 308.76 C-82.23 309.84 -81.81 310.91 -81.37 312.02 C-79.17 317.8 -77.09 323.39 -78.5 329.6 C-81.83 335.24 -85.66 336.94 -91.62 338.8 C-92.42 339.06 -93.22 339.33 -94.04 339.61 C-96.67 340.48 -99.3 341.32 -101.93 342.17 C-103.76 342.77 -105.58 343.37 -107.4 343.98 C-111.18 345.23 -114.97 346.47 -118.75 347.71 C-127.04 350.43 -135.28 353.27 -143.53 356.11 C-147.56 357.49 -151.59 358.87 -155.63 360.25 C-156.97 360.71 -158.31 361.17 -159.66 361.63 C-160.6 361.95 -161.53 362.27 -162.5 362.6 C-156.65 366.55 -150.8 370.5 -144.95 374.44 C-142.97 375.78 -140.98 377.12 -139 378.46 C-137.07 379.76 -135.15 381.06 -133.22 382.36 C-131.32 383.64 -129.42 384.92 -127.53 386.21 C-123.35 389.04 -119.16 391.84 -114.89 394.53 C-114.2 394.98 -113.51 395.42 -112.79 395.87 C-111.55 396.66 -110.3 397.44 -109.04 398.2 C-104.57 401.06 -102.6 403.84 -100.5 408.6 C-100.6 410.97 -100.6 410.97 -101.45 413.03 C-101.77 413.79 -102.08 414.55 -102.4 415.33 C-104.15 418.96 -106.08 422.42 -108.18 425.85 C-108.84 426.94 -108.84 426.94 -109.51 428.06 C-110.4 429.53 -111.3 431.01 -112.2 432.48 C-113.42 434.47 -114.62 436.48 -115.82 438.49 C-122.79 450.03 -122.79 450.03 -126.41 451.25 C-135.17 451.9 -141.35 446.89 -148.24 442.15 C-150.74 440.44 -153.26 438.76 -155.79 437.08 C-161.05 433.58 -166.29 430.04 -171.53 426.5 C-192.44 412.35 -213.41 398.31 -234.54 384.5 C-245.35 377.42 -255.99 370.13 -266.5 362.6 C-267.68 361.76 -268.87 360.91 -270.06 360.07 C-277.36 354.87 -277.36 354.87 -278.5 352.6 C-278.67 350.82 -278.76 349.02 -278.81 347.23 C-278.85 346.27 -278.88 345.32 -278.92 344.33 C-278.36 340.72 -277.32 339.91 -274.5 337.6 C-271.81 336.46 -269.23 335.49 -266.46 334.59 C-265.63 334.31 -264.79 334.03 -263.93 333.74 C-261.1 332.79 -258.27 331.85 -255.43 330.92 C-253.42 330.24 -251.4 329.57 -249.38 328.89 C-244.79 327.35 -240.19 325.82 -235.59 324.29 C-227.17 321.5 -218.75 318.68 -210.34 315.85 C-203.48 313.55 -196.62 311.26 -189.75 308.96 C-187.18 308.1 -184.6 307.24 -182.03 306.38 C-177.93 305.01 -173.84 303.64 -169.75 302.28 C-168.22 301.77 -166.69 301.26 -165.17 300.75 C-163.07 300.04 -160.96 299.34 -158.86 298.64 C-157.68 298.25 -156.49 297.85 -155.27 297.45 C-152.5 296.6 -152.5 296.6 -150.5 296.6 C-150.77 295.86 -151.05 295.12 -151.34 294.35 C-152.2 292.06 -153.06 289.76 -153.92 287.47 C-154.97 284.69 -156.01 281.91 -157.05 279.13 C-159.71 272.03 -162.37 264.93 -165.04 257.83 C-166.6 253.67 -168.16 249.51 -169.72 245.34 C-170.04 244.5 -170.35 243.65 -170.68 242.78 C-175.16 230.83 -179.64 218.88 -184.13 206.93 C-185.95 202.06 -187.78 197.2 -189.61 192.33 C-191.06 188.45 -192.51 184.58 -193.97 180.71 C-194.53 179.21 -195.09 177.72 -195.65 176.23 C-195.92 175.51 -196.19 174.78 -196.47 174.04 C-198.26 169.27 -200.04 164.5 -201.83 159.73 C-203.46 155.35 -205.12 150.97 -206.79 146.6 C-207.43 144.9 -208.08 143.19 -208.72 141.49 C-209 140.77 -209.28 140.04 -209.57 139.3 C-212.28 132.09 -213.03 125.59 -210.25 118.35 C-205.6 115.4 -200.85 115.93 -195.5 116.6 C-190.13 118.27 -185.1 120.53 -180 122.85 C-178.52 123.51 -177.04 124.16 -175.56 124.8 C-172.58 126.11 -169.6 127.43 -166.63 128.76 C-161.05 131.25 -155.43 133.65 -149.81 136.04 C-147.56 137.01 -145.31 137.97 -143.06 138.94 C-135.92 142 -128.77 145.04 -121.62 148.08 C-119.25 149.09 -116.88 150.1 -114.51 151.11 C-110.96 152.61 -107.41 154.12 -103.86 155.63 C-87.68 162.5 -71.56 169.48 -55.5 176.6 C-52.73 168.8 -50.72 160.86 -48.75 152.82 C-48.38 151.34 -48.01 149.86 -47.65 148.38 C-46.86 145.21 -46.08 142.04 -45.29 138.87 C-44.05 133.84 -42.81 128.82 -41.56 123.8 C-38.01 109.52 -34.47 95.24 -30.94 80.96 C-28.99 73.06 -27.03 65.16 -25.07 57.26 C-23.83 52.28 -22.6 47.29 -21.37 42.31 C-20.6 39.19 -19.83 36.08 -19.05 32.97 C-18.69 31.54 -18.34 30.11 -17.99 28.67 C-10.83 -0.69 -10.83 -0.69 0 0 Z " fill="#E0341A" transform="translate(278.4965591430664,-0.6037359237670898)"/>
<path d="M0 0 C0.72 -0.01 1.43 -0.01 2.17 -0.02 C4.53 -0.04 6.89 -0.03 9.25 -0.01 C10.9 -0.02 12.54 -0.02 14.19 -0.03 C17.63 -0.03 21.07 -0.02 24.51 -0 C28.93 0.02 33.34 0.01 37.75 -0.02 C41.14 -0.03 44.54 -0.03 47.93 -0.02 C49.56 -0.02 51.18 -0.02 52.81 -0.03 C55.09 -0.04 57.36 -0.02 59.63 0 C60.93 0 62.22 0.01 63.55 0.01 C67.5 0.62 68.32 1.48 70.82 4.52 C71.98 7.31 71.98 7.31 72.88 10.48 C73.21 11.64 73.54 12.79 73.88 13.99 C75.3 19.34 76.59 24.72 77.8 30.13 C78.07 31.32 78.34 32.52 78.62 33.75 C79.36 37.02 80.1 40.29 80.83 43.56 C81.62 47.08 82.42 50.6 83.22 54.12 C84.59 60.17 85.95 66.22 87.31 72.26 C89.45 81.75 91.6 91.24 93.74 100.73 C94.47 103.95 95.2 107.16 95.92 110.37 C96.11 111.17 96.29 111.96 96.47 112.79 C97.76 118.47 99.04 124.15 100.32 129.83 C107.11 159.84 113.94 189.83 120.79 219.83 C121.9 224.7 123.01 229.58 124.12 234.46 C125.4 240.06 126.68 245.66 127.96 251.27 C128.19 252.28 128.42 253.28 128.66 254.32 C129.1 256.25 129.54 258.17 129.98 260.1 C130.38 261.87 130.79 263.65 131.19 265.43 C132.03 269.12 132.88 272.81 133.76 276.49 C134.03 277.63 134.3 278.78 134.58 279.95 C134.81 280.89 135.04 281.83 135.27 282.8 C136.45 288.69 137.55 294.7 134.28 300.01 C132.56 302 130.8 303.78 128.82 305.52 C128.49 305.85 128.16 306.18 127.82 306.52 C125.25 306.64 122.71 306.7 120.15 306.71 C119.34 306.72 118.54 306.73 117.71 306.74 C115.04 306.76 112.37 306.78 109.7 306.79 C108.79 306.8 107.88 306.8 106.95 306.81 C102.13 306.83 97.31 306.85 92.5 306.87 C87.52 306.88 82.54 306.93 77.56 306.98 C73.74 307.01 69.91 307.03 66.09 307.03 C64.25 307.04 62.42 307.05 60.58 307.08 C58.01 307.11 55.44 307.11 52.87 307.1 C52.11 307.12 51.35 307.13 50.57 307.15 C46.85 307.11 45.17 306.84 42.39 304.28 C40.88 301.63 40.09 299.66 39.54 296.68 C39.36 295.75 39.18 294.82 38.99 293.86 C38.81 292.87 38.64 291.88 38.46 290.85 C38.17 289.31 38.17 289.31 37.87 287.74 C37.25 284.46 36.66 281.17 36.07 277.89 C35.65 275.68 35.24 273.46 34.82 271.24 C34.07 267.2 33.31 263.15 32.58 259.09 C32.43 258.28 32.28 257.47 32.13 256.63 C31.82 254.52 31.82 254.52 31.82 251.52 C20.83 251.11 9.85 250.84 -1.15 250.72 C-6.26 250.66 -11.36 250.56 -16.46 250.36 C-37.72 248.51 -37.72 248.51 -57.25 254.69 C-61.89 259.96 -64.23 265.8 -66.19 272.47 C-67.86 277.6 -70.53 282.18 -73.12 286.89 C-73.97 288.54 -74.81 290.2 -75.65 291.85 C-81.32 302.66 -81.32 302.66 -85.18 306.52 C-87.68 306.64 -90.14 306.7 -92.64 306.71 C-93.42 306.72 -94.2 306.73 -95 306.74 C-97.6 306.76 -100.19 306.78 -102.79 306.79 C-103.67 306.8 -104.56 306.8 -105.47 306.81 C-110.16 306.83 -114.85 306.85 -119.54 306.87 C-124.38 306.88 -129.22 306.93 -134.06 306.98 C-137.78 307.01 -141.5 307.03 -145.23 307.03 C-147.01 307.04 -148.79 307.05 -150.58 307.08 C-153.08 307.11 -155.58 307.11 -158.08 307.1 C-158.82 307.12 -159.55 307.13 -160.31 307.15 C-166.03 307.08 -168.31 305.41 -172.18 301.52 C-175.28 296.88 -174.96 291.86 -174.18 286.52 C-172.87 283.31 -172.87 283.31 -171.12 279.94 C-170.81 279.34 -170.5 278.73 -170.18 278.1 C-166.88 271.79 -163.25 265.68 -159.56 259.58 C-158.14 257.21 -156.72 254.84 -155.31 252.47 C-154.96 251.88 -154.61 251.29 -154.24 250.69 C-150.93 245.12 -147.73 239.48 -144.56 233.83 C-138.48 222.99 -132.23 212.26 -125.95 201.53 C-123.02 196.53 -120.1 191.52 -117.18 186.52 C-113.7 180.54 -110.21 174.56 -106.72 168.59 C-100.04 157.16 -93.4 145.7 -86.79 134.23 C-82.04 125.99 -77.25 117.77 -72.45 109.56 C-68.17 102.22 -63.92 94.87 -59.68 87.52 C-54.31 78.18 -48.9 68.87 -43.46 59.57 C-39.77 53.26 -36.11 46.93 -32.47 40.6 C-27.2 31.42 -21.9 22.25 -16.5 13.14 C-16.02 12.32 -15.53 11.5 -15.04 10.66 C-14.59 9.9 -14.14 9.15 -13.67 8.37 C-13.29 7.72 -12.9 7.07 -12.5 6.4 C-8.81 1.13 -6.53 0.02 0 0 Z M10.82 116.52 C10.33 117.43 10.33 117.43 9.83 118.36 C3.15 130.78 -3.61 143.16 -10.6 155.41 C-14.58 162.39 -18.37 169.44 -22.18 176.52 C-6.67 176.52 8.84 176.52 24.82 176.52 C23.29 168.85 21.77 161.18 20.23 153.51 C19.51 149.94 18.8 146.37 18.09 142.8 C17.41 139.36 16.73 135.93 16.03 132.49 C15.64 130.54 15.26 128.58 14.87 126.63 C14.63 125.45 14.39 124.26 14.15 123.05 C13.94 122 13.73 120.96 13.51 119.88 C13.17 118.71 13.17 118.71 12.82 117.52 C12.16 117.19 11.5 116.86 10.82 116.52 Z " fill="#E0341A" transform="translate(291.18359375,269.482421875)"/>
</svg>
