<?xml version="1.0" encoding="UTF-8"?>
<!-- Generator: https://ezgif.com/webp-to-svg -->
<svg version="1.1" xmlns="http://www.w3.org/2000/svg" width="50" height="50">
<path d="M0 0 C4.07 1.36 4.86 3.95 6.69 7.56 C7.01 8.18 7.33 8.79 7.66 9.43 C8.45 10.95 9.22 12.47 10 14 C10.83 13.57 11.66 13.13 12.52 12.69 C13.61 12.13 14.69 11.57 15.81 11 C16.89 10.44 17.97 9.89 19.08 9.31 C22 8 22 8 25 8 C24.41 12.49 23.24 16.23 21.44 20.38 C20.98 21.43 20.53 22.49 20.06 23.59 C19.71 24.38 19.36 25.18 19 26 C23.45 26.99 23.45 26.99 28 28 C26.8 32.8 25.41 33.71 21.62 36.75 C20.65 37.55 19.67 38.35 18.66 39.17 C16 41 16 41 13 41 C13.19 42.3 13.37 43.6 13.56 44.94 C13.88 47.15 13.88 47.15 14 49 C13 50 13 50 9.44 50.06 C8.3 50.04 7.17 50.02 6 50 C5.51 47.53 5.51 47.53 5 45 C1.6 45.19 1.6 45.19 -2 46 C-2.5 46.68 -2.99 47.36 -3.5 48.06 C-4.24 49.02 -4.24 49.02 -5 50 C-8.69 50.25 -8.69 50.25 -12 50 C-12.75 48.38 -12.75 48.38 -13 46 C-11.72 43.97 -10.39 41.96 -9 40 C-9.85 39.47 -10.71 38.94 -11.59 38.39 C-12.69 37.68 -13.8 36.98 -14.94 36.25 C-16.04 35.55 -17.14 34.86 -18.28 34.14 C-21 32 -21 32 -22 28 C-19.03 27.01 -16.06 26.02 -13 25 C-13.29 24.25 -13.58 23.5 -13.88 22.73 C-14.25 21.75 -14.62 20.76 -15 19.75 C-15.37 18.78 -15.74 17.8 -16.12 16.8 C-17 14 -17 14 -17 10 C-12.39 10.72 -8.33 12.31 -4 14 C-2.68 9.38 -1.36 4.76 0 0 Z M2 15 C1.34 17.31 0.68 19.62 0 22 C-2.31 21.34 -4.62 20.68 -7 20 C-6.67 22.97 -6.34 25.94 -6 29 C-7.65 29.66 -9.3 30.32 -11 31 C-9.35 32.65 -7.7 34.3 -6 36 C-5.59 35.15 -5.18 34.29 -4.75 33.41 C-0.09 24.49 -0.09 24.49 3.25 22.98 C5.44 22.75 5.44 22.75 9 23 C9.12 24.22 9.25 25.43 9.38 26.69 C9.79 30.06 10.55 32.9 12 36 C13.98 34.68 15.96 33.36 18 32 C15.13 29.9 15.13 29.9 12 29 C12.59 25.98 13.23 22.98 14 20 C11.36 20.33 8.72 20.66 6 21 C5.01 19.02 4.02 17.04 3 15 C2.67 15 2.34 15 2 15 Z M2 36 C1.67 36.66 1.34 37.32 1 38 C1.99 37.67 2.98 37.34 4 37 C3.34 36.67 2.68 36.34 2 36 Z M12 38 C13 40 13 40 13 40 Z " fill="#E0341B" transform="translate(22,0)"/>
</svg>
