<?xml version="1.0" encoding="UTF-8"?>
<!-- Generator: https://ezgif.com/webp-to-svg -->
<svg version="1.1" xmlns="http://www.w3.org/2000/svg" width="512" height="512" viewBox="-23.4 -23.4 436.8 436.8" preserveAspectRatio="xMidYMid meet">
<path d="M0 0 C0.66 0 1.32 0 2 0 C2.07 21.08 2.12 42.16 2.16 63.24 C2.17 73.03 2.19 82.82 2.23 92.6 C2.26 101.14 2.28 109.67 2.28 118.21 C2.29 122.72 2.3 127.24 2.32 131.76 C2.34 136.01 2.34 140.27 2.34 144.53 C2.34 146.08 2.35 147.64 2.36 149.2 C2.44 161.31 1.88 171.04 -6.81 180.09 C-13.39 185.84 -20.22 187.13 -28.79 187.12 C-29.46 187.12 -30.13 187.12 -30.82 187.12 C-33.06 187.12 -35.29 187.12 -37.53 187.11 C-39.14 187.11 -40.74 187.11 -42.35 187.11 C-46.71 187.11 -51.06 187.11 -55.42 187.1 C-59.98 187.1 -64.53 187.09 -69.09 187.09 C-77.71 187.09 -86.33 187.08 -94.96 187.07 C-104.78 187.06 -114.59 187.06 -124.41 187.05 C-144.61 187.04 -164.8 187.02 -185 187 C-179.74 176.09 -169.85 166.68 -161.69 157.81 C-160.88 156.93 -160.88 156.93 -160.05 156.03 C-146.05 140.98 -133.61 130.32 -112.47 129.35 C-102.1 129.08 -91.7 130 -81.41 131.15 C-72.95 132.08 -66.1 132 -58 129 C-56.89 128.6 -56.89 128.6 -55.76 128.18 C-42.47 122.73 -33.39 114.23 -27.66 101.02 C-23.89 91.72 -21.58 81.96 -19.04 72.27 C-18.49 70.18 -17.94 68.08 -17.38 65.99 C-15.94 60.53 -14.5 55.07 -13.07 49.6 C-11.6 44.01 -10.12 38.42 -8.64 32.83 C-5.75 21.89 -2.87 10.94 0 0 Z " fill="#FF0000" transform="translate(185,0)"/>
<path d="M0 0 C0.67 -0 1.34 -0 2.03 -0 C4.27 -0 6.5 0 8.74 0.01 C10.35 0.01 11.95 0.01 13.56 0.01 C17.92 0.01 22.28 0.01 26.63 0.02 C31.19 0.03 35.74 0.03 40.3 0.03 C48.92 0.03 57.54 0.04 66.17 0.05 C75.99 0.06 85.81 0.06 95.62 0.07 C115.82 0.08 136.01 0.1 156.21 0.12 C150.96 11.03 141.07 20.44 132.9 29.31 C132.36 29.9 131.82 30.48 131.26 31.09 C117.28 46.12 104.84 56.8 83.72 57.77 C73.37 58.04 62.99 57.12 52.72 55.97 C36.87 54.23 24.01 58.02 11.34 67.93 C-1.82 80.27 -5.38 98.12 -9.75 114.85 C-10.3 116.95 -10.85 119.04 -11.41 121.13 C-12.85 126.59 -14.29 132.05 -15.72 137.52 C-17.19 143.11 -18.67 148.7 -20.15 154.29 C-23.04 165.23 -25.92 176.18 -28.79 187.12 C-29.45 187.12 -30.11 187.12 -30.79 187.12 C-30.86 166.04 -30.91 144.96 -30.94 123.88 C-30.96 114.09 -30.98 104.3 -31.02 94.52 C-31.05 85.98 -31.06 77.45 -31.07 68.91 C-31.08 64.4 -31.08 59.88 -31.11 55.36 C-31.13 51.11 -31.13 46.85 -31.13 42.59 C-31.13 41.04 -31.14 39.48 -31.15 37.92 C-31.23 25.81 -30.67 16.08 -21.98 7.03 C-15.4 1.28 -8.57 -0.01 0 0 Z " fill="#FF0000" transform="translate(233.7893829345703,202.87974548339844)"/>
<path d="M0 0 C21.08 -0.07 42.16 -0.12 63.24 -0.16 C73.03 -0.17 82.82 -0.19 92.6 -0.23 C101.14 -0.26 109.67 -0.28 118.21 -0.28 C122.72 -0.29 127.24 -0.3 131.76 -0.32 C136.01 -0.34 140.27 -0.34 144.53 -0.34 C146.08 -0.34 147.64 -0.35 149.2 -0.36 C161.31 -0.44 171.04 0.12 180.09 8.81 C185.84 15.39 187.13 22.22 187.12 30.79 C187.12 31.79 187.12 31.79 187.12 32.82 C187.12 35.06 187.12 37.29 187.11 39.53 C187.11 41.14 187.11 42.74 187.11 44.35 C187.11 48.71 187.11 53.06 187.1 57.42 C187.1 61.98 187.09 66.53 187.09 71.09 C187.09 79.71 187.08 88.33 187.07 96.96 C187.06 106.78 187.06 116.59 187.05 126.41 C187.04 146.61 187.02 166.8 187 187 C176.09 181.74 166.68 171.85 157.81 163.69 C156.93 162.88 156.93 162.88 156.03 162.05 C141 148.07 130.32 135.63 129.35 114.51 C129.08 104.16 130 93.78 131.15 83.51 C132.89 67.66 129.1 54.8 119.19 42.12 C106.85 28.97 89 25.41 72.27 21.04 C70.18 20.49 68.08 19.94 65.99 19.38 C60.53 17.94 55.07 16.5 49.6 15.07 C44.01 13.6 38.42 12.12 32.83 10.64 C21.89 7.75 10.94 4.87 0 2 C0 1.34 0 0.68 0 0 Z " fill="#FF0000" transform="translate(0,203)"/>
<path d="M0 0 C10.91 5.26 20.32 15.15 29.19 23.31 C29.78 23.85 30.36 24.39 30.97 24.95 C46 38.93 56.68 51.37 57.65 72.49 C57.92 82.84 57 93.22 55.85 103.49 C54.11 119.34 57.9 132.2 67.81 144.88 C80.15 158.03 98 161.59 114.73 165.96 C116.82 166.51 118.92 167.06 121.01 167.62 C126.47 169.06 131.93 170.5 137.4 171.93 C142.99 173.4 148.58 174.88 154.17 176.36 C165.11 179.25 176.06 182.13 187 185 C187 185.66 187 186.32 187 187 C165.92 187.07 144.84 187.12 123.76 187.16 C113.97 187.17 104.18 187.19 94.4 187.23 C85.86 187.26 77.33 187.28 68.79 187.28 C64.28 187.29 59.76 187.3 55.24 187.32 C50.99 187.34 46.73 187.34 42.47 187.34 C40.92 187.34 39.36 187.35 37.8 187.36 C25.69 187.44 15.96 186.88 6.91 178.19 C1.16 171.61 -0.13 164.78 -0.12 156.21 C-0.12 155.54 -0.12 154.87 -0.12 154.18 C-0.12 151.94 -0.12 149.71 -0.11 147.47 C-0.11 145.86 -0.11 144.26 -0.11 142.65 C-0.11 138.29 -0.11 133.94 -0.1 129.58 C-0.1 125.02 -0.09 120.47 -0.09 115.91 C-0.09 107.29 -0.08 98.67 -0.07 90.04 C-0.06 80.22 -0.06 70.41 -0.05 60.59 C-0.04 40.39 -0.02 20.2 0 0 Z " fill="#FF0000" transform="translate(203,0)"/>
</svg>
