<?xml version="1.0" encoding="UTF-8"?>
<!-- Generator: https://ezgif.com/webp-to-svg -->
<svg version="1.1" xmlns="http://www.w3.org/2000/svg" width="512" height="512" viewBox="-44.64 -44.64 889.28 889.28" preserveAspectRatio="xMidYMid meet">
<path d="M0 0 C3.74 1.56 6.11 3.86 8.96 6.71 C9.45 7.2 9.93 7.68 10.44 8.18 C12.08 9.82 13.71 11.46 15.34 13.1 C16.52 14.28 17.7 15.46 18.89 16.64 C22.14 19.89 25.39 23.15 28.64 26.41 C32.15 29.92 35.65 33.43 39.16 36.93 C45.24 43.01 51.32 49.09 57.39 55.18 C66.17 63.97 74.95 72.76 83.74 81.55 C98 95.81 112.25 110.08 126.49 124.34 C140.34 138.2 154.18 152.06 168.03 165.92 C168.88 166.77 169.73 167.62 170.61 168.5 C174.89 172.79 179.17 177.07 183.45 181.35 C218.98 216.9 254.49 252.45 290 288 C288.07 292.2 285.2 295.07 281.95 298.29 C281.32 298.92 280.7 299.55 280.05 300.19 C277.95 302.3 275.84 304.4 273.73 306.5 C272.22 308.01 270.71 309.51 269.21 311.02 C265.11 315.12 261.01 319.21 256.9 323.3 C252.62 327.57 248.33 331.85 244.05 336.13 C235.94 344.24 227.83 352.34 219.71 360.43 C210.47 369.65 201.24 378.87 192.01 388.1 C173.01 407.07 154.01 426.04 135 445 C136.53 449.77 138.47 454.14 140.78 458.57 C141.15 459.29 141.52 460.01 141.9 460.75 C143.1 463.06 144.3 465.38 145.5 467.69 C146.33 469.29 147.15 470.88 147.98 472.48 C154.52 485.12 161.12 497.73 167.82 510.29 C168.29 511.17 168.76 512.05 169.24 512.96 C170.14 514.65 171.05 516.35 171.96 518.04 C172.35 518.79 172.75 519.54 173.16 520.32 C173.52 520.98 173.87 521.65 174.24 522.33 C175 524 175 524 175 526 C208.66 526 242.32 526 277 526 C283.93 539.53 290.86 553.06 298 567 C301.3 573.27 304.6 579.54 308 586 C310.45 590.74 312.9 595.48 315.33 600.22 C317.16 603.78 318.99 607.34 320.82 610.9 C321.19 611.6 321.55 612.3 321.92 613.02 C325.46 619.9 329.04 626.76 332.62 633.61 C336.36 640.78 340.09 647.95 343.81 655.12 C344.39 656.24 344.96 657.35 345.56 658.49 C348.39 663.96 351.22 669.43 354.05 674.91 C355.41 677.55 356.77 680.19 358.14 682.83 C359.1 684.7 360.06 686.57 361.03 688.45 C364.6 695.39 364.6 695.39 368.43 702.2 C370 705 370 705 370 707 C369.37 707 368.74 706.99 368.08 706.99 C330.6 706.73 293.11 706.57 255.63 706.51 C251.12 706.51 246.62 706.5 242.11 706.49 C241.22 706.49 240.32 706.49 239.4 706.49 C224.89 706.46 210.38 706.38 195.88 706.27 C180.99 706.16 166.1 706.12 151.2 706.13 C142.02 706.14 132.84 706.1 123.65 705.99 C117.35 705.92 111.04 705.91 104.74 705.96 C101.1 705.98 97.47 705.98 93.84 705.9 C79.62 705.08 79.62 705.08 66.62 709.63 C62.62 713.51 59.89 717.89 57.29 722.77 C55.07 726.61 52.18 729.89 49.31 733.25 C48.23 734.57 47.14 735.9 46.06 737.23 C45.54 737.86 45.02 738.5 44.49 739.15 C41.4 742.98 38.43 746.9 35.45 750.81 C32.91 754.13 30.33 757.41 27.75 760.69 C23.38 766.24 19.03 771.8 14.69 777.38 C14.11 778.11 13.54 778.85 12.95 779.61 C12.39 780.32 11.83 781.04 11.26 781.77 C10.72 782.47 10.18 783.16 9.62 783.88 C8.5 785.34 7.4 786.82 6.32 788.32 C5.79 789.05 5.26 789.78 4.71 790.54 C4 791.54 4 791.54 3.27 792.55 C2.85 793.03 2.43 793.51 2 794 C1.34 794 0.68 794 0 794 C-1.21 792.69 -1.21 792.69 -2.58 790.84 C-3.1 790.16 -3.61 789.47 -4.14 788.77 C-4.97 787.65 -4.97 787.65 -5.81 786.5 C-10.33 780.49 -14.92 774.56 -19.69 768.75 C-24.79 762.52 -29.73 756.21 -34.61 749.81 C-37.37 746.21 -40.15 742.64 -42.94 739.06 C-43.53 738.3 -44.13 737.53 -44.74 736.75 C-48.9 731.4 -53.07 726.07 -57.27 720.77 C-57.88 720 -57.88 720 -58.5 719.21 C-58.89 718.73 -59.28 718.26 -59.68 717.77 C-61 716 -61 716 -62.13 713.97 C-64.14 710.62 -65.68 708.39 -69.53 707.26 C-72.76 706.97 -75.9 706.95 -79.15 707 C-81 706.98 -81 706.98 -82.89 706.97 C-86.31 706.94 -89.72 706.96 -93.14 706.99 C-96.83 707.01 -100.52 706.99 -104.21 706.97 C-110.6 706.94 -116.99 706.95 -123.38 706.97 C-132.62 707 -141.85 706.99 -151.09 706.97 C-166.08 706.94 -181.07 706.94 -196.05 706.97 C-210.61 706.99 -225.17 707 -239.73 706.99 C-240.63 706.99 -241.52 706.99 -242.45 706.99 C-246.95 706.98 -251.45 706.98 -255.96 706.97 C-293.3 706.93 -330.65 706.95 -368 707 C-366.89 703.62 -365.83 700.41 -364.14 697.28 C-363.78 696.59 -363.41 695.9 -363.03 695.19 C-362.63 694.45 -362.23 693.7 -361.81 692.94 C-360.91 691.24 -360 689.53 -359.09 687.83 C-358.6 686.9 -358.1 685.97 -357.59 685.01 C-354.63 679.4 -351.72 673.76 -348.81 668.12 C-348.17 666.88 -347.53 665.64 -346.89 664.4 C-345.58 661.87 -344.28 659.34 -342.97 656.81 C-339.75 650.58 -336.53 644.35 -333.31 638.12 C-333 637.52 -332.68 636.91 -332.36 636.29 C-327.78 627.42 -323.17 618.57 -318.55 609.73 C-314.56 602.08 -310.59 594.42 -306.62 586.75 C-306.15 585.84 -306.15 585.84 -305.67 584.91 C-304.4 582.44 -303.13 579.98 -301.85 577.52 C-298.47 570.97 -295.08 564.42 -291.69 557.88 C-291.16 556.86 -290.64 555.84 -290.09 554.8 C-285.11 545.17 -280.05 535.59 -275 526 C-241.34 526 -207.68 526 -173 526 C-172.34 524.02 -171.68 522.04 -171 520 C-170.27 518.45 -169.51 516.92 -168.71 515.4 C-168.02 514.1 -168.02 514.1 -167.32 512.77 C-166.82 511.83 -166.33 510.9 -165.81 509.94 C-164.73 507.88 -163.64 505.82 -162.55 503.75 C-161.98 502.66 -161.4 501.57 -160.81 500.44 C-158.94 496.89 -157.1 493.34 -155.26 489.78 C-154.94 489.17 -154.63 488.56 -154.31 487.93 C-152.71 484.85 -151.12 481.76 -149.54 478.68 C-146.59 472.96 -143.62 467.27 -140.53 461.63 C-140.01 460.66 -139.48 459.69 -138.94 458.7 C-137.96 456.9 -136.98 455.12 -135.97 453.34 C-135.55 452.56 -135.12 451.77 -134.68 450.96 C-134.31 450.29 -133.93 449.62 -133.54 448.92 C-132.81 447.02 -132.81 447.02 -133.59 445.27 C-135.63 441.99 -138.32 439.42 -141.05 436.71 C-141.68 436.08 -142.3 435.45 -142.95 434.81 C-145.05 432.7 -147.16 430.6 -149.27 428.5 C-150.78 426.99 -152.29 425.49 -153.79 423.98 C-157.89 419.88 -161.99 415.79 -166.1 411.7 C-170.38 407.43 -174.67 403.15 -178.95 398.87 C-187.06 390.76 -195.17 382.66 -203.29 374.57 C-212.53 365.35 -221.76 356.13 -230.99 346.9 C-249.99 327.93 -268.99 308.96 -288 290 C-286.44 286.26 -284.14 283.89 -281.29 281.04 C-280.8 280.55 -280.32 280.07 -279.82 279.56 C-278.18 277.92 -276.54 276.29 -274.9 274.66 C-273.72 273.48 -272.54 272.3 -271.36 271.11 C-268.11 267.86 -264.85 264.61 -261.59 261.36 C-258.08 257.85 -254.57 254.35 -251.07 250.84 C-244.99 244.76 -238.91 238.68 -232.82 232.61 C-224.03 223.83 -215.24 215.05 -206.45 206.26 C-192.19 192 -177.92 177.75 -163.66 163.51 C-149.8 149.66 -135.94 135.82 -122.08 121.97 C-121.23 121.12 -120.38 120.27 -119.5 119.39 C-115.21 115.11 -110.93 110.83 -106.65 106.55 C-71.1 71.02 -35.55 35.51 0 0 Z M-1.67 68.42 C-2.35 69.1 -3.02 69.77 -3.71 70.47 C-4.88 71.63 -4.88 71.63 -6.07 72.81 C-7.36 74.11 -7.36 74.11 -8.67 75.43 C-9.58 76.33 -10.49 77.24 -11.42 78.18 C-13.95 80.7 -16.48 83.23 -19 85.77 C-21.72 88.5 -24.44 91.22 -27.17 93.94 C-31.89 98.66 -36.61 103.39 -41.32 108.11 C-48.14 114.95 -54.97 121.78 -61.79 128.61 C-72.87 139.68 -83.93 150.76 -95 161.85 C-105.75 172.62 -116.5 183.39 -127.26 194.15 C-128.26 195.15 -128.26 195.15 -129.27 196.16 C-132.59 199.49 -135.92 202.81 -139.24 206.14 C-166.83 233.75 -194.42 261.37 -222 289 C-218.61 293.03 -215.18 296.95 -211.45 300.68 C-210.59 301.54 -209.74 302.4 -208.85 303.28 C-207.93 304.2 -207.01 305.12 -206.06 306.07 C-205.07 307.06 -204.07 308.06 -203.08 309.05 C-200.4 311.74 -197.71 314.42 -195.03 317.1 C-192.22 319.92 -189.41 322.73 -186.6 325.54 C-181.88 330.26 -177.17 334.97 -172.45 339.68 C-166.99 345.13 -161.54 350.59 -156.08 356.05 C-151.4 360.74 -146.71 365.43 -142.02 370.11 C-139.22 372.91 -136.42 375.71 -133.63 378.51 C-131 381.14 -128.38 383.76 -125.75 386.38 C-124.32 387.81 -122.89 389.24 -121.47 390.67 C-120.2 391.93 -120.2 391.93 -118.91 393.21 C-118.18 393.95 -117.44 394.68 -116.68 395.44 C-115.26 397.11 -115.26 397.11 -114 397 C-113.99 396.03 -113.98 395.06 -113.97 394.05 C-113.93 390.39 -113.87 386.74 -113.79 383.08 C-113.76 381.5 -113.74 379.93 -113.73 378.36 C-113.61 365.39 -112.38 353.86 -103 344 C-94.47 336.21 -86.16 334.26 -74.86 334.64 C-69.85 335.11 -66.24 336.37 -62 339 C-60.95 339.6 -59.9 340.2 -58.81 340.81 C-51.53 346.47 -46.79 353.88 -45 363 C-43.86 376.66 -48.34 386.17 -54.77 397.86 C-56.84 401.68 -58.8 405.54 -60.73 409.44 C-64.95 417.93 -69.28 426.38 -73.62 434.81 C-74.42 436.35 -75.21 437.89 -76 439.42 C-83.93 454.83 -91.9 470.22 -99.91 485.59 C-101.21 488.08 -102.51 490.58 -103.81 493.07 C-104.73 494.83 -105.64 496.58 -106.56 498.34 C-107.39 499.93 -107.39 499.93 -108.23 501.55 C-108.96 502.95 -108.96 502.95 -109.71 504.38 C-110.93 506.86 -111.97 509.43 -113 512 C-97.82 512 -82.64 512 -67 512 C-62.4 500.16 -57.87 488.32 -53.56 476.38 C-53.02 474.87 -52.47 473.36 -51.92 471.85 C-50.61 468.24 -49.31 464.62 -48 461 C-44.37 460.67 -40.74 460.34 -37 460 C-36.88 461.47 -36.77 462.94 -36.65 464.45 C-36.22 469.89 -35.78 475.33 -35.35 480.77 C-35.16 483.13 -34.97 485.48 -34.78 487.84 C-34.52 491.22 -34.25 494.61 -33.97 497.99 C-33.89 499.04 -33.81 500.1 -33.72 501.19 C-33.64 502.17 -33.56 503.15 -33.48 504.16 C-33.41 505.03 -33.34 505.89 -33.27 506.78 C-33.05 509.17 -33.05 509.17 -32 512 C-10.22 512 11.56 512 34 512 C34.93 509.21 35.25 507.06 35.48 504.16 C35.56 503.18 35.64 502.2 35.72 501.19 C35.81 500.13 35.89 499.08 35.97 497.99 C36.06 496.9 36.15 495.82 36.24 494.71 C36.52 491.24 36.79 487.78 37.06 484.31 C37.25 481.97 37.44 479.62 37.63 477.27 C38.09 471.51 38.55 465.76 39 460 C42.63 460.33 46.26 460.66 50 461 C50.81 463.21 50.81 463.21 51.64 465.47 C53.63 470.92 55.63 476.37 57.64 481.83 C58.5 484.19 59.37 486.55 60.23 488.91 C61.48 492.31 62.72 495.7 63.96 499.09 C64.55 500.68 64.55 500.68 65.14 502.3 C65.5 503.28 65.86 504.26 66.23 505.27 C66.71 506.57 66.71 506.57 67.2 507.9 C67.97 510.01 67.97 510.01 69 512 C84.18 512 99.36 512 115 512 C109.38 500.14 103.73 488.38 97.69 476.75 C96.94 475.31 96.2 473.87 95.45 472.43 C90.31 462.49 85.14 452.57 79.95 442.65 C76.07 435.23 72.22 427.8 68.38 420.37 C65.62 415.04 62.86 409.72 60.06 404.41 C58.76 401.95 57.47 399.49 56.18 397.03 C55.27 395.3 54.36 393.57 53.44 391.84 C47.94 381.34 44.94 371.98 47.69 360 C51.03 349.98 56.69 342.65 66.12 337.81 C74.05 333.94 83.37 333.83 91.96 335.61 C100.97 338.84 107.18 344.82 111.5 353.25 C114.32 359.29 115.16 364.18 115.32 370.83 C115.34 371.58 115.36 372.33 115.38 373.1 C115.44 375.48 115.5 377.87 115.56 380.25 C115.61 381.87 115.65 383.49 115.69 385.11 C115.8 389.07 115.9 393.04 116 397 C122.03 392.01 127.54 386.59 133.07 381.05 C134.06 380.05 135.06 379.06 136.05 378.06 C138.74 375.37 141.42 372.69 144.1 370 C146.91 367.18 149.73 364.37 152.54 361.55 C157.86 356.23 163.17 350.91 168.49 345.58 C174.54 339.52 180.6 333.46 186.65 327.4 C199.11 314.93 211.55 302.47 224 290 C219.3 284.36 214.29 279.14 209.09 273.96 C208.21 273.07 207.32 272.18 206.41 271.27 C203.96 268.82 201.52 266.37 199.07 263.93 C196.43 261.28 193.79 258.64 191.15 255.99 C185.98 250.81 180.81 245.64 175.64 240.47 C171.44 236.27 167.24 232.07 163.04 227.86 C151.13 215.95 139.23 204.04 127.32 192.13 C126.67 191.49 126.03 190.85 125.37 190.19 C124.41 189.22 124.41 189.22 123.43 188.24 C113 177.82 102.58 167.38 92.16 156.95 C81.46 146.24 70.76 135.53 60.06 124.83 C54.04 118.82 48.04 112.8 42.03 106.79 C36.92 101.67 31.81 96.56 26.7 91.45 C24.09 88.84 21.48 86.23 18.87 83.62 C16.05 80.79 13.23 77.97 10.4 75.15 C9.57 74.32 8.74 73.48 7.88 72.62 C7.13 71.87 6.38 71.12 5.6 70.35 C4.62 69.38 4.62 69.38 3.63 68.38 C1.35 66.45 0.59 66.5 -1.67 68.42 Z M219.12 560.5 C216.15 564.46 216.45 569.31 217 574 C219.39 584.1 223.16 592.06 230 600 C230.57 600.68 231.14 601.36 231.73 602.07 C237.54 608.41 244.85 612.91 251.96 617.64 C255.06 619.71 258.13 621.82 261.19 623.94 C262.19 624.63 263.2 625.32 264.23 626.03 C270.95 630.81 277.56 636.3 279.67 644.65 C279.94 647.12 279.94 647.12 280 651 C276.44 652.56 274.33 653.05 270.44 652.5 C262.88 649.2 260.36 642.1 257 635 C251.39 635 245.78 635 240 635 C245.11 647.83 250.48 658.91 263.52 665.22 C273.49 669.4 283.78 670.77 294.09 666.93 C297.4 665.32 299.37 663.26 301 660 C302.24 647.18 295.33 636.8 287.7 627.06 C285.06 623.93 282.05 621.37 278.81 618.88 C278.22 618.41 277.62 617.94 277 617.47 C272.09 613.7 266.99 610.27 261.81 606.88 C238.24 591.35 238.24 591.35 235.42 579.59 C235.12 577.38 235.12 577.38 235 574 C238 572 238 572 240.81 572.06 C246.99 573.88 249.84 577.39 252.88 582.81 C253.58 584.19 254.28 585.58 255 587 C259.95 587 264.9 587 270 587 C264.26 574.35 256.76 563.41 243.49 557.97 C234.82 555.1 226.64 554.49 219.12 560.5 Z M-238.56 570.62 C-239.55 572.7 -240.52 574.79 -241.48 576.88 C-243.93 581.92 -246.99 586.52 -250.06 591.19 C-251.25 593.03 -252.43 594.87 -253.61 596.71 C-254.18 597.6 -254.75 598.49 -255.34 599.41 C-257.87 603.36 -260.37 607.34 -262.88 611.31 C-282.97 643.18 -282.97 643.18 -292.98 657.91 C-295.14 661.21 -297.08 664.56 -299 668 C-290.45 669.25 -290.45 669.25 -282 668 C-276.71 663.84 -274.15 656.57 -271.47 650.59 C-268.09 647.05 -265.59 647.24 -260.83 647.12 C-259.81 647.12 -258.8 647.12 -257.75 647.12 C-256.2 647.09 -256.2 647.09 -254.62 647.06 C-252.08 647.02 -249.54 647 -247 647 C-247.29 648.18 -247.58 649.36 -247.88 650.58 C-248.25 652.14 -248.63 653.69 -249 655.25 C-249.19 656.03 -249.38 656.8 -249.58 657.61 C-249.76 658.36 -249.94 659.11 -250.12 659.89 C-250.29 660.58 -250.46 661.27 -250.63 661.99 C-251.12 664.31 -251.12 664.31 -251 668 C-245.06 668 -239.12 668 -233 668 C-230.66 658.83 -228.44 649.66 -226.34 640.43 C-226.1 639.4 -225.86 638.36 -225.62 637.3 C-225.13 635.13 -224.63 632.96 -224.14 630.79 C-219.69 611.28 -215.05 591.84 -209.95 572.49 C-209.65 571.35 -209.65 571.35 -209.34 570.18 C-208.97 568.77 -208.6 567.36 -208.22 565.96 C-207.49 563.2 -207 560.87 -207 558 C-222.63 555.14 -231.18 555.84 -238.56 570.62 Z M-178 558 C-178.58 559.65 -179.17 561.3 -179.77 562.99 C-182.26 570.04 -184.75 577.08 -187.24 584.12 C-188 586.24 -188.75 588.36 -189.5 590.49 C-194.62 604.94 -199.75 619.38 -205.02 633.77 C-205.4 634.8 -205.78 635.83 -206.17 636.89 C-207.91 641.65 -209.66 646.4 -211.43 651.15 C-212.04 652.82 -212.66 654.49 -213.27 656.16 C-213.55 656.91 -213.83 657.65 -214.12 658.42 C-215.38 661.86 -216 664.28 -216 668 C-199.83 668 -183.66 668 -167 668 C-163.85 659.45 -163.85 659.45 -163 652 C-172.9 652 -182.8 652 -193 652 C-192.15 649.54 -191.3 647.08 -190.43 644.54 C-183.91 625.6 -177.51 606.62 -171.31 587.56 C-171.02 586.65 -170.72 585.74 -170.41 584.8 C-167.52 575.89 -164.63 566.99 -162 558 C-167.28 558 -172.56 558 -178 558 Z M-124 558 C-127.52 571.9 -131.05 585.8 -134.56 599.7 C-136.19 606.15 -137.83 612.61 -139.46 619.06 C-141.04 625.28 -142.62 631.51 -144.19 637.73 C-144.79 640.11 -145.4 642.49 -146 644.87 C-146.84 648.19 -147.68 651.51 -148.52 654.84 C-148.77 655.83 -149.03 656.82 -149.29 657.84 C-149.51 658.74 -149.74 659.65 -149.97 660.58 C-150.17 661.36 -150.37 662.15 -150.58 662.96 C-151.1 665.14 -151.1 665.14 -151 668 C-134.5 668 -118 668 -101 668 C-98.85 658.04 -98.85 658.04 -99 652 C-108.9 652 -118.8 652 -129 652 C-128.49 649.82 -127.98 647.65 -127.45 645.4 C-120.67 616.33 -114.31 587.17 -108 558 C-113.28 558 -118.56 558 -124 558 Z M-69 558 C-72.85 582.45 -76.48 606.94 -80.03 631.44 C-80.38 633.82 -80.72 636.2 -81.07 638.58 C-81.62 642.37 -82.17 646.15 -82.71 649.94 C-82.92 651.36 -83.12 652.78 -83.33 654.2 C-83.61 656.15 -83.9 658.1 -84.18 660.06 C-84.34 661.16 -84.5 662.27 -84.66 663.4 C-85.04 665.89 -85.04 665.89 -85 668 C-82.02 668.03 -79.04 668.05 -76.06 668.06 C-75.21 668.07 -74.36 668.08 -73.49 668.09 C-72.68 668.09 -71.87 668.09 -71.04 668.1 C-70.29 668.1 -69.54 668.11 -68.77 668.11 C-66.97 668.19 -66.97 668.19 -66 667 C-65.76 665.68 -65.58 664.34 -65.42 663.01 C-65.32 662.15 -65.22 661.29 -65.11 660.41 C-65.01 659.46 -64.9 658.51 -64.78 657.53 C-64.67 656.53 -64.55 655.54 -64.43 654.51 C-64.04 651.2 -63.66 647.89 -63.28 644.58 C-63.01 642.29 -62.74 640 -62.47 637.7 C-61.91 632.88 -61.35 628.07 -60.8 623.25 C-60.08 617.07 -59.36 610.9 -58.64 604.73 C-58.09 599.99 -57.54 595.25 -56.99 590.51 C-56.72 588.23 -56.46 585.95 -56.19 583.68 C-55.82 580.49 -55.45 577.31 -55.09 574.12 C-54.98 573.18 -54.86 572.24 -54.75 571.27 C-54.65 570.4 -54.55 569.53 -54.45 568.63 C-54.36 567.87 -54.27 567.12 -54.18 566.34 C-53.97 563.57 -54 560.78 -54 558 C-58.95 558 -63.9 558 -69 558 Z M-39 558 C-41.39 583.59 -43.79 609.18 -46.05 634.79 C-46.22 636.75 -46.4 638.71 -46.58 640.66 C-46.82 643.4 -47.06 646.13 -47.3 648.86 C-47.37 649.64 -47.44 650.43 -47.52 651.23 C-48 656.84 -48.06 662.37 -48 668 C-42.72 668 -37.44 668 -32 668 C-30.33 651.23 -29.26 634.46 -28.38 617.62 C-28.24 615.12 -28.1 612.62 -27.97 610.12 C-27.64 604.08 -27.32 598.04 -27 592 C-26.67 592 -26.34 592 -26 592 C-25.77 593.08 -25.54 594.16 -25.3 595.27 C-21.32 613.85 -17.31 632.41 -12.56 650.81 C-12.31 651.79 -12.31 651.79 -12.06 652.79 C-10.08 660.59 -10.08 660.59 -7 668 C-1.06 668 4.88 668 11 668 C12.59 664.82 12.09 661.39 12.04 657.9 C12.03 657.07 12.02 656.23 12.01 655.37 C11.99 652.58 11.95 649.79 11.91 647 C11.89 645.06 11.87 643.11 11.85 641.16 C11.8 637.06 11.75 632.97 11.7 628.87 C11.64 623.67 11.58 618.47 11.53 613.27 C11.48 609.24 11.43 605.2 11.39 601.17 C11.36 599.26 11.34 597.34 11.32 595.43 C11.19 582.93 10.76 570.48 10 558 C5.71 558 1.42 558 -3 558 C-3.66 578.79 -4.32 599.58 -5 621 C-6.75 613.39 -8.51 605.78 -10.31 597.94 C-11.13 594.38 -11.13 594.38 -11.97 590.76 C-14.48 579.87 -16.89 568.98 -19 558 C-25.6 558 -32.2 558 -39 558 Z M25 558 C25.63 580.86 26.39 603.71 27.3 626.55 C27.47 630.82 27.63 635.08 27.8 639.34 C27.92 642.67 28.05 645.99 28.19 649.32 C28.25 650.89 28.31 652.47 28.37 654.04 C28.45 656.21 28.54 658.38 28.63 660.54 C28.68 661.77 28.72 663 28.77 664.26 C28.7 666.91 28.7 666.91 30 668 C32.7 668.07 35.37 668.09 38.06 668.06 C38.82 668.06 39.58 668.05 40.36 668.05 C42.24 668.04 44.12 668.02 46 668 C45.71 662.65 45.42 657.29 45.12 651.94 C45.08 651.13 45.04 650.33 44.99 649.5 C44.51 640.68 44.01 631.87 43.42 623.06 C43.38 622.36 43.33 621.66 43.28 620.94 C43.06 617.65 42.84 614.37 42.61 611.08 C42.16 604.37 41.88 597.72 42 591 C42.26 591.81 42.52 592.61 42.79 593.44 C48.31 610.48 54.13 627.38 60.5 644.12 C60.8 644.92 61.11 645.72 61.42 646.54 C62.29 648.82 63.16 651.1 64.03 653.38 C64.29 654.05 64.54 654.72 64.81 655.41 C66.45 659.66 68.2 663.81 70 668 C76.27 668 82.54 668 89 668 C88.26 656.09 86.67 644.33 85.06 632.51 C84.77 630.36 84.48 628.2 84.19 626.04 C83.43 620.41 82.67 614.78 81.91 609.14 C81.12 603.38 80.35 597.61 79.57 591.85 C78.05 580.56 76.53 569.28 75 558 C70.38 558 65.76 558 61 558 C62.24 573.71 63.88 589.36 65.68 605.01 C65.81 606.16 65.81 606.16 65.94 607.32 C66.11 608.77 66.27 610.21 66.44 611.65 C66.8 614.8 67 617.82 67 621 C59.43 600.08 51.86 579.17 45 558 C38.4 558 31.8 558 25 558 Z M90 558 C90.65 565.14 91.39 572.08 92.57 579.12 C92.72 580.07 92.88 581.01 93.03 581.98 C93.54 585.06 94.05 588.14 94.56 591.22 C94.92 593.38 95.27 595.53 95.63 597.69 C96.37 602.18 97.11 606.67 97.86 611.16 C98.81 616.93 99.76 622.7 100.71 628.46 C101.44 632.9 102.17 637.34 102.91 641.78 C103.26 643.9 103.61 646.03 103.96 648.16 C104.45 651.12 104.94 654.08 105.43 657.04 C105.58 657.93 105.72 658.81 105.87 659.72 C106.51 663.98 106.51 663.98 108 668 C124.83 668 141.66 668 159 668 C157.53 657.85 157.53 657.85 155 652 C144.44 652 133.88 652 123 652 C122.34 647.71 121.68 643.42 121 639 C120.32 635.49 119.63 631.99 118.88 628.49 C117.47 621.43 117.47 621.43 119 618 C121.48 615.67 124.21 613.75 127 611.81 C128.48 610.76 129.96 609.7 131.44 608.64 C132.1 608.18 132.75 607.72 133.43 607.25 C135.14 606.07 135.14 606.07 136 604 C125.11 603.5 125.11 603.5 114 603 C112.02 593.1 110.04 583.2 108 573 C116.91 573 125.82 573 135 573 C134.36 564.38 134.36 564.38 132 558 C118.14 558 104.28 558 90 558 Z M147 558 C149.9 570.86 153.28 583.55 156.82 596.24 C157.38 598.23 157.93 600.21 158.48 602.2 C159.63 606.32 160.78 610.45 161.93 614.57 C163.4 619.86 164.88 625.14 166.35 630.43 C167.75 635.49 169.16 640.56 170.57 645.62 C170.84 646.58 171.11 647.54 171.39 648.53 C172.14 651.25 172.9 653.96 173.66 656.67 C173.88 657.47 174.1 658.28 174.33 659.1 C175.17 662.09 176.02 665.06 177 668 C182.94 668 188.88 668 195 668 C194.23 662.32 194.23 662.32 192.89 656.93 C192.57 655.86 192.57 655.86 192.24 654.77 C191.89 653.65 191.89 653.65 191.53 652.51 C191.29 651.73 191.05 650.94 190.8 650.13 C190.3 648.49 189.79 646.84 189.28 645.2 C188.5 642.68 187.72 640.16 186.95 637.63 C186.46 636.03 185.96 634.43 185.47 632.82 C185.12 631.69 185.12 631.69 184.76 630.54 C183.59 626.69 183.59 626.69 182 623 C184.4 623.03 186.79 623.1 189.19 623.19 C189.86 623.19 190.53 623.2 191.23 623.21 C194.77 623.36 196.73 623.79 199.53 626 C202.6 629.73 203.85 633.21 205.3 637.77 C205.58 638.6 205.86 639.43 206.14 640.29 C207.03 642.94 207.89 645.59 208.75 648.25 C209.63 650.92 210.51 653.58 211.4 656.25 C211.95 657.91 212.49 659.56 213.03 661.22 C214 664.9 214 664.9 216 668 C217.34 668.09 218.69 668.11 220.04 668.1 C220.84 668.09 221.65 668.09 222.49 668.09 C223.34 668.08 224.19 668.07 225.06 668.06 C225.92 668.06 226.77 668.05 227.65 668.05 C229.77 668.04 231.88 668.02 234 668 C232.07 662.4 230.12 656.81 228.14 651.23 C227.34 648.97 226.55 646.71 225.77 644.45 C224.49 640.77 223.18 637.11 221.88 633.44 C221.47 632.25 221.06 631.07 220.64 629.85 C220.24 628.74 219.84 627.64 219.43 626.5 C219.08 625.51 218.73 624.52 218.37 623.5 C215.95 619.09 211.81 617.76 207.19 616.31 C205.81 615.88 204.42 615.45 203 615 C206.3 613.35 209.6 611.7 213 610 C211.51 605.91 210.02 601.82 208.52 597.73 C208.01 596.35 207.51 594.96 207 593.57 C202.5 578.69 202.5 578.69 194.75 565.62 C193.97 564.72 193.97 564.72 193.17 563.79 C187.33 558.98 181.81 557.4 174.34 557.61 C173.56 557.62 172.77 557.62 171.96 557.63 C169.47 557.65 166.99 557.7 164.5 557.75 C162.8 557.77 161.1 557.79 159.41 557.8 C155.27 557.85 151.14 557.92 147 558 Z M0 695 C-1.01 697.1 -2.01 699.21 -3 701.31 C-3.56 702.48 -4.11 703.66 -4.69 704.86 C-6.19 707.89 -6.19 707.89 -6 711 C-6.56 711.17 -7.11 711.34 -7.69 711.52 C-13.1 713.23 -17.98 715.35 -23 718 C-20.15 720.09 -20.15 720.09 -17.11 720.95 C-11.34 722.97 -7.49 724.49 -4.59 729.95 C-2.79 733.88 -1.34 737.9 0 742 C0.66 742 1.32 742 2 742 C2.32 740.93 2.64 739.85 2.97 738.75 C7.08 726.67 7.08 726.67 13.03 723.38 C16.92 721.59 20.9 720.22 25 719 C22.44 715.95 19.59 714.79 15.94 713.31 C14.87 712.88 13.81 712.44 12.71 711.99 C10.17 710.89 10.17 710.89 8 711 C7.89 710.29 7.78 709.59 7.66 708.86 C6.94 705.73 5.81 703.1 4.44 700.19 C3.75 698.72 3.75 698.72 3.06 697.23 C2.71 696.49 2.36 695.76 2 695 C1.34 695 0.68 695 0 695 Z " fill="#FFFFFF" transform="translate(399,3)"/>
<path d="M0 0 C0.66 0 1.32 0 2 0 C2.32 0.87 2.63 1.74 2.96 2.64 C8.55 20.83 8.55 20.83 20.47 34.26 C22.93 35.17 25.42 35.9 27.98 36.47 C31.79 37.47 35.3 39.2 38.88 40.81 C39.57 41.1 40.27 41.4 40.99 41.7 C45.88 43.77 45.88 43.77 47 46 C45.65 46.53 45.65 46.53 44.27 47.06 C40.87 48.4 37.5 49.8 34.14 51.21 C32.69 51.81 31.24 52.4 29.77 52.96 C21.74 56.08 15.54 58.81 11.75 66.91 C10.79 69.25 9.87 71.62 9 74 C8.27 75.7 7.53 77.39 6.79 79.09 C6.21 80.51 5.63 81.94 5.06 83.38 C4.76 84.12 4.46 84.87 4.15 85.64 C3.43 87.43 2.71 89.21 2 91 C-1 90 -1 90 -2.44 87.46 C-2.93 86.35 -3.42 85.24 -3.92 84.1 C-4.45 82.9 -4.98 81.7 -5.53 80.46 C-5.8 79.83 -6.07 79.2 -6.35 78.55 C-7.18 76.63 -8.03 74.72 -8.88 72.81 C-13 63.42 -13 63.42 -13 60 C-14.3 59.58 -14.3 59.58 -15.62 59.16 C-21.15 57.26 -26.46 54.89 -31.81 52.56 C-32.97 52.07 -34.13 51.58 -35.32 51.08 C-36.42 50.6 -37.51 50.12 -38.64 49.63 C-39.65 49.2 -40.65 48.76 -41.69 48.32 C-44 47 -44 47 -45 44 C-44.13 43.68 -43.26 43.36 -42.36 43.03 C-39.08 41.8 -35.82 40.52 -32.57 39.21 C-31.17 38.66 -29.76 38.13 -28.35 37.61 C-20.36 34.68 -14.51 32.08 -10.78 24.09 C-9.81 21.74 -8.88 19.38 -8 17 C-7.28 15.38 -6.56 13.77 -5.82 12.17 C-5.25 10.84 -4.69 9.52 -4.12 8.19 C-1.12 1.12 -1.12 1.12 0 0 Z " fill="#FFFFFF" transform="translate(467,202)"/>
<path d="M0 0 C3 1 3 1 4.34 3.68 C4.8 4.85 5.25 6.02 5.71 7.23 C6.24 8.52 6.77 9.81 7.3 11.1 C8.12 13.13 8.93 15.16 9.71 17.21 C12.41 24.29 14.68 30.04 21.8 33.65 C23.85 34.48 25.92 35.26 28 36 C29.78 36.77 31.56 37.55 33.33 38.34 C34.97 39.02 36.61 39.7 38.25 40.38 C39.1 40.73 39.95 41.08 40.83 41.45 C42.89 42.3 44.94 43.15 47 44 C46 47 46 47 43.26 48.53 C42.06 49.06 40.86 49.59 39.63 50.14 C38.99 50.42 38.35 50.71 37.7 51 C36.35 51.6 35 52.19 33.64 52.78 C31.57 53.68 29.5 54.6 27.44 55.53 C17.32 60 17.32 60 15 60 C14.88 60.7 14.77 61.41 14.65 62.13 C13.41 67.6 10.87 72.63 8.62 77.75 C8.13 78.91 7.63 80.07 7.12 81.27 C6.64 82.37 6.16 83.47 5.66 84.61 C5.23 85.62 4.79 86.63 4.33 87.67 C3 90 3 90 0 91 C-0.25 90.42 -0.49 89.83 -0.75 89.23 C-1.89 86.53 -3.04 83.83 -4.19 81.12 C-4.57 80.21 -4.96 79.29 -5.36 78.34 C-6.16 76.48 -6.97 74.62 -7.81 72.76 C-9 70 -9 70 -9.86 67.34 C-12.13 61.23 -15.47 58.68 -21.27 55.96 C-24.09 54.71 -26.95 53.54 -29.81 52.38 C-31.28 51.75 -32.76 51.12 -34.22 50.49 C-37.8 48.96 -41.4 47.47 -45 46 C-43.43 42.86 -40.78 42.6 -37.55 41.38 C-36.21 40.85 -34.88 40.32 -33.54 39.79 C-31.44 38.96 -29.34 38.13 -27.22 37.35 C-17 33.55 -17 33.55 -10.32 25.2 C-9.5 23.15 -8.73 21.08 -8 19 C-7.23 17.22 -6.45 15.44 -5.66 13.67 C-4.98 12.03 -4.3 10.39 -3.62 8.75 C-3.27 7.9 -2.92 7.05 -2.55 6.17 C-1.7 4.11 -0.85 2.06 0 0 Z " fill="#FFFFFF" transform="translate(331,202)"/>
<path d="M0 0 C0.66 0 1.32 0 2 0 C2.32 0.69 2.64 1.38 2.97 2.09 C9.21 15.54 15.45 28.97 21.71 42.4 C22.32 43.71 22.92 45.02 23.53 46.32 C24.39 48.16 25.24 50 26.1 51.84 C26.59 52.88 27.08 53.93 27.58 55.01 C28.58 57.11 29.62 59.19 30.68 61.26 C32 64 32 64 32 66 C31.34 66 30.68 66 30 66 C28.56 64.55 28.56 64.55 26.88 62.54 C22.37 57.24 17.58 52.22 12.79 47.18 C9.79 44.02 6.85 40.88 4.13 37.48 C3.43 36.66 2.73 35.84 2 35 C1.34 35 0.68 35 0 35 C-1.57 36.55 -1.57 36.55 -3.19 38.56 C-5.53 41.33 -7.91 43.97 -10.5 46.5 C-14.92 50.85 -18.93 55.54 -22.93 60.29 C-23.55 61.02 -24.17 61.75 -24.81 62.5 C-25.38 63.17 -25.94 63.84 -26.52 64.53 C-28 66 -28 66 -30 66 C-28.74 61.99 -27.27 58.26 -25.42 54.49 C-24.9 53.44 -24.39 52.38 -23.86 51.29 C-23.31 50.16 -22.76 49.04 -22.19 47.88 C-21.02 45.46 -19.85 43.05 -18.68 40.64 C-18.38 40.02 -18.08 39.4 -17.77 38.76 C-14.38 31.75 -11.09 24.69 -7.81 17.62 C-7.26 16.44 -6.71 15.25 -6.14 14.03 C-3.99 9.38 -1.86 4.77 0 0 Z " fill="#FFFFFF" transform="translate(399,272)"/>
<path d="M0 0 C2.06 -0.11 4.12 -0.19 6.19 -0.25 C7.34 -0.3 8.48 -0.34 9.67 -0.39 C13.93 0.11 15.17 0.74 18 4 C19.75 7.71 21.04 11.54 22.31 15.44 C22.67 16.47 23.03 17.51 23.4 18.58 C26.43 27.57 26.43 27.57 26 32 C24 34 24 34 20.74 34.2 C18.83 34.16 18.83 34.16 16.88 34.12 C14.95 34.1 14.95 34.1 12.99 34.07 C12 34.05 11.02 34.02 10 34 C8.89 30.71 7.79 27.42 6.69 24.12 C6.38 23.21 6.07 22.29 5.75 21.34 C4.21 16.74 2.7 12.13 1.27 7.49 C1.02 6.7 0.78 5.91 0.53 5.09 C0 3 0 3 0 0 Z " fill="#FFFFFF" transform="translate(566,576)"/>
<path d="M0 0 C1.62 3.23 -0.05 6.26 -1.05 9.56 C-1.39 10.68 -1.39 10.68 -1.72 11.83 C-2.19 13.41 -2.67 14.99 -3.14 16.57 C-3.87 18.99 -4.59 21.41 -5.31 23.84 C-5.77 25.37 -6.22 26.9 -6.68 28.44 C-7 29.53 -7 29.53 -7.34 30.64 C-8.88 35.76 -8.88 35.76 -10 38 C-9.22 38.31 -8.43 38.62 -7.62 38.94 C-5 40 -5 40 -3 41 C-3 41.66 -3 42.32 -3 43 C-3.86 43.26 -4.71 43.51 -5.6 43.78 C-13.06 46.28 -17.42 48.52 -21.73 55.21 C-22.15 55.8 -22.57 56.39 -23 57 C-23.66 57 -24.32 57 -25 57 C-24.99 56.32 -24.98 55.65 -24.97 54.95 C-24.97 49.69 -24.97 49.69 -27.62 45.45 C-29.76 44.21 -29.76 44.21 -33 43 C-33 42.34 -33 41.68 -33 41 C-31.92 40.74 -31.92 40.74 -30.81 40.47 C-25.34 38.87 -21.7 37.49 -18.62 32.54 C-17.67 30.78 -16.76 28.99 -15.88 27.19 C-14.88 25.3 -13.88 23.41 -12.88 21.53 C-12.4 20.6 -11.92 19.66 -11.42 18.7 C-9.37 14.79 -7.11 11.02 -4.81 7.25 C-4.44 6.63 -4.06 6 -3.68 5.36 C-1.14 1.14 -1.14 1.14 0 0 Z " fill="#FFFFFF" transform="translate(171,581)"/>
</svg>
