<?xml version="1.0" encoding="UTF-8"?>
<!-- Generator: https://ezgif.com/png-to-svg -->
<svg version="1.1" xmlns="http://www.w3.org/2000/svg" width="512" height="512" viewBox="-36.356 -41.511 672.672 672.672" preserveAspectRatio="xMidYMid meet">
<path d="M0 0 C1.58 1.63 1.58 1.63 2.81 3.56 C3.44 4.52 3.44 4.52 4.08 5.5 C4.38 6 4.69 6.49 5 7 C5.71 6.91 6.43 6.82 7.16 6.73 C13.9 5.88 20.64 5.04 27.38 4.21 C30.84 3.78 34.3 3.35 37.77 2.92 C41.75 2.41 45.74 1.92 49.73 1.43 C50.96 1.28 52.2 1.12 53.48 0.95 C54.64 0.81 55.8 0.67 56.99 0.53 C58.01 0.4 59.03 0.28 60.08 0.15 C63.22 -0.01 65.91 0.44 69 1 C70.68 1.04 72.36 1.03 74.04 0.97 C75.47 0.93 75.47 0.93 76.94 0.88 C78.49 0.83 78.49 0.83 80.06 0.77 C82.31 0.71 84.55 0.64 86.8 0.58 C88.56 0.53 88.56 0.53 90.36 0.48 C114.14 -0.18 137.37 0.35 161 3 C162.34 3.15 163.68 3.29 165.02 3.44 C172.02 4.22 179.02 5.06 186 6 C186.42 5.24 186.42 5.24 186.85 4.47 C187.25 3.82 187.65 3.17 188.06 2.5 C188.45 1.85 188.83 1.2 189.22 0.53 C191 -1 191 -1 194.22 -1.31 C198.07 -0.99 201.66 -0.38 205.43 0.47 C206.14 0.62 206.84 0.78 207.56 0.94 C209.85 1.45 212.15 1.98 214.44 2.5 C216.05 2.87 217.67 3.23 219.28 3.6 C224.19 4.71 229.1 5.85 234 7 C234.73 7.17 235.46 7.34 236.22 7.52 C256.08 12.18 275.6 17.66 295 24 C296.82 24.58 296.82 24.58 298.67 25.18 C302.25 26.33 305.81 27.5 309.38 28.69 C310.44 29.03 311.51 29.38 312.62 29.73 C320.98 32.58 326.43 35.71 330.7 43.61 C331.52 45.31 332.33 47.03 333.12 48.75 C333.53 49.59 333.93 50.44 334.35 51.3 C335.17 53.02 335.98 54.74 336.78 56.47 C337.95 58.98 337.95 58.98 339.29 61.19 C344.11 69.59 345.14 78.89 346.69 88.31 C346.98 90.04 347.28 91.76 347.58 93.48 C348.29 97.59 348.97 101.7 349.64 105.81 C349.97 107.8 350.32 109.79 350.69 111.77 C353.1 125.56 349.78 135.53 344.89 148.48 C341.83 157.25 341.99 162.33 345 171 C345.45 172.5 345.89 174.01 346.32 175.52 C347.57 179.88 348.89 184.21 350.23 188.54 C350.78 190.34 351.32 192.14 351.86 193.94 C355.33 205.69 359.5 215.71 366.48 225.79 C368.18 228.26 369.84 230.75 371.5 233.24 C375.33 238.97 379.19 244.67 383.06 250.38 C385.05 253.31 387.05 256.25 389.04 259.19 C390.26 261.01 391.49 262.82 392.72 264.63 C393.27 265.44 393.82 266.25 394.38 267.08 C394.87 267.79 395.35 268.5 395.85 269.23 C398.1 272.68 398.28 274.87 398 279 C396.93 281.91 396.93 281.91 395.44 284.92 C394.61 286.58 394.61 286.58 393.77 288.28 C393.19 289.43 392.6 290.57 392 291.75 C391.17 293.44 391.17 293.44 390.32 295.17 C387.06 301.66 383.5 307.33 378.8 312.88 C376.33 315.79 374.18 318.87 372 322 C368.53 321.54 365.33 321.11 362 320 C361.79 320.54 361.59 321.07 361.38 321.62 C360 324 360 324 357.07 326.34 C352.48 330.87 352.32 336.81 351.44 342.94 C351.03 345.38 350.62 347.82 350.2 350.27 C349.9 352.02 349.9 352.02 349.6 353.81 C346.25 371.75 337.07 387.69 325.95 401.89 C319.15 410.62 313.13 419.19 308 429 C307.51 429.9 307.02 430.81 306.51 431.74 C304.44 435.67 302.84 439.43 301.59 443.7 C294.83 466.67 294.83 466.67 285.56 471.87 C282.12 473.49 278.61 474.78 275 476 C273.46 476.56 271.92 477.12 270.39 477.69 C249.87 485 249.87 485 241 485 C241.09 485.56 241.19 486.11 241.29 486.69 C242.27 492.51 243.22 498.33 244.16 504.16 C244.51 506.33 244.87 508.5 245.24 510.67 C245.76 513.8 246.27 516.93 246.76 520.06 C246.93 521.02 247.1 521.98 247.27 522.97 C248.26 529.44 247.63 534.01 245 540 C244.72 540.65 244.44 541.31 244.16 541.98 C243.37 543.79 242.51 545.55 241.62 547.31 C241.13 548.31 241.13 548.31 240.62 549.32 C235.81 558.65 229.84 567.3 224 576 C223.42 577.05 222.84 578.11 222.24 579.19 C220 582 220 582 216.92 583 C215.71 583.12 214.5 583.23 213.25 583.36 C212.57 583.43 211.89 583.5 211.18 583.58 C208.98 583.81 206.77 584 204.56 584.19 C203.21 584.33 201.85 584.46 200.5 584.61 C196.4 585.03 192.3 585.37 188.2 585.72 C185.25 585.98 182.3 586.27 179.35 586.56 C154.28 589.04 129.33 589.5 104.16 589.45 C99.78 589.44 95.4 589.44 91.02 589.47 C62.83 589.61 35.09 588.53 7.04 585.67 C1.05 585.07 -4.91 584.68 -10.92 584.46 C-16.08 584.18 -20.81 583.89 -24.84 580.42 C-28.33 576.41 -30.69 571.96 -32.94 567.17 C-34.47 564.03 -36.38 561.23 -38.31 558.31 C-46.15 545.41 -48.99 535.35 -46.72 520.36 C-46.53 519.02 -46.53 519.02 -46.33 517.65 C-46.05 515.78 -45.77 513.91 -45.49 512.04 C-45.06 509.18 -44.64 506.31 -44.22 503.45 C-43.95 501.62 -43.68 499.8 -43.41 497.98 C-43.28 497.12 -43.16 496.27 -43.03 495.39 C-42.91 494.59 -42.79 493.8 -42.66 492.98 C-42.51 491.93 -42.51 491.93 -42.35 490.86 C-42 489 -42 489 -41 486 C-41.85 485.85 -42.7 485.71 -43.58 485.55 C-54.65 483.51 -65.35 480.63 -76 477 C-76.8 476.74 -77.6 476.47 -78.42 476.2 C-86.49 473.43 -92.69 470.78 -96.87 463.02 C-98.13 460.34 -99.25 457.62 -100.28 454.84 C-101.06 452.75 -101.06 452.75 -102.59 449.88 C-104.02 446.97 -104.82 444.26 -105.62 441.12 C-110.48 425.03 -121.14 411.84 -131.48 398.89 C-145.15 381.46 -152 361.31 -154.82 339.53 C-155.93 332.29 -157.91 327.87 -162.83 322.42 C-164.95 320.72 -164.95 320.72 -167.71 321.21 C-168.55 321.45 -169.39 321.69 -170.25 321.94 C-173.09 322.43 -173.09 322.43 -176 322 C-184.64 314.35 -189.85 303.04 -195.19 293 C-195.75 291.94 -196.32 290.88 -196.9 289.78 C-202.32 279.16 -202.32 279.16 -202 273 C-200.62 269.99 -198.73 267.53 -196.69 264.94 C-195.56 263.43 -194.43 261.92 -193.31 260.41 C-192.74 259.66 -192.18 258.91 -191.6 258.14 C-189.37 255.15 -187.3 252.06 -185.25 248.94 C-184.45 247.73 -183.65 246.52 -182.85 245.3 C-182.41 244.64 -181.98 243.98 -181.53 243.3 C-179.69 240.53 -177.82 237.77 -175.96 235.01 C-175.25 233.95 -174.53 232.88 -173.8 231.79 C-172.38 229.68 -170.96 227.58 -169.53 225.47 C-162.49 214.97 -158.28 204.55 -154.25 192.62 C-153.83 191.4 -153.83 191.4 -153.41 190.15 C-146.75 170.56 -140.46 150.85 -134.22 131.12 C-131.96 124 -129.67 116.89 -127.37 109.78 C-125.75 104.8 -124.15 99.81 -122.54 94.82 C-121.77 92.41 -120.99 90 -120.2 87.6 C-119.1 84.25 -118.03 80.9 -116.96 77.54 C-116.63 76.55 -116.3 75.55 -115.96 74.52 C-115.52 73.14 -115.52 73.14 -115.08 71.73 C-114.82 70.93 -114.56 70.14 -114.3 69.31 C-113.57 63.68 -118.06 58.43 -120.86 53.82 C-122.29 50.29 -121.93 48.66 -121 45 C-120.63 43.12 -120.63 43.12 -120.25 41.2 C-118.74 35.7 -116.81 30.72 -111.78 27.64 C-105.68 25.01 -99.23 23.51 -92.78 21.95 C-88.92 20.98 -85.11 19.88 -81.3 18.73 C-64.64 13.72 -47.83 9.33 -30.96 5.14 C-28.74 4.59 -26.53 4.04 -24.32 3.48 C-21.21 2.7 -18.09 1.94 -14.98 1.18 C-14.04 0.94 -13.11 0.7 -12.14 0.46 C-11.27 0.25 -10.41 0.04 -9.51 -0.17 C-8.38 -0.45 -8.38 -0.45 -7.23 -0.73 C-4.51 -1.06 -2.61 -0.84 0 0 Z " fill="#090608" transform="translate(202,1)"/>
<path d="M0 0 C8.2 1.19 16.01 2.97 23.94 5.38 C24.99 5.69 26.04 6 27.13 6.33 C30.09 7.21 33.04 8.1 36 9 C37.26 9.38 38.51 9.75 39.81 10.14 C42.88 11.06 45.94 12.03 49 13 C50.1 13.33 50.1 13.33 51.21 13.67 C53.67 14.41 56.12 15.17 58.56 15.94 C59.34 16.17 60.11 16.4 60.91 16.63 C67.73 18.81 70.17 22.31 73.58 28.48 C76.52 34.55 77.61 40.75 78.69 47.38 C78.89 48.52 79.09 49.66 79.29 50.84 C79.88 54.22 80.44 57.61 81 61 C81.29 62.68 81.29 62.68 81.58 64.39 C81.85 65.99 81.85 65.99 82.12 67.62 C82.29 68.57 82.45 69.52 82.61 70.49 C83.69 77.44 82.45 82.56 80 89 C73.28 87.7 67.28 85.7 61 83 C61.84 84.67 61.84 84.67 62.69 86.38 C64.64 90.77 65.96 95.24 67.19 99.88 C69.3 107.84 71.8 115.63 74.44 123.44 C78.83 136.47 83.02 149.55 87.06 162.69 C87.38 163.7 87.7 164.72 88.03 165.77 C88.73 168.12 89.39 170.48 90 172.86 C92.48 182.06 96.11 188.81 101.99 196.3 C104 199 104 199 104 201 C99.24 199.43 94.5 197.83 89.77 196.18 C87.97 195.55 86.17 194.93 84.38 194.31 C83.47 193.99 82.57 193.67 81.64 193.34 C76.65 191.64 72.34 190.29 67 191 C64.33 192.38 64.33 192.38 62.12 194.38 C61.36 195 60.6 195.63 59.82 196.27 C57.92 197.88 57.92 197.88 57 200 C58.28 200.27 59.56 200.54 60.88 200.81 C66.01 201.97 71 203.36 76 205 C77.58 205.44 77.58 205.44 79.2 205.88 C80.27 206.23 81.34 206.58 82.44 206.94 C83.43 207.24 84.41 207.53 85.43 207.84 C89.78 211.49 90.01 216.6 91 222 C91.23 223.18 91.46 224.37 91.69 225.58 C92.4 229.32 93.05 233.06 93.69 236.81 C93.91 238.08 94.14 239.35 94.37 240.66 C94.69 242.51 94.69 242.51 95.01 244.39 C95.3 246.05 95.3 246.05 95.59 247.73 C96.46 254.63 96.3 258.46 92.19 264.19 C91.48 265.19 90.77 266.2 90.04 267.23 C88 270 88 270 86.27 271.77 C84.17 275.46 84.56 279.39 84.5 283.56 C83.82 302.58 76.25 321.96 63 336 C62.34 336 61.68 336 61 336 C60.74 336.58 60.47 337.16 60.2 337.76 C58.95 340.09 57.57 341.84 55.81 343.81 C55.19 344.52 54.56 345.23 53.91 345.95 C52.23 347.75 50.5 349.4 48.69 351.06 C42.81 356.79 37.66 364.68 34 372 C31.22 373.1 28.47 374.08 25.62 375 C24.8 375.27 23.98 375.54 23.13 375.81 C7.7 380.72 -6.27 381.39 -22 377 C-20.13 371.25 -20.13 371.25 -19 369 C-17.65 352.54 -20.41 339.35 -26.94 324.37 C-33.71 308.64 -39.95 290.39 -33.5 273.69 C-32.69 271.78 -31.86 269.88 -31 268 C-31.87 267.74 -32.74 267.49 -33.63 267.23 C-37.09 265.97 -39.81 264.4 -42.88 262.38 C-43.84 261.74 -44.81 261.11 -45.8 260.46 C-46.53 259.98 -47.25 259.5 -48 259 C-47.58 259.94 -47.58 259.94 -47.16 260.91 C-44.89 266.27 -43.25 271.15 -43 277 C-42.93 278.08 -42.85 279.16 -42.77 280.27 C-42.07 298.06 -49.57 311.84 -58 327 C-63.21 336.38 -67.78 345.36 -70.95 355.64 C-72.12 359.39 -73.52 362.98 -75.06 366.59 C-76.07 369.05 -76.07 369.05 -76.79 371.88 C-78.83 379.02 -78.83 379.02 -81.95 381.63 C-84.58 383.02 -87.19 384.02 -90 385 C-91.68 385.64 -91.68 385.64 -93.39 386.3 C-122.72 396.91 -152.37 394.9 -180.54 381.82 C-183.82 379.39 -184.41 377.27 -185.68 373.42 C-185.91 372.77 -186.13 372.12 -186.36 371.45 C-187.07 369.37 -187.75 367.28 -188.44 365.19 C-193.32 350.57 -198.69 336.69 -206.56 323.38 C-213.91 310.93 -220.42 298.5 -220.31 283.75 C-220.31 283.02 -220.31 282.28 -220.31 281.52 C-220.19 275.05 -218.93 269.17 -217 263 C-216.66 261.67 -216.32 260.34 -216 259 C-217.09 259.72 -217.09 259.72 -218.2 260.46 C-219.65 261.41 -219.65 261.41 -221.12 262.38 C-222.08 263 -223.03 263.63 -224.01 264.27 C-226.96 265.98 -229.74 267.04 -233 268 C-232.58 268.88 -232.16 269.76 -231.72 270.67 C-230.9 272.41 -230.9 272.41 -230.06 274.19 C-229.52 275.34 -228.97 276.48 -228.41 277.67 C-221.98 292.87 -229.42 310.19 -233.78 325.1 C-236.25 333.65 -238.24 342.28 -240 351 C-240.2 351.95 -240.4 352.91 -240.6 353.89 C-241.16 358.22 -241.11 362.51 -241.06 366.88 C-241.06 367.75 -241.05 368.63 -241.05 369.54 C-241.04 371.69 -241.02 373.85 -241 376 C-252.65 382.49 -267.58 381.48 -280.19 378.25 C-282.47 377.53 -284.74 376.78 -287 376 C-287.96 375.75 -288.91 375.49 -289.89 375.23 C-297.69 372.86 -300.12 367.81 -304 361 C-308.28 354.79 -313.3 349.55 -318.77 344.36 C-320.96 342.04 -322.39 339.74 -324 337 C-324.64 336.71 -325.28 336.42 -325.94 336.12 C-329.15 334.37 -330.29 331.12 -332 328 C-332.66 326.84 -333.33 325.69 -334 324.54 C-335.38 322.15 -336.75 319.75 -338.11 317.35 C-339.16 315.49 -340.21 313.64 -341.3 311.81 C-345.39 304.5 -347.04 295.87 -347.09 287.55 C-347.15 275.88 -349.37 269.98 -357 261 C-362.04 253.44 -357.21 238.5 -355.75 229.66 C-355.5 228.12 -355.26 226.58 -355.04 225.04 C-354.71 222.78 -354.34 220.53 -353.96 218.27 C-353.82 217.24 -353.82 217.24 -353.68 216.19 C-353.33 214.26 -353.33 214.26 -352 211 C-348.63 209.14 -348.63 209.14 -345 208 C-344.28 207.71 -343.57 207.42 -342.83 207.12 C-340.87 206.37 -338.9 205.62 -336.94 204.88 C-336.26 204.61 -335.57 204.35 -334.87 204.07 C-330.93 202.58 -327.21 201.54 -323 201 C-324.53 198.25 -325.95 196.05 -328.19 193.81 C-328.79 193.21 -329.38 192.62 -330 192 C-330 191.34 -330 190.68 -330 190 C-339.18 191.15 -347.46 194.12 -356.08 197.3 C-359.69 198.62 -363.35 199.8 -367 201 C-365.45 197.62 -363.44 194.81 -361.26 191.8 C-356.3 184.4 -353.64 176.64 -350.9 168.22 C-350.37 166.63 -349.84 165.04 -349.3 163.46 C-348.2 160.16 -347.11 156.86 -346.03 153.55 C-344.65 149.32 -343.23 145.09 -341.81 140.87 C-340.71 137.61 -339.63 134.34 -338.55 131.07 C-338.03 129.51 -337.51 127.95 -336.99 126.39 C-336.26 124.22 -335.55 122.05 -334.85 119.87 C-334.44 118.64 -334.04 117.41 -333.62 116.13 C-332.75 113.12 -332.75 113.12 -333.76 110.76 C-334.17 110.18 -334.58 109.6 -335 109 C-335.66 108.01 -336.32 107.02 -337 106 C-334.06 104.04 -332.03 103.32 -328.66 102.41 C-327.6 102.12 -326.53 101.83 -325.44 101.53 C-324.32 101.23 -323.21 100.93 -322.06 100.62 C-313.61 98.34 -305.28 95.86 -297 93 C-296.89 83.93 -297.06 75.04 -298 66 C-298.13 66.55 -298.26 67.11 -298.39 67.68 C-302.2 83.33 -302.2 83.33 -306.24 87.08 C-308.87 88.14 -311.19 88.64 -314 89 C-315.53 89.32 -315.53 89.32 -317.09 89.64 C-319.72 90.17 -322.34 90.62 -325 91 C-324.31 85.39 -322.52 80.31 -320.69 75 C-318.66 69.03 -316.67 63.08 -315 57 C-313.1 50.12 -310.84 43.39 -308.55 36.63 C-307.69 34.09 -306.84 31.55 -306 29 C-305.7 28.11 -305.39 27.22 -305.08 26.31 C-304.8 25.44 -304.52 24.57 -304.22 23.67 C-303.96 22.89 -303.7 22.12 -303.44 21.32 C-302.92 18.56 -303.3 16.7 -304 14 C-304.19 13.24 -304.37 12.47 -304.56 11.69 C-304.71 11.13 -304.85 10.57 -305 10 C-300.94 8.82 -296.88 7.66 -292.81 6.5 C-291.66 6.17 -290.51 5.83 -289.33 5.49 C-287.66 5.01 -287.66 5.01 -285.96 4.53 C-284.94 4.24 -283.91 3.94 -282.86 3.64 C-280.13 3.03 -277.79 2.87 -275 3 C-276 5 -277 7 -278 9 C-278.12 11.43 -278.17 13.83 -278.16 16.26 C-278.16 17.02 -278.16 17.77 -278.16 18.55 C-278.06 28.33 -277.2 38.06 -276.38 47.81 C-276.2 49.94 -276.02 52.07 -275.85 54.2 C-275.3 60.79 -274.74 67.39 -274.17 73.98 C-273.99 76.08 -273.81 78.17 -273.63 80.27 C-272.79 90.14 -271.93 100 -271.07 109.87 C-270.88 112.11 -270.68 114.34 -270.49 116.58 C-269.69 125.73 -268.87 134.86 -268 144 C-267.87 145.4 -267.87 145.4 -267.74 146.83 C-267.53 149.11 -267.29 151.38 -267.05 153.66 C-266.93 154.79 -266.81 155.93 -266.69 157.1 C-265.67 161.38 -263.45 164.24 -260.46 167.4 C-259 169 -259 169 -259 171 C-261.33 172.17 -263.22 172.38 -265.81 172.75 C-275.33 174.26 -284.65 176.7 -294 179 C-293.59 179.61 -293.18 180.23 -292.76 180.86 C-289.38 185.93 -289.38 185.93 -286 191 C-276.75 189.54 -267.62 187.7 -258.47 185.68 C-253.58 184.63 -249.04 183.67 -244 184 C-244.69 187.66 -245.57 191.23 -246.56 194.82 C-247.01 196.49 -247.01 196.49 -247.48 198.19 C-248.11 200.5 -248.75 202.81 -249.38 205.12 C-253.14 218.87 -253.14 218.87 -254 233 C-252.39 233.34 -252.39 233.34 -250.75 233.69 C-240.08 236.4 -229.86 241.14 -222 249 C-219.78 249.02 -219.78 249.02 -217.38 248.62 C-216.56 248.51 -215.74 248.4 -214.9 248.29 C-213.96 248.15 -213.96 248.15 -213 248 C-213 247.34 -213 246.68 -213 246 C-213.58 245.72 -214.16 245.44 -214.76 245.15 C-218.48 243.24 -221.51 241.42 -224 238 C-224.16 235.6 -224.16 235.6 -223.82 232.91 C-223.7 231.93 -223.58 230.96 -223.45 229.95 C-222.78 225.56 -221.98 221.21 -221.07 216.86 C-220.89 215.94 -220.7 215.02 -220.5 214.07 C-220.1 212.13 -219.7 210.19 -219.3 208.25 C-218.69 205.34 -218.1 202.42 -217.5 199.51 C-216.73 195.75 -215.94 192 -215.12 188.26 C-214.39 184.9 -213.74 181.54 -213.17 178.15 C-211.31 167.96 -211.31 167.96 -207.87 165.44 C-205.21 164.61 -202.77 164.27 -200 164 C-198.41 163.61 -196.82 163.19 -195.24 162.75 C-167.61 155.97 -139.99 151.04 -111.59 154.6 C-109.37 154.88 -107.16 155.14 -104.95 155.4 C-103.51 155.58 -102.08 155.75 -100.65 155.93 C-98.73 156.17 -98.73 156.17 -96.78 156.41 C-92.75 157.04 -88.94 157.97 -85 159 C-83.51 159.32 -82.02 159.64 -80.52 159.93 C-76.45 160.74 -72.39 161.61 -68.34 162.5 C-66.86 162.81 -65.39 163.12 -63.91 163.4 C-62.1 163.74 -60.3 164.15 -58.5 164.56 C-57.5 164.77 -56.5 164.98 -55.47 165.19 C-49.2 169.79 -48.79 183.35 -47.3 190.68 C-47.06 191.84 -46.82 193.01 -46.57 194.22 C-46.07 196.67 -45.57 199.12 -45.07 201.57 C-44.31 205.32 -43.54 209.07 -42.76 212.81 C-42.28 215.21 -41.79 217.6 -41.3 219.99 C-40.95 221.66 -40.95 221.66 -40.6 223.37 C-40.28 224.94 -40.28 224.94 -39.96 226.54 C-39.78 227.45 -39.59 228.36 -39.4 229.3 C-38.96 232.27 -38.81 235.01 -39 238 C-40.9 240.34 -40.9 240.34 -43.38 242.38 C-44.19 243.06 -45 243.75 -45.84 244.46 C-48 246 -48 246 -50 246 C-50 246.66 -50 247.32 -50 248 C-46.96 248.76 -44.14 249.19 -41 249 C-38.09 246.78 -38.09 246.78 -36.28 244.89 C-33.11 242.26 -29.63 240.56 -25.94 238.75 C-25.25 238.41 -24.57 238.07 -23.86 237.72 C-18.62 235.17 -13.93 233 -8 233 C-10.52 213.06 -15.92 193.86 -22.15 174.78 C-23 172 -23 172 -23 170 C-4.18 169.82 -4.18 169.82 5 171 C3.55 175.12 1.43 178.39 -1 182 C-1.33 182.99 -1.66 183.98 -2 185 C-0.99 185.11 -0.99 185.11 0.04 185.23 C8.75 186.37 17.06 188.49 25.51 190.88 C36.92 194.44 36.92 194.44 48.04 192.35 C48.75 191.59 49.46 190.84 50.19 190.06 C50.92 189.31 51.66 188.56 52.42 187.79 C52.94 187.2 53.46 186.61 54 186 C50.43 183.98 46.79 183.06 42.83 182.05 C42.15 181.88 41.46 181.71 40.76 181.53 C38.59 180.97 36.42 180.42 34.25 179.88 C32.77 179.5 31.3 179.12 29.82 178.75 C26.22 177.83 22.61 176.91 19 176 C19.53 172.94 20.08 170.86 21.57 168.09 C23.24 164.48 23.26 162.51 22.94 158.56 C22.88 157.88 22.83 157.19 22.77 156.49 C22.06 148.36 20.91 140.27 19.78 132.19 C18.67 124.04 17.78 115.9 17.05 107.71 C16.6 102.69 16.13 97.67 15.66 92.66 C15.43 90.16 15.22 87.65 15.02 85.15 C13.56 65.28 13.56 65.28 3 49 C6.74 47.75 8.08 48.41 11.81 49.56 C13.06 49.94 14.32 50.31 15.61 50.7 C16.65 51.01 16.65 51.01 17.72 51.33 C22 52.59 26.32 53.72 30.62 54.88 C41.14 57.72 51.58 60.81 62 64 C61.81 63.34 61.61 62.69 61.41 62.01 C58.88 52.76 57.9 43.52 57 34 C56.08 33.91 55.16 33.82 54.21 33.72 C48.82 32.95 43.73 31.13 38.56 29.44 C37.54 29.11 36.53 28.78 35.48 28.44 C32.98 27.63 30.49 26.82 28 26 C28.66 30.95 29.32 35.9 30 41 C25.26 40.21 20.74 39.2 16.12 37.94 C15.44 37.75 14.75 37.56 14.04 37.37 C12.36 36.92 10.68 36.46 9 36 C8.91 35.04 8.91 35.04 8.82 34.06 C7.23 17.11 7.23 17.11 0 2 C0 1.34 0 0.68 0 0 Z " fill="#505050" transform="translate(432,46)"/>
<path d="M0 0 C1.58 1.63 1.58 1.63 2.81 3.56 C3.44 4.52 3.44 4.52 4.08 5.5 C4.38 6 4.69 6.49 5 7 C5.71 6.91 6.43 6.82 7.16 6.73 C13.9 5.88 20.64 5.04 27.38 4.21 C30.84 3.78 34.3 3.35 37.77 2.92 C41.75 2.41 45.74 1.92 49.73 1.43 C50.96 1.28 52.2 1.12 53.48 0.95 C54.64 0.81 55.8 0.67 56.99 0.53 C58.01 0.4 59.03 0.28 60.08 0.15 C63.22 -0.01 65.91 0.44 69 1 C70.68 1.04 72.36 1.03 74.04 0.97 C75.47 0.93 75.47 0.93 76.94 0.88 C78.49 0.83 78.49 0.83 80.06 0.77 C82.31 0.71 84.55 0.64 86.8 0.58 C88.56 0.53 88.56 0.53 90.36 0.48 C114.14 -0.18 137.37 0.35 161 3 C162.34 3.15 163.68 3.29 165.02 3.44 C172.02 4.22 179.02 5.06 186 6 C186.42 5.24 186.42 5.24 186.85 4.47 C187.25 3.82 187.65 3.17 188.06 2.5 C188.45 1.85 188.83 1.2 189.22 0.53 C191 -1 191 -1 194.22 -1.31 C198.07 -0.99 201.66 -0.38 205.43 0.47 C206.14 0.62 206.84 0.78 207.56 0.94 C209.85 1.45 212.15 1.98 214.44 2.5 C216.05 2.87 217.67 3.23 219.28 3.6 C224.19 4.71 229.1 5.85 234 7 C234.73 7.17 235.46 7.34 236.22 7.52 C256.08 12.18 275.6 17.66 295 24 C296.82 24.58 296.82 24.58 298.67 25.18 C302.25 26.33 305.81 27.5 309.38 28.69 C310.44 29.03 311.51 29.38 312.62 29.73 C320.98 32.58 326.43 35.71 330.7 43.61 C331.52 45.31 332.33 47.03 333.12 48.75 C333.53 49.59 333.93 50.44 334.35 51.3 C335.17 53.02 335.98 54.74 336.78 56.47 C337.95 58.98 337.95 58.98 339.29 61.19 C344.11 69.59 345.14 78.89 346.69 88.31 C346.98 90.04 347.28 91.76 347.58 93.48 C348.29 97.59 348.97 101.7 349.64 105.81 C349.97 107.8 350.32 109.79 350.69 111.77 C353.1 125.56 349.78 135.53 344.89 148.48 C341.83 157.25 341.99 162.33 345 171 C345.45 172.5 345.89 174.01 346.32 175.52 C347.57 179.88 348.89 184.21 350.23 188.54 C350.78 190.34 351.32 192.14 351.86 193.94 C355.33 205.69 359.5 215.71 366.48 225.79 C368.18 228.26 369.84 230.75 371.5 233.24 C375.33 238.97 379.19 244.67 383.06 250.38 C385.05 253.31 387.05 256.25 389.04 259.19 C390.26 261.01 391.49 262.82 392.72 264.63 C393.27 265.44 393.82 266.25 394.38 267.08 C394.87 267.79 395.35 268.5 395.85 269.23 C398.1 272.68 398.28 274.87 398 279 C396.93 281.91 396.93 281.91 395.44 284.92 C394.61 286.58 394.61 286.58 393.77 288.28 C393.19 289.43 392.6 290.57 392 291.75 C391.17 293.44 391.17 293.44 390.32 295.17 C387.06 301.66 383.5 307.33 378.8 312.88 C376.33 315.79 374.18 318.87 372 322 C368.53 321.54 365.33 321.11 362 320 C361.79 320.54 361.59 321.07 361.38 321.62 C360 324 360 324 357.07 326.34 C352.48 330.87 352.32 336.81 351.44 342.94 C351.03 345.38 350.62 347.82 350.2 350.27 C349.9 352.02 349.9 352.02 349.6 353.81 C346.25 371.75 337.07 387.69 325.95 401.89 C319.15 410.62 313.13 419.19 308 429 C307.51 429.9 307.02 430.81 306.51 431.74 C304.44 435.67 302.84 439.43 301.59 443.7 C294.83 466.67 294.83 466.67 285.56 471.87 C282.12 473.49 278.61 474.78 275 476 C273.46 476.56 271.92 477.12 270.39 477.69 C249.87 485 249.87 485 241 485 C241.09 485.56 241.19 486.11 241.29 486.69 C242.27 492.51 243.22 498.33 244.16 504.16 C244.51 506.33 244.87 508.5 245.24 510.67 C245.76 513.8 246.27 516.93 246.76 520.06 C246.93 521.02 247.1 521.98 247.27 522.97 C248.26 529.44 247.63 534.01 245 540 C244.72 540.65 244.44 541.31 244.16 541.98 C243.37 543.79 242.51 545.55 241.62 547.31 C241.13 548.31 241.13 548.31 240.62 549.32 C235.81 558.65 229.84 567.3 224 576 C223.42 577.05 222.84 578.11 222.24 579.19 C220 582 220 582 216.92 583 C215.71 583.12 214.5 583.23 213.25 583.36 C212.57 583.43 211.89 583.5 211.18 583.58 C208.98 583.81 206.77 584 204.56 584.19 C203.21 584.33 201.85 584.46 200.5 584.61 C196.4 585.03 192.3 585.37 188.2 585.72 C185.25 585.98 182.3 586.27 179.35 586.56 C154.28 589.04 129.33 589.5 104.16 589.45 C99.78 589.44 95.4 589.44 91.02 589.47 C62.83 589.61 35.09 588.53 7.04 585.67 C1.05 585.07 -4.91 584.68 -10.92 584.46 C-16.08 584.18 -20.81 583.89 -24.84 580.42 C-28.33 576.41 -30.69 571.96 -32.94 567.17 C-34.47 564.03 -36.38 561.23 -38.31 558.31 C-46.15 545.41 -48.99 535.35 -46.72 520.36 C-46.53 519.02 -46.53 519.02 -46.33 517.65 C-46.05 515.78 -45.77 513.91 -45.49 512.04 C-45.06 509.18 -44.64 506.31 -44.22 503.45 C-43.95 501.62 -43.68 499.8 -43.41 497.98 C-43.28 497.12 -43.16 496.27 -43.03 495.39 C-42.91 494.59 -42.79 493.8 -42.66 492.98 C-42.51 491.93 -42.51 491.93 -42.35 490.86 C-42 489 -42 489 -41 486 C-41.85 485.85 -42.7 485.71 -43.58 485.55 C-54.65 483.51 -65.35 480.63 -76 477 C-76.8 476.74 -77.6 476.47 -78.42 476.2 C-86.49 473.43 -92.69 470.78 -96.87 463.02 C-98.13 460.34 -99.25 457.62 -100.28 454.84 C-101.06 452.75 -101.06 452.75 -102.59 449.88 C-104.02 446.97 -104.82 444.26 -105.62 441.12 C-110.48 425.03 -121.14 411.84 -131.48 398.89 C-145.15 381.46 -152 361.31 -154.82 339.53 C-155.93 332.29 -157.91 327.87 -162.83 322.42 C-164.95 320.72 -164.95 320.72 -167.71 321.21 C-168.55 321.45 -169.39 321.69 -170.25 321.94 C-173.09 322.43 -173.09 322.43 -176 322 C-184.64 314.35 -189.85 303.04 -195.19 293 C-195.75 291.94 -196.32 290.88 -196.9 289.78 C-202.32 279.16 -202.32 279.16 -202 273 C-200.62 269.99 -198.73 267.53 -196.69 264.94 C-195.56 263.43 -194.43 261.92 -193.31 260.41 C-192.74 259.66 -192.18 258.91 -191.6 258.14 C-189.37 255.15 -187.3 252.06 -185.25 248.94 C-184.45 247.73 -183.65 246.52 -182.85 245.3 C-182.41 244.64 -181.98 243.98 -181.53 243.3 C-179.69 240.53 -177.82 237.77 -175.96 235.01 C-175.25 233.95 -174.53 232.88 -173.8 231.79 C-172.38 229.68 -170.96 227.58 -169.53 225.47 C-162.49 214.97 -158.28 204.55 -154.25 192.62 C-153.83 191.4 -153.83 191.4 -153.41 190.15 C-146.75 170.56 -140.46 150.85 -134.22 131.12 C-131.96 124 -129.67 116.89 -127.37 109.78 C-125.75 104.8 -124.15 99.81 -122.54 94.82 C-121.77 92.41 -120.99 90 -120.2 87.6 C-119.1 84.25 -118.03 80.9 -116.96 77.54 C-116.63 76.55 -116.3 75.55 -115.96 74.52 C-115.52 73.14 -115.52 73.14 -115.08 71.73 C-114.82 70.93 -114.56 70.14 -114.3 69.31 C-113.57 63.68 -118.06 58.43 -120.86 53.82 C-122.29 50.29 -121.93 48.66 -121 45 C-120.63 43.12 -120.63 43.12 -120.25 41.2 C-118.74 35.7 -116.81 30.72 -111.78 27.64 C-105.68 25.01 -99.23 23.51 -92.78 21.95 C-88.92 20.98 -85.11 19.88 -81.3 18.73 C-64.64 13.72 -47.83 9.33 -30.96 5.14 C-28.74 4.59 -26.53 4.04 -24.32 3.48 C-21.21 2.7 -18.09 1.94 -14.98 1.18 C-14.04 0.94 -13.11 0.7 -12.14 0.46 C-11.27 0.25 -10.41 0.04 -9.51 -0.17 C-8.38 -0.45 -8.38 -0.45 -7.23 -0.73 C-4.51 -1.06 -2.61 -0.84 0 0 Z M199 19 C197.12 22.87 197.12 22.87 198 27 C197.24 26.89 196.49 26.79 195.71 26.68 C158.93 21.6 122.99 19.45 85.83 19.96 C83.18 20 80.53 20.02 77.88 20.05 C61.07 20.2 44.46 21.02 27.75 22.88 C27.02 22.96 26.28 23.04 25.53 23.12 C16.36 24.16 7.35 25.6 -1.7 27.42 C-5 28 -5 28 -9 28 C-8.44 26.86 -8.44 26.86 -7.88 25.69 C-7.59 24.8 -7.3 23.91 -7 23 C-7.99 21.52 -7.99 21.52 -9 20 C-14.53 20.6 -19.78 21.55 -25.16 22.93 C-25.92 23.11 -26.67 23.3 -27.45 23.5 C-29.04 23.9 -30.63 24.3 -32.22 24.7 C-34.6 25.31 -36.98 25.9 -39.36 26.5 C-52.03 29.68 -64.56 33.23 -77.06 37 C-77.91 37.25 -78.75 37.51 -79.62 37.77 C-86.42 39.82 -93.21 41.89 -100 44 C-101.02 47.74 -101.25 49.47 -99.57 53.04 C-98.91 54.03 -98.24 55.03 -97.56 56.06 C-93.41 62.37 -93.41 62.37 -94 67 C-94.65 68.81 -95.31 70.61 -96.02 72.39 C-97.27 75.72 -98.33 79.1 -99.38 82.5 C-99.59 83.19 -99.81 83.89 -100.03 84.6 C-100.47 86.04 -100.91 87.47 -101.35 88.9 C-106.68 106.18 -112.06 123.45 -117.87 140.58 C-119.25 144.66 -120.55 148.76 -121.81 152.88 C-125.07 163.5 -128.39 174.1 -131.82 184.67 C-132.96 188.21 -134.09 191.74 -135.19 195.29 C-140.47 212.28 -146.17 226.81 -157.39 240.93 C-159.82 244.05 -161.99 247.34 -164.16 250.65 C-164.92 251.79 -165.68 252.92 -166.43 254.06 C-167.16 255.16 -167.88 256.25 -168.62 257.38 C-169.39 258.53 -170.16 259.69 -170.93 260.85 C-172.33 262.95 -173.72 265.05 -175.12 267.16 C-176.46 269.19 -177.85 271.2 -179.27 273.18 C-181.35 275.87 -181.35 275.87 -180.5 278.89 C-178.73 282.55 -176.94 286.18 -175 289.75 C-174.64 290.42 -174.29 291.09 -173.92 291.79 C-172.47 294.49 -171.19 296.81 -169 299 C-162.61 298.73 -156.91 296.3 -151 294 C-151.32 294.76 -151.63 295.52 -151.96 296.3 C-153.41 300.07 -153.73 301.96 -153 306 C-149.65 310.56 -145.69 314.52 -141.43 318.25 C-138.59 321.46 -138.17 323.24 -137.63 327.45 C-137.45 328.7 -137.27 329.96 -137.09 331.24 C-137 331.9 -136.92 332.55 -136.83 333.23 C-135.23 345.37 -132.93 356.73 -128 368 C-127.53 369.1 -127.05 370.2 -126.57 371.33 C-123.8 377.29 -120.48 382.23 -116.27 387.26 C-104.03 402.07 -91.68 419.35 -86.5 438.06 C-83.52 448.88 -83.52 448.88 -76.16 456.92 C-72.51 458.57 -68.84 459.87 -65 461 C-64.25 461.22 -63.51 461.44 -62.74 461.67 C-48.71 465.77 -34.58 468.82 -20 470 C-20.25 471.55 -20.25 471.55 -20.5 473.12 C-24.42 497.28 -24.42 497.28 -27.94 521.5 C-28.07 522.4 -28.19 523.3 -28.33 524.22 C-29.62 534.1 -26.73 540.41 -22 549 C-21.67 549.65 -21.35 550.3 -21.01 550.97 C-16.46 560.15 -16.46 560.15 -8.21 565.58 C-3.84 566.57 0.54 566.82 5 567 C6.65 567.11 8.3 567.22 9.96 567.33 C13.06 567.53 16.16 567.68 19.27 567.79 C22.14 567.95 24.29 568.27 27 569 C36.3 569.98 45.58 570.1 54.92 569.96 C56.94 569.94 58.97 569.97 61 570 C61.33 570.33 61.66 570.66 62 571 C63.94 571.12 65.89 571.16 67.84 571.18 C69.1 571.19 70.36 571.2 71.66 571.22 C73.06 571.22 74.47 571.23 75.87 571.24 C76.58 571.24 77.3 571.25 78.03 571.25 C83.5 571.29 88.97 571.3 94.44 571.31 C95.24 571.31 96.04 571.32 96.87 571.32 C123.19 571.36 149.22 570.5 175.42 567.73 C180.77 567.18 186.07 566.83 191.45 566.66 C201.87 566.61 201.87 566.61 211.01 562.34 C214.53 558.36 216.87 554.03 218.98 549.19 C220.36 546.22 222.09 543.52 223.88 540.78 C230.07 530.98 227.92 521.15 226.25 510.31 C226.07 509.12 225.89 507.94 225.71 506.72 C225.15 502.95 224.57 499.2 224 495.44 C223.61 492.88 223.23 490.32 222.84 487.76 C221.9 481.5 220.95 475.25 220 469 C221.03 469.02 222.06 469.04 223.11 469.07 C237.1 468.83 252.43 464.44 265.44 459.44 C266.14 459.17 266.85 458.9 267.58 458.62 C273 456.39 276.65 453.55 279.41 448.34 C279.77 447.41 280.13 446.47 280.5 445.5 C280.92 444.44 281.33 443.39 281.76 442.3 C282.57 440.16 283.36 438.01 284.14 435.86 C290.66 418.2 300.55 403.07 312.41 388.54 C324.61 373.53 331.06 356.12 333.23 337 C334.43 326.55 335.39 319.14 343.76 312.21 C345.16 311.12 346.58 310.06 348 309 C350.28 305.58 350.22 304.32 350.12 300.31 C350.1 298.82 350.1 298.82 350.07 297.3 C350.05 296.54 350.02 295.78 350 295 C351.36 295.56 351.36 295.56 352.74 296.13 C353.92 296.6 355.1 297.08 356.31 297.56 C357.48 298.04 358.66 298.51 359.86 299 C362.98 300.33 362.98 300.33 366 299 C368.23 295.95 369.94 292.57 371.75 289.25 C372.27 288.34 372.79 287.44 373.32 286.5 C374.05 285.18 374.05 285.18 374.8 283.83 C375.24 283.02 375.69 282.22 376.15 281.39 C377.21 278.41 376.83 277.02 376 274 C374.84 271.74 374.84 271.74 373.32 269.54 C372.76 268.68 372.2 267.83 371.62 266.96 C370.7 265.59 370.7 265.59 369.77 264.2 C369.14 263.25 368.51 262.31 367.87 261.33 C365.86 258.3 363.83 255.27 361.81 252.25 C360.47 250.23 359.13 248.21 357.79 246.19 C355.3 242.45 352.82 238.71 350.33 234.98 C349.77 234.15 349.22 233.31 348.65 232.45 C347.56 230.83 346.45 229.22 345.32 227.63 C342.04 222.94 339.92 218.8 338.55 213.26 C338.15 211.77 337.74 210.28 337.33 208.79 C337.12 208.02 336.91 207.24 336.69 206.44 C335.47 202.13 334.06 197.88 332.67 193.62 C332.09 191.84 331.52 190.05 330.94 188.27 C330.06 185.55 329.17 182.83 328.28 180.11 C327.4 177.43 326.53 174.74 325.67 172.05 C325.4 171.25 325.13 170.44 324.85 169.61 C322.48 162.17 322.46 156.59 325.22 149.18 C325.68 147.89 326.14 146.6 326.6 145.31 C327.33 143.31 328.06 141.32 328.8 139.34 C332.1 130.49 333.63 123.47 332 114 C331.8 112.54 331.6 111.08 331.4 109.63 C330.71 104.55 329.91 99.49 329.06 94.44 C328.91 93.55 328.77 92.66 328.61 91.75 C326.27 78.05 322.98 66.56 315 55 C314.53 54.07 314.05 53.14 313.56 52.18 C311.47 49.26 309.67 48.84 306.25 47.88 C302.94 46.91 299.82 45.92 296.64 44.56 C292.65 42.85 288.64 41.48 284.5 40.19 C283.28 39.8 283.28 39.8 282.04 39.41 C272.78 36.55 263.41 34.16 254.03 31.78 C250.61 30.9 247.21 29.97 243.8 29.05 C236.56 27.11 229.27 25.4 221.95 23.76 C219.91 23.31 217.86 22.84 215.81 22.38 C210.23 21.12 204.66 19.9 199 19 Z " fill="#920509" transform="translate(202,1)"/>
<path d="M0 0 C1.58 1.63 1.58 1.63 2.81 3.56 C3.44 4.52 3.44 4.52 4.08 5.5 C4.38 6 4.69 6.49 5 7 C5.71 6.91 6.43 6.82 7.16 6.73 C13.9 5.88 20.64 5.04 27.38 4.21 C30.84 3.78 34.3 3.35 37.77 2.92 C41.75 2.41 45.74 1.92 49.73 1.43 C50.96 1.28 52.2 1.12 53.48 0.95 C54.64 0.81 55.8 0.67 56.99 0.53 C58.01 0.4 59.03 0.28 60.08 0.15 C63.22 -0.01 65.91 0.45 69 1 C70.84 1.05 72.67 1.05 74.51 1.01 C75.57 0.98 76.62 0.96 77.71 0.94 C79.4 0.89 79.4 0.89 81.12 0.84 C82.29 0.82 83.46 0.79 84.67 0.77 C89.66 0.65 94.66 0.53 99.65 0.41 C103.31 0.32 106.96 0.24 110.62 0.16 C111.74 0.13 112.86 0.1 114.01 0.06 C115.61 0.03 115.61 0.03 117.23 -0.01 C118.15 -0.03 119.08 -0.05 120.03 -0.08 C123.7 0.02 127.35 0.54 131 1 C130.67 6.61 130.34 12.22 130 18 C130.66 18.33 131.32 18.66 132 19 C131.05 19.02 131.05 19.02 130.09 19.03 C123.37 19.14 116.65 19.26 109.93 19.37 C107.44 19.41 104.95 19.46 102.46 19.5 C89.28 19.71 76.1 19.97 62.93 20.41 C61.9 20.44 60.88 20.47 59.82 20.5 C53.65 20.72 47.74 21.44 41.67 22.53 C38.55 23.08 35.43 23.44 32.27 23.75 C30.55 23.92 30.55 23.92 28.8 24.09 C27.63 24.21 26.46 24.32 25.25 24.44 C16.06 25.37 7.04 26.51 -2 28.45 C-4.75 28.95 -7.21 29.11 -10 29 C-9.65 28.05 -9.3 27.1 -8.94 26.12 C-7.65 23.13 -7.65 23.13 -9 21 C-14.53 21.6 -19.78 22.55 -25.16 23.93 C-25.92 24.11 -26.67 24.3 -27.45 24.5 C-29.04 24.9 -30.63 25.3 -32.22 25.7 C-34.6 26.31 -36.98 26.9 -39.36 27.5 C-52.09 30.69 -64.69 34.27 -77.25 38.06 C-82.14 39.54 -82.14 39.54 -84.54 40.25 C-86.27 40.78 -88 41.31 -89.73 41.85 C-90.62 42.13 -91.51 42.4 -92.42 42.68 C-93.23 42.94 -94.03 43.19 -94.86 43.45 C-97 44 -97 44 -100 44 C-100.43 49.16 -99.3 51.76 -96.5 56.06 C-92.42 62.36 -92.42 62.36 -93 67 C-93.65 68.81 -94.31 70.61 -95.02 72.39 C-96.27 75.72 -97.33 79.1 -98.38 82.5 C-98.59 83.19 -98.81 83.89 -99.03 84.6 C-99.47 86.04 -99.91 87.47 -100.35 88.9 C-105.68 106.18 -111.06 123.45 -116.87 140.58 C-118.25 144.66 -119.55 148.76 -120.81 152.88 C-124.07 163.5 -127.39 174.1 -130.82 184.67 C-131.96 188.21 -133.09 191.74 -134.19 195.29 C-139.47 212.28 -145.17 226.81 -156.39 240.93 C-158.82 244.05 -160.99 247.34 -163.16 250.65 C-163.92 251.79 -164.68 252.92 -165.43 254.06 C-166.52 255.7 -166.52 255.7 -167.62 257.38 C-168.39 258.53 -169.16 259.69 -169.93 260.85 C-171.33 262.95 -172.72 265.05 -174.12 267.16 C-175.46 269.19 -176.85 271.2 -178.27 273.18 C-180.35 275.87 -180.35 275.87 -179.49 278.89 C-179 279.91 -178.51 280.94 -178 282 C-177.72 282.61 -177.44 283.23 -177.15 283.86 C-176.21 285.87 -175.21 287.84 -174.19 289.81 C-173.86 290.49 -173.53 291.17 -173.19 291.87 C-171.66 294.8 -170.67 296.7 -167.59 298.07 C-164.48 297.99 -162.25 297.24 -159.38 296.06 C-154.27 294 -154.27 294 -151 294 C-151.16 294.68 -151.33 295.36 -151.5 296.06 C-151.66 297.03 -151.83 298 -152 299 C-152.21 300.05 -152.41 301.1 -152.62 302.19 C-151.49 309.11 -145.56 313.76 -140.43 318.25 C-137.59 321.46 -137.17 323.24 -136.63 327.45 C-136.45 328.7 -136.27 329.96 -136.09 331.24 C-136 331.9 -135.92 332.55 -135.83 333.23 C-134.23 345.37 -131.93 356.73 -127 368 C-126.53 369.1 -126.05 370.2 -125.57 371.33 C-122.8 377.29 -119.48 382.23 -115.27 387.26 C-102.3 402.95 -90.17 420.76 -84.79 440.57 C-83.59 444.25 -81.81 447.57 -79.99 450.97 C-79 453 -79 453 -79 455 C-76.97 455.68 -74.94 456.35 -72.91 457.02 C-70.9 457.7 -68.9 458.41 -66.91 459.14 C-58.92 461.99 -50.93 464.02 -42.62 465.75 C-41.61 465.96 -40.6 466.17 -39.56 466.39 C-35.02 467.3 -30.51 468.1 -25.9 468.58 C-22 469 -22 469 -20 470 C-20.62 477.65 -21.54 485.21 -22.66 492.8 C-22.98 495.02 -23.31 497.23 -23.62 499.45 C-24.13 502.9 -24.63 506.34 -25.14 509.79 C-25.64 513.15 -26.12 516.5 -26.6 519.86 C-26.76 520.89 -26.91 521.92 -27.07 522.98 C-28.57 533.55 -26.02 539.74 -21 549 C-20.4 550.26 -19.8 551.52 -19.2 552.79 C-15.86 559.38 -15.86 559.38 -10.22 563.89 C-5.27 565.48 -0.17 565.76 5 566 C6.58 566.1 8.17 566.2 9.75 566.3 C12.07 566.43 14.39 566.56 16.72 566.66 C22.32 566.89 27.54 567.68 33 569 C33.03 571.81 33.05 574.62 33.06 577.44 C33.07 578.24 33.08 579.04 33.09 579.87 C33.1 581.91 33.05 583.96 33 586 C31.41 587.59 29.85 587.17 27.64 587.18 C19.82 587.11 12.08 586.24 4.32 585.4 C1.74 585.12 -0.84 584.86 -3.41 584.6 C-5.07 584.42 -6.73 584.25 -8.39 584.07 C-9.15 583.99 -9.91 583.92 -10.7 583.84 C-22.56 582.53 -22.56 582.53 -26.04 578.82 C-26.59 577.93 -27.13 577.04 -27.68 576.12 C-28.6 574.62 -28.6 574.62 -29.54 573.1 C-30.48 571.5 -30.48 571.5 -31.44 569.88 C-32.42 568.26 -32.42 568.26 -33.42 566.6 C-42.88 550.78 -49.55 539.03 -46.72 520.36 C-46.53 519.02 -46.53 519.02 -46.33 517.65 C-46.05 515.78 -45.77 513.91 -45.49 512.04 C-45.06 509.18 -44.64 506.31 -44.22 503.45 C-43.95 501.62 -43.68 499.8 -43.41 497.98 C-43.28 497.12 -43.16 496.27 -43.03 495.39 C-42.91 494.59 -42.79 493.8 -42.66 492.98 C-42.51 491.93 -42.51 491.93 -42.35 490.86 C-42 489 -42 489 -41 486 C-41.85 485.85 -42.7 485.71 -43.58 485.55 C-54.65 483.51 -65.35 480.63 -76 477 C-76.8 476.74 -77.6 476.47 -78.42 476.2 C-86.49 473.43 -92.69 470.78 -96.87 463.02 C-98.13 460.34 -99.25 457.62 -100.28 454.84 C-101.06 452.75 -101.06 452.75 -102.59 449.88 C-104.02 446.97 -104.82 444.26 -105.62 441.12 C-110.48 425.03 -121.14 411.84 -131.48 398.89 C-145.15 381.46 -152 361.31 -154.82 339.53 C-155.93 332.29 -157.91 327.87 -162.83 322.42 C-164.95 320.72 -164.95 320.72 -167.71 321.21 C-168.55 321.45 -169.39 321.69 -170.25 321.94 C-173.09 322.43 -173.09 322.43 -176 322 C-184.64 314.35 -189.85 303.04 -195.19 293 C-195.75 291.94 -196.32 290.88 -196.9 289.78 C-202.32 279.16 -202.32 279.16 -202 273 C-200.62 269.99 -198.73 267.53 -196.69 264.94 C-195.56 263.43 -194.43 261.92 -193.31 260.41 C-192.74 259.66 -192.18 258.91 -191.6 258.14 C-189.37 255.15 -187.3 252.06 -185.25 248.94 C-184.45 247.73 -183.65 246.52 -182.85 245.3 C-182.41 244.64 -181.98 243.98 -181.53 243.3 C-179.69 240.53 -177.82 237.77 -175.96 235.01 C-175.25 233.95 -174.53 232.88 -173.8 231.79 C-172.38 229.68 -170.96 227.58 -169.53 225.47 C-162.49 214.97 -158.28 204.55 -154.25 192.62 C-153.83 191.4 -153.83 191.4 -153.41 190.15 C-146.75 170.56 -140.46 150.85 -134.22 131.12 C-131.96 124 -129.67 116.89 -127.37 109.78 C-125.75 104.8 -124.15 99.81 -122.54 94.82 C-121.77 92.41 -120.99 90 -120.2 87.6 C-119.1 84.25 -118.03 80.9 -116.96 77.54 C-116.63 76.55 -116.3 75.55 -115.96 74.52 C-115.52 73.14 -115.52 73.14 -115.08 71.73 C-114.82 70.93 -114.56 70.14 -114.3 69.31 C-113.57 63.68 -118.06 58.43 -120.86 53.82 C-122.29 50.29 -121.93 48.66 -121 45 C-120.63 43.12 -120.63 43.12 -120.25 41.2 C-118.74 35.7 -116.81 30.72 -111.78 27.64 C-105.68 25.01 -99.23 23.51 -92.78 21.95 C-88.92 20.98 -85.11 19.88 -81.3 18.73 C-64.64 13.72 -47.83 9.33 -30.96 5.14 C-28.74 4.59 -26.53 4.04 -24.32 3.48 C-21.21 2.7 -18.09 1.94 -14.98 1.18 C-14.04 0.94 -13.11 0.7 -12.14 0.46 C-11.27 0.25 -10.41 0.04 -9.51 -0.17 C-8.38 -0.45 -8.38 -0.45 -7.23 -0.73 C-4.51 -1.06 -2.61 -0.84 0 0 Z " fill="#FB1F10" transform="translate(202,1)"/>
<path d="M0 0 C-1 2 -2 4 -3 6 C-3.12 8.43 -3.17 10.83 -3.16 13.26 C-3.16 14.02 -3.16 14.77 -3.16 15.55 C-3.06 25.33 -2.2 35.06 -1.38 44.81 C-1.2 46.94 -1.02 49.07 -0.85 51.2 C-0.3 57.79 0.26 64.39 0.83 70.98 C1.01 73.08 1.19 75.17 1.37 77.27 C2.21 87.14 3.07 97 3.93 106.87 C4.12 109.11 4.32 111.34 4.51 113.58 C5.31 122.73 6.13 131.86 7 141 C7.13 142.4 7.13 142.4 7.26 143.83 C7.47 146.11 7.71 148.38 7.95 150.66 C8.07 151.79 8.19 152.93 8.31 154.1 C9.33 158.38 11.55 161.24 14.54 164.4 C16 166 16 166 16 168 C13.67 169.17 11.78 169.38 9.19 169.75 C-0.33 171.26 -9.65 173.7 -19 176 C-18.59 176.61 -18.18 177.23 -17.76 177.86 C-15.51 181.24 -13.25 184.62 -11 188 C-1.75 186.54 7.38 184.7 16.53 182.68 C21.42 181.63 25.96 180.67 31 181 C30.33 184.57 29.48 188.04 28.51 191.54 C28.22 192.61 27.93 193.68 27.63 194.77 C27.32 195.9 27.01 197.03 26.69 198.19 C23.81 208.73 21.23 219.3 19 230 C17.57 230.04 17.57 230.04 16.11 230.08 C6.87 230.48 -0.59 231.94 -9.02 235.96 C-13.11 237.9 -15.66 238.54 -20 237 C-24.9 232.23 -26.1 227.11 -26.23 220.45 C-26.23 218.24 -26.22 216.03 -26.2 213.82 C-26.19 212.65 -26.19 211.48 -26.19 210.28 C-26.18 206.56 -26.15 202.84 -26.12 199.12 C-26.11 196.6 -26.11 194.07 -26.1 191.55 C-26.08 185.36 -26.04 179.18 -26 173 C-23.69 172.67 -21.38 172.34 -19 172 C-13.34 158.32 -16.35 142.54 -17.5 128.12 C-17.65 126.26 -17.79 124.4 -17.93 122.54 C-18.28 118.02 -18.64 113.51 -19 109 C-31.55 110.95 -31.55 110.95 -41.3 118.06 C-42.3 120.97 -43.02 123.74 -43.54 126.76 C-44.61 131.94 -46.41 136.96 -48 142 C-48.7 144.29 -49.41 146.59 -50.11 148.89 C-50.8 151.15 -51.49 153.42 -52.19 155.69 C-52.54 156.85 -52.9 158.02 -53.26 159.22 C-53.6 160.32 -53.94 161.43 -54.29 162.57 C-54.6 163.57 -54.9 164.57 -55.22 165.59 C-56 168 -56 168 -57 170 C-57.07 172.72 -57.09 175.41 -57.06 178.12 C-57.06 178.88 -57.05 179.63 -57.05 180.41 C-57.04 182.27 -57.02 184.14 -57 186 C-58.13 186.37 -59.27 186.74 -60.44 187.12 C-65.15 188.69 -69.82 190.34 -74.5 192 C-80.31 194.06 -86.14 196.08 -92 198 C-90.45 194.62 -88.44 191.81 -86.26 188.8 C-81.3 181.4 -78.64 173.64 -75.9 165.22 C-75.37 163.63 -74.84 162.04 -74.3 160.46 C-73.2 157.16 -72.11 153.86 -71.03 150.55 C-69.65 146.32 -68.23 142.09 -66.81 137.87 C-65.71 134.61 -64.63 131.34 -63.55 128.07 C-63.03 126.51 -62.51 124.95 -61.99 123.39 C-61.26 121.22 -60.55 119.05 -59.85 116.87 C-59.44 115.64 -59.04 114.41 -58.62 113.13 C-57.75 110.12 -57.75 110.12 -58.76 107.76 C-59.17 107.18 -59.58 106.6 -60 106 C-60.66 105.01 -61.32 104.02 -62 103 C-59.06 101.04 -57.03 100.32 -53.66 99.41 C-52.6 99.12 -51.53 98.83 -50.44 98.53 C-49.32 98.23 -48.21 97.93 -47.06 97.62 C-38.61 95.34 -30.28 92.86 -22 90 C-21.89 80.93 -22.06 72.04 -23 63 C-23.13 63.55 -23.26 64.11 -23.39 64.68 C-27.2 80.33 -27.2 80.33 -31.24 84.08 C-33.87 85.14 -36.19 85.64 -39 86 C-40.53 86.32 -40.53 86.32 -42.09 86.64 C-44.72 87.17 -47.34 87.62 -50 88 C-49.31 82.39 -47.52 77.31 -45.69 72 C-43.66 66.03 -41.67 60.08 -40 54 C-38.1 47.12 -35.84 40.39 -33.55 33.63 C-32.69 31.09 -31.84 28.55 -31 26 C-30.7 25.11 -30.39 24.22 -30.08 23.31 C-29.8 22.44 -29.52 21.57 -29.22 20.67 C-28.96 19.89 -28.7 19.12 -28.44 18.32 C-27.92 15.56 -28.3 13.7 -29 11 C-29.19 10.24 -29.37 9.47 -29.56 8.69 C-29.71 8.13 -29.85 7.57 -30 7 C-25.94 5.82 -21.88 4.66 -17.81 3.5 C-16.66 3.17 -15.51 2.83 -14.33 2.49 C-13.21 2.17 -12.1 1.86 -10.96 1.53 C-9.94 1.24 -8.91 0.94 -7.86 0.64 C-5.13 0.03 -2.79 -0.13 0 0 Z " fill="#F9F9F9" transform="translate(157,49)"/>
<path d="M0 0 C3.8 1.71 6.49 3.64 9 7 C9.89 10.57 9.99 14.2 10.19 17.86 C10.44 21.29 10.64 23.54 12.77 26.3 C14.87 27.84 14.87 27.84 17.03 28.89 C19.49 30.28 20.57 31.57 22 34 C22.51 36.58 22.51 36.58 22.69 39.25 C22.75 40.14 22.82 41.03 22.89 41.95 C22.94 42.97 22.94 42.97 23 44 C22.24 43.36 21.47 42.72 20.69 42.06 C16.86 39.46 13.12 39.53 8.61 39.28 C5.29 38.92 2.92 37.56 0 36 C-3.48 35.57 -5.24 35.5 -8.19 37.44 C-11.91 39.5 -15.17 39.45 -19.38 39.59 C-22.42 40.07 -23.81 40.86 -26 43 C-26.67 46 -26.67 46 -26 49 C-23.01 51.89 -20.29 52.56 -16.25 53.19 C-15.27 53.35 -14.28 53.5 -13.27 53.67 C-12.52 53.78 -11.77 53.89 -11 54 C-9.68 57.62 -9 60.1 -9 64 C-8.34 64 -7.68 64 -7 64 C-7.04 63.07 -7.08 62.14 -7.12 61.19 C-7 58 -7 58 -5 55 C-2.38 54.81 -2.38 54.81 0 55 C3.04 60.82 3.35 65.48 3 72 C-1.74 72.61 -6.22 73.04 -11 72.88 C-19.73 72.81 -26.66 76.61 -34 81 C-31.34 83.13 -28.96 84.56 -25.75 85.69 C-24.51 86.12 -23.27 86.55 -22 87 C-22.66 86.38 -23.32 85.76 -24 85.12 C-26 83 -26 83 -26 81 C-10.49 81 5.02 81 21 81 C18.92 85.15 17.85 86.57 14 89 C11.25 89.72 8.52 90.01 5.69 90.25 C4.58 90.37 4.58 90.37 3.44 90.48 C1.63 90.67 -0.18 90.84 -2 91 C-2 93.31 -2 95.62 -2 98 C-7.79 98.21 -12.43 97.59 -18 96 C-16.32 103.91 -16.32 103.91 -11.07 109.8 C-8.27 111.42 -5.38 112.85 -2.5 114.31 C3.12 117.28 7.34 120.08 10 126 C10.57 129.8 10.67 131.84 8.74 135.17 C7 137 7 137 4.93 137.52 C4.13 137.52 3.34 137.53 2.53 137.53 C1.64 137.54 0.75 137.55 -0.17 137.56 C-1.13 137.54 -2.08 137.52 -3.06 137.5 C-4.05 137.49 -5.03 137.48 -6.05 137.46 C-21.46 137.05 -41.32 133.39 -54 124 C-55.48 121.04 -55.48 121.04 -56.68 117.42 C-56.91 116.77 -57.13 116.12 -57.36 115.45 C-58.07 113.37 -58.75 111.28 -59.44 109.19 C-60.34 106.47 -61.26 103.76 -62.18 101.04 C-62.41 100.37 -62.64 99.7 -62.87 99.01 C-66.25 89.22 -70.23 79.82 -75.69 71 C-83.08 58.29 -85.91 41.52 -82.53 26.97 C-81.1 22.46 -79.36 18.36 -76 15 C-73.31 14.72 -70.7 14.53 -68 14.44 C-62.84 14.43 -62.84 14.43 -58 13 C-58.75 12.54 -59.5 12.08 -60.27 11.61 C-61.25 11 -62.24 10.38 -63.25 9.75 C-64.22 9.15 -65.2 8.54 -66.2 7.92 C-68.81 6.13 -70.93 4.39 -73 2 C-73 1.34 -73 0.68 -73 0 C-67.76 0.41 -63.84 2.43 -59.27 4.84 C-54.78 7.13 -50.74 7.18 -45.81 7.19 C-44.72 7.21 -44.72 7.21 -43.6 7.22 C-38.42 7.24 -33.98 6.43 -29 5 C-32.17 8.54 -34.17 10.59 -39 11 C-39 11.66 -39 12.32 -39 13 C-35.05 14.26 -31.58 15.07 -27.44 15.31 C-22.57 15.75 -20.41 17.59 -17 21 C-16.82 20 -16.63 19 -16.44 17.96 C-14.77 9.95 -13.23 4.8 -6.22 -0.09 C-3.54 -1.19 -2.65 -1.07 0 0 Z " fill="#AEAEAE" transform="translate(303,302)"/>
<path d="M0 0 C8.2 1.19 16.01 2.97 23.94 5.38 C24.99 5.69 26.04 6 27.13 6.33 C30.09 7.21 33.04 8.1 36 9 C37.26 9.38 38.51 9.75 39.81 10.14 C42.88 11.06 45.94 12.03 49 13 C49.73 13.22 50.46 13.44 51.21 13.67 C53.67 14.41 56.12 15.17 58.56 15.94 C59.34 16.17 60.11 16.4 60.91 16.63 C67.73 18.81 70.17 22.31 73.58 28.48 C76.52 34.55 77.61 40.75 78.69 47.38 C78.89 48.52 79.09 49.66 79.29 50.84 C79.88 54.22 80.44 57.61 81 61 C81.19 62.12 81.38 63.24 81.58 64.39 C81.76 65.46 81.94 66.52 82.12 67.62 C82.29 68.57 82.45 69.52 82.61 70.49 C83.69 77.44 82.45 82.56 80 89 C73.28 87.7 67.28 85.7 61 83 C61.56 84.11 62.11 85.23 62.69 86.38 C64.64 90.77 65.96 95.24 67.19 99.88 C69.3 107.84 71.8 115.63 74.44 123.44 C78.83 136.47 83.02 149.55 87.06 162.69 C87.38 163.7 87.7 164.72 88.03 165.77 C88.73 168.12 89.39 170.48 90 172.86 C92.48 182.06 96.11 188.81 101.99 196.3 C104 199 104 199 104 201 C102.78 200.59 101.57 200.18 100.31 199.76 C96.45 198.47 92.57 197.22 88.69 195.99 C87.59 195.65 86.5 195.3 85.37 194.94 C83.09 194.22 80.81 193.5 78.54 192.79 C77.45 192.44 76.37 192.1 75.25 191.74 C74.27 191.43 73.28 191.12 72.27 190.8 C70 190 70 190 69 189 C69.02 187.14 69.05 185.28 69.12 183.43 C69.34 176.31 69.06 170.61 66.2 163.99 C64.66 160.15 63.62 156.24 62.56 152.25 C61.05 146.66 59.44 141.16 57.56 135.69 C54.67 127.19 52.27 118.57 49.83 109.93 C48.33 104.63 46.79 99.35 45.25 94.06 C44.81 92.54 44.81 92.54 44.36 90.99 C43.82 89.13 43.27 87.26 42.71 85.4 C42.12 83.4 41.58 81.39 41.05 79.37 C40.7 78.59 40.36 77.81 40 77 C37.98 76.32 37.98 76.32 36 76 C36.54 87.12 37.67 98.04 39.25 109.06 C39.71 112.3 40.16 115.54 40.61 118.78 C40.73 119.61 40.85 120.44 40.96 121.29 C41.81 127.41 42.54 133.53 43.23 139.66 C43.54 142.28 43.84 144.9 44.15 147.52 C44.34 149.19 44.52 150.87 44.7 152.54 C45.67 161.81 46.93 169.38 51.68 177.61 C52.88 179.79 53.54 181.57 54 184 C49.3 183.39 44.78 182.53 40.19 181.37 C38.33 180.9 38.33 180.9 36.43 180.42 C35.15 180.1 33.88 179.77 32.56 179.44 C31.25 179.1 29.93 178.77 28.61 178.44 C25.41 177.63 22.2 176.82 19 176 C19.53 172.94 20.08 170.86 21.57 168.09 C23.24 164.48 23.26 162.51 22.94 158.56 C22.88 157.88 22.83 157.19 22.77 156.49 C22.06 148.36 20.91 140.27 19.78 132.19 C18.67 124.04 17.78 115.9 17.05 107.71 C16.6 102.69 16.13 97.67 15.66 92.66 C15.43 90.16 15.22 87.65 15.02 85.15 C13.56 65.28 13.56 65.28 3 49 C6.74 47.75 8.08 48.41 11.81 49.56 C13.06 49.94 14.32 50.31 15.61 50.7 C16.3 50.91 17 51.12 17.72 51.33 C22 52.59 26.32 53.72 30.62 54.88 C41.14 57.72 51.58 60.81 62 64 C61.81 63.34 61.61 62.69 61.41 62.01 C58.88 52.76 57.9 43.52 57 34 C55.62 33.86 55.62 33.86 54.21 33.72 C48.82 32.95 43.73 31.13 38.56 29.44 C37.54 29.11 36.53 28.78 35.48 28.44 C32.98 27.63 30.49 26.82 28 26 C28.66 30.95 29.32 35.9 30 41 C25.26 40.21 20.74 39.2 16.12 37.94 C15.44 37.75 14.75 37.56 14.04 37.37 C12.36 36.92 10.68 36.46 9 36 C8.91 35.04 8.91 35.04 8.82 34.06 C7.23 17.11 7.23 17.11 0 2 C0 1.34 0 0.68 0 0 Z " fill="#F9F9F9" transform="translate(432,46)"/>
<path d="M0 0 C1.25 0 2.5 0.01 3.78 0.01 C5.2 0.02 5.2 0.02 6.64 0.02 C6.71 9.29 6.77 18.56 6.8 27.82 C6.82 32.13 6.84 36.43 6.87 40.73 C6.9 44.89 6.92 49.05 6.93 53.2 C6.93 54.79 6.94 56.37 6.96 57.95 C6.98 60.17 6.99 62.4 6.98 64.62 C6.99 66.52 6.99 66.52 7 68.45 C6.48 73.64 4.94 77.5 1.52 81.52 C-2.67 83.71 -5.86 83.1 -10.36 82.02 C-11.64 81.57 -12.91 81.1 -14.17 80.59 C-34.63 72.5 -59.49 76.89 -80.04 82.47 C-82.36 83.02 -82.36 83.02 -85.36 83.02 C-85.6 76.08 -84.98 69.77 -83.53 62.99 C-83.34 62.06 -83.15 61.14 -82.95 60.18 C-82.55 58.24 -82.14 56.29 -81.73 54.35 C-81.11 51.43 -80.51 48.51 -79.91 45.58 C-79.13 41.81 -78.32 38.05 -77.49 34.3 C-76.75 30.93 -76.09 27.57 -75.52 24.17 C-73.66 13.98 -73.66 13.98 -70.22 11.47 C-67.57 10.63 -65.12 10.29 -62.36 10.02 C-60.76 9.63 -59.17 9.22 -57.59 8.78 C-48.19 6.47 -38.77 4.45 -29.23 2.77 C-28.31 2.61 -27.39 2.45 -26.44 2.28 C-17.61 0.79 -8.96 -0.03 0 0 Z " fill="#AEAEAE" transform="translate(294.35595703125,199.9755859375)"/>
<path d="M0 0 C8.25 -0.24 16.25 0.58 24.41 1.6 C26.63 1.88 28.84 2.14 31.05 2.4 C32.49 2.58 33.92 2.75 35.35 2.93 C37.27 3.17 37.27 3.17 39.22 3.41 C43.25 4.04 47.06 4.97 51 6 C52.49 6.32 53.98 6.64 55.48 6.93 C59.55 7.74 63.61 8.61 67.66 9.5 C69.14 9.81 70.61 10.12 72.09 10.4 C73.9 10.74 75.7 11.15 77.5 11.56 C78.5 11.77 79.5 11.98 80.53 12.19 C86.81 16.79 87.21 30.38 88.7 37.71 C88.94 38.88 89.18 40.05 89.43 41.26 C89.93 43.72 90.43 46.17 90.93 48.63 C91.69 52.39 92.46 56.14 93.24 59.9 C93.72 62.3 94.21 64.69 94.7 67.09 C94.93 68.21 95.16 69.33 95.4 70.48 C95.61 71.53 95.82 72.57 96.04 73.65 C96.22 74.56 96.41 75.48 96.6 76.42 C97 78.99 97.07 81.4 97 84 C90.36 83.08 83.83 82.02 77.31 80.44 C58.5 76.01 37.92 76.35 19.79 83.2 C16.65 84.1 14.25 84.36 11 84 C9.14 82.61 9.14 82.61 7.69 80.75 C7.2 80.15 6.71 79.54 6.2 78.92 C3.62 74.79 3.9 70.71 3.98 65.94 C3.99 65.23 4 64.53 4.01 63.81 C4.04 61.49 4.08 59.18 4.12 56.86 C4.15 55.25 4.17 53.64 4.19 52.03 C4.26 47.81 4.32 43.58 4.39 39.35 C4.47 35.03 4.53 30.72 4.6 26.4 C4.72 17.93 4.86 9.47 5 1 C3.35 1 1.7 1 0 1 C0 0.67 0 0.34 0 0 Z " fill="#6E6E6E" transform="translate(296,199)"/>
<path d="M0 0 C0.54 0.19 1.08 0.37 1.64 0.56 C14.52 4.93 27.33 8.73 41 9 C39.68 9.99 38.36 10.98 37 12 C43.11 12.8 46.21 10.95 51.3 7.67 C62.1 1 62.1 1 67 1 C67.68 5.31 68.34 9.62 69 13.94 C69.19 15.15 69.38 16.36 69.58 17.61 C70.57 24.16 71.23 30.38 71 37 C69.9 37.12 68.81 37.24 67.68 37.37 C66.22 37.54 64.77 37.71 63.31 37.88 C62.59 37.95 61.87 38.03 61.13 38.11 C57.16 38.58 53.57 39.08 50 41 C49.11 43.55 49.11 43.55 49 46 C51.97 46.99 54.94 47.98 58 49 C58 50.32 58 51.64 58 53 C58.99 52.34 59.98 51.68 61 51 C62.32 51 63.64 51 65 51 C66.57 56.03 67.45 60.76 68 66 C64.25 69 64.25 69 62 69 C61.34 67.68 60.68 66.36 60 65 C53.59 64.6 49.38 65.68 43.62 68.44 C42.91 68.76 42.2 69.09 41.47 69.42 C38.96 70.58 36.47 71.76 34 73 C34.82 72.89 34.82 72.89 35.66 72.78 C59.04 70.04 59.04 70.04 69 76 C71.6 78.15 71.96 78.57 72.31 82.06 C72 85 72 85 70 87 C68.68 87 67.36 87 66 87 C66 86.34 66 85.68 66 85 C62.02 82.29 57.86 82.78 53.25 82.88 C52.46 82.88 51.66 82.89 50.85 82.9 C48.9 82.93 46.95 82.96 45 83 C47.72 91.56 51.05 96.08 58.75 100.62 C61.42 102.26 62.65 103.15 64 106 C63.94 109.05 63.53 112 63 115 C46.12 122.83 28.82 123.97 11 119 C12.88 113.25 12.88 113.25 14 111 C15.35 94.54 12.59 81.35 6.06 66.37 C-0.22 51.79 -7.15 33.06 -1.25 17.44 C0.32 13.99 1.97 11.38 5 9 C4.64 8.52 4.28 8.04 3.91 7.54 C3.44 6.91 2.98 6.28 2.5 5.62 C1.8 4.69 1.8 4.69 1.09 3.73 C0 2 0 2 0 0 Z " fill="#AEAEAE" transform="translate(399,304)"/>
<path d="M0 0 C3.65 0.47 5.56 1.48 8 4.26 C10.73 8.96 11.08 14.37 11.77 19.67 C11.96 20.96 12.15 22.26 12.35 23.59 C12.85 27.02 13.32 30.45 13.78 33.88 C14.16 36.66 14.56 39.42 14.96 42.19 C16.13 50.26 17.27 58.33 18.25 66.42 C18.42 67.58 18.59 68.74 18.77 69.94 C19.91 79.39 19.91 79.39 17.39 83.63 C13.95 87.46 9.98 87.68 5.07 87.98 C4.18 88.05 3.29 88.13 2.37 88.21 C-0.48 88.46 -3.33 88.66 -6.18 88.85 C-8.07 89.01 -9.95 89.17 -11.83 89.34 C-17.13 89.78 -22.44 90.12 -27.75 90.42 C-28.48 90.46 -29.22 90.51 -29.97 90.56 C-31.91 90.68 -33.84 90.75 -35.78 90.83 C-37.35 90.89 -37.35 90.89 -38.95 90.96 C-42.89 90.19 -44.22 88.48 -46.75 85.42 C-47.5 82.24 -47.5 82.24 -47.68 78.61 C-47.72 77.95 -47.76 77.28 -47.8 76.6 C-47.93 74.41 -48.02 72.23 -48.11 70.05 C-48.19 68.52 -48.27 66.99 -48.36 65.47 C-48.57 61.46 -48.76 57.45 -48.94 53.44 C-49.13 49.37 -49.35 45.3 -49.57 41.23 C-49.88 35.27 -50.18 29.31 -50.46 23.35 C-50.51 22.15 -50.57 20.96 -50.63 19.72 C-50.94 10.88 -50.94 10.88 -49.34 7.13 C-45.62 3.23 -42.42 3.28 -37.2 2.96 C-36.26 2.88 -35.33 2.79 -34.37 2.71 C-31.39 2.46 -28.41 2.25 -25.43 2.04 C-23.44 1.88 -21.45 1.71 -19.45 1.55 C-10.1 0.78 -10.1 0.78 -5.99 0.55 C-3.99 0.43 -1.99 0.22 0 0 Z " fill="#F8F8F8" transform="translate(387.746826171875,453.58349609375)"/>
<path d="M0 0 C-1.45 4.11 -3.51 7.43 -6 11 C-5.4 11.06 -4.79 11.11 -4.17 11.17 C-2 12 -2 12 -0.55 14.33 C-0.14 15.29 0.27 16.26 0.69 17.25 C1.1 18.2 1.52 19.16 1.95 20.14 C7.6 35.5 0.58 52.19 -3.78 67.1 C-6.25 75.65 -8.24 84.28 -10 93 C-10.3 94.43 -10.3 94.43 -10.6 95.89 C-11.16 100.22 -11.11 104.51 -11.06 108.88 C-11.06 109.75 -11.05 110.63 -11.05 111.54 C-11.04 113.69 -11.02 115.85 -11 118 C-17.79 121.78 -23.92 122.39 -31.56 122.38 C-32.45 122.38 -33.33 122.38 -34.25 122.38 C-39.84 122.29 -45.75 122.1 -51 120 C-53.7 115.96 -53.65 112.75 -53 108 C-50.55 103.3 -47.6 102.36 -42.84 100.82 C-40.09 99.59 -39.16 97.69 -38 95 C-38.51 95.32 -39.02 95.64 -39.54 95.98 C-42.88 97.37 -45.76 97.34 -49.38 97.38 C-50.66 97.4 -51.95 97.43 -53.27 97.46 C-57.56 96.93 -59.69 95.72 -63 93 C-63.88 90.75 -63.88 90.75 -64 89 C-63.46 89.32 -62.91 89.64 -62.35 89.97 C-57.06 92.28 -50.77 91.79 -45.31 90.23 C-32.35 84.49 -27.3 73.28 -22.43 60.8 C-21.95 59.54 -21.47 58.27 -21 57 C-25.61 57.07 -30.22 57.16 -34.82 57.26 C-36.39 57.3 -37.96 57.32 -39.52 57.35 C-41.78 57.38 -44.04 57.43 -46.29 57.49 C-46.99 57.49 -47.69 57.5 -48.4 57.51 C-52.83 57.64 -55.32 58.64 -59 61 C-62.81 60.69 -62.81 60.69 -66 60 C-66.12 53.25 -66.12 53.25 -65 51 C-60.25 51.75 -60.25 51.75 -58 54 C-58 53.24 -58 52.47 -58 51.69 C-57 49 -57 49 -55.15 48 C-53.12 47.25 -51.09 46.58 -49 46 C-49.19 43.56 -49.19 43.56 -50 41 C-53.69 38.31 -58.35 38.32 -62.75 37.88 C-63.54 37.79 -64.34 37.7 -65.15 37.61 C-67.1 37.4 -69.05 37.2 -71 37 C-71.27 29.14 -70.22 21.69 -69 13.94 C-68.81 12.69 -68.62 11.44 -68.42 10.16 C-67.95 7.1 -67.48 4.05 -67 1 C-60.22 3.23 -54.25 5.54 -48.58 9.91 C-44.9 12.44 -41.3 12.08 -37 12 C-37.99 11.01 -38.98 10.02 -40 9 C-39.12 8.89 -39.12 8.89 -38.23 8.77 C-35.53 8.42 -32.83 8.05 -30.12 7.69 C-29.21 7.57 -28.29 7.45 -27.34 7.33 C-18.57 6.13 -8.35 0 0 0 Z " fill="#AEAEAE" transform="translate(202,304)"/>
<path d="M0 0 C1.92 -0 1.92 -0 3.89 -0.01 C5.3 -0.01 6.72 -0.01 8.13 -0 C9.58 -0 11.03 -0.01 12.48 -0.01 C15.53 -0.01 18.58 -0.01 21.63 -0 C25.51 0 29.39 0 33.27 -0 C36.27 -0.01 39.27 -0.01 42.27 -0 C43.7 -0 45.13 -0 46.56 -0.01 C55.11 -0.02 63.51 0.3 72.02 1.13 C72.02 7.4 72.02 13.67 72.02 20.13 C61.27 17.25 61.27 17.25 59.02 16.13 C56.47 15.9 53.94 15.71 51.39 15.57 C50.69 15.52 49.98 15.48 49.25 15.44 C47.51 15.33 45.76 15.23 44.02 15.13 C44.01 29.33 44.03 43.54 44.1 57.74 C44.13 64.34 44.15 70.93 44.14 77.53 C44.13 83.9 44.15 90.26 44.2 96.63 C44.21 99.06 44.21 101.48 44.2 103.91 C44.19 107.32 44.21 110.72 44.25 114.12 C44.23 115.12 44.22 116.12 44.21 117.15 C44.32 123.42 45.55 126.85 49.73 131.57 C51.02 133.13 51.02 133.13 51.02 135.13 C39.14 135.13 27.26 135.13 15.02 135.13 C17.02 130.13 17.02 130.13 19.11 127.98 C22.01 123.65 21.59 119.57 21.56 114.46 C21.57 113.39 21.58 112.32 21.6 111.21 C21.63 107.67 21.63 104.12 21.63 100.58 C21.64 98.12 21.66 95.66 21.68 93.2 C21.72 86.73 21.74 80.26 21.76 73.79 C21.78 67.19 21.82 60.59 21.86 53.99 C21.93 41.03 21.98 28.08 22.02 15.13 C19.31 15.24 16.6 15.37 13.89 15.5 C13.13 15.53 12.37 15.56 11.58 15.59 C6.16 15.87 1.74 16.91 -3.2 19.29 C-4.98 20.13 -4.98 20.13 -6.98 20.13 C-7.01 16.98 -7.03 13.84 -7.04 10.69 C-7.05 9.79 -7.06 8.9 -7.07 7.97 C-7.07 7.12 -7.08 6.26 -7.08 5.38 C-7.09 4.2 -7.09 4.2 -7.1 2.99 C-6.84 -1.16 -3.4 0 0 0 Z " fill="#C40A08" transform="translate(269.981689453125,38.87060546875)"/>
<path d="M0 0 C3.64 3.64 2.79 9.36 3.02 14.31 C3.09 15.67 3.18 17.03 3.29 18.39 C4.01 27.4 3.38 34.38 -2.26 41.71 C-7.64 46.2 -13.99 46.21 -20.69 46.56 C-22.02 46.67 -23.36 46.78 -24.7 46.9 C-27.8 47.16 -30.9 47.38 -34 47.57 C-38.55 47.87 -43.08 48.29 -47.61 48.74 C-73.77 51.29 -99.81 51.39 -126.07 51.26 C-130.69 51.25 -135.32 51.24 -139.95 51.24 C-145.54 51.23 -151.13 51.22 -156.72 51.2 C-157.76 51.2 -158.8 51.2 -159.87 51.2 C-185.97 51.14 -185.97 51.14 -192 50 C-193.66 46.67 -192.82 43 -192.56 39.38 C-192.51 38.57 -192.46 37.77 -192.4 36.95 C-192.27 34.96 -192.14 32.98 -192 31 C-188.03 30.98 -184.06 30.96 -180.09 30.95 C-178.74 30.94 -177.39 30.93 -176.04 30.92 C-174.1 30.91 -172.16 30.91 -170.22 30.9 C-168.47 30.89 -168.47 30.89 -166.68 30.89 C-164 31 -164 31 -163 32 C-161.06 32.12 -159.11 32.16 -157.16 32.18 C-155.27 32.2 -155.27 32.2 -153.34 32.22 C-151.94 32.22 -150.53 32.23 -149.13 32.24 C-148.42 32.24 -147.7 32.25 -146.97 32.25 C-141.5 32.29 -136.03 32.3 -130.56 32.31 C-129.76 32.31 -128.96 32.32 -128.13 32.32 C-101.8 32.36 -75.77 31.51 -49.56 28.7 C-44.24 28.15 -39.04 27.9 -33.7 27.91 C-22.64 28.02 -22.64 28.02 -13.53 22.54 C-8.86 16.56 -5.28 10.13 -2.08 3.27 C-1 1 -1 1 0 0 Z " fill="#C20908" transform="translate(427,539)"/>
<path d="M0 0 C0 3 0 3 -2 6 C-1.01 6.33 -0.02 6.66 1 7 C1.44 11.84 0.68 15.24 -1 19.81 C-2.86 25.1 -4.37 30.42 -3 36 C-1.45 38.38 -1.45 38.38 1 40 C4.04 40.48 4.04 40.48 7.25 40.25 C8.33 40.21 9.41 40.18 10.52 40.14 C11.34 40.09 12.16 40.05 13 40 C13.66 41.65 14.32 43.3 15 45 C15.66 45 16.32 45 17 45 C17 45.66 17 46.32 17 47 C21.89 47.39 21.89 47.39 26.26 45.51 C29.77 43.57 32.8 43.62 36.71 43.71 C37.8 43.71 37.8 43.71 38.91 43.72 C41.21 43.74 43.51 43.77 45.81 43.81 C47.38 43.83 48.95 43.84 50.51 43.85 C54.34 43.89 58.17 43.94 62 44 C59.46 57.41 52.88 68.66 41.71 76.63 C35.83 79.69 29.49 79.59 23 79 C22.01 78.67 21.02 78.34 20 78 C23.89 82.12 23.89 82.12 29.3 83.17 C30.64 83.18 31.98 83.19 33.31 83.19 C34.63 83.2 35.94 83.22 37.3 83.23 C40.72 83.02 42.95 82.49 46 81 C44.64 85.91 42.35 87.53 38 90 C37.09 90.35 36.19 90.7 35.25 91.06 C32.67 91.89 32.67 91.89 31 95 C30.76 97.75 30.76 97.75 30.88 100.69 C30.89 101.68 30.91 102.68 30.93 103.7 C30.95 104.46 30.98 105.22 31 106 C28.91 105.43 26.83 104.85 24.75 104.25 C23.59 103.93 22.43 103.6 21.23 103.27 C15.86 101.16 13.67 97.71 10.81 92.88 C6.62 86.13 1.44 80.55 -4.07 74.87 C-10.01 68.55 -13.96 61.63 -18 54 C-18.53 53.02 -19.05 52.03 -19.59 51.02 C-25.24 38.9 -26.29 25.19 -25 12 C-24.67 11.34 -24.34 10.68 -24 10 C-24.6 9.75 -25.2 9.5 -25.81 9.25 C-28.29 7.83 -29.36 6.31 -31 4 C-29.77 4.05 -28.54 4.09 -27.27 4.14 C-17.32 4.4 -9.21 4.12 0 0 Z " fill="#777777" transform="translate(119,317)"/>
<path d="M0 0 C-0.98 2.63 -1.93 4.89 -3.53 7.21 C-5.34 10.64 -5.59 13.7 -5.77 17.5 C-5.82 18.27 -5.87 19.03 -5.92 19.82 C-6.03 21.5 -6.13 23.19 -6.22 24.88 C-6.43 28.59 -6.67 32.31 -6.91 36.02 C-7.04 38.11 -7.17 40.19 -7.31 42.28 C-8.2 56.53 -9.28 70.77 -10.34 85.01 C-10.69 89.67 -11.03 94.34 -11.37 99 C-11.92 106.33 -12.46 113.67 -13 121 C-8.93 120.52 -4.86 120.02 -0.79 119.51 C0.59 119.34 1.97 119.17 3.35 119.01 C11.21 118.09 18.45 116.88 25.75 113.7 C28.29 112.91 29.54 113.11 32 114 C31.21 116.06 30.42 118.13 29.62 120.19 C29.18 121.34 28.74 122.48 28.29 123.67 C27.21 126.45 26.12 129.23 25 132 C13.87 133.53 2.76 134.99 -8.44 135.94 C-20.07 136.94 -31.52 138.94 -43 141 C-41.89 138.02 -40.97 135.96 -38.95 133.46 C-36.07 128.33 -36.15 123.36 -35.88 117.56 C-35.49 110.66 -35.03 103.85 -34.04 97.01 C-32.66 87.13 -32.12 77.2 -31.5 67.25 C-30.77 55.58 -30 43.94 -28.66 32.32 C-26.86 19.12 -26.86 19.12 -31 7 C-31 6.01 -31 5.02 -31 4 C-27.15 3.32 -23.29 2.66 -19.44 2 C-18.35 1.81 -17.27 1.62 -16.15 1.42 C-10.69 0.49 -5.54 -0.25 0 0 Z " fill="#F9F8F9" transform="translate(228,43)"/>
<path d="M0 0 C2.06 0.25 4.13 0.5 6.19 0.75 C6.88 0.83 7.57 0.92 8.28 1 C13.13 1.6 17.96 2.29 22.78 3.02 C37.32 5.2 51.3 6.58 66 6 C68.3 21.74 68.3 21.74 68 29 C64.58 27.97 61.69 26.82 58.56 25.06 C53.14 22.32 47.46 21.62 41.5 20.75 C40.39 20.58 39.28 20.4 38.14 20.23 C35.43 19.81 32.72 19.4 30 19 C30.15 19.77 30.3 20.54 30.45 21.34 C31.16 26.08 31.46 30.81 31.75 35.59 C31.85 37.13 31.85 37.13 31.95 38.7 C32.09 40.86 32.22 43.03 32.36 45.19 C32.56 48.46 32.77 51.73 32.98 55 C33.66 65.68 34.25 76.29 34 87 C35.59 87.07 35.59 87.07 37.22 87.15 C38.65 87.22 40.07 87.3 41.5 87.38 C42.2 87.41 42.89 87.44 43.61 87.47 C47.18 87.67 50.43 88.05 53.88 89.03 C58.74 90.35 63.49 90.22 68.5 90.12 C69.42 90.12 70.34 90.11 71.28 90.1 C73.52 90.07 75.76 90.04 78 90 C77.71 91.71 77.42 93.42 77.12 95.12 C76.96 96.08 76.8 97.03 76.63 98.01 C75.98 101.11 75.02 104 74 107 C65.57 106.47 57.33 105.52 49 104.12 C34.72 101.82 20.4 100.36 6 99 C7.06 95.6 8.01 92.99 10 90 C10.48 85.67 10.33 81.29 10.31 76.94 C10.31 76.27 10.31 75.59 10.3 74.9 C10.23 61.53 9.75 48.17 9.1 34.82 C8.99 32.57 8.9 30.32 8.81 28.08 C8.69 24.88 8.52 21.69 8.34 18.5 C8.31 17.54 8.28 16.58 8.25 15.6 C7.91 10.42 7.16 7.63 3.42 3.91 C2.28 2.94 1.14 1.97 0 1 C0 0.67 0 0.34 0 0 Z " fill="#F9F8F8" transform="translate(354,78)"/>
<path d="M0 0 C1.55 0.01 1.55 0.01 3.14 0.03 C6.44 0.06 9.74 0.13 13.04 0.21 C15.28 0.24 17.53 0.27 19.77 0.29 C25.26 0.36 30.74 0.46 36.23 0.59 C36.23 4.55 36.23 8.51 36.23 12.59 C32.93 12.26 29.63 11.93 26.23 11.59 C17.98 11.26 9.73 10.93 1.23 10.59 C1.23 32.7 1.23 54.81 1.23 77.59 C8.82 77.59 16.41 77.59 24.23 77.59 C24.17 73 24.08 68.42 23.98 63.84 C23.97 62.53 23.95 61.23 23.94 59.89 C23.91 58.64 23.87 57.39 23.84 56.1 C23.82 54.95 23.8 53.8 23.78 52.61 C23.13 49.01 21.93 47.95 19.23 45.59 C19.23 44.93 19.23 44.27 19.23 43.59 C26.82 43.59 34.41 43.59 42.23 43.59 C42.55 50.59 42.85 57.59 43.11 64.59 C43.18 66.4 43.26 68.21 43.34 70.02 C43.43 71.93 43.49 73.85 43.54 75.77 C43.6 77.31 43.6 77.31 43.66 78.88 C43.05 82.73 42.2 83.99 39.23 86.59 C35.31 87.37 31.41 87.31 27.42 87.29 C26.26 87.29 25.1 87.3 23.91 87.31 C21.46 87.31 19.01 87.31 16.56 87.29 C12.81 87.27 9.06 87.31 5.31 87.36 C2.93 87.36 0.55 87.35 -1.83 87.35 C-3.51 87.37 -3.51 87.37 -5.22 87.39 C-12.66 87.28 -12.66 87.28 -15.61 85.43 C-17.93 82.96 -18.75 80.73 -19.28 77.42 C-19.22 76.28 -19.17 75.14 -19.11 73.97 C-19.06 72.66 -19.01 71.35 -18.96 70 C-18.87 68.57 -18.79 67.14 -18.71 65.71 C-18.64 64.23 -18.57 62.74 -18.5 61.25 C-18.35 58.07 -18.19 54.88 -18.02 51.69 C-17.79 47.27 -17.64 42.85 -17.5 38.42 C-17.39 34.78 -17.25 31.14 -17.12 27.5 C-17.05 25.73 -17 23.96 -16.95 22.2 C-16.87 19.7 -16.77 17.22 -16.66 14.73 C-16.65 13.99 -16.63 13.25 -16.62 12.5 C-16.39 8.22 -15.54 4.84 -12.52 1.68 C-8.73 -0.68 -4.31 -0.13 0 0 Z " fill="#F7F7F7" transform="translate(286.76953125,458.4140625)"/>
<path d="M0 0 C1.32 1.64 1.32 1.64 2.64 3.57 C3.09 4.21 3.53 4.85 3.99 5.51 C4.32 6 4.66 6.49 5 7 C6.07 6.87 6.07 6.87 7.16 6.73 C13.9 5.88 20.64 5.04 27.38 4.21 C30.84 3.78 34.3 3.35 37.77 2.92 C41.75 2.41 45.74 1.92 49.73 1.43 C50.96 1.28 52.2 1.12 53.48 0.95 C54.64 0.81 55.8 0.67 56.99 0.53 C58.52 0.34 58.52 0.34 60.08 0.15 C63.22 -0.01 65.91 0.45 69 1 C70.84 1.05 72.67 1.05 74.51 1.01 C75.57 0.98 76.62 0.96 77.71 0.94 C79.4 0.89 79.4 0.89 81.12 0.84 C82.29 0.82 83.46 0.79 84.67 0.77 C89.66 0.65 94.66 0.53 99.65 0.41 C103.31 0.32 106.96 0.24 110.62 0.16 C111.74 0.13 112.86 0.1 114.01 0.06 C115.61 0.03 115.61 0.03 117.23 -0.01 C118.15 -0.03 119.08 -0.05 120.03 -0.08 C123.7 0.02 127.35 0.54 131 1 C130.67 6.61 130.34 12.22 130 18 C130.66 18.33 131.32 18.66 132 19 C131.37 19.01 130.74 19.02 130.09 19.03 C123.37 19.14 116.65 19.26 109.93 19.37 C107.44 19.41 104.95 19.46 102.46 19.5 C89.28 19.71 76.1 19.97 62.93 20.41 C61.9 20.44 60.88 20.47 59.82 20.5 C53.65 20.72 47.74 21.44 41.67 22.53 C38.55 23.08 35.43 23.44 32.27 23.75 C31.12 23.86 29.98 23.97 28.8 24.09 C27.63 24.21 26.46 24.32 25.25 24.44 C16.06 25.37 7.04 26.51 -2 28.45 C-4.75 28.95 -7.21 29.11 -10 29 C-9.65 28.05 -9.3 27.1 -8.94 26.12 C-7.65 23.13 -7.65 23.13 -9 21 C-11.97 21.33 -14.94 21.66 -18 22 C-19.65 18.69 -19.1 15.01 -19.06 11.38 C-19.06 10.57 -19.05 9.77 -19.05 8.95 C-19.04 6.96 -19.02 4.98 -19 3 C-4.28 -1.96 -4.28 -1.96 0 0 Z " fill="#DE0D09" transform="translate(202,1)"/>
<path d="M0 0 C18.82 -0.18 18.82 -0.18 28 1 C26.55 5.12 24.43 8.39 22 12 C21.67 12.99 21.34 13.98 21 15 C21.77 15.1 22.53 15.2 23.32 15.31 C31.98 16.54 40.35 18.44 48.81 20.62 C50.09 20.95 51.37 21.27 52.68 21.61 C55.79 22.4 58.9 23.2 62 24 C62.1 28.37 62.17 32.75 62.22 37.12 C62.24 38.61 62.27 40.09 62.3 41.57 C62.54 51.98 62 60.49 55.69 69.19 C53 71 53 71 49.94 71.12 C46.63 70.4 43.75 68.98 40.69 67.56 C32.76 64.07 24.54 63.64 16 63 C15.84 62.22 15.67 61.44 15.5 60.63 C11.45 41.6 6.59 23.04 0.72 4.49 C0 2 0 2 0 0 Z " fill="#AEAEAE" transform="translate(409,216)"/>
<path d="M0 0 C2.85 0.93 5.65 1.84 8.39 3.06 C11.15 4.06 13.16 4.23 16.08 4.2 C17.01 4.19 17.94 4.18 18.9 4.18 C19.86 4.16 20.82 4.14 21.81 4.12 C22.79 4.12 23.77 4.11 24.78 4.1 C27.19 4.07 29.59 4.04 32 4 C30.38 6.04 28.71 8.04 27 10 C26.34 10 25.68 10 25 10 C25.5 10.99 25.5 10.99 26 12 C27.18 34.55 21.93 56.17 6.5 73.31 C5.01 74.89 3.51 76.45 2 78 C-3.47 83.71 -7.87 89.58 -11.86 96.39 C-14.53 100.81 -14.53 100.81 -17.27 101.91 C-17.84 101.94 -18.41 101.97 -19 102 C-18.95 101.41 -18.91 100.82 -18.86 100.21 C-18.68 96.25 -18.61 93.71 -20.56 90.19 C-22.97 88.03 -25.41 86.61 -28.26 85.1 C-32.25 82.58 -35.38 78.41 -37 74 C-37 72.68 -37 71.36 -37 70 C-33.54 68.85 -30.71 68.8 -27.06 68.75 C-25.84 68.72 -24.61 68.7 -23.35 68.67 C-19.84 69.02 -18.43 69.49 -16 72 C-16 72.66 -16 73.32 -16 74 C-13.52 73.01 -13.52 73.01 -11 72 C-10.5 69.17 -10.5 69.17 -11 66 C-19.82 58.44 -30.51 59.5 -41.42 60.23 C-43.95 60.46 -46.48 60.71 -49 61 C-45.94 57.69 -42.38 56.1 -38.31 54.31 C-37.63 53.99 -36.95 53.67 -36.24 53.34 C-31.27 51.14 -27.44 50.5 -22 51 C-20 53 -20 53 -20 56 C-17.36 54.47 -17.36 54.47 -15 52 C-14.83 48.54 -14.83 48.54 -15 45 C-13.88 42.28 -13.88 42.28 -12 40 C-9.22 39.65 -9.22 39.65 -6.06 39.94 C-1.52 40.39 -1.52 40.39 2.35 38.29 C5.19 34.36 4.66 30.66 4 26 C3.08 22.88 2.01 19.84 0.89 16.79 C-0.23 13.29 -0.33 10.62 0 7 C0.99 6.67 1.98 6.34 3 6 C2.5 5.38 2.01 4.76 1.5 4.12 C0 2 0 2 0 0 Z " fill="#707070" transform="translate(481,317)"/>
<path d="M0 0 C1.98 0 3.96 0 6 0 C6.26 0.72 6.51 1.43 6.77 2.17 C8.09 5.2 9.69 7.63 11.62 10.31 C12.75 11.88 13.88 13.44 15 15 C24.25 13.54 33.38 11.7 42.53 9.68 C47.42 8.63 51.96 7.67 57 8 C56.33 11.57 55.48 15.04 54.51 18.54 C54.22 19.61 53.93 20.68 53.63 21.77 C53.32 22.9 53.01 24.03 52.69 25.19 C49.81 35.73 47.23 46.3 45 57 C44.04 57.03 43.09 57.05 42.11 57.08 C32.87 57.48 25.41 58.94 16.98 62.96 C12.89 64.9 10.34 65.54 6 64 C1.1 59.23 -0.1 54.11 -0.23 47.45 C-0.23 45.24 -0.22 43.03 -0.2 40.82 C-0.19 39.65 -0.19 38.48 -0.19 37.28 C-0.18 33.56 -0.15 29.84 -0.12 26.12 C-0.11 23.6 -0.11 21.07 -0.1 18.55 C-0.08 12.36 -0.04 6.18 0 0 Z " fill="#AEAEAE" transform="translate(131,222)"/>
<path d="M0 0 C7.01 50.71 7.01 50.71 1.77 62.08 C-2.17 66.35 -8.53 66.27 -14 67 C-20.96 68.48 -27.5 70.41 -34.04 73.23 C-36 74 -36 74 -38 74 C-40.93 65.22 -38.14 56.98 -35.25 48.56 C-34.9 47.51 -34.55 46.45 -34.2 45.37 C-32.51 40.3 -30.74 35.28 -28.89 30.27 C-26.91 24.88 -25.36 19.42 -23.93 13.86 C-22.74 9.53 -21.69 6.65 -18 4 C-14.69 2.73 -14.69 2.73 -11 1.75 C-9.78 1.41 -8.57 1.08 -7.31 0.73 C-4 0 -4 0 0 0 Z " fill="#0B090B" transform="translate(138,158)"/>
<path d="M0 0 C0.15 3.56 0.3 7.12 0.44 10.69 C0.49 11.85 0.53 13 0.59 14.2 C0.86 21.31 1.03 28.4 1.06 35.52 C1.08 39.56 1.12 43.61 1.17 47.65 C1.18 49.67 1.18 51.68 1.18 53.7 C1.17 56.58 1.2 59.45 1.23 62.32 C1.22 63.18 1.21 64.04 1.19 64.92 C1.31 70.81 2.85 73.95 6.71 78.39 C8 80 8 80 8 82 C-3.88 82 -15.76 82 -28 82 C-26 77 -26 77 -23.91 74.63 C-21.43 71.22 -21.48 69.1 -21.45 64.91 C-21.44 64.22 -21.43 63.53 -21.42 62.81 C-21.39 60.54 -21.39 58.26 -21.39 55.98 C-21.38 54.4 -21.36 52.81 -21.34 51.23 C-21.3 47.07 -21.28 42.9 -21.26 38.74 C-21.24 34.49 -21.2 30.24 -21.16 25.99 C-21.08 17.66 -21.03 9.33 -21 1 C-17.69 0.83 -14.38 0.67 -11.06 0.5 C-10.12 0.45 -9.17 0.4 -8.2 0.36 C-7.3 0.31 -6.4 0.27 -5.47 0.22 C-4.64 0.18 -3.81 0.13 -2.95 0.09 C-1.97 0.05 -0.98 0 0 0 Z " fill="#FB2112" transform="translate(313,92)"/>
<path d="M0 0 C6.29 -0.11 12.43 0.31 18.69 0.94 C19.61 1.02 20.53 1.11 21.49 1.2 C28.36 1.87 28.36 1.87 31.58 2.53 C34.88 3.17 38.07 3.13 41.44 3.12 C42.71 3.13 43.99 3.13 45.31 3.13 C49.41 3.06 49.41 3.06 55 2 C55 6.95 55 11.9 55 17 C49.91 16.27 47.37 15.8 43 14 C40.5 13.56 40.5 13.56 37.92 13.37 C36.52 13.24 36.52 13.24 35.1 13.11 C34.14 13.03 33.18 12.96 32.19 12.88 C31.21 12.79 30.23 12.7 29.22 12.61 C26.81 12.4 24.41 12.2 22 12 C22.02 12.6 22.05 13.2 22.07 13.82 C22.25 22.56 21.15 31.05 20 39.69 C19.81 41.18 19.61 42.67 19.42 44.16 C18.96 47.78 18.48 51.39 18 55 C20.36 55.17 22.71 55.33 25.07 55.49 C26.38 55.58 27.7 55.67 29.05 55.77 C37.79 56.28 46.32 56.18 55 55 C53.41 59.04 51.72 63.02 50 67 C40.55 67.2 31.33 66.63 21.94 65.62 C20 65.44 20 65.44 18.03 65.24 C16.79 65.11 15.55 64.98 14.28 64.85 C13.17 64.74 12.05 64.62 10.91 64.5 C6.44 63.73 4.6 62.75 1.75 59.19 C-3.08 49.85 0.54 37.35 2.25 27.48 C4.26 16.78 4.26 16.78 4 6 C2.15 3.56 2.15 3.56 0 2 C0 1.34 0 0.68 0 0 Z " fill="#F6F6F6" transform="translate(198,477)"/>
<path d="M0 0 C2.27 15.83 4.38 31.68 6.25 47.56 C6.34 48.31 6.43 49.05 6.52 49.82 C6.77 51.94 7.02 54.07 7.27 56.19 C7.48 58.02 7.48 58.02 7.7 59.89 C8 63 8 63 8 67 C4.46 67.34 0.92 67.67 -2.62 68 C-3.62 68.1 -4.62 68.19 -5.65 68.29 C-6.63 68.38 -7.6 68.47 -8.6 68.56 C-9.49 68.65 -10.38 68.73 -11.3 68.82 C-14.21 69.01 -17.09 69.03 -20 69 C-20.05 68.45 -20.1 67.89 -20.15 67.33 C-20.64 61.57 -21.15 55.81 -21.65 50.05 C-21.84 47.9 -22.03 45.75 -22.22 43.6 C-22.48 40.51 -22.76 37.42 -23.03 34.33 C-23.11 33.37 -23.19 32.42 -23.28 31.43 C-23.4 30.08 -23.4 30.08 -23.52 28.7 C-23.59 27.91 -23.66 27.12 -23.73 26.31 C-24.02 23.84 -24.5 21.44 -25 19 C-25.08 17.53 -25.11 16.05 -25.1 14.57 C-25.09 13.78 -25.09 12.98 -25.09 12.16 C-25.08 11.35 -25.07 10.53 -25.06 9.69 C-25.06 8.85 -25.05 8.02 -25.05 7.15 C-25.04 5.1 -25.02 3.05 -25 1 C-23.08 0.83 -21.17 0.66 -19.25 0.5 C-18.18 0.41 -17.12 0.31 -16.02 0.22 C-10.69 -0.15 -5.34 -0.04 0 0 Z " fill="#0D0B0D" transform="translate(380,465)"/>
<path d="M0 0 C2.8 0.44 2.8 0.44 6 2 C7.61 4.82 8.36 7.82 9.19 10.94 C9.42 11.74 9.66 12.55 9.9 13.38 C10.63 15.91 11.32 18.45 12 21 C14.06 28.6 16.17 36.19 18.38 43.75 C18.68 44.8 18.99 45.86 19.3 46.94 C21.3 53.73 23.45 60.44 25.74 67.13 C27.69 72.97 29.3 78.92 30.95 84.86 C32.35 89.9 32.35 89.9 34.16 94.8 C35.13 97.35 35.23 99.34 35.19 102.06 C35.18 102.9 35.17 103.74 35.17 104.6 C35.01 106.85 34.63 108.83 34 111 C31.55 110.3 29.1 109.58 26.67 108.82 C24.55 108.17 22.4 107.6 20.25 107.06 C14.33 103.3 11.8 96.32 10.19 89.65 C9.61 86.06 9.16 82.47 8.77 78.86 C8.61 77.52 8.44 76.17 8.28 74.83 C7.85 71.33 7.45 67.82 7.05 64.31 C6.66 60.82 6.23 57.32 5.81 53.83 C5.32 49.74 4.84 45.65 4.36 41.55 C3.3 32.41 2.15 23.27 0.87 14.15 C0.22 9.38 -0.13 4.82 0 0 Z " fill="#0E0C0E" transform="translate(467,121)"/>
<path d="M0 0 C22.62 1.8 44.95 4.49 67 10 C67.5 18.91 67.5 18.91 68 28 C62.54 26.91 62.54 26.91 59.42 25.07 C54.28 22.41 48.98 21.67 43.31 20.81 C41.29 20.49 39.26 20.16 37.24 19.83 C35.91 19.63 35.91 19.63 34.55 19.42 C32.02 19 29.51 18.52 27 18 C27 20.97 27 23.94 27 27 C24.81 26.86 22.62 26.71 20.44 26.56 C19.22 26.48 18 26.4 16.75 26.32 C13.13 26.01 9.59 25.55 6 25 C5.99 24.01 5.97 23.02 5.96 22 C5.74 14.99 5.54 9.16 1.06 3.42 C0 2 0 2 0 0 Z " fill="#F8F8F8" transform="translate(354,41)"/>
<path d="M0 0 C0.73 0 1.45 0.01 2.2 0.01 C4.5 0.03 6.8 0.07 9.11 0.11 C10.67 0.12 12.24 0.13 13.81 0.15 C17.64 0.18 21.46 0.23 25.29 0.29 C22.76 13.7 16.18 24.96 5 32.93 C-0.8 35.94 -7.32 36.35 -13.71 35.29 C-18.65 32.07 -19.95 27.65 -21.71 22.29 C-22.36 20.62 -23.03 18.96 -23.71 17.29 C-22.8 17.28 -21.89 17.26 -20.95 17.25 C-5.3 16.66 7.15 11.45 20.29 3.29 C19.41 3.6 19.41 3.6 18.51 3.9 C15.79 4.83 13.07 5.75 10.36 6.67 C9.43 6.99 8.5 7.3 7.55 7.63 C-1.86 10.8 -10.13 12.62 -20.08 12.48 C-20.97 12.48 -21.86 12.48 -22.77 12.48 C-29.28 12.43 -29.28 12.43 -32.71 11.29 C-31.31 7.12 -29.09 6.31 -25.32 4.29 C-21.77 2.94 -18.8 3.03 -15.07 3.41 C-12.59 3.49 -12.59 3.49 -10.54 1.8 C-6.97 -0.1 -3.94 -0.09 0 0 Z " fill="#383838" transform="translate(155.70703125,360.70703125)"/>
<path d="M0 0 C3.08 2.44 5.49 5.36 7.86 8.47 C5.81 9.42 3.75 10.35 1.67 11.25 C-0.26 12.09 -2.19 12.96 -4.1 13.85 C-14.81 18.5 -25.04 19.01 -36.14 15.47 C-35.35 16.09 -34.57 16.71 -33.76 17.35 C-31.14 19.47 -31.14 19.47 -29.14 21.47 C-35.42 21.24 -38.87 19.7 -43.95 16.04 C-46.89 13.93 -49.97 12.22 -53.14 10.47 C-50.43 3.84 -44.42 -0.5 -38.14 -3.53 C-24.61 -8.27 -12.1 -7.93 0 0 Z " fill="#0A0608" transform="translate(364.13671875,292.52734375)"/>
<path d="M0 0 C2.81 2.56 2.81 2.56 5 5 C5.6 5.6 6.2 6.2 6.81 6.81 C7.2 7.2 7.6 7.6 8 8 C7 11 7 11 4.89 12.25 C4.02 12.64 3.15 13.03 2.25 13.44 C-0.85 14.89 -3.15 16.12 -5.81 18.31 C-8.42 20.32 -9.79 20.37 -13 20 C-13 18 -13 18 -11.5 16.38 C-11 15.92 -10.51 15.47 -10 15 C-10.82 15.32 -11.64 15.64 -12.49 15.97 C-23.76 19.27 -34.8 17.4 -45 12 C-45.83 11.6 -46.66 11.19 -47.51 10.78 C-49.36 9.88 -51.18 8.94 -53 8 C-39.66 -9.11 -18.32 -11.81 0 0 Z " fill="#090708" transform="translate(282,293)"/>
<path d="M0 0 C3.13 2.69 5.96 5.39 8 9 C7.98 11.07 7.98 11.07 7 13 C2.38 17.07 -2.44 19.39 -8.62 19.38 C-10.09 19.28 -11.55 19.17 -13 19 C-10 17 -10 17 -8 16 C-8.96 15.91 -9.92 15.83 -10.9 15.74 C-18.54 14.96 -25.82 13.73 -33.19 11.56 C-33.89 11.36 -34.6 11.15 -35.33 10.94 C-39.24 9.74 -42.59 8.27 -46 6 C-44.51 1.79 -42.11 0.7 -38.19 -1.19 C-37.15 -1.7 -36.11 -2.21 -35.04 -2.73 C-23.94 -7.36 -10.14 -6.42 0 0 Z " fill="#0A080A" transform="translate(446,298)"/>
<path d="M0 0 C1.07 0.74 2.15 1.49 3.25 2.25 C2.25 5.25 2.25 5.25 0.42 6.31 C-10.98 10.73 -22.66 12.71 -34.75 14.25 C-33.43 15.24 -32.11 16.23 -30.75 17.25 C-38.19 17.84 -42.63 16.52 -48.75 12.25 C-49.41 11.59 -50.07 10.93 -50.75 10.25 C-50.25 5.13 -46.34 1.6 -42.75 -1.75 C-29.55 -10.36 -12.94 -7.97 0 0 Z " fill="#0C080A" transform="translate(197.75,299.75)"/>
<path d="M0 0 C1.33 0.71 1.33 0.71 2.69 1.44 C6.03 3.01 7.94 3.24 11.56 3.44 C15.17 3.69 16.93 3.96 20.19 5.69 C22 8 22 8 22.62 11 C22 14 22 14 20.19 16.25 C15.66 18.73 11.07 19.32 6 20 C5.34 23.3 4.68 26.6 4 30 C2.01 27.01 1.06 24.4 0 21 C-1.65 21 -3.3 21 -5 21 C-5.66 23.64 -6.32 26.28 -7 29 C-7.66 29 -8.32 29 -9 29 C-9.66 26.03 -10.32 23.06 -11 20 C-11.74 19.9 -12.47 19.8 -13.23 19.7 C-23.7 18.1 -23.7 18.1 -27 14 C-27.62 11 -27.62 11 -27 8 C-24.76 5.14 -22.99 4.14 -19.39 3.64 C-17.46 3.5 -15.52 3.39 -13.58 3.28 C-8.2 2.69 -5.83 -0.71 0 0 Z " fill="#393939" transform="translate(303,337)"/>
<path d="M0 0 C1.61 1.01 3.19 2.04 4.75 3.12 C5.74 3.79 6.73 4.44 7.75 5.12 C7.67 7.87 7.18 9.63 5.37 11.72 C1.38 15.36 -1.98 17.05 -7.25 18.12 C-6.26 16.14 -5.27 14.17 -4.25 12.12 C-4.93 12.41 -5.61 12.7 -6.31 13 C-12.56 15.39 -18.11 16.51 -24.75 16.5 C-25.43 16.5 -26.11 16.5 -26.82 16.5 C-30.44 16.42 -33.17 16.09 -36.25 14.12 C-35.96 8.19 -33.5 4.99 -29.25 1.12 C-21.11 -5.46 -8.81 -4.78 0 0 Z " fill="#080608" transform="translate(123.25,305.875)"/>
<path d="M0 0 C4.79 2.95 7.65 6.32 9.04 11.77 C9.08 12.62 9.12 13.46 9.16 14.33 C4.49 16.16 0.26 16.68 -4.71 16.64 C-5.42 16.64 -6.12 16.64 -6.85 16.64 C-13.66 16.5 -18.17 15.11 -23.84 11.33 C-22.52 13.64 -21.2 15.95 -19.84 18.33 C-26.03 16.89 -29.81 15.03 -33.84 10.05 C-34.84 8.33 -34.84 8.33 -34.84 5.33 C-32.54 3.54 -32.54 3.54 -29.52 1.71 C-28.54 1.1 -27.55 0.49 -26.54 -0.14 C-18.52 -4.67 -8.19 -3.77 0 0 Z " fill="#0A0608" transform="translate(504.8359375,305.66796875)"/>
<path d="M0 0 C11.33 0.71 22.63 1.61 33.94 2.56 C35.6 2.7 37.27 2.84 38.94 2.98 C42.96 3.32 46.98 3.66 51 4 C51 7.96 51 11.92 51 16 C44 15 37 14 30 13 C29.22 12.89 28.44 12.78 27.63 12.66 C26.57 12.51 26.57 12.51 25.49 12.36 C23.61 12.09 23.61 12.09 21.69 11.81 C18.84 11.41 18.84 11.41 16 11 C16 12.65 16 14.3 16 16 C13.73 16.03 11.46 16.05 9.19 16.06 C7.29 16.08 7.29 16.08 5.36 16.1 C2 16 2 16 -1 15 C-1.03 13.63 -1.05 12.25 -1.06 10.88 C-1.07 10.11 -1.09 9.34 -1.1 8.55 C-0.99 5.64 -0.5 2.87 0 0 Z " fill="#F2F2F2" transform="translate(207,454)"/>
<path d="M0 0 C0.69 0.4 1.38 0.81 2.09 1.22 C3.81 2.31 3.81 2.31 6 4 C1.76 7.96 -2.55 9.43 -8 11 C-6.35 8.69 -4.7 6.38 -3 4 C-18.51 4 -34.02 4 -50 4 C-47.13 7.61 -47.13 7.61 -44 11 C-49.85 10.55 -54.08 7.96 -59 5 C-46.82 -9.95 -15.22 -8.95 0 0 Z " fill="#0B090B" transform="translate(327,379)"/>
<path d="M0 0 C0.73 0 1.45 0.01 2.2 0.01 C4.5 0.03 6.8 0.07 9.11 0.11 C10.67 0.12 12.24 0.13 13.81 0.15 C17.64 0.18 21.46 0.23 25.29 0.29 C7.84 9.21 -10.05 13.9 -29.71 12.29 C-30.7 11.96 -31.69 11.63 -32.71 11.29 C-31.31 7.12 -29.09 6.31 -25.32 4.29 C-21.77 2.94 -18.8 3.03 -15.07 3.41 C-12.59 3.49 -12.59 3.49 -10.54 1.8 C-6.97 -0.1 -3.94 -0.09 0 0 Z " fill="#0F0D0F" transform="translate(155.70703125,360.70703125)"/>
<path d="M0 0 C5.58 3.16 5.58 3.16 7 6 C7.46 13.05 7.46 13.05 5.93 16.23 C3.05 18.87 0.77 18.5 -3.06 18.44 C-4.94 18.44 -4.94 18.44 -6.85 18.43 C-8.41 18.22 -8.41 18.22 -10 18 C-12.82 13.77 -12.9 9.97 -12 5 C-9.16 0.57 -5.1 -0.96 0 0 Z " fill="#DF170E" transform="translate(346,292)"/>
<path d="M0 0 C2 2 2 2 2 5 C2.99 4.34 3.98 3.68 5 3 C7.8 2.65 9.33 2.51 11.64 4.2 C13.47 6.63 13.3 8.18 13.19 11.19 C13.15 12.54 13.15 12.54 13.11 13.92 C13.07 14.61 13.04 15.29 13 16 C12.49 15.66 11.98 15.32 11.46 14.98 C10.77 14.53 10.08 14.08 9.38 13.62 C8.37 12.96 8.37 12.96 7.34 12.29 C-2.94 6.62 -15.75 8.69 -27 10 C-23.94 6.69 -20.38 5.1 -16.31 3.31 C-15.29 2.83 -15.29 2.83 -14.24 2.34 C-9.27 0.14 -5.44 -0.5 0 0 Z " fill="#0F0D0F" transform="translate(459,368)"/>
<path d="M0 0 C0.66 0 1.32 0 2 0 C-0.44 7.04 -5.65 12.12 -12.25 15.5 C-17.56 17.57 -23.4 18.1 -29 17 C-31.36 14.97 -31.36 14.97 -33 13 C-32.67 12.01 -32.34 11.02 -32 10 C-30.98 10.07 -29.97 10.14 -28.92 10.21 C-19.3 10.67 -12.18 9.68 -4 4 C-3.27 3.27 -2.55 2.55 -1.8 1.8 C-0.91 0.91 -0.91 0.91 0 0 Z " fill="#100E10" transform="translate(171,379)"/>
<path d="M0 0 C2.44 1.56 2.44 1.56 4 4 C4.51 9.97 4.51 9.97 3 13 C-0.57 14.37 -4.23 14.27 -8 14 C-9.94 12.94 -9.94 12.94 -11 11 C-11.5 7.1 -11.58 4.91 -9.44 1.56 C-6.06 -0.6 -3.94 -0.56 0 0 Z " fill="#170406" transform="translate(178,298)"/>
<path d="M0 0 C2.5 1.62 2.5 1.62 4 4 C4.5 8.11 4.33 9.51 2 13 C-2.92 13.4 -6.54 13.3 -11 11 C-12 10 -12 10 -12.31 7.19 C-12 4 -12 4 -10.5 1.62 C-6.99 -0.65 -4.07 -0.82 0 0 Z " fill="#A50C0B" transform="translate(498,309)"/>
<path d="M0 0 C-15.31 10.25 -27.66 13.88 -46 13 C-46.33 12.01 -46.66 11.02 -47 10 C-46.02 9.9 -45.04 9.8 -44.03 9.7 C-30.3 8.23 -17.61 4.82 -4.73 -0.14 C-2 -1 -2 -1 0 0 Z " fill="#A7A7A7" transform="translate(177,364)"/>
<path d="M0 0 C1.03 0.17 2.06 0.33 3.12 0.5 C12.38 1.65 21.78 1.27 31 0 C27.48 4.79 24.87 7.21 19 9 C12.94 9.77 9.71 8.83 4.7 5.38 C2.75 3.79 1.28 2.17 0 0 Z " fill="#0E0C0E" transform="translate(285,398)"/>
<path d="M0 0 C1.81 1.12 1.81 1.12 3 3 C3.39 6.15 3.53 8.12 1.88 10.88 C-0.91 12.55 -2.82 12.46 -6 12 C-7.94 10.38 -7.94 10.38 -9 8 C-8.88 4.88 -8.88 4.88 -8 2 C-4.77 -0.16 -3.75 -0.47 0 0 Z " fill="#100406" transform="translate(346,296)"/>
<path d="M0 0 C6.43 -0.12 12.62 0.18 19 1 C14.76 3.82 12.87 3 7 3 C7 28.08 7 53.16 7 79 C3.57 74.43 3.65 73.27 3.75 67.75 C3.76 67.03 3.77 66.31 3.78 65.56 C3.81 63.18 3.87 60.8 3.93 58.42 C3.95 56.77 3.98 55.12 4.01 53.46 C4.08 49.11 4.17 44.77 4.26 40.42 C4.35 35.98 4.42 31.55 4.5 27.11 C4.65 18.41 4.82 9.7 5 1 C3.35 1 1.7 1 0 1 C0 0.67 0 0.34 0 0 Z " fill="#585858" transform="translate(296,199)"/>
<path d="M0 0 C2.44 1.56 2.44 1.56 4 4 C4.51 9.97 4.51 9.97 3 13 C-0.57 14.37 -4.23 14.27 -8 14 C-9.94 12.94 -9.94 12.94 -11 11 C-11.5 7.1 -11.58 4.91 -9.44 1.56 C-6.06 -0.6 -3.94 -0.56 0 0 Z M-8 4 C-8.5 7.5 -8.5 7.5 -8 11 C-5.24 13.3 -5.24 13.3 -2.44 12.75 C0.15 12.16 0.15 12.16 2 10 C2.37 7.12 2.42 5.61 0.75 3.19 C-2.68 0.86 -4.8 1.87 -8 4 Z " fill="#AB0909" transform="translate(178,298)"/>
<path d="M0 0 C6.72 0.72 6.72 0.72 8 2 C8.19 4.94 8.19 4.94 8 8 C6 10 6 10 3 10.25 C0 10 0 10 -2 8 C-1.42 1.42 -1.42 1.42 0 0 Z " fill="#100406" transform="translate(491,311)"/>
<path d="M0 0 C5.59 2.96 5.59 2.96 6.88 6.25 C6.92 6.83 6.96 7.4 7 8 C6.01 8 5.02 8 4 8 C3.67 9.32 3.34 10.64 3 12 C2.54 10.55 2.54 10.55 2.06 9.06 C1.3 6.16 1.3 6.16 0 5 C-5.02 5.28 -5.02 5.28 -9 8 C-9.99 7.67 -10.98 7.34 -12 7 C-9.61 1.22 -6.27 -0.88 0 0 Z " fill="#930508" transform="translate(346,292)"/>
<path d="M0 0 C3.15 -0.4 3.15 -0.4 6.94 -0.38 C8.18 -0.38 9.43 -0.39 10.71 -0.4 C14 0 14 0 15.94 1.4 C17 3 17 3 17 5 C14.77 5.05 12.54 5.09 10.31 5.12 C8.45 5.16 8.45 5.16 6.55 5.2 C3.19 5.01 1 4.46 -2 3 C-1.34 2.01 -0.68 1.02 0 0 Z " fill="#121011" transform="translate(447,386)"/>
<path d="M0 0 C0.13 11.05 -0.24 21.98 -1 33 C-1.33 33 -1.66 33 -2 33 C-2 22.77 -2 12.54 -2 2 C-7.44 3.49 -7.44 3.49 -13 5 C-16.69 5.19 -16.69 5.19 -19 5 C-19 4.67 -19 4.34 -19 4 C-16.4 3.33 -13.79 2.66 -11.19 2 C-10.45 1.81 -9.71 1.62 -8.95 1.42 C-5.89 0.65 -3.17 0 0 0 Z " fill="#4D4D4D" transform="translate(131,223)"/>
<path d="M0 0 C0.63 0.42 1.25 0.84 1.9 1.28 C3.12 2.1 3.12 2.1 4.38 2.94 C5.19 3.48 6 4.03 6.84 4.59 C10.39 6.91 12.39 7.11 16.62 7.06 C17.63 7.05 18.63 7.04 19.66 7.04 C20.82 7.02 20.82 7.02 22 7 C22 7.66 22 8.32 22 9 C18.81 10.6 15.47 10.39 12 10 C8.62 8.5 8.62 8.5 6 7 C5.34 7 4.68 7 4 7 C5.65 8.98 7.3 10.96 9 13 C6.03 12.68 4.99 11.99 2.81 9.88 C0.7 6.52 0.31 3.92 0 0 Z " fill="#585858" transform="translate(285,399)"/>
<path d="M0 0 C0.33 0.66 0.66 1.32 1 2 C-2.75 6.88 -2.75 6.88 -5 8 C-7.67 8.13 -10.32 8.04 -13 8 C-13.66 6.68 -14.32 5.36 -15 4 C-14.42 3.96 -13.84 3.93 -13.24 3.89 C-8.18 3.46 -4.46 2.63 0 0 Z " fill="#0A0809" transform="translate(164,398)"/>
<path d="M0 0 C0.33 0.99 0.66 1.98 1 3 C-2.31 5.21 -3.34 5.22 -7.19 5.12 C-8.09 5.11 -8.99 5.09 -9.92 5.07 C-10.61 5.05 -11.29 5.02 -12 5 C-12.33 4.34 -12.66 3.68 -13 3 C-8.52 -0.36 -5.39 -0.27 0 0 Z " fill="#0D0B0C" transform="translate(320,345)"/>
<path d="M0 0 C7.38 -0.49 7.38 -0.49 10.5 2 C11 2.66 11.49 3.32 12 4 C8.87 5.56 5.42 5.4 2 5 C1.01 4.34 0.02 3.68 -1 3 C-0.67 2.01 -0.34 1.02 0 0 Z " fill="#0C0A0B" transform="translate(281,345)"/>
<path d="M0 0 C1.27 0.63 2.52 1.3 3.73 2.02 C6.61 3.26 9.13 3.42 12.25 3.62 C13.33 3.7 14.41 3.77 15.52 3.85 C16.34 3.9 17.16 3.95 18 4 C18 4.33 18 4.66 18 5 C13.38 5 8.76 5 4 5 C5.53 8.81 6.53 10.97 9 14 C5.65 12.61 4.13 11.2 2.25 8.12 C1.82 7.45 1.39 6.77 0.95 6.07 C0 4 0 4 0 0 Z " fill="#5D5D5D" transform="translate(444,387)"/>
<path d="M0 0 C6.62 0.75 6.62 0.75 10 3 C10 3.66 10 4.32 10 5 C3.95 5.2 3.95 5.2 2 5 C1.34 4.34 0.68 3.68 0 3 C0 2.01 0 1.02 0 0 Z " fill="#0F0D0F" transform="translate(452,346)"/>
<path d="M0 0 C-0.88 3.88 -0.88 3.88 -2 5 C-4.67 5.14 -7.32 5.04 -10 5 C-10 4.34 -10 3.68 -10 3 C-6.58 0.46 -4.24 -0.36 0 0 Z " fill="#0F0D0F" transform="translate(149,346)"/>
<path d="M0 0 C0.33 0 0.66 0 1 0 C1.92 9.73 1.92 9.73 -0.34 12.84 C-2 14.19 -2 14.19 -5 16 C-3.41 10.64 -1.81 5.29 0 0 Z " fill="#2A2729" transform="translate(134,110)"/>
<path d="M0 0 C2.31 0 4.62 0 7 0 C7.33 0.66 7.66 1.32 8 2 C7.01 2 6.02 2 5 2 C5 3.98 5 5.96 5 8 C2.69 6.68 0.38 5.36 -2 4 C-1.01 3.67 -0.02 3.34 1 3 C0.67 2.01 0.34 1.02 0 0 Z " fill="#4C4D4C" transform="translate(140,351)"/>
<path d="M0 0 C2.64 0 5.28 0 8 0 C8 1.32 8 2.64 8 4 C5.69 3.67 3.38 3.34 1 3 C0.67 2.01 0.34 1.02 0 0 Z " fill="#0E0C0E" transform="translate(468,350)"/>
<path d="M0 0 C0.66 0.33 1.32 0.66 2 1 C1 3 1 3 -1.4 3.85 C-2.38 4.11 -3.36 4.36 -4.38 4.62 C-5.84 5.02 -5.84 5.02 -7.34 5.41 C-10 6 -10 6 -13 6 C-13.33 6.66 -13.66 7.32 -14 8 C-14.66 7.34 -15.32 6.68 -16 6 C-14.77 5.6 -14.77 5.6 -13.52 5.2 C-12.44 4.84 -11.36 4.49 -10.25 4.12 C-9.18 3.78 -8.12 3.43 -7.02 3.07 C-4.07 2.11 -4.07 2.11 -1.73 0.8 C-1.16 0.54 -0.59 0.27 0 0 Z " fill="#3B383A" transform="translate(85,239)"/>
<path d="M0 0 C2.31 0 4.62 0 7 0 C7.33 0.66 7.66 1.32 8 2 C5.43 3.62 4.32 4.04 1.25 3.62 C0.51 3.42 -0.23 3.21 -1 3 C-0.67 2.01 -0.34 1.02 0 0 Z " fill="#0C0A0B" transform="translate(125,350)"/>
<path d="M0 0 C0 3 0 3 -2 6 C-1.01 6.33 -0.02 6.66 1 7 C1 9.31 1 11.62 1 14 C0.67 14 0.34 14 0 14 C0 12.02 0 10.04 0 8 C-1.32 8 -2.64 8 -4 8 C-4.33 6.02 -4.66 4.04 -5 2 C-3.35 1.34 -1.7 0.68 0 0 Z " fill="#616161" transform="translate(119,317)"/>
<path d="M0 0 C0.27 0.6 0.54 1.2 0.81 1.81 C2.84 5.54 5.16 7.28 9 9 C2.59 9.36 2.59 9.36 0.06 7.81 C-1.34 5.41 -1.29 3.74 -1 1 C-0.67 0.67 -0.34 0.34 0 0 Z " fill="#D7160F" transform="translate(168,303)"/>
<path d="M0 0 C2.31 0 4.62 0 7 0 C6.67 0.99 6.34 1.98 6 3 C5.01 3.33 4.02 3.66 3 4 C2.67 7.3 2.34 10.6 2 14 C1.67 14 1.34 14 1 14 C0.67 9.38 0.34 4.76 0 0 Z " fill="#494949" transform="translate(471,240)"/>
<path d="M0 0 C0.33 0.66 0.66 1.32 1 2 C-0.28 3.71 -1.62 5.37 -3 7 C-3.66 7 -4.32 7 -5 7 C-5.33 5.68 -5.66 4.36 -6 3 C-4.02 2.01 -2.04 1.02 0 0 Z " fill="#1C1A1B" transform="translate(164,398)"/>
<path d="M0 0 C0.99 0 1.98 0 3 0 C3.12 2.88 3.12 2.88 3 6 C2.34 6.66 1.68 7.32 1 8 C0.01 7.01 -0.98 6.02 -2 5 C-1.34 3.35 -0.68 1.7 0 0 Z " fill="#CE0D09" transform="translate(350,300)"/>
<path d="M0 0 C1.76 3.09 2 4.23 2 8 C0.5 9.75 0.5 9.75 -1 11 C-1.12 3.38 -1.12 3.38 0 0 Z " fill="#868686" transform="translate(75,292)"/>
<path d="M0 0 C0.99 0.33 1.98 0.66 3 1 C3.33 2.65 3.66 4.3 4 6 C3.01 6 2.02 6 1 6 C0.34 7.32 -0.32 8.64 -1 10 C-0.67 6.7 -0.34 3.4 0 0 Z " fill="#484948" transform="translate(129,274)"/>
<path d="M0 0 C0.33 0 0.66 0 1 0 C1.04 2.33 1.04 4.67 1 7 C0 8 0 8 -1.85 8.1 C-3.9 8.07 -5.95 8.03 -8 8 C-8 7.67 -8 7.34 -8 7 C-7.05 6.77 -6.1 6.55 -5.12 6.31 C-1.81 5.31 -1.81 5.31 -0.62 2.38 C-0.42 1.59 -0.21 0.81 0 0 Z " fill="#C71E14" transform="translate(500,314)"/>
<path d="M0 0 C2.68 4.02 2.16 6.24 2 11 C-0.12 8.88 -0.12 8.88 -2 6 C-1.25 2.69 -1.25 2.69 0 0 Z " fill="#777777" transform="translate(525,292)"/>
<path d="M0 0 C-1.07 2.92 -1.78 4.78 -4 7 C-4 5.68 -4 4.36 -4 3 C-5.32 2.67 -6.64 2.34 -8 2 C-2.25 0 -2.25 0 0 0 Z " fill="#939393" transform="translate(202,304)"/>
<path d="M0 0 C0.33 0 0.66 0 1 0 C1.12 6.62 1.12 6.62 0 10 C-0.99 10.33 -1.98 10.66 -3 11 C-2.01 7.37 -1.02 3.74 0 0 Z " fill="#464345" transform="translate(107,194)"/>
<path d="M0 0 C1.32 0.33 2.64 0.66 4 1 C1.69 2.65 -0.62 4.3 -3 6 C-3.33 5.34 -3.66 4.68 -4 4 C-2.25 1.94 -2.25 1.94 0 0 Z " fill="#2F2D2F" transform="translate(120,162)"/>
<path d="M0 0 C0.33 0 0.66 0 1 0 C1.33 3.3 1.66 6.6 2 10 C-0.97 9.5 -0.97 9.5 -4 9 C-2.68 8.67 -1.36 8.34 0 8 C0 5.36 0 2.72 0 0 Z " fill="#B7B6B6" transform="translate(460,77)"/>
<path d="M0 0 C2.31 0.33 4.62 0.66 7 1 C7 1.33 7 1.66 7 2 C5.35 2.33 3.7 2.66 2 3 C1.67 4.65 1.34 6.3 1 8 C0.67 8 0.34 8 0 8 C0 5.36 0 2.72 0 0 Z " fill="#373537" transform="translate(220,489)"/>
<path d="M0 0 C2.31 1.65 4.62 3.3 7 5 C3.38 6.21 2.36 5.54 -1 4 C-0.67 2.68 -0.34 1.36 0 0 Z " fill="#353334" transform="translate(276,384)"/>
</svg>
