<?xml version="1.0" encoding="UTF-8"?>
<!-- Generator: https://ezgif.com/png-to-svg -->
<svg version="1.1" xmlns="http://www.w3.org/2000/svg" width="512" height="512" viewBox="0.155 -3 56 56" preserveAspectRatio="xMidYMid meet">
<path d="M0 0 C5.28 0 10.56 0 16 0 C16 1.32 16 2.64 16 4 C16.62 3.5 17.24 3.01 17.88 2.5 C20 1 20 1 22 1 C22.31 3.75 22.31 3.75 22 7 C20.79 7.87 20.79 7.87 19.56 8.75 C16.51 11.43 16.55 12.33 16.19 16.25 C16.1 17.83 16.03 19.42 16 21 C14.35 21.66 12.7 22.32 11 23 C10.67 20.69 10.34 18.38 10 16 C6.89 17.99 6.89 17.99 5.25 21.19 C5.17 21.79 5.09 22.38 5 23 C3.35 23 1.7 23 0 23 C0 15.41 0 7.82 0 0 Z M5 5 C5 7.64 5 10.28 5 13 C8.08 11.28 8.08 11.28 11 9 C11 7.68 11 6.36 11 5 C9.02 5 7.04 5 5 5 Z " fill="#D3BA82" transform="translate(17,0)"/>
<path d="M0 0 C0.31 2.25 0.31 2.25 0 5 C-0.81 5.5 -1.63 5.99 -2.47 6.5 C-5.87 9.86 -5.65 12.18 -5.79 16.82 C-5.8 17.78 -5.81 18.75 -5.81 19.75 C-5.84 20.73 -5.86 21.72 -5.89 22.73 C-5.95 25.15 -5.98 27.58 -6 30 C-7.65 30 -9.3 30 -11 30 C-11.33 24.72 -11.66 19.44 -12 14 C-12.99 14.33 -13.98 14.66 -15 15 C-15.66 14.67 -16.32 14.34 -17 14 C-17 19.28 -17 24.56 -17 30 C-18.65 30 -20.3 30 -22 30 C-22 22.41 -22 14.82 -22 7 C-18.67 7 -15.33 7 -12 7 C-9.67 5.48 -9.67 5.48 -7.44 3.5 C-3.32 0 -3.32 0 0 0 Z " fill="#D3BA81" transform="translate(39,20)"/>
</svg>
