<?xml version="1.0" encoding="UTF-8"?>
<!-- Generator: https://ezgif.com/png-to-svg -->
<svg version="1.1" xmlns="http://www.w3.org/2000/svg" width="512" height="512" viewBox="-48.269 -18.049 292.074 292.074" preserveAspectRatio="xMidYMid meet">
<path d="M0 0 C2.58 1.42 4.64 3.13 6.68 5.24 C9.62 8.09 13.05 9.54 16.74 11.24 C17.73 11.74 17.73 11.74 18.74 12.24 C19.36 12.06 19.98 11.87 20.62 11.68 C23.38 11.11 24.27 11.7 26.62 13.18 C35.07 18.98 37.59 26.03 39.87 35.68 C40.56 38.51 41.35 41.1 42.43 43.8 C45.82 52.69 45.2 61.86 43.74 71.12 C42.08 82.35 41.88 90.87 46.7 101.22 C48.44 105.01 48.8 106 47.74 110.24 C44.77 108.59 41.8 106.94 38.74 105.24 C38.87 106.36 39.01 107.49 39.14 108.64 C40.03 116.17 40.92 123.7 41.74 131.24 C38.91 130.91 37.95 130.51 36.14 128.24 C33.15 123.01 30.65 117.96 28.74 112.24 C28.13 113.77 27.52 115.29 26.91 116.81 C26.38 118.16 25.84 119.5 25.29 120.84 C23.9 124.3 22.54 127.76 21.25 131.26 C17.89 140.31 14.07 148.73 5.74 154.24 C5.08 154.24 4.42 154.24 3.74 154.24 C3.74 154.9 3.74 155.56 3.74 156.24 C5.04 156.14 6.34 156.04 7.68 155.93 C15.06 155.91 21.75 158.43 28.71 160.63 C31.5 161.47 34.33 162.11 37.18 162.74 C48.94 165.66 59.02 172.15 65.74 182.43 C69.38 188.97 70.48 194.8 69.74 202.24 C68.14 207.71 65.28 211.24 61.48 215.34 C59.59 217.36 59.59 217.36 57.49 220.18 C44.25 236.02 22.44 247.27 2.99 253.12 C2.36 253.31 1.72 253.5 1.06 253.7 C-10.46 256.9 -22.04 257.62 -33.95 257.55 C-34.65 257.55 -35.35 257.55 -36.07 257.55 C-47.04 257.5 -57.59 256.91 -68.26 254.24 C-69.3 253.99 -69.3 253.99 -70.36 253.74 C-88.98 249.18 -111.63 240.1 -123.63 224.45 C-127.46 218 -127.07 210.79 -125.79 203.6 C-121.89 188.77 -111.29 178.1 -99.17 169.4 C-96.49 167.41 -94.07 165.33 -91.63 163.05 C-85.94 157.89 -80.02 153.76 -72.45 152.12 C-69.27 151.18 -68.44 150.53 -66.66 147.68 C-65.33 144.57 -64.24 141.48 -63.26 138.24 C-63.01 137.51 -62.77 136.78 -62.52 136.03 C-60.96 130.8 -61.06 125.63 -61.26 120.24 C-62.35 119.97 -63.44 119.71 -64.57 119.43 C-68.04 118.31 -68.98 117.8 -71.26 115.24 C-71.5 116.91 -71.5 116.91 -71.74 118.61 C-74.19 134.7 -79.3 144.9 -92.3 154.96 C-94.26 156.24 -94.26 156.24 -96.26 156.24 C-96.92 158.55 -97.58 160.86 -98.26 163.24 C-100.45 163.24 -100.45 163.24 -103.26 162.24 C-106.64 158.23 -108.31 154.37 -109.26 149.24 C-108.7 148.96 -108.15 148.68 -107.58 148.39 C-105.05 147.1 -102.53 145.79 -100.01 144.49 C-99.14 144.05 -98.26 143.61 -97.36 143.15 C-89.64 139.32 -89.64 139.32 -85.26 132.24 C-85.19 129.85 -85.17 127.45 -85.2 125.05 C-85.2 123.78 -85.21 122.51 -85.22 121.2 C-85.23 120.22 -85.25 119.25 -85.26 118.24 C-88.62 123.9 -91.25 129.66 -93.79 135.72 C-96.05 141.04 -96.05 141.04 -98.26 143.24 C-100.88 142.87 -100.88 142.87 -103.26 142.24 C-107.05 132.61 -107.05 132.61 -105.26 127.24 C-104.16 125.02 -102.97 122.89 -101.72 120.75 C-99.6 117.11 -97.66 113.36 -95.69 109.62 C-94.39 107.46 -93.13 105.92 -91.26 104.24 C-92.02 100.93 -92.02 100.93 -95.45 99.12 C-103.52 93.54 -107.05 84.5 -109.26 75.24 C-111.05 65.08 -110.14 56.11 -105.57 46.8 C-101.65 42.47 -97.15 39.94 -91.7 37.93 C-87.69 35.96 -85.79 33.7 -83.01 30.29 C-81.37 28.37 -79.71 26.83 -77.76 25.24 C-75.16 23.12 -73.07 20.9 -70.95 18.3 C-66.96 13.65 -62.38 10.53 -57.26 7.24 C-56.17 6.37 -56.17 6.37 -55.05 5.47 C-46.58 -0.53 -36.83 0.87 -26.93 1.23 C-17.64 1.48 -9.42 -3.16 0 0 Z M30.74 187.24 C32.09 191.7 33.85 195.53 36.18 199.55 C36.78 200.6 37.37 201.65 37.99 202.73 C39.56 205.51 39.56 205.51 42.74 206.24 C40.83 198.98 37.1 191.47 30.74 187.24 Z " fill="#080807" transform="translate(126.2578125,0.7578125)"/>
<path d="M0 0 C4.06 3.68 6.28 7.1 7.25 12.62 C6.69 15.44 6.69 15.44 4.38 17.25 C0.55 20.36 -0.26 23.7 -1.31 28.44 C-1.64 32.3 -1.6 36.12 -1.5 40 C-1.49 41.01 -1.47 42.02 -1.46 43.06 C-1.42 45.52 -1.37 47.98 -1.31 50.44 C-0.65 50.44 0.01 50.44 0.69 50.44 C0.88 56.49 0.88 56.49 0.69 58.44 C-1.31 60.44 -1.31 60.44 -4.79 60.63 C-6.17 60.62 -7.55 60.6 -8.94 60.56 C-9.64 60.55 -10.35 60.54 -11.08 60.54 C-12.82 60.51 -14.57 60.48 -16.31 60.44 C-16.31 61.1 -16.31 61.76 -16.31 62.44 C-15.31 62.57 -14.31 62.7 -13.29 62.84 C-11.99 63.02 -10.7 63.19 -9.38 63.38 C-7.44 63.64 -7.44 63.64 -5.47 63.9 C-2.31 64.44 -2.31 64.44 -1.31 65.44 C-1.27 67.44 -1.27 69.44 -1.31 71.44 C-1.98 71.38 -2.65 71.32 -3.33 71.26 C-11.13 70.88 -16.49 72.74 -23.31 76.44 C-21.94 76.33 -21.94 76.33 -20.53 76.22 C-7.17 75.21 -7.17 75.21 -1.31 75.44 C-0.31 76.44 -0.31 76.44 -0.19 78.94 C-0.31 81.44 -0.31 81.44 -1.31 82.44 C-3.67 82.51 -6.02 82.52 -8.38 82.5 C-10.31 82.49 -10.31 82.49 -12.29 82.47 C-13.28 82.46 -14.28 82.45 -15.31 82.44 C-13.73 85.6 -10.71 86.06 -7.54 87.34 C-5.26 88.46 -3.91 89.48 -2.31 91.44 C-1.81 93.88 -1.81 93.88 -2.31 96.44 C-4.42 99.13 -6.25 100.17 -9.57 101 C-23.74 102.35 -37.69 88.5 -48.31 80.44 C-45.88 85.49 -43.02 90.08 -39.93 94.75 C-35.52 102.06 -35.31 109.14 -36.88 117.45 C-39.12 126.08 -41.79 132.36 -49.31 137.44 C-55.53 140.89 -61.2 143.03 -68.31 143.44 C-71.91 138.83 -72.71 136.24 -72.31 130.44 C-71.68 127.75 -71 125.19 -70.18 122.57 C-69.95 121.83 -69.73 121.1 -69.5 120.34 C-67.9 115.16 -66.18 110.03 -64.42 104.9 C-64.06 103.85 -64.06 103.85 -63.69 102.77 C-63.45 102.07 -63.21 101.36 -62.96 100.64 C-62.72 99.94 -62.48 99.23 -62.24 98.51 C-61.74 97.08 -61.24 95.66 -60.74 94.24 C-56.24 81.57 -53.35 68.62 -58.81 55.69 C-61.57 48.26 -63.14 41.17 -60.2 33.56 C-53.29 22.12 -43.23 14.56 -30.92 9.92 C-26.67 8.17 -23.61 5.88 -20.12 2.95 C-13.98 -2.19 -7.24 -3.42 0 0 Z " fill="#F7F7F7" transform="translate(133.3125,52.5625)"/>
<path d="M0 0 C-0.61 3.07 -1.6 5.13 -3.38 7.69 C-8.45 15.68 -10.16 23.54 -9 33 C-7.33 38.52 -4.76 41.71 0 45 C3.32 46.32 3.32 46.32 6.81 47.25 C7.97 47.59 9.14 47.92 10.33 48.27 C11.21 48.51 12.09 48.75 13 49 C10.81 51.52 9.31 52.5 6 53 C4.29 53.09 2.58 53.13 0.88 53.12 C-0.43 53.13 -0.43 53.13 -1.76 53.13 C-4 53 -4 53 -6 52 C-4.63 55.16 -4.01 55.99 -1 58 C10.77 60.03 19.86 52.27 29 46 C31.01 44.63 33.03 43.28 35.06 41.94 C35.94 41.35 36.82 40.76 37.72 40.15 C38.47 39.77 39.23 39.39 40 39 C41.48 39.5 41.48 39.5 43 40 C42.36 40.63 41.72 41.26 41.06 41.91 C37.02 45.9 33.02 49.88 29.31 54.19 C19.78 65.25 8.39 76.37 -6.39 79.51 C-11.34 79.79 -14.35 78.17 -18 75 C-27.27 64.74 -29.84 53.53 -29.18 39.97 C-28.09 28.19 -22.32 18.3 -14.62 9.69 C-13.96 8.93 -13.96 8.93 -13.27 8.16 C-9.95 4.59 -5.18 0 0 0 Z " fill="#EFEFEF" transform="translate(52,162)"/>
<path d="M0 0 C0.66 0 1.32 0 2 0 C1.97 1.67 1.97 1.67 1.93 3.37 C1.81 11.47 1.83 19.11 4 27 C4.66 27 5.32 27 6 27 C6.03 26.02 6.05 25.04 6.08 24.04 C6.41 16.32 7.03 9.81 11 3 C11.66 3 12.32 3 13 3 C13.01 3.9 13.01 3.9 13.03 4.81 C13.24 15.5 13.47 25.29 17.14 35.41 C18.26 38.8 18.33 41.48 18 45 C3.46 52.53 3.46 52.53 -5 52 C-10.11 40.41 -10.11 22.95 -6.25 10.94 C-4.6 6.94 -2.77 3.33 0 0 Z " fill="#F7F7F7" transform="translate(128,192)"/>
<path d="M0 0 C-1.48 3.46 -3.47 5.6 -6.12 8.25 C-13.76 16.56 -17.96 27.05 -21.94 37.49 C-29.69 55.84 -29.69 55.84 -36 59 C-38.33 59.04 -40.67 59.04 -43 59 C-41.29 55.42 -39.21 52.2 -37.02 48.9 C-35.76 46.92 -35.76 46.92 -36 44 C-36.75 44.69 -37.5 45.37 -38.27 46.08 C-39.26 46.99 -40.26 47.9 -41.25 48.81 C-41.74 49.26 -42.23 49.72 -42.74 50.18 C-50.06 56.87 -50.06 56.87 -53.14 57.29 C-55.09 57.2 -57.05 57.1 -59 57 C-59 56.01 -59 55.02 -59 54 C-57.16 52.27 -57.16 52.27 -54.62 50.38 C-44.43 42.48 -36.16 33.9 -28 24 C-26.22 21.93 -24.42 19.88 -22.61 17.83 C-21.49 16.55 -20.39 15.26 -19.3 13.95 C-14.81 8.59 -7.41 0 0 0 Z " fill="#F1F1F1" transform="translate(119,190)"/>
<path d="M0 0 C7.57 0.07 14.62 4.29 20.56 8.75 C26.59 14.92 30.66 21.05 30.61 29.75 C29.92 34.17 27.54 37.52 24.19 40.44 C23.2 40.44 22.21 40.44 21.19 40.44 C20.54 38.69 19.89 36.94 19.25 35.19 C18.71 33.73 18.71 33.73 18.16 32.23 C17.37 29.97 16.71 27.77 16.19 25.44 C17.84 26.1 19.49 26.76 21.19 27.44 C21.19 22.87 18.71 20.21 15.86 16.89 C11.08 12.2 5.33 10.44 -0.9 8.42 C-3.81 7.44 -3.81 7.44 -4.81 6.44 C-4.94 3.94 -4.94 3.94 -4.81 1.44 C-3.81 0.44 -3.81 0.44 0 0 Z " fill="#ECECEC" transform="translate(157.8125,170.5625)"/>
<path d="M0 0 C0.66 0 1.32 0 2 0 C2.05 4.95 2.09 9.9 2.11 14.84 C2.12 16.53 2.13 18.21 2.15 19.9 C2.18 22.31 2.19 24.73 2.2 27.15 C2.21 27.9 2.22 28.66 2.23 29.44 C2.23 31.29 2.12 33.15 2 35 C-1.72 38.72 -7.43 38.06 -12.44 38.06 C-13.96 38.05 -15.48 38.03 -17 38 C-15.28 33.49 -13.21 29.17 -11.12 24.81 C-8.5 19.28 -6.01 13.75 -3.81 8.03 C-2.7 5.26 -1.39 2.64 0 0 Z " fill="#EEEEEE" transform="translate(111,212)"/>
<path d="M0 0 C0.66 0 1.32 0 2 0 C1.86 1.48 1.71 2.96 1.56 4.44 C1.48 5.26 1.4 6.08 1.32 6.93 C1 9 1 9 0 10 C-0.25 13.22 -0.19 16.46 -0.19 19.69 C-0.2 20.59 -0.21 21.49 -0.22 22.41 C-0.24 27.4 0.21 31.28 2 36 C2 37.32 2 38.64 2 40 C-2.26 39.74 -5.48 38.15 -8.59 35.32 C-11.81 30.02 -11.11 22.92 -10 17 C-7.78 10.58 -4.51 5.08 0 0 Z " fill="#EFEFEF" transform="translate(18,187)"/>
<path d="M0 0 C0.66 0 1.32 0 2 0 C1.84 1.18 1.67 2.35 1.5 3.56 C0.2 15.67 -0.08 27.52 5.88 38.44 C9.54 42.86 12.04 45.09 17.81 45.75 C19.21 45.85 20.6 45.94 22 46 C22 46.99 22 47.98 22 49 C17.81 51.1 12.56 50.41 8 50 C2.55 47.4 -0.51 41.34 -3 36 C-3.83 32.97 -3.98 30.14 -4 27 C-4.03 25.95 -4.05 24.91 -4.08 23.83 C-4.3 7.49 -4.3 7.49 0 0 Z " fill="#101010" transform="translate(33,184)"/>
<path d="M0 0 C5.27 1.39 7.97 4.69 11 9 C16.74 20.23 11.87 36.81 9.47 48.59 C8.08 55.64 7.59 62.52 7.38 69.69 C7.32 71.33 7.32 71.33 7.26 73.01 C7.16 75.67 7.08 78.33 7 81 C4.68 76.85 4.7 73.1 4.75 68.44 C4.75 67.61 4.76 66.78 4.76 65.92 C4.91 55.95 5.73 45.86 7.55 36.04 C8.16 31.9 8.26 27.81 8.31 23.62 C8.34 22.81 8.37 22 8.4 21.16 C8.47 14.09 6.65 8.8 1.75 3.62 C1.17 3.09 0.59 2.55 0 2 C0 1.34 0 0.68 0 0 Z " fill="#D6D6D6" transform="translate(154,36)"/>
<path d="M0 0 C1.86 2.48 1.44 4.65 1.24 7.65 C0.25 7.65 -0.74 7.65 -1.76 7.65 C-1.76 5.67 -1.76 3.69 -1.76 1.65 C-4.17 2.59 -4.17 2.59 -5.2 6.09 C-6.76 9.65 -6.76 9.65 -9.76 11.65 C-14.14 12.35 -17.65 12.44 -21.32 9.84 C-22.76 7.65 -22.76 7.65 -22.76 4.65 C-20.42 1.32 -17.81 -1 -13.95 -2.29 C-3.25 -2.49 -3.25 -2.49 0 0 Z " fill="#BD8E45" transform="translate(145.7578125,166.34765625)"/>
<path d="M0 0 C0.66 0 1.32 0 2 0 C2 1.98 2 3.96 2 6 C2.66 6 3.32 6 4 6 C3.53 10.27 1.12 12.25 -2 15 C-6.66 17.87 -11.7 17.79 -17 17 C-19.69 14.81 -19.69 14.81 -21 12 C-21.25 9.19 -21.25 9.19 -21 7 C-19.68 6.34 -18.36 5.68 -17 5 C-16.34 6.32 -15.68 7.64 -15 9 C-8.95 9.59 -8.95 9.59 -3.56 7.31 C-1.96 4.94 -0.9 2.71 0 0 Z " fill="#AE833F" transform="translate(142,168)"/>
<path d="M0 0 C-0.79 6.04 -2.15 9.93 -6.46 14.3 C-10.04 18.26 -11.84 22.86 -13.69 27.81 C-14.12 28.97 -14.56 30.14 -15.01 31.33 C-15.34 32.21 -15.66 33.09 -16 34 C-16.99 34 -17.98 34 -19 34 C-20.56 27.27 -20.56 27.27 -19.16 24.11 C-18.31 22.81 -17.42 21.54 -16.52 20.27 C-14.73 17.59 -13.47 14.81 -12.12 11.88 C-9.81 7.13 -6.09 0 0 0 Z " fill="#B18540" transform="translate(44,104)"/>
<path d="M0 0 C0.66 0.66 1.32 1.32 2 2 C1.41 2.98 0.83 3.97 0.23 4.98 C-2.44 9.64 -4.46 14.53 -6.53 19.48 C-8.8 24.8 -8.8 24.8 -11 27 C-13.62 26.62 -13.62 26.62 -16 26 C-19.99 15.86 -19.99 15.86 -18 11 C-15.83 9.04 -13.51 7.48 -11 6 C-11.75 10.75 -11.75 10.75 -14 13 C-14.02 14.99 -14.02 14.99 -13.62 17.12 C-13.42 18.4 -13.21 19.68 -13 21 C-10.49 17.99 -9.29 15.28 -8.12 11.56 C-6.47 6.78 -4.91 4.17 -1 1 C-0.67 0.67 -0.34 0.34 0 0 Z " fill="#060503" transform="translate(39,117)"/>
<path d="M0 0 C1.79 0.11 3.58 0.24 5.38 0.38 C6.87 0.48 6.87 0.48 8.4 0.59 C11 1 11 1 13 3 C13.12 6.12 13.12 6.12 13 9 C12.22 9.23 11.43 9.45 10.62 9.69 C7.78 10.78 7.78 10.78 6.69 13.62 C6.46 14.41 6.23 15.19 6 16 C4.12 15.75 4.12 15.75 2 15 C-0.16 11.76 -0.22 9.07 -0.12 5.25 C-0.1 3.77 -0.1 3.77 -0.07 2.27 C-0.05 1.52 -0.02 0.77 0 0 Z " fill="#E6E6E6" transform="translate(138,91)"/>
<path d="M0 0 C1.17 -0 2.33 -0.01 3.53 -0.01 C6.5 0.12 6.5 0.12 8.5 1.12 C8.5 1.79 8.5 2.45 8.5 3.12 C7.91 3.26 7.31 3.4 6.7 3.54 C-4.57 6.46 -15.11 13.01 -21.31 23.06 C-21.7 23.74 -22.1 24.42 -22.5 25.12 C-23.16 25.12 -23.82 25.12 -24.5 25.12 C-23.74 18.46 -19.18 14.59 -14.5 10.12 C-11.61 7.92 -8.64 5.95 -5.5 4.12 C-6.49 3.79 -7.48 3.46 -8.5 3.12 C-8.5 2.46 -8.5 1.8 -8.5 1.12 C-5.65 -0.3 -3.18 -0.01 0 0 Z " fill="#D3D3D3" transform="translate(87.5,6.875)"/>
<path d="M0 0 C0.99 0.33 1.98 0.66 3 1 C2.94 1.54 2.88 2.07 2.82 2.62 C2.31 7.4 1.95 12.13 1.77 16.92 C1.47 24.24 0.4 30.42 -3 37 C-3.66 37 -4.32 37 -5 37 C-4.76 35.95 -4.76 35.95 -4.51 34.89 C-3.97 31.81 -3.84 28.91 -3.79 25.78 C-3.76 24.6 -3.73 23.42 -3.7 22.21 C-3.65 19.74 -3.61 17.26 -3.57 14.79 C-3.54 13.61 -3.51 12.43 -3.48 11.22 C-3.46 10.15 -3.44 9.07 -3.42 7.97 C-2.95 4.66 -1.89 2.72 0 0 Z " fill="#AE833F" transform="translate(49,102)"/>
<path d="M0 0 C6.07 3.47 10.75 8.26 13 15 C13.09 16.75 13.13 18.5 13.13 20.25 C13.13 21.78 13.13 21.78 13.14 23.34 C13.13 24.4 13.13 25.47 13.12 26.56 C13.13 27.63 13.13 28.7 13.14 29.79 C13.14 30.81 13.13 31.83 13.13 32.88 C13.13 33.81 13.13 34.75 13.13 35.71 C13 38 13 38 12 40 C11.34 40 10.68 40 10 40 C9.99 39.39 9.98 38.77 9.97 38.14 C9.92 35.3 9.83 32.46 9.75 29.62 C9.74 28.66 9.72 27.69 9.71 26.7 C9.37 16.74 6.65 9.39 0 2 C0 1.34 0 0.68 0 0 Z " fill="#C8C8C8" transform="translate(147,36)"/>
<path d="M0 0 C0.99 0.33 1.98 0.66 3 1 C3.31 1.66 3.62 2.32 3.94 3 C4.29 3.66 4.64 4.32 5 5 C5.66 5.16 6.32 5.33 7 5.5 C9 6 9 6 10.1 7.75 C11.58 11.45 11.62 15.08 11 19 C9.12 21.06 9.12 21.06 7 22 C6.34 22 5.68 22 5 22 C4.88 21.35 4.76 20.7 4.63 20.02 C3.71 15.2 2.59 10.66 1 6 C0.63 4.01 0.29 2.01 0 0 Z " fill="#E9E9E9" transform="translate(162,201)"/>
<path d="M0 0 C0.35 5.8 0.28 9.97 -3 15 C-5.19 17.38 -5.19 17.38 -7 19 C-6.83 17.89 -6.67 16.77 -6.5 15.62 C-5.95 12.28 -5.95 12.28 -6 10 C-6.27 10.54 -6.53 11.09 -6.8 11.64 C-7.33 12.72 -7.33 12.72 -7.88 13.81 C-8.22 14.52 -8.57 15.23 -8.93 15.96 C-10 18 -10 18 -12 21 C-12.74 12.84 -10.04 7.67 -4.88 1.44 C-3 0 -3 0 0 0 Z " fill="#B08440" transform="translate(77,26)"/>
<path d="M0 0 C0 1.98 0 3.96 0 6 C-1.12 5.57 -2.25 5.13 -3.4 4.69 C-4.91 4.12 -6.43 3.56 -7.94 3 C-8.67 2.71 -9.41 2.43 -10.17 2.13 C-18.15 -0.8 -24.99 -0.73 -33 2 C-23.64 -8.14 -11.68 -3.45 0 0 Z " fill="#161616" transform="translate(120,74)"/>
<path d="M0 0 C-0.45 7.28 -3.44 12.07 -8.19 17.5 C-10 19 -10 19 -12 19 C-10.5 15.89 -8.8 12.95 -7 10 C-8.18 11.21 -8.18 11.21 -9.38 12.44 C-12 15 -12 15 -14 16 C-13.71 10.08 -11.14 6.94 -7 3 C-2.74 0 -2.74 0 0 0 Z " fill="#B38641" transform="translate(93,20)"/>
<path d="M0 0 C0.66 0 1.32 0 2 0 C1.17 5.39 -2.82 7.92 -7 11 C-13.51 14.68 -19.71 15.12 -27 15 C-27 14.34 -27 13.68 -27 13 C-25.42 12.56 -25.42 12.56 -23.82 12.12 C-14.77 9.51 -6.82 6.82 0 0 Z " fill="#D9D9D9" transform="translate(117,40)"/>
<path d="M0 0 C0.38 2.06 0.38 2.06 0 5 C-1.79 7.54 -3.84 9.77 -6 12 C-5.36 13.31 -4.71 14.63 -4.06 15.94 C-3.7 16.67 -3.34 17.4 -2.97 18.15 C-2.14 19.96 -2.14 19.96 -1 21 C-0.96 22.67 -0.96 24.33 -1 26 C-4.99 24.67 -5.9 22.78 -7.98 19.25 C-9.69 15.48 -9.6 13.13 -9 9 C-4.08 0 -4.08 0 0 0 Z " fill="#E0E0E0" transform="translate(35,68)"/>
<path d="M0 0 C0.99 0.33 1.98 0.66 3 1 C3.55 13.67 3.55 13.67 0 19 C-0.33 19 -0.66 19 -1 19 C-1.33 17.02 -1.66 15.04 -2 13 C-2.66 14.98 -3.32 16.96 -4 19 C-4.33 19 -4.66 19 -5 19 C-5.65 11.15 -4.99 6.22 0 0 Z " fill="#BC8E45" transform="translate(58,37)"/>
<path d="M0 0 C6.96 -0.34 12.43 0.7 19 3 C19 3.66 19 4.32 19 5 C12.92 8.24 7.82 8.33 1 8 C0.67 7.34 0.34 6.68 0 6 C4.45 5.51 4.45 5.51 9 5 C5.7 4.34 2.4 3.68 -1 3 C-0.67 2.01 -0.34 1.02 0 0 Z " fill="#A57C3C" transform="translate(78,42)"/>
<path d="M0 0 C0.66 0.33 1.32 0.66 2 1 C1.21 1.65 0.43 2.31 -0.38 2.98 C-8.33 9.82 -14.28 16.8 -18.05 26.79 C-19 29 -19 29 -21 30 C-21.6 21.85 -17.14 15 -12.22 8.74 C-8.6 4.95 -4.74 2.23 0 0 Z " fill="#D3D3D3" transform="translate(71,13)"/>
<path d="M0 0 C0.83 0.24 0.83 0.24 1.67 0.49 C8.26 1.93 15.41 1.17 22 0 C21 3.23 19.97 4.02 17 5.75 C11.58 7.84 5.47 7.82 0 6 C0.19 5.38 0.37 4.76 0.56 4.12 C1.24 1.96 1.24 1.96 0 0 Z " fill="#1C1C1C" transform="translate(94,84)"/>
<path d="M0 0 C-1.83 4.49 -4.97 7.67 -9 10.31 C-11.42 11.14 -13.46 11.14 -16 11 C-16 10.34 -16 9.68 -16 9 C-14.86 8.6 -14.86 8.6 -13.69 8.19 C-10.7 7.06 -10.7 7.06 -8 4 C-12.95 6.48 -12.95 6.48 -18 9 C-18 8.01 -18 7.02 -18 6 C-12.89 0.89 -7.06 -0.34 0 0 Z " fill="#A9803E" transform="translate(113,21)"/>
<path d="M0 0 C3.19 1.5 3.19 1.5 5 3 C4.67 3.99 4.34 4.98 4 6 C3.35 6.05 2.7 6.1 2.02 6.15 C-2.93 6.57 -7.33 7.16 -12 9 C-12 8.01 -12 7.02 -12 6 C-8.6 3.91 -5.95 3.82 -2 4 C-2 3.34 -2 2.68 -2 2 C-3.58 2.31 -5.17 2.62 -6.75 2.94 C-7.63 3.11 -8.51 3.29 -9.42 3.46 C-11.63 3.92 -13.82 4.43 -16 5 C-15 2 -15 2 -13.28 0.83 C-8.98 -0.74 -4.5 -0.46 0 0 Z " fill="#F4F4F4" transform="translate(122,5)"/>
<path d="M0 0 C0.66 0 1.32 0 2 0 C2.33 1.65 2.66 3.3 3 5 C4.32 5 5.64 5 7 5 C7.29 6.11 7.58 7.23 7.88 8.38 C8.69 12 8.69 12 11 14 C11.12 17.62 11.12 17.62 11 21 C9.68 21 8.36 21 7 21 C6.55 19.78 6.09 18.57 5.62 17.31 C4.46 14.19 3.25 11.09 2 8 C1.34 8 0.68 8 0 8 C0 5.36 0 2.72 0 0 Z " fill="#EDEDED" transform="translate(54,92)"/>
<path d="M0 0 C5.77 -0.48 10.27 0.48 15 4 C16.23 6.14 16.23 6.14 17 8 C16.22 7.67 15.43 7.34 14.62 7 C12.16 5.88 12.16 5.88 10 6 C10.82 6.45 11.65 6.91 12.5 7.38 C13.32 7.91 14.15 8.45 15 9 C15 9.66 15 10.32 15 11 C9.39 10.86 6.63 8.36 2.64 4.79 C1 3 1 3 0 0 Z " fill="#B28641" transform="translate(130,21)"/>
<path d="M0 0 C-0.34 3.16 -0.95 3.95 -3.44 6.06 C-4.28 6.7 -5.13 7.34 -6 8 C-8.28 11.43 -8.67 14.05 -9.34 18.04 C-9.67 19.01 -9.67 19.01 -10 20 C-10.99 20.33 -11.98 20.66 -13 21 C-13.61 16.39 -13.87 12.55 -11.55 8.4 C-5.04 0 -5.04 0 0 0 Z " fill="#D7D7D7" transform="translate(35,53)"/>
<path d="M0 0 C-1.19 4.92 -4.32 7.47 -7.93 10.74 C-10 12 -10 12 -12.26 11.7 C-12.83 11.47 -13.41 11.24 -14 11 C-12.35 9.35 -10.7 7.7 -9 6 C-9.78 6.66 -10.57 7.32 -11.38 8 C-14 10 -14 10 -16 10 C-15.61 7.57 -15.3 6.29 -13.51 4.55 C-12.61 3.94 -12.61 3.94 -11.69 3.31 C-10.8 2.69 -10.8 2.69 -9.89 2.05 C-6.48 0.15 -3.93 0 0 0 Z " fill="#AF8440" transform="translate(71,58)"/>
<path d="M0 0 C0.66 0 1.32 0 2 0 C2.34 3.69 2.28 5.55 0.31 8.75 C-3.22 12.19 -5.74 12.89 -10.62 13.31 C-14 13 -14 13 -16 11.75 C-17 10 -17 10 -16.69 7.81 C-16.35 6.92 -16.35 6.92 -16 6 C-15.34 6.66 -14.68 7.32 -14 8 C-9.7 8.71 -6.11 8.78 -2.5 6.25 C-1.06 4.09 -0.36 2.55 0 0 Z " fill="#1E160B" transform="translate(141,169)"/>
<path d="M0 0 C4.16 0.37 6.13 1.85 9.18 4.59 C12.74 7.35 16.93 9.11 21 11 C21 11.66 21 12.32 21 13 C13.1 12.71 7.23 9.56 1.21 4.49 C0 3 0 3 0 0 Z " fill="#DADADA" transform="translate(129,38)"/>
<path d="M0 0 C0.96 -0 1.92 -0.01 2.91 -0.01 C5.38 0.12 5.38 0.12 7.38 1.12 C7.38 1.78 7.38 2.45 7.38 3.12 C3.44 6.18 0.46 6.46 -4.44 6.31 C-6.18 6.27 -6.18 6.27 -7.96 6.23 C-8.84 6.2 -9.72 6.16 -10.62 6.12 C-10.3 4.48 -9.97 2.83 -9.62 1.12 C-6.36 0.15 -3.4 -0.01 0 0 Z " fill="#906C34" transform="translate(100.625,33.875)"/>
<path d="M0 0 C3.06 0.31 3.06 0.31 4.94 1.5 C6.06 3.31 6.06 3.31 6.06 8.31 C2.43 8.31 -1.2 8.31 -4.94 8.31 C-5.06 5.44 -5.06 5.44 -4.94 2.31 C-2.94 0.31 -2.94 0.31 0 0 Z " fill="#EDEDED" transform="translate(142.9375,75.6875)"/>
<path d="M0 0 C4.89 2.12 7.97 5.69 11 10 C11.94 13.5 11.94 13.5 12 16 C9 15 9 15 7.31 11.94 C6.88 10.97 6.45 10 6 9 C6 9.66 6 10.32 6 11 C5.67 11.99 5.34 12.98 5 14 C0.08 7.97 0.08 7.97 -0.31 3.06 C-0.21 2.05 -0.11 1.04 0 0 Z " fill="#BA8C44" transform="translate(149,19)"/>
<path d="M0 0 C4 3.65 5.79 8.18 6.19 13.52 C6.19 15.69 6.14 17.84 6 20 C5.34 20 4.68 20 4 20 C3.34 17.03 2.68 14.06 2 11 C2 13.31 2 15.62 2 18 C-0.57 15.43 -0.97 13.71 -1.13 10.12 C-1.13 8.51 -1.13 8.51 -1.12 6.88 C-1.13 5.8 -1.13 4.72 -1.13 3.62 C-1 1 -1 1 0 0 Z " fill="#9B7538" transform="translate(47,52)"/>
<path d="M0 0 C3 1.12 3 1.12 4 3.12 C-0.65 5.52 -4.91 5.32 -10 5.12 C-10 4.47 -10 3.8 -10 3.12 C-11.65 2.8 -13.3 2.47 -15 2.12 C-15 1.47 -15 0.8 -15 0.12 C-10.57 -2.09 -4.67 -1.23 0 0 Z " fill="#A67D3C" transform="translate(121,30.875)"/>
<path d="M0 0 C0.33 0.99 0.66 1.98 1 3 C0.16 3.69 -0.69 4.37 -1.55 5.08 C-2.66 5.99 -3.77 6.9 -4.88 7.81 C-5.43 8.26 -5.99 8.72 -6.56 9.18 C-9.17 11.33 -11.11 13.17 -13 16 C-15.15 12.77 -15.2 11.72 -15 8 C-14 7.51 -13 7.01 -11.97 6.5 C-10.67 5.86 -9.37 5.21 -8.06 4.56 C-7.4 4.24 -6.74 3.91 -6.06 3.58 C-2.82 2.11 -2.82 2.11 0 0 Z " fill="#B58942" transform="translate(38,143)"/>
<path d="M0 0 C-0.66 0.66 -1.32 1.32 -2 2 C-1.01 3.48 -1.01 3.48 0 5 C-0.65 5.1 -1.3 5.2 -1.98 5.3 C-7.63 6.26 -11.48 7.43 -16 11 C-16.66 10.34 -17.32 9.68 -18 9 C-5.76 -2.88 -5.76 -2.88 0 0 Z " fill="#F0F0F0" transform="translate(102,65)"/>
<path d="M0 0 C6.2 -0.38 10.45 0.16 16 3 C16 3.66 16 4.32 16 5 C12.91 6.76 11.77 7 8 7 C8 6.34 8 5.68 8 5 C5.36 5 2.72 5 0 5 C0 4.67 0 4.34 0 4 C2.31 4 4.62 4 7 4 C7 3.34 7 2.68 7 2 C4.36 2 1.72 2 -1 2 C-0.67 1.34 -0.34 0.68 0 0 Z " fill="#AE833F" transform="translate(66,51)"/>
<path d="M0 0 C-0.52 3.78 -1.33 6.22 -4 9 C-4.99 9 -5.98 9 -7 9 C-7 8.01 -7 7.02 -7 6 C-7.99 6.66 -8.98 7.32 -10 8 C-10.99 8 -11.98 8 -13 8 C-11.6 4.63 -10.08 2.96 -7 1 C-4 0 -4 0 0 0 Z " fill="#AE833F" transform="translate(125,20)"/>
<path d="M0 0 C0 0.66 0 1.32 0 2 C-0.62 1.84 -1.24 1.67 -1.88 1.5 C-8.94 0.37 -15.96 0.96 -23 2 C-22.67 1.01 -22.34 0.02 -22 -1 C-14.19 -3.6 -7.34 -4.41 0 0 Z " fill="#CDCDCD" transform="translate(137,16)"/>
<path d="M0 0 C3.36 0.62 5.52 1.84 8.25 3.88 C8.96 4.39 9.66 4.9 10.39 5.43 C10.92 5.95 11.45 6.47 12 7 C12 7.99 12 8.98 12 10 C10 10 10 10 7.88 8 C7.26 7.34 6.64 6.68 6 6 C7 8.99 7.75 9.95 10 12 C7.81 12 7.81 12 5 11 C2.18 7.6 0 4.48 0 0 Z " fill="#A77E3D" transform="translate(39,68)"/>
<path d="M0 0 C0 0.66 0 1.32 0 2 C-4.41 4.21 -8.49 4.24 -13.31 4.12 C-14.05 4.12 -14.79 4.11 -15.56 4.1 C-17.37 4.07 -19.19 4.04 -21 4 C-20.34 3.01 -19.68 2.02 -19 1 C-16.17 0.49 -16.17 0.49 -12.75 0.31 C-11.63 0.25 -10.51 0.18 -9.36 0.11 C-6.24 0.01 -3.12 -0.02 0 0 Z " fill="#E1E1E1" transform="translate(100,58)"/>
<path d="M0 0 C3.1 -0.29 4.65 -0.21 7.35 1.43 C8.48 2.36 8.48 2.36 9.62 3.31 C10.38 3.93 11.14 4.54 11.91 5.18 C15.57 8.37 15.57 8.37 17 10 C17 10.66 17 11.32 17 12 C13.15 10.62 10.12 8.83 6.81 6.44 C3.52 4.03 3.52 4.03 0 2 C0 1.34 0 0.68 0 0 Z " fill="#DBDBDB" transform="translate(130,32)"/>
<path d="M0 0 C0.66 0 1.32 0 2 0 C1.71 0.68 1.42 1.36 1.12 2.06 C-1.82 9.74 -2.53 16.8 -3 25 C-5.81 22.19 -5.33 20.3 -5.38 16.38 C-5.3 10.11 -4.65 4.65 0 0 Z " fill="#E6E6E6" transform="translate(45,36)"/>
<path d="M0 0 C5.27 1.39 7.97 4.69 11 9 C13.87 14.61 13.18 20.84 13 27 C12.67 27 12.34 27 12 27 C11.95 26.28 11.9 25.55 11.85 24.8 C11.45 19.59 10.99 14.9 9 10 C8.01 10.5 8.01 10.5 7 11 C6.4 10.07 5.8 9.14 5.19 8.19 C3.22 5.12 3.22 5.12 1.25 3.25 C0.84 2.84 0.43 2.42 0 2 C0 1.34 0 0.68 0 0 Z " fill="#8E8E8E" transform="translate(154,36)"/>
<path d="M0 0 C4.62 0 9.24 0 14 0 C12.52 1.98 12.52 1.98 11 4 C7.86 4.39 7.86 4.39 4.31 4.25 C2.54 4.2 2.54 4.2 0.74 4.14 C-0.62 4.07 -0.62 4.07 -2 4 C-1.34 2.68 -0.68 1.36 0 0 Z " fill="#E8E8E8" transform="translate(68,68)"/>
<path d="M0 0 C-2.46 2.46 -4.36 2.83 -7.69 3.81 C-12.98 5.5 -16.71 7.49 -21 11 C-20.3 7.18 -18.84 5.51 -15.74 3.11 C-10.82 -0.02 -5.67 -0.23 0 0 Z " fill="#C9C9C9" transform="translate(101,13)"/>
<path d="M0 0 C2.31 0 4.62 0 7 0 C7 1.32 7 2.64 7 4 C11.95 5.98 11.95 5.98 17 8 C17 8.66 17 9.32 17 10 C10.18 9.76 5.87 7.88 1 3 C0.67 2.01 0.34 1.02 0 0 Z " fill="#AC813E" transform="translate(33,82)"/>
<path d="M0 0 C1.74 0.03 1.74 0.03 3.52 0.05 C4.4 0.08 5.28 0.1 6.19 0.12 C3.51 2.97 2.14 3.7 -1.81 4.12 C-5.15 4.2 -8.48 4.18 -11.81 4.12 C-11.81 3.47 -11.81 2.81 -11.81 2.12 C-7.74 0.17 -4.5 -0.09 0 0 Z " fill="#E6E6E6" transform="translate(66.8125,75.875)"/>
<path d="M0 0 C0.66 0.33 1.32 0.66 2 1 C1.43 1.57 0.86 2.13 0.27 2.71 C-2.3 5.26 -4.87 7.82 -7.44 10.38 C-8.34 11.26 -9.23 12.15 -10.16 13.07 C-11.01 13.92 -11.87 14.77 -12.75 15.65 C-13.54 16.43 -14.33 17.22 -15.14 18.03 C-17.05 19.87 -17.05 19.87 -18 22 C-18.66 21.67 -19.32 21.34 -20 21 C-18.33 19.1 -16.67 17.19 -15 15.29 C-13.72 13.82 -12.45 12.35 -11.19 10.86 C-7.72 6.79 -4.22 3.29 0 0 Z " fill="#D8D8D8" transform="translate(111,193)"/>
<path d="M0 0 C0.66 0 1.32 0 2 0 C2 6.6 2 13.2 2 20 C1.67 20 1.34 20 1 20 C0.87 19.11 0.73 18.22 0.6 17.3 C0.42 16.13 0.24 14.96 0.06 13.75 C-0.11 12.59 -0.29 11.43 -0.46 10.23 C-0.9 7.14 -0.9 7.14 -1.69 4.77 C-2 3 -2 3 0 0 Z " fill="#B5B5B5" transform="translate(139,195)"/>
<path d="M0 0 C0.33 1.32 0.66 2.64 1 4 C1.66 4 2.32 4 3 4 C3.33 7.3 3.66 10.6 4 14 C3.01 14.5 3.01 14.5 2 15 C1.67 13.02 1.34 11.04 1 9 C0.34 10.98 -0.32 12.96 -1 15 C-1.33 15 -1.66 15 -2 15 C-2.05 13.25 -2.09 11.5 -2.12 9.75 C-2.16 8.29 -2.16 8.29 -2.2 6.8 C-2 3.98 -1.45 2.39 0 0 Z " fill="#9D7639" transform="translate(55,41)"/>
<path d="M0 0 C0.66 0 1.32 0 2 0 C1.99 0.83 1.98 1.67 1.96 2.53 C1.91 9.12 2.11 15.47 3 22 C2.34 22 1.68 22 1 22 C-0.49 15.01 -1.63 8.17 -1 1 C-0.67 0.67 -0.34 0.34 0 0 Z " fill="#232323" transform="translate(164,104)"/>
<path d="M0 0 C-0.35 2.83 -0.77 3.81 -3 5.67 C-4.2 6.42 -4.2 6.42 -5.44 7.19 C-6.24 7.7 -7.04 8.21 -7.87 8.73 C-10 10 -10 10 -12 11 C-10.56 5.97 -8.06 4.04 -4 1 C-2 0 -2 0 0 0 Z " fill="#C9C9C9" transform="translate(36,44)"/>
<path d="M0 0 C0.98 0.01 1.96 0.03 2.97 0.04 C3.95 0.05 4.93 0.06 5.94 0.06 C8.47 0.23 8.47 0.23 10.47 1.23 C10.47 1.89 10.47 2.55 10.47 3.23 C8.49 3.89 6.51 4.55 4.47 5.23 C4.47 4.24 4.47 3.25 4.47 2.23 C1.5 2.23 -1.47 2.23 -4.53 2.23 C-2.53 0.23 -2.53 0.23 0 0 Z " fill="#BE8F45" transform="translate(97.53125,33.76953125)"/>
<path d="M0 0 C2.31 0 4.62 0 7 0 C7.69 1.81 7.69 1.81 8 4 C6.69 5.75 6.69 5.75 5 7 C4.34 7 3.68 7 3 7 C2.67 5.35 2.34 3.7 2 2 C1.34 2 0.68 2 0 2 C0 1.34 0 0.68 0 0 Z " fill="#CBCBCB" transform="translate(117,158)"/>
<path d="M0 0 C4.67 2.83 7.66 5.68 11 10 C10.67 10.66 10.34 11.32 10 12 C9.01 12 8.02 12 7 12 C5.43 10.14 5.43 10.14 3.88 7.69 C3.1 6.49 3.1 6.49 2.3 5.26 C1 3 1 3 0 0 Z " fill="#CFCFCF" transform="translate(147,36)"/>
<path d="M0 0 C0.66 0 1.32 0 2 0 C1.67 7.92 1.34 15.84 1 24 C0.67 24 0.34 24 0 24 C-0.06 22.72 -0.12 21.45 -0.18 20.13 C-0.27 18.46 -0.35 16.79 -0.44 15.12 C-0.48 14.28 -0.52 13.44 -0.56 12.57 C-0.6 11.77 -0.64 10.96 -0.68 10.13 C-0.74 9.02 -0.74 9.02 -0.79 7.88 C-0.9 5.91 -0.9 5.91 -2 4 C-1.06 1.88 -1.06 1.88 0 0 Z " fill="#C9C9C9" transform="translate(111,212)"/>
<path d="M0 0 C3.63 0.33 7.26 0.66 11 1 C11 1.66 11 2.32 11 3 C12.32 3.33 13.64 3.66 15 4 C13.35 4 11.7 4 10 4 C10 3.34 10 2.68 10 2 C9.11 2.35 8.23 2.7 7.31 3.06 C3.94 4.02 2.3 3.97 -1 3 C-0.67 2.01 -0.34 1.02 0 0 Z " fill="#372914" transform="translate(63,55)"/>
<path d="M0 0 C0.66 0 1.32 0 2 0 C1.89 1.48 1.76 2.96 1.62 4.44 C1.56 5.26 1.49 6.08 1.41 6.93 C1.28 7.62 1.14 8.3 1 9 C0.01 9.5 0.01 9.5 -1 10 C-1.33 9.01 -1.66 8.02 -2 7 C-3.48 7.99 -3.48 7.99 -5 9 C-3.76 5.56 -2.44 2.75 0 0 Z " fill="#BFBFBF" transform="translate(18,187)"/>
<path d="M0 0 C1.32 0.66 2.64 1.32 4 2 C3.67 3.32 3.34 4.64 3 6 C2.34 5.67 1.68 5.34 1 5 C-0.98 5.87 -0.98 5.87 -3 7 C-3.99 7.33 -4.98 7.66 -6 8 C-5.65 4.74 -4.98 3.98 -2.44 1.75 C-1.63 1.17 -0.83 0.59 0 0 Z " fill="#967136" transform="translate(61,60)"/>
<path d="M0 0 C2.39 0.58 4.67 1.22 7 2 C6.67 3.32 6.34 4.64 6 6 C4.35 5.67 2.7 5.34 1 5 C0.67 3.35 0.34 1.7 0 0 Z " fill="#D9D9D9" transform="translate(38,93)"/>
<path d="M0 0 C0 0.66 0 1.32 0 2 C-2.47 4.47 -3.71 4.98 -7.25 5.19 C-8.16 5.13 -9.06 5.06 -10 5 C-9 2 -9 2 -6.69 0.81 C-4 0 -4 0 0 0 Z " fill="#CDCDCD" transform="translate(112,40)"/>
<path d="M0 0 C1.08 0.11 2.16 0.22 3.27 0.34 C4.09 0.43 4.91 0.53 5.75 0.62 C5.75 0.96 5.75 1.29 5.75 1.62 C5.1 1.67 4.45 1.72 3.77 1.77 C-1.18 2.2 -5.58 2.78 -10.25 4.62 C-10.25 3.63 -10.25 2.64 -10.25 1.62 C-6.69 -0.64 -4.12 -0.45 0 0 Z " fill="#C4C4C4" transform="translate(120.25,9.375)"/>
<path d="M0 0 C0.74 0.46 0.74 0.46 1.5 0.94 C4.98 2.42 8.24 2.62 12 3 C11.67 3.66 11.34 4.32 11 5 C9.54 5.05 8.08 5.09 6.62 5.12 C5.81 5.15 5 5.17 4.16 5.2 C2 5 2 5 0 3 C0 2.01 0 1.02 0 0 Z " fill="#DBDBDB" transform="translate(44,82)"/>
<path d="M0 0 C3.4 1.06 6.01 2.01 9 4 C9 4.99 9 5.98 9 7 C5.56 5.76 2.75 4.44 0 2 C0 1.34 0 0.68 0 0 Z " fill="#D3D3D3" transform="translate(143,53)"/>
<path d="M0 0 C2.45 0.98 3.77 1.65 5.25 3.88 C6 6 6 6 6 10 C3 9 3 9 1.31 6.12 C0 3 0 3 0 0 Z " fill="#926E35" transform="translate(155,25)"/>
<path d="M0 0 C-0.66 0.66 -1.32 1.32 -2 2 C-1.01 3.48 -1.01 3.48 0 5 C-2.31 5 -4.62 5 -7 5 C-7.33 3.68 -7.66 2.36 -8 1 C-2.25 -1.12 -2.25 -1.12 0 0 Z " fill="#D6D6D6" transform="translate(102,65)"/>
<path d="M0 0 C6 2.11 6 2.11 8 5 C7.69 7.19 7.69 7.19 7 9 C4.04 6.19 1.56 3.82 0 0 Z " fill="#C8C8C8" transform="translate(154,36)"/>
<path d="M0 0 C0.98 0.02 1.97 0.04 2.98 0.05 C4.11 0.09 4.11 0.09 5.25 0.12 C5.25 0.46 5.25 0.79 5.25 1.12 C2.28 1.12 -0.69 1.12 -3.75 1.12 C-3.75 1.79 -3.75 2.45 -3.75 3.12 C-6.4 4.59 -7.64 5.12 -10.75 5.12 C-9.75 2.12 -9.75 2.12 -8.05 0.95 C-5.24 -0.06 -2.97 -0.07 0 0 Z " fill="#D3D3D3" transform="translate(116.75,4.875)"/>
<path d="M0 0 C0.66 0 1.32 0 2 0 C1.67 2.97 1.34 5.94 1 9 C0.34 8.67 -0.32 8.34 -1 8 C-1.66 8.66 -2.32 9.32 -3 10 C-2.39 6.44 -1.42 3.32 0 0 Z " fill="#3F3F3F" transform="translate(33,184)"/>
<path d="M0 0 C0.66 0 1.32 0 2 0 C1.71 0.68 1.42 1.36 1.12 2.06 C-0.13 5.33 -1.07 8.63 -2 12 C-4 9 -4 9 -3.81 6.56 C-2.94 3.82 -1.95 2.11 0 0 Z " fill="#BCBCBC" transform="translate(45,36)"/>
<path d="M0 0 C0.33 0.66 0.66 1.32 1 2 C0.54 3.14 0.54 3.14 0.06 4.31 C-1.04 7.11 -1.17 9.03 -1 12 C-1.66 12 -2.32 12 -3 12 C-4.31 9.94 -4.31 9.94 -5 7 C-3.65 4.4 -1.9 2.22 0 0 Z " fill="#291F0F" transform="translate(72,34)"/>
<path d="M0 0 C1.32 0.33 2.64 0.66 4 1 C0.53 3.97 0.53 3.97 -3 7 C-3.33 6.01 -3.66 5.02 -4 4 C-2.25 1.94 -2.25 1.94 0 0 Z " fill="#E7E7E7" transform="translate(73,17)"/>
<path d="M0 0 C0.66 0 1.32 0 2 0 C2.33 1.65 2.66 3.3 3 5 C3.99 5 4.98 5 6 5 C6 5.66 6 6.32 6 7 C4.02 7.33 2.04 7.66 0 8 C0 5.36 0 2.72 0 0 Z " fill="#B8B8B8" transform="translate(54,92)"/>
<path d="M0 0 C0.66 0.33 1.32 0.66 2 1 C1.34 2.32 0.68 3.64 0 5 C-2.64 5 -5.28 5 -8 5 C-5.45 3 -3.02 1.21 0 0 Z " fill="#333333" transform="translate(116,125)"/>
<path d="M0 0 C2.44 0.81 2.44 0.81 5 2 C5.33 2.99 5.66 3.98 6 5 C6.66 5.33 7.32 5.66 8 6 C7.67 6.66 7.34 7.32 7 8 C6.01 7.67 5.02 7.34 4 7 C4.33 6.67 4.66 6.34 5 6 C4.17 5.2 3.35 4.39 2.5 3.56 C0 1 0 1 0 0 Z " fill="#241B0D" transform="translate(43,73)"/>
<path d="M0 0 C2.43 0.85 4.7 1.85 7 3 C7 3.66 7 4.32 7 5 C1.46 4.38 1.46 4.38 -0.88 2.44 C-1.25 1.96 -1.62 1.49 -2 1 C-1.34 0.67 -0.68 0.34 0 0 Z " fill="#906C34" transform="translate(138,27)"/>
<path d="M0 0 C0 0.66 0 1.32 0 2 C-4.29 1.34 -8.58 0.68 -13 0 C-13 -0.33 -13 -0.66 -13 -1 C-7.96 -2.01 -4.76 -1.97 0 0 Z " fill="#B4B4B4" transform="translate(137,16)"/>
<path d="M0 0 C-0.66 0.66 -1.32 1.32 -2 2 C-2 2.33 -2 2.66 -2 3 C-3.98 3.33 -5.96 3.66 -8 4 C-8 3.34 -8 2.68 -8 2 C-8.66 1.67 -9.32 1.34 -10 1 C-3.38 -1.12 -3.38 -1.12 0 0 Z " fill="#373737" transform="translate(96,11)"/>
<path d="M0 0 C0.66 0 1.32 0 2 0 C2.99 2.97 3.98 5.94 5 9 C2.5 7.31 2.5 7.31 0 5 C-0.31 2.25 -0.31 2.25 0 0 Z " fill="#AFAFAF" transform="translate(164,95)"/>
<path d="M0 0 C-2.69 2.69 -5.38 3.06 -9 4 C-9 3.01 -9 2.02 -9 1 C-6.04 -0.48 -3.26 -0.06 0 0 Z " fill="#CFCFCF" transform="translate(106,17)"/>
<path d="M0 0 C0.66 0.33 1.32 0.66 2 1 C0.16 3.54 -1.72 5.83 -4 8 C-4.66 7.34 -5.32 6.68 -6 6 C-4.02 4.02 -2.04 2.04 0 0 Z " fill="#DDDDDD" transform="translate(90,68)"/>
<path d="M0 0 C0.33 0.66 0.66 1.32 1 2 C0.01 2.5 0.01 2.5 -1 3 C-0.34 3.66 0.32 4.32 1 5 C-0.98 5.33 -2.96 5.66 -5 6 C-5 4.68 -5 3.36 -5 2 C-3.35 1.34 -1.7 0.68 0 0 Z " fill="#322D25" transform="translate(106,17)"/>
<path d="M0 0 C0.33 0.99 0.66 1.98 1 3 C0.01 3.99 -0.98 4.98 -2 6 C-3.32 5.34 -4.64 4.68 -6 4 C-4.02 2.68 -2.04 1.36 0 0 Z " fill="#926E35" transform="translate(38,143)"/>
<path d="M0 0 C-0.33 1.32 -0.66 2.64 -1 4 C-1.99 4 -2.98 4 -4 4 C-4 3.34 -4 2.68 -4 2 C-5.32 1.67 -6.64 1.34 -8 1 C-2.25 -1.12 -2.25 -1.12 0 0 Z " fill="#BABABA" transform="translate(108,49)"/>
<path d="M0 0 C0.66 0.33 1.32 0.66 2 1 C0.02 3.97 0.02 3.97 -2 7 C-2.66 6.67 -3.32 6.34 -4 6 C-2.85 3.53 -1.95 1.95 0 0 Z " fill="#322613" transform="translate(85,29)"/>
</svg>
