<?xml version="1.0" encoding="UTF-8"?>
<!-- Generator: https://ezgif.com/webp-to-svg -->
<svg version="1.1" xmlns="http://www.w3.org/2000/svg" width="50" height="50">
<path d="M0 0 C2.42 3.49 2.12 6.96 2 11.06 C2 13.47 2.42 15.67 3 18 C2.34 18 1.68 18 1 18 C1.49 19.98 1.49 19.98 2 22 C0.68 22 -0.64 22 -2 22 C-2.66 22.99 -3.32 23.98 -4 25 C-3.06 25.38 -3.06 25.38 -2.1 25.77 C-1.28 26.11 -0.47 26.46 0.38 26.81 C1.59 27.32 1.59 27.32 2.84 27.83 C5 29 5 29 7 32 C7.08 34.8 6.51 36.39 4.72 38.55 C-0.48 43.49 -6.42 45.83 -13.58 46.09 C-20.2 45.69 -26.24 43.76 -31 39 C-30.73 34.2 -29.84 31.74 -27 28 C-27.17 27.39 -27.34 26.77 -27.52 26.14 C-28.12 23.46 -27.55 22.44 -26.38 20 C-25.47 17.95 -25.47 17.95 -25 16 C-26.34 13.9 -26.34 13.9 -28 12 C-27.69 8.25 -27.69 8.25 -27 5 C-25.68 4.67 -24.36 4.34 -23 4 C-23 3.34 -23 2.68 -23 2 C-22.34 2 -21.68 2 -21 2 C-20.67 1.01 -20.34 0.02 -20 -1 C-13.14 -5.58 -6.61 -4.37 0 0 Z M-20 20 C-20.66 21.65 -21.32 23.3 -22 25 C-21.01 24.67 -20.02 24.34 -19 24 C-19.33 22.68 -19.66 21.36 -20 20 Z " fill="#70634D" transform="translate(37,4)"/>
<path d="M0 0 C0.99 0.66 1.98 1.32 3 2 C1.68 2.33 0.36 2.66 -1 3 C-0.01 3 0.98 3 2 3 C3.67 3.31 5.34 3.64 7 4 C7 4.66 7 5.32 7 6 C7.66 6.33 8.32 6.66 9 7 C9.25 9.25 9.25 9.25 9 12 C8.34 12.64 7.68 13.28 7 13.94 C4.66 15.91 4.66 15.91 4.75 19.25 C4.87 20.61 4.87 20.61 5 22 C5.63 22.27 6.25 22.53 6.9 22.8 C7.72 23.16 8.53 23.51 9.38 23.88 C10.19 24.22 11 24.57 11.84 24.93 C14 26 14 26 16 28 C16 29.32 16 30.64 16 32 C15.01 32 14.02 32 13 32 C13 32.66 13 33.32 13 34 C12.34 34 11.68 34 11 34 C10.67 32.02 10.34 30.04 10 28 C10.66 28 11.32 28 12 28 C8.99 27.07 8.13 26.96 5 28 C5.66 28.33 6.32 28.66 7 29 C8.37 32.56 8.07 36.23 8 40 C3.73 41.14 0.44 42 -4 42 C-4.66 41.01 -5.32 40.02 -6 39 C-7.78 37.93 -7.78 37.93 -9 38 C-10.67 37.67 -12.33 37.34 -14 37 C-14 36.34 -14 35.68 -14 35 C-15.32 34.67 -16.64 34.34 -18 34 C-17.51 31.03 -17.51 31.03 -17 28 C-16.01 28 -15.02 28 -14 28 C-13.34 26.68 -12.68 25.36 -12 24 C-11.01 24 -10.02 24 -9 24 C-9.33 25.98 -9.66 27.96 -10 30 C-8.42 31.42 -8.42 31.42 -6 32 C-3.47 30.96 -1.28 29.5 1 28 C1.66 27.67 2.32 27.34 3 27 C1.91 23.75 1.91 23.75 0 21 C-0.27 22.11 -0.54 23.23 -0.81 24.38 C-2 28 -2 28 -5 30 C-5.99 30 -6.98 30 -8 30 C-7.55 25.74 -7.07 21.49 -6.44 17.25 C-5.91 14.09 -5.91 14.09 -6.12 11.25 C-5.97 8.4 -5.04 7.87 -3 6 C-3 5.01 -3 4.02 -3 3 C-2.01 2.67 -1.02 2.34 0 2 C0 1.34 0 0.68 0 0 Z " fill="#4B4B4B" transform="translate(26,8)"/>
<path d="M0 0 C0.99 0.66 1.98 1.32 3 2 C1.68 2.33 0.36 2.66 -1 3 C-0.01 3 0.98 3 2 3 C3.67 3.31 5.34 3.64 7 4 C7 4.66 7 5.32 7 6 C7.66 6.33 8.32 6.66 9 7 C9.25 9.25 9.25 9.25 9 12 C7.67 13.33 6.33 14.67 5 16 C4.67 18.67 4.67 18.67 5 21 C3.35 21 1.7 21 0 21 C-0.27 22.11 -0.54 23.23 -0.81 24.38 C-2 28 -2 28 -5 30 C-5.99 30 -6.98 30 -8 30 C-7.55 25.74 -7.07 21.49 -6.44 17.25 C-5.91 14.09 -5.91 14.09 -6.12 11.25 C-5.97 8.4 -5.04 7.87 -3 6 C-3 5.01 -3 4.02 -3 3 C-2.01 2.67 -1.02 2.34 0 2 C0 1.34 0 0.68 0 0 Z " fill="#F3F3F3" transform="translate(26,8)"/>
<path d="M0 0 C1.46 7.96 0.34 14.31 -2 22 C-0.02 21.34 1.96 20.68 4 20 C4.33 17.36 4.66 14.72 5 12 C5.99 12.66 6.98 13.32 8 14 C8 14.66 8 15.32 8 16 C8.66 16.33 9.32 16.66 10 17 C9.88 18.88 9.88 18.88 9 21 C6.19 22.12 6.19 22.12 3 23 C1.65 23.64 0.31 24.29 -1 25 C-2.32 24.01 -3.64 23.02 -5 22 C-4.67 20.02 -4.34 18.04 -4 16 C-4.6 16.66 -5.2 17.32 -5.81 18 C-8 20 -8 20 -11 20 C-11 21.98 -11 23.96 -11 26 C-10.01 26.33 -9.02 26.66 -8 27 C-7.67 27.66 -7.34 28.32 -7 29 C-3.54 28.51 -3.54 28.51 0 28 C0 28.66 0 29.32 0 30 C0.66 30.99 1.32 31.98 2 33 C-4.91 32.83 -8.67 31.42 -14 27 C-13.54 22.25 -12.84 19.74 -10 16 C-10.29 14.66 -10.63 13.32 -11 12 C-10.06 9.75 -10.06 9.75 -9 8 C-9 8.99 -9 9.98 -9 11 C-8.34 11 -7.68 11 -7 11 C-6.67 9.35 -6.34 7.7 -6 6 C-5.88 6.64 -5.75 7.28 -5.62 7.94 C-5.42 8.62 -5.21 9.3 -5 10 C-4.34 10.33 -3.68 10.66 -3 11 C-3 10.01 -3 9.02 -3 8 C-3 7.34 -3 6.68 -3 6 C-2.34 6 -1.68 6 -1 6 C-1.66 4.35 -2.32 2.7 -3 1 C-1 0 -1 0 0 0 Z " fill="#100E0B" transform="translate(20,16)"/>
<path d="M0 0 C0.33 0 0.66 0 1 0 C1.33 1.65 1.66 3.3 2 5 C2.66 4.01 3.32 3.02 4 2 C4.33 3.65 4.66 5.3 5 7 C4.34 7 3.68 7 3 7 C3.33 8.32 3.66 9.64 4 11 C2.68 11 1.36 11 0 11 C-0.99 12.48 -0.99 12.48 -2 14 C-1.37 14.25 -0.75 14.51 -0.1 14.77 C1.12 15.29 1.12 15.29 2.38 15.81 C3.59 16.32 3.59 16.32 4.84 16.83 C7 18 7 18 9 21 C9.08 23.98 8.48 25.49 6.44 27.66 C1.52 32 1.52 32 -1 32 C-1.49 30.01 -1.98 28.03 -2.46 26.04 C-2.91 24.34 -3.44 22.67 -4 21 C-1.69 19.87 -1.69 19.87 1 19 C1.99 19.66 2.98 20.32 4 21 C3.67 21.99 3.34 22.98 3 24 C2.67 24 2.34 24 2 24 C2 24.99 2 25.98 2 27 C2.66 27 3.32 27 4 27 C4 26.34 4 25.68 4 25 C4.99 25 5.98 25 7 25 C6.03 21.4 5.4 20.24 2.12 18.31 C0.58 17.66 0.58 17.66 -1 17 C-2.33 16.33 -3.67 15.67 -5 15 C-4.67 14.01 -4.34 13.02 -4 12 C-4.66 11.67 -5.32 11.34 -6 11 C-6.33 10.34 -6.66 9.68 -7 9 C-6.01 9 -5.02 9 -4 9 C-3.67 8.01 -3.34 7.02 -3 6 C-1.44 4.31 -1.44 4.31 0 3 C-0.99 2.67 -1.98 2.34 -3 2 C-2.01 2 -1.02 2 0 2 C0 1.34 0 0.68 0 0 Z " fill="#121212" transform="translate(35,15)"/>
<path d="M0 0 C3.05 0.67 5.77 1.67 8.62 2.94 C9.79 3.45 9.79 3.45 10.98 3.96 C13 5 13 5 15 7 C15 8.32 15 9.64 15 11 C14.01 11 13.02 11 12 11 C12 11.66 12 12.32 12 13 C11.34 13 10.68 13 10 13 C9.67 11.02 9.34 9.04 9 7 C9.66 7 10.32 7 11 7 C7.99 6.07 7.13 5.96 4 7 C4.66 7.33 5.32 7.66 6 8 C6.41 10.07 6.41 10.07 6.62 12.56 C6.7 13.39 6.77 14.22 6.85 15.07 C6.9 15.7 6.95 16.34 7 17 C5.35 17.33 3.7 17.66 2 18 C2.03 16.55 2.03 16.55 2.07 15.08 C2.09 13.81 2.11 12.55 2.12 11.25 C2.15 10 2.17 8.74 2.2 7.45 C2.02 4.27 1.69 2.63 0 0 Z " fill="#826A46" transform="translate(27,29)"/>
<path d="M0 0 C0.66 0.33 1.32 0.66 2 1 C1.67 2.98 1.34 4.96 1 7 C2.65 7.99 4.3 8.98 6 10 C5 13 5 13 2 15 C-0.69 14.62 -0.69 14.62 -3 14 C-3 13.34 -3 12.68 -3 12 C-4.32 11.67 -5.64 11.34 -7 11 C-6.67 9.02 -6.34 7.04 -6 5 C-5.01 5 -4.02 5 -3 5 C-2.69 4.36 -2.38 3.72 -2.06 3.06 C-1 1 -1 1 0 0 Z " fill="#B2B2B2" transform="translate(15,31)"/>
<path d="M0 0 C0.99 0.66 1.98 1.32 3 2 C1.68 2.33 0.36 2.66 -1 3 C-0.01 3 0.98 3 2 3 C3.67 3.31 5.34 3.64 7 4 C7 4.66 7 5.32 7 6 C7.66 6.33 8.32 6.66 9 7 C9 8.65 9 10.3 9 12 C7.02 12.99 7.02 12.99 5 14 C4.67 12.02 4.34 10.04 4 8 C3.34 8 2.68 8 2 8 C2 8.66 2 9.32 2 10 C1.01 9.67 0.02 9.34 -1 9 C-0.34 9 0.32 9 1 9 C1 8.34 1 7.68 1 7 C-0.32 6.67 -1.64 6.34 -3 6 C-3 5.01 -3 4.02 -3 3 C-2.01 2.67 -1.02 2.34 0 2 C0 1.34 0 0.68 0 0 Z " fill="#CDCDCD" transform="translate(26,8)"/>
<path d="M0 0 C1.65 0.33 3.3 0.66 5 1 C5.49 7.34 5.49 7.34 3.19 10.44 C1 12 1 12 -2 12 C-1.86 10.56 -1.71 9.12 -1.56 7.69 C-1.48 6.89 -1.4 6.09 -1.32 5.26 C-1 3 -1 3 0 0 Z " fill="#DADADA" transform="translate(20,26)"/>
<path d="M0 0 C0.66 0.33 1.32 0.66 2 1 C1.67 2.98 1.34 4.96 1 7 C2.65 7.99 4.3 8.98 6 10 C5.67 10.99 5.34 11.98 5 13 C4.01 13.33 3.02 13.66 2 14 C-0.32 12.26 -1.84 10.96 -2.34 8.02 C-2.38 5.88 -2.38 5.88 -2 2 C-1.34 1.34 -0.68 0.68 0 0 Z " fill="#D6D6D6" transform="translate(15,31)"/>
<path d="M0 0 C1.06 2.75 1.06 2.75 1 5 C-1.48 4.5 -1.48 4.5 -4 4 C-4.33 2.35 -4.66 0.7 -5 -1 C-9.29 -1 -13.58 -1 -18 -1 C-17.67 -1.66 -17.34 -2.32 -17 -3 C-10.53 -4.62 -5.55 -3.9 0 0 Z " fill="#2A2317" transform="translate(37,4)"/>
<path d="M0 0 C0.99 0 1.98 0 3 0 C3.33 2.97 3.66 5.94 4 9 C2.35 9.33 0.7 9.66 -1 10 C-1.03 8.52 -1.05 7.04 -1.06 5.56 C-1.07 4.74 -1.09 3.92 -1.1 3.07 C-1 1 -1 1 0 0 Z " fill="#C4C4C4" transform="translate(30,37)"/>
<path d="M0 0 C1.65 0 3.3 0 5 0 C5 0.99 5 1.98 5 3 C4.34 3.66 3.68 4.32 3 5 C3 6.32 3 7.64 3 9 C2.01 9 1.02 9 0 9 C-1.12 2.25 -1.12 2.25 0 0 Z " fill="#636363" transform="translate(10,9)"/>
<path d="M0 0 C4.75 0.75 4.75 0.75 7 3 C7 4.32 7 5.64 7 7 C6.01 7 5.02 7 4 7 C4 7.66 4 8.32 4 9 C3.34 9 2.68 9 2 9 C1.67 7.02 1.34 5.04 1 3 C1.66 3 2.32 3 3 3 C2.01 2.01 1.02 1.02 0 0 Z " fill="#C6C6C6" transform="translate(35,33)"/>
<path d="M0 0 C0.33 0 0.66 0 1 0 C1.21 5.19 0.59 9.13 -1 14 C-1.33 14 -1.66 14 -2 14 C-2 11.36 -2 8.72 -2 6 C-3.32 5.67 -4.64 5.34 -6 5 C-5.01 4.01 -4.02 3.02 -3 2 C-2.34 2.66 -1.68 3.32 -1 4 C-0.67 2.68 -0.34 1.36 0 0 Z " fill="#535353" transform="translate(38,9)"/>
<path d="M0 0 C1 3 1 3 -0.44 6.19 C-1.21 7.58 -1.21 7.58 -2 9 C-3.65 8.67 -5.3 8.34 -7 8 C-6.34 7.01 -5.68 6.02 -5 5 C-4.34 5 -3.68 5 -3 5 C-2.69 4.36 -2.38 3.72 -2.06 3.06 C-1 1 -1 1 0 0 Z " fill="#D6D6D6" transform="translate(25,39)"/>
<path d="M0 0 C2.31 0.66 4.62 1.32 7 2 C6.67 3.65 6.34 5.3 6 7 C4.68 6.34 3.36 5.68 2 5 C2 4.34 2 3.68 2 3 C1.34 3 0.68 3 0 3 C0 2.01 0 1.02 0 0 Z " fill="#A2A2A3" transform="translate(31,7)"/>
<path d="M0 0 C1.32 0 2.64 0 4 0 C4 1.65 4 3.3 4 5 C2.02 5.99 2.02 5.99 0 7 C0 4.69 0 2.38 0 0 Z " fill="#A8A8A8" transform="translate(31,15)"/>
<path d="M0 0 C0.99 0 1.98 0 3 0 C3.33 1.65 3.66 3.3 4 5 C1 7 1 7 -2 7 C-1.67 6.01 -1.34 5.02 -1 4 C-0.01 4 0.98 4 2 4 C1.34 3.67 0.68 3.34 0 3 C0 2.01 0 1.02 0 0 Z " fill="#816333" transform="translate(22,5)"/>
<path d="M0 0 C1.32 0 2.64 0 4 0 C4 1.65 4 3.3 4 5 C2.68 5 1.36 5 0 5 C0 3.35 0 1.7 0 0 Z " fill="#E3E3E3" transform="translate(30,41)"/>
<path d="M0 0 C-1 3 -1 3 -3 4.06 C-3.66 4.37 -4.32 4.68 -5 5 C-5.33 5.66 -5.66 6.32 -6 7 C-6.66 6.67 -7.32 6.34 -8 6 C-8 5.01 -8 4.02 -8 3 C-2.25 0 -2.25 0 0 0 Z " fill="#8E8E8E" transform="translate(28,37)"/>
</svg>
