<?xml version="1.0" encoding="UTF-8"?>
<!-- Generator: https://ezgif.com/png-to-svg -->
<svg version="1.1" xmlns="http://www.w3.org/2000/svg" width="512" height="512" viewBox="-43.775 -36 672 672" preserveAspectRatio="xMidYMid meet">
<path d="M0 0 C3.82 0.56 6.33 1.61 9.52 3.77 C10.79 4.63 10.79 4.63 12.09 5.51 C12.99 6.12 13.89 6.74 14.81 7.38 C15.75 8.01 16.69 8.65 17.66 9.3 C20.44 11.19 23.22 13.1 26 15 C27.38 15.94 28.75 16.88 30.13 17.81 C36.85 22.4 43.52 27.05 50.19 31.7 C51.16 32.38 52.13 33.05 53.12 33.75 C54.1 34.43 55.08 35.11 56.08 35.81 C65.46 42.34 74.9 48.77 84.35 55.2 C89.43 58.66 94.5 62.13 99.57 65.61 C100.64 66.35 100.64 66.35 101.74 67.1 C102.43 67.57 103.12 68.05 103.83 68.54 C105.38 69.58 106.94 70.61 108.51 71.63 C109.32 72.16 110.14 72.7 110.98 73.25 C111.73 73.73 112.47 74.21 113.24 74.7 C115 76 115 76 116 78 C116.09 80.25 116.12 82.51 116.12 84.77 C116.12 85.47 116.12 86.18 116.12 86.9 C116.12 89.27 116.12 91.64 116.11 94.01 C116.11 95.71 116.11 97.4 116.11 99.1 C116.11 102.75 116.11 106.41 116.11 110.07 C116.1 115.85 116.11 121.63 116.13 127.41 C116.13 128.39 116.13 129.36 116.13 130.37 C116.14 132.36 116.14 134.36 116.14 136.35 C116.17 149.81 116.19 163.28 116.18 176.74 C116.16 185.82 116.17 194.9 116.21 203.97 C116.22 208.78 116.23 213.58 116.21 218.39 C116.19 222.91 116.2 227.43 116.23 231.95 C116.24 233.61 116.24 235.27 116.22 236.93 C116.2 239.19 116.22 241.46 116.25 243.72 C116.25 244.99 116.25 246.26 116.25 247.57 C116.89 251.97 116.89 251.97 123 257 C123.33 199.91 123.66 142.82 124 84 C127.63 85.45 130 86.51 133.08 88.65 C133.84 89.18 134.6 89.7 135.38 90.24 C136.18 90.8 136.99 91.36 137.81 91.94 C139.08 92.81 139.08 92.81 140.37 93.7 C142.09 94.9 143.82 96.09 145.54 97.29 C148.34 99.24 151.15 101.17 153.97 103.1 C155.25 103.98 156.52 104.87 157.78 105.78 C161.36 108.34 164.89 110.49 168.87 112.37 C175.17 115.57 181.49 118.93 184.06 125.86 C185.57 133.76 185.25 141.76 184.93 149.76 C184.81 153.26 184.8 156.75 184.77 160.25 C184.72 166.86 184.56 173.45 184.37 180.05 C184.13 188.32 184.03 196.58 183.93 204.85 C183.74 219.57 183.36 234.28 183 249 C209.07 249 235.14 249 262 249 C256.85 237.41 250.11 228.67 242 219 C242.99 218.67 243.98 218.34 245 218 C247.35 219.78 249.46 221.57 251.62 223.56 C252.98 224.77 254.34 225.98 255.7 227.19 C256.4 227.82 257.11 228.45 257.84 229.1 C261.32 232.16 264.91 235.08 268.5 238 C273.31 241.92 278.04 245.9 282.66 250.05 C290.17 256.75 298.07 262.25 306.63 267.53 C310.99 270.23 315.3 273 319.62 275.75 C320.54 276.33 321.45 276.91 322.39 277.51 C329.43 281.99 336.44 286.51 343.44 291.06 C344.39 291.68 345.34 292.3 346.32 292.94 C348.89 294.61 351.45 296.3 354 298 C354.73 298.49 355.46 298.97 356.21 299.47 C357.85 300.59 359.43 301.79 361 303 C361 303.66 361 304.32 361 305 C348.13 305.5 348.13 305.5 335 306 C336.94 309.59 338.88 313.18 340.88 316.88 C341.5 318.06 342.13 319.25 342.78 320.48 C345.44 325.48 348.12 330.32 351.41 334.93 C358.34 344.9 358.34 344.9 357.76 350.21 C356.25 355.37 353.51 359.8 350.66 364.32 C348.87 367.21 347.25 370.16 345.63 373.16 C340.02 383.55 334.07 393.61 327.5 403.43 C320.25 414.47 317.23 426.74 319.5 439.88 C321.53 447.95 324.9 455.27 329.81 462 C332 465 332 465 332 467 C328.57 465.47 325.94 463.46 323.06 461.06 C322.09 460.26 321.12 459.45 320.12 458.62 C318.03 456.87 315.95 455.11 313.88 453.35 C312.82 452.44 311.75 451.53 310.69 450.62 C310.15 450.16 309.6 449.7 309.05 449.23 C305.13 445.9 301.12 442.71 297.06 439.56 C291.58 435.31 286.29 430.88 281.04 426.34 C276.69 422.58 272.26 418.92 267.79 415.29 C263.48 411.75 259.22 408.14 254.97 404.52 C253.2 403.02 251.42 401.52 249.62 400.04 C248.05 398.73 246.52 397.37 245 396 C245 395.34 245 394.68 245 394 C245.91 394.11 246.81 394.21 247.75 394.32 C256.99 395.23 264.09 395.41 271.54 389.43 C278.17 383.49 282.63 375.59 287.44 368.19 C288.45 366.65 289.47 365.1 290.48 363.56 C295.01 356.94 295.01 356.94 299 350 C297.9 347.74 297.9 347.74 296.24 345.22 C295.3 343.74 295.3 343.74 294.34 342.22 C293.67 341.18 293 340.14 292.31 339.06 C291.69 338.09 291.07 337.11 290.44 336.1 C289.12 334.03 287.79 331.98 286.43 329.94 C284.62 327.12 283.14 324.26 281.72 321.23 C277.33 312.12 277.33 312.12 269.7 305.92 C263.17 304.26 256.51 304.67 249.83 304.93 C247.69 304.94 245.56 304.94 243.42 304.94 C237.84 304.95 232.26 305.08 226.67 305.23 C220.96 305.37 215.25 305.39 209.54 305.43 C198.36 305.51 187.18 305.72 176 306 C176.44 309.18 176.89 312.36 177.35 315.54 C177.47 316.44 177.6 317.33 177.72 318.25 C179.25 328.75 182.43 337.56 189 346 C189 346.66 189 347.32 189 348 C184.37 347.12 181.65 344.33 178.25 341.25 C172.79 336.41 167.25 331.7 161.56 327.12 C156.27 322.86 151.04 318.56 146 314 C148.91 317.78 152.04 321.15 155.44 324.5 C156.36 325.42 157.29 326.34 158.25 327.28 C159.15 328.18 160.06 329.08 161 330 C162.33 331.35 162.33 331.35 163.69 332.72 C165.96 335.04 165.96 335.04 168.5 337 C172.89 340.51 176.69 344.46 180 349 C180 349.66 180 350.32 180 351 C179.01 351.33 178.02 351.66 177 352 C177 353.1 177 354.21 177.01 355.34 C177.06 382.16 177.07 408.97 177.02 435.79 C177 448.75 177 461.72 177.03 474.69 C177.06 485.99 177.06 497.29 177.02 508.59 C177 514.58 177 520.56 177.03 526.55 C177.06 532.18 177.05 537.81 177.01 543.45 C177 545.51 177.01 547.58 177.03 549.65 C177.06 552.47 177.03 555.29 177 558.12 C177.02 558.94 177.04 559.75 177.06 560.6 C176.97 564.14 176.79 566.18 174.28 568.8 C172.24 570.34 170.19 571.69 168 573 C166.83 573.79 165.66 574.58 164.5 575.38 C163.68 575.91 162.85 576.45 162 577 C163 583.55 164.43 588.42 168 594 C168.68 595.33 169.35 596.66 170 598 C166.12 597.43 164.24 595.66 161.44 593 C156.14 588.09 150.62 583.54 145 579 C141.32 576.01 137.66 573.01 134 570 C133.43 569.53 132.86 569.06 132.27 568.58 C130.46 567.1 128.67 565.62 126.88 564.12 C126.31 563.66 125.74 563.2 125.15 562.72 C122.52 560.52 121.11 559.32 120 556 C121.32 556 122.64 556 124 556 C124.01 524.03 123.99 492.07 123.92 460.1 C123.92 456.32 123.91 452.55 123.9 448.77 C123.9 448.02 123.9 447.27 123.9 446.5 C123.88 434.33 123.87 422.17 123.88 410 C123.89 397.52 123.87 385.03 123.83 372.55 C123.81 364.85 123.81 357.15 123.82 349.44 C123.84 343.53 123.82 337.63 123.79 331.72 C123.78 329.3 123.78 326.87 123.79 324.45 C123.81 321.14 123.79 317.84 123.76 314.53 C123.77 313.57 123.79 312.61 123.8 311.63 C123.67 303.89 122.21 302.94 117 296 C116.67 380.81 116.34 465.62 116 553 C111.67 551.92 110.47 550.88 107.31 547.88 C102.74 543.63 97.99 539.75 93 536 C93 536.33 93 536.66 93 537 C94.67 538.26 96.35 539.49 98.03 540.72 C115.3 554.25 115.3 554.25 117.09 565.01 C118.31 576.62 117.28 588.44 116 600 C112.34 599.35 109.77 597.76 106.67 595.75 C105.63 595.09 104.59 594.42 103.52 593.73 C102.42 593.01 101.32 592.3 100.19 591.56 C99.05 590.83 97.92 590.1 96.78 589.37 C89.54 584.68 82.33 579.94 75.18 575.11 C72.27 573.06 72.27 573.06 69.96 572.06 C67.63 570.9 65.86 569.82 64 568 C62.97 564.6 63.26 561.38 63.49 557.86 C63.54 555.82 63.58 553.78 63.62 551.73 C63.74 548.54 63.87 545.35 64.04 542.16 C64.71 528.41 63.81 519.5 54.5 508.91 C53.28 507.59 52.05 506.28 50.81 504.98 C47.81 501.7 45.24 498.1 42.62 494.5 C38.67 489.17 34.62 483.98 30.33 478.92 C29 477 29 477 29 474 C31.81 475.31 34.12 476.76 36.5 478.72 C37.48 479.52 37.48 479.52 38.48 480.34 C39.17 480.91 39.86 481.48 40.56 482.06 C41.27 482.64 41.98 483.22 42.71 483.82 C44.81 485.54 46.9 487.27 49 489 C51.1 490.73 53.21 492.46 55.31 494.19 C56.15 494.88 57 495.58 57.86 496.29 C60.09 498.12 60.09 498.12 63 500 C63.33 435.98 63.66 371.96 64 306 C17.14 306 -29.72 306 -78 306 C-75.66 313.02 -72.49 319.35 -69.09 325.9 C-68.39 327.25 -67.69 328.61 -67.01 329.98 C-62.61 338.68 -57.96 344.34 -50 350 C-48.01 351.63 -46.03 353.28 -44.06 354.94 C-39.17 359.03 -34.24 363.08 -29.28 367.09 C-25.55 370.22 -25.55 370.22 -24 372 C-24 372.66 -24 373.32 -24 374 C-29.49 372.4 -34.94 370.71 -40.36 368.89 C-41.42 368.54 -42.48 368.18 -43.58 367.81 C-44.78 367.41 -44.78 367.41 -46 367 C-43.56 371.16 -41.11 375.31 -38.65 379.46 C-37.82 380.86 -37 382.27 -36.17 383.67 C-35.37 385.03 -34.57 386.39 -33.77 387.74 C-32.92 389.18 -32.08 390.62 -31.26 392.07 C-28.86 396.19 -26.34 399.88 -23.26 403.52 C-9.47 420.65 -11.33 439.19 -12.04 460.06 C-12.18 464.8 -12.25 469.54 -12.32 474.28 C-12.46 483.52 -12.7 492.76 -13 502 C-16.9 500.21 -19.37 497.73 -22.19 494.56 C-22.67 494.03 -23.15 493.49 -23.65 492.94 C-28.28 487.77 -32.68 482.43 -37 477 C-37.42 476.48 -37.83 475.95 -38.26 475.42 C-49.27 461.6 -59.91 447.49 -70 433 C-70.38 432.45 -70.77 431.9 -71.16 431.34 C-87.87 407.25 -102.24 381.37 -115 355 C-115.43 354.11 -115.86 353.22 -116.31 352.31 C-117.71 349.42 -119.11 346.52 -120.5 343.62 C-121.17 342.24 -121.17 342.24 -121.85 340.83 C-122.26 339.97 -122.67 339.11 -123.09 338.23 C-123.46 337.46 -123.83 336.69 -124.21 335.9 C-125 334 -125 334 -125 332 C-126.07 331.64 -126.07 331.64 -127.16 331.28 C-130.48 329.78 -132.75 327.89 -135.5 325.5 C-139.71 321.9 -143.97 318.42 -148.38 315.06 C-153.73 310.98 -159.04 306.84 -164.33 302.67 C-166.65 300.84 -168.95 299.03 -171.4 297.37 C-172.19 296.69 -172.19 296.69 -173 296 C-173 295.01 -173 294.02 -173 293 C-166.69 295 -160.59 297.33 -154.5 299.94 C-153.71 300.27 -152.92 300.61 -152.11 300.95 C-146.71 303.24 -141.35 305.6 -136 308 C-136.2 307.4 -136.4 306.81 -136.61 306.19 C-138.71 299.93 -140.8 293.66 -142.88 287.38 C-143.91 284.29 -144.95 281.2 -146 278.11 C-163.53 225.67 -173.02 169.89 -173.25 114.62 C-173.26 113.88 -173.26 113.13 -173.27 112.36 C-173.28 110.23 -173.27 108.11 -173.27 105.98 C-173.26 104.75 -173.26 103.52 -173.26 102.26 C-173 99.03 -172.51 96.86 -171 94 C-165.81 90 -165.81 90 -163 90 C-163.25 86.69 -163.53 83.37 -163.81 80.06 C-163.88 79.14 -163.95 78.21 -164.03 77.26 C-164.5 71.79 -165.43 67 -167.39 61.87 C-168 60 -168 60 -168 57 C-162.03 59.68 -158.06 64.73 -153.88 69.62 C-144.66 80.18 -135.12 88.8 -123.38 96.44 C-118.66 99.54 -114.03 102.75 -109.38 105.94 C-103.93 109.65 -98.49 113.36 -93 117 C-94.16 120.48 -94.6 120.62 -97.71 122.23 C-98.46 122.62 -99.21 123.01 -99.98 123.41 C-101.17 124.01 -101.17 124.01 -102.38 124.62 C-103.16 125.03 -103.94 125.44 -104.74 125.86 C-107.81 127.45 -110.71 128.9 -114 130 C-113.84 130.71 -113.68 131.41 -113.52 132.14 C-112.99 135.03 -112.78 137.78 -112.64 140.71 C-110.77 175.78 -106.55 210.91 -95.75 244.45 C-95 247 -95 247 -95 249 C-45.17 248.67 4.66 248.34 56 248 C56.54 225.77 56.54 225.77 48 208 C47.45 207.07 46.9 206.14 46.33 205.18 C44.64 202.38 42.85 199.69 41 197 C40.56 196.36 40.12 195.72 39.67 195.06 C32.99 185.33 26.05 176.01 18.34 167.07 C15 163.18 15 163.18 15 161 C15.99 161 16.98 161 18 161 C18 161.66 18 162.32 18 163 C18.55 163.22 19.1 163.45 19.67 163.68 C22.73 165.42 24.81 167.66 27.25 170.19 C31.02 174.04 34.86 177.74 38.96 181.25 C41.4 183.34 43.8 185.48 46.19 187.62 C46.99 188.34 47.78 189.05 48.61 189.79 C51.13 192.12 53.57 194.57 56 197 C56.5 142.55 56.5 142.55 57 87 C31.09 90.08 5.58 93.16 -20 98 C-21.76 98.33 -21.76 98.33 -23.55 98.67 C-30.4 99.99 -37.21 101.41 -44 103 C-44.86 103.2 -45.72 103.4 -46.6 103.6 C-49.02 104.18 -51.41 104.8 -53.81 105.44 C-54.51 105.61 -55.2 105.78 -55.92 105.95 C-59.31 106.92 -60.87 107.82 -63.01 110.66 C-64.68 116.28 -63.79 120.3 -61.4 125.46 C-60.73 126.56 -60.06 127.67 -59.38 128.81 C-59.02 129.41 -58.67 130 -58.3 130.62 C-55.43 135.43 -52.38 140.14 -49.25 144.79 C-48 147 -48 147 -48 150 C-51.75 148.44 -54.09 146.12 -56.92 143.24 C-57.39 142.77 -57.85 142.3 -58.33 141.82 C-59.81 140.32 -61.28 138.82 -62.75 137.31 C-68.45 131.51 -74.12 125.75 -80.31 120.46 C-82.61 118.47 -84.71 116.32 -86.81 114.12 C-91.03 109.86 -95.47 106.09 -100.15 102.35 C-103.2 99.83 -106.11 97.2 -109 94.5 C-113.68 90.14 -118.51 86.05 -123.53 82.07 C-126.2 79.83 -128.67 77.59 -131 75 C-131 74.01 -131 73.02 -131 72 C-92.5 55.31 -53.32 43.44 -12 36 C-11.18 35.85 -10.36 35.7 -9.51 35.55 C-0.36 33.92 8.7 32.53 18 32 C16.12 18.11 9.98 9.58 0 0 Z " fill="#FFFFFF" transform="translate(173,0)"/>
<path d="M0 0 C4.38 0.57 7.25 2.18 10.94 4.56 C12.09 5.29 13.24 6.02 14.4 6.75 C14.99 7.12 15.58 7.49 16.19 7.88 C21.36 11.09 26.68 14.04 32 17 C33.01 17.58 34.02 18.17 35.06 18.77 C42.55 22.86 49.53 24.27 58 25 C58 25.89 58 25.89 58.01 26.8 C58.37 34.49 61.05 39.44 65 46 C65.33 39.07 65.66 32.14 66 25 C109.78 18.75 159.99 26.57 203 35 C204.17 35.23 205.35 35.46 206.56 35.7 C223.27 39.01 239.66 43.17 256 48 C256.33 47.67 256.66 47.34 257 47 C255.48 45.62 253.96 44.25 252.44 42.88 C251.53 42.06 250.63 41.24 249.69 40.39 C247.46 38.41 245.19 36.51 242.88 34.62 C241.93 33.76 240.98 32.89 240 32 C240 31.01 240 30.02 240 29 C255.92 34.92 271.5 45.92 285.54 55.35 C293.26 60.53 301.04 64.49 309.59 68.11 C316.57 71.06 323.28 74.52 330 78 C330.74 78.38 331.49 78.77 332.25 79.16 C334.55 80.35 336.84 81.55 339.12 82.75 C339.82 83.11 340.52 83.48 341.24 83.86 C341.91 84.21 342.57 84.56 343.26 84.92 C343.84 85.23 344.42 85.53 345.01 85.85 C345.67 86.23 346.32 86.61 347 87 C348.05 87.41 349.11 87.83 350.19 88.26 C353.57 91.56 353.47 92.55 353.71 97.14 C353.73 99.75 353.71 102.36 353.66 104.97 C353.65 106.37 353.65 107.77 353.64 109.17 C353.64 112.11 353.61 115.05 353.56 117.99 C353.51 121.72 353.48 125.45 353.48 129.19 C353.46 132.78 353.44 136.38 353.41 139.97 C353.4 140.64 353.4 141.31 353.39 142 C353.33 150.52 352.69 158.64 351 167 C347.64 165.39 345 163.51 342.12 161.12 C341.16 160.33 340.2 159.53 339.21 158.71 C336.92 156.79 334.65 154.84 332.38 152.88 C331.77 152.35 331.15 151.82 330.52 151.27 C329.33 150.24 328.14 149.2 326.95 148.16 C326.11 147.44 326.11 147.44 325.26 146.7 C324.78 146.27 324.29 145.85 323.79 145.41 C321.3 143.45 318.65 141.74 316 140 C316.43 140.4 316.86 140.8 317.3 141.21 C321.76 145.39 326.19 149.61 330.58 153.87 C332.23 155.45 333.88 157.01 335.55 158.57 C337.95 160.81 340.31 163.1 342.66 165.39 C343.41 166.07 344.16 166.75 344.93 167.46 C348.01 170.53 349.87 172.55 350.26 176.99 C350.02 180.05 349.59 182.98 349 186 C348.85 187.14 348.7 188.28 348.54 189.46 C347.99 192.6 347.44 195.74 346.88 198.88 C346.66 200.08 346.44 201.28 346.22 202.51 C342.61 221.93 338.28 241.25 332.13 260.03 C329.38 268.8 328.88 277.03 331.75 285.88 C332.07 286.92 332.4 287.97 332.73 289.05 C334.08 292.2 335.75 294.44 338 297 C335 298 335 298 332.64 297.03 C331.25 296.27 331.25 296.27 329.83 295.49 C328.78 294.92 327.74 294.36 326.66 293.77 C324.97 292.83 324.97 292.83 323.25 291.88 C322.07 291.23 320.89 290.58 319.71 289.94 C311.37 285.37 303.09 280.68 294.83 275.97 C286.7 271.35 278.47 266.94 270.22 262.55 C260.94 257.62 251.75 252.54 242.63 247.3 C236.85 243.99 230.99 240.92 225 238 C225 237.01 225 236.02 225 235 C225.85 235.26 225.85 235.26 226.72 235.53 C251.41 243.35 251.41 243.35 277 246 C278.14 241.56 279.25 237.11 280.35 232.66 C280.79 230.84 281.24 229.02 281.7 227.21 C289.88 194.24 294.61 161 294 127 C282.44 120.02 270.67 114.67 258 110 C256.79 109.55 255.59 109.1 254.34 108.64 C217.26 95.58 177.83 90.28 138.97 85.85 C134.93 85.38 130.96 84.89 127 84 C137.82 105.37 149.9 125.55 164.83 144.3 C166 146 166 146 166 148 C163.09 146.68 160.95 145.22 158.64 143.02 C158 142.42 157.37 141.82 156.72 141.2 C156.05 140.56 155.38 139.91 154.69 139.25 C153.25 137.89 151.82 136.53 150.38 135.16 C149.65 134.47 148.92 133.78 148.17 133.06 C144.84 129.9 141.48 126.76 138.12 123.62 C137.5 123.04 136.88 122.46 136.24 121.87 C131.92 117.84 127.54 113.88 123.13 109.95 C121.15 108.14 119.26 106.28 117.38 104.38 C113.28 100.22 108.88 96.46 104.44 92.67 C102.67 91.15 100.9 89.64 99.12 88.12 C98.52 87.61 97.91 87.09 97.28 86.55 C93.74 83.52 90.26 80.45 86.81 77.31 C83.54 74.34 80.2 71.52 76.75 68.75 C71.68 64.65 66.94 60.27 62.19 55.8 C57.88 51.76 53.4 48 48.78 44.31 C45.58 41.65 42.54 38.85 39.5 36 C35.6 32.35 31.67 28.84 27.5 25.5 C22.69 21.64 18.16 17.53 13.65 13.32 C9.98 9.89 6.24 6.55 2.39 3.3 C1 2 1 2 0 0 Z " fill="#FFFFFF" transform="translate(231,3)"/>
<path d="M0 0 C4.31 1.08 5.28 1.91 8.31 4.97 C9.15 5.81 9.99 6.65 10.86 7.52 C11.75 8.43 12.65 9.34 13.58 10.29 C14.5 11.22 15.43 12.15 16.39 13.11 C18.85 15.58 21.3 18.06 23.74 20.54 C26.25 23.07 28.76 25.59 31.27 28.12 C36.19 33.07 41.1 38.03 46 43 C42.66 44.11 42.09 43.78 38.88 42.88 C36.44 42.47 36.44 42.47 34 43 C30.85 45.64 28.61 48.84 26.26 52.2 C24.44 54.8 22.52 57.31 20.6 59.84 C17.55 63.87 14.53 67.92 11.54 71.99 C10.18 73.83 8.81 75.67 7.44 77.5 C7.03 78.06 6.63 78.62 6.21 79.19 C5.06 80.72 5.06 80.72 3 83 C2.01 83 1.02 83 0 83 C0 55.61 0 28.22 0 0 Z " fill="#FFFFFF" transform="translate(424,422)"/>
<path d="M0 0 C3 0 3 0 4.4 1.33 C4.91 1.96 5.42 2.6 5.94 3.25 C9.16 7.1 12.56 10.66 16.12 14.19 C16.63 14.69 17.13 15.18 17.65 15.7 C18.63 16.67 19.6 17.63 20.58 18.6 C21.97 19.97 23.35 21.37 24.72 22.76 C26.91 25.02 26.91 25.02 29.31 26.69 C29.87 27.12 30.43 27.55 31 28 C31 28.66 31 29.32 31 30 C28.27 29.52 25.84 28.94 23.25 27.94 C15.73 25.77 10.08 27.07 3 30 C2.01 30 1.02 30 0 30 C0 20.1 0 10.2 0 0 Z " fill="#FFFFFF" transform="translate(297,570)"/>
</svg>
