<?xml version="1.0" encoding="UTF-8"?>
<!-- Generator: https://ezgif.com/png-to-svg -->
<svg version="1.1" xmlns="http://www.w3.org/2000/svg" width="512" height="512" viewBox="149.38 124.582 702.24 702.24" preserveAspectRatio="xMidYMid meet">
<path d="M0 0 C3.73 1.48 3.73 1.48 4.89 3.74 C5.17 4.8 5.17 4.8 5.46 5.89 C5.7 6.73 5.94 7.56 6.18 8.42 C6.43 9.35 6.68 10.29 6.94 11.25 C10.08 22.2 13.61 32.98 17.31 43.75 C17.73 44.98 17.73 44.98 18.16 46.23 C22.84 59.84 27.71 73.37 32.8 86.83 C33.91 89.77 35.01 92.71 36.11 95.66 C45.21 119.99 54.68 144.16 65 168 C65.79 169.83 66.58 171.66 67.37 173.49 C70.37 180.45 73.39 187.41 76.42 194.36 C77.94 197.87 79.47 201.38 80.99 204.89 C85.04 214.22 89.11 223.52 93.74 232.57 C96.84 238.63 99.78 244.75 102.72 250.88 C113.09 272.45 123.7 293.9 135 315 C135.53 315.99 136.05 316.97 136.59 317.99 C147.17 337.83 158.2 357.37 169.65 376.72 C171.13 379.21 172.59 381.71 174.05 384.21 C181.06 396.13 188.22 407.94 195.54 419.66 C196.83 421.72 198.1 423.78 199.37 425.85 C207.57 439.15 216.21 452.16 224.81 465.19 C225.96 466.93 227.1 468.68 228.25 470.42 C234.96 480.61 241.67 490.78 248.99 500.55 C252.66 505.48 256.12 510.53 259.56 515.62 C264.02 522.2 268.64 528.58 273.54 534.83 C276.28 538.33 278.89 541.91 281.5 545.5 C287.47 553.69 293.62 561.72 299.89 569.68 C300.38 570.29 300.87 570.91 301.37 571.55 C302.3 572.72 303.23 573.9 304.16 575.07 C305.45 576.7 306.73 578.35 308 580 C308.47 580.6 308.95 581.21 309.44 581.83 C312.02 585.24 313 586.6 313 591 C300.57 586.39 289.15 578.08 278 571 C277.42 570.63 276.84 570.27 276.24 569.89 C243.95 549.53 213.5 526.6 185.21 501 C183.03 499.03 180.83 497.07 178.62 495.12 C178.02 494.59 177.41 494.06 176.79 493.51 C174.97 491.93 174.97 491.93 172.77 490.43 C172.19 489.96 171.6 489.49 171 489 C171 488.34 171 487.68 171 487 C170.34 487 169.68 487 169 487 C169 486.34 169 485.68 169 485 C168.34 485 167.68 485 167 485 C167 484.34 167 483.68 167 483 C166.13 482.62 166.13 482.62 165.24 482.23 C162.77 480.87 161.1 479.36 159.11 477.38 C158.4 476.67 157.69 475.96 156.96 475.23 C156.23 474.5 155.5 473.76 154.75 473 C154 472.26 153.26 471.53 152.49 470.77 C151.79 470.06 151.08 469.35 150.36 468.62 C149.71 467.98 149.07 467.33 148.41 466.66 C147 465 147 465 147 463 C146.34 463 145.68 463 145 463 C145 462.34 145 461.68 145 461 C144.34 461 143.68 461 143 461 C141.7 459.71 141.7 459.71 140.12 457.81 C137.38 454.58 134.57 451.44 131.68 448.35 C126.66 442.98 121.85 437.51 117.25 431.78 C115.29 429.35 113.27 426.98 111.22 424.62 C103.95 416.2 97.35 407.3 90.75 398.36 C89.23 396.31 87.7 394.26 86.16 392.23 C74.26 376.36 63.43 359.66 53.08 342.75 C52 341 50.92 339.26 49.83 337.52 C49.14 336.42 48.46 335.32 47.75 334.19 C47.17 333.25 46.58 332.32 45.98 331.36 C40.12 321.45 34.9 311.16 29.62 300.94 C29.06 299.84 29.06 299.84 28.48 298.73 C23.55 289.16 18.78 279.57 14.56 269.66 C13.05 266.11 11.45 262.62 9.81 259.12 C7.04 253.15 4.48 247.1 2 241 C1.34 241 0.68 241 0 241 C-0.23 241.51 -0.45 242.01 -0.68 242.53 C-16.5 278.01 -34.18 312.17 -55 345 C-55.76 346.21 -56.52 347.43 -57.29 348.64 C-71.38 370.87 -86.74 392.2 -103.04 412.85 C-103.79 413.81 -103.79 413.81 -104.56 414.79 C-105.54 416.03 -106.53 417.27 -107.51 418.51 C-109.99 421.6 -109.99 421.6 -112 425 C-102.24 426.35 -92.49 427.7 -82.73 429.04 C-78.19 429.67 -73.66 430.3 -69.12 430.92 C-48.2 433.82 -27.26 436.63 -6.3 439.3 C5.52 440.8 17.33 442.39 29.12 444.06 C32.71 444.57 36.3 445.08 39.89 445.58 C40.76 445.7 41.62 445.83 42.51 445.95 C47.98 446.72 53.47 447.47 58.95 448.2 C60.31 448.38 61.66 448.56 63.02 448.74 C65.46 449.07 67.91 449.39 70.35 449.71 C75.44 450.39 80.19 451.09 85 453 C85 453.66 85 454.32 85 455 C76.99 458.4 68.78 461.14 60.52 463.86 C56.49 465.18 52.47 466.52 48.44 467.86 C47.63 468.12 46.82 468.39 45.99 468.67 C38.85 471.04 31.73 473.47 24.62 475.94 C22.91 476.53 22.91 476.53 21.15 477.14 C19.98 477.55 18.8 477.96 17.59 478.38 C8.8 481.42 -0.01 484.43 -8.81 487.44 C-20.48 491.43 -32.15 495.42 -43.81 499.44 C-56.85 503.93 -69.9 508.38 -82.95 512.84 C-94.8 516.88 -106.65 520.94 -118.5 525 C-130.29 529.05 -142.08 533.08 -153.88 537.1 C-159.94 539.17 -166 541.24 -172.06 543.31 C-175.23 544.4 -178.4 545.48 -181.58 546.56 C-185.91 548.04 -190.24 549.52 -194.56 551 C-195.27 551.24 -195.97 551.48 -196.69 551.73 C-205.08 554.6 -213.45 557.5 -221.8 560.44 C-222.64 560.73 -223.47 561.02 -224.32 561.32 C-227.7 562.51 -231.09 563.7 -234.47 564.89 C-247.4 569.43 -260.37 573.83 -273.39 578.12 C-283.56 581.47 -293.66 584.94 -303.66 588.77 C-304.85 589.21 -304.85 589.21 -306.06 589.67 C-307.07 590.06 -307.07 590.06 -308.1 590.46 C-310 591 -310 591 -314 591 C-313.49 586.35 -311.65 583.86 -308.75 580.25 C-307.84 579.1 -306.92 577.94 -306.01 576.79 C-305.52 576.18 -305.04 575.57 -304.53 574.93 C-301.84 571.53 -299.2 568.08 -296.56 564.62 C-296.01 563.91 -295.47 563.19 -294.9 562.45 C-289.91 555.92 -285.03 549.3 -280.2 542.64 C-279.12 541.17 -278.04 539.69 -276.96 538.22 C-272.42 532.02 -267.98 525.75 -263.56 519.46 C-260.81 515.56 -258.05 511.66 -255.26 507.79 C-231.28 474.44 -208.88 439.77 -187.61 404.65 C-186.09 402.14 -184.56 399.64 -183.03 397.14 C-175.03 384.06 -167.14 370.94 -159.61 357.59 C-157.28 353.46 -154.85 349.39 -152.39 345.34 C-146.61 335.64 -141.55 325.49 -136.31 315.49 C-135.06 313.11 -133.81 310.73 -132.55 308.36 C-120.71 285.9 -108.98 263.43 -98.07 240.5 C-95.37 234.82 -92.6 229.17 -89.75 223.56 C-86.81 217.76 -84.13 211.88 -81.56 205.91 C-79.7 201.59 -77.76 197.32 -75.75 193.06 C-60.82 161.33 -47.59 128.72 -35 96 C-34.55 94.82 -34.09 93.65 -33.63 92.44 C-25.52 71.37 -17.81 50.19 -10.52 28.83 C-10.07 27.52 -10.07 27.52 -9.62 26.19 C-8.14 21.85 -6.67 17.52 -5.2 13.18 C-4.66 11.59 -4.13 10.01 -3.59 8.43 C-3.34 7.69 -3.09 6.95 -2.84 6.19 C-1.11 1.11 -1.11 1.11 0 0 Z " fill="#2CBAFD" transform="translate(501,175)"/>
<path d="M0 0 C-1.37 7.52 -3.9 14.34 -6.74 21.42 C-7.5 23.32 -8.26 25.23 -9.01 27.13 C-11.64 33.75 -11.64 33.75 -13 37 C-13.4 38.12 -13.4 38.12 -13.8 39.26 C-15.62 41.9 -17.66 42.14 -20.71 42.96 C-21.88 43.29 -23.04 43.62 -24.24 43.95 C-25.46 44.28 -26.68 44.6 -27.94 44.94 C-36.72 47.32 -44.8 50.06 -53 54 C-54.41 54.6 -55.82 55.2 -57.24 55.78 C-76.05 63.65 -93.11 74.19 -108.71 87.28 C-111 89 -111 89 -113 89 C-113 89.66 -113 90.32 -113 91 C-114.57 92.59 -114.57 92.59 -116.69 94.38 C-117.41 95 -118.14 95.62 -118.89 96.25 C-120.55 97.63 -122.24 98.98 -123.94 100.31 C-126.09 101.84 -126.09 101.84 -127 104 C-127.66 104 -128.32 104 -129 104 C-129 104.66 -129 105.32 -129 106 C-129.66 106 -130.32 106 -131 106 C-131.27 106.58 -131.54 107.17 -131.81 107.77 C-133.01 110.03 -134.34 111.81 -136 113.75 C-136.52 114.36 -137.03 114.98 -137.56 115.61 C-139 117 -139 117 -141 117 C-141.24 117.55 -141.48 118.09 -141.73 118.65 C-143.31 121.58 -145.29 123.97 -147.38 126.56 C-153.95 134.93 -159.54 143.88 -165 153 C-165.38 153.63 -165.76 154.26 -166.15 154.91 C-183.66 184.57 -194.18 221.57 -195 256 C-195.02 256.85 -195.04 257.7 -195.06 258.57 C-195.73 290.85 -192.67 326.65 -178 356 C-176.68 363.55 -180.98 368.37 -185.12 374.38 C-186.12 375.86 -186.12 375.86 -187.14 377.38 C-188.45 379.33 -189.78 381.27 -191.11 383.21 C-192.34 385.03 -193.54 386.87 -194.69 388.73 C-195.2 389.55 -195.71 390.38 -196.24 391.23 C-196.68 391.96 -197.12 392.69 -197.57 393.44 C-198.28 394.21 -198.28 394.21 -199 395 C-200.32 395 -201.64 395 -203 395 C-235.19 328.72 -244.88 253.23 -220.78 182.42 C-215.74 168.21 -210.3 154.22 -203 141 C-202.29 139.67 -201.57 138.34 -200.86 137.02 C-191.3 119.43 -179.93 103.15 -166.29 88.48 C-164.35 86.38 -162.48 84.24 -160.62 82.06 C-152.54 72.8 -143.69 64.56 -134 57 C-133.03 56.22 -132.06 55.45 -131.05 54.64 C-97.55 28.24 -59.2 10.65 -17.56 1.56 C-16.82 1.4 -16.09 1.23 -15.33 1.07 C-10.15 0.01 -5.28 -0.13 0 0 Z " fill="#2FB7FC" transform="translate(465,237)"/>
<path d="M0 0 C3.94 1.92 6.76 4.82 9.86 7.87 C11.19 9.15 12.53 10.43 13.86 11.71 C14.49 12.33 15.13 12.94 15.78 13.57 C18.48 16.13 21.33 18.49 24.23 20.82 C25.89 22.61 26.36 23.81 26.55 26.25 C24.24 29 24.24 29 21.55 31.25 C20.89 31.25 20.23 31.25 19.55 31.25 C19.55 31.91 19.55 32.57 19.55 33.25 C17.98 34.68 16.34 36.05 14.68 37.37 C13.14 38.59 13.14 38.59 11.58 39.84 C10.08 41.03 10.08 41.03 8.55 42.25 C7.45 43.18 7.45 43.18 6.33 44.12 C-31.97 76.25 -81.76 95.7 -131.18 101 C-132.6 101.15 -134.01 101.33 -135.42 101.53 C-143.71 102.65 -152.1 102.49 -160.45 102.5 C-161.29 102.5 -162.14 102.5 -163.01 102.5 C-217.18 102.43 -272.65 86.82 -316.45 54.25 C-316.17 52.35 -316.17 52.35 -315.45 50.25 C-312.7 48.95 -310.15 47.95 -307.29 47.01 C-306.05 46.59 -306.05 46.59 -304.78 46.15 C-303.03 45.56 -301.28 44.97 -299.52 44.39 C-296.85 43.5 -294.19 42.59 -291.52 41.67 C-289.82 41.1 -288.12 40.52 -286.41 39.95 C-285.22 39.54 -285.22 39.54 -284.01 39.13 C-278.11 37.2 -273.1 36.23 -267.12 38.53 C-265.97 39.12 -264.82 39.7 -263.64 40.31 C-262.31 40.96 -260.97 41.61 -259.64 42.25 C-258.95 42.58 -258.26 42.92 -257.55 43.26 C-214.47 63.5 -163.93 68.14 -117.45 59.25 C-116.73 59.11 -116.01 58.98 -115.27 58.84 C-88.76 53.88 -63.51 43.07 -40.45 29.25 C-39.47 28.66 -38.48 28.08 -37.47 27.48 C-28.67 22.06 -20.38 15.81 -12.69 8.9 C-11.75 8.07 -11.75 8.07 -10.8 7.22 C-9.59 6.13 -8.39 5.03 -7.21 3.92 C-4.86 1.81 -3.19 0.32 0 0 Z " fill="#30B1FC" transform="translate(664.44921875,673.75390625)"/>
<path d="M0 0 C3.94 1.92 6.76 4.82 9.86 7.87 C11.19 9.15 12.53 10.43 13.86 11.71 C14.49 12.33 15.13 12.94 15.78 13.57 C18.48 16.13 21.33 18.49 24.23 20.82 C25.83 22.55 26.17 23.94 26.55 26.25 C23.11 25.1 22.02 23.86 19.55 21.25 C17.03 18.66 14.59 16.28 11.74 14.06 C11.02 13.46 10.29 12.86 9.55 12.25 C9.55 11.59 9.55 10.93 9.55 10.25 C8.99 10.18 8.44 10.12 7.86 10.06 C4.6 8.91 2.86 6.75 0.55 4.25 C-3.42 5.6 -6 7.35 -9.07 10.18 C-9.83 10.87 -10.59 11.56 -11.36 12.27 C-12.64 13.48 -13.89 14.72 -15.1 16 C-16.45 17.25 -16.45 17.25 -18.45 17.25 C-18.45 17.91 -18.45 18.57 -18.45 19.25 C-18.98 19.53 -19.52 19.81 -20.07 20.09 C-24.35 22.4 -28.38 24.84 -32.32 27.68 C-38.23 31.91 -44.53 35.94 -51.45 38.25 C-51.45 38.91 -51.45 39.57 -51.45 40.25 C-52.79 40.74 -52.79 40.74 -54.15 41.23 C-55.32 41.67 -56.49 42.11 -57.7 42.56 C-58.86 42.99 -60.02 43.42 -61.21 43.86 C-64.08 45.09 -66.01 46.38 -68.45 48.25 C-70.54 49.02 -70.54 49.02 -72.82 49.62 C-77.28 50.87 -81.65 52.32 -86.01 53.87 C-87.81 54.51 -87.81 54.51 -89.64 55.16 C-92.31 55.98 -92.31 55.98 -93.45 57.25 C-95.45 57.29 -97.45 57.29 -99.45 57.25 C-99.45 57.91 -99.45 58.57 -99.45 59.25 C-107.76 60.82 -116.07 62.38 -124.39 63.87 C-125.06 63.99 -125.73 64.12 -126.42 64.24 C-134.25 65.64 -141.99 66.4 -149.94 66.41 C-151.1 66.42 -151.1 66.42 -152.29 66.43 C-154.78 66.44 -157.27 66.44 -159.76 66.43 C-160.61 66.43 -161.46 66.43 -162.34 66.43 C-180.88 66.4 -198.36 64.95 -216.44 60.71 C-218.13 60.32 -219.83 59.96 -221.53 59.6 C-237.9 55.97 -257.4 49.61 -271.45 40.25 C-277.66 40.53 -282.83 42.29 -288.57 44.56 C-295.54 47.23 -302.45 49.52 -309.66 51.42 C-312.12 52.15 -314.21 53.01 -316.45 54.25 C-316.17 52.35 -316.17 52.35 -315.45 50.25 C-312.7 48.95 -310.15 47.95 -307.29 47.01 C-306.05 46.59 -306.05 46.59 -304.78 46.15 C-303.03 45.56 -301.28 44.97 -299.52 44.39 C-296.85 43.5 -294.19 42.59 -291.52 41.67 C-289.82 41.1 -288.12 40.52 -286.41 39.95 C-285.22 39.54 -285.22 39.54 -284.01 39.13 C-278.11 37.2 -273.1 36.23 -267.12 38.53 C-265.97 39.12 -264.82 39.7 -263.64 40.31 C-262.31 40.96 -260.97 41.61 -259.64 42.25 C-258.95 42.58 -258.26 42.92 -257.55 43.26 C-214.47 63.5 -163.93 68.14 -117.45 59.25 C-116.73 59.11 -116.01 58.98 -115.27 58.84 C-88.76 53.88 -63.51 43.07 -40.45 29.25 C-39.47 28.66 -38.48 28.08 -37.47 27.48 C-28.67 22.06 -20.38 15.81 -12.69 8.9 C-11.75 8.07 -11.75 8.07 -10.8 7.22 C-9.59 6.13 -8.39 5.03 -7.21 3.92 C-4.86 1.81 -3.19 0.32 0 0 Z " fill="#3AE5FE" transform="translate(664.44921875,673.75390625)"/>
<path d="M0 0 C44.96 5.66 44.96 5.66 65.56 8.56 C77.97 10.31 90.39 12 102.81 13.62 C104.01 13.78 104.01 13.78 105.24 13.94 C112.97 14.96 120.7 15.96 128.43 16.95 C130.06 17.15 130.06 17.15 131.72 17.36 C133.67 17.61 135.63 17.86 137.58 18.1 C143.78 18.89 143.78 18.89 146 20 C146 20.66 146 21.32 146 22 C137.44 21.43 128.97 20.56 120.48 19.36 C119.31 19.2 118.15 19.04 116.95 18.88 C114.46 18.54 111.97 18.19 109.49 17.85 C102.89 16.93 96.3 16.03 89.7 15.13 C89.03 15.04 88.37 14.95 87.69 14.85 C74.61 13.07 61.53 11.39 48.44 9.75 C32.58 7.76 16.77 5.61 1 3 C0.67 2.01 0.34 1.02 0 0 Z " fill="#38E8FE" transform="translate(415,604)"/>
<path d="M0 0 C0.66 0.33 1.32 0.66 2 1 C2.37 5.33 1.43 7.49 -0.96 11.08 C-1.88 12.48 -1.88 12.48 -2.83 13.9 C-3.48 14.86 -4.14 15.82 -4.81 16.81 C-5.78 18.28 -5.78 18.28 -6.76 19.78 C-10.37 25.14 -10.37 25.14 -12 27 C-12.99 27 -13.98 27 -15 27 C-13.92 25.1 -12.84 23.21 -11.75 21.31 C-11.15 20.26 -10.54 19.2 -9.92 18.11 C-8 15 -8 15 -5.91 12.44 C-3.93 9.91 -2.87 7.68 -1.75 4.69 C-1.41 3.8 -1.08 2.92 -0.73 2.01 C-0.49 1.35 -0.25 0.68 0 0 Z " fill="#4EB4FE" transform="translate(285,594)"/>
<path d="" fill="#00FFFF" transform="translate(0,0)"/>
<path d="" fill="#00FFFF" transform="translate(0,0)"/>
</svg>
