<?xml version="1.0" encoding="UTF-8"?>
<!-- Generator: https://ezgif.com/png-to-svg -->
<svg version="1.1" xmlns="http://www.w3.org/2000/svg" width="512" height="512" viewBox="-230.24 -93.24 1740.48 1740.48" preserveAspectRatio="xMidYMid meet">
<path d="M0 0 C1.98 0 3.96 0 6 0 C6.15 0.52 6.31 1.05 6.46 1.59 C8.99 10.13 11.75 18.59 14.5 27.06 C14.89 28.27 14.89 28.27 15.29 29.5 C19.54 42.6 23.86 55.68 28.26 68.74 C30.4 75.11 32.48 81.49 34.47 87.9 C36.82 95.48 39.3 103.01 41.82 110.54 C42.59 112.83 43.36 115.12 44.12 117.42 C46.55 124.7 48.99 131.98 51.44 139.25 C61.28 168.54 61.28 168.54 65.06 181.47 C67.23 188.86 69.66 196.14 72.13 203.43 C78.79 223.12 85.23 242.89 91.61 262.68 C93.84 269.6 96.07 276.52 98.31 283.44 C98.54 284.13 98.76 284.82 98.99 285.53 C102.92 297.67 106.86 309.8 110.81 321.94 C111.1 322.83 111.39 323.72 111.69 324.64 C114.75 334.03 117.81 343.41 120.87 352.79 C122.13 356.66 123.39 360.53 124.65 364.4 C125.25 366.22 125.84 368.05 126.44 369.88 C129.18 378.27 131.91 386.67 134.53 395.11 C136.5 401.48 138.58 407.81 140.7 414.13 C143.25 421.73 145.73 429.36 148.21 436.99 C149.61 441.33 151.02 445.67 152.43 450.02 C152.87 451.37 152.87 451.37 153.32 452.75 C156.27 461.83 159.22 470.9 162.18 479.98 C173.16 513.68 184.08 547.4 194.98 581.13 C197.98 590.42 200.99 599.71 204 609 C204.27 609.83 204.54 610.66 204.81 611.51 C206.85 617.8 208.89 624.09 210.94 630.38 C211.23 631.28 211.53 632.19 211.83 633.12 C216.22 646.61 220.68 660.06 225.19 673.51 C228.52 683.43 231.71 693.38 234.71 703.41 C237 711.07 239.5 718.66 242.07 726.24 C243.88 731.6 245.67 736.96 247.46 742.32 C248.1 744.25 248.75 746.18 249.4 748.11 C251.33 753.88 253.22 759.66 254.99 765.48 C256.57 770.66 258.25 775.8 259.97 780.93 C261.72 786.14 263.43 791.37 265.13 796.61 C265.4 797.45 265.68 798.3 265.96 799.17 C266.53 800.93 267.1 802.69 267.68 804.46 C273.34 821.9 279.07 839.32 284.89 856.71 C285.34 858.05 285.78 859.38 286.23 860.72 C287.14 863.44 288.06 866.16 288.99 868.87 C291 874.69 291 874.69 291 878 C407.16 878 523.32 878 643 878 C643 880.64 643 883.28 643 886 C642.03 886.35 641.06 886.7 640.06 887.06 C635.88 888.83 632.66 891.48 629.21 894.38 C626.89 896.08 624.7 897.05 622 898 C622 898.66 622 899.32 622 900 C620.18 901.4 618.29 902.72 616.38 904 C615.17 904.81 613.97 905.63 612.77 906.45 C611.83 907.08 611.83 907.08 610.87 907.72 C607.93 909.73 605.02 911.8 602.12 913.88 C601.55 914.29 600.98 914.7 600.39 915.12 C587.65 924.25 587.65 924.25 575.19 933.75 C571.55 936.61 567.81 939.28 564.01 941.91 C560.12 944.61 556.25 947.34 552.38 950.06 C551.67 950.56 550.97 951.05 550.24 951.56 C546.13 954.46 542.08 957.42 538.07 960.44 C534.3 963.28 530.49 966.08 526.69 968.88 C525.43 969.8 525.43 969.8 524.14 970.75 C518.11 975.19 512.07 979.61 506 984 C505.35 984.47 504.69 984.95 504.02 985.43 C496.3 991.02 488.58 996.6 480.81 1002.12 C475.37 1006 469.98 1009.94 464.6 1013.9 C460.43 1016.97 456.22 1020 452 1023 C444.61 1028.26 437.3 1033.62 430 1039 C421.36 1045.36 412.69 1051.67 403.99 1057.94 C398.3 1062.05 392.64 1066.2 387 1070.38 C381.54 1074.41 376.07 1078.39 370.48 1082.25 C366.65 1084.95 362.88 1087.74 359.1 1090.53 C354 1094.27 348.88 1097.99 343.75 1101.69 C342.98 1102.24 342.21 1102.8 341.42 1103.37 C339.94 1104.44 338.46 1105.5 336.98 1106.57 C332.64 1109.7 328.32 1112.85 324 1116 C323.12 1116.64 323.12 1116.64 322.23 1117.29 C313.12 1123.91 313.12 1123.91 304.19 1130.75 C300.42 1133.72 296.52 1136.47 292.57 1139.2 C290 1141 287.47 1142.83 284.94 1144.69 C280.24 1148.12 275.5 1151.47 270.75 1154.81 C260.77 1161.83 250.93 1169.03 241.19 1176.38 C230.38 1184.51 219.34 1192.34 208.33 1200.19 C197.44 1207.96 186.59 1215.77 175.91 1223.83 C172.12 1226.65 168.28 1229.39 164.43 1232.13 C155.42 1238.54 146.51 1245.09 137.69 1251.75 C133.41 1254.97 129.09 1258.08 124.69 1261.12 C114.17 1268.45 103.8 1276 93.48 1283.59 C87.34 1288.1 81.2 1292.59 75 1297 C65.47 1303.78 56.03 1310.7 46.69 1317.75 C42.5 1320.9 38.26 1323.94 33.96 1326.93 C27.61 1331.38 21.34 1335.96 15.06 1340.51 C13.36 1341.74 11.66 1342.97 9.96 1344.2 C4.65 1348.03 -0.59 1351.94 -5.81 1355.88 C-11.91 1360.46 -18.07 1364.95 -24.29 1369.36 C-28.63 1372.44 -32.94 1375.57 -37.25 1378.69 C-41.93 1382.08 -46.62 1385.46 -51.38 1388.75 C-56 1391.96 -60.49 1395.35 -64.99 1398.74 C-69.62 1402.22 -74.31 1405.61 -79 1409 C-80.77 1410.29 -82.54 1411.58 -84.31 1412.88 C-88.44 1415.88 -92.59 1418.85 -96.75 1421.81 C-102.24 1425.72 -107.68 1429.68 -113.1 1433.68 C-118.13 1437.37 -123.19 1441.04 -128.25 1444.69 C-129.02 1445.24 -129.79 1445.8 -130.58 1446.37 C-132.06 1447.44 -133.54 1448.5 -135.02 1449.57 C-141.87 1454.52 -148.69 1459.5 -155.5 1464.5 C-163.35 1470.26 -171.2 1476.02 -179.14 1481.66 C-185.24 1485.99 -191.25 1490.42 -197.22 1494.93 C-199.7 1496.78 -202.21 1498.56 -204.75 1500.31 C-209.17 1503.37 -213.46 1506.58 -217.75 1509.81 C-223.87 1514.43 -230.05 1518.93 -236.29 1523.36 C-242.88 1528.04 -249.42 1532.79 -255.96 1537.53 C-257.77 1538.83 -259.57 1540.13 -261.38 1541.43 C-265.2 1544.19 -268.98 1546.93 -272.56 1550 C-275 1552 -275 1552 -277 1552 C-277 1552.66 -277 1553.32 -277 1554 C-280.3 1554 -283.6 1554 -287 1554 C-286.75 1553.3 -286.51 1552.6 -286.25 1551.88 C-280.44 1535.52 -280.44 1535.52 -275.31 1518.94 C-273.82 1513.68 -272.17 1508.52 -270.31 1503.38 C-267.17 1494.69 -264.36 1485.9 -261.54 1477.11 C-258.49 1467.59 -255.38 1458.1 -252.19 1448.62 C-249.38 1440.26 -246.74 1431.89 -244.31 1423.41 C-242.92 1418.66 -241.35 1413.97 -239.77 1409.28 C-237.37 1402.13 -235 1394.98 -232.68 1387.81 C-232.4 1386.97 -232.13 1386.13 -231.85 1385.26 C-231.29 1383.54 -230.73 1381.82 -230.17 1380.1 C-225.13 1364.54 -220.01 1349 -214.81 1333.5 C-211.47 1323.56 -208.29 1313.6 -205.3 1303.55 C-203.46 1297.4 -201.42 1291.36 -199.22 1285.32 C-197.53 1280.65 -196.07 1275.94 -194.71 1271.16 C-192.22 1262.57 -189.45 1254.09 -186.61 1245.61 C-185.8 1243.21 -185 1240.81 -184.2 1238.41 C-183.68 1236.86 -183.16 1235.31 -182.64 1233.77 C-182.41 1233.06 -182.17 1232.35 -181.93 1231.62 C-180.98 1228.79 -180 1226.01 -178.83 1223.26 C-177.77 1220.78 -177.77 1220.78 -178 1217 C-179.63 1215.44 -179.63 1215.44 -181.88 1214.19 C-183.13 1213.41 -183.13 1213.41 -184.41 1212.61 C-185.26 1212.08 -186.12 1211.55 -187 1211 C-188.47 1209.99 -189.92 1208.97 -191.38 1207.94 C-194.71 1205.59 -198.06 1203.27 -201.44 1200.98 C-209.56 1195.47 -217.59 1189.92 -225.39 1183.96 C-227.81 1182.14 -230.26 1180.4 -232.75 1178.69 C-237.19 1175.61 -241.5 1172.38 -245.81 1169.12 C-251.68 1164.69 -257.64 1160.44 -263.71 1156.29 C-268.08 1153.27 -272.34 1150.1 -276.62 1146.95 C-280.91 1143.79 -285.24 1140.71 -289.62 1137.67 C-296.2 1133.06 -302.65 1128.27 -309.06 1123.44 C-313.55 1120.06 -318.1 1116.81 -322.71 1113.61 C-327.18 1110.47 -331.5 1107.14 -335.85 1103.84 C-341.1 1099.87 -346.37 1096.04 -351.88 1092.45 C-354.84 1090.43 -357.61 1088.21 -360.42 1085.98 C-363.56 1083.57 -366.77 1081.29 -370 1079 C-373.84 1076.28 -377.63 1073.55 -381.31 1070.62 C-385.45 1067.35 -389.74 1064.34 -394.06 1061.31 C-401.18 1056.33 -408.16 1051.18 -415.09 1045.94 C-424.1 1039.14 -433.24 1032.52 -442.44 1025.98 C-449.21 1021.16 -455.89 1016.2 -462.57 1011.27 C-467.7 1007.48 -472.84 1003.74 -478 1000 C-486.69 993.69 -495.35 987.36 -504 981 C-505.12 980.18 -505.12 980.18 -506.27 979.33 C-513.93 973.71 -521.58 968.08 -529.16 962.36 C-538.95 954.97 -548.95 947.91 -559.01 940.9 C-564.09 937.37 -569.07 933.74 -574 930 C-580.43 925.13 -586.89 920.33 -593.52 915.74 C-596.14 913.9 -598.73 912.02 -601.31 910.12 C-605.94 906.74 -610.64 903.47 -615.37 900.22 C-618.39 898.14 -621.35 896 -624.25 893.75 C-628.24 890.7 -632.55 888.33 -637 886 C-637 884.02 -637 882.04 -637 880 C-619.37 878.83 -601.74 878.78 -584.09 878.7 C-580.59 878.68 -577.1 878.66 -573.6 878.64 C-564.15 878.58 -554.7 878.53 -545.25 878.48 C-538.34 878.45 -531.42 878.41 -524.51 878.37 C-444.67 877.94 -364.84 877.88 -285 878 C-284.87 877.4 -284.74 876.8 -284.61 876.17 C-284.43 875.38 -284.26 874.58 -284.08 873.75 C-283.91 872.97 -283.74 872.18 -283.56 871.37 C-282.71 867.77 -281.55 864.3 -280.36 860.81 C-280.1 860.06 -279.85 859.31 -279.59 858.54 C-278.8 856.17 -277.99 853.8 -277.19 851.44 C-276.14 848.33 -275.09 845.23 -274.04 842.12 C-273.79 841.36 -273.53 840.59 -273.26 839.8 C-271.34 834.09 -269.52 828.34 -267.74 822.58 C-265.93 816.75 -264.01 810.97 -262.06 805.19 C-257.3 790.99 -252.67 776.75 -248.05 762.5 C-245.1 753.41 -242.12 744.32 -239.08 735.25 C-236.94 728.85 -234.87 722.43 -232.81 716 C-232.04 713.58 -231.26 711.15 -230.48 708.73 C-230.08 707.47 -229.67 706.21 -229.26 704.92 C-225.91 694.47 -222.52 684.04 -219.14 673.6 C-217.44 668.37 -215.75 663.14 -214.07 657.91 C-205.85 632.47 -205.85 632.47 -202.27 621.83 C-199.62 613.92 -197.09 605.98 -194.54 598.04 C-191.55 588.73 -188.49 579.45 -185.38 570.19 C-182.02 560.21 -178.87 550.19 -175.8 540.12 C-173.77 533.46 -171.65 526.83 -169.42 520.22 C-166.98 513 -164.65 505.75 -162.31 498.5 C-161.88 497.16 -161.45 495.81 -161.02 494.47 C-160.35 492.4 -159.68 490.34 -159.02 488.27 C-152.56 468.22 -146.07 448.18 -139.55 428.15 C-138.94 426.29 -138.34 424.43 -137.73 422.56 C-134.96 414.04 -132.18 405.52 -129.34 397.02 C-127.16 390.49 -125.03 383.94 -122.94 377.38 C-117.88 361.59 -112.76 345.82 -107.64 330.06 C-106.52 326.62 -105.41 323.17 -104.29 319.73 C-102.53 314.3 -100.77 308.87 -99 303.44 C-98.71 302.54 -98.41 301.64 -98.11 300.71 C-93.75 287.28 -89.3 273.88 -84.8 260.49 C-81.47 250.55 -78.29 240.59 -75.3 230.54 C-73.46 224.42 -71.43 218.39 -69.26 212.38 C-67.31 206.96 -65.54 201.5 -63.81 196 C-60.8 186.4 -57.63 176.85 -54.44 167.31 C-51.21 157.68 -48.02 148.03 -44.99 138.33 C-42.44 130.18 -39.72 122.09 -37 114 C-32.34 100.13 -27.77 86.23 -23.29 72.3 C-20.52 63.68 -17.72 55.08 -14.91 46.48 C-14.55 45.38 -14.2 44.29 -13.83 43.16 C-12.03 37.69 -10.24 32.21 -8.45 26.73 C-7.78 24.69 -7.11 22.65 -6.44 20.61 C-6.14 19.68 -5.84 18.76 -5.52 17.81 C-3.59 11.9 -1.76 5.97 0 0 Z M2 681 C1.46 682.63 0.92 684.25 0.37 685.88 C-0.11 687.34 -0.6 688.79 -1.08 690.25 C-2.45 694.34 -3.81 698.42 -5.17 702.5 C-9.9 716.71 -9.9 716.71 -12.23 723.64 C-16.11 735.24 -19.9 746.86 -23.64 758.5 C-26.8 768.32 -30.03 778.13 -33.31 787.91 C-35.12 793.32 -36.88 798.74 -38.56 804.19 C-40.36 810.01 -42.25 815.79 -44.19 821.56 C-47.67 831.92 -51.02 842.32 -54.36 852.72 C-56.46 859.27 -58.58 865.8 -60.74 872.32 C-61.35 874.17 -61.35 874.17 -61.98 876.06 C-63 879 -63 879 -64 881 C-133.63 881.33 -203.26 881.66 -275 882 C-272.81 886.39 -270.41 888.15 -266.5 890.81 C-265.55 891.48 -265.55 891.48 -264.57 892.16 C-262.72 893.45 -260.86 894.72 -259 896 C-250.74 901.71 -242.66 907.65 -234.58 913.62 C-230.24 916.82 -225.89 920 -221.52 923.16 C-219.41 924.7 -217.31 926.27 -215.22 927.84 C-211.06 930.97 -206.85 934.02 -202.62 937.06 C-201.86 937.62 -201.09 938.17 -200.3 938.74 C-197.86 940.5 -195.43 942.25 -193 944 C-189.79 946.31 -186.58 948.62 -183.38 950.94 C-182.29 951.72 -182.29 951.72 -181.19 952.51 C-177.77 954.97 -174.38 957.46 -171.01 959.99 C-166.86 963.12 -162.65 966.16 -158.44 969.19 C-150.87 974.64 -143.34 980.13 -135.84 985.65 C-133.96 987.03 -132.07 988.41 -130.19 989.78 C-122.03 995.73 -113.97 1001.8 -106 1008 C-106.66 1014.45 -108.5 1020.39 -110.44 1026.56 C-110.79 1027.7 -111.14 1028.83 -111.51 1030 C-115.2 1041.78 -119.1 1053.48 -123.04 1065.18 C-125.3 1071.9 -127.54 1078.62 -129.78 1085.35 C-130.81 1088.44 -131.84 1091.53 -132.87 1094.61 C-133.42 1096.27 -133.42 1096.27 -133.98 1097.95 C-134.61 1099.84 -135.25 1101.73 -135.89 1103.62 C-137.33 1107.89 -138.63 1112.15 -139.81 1116.5 C-141.49 1122.43 -143.44 1128.21 -145.52 1134.01 C-148.77 1143.09 -151.77 1152.24 -154.8 1161.39 C-155.91 1164.72 -157.02 1168.04 -158.14 1171.36 C-159.14 1174.34 -160.14 1177.32 -161.13 1180.29 C-161.62 1181.75 -162.11 1183.21 -162.61 1184.66 C-167.8 1197.17 -167.8 1197.17 -168 1210 C-161.57 1205.81 -155.29 1201.56 -149.27 1196.78 C-143.49 1192.25 -137.47 1188.01 -131.44 1183.81 C-125.77 1179.87 -120.2 1175.82 -114.61 1171.77 C-110.64 1168.89 -106.66 1166.04 -102.62 1163.25 C-98 1160.04 -93.51 1156.65 -89.01 1153.26 C-82.84 1148.63 -76.59 1144.09 -70.25 1139.69 C-66.07 1136.78 -61.97 1133.78 -57.88 1130.75 C-52.59 1126.85 -47.24 1123.07 -41.81 1119.38 C-35.05 1114.77 -28.5 1109.97 -22 1105 C-16.85 1101.09 -11.65 1097.28 -6.32 1093.62 C-4.94 1092.65 -3.57 1091.67 -2.24 1090.63 C0.33 1088.68 1.62 1087.97 4.89 1088.19 C8.3 1089.08 9.87 1090.13 12.5 1092.44 C16.51 1095.81 20.6 1098.93 24.88 1101.94 C29.39 1105.12 33.84 1108.36 38.25 1111.69 C42.52 1114.91 46.85 1118.02 51.25 1121.07 C55.27 1123.9 59.23 1126.82 63.18 1129.74 C67.49 1132.91 71.83 1136.03 76.19 1139.12 C81.57 1142.95 86.86 1146.87 92.13 1150.85 C97.56 1154.92 103.07 1158.88 108.57 1162.86 C114.11 1166.87 119.6 1170.95 125.06 1175.06 C130.04 1178.81 135.04 1182.48 140.16 1186.02 C144.24 1188.87 148.28 1191.78 152.31 1194.69 C153.09 1195.25 153.87 1195.81 154.67 1196.38 C158.53 1199.17 162.31 1201.99 166 1205 C167.6 1206.25 169.21 1207.5 170.81 1208.75 C171.6 1209.36 172.39 1209.98 173.21 1210.61 C173.8 1211.07 174.39 1211.53 175 1212 C176.33 1208 175.14 1205.25 173.94 1201.38 C173.71 1200.62 173.48 1199.87 173.25 1199.09 C171.41 1193.1 169.35 1187.2 167.23 1181.3 C164.83 1174.61 162.72 1167.85 160.63 1161.06 C159.54 1157.51 158.43 1153.98 157.31 1150.44 C157.07 1149.66 156.82 1148.88 156.57 1148.07 C154.02 1140.01 151.41 1131.97 148.81 1123.93 C144.95 1112.01 141.16 1100.07 137.38 1088.12 C137.1 1087.24 136.82 1086.36 136.53 1085.45 C136.25 1084.57 135.97 1083.7 135.69 1082.79 C135.14 1081.06 134.59 1079.32 134.04 1077.59 C133.77 1076.75 133.51 1075.91 133.23 1075.05 C131.08 1068.26 128.92 1061.47 126.75 1054.69 C126.45 1053.74 126.14 1052.79 125.83 1051.81 C124.3 1047.02 122.75 1042.23 121.19 1037.45 C120.55 1035.52 119.92 1033.59 119.3 1031.66 C118.5 1029.2 117.69 1026.75 116.88 1024.3 C115.88 1021.21 114.92 1018.11 114 1015 C113.79 1014.28 113.57 1013.56 113.35 1012.82 C112.93 1011.01 112.93 1011.01 113 1008 C115.96 1004.21 119.77 1001.53 123.62 998.69 C124.68 997.91 125.73 997.13 126.82 996.33 C127.87 995.56 128.92 994.79 130 994 C131.41 992.97 131.41 992.97 132.84 991.92 C135.56 989.94 138.28 987.97 141 986 C142.83 984.67 144.67 983.33 146.5 982 C157.5 974 157.5 974 160.28 971.98 C162.02 970.71 163.76 969.44 165.5 968.18 C170.47 964.56 175.44 960.96 180.43 957.36 C190.84 949.86 201.2 942.29 211.52 934.66 C220.15 928.29 228.8 921.96 237.5 915.69 C242.27 912.26 247.02 908.8 251.75 905.31 C261.49 898.15 271.32 891.1 281.3 884.28 C281.86 883.86 282.42 883.43 283 883 C283 882.67 283 882.34 283 882 C248.43 881.39 213.86 880.92 179.28 880.68 C178.07 880.68 178.07 880.68 176.83 880.67 C167.02 880.6 157.21 880.54 147.4 880.48 C138.92 880.43 130.45 880.38 121.97 880.32 C104.65 880.21 87.32 880.1 70 880 C63.52 862.9 63.52 862.9 61.06 855.13 C60.56 853.57 60.06 852.01 59.56 850.46 C59.31 849.66 59.05 848.86 58.79 848.04 C53.99 833.02 49.04 818.05 43.94 803.12 C43.5 801.85 43.5 801.85 43.06 800.55 C39.96 791.5 36.82 782.45 33.62 773.43 C33.35 772.66 33.08 771.89 32.8 771.1 C31.54 767.54 30.27 763.97 28.99 760.41 C26.48 753.37 24.12 746.31 21.92 739.16 C19.42 731.06 16.7 723.04 14 715 C10.2 703.71 6.51 692.39 3 681 C2.67 681 2.34 681 2 681 Z " fill="#E60000" transform="translate(637,0)"/>
<path d="" fill="#FF0000" transform="translate(0,0)"/>
</svg>
