<?xml version="1.0" encoding="UTF-8"?>
<!-- Generator: https://ezgif.com/png-to-svg -->
<svg version="1.1" xmlns="http://www.w3.org/2000/svg" width="512" height="512" viewBox="-4.88 -4.88 109.76 109.76" preserveAspectRatio="xMidYMid meet">
<path d="M0 0 C0.94 2.06 0.94 2.06 1 5 C-0.5 6.93 -2.19 8.49 -3.99 10.14 C-7.27 13.18 -10.09 16.6 -13 20 C-14.01 21.17 -15.03 22.34 -16.04 23.52 C-17.13 24.78 -18.22 26.05 -19.31 27.31 C-19.84 27.92 -20.37 28.53 -20.91 29.16 C-21.41 29.75 -21.91 30.33 -22.43 30.93 C-22.87 31.45 -23.32 31.97 -23.78 32.5 C-27.52 37.11 -27.52 40.29 -27 46 C-26.36 49.11 -25.46 52.1 -24.5 55.12 C-22.79 60.57 -21.58 65.21 -22 71 C-22.33 71.33 -22.66 71.66 -23 72 C-28.02 71.57 -32.02 70.35 -36.59 68.28 C-37.79 67.74 -38.98 67.2 -40.21 66.65 C-41.45 66.08 -42.7 65.51 -43.94 64.94 C-45.21 64.36 -46.47 63.79 -47.74 63.22 C-50.83 61.82 -53.92 60.41 -57 59 C-56.67 58.01 -56.34 57.02 -56 56 C-50.39 56.33 -44.78 56.66 -39 57 C-39.33 51.88 -39.83 47.98 -42.12 43.38 C-44.12 39.12 -44.59 36.6 -43 32 C-38.86 26.03 -33.15 21.12 -27.94 16.1 C-25.77 14.23 -25.77 14.23 -26 12 C-31.28 11.34 -36.56 10.68 -42 10 C-42 8.68 -42 7.36 -42 6 C-33.17 4.06 -24.33 2.54 -15.38 1.31 C-14.43 1.18 -13.48 1.05 -12.5 0.91 C-8.29 0.35 -4.26 -0.07 0 0 Z " fill="#FEFFFF" transform="translate(98,19)"/>
<path d="M0 0 C5.25 0.38 7.97 3.18 11.69 6.56 C12.94 7.67 14.19 8.77 15.44 9.87 C16.05 10.41 16.65 10.94 17.28 11.5 C19.53 13.46 21.85 15.33 24.19 17.19 C24.96 17.8 25.74 18.42 26.54 19.05 C28.37 20.5 30.21 21.95 32.06 23.38 C33.07 24.18 34.08 24.99 35.12 25.81 C36.06 26.54 36.99 27.27 37.95 28.02 C38.62 28.67 39.3 29.33 40 30 C40 30.99 40 31.98 40 33 C35.87 32.56 31.95 32.04 27.94 30.94 C24.18 29.93 20.87 29.84 17 30 C14.38 33.95 14.56 38.17 14.38 42.75 C14.32 43.94 14.32 43.94 14.26 45.15 C14.16 47.1 14.08 49.05 14 51 C13.01 51 12.02 51 11 51 C9.42 44.7 7.86 38.4 6.3 32.1 C5.77 29.96 5.24 27.82 4.7 25.68 C3.93 22.6 3.17 19.51 2.41 16.43 C2.17 15.48 1.93 14.52 1.68 13.54 C0.55 8.93 -0.31 4.79 0 0 Z " fill="#FFFFFF" transform="translate(20,9)"/>
<path d="M0 0 C0.66 0 1.32 0 2 0 C2 5.94 2 11.88 2 18 C8.44 17.51 8.44 17.51 15 17 C14.34 15.02 13.68 13.04 13 11 C13 9.68 13 8.36 13 7 C18.31 8.46 22.46 10.98 27 14 C26.51 18.59 26.51 18.59 24.32 20.36 C16.71 23.86 8.9 26.74 0.99 29.5 C-1.33 30.32 -3.65 31.15 -5.96 31.98 C-7.45 32.5 -8.94 33.03 -10.43 33.55 C-11.11 33.8 -11.8 34.04 -12.51 34.3 C-16.12 35.55 -19.17 36.29 -23 36 C-22.5 31.43 -21.51 28.8 -18.69 25.19 C-17.98 24.25 -17.27 23.32 -16.54 22.36 C-16.14 21.84 -15.74 21.32 -15.33 20.78 C-12.12 16.49 -9.1 12.06 -6.04 7.66 C-5.54 6.96 -5.05 6.25 -4.54 5.53 C-4.1 4.9 -3.66 4.26 -3.2 3.61 C-2 2 -2 2 0 0 Z " fill="#FEFFFF" transform="translate(24,46)"/>
</svg>
