<?xml version="1.0" encoding="UTF-8"?>
<!-- Generator: https://ezgif.com/webp-to-svg -->
<svg version="1.1" xmlns="http://www.w3.org/2000/svg" width="50" height="50">
<path d="M0 0 C0.13 0.6 0.25 1.2 0.38 1.81 C2.81 13.27 5.31 24.23 10 35 C10.67 36.66 11.34 38.33 12 40 C7.67 38.71 4.12 37.06 0.31 34.62 C-0.62 34.04 -1.55 33.45 -2.51 32.85 C-4.91 31.07 -6.31 29.42 -8 27 C-9.32 26.32 -10.66 25.65 -12 25 C-14.07 23.4 -16.02 21.71 -18 20 C-17.31 16.61 -16.01 13.82 -14.44 10.75 C-13.98 9.86 -13.53 8.97 -13.06 8.05 C-12.71 7.37 -12.36 6.7 -12 6 C-13.21 5.57 -13.21 5.57 -14.44 5.12 C-17 4 -17 4 -18 2 C-17.15 2.03 -17.15 2.03 -16.28 2.07 C-10.56 2.2 -5.44 0 0 0 Z " fill="#FEFFFF" transform="translate(38,1)"/>
<path d="M0 0 C3.63 1.49 5.46 3.5 7.94 6.5 C14.45 13.92 22.18 20.31 31.12 24.56 C34.72 26.39 35.78 27.99 37.06 31.81 C37.41 33.2 37.73 34.59 38 36 C29.27 34.28 21.72 27.49 15 22 C14.37 22.6 13.74 23.21 13.09 23.83 C5.39 31.02 -0.4 35.24 -11 36 C-9.52 32.68 -7.6 30.2 -5.25 27.44 C1.06 19.87 1.06 19.87 5 11 C4.01 7.16 2.23 4.25 0 1 C0 0.67 0 0.34 0 0 Z " fill="#DA003F" transform="translate(11,13)"/>
<path d="M0 0 C3 3 6 6 9 9 C6.52 15.09 0.42 19.21 -5.26 22.18 C-8.87 23.62 -12.12 24.36 -16 24 C-14.51 20.68 -12.59 18.16 -10.25 15.38 C-6.29 10.52 -3.06 5.45 0 0 Z " fill="#FFFFFF" transform="translate(16,25)"/>
</svg>
