<?xml version="1.0" encoding="UTF-8"?>
<!-- Generator: https://ezgif.com/png-to-svg -->
<svg version="1.1" xmlns="http://www.w3.org/2000/svg" width="512" height="512" viewBox="-24.621 -22.304 405.265 405.265" preserveAspectRatio="xMidYMid meet">
<path d="M0 0 C27.39 0 54.78 0 83 0 C82.96 11.31 82.91 22.63 82.87 34.28 C82.86 41.45 82.86 48.61 82.87 55.77 C82.88 67.15 82.88 78.52 82.82 89.89 C82.77 98.17 82.76 106.46 82.79 114.74 C82.8 119.13 82.8 123.51 82.76 127.89 C82.72 132.02 82.72 136.15 82.76 140.28 C82.77 141.8 82.76 143.31 82.73 144.82 C82.47 153.36 82.47 153.36 86.31 160.73 C88.79 162.73 91.23 164.44 94 166 C94.59 165.56 95.19 165.12 95.8 164.66 C97.22 163.61 98.64 162.56 100.05 161.51 C102.08 160 102.08 160 104 158 C104.32 155.16 104.32 155.16 104.28 151.76 C104.28 151.11 104.29 150.47 104.3 149.8 C104.31 147.62 104.32 145.45 104.32 143.27 C104.33 141.71 104.34 140.16 104.35 138.6 C104.38 134.36 104.39 130.13 104.4 125.89 C104.42 121.47 104.45 117.05 104.47 112.62 C104.52 104.24 104.56 95.86 104.59 87.49 C104.63 76.17 104.7 64.84 104.76 53.52 C104.85 35.68 104.92 17.84 105 0 C132.39 0 159.78 0 188 0 C186.31 4.22 184.39 7.86 182 11.69 C181.47 12.56 181.47 12.56 180.92 13.45 C179.42 15.87 178.02 17.98 176 20 C174.01 20.24 174.01 20.24 171.55 20.23 C170.63 20.23 169.71 20.23 168.76 20.23 C167.76 20.22 166.77 20.21 165.74 20.2 C164.72 20.19 163.71 20.19 162.66 20.19 C159.4 20.18 156.14 20.15 152.88 20.12 C150.67 20.11 148.46 20.11 146.25 20.1 C140.84 20.08 135.42 20.04 130 20 C130 24.62 130 29.24 130 34 C145.51 34 161.02 34 177 34 C177 40.27 177 46.54 177 53 C176 54 176 54 174.13 54.12 C173.32 54.12 172.5 54.12 171.66 54.11 C170.73 54.11 169.8 54.11 168.83 54.11 C167.85 54.11 166.86 54.1 165.84 54.1 C164.94 54.1 164.03 54.1 163.1 54.09 C159.71 54.09 156.33 54.08 152.94 54.06 C145.37 54.04 137.8 54.02 130 54 C130.33 80.4 130.66 106.8 131 134 C144.85 122 144.85 122 150.32 105.39 C150.52 101.1 150.57 96.8 150.62 92.5 C150.66 90.28 150.7 88.06 150.75 85.85 C150.79 83.83 150.81 81.82 150.84 79.81 C151.01 75.81 151.45 71.96 152 68 C155.98 67.97 159.96 67.95 163.94 67.94 C165.07 67.93 166.21 67.92 167.38 67.91 C168.46 67.91 169.54 67.91 170.65 67.9 C172.15 67.89 172.15 67.89 173.68 67.89 C176 68 176 68 177 69 C177.13 71.73 177.19 74.44 177.2 77.17 C177.21 78.01 177.21 78.84 177.22 79.7 C177.23 81.47 177.24 83.25 177.24 85.02 C177.25 87.7 177.28 90.37 177.31 93.04 C177.43 112.21 173.95 128.61 160.18 142.84 C159.46 143.55 158.74 144.26 158 145 C157.14 145.92 157.14 145.92 156.26 146.85 C152.15 151.16 147.59 154.82 142.96 158.55 C139.87 161.1 136.93 163.77 134 166.5 C129.41 170.77 124.67 174.76 119.79 178.68 C116.22 181.65 112.83 184.8 109.44 187.96 C104.82 192.23 99.97 196.16 95 200 C91.17 198.37 88.24 195.82 85.12 193.12 C84.56 192.64 84 192.16 83.43 191.67 C81.61 190.12 79.81 188.56 78 187 C76.13 185.39 74.25 183.79 72.38 182.18 C71.2 181.17 70.02 180.16 68.85 179.15 C68.3 178.68 67.75 178.21 67.19 177.73 C66.72 177.32 66.25 176.91 65.76 176.49 C63.87 174.81 63.87 174.81 60.93 173.11 C58.84 171.35 58.09 170.37 57.45 167.69 C57.26 164.71 57.26 161.77 57.32 158.78 C57.32 157.09 57.32 157.09 57.32 155.35 C57.32 151.61 57.37 147.88 57.41 144.14 C57.43 141.54 57.43 138.95 57.44 136.36 C57.46 130.23 57.51 124.1 57.57 117.98 C57.64 111 57.67 104.02 57.7 97.04 C57.76 82.7 57.87 68.35 58 54 C51.07 54 44.14 54 37 54 C37 85.35 37 116.7 37 149 C28.42 146.85 22.88 138.1 18.5 130.82 C11.37 117.41 10.74 103.87 10.91 89.03 C10.95 85.2 10.95 81.36 10.95 77.53 C10.96 70.42 10.98 63.31 11.07 56.2 C11.13 51.23 11.14 46.26 11.12 41.28 C11.12 39.41 11.14 37.53 11.18 35.65 C11.42 23.17 9.6 15.15 2.15 4.98 C0 2 0 2 0 0 Z M37 20 C37 24.62 37 29.24 37 34 C43.93 34 50.86 34 58 34 C58 29.38 58 24.76 58 20 C51.07 20 44.14 20 37 20 Z " fill="#FDFDFD" transform="translate(84,97)"/>
<path d="M0 0 C1.37 -0 2.74 -0.01 4.11 -0.02 C6.96 -0.02 9.81 -0.02 12.65 -0.01 C15.53 -0 18.41 -0.01 21.29 -0.03 C36.96 -0.16 52.04 -0.16 67.17 4.43 C68.54 4.81 68.54 4.81 69.94 5.2 C72.06 5.8 74.14 6.46 76.23 7.18 C76.96 7.44 77.7 7.69 78.46 7.95 C100.52 15.75 119.46 28.29 137.17 43.43 C138 44.12 138.83 44.82 139.69 45.53 C144.35 49.45 148.3 53.74 152.17 58.43 C152.82 59.21 152.82 59.21 153.48 60 C168.8 78.27 180.3 98.38 188.04 121 C188.3 121.75 188.57 122.5 188.84 123.28 C194.24 139.96 195.8 156.33 195.63 173.8 C195.61 177.13 195.61 180.46 195.63 183.79 C195.61 199.54 194.17 214.27 189.48 229.37 C189.23 230.2 188.97 231.03 188.71 231.88 C182.36 251.83 172.43 271.22 159.17 287.43 C158.75 287.95 158.33 288.47 157.9 289.01 C128.75 325.02 86.91 350.56 40.38 355.92 C-8.9 360.51 -57.01 348.94 -95.83 317.43 C-99.85 314.04 -103.68 310.48 -107.43 306.8 C-108.73 305.53 -110.06 304.29 -111.39 303.06 C-140.09 275.84 -160.14 233.54 -161.31 193.91 C-161.38 189.4 -161.39 184.89 -161.35 180.38 C-161.33 176.94 -161.35 173.5 -161.38 170.05 C-161.43 128.97 -145.81 91.14 -119.2 60.06 C-117.95 58.57 -116.76 57.03 -115.58 55.48 C-114.71 54.47 -114.71 54.47 -113.83 53.43 C-113.17 53.43 -112.51 53.43 -111.83 53.43 C-111.6 52.87 -111.36 52.3 -111.12 51.71 C-98.38 29.17 -61.82 14.06 -38.64 6.12 C-37.98 5.89 -37.32 5.66 -36.64 5.42 C-24.55 1.47 -12.67 -0.03 0 0 Z M9 6.54 C-13.22 7.79 -34.82 12.62 -54.83 22.43 C-55.57 22.79 -56.31 23.15 -57.08 23.52 C-66.93 28.37 -76.02 33.88 -84.83 40.43 C-85.62 41 -86.41 41.56 -87.22 42.14 C-119.71 66.56 -140.37 102.4 -149.83 141.43 C-150.1 142.47 -150.1 142.47 -150.37 143.52 C-156.14 166.57 -154.71 194.59 -148.83 217.43 C-148.66 218.16 -148.48 218.89 -148.3 219.65 C-141.23 248.52 -126.15 273.98 -105.83 295.43 C-105.38 295.92 -104.93 296.41 -104.46 296.92 C-77.45 326.09 -39.03 343.06 0.17 347.43 C0.9 347.51 1.62 347.6 2.37 347.68 C41.35 351.67 83.36 340.16 115.17 317.43 C115.72 317.05 116.27 316.66 116.83 316.26 C153.88 289.68 178.1 249.19 185.98 204.5 C188.73 187.07 188.51 169.88 186.17 152.43 C186.01 151.14 185.85 149.85 185.68 148.51 C181.5 121.57 169.86 95.86 153.17 74.43 C152.18 73.11 152.18 73.11 151.18 71.77 C139.44 56.65 125.38 43.58 109.17 33.43 C108.57 33.06 107.96 32.68 107.34 32.29 C93.22 23.57 78.22 16.66 62.17 12.43 C61.47 12.25 60.76 12.06 60.04 11.87 C43.35 7.58 26.22 5.68 9 6.54 Z " fill="#A9A9AD" transform="translate(160.83203125,-0.43359375)"/>
<path d="M0 0 C0.8 0 1.6 0 2.43 0 C3.35 -0 4.27 -0 5.22 -0 C6.25 -0 7.27 0 8.33 0 C9.94 0 9.94 0 11.6 0 C15.24 -0 18.89 0.01 22.53 0.01 C25.13 0.01 27.73 0.01 30.33 0.01 C35.95 0.01 41.57 0.01 47.18 0.02 C55.3 0.03 63.42 0.03 71.54 0.03 C84.71 0.03 97.88 0.04 111.05 0.05 C123.85 0.06 136.65 0.07 149.44 0.07 C150.63 0.07 150.63 0.07 151.83 0.07 C155.79 0.07 159.74 0.07 163.7 0.07 C196.53 0.08 229.35 0.1 262.18 0.12 C262.18 4.51 261.58 5.58 259.29 9.17 C258.36 10.64 258.36 10.64 257.41 12.15 C256.4 13.71 256.4 13.71 255.37 15.31 C254.69 16.38 254.02 17.45 253.32 18.55 C250.18 23.49 247.01 28.4 243.77 33.28 C243.27 34.04 242.76 34.8 242.24 35.59 C241.31 36.99 240.37 38.38 239.42 39.77 C235.37 45.84 235.05 51 235.1 58.16 C235.1 58.84 235.11 59.52 235.11 60.21 C235.12 61.68 235.13 63.14 235.14 64.6 C235.16 66.94 235.17 69.27 235.17 71.6 C235.2 78.23 235.23 84.86 235.28 91.49 C235.31 95.55 235.32 99.62 235.33 103.68 C235.34 105.22 235.35 106.75 235.36 108.28 C235.6 133.71 231.49 159.06 213.25 178.05 C211.9 179.42 210.54 180.77 209.18 182.12 C208.49 182.85 207.8 183.58 207.09 184.33 C202.73 188.86 198 192.78 193.1 196.71 C190.03 199.25 187.1 201.91 184.18 204.62 C180.47 208.08 176.7 211.39 172.75 214.56 C168.56 217.93 164.6 221.46 160.68 225.12 C155.91 229.59 151.01 233.8 145.89 237.87 C143.91 239.52 142.05 241.17 140.19 242.94 C139.7 243.41 139.21 243.87 138.7 244.36 C137.32 245.68 135.96 247.01 134.59 248.35 C132.18 250.12 132.18 250.12 130.18 250.14 C127.52 248.79 125.41 247.11 123.12 245.19 C122.15 244.37 121.18 243.56 120.18 242.72 C116.36 239.41 112.64 236.01 108.93 232.59 C106.26 230.2 103.53 227.93 100.75 225.69 C96.21 222.03 91.93 218.18 87.66 214.21 C84.43 211.22 81.12 208.39 77.68 205.62 C72.58 201.51 67.77 197.15 62.97 192.69 C60.66 190.56 58.32 188.48 55.93 186.44 C54.68 185.34 53.43 184.23 52.18 183.12 C51.22 182.28 51.22 182.28 50.23 181.41 C36.62 168.73 28.39 150.41 26.18 132.12 C26.13 129.35 26.12 126.61 26.17 123.84 C26.19 122.19 26.21 120.54 26.23 118.88 C26.24 117.58 26.24 117.58 26.26 116.25 C26.32 110.62 26.32 104.98 26.33 99.34 C26.34 94.41 26.38 89.49 26.46 84.56 C27.73 54.78 27.73 54.78 14.72 28.95 C12.12 25.86 10 22.45 7.81 19.06 C7 17.87 6.2 16.68 5.39 15.49 C2.32 10.89 -0.3 6.05 -2.82 1.12 C-1.82 0.12 -1.82 0.12 0 0 Z M8.18 6.12 C9.75 10.03 11.24 13.04 13.45 16.55 C14.09 17.57 14.74 18.6 15.4 19.66 C16.07 20.72 16.74 21.78 17.43 22.87 C18.09 23.92 18.75 24.97 19.42 26.05 C22.76 31.66 22.76 31.66 26.73 36.81 C33.27 44.61 31.96 54.05 31.85 63.66 C31.85 65.57 31.85 67.49 31.86 69.41 C31.87 74.46 31.85 79.5 31.83 84.54 C31.78 92.59 31.76 100.63 31.78 108.67 C31.78 111.45 31.76 114.23 31.73 117.01 C31.68 131.12 33.09 145.38 40.25 157.87 C40.63 158.57 41.02 159.27 41.42 159.99 C48.38 172.09 57.87 180.98 68.56 189.77 C70.89 191.72 73.13 193.76 75.37 195.81 C78.68 198.82 82.07 201.69 85.56 204.5 C90.11 208.18 94.42 212.05 98.7 216.04 C102.78 219.81 107.04 223.3 111.37 226.78 C115.11 229.89 118.67 233.17 122.21 236.5 C126.02 240.52 126.02 240.52 130.99 242.09 C134.32 240.62 136.67 238.13 139.25 235.62 C143.32 231.76 147.42 228.02 151.81 224.5 C155.56 221.49 159.15 218.38 162.68 215.12 C166.22 211.87 169.81 208.76 173.56 205.75 C178.35 201.89 182.85 197.78 187.33 193.58 C190.8 190.34 194.36 187.29 198.06 184.31 C214.18 171.27 225.03 153.83 228.18 133.12 C228.68 127.32 228.57 121.5 228.45 115.69 C228.4 112.86 228.39 110.04 228.38 107.22 C228.35 99.22 228.28 91.21 228.15 83.2 C228.06 78.27 228.04 73.34 228.04 68.4 C228.03 66.55 228.01 64.69 227.96 62.84 C227.59 48.94 230.73 40.22 238.87 28.96 C240.65 26.47 242.27 23.88 243.88 21.28 C245.4 18.91 246.92 16.54 248.45 14.17 C248.95 13.41 249.44 12.64 249.94 11.84 C250.38 11.17 250.81 10.5 251.26 9.81 C252.34 8.15 252.34 8.15 252.18 6.12 C171.66 6.12 91.14 6.12 8.18 6.12 Z " fill="#FDFDFD" transform="translate(47.816974222660065,74.8758015036583)"/>
<path d="M0 0 C0.99 0.33 1.98 0.66 3 1 C2.01 1.33 1.02 1.66 0 2 C0 2.66 0 3.32 0 4 C-1.74 5.63 -3.6 7.08 -5.47 8.56 C-5.97 9.04 -6.48 9.51 -7 10 C-7 10.66 -7 11.32 -7 12 C-7.99 12 -8.98 12 -10 12 C-8.77 13.65 -8.77 13.65 -7 15 C-4.04 14.8 -3.01 14.01 -0.86 11.93 C-0.16 11.11 0.53 10.29 1.25 9.44 C1.96 8.61 2.66 7.78 3.39 6.93 C3.92 6.3 4.45 5.66 5 5 C5.99 5.99 5.99 5.99 7 7 C6.45 7.54 5.89 8.08 5.32 8.63 C-10 23.31 -10 23.31 -23 40 C-23.47 40.71 -23.94 41.42 -24.42 42.15 C-36.52 60.8 -44.77 80.42 -50 102 C-50.18 102.69 -50.36 103.38 -50.54 104.09 C-56.31 127.14 -54.88 155.16 -49 178 C-48.82 178.73 -48.65 179.46 -48.46 180.21 C-39.94 215.03 -20.15 242.28 5 267 C4.34 267.66 3.68 268.32 3 269 C2.59 268.52 2.17 268.03 1.75 267.53 C-5.49 258.21 -5.49 258.21 -15 252 C-15.66 252.99 -16.32 253.98 -17 255 C-16.34 255.62 -15.68 256.24 -15 256.88 C-13 259 -13 259 -13 261 C-12.01 261.33 -11.02 261.66 -10 262 C-10 262.66 -10 263.32 -10 264 C-9.13 264.34 -9.13 264.34 -8.25 264.69 C-6 266 -6 266 -4.18 268.32 C-1.96 271.05 0.31 273.07 3.06 275.25 C3.92 275.94 4.78 276.62 5.66 277.33 C7.97 279.15 7.97 279.15 11 280 C12.71 281.63 14.38 283.29 16 285 C15.67 285.66 15.34 286.32 15 287 C6.19 280.45 -2.06 273.57 -10 266 C-10.83 265.23 -11.66 264.47 -12.52 263.68 C-41.2 236.38 -61.31 194.18 -62.48 154.48 C-62.55 149.97 -62.55 145.46 -62.52 140.95 C-62.5 137.5 -62.52 134.06 -62.55 130.62 C-62.6 89.54 -46.98 51.71 -20.36 20.62 C-19.11 19.13 -17.93 17.59 -16.75 16.05 C-15.88 15.04 -15.88 15.04 -15 14 C-14.34 14 -13.68 14 -13 14 C-12.79 13.45 -12.57 12.9 -12.35 12.33 C-10.55 9.22 -8.05 7.09 -5.38 4.75 C-4.86 4.29 -4.34 3.83 -3.81 3.36 C-2.55 2.23 -1.27 1.12 0 0 Z " fill="#B9B9BA" transform="translate(62,39)"/>
<path d="M0 0 C0.33 0.66 0.66 1.32 1 2 C1.91 2.21 1.91 2.21 2.84 2.42 C5.55 3.15 6.58 4.28 8.5 6.31 C9.14 6.97 9.78 7.64 10.44 8.32 C11.77 9.73 13.1 11.13 14.42 12.54 C17.83 16.07 20.3 18.4 25 20 C26.93 21.45 28.82 22.96 30.69 24.5 C54.39 43.31 85.19 53.68 115 57 C115.73 57.08 116.45 57.16 117.2 57.25 C156.92 61.31 201.42 49.43 232.94 24.69 C234.62 23.32 236.28 21.94 237.91 20.53 C240.04 18.97 241.48 18.59 244 18 C245.69 16.35 247.36 14.69 249 13 C249.66 13 250.32 13 251 13 C251.4 12.04 251.4 12.04 251.81 11.06 C253 9 253 9 256 8 C257.21 6 257.21 6 258 4 C258.99 4 259.98 4 261 4 C261 4.99 261 5.98 261 7 C261.66 6.34 262.32 5.68 263 5 C262.58 9.9 260.53 11.85 257 15.12 C253.18 18.53 253.18 18.53 251 23 C248.98 24.81 246.96 26.48 244.81 28.12 C244.18 28.61 243.55 29.1 242.9 29.6 C202.33 60.52 154.19 72.25 103.68 65.75 C77.76 61.87 45.16 51.72 27 32 C27 31.34 27 30.68 27 30 C26.46 29.93 25.92 29.86 25.37 29.79 C22.06 28.69 19.73 26.61 17.12 24.38 C16.59 23.92 16.05 23.47 15.5 23.01 C12.11 20.1 9.15 17.09 6.38 13.61 C3.91 10.73 0.95 8.38 -2 6 C-1.34 4.02 -0.68 2.04 0 0 Z " fill="#9C9C9E" transform="translate(46,289)"/>
<path d="M0 0 C1.37 -0 2.74 -0.01 4.11 -0.02 C6.96 -0.02 9.81 -0.02 12.65 -0.01 C15.53 -0 18.41 -0.01 21.29 -0.03 C36.96 -0.16 52.04 -0.16 67.17 4.43 C68.54 4.81 68.54 4.81 69.94 5.2 C72.06 5.8 74.14 6.46 76.23 7.18 C76.96 7.44 77.7 7.69 78.46 7.95 C97.43 14.65 114.57 24.84 130.23 37.43 C130.9 37.97 131.58 38.51 132.27 39.07 C135.45 41.71 137.39 43.66 139.17 47.43 C140.74 49.25 140.74 49.25 142.54 50.93 C143.16 51.53 143.78 52.13 144.41 52.75 C145.28 53.58 145.28 53.58 146.17 54.43 C147.5 55.77 148.83 57.1 150.17 58.43 C149.84 59.07 149.51 59.71 149.17 60.37 C148.1 62.2 148.1 62.2 148.17 63.43 C147.84 64.09 147.51 64.75 147.17 65.43 C146.69 64.94 146.21 64.45 145.72 63.94 C143.52 61.68 141.31 59.43 139.11 57.18 C138.35 56.41 137.6 55.63 136.83 54.83 C132.5 50.44 128.62 47.28 123.17 44.43 C120.96 42.87 118.78 41.3 116.61 39.68 C100.18 27.77 81.81 18.6 62.17 13.43 C61.47 13.25 60.76 13.06 60.04 12.87 C44.17 8.79 27.57 6.59 11.17 7.43 C10.45 7.47 9.74 7.51 9 7.54 C-13.22 8.79 -34.82 13.62 -54.83 23.43 C-55.57 23.79 -56.31 24.15 -57.08 24.52 C-67.85 29.83 -78.33 35.8 -87.44 43.7 C-89.83 45.43 -89.83 45.43 -93.83 45.43 C-95.7 47.11 -95.7 47.11 -97.33 49.31 C-99.6 52.18 -101.33 54.18 -104.83 55.43 C-107.08 54.56 -107.08 54.56 -108.83 53.43 C-108.83 51.43 -108.83 51.43 -106.52 49 C-105.19 47.73 -105.19 47.73 -103.83 46.43 C-103.28 45.84 -102.72 45.24 -102.14 44.62 C-100.83 43.43 -100.83 43.43 -98.83 43.43 C-98.83 42.77 -98.83 42.11 -98.83 41.43 C-98.17 40.77 -97.51 40.11 -96.83 39.43 C-96.19 38.73 -95.55 38.03 -94.89 37.31 C-79.8 22.35 -58.45 12.9 -38.64 6.12 C-37.65 5.78 -37.65 5.78 -36.64 5.42 C-24.55 1.47 -12.67 -0.03 0 0 Z " fill="#939297" transform="translate(160.83203125,-0.43359375)"/>
<path d="M0 0 C0.99 0.33 1.98 0.66 3 1 C2.01 1.33 1.02 1.66 0 2 C0 2.66 0 3.32 0 4 C-1.74 5.63 -3.6 7.08 -5.47 8.56 C-5.97 9.04 -6.48 9.51 -7 10 C-7 10.66 -7 11.32 -7 12 C-7.99 12 -8.98 12 -10 12 C-8.77 13.65 -8.77 13.65 -7 15 C-4.04 14.8 -3.01 14.01 -0.86 11.93 C-0.16 11.11 0.53 10.29 1.25 9.44 C1.96 8.61 2.66 7.78 3.39 6.93 C3.92 6.3 4.45 5.66 5 5 C5.99 5.99 5.99 5.99 7 7 C6.45 7.54 5.89 8.08 5.32 8.63 C-10 23.31 -10 23.31 -23 40 C-23.47 40.71 -23.94 41.42 -24.42 42.15 C-36.99 61.53 -44.77 81.85 -51 104 C-52.29 99.37 -51.3 96.6 -50 92 C-50.99 92 -51.98 92 -53 92 C-53.66 90.68 -54.32 89.36 -55 88 C-55.33 89.98 -55.66 91.96 -56 94 C-56.66 93.01 -57.32 92.02 -58 91 C-57.37 88.22 -56.64 85.73 -55.69 83.06 C-55.41 82.27 -55.14 81.48 -54.85 80.66 C-46.87 58.28 -35.82 38.67 -20.36 20.62 C-19.11 19.13 -17.93 17.59 -16.75 16.05 C-15.88 15.04 -15.88 15.04 -15 14 C-14.34 14 -13.68 14 -13 14 C-12.79 13.45 -12.57 12.9 -12.35 12.33 C-10.55 9.22 -8.05 7.09 -5.38 4.75 C-4.86 4.29 -4.34 3.83 -3.81 3.36 C-2.55 2.23 -1.27 1.12 0 0 Z " fill="#EAE9F0" transform="translate(62,39)"/>
<path d="M0 0 C6.87 3.05 11.3 8.35 16 14 C16.66 14.78 16.66 14.78 17.33 15.58 C38.39 40.71 53.16 70.38 58 103 C56 102 56 102 55.36 100.09 C55.18 99.26 55 98.44 54.82 97.59 C54.61 96.68 54.41 95.77 54.19 94.84 C53.99 93.88 53.78 92.92 53.56 91.94 C52.13 85.39 50.51 79.22 48 73 C45.85 74.73 45.85 74.73 44 77 C43.99 79.19 43.99 79.19 45 81 C45.99 81.5 45.99 81.5 47 82 C46.67 83.65 46.34 85.3 46 87 C43.82 84.82 43.36 83.55 42.41 80.66 C42.1 79.77 41.8 78.88 41.49 77.97 C41.16 77.01 40.84 76.05 40.5 75.06 C34.66 58.53 26.71 43.85 16 30 C15.31 29.08 14.61 28.17 13.9 27.22 C7.31 18.82 -0.36 11.44 -8 4 C-5 4 -5 4 -3.19 5.47 C-2.54 6.14 -1.88 6.81 -1.21 7.5 C-0.49 8.22 0.22 8.94 0.95 9.69 C1.69 10.45 2.43 11.21 3.19 12 C4.31 13.14 4.31 13.14 5.46 14.31 C7.31 16.2 9.16 18.1 11 20 C10.34 18.68 9.68 17.36 9 16 C10.32 16 11.64 16 13 16 C13.33 15.34 13.66 14.68 14 14 C13.41 13.75 12.83 13.5 12.22 13.24 C9.71 11.84 8.29 10.32 6.44 8.12 C5.86 7.45 5.28 6.77 4.68 6.07 C3.07 4.08 1.52 2.06 0 0 Z " fill="#DEDDE4" transform="translate(297,44)"/>
<path d="M0 0 C51.28 20.2 51.28 20.2 60 39 C61.57 40.81 61.57 40.81 63.38 42.5 C63.99 43.1 64.61 43.7 65.25 44.32 C65.82 44.87 66.4 45.43 67 46 C68.33 47.33 69.67 48.67 71 50 C70.67 50.64 70.34 51.28 70 51.94 C68.93 53.77 68.93 53.77 69 55 C68.5 55.99 68.5 55.99 68 57 C67.52 56.51 67.04 56.01 66.55 55.5 C64.35 53.24 62.15 51 59.94 48.75 C59.19 47.97 58.43 47.2 57.66 46.39 C53.33 42.01 49.45 38.84 44 36 C41.79 34.44 39.61 32.86 37.44 31.25 C20.21 18.76 1.26 10.26 -19 4 C-15.74 2.91 -13.89 3.09 -10.67 4.21 C-9.47 4.63 -9.47 4.63 -8.25 5.04 C-7.43 5.34 -6.6 5.63 -5.75 5.94 C-4.91 6.23 -4.07 6.52 -3.2 6.82 C-1.13 7.54 0.94 8.26 3 9 C3 8.01 3 7.02 3 6 C3.66 6 4.32 6 5 6 C5 5.34 5 4.68 5 4 C3.35 3.34 1.7 2.68 0 2 C0 1.34 0 0.68 0 0 Z " fill="#A9A8AE" transform="translate(240,8)"/>
<path d="M0 0 C0.5 0.99 0.5 0.99 1 2 C0.63 3.09 0.26 4.19 -0.12 5.31 C-1.39 8.95 -1.39 8.95 0.38 11.94 C0.91 12.62 1.45 13.3 2 14 C2.66 13.67 3.32 13.34 4 13 C3.45 17.15 2.54 20.4 0.63 24.12 C0.14 25.07 -0.34 26.02 -0.85 26.99 C-1.63 28.48 -1.63 28.48 -2.44 30 C-2.98 31.03 -3.52 32.05 -4.08 33.11 C-13.63 50.9 -26.47 66.05 -41 80 C-41.66 79.67 -42.32 79.34 -43 79 C-39.37 75.37 -35.74 71.74 -32 68 C-32.99 66.68 -33.98 65.36 -35 64 C-37.61 66.01 -40.04 68.04 -42.38 70.38 C-45.44 73.44 -48.68 76.22 -52 79 C-50.61 75.84 -49.01 73.81 -46.51 71.45 C-45.81 70.78 -45.11 70.11 -44.39 69.42 C-43.64 68.7 -42.89 67.99 -42.12 67.25 C-24.25 49.69 -11.86 29.19 -2.79 5.9 C-1.95 3.88 -1 1.94 0 0 Z " fill="#BEBEBE" transform="translate(340,230)"/>
<path d="M0 0 C-1.39 0.69 -1.39 0.69 -2.82 1.39 C-8.97 4.44 -15.09 7.48 -21 11 C-20.34 11.66 -19.68 12.32 -19 13 C-19 12.01 -19 11.02 -19 10 C-18.34 10.33 -17.68 10.66 -17 11 C-14.35 11 -12.42 10.02 -10 9 C-10 9.66 -10 10.32 -10 11 C-9.07 10.48 -8.14 9.97 -7.19 9.44 C-4 8 -4 8 -1 9 C-1.54 9.26 -2.09 9.52 -2.65 9.79 C-16.14 16.31 -28.57 23 -40.06 32.75 C-42 34 -42 34 -46 34 C-47.87 35.68 -47.87 35.68 -49.5 37.88 C-51.77 40.75 -53.5 42.75 -57 44 C-59.25 43.12 -59.25 43.12 -61 42 C-61 40 -61 40 -58.69 37.56 C-57.36 36.29 -57.36 36.29 -56 35 C-55.44 34.4 -54.89 33.8 -54.31 33.19 C-53 32 -53 32 -51 32 C-51 31.34 -51 30.68 -51 30 C-50.34 29.34 -49.68 28.68 -49 28 C-48.36 27.3 -47.72 26.6 -47.06 25.88 C-36.74 15.64 -22.79 8.11 -9.75 1.88 C-9.12 1.57 -8.49 1.26 -7.83 0.94 C-3.36 -1.12 -3.36 -1.12 0 0 Z " fill="#B4B3B9" transform="translate(113,11)"/>
<path d="M0 0 C0.33 0.66 0.66 1.32 1 2 C2.32 2 3.64 2 5 2 C4.86 4.29 4.71 6.58 4.56 8.88 C4.48 10.15 4.4 11.43 4.32 12.74 C4.12 15.68 3.82 18.6 3.48 21.52 C2.83 27.89 2.81 34.27 2.81 40.67 C2.81 42.76 2.79 44.85 2.78 46.94 C2.77 48.29 2.77 49.64 2.77 50.98 C2.76 52.79 2.76 52.79 2.76 54.63 C3.01 58.08 3.8 60.77 5 64 C5.52 66.89 5.52 66.89 5.81 69.69 C5.92 70.62 6.03 71.55 6.14 72.51 C6 75 6 75 4.51 76.83 C4.01 77.22 3.51 77.6 3 78 C3 76.02 3 74.04 3 72 C1.51 72.99 1.51 72.99 0 74 C-0.34 72.58 -0.67 71.17 -1 69.75 C-1.19 68.96 -1.37 68.17 -1.56 67.36 C-2 65 -2 65 -2 61 C-2.66 61 -3.32 61 -4 61 C-4 44.17 -4 27.34 -4 10 C-3.34 10 -2.68 10 -2 10 C-1.94 9.36 -1.88 8.72 -1.82 8.07 C-1.73 7.24 -1.65 6.41 -1.56 5.56 C-1.48 4.74 -1.4 3.92 -1.32 3.07 C-1 1 -1 1 0 0 Z " fill="#8F8E92" transform="translate(4,141)"/>
<path d="M0 0 C0.5 1.49 0.5 1.49 1 3 C0.34 3.99 -0.32 4.98 -1 6 C-3.88 5.69 -3.88 5.69 -7 5 C-7.99 3.51 -7.99 3.51 -9 2 C-8.5 4.97 -8.5 4.97 -8 8 C-11.88 9.19 -14.92 10 -19 10 C-19 10.66 -19 11.32 -19 12 C-46.89 17.37 -46.89 17.37 -57 14 C-58.48 13.85 -59.96 13.75 -61.45 13.68 C-62.3 13.64 -63.14 13.6 -64.02 13.56 C-64.9 13.52 -65.78 13.48 -66.69 13.44 C-67.58 13.39 -68.47 13.35 -69.39 13.31 C-71.59 13.2 -73.8 13.1 -76 13 C-75.67 11.68 -75.34 10.36 -75 9 C-68.38 7.88 -68.38 7.88 -65 9 C-63.66 8.7 -62.33 8.36 -61 8 C-59.16 7.82 -57.33 7.68 -55.48 7.57 C-54.4 7.5 -53.33 7.43 -52.21 7.35 C-51.07 7.28 -49.93 7.2 -48.75 7.12 C-32.46 6.49 -32.46 6.49 -17 2 C-14.67 1.65 -12.33 1.32 -10 1 C-9.32 0.81 -8.64 0.63 -7.94 0.44 C-5.28 -0.16 -2.72 -0.06 0 0 Z " fill="#8A898E" transform="translate(233,341)"/>
<path d="M0 0 C0.5 0.99 0.5 0.99 1 2 C-0.98 2.66 -2.96 3.32 -5 4 C-5 4.33 -5 4.66 -5 5 C-9.45 5.5 -9.45 5.5 -14 6 C-13.34 6.99 -12.68 7.98 -12 9 C-7.38 8.67 -2.76 8.34 2 8 C-0.75 9.84 -2.2 10.44 -5.32 11.15 C-6.58 11.45 -6.58 11.45 -7.87 11.75 C-8.76 11.96 -9.65 12.16 -10.56 12.38 C-16.92 13.9 -22.96 15.53 -28.96 18.16 C-32.23 19.51 -35.55 20.23 -39 21 C-40.33 21.33 -41.67 21.66 -43 22 C-43 21.34 -43 20.68 -43 20 C-45.31 21.32 -47.62 22.64 -50 24 C-50.66 23.01 -51.32 22.02 -52 21 C-52 21.99 -52 22.98 -52 24 C-52.99 23.67 -53.98 23.34 -55 23 C-51.07 18.5 -47.26 16.49 -41.75 14.31 C-36.55 12.65 -36.55 12.65 -33 9 C-30.3 7.92 -27.64 6.96 -24.88 6.06 C-24.07 5.8 -23.27 5.53 -22.44 5.26 C-15.06 2.89 -7.65 1.29 0 0 Z " fill="#9B9B9F" transform="translate(146,0)"/>
<path d="M0 0 C9.31 3.38 25.22 13.01 30.12 22.08 C30.41 22.71 30.7 23.35 31 24 C32.57 25.81 32.57 25.81 34.38 27.5 C35.3 28.4 35.3 28.4 36.25 29.32 C36.82 29.87 37.4 30.43 38 31 C39.33 32.33 40.67 33.67 42 35 C41.67 35.64 41.34 36.28 41 36.94 C39.93 38.77 39.93 38.77 40 40 C39.5 40.99 39.5 40.99 39 42 C38.52 41.51 38.04 41.01 37.55 40.5 C35.35 38.24 33.15 36 30.94 33.75 C30.19 32.97 29.43 32.2 28.66 31.39 C24.33 27.01 20.45 23.84 15 21 C12.6 19.4 10.27 17.7 7.94 16 C3.68 12.91 -0.6 9.89 -5 7 C-4.34 6.67 -3.68 6.34 -3 6 C-0.43 7.4 -0.43 7.4 2.56 9.38 C3.55 10.02 4.55 10.67 5.57 11.34 C8 13 8 13 9 14 C9.66 12.35 10.32 10.7 11 9 C9.73 8.02 8.46 7.04 7.19 6.06 C6.48 5.52 5.77 4.97 5.04 4.41 C2.96 2.83 2.96 2.83 0 2 C0 1.34 0 0.68 0 0 Z " fill="#BFBEC5" transform="translate(269,23)"/>
<path d="M0 0 C4.15 0.64 7.94 1.98 11.89 3.37 C39.82 13.17 68.74 16.24 97.98 11.4 C101.03 11 103.93 10.93 107 11 C103.95 12.72 101.36 13.39 97.89 13.82 C96.89 13.94 95.9 14.06 94.87 14.19 C93.82 14.31 92.77 14.44 91.69 14.56 C90.61 14.69 89.54 14.82 88.43 14.96 C81.3 15.8 74.2 16.44 67.02 16.79 C63.93 16.95 63.93 16.95 60.66 17.59 C59.78 17.72 58.91 17.86 58 18 C57.67 17.67 57.34 17.34 57 17 C54.67 16.96 52.33 16.96 50 17 C50 17.66 50 18.32 50 19 C53.63 20.81 58.12 20.37 62.15 20.52 C65.9 20.7 67.8 20.87 71 23 C54.25 23.5 38.03 22 22 17 C22 16.67 22 16.34 22 16 C24.64 16 27.28 16 30 16 C30 16.66 30 17.32 30 18 C33.3 18.33 36.6 18.66 40 19 C40.33 18.34 40.66 17.68 41 17 C43.56 16.38 43.56 16.38 46 16 C42.55 13.7 40.89 13.69 36.81 13.5 C31.61 13.18 26.99 12.47 22 11 C22 10.34 22 9.68 22 9 C20.02 9.99 20.02 9.99 18 11 C17.34 10.34 16.68 9.68 16 9 C16.66 9 17.32 9 18 9 C18 8.34 18 7.68 18 7 C16.81 6.98 16.81 6.98 15.59 6.96 C5.85 6.52 5.85 6.52 2.25 3.5 C0 1 0 1 0 0 Z " fill="#A09FA3" transform="translate(108,333)"/>
<path d="M0 0 C0.33 0.99 0.66 1.98 1 3 C2.32 2.34 3.64 1.68 5 1 C6.14 3.29 6.12 4.54 6.11 7.08 C6.11 7.92 6.11 8.76 6.11 9.63 C6.11 10.99 6.11 10.99 6.1 12.38 C6.1 13.31 6.09 14.24 6.09 15.2 C6.09 18.17 6.08 21.15 6.06 24.12 C6.06 26.14 6.05 28.15 6.05 30.17 C6.04 35.11 6.02 40.06 6 45 C5.01 45.5 5.01 45.5 4 46 C3.86 46.93 3.71 47.86 3.56 48.81 C2.98 52.11 2.18 53.53 0 56 C0 55.01 0 54.02 0 53 C-1.49 53.5 -1.49 53.5 -3 54 C-2.94 53.39 -2.89 52.79 -2.83 52.17 C-1.27 34.78 -0.46 17.45 0 0 Z " fill="#8E8D92" transform="translate(350,156)"/>
<path d="M0 0 C1.33 3.97 0.33 6.01 -1.5 9.74 C-2.06 10.83 -2.06 10.83 -2.62 11.94 C-3.37 13.47 -4.12 15 -4.86 16.53 C-5.41 17.66 -5.41 17.66 -5.97 18.82 C-9.33 25.91 -12.27 32.89 -12.75 40.79 C-13.22 45 -14.67 48.99 -16 53 C-17.46 48.48 -16.27 45.48 -15 41 C-15.99 41 -16.98 41 -18 41 C-18.66 39.68 -19.32 38.36 -20 37 C-20.33 38.98 -20.66 40.96 -21 43 C-23 40 -23 40 -22.64 37.55 C-22.37 36.67 -22.1 35.79 -21.81 34.88 C-21.55 33.99 -21.29 33.1 -21.02 32.18 C-20.68 31.46 -20.35 30.74 -20 30 C-19.01 29.67 -18.02 29.34 -17 29 C-16.4 27.24 -16.4 27.24 -16 25 C-15.23 22.87 -14.44 20.74 -13.62 18.62 C-12.99 16.97 -12.99 16.97 -12.35 15.29 C-11.04 12.1 -9.58 9.06 -8 6 C-6.68 6.33 -5.36 6.66 -4 7 C-4 6.34 -4 5.68 -4 5 C-3.34 5 -2.68 5 -2 5 C-1.34 3.35 -0.68 1.7 0 0 Z " fill="#CECDD4" transform="translate(27,90)"/>
<path d="M0 0 C0.99 0.33 1.98 0.66 3 1 C2.01 1.33 1.02 1.66 0 2 C0 2.66 0 3.32 0 4 C-1.74 5.63 -3.6 7.08 -5.47 8.56 C-5.97 9.04 -6.48 9.51 -7 10 C-7 10.66 -7 11.32 -7 12 C-7.99 12 -8.98 12 -10 12 C-9.46 12.74 -8.93 13.48 -8.38 14.25 C-7.69 15.61 -7.69 15.61 -7 17 C-8.25 20.62 -10.74 23.1 -13.31 25.88 C-15.94 28.73 -18.49 31.57 -20.88 34.62 C-21.58 35.41 -22.28 36.19 -23 37 C-23.99 37 -24.98 37 -26 37 C-26.66 36.01 -27.32 35.02 -28 34 C-26.9 31.52 -25.73 29.68 -24 27.56 C-21.93 25.16 -21.93 25.16 -21.06 22.56 C-19.6 19.03 -17.6 16.8 -15 14 C-14.34 14 -13.68 14 -13 14 C-12.79 13.45 -12.57 12.9 -12.35 12.33 C-10.55 9.22 -8.05 7.09 -5.38 4.75 C-4.86 4.29 -4.34 3.83 -3.81 3.36 C-2.55 2.23 -1.27 1.12 0 0 Z " fill="#CECDD5" transform="translate(62,39)"/>
<path d="M0 0 C0.66 0 1.32 0 2 0 C2.13 0.71 2.27 1.42 2.4 2.15 C2.58 3.07 2.76 3.99 2.94 4.94 C3.11 5.85 3.29 6.77 3.46 7.71 C3.78 9.95 3.78 9.95 5 11 C5.66 10.34 6.32 9.68 7 9 C7.33 10.98 7.66 12.96 8 15 C8.99 14.34 9.98 13.68 11 13 C13 16.19 13.28 19.14 13.65 22.84 C14.03 25.16 14.7 27.13 15.56 29.31 C17 33 17 33 17 36 C16.34 36 15.68 36 15 36 C14.67 36.66 14.34 37.32 14 38 C10.27 34.93 8.73 31.57 6.93 27.22 C6.06 25.03 6.06 25.03 5.01 23.16 C3.93 20.85 3.41 18.77 2.93 16.27 C2.76 15.38 2.58 14.5 2.4 13.59 C2.14 12.21 2.14 12.21 1.88 10.81 C1.6 9.42 1.6 9.42 1.32 8 C0 1.2 0 1.2 0 0 Z " fill="#A5A5A8" transform="translate(0,202)"/>
<path d="M0 0 C0.33 0.66 0.66 1.32 1 2 C2.32 2 3.64 2 5 2 C4.48 10.35 3.92 18.68 3 27 C0.25 26.44 -0.78 26.23 -2.75 24.12 C-4.61 19.47 -4.23 14.96 -4 10 C-3.34 10 -2.68 10 -2 10 C-1.94 9.36 -1.88 8.72 -1.82 8.07 C-1.73 7.24 -1.65 6.41 -1.56 5.56 C-1.48 4.74 -1.4 3.92 -1.32 3.07 C-1 1 -1 1 0 0 Z " fill="#9F9EA3" transform="translate(4,141)"/>
<path d="M0 0 C1.86 0.14 1.86 0.14 4 1 C5.23 3.51 5.23 3.51 6.19 6.69 C6.51 7.72 6.83 8.76 7.17 9.82 C7.98 12.91 8.7 15.83 9 19 C7.06 21.88 7.06 21.88 5 24 C4.67 22.68 4.34 21.36 4 20 C4.33 24.29 4.66 28.58 5 33 C3.12 29.24 2.17 26.13 1.25 22.06 C0.97 20.86 0.68 19.65 0.39 18.41 C-0.02 14.83 0.35 13.15 2 10 C1.01 9.67 0.02 9.34 -1 9 C-2.27 6.27 -2.04 5.13 -1.06 2.25 C-0.71 1.51 -0.36 0.77 0 0 Z " fill="#C0BFC5" transform="translate(342,116)"/>
<path d="M0 0 C0.99 0.66 1.98 1.32 3 2 C3.66 1.34 4.32 0.68 5 0 C5.87 2.41 6.21 3.53 5.15 5.92 C4.7 6.57 4.26 7.22 3.8 7.89 C3.31 8.6 2.82 9.31 2.32 10.04 C1.8 10.77 1.29 11.5 0.75 12.25 C0.25 13 -0.26 13.74 -0.78 14.51 C-3.62 18.58 -3.62 18.58 -5 20 C-5.99 20 -6.98 20 -8 20 C-8 19.34 -8 18.68 -8 18 C-9.32 17.67 -10.64 17.34 -12 17 C-9.96 12.37 -7.6 9.51 -4 6 C-2.56 4.05 -1.29 2.05 0 0 Z " fill="#B5B5B5" transform="translate(325,265)"/>
<path d="M0 0 C6.83 3.03 11.34 8.35 16 14 C16.57 14.67 17.14 15.33 17.73 16.02 C19.69 19.09 18.73 21.57 18 25 C17.01 25.33 16.02 25.66 15 26 C14.67 25.01 14.34 24.02 14 23 C12.34 22.32 10.67 21.65 9 21 C6.87 19.21 6.87 19.21 4.79 17.09 C4.04 16.33 3.29 15.56 2.52 14.78 C1.75 13.99 0.98 13.19 0.19 12.38 C-0.99 11.17 -0.99 11.17 -2.2 9.95 C-4.14 7.97 -6.07 5.99 -8 4 C-5 4 -5 4 -3.19 5.47 C-2.54 6.14 -1.88 6.81 -1.21 7.5 C-0.49 8.22 0.22 8.94 0.95 9.69 C1.69 10.45 2.43 11.21 3.19 12 C4.31 13.14 4.31 13.14 5.46 14.31 C7.31 16.2 9.16 18.1 11 20 C10.34 18.68 9.68 17.36 9 16 C10.32 16 11.64 16 13 16 C13.33 15.34 13.66 14.68 14 14 C13.41 13.75 12.83 13.5 12.22 13.24 C9.71 11.84 8.29 10.32 6.44 8.12 C5.86 7.45 5.28 6.77 4.68 6.07 C3.07 4.08 1.52 2.06 0 0 Z " fill="#DCDBE1" transform="translate(297,44)"/>
<path d="M0 0 C0.33 0.66 0.66 1.32 1 2 C-1.31 2.33 -3.62 2.66 -6 3 C-6 3.33 -6 3.66 -6 4 C-7.44 3.86 -8.88 3.71 -10.31 3.56 C-11.11 3.48 -11.91 3.4 -12.74 3.32 C-15 3 -15 3 -18 2 C-18.69 -0.06 -18.69 -0.06 -19 -2 C-12.43 -4.19 -6.15 -2.88 0 0 Z " fill="#8D8C92" transform="translate(227,6)"/>
<path d="M0 0 C-0.88 0.44 -1.77 0.87 -2.68 1.32 C-9.36 4.63 -15.98 8.03 -22.51 11.64 C-25.96 13.52 -29.47 15.27 -33 17 C-33 16.34 -33 15.68 -33 15 C-30.84 13.5 -28.7 12.14 -26.44 10.81 C-25.77 10.42 -25.1 10.02 -24.41 9.62 C-19.62 6.83 -14.75 4.26 -9.75 1.88 C-9.12 1.57 -8.49 1.26 -7.84 0.94 C-3.37 -1.12 -3.37 -1.12 0 0 Z " fill="#B8B8BC" transform="translate(113,11)"/>
<path d="M0 0 C4.34 3.93 7.07 8.08 9.88 13.19 C10.29 13.91 10.71 14.64 11.13 15.38 C12.16 17.22 13.09 19.11 14 21 C13.67 21.66 13.34 22.32 13 23 C2.35 6.45 2.35 6.45 0 0 Z " fill="#F7F4FB" transform="translate(324,74)"/>
<path d="M0 0 C0.99 0 1.98 0 3 0 C3.75 3.66 4.24 6.42 3 10 C2.22 9.36 1.43 8.72 0.62 8.06 C-1.8 6.02 -1.8 6.02 -4 5 C-3.34 4.01 -2.68 3.02 -2 2 C-1.34 2 -0.68 2 0 2 C0 1.34 0 0.68 0 0 Z " fill="#ABABAB" transform="translate(41,283)"/>
<path d="M0 0 C0.33 0.66 0.66 1.32 1 2 C-0.98 2.66 -2.96 3.32 -5 4 C-5 4.33 -5 4.66 -5 5 C-12.75 6.12 -12.75 6.12 -15 5 C-15 4.34 -15 3.68 -15 3 C-7.57 1.51 -7.57 1.51 0 0 Z " fill="#A3A2A6" transform="translate(146,0)"/>
<path d="M0 0 C0.99 0.33 1.98 0.66 3 1 C2.01 1.33 1.02 1.66 0 2 C0 2.66 0 3.32 0 4 C-1.74 5.63 -3.6 7.08 -5.47 8.56 C-6.23 9.27 -6.23 9.27 -7 10 C-7 10.66 -7 11.32 -7 12 C-8.98 12.33 -10.96 12.66 -13 13 C-9.57 8.29 -5.4 4.75 -1 1 C-0.67 0.67 -0.34 0.34 0 0 Z " fill="#D7D7DC" transform="translate(62,39)"/>
<path d="M0 0 C-2.26 2.74 -3.48 3.89 -7.02 4.61 C-8.08 4.66 -9.15 4.7 -10.25 4.75 C-11.87 4.84 -11.87 4.84 -13.52 4.92 C-14.34 4.95 -15.16 4.97 -16 5 C-11.14 1.76 -5.95 -0.56 0 0 Z " fill="#A7A6AB" transform="translate(129,5)"/>
<path d="M0 0 C4.45 -0.39 7.14 0.85 11 3 C8.83 3.95 7.44 4.14 5.18 3.4 C3.43 2.64 1.71 1.82 0 1 C0 0.67 0 0.34 0 0 Z " fill="#9E9E9F" transform="translate(118,345)"/>
<path d="M0 0 C2 2 2 2 3 5 C3.66 5.33 4.32 5.66 5 6 C4.67 7.65 4.34 9.3 4 11 C1.69 8.69 1.5 7.52 0.88 4.38 C0.71 3.56 0.54 2.74 0.37 1.9 C0.25 1.27 0.12 0.65 0 0 Z " fill="#E5E4E8" transform="translate(339,120)"/>
</svg>
