<?xml version="1.0" encoding="UTF-8"?>
<svg version="1.1" xmlns="http://www.w3.org/2000/svg" width="615" height="615">
<path d="M0 0 C0.2475 0.5775 0.495 1.155 0.75 1.75 C1.87762403 4.0682926 1.87762403 4.0682926 3.8125 5.625 C8.72738013 10.96115557 11.3315462 18.02282957 13 25 C13.66 25 14.32 25 15 25 C16.23921302 27.97411124 17.30058404 30.85262818 18 34 C18.66 34 19.32 34 20 34 C20.50615298 35.26839526 21.00469099 36.53983102 21.5 37.8125 C21.91765625 38.87404297 21.91765625 38.87404297 22.34375 39.95703125 C23 42 23 42 23 45 C23.66 45 24.32 45 25 45 C25.42152344 45.78246094 25.84304688 46.56492188 26.27734375 47.37109375 C26.82519531 48.38300781 27.37304688 49.39492187 27.9375 50.4375 C28.48277344 51.44683594 29.02804687 52.45617187 29.58984375 53.49609375 C30.77699468 55.86670493 30.77699468 55.86670493 32 57 C32.04063832 58.66617115 32.042721 60.33388095 32 62 C32.66 62 33.32 62 34 62 C36.98839398 67.13630215 38.59859542 70.8943267 38 77 C37.67 77.99 37.34 78.98 37 80 C36.34 80 35.68 80 35 80 C34.8453125 81.11375 34.8453125 81.11375 34.6875 82.25 C33.95066203 85.1973519 33.05200858 86.78383074 31 89 C30.34 89 29.68 89 29 89 C28.67 90.98 28.34 92.96 28 95 C27.34 95 26.68 95 26 95 C25.67 96.65 25.34 98.3 25 100 C24.34 100 23.68 100 23 100 C23 100.99 23 101.98 23 103 C22.34 103 21.68 103 21 103 C20.67 104.65 20.34 106.3 20 108 C19.34 108 18.68 108 18 108 C17.67 109.98 17.34 111.96 17 114 C16.34 114 15.68 114 15 114 C14.731875 114.70125 14.46375 115.4025 14.1875 116.125 C11.89675411 121.67101637 8.99248409 126.81302758 6 132 C5.67 132.66 5.34 133.32 5 134 C4.34 134 3.68 134 3 134 C3 134.99 3 135.98 3 137 C2.34 137 1.68 137 1 137 C0.67 138.65 0.34 140.3 0 142 C-0.66 142 -1.32 142 -2 142 C-2.33 143.32 -2.66 144.64 -3 146 C-3.66 146 -4.32 146 -5 146 C-5.33 147.65 -5.66 149.3 -6 151 C-6.66 151 -7.32 151 -8 151 C-8.33 152.98 -8.66 154.96 -9 157 C-9.66 157 -10.32 157 -11 157 C-11.33 158.65 -11.66 160.3 -12 162 C-12.66 162 -13.32 162 -14 162 C-14.12375 162.7425 -14.2475 163.485 -14.375 164.25 C-14.96120466 166.82930049 -15.63284555 168.7482162 -17 171 C-17.66 171.33 -18.32 171.66 -19 172 C-19.33 172.99 -19.66 173.98 -20 175 C-20.66 175 -21.32 175 -22 175 C-22.33 176.65 -22.66 178.3 -23 180 C-23.66 180 -24.32 180 -25 180 C-25.33 181.98 -25.66 183.96 -26 186 C-26.66 186 -27.32 186 -28 186 C-28.12375 186.556875 -28.2475 187.11375 -28.375 187.6875 C-29.05976855 190.22114364 -29.99133763 192.57921032 -31 195 C-31.99 195 -32.98 195 -34 195 C-34 196.65 -34 198.3 -34 200 C-34.99 200 -35.98 200 -37 200 C-37.144375 200.763125 -37.28875 201.52625 -37.4375 202.3125 C-38 205 -38 205 -39 208 C-39.99 208 -40.98 208 -42 208 C-42.33 210.31 -42.66 212.62 -43 215 C-43.99 215 -44.98 215 -46 215 C-46.103125 215.556875 -46.20625 216.11375 -46.3125 216.6875 C-47.1337796 219.44998593 -48.50189725 221.54311148 -50 224 C-50.33 224.825 -50.66 225.65 -51 226.5 C-52.08875623 229.22189058 -53.34206939 231.58218453 -55 234 C-55.66 234 -56.32 234 -57 234 C-57.12375 234.5775 -57.2475 235.155 -57.375 235.75 C-58.00648824 238.02335767 -58.88858191 239.9253529 -60 242 C-60.66 242 -61.32 242 -62 242 C-62.495 244.97 -62.495 244.97 -63 248 C-63.66 248 -64.32 248 -65 248 C-65.33 249.32 -65.66 250.64 -66 252 C-66.66 252 -67.32 252 -68 252 C-68 253.65 -68 255.3 -68 257 C-68.66 257.33 -69.32 257.66 -70 258 C-71.09012598 259.77709562 -71.09012598 259.77709562 -72.0625 261.875 C-72.57490234 262.92300781 -72.57490234 262.92300781 -73.09765625 263.9921875 C-74.10003135 266.13268038 -74.10003135 266.13268038 -75 269 C-75.66 269 -76.32 269 -77 269 C-77 269.99 -77 270.98 -77 272 C-77.66 272 -78.32 272 -79 272 C-79.33 273.65 -79.66 275.3 -80 277 C-80.99 277 -81.98 277 -83 277 C-83 277.99 -83 278.98 -83 280 C-89.48329938 282.28062965 -95.47526819 283.3325671 -102.328125 283.75 C-105.10652843 283.9000996 -105.10652843 283.9000996 -108 285.0625 C-112.89590178 286.59246931 -117.91004221 286.1482512 -123 286 C-123 286.66 -123 287.32 -123 288 C-125.45743786 288.36173964 -127.91558793 288.71468169 -130.375 289.0625 C-131.42300781 289.2181543 -131.42300781 289.2181543 -132.4921875 289.37695312 C-137.7734375 290.11328125 -137.7734375 290.11328125 -140 289 C-140 289.66 -140 290.32 -140 291 C-140.83144531 291.13277344 -141.66289062 291.26554687 -142.51953125 291.40234375 C-143.60621094 291.57894531 -144.69289062 291.75554687 -145.8125 291.9375 C-146.89144531 292.11152344 -147.97039062 292.28554688 -149.08203125 292.46484375 C-152.04933356 292.93871921 -152.04933356 292.93871921 -155 294 C-155 293.34 -155 292.68 -155 292 C-156.19625 292.495 -157.3925 292.99 -158.625 293.5 C-162.21101476 294.85911235 -165.13404799 295.2899464 -169 295 C-169 295.66 -169 296.32 -169 297 C-169.99 297 -170.98 297 -172 297 C-172 296.34 -172 295.68 -172 295 C-172.99 294.67 -173.98 294.34 -175 294 C-174.67 291.36 -174.34 288.72 -174 286 C-173.34 286 -172.68 286 -172 286 C-171.505 284.02 -171.505 284.02 -171 282 C-170.34 282 -169.68 282 -169 282 C-168.67 280.02 -168.34 278.04 -168 276 C-167.34 276 -166.68 276 -166 276 C-165.690625 275.21625 -165.38125 274.4325 -165.0625 273.625 C-164 271 -164 271 -163 269 C-162.34 269 -161.68 269 -161 269 C-160.87625 268.030625 -160.7525 267.06125 -160.625 266.0625 C-160.315625 264.5465625 -160.315625 264.5465625 -160 263 C-159.34 262.67 -158.68 262.34 -158 262 C-157.30341637 260.34561387 -156.63903117 258.67745682 -156 257 C-155.34 256.01 -154.68 255.02 -154 254 C-153.34 254 -152.68 254 -152 254 C-152.061875 253.2575 -152.12375 252.515 -152.1875 251.75 C-151.96568069 248.49665015 -151.0474909 247.45698908 -149 245 C-148.67 244.01 -148.34 243.02 -148 242 C-147.34 242 -146.68 242 -146 242 C-146 241.01 -146 240.02 -146 239 C-145.01 239 -144.02 239 -143 239 C-143 237.35 -143 235.7 -143 234 C-142.34 234 -141.68 234 -141 234 C-141 233.01 -141 232.02 -141 231 C-140.01 231 -139.02 231 -138 231 C-137.8453125 229.39125 -137.8453125 229.39125 -137.6875 227.75 C-137.02797801 224.15260731 -136.54223809 222.54223809 -134 220 C-133.34 220 -132.68 220 -132 220 C-131.938125 219.175 -131.87625 218.35 -131.8125 217.5 C-130.75989902 212.96571886 -128.60282323 209.80529711 -126 206 C-122.72619716 201.15668817 -122.72619716 201.15668817 -120 196 C-119.34 196 -118.68 196 -118 196 C-117.505 193.03 -117.505 193.03 -117 190 C-116.34 190 -115.68 190 -115 190 C-114.67 188.68 -114.34 187.36 -114 186 C-113.34 186 -112.68 186 -112 186 C-111.9071875 185.12730469 -111.814375 184.25460937 -111.71875 183.35546875 C-110.92331308 179.64198878 -109.62670946 177.43719403 -107.5 174.3125 C-105.5863665 171.47734216 -104.08340509 169.25021526 -103 166 C-102.34 166 -101.68 166 -101 166 C-100.67 164.35 -100.34 162.7 -100 161 C-99.34 161 -98.68 161 -98 161 C-97.814375 160.0409375 -97.814375 160.0409375 -97.625 159.0625 C-97.315625 158.0415625 -97.315625 158.0415625 -97 157 C-96.34 156.67 -95.68 156.34 -95 156 C-94.04315593 154.22774958 -94.04315593 154.22774958 -93.1875 152.0625 C-91.66059529 148.49972235 -90.07452208 144.98427093 -88.375 141.5 C-87.76785156 140.24703125 -87.76785156 140.24703125 -87.1484375 138.96875 C-86 137 -86 137 -84 136 C-82.98039022 134.2882904 -82.98039022 134.2882904 -82.0625 132.25 C-78.98206402 125.88300221 -78.98206402 125.88300221 -77 123 C-76.34 123 -75.68 123 -75 123 C-74.87625 122.2575 -74.7525 121.515 -74.625 120.75 C-74.04513299 118.19858515 -73.26291261 116.2732427 -72 114 C-71.01 114 -70.02 114 -69 114 C-68.67 112.02 -68.34 110.04 -68 108 C-67.34 108 -66.68 108 -66 108 C-65.9175 107.29875 -65.835 106.5975 -65.75 105.875 C-64.82861136 102.34301021 -63.07354186 99.98071643 -61 97 C-60.505 95.515 -60.505 95.515 -60 94 C-59.34 94 -58.68 94 -58 94 C-57.67 92.35 -57.34 90.7 -57 89 C-56.34 89 -55.68 89 -55 89 C-54.9175 88.319375 -54.835 87.63875 -54.75 86.9375 C-53.77667472 83.1253093 -52.04192545 80.35929671 -50 77 C-49.34 77 -48.68 77 -48 77 C-48 76.01 -48 75.02 -48 74 C-47.34 74 -46.68 74 -46 74 C-45.89171875 73.26265625 -45.7834375 72.5253125 -45.671875 71.765625 C-44.95988139 68.83486059 -43.99818548 67.18304165 -42.25 64.75 C-37.89745591 58.47690888 -34.34231755 51.86054656 -31 45 C-30.34 45 -29.68 45 -29 45 C-28.80664062 44.38511719 -28.61328125 43.77023438 -28.4140625 43.13671875 C-28.15367187 42.32847656 -27.89328125 41.52023438 -27.625 40.6875 C-27.36976563 39.88699219 -27.11453125 39.08648437 -26.8515625 38.26171875 C-26 36 -26 36 -24 33 C-23.34 33 -22.68 33 -22 33 C-21.938125 32.319375 -21.87625 31.63875 -21.8125 30.9375 C-21.02777248 28.10040821 -20.30634481 26.8971272 -18.5625 24.625 C-15.94672962 21.18518635 -14.94241408 18.19802637 -14 14 C-13.34 14 -12.68 14 -12 14 C-11.90332031 13.27425781 -11.80664062 12.54851562 -11.70703125 11.80078125 C-10.9004237 8.6055458 -9.69785147 6.78330715 -7.6875 4.1875 C-7.09324219 3.39730469 -6.49898437 2.60710937 -5.88671875 1.79296875 C-4 0 -4 0 0 0 Z " fill="#FBFBFB" transform="translate(313,159)"/>
<path d="M0 0 C1.12496887 -0.00637985 2.24993774 -0.0127597 3.40899658 -0.01933289 C5.24793488 -0.02100212 5.24793488 -0.02100212 7.12402344 -0.02270508 C8.37592468 -0.02603348 9.62782593 -0.02936188 10.91766357 -0.03279114 C13.57421403 -0.03786689 16.23066228 -0.04063038 18.88720703 -0.04003906 C22.28453216 -0.03993774 25.68164689 -0.05355539 29.07892227 -0.07081127 C32.32311473 -0.0846402 35.5673055 -0.08402125 38.81152344 -0.08520508 C40.63831635 -0.09598335 40.63831635 -0.09598335 42.50201416 -0.10697937 C44.20838043 -0.10236443 44.20838043 -0.10236443 45.94921875 -0.09765625 C47.44693817 -0.09979378 47.44693817 -0.09979378 48.97491455 -0.10197449 C51.89996132 0.16019242 54.07775054 0.92228388 56.73339844 2.14526367 C56.73339844 1.48526367 56.73339844 0.82526367 56.73339844 0.14526367 C60.8798278 0.04653916 64.65442951 0.43587777 68.73339844 1.14526367 C70.05339844 1.14526367 71.37339844 1.14526367 72.73339844 1.14526367 C75.06974501 1.45677655 77.40378401 1.78686145 79.73339844 2.14526367 C80.22839844 4.12526367 80.22839844 4.12526367 80.73339844 6.14526367 C81.39339844 6.14526367 82.05339844 6.14526367 82.73339844 6.14526367 C83.22839844 8.62026367 83.22839844 8.62026367 83.73339844 11.14526367 C84.39339844 11.14526367 85.05339844 11.14526367 85.73339844 11.14526367 C86.22839844 14.11526367 86.22839844 14.11526367 86.73339844 17.14526367 C88.21839844 17.64026367 88.21839844 17.64026367 89.73339844 18.14526367 C91.73339844 21.14526367 91.73339844 21.14526367 91.73339844 25.14526367 C93.21839844 25.64026367 93.21839844 25.64026367 94.73339844 26.14526367 C95.76825721 28.46334731 96.76893984 30.79701665 97.73339844 33.14526367 C98.39339844 33.47526367 99.05339844 33.80526367 99.73339844 34.14526367 C100.35839844 36.70776367 100.35839844 36.70776367 100.73339844 39.14526367 C101.39339844 39.14526367 102.05339844 39.14526367 102.73339844 39.14526367 C103.40459393 40.60151817 104.07021651 42.06034234 104.73339844 43.52026367 C105.10464844 44.33237305 105.47589844 45.14448242 105.85839844 45.98120117 C106.73339844 48.14526367 106.73339844 48.14526367 106.73339844 50.14526367 C107.39339844 50.14526367 108.05339844 50.14526367 108.73339844 50.14526367 C109.16652344 51.07338867 109.59964844 52.00151367 110.04589844 52.95776367 C111.48309721 56.07338785 111.48309721 56.07338785 113.42089844 57.77026367 C114.73339844 59.14526367 114.73339844 59.14526367 114.73339844 63.14526367 C115.39339844 63.14526367 116.05339844 63.14526367 116.73339844 63.14526367 C117.06339844 64.46526367 117.39339844 65.78526367 117.73339844 67.14526367 C118.39339844 67.14526367 119.05339844 67.14526367 119.73339844 67.14526367 C121.54582166 71.16411517 123.06841461 74.75637042 123.73339844 79.14526367 C124.39339844 79.14526367 125.05339844 79.14526367 125.73339844 79.14526367 C125.73339844 80.13526367 125.73339844 81.12526367 125.73339844 82.14526367 C126.72339844 82.14526367 127.71339844 82.14526367 128.73339844 82.14526367 C129.06339844 84.12526367 129.39339844 86.10526367 129.73339844 88.14526367 C130.39339844 88.14526367 131.05339844 88.14526367 131.73339844 88.14526367 C133.77509329 91.05075249 134.73339844 92.54668413 134.73339844 96.14526367 C135.39339844 96.14526367 136.05339844 96.14526367 136.73339844 96.14526367 C137.12011719 96.85811523 137.50683594 97.5709668 137.90527344 98.30541992 C138.42605469 99.26319336 138.94683594 100.2209668 139.48339844 101.20776367 C140.02738281 102.20936523 140.57136719 103.2109668 141.13183594 104.24291992 C142.41737031 106.57255903 143.74342818 108.86212998 145.10839844 111.14526367 C146.73339844 114.14526367 146.73339844 114.14526367 146.73339844 117.14526367 C147.39339844 117.14526367 148.05339844 117.14526367 148.73339844 117.14526367 C149.06339844 118.79526367 149.39339844 120.44526367 149.73339844 122.14526367 C150.39339844 122.14526367 151.05339844 122.14526367 151.73339844 122.14526367 C152.06339844 124.45526367 152.39339844 126.76526367 152.73339844 129.14526367 C148.80629968 131.05901289 146.4824011 131.25775723 142.23339844 130.33276367 C141.31558594 130.14069336 140.39777344 129.94862305 139.45214844 129.75073242 C138.10636719 129.45102539 138.10636719 129.45102539 136.73339844 129.14526367 C135.06735076 128.8088502 133.40087343 128.47452957 131.73339844 128.14526367 C131.73339844 127.48526367 131.73339844 126.82526367 131.73339844 126.14526367 C131.09273437 126.15686523 130.45207031 126.1684668 129.79199219 126.18041992 C124.64686621 126.23409486 119.8031492 126.02695946 114.73339844 125.14526367 C114.73339844 124.48526367 114.73339844 123.82526367 114.73339844 123.14526367 C114.03988281 123.32831055 113.34636719 123.51135742 112.63183594 123.69995117 C109.28426021 124.21426874 106.69051072 123.84804086 103.35839844 123.27026367 C102.20855469 123.0769043 101.05871094 122.88354492 99.87402344 122.68432617 C98.31941406 122.41749023 98.31941406 122.41749023 96.73339844 122.14526367 C95.53714844 121.98026367 94.34089844 121.81526367 93.10839844 121.64526367 C79.78603002 119.67157946 79.78603002 119.67157946 76.73339844 118.14526367 C75.34137949 117.96665432 73.94436457 117.8257066 72.54589844 117.70776367 C68.37286053 117.26956098 64.6707312 116.62176346 60.73339844 115.14526367 C60.40339844 114.15526367 60.07339844 113.16526367 59.73339844 112.14526367 C59.07339844 112.14526367 58.41339844 112.14526367 57.73339844 112.14526367 C57.73339844 110.82526367 57.73339844 109.50526367 57.73339844 108.14526367 C56.74339844 107.81526367 55.75339844 107.48526367 54.73339844 107.14526367 C54.40339844 105.49526367 54.07339844 103.84526367 53.73339844 102.14526367 C53.07339844 102.14526367 52.41339844 102.14526367 51.73339844 102.14526367 C51.48589844 101.25838867 51.23839844 100.37151367 50.98339844 99.45776367 C49.6907497 96.03224452 48.01693602 93.96162669 45.73339844 91.14526367 C45.73339844 90.15526367 45.73339844 89.16526367 45.73339844 88.14526367 C45.07339844 88.14526367 44.41339844 88.14526367 43.73339844 88.14526367 C39.73339844 81.64526367 39.73339844 81.64526367 39.73339844 77.14526367 C38.74339844 77.14526367 37.75339844 77.14526367 36.73339844 77.14526367 C36.73339844 75.49526367 36.73339844 73.84526367 36.73339844 72.14526367 C36.07339844 72.14526367 35.41339844 72.14526367 34.73339844 72.14526367 C34.40339844 71.15526367 34.07339844 70.16526367 33.73339844 69.14526367 C32.74339844 68.65026367 32.74339844 68.65026367 31.73339844 68.14526367 C31.10839844 65.58276367 31.10839844 65.58276367 30.73339844 63.14526367 C30.07339844 63.14526367 29.41339844 63.14526367 28.73339844 63.14526367 C28.17652344 62.15526367 27.61964844 61.16526367 27.04589844 60.14526367 C25.06355458 56.64951751 22.90910655 53.28940239 20.68652344 49.94213867 C19.73339844 48.14526367 19.73339844 48.14526367 19.73339844 45.14526367 C19.07339844 45.14526367 18.41339844 45.14526367 17.73339844 45.14526367 C17.23839844 42.67026367 17.23839844 42.67026367 16.73339844 40.14526367 C16.07339844 40.14526367 15.41339844 40.14526367 14.73339844 40.14526367 C12.71557112 37.23959233 11.37845439 34.62856583 10.73339844 31.14526367 C10.07339844 31.14526367 9.41339844 31.14526367 8.73339844 31.14526367 C8.40339844 29.49526367 8.07339844 27.84526367 7.73339844 26.14526367 C7.07339844 26.14526367 6.41339844 26.14526367 5.73339844 26.14526367 C5.73339844 25.15526367 5.73339844 24.16526367 5.73339844 23.14526367 C5.07339844 23.14526367 4.41339844 23.14526367 3.73339844 23.14526367 C3.40339844 21.16526367 3.07339844 19.18526367 2.73339844 17.14526367 C2.07339844 17.14526367 1.41339844 17.14526367 0.73339844 17.14526367 C0.40339844 15.49526367 0.07339844 13.84526367 -0.26660156 12.14526367 C-1.25660156 11.81526367 -2.24660156 11.48526367 -3.26660156 11.14526367 C-3.26660156 9.49526367 -3.26660156 7.84526367 -3.26660156 6.14526367 C-4.25660156 6.14526367 -5.24660156 6.14526367 -6.26660156 6.14526367 C-6.30932256 4.47914462 -6.30723988 2.81143482 -6.26660156 1.14526367 C-4.55747797 -0.56385992 -2.33526405 0.00894361 0 0 Z " fill="#FCFCFC" transform="translate(324.2666015625,321.854736328125)"/>
<path d="M0 0 C3.79376218 3.88408985 8 8.36936073 8 14 C8.66 14 9.32 14 10 14 C14.74999161 20.38234167 18.03721749 27.9509912 21.484375 35.09375 C22.83169662 38.03169788 22.83169662 38.03169788 25 40 C25 40.99 25 41.98 25 43 C25.66 43 26.32 43 27 43 C27.495 45.475 27.495 45.475 28 48 C28.66 48 29.32 48 30 48 C34.57142857 55.28571429 34.57142857 55.28571429 34 60 C34.66 60 35.32 60 36 60 C36 62.31 36 64.62 36 67 C35.34 67 34.68 67 34 67 C34 67.66 34 68.32 34 69 C8.92 69 -16.16 69 -42 69 C-42 68.34 -42 67.68 -42 67 C-42.66 67 -43.32 67 -44 67 C-44.3913152 62.54063718 -43.21759262 60.02208724 -41 56.1875 C-40.443125 55.21167969 -39.88625 54.23585938 -39.3125 53.23046875 C-38.6628125 52.12638672 -38.6628125 52.12638672 -38 51 C-37.34 51 -36.68 51 -36 51 C-35.87625 49.9171875 -35.87625 49.9171875 -35.75 48.8125 C-34.83722393 45.38958972 -33.26087365 43.71304837 -31 41 C-29.58626643 38.70448007 -28.29814617 36.36448052 -27 34 C-26.34 34 -25.68 34 -25 34 C-24.67 32.02 -24.34 30.04 -24 28 C-23.34 28 -22.68 28 -22 28 C-21.67 26.35 -21.34 24.7 -21 23 C-20.34 23 -19.68 23 -19 23 C-18.896875 22.319375 -18.79375 21.63875 -18.6875 20.9375 C-17.85274981 17.37084011 -16.50527246 14.33777806 -15 11 C-14.34 11 -13.68 11 -13 11 C-12.71125 10.236875 -12.4225 9.47375 -12.125 8.6875 C-11 6 -11 6 -9 3 C-8.34 3 -7.68 3 -7 3 C-7 2.34 -7 1.68 -7 1 C-4.32590305 -0.33704848 -2.97186266 -0.4837916 0 0 Z " fill="#06FBD2" transform="translate(360,247)"/>
<path d="M0 0 C3.79376218 3.88408985 8 8.36936073 8 14 C8.66 14 9.32 14 10 14 C14.74999161 20.38234167 18.03721749 27.9509912 21.484375 35.09375 C22.83169662 38.03169788 22.83169662 38.03169788 25 40 C25 40.99 25 41.98 25 43 C25.66 43 26.32 43 27 43 C27.495 45.475 27.495 45.475 28 48 C28.66 48 29.32 48 30 48 C34.57142857 55.28571429 34.57142857 55.28571429 34 60 C34.66 60 35.32 60 36 60 C36 62.31 36 64.62 36 67 C35.34 67 34.68 67 34 67 C34 67.66 34 68.32 34 69 C8.92 69 -16.16 69 -42 69 C-42 68.34 -42 67.68 -42 67 C-42.66 67 -43.32 67 -44 67 C-44.3913152 62.54063718 -43.21759262 60.02208724 -41 56.1875 C-40.443125 55.21167969 -39.88625 54.23585938 -39.3125 53.23046875 C-38.6628125 52.12638672 -38.6628125 52.12638672 -38 51 C-37.34 51 -36.68 51 -36 51 C-35.87625 49.9171875 -35.87625 49.9171875 -35.75 48.8125 C-34.83722393 45.38958972 -33.26087365 43.71304837 -31 41 C-29.58626643 38.70448007 -28.29814617 36.36448052 -27 34 C-26.34 34 -25.68 34 -25 34 C-24.67 32.02 -24.34 30.04 -24 28 C-23.34 28 -22.68 28 -22 28 C-21.67 26.35 -21.34 24.7 -21 23 C-20.34 23 -19.68 23 -19 23 C-18.896875 22.319375 -18.79375 21.63875 -18.6875 20.9375 C-17.85274981 17.37084011 -16.50527246 14.33777806 -15 11 C-14.34 11 -13.68 11 -13 11 C-12.71125 10.236875 -12.4225 9.47375 -12.125 8.6875 C-11 6 -11 6 -9 3 C-8.34 3 -7.68 3 -7 3 C-7 2.34 -7 1.68 -7 1 C-4.32590305 -0.33704848 -2.97186266 -0.4837916 0 0 Z M-9 10 C-9.86965506 12.12946603 -9.86965506 12.12946603 -10 14 C-10.66 14 -11.32 14 -12 14 C-12 14.99 -12 15.98 -12 17 C-12.639375 17.226875 -13.27875 17.45375 -13.9375 17.6875 C-16.27193661 18.85250896 -16.27193661 18.85250896 -16.75 21.625 C-16.8325 22.40875 -16.915 23.1925 -17 24 C-17.66 24 -18.32 24 -19 24 C-19 25.98 -19 27.96 -19 30 C-20.65 30.33 -22.3 30.66 -24 31 C-23.67 32.65 -23.34 34.3 -23 36 C-23.99 36.33 -24.98 36.66 -26 37 C-26.70491267 39.32206525 -27.37212429 41.65593068 -28 44 C-28.99 44.495 -28.99 44.495 -30 45 C-30.309375 45.61875 -30.61875 46.2375 -30.9375 46.875 C-32 49 -32 49 -33.5 50.375 C-35.58030946 52.62866858 -36.07673291 55.10709646 -37 58 C-37.66 58.66 -38.32 59.32 -39 60 C-39 61.65 -39 63.3 -39 65 C-15.57 65 7.86 65 32 65 C30.77783446 57.19921651 30.77783446 57.19921651 28 50 C25.98264795 48.65589738 25.98264795 48.65589738 24 48 C24 47.01 24 46.02 24 45 C23.34 45 22.68 45 22 45 C21.34 43.35 20.68 41.7 20 40 C19.34 40 18.68 40 18 40 C17.505 38.02 17.505 38.02 17 36 C16.34 36 15.68 36 15 36 C15 34.35 15 32.7 15 31 C14.34 30.67 13.68 30.34 13 30 C12.27544365 28.35767228 11.62225605 26.68375165 11 25 C10.46474166 23.7264543 9.9229052 22.45565616 9.375 21.1875 C8.92125 20.135625 8.4675 19.08375 8 18 C7.34 18 6.68 18 6 18 C5.505 16.02 5.505 16.02 5 14 C4.34 14 3.68 14 3 14 C2.566875 12.8553125 2.566875 12.8553125 2.125 11.6875 C1.03730987 8.84970692 1.03730987 8.84970692 -1 6 C-4.97054597 6 -6.16471244 7.3139381 -9 10 Z " fill="#238D7A" transform="translate(360,247)"/>
<path d="M0 0 C1.12496887 -0.00637985 2.24993774 -0.0127597 3.40899658 -0.01933289 C5.24793488 -0.02100212 5.24793488 -0.02100212 7.12402344 -0.02270508 C8.37592468 -0.02603348 9.62782593 -0.02936188 10.91766357 -0.03279114 C13.57421403 -0.03786689 16.23066228 -0.04063038 18.88720703 -0.04003906 C22.28453216 -0.03993774 25.68164689 -0.05355539 29.07892227 -0.07081127 C32.32311473 -0.0846402 35.5673055 -0.08402125 38.81152344 -0.08520508 C40.63831635 -0.09598335 40.63831635 -0.09598335 42.50201416 -0.10697937 C44.20838043 -0.10236443 44.20838043 -0.10236443 45.94921875 -0.09765625 C47.44693817 -0.09979378 47.44693817 -0.09979378 48.97491455 -0.10197449 C51.89996132 0.16019242 54.07775054 0.92228388 56.73339844 2.14526367 C56.73339844 1.48526367 56.73339844 0.82526367 56.73339844 0.14526367 C60.8798278 0.04653916 64.65442951 0.43587777 68.73339844 1.14526367 C70.05339844 1.14526367 71.37339844 1.14526367 72.73339844 1.14526367 C75.06974501 1.45677655 77.40378401 1.78686145 79.73339844 2.14526367 C80.22839844 4.12526367 80.22839844 4.12526367 80.73339844 6.14526367 C81.39339844 6.14526367 82.05339844 6.14526367 82.73339844 6.14526367 C83.22839844 8.62026367 83.22839844 8.62026367 83.73339844 11.14526367 C84.39339844 11.14526367 85.05339844 11.14526367 85.73339844 11.14526367 C86.22839844 14.11526367 86.22839844 14.11526367 86.73339844 17.14526367 C88.21839844 17.64026367 88.21839844 17.64026367 89.73339844 18.14526367 C91.73339844 21.14526367 91.73339844 21.14526367 91.73339844 25.14526367 C93.21839844 25.64026367 93.21839844 25.64026367 94.73339844 26.14526367 C95.92089844 29.20776367 95.92089844 29.20776367 96.73339844 32.14526367 C94.75339844 32.14526367 92.77339844 32.14526367 90.73339844 32.14526367 C90.60964844 31.03151367 90.48589844 29.91776367 90.35839844 28.77026367 C90.08681713 25.1142269 90.08681713 25.1142269 87.73339844 23.14526367 C87.73339844 22.15526367 87.73339844 21.16526367 87.73339844 20.14526367 C87.07339844 20.14526367 86.41339844 20.14526367 85.73339844 20.14526367 C84.74339844 16.18526367 84.74339844 16.18526367 83.73339844 12.14526367 C83.07339844 12.14526367 82.41339844 12.14526367 81.73339844 12.14526367 C81.73339844 11.48526367 81.73339844 10.82526367 81.73339844 10.14526367 C80.74339844 9.81526367 79.75339844 9.48526367 78.73339844 9.14526367 C78.23839844 7.66026367 78.23839844 7.66026367 77.73339844 6.14526367 C78.06339844 5.48526367 78.39339844 4.82526367 78.73339844 4.14526367 C68.72839154 4.12212604 58.72339098 4.10434131 48.71836281 4.0934515 C44.07297447 4.08822579 39.42760439 4.08113378 34.78222656 4.06982422 C30.30187169 4.05898428 25.82153442 4.05298448 21.34116745 4.05038643 C19.62909035 4.04853418 17.91701425 4.04491739 16.20494461 4.03953362 C13.81287785 4.03230853 11.42088446 4.03127336 9.02880859 4.03173828 C8.31599228 4.02814301 7.60317596 4.02454773 6.86875916 4.02084351 C3.17726074 3.97774091 3.17726074 3.97774091 -0.26660156 5.14526367 C-0.26660156 7.45526367 -0.26660156 9.76526367 -0.26660156 12.14526367 C-1.25660156 11.81526367 -2.24660156 11.48526367 -3.26660156 11.14526367 C-3.26660156 9.49526367 -3.26660156 7.84526367 -3.26660156 6.14526367 C-4.25660156 6.14526367 -5.24660156 6.14526367 -6.26660156 6.14526367 C-6.30932256 4.47914462 -6.30723988 2.81143482 -6.26660156 1.14526367 C-4.55747797 -0.56385992 -2.33526405 0.00894361 0 0 Z " fill="#5A5A5A" transform="translate(324.2666015625,321.854736328125)"/>
<path d="M0 0 C1 2 1 2 0.44140625 3.76953125 C0.15136719 4.44371094 -0.13867188 5.11789062 -0.4375 5.8125 C-1.7238999 9.02265248 -2.32835824 11.49751214 -2 15 C-3.32 15.33 -4.64 15.66 -6 16 C-5.34 16.99 -4.68 17.98 -4 19 C-1.45647152 19.43914933 -1.45647152 19.43914933 1.55126953 19.34057617 C2.71232208 19.34034958 3.87337463 19.34012299 5.0696106 19.33988953 C6.95714554 19.31666374 6.95714554 19.31666374 8.8828125 19.29296875 C10.16735321 19.28872391 11.45189392 19.28447906 12.77536011 19.28010559 C16.19172641 19.2686468 19.60771056 19.23917143 23.02392578 19.20599365 C26.50938751 19.17531462 29.99491094 19.16160494 33.48046875 19.14648438 C40.32046957 19.11430221 47.16021644 19.06309376 54 19 C53.34414811 15.39007621 53.34414811 15.39007621 52 12 C52.33 11.34 52.66 10.68 53 10 C52.34 10 51.68 10 51 10 C50.505 7.525 50.505 7.525 50 5 C52.8125 5.8125 52.8125 5.8125 56 8 C57.88896923 12.50446509 59 17.11281876 59 22 C35.57 22 12.14 22 -12 22 C-11.67 19.69 -11.34 17.38 -11 15 C-10.34 14.67 -9.68 14.34 -9 14 C-8.690625 12.865625 -8.38125 11.73125 -8.0625 10.5625 C-7 7 -7 7 -4 5 C-3.34 4.01 -2.68 3.02 -2 2 C-1.34 1.34 -0.68 0.68 0 0 Z " fill="#26ECCB" transform="translate(333,290)"/>
<path d="M0 0 C2.75060827 1.41966878 3.60246079 3.26316962 4.9375 6 C4.9375 6.66 4.9375 7.32 4.9375 8 C5.5975 8 6.2575 8 6.9375 8 C7.2675 9.32 7.5975 10.64 7.9375 12 C8.5975 12 9.2575 12 9.9375 12 C10.4325 14.97 10.4325 14.97 10.9375 18 C8.2975 17.34 5.6575 16.68 2.9375 16 C2.9375 14.02 2.9375 12.04 2.9375 10 C1.2875 10.99 -0.3625 11.98 -2.0625 13 C-3.0525 12.34 -4.0425 11.68 -5.0625 11 C-4.8459375 12.0828125 -4.8459375 12.0828125 -4.625 13.1875 C-5.0625 16 -5.0625 16 -6.48046875 17.19921875 C-7.73442367 18.00399579 -8.9910754 18.80458201 -10.25 19.6015625 C-12.26300553 21.15470038 -13.14253804 22.51061968 -14.3125 24.75 C-16.0625 28 -16.0625 28 -19.0625 29 C-20.28119929 31.50447516 -20.28119929 31.50447516 -21.0625 34 C-21.7225 34 -22.3825 34 -23.0625 34 C-23.3925 34.99 -23.7225 35.98 -24.0625 37 C-24.0625 35.02 -24.0625 33.04 -24.0625 31 C-23.0725 30.67 -22.0825 30.34 -21.0625 30 C-21.3925 28.35 -21.7225 26.7 -22.0625 25 C-20.4125 24.67 -18.7625 24.34 -17.0625 24 C-17.0625 22.02 -17.0625 20.04 -17.0625 18 C-16.4025 18 -15.7425 18 -15.0625 18 C-14.98 17.21625 -14.8975 16.4325 -14.8125 15.625 C-14.0625 13 -14.0625 13 -12 11.6875 C-11.360625 11.460625 -10.72125 11.23375 -10.0625 11 C-10.0625 10.01 -10.0625 9.02 -10.0625 8 C-9.4025 8 -8.7425 8 -8.0625 8 C-7.815 7.236875 -7.5675 6.47375 -7.3125 5.6875 C-5.69626808 2.21260138 -4.03657699 0 0 0 Z " fill="#18F1CC" transform="translate(358.0625,253)"/>
<path d="M0 0 C0.66 0 1.32 0 2 0 C2 2.31 2 4.62 2 7 C1.34 7 0.68 7 0 7 C0 7.66 0 8.32 0 9 C0.66 9 1.32 9 2 9 C1.67 10.32 1.34 11.64 1 13 C0.01 13 -0.98 13 -2 13 C-2.33 13.66 -2.66 14.32 -3 15 C-3.66 15 -4.32 15 -5 15 C-5.33 16.65 -5.66 18.3 -6 20 C-6.66 20 -7.32 20 -8 20 C-8.66 21.32 -9.32 22.64 -10 24 C-10.66 24 -11.32 24 -12 24 C-12.33 25.98 -12.66 27.96 -13 30 C-13.66 30 -14.32 30 -15 30 C-15.33 31.65 -15.66 33.3 -16 35 C-16.66 35 -17.32 35 -18 35 C-18.433125 36.546875 -18.433125 36.546875 -18.875 38.125 C-21.49644128 47.24466192 -21.49644128 47.24466192 -24 51 C-24.66 51 -25.32 51 -26 51 C-26 51.66 -26 52.32 -26 53 C-26.66 53 -27.32 53 -28 53 C-27.896875 53.928125 -27.79375 54.85625 -27.6875 55.8125 C-27.790625 56.864375 -27.89375 57.91625 -28 59 C-30.38892501 60.88599343 -31.91851558 62 -35 62 C-33.64191648 56.83928262 -31.15031499 52.74292191 -28.33984375 48.26953125 C-26.87096434 45.96285499 -26.87096434 45.96285499 -26 43 C-25.34 43 -24.68 43 -24 43 C-23.67 41.35 -23.34 39.7 -23 38 C-22.34 38 -21.68 38 -21 38 C-20.87625 37.360625 -20.7525 36.72125 -20.625 36.0625 C-20.41875 35.381875 -20.2125 34.70125 -20 34 C-19.01 33.505 -19.01 33.505 -18 33 C-17.04315593 31.22774958 -17.04315593 31.22774958 -16.1875 29.0625 C-14.66059529 25.49972235 -13.07452208 21.98427093 -11.375 18.5 C-10.97023437 17.6646875 -10.56546875 16.829375 -10.1484375 15.96875 C-9 14 -9 14 -7 13 C-5.98039022 11.2882904 -5.98039022 11.2882904 -5.0625 9.25 C-1.98206402 2.88300221 -1.98206402 2.88300221 0 0 Z " fill="#525252" transform="translate(236,282)"/>
<path d="M0 0 C0 0.66 0 1.32 0 2 C-0.66 2 -1.32 2 -2 2 C-2.33 3.32 -2.66 4.64 -3 6 C-3.66 6 -4.32 6 -5 6 C-5.33 7.65 -5.66 9.3 -6 11 C-6.66 11 -7.32 11 -8 11 C-8.33 12.98 -8.66 14.96 -9 17 C-9.66 17 -10.32 17 -11 17 C-11.33 18.65 -11.66 20.3 -12 22 C-12.66 22 -13.32 22 -14 22 C-14.12375 22.7425 -14.2475 23.485 -14.375 24.25 C-14.96120466 26.82930049 -15.63284555 28.7482162 -17 31 C-17.66 31.33 -18.32 31.66 -19 32 C-19.33 32.99 -19.66 33.98 -20 35 C-20.66 35 -21.32 35 -22 35 C-21.45276317 31.62537285 -20.9451 29.91765 -19 27 C-19 25.68 -19 24.36 -19 23 C-18.01 23 -17.02 23 -16 23 C-15.67 21.35 -15.34 19.7 -15 18 C-15.66 18 -16.32 18 -17 18 C-16.67 17.01 -16.34 16.02 -16 15 C-14.68 15 -13.36 15 -12 15 C-12.33 14.01 -12.66 13.02 -13 12 C-13.57289003 5.69820972 -13.57289003 5.69820972 -11 2.5625 C-10.34 2.046875 -9.68 1.53125 -9 1 C-7 2 -7 2 -4 4 C-4 3.01 -4 2.02 -4 1 C-2 0 -2 0 0 0 Z " fill="#F6F6F7" transform="translate(313,299)"/>
<path d="M0 0 C4.14642936 -0.09872451 7.92103107 0.2906141 12 1 C13.32 1 14.64 1 16 1 C18.33634657 1.31151288 20.67038557 1.64159778 23 2 C23.33 3.32 23.66 4.64 24 6 C24.66 6 25.32 6 26 6 C26.33 7.65 26.66 9.3 27 11 C27.66 11 28.32 11 29 11 C29.33 12.98 29.66 14.96 30 17 C30.99 17.33 31.98 17.66 33 18 C35 21 35 21 35 25 C35.99 25.33 36.98 25.66 38 26 C39.1875 29.0625 39.1875 29.0625 40 32 C38.02 32 36.04 32 34 32 C33.87625 30.88625 33.7525 29.7725 33.625 28.625 C33.3534187 24.96896323 33.3534187 24.96896323 31 23 C31 22.01 31 21.02 31 20 C30.34 20 29.68 20 29 20 C28.34 17.36 27.68 14.72 27 12 C26.34 12 25.68 12 25 12 C25 11.34 25 10.68 25 10 C24.01 9.67 23.02 9.34 22 9 C21.67 8.01 21.34 7.02 21 6 C21.33 5.34 21.66 4.68 22 4 C20.99839844 4.01160156 19.99679687 4.02320313 18.96484375 4.03515625 C17.62239772 4.04454398 16.27994964 4.05364312 14.9375 4.0625 C12.97103516 4.07990234 12.97103516 4.07990234 10.96484375 4.09765625 C7.1836481 4.00452335 3.72079293 3.61448726 0 3 C0 2.01 0 1.02 0 0 Z " fill="#8E8E8E" transform="translate(381,322)"/>
<path d="M0 0 C6.86989051 5.85961249 11.05704488 14.25670196 13 23 C13.66 23 14.32 23 15 23 C16.23921302 25.97411124 17.30058404 28.85262818 18 32 C18.66 32 19.32 32 20 32 C20.50615298 33.26839526 21.00469099 34.53983102 21.5 35.8125 C21.7784375 36.52019531 22.056875 37.22789062 22.34375 37.95703125 C23 40 23 40 23 43 C23.66 43 24.32 43 25 43 C25 43.66 25 44.32 25 45 C23.125 44.8125 23.125 44.8125 21 44 C19.875 41.5 19.875 41.5 19 39 C18.34 38.67 17.68 38.34 17 38 C16.27544365 36.35767228 15.62225605 34.68375165 15 33 C14.46375 31.824375 13.9275 30.64875 13.375 29.4375 C12 26 12 26 12 22 C11.34 22 10.68 22 10 22 C9.67 20.35 9.34 18.7 9 17 C8.01 16.67 7.02 16.34 6 16 C6 14.35 6 12.7 6 11 C5.34 11 4.68 11 4 11 C3.67 9.02 3.34 7.04 3 5 C2.34 5 1.68 5 1 5 C0.67 3.35 0.34 1.7 0 0 Z " fill="#767676" transform="translate(313,161)"/>
<path d="M0 0 C0.66 0 1.32 0 2 0 C1.67 1.98 1.34 3.96 1 6 C0.34 6 -0.32 6 -1 6 C-1 6.66 -1 7.32 -1 8 C-1.66 8 -2.32 8 -3 8 C-2.67 9.98 -2.34 11.96 -2 14 C34.63 14.495 34.63 14.495 72 15 C72 13.68 72 12.36 72 11 C72.66 11 73.32 11 74 11 C74 12.65 74 14.3 74 16 C47.6 16 21.2 16 -6 16 C-6 10.88273853 -5.45767542 9.43723041 -3 5.1875 C-2.443125 4.21167969 -1.88625 3.23585938 -1.3125 2.23046875 C-0.879375 1.49441406 -0.44625 0.75835937 0 0 Z " fill="#3FBFA9" transform="translate(322,298)"/>
<path d="M0 0 C1.33146198 2.66292396 0.74041344 3.69423853 -0.125 6.5 C-1.59713855 10.76577823 -1.59713855 10.76577823 -4.6875 12.5625 C-5.8321875 12.7790625 -5.8321875 12.7790625 -7 13 C-7.12375 14.051875 -7.2475 15.10375 -7.375 16.1875 C-7.91651644 19.4907503 -8.44131127 22.05581017 -10 25 C-10.99 25.33 -11.98 25.66 -13 26 C-14.21869929 28.50447516 -14.21869929 28.50447516 -15 31 C-15.66 31 -16.32 31 -17 31 C-17.33 31.99 -17.66 32.98 -18 34 C-18 32.02 -18 30.04 -18 28 C-17.01 27.67 -16.02 27.34 -15 27 C-15.33 25.35 -15.66 23.7 -16 22 C-14.35 21.67 -12.7 21.34 -11 21 C-11 19.02 -11 17.04 -11 15 C-10.34 15 -9.68 15 -9 15 C-8.9175 14.21625 -8.835 13.4325 -8.75 12.625 C-8 10 -8 10 -5.9375 8.6875 C-5.298125 8.460625 -4.65875 8.23375 -4 8 C-4 7.01 -4 6.02 -4 5 C-3.34 5 -2.68 5 -2 5 C-1.34 3.35 -0.68 1.7 0 0 Z " fill="#2BE6C3" transform="translate(352,256)"/>
<path d="M0 0 C0 0.66 0 1.32 0 2 C-0.61875 2.061875 -1.2375 2.12375 -1.875 2.1875 C-4.27761141 2.828919 -4.27761141 2.828919 -5.25 5.5625 C-5.4975 6.366875 -5.745 7.17125 -6 8 C-6.66 8 -7.32 8 -8 8 C-8.33 9.65 -8.66 11.3 -9 13 C-9.66 13 -10.32 13 -11 13 C-11.66 15.97 -12.32 18.94 -13 22 C-13.66 22 -14.32 22 -15 22 C-15.33 24.64 -15.66 27.28 -16 30 C-16.99 30.33 -17.98 30.66 -19 31 C-19 31.66 -19 32.32 -19 33 C-19.66 33 -20.32 33 -21 33 C-21 33.66 -21 34.32 -21 35 C-21.66 35 -22.32 35 -23 35 C-23.33 36.32 -23.66 37.64 -24 39 C-24.66 39 -25.32 39 -26 39 C-25.49396008 36.83125748 -25.00016187 35.00032373 -24 33 C-23.34 33 -22.68 33 -22 33 C-21.938125 32.319375 -21.87625 31.63875 -21.8125 30.9375 C-21.02777248 28.10040821 -20.30634481 26.8971272 -18.5625 24.625 C-15.94672962 21.18518635 -14.94241408 18.19802637 -14 14 C-13.34 14 -12.68 14 -12 14 C-11.90332031 13.27425781 -11.80664062 12.54851562 -11.70703125 11.80078125 C-10.9004237 8.6055458 -9.69785147 6.78330715 -7.6875 4.1875 C-7.09324219 3.39730469 -6.49898438 2.60710937 -5.88671875 1.79296875 C-4 0 -4 0 0 0 Z " fill="#888888" transform="translate(313,159)"/>
<path d="M0 0 C0.99 0 1.98 0 3 0 C3 0.99 3 1.98 3 3 C2.34 3 1.68 3 1 3 C0.896875 3.721875 0.79375 4.44375 0.6875 5.1875 C-0.06793947 8.27793421 -1.15531315 10.41743841 -3 13 C-3.66 13 -4.32 13 -5 13 C-5 13.99 -5 14.98 -5 16 C-6.31200404 17.35432675 -7.64631404 18.68733482 -9 20 C-9.33 20.99 -9.66 21.98 -10 23 C-10.66 23 -11.32 23 -12 23 C-12 24.98 -12 26.96 -12 29 C-13.65 29.33 -15.3 29.66 -17 30 C-17 29.01 -17 28.02 -17 27 C-16.34 27 -15.68 27 -15 27 C-14.67 25.35 -14.34 23.7 -14 22 C-13.34 22 -12.68 22 -12 22 C-11.896875 21.319375 -11.79375 20.63875 -11.6875 19.9375 C-10.85274981 16.37084011 -9.50527246 13.33777806 -8 10 C-7.34 10 -6.68 10 -6 10 C-5.71125 9.236875 -5.4225 8.47375 -5.125 7.6875 C-4 5 -4 5 -2 2 C-1.34 2 -0.68 2 0 2 C0 1.34 0 0.68 0 0 Z " fill="#309984" transform="translate(353,248)"/>
<path d="M0 0 C2.1875 -0.375 2.1875 -0.375 5 0 C6.9510561 1.99750982 8.4352564 3.74160718 10 6 C10.8971875 7.2065625 10.8971875 7.2065625 11.8125 8.4375 C13.34291519 11.73997489 13.21146391 14.40511356 13 18 C12.34 18 11.68 18 11 18 C10.67 16.68 10.34 15.36 10 14 C9.34 14 8.68 14 8 14 C6.02 10.535 6.02 10.535 4 7 C1.83125748 7.50603992 0.00032373 7.99983813 -2 9 C-1.67 7.35 -1.34 5.7 -1 4 C-0.34 4 0.32 4 1 4 C0.67 2.68 0.34 1.36 0 0 Z " fill="#41D7B9" transform="translate(355,247)"/>
<path d="M0 0 C1.5 1.3125 1.5 1.3125 3 3 C3 3.99 3 4.98 3 6 C3.66 6 4.32 6 5 6 C5.33 7.65 5.66 9.3 6 11 C6.66 11 7.32 11 8 11 C8.33 13.31 8.66 15.62 9 18 C5.07290124 19.91374922 2.74900266 20.11249356 -1.5 19.1875 C-2.87671875 18.89939453 -2.87671875 18.89939453 -4.28125 18.60546875 C-5.1784375 18.40566406 -6.075625 18.20585937 -7 18 C-8.66604768 17.66358653 -10.33252501 17.3292659 -12 17 C-12 16.34 -12 15.68 -12 15 C-7.4473486 14.92283642 -3.455053 15.00998822 1 16 C2.32 16 3.64 16 5 16 C4.34 13.03 3.68 10.06 3 7 C2.34 7 1.68 7 1 7 C0.67 4.69 0.34 2.38 0 0 Z " fill="#8B8B8B" transform="translate(468,433)"/>
<path d="M0 0 C0.66 0 1.32 0 2 0 C2.433125 0.928125 2.86625 1.85625 3.3125 2.8125 C4.74969877 5.92812418 4.74969877 5.92812418 6.6875 7.625 C8 9 8 9 8 13 C8.66 13 9.32 13 10 13 C10.33 14.32 10.66 15.64 11 17 C11.66 17 12.32 17 13 17 C13.33 18.98 13.66 20.96 14 23 C12.68 22.67 11.36 22.34 10 22 C10 21.01 10 20.02 10 19 C9.34 19 8.68 19 8 19 C8 18.34 8 17.68 8 17 C7.34 16.67 6.68 16.34 6 16 C6 14.35 6 12.7 6 11 C4.02 11.66 2.04 12.32 0 13 C0 8.71 0 4.42 0 0 Z " fill="#858585" transform="translate(431,372)"/>
<path d="M0 0 C0.66 0 1.32 0 2 0 C2 0.66 2 1.32 2 2 C2.804375 2.12375 3.60875 2.2475 4.4375 2.375 C5.7059375 2.684375 5.7059375 2.684375 7 3 C7.33 3.66 7.66 4.32 8 5 C8.66 5 9.32 5 10 5 C10 7.97 10 10.94 10 14 C10.66 14 11.32 14 12 14 C12.33 15.98 12.66 17.96 13 20 C11.68 19.67 10.36 19.34 9 19 C8.67 17.35 8.34 15.7 8 14 C7.34 14 6.68 14 6 14 C5.7525 13.113125 5.505 12.22625 5.25 11.3125 C3.95735126 7.88698085 2.28353758 5.81636302 0 3 C0 2.01 0 1.02 0 0 Z " fill="#E3E3E3" transform="translate(370,410)"/>
<path d="M0 0 C0.66 0.33 1.32 0.66 2 1 C1.45276317 4.37462715 0.9451 6.08235 -1 9 C-1.66 9 -2.32 9 -3 9 C-3 9.66 -3 10.32 -3 11 C-3.66 11 -4.32 11 -5 11 C-4.896875 11.928125 -4.79375 12.85625 -4.6875 13.8125 C-4.8421875 15.3903125 -4.8421875 15.3903125 -5 17 C-7.38892501 18.88599343 -8.91851558 20 -12 20 C-10.64191648 14.83928262 -8.15031499 10.74292191 -5.33984375 6.26953125 C-3.87096434 3.96285499 -3.87096434 3.96285499 -3 1 C-2.01 0.67 -1.02 0.34 0 0 Z " fill="#7E7E7E" transform="translate(213,324)"/>
<path d="M0 0 C0.33 0 0.66 0 1 0 C0.67 2.31 0.34 4.62 0 7 C-0.66 7 -1.32 7 -2 7 C-2.33 8.65 -2.66 10.3 -3 12 C-3.66 12 -4.32 12 -5 12 C-5.33 13.98 -5.66 15.96 -6 18 C-6.66 18 -7.32 18 -8 18 C-8.33 19.32 -8.66 20.64 -9 22 C-9.66 22 -10.32 22 -11 22 C-11 22.99 -11 23.98 -11 25 C-11.66 25 -12.32 25 -13 25 C-13.33 26.32 -13.66 27.64 -14 29 C-14.66 29 -15.32 29 -16 29 C-15.67 27.35 -15.34 25.7 -15 24 C-14.34 24 -13.68 24 -13 24 C-12.9175 23.319375 -12.835 22.63875 -12.75 21.9375 C-11.77667472 18.1253093 -10.04192545 15.35929671 -8 12 C-7.34 12 -6.68 12 -6 12 C-6 11.01 -6 10.02 -6 9 C-5.34 9 -4.68 9 -4 9 C-3.896875 8.2575 -3.79375 7.515 -3.6875 6.75 C-2.95458812 3.81835246 -1.99174829 2.24071683 0 0 Z " fill="#727272" transform="translate(271,224)"/>
<path d="M0 0 C0.66 0 1.32 0 2 0 C1.54177532 3.46941546 1.10868317 6.67395049 0 10 C-0.66 10 -1.32 10 -2 10 C-2 10.66 -2 11.32 -2 12 C-2.66 12 -3.32 12 -4 12 C-4.33 13.65 -4.66 15.3 -5 17 C-0.05 16.67 4.9 16.34 10 16 C9.67 16.66 9.34 17.32 9 18 C6.71484375 18.4140625 6.71484375 18.4140625 3.9375 18.625 C3.01839844 18.69976562 2.09929687 18.77453125 1.15234375 18.8515625 C0.44207031 18.90054687 -0.26820313 18.94953125 -1 19 C-1 19.66 -1 20.32 -1 21 C-1.99 21 -2.98 21 -4 21 C-4 20.34 -4 19.68 -4 19 C-4.99 18.67 -5.98 18.34 -7 18 C-6.67 15.36 -6.34 12.72 -6 10 C-5.34 10 -4.68 10 -4 10 C-3.67 8.68 -3.34 7.36 -3 6 C-2.34 6 -1.68 6 -1 6 C-0.67 4.02 -0.34 2.04 0 0 Z " fill="#737373" transform="translate(145,435)"/>
<path d="M0 0 C2.31 0 4.62 0 7 0 C7 0.66 7 1.32 7 2 C4.54256214 2.36173964 2.08441207 2.71468169 -0.375 3.0625 C-1.07367188 3.16626953 -1.77234375 3.27003906 -2.4921875 3.37695312 C-7.7734375 4.11328125 -7.7734375 4.11328125 -10 3 C-10 3.66 -10 4.32 -10 5 C-11.24716797 5.19916016 -11.24716797 5.19916016 -12.51953125 5.40234375 C-13.60621094 5.57894531 -14.69289062 5.75554687 -15.8125 5.9375 C-16.89144531 6.11152344 -17.97039062 6.28554688 -19.08203125 6.46484375 C-22.04933356 6.93871921 -22.04933356 6.93871921 -25 8 C-25.33 6.68 -25.66 5.36 -26 4 C-20.85765729 2.35095031 -16.13284042 1.58867185 -10.75 1.3125 C-10.04359375 1.26544922 -9.3371875 1.21839844 -8.609375 1.16992188 C-5.40396559 0.98476091 -3.07537872 0.97487376 0 2 C0 1.34 0 0.68 0 0 Z " fill="#E1E1E1" transform="translate(183,445)"/>
<path d="M0 0 C0.99 0 1.98 0 3 0 C3 1.65 3 3.3 3 5 C3.99 5 4.98 5 6 5 C5.67 5.99 5.34 6.98 5 8 C4.21625 8.0825 3.4325 8.165 2.625 8.25 C-0.14749104 8.72806339 -0.14749104 8.72806339 -1.3125 11.0625 C-1.6528125 12.0215625 -1.6528125 12.0215625 -2 13 C-2.66 13 -3.32 13 -4 13 C-4.66 14.32 -5.32 15.64 -6 17 C-6.66 17 -7.32 17 -8 17 C-8 17.99 -8 18.98 -8 20 C-8.66 20 -9.32 20 -10 20 C-10.33 20.66 -10.66 21.32 -11 22 C-10.39301257 17.87248551 -8.96189209 14.6678852 -7 11 C-6.34 11 -5.68 11 -5 11 C-5 10.01 -5 9.02 -5 8 C-4.01 8 -3.02 8 -2 8 C-2 6.35 -2 4.7 -2 3 C-1.34 3 -0.68 3 0 3 C0 2.01 0 1.02 0 0 Z " fill="#E0E0E0" transform="translate(172,390)"/>
<path d="M0 0 C1.8125 0.1875 1.8125 0.1875 4 1 C7 5.17857143 7 5.17857143 7 8 C7.66 8 8.32 8 9 8 C9.33 9.32 9.66 10.64 10 12 C10.66 12 11.32 12 12 12 C12.33 13.98 12.66 15.96 13 18 C10.36 17.34 7.72 16.68 5 16 C4.896875 15.13375 4.79375 14.2675 4.6875 13.375 C3.95563713 9.78221865 2.89439707 7.1330413 1 4 C0.01 3.67 -0.98 3.34 -2 3 C-1.34 2.01 -0.68 1.02 0 0 Z " fill="#1AF0CA" transform="translate(356,253)"/>
<path d="M0 0 C0.99 0 1.98 0 3 0 C2.67 1.65 2.34 3.3 2 5 C1.34 5 0.68 5 0 5 C-0.33 6.65 -0.66 8.3 -1 10 C-1.66 10 -2.32 10 -3 10 C-3.12375 10.7425 -3.2475 11.485 -3.375 12.25 C-3.96120466 14.82930049 -4.63284555 16.7482162 -6 19 C-6.66 19.33 -7.32 19.66 -8 20 C-8.33 20.99 -8.66 21.98 -9 23 C-9.66 23 -10.32 23 -11 23 C-10.45276317 19.62537285 -9.9451 17.91765 -8 15 C-8 13.68 -8 12.36 -8 11 C-7.01 11 -6.02 11 -5 11 C-4.67 9.35 -4.34 7.7 -4 6 C-4.66 6 -5.32 6 -6 6 C-5.67 5.01 -5.34 4.02 -5 3 C-3.68 3 -2.36 3 -1 3 C-0.67 2.01 -0.34 1.02 0 0 Z " fill="#ADAEAD" transform="translate(302,311)"/>
<path d="M0 0 C2 2 2 2 2 5 C1.01 5.495 1.01 5.495 0 6 C-0.268125 7.051875 -0.53625 8.10375 -0.8125 9.1875 C-2.22894892 13.73504652 -3.65899448 15.65899448 -7 19 C-9.3125 19.875 -9.3125 19.875 -11 20 C-10.48771456 15.5175024 -8.84960519 13.41952623 -6 10 C-4.58626643 7.70448007 -3.29814617 5.36448052 -2 3 C-1.34 3 -0.68 3 0 3 C0 2.01 0 1.02 0 0 Z " fill="#30B39A" transform="translate(335,278)"/>
<path d="M0 0 C0.66 0 1.32 0 2 0 C2 2.31 2 4.62 2 7 C1.34 7 0.68 7 0 7 C0 7.66 0 8.32 0 9 C0.66 9 1.32 9 2 9 C1.67 10.32 1.34 11.64 1 13 C0.01 13 -0.98 13 -2 13 C-2.33 13.66 -2.66 14.32 -3 15 C-3.66 15 -4.32 15 -5 15 C-5.33 16.65 -5.66 18.3 -6 20 C-6.66 19.67 -7.32 19.34 -8 19 C-7.0311155 13.76802372 -6.08237497 9.43861996 -3 5 C-2.484375 4.071875 -1.96875 3.14375 -1.4375 2.1875 C-0.963125 1.465625 -0.48875 0.74375 0 0 Z " fill="#E0E0E0" transform="translate(236,282)"/>
<path d="M0 0 C1.32 0.33 2.64 0.66 4 1 C3.67 1.99 3.34 2.98 3 4 C0.9375 4.6875 0.9375 4.6875 -1 5 C-1.09796875 5.62648438 -1.1959375 6.25296875 -1.296875 6.8984375 C-1.44640625 7.71570313 -1.5959375 8.53296875 -1.75 9.375 C-1.88921875 10.18710937 -2.0284375 10.99921875 -2.171875 11.8359375 C-3 14 -3 14 -5.078125 15.2890625 C-6.02945313 15.64097656 -6.02945313 15.64097656 -7 16 C-7 16.99 -7 17.98 -7 19 C-8.375 20.6875 -8.375 20.6875 -10 22 C-10.66 22 -11.32 22 -12 22 C-10.125 17.25 -10.125 17.25 -9 15 C-8.34 15 -7.68 15 -7 15 C-6.814375 13.5459375 -6.814375 13.5459375 -6.625 12.0625 C-6.41875 11.051875 -6.2125 10.04125 -6 9 C-5.34 8.67 -4.68 8.34 -4 8 C-3.30341637 6.34561387 -2.63903117 4.67745682 -2 3 C-1.34 2.01 -0.68 1.02 0 0 Z " fill="#8A8A8A" transform="translate(159,413)"/>
<path d="M0 0 C3.3556206 2.2370804 3.19278041 2.42517038 4 6 C4.66 6.33 5.32 6.66 6 7 C6 8.65 6 10.3 6 12 C6.66 12 7.32 12 8 12 C8.103125 12.639375 8.20625 13.27875 8.3125 13.9375 C8.539375 14.618125 8.76625 15.29875 9 16 C9.99 16.33 10.98 16.66 12 17 C12.6875 19.0625 12.6875 19.0625 13 21 C13.66 21 14.32 21 15 21 C14.67 21.99 14.34 22.98 14 24 C13.34 24 12.68 24 12 24 C12 23.34 12 22.68 12 22 C11.34 22 10.68 22 10 22 C10 20.35 10 18.7 10 17 C9.34 17 8.68 17 8 17 C8 16.34 8 15.68 8 15 C7.01 14.67 6.02 14.34 5 14 C5 13.01 5 12.02 5 11 C4.34 11 3.68 11 3 11 C3 10.34 3 9.68 3 9 C2.01 8.67 1.02 8.34 0 8 C0 5.36 0 2.72 0 0 Z " fill="#17F4CE" transform="translate(369,271)"/>
<path d="M0 0 C6.86989051 5.85961249 11.05704488 14.25670196 13 23 C13.66 23 14.32 23 15 23 C14.67 23.99 14.34 24.98 14 26 C13.34 25.67 12.68 25.34 12 25 C12 24.01 12 23.02 12 22 C11.34 22 10.68 22 10 22 C9.67 20.35 9.34 18.7 9 17 C8.01 16.67 7.02 16.34 6 16 C6 14.35 6 12.7 6 11 C5.34 11 4.68 11 4 11 C3.67 9.02 3.34 7.04 3 5 C2.34 5 1.68 5 1 5 C0.67 3.35 0.34 1.7 0 0 Z " fill="#252525" transform="translate(313,161)"/>
<path d="M0 0 C4.14642936 -0.09872451 7.92103107 0.2906141 12 1 C13.32 1 14.64 1 16 1 C18.33634657 1.31151288 20.67038557 1.64159778 23 2 C23.33 2.99 23.66 3.98 24 5 C21.3122562 4.85790331 18.62486698 4.7114277 15.9375 4.5625 C15.18533203 4.52318359 14.43316406 4.48386719 13.65820312 4.44335938 C9.05301259 4.18419281 4.55633276 3.7200579 0 3 C0 2.01 0 1.02 0 0 Z " fill="#8E8E8E" transform="translate(381,322)"/>
<path d="M0 0 C0.66 0 1.32 0 2 0 C4.04169485 2.90548882 5 4.40142046 5 8 C5.66 8 6.32 8 7 8 C7.98484108 9.74681293 8.96266187 11.4975851 9.9375 13.25 C10.48277344 14.22453125 11.02804687 15.1990625 11.58984375 16.203125 C12.76610835 18.53610409 13.52101691 20.45350762 14 23 C13.01 22.67 12.02 22.34 11 22 C11 21.01 11 20.02 11 19 C10.34 19 9.68 19 9 19 C8.67 17.35 8.34 15.7 8 14 C7.34 14 6.68 14 6 14 C6 13.34 6 12.68 6 12 C5.34 12 4.68 12 4 12 C3.566875 10.2984375 3.566875 10.2984375 3.125 8.5625 C2.75375 7.386875 2.3825 6.21125 2 5 C1.34 4.67 0.68 4.34 0 4 C0 2.68 0 1.36 0 0 Z " fill="#3E3E3E" transform="translate(454,410)"/>
<path d="M0 0 C1.875 0.25 1.875 0.25 4 1 C5.25 3.0625 5.25 3.0625 6 5 C6.66 4.67 7.32 4.34 8 4 C8.33 7.63 8.66 11.26 9 15 C9.66 15 10.32 15 11 15 C11.33 16.65 11.66 18.3 12 20 C7.99153025 16.3255694 5.4396032 12.87920641 3 8 C3 7.01 3 6.02 3 5 C2.34 5 1.68 5 1 5 C0.67 3.35 0.34 1.7 0 0 Z " fill="#8D8D8D" transform="translate(341,362)"/>
<path d="M0 0 C2.31 0.66 4.62 1.32 7 2 C7.33 4.97 7.66 7.94 8 11 C8.66 11 9.32 11 10 11 C10.33 12.98 10.66 14.96 11 17 C10.34 17 9.68 17 9 17 C6.98217268 14.09432866 5.64505596 11.48330216 5 8 C4.34 8 3.68 8 3 8 C2.67 6.35 2.34 4.7 2 3 C1.34 3 0.68 3 0 3 C0 2.01 0 1.02 0 0 Z " fill="#8B8B8B" transform="translate(330,345)"/>
<path d="M0 0 C8.25 0 16.5 0 25 0 C25 0.33 25 0.66 25 1 C23.72382813 1.06058594 22.44765625 1.12117188 21.1328125 1.18359375 C19.46352984 1.26799568 17.79425963 1.35264386 16.125 1.4375 C15.28324219 1.47681641 14.44148438 1.51613281 13.57421875 1.55664062 C12.76855469 1.59853516 11.96289062 1.64042969 11.1328125 1.68359375 C10.01737061 1.73858032 10.01737061 1.73858032 8.87939453 1.79467773 C6.91135688 1.89955865 6.91135688 1.89955865 5 3 C5 5.31 5 7.62 5 10 C4.01 9.67 3.02 9.34 2 9 C2 7.35 2 5.7 2 4 C1.34 4 0.68 4 0 4 C0 2.68 0 1.36 0 0 Z " fill="#EDEDED" transform="translate(319,324)"/>
<path d="M0 0 C1.33146198 2.66292396 0.74041344 3.69423853 -0.125 6.5 C-1.6066156 10.7939415 -1.6066156 10.7939415 -4.625 12.375 C-5.40875 12.58125 -6.1925 12.7875 -7 13 C-7.33 13.99 -7.66 14.98 -8 16 C-8.66 16 -9.32 16 -10 16 C-10.33 16.66 -10.66 17.32 -11 18 C-11 17.01 -11 16.02 -11 15 C-10.34 15 -9.68 15 -9 15 C-8.9175 14.21625 -8.835 13.4325 -8.75 12.625 C-8 10 -8 10 -5.9375 8.6875 C-5.298125 8.460625 -4.65875 8.23375 -4 8 C-4 7.01 -4 6.02 -4 5 C-3.34 5 -2.68 5 -2 5 C-1.34 3.35 -0.68 1.7 0 0 Z " fill="#35E4C5" transform="translate(352,256)"/>
<path d="M0 0 C0.99 0 1.98 0 3 0 C3 0.66 3 1.32 3 2 C2.34 2 1.68 2 1 2 C1 2.99 1 3.98 1 5 C0.34 5 -0.32 5 -1 5 C-1.33 6.65 -1.66 8.3 -2 10 C-2.66 10 -3.32 10 -4 10 C-4.33 11.98 -4.66 13.96 -5 16 C-5.66 16 -6.32 16 -7 16 C-7.33 16.66 -7.66 17.32 -8 18 C-8.33 17.01 -8.66 16.02 -9 15 C-8.34 15 -7.68 15 -7 15 C-6.67 12.03 -6.34 9.06 -6 6 C-5.34 6 -4.68 6 -4 6 C-4 5.34 -4 4.68 -4 4 C-3.01 4 -2.02 4 -1 4 C-0.67 2.68 -0.34 1.36 0 0 Z " fill="#B3B0B3" transform="translate(335,257)"/>
<path d="M0 0 C0 0.66 0 1.32 0 2 C-0.61875 2.061875 -1.2375 2.12375 -1.875 2.1875 C-4.27761141 2.828919 -4.27761141 2.828919 -5.25 5.5625 C-5.4975 6.366875 -5.745 7.17125 -6 8 C-6.66 8 -7.32 8 -8 8 C-8.33 9.65 -8.66 11.3 -9 13 C-9.66 13 -10.32 13 -11 13 C-11.33 14.98 -11.66 16.96 -12 19 C-12.99 19.33 -13.98 19.66 -15 20 C-14.67 18.02 -14.34 16.04 -14 14 C-13.34 14 -12.68 14 -12 14 C-11.90332031 13.27425781 -11.80664062 12.54851562 -11.70703125 11.80078125 C-10.9004237 8.6055458 -9.69785147 6.78330715 -7.6875 4.1875 C-7.09324219 3.39730469 -6.49898438 2.60710937 -5.88671875 1.79296875 C-4 0 -4 0 0 0 Z " fill="#121212" transform="translate(313,159)"/>
<path d="M0 0 C0.66 0 1.32 0 2 0 C2 0.66 2 1.32 2 2 C6.97361654 3.75734451 11.7415998 5.32584613 17 6 C17 6.66 17 7.32 17 8 C17.66 8.33 18.32 8.66 19 9 C13.47232137 8.52369209 8.21727176 7.95647691 3 6 C2.67 5.01 2.34 4.02 2 3 C1.34 3 0.68 3 0 3 C0 2.01 0 1.02 0 0 Z " fill="#5C5C5C" transform="translate(382,431)"/>
<path d="M0 0 C0.33 0.99 0.66 1.98 1 3 C0.01 3.495 0.01 3.495 -1 4 C-2.09012598 5.77709562 -2.09012598 5.77709562 -3.0625 7.875 C-3.40410156 8.57367188 -3.74570313 9.27234375 -4.09765625 9.9921875 C-5.10003135 12.13268038 -5.10003135 12.13268038 -6 15 C-6.66 15 -7.32 15 -8 15 C-7.69147815 13.041036 -7.3780582 11.08284287 -7.0625 9.125 C-6.80146484 7.48917969 -6.80146484 7.48917969 -6.53515625 5.8203125 C-6 3 -6 3 -5 1 C-2.4375 0.375 -2.4375 0.375 0 0 Z " fill="#9C9C9C" transform="translate(244,413)"/>
<path d="M0 0 C0 0.66 0 1.32 0 2 C-6.670985 4.25678003 -12.96871122 5.56615452 -20 6 C-19.67 5.01 -19.34 4.02 -19 3 C-18.15695313 2.86722656 -17.31390625 2.73445313 -16.4453125 2.59765625 C-15.34960938 2.42105469 -14.25390625 2.24445313 -13.125 2.0625 C-11.48917969 1.80146484 -11.48917969 1.80146484 -9.8203125 1.53515625 C-1.51923077 -0.03997976 -1.51923077 -0.03997976 0 0 Z " fill="#616161" transform="translate(230,437)"/>
<path d="M0 0 C1.32 0.33 2.64 0.66 4 1 C4.33 2.65 4.66 4.3 5 6 C5.66 6 6.32 6 7 6 C7.99 8.31 8.98 10.62 10 13 C8.68 12.67 7.36 12.34 6 12 C6 11.34 6 10.68 6 10 C5.01 10.33 4.02 10.66 3 11 C2.01 7.37 1.02 3.74 0 0 Z " fill="#939393" transform="translate(420,355)"/>
<path d="M0 0 C0.66 0 1.32 0 2 0 C3.00631749 3.01895247 3.58886001 5.84792677 4 9 C3 10 3 10 0.49609375 10.09765625 C-1.01791016 10.08025391 -1.01791016 10.08025391 -2.5625 10.0625 C-3.57441406 10.05347656 -4.58632813 10.04445313 -5.62890625 10.03515625 C-6.41136719 10.02355469 -7.19382812 10.01195312 -8 10 C-8 9.67 -8 9.34 -8 9 C-4.535 8.505 -4.535 8.505 -1 8 C-1.020625 7.05125 -1.04125 6.1025 -1.0625 5.125 C-1 2 -1 2 0 0 Z " fill="#15F1CF" transform="translate(384,300)"/>
<path d="M0 0 C1.32 0 2.64 0 4 0 C5.34771696 2.21976911 6.04398726 3.50147776 5.8125 6.125 C5 8 5 8 2 10 C-1.07692308 5.69230769 -1.07692308 5.69230769 -0.6875 2.1875 C-0.460625 1.465625 -0.23375 0.74375 0 0 Z " fill="#13F6D8" transform="translate(354,256)"/>
<path d="M0 0 C0.33 0.99 0.66 1.98 1 3 C0.34 3 -0.32 3 -1 3 C-1.33 4.65 -1.66 6.3 -2 8 C-2.66 8 -3.32 8 -4 8 C-4.66 10.31 -5.32 12.62 -6 15 C-7.32 15.33 -8.64 15.66 -10 16 C-9.67 14.35 -9.34 12.7 -9 11 C-8.34 11 -7.68 11 -7 11 C-6.87625 10.360625 -6.7525 9.72125 -6.625 9.0625 C-6.41875 8.381875 -6.2125 7.70125 -6 7 C-5.34 6.67 -4.68 6.34 -4 6 C-2.96986723 4.35178756 -1.96885372 2.68496298 -1 1 C-0.67 0.67 -0.34 0.34 0 0 Z " fill="#6F6F6F" transform="translate(222,309)"/>
<path d="M0 0 C0.66 0 1.32 0 2 0 C3.33333333 2.66666667 4.66666667 5.33333333 6 8 C5.67 8.99 5.34 9.98 5 11 C3.35 11.66 1.7 12.32 0 13 C0 8.71 0 4.42 0 0 Z " fill="#B9B9B9" transform="translate(431,372)"/>
<path d="M0 0 C1.9375 0.5625 1.9375 0.5625 4 2 C4.75 5.625 4.75 5.625 5 9 C5.66 9 6.32 9 7 9 C7 9.66 7 10.32 7 11 C5.35 11 3.7 11 2 11 C0.80712589 7.12315913 0 4.08378077 0 0 Z " fill="#2A8B76" transform="translate(389,298)"/>
<path d="M0 0 C0.66 0.33 1.32 0.66 2 1 C1.67 1.99 1.34 2.98 1 4 C0.34 4 -0.32 4 -1 4 C-1.33 5.32 -1.66 6.64 -2 8 C-2.66 8 -3.32 8 -4 8 C-4 8.99 -4 9.98 -4 11 C-4.66 11 -5.32 11 -6 11 C-6.33 12.32 -6.66 13.64 -7 15 C-7.66 15 -8.32 15 -9 15 C-8.67 13.35 -8.34 11.7 -8 10 C-7.34 10 -6.68 10 -6 10 C-5.9071875 8.824375 -5.9071875 8.824375 -5.8125 7.625 C-5.544375 6.75875 -5.27625 5.8925 -5 5 C-2.4375 3.6875 -2.4375 3.6875 0 3 C0 2.01 0 1.02 0 0 Z " fill="#878787" transform="translate(264,238)"/>
<path d="M0 0 C1.38609004 3.15020465 0.89180331 4.31918022 -0.25 7.6875 C-2 11 -2 11 -5 12 C-5 12.66 -5 13.32 -5 14 C-5.99 14.33 -6.98 14.66 -8 15 C-7.71125 14.443125 -7.4225 13.88625 -7.125 13.3125 C-5.9586747 10.91505355 -4.9660119 8.48403061 -4 6 C-3.34 6 -2.68 6 -2 6 C-1.34 4.02 -0.68 2.04 0 0 Z " fill="#6B6B6B" transform="translate(286,198)"/>
<path d="M0 0 C0.99 0.33 1.98 0.66 3 1 C1.6875 4.4375 1.6875 4.4375 0 8 C-0.99 8.33 -1.98 8.66 -3 9 C-3 9.99 -3 10.98 -3 12 C-3.66 12 -4.32 12 -5 12 C-5.33 12.66 -5.66 13.32 -6 14 C-5.39301257 9.87248551 -3.96189209 6.6678852 -2 3 C-1.34 3 -0.68 3 0 3 C0 2.01 0 1.02 0 0 Z " fill="#434343" transform="translate(167,398)"/>
<path d="M0 0 C0 0.66 0 1.32 0 2 C-0.66 2 -1.32 2 -2 2 C-2.33 3.32 -2.66 4.64 -3 6 C-3.66 6 -4.32 6 -5 6 C-5.33 7.65 -5.66 9.3 -6 11 C-6.66 11 -7.32 11 -8 11 C-8 9.35 -8 7.7 -8 6 C-8.99 6 -9.98 6 -11 6 C-9.75 4.4375 -9.75 4.4375 -8 3 C-5.8125 3.3125 -5.8125 3.3125 -4 4 C-4 3.01 -4 2.02 -4 1 C-2 0 -2 0 0 0 Z " fill="#B8BABA" transform="translate(313,299)"/>
<path d="M0 0 C0.66 0 1.32 0 2 0 C1.69078116 1.45903258 1.37751201 2.91720722 1.0625 4.375 C0.88847656 5.18710937 0.71445313 5.99921875 0.53515625 6.8359375 C0 9 0 9 -1 11 C-2.66666667 11.33333333 -4.33333333 11.66666667 -6 12 C-6.33 12.66 -6.66 13.32 -7 14 C-6.37240135 11.07120629 -5.41377341 8.63904371 -4 6 C-3.01 6 -2.02 6 -1 6 C-0.67 4.02 -0.34 2.04 0 0 Z " fill="#7A7A7A" transform="translate(245,267)"/>
<path d="M0 0 C0.99 0 1.98 0 3 0 C3 0.66 3 1.32 3 2 C3.66 2 4.32 2 5 2 C5 2.66 5 3.32 5 4 C5.66 4 6.32 4 7 4 C7.33 5.98 7.66 7.96 8 10 C6.68 9.67 5.36 9.34 4 9 C3.67 7.35 3.34 5.7 3 4 C2.34 4 1.68 4 1 4 C0.67 2.68 0.34 1.36 0 0 Z " fill="#646464" transform="translate(375,420)"/>
<path d="M0 0 C0.33 0.66 0.66 1.32 1 2 C-0.47169811 5.73584906 -0.47169811 5.73584906 -3 7 C-3.185625 8.2065625 -3.185625 8.2065625 -3.375 9.4375 C-4 12 -4 12 -6.0625 13.3125 C-7.0215625 13.6528125 -7.0215625 13.6528125 -8 14 C-7.6875 10.625 -7.6875 10.625 -7 7 C-6.01 6.34 -5.02 5.68 -4 5 C-3.34 4.01 -2.68 3.02 -2 2 C-1.34 1.34 -0.68 0.68 0 0 Z " fill="#2CE8C3" transform="translate(333,290)"/>
<path d="M0 0 C5.28 0.33 10.56 0.66 16 1 C15.67 1.99 15.34 2.98 15 4 C12.68613705 3.71935082 10.37390992 3.42518311 8.0625 3.125 C6.77472656 2.96257812 5.48695313 2.80015625 4.16015625 2.6328125 C3.11730469 2.42398437 2.07445312 2.21515625 1 2 C0.67 1.34 0.34 0.68 0 0 Z " fill="#545454" transform="translate(402,439)"/>
<path d="M0 0 C1.65 0.33 3.3 0.66 5 1 C6.125 6.625 6.125 6.625 5 10 C4.67 8.68 4.34 7.36 4 6 C3.34 6 2.68 6 2 6 C1.67 5.34 1.34 4.68 1 4 C0.34 4 -0.32 4 -1 4 C-1 4.66 -1 5.32 -1 6 C-1.66 6 -2.32 6 -3 6 C-2.67 5.01 -2.34 4.02 -2 3 C-1.34 3 -0.68 3 0 3 C0 2.01 0 1.02 0 0 Z " fill="#EEEEEE" transform="translate(152,429)"/>
<path d="M0 0 C0.66 0.33 1.32 0.66 2 1 C1.45276317 4.37462715 0.9451 6.08235 -1 9 C-1.66 9 -2.32 9 -3 9 C-3.33 9.66 -3.66 10.32 -4 11 C-4.125 4.375 -4.125 4.375 -3 1 C-2.01 0.67 -1.02 0.34 0 0 Z " fill="#AEAEAE" transform="translate(213,324)"/>
<path d="M0 0 C0.66 0.33 1.32 0.66 2 1 C1.58923571 6.23724464 0.81714069 9.29192047 -3 13 C-5.25 13.8125 -5.25 13.8125 -7 14 C-6.67 13.01 -6.34 12.02 -6 11 C-5.34 11 -4.68 11 -4 11 C-3.67 9.35 -3.34 7.7 -3 6 C-2.34 6 -1.68 6 -1 6 C-0.67 4.02 -0.34 2.04 0 0 Z " fill="#EDEDED" transform="translate(224,306)"/>
<path d="M0 0 C2.9375 1 2.9375 1 6 3 C6.86518243 5.75878925 6.90393194 8.06992426 7 11 C4.525 10.01 4.525 10.01 2 9 C2.33 7.68 2.66 6.36 3 5 C2.34 5 1.68 5 1 5 C0.67 3.35 0.34 1.7 0 0 Z " fill="#33E3C4" transform="translate(383,295)"/>
<path d="M0 0 C0.91058531 3.07322544 1.08886184 5.80097361 1 9 C-0.32 9.33 -1.64 9.66 -3 10 C-2.34 11.32 -1.68 12.64 -1 14 C-1.99 13.67 -2.98 13.34 -4 13 C-4.33 11.35 -4.66 9.7 -5 8 C-3.68 7.34 -2.36 6.68 -1 6 C-1.020625 5.195625 -1.04125 4.39125 -1.0625 3.5625 C-1 1 -1 1 0 0 Z " fill="#15F2CC" transform="translate(330,296)"/>
<path d="M0 0 C0.66 0 1.32 0 2 0 C1.67 1.65 1.34 3.3 1 5 C0.34 5 -0.32 5 -1 5 C-1.33 6.32 -1.66 7.64 -2 9 C-2.66 9 -3.32 9 -4 9 C-4 10.32 -4 11.64 -4 13 C-4.99 13.33 -5.98 13.66 -7 14 C-6.67 12.02 -6.34 10.04 -6 8 C-5.34 8 -4.68 8 -4 8 C-3.71125 7.236875 -3.4225 6.47375 -3.125 5.6875 C-2 3 -2 3 0 0 Z " fill="#06412D" transform="translate(351,250)"/>
<path d="M0 0 C1 2 1 2 0.51171875 3.83984375 C0.23972656 4.53207031 -0.03226562 5.22429687 -0.3125 5.9375 C-0.70888672 6.97197266 -0.70888672 6.97197266 -1.11328125 8.02734375 C-2 10 -2 10 -4 13 C-4.66 13 -5.32 13 -6 13 C-6.33 14.32 -6.66 15.64 -7 17 C-8 14 -8 14 -7 11 C-6.34 11 -5.68 11 -5 11 C-4.67 9.35 -4.34 7.7 -4 6 C-3.34 6 -2.68 6 -2 6 C-1.855625 5.195625 -1.71125 4.39125 -1.5625 3.5625 C-1 1 -1 1 0 0 Z " fill="#A8A8A8" transform="translate(309,161)"/>
<path d="M0 0 C5.77759884 -0.12036664 11.27959989 0.1679418 17 1 C16.67 1.99 16.34 2.98 16 4 C13.70704764 3.71861942 11.41564544 3.4245814 9.125 3.125 C7.84882813 2.96257812 6.57265625 2.80015625 5.2578125 2.6328125 C2 2 2 2 0 0 Z " fill="#5F5F5F" transform="translate(419,442)"/>
<path d="M0 0 C4.52188994 3.14020135 6.6833568 6.09940861 9 11 C8.67 11.99 8.34 12.98 8 14 C7.34 12.68 6.68 11.36 6 10 C5.34 10 4.68 10 4 10 C3.67 8.35 3.34 6.7 3 5 C2.34 5 1.68 5 1 5 C0.67 3.35 0.34 1.7 0 0 Z " fill="#135245" transform="translate(359,247)"/>
<path d="M0 0 C2.375 0.625 2.375 0.625 5 2 C6.3125 5.125 6.3125 5.125 7 8 C5.02 8 3.04 8 1 8 C0.67 5.36 0.34 2.72 0 0 Z " fill="#B6B6B6" transform="translate(414,346)"/>
<path d="M0 0 C0.66 0 1.32 0 2 0 C1.54177532 3.46941546 1.10868317 6.67395049 0 10 C-0.66 10 -1.32 10 -2 10 C-2 10.66 -2 11.32 -2 12 C-2.66 12 -3.32 12 -4 12 C-4 10.35 -4 8.7 -4 7 C-3.01 6.67 -2.02 6.34 -1 6 C-0.67 4.02 -0.34 2.04 0 0 Z " fill="#5B5B5B" transform="translate(145,435)"/>
<path d="M0 0 C0.66 0 1.32 0 2 0 C1.67 1.98 1.34 3.96 1 6 C0.34 6 -0.32 6 -1 6 C-1 6.66 -1 7.32 -1 8 C-1.66 8 -2.32 8 -3 8 C-3.33 9.65 -3.66 11.3 -4 13 C-4.66 13 -5.32 13 -6 13 C-5.49231681 8.5577721 -3.84178232 6.3746165 -1 3 C-0.67 2.01 -0.34 1.02 0 0 Z " fill="#136952" transform="translate(330,285)"/>
<path d="M0 0 C0.99 0 1.98 0 3 0 C3 0.66 3 1.32 3 2 C3.66 2.33 4.32 2.66 5 3 C4.01 3.99 3.02 4.98 2 6 C-0.31 5.34 -2.62 4.68 -5 4 C-5 3.01 -5 2.02 -5 1 C-4.34 1 -3.68 1 -3 1 C-3 1.66 -3 2.32 -3 3 C-2.34 3 -1.68 3 -1 3 C-0.67 2.01 -0.34 1.02 0 0 Z " fill="#EDF5F2" transform="translate(326,258)"/>
<path d="M0 0 C0.33 0 0.66 0 1 0 C1.125 6.625 1.125 6.625 0 10 C-0.66 10 -1.32 10 -2 10 C-2.12375 10.804375 -2.2475 11.60875 -2.375 12.4375 C-2.58125 13.283125 -2.7875 14.12875 -3 15 C-3.99 15.495 -3.99 15.495 -5 16 C-4.71890887 14.35232753 -4.42481474 12.70686855 -4.125 11.0625 C-3.96257812 10.14597656 -3.80015625 9.22945312 -3.6328125 8.28515625 C-3.42398437 7.53105469 -3.21515625 6.77695313 -3 6 C-2.34 5.67 -1.68 5.34 -1 5 C-0.34444881 2.47266765 -0.34444881 2.47266765 0 0 Z " fill="#A0A0A0" transform="translate(350,229)"/>
<path d="M0 0 C0.99 0 1.98 0 3 0 C3.33 1.65 3.66 3.3 4 5 C4.66 5 5.32 5 6 5 C6.33 6.32 6.66 7.64 7 9 C6.34 9 5.68 9 5 9 C5 8.34 5 7.68 5 7 C4.34 7 3.68 7 3 7 C2.34 6.34 1.68 5.68 1 5 C0.01 5.66 -0.98 6.32 -2 7 C-1.34 4.69 -0.68 2.38 0 0 Z " fill="#D3D3D3" transform="translate(310,161)"/>
<path d="M0 0 C2.29017186 2.14913488 4.01315589 4.34518412 5.6875 7 C6.34298828 8.0209375 6.34298828 8.0209375 7.01171875 9.0625 C8 11 8 11 8 14 C7.34 14 6.68 14 6 14 C5.67 12.68 5.34 11.36 5 10 C4.34 10 3.68 10 3 10 C2.67 8.02 2.34 6.04 2 4 C1.34 4 0.68 4 0 4 C0 2.68 0 1.36 0 0 Z " fill="#063425" transform="translate(371,265)"/>
<path d="M0 0 C7 9.1 7 9.1 7 14 C6.34 14 5.68 14 5 14 C4.67 12.35 4.34 10.7 4 9 C3.34 9 2.68 9 2 9 C1.67 7.02 1.34 5.04 1 3 C0.34 3 -0.32 3 -1 3 C-0.67 2.01 -0.34 1.02 0 0 Z " fill="#686868" transform="translate(338,206)"/>
<path d="M0 0 C2.31 0 4.62 0 7 0 C7 0.66 7 1.32 7 2 C2.05 2.66 -2.9 3.32 -8 4 C-7.67 3.01 -7.34 2.02 -7 1 C-4.69 1.33 -2.38 1.66 0 2 C0 1.34 0 0.68 0 0 Z " fill="#616161" transform="translate(183,445)"/>
<path d="M0 0 C2.375 0.5625 2.375 0.5625 5 2 C6.3125 5.625 6.3125 5.625 7 9 C7.66 9 8.32 9 9 9 C8.67 9.99 8.34 10.98 8 12 C7.34 11.67 6.68 11.34 6 11 C6 10.01 6 9.02 6 8 C5.34 8 4.68 8 4 8 C3.67 6.35 3.34 4.7 3 3 C2.01 2.67 1.02 2.34 0 2 C0 1.34 0 0.68 0 0 Z " fill="#474747" transform="translate(319,175)"/>
<path d="M0 0 C0.33 2.64 0.66 5.28 1 8 C-0.65 8 -2.3 8 -4 8 C-3.74438677 5.6568787 -3.40729228 3.32156597 -3 1 C-1 0 -1 0 0 0 Z " fill="#36E3C3" transform="translate(325,304)"/>
<path d="M0 0 C0.66 0 1.32 0 2 0 C1.67 1.65 1.34 3.3 1 5 C0.34 5 -0.32 5 -1 5 C-1 5.99 -1 6.98 -1 8 C-1.66 8 -2.32 8 -3 8 C-3.33 9.65 -3.66 11.3 -4 13 C-4.66 13 -5.32 13 -6 13 C-5.3001048 9.85047161 -4.34839851 6.9347497 -3 4 C-2.34 3.67 -1.68 3.34 -1 3 C-0.67 2.01 -0.34 1.02 0 0 Z " fill="#494949" transform="translate(236,282)"/>
<path d="M0 0 C0 0.66 0 1.32 0 2 C-1.24716797 2.19916016 -1.24716797 2.19916016 -2.51953125 2.40234375 C-3.60621094 2.57894531 -4.69289062 2.75554687 -5.8125 2.9375 C-6.89144531 3.11152344 -7.97039062 3.28554688 -9.08203125 3.46484375 C-12.04933356 3.93871921 -12.04933356 3.93871921 -15 5 C-14.67 4.01 -14.34 3.02 -14 2 C-9.23982707 0.19113429 -5.06323209 -0.20666253 0 0 Z " fill="#5F5F5F" transform="translate(173,448)"/>
<path d="M0 0 C1.5 1.3125 1.5 1.3125 3 3 C3 3.99 3 4.98 3 6 C3.66 6 4.32 6 5 6 C5.33 7.65 5.66 9.3 6 11 C5.01 10.67 4.02 10.34 3 10 C3 9.01 3 8.02 3 7 C2.34 7 1.68 7 1 7 C0.67 4.69 0.34 2.38 0 0 Z " fill="#575757" transform="translate(468,433)"/>
<path d="M0 0 C0.66 0 1.32 0 2 0 C2 0.66 2 1.32 2 2 C2.66 2 3.32 2 4 2 C4.66 4.97 5.32 7.94 6 11 C5.34 11 4.68 11 4 11 C3.67 9.02 3.34 7.04 3 5 C2.34 5 1.68 5 1 5 C0.67 3.35 0.34 1.7 0 0 Z " fill="#757575" transform="translate(324,334)"/>
<path d="M0 0 C1.32 0.33 2.64 0.66 4 1 C4.33 3.97 4.66 6.94 5 10 C4.01 9.67 3.02 9.34 2 9 C2 7.35 2 5.7 2 4 C1.34 4 0.68 4 0 4 C0 2.68 0 1.36 0 0 Z " fill="#999999" transform="translate(319,324)"/>
<path d="M0 0 C0.66 0 1.32 0 2 0 C1.67 1.98 1.34 3.96 1 6 C0.34 6 -0.32 6 -1 6 C-1 6.66 -1 7.32 -1 8 C-1.66 8 -2.32 8 -3 8 C-3.33 9.32 -3.66 10.64 -4 12 C-4.66 11.67 -5.32 11.34 -6 11 C-4.02 7.37 -2.04 3.74 0 0 Z " fill="#105544" transform="translate(322,298)"/>
<path d="M0 0 C0.66 0 1.32 0 2 0 C1.67 1.98 1.34 3.96 1 6 C0.34 6 -0.32 6 -1 6 C-1.33 7.32 -1.66 8.64 -2 10 C-2.66 10 -3.32 10 -4 10 C-3.67 8.02 -3.34 6.04 -3 4 C-2.34 4 -1.68 4 -1 4 C-0.67 2.68 -0.34 1.36 0 0 Z " fill="#616161" transform="translate(199,345)"/>
<path d="M0 0 C0.66 0.33 1.32 0.66 2 1 C1.04801289 2.64951226 0.08820855 4.29451508 -0.875 5.9375 C-1.40867187 6.85402344 -1.94234375 7.77054687 -2.4921875 8.71484375 C-4 11 -4 11 -6 12 C-5.67 10.35 -5.34 8.7 -5 7 C-4.34 7 -3.68 7 -3 7 C-2.87625 6.030625 -2.7525 5.06125 -2.625 4.0625 C-2.41875 3.051875 -2.2125 2.04125 -2 1 C-1.34 0.67 -0.68 0.34 0 0 Z " fill="#81817A" transform="translate(325,276)"/>
<path d="M0 0 C0.33 0 0.66 0 1 0 C0.67 2.31 0.34 4.62 0 7 C-0.66 7 -1.32 7 -2 7 C-2.33 8.32 -2.66 9.64 -3 11 C-3.66 11 -4.32 11 -5 11 C-3.77782954 6.95743617 -2.37245704 3.50711041 0 0 Z " fill="#585858" transform="translate(186,367)"/>
<path d="M0 0 C0.66 0 1.32 0 2 0 C1.67 1.98 1.34 3.96 1 6 C0.34 6 -0.32 6 -1 6 C-1.12375 6.639375 -1.2475 7.27875 -1.375 7.9375 C-1.58125 8.618125 -1.7875 9.29875 -2 10 C-2.99 10.495 -2.99 10.495 -4 11 C-3.34 8.36 -2.68 5.72 -2 3 C-1.34 3 -0.68 3 0 3 C0 2.01 0 1.02 0 0 Z " fill="#7C7C7C" transform="translate(286,339)"/>
<path d="M0 0 C7.38461538 -0.36923077 7.38461538 -0.36923077 10.5 1.5 C10.995 1.995 11.49 2.49 12 3 C7.83861737 3.08159574 4.0527516 2.98248524 0 2 C0 1.34 0 0.68 0 0 Z " fill="#494949" transform="translate(456,448)"/>
<path d="M0 0 C2.4932534 0.99730136 3.77467439 1.65074531 5.25 3.9375 C6 6 6 6 6 9 C5.01 9 4.02 9 3 9 C3 7.35 3 5.7 3 4 C2.34 4 1.68 4 1 4 C0.67 2.68 0.34 1.36 0 0 Z " fill="#999999" transform="translate(358,390)"/>
<path d="M0 0 C0.99 0 1.98 0 3 0 C1.66749209 3.5875213 0.169283 6.8364623 -2 10 C-2.66 10 -3.32 10 -4 10 C-3.67 8.35 -3.34 6.7 -3 5 C-2.34 5 -1.68 5 -1 5 C-0.67 3.35 -0.34 1.7 0 0 Z " fill="#737373" transform="translate(260,383)"/>
<path d="M0 0 C0.66 0 1.32 0 2 0 C3.35439668 2.70879335 3.06501451 5.00933268 3 8 C3.66 8 4.32 8 5 8 C4.67 8.99 4.34 9.98 4 11 C4 10.34 4 9.68 4 9 C3.34 9 2.68 9 2 9 C-0.29013653 5.5647952 -0.17842973 4.014669 0 0 Z " fill="#27846A" transform="translate(368,261)"/>
<path d="M0 0 C0.66 1.32 1.32 2.64 2 4 C2.66 4 3.32 4 4 4 C4.33 5.98 4.66 7.96 5 10 C2 9 2 9 0 6 C-0.125 2.8125 -0.125 2.8125 0 0 Z " fill="#2DEAC5" transform="translate(364,261)"/>
<path d="M0 0 C0.98120464 3.05263664 0.98120464 4.94736336 0 8 C-1.32 8.33 -2.64 8.66 -4 9 C-3.46930939 5.17902761 -2.50298434 2.93828597 0 0 Z " fill="#808080" transform="translate(251,258)"/>
<path d="M0 0 C0.66 0.99 1.32 1.98 2 3 C1.195625 3.763125 0.39125 4.52625 -0.4375 5.3125 C-3.16799024 7.79430898 -3.16799024 7.79430898 -4 11 C-4.66 10.67 -5.32 10.34 -6 10 C-5.67 8.68 -5.34 7.36 -5 6 C-4.34 6 -3.68 6 -3 6 C-2.67 4.68 -2.34 3.36 -2 2 C-1.34 2 -0.68 2 0 2 C0 1.34 0 0.68 0 0 Z " fill="#D7D7D7" transform="translate(292,192)"/>
<path d="M0 0 C0.66 0 1.32 0 2 0 C2 0.99 2 1.98 2 3 C2.99 3 3.98 3 5 3 C5.33 4.98 5.66 6.96 6 9 C5.01 8.67 4.02 8.34 3 8 C3 7.01 3 6.02 3 5 C2.34 5 1.68 5 1 5 C0.67 3.35 0.34 1.7 0 0 Z " fill="#515151" transform="translate(448,401)"/>
<path d="M0 0 C2.0625 0.4375 2.0625 0.4375 4 1 C4.33 2.98 4.66 4.96 5 7 C4.34 7 3.68 7 3 7 C3 6.34 3 5.68 3 5 C2.01 4.67 1.02 4.34 0 4 C-0.33 3.01 -0.66 2.02 -1 1 C-0.67 0.67 -0.34 0.34 0 0 Z " fill="#C2C2C2" transform="translate(403,327)"/>
<path d="M0 0 C1.98 0 3.96 0 6 0 C5.67 0.99 5.34 1.98 5 3 C4.34 3 3.68 3 3 3 C3 3.99 3 4.98 3 6 C2.34 6 1.68 6 1 6 C0.67 4.02 0.34 2.04 0 0 Z " fill="#F2F2F2" transform="translate(397,326)"/>
<path d="M0 0 C1.125 3.75 1.125 3.75 0 6 C-0.66 6 -1.32 6 -2 6 C-2 6.99 -2 7.98 -2 9 C-2.99 9.33 -3.98 9.66 -5 10 C-4.38545304 6.00544473 -2.29353263 3.25533664 0 0 Z " fill="#545454" transform="translate(277,214)"/>
<path d="M0 0 C-0.33 0.66 -0.66 1.32 -1 2 C-5.28769786 3.29930238 -9.56510345 3.07516774 -14 3 C-14 2.67 -14 2.34 -14 2 C-9.126739 0.4087311 -5.19209404 -0.21192221 0 0 Z " fill="#4F4F4F" transform="translate(208,442)"/>
<path d="M0 0 C0 0.99 0 1.98 0 3 C-0.66 3 -1.32 3 -2 3 C-2.33 4.65 -2.66 6.3 -3 8 C-3.66 8 -4.32 8 -5 8 C-4.74438677 5.6568787 -4.40729228 3.32156597 -4 1 C-2 0 -2 0 0 0 Z " fill="#4C4C4C" transform="translate(236,428)"/>
<path d="M0 0 C1.32 0.33 2.64 0.66 4 1 C3.67 1.99 3.34 2.98 3 4 C-0.0625 5.1875 -0.0625 5.1875 -3 6 C-2 4 -1 2 0 0 Z " fill="#6D6D6D" transform="translate(159,413)"/>
<path d="M0 0 C0.99 0.33 1.98 0.66 3 1 C3 1.66 3 2.32 3 3 C3.66 3 4.32 3 5 3 C5.33 4.98 5.66 6.96 6 9 C5.34 9 4.68 9 4 9 C1.98217268 6.09432866 0.64505596 3.48330216 0 0 Z " fill="#5F5F5F" transform="translate(335,353)"/>
<path d="M0 0 C0.33 0.99 0.66 1.98 1 3 C0.01 3.495 0.01 3.495 -1 4 C-2.0409066 5.64142963 -3.04504326 7.30712215 -4 9 C-5 7 -5 7 -4.25 3.9375 C-3.8375 2.968125 -3.425 1.99875 -3 1 C-2.01 0.67 -1.02 0.34 0 0 Z " fill="#646464" transform="translate(244,413)"/>
<path d="M0 0 C0.66 0.99 1.32 1.98 2 3 C5.06556598 3.73343428 5.06556598 3.73343428 8 4 C8 4.33 8 4.66 8 5 C4.7 5 1.4 5 -2 5 C-2 3.68 -2 2.36 -2 1 C-1.34 0.67 -0.68 0.34 0 0 Z " fill="#56B096" transform="translate(318,309)"/>
<path d="M0 0 C1.5 1.375 1.5 1.375 3 3 C3 3.66 3 4.32 3 5 C3.66 5 4.32 5 5 5 C4.67 5.99 4.34 6.98 4 8 C3.34 8 2.68 8 2 8 C2 7.34 2 6.68 2 6 C1.34 6 0.68 6 0 6 C0 4.02 0 2.04 0 0 Z " fill="#2CEAC8" transform="translate(379,287)"/>
<path d="M0 0 C3.3556206 2.2370804 3.19278041 2.42517038 4 6 C4.66 6.33 5.32 6.66 6 7 C5.67 7.99 5.34 8.98 5 10 C3.5 8.625 3.5 8.625 2 7 C2 6.34 2 5.68 2 5 C1.34 5 0.68 5 0 5 C0 3.35 0 1.7 0 0 Z " fill="#25E9C7" transform="translate(369,271)"/>
<path d="M0 0 C0.66 0 1.32 0 2 0 C2 0.66 2 1.32 2 2 C2.66 2 3.32 2 4 2 C4.33 3.98 4.66 5.96 5 8 C2.5 5.6875 2.5 5.6875 0 3 C0 2.01 0 1.02 0 0 Z " fill="#616161" transform="translate(370,410)"/>
<path d="M0 0 C0 0.66 0 1.32 0 2 C-0.66 2 -1.32 2 -2 2 C-2.33 3.98 -2.66 5.96 -3 8 C-3.66 8 -4.32 8 -5 8 C-4.74438677 5.6568787 -4.40729228 3.32156597 -4 1 C-2 0 -2 0 0 0 Z " fill="#797979" transform="translate(253,399)"/>
<path d="M0 0 C3.3 0.66 6.6 1.32 10 2 C10.33 2.99 10.66 3.98 11 5 C10.34 5 9.68 5 9 5 C9 4.34 9 3.68 9 3 C6.03 3 3.06 3 0 3 C0 2.01 0 1.02 0 0 Z " fill="#717171" transform="translate(394,322)"/>
<path d="M0 0 C1.485 0.99 1.485 0.99 3 2 C3 2.99 3 3.98 3 5 C3.66 5 4.32 5 5 5 C5.33 6.65 5.66 8.3 6 10 C5.67 9.34 5.34 8.68 5 8 C4.34 8 3.68 8 3 8 C0.95830515 5.09451118 0 3.59857954 0 0 Z " fill="#0C513A" transform="translate(382,285)"/>
<path d="M0 0 C0.33 0.66 0.66 1.32 1 2 C1.66 2 2.32 2 3 2 C3 2.66 3 3.32 3 4 C2.34 4 1.68 4 1 4 C1 4.66 1 5.32 1 6 C-0.32 5.67 -1.64 5.34 -3 5 C-1.125 1.125 -1.125 1.125 0 0 Z " fill="#D2DDDB" transform="translate(338,250)"/>
<path d="M0 0 C0.99 0 1.98 0 3 0 C2.67 1.65 2.34 3.3 2 5 C0.68 5.33 -0.64 5.66 -2 6 C-2 5.01 -2 4.02 -2 3 C-1.34 3 -0.68 3 0 3 C0 2.01 0 1.02 0 0 Z " fill="#555555" transform="translate(172,390)"/>
<path d="M0 0 C0.66 0 1.32 0 2 0 C2 0.66 2 1.32 2 2 C2.66 2 3.32 2 4 2 C4.33 3.98 4.66 5.96 5 8 C4.34 8 3.68 8 3 8 C2.67 6.35 2.34 4.7 2 3 C1.34 3 0.68 3 0 3 C0 2.01 0 1.02 0 0 Z " fill="#7F7F7F" transform="translate(353,382)"/>
<path d="M0 0 C0.66 0 1.32 0 2 0 C2 0.66 2 1.32 2 2 C1.34 2 0.68 2 0 2 C-0.33 3.98 -0.66 5.96 -1 8 C-1.99 8.33 -2.98 8.66 -4 9 C-2.94124926 5.59687262 -1.99097846 2.98646769 0 0 Z " fill="#2E2E2E" transform="translate(179,379)"/>
<path d="M0 0 C0.66 0.33 1.32 0.66 2 1 C2 2.32 2 3.64 2 5 C0.35 5.33 -1.3 5.66 -3 6 C-2.625 3.5625 -2.625 3.5625 -2 1 C-1.34 0.67 -0.68 0.34 0 0 Z " fill="#DFDFDF" transform="translate(203,343)"/>
<path d="M0 0 C0.66 0.33 1.32 0.66 2 1 C1.67 3.31 1.34 5.62 1 8 C-0.32 8.33 -1.64 8.66 -3 9 C-3 8.01 -3 7.02 -3 6 C-2.34 6 -1.68 6 -1 6 C-0.67 4.02 -0.34 2.04 0 0 Z " fill="#E7E7E7" transform="translate(224,306)"/>
<path d="M0 0 C0.93423645 3.01031744 1.04449911 3.86650268 0 7 C-2.0625 7.6875 -2.0625 7.6875 -4 8 C-4 7.34 -4 6.68 -4 6 C-3.34 6 -2.68 6 -2 6 C-1.855625 5.195625 -1.71125 4.39125 -1.5625 3.5625 C-1 1 -1 1 0 0 Z " fill="#0D5646" transform="translate(343,264)"/>
<path d="M0 0 C-0.33 0.99 -0.66 1.98 -1 3 C-1.66 3 -2.32 3 -3 3 C-3 3.99 -3 4.98 -3 6 C-3.66 6 -4.32 6 -5 6 C-5.33 5.01 -5.66 4.02 -6 3 C-4.60722783 0.21445565 -3.01148006 0 0 0 Z " fill="#CAC4C6" transform="translate(345,245)"/>
<path d="M0 0 C1.32 0.66 2.64 1.32 4 2 C4 2.99 4 3.98 4 5 C2.35 4.67 0.7 4.34 -1 4 C-0.67 2.68 -0.34 1.36 0 0 Z " fill="#A6A6A6" transform="translate(346,224)"/>
<path d="M0 0 C2 1.3125 2 1.3125 4 3 C4 3.99 4 4.98 4 6 C4.66 6 5.32 6 6 6 C6 6.66 6 7.32 6 8 C4.68 7.67 3.36 7.34 2 7 C1.34 4.69 0.68 2.38 0 0 Z " fill="#979797" transform="translate(332,198)"/>
<path d="M0 0 C0.66 0 1.32 0 2 0 C2.33 1.65 2.66 3.3 3 5 C0 6 0 6 -3 6 C-2.67 5.01 -2.34 4.02 -2 3 C-1.34 3 -0.68 3 0 3 C0 2.01 0 1.02 0 0 Z " fill="#E9E9E9" transform="translate(300,178)"/>
<path d="M0 0 C0.33 0.99 0.66 1.98 1 3 C1.99 3.33 2.98 3.66 4 4 C4 4.66 4 5.32 4 6 C2.35 6 0.7 6 -1 6 C-0.67 4.02 -0.34 2.04 0 0 Z " fill="#CDCDCD" transform="translate(464,429)"/>
<path d="M0 0 C0.66 0 1.32 0 2 0 C2 4 2 4 0.625 5.75 C-1 7 -1 7 -3 7 C-1.125 2.25 -1.125 2.25 0 0 Z " fill="#474747" transform="translate(150,428)"/>
<path d="M0 0 C1.65 0.33 3.3 0.66 5 1 C1.25 4 1.25 4 -1 4 C-1 4.66 -1 5.32 -1 6 C-1.66 6 -2.32 6 -3 6 C-2.67 5.01 -2.34 4.02 -2 3 C-1.34 3 -0.68 3 0 3 C0 2.01 0 1.02 0 0 Z " fill="#E5E5E5" transform="translate(152,429)"/>
<path d="M0 0 C0.625 1.8125 0.625 1.8125 1 4 C0.01 5.485 0.01 5.485 -1 7 C-1.66 7 -2.32 7 -3 7 C-3.33 7.66 -3.66 8.32 -4 9 C-4 8.01 -4 7.02 -4 6 C-3.34 6 -2.68 6 -2 6 C-1.855625 5.195625 -1.71125 4.39125 -1.5625 3.5625 C-1 1 -1 1 0 0 Z " fill="#39D0B1" transform="translate(345,265)"/>
<path d="M0 0 C2 1.75 2 1.75 4 4 C4 5.32 4 6.64 4 8 C3.34 8 2.68 8 2 8 C0.23537317 4.91190305 0 3.76687864 0 0 Z " fill="#4BC9B0" transform="translate(364,257)"/>
<path d="M0 0 C1.32 0 2.64 0 4 0 C4.33 1.65 4.66 3.3 5 5 C3.68 4.67 2.36 4.34 1 4 C0.67 2.68 0.34 1.36 0 0 Z " fill="#65CEAA" transform="translate(355,247)"/>
<path d="M0 0 C1 4 1 4 0 7 C-1.32 7.33 -2.64 7.66 -4 8 C-2.68 5.36 -1.36 2.72 0 0 Z " fill="#272727" transform="translate(295,182)"/>
</svg>
