<?xml version="1.0" encoding="UTF-8"?>
<!-- Generator: https://ezgif.com/png-to-svg -->
<svg version="1.1" xmlns="http://www.w3.org/2000/svg" width="512" height="512" viewBox="206.727 -295.581 2317.42 2317.42" preserveAspectRatio="xMidYMid meet">
<path d="M0 0 C2.62 0.31 2.62 0.31 4.44 2.12 C5.62 4.31 5.62 4.31 5.62 7.31 C6.28 7.31 6.95 7.31 7.62 7.31 C8.2 8.47 8.77 9.62 9.36 10.81 C14.7 21.48 20.31 31.96 26.53 42.15 C28.98 46.18 31.16 50.25 33.21 54.5 C36.34 60.71 39.83 66.74 43.23 72.81 C45.63 77.11 48 81.43 50.38 85.75 C50.84 86.6 51.31 87.46 51.8 88.33 C54.11 92.55 56.41 96.77 58.69 101 C60.76 104.83 62.96 108.57 65.19 112.31 C69.32 119.23 73.14 126.18 76.65 133.43 C79.26 138.74 82.23 143.76 85.33 148.79 C88.58 154.1 91.34 159.57 94.02 165.19 C95.59 168.41 95.59 168.41 97.82 171.53 C99.62 174.31 99.62 174.31 99.62 177.31 C100.28 177.31 100.95 177.31 101.62 177.31 C102.12 178.33 102.62 179.34 103.13 180.39 C106.81 187.88 110.64 195.17 114.92 202.34 C116.73 205.5 118.34 208.72 119.94 212 C122.94 218.11 126.29 223.93 129.79 229.77 C133.2 235.51 136.35 241.36 139.44 247.28 C141.6 251.42 143.86 255.48 146.25 259.5 C148.75 263.7 150.99 267.98 153.12 272.38 C155.25 276.7 157.48 280.79 160.12 284.81 C162.71 288.74 164.88 292.71 166.94 296.94 C169.59 302.4 172.5 307.61 175.62 312.81 C179.37 319.06 182.72 325.36 185.91 331.91 C187.71 335.47 189.63 338.93 191.62 342.38 C191.96 342.95 192.29 343.53 192.63 344.12 C193.96 346.44 195.3 348.76 196.66 351.08 C197.66 352.79 198.64 354.52 199.62 356.25 C200.2 357.25 200.78 358.25 201.38 359.28 C202.86 362.89 202.99 365.44 202.62 369.31 C201.74 371.36 201.74 371.36 200.5 373.06 C198.31 376.24 196.43 379.46 194.62 382.88 C192.94 386 191.25 388.97 189.12 391.81 C187.19 394.42 185.64 397.06 184.12 399.94 C180.52 406.73 176.4 413.2 172.29 419.7 C169.49 424.17 166.9 428.62 164.61 433.37 C162.79 436.97 160.63 440.38 158.5 443.81 C157.78 444.98 157.78 444.98 157.05 446.16 C154.69 450.01 152.3 453.84 149.89 457.65 C145.72 464.28 141.66 470.88 137.98 477.8 C136.14 481.2 134.15 484.51 132.14 487.81 C131.07 489.58 130.02 491.37 128.98 493.16 C128.45 494.08 127.92 494.99 127.38 495.94 C126.9 496.78 126.42 497.61 125.92 498.48 C125.49 499.08 125.07 499.69 124.62 500.31 C123.97 500.31 123.3 500.31 122.62 500.31 C122.52 501.04 122.41 501.77 122.3 502.52 C121.58 505.51 120.54 507.46 118.89 510.04 C118.34 510.93 117.78 511.82 117.21 512.73 C116.62 513.64 116.04 514.56 115.44 515.5 C114.3 517.31 113.16 519.11 112.02 520.92 C111.46 521.81 110.9 522.7 110.32 523.61 C108.61 526.33 106.93 529.06 105.26 531.8 C104.78 532.6 104.29 533.39 103.8 534.21 C102.5 536.39 102.5 536.39 101.62 539.31 C100.97 539.31 100.3 539.31 99.62 539.31 C99.5 539.89 99.38 540.47 99.25 541.06 C98.62 543.34 97.74 545.24 96.62 547.31 C95.97 547.31 95.3 547.31 94.62 547.31 C94.51 548.04 94.4 548.78 94.29 549.53 C93.59 552.44 92.63 554.32 91.04 556.83 C90.5 557.68 89.97 558.53 89.42 559.41 C88.85 560.3 88.28 561.2 87.69 562.12 C86.81 563.52 86.81 563.52 85.92 564.94 C84.16 567.74 82.39 570.53 80.62 573.31 C78.81 576.18 77 579.06 75.19 581.94 C74.57 582.92 74.57 582.92 73.94 583.92 C71.24 588.25 68.76 592.66 66.36 597.17 C61.04 606.79 55.2 616.14 49.44 625.5 C48.93 626.32 48.43 627.14 47.91 627.99 C46.95 629.55 45.98 631.11 45.01 632.66 C44.37 633.71 44.37 633.71 43.71 634.79 C43.33 635.4 42.95 636.01 42.56 636.64 C41.47 638.47 41.47 638.47 40.62 641.31 C39.97 641.31 39.3 641.31 38.62 641.31 C38.46 642.17 38.46 642.17 38.3 643.05 C37.53 645.62 36.43 647.27 34.88 649.44 C31.61 654.17 29.07 659.12 26.62 664.31 C25.97 664.31 25.3 664.31 24.62 664.31 C24.5 664.89 24.38 665.47 24.25 666.06 C23.62 668.34 22.74 670.24 21.62 672.31 C20.97 672.31 20.3 672.31 19.62 672.31 C19.52 673.04 19.41 673.77 19.29 674.52 C18.58 677.49 17.56 679.41 15.93 681.97 C15.38 682.84 14.83 683.71 14.27 684.61 C13.69 685.52 13.1 686.44 12.5 687.38 C11.31 689.27 10.12 691.16 8.93 693.05 C8.36 693.96 7.78 694.87 7.19 695.8 C2.4 703.48 -2.03 711.38 -6.38 719.31 C-7.03 719.31 -7.7 719.31 -8.38 719.31 C-8.47 719.84 -8.56 720.37 -8.65 720.91 C-10.41 726.76 -14.27 732.06 -17.38 737.31 C-17.75 737.95 -18.12 738.58 -18.5 739.23 C-19.58 741.06 -20.66 742.87 -21.75 744.69 C-22.4 745.77 -23.04 746.85 -23.71 747.96 C-24.26 748.74 -24.81 749.51 -25.38 750.31 C-26.03 750.31 -26.7 750.31 -27.38 750.31 C-27.53 751.36 -27.53 751.36 -27.69 752.44 C-28.47 755.7 -29.8 758.36 -31.38 761.31 C-32.03 761.31 -32.7 761.31 -33.38 761.31 C-33.62 761.99 -33.87 762.67 -34.12 763.38 C-35.32 766.17 -36.73 768.73 -38.25 771.36 C-39.37 773.3 -40.47 775.26 -41.56 777.21 C-50.18 792.67 -50.18 792.67 -53.38 797.31 C-54.03 797.31 -54.7 797.31 -55.38 797.31 C-55.49 798.04 -55.6 798.77 -55.71 799.52 C-56.41 802.47 -57.42 804.39 -59.04 806.94 C-59.58 807.8 -60.12 808.67 -60.68 809.56 C-61.26 810.47 -61.84 811.38 -62.44 812.31 C-63.63 814.2 -64.81 816.09 -66 817.98 C-66.58 818.89 -67.16 819.81 -67.75 820.75 C-69.84 824.05 -71.89 827.36 -73.94 830.69 C-74.52 831.62 -75.1 832.56 -75.69 833.52 C-77.21 836.04 -78.67 838.58 -80.12 841.13 C-82.73 845.67 -85.41 850.16 -88.07 854.66 C-89.11 856.41 -90.14 858.16 -91.18 859.91 C-95.29 866.86 -99.47 873.76 -103.72 880.61 C-104.98 882.66 -106.2 884.72 -107.38 886.81 C-109.77 891.08 -112.39 895.2 -114.98 899.35 C-117.11 902.81 -119.11 906.34 -121.11 909.87 C-125.56 917.7 -130.24 925.38 -134.95 933.06 C-139.23 940.05 -143.42 947.08 -147.46 954.21 C-150.69 959.9 -154.08 965.49 -157.5 971.06 C-158.67 972.97 -159.84 974.89 -161.01 976.8 C-161.57 977.72 -162.13 978.64 -162.71 979.58 C-164.33 982.25 -165.94 984.92 -167.54 987.59 C-170.49 992.51 -173.51 997.37 -176.54 1002.23 C-178.31 1005.2 -179.87 1008.21 -181.38 1011.31 C-182.03 1011.31 -182.7 1011.31 -183.38 1011.31 C-183.47 1012.3 -183.47 1012.3 -183.56 1013.31 C-184.68 1017.43 -186.71 1020.97 -189.38 1024.31 C-190.03 1024.31 -190.7 1024.31 -191.38 1024.31 C-191.47 1025.02 -191.57 1025.73 -191.67 1026.46 C-192.5 1029.8 -193.86 1032.09 -195.69 1035 C-196.37 1036.08 -197.05 1037.17 -197.75 1038.29 C-198.11 1038.85 -198.46 1039.42 -198.83 1040 C-200.68 1042.93 -202.51 1045.86 -204.34 1048.8 C-204.69 1049.37 -205.05 1049.94 -205.42 1050.53 C-208.66 1055.74 -211.72 1061.02 -214.7 1066.38 C-216.4 1069.36 -218.21 1072.26 -220.03 1075.17 C-222.39 1078.93 -224.66 1082.75 -226.94 1086.56 C-227.45 1087.42 -227.97 1088.28 -228.5 1089.17 C-231.2 1093.67 -233.89 1098.17 -236.58 1102.68 C-237.61 1104.41 -238.65 1106.14 -239.69 1107.88 C-240.44 1109.14 -240.44 1109.14 -241.21 1110.42 C-243.83 1114.78 -246.49 1119.1 -249.25 1123.38 C-251.33 1126.6 -253.24 1129.86 -255.04 1133.25 C-258.4 1139.45 -262.03 1145.48 -265.71 1151.5 C-266.81 1153.31 -267.91 1155.12 -269.01 1156.93 C-272.9 1163.32 -276.84 1169.66 -280.95 1175.91 C-282.38 1178.32 -283.41 1180.69 -284.38 1183.31 C-285.03 1183.31 -285.7 1183.31 -286.38 1183.31 C-286.46 1184 -286.54 1184.69 -286.62 1185.39 C-287.57 1189.07 -289.38 1191.87 -291.44 1195 C-292.34 1196.41 -293.24 1197.83 -294.14 1199.24 C-294.65 1200.03 -295.16 1200.82 -295.68 1201.64 C-298.68 1206.37 -301.63 1211.14 -304.57 1215.92 C-305.6 1217.58 -306.63 1219.25 -307.66 1220.91 C-311.31 1226.82 -314.8 1232.78 -318.06 1238.91 C-319.72 1241.94 -321.53 1244.85 -323.39 1247.75 C-324.44 1249.35 -324.44 1249.35 -325.38 1251.31 C-326.03 1251.31 -326.7 1251.31 -327.38 1251.31 C-327.61 1252.13 -327.84 1252.95 -328.08 1253.8 C-329.64 1258.03 -331.74 1261.66 -334.06 1265.5 C-334.51 1266.25 -334.96 1267 -335.41 1267.77 C-338.47 1272.88 -341.63 1277.9 -344.86 1282.9 C-346.72 1285.85 -348.4 1288.88 -350.06 1291.94 C-351.38 1294.33 -352.77 1296.67 -354.18 1299 C-354.7 1299.88 -355.23 1300.76 -355.78 1301.66 C-356.3 1302.54 -356.83 1303.41 -357.38 1304.31 C-358.31 1305.86 -359.23 1307.41 -360.16 1308.96 C-361.62 1311.4 -363.09 1313.83 -364.55 1316.27 C-367.23 1320.73 -369.9 1325.2 -372.57 1329.67 C-381.27 1344.21 -381.27 1344.21 -385.25 1350.38 C-387.96 1354.58 -390.35 1358.89 -392.71 1363.3 C-394.4 1366.36 -396.19 1369.33 -398.04 1372.3 C-398.75 1373.45 -399.46 1374.6 -400.17 1375.75 C-400.54 1376.34 -400.9 1376.93 -401.28 1377.53 C-403.05 1380.41 -404.81 1383.29 -406.56 1386.18 C-406.91 1386.75 -407.25 1387.32 -407.61 1387.91 C-408.68 1389.67 -409.75 1391.43 -410.81 1393.19 C-411.18 1393.8 -411.55 1394.4 -411.93 1395.03 C-413.76 1398.05 -415.59 1401.07 -417.42 1404.09 C-418.61 1406.05 -419.79 1408 -420.98 1409.96 C-422.24 1412.03 -423.5 1414.11 -424.75 1416.19 C-425.4 1417.26 -426.04 1418.33 -426.71 1419.43 C-428.39 1422.34 -429.91 1425.29 -431.38 1428.31 C-432.04 1428.31 -432.69 1428.31 -433.38 1428.31 C-433.46 1429.29 -433.46 1429.29 -433.54 1430.28 C-434.75 1434.69 -437.19 1438.08 -439.69 1441.88 C-440.79 1443.58 -441.88 1445.29 -442.98 1446.99 C-443.54 1447.87 -444.1 1448.75 -444.68 1449.65 C-447.38 1453.89 -449.98 1458.19 -452.56 1462.5 C-453.06 1463.33 -453.56 1464.16 -454.07 1465.02 C-457.61 1470.95 -461 1476.95 -464.35 1482.99 C-466.76 1487.29 -469.3 1491.43 -472.11 1495.48 C-473.3 1497.2 -474.4 1498.97 -475.5 1500.75 C-477.5 1503.48 -478.28 1504.16 -481.38 1505.31 C-484.46 1505.56 -484.46 1505.56 -488.17 1505.56 C-488.86 1505.56 -489.55 1505.57 -490.25 1505.57 C-492.56 1505.58 -494.88 1505.57 -497.19 1505.56 C-498.86 1505.56 -500.53 1505.56 -502.19 1505.57 C-506.79 1505.57 -511.38 1505.57 -515.98 1505.56 C-520.93 1505.55 -525.88 1505.56 -530.84 1505.56 C-540.54 1505.57 -550.24 1505.56 -559.95 1505.55 C-571.24 1505.54 -582.53 1505.54 -593.82 1505.54 C-613.96 1505.54 -634.09 1505.53 -654.23 1505.52 C-673.79 1505.5 -693.35 1505.5 -712.91 1505.5 C-714.72 1505.5 -714.72 1505.5 -716.56 1505.5 C-717.77 1505.5 -718.97 1505.5 -720.21 1505.5 C-742.45 1505.5 -764.69 1505.49 -786.93 1505.48 C-794.81 1505.48 -802.69 1505.48 -810.57 1505.48 C-820.17 1505.48 -829.76 1505.47 -839.35 1505.47 C-844.25 1505.46 -849.15 1505.46 -854.05 1505.46 C-858.53 1505.46 -863 1505.46 -867.48 1505.45 C-869.11 1505.45 -870.74 1505.45 -872.36 1505.45 C-874.56 1505.45 -876.76 1505.45 -878.95 1505.44 C-880.18 1505.44 -881.4 1505.44 -882.66 1505.44 C-885.38 1505.31 -885.38 1505.31 -886.38 1504.31 C-887.5 1497.11 -883.99 1492.66 -880.12 1486.81 C-878.95 1484.99 -877.78 1483.17 -876.61 1481.34 C-876.05 1480.48 -875.48 1479.61 -874.9 1478.71 C-872.94 1475.64 -871.16 1472.5 -869.38 1469.31 C-867.29 1465.74 -865.19 1462.19 -863.09 1458.63 C-861.16 1455.37 -859.25 1452.1 -857.38 1448.81 C-854.67 1444.05 -851.87 1439.34 -849.09 1434.63 C-846.87 1430.87 -844.68 1427.1 -842.52 1423.31 C-839.25 1417.62 -835.92 1411.96 -832.6 1406.29 C-829.12 1400.34 -825.69 1394.36 -822.38 1388.31 C-821.72 1388.31 -821.06 1388.31 -820.38 1388.31 C-820.26 1387.58 -820.15 1386.85 -820.04 1386.09 C-819.34 1383.17 -818.37 1381.31 -816.75 1378.79 C-816.21 1377.94 -815.68 1377.09 -815.12 1376.22 C-814.55 1375.32 -813.97 1374.42 -813.38 1373.5 C-809.25 1366.98 -805.22 1360.45 -801.5 1353.69 C-798.51 1348.27 -795.34 1343.04 -791.97 1337.85 C-790.43 1335.4 -789.05 1332.93 -787.69 1330.38 C-781.81 1319.39 -775.26 1308.71 -768.5 1298.25 C-764.61 1292.21 -761.25 1285.89 -757.91 1279.53 C-755.45 1274.89 -752.89 1270.51 -749.81 1266.25 C-747.02 1262.36 -744.88 1258.47 -742.82 1254.16 C-740.33 1249.26 -737.42 1244.61 -734.56 1239.93 C-732.84 1237.1 -731.19 1234.23 -729.55 1231.35 C-726.85 1226.67 -724.04 1222.06 -721.25 1217.44 C-716.37 1209.32 -711.52 1201.19 -706.74 1193.02 C-704.26 1188.78 -701.71 1184.6 -699.12 1180.44 C-696.19 1175.71 -693.5 1170.9 -690.87 1165.99 C-689.31 1163.19 -687.62 1160.51 -685.88 1157.81 C-683.64 1154.36 -681.56 1150.89 -679.62 1147.25 C-676.4 1141.2 -672.79 1135.4 -669.16 1129.59 C-666.88 1125.92 -664.79 1122.43 -663.38 1118.31 C-662.72 1118.31 -662.06 1118.31 -661.38 1118.31 C-661.29 1117.8 -661.21 1117.28 -661.12 1116.75 C-658.66 1108.75 -652.65 1101.28 -648.24 1094.23 C-644.78 1088.67 -641.51 1083.06 -638.38 1077.31 C-634.66 1070.65 -630.9 1064.04 -626.75 1057.62 C-624.59 1054.29 -622.6 1050.95 -620.75 1047.44 C-617.18 1040.73 -613.1 1034.34 -609.04 1027.92 C-606.24 1023.45 -603.65 1018.99 -601.35 1014.23 C-599.24 1010.08 -596.61 1006.22 -594.09 1002.31 C-592.01 999.05 -590.07 995.8 -588.38 992.31 C-586.7 988.87 -584.79 985.68 -582.73 982.46 C-580.12 978.32 -577.67 974.09 -575.19 969.88 C-574.33 968.43 -574.33 968.43 -573.46 966.95 C-570.42 961.79 -567.39 956.63 -564.35 951.46 C-563.95 950.78 -563.54 950.09 -563.12 949.38 C-562.72 948.69 -562.32 948 -561.9 947.3 C-558.89 942.17 -555.84 937.07 -552.77 931.97 C-549.51 926.56 -546.31 921.11 -543.11 915.66 C-540.35 910.96 -537.56 906.29 -534.75 901.62 C-530.13 893.96 -525.6 886.24 -521.33 878.39 C-517.09 870.63 -512.44 863.14 -507.82 855.61 C-503.12 847.96 -498.58 840.25 -494.38 832.31 C-493.71 832.31 -493.06 832.31 -492.38 832.31 C-492.28 831.78 -492.19 831.25 -492.09 830.7 C-491.14 827.54 -489.6 824.98 -487.94 822.12 C-487.58 821.51 -487.23 820.9 -486.86 820.28 C-485.71 818.28 -484.54 816.3 -483.38 814.31 C-482.6 812.98 -481.82 811.65 -481.04 810.32 C-477.03 803.45 -472.96 796.62 -468.85 789.81 C-468.35 788.96 -467.84 788.12 -467.31 787.25 C-466.8 786.41 -466.3 785.56 -465.77 784.69 C-462.67 779.53 -459.67 774.33 -456.75 769.06 C-453.46 763.14 -449.96 757.39 -446.32 751.67 C-442.21 745.16 -438.43 738.47 -434.64 731.77 C-431.54 726.29 -428.34 720.92 -424.88 715.66 C-423.32 713.23 -421.88 710.74 -420.46 708.23 C-417.03 702.17 -413.51 696.17 -410.02 690.15 C-408.88 688.19 -407.75 686.23 -406.61 684.27 C-404.78 681.11 -402.95 677.96 -401.12 674.81 C-400.56 673.83 -399.99 672.86 -399.41 671.85 C-396.01 666 -392.47 660.27 -388.77 654.61 C-387.24 652.29 -387.24 652.29 -386.38 649.31 C-385.71 649.31 -385.06 649.31 -384.38 649.31 C-384.27 648.59 -384.16 647.86 -384.05 647.11 C-383.32 644.09 -382.25 642.12 -380.57 639.51 C-379.73 638.17 -379.73 638.17 -378.86 636.8 C-378.27 635.88 -377.67 634.95 -377.06 634 C-373.17 627.89 -369.48 621.86 -366.38 615.31 C-365.72 615.31 -365.05 615.31 -364.38 615.31 C-364.3 614.64 -364.23 613.97 -364.16 613.28 C-363.1 609.28 -361.07 606.31 -358.81 602.88 C-354.76 596.55 -350.93 590.15 -347.26 583.59 C-345.46 580.47 -343.58 577.42 -341.66 574.37 C-339.56 571.01 -337.56 567.6 -335.56 564.19 C-335.13 563.45 -334.7 562.72 -334.25 561.96 C-331.53 557.31 -328.84 552.63 -326.19 547.94 C-323.28 542.82 -320.23 537.84 -317.02 532.91 C-314.28 528.58 -311.81 524.1 -309.33 519.62 C-304.92 511.64 -300.28 503.9 -295.22 496.3 C-293.6 493.67 -292.4 491.22 -291.38 488.31 C-290.72 488.31 -290.05 488.31 -289.38 488.31 C-289.27 487.31 -289.27 487.31 -289.17 486.3 C-288.08 482.19 -285.94 479.09 -283.62 475.56 C-282.7 474.12 -281.78 472.69 -280.87 471.25 C-280.43 470.56 -279.99 469.88 -279.54 469.17 C-278.2 467.03 -276.95 464.85 -275.75 462.62 C-273.21 457.93 -270.39 453.42 -267.57 448.88 C-265.17 444.99 -262.8 441.09 -260.44 437.19 C-260.05 436.55 -259.66 435.91 -259.26 435.25 C-257.67 432.62 -256.35 430.24 -255.38 427.31 C-254.72 427.31 -254.05 427.31 -253.38 427.31 C-253.26 426.74 -253.14 426.16 -253.02 425.56 C-252.34 423.18 -251.41 421.42 -250.12 419.31 C-249.68 418.57 -249.24 417.83 -248.78 417.06 C-248.32 416.3 -247.85 415.54 -247.38 414.75 C-246.46 413.23 -245.54 411.71 -244.62 410.18 C-244.22 409.51 -243.81 408.84 -243.39 408.15 C-242.23 406.18 -242.23 406.18 -241.38 403.31 C-240.72 403.31 -240.05 403.31 -239.38 403.31 C-239.29 402.8 -239.21 402.28 -239.12 401.75 C-236.72 393.94 -230.93 386.56 -226.71 379.61 C-224.08 375.25 -221.56 370.91 -219.38 366.31 C-218.72 366.31 -218.05 366.31 -217.38 366.31 C-217.24 365.53 -217.24 365.53 -217.1 364.72 C-216.12 361.46 -214.46 358.67 -212.75 355.75 C-212.21 354.82 -212.21 354.82 -211.67 353.87 C-208.92 349.16 -206.01 344.57 -203.05 339.99 C-199.88 334.92 -197.05 329.66 -194.38 324.31 C-193.72 324.31 -193.05 324.31 -192.38 324.31 C-192.29 323.62 -192.2 322.94 -192.12 322.23 C-191.2 318.62 -189.46 315.8 -187.5 312.69 C-186.68 311.35 -185.86 310.02 -185.04 308.68 C-184.6 307.98 -184.17 307.27 -183.72 306.54 C-181.37 302.65 -179.13 298.7 -176.88 294.75 C-173.24 288.41 -169.45 282.22 -165.44 276.1 C-162.68 271.86 -160.22 267.52 -157.85 263.05 C-155.64 258.95 -153.26 254.95 -150.89 250.94 C-149.63 248.76 -148.47 246.58 -147.38 244.31 C-146.72 244.31 -146.05 244.31 -145.38 244.31 C-145.21 243.21 -145.21 243.21 -145.04 242.09 C-144.34 239.17 -143.37 237.31 -141.75 234.79 C-141.21 233.94 -140.68 233.1 -140.12 232.22 C-139.26 230.87 -139.26 230.87 -138.38 229.5 C-134.44 223.26 -130.55 217.03 -127 210.56 C-122.53 202.46 -117.75 194.54 -112.97 186.61 C-109.23 180.41 -105.53 174.19 -101.88 167.94 C-98.66 162.43 -95.31 157.05 -91.85 151.7 C-89.77 148.34 -88.06 144.88 -86.38 141.31 C-85.72 141.31 -85.05 141.31 -84.38 141.31 C-84.26 140.58 -84.15 139.84 -84.03 139.08 C-83.35 136.22 -82.44 134.46 -80.83 132.02 C-80.31 131.22 -79.8 130.43 -79.27 129.61 C-78.72 128.79 -78.18 127.97 -77.62 127.12 C-73.91 121.48 -70.59 115.86 -67.64 109.78 C-65.52 105.64 -62.97 101.78 -60.44 97.88 C-56.68 92.02 -53.09 86.17 -49.84 80.01 C-46.97 74.73 -43.8 69.62 -40.69 64.48 C-38.26 60.47 -35.85 56.45 -33.44 52.44 C-32.93 51.59 -32.42 50.74 -31.9 49.87 C-28.19 43.69 -24.53 37.49 -20.89 31.27 C-18.36 26.95 -15.77 22.69 -13.12 18.44 C-10.06 13.5 -7.22 8.49 -4.5 3.36 C-2.86 0.38 -2.86 0.38 0 0 Z " fill="#00FED3" transform="translate(1218.375,212.6875)"/>
<path d="M0 0 C0.99 -0 0.99 -0 2 -0.01 C4.22 -0.01 6.43 0 8.64 0.01 C10.22 0.01 11.8 0.01 13.38 0.01 C16.73 0.02 20.08 0.02 23.43 0.04 C27.51 0.05 31.59 0.06 35.67 0.06 C53.63 0.06 71.59 0.26 89.54 0.66 C114.24 1.2 138.94 1.48 163.64 1.66 C170.6 1.71 177.56 1.77 184.52 1.82 C203.03 1.98 221.54 2.13 240.05 2.26 C270.47 2.49 300.89 2.76 331.31 3.13 C337.21 3.21 343.12 3.27 349.03 3.33 C357.36 3.41 365.69 3.52 374.02 3.69 C377.61 3.76 381.2 3.82 384.78 3.85 C388.58 3.87 392.37 3.96 396.16 4.06 C397.78 4.06 397.78 4.06 399.43 4.06 C406.44 4.32 406.44 4.32 409.44 7 C410.97 9.02 412.25 11.03 413.48 13.24 C414.1 14.17 414.71 15.1 415.35 16.06 C416.48 18.24 416.48 18.24 416.48 21.24 C417.14 21.24 417.8 21.24 418.48 21.24 C420.48 24.73 422.48 28.23 424.41 31.76 C429.09 40.24 434.05 48.47 439.31 56.6 C441.96 60.7 444.31 64.8 446.44 69.19 C448.44 73.15 450.8 76.9 453.1 80.68 C454.17 82.45 455.24 84.22 456.31 85.99 C456.84 86.87 457.38 87.75 457.92 88.66 C460.22 92.48 462.48 96.33 464.73 100.18 C468.3 106.28 471.95 112.32 475.69 118.31 C477.25 120.88 478.75 123.47 480.24 126.09 C482.81 130.55 485.47 134.97 488.1 139.4 C497.74 155.59 497.74 155.59 502.29 163.81 C505.84 170.21 509.62 176.45 513.46 182.68 C516.88 188.23 520.13 193.85 523.34 199.52 C526.34 204.78 529.49 209.95 532.62 215.13 C537.36 223.01 541.99 230.96 546.58 238.93 C549.62 244.19 552.79 249.29 556.19 254.31 C557.73 256.63 559.07 259.02 560.35 261.49 C563.22 266.88 566.39 272.04 569.64 277.2 C574.48 285.23 574.48 285.23 574.48 288.24 C575.14 288.24 575.8 288.24 576.48 288.24 C576.74 288.81 577.01 289.39 577.29 289.97 C581.3 298.26 586.09 306.03 591.1 313.74 C594.48 318.96 594.48 318.96 594.48 322.24 C595.14 322.24 595.8 322.24 596.48 322.24 C597.04 323.4 597.6 324.56 598.17 325.75 C600.31 330.03 602.77 334.03 605.35 338.06 C608.18 342.51 610.94 346.95 613.41 351.62 C616.07 356.62 619 361.42 621.98 366.24 C625.49 371.94 628.87 377.66 632 383.57 C634.45 388 637.21 392.24 639.94 396.49 C641.48 399.24 641.48 399.24 641.48 402.24 C642.14 402.24 642.8 402.24 643.48 402.24 C644.35 403.86 644.35 403.86 645.24 405.51 C650.25 414.7 655.49 423.66 661.19 432.43 C664.35 437.33 667.2 442.32 669.95 447.45 C672.43 451.99 675.08 456.43 677.73 460.87 C678.87 462.8 680.02 464.72 681.16 466.65 C681.72 467.6 682.28 468.54 682.86 469.51 C685.59 474.12 688.29 478.75 691 483.37 C692.91 486.63 694.86 489.87 696.87 493.07 C697.44 493.97 697.44 493.97 698.01 494.89 C699.03 496.5 700.05 498.1 701.08 499.7 C702.48 502.24 702.48 502.24 702.48 505.24 C703.14 505.24 703.8 505.24 704.48 505.24 C704.99 506.21 704.99 506.21 705.51 507.19 C708.93 513.58 712.59 519.77 716.45 525.91 C717.97 528.4 719.41 530.9 720.82 533.45 C723.75 538.79 726.86 544.01 729.98 549.24 C733.15 554.57 736.32 559.91 739.38 565.31 C739.79 566.02 740.19 566.73 740.61 567.47 C741.48 569.24 741.48 569.24 741.48 571.24 C742.14 571.24 742.8 571.24 743.48 571.24 C743.77 571.86 744.06 572.48 744.36 573.11 C746.91 578.39 749.71 583.23 753.02 588.06 C754.84 590.79 756.39 593.62 757.95 596.5 C759.94 600.08 762.02 603.6 764.1 607.12 C767.78 613.35 771.42 619.6 775.04 625.87 C779.4 633.42 783.84 640.91 788.34 648.37 C790.18 651.4 792 654.45 793.82 657.49 C794.97 659.4 796.12 661.3 797.27 663.21 C799.14 666.32 801 669.44 802.85 672.56 C803.49 673.61 804.13 674.67 804.79 675.76 C805.4 676.78 806 677.8 806.62 678.86 C807.17 679.77 807.72 680.69 808.29 681.63 C809.57 684.46 809.88 686.18 809.48 689.24 C807.48 691.24 807.48 691.24 804.71 691.49 C803.53 691.49 802.35 691.49 801.13 691.49 C800.47 691.49 799.82 691.49 799.15 691.49 C796.95 691.5 794.75 691.48 792.55 691.47 C790.98 691.47 789.41 691.47 787.84 691.47 C784.5 691.47 781.16 691.46 777.82 691.45 C773.77 691.43 769.72 691.43 765.66 691.43 C747.1 691.43 728.55 691.21 709.99 690.83 C682.8 690.28 655.61 690.01 628.42 689.83 C620.72 689.78 613.02 689.72 605.32 689.66 C602.64 689.64 599.96 689.62 597.29 689.6 C596.62 689.6 595.95 689.59 595.27 689.59 C587.79 689.53 580.32 689.48 572.84 689.42 C572.16 689.42 571.49 689.41 570.79 689.41 C559.76 689.33 548.73 689.25 537.7 689.18 C526.21 689.1 514.72 689.02 503.24 688.93 C496.85 688.88 490.46 688.83 484.08 688.79 C469.52 688.71 454.97 688.56 440.42 688.29 C437.54 688.24 434.66 688.2 431.78 688.17 C427.47 688.1 423.17 687.99 418.86 687.84 C417.34 687.79 415.81 687.76 414.29 687.74 C403.11 687.6 403.11 687.6 399.07 684.24 C397.28 681.98 395.84 679.77 394.48 677.24 C393.86 676.31 393.25 675.37 392.62 674.41 C392.16 673.62 391.7 672.82 391.23 672.01 C390.7 671.1 390.17 670.2 389.63 669.27 C389.11 668.35 388.58 667.44 388.04 666.49 C383.31 658.33 378.45 650.26 373.48 642.24 C372.25 640.25 371.02 638.26 369.79 636.27 C369.18 635.28 368.58 634.3 367.95 633.28 C361.48 622.79 355.05 612.28 348.66 601.74 C348.31 601.15 347.95 600.56 347.58 599.95 C345.85 597.1 344.11 594.24 342.38 591.38 C334.07 577.65 334.07 577.65 325.54 564.06 C318.48 553.02 318.48 553.02 318.48 550.24 C317.82 550.24 317.16 550.24 316.48 550.24 C316.18 549.68 315.89 549.12 315.59 548.54 C307.74 533.84 298.82 519.71 290.02 505.57 C288.5 503.13 286.99 500.69 285.48 498.24 C284.91 497.33 284.34 496.42 283.76 495.47 C283.21 494.58 282.66 493.68 282.09 492.75 C281.59 491.93 281.09 491.12 280.57 490.28 C279.48 488.24 279.48 488.24 279.48 486.24 C278.82 486.24 278.16 486.24 277.48 486.24 C276.92 485.09 276.36 483.93 275.78 482.74 C273.63 478.43 271.18 474.37 268.6 470.31 C267.94 469.26 267.94 469.26 267.27 468.18 C264.98 464.56 262.64 460.97 260.23 457.43 C257.48 453.38 255.22 449.12 252.91 444.81 C251.36 442.03 249.6 439.53 247.7 436.99 C245.78 434.25 244.25 431.3 242.66 428.36 C241.68 426.61 240.59 424.92 239.48 423.24 C232.48 412.74 232.48 412.74 232.48 409.24 C231.82 409.24 231.16 409.24 230.48 409.24 C230.21 408.76 229.94 408.27 229.66 407.77 C227.62 404.06 225.55 400.37 223.43 396.7 C222.9 395.78 222.9 395.78 222.36 394.85 C221.66 393.63 220.95 392.42 220.24 391.21 C218.37 387.96 216.77 384.76 215.48 381.24 C214.82 381.24 214.16 381.24 213.48 381.24 C213.12 380.58 212.77 379.91 212.41 379.22 C209.89 374.52 207.32 369.91 204.41 365.43 C200.11 358.8 196.16 351.96 192.18 345.12 C189.17 339.96 186.03 335.05 182.48 330.24 C179.48 325.69 179.48 325.69 179.48 322.24 C178.82 322.24 178.16 322.24 177.48 322.24 C176.65 320.5 176.65 320.5 175.8 318.72 C173.29 313.7 170.16 309.2 166.92 304.62 C164.56 301.19 162.89 298.51 162.48 294.24 C161.82 294.24 161.16 294.24 160.48 294.24 C158.43 291.34 157.48 289.84 157.48 286.24 C156.82 286.24 156.16 286.24 155.48 286.24 C155.14 285.6 154.8 284.96 154.45 284.29 C151.17 278.19 147.69 272.26 144.02 266.38 C141.91 262.98 139.86 259.54 137.8 256.1 C137.15 255 136.49 253.89 135.81 252.75 C134.48 250.53 133.16 248.31 131.84 246.09 C128.08 239.74 128.08 239.74 123.89 233.67 C121.26 230.1 119.26 226.24 117.17 222.33 C113.95 216.46 110.41 210.77 106.91 205.06 C106.16 203.82 105.41 202.59 104.67 201.36 C103.93 200.16 103.2 198.96 102.47 197.76 C102.12 197.19 101.77 196.61 101.41 196.02 C99.46 192.83 97.47 189.66 95.45 186.5 C93.48 183.24 93.48 183.24 93.48 181.24 C92.82 181.24 92.16 181.24 91.48 181.24 C91.16 180.59 90.85 179.94 90.52 179.27 C87.63 173.34 87.63 173.34 84.16 167.74 C82.48 165.24 82.48 165.24 82.48 163.24 C81.82 163.24 81.16 163.24 80.48 163.24 C80.11 162.56 79.75 161.89 79.37 161.19 C74.78 152.69 69.84 144.45 64.77 136.22 C64.25 135.37 64.25 135.37 63.72 134.51 C61.33 130.63 58.94 126.76 56.55 122.88 C50.34 112.83 44.14 102.77 38.19 92.56 C30.48 79.37 22.42 66.38 14.4 53.38 C11.72 49.03 9.05 44.68 6.38 40.34 C5.14 38.32 3.89 36.3 2.65 34.28 C0.98 31.56 -0.68 28.84 -2.34 26.12 C-2.82 25.33 -3.31 24.54 -3.81 23.73 C-7.32 17.93 -10.62 12.33 -10.4 5.37 C-8.79 -0.37 -5.26 -0.01 0 0 Z " fill="#00FED4" transform="translate(1271.523681640625,1034.757080078125)"/>
<path d="M0 0 C3.03 2.11 4.43 4.98 6.12 8.17 C6.45 8.77 6.79 9.37 7.12 9.99 C7.8 11.21 8.47 12.44 9.14 13.67 C13.1 20.94 17.42 28.01 21.69 35.11 C22.7 36.78 22.7 36.78 23.72 38.5 C24.97 40.57 26.22 42.65 27.47 44.73 C28.29 46.09 28.29 46.09 29.12 47.48 C29.69 48.36 30.26 49.24 30.84 50.15 C32.12 52.48 32.12 52.48 32.12 55.48 C32.79 55.48 33.44 55.48 34.12 55.48 C34.44 56.13 34.75 56.78 35.08 57.46 C37.95 63.36 37.95 63.36 41.44 68.92 C43.12 71.48 43.12 71.48 43.12 74.48 C43.79 74.48 44.44 74.48 45.12 74.48 C45.7 75.54 46.27 76.59 46.86 77.68 C52.14 87.36 57.73 96.8 63.58 106.14 C66.75 111.22 69.75 116.32 72.54 121.62 C74.77 125.65 77.2 129.56 79.62 133.48 C82.53 138.2 85.42 142.89 88 147.79 C91.55 154.52 95.71 160.9 99.81 167.31 C100.36 168.19 100.92 169.07 101.49 169.98 C102 170.77 102.51 171.57 103.03 172.39 C104.12 174.48 104.12 174.48 104.12 177.48 C104.79 177.48 105.44 177.48 106.12 177.48 C106.41 178 106.69 178.52 106.98 179.06 C112.28 188.9 117.69 198.6 123.7 208.02 C126.55 212.51 129.14 217.09 131.64 221.79 C133.96 225.99 136.53 230.04 139.07 234.12 C141.42 237.96 143.64 241.86 145.85 245.77 C148.76 250.89 151.78 255.94 154.81 260.98 C155.83 262.68 156.85 264.37 157.87 266.07 C159.56 268.87 161.24 271.68 162.93 274.48 C164.75 277.5 166.57 280.52 168.38 283.54 C169.23 284.96 169.23 284.96 170.11 286.41 C170.64 287.29 171.16 288.17 171.7 289.08 C172.41 290.25 172.41 290.25 173.12 291.44 C174.12 293.48 174.12 293.48 174.12 296.48 C174.79 296.48 175.44 296.48 176.12 296.48 C176.41 296.99 176.69 297.5 176.97 298.03 C180.58 304.56 184.31 311.03 188.06 317.48 C188.66 318.51 189.25 319.54 189.87 320.6 C193.03 326.04 196.28 331.33 199.96 336.45 C201.33 338.84 201.89 340.73 202.12 343.48 C201.46 344.47 200.81 345.46 200.12 346.48 C197.38 346.91 197.38 346.91 193.83 346.99 C193.18 347.01 192.54 347.02 191.87 347.04 C189.71 347.1 187.54 347.13 185.38 347.16 C183.84 347.19 182.3 347.23 180.76 347.26 C164.07 347.61 147.38 347.62 130.69 347.61 C126.14 347.61 121.59 347.61 117.05 347.62 C108.2 347.62 99.35 347.62 90.51 347.62 C83.32 347.61 76.14 347.61 68.95 347.61 C67.41 347.61 67.41 347.61 65.83 347.61 C63.74 347.62 61.65 347.62 59.55 347.62 C40.05 347.62 20.55 347.62 1.04 347.61 C-15.69 347.61 -32.42 347.61 -49.15 347.61 C-68.64 347.62 -88.14 347.62 -107.63 347.62 C-109.7 347.61 -111.78 347.61 -113.85 347.61 C-114.87 347.61 -115.89 347.61 -116.94 347.61 C-124.13 347.61 -131.33 347.61 -138.52 347.62 C-147.26 347.62 -156 347.62 -164.74 347.61 C-169.2 347.61 -173.66 347.61 -178.11 347.61 C-182.19 347.62 -186.26 347.61 -190.34 347.61 C-191.82 347.61 -193.3 347.61 -194.77 347.61 C-196.77 347.61 -198.78 347.61 -200.78 347.61 C-201.89 347.61 -203 347.61 -204.15 347.61 C-206.88 347.48 -206.88 347.48 -209.88 346.48 C-210.83 343.59 -211.25 341.41 -210.09 338.53 C-208.78 336.21 -207.38 333.97 -205.94 331.73 C-205.41 330.88 -204.88 330.03 -204.33 329.15 C-203.16 327.27 -201.99 325.4 -200.8 323.54 C-197.66 318.55 -194.58 313.52 -191.49 308.5 C-190.46 306.83 -189.43 305.17 -188.4 303.5 C-185.14 298.24 -181.99 292.95 -179.02 287.52 C-176.84 283.65 -174.37 279.98 -171.92 276.28 C-170.22 273.69 -168.86 271.43 -167.88 268.48 C-167.21 268.48 -166.56 268.48 -165.88 268.48 C-165.6 267.76 -165.33 267.05 -165.05 266.31 C-161.99 258.93 -157.77 252.2 -153.27 245.63 C-151.16 242.38 -149.53 238.98 -147.88 235.48 C-147.21 235.48 -146.56 235.48 -145.88 235.48 C-144.8 232.83 -143.78 230.2 -142.88 227.48 C-142.21 227.48 -141.56 227.48 -140.88 227.48 C-140.78 226.96 -140.69 226.43 -140.6 225.89 C-139.61 222.62 -137.96 219.8 -136.25 216.86 C-135.89 216.23 -135.53 215.61 -135.17 214.97 C-132.51 210.42 -129.58 206.14 -126.5 201.87 C-124.31 198.65 -122.54 195.26 -120.71 191.82 C-113.99 179.58 -106.46 167.77 -99.09 155.91 C-94.77 148.95 -90.5 141.95 -86.24 134.94 C-85.5 133.72 -84.76 132.5 -84.02 131.28 C-80.6 125.66 -77.19 120.04 -73.86 114.36 C-73.44 113.65 -73.02 112.93 -72.59 112.19 C-71.53 110.39 -70.49 108.58 -69.44 106.78 C-68.67 105.64 -68.67 105.64 -67.88 104.48 C-67.21 104.48 -66.56 104.48 -65.88 104.48 C-65.72 103.4 -65.72 103.4 -65.56 102.3 C-64.8 99.18 -63.65 97.14 -61.92 94.45 C-61.31 93.48 -60.69 92.52 -60.06 91.53 C-59.4 90.5 -58.74 89.47 -58.06 88.42 C-56.68 86.24 -55.3 84.06 -53.92 81.89 C-53.23 80.8 -52.55 79.72 -51.84 78.6 C-49.1 74.25 -46.44 69.84 -43.81 65.42 C-37.83 55.4 -31.77 45.43 -25.69 35.47 C-23.82 32.39 -21.95 29.31 -20.09 26.23 C-19.46 25.2 -18.84 24.18 -18.2 23.12 C-17.02 21.17 -15.84 19.23 -14.67 17.28 C-3.58 -0.99 -3.58 -0.99 0 0 Z " fill="#00FED5" transform="translate(1452.875,640.51953125)"/>
<path d="M0 0 C0.66 0 1.32 0 2 0 C1.67 0.66 1.34 1.32 1 2 C0.67 1.34 0.34 0.68 0 0 Z " fill="#00FFFF" transform="translate(2398,0)"/>
</svg>
