<?xml version="1.0" encoding="UTF-8"?>
<!-- Generator: https://ezgif.com/png-to-svg -->
<svg version="1.1" xmlns="http://www.w3.org/2000/svg" width="512" height="512" viewBox="-7.492 -7.53 113.579 113.579" preserveAspectRatio="xMidYMid meet">
<path d="M0 0 C0.82 0.14 1.64 0.29 2.48 0.43 C4.47 0.78 6.45 1.14 8.44 1.5 C6.46 6.08 3.22 8.42 -0.56 11.5 C0.98 19.66 3.72 27.28 6.56 35.06 C7.04 36.37 7.51 37.68 7.98 38.99 C9.13 42.16 10.28 45.33 11.44 48.5 C15.18 48.5 16.31 48.31 19.48 46.75 C20.22 46.39 20.97 46.03 21.73 45.66 C22.5 45.27 23.27 44.89 24.06 44.5 C25.59 43.75 27.13 43 28.66 42.25 C29.34 41.91 30.02 41.58 30.71 41.23 C32.44 40.5 32.44 40.5 34.44 40.5 C33.51 43.86 32.49 47.18 31.44 50.5 C31.12 51.63 31.12 51.63 30.8 52.78 C28.23 60.26 22.13 64.5 16.11 69.2 C13.65 71.12 11.24 73.1 8.81 75.06 C1.59 80.83 1.59 80.83 -3.08 80.38 C-12.46 79.33 -21.64 76.96 -30.83 74.86 C-33.28 74.31 -35.72 73.76 -38.17 73.21 C-38.91 73.04 -39.65 72.87 -40.41 72.69 C-48.1 70.88 -48.1 70.88 -55.56 72.5 C-55.56 76.13 -55.56 79.76 -55.56 83.5 C-54.24 79.87 -52.92 76.24 -51.56 72.5 C-39.38 74.38 -39.38 74.38 -34.56 76.5 C-35.01 81.95 -35.01 81.95 -37.46 84.37 C-38.28 84.89 -39.1 85.4 -39.94 85.94 C-40.83 86.51 -41.73 87.09 -42.65 87.68 C-44.09 88.58 -44.09 88.58 -45.56 89.5 C-47.05 90.51 -47.05 90.51 -48.57 91.54 C-54.18 95.29 -54.18 95.29 -56.56 96.5 C-57.55 96.17 -58.54 95.84 -59.56 95.5 C-66.97 70.2 -66.97 70.2 -64.77 62.83 C-62.31 58.64 -58.9 55.71 -55.07 52.77 C-52.99 51.01 -51.82 48.93 -50.5 46.56 C-49.25 44.88 -49.25 44.88 -47.56 43.5 C-39 42.75 -29.69 45.77 -21.38 47.56 C-20.03 47.85 -18.68 48.13 -17.33 48.42 C-14.08 49.11 -10.82 49.8 -7.56 50.5 C-10.2 42.58 -12.84 34.66 -15.56 26.5 C-19.03 35.91 -19.03 35.91 -22.56 45.5 C-26.21 44.79 -26.21 44.79 -29.94 44.06 C-30.7 43.91 -31.47 43.77 -32.26 43.62 C-37.34 42.61 -37.34 42.61 -39.56 41.5 C-37.34 32.9 -34.73 24.47 -31.88 16.06 C-31.28 14.18 -31.28 14.18 -30.67 12.27 C-27.2 2.14 -27.2 2.14 -22.79 -0.35 C-15.33 -2.98 -7.57 -1.38 0 0 Z M-56.56 84.5 C-55.56 86.5 -55.56 86.5 -55.56 86.5 Z " fill="#0EC5BA" transform="translate(65.5625,2.5)"/>
<path d="M0 0 C2.85 1.43 2.92 3.07 3.95 6.06 C4.3 7.08 4.65 8.11 5.02 9.17 C5.38 10.25 5.75 11.33 6.12 12.44 C6.68 14.05 6.68 14.05 7.25 15.7 C10 23.71 10 23.71 10 26 C5.18 25.34 1.15 23.46 -3.19 21.38 C-4.27 20.9 -4.27 20.9 -5.38 20.41 C-10.53 17.93 -10.53 17.93 -11.93 15.17 C-12.49 13.23 -12.49 13.23 -13 10 C-11.58 8.9 -10.17 7.79 -8.75 6.69 C-7.96 6.07 -7.17 5.46 -6.36 4.82 C-4.25 3.2 -2.13 1.59 0 0 Z " fill="#0DC5B9" transform="translate(83,73)"/>
</svg>
