<?xml version="1.0" encoding="UTF-8"?>
<!-- Generator: https://ezgif.com/png-to-svg -->
<svg version="1.1" xmlns="http://www.w3.org/2000/svg" width="512" height="512" viewBox="-243.568 -61.41 1085.566 1085.566" preserveAspectRatio="xMidYMid meet">
<path d="M0 0 C3.13 0.64 6.26 1.27 9.4 1.9 C10.18 2.05 10.95 2.21 11.75 2.37 C16.76 3.34 21.74 4.04 26.82 4.57 C37.73 5.72 48.43 7.98 59.19 10.12 C71.19 12.51 83.12 14.85 95.28 16.24 C99.6 16.74 103.86 17.45 108.12 18.25 C109.23 18.45 109.23 18.45 110.36 18.66 C112.12 18.98 113.87 19.3 115.62 19.62 C114.92 22.86 114.26 24.52 111.62 26.62 C110.96 26.62 110.31 26.62 109.62 26.62 C109.32 27.46 109.32 27.46 109 28.31 C107.05 31.6 104.68 33.33 101.62 35.62 C100.96 35.62 100.31 35.62 99.62 35.62 C99.62 36.28 99.62 36.95 99.62 37.62 C96.72 40.9 93.55 43.48 90.06 46.12 C86.69 48.69 84.23 51.28 81.62 54.62 C80.88 55.06 80.14 55.49 79.38 55.94 C75.96 58.03 73.51 60.65 70.73 63.51 C67.52 66.73 64.08 69.66 60.62 72.62 C59.12 73.94 57.62 75.25 56.12 76.56 C54.96 77.58 53.79 78.6 52.62 79.62 C54.58 86.54 56.89 93.29 59.34 100.04 C60.27 102.64 61.17 105.24 62.03 107.86 C63.8 113.19 65.7 118.47 67.62 123.75 C68.14 125.18 68.14 125.18 68.66 126.63 C70.1 130.57 71.53 134.48 73.25 138.3 C74.49 141.31 75.28 144.21 76.01 147.37 C77.3 152.12 79.22 156.67 81 161.25 C83.91 168.85 86.51 176.34 88.6 184.21 C90.12 189.27 92.1 194.12 94.06 199.03 C96.17 204.34 97.92 209.67 99.53 215.15 C100.91 219.54 102.51 223.82 104.12 228.12 C106.12 233.44 108.03 238.73 109.62 244.19 C111.18 249.44 113.1 254.48 115.12 259.56 C117.68 265.97 119.74 272.33 121.53 279 C122.83 283.31 124.45 287.45 126.12 291.62 C128.77 298.22 130.97 304.74 132.8 311.61 C133.63 314.66 134.6 317.64 135.62 320.62 C136.12 320.32 136.62 320.02 137.14 319.71 C141.64 317.08 146.1 314.99 151 313.19 C155.26 311.61 159.18 309.88 163.12 307.62 C168.06 304.81 173.11 302.87 178.43 300.91 C182.48 299.28 186.16 297.18 189.95 295.02 C192.6 293.64 195.17 292.64 198 291.69 C202.27 290.23 206.06 288.39 210 286.19 C215.36 283.2 220.74 280.98 226.49 278.88 C230.57 277.25 234.28 275.12 238.09 272.95 C240.37 271.76 242.42 270.96 244.88 270.25 C250.01 268.73 254.52 266.09 259.13 263.4 C263.36 261.02 266.78 260.04 271.62 259.62 C271.91 263.81 271.02 266.57 269.31 270.38 C266.82 276.13 264.7 281.86 262.98 287.88 C260.96 294.91 258.31 301.56 255.5 308.3 C253.98 312.01 252.55 315.6 251.65 319.51 C250.4 324.97 248.26 330.1 246.25 335.31 C243.38 342.83 240.63 350.28 238.48 358.04 C236.53 363.95 233.97 367.64 229.31 371.75 C228.39 372.58 227.46 373.41 226.51 374.26 C223.66 376.6 220.69 378.58 217.62 380.62 C215.51 382.35 213.44 384.09 211.38 385.88 C205.88 390.58 200.3 395.14 194.62 399.62 C192.81 401.06 191 402.5 189.19 403.94 C188.38 404.57 187.58 405.21 186.75 405.86 C184.68 407.53 184.68 407.53 183.12 409.14 C180.6 411.64 177.71 413.67 174.88 415.81 C172.63 417.62 170.66 419.58 168.62 421.62 C165.72 423.51 162.74 425.12 159.62 426.62 C159.62 427.29 159.62 427.94 159.62 428.62 C157.84 430.08 156 431.47 154.12 432.81 C149.78 435.98 145.64 439.26 141.64 442.86 C138.41 445.68 135.02 448.29 131.63 450.93 C129.54 452.47 129.54 452.47 128.62 454.62 C127.08 455.46 127.08 455.46 125.5 456.31 C121.81 458.32 119.22 460.85 116.4 463.94 C114.32 465.92 112.09 467.16 109.62 468.62 C107.66 470.17 105.72 471.76 103.81 473.38 C103.29 473.82 102.76 474.26 102.22 474.72 C99.26 477.21 96.33 479.75 93.44 482.31 C90.06 485.3 86.57 488.09 82.95 490.77 C80.55 492.6 80.55 492.6 78.43 494.91 C74.85 498.45 72.29 500.59 67.12 500.7 C65.79 500.54 64.46 500.35 63.12 500.15 C62.39 500.05 61.66 499.95 60.9 499.84 C51.18 498.41 41.66 496.02 32.12 493.69 C28.45 492.8 24.77 491.91 21.09 491.04 C19.75 490.71 19.75 490.71 18.38 490.39 C12.21 488.94 6.04 487.76 -0.21 486.72 C-8.84 485.26 -17.31 483.11 -25.8 481.03 C-32.74 479.33 -39.62 477.66 -46.7 476.66 C-56.42 475.28 -65.91 472.79 -75.45 470.51 C-84.26 468.41 -92.97 466.45 -101.94 465.19 C-109.69 463.91 -117.31 461.94 -124.94 460.12 C-137.59 457.03 -137.59 457.03 -150.38 454.62 C-159.82 453.17 -169.1 450.72 -178.39 448.51 C-190.05 445.7 -190.05 445.7 -201.85 443.63 C-211.71 442.25 -221.37 439.68 -231.05 437.36 C-233.64 436.74 -236.22 436.13 -238.81 435.52 C-239.6 435.33 -240.39 435.14 -241.2 434.95 C-245 434.05 -248.43 433.39 -252.38 433.62 C-250.35 435.28 -248.6 436.54 -246.14 437.46 C-242.77 438.88 -239.84 440.8 -236.81 442.81 C-231.37 446.37 -225.86 449.74 -220.22 452.98 C-215.9 455.47 -211.64 458.05 -207.38 460.62 C-207.97 464.45 -209.09 467.33 -210.96 470.71 C-211.48 471.66 -212 472.61 -212.53 473.59 C-213.08 474.57 -213.63 475.55 -214.19 476.56 C-214.72 477.54 -215.26 478.52 -215.81 479.52 C-220.14 487.39 -220.14 487.39 -222.64 491 C-224.3 493.51 -225.28 495.84 -226.38 498.62 C-227.48 500.46 -228.63 502.27 -229.81 504.06 C-232.26 507.84 -234.43 511.56 -236.38 515.62 C-239.25 521.09 -242.37 526.25 -245.95 531.29 C-247.52 533.73 -247.52 533.73 -248.81 537 C-250.37 540.61 -252.2 543.75 -254.31 547.06 C-257.3 551.8 -259.98 556.56 -262.38 561.62 C-263.04 562.96 -263.7 564.29 -264.38 565.62 C-265.03 565.62 -265.69 565.62 -266.38 565.62 C-266.62 566.45 -266.87 567.27 -267.12 568.12 C-269.88 575.83 -274.1 582.52 -278.47 589.38 C-280.44 592.74 -281.92 596.02 -283.38 599.62 C-282.8 598.72 -282.22 597.81 -281.62 596.88 C-279.38 593.62 -279.38 593.62 -277.38 591.69 C-274.71 588.94 -273.19 585.99 -271.38 582.62 C-270.72 582.62 -270.06 582.62 -269.38 582.62 C-268.97 581.79 -268.97 581.79 -268.56 580.94 C-267.27 578.43 -265.84 576.04 -264.38 573.62 C-264.05 572.97 -263.72 572.3 -263.38 571.62 C-262.72 571.62 -262.06 571.62 -261.38 571.62 C-260.38 569.15 -260.38 569.15 -259.38 566.62 C-258.72 566.62 -258.06 566.62 -257.38 566.62 C-257.11 565.9 -256.84 565.18 -256.56 564.44 C-255.38 561.63 -254.1 559.14 -252.38 556.62 C-251.72 556.62 -251.06 556.62 -250.38 556.62 C-250.05 555.3 -249.72 553.99 -249.38 552.62 C-248.72 552.62 -248.06 552.62 -247.38 552.62 C-247.29 552.05 -247.21 551.47 -247.12 550.88 C-246.17 548.02 -244.51 546.7 -242.38 544.62 C-242.38 543.97 -242.38 543.3 -242.38 542.62 C-241.72 542.62 -241.06 542.62 -240.38 542.62 C-239.38 540.15 -239.38 540.15 -238.38 537.62 C-237.72 537.62 -237.06 537.62 -236.38 537.62 C-236.1 537.05 -235.82 536.48 -235.53 535.89 C-234.39 533.66 -233.18 531.52 -231.88 529.38 C-231.45 528.67 -231.03 527.96 -230.59 527.23 C-230.19 526.7 -229.79 526.17 -229.38 525.62 C-228.72 525.62 -228.06 525.62 -227.38 525.62 C-227.15 524.92 -226.92 524.22 -226.69 523.5 C-225.54 520.99 -224.57 519.54 -222.81 517.5 C-220.23 514.82 -220.23 514.82 -219.38 511.62 C-218.72 511.62 -218.06 511.62 -217.38 511.62 C-217.17 510.94 -216.96 510.26 -216.75 509.56 C-215.2 506.26 -213.24 504.08 -210.82 501.39 C-209.18 499.51 -209.18 499.51 -207.81 496.5 C-206.13 493.14 -204.03 491.28 -201.38 488.62 C-199.5 486 -197.7 483.33 -195.93 480.64 C-195.41 479.97 -194.9 479.31 -194.38 478.62 C-193.72 478.62 -193.06 478.62 -192.38 478.62 C-192.39 480.48 -192.39 480.48 -192.4 482.37 C-192.46 494.04 -192.48 505.71 -192.45 517.38 C-192.44 523.38 -192.44 529.37 -192.48 535.37 C-192.52 541.16 -192.52 546.95 -192.48 552.74 C-192.48 554.95 -192.49 557.16 -192.51 559.37 C-193.16 570.97 -193.16 570.97 -189.39 581.5 C-187.1 583.29 -185.03 584.47 -182.38 585.62 C-180.25 587.46 -178.17 589.34 -176.1 591.24 C-174.31 592.84 -174.31 592.84 -171.38 593.62 C-169.69 595.27 -168.02 596.94 -166.38 598.62 C-164.69 600.12 -162.97 601.57 -161.25 603.03 C-159.31 604.68 -157.41 606.37 -155.5 608.06 C-151.99 611.15 -148.33 614.01 -144.62 616.85 C-141.66 619.19 -138.88 621.7 -136.1 624.24 C-134.31 625.84 -134.31 625.84 -131.38 626.62 C-131.04 578.45 -130.72 530.26 -130.38 480.62 C-125.19 480.62 -120.69 480.91 -115.67 481.84 C-114.94 481.97 -114.21 482.1 -113.46 482.24 C-103.59 484.08 -93.85 486.46 -84.08 488.79 C-72.45 491.59 -72.45 491.59 -60.67 493.65 C-53.15 494.81 -45.76 496.78 -38.38 498.62 C-38.38 651.75 -38.38 804.87 -38.38 962.62 C-46.2 961.51 -46.2 961.51 -50.44 958.69 C-54.01 956.41 -57.24 954.71 -61.38 953.62 C-61.38 952.97 -61.38 952.3 -61.38 951.62 C-62.01 951.4 -62.65 951.17 -63.31 950.94 C-66.67 949.5 -69.74 947.77 -72.9 945.94 C-75.47 944.52 -75.47 944.52 -78.7 943.25 C-83.35 941.29 -87.5 938.61 -91.77 935.94 C-95.85 933.43 -99.95 931.5 -104.38 929.62 C-106.71 928.34 -109.02 927.04 -111.31 925.69 C-115.58 923.2 -119.86 920.83 -124.32 918.69 C-127.09 917.26 -129.75 915.66 -132.44 914.06 C-136.66 911.57 -140.86 909.55 -145.38 907.62 C-147.82 906.2 -150.23 904.71 -152.64 903.23 C-155.47 901.57 -158.36 900.12 -161.31 898.69 C-166.37 896.22 -171.04 893.39 -175.71 890.24 C-178.82 888.36 -182.03 887.05 -185.38 885.62 C-187.66 884.37 -189.93 883.07 -192.19 881.75 C-196.36 879.32 -200.53 876.99 -204.88 874.88 C-212.2 871.24 -216.65 867.98 -220.38 860.62 C-221.04 858.62 -221.71 856.62 -222.38 854.62 C-223.81 851.85 -225.31 849.13 -226.84 846.41 C-228.44 843.52 -229.91 840.59 -231.38 837.62 C-232.02 836.33 -232.67 835.04 -233.31 833.75 C-248.44 803.5 -248.44 803.5 -249.44 801.49 C-250.25 799.87 -251.06 798.25 -251.88 796.63 C-253.02 794.33 -254.17 792.02 -255.31 789.71 C-256 788.33 -256.69 786.95 -257.38 785.56 C-257.72 784.87 -258.06 784.17 -258.41 783.46 C-259.84 780.59 -261.27 777.8 -262.94 775.07 C-264.72 772.03 -265.99 768.86 -267.38 765.62 C-268.66 763.1 -270.01 760.61 -271.38 758.12 C-273.36 754.5 -275.25 750.92 -276.88 747.12 C-278.5 743.34 -280.39 739.79 -282.38 736.19 C-286.62 728.39 -286.62 728.39 -287.88 724.56 C-289.4 719.97 -292.02 715.93 -294.46 711.78 C-296.97 707.47 -298.75 703.32 -300.38 698.62 C-301.36 696.95 -302.35 695.28 -303.38 693.62 C-303.38 692.97 -303.38 692.3 -303.38 691.62 C-298.07 692.8 -293.93 694.77 -289.56 698 C-286.65 700.08 -283.87 701.99 -280.62 703.5 C-276.01 705.66 -271.84 708.49 -267.59 711.27 C-263.63 713.85 -259.62 716.21 -255.46 718.45 C-252.35 720.2 -249.43 722.22 -246.48 724.23 C-244.16 725.77 -241.76 727.14 -239.32 728.5 C-236.8 729.96 -234.38 731.54 -231.94 733.12 C-228.16 735.55 -224.39 737.67 -220.34 739.59 C-217.28 741.2 -214.48 743.18 -211.65 745.16 C-209.34 746.71 -209.34 746.71 -206.54 748.02 C-202.31 750.17 -198.44 752.77 -194.5 755.4 C-191.22 757.55 -188.08 759.33 -184.38 760.62 C-184.38 761.28 -184.38 761.95 -184.38 762.62 C-183.64 762.89 -182.91 763.16 -182.15 763.44 C-179.47 764.59 -177.32 765.89 -174.94 767.56 C-172.39 769.3 -170.01 770.81 -167.25 772.19 C-154.98 778.32 -150.55 789.31 -145.73 801.61 C-143.65 806.23 -140.92 810.39 -138.14 814.62 C-136.39 817.59 -135.43 820.36 -134.38 823.62 C-133.38 825.27 -132.4 826.92 -131.38 828.62 C-131.04 786.05 -130.72 743.49 -130.38 699.62 C-148.85 699.62 -167.34 699.62 -186.38 699.62 C-189.01 697.32 -191.66 695 -194.38 692.62 C-195.91 691.54 -197.46 690.49 -199.06 689.5 C-202.62 687.2 -205.49 684.75 -208.38 681.62 C-210.41 679.46 -212.13 677.77 -214.69 676.25 C-218.23 674.11 -221.49 671.61 -224.38 668.62 C-224.38 667.97 -224.38 667.3 -224.38 666.62 C-225.1 666.58 -225.82 666.54 -226.56 666.5 C-229.88 665.47 -230.88 663.94 -232.93 661.24 C-235.08 658.84 -237.69 657.46 -240.46 655.84 C-243.17 654.12 -245.2 651.97 -247.38 649.62 C-250.78 646.05 -250.78 646.05 -254.77 643.2 C-257.32 641.66 -259.32 640.02 -261.5 638 C-270.38 629.96 -279.79 622.47 -289.44 615.38 C-290.08 614.8 -290.72 614.22 -291.38 613.62 C-291.38 612.63 -291.38 611.64 -291.38 610.62 C-292.37 610.29 -293.36 609.97 -294.38 609.62 C-294.84 607.44 -295.3 605.25 -295.75 603.06 C-296.13 601.24 -296.13 601.24 -296.52 599.37 C-297.24 595.67 -297.71 591.96 -298.16 588.22 C-299.67 576.61 -302.13 565.16 -304.44 553.69 C-305.13 550.23 -305.82 546.78 -306.51 543.32 C-306.93 541.19 -307.36 539.06 -307.79 536.92 C-308.62 532.77 -309.42 528.65 -309.91 524.44 C-310.42 520.28 -311.18 516.22 -312.01 512.11 C-312.34 510.44 -312.67 508.78 -313 507.12 C-313.18 506.25 -313.35 505.39 -313.53 504.5 C-316.71 488.52 -319.67 472.52 -322.35 456.45 C-323.66 448.66 -325.1 440.91 -326.75 433.19 C-330.23 416.25 -330.23 416.25 -327.09 410.12 C-325.64 408.07 -324.27 406.29 -322.38 404.62 C-321.71 404.62 -321.06 404.62 -320.38 404.62 C-320.15 403.92 -319.92 403.22 -319.69 402.5 C-318.04 398.88 -316.08 396.54 -313.38 393.62 C-312.71 393.62 -312.06 393.62 -311.38 393.62 C-310.17 391.29 -309.21 389.13 -308.38 386.62 C-307.71 386.62 -307.06 386.62 -306.38 386.62 C-306.12 386.05 -305.86 385.47 -305.6 384.88 C-303.85 381.65 -301.41 379.21 -298.93 376.53 C-297.17 374.61 -297.17 374.61 -296.38 371.62 C-294.96 370.51 -293.55 369.4 -292.13 368.3 C-289.17 365.48 -287.1 362.05 -284.89 358.64 C-284.39 357.97 -283.89 357.31 -283.38 356.62 C-282.72 356.62 -282.06 356.62 -281.38 356.62 C-281.09 356.03 -280.8 355.43 -280.5 354.81 C-279.37 352.62 -279.37 352.62 -277.38 349.62 C-276.72 349.62 -276.06 349.62 -275.38 349.62 C-275.38 348.63 -275.38 347.64 -275.38 346.62 C-274.72 346.62 -274.06 346.62 -273.38 346.62 C-273.14 346.08 -272.91 345.54 -272.66 344.98 C-271.02 341.98 -268.96 339.6 -266.75 337 C-265.85 335.93 -264.95 334.87 -264.05 333.8 C-263.6 333.27 -263.15 332.74 -262.69 332.19 C-260.75 329.88 -258.84 327.54 -256.94 325.19 C-256.01 324.04 -256.01 324.04 -255.07 322.88 C-253.31 320.62 -253.31 320.62 -251.81 318 C-250.04 315.08 -247.81 313 -245.38 310.62 C-244.36 309.3 -243.36 307.97 -242.38 306.62 C-241.44 305.54 -240.5 304.45 -239.56 303.38 C-237.35 300.83 -235.3 298.22 -233.31 295.5 C-230.91 292.24 -228.24 289.49 -225.38 286.62 C-223.78 284.51 -222.23 282.37 -220.71 280.2 C-220.27 279.68 -219.83 279.16 -219.38 278.62 C-218.72 278.62 -218.06 278.62 -217.38 278.62 C-216.72 276.98 -216.06 275.32 -215.38 273.62 C-205.65 275.13 -196.11 277.2 -186.53 279.41 C-181.13 280.64 -175.77 281.76 -170.28 282.53 C-160.31 283.99 -150.54 286.46 -140.73 288.74 C-128.87 291.53 -128.87 291.53 -116.88 293.62 C-107.04 295.01 -97.4 297.49 -87.73 299.74 C-75.87 302.53 -75.87 302.53 -63.88 304.62 C-54.04 306.01 -44.4 308.49 -34.73 310.74 C-25.74 312.82 -16.84 314.79 -7.7 316.08 C-1.28 317.13 5.05 318.66 11.39 320.14 C13.78 320.69 16.17 321.24 18.55 321.79 C20.08 322.14 21.61 322.5 23.13 322.85 C24.2 323.09 24.2 323.09 25.28 323.34 C28.11 324 30.87 324.71 33.62 325.62 C33.21 324.6 32.8 323.58 32.38 322.53 C28.38 312.5 24.83 302.39 21.48 292.12 C19.47 286.02 17.34 280.11 14.63 274.29 C13.75 271.96 13.21 269.85 12.71 267.42 C11.64 262.36 9.95 257.64 8.12 252.81 C7.82 251.98 7.51 251.15 7.19 250.29 C5.55 245.87 5.55 245.87 3.58 241.59 C2.38 239.11 1.87 236.55 1.24 233.89 C0.1 229.68 -1.59 225.67 -3.19 221.62 C-6.15 214 -8.79 206.38 -11.15 198.55 C-12.92 192.76 -15 187.07 -17.04 181.37 C-18.19 178.13 -19.29 174.88 -20.38 171.62 C-21.36 168.77 -22.37 165.91 -23.38 163.06 C-23.64 162.32 -23.9 161.58 -24.16 160.81 C-25.49 157.05 -26.85 153.32 -28.38 149.62 C-30.61 152.98 -31.92 156.43 -33.31 160.19 C-33.56 160.85 -33.82 161.52 -34.08 162.21 C-35.47 165.94 -36.71 169.68 -37.83 173.51 C-39.37 178.74 -41.22 183.83 -43.12 188.94 C-46.23 197.37 -49.17 205.84 -51.94 214.4 C-53.29 218.53 -54.74 222.58 -56.39 226.61 C-58.07 230.72 -59.37 234.85 -60.6 239.11 C-61.94 243.45 -63.64 247.65 -65.31 251.88 C-68.14 259.15 -70.62 266.35 -72.59 273.91 C-73.3 276.36 -74.2 278.37 -75.38 280.62 C-82 279.98 -88.42 278.93 -94.94 277.56 C-95.95 277.35 -96.96 277.14 -98 276.92 C-108.49 274.69 -118.87 272.07 -129.25 269.39 C-135.73 267.73 -142.19 266.23 -148.79 265.1 C-153.26 264.28 -157.66 263.13 -162.06 262 C-162.97 261.77 -163.87 261.54 -164.8 261.3 C-166.99 260.75 -169.19 260.19 -171.38 259.62 C-170.86 254.4 -170.03 250.14 -168 245.25 C-166.45 241.49 -165.09 237.76 -163.96 233.86 C-162.4 228.55 -160.46 223.45 -158.44 218.31 C-155.84 211.59 -153.45 204.9 -151.43 197.98 C-149.82 192.85 -147.9 187.82 -146.01 182.78 C-143.73 176.66 -141.65 170.51 -139.62 164.31 C-138.28 160.33 -136.81 156.42 -135.31 152.5 C-133.54 147.85 -131.9 143.22 -130.5 138.44 C-128.44 131.46 -125.79 124.72 -123.1 117.96 C-121.35 113.47 -120.15 109.4 -119.38 104.62 C-118.37 101.62 -117.19 98.69 -116 95.75 C-115.39 94.21 -114.78 92.67 -114.16 91.13 C-113.86 90.38 -113.56 89.62 -113.25 88.84 C-111.28 83.86 -109.43 78.91 -107.93 73.77 C-106.39 68.5 -104.45 63.42 -102.44 58.31 C-99.79 51.48 -97.38 44.66 -95.3 37.63 C-94.25 34.22 -93.1 30.86 -91.88 27.5 C-91.49 26.45 -91.11 25.39 -90.72 24.3 C-88.59 20.05 -85.37 18.44 -81.03 16.79 C-80.2 16.47 -79.37 16.15 -78.52 15.82 C-77.65 15.49 -76.77 15.16 -75.88 14.81 C-69 12.14 -62.44 9.27 -55.9 5.86 C-52.88 4.38 -49.85 3.37 -46.63 2.41 C-44.01 1.5 -41.7 0.23 -39.25 -1.06 C-27.01 -6.63 -12.59 -2.63 0 0 Z M-285.38 600.62 C-285.38 603.62 -285.38 603.62 -285.38 603.62 Z M-287.38 603.62 C-287.38 606.62 -287.38 606.62 -287.38 606.62 Z " fill="#0EC6BB" transform="translate(328.375,3.375)"/>
<path d="M0 0 C3.21 3.21 4.35 7.39 6 11.56 C6.36 12.43 6.71 13.3 7.08 14.2 C9.01 19.02 10.43 23.65 11.46 28.74 C12.48 33 14.19 37 15.81 41.06 C18.28 47.38 20.63 53.68 22.56 60.19 C24.28 65.96 26.32 71.53 28.56 77.12 C31.1 83.47 33.13 89.77 34.91 96.37 C36.45 101.5 38.45 106.43 40.43 111.4 C42.54 116.71 44.3 122.05 45.91 127.53 C47.28 131.9 48.89 136.16 50.5 140.44 C53.42 148.21 55.85 155.98 58 164 C58.66 166.34 59.33 168.67 60 171 C59.34 171 58.68 171 58 171 C58 171.99 58 172.98 58 174 C56.02 175.87 56.02 175.87 53.38 177.88 C52.46 178.57 51.55 179.27 50.62 179.99 C49.75 180.65 48.89 181.32 48 182 C46.83 182.99 45.66 183.99 44.5 185 C42 187 42 187 40 187 C40 187.66 40 188.32 40 189 C39.34 189 38.68 189 38 189 C37.67 189.99 37.34 190.98 37 192 C35.36 193.04 33.69 194.04 32 195 C28.25 197.89 24.63 200.95 21 204 C20.18 204.68 19.36 205.37 18.51 206.07 C17.78 206.69 17.06 207.3 16.31 207.94 C15.67 208.48 15.03 209.03 14.36 209.59 C12.77 210.91 12.77 210.91 13 213 C14.79 214.39 16.63 215.72 18.5 217 C20.37 218.28 22.21 219.61 24 221 C24 221.66 24 222.32 24 223 C24.56 223.23 25.11 223.45 25.69 223.69 C28.62 225.35 30.62 227.62 33 230 C33.99 230.33 34.98 230.66 36 231 C36 231.66 36 232.32 36 233 C36.59 233.27 37.19 233.55 37.8 233.83 C39.91 234.95 41.47 236.11 43.25 237.69 C44.16 238.49 44.16 238.49 45.09 239.3 C45.72 239.86 46.35 240.42 47 241 C48.27 242.13 49.54 243.25 50.81 244.38 C51.47 244.96 52.12 245.55 52.8 246.15 C55.04 248.08 55.04 248.08 57.73 249.98 C58.64 250.64 59.56 251.31 60.5 252 C61.36 252.6 62.21 253.2 63.09 253.81 C65 256 65 256 65.58 259.2 C64.82 264.16 62.82 267.57 60.25 271.81 C57.03 277.33 54.17 282.63 51.99 288.65 C50.29 292.68 47.91 296.32 45.66 300.06 C44.18 302.68 43.05 305.19 42 308 C40.12 313.06 37.43 317.45 34.66 322.06 C33.18 324.68 32.05 327.19 31 330 C29.12 335.06 26.43 339.45 23.66 344.06 C22.18 346.68 21.05 349.19 20 352 C18.53 355.95 16.67 359.39 14.5 363 C12.35 366.57 10.5 369.97 9.06 373.88 C7.19 378.92 4.59 383.41 1.82 388 C0.27 390.61 -1.01 393.04 -1.96 395.92 C-3.56 400.67 -6.19 404.78 -8.72 409.08 C-10.98 412.98 -12.71 416.65 -14 421 C-17.1 428.96 -23.73 432.14 -31 436 C-32.16 436.49 -33.32 436.98 -34.51 437.48 C-38.1 439.04 -41.21 440.89 -44.5 443 C-48.89 445.81 -53.2 447.97 -58 450 C-59.83 451.03 -61.64 452.09 -63.44 453.19 C-68.98 456.49 -74.66 459.39 -80.48 462.16 C-84.42 464.07 -87.58 466.23 -91 469 C-93.29 470.02 -93.29 470.02 -95.62 470.81 C-99.46 472.26 -102.71 473.98 -106.12 476.25 C-111.31 479.68 -116.67 482.45 -122.25 485.16 C-126 486.98 -129.63 488.9 -133.23 490.99 C-136.98 493.13 -140.83 495.1 -144.66 497.09 C-147.99 498.85 -151.02 500.7 -154 503 C-155.61 503.67 -157.22 504.34 -158.84 505 C-161.53 506.24 -164.02 507.73 -166.56 509.25 C-172.27 512.64 -178.1 515.61 -184.07 518.52 C-187.08 519.97 -187.08 519.97 -190 522 C-191.65 522 -193.3 522 -195 522 C-195 370.53 -195 219.06 -195 63 C-186.76 63.63 -179.6 64.27 -171.75 66.21 C-170.84 66.43 -169.93 66.65 -169 66.87 C-166.14 67.55 -163.29 68.24 -160.44 68.94 C-157.58 69.63 -154.73 70.31 -151.87 71 C-150.11 71.42 -148.34 71.84 -146.58 72.27 C-140.06 73.84 -133.67 74.89 -127 76 C-118.75 77.98 -110.5 79.96 -102 82 C-101.67 116.65 -101.34 151.3 -101 187 C-94.92 182.36 -94.92 182.36 -89.25 177.25 C-87 175 -87 175 -84.77 173.71 C-81.32 171.58 -78.42 169.05 -75.38 166.38 C-74.13 165.3 -72.89 164.22 -71.64 163.14 C-71.03 162.61 -70.41 162.08 -69.78 161.53 C-63.57 156.19 -57.23 151.03 -50.56 146.29 C-48.72 144.9 -48.72 144.9 -47 142 C-45.35 140.97 -43.68 139.98 -42 139 C-41.18 138.26 -40.35 137.51 -39.5 136.75 C-37 135 -37 135 -34.7 135.24 C-31.75 136.07 -29.06 137.15 -26.25 138.38 C-22.77 139.89 -19.31 141.25 -15.71 142.43 C-10.86 144.01 -6.16 145.89 -1.44 147.81 C5.5 150.62 12.45 153.32 19.47 155.91 C23.5 157.41 27.48 159.01 31.44 160.69 C37.5 163.25 43.6 165.46 50 167 C43.79 162.71 37.97 158.97 31 156 C28.45 154.29 25.96 152.49 23.46 150.69 C21.38 149.26 19.41 148.13 17.12 147.06 C12.35 144.84 8.15 141.8 3.83 138.8 C1.14 136.97 1.14 136.97 -1.5 136 C-4.6 134.76 -7.07 133.03 -9.81 131.12 C-13.79 128.42 -17.65 126.09 -22 124.07 C-24.54 122.71 -26.79 121.07 -29.12 119.38 C-32.65 116.83 -35.71 115.02 -40 114 C-40 113.34 -40 112.68 -40 112 C-40.72 111.73 -41.45 111.46 -42.2 111.18 C-44.94 110.02 -47.34 108.69 -49.88 107.12 C-52.71 105.39 -55.54 103.69 -58.44 102.06 C-61.56 100.3 -64.55 98.38 -67.56 96.44 C-70.37 94.63 -73.06 92.97 -76.06 91.5 C-78.93 90.04 -81.33 88.38 -83.94 86.5 C-87.85 83.7 -91.49 81.67 -96 80 C-95.88 78.25 -95.88 78.25 -95 76 C-93.69 75.07 -92.36 74.15 -90.99 73.31 C-86.38 70.27 -82.24 66.52 -78 63 C-72.79 58.71 -67.59 54.43 -62.25 50.31 C-59.04 47.84 -55.95 45.28 -52.9 42.61 C-49.69 39.89 -46.36 37.32 -43.04 34.73 C-40.92 33.16 -40.92 33.16 -40 31 C-38.97 30.44 -37.94 29.89 -36.88 29.31 C-33.19 27.3 -30.59 24.77 -27.77 21.68 C-25.69 19.71 -23.46 18.47 -21 17 C-19.06 15.45 -17.14 13.86 -15.25 12.25 C-10.27 8.03 -5.19 3.96 0 0 Z M-103 259 C-103 302.23 -103 345.46 -103 390 C-100.2 386.5 -98.48 384.32 -96.7 380.48 C-96.11 379.21 -96.11 379.21 -95.5 377.91 C-95.09 377.01 -94.67 376.11 -94.25 375.19 C-93.36 373.29 -92.48 371.4 -91.59 369.5 C-91.15 368.57 -90.71 367.64 -90.26 366.67 C-85.78 357.18 -80.96 347.88 -76 338.63 C-70.55 328.47 -65.51 318.13 -60.62 307.69 C-57.21 300.39 -53.55 293.27 -49.75 286.17 C-46.64 280.3 -43.71 274.37 -40.88 268.38 C-40.48 267.55 -40.09 266.73 -39.69 265.88 C-37.84 262.57 -37.84 262.57 -37 259 C-58.78 259 -80.56 259 -103 259 Z " fill="#0EC5BB" transform="translate(504,444)"/>
</svg>
