<?xml version="1.0" encoding="utf-8"?>
<!DOCTYPE svg PUBLIC "-//W3C//DTD SVG 20010904//EN" "http://www.w3.org/TR/2001/REC-SVG-20010904/DTD/svg10.dtd">
<svg version="1.0" xmlns="http://www.w3.org/2000/svg" width="102pt" height="102pt" viewBox="0 0 102 102" preserveAspectRatio="xMidYMid meet">
<g fill="#4F657DFF">
<path d="M 41.32 93.09 C 25.86 82.74 14.61 69.41 10.62 56.74 C 8.18 48.98 6.96 35.15 7.68 23.33 C 8.37 11.83 8.18 12.05 17.50 12.00 C 25.24 11.95 35.71 9.36 43.90 5.47 L 51.35 1.93 L 58.55 5.49 C 66.30 9.32 76.68 11.95 84.12 11.98 C 86.67 11.99 90.09 12.27 91.73 12.60 L 94.71 13.19 L 95.34 23.85 C 96.03 35.63 94.92 48.83 92.58 56.52 C 90.34 63.90 84.37 73.13 77.00 80.60 C 70.54 87.15 54.12 99.00 51.50 99.00 C 50.75 99.00 46.16 96.34 41.32 93.09ZM 61.53 64.81 C 67.38 62.14 68.78 53.62 64.12 48.97 C 61.32 46.17 61.30 46.04 63.12 44.39 C 64.99 42.70 65.62 37.78 64.38 34.54 C 63.10 31.20 58.51 30.00 47.05 30.00 L 36.00 30.00 L 36.00 48.00 L 36.00 66.00 L 47.45 66.00 C 54.20 66.00 59.98 65.51 61.53 64.81ZM 45.00 55.00 L 45.00 50.00 L 48.75 50.10 C 54.49 50.25 57.20 51.32 58.12 53.79 C 59.46 57.43 56.10 60.00 50.00 60.00 L 45.00 60.00 L 45.00 55.00ZM 45.00 40.00 L 45.00 36.00 L 49.07 36.00 C 54.09 36.00 57.00 37.47 57.00 40.00 C 57.00 42.53 54.09 44.00 49.07 44.00 L 45.00 44.00 L 45.00 40.00Z"/></g>
<g fill="#D7DFE7FF">
<path d="M 37.00 47.91 L 37.00 29.83 L 48.59 30.16 C 59.98 30.49 60.22 30.55 62.69 33.42 C 64.72 35.78 65.09 37.05 64.63 39.92 C 64.32 41.89 63.17 44.23 62.09 45.11 C 60.14 46.71 60.14 46.74 62.46 47.80 C 63.79 48.41 65.31 50.41 65.98 52.44 C 66.98 55.47 66.88 56.58 65.33 59.75 C 62.73 65.06 60.16 65.97 47.75 65.99 L 37.00 66.00 L 37.00 47.91ZM 57.07 58.96 C 58.15 58.38 59.00 56.88 59.00 55.54 C 59.00 51.53 56.50 50.00 49.93 50.00 L 44.00 50.00 L 44.00 55.00 L 44.00 60.00 L 49.57 60.00 C 52.63 60.00 56.00 59.53 57.07 58.96ZM 56.07 42.96 C 58.25 41.80 58.60 39.00 56.80 37.20 C 56.14 36.54 52.99 36.00 49.80 36.00 L 44.00 36.00 L 44.00 40.00 L 44.00 44.00 L 49.07 44.00 C 51.85 44.00 55.00 43.53 56.07 42.96Z"/></g>
<g fill="#97A6B6FF">
<path d="M 36.42 48.00 C 36.42 37.83 36.56 33.66 36.75 38.75 C 36.93 43.84 36.93 52.16 36.75 57.25 C 36.56 62.34 36.42 58.17 36.42 48.00Z"/></g>
</svg>
