<?xml version="1.0" encoding="UTF-8"?>
<!-- Generator: https://ezgif.com/webp-to-svg -->
<svg version="1.1" xmlns="http://www.w3.org/2000/svg" width="512" height="512" viewBox="-5.413 -5.633 110.936 110.936" preserveAspectRatio="xMidYMid meet">
<path d="M0 0 C2.4 -0.08 4.79 -0.14 7.19 -0.19 C7.86 -0.21 8.53 -0.24 9.23 -0.26 C13.71 -0.33 16.44 0.26 20 3 C22.61 6.41 23.37 8.72 23 13 C23.91 12.51 24.81 12.01 25.75 11.5 C32.53 8.73 39.19 8.73 45.98 11.48 C54.57 15.36 64.84 20.66 69.2 29.39 C72.12 38.86 73.1 53.73 69 63 C62.89 73.08 49.82 79.93 38.69 82.88 C27.19 83.26 16.23 76.04 7.55 69.02 C-0.07 61.28 0.7 49.76 0.59 39.55 C0.57 38.41 0.55 37.27 0.53 36.1 C0.47 32.5 0.42 28.91 0.38 25.31 C0.34 22.86 0.3 20.4 0.26 17.95 C0.16 11.96 0.08 5.98 0 0 Z M17.23 33.12 C13.36 39.04 13.04 45.13 14 52 C16.43 58.47 20.07 62.78 26.07 66.16 C31.97 68.73 38.14 68.85 44.19 66.75 C51.28 63.73 55.07 59.07 58 52 C58 50.68 58 49.36 58 48 C50.3 47.02 50.3 47.02 43.34 49.82 C40.99 52.02 40.99 52.02 38.94 54.35 C37 56 37 56 35.02 56 C32.4 54.7 30.76 53.05 28.75 50.94 C28.04 50.2 27.34 49.47 26.61 48.71 C26.08 48.15 25.55 47.58 25 47 C26.48 43.55 28.44 41.35 31.12 38.75 C31.85 38.04 32.57 37.34 33.32 36.61 C33.87 36.08 34.43 35.55 35 35 C38.21 36.4 39.16 37.21 41.44 40.12 C43.75 42.6 44.84 42.98 48.28 43.39 C51.54 43.38 54.75 43.26 58 43 C57.1 36.61 54.93 32.53 50.06 28.25 C38.89 20.04 25.7 22.92 17.23 33.12 Z " fill="#22ED87" transform="translate(14,1)"/>
<path d="M0 0 C0.66 0 1.32 0 2 0 C2.15 3.37 2.23 6.75 2.31 10.12 C2.35 11.08 2.4 12.03 2.44 13.01 C2.58 20.97 2.58 20.97 -0.25 24.53 C-3.73 27.65 -6.75 29.13 -11 31 C-7.37 31.33 -3.74 31.66 0 32 C0 32.66 0 33.32 0 34 C-1.91 34.98 -3.83 35.96 -5.75 36.94 C-6.82 37.48 -7.88 38.03 -8.98 38.59 C-12.77 40.36 -15.89 41.11 -20.05 41.18 C-20.81 41.2 -21.57 41.22 -22.36 41.25 C-23.94 41.29 -25.52 41.32 -27.09 41.34 C-32.24 41.53 -35.82 42.54 -40.28 45.15 C-42 46 -42 46 -45 46 C-43.73 41.46 -42.21 38.46 -39 35 C-36.37 33.59 -36.37 33.59 -33.38 32.44 C-16.7 25.47 -8.33 18.48 -1.01 1.81 C-0.68 1.21 -0.34 0.62 0 0 Z " fill="#21EE87" transform="translate(97,53)"/>
<path d="M0 0 C3 1 3 1 4.03 2.83 C4.51 4.02 4.51 4.02 5 5.23 C12.36 21.45 22 27.23 38.35 33.57 C42.48 35.8 44.44 39.16 47 43 C47 43.99 47 44.98 47 46 C44.03 45.56 41.98 44.99 39.35 43.48 C35.21 41.65 31.96 41.68 27.5 41.69 C18.79 41.46 11.48 39.65 4 35 C3.5 33.52 3.5 33.52 3 32 C6.63 31.67 10.26 31.34 14 31 C11.65 29.92 11.65 29.92 9.25 28.81 C5 26.86 2.32 25.13 0 21 C-0.47 17.38 -0.38 13.83 -0.25 10.19 C-0.23 9.21 -0.21 8.23 -0.2 7.22 C-0.15 4.81 -0.08 2.41 0 0 Z " fill="#21ED87" transform="translate(1,53)"/>
</svg>
