<?xml version="1.0" encoding="UTF-8"?>
<!-- Generator: https://ezgif.com/webp-to-svg -->
<svg version="1.1" xmlns="http://www.w3.org/2000/svg" width="512" height="512" viewBox="-7.45 -8.745 114.901 114.901" preserveAspectRatio="xMidYMid meet">
<path d="M0 0 C7.73 -0.46 15.47 -0.77 23.21 -0.99 C25.84 -1.08 28.47 -1.2 31.09 -1.36 C52.3 -2.59 52.3 -2.59 58.49 1.74 C64.39 7.72 68.15 15.16 71 23 C69.98 23.81 68.95 24.62 67.89 25.45 C66.53 26.53 65.17 27.61 63.81 28.69 C63.14 29.22 62.47 29.75 61.77 30.29 C57.94 33.34 54.38 36.46 51 40 C51.97 41.36 51.97 41.36 52.97 42.74 C53.81 43.93 54.66 45.12 55.5 46.31 C56.14 47.2 56.14 47.2 56.8 48.12 C60 52.66 60 52.66 60 56 C58.01 57.77 58.01 57.77 55.12 59.81 C54.02 60.61 52.92 61.41 51.81 62.21 C51.2 62.66 50.6 63.1 49.97 63.55 C46.3 66.25 42.72 69.07 39.12 71.88 C38.35 72.48 37.58 73.08 36.79 73.7 C32.66 76.92 28.53 80.15 24.41 83.39 C22.72 84.72 21.03 86.05 19.33 87.38 C17 89.2 14.69 91.05 12.39 92.9 C11.22 93.83 10.05 94.76 8.88 95.69 C8.08 96.34 8.08 96.34 7.26 97 C4.12 99.47 3.17 100 -1 100 C-2.63 98.32 -2.63 98.32 -4.2 95.98 C-4.77 95.15 -5.34 94.31 -5.92 93.44 C-6.51 92.55 -7.09 91.67 -7.69 90.75 C-8.28 89.88 -8.87 89 -9.49 88.11 C-14.43 80.72 -14.43 80.72 -15 77 C-14.47 74.76 -14.47 74.76 -13.54 72.29 C-13.2 71.35 -12.85 70.42 -12.5 69.46 C-11.92 67.95 -11.92 67.95 -11.34 66.42 C-10.95 65.37 -10.56 64.33 -10.16 63.25 C-8.91 59.89 -7.64 56.54 -6.38 53.19 C-3.58 45.72 -0.79 38.25 1.97 30.77 C2.9 28.27 3.85 25.78 4.81 23.28 C5.3 21.95 5.79 20.62 6.28 19.29 C6.7 18.19 7.11 17.09 7.54 15.96 C8.15 12.06 7.07 10.45 4.88 7.25 C3.59 5.83 2.3 4.41 1 3 C0.67 2.01 0.34 1.02 0 0 Z M26 23 C24.15 27.95 22.29 32.89 20.45 37.84 C19.82 39.53 19.19 41.21 18.55 42.9 C17.65 45.31 16.75 47.73 15.84 50.15 C15.42 51.28 15.42 51.28 14.98 52.44 C13.52 56.12 13.52 56.12 13 60 C16.09 58.57 18.65 56.86 21.33 54.78 C22.13 54.16 22.93 53.54 23.75 52.9 C24.58 52.25 25.4 51.6 26.25 50.94 C27.09 50.29 27.93 49.64 28.8 48.97 C31.94 46.53 31.94 46.53 35 44 C35 43.67 35 43.34 35 43 C30.38 43 25.76 43 21 43 C21 42.34 21 41.68 21 41 C21.52 40.78 22.03 40.56 22.57 40.33 C25.98 38.47 28.9 36.1 31.94 33.69 C32.85 32.98 32.85 32.98 33.78 32.25 C37.49 29.33 40.61 26.39 44 23 C38.06 23 32.12 23 26 23 Z " fill="#FEFFFF" transform="translate(22,0)"/>
</svg>
