<?xml version="1.0" encoding="UTF-8"?>
<!-- Generator: https://ezgif.com/webp-to-svg -->
<svg version="1.1" xmlns="http://www.w3.org/2000/svg" width="512" height="512" viewBox="-36.269 -69.344 674.598 674.598" preserveAspectRatio="xMidYMid meet">
<path d="M0 0 C0.33 21.35 0.57 42.7 0.73 64.05 C0.8 73.97 0.9 83.88 1.06 93.79 C1.2 102.44 1.29 111.09 1.32 119.74 C1.34 124.32 1.38 128.89 1.48 133.46 C2.19 166.46 2.19 166.46 -6.79 176.51 C-8.58 178.29 -10.4 179.94 -12.33 181.55 C-14.81 183.71 -16.69 186.15 -18.69 188.75 C-21.92 192.7 -25.2 196.61 -28.5 200.5 C-32.02 204.65 -35.53 208.81 -39 213 C-39.7 213.85 -40.4 214.69 -41.12 215.56 C-42.96 217.95 -44.51 220.39 -46 223 C-40.94 227.64 -35.84 232.18 -30.5 236.5 C-26.05 240.1 -21.79 243.87 -17.55 247.73 C-13.95 250.93 -10.21 253.95 -6.45 256.96 C-5.64 257.63 -4.83 258.31 -4 259 C-3.3 259.56 -2.6 260.12 -1.88 260.7 C0.69 263.84 0.49 265.83 0.48 269.86 C0.48 270.55 0.49 271.24 0.49 271.95 C0.5 274.26 0.48 276.57 0.45 278.88 C0.45 280.53 0.45 282.19 0.46 283.84 C0.46 288.34 0.43 292.83 0.41 297.33 C0.38 302.03 0.38 306.73 0.37 311.42 C0.36 320.32 0.33 329.22 0.29 338.11 C0.24 348.24 0.22 358.37 0.2 368.5 C0.16 389.33 0.09 410.17 0 431 C-12.84 434.27 -25.91 436.37 -38.95 438.66 C-41.58 439.12 -44.21 439.58 -46.84 440.05 C-53.21 441.17 -59.59 442.29 -65.96 443.41 C-73.38 444.71 -80.81 446.02 -88.23 447.32 C-101.47 449.65 -114.71 451.98 -127.95 454.31 C-140.79 456.56 -153.64 458.82 -166.49 461.08 C-167.28 461.22 -168.07 461.36 -168.89 461.51 C-170.08 461.72 -170.08 461.72 -171.29 461.93 C-185.93 464.51 -200.57 467.08 -215.21 469.66 C-220.38 470.57 -225.56 471.48 -230.74 472.39 C-237.04 473.5 -243.34 474.6 -249.63 475.71 C-252.85 476.27 -256.06 476.84 -259.28 477.4 C-262.75 478.02 -266.23 478.63 -269.71 479.24 C-270.73 479.42 -271.76 479.6 -272.81 479.78 C-274.2 480.03 -274.2 480.03 -275.62 480.27 C-276.83 480.49 -276.83 480.49 -278.05 480.7 C-280 481 -280 481 -282 481 C-282 338.44 -282 195.88 -282 49 C-274.12 46.75 -274.12 46.75 -270.08 46.04 C-269.16 45.87 -268.24 45.71 -267.29 45.54 C-266.3 45.37 -265.31 45.2 -264.29 45.02 C-262.69 44.74 -262.69 44.74 -261.06 44.45 C-257.48 43.82 -253.91 43.19 -250.34 42.57 C-247.78 42.11 -245.22 41.66 -242.65 41.21 C-236.42 40.11 -230.19 39.02 -223.95 37.92 C-216.69 36.65 -209.43 35.37 -202.16 34.09 C-189.21 31.81 -176.25 29.53 -163.29 27.25 C-150.72 25.04 -138.15 22.83 -125.58 20.62 C-124.8 20.48 -124.03 20.35 -123.23 20.21 C-120.12 19.66 -117.01 19.11 -113.89 18.56 C-90.04 14.36 -66.18 10.16 -42.32 5.97 C-39.82 5.53 -37.32 5.09 -34.82 4.65 C-31.41 4.05 -27.99 3.45 -24.58 2.85 C-23.59 2.68 -22.6 2.5 -21.57 2.32 C-19.8 2.01 -18.02 1.7 -16.25 1.39 C-14.37 1.06 -12.49 0.73 -10.61 0.39 C-7.03 -0.14 -3.62 -0.06 0 0 Z M-92.69 98.71 C-93.6 98.87 -94.51 99.03 -95.45 99.19 C-96.94 99.46 -96.94 99.46 -98.45 99.73 C-99.5 99.91 -100.55 100.1 -101.63 100.28 C-105.1 100.89 -108.57 101.51 -112.04 102.12 C-114.45 102.54 -116.86 102.97 -119.27 103.39 C-124.32 104.28 -129.36 105.17 -134.41 106.06 C-140.89 107.21 -147.37 108.35 -153.85 109.49 C-158.82 110.36 -163.8 111.24 -168.77 112.11 C-171.16 112.54 -173.55 112.96 -175.94 113.38 C-179.27 113.96 -182.61 114.55 -185.94 115.14 C-186.93 115.32 -187.93 115.49 -188.95 115.67 C-190.31 115.91 -190.31 115.91 -191.69 116.16 C-192.48 116.3 -193.27 116.44 -194.08 116.58 C-196.07 116.93 -196.07 116.93 -198 118 C-198 205.12 -198 292.24 -198 382 C-190.42 381.29 -190.42 381.29 -182.95 380.2 C-182.08 380.05 -181.21 379.9 -180.32 379.74 C-178.95 379.5 -178.95 379.5 -177.55 379.25 C-176.56 379.08 -175.57 378.9 -174.54 378.72 C-171.3 378.15 -168.06 377.58 -164.82 377 C-162.55 376.6 -160.29 376.2 -158.02 375.8 C-153.29 374.97 -148.56 374.13 -143.83 373.29 C-137.76 372.21 -131.69 371.14 -125.63 370.07 C-120.96 369.25 -116.29 368.42 -111.62 367.6 C-109.38 367.2 -107.14 366.8 -104.9 366.41 C-101.78 365.86 -98.66 365.3 -95.55 364.75 C-94.62 364.59 -93.69 364.42 -92.74 364.26 C-91.89 364.1 -91.04 363.95 -90.17 363.8 C-89.43 363.67 -88.69 363.54 -87.93 363.4 C-85.8 363 -85.8 363 -83 362 C-82.77 353.55 -82.59 345.1 -82.48 336.65 C-82.43 332.72 -82.36 328.8 -82.25 324.88 C-82.14 321.08 -82.08 317.29 -82.05 313.5 C-82.03 312.06 -82 310.62 -81.94 309.17 C-81.59 300.65 -81.59 300.65 -85.19 293.14 C-87.69 290.87 -90.21 288.91 -93 287 C-94 286.16 -95 285.33 -96.03 284.47 C-96.85 283.82 -97.66 283.17 -98.5 282.5 C-102.96 278.89 -107.23 275.12 -111.47 271.25 C-114.09 268.92 -116.78 266.7 -119.5 264.5 C-123.09 261.59 -126.58 258.61 -130 255.5 C-134.19 251.69 -138.51 248.1 -142.91 244.55 C-145.31 242.6 -147.64 240.58 -149.96 238.54 C-150.64 237.95 -151.32 237.35 -152.02 236.74 C-153.37 235.55 -154.71 234.36 -156.05 233.17 C-159.07 230.09 -159.07 230.09 -163 229 C-160.21 223.42 -156.65 219.24 -152.43 214.67 C-148.43 210.27 -144.73 205.62 -141 201 C-136.27 195.18 -131.5 189.4 -126.62 183.69 C-122.84 179.25 -119.19 174.73 -115.62 170.12 C-111.17 164.39 -106.5 158.88 -101.71 153.41 C-97.71 148.84 -93.82 144.19 -90 139.46 C-88 137 -88 137 -85.41 134.33 C-82.52 130.85 -82.35 127.59 -82.51 123.2 C-82.52 122.47 -82.53 121.75 -82.53 121 C-82.56 118.71 -82.62 116.42 -82.69 114.12 C-82.71 112.56 -82.74 111 -82.76 109.44 C-82.81 105.62 -82.9 101.81 -83 98 C-86.33 97.93 -89.41 98.14 -92.69 98.71 Z " fill="#FF4654" transform="translate(600,0)"/>
<path d="M0 0 C0.3 21.51 0.53 43.03 0.67 64.55 C0.74 74.54 0.83 84.53 0.98 94.52 C1.11 103.23 1.19 111.95 1.22 120.66 C1.24 125.27 1.28 129.88 1.37 134.49 C2.04 167.79 2.04 167.79 -6.22 176.41 C-7.87 177.9 -9.55 179.27 -11.33 180.61 C-14.33 183.1 -16.51 186.26 -18.81 189.38 C-22.39 194.01 -26.1 198.45 -30.03 202.79 C-36.06 209.55 -41.66 216.69 -47 224 C-46.15 224.73 -45.3 225.45 -44.43 226.2 C-29.45 239.05 -29.45 239.05 -27.72 240.53 C-26.57 241.51 -25.42 242.5 -24.27 243.48 C-21.24 246.08 -18.21 248.68 -15.18 251.28 C-14.56 251.82 -13.93 252.36 -13.28 252.91 C-12.09 253.94 -10.9 254.97 -9.71 255.99 C-9.16 256.46 -8.62 256.93 -8.06 257.41 C-7.59 257.81 -7.12 258.22 -6.63 258.63 C-4.91 260.13 -4.91 260.13 -2.44 261.66 C0 264 0 264 0.62 267.12 C0.61 268.35 0.61 269.59 0.6 270.86 C0.61 271.55 0.61 272.24 0.61 272.95 C0.62 275.26 0.59 277.57 0.57 279.88 C0.57 281.53 0.57 283.19 0.57 284.84 C0.57 289.34 0.54 293.83 0.51 298.33 C0.48 303.03 0.47 307.73 0.47 312.42 C0.45 321.32 0.41 330.22 0.36 339.11 C0.3 349.24 0.28 359.37 0.25 369.5 C0.2 390.33 0.11 411.17 0 432 C-4.45 433.32 -8.8 434.41 -13.38 435.22 C-14.62 435.44 -15.86 435.66 -17.14 435.88 C-18.5 436.12 -19.86 436.35 -21.22 436.59 C-22.66 436.85 -24.11 437.1 -25.56 437.36 C-29.5 438.05 -33.44 438.74 -37.38 439.43 C-41.59 440.16 -45.79 440.9 -50 441.64 C-58.04 443.06 -66.09 444.47 -74.14 445.88 C-82.99 447.43 -91.85 448.99 -100.71 450.54 C-115.55 453.15 -130.39 455.76 -145.23 458.36 C-163.95 461.64 -182.67 464.93 -201.39 468.21 C-205.19 468.88 -208.99 469.55 -212.79 470.22 C-214.23 470.47 -215.67 470.72 -217.11 470.98 C-220.59 471.59 -224.06 472.2 -227.54 472.81 C-234.03 473.94 -240.52 475.09 -247.01 476.27 C-250.13 476.84 -253.25 477.4 -256.36 477.96 C-257.85 478.23 -259.33 478.5 -260.81 478.78 C-262.86 479.16 -264.92 479.53 -266.97 479.9 C-268.14 480.11 -269.31 480.32 -270.51 480.54 C-273.18 480.89 -275.55 481.05 -278.22 481.03 C-280.09 481.01 -280.09 481.01 -282 481 C-282.02 426.11 -282.04 371.22 -282.05 316.33 C-282.05 309.86 -282.05 303.38 -282.05 296.91 C-282.06 295.62 -282.06 294.33 -282.06 293.01 C-282.06 272.11 -282.07 251.21 -282.08 230.32 C-282.09 208.9 -282.09 187.47 -282.09 166.05 C-282.1 152.82 -282.1 139.58 -282.11 126.35 C-282.11 117.29 -282.11 108.23 -282.11 99.17 C-282.11 93.94 -282.11 88.7 -282.12 83.47 C-282.12 78.68 -282.12 73.9 -282.12 69.11 C-282.12 67.38 -282.12 65.64 -282.12 63.9 C-282.13 61.55 -282.13 59.2 -282.12 56.85 C-282.12 55.55 -282.12 54.24 -282.12 52.89 C-282 50 -282 50 -281 49 C-279.08 48.59 -277.14 48.23 -275.2 47.89 C-273.3 47.56 -273.3 47.56 -271.35 47.22 C-269.93 46.98 -268.5 46.73 -267.07 46.49 C-265.57 46.22 -264.07 45.96 -262.56 45.7 C-259.28 45.13 -256 44.56 -252.71 43.99 C-247.37 43.07 -242.03 42.14 -236.7 41.21 C-235.78 41.05 -234.86 40.89 -233.91 40.73 C-232.02 40.4 -230.13 40.07 -228.24 39.74 C-225.3 39.23 -222.35 38.72 -219.41 38.21 C-198.37 34.55 -177.33 30.84 -156.29 27.13 C-149.72 25.97 -143.14 24.82 -136.57 23.66 C-134.36 23.27 -132.16 22.88 -129.96 22.5 C-128.86 22.3 -127.77 22.11 -126.64 21.91 C-112.02 19.34 -97.4 16.76 -82.78 14.18 C-72.68 12.4 -62.57 10.62 -52.47 8.85 C-47.19 7.92 -41.9 6.99 -36.62 6.05 C-31.73 5.19 -26.83 4.33 -21.94 3.47 C-20.14 3.15 -18.35 2.84 -16.56 2.52 C-14.13 2.09 -11.69 1.66 -9.26 1.23 C-8.19 1.04 -8.19 1.04 -7.09 0.85 C-2.23 0 -2.23 0 0 0 Z M-92.56 99.71 C-93.93 99.95 -93.93 99.95 -95.32 100.19 C-96.8 100.46 -96.8 100.46 -98.32 100.73 C-99.37 100.91 -100.42 101.1 -101.5 101.28 C-104.97 101.89 -108.44 102.51 -111.91 103.12 C-114.32 103.54 -116.73 103.97 -119.14 104.39 C-124.18 105.28 -129.23 106.17 -134.28 107.06 C-140.76 108.21 -147.24 109.35 -153.72 110.49 C-158.69 111.36 -163.66 112.24 -168.64 113.11 C-171.02 113.53 -173.41 113.96 -175.8 114.38 C-179.14 114.96 -182.47 115.55 -185.81 116.14 C-186.8 116.32 -187.79 116.49 -188.82 116.67 C-189.72 116.83 -190.63 116.99 -191.57 117.16 C-192.35 117.3 -193.14 117.44 -193.96 117.58 C-196.19 118 -196.19 118 -199 119 C-199 206.12 -199 293.24 -199 383 C-192.67 382.37 -186.56 381.68 -180.33 380.56 C-179.53 380.42 -178.73 380.27 -177.9 380.13 C-175.27 379.66 -172.65 379.2 -170.03 378.73 C-168.18 378.4 -166.33 378.07 -164.48 377.74 C-159.62 376.88 -154.76 376.02 -149.9 375.15 C-145.01 374.28 -140.11 373.41 -135.22 372.55 C-129.69 371.57 -124.16 370.59 -118.63 369.6 C-117.79 369.45 -116.94 369.3 -116.07 369.15 C-114.43 368.85 -112.78 368.56 -111.14 368.27 C-107.12 367.55 -103.11 366.84 -99.09 366.15 C-98.31 366.01 -97.52 365.88 -96.72 365.74 C-95.24 365.48 -93.77 365.23 -92.29 364.97 C-89.43 364.48 -86.76 363.92 -84 363 C-83.72 354.59 -83.51 346.17 -83.38 337.75 C-83.32 333.84 -83.23 329.94 -83.09 326.03 C-82.96 322.25 -82.89 318.47 -82.86 314.69 C-82.84 313.25 -82.8 311.82 -82.73 310.39 C-82.46 304.28 -82.29 298.56 -86.55 293.75 C-89.5 290.87 -92.69 288.44 -96 286 C-97.88 284.47 -99.76 282.92 -101.62 281.38 C-102.52 280.65 -103.42 279.93 -104.35 279.18 C-106.97 277.02 -109.49 274.79 -112 272.5 C-115.32 269.48 -118.7 266.57 -122.19 263.75 C-128.62 258.54 -134.83 253.11 -141.07 247.68 C-144.22 244.94 -147.39 242.22 -150.56 239.5 C-151.12 239.02 -151.68 238.54 -152.26 238.05 C-155.81 235 -159.4 231.99 -163 229 C-161.49 225.52 -159.45 223.13 -156.88 220.38 C-153.19 216.35 -149.73 212.23 -146.35 207.95 C-138.69 198.33 -130.8 188.9 -122.83 179.53 C-119.27 175.34 -115.79 171.08 -112.31 166.81 C-109.74 163.68 -107.12 160.59 -104.5 157.5 C-99.6 151.72 -94.71 145.93 -90 140 C-89.48 139.5 -88.96 139.01 -88.42 138.49 C-83.12 132.87 -83.32 126.87 -83.47 119.57 C-83.52 118.04 -83.57 116.52 -83.62 115 C-83.66 113.45 -83.68 111.89 -83.71 110.34 C-83.77 106.56 -83.88 102.78 -84 99 C-87.09 99 -89.56 99.19 -92.56 99.71 Z " fill="#FF4554" transform="translate(282,55)"/>
</svg>
