<?xml version="1.0" encoding="UTF-8"?>
<!-- Generator: https://ezgif.com/webp-to-svg -->
<svg version="1.1" xmlns="http://www.w3.org/2000/svg" width="100" height="100">
<path d="M0 0 C10.16 8.58 16.16 19.02 18.4 32.06 C19.5 46.63 15.76 58.99 6.52 70.38 C-3 80.52 -15.43 85.81 -29.22 86.31 C-42.76 86.13 -54.54 80.8 -64.27 71.59 C-73.82 61.24 -77.99 49.23 -77.8 35.31 C-76.97 22.29 -71.33 10.69 -61.76 1.81 C-43.6 -12.84 -18.97 -14.15 0 0 Z " fill="#0F151C" transform="translate(79.59765625,11.9375)"/>
<path d="M0 0 C10.16 8.58 16.16 19.02 18.4 32.06 C19.5 46.63 15.76 58.99 6.52 70.38 C-3 80.52 -15.43 85.81 -29.22 86.31 C-42.76 86.13 -54.54 80.8 -64.27 71.59 C-73.82 61.24 -77.99 49.23 -77.8 35.31 C-76.97 22.29 -71.33 10.69 -61.76 1.81 C-43.6 -12.84 -18.97 -14.15 0 0 Z M-60.97 7.81 C-65.38 12.46 -68.27 17.12 -70.6 23.06 C-71.03 24.14 -71.46 25.21 -71.91 26.31 C-74.2 38.82 -72.64 51.08 -65.79 61.94 C-58.81 71.42 -49.53 79.04 -37.6 81.06 C-24.92 82.09 -13.92 79.93 -3.4 72.62 C-1.46 70.94 -0.06 69.17 1.4 67.06 C0.74 66.4 0.08 65.74 -0.6 65.06 C-0.6 65.72 -0.6 66.38 -0.6 67.06 C-2.58 66.57 -2.58 66.57 -4.6 66.06 C-4.27 67.05 -3.94 68.04 -3.6 69.06 C-8.29 65.45 -8.29 65.45 -9.6 64.06 C-9.6 63.07 -9.6 62.08 -9.6 61.06 C-8.42 61.16 -8.42 61.16 -7.22 61.25 C-6.36 61.19 -5.49 61.13 -4.6 61.06 C-3.94 60.07 -3.28 59.08 -2.6 58.06 C-3.59 58.06 -4.58 58.06 -5.6 58.06 C-5.37 57.31 -5.14 56.57 -4.91 55.8 C-4.62 54.81 -4.33 53.83 -4.04 52.81 C-3.6 51.35 -3.6 51.35 -3.16 49.86 C-2.61 47.1 -2.66 45.67 -3.6 43.06 C-4.92 43.06 -6.24 43.06 -7.6 43.06 C-7.83 43.58 -8.06 44.1 -8.3 44.64 C-10.81 50.02 -13.52 53.98 -18.54 57.38 C-21.27 58.29 -23.73 58.19 -26.6 58.06 C-26.6 53.85 -24.71 50.63 -22.95 46.89 C-22.58 46.08 -22.2 45.28 -21.82 44.45 C-20.63 41.88 -19.43 39.32 -18.22 36.75 C-17.03 34.19 -15.84 31.64 -14.65 29.08 C-13.91 27.49 -13.16 25.9 -12.42 24.31 C-10.54 20.28 -8.9 16.32 -7.6 12.06 C-11.36 13.79 -14.73 16.07 -18.16 18.38 C-18.8 18.81 -19.44 19.24 -20.1 19.68 C-21.5 20.62 -22.9 21.57 -24.3 22.52 C-26.76 24.18 -29.23 25.82 -31.7 27.47 C-33.42 28.63 -35.13 29.78 -36.85 30.94 C-37.67 31.48 -38.49 32.03 -39.34 32.59 C-40.11 33.12 -40.88 33.64 -41.68 34.18 C-42.36 34.64 -43.05 35.1 -43.75 35.57 C-47.35 38.47 -49.05 41.77 -50.6 46.06 C-52.65 39.91 -52.09 33.78 -49.57 27.84 C-46.76 22.72 -41.3 18.31 -35.77 16.45 C-32.2 15.82 -28.66 16.16 -25.06 16.32 C-24.25 16.24 -23.43 16.15 -22.6 16.06 C-21.94 15.07 -21.28 14.08 -20.6 13.06 C-24.11 10.72 -25.58 10.85 -29.72 10.94 C-31.34 10.96 -31.34 10.96 -32.98 10.99 C-33.84 11.02 -34.71 11.04 -35.6 11.06 C-35.93 11.06 -36.26 11.06 -36.6 11.06 C-36.27 10.4 -35.94 9.74 -35.6 9.06 C-34.94 9.39 -34.28 9.72 -33.6 10.06 C-30.08 9.84 -26.59 9.48 -23.08 9.12 C-19.62 9.06 -17.66 9.53 -14.6 11.06 C-15.09 9.08 -15.09 9.08 -15.6 7.06 C-14.94 6.73 -14.28 6.4 -13.6 6.06 C-14.09 5.07 -14.09 5.07 -14.6 4.06 C-13.28 3.73 -11.96 3.4 -10.6 3.06 C-11.4 2.79 -12.21 2.53 -13.04 2.25 C-14.3 1.66 -14.3 1.66 -15.6 1.06 C-16.09 -0.42 -16.09 -0.42 -16.6 -1.94 C-20.08 -1.48 -20.08 -1.48 -23.6 0.06 C-25.14 3.58 -25.14 3.58 -25.6 7.06 C-26.09 5.08 -26.09 5.08 -26.6 3.06 C-27.59 3.06 -28.58 3.06 -29.6 3.06 C-28.61 2.73 -27.62 2.4 -26.6 2.06 C-27.09 0.08 -27.09 0.08 -27.6 -1.94 C-28.92 -1.61 -30.24 -1.28 -31.6 -0.94 C-31.6 1.7 -31.6 4.34 -31.6 7.06 C-32.26 7.06 -32.92 7.06 -33.6 7.06 C-34.09 3.6 -34.09 3.6 -34.6 0.06 C-35.89 -0.44 -37.18 -0.94 -38.47 -1.44 C-39.19 -1.72 -39.91 -1.99 -40.65 -2.28 C-47.78 -4.69 -56.2 3.27 -60.97 7.81 Z " fill="#131820" transform="translate(79.59765625,11.9375)"/>
<path d="M0 0 C10.16 8.58 16.16 19.02 18.4 32.06 C19.5 46.63 15.76 58.99 6.52 70.38 C-3 80.52 -15.43 85.81 -29.22 86.31 C-42.76 86.13 -54.54 80.8 -64.27 71.59 C-73.82 61.24 -77.99 49.23 -77.8 35.31 C-76.97 22.29 -71.33 10.69 -61.76 1.81 C-43.6 -12.84 -18.97 -14.15 0 0 Z M-63.84 10.89 C-71.68 20.59 -73.63 31.9 -72.6 44.06 C-70.31 55.62 -64.89 65.66 -55.6 73.06 C-44.3 80.3 -33.47 83.01 -20.12 80.38 C-13.09 78.4 -7.27 75.66 -1.6 71.06 C-0.97 70.56 -0.35 70.06 0.3 69.54 C8.38 62.31 12.81 51.54 13.65 40.88 C14.09 28.32 10.97 17.48 2.4 8.06 C-18.43 -10.4 -44.78 -8.98 -63.84 10.89 Z " fill="#D90114" transform="translate(79.59765625,11.9375)"/>
<path d="M0 0 C0.66 0 1.32 0 2 0 C0.65 4.28 -0.97 8.29 -2.86 12.36 C-3.14 12.95 -3.41 13.54 -3.69 14.15 C-4.27 15.39 -4.85 16.63 -5.43 17.87 C-6.3 19.73 -7.17 21.59 -8.04 23.46 C-11.25 30.36 -14.55 37.22 -18 44 C-20.31 44 -22.62 44 -25 44 C-25.33 43.01 -25.66 42.02 -26 41 C-26.68 41.54 -27.35 42.09 -28.05 42.64 C-29.38 43.72 -29.38 43.72 -30.75 44.81 C-31.63 45.52 -32.51 46.23 -33.42 46.96 C-34.27 47.63 -35.12 48.31 -36 49 C-36.73 49.58 -37.45 50.16 -38.2 50.76 C-40 52 -40 52 -42 52 C-39.95 44.93 -37.36 37.15 -31 33 C-32.98 33 -34.96 33 -37 33 C-37.33 31.02 -37.66 29.04 -38 27 C-32.34 22.42 -26.5 18.26 -20.41 14.26 C-16.34 11.58 -12.33 8.82 -8.31 6.06 C-7.6 5.58 -6.9 5.09 -6.17 4.59 C-2.94 2.48 -2.94 2.48 0 0 Z " fill="#141A20" transform="translate(70,24)"/>
<path d="M0 0 C1.88 2.94 2 4.53 2 8 C2.66 8 3.32 8 4 8 C4 5.36 4 2.72 4 0 C5.32 -0.33 6.64 -0.66 8 -1 C8.49 0.98 8.49 0.98 9 3 C8.01 3.33 7.02 3.66 6 4 C6.99 4 7.98 4 9 4 C9.49 5.98 9.49 5.98 10 8 C10.15 7.43 10.29 6.87 10.45 6.29 C11.14 4.03 11.82 2.05 13 0 C16.19 -1 16.19 -1 19 -1 C19.49 0.48 19.49 0.48 20 2 C22.5 3.22 22.5 3.22 25 4 C23.68 4.33 22.36 4.66 21 5 C21.5 6.48 21.5 6.48 22 8 C21.34 8 20.68 8 20 8 C20.5 9.98 20.5 9.98 21 12 C19.98 11.49 19.98 11.49 18.95 10.98 C15.33 9.78 12.66 10.01 8.88 10.38 C2 11 2 11 -1 11 C-1.99 11.66 -2.98 12.32 -4 13 C-4.66 13 -5.32 13 -6 13 C-6.33 13.99 -6.66 14.98 -7 16 C-8.74 17.86 -8.74 17.86 -10.88 19.75 C-11.92 20.7 -11.92 20.7 -12.99 21.67 C-13.99 22.33 -13.99 22.33 -15 23 C-15.99 22.67 -16.98 22.34 -18 22 C-18.66 22.66 -19.32 23.32 -20 24 C-23.37 23.66 -25.43 22.11 -28 20 C-27.67 18.68 -27.34 17.36 -27 16 C-27.66 15.67 -28.32 15.34 -29 15 C-29 15.66 -29 16.32 -29 17 C-29.66 16.67 -30.32 16.34 -31 16 C-12.53 -6.12 -12.53 -6.12 0 0 Z " fill="#161A20" transform="translate(44,11)"/>
<path d="M0 0 C0.66 0 1.32 0 2 0 C0.65 4.28 -0.97 8.29 -2.86 12.36 C-3.14 12.95 -3.41 13.54 -3.69 14.15 C-4.27 15.39 -4.85 16.63 -5.43 17.87 C-6.3 19.73 -7.17 21.59 -8.04 23.46 C-11.25 30.36 -14.55 37.22 -18 44 C-19.98 44 -21.96 44 -24 44 C-24 42.68 -24 41.36 -24 40 C-22.68 40 -21.36 40 -20 40 C-19.88 39.28 -19.76 38.57 -19.64 37.83 C-18.97 34.88 -17.98 32.44 -16.71 29.7 C-16.27 28.72 -15.82 27.75 -15.36 26.74 C-14.89 25.73 -14.42 24.73 -13.94 23.69 C-13.47 22.66 -12.99 21.63 -12.51 20.58 C-11.34 18.05 -10.17 15.52 -9 13 C-15.81 17.24 -22.38 21.65 -28.79 26.5 C-31 28 -31 28 -33 28 C-33 29.65 -33 31.3 -33 33 C-34.32 33 -35.64 33 -37 33 C-37.33 31.02 -37.66 29.04 -38 27 C-32.34 22.42 -26.5 18.26 -20.41 14.26 C-16.34 11.58 -12.33 8.82 -8.31 6.06 C-7.6 5.58 -6.9 5.09 -6.17 4.59 C-2.94 2.48 -2.94 2.48 0 0 Z " fill="#EAEAEA" transform="translate(70,24)"/>
<path d="M0 0 C1.98 0 3.96 0 6 0 C4.02 0.99 4.02 0.99 2 2 C2.28 3.94 2.28 3.94 3 6 C5.69 8.26 5.69 8.26 8.06 7.75 C10.19 7.07 10.19 7.07 12 5 C12.88 7.47 13.13 8.64 12.22 11.14 C11.65 12.18 11.65 12.18 11.06 13.25 C10.68 13.96 10.3 14.66 9.91 15.39 C9.61 15.92 9.31 16.45 9 17 C8.67 16.01 8.34 15.02 8 14 C6.68 14 5.36 14 4 14 C4 14.66 4 15.32 4 16 C1.36 15.67 -1.28 15.34 -4 15 C-2.74 17.51 -1.5 17.87 1 19 C0.18 19.43 -0.65 19.87 -1.5 20.31 C-2.32 20.87 -3.15 21.43 -4 22 C-4 22.99 -4 23.98 -4 25 C-1.36 25.33 1.28 25.66 4 26 C4.33 26.99 4.66 27.98 5 29 C1.04 29.49 1.04 29.49 -3 30 C-3.33 31.32 -3.66 32.64 -4 34 C-3.34 34 -2.68 34 -2 34 C-2 33.34 -2 32.68 -2 32 C0.31 32.33 2.62 32.66 5 33 C5 34.32 5 35.64 5 37 C4.34 37 3.68 37 3 37 C3 36.34 3 35.68 3 35 C2.34 35 1.68 35 1 35 C1 35.99 1 36.98 1 38 C-0.98 38.66 -2.96 39.32 -5 40 C-9.41 28.62 -9.14 17.83 -5.27 6.33 C-3.83 3.68 -2.79 3.01 0 2 C0 1.34 0 0.68 0 0 Z " fill="#0C1016" transform="translate(15,26)"/>
<path d="M0 0 C1.32 0 2.64 0 4 0 C4.56 1.94 4.56 1.94 5 4 C4.67 4.33 4.34 4.66 4 5 C3.79 6.64 3.63 8.29 3.5 9.94 C3.11 14.78 3.11 14.78 2 17 C2.66 17 3.32 17 4 17 C4 19.31 4 21.62 4 24 C1.69 24.99 -0.62 25.98 -3 27 C-2.67 27.66 -2.34 28.32 -2 29 C-1.42 28.48 -0.84 27.97 -0.25 27.44 C2 26 2 26 4.25 26.31 C4.83 26.54 5.41 26.77 6 27 C6 28.32 6 29.64 6 31 C4.37 32.37 2.7 33.71 1 35 C-0.16 37.06 -0.16 37.06 -1 39 C-7.52 30.74 -7.52 30.74 -9 26 C-8.01 25.67 -7.02 25.34 -6 25 C-5.67 24.34 -5.34 23.68 -5 23 C-4.34 23.33 -3.68 23.66 -3 24 C-3 23.01 -3 22.02 -3 21 C-2.34 21 -1.68 21 -1 21 C-1 21.66 -1 22.32 -1 23 C-0.34 23 0.32 23 1 23 C1 21.68 1 20.36 1 19 C-1.31 18.67 -3.62 18.34 -6 18 C-6 18.66 -6 19.32 -6 20 C-6.66 20 -7.32 20 -8 20 C-8 18.35 -8 16.7 -8 15 C-5.36 14.67 -2.72 14.34 0 14 C0 13.34 0 12.68 0 12 C-2.64 12 -5.28 12 -8 12 C-8.33 10.68 -8.66 9.36 -9 8 C-7.68 7.01 -6.36 6.02 -5 5 C-5.99 4.34 -6.98 3.68 -8 3 C-8 2.34 -8 1.68 -8 1 C-5.36 1.33 -2.72 1.66 0 2 C0 1.34 0 0.68 0 0 Z " fill="#13181E" transform="translate(19,40)"/>
<path d="M0 0 C1.93 0.87 1.93 0.87 3.49 3.31 C3.93 5.87 3.93 5.87 3.93 8.87 C4.59 8.87 5.25 8.87 5.93 8.87 C5.93 6.23 5.93 3.59 5.93 0.87 C7.25 0.54 8.57 0.21 9.93 -0.13 C10.26 1.19 10.59 2.51 10.93 3.87 C9.94 4.2 8.95 4.53 7.93 4.87 C8.92 4.87 9.91 4.87 10.93 4.87 C11.26 6.19 11.59 7.51 11.93 8.87 C12.07 8.31 12.22 7.74 12.37 7.16 C13.06 4.9 13.74 2.92 14.93 0.87 C18.11 -0.13 18.11 -0.13 20.93 -0.13 C21.42 1.36 21.42 1.36 21.93 2.87 C24.43 4.09 24.43 4.09 26.93 4.87 C25.61 5.2 24.29 5.53 22.93 5.87 C23.42 7.36 23.42 7.36 23.93 8.87 C23.27 8.87 22.61 8.87 21.93 8.87 C22.42 10.85 22.42 10.85 22.93 12.87 C22.25 12.53 21.57 12.19 20.87 11.84 C17.26 10.65 14.63 10.92 10.86 11.31 C3.07 12.1 3.07 12.1 -0.07 10.87 C-2.3 8.65 -3 6.79 -4.07 3.87 C-4.73 6.84 -5.39 9.81 -6.07 12.87 C-6.73 12.87 -7.39 12.87 -8.07 12.87 C-8.91 11.42 -9.74 9.96 -10.57 8.5 C-11.27 7.28 -11.27 7.28 -11.98 6.04 C-13.07 3.87 -13.07 3.87 -13.07 1.87 C-8.36 -1.27 -5.29 -1.43 0 0 Z " fill="#363A3F" transform="translate(42.07421875,10.12890625)"/>
<path d="M0 0 C0 0.66 0 1.32 0 2 C-0.99 2 -1.98 2 -3 2 C-3 2.66 -3 3.32 -3 4 C-1.35 3.67 0.3 3.34 2 3 C5.08 8.42 5.08 8.42 4.69 11.38 C4.46 11.91 4.23 12.45 4 13 C3.24 12.81 2.47 12.63 1.69 12.44 C-1.09 11.77 -1.09 11.77 -4 13 C-4.66 12.67 -5.32 12.34 -6 12 C-6.08 12.78 -6.16 13.57 -6.25 14.38 C-7 17 -7 17 -8.56 18.31 C-12.19 19.33 -15.23 19.24 -19 19 C-20 18 -21 17 -22 16 C-23.32 16 -24.64 16 -26 16 C-25.67 12.7 -25.34 9.4 -25 6 C-23.35 6.33 -21.7 6.66 -20 7 C-20 8.32 -20 9.64 -20 11 C-19.61 10.34 -19.22 9.68 -18.81 9 C-17 7 -17 7 -14.31 6.75 C-13.55 6.83 -12.79 6.92 -12 7 C-11.67 8.32 -11.34 9.64 -11 11 C-9.53 7.09 -9.53 7.09 -9 3 C-2.25 0 -2.25 0 0 0 Z " fill="#151B21" transform="translate(65,73)"/>
<path d="M0 0 C1.85 1.53 1.85 1.53 3 3 C1 5 1 5 -1.32 5.09 C-2.25 5.04 -3.17 4.99 -4.12 4.94 C-10.89 4.83 -15.54 5.93 -20.75 10.31 C-26.78 17.52 -28.69 22.75 -28 32 C-27.12 35.41 -27.12 35.41 -26 38 C-26.99 38.99 -27.98 39.98 -29 41 C-33.12 34.31 -33.99 28.8 -33 21 C-30.99 12.98 -25.71 7.11 -18.9 2.61 C-13 -0.44 -6.55 -1.09 0 0 Z " fill="#D00315" transform="translate(56,23)"/>
<path d="M0 0 C1.32 0 2.64 0 4 0 C3.69 6.09 0.88 10.47 -3 15 C-8.7 19.61 -14.69 22.29 -22.06 22.25 C-23.08 22.26 -24.11 22.26 -25.16 22.27 C-27.96 22 -29.62 21.44 -32 20 C-30.88 18.52 -30.88 18.52 -29 17 C-26.21 16.66 -26.21 16.66 -22.94 16.62 C-16.4 16.25 -11.28 14.98 -6 11 C-4.12 8.71 -3.21 6.77 -2 4 C-1.59 3.2 -1.17 2.39 -0.75 1.56 C-0.5 1.05 -0.25 0.53 0 0 Z " fill="#D20315" transform="translate(72,55)"/>
<path d="M0 0 C0.66 0.66 1.32 1.32 2 2 C-0.31 2.69 -0.31 2.69 -3 3 C-3.47 2.5 -3.95 2.01 -4.44 1.5 C-4.95 1 -5.47 0.51 -6 0 C-9.15 0.23 -9.15 0.23 -12 1 C-12.66 3.64 -13.32 6.28 -14 9 C-14.66 8.67 -15.32 8.34 -16 8 C-16 6.68 -16 5.36 -16 4 C-16.99 4 -17.98 4 -19 4 C-18.67 3.01 -18.34 2.02 -18 1 C-18 1.66 -18 2.32 -18 3 C-17.34 3 -16.68 3 -16 3 C-16.33 2.01 -16.66 1.02 -17 0 C-17.99 0 -18.98 0 -20 0 C-20.33 2.64 -20.66 5.28 -21 8 C-21.66 8 -22.32 8 -23 8 C-23.19 6.89 -23.37 5.77 -23.56 4.62 C-24.04 3.43 -24.51 2.23 -25 1 C-28.51 -0.54 -28.51 -0.54 -32 -1 C-24.52 -8.48 -8.46 -3.55 0 0 Z " fill="#0C1218" transform="translate(69,11)"/>
<path d="M0 0 C0.3 3.76 0.39 5.56 -1 9 C-4.69 13.03 -9.39 16.13 -14 19 C-14.66 19 -15.32 19 -16 19 C-11.99 5.16 -11.99 5.16 -7.19 1.69 C-4.8 0.65 -2.62 0 0 0 Z " fill="#E5E5E6" transform="translate(44,57)"/>
<path d="M0 0 C0.66 0 1.32 0 2 0 C2 0.66 2 1.32 2 2 C3.21 2.34 3.21 2.34 4.44 2.69 C7 4 7 4 7.88 6.38 C7.99 8.87 7.78 10.65 7 13 C5.02 13 3.04 13 1 13 C1 13.66 1 14.32 1 15 C-1.84 13.73 -4.14 12.55 -6 10 C-5.69 7.81 -5.69 7.81 -5 6 C-3.79 6.03 -3.79 6.03 -2.56 6.06 C-0.07 6.3 -0.07 6.3 1 5 C0.34 4.67 -0.32 4.34 -1 4 C-0.67 2.68 -0.34 1.36 0 0 Z " fill="#171D24" transform="translate(75,66)"/>
<path d="M0 0 C0 0.66 0 1.32 0 2 C-0.99 2 -1.98 2 -3 2 C-3 2.66 -3 3.32 -3 4 C-1.35 3.67 0.3 3.34 2 3 C5.08 8.42 5.08 8.42 4.69 11.38 C4.46 11.91 4.23 12.45 4 13 C3.24 12.81 2.47 12.63 1.69 12.44 C-1.09 11.77 -1.09 11.77 -4 13 C-4.27 11.87 -4.54 10.73 -4.81 9.56 C-5.2 8.39 -5.6 7.21 -6 6 C-6.99 5.67 -7.98 5.34 -9 5 C-9 4.34 -9 3.68 -9 3 C-2.25 0 -2.25 0 0 0 Z " fill="#1E2026" transform="translate(65,73)"/>
<path d="M0 0 C0.99 0.33 1.98 0.66 3 1 C3 1.66 3 2.32 3 3 C7.05 3.37 7.05 3.37 10 1 C12.19 1.38 12.19 1.38 14 2 C14 3.32 14 4.64 14 6 C12.37 7.37 10.7 8.71 9 10 C7.84 12.06 7.84 12.06 7 14 C0.48 5.74 0.48 5.74 -1 1 C-0.67 0.67 -0.34 0.34 0 0 Z " fill="#10171F" transform="translate(11,65)"/>
<path d="M0 0 C1.98 0 3.96 0 6 0 C4.02 0.99 4.02 0.99 2 2 C2.28 3.94 2.28 3.94 3 6 C5.69 8.26 5.69 8.26 8.06 7.75 C10.19 7.07 10.19 7.07 12 5 C12.88 7.47 13.13 8.64 12.22 11.14 C11.84 11.84 11.46 12.53 11.06 13.25 C10.68 13.96 10.3 14.66 9.91 15.39 C9.61 15.92 9.31 16.45 9 17 C8.67 16.01 8.34 15.02 8 14 C6.68 14 5.36 14 4 14 C4 14.66 4 15.32 4 16 C2.68 15.67 1.36 15.34 0 15 C0.99 15 1.98 15 3 15 C2.67 14.01 2.34 13.02 2 12 C3.65 12.33 5.3 12.66 7 13 C7 12.34 7 11.68 7 11 C3.7 10.01 0.4 9.02 -3 8 C-3 6.35 -3 4.7 -3 3 C-2.01 2.67 -1.02 2.34 0 2 C0 1.34 0 0.68 0 0 Z " fill="#0A0F15" transform="translate(15,26)"/>
<path d="M0 0 C0.99 0 1.98 0 3 0 C2.67 1.65 2.34 3.3 2 5 C2.66 5 3.32 5 4 5 C4 7.31 4 9.62 4 12 C-0.45 13.48 -0.45 13.48 -5 15 C-5.33 13.68 -5.66 12.36 -6 11 C-5.01 11.33 -4.02 11.66 -3 12 C-3 11.01 -3 10.02 -3 9 C-2.34 9 -1.68 9 -1 9 C-1 9.66 -1 10.32 -1 11 C-0.34 11 0.32 11 1 11 C1 9.68 1 8.36 1 7 C-1.31 6.67 -3.62 6.34 -6 6 C-6 6.66 -6 7.32 -6 8 C-6.66 8 -7.32 8 -8 8 C-8 6.35 -8 4.7 -8 3 C-5.36 2.67 -2.72 2.34 0 2 C0 1.34 0 0.68 0 0 Z " fill="#1F252B" transform="translate(19,52)"/>
<path d="M0 0 C1.65 0.33 3.3 0.66 5 1 C4.34 2.98 3.68 4.96 3 7 C3.66 7 4.32 7 5 7 C5 6.34 5 5.68 5 5 C7.31 5.33 9.62 5.66 12 6 C12 7.32 12 8.64 12 10 C11.34 10 10.68 10 10 10 C10 9.34 10 8.68 10 8 C9.34 8 8.68 8 8 8 C8 8.99 8 9.98 8 11 C6.02 11.66 4.04 12.32 2 13 C1.47 11.4 0.95 9.79 0.44 8.19 C0.15 7.29 -0.14 6.4 -0.44 5.48 C-1 3 -1 3 0 0 Z " fill="#13191F" transform="translate(8,53)"/>
<path d="M0 0 C0 1.65 0 3.3 0 5 C-0.66 4.67 -1.32 4.34 -2 4 C-2.66 6.97 -3.32 9.94 -4 13 C-4.66 13 -5.32 13 -6 13 C-6.84 11.54 -7.67 10.09 -8.5 8.62 C-9.2 7.41 -9.2 7.41 -9.91 6.16 C-11 4 -11 4 -11 2 C-6.9 -0.39 -4.61 -1.49 0 0 Z " fill="#23252C" transform="translate(40,10)"/>
<path d="M0 0 C0.99 0.33 1.98 0.66 3 1 C3 1.66 3 2.32 3 3 C5.47 3.99 5.47 3.99 8 5 C6.68 5.33 5.36 5.66 4 6 C4.33 6.99 4.66 7.98 5 9 C4.34 9 3.68 9 3 9 C3.33 10.32 3.66 11.64 4 13 C1.06 12.25 1.06 12.25 -2 11 C-2.88 8.88 -2.88 8.88 -3 7 C-2.34 7 -1.68 7 -1 7 C-1 6.34 -1 5.68 -1 5 C-1.66 5 -2.32 5 -3 5 C-3 3 -3 3 -1.5 1.38 C-1.01 0.92 -0.51 0.47 0 0 Z " fill="#212529" transform="translate(61,10)"/>
<path d="M0 0 C0.66 0 1.32 0 2 0 C1.67 1.32 1.34 2.64 1 4 C1.91 4.12 2.82 4.25 3.75 4.38 C6.59 4.92 8.53 5.57 11 7 C11 7.66 11 8.32 11 9 C9.68 9 8.36 9 7 9 C7 9.66 7 10.32 7 11 C4.03 10.67 1.06 10.34 -2 10 C-1.12 2.25 -1.12 2.25 0 0 Z " fill="#13151D" transform="translate(11,30)"/>
<path d="M0 0 C0.99 0 1.98 0 3 0 C6.08 5.42 6.08 5.42 5.69 8.38 C5.46 8.91 5.23 9.45 5 10 C3.12 9.69 3.12 9.69 1 9 C-1.15 5.78 -1.29 4.72 -1 1 C-0.67 0.67 -0.34 0.34 0 0 Z " fill="#D8D8D9" transform="translate(64,76)"/>
<path d="M0 0 C0.66 0 1.32 0 2 0 C2 0.99 2 1.98 2 3 C2.99 3 3.98 3 5 3 C5 3.66 5 4.32 5 5 C4.34 5 3.68 5 3 5 C3 6.32 3 7.64 3 9 C0.69 9 -1.62 9 -4 9 C-3.72 8.1 -3.72 8.1 -3.44 7.19 C-2.78 4.84 -2.78 4.84 -4 2 C-2.68 2 -1.36 2 0 2 C0 1.34 0 0.68 0 0 Z " fill="#D2D3D3" transform="translate(74,40)"/>
<path d="M0 0 C0.6 0.21 1.2 0.41 1.81 0.62 C1.81 1.94 1.81 3.27 1.81 4.62 C-0.5 6.44 -0.5 6.44 -3.19 7.62 C-4.18 7.3 -5.17 6.97 -6.19 6.62 C-5.88 4.25 -5.88 4.25 -5.19 1.62 C-2.19 -0.38 -2.19 -0.38 0 0 Z " fill="#C8C8C9" transform="translate(23.1875,66.375)"/>
<path d="M0 0 C1.65 0.33 3.3 0.66 5 1 C5 1.99 5 2.98 5 4 C5.99 4.33 6.98 4.66 8 5 C7.33 6.33 6.67 7.67 6 9 C3.16 7.73 0.86 6.55 -1 4 C-0.69 1.81 -0.69 1.81 0 0 Z " fill="#C9CACA" transform="translate(70,72)"/>
<path d="M0 0 C2.48 0.49 2.48 0.49 5 1 C5 3.64 5 6.28 5 9 C3.68 9 2.36 9 1 9 C0 8 0 8 -0.1 6.15 C-0.07 4.1 -0.03 2.05 0 0 Z " fill="#D8D8D9" transform="translate(40,11)"/>
<path d="M0 0 C2.06 0.44 2.06 0.44 4 1 C4 1.99 4 2.98 4 4 C3.01 4.33 2.02 4.66 1 5 C1.99 5 2.98 5 4 5 C3.67 6.65 3.34 8.3 3 10 C1.68 9.67 0.36 9.34 -1 9 C-1.1 2.85 -1.1 2.85 -1 1 C-0.67 0.67 -0.34 0.34 0 0 Z " fill="#D6D7D7" transform="translate(49,10)"/>
<path d="M0 0 C1.98 0.5 1.98 0.5 4 1 C3.67 3.97 3.34 6.94 3 10 C2.01 10 1.02 10 0 10 C-0.19 8.52 -0.38 7.04 -0.56 5.56 C-0.67 4.74 -0.77 3.92 -0.88 3.07 C-0.92 2.38 -0.96 1.7 -1 1 C-0.67 0.67 -0.34 0.34 0 0 Z " fill="#CECECF" transform="translate(56,79)"/>
<path d="M0 0 C1.09 0.03 2.17 0.05 3.29 0.08 C4.54 0.13 4.54 0.13 5.81 0.19 C5.81 0.52 5.81 0.85 5.81 1.19 C3.76 1.42 1.71 1.64 -0.34 1.87 C-2.2 2.01 -2.2 2.01 -3.19 3.19 C0.11 3.52 3.41 3.85 6.81 4.19 C6.81 4.52 6.81 4.85 6.81 5.19 C4.9 5.24 2.98 5.28 1.06 5.31 C-0.54 5.35 -0.54 5.35 -2.17 5.38 C-5.11 5.19 -6.71 4.71 -9.19 3.19 C-6.54 -0.35 -4.24 -0.14 0 0 Z " fill="#AB0A18" transform="translate(49.1875,71.8125)"/>
<path d="M0 0 C1.65 0.33 3.3 0.66 5 1 C4.67 2.65 4.34 4.3 4 6 C3.01 6 2.02 6 1 6 C1 6.66 1 7.32 1 8 C1.66 8 2.32 8 3 8 C3 8.66 3 9.32 3 10 C1.68 10 0.36 10 -1 10 C-0.67 6.7 -0.34 3.4 0 0 Z " fill="#C3C4C5" transform="translate(40,79)"/>
<path d="M0 0 C1.98 0.5 1.98 0.5 4 1 C3.67 1.99 3.34 2.98 3 4 C3.33 4.33 3.66 4.66 4 5 C4.04 6.67 4.04 8.33 4 10 C2.35 9.67 0.7 9.34 -1 9 C-1 8.34 -1 7.68 -1 7 C-0.34 6.67 0.32 6.34 1 6 C0.34 5.67 -0.32 5.34 -1 5 C-0.67 3.35 -0.34 1.7 0 0 Z " fill="#D6D6D7" transform="translate(48,80)"/>
<path d="M0 0 C1.32 0.33 2.64 0.66 4 1 C3.34 1 2.68 1 2 1 C2 1.66 2 2.32 2 3 C2.99 2.34 3.98 1.68 5 1 C7.19 1.38 7.19 1.38 9 2 C9 3.32 9 4.64 9 6 C6.36 5.67 3.72 5.34 1 5 C0.67 3.35 0.34 1.7 0 0 Z " fill="#CFD0D0" transform="translate(78,60)"/>
<path d="M0 0 C0.99 0 1.98 0 3 0 C3 0.66 3 1.32 3 2 C3.66 2 4.32 2 5 2 C5 1.34 5 0.68 5 0 C6.32 0.33 7.64 0.66 9 1 C8.67 2.32 8.34 3.64 8 5 C5.36 5 2.72 5 0 5 C-0.56 3.06 -0.56 3.06 -1 1 C-0.67 0.67 -0.34 0.34 0 0 Z " fill="#D7D7D8" transform="translate(11,47)"/>
<path d="M0 0 C1.98 0.5 1.98 0.5 4 1 C3.34 1.66 2.68 2.32 2 3 C5 4.33 5 4.33 8 3 C7.67 4.65 7.34 6.3 7 8 C3.64 7.4 1.62 6.15 -1 4 C-0.67 2.68 -0.34 1.36 0 0 Z " fill="#D0D0D1" transform="translate(17,27)"/>
<path d="M0 0 C1.17 0.78 2.34 1.58 3.5 2.38 C4.47 3.04 4.47 3.04 5.47 3.71 C5.97 4.14 6.48 4.56 7 5 C7 5.66 7 6.32 7 7 C6.34 7 5.68 7 5 7 C4.67 7.66 4.34 8.32 4 9 C3.34 9 2.68 9 2 9 C0.44 6.19 0.44 6.19 -1 3 C-0.67 2.01 -0.34 1.02 0 0 Z " fill="#D4D4D5" transform="translate(26,18)"/>
<path d="M0 0 C2.48 0.49 2.48 0.49 5 1 C4.67 3.64 4.34 6.28 4 9 C3.34 9 2.68 9 2 9 C0.14 5.87 -0.2 3.63 0 0 Z " fill="#CACACB" transform="translate(32,14)"/>
<path d="M0 0 C0.66 0.33 1.32 0.66 2 1 C1.67 2.32 1.34 3.64 1 5 C-1.31 5.66 -3.62 6.32 -6 7 C-6.33 5.68 -6.66 4.36 -7 3 C-6.01 3.33 -5.02 3.66 -4 4 C-4 3.01 -4 2.02 -4 1 C-3.34 1 -2.68 1 -2 1 C-2 1.66 -2 2.32 -2 3 C-1.34 3 -0.68 3 0 3 C0 2.01 0 1.02 0 0 Z " fill="#CBCCCC" transform="translate(20,60)"/>
<path d="M0 0 C3.3 0 6.6 0 10 0 C9.67 1.32 9.34 2.64 9 4 C6.36 3.67 3.72 3.34 1 3 C0.67 2.01 0.34 1.02 0 0 Z " fill="#BBBCBC" transform="translate(11,41)"/>
<path d="M0 0 C1.65 0.33 3.3 0.66 5 1 C3.68 1.33 2.36 1.66 1 2 C1.33 2.99 1.66 3.98 2 5 C1.34 5 0.68 5 0 5 C0.33 6.32 0.66 7.64 1 9 C-0.32 8.67 -1.64 8.34 -3 8 C-1.12 2.25 -1.12 2.25 0 0 Z " fill="#D6D6D7" transform="translate(64,14)"/>
<path d="M0 0 C2.06 0.44 2.06 0.44 4 1 C3.01 1.33 2.02 1.66 1 2 C1 2.66 1 3.32 1 4 C1.66 4 2.32 4 3 4 C3 4.66 3 5.32 3 6 C2.34 6 1.68 6 1 6 C1.33 7.32 1.66 8.64 2 10 C1.01 9.67 0.02 9.34 -1 9 C-1.1 2.85 -1.1 2.85 -1 1 C-0.67 0.67 -0.34 0.34 0 0 Z " fill="#D1D1D2" transform="translate(57,11)"/>
<path d="M0 0 C0.66 0 1.32 0 2 0 C2.12 0.64 2.25 1.28 2.38 1.94 C2.68 2.96 2.68 2.96 3 4 C3.66 4.33 4.32 4.66 5 5 C4.67 6.32 4.34 7.64 4 9 C3.01 9 2.02 9 1 9 C1 7.68 1 6.36 1 5 C0.01 4.67 -0.98 4.34 -2 4 C-1 2 -1 2 0 1 C0 0.67 0 0.34 0 0 Z " fill="#22272C" transform="translate(51,80)"/>
<path d="M0 0 C0.66 0 1.32 0 2 0 C2 0.66 2 1.32 2 2 C2.8 2.27 3.61 2.54 4.44 2.81 C5.28 3.2 6.13 3.6 7 4 C7.33 4.99 7.66 5.98 8 7 C5.03 6.01 2.06 5.02 -1 4 C-0.67 2.68 -0.34 1.36 0 0 Z " fill="#CFCFD0" transform="translate(75,66)"/>
<path d="M0 0 C2.97 0 5.94 0 9 0 C9 0.66 9 1.32 9 2 C6.69 2.33 4.38 2.66 2 3 C2 3.66 2 4.32 2 5 C1.34 5 0.68 5 0 5 C0 3.35 0 1.7 0 0 Z " fill="#CDCDCE" transform="translate(11,55)"/>
<path d="M0 0 C3.34 0.56 6.03 1.35 9 3 C9 3.66 9 4.32 9 5 C5.66 4.44 2.97 3.65 0 2 C0 1.34 0 0.68 0 0 Z " fill="#C1C1C2" transform="translate(13,34)"/>
<path d="M0 0 C2.06 0.44 2.06 0.44 4 1 C3.67 2.32 3.34 3.64 3 5 C1.68 5.33 0.36 5.66 -1 6 C-1.04 4.33 -1.04 2.67 -1 1 C-0.67 0.67 -0.34 0.34 0 0 Z " fill="#ADAEAF" transform="translate(56,79)"/>
<path d="M0 0 C0.66 0 1.32 0 2 0 C2.33 1.98 2.66 3.96 3 6 C2.01 6.33 1.02 6.66 0 7 C-0.93 3.99 -1.04 3.13 0 0 Z " fill="#919293" transform="translate(41,13)"/>
<path d="M0 0 C1.32 0 2.64 0 4 0 C3.67 1.65 3.34 3.3 3 5 C2.01 5 1.02 5 0 5 C0 3.35 0 1.7 0 0 Z " fill="#C3C3C3" transform="translate(49,15)"/>
<path d="M0 0 C0.66 0 1.32 0 2 0 C2.66 1.98 3.32 3.96 4 6 C3.01 6 2.02 6 1 6 C-0.06 4.12 -0.06 4.12 -1 2 C-0.67 1.34 -0.34 0.68 0 0 Z " fill="#848586" transform="translate(64,78)"/>
</svg>
