<?xml version="1.0" encoding="UTF-8"?>
<!-- Generator: https://ezgif.com/webp-to-svg -->
<svg version="1.1" xmlns="http://www.w3.org/2000/svg" width="512" height="512" viewBox="-58.445 -38.485 716.89 716.89" preserveAspectRatio="xMidYMid meet">
<path d="M0 0 C0 40.26 0 80.52 0 122 C4.29 120.68 8.58 119.36 13 118 C19.6 116.35 26.2 114.7 33 113 C33 237.41 33 361.82 33 490 C12.21 495.44 12.21 495.44 -9 501 C-18.9 503.67 -18.9 503.67 -28.79 506.38 C-42.92 510.28 -57.07 514.1 -71.25 517.81 C-86.81 521.88 -102.34 526.02 -117.88 530.19 C-119.65 530.66 -119.65 530.66 -121.47 531.15 C-127.55 532.78 -133.63 534.41 -139.71 536.04 C-150.31 538.89 -160.91 541.73 -171.52 544.57 C-177.35 546.13 -183.17 547.69 -189 549.25 C-191.33 549.88 -193.67 550.5 -196 551.12 C-197.15 551.43 -198.31 551.74 -199.5 552.06 C-203 553 -206.5 553.94 -210 554.88 C-211.15 555.18 -212.31 555.49 -213.5 555.81 C-215.83 556.44 -218.17 557.06 -220.5 557.69 C-226.33 559.25 -232.16 560.81 -237.98 562.37 C-248.56 565.2 -259.13 568.04 -269.71 570.86 C-275.64 572.45 -281.57 574.04 -287.5 575.62 C-288.66 575.94 -289.82 576.25 -291.02 576.57 C-308.4 581.22 -325.77 585.91 -343.13 590.63 C-356.92 594.37 -370.73 598.05 -384.55 601.66 C-397.31 605 -410.03 608.45 -422.75 611.94 C-438.92 616.37 -455.11 620.69 -471.34 624.9 C-480.42 627.26 -489.49 629.66 -498.54 632.13 C-500.43 632.65 -502.33 633.17 -504.23 633.68 C-507.83 634.66 -511.43 635.65 -515.03 636.65 C-516.66 637.09 -518.29 637.54 -519.92 637.98 C-521.02 638.29 -521.02 638.29 -522.14 638.6 C-526.38 639.75 -529.48 640 -534 640 C-534 564.43 -534 488.86 -534 411 C-540.43 412.98 -540.43 412.98 -547 415 C-553.6 416.65 -560.2 418.3 -567 420 C-567 330.9 -567 241.8 -567 150 C-539.61 142.74 -512.22 135.48 -484 128 C-470.84 124.48 -457.69 120.97 -444.54 117.43 C-437.81 115.62 -431.07 113.81 -424.34 112 C-421.8 111.32 -419.26 110.64 -416.72 109.95 C-405.71 106.99 -394.69 104.04 -383.67 101.1 C-382.93 100.9 -382.2 100.7 -381.44 100.5 C-378.48 99.71 -375.52 98.92 -372.57 98.13 C-344.88 90.73 -317.2 83.28 -289.53 75.79 C-271.12 70.8 -252.7 65.82 -234.23 61 C-220.1 57.31 -205.99 53.49 -191.89 49.66 C-177.76 45.82 -163.62 42.04 -149.45 38.34 C-136.69 35 -123.97 31.55 -111.25 28.06 C-95.08 23.63 -78.89 19.31 -62.66 15.1 C-53.58 12.74 -44.51 10.34 -35.46 7.87 C-33.57 7.35 -31.67 6.83 -29.77 6.32 C-26.17 5.34 -22.57 4.35 -18.97 3.35 C-17.34 2.91 -15.71 2.46 -14.08 2.02 C-12.98 1.71 -12.98 1.71 -11.86 1.4 C-7.62 0.25 -4.52 0 0 0 Z " fill="#031AFE" transform="translate(567,0)"/>
<path d="M0 0 C0.02 15.04 0.04 30.07 0.05 45.11 C0.06 52.1 0.06 59.08 0.08 66.07 C0.14 104.4 -0.18 142.69 -1 181 C-3.23 181.64 -5.45 182.28 -7.68 182.92 C-8.92 183.27 -10.16 183.63 -11.44 184 C-15.87 185.25 -20.33 186.36 -24.81 187.44 C-31.05 188.97 -37.23 190.59 -43.38 192.44 C-57.08 196.55 -70.87 200.35 -84.82 203.54 C-90.55 204.86 -96.21 206.41 -101.86 208.01 C-107.91 209.71 -113.98 211.31 -120.06 212.88 C-127.99 214.92 -135.88 217.07 -143.75 219.31 C-154.04 222.23 -164.38 224.92 -174.75 227.56 C-184.94 230.16 -195.1 232.81 -205.2 235.76 C-212.79 237.97 -220.42 240.03 -228.06 242.06 C-228.71 242.24 -229.36 242.41 -230.03 242.59 C-238.65 244.88 -247.3 247.09 -255.97 249.22 C-261.54 250.6 -267.05 252.14 -272.56 253.75 C-282.15 256.55 -291.82 259.04 -301.5 261.5 C-310.97 263.91 -320.43 266.33 -329.81 269.06 C-349.1 274.69 -368.58 279.65 -388.05 284.63 C-395.98 286.67 -403.89 288.77 -411.75 291.06 C-421.54 293.91 -431.41 296.47 -441.29 299.01 C-450.32 301.34 -459.35 303.69 -468.38 306.06 C-469.2 306.28 -470.02 306.5 -470.87 306.72 C-480.88 309.35 -490.87 312.05 -500.81 314.94 C-507.39 316.85 -514 318.63 -520.62 320.38 C-522.11 320.77 -522.11 320.77 -523.63 321.17 C-524.55 321.41 -525.47 321.65 -526.41 321.9 C-527.23 322.11 -528.04 322.32 -528.88 322.54 C-531 323 -531 323 -534 323 C-534 352.04 -534 381.08 -534 411 C-544.9 414.35 -555.94 417.23 -567 420 C-567 330.9 -567 241.8 -567 150 C-539.61 142.74 -512.22 135.48 -484 128 C-470.84 124.48 -457.69 120.97 -444.54 117.43 C-437.81 115.62 -431.07 113.81 -424.34 112 C-421.8 111.32 -419.26 110.64 -416.72 109.95 C-405.71 106.99 -394.69 104.04 -383.67 101.1 C-382.93 100.9 -382.2 100.7 -381.44 100.5 C-378.48 99.71 -375.52 98.92 -372.57 98.13 C-344.88 90.73 -317.2 83.28 -289.53 75.79 C-271.12 70.8 -252.7 65.82 -234.23 61 C-220.1 57.31 -205.99 53.49 -191.89 49.66 C-177.76 45.82 -163.62 42.04 -149.45 38.34 C-136.69 35 -123.97 31.55 -111.25 28.06 C-95.08 23.63 -78.89 19.31 -62.66 15.1 C-53.58 12.74 -44.51 10.34 -35.46 7.87 C-33.57 7.35 -31.67 6.83 -29.77 6.32 C-26.17 5.34 -22.57 4.35 -18.97 3.35 C-17.34 2.91 -15.71 2.46 -14.08 2.02 C-12.98 1.71 -12.98 1.71 -11.86 1.4 C-7.78 0.3 -4.21 -0.08 0 0 Z " fill="#F9262A" transform="translate(567,0)"/>
<path d="M0 0 C0.42 9.29 0.74 18.58 0.93 27.88 C1.03 32.2 1.15 36.51 1.36 40.83 C2.65 68.62 2.65 68.62 -1.68 75.78 C-5.7 80.05 -10.28 82.57 -15.62 84.86 C-19.75 86.83 -23.26 89.66 -26.88 92.44 C-33.4 97.16 -39.97 101.82 -46.56 106.44 C-47.37 107 -48.18 107.57 -49.01 108.16 C-54.29 111.84 -59.63 115.45 -65 119 C-56.31 117.17 -47.79 114.79 -39.24 112.39 C-38.13 112.08 -37.01 111.78 -35.86 111.46 C-34.85 111.18 -33.85 110.9 -32.81 110.61 C-29.07 109.8 -26.36 109.28 -22.89 111.11 C-22.21 111.63 -21.52 112.14 -20.82 112.67 C-20.06 113.23 -19.29 113.8 -18.5 114.38 C-17.72 114.97 -16.93 115.57 -16.12 116.19 C-14.57 117.35 -13.01 118.51 -11.45 119.67 C-10.76 120.19 -10.07 120.7 -9.37 121.24 C-7.17 122.96 -7.17 122.96 -5.27 123.92 C-2.4 125.57 -0.37 126.84 0.66 130.08 C0.93 132.72 0.98 135.29 0.95 137.94 C0.97 138.94 0.99 139.93 1.01 140.96 C1.05 144.26 1.05 147.55 1.04 150.85 C1.05 153.15 1.06 155.45 1.08 157.75 C1.1 162.57 1.1 167.39 1.08 172.21 C1.05 178.36 1.11 184.52 1.18 190.68 C1.23 195.43 1.23 200.17 1.22 204.92 C1.22 207.19 1.24 209.46 1.27 211.73 C1.52 231.66 1.52 231.66 -4.88 238.73 C-6.56 240.19 -8.26 241.61 -10 243 C-11.11 244.28 -12.19 245.58 -13.21 246.93 C-13.87 247.78 -13.87 247.78 -14.54 248.65 C-14.96 249.2 -15.38 249.75 -15.81 250.31 C-17.12 252.01 -18.43 253.7 -19.76 255.38 C-20.96 256.95 -22.08 258.59 -23.2 260.23 C-27.07 264.05 -30.81 264.76 -36 266 C-37.74 266.5 -39.48 267 -41.21 267.51 C-54.44 271.26 -67.73 274.76 -81.05 278.15 C-90.36 280.52 -99.63 282.98 -108.85 285.69 C-118.12 288.38 -127.48 290.71 -136.83 293.09 C-145.42 295.28 -153.99 297.5 -162.5 300 C-172.11 302.82 -181.8 305.32 -191.5 307.81 C-192.28 308.01 -193.06 308.21 -193.87 308.42 C-196.11 309 -198.35 309.57 -200.59 310.14 C-201.27 310.32 -201.94 310.49 -202.63 310.67 C-204.42 311.12 -206.21 311.56 -208 312 C-208.9 312.25 -209.79 312.5 -210.72 312.76 C-213.64 313.07 -214.59 312.41 -216.93 310.68 C-217.64 310.17 -218.36 309.65 -219.09 309.12 C-219.82 308.56 -220.56 308.01 -221.31 307.44 C-222.03 306.91 -222.75 306.38 -223.5 305.84 C-225.68 304.24 -227.84 302.63 -230 301 C-230.67 300.63 -231.34 300.26 -232.02 299.88 C-235.39 297.83 -237.62 296.37 -238.7 292.46 C-238.93 289.29 -238.9 286.21 -238.78 283.04 C-238.76 281.32 -238.76 281.32 -238.75 279.57 C-238.7 275.92 -238.6 272.27 -238.5 268.62 C-238.46 266.15 -238.42 263.67 -238.39 261.19 C-238.3 255.13 -238.17 249.06 -238 243 C-226.65 239.71 -215.31 236.46 -203.81 233.69 C-201.78 233.19 -199.74 232.7 -197.71 232.2 C-196.42 231.89 -196.42 231.89 -195.1 231.57 C-192.96 231.06 -192.96 231.06 -191 230 C-189.02 230 -187.04 230 -185 230 C-185 237.92 -185 245.84 -185 254 C-181.84 253.13 -178.69 252.27 -175.44 251.38 C-167.37 249.17 -159.29 247.03 -151.19 244.94 C-143.77 243.02 -136.41 240.97 -129.08 238.76 C-123.48 237.09 -117.84 235.74 -112.15 234.44 C-106.7 233.19 -101.35 231.7 -95.99 230.13 C-89.95 228.39 -83.86 226.85 -77.78 225.28 C-69.84 223.23 -61.93 221.11 -54 219 C-53.67 202.5 -53.34 186 -53 169 C-64.54 171.75 -75.63 174.39 -86.91 177.79 C-93.09 179.64 -99.34 181.19 -105.59 182.77 C-115.27 185.21 -124.95 187.68 -134.57 190.36 C-135.58 190.64 -135.58 190.64 -136.61 190.93 C-139.78 191.81 -142.95 192.71 -146.11 193.61 C-147.23 193.93 -148.35 194.24 -149.5 194.57 C-150.47 194.84 -151.44 195.12 -152.44 195.41 C-155 196 -155 196 -159 196 C-159.46 189 -159.77 182 -159.99 174.98 C-160.08 172.6 -160.2 170.22 -160.36 167.85 C-161.59 148.72 -161.59 148.72 -157.33 142.6 C-153.15 138.33 -148.33 135.21 -143.16 132.25 C-140.5 130.71 -138.1 128.92 -135.68 127.03 C-134.27 126 -132.85 124.97 -131.44 123.94 C-123.3 117.98 -115.27 111.89 -107.27 105.75 C-72.45 78.99 -72.45 78.99 -55 67 C-62.75 68.24 -70.13 70.08 -77.62 72.38 C-84.69 74.49 -91.74 76.51 -98.94 78.12 C-104.38 79.35 -109.72 80.75 -115.06 82.38 C-121.99 84.48 -128.97 86.28 -136 88 C-144.43 90.07 -152.77 92.33 -161.08 94.83 C-165.12 96.04 -169.18 97.2 -173.25 98.31 C-174.43 98.64 -175.61 98.96 -176.83 99.3 C-180 100 -180 100 -185 100 C-185 108.91 -185 117.82 -185 127 C-197.06 130.13 -197.06 130.13 -201.05 131.16 C-206.97 132.69 -212.89 134.23 -218.81 135.8 C-219.85 136.08 -220.9 136.35 -221.98 136.64 C-223.96 137.16 -225.94 137.69 -227.93 138.22 C-228.82 138.46 -229.71 138.69 -230.62 138.93 C-231.79 139.24 -231.79 139.24 -232.98 139.56 C-235 140 -235 140 -238 140 C-238 114.59 -238 89.18 -238 63 C-228.1 60.52 -228.1 60.52 -218 58 C-212.72 56.44 -212.72 56.44 -207.44 54.87 C-201.43 53.06 -195.35 51.56 -189.25 50.06 C-181.85 48.25 -174.5 46.33 -167.19 44.19 C-157.68 41.4 -148.1 38.94 -138.5 36.5 C-124.55 32.95 -124.55 32.95 -110.69 29.06 C-100.96 26.21 -91.17 23.63 -81.38 21.06 C-80.55 20.85 -79.73 20.63 -78.88 20.41 C-69.45 17.93 -60.02 15.49 -50.58 13.06 C-40.94 10.58 -31.35 8 -21.82 5.13 C-17.77 3.93 -13.71 2.79 -9.62 1.69 C-7.82 1.2 -7.82 1.2 -5.98 0.7 C-3 0 -3 0 0 0 Z " fill="#FDFDFF" transform="translate(299,287)"/>
<path d="M0 0 C0.23 9.25 0.41 18.5 0.52 27.75 C0.57 32.04 0.64 36.34 0.75 40.63 C0.86 44.78 0.92 48.93 0.95 53.08 C0.97 54.66 1 56.24 1.06 57.82 C1.46 70.15 1.46 70.15 -2.13 74.69 C-4.66 76.74 -7.17 78.39 -10 80 C-11.54 81.07 -13.08 82.15 -14.61 83.24 C-16.13 84.27 -17.66 85.29 -19.19 86.31 C-25.7 90.71 -32.1 95.21 -38.41 99.89 C-43.31 103.51 -48.27 107.05 -53.25 110.56 C-53.98 111.08 -54.71 111.59 -55.46 112.12 C-58.29 114.11 -61.12 116.08 -64 118 C-55.72 116.2 -47.57 114.11 -39.45 111.71 C-37.31 111.1 -35.16 110.54 -33 110 C-32 109.72 -32 109.72 -30.98 109.43 C-26.74 108.52 -24.31 109.06 -20.78 111.32 C-19.34 112.38 -17.91 113.46 -16.5 114.56 C-15.44 115.35 -15.44 115.35 -14.36 116.16 C-13.01 117.16 -11.67 118.18 -10.34 119.2 C-8.13 120.98 -8.13 120.98 -6.06 122.14 C-0.47 125.67 -0.47 125.67 0.76 129.17 C1.06 131.81 1.12 134.36 1.08 137.02 C1.1 138.02 1.12 139.01 1.14 140.03 C1.19 143.32 1.18 146.6 1.17 149.88 C1.18 152.17 1.2 154.46 1.21 156.75 C1.24 161.56 1.23 166.37 1.21 171.17 C1.18 177.3 1.24 183.43 1.32 189.56 C1.37 194.3 1.37 199.04 1.36 203.77 C1.36 206.03 1.37 208.29 1.41 210.55 C1.68 230.92 1.68 230.92 -5.32 238.66 C-7.16 240.51 -9.07 242.24 -11 244 C-12.45 245.72 -13.87 247.47 -15.25 249.25 C-16.09 250.31 -16.09 250.31 -16.95 251.39 C-18.97 253.85 -18.97 253.85 -20.28 256.15 C-24.98 263.39 -30.22 265 -38.46 266.75 C-39.13 266.9 -39.81 267.04 -40.5 267.19 C-41.9 267.51 -43.29 267.84 -44.68 268.17 C-47.48 268.83 -50.27 269.47 -53.07 270.1 C-58.46 271.32 -63.79 272.71 -69.12 274.12 C-70.05 274.37 -70.97 274.61 -71.92 274.85 C-78.99 276.7 -86 278.71 -93.02 280.75 C-99.64 282.66 -106.31 284.36 -113 286 C-120.32 287.8 -127.58 289.69 -134.81 291.81 C-144.32 294.6 -153.9 297.06 -163.5 299.5 C-175.04 302.44 -186.53 305.46 -197.95 308.81 C-198.98 309.11 -198.98 309.11 -200.04 309.41 C-201.95 309.98 -203.84 310.6 -205.73 311.22 C-210.21 312.29 -212.7 311.77 -216.66 309.43 C-217.59 308.77 -218.53 308.12 -219.48 307.44 C-220.5 306.72 -221.52 306.01 -222.57 305.27 C-224.14 304.15 -224.14 304.15 -225.75 303 C-226.82 302.25 -227.88 301.5 -228.98 300.73 C-236.77 295.23 -236.77 295.23 -238 294 C-238.09 292.37 -238.12 290.74 -238.11 289.11 C-238.11 288.07 -238.11 287.03 -238.11 285.96 C-238.11 284.83 -238.1 283.69 -238.1 282.53 C-238.1 281.37 -238.09 280.22 -238.09 279.03 C-238.09 275.34 -238.08 271.64 -238.06 267.94 C-238.06 265.44 -238.05 262.94 -238.05 260.44 C-238.04 254.29 -238.02 248.15 -238 242 C-237.19 241.78 -236.37 241.57 -235.53 241.34 C-232.42 240.52 -229.31 239.69 -226.2 238.87 C-224.82 238.5 -223.44 238.13 -222.06 237.76 C-212.1 235.12 -212.1 235.12 -202.18 232.36 C-201.36 232.12 -200.54 231.89 -199.7 231.65 C-198.24 231.23 -196.78 230.8 -195.32 230.37 C-191.61 229.31 -188.95 229 -185 229 C-185 236.92 -185 244.84 -185 253 C-180.82 251.94 -176.65 250.87 -172.47 249.8 C-171.06 249.44 -169.64 249.08 -168.23 248.72 C-160.04 246.64 -151.93 244.44 -143.88 241.87 C-140.86 240.96 -137.83 240.24 -134.75 239.56 C-129.91 238.49 -125.18 237.19 -120.44 235.75 C-112.77 233.43 -105.03 231.47 -97.25 229.56 C-87.72 227.22 -78.25 224.74 -68.83 221.95 C-68.06 221.73 -67.29 221.5 -66.49 221.26 C-65.83 221.07 -65.18 220.87 -64.51 220.67 C-60.7 219.65 -56.84 218.85 -53 218 C-52.5 192.75 -52.5 192.75 -52 167 C-55.96 168.32 -59.92 169.64 -64 171 C-67.89 172.02 -71.78 173 -75.69 173.94 C-82.59 175.62 -89.45 177.36 -96.25 179.44 C-104.95 182.09 -113.77 184.23 -122.6 186.4 C-130.87 188.45 -139.08 190.62 -147.27 192.96 C-151.16 194.05 -155.07 195.03 -159 196 C-159.49 188.85 -159.82 181.71 -160.04 174.55 C-160.14 172.12 -160.27 169.7 -160.43 167.27 C-161.73 147.74 -161.73 147.74 -157.24 141.59 C-152.8 137.29 -147.7 134.22 -142.29 131.28 C-139.39 129.66 -136.84 127.73 -134.25 125.66 C-133.47 125.06 -132.69 124.46 -131.88 123.84 C-131.12 123.26 -130.35 122.67 -129.56 122.06 C-121.92 116.21 -114.23 110.41 -106.52 104.65 C-100.47 100.11 -94.45 95.53 -88.44 90.94 C-79.33 83.97 -70.12 77.14 -60.86 70.37 C-58.9 68.93 -56.95 67.47 -55 66 C-72.67 70.03 -90.2 74.57 -107.61 79.61 C-126.29 84.99 -145.13 89.81 -163.96 94.65 C-164.99 94.92 -166.01 95.18 -167.07 95.46 C-167.96 95.68 -168.84 95.91 -169.75 96.14 C-174.51 97.4 -179.25 98.71 -184 100 C-184.33 108.58 -184.66 117.16 -185 126 C-191.03 127.55 -191.03 127.55 -197.19 129.12 C-207 131.65 -216.76 134.28 -226.46 137.22 C-227.26 137.46 -228.05 137.69 -228.87 137.93 C-229.89 138.24 -229.89 138.24 -230.93 138.56 C-233 139 -233 139 -238 139 C-238 113.92 -238 88.84 -238 63 C-229.01 59.63 -229.01 59.63 -224.71 58.61 C-223.76 58.38 -222.81 58.15 -221.83 57.91 C-220.84 57.67 -219.84 57.43 -218.81 57.19 C-211.22 55.33 -203.68 53.39 -196.19 51.19 C-186.68 48.4 -177.1 45.94 -167.5 43.5 C-153.55 39.95 -153.55 39.95 -139.69 36.06 C-129.96 33.21 -120.17 30.63 -110.38 28.06 C-109.55 27.85 -108.73 27.63 -107.88 27.41 C-99.64 25.25 -91.39 23.1 -83.14 20.98 C-73.14 18.41 -63.17 15.83 -53.28 12.84 C-46.44 10.79 -39.53 9.02 -32.61 7.24 C-27.97 6.05 -23.35 4.83 -18.74 3.51 C-17.52 3.16 -17.52 3.16 -16.28 2.8 C-14.77 2.36 -13.26 1.92 -11.76 1.47 C-7.7 0.3 -4.21 -0.08 0 0 Z " fill="#FDFDFF" transform="translate(567,216)"/>
<path d="M0 0 C4.38 2.6 6.84 4.48 8.23 9.52 C8.66 13.02 8.68 16.48 8.57 20.01 C8.52 22.21 8.57 24.39 8.64 26.59 C8.68 36.51 6.34 41.72 -0.59 48.81 C-2.96 50.76 -2.96 50.76 -2.73 53.04 C-1.09 53.92 0.55 54.78 2.2 55.64 C5.77 58.09 7.07 59.32 8.24 63.54 C8.63 67.07 8.63 70.57 8.52 74.12 C8.46 76.34 8.5 78.55 8.55 80.77 C8.56 88.05 7.93 93.24 2.82 98.89 C1.32 100.29 -0.2 101.67 -1.73 103.04 C-2.39 104.03 -3.05 105.02 -3.73 106.04 C-6.17 106.94 -6.17 106.94 -9.23 107.69 C-10.36 107.97 -11.48 108.25 -12.64 108.54 C-13.85 108.83 -15.05 109.11 -16.29 109.41 C-18.78 110.03 -21.27 110.65 -23.75 111.28 C-24.96 111.58 -26.17 111.88 -27.41 112.19 C-31.45 113.22 -35.43 114.38 -39.42 115.6 C-47.13 117.94 -54.93 119.87 -62.75 121.79 C-69.97 123.57 -77.14 125.49 -84.29 127.57 C-87.21 128.4 -89.67 129.04 -92.73 129.04 C-92.73 93.73 -92.73 58.42 -92.73 22.04 C-84.47 19.5 -76.35 17.11 -67.98 15.1 C-60.42 13.25 -52.93 11.28 -45.48 9.01 C-37.3 6.55 -29.01 4.48 -20.73 2.36 C-19.61 2.07 -18.49 1.79 -17.33 1.49 C-16.32 1.23 -15.32 0.98 -14.28 0.71 C-4.98 -1.75 -4.98 -1.75 0 0 Z " fill="#FEFBFB" transform="translate(124.7294921875,157.962158203125)"/>
<path d="M0 0 C0 35.31 0 70.62 0 107 C-12 111 -12 111 -22 113 C-22.33 89.9 -22.66 66.8 -23 43 C-25.97 48.28 -28.94 53.56 -32 59 C-36.44 66.5 -36.44 66.5 -38.7 70.18 C-40.34 72.85 -41.84 75.57 -43.3 78.36 C-49.39 89.62 -49.39 89.62 -54.57 91.89 C-59.64 93.39 -64.7 94.46 -70 94 C-71.83 92.66 -71.83 92.66 -73.52 90.78 C-74.15 90.1 -74.78 89.41 -75.43 88.7 C-76.07 87.98 -76.71 87.25 -77.38 86.5 C-78.01 85.8 -78.64 85.11 -79.3 84.39 C-81.22 82.28 -83.11 80.14 -85 78 C-85.6 77.32 -86.2 76.63 -86.83 75.93 C-90.58 71.65 -94.29 67.33 -98 63 C-98.33 86.43 -98.66 109.86 -99 134 C-118 139 -118 139 -121 139 C-121 103.69 -121 68.38 -121 32 C-103 27 -103 27 -98 27 C-96.23 28.25 -96.23 28.25 -94.62 30 C-94.03 30.64 -93.43 31.28 -92.82 31.94 C-90.45 34.62 -88.09 37.32 -85.75 40.03 C-84.06 41.93 -82.31 43.72 -80.5 45.5 C-76.02 49.91 -71.97 54.69 -67.89 59.47 C-67.18 60.29 -66.48 61.1 -65.75 61.94 C-65.11 62.69 -64.46 63.44 -63.8 64.21 C-62.03 66.24 -62.03 66.24 -59 67 C-58.73 66.28 -58.47 65.56 -58.19 64.82 C-56.99 61.98 -55.59 59.53 -53.95 56.93 C-53.03 55.48 -53.03 55.48 -52.1 53.99 C-51.12 52.45 -51.12 52.45 -50.12 50.88 C-49.45 49.81 -48.78 48.74 -48.09 47.65 C-46.06 44.43 -44.03 41.21 -42 38 C-40.37 35.41 -38.74 32.82 -37.12 30.24 C-36.13 28.67 -35.13 27.11 -34.13 25.55 C-31.88 22.06 -29.75 18.6 -27.89 14.89 C-25.04 9.43 -22.49 5.29 -16.55 3.03 C-11.16 1.35 -5.67 0 0 0 Z " fill="#FEFCFC" transform="translate(526,48)"/>
<path d="M0 0 C0 7.26 0 14.52 0 22 C-2.87 22.7 -5.73 23.4 -8.69 24.12 C-16.88 26.15 -25 28.4 -33.11 30.76 C-40.17 32.8 -47.28 34.63 -54.43 36.35 C-57.77 37.16 -61 38 -64.25 39.14 C-67 40 -67 40 -72 40 C-72 47.26 -72 54.52 -72 62 C-69.5 61.3 -67.01 60.6 -64.44 59.88 C-56.15 57.56 -47.83 55.39 -39.5 53.24 C-32.81 51.51 -26.17 49.64 -19.58 47.56 C-14.92 46.13 -10.99 45.62 -6 45 C-6 51.93 -6 58.86 -6 66 C-12.1 68.03 -18.02 69.83 -24.25 71.31 C-31.55 73.09 -38.78 75.03 -46 77.12 C-66.31 83 -66.31 83 -72 83 C-72 90.26 -72 97.52 -72 105 C-70.34 104.42 -68.69 103.84 -66.98 103.25 C-60.2 100.99 -53.33 99.24 -46.39 97.56 C-33.23 94.38 -20.25 90.85 -7.32 86.87 C-4 86 -4 86 0 86 C0 93.26 0 100.52 0 108 C-4.67 109.08 -4.67 109.08 -9.44 110.19 C-16.65 111.89 -23.76 113.75 -30.85 115.92 C-41.53 119.12 -52.37 121.75 -63.17 124.51 C-67.47 125.6 -71.76 126.72 -76.04 127.85 C-77.64 128.27 -77.64 128.27 -79.27 128.7 C-81.25 129.22 -83.24 129.75 -85.22 130.27 C-86.09 130.5 -86.96 130.73 -87.86 130.97 C-88.62 131.17 -89.37 131.37 -90.15 131.58 C-92 132 -92 132 -94 132 C-94 96.69 -94 61.38 -94 25 C-66.79 17.06 -66.79 17.06 -57.56 14.88 C-50.89 13.25 -44.26 11.56 -37.69 9.56 C-30.03 7.24 -22.31 5.2 -14.56 3.19 C-13.36 2.87 -12.15 2.56 -10.91 2.23 C-9.79 1.94 -8.66 1.65 -7.5 1.36 C-6.49 1.09 -5.48 0.83 -4.44 0.56 C-2 0 -2 0 0 0 Z " fill="#FEFBFB" transform="translate(242,124)"/>
<path d="M0 0 C0 7.26 0 14.52 0 22 C-2.37 22.54 -4.74 23.07 -7.19 23.62 C-17.53 26.13 -27.77 29.08 -38 32 C-38.33 60.05 -38.66 88.1 -39 117 C-49.59 120.53 -49.59 120.53 -53.38 121.69 C-54.19 121.94 -55 122.19 -55.84 122.45 C-58 123 -58 123 -61 123 C-61 94.95 -61 66.9 -61 38 C-69.91 40.31 -78.82 42.62 -88 45 C-91.96 45.99 -95.92 46.98 -100 48 C-100 40.74 -100 33.48 -100 26 C-96.51 25.09 -93.03 24.19 -89.44 23.25 C-85.29 22.17 -81.15 21.08 -77 20 C-76.29 19.81 -75.58 19.63 -74.84 19.44 C-68.75 17.84 -62.68 16.2 -56.62 14.48 C-43.1 10.66 -29.55 7.03 -15.93 3.58 C-14.03 3.09 -14.03 3.09 -12.1 2.6 C-10.97 2.32 -9.84 2.03 -8.68 1.74 C-2.37 0 -2.37 0 0 0 Z " fill="#FEFAFA" transform="translate(351,95)"/>
<path d="M0 0 C0 7.26 0 14.52 0 22 C-1.64 22.42 -3.27 22.85 -4.96 23.29 C-6.04 23.57 -7.12 23.85 -8.23 24.13 C-10.64 24.76 -13.04 25.38 -15.45 26 C-21.88 27.67 -28.31 29.34 -34.73 31.02 C-36.58 31.5 -36.58 31.5 -38.46 32 C-40.84 32.62 -43.21 33.24 -45.59 33.87 C-46.67 34.15 -47.74 34.43 -48.85 34.71 C-49.8 34.96 -50.75 35.21 -51.72 35.47 C-54 36 -54 36 -56 36 C-56 28.74 -56 21.48 -56 14 C-54.46 13.62 -52.93 13.25 -51.35 12.86 C-41.07 10.33 -30.84 7.75 -20.7 4.7 C-5.09 0 -5.09 0 0 0 Z " fill="#F92B2F" transform="translate(110,181)"/>
<path d="M0 0 C0 6.93 0 13.86 0 21 C-5.42 22.81 -10.6 24.5 -16.1 25.9 C-16.73 26.07 -17.36 26.23 -18.02 26.4 C-20.03 26.91 -22.05 27.43 -24.06 27.94 C-25.45 28.29 -26.84 28.65 -28.23 29 C-37.48 31.37 -46.73 33.71 -56 36 C-56 29.07 -56 22.14 -56 15 C-50.93 13.1 -46.32 11.45 -41.15 10.1 C-39.25 9.6 -39.25 9.6 -37.32 9.09 C-36 8.75 -34.69 8.4 -33.38 8.06 C-30.8 7.39 -28.22 6.71 -25.65 6.04 C-23.75 5.54 -23.75 5.54 -21.82 5.03 C-16.83 3.68 -11.87 2.22 -6.91 0.73 C-4 0 -4 0 0 0 Z " fill="#F92B2F" transform="translate(110,224)"/>
<path d="M0 0 C0 6.93 0 13.86 0 21 C-36.84 31.37 -36.84 31.37 -45 33 C-45 25.74 -45 18.48 -45 11 C-35.29 8.08 -25.55 5.29 -15.75 2.69 C-14.76 2.42 -13.77 2.15 -12.76 1.88 C-11.82 1.63 -10.89 1.39 -9.92 1.14 C-9.09 0.92 -8.26 0.7 -7.41 0.47 C-5 0 -5 0 0 0 Z " fill="#FEF6F6" transform="translate(394,127)"/>
<path d="M0 0 C2.06 0.44 2.06 0.44 4 1 C3.34 1 2.68 1 2 1 C2 1.66 2 2.32 2 3 C1.34 3 0.68 3 0 3 C0 10.92 0 18.84 0 27 C-0.33 27 -0.66 27 -1 27 C-1.03 22.69 -1.05 18.38 -1.06 14.06 C-1.07 12.83 -1.08 11.6 -1.09 10.33 C-1.09 9.16 -1.09 7.99 -1.1 6.79 C-1.1 5.7 -1.11 4.62 -1.11 3.5 C-1 1 -1 1 0 0 Z " fill="#4152FF" transform="translate(383,315)"/>
<path d="M0 0 C0.66 0.33 1.32 0.66 2 1 C0.02 2.65 -1.96 4.3 -4 6 C-3.67 6.66 -3.34 7.32 -3 8 C-5.97 8.66 -8.94 9.32 -12 10 C-8.3 6.07 -4.45 3.05 0 0 Z " fill="#3144FF" transform="translate(514,325)"/>
<path d="M0 0 C-2.31 1.65 -4.62 3.3 -7 5 C-7 4.01 -7 3.02 -7 2 C-8.98 2.33 -10.96 2.66 -13 3 C-10.86 0.86 -9.92 0.52 -7.06 -0.19 C-6.37 -0.37 -5.68 -0.55 -4.97 -0.73 C-3 -1 -3 -1 0 0 Z " fill="#3B4DFF" transform="translate(513,282)"/>
<path d="M0 0 C1.36 0.37 1.36 0.37 2.75 0.75 C-0.52 2.63 -3.53 3.24 -7.25 3.75 C-4.05 -0.31 -4.05 -0.31 0 0 Z " fill="#495AFF" transform="translate(240.25,403.25)"/>
<path d="M0 0 C-3.33 1.67 -6.67 3.33 -10 5 C-7.35 0.08 -5.6 -1.74 0 0 Z " fill="#FDCECF" transform="translate(512,53)"/>
</svg>
