<?xml version="1.0" encoding="UTF-8"?>
<!-- Generator: https://ezgif.com/webp-to-svg -->
<svg version="1.1" xmlns="http://www.w3.org/2000/svg" width="512" height="512" viewBox="-6.014 -6.571 112.246 112.246" preserveAspectRatio="xMidYMid meet">
<path d="M0 0 C1.57 -0.01 3.15 -0.02 4.72 -0.04 C29.94 -0.31 29.94 -0.31 37.76 7.3 C39.83 11.4 39.98 14.42 38.89 18.86 C36.63 23.32 32.63 26.27 28.76 29.3 C29.08 29.87 29.4 30.44 29.73 31.03 C31.46 34.82 31.63 38.23 30.76 42.3 C26.24 49.91 18.92 54.06 10.66 56.64 C6.84 57.51 3.02 58.03 -0.86 58.49 C-1.56 58.57 -2.26 58.65 -2.98 58.74 C-15.19 60.01 -27.38 59.34 -39.56 58.13 C-41.66 57.92 -43.76 57.73 -45.86 57.54 C-47.21 57.41 -48.55 57.28 -49.89 57.15 C-51.09 57.03 -52.28 56.92 -53.52 56.8 C-54.42 56.63 -55.31 56.47 -56.24 56.3 C-56.57 55.64 -56.9 54.98 -57.24 54.3 C-46.21 54.12 -35.25 54.68 -24.24 55.3 C-23.9 53.26 -23.57 51.21 -23.24 49.17 C-23.05 48.04 -22.87 46.9 -22.68 45.73 C-22.27 42.51 -22.04 39.53 -22.24 36.3 C-26.36 31.7 -33.18 32.16 -38.95 31.76 C-40.19 31.68 -41.44 31.59 -42.72 31.5 C-44.01 31.41 -45.29 31.32 -46.61 31.24 C-47.92 31.14 -49.23 31.05 -50.58 30.96 C-53.8 30.74 -57.02 30.52 -60.24 30.3 C-60.24 29.64 -60.24 28.98 -60.24 28.3 C-59.29 28.26 -58.34 28.22 -57.37 28.18 C-53.81 28.02 -50.25 27.85 -46.69 27.66 C-45.16 27.59 -43.63 27.52 -42.09 27.45 C-29.12 27.07 -29.12 27.07 -17.24 22.3 C-14.92 19.75 -13.83 17.48 -12.24 14.3 C-10.59 11 -8.94 7.7 -7.24 4.3 C-17.8 4.3 -28.36 4.3 -39.24 4.3 C-38.91 3.64 -38.58 2.98 -38.24 2.3 C-35.28 1.78 -32.42 1.43 -29.43 1.17 C-28.48 1.09 -27.54 1.01 -26.56 0.92 C-17.72 0.25 -8.87 0.05 0 0 Z M-4.24 4.3 C-4.77 6.5 -5.29 8.71 -5.8 10.92 C-6.09 12.15 -6.38 13.38 -6.68 14.65 C-7.23 18.27 -7.16 20.77 -6.24 24.3 C-4.02 26.78 -2.27 27.29 0.95 28.17 C6.37 28.35 11.07 27.36 15.44 24 C17.94 21.36 18.76 19.31 19.32 15.74 C18.64 11.57 17.94 10.09 14.76 7.3 C8.6 4.17 2.55 3.91 -4.24 4.3 Z M-12.18 37.11 C-16.57 42.49 -19.31 49.04 -22.24 55.3 C-9.94 54.15 0.96 52.92 9.76 43.3 C11.47 40.38 11.81 38.97 11.57 35.61 C10.9 32.96 10.9 32.96 7.76 31.3 C-0.22 30.33 -6.45 31.18 -12.18 37.11 Z " fill="#F4D631" transform="translate(60.239349365234375,19.70245361328125)"/>
</svg>
