<?xml version="1.0" encoding="UTF-8"?>
<svg version="1.1" xmlns="http://www.w3.org/2000/svg" width="50" height="50">
<path d="M0 0 C3 1 3 1 3.94921875 2.84765625 C4.31466797 3.94400391 4.31466797 3.94400391 4.6875 5.0625 C4.93886719 5.79597656 5.19023437 6.52945312 5.44921875 7.28515625 C5.63097656 7.85105469 5.81273438 8.41695312 6 9 C6.33 7.02 6.66 5.04 7 3 C10 4 10 4 11.6875 7.0625 C12.120625 8.031875 12.55375 9.00125 13 10 C13.66 9.34 14.32 8.68 15 8 C18.52044747 12.28576213 19.14153203 15.58213229 19.125 21.0625 C19.12886719 22.34833984 19.12886719 22.34833984 19.1328125 23.66015625 C19 26 19 26 18 29 C17.87658837 30.41512003 17.77425591 31.8321606 17.6875 33.25 C17.09464269 38.93772481 15.17796052 42.95403709 10.9375 46.9375 C9 48 9 48 6 48 C6 48.66 6 49.32 6 50 C-0.04614247 50.62980651 -4.25882767 50.11521851 -9.2734375 46.5390625 C-13.74428569 42.55373628 -15.11046332 38.57666846 -15.6875 32.6875 C-15.73261719 31.84574219 -15.77773437 31.00398438 -15.82421875 30.13671875 C-15.87075621 27.94817602 -15.87075621 27.94817602 -17 26 C-17.4947666 20.35045583 -17.05076361 15.28881141 -15 10 C-14.01 9.34 -13.02 8.68 -12 8 C-12 8.99 -12 9.98 -12 11 C-11.34 11 -10.68 11 -10 11 C-9.814375 9.8553125 -9.814375 9.8553125 -9.625 8.6875 C-9 6 -9 6 -7 3 C-6.34 3 -5.68 3 -5 3 C-4.67 4.98 -4.34 6.96 -4 9 C-2.68 6.03 -1.36 3.06 0 0 Z M1 6 C0.67 6.99 0.34 7.98 0 9 C0.66 9 1.32 9 2 9 C1.67 8.01 1.34 7.02 1 6 Z M0 13 C-1.41577477 14.18424326 -1.41577477 14.18424326 -1.0625 17.5625 C-1.041875 18.696875 -1.02125 19.83125 -1 21 C0.32 21 1.64 21 3 21 C3 18.69 3 16.38 3 14 C2.01 13.67 1.02 13.34 0 13 Z M-14 14 C-13 17 -13 17 -13 17 Z M15 14 C16 17 16 17 16 17 Z M-8 15 C-8 17.31 -8 19.62 -8 22 C-7.01 22.33 -6.02 22.66 -5 23 C-5 20.69 -5 18.38 -5 16 C-5.99 15.67 -6.98 15.34 -8 15 Z M8 15 C6.64381501 16.12534105 6.64381501 16.12534105 6.9375 19.0625 C6.958125 20.031875 6.97875 21.00125 7 22 C7.99 22 8.98 22 10 22 C10 19.69 10 17.38 10 15 C9.34 15 8.68 15 8 15 Z M-14 20 C-14 21.98 -14 23.96 -14 26 C-13.34 26 -12.68 26 -12 26 C-12 24.35 -12 22.7 -12 21 C-12.66 20.67 -13.32 20.34 -14 20 Z M15 20 C13.70366379 21.06645115 13.70366379 21.06645115 13.9375 23.5625 C13.958125 24.366875 13.97875 25.17125 14 26 C14.66 26 15.32 26 16 26 C16 24.02 16 22.04 16 20 C15.67 20 15.34 20 15 20 Z M-1 26 C-1 33.26 -1 40.52 -1 48 C0.32 48 1.64 48 3 48 C3 40.74 3 33.48 3 26 C1.68 26 0.36 26 -1 26 Z M-13 30 C-12.60003639 35.79947237 -11.90702561 39.42319857 -8 44 C-5.93109581 45.04289755 -5.93109581 45.04289755 -4 45 C-2.67109616 43.8963377 -2.67109616 43.8963377 -2.875 41.125 C-2.85623134 37.96787587 -2.85623134 37.96787587 -4 35 C-3.67449498 33.33178677 -3.34153937 31.66500443 -3 30 C-3.33 29.34 -3.66 28.68 -4 28 C-7.79557881 28 -9.62902617 28.50178941 -13 30 Z M6 28 C4.92042623 31.23872132 4.86673216 33.66028205 4.875 37.0625 C4.87242188 38.12597656 4.86984375 39.18945312 4.8671875 40.28515625 C4.81561545 42.96704384 4.81561545 42.96704384 6 45 C7.65 44.67 9.3 44.34 11 44 C10.01 43.67 9.02 43.34 8 43 C8.33 38.71 8.66 34.42 9 30 C9.66 30.33 10.32 30.66 11 31 C11.33 31.99 11.66 32.98 12 34 C12.99 34 13.98 34 15 34 C15 32.68 15 31.36 15 30 C11.62902617 28.50178941 9.79557881 28 6 28 Z M11 36 C11 37.98 11 39.96 11 42 C11.99 40.68 12.98 39.36 14 38 C13.01 37.34 12.02 36.68 11 36 Z " fill="#FEFFFF" transform="translate(24,0)"/>
<path d="M0 0 C0.99 0.33 1.98 0.66 3 1 C3 2.32 3 3.64 3 5 C2.01 5 1.02 5 0 5 C0 3.35 0 1.7 0 0 Z " fill="#FFFFFF" transform="translate(15,37)"/>
<path d="M0 0 C0.99 0 1.98 0 3 0 C3 1.32 3 2.64 3 4 C2.01 4 1.02 4 0 4 C0 2.68 0 1.36 0 0 Z " fill="#FFFFFF" transform="translate(14,31)"/>
</svg>
