<?xml version="1.0" encoding="UTF-8"?>
<!-- Generator: https://ezgif.com/webp-to-svg -->
<svg version="1.1" xmlns="http://www.w3.org/2000/svg" width="512" height="512" viewBox="-36 -208 672 672" preserveAspectRatio="xMidYMid meet">
<path d="M0 0 C198 0 396 0 600 0 C600 84.48 600 168.96 600 256 C402 256 204 256 0 256 C0 171.52 0 87.04 0 0 Z " fill="#000000" transform="translate(0,0)"/>
<path d="M0 0 C1.23 -0.01 2.46 -0.01 3.73 -0.02 C5.08 -0.02 6.44 -0.02 7.8 -0.02 C9.2 -0.03 10.59 -0.03 11.99 -0.03 C14.93 -0.04 17.87 -0.04 20.81 -0.04 C24.53 -0.04 28.25 -0.05 31.97 -0.07 C34.86 -0.08 37.75 -0.08 40.65 -0.08 C42.67 -0.09 44.7 -0.1 46.72 -0.11 C61.99 -0.07 80.19 0.19 92.52 10.38 C99.86 17.77 102.31 25.44 102.52 35.65 C102.25 51.31 100.99 69.92 89.67 81.82 C83.73 87.27 77.01 90.21 69.27 92.15 C69.89 92.36 70.52 92.58 71.17 92.81 C78.46 95.51 85.43 98.69 89.77 105.46 C94.78 117.19 90.73 133.16 88.27 145.15 C88.08 146.05 87.9 146.95 87.71 147.87 C80.81 181.45 80.81 181.45 68.2 191.96 C54.31 200.96 35.39 199.29 19.59 199.24 C17.82 199.24 16.04 199.24 14.26 199.24 C9.63 199.23 4.99 199.23 0.36 199.21 C-4.39 199.2 -9.14 199.2 -13.88 199.19 C-23.17 199.18 -32.45 199.17 -41.73 199.15 C-41.15 192.41 -40.25 185.81 -39.02 179.16 C-38.85 178.22 -38.68 177.27 -38.5 176.3 C-37.94 173.18 -37.37 170.07 -36.8 166.96 C-36.4 164.76 -36 162.56 -35.6 160.36 C-34.75 155.71 -33.91 151.06 -33.06 146.4 C-31.72 139.06 -30.39 131.71 -29.05 124.36 C-28.18 119.51 -27.3 114.67 -26.42 109.83 C-26.11 108.13 -26.11 108.13 -25.8 106.38 C-23.63 94.41 -21.42 82.45 -19.13 70.51 C-17.71 63.09 -16.39 55.66 -15.1 48.23 C-13.14 36.97 -11.14 25.72 -8.94 14.5 C-8.27 11.06 -7.65 7.63 -7.19 4.16 C-6.43 -0.89 -4.73 0.02 0 0 Z " fill="#AC8A26" transform="translate(69.734619140625,27.854736328125)"/>
<path d="M0 0 C6.98 6.66 12.31 14.78 13.02 24.58 C13.02 25.95 13.02 27.32 13 28.69 C12.99 29.43 12.99 30.16 12.98 30.93 C12.77 42.83 10.98 54.4 8.53 66.04 C7.71 70.08 7.03 74.12 6.38 78.19 C4.77 88.08 2.85 97.92 0.93 107.76 C0.26 111.23 -0.41 114.7 -1.03 118.18 C-1.73 122.09 -2.47 125.98 -3.25 129.88 C-3.44 130.86 -3.63 131.84 -3.83 132.84 C-7.96 153.6 -13.32 170.56 -31.12 183.69 C-49.2 195.48 -69.86 198.07 -91 195.4 C-102.36 192.93 -113.12 186.81 -119.52 176.9 C-120.57 174.93 -121.43 172.95 -122.25 170.88 C-122.55 170.23 -122.85 169.59 -123.15 168.93 C-128.39 156.22 -124.77 140.46 -122.56 127.38 C-122.29 125.69 -122.01 124.01 -121.74 122.32 C-119.92 111.25 -117.79 100.27 -115.39 89.3 C-114.19 83.75 -113.24 78.17 -112.31 72.56 C-110.85 63.89 -109.16 55.28 -107.31 46.69 C-107.08 45.59 -106.86 44.49 -106.62 43.36 C-102.98 26.88 -95.44 11.63 -81.27 1.81 C-58.56 -12.65 -22.41 -18.85 0 0 Z " fill="#AB8926" transform="translate(298.25,35.125)"/>
<path d="M0 0 C1.27 -0.02 2.54 -0.05 3.84 -0.07 C17.09 -0.11 31.19 3.15 41.23 12.36 C47.25 18.96 48.43 24.24 48.38 33 C48.37 33.92 48.37 34.83 48.37 35.77 C48.02 60.42 48.02 60.42 44.06 64.38 C42.59 64.47 41.11 64.49 39.63 64.49 C38.69 64.49 37.75 64.49 36.78 64.49 C35.76 64.48 34.74 64.48 33.68 64.47 C32.64 64.47 31.6 64.47 30.53 64.47 C27.18 64.46 23.84 64.45 20.5 64.44 C18.24 64.43 15.98 64.43 13.72 64.42 C8.17 64.41 2.62 64.4 -2.94 64.38 C-3.02 59.34 -2.75 55.55 -1.39 50.66 C-0.47 46 -0.44 41.1 -0.94 36.38 C-2.86 34.04 -2.86 34.04 -6.25 33.94 C-9.99 34.08 -9.99 34.08 -12.69 36.31 C-18.31 43.97 -19.29 53.05 -17.94 62.38 C-15.34 68.26 -12.13 71.24 -6.88 74.81 C-6.21 75.28 -5.54 75.75 -4.86 76.24 C-2.89 77.63 -0.92 79 1.06 80.38 C8.52 85.62 15.43 91.11 22.06 97.38 C22.74 98 23.41 98.62 24.1 99.25 C31.27 106.07 34.93 113.74 35.36 123.71 C35.38 125.25 35.39 126.78 35.38 128.31 C35.37 129.55 35.37 129.55 35.36 130.82 C35.2 139.22 33.92 147.19 32.06 155.38 C31.89 156.18 31.71 156.98 31.53 157.8 C29.34 167.51 27.1 176.26 21.06 184.38 C20.49 185.26 19.91 186.15 19.31 187.06 C12.77 193.78 4.65 197.87 -3.94 201.38 C-4.65 201.67 -5.36 201.97 -6.09 202.28 C-14.95 205.81 -23.38 206.7 -32.88 206.62 C-33.9 206.63 -34.92 206.64 -35.97 206.65 C-50.64 206.61 -65.88 203.16 -76.72 192.64 C-85.75 182.6 -85.45 171.87 -85.09 159.08 C-84.56 149.61 -82.53 140.46 -79.94 131.38 C-64.43 131.38 -48.92 131.38 -32.94 131.38 C-32.94 137.75 -33.02 141.65 -34.44 147.5 C-36.09 155.19 -36.5 162.52 -35.94 170.38 C-34.38 171.93 -32.85 171.66 -30.69 171.75 C-27.19 171.68 -26.09 171.48 -23.06 169.5 C-20.24 165.35 -19.06 161.23 -17.94 156.38 C-17.66 155.18 -17.66 155.18 -17.38 153.96 C-16.32 147.73 -16.09 141.05 -18 135 C-23.51 127.53 -30.82 122.26 -38.16 116.72 C-66.1 95.62 -66.1 95.62 -68.94 82.38 C-71.37 61.11 -67.34 36.48 -53.94 19.38 C-40.26 3 -20.16 0.02 0 0 Z " fill="#AB8926" transform="translate(392.9375,24.625)"/>
<path d="M0 0 C2.14 0.03 4.27 0.02 6.41 0.01 C21.38 0.03 34.36 3.51 45.5 14.09 C51.31 20.02 50.71 26.98 50.69 34.78 C50.7 35.86 50.72 36.95 50.73 38.06 C50.74 47.46 49.18 54.85 47.37 64.47 C31.53 64.47 15.69 64.47 -0.63 64.47 C0.47 54.58 0.47 54.58 1.44 50.47 C2.37 45.93 3.3 41.07 2.37 36.47 C-1.14 34.12 -2.48 33.89 -6.63 34.47 C-11.36 37.99 -12.95 42.04 -14.63 47.47 C-14.96 48.46 -15.29 49.45 -15.63 50.47 C-16.2 56.74 -15.95 61.96 -12.63 67.47 C-7.49 73.27 -0.52 77.37 5.8 81.78 C32.8 100.72 32.8 100.72 37.37 116.47 C37.93 120.34 37.99 124.12 37.94 128.03 C37.93 129.1 37.92 130.18 37.91 131.28 C37.45 149.74 34.42 173.35 21.37 187.47 C20.86 188.05 20.34 188.63 19.81 189.22 C5.49 203.49 -16.4 206.72 -35.56 206.72 C-42.95 206.64 -49.69 206.2 -56.63 203.47 C-57.9 202.97 -57.9 202.97 -59.2 202.47 C-67.93 198.6 -76.08 191.96 -80.63 183.47 C-82.24 178.32 -81.89 172.93 -81.94 167.59 C-81.97 166.55 -82 165.52 -82.03 164.45 C-82.12 152.79 -79.82 143.52 -77.63 131.47 C-61.79 131.47 -45.95 131.47 -29.63 131.47 C-29.63 139.31 -29.63 139.31 -30.5 142.78 C-30.68 143.54 -30.86 144.31 -31.05 145.09 C-31.43 146.67 -31.82 148.26 -32.2 149.84 C-33.64 156.26 -35.68 165.36 -32.63 171.47 C-26.13 172.07 -26.13 172.07 -20.19 169.97 C-15.22 162.01 -14.42 153.23 -14.13 144.03 C-14.07 143.32 -14.02 142.6 -13.96 141.87 C-13.85 137.32 -14.72 134.83 -17.66 131.32 C-21.33 127.55 -25.32 124.37 -29.56 121.28 C-31.06 120.16 -32.56 119.04 -34.05 117.91 C-35.19 117.06 -35.19 117.06 -36.34 116.19 C-62.67 96.27 -62.67 96.27 -66.38 80.22 C-66.5 78.36 -66.5 78.36 -66.63 76.47 C-66.69 75.53 -66.75 74.59 -66.82 73.63 C-67.54 53.77 -62.11 31.21 -48.6 16.22 C-35.38 3.59 -17.69 -0.26 0 0 Z " fill="#AB8A26" transform="translate(519.62646484375,24.533447265625)"/>
<path d="M0 0 C2.22 1.59 2.91 2.52 3.43 5.21 C3.45 13.53 1.93 21.3 0.17 29.39 C-0.93 34.51 -1.84 39.66 -2.74 44.81 C-3.83 51.04 -4.95 57.25 -6.09 63.46 C-6.27 64.47 -6.45 65.47 -6.64 66.51 C-8.21 75.07 -9.79 83.63 -11.37 92.19 C-12.33 97.36 -13.28 102.52 -14.21 107.7 C-14.74 110.61 -15.28 113.52 -15.81 116.44 C-15.98 117.4 -16.15 118.37 -16.33 119.36 C-19.08 134.08 -19.08 134.08 -24 139 C-26.13 139.23 -26.13 139.23 -28.56 139.19 C-29.77 139.18 -29.77 139.18 -31 139.17 C-33 139 -33 139 -34 138 C-34.66 127.66 -33.48 117.86 -31.62 107.69 C-31.4 106.41 -31.18 105.13 -30.95 103.81 C-30.04 98.6 -29.09 93.4 -28.04 88.22 C-26.99 83 -26.05 77.77 -25.12 72.53 C-24.87 71.09 -24.87 71.09 -24.61 69.62 C-24.07 66.58 -23.54 63.54 -23 60.5 C-22.29 56.49 -21.58 52.48 -20.88 48.47 C-20.72 47.57 -20.56 46.67 -20.4 45.74 C-19.48 40.58 -18.51 35.44 -17.47 30.3 C-16.98 27.89 -16.51 25.49 -16.04 23.08 C-15.71 21.47 -15.39 19.86 -15.06 18.25 C-14.91 17.44 -14.75 16.63 -14.59 15.79 C-13.48 10.35 -11.87 5.8 -8.75 1.12 C-5.85 -0.74 -3.34 -0.36 0 0 Z " fill="#030201" transform="translate(258,58)"/>
<path d="M0 0 C5.2 -0.18 9.11 -0.03 14 2 C15.84 3.84 15.21 6.69 15.24 9.16 C15.18 16.87 13.9 24 12.19 31.5 C11.93 32.72 11.67 33.94 11.4 35.2 C8.45 48.55 8.45 48.55 4.17 52.83 C1.46 54.29 -0.69 54.51 -3.75 54.69 C-4.73 54.75 -5.72 54.82 -6.73 54.89 C-7.86 54.94 -7.86 54.94 -9 55 C-8.07 42.69 -6.16 30.63 -3.94 18.5 C-3.8 17.76 -3.67 17.01 -3.53 16.25 C-1.21 3.64 -1.21 3.64 0 0 Z " fill="#030302" transform="translate(95,138)"/>
<path d="M0 0 C4.99 -0.44 8.74 -0.76 13.12 1.88 C17.31 8.85 14.84 16.58 13.25 24.12 C13.09 24.88 12.94 25.63 12.78 26.4 C11.35 32.63 9.59 39.07 4.31 43 C0.11 44.27 -3.65 44.26 -8 44 C-7.64 38.56 -6.92 33.36 -5.62 28.06 C-4.03 21.51 -2.98 14.93 -2 8.27 C-1.1 2.2 -1.1 2.2 0 0 Z " fill="#050403" transform="translate(109,63)"/>
<path d="M0 0 C1.25 -0 2.5 -0.01 3.78 -0.01 C5.16 -0.01 6.54 -0.01 7.92 -0 C9.33 -0 10.74 -0.01 12.14 -0.01 C15.11 -0.01 18.07 -0.01 21.04 -0 C24.82 0 28.59 0 32.37 -0 C35.28 -0.01 38.2 -0.01 41.12 -0 C42.51 -0 43.9 -0 45.29 -0.01 C52.98 -0.02 60.54 0.15 68.17 1.13 C68.17 1.46 68.17 1.79 68.17 2.13 C44.08 2.13 19.99 2.13 -4.83 2.13 C-5.49 5.43 -6.15 8.73 -6.83 12.13 C-7.88 7.91 -7.63 5.35 -6.83 1.13 C-5.05 -0.66 -2.41 0 0 0 Z " fill="#7D6D35" transform="translate(69.829833984375,27.87060546875)"/>
<path d="M0 0 C0.66 0.33 1.32 0.66 2 1 C1.69 3.81 1.38 6.63 1.06 9.44 C0.98 10.24 0.89 11.04 0.8 11.87 C0.11 17.89 0.11 17.89 -1 19 C-2.47 19.09 -3.95 19.12 -5.43 19.11 C-6.37 19.11 -7.31 19.11 -8.28 19.11 C-9.3 19.11 -10.33 19.1 -11.38 19.1 C-12.42 19.1 -13.46 19.09 -14.54 19.09 C-17.88 19.09 -21.22 19.08 -24.56 19.06 C-26.82 19.06 -29.08 19.05 -31.34 19.05 C-36.89 19.04 -42.45 19.02 -48 19 C-47.67 17.68 -47.34 16.36 -47 15 C-47 15.66 -47 16.32 -47 17 C-32.15 17 -17.3 17 -2 17 C-1.34 11.39 -0.68 5.78 0 0 Z " fill="#887535" transform="translate(438,70)"/>
<path d="M0 0 C0.33 0 0.66 0 1 0 C1.07 4.4 1.07 7.7 0 12 C14.85 12 29.7 12 45 12 C45 10.02 45 8.04 45 6 C45.66 6 46.32 6 47 6 C46.67 8.64 46.34 11.28 46 14 C30.16 14 14.32 14 -2 14 C-0.88 3.88 -0.88 3.88 0 0 Z " fill="#877535" transform="translate(521,75)"/>
<path d="M0 0 C0.33 0 0.66 0 1 0 C1.12 5.75 1.12 5.75 0 8 C-0.99 8 -1.98 8 -3 8 C-1.12 2.25 -1.12 2.25 0 0 Z " fill="#907A32" transform="translate(333,53)"/>
</svg>
