<?xml version="1.0" encoding="UTF-8"?>
<!-- Generator: https://ezgif.com/webp-to-svg -->
<svg version="1.1" xmlns="http://www.w3.org/2000/svg" width="512" height="512" viewBox="-6 -6 112 112" preserveAspectRatio="xMidYMid meet">
<path d="M0 0 C0.33 12.21 0.66 24.42 1 37 C7.16 34.37 7.16 34.37 13.33 31.73 C14.09 31.41 14.86 31.08 15.65 30.75 C16.43 30.41 17.22 30.08 18.03 29.73 C20 29 20 29 22 29 C22 51.77 22 74.54 22 98 C10.38 94.51 -0.8 89.67 -12 85 C-12 58.6 -12 32.2 -12 5 C-2 0 -2 0 0 0 Z M0 51 C0 59.25 0 67.5 0 76 C6.81 80.15 6.81 80.15 10 80 C10 69.11 10 58.22 10 47 C6.81 46.85 6.81 46.85 0 51 Z " fill="#FEFFFF" transform="translate(25,2)"/>
<path d="M0 0 C6 2 6 2 12 5 C12 31.4 12 57.8 12 85 C2 89 2 89 0 89 C-0.33 76.46 -0.66 63.92 -1 51 C-5.45 49.02 -5.45 49.02 -10 47 C-10 62.51 -10 78.02 -10 94 C-19 98 -19 98 -22 97 C-22 74.56 -22 52.12 -22 29 C-12 32 -12 32 -1 37 C-0.67 24.79 -0.34 12.58 0 0 Z " fill="#FFFFFF" transform="translate(75,2)"/>
<path d="M0 0 C5.09 1.7 9.48 3.66 14.22 6.07 C19.98 7.99 24.54 5.48 29.75 2.94 C35.8 0 35.8 0 38 0 C38.05 2.29 38.09 4.58 38.12 6.88 C38.15 8.15 38.17 9.43 38.2 10.74 C38 14 38 14 36 16 C36.66 16.33 37.32 16.66 38 17 C38 21.62 38 26.24 38 31 C32.91 29.3 28.52 27.34 23.78 24.93 C18.02 23.01 13.46 25.52 8.25 28.06 C2.2 31 2.2 31 0 31 C-0.05 28.71 -0.09 26.42 -0.12 24.12 C-0.15 22.85 -0.17 21.57 -0.2 20.26 C0 17 0 17 2 15 C1.34 14.67 0.68 14.34 0 14 C0 9.38 0 4.76 0 0 Z " fill="#FED700" transform="translate(31,0)"/>
</svg>
