<?xml version="1.0" encoding="UTF-8"?>
<!-- Generator: https://ezgif.com/webp-to-svg -->
<svg version="1.1" xmlns="http://www.w3.org/2000/svg" width="512" height="512" viewBox="-23.9 -23.4 436.8 436.8" preserveAspectRatio="xMidYMid meet">
<path d="M0 0 C0.18 7.05 -0.5 13.71 -1.53 20.68 C-1.76 22.31 -1.76 22.31 -2 23.97 C-2.5 27.42 -3 30.87 -3.5 34.31 C-4 37.78 -4.5 41.24 -5 44.71 C-5.31 46.86 -5.62 49.01 -5.93 51.15 C-6.07 52.13 -6.21 53.1 -6.36 54.1 C-6.48 54.95 -6.61 55.8 -6.73 56.68 C-7.08 59.27 -7.08 59.27 -7 63 C-6.43 62.76 -5.87 62.52 -5.29 62.27 C-2.73 61.17 -0.18 60.09 2.38 59 C3.26 58.62 4.15 58.24 5.07 57.84 C6.35 57.3 6.35 57.3 7.65 56.75 C8.43 56.41 9.22 56.08 10.03 55.73 C12 55 12 55 14 55 C13.42 58.87 12.28 61.61 10.27 64.95 C9.71 65.88 9.16 66.81 8.58 67.77 C8 68.73 7.41 69.7 6.81 70.69 C5.96 72.1 5.96 72.1 5.1 73.54 C4.54 74.48 3.97 75.42 3.39 76.39 C2.84 77.32 2.28 78.25 1.7 79.21 C0.56 81.09 -0.61 82.95 -1.8 84.8 C-2.64 86.11 -2.64 86.11 -3.49 87.46 C-4.25 88.63 -4.25 88.63 -5.02 89.82 C-6.2 91.94 -6.2 91.94 -5.74 94.19 C-4.85 96.37 -3.82 97.38 -2.06 98.94 C10.95 111.49 20.75 128.14 27 145 C27.34 145.83 27.69 146.66 28.04 147.51 C32.81 159.45 35.6 173.15 36 186 C36.02 186.65 36.04 187.3 36.06 187.96 C36.58 206.97 33.3 224.82 28 243 C29.98 243.99 31.96 244.98 34 246 C35.32 242.7 36.64 239.4 38 236 C42.56 237.14 44.23 238.99 47.19 242.38 C47.91 243.19 47.91 243.19 48.65 244.01 C52.45 248.28 56.04 252.7 59.61 257.14 C63.32 261.58 67.28 265.78 71.23 270.02 C74.57 273.6 77.8 277.28 81 281 C82.03 282.18 83.06 283.35 84.09 284.53 C85.21 285.81 86.32 287.09 87.44 288.38 C87.98 288.99 88.53 289.61 89.09 290.25 C93 294.77 93 294.77 93 297 C83.72 296.63 74.71 295.76 65.56 294.23 C59.28 293.18 53 292.31 46.69 291.5 C44.76 291.25 42.84 291.01 40.91 290.76 C39.95 290.64 38.99 290.52 37.99 290.39 C32.85 289.72 27.7 289.02 22.56 288.31 C21.12 288.12 21.12 288.12 19.65 287.91 C17.44 287.61 15.22 287.31 13 287 C13 285.68 13 284.36 13 283 C13.99 282.67 14.98 282.34 16 282 C17.05 280.15 17.05 280.15 18 278 C18.98 276.65 19.97 275.31 21 274 C17.83 271.67 17.83 271.67 14.09 271.08 C11 272.44 9.8 274.57 7.88 277.31 C4.65 281.81 1.29 286.11 -2.31 290.31 C-5.03 293.5 -7.38 296.4 -9.19 300.19 C-9.79 301.12 -10.38 302.04 -11 303 C-13.33 303.37 -15.66 303.7 -18 304 C-20.51 305.51 -22.79 307.23 -25.15 308.97 C-52.97 328.78 -89.48 336.4 -123.02 330.98 C-132.23 329.28 -141.18 327.16 -150 324 C-150.31 324.95 -150.62 325.9 -150.94 326.88 C-152 330 -152 330 -153 332 C-147.56 333.49 -147.56 333.49 -142 335 C-143.67 338.33 -144.41 339.65 -146.98 341.99 C-147.56 342.53 -148.15 343.06 -148.75 343.62 C-149.68 344.46 -149.68 344.46 -150.62 345.31 C-151.58 346.18 -151.58 346.18 -152.55 347.07 C-156.35 350.54 -160.18 353.97 -164.08 357.33 C-166.41 359.36 -168.71 361.43 -171 363.5 C-176.44 368.4 -181.93 373.24 -187.5 378 C-188.44 378.8 -188.44 378.8 -189.4 379.62 C-190.65 380.69 -191.91 381.76 -193.17 382.83 C-193.75 383.32 -194.33 383.82 -194.93 384.33 C-195.45 384.77 -195.97 385.21 -196.5 385.67 C-198.06 387.01 -198.06 387.01 -199.57 388.67 C-201 390 -201 390 -203 390 C-203.26 381.89 -202.48 374.25 -201.19 366.25 C-200.82 363.86 -200.45 361.47 -200.08 359.07 C-199.89 357.89 -199.71 356.7 -199.52 355.47 C-198.75 350.35 -198.09 345.21 -197.44 340.06 C-196.12 329.68 -194.6 319.34 -193 309 C-189.76 310.44 -187.38 312.26 -184.75 314.62 C-184.04 315.26 -183.34 315.89 -182.61 316.54 C-182.08 317.02 -181.55 317.5 -181 318 C-179.02 315.41 -177.37 312.96 -176 310 C-176.54 309.75 -177.07 309.5 -177.62 309.25 C-180 308 -180 308 -182.6 305.97 C-186.82 303.52 -189.96 303.34 -194.75 303.25 C-195.52 303.22 -196.28 303.19 -197.07 303.16 C-199.72 303.06 -202.36 303 -205 303 C-204.34 300.15 -203.48 297.48 -202.44 294.75 C-202.17 294.04 -201.9 293.34 -201.62 292.61 C-201.42 292.08 -201.21 291.55 -201 291 C-201.38 290.6 -201.76 290.19 -202.14 289.78 C-206.24 285.26 -209.95 280.52 -213.56 275.62 C-214.01 275.03 -214.46 274.43 -214.92 273.81 C-220.98 265.51 -225.79 256.91 -229.62 247.38 C-230.01 246.41 -230.4 245.45 -230.8 244.46 C-237.84 226.55 -241.1 207.28 -240 188 C-239.96 187.35 -239.93 186.7 -239.89 186.03 C-239.04 172.22 -235.8 159.27 -232 146 C-234.97 145.01 -234.97 145.01 -238 144 C-239.32 147.3 -240.64 150.6 -242 154 C-246.02 151.99 -247.75 150.36 -250.69 147.06 C-251.13 146.57 -251.56 146.08 -252.01 145.58 C-254.87 142.36 -257.61 139.05 -260.31 135.69 C-264.95 129.94 -269.96 124.59 -275 119.21 C-277.78 116.24 -280.52 113.23 -283.16 110.14 C-284.72 108.32 -286.31 106.53 -287.9 104.73 C-288.93 103.55 -289.97 102.37 -291 101.19 C-291.51 100.62 -292.01 100.06 -292.53 99.48 C-293.94 97.86 -293.94 97.86 -296 95 C-295.67 94.01 -295.34 93.02 -295 92 C-285.86 93.21 -276.72 94.43 -267.58 95.65 C-265.79 95.89 -264 96.13 -262.22 96.37 C-256.24 97.17 -250.27 97.98 -244.3 98.78 C-242.31 99.05 -240.32 99.32 -238.32 99.59 C-235.5 99.97 -232.68 100.35 -229.86 100.73 C-229.01 100.84 -228.16 100.96 -227.28 101.07 C-224.07 101.51 -221.08 101.97 -218 103 C-218.06 102.06 -218.12 101.11 -218.18 100.14 C-218.24 98.21 -218.24 98.21 -218.31 96.25 C-218.37 95 -218.43 93.74 -218.49 92.45 C-218.21 86.49 -215.44 81.35 -213 76 C-212.04 73.79 -211.09 71.59 -210.13 69.38 C-209.13 67.11 -208.13 64.83 -207.12 62.56 C-206.39 60.88 -206.39 60.88 -205.64 59.15 C-202.12 51.21 -198.22 43.59 -194 36 C-190.9 37.17 -188.12 38.42 -185.36 40.25 C-184.69 40.69 -184.02 41.13 -183.33 41.58 C-182.62 42.05 -181.92 42.52 -181.19 43 C-179.68 43.99 -178.16 44.98 -176.65 45.97 C-175.88 46.48 -175.11 46.98 -174.32 47.5 C-170.03 50.27 -165.69 52.96 -161.35 55.65 C-160.74 56.03 -160.12 56.41 -159.49 56.81 C-158.9 57.17 -158.3 57.53 -157.69 57.91 C-156.06 58.96 -154.52 60.15 -152.98 61.35 C-149.07 63.51 -147.3 63.03 -143 62 C-142.33 61.85 -141.67 61.7 -140.98 61.54 C-138.11 60.89 -135.26 60.17 -132.4 59.46 C-125.68 57.82 -119.28 56.94 -112.36 57 C-98.72 57.4 -98.72 57.4 -87 51.44 C-84.64 49.09 -84.64 49.09 -83 47 C-80.3 49.41 -78.9 51.21 -77.34 54.54 C-75.14 58.56 -72.36 59.47 -68.09 60.75 C-67.24 60.98 -66.38 61.2 -65.5 61.44 C-64.65 61.69 -63.79 61.95 -62.91 62.21 C-59.05 63.33 -56.06 64 -52 64 C-51.01 62.02 -50.02 60.04 -49 58 C-49.61 57.87 -50.23 57.73 -50.86 57.6 C-51.67 57.42 -52.48 57.24 -53.31 57.06 C-54.11 56.89 -54.91 56.71 -55.74 56.54 C-58 56 -58 56 -61 55 C-61 52 -61 52 -59.67 50.56 C-58.72 49.79 -58.72 49.79 -57.75 49 C-54.08 45.93 -50.52 42.75 -47 39.5 C-43.04 35.85 -39.05 32.26 -34.98 28.73 C-32.69 26.73 -30.44 24.68 -28.19 22.62 C-23.83 18.69 -19.32 14.97 -14.75 11.29 C-11.04 8.21 -7.52 4.95 -4 1.65 C-2 0 -2 0 0 0 Z M-222.06 110.88 C-222.88 111.68 -222.88 111.68 -223.72 112.49 C-225.22 113.92 -225.22 113.92 -225 116 C-221.78 118.32 -221.78 118.32 -218 119 C-218 115.37 -218 111.74 -218 108 C-219.81 108 -220.84 109.67 -222.06 110.88 Z " fill="#0B0B0B" transform="translate(296,0)"/>
<path d="M0 0 C0.18 7.05 -0.5 13.71 -1.53 20.68 C-1.76 22.31 -1.76 22.31 -2 23.97 C-2.5 27.42 -3 30.87 -3.5 34.31 C-4 37.78 -4.5 41.24 -5 44.71 C-5.31 46.86 -5.62 49.01 -5.93 51.15 C-6.07 52.13 -6.21 53.1 -6.36 54.1 C-6.48 54.95 -6.61 55.8 -6.73 56.68 C-7.08 59.27 -7.08 59.27 -7 63 C-6.43 62.76 -5.87 62.52 -5.29 62.27 C-2.73 61.17 -0.18 60.09 2.38 59 C3.26 58.62 4.15 58.24 5.07 57.84 C6.35 57.3 6.35 57.3 7.65 56.75 C8.43 56.41 9.22 56.08 10.03 55.73 C12 55 12 55 14 55 C13.42 58.87 12.28 61.61 10.27 64.95 C9.71 65.88 9.16 66.81 8.58 67.77 C8 68.73 7.41 69.7 6.81 70.69 C5.96 72.1 5.96 72.1 5.1 73.54 C4.54 74.48 3.97 75.42 3.39 76.39 C2.84 77.32 2.28 78.25 1.7 79.21 C0.56 81.09 -0.61 82.95 -1.8 84.8 C-2.64 86.11 -2.64 86.11 -3.49 87.46 C-4.25 88.63 -4.25 88.63 -5.02 89.82 C-6.2 91.94 -6.2 91.94 -5.74 94.19 C-4.85 96.37 -3.82 97.38 -2.06 98.94 C10.95 111.49 20.75 128.14 27 145 C27.34 145.83 27.69 146.66 28.04 147.51 C32.81 159.45 35.6 173.15 36 186 C36.02 186.65 36.04 187.3 36.06 187.96 C36.58 206.97 33.3 224.82 28 243 C29.98 243.99 31.96 244.98 34 246 C35.32 242.7 36.64 239.4 38 236 C42.56 237.14 44.23 238.99 47.19 242.38 C47.91 243.19 47.91 243.19 48.65 244.01 C52.45 248.28 56.04 252.7 59.61 257.14 C63.32 261.58 67.28 265.78 71.23 270.02 C74.57 273.6 77.8 277.28 81 281 C82.03 282.18 83.06 283.35 84.09 284.53 C85.21 285.81 86.32 287.09 87.44 288.38 C87.98 288.99 88.53 289.61 89.09 290.25 C93 294.77 93 294.77 93 297 C83.72 296.63 74.71 295.76 65.56 294.23 C59.28 293.18 53 292.31 46.69 291.5 C44.76 291.25 42.84 291.01 40.91 290.76 C39.95 290.64 38.99 290.52 37.99 290.39 C32.85 289.72 27.7 289.02 22.56 288.31 C21.12 288.12 21.12 288.12 19.65 287.91 C17.44 287.61 15.22 287.31 13 287 C13 285.68 13 284.36 13 283 C13.99 282.67 14.98 282.34 16 282 C17.05 280.15 17.05 280.15 18 278 C18.98 276.65 19.97 275.31 21 274 C17.83 271.67 17.83 271.67 14.09 271.08 C11 272.44 9.8 274.57 7.88 277.31 C4.65 281.81 1.29 286.11 -2.31 290.31 C-5.03 293.5 -7.38 296.4 -9.19 300.19 C-9.79 301.12 -10.38 302.04 -11 303 C-13.33 303.37 -15.66 303.7 -18 304 C-20.51 305.51 -22.79 307.23 -25.15 308.97 C-52.97 328.78 -89.48 336.4 -123.02 330.98 C-132.23 329.28 -141.18 327.16 -150 324 C-150.31 324.95 -150.62 325.9 -150.94 326.88 C-152 330 -152 330 -153 332 C-147.56 333.49 -147.56 333.49 -142 335 C-143.67 338.33 -144.41 339.65 -146.98 341.99 C-147.56 342.53 -148.15 343.06 -148.75 343.62 C-149.68 344.46 -149.68 344.46 -150.62 345.31 C-151.58 346.18 -151.58 346.18 -152.55 347.07 C-156.35 350.54 -160.18 353.97 -164.08 357.33 C-166.41 359.36 -168.71 361.43 -171 363.5 C-176.44 368.4 -181.93 373.24 -187.5 378 C-188.44 378.8 -188.44 378.8 -189.4 379.62 C-190.65 380.69 -191.91 381.76 -193.17 382.83 C-193.75 383.32 -194.33 383.82 -194.93 384.33 C-195.45 384.77 -195.97 385.21 -196.5 385.67 C-198.06 387.01 -198.06 387.01 -199.57 388.67 C-201 390 -201 390 -203 390 C-203.26 381.89 -202.48 374.25 -201.19 366.25 C-200.82 363.86 -200.45 361.47 -200.08 359.07 C-199.89 357.89 -199.71 356.7 -199.52 355.47 C-198.75 350.35 -198.09 345.21 -197.44 340.06 C-196.12 329.68 -194.6 319.34 -193 309 C-189.76 310.44 -187.38 312.26 -184.75 314.62 C-184.04 315.26 -183.34 315.89 -182.61 316.54 C-182.08 317.02 -181.55 317.5 -181 318 C-179.02 315.41 -177.37 312.96 -176 310 C-176.54 309.75 -177.07 309.5 -177.62 309.25 C-180 308 -180 308 -182.6 305.97 C-186.82 303.52 -189.96 303.34 -194.75 303.25 C-195.52 303.22 -196.28 303.19 -197.07 303.16 C-199.72 303.06 -202.36 303 -205 303 C-204.34 300.15 -203.48 297.48 -202.44 294.75 C-202.17 294.04 -201.9 293.34 -201.62 292.61 C-201.42 292.08 -201.21 291.55 -201 291 C-201.38 290.6 -201.76 290.19 -202.14 289.78 C-206.24 285.26 -209.95 280.52 -213.56 275.62 C-214.01 275.03 -214.46 274.43 -214.92 273.81 C-220.98 265.51 -225.79 256.91 -229.62 247.38 C-230.01 246.41 -230.4 245.45 -230.8 244.46 C-237.84 226.55 -241.1 207.28 -240 188 C-239.96 187.35 -239.93 186.7 -239.89 186.03 C-239.04 172.22 -235.8 159.27 -232 146 C-234.97 145.01 -234.97 145.01 -238 144 C-239.32 147.3 -240.64 150.6 -242 154 C-246.02 151.99 -247.75 150.36 -250.69 147.06 C-251.13 146.57 -251.56 146.08 -252.01 145.58 C-254.87 142.36 -257.61 139.05 -260.31 135.69 C-264.95 129.94 -269.96 124.59 -275 119.21 C-277.78 116.24 -280.52 113.23 -283.16 110.14 C-284.72 108.32 -286.31 106.53 -287.9 104.73 C-288.93 103.55 -289.97 102.37 -291 101.19 C-291.51 100.62 -292.01 100.06 -292.53 99.48 C-293.94 97.86 -293.94 97.86 -296 95 C-295.67 94.01 -295.34 93.02 -295 92 C-285.86 93.21 -276.72 94.43 -267.58 95.65 C-265.79 95.89 -264 96.13 -262.22 96.37 C-256.24 97.17 -250.27 97.98 -244.3 98.78 C-242.31 99.05 -240.32 99.32 -238.32 99.59 C-235.5 99.97 -232.68 100.35 -229.86 100.73 C-229.01 100.84 -228.16 100.96 -227.28 101.07 C-224.07 101.51 -221.08 101.97 -218 103 C-218.06 102.06 -218.12 101.11 -218.18 100.14 C-218.24 98.21 -218.24 98.21 -218.31 96.25 C-218.37 95 -218.43 93.74 -218.49 92.45 C-218.21 86.49 -215.44 81.35 -213 76 C-212.04 73.79 -211.09 71.59 -210.13 69.38 C-209.13 67.11 -208.13 64.83 -207.12 62.56 C-206.39 60.88 -206.39 60.88 -205.64 59.15 C-202.12 51.21 -198.22 43.59 -194 36 C-190.9 37.17 -188.12 38.42 -185.36 40.25 C-184.69 40.69 -184.02 41.13 -183.33 41.58 C-182.62 42.05 -181.92 42.52 -181.19 43 C-179.68 43.99 -178.16 44.98 -176.65 45.97 C-175.88 46.48 -175.11 46.98 -174.32 47.5 C-170.03 50.27 -165.69 52.96 -161.35 55.65 C-160.74 56.03 -160.12 56.41 -159.49 56.81 C-158.9 57.17 -158.3 57.53 -157.69 57.91 C-156.06 58.96 -154.52 60.15 -152.98 61.35 C-149.07 63.51 -147.3 63.03 -143 62 C-142.33 61.85 -141.67 61.7 -140.98 61.54 C-138.11 60.89 -135.26 60.17 -132.4 59.46 C-125.68 57.82 -119.28 56.94 -112.36 57 C-98.72 57.4 -98.72 57.4 -87 51.44 C-84.64 49.09 -84.64 49.09 -83 47 C-80.3 49.41 -78.9 51.21 -77.34 54.54 C-75.14 58.56 -72.36 59.47 -68.09 60.75 C-67.24 60.98 -66.38 61.2 -65.5 61.44 C-64.65 61.69 -63.79 61.95 -62.91 62.21 C-59.05 63.33 -56.06 64 -52 64 C-51.01 62.02 -50.02 60.04 -49 58 C-49.61 57.87 -50.23 57.73 -50.86 57.6 C-51.67 57.42 -52.48 57.24 -53.31 57.06 C-54.11 56.89 -54.91 56.71 -55.74 56.54 C-58 56 -58 56 -61 55 C-61 52 -61 52 -59.67 50.56 C-58.72 49.79 -58.72 49.79 -57.75 49 C-54.08 45.93 -50.52 42.75 -47 39.5 C-43.04 35.85 -39.05 32.26 -34.98 28.73 C-32.69 26.73 -30.44 24.68 -28.19 22.62 C-23.83 18.69 -19.32 14.97 -14.75 11.29 C-11.04 8.21 -7.52 4.95 -4 1.65 C-2 0 -2 0 0 0 Z M-191 49 C-191.33 50.16 -191.66 51.31 -192 52.5 C-193.95 58.36 -196.77 63.77 -199.57 69.25 C-199.91 69.94 -200.25 70.62 -200.59 71.33 C-202 74 -202 74 -203.96 77.02 C-211.74 89.65 -211.03 102.29 -210.78 116.72 C-210.77 119.27 -210.75 121.83 -210.75 124.39 C-210.72 130.38 -210.66 136.38 -210.58 142.37 C-210.49 149.21 -210.44 156.05 -210.4 162.88 C-210.32 176.92 -210.18 190.96 -210 205 C-211.75 204.86 -213.5 204.71 -215.25 204.56 C-216.71 204.44 -216.71 204.44 -218.2 204.32 C-220.56 204.05 -222.72 203.65 -225 203 C-224.43 207.13 -224.43 207.13 -223 211 C-218.73 212.73 -214.56 213.45 -210 214 C-208.05 219.27 -208.05 223.04 -208.77 228.58 C-209.08 231.83 -208.54 234.79 -208 238 C-208 240.33 -208 242.67 -208 245 C-207.81 245.93 -207.63 246.86 -207.44 247.81 C-207 250 -207 250 -208 252 C-208.5 254.87 -208.5 254.87 -208 258 C-206.35 259.69 -204.69 261.36 -203 263 C-203 265.19 -203 265.19 -204 267 C-205.49 267.99 -205.49 267.99 -207 269 C-204.8 273.94 -202.32 277.7 -197.25 279.88 C-192.87 281.35 -189.48 280.88 -185 280 C-185.33 281.32 -185.66 282.64 -186 284 C-128.91 284 -71.82 284 -13 284 C-6.74 272.39 -6.74 272.39 -1 260.56 C1.61 254.94 4.28 249.35 7.06 243.81 C7.39 243.16 7.72 242.51 8.05 241.84 C9.71 238.54 11.38 235.25 13.06 231.96 C13.55 230.99 13.55 230.99 14.05 230 C14.95 228.23 15.85 226.46 16.75 224.7 C18.14 222.19 18.14 222.19 18 220 C15.03 220 12.06 220 9 220 C9.33 218.02 9.66 216.04 10 214 C14.62 213.67 19.24 213.34 24 213 C24 212.34 24 211.68 24 211 C22.21 210.33 20.42 209.66 18.62 209 C17.13 208.44 17.13 208.44 15.6 207.88 C13.14 206.89 13.14 206.89 11 207 C11.01 206.32 11.02 205.63 11.03 204.93 C11.36 187.77 11.36 187.77 9.44 170.77 C8.97 167.81 8.93 165 9 162 C11.97 160.35 14.94 158.7 18 157 C18 156.67 18 156.34 18 156 C17.11 156.02 16.22 156.04 15.3 156.06 C5.92 155.9 5.92 155.9 3.35 153.4 C2.33 151.28 1.67 149.25 1 147 C-0.96 142.07 -3.25 137.7 -6.06 133.19 C-7.1 131.51 -7.1 131.51 -8.16 129.79 C-9.87 127 -9.87 127 -12 125 C-11.89 121.87 -10.4 120.16 -8.44 117.88 C-5.78 115.37 -5.78 115.37 -6 113 C-10.47 114.42 -14.71 116.11 -19 118 C-19.33 117.01 -19.66 116.02 -20 115 C-22.78 117.4 -24.09 119.42 -25 123 C-25.28 131.15 -22.28 137.71 -19 145 C-18 147.33 -17.02 149.67 -16.04 152.01 C-15.35 153.67 -14.65 155.33 -13.94 156.99 C-12.45 160.51 -10.99 164.02 -9.66 167.61 C-7.3 173.87 -4.76 177.57 0.13 182.11 C5.65 187.69 6.37 193.9 6.44 201.44 C6.37 208.09 5.38 213.74 3 220 C0.03 220 -2.94 220 -6 220 C-5.48 218.97 -5.48 218.97 -4.94 217.92 C-4.49 217.02 -4.03 216.12 -3.56 215.19 C-2.88 213.85 -2.88 213.85 -2.19 212.48 C0.88 206.09 1.24 198.98 -0.87 192.2 C-2.85 187.93 -4.71 185.17 -8.43 182.3 C-12.74 178.73 -14.24 174.68 -16.06 169.5 C-16.73 167.71 -17.41 165.92 -18.08 164.13 C-18.41 163.26 -18.73 162.39 -19.06 161.49 C-20.35 158.06 -21.79 154.73 -23.25 151.38 C-25.28 146.69 -27.26 142 -29.12 137.24 C-29.7 135.76 -30.3 134.29 -30.91 132.82 C-32.61 128.63 -33.52 125.5 -33 121 C-31.64 117.9 -29.9 115.07 -28.12 112.19 C-27.63 111.36 -27.13 110.53 -26.62 109.67 C-25.59 107.95 -24.56 106.23 -23.52 104.52 C-21.67 101.45 -19.86 98.35 -18.05 95.25 C-13.96 88.23 -9.75 81.31 -5.4 74.44 C-3.83 72.18 -3.83 72.18 -4 70 C-12.51 72.76 -20.65 76.34 -28.75 80.12 C-32.74 81.99 -36.7 83.68 -40.84 85.15 C-44.88 86.74 -48.76 88.7 -52.66 90.6 C-56.42 92.18 -60.02 93.1 -64 94 C-64.48 93.1 -64.48 93.1 -64.97 92.19 C-71.03 80.94 -77.1 69.76 -84 59 C-91.98 62.65 -98.47 69.38 -105.06 75.06 C-106.83 76.58 -108.61 78.1 -110.38 79.61 C-111.84 80.86 -113.28 82.13 -114.72 83.39 C-115.49 84.05 -116.27 84.7 -117.06 85.38 C-117.71 85.94 -118.36 86.5 -119.04 87.09 C-121 88 -121 88 -123.33 87.23 C-125.9 86.05 -128.26 84.75 -130.68 83.27 C-131.58 82.72 -132.47 82.17 -133.4 81.61 C-134.36 81.01 -135.32 80.42 -136.31 79.81 C-137.31 79.2 -138.31 78.59 -139.34 77.96 C-144.83 74.6 -150.3 71.19 -155.75 67.74 C-156.83 67.05 -157.92 66.36 -159.04 65.66 C-161.16 64.32 -163.26 62.97 -165.37 61.62 C-166.32 61.02 -167.28 60.41 -168.27 59.79 C-169.11 59.25 -169.95 58.71 -170.82 58.15 C-173.03 56.77 -173.03 56.77 -176 57 C-175.75 57.52 -175.51 58.04 -175.25 58.57 C-170.76 68.01 -166.29 77.46 -162 87 C-161.15 88.88 -160.29 90.75 -159.44 92.62 C-157.63 96.59 -155.85 100.56 -154.12 104.55 C-153.26 106.44 -152.33 108.29 -151.38 110.13 C-147.93 116.99 -145.81 121.54 -148 129 C-148.51 130.76 -148.51 130.76 -149.03 132.55 C-150.07 136.01 -151.18 139.44 -152.31 142.88 C-155.11 151.46 -157.77 160.09 -160.31 168.75 C-160.64 169.86 -160.96 170.97 -161.3 172.11 C-162.16 175.15 -162.16 175.15 -162 179 C-158.96 180.52 -155.72 180.37 -152.38 180.56 C-151.32 180.63 -151.32 180.63 -150.23 180.69 C-148.49 180.8 -146.74 180.9 -145 181 C-147.89 205.31 -156.43 224.74 -167.98 246.09 C-169.02 248.04 -170.02 250.02 -171 252 C-170.99 251.2 -170.98 250.41 -170.96 249.59 C-170.88 243.11 -170.88 243.11 -171.56 236.69 C-172.12 233.28 -171.56 230.4 -171 227 C-171 226.05 -171 225.1 -171 224.12 C-171 222 -171 222 -170 221 C-169.63 218.67 -169.3 216.34 -169 214 C-168.31 213.91 -167.63 213.83 -166.92 213.74 C-161.25 213.02 -161.25 213.02 -156.94 209.62 C-155.88 206.8 -155.88 206.8 -155 203 C-159.95 203.99 -164.9 204.98 -170 206 C-169.96 203.87 -169.96 203.87 -169.93 201.69 C-169.7 188.22 -169.54 174.75 -169.43 161.27 C-169.37 154.35 -169.3 147.42 -169.17 140.5 C-169.05 133.8 -168.98 127.1 -168.96 120.4 C-168.94 117.86 -168.9 115.32 -168.84 112.78 C-168.46 96.3 -170.32 85.03 -179.58 71.24 C-183.12 65.65 -185.93 59.54 -188.31 53.38 C-188.8 52.12 -188.8 52.12 -189.3 50.84 C-189.65 49.93 -189.65 49.93 -190 49 C-190.33 49 -190.66 49 -191 49 Z M-222.06 110.88 C-222.88 111.68 -222.88 111.68 -223.72 112.49 C-225.22 113.92 -225.22 113.92 -225 116 C-221.78 118.32 -221.78 118.32 -218 119 C-218 115.37 -218 111.74 -218 108 C-219.81 108 -220.84 109.67 -222.06 110.88 Z " fill="#D7E1E4" transform="translate(296,0)"/>
<path d="M0 0 C3.4 -0.35 6.61 -0.49 10 0 C13.08 3.08 14.26 6.6 15.84 10.58 C17.25 14.12 18.67 17.65 20.11 21.18 C20.8 22.89 21.49 24.6 22.19 26.31 C22.54 27.18 22.9 28.05 23.26 28.94 C23.6 29.78 23.94 30.62 24.29 31.49 C24.6 32.24 24.9 32.98 25.22 33.76 C26.05 36.15 26.56 38.5 27 41 C28.98 41 30.96 41 33 41 C29.52 31.58 25.91 22.25 22 13 C21.22 11.15 20.45 9.29 19.69 7.44 C19.36 6.65 19.04 5.87 18.7 5.06 C18 3 18 3 18 0 C19.58 -0.16 21.16 -0.28 22.75 -0.38 C23.63 -0.44 24.51 -0.51 25.42 -0.59 C28 0 28 0 30.12 2.5 C32.2 6.38 33.8 10.25 35.31 14.38 C37.88 21.19 40.62 27.88 43.6 34.52 C49.5 47.69 49.5 47.69 49 53 C48 53.24 48 53.24 46.99 53.48 C41.38 54.96 37.68 56.25 34 61 C33.67 61.99 33.34 62.98 33 64 C33.58 63.36 34.15 62.72 34.75 62.06 C38.55 58.58 42.72 58.71 47.69 58.79 C53.89 59.36 58.11 62.33 62 67 C64.74 71.56 64.76 76.85 64 82 C62.03 87.1 59.67 91.02 55 94 C54.34 94 53.68 94 53 94 C53 94.66 53 95.32 53 96 C28.28 97.85 28.28 97.85 21.44 92 C15.89 85.51 12.35 77.79 9 70 C8.48 68.84 7.97 67.68 7.43 66.48 C5.49 61.99 3.83 57.83 3 53 C0.13 54.43 -0.15 56.33 -1.44 59.25 C-7 70.61 -15.14 79.52 -26 86 C-26.68 86.46 -27.36 86.92 -28.06 87.39 C-41.29 95.73 -57.85 96.27 -73 95 C-73.99 94.67 -74.98 94.34 -76 94 C-75.35 88.85 -74.32 83.91 -73.06 78.88 C-71.3 71.62 -69.98 64.41 -69 57 C-57.7 57.51 -47.5 60.36 -38.22 66.93 C-35.3 68.34 -34.04 68.03 -31 67 C-19.44 60.66 -11.8 50.61 -6 39 C-5.47 33.74 -6.41 30.7 -8.86 26.23 C-10.57 22.88 -11.74 19.37 -12.98 15.82 C-14.3 12.17 -15.77 8.58 -17.27 5 C-18 3 -18 3 -18 1 C-14.29 0.72 -10.7 0.59 -7 1 C-5.06 2.87 -5.06 2.87 -4 6 C-3.42 7.4 -2.84 8.79 -2.25 10.19 C-0.88 13.63 0.38 17.09 1.6 20.58 C1.89 21.39 2.18 22.2 2.49 23.03 C3.07 24.66 3.64 26.29 4.19 27.93 C5.91 32.81 5.91 32.81 10.23 35.53 C11.6 35.76 11.6 35.76 13 36 C10.26 28.22 7.21 20.6 4 13 C3.22 11.15 2.45 9.29 1.69 7.44 C1.36 6.65 1.04 5.87 0.7 5.06 C0 3 0 3 0 0 Z " fill="#D7E2E5" transform="translate(226,124)"/>
<path d="M0 0 C3.91 1.66 4.95 3.46 6.73 7.31 C8.39 10.83 10.22 14.25 12.06 17.69 C12.57 18.65 12.57 18.65 13.09 19.63 C14.58 22.41 16.09 25.15 17.75 27.83 C19 30 19 30 19 32 C29.34 28.74 39.32 24.55 49.31 20.38 C50.27 19.98 51.22 19.58 52.21 19.17 C54.09 18.38 55.96 17.58 57.82 16.77 C58.71 16.39 59.59 16.01 60.5 15.62 C61.27 15.29 62.05 14.95 62.84 14.6 C65.33 13.91 66.56 14.3 69 15 C50.73 47.27 50.73 47.27 48 50 C44.86 50.1 41.75 50.13 38.61 50.11 C37.14 50.11 37.14 50.11 35.63 50.11 C32.36 50.11 29.08 50.11 25.81 50.1 C23.55 50.1 21.28 50.09 19.02 50.09 C13.05 50.09 7.08 50.08 1.11 50.07 C-4.97 50.06 -11.06 50.05 -17.15 50.05 C-29.1 50.04 -41.05 50.02 -53 50 C-53.8 48.39 -53.8 48.39 -54.62 46.75 C-55.34 45.31 -56.06 43.88 -56.78 42.44 C-57.13 41.74 -57.48 41.03 -57.84 40.31 C-59.54 36.92 -61.23 33.53 -62.94 30.15 C-66.02 24.05 -69.05 17.92 -72 11.75 C-72.32 11.11 -72.63 10.46 -72.96 9.8 C-73.7 8.23 -74.36 6.61 -75 5 C-74.67 4.34 -74.34 3.68 -74 3 C-71.02 4.77 -68.04 6.54 -65.06 8.31 C-64.16 8.85 -63.26 9.38 -62.34 9.93 C-57.85 12.62 -53.42 15.35 -49.1 18.28 C-48.34 18.79 -47.59 19.3 -46.81 19.83 C-45.38 20.8 -43.96 21.78 -42.56 22.78 C-39.47 24.88 -37.7 25.98 -33.9 26.1 C-30.3 24.73 -27.79 22.69 -25 20.12 C-23.87 19.13 -22.73 18.13 -21.6 17.13 C-21.01 16.62 -20.43 16.1 -19.82 15.57 C-16.78 12.95 -13.61 10.47 -10.44 8 C-9.56 7.32 -9.56 7.32 -8.67 6.62 C-5.8 4.38 -2.92 2.17 0 0 Z " fill="#D9E4E7" transform="translate(209,69)"/>
<path d="M0 0 C1.95 -0.36 1.95 -0.36 4.36 -0.34 C5.26 -0.34 6.16 -0.34 7.09 -0.34 C8.06 -0.32 9.04 -0.31 10.04 -0.29 C11.04 -0.29 12.03 -0.28 13.06 -0.28 C16.25 -0.26 19.44 -0.23 22.62 -0.19 C24.78 -0.17 26.94 -0.16 29.1 -0.15 C34.4 -0.11 39.7 -0.06 45 0 C45.24 0.76 45.48 1.52 45.73 2.3 C48.1 9.64 50.92 16.54 54.26 23.48 C56.55 28.41 57.9 32.53 58 38 C56.78 40.94 56.78 40.94 54.94 43.56 C54.28 44.5 53.63 45.43 52.95 46.39 C52.31 47.25 51.66 48.11 51 49 C50.52 49.66 50.04 50.33 49.55 51.01 C45.68 55.96 40.62 60.18 35 63 C31.34 62.81 28.79 60.61 25.81 58.62 C14.96 52.18 2.23 51.76 -10.12 51.21 C-13 51 -13 51 -15 50 C-14.39 43.8 -13.07 38.1 -11.31 32.12 C-11.05 31.22 -10.79 30.31 -10.51 29.38 C-8.69 23.18 -6.77 17.01 -4.75 10.88 C-4.5 10.12 -4.26 9.37 -4.01 8.6 C-2.93 5.4 -1.88 2.82 0 0 Z " fill="#D8E2E5" transform="translate(157,124)"/>
<path d="M0 0 C0.66 0 1.32 0 2 0 C6 8 10 16 14 24 C14.34 24.6 14.69 25.19 15.04 25.81 C16.15 28.33 16.25 30.09 16.25 32.84 C16.25 33.81 16.26 34.78 16.26 35.78 C16.25 37.37 16.25 37.37 16.24 38.99 C16.24 40.12 16.25 41.24 16.25 42.39 C16.25 46.1 16.24 49.8 16.23 53.51 C16.23 56.08 16.23 58.65 16.23 61.22 C16.23 66.61 16.22 71.99 16.21 77.38 C16.19 83.61 16.18 89.85 16.19 96.08 C16.19 102.07 16.18 108.07 16.17 114.06 C16.17 116.61 16.17 119.17 16.17 121.72 C16.16 125.28 16.16 128.84 16.15 132.39 C16.15 133.99 16.15 133.99 16.15 135.62 C16.14 136.59 16.14 137.55 16.13 138.54 C16.13 139.38 16.13 140.22 16.13 141.09 C16 143 16 143 15 144 C13.15 144.07 11.29 144.08 9.44 144.06 C8.43 144.05 7.41 144.04 6.37 144.04 C5.2 144.02 5.2 144.02 4 144 C4 143.42 3.99 142.84 3.99 142.24 C3.88 128.15 3.78 114.05 3.66 99.96 C3.61 93.14 3.55 86.32 3.5 79.51 C3.46 72.93 3.4 66.36 3.35 59.78 C3.33 57.27 3.31 54.76 3.29 52.24 C3.27 48.73 3.24 45.22 3.21 41.71 C3.2 40.14 3.2 40.14 3.19 38.54 C3.18 37.59 3.17 36.63 3.16 35.65 C3.15 34.82 3.15 33.99 3.14 33.13 C3.08 30.81 3.08 30.81 2 28 C1.34 28 0.68 28 0 28 C-1.17 40.55 -1.22 53.09 -1.32 65.68 C-1.34 67.95 -1.36 70.21 -1.38 72.48 C-1.43 78.4 -1.48 84.32 -1.53 90.24 C-1.58 96.31 -1.64 102.37 -1.69 108.43 C-1.8 120.28 -1.9 132.14 -2 144 C-3.81 144.03 -5.62 144.05 -7.44 144.06 C-8.45 144.07 -9.46 144.09 -10.5 144.1 C-13 144 -13 144 -14 143 C-14.12 141.55 -14.16 140.09 -14.18 138.63 C-14.2 137.68 -14.21 136.74 -14.22 135.77 C-14.23 134.72 -14.25 133.68 -14.26 132.6 C-14.28 130.96 -14.28 130.96 -14.3 129.28 C-14.43 119.13 -14.5 108.97 -14.55 98.82 C-14.59 91.32 -14.66 83.83 -14.76 76.34 C-14.85 70.42 -14.88 64.5 -14.89 58.57 C-14.91 56.07 -14.94 53.57 -14.98 51.06 C-15.24 36.24 -14.47 25.18 -6.08 12.69 C-4.41 10.07 -3.18 7.28 -1.94 4.44 C-1.55 3.57 -1.17 2.7 -0.78 1.81 C-0.39 0.91 -0.39 0.91 0 0 Z " fill="#D8E3E6" transform="translate(105,62)"/>
<path d="M0 0 C15.84 0 31.68 0 48 0 C46 6 46 6 45 8 C33.45 8 21.9 8 10 8 C6.23 15.87 6.23 15.87 2.46 23.73 C1.98 24.73 1.51 25.72 1.02 26.75 C0.53 27.76 0.05 28.76 -0.44 29.8 C-2.27 33.55 -4.14 37.27 -6 41 C0.93 41 7.86 41 15 41 C15.99 38.03 16.98 35.06 18 32 C18.66 30.68 19.32 29.36 20 28 C16.04 28 12.08 28 8 28 C8.75 24.24 9.24 22.17 11 19 C11.66 19 12.32 19 13 19 C13 19.66 13 20.32 13 21 C20.59 21 28.18 21 36 21 C35.17 25.15 34.3 27.81 32.5 31.52 C32.05 32.44 31.61 33.36 31.15 34.31 C30.58 35.47 30.02 36.62 29.44 37.81 C26.75 43.35 26.75 43.35 24 49 C8.82 49 -6.36 49 -22 49 C-21.18 44.91 -20.38 42.35 -18.59 38.71 C-18.1 37.68 -17.6 36.66 -17.09 35.6 C-16.3 34 -16.3 34 -15.5 32.38 C-10.26 21.62 -5.12 10.82 0 0 Z " fill="#D5E0E3" transform="translate(252,227)"/>
<path d="M0 0 C-1.15 2.59 -2.3 4.34 -4.19 6.5 C-6.23 8.74 -6.23 8.74 -5.82 10.86 C-4.8 13.52 -3.38 15.52 -1.69 17.81 C3.12 24.54 6.48 30.88 9.17 38.74 C9.8 40.94 9.8 40.94 11 42 C13.18 42.23 15.37 42.41 17.56 42.56 C18.76 42.65 19.96 42.73 21.19 42.82 C22.58 42.91 22.58 42.91 24 43 C22.72 45.57 21.5 45.9 18.94 47.12 C17.84 47.65 17.84 47.65 16.71 48.2 C16.15 48.46 15.58 48.73 15 49 C15.14 51.21 15.29 53.42 15.44 55.62 C15.52 56.85 15.6 58.08 15.68 59.35 C15.93 62.88 15.93 62.88 16.51 65.85 C17 68.98 17.11 71.89 17.1 75.05 C17.09 76.16 17.09 77.27 17.09 78.41 C17.08 80.13 17.08 80.13 17.06 81.88 C17.06 83.04 17.05 84.21 17.05 85.41 C17.04 88.27 17.02 91.14 17 94 C17.77 94.2 18.54 94.41 19.34 94.62 C20.34 94.89 21.34 95.16 22.38 95.44 C23.37 95.7 24.37 95.97 25.4 96.25 C28 97 28 97 30 98 C30 98.66 30 99.32 30 100 C28.8 100.06 27.59 100.12 26.35 100.18 C24.78 100.27 23.2 100.35 21.62 100.44 C20.83 100.48 20.04 100.52 19.22 100.56 C14.97 100.69 14.97 100.69 11 102 C11.16 101.34 11.31 100.69 11.48 100.01 C13.09 90.71 13.52 80.41 8.62 72.09 C6.95 69.93 5.17 68.29 3.12 66.5 C-2.73 61.07 -4.65 53.48 -7.23 46.14 C-8.24 43.34 -9.39 40.61 -10.56 37.88 C-11.38 35.92 -12.19 33.96 -13 32 C-13.27 31.37 -13.54 30.74 -13.81 30.09 C-20.2 14.89 -20.2 14.89 -18 7 C-16.44 3.94 -16.44 3.94 -15 2 C-14.34 2.33 -13.68 2.66 -13 3 C-13 3.66 -13 4.32 -13 5 C-12.23 4.64 -11.46 4.28 -10.66 3.91 C-9.66 3.44 -8.66 2.98 -7.62 2.5 C-6.63 2.04 -5.63 1.57 -4.6 1.09 C-2 0 -2 0 0 0 Z " fill="#080909" transform="translate(290,113)"/>
<path d="M0 0 C13.86 0 27.72 0 42 0 C41 5 41 5 39 8 C36.02 8.43 36.02 8.43 32.24 8.51 C31.58 8.53 30.92 8.55 30.23 8.57 C28.11 8.62 25.99 8.65 23.88 8.69 C22.44 8.72 21 8.76 19.57 8.79 C16.04 8.88 12.52 8.94 9 9 C3.94 19.64 -1.09 30.29 -6 41 C3.24 41 12.48 41 22 41 C21 46 21 46 20 49 C5.81 49 -8.38 49 -23 49 C-21.87 43.37 -21.87 43.37 -20.33 40.33 C-20 39.67 -19.66 39.01 -19.32 38.33 C-18.79 37.3 -18.79 37.3 -18.25 36.25 C-17.89 35.54 -17.53 34.82 -17.16 34.09 C-15.27 30.39 -13.32 26.73 -11.25 23.12 C-9.16 19.46 -7.62 15.71 -6.19 11.75 C-4.43 7.69 -2.15 3.87 0 0 Z " fill="#D2DCDF" transform="translate(148,227)"/>
<path d="M0 0 C1.99 -0.36 1.99 -0.36 4.45 -0.34 C5.37 -0.34 6.29 -0.34 7.24 -0.34 C8.73 -0.32 8.73 -0.32 10.26 -0.29 C11.28 -0.29 12.29 -0.28 13.34 -0.28 C16.6 -0.26 19.86 -0.23 23.12 -0.19 C25.33 -0.17 27.54 -0.16 29.75 -0.15 C35.16 -0.11 40.58 -0.06 46 0 C44.12 6.88 44.12 6.88 43 8 C41.58 8.09 40.16 8.11 38.75 8.1 C37.89 8.09 37.04 8.09 36.16 8.09 C35.26 8.08 34.36 8.07 33.44 8.06 C32.54 8.06 31.63 8.05 30.71 8.05 C28.47 8.04 26.24 8.02 24 8 C23.59 9.55 23.59 9.55 23.18 11.14 C22.19 14.58 20.84 17.63 19.19 20.81 C18.39 22.36 18.39 22.36 17.59 23.94 C17.06 24.95 16.54 25.96 16 27 C12.32 34.24 9.02 41.46 6 49 C1.71 49 -2.58 49 -7 49 C-6.15 44.74 -5.25 42.57 -3.09 38.98 C-1.94 36.89 -1.09 34.8 -0.25 32.56 C1.89 27 4.56 21.74 7.27 16.45 C8.7 13.65 10.01 10.98 11 8 C6.38 8 1.76 8 -3 8 C-2 3 -2 3 0 0 Z " fill="#D1DCDE" transform="translate(199,227)"/>
<path d="M0 0 C22.77 0 45.54 0 69 0 C69 4.29 69 8.58 69 13 C65.74 9.74 64.13 7.05 62 3 C62 2.34 62 1.68 62 1 C61.31 1.12 60.62 1.24 59.91 1.37 C34.62 5.76 34.62 5.76 24 5 C23.87 5.71 23.73 6.41 23.6 7.14 C22.99 10.07 22.24 12.93 21.44 15.81 C21.17 16.79 20.9 17.76 20.62 18.77 C20.42 19.51 20.21 20.24 20 21 C19.34 21 18.68 21 18 21 C17.23 14.93 16.9 9.11 17 3 C16.02 2.95 15.05 2.9 14.04 2.85 C12.77 2.78 11.5 2.7 10.19 2.62 C8.92 2.56 7.66 2.49 6.36 2.41 C3 2 3 2 0 0 Z " fill="#0D0E0E" transform="translate(164,303)"/>
<path d="M0 0 C1.3 4.36 0.56 8.16 -0.19 12.56 C-0.32 13.39 -0.46 14.21 -0.6 15.06 C-2.12 24.1 -4.03 33.05 -6 42 C-8.27 39.18 -9.82 36.48 -11.19 33.12 C-11.53 32.3 -11.88 31.48 -12.23 30.63 C-13.44 26.51 -13.56 23.27 -11.81 19.3 C-11.26 18.41 -10.72 17.52 -10.16 16.6 C-9.57 15.63 -8.98 14.66 -8.38 13.65 C-7.76 12.65 -7.14 11.65 -6.5 10.62 C-5.88 9.6 -5.26 8.58 -4.62 7.53 C-3.09 5.01 -1.55 2.5 0 0 Z " fill="#141515" transform="translate(285,23)"/>
<path d="M0 0 C1.16 -0 2.32 -0.01 3.51 -0.01 C4.72 -0 5.94 0.01 7.19 0.02 C8.4 0.01 9.62 0 10.87 -0.01 C12.6 -0 12.6 -0 14.38 0 C15.44 0 16.51 0 17.61 0.01 C20.19 0.27 20.19 0.27 22.19 2.27 C22.31 5.39 22.31 5.39 22.19 8.27 C18.08 8.29 13.96 8.31 9.85 8.32 C8.45 8.33 7.05 8.33 5.65 8.34 C3.65 8.35 1.64 8.36 -0.37 8.36 C-1.58 8.37 -2.79 8.37 -4.04 8.38 C-6.81 8.27 -6.81 8.27 -7.81 7.27 C-8 4.83 -8 4.83 -7.81 2.27 C-5.13 -0.42 -3.75 0.01 0 0 Z " fill="#D3DEE1" transform="translate(98.8125,224.734375)"/>
<path d="M0 0 C2.29 2.84 3.83 5.55 5.19 8.94 C5.53 9.77 5.88 10.61 6.23 11.46 C7.53 15.74 7.54 17.97 5.43 21.98 C4.73 23.04 4.03 24.1 3.31 25.19 C-0.19 30.62 -3.25 36.15 -6 42 C-6.33 42 -6.66 42 -7 42 C-6.39 33.21 -5.03 24.61 -3.5 15.94 C-3.27 14.61 -3.04 13.28 -2.82 11.95 C-1.13 2.26 -1.13 2.26 0 0 Z " fill="#111212" transform="translate(110,325)"/>
<path d="M0 0 C1.26 -0 2.51 -0 3.8 -0 C4.46 -0 5.12 0 5.8 0 C7.8 0.01 9.81 0 11.82 -0 C13.08 -0 14.33 -0 15.62 0 C16.79 0 17.95 0 19.14 0 C21.81 0.13 21.81 0.13 22.81 1.13 C23 3.57 23 3.57 22.81 6.13 C20.13 8.82 18.75 8.39 15 8.4 C13.84 8.4 12.68 8.4 11.49 8.41 C10.28 8.4 9.06 8.39 7.81 8.38 C6.6 8.39 5.38 8.4 4.13 8.41 C2.4 8.4 2.4 8.4 0.62 8.4 C-0.97 8.4 -0.97 8.4 -2.61 8.39 C-5.19 8.13 -5.19 8.13 -7.19 6.13 C-7.38 3.57 -7.38 3.57 -7.19 1.13 C-5.36 -0.7 -2.46 0 0 0 Z " fill="#CDD7DA" transform="translate(98.1875,212.8671875)"/>
<path d="M0 0 C1.76 3.09 2 4.23 2 8 C0.35 9.68 0.35 9.68 -1.94 11.31 C-4.47 13.14 -6.9 14.91 -9.21 17.01 C-13.49 20.83 -16.23 22.44 -22.06 22.44 C-23.71 22.33 -25.36 22.19 -27 22 C-25.64 17.93 -22.86 16.3 -19.56 13.81 C-18.29 12.83 -17.01 11.85 -15.74 10.88 C-15.11 10.39 -14.47 9.91 -13.82 9.41 C-10.45 6.8 -7.18 4.08 -3.89 1.36 C-2 0 -2 0 0 0 Z " fill="#D1DBDE" transform="translate(232,198)"/>
<path d="M0 0 C1.48 0.91 2.97 1.81 4.45 2.71 C5.1 3.12 5.74 3.52 6.41 3.93 C8.34 5.08 10.3 6.08 12.31 7.06 C7.88 8.41 4.06 7.5 -0.39 6.63 C-1.23 6.47 -2.07 6.32 -2.93 6.15 C-5.6 5.65 -8.27 5.14 -10.94 4.62 C-12.75 4.28 -14.56 3.94 -16.38 3.6 C-20.81 2.76 -25.25 1.92 -29.69 1.06 C-27.12 -1.65 -24.96 -2.87 -21.44 -4.19 C-20.07 -4.72 -20.07 -4.72 -18.67 -5.27 C-11.22 -6.94 -6.1 -3.82 0 0 Z " fill="#101111" transform="translate(353.6875,278.9375)"/>
<path d="M0 0 C1.22 -0.01 2.44 -0.02 3.69 -0.04 C5.44 -0.04 5.44 -0.04 7.21 -0.04 C8.29 -0.05 9.36 -0.05 10.46 -0.06 C13.06 0.19 13.06 0.19 15.06 2.19 C14.51 6.74 14.51 6.74 13.06 8.19 C8.76 8.44 4.44 8.37 0.12 8.38 C-1.09 8.39 -2.31 8.4 -3.57 8.41 C-5.31 8.42 -5.31 8.42 -7.09 8.42 C-8.7 8.42 -8.7 8.42 -10.34 8.43 C-12.94 8.19 -12.94 8.19 -14.94 6.19 C-13.88 -2.5 -7.4 0 0 0 Z " fill="#D0DADD" transform="translate(105.9375,237.8125)"/>
<path d="M0 0 C4.8 0.38 9.51 0.8 14.19 1.94 C19.51 3.22 24.92 3.8 30.35 4.44 C34.07 5.01 37.42 5.89 41 7 C39.57 9.86 37.85 10 34.88 11.06 C33.94 11.4 33.01 11.75 32.05 12.1 C23.58 14.6 23.58 14.6 20.15 13.3 C18.2 12.22 16.35 11.06 14.5 9.81 C13.24 9.01 11.98 8.2 10.72 7.39 C10.11 7 9.5 6.6 8.87 6.19 C5.98 4.35 2.99 2.68 0 1 C0 0.67 0 0.34 0 0 Z " fill="#101011" transform="translate(23,103)"/>
<path d="M0 0 C2.71 1.36 3.05 3.19 4.13 5.9 C4.74 7.38 5.41 8.83 6.12 10.25 C6.68 11.4 6.68 11.4 7.25 12.56 C7.61 13.27 7.96 13.97 8.33 14.69 C9.69 19.36 7.71 24.3 6.37 28.84 C6.06 29.9 5.75 30.96 5.42 32.06 C5.1 33.15 4.77 34.25 4.44 35.38 C4.11 36.49 3.78 37.61 3.44 38.76 C2.63 41.51 1.82 44.25 1 47 C0.67 47 0.34 47 0 47 C0 31.49 0 15.98 0 0 Z " fill="#18191A" transform="translate(133,104)"/>
<path d="M0 0 C1.12 -0 2.24 -0 3.39 -0 C4.57 -0 5.75 0 6.97 0.01 C8.74 0 8.74 0 10.54 -0 C12.22 -0 12.22 -0 13.94 0 C14.97 0 16.01 0 17.08 0 C19.47 0.13 19.47 0.13 20.47 1.13 C20.66 3.57 20.66 3.57 20.47 6.13 C17.86 8.74 16.72 8.39 13.09 8.4 C12.03 8.4 10.96 8.4 9.86 8.41 C8.18 8.39 8.18 8.39 6.47 8.38 C5.35 8.39 4.23 8.4 3.08 8.41 C2.01 8.4 0.94 8.4 -0.16 8.4 C-1.14 8.4 -2.12 8.39 -3.13 8.39 C-5.53 8.13 -5.53 8.13 -7.53 6.13 C-6.8 0.15 -5.8 0.01 0 0 Z " fill="#D5DFE2" transform="translate(99.53125,250.8671875)"/>
<path d="M0 0 C4 0.69 5.77 2.54 8.52 5.44 C8.46 7.19 8.46 7.19 7.52 9.44 C3.68 12.28 1.75 13.42 -3.04 13.5 C-7.28 12.19 -9.29 10.47 -12.48 7.44 C-9.59 0.98 -6.92 -0.16 0 0 Z " fill="#D2DCDF" transform="translate(107.48046875,263.5625)"/>
<path d="M0 0 C1.98 0 3.96 0 6 0 C6 1.65 6 3.3 6 5 C6.66 5 7.32 5 8 5 C8.33 4.01 8.66 3.02 9 2 C9.66 2 10.32 2 11 2 C11 1.34 11 0.68 11 0 C11.99 0 12.98 0 14 0 C14 0.66 14 1.32 14 2 C15.98 2 17.96 2 20 2 C18.12 8.88 18.12 8.88 17 10 C11.59 10.47 11.59 10.47 9.12 8.5 C8.75 8 8.38 7.51 8 7 C8 7.66 8 8.32 8 9 C7.34 9 6.68 9 6 9 C6 8.34 6 7.68 6 7 C4.35 7.66 2.7 8.32 1 9 C1 8.01 1 7.02 1 6 C-0.65 5.67 -2.3 5.34 -4 5 C-4.33 6.32 -4.66 7.64 -5 9 C-5.66 9 -6.32 9 -7 9 C-7 6.69 -7 4.38 -7 2 C-4.69 2 -2.38 2 0 2 C0 1.34 0 0.68 0 0 Z " fill="#91989A" transform="translate(197,286)"/>
<path d="M0 0 C-3.53 3.69 -7.19 6.77 -11.31 9.81 C-11.86 10.22 -12.41 10.63 -12.98 11.04 C-14.32 12.03 -15.66 13.02 -17 14 C-19.64 11.5 -20.89 9.5 -22 6 C-22 4.68 -22 3.36 -22 2 C-14.59 0.72 -7.53 -0.26 0 0 Z " fill="#131415" transform="translate(190,138)"/>
</svg>
