<?xml version="1.0" encoding="UTF-8"?>
<!-- Generator: https://ezgif.com/webp-to-svg -->
<svg version="1.1" xmlns="http://www.w3.org/2000/svg" width="512" height="512" viewBox="-20.68 -11.68 255.36 255.36" preserveAspectRatio="xMidYMid meet">
<path d="M0 0 C0.99 0.5 0.99 0.5 2 1 C2.03 3.98 2.05 6.96 2.06 9.94 C2.07 10.77 2.08 11.6 2.09 12.46 C2.11 18.05 1.71 23.45 1 29 C7.7 28.67 13.71 28.05 20.02 25.7 C22.63 24.78 25.26 24.35 28 24 C27.05 36.36 22.62 45.37 15 55 C13.99 56.39 12.99 57.78 12 59.19 C11.34 60.12 10.68 61.04 10 62 C10.6 62.05 11.21 62.1 11.83 62.15 C12.63 62.22 13.43 62.3 14.25 62.38 C15.04 62.44 15.83 62.51 16.64 62.59 C19.73 63.13 22.12 63.91 24.13 66.4 C26.97 68.83 30.34 69.63 33.85 70.71 C35.44 71.22 37.03 71.73 38.62 72.24 C41.11 73.02 43.61 73.81 46.1 74.59 C68.68 81.65 68.68 81.65 75 91 C73.35 91 71.7 91 70 91 C70 91.66 70 92.32 70 93 C70.55 93.14 71.1 93.29 71.67 93.44 C77.98 95.29 82.47 98.15 87.56 102.25 C88.62 103.07 88.62 103.07 89.69 103.91 C105.79 116.56 105.79 116.56 110 123 C110 123.99 110 124.98 110 126 C107.86 127.45 105.76 128.7 103.5 129.94 C90.7 137.29 79.14 146.25 68.54 156.52 C66.88 158.12 65.19 159.7 63.5 161.27 C44.05 179.73 33.8 204.33 22 228 C11.54 227.09 3.61 222.37 -4.82 216.44 C-7.98 214.24 -10.21 212.95 -14 212 C-15.32 215.3 -16.64 218.6 -18 222 C-31.02 223.13 -41.68 214.08 -51.33 206.4 C-54.12 203.89 -54.84 202.63 -55.2 198.94 C-55.3 194.15 -54.85 190.08 -53.5 185.48 C-51.77 178.83 -51.66 172.59 -51.81 165.75 C-51.83 164.61 -51.84 163.47 -51.85 162.3 C-51.89 159.53 -51.94 156.77 -52 154 C-61.95 154.73 -68.43 157.92 -75.31 165.31 C-78.86 169.54 -81.57 174.05 -84 179 C-85.87 178.81 -85.87 178.81 -88 178 C-94.29 166.48 -95.3 153.57 -92 141.12 C-90.43 136.21 -88.3 131.61 -86 127 C-88.97 126.67 -91.94 126.34 -95 126 C-95.33 124.68 -95.66 123.36 -96 122 C-94.16 119.78 -94.16 119.78 -91.62 117.5 C-88.36 114.61 -88.36 114.61 -86.03 111 C-85.99 108.1 -87.18 106.75 -88.88 104.44 C-93.26 98.4 -94.1 92.88 -93.43 85.44 C-91.96 77.17 -88.17 69.25 -85.01 61.52 C-83.89 58.72 -82.9 55.88 -82 53 C-79 54 -79 54 -78 56 C-77.34 56 -76.68 56 -76 56 C-74.84 54.23 -73.77 52.41 -72.75 50.56 C-70.56 46.69 -68.34 42.92 -65.81 39.25 C-63.53 35.9 -61.69 32.51 -59.93 28.86 C-58.5 26.01 -56.96 23.53 -55 21 C-54.01 21 -53.02 21 -52 21 C-51.66 22.42 -51.33 23.83 -51 25.25 C-50.81 26.04 -50.63 26.83 -50.44 27.64 C-50 30 -50 30 -50 34 C-49.04 33.3 -48.08 32.59 -47.09 31.87 C-37.71 25.08 -28.09 18.86 -18.11 12.99 C-11.76 9.21 -5.26 5.26 0 0 Z " fill="#0D0D0D" transform="translate(100,2)"/>
<path d="M0 0 C1.15 0.02 2.29 0.04 3.48 0.05 C6.28 0.1 9.08 0.17 11.88 0.25 C11.55 1.24 11.22 2.23 10.88 3.25 C11.72 3.29 12.56 3.33 13.43 3.37 C23.05 4.18 31.72 6.55 40.88 9.62 C42.03 10.01 43.19 10.4 44.38 10.8 C50.47 12.9 56.2 15.2 61.88 18.25 C58.87 20.25 58.87 20.25 56.88 21.25 C57.34 21.55 57.81 21.84 58.29 22.15 C79.83 35.84 79.83 35.84 82.88 39.25 C82.88 40.57 82.88 41.89 82.88 43.25 C80.03 44.46 77.17 45.64 74.31 46.81 C73.11 47.33 73.11 47.33 71.89 47.85 C66.82 49.9 63.3 50.88 57.88 49.25 C55.2 47.83 52.77 46.15 50.31 44.38 C45.95 41.3 41.74 38.51 36.88 36.25 C37.08 36.85 37.28 37.44 37.5 38.06 C39.59 44.8 40.24 51.1 40.53 58.09 C40.76 63.35 41.49 68.16 42.88 73.25 C52.33 72.26 60.23 67.94 68.56 63.69 C70.63 62.63 72.7 61.59 74.78 60.55 C76.06 59.91 77.34 59.26 78.61 58.6 C82.79 56.51 86.3 55.69 90.88 55.25 C91.2 55.91 91.53 56.57 91.88 57.25 C91.25 57.6 90.63 57.96 90 58.32 C57.04 78.14 36.69 112.86 17.88 145.25 C8.75 139.94 3.18 131.76 -1.12 122.25 C-5.41 105.44 -4.57 87.85 -4.56 70.64 C-4.56 65.99 -4.59 61.34 -4.62 56.68 C-4.61 55.48 -4.6 54.28 -4.6 53.04 C-4.66 45.81 -5.46 39.61 -9.12 33.25 C-11.48 31.17 -11.48 31.17 -14.12 30.25 C-15.46 29.59 -16.8 28.93 -18.12 28.25 C-18.33 21.84 -18.28 16.32 -16.12 10.25 C-20.09 9.92 -24.05 9.59 -28.12 9.25 C-20.72 0.36 -10.97 -0.33 0 0 Z " fill="#F8F8F8" transform="translate(97.125,69.75)"/>
<path d="M0 0 C0.99 0 1.98 0 3 0 C3.03 3.6 3.05 7.21 3.06 10.81 C3.07 11.84 3.08 12.86 3.09 13.92 C3.09 14.9 3.09 15.88 3.1 16.89 C3.1 17.8 3.11 18.71 3.11 19.64 C3 22 3 22 2 25 C9.02 23.97 15.97 22.89 22.88 21.27 C25.2 20.97 26.79 21.29 29 22 C22.14 36.06 14.94 45.84 -0.31 51.16 C-3.37 52.13 -6.43 53.08 -9.49 54.02 C-22.68 58.11 -34.53 63.19 -46 71 C-46.96 71.64 -47.92 72.28 -48.9 72.93 C-58.22 79.65 -63.26 88.74 -68 99 C-71.28 97.17 -73.79 95.45 -76.19 92.56 C-76.68 91.99 -77.16 91.41 -77.67 90.82 C-82.21 84.63 -81.95 77.39 -81 70 C-79.68 64.45 -77.55 59.09 -75 54 C-74.01 54.33 -73.02 54.66 -72 55 C-72 56.98 -72 58.96 -72 61 C-71.34 61 -70.68 61 -70 61 C-69.86 60.18 -69.86 60.18 -69.73 59.34 C-68.57 53.27 -66.47 48.45 -63.38 43.12 C-62.93 42.35 -62.49 41.57 -62.04 40.77 C-58.47 34.6 -54.78 28.31 -50 23 C-49.34 23 -48.68 23 -48 23 C-46.72 26.85 -46.93 29.95 -47 34 C-46.34 34 -45.68 34 -45 34 C-44.79 33.45 -44.58 32.89 -44.36 32.32 C-42.53 29.19 -40.01 27.1 -37.25 24.81 C-36.39 24.09 -36.39 24.09 -35.5 23.35 C-29.36 18.32 -22.79 14.1 -16 10 C-15.32 9.59 -14.64 9.18 -13.94 8.75 C-11.2 7.11 -8.46 5.46 -5.71 3.83 C-2.68 2.15 -2.68 2.15 0 0 Z " fill="#F7F7F7" transform="translate(93,13)"/>
<path d="M0 0 C3.88 3.43 7.56 7.82 8.29 13.08 C8.52 24.12 8.19 33.63 4 44 C3.32 45.75 2.63 47.49 1.95 49.24 C0.01 54.18 -1.98 59.09 -4 64 C-8.81 62.79 -12.49 61.37 -16.69 58.62 C-17.6 58.04 -18.51 57.45 -19.45 56.85 C-20.29 56.24 -21.13 55.63 -22 55 C-22.76 54.48 -23.53 53.97 -24.31 53.43 C-27.09 49.43 -26.46 45.18 -26.31 40.44 C-26.3 39.48 -26.29 38.52 -26.28 37.53 C-26.17 30.51 -26.17 30.51 -25 27 C-24.92 24.86 -24.89 22.72 -24.9 20.58 C-24.91 19.33 -24.91 18.07 -24.91 16.78 C-24.92 15.47 -24.93 14.16 -24.94 12.81 C-24.94 11.48 -24.95 10.14 -24.95 8.81 C-24.96 5.54 -24.98 2.27 -25 -1 C-16.35 -3.63 -8.24 -4.43 0 0 Z " fill="#F7F7F7" transform="translate(80,149)"/>
<path d="M0 0 C-1.84 11.14 -1.84 11.14 -5 15 C-6.65 16.03 -8.31 17.03 -10 18 C-9.21 18 -8.43 18.01 -7.62 18.01 C-1.27 18.24 2.97 18.79 7.79 23.04 C9.55 25.89 9.68 28.71 10 32 C8.77 32.04 7.54 32.07 6.27 32.11 C4.64 32.18 3.01 32.25 1.38 32.31 C0.57 32.34 -0.24 32.36 -1.07 32.38 C-6.09 32.61 -9.6 33.34 -14 36 C-11 38 -7.99 39.48 -4.74 41 C-3 42 -3 42 -2 44 C-2.65 44.04 -3.3 44.09 -3.97 44.14 C-6.92 44.35 -9.87 44.58 -12.81 44.81 C-13.84 44.88 -14.86 44.95 -15.92 45.03 C-17.39 45.15 -17.39 45.15 -18.89 45.27 C-19.8 45.34 -20.71 45.41 -21.64 45.48 C-24.38 46.08 -25.14 46.98 -27 49 C-28.05 49.25 -29.1 49.5 -30.19 49.75 C-38.57 51.92 -44.01 60.2 -48.69 66.94 C-49.23 67.7 -49.77 68.46 -50.33 69.24 C-53.74 74.05 -56.93 78.97 -60 84 C-60.66 83.67 -61.32 83.34 -62 83 C-62.18 78.85 -62.28 74.71 -62.38 70.56 C-62.43 69.4 -62.48 68.23 -62.53 67.03 C-62.65 59.87 -61.84 55.33 -57.59 49.49 C-56 48 -56 48 -53 48 C-53 47.01 -53 46.02 -53 45 C-50.24 43.62 -47.95 43.9 -44.88 43.94 C-42.94 43.96 -41 43.98 -39 44 C-40.65 47.96 -42.3 51.92 -44 56 C-42.36 54.55 -42.36 54.55 -40.69 53.06 C-37.26 50.07 -33.8 47.11 -30.31 44.19 C-29.42 43.44 -28.53 42.69 -27.61 41.92 C-25.11 40.08 -22.86 39.12 -20 38 C-19.11 35.96 -19.11 35.96 -19 34 C-19.99 34.5 -19.99 34.5 -21 35 C-23 35.04 -25 35.04 -27 35 C-27 34.34 -27 33.68 -27 33 C-27.99 32.67 -28.98 32.34 -30 32 C-29.43 28.14 -28.34 25.5 -26.19 22.25 C-25.69 21.47 -25.18 20.69 -24.67 19.89 C-22.8 17.77 -21.75 17.36 -19 17 C-18.34 18.65 -17.68 20.3 -17 22 C-14.84 18.76 -14.54 16.79 -14 13 C-13.68 11.66 -13.36 10.33 -13 9 C-15.31 9.66 -17.62 10.32 -20 11 C-18.84 6.64 -16.62 3.98 -13.22 1.16 C-9.05 -1.02 -4.57 -0.45 0 0 Z " fill="#ECECEC" transform="translate(76,83)"/>
<path d="M0 0 C1.09 4.35 0.98 4.8 -0.91 8.55 C-1.35 9.42 -1.78 10.28 -2.22 11.17 C-2.69 12.06 -3.15 12.95 -3.62 13.88 C-4.06 14.76 -4.5 15.65 -4.96 16.56 C-7.5 21.57 -10.08 25.95 -14 30 C-14.66 30 -15.32 30 -16 30 C-16.33 29.34 -16.66 28.68 -17 28 C-17.35 28.85 -17.7 29.71 -18.06 30.59 C-18.51 31.69 -18.97 32.8 -19.44 33.94 C-19.89 35.04 -20.34 36.14 -20.81 37.28 C-22 40 -22 40 -23 41 C-24.42 41.09 -25.84 41.11 -27.25 41.1 C-28.11 41.09 -28.96 41.09 -29.84 41.09 C-30.74 41.08 -31.64 41.07 -32.56 41.06 C-33.46 41.06 -34.37 41.05 -35.29 41.05 C-37.53 41.04 -39.76 41.02 -42 41 C-39.12 35.12 -39.12 35.12 -38 34 C-35.33 33.86 -32.68 33.96 -30 34 C-29.8 33.41 -29.61 32.81 -29.41 32.2 C-26.76 24.86 -22.74 15.76 -15.75 11.69 C-15.17 11.46 -14.59 11.23 -14 11 C-13.67 11.66 -13.34 12.32 -13 13 C-8.71 8.71 -4.42 4.42 0 0 Z " fill="#E6E6E6" transform="translate(57,82)"/>
<path d="M0 0 C0.99 0.66 1.98 1.32 3 2 C3 5.46 2.45 7.49 0.15 10.11 C-1.3 11.52 -2.78 12.9 -4.29 14.27 C-6.23 15.83 -6.23 15.83 -6 18 C-1.54 18.99 -1.54 18.99 3 20 C1.53 24.65 -0.24 29.13 -2.1 33.63 C-6.95 46.35 -3.48 58.81 1 71 C3.05 68.33 4.86 65.61 6.62 62.75 C11.81 54.97 18.84 48.54 28 46 C30.82 45.67 33.15 45.75 36 46 C38.73 48.73 37.19 57.01 37.19 60.69 C37.2 61.97 37.21 63.25 37.22 64.57 C37.23 65.81 37.23 67.05 37.23 68.32 C37.23 69.46 37.24 70.59 37.24 71.76 C36.99 75.14 36.2 77.85 35 81 C33.56 78.13 34.45 76.13 35 73 C35.08 70.98 35.11 68.96 35.1 66.95 C35.09 65.84 35.09 64.73 35.09 63.59 C35.08 62.44 35.07 61.3 35.06 60.12 C35.06 58.96 35.05 57.79 35.05 56.59 C35.04 53.73 35.02 50.86 35 48 C25.05 48.73 18.57 51.92 11.69 59.31 C8.14 63.54 5.43 68.05 3 73 C1.13 72.81 1.13 72.81 -1 72 C-7.29 60.48 -8.3 47.57 -5 35.12 C-3.43 30.21 -1.3 25.61 1 21 C-1.97 20.67 -4.94 20.34 -8 20 C-8.33 18.68 -8.66 17.36 -9 16 C-7.16 13.78 -7.16 13.78 -4.62 11.5 C-0.5 7.97 -0.5 7.97 1 3 C0.67 2.01 0.34 1.02 0 0 Z " fill="#000000" transform="translate(13,108)"/>
<path d="M0 0 C0 0.33 0 0.66 0 1 C-0.65 1.04 -1.3 1.09 -1.97 1.14 C-4.92 1.35 -7.87 1.58 -10.81 1.81 C-11.84 1.88 -12.86 1.95 -13.92 2.03 C-15.39 2.15 -15.39 2.15 -16.89 2.27 C-17.8 2.34 -18.71 2.41 -19.64 2.48 C-22.38 3.09 -23.14 3.98 -25 6 C-26.11 6.31 -27.23 6.62 -28.38 6.94 C-32.13 8.04 -34.14 9.4 -37 12 C-36.21 5.48 -29 1.37 -24.18 -2.44 C-16.11 -8.18 -7.33 -5.83 0 0 Z " fill="#D6D6D6" transform="translate(74,126)"/>
<path d="M0 0 C-1.03 3.7 -1.98 5.38 -5.31 7.41 C-12.97 10.82 -26.61 16.13 -35 13 C-27.8 9.21 -20.47 5.79 -13 2.56 C-12.18 2.2 -11.35 1.83 -10.5 1.45 C-9.72 1.12 -8.93 0.79 -8.12 0.44 C-7.43 0.14 -6.73 -0.16 -6.01 -0.47 C-3.65 -1.09 -2.28 -0.77 0 0 Z " fill="#D8D8D8" transform="translate(75,134)"/>
<path d="M0 0 C0.66 0.99 1.32 1.98 2 3 C-3.72 6.03 -9.59 8.5 -15.63 10.81 C-19.33 12.24 -22.61 13.94 -26 16 C-26.66 16 -27.32 16 -28 16 C-27.63 12.68 -26.27 10.65 -23.86 8.37 C-16.97 3.3 -8.68 -0.75 0 0 Z " fill="#E3E3E3" transform="translate(64,130)"/>
<path d="M0 0 C11.79 -0.86 11.79 -0.86 15.75 2 C18.11 5.15 18.77 7.05 18.47 11 C17.71 14.25 16.14 16.48 14 19 C13.34 19 12.68 19 12 19 C11.99 18.41 11.97 17.82 11.96 17.21 C11.7 12.97 11.48 10.62 8.81 7.19 C5.95 4.96 3.04 2.98 0 1 C0 0.67 0 0.34 0 0 Z " fill="#E2E2E2" transform="translate(67,118)"/>
<path d="M0 0 C3.56 0.25 3.56 0.25 6.56 2.25 C5.97 2.4 5.37 2.54 4.76 2.7 C-3.71 4.99 -12.63 8.39 -18.44 15.25 C-18.59 15.96 -18.74 16.66 -18.9 17.39 C-19.17 18.31 -19.17 18.31 -19.44 19.25 C-21.5 20.3 -21.5 20.3 -24 21 C-25.24 21.36 -25.24 21.36 -26.5 21.73 C-27.14 21.9 -27.78 22.07 -28.44 22.25 C-22.53 13.06 -16.32 5.36 -5.44 2.25 C-3.44 0.25 -3.44 0.25 0 0 Z " fill="#2C2C2C" transform="translate(55.4375,127.75)"/>
<path d="M0 0 C-3.8 2.38 -7.89 2.66 -12.25 3.12 C-13.37 3.25 -13.37 3.25 -14.51 3.39 C-16.34 3.6 -18.17 3.8 -20 4 C-12.69 -1.99 -8.68 -4.11 0 0 Z " fill="#ADADAD" transform="translate(60,144)"/>
<path d="M0 0 C2.31 1.5 2.31 1.5 4 3 C-0.45 3.5 -0.45 3.5 -5 4 C-4.01 4.66 -3.02 5.32 -2 6 C-2.33 6.99 -2.66 7.98 -3 9 C-7.95 7.02 -7.95 7.02 -13 5 C-8.71 1.41 -5.71 -0.56 0 0 Z " fill="#1B1B1B" transform="translate(73,115)"/>
<path d="M0 0 C0.33 1.32 0.66 2.64 1 4 C0.44 4.23 -0.11 4.45 -0.68 4.68 C-3.68 6.39 -5.69 8.57 -8.06 11.06 C-12.67 15.89 -12.67 15.89 -16 17 C-18.19 16.06 -18.19 16.06 -20 15 C-18.71 13.62 -17.37 12.29 -16 11 C-15.34 11 -14.68 11 -14 11 C-13.67 11.66 -13.34 12.32 -13 13 C-8.71 8.71 -4.42 4.42 0 0 Z " fill="#D4D4D4" transform="translate(57,82)"/>
<path d="M0 0 C-2.11 2.34 -3.84 3.54 -6.79 4.61 C-7.51 4.87 -8.22 5.13 -8.95 5.4 C-9.69 5.66 -10.43 5.92 -11.19 6.19 C-11.94 6.46 -12.69 6.73 -13.46 7.01 C-15.3 7.68 -17.15 8.34 -19 9 C-19.33 8.01 -19.66 7.02 -20 6 C-17.05 4.8 -14.09 3.62 -11.12 2.44 C-10.28 2.1 -9.44 1.75 -8.57 1.4 C-7.77 1.08 -6.96 0.76 -6.13 0.43 C-5.39 0.14 -4.65 -0.16 -3.88 -0.47 C-2 -1 -2 -1 0 0 Z " fill="#212121" transform="translate(65,135)"/>
<path d="M0 0 C-0.47 4.26 -2.85 6.29 -6 9 C-8.31 9.81 -8.31 9.81 -10 10 C-9 8 -8 6 -7 4 C-6.01 4 -5.02 4 -4 4 C-4 3.01 -4 2.02 -4 1 C-2 0 -2 0 0 0 Z " fill="#D3D3D3" transform="translate(27,127)"/>
<path d="M0 0 C-0.19 2.81 -0.19 2.81 -1 6 C-3.41 7.85 -4.93 9 -8 9 C-7.54 4.85 -4.48 0 0 0 Z " fill="#BFBFBF" transform="translate(44,137)"/>
<path d="M0 0 C-2.06 2.06 -2.06 2.06 -5 4 C-8.81 3.75 -8.81 3.75 -12 3 C-7.75 -0.37 -5.34 -1.3 0 0 Z " fill="#A3A3A3" transform="translate(189,126)"/>
<path d="M0 0 C1.07 0.25 2.14 0.5 3.25 0.75 C3.25 1.08 3.25 1.41 3.25 1.75 C1.67 2.12 1.67 2.12 0.06 2.5 C-3.56 3.52 -5.95 5.2 -8.75 7.75 C-8.37 5.11 -7.67 3.64 -6.12 1.44 C-3.75 -0.25 -3.75 -0.25 0 0 Z " fill="#C6C6C6" transform="translate(45.75,130.25)"/>
<path d="M0 0 C0.33 1.32 0.66 2.64 1 4 C0.01 4.66 -0.98 5.32 -2 6 C-3.32 5.34 -4.64 4.68 -6 4 C-2.25 0 -2.25 0 0 0 Z " fill="#BCBCBC" transform="translate(43,93)"/>
<path d="M0 0 C0.33 0.99 0.66 1.98 1 3 C1.66 3.33 2.32 3.66 3 4 C2.01 5.48 2.01 5.48 1 7 C-0.32 7 -1.64 7 -3 7 C-1.12 1.12 -1.12 1.12 0 0 Z " fill="#494949" transform="translate(40,109)"/>
<path d="M0 0 C4.54 -0.38 5.01 0.01 9 3 C5.7 3 2.4 3 -1 3 C-0.67 2.01 -0.34 1.02 0 0 Z " fill="#3A3A3A" transform="translate(68,115)"/>
</svg>
