<?xml version="1.0" encoding="UTF-8"?>
<svg version="1.1" xmlns="http://www.w3.org/2000/svg" width="50" height="50">
<path d="M0 0 C0.50537897 2.79816443 0.6797004 4.28682091 0 7 C-2.46718491 10.36138826 -5.44994602 13.10807791 -8.5 15.9375 C-9.71623047 17.10635742 -9.71623047 17.10635742 -10.95703125 18.29882812 C-12.95649688 20.21596282 -14.97040405 22.11487623 -17 24 C-15.67879172 26.93230193 -14.25361803 28.98664899 -11.9609375 31.234375 C-11.09082031 32.09482422 -11.09082031 32.09482422 -10.203125 32.97265625 C-9.29820313 33.85244141 -9.29820313 33.85244141 -8.375 34.75 C-7.76398437 35.35199219 -7.15296875 35.95398437 -6.5234375 36.57421875 C-5.02011376 38.05405305 -3.51065144 39.52764676 -2 41 C0.96810069 39.67080708 3.00563789 38.22137857 5.25 35.875 C6.1575 34.92625 7.065 33.9775 8 33 C7.67 32.01 7.34 31.02 7 30 C4.69 31.98 2.38 33.96 0 36 C-3.66771845 34.16614077 -5.46834996 32.74937171 -8.25 29.875 C-8.95640625 29.15054687 -9.6628125 28.42609375 -10.390625 27.6796875 C-10.92171875 27.12539063 -11.4528125 26.57109375 -12 26 C-10.61314777 22.8804428 -8.99810509 20.74144201 -6.59375 18.328125 C-5.93246094 17.66425781 -5.27117188 17.00039063 -4.58984375 16.31640625 C-3.90019531 15.63449219 -3.21054687 14.95257813 -2.5 14.25 C-1.81035156 13.55261719 -1.12070312 12.85523438 -0.41015625 12.13671875 C0.25113281 11.47800781 0.91242187 10.81929687 1.59375 10.140625 C2.19896484 9.53766602 2.80417969 8.93470703 3.42773438 8.31347656 C5 7 5 7 7 7 C7.43266548 10.08274155 7.69835592 12.0241699 7 15 C5.14760323 17.11037897 3.2016523 18.69340367 0.9453125 20.359375 C-1.1187914 22.10018552 -1.97883735 23.52771148 -3 26 C0.24565858 26.34055197 0.24565858 26.34055197 2.6875 23.5 C3.450625 22.675 4.21375 21.85 5 21 C8.43595166 22.52708963 11.11912454 24.59927045 14 27 C14.24759378 23.17022073 14.24759378 23.17022073 13 20.5 C12 18 12 18 12 14 C15.45201639 15.47721422 17.64961936 17.43794001 20.25 20.125 C20.95640625 20.84945313 21.6628125 21.57390625 22.390625 22.3203125 C22.92171875 22.87460937 23.4528125 23.42890625 24 24 C22.52278578 27.45201639 20.56205999 29.64961936 17.875 32.25 C17.15054688 32.95640625 16.42609375 33.6628125 15.6796875 34.390625 C15.12539063 34.92171875 14.57109375 35.4528125 14 36 C13.01 35.505 13.01 35.505 12 35 C11.91492187 35.75023437 11.82984375 36.50046875 11.7421875 37.2734375 C10.84794559 40.55859988 9.75008412 41.51916329 7.125 43.625 C4.62686425 45.66222509 2.23833396 47.67720061 0 50 C-3.86328627 48.4152642 -6.28876923 45.94043113 -9.203125 42.9921875 C-9.6857782 42.50670441 -10.1684314 42.02122131 -10.66571045 41.52102661 C-12.19858562 39.97700134 -13.72434004 38.42615176 -15.25 36.875 C-16.29120361 35.82375991 -17.33286541 34.77297343 -18.375 33.72265625 C-20.92199464 31.15366996 -23.46265177 28.57851839 -26 26 C-24.41636918 22.16394511 -21.97385878 19.71554351 -19.0625 16.796875 C-18.58176025 16.3142218 -18.10102051 15.8315686 -17.60571289 15.33428955 C-16.59278907 14.32000936 -15.57735362 13.30823196 -14.55957031 12.29882812 C-12.99826835 10.74828028 -11.44797503 9.18729497 -9.8984375 7.625 C-8.91209939 6.63998266 -7.9251415 5.65558547 -6.9375 4.671875 C-5.58978516 3.32754395 -5.58978516 3.32754395 -4.21484375 1.95605469 C-2 -0 -2 -0 0 0 Z " fill="#F52434" transform="translate(26,0)"/>
</svg>
