<?xml version="1.0" encoding="UTF-8"?>
<!-- Generator: https://ezgif.com/webp-to-svg -->
<svg version="1.1" xmlns="http://www.w3.org/2000/svg" width="512" height="512" viewBox="-36.09 -36.08 672.19 672.19" preserveAspectRatio="xMidYMid meet">
<path d="M0 0 C0.19 10.05 0.33 20.1 0.41 30.15 C0.46 34.81 0.51 39.48 0.6 44.15 C0.69 48.65 0.74 53.16 0.76 57.67 C0.77 59.38 0.8 61.1 0.85 62.81 C0.9 65.23 0.91 67.63 0.91 70.05 C0.94 70.75 0.97 71.45 1 72.18 C0.95 75.18 0.58 77.39 -1.52 79.59 C-2.17 80.11 -2.82 80.64 -3.49 81.18 C-8.28 85.2 -12.67 89.54 -17.09 93.97 C-18.41 95.29 -18.41 95.29 -19.76 96.63 C-22.18 99.05 -24.6 101.48 -27.02 103.9 C-29.64 106.53 -32.26 109.15 -34.88 111.77 C-39.42 116.3 -43.95 120.84 -48.48 125.37 C-55.03 131.93 -61.58 138.49 -68.14 145.04 C-78.77 155.68 -89.4 166.32 -100.03 176.96 C-110.36 187.29 -120.68 197.62 -131.01 207.95 C-131.65 208.59 -132.28 209.23 -132.94 209.89 C-136.14 213.08 -139.33 216.28 -142.53 219.48 C-169.02 245.98 -195.51 272.49 -222 299 C-220.58 302.24 -218.85 304.4 -216.35 306.9 C-215.59 307.66 -214.82 308.43 -214.04 309.22 C-213.19 310.06 -212.35 310.9 -211.48 311.76 C-210.15 313.1 -210.15 313.1 -208.78 314.47 C-206.3 316.95 -203.82 319.42 -201.34 321.89 C-198.66 324.56 -195.99 327.24 -193.32 329.91 C-188.69 334.54 -184.05 339.17 -179.42 343.8 C-172.71 350.48 -166.01 357.18 -159.32 363.87 C-148.45 374.73 -137.58 385.59 -126.71 396.44 C-116.15 406.99 -105.59 417.53 -95.03 428.08 C-94.05 429.06 -94.05 429.06 -93.06 430.05 C-89.79 433.31 -86.53 436.57 -83.27 439.83 C-56.18 466.9 -29.09 493.95 -2 521 C2.42 517.29 6.67 513.48 10.74 509.38 C11.27 508.85 11.8 508.32 12.35 507.77 C14.12 506.01 15.88 504.24 17.64 502.48 C18.91 501.21 20.18 499.93 21.45 498.66 C24.89 495.22 28.32 491.78 31.76 488.34 C35.35 484.74 38.95 481.14 42.55 477.54 C49.35 470.74 56.16 463.93 62.96 457.11 C70.71 449.36 78.45 441.6 86.2 433.85 C102.14 417.9 118.07 401.95 134 386 C132.34 382.47 130.42 380.18 127.64 377.42 C126.29 376.06 126.29 376.06 124.91 374.69 C123.93 373.71 122.94 372.74 121.96 371.77 C120.95 370.76 119.95 369.76 118.94 368.76 C116.3 366.12 113.65 363.49 111 360.87 C108.3 358.18 105.6 355.49 102.9 352.8 C97.6 347.53 92.3 342.26 87 337 C81.65 341.46 76.71 346.17 71.83 351.13 C71.05 351.93 70.26 352.72 69.46 353.53 C67.76 355.24 66.07 356.95 64.38 358.67 C60.79 362.3 57.19 365.92 53.59 369.55 C46.89 376.29 40.2 383.04 33.52 389.8 C28.87 394.51 24.21 399.21 19.53 403.9 C17.75 405.69 15.98 407.49 14.21 409.29 C11.74 411.79 9.26 414.29 6.78 416.77 C6.05 417.52 5.31 418.28 4.56 419.05 C3.88 419.72 3.21 420.39 2.51 421.09 C1.92 421.68 1.34 422.27 0.74 422.87 C-1 424 -1 424 -2.9 423.98 C-5.9 422.58 -7.78 420.59 -10.11 418.25 C-10.61 417.75 -11.12 417.25 -11.63 416.74 C-13.31 415.06 -14.98 413.37 -16.65 411.69 C-17.86 410.48 -19.06 409.28 -20.26 408.08 C-23.53 404.82 -26.79 401.54 -30.04 398.26 C-33.44 394.84 -36.86 391.43 -40.27 388.01 C-46.73 381.55 -53.18 375.07 -59.62 368.59 C-66.97 361.22 -74.32 353.85 -81.67 346.49 C-96.79 331.33 -111.9 316.17 -127 301 C-125.6 297.85 -123.97 295.73 -121.54 293.3 C-120.82 292.58 -120.1 291.85 -119.36 291.11 C-118.57 290.32 -117.77 289.53 -116.95 288.72 C-116.11 287.88 -115.27 287.03 -114.4 286.17 C-112.07 283.83 -109.72 281.5 -107.38 279.16 C-104.86 276.65 -102.34 274.13 -99.81 271.61 C-95.45 267.24 -91.07 262.88 -86.7 258.52 C-80.37 252.21 -74.05 245.9 -67.73 239.58 C-57.47 229.34 -47.21 219.09 -36.95 208.85 C-36.33 208.24 -35.72 207.62 -35.08 206.99 C-34.47 206.38 -33.85 205.77 -33.22 205.13 C-24.5 196.43 -15.77 187.72 -7.05 179.02 C-6.13 178.1 -6.13 178.1 -5.19 177.16 C5.03 166.96 15.25 156.75 25.47 146.54 C31.78 140.24 38.09 133.94 44.4 127.65 C48.72 123.34 53.04 119.03 57.36 114.71 C59.86 112.22 62.35 109.73 64.85 107.24 C67.55 104.55 70.25 101.85 72.95 99.15 C74.14 97.97 74.14 97.97 75.36 96.76 C76.08 96.04 76.8 95.32 77.54 94.58 C78.17 93.95 78.79 93.33 79.43 92.69 C81.2 90.88 81.2 90.88 83 88 C83.66 88 84.32 88 85 88 C90.1 116.99 95.73 153.5 77.97 179.05 C63.39 198.75 44.46 215.29 26.21 231.48 C18.07 238.72 10.17 246.2 2.27 253.71 C-13.91 269.07 -30.35 284.14 -47 299 C-45.41 302.36 -43.66 304.58 -41.01 307.22 C-40.19 308.04 -39.37 308.86 -38.52 309.7 C-37.64 310.58 -36.75 311.46 -35.84 312.36 C-34.93 313.26 -34.02 314.17 -33.09 315.1 C-30.68 317.5 -28.27 319.89 -25.86 322.28 C-23.39 324.72 -20.94 327.17 -18.48 329.62 C-13.66 334.42 -8.83 339.21 -4 344 C-0.85 342.6 1.28 340.97 3.71 338.53 C4.43 337.81 5.15 337.1 5.89 336.36 C6.67 335.57 7.45 334.78 8.26 333.97 C9.5 332.73 9.5 332.73 10.77 331.46 C13.51 328.71 16.25 325.96 18.98 323.21 C20.88 321.31 22.78 319.4 24.68 317.5 C29.18 313.01 33.66 308.5 38.15 304 C43.25 298.87 48.36 293.75 53.48 288.62 C63.99 278.09 74.5 267.55 85 257 C88.15 258.4 90.28 260.03 92.71 262.47 C93.79 263.54 93.79 263.54 94.89 264.64 C95.67 265.43 96.45 266.22 97.26 267.03 C98.09 267.86 98.92 268.69 99.77 269.54 C102.51 272.29 105.25 275.04 107.98 277.79 C109.88 279.69 111.78 281.6 113.68 283.5 C118.18 287.99 122.66 292.5 127.15 297 C132.25 302.13 137.36 307.25 142.48 312.38 C152.99 322.91 163.5 333.45 174 344 C177.36 342.41 179.58 340.66 182.22 338.01 C183.04 337.19 183.86 336.37 184.7 335.52 C185.58 334.64 186.46 333.75 187.36 332.84 C188.26 331.93 189.17 331.02 190.1 330.09 C192.5 327.68 194.89 325.27 197.28 322.86 C199.72 320.39 202.17 317.94 204.62 315.48 C209.42 310.66 214.21 305.83 219 301 C217.45 297.31 215.21 294.98 212.38 292.17 C211.92 291.71 211.45 291.24 210.97 290.76 C209.43 289.23 207.88 287.7 206.34 286.18 C205.27 285.11 204.2 284.05 203.13 282.98 C200.31 280.18 197.49 277.39 194.67 274.59 C190.15 270.11 185.63 265.63 181.12 261.14 C179.54 259.57 177.96 258.01 176.38 256.44 C175.42 255.48 174.45 254.53 173.49 253.57 C172.64 252.73 171.8 251.9 170.93 251.04 C167.51 247.43 167.86 244.34 167.89 239.61 C167.89 238.85 167.89 238.09 167.89 237.31 C167.89 234.79 167.89 232.26 167.9 229.74 C167.9 228 167.91 226.25 167.91 224.5 C167.91 219.9 167.92 215.3 167.93 210.7 C167.94 206.01 167.95 201.32 167.95 196.63 C167.96 187.42 167.98 178.21 168 169 C171.88 170.6 174.35 173.09 177.31 176.03 C177.83 176.55 178.35 177.06 178.89 177.59 C180.64 179.33 182.39 181.07 184.13 182.81 C185.38 184.05 186.63 185.29 187.89 186.54 C191.29 189.91 194.69 193.3 198.08 196.68 C200.2 198.8 202.32 200.91 204.45 203.02 C211.08 209.63 217.71 216.24 224.33 222.85 C231.99 230.5 239.65 238.13 247.33 245.75 C253.26 251.64 259.18 257.54 265.09 263.44 C268.62 266.97 272.16 270.5 275.71 274.01 C279.04 277.31 282.36 280.63 285.67 283.96 C286.89 285.18 288.12 286.39 289.35 287.6 C291.02 289.25 292.67 290.92 294.33 292.59 C295.26 293.52 296.19 294.45 297.15 295.41 C299 298 299 298 299.09 300.51 C297.67 303.76 295.82 305.69 293.31 308.2 C292.82 308.7 292.33 309.2 291.82 309.71 C290.17 311.38 288.51 313.04 286.84 314.69 C285.66 315.88 284.47 317.08 283.29 318.27 C280.07 321.52 276.83 324.75 273.6 327.97 C270.9 330.67 268.21 333.37 265.52 336.06 C259.17 342.43 252.81 348.78 246.45 355.13 C239.87 361.68 233.32 368.26 226.77 374.84 C221.15 380.48 215.52 386.12 209.89 391.74 C206.52 395.11 203.16 398.47 199.8 401.85 C196.65 405.02 193.48 408.18 190.31 411.33 C189.14 412.49 187.98 413.65 186.83 414.82 C185.25 416.41 183.66 417.99 182.07 419.56 C181.18 420.45 180.29 421.33 179.38 422.25 C177 424 177 424 174.79 423.87 C172.57 422.79 171.16 421.52 169.42 419.77 C168.73 419.08 168.05 418.39 167.33 417.67 C166.26 416.58 166.26 416.58 165.17 415.46 C164.51 414.8 163.84 414.13 163.16 413.44 C161.21 411.49 159.28 409.52 157.34 407.55 C153.83 403.99 150.31 400.43 146.79 396.87 C145.3 395.37 143.82 393.87 142.33 392.37 C141.69 391.72 141.05 391.07 140.39 390.4 C139.93 389.94 139.47 389.48 139 389 C139.21 390.15 139.21 390.15 139.42 391.32 C143.9 417.36 147.91 449.61 132.36 472.66 C117.07 494.04 96.6 511.88 77.19 529.4 C68.81 537 60.66 544.83 52.51 552.67 C40.51 564.21 28.43 575.68 16.12 586.89 C14.81 588.09 13.49 589.3 12.18 590.51 C10.4 592.16 8.6 593.79 6.8 595.42 C6.28 595.9 5.76 596.39 5.23 596.89 C1.67 600.03 1.67 600.03 -1.34 599.91 C-4.86 598.71 -6.63 596.88 -9.26 594.25 C-9.76 593.75 -10.27 593.25 -10.79 592.73 C-12.5 591.04 -14.19 589.34 -15.88 587.64 C-17.11 586.41 -18.34 585.19 -19.57 583.97 C-22.96 580.61 -26.33 577.23 -29.7 573.85 C-33.34 570.21 -36.99 566.58 -40.63 562.95 C-47.77 555.83 -54.91 548.7 -62.03 541.57 C-67.82 535.78 -73.62 529.99 -79.41 524.2 C-80.24 523.38 -81.06 522.56 -81.91 521.71 C-83.58 520.04 -85.26 518.37 -86.93 516.7 C-102.63 501.01 -118.32 485.32 -134.01 469.62 C-148.37 455.25 -162.75 440.89 -177.14 426.54 C-191.91 411.81 -206.66 397.08 -221.39 382.33 C-229.67 374.05 -237.96 365.77 -246.26 357.5 C-253.32 350.46 -260.37 343.42 -267.4 336.36 C-271 332.75 -274.59 329.15 -278.21 325.56 C-281.51 322.28 -284.8 318.99 -288.07 315.68 C-289.26 314.49 -290.46 313.3 -291.66 312.11 C-293.29 310.5 -294.9 308.88 -296.5 307.25 C-297.4 306.35 -298.3 305.45 -299.23 304.52 C-301 302 -301 302 -301.08 299.5 C-299.66 296.21 -297.78 294.28 -295.25 291.75 C-294.75 291.24 -294.24 290.73 -293.73 290.21 C-292.04 288.5 -290.33 286.81 -288.62 285.12 C-287.4 283.89 -286.18 282.67 -284.95 281.44 C-281.58 278.05 -278.2 274.68 -274.82 271.31 C-271.17 267.68 -267.54 264.03 -263.91 260.39 C-256.78 253.25 -249.65 246.12 -242.51 239 C-234.2 230.71 -225.91 222.41 -217.61 214.11 C-202.82 199.31 -188.01 184.52 -173.2 169.73 C-158.81 155.37 -144.43 141 -130.06 126.62 C-114.43 110.97 -98.79 95.33 -83.14 79.7 C-81.48 78.03 -79.81 76.37 -78.14 74.7 C-77.32 73.88 -76.5 73.06 -75.66 72.22 C-69.87 66.43 -64.08 60.64 -58.29 54.85 C-51.24 47.8 -44.19 40.75 -37.13 33.71 C-33.52 30.11 -29.92 26.52 -26.32 22.91 C-23.04 19.62 -19.74 16.33 -16.44 13.05 C-15.25 11.86 -14.05 10.66 -12.86 9.46 C-11.25 7.84 -9.63 6.23 -8 4.62 C-7.1 3.72 -6.2 2.83 -5.28 1.9 C-3 0 -3 0 0 0 Z " fill="#F42434" transform="translate(301,0)"/>
</svg>
