<?xml version="1.0" encoding="UTF-8"?>
<!-- Generator: https://ezgif.com/webp-to-svg -->
<svg version="1.1" xmlns="http://www.w3.org/2000/svg" width="512" height="512" viewBox="-8.7 -7.7 218.4 218.4" preserveAspectRatio="xMidYMid meet">
<path d="M0 0 C16.91 0.36 30.95 2.59 46 11 C46 10.01 46 9.02 46 8 C50.01 9.39 52.9 11.27 56.19 13.94 C57.48 14.97 57.48 14.97 58.79 16.03 C61 18 61 18 63 21 C63.99 20.67 64.98 20.34 66 20 C71.44 27.71 73.45 32.8 72.86 42.22 C72.75 44.98 72.75 44.98 74.24 46.72 C75.78 47.87 77.39 48.94 79 50 C79.21 50.92 79.42 51.83 79.64 52.77 C81.7 57.65 85.44 59.18 89.94 61.69 C91.57 62.63 93.21 63.57 94.84 64.51 C95.57 64.92 96.29 65.33 97.04 65.74 C99.03 67.02 100.53 68.15 102 70 C101.78 73.18 101.78 73.18 100.94 76.88 C100.55 78.7 100.55 78.7 100.15 80.55 C98.76 84.71 97.02 87.99 93 90 C92.57 91.22 92.13 92.43 91.69 93.69 C89.24 100.47 85.39 104.22 78.96 107.24 C77 108 77 108 74.88 108.32 C72.81 108.84 72.81 108.84 71.84 110.97 C71.54 111.8 71.24 112.64 70.94 113.5 C70.44 114.85 70.44 114.85 69.94 116.22 C68.82 119.53 67.73 122.84 66.71 126.19 C66 128 66 128 64 130 C63.76 131.9 63.76 131.9 63.75 134.06 C63.25 139.68 60.75 143.85 57 148 C54.8 149.33 53.57 150 51 150 C49.78 151.02 48.6 152.09 47.45 153.19 C43.24 156.95 38.9 159.49 33.88 162 C33.05 162.42 32.22 162.85 31.37 163.28 C27.57 165.23 23.74 167.13 19.9 169.02 C19.28 169.32 18.66 169.63 18.03 169.94 C16.32 170.78 14.61 171.62 12.9 172.46 C10.35 173.82 8.11 175.25 5.81 177 C4.88 177.66 3.96 178.32 3 179 C0 178 0 178 -1.11 176.1 C-1.51 175.28 -1.9 174.47 -2.31 173.62 C-8.46 163.02 -20.22 156.56 -30.49 150.44 C-34.67 147.93 -38.33 145.21 -42 142 C-41.57 142.83 -41.57 142.83 -41.12 143.68 C-40.75 144.4 -40.38 145.13 -40 145.88 C-39.63 146.59 -39.26 147.31 -38.88 148.05 C-38 150 -38 150 -38 152 C-50.24 147.88 -58.69 134.96 -64.56 124.11 C-69.4 114.03 -71.44 104.12 -72 93 C-72.76 93.22 -73.52 93.43 -74.3 93.66 C-75.29 93.93 -76.29 94.21 -77.31 94.5 C-78.3 94.78 -79.28 95.06 -80.3 95.34 C-83 96 -83 96 -86 96 C-84.33 91.35 -81.95 87.21 -79.5 82.94 C-78.7 81.53 -77.89 80.12 -77.09 78.71 C-76.74 78.1 -76.39 77.48 -76.02 76.84 C-74.96 74.92 -73.97 72.97 -73 71 C-73.69 70.96 -74.38 70.93 -75.09 70.89 C-81.49 70.44 -87.03 69.34 -93 67 C-93 66.34 -93 65.68 -93 65 C-91.62 64.36 -91.62 64.36 -90.22 63.71 C-82.86 60.23 -76.88 56.76 -71 51 C-74.96 49.02 -78.92 47.04 -83 45 C-83 44.34 -83 43.68 -83 43 C-82.02 42.68 -81.04 42.37 -80.03 42.04 C-70.22 38.71 -62.23 34.27 -53.81 28.28 C-44.87 21.94 -36.2 16.88 -25.89 13.09 C-23.14 12.28 -23.14 12.28 -22 11 C-23.32 10.34 -24.64 9.68 -26 9 C-26 8.34 -26 7.68 -26 7 C-17.38 4.88 -8.79 3.22 0 2 C0 1.34 0 0.68 0 0 Z " fill="#060103" transform="translate(96,12)"/>
<path d="M0 0 C6.86 1.09 12.77 2.9 19 6 C19 5.34 19 4.68 19 4 C24.09 5.59 27.87 8.74 32 12 C31.01 10.02 31.01 10.02 30 8 C35.64 8.87 40.41 12.72 44 17 C44 17.99 44 18.98 44 20 C43.34 20.33 42.68 20.66 42 21 C42.79 21.38 43.57 21.75 44.38 22.14 C50.34 25.04 55.69 28.05 61 32 C62.49 32.5 62.49 32.5 64 33 C64 33.66 64 34.32 64 35 C57.62 38.19 48.54 35.72 42 34 C42.99 35.65 43.98 37.3 45 39 C45.6 38.77 46.2 38.55 46.81 38.31 C49 38 49 38 50.81 39.12 C52 41 52 41 52 43.56 C51 46 51 46 48.92 47.13 C45.36 48.19 42 48.38 38.31 48.38 C37.61 48.37 36.9 48.37 36.18 48.37 C30.3 48.25 25.07 47.15 20 44 C19.67 43.34 19.34 42.68 19 42 C21.97 41.5 21.97 41.5 25 41 C19.72 40.67 14.44 40.34 9 40 C9 39.34 9 38.68 9 38 C11.97 37.34 14.94 36.68 18 36 C18 35.01 18 34.02 18 33 C20.97 32.01 23.94 31.02 27 30 C22.52 29.62 19.87 29.9 15.88 32 C10.09 34.78 4.29 34.86 -2 34 C-4.56 32.93 -5.93 31.89 -8 30 C-5.45 33.52 -5.45 33.52 -2 36 C-2 36.66 -2 37.32 -2 38 C-7.75 38.12 -7.75 38.12 -10 37 C-9.67 39.97 -9.34 42.94 -9 46 C-14.21 43.4 -16.39 40.12 -19 35 C-19.76 30.5 -19.41 28.73 -17.19 24.75 C-15.54 22.68 -13.97 20.77 -12 19 C-19.37 15.31 -32 18.27 -40 19 C-39 17 -39 17 -35.28 15.75 C-33.69 15.3 -32.1 14.87 -30.5 14.44 C-29.72 14.22 -28.94 14 -28.14 13.77 C-22.76 12.29 -17.56 11.49 -12 11 C-12.99 10.01 -13.98 9.02 -15 8 C-12.41 7.14 -10.66 6.82 -7.99 6.68 C-6.85 6.62 -6.85 6.62 -5.69 6.56 C-4.91 6.52 -4.12 6.48 -3.31 6.44 C-2.52 6.39 -1.72 6.35 -0.9 6.31 C1.07 6.2 3.03 6.1 5 6 C4.18 5.38 3.35 4.76 2.5 4.12 C1.68 3.42 0.85 2.72 0 2 C0 1.34 0 0.68 0 0 Z " fill="#F30300" transform="translate(128,48)"/>
<path d="M0 0 C16.91 0.36 30.95 2.59 46 11 C46 10.01 46 9.02 46 8 C50.01 9.39 52.9 11.27 56.19 13.94 C57.48 14.97 57.48 14.97 58.79 16.03 C61 18 61 18 63 21 C63.99 20.67 64.98 20.34 66 20 C71.44 27.71 73.45 32.8 72.86 42.22 C72.75 44.98 72.75 44.98 74.24 46.72 C75.78 47.87 77.39 48.94 79 50 C79.21 50.92 79.42 51.83 79.64 52.77 C81.7 57.65 85.44 59.18 89.94 61.69 C91.57 62.63 93.21 63.57 94.84 64.51 C95.57 64.92 96.29 65.33 97.04 65.74 C99.03 67.02 100.53 68.15 102 70 C101.78 73.18 101.78 73.18 100.94 76.88 C100.55 78.7 100.55 78.7 100.15 80.55 C98.76 84.71 97.02 87.99 93 90 C92.57 91.22 92.13 92.43 91.69 93.69 C90.14 98.02 88.26 100.74 85 104 C82.69 104.88 82.69 104.88 81 105 C81 104.01 81 103.02 81 102 C80.01 102.5 80.01 102.5 79 103 C79.33 99.7 79.66 96.4 80 93 C76.71 92.2 75.29 91.9 72 93 C72 92.01 72 91.02 72 90 C71.3 90.72 70.6 91.44 69.88 92.19 C67.07 95 64.08 97.5 61 100 C60.67 99.34 60.34 98.68 60 98 C60.33 97.34 60.66 96.68 61 96 C61.23 93.96 61.41 91.92 61.56 89.88 C61.65 88.78 61.73 87.68 61.82 86.55 C61.88 85.71 61.94 84.87 62 84 C63.1 83.95 64.19 83.9 65.32 83.85 C66.78 83.78 68.23 83.7 69.69 83.62 C70.41 83.59 71.13 83.56 71.87 83.53 C75.97 83.31 79.24 82.82 83 81 C82.81 78.56 82.81 78.56 82 76 C80.03 74.64 80.03 74.64 78 74 C77.67 74.66 77.34 75.32 77 76 C74 72.25 74 72.25 74 70 C80.75 69.88 80.75 69.88 83 71 C85.21 71.07 87.42 71.08 89.62 71.06 C91.41 71.05 91.41 71.05 93.23 71.04 C94.14 71.02 95.06 71.01 96 71 C96 70.34 96 69.68 96 69 C95.47 68.91 94.94 68.83 94.39 68.74 C91.12 67.73 88.57 65.98 85.69 64.12 C81.21 61.26 76.91 58.98 72 57 C73.32 56.67 74.64 56.34 76 56 C73.88 51.99 71.61 49.71 68 47 C66.98 46.02 65.97 45.03 65 44 C65.66 44 66.32 44 67 44 C67.03 41.92 67.05 39.83 67.06 37.75 C67.08 36.01 67.08 36.01 67.1 34.23 C67.02 31.59 66.79 29.5 66 27 C65.34 27 64.68 27 64 27 C64 28.32 64 29.64 64 31 C63.34 31 62.68 31 62 31 C61.65 30.03 61.3 29.06 60.94 28.06 C58.79 23 55.03 16.51 50 14 C50.52 15.11 51.03 16.23 51.56 17.38 C52.04 18.57 52.51 19.77 53 21 C52.67 21.66 52.34 22.32 52 23 C51.47 22.48 50.93 21.96 50.38 21.43 C40.41 12.09 27.71 6.25 14 5 C15.65 5.99 17.3 6.98 19 8 C16.64 8.79 15.2 9.04 12.74 8.53 C9.7 7.94 6.92 7.89 3.82 7.9 C2.09 7.91 2.09 7.91 0.32 7.91 C-0.88 7.92 -2.08 7.93 -3.31 7.94 C-5.14 7.94 -5.14 7.94 -7 7.95 C-10 7.96 -13 7.98 -16 8 C-16 8.66 -16 9.32 -16 10 C-14.95 10.12 -13.9 10.25 -12.81 10.38 C-9.54 10.91 -6.99 11.64 -4 13 C-4 13.33 -4 13.66 -4 14 C-4.98 14.07 -5.96 14.15 -6.97 14.23 C-25.81 15.94 -39.26 24.13 -54.44 34.81 C-65.26 42.41 -65.26 42.41 -73 42 C-75.34 42.3 -77.67 42.62 -80 43 C-77.4 41.27 -75.63 40.48 -72.75 39.5 C-64.49 36.27 -57.45 30.77 -50.2 25.76 C-42.41 20.41 -34.77 16.36 -25.89 13.09 C-23.14 12.28 -23.14 12.28 -22 11 C-23.32 10.34 -24.64 9.68 -26 9 C-26 8.34 -26 7.68 -26 7 C-17.38 4.88 -8.79 3.22 0 2 C0 1.34 0 0.68 0 0 Z " fill="#120B0D" transform="translate(96,12)"/>
<path d="M0 0 C13.73 1.48 25.54 5.86 36 15 C36.99 15.66 37.98 16.32 39 17 C38.01 13.54 38.01 13.54 37 10 C40.67 11.22 41.71 12.7 44.12 15.69 C45.18 16.96 45.18 16.96 46.26 18.26 C48.16 21.26 48.66 23.5 49 27 C49.66 27 50.32 27 51 27 C51 25.68 51 24.36 51 23 C51.66 23 52.32 23 53 23 C54.98 26.31 55.24 28.8 55.19 32.62 C55.18 34.07 55.18 34.07 55.17 35.54 C55 38 55 38 54 40 C53.34 40 52.68 40 52 40 C51.67 37.36 51.34 34.72 51 32 C50.34 32.99 49.68 33.98 49 35 C48.34 35 47.68 35 47 35 C45.96 33.53 45.96 33.53 44.81 31.5 C38.04 20.34 28.83 12.25 16 9 C17.32 10.32 18.64 11.64 20 13 C19.67 13.66 19.34 14.32 19 15 C18.23 14.66 17.45 14.32 16.66 13.98 C7.9 10.23 0.59 7.66 -9 8 C-5.37 9.98 -1.74 11.96 2 14 C-2 15 -3.17 14.85 -7 14 C-25.03 12.33 -39.71 19.21 -55 28 C-53.9 27.58 -53.9 27.58 -52.77 27.16 C-51.79 26.8 -50.82 26.44 -49.81 26.06 C-48.85 25.7 -47.89 25.34 -46.89 24.97 C-41.87 23.28 -37.49 22.88 -32.19 22.94 C-31.03 22.95 -29.86 22.96 -28.67 22.96 C-27.79 22.98 -26.91 22.99 -26 23 C-26.33 23.66 -26.66 24.32 -27 25 C-28.84 25.58 -30.7 26.09 -32.56 26.56 C-45.25 30.31 -55.99 37.49 -66 46 C-84.78 61.43 -84.78 61.43 -97 62 C-95.67 59.34 -94.47 59.26 -91.75 58.12 C-84.86 54.82 -79.87 49.64 -74.45 44.38 C-71.74 41.79 -68.87 39.4 -66 37 C-66.76 37.29 -67.52 37.58 -68.31 37.88 C-74.85 40.23 -80.05 41.46 -87 41 C-84.82 38.82 -83.57 38.41 -80.69 37.44 C-74.37 34.99 -69.18 31.13 -63.71 27.22 C-49.71 17.25 -36.42 10.56 -19 9 C-22.3 8.01 -25.6 7.02 -29 6 C-29 5.34 -29 4.68 -29 4 C-25.68 3.26 -22.6 2.87 -19.2 2.87 C-18.3 2.87 -17.41 2.86 -16.49 2.86 C-15.1 2.87 -15.1 2.87 -13.69 2.88 C-12.78 2.87 -11.86 2.87 -10.92 2.86 C-5.52 2.87 -0.34 3.21 5 4 C4.17 3.53 3.35 3.05 2.5 2.56 C1.67 2.05 0.85 1.53 0 1 C0 0.67 0 0.34 0 0 Z " fill="#E50100" transform="translate(109,16)"/>
<path d="M0 0 C0 0.66 0 1.32 0 2 C-0.71 2.34 -1.42 2.68 -2.15 3.02 C-3.07 3.47 -3.99 3.92 -4.94 4.38 C-6.31 5.04 -6.31 5.04 -7.71 5.71 C-10.13 6.79 -10.13 6.79 -11 9 C-10.43 8.71 -9.86 8.42 -9.27 8.12 C-2.07 4.83 4.15 4.56 12 5 C9.87 6.63 7.73 8.18 5.48 9.66 C-4.88 16.64 -11.09 25.16 -15 37 C-14.45 36.36 -13.91 35.72 -13.35 35.06 C-8.4 29.39 -3.38 24.08 3 20 C3.66 20 4.32 20 5 20 C5 20.66 5 21.32 5 22 C4.34 22 3.68 22 3 22 C1.45 25.06 -0.04 28.14 -1.5 31.25 C-1.92 32.14 -2.35 33.03 -2.78 33.95 C-5.67 41.18 -6.33 47.61 -6.25 55.31 C-6.24 56.7 -6.24 56.7 -6.24 58.11 C-6.16 64.56 -5.64 70.74 -4 77 C-9.99 71.87 -13.9 64.85 -15 57 C-15.07 54.9 -15.09 52.79 -15.06 50.69 C-15.05 49.62 -15.04 48.55 -15.04 47.45 C-15.02 46.64 -15.01 45.83 -15 45 C-21.17 51.17 -22.15 58.64 -23 67 C-23.66 67 -24.32 67 -25 67 C-28.57 56.31 -28.91 42.77 -24.33 32.36 C-20.35 25.3 -15.3 20.01 -9 15 C-20.78 20.66 -28.61 28.67 -35 40 C-37.02 34.45 -34.16 29.17 -32 24 C-25.97 12.59 -13.83 0 0 0 Z " fill="#ED0200" transform="translate(94,68)"/>
<path d="M0 0 C0 0.66 0 1.32 0 2 C-0.74 2.15 -1.48 2.29 -2.24 2.45 C-18.82 6.11 -30.23 15.32 -40 29 C-39.67 28.67 -39.34 28.34 -39 28 C-29.12 20.97 -19.01 15.07 -8 10 C-7.11 9.58 -6.21 9.15 -5.29 8.72 C-2.73 7.92 -1.48 8.08 1 9 C0.32 9.34 -0.36 9.68 -1.05 10.03 C-22.43 21.17 -37.3 38.92 -45.25 61.56 C-46.22 66.02 -46.65 70.46 -47 75 C-47.66 75 -48.32 75 -49 75 C-49.8 59.29 -47.46 47.61 -39 34 C-47.39 40.26 -55.72 46.6 -64 53 C-64 49.63 -63.48 48.85 -61.66 46.12 C-61.16 45.37 -60.66 44.62 -60.14 43.84 C-59.6 43.05 -59.06 42.26 -58.5 41.44 C-57.95 40.62 -57.4 39.81 -56.83 38.97 C-44.95 21.56 -31.21 5.29 -9.81 0.25 C-6.53 -0.04 -3.29 -0.07 0 0 Z " fill="#E90100" transform="translate(82,50)"/>
<path d="M0 0 C0.66 0.33 1.32 0.66 2 1 C0.68 2.65 -0.64 4.3 -2 6 C-0.91 5.48 0.19 4.97 1.31 4.44 C5 3 5 3 8 4 C7.42 4.4 6.84 4.8 6.24 5.21 C-1.36 10.75 -6.51 16.8 -9 26 C-9.31 29.42 -9.31 29.42 -9.25 32.94 C-9.26 34.1 -9.26 35.27 -9.27 36.46 C-8.98 40.29 -8.17 43.36 -7 47 C-5.83 47.04 -4.66 47.07 -3.46 47.11 C-1.91 47.18 -0.36 47.25 1.19 47.31 C1.96 47.34 2.73 47.36 3.52 47.38 C8.53 47.62 12.28 48.28 16 52 C16.04 54 16.04 56 16 58 C14.68 57.34 13.36 56.68 12 56 C11.62 56.92 11.62 56.92 11.24 57.86 C9.79 60.37 8.72 60.99 6.12 62.19 C5.11 62.67 5.11 62.67 4.07 63.17 C2.06 63.98 0.11 64.53 -2 65 C-2 63 -2 63 0 60.88 C0.99 59.95 0.99 59.95 2 59 C1.16 59.44 1.16 59.44 0.3 59.9 C-2.02 61.01 -4.31 61.83 -6.75 62.62 C-7.55 62.89 -8.35 63.15 -9.17 63.41 C-9.78 63.61 -10.38 63.8 -11 64 C-11 63.34 -11 62.68 -11 62 C-9.04 60.61 -7.04 59.27 -5 58 C-5.63 57.95 -6.25 57.9 -6.9 57.85 C-7.72 57.78 -8.53 57.7 -9.38 57.62 C-10.19 57.56 -11 57.49 -11.84 57.41 C-14 57 -14 57 -16 55 C-15.01 54.5 -15.01 54.5 -14 54 C-14.63 53.72 -15.25 53.45 -15.9 53.16 C-16.72 52.8 -17.53 52.44 -18.38 52.06 C-19.19 51.7 -20 51.34 -20.84 50.97 C-22.24 50.34 -23.63 49.69 -25 49 C-25 48.34 -25 47.68 -25 47 C-23.02 46.5 -23.02 46.5 -21 46 C-21 45.34 -21 44.68 -21 44 C-19.1 41.91 -17.54 40.27 -15 39 C-15.47 38.26 -15.95 37.51 -16.44 36.75 C-18.71 32.74 -19.15 29.45 -19.19 24.88 C-19.2 24.01 -19.22 23.14 -19.23 22.24 C-19 20 -19 20 -17 18 C-16.34 20.64 -15.68 23.28 -15 26 C-14.84 25.31 -14.68 24.62 -14.52 23.91 C-11.99 13.7 -8.59 6.32 0 0 Z " fill="#E50400" transform="translate(138,92)"/>
<path d="M0 0 C6.86 1.09 12.77 2.9 19 6 C19 5.34 19 4.68 19 4 C24.09 5.59 27.87 8.74 32 12 C31.34 10.68 30.68 9.36 30 8 C33.36 8.6 35.38 9.85 38 12 C37.01 12.33 36.02 12.66 35 13 C32.7 15.3 32.68 16.01 32.38 19.12 C32.19 21.04 32.19 21.04 32 23 C34.47 23.99 34.47 23.99 37 25 C34.46 26.27 33.68 25.71 31 25 C27.42 25.04 23.86 25.12 20.29 25.3 C16.21 25.4 14.48 25.32 10.96 22.99 C10.32 22.33 9.67 21.68 9 21 C9.66 21 10.32 21 11 21 C10.47 19.82 10.47 19.82 9.94 18.62 C9.47 17.33 9.47 17.33 9 16 C9.33 15.34 9.66 14.68 10 14 C9.03 13.71 8.06 13.42 7.06 13.12 C4 12 4 12 3 10 C3.66 9.67 4.32 9.34 5 9 C0.71 8.67 -3.58 8.34 -8 8 C-8 8.66 -8 9.32 -8 10 C-7.34 10 -6.68 10 -6 10 C-6 10.66 -6 11.32 -6 12 C-8.81 12.25 -8.81 12.25 -12 12 C-13.88 10 -13.88 10 -15 8 C-12.41 7.14 -10.66 6.82 -7.99 6.68 C-6.85 6.62 -6.85 6.62 -5.69 6.56 C-4.91 6.52 -4.12 6.48 -3.31 6.44 C-2.52 6.39 -1.72 6.35 -0.9 6.31 C1.07 6.2 3.03 6.1 5 6 C4.18 5.38 3.35 4.76 2.5 4.12 C1.68 3.42 0.85 2.72 0 2 C0 1.34 0 0.68 0 0 Z " fill="#EA0300" transform="translate(128,48)"/>
<path d="M0 0 C6.75 -0.12 6.75 -0.12 9 1 C11.21 1.07 13.42 1.08 15.62 1.06 C17.41 1.05 17.41 1.05 19.23 1.04 C20.6 1.02 20.6 1.02 22 1 C22.89 3.49 23.08 4.73 22.29 7.29 C21.93 8.06 21.56 8.83 21.19 9.62 C20.65 10.79 20.65 10.79 20.11 11.98 C19 14 19 14 17 16 C15.68 16 14.36 16 13 16 C13 15.34 13 14.68 13 14 C12.01 14 11.02 14 10 14 C10.52 14.54 11.03 15.07 11.56 15.62 C13 18 13 18 13 20.81 C11.7 24.96 9.67 27.58 7 31 C6.17 28.11 6 26.11 6 23 C2.71 22.2 1.29 21.9 -2 23 C-2 22.01 -2 21.02 -2 20 C-2.7 20.72 -3.4 21.44 -4.12 22.19 C-6.93 25 -9.92 27.5 -13 30 C-13.33 29.34 -13.66 28.68 -14 28 C-13.67 27.34 -13.34 26.68 -13 26 C-12.77 23.96 -12.59 21.92 -12.44 19.88 C-12.35 18.78 -12.27 17.68 -12.18 16.55 C-12.12 15.71 -12.06 14.87 -12 14 C-10.35 13.93 -10.35 13.93 -8.68 13.85 C-7.22 13.78 -5.77 13.7 -4.31 13.62 C-3.23 13.58 -3.23 13.58 -2.13 13.53 C1.97 13.31 5.24 12.82 9 11 C8.81 8.56 8.81 8.56 8 6 C6.03 4.64 6.03 4.64 4 4 C3.67 4.66 3.34 5.32 3 6 C0 2.25 0 2.25 0 0 Z " fill="#070000" transform="translate(170,82)"/>
<path d="M0 0 C8.39 2.78 14.92 9.84 21 16 C14.07 15.45 8.05 11.98 2.31 8.25 C-0.73 6.61 -3.59 6.33 -7 6 C-6.01 7.32 -5.02 8.64 -4 10 C-6.97 9.5 -6.97 9.5 -10 9 C-9.42 14.31 -9.42 14.31 -7 19 C-3.43 19.74 -3.43 19.74 0 20 C0 20.66 0 21.32 0 22 C-9.79 22.58 -9.79 22.58 -14 19 C-16.27 15.53 -16.3 12.46 -16.31 8.38 C-16.33 7.23 -16.35 6.08 -16.36 4.9 C-16.24 3.94 -16.12 2.99 -16 2 C-11.08 -1.28 -5.75 -0.64 0 0 Z " fill="#E40200" transform="translate(107,37)"/>
<path d="M0 0 C1.52 3.05 0.48 5.65 0 9 C-1.18 21.37 3.49 33.15 11.04 42.77 C12.94 44.94 14.93 46.99 17 49 C8.49 45.92 1.55 39.82 -3 32 C-3.88 29 -3.88 29 -4 27 C-4.66 27 -5.32 27 -6 27 C-6 28.98 -6 30.96 -6 33 C-6.66 33 -7.32 33 -8 33 C-11.28 23.15 -8.3 15.38 -3.93 6.52 C-1.24 1.24 -1.24 1.24 0 0 Z " fill="#DD0100" transform="translate(50,106)"/>
<path d="M0 0 C1.12 1.88 1.12 1.88 1.12 4.62 C-0.17 8.82 -2.18 11.42 -4.88 14.88 C-5.7 11.98 -5.88 9.99 -5.88 6.88 C-9.16 6.08 -10.59 5.78 -13.88 6.88 C-13.88 5.89 -13.88 4.89 -13.88 3.88 C-14.58 4.6 -15.28 5.32 -16 6.06 C-18.8 8.87 -21.8 11.37 -24.88 13.88 C-25.21 13.22 -25.53 12.56 -25.88 11.88 C-25.54 11.22 -25.22 10.56 -24.88 9.88 C-24.65 8.17 -24.47 6.46 -24.31 4.75 C-24.23 3.84 -24.14 2.93 -24.06 1.99 C-24 1.29 -23.94 0.59 -23.88 -0.12 C-21.15 -0.29 -18.42 -0.46 -15.69 -0.62 C-14.92 -0.67 -14.15 -0.72 -13.36 -0.77 C-2.38 -1.43 -2.38 -1.43 0 0 Z " fill="#D9D9D8" transform="translate(181.875,98.125)"/>
<path d="M0 0 C0.66 0 1.32 0 2 0 C5 4.38 5 4.38 5 7 C5.91 6.38 6.81 5.76 7.75 5.12 C10.15 3.56 12.41 2.2 15 1 C14.67 3.31 14.34 5.62 14 8 C15.98 8 17.96 8 20 8 C20 8.66 20 9.32 20 10 C22.64 8.35 25.28 6.7 28 5 C27.7 8.25 27.2 10.63 25.62 13.5 C21.73 15.73 18.72 14.61 14.46 13.68 C12 13 12 13 10 12 C7.66 12.28 5.32 12.61 3 13 C0.95 11.04 0.05 9.57 -0.2 6.73 C-0.19 4.48 -0.13 2.25 0 0 Z " fill="#E1E1E0" transform="translate(131,125)"/>
<path d="M0 0 C4.98 -0.41 7.93 0.16 12.16 2.84 C14.16 4.1 16.2 5.18 18.31 6.25 C18.97 6.59 19.62 6.92 20.3 7.27 C22 8.13 22 8.13 24 8 C24.66 6.68 25.32 5.36 26 4 C27 5 27 5 27.06 8.06 C27.04 9.03 27.02 10 27 11 C28.65 11.66 30.3 12.32 32 13 C29.46 14.27 28.68 13.71 26 13 C22.42 13.04 18.86 13.12 15.29 13.3 C11.21 13.4 9.48 13.32 5.96 10.99 C5.32 10.33 4.67 9.68 4 9 C4.66 9 5.32 9 6 9 C5.65 8.22 5.3 7.43 4.94 6.62 C4.63 5.76 4.32 4.89 4 4 C4.33 3.34 4.66 2.68 5 2 C3.35 1.67 1.7 1.34 0 1 C0 0.67 0 0.34 0 0 Z " fill="#0C0102" transform="translate(133,60)"/>
<path d="M0 0 C7.91 1.53 14.54 8.61 19 15 C19.69 17.24 19.69 17.24 20 19 C16.21 17.55 12.62 15.86 9 14.03 C7.87 13.46 6.73 12.89 5.56 12.3 C3.19 11.1 0.81 9.9 -1.56 8.7 C-2.7 8.13 -3.83 7.56 -5 6.97 C-6.03 6.45 -7.06 5.93 -8.12 5.39 C-10.72 4.14 -13.31 3.03 -16 2 C-16 1.67 -16 1.34 -16 1 C-7.61 1.21 -0.67 3.74 7 7 C6.49 6.58 5.99 6.16 5.47 5.72 C4.82 5.17 4.17 4.63 3.5 4.06 C2.85 3.52 2.2 2.97 1.53 2.41 C1.03 1.94 0.52 1.48 0 1 C0 0.67 0 0.34 0 0 Z " fill="#E10100" transform="translate(131,33)"/>
<path d="M0 0 C0.66 0 1.32 0 2 0 C2.5 0.8 2.99 1.61 3.5 2.44 C7.32 8.49 13.46 13.55 19.5 17.31 C22.24 19.16 22.86 19.97 24 23 C24.2 25.8 24.2 25.8 24.12 28.75 C24.11 29.73 24.09 30.72 24.07 31.73 C24.05 32.48 24.02 33.23 24 34 C22.44 31.65 21.38 29.66 20.25 27.12 C17.78 22.13 14.58 19.29 9.55 16.77 C6.23 14.46 5.02 12.02 3.19 8.44 C2.28 6.7 2.28 6.7 1.36 4.93 C0 2 0 2 0 0 Z " fill="#E80100" transform="translate(78,144)"/>
<path d="M0 0 C9.22 -0.46 20.54 -0.23 29 4 C29 4.66 29 5.32 29 6 C23.76 6.42 19.36 5.12 14.39 3.66 C12.09 2.91 12.09 2.91 10 3 C12.47 4.48 12.47 4.48 15 6 C12.64 6.79 11.19 7.04 8.73 6.53 C5.76 5.95 3.06 5.89 0.04 5.9 C-1.07 5.91 -2.18 5.91 -3.33 5.91 C-4.48 5.92 -5.63 5.93 -6.81 5.94 C-7.98 5.94 -9.15 5.95 -10.36 5.95 C-13.24 5.96 -16.12 5.98 -19 6 C-18 4 -18 4 -16.19 3.38 C-14.04 3.01 -12.08 2.89 -9.89 2.9 C-9.14 2.91 -8.38 2.91 -7.61 2.91 C-6.83 2.92 -6.05 2.93 -5.25 2.94 C-4.46 2.94 -3.66 2.95 -2.85 2.95 C-0.9 2.96 1.05 2.98 3 3 C3 2.34 3 1.68 3 1 C2.01 0.67 1.02 0.34 0 0 Z " fill="#050001" transform="translate(100,14)"/>
<path d="M0 0 C3.16 1.37 3.99 1.99 6 5 C6.33 4.34 6.66 3.68 7 3 C8.32 3.66 9.64 4.32 11 5 C11.38 7.19 11.38 7.19 11 10 C6.29 14.93 6.29 14.93 2.81 15.12 C0.11 13.45 -0.78 11.94 -2 9 C-1.77 5.66 -1.5 3 0 0 Z " fill="#E30600" transform="translate(135,113)"/>
<path d="M0 0 C1.98 0 3.96 0 6 0 C5.51 1.22 5.01 2.43 4.5 3.69 C3.53 6.24 2.99 7.75 3.12 10.5 C2.92 14.64 0.32 17.67 -2 21 C-0.02 21.66 1.96 22.32 4 23 C0.85 25.1 -1.01 25.52 -4.69 26.12 C-5.68 26.29 -6.68 26.46 -7.7 26.63 C-8.46 26.75 -9.22 26.88 -10 27 C-8.33 22.35 -5.95 18.21 -3.5 13.94 C-2.7 12.53 -1.89 11.12 -1.09 9.71 C-0.74 9.1 -0.39 8.48 -0.02 7.84 C1.04 5.92 2.03 3.97 3 2 C2.01 1.34 1.02 0.68 0 0 Z " fill="#141112" transform="translate(20,81)"/>
<path d="M0 0 C0.33 0 0.66 0 1 0 C1.02 0.94 1.02 0.94 1.04 1.91 C1.46 19.17 1.46 19.17 5 36 C-0.28 31.29 -2.71 27.51 -3.29 20.53 C-3.46 13.02 -2.92 6.94 0 0 Z " fill="#CB0000" transform="translate(99,100)"/>
<path d="M0 0 C0 0.33 0 0.66 0 1 C-1.98 1 -3.96 1 -6 1 C-6 1.99 -6 2.98 -6 4 C-3.03 4.5 -3.03 4.5 0 5 C0 5.33 0 5.66 0 6 C-2.31 6.33 -4.62 6.66 -7 7 C-7 8.32 -7 9.64 -7 11 C-12.94 10.67 -18.88 10.34 -25 10 C-25 9.34 -25 8.68 -25 8 C-22.03 7.34 -19.06 6.68 -16 6 C-16 5.01 -16 4.02 -16 3 C-14.28 2.3 -12.55 1.61 -10.81 0.94 C-9.85 0.55 -8.89 0.17 -7.89 -0.22 C-4.79 -1.06 -3.05 -0.89 0 0 Z " fill="#C20000" transform="translate(162,78)"/>
<path d="M0 0 C10.69 0.32 20.73 0.74 31 4 C27.6 5.13 25.28 4.83 21.81 4.06 C16.75 3.05 12.15 2.83 7 3 C7 3.66 7 4.32 7 5 C-5.38 5.5 -5.38 5.5 -18 6 C-18 5.67 -18 5.34 -18 5 C-12.06 4.01 -6.12 3.02 0 2 C0 1.34 0 0.68 0 0 Z " fill="#2E2E31" transform="translate(96,12)"/>
<path d="M0 0 C1.73 1.63 3.37 3.27 5 5 C5.48 5.5 5.95 5.99 6.45 6.5 C10.21 10.97 10.51 14.7 10.37 20.45 C10 23.03 9.3 24.76 8 27 C7.67 27 7.34 27 7 27 C7 26.28 6.99 25.57 6.99 24.83 C6.69 17.12 4.77 11.48 1.28 4.62 C0 2 0 2 0 0 Z " fill="#D80000" transform="translate(108,141)"/>
<path d="M0 0 C-0.43 1.61 -0.87 3.21 -1.31 4.81 C-1.56 5.71 -1.8 6.6 -2.05 7.52 C-3.04 10.12 -3.75 11.39 -6 13 C-7.32 13 -8.64 13 -10 13 C-10.33 11.02 -10.66 9.04 -11 7 C-9.55 5.83 -8.09 4.66 -6.62 3.5 C-5.41 2.53 -5.41 2.53 -4.16 1.53 C-2 0 -2 0 0 0 Z " fill="#EA0500" transform="translate(193,85)"/>
<path d="M0 0 C0.33 0 0.66 0 1 0 C1.08 1.94 1.14 3.87 1.19 5.81 C1.22 6.89 1.26 7.97 1.29 9.08 C1 12 1 12 -0.51 13.89 C-1 14.25 -1.49 14.62 -2 15 C-4.97 10.92 -5.47 8.02 -5 3 C-4.34 2.34 -3.68 1.68 -3 1 C-2.01 1.33 -1.02 1.66 0 2 C0 1.34 0 0.68 0 0 Z " fill="#BC0000" transform="translate(114,73)"/>
<path d="M0 0 C1.32 1.32 2.64 2.64 4 4 C4.99 3.67 5.98 3.34 7 3 C8.2 4.91 9.39 6.83 10.56 8.75 C11.22 9.82 11.89 10.88 12.57 11.98 C14 15 14 15 13.71 17.39 C13.48 17.92 13.24 18.45 13 19 C12.67 18.34 12.34 17.68 12 17 C11.01 17 10.02 17 9 17 C6.88 10.38 6.88 10.38 8 7 C7.24 6.92 6.47 6.84 5.69 6.75 C2.45 5.85 1.65 4.86 0 2 C0 1.34 0 0.68 0 0 Z " fill="#1D1B1C" transform="translate(155,29)"/>
<path d="M0 0 C3.56 0.61 6.68 1.58 10 3 C9.67 4.32 9.34 5.64 9 7 C1.74 7.49 1.74 7.49 -2 5 C-2.66 4.34 -3.32 3.68 -4 3 C-3.01 2.67 -2.02 2.34 -1 2 C-0.67 1.34 -0.34 0.68 0 0 Z " fill="#0F0606" transform="translate(141,66)"/>
<path d="M0 0 C0.66 0 1.32 0 2 0 C4.04 2.91 5 4.4 5 8 C5.66 8 6.32 8 7 8 C6.67 9.32 6.34 10.64 6 12 C3.56 11.62 3.56 11.62 1 11 C-0.2 8.59 -0.1 7.05 -0.06 4.38 C-0.05 3.56 -0.04 2.74 -0.04 1.9 C-0.02 1.27 -0.01 0.65 0 0 Z " fill="#EEECEC" transform="translate(131,125)"/>
<path d="M0 0 C1.65 0 3.3 0 5 0 C5.44 3.12 5.44 3.12 5 7 C2.93 9.39 0.58 11.2 -2 13 C-2.33 12.34 -2.66 11.68 -3 11 C-2.71 10.44 -2.42 9.89 -2.12 9.31 C-0.65 6.27 -0.39 3.34 0 0 Z " fill="#FBF8F8" transform="translate(159,99)"/>
<path d="M0 0 C0.33 0 0.66 0 1 0 C1.13 0.64 1.27 1.28 1.4 1.93 C1.58 2.76 1.76 3.59 1.94 4.44 C2.2 5.67 2.2 5.67 2.46 6.93 C2.81 8.98 2.81 8.98 4 10 C5.91 9.9 5.91 9.9 8.06 9.56 C10.01 9.28 10.01 9.28 12 9 C12.33 9.66 12.66 10.32 13 11 C12.34 11 11.68 11 11 11 C11 11.66 11 12.32 11 13 C7.7 13 4.4 13 1 13 C-0.99 9.02 -1.22 8.32 -0.62 4.25 C-0.51 3.45 -0.4 2.65 -0.29 1.83 C-0.19 1.22 -0.1 0.62 0 0 Z " fill="#181313" transform="translate(130,127)"/>
<path d="M0 0 C-0.72 0.39 -1.45 0.77 -2.2 1.17 C-7.29 3.92 -12.26 6.67 -17 10 C-17.33 8.35 -17.66 6.7 -18 5 C-15.76 3.96 -13.51 2.95 -11.25 1.94 C-10.3 1.5 -10.3 1.5 -9.33 1.04 C-3.49 -1.54 -3.49 -1.54 0 0 Z " fill="#BC0000" transform="translate(83,59)"/>
<path d="M0 0 C1.17 0.78 2.34 1.58 3.5 2.38 C4.47 3.04 4.47 3.04 5.47 3.71 C6.23 4.35 6.23 4.35 7 5 C7 5.66 7 6.32 7 7 C1.25 7.12 1.25 7.12 -1 6 C-0.67 8.97 -0.34 11.94 0 15 C-0.99 14.67 -1.98 14.34 -3 14 C-2.89 12.23 -2.76 10.46 -2.62 8.69 C-2.56 7.7 -2.49 6.72 -2.41 5.7 C-2 3 -2 3 0 0 Z " fill="#D30000" transform="translate(119,79)"/>
<path d="M0 0 C3.47 1.48 3.47 1.48 7 3 C7 3.66 7 4.32 7 5 C0.62 8.19 -8.46 5.72 -15 4 C-15 3.67 -15 3.34 -15 3 C-12.69 3 -10.38 3 -8 3 C-7.67 2.34 -7.34 1.68 -7 1 C-6.34 1.33 -5.68 1.66 -5 2 C-5 2.99 -5 3.98 -5 5 C-2.69 5 -0.38 5 2 5 C1.34 3.35 0.68 1.7 0 0 Z " fill="#CE0100" transform="translate(185,78)"/>
<path d="M0 0 C1.67 1.67 3.33 3.33 5 5 C6.27 6.21 6.27 6.21 7.56 7.44 C10 10 10 10 11 13 C6.23 11.41 3.37 9.26 0.75 4.94 C0 3 0 3 0 0 Z " fill="#C60000" transform="translate(105,83)"/>
<path d="M0 0 C-0.33 0.66 -0.66 1.32 -1 2 C-0.6 4.1 -0.6 4.1 0 6 C-7.43 8.43 -7.43 8.43 -11 7 C-8.69 6.01 -6.38 5.02 -4 4 C-5.32 3.34 -6.64 2.68 -8 2 C-8 1.34 -8 0.68 -8 0 C-4.95 -0.98 -3.05 -0.98 0 0 Z " fill="#222326" transform="translate(78,19)"/>
<path d="M0 0 C4.43 1.39 6.87 3.61 10 7 C3.51 6.51 3.51 6.51 1.06 4.06 C0 2 0 2 0 0 Z " fill="#E20200" transform="translate(147,52)"/>
<path d="M0 0 C2.32 2.85 3.75 5.54 5 9 C1.09 7.73 -0.79 6.49 -3 3 C-2.01 2.01 -1.02 1.02 0 0 Z " fill="#1C1D1E" transform="translate(53,155)"/>
<path d="M0 0 C0.99 0.33 1.98 0.66 3 1 C3.69 3.31 3.69 3.31 4 6 C2.56 7.81 2.56 7.81 1 9 C0 8 0 8 -0.1 6.15 C-0.07 4.1 -0.03 2.05 0 0 Z " fill="#040405" transform="translate(165,45)"/>
<path d="M0 0 C-0.66 1.65 -1.32 3.3 -2 5 C-4.97 4.5 -4.97 4.5 -8 4 C-8 4.66 -8 5.32 -8 6 C-8.99 6 -9.98 6 -11 6 C-11 5.34 -11 4.68 -11 4 C-9.54 3.33 -8.08 2.66 -6.62 2 C-5.81 1.63 -5 1.26 -4.16 0.88 C-2 0 -2 0 0 0 Z " fill="#2B2526" transform="translate(14,73)"/>
<path d="M0 0 C0.66 0.33 1.32 0.66 2 1 C-0.97 3.64 -3.94 6.28 -7 9 C-7.33 7.68 -7.66 6.36 -8 5 C-6.71 4.14 -5.42 3.28 -4.12 2.44 C-3.05 1.72 -3.05 1.72 -1.95 1 C-1.3 0.67 -0.66 0.34 0 0 Z " fill="#390000" transform="translate(84,82)"/>
<path d="M0 0 C0.87 0.46 0.87 0.46 1.75 0.94 C3.84 1.93 5.75 2.52 8 3 C8 3.66 8 4.32 8 5 C5.69 5 3.38 5 1 5 C0.67 3.35 0.34 1.7 0 0 Z " fill="#C9C9C9" transform="translate(143,66)"/>
<path d="M0 0 C0.78 2.33 1.42 4.61 2 7 C-1 8 -1 8 -4 7 C-4 6.34 -4 5.68 -4 5 C-3.01 5 -2.02 5 -1 5 C-1.66 3.68 -2.32 2.36 -3 1 C-2.01 0.67 -1.02 0.34 0 0 Z " fill="#AE0000" transform="translate(137,62)"/>
<path d="M0 0 C1.98 0 3.96 0 6 0 C5.67 1.98 5.34 3.96 5 6 C2.69 5.67 0.38 5.34 -2 5 C-1.01 4.34 -0.02 3.68 1 3 C0.67 2.01 0.34 1.02 0 0 Z " fill="#C4C3C3" transform="translate(145,133)"/>
<path d="M0 0 C1.32 1.32 2.64 2.64 4 4 C4.99 3.67 5.98 3.34 7 3 C7.66 4.65 8.32 6.3 9 8 C3.5 6.53 3.5 6.53 1.12 4 C0 2 0 2 0 0 Z " fill="#434445" transform="translate(155,29)"/>
<path d="M0 0 C0 0.66 0 1.32 0 2 C-1.26 2.56 -2.54 3.1 -3.81 3.62 C-4.52 3.93 -5.23 4.23 -5.96 4.54 C-6.63 4.69 -7.31 4.84 -8 5 C-8.99 4.34 -9.98 3.68 -11 3 C-9.73 2.49 -8.46 2 -7.19 1.5 C-6.48 1.22 -5.77 0.94 -5.04 0.66 C-3 0 -3 0 0 0 Z " fill="#B10000" transform="translate(94,68)"/>
<path d="M0 0 C0 0.66 0 1.32 0 2 C-8.43 3.29 -8.43 3.29 -13 2 C-13 1.67 -13 1.34 -13 1 C-8.61 0.14 -4.47 -0.09 0 0 Z " fill="#9C0000" transform="translate(82,50)"/>
<path d="M0 0 C0.66 0.33 1.32 0.66 2 1 C0.68 3.31 -0.64 5.62 -2 8 C-2.99 7.34 -3.98 6.68 -5 6 C-5.66 5.67 -6.32 5.34 -7 5 C-4.69 3.35 -2.38 1.7 0 0 Z " fill="#272323" transform="translate(41,41)"/>
<path d="M0 0 C1.98 0.5 1.98 0.5 4 1 C4 2.32 4 3.64 4 5 C2.06 4.62 2.06 4.62 0 4 C-0.33 3.34 -0.66 2.68 -1 2 C-0.67 1.34 -0.34 0.68 0 0 Z " fill="#F1F1F0" transform="translate(150,135)"/>
<path d="M0 0 C-3.63 0 -7.26 0 -11 0 C-11 -0.66 -11 -1.32 -11 -2 C-6.37 -3.49 -4.01 -2.67 0 0 Z " fill="#9B0000" transform="translate(148,88)"/>
<path d="M0 0 C0.33 0.99 0.66 1.98 1 3 C3.64 2.67 6.28 2.34 9 2 C5.47 4.12 2.06 4.53 -2 5 C-1.34 3.35 -0.68 1.7 0 0 Z " fill="#414849" transform="translate(12,103)"/>
<path d="M0 0 C1.32 0 2.64 0 4 0 C2.95 2.62 2.35 3.79 -0.12 5.25 C-0.74 5.5 -1.36 5.75 -2 6 C-1.34 4.02 -0.68 2.04 0 0 Z " fill="#CBCBCA" transform="translate(158,106)"/>
<path d="M0 0 C1.98 1.65 3.96 3.3 6 5 C5.01 5.49 5.01 5.49 4 6 C1.64 5.06 -0.7 4.07 -3 3 C-2.01 2.67 -1.02 2.34 0 2 C0 1.34 0 0.68 0 0 Z " fill="#400000" transform="translate(133,35)"/>
<path d="M0 0 C2.47 0.99 2.47 0.99 5 2 C3.75 3.5 3.75 3.5 2 5 C0.68 5 -0.64 5 -2 5 C-2 4.34 -2 3.68 -2 3 C-1.34 3 -0.68 3 0 3 C0 2.01 0 1.02 0 0 Z " fill="#323334" transform="translate(142,20)"/>
<path d="M0 0 C0.66 0 1.32 0 2 0 C2 0.66 2 1.32 2 2 C2.66 2 3.32 2 4 2 C4.33 2.99 4.66 3.98 5 5 C3 5 1 5 -1 5 C-0.67 3.35 -0.34 1.7 0 0 Z " fill="#D5D5D4" transform="translate(169,100)"/>
<path d="M0 0 C-2.31 1.65 -4.62 3.3 -7 5 C-7.33 3.68 -7.66 2.36 -8 1 C-2.25 -1.12 -2.25 -1.12 0 0 Z " fill="#340000" transform="translate(45,53)"/>
<path d="M0 0 C0.66 0.99 1.32 1.98 2 3 C0.35 4.32 -1.3 5.64 -3 7 C-3 3.48 -2.18 2.63 0 0 Z " fill="#0A0001" transform="translate(43,41)"/>
<path d="M0 0 C3.3 0.33 6.6 0.66 10 1 C9.01 1.66 8.02 2.32 7 3 C3.31 2.12 3.31 2.12 0 1 C0 0.67 0 0.34 0 0 Z " fill="#9A0000" transform="translate(115,34)"/>
<path d="M0 0 C0.66 0 1.32 0 2 0 C2.99 1.98 3.98 3.96 5 6 C4.34 6.66 3.68 7.32 3 8 C0 2.25 0 2.25 0 0 Z " fill="#A70100" transform="translate(78,144)"/>
<path d="M0 0 C2 2 2 2 2.2 4.16 C2.16 5.38 2.16 5.38 2.12 6.62 C2.11 7.44 2.09 8.26 2.07 9.1 C2.05 9.73 2.02 10.35 2 11 C1.01 10.67 0.02 10.34 -1 10 C-0.67 6.7 -0.34 3.4 0 0 Z " fill="#680000" transform="translate(117,83)"/>
<path d="M0 0 C0.99 1.32 1.98 2.64 3 4 C0.69 4.66 -1.62 5.32 -4 6 C-4 4 -4 4 -2 1.88 C-1.34 1.26 -0.68 0.64 0 0 Z " fill="#BB0100" transform="translate(140,151)"/>
<path d="M0 0 C1.65 1.65 3.3 3.3 5 5 C4.01 6.49 4.01 6.49 3 8 C0 2.25 0 2.25 0 0 Z " fill="#AB0000" transform="translate(108,141)"/>
<path d="M0 0 C2.97 0.5 2.97 0.5 6 1 C4.19 2.56 4.19 2.56 2 4 C1.01 3.67 0.02 3.34 -1 3 C-0.67 2.01 -0.34 1.02 0 0 Z " fill="#454546" transform="translate(171,116)"/>
<path d="M0 0 C0.66 0 1.32 0 2 0 C2 0.66 2 1.32 2 2 C2.66 2.33 3.32 2.66 4 3 C2.02 3.99 2.02 3.99 0 5 C0 3.35 0 1.7 0 0 Z " fill="#3F3F45" transform="translate(149,157)"/>
<path d="M0 0 C0.66 0.33 1.32 0.66 2 1 C0.62 3.5 0.62 3.5 -1 6 C-1.66 6 -2.32 6 -3 6 C-1.12 1.12 -1.12 1.12 0 0 Z " fill="#B41C00" transform="translate(160,115)"/>
<path d="M0 0 C0.66 0.99 1.32 1.98 2 3 C1.12 5.69 1.12 5.69 0 8 C-0.98 4.95 -0.98 3.05 0 0 Z " fill="#A90000" transform="translate(59,100)"/>
<path d="M0 0 C0.66 0.99 1.32 1.98 2 3 C1.34 4.32 0.68 5.64 0 7 C-0.93 3.99 -1.04 3.13 0 0 Z " fill="#C1C1C1" transform="translate(177,106)"/>
<path d="M0 0 C2 3 2 3 2 5 C0.68 5.33 -0.64 5.66 -2 6 C-1.34 4.02 -0.68 2.04 0 0 Z " fill="#212526" transform="translate(16,96)"/>
<path d="M0 0 C0.99 0.33 1.98 0.66 3 1 C3.33 1.99 3.66 2.98 4 4 C3.01 5.48 3.01 5.48 2 7 C1.34 4.69 0.68 2.38 0 0 Z " fill="#C40000" transform="translate(146,26)"/>
<path d="M0 0 C2.38 -0.19 2.38 -0.19 5 0 C5.66 0.99 6.32 1.98 7 3 C6.01 3 5.02 3 4 3 C4 2.34 4 1.68 4 1 C2.68 0.67 1.36 0.34 0 0 Z " fill="#BFBEBF" transform="translate(175,97)"/>
<path d="M0 0 C2.31 0.33 4.62 0.66 7 1 C5.19 2.06 5.19 2.06 3 3 C2.01 2.67 1.02 2.34 0 2 C0 1.34 0 0.68 0 0 Z " fill="#B50100" transform="translate(128,48)"/>
<path d="M0 0 C0.66 0.99 1.32 1.98 2 3 C1.67 3.99 1.34 4.98 1 6 C0.34 5.01 -0.32 4.02 -1 3 C-0.67 2.01 -0.34 1.02 0 0 Z " fill="#B60000" transform="translate(88,139)"/>
<path d="M0 0 C0.33 0.99 0.66 1.98 1 3 C0.34 3.99 -0.32 4.98 -1 6 C-1.62 4.12 -1.62 4.12 -2 2 C-1.34 1.34 -0.68 0.68 0 0 Z " fill="#B6B7B7" transform="translate(158,130)"/>
<path d="M0 0 C0.99 0.33 1.98 0.66 3 1 C2.67 2.32 2.34 3.64 2 5 C1.34 3.35 0.68 1.7 0 0 Z " fill="#7B0000" transform="translate(147,52)"/>
<path d="M0 0 C0.66 0.33 1.32 0.66 2 1 C1.67 1.99 1.34 2.98 1 4 C0.34 4 -0.32 4 -1 4 C-0.67 2.68 -0.34 1.36 0 0 Z " fill="#030001" transform="translate(36,46)"/>
<path d="M0 0 C0.66 1.32 1.32 2.64 2 4 C1.01 3.67 0.02 3.34 -1 3 C-0.67 2.01 -0.34 1.02 0 0 Z " fill="#AA0000" transform="translate(117,90)"/>
<path d="M0 0 C0.66 0 1.32 0 2 0 C1.34 1.32 0.68 2.64 0 4 C-0.33 3.01 -0.66 2.02 -1 1 C-0.67 0.67 -0.34 0.34 0 0 Z " fill="#A30000" transform="translate(191,85)"/>
<path d="M0 0 C-0.33 0.99 -0.66 1.98 -1 3 C-1.99 2.34 -2.98 1.68 -4 1 C-2 0 -2 0 0 0 Z " fill="#1D1D1D" transform="translate(14,73)"/>
<path d="M0 0 C0.66 0 1.32 0 2 0 C1.67 0.99 1.34 1.98 1 3 C0.34 3 -0.32 3 -1 3 C-0.67 2.01 -0.34 1.02 0 0 Z " fill="#C80100" transform="translate(92,38)"/>
<path d="M0 0 C0.66 0.33 1.32 0.66 2 1 C2 1.66 2 2.32 2 3 C1.01 2.67 0.02 2.34 -1 2 C-0.67 1.34 -0.34 0.68 0 0 Z " fill="#353537" transform="translate(56,161)"/>
<path d="M0 0 C0.99 0.33 1.98 0.66 3 1 C2.34 1.66 1.68 2.32 1 3 C0.67 2.01 0.34 1.02 0 0 Z " fill="#800000" transform="translate(146,26)"/>
</svg>
