<?xml version="1.0" encoding="UTF-8"?>
<!-- Generator: https://ezgif.com/webp-to-svg -->
<svg version="1.1" xmlns="http://www.w3.org/2000/svg" width="50" height="50">
<path d="M0 0 C3.66 2.34 4.67 5.29 5.76 9.38 C6.64 13.84 6.75 15.71 4.19 19.56 C3.53 19.56 2.87 19.56 2.19 19.56 C2.04 20.35 1.9 21.13 1.75 21.94 C1.19 24.56 1.19 24.56 0.19 26.56 C1.51 26.56 2.83 26.56 4.19 26.56 C4.68 25.08 4.68 25.08 5.19 23.56 C6.84 23.89 8.49 24.22 10.19 24.56 C10.29 25.2 10.39 25.84 10.5 26.5 C10.73 27.18 10.95 27.86 11.19 28.56 C12.18 28.89 13.17 29.22 14.19 29.56 C14.19 33.52 14.19 37.48 14.19 41.56 C10.19 42.56 10.19 42.56 7.78 41.91 C3.27 41.31 0.48 44.52 -3 47.09 C-6.54 48.94 -8.03 48.73 -11.81 47.56 C-14.34 46.12 -14.34 46.12 -16.75 44.44 C-20.97 41.73 -20.97 41.73 -25.81 41.75 C-26.8 42.02 -27.79 42.29 -28.81 42.56 C-29.47 42.23 -30.13 41.9 -30.81 41.56 C-31.18 32.15 -31.18 32.15 -28.81 27.56 C-29.55 26.91 -29.55 26.91 -30.31 26.25 C-31.81 24.56 -31.81 24.56 -31.81 21.56 C-31.15 21.56 -30.49 21.56 -29.81 21.56 C-29.52 20.49 -29.23 19.42 -28.94 18.31 C-27.27 12.74 -27.27 12.74 -25.81 10.56 C-25.17 10.25 -24.53 9.94 -23.88 9.62 C-21.07 8.18 -20.28 6.31 -18.81 3.56 C-14.61 -2.75 -6.55 -3.03 0 0 Z " fill="#150C0D" transform="translate(33.8125,1.4375)"/>
<path d="M0 0 C0.88 0.01 1.76 0.01 2.66 0.02 C3.54 0.01 4.41 0.01 5.31 0 C7.72 0.27 7.72 0.27 10.72 2.27 C11.41 4.39 11.41 4.39 11.72 6.27 C9.72 7.27 9.72 7.27 6.6 6.33 C5.65 5.98 4.7 5.63 3.72 5.27 C4.05 4.61 4.38 3.95 4.72 3.27 C2.74 3.27 0.76 3.27 -1.28 3.27 C-1.28 4.59 -1.28 5.91 -1.28 7.27 C-0.62 7.27 0.04 7.27 0.72 7.27 C0.72 6.61 0.72 5.95 0.72 5.27 C1.71 5.6 2.7 5.93 3.72 6.27 C2.35 9.02 0.36 9.78 -2.28 11.27 C-1.95 12.92 -1.62 14.57 -1.28 16.27 C-1.17 15.67 -1.07 15.07 -0.96 14.45 C-0.19 11.98 0.79 10.94 2.72 9.27 C3.05 10.59 3.38 11.91 3.72 13.27 C4.38 12.94 5.04 12.61 5.72 12.27 C6.71 12.6 7.7 12.93 8.72 13.27 C8.72 14.92 8.72 16.57 8.72 18.27 C8.06 17.61 7.4 16.95 6.72 16.27 C7.05 15.61 7.38 14.95 7.72 14.27 C6.73 14.76 6.73 14.76 5.72 15.27 C5.63 17.18 5.63 17.18 5.54 19.14 C5.5 19.86 5.47 20.58 5.43 21.32 C5.53 21.96 5.62 22.6 5.72 23.27 C6.71 23.93 7.7 24.59 8.72 25.27 C9.05 25.93 9.38 26.59 9.72 27.27 C10.71 27.6 11.7 27.93 12.72 28.27 C12.72 27.61 12.72 26.95 12.72 26.27 C13.38 26.27 14.04 26.27 14.72 26.27 C15.05 25.28 15.38 24.29 15.72 23.27 C17.37 23.6 19.02 23.93 20.72 24.27 C22.63 29.37 24.15 33.73 23.72 39.27 C21.74 39.76 21.74 39.76 19.72 40.27 C20.38 39.61 21.04 38.95 21.72 38.27 C21.37 36 20.75 34.31 19.72 32.27 C20.38 32.27 21.04 32.27 21.72 32.27 C21.72 31.61 21.72 30.95 21.72 30.27 C20.4 30.27 19.08 30.27 17.72 30.27 C17.93 31.05 18.14 31.83 18.35 32.64 C18.47 33.51 18.6 34.37 18.72 35.27 C18.06 35.93 17.4 36.59 16.72 37.27 C16.72 34.96 16.72 32.65 16.72 30.27 C15.4 30.27 14.08 30.27 12.72 30.27 C12.72 32.58 12.72 34.89 12.72 37.27 C14.7 37.6 16.68 37.93 18.72 38.27 C18.72 38.6 18.72 38.93 18.72 39.27 C17.9 39.49 17.07 39.72 16.22 39.95 C13.26 41.06 11.24 42.16 8.66 43.89 C6.26 45.43 4.8 46.25 1.97 46.83 C-1.03 46.08 -2.23 44.52 -4.28 42.27 C-7.58 41.16 -10.92 40.21 -14.28 39.27 C-14.61 36.96 -14.94 34.65 -15.28 32.27 C-14.29 32.6 -13.3 32.93 -12.28 33.27 C-12.28 34.92 -12.28 36.57 -12.28 38.27 C-10.29 38 -10.29 38 -8.28 37.27 C-7.95 36.28 -7.62 35.29 -7.28 34.27 C-7.28 35.26 -7.28 36.25 -7.28 37.27 C-5.79 36.77 -5.79 36.77 -4.28 36.27 C-2.02 36.39 -2.02 36.39 0.41 36.7 C1.22 36.8 2.03 36.91 2.86 37.01 C3.47 37.1 4.09 37.18 4.72 37.27 C5.05 36.28 5.38 35.29 5.72 34.27 C5.72 35.26 5.72 36.25 5.72 37.27 C7.7 36.77 7.7 36.77 9.72 36.27 C9.72 34.62 9.72 32.97 9.72 31.27 C8.4 30.94 7.08 30.61 5.72 30.27 C5.39 30.93 5.06 31.59 4.72 32.27 C4.72 31.61 4.72 30.95 4.72 30.27 C4.1 30.14 3.49 30.02 2.85 29.89 C0.72 29.27 0.72 29.27 -1.28 27.27 C-1.97 25.95 -2.65 24.62 -3.28 23.27 C-4.21 23.33 -5.13 23.39 -6.09 23.45 C-9.28 23.27 -9.28 23.27 -11.15 21.77 C-11.52 21.27 -11.89 20.78 -12.28 20.27 C-11.95 19.61 -11.62 18.95 -11.28 18.27 C-9.63 18.27 -7.98 18.27 -6.28 18.27 C-8.07 14.51 -8.07 14.51 -11.46 12.45 C-12.06 12.39 -12.66 12.33 -13.28 12.27 C-10.5 8.66 -7.54 5.44 -4.28 2.27 C-2.28 0.27 -2.28 0.27 0 0 Z " fill="#100204" transform="translate(23.27734375,1.734375)"/>
<path d="M0 0 C3.66 2.34 4.67 5.29 5.76 9.38 C6.64 13.84 6.75 15.71 4.19 19.56 C3.53 19.56 2.87 19.56 2.19 19.56 C2.04 20.35 1.9 21.13 1.75 21.94 C1.19 24.56 1.19 24.56 0.19 26.56 C0.85 26.56 1.51 26.56 2.19 26.56 C2.19 27.22 2.19 27.88 2.19 28.56 C0.54 28.23 -1.11 27.9 -2.81 27.56 C-2.81 26.9 -2.81 26.24 -2.81 25.56 C-3.8 24.9 -4.79 24.24 -5.81 23.56 C-6.22 20.85 -5.95 18.32 -5.81 15.56 C-4.82 15.23 -3.83 14.9 -2.81 14.56 C-2.81 15.55 -2.81 16.54 -2.81 17.56 C-2.48 16.24 -2.15 14.92 -1.81 13.56 C-3.46 13.89 -5.11 14.22 -6.81 14.56 C-7.47 13.24 -8.13 11.92 -8.81 10.56 C-10.29 13.52 -9.87 16.3 -9.81 19.56 C-12.81 17.56 -12.81 17.56 -13.69 14.62 C-13.81 11.56 -13.81 11.56 -12.56 9.81 C-11 8.7 -9.41 7.63 -7.81 6.56 C-8.47 6.23 -9.13 5.9 -9.81 5.56 C-9.81 6.22 -9.81 6.88 -9.81 7.56 C-10.47 7.56 -11.13 7.56 -11.81 7.56 C-11.81 6.24 -11.81 4.92 -11.81 3.56 C-9.83 3.23 -7.85 2.9 -5.81 2.56 C-5.81 3.55 -5.81 4.54 -5.81 5.56 C-2.84 6.06 -2.84 6.06 0.19 6.56 C0.19 5.24 0.19 3.92 0.19 2.56 C-4.15 1.12 -8.28 1.04 -12.81 1.56 C-16.84 3.88 -18.51 6.62 -20.81 10.56 C-21.47 10.56 -22.13 10.56 -22.81 10.56 C-23.06 11.16 -23.31 11.76 -23.56 12.38 C-24.98 14.85 -26.46 16 -28.81 17.56 C-28.5 16.96 -28.19 16.37 -27.88 15.75 C-26.71 13.47 -26.71 13.47 -25.81 10.56 C-25.19 10.27 -24.57 9.98 -23.94 9.69 C-21.11 8.19 -20.31 6.35 -18.81 3.56 C-14.61 -2.75 -6.55 -3.03 0 0 Z " fill="#8B0B0E" transform="translate(33.8125,1.4375)"/>
<path d="M0 0 C9.57 0 19.14 0 29 0 C28.01 0.49 28.01 0.49 27 1 C27 1.66 27 2.32 27 3 C27.66 3.33 28.32 3.66 29 4 C28.34 4 27.68 4 27 4 C27 4.66 27 5.32 27 6 C27.66 6.33 28.32 6.66 29 7 C28.42 6.99 27.83 6.99 27.23 6.98 C24.57 6.96 21.91 6.95 19.25 6.94 C18.33 6.93 17.41 6.92 16.46 6.91 C15.57 6.91 14.68 6.91 13.77 6.9 C12.54 6.89 12.54 6.89 11.29 6.89 C9.06 7 7.14 7.38 5 8 C5 6.35 5 4.7 5 3 C4.34 3 3.68 3 3 3 C3.33 4.65 3.66 6.3 4 8 C2.68 8 1.36 8 0 8 C0 5.36 0 2.72 0 0 Z " fill="#B9ADA1" transform="translate(6,32)"/>
<path d="M0 0 C0.99 0.33 1.98 0.66 3 1 C3 4.96 3 8.92 3 13 C-1 14 -1 14 -3.41 13.34 C-7.91 12.75 -10.7 15.96 -14.18 18.53 C-17.69 20.36 -19.26 20.11 -23 19 C-26.38 16.94 -26.38 16.94 -29 15 C-28.34 14.67 -27.68 14.34 -27 14 C-26.28 14.49 -25.56 14.99 -24.81 15.5 C-20.93 17.57 -19.22 17.2 -15 16 C-11.86 14.19 -8.91 12.16 -6 10 C-6.99 9.67 -7.98 9.34 -9 9 C-9 6.69 -9 4.38 -9 2 C-7.68 2 -6.36 2 -5 2 C-4.67 3.32 -4.34 4.64 -4 6 C-4 4.68 -4 3.36 -4 2 C-2.68 2 -1.36 2 0 2 C0 3.32 0 4.64 0 6 C0.31 7.34 0.63 8.68 1 10 C1 10.33 1 10.66 1 11 C0.67 7.37 0.34 3.74 0 0 Z " fill="#AB0E13" transform="translate(45,30)"/>
<path d="M0 0 C0.88 0.01 1.76 0.01 2.66 0.02 C3.54 0.01 4.41 0.01 5.31 0 C7.72 0.27 7.72 0.27 10.72 2.27 C11.41 4.39 11.41 4.39 11.72 6.27 C9.72 7.27 9.72 7.27 6.6 6.33 C5.65 5.98 4.7 5.63 3.72 5.27 C4.05 4.61 4.38 3.95 4.72 3.27 C2.74 3.27 0.76 3.27 -1.28 3.27 C-1.28 4.59 -1.28 5.91 -1.28 7.27 C-0.62 7.27 0.04 7.27 0.72 7.27 C0.72 6.61 0.72 5.95 0.72 5.27 C1.71 5.6 2.7 5.93 3.72 6.27 C2.35 9.02 0.36 9.78 -2.28 11.27 C-1.62 14.88 -1.62 14.88 -0.28 18.27 C-1.27 18.27 -2.26 18.27 -3.28 18.27 C-3.61 18.93 -3.94 19.59 -4.28 20.27 C-4.61 19.28 -4.94 18.29 -5.28 17.27 C-4.62 17.27 -3.96 17.27 -3.28 17.27 C-3.75 16.67 -4.23 16.07 -4.71 15.45 C-6.28 13.27 -6.28 13.27 -7.28 10.27 C-7.94 9.28 -8.6 8.29 -9.28 7.27 C-2.28 0.27 -2.28 0.27 0 0 Z " fill="#490609" transform="translate(23.27734375,1.734375)"/>
<path d="M0 0 C3.66 2.34 4.66 5.28 5.77 9.37 C6.24 11.82 6.43 14.08 6.19 16.56 C5.69 15.08 5.69 15.08 5.19 13.56 C3.54 13.89 1.89 14.22 0.19 14.56 C0.19 13.24 0.19 11.92 0.19 10.56 C-1.46 9.9 -3.11 9.24 -4.81 8.56 C-4.81 8.23 -4.81 7.9 -4.81 7.56 C-3.16 7.23 -1.51 6.9 0.19 6.56 C0.19 5.24 0.19 3.92 0.19 2.56 C-4.15 1.12 -8.28 1.04 -12.81 1.56 C-16.84 3.88 -18.51 6.62 -20.81 10.56 C-21.47 10.56 -22.13 10.56 -22.81 10.56 C-23.06 11.16 -23.31 11.76 -23.56 12.38 C-24.98 14.85 -26.46 16 -28.81 17.56 C-28.5 16.96 -28.19 16.37 -27.88 15.75 C-26.71 13.47 -26.71 13.47 -25.81 10.56 C-25.19 10.27 -24.57 9.98 -23.94 9.69 C-21.11 8.19 -20.31 6.35 -18.81 3.56 C-14.61 -2.75 -6.55 -3.03 0 0 Z " fill="#C7161B" transform="translate(33.8125,1.4375)"/>
<path d="M0 0 C1.94 0.75 1.94 0.75 4 2 C4.75 4.12 4.75 4.12 5 6 C3.35 6.33 1.7 6.66 0 7 C0 7.99 0 8.98 0 10 C1.26 9.94 2.52 9.88 3.81 9.81 C7.72 9.81 7.72 9.81 10 11.38 C11 13 11 13 11 15 C7.25 16.12 7.25 16.12 5 15 C5 15.66 5 16.32 5 17 C3.67 16.33 2.33 15.67 1 15 C0.3 14.73 -0.4 14.46 -1.12 14.19 C-3.72 12.55 -4.15 10.89 -5 8 C-5 5 -5 5 -3 3 C-2 2 -1 1 0 0 Z " fill="#A50B0F" transform="translate(12,14)"/>
<path d="M0 0 C1.65 0.33 3.3 0.66 5 1 C6.91 6.1 8.43 10.46 8 16 C6.68 16.33 5.36 16.66 4 17 C4.66 16.34 5.32 15.68 6 15 C5.65 12.74 5.02 11.05 4 9 C4.66 9 5.32 9 6 9 C6 8.34 6 7.68 6 7 C4.68 7 3.36 7 2 7 C2.21 7.78 2.41 8.57 2.62 9.38 C2.75 10.24 2.87 11.11 3 12 C2.34 12.66 1.68 13.32 1 14 C1 11.69 1 9.38 1 7 C-0.32 7 -1.64 7 -3 7 C-3 9.31 -3 11.62 -3 14 C-2.01 14.33 -1.02 14.66 0 15 C-2.31 15 -4.62 15 -7 15 C-6.67 12.69 -6.34 10.38 -6 8 C-7.32 7.67 -8.64 7.34 -10 7 C-10.33 7.66 -10.66 8.32 -11 9 C-11 8.34 -11 7.68 -11 7 C-11.66 6.67 -12.32 6.34 -13 6 C-8.92 4.47 -5.21 5.37 -1 6 C-1.33 5.01 -1.66 4.02 -2 3 C-1.34 2.01 -0.68 1.02 0 0 Z " fill="#4E3431" transform="translate(39,25)"/>
<path d="M0 0 C1.98 0.5 1.98 0.5 4 1 C3.34 4.96 2.68 8.92 2 13 C6.29 13.66 10.58 14.32 15 15 C15 15.99 15 16.98 15 18 C13.48 17.47 13.48 17.47 11.94 16.94 C8.07 15.8 4.97 16.3 1 17 C0.34 16.67 -0.32 16.34 -1 16 C-1.2 10.8 -1.19 6.82 1 2 C0.67 1.34 0.34 0.68 0 0 Z " fill="#8B1214" transform="translate(4,27)"/>
<path d="M0 0 C1.32 0 2.64 0 4 0 C4 1.65 4 3.3 4 5 C4.99 5.33 5.98 5.66 7 6 C6.34 6.66 5.68 7.32 5 8 C3.68 8 2.36 8 1 8 C1 8.66 1 9.32 1 10 C2.32 10 3.64 10 5 10 C5 11.32 5 12.64 5 14 C5.66 14 6.32 14 7 14 C7 14.66 7 15.32 7 16 C5.35 15.67 3.7 15.34 2 15 C2 14.34 2 13.68 2 13 C1.01 12.34 0.02 11.68 -1 11 C-1.41 8.29 -1.13 5.76 -1 3 C-0.01 2.67 0.98 2.34 2 2 C2 2.99 2 3.98 2 5 C2.33 3.68 2.66 2.36 3 1 C2.01 0.67 1.02 0.34 0 0 Z " fill="#780509" transform="translate(29,14)"/>
<path d="M0 0 C1.32 0 2.64 0 4 0 C4.33 1.32 4.66 2.64 5 4 C5 2.68 5 1.36 5 0 C6.32 0 7.64 0 9 0 C9 1.32 9 2.64 9 4 C9.3 5.34 9.62 6.68 10 8 C3.38 8.12 3.38 8.12 0 7 C0 4.69 0 2.38 0 0 Z " fill="#C4B8AB" transform="translate(36,32)"/>
<path d="M0 0 C1.94 0.75 1.94 0.75 4 2 C4.33 3.32 4.66 4.64 5 6 C1.7 6.66 -1.6 7.32 -5 8 C-5 5 -5 5 -3 3 C-2 2 -1 1 0 0 Z " fill="#9D0A0C" transform="translate(12,14)"/>
<path d="M0 0 C0.99 0.33 1.98 0.66 3 1 C3 2.65 3 4.3 3 6 C4.98 5.73 4.98 5.73 7 5 C7.33 4.01 7.66 3.02 8 2 C8 2.99 8 3.98 8 5 C8.99 4.67 9.98 4.34 11 4 C11.66 4.66 12.32 5.32 13 6 C12.01 7.48 12.01 7.48 11 9 C7.7 8.34 4.4 7.68 1 7 C0.67 4.69 0.34 2.38 0 0 Z " fill="#211C1B" transform="translate(8,34)"/>
<path d="M0 0 C0.99 0 1.98 0 3 0 C2.67 1.98 2.34 3.96 2 6 C1.34 6 0.68 6 0 6 C-0.33 7.65 -0.66 9.3 -1 11 C-1.33 10.34 -1.66 9.68 -2 9 C-3.32 9 -4.64 9 -6 9 C-6 8.34 -6 7.68 -6 7 C-4.35 6.34 -2.7 5.68 -1 5 C-1.66 4.67 -2.32 4.34 -3 4 C-3 3.34 -3 2.68 -3 2 C-2.01 2 -1.02 2 0 2 C0 1.34 0 0.68 0 0 Z " fill="#993C3A" transform="translate(36,15)"/>
<path d="M0 0 C0.33 1.32 0.66 2.64 1 4 C0.01 4 -0.98 4 -2 4 C-2 4.99 -2 5.98 -2 7 C-1.34 7.33 -0.68 7.66 0 8 C-1.25 9.5 -1.25 9.5 -3 11 C-4.32 11 -5.64 11 -7 11 C-7 10.01 -7 9.02 -7 8 C-6.34 8 -5.68 8 -5 8 C-4.73 7.24 -4.46 6.47 -4.19 5.69 C-3.06 3.13 -2.09 1.8 0 0 Z " fill="#3F0306" transform="translate(9,15)"/>
<path d="M0 0 C2.62 0.38 2.62 0.38 5 1 C4.01 1.33 3.02 1.66 2 2 C2 3.32 2 4.64 2 6 C2.66 6 3.32 6 4 6 C4 5.34 4 4.68 4 4 C4.99 4.33 5.98 4.66 7 5 C6.67 5.66 6.34 6.32 6 7 C1.52 8.26 1.52 8.26 -1 7 C-0.67 5.68 -0.34 4.36 0 3 C-0.66 2.67 -1.32 2.34 -2 2 C-1.34 1.34 -0.68 0.68 0 0 Z " fill="#1F0205" transform="translate(20,3)"/>
<path d="M0 0 C1.5 0.01 1.5 0.01 3.04 0.03 C3.81 0.04 4.58 0.05 5.38 0.06 C5.7 1.05 6.04 2.04 6.38 3.06 C2.62 4.19 2.62 4.19 0.38 3.06 C0.38 3.72 0.38 4.38 0.38 5.06 C-2.29 3.73 -4.96 2.4 -7.62 1.06 C-4.98 -0.26 -2.95 -0.03 0 0 Z " fill="#79403D" transform="translate(16.625,25.9375)"/>
<path d="M0 0 C1.65 0.33 3.3 0.66 5 1 C5.33 1.99 5.66 2.98 6 4 C5.01 4 4.02 4 3 4 C2.67 4.33 2.34 4.66 2 5 C1.01 5.33 0.02 5.66 -1 6 C-1.33 5.01 -1.66 4.02 -2 3 C-1.34 2.01 -0.68 1.02 0 0 Z " fill="#830B0C" transform="translate(39,25)"/>
<path d="M0 0 C1.32 0 2.64 0 4 0 C3.81 0.76 3.63 1.53 3.44 2.31 C2.77 5.09 2.77 5.09 4 8 C2.68 8 1.36 8 0 8 C0 5.36 0 2.72 0 0 Z " fill="#C9BBAD" transform="translate(6,32)"/>
<path d="M0 0 C1.32 0 2.64 0 4 0 C4 1.65 4 3.3 4 5 C4.99 5.33 5.98 5.66 7 6 C5 8 5 8 2.38 8.12 C1.59 8.08 0.81 8.04 0 8 C0 7.01 0 6.02 0 5 C0.66 5 1.32 5 2 5 C2.33 3.68 2.66 2.36 3 1 C2.01 0.67 1.02 0.34 0 0 Z " fill="#521515" transform="translate(29,14)"/>
<path d="M0 0 C1.32 0 2.64 0 4 0 C4 0.66 4 1.32 4 2 C3.34 2 2.68 2 2 2 C1.67 3.32 1.34 4.64 1 6 C0.01 5.01 -0.98 4.02 -2 3 C-1.34 2.01 -0.68 1.02 0 0 Z " fill="#68080C" transform="translate(16,6)"/>
<path d="M0 0 C0.33 0 0.66 0 1 0 C1 1.98 1 3.96 1 6 C-0.32 6.33 -1.64 6.66 -3 7 C-3 5.02 -3 3.04 -3 1 C-2.67 1.66 -2.34 2.32 -2 3 C-1.34 3 -0.68 3 0 3 C0 2.01 0 1.02 0 0 Z " fill="#CDBFB1" transform="translate(14,33)"/>
<path d="M0 0 C1 0.1 2.01 0.2 3.04 0.31 C3.81 0.39 4.58 0.48 5.38 0.56 C5.38 0.89 5.38 1.22 5.38 1.56 C2.08 1.56 -1.23 1.56 -4.62 1.56 C-4.95 2.22 -5.29 2.88 -5.62 3.56 C-5.62 2.9 -5.62 2.24 -5.62 1.56 C-6.29 1.23 -6.95 0.9 -7.62 0.56 C-4.9 -0.8 -3.02 -0.32 0 0 Z " fill="#292827" transform="translate(33.625,30.4375)"/>
</svg>
