<?xml version="1.0" encoding="UTF-8"?>
<!-- Generator: https://ezgif.com/webp-to-svg -->
<svg version="1.1" xmlns="http://www.w3.org/2000/svg" width="512" height="512" viewBox="-144.606 -70.533 1317.092 1317.092" preserveAspectRatio="xMidYMid meet">
<path d="M0 0 C3.39 0.87 5.88 2.09 8.9 3.85 C10 4.49 11.1 5.12 12.23 5.78 C13.42 6.48 14.61 7.18 15.8 7.88 C17.04 8.6 18.29 9.33 19.54 10.05 C22.14 11.55 24.73 13.06 27.32 14.57 C33.24 18.03 39.21 21.42 45.17 24.81 C47.5 26.14 49.83 27.48 52.15 28.81 C56.28 31.16 60.4 33.52 64.52 35.87 C77.27 43.13 90 50.42 102.66 57.86 C110.77 62.62 118.96 67.2 127.17 71.81 C127.17 110.75 127.17 149.69 127.17 189.81 C123.33 188.28 120.09 186.73 116.54 184.68 C115.44 184.05 114.34 183.42 113.2 182.76 C112 182.07 110.8 181.38 109.61 180.69 C108.36 179.97 107.1 179.25 105.85 178.53 C103.25 177.04 100.65 175.54 98.05 174.04 C94.37 171.93 90.69 169.83 87.01 167.72 C86.43 167.4 85.86 167.07 85.26 166.73 C84.69 166.4 84.11 166.07 83.52 165.73 C72.32 159.35 61.15 152.93 49.99 146.48 C40.63 141.07 31.25 135.71 21.86 130.36 C20.22 129.42 20.22 129.42 18.55 128.47 C17.49 127.88 16.42 127.29 15.32 126.67 C12.17 124.81 12.17 124.81 9.07 122.58 C6.1 120.52 3.62 118.91 0.17 117.81 C-4.15 118.86 -7.26 121.24 -10.83 123.81 C-12.72 124.89 -14.62 125.94 -16.53 126.97 C-29.01 133.93 -41.41 141.03 -53.74 148.25 C-60.05 151.95 -66.37 155.6 -72.7 159.25 C-74.32 160.19 -74.32 160.19 -75.98 161.14 C-78.17 162.4 -80.36 163.66 -82.55 164.92 C-86.89 167.43 -91.24 169.93 -95.58 172.44 C-98.83 174.32 -102.09 176.19 -105.34 178.07 C-109.65 180.55 -113.95 183.04 -118.26 185.53 C-130.07 192.35 -141.89 199.14 -153.73 205.89 C-161.79 210.49 -169.82 215.13 -177.83 219.81 C-186.42 224.85 -195.05 229.82 -203.7 234.75 C-216.03 241.78 -228.33 248.86 -240.61 255.96 C-246.02 259.08 -251.42 262.2 -256.83 265.31 C-259 266.56 -261.16 267.81 -263.33 269.06 C-285 281.56 -306.66 294.06 -328.33 306.56 C-329.4 307.18 -330.47 307.8 -331.58 308.44 C-333.75 309.69 -335.92 310.94 -338.08 312.19 C-343.48 315.3 -348.87 318.41 -354.26 321.53 C-369.11 330.11 -383.98 338.63 -398.88 347.13 C-402.2 349.02 -405.51 350.92 -408.83 352.81 C-408.83 507.91 -408.83 663.01 -408.83 822.81 C-396.45 829.74 -396.45 829.74 -383.83 836.81 C-370.68 844.46 -370.68 844.46 -365.92 847.25 C-359.61 850.95 -353.29 854.6 -346.95 858.25 C-345.87 858.87 -344.79 859.5 -343.68 860.14 C-341.49 861.4 -339.3 862.66 -337.11 863.92 C-331.68 867.05 -326.26 870.18 -320.83 873.31 C-318.66 874.56 -316.5 875.81 -314.33 877.06 C-284 894.56 -253.66 912.06 -223.33 929.56 C-221.72 930.49 -221.72 930.49 -220.07 931.44 C-217.93 932.68 -215.78 933.92 -213.63 935.16 C-208.53 938.11 -203.42 941.05 -198.31 943.99 C-195.88 945.38 -193.45 946.78 -191.02 948.18 C-189.3 949.17 -187.57 950.16 -185.84 951.16 C-184.29 952.05 -184.29 952.05 -182.7 952.96 C-181.78 953.49 -180.86 954.02 -179.92 954.56 C-177.83 955.81 -177.83 955.81 -176.83 956.81 C-176.73 958.35 -176.71 959.88 -176.71 961.41 C-176.71 962.91 -176.71 962.91 -176.71 964.43 C-176.71 965.53 -176.71 966.63 -176.72 967.76 C-176.72 968.91 -176.72 970.06 -176.72 971.25 C-176.72 975.07 -176.72 978.9 -176.73 982.72 C-176.73 985.37 -176.74 988.01 -176.74 990.66 C-176.74 996.92 -176.75 1003.18 -176.76 1009.44 C-176.77 1016.57 -176.77 1023.7 -176.78 1030.82 C-176.79 1045.49 -176.81 1060.15 -176.83 1074.81 C-179.08 1073.7 -181.32 1072.58 -183.57 1071.46 C-184.2 1071.15 -184.83 1070.83 -185.49 1070.51 C-189.96 1068.28 -194.31 1065.91 -198.58 1063.31 C-200.03 1062.45 -201.47 1061.59 -202.92 1060.73 C-203.7 1060.27 -204.48 1059.8 -205.28 1059.32 C-210.21 1056.41 -215.18 1053.55 -220.14 1050.69 C-221.24 1050.06 -222.34 1049.42 -223.47 1048.77 C-232.21 1043.73 -240.97 1038.73 -249.73 1033.74 C-258.77 1028.58 -267.77 1023.36 -276.76 1018.1 C-284.38 1013.65 -292.03 1009.25 -299.7 1004.88 C-314.18 996.62 -328.61 988.3 -343.04 979.96 C-346.26 978.1 -349.48 976.24 -352.7 974.38 C-353.77 973.76 -354.84 973.15 -355.94 972.51 C-364.52 967.56 -373.13 962.65 -381.73 957.74 C-390.77 952.58 -399.77 947.36 -408.76 942.1 C-416.97 937.3 -425.22 932.57 -433.49 927.86 C-443.01 922.43 -452.52 916.96 -462.01 911.47 C-467.74 908.17 -473.48 904.87 -479.22 901.6 C-479.84 901.25 -480.47 900.89 -481.11 900.53 C-484.09 898.83 -487.07 897.14 -490.05 895.44 C-492.17 894.24 -494.28 893.01 -496.37 891.75 C-499.74 889.75 -499.74 889.75 -503.25 888.52 C-507.15 886.81 -510.26 885.29 -512.83 881.81 C-515.38 874.51 -514.56 866.19 -514.45 858.57 C-514.47 856.14 -514.48 853.71 -514.51 851.29 C-514.54 846.01 -514.54 840.73 -514.5 835.45 C-514.44 827.59 -514.46 819.74 -514.49 811.89 C-514.54 797.87 -514.52 783.84 -514.47 769.82 C-514.43 757.55 -514.41 745.28 -514.41 733.01 C-514.41 732.19 -514.41 731.38 -514.41 730.54 C-514.42 727.24 -514.42 723.93 -514.42 720.63 C-514.44 689.64 -514.39 658.65 -514.3 627.67 C-514.22 600.13 -514.2 572.59 -514.22 545.05 C-514.23 538 -514.24 530.94 -514.24 523.89 C-514.24 523.02 -514.24 522.15 -514.24 521.26 C-514.26 498.25 -514.24 475.25 -514.21 452.25 C-514.2 449.77 -514.2 447.3 -514.19 444.82 C-514.19 443.18 -514.19 441.54 -514.19 439.9 C-514.17 428.44 -514.17 416.99 -514.18 405.54 C-514.19 390.78 -514.17 376.03 -514.1 361.27 C-514.07 353.47 -514.06 345.66 -514.08 337.85 C-514.1 332.03 -514.07 326.21 -514.02 320.39 C-514.01 318.03 -514.01 315.67 -514.03 313.31 C-514.05 310.11 -514.02 306.91 -513.97 303.71 C-513.99 302.79 -514.01 301.86 -514.03 300.91 C-513.93 296.97 -513.79 294.73 -510.85 291.93 C-508.57 290.39 -506.28 289.07 -503.83 287.81 C-502.86 287.24 -501.89 286.66 -500.89 286.07 C-499.62 285.37 -499.62 285.37 -498.33 284.66 C-497.35 284.12 -496.38 283.58 -495.37 283.02 C-494.35 282.46 -493.32 281.9 -492.27 281.31 C-483.8 276.61 -475.37 271.84 -467.02 266.94 C-458.36 261.86 -449.67 256.85 -440.95 251.88 C-431.9 246.71 -422.85 241.53 -413.83 236.31 C-404.26 230.78 -394.66 225.28 -385.06 219.8 C-375.56 214.39 -366.09 208.93 -356.62 203.46 C-348.08 198.52 -339.5 193.63 -330.93 188.74 C-321.77 183.52 -312.65 178.22 -303.56 172.89 C-295.9 168.42 -288.19 164.05 -280.46 159.7 C-273.65 155.86 -266.89 151.95 -260.14 148 C-251.48 142.93 -242.8 137.91 -234.08 132.94 C-233.5 132.61 -232.91 132.27 -232.31 131.93 C-229.34 130.24 -226.37 128.54 -223.4 126.85 C-217.5 123.49 -211.6 120.12 -205.7 116.75 C-205.12 116.42 -204.54 116.09 -203.95 115.75 C-194.49 110.35 -185.05 104.91 -175.62 99.46 C-167.66 94.87 -159.69 90.3 -151.7 85.75 C-143.05 80.82 -134.42 75.85 -125.83 70.81 C-113.74 63.74 -101.58 56.79 -89.4 49.85 C-83.5 46.49 -77.6 43.12 -71.7 39.75 C-71.12 39.42 -70.55 39.09 -69.95 38.75 C-58.33 32.11 -46.74 25.43 -35.15 18.73 C-31.61 16.69 -28.07 14.65 -24.53 12.61 C-22.73 11.58 -20.93 10.54 -19.14 9.51 C-17.43 8.52 -15.72 7.54 -14.01 6.56 C-12.99 5.97 -11.96 5.37 -10.9 4.76 C-9.99 4.24 -9.08 3.72 -8.14 3.18 C-2.48 -0.16 -2.48 -0.16 0 0 Z " fill="#FEFEFE" transform="translate(514.82958984375,0.185302734375)"/>
<path d="M0 0 C3.59 0.9 5.85 1.88 9.02 3.67 C10.01 4.22 11 4.78 12.02 5.35 C13.09 5.96 14.15 6.56 15.25 7.19 C16.36 7.81 17.47 8.44 18.62 9.09 C27.11 13.89 35.55 18.8 43.96 23.74 C51.24 28 58.57 32.15 65.94 36.25 C73.44 40.43 80.9 44.66 88.28 49.04 C94.96 53 101.7 56.84 108.44 60.69 C117.64 65.93 126.83 71.2 136 76.5 C144.99 81.69 153.99 86.86 163 92 C173.09 97.76 183.16 103.54 193.21 109.36 C201.13 113.93 209.06 118.47 217 123 C227.09 128.76 237.16 134.54 247.21 140.36 C255.71 145.27 264.24 150.14 272.77 155.01 C282.25 160.42 291.71 165.86 301.16 171.34 C308.39 175.52 315.66 179.64 322.93 183.75 C324.53 184.65 324.53 184.65 326.16 185.57 C328.78 187.05 331.39 188.52 334 190 C334.41 246.15 334.79 302.29 335.02 358.44 C335.02 359.69 335.02 359.69 335.03 360.96 C335.1 379.02 335.16 397.09 335.23 415.15 C335.26 424.01 335.29 432.87 335.32 441.73 C335.32 442.62 335.32 443.5 335.33 444.4 C335.43 472.97 335.61 501.54 335.83 530.11 C336.06 559.47 336.21 588.83 336.25 618.19 C336.26 622.33 336.27 626.48 336.28 630.63 C336.28 631.86 336.28 631.86 336.28 633.11 C336.31 646.24 336.42 659.37 336.56 672.51 C336.71 685.72 336.76 698.93 336.72 712.14 C336.71 719.98 336.75 727.82 336.9 735.67 C337 741.54 336.97 747.4 336.9 753.26 C336.89 755.63 336.92 758 337 760.37 C337.43 774.83 337.43 774.83 334 781 C327.98 786.86 320.41 790.35 312.81 793.73 C309.19 795.37 305.85 797.3 302.45 799.34 C300.34 800.54 298.23 801.74 296.12 802.94 C293.75 804.29 291.38 805.64 289.01 807 C288.42 807.33 287.83 807.67 287.23 808.01 C281.14 811.49 275.07 814.99 269 818.5 C259.43 824.03 249.83 829.53 240.23 835.01 C230.73 840.43 221.26 845.88 211.79 851.35 C203.84 855.95 195.86 860.51 187.88 865.06 C179.22 870 170.6 874.97 162 880 C149.91 887.08 137.75 894.03 125.57 900.96 C119.67 904.33 113.77 907.69 107.88 911.06 C107.29 911.39 106.71 911.73 106.12 912.07 C96.66 917.47 87.22 922.9 77.79 928.35 C69.25 933.29 60.67 938.19 52.1 943.07 C42.94 948.3 33.82 953.59 24.73 958.92 C17.07 963.39 9.37 967.76 1.64 972.11 C-5.28 976.01 -12.15 979.98 -19 984 C-27.74 989.12 -36.53 994.14 -45.36 999.11 C-52.28 1003 -59.15 1006.98 -66 1011 C-74.74 1016.12 -83.53 1021.14 -92.36 1026.11 C-99.28 1030 -106.15 1033.98 -113 1038 C-121.72 1043.11 -130.5 1048.13 -139.32 1053.08 C-147.67 1057.78 -155.95 1062.62 -164.2 1067.51 C-165.15 1068.07 -166.09 1068.62 -167.07 1069.2 C-167.9 1069.69 -168.74 1070.19 -169.59 1070.69 C-174.39 1073.3 -174.39 1073.3 -177 1074 C-179.48 1073.16 -179.48 1073.16 -182.11 1071.62 C-183.1 1071.06 -184.09 1070.49 -185.11 1069.91 C-186.16 1069.28 -187.22 1068.65 -188.31 1068 C-189.42 1067.36 -190.53 1066.72 -191.68 1066.05 C-193.99 1064.71 -196.31 1063.36 -198.61 1062 C-201.74 1060.16 -204.87 1058.33 -208 1056.51 C-211.93 1054.22 -215.86 1051.93 -219.79 1049.62 C-226.41 1045.75 -233.08 1041.93 -239.75 1038.12 C-240.33 1037.79 -240.91 1037.46 -241.51 1037.12 C-247.48 1033.71 -253.45 1030.31 -259.42 1026.92 C-261.83 1025.54 -264.24 1024.17 -266.65 1022.8 C-268.27 1021.87 -269.9 1020.94 -271.53 1020.02 C-273.65 1018.81 -275.76 1017.57 -277.85 1016.31 C-280.96 1014.49 -284.13 1013.08 -287.45 1011.69 C-302.15 1005.06 -302.15 1005.06 -305.23 998.29 C-307.12 990.34 -306.52 982.23 -306.15 974.14 C-306.11 971.53 -306.08 968.93 -306.05 966.32 C-305.99 960.2 -305.81 954.08 -305.58 947.95 C-305.34 940.98 -305.22 934 -305.11 927.02 C-304.88 912.67 -304.49 898.34 -304 884 C-299.75 885.37 -296.08 886.93 -292.2 889.17 C-291.09 889.81 -289.98 890.44 -288.84 891.1 C-287.64 891.8 -286.45 892.49 -285.25 893.19 C-284 893.91 -282.75 894.63 -281.5 895.35 C-277.66 897.56 -273.83 899.78 -270 902 C-265.54 904.58 -261.08 907.17 -256.62 909.75 C-255.55 910.37 -254.48 910.99 -253.38 911.63 C-245.71 916.05 -237.97 920.31 -230.19 924.51 C-223.36 928.21 -216.64 932.08 -209.94 936 C-208.44 936.86 -208.44 936.86 -206.92 937.75 C-201.94 940.63 -197.05 943.6 -192.24 946.77 C-191.31 947.35 -190.39 947.94 -189.44 948.54 C-187.7 949.65 -185.98 950.79 -184.3 951.97 C-181.78 953.54 -179.93 954.5 -177 955 C-172.54 953.73 -168.9 951.46 -165 949 C-163.13 947.93 -161.26 946.87 -159.39 945.81 C-157.49 944.69 -155.59 943.56 -153.69 942.44 C-138.47 933.48 -123.09 924.81 -107.64 916.26 C-106.47 915.61 -105.3 914.96 -104.12 914.31 C-103.54 913.99 -102.96 913.67 -102.37 913.34 C-95.06 909.29 -87.8 905.18 -80.62 900.91 C-73.94 896.94 -67.19 893.1 -60.44 889.25 C-51.6 884.21 -42.78 879.14 -34 874 C-25.44 868.99 -16.86 864.04 -8.25 859.12 C-7.67 858.79 -7.08 858.46 -6.48 858.12 C-1.73 855.4 3.03 852.69 7.79 849.98 C11.95 847.61 16.1 845.24 20.25 842.88 C20.83 842.54 21.42 842.21 22.02 841.87 C30.04 837.29 38.03 832.66 46 828 C54.56 822.99 63.14 818.04 71.75 813.12 C72.33 812.79 72.92 812.46 73.52 812.12 C78.27 809.4 83.03 806.69 87.79 803.98 C91.95 801.61 96.1 799.24 100.25 796.88 C100.83 796.54 101.42 796.21 102.02 795.87 C110.04 791.29 118.03 786.66 126 782 C134.56 776.99 143.14 772.04 151.75 767.12 C152.33 766.79 152.92 766.46 153.52 766.12 C158.27 763.4 163.03 760.69 167.79 757.98 C171.95 755.61 176.1 753.24 180.25 750.88 C180.83 750.54 181.41 750.21 182 749.87 C191.26 744.59 200.47 739.25 209.66 733.87 C210.55 733.34 211.45 732.82 212.37 732.28 C213.62 731.52 213.62 731.52 214.9 730.75 C218 729 218 729 221.55 727.45 C228.83 724.2 228.83 724.2 233.29 717.87 C233.77 713.92 233.8 710.09 233.68 706.12 C233.69 704.6 233.7 703.07 233.72 701.54 C233.75 697.33 233.69 693.12 233.62 688.9 C233.56 684.3 233.58 679.69 233.59 675.08 C233.6 666.99 233.56 658.9 233.48 650.8 C233.37 638.93 233.34 627.05 233.33 615.18 C233.31 596.15 233.24 577.11 233.15 558.08 C232.97 523.12 232.98 488.15 233.01 453.19 C233.01 448.49 233.02 443.8 233.02 439.1 C233.02 437.95 233.02 437.95 233.02 436.77 C233.02 434.43 233.02 432.09 233.03 429.76 C233.03 428.99 233.03 428.21 233.03 427.42 C233.03 424.31 233.03 421.2 233.03 418.08 C233.04 414.21 233.04 410.33 233.04 406.45 C233.07 372.74 233.06 339.04 233.04 305.33 C233.03 302.6 233.03 299.88 233.03 297.15 C233.02 281.77 233.01 266.38 233 251 C229.44 248.94 225.88 246.89 222.32 244.84 C221.11 244.14 219.9 243.44 218.69 242.74 C210.14 237.81 201.58 232.89 193 228 C178.57 219.77 164.18 211.46 149.79 203.15 C136.96 195.73 124.11 188.34 111.23 180.99 C101.73 175.57 92.26 170.12 82.79 164.65 C74.84 160.05 66.86 155.49 58.88 150.94 C49.2 145.42 39.56 139.86 29.95 134.22 C20.02 128.39 10 122.72 0 117 C0 78.39 0 39.78 0 0 Z " fill="#FFFFFF" transform="translate(691,102)"/>
<path d="M0 0 C3.09 1.23 5.74 2.31 8.58 3.89 C9.59 4.45 9.59 4.45 10.62 5.02 C11.34 5.42 12.07 5.83 12.81 6.25 C13.59 6.69 14.37 7.12 15.18 7.57 C23.73 12.37 32.2 17.34 40.66 22.3 C47.05 26.04 53.46 29.74 59.88 33.44 C60.95 34.06 62.03 34.68 63.15 35.32 C65.34 36.59 67.53 37.85 69.72 39.11 C75.15 42.24 80.57 45.37 86 48.5 C88.17 49.75 90.33 51 92.5 52.25 C112 63.5 112 63.5 131.5 74.75 C132.57 75.37 133.65 75.99 134.75 76.63 C136.92 77.87 139.08 79.12 141.25 80.37 C146.69 83.51 152.13 86.65 157.57 89.79 C169.05 96.4 180.52 103.05 191.97 109.73 C202.53 115.9 213.12 122 223.72 128.11 C229.15 131.24 234.57 134.37 240 137.5 C242.17 138.75 244.33 140 246.5 141.25 C266 152.5 266 152.5 285.5 163.75 C286.57 164.37 287.65 164.99 288.76 165.63 C290.9 166.87 293.05 168.11 295.2 169.35 C300.28 172.28 305.35 175.21 310.44 178.12 C312.84 179.5 315.24 180.88 317.64 182.25 C319.33 183.23 321.03 184.2 322.73 185.17 C323.75 185.76 324.78 186.35 325.84 186.95 C326.74 187.47 327.64 187.99 328.57 188.52 C329.37 189.01 330.17 189.5 331 190 C331.7 190.43 332.4 190.85 333.12 191.29 C335 193 335 193 335.49 195.21 C335.49 196.08 335.48 196.95 335.48 197.84 C335.49 199.34 335.49 199.34 335.5 200.86 C335.48 202.5 335.48 202.5 335.45 204.17 C335.45 205.32 335.46 206.48 335.46 207.66 C335.45 211.48 335.42 215.29 335.39 219.11 C335.38 221.75 335.38 224.39 335.37 227.03 C335.36 233.28 335.33 239.52 335.29 245.77 C335.24 252.88 335.22 260 335.2 267.11 C335.16 281.74 335.09 296.37 335 311 C330.17 309.47 326.06 307.44 321.75 304.81 C320.23 303.91 318.72 303 317.2 302.09 C316.37 301.6 315.54 301.1 314.69 300.59 C309.67 297.62 304.62 294.72 299.56 291.81 C298.46 291.18 297.35 290.54 296.21 289.88 C293.94 288.57 291.67 287.26 289.4 285.96 C283.93 282.81 278.46 279.65 273 276.5 C270.83 275.25 268.67 274 266.5 272.75 C212.33 241.5 158.17 210.25 104 179 C103.67 235.1 103.34 291.2 103 349 C179.56 349 256.12 349 335 349 C335.36 413.5 335.36 413.5 335.44 440.42 C335.46 446.58 335.48 452.74 335.49 458.9 C335.5 459.67 335.5 460.44 335.5 461.24 C335.54 473.71 335.61 486.18 335.69 498.64 C335.78 511.44 335.83 524.23 335.85 537.02 C335.86 544.92 335.9 552.82 335.97 560.71 C336.02 566.76 336.03 572.82 336.02 578.87 C336.02 581.35 336.04 583.84 336.07 586.32 C336.12 589.71 336.11 593.09 336.08 596.48 C336.12 597.96 336.12 597.96 336.16 599.47 C336.08 603.51 336.03 605.99 333.06 608.9 C330.77 610.46 328.48 611.75 326 613 C324.67 613.76 323.35 614.52 322.03 615.28 C320.67 616.02 319.3 616.76 317.94 617.5 C310.66 621.49 303.47 625.61 296.31 629.81 C288.41 634.44 280.48 639.01 272.5 643.5 C264.62 647.93 256.8 652.43 249 657 C240.26 662.12 231.47 667.14 222.64 672.11 C215.72 676 208.85 679.98 202 684 C193.26 689.12 184.47 694.14 175.64 699.11 C168.76 702.98 161.93 706.94 155.12 710.94 C146.82 715.81 138.47 720.57 130.06 725.25 C122.56 729.43 115.1 733.66 107.72 738.04 C101.04 742 94.3 745.84 87.56 749.69 C78.36 754.93 69.17 760.2 60 765.5 C53.26 769.4 46.51 773.29 39.75 777.14 C39.14 777.49 38.53 777.84 37.91 778.19 C35.49 779.57 33.07 780.95 30.65 782.33 C22.65 786.89 14.67 791.49 6.79 796.26 C2.21 799 2.21 799 0 799 C-0.02 787.75 -0.04 776.5 -0.05 765.25 C-0.06 760.02 -0.06 754.79 -0.08 749.56 C-0.1 738.68 -0.09 727.8 -0.02 716.91 C0 712 -0.02 707.09 -0.1 702.18 C-0.15 698.98 -0.14 695.77 -0.14 692.56 C-0.18 691.47 -0.22 690.38 -0.26 689.26 C-0.21 684.72 -0.01 682.09 3.14 678.68 C7.71 675.12 12.56 672.33 17.93 670.14 C24.62 667.24 30.86 663.78 37.12 660.09 C40.06 658.37 43.02 656.69 45.98 655.01 C52.71 651.17 59.42 647.31 66.12 643.44 C67.19 642.82 68.26 642.21 69.36 641.57 C72.57 639.72 75.79 637.86 79 636 C92.95 627.94 106.91 619.9 120.9 611.92 C128.96 607.33 136.99 602.69 145 598 C154.77 592.28 164.59 586.65 174.42 581.04 C183.41 575.91 192.38 570.76 201.33 565.57 C211.53 559.68 221.77 553.85 232 548 C232.33 515.99 232.66 483.98 233 451 C156.11 451 79.22 451 0 451 C0 302.17 0 153.34 0 0 Z " fill="#FFFFFF" transform="translate(539,188)"/>
<path d="M0 0 C0 39.27 0 78.54 0 119 C-26.8 134.46 -26.8 134.46 -36.31 139.94 C-45.55 145.27 -54.79 150.62 -64 156 C-77.73 164.02 -91.51 171.96 -105.29 179.9 C-117.87 187.14 -130.43 194.41 -142.96 201.73 C-151.39 206.65 -159.84 211.53 -168.29 216.39 C-176.51 221.14 -184.72 225.91 -192.91 230.7 C-198.33 233.87 -203.75 237.01 -209.18 240.14 C-209.77 240.49 -210.37 240.83 -210.99 241.18 C-213.89 242.86 -216.8 244.53 -219.71 246.2 C-220.75 246.8 -221.79 247.4 -222.86 248.02 C-224.24 248.81 -224.24 248.81 -225.65 249.62 C-227.47 250.69 -229.25 251.83 -231 253 C-231.45 255.22 -231.45 255.22 -231.37 257.85 C-231.38 258.88 -231.38 259.92 -231.39 260.98 C-231.38 262.12 -231.37 263.26 -231.36 264.44 C-231.36 265.65 -231.37 266.85 -231.37 268.1 C-231.37 271.45 -231.36 274.81 -231.35 278.17 C-231.34 281.79 -231.34 285.41 -231.34 289.03 C-231.34 295.3 -231.33 301.57 -231.32 307.84 C-231.29 316.91 -231.28 325.98 -231.28 335.05 C-231.27 349.76 -231.25 364.48 -231.23 379.19 C-231.2 393.48 -231.18 407.78 -231.16 422.07 C-231.16 422.95 -231.16 423.83 -231.16 424.74 C-231.16 429.16 -231.15 433.58 -231.15 437.99 C-231.12 474.66 -231.07 511.33 -231 548 C-229.83 548.67 -229.83 548.67 -228.64 549.35 C-225.68 551.04 -222.72 552.73 -219.76 554.42 C-218.49 555.14 -217.22 555.87 -215.95 556.59 C-204.02 563.41 -192.12 570.27 -180.22 577.14 C-174.81 580.26 -169.41 583.38 -164 586.5 C-161.83 587.75 -159.67 589 -157.5 590.25 C-155.89 591.18 -155.89 591.18 -154.25 592.12 C-118.5 612.75 -118.5 612.75 -115.25 614.62 C-113.08 615.88 -110.91 617.13 -108.75 618.38 C-103.35 621.49 -97.96 624.6 -92.57 627.71 C-81.95 633.85 -71.31 639.97 -60.65 646.05 C-51.29 651.39 -41.94 656.76 -32.62 662.19 C-31.35 662.93 -31.35 662.93 -30.04 663.69 C-28.26 664.73 -26.5 665.8 -24.75 666.9 C-21.81 668.64 -18.79 669.95 -15.64 671.27 C-0.85 677.94 -0.85 677.94 2.24 684.71 C4.12 692.66 3.52 700.77 3.15 708.86 C3.11 711.47 3.08 714.07 3.05 716.68 C2.99 722.8 2.81 728.92 2.58 735.05 C2.34 742.02 2.22 749 2.11 755.98 C1.88 770.33 1.49 784.66 1 799 C-1.96 797.83 -4.8 796.65 -7.58 795.11 C-8.25 794.74 -8.92 794.37 -9.62 793.98 C-10.34 793.58 -11.07 793.17 -11.81 792.75 C-12.98 792.1 -12.98 792.1 -14.18 791.43 C-21.64 787.24 -29.03 782.92 -36.41 778.59 C-44.21 774.03 -52.03 769.53 -59.88 765.06 C-72.2 758.03 -84.5 750.96 -96.78 743.86 C-102.19 740.74 -107.59 737.62 -113 734.5 C-115.17 733.25 -117.33 732 -119.5 730.75 C-121.11 729.82 -121.11 729.82 -122.75 728.88 C-236.5 663.25 -236.5 663.25 -239.75 661.38 C-241.92 660.12 -244.09 658.87 -246.25 657.62 C-251.65 654.51 -257.04 651.4 -262.43 648.29 C-271.28 643.17 -280.14 638.06 -289.02 632.99 C-289.61 632.65 -290.2 632.31 -290.82 631.96 C-293.63 630.36 -296.44 628.76 -299.26 627.16 C-301.41 625.93 -303.54 624.66 -305.65 623.36 C-308.96 621.42 -312.28 620.16 -315.89 618.91 C-322.99 616.13 -329.16 613.04 -334 607 C-338.29 595.5 -337.1 582.36 -336.79 570.29 C-336.68 565.21 -336.72 560.13 -336.74 555.04 C-336.75 546.25 -336.67 537.46 -336.54 528.66 C-336.34 515.95 -336.28 503.24 -336.25 490.52 C-336.2 469.89 -336.04 449.27 -335.81 428.64 C-335.59 408.6 -335.42 388.57 -335.32 368.54 C-335.31 367.3 -335.31 366.07 -335.3 364.79 C-335.27 358.59 -335.24 352.39 -335.21 346.19 C-334.96 294.79 -334.54 243.4 -334 192 C-333.22 191.55 -332.44 191.11 -331.64 190.65 C-328.68 188.96 -325.72 187.27 -322.76 185.58 C-321.49 184.86 -320.22 184.13 -318.95 183.41 C-307.02 176.59 -295.12 169.73 -283.22 162.86 C-277.81 159.74 -272.41 156.62 -267 153.5 C-264.83 152.25 -262.67 151 -260.5 149.75 C-256.17 147.25 -251.83 144.75 -247.5 142.25 C-246.43 141.63 -245.36 141.01 -244.25 140.38 C-242.08 139.12 -239.91 137.87 -237.75 136.62 C-232.35 133.51 -226.96 130.4 -221.57 127.29 C-209.76 120.46 -197.94 113.68 -186.1 106.92 C-177.06 101.77 -168.06 96.55 -159.08 91.29 C-150.82 86.46 -142.52 81.71 -134.21 76.98 C-126.11 72.36 -118.04 67.71 -110 63 C-101.4 57.97 -92.78 53 -84.12 48.06 C-71.81 41.04 -59.53 33.97 -47.26 26.88 C-43.9 24.94 -40.55 23.01 -37.19 21.08 C-34.94 19.78 -32.69 18.48 -30.44 17.19 C-29.36 16.57 -28.28 15.95 -27.17 15.31 C-20.02 11.18 -12.9 7.02 -5.81 2.79 C-1.11 0 -1.11 0 0 0 Z " fill="#FFFFFF" transform="translate(489,188)"/>
</svg>
