<?xml version="1.0" encoding="UTF-8"?>
<!-- Generator: https://ezgif.com/png-to-svg -->
<svg version="1.1" xmlns="http://www.w3.org/2000/svg" width="512" height="512" viewBox="46.902 19.22 916.535 916.535" preserveAspectRatio="xMidYMid meet">
<path d="M0 0 C4.26 3.81 7.52 8.08 8.23 13.85 C8.58 20.75 6.35 25.62 3.25 31.69 C2.76 32.68 2.27 33.68 1.76 34.7 C-2.66 43.56 -7.42 52.24 -12.21 60.9 C-15.04 66.03 -17.69 71.23 -20.25 76.5 C-21.78 79.61 -23.35 82.66 -25.08 85.66 C-25.73 86.8 -26.39 87.95 -27.06 89.12 C-27.95 90.61 -27.95 90.61 -28.85 92.13 C-30.99 97.47 -28.63 102.4 -26.67 107.55 C-26.2 108.81 -25.73 110.07 -25.25 111.33 C-25.01 111.98 -24.76 112.63 -24.51 113.3 C-11.14 148.74 -11.14 148.74 -13.56 158.18 C-18.02 166.78 -25.29 173.36 -32.12 180.09 C-34.52 182.52 -36.73 185.09 -38.96 187.68 C-41.04 190.04 -43.17 192.34 -45.31 194.64 C-50.39 200.07 -55.23 205.61 -59.89 211.42 C-62.64 214.79 -65.54 218.01 -68.47 221.22 C-70.07 222.93 -70.07 222.93 -71 225 C-62.85 219.6 -55.24 213.9 -47.87 207.49 C-45.69 205.6 -43.5 203.8 -41.25 202 C-37.43 198.73 -34.45 194.78 -31.32 190.86 C-29.11 188.13 -26.81 185.53 -24.44 182.94 C-13.05 170.36 -6.56 160.83 -6.64 143.51 C-7.14 134.16 -10.1 124.93 -12.56 115.94 C-13.04 114.21 -13.49 112.48 -13.94 110.75 C-14.32 109.38 -14.32 109.38 -14.71 107.98 C-15.6 98.7 -10.65 90.32 -6.75 82.19 C-6.13 80.87 -5.5 79.56 -4.88 78.24 C-3.26 74.84 -1.62 71.44 0.02 68.04 C0.99 66.02 1.95 64 2.92 61.98 C4.45 58.77 5.99 55.57 7.55 52.38 C8.42 50.61 9.27 48.83 10.12 47.05 C13.95 39.29 17.8 33.37 25.44 29.06 C30.76 27.47 34.85 27.2 40.19 29.19 C45.36 32.52 48.84 36.19 51 42 C51.47 48.45 50.23 53.16 47.92 59.14 C47.6 60.01 47.28 60.88 46.94 61.77 C46.25 63.63 45.55 65.49 44.85 67.35 C42.98 72.29 41.16 77.24 39.33 82.19 C38.78 83.69 38.78 83.69 38.21 85.21 C23.38 125.3 23.38 125.3 13.42 166.77 C11.9 174.96 8.81 180.75 2.69 186.5 C-0.44 189.47 -3.4 192.42 -6.21 195.7 C-9.85 199.88 -13.69 203.84 -17.62 207.75 C-18.68 208.81 -18.68 208.81 -19.75 209.89 C-21.23 211.37 -22.71 212.84 -24.19 214.32 C-26.43 216.56 -28.67 218.8 -30.91 221.04 C-32.35 222.49 -33.8 223.93 -35.25 225.38 C-35.9 226.04 -36.56 226.7 -37.24 227.38 C-41.11 231.23 -45.09 234.9 -49.23 238.47 C-51.82 240.71 -54.31 243.04 -56.81 245.38 C-61.49 249.71 -66.34 253.77 -71.31 257.77 C-74.01 260.01 -76.56 262.35 -79.12 264.75 C-85.7 270.8 -92.83 276.09 -99.97 281.46 C-101.79 282.84 -103.58 284.26 -105.35 285.7 C-126.97 303.11 -151.57 311.26 -179 314 C-179.33 313.67 -179.66 313.34 -180 313 C-179.94 305.27 -178.23 297.71 -176.62 290.19 C-175.9 287.05 -175.9 287.05 -176 284 C-181.77 294.58 -187.08 305.25 -191.89 316.3 C-192.91 318.63 -193.94 320.97 -194.97 323.3 C-198.05 330.25 -201.1 337.21 -204.05 344.21 C-208.85 355.4 -213.51 364.21 -222.5 372.54 C-224.88 374.86 -227.01 377.4 -229.17 379.91 C-232.79 384.05 -236.61 388.01 -240.39 392 C-243.48 395.28 -246.52 398.58 -249.46 401.99 C-253.16 406.25 -257.11 410.22 -261.12 414.19 C-261.81 414.87 -262.5 415.56 -263.21 416.26 C-265.14 418.18 -267.07 420.09 -269 422 C-271.42 424.4 -273.81 426.8 -276.14 429.28 C-283.28 436.79 -290.45 442.05 -301.06 442.38 C-308.82 442.29 -314.42 440.36 -320.1 435.03 C-324.23 430.49 -327.07 426.5 -327.81 420.31 C-327.92 419.52 -328.03 418.74 -328.14 417.93 C-327.76 410.06 -324.16 404.14 -319.38 398.12 C-318.84 397.43 -318.3 396.74 -317.75 396.02 C-316.18 394 -314.59 392 -313 390 C-312.24 389.05 -311.48 388.1 -310.7 387.12 C-308.49 384.4 -306.25 381.7 -304 379 C-295.99 369.35 -288.07 359.65 -280.37 349.75 C-278.89 347.87 -277.4 345.99 -275.91 344.12 C-275.4 343.49 -274.89 342.85 -274.37 342.19 C-273.4 340.97 -272.42 339.75 -271.44 338.53 C-269.45 336.02 -268.02 334.06 -267 331 C-262.37 331.58 -257.77 333.22 -254 336 C-253.05 337.77 -253.05 337.77 -253 340 C-254.31 342.64 -254.31 342.64 -256.44 345.81 C-256.83 346.4 -257.22 346.99 -257.62 347.59 C-259.07 349.74 -260.53 351.87 -262 354 C-262.62 354.9 -263.24 355.8 -263.87 356.73 C-269.87 365.45 -275.89 374.15 -282.16 382.68 C-285.43 387.16 -288.51 391.72 -291.44 396.44 C-292.09 397.46 -292.09 397.46 -292.75 398.5 C-293.37 399.49 -293.37 399.49 -294 400.5 C-294.36 401.08 -294.72 401.65 -295.1 402.25 C-296.07 404.14 -296.56 405.92 -297 408 C-291.68 403.73 -287.35 399.18 -283.18 393.77 C-281.24 391.3 -279.21 388.94 -277.13 386.58 C-254.56 360.77 -238.94 328.51 -232 295 C-231.81 294.11 -231.62 293.22 -231.42 292.31 C-229.78 283.47 -229.64 274.61 -229.52 265.64 C-229.25 254.07 -227.41 244.12 -220 235 C-219.52 234.39 -219.04 233.77 -218.55 233.14 C-206.64 219.58 -184.14 215.99 -167.52 211.88 C-156.18 208.76 -148.53 201.74 -140 194 C-139.04 193.14 -138.08 192.29 -137.09 191.4 C-135.49 189.97 -133.9 188.52 -132.32 187.07 C-129.79 184.82 -127.19 182.69 -124.56 180.56 C-119.73 176.65 -115.12 172.53 -110.54 168.33 C-99.8 158.48 -88.56 149.15 -77.43 139.75 C-73.61 136.52 -69.8 133.27 -66 130 C-68.13 121.16 -70.38 112.43 -73.17 103.77 C-75.43 96.22 -76.3 89.62 -72.61 82.42 C-72.27 81.79 -71.92 81.15 -71.56 80.5 C-71.2 79.81 -70.84 79.12 -70.46 78.4 C-69.33 76.26 -68.17 74.13 -67 72 C-66.66 71.38 -66.32 70.75 -65.96 70.11 C-64.2 66.91 -62.41 63.73 -60.59 60.56 C-58.65 57.16 -56.74 53.74 -54.84 50.31 C-48.72 39.27 -42.51 28.27 -36.12 17.38 C-35.53 16.34 -34.94 15.3 -34.33 14.23 C-30.11 7.12 -25.57 1.14 -17.94 -2.44 C-11.44 -3.68 -5.76 -3.33 0 0 Z " fill="#0973C9" transform="translate(669,72)"/>
<path d="M0 0 C24.4 -0.85 47.21 7.56 66.7 21.83 C68.28 23.54 68.6 24.94 68.98 27.21 C65.9 28.13 63.26 28.29 60.05 28.17 C38.64 27.62 20.21 32.28 3.8 46.75 C1.98 48.21 1.98 48.21 -0.02 48.21 C-0.28 48.79 -0.55 49.37 -0.82 49.96 C-2.08 52.33 -3.54 54.16 -5.27 56.21 C-15.14 68.78 -19.55 83.31 -18.02 99.21 C-15.62 112.3 -9.74 124.95 0.98 133.21 C8.94 138.85 8.94 138.85 17.98 141.21 C17.4 140.63 16.82 140.05 16.22 139.45 C7.81 130.62 1.29 120.47 1.45 107.93 C2.5 102.53 6.24 99.04 9.98 95.21 C10.73 94.44 11.48 93.67 12.25 92.87 C23.69 81.82 38.91 73.9 54.98 73.21 C55.72 73.16 56.47 73.11 57.23 73.06 C69.6 72.57 83.11 75.39 92.98 83.21 C93.83 85.94 93.83 85.94 93.98 88.21 C93.05 88.51 92.12 88.8 91.16 89.1 C81.71 92.23 75.14 95 70.04 103.9 C66.78 111.12 66.95 117.94 69.42 125.4 C73.32 134 80.72 138.55 89.11 142.21 C97.15 145.03 104.5 145.61 112.98 145.84 C116.94 145.96 120.9 146.09 124.98 146.21 C124.98 158.42 124.98 170.63 124.98 183.21 C117.09 186.6 117.09 186.6 112.86 187.35 C111.94 187.51 111.01 187.68 110.05 187.85 C109.08 188.01 108.11 188.17 107.11 188.34 C106.09 188.51 105.07 188.68 104.02 188.86 C95.33 190.27 86.77 191.03 77.98 191.21 C77.29 191.24 76.59 191.26 75.88 191.28 C62.84 191.64 49.94 190.67 36.98 189.21 C35.83 189.09 35.83 189.09 34.65 188.95 C13.46 186.4 -8.06 180.01 -27.02 170.21 C-27.66 169.88 -28.3 169.55 -28.96 169.21 C-36.98 165.01 -44.19 160.16 -51.02 154.21 C-51.86 153.49 -52.71 152.77 -53.57 152.03 C-67.06 140.22 -74.64 128.58 -79.02 111.21 C-79.49 111.52 -79.96 111.83 -80.44 112.15 C-123.6 140.58 -166.68 164.62 -218.02 174.21 C-218.86 174.38 -219.71 174.55 -220.58 174.72 C-233.29 177.13 -245.93 177.5 -258.83 177.53 C-259.61 177.53 -260.38 177.53 -261.18 177.54 C-276.35 177.58 -291.1 176.13 -305.96 172.96 C-306.98 172.75 -308 172.53 -309.05 172.31 C-339.35 165.63 -371.38 151.69 -395.02 131.21 C-396.58 128.1 -396.16 124.8 -396.15 121.39 C-396.15 120.61 -396.15 119.83 -396.16 119.03 C-396.16 117.37 -396.15 115.72 -396.15 114.07 C-396.14 111.55 -396.15 109.04 -396.16 106.53 C-396.16 104.92 -396.15 103.31 -396.15 101.7 C-396.15 100.96 -396.16 100.21 -396.16 99.45 C-396.14 94.94 -395.76 90.66 -395.02 86.21 C-390.94 86.75 -388.99 88.85 -386.08 91.65 C-364.57 111.78 -338.53 126.7 -310.02 134.21 C-308.75 134.56 -307.48 134.9 -306.17 135.25 C-285.94 139.69 -262.14 138.84 -242.02 134.21 C-240.15 133.8 -240.15 133.8 -238.25 133.37 C-234.46 132.44 -230.74 131.37 -227.02 130.21 C-226.29 129.99 -225.55 129.76 -224.8 129.53 C-192.11 119.23 -162.05 101.38 -136.02 79.21 C-134.93 78.3 -133.84 77.38 -132.74 76.46 C-127.52 72.07 -122.34 67.65 -117.22 63.14 C-113.06 59.5 -108.85 55.91 -104.65 52.32 C-102.37 50.38 -100.11 48.42 -97.86 46.45 C-69.33 21.64 -38.29 2.72 0 0 Z " fill="#066BBF" transform="translate(647.01953125,385.78515625)"/>
<path d="M0 0 C2.28 1.22 3.47 2.58 5.08 4.6 C37.03 42.62 93.43 58.69 140.83 62.98 C148.15 63.52 155.48 63.8 162.83 63.98 C164.48 64.02 164.48 64.02 166.17 64.07 C169.06 64.1 171.94 64.06 174.83 63.98 C175.52 63.96 176.21 63.94 176.92 63.92 C189.17 63.57 201.11 62.3 213.2 60.35 C217.06 59.8 220.95 59.41 224.83 58.98 C224.83 65.25 224.83 71.52 224.83 77.98 C214.68 81.36 214.68 81.36 210.98 82.04 C210.14 82.19 209.3 82.35 208.43 82.51 C207.55 82.66 206.67 82.82 205.77 82.98 C204.82 83.14 203.88 83.31 202.91 83.48 C195.74 84.72 188.55 85.75 181.33 86.66 C180.39 86.78 179.45 86.9 178.48 87.03 C163.65 88.81 148.93 89.22 134.02 89.23 C132.52 89.23 132.52 89.23 130.99 89.23 C115.72 89.21 100.89 88.67 85.83 85.98 C84.8 85.8 83.77 85.62 82.71 85.44 C53.39 80.31 21.95 71.7 -2.29 53.66 C-4.96 51.77 -4.96 51.77 -7.59 51.98 C-11.05 53.32 -14.21 55.09 -17.42 56.91 C-43.96 71.39 -73.52 79.84 -103.17 84.98 C-104.08 85.13 -104.98 85.29 -105.91 85.46 C-108.44 85.89 -110.96 86.31 -113.48 86.73 C-114.19 86.84 -114.9 86.96 -115.63 87.08 C-126.76 88.79 -137.87 89.17 -149.11 89.16 C-149.79 89.16 -150.46 89.16 -151.16 89.16 C-162.93 89.14 -174.49 88.46 -186.17 86.98 C-187.01 86.88 -187.84 86.78 -188.7 86.68 C-224.43 82.56 -264.58 71.12 -294.17 49.98 C-296.43 46.59 -296.42 45.42 -296.4 41.45 C-296.4 40.35 -296.4 39.26 -296.4 38.12 C-296.39 36.96 -296.37 35.8 -296.36 34.6 C-296.35 33.43 -296.35 32.25 -296.34 31.04 C-296.27 23.32 -296.04 15.66 -295.17 7.98 C-290.66 8.52 -287.99 10.26 -284.3 12.85 C-232.22 47.61 -163.43 54.6 -103.15 43.24 C-92.65 41.12 -82.4 38.11 -72.17 34.98 C-71.42 34.75 -70.66 34.53 -69.89 34.3 C-47.27 27.51 -23.95 15.57 -4.95 1.61 C-2.17 -0.02 -2.17 -0.02 0 0 Z " fill="#0667BB" transform="translate(547.171875,546.0234375)"/>
<path d="M0 0 C9.9 0 19.8 0 30 0 C36.14 12.01 41.7 24.18 47.06 36.56 C48.59 40.09 50.13 43.61 51.66 47.13 C52.03 47.97 52.39 48.82 52.77 49.69 C55.63 56.23 58.62 62.7 61.69 69.14 C63 72 63 72 64 75 C64.33 50.25 64.66 25.5 65 0 C74.24 0 83.48 0 93 0 C94.72 1.72 94.13 3.97 94.13 6.31 C94.13 8.04 94.13 8.04 94.14 9.81 C94.13 11.72 94.13 11.72 94.13 13.67 C94.13 15.02 94.13 16.37 94.13 17.72 C94.14 21.39 94.14 25.06 94.13 28.73 C94.13 32.57 94.13 36.4 94.14 40.23 C94.14 46.67 94.14 53.11 94.13 59.55 C94.12 67.01 94.13 74.46 94.13 81.92 C94.14 88.31 94.14 94.7 94.13 101.09 C94.13 104.91 94.13 108.73 94.14 112.55 C94.14 116.14 94.14 119.74 94.13 123.33 C94.13 125.28 94.13 127.24 94.14 129.19 C94.13 130.35 94.13 131.5 94.13 132.69 C94.13 134.2 94.13 134.2 94.13 135.74 C94 138 94 138 93 139 C90.78 139.09 88.56 139.11 86.34 139.1 C85.34 139.1 85.34 139.1 84.33 139.09 C82.2 139.09 80.07 139.08 77.94 139.06 C76.5 139.06 75.06 139.05 73.62 139.05 C70.08 139.04 66.54 139.02 63 139 C60.55 133.48 58.1 127.96 55.65 122.44 C54.83 120.58 54 118.72 53.17 116.86 C45.23 99 37.6 81.01 30 63 C29.99 63.94 29.98 64.87 29.97 65.84 C29.87 74.66 29.77 83.47 29.66 92.28 C29.61 96.82 29.55 101.35 29.5 105.88 C29.46 110.25 29.4 114.62 29.35 118.99 C29.33 120.66 29.31 122.33 29.29 124 C29.27 126.34 29.24 128.67 29.21 131 C29.2 131.7 29.19 132.4 29.19 133.12 C29.11 137.89 29.11 137.89 28 139 C18.76 139 9.52 139 0 139 C0 93.13 0 47.26 0 0 Z " fill="#F6F6F3" transform="translate(653,666)"/>
<path d="M0 0 C6.85 -0.08 13.69 -0.13 20.54 -0.16 C22.86 -0.18 25.18 -0.2 27.51 -0.23 C65.12 -0.64 65.12 -0.64 78.09 10.85 C85.61 18.83 88.14 27.72 88.16 38.48 C88.17 39.58 88.17 39.58 88.18 40.71 C88.19 43.13 88.2 45.56 88.2 47.98 C88.21 49.23 88.21 49.23 88.21 50.5 C88.23 54.91 88.24 59.32 88.24 63.73 C88.25 68.26 88.27 72.79 88.3 77.32 C88.32 80.82 88.32 84.32 88.32 87.83 C88.33 89.5 88.33 91.17 88.35 92.84 C88.45 106.87 87.09 117.87 77.48 128.72 C70.08 135.8 59.46 139.14 49.38 139.11 C48.28 139.11 47.18 139.11 46.05 139.11 C44.28 139.11 44.28 139.11 42.48 139.1 C41.27 139.1 40.05 139.09 38.8 139.09 C34.93 139.09 31.06 139.08 27.19 139.06 C24.56 139.06 21.93 139.05 19.31 139.05 C12.87 139.04 6.44 139.02 0 139 C-0.98 135.73 -1.11 132.8 -1.08 129.39 C-1.08 128.25 -1.07 127.11 -1.06 125.94 C-1.04 124.06 -1.04 124.06 -1.02 122.15 C-1.01 120.84 -1 119.52 -0.99 118.16 C-0.97 114.55 -0.93 110.94 -0.9 107.33 C-0.87 103.56 -0.84 99.79 -0.81 96.02 C-0.75 88.87 -0.69 81.73 -0.63 74.59 C-0.55 66.45 -0.49 58.32 -0.42 50.19 C-0.29 33.46 -0.15 16.73 0 0 Z M30 26 C29.98 37.2 29.96 48.39 29.95 59.59 C29.94 64.79 29.94 69.98 29.92 75.18 C29.91 80.19 29.91 85.21 29.91 90.22 C29.9 92.13 29.9 94.05 29.89 95.97 C29.89 98.64 29.89 101.32 29.89 103.99 C29.88 104.79 29.88 105.59 29.88 106.42 C29.55 110.01 29.55 110.01 31 113 C38.13 113.54 45.92 113.54 52.38 110.31 C56.09 107.04 57.78 103.83 58.38 98.9 C58.38 97.79 58.39 96.69 58.39 95.55 C58.4 94.3 58.41 93.04 58.42 91.74 C58.41 90.38 58.41 89.02 58.4 87.66 C58.4 86.25 58.4 84.84 58.41 83.43 C58.41 80.48 58.41 77.54 58.39 74.59 C58.37 70.82 58.38 67.06 58.4 63.3 C58.41 60.39 58.41 57.48 58.4 54.57 C58.4 53.18 58.4 51.8 58.41 50.41 C58.44 42.25 58.35 36.12 53.81 29.19 C48.56 25.75 42.76 25.9 36.71 25.95 C35.45 25.96 34.19 25.96 32.9 25.97 C31.94 25.98 30.99 25.99 30 26 Z " fill="#F3F2EF" transform="translate(161,666)"/>
<path d="M0 0 C63.12 0 63.12 0 74 9 C74.64 9.5 75.27 10.01 75.93 10.52 C82.13 15.98 85.41 23.98 87 32 C87.1 34.36 87.15 36.73 87.16 39.09 C87.17 40.15 87.17 40.15 87.18 41.23 C87.19 43.56 87.2 45.89 87.2 48.23 C87.21 49.86 87.21 51.49 87.22 53.11 C87.23 56.53 87.24 59.95 87.24 63.37 C87.25 67.73 87.27 72.08 87.3 76.44 C87.32 79.81 87.32 83.18 87.32 86.55 C87.33 88.15 87.33 89.76 87.35 91.36 C87.45 105.05 85.99 117.26 76.34 127.82 C56.37 145.96 23.02 139 0 139 C0 93.13 0 47.26 0 0 Z M29 27 C29 55.05 29 83.1 29 112 C45.74 113.49 45.74 113.49 54 108 C57.85 101.16 57.44 94.07 57.4 86.38 C57.4 85.07 57.4 83.77 57.41 82.43 C57.41 79.69 57.41 76.94 57.39 74.2 C57.37 70.7 57.38 67.21 57.4 63.71 C57.42 60.35 57.41 56.99 57.4 53.62 C57.4 52.38 57.41 51.13 57.42 49.85 C57.36 42.17 57.29 35.29 51.56 29.56 C44.38 25.18 37.96 27 29 27 Z " fill="#F5F5F2" transform="translate(763,666)"/>
<path d="M0 0 C7.24 -0.07 14.48 -0.12 21.73 -0.16 C25.09 -0.17 28.45 -0.19 31.82 -0.23 C35.7 -0.26 39.58 -0.28 43.46 -0.29 C45.24 -0.32 45.24 -0.32 47.06 -0.34 C57.66 -0.34 67.53 1.22 76 8 C84.12 16.12 86.13 25.51 86.24 36.63 C86.25 37.47 86.25 38.3 86.26 39.16 C86.28 40.92 86.29 42.68 86.3 44.44 C86.31 46.22 86.33 48 86.36 49.78 C86.58 63.38 86.22 74.74 76.27 85.06 C66.27 93.61 54.54 94.31 41.94 94.12 C40.79 94.12 39.63 94.11 38.45 94.1 C35.63 94.07 32.82 94.04 30 94 C30 94.55 30 95.1 30.01 95.66 C30.03 101.36 30.04 107.05 30.05 112.74 C30.06 114.87 30.07 117 30.08 119.13 C30.09 122.18 30.09 125.23 30.1 128.28 C30.11 129.71 30.11 129.71 30.11 131.18 C30.11 132.5 30.11 132.5 30.11 133.85 C30.12 134.63 30.12 135.41 30.12 136.21 C30 138 30 138 29 139 C26.94 139.1 24.88 139.13 22.81 139.13 C21.56 139.13 20.3 139.14 19.01 139.14 C18.35 139.13 17.69 139.13 17.02 139.13 C15.01 139.13 13 139.13 10.99 139.14 C9.74 139.14 8.48 139.13 7.19 139.13 C6.03 139.13 4.86 139.13 3.67 139.13 C1 139 1 139 0 138 C-0.1 136.22 -0.12 134.43 -0.12 132.64 C-0.12 131.48 -0.12 130.32 -0.12 129.12 C-0.12 127.83 -0.12 126.54 -0.11 125.22 C-0.11 123.86 -0.11 122.5 -0.11 121.14 C-0.11 117.44 -0.11 113.73 -0.1 110.03 C-0.1 106.17 -0.09 102.3 -0.09 98.44 C-0.09 91.11 -0.08 83.79 -0.07 76.47 C-0.06 68.13 -0.06 59.79 -0.05 51.46 C-0.04 34.3 -0.02 17.15 0 0 Z M30 27 C30 40.2 30 53.4 30 67 C44.82 68.05 44.82 68.05 53 64 C57.26 58.8 56.51 52.98 56.5 46.56 C56.54 44.88 56.54 44.88 56.59 43.17 C56.7 36.28 56.7 36.28 53.72 30.28 C46.83 24.5 39.33 27 30 27 Z " fill="#F6F5F3" transform="translate(430,666)"/>
<path d="M0 0 C1.01 -0 1.01 -0 2.03 -0.01 C4.26 -0.01 6.49 -0.01 8.72 -0 C10.27 -0 11.81 -0.01 13.35 -0.01 C16.59 -0.01 19.83 -0.01 23.07 -0 C27.23 0 31.39 0 35.55 -0 C38.74 -0.01 41.92 -0.01 45.11 -0 C46.65 -0 48.18 -0 49.71 -0.01 C51.86 -0.01 54 -0.01 56.14 0 C57.97 0 57.97 0 59.84 0 C62.57 0.13 62.57 0.13 63.57 1.13 C63.67 2.89 63.7 4.65 63.7 6.41 C63.7 7.48 63.7 8.55 63.71 9.65 C63.7 10.78 63.7 11.91 63.69 13.07 C63.7 14.19 63.7 15.31 63.71 16.47 C63.7 17.54 63.7 18.61 63.7 19.72 C63.7 20.71 63.7 21.7 63.7 22.72 C63.57 25.13 63.57 25.13 62.57 27.13 C49.7 27.13 36.83 27.13 23.57 27.13 C23.57 36.7 23.57 46.27 23.57 56.13 C34.79 56.13 46.01 56.13 57.57 56.13 C57.57 64.71 57.57 73.29 57.57 82.13 C46.35 82.13 35.13 82.13 23.57 82.13 C23.57 92.36 23.57 102.59 23.57 113.13 C25.73 112.96 27.9 112.8 30.13 112.63 C37.4 112.14 44.66 112.02 51.94 112 C52.96 112 53.98 112 55.02 111.99 C55.97 111.99 56.92 111.99 57.9 112 C58.76 112 59.61 112 60.48 112 C62.57 112.13 62.57 112.13 64.57 113.13 C64.6 117.28 64.62 121.42 64.63 125.57 C64.64 126.75 64.65 127.93 64.66 129.15 C64.66 130.28 64.66 131.4 64.67 132.56 C64.67 133.61 64.68 134.65 64.68 135.72 C64.57 138.13 64.57 138.13 63.57 139.13 C61.4 139.23 59.22 139.26 57.04 139.26 C56.36 139.26 55.68 139.26 54.98 139.26 C52.72 139.27 50.46 139.27 48.19 139.26 C46.63 139.26 45.06 139.26 43.5 139.27 C40.21 139.27 36.93 139.26 33.64 139.26 C29.42 139.25 25.2 139.26 20.98 139.26 C17.75 139.27 14.51 139.27 11.28 139.26 C9.72 139.26 8.16 139.26 6.61 139.27 C4.44 139.27 2.26 139.26 0.09 139.26 C-1.15 139.26 -2.38 139.26 -3.66 139.26 C-6.43 139.13 -6.43 139.13 -7.43 138.13 C-7.53 136.36 -7.56 134.59 -7.56 132.81 C-7.56 131.66 -7.56 130.51 -7.57 129.32 C-7.57 128.05 -7.56 126.77 -7.56 125.46 C-7.56 124.11 -7.56 122.76 -7.57 121.41 C-7.57 117.74 -7.57 114.07 -7.57 110.4 C-7.56 106.56 -7.57 102.73 -7.57 98.89 C-7.57 92.46 -7.57 86.02 -7.56 79.58 C-7.56 72.12 -7.56 64.67 -7.56 57.21 C-7.57 50.82 -7.57 44.43 -7.57 38.04 C-7.56 34.22 -7.56 30.4 -7.57 26.58 C-7.57 22.98 -7.57 19.39 -7.56 15.8 C-7.56 13.85 -7.56 11.89 -7.57 9.94 C-7.56 8.78 -7.56 7.63 -7.56 6.44 C-7.56 5.44 -7.56 4.43 -7.56 3.39 C-7.3 -1.28 -3.96 0 0 0 Z " fill="#F4F3F0" transform="translate(270.431640625,665.87060546875)"/>
<path d="M0 0 C23.1 0 46.2 0 70 0 C70 8.58 70 17.16 70 26 C69 27 69 27 65.31 27.11 C63.66 27.11 62.02 27.11 60.37 27.1 C59.07 27.1 59.07 27.1 57.75 27.09 C54.98 27.09 52.21 27.08 49.44 27.06 C47.56 27.06 45.69 27.05 43.81 27.05 C39.21 27.04 34.6 27.02 30 27 C30 36.57 30 46.14 30 56 C32.37 55.99 34.74 55.98 37.18 55.96 C39.47 55.96 41.76 55.95 44.04 55.95 C45.64 55.94 47.23 55.93 48.83 55.92 C51.11 55.91 53.4 55.91 55.68 55.9 C56.4 55.9 57.12 55.89 57.86 55.89 C59.57 55.89 61.29 55.94 63 56 C64.72 57.72 64.13 59.97 64.13 62.31 C64.13 63.39 64.14 64.46 64.14 65.57 C64.13 66.7 64.13 67.83 64.12 69 C64.13 70.13 64.13 71.26 64.14 72.43 C64.14 73.5 64.13 74.58 64.13 75.69 C64.13 76.68 64.13 77.68 64.13 78.7 C64 81 64 81 63 82 C60.55 82.09 58.13 82.12 55.68 82.1 C54.95 82.1 54.22 82.09 53.47 82.09 C51.12 82.09 48.78 82.08 46.44 82.06 C44.85 82.06 43.27 82.05 41.68 82.05 C37.79 82.04 33.89 82.02 30 82 C30.33 91.9 30.66 101.8 31 112 C33.64 111.98 36.27 111.95 38.99 111.93 C41.54 111.91 44.09 111.9 46.64 111.89 C48.42 111.88 50.19 111.87 51.97 111.85 C54.51 111.82 57.06 111.81 59.61 111.8 C60.41 111.79 61.2 111.78 62.02 111.77 C65.88 111.77 67.71 111.81 71 114 C71.36 116.41 71.36 116.41 71.33 119.41 C71.32 120.48 71.32 121.55 71.31 122.66 C71.29 123.78 71.27 124.91 71.25 126.06 C71.24 127.19 71.24 128.32 71.23 129.48 C71.15 137.85 71.15 137.85 70 139 C67.82 139.09 65.64 139.12 63.46 139.11 C62.42 139.11 62.42 139.11 61.36 139.11 C59.1 139.11 56.85 139.11 54.59 139.1 C53.2 139.1 51.81 139.1 50.42 139.09 C45.26 139.09 40.1 139.08 34.94 139.06 C23.41 139.04 11.88 139.02 0 139 C0 93.13 0 47.26 0 0 Z " fill="#F5F5F2" transform="translate(569,666)"/>
<path d="M0 0 C22.77 0 45.54 0 69 0 C70.71 1.71 70.13 3.94 70.13 6.28 C70.13 7.35 70.14 8.42 70.14 9.52 C70.13 10.65 70.13 11.78 70.12 12.94 C70.13 14.06 70.13 15.18 70.14 16.34 C70.14 17.41 70.13 18.49 70.13 19.59 C70.13 20.58 70.13 21.57 70.13 22.59 C70 25 70 25 69 27 C56.13 27 43.26 27 30 27 C30 36.57 30 46.14 30 56 C40.89 56 51.78 56 63 56 C63.69 59.43 64.13 61.95 64.13 65.32 C64.13 66.1 64.14 66.89 64.14 67.69 C64.13 68.49 64.13 69.3 64.12 70.12 C64.13 70.94 64.13 71.75 64.14 72.58 C64.14 73.36 64.13 74.14 64.13 74.95 C64.13 75.65 64.13 76.36 64.13 77.09 C64 79 64 79 63 82 C52.11 82 41.22 82 30 82 C30 92.23 30 102.46 30 113 C33.47 112.89 33.47 112.89 37.01 112.78 C39.26 112.71 41.52 112.64 43.77 112.57 C45.33 112.52 46.89 112.48 48.45 112.43 C50.7 112.36 52.95 112.29 55.2 112.22 C55.89 112.2 56.58 112.18 57.29 112.15 C68.62 111.81 68.62 111.81 71 113 C71.03 117.15 71.05 121.29 71.06 125.44 C71.07 126.62 71.08 127.81 71.09 129.03 C71.09 130.15 71.09 131.27 71.1 132.43 C71.1 133.48 71.11 134.52 71.11 135.59 C71 138 71 138 70 139 C67.82 139.09 65.64 139.12 63.46 139.11 C62.42 139.11 62.42 139.11 61.36 139.11 C59.1 139.11 56.85 139.11 54.59 139.1 C53.2 139.1 51.81 139.1 50.42 139.09 C45.26 139.09 40.1 139.08 34.94 139.06 C23.41 139.04 11.88 139.02 0 139 C0 93.13 0 47.26 0 0 Z " fill="#F5F4F2" transform="translate(347,666)"/>
<path d="M0 0 C6.24 5.01 12.54 11.88 14 20 C15.59 38.1 9.7 53.95 -1.88 67.94 C-7.38 73.79 -13.59 77.65 -21.75 78.13 C-31.34 77.57 -39.87 71.8 -46.33 65.02 C-55.16 54.32 -57.84 42.64 -56.75 28.89 C-54.77 16.46 -48.82 6.03 -38.61 -1.45 C-25.31 -9.33 -12.71 -8.18 0 0 Z " fill="#066CC1" transform="translate(420,316)"/>
<path d="M0 0 C2.05 4.22 3.03 8.77 4.12 13.31 C4.31 14.05 4.49 14.79 4.68 15.56 C5.12 17.37 5.56 19.19 6 21 C6.12 20.4 6.23 19.81 6.35 19.2 C6.88 16.5 7.41 13.81 7.94 11.12 C8.21 9.72 8.21 9.72 8.49 8.29 C8.67 7.39 8.84 6.49 9.03 5.57 C9.19 4.74 9.35 3.92 9.52 3.06 C10 1 10 1 11 -1 C14.3 -1 17.6 -1 21 -1 C20.41 7.89 18.56 16.41 16.62 25.08 C16.06 27.59 15.51 30.09 14.97 32.6 C14.62 34.2 14.26 35.79 13.91 37.38 C13.75 38.13 13.59 38.88 13.42 39.65 C13.01 41.45 12.51 43.23 12 45 C9.77 46.11 8.47 46.16 6 46.19 C5.3 46.2 4.6 46.22 3.88 46.23 C2 46 2 46 0 44 C-0.79 41.23 -1.49 38.5 -2.12 35.69 C-2.31 34.93 -2.49 34.17 -2.68 33.38 C-3.57 29.52 -4.24 25.99 -4 22 C-4.66 22 -5.32 22 -6 22 C-6.16 23.23 -6.16 23.23 -6.33 24.49 C-8.51 39.82 -8.51 39.82 -11 45 C-14.47 46.16 -17.36 46.07 -21 46 C-23.16 40.53 -24.81 35.19 -26.08 29.45 C-26.25 28.67 -26.43 27.89 -26.61 27.08 C-26.98 25.45 -27.34 23.82 -27.7 22.18 C-28.25 19.67 -28.82 17.17 -29.39 14.67 C-29.75 13.08 -30.1 11.48 -30.45 9.89 C-30.62 9.14 -30.79 8.39 -30.97 7.62 C-31.7 4.25 -32.11 2.33 -31 -1 C-28.03 -1 -25.06 -1 -22 -1 C-19.43 6.23 -17.63 13.51 -16 21 C-15.88 20.37 -15.76 19.75 -15.64 19.1 C-15.08 16.27 -14.48 13.45 -13.88 10.62 C-13.69 9.64 -13.5 8.66 -13.3 7.64 C-12.72 4.95 -12.12 2.51 -11 0 C-6.84 -2.35 -4.08 -2.6 0 0 Z " fill="#F7F7F6" transform="translate(708,840)"/>
<path d="M0 0 C1.51 0.02 1.51 0.02 3.06 0.04 C4.07 0.04 5.08 0.05 6.12 0.06 C7.3 0.08 7.3 0.08 8.5 0.1 C11.74 6.93 14.21 13.9 16.5 21.1 C18.16 18.61 19.03 16.88 19.97 14.12 C20.36 12.99 20.36 12.99 20.76 11.84 C21.02 11.06 21.29 10.28 21.56 9.47 C24.37 1.23 24.37 1.23 25.5 0.1 C29.46 0.1 33.42 0.1 37.5 0.1 C37.5 15.28 37.5 30.46 37.5 46.1 C34.54 47.58 31.75 47.16 28.5 47.1 C26.39 42.82 26.25 38.96 26.37 34.29 C26.38 33.59 26.39 32.9 26.4 32.19 C26.42 30.49 26.46 28.79 26.5 27.1 C26.15 27.95 25.8 28.81 25.44 29.69 C24.98 30.79 24.53 31.9 24.06 33.04 C23.61 34.14 23.15 35.24 22.69 36.38 C21.5 39.1 21.5 39.1 20.5 40.1 C17.12 40.47 17.12 40.47 13.5 40.1 C9.98 36.2 9.15 31.07 7.5 26.1 C7.17 32.7 6.84 39.3 6.5 46.1 C-0.5 47.1 -0.5 47.1 -3.5 45.1 C-3.87 43.19 -3.87 43.19 -3.86 40.85 C-3.86 39.97 -3.87 39.09 -3.87 38.19 C-3.86 37.24 -3.84 36.29 -3.83 35.31 C-3.83 34.34 -3.83 33.37 -3.83 32.37 C-3.82 30.31 -3.81 28.26 -3.79 26.2 C-3.75 23.04 -3.74 19.89 -3.74 16.73 C-3.73 14.74 -3.72 12.74 -3.71 10.75 C-3.7 9.8 -3.7 8.85 -3.69 7.87 C-3.68 6.99 -3.67 6.12 -3.67 5.22 C-3.66 4.45 -3.65 3.67 -3.64 2.87 C-3.42 0.02 -2.87 0.11 0 0 Z " fill="#F6F6F5" transform="translate(759.50390625,838.90234375)"/>
<path d="M0 0 C1.6 -0.11 3.21 -0.19 4.81 -0.25 C5.71 -0.3 6.6 -0.34 7.52 -0.39 C10 0 10 0 11.76 1.9 C12.92 3.86 13.91 5.76 14.79 7.86 C15.09 8.56 15.39 9.26 15.7 9.99 C16.01 10.72 16.31 11.44 16.62 12.19 C18.31 16.93 18.31 16.93 21 21 C20.99 20.15 20.99 20.15 20.98 19.29 C20.96 16.73 20.95 14.18 20.94 11.62 C20.93 10.74 20.92 9.85 20.91 8.93 C20.91 8.08 20.91 7.23 20.9 6.35 C20.89 5.17 20.89 5.17 20.89 3.97 C21 2 21 2 22 0 C25.3 0 28.6 0 32 0 C32 15.18 32 30.36 32 46 C27.54 46.5 27.54 46.5 23 47 C20.42 44.42 19.4 43.14 17.96 39.99 C17.61 39.23 17.25 38.47 16.89 37.69 C16.36 36.51 16.36 36.51 15.81 35.31 C15.44 34.52 15.08 33.72 14.7 32.9 C13.79 30.93 12.9 28.97 12 27 C10.98 32.24 11.03 37.08 11.26 42.39 C11.17 43.25 11.09 44.11 11 45 C7.34 47.44 5.31 47.24 1 47 C0 46 0 46 -0.12 44.13 C-0.12 43.32 -0.12 42.5 -0.11 41.66 C-0.11 40.74 -0.11 39.82 -0.11 38.87 C-0.11 37.87 -0.1 36.87 -0.1 35.84 C-0.1 34.82 -0.09 33.8 -0.09 32.75 C-0.09 29.48 -0.08 26.21 -0.06 22.94 C-0.06 20.73 -0.05 18.51 -0.05 16.3 C-0.04 10.87 -0.02 5.43 0 0 Z " fill="#F8F8F6" transform="translate(585,839)"/>
<path d="M0 0 C3.3 0 6.6 0 10 0 C10.96 3.84 11.1 6.82 11.06 10.75 C11.05 11.92 11.04 13.09 11.04 14.3 C11.02 15.19 11.01 16.08 11 17 C13.97 17.33 16.94 17.66 20 18 C19.99 16.78 19.98 15.57 19.96 14.32 C19.96 12.73 19.95 11.15 19.94 9.56 C19.93 8.76 19.92 7.96 19.91 7.13 C19.9 5.09 19.95 3.04 20 1 C21 0 21 0 23.03 -0.13 C23.85 -0.13 24.66 -0.13 25.5 -0.12 C26.31 -0.13 27.13 -0.13 27.97 -0.13 C30 0 30 0 31 1 C31.1 2.41 31.13 3.82 31.13 5.23 C31.13 6.13 31.14 7.02 31.14 7.95 C31.14 8.92 31.13 9.9 31.13 10.91 C31.13 12.4 31.13 12.4 31.14 13.92 C31.14 16.03 31.13 18.14 31.13 20.25 C31.13 23.49 31.13 26.73 31.14 29.96 C31.14 32.01 31.13 34.05 31.13 36.09 C31.13 37.07 31.14 38.05 31.14 39.05 C31.14 39.95 31.13 40.85 31.13 41.77 C31.13 42.57 31.13 43.36 31.13 44.18 C31 46 31 46 30 47 C22.48 47.24 22.48 47.24 20 46 C20 40.06 20 34.12 20 28 C17.03 28.33 14.06 28.66 11 29 C10.67 34.61 10.34 40.22 10 46 C7.02 47.49 4.28 47.12 1 47 C0 46 0 46 -0.12 44.13 C-0.12 43.32 -0.12 42.5 -0.11 41.66 C-0.11 40.74 -0.11 39.82 -0.11 38.87 C-0.11 37.87 -0.1 36.87 -0.1 35.84 C-0.1 34.82 -0.09 33.8 -0.09 32.75 C-0.09 29.48 -0.08 26.21 -0.06 22.94 C-0.06 20.73 -0.05 18.51 -0.05 16.3 C-0.04 10.87 -0.02 5.43 0 0 Z " fill="#F5F5F4" transform="translate(209,839)"/>
<path d="M0 0 C4.08 2.23 6.25 4.69 8.31 8.81 C8.62 12.86 8.67 16.91 8.72 20.97 C8.75 22.98 8.82 24.98 8.89 26.99 C9.02 37.89 9.02 37.89 5.54 42.11 C1.75 45.79 -1.82 47.11 -7.06 47.19 C-12.08 47.08 -14.91 46.31 -18.69 42.81 C-24.12 37.01 -23.28 30.41 -23.19 22.81 C-23.2 21.55 -23.22 20.3 -23.23 19 C-23.19 7.54 -23.19 7.54 -18.69 2.81 C-12.62 -1.48 -7.12 -2.29 0 0 Z M-11.69 10.81 C-12 13.3 -12 13.3 -11.95 16.19 C-11.96 17.25 -11.96 18.32 -11.96 19.42 C-11.95 20.54 -11.95 21.66 -11.94 22.81 C-11.95 23.93 -11.95 25.05 -11.96 26.2 C-11.96 27.27 -11.96 28.34 -11.95 29.44 C-11.95 30.42 -11.95 31.4 -11.95 32.41 C-11.92 35 -11.92 35 -9.69 36.81 C-7.19 37.15 -7.19 37.15 -4.69 36.81 C-0.29 32.42 -1.54 23.53 -1.46 17.64 C-1.72 14.41 -2.31 11.19 -4.69 8.81 C-8.65 8.42 -8.65 8.42 -11.69 10.81 Z " fill="#F7F7F6" transform="translate(434.6875,839.1875)"/>
<path d="M0 0 C3.3 0 6.6 0 10 0 C10.33 11.88 10.66 23.76 11 36 C13.31 36 15.62 36 18 36 C20.4 32.39 20.35 29.66 20.41 25.49 C20.43 24.76 20.45 24.03 20.47 23.28 C20.53 20.96 20.58 18.64 20.62 16.31 C20.66 14.74 20.7 13.16 20.74 11.58 C20.84 7.72 20.92 3.86 21 0 C22.65 -0.03 24.29 -0.05 25.94 -0.06 C26.85 -0.07 27.77 -0.09 28.71 -0.1 C31 0 31 0 32 1 C32.13 3.37 32.19 5.7 32.2 8.07 C32.21 8.78 32.21 9.5 32.22 10.24 C32.23 11.75 32.24 13.27 32.24 14.79 C32.25 17.09 32.28 19.4 32.31 21.7 C32.32 23.18 32.32 24.66 32.33 26.13 C32.34 26.82 32.35 27.5 32.37 28.2 C32.34 34.15 30.92 38.71 27.06 43.31 C22.2 47.29 18.07 47.43 11.92 47.32 C7.98 46.89 5.86 45.72 3 43 C-1.07 37.53 -1.13 32.2 -1.13 25.55 C-1.13 24.85 -1.13 24.15 -1.14 23.42 C-1.14 21.95 -1.13 20.48 -1.13 19.01 C-1.12 16.74 -1.13 14.48 -1.14 12.22 C-1.14 10.79 -1.13 9.35 -1.13 7.92 C-1.13 6.62 -1.13 5.31 -1.13 3.97 C-1 1 -1 1 0 0 Z " fill="#F9F9F8" transform="translate(452,839)"/>
<path d="M0 0 C4.23 2.82 7.17 5.95 8.81 10.88 C9.1 14.95 9.09 19.04 9.12 23.12 C9.15 24.25 9.18 25.37 9.21 26.52 C9.26 33.22 8.92 37.49 4.81 42.88 C0.04 46.6 -3.72 47.53 -9.75 47.26 C-14.52 46.5 -17.91 44.58 -20.85 40.65 C-22.46 37.3 -22.58 34.92 -22.59 31.22 C-22.59 29.95 -22.59 28.68 -22.6 27.37 C-22.59 26.05 -22.57 24.73 -22.56 23.38 C-22.57 22.06 -22.59 20.74 -22.6 19.38 C-22.59 18.11 -22.59 16.84 -22.59 15.53 C-22.58 14.37 -22.58 13.22 -22.58 12.03 C-21.99 7.29 -20.18 4.77 -16.69 1.62 C-11.48 -2.02 -5.83 -2.06 0 0 Z M-10.91 10.59 C-12.33 13.14 -12.57 14.6 -12.59 17.5 C-12.59 18.37 -12.59 19.24 -12.6 20.14 C-12.59 21.04 -12.57 21.95 -12.56 22.88 C-12.57 23.78 -12.59 24.68 -12.6 25.61 C-12.59 26.48 -12.59 27.35 -12.59 28.25 C-12.58 29.04 -12.58 29.83 -12.58 30.65 C-12.09 33.43 -11.11 34.83 -9.19 36.88 C-6.64 37.46 -6.64 37.46 -4.19 36.88 C-1.21 32.4 -1.86 28.14 -1.88 22.88 C-1.86 21.86 -1.84 20.85 -1.83 19.81 C-1.83 18.84 -1.82 17.87 -1.82 16.88 C-1.82 15.99 -1.82 15.1 -1.82 14.19 C-2.02 11.83 -2.02 11.83 -3.46 10.06 C-6.32 8.1 -8.46 8.16 -10.91 10.59 Z " fill="#F6F6F4" transform="translate(271.1875,839.125)"/>
<path d="M0 0 C3.04 2.05 4.82 3.65 6.69 6.81 C7 10.56 7 10.56 6.69 13.81 C5.69 14.81 5.69 14.81 1.81 15.19 C-0.39 15.18 -0.39 15.18 -2.31 14.81 C-4 12.31 -4 12.31 -5.31 9.81 C-7.94 9.39 -7.94 9.39 -10.31 9.81 C-10.64 10.8 -10.97 11.79 -11.31 12.81 C-8.07 16.6 -3.68 18.1 0.78 20.12 C4.03 22.01 5.7 23.63 7.69 26.81 C8.72 32.01 8.3 36.55 6 41.31 C2.93 44.63 0.35 46.56 -4.18 47.25 C-10.75 47.25 -15.16 47.08 -20.31 42.81 C-22.83 38.35 -23.31 36.01 -23.31 30.81 C-20.01 30.81 -16.71 30.81 -13.31 30.81 C-12.65 32.46 -11.99 34.11 -11.31 35.81 C-9 35.81 -6.69 35.81 -4.31 35.81 C-3.54 33.98 -3.54 33.98 -3.31 31.81 C-6.28 27.92 -11.07 26.47 -15.4 24.51 C-18.64 22.62 -20.31 20.97 -22.31 17.81 C-23.36 12.95 -22.8 8.84 -20.69 4.38 C-14.88 -1.89 -7.84 -2.81 0 0 Z " fill="#F8F8F7" transform="translate(664.3125,839.1875)"/>
<path d="M0 0 C1.37 0.02 1.37 0.02 2.78 0.04 C3.7 0.04 4.62 0.05 5.56 0.06 C6.27 0.07 6.98 0.09 7.71 0.1 C10.09 5.32 11.79 10.49 13.27 16.02 C13.49 16.85 13.71 17.68 13.94 18.53 C14.4 20.27 14.87 22.01 15.32 23.75 C16.03 26.42 16.76 29.09 17.48 31.76 C17.93 33.45 18.38 35.14 18.83 36.84 C19.05 37.63 19.27 38.43 19.49 39.26 C19.99 41.18 20.37 43.14 20.71 45.1 C18.71 47.1 18.71 47.1 16.77 47.29 C14.75 47.23 12.73 47.16 10.71 47.1 C7.71 40.35 7.71 40.35 7.71 38.1 C2.76 38.59 2.76 38.59 -2.29 39.1 C-2.72 40.8 -2.72 40.8 -3.16 42.54 C-3.53 43.71 -3.9 44.89 -4.29 46.1 C-7.5 47.7 -10.72 47.16 -14.29 47.1 C-15.64 42.71 -14.51 39.33 -13.27 35.04 C-13.05 34.26 -12.83 33.48 -12.6 32.68 C-11.9 30.19 -11.19 27.71 -10.47 25.22 C-10 23.56 -9.53 21.89 -9.06 20.23 C-3.39 0.14 -3.39 0.14 0 0 Z M1.71 17.1 C1.05 21.06 0.39 25.02 -0.29 29.1 C1.36 29.1 3.01 29.1 4.71 29.1 C6.01 26.5 5.53 25.34 4.9 22.54 C4.73 21.73 4.56 20.92 4.38 20.09 C3.91 17.9 3.91 17.9 1.71 17.1 Z " fill="#F8F7F7" transform="translate(558.28515625,838.90234375)"/>
<path d="M0 0 C0.91 -0.02 1.81 -0.04 2.75 -0.06 C9.36 -0.1 12.68 0.79 17.54 5.44 C19.74 9.06 19.81 12.14 19.69 16.25 C19.69 16.95 19.7 17.65 19.71 18.37 C19.65 22.83 18.94 25.69 16.25 29.25 C11.6 33.47 6.17 32.46 0.25 32.25 C0.25 36.87 0.25 41.49 0.25 46.25 C-3 47.88 -6.14 47.36 -9.75 47.25 C-11.31 45.69 -10.88 44.19 -10.88 42.02 C-10.88 41.12 -10.89 40.23 -10.89 39.3 C-10.89 38.33 -10.88 37.35 -10.88 36.34 C-10.88 35.35 -10.88 34.35 -10.89 33.33 C-10.89 31.22 -10.88 29.11 -10.88 27 C-10.88 23.76 -10.88 20.52 -10.89 17.29 C-10.89 15.24 -10.88 13.2 -10.88 11.16 C-10.88 10.18 -10.89 9.2 -10.89 8.2 C-10.89 7.3 -10.88 6.4 -10.88 5.48 C-10.88 4.68 -10.88 3.89 -10.88 3.07 C-10.54 -1.71 -3.62 0.02 0 0 Z M0.25 11.25 C0.18 13.1 0.17 14.96 0.19 16.81 C0.2 17.82 0.21 18.84 0.21 19.88 C0.23 20.66 0.24 21.44 0.25 22.25 C2.64 22.9 2.64 22.9 5.25 23.25 C7.71 21.79 7.71 21.79 9.25 19.25 C9.75 15.14 9.58 13.74 7.25 10.25 C3.45 9.69 3.45 9.69 0.25 11.25 Z " fill="#F7F7F5" transform="translate(298.75,838.75)"/>
<path d="M0 0 C4.38 2.95 6.33 5.32 7.56 10.5 C7.6 11.59 7.64 12.69 7.69 13.81 C5.29 16.21 4.35 16.16 1.06 16.44 C0.25 16.51 -0.57 16.59 -1.41 16.66 C-2.04 16.71 -2.67 16.76 -3.31 16.81 C-3.97 14.5 -4.63 12.19 -5.31 9.81 C-6.98 9.77 -8.65 9.77 -10.31 9.81 C-12.03 11.53 -11.44 13.79 -11.45 16.12 C-11.45 17.2 -11.45 18.28 -11.45 19.38 C-11.45 20.51 -11.44 21.65 -11.44 22.81 C-11.44 23.94 -11.45 25.08 -11.45 26.24 C-11.45 27.85 -11.45 27.85 -11.45 29.5 C-11.44 30.49 -11.44 31.49 -11.44 32.51 C-11.57 34.78 -11.57 34.78 -10.31 35.81 C-7.98 35.85 -5.65 35.85 -3.31 35.81 C-2.98 33.83 -2.65 31.85 -2.31 29.81 C4.31 29.56 4.31 29.56 7.69 31.81 C7.32 39.05 7.32 39.05 4.31 42.69 C0.19 46.02 -1.91 47.11 -7.19 47.12 C-8.22 47.14 -9.24 47.16 -10.3 47.18 C-15.52 46.55 -18.92 43.69 -22.31 39.81 C-24.11 34.42 -23.58 28.64 -23.62 23 C-23.65 21.73 -23.68 20.46 -23.71 19.15 C-23.79 7.54 -23.79 7.54 -19.31 2.81 C-13.71 -2.11 -6.85 -2.46 0 0 Z " fill="#F7F8F6" transform="translate(531.3125,839.1875)"/>
<path d="M0 0 C4.15 -0.03 8.29 -0.05 12.44 -0.06 C14.21 -0.08 14.21 -0.08 16.03 -0.09 C17.15 -0.09 18.27 -0.09 19.43 -0.1 C20.48 -0.1 21.52 -0.11 22.59 -0.11 C25 0 25 0 26 1 C26.24 7.53 26.24 7.53 25 10 C21.84 10.41 21.84 10.41 17.94 10.62 C16.65 10.7 15.36 10.77 14.03 10.85 C13.03 10.9 12.03 10.95 11 11 C11 12.98 11 14.96 11 17 C12.07 17.09 12.07 17.09 13.15 17.18 C14.07 17.27 14.99 17.35 15.94 17.44 C17.31 17.56 17.31 17.56 18.71 17.68 C21 18 21 18 22 19 C22.13 20.81 22.13 20.81 22.12 23 C22.13 24.08 22.13 24.08 22.13 25.19 C22 27 22 27 21 28 C19.32 28.23 17.63 28.41 15.94 28.56 C14.56 28.69 14.56 28.69 13.15 28.82 C12.44 28.88 11.73 28.94 11 29 C11 31.31 11 33.62 11 36 C11.92 35.99 12.83 35.98 13.77 35.96 C15.56 35.95 15.56 35.95 17.38 35.94 C19.15 35.92 19.15 35.92 20.96 35.9 C24 36 24 36 26 37 C26.2 43.05 26.2 43.05 26 45 C24 47 24 47 21.68 47.24 C20.73 47.24 19.78 47.23 18.81 47.23 C17.78 47.23 16.76 47.23 15.7 47.22 C14.62 47.21 13.55 47.2 12.44 47.19 C11.36 47.19 10.28 47.19 9.17 47.19 C1.14 47.14 1.14 47.14 0 46 C-0.09 44.56 -0.12 43.11 -0.11 41.66 C-0.11 40.74 -0.11 39.82 -0.11 38.87 C-0.11 37.87 -0.1 36.87 -0.1 35.84 C-0.1 34.82 -0.09 33.8 -0.09 32.75 C-0.09 29.48 -0.08 26.21 -0.06 22.94 C-0.06 20.73 -0.05 18.51 -0.05 16.3 C-0.04 10.87 -0.02 5.43 0 0 Z " fill="#F6F6F5" transform="translate(326,839)"/>
<path d="M0 0 C3.05 -0.29 5.96 -0.41 9 0 C12.71 3.71 13.63 10 15 15 C15.66 15 16.32 15 17 15 C17.16 14.13 17.16 14.13 17.33 13.24 C18.31 8.4 19.55 4.35 22 0 C25.3 0 28.6 0 32 0 C33.21 4.84 31.94 6.97 29.81 11.19 C29.33 12.2 29.33 12.2 28.83 13.24 C27.51 15.99 26.17 18.69 24.68 21.35 C21.15 27.94 21.38 34.97 21.18 42.28 C21 46 21 46 20 47 C18.5 47.1 17 47.13 15.5 47.12 C14.69 47.13 13.87 47.13 13.03 47.13 C11 47 11 47 10 46 C10.02 44.11 10.04 42.21 10.06 40.32 C10.06 29.5 7.13 21.25 2.42 11.57 C1.74 10.17 1.74 10.17 1.05 8.75 C0.64 7.93 0.22 7.11 -0.21 6.26 C-1.11 3.7 -0.93 2.51 0 0 Z " fill="#F7F7F6" transform="translate(375,839)"/>
<path d="M0 0 C0.81 0 1.63 0.01 2.47 0.01 C3.28 0.01 4.1 0 4.94 0 C6.97 0.13 6.97 0.13 7.97 1.13 C8.08 2.5 8.12 3.88 8.13 5.25 C8.14 6.13 8.15 7 8.16 7.9 C8.16 8.85 8.17 9.81 8.17 10.79 C8.18 11.76 8.18 12.73 8.19 13.73 C8.2 15.78 8.21 17.84 8.21 19.9 C8.22 23.05 8.25 26.21 8.28 29.37 C8.29 31.36 8.29 33.35 8.3 35.35 C8.31 36.3 8.32 37.25 8.33 38.22 C8.33 39.1 8.33 39.98 8.33 40.88 C8.33 41.66 8.33 42.43 8.34 43.23 C8.21 43.86 8.09 44.49 7.97 45.13 C4.31 47.57 2.28 47.37 -2.03 47.13 C-3.59 45.57 -3.16 44.07 -3.16 41.9 C-3.16 41.01 -3.17 40.11 -3.17 39.18 C-3.17 38.21 -3.17 37.23 -3.16 36.23 C-3.17 35.23 -3.17 34.24 -3.17 33.21 C-3.17 31.1 -3.17 28.99 -3.16 26.89 C-3.16 23.65 -3.16 20.41 -3.17 17.17 C-3.17 15.12 -3.17 13.08 -3.16 11.04 C-3.17 10.06 -3.17 9.09 -3.17 8.08 C-3.17 7.18 -3.16 6.29 -3.16 5.36 C-3.16 4.57 -3.16 3.77 -3.16 2.95 C-2.98 0.34 -2.61 0.17 0 0 Z " fill="#F7F6F5" transform="translate(739.03125,838.8671875)"/>
<path d="M0 0 C5.17 3.33 8.65 7 10.81 12.81 C11.3 19.33 10 24.11 7.66 30.16 C7.34 31.05 7.01 31.93 6.67 32.85 C5.6 35.71 4.52 38.58 3.44 41.44 C1.96 45.39 0.49 49.35 -0.98 53.31 C-1.52 54.78 -1.52 54.78 -2.08 56.28 C-4.29 62.26 -6.38 68.25 -8.34 74.31 C-8.56 75.02 -8.79 75.73 -9.03 76.46 C-10.07 79.7 -11.09 82.95 -12.09 86.2 C-12.45 87.32 -12.8 88.45 -13.17 89.6 C-13.47 90.57 -13.76 91.53 -14.07 92.53 C-15.41 95.27 -16.48 95.61 -19.19 96.81 C-17.76 89.68 -15.66 82.95 -13.27 76.09 C-12.69 74.43 -12.69 74.43 -12.11 72.73 C-11.3 70.4 -10.49 68.07 -9.68 65.74 C-8.45 62.22 -7.23 58.7 -6.02 55.18 C-2.36 44.63 1.28 34.15 5.83 23.95 C7.65 18.14 7.4 12.4 4.81 6.81 C3.82 6.48 2.83 6.15 1.81 5.81 C1.81 5.15 1.81 4.49 1.81 3.81 C-4.19 2.31 -10.19 2.31 -16.19 3.81 C-16.19 4.47 -16.19 5.13 -16.19 5.81 C-17.09 6.51 -17.99 7.21 -18.92 7.93 C-22.72 10.98 -24.48 14.52 -26.5 18.88 C-26.85 19.58 -27.19 20.29 -27.55 21.02 C-29.4 24.82 -29.4 24.82 -30.66 28.84 C-31.48 31.92 -33.37 34.23 -35.19 36.81 C-36.18 36.15 -37.17 35.49 -38.19 34.81 C-36.48 31.23 -34.76 27.65 -33.02 24.09 C-32.14 22.29 -31.28 20.48 -30.42 18.67 C-26.46 10.58 -22.71 4.36 -14.75 -0.12 C-9.43 -1.71 -5.34 -1.99 0 0 Z " fill="#1D91E7" transform="translate(709.1875,101.1875)"/>
<path d="M0 0 C0.99 0.33 1.98 0.66 3 1 C2.27 5 1.51 9 0.75 13 C0.55 14.13 0.34 15.25 0.13 16.41 C-1.74 26.08 -4.03 32.66 -11.31 39.5 C-14.46 42.49 -17.45 45.47 -20.29 48.75 C-24.38 53.5 -28.72 57.98 -33.12 62.44 C-33.91 63.25 -34.7 64.07 -35.5 64.9 C-36.65 66.06 -36.65 66.06 -37.82 67.25 C-38.5 67.94 -39.19 68.64 -39.89 69.36 C-42.28 71.22 -44.02 71.65 -47 72 C-45.62 70 -45.62 70 -44 68 C-43.34 68 -42.68 68 -42 68 C-41.79 67.46 -41.58 66.92 -41.36 66.37 C-39.48 63.1 -36.88 60.67 -34.19 58.06 C-33.67 57.55 -33.14 57.04 -32.61 56.51 C-31.57 55.49 -30.53 54.47 -29.49 53.46 C-25.86 49.91 -22.34 46.32 -19 42.5 C-16.1 39.21 -13.1 36.1 -10 33 C-4.01 25.88 -3.35 15.11 -1.65 6.19 C-1 3 -1 3 0 0 Z " fill="#1A8BDF" transform="translate(683,219)"/>
<path d="M0 0 C1.65 0 3.3 0 5 0 C5.33 11.22 5.66 22.44 6 34 C6.66 34 7.32 34 8 34 C9.12 37.75 9.12 37.75 8 40 C4.6 38.87 3.31 37.7 1 35 C-0.32 31.35 -0.11 27.67 -0.1 23.83 C-0.1 23.15 -0.09 22.46 -0.09 21.76 C-0.09 19.59 -0.08 17.42 -0.06 15.25 C-0.06 13.77 -0.05 12.3 -0.05 10.82 C-0.04 7.22 -0.02 3.61 0 0 Z " fill="#EFEEEA" transform="translate(454,842)"/>
<path d="M0 0 C0.33 0 0.66 0 1 0 C2.17 6.29 3.04 11.4 -0.62 16.94 C-1.71 18.32 -2.84 19.68 -4 21 C-4.45 21.56 -4.91 22.12 -5.38 22.7 C-6.62 24.12 -6.62 24.12 -9 26 C-11.15 25.62 -11.15 25.62 -13 25 C-12.05 23.83 -11.09 22.66 -10.12 21.5 C-9.59 20.85 -9.06 20.2 -8.51 19.53 C-8.01 19.03 -7.51 18.52 -7 18 C-6.34 18 -5.68 18 -5 18 C-1.86 11.95 -0.56 6.77 0 0 Z " fill="#1B8FE4" transform="translate(653,219)"/>
<path d="M0 0 C1.7 0.46 1.7 0.46 3.44 0.94 C10.83 2.61 18.46 2.67 26 3 C26 3.66 26 4.32 26 5 C16.44 6.09 8.72 6.88 0 2 C0 1.34 0 0.68 0 0 Z " fill="#0959D8" transform="translate(738,529)"/>
<path d="M0 0 C0.99 0 1.98 0 3 0 C2.58 1.77 2.13 3.54 1.69 5.31 C1.44 6.3 1.2 7.28 0.95 8.3 C-0 11 -0.82 12.21 -3 14 C-4.26 10.22 -3.48 8.97 -2.06 5.31 C-1.68 4.32 -1.3 3.32 -0.91 2.3 C-0.61 1.54 -0.31 0.78 0 0 Z " fill="#1994E6" transform="translate(689,200)"/>
<path d="M0 0 C1 3.65 1.37 7.22 1.72 10.98 C1.9 13.06 1.9 13.06 3 15 C2.34 15.66 1.68 16.32 1 17 C0.67 15.68 0.34 14.36 0 13 C-0.66 13 -1.32 13 -2 13 C-3.12 5.38 -3.12 5.38 -2 2 C-1.34 2 -0.68 2 0 2 C0 1.34 0 0.68 0 0 Z " fill="#226ECF" transform="translate(344,482)"/>
<path d="M0 0 C0.66 0 1.32 0 2 0 C3.17 3.52 3.2 6.31 3 10 C2.34 10.66 1.68 11.32 1 12 C0.01 11.67 -0.98 11.34 -2 11 C-1.48 10.67 -0.97 10.34 -0.44 10 C1.33 7.54 1.07 6.75 0.69 3.81 C0.46 2.55 0.23 1.3 0 0 Z " fill="#0769DC" transform="translate(602,194)"/>
<path d="M0 0 C-1.27 0.67 -2.54 1.34 -3.81 2 C-4.52 2.37 -5.23 2.74 -5.96 3.12 C-8 4 -8 4 -11 4 C-11 3.34 -11 2.68 -11 2 C-4.04 -1.35 -4.04 -1.35 0 0 Z " fill="#0756D1" transform="translate(509,533)"/>
<path d="M0 0 C0.99 0.33 1.98 0.66 3 1 C1.35 3.97 -0.3 6.94 -2 10 C-3.19 5.23 -2.34 4.12 0 0 Z " fill="#0666CA" transform="translate(716,486)"/>
<path d="M0 0 C2.97 0 5.94 0 9 0 C9.33 0.99 9.66 1.98 10 3 C8.02 3 6.04 3 4 3 C4 2.34 4 1.68 4 1 C2.68 0.67 1.36 0.34 0 0 Z " fill="#159BE3" transform="translate(732,573)"/>
<path d="M0 0 C0.66 0 1.32 0 2 0 C0.81 3.38 -0.28 5.65 -3 8 C-3.66 7.67 -4.32 7.34 -5 7 C-4.22 5.83 -3.42 4.66 -2.62 3.5 C-2.18 2.85 -1.74 2.2 -1.29 1.53 C-0.65 0.77 -0.65 0.77 0 0 Z " fill="#0661CE" transform="translate(405,441)"/>
<path d="M0 0 C1 4 1 4 -0.44 6.75 C-1.21 7.86 -1.21 7.86 -2 9 C-2.66 8.67 -3.32 8.34 -4 8 C-2.68 5.36 -1.36 2.72 0 0 Z " fill="#0860D8" transform="translate(424,408)"/>
<path d="" fill="#00FFFF" transform="translate(0,0)"/>
<path d="" fill="#0080FF" transform="translate(0,0)"/>
<path d="" fill="#0000FF" transform="translate(0,0)"/>
</svg>
