<?xml version="1.0" encoding="UTF-8"?>
<!-- Generator: https://ezgif.com/webp-to-svg -->
<svg version="1.1" xmlns="http://www.w3.org/2000/svg" width="50" height="50">
<path d="M0 0 C1.92 -0.05 3.83 -0.09 5.75 -0.12 C7.35 -0.16 7.35 -0.16 8.98 -0.2 C11.92 -0 13.52 0.47 16 2 C16.66 1.34 17.32 0.68 18 0 C20.82 -0.2 20.82 -0.2 24.12 -0.12 C25.22 -0.11 26.32 -0.09 27.45 -0.07 C28.71 -0.04 28.71 -0.04 30 0 C30 0.66 30 1.32 30 2 C33.3 2 36.6 2 40 2 C40 6.62 40 11.24 40 16 C36.7 16 33.4 16 30 16 C30 16.66 30 17.32 30 18 C28.06 18.05 26.13 18.09 24.19 18.12 C23.11 18.15 22.03 18.17 20.92 18.2 C18 18 18 18 15 16 C14.01 16.66 13.02 17.32 12 18 C9.08 18.2 9.08 18.2 5.81 18.12 C4.73 18.11 3.64 18.09 2.52 18.07 C1.27 18.04 1.27 18.04 0 18 C0 17.34 0 16.68 0 16 C-3.3 16 -6.6 16 -10 16 C-10 11.38 -10 6.76 -10 2 C-6.7 2 -3.4 2 0 2 C0 1.34 0 0.68 0 0 Z M7 8 C8 10 8 10 8 10 Z M21 8 C21 8.66 21 9.32 21 10 C21.66 10 22.32 10 23 10 C23 9.34 23 8.68 23 8 C22.34 8 21.68 8 21 8 Z " fill="#FFFFFF" transform="translate(10,16)"/>
<path d="M0 0 C10.98 -0.67 10.98 -0.67 14.69 2.25 C17 5 17 5 17 9 C14.16 12.38 12.59 13.82 8.15 14.32 C5.43 14.31 2.71 14.17 0 14 C0 9.38 0 4.76 0 0 Z " fill="#045AC2" transform="translate(0,18)"/>
<path d="M0 0 C0 4.62 0 9.24 0 14 C-9.88 14.72 -9.88 14.72 -13.07 12.66 C-14.69 11 -14.69 11 -17 8 C-13.27 -0.7 -8.83 -0.42 0 0 Z " fill="#0764D3" transform="translate(50,18)"/>
<path d="M0 0 C1.98 0 3.96 0 6 0 C6 4.62 6 9.24 6 14 C4.02 14 2.04 14 0 14 C0 9.38 0 4.76 0 0 Z " fill="#0254BA" transform="translate(44,18)"/>
<path d="M0 0 C2.49 1.2 4.68 2.45 7 4 C7 5.32 7 6.64 7 8 C5.25 9.75 5.25 9.75 3 11 C1.68 11 0.36 11 -1 11 C-1.03 9.35 -1.05 7.71 -1.06 6.06 C-1.07 5.15 -1.09 4.23 -1.1 3.29 C-1 1 -1 1 0 0 Z " fill="#0A74E0" transform="translate(10,19)"/>
<path d="M0 0 C0.99 0 1.98 0 3 0 C3 3.3 3 6.6 3 10 C-0.84 9.04 -1.6 8.76 -4 6 C-2.85 3.53 -1.95 1.95 0 0 Z " fill="#0A7BEC" transform="translate(37,20)"/>
</svg>
