<?xml version="1.0" encoding="UTF-8"?>
<!-- Generator: https://ezgif.com/png-to-svg -->
<svg version="1.1" xmlns="http://www.w3.org/2000/svg" width="512" height="512" viewBox="-36 -238.128 672.005 672.005" preserveAspectRatio="xMidYMid meet">
<path d="M0 0 C46.2 0.33 92.4 0.66 140 1 C139.34 2.98 138.68 4.96 138 7 C136.06 7.62 136.06 7.62 134 8 C132.32 9.92 131.14 11.72 130 14 C129.07 14.15 129.07 14.15 128.12 14.31 C125.73 14.83 125.73 14.83 124.5 17.5 C123 20 123 20 121 20.56 C120.34 20.71 119.68 20.85 119 21 C117.32 22.92 116.14 24.72 115 27 C114.36 27.12 113.72 27.25 113.06 27.38 C110.8 27.8 110.8 27.8 109.87 30.04 C109.58 30.69 109.3 31.33 109 32 C109.96 31.43 110.93 30.87 111.92 30.29 C113.2 29.54 114.47 28.8 115.75 28.06 C116.7 27.5 116.7 27.5 117.67 26.93 C122.56 24.11 122.56 24.11 125.08 23.49 C127.96 22.75 129.71 20.88 132 19 C138.92 14.26 138.92 14.26 142.1 13.49 C144.28 13.09 144.28 13.09 146.38 10.81 C147.24 10.21 148.11 9.62 149 9 C152.12 9.69 152.12 9.69 155 11 C155.99 11.33 156.98 11.66 158 12 C158.43 12.96 158.43 12.96 158.88 13.94 C159.85 16.25 159.85 16.25 162.5 17 C165.54 18.21 165.73 19.11 167 22 C169.87 24.1 169.87 24.1 173 25 C173.29 25.64 173.58 26.28 173.88 26.94 C174.84 29.24 174.84 29.24 177.44 29.94 C180.73 31.3 181.2 33.01 183 36 C184.66 36.69 186.32 37.36 188 38 C189.12 40 189.12 40 190 42 C192.87 44.1 192.87 44.1 196 45 C196.43 45.96 196.43 45.96 196.88 46.94 C197.85 49.25 197.85 49.25 200.5 50 C203.54 51.21 203.73 52.11 205 55 C207.87 57.1 207.87 57.1 211 58 C211.68 59.32 212.35 60.66 213 62 C215.87 64.1 215.87 64.1 219 65 C219.43 65.96 219.43 65.96 219.88 66.94 C220.85 69.25 220.85 69.25 223.5 70 C226.54 71.21 226.73 72.11 228 75 C230.87 77.1 230.87 77.1 234 78 C234.68 79.32 235.35 80.66 236 82 C238.87 84.1 238.87 84.1 242 85 C242.43 85.96 242.43 85.96 242.88 86.94 C244.39 89.72 246.06 90.07 249 91 C249 92.32 249 93.64 249 95 C202.8 95.33 156.6 95.66 109 96 C108.34 94.68 107.68 93.36 107 92 C104.13 89.9 104.13 89.9 101 89 C100.32 87.68 99.65 86.34 99 85 C96.13 82.9 96.13 82.9 93 82 C92.69 81.34 92.38 80.68 92.06 80 C91.71 79.34 91.36 78.68 91 78 C90.34 77.83 89.68 77.67 89 77.5 C88.34 77.33 87.68 77.17 87 77 C85.94 75.06 85.94 75.06 85 73 C82.13 70.9 82.13 70.9 79 70 C78.32 68.68 77.65 67.34 77 66 C76.01 65.34 75.02 64.68 74 64 C73.26 64.47 72.51 64.95 71.75 65.44 C69 67 69 67 66.88 67.38 C64.71 67.87 64.71 67.87 63.5 70.5 C62 73 62 73 60 73.56 C59.01 73.78 59.01 73.78 58 74 C56.32 75.92 55.14 77.72 54 80 C53.38 80.1 52.76 80.21 52.12 80.31 C49.73 80.83 49.73 80.83 48.5 83.5 C47.76 84.74 47.76 84.74 47 86 C45.67 86.33 44.33 86.67 43 87 C42.26 88.24 42.26 88.24 41.5 89.5 C40 92 40 92 37.94 92.69 C37.3 92.79 36.66 92.89 36 93 C35.34 93.66 34.68 94.32 34 95 C31.6 95.25 31.6 95.25 28.52 95.24 C26.77 95.24 26.77 95.24 24.99 95.25 C23.71 95.24 22.43 95.23 21.1 95.23 C19.75 95.23 18.39 95.23 17.03 95.23 C13.33 95.23 9.63 95.22 5.93 95.2 C2.07 95.19 -1.79 95.19 -5.66 95.19 C-12.97 95.18 -20.29 95.16 -27.61 95.14 C-35.94 95.12 -44.26 95.11 -52.59 95.1 C-69.73 95.08 -86.86 95.04 -104 95 C-100.76 88.5 -100.76 88.5 -99 86 C-97.68 85.63 -96.34 85.29 -95 85 C-93.32 83.08 -92.14 81.28 -91 79 C-90.38 78.88 -89.76 78.75 -89.12 78.62 C-86.31 77.8 -85.7 76.34 -84 74 C-82.67 73.33 -81.33 72.67 -80 72 C-78.36 70.06 -77.13 68.27 -76 66 C-75.38 65.88 -74.76 65.75 -74.12 65.62 C-71.3 64.79 -70.55 63.44 -69 61 C-68.5 60.01 -68.5 60.01 -68 59 C-67.38 58.88 -66.76 58.75 -66.12 58.62 C-63.31 57.8 -62.7 56.34 -61 54 C-59.67 53.33 -58.33 52.67 -57 52 C-55.36 50.06 -54.13 48.27 -53 46 C-52.38 45.88 -51.76 45.75 -51.12 45.62 C-48.3 44.79 -47.55 43.44 -46 41 C-45.5 40.01 -45.5 40.01 -45 39 C-44.07 38.85 -44.07 38.85 -43.12 38.69 C-40.73 38.17 -40.73 38.17 -39.5 35.5 C-38 33 -38 33 -36 32.44 C-35.34 32.29 -34.68 32.15 -34 32 C-32.32 30.08 -31.14 28.28 -30 26 C-29.07 25.81 -29.07 25.81 -28.12 25.62 C-25.3 24.79 -24.55 23.44 -23 21 C-22.67 20.34 -22.34 19.68 -22 19 C-21.38 18.9 -20.76 18.79 -20.12 18.69 C-17.73 18.17 -17.73 18.17 -16.5 15.5 C-15 13 -15 13 -13 12.44 C-12.34 12.29 -11.68 12.15 -11 12 C-9.32 10.08 -8.14 8.28 -7 6 C-6.38 5.88 -5.76 5.75 -5.12 5.62 C-2.31 4.8 -1.52 3.44 0 1 C0 0.67 0 0.34 0 0 Z M104 33 C104 33.99 104 34.98 104 36 C104.66 35.34 105.32 34.68 106 34 C105.34 33.67 104.68 33.34 104 33 Z M97 39 C97 39.99 97 40.98 97 42 C97.66 41.34 98.32 40.68 99 40 C98.34 39.67 97.68 39.34 97 39 Z M95 41 C94.67 41.66 94.34 42.32 94 43 C94.66 43 95.32 43 96 43 C95.67 42.34 95.34 41.68 95 41 Z " fill="#FFFFFF" transform="translate(229,100)"/>
<path d="M0 0 C18.04 -0.05 36.07 -0.08 54.11 -0.1 C62.49 -0.11 70.86 -0.13 79.24 -0.15 C86.54 -0.17 93.83 -0.18 101.13 -0.19 C105 -0.19 108.86 -0.2 112.73 -0.21 C116.37 -0.23 120.01 -0.23 123.64 -0.23 C125.62 -0.23 127.59 -0.24 129.56 -0.25 C130.73 -0.25 131.91 -0.24 133.12 -0.24 C134.65 -0.24 134.65 -0.24 136.21 -0.25 C139.19 0.02 141.34 0.65 144 2 C144.67 3.33 145.33 4.67 146 6 C146.82 6.33 147.65 6.66 148.5 7 C151.54 8.21 151.73 9.11 153 12 C155.87 14.1 155.87 14.1 159 15 C159.68 16.32 160.35 17.66 161 19 C163.77 20.94 163.77 20.94 166 22 C167.21 23.24 167.21 23.24 168.44 24.5 C170.81 27.18 170.81 27.18 174 28 C174.33 28.66 174.66 29.32 175 30 C178.14 29.66 179.59 29.45 181.75 27.06 C183.01 25.04 183.01 25.04 184 23 C184.93 22.81 184.93 22.81 185.88 22.62 C188.69 21.8 189.3 20.34 191 18 C192.33 17.33 193.67 16.67 195 16 C196.64 14.06 197.87 12.27 199 10 C199.62 9.88 200.24 9.75 200.88 9.62 C203.7 8.79 204.45 7.44 206 5 C206.33 4.34 206.66 3.68 207 3 C208.33 2.66 209.66 2.32 211 2 C211.66 1.34 212.32 0.68 213 0 C215.43 -0.25 215.43 -0.25 218.56 -0.24 C219.74 -0.24 220.92 -0.25 222.13 -0.25 C224.09 -0.24 224.09 -0.24 226.08 -0.23 C227.46 -0.23 228.84 -0.23 230.22 -0.23 C233.97 -0.23 237.72 -0.22 241.47 -0.2 C245.39 -0.19 249.31 -0.19 253.23 -0.19 C260.65 -0.18 268.07 -0.16 275.5 -0.14 C283.95 -0.12 292.4 -0.11 300.85 -0.1 C318.23 -0.08 335.62 -0.04 353 0 C350.94 3.09 348.61 5.39 346 8 C345.67 8.66 345.34 9.32 345 10 C344.4 10.08 343.8 10.16 343.19 10.25 C340.65 10.87 340.65 10.87 339 14 C336.76 17.36 336.57 17.19 333 18 C332.26 19.24 332.26 19.24 331.5 20.5 C330.76 21.74 330.76 21.74 330 23 C329.36 23.14 328.72 23.29 328.06 23.44 C325.62 23.86 325.62 23.86 324 27 C321.76 30.36 321.57 30.19 318 31 C317.26 32.24 317.26 32.24 316.5 33.5 C315 36 315 36 313 36.56 C312.34 36.71 311.68 36.85 311 37 C309.32 38.92 308.14 40.72 307 43 C306.38 43.12 305.76 43.25 305.12 43.38 C302.3 44.21 301.55 45.56 300 48 C299.67 48.66 299.34 49.32 299 50 C298.38 50.1 297.76 50.21 297.12 50.31 C294.73 50.83 294.73 50.83 293.5 53.5 C292.76 54.74 292.76 54.74 292 56 C290.67 56.33 289.33 56.67 288 57 C287.26 58.24 287.26 58.24 286.5 59.5 C285 62 285 62 283 62.56 C282.34 62.71 281.68 62.85 281 63 C279.32 64.92 278.14 66.72 277 69 C276.38 69.12 275.76 69.25 275.12 69.38 C272.3 70.21 271.55 71.56 270 74 C269.67 74.66 269.34 75.32 269 76 C268.38 76.1 267.76 76.21 267.12 76.31 C264.73 76.83 264.73 76.83 263.5 79.5 C262 82 262 82 260.12 82.69 C259.42 82.79 258.72 82.89 258 83 C256.33 83.65 254.66 84.31 253 85 C252.38 84.29 252.38 84.29 251.75 83.56 C250.11 81.85 250.11 81.85 247.88 81.5 C247.26 81.33 246.64 81.17 246 81 C245.67 80.01 245.34 79.02 245 78 C243.82 77.81 243.82 77.81 242.62 77.62 C240 77 240 77 238 75 C236.98 74.78 236.98 74.78 235.94 74.56 C234.98 74.28 234.98 74.28 234 74 C233.67 73.01 233.34 72.02 233 71 C231.35 70.67 229.7 70.34 228 70 C228 69.34 228 68.68 228 68 C226.82 67.54 226.82 67.54 225.62 67.06 C223 66 223 66 221 65 C220.32 64.88 219.64 64.75 218.94 64.62 C218.3 64.42 217.66 64.21 217 64 C216.67 63.01 216.34 62.02 216 61 C214.68 61.66 213.36 62.32 212 63 C214.69 65.25 216.65 66.88 220 68 C220.43 68.96 220.43 68.96 220.88 69.94 C221.85 72.25 221.85 72.25 224.5 73 C227.54 74.21 227.73 75.11 229 78 C231.87 80.1 231.87 80.1 235 81 C235.31 81.66 235.62 82.32 235.94 83 C236.29 83.66 236.64 84.32 237 85 C237.64 85.14 238.28 85.29 238.94 85.44 C241 86 241 86 242.75 88.44 C244 91 244 91 244 93 C225.8 93.25 207.6 93.47 189.39 93.65 C180.94 93.74 172.49 93.83 164.04 93.95 C156.68 94.05 149.31 94.14 141.95 94.2 C138.05 94.24 134.15 94.28 130.24 94.34 C126.57 94.4 122.91 94.44 119.24 94.46 C117.24 94.48 115.25 94.52 113.26 94.56 C112.08 94.56 110.89 94.56 109.68 94.56 C108.13 94.58 108.13 94.58 106.56 94.6 C104 94 104 94 102.33 91.59 C101.89 90.74 101.45 89.88 101 89 C98.13 86.9 98.13 86.9 95 86 C94.71 85.36 94.42 84.72 94.12 84.06 C93.15 81.75 93.15 81.75 90.5 81 C87.46 79.79 87.27 78.89 86 76 C83.13 73.9 83.13 73.9 80 73 C79.71 72.36 79.42 71.72 79.12 71.06 C78.15 68.75 78.15 68.75 75.5 68 C72.46 66.79 72.27 65.89 71 63 C68.13 60.9 68.13 60.9 65 60 C64.32 58.68 63.65 57.34 63 56 C60.13 53.9 60.13 53.9 57 53 C56.69 52.34 56.38 51.68 56.06 51 C55.71 50.34 55.36 49.68 55 49 C54.36 48.86 53.72 48.71 53.06 48.56 C51 48 51 48 49.56 45.56 C47.67 42.46 46.3 42.27 43 41 C41.88 39 41.88 39 41 37 C38.13 34.9 38.13 34.9 35 34 C34.57 33.04 34.57 33.04 34.12 32.06 C33.15 29.75 33.15 29.75 30.5 29 C27.46 27.79 27.27 26.89 26 24 C23.13 21.9 23.13 21.9 20 21 C19.71 20.36 19.42 19.72 19.12 19.06 C18.15 16.75 18.15 16.75 15.5 16 C12.46 14.79 12.27 13.89 11 11 C8.13 8.9 8.13 8.9 5 8 C4 6.19 4 6.19 3 4 C2.02 2.65 1.02 1.32 0 0 Z M198 51 C198.66 51.66 199.32 52.32 200 53 C200 52.34 200 51.68 200 51 C199.34 51 198.68 51 198 51 Z M208 58 C208 58.99 208 59.98 208 61 C208.99 60.34 209.98 59.68 211 59 C210.01 58.67 209.02 58.34 208 58 Z " fill="#FFFFFF" transform="translate(125,0)"/>
<path d="M0 0 C58.41 0 116.82 0 177 0 C173.73 6.53 173.73 6.53 172 9 C170.68 9.37 169.34 9.71 168 10 C166.32 11.92 165.14 13.72 164 16 C163.38 16.1 162.76 16.21 162.12 16.31 C159.73 16.83 159.73 16.83 158.5 19.5 C157 22 157 22 155 22.56 C154.34 22.71 153.68 22.85 153 23 C151.32 24.92 150.14 26.72 149 29 C148.4 29.08 147.8 29.16 147.19 29.25 C144.65 29.87 144.65 29.87 143 33 C140.76 36.36 140.57 36.19 137 37 C136.26 38.24 136.26 38.24 135.5 39.5 C134 42 134 42 132 42.56 C131.34 42.71 130.68 42.85 130 43 C128.32 44.92 127.14 46.72 126 49 C125.07 49.15 125.07 49.15 124.12 49.31 C121.73 49.83 121.73 49.83 120.5 52.5 C119 55 119 55 117 55.56 C116.34 55.71 115.68 55.85 115 56 C113.32 57.92 112.14 59.72 111 62 C110.4 62.08 109.8 62.16 109.19 62.25 C106.65 62.87 106.65 62.87 105 66 C102.76 69.36 102.57 69.19 99 70 C98.5 70.82 98.01 71.65 97.5 72.5 C96 75 96 75 93.94 75.69 C93.3 75.79 92.66 75.89 92 76 C91.34 76.66 90.68 77.32 90 78 C87.97 78.25 87.97 78.25 85.43 78.24 C83.99 78.24 83.99 78.24 82.52 78.25 C81.46 78.24 80.4 78.23 79.31 78.23 C78.2 78.23 77.08 78.23 75.94 78.23 C72.25 78.23 68.56 78.21 64.87 78.2 C62.31 78.19 59.76 78.19 57.21 78.19 C51.17 78.18 45.12 78.16 39.08 78.14 C32.2 78.12 25.33 78.11 18.45 78.1 C4.3 78.08 -9.85 78.04 -24 78 C-23.46 72.82 -22.61 68.18 -20.99 63.2 C-20.79 62.58 -20.59 61.95 -20.38 61.3 C-19.72 59.26 -19.05 57.22 -18.38 55.18 C-17.91 53.74 -17.45 52.31 -16.99 50.87 C-16.02 47.88 -15.04 44.89 -14.06 41.9 C-12.81 38.08 -11.57 34.25 -10.33 30.42 C-9.14 26.76 -7.95 23.09 -6.75 19.43 C-6.53 18.73 -6.3 18.04 -6.07 17.32 C-5.43 15.35 -4.78 13.38 -4.14 11.41 C-3.59 9.73 -3.59 9.73 -3.03 8.02 C-2.11 5.31 -1.06 2.65 0 0 Z " fill="#0F65CD" transform="translate(24,100)"/>
<path d="M0 0 C14.79 -0.07 29.59 -0.12 44.38 -0.16 C51.25 -0.17 58.12 -0.19 64.99 -0.23 C71.62 -0.26 78.25 -0.28 84.87 -0.28 C87.4 -0.29 89.93 -0.3 92.46 -0.32 C96 -0.34 99.54 -0.34 103.08 -0.34 C104.66 -0.36 104.66 -0.36 106.27 -0.37 C107.71 -0.37 107.71 -0.37 109.19 -0.36 C110.03 -0.36 110.87 -0.37 111.73 -0.37 C114.52 0.08 115.86 1.19 118 3 C118.99 3.5 118.99 3.5 120 4 C120.8 4.82 121.61 5.65 122.44 6.5 C124.81 9.18 124.81 9.18 128 10 C128.68 11.32 129.35 12.66 130 14 C132.87 16.1 132.87 16.1 136 17 C136.29 17.64 136.58 18.28 136.88 18.94 C137.85 21.25 137.85 21.25 140.5 22 C143.54 23.21 143.73 24.11 145 27 C147.87 29.1 147.87 29.1 151 30 C151.68 31.32 152.35 32.66 153 34 C155.87 36.1 155.87 36.1 159 37 C159.43 37.96 159.43 37.96 159.88 38.94 C160.85 41.25 160.85 41.25 163.5 42 C166.54 43.21 166.73 44.11 168 47 C170.87 49.1 170.87 49.1 174 50 C174.43 50.96 174.43 50.96 174.88 51.94 C175.85 54.25 175.85 54.25 178.5 55 C181.54 56.21 181.73 57.11 183 60 C185.87 62.1 185.87 62.1 189 63 C189.43 63.96 189.43 63.96 189.88 64.94 C190.85 67.25 190.85 67.25 193.5 68 C196.53 69.21 196.71 70.14 198 73 C198.99 73.33 199.98 73.66 201 74 C200.67 75.32 200.34 76.64 200 78 C112.38 77.5 112.38 77.5 23 77 C17.06 58.19 11.12 39.38 5 20 C3.35 15.05 1.7 10.1 0 5 C0 3.35 0 1.7 0 0 Z " fill="#0E64CD" transform="translate(0,16)"/>
<path d="M0 0 C6.03 0.05 12.07 0.07 18.1 0.09 C31.75 0.14 45.4 0.23 59.06 0.34 C60.92 5.25 62.69 10.15 64.32 15.14 C64.53 15.77 64.73 16.39 64.95 17.04 C65.61 19.08 66.28 21.12 66.94 23.17 C67.29 24.22 67.29 24.22 67.64 25.3 C68.84 29.01 70.05 32.73 71.25 36.44 C72.5 40.27 73.74 44.1 75 47.92 C75.96 50.88 76.92 53.83 77.88 56.79 C78.33 58.2 78.79 59.61 79.26 61.02 C79.9 62.99 80.54 64.96 81.18 66.94 C81.54 68.06 81.9 69.17 82.28 70.33 C83.06 73.34 83.06 73.34 83.06 78.34 C26.13 78.84 26.13 78.84 -31.94 79.34 C-32.6 78.02 -33.26 76.7 -33.94 75.34 C-34.77 75.01 -35.59 74.68 -36.44 74.34 C-39.52 73.11 -39.52 72.19 -40.94 69.34 C-41.75 69.03 -42.55 68.72 -43.38 68.41 C-46.67 67.04 -47.15 65.34 -48.94 62.34 C-50.6 61.66 -52.27 60.99 -53.94 60.34 C-55.07 58.34 -55.07 58.34 -55.94 56.34 C-58.81 54.24 -58.81 54.24 -61.94 53.34 C-62.38 52.38 -62.38 52.38 -62.82 51.41 C-63.8 49.09 -63.8 49.09 -66.44 48.34 C-69.48 47.13 -69.68 46.24 -70.94 43.34 C-73.81 41.24 -73.81 41.24 -76.94 40.34 C-77.38 39.38 -77.38 39.38 -77.82 38.41 C-78.79 36.1 -78.79 36.1 -81.38 35.41 C-84.67 34.04 -85.15 32.34 -86.94 29.34 C-88.6 28.66 -90.27 27.99 -91.94 27.34 C-93.07 25.34 -93.07 25.34 -93.94 23.34 C-96.81 21.24 -96.81 21.24 -99.94 20.34 C-100.63 19.02 -101.29 17.68 -101.94 16.34 C-104.72 14.41 -104.72 14.41 -106.94 13.34 C-111.94 7.75 -111.94 7.75 -111.94 5.34 C-74.52 1.04 -37.66 -0.33 0 0 Z " fill="#0F65CD" transform="translate(516.9446411132813,99.65667724609375)"/>
<path d="M0 0 C0.96 -0 1.93 -0.01 2.92 -0.01 C4.5 0 4.5 0 6.12 0.02 C7.23 0.02 8.34 0.02 9.49 0.02 C13.17 0.02 16.86 0.04 20.54 0.07 C23.09 0.07 25.65 0.08 28.2 0.08 C34.23 0.09 40.27 0.11 46.3 0.14 C53.17 0.18 60.04 0.19 66.91 0.21 C81.05 0.24 95.18 0.29 109.31 0.36 C108.77 5.55 107.92 10.19 106.29 15.17 C106.08 15.8 105.88 16.43 105.67 17.08 C105 19.13 104.33 21.17 103.66 23.22 C103.19 24.66 102.72 26.09 102.25 27.53 C101.03 31.29 99.8 35.05 98.57 38.81 C97.07 43.38 95.58 47.96 94.09 52.53 C92.93 56.09 91.77 59.65 90.6 63.2 C90.18 64.49 89.76 65.78 89.34 67.07 C88.97 68.19 88.6 69.31 88.22 70.47 C87.5 72.76 86.88 75.03 86.31 77.36 C69.07 77.43 51.83 77.48 34.59 77.52 C26.58 77.53 18.57 77.55 10.56 77.59 C-58.49 77.88 -58.49 77.88 -86.69 74.36 C-85.92 70.55 -84.53 69.02 -81.69 66.36 C-81.19 65.37 -81.19 65.37 -80.69 64.36 C-79.76 64.21 -79.76 64.21 -78.81 64.05 C-76.42 63.53 -76.42 63.53 -75.19 60.86 C-73.69 58.36 -73.69 58.36 -71.69 57.8 C-71.03 57.65 -70.37 57.51 -69.69 57.36 C-68.01 55.44 -66.83 53.64 -65.69 51.36 C-65.07 51.24 -64.45 51.11 -63.81 50.99 C-60.99 50.15 -60.24 48.8 -58.69 46.36 C-58.36 45.7 -58.03 45.04 -57.69 44.36 C-57.07 44.24 -56.45 44.11 -55.81 43.99 C-52.99 43.15 -52.24 41.8 -50.69 39.36 C-50.19 38.37 -50.19 38.37 -49.69 37.36 C-48.76 37.21 -48.76 37.21 -47.81 37.05 C-45.42 36.53 -45.42 36.53 -44.19 33.86 C-42.69 31.36 -42.69 31.36 -40.69 30.8 C-40.03 30.65 -39.37 30.51 -38.69 30.36 C-37.01 28.44 -35.83 26.64 -34.69 24.36 C-34.07 24.24 -33.45 24.11 -32.81 23.99 C-29.99 23.15 -29.24 21.8 -27.69 19.36 C-27.36 18.7 -27.03 18.04 -26.69 17.36 C-26.07 17.24 -25.45 17.11 -24.81 16.99 C-22 16.16 -21.39 14.7 -19.69 12.36 C-18.36 11.69 -17.02 11.03 -15.69 10.36 C-14.05 8.42 -12.82 6.63 -11.69 4.36 C-11.07 4.22 -10.45 4.07 -9.81 3.92 C-7.61 3.55 -7.61 3.55 -6.35 1.85 C-4.15 -0.12 -2.92 -0.01 0 0 Z " fill="#0F65CD" transform="translate(490.6886444091797,15.639236450195313)"/>
<path d="M0 0 C45.54 0 91.08 0 138 0 C138 0.33 138 0.66 138 1 C92.46 1 46.92 1 0 1 C0 0.67 0 0.34 0 0 Z " fill="#FFFFFF" transform="translate(231,99)"/>
<path d="M0 0 C0.66 0.33 1.32 0.66 2 1 C1.67 1.99 1.34 2.98 1 4 C0.34 4 -0.32 4 -1 4 C-0.67 2.68 -0.34 1.36 0 0 Z " fill="#0959F7" transform="translate(157,138)"/>
<path d="M0 0 C2.64 0 5.28 0 8 0 C8 0.33 8 0.66 8 1 C5.36 1 2.72 1 0 1 C0 0.67 0 0.34 0 0 Z " fill="#08AAFF" transform="translate(408,103)"/>
<path d="M0 0 C2.64 0 5.28 0 8 0 C8 0.33 8 0.66 8 1 C5.36 1 2.72 1 0 1 C0 0.67 0 0.34 0 0 Z " fill="#0895FF" transform="translate(418,102)"/>
<path d="M0 0 C2.64 0 5.28 0 8 0 C8 0.33 8 0.66 8 1 C5.36 1 2.72 1 0 1 C0 0.67 0 0.34 0 0 Z " fill="#0095FF" transform="translate(429,101)"/>
<path d="M0 0 C2.64 0 5.28 0 8 0 C8 0.33 8 0.66 8 1 C5.36 1 2.72 1 0 1 C0 0.67 0 0.34 0 0 Z " fill="#0055FF" transform="translate(440,100)"/>
<path d="M0 0 C2.64 0 5.28 0 8 0 C8 0.33 8 0.66 8 1 C5.36 1 2.72 1 0 1 C0 0.67 0 0.34 0 0 Z " fill="#0055FF" transform="translate(451,99)"/>
<path d="M0 0 C0.66 0 1.32 0 2 0 C2 0.99 2 1.98 2 3 C1.01 2.67 0.02 2.34 -1 2 C-0.67 1.34 -0.34 0.68 0 0 Z " fill="#0756F9" transform="translate(441,138)"/>
<path d="M0 0 C0.99 0.33 1.98 0.66 3 1 C2.67 1.66 2.34 2.32 2 3 C1.34 3 0.68 3 0 3 C0 2.01 0 1.02 0 0 Z " fill="#0AACFD" transform="translate(179,119)"/>
<path d="M0 0 C1.98 0 3.96 0 6 0 C6 0.33 6 0.66 6 1 C4.02 1 2.04 1 0 1 C0 0.67 0 0.34 0 0 Z " fill="#0047FF" transform="translate(442,94)"/>
<path d="M0 0 C1.98 0 3.96 0 6 0 C6 0.33 6 0.66 6 1 C4.02 1 2.04 1 0 1 C0 0.67 0 0.34 0 0 Z " fill="#008DFF" transform="translate(431,93)"/>
<path d="M0 0 C1.98 0 3.96 0 6 0 C6 0.33 6 0.66 6 1 C4.02 1 2.04 1 0 1 C0 0.67 0 0.34 0 0 Z " fill="#0A95FF" transform="translate(420,92)"/>
<path d="M0 0 C1.98 0 3.96 0 6 0 C6 0.33 6 0.66 6 1 C4.02 1 2.04 1 0 1 C0 0.67 0 0.34 0 0 Z " fill="#0AB8FF" transform="translate(410,91)"/>
<path d="" fill="#0031CD" transform="translate(0,0)"/>
<path d="" fill="#0040BF" transform="translate(0,0)"/>
<path d="" fill="#0015E9" transform="translate(0,0)"/>
<path d="" fill="#0040BF" transform="translate(0,0)"/>
<path d="" fill="#0040BF" transform="translate(0,0)"/>
<path d="" fill="#0015E9" transform="translate(0,0)"/>
<path d="" fill="#0040BF" transform="translate(0,0)"/>
<path d="" fill="#0038C6" transform="translate(0,0)"/>
<path d="" fill="#0040BF" transform="translate(0,0)"/>
<path d="" fill="#0015E9" transform="translate(0,0)"/>
<path d="" fill="#0047B8" transform="translate(0,0)"/>
<path d="" fill="#0040BF" transform="translate(0,0)"/>
<path d="" fill="#0015E9" transform="translate(0,0)"/>
<path d="" fill="#0047B8" transform="translate(0,0)"/>
<path d="" fill="#0040BF" transform="translate(0,0)"/>
<path d="" fill="#0047B8" transform="translate(0,0)"/>
<path d="" fill="#0015E9" transform="translate(0,0)"/>
<path d="" fill="#0040BF" transform="translate(0,0)"/>
<path d="" fill="#0015E9" transform="translate(0,0)"/>
<path d="" fill="#0015E9" transform="translate(0,0)"/>
<path d="" fill="#0015E9" transform="translate(0,0)"/>
<path d="" fill="#0040BF" transform="translate(0,0)"/>
<path d="" fill="#0040BF" transform="translate(0,0)"/>
<path d="" fill="#0040BF" transform="translate(0,0)"/>
<path d="" fill="#0040BF" transform="translate(0,0)"/>
<path d="" fill="#0040BF" transform="translate(0,0)"/>
<path d="" fill="#0040BF" transform="translate(0,0)"/>
<path d="" fill="#0015E9" transform="translate(0,0)"/>
<path d="" fill="#0031CD" transform="translate(0,0)"/>
<path d="" fill="#0040BF" transform="translate(0,0)"/>
<path d="" fill="#0040BF" transform="translate(0,0)"/>
<path d="" fill="#0040BF" transform="translate(0,0)"/>
<path d="" fill="#0040BF" transform="translate(0,0)"/>
<path d="" fill="#0040BF" transform="translate(0,0)"/>
<path d="" fill="#0015E9" transform="translate(0,0)"/>
<path d="" fill="#0040BF" transform="translate(0,0)"/>
<path d="" fill="#0047B8" transform="translate(0,0)"/>
<path d="" fill="#004AB4" transform="translate(0,0)"/>
<path d="" fill="#0055AA" transform="translate(0,0)"/>
<path d="" fill="#0055AA" transform="translate(0,0)"/>
<path d="" fill="#00609F" transform="translate(0,0)"/>
<path d="" fill="#00609F" transform="translate(0,0)"/>
<path d="" fill="#0055AA" transform="translate(0,0)"/>
<path d="" fill="#00609F" transform="translate(0,0)"/>
<path d="" fill="#0055AA" transform="translate(0,0)"/>
<path d="" fill="#00609F" transform="translate(0,0)"/>
<path d="" fill="#0055AA" transform="translate(0,0)"/>
<path d="" fill="#0055AA" transform="translate(0,0)"/>
<path d="" fill="#00609F" transform="translate(0,0)"/>
<path d="" fill="#00609F" transform="translate(0,0)"/>
<path d="" fill="#004AB4" transform="translate(0,0)"/>
<path d="" fill="#00609F" transform="translate(0,0)"/>
<path d="" fill="#0055AA" transform="translate(0,0)"/>
<path d="" fill="#00609F" transform="translate(0,0)"/>
<path d="M0 0 C2 1 2 1 2 1 Z " fill="#FFFFFF" transform="translate(354,123)"/>
<path d="" fill="#0055AA" transform="translate(0,0)"/>
<path d="" fill="#0055AA" transform="translate(0,0)"/>
<path d="" fill="#0055AA" transform="translate(0,0)"/>
<path d="M0 0 C2 1 2 1 2 1 Z " fill="#FFFFFF" transform="translate(371,113)"/>
<path d="" fill="#00609F" transform="translate(0,0)"/>
<path d="M0 0 C2 1 2 1 2 1 Z " fill="#FFFFFF" transform="translate(380,108)"/>
<path d="" fill="#00609F" transform="translate(0,0)"/>
<path d="" fill="#00609F" transform="translate(0,0)"/>
<path d="" fill="#004AB4" transform="translate(0,0)"/>
<path d="" fill="#00609F" transform="translate(0,0)"/>
<path d="" fill="#FFFFFF" transform="translate(0,0)"/>
<path d="" fill="#00609F" transform="translate(0,0)"/>
<path d="" fill="#00609F" transform="translate(0,0)"/>
<path d="" fill="#00609F" transform="translate(0,0)"/>
<path d="" fill="#00609F" transform="translate(0,0)"/>
<path d="M0 0 C2 1 2 1 2 1 Z " fill="#FFFFFF" transform="translate(380,85)"/>
<path d="M0 0 C2 1 2 1 2 1 Z " fill="#FFFFFF" transform="translate(373,81)"/>
<path d="M0 0 C2 1 2 1 2 1 Z " fill="#FFFFFF" transform="translate(368,78)"/>
<path d="" fill="#0055AA" transform="translate(0,0)"/>
<path d="" fill="#0055AA" transform="translate(0,0)"/>
<path d="M0 0 C2 1 2 1 2 1 Z " fill="#FFFFFF" transform="translate(361,74)"/>
<path d="" fill="#004AB4" transform="translate(0,0)"/>
<path d="" fill="#0055AA" transform="translate(0,0)"/>
<path d="M0 0 C2 1 2 1 2 1 Z " fill="#FFFFFF" transform="translate(356,71)"/>
<path d="" fill="#00609F" transform="translate(0,0)"/>
<path d="" fill="#004AB4" transform="translate(0,0)"/>
<path d="M0 0 C2 1 2 1 2 1 Z " fill="#FFFFFF" transform="translate(351,68)"/>
<path d="M0 0 C2 1 2 1 2 1 Z " fill="#FFFFFF" transform="translate(349,67)"/>
<path d="" fill="#00609F" transform="translate(0,0)"/>
<path d="" fill="#00609F" transform="translate(0,0)"/>
<path d="M0 0 C2 1 2 1 2 1 Z " fill="#FFFFFF" transform="translate(344,64)"/>
<path d="" fill="#00609F" transform="translate(0,0)"/>
<path d="M0 0 C2 1 2 1 2 1 Z " fill="#FFFFFF" transform="translate(339,61)"/>
<path d="" fill="#0055AA" transform="translate(0,0)"/>
<path d="" fill="#0055AA" transform="translate(0,0)"/>
<path d="" fill="#0055AA" transform="translate(0,0)"/>
<path d="" fill="#00609F" transform="translate(0,0)"/>
<path d="" fill="#0055AA" transform="translate(0,0)"/>
<path d="" fill="#00609F" transform="translate(0,0)"/>
<path d="" fill="#004AB4" transform="translate(0,0)"/>
<path d="" fill="#00609F" transform="translate(0,0)"/>
<path d="" fill="#00609F" transform="translate(0,0)"/>
<path d="" fill="#0055AA" transform="translate(0,0)"/>
<path d="" fill="#0055AA" transform="translate(0,0)"/>
<path d="" fill="#004AB4" transform="translate(0,0)"/>
<path d="" fill="#0055AA" transform="translate(0,0)"/>
<path d="" fill="#FFFFFF" transform="translate(0,0)"/>
<path d="" fill="#FFFFFF" transform="translate(0,0)"/>
<path d="" fill="#FFFFFF" transform="translate(0,0)"/>
<path d="" fill="#FFFFFF" transform="translate(0,0)"/>
<path d="" fill="#FFFFFF" transform="translate(0,0)"/>
<path d="" fill="#FFFFFF" transform="translate(0,0)"/>
<path d="" fill="#FFFFFF" transform="translate(0,0)"/>
<path d="" fill="#FFFFFF" transform="translate(0,0)"/>
<path d="" fill="#FFFFFF" transform="translate(0,0)"/>
<path d="" fill="#FFFFFF" transform="translate(0,0)"/>
<path d="" fill="#FFFFFF" transform="translate(0,0)"/>
<path d="" fill="#FFFFFF" transform="translate(0,0)"/>
<path d="" fill="#FFFFFF" transform="translate(0,0)"/>
<path d="" fill="#FFFFFF" transform="translate(0,0)"/>
<path d="" fill="#FFFFFF" transform="translate(0,0)"/>
<path d="" fill="#FFFFFF" transform="translate(0,0)"/>
<path d="" fill="#FFFFFF" transform="translate(0,0)"/>
<path d="" fill="#FFFFFF" transform="translate(0,0)"/>
<path d="" fill="#FFFFFF" transform="translate(0,0)"/>
<path d="" fill="#FFFFFF" transform="translate(0,0)"/>
<path d="" fill="#FFFFFF" transform="translate(0,0)"/>
<path d="" fill="#FFFFFF" transform="translate(0,0)"/>
<path d="" fill="#FFFFFF" transform="translate(0,0)"/>
<path d="" fill="#FFFFFF" transform="translate(0,0)"/>
<path d="" fill="#FFFFFF" transform="translate(0,0)"/>
<path d="" fill="#FFFFFF" transform="translate(0,0)"/>
<path d="" fill="#FFFFFF" transform="translate(0,0)"/>
<path d="" fill="#FFFFFF" transform="translate(0,0)"/>
<path d="" fill="#FFFFFF" transform="translate(0,0)"/>
<path d="" fill="#FFFFFF" transform="translate(0,0)"/>
<path d="" fill="#FFFFFF" transform="translate(0,0)"/>
<path d="" fill="#FFFFFF" transform="translate(0,0)"/>
<path d="" fill="#FFFFFF" transform="translate(0,0)"/>
<path d="" fill="#FFFFFF" transform="translate(0,0)"/>
<path d="" fill="#FFFFFF" transform="translate(0,0)"/>
<path d="" fill="#FFFFFF" transform="translate(0,0)"/>
<path d="" fill="#FFFFFF" transform="translate(0,0)"/>
<path d="" fill="#FFFFFF" transform="translate(0,0)"/>
<path d="" fill="#FFFFFF" transform="translate(0,0)"/>
<path d="" fill="#FFFFFF" transform="translate(0,0)"/>
<path d="" fill="#FFFFFF" transform="translate(0,0)"/>
<path d="" fill="#FFFFFF" transform="translate(0,0)"/>
<path d="" fill="#FFFFFF" transform="translate(0,0)"/>
<path d="" fill="#FFFFFF" transform="translate(0,0)"/>
<path d="" fill="#FFFFFF" transform="translate(0,0)"/>
<path d="" fill="#FFFFFF" transform="translate(0,0)"/>
<path d="" fill="#0000FF" transform="translate(0,0)"/>
<path d="" fill="#0080FF" transform="translate(0,0)"/>
<path d="" fill="#FFFFFF" transform="translate(0,0)"/>
<path d="" fill="#FFFFFF" transform="translate(0,0)"/>
<path d="" fill="#0080FF" transform="translate(0,0)"/>
<path d="" fill="#0055FF" transform="translate(0,0)"/>
<path d="" fill="#FFFFFF" transform="translate(0,0)"/>
<path d="" fill="#FFFFFF" transform="translate(0,0)"/>
<path d="" fill="#FFFFFF" transform="translate(0,0)"/>
<path d="" fill="#0055FF" transform="translate(0,0)"/>
<path d="" fill="#0055FF" transform="translate(0,0)"/>
<path d="" fill="#FFFFFF" transform="translate(0,0)"/>
<path d="" fill="#FFFFFF" transform="translate(0,0)"/>
<path d="" fill="#FFFFFF" transform="translate(0,0)"/>
<path d="" fill="#FFFFFF" transform="translate(0,0)"/>
<path d="" fill="#0080FF" transform="translate(0,0)"/>
<path d="" fill="#0080FF" transform="translate(0,0)"/>
<path d="" fill="#FFFFFF" transform="translate(0,0)"/>
<path d="" fill="#FFFFFF" transform="translate(0,0)"/>
<path d="" fill="#FFFFFF" transform="translate(0,0)"/>
<path d="" fill="#FFFFFF" transform="translate(0,0)"/>
<path d="" fill="#FFFFFF" transform="translate(0,0)"/>
<path d="" fill="#FFFFFF" transform="translate(0,0)"/>
<path d="" fill="#FFFFFF" transform="translate(0,0)"/>
<path d="" fill="#FFFFFF" transform="translate(0,0)"/>
<path d="" fill="#FFFFFF" transform="translate(0,0)"/>
<path d="" fill="#FFFFFF" transform="translate(0,0)"/>
<path d="" fill="#0080FF" transform="translate(0,0)"/>
<path d="" fill="#0080FF" transform="translate(0,0)"/>
<path d="" fill="#FFFFFF" transform="translate(0,0)"/>
<path d="" fill="#FFFFFF" transform="translate(0,0)"/>
<path d="" fill="#0055FF" transform="translate(0,0)"/>
<path d="" fill="#0055FF" transform="translate(0,0)"/>
<path d="" fill="#FFFFFF" transform="translate(0,0)"/>
<path d="" fill="#FFFFFF" transform="translate(0,0)"/>
<path d="" fill="#0055FF" transform="translate(0,0)"/>
<path d="" fill="#0055FF" transform="translate(0,0)"/>
<path d="" fill="#FFFFFF" transform="translate(0,0)"/>
<path d="" fill="#FFFFFF" transform="translate(0,0)"/>
<path d="" fill="#FFFFFF" transform="translate(0,0)"/>
<path d="" fill="#0055FF" transform="translate(0,0)"/>
<path d="" fill="#0055FF" transform="translate(0,0)"/>
<path d="" fill="#FFFFFF" transform="translate(0,0)"/>
<path d="" fill="#FFFFFF" transform="translate(0,0)"/>
<path d="" fill="#FFFFFF" transform="translate(0,0)"/>
<path d="" fill="#FFFFFF" transform="translate(0,0)"/>
<path d="" fill="#FFFFFF" transform="translate(0,0)"/>
<path d="" fill="#FFFFFF" transform="translate(0,0)"/>
<path d="" fill="#FFFFFF" transform="translate(0,0)"/>
<path d="" fill="#FFFFFF" transform="translate(0,0)"/>
<path d="" fill="#FFFFFF" transform="translate(0,0)"/>
<path d="" fill="#FFFFFF" transform="translate(0,0)"/>
<path d="" fill="#FFFFFF" transform="translate(0,0)"/>
<path d="" fill="#0055FF" transform="translate(0,0)"/>
<path d="" fill="#0080FF" transform="translate(0,0)"/>
<path d="" fill="#FFFFFF" transform="translate(0,0)"/>
<path d="" fill="#FFFFFF" transform="translate(0,0)"/>
<path d="" fill="#0055FF" transform="translate(0,0)"/>
<path d="" fill="#0055FF" transform="translate(0,0)"/>
<path d="" fill="#FFFFFF" transform="translate(0,0)"/>
<path d="" fill="#FFFFFF" transform="translate(0,0)"/>
<path d="" fill="#0055FF" transform="translate(0,0)"/>
<path d="" fill="#0055FF" transform="translate(0,0)"/>
<path d="" fill="#FFFFFF" transform="translate(0,0)"/>
<path d="" fill="#FFFFFF" transform="translate(0,0)"/>
<path d="" fill="#0080FF" transform="translate(0,0)"/>
<path d="" fill="#0080FF" transform="translate(0,0)"/>
<path d="" fill="#FFFFFF" transform="translate(0,0)"/>
<path d="" fill="#FFFFFF" transform="translate(0,0)"/>
<path d="" fill="#FFFFFF" transform="translate(0,0)"/>
<path d="" fill="#FFFFFF" transform="translate(0,0)"/>
<path d="" fill="#0080FF" transform="translate(0,0)"/>
<path d="" fill="#0080FF" transform="translate(0,0)"/>
<path d="" fill="#FFFFFF" transform="translate(0,0)"/>
<path d="" fill="#0055FF" transform="translate(0,0)"/>
<path d="" fill="#0055FF" transform="translate(0,0)"/>
<path d="" fill="#FFFFFF" transform="translate(0,0)"/>
<path d="" fill="#0055FF" transform="translate(0,0)"/>
<path d="" fill="#0055FF" transform="translate(0,0)"/>
<path d="" fill="#FFFFFF" transform="translate(0,0)"/>
<path d="" fill="#FFFFFF" transform="translate(0,0)"/>
<path d="" fill="#0055FF" transform="translate(0,0)"/>
<path d="" fill="#0055FF" transform="translate(0,0)"/>
<path d="" fill="#FFFFFF" transform="translate(0,0)"/>
<path d="" fill="#FFFFFF" transform="translate(0,0)"/>
<path d="" fill="#0080FF" transform="translate(0,0)"/>
<path d="" fill="#0080FF" transform="translate(0,0)"/>
<path d="" fill="#FFFFFF" transform="translate(0,0)"/>
<path d="" fill="#FFFFFF" transform="translate(0,0)"/>
<path d="" fill="#FFFFFF" transform="translate(0,0)"/>
<path d="" fill="#FFFFFF" transform="translate(0,0)"/>
<path d="" fill="#FFFFFF" transform="translate(0,0)"/>
<path d="" fill="#0080FF" transform="translate(0,0)"/>
<path d="" fill="#0080FF" transform="translate(0,0)"/>
<path d="" fill="#FFFFFF" transform="translate(0,0)"/>
<path d="" fill="#0055FF" transform="translate(0,0)"/>
<path d="" fill="#0055FF" transform="translate(0,0)"/>
<path d="" fill="#FFFFFF" transform="translate(0,0)"/>
<path d="" fill="#0055FF" transform="translate(0,0)"/>
<path d="" fill="#0080FF" transform="translate(0,0)"/>
<path d="" fill="#FFFFFF" transform="translate(0,0)"/>
<path d="" fill="#FFFFFF" transform="translate(0,0)"/>
<path d="" fill="#0055FF" transform="translate(0,0)"/>
<path d="" fill="#0055FF" transform="translate(0,0)"/>
<path d="" fill="#FFFFFF" transform="translate(0,0)"/>
<path d="" fill="#FFFFFF" transform="translate(0,0)"/>
<path d="" fill="#FFFFFF" transform="translate(0,0)"/>
<path d="" fill="#FFFFFF" transform="translate(0,0)"/>
<path d="" fill="#0080FF" transform="translate(0,0)"/>
<path d="" fill="#0080FF" transform="translate(0,0)"/>
<path d="" fill="#FFFFFF" transform="translate(0,0)"/>
<path d="" fill="#0055FF" transform="translate(0,0)"/>
<path d="" fill="#0055FF" transform="translate(0,0)"/>
<path d="" fill="#FFFFFF" transform="translate(0,0)"/>
<path d="" fill="#0080FF" transform="translate(0,0)"/>
<path d="" fill="#0080FF" transform="translate(0,0)"/>
<path d="" fill="#FFFFFF" transform="translate(0,0)"/>
<path d="" fill="#FFFFFF" transform="translate(0,0)"/>
<path d="" fill="#0080FF" transform="translate(0,0)"/>
<path d="" fill="#0080FF" transform="translate(0,0)"/>
<path d="" fill="#FFFFFF" transform="translate(0,0)"/>
<path d="" fill="#FFFFFF" transform="translate(0,0)"/>
<path d="" fill="#0055FF" transform="translate(0,0)"/>
<path d="" fill="#0055FF" transform="translate(0,0)"/>
<path d="" fill="#FFFFFF" transform="translate(0,0)"/>
<path d="" fill="#FFFFFF" transform="translate(0,0)"/>
<path d="" fill="#FFFFFF" transform="translate(0,0)"/>
<path d="" fill="#FFFFFF" transform="translate(0,0)"/>
<path d="" fill="#FFFFFF" transform="translate(0,0)"/>
<path d="" fill="#0055FF" transform="translate(0,0)"/>
<path d="" fill="#0055FF" transform="translate(0,0)"/>
<path d="" fill="#FFFFFF" transform="translate(0,0)"/>
<path d="" fill="#0055FF" transform="translate(0,0)"/>
<path d="" fill="#0055FF" transform="translate(0,0)"/>
<path d="" fill="#FFFFFF" transform="translate(0,0)"/>
<path d="" fill="#0080FF" transform="translate(0,0)"/>
<path d="" fill="#0080FF" transform="translate(0,0)"/>
<path d="" fill="#FFFFFF" transform="translate(0,0)"/>
<path d="" fill="#FFFFFF" transform="translate(0,0)"/>
<path d="" fill="#0080FF" transform="translate(0,0)"/>
<path d="" fill="#0080FF" transform="translate(0,0)"/>
<path d="" fill="#FFFFFF" transform="translate(0,0)"/>
<path d="" fill="#FFFFFF" transform="translate(0,0)"/>
<path d="" fill="#FFFFFF" transform="translate(0,0)"/>
<path d="" fill="#FFFFFF" transform="translate(0,0)"/>
<path d="" fill="#FFFFFF" transform="translate(0,0)"/>
<path d="" fill="#FFFFFF" transform="translate(0,0)"/>
<path d="" fill="#0055FF" transform="translate(0,0)"/>
<path d="" fill="#00AAFF" transform="translate(0,0)"/>
<path d="" fill="#FFFFFF" transform="translate(0,0)"/>
<path d="" fill="#0080FF" transform="translate(0,0)"/>
<path d="" fill="#0080FF" transform="translate(0,0)"/>
<path d="" fill="#FFFFFF" transform="translate(0,0)"/>
<path d="" fill="#FFFFFF" transform="translate(0,0)"/>
<path d="" fill="#0080FF" transform="translate(0,0)"/>
<path d="" fill="#0080FF" transform="translate(0,0)"/>
<path d="" fill="#FFFFFF" transform="translate(0,0)"/>
<path d="" fill="#FFFFFF" transform="translate(0,0)"/>
<path d="" fill="#FFFFFF" transform="translate(0,0)"/>
<path d="" fill="#0080FF" transform="translate(0,0)"/>
<path d="" fill="#0080FF" transform="translate(0,0)"/>
<path d="" fill="#FFFFFF" transform="translate(0,0)"/>
<path d="" fill="#FFFFFF" transform="translate(0,0)"/>
<path d="" fill="#FFFFFF" transform="translate(0,0)"/>
<path d="" fill="#FFFFFF" transform="translate(0,0)"/>
<path d="" fill="#FFFFFF" transform="translate(0,0)"/>
<path d="" fill="#FFFFFF" transform="translate(0,0)"/>
<path d="" fill="#0080FF" transform="translate(0,0)"/>
<path d="" fill="#0080FF" transform="translate(0,0)"/>
<path d="" fill="#FFFFFF" transform="translate(0,0)"/>
<path d="" fill="#00AAFF" transform="translate(0,0)"/>
<path d="" fill="#00AAFF" transform="translate(0,0)"/>
<path d="" fill="#FFFFFF" transform="translate(0,0)"/>
<path d="" fill="#FFFFFF" transform="translate(0,0)"/>
<path d="" fill="#0080FF" transform="translate(0,0)"/>
<path d="" fill="#4080FF" transform="translate(0,0)"/>
<path d="" fill="#FFFFFF" transform="translate(0,0)"/>
<path d="" fill="#FFFFFF" transform="translate(0,0)"/>
<path d="" fill="#FFFFFF" transform="translate(0,0)"/>
<path d="" fill="#0080FF" transform="translate(0,0)"/>
<path d="" fill="#4080FF" transform="translate(0,0)"/>
<path d="" fill="#FFFFFF" transform="translate(0,0)"/>
<path d="" fill="#FFFFFF" transform="translate(0,0)"/>
<path d="" fill="#FFFFFF" transform="translate(0,0)"/>
<path d="" fill="#00AAFF" transform="translate(0,0)"/>
<path d="" fill="#00AAFF" transform="translate(0,0)"/>
<path d="" fill="#FFFFFF" transform="translate(0,0)"/>
<path d="" fill="#FFFFFF" transform="translate(0,0)"/>
<path d="" fill="#FFFFFF" transform="translate(0,0)"/>
<path d="" fill="#FFFFFF" transform="translate(0,0)"/>
<path d="" fill="#FFFFFF" transform="translate(0,0)"/>
<path d="" fill="#FFFFFF" transform="translate(0,0)"/>
<path d="" fill="#00AAFF" transform="translate(0,0)"/>
<path d="" fill="#00AAFF" transform="translate(0,0)"/>
<path d="" fill="#FFFFFF" transform="translate(0,0)"/>
<path d="" fill="#00AAFF" transform="translate(0,0)"/>
<path d="" fill="#00AAFF" transform="translate(0,0)"/>
<path d="" fill="#FFFFFF" transform="translate(0,0)"/>
<path d="" fill="#FFFFFF" transform="translate(0,0)"/>
<path d="" fill="#4080FF" transform="translate(0,0)"/>
<path d="" fill="#00AAFF" transform="translate(0,0)"/>
<path d="" fill="#FFFFFF" transform="translate(0,0)"/>
<path d="" fill="#FFFFFF" transform="translate(0,0)"/>
<path d="" fill="#FFFFFF" transform="translate(0,0)"/>
<path d="" fill="#00AAFF" transform="translate(0,0)"/>
<path d="" fill="#00AAFF" transform="translate(0,0)"/>
<path d="" fill="#FFFFFF" transform="translate(0,0)"/>
<path d="" fill="#FFFFFF" transform="translate(0,0)"/>
<path d="" fill="#FFFFFF" transform="translate(0,0)"/>
<path d="" fill="#00AAFF" transform="translate(0,0)"/>
<path d="" fill="#FFFFFF" transform="translate(0,0)"/>
<path d="" fill="#FFFFFF" transform="translate(0,0)"/>
<path d="" fill="#FFFFFF" transform="translate(0,0)"/>
<path d="" fill="#0080FF" transform="translate(0,0)"/>
<path d="" fill="#0080FF" transform="translate(0,0)"/>
<path d="" fill="#FFFFFF" transform="translate(0,0)"/>
<path d="" fill="#0080FF" transform="translate(0,0)"/>
<path d="" fill="#0080FF" transform="translate(0,0)"/>
<path d="" fill="#FFFFFF" transform="translate(0,0)"/>
<path d="" fill="#FFFFFF" transform="translate(0,0)"/>
<path d="" fill="#00AAFF" transform="translate(0,0)"/>
<path d="" fill="#00AAFF" transform="translate(0,0)"/>
<path d="" fill="#FFFFFF" transform="translate(0,0)"/>
<path d="" fill="#FFFFFF" transform="translate(0,0)"/>
<path d="" fill="#FFFFFF" transform="translate(0,0)"/>
<path d="" fill="#00AAFF" transform="translate(0,0)"/>
<path d="" fill="#00AAFF" transform="translate(0,0)"/>
<path d="" fill="#FFFFFF" transform="translate(0,0)"/>
<path d="" fill="#FFFFFF" transform="translate(0,0)"/>
<path d="" fill="#FFFFFF" transform="translate(0,0)"/>
<path d="" fill="#4080FF" transform="translate(0,0)"/>
<path d="" fill="#0080FF" transform="translate(0,0)"/>
<path d="" fill="#FFFFFF" transform="translate(0,0)"/>
<path d="" fill="#FFFFFF" transform="translate(0,0)"/>
<path d="" fill="#00FFFF" transform="translate(0,0)"/>
<path d="" fill="#FFFFFF" transform="translate(0,0)"/>
<path d="" fill="#0080FF" transform="translate(0,0)"/>
<path d="" fill="#0080FF" transform="translate(0,0)"/>
<path d="" fill="#FFFFFF" transform="translate(0,0)"/>
<path d="" fill="#00AAFF" transform="translate(0,0)"/>
<path d="" fill="#FFFFFF" transform="translate(0,0)"/>
<path d="" fill="#FFFFFF" transform="translate(0,0)"/>
<path d="" fill="#00AAFF" transform="translate(0,0)"/>
<path d="" fill="#FFFFFF" transform="translate(0,0)"/>
<path d="" fill="#FFFFFF" transform="translate(0,0)"/>
<path d="" fill="#00AAFF" transform="translate(0,0)"/>
<path d="" fill="#FFFFFF" transform="translate(0,0)"/>
<path d="" fill="#0080FF" transform="translate(0,0)"/>
<path d="" fill="#FFFFFF" transform="translate(0,0)"/>
<path d="" fill="#00FFFF" transform="translate(0,0)"/>
<path d="" fill="#0080FF" transform="translate(0,0)"/>
<path d="" fill="#FFFFFF" transform="translate(0,0)"/>
<path d="" fill="#FFFFFF" transform="translate(0,0)"/>
<path d="" fill="#FFFFFF" transform="translate(0,0)"/>
<path d="" fill="#FFFFFF" transform="translate(0,0)"/>
<path d="" fill="#FFFFFF" transform="translate(0,0)"/>
<path d="" fill="#FFFFFF" transform="translate(0,0)"/>
<path d="" fill="#00AAFF" transform="translate(0,0)"/>
<path d="" fill="#0080FF" transform="translate(0,0)"/>
<path d="" fill="#FFFFFF" transform="translate(0,0)"/>
<path d="" fill="#FFFFFF" transform="translate(0,0)"/>
<path d="" fill="#00AAFF" transform="translate(0,0)"/>
<path d="" fill="#FFFFFF" transform="translate(0,0)"/>
<path d="" fill="#00AAFF" transform="translate(0,0)"/>
<path d="" fill="#0080FF" transform="translate(0,0)"/>
<path d="" fill="#00AAFF" transform="translate(0,0)"/>
<path d="" fill="#00AAFF" transform="translate(0,0)"/>
<path d="" fill="#FFFFFF" transform="translate(0,0)"/>
<path d="" fill="#FFFFFF" transform="translate(0,0)"/>
<path d="" fill="#FFFFFF" transform="translate(0,0)"/>
<path d="" fill="#00AAFF" transform="translate(0,0)"/>
<path d="" fill="#FFFFFF" transform="translate(0,0)"/>
<path d="" fill="#FFFFFF" transform="translate(0,0)"/>
<path d="" fill="#FFFFFF" transform="translate(0,0)"/>
<path d="" fill="#0080FF" transform="translate(0,0)"/>
<path d="" fill="#0080FF" transform="translate(0,0)"/>
<path d="" fill="#FFFFFF" transform="translate(0,0)"/>
<path d="" fill="#FFFFFF" transform="translate(0,0)"/>
<path d="" fill="#FFFFFF" transform="translate(0,0)"/>
<path d="" fill="#00AAFF" transform="translate(0,0)"/>
<path d="" fill="#FFFFFF" transform="translate(0,0)"/>
<path d="" fill="#00AAFF" transform="translate(0,0)"/>
<path d="" fill="#0080FF" transform="translate(0,0)"/>
<path d="" fill="#00AAFF" transform="translate(0,0)"/>
<path d="" fill="#FFFFFF" transform="translate(0,0)"/>
<path d="" fill="#FFFFFF" transform="translate(0,0)"/>
<path d="" fill="#00AAFF" transform="translate(0,0)"/>
<path d="" fill="#FFFFFF" transform="translate(0,0)"/>
<path d="" fill="#FFFFFF" transform="translate(0,0)"/>
<path d="" fill="#FFFFFF" transform="translate(0,0)"/>
<path d="" fill="#00AAFF" transform="translate(0,0)"/>
<path d="" fill="#FFFFFF" transform="translate(0,0)"/>
<path d="" fill="#FFFFFF" transform="translate(0,0)"/>
<path d="" fill="#FFFFFF" transform="translate(0,0)"/>
<path d="" fill="#00AAFF" transform="translate(0,0)"/>
<path d="" fill="#0080FF" transform="translate(0,0)"/>
<path d="" fill="#FFFFFF" transform="translate(0,0)"/>
<path d="" fill="#FFFFFF" transform="translate(0,0)"/>
<path d="" fill="#FFFFFF" transform="translate(0,0)"/>
<path d="" fill="#00AAFF" transform="translate(0,0)"/>
<path d="" fill="#FFFFFF" transform="translate(0,0)"/>
<path d="" fill="#FFFFFF" transform="translate(0,0)"/>
<path d="" fill="#00AAFF" transform="translate(0,0)"/>
<path d="" fill="#FFFFFF" transform="translate(0,0)"/>
<path d="" fill="#0080FF" transform="translate(0,0)"/>
<path d="" fill="#00AAFF" transform="translate(0,0)"/>
<path d="" fill="#FFFFFF" transform="translate(0,0)"/>
<path d="" fill="#0080FF" transform="translate(0,0)"/>
<path d="" fill="#00AAFF" transform="translate(0,0)"/>
<path d="" fill="#FFFFFF" transform="translate(0,0)"/>
<path d="" fill="#FFFFFF" transform="translate(0,0)"/>
<path d="" fill="#00AAFF" transform="translate(0,0)"/>
<path d="" fill="#FFFFFF" transform="translate(0,0)"/>
<path d="" fill="#FFFFFF" transform="translate(0,0)"/>
<path d="" fill="#FFFFFF" transform="translate(0,0)"/>
<path d="" fill="#00AAFF" transform="translate(0,0)"/>
<path d="" fill="#FFFFFF" transform="translate(0,0)"/>
<path d="" fill="#FFFFFF" transform="translate(0,0)"/>
<path d="" fill="#FFFFFF" transform="translate(0,0)"/>
<path d="" fill="#00AAFF" transform="translate(0,0)"/>
<path d="" fill="#0080FF" transform="translate(0,0)"/>
<path d="" fill="#FFFFFF" transform="translate(0,0)"/>
<path d="" fill="#FFFFFF" transform="translate(0,0)"/>
<path d="" fill="#FFFFFF" transform="translate(0,0)"/>
<path d="" fill="#00AAFF" transform="translate(0,0)"/>
<path d="" fill="#FFFFFF" transform="translate(0,0)"/>
<path d="" fill="#00AAFF" transform="translate(0,0)"/>
<path d="" fill="#0080FF" transform="translate(0,0)"/>
<path d="" fill="#00AAFF" transform="translate(0,0)"/>
<path d="" fill="#FFFFFF" transform="translate(0,0)"/>
<path d="" fill="#FFFFFF" transform="translate(0,0)"/>
<path d="" fill="#FFFFFF" transform="translate(0,0)"/>
<path d="" fill="#00AAFF" transform="translate(0,0)"/>
<path d="" fill="#FFFFFF" transform="translate(0,0)"/>
<path d="" fill="#FFFFFF" transform="translate(0,0)"/>
<path d="" fill="#FFFFFF" transform="translate(0,0)"/>
<path d="" fill="#00AAFF" transform="translate(0,0)"/>
<path d="" fill="#FFFFFF" transform="translate(0,0)"/>
<path d="" fill="#FFFFFF" transform="translate(0,0)"/>
<path d="" fill="#FFFFFF" transform="translate(0,0)"/>
<path d="" fill="#0080FF" transform="translate(0,0)"/>
<path d="" fill="#00AAFF" transform="translate(0,0)"/>
<path d="" fill="#FFFFFF" transform="translate(0,0)"/>
<path d="" fill="#FFFFFF" transform="translate(0,0)"/>
<path d="" fill="#FFFFFF" transform="translate(0,0)"/>
<path d="" fill="#00AAFF" transform="translate(0,0)"/>
<path d="" fill="#0080FF" transform="translate(0,0)"/>
<path d="" fill="#FFFFFF" transform="translate(0,0)"/>
<path d="" fill="#FFFFFF" transform="translate(0,0)"/>
<path d="" fill="#FFFFFF" transform="translate(0,0)"/>
<path d="" fill="#0055FF" transform="translate(0,0)"/>
<path d="" fill="#FFFFFF" transform="translate(0,0)"/>
<path d="" fill="#0055FF" transform="translate(0,0)"/>
<path d="" fill="#0080FF" transform="translate(0,0)"/>
<path d="" fill="#00AAFF" transform="translate(0,0)"/>
<path d="" fill="#FFFFFF" transform="translate(0,0)"/>
<path d="" fill="#FFFFFF" transform="translate(0,0)"/>
<path d="" fill="#0055FF" transform="translate(0,0)"/>
<path d="" fill="#FFFFFF" transform="translate(0,0)"/>
<path d="" fill="#FFFFFF" transform="translate(0,0)"/>
<path d="" fill="#0055FF" transform="translate(0,0)"/>
<path d="" fill="#FFFFFF" transform="translate(0,0)"/>
<path d="" fill="#FFFFFF" transform="translate(0,0)"/>
<path d="" fill="#0055FF" transform="translate(0,0)"/>
<path d="" fill="#0080FF" transform="translate(0,0)"/>
<path d="" fill="#FFFFFF" transform="translate(0,0)"/>
<path d="" fill="#FFFFFF" transform="translate(0,0)"/>
<path d="" fill="#0055FF" transform="translate(0,0)"/>
<path d="" fill="#0080FF" transform="translate(0,0)"/>
<path d="" fill="#FFFFFF" transform="translate(0,0)"/>
<path d="" fill="#0055FF" transform="translate(0,0)"/>
<path d="" fill="#FFFFFF" transform="translate(0,0)"/>
<path d="" fill="#0080FF" transform="translate(0,0)"/>
<path d="" fill="#FFFFFF" transform="translate(0,0)"/>
<path d="" fill="#0055FF" transform="translate(0,0)"/>
<path d="" fill="#FFFFFF" transform="translate(0,0)"/>
<path d="" fill="#0055FF" transform="translate(0,0)"/>
<path d="" fill="#FFFFFF" transform="translate(0,0)"/>
<path d="" fill="#FFFFFF" transform="translate(0,0)"/>
<path d="" fill="#0055FF" transform="translate(0,0)"/>
<path d="" fill="#0055FF" transform="translate(0,0)"/>
<path d="" fill="#FFFFFF" transform="translate(0,0)"/>
<path d="" fill="#FFFFFF" transform="translate(0,0)"/>
<path d="" fill="#0055FF" transform="translate(0,0)"/>
<path d="" fill="#0080FF" transform="translate(0,0)"/>
<path d="" fill="#FFFFFF" transform="translate(0,0)"/>
<path d="" fill="#0055FF" transform="translate(0,0)"/>
<path d="" fill="#0055FF" transform="translate(0,0)"/>
<path d="" fill="#FFFFFF" transform="translate(0,0)"/>
<path d="" fill="#0080FF" transform="translate(0,0)"/>
<path d="" fill="#0055FF" transform="translate(0,0)"/>
<path d="" fill="#FFFFFF" transform="translate(0,0)"/>
<path d="" fill="#0055FF" transform="translate(0,0)"/>
<path d="" fill="#FFFFFF" transform="translate(0,0)"/>
<path d="" fill="#FFFFFF" transform="translate(0,0)"/>
<path d="" fill="#0055FF" transform="translate(0,0)"/>
<path d="" fill="#FFFFFF" transform="translate(0,0)"/>
<path d="" fill="#FFFFFF" transform="translate(0,0)"/>
<path d="" fill="#0080FF" transform="translate(0,0)"/>
<path d="" fill="#0055FF" transform="translate(0,0)"/>
<path d="" fill="#FFFFFF" transform="translate(0,0)"/>
<path d="" fill="#FFFFFF" transform="translate(0,0)"/>
<path d="" fill="#0055FF" transform="translate(0,0)"/>
<path d="" fill="#0080FF" transform="translate(0,0)"/>
<path d="" fill="#FFFFFF" transform="translate(0,0)"/>
<path d="" fill="#0055FF" transform="translate(0,0)"/>
<path d="" fill="#0080FF" transform="translate(0,0)"/>
<path d="" fill="#FFFFFF" transform="translate(0,0)"/>
<path d="" fill="#0080FF" transform="translate(0,0)"/>
<path d="" fill="#0080FF" transform="translate(0,0)"/>
<path d="" fill="#FFFFFF" transform="translate(0,0)"/>
<path d="" fill="#FFFFFF" transform="translate(0,0)"/>
<path d="" fill="#0055FF" transform="translate(0,0)"/>
<path d="" fill="#FFFFFF" transform="translate(0,0)"/>
<path d="" fill="#FFFFFF" transform="translate(0,0)"/>
<path d="" fill="#0055FF" transform="translate(0,0)"/>
<path d="" fill="#FFFFFF" transform="translate(0,0)"/>
<path d="" fill="#FFFFFF" transform="translate(0,0)"/>
<path d="" fill="#0080FF" transform="translate(0,0)"/>
<path d="" fill="#0055FF" transform="translate(0,0)"/>
<path d="" fill="#FFFFFF" transform="translate(0,0)"/>
<path d="" fill="#FFFFFF" transform="translate(0,0)"/>
<path d="" fill="#0055FF" transform="translate(0,0)"/>
<path d="" fill="#0080FF" transform="translate(0,0)"/>
<path d="" fill="#FFFFFF" transform="translate(0,0)"/>
<path d="" fill="#0055FF" transform="translate(0,0)"/>
<path d="" fill="#0080FF" transform="translate(0,0)"/>
<path d="" fill="#FFFFFF" transform="translate(0,0)"/>
<path d="" fill="#0080FF" transform="translate(0,0)"/>
<path d="" fill="#FFFFFF" transform="translate(0,0)"/>
<path d="" fill="#FFFFFF" transform="translate(0,0)"/>
<path d="" fill="#0055FF" transform="translate(0,0)"/>
<path d="" fill="#FFFFFF" transform="translate(0,0)"/>
<path d="" fill="#FFFFFF" transform="translate(0,0)"/>
<path d="" fill="#0055FF" transform="translate(0,0)"/>
<path d="" fill="#0055FF" transform="translate(0,0)"/>
<path d="" fill="#FFFFFF" transform="translate(0,0)"/>
<path d="" fill="#FFFFFF" transform="translate(0,0)"/>
<path d="" fill="#0055FF" transform="translate(0,0)"/>
<path d="" fill="#0080FF" transform="translate(0,0)"/>
<path d="" fill="#FFFFFF" transform="translate(0,0)"/>
<path d="" fill="#FFFFFF" transform="translate(0,0)"/>
<path d="" fill="#FFFFFF" transform="translate(0,0)"/>
<path d="" fill="#0055FF" transform="translate(0,0)"/>
<path d="" fill="#0080FF" transform="translate(0,0)"/>
<path d="" fill="#FFFFFF" transform="translate(0,0)"/>
<path d="" fill="#0055FF" transform="translate(0,0)"/>
<path d="" fill="#FFFFFF" transform="translate(0,0)"/>
<path d="" fill="#0080FF" transform="translate(0,0)"/>
<path d="" fill="#0055FF" transform="translate(0,0)"/>
<path d="" fill="#FFFFFF" transform="translate(0,0)"/>
<path d="" fill="#FFFFFF" transform="translate(0,0)"/>
<path d="" fill="#FFFFFF" transform="translate(0,0)"/>
<path d="" fill="#FFFFFF" transform="translate(0,0)"/>
<path d="" fill="#0080BF" transform="translate(0,0)"/>
<path d="" fill="#FFFFFF" transform="translate(0,0)"/>
<path d="" fill="#FFFFFF" transform="translate(0,0)"/>
<path d="" fill="#FFFFFF" transform="translate(0,0)"/>
<path d="" fill="#FFFFFF" transform="translate(0,0)"/>
<path d="" fill="#0055FF" transform="translate(0,0)"/>
<path d="" fill="#FFFFFF" transform="translate(0,0)"/>
<path d="" fill="#FFFFFF" transform="translate(0,0)"/>
<path d="" fill="#FFFFFF" transform="translate(0,0)"/>
<path d="" fill="#0080BF" transform="translate(0,0)"/>
<path d="" fill="#0055FF" transform="translate(0,0)"/>
<path d="" fill="#FFFFFF" transform="translate(0,0)"/>
<path d="" fill="#FFFFFF" transform="translate(0,0)"/>
<path d="" fill="#FFFFFF" transform="translate(0,0)"/>
<path d="" fill="#0055FF" transform="translate(0,0)"/>
<path d="" fill="#0080FF" transform="translate(0,0)"/>
<path d="" fill="#FFFFFF" transform="translate(0,0)"/>
<path d="" fill="#FFFFFF" transform="translate(0,0)"/>
<path d="" fill="#FFFFFF" transform="translate(0,0)"/>
<path d="" fill="#0055FF" transform="translate(0,0)"/>
<path d="" fill="#FFFFFF" transform="translate(0,0)"/>
<path d="" fill="#0080FF" transform="translate(0,0)"/>
<path d="" fill="#FFFFFF" transform="translate(0,0)"/>
<path d="" fill="#FFFFFF" transform="translate(0,0)"/>
<path d="" fill="#FFFFFF" transform="translate(0,0)"/>
<path d="" fill="#0080FF" transform="translate(0,0)"/>
<path d="" fill="#0055FF" transform="translate(0,0)"/>
<path d="" fill="#FFFFFF" transform="translate(0,0)"/>
<path d="" fill="#FFFFFF" transform="translate(0,0)"/>
<path d="" fill="#FFFFFF" transform="translate(0,0)"/>
<path d="" fill="#FFFFFF" transform="translate(0,0)"/>
<path d="" fill="#0055FF" transform="translate(0,0)"/>
<path d="" fill="#FFFFFF" transform="translate(0,0)"/>
<path d="" fill="#FFFFFF" transform="translate(0,0)"/>
<path d="" fill="#FFFFFF" transform="translate(0,0)"/>
<path d="" fill="#FFFFFF" transform="translate(0,0)"/>
<path d="" fill="#0055FF" transform="translate(0,0)"/>
<path d="" fill="#0055FF" transform="translate(0,0)"/>
<path d="" fill="#FFFFFF" transform="translate(0,0)"/>
<path d="" fill="#FFFFFF" transform="translate(0,0)"/>
<path d="" fill="#FFFFFF" transform="translate(0,0)"/>
<path d="" fill="#0055FF" transform="translate(0,0)"/>
<path d="" fill="#0000FF" transform="translate(0,0)"/>
<path d="" fill="#FFFFFF" transform="translate(0,0)"/>
<path d="" fill="#FFFFFF" transform="translate(0,0)"/>
<path d="" fill="#FFFFFF" transform="translate(0,0)"/>
<path d="" fill="#0000FF" transform="translate(0,0)"/>
<path d="" fill="#0000FF" transform="translate(0,0)"/>
<path d="" fill="#FFFFFF" transform="translate(0,0)"/>
<path d="" fill="#0000FF" transform="translate(0,0)"/>
<path d="" fill="#FFFFFF" transform="translate(0,0)"/>
<path d="" fill="#FFFFFF" transform="translate(0,0)"/>
<path d="" fill="#FFFFFF" transform="translate(0,0)"/>
<path d="" fill="#FFFFFF" transform="translate(0,0)"/>
<path d="" fill="#FFFFFF" transform="translate(0,0)"/>
<path d="" fill="#FFFFFF" transform="translate(0,0)"/>
<path d="" fill="#FFFFFF" transform="translate(0,0)"/>
<path d="" fill="#FFFFFF" transform="translate(0,0)"/>
<path d="" fill="#FFFFFF" transform="translate(0,0)"/>
<path d="" fill="#FFFFFF" transform="translate(0,0)"/>
<path d="" fill="#FFFFFF" transform="translate(0,0)"/>
<path d="" fill="#FFFFFF" transform="translate(0,0)"/>
<path d="" fill="#FFFFFF" transform="translate(0,0)"/>
<path d="" fill="#FFFFFF" transform="translate(0,0)"/>
<path d="" fill="#FFFFFF" transform="translate(0,0)"/>
<path d="" fill="#FFFFFF" transform="translate(0,0)"/>
<path d="" fill="#FFFFFF" transform="translate(0,0)"/>
<path d="" fill="#FFFFFF" transform="translate(0,0)"/>
<path d="" fill="#FFFFFF" transform="translate(0,0)"/>
<path d="" fill="#FFFFFF" transform="translate(0,0)"/>
<path d="" fill="#FFFFFF" transform="translate(0,0)"/>
<path d="" fill="#FFFFFF" transform="translate(0,0)"/>
<path d="" fill="#FFFFFF" transform="translate(0,0)"/>
<path d="" fill="#FFFFFF" transform="translate(0,0)"/>
<path d="" fill="#FFFFFF" transform="translate(0,0)"/>
<path d="" fill="#FFFFFF" transform="translate(0,0)"/>
<path d="" fill="#FFFFFF" transform="translate(0,0)"/>
<path d="" fill="#FFFFFF" transform="translate(0,0)"/>
<path d="" fill="#FFFFFF" transform="translate(0,0)"/>
<path d="" fill="#FFFFFF" transform="translate(0,0)"/>
<path d="" fill="#FFFFFF" transform="translate(0,0)"/>
<path d="" fill="#FFFFFF" transform="translate(0,0)"/>
<path d="" fill="#FFFFFF" transform="translate(0,0)"/>
<path d="" fill="#FFFFFF" transform="translate(0,0)"/>
<path d="" fill="#FFFFFF" transform="translate(0,0)"/>
<path d="" fill="#FFFFFF" transform="translate(0,0)"/>
<path d="" fill="#FFFFFF" transform="translate(0,0)"/>
<path d="" fill="#FFFFFF" transform="translate(0,0)"/>
<path d="" fill="#FFFFFF" transform="translate(0,0)"/>
<path d="" fill="#FFFFFF" transform="translate(0,0)"/>
</svg>
