<?xml version="1.0" encoding="UTF-8"?>
<svg version="1.1" xmlns="http://www.w3.org/2000/svg" width="50" height="50">
<path d="M0 0 C0.92876953 0.04189453 1.85753906 0.08378906 2.81445312 0.12695312 C3.75482422 0.14951172 4.69519531 0.17207031 5.6640625 0.1953125 C7.98662786 0.25426086 10.30599088 0.33647528 12.62695312 0.43945312 C12.62695312 2.08945313 12.62695312 3.73945313 12.62695312 5.43945312 C7.01695313 5.43945312 1.40695313 5.43945312 -4.37304688 5.43945312 C-4.37304688 6.75945313 -4.37304688 8.07945313 -4.37304688 9.43945312 C-0.08304688 9.43945312 4.20695312 9.43945312 8.62695312 9.43945312 C8.95695312 11.08945313 9.28695312 12.73945313 9.62695312 14.43945312 C5.00695312 14.76945313 0.38695312 15.09945313 -4.37304688 15.43945312 C-4.37304688 16.42945313 -4.37304688 17.41945313 -4.37304688 18.43945312 C1.23695312 18.43945312 6.84695312 18.43945312 12.62695312 18.43945312 C12.62695312 20.08945312 12.62695312 21.73945313 12.62695312 23.43945312 C9.14780372 23.46833126 5.66868482 23.48621 2.18945312 23.50195312 C0.69961914 23.51452148 0.69961914 23.51452148 -0.8203125 23.52734375 C-1.76455078 23.53056641 -2.70878906 23.53378906 -3.68164062 23.53710938 C-4.99346313 23.5449646 -4.99346313 23.5449646 -6.33178711 23.55297852 C-8.37304688 23.43945312 -8.37304688 23.43945312 -9.37304688 22.43945312 C-9.69272915 19.68071345 -9.93545798 16.95753314 -10.12304688 14.18945312 C-10.19136719 13.42503906 -10.2596875 12.660625 -10.33007812 11.87304688 C-10.56209804 8.42844348 -10.46201094 5.75718192 -9.52539062 2.41210938 C-6.47349177 -0.385003 -4.0332463 -0.07280228 0 0 Z " fill="#FEFFFF" transform="translate(35.373046875,-0.439453125)"/>
<path d="M0 0 C4.888125 -0.061875 4.888125 -0.061875 9.875 -0.125 C10.90093262 -0.14320801 11.92686523 -0.16141602 12.98388672 -0.18017578 C13.79100098 -0.1851709 14.59811523 -0.19016602 15.4296875 -0.1953125 C16.25710449 -0.20578613 17.08452148 -0.21625977 17.93701172 -0.22705078 C20 0 20 0 22 2 C22.25878906 3.93945312 22.25878906 3.93945312 22.265625 6.28125 C22.26949219 7.54388672 22.26949219 7.54388672 22.2734375 8.83203125 C22.26570313 9.71246094 22.25796875 10.59289063 22.25 11.5 C22.25773437 12.38042969 22.26546875 13.26085938 22.2734375 14.16796875 C22.27085938 15.00972656 22.26828125 15.85148437 22.265625 16.71875 C22.26336914 17.49154297 22.26111328 18.26433594 22.25878906 19.06054688 C22 21 22 21 20 23 C17.41935871 23.14497985 14.95056116 23.18677545 12.375 23.125 C11.31539062 23.11146484 11.31539062 23.11146484 10.234375 23.09765625 C8.48943902 23.07407603 6.74467705 23.03820461 5 23 C5 23.99 5 24.98 5 26 C3.35 26 1.7 26 0 26 C0 17.42 0 8.84 0 0 Z M5 5 C5 9.29 5 13.58 5 18 C7.9390625 18.0309375 7.9390625 18.0309375 10.9375 18.0625 C12.59072266 18.07990234 12.59072266 18.07990234 14.27734375 18.09765625 C16.91447634 18.31262571 16.91447634 18.31262571 18 17 C18.07244053 14.98035801 18.08377188 12.95832876 18.0625 10.9375 C18.041875 8.978125 18.02125 7.01875 18 5 C13.71 5 9.42 5 5 5 Z " fill="#FEFFFF" transform="translate(2,24)"/>
<path d="M0 0 C3.073125 -0.04125 6.14625 -0.0825 9.3125 -0.125 C10.27712158 -0.14320801 11.24174316 -0.16141602 12.2355957 -0.18017578 C12.99960693 -0.1851709 13.76361816 -0.19016602 14.55078125 -0.1953125 C15.72120972 -0.21102295 15.72120972 -0.21102295 16.9152832 -0.22705078 C19 0 19 0 22 2 C22.35644531 4.04711914 22.35644531 4.04711914 22.328125 6.53515625 C22.32296875 7.42654297 22.3178125 8.31792969 22.3125 9.23632812 C22.291875 10.16896484 22.27125 11.10160156 22.25 12.0625 C22.24484375 12.99900391 22.2396875 13.93550781 22.234375 14.90039062 C22.15390339 21.84609661 22.15390339 21.84609661 21 23 C19.43827255 23.08685603 17.87270656 23.10702219 16.30859375 23.09765625 C15.45837646 23.09515869 14.60815918 23.09266113 13.73217773 23.09008789 C12.64493408 23.08098389 11.55769043 23.07187988 10.4375 23.0625 C6.993125 23.041875 3.54875 23.02125 0 23 C0 15.41 0 7.82 0 0 Z M5 6 C5 9.96 5 13.92 5 18 C9.29 18 13.58 18 18 18 C18 14.04 18 10.08 18 6 C13.71 6 9.42 6 5 6 Z " fill="#FFFFFF" transform="translate(2,0)"/>
<path d="M0 0 C1.17079102 0.01160156 1.17079102 0.01160156 2.36523438 0.0234375 C3.53022461 0.01183594 3.53022461 0.01183594 4.71875 0 C8.62825605 0.01346944 10.60720469 0.05975105 13.92773438 2.2734375 C14.30004883 4.21289062 14.30004883 4.21289062 14.29101562 6.5546875 C14.29037109 7.39644531 14.28972656 8.23820312 14.2890625 9.10546875 C14.27294922 9.98589844 14.25683594 10.86632813 14.24023438 11.7734375 C14.24506836 13.09408203 14.24506836 13.09408203 14.25 14.44140625 C14.19470469 21.00646718 14.19470469 21.00646718 11.92773438 23.2734375 C10.08007812 23.51635742 10.08007812 23.51635742 7.86523438 23.50390625 C7.06859375 23.50197266 6.27195312 23.50003906 5.45117188 23.49804688 C4.20207031 23.47967773 4.20207031 23.47967773 2.92773438 23.4609375 C2.095 23.46029297 1.26226562 23.45964844 0.40429688 23.45898438 C-5.79140048 23.41387007 -5.79140048 23.41387007 -8.07226562 22.2734375 C-8.13016916 18.98184434 -8.16582823 15.69038147 -8.19726562 12.3984375 C-8.21402344 11.46128906 -8.23078125 10.52414063 -8.24804688 9.55859375 C-8.25771484 8.21474609 -8.25771484 8.21474609 -8.26757812 6.84375 C-8.27805176 6.01633301 -8.28852539 5.18891602 -8.29931641 4.33642578 C-7.75585593 -0.60146777 -4.10328771 0.01416148 0 0 Z M-3.07226562 5.2734375 C-3.07226562 9.5634375 -3.07226562 13.8534375 -3.07226562 18.2734375 C0.88773438 18.2734375 4.84773438 18.2734375 8.92773438 18.2734375 C8.92773438 13.9834375 8.92773438 9.6934375 8.92773438 5.2734375 C4.96773437 5.2734375 1.00773437 5.2734375 -3.07226562 5.2734375 Z " fill="#FEFFFF" transform="translate(34.072265625,23.7265625)"/>
<path d="M0 0 C0.99 0.33 1.98 0.66 3 1 C3 1.66 3 2.32 3 3 C3.99 3.33 4.98 3.66 6 4 C6 4.66 6 5.32 6 6 C5.01 6.33 4.02 6.66 3 7 C3 7.66 3 8.32 3 9 C2.01 9 1.02 9 0 9 C0 8.01 0 7.02 0 6 C-0.99 6 -1.98 6 -3 6 C-3 5.34 -3 4.68 -3 4 C-2.01 4 -1.02 4 0 4 C0 2.68 0 1.36 0 0 Z " fill="#FFED00" transform="translate(12,7)"/>
<path d="M0 0 C2.96175123 0.61277612 4.38058783 1.25372522 7 3 C7 3.66 7 4.32 7 5 C5.68 5 4.36 5 3 5 C3 5.66 3 6.32 3 7 C2.01 7 1.02 7 0 7 C0 4.69 0 2.38 0 0 Z " fill="#FFEF00" transform="translate(34,32)"/>
</svg>
