<?xml version="1.0" encoding="UTF-8"?>
<!-- Generator: https://ezgif.com/png-to-svg -->
<svg version="1.1" xmlns="http://www.w3.org/2000/svg" width="512" height="512" viewBox="-58.381 -39.137 716.934 716.934" preserveAspectRatio="xMidYMid meet">
<path d="M0 0 C1.02 -0 2.04 -0.01 3.09 -0.01 C6.51 -0.02 9.92 -0.02 13.34 -0.01 C15.79 -0.02 18.24 -0.02 20.68 -0.03 C26.64 -0.04 32.6 -0.04 38.56 -0.04 C43.41 -0.04 48.25 -0.04 53.09 -0.05 C53.78 -0.05 54.47 -0.05 55.18 -0.05 C56.58 -0.05 57.98 -0.05 59.38 -0.05 C72.51 -0.06 85.64 -0.06 98.76 -0.05 C110.78 -0.05 122.79 -0.06 134.81 -0.08 C147.15 -0.1 159.48 -0.11 171.82 -0.1 C178.74 -0.1 185.67 -0.1 192.6 -0.12 C199.11 -0.13 205.61 -0.13 212.12 -0.12 C214.52 -0.11 216.91 -0.12 219.3 -0.12 C222.56 -0.13 225.82 -0.13 229.07 -0.11 C230.03 -0.12 230.98 -0.13 231.97 -0.14 C232.84 -0.13 233.71 -0.12 234.6 -0.11 C235.36 -0.11 236.11 -0.11 236.88 -0.11 C239.39 0.37 240.29 1.27 241.85 3.26 C242.23 5.32 242.23 5.32 242.23 7.7 C242.24 8.59 242.25 9.49 242.26 10.41 C242.25 11.85 242.25 11.85 242.24 13.33 C242.25 14.32 242.25 15.31 242.25 16.33 C242.25 18.42 242.25 20.51 242.24 22.6 C242.22 25.81 242.24 29.02 242.26 32.24 C242.25 34.27 242.25 36.3 242.24 38.33 C242.25 39.29 242.26 40.26 242.26 41.25 C242.25 42.14 242.24 43.03 242.23 43.95 C242.23 44.74 242.23 45.52 242.23 46.33 C242.1 46.97 241.98 47.6 241.85 48.26 C238.03 50.8 234.99 50.52 230.57 50.47 C229.72 50.47 228.87 50.47 227.99 50.47 C225.11 50.46 222.24 50.44 219.37 50.42 C217.32 50.42 215.26 50.41 213.21 50.41 C208.77 50.39 204.34 50.37 199.91 50.35 C192.9 50.31 185.89 50.29 178.88 50.28 C158.95 50.23 139.02 50.16 119.08 50.07 C108.08 50.02 97.07 49.98 86.07 49.97 C79.1 49.95 72.14 49.92 65.17 49.88 C60.83 49.85 56.49 49.85 52.15 49.84 C50.14 49.84 48.14 49.83 46.13 49.81 C43.38 49.79 40.63 49.79 37.88 49.79 C36.7 49.77 36.7 49.77 35.49 49.75 C28.46 49.82 23.08 52.35 17.1 55.89 C9.1 64.33 8.69 74.55 8.75 85.57 C8.75 86.54 8.75 87.5 8.75 88.5 C8.76 91.57 8.77 94.63 8.78 97.7 C8.79 99.79 8.79 101.87 8.8 103.96 C8.81 109.06 8.83 114.16 8.85 119.26 C9.79 119.26 10.73 119.26 11.7 119.25 C41.41 119.19 71.13 119.19 100.85 119.26 C102.53 119.26 102.53 119.26 104.24 119.27 C118.65 119.3 133.05 119.37 147.45 119.47 C151.67 119.5 155.89 119.52 160.11 119.53 C165.09 119.55 170.06 119.58 175.04 119.63 C176.87 119.64 178.7 119.65 180.52 119.65 C183.02 119.65 185.52 119.68 188.02 119.71 C189.11 119.71 189.11 119.71 190.22 119.7 C193.75 119.77 195.76 120.21 198.78 122.09 C203.01 126.54 202 133.2 201.9 139.02 C201.89 139.74 201.88 140.45 201.86 141.18 C201.84 142.68 201.8 144.17 201.77 145.67 C201.74 147.19 201.72 148.72 201.71 150.24 C201.69 152.46 201.64 154.68 201.59 156.9 C201.57 158.21 201.54 159.53 201.52 160.89 C200.85 164.26 200.85 164.26 198.79 166.44 C195.16 168.69 192.25 168.82 188.11 168.78 C187.34 168.79 186.56 168.79 185.77 168.8 C183.19 168.82 180.6 168.81 178.02 168.81 C176.17 168.82 174.31 168.83 172.46 168.84 C167.43 168.87 162.4 168.87 157.38 168.87 C152.12 168.87 146.86 168.9 141.61 168.92 C131.66 168.96 121.71 168.98 111.75 168.99 C100.42 169.01 89.09 169.05 77.76 169.09 C54.46 169.17 31.15 169.23 7.85 169.26 C7.89 175.49 7.96 181.71 8.05 187.94 C8.08 190.05 8.1 192.17 8.12 194.28 C8.14 197.33 8.19 200.39 8.24 203.44 C8.24 204.37 8.24 205.31 8.24 206.27 C8.41 214.24 10.03 221.54 15.85 227.26 C15.85 227.92 15.85 228.58 15.85 229.26 C24.21 233.61 30.95 235.41 40.33 235.41 C41.18 235.41 42.03 235.41 42.91 235.42 C45.77 235.43 48.62 235.43 51.48 235.43 C53.52 235.44 55.57 235.45 57.62 235.45 C62.02 235.47 66.43 235.48 70.83 235.49 C77.8 235.51 84.76 235.53 91.72 235.56 C111.51 235.63 131.31 235.69 151.1 235.74 C162.04 235.77 172.97 235.8 183.9 235.84 C190.83 235.87 197.75 235.89 204.68 235.9 C208.98 235.91 213.28 235.93 217.58 235.95 C219.58 235.95 221.58 235.96 223.58 235.96 C226.3 235.96 229.02 235.97 231.74 235.99 C232.54 235.99 233.34 235.98 234.17 235.98 C239.62 236.03 239.62 236.03 241.85 238.26 C242.11 240.34 242.11 240.34 242.14 242.94 C242.15 243.91 242.16 244.88 242.17 245.88 C242.18 247.46 242.18 247.46 242.18 249.07 C242.19 250.15 242.19 251.22 242.2 252.33 C242.21 254.62 242.22 256.9 242.22 259.18 C242.22 262.68 242.26 266.18 242.29 269.68 C242.3 271.89 242.3 274.11 242.31 276.32 C242.32 277.37 242.34 278.42 242.35 279.5 C242.34 280.48 242.34 281.45 242.33 282.45 C242.33 283.31 242.34 284.17 242.34 285.05 C241.85 287.26 241.85 287.26 240.43 288.87 C236.42 291.03 232.54 290.68 228.06 290.65 C227.06 290.65 226.05 290.66 225.02 290.66 C221.64 290.68 218.27 290.67 214.89 290.66 C212.48 290.67 210.06 290.68 207.64 290.69 C201.75 290.7 195.87 290.7 189.98 290.7 C185.19 290.69 180.4 290.7 175.61 290.7 C174.92 290.7 174.24 290.7 173.54 290.7 C172.15 290.7 170.77 290.71 169.38 290.71 C156.39 290.72 143.39 290.72 130.4 290.7 C118.52 290.69 106.65 290.71 94.77 290.73 C82.57 290.76 70.37 290.77 58.17 290.76 C51.32 290.76 44.48 290.76 37.63 290.78 C31.19 290.79 24.74 290.79 18.3 290.77 C15.94 290.76 13.58 290.77 11.21 290.78 C7.98 290.79 4.75 290.78 1.52 290.76 C0.59 290.77 -0.33 290.78 -1.29 290.79 C-12.62 290.66 -22.84 286.17 -31.09 278.45 C-44.36 264.27 -44.61 246.27 -44.54 227.98 C-44.55 225.97 -44.55 223.97 -44.56 221.96 C-44.57 216.54 -44.57 211.12 -44.56 205.7 C-44.55 200.01 -44.56 194.32 -44.56 188.63 C-44.57 179.07 -44.56 169.52 -44.55 159.96 C-44.53 148.94 -44.53 137.92 -44.55 126.9 C-44.56 117.41 -44.57 107.92 -44.56 98.43 C-44.55 92.77 -44.55 87.12 -44.56 81.46 C-44.57 76.14 -44.57 70.83 -44.55 65.51 C-44.54 63.56 -44.55 61.62 -44.55 59.68 C-44.61 42.14 -43.55 24.86 -30.9 11.32 C-26.48 7.2 -21.76 4.48 -16.15 2.26 C-15.32 1.92 -14.49 1.57 -13.64 1.22 C-9.03 -0.05 -4.75 -0.02 0 0 Z " fill="#FFFFFF" transform="translate(358.1543426513672,-0.2606964111328125)"/>
<path d="M0 0 C0.86 -0.01 1.72 -0.01 2.61 -0.02 C3.56 -0.02 4.51 -0.02 5.49 -0.01 C6.5 -0.02 7.5 -0.02 8.54 -0.03 C11.93 -0.05 15.32 -0.05 18.72 -0.05 C21.14 -0.05 23.56 -0.06 25.99 -0.07 C32.59 -0.09 39.2 -0.1 45.8 -0.11 C49.93 -0.11 54.05 -0.12 58.18 -0.12 C69.61 -0.14 81.03 -0.16 92.46 -0.16 C93.56 -0.16 93.56 -0.16 94.68 -0.16 C96.16 -0.16 97.65 -0.16 99.13 -0.16 C99.87 -0.17 100.6 -0.17 101.36 -0.17 C102.47 -0.17 102.47 -0.17 103.6 -0.17 C115.53 -0.17 127.46 -0.2 139.38 -0.23 C151.64 -0.27 163.89 -0.29 176.15 -0.29 C183.02 -0.29 189.9 -0.3 196.78 -0.33 C203.25 -0.36 209.73 -0.36 216.21 -0.34 C218.58 -0.34 220.95 -0.35 223.32 -0.36 C239.79 -0.47 252.41 0.33 264.91 12.26 C274.57 22.39 278.07 34.26 278.05 47.95 C278.06 49.24 278.06 49.24 278.06 50.56 C278.07 53.45 278.07 56.33 278.08 59.21 C278.08 61.28 278.09 63.35 278.09 65.42 C278.1 71.04 278.11 76.66 278.11 82.28 C278.12 85.8 278.12 89.31 278.13 92.82 C278.14 103.83 278.15 114.83 278.15 125.83 C278.16 138.52 278.18 151.21 278.2 163.89 C278.23 173.71 278.24 183.52 278.24 193.34 C278.24 199.2 278.24 205.06 278.26 210.91 C278.28 216.43 278.28 221.94 278.27 227.46 C278.27 229.47 278.28 231.49 278.29 233.51 C278.35 248.39 277.66 260.65 268.91 273.26 C268.3 274.17 267.68 275.08 267.04 276.01 C260.22 283.23 250 289.76 239.85 290.39 C239.11 290.39 238.37 290.39 237.6 290.39 C236.31 290.4 236.31 290.4 235 290.4 C234.06 290.4 233.12 290.4 232.15 290.4 C231.15 290.4 230.15 290.41 229.12 290.41 C225.75 290.42 222.38 290.42 219.02 290.42 C216.61 290.43 214.2 290.43 211.79 290.44 C205.24 290.45 198.69 290.46 192.13 290.46 C188.05 290.46 183.96 290.47 179.87 290.47 C168.55 290.48 157.23 290.49 145.91 290.5 C144.82 290.5 144.82 290.5 143.71 290.5 C142.99 290.5 142.26 290.5 141.51 290.5 C140.04 290.5 138.57 290.5 137.1 290.5 C136.37 290.5 135.64 290.5 134.89 290.5 C123.06 290.5 111.22 290.52 99.39 290.55 C87.24 290.57 75.09 290.58 62.95 290.58 C56.13 290.58 49.3 290.59 42.48 290.61 C36.07 290.62 29.66 290.63 23.25 290.62 C20.89 290.62 18.53 290.62 16.18 290.63 C12.97 290.64 9.76 290.64 6.55 290.63 C5.61 290.64 4.67 290.64 3.7 290.65 C2.84 290.65 1.98 290.64 1.1 290.63 C-0.01 290.63 -0.01 290.63 -1.15 290.63 C-3.72 290.14 -4.58 289.39 -6.09 287.26 C-6.46 285.06 -6.46 285.06 -6.46 282.45 C-6.47 281.45 -6.47 280.45 -6.48 279.42 C-6.47 278.32 -6.47 277.23 -6.46 276.09 C-6.46 274.93 -6.47 273.76 -6.47 272.56 C-6.48 269.32 -6.47 266.09 -6.46 262.85 C-6.45 259.36 -6.46 255.86 -6.47 252.37 C-6.48 245.53 -6.47 238.69 -6.46 231.85 C-6.45 223.89 -6.45 215.93 -6.45 207.97 C-6.45 193.78 -6.44 179.58 -6.42 165.38 C-6.4 151.59 -6.4 137.8 -6.4 124.01 C-6.41 109.01 -6.41 94 -6.4 79 C-6.39 77.4 -6.39 75.8 -6.39 74.2 C-6.39 73.42 -6.39 72.63 -6.39 71.82 C-6.39 66.27 -6.39 60.71 -6.39 55.16 C-6.39 48.4 -6.39 41.63 -6.37 34.87 C-6.36 31.42 -6.36 27.96 -6.36 24.51 C-6.37 20.77 -6.36 17.04 -6.35 13.3 C-6.35 12.2 -6.35 11.1 -6.36 9.96 C-6.35 8.97 -6.35 7.97 -6.34 6.95 C-6.34 6.09 -6.34 5.22 -6.34 4.33 C-5.84 0.26 -3.57 0.01 0 0 Z M43.91 52.26 C43.89 69.72 43.87 87.18 43.86 104.64 C43.86 112.75 43.85 120.86 43.84 128.98 C43.83 138.36 43.82 147.75 43.82 157.14 C43.82 157.91 43.82 158.67 43.82 159.46 C43.82 185.73 44.14 211.99 44.91 238.26 C65.57 238.28 86.22 238.3 106.88 238.31 C116.47 238.32 126.06 238.32 135.65 238.34 C144.01 238.35 152.38 238.35 160.74 238.35 C165.16 238.36 169.59 238.36 174.01 238.37 C178.19 238.37 182.36 238.37 186.53 238.37 C188.06 238.37 189.58 238.38 191.1 238.38 C208.1 239.48 208.1 239.48 222.91 233.26 C227.69 228.28 229.04 224.72 229.07 217.84 C229.07 217.19 229.08 216.53 229.08 215.86 C229.09 213.66 229.1 211.46 229.11 209.27 C229.12 207.69 229.12 206.12 229.13 204.55 C229.16 199.37 229.17 194.2 229.19 189.03 C229.19 187.25 229.2 185.47 229.2 183.69 C229.23 176.27 229.24 168.86 229.26 161.45 C229.27 150.84 229.3 140.22 229.36 129.61 C229.4 122.14 229.42 114.67 229.43 107.21 C229.43 102.75 229.44 98.29 229.47 93.83 C229.5 89.63 229.51 85.44 229.5 81.24 C229.5 79.7 229.51 78.17 229.52 76.63 C229.84 66.04 229.84 66.04 225.47 56.69 C218.51 50.31 208.02 51.86 199.22 51.92 C197.52 51.92 195.83 51.92 194.13 51.92 C189.54 51.92 184.96 51.93 180.37 51.96 C175.57 51.97 170.77 51.98 165.97 51.98 C156.89 51.99 147.81 52.01 138.73 52.04 C128.39 52.08 118.05 52.09 107.71 52.11 C86.44 52.14 65.18 52.19 43.91 52.26 Z " fill="#FFFFFF" transform="translate(6.085683822631836,-0.26006221771240234)"/>
<path d="M0 0 C0.84 -0.01 1.68 -0.02 2.55 -0.03 C3.47 -0.02 4.4 -0.01 5.35 -0.01 C6.33 -0.01 7.31 -0.02 8.32 -0.02 C11.63 -0.04 14.93 -0.03 18.24 -0.02 C20.6 -0.03 22.96 -0.04 25.33 -0.04 C31.09 -0.06 36.86 -0.06 42.62 -0.06 C47.31 -0.05 52 -0.05 56.69 -0.06 C57.36 -0.06 58.03 -0.06 58.72 -0.06 C60.07 -0.06 61.43 -0.07 62.79 -0.07 C75.51 -0.08 88.24 -0.08 100.97 -0.06 C112.6 -0.05 124.22 -0.07 135.84 -0.09 C147.79 -0.12 159.74 -0.12 171.68 -0.12 C178.38 -0.11 185.09 -0.12 191.79 -0.13 C198.1 -0.15 204.41 -0.15 210.72 -0.13 C213.03 -0.12 215.34 -0.13 217.65 -0.14 C234.65 -0.21 250.08 0.54 263.33 12.6 C271.7 21.31 276.03 30.79 276.04 42.82 C276.05 43.69 276.05 44.57 276.05 45.47 C276.07 48.4 276.07 51.33 276.08 54.27 C276.09 56.37 276.1 58.47 276.11 60.56 C276.13 67.47 276.15 74.38 276.16 81.28 C276.17 83.66 276.17 86.04 276.18 88.42 C276.2 98.31 276.22 108.21 276.23 118.1 C276.25 132.28 276.28 146.45 276.34 160.62 C276.37 170.59 276.39 180.56 276.4 190.53 C276.4 196.48 276.41 202.43 276.45 208.39 C276.48 213.99 276.48 219.6 276.47 225.2 C276.47 227.25 276.48 229.3 276.5 231.35 C276.59 242.33 276.49 251.57 270.89 261.38 C270.41 262.22 269.93 263.06 269.44 263.93 C263.46 274.01 254.23 280.87 242.92 283.91 C237.69 285.15 232.84 285.66 227.48 285.62 C226.68 285.62 225.89 285.62 225.07 285.63 C222.43 285.63 219.79 285.62 217.15 285.61 C215.25 285.61 213.34 285.61 211.44 285.61 C206.29 285.61 201.15 285.6 196 285.58 C190.62 285.57 185.23 285.57 179.85 285.57 C169.66 285.56 159.47 285.54 149.28 285.52 C137.68 285.5 126.07 285.49 114.47 285.48 C90.61 285.46 66.75 285.42 42.89 285.38 C42.9 286.86 42.9 286.86 42.92 288.36 C42.96 292.01 42.98 295.66 43 299.31 C43.01 300.89 43.02 302.47 43.04 304.05 C43.06 306.33 43.07 308.6 43.08 310.87 C43.09 311.57 43.1 312.28 43.11 313.01 C43.12 316.7 42.99 318.22 40.89 321.38 C38.96 321.75 38.96 321.75 36.58 321.75 C35.69 321.76 34.8 321.77 33.88 321.77 C32.91 321.76 31.95 321.75 30.95 321.74 C29.97 321.74 28.98 321.74 27.96 321.75 C25.86 321.74 23.77 321.73 21.68 321.72 C18.47 321.69 15.26 321.7 12.05 321.7 C10.02 321.7 7.99 321.69 5.95 321.68 C4.99 321.68 4.03 321.68 3.04 321.68 C2.14 321.67 1.25 321.66 0.33 321.65 C-0.46 321.65 -1.25 321.65 -2.06 321.64 C-4.11 321.38 -4.11 321.38 -7.11 319.38 C-7.49 317.11 -7.49 317.11 -7.49 314.21 C-7.5 313.1 -7.51 312 -7.51 310.87 C-7.51 309.64 -7.5 308.42 -7.49 307.16 C-7.5 305.87 -7.5 304.58 -7.51 303.25 C-7.52 299.66 -7.51 296.07 -7.5 292.48 C-7.5 288.61 -7.51 284.74 -7.52 280.87 C-7.53 273.28 -7.53 265.69 -7.52 258.11 C-7.51 251.95 -7.51 245.78 -7.51 239.62 C-7.51 238.74 -7.51 237.87 -7.52 236.96 C-7.52 235.18 -7.52 233.41 -7.52 231.63 C-7.53 214.93 -7.52 198.23 -7.5 181.53 C-7.49 167.19 -7.49 152.85 -7.5 138.51 C-7.52 121.87 -7.53 105.23 -7.52 88.6 C-7.52 86.82 -7.51 85.05 -7.51 83.28 C-7.51 82.4 -7.51 81.53 -7.51 80.63 C-7.51 74.47 -7.51 68.32 -7.52 62.16 C-7.53 54.66 -7.53 47.15 -7.51 39.65 C-7.5 35.82 -7.5 31.99 -7.51 28.16 C-7.52 24.02 -7.51 19.87 -7.49 15.72 C-7.5 14.5 -7.51 13.29 -7.51 12.03 C-7.51 10.92 -7.5 9.82 -7.49 8.68 C-7.49 7.72 -7.49 6.76 -7.49 5.78 C-7.11 3.38 -7.11 3.38 -5.85 1.57 C-3.72 0.11 -2.56 0 0 0 Z M42.89 49.38 C42.89 111.09 42.89 172.8 42.89 236.38 C70.26 236.44 97.63 236.5 125.83 236.57 C134.46 236.6 143.1 236.62 152 236.65 C159.75 236.66 159.75 236.66 167.5 236.67 C170.95 236.67 174.4 236.68 177.85 236.7 C182.25 236.72 186.66 236.72 191.06 236.72 C192.68 236.72 194.29 236.73 195.9 236.74 C209.74 237.01 209.74 237.01 221.76 231.01 C226.82 224.76 228.01 220 228.02 212.03 C228.03 210.75 228.03 209.47 228.03 208.15 C228.03 206.74 228.03 205.32 228.03 203.91 C228.04 202.42 228.04 200.92 228.04 199.43 C228.05 195.38 228.05 191.33 228.06 187.27 C228.06 184.74 228.06 182.21 228.06 179.67 C228.07 170.82 228.07 161.98 228.07 153.13 C228.07 144.89 228.08 136.66 228.1 128.42 C228.11 121.34 228.12 114.27 228.12 107.19 C228.12 102.96 228.12 98.74 228.13 94.51 C228.14 90.54 228.14 86.56 228.13 82.59 C228.13 81.13 228.13 79.68 228.14 78.22 C228.64 64.99 228.64 64.99 223.39 53.38 C214.94 46.62 198.85 49.24 188.43 49.27 C186.8 49.27 185.18 49.27 183.56 49.27 C179.25 49.27 174.95 49.27 170.64 49.28 C166.59 49.28 162.53 49.29 158.48 49.29 C146.65 49.29 134.83 49.3 123.01 49.32 C96.57 49.34 70.13 49.36 42.89 49.38 Z " fill="#FFFFFF" transform="translate(7.112234115600586,317.61968326568604)"/>
<path d="M0 0 C0.84 -0 1.68 -0.01 2.55 -0.01 C5.37 -0.02 8.18 -0.02 10.99 -0.02 C13.01 -0.03 15.03 -0.03 17.06 -0.04 C22.54 -0.05 28.03 -0.06 33.51 -0.06 C36.94 -0.06 40.37 -0.07 43.8 -0.07 C54.55 -0.08 65.29 -0.09 76.03 -0.1 C88.41 -0.1 100.8 -0.12 113.18 -0.15 C122.76 -0.17 132.34 -0.18 141.93 -0.18 C147.64 -0.18 153.36 -0.19 159.08 -0.21 C164.46 -0.22 169.85 -0.23 175.23 -0.22 C177.2 -0.22 179.17 -0.22 181.13 -0.23 C197.76 -0.31 213.06 0.91 225.81 12.89 C233.83 21.48 237.81 30.44 237.77 42.11 C237.77 43 237.78 43.89 237.78 44.81 C237.79 47.8 237.79 50.78 237.79 53.77 C237.8 55.91 237.8 58.05 237.81 60.19 C237.83 66.01 237.83 71.83 237.84 77.64 C237.84 81.28 237.84 84.91 237.85 88.55 C237.86 101.24 237.87 113.92 237.87 126.61 C237.87 138.43 237.89 150.25 237.92 162.07 C237.95 172.22 237.96 182.37 237.96 192.53 C237.96 198.59 237.96 204.65 237.98 210.71 C238 216.41 238 222.11 237.99 227.82 C237.99 229.91 237.99 232 238 234.08 C238.09 250.43 236.24 260.89 224.66 273.08 C211.39 285.67 194.87 285.44 177.75 285.42 C175.75 285.42 173.75 285.42 171.75 285.43 C166.34 285.44 160.93 285.44 155.52 285.44 C150.99 285.44 146.46 285.45 141.94 285.45 C131.25 285.46 120.56 285.46 109.87 285.46 C98.87 285.45 87.87 285.46 76.87 285.48 C67.4 285.5 57.94 285.51 48.47 285.5 C42.82 285.5 37.18 285.5 31.53 285.52 C26.22 285.53 20.91 285.53 15.6 285.52 C13.66 285.51 11.72 285.52 9.78 285.52 C-4.92 285.58 -18.16 285.09 -30.5 276.14 C-31.21 275.64 -31.92 275.13 -32.65 274.62 C-40.88 268.15 -46.27 258.24 -48.05 247.98 C-48.54 243.84 -48.64 239.82 -48.63 235.66 C-48.64 234.83 -48.64 234 -48.64 233.15 C-48.65 230.39 -48.65 227.63 -48.64 224.87 C-48.65 222.88 -48.65 220.9 -48.65 218.92 C-48.66 213.53 -48.67 208.15 -48.67 202.77 C-48.67 199.4 -48.67 196.04 -48.67 192.67 C-48.68 180.93 -48.69 169.18 -48.68 157.43 C-48.68 146.49 -48.69 135.55 -48.71 124.61 C-48.72 115.21 -48.73 105.81 -48.73 96.41 C-48.73 90.8 -48.73 85.19 -48.74 79.58 C-48.75 74.3 -48.75 69.02 -48.74 63.74 C-48.74 61.81 -48.75 59.88 -48.75 57.95 C-48.8 40.37 -47.48 25.57 -34.7 12.11 C-24.73 3.2 -13.14 -0.01 0 0 Z M6.5 52.14 C5.33 55.65 5.33 58.84 5.3 62.49 C5.29 63.25 5.28 64 5.27 64.77 C5.23 67.29 5.21 69.81 5.18 72.34 C5.16 74.13 5.14 75.92 5.12 77.72 C5.06 82.56 5.01 87.4 4.97 92.25 C4.94 95.26 4.91 98.27 4.88 101.28 C4.74 114.58 4.63 127.88 4.52 141.18 C4.5 144.07 4.48 146.96 4.45 149.84 C4.37 160.2 4.3 170.55 4.27 180.9 C4.26 184.05 4.24 187.19 4.22 190.34 C4.19 194.02 4.18 197.7 4.18 201.38 C4.17 203.34 4.15 205.3 4.14 207.26 C4.15 214.95 4.4 222.35 9.44 228.52 C10.12 229.05 10.8 229.59 11.5 230.14 C12.18 230.7 12.86 231.25 13.56 231.83 C17.23 234.31 20.4 234.27 24.71 234.28 C26.01 234.29 27.3 234.29 28.64 234.3 C30.09 234.3 31.53 234.3 32.97 234.3 C34.49 234.31 36.01 234.31 37.53 234.32 C41.65 234.33 45.78 234.34 49.91 234.34 C52.48 234.34 55.06 234.35 57.64 234.35 C65.71 234.37 73.77 234.38 81.84 234.38 C91.15 234.38 100.46 234.4 109.77 234.43 C116.96 234.45 124.16 234.46 131.36 234.46 C135.66 234.46 139.95 234.47 144.25 234.49 C148.3 234.5 152.34 234.51 156.38 234.5 C157.87 234.5 159.35 234.5 160.83 234.51 C162.86 234.52 164.89 234.52 166.91 234.51 C168.05 234.51 169.18 234.51 170.35 234.51 C175.53 233.9 179.45 231.78 182.75 227.77 C183.23 227.2 183.71 226.64 184.2 226.05 C187.23 221.58 187.75 217.68 187.75 212.34 C187.76 211.67 187.76 211 187.76 210.31 C187.77 208.06 187.77 205.82 187.76 203.58 C187.76 201.97 187.77 200.36 187.77 198.75 C187.78 194.38 187.78 190.02 187.77 185.65 C187.76 181.08 187.77 176.51 187.77 171.94 C187.78 164.26 187.77 156.59 187.76 148.91 C187.75 140.04 187.75 131.17 187.77 122.29 C187.77 114.67 187.78 107.05 187.77 99.43 C187.77 94.88 187.77 90.33 187.77 85.78 C187.78 81.51 187.78 77.23 187.76 72.95 C187.76 71.38 187.76 69.81 187.77 68.24 C187.77 66.1 187.76 63.96 187.75 61.81 C187.75 60.61 187.75 59.42 187.75 58.18 C187.5 55.17 187.32 53.53 185.5 51.14 C181.58 48.93 178 48.89 173.56 48.88 C172.88 48.88 172.19 48.87 171.48 48.87 C169.19 48.86 166.9 48.86 164.61 48.87 C162.96 48.86 161.31 48.86 159.67 48.85 C155.2 48.84 150.73 48.84 146.27 48.84 C142.54 48.84 138.81 48.84 135.08 48.83 C126.28 48.82 117.48 48.82 108.68 48.82 C99.6 48.83 90.52 48.82 81.45 48.8 C73.65 48.78 65.85 48.77 58.06 48.78 C53.4 48.78 48.75 48.78 44.1 48.76 C39.72 48.75 35.34 48.75 30.96 48.76 C29.36 48.77 27.75 48.76 26.15 48.76 C23.95 48.75 21.76 48.75 19.57 48.77 C18.34 48.77 17.11 48.77 15.85 48.77 C12.1 49.19 9.68 50.12 6.5 52.14 Z " fill="#FFFFFF" transform="translate(362.4992980957031,317.85955810546875)"/>
<path d="M0 0 C4.83 1.51 7.97 4.27 11.69 7.56 C12.3 8.1 12.92 8.64 13.56 9.19 C17.95 13.03 22.26 16.94 26.58 20.86 C29.14 23.13 31.77 25.29 34.44 27.44 C39.2 31.29 43.72 35.36 48.23 39.51 C51.87 42.78 55.66 45.85 59.49 48.89 C62.17 51.14 64.66 53.4 67 56 C66.94 58.75 66.94 58.75 66 61 C62.84 62.58 59.48 61.91 56.02 61.75 C37.32 60.32 37.32 60.32 20.39 66.34 C17.18 69.51 14.68 73.01 12.36 76.86 C9.76 80.96 6.57 85.93 1.97 87.85 C0 88 0 88 -3 86 C-3.3 83.32 -3.41 80.88 -3.39 78.2 C-3.39 77.4 -3.4 76.59 -3.4 75.76 C-3.42 73.09 -3.41 70.42 -3.4 67.75 C-3.4 65.9 -3.4 64.05 -3.41 62.2 C-3.41 58.32 -3.41 54.44 -3.39 50.55 C-3.37 45.57 -3.38 40.59 -3.4 35.61 C-3.41 31.78 -3.41 27.96 -3.4 24.14 C-3.4 22.3 -3.4 20.46 -3.41 18.63 C-3.42 16.06 -3.4 13.49 -3.39 10.93 C-3.39 10.17 -3.4 9.4 -3.41 8.62 C-3.34 3.45 -3.34 3.45 -1.48 1 C-0.99 0.67 -0.5 0.34 0 0 Z " fill="#FFED00" transform="translate(436,415)"/>
<path d="M0 0 C1.24 -0.02 2.47 -0.04 3.75 -0.06 C5.54 -0.07 5.54 -0.07 7.36 -0.08 C9 -0.09 9 -0.09 10.67 -0.11 C14.08 0.3 15.93 1.25 18.69 3.25 C21.25 6.67 21.12 10.1 20.69 14.25 C18.26 18.3 16.11 19.8 11.69 21.25 C9.09 21.51 9.09 21.51 6.34 21.52 C5.34 21.52 4.35 21.52 3.32 21.52 C2.28 21.52 1.25 21.51 0.19 21.5 C-0.85 21.51 -1.88 21.52 -2.94 21.52 C-3.94 21.52 -4.94 21.52 -5.97 21.52 C-6.87 21.51 -7.78 21.51 -8.71 21.51 C-12.86 21.1 -15.56 19.94 -18.62 17.12 C-20.81 13.4 -21.33 10.47 -20.31 6.25 C-14.41 -1.05 -8.81 0.04 0 0 Z " fill="#FFED00" transform="translate(174.3125,133.75)"/>
<path d="M0 0 C1.23 -0.04 2.46 -0.07 3.72 -0.11 C13.88 -0.21 13.88 -0.21 17.54 2.65 C20.13 5.85 20.77 7.4 20.98 11.38 C20.58 14.86 19.06 16.82 16.75 19.38 C11.25 22.11 5.83 21.71 -0.19 21.69 C-1.26 21.7 -2.33 21.72 -3.44 21.74 C-9.06 21.74 -13.48 21.73 -18.25 18.38 C-20.92 14.37 -21.08 11.08 -20.25 6.38 C-14.47 -0.92 -8.71 0.1 0 0 Z " fill="#FFED00" transform="translate(109.25,133.625)"/>
<path d="M0 0 C3.16 1.55 4.24 2.09 6 5 C6.77 9.32 6.82 13.54 6.73 17.92 C6.69 20 6.71 22.06 6.73 24.14 C6.65 34.23 6.65 34.23 3.58 37.87 C0.81 40.16 -0.22 40.91 -3.75 41.31 C-7.81 40.92 -9.83 39.5 -13 37 C-15.1 32.8 -14.27 27.36 -14.3 22.73 C-14.31 20.71 -14.36 18.68 -14.4 16.65 C-14.41 14.73 -14.41 14.73 -14.43 12.76 C-14.44 11.59 -14.45 10.41 -14.47 9.2 C-13.91 5.36 -12.69 3.74 -10 1 C-6.82 -0.59 -3.42 -0.79 0 0 Z " fill="#FFED00" transform="translate(146,90)"/>
<path d="M0 0 C3.39 4.37 2.44 9.86 2.39 15.19 C2.38 17.27 2.41 19.35 2.45 21.43 C2.45 22.75 2.45 24.07 2.45 25.43 C2.45 26.64 2.45 27.84 2.45 29.08 C1.64 33.24 0.07 34.72 -3.18 37.34 C-5.68 38.01 -5.68 38.01 -8.18 37.97 C-9.01 37.98 -9.83 37.99 -10.68 38.01 C-14.32 37.04 -15.8 35.21 -18.18 32.34 C-18.83 29.21 -18.83 29.21 -18.85 25.72 C-18.85 24.46 -18.86 23.19 -18.87 21.89 C-18.85 20.57 -18.83 19.26 -18.81 17.9 C-18.83 16.59 -18.85 15.28 -18.87 13.93 C-18.81 3.25 -18.81 3.25 -15.76 -0.51 C-10.53 -4.87 -5.53 -4.2 0 0 Z " fill="#FFED00" transform="translate(150.183349609375,158.658447265625)"/>
</svg>
