<?xml version="1.0" encoding="UTF-8"?>
<!-- Generator: https://ezgif.com/png-to-svg -->
<svg version="1.1" xmlns="http://www.w3.org/2000/svg" width="512" height="512" viewBox="-6.4 -6.446 114.475 114.475" preserveAspectRatio="xMidYMid meet">
<path d="M0 0 C0.68 -0.01 1.35 -0.01 2.05 -0.02 C4.29 -0.03 6.52 -0.02 8.76 -0.01 C10.32 -0.01 11.88 -0.02 13.44 -0.02 C16.72 -0.02 20 -0.02 23.27 -0 C27.45 0.01 31.63 0 35.8 -0.01 C39.03 -0.02 42.26 -0.02 45.49 -0.01 C47.03 -0.01 48.57 -0.01 50.1 -0.02 C69.42 -0.09 69.42 -0.09 76.77 5.27 C80.13 10.29 78.76 16.46 77.66 22.08 C76.99 25.14 76.26 28.17 75.5 31.2 C75.13 32.69 75.13 32.69 74.76 34.2 C73.15 40.24 71.24 44.59 67.19 49.39 C66.2 49.88 66.2 49.88 65.19 50.39 C65.5 50.97 65.81 51.54 66.12 52.14 C67.96 56.02 67.96 56.02 68.19 58.39 C66.59 61.09 64.98 61.46 62 62.45 C57.71 62.38 57.74 62.2 54.95 59.43 C48.86 54.68 41.51 55.56 34.16 55.62 C32.61 55.61 31.06 55.6 29.5 55.58 C25.44 55.55 21.37 55.56 17.3 55.57 C12.35 55.58 7.39 55.55 2.44 55.53 C-1.42 55.51 -5.27 55.49 -9.12 55.5 C-9.82 55.5 -10.53 55.5 -11.26 55.5 C-13.16 55.5 -15.06 55.5 -16.97 55.51 C-19.81 55.39 -19.81 55.39 -21.81 54.39 C-22.08 47.98 -21.13 42.5 -19.55 36.31 C-19.31 35.37 -19.08 34.43 -18.84 33.47 C-18.34 31.5 -17.84 29.54 -17.33 27.58 C-16.56 24.57 -15.82 21.56 -15.07 18.55 C-14.59 16.63 -14.1 14.72 -13.61 12.81 C-13.39 11.91 -13.17 11.01 -12.94 10.08 C-12.72 9.24 -12.5 8.41 -12.28 7.55 C-12.09 6.82 -11.9 6.08 -11.71 5.33 C-9.29 0.1 -5.29 0.01 0 0 Z M0.19 10.39 C-2.2 17.28 -4.17 24.21 -6 31.26 C-6.27 32.29 -6.55 33.33 -6.83 34.39 C-7.08 35.38 -7.34 36.36 -7.61 37.38 C-7.84 38.27 -8.07 39.16 -8.31 40.08 C-8.92 42.48 -8.92 42.48 -8.81 45.39 C-2.87 45.39 3.07 45.39 9.19 45.39 C9.58 43.47 9.97 41.55 10.37 39.58 C11.7 33.39 13.2 27.26 14.81 21.14 C15.03 20.3 15.25 19.47 15.47 18.61 C17.06 12.65 17.06 12.65 18.19 10.39 C12.25 10.39 6.31 10.39 0.19 10.39 Z M51.19 10.39 C51.1 11.02 51.01 11.66 50.93 12.31 C49.25 23.44 46.75 34.7 43.19 45.39 C49.26 45.76 53.97 45.73 59.19 42.39 C60.69 39.55 61.41 37.46 62.19 34.39 C62.54 33.1 62.89 31.81 63.25 30.52 C63.63 29.1 64 27.68 64.37 26.26 C64.64 25.24 64.64 25.24 64.92 24.2 C65.92 20.18 66.37 16.53 66.19 12.39 C62.84 10.36 60.32 10.17 56.44 10.26 C55.45 10.28 54.47 10.3 53.45 10.32 C52.7 10.34 51.96 10.36 51.19 10.39 Z M29.66 13.15 C25.91 17.23 25.07 22.71 23.81 27.95 C23.54 28.99 23.27 30.03 22.99 31.1 C21.25 37.25 21.25 37.25 22.19 43.39 C22.52 43.72 22.85 44.05 23.19 44.39 C27.8 44.16 27.8 44.16 31.81 42.13 C33.45 40.05 34.06 38.29 34.79 35.75 C35.05 34.84 35.31 33.94 35.58 33 C35.84 32.06 36.11 31.11 36.37 30.14 C36.65 29.21 36.92 28.28 37.2 27.32 C38.65 22.18 39.52 17.73 39.19 12.39 C34.16 11.05 34.16 11.05 29.66 13.15 Z " fill="#7D7D7D" transform="translate(21.81298828125,19.61181640625)"/>
<path d="M0 0 C1.93 -0.38 1.93 -0.38 4.32 -0.39 C5.22 -0.4 6.11 -0.41 7.03 -0.42 C8.49 -0.41 8.49 -0.41 9.98 -0.4 C11.48 -0.4 11.48 -0.4 13 -0.41 C15.12 -0.41 17.24 -0.4 19.36 -0.39 C22.59 -0.38 25.82 -0.39 29.04 -0.41 C31.1 -0.41 33.17 -0.4 35.23 -0.4 C36.19 -0.4 37.14 -0.41 38.13 -0.42 C45.11 -0.34 51.12 0.4 56.5 5.25 C59.47 10.69 57.89 16.16 56.27 21.82 C55.92 22.99 55.92 22.99 55.56 24.19 C55.11 25.76 54.65 27.34 54.19 28.92 C53.99 29.61 53.78 30.3 53.57 31 C53 32.99 52.49 34.99 52 37 C48.53 37.49 48.53 37.49 45 38 C44.66 30.69 45.07 24.45 47.34 17.47 C48.03 14.88 48.11 12.67 48 10 C42.69 7.38 38.54 6.54 32.66 6.49 C31.89 6.47 31.13 6.45 30.34 6.43 C27.91 6.38 25.49 6.35 23.06 6.31 C21.41 6.28 19.75 6.24 18.1 6.21 C14.07 6.12 10.03 6.06 6 6 C5.86 7.22 5.71 8.45 5.57 9.71 C4.98 14.41 3.88 18.87 2.62 23.44 C2.42 24.25 2.21 25.07 1.99 25.9 C1.43 27.97 0.72 29.99 0 32 C-1.48 32.49 -1.48 32.49 -3 33 C-2.67 34.32 -2.34 35.64 -2 37 C-4.97 37.49 -4.97 37.49 -8 38 C-8.43 29.71 -7.26 22.49 -5.12 14.5 C-4.86 13.43 -4.59 12.36 -4.31 11.26 C-2.29 3.43 -2.29 3.43 0 0 Z " fill="#E3E3E3" transform="translate(14,22)"/>
<path d="M0 0 C3.31 -0.09 6.62 -0.14 9.94 -0.19 C10.86 -0.21 11.79 -0.24 12.74 -0.26 C19.6 -0.34 26.56 0.19 32.06 4.69 C34.6 10.95 32.59 17.69 30.75 23.88 C30.52 24.66 30.29 25.45 30.06 26.26 C24.97 43.46 24.97 43.46 18 48 C17.34 48 16.68 48 16 48 C16 48.66 16 49.32 16 50 C7.75 50 -0.5 50 -9 50 C-4 45 -4 45 -1.42 44.43 C-0.1 44.44 -0.1 44.44 1.25 44.44 C9.38 44.15 9.38 44.15 16 40 C18.29 35.02 19.39 29.61 20.51 24.27 C20.99 22.03 21.55 19.82 22.13 17.6 C23.2 13.2 23.2 13.2 22 9 C18.45 7.22 15.5 6.79 11.56 6.69 C6.07 6.29 3.71 5.01 0 1 C0 0.67 0 0.34 0 0 Z " fill="#E2E2E2" transform="translate(66,22)"/>
<path d="M0 0 C0.68 -0.01 1.35 -0.01 2.05 -0.02 C4.29 -0.03 6.52 -0.02 8.76 -0.01 C10.32 -0.01 11.88 -0.02 13.44 -0.02 C16.72 -0.02 20 -0.02 23.27 -0 C27.45 0.01 31.63 0 35.8 -0.01 C39.03 -0.02 42.26 -0.02 45.49 -0.01 C47.03 -0.01 48.57 -0.01 50.1 -0.02 C69.42 -0.09 69.42 -0.09 76.77 5.27 C80.13 10.29 78.76 16.46 77.66 22.08 C76.99 25.14 76.26 28.17 75.5 31.2 C75.13 32.69 75.13 32.69 74.76 34.2 C73.15 40.24 71.24 44.59 67.19 49.39 C66.2 49.88 66.2 49.88 65.19 50.39 C65.5 50.97 65.81 51.54 66.12 52.14 C67.96 56.02 67.96 56.02 68.19 58.39 C66.59 61.09 64.98 61.46 62 62.45 C57.71 62.38 57.74 62.2 54.95 59.43 C48.86 54.68 41.51 55.56 34.16 55.62 C32.61 55.61 31.06 55.6 29.5 55.58 C25.44 55.55 21.37 55.56 17.3 55.57 C12.35 55.58 7.39 55.55 2.44 55.53 C-1.42 55.51 -5.27 55.49 -9.12 55.5 C-9.82 55.5 -10.53 55.5 -11.26 55.5 C-13.16 55.5 -15.06 55.5 -16.97 55.51 C-19.81 55.39 -19.81 55.39 -21.81 54.39 C-22.08 47.98 -21.13 42.5 -19.55 36.31 C-19.31 35.37 -19.08 34.43 -18.84 33.47 C-18.34 31.5 -17.84 29.54 -17.33 27.58 C-16.56 24.57 -15.82 21.56 -15.07 18.55 C-14.59 16.63 -14.1 14.72 -13.61 12.81 C-13.39 11.91 -13.17 11.01 -12.94 10.08 C-12.72 9.24 -12.5 8.41 -12.28 7.55 C-12.09 6.82 -11.9 6.08 -11.71 5.33 C-9.29 0.1 -5.29 0.01 0 0 Z M-7.81 2.39 C-10.22 7.64 -11.89 12.84 -13.33 18.43 C-13.66 19.69 -13.66 19.69 -14 20.98 C-14.46 22.76 -14.91 24.53 -15.37 26.3 C-16.06 29.02 -16.78 31.72 -17.49 34.43 C-17.94 36.16 -18.38 37.89 -18.83 39.61 C-19.15 40.82 -19.15 40.82 -19.48 42.06 C-19.67 42.81 -19.86 43.57 -20.06 44.35 C-20.23 45.01 -20.4 45.67 -20.57 46.35 C-20.87 48.87 -20.41 50.94 -19.81 53.39 C-19.22 53.39 -18.62 53.38 -18 53.38 C-11.69 53.36 -5.38 53.34 0.93 53.33 C3.28 53.33 5.62 53.32 7.96 53.31 C19.33 53.27 30.7 53.24 42.05 53.7 C43.2 53.73 43.2 53.73 44.37 53.77 C49.74 54.03 52.86 55.38 56.68 59.08 C58.29 60.71 58.29 60.71 61.56 60.89 C64.34 60.61 64.34 60.61 66.19 58.39 C66.09 56.34 66.09 56.34 65.19 54.39 C63.7 53.4 63.7 53.4 62.19 52.39 C62.19 51.73 62.19 51.07 62.19 50.39 C63.8 49.24 63.8 49.24 65.44 48.08 C70.72 43.69 71.56 37.8 73.19 31.39 C73.94 28.95 74.69 26.51 75.44 24.08 C77.47 16.81 77.47 16.81 77.19 9.39 C73.98 4.92 70.46 3.34 65.19 2.39 C61.58 2.14 57.99 2.15 54.37 2.2 C52.94 2.2 52.94 2.2 51.49 2.2 C46.68 2.05 46.68 2.05 42.19 3.39 C40.85 3.07 39.52 2.74 38.19 2.39 C36.63 2.3 35.07 2.27 33.51 2.27 C32.13 2.27 32.13 2.27 30.72 2.27 C29.73 2.28 28.75 2.29 27.73 2.29 C26.21 2.29 26.21 2.29 24.66 2.29 C21.42 2.3 18.18 2.31 14.94 2.33 C12.74 2.33 10.54 2.34 8.34 2.34 C2.96 2.35 -2.43 2.37 -7.81 2.39 Z " fill="#0B0B0B" transform="translate(21.81298828125,19.61181640625)"/>
<path d="M0 0 C4.86 -0.07 9.71 -0.13 14.57 -0.16 C16.22 -0.18 17.87 -0.2 19.52 -0.23 C21.9 -0.26 24.28 -0.28 26.66 -0.29 C27.39 -0.31 28.12 -0.32 28.87 -0.34 C33.96 -0.34 37.45 0.69 42 3 C42.49 3.5 42.49 3.5 43 4 C42.54 10.89 41.07 17.25 39.19 23.88 C38.94 24.81 38.69 25.75 38.44 26.71 C38.18 27.61 37.93 28.51 37.67 29.43 C37.44 30.24 37.22 31.04 36.99 31.87 C35.77 34.49 34.44 35.5 32 37 C29.32 37.64 26.76 37.77 24 38 C24 37.34 24 36.68 24 36 C23.34 36 22.68 36 22 36 C21.61 29.07 23.02 23.26 24.94 16.62 C25.22 15.63 25.49 14.63 25.78 13.61 C27.82 6.36 27.82 6.36 29 4 C29.66 4 30.32 4 31 4 C31 3.34 31 2.68 31 2 C27.7 2 24.4 2 21 2 C15.8 19.77 15.8 19.77 13 38 C16.3 38 19.6 38 23 38 C23 38.33 23 38.66 23 39 C12.44 39 1.88 39 -9 39 C-8.28 33.97 -7.41 29.21 -6.15 24.32 C-5.98 23.62 -5.8 22.92 -5.62 22.19 C-5.06 19.98 -4.5 17.77 -3.94 15.56 C-3.56 14.05 -3.18 12.54 -2.79 11.03 C-1.87 7.35 -0.93 3.68 0 0 Z M2 2 C-0.38 8.89 -2.36 15.82 -4.19 22.88 C-4.46 23.91 -4.73 24.94 -5.01 26 C-5.27 26.99 -5.53 27.97 -5.79 28.99 C-6.03 29.88 -6.26 30.77 -6.5 31.69 C-7.11 34.09 -7.11 34.09 -7 37 C-1.06 37 4.88 37 11 37 C11.39 35.08 11.78 33.16 12.19 31.19 C13.51 25 15.02 18.87 16.62 12.75 C16.84 11.92 17.06 11.08 17.29 10.22 C18.87 4.26 18.87 4.26 20 2 C14.06 2 8.12 2 2 2 Z M31.47 4.77 C27.72 8.85 26.88 14.32 25.62 19.56 C25.35 20.6 25.08 21.64 24.8 22.72 C23.06 28.86 23.06 28.86 24 35 C24.33 35.33 24.66 35.66 25 36 C29.62 35.77 29.62 35.77 33.63 33.74 C35.27 31.66 35.87 29.9 36.61 27.36 C36.87 26.45 37.13 25.55 37.4 24.61 C37.66 23.67 37.92 22.72 38.19 21.75 C38.46 20.82 38.73 19.89 39.01 18.93 C40.46 13.79 41.33 9.34 41 4 C35.98 2.66 35.98 2.66 31.47 4.77 Z " fill="#070707" transform="translate(20,28)"/>
<path d="M0 0 C1.06 1.81 1.06 1.81 2 4 C1.67 4.99 1.34 5.98 1 7 C2.65 6.34 4.3 5.68 6 5 C6 4.01 6 3.02 6 2 C6.99 1.67 7.98 1.34 9 1 C8.01 5.29 7.02 9.58 6 14 C16.56 14 27.12 14 38 14 C38 14.66 38 15.32 38 16 C40.31 16 42.62 16 45 16 C45 17.32 45 18.64 45 20 C29.16 20 13.32 20 -3 20 C-4.02 14.92 -3.48 11.96 -2.06 7.19 C-1.87 6.49 -1.67 5.8 -1.47 5.09 C-0.99 3.39 -0.5 1.69 0 0 Z " fill="#929292" transform="translate(5,53)"/>
<path d="M0 0 C3.3 0 6.6 0 10 0 C10 0.66 10 1.32 10 2 C9.34 2 8.68 2 8 2 C7.73 3.06 7.47 4.12 7.2 5.22 C6.49 8.05 5.78 10.89 5.07 13.72 C4.9 14.43 4.72 15.13 4.54 15.86 C4.18 17.29 3.81 18.72 3.43 20.14 C2.45 23.83 1.76 27.18 1.88 31 C1.92 32.32 1.96 33.64 2 35 C-1.3 35 -4.6 35 -8 35 C-8.39 27.99 -6.97 21.99 -5.12 15.25 C-4.86 14.22 -4.59 13.2 -4.31 12.14 C-3.15 7.79 -2.02 4.05 0 0 Z " fill="#A1A1A1" transform="translate(41,30)"/>
<path d="M0 0 C0.33 0 0.66 0 1 0 C1 2.64 1 5.28 1 8 C3.97 8.5 3.97 8.5 7 9 C5.96 14.76 4.18 17.26 -0.34 20.93 C-2 22 -2 22 -4 22 C-4 22.66 -4 23.32 -4 24 C-12.25 24 -20.5 24 -29 24 C-24 19 -24 19 -21.42 18.43 C-20.1 18.44 -20.1 18.44 -18.75 18.44 C-10.71 18.01 -10.71 18.01 -4 14 C-2.04 9.42 -0.94 4.9 0 0 Z " fill="#969696" transform="translate(86,48)"/>
<path d="M0 0 C0.33 0 0.66 0 1 0 C1.3 5.83 0.23 10.62 -1.44 16.19 C-1.89 17.76 -2.35 19.34 -2.81 20.92 C-3.01 21.61 -3.22 22.3 -3.43 23 C-4 24.99 -4.51 26.99 -5 29 C-7.31 29.33 -9.62 29.66 -12 30 C-12.65 20.3 -10.81 12.17 -8 3 C-5.36 3.66 -2.72 4.32 0 5 C0 3.35 0 1.7 0 0 Z " fill="#C1C1C1" transform="translate(71,30)"/>
<path d="M0 0 C0.33 0 0.66 0 1 0 C1.33 1.65 1.66 3.3 2 5 C3.32 5 4.64 5 6 5 C7.19 9.98 6.68 13.42 5.25 18.31 C4.9 19.55 4.56 20.78 4.2 22.05 C3.81 23.02 3.41 24 3 25 C2.01 25.33 1.02 25.66 0 26 C0.33 27.32 0.66 28.64 1 30 C-0.98 30.33 -2.96 30.66 -5 31 C-6.11 20.28 -2.82 10.22 0 0 Z " fill="#B7B7B7" transform="translate(11,29)"/>
<path d="M0 0 C7.26 0 14.52 0 22 0 C21.24 2.39 20.47 4.78 19.69 7.25 C16.6 17.08 13.86 26.7 13 37 C16.3 37 19.6 37 23 37 C23 37.33 23 37.66 23 38 C12.44 38 1.88 38 -9 38 C-8.28 32.96 -7.43 28.42 -6.15 23.54 C-5.98 22.86 -5.8 22.18 -5.62 21.48 C-5.06 19.34 -4.5 17.2 -3.94 15.06 C-3.56 13.6 -3.18 12.14 -2.79 10.68 C-1.87 7.12 -0.93 3.56 0 0 Z M2 1 C-0.38 7.89 -2.36 14.82 -4.19 21.88 C-4.46 22.91 -4.73 23.94 -5.01 25 C-5.27 25.99 -5.53 26.97 -5.79 27.99 C-6.03 28.88 -6.26 29.77 -6.5 30.69 C-7.11 33.09 -7.11 33.09 -7 36 C-1.06 36 4.88 36 11 36 C11.39 34.08 11.78 32.16 12.19 30.19 C13.51 24 15.02 17.87 16.62 11.75 C16.84 10.92 17.06 10.08 17.29 9.22 C18.87 3.26 18.87 3.26 20 1 C14.06 1 8.12 1 2 1 Z " fill="#0B0B0B" transform="translate(20,29)"/>
<path d="M0 0 C3.88 1.88 3.88 1.88 5 3 C6.73 3.16 8.46 3.28 10.19 3.38 C14.73 3.76 18.24 4.23 22 7 C23.85 12.87 21.83 18.22 20.38 24 C20.13 25.08 19.88 26.16 19.62 27.27 C18.14 33.26 17.02 37.26 12 41 C5.93 43.89 -1.36 44 -8 44 C-6.86 42.88 -6.86 42.88 -5.7 41.73 C-1.95 37.22 -1.05 31.85 0.25 26.25 C0.75 24.17 1.26 22.09 1.77 20.02 C1.98 19.1 2.19 18.19 2.42 17.24 C3 15 3 15 4 13 C4.55 7.29 3.51 4.5 0 0 Z M6 6 C5.91 6.63 5.83 7.27 5.74 7.92 C4.06 19.05 1.56 30.31 -2 41 C4.08 41.37 8.78 41.34 14 38 C15.5 35.16 16.22 33.07 17 30 C17.35 28.71 17.71 27.42 18.06 26.13 C18.44 24.71 18.82 23.29 19.19 21.88 C19.46 20.85 19.46 20.85 19.73 19.81 C20.73 15.79 21.19 12.14 21 8 C17.65 5.97 15.13 5.78 11.25 5.88 C10.27 5.89 9.28 5.91 8.27 5.93 C7.52 5.95 6.77 5.98 6 6 Z " fill="#0C0C0C" transform="translate(67,24)"/>
<path d="M0 0 C0.33 0 0.66 0 1 0 C1.38 6.73 0.06 12.12 -2 18.5 C-2.29 19.42 -2.57 20.34 -2.87 21.28 C-3.57 23.52 -4.28 25.76 -5 28 C-7.31 28 -9.62 28 -12 28 C-11.61 19.63 -10.55 12 -8 4 C-7.67 5.32 -7.34 6.64 -7 8 C-6.67 7.01 -6.34 6.02 -6 5 C-3.03 5.49 -3.03 5.49 0 6 C0 4.02 0 2.04 0 0 Z " fill="#C4C4C4" transform="translate(98,29)"/>
<path d="M0 0 C3.3 0 6.6 0 10 0 C10 0.66 10 1.32 10 2 C9.34 2 8.68 2 8 2 C7.82 2.84 7.64 3.69 7.45 4.55 C7.2 5.65 6.95 6.75 6.69 7.88 C6.44 8.97 6.2 10.06 5.95 11.18 C5 14 5 14 2 16 C-0.69 15.62 -0.69 15.62 -3 15 C-3.32 9.01 -2.68 5.36 0 0 Z " fill="#C9C9C9" transform="translate(41,30)"/>
<path d="M0 0 C0.33 0 0.66 0 1 0 C1 2.64 1 5.28 1 8 C2.98 7.67 4.96 7.34 7 7 C6.92 9.83 6.4 11.55 4.52 13.67 C-0.3 18 -0.3 18 -5 18 C-5 17.34 -5 16.68 -5 16 C-5.99 16 -6.98 16 -8 16 C-8 15.34 -8 14.68 -8 14 C-7.01 13.67 -6.02 13.34 -5 13 C-1.95 8.98 -1.07 4.84 0 0 Z " fill="#979797" transform="translate(58,52)"/>
<path d="M0 0 C0.33 0 0.66 0 1 0 C1.33 1.65 1.66 3.3 2 5 C3.32 5 4.64 5 6 5 C6.74 8.2 7.09 10.57 6.44 13.81 C5 16 5 16 1.88 16.81 C0.93 16.87 -0.02 16.94 -1 17 C-1 15.33 -1 13.67 -1 12 C-1.02 10.72 -1.04 9.44 -1.06 8.12 C-1.07 5.25 -0.92 2.75 0 0 Z " fill="#C3C3C3" transform="translate(11,29)"/>
<path d="M0 0 C0.33 0 0.66 0 1 0 C1.33 2.31 1.66 4.62 2 7 C3.65 7 5.3 7 7 7 C6.86 8.28 6.71 9.56 6.56 10.88 C6.48 11.59 6.4 12.31 6.32 13.05 C6 15 6 15 5 17 C2.69 17 0.38 17 -2 17 C-1.86 14.92 -1.71 12.83 -1.56 10.75 C-1.48 9.59 -1.4 8.43 -1.32 7.23 C-1.07 4.69 -0.72 2.44 0 0 Z " fill="#B2B2B2" transform="translate(88,40)"/>
<path d="M0 0 C0.33 1.32 0.66 2.64 1 4 C2.65 4 4.3 4 6 4 C6.84 7.38 7.11 9.67 6 13 C3.69 13.33 1.38 13.66 -1 14 C-1.03 12.04 -1.05 10.08 -1.06 8.12 C-1.07 7.03 -1.09 5.94 -1.1 4.82 C-1 2 -1 2 0 0 Z " fill="#AEAEAE" transform="translate(60,46)"/>
<path d="M0 0 C0.66 1.32 1.32 2.64 2 4 C3.98 4 5.96 4 8 4 C7.67 5.65 7.34 7.3 7 9 C6.01 9.33 5.02 9.66 4 10 C4 10.99 4 11.98 4 13 C2.35 12.67 0.7 12.34 -1 12 C-1.14 3.43 -1.14 3.43 0 0 Z " fill="#BFBFBF" transform="translate(37,41)"/>
<path d="M0 0 C3.88 1.88 3.88 1.88 5 3 C6.73 3.16 8.46 3.28 10.19 3.38 C14.75 3.75 18.1 4.44 22 7 C22.33 7.66 22.66 8.32 23 9 C22.24 8.69 21.47 8.38 20.69 8.06 C15.83 6.66 11.03 6.34 6 6 C6 8.31 6 10.62 6 13 C5.67 13 5.34 13 5 13 C4.84 12.1 4.84 12.1 4.67 11.17 C3.49 5.06 3.49 5.06 0 0 Z " fill="#202020" transform="translate(67,24)"/>
<path d="M0 0 C11.55 0 23.1 0 35 0 C34.34 0.33 33.68 0.66 33 1 C33 1.66 33 2.32 33 3 C22.11 2.34 11.22 1.68 0 1 C0 0.67 0 0.34 0 0 Z " fill="#696969" transform="translate(20,28)"/>
<path d="M0 0 C2.97 0 5.94 0 9 0 C9 0.66 9 1.32 9 2 C8.34 2 7.68 2 7 2 C7 2.66 7 3.32 7 4 C4.69 4 2.38 4 0 4 C0 2.68 0 1.36 0 0 Z " fill="#DCDCDC" transform="translate(42,30)"/>
<path d="M0 0 C-0.33 1.98 -0.66 3.96 -1 6 C-2.65 5.67 -4.3 5.34 -6 5 C-6 3.68 -6 2.36 -6 1 C-4 0 -4 0 0 0 Z " fill="#D6D6D6" transform="translate(16,36)"/>
<path d="M0 0 C0.66 0.33 1.32 0.66 2 1 C1.67 1.33 1.34 1.66 1 2 C7.93 2.5 7.93 2.5 15 3 C15 3.33 15 3.66 15 4 C8.73 4 2.46 4 -4 4 C-4 3.34 -4 2.68 -4 2 C-2.12 0.94 -2.12 0.94 0 0 Z " fill="#656565" transform="translate(57,69)"/>
<path d="M0 0 C0.33 1.32 0.66 2.64 1 4 C2.65 4 4.3 4 6 4 C6 3.34 6 2.68 6 2 C6.99 1.67 7.98 1.34 9 1 C8.67 2.98 8.34 4.96 8 7 C7.67 6.34 7.34 5.68 7 5 C5.02 5 3.04 5 1 5 C0.67 5.99 0.34 6.98 0 8 C-0.98 4.95 -0.98 3.05 0 0 Z " fill="#A1A1A2" transform="translate(7,45)"/>
<path d="M0 0 C0.66 1.32 1.32 2.64 2 4 C3.98 4 5.96 4 8 4 C7.67 4.99 7.34 5.98 7 7 C4.03 6.51 4.03 6.51 1 6 C1 6.66 1 7.32 1 8 C0.34 8 -0.32 8 -1 8 C-0.67 5.36 -0.34 2.72 0 0 Z " fill="#AAAAAA" transform="translate(37,41)"/>
<path d="M0 0 C1.65 0 3.3 0 5 0 C5 1.32 5 2.64 5 4 C3.35 4 1.7 4 0 4 C-0.33 4.66 -0.66 5.32 -1 6 C-0.67 4.02 -0.34 2.04 0 0 Z " fill="#D4D4D4" transform="translate(63,38)"/>
<path d="M0 0 C0.33 1.32 0.66 2.64 1 4 C2.65 4 4.3 4 6 4 C6 4.33 6 4.66 6 5 C4.35 5 2.7 5 1 5 C0.34 6.98 -0.32 8.96 -1 11 C-2.6 7 -1.29 3.95 0 0 Z " fill="#7E7E7E" transform="translate(3,61)"/>
</svg>
