<?xml version="1.0" encoding="UTF-8"?>
<svg version="1.1" xmlns="http://www.w3.org/2000/svg" width="50" height="50">
<path d="M0 0 C0.5775 0.165 1.155 0.33 1.75 0.5 C5.39005903 1.30890201 8.47291292 1.00773917 12 0 C12.3403125 1.11375 12.3403125 1.11375 12.6875 2.25 C15.20013357 7.51456557 19.88211022 9.61958615 25 12 C24.84789062 12.68191406 24.69578125 13.36382812 24.5390625 14.06640625 C23.93390759 17.35967682 23.62875949 20.59875019 23.375 23.9375 C23.27960937 25.12214844 23.18421875 26.30679687 23.0859375 27.52734375 C23.0037236 30.84953285 23.33566612 33.75269636 24 37 C23.01 37 22.02 37 21 37 C20.9071875 37.928125 20.9071875 37.928125 20.8125 38.875 C20.544375 39.57625 20.27625 40.2775 20 41 C18.33493299 41.67065199 16.66797065 42.33660258 15 43 C13.35679481 44.15468473 11.75118404 45.36471734 10.1875 46.625 C9.39730469 47.25664063 8.60710938 47.88828125 7.79296875 48.5390625 C7.20128906 49.02117188 6.60960938 49.50328125 6 50 C0.29197782 47.24746486 -3.90250565 44.5755772 -7.7109375 39.453125 C-9.0426215 37.70810808 -9.0426215 37.70810808 -12 37 C-15.37655582 19.9966296 -15.37655582 19.9966296 -14 13 C-11.59594004 9.60138373 -8.60721618 7.74451926 -4.875 6.015625 C-2.24403372 4.59051827 -1.36697976 2.59726154 0 0 Z " fill="#C4871C" transform="translate(19,0)"/>
<path d="M0 0 C1.98567708 0.29296875 3.97135417 0.5859375 5.95703125 0.87890625 C8.2025342 1.13904799 8.2025342 1.13904799 11 0 C11 1.32 11 2.64 11 4 C9.6078125 4.1546875 9.6078125 4.1546875 8.1875 4.3125 C5.09754424 4.78720637 5.09754424 4.78720637 3.125 6.1875 C1.50335595 8.80014875 1.79968047 10.99520702 2 14 C3.093125 14.4125 4.18625 14.825 5.3125 15.25 C7.94658948 16.35325592 8.87629362 16.83347218 10.625 19.1875 C11.305625 20.0846875 11.305625 20.0846875 12 21 C14.62625139 21.33425735 14.62625139 21.33425735 17 21 C16.01 21 15.02 21 14 21 C11.3125 18.75 11.3125 18.75 9 16 C9 14.68 9 13.36 9 12 C13.58334984 12.55000198 17.64761551 13.48344676 22 15 C22.06058594 15.94101562 22.12117188 16.88203125 22.18359375 17.8515625 C22.26738281 19.09679687 22.35117187 20.34203125 22.4375 21.625 C22.51871094 22.85476562 22.59992187 24.08453125 22.68359375 25.3515625 C22.96663944 28.61532388 23.41038953 31.77943859 24 35 C23.01 35 22.02 35 21 35 C20.67 35.99 20.34 36.98 20 38 C20 36.68 20 35.36 20 34 C20.66 34 21.32 34 22 34 C21.505 32.906875 21.01 31.81375 20.5 30.6875 C19 27 19 27 19 24 C17.11341126 23.96474868 17.11341126 23.96474868 15 25 C13.40498463 27.24164322 12.25456982 29.53566643 11 32 C6.125 27.375 6.125 27.375 5 24 C3.68 24 2.36 24 1 24 C1.99 25.65 2.98 27.3 4 29 C2.68 29.99 1.36 30.98 0 32 C-0.33 31.67 -0.66 31.34 -1 31 C-2.99958364 30.95919217 -5.00045254 30.95745644 -7 31 C-6.67 29.35 -6.34 27.7 -6 26 C-4.35 26 -2.7 26 -1 26 C-1 25.34 -1 24.68 -1 24 C-3.64 24 -6.28 24 -9 24 C-9 25.65 -9 27.3 -9 29 C-11 28 -11 28 -11.5859375 26.3359375 C-12.5049883 21.15110373 -13.03094311 16.19981929 -12 11 C-9.4132345 8.08467356 -6.60959733 6.42689858 -3 5 C-2.34 5 -1.68 5 -1 5 C-0.67 3.35 -0.34 1.7 0 0 Z " fill="#4E3415" transform="translate(19,2)"/>
<path d="M0 0 C1.98567708 0.29296875 3.97135417 0.5859375 5.95703125 0.87890625 C8.2025342 1.13904799 8.2025342 1.13904799 11 0 C11 1.32 11 2.64 11 4 C10.030625 4.12375 9.06125 4.2475 8.0625 4.375 C6.5465625 4.684375 6.5465625 4.684375 5 5 C4.67 5.66 4.34 6.32 4 7 C3.01 7 2.02 7 1 7 C0.89042969 7.56847656 0.78085937 8.13695312 0.66796875 8.72265625 C-0.37938166 13.82316758 -1.79271753 18.284442 -4 23 C-2.8553125 23.0928125 -2.8553125 23.0928125 -1.6875 23.1875 C1 24 1 24 2.8125 26.5625 C3.204375 27.366875 3.59625 28.17125 4 29 C2.68 29.99 1.36 30.98 0 32 C-0.33 31.67 -0.66 31.34 -1 31 C-2.99958364 30.95919217 -5.00045254 30.95745644 -7 31 C-6.67 29.35 -6.34 27.7 -6 26 C-4.35 26 -2.7 26 -1 26 C-1 25.34 -1 24.68 -1 24 C-3.64 24 -6.28 24 -9 24 C-9 25.65 -9 27.3 -9 29 C-11 28 -11 28 -11.5859375 26.3359375 C-12.5049883 21.15110373 -13.03094311 16.19981929 -12 11 C-9.4132345 8.08467356 -6.60959733 6.42689858 -3 5 C-2.34 5 -1.68 5 -1 5 C-0.67 3.35 -0.34 1.7 0 0 Z " fill="#0F0A15" transform="translate(19,2)"/>
<path d="M0 0 C0.66 0 1.32 0 2 0 C2 0.66 2 1.32 2 2 C2.62648438 2 3.25296875 2 3.8984375 2 C6.93229167 2 9.96614583 2 13 2 C14.67745682 1.36096883 16.34561387 0.69658363 18 0 C18.33 0.99 18.66 1.98 19 3 C19.66 3.33 20.32 3.66 21 4 C19.68 4 18.36 4 17 4 C17.33 4.66 17.66 5.32 18 6 C19.89533342 6.46523063 19.89533342 6.46523063 22.0625 6.625 C23.361875 6.74875 24.66125 6.8725 26 7 C26 6.01 26 5.02 26 4 C24.68 3.67 23.36 3.34 22 3 C22.99 3 23.98 3 25 3 C25 2.34 25 1.68 25 1 C26.65 1 28.3 1 30 1 C30 1.99 30 2.98 30 4 C29.01 4 28.02 4 27 4 C27.66 4.33 28.32 4.66 29 5 C29 5.66 29 6.32 29 7 C29.99 7.33 30.98 7.66 32 8 C31.27425781 8.25523438 30.54851563 8.51046875 29.80078125 8.7734375 C26.8447016 10.06801074 24.69435334 11.60455104 22.1875 13.625 C21.39730469 14.25664063 20.60710938 14.88828125 19.79296875 15.5390625 C19.20128906 16.02117188 18.60960938 16.50328125 18 17 C12.29197782 14.24746486 8.09749435 11.5755772 4.2890625 6.453125 C2.9573785 4.70810808 2.9573785 4.70810808 0 4 C0 2.68 0 1.36 0 0 Z " fill="#0A0E20" transform="translate(7,33)"/>
<path d="M0 0 C1.32 0 2.64 0 4 0 C5.484375 1.53125 5.484375 1.53125 6.75 3.5 C7.39195313 4.47453125 7.39195313 4.47453125 8.046875 5.46875 C8.36140625 5.9740625 8.6759375 6.479375 9 7 C9.31453125 6.4946875 9.6290625 5.989375 9.953125 5.46875 C10.59507813 4.49421875 10.59507813 4.49421875 11.25 3.5 C11.66765625 2.8503125 12.0853125 2.200625 12.515625 1.53125 C13.00546875 1.0259375 13.4953125 0.520625 14 0 C15.32 0 16.64 0 18 0 C18.99 3.3 19.98 6.6 21 10 C20.34 10 19.68 10 19 10 C19 11.32 19 12.64 19 14 C17.35 14 15.7 14 14 14 C14 13.01 14 12.02 14 11 C14.99 10.34 15.98 9.68 17 9 C14.525 8.505 14.525 8.505 12 8 C12.33 9.98 12.66 11.96 13 14 C10.03 14 7.06 14 4 14 C4 13.01 4 12.02 4 11 C4.66 10.67 5.32 10.34 6 10 C5.67 9.34 5.34 8.68 5 8 C3.8553125 8.495 3.8553125 8.495 2.6875 9 C0 10 0 10 -3 10 C-1.35 8.02 0.3 6.04 2 4 C1.34 2.68 0.68 1.36 0 0 Z " fill="#C6B286" transform="translate(20,26)"/>
<path d="M0 0 C0.5775 0.165 1.155 0.33 1.75 0.5 C5.39005903 1.30890201 8.47291292 1.00773917 12 0 C12.66 1.98 13.32 3.96 14 6 C13.01 5.67 12.02 5.34 11 5 C11 4.01 11 3.02 11 2 C10.01 2.66 9.02 3.32 8 4 C5.26009592 3.96856707 2.71582146 3.44521663 0 3 C-0.06058594 3.60972656 -0.12117188 4.21945313 -0.18359375 4.84765625 C-1 7 -1 7 -3.28515625 8.24609375 C-4.20167969 8.63925781 -5.11820313 9.03242188 -6.0625 9.4375 C-8.85935993 10.84332447 -8.85935993 10.84332447 -11 13 C-12.26468223 18.70527996 -11.59523276 24.40986812 -10 30 C-9.67 28.68 -9.34 27.36 -9 26 C-6.36 26 -3.72 26 -1 26 C-1 26.66 -1 27.32 -1 28 C-2.65 28 -4.3 28 -6 28 C-6 29.32 -6 30.64 -6 32 C-4.35 32.33 -2.7 32.66 -1 33 C-0.67 31.68 -0.34 30.36 0 29 C0 30.98 0 32.96 0 35 C-3.3 35 -6.6 35 -10 35 C-10 34.34 -10 33.68 -10 33 C-10.66 33 -11.32 33 -12 33 C-14.01037602 26.46627793 -15.27153835 19.80703237 -14 13 C-11.60992399 9.59496021 -8.60381962 7.74294586 -4.875 6.015625 C-2.24403372 4.59051827 -1.36697976 2.59726154 0 0 Z " fill="#B67F1B" transform="translate(19,0)"/>
<path d="M0 0 C0.66 0 1.32 0 2 0 C2.48736475 6.70126536 1.07708804 11.06561592 -2 17 C-6.75 16.25 -6.75 16.25 -9 14 C-9 13.01 -9 12.02 -9 11 C-8.34 10.67 -7.68 10.34 -7 10 C-7 8.68 -7 7.36 -7 6 C-6.34 6.33 -5.68 6.66 -5 7 C-4.67 5.68 -4.34 4.36 -4 3 C-3.34 3 -2.68 3 -2 3 C-1.34 2.01 -0.68 1.02 0 0 Z " fill="#AC761E" transform="translate(17,8)"/>
<path d="M0 0 C4.58334984 0.55000198 8.64761551 1.48344676 13 3 C13.06058594 3.94101562 13.12117188 4.88203125 13.18359375 5.8515625 C13.26738281 7.09679687 13.35117187 8.34203125 13.4375 9.625 C13.51871094 10.85476562 13.59992187 12.08453125 13.68359375 13.3515625 C13.96663944 16.61532388 14.41038953 19.77943859 15 23 C14.01 23 13.02 23 12 23 C11.67 23.99 11.34 24.98 11 26 C11 24.68 11 23.36 11 22 C11.66 22 12.32 22 13 22 C12.01 19.36 11.02 16.72 10 14 C10.33 13.67 10.66 13.34 11 13 C11.36760731 10.67182036 11.70241581 8.3381615 12 6 C11.01 6 10.02 6 9 6 C8.67 6.66 8.34 7.32 8 8 C5.9375 8.625 5.9375 8.625 4 9 C0 4.5 0 4.5 0 0 Z " fill="#544020" transform="translate(28,14)"/>
<path d="M0 0 C2 2 2 2 2.125 5.125 C2.08375 6.07375 2.0425 7.0225 2 8 C5.465 9.485 5.465 9.485 9 11 C9 11.99 9 12.98 9 14 C8.01 14 7.02 14 6 14 C5.67 15.32 5.34 16.64 5 18 C2.03 17.67 -0.94 17.34 -4 17 C-3.525625 15.68 -3.05125 14.36 -2.5625 13 C-1.0974342 8.63935605 -0.41575073 4.57325799 0 0 Z " fill="#020E2F" transform="translate(19,8)"/>
<path d="M0 0 C5.31595315 1.60714863 9.40677317 3.93784878 14 7 C13.855625 7.61875 13.71125 8.2375 13.5625 8.875 C12.77943337 13.22537017 12.40153341 17.60021907 12 22 C11.67 22 11.34 22 11 22 C10.93941406 21.33613281 10.87882812 20.67226563 10.81640625 19.98828125 C10.20136493 13.45091919 10.20136493 13.45091919 9 7 C6.03 7 3.06 7 0 7 C-0.66 5.68 -1.32 4.36 -2 3 C-1.34 2.67 -0.68 2.34 0 2 C0 1.34 0 0.68 0 0 Z " fill="#936718" transform="translate(30,5)"/>
<path d="M0 0 C0.5775 0.165 1.155 0.33 1.75 0.5 C5.39005903 1.30890201 8.47291292 1.00773917 12 0 C12.66 1.98 13.32 3.96 14 6 C13.01 5.67 12.02 5.34 11 5 C11 4.01 11 3.02 11 2 C10.01 2.66 9.02 3.32 8 4 C5.26009592 3.96856707 2.71582146 3.44521663 0 3 C-0.061875 3.59425781 -0.12375 4.18851562 -0.1875 4.80078125 C-1.34321553 7.92899203 -3.12322812 8.59792008 -6 10.1875 C-9.19301259 11.8301258 -9.19301259 11.8301258 -12 14 C-12.23363881 15.84891946 -12.41303635 17.70488031 -12.5625 19.5625 C-12.64628906 20.57441406 -12.73007813 21.58632813 -12.81640625 22.62890625 C-12.87699219 23.41136719 -12.93757812 24.19382812 -13 25 C-13.33 25 -13.66 25 -14 25 C-15.06533436 14.54957725 -15.06533436 14.54957725 -12.58203125 10.9375 C-10.15293142 8.86577306 -7.7704507 7.35689996 -4.875 6.015625 C-2.24403372 4.59051827 -1.36697976 2.59726154 0 0 Z " fill="#C58C1C" transform="translate(19,0)"/>
<path d="M0 0 C1.65 0 3.3 0 5 0 C5 0.99 5 1.98 5 3 C4.01 3 3.02 3 2 3 C2.66 3.33 3.32 3.66 4 4 C4 4.66 4 5.32 4 6 C4.99 6.33 5.98 6.66 7 7 C5.948125 7.268125 4.89625 7.53625 3.8125 7.8125 C0.42480754 8.8676829 -2.07089567 10.04726378 -5 12 C-5.33 9.69 -5.66 7.38 -6 5 C-3.69 5.33 -1.38 5.66 1 6 C1 5.01 1 4.02 1 3 C-0.32 2.67 -1.64 2.34 -3 2 C-2.01 2 -1.02 2 0 2 C0 1.34 0 0.68 0 0 Z " fill="#0D0A10" transform="translate(32,34)"/>
<path d="M0 0 C0.33 0.66 0.66 1.32 1 2 C1.66 2 2.32 2 3 2 C3 4.31 3 6.62 3 9 C2.01 9.495 2.01 9.495 1 10 C1 9.34 1 8.68 1 8 C-0.88658874 7.96474868 -0.88658874 7.96474868 -3 9 C-4.59501537 11.24164322 -5.74543018 13.53566643 -7 16 C-7.99 15.34 -8.98 14.68 -10 14 C-8.7175023 11.13904359 -7.54656011 8.88634082 -5 7 C-2.3125 6.8125 -2.3125 6.8125 0 7 C-0.33 6.01 -0.66 5.02 -1 4 C-0.67 3.34 -0.34 2.68 0 2 C-0.66 1.67 -1.32 1.34 -2 1 C-1.34 0.67 -0.68 0.34 0 0 Z " fill="#07050F" transform="translate(37,18)"/>
<path d="M0 0 C2.00051495 0.25813096 4.00116001 0.52048354 5.9921875 0.84375 C8.20703469 1.1470326 8.20703469 1.1470326 11 0 C11 1.32 11 2.64 11 4 C10.030625 4.12375 9.06125 4.2475 8.0625 4.375 C6.5465625 4.684375 6.5465625 4.684375 5 5 C4.67 5.66 4.34 6.32 4 7 C2.68 6.67 1.36 6.34 0 6 C-0.38218767 4.34385343 -0.71395102 2.67542976 -1 1 C-0.67 0.67 -0.34 0.34 0 0 Z " fill="#67451A" transform="translate(19,2)"/>
<path d="M0 0 C1.32 0 2.64 0 4 0 C8 5 8 5 8 9 C7.2575 8.773125 6.515 8.54625 5.75 8.3125 C2.94085007 7.70523302 2.94085007 7.70523302 0.6875 9.4375 C0.130625 9.953125 -0.42625 10.46875 -1 11 C-1.66 10.67 -2.32 10.34 -3 10 C-1.35 8.02 0.3 6.04 2 4 C1.34 2.68 0.68 1.36 0 0 Z " fill="#CFBB8C" transform="translate(20,26)"/>
<path d="M0 0 C0.391875 0.66 0.78375 1.32 1.1875 2 C2.85416667 4.29166667 2.85416667 4.29166667 5.6875 4.25 C6.8321875 4.12625 6.8321875 4.12625 8 4 C8.99 6.31 9.98 8.62 11 11 C12.32 11 13.64 11 15 11 C15.33 11.66 15.66 12.32 16 13 C14.35 13.33 12.7 13.66 11 14 C10.484375 13.236875 9.96875 12.47375 9.4375 11.6875 C6.44152356 8.38424393 4.14287486 7.51374274 0 6 C0 4.02 0 2.04 0 0 Z " fill="#A16C22" transform="translate(20,10)"/>
<path d="M0 0 C0.66 0 1.32 0 2 0 C2 0.66 2 1.32 2 2 C4.97 2 7.94 2 11 2 C11 2.33 11 2.66 11 3 C12.65 3.33 14.3 3.66 16 4 C16 4.99 16 5.98 16 7 C12.28400809 7.20086443 11.22791555 7.1519437 8 5 C8.33 4.34 8.66 3.68 9 3 C7.68 3 6.36 3 5 3 C5.33 4.32 5.66 5.64 6 7 C4.02 6.01 2.04 5.02 0 4 C0 2.68 0 1.36 0 0 Z " fill="#6F5B37" transform="translate(7,33)"/>
<path d="M0 0 C3.89364717 0.57683662 6.01189041 2.54821777 9 5 C9.99 5.33 10.98 5.66 12 6 C14.12817523 4.79892345 14.12817523 4.79892345 16.1875 3.0625 C16.90292969 2.49660156 17.61835938 1.93070313 18.35546875 1.34765625 C18.89816406 0.90292969 19.44085938 0.45820312 20 0 C20.66 0.33 21.32 0.66 22 1 C20.73427767 2.15147661 19.46222094 3.29599314 18.1875 4.4375 C17.47980469 5.07558594 16.77210937 5.71367188 16.04296875 6.37109375 C14 8 14 8 11 9 C8.5546875 7.63671875 8.5546875 7.63671875 5.875 5.6875 C4.98554688 5.05199219 4.09609375 4.41648437 3.1796875 3.76171875 C1 2 1 2 0 0 Z " fill="#BB851A" transform="translate(13,41)"/>
<path d="M0 0 C-1.32 1.32 -2.64 2.64 -4 4 C-4.33 3.67 -4.66 3.34 -5 3 C-6.99958364 2.95919217 -9.00045254 2.95745644 -11 3 C-10.67 1.35 -10.34 -0.3 -10 -2 C-5.57867492 -3.38955931 -3.72488245 -2.66063032 0 0 Z " fill="#4E391B" transform="translate(23,30)"/>
<path d="M0 0 C1.65 0 3.3 0 5 0 C5 1.32 5 2.64 5 4 C5.99 3.67 6.98 3.34 8 3 C8.33 4.65 8.66 6.3 9 8 C7.35 8.33 5.7 8.66 4 9 C0 4.5 0 4.5 0 0 Z " fill="#45301D" transform="translate(28,14)"/>
<path d="M0 0 C2 2 2 2 2.125 5.125 C2.08375 6.07375 2.0425 7.0225 2 8 C5.465 9.485 5.465 9.485 9 11 C9 11.99 9 12.98 9 14 C7.68 13.67 6.36 13.34 5 13 C5 12.34 5 11.68 5 11 C4.4225 11.144375 3.845 11.28875 3.25 11.4375 C1.16666667 11.95833333 -0.91666667 12.47916667 -3 13 C-2.690625 12.34 -2.38125 11.68 -2.0625 11 C-0.75039745 7.29523985 -0.39735865 3.90736009 0 0 Z " fill="#18121E" transform="translate(19,8)"/>
<path d="M0 0 C3.4915227 2.25259529 3.92643531 2.70574125 5 7 C2.03 7 -0.94 7 -4 7 C-4 6.01 -4 5.02 -4 4 C-2.68 3.34 -1.36 2.68 0 2 C0 1.34 0 0.68 0 0 Z " fill="#9A8C6A" transform="translate(28,33)"/>
<path d="M0 0 C0.33 0 0.66 0 1 0 C1.13277344 1.10859375 1.26554688 2.2171875 1.40234375 3.359375 C1.58059757 4.8229327 1.75899028 6.28647349 1.9375 7.75 C2.06801758 8.84441406 2.06801758 8.84441406 2.20117188 9.9609375 C2.77849808 15.04800629 2.77849808 15.04800629 4 20 C4.66 20.33 5.32 20.66 6 21 C5.01 21 4.02 21 3 21 C3 20.34 3 19.68 3 19 C2.34 19 1.68 19 1 19 C-0.26582219 15.13276369 -0.1118765 11.26848738 -0.0625 7.25 C-0.05798828 6.55261719 -0.05347656 5.85523438 -0.04882812 5.13671875 C-0.0371002 3.42444197 -0.01916653 1.71220967 0 0 Z " fill="#9F6F1A" transform="translate(6,14)"/>
<path d="M0 0 C0.598125 0.350625 1.19625 0.70125 1.8125 1.0625 C1.8125 2.0525 1.8125 3.0425 1.8125 4.0625 C0.1625 4.0625 -1.4875 4.0625 -3.1875 4.0625 C-3.8475 2.7425 -4.5075 1.4225 -5.1875 0.0625 C-2.1875 -0.9375 -2.1875 -0.9375 0 0 Z " fill="#916820" transform="translate(33.1875,7.9375)"/>
<path d="M0 0 C0.99 0.33 1.98 0.66 3 1 C3 1.66 3 2.32 3 3 C3.66 3.33 4.32 3.66 5 4 C3.68 4 2.36 4 1 4 C0.67 4.99 0.34 5.98 0 7 C0 6.01 0 5.02 0 4 C-1.32 3.67 -2.64 3.34 -4 3 C-2.1875 1.4375 -2.1875 1.4375 0 0 Z " fill="#37332F" transform="translate(23,33)"/>
<path d="M0 0 C2.9375 0.75 2.9375 0.75 6 2 C6.875 4.125 6.875 4.125 7 6 C2.25 5.25 2.25 5.25 0 3 C0 2.01 0 1.02 0 0 Z " fill="#AD771E" transform="translate(8,19)"/>
<path d="M0 0 C0.66 0 1.32 0 2 0 C2 2.64 2 5.28 2 8 C1.01 8 0.02 8 -1 8 C-2.2077558 4.37673261 -1.54311128 3.35853631 0 0 Z " fill="#956519" transform="translate(17,8)"/>
<path d="M0 0 C0.66 0 1.32 0 2 0 C2 2.64 2 5.28 2 8 C0.02 7.34 -1.96 6.68 -4 6 C-3.67 5.01 -3.34 4.02 -3 3 C-2.34 3.33 -1.68 3.66 -1 4 C-0.67 2.68 -0.34 1.36 0 0 Z " fill="#885C18" transform="translate(13,11)"/>
<path d="M0 0 C0.33 0.66 0.66 1.32 1 2 C0.01 2.495 0.01 2.495 -1 3 C-2.13350534 5.01669827 -2.13350534 5.01669827 -3 7 C-3 6.34 -3 5.68 -3 5 C-3.66 5 -4.32 5 -5 5 C-5.33 5.99 -5.66 6.98 -6 8 C-6.33 6.68 -6.66 5.36 -7 4 C-4.69 2.68 -2.38 1.36 0 0 Z " fill="#191012" transform="translate(18,6)"/>
<path d="M0 0 C1.65 0 3.3 0 5 0 C5 0.99 5 1.98 5 3 C2.39417629 3.93065133 1.35801776 4.14917407 -1.25 3.0625 C-1.8275 2.711875 -2.405 2.36125 -3 2 C-2.01 2 -1.02 2 0 2 C0 1.34 0 0.68 0 0 Z " fill="#201D1A" transform="translate(32,34)"/>
<path d="M0 0 C0 1.32 0 2.64 0 4 C-1.98 4.33 -3.96 4.66 -6 5 C-6.33 4.01 -6.66 3.02 -7 2 C-2.25 0 -2.25 0 0 0 Z " fill="#493114" transform="translate(30,2)"/>
<path d="M0 0 C0.33 0.66 0.66 1.32 1 2 C0.34 2 -0.32 2 -1 2 C-1 3.32 -1 4.64 -1 6 C-2.65 6 -4.3 6 -6 6 C-6 5.01 -6 4.02 -6 3 C-4.02 2.01 -2.04 1.02 0 0 Z " fill="#8D8061" transform="translate(40,34)"/>
<path d="M0 0 C2 2 2 2 2 6 C-0.31 5.67 -2.62 5.34 -5 5 C-4.360625 4.731875 -3.72125 4.46375 -3.0625 4.1875 C-0.66868314 3.11332248 -0.66868314 3.11332248 0 0 Z " fill="#B6A47C" transform="translate(38,29)"/>
</svg>
