<?xml version="1.0" encoding="UTF-8"?>
<!-- Generator: https://ezgif.com/png-to-svg -->
<svg version="1.1" xmlns="http://www.w3.org/2000/svg" width="512" height="512" viewBox="-11.1 -10.23 218.96 218.96" preserveAspectRatio="xMidYMid meet">
<path d="M0 0 C5.66 0.84 9.7 4.56 13.38 8.81 C15.83 10.89 18.1 11.6 21.3 11.87 C24.76 11.26 26.34 8.92 28.58 6.36 C31.31 3.53 34.6 1.62 38.38 0.5 C41.38 1.5 41.38 1.5 42.59 3.25 C43.53 5.95 43.18 7.73 42.88 10.56 C42.88 13.59 42.88 13.59 44.38 16.5 C47.8 19.42 51.7 21.53 55.67 23.62 C60.76 26.31 63.73 28.31 66.38 33.5 C66.38 34.16 66.38 34.82 66.38 35.5 C66.92 35.66 67.47 35.83 68.03 36 C73.78 37.81 78.96 40.14 84.25 43 C85 43.39 85.74 43.78 86.51 44.18 C93.05 47.68 93.05 47.68 95.38 50.5 C95.94 54.79 95.68 56.95 93.56 60.75 C91.38 63.5 91.38 63.5 89.76 64.91 C87.97 66.96 88.01 68.06 88 70.76 C87.99 71.62 87.97 72.48 87.96 73.37 C87.95 74.3 87.94 75.23 87.94 76.19 C87.65 87.67 85.95 98.7 83.84 109.96 C83.69 110.8 83.53 111.64 83.38 112.5 C83.15 113.46 82.92 114.42 82.69 115.41 C82.3 119.2 83.1 121.45 84.46 124.99 C84.92 126.19 85.37 127.39 85.84 128.62 C86.33 129.88 86.82 131.13 87.31 132.38 C87.8 133.65 88.29 134.92 88.77 136.2 C89.96 139.3 91.17 142.4 92.38 145.5 C87.75 145.5 83.13 145.5 78.38 145.5 C78.38 147.81 78.38 150.12 78.38 152.5 C77.41 156.35 76.59 159.08 73.38 161.5 C70.74 161.73 70.74 161.73 67.69 161.69 C62.94 161.98 60.61 162.53 57.31 166 C56.68 166.72 56.06 167.45 55.41 168.2 C48.34 176.21 38.78 182.33 29.99 188.35 C28.51 189.4 27.09 190.54 25.68 191.68 C23.21 193.53 21.38 194.74 18.38 195.5 C13.74 194.51 10.26 192.16 6.38 189.5 C5.79 189.1 5.2 188.7 4.59 188.29 C-10.21 178.14 -25.76 166.49 -35 150.88 C-37.1 147.68 -37.98 146.68 -41.72 145.66 C-44.73 145.4 -47.61 145.33 -50.62 145.5 C-50.47 144.65 -50.31 143.81 -50.15 142.94 C-49.96 141.8 -49.76 140.67 -49.56 139.5 C-49.37 138.39 -49.17 137.27 -48.96 136.12 C-48.37 129.79 -49.58 124.24 -51.34 118.21 C-56.21 101.42 -57.88 84.5 -58.25 67.06 C-58.3 65.84 -58.34 64.61 -58.39 63.35 C-58.43 57.58 -58.32 53.51 -54.5 49 C-53.24 47.79 -51.95 46.62 -50.62 45.5 C-50.07 45 -49.52 44.5 -48.95 43.99 C-47.34 42.6 -45.69 41.29 -44 40 C-43.4 39.54 -42.8 39.07 -42.18 38.59 C-34.3 32.61 -26.16 27.55 -17 23.75 C-13.46 22.06 -11.98 21.29 -10.35 17.67 C-9.87 15.58 -9.46 13.47 -9.13 11.35 C-8.25 6.36 -5.27 1 0 0 Z " fill="#040719" transform="translate(79.625,1.5)"/>
<path d="M0 0 C5.66 0.84 9.7 4.56 13.38 8.81 C15.83 10.89 18.1 11.6 21.3 11.87 C24.76 11.26 26.34 8.92 28.58 6.36 C31.31 3.53 34.6 1.62 38.38 0.5 C41.38 1.5 41.38 1.5 42.59 3.25 C43.53 5.95 43.18 7.73 42.88 10.56 C42.88 13.59 42.88 13.59 44.38 16.5 C47.8 19.42 51.7 21.53 55.67 23.62 C60.76 26.31 63.73 28.31 66.38 33.5 C66.38 34.16 66.38 34.82 66.38 35.5 C66.92 35.66 67.47 35.83 68.03 36 C73.78 37.81 78.96 40.14 84.25 43 C85 43.39 85.74 43.78 86.51 44.18 C93.05 47.68 93.05 47.68 95.38 50.5 C95.94 54.79 95.68 56.95 93.56 60.75 C91.38 63.5 91.38 63.5 89.76 64.91 C87.97 66.96 88.01 68.06 88 70.76 C87.99 71.62 87.97 72.48 87.96 73.37 C87.95 74.3 87.94 75.23 87.94 76.19 C87.65 87.67 85.95 98.7 83.84 109.96 C83.69 110.8 83.53 111.64 83.38 112.5 C83.15 113.46 82.92 114.42 82.69 115.41 C82.3 119.2 83.1 121.45 84.46 124.99 C84.92 126.19 85.37 127.39 85.84 128.62 C86.33 129.88 86.82 131.13 87.31 132.38 C87.8 133.65 88.29 134.92 88.77 136.2 C89.96 139.3 91.17 142.4 92.38 145.5 C87.75 145.5 83.13 145.5 78.38 145.5 C78.38 147.81 78.38 150.12 78.38 152.5 C77.41 156.35 76.59 159.08 73.38 161.5 C70.74 161.73 70.74 161.73 67.69 161.69 C62.94 161.98 60.61 162.53 57.31 166 C56.68 166.72 56.06 167.45 55.41 168.2 C48.34 176.21 38.78 182.33 29.99 188.35 C28.51 189.4 27.09 190.54 25.68 191.68 C23.21 193.53 21.38 194.74 18.38 195.5 C13.74 194.51 10.26 192.16 6.38 189.5 C5.79 189.1 5.2 188.7 4.59 188.29 C-5.84 181.13 -17.26 173.06 -25.62 163.5 C-25.62 162.51 -25.62 161.52 -25.62 160.5 C-20.71 160.92 -18.89 162.93 -15.62 166.5 C-10.63 171.92 -5.25 176.11 0.88 180.19 C1.69 180.74 2.51 181.3 3.35 181.87 C5.67 183.44 8.02 184.97 10.38 186.5 C11.04 186.95 11.7 187.39 12.39 187.85 C14.38 189.18 14.38 189.18 17.38 190.5 C19.59 190.07 19.59 190.07 21.38 188.5 C22.18 188.02 22.99 187.55 23.82 187.05 C30.39 182.94 36.43 178.47 42.38 173.5 C42.93 173.04 43.49 172.58 44.06 172.1 C45.86 170.62 47.65 169.12 49.44 167.62 C50.01 167.15 50.58 166.67 51.17 166.18 C54.21 163.7 54.21 163.7 56.38 160.5 C57.37 160.17 58.36 159.84 59.38 159.5 C59.38 158.84 59.38 158.18 59.38 157.5 C57.72 157.5 56.07 157.5 54.38 157.5 C54.7 155.19 55.03 152.88 55.38 150.5 C52.8 151.71 52.8 151.71 50.38 153.5 C50.38 154.82 50.38 156.14 50.38 157.5 C49.38 157.5 48.39 157.5 47.38 157.5 C47.05 156.84 46.72 156.18 46.38 155.5 C46.05 156.16 45.72 156.82 45.38 157.5 C43.98 157.47 43.98 157.47 42.56 157.44 C39.35 157.34 39.35 157.34 36.38 158.5 C32.81 158.31 32.81 158.31 29.38 157.5 C27.94 155.44 27.94 155.44 27.38 153.5 C25.06 153.83 22.75 154.16 20.38 154.5 C20.38 155.49 20.38 156.48 20.38 157.5 C19.39 157.5 18.39 157.5 17.38 157.5 C17.35 155.88 17.33 154.25 17.31 152.62 C17.3 151.72 17.29 150.82 17.28 149.88 C17.38 147.5 17.38 147.5 18.38 145.5 C17.39 145.5 16.39 145.5 15.38 145.5 C15.38 146.49 15.38 147.48 15.38 148.5 C13.39 148.5 11.42 148.5 9.38 148.5 C9.38 149.16 9.38 149.82 9.38 150.5 C11.03 150.83 12.67 151.16 14.38 151.5 C13.62 156.25 13.62 156.25 11.38 158.5 C8.46 158.48 5.65 158.36 2.75 158.12 C1.95 158.07 1.15 158.01 0.32 157.95 C-1.66 157.81 -3.64 157.66 -5.62 157.5 C-5.3 153.87 -4.97 150.24 -4.62 146.5 C-1.16 145.51 -1.16 145.51 2.38 144.5 C2.38 142.85 2.38 141.2 2.38 139.5 C-5.38 144.67 -12.75 150.2 -19.62 156.5 C-20.28 156.17 -20.95 155.84 -21.62 155.5 C-20.91 154.73 -20.2 153.95 -19.46 153.16 C-18.5 152.1 -17.53 151.05 -16.56 150 C-16.06 149.45 -15.55 148.9 -15.03 148.33 C-12.31 145.37 -9.65 142.38 -7.06 139.31 C-3.71 135.43 0.06 132.11 3.95 128.77 C6.71 126.19 9 123.45 11.38 120.5 C11.01 120.02 10.65 119.54 10.27 119.05 C8.64 116.89 7.01 114.73 5.38 112.56 C4.8 111.81 4.23 111.05 3.64 110.28 C3.1 109.56 2.56 108.84 2 108.1 C1.5 107.43 0.99 106.77 0.48 106.08 C-0.62 104.5 -0.62 104.5 -0.62 103.5 C4.5 102.97 9.27 102.68 14.38 103.5 C17.38 106.08 18.92 108.84 20.38 112.5 C24.62 111.99 27.23 109.34 30.31 106.62 C34.7 102.8 38.78 99.36 44.38 97.5 C44.09 98.07 43.8 98.64 43.51 99.23 C42.78 100.69 42.07 102.15 41.37 103.61 C38.32 109.61 34.6 113.34 29.38 117.5 C28.72 118.16 28.06 118.82 27.38 119.5 C27.65 123.5 30.21 126.43 32.44 129.62 C36.38 135.29 36.38 135.29 36.38 137.5 C37.03 137.5 37.69 137.5 38.38 137.5 C38.64 136.63 38.9 135.75 39.18 134.86 C40.36 131.55 41.77 128.82 43.56 125.8 C44.18 124.76 44.79 123.71 45.43 122.64 C46.39 121.02 46.39 121.02 47.38 119.38 C48.65 117.23 49.92 115.08 51.19 112.93 C51.75 111.98 52.31 111.04 52.89 110.06 C54.38 107.59 54.38 107.59 55.41 105.2 C55.73 104.64 56.05 104.08 56.38 103.5 C58.98 102.89 58.98 102.89 62 102.75 C63 102.69 64.01 102.64 65.04 102.58 C65.81 102.55 66.58 102.53 67.38 102.5 C66.26 102.4 65.15 102.29 64 102.19 C62.8 101.96 61.61 101.73 60.38 101.5 C59.72 100.51 59.06 99.52 58.38 98.5 C58.8 97.98 59.22 97.46 59.65 96.93 C63.81 91.8 63.81 91.8 65.38 85.5 C64.3 86.54 64.3 86.54 63.19 88 C60.72 90.04 58.5 90.15 55.38 90.5 C57.35 91 57.35 91 59.38 91.5 C59.38 92.16 59.38 92.82 59.38 93.5 C55.66 95.88 52.71 96.15 48.38 95.5 C42.21 91.77 38.32 85.88 34.25 80.1 C29.9 73.87 29.9 73.87 23.19 70.88 C21.93 70.75 20.67 70.63 19.38 70.5 C11.81 68.53 6.14 65.83 1.38 59.5 C-0.83 55.71 -1.01 52.9 -0.62 48.5 C0.35 46.82 1.35 45.15 2.38 43.5 C1.88 41.52 1.88 41.52 1.38 39.5 C4.34 36.86 7.31 34.22 10.38 31.5 C9.39 29.02 9.39 29.02 8.38 26.5 C9.36 26.17 10.36 25.84 11.38 25.5 C10.3 24.03 9.22 22.58 8.12 21.12 C7.52 20.31 6.92 19.5 6.3 18.66 C4.4 16.53 2.99 15.55 0.38 14.5 C-0.15 22.99 -0.15 22.99 3.38 30.5 C2.88 31.98 2.88 31.98 2.38 33.5 C1.72 33.5 1.06 33.5 0.38 33.5 C-3.74 26.38 -4.6 19.66 -3.62 11.5 C-2.97 10.51 -2.31 9.52 -1.62 8.5 C3.31 8.88 5.58 11.33 8.75 14.81 C12.65 18.92 16.22 22.09 21.38 24.5 C21.87 24.01 21.87 24.01 22.38 23.5 C21.88 22.02 21.88 22.02 21.38 20.5 C34.43 19.32 47.02 24.65 57.38 32.5 C57.98 33.48 58.59 34.45 59.21 35.46 C62.04 39.43 65.02 40.74 69.38 42.69 C78.05 46.7 78.05 46.7 81.38 49.5 C80.38 49.83 79.4 50.16 78.38 50.5 C78.64 53.43 78.64 53.43 79.38 56.5 C80.37 57.16 81.35 57.82 82.38 58.5 C81.22 60.97 80.33 62.55 78.38 64.5 C69.34 66.91 60.94 61.4 53.23 57.35 C49.32 55.56 45.65 55.31 41.38 55.25 C40.34 55.22 39.31 55.2 38.25 55.17 C35.05 55.54 33.72 56.35 31.38 58.5 C33.36 58.17 35.33 57.84 37.38 57.5 C36.69 58.22 36.01 58.94 35.31 59.69 C33.11 62.25 33.11 62.25 33.54 64.82 C34.53 68 35.95 70.45 37.75 73.25 C38.36 74.21 38.96 75.18 39.59 76.17 C41.23 78.76 41.23 78.76 44.38 79.5 C43.8 78.51 43.22 77.53 42.62 76.51 C41.87 75.21 41.12 73.92 40.38 72.62 C39.99 71.97 39.61 71.32 39.22 70.65 C36.38 65.73 36.38 65.73 36.38 63.5 C42.54 66.01 45.86 70.74 48.59 76.56 C49.51 78.85 50.07 81.06 50.38 83.5 C51.69 82.84 53.01 82.18 54.38 81.5 C53.87 78.28 52.99 75.49 51.75 72.5 C50.44 69.11 50.07 67.01 51.38 63.5 C52.03 62.51 52.69 61.52 53.38 60.5 C56.92 61.11 60.18 61.81 63.38 63.5 C64.06 65.56 64.06 65.56 64.38 67.5 C65.03 67.83 65.69 68.16 66.38 68.5 C66.38 67.84 66.38 67.18 66.38 66.5 C68.03 66.5 69.68 66.5 71.38 66.5 C71.38 67.16 71.38 67.82 71.38 68.5 C74.84 68 74.84 68 78.38 67.5 C77.38 69.48 77.38 69.48 76.38 71.5 C75.72 71.5 75.06 71.5 74.38 71.5 C74.38 72.49 74.38 73.48 74.38 74.5 C77.2 73.86 78.94 73.11 80.64 70.73 C81.47 69.31 82.3 67.89 83.11 66.46 C84.78 63.88 86.94 62.34 89.38 60.5 C91.46 57.42 91.44 55.15 91.38 51.5 C89.8 50.65 88.23 49.81 86.65 48.96 C85.29 48.23 83.93 47.5 82.57 46.77 C77.5 44.04 72.35 41.59 67.06 39.31 C64.38 37.5 63.39 36.22 61.62 33.6 C58.24 28.83 54.29 27.19 49.06 24.88 C41.15 21.02 41.15 21.02 39.45 17.69 C38.46 13.6 38.75 9.62 39.38 5.5 C36.09 5.81 34.68 6.2 32.3 8.57 C31.63 9.39 30.95 10.21 30.25 11.06 C26.93 14.49 24.76 16.25 19.94 16.62 C13.89 16.16 10.74 12.88 6.76 8.57 C3.94 6.13 2.04 5.79 -1.62 5.5 C-4.94 9.01 -4.79 11.54 -4.81 16.25 C-5.56 22.55 -5.56 22.55 -8.12 24.83 C-12.06 27.3 -16.35 28.99 -20.67 30.7 C-29.41 34.28 -37.42 40.51 -44.62 46.5 C-45.68 47.28 -45.68 47.28 -46.75 48.08 C-50.2 50.96 -52.32 53.1 -53.29 57.57 C-53.49 61.2 -53.42 64.74 -53.25 68.38 C-53.22 69.67 -53.18 70.96 -53.15 72.29 C-53.03 76.03 -52.85 79.76 -52.62 83.5 C-52.57 84.44 -52.51 85.38 -52.46 86.35 C-51.68 97.83 -49.09 108.66 -46.01 119.71 C-45.38 122.63 -45.57 125.53 -45.62 128.5 C-46.28 128.83 -46.95 129.16 -47.62 129.5 C-54.37 108.98 -57.71 89.04 -58.19 67.44 C-58.26 65.56 -58.26 65.56 -58.34 63.65 C-58.4 57.8 -58.39 53.56 -54.5 48.97 C-53.25 47.78 -51.95 46.62 -50.62 45.5 C-50.07 45 -49.52 44.5 -48.95 43.99 C-47.34 42.6 -45.69 41.29 -44 40 C-43.4 39.54 -42.8 39.07 -42.18 38.59 C-34.3 32.61 -26.16 27.55 -17 23.75 C-13.46 22.06 -11.98 21.29 -10.35 17.67 C-9.87 15.58 -9.46 13.47 -9.13 11.35 C-8.25 6.36 -5.27 1 0 0 Z " fill="#060713" transform="translate(79.625,1.5)"/>
<path d="M0 0 C4.93 0.38 7.2 2.83 10.38 6.31 C14.27 10.42 17.84 13.59 23 16 C23.33 15.67 23.66 15.34 24 15 C23.67 14.01 23.34 13.02 23 12 C36.05 10.82 48.65 16.15 59 24 C59.91 25.47 59.91 25.47 60.84 26.96 C63.66 30.93 66.64 32.24 71 34.19 C79.67 38.2 79.67 38.2 83 41 C81.51 41.49 81.51 41.49 80 42 C80.27 44.93 80.27 44.93 81 48 C82.49 48.99 82.49 48.99 84 50 C82.85 52.47 81.95 54.05 80 56 C70.96 58.41 62.57 52.9 54.86 48.85 C50.94 47.06 47.27 46.81 43 46.75 C41.97 46.72 40.94 46.7 39.88 46.67 C36.67 47.04 35.35 47.85 33 50 C35.97 49.51 35.97 49.51 39 49 C38.32 49.72 37.64 50.44 36.94 51.19 C34.74 53.75 34.74 53.75 35.17 56.32 C36.15 59.5 37.58 61.95 39.38 64.75 C39.98 65.71 40.59 66.68 41.21 67.67 C42.86 70.26 42.86 70.26 46 71 C45.42 70.01 44.84 69.03 44.25 68.01 C43.5 66.71 42.75 65.42 42 64.12 C41.62 63.47 41.24 62.82 40.84 62.15 C38 57.23 38 57.23 38 55 C44.17 57.51 47.48 62.24 50.22 68.06 C51.14 70.35 51.69 72.56 52 75 C54.47 74.5 54.47 74.5 57 74 C56.67 75.65 56.34 77.3 56 79 C58.31 79 60.62 79 63 79 C63.33 77.35 63.66 75.7 64 74 C64.99 73.67 65.98 73.34 67 73 C66.65 75.61 66.3 77.55 64.81 79.75 C62.32 81.47 59.98 81.67 57 82 C58.32 82.33 59.64 82.66 61 83 C61 83.66 61 84.32 61 85 C57.29 87.38 54.33 87.65 50 87 C43.83 83.27 39.95 77.38 35.87 71.6 C31.52 65.37 31.52 65.37 24.81 62.38 C22.93 62.19 22.93 62.19 21 62 C13.44 60.03 7.76 57.33 3 51 C0.8 47.21 0.61 44.4 1 40 C1.98 38.32 2.97 36.65 4 35 C3.67 33.68 3.34 32.36 3 31 C5.97 28.36 8.94 25.72 12 23 C11.34 21.35 10.68 19.7 10 18 C10.99 17.67 11.98 17.34 13 17 C11.93 15.53 10.84 14.08 9.75 12.62 C9.15 11.81 8.54 11 7.92 10.16 C6.03 8.03 4.62 7.05 2 6 C1.48 14.49 1.48 14.49 5 22 C4.67 22.99 4.34 23.98 4 25 C3.34 25 2.68 25 2 25 C-2.12 17.88 -2.97 11.16 -2 3 C-1.34 2.01 -0.68 1.02 0 0 Z " fill="#BB7F1C" transform="translate(78,10)"/>
<path d="M0 0 C0.66 0.33 1.32 0.66 2 1 C1.81 1.78 1.63 2.57 1.44 3.38 C0.74 5.97 0.74 5.97 2 8 C-0.64 8.33 -3.28 8.66 -6 9 C-6.66 12.63 -7.32 16.26 -8 20 C-5.21 20.05 -2.42 20.09 0.38 20.12 C1.17 20.14 1.96 20.16 2.78 20.18 C4.85 20.19 6.93 20.1 9 20 C9.66 19.34 10.32 18.68 11 18 C11 16.68 11 15.36 11 14 C9.68 13.67 8.36 13.34 7 13 C7 12.34 7 11.68 7 11 C8.98 11 10.96 11 13 11 C13 10.01 13 9.02 13 8 C10.69 8 8.38 8 6 8 C6 7.67 6 7.34 6 7 C11.61 7 17.22 7 23 7 C23 7.33 23 7.66 23 8 C20.69 8 18.38 8 16 8 C15.67 11.96 15.34 15.92 15 20 C15.99 20 16.98 20 18 20 C18 19.01 18 18.02 18 17 C20.64 16.34 23.28 15.68 26 15 C26.5 16.98 26.5 16.98 27 19 C28.41 19.22 29.83 19.43 31.25 19.62 C32.43 19.8 32.43 19.8 33.64 19.98 C36.32 20 37.73 19.37 40 18 C40 18.66 40 19.32 40 20 C40.99 20 41.98 20 43 20 C43.5 18.51 43.5 18.51 44 17 C44.5 18.49 44.5 18.49 45 20 C45.99 20 46.98 20 48 20 C47.5 18.02 47.5 18.02 47 16 C50.75 13 50.75 13 53 13 C53 14.98 53 16.96 53 19 C54.98 19.5 54.98 19.5 57 20 C57 20.66 57 21.32 57 22 C57.66 22.33 58.32 22.66 59 23 C57.35 23 55.7 23 54 23 C53.73 23.6 53.46 24.2 53.18 24.82 C52 27 50.93 28.22 49.09 29.85 C48.5 30.37 47.91 30.88 47.3 31.42 C46.35 32.23 46.35 32.23 45.38 33.06 C44.39 33.91 44.39 33.91 43.38 34.78 C36.8 40.35 29.8 45.24 22.56 49.92 C20.84 51.05 20.84 51.05 18.92 52.93 C17 54 17 54 14.1 53.41 C1.18 47.54 -13.67 36.72 -23 26 C-23.77 23.23 -23.77 23.23 -24 21 C-22.35 20.34 -20.7 19.68 -19 19 C-19.33 18.01 -19.66 17.02 -20 16 C-13.33 10.67 -6.67 5.33 0 0 Z " fill="#03081B" transform="translate(82,139)"/>
<path d="M0 0 C0.66 0 1.32 0 2 0 C1.71 0.57 1.43 1.14 1.13 1.73 C0.41 3.19 -0.31 4.65 -1.01 6.11 C-4.06 12.11 -7.78 15.84 -13 20 C-13.66 20.66 -14.32 21.32 -15 22 C-14.72 26 -12.16 28.93 -9.94 32.12 C-6 37.79 -6 37.79 -6 40 C-5.34 40 -4.68 40 -4 40 C-3.74 39.13 -3.47 38.25 -3.2 37.36 C-2.02 34.05 -0.6 31.32 1.19 28.3 C1.8 27.26 2.42 26.21 3.05 25.14 C3.7 24.06 4.34 22.98 5 21.88 C6.27 19.73 7.54 17.58 8.81 15.43 C9.38 14.48 9.94 13.54 10.52 12.56 C11.76 10.42 12.89 8.21 14 6 C18.29 6 22.58 6 27 6 C30.61 13.75 33.84 21.55 36.81 29.56 C37.22 30.64 37.63 31.72 38.04 32.83 C41 40.74 41 40.74 41 43 C37.37 43 33.74 43 30 43 C29.01 40.69 28.02 38.38 27 36 C21.06 36 15.12 36 9 36 C7.68 38.31 6.36 40.62 5 43 C-13.11 44.76 -13.11 44.76 -17.78 41.92 C-20.66 39.09 -22.45 35.69 -24 32 C-27.39 33.45 -29.48 35.32 -32 38 C-34.52 40.68 -36.61 42.55 -40 44 C-40 43.01 -40 42.02 -40 41 C-41.44 42.14 -42.88 43.29 -44.31 44.44 C-45.22 45.16 -46.12 45.88 -47.05 46.62 C-49.06 48.24 -51.04 49.88 -53.01 51.54 C-54.46 52.76 -54.46 52.76 -55.94 54 C-56.83 54.76 -57.73 55.53 -58.65 56.31 C-61 58 -61 58 -64 58 C-63.29 57.23 -62.57 56.45 -61.84 55.66 C-60.87 54.6 -59.9 53.55 -58.94 52.5 C-58.18 51.68 -58.18 51.68 -57.4 50.83 C-54.69 47.87 -52.03 44.88 -49.44 41.81 C-46.09 37.93 -42.31 34.61 -38.43 31.27 C-35.66 28.69 -33.37 25.95 -31 23 C-31.36 22.52 -31.73 22.04 -32.1 21.55 C-33.74 19.39 -35.37 17.23 -37 15.06 C-37.57 14.31 -38.14 13.55 -38.73 12.78 C-39.28 12.06 -39.82 11.34 -40.38 10.6 C-41.13 9.6 -41.13 9.6 -41.9 8.58 C-43 7 -43 7 -43 6 C-37.87 5.47 -33.11 5.18 -28 6 C-24.99 8.58 -23.46 11.34 -22 15 C-17.76 14.49 -15.14 11.84 -12.06 9.12 C-8.54 6.05 -5.07 3.32 -1 1 C-0.67 0.67 -0.34 0.34 0 0 Z " fill="#D9C393" transform="translate(122,99)"/>
<path d="M0 0 C2.06 1.69 2.06 1.69 4 4 C3.75 6.31 3.75 6.31 3 9 C2.48 14.76 3.31 17.54 7 22 C11.83 26.94 17.34 29.26 24 31 C24.85 30.95 25.69 30.91 26.57 30.86 C30.87 31.11 32.89 34.37 35.73 37.35 C37.91 39.89 39.81 42.48 41.69 45.25 C44.47 49.36 46.77 52.36 51 55 C54.9 55.4 58.26 55.2 62 54 C62 53.34 62 52.68 62 52 C60.35 51.67 58.7 51.34 57 51 C57 50.67 57 50.34 57 50 C58.09 49.92 59.19 49.84 60.31 49.75 C64.03 49.36 64.03 49.36 65.94 46.94 C66.29 46.3 66.64 45.66 67 45 C67.66 45.33 68.32 45.66 69 46 C68.66 51.44 65.3 54.94 62 59 C64.2 61.2 65.18 61.46 68.12 62.12 C70.04 62.56 70.04 62.56 72 63 C72 63.33 72 63.66 72 64 C67.71 64 63.42 64 59 64 C58.34 65.98 57.68 67.96 57 70 C55.99 71.93 54.92 73.82 53.81 75.7 C53.2 76.74 52.58 77.79 51.95 78.86 C50.98 80.48 50.98 80.48 50 82.12 C48.73 84.27 47.46 86.42 46.19 88.57 C45.62 89.52 45.06 90.46 44.48 91.44 C43.23 93.59 42.08 95.76 41 98 C40.34 98 39.68 98 39 98 C37.17 95.62 35.48 93.25 33.81 90.75 C33.34 90.07 32.86 89.39 32.37 88.68 C31.92 88.02 31.48 87.36 31.02 86.67 C30.4 85.76 30.4 85.76 29.77 84.83 C28.77 82.46 29.08 81.37 30 79 C31.78 76.89 31.78 76.89 33.94 74.81 C34.65 74.12 35.36 73.42 36.09 72.71 C38 71 38 71 40 70 C40.89 68.57 41.71 67.11 42.5 65.62 C43.91 62.98 45.33 60.5 47 58 C46.32 58.58 45.64 59.16 44.94 59.75 C42 62 42 62 38.75 63.75 C34.6 65.99 31.45 69.19 28.11 72.49 C26 74 26 74 23.91 73.95 C20.69 72.35 19.54 70.12 17.93 66.99 C14.99 57.52 17.51 47.39 21.94 38.84 C22.29 38.24 22.64 37.63 23 37 C22.42 36.81 21.84 36.61 21.24 36.41 C16.83 34.94 12.41 33.47 8 32 C6.7 33.41 5.41 34.83 4.12 36.25 C3.41 37.04 2.69 37.83 1.95 38.64 C0.22 40.73 -0.81 42.6 -2 45 C-4 45.69 -4 45.69 -6 46 C-6.99 46.5 -6.99 46.5 -8 47 C-6.4 41.21 -3.58 37.82 0.32 33.37 C2.39 30.94 2.39 30.94 2 27 C0.69 25.31 -0.64 23.65 -2 22 C-4.01 16.01 -4.01 8.61 -1.5 2.81 C-1 1.88 -0.51 0.96 0 0 Z " fill="#030312" transform="translate(77,41)"/>
<path d="M0 0 C4.48 -0.12 8.96 -0.19 13.44 -0.25 C14.7 -0.28 15.96 -0.32 17.26 -0.35 C24.61 -0.43 30.73 -0.13 37 4 C40.3 7.38 41.27 10.14 41.56 14.75 C41.28 20.59 39.5 25.32 36 30 C30.2 35.01 25.25 37.13 17.58 37.1 C16.33 37.09 15.07 37.09 13.78 37.09 C12.47 37.08 11.16 37.07 9.81 37.06 C8.48 37.06 7.14 37.05 5.81 37.05 C2.54 37.04 -0.73 37.02 -4 37 C-3.38 28.39 -1.99 20.09 -0.29 11.63 C-0.11 10.7 0.07 9.77 0.26 8.82 C0.42 7.99 0.59 7.15 0.76 6.3 C1.01 3.91 0.73 2.27 0 0 Z " fill="#C0851C" transform="translate(40,105)"/>
<path d="M0 0 C2.35 4.96 1.73 7.97 0.48 13.05 C-0.09 16.54 0.19 19.66 0.44 23.19 C0.57 30.53 -1.49 34.47 -5.43 40.36 C-11.02 48.76 -13.77 57.98 -15 68 C-23.78 69.01 -30.1 65.16 -37.32 60.5 C-40.69 57.77 -41.87 56.03 -42.42 51.66 C-42.44 48.41 -42.31 45.24 -42 42 C-40.06 42.81 -40.06 42.81 -38 44 C-37.67 44.99 -37.34 45.98 -37 47 C-35.69 47.71 -34.35 48.36 -33 49 C-31.17 50.29 -29.37 51.63 -27.59 52.98 C-26.03 54.18 -26.03 54.18 -24 54 C-24.6 53.17 -25.21 52.33 -25.83 51.47 C-37.48 35.16 -37.48 35.16 -36.68 29.86 C-35.86 27.61 -34.87 26.49 -33 25 C-32.34 25 -31.68 25 -31 25 C-29.94 26.63 -28.96 28.31 -28 30 C-24.04 36.45 -18.83 41.59 -12 45 C-12.53 44.19 -13.06 43.38 -13.61 42.54 C-24.91 24.84 -24.91 24.84 -24 16 C-21.62 13.19 -21.62 13.19 -19 11 C-18.34 11 -17.68 11 -17 11 C-16.71 11.86 -16.42 12.71 -16.12 13.6 C-15.71 14.74 -15.3 15.88 -14.88 17.06 C-14.48 18.19 -14.09 19.31 -13.68 20.47 C-11.7 24.64 -9.14 27.66 -6 31 C-6.29 29.81 -6.58 28.61 -6.88 27.38 C-7.25 25.77 -7.63 24.17 -8 22.56 C-8.29 21.39 -8.29 21.39 -8.58 20.19 C-9.85 14.67 -10.18 9.67 -10 4 C-3.38 0 -3.38 0 0 0 Z " fill="#B67D1C" transform="translate(75,32)"/>
<path d="M0 0 C5.66 0.84 9.7 4.56 13.38 8.81 C15.83 10.89 18.1 11.6 21.3 11.87 C24.76 11.26 26.34 8.92 28.58 6.36 C31.31 3.53 34.6 1.62 38.38 0.5 C41.38 1.5 41.38 1.5 42.59 3.25 C43.53 5.95 43.18 7.73 42.88 10.56 C42.88 13.59 42.88 13.59 44.38 16.5 C47.8 19.42 51.7 21.53 55.67 23.62 C60.76 26.31 63.73 28.31 66.38 33.5 C66.38 34.16 66.38 34.82 66.38 35.5 C66.92 35.66 67.47 35.83 68.03 36 C73.78 37.81 78.96 40.14 84.25 43 C85 43.39 85.74 43.78 86.51 44.18 C93.05 47.68 93.05 47.68 95.38 50.5 C95.94 54.79 95.68 56.95 93.56 60.75 C91.38 63.5 91.38 63.5 89.76 64.91 C87.97 66.96 88.01 68.06 88 70.76 C87.98 72.05 87.98 72.05 87.96 73.37 C87.95 74.3 87.94 75.23 87.94 76.19 C87.72 84.8 86.87 93.13 85.44 101.62 C85.18 103.16 85.18 103.16 84.92 104.73 C84.17 109.01 83.49 112.66 81.38 116.5 C80.72 116.17 80.06 115.84 79.38 115.5 C79.21 109.56 79.82 104.15 80.88 98.31 C82.2 90.6 82.75 83.34 82.38 75.5 C81.77 75.83 81.17 76.15 80.55 76.49 C78 77.67 76.15 77.65 73.38 77.5 C75.12 75.66 76.81 74.18 78.88 72.69 C81.55 70.63 81.55 70.63 82.88 67.5 C84.57 64.11 86.41 62.78 89.38 60.5 C91.46 57.42 91.44 55.15 91.38 51.5 C89.8 50.65 88.23 49.81 86.65 48.96 C85.29 48.23 83.93 47.5 82.57 46.77 C77.5 44.04 72.35 41.59 67.06 39.31 C64.38 37.5 63.39 36.22 61.62 33.6 C58.24 28.83 54.29 27.19 49.06 24.88 C41.15 21.02 41.15 21.02 39.45 17.69 C38.46 13.6 38.75 9.62 39.38 5.5 C36.09 5.81 34.68 6.2 32.3 8.57 C31.63 9.39 30.95 10.21 30.25 11.06 C26.93 14.49 24.76 16.25 19.94 16.62 C13.89 16.16 10.74 12.88 6.76 8.57 C3.94 6.13 2.04 5.79 -1.62 5.5 C-4.94 9.01 -4.79 11.54 -4.81 16.25 C-5.56 22.55 -5.56 22.55 -8.12 24.83 C-12.06 27.3 -16.35 28.99 -20.67 30.7 C-29.41 34.28 -37.42 40.51 -44.62 46.5 C-45.68 47.28 -45.68 47.28 -46.75 48.08 C-50.2 50.96 -52.32 53.1 -53.29 57.57 C-53.49 61.2 -53.42 64.74 -53.25 68.38 C-53.22 69.67 -53.18 70.96 -53.15 72.29 C-53.03 76.03 -52.85 79.76 -52.62 83.5 C-52.57 84.44 -52.51 85.38 -52.46 86.35 C-51.68 97.83 -49.09 108.66 -46.01 119.71 C-45.38 122.63 -45.57 125.53 -45.62 128.5 C-46.28 128.83 -46.95 129.16 -47.62 129.5 C-54.37 108.98 -57.71 89.04 -58.19 67.44 C-58.26 65.56 -58.26 65.56 -58.34 63.65 C-58.4 57.8 -58.39 53.56 -54.5 48.97 C-53.25 47.78 -51.95 46.62 -50.62 45.5 C-50.07 45 -49.52 44.5 -48.95 43.99 C-47.34 42.6 -45.69 41.29 -44 40 C-43.4 39.54 -42.8 39.07 -42.18 38.59 C-34.3 32.61 -26.16 27.55 -17 23.75 C-13.46 22.06 -11.98 21.29 -10.35 17.67 C-9.87 15.58 -9.46 13.47 -9.13 11.35 C-8.25 6.36 -5.27 1 0 0 Z " fill="#B87F1D" transform="translate(79.625,1.5)"/>
<path d="M0 0 C2.97 0 5.94 0 9 0 C9.5 1.49 9.5 1.49 10 3 C10.56 2.26 10.56 2.26 11.12 1.5 C13.75 -0.6 15.74 -0.22 19 0 C19 0.99 19 1.98 19 3 C17.35 3 15.7 3 14 3 C14 3.66 14 4.32 14 5 C15.32 5 16.64 5 18 5 C17.89 6.46 17.76 7.92 17.62 9.38 C17.56 10.19 17.49 11 17.41 11.84 C17 14 17 14 15 16 C13.12 16.13 13.12 16.13 10.88 16.12 C5.62 16.61 3.58 18.89 0.14 22.7 C-7.19 30.59 -16.52 36.78 -25.38 42.85 C-26.86 43.9 -28.28 45.04 -29.69 46.18 C-32.17 48.03 -34 49.24 -37 50 C-41.64 49.01 -45.12 46.66 -49 44 C-49.59 43.6 -50.18 43.2 -50.79 42.79 C-61.22 35.63 -72.64 27.56 -81 18 C-81 17.01 -81 16.02 -81 15 C-76.08 15.42 -74.26 17.43 -71 21 C-66.01 26.42 -60.62 30.61 -54.5 34.69 C-53.68 35.24 -52.87 35.8 -52.03 36.37 C-49.7 37.94 -47.36 39.47 -45 41 C-44.34 41.45 -43.67 41.89 -42.99 42.35 C-40.99 43.68 -40.99 43.68 -38 45 C-35.79 44.57 -35.79 44.57 -34 43 C-33.19 42.52 -32.39 42.05 -31.55 41.55 C-24.99 37.44 -18.94 32.97 -13 28 C-12.44 27.54 -11.89 27.08 -11.31 26.6 C-9.52 25.12 -7.73 23.62 -5.94 22.12 C-5.36 21.65 -4.79 21.17 -4.2 20.68 C-1.17 18.2 -1.17 18.2 1 15 C1.99 14.67 2.98 14.34 4 14 C4 13.34 4 12.68 4 12 C3.01 12 2.02 12 1 12 C1.33 9.03 1.66 6.06 2 3 C1.01 3 0.02 3 -1 3 C-0.67 2.01 -0.34 1.02 0 0 Z " fill="#BC811D" transform="translate(135,147)"/>
<path d="M0 0 C2.44 -0.03 4.87 -0.05 7.31 -0.06 C8 -0.07 8.69 -0.08 9.4 -0.09 C12.55 -0.1 14.99 -0 18 1 C19.74 4.48 19.45 8.2 19 12 C17.27 15.65 16.04 17.43 12.5 19.38 C7.33 20.3 2.23 20.15 -3 20 C-2.45 13.21 -1.46 6.65 0 0 Z " fill="#060512" transform="translate(51,114)"/>
<path d="M0 0 C3.69 1.23 4.72 2.94 7 6 C5.46 9.4 3.45 12.16 1.19 15.12 C-3.8 21.9 -7.65 28.89 -10 37 C-11.32 37 -12.64 37 -14 37 C-14.55 22.99 -7.38 11.34 0 0 Z " fill="#021438" transform="translate(74,63)"/>
<path d="M0 0 C2.97 0 5.94 0 9 0 C9.33 0.99 9.66 1.98 10 3 C10.37 2.5 10.74 2.01 11.12 1.5 C13.75 -0.6 15.74 -0.22 19 0 C19 0.99 19 1.98 19 3 C17.35 3 15.7 3 14 3 C14 3.66 14 4.32 14 5 C15.32 5 16.64 5 18 5 C17.89 6.46 17.76 7.92 17.62 9.38 C17.56 10.19 17.49 11 17.41 11.84 C17 14 17 14 15 16 C12.84 16.2 12.84 16.2 10.38 16.12 C9.56 16.11 8.74 16.09 7.9 16.07 C7.27 16.05 6.65 16.02 6 16 C6 15.34 6 14.68 6 14 C5.34 14 4.68 14 4 14 C4 13.34 4 12.68 4 12 C3.01 12 2.02 12 1 12 C1.33 9.03 1.66 6.06 2 3 C1.01 3 0.02 3 -1 3 C-0.67 2.01 -0.34 1.02 0 0 Z " fill="#13131A" transform="translate(135,147)"/>
<path d="M0 0 C6.17 2.51 9.48 7.24 12.22 13.06 C13.14 15.35 13.69 17.56 14 20 C15.65 19.67 17.3 19.34 19 19 C18.67 20.65 18.34 22.3 18 24 C20.31 24 22.62 24 25 24 C25.33 22.35 25.66 20.7 26 19 C26.99 18.67 27.98 18.34 29 18 C28.65 20.61 28.3 22.55 26.81 24.75 C24.32 26.47 21.97 26.62 19 27 C18.34 27.33 17.68 27.66 17 28 C11.88 24.5 8.09 21.41 5 16 C5.99 16 6.98 16 8 16 C7.42 15.01 6.84 14.03 6.25 13.01 C5.5 11.71 4.75 10.42 4 9.12 C3.62 8.47 3.24 7.82 2.84 7.15 C0 2.23 0 2.23 0 0 Z " fill="#150F13" transform="translate(116,65)"/>
<path d="M0 0 C4.77 3.39 4.77 3.39 6 6.62 C6.78 9.23 6.78 9.23 9.44 10.12 C10.28 10.41 11.13 10.7 12 11 C13.81 12.62 13.81 12.62 15 14 C14.03 13.76 14.03 13.76 13.03 13.52 C10.59 13.1 8.43 12.91 5.97 12.86 C5.24 12.84 4.51 12.82 3.76 12.8 C2.25 12.77 0.75 12.75 -0.76 12.75 C-4.95 12.61 -6.54 12.38 -9.89 9.6 C-10.58 8.74 -11.28 7.88 -12 7 C-12.76 6.24 -13.53 5.47 -14.31 4.69 C-14.87 4.13 -15.43 3.57 -16 3 C-9.2 2.62 -4.24 3.23 2 6 C1.34 4.02 0.68 2.04 0 0 Z " fill="#1B1618" transform="translate(127,33)"/>
<path d="M0 0 C0.66 0 1.32 0 2 0 C1.57 0.86 1.57 0.86 1.13 1.73 C0.41 3.19 -0.31 4.65 -1.01 6.11 C-4.07 12.13 -7.79 15.8 -13 20 C-14.35 21.32 -15.69 22.64 -17 24 C-18.65 21.36 -20.3 18.72 -22 16 C-21.29 15.6 -20.58 15.2 -19.84 14.78 C-16.83 12.89 -14.22 10.79 -11.5 8.5 C-8.12 5.66 -4.82 3.21 -1 1 C-0.67 0.67 -0.34 0.34 0 0 Z " fill="#B47B1C" transform="translate(122,99)"/>
<path d="M0 0 C4.26 0.51 6.34 1.75 9.38 4.75 C10.44 5.76 10.44 5.76 11.52 6.8 C13 9 13 9 12.73 11.77 C12.37 12.87 12.37 12.87 12 14 C7 9 7 9 5.31 7.19 C4.05 5.78 4.05 5.78 2 6 C1.48 14.49 1.48 14.49 5 22 C4.67 22.99 4.34 23.98 4 25 C3.34 25 2.68 25 2 25 C-2.12 17.88 -2.97 11.16 -2 3 C-1.34 2.01 -0.68 1.02 0 0 Z " fill="#A86F1B" transform="translate(78,10)"/>
<path d="M0 0 C4.01 0.6 6.55 2.67 9.75 5.06 C10.73 5.8 11.72 6.53 12.73 7.29 C13.48 7.85 14.23 8.42 15 9 C14.67 9.66 14.34 10.32 14 11 C10.04 9.02 6.08 7.04 2 5 C0.63 6.14 0.63 6.14 0.9 9.16 C0.91 10.45 0.93 11.74 0.94 13.06 C0.95 14.35 0.96 15.64 0.96 16.97 C0.98 17.97 0.99 18.97 1 20 C0.01 20 -0.98 20 -2 20 C-4.02 15.84 -4.47 12.61 -4 8 C-2.87 5.21 -1.51 2.6 0 0 Z " fill="#9F6B19" transform="translate(102,82)"/>
<path d="M0 0 C1.91 0.23 1.91 0.23 3.91 2.23 C3.71 4.89 3.2 6.74 1.85 9.04 C-1.34 10.99 -4.41 10.41 -8.09 10.23 C-7.95 8.75 -7.8 7.27 -7.65 5.79 C-7.57 4.97 -7.49 4.15 -7.41 3.3 C-6.74 -1.05 -3.83 0.08 0 0 Z " fill="#001132" transform="translate(62.08984375,117.76953125)"/>
<path d="M0 0 C3.38 -0.12 3.38 -0.12 7 0 C7.66 0.66 8.32 1.32 9 2 C8.69 4.31 8.69 4.31 8 7 C7.81 7.93 7.63 8.86 7.44 9.81 C7.29 10.53 7.15 11.26 7 12 C6.01 12 5.02 12 4 12 C3.67 11.34 3.34 10.68 3 10 C2.67 10.66 2.34 11.32 2 12 C1.01 12 0.02 12 -1 12 C-1.03 10.38 -1.05 8.75 -1.06 7.12 C-1.07 6.22 -1.09 5.32 -1.1 4.38 C-1 2 -1 2 0 0 Z " fill="#BCAB82" transform="translate(123,147)"/>
<path d="M0 0 C2.33 -0.04 4.67 -0.04 7 0 C8 1 8 1 8.19 3.94 C8 7 8 7 6 9 C4.68 9 3.36 9 2 9 C2 9.99 2 10.98 2 12 C1.01 12 0.02 12 -1 12 C-1.03 10.38 -1.05 8.75 -1.06 7.12 C-1.07 6.22 -1.09 5.32 -1.1 4.38 C-1 2 -1 2 0 0 Z " fill="#C5B387" transform="translate(98,147)"/>
<path d="M0 0 C2.05 0.03 4.1 0.07 6.15 0.1 C6.15 1.09 6.15 2.08 6.15 3.1 C4.17 3.1 2.19 3.1 0.15 3.1 C0.15 3.76 0.15 4.42 0.15 5.1 C1.8 5.1 3.45 5.1 5.15 5.1 C4.82 7.41 4.49 9.72 4.15 12.1 C1.51 12.1 -1.13 12.1 -3.85 12.1 C-3.71 10.28 -3.56 8.47 -3.41 6.66 C-3.33 5.65 -3.25 4.64 -3.16 3.6 C-2.73 0.14 -2.73 0.14 0 0 Z " fill="#AFA17B" transform="translate(77.84765625,146.90234375)"/>
<path d="M0 0 C3.56 0.61 6.68 1.58 10 3 C9.67 4.32 9.34 5.64 9 7 C8.67 6.34 8.34 5.68 8 5 C4.97 4.34 4.97 4.34 2 4 C0.6 7.74 1.44 9.93 2.88 13.56 C3.24 14.51 3.61 15.46 3.99 16.44 C4.32 17.29 4.66 18.13 5 19 C5.33 19.99 5.66 20.98 6 22 C1.77 20.25 0.67 18.2 -1.17 14.16 C-2.37 11.03 -2.94 8.35 -3 5 C-1.56 2.06 -1.56 2.06 0 0 Z " fill="#A7751B" transform="translate(133,62)"/>
<path d="M0 0 C6.19 2.52 9.43 7.32 12.4 13.04 C13.12 15.4 12.79 16.7 12 19 C0 6.42 0 6.42 0 0 Z " fill="#A46C1A" transform="translate(116,65)"/>
<path d="M0 0 C0.66 0 1.32 0 2 0 C3.29 1.46 3.29 1.46 4.62 3.38 C5.07 4 5.52 4.63 5.98 5.27 C7 7 7 7 7 9 C2.05 9 -2.9 9 -8 9 C-2.25 2.25 -2.25 2.25 0 0 Z " fill="#001131" transform="translate(96,137)"/>
<path d="M0 0 C1.67 0.06 1.67 0.06 3.38 0.12 C3.38 1.12 3.38 2.1 3.38 3.12 C1.39 3.12 -0.58 3.12 -2.62 3.12 C-2.62 3.78 -2.62 4.44 -2.62 5.12 C-0.97 5.46 0.67 5.78 2.38 6.12 C1.5 11 1.5 11 0.38 12.12 C-1.96 12.17 -4.29 12.17 -6.62 12.12 C-6.62 11.47 -6.62 10.81 -6.62 10.12 C-4.97 9.79 -3.33 9.47 -1.62 9.12 C-2.94 8.47 -4.27 7.81 -5.62 7.12 C-5.75 4.75 -5.75 4.75 -5.62 2.12 C-3.62 0.12 -3.62 0.12 0 0 Z " fill="#C0AF84" transform="translate(91.625,146.875)"/>
<path d="M0 0 C0.95 0.04 1.9 0.08 2.88 0.12 C2.88 1.12 2.88 2.1 2.88 3.12 C1.22 3.12 -0.43 3.12 -2.12 3.12 C-2.12 3.78 -2.12 4.44 -2.12 5.12 C-0.81 5.12 0.51 5.12 1.88 5.12 C1.92 7.12 1.92 9.13 1.88 11.12 C0.88 12.12 0.88 12.12 -2.69 12.19 C-3.82 12.17 -4.96 12.15 -6.12 12.12 C-6.12 11.47 -6.12 10.81 -6.12 10.12 C-4.47 10.12 -2.82 10.12 -1.12 10.12 C-1.12 9.47 -1.12 8.81 -1.12 8.12 C-2.78 7.79 -4.43 7.47 -6.12 7.12 C-5.03 0.2 -5.03 0.2 0 0 Z " fill="#B7A77F" transform="translate(151.125,146.875)"/>
<path d="M0 0 C2.34 0.29 4.67 0.62 7 1 C6.4 4.68 5.75 8.35 5 12 C2.69 10.02 0.38 8.04 -2 6 C-1.12 1.12 -1.12 1.12 0 0 Z " fill="#00163B" transform="translate(123,60)"/>
<path d="M0 0 C0 2.64 0 5.28 0 8 C-0.33 8 -0.66 8 -1 8 C-1 6.35 -1 4.7 -1 3 C-2.32 3.33 -3.64 3.66 -5 4 C-5.33 5.98 -5.66 7.96 -6 10 C-4.35 10 -2.7 10 -1 10 C-1 10.66 -1 11.32 -1 12 C-3.64 12 -6.28 12 -9 12 C-9.08 10.56 -9.14 9.13 -9.19 7.69 C-9.22 6.89 -9.26 6.09 -9.29 5.26 C-9 3 -9 3 -7.69 1.22 C-5.18 -0.59 -3 -0.2 0 0 Z " fill="#CDB98C" transform="translate(118,147)"/>
<path d="M0 0 C2.96 3.36 3.92 6.69 5 11 C1.7 11 -1.6 11 -5 11 C-3.77 6.95 -2.3 3.56 0 0 Z " fill="#0C0D14" transform="translate(141,115)"/>
<path d="M0 0 C1.6 -0.03 3.21 -0.05 4.81 -0.06 C5.71 -0.07 6.6 -0.09 7.52 -0.1 C10 0 10 0 13 1 C13 1.66 13 2.32 13 3 C11.68 3 10.36 3 9 3 C10.71 5.78 11.48 6.85 14.69 7.75 C15.45 7.83 16.21 7.91 17 8 C17 8.33 17 8.66 17 9 C9.75 9.61 9.75 9.61 6.25 6.75 C5.51 5.84 4.77 4.94 4 4 C3.24 3.24 2.47 2.47 1.69 1.69 C1.13 1.13 0.57 0.57 0 0 Z " fill="#0A0810" transform="translate(111,36)"/>
<path d="M0 0 C2.97 0 5.94 0 9 0 C9 0.99 9 1.98 9 3 C7.68 3 6.36 3 5 3 C4.67 5.97 4.34 8.94 4 12 C3.01 12 2.02 12 1 12 C1.33 9.03 1.66 6.06 2 3 C1.01 3 0.02 3 -1 3 C-0.67 2.01 -0.34 1.02 0 0 Z " fill="#BFAE84" transform="translate(135,147)"/>
<path d="M0 0 C2.26 0.15 2.26 0.15 5 1 C7.02 3.5 7.02 3.5 8.81 6.56 C9.42 7.57 10.02 8.59 10.64 9.63 C11.09 10.41 11.54 11.19 12 12 C11.01 12.66 10.02 13.32 9 14 C7.49 12.05 6 10.09 4.5 8.12 C4.07 7.57 3.64 7.01 3.2 6.44 C0 2.23 0 2.23 0 0 Z " fill="#B67B1E" transform="translate(41,146)"/>
<path d="M0 0 C0.66 0 1.32 0 2 0 C1.65 2.59 1.26 4.58 -0.12 6.81 C-3.12 8.71 -5.55 8.36 -9 8 C-11.44 6.62 -11.44 6.62 -13 5 C-13 4.34 -13 3.68 -13 3 C-11.35 2.34 -9.7 1.68 -8 1 C-8.33 2.65 -8.66 4.3 -9 6 C-6.69 6 -4.38 6 -2 6 C-1.86 5.2 -1.71 4.39 -1.56 3.56 C-1 1 -1 1 0 0 Z " fill="#C2B287" transform="translate(143,83)"/>
<path d="M0 0 C1.5 1.37 1.5 1.37 3 3 C3 3.66 3 4.32 3 5 C3.64 5.27 4.28 5.54 4.94 5.81 C7 7 7 7 8 10 C6.71 11.01 5.42 12 4.12 13 C3.05 13.84 3.05 13.84 1.95 14.69 C0 16 0 16 -2 16 C-0.98 13.96 0.01 11.98 1.25 10.06 C2.31 7.15 1.27 5.74 0 3 C0 2.01 0 1.02 0 0 Z " fill="#051337" transform="translate(83,24)"/>
<path d="M0 0 C0.33 0 0.66 0 1 0 C1.2 6.05 1.2 6.05 1 8 C0.34 8.66 -0.32 9.32 -1 10 C-3.62 9.62 -3.62 9.62 -6 9 C-6 7.02 -6 5.04 -6 3 C-5.2 2.88 -4.39 2.75 -3.56 2.62 C-2.72 2.42 -1.87 2.21 -1 2 C-0.67 1.34 -0.34 0.68 0 0 Z " fill="#AC9E77" transform="translate(118,148)"/>
<path d="M0 0 C0.33 0.99 0.66 1.98 1 3 C1.99 3.33 2.98 3.66 4 4 C3.17 4.52 2.35 5.03 1.5 5.56 C-2.66 8.32 -6.3 11.66 -10 15 C-10.66 14.67 -11.32 14.34 -12 14 C-11.22 13.16 -10.44 12.31 -9.63 11.45 C-8.61 10.34 -7.58 9.23 -6.56 8.12 C-6.05 7.57 -5.53 7.01 -5 6.44 C-2.18 3.45 -2.18 3.45 0 0 Z " fill="#B8A982" transform="translate(70,143)"/>
<path d="M0 0 C2.31 0.33 4.62 0.66 7 1 C7 2.98 7 4.96 7 7 C6.01 7 5.02 7 4 7 C3.67 6.34 3.34 5.68 3 5 C2.67 5.66 2.34 6.32 2 7 C1.01 7 0.02 7 -1 7 C-0.67 4.69 -0.34 2.38 0 0 Z " fill="#BDAD83" transform="translate(123,152)"/>
<path d="M0 0 C0.99 0.33 1.98 0.66 3 1 C3 1.66 3 2.32 3 3 C3.76 3.27 4.53 3.54 5.31 3.81 C7.91 4.96 9.1 5.97 11 8 C9.58 7.72 8.17 7.42 6.75 7.12 C5.96 6.96 5.17 6.8 4.36 6.63 C2.03 6.01 0.11 5.15 -2 4 C-1.34 2.68 -0.68 1.36 0 0 Z " fill="#110C12" transform="translate(131,39)"/>
<path d="M0 0 C3.56 0.61 6.68 1.58 10 3 C9.67 4.32 9.34 5.64 9 7 C8.67 6.34 8.34 5.68 8 5 C4.44 4.15 2.51 3.83 -1 5 C-0.67 3.35 -0.34 1.7 0 0 Z " fill="#C1AF81" transform="translate(133,62)"/>
<path d="M0 0 C1.98 0 3.96 0 6 0 C6.04 1.67 6.04 3.33 6 5 C5 6 5 6 1.44 6.06 C0.3 6.04 -0.83 6.02 -2 6 C-2 5.34 -2 4.68 -2 4 C-0.35 4 1.3 4 3 4 C3 3.01 3 2.02 3 1 C2.01 0.67 1.02 0.34 0 0 Z " fill="#D8C393" transform="translate(147,153)"/>
<path d="M0 0 C1.65 0 3.3 0 5 0 C3.56 3.37 1.67 5.51 -1 8 C-1.66 7.67 -2.32 7.34 -3 7 C-2.01 4.69 -1.02 2.38 0 0 Z " fill="#B8A981" transform="translate(146,68)"/>
<path d="M0 0 C2.31 0 4.62 0 7 0 C7.07 0.96 7.07 0.96 7.15 1.93 C7.22 2.76 7.3 3.59 7.38 4.44 C7.44 5.26 7.51 6.08 7.59 6.93 C7.72 7.62 7.86 8.3 8 9 C8.66 9.33 9.32 9.66 10 10 C9.01 10 8.02 10 7 10 C6.67 7.69 6.34 5.38 6 3 C3.03 2.5 3.03 2.5 0 2 C0 1.34 0 0.68 0 0 Z " fill="#1E1E1F" transform="translate(89,150)"/>
<path d="M0 0 C1 4 1 4 0 5.7 C-1.33 7.14 -2.67 8.57 -4 10 C-4.99 9.67 -5.98 9.34 -7 9 C-4.69 6.03 -2.38 3.06 0 0 Z " fill="#976319" transform="translate(145,91)"/>
<path d="M0 0 C-0.66 1.32 -1.32 2.64 -2 4 C-4.97 4 -7.94 4 -11 4 C-9.68 3.67 -8.36 3.34 -7 3 C-7 2.34 -7 1.68 -7 1 C-2.25 0 -2.25 0 0 0 Z " fill="#01010B" transform="translate(152,159)"/>
<path d="M0 0 C0.66 0 1.32 0 2 0 C0.85 2.47 -0.05 4.05 -2 6 C-3.88 6.56 -3.88 6.56 -6 7 C-7.11 7.28 -7.11 7.28 -8.25 7.56 C-8.83 7.71 -9.41 7.85 -10 8 C-7.24 5.03 -4.52 3 -1 1 C-0.67 0.67 -0.34 0.34 0 0 Z " fill="#906318" transform="translate(122,99)"/>
<path d="M0 0 C2.31 0 4.62 0 7 0 C7.33 0.66 7.66 1.32 8 2 C7.01 2.5 7.01 2.5 6 3 C5.67 3.99 5.34 4.98 5 6 C4.01 6 3.02 6 2 6 C2 4.68 2 3.36 2 2 C1.34 1.34 0.68 0.68 0 0 Z " fill="#7B7257" transform="translate(98,147)"/>
<path d="M0 0 C0.33 0.66 0.66 1.32 1 2 C1.66 2.33 2.32 2.66 3 3 C0.03 5.47 0.03 5.47 -3 8 C-3 4.72 -2.37 2.37 0 0 Z " fill="#9E9271" transform="translate(86,135)"/>
<path d="M0 0 C0.99 0 1.98 0 3 0 C2.67 1.98 2.34 3.96 2 6 C1.01 6 0.02 6 -1 6 C-1.04 4.33 -1.04 2.67 -1 1 C-0.67 0.67 -0.34 0.34 0 0 Z " fill="#06060B" transform="translate(113,150)"/>
<path d="M0 0 C4.75 0.88 4.75 0.88 7 2 C7 2.66 7 3.32 7 4 C5.35 4 3.7 4 2 4 C1.34 2.68 0.68 1.36 0 0 Z " fill="#C5B488" transform="translate(120,39)"/>
<path d="M0 0 C1.98 0 3.96 0 6 0 C4.02 0.99 4.02 0.99 2 2 C2.66 3.32 3.32 4.64 4 6 C1.56 5.62 1.56 5.62 -1 5 C-1.33 4.34 -1.66 3.68 -2 3 C-1.34 3 -0.68 3 0 3 C0 2.01 0 1.02 0 0 Z " fill="#2B1D13" transform="translate(100,21)"/>
<path d="M0 0 C0.33 1.32 0.66 2.64 1 4 C-1.67 5.33 -3.17 4.67 -6 4 C-6 3.01 -6 2.02 -6 1 C-4.68 1 -3.36 1 -2 1 C-2 1.66 -2 2.32 -2 3 C-1.34 3 -0.68 3 0 3 C0 2.01 0 1.02 0 0 Z " fill="#756D53" transform="translate(131,149)"/>
<path d="M0 0 C-0.33 0.99 -0.66 1.98 -1 3 C-3.31 3 -5.62 3 -8 3 C-8 2.34 -8 1.68 -8 1 C-5.24 0.4 -2.84 0 0 0 Z " fill="#D7C393" transform="translate(93,156)"/>
<path d="M0 0 C2.31 0.33 4.62 0.66 7 1 C3.25 3 3.25 3 1 3 C1 4.32 1 5.64 1 7 C0.34 7 -0.32 7 -1 7 C-0.67 4.69 -0.34 2.38 0 0 Z " fill="#E2CC9A" transform="translate(123,152)"/>
<path d="M0 0 C0.33 0.66 0.66 1.32 1 2 C2.65 2 4.3 2 6 2 C6 2.66 6 3.32 6 4 C3.69 4 1.38 4 -1 4 C-0.67 2.68 -0.34 1.36 0 0 Z " fill="#DCC897" transform="translate(76,155)"/>
</svg>
