<?xml version="1.0" encoding="UTF-8"?>
<!-- Generator: https://ezgif.com/png-to-svg -->
<svg version="1.1" xmlns="http://www.w3.org/2000/svg" width="512" height="512" viewBox="-5.907 -6.002 112.045 112.045" preserveAspectRatio="xMidYMid meet">
<path d="M0 0 C3.34 1.67 3.99 5.44 5.3 8.77 C5.78 9.96 5.78 9.96 6.27 11.17 C7.29 13.71 8.3 16.26 9.31 18.81 C10.31 21.32 11.32 23.82 12.32 26.32 C12.97 27.95 13.62 29.57 14.27 31.2 C15.67 34.74 17.09 38.26 18.63 41.74 C19.1 42.8 19.56 43.86 20.04 44.95 C20.45 45.84 20.86 46.74 21.27 47.66 C22.11 50.36 22.23 51.45 21 54 C18.99 55.66 18.99 55.66 16.37 57.28 C15.42 57.87 14.46 58.47 13.48 59.08 C12.48 59.7 11.47 60.31 10.44 60.94 C9.46 61.55 8.48 62.15 7.47 62.78 C5.55 63.97 3.62 65.16 1.68 66.34 C-0 67.38 -1.66 68.46 -3.29 69.59 C-8.22 72.99 -8.22 72.99 -12.13 73.04 C-15.39 71.86 -18 70.37 -20.88 68.44 C-21.84 67.8 -22.81 67.16 -23.8 66.5 C-24.53 66 -25.25 65.51 -26 65 C-25.34 60.94 -24.05 57.46 -22.44 53.69 C-21.75 52.08 -21.75 52.08 -21.06 50.45 C-20.53 49.24 -20.53 49.24 -20 48 C-17.49 48.57 -15.59 49.21 -13.25 50.38 C-9.44 51.11 -8.89 50.65 -5.75 48.62 C-5.08 48.14 -4.42 47.66 -3.73 47.16 C-2 46 -2 46 0 46 C-0.28 45.4 -0.56 44.8 -0.84 44.18 C-2.1 41.44 -3.33 38.69 -4.56 35.94 C-5.22 34.52 -5.22 34.52 -5.89 33.08 C-9.18 25.65 -9.29 21.24 -6.41 13.63 C-5.78 12.13 -5.14 10.62 -4.5 9.12 C-4.18 8.35 -3.86 7.58 -3.53 6.79 C-1.16 1.16 -1.16 1.16 0 0 Z " fill="#E6532B" transform="translate(61,27)"/>
<path d="M0 0 C0.66 0 1.32 0 2 0 C3.61 3.29 5.15 6.61 6.69 9.94 C7.14 10.86 7.6 11.79 8.06 12.74 C8.48 13.66 8.9 14.58 9.32 15.53 C9.91 16.78 9.91 16.78 10.51 18.05 C11.25 22.54 9.67 25.85 8 30 C7.66 30.86 7.32 31.73 6.98 32.62 C5.83 35.5 4.66 38.38 3.47 41.25 C3.04 42.3 2.61 43.35 2.17 44.43 C0.8 47.77 -0.57 51.1 -1.94 54.44 C-3.3 57.77 -4.67 61.1 -6.03 64.43 C-6.88 66.5 -7.73 68.56 -8.57 70.63 C-11.08 76.74 -13.56 82.86 -16 89 C-22.26 87.52 -26.92 83.76 -32 80 C-29.62 70.82 -25.88 62.21 -22.19 53.5 C-21.19 51.12 -20.19 48.74 -19.19 46.36 C-18.5 44.73 -17.82 43.09 -17.13 41.46 C-13.39 32.58 -9.73 23.66 -6.06 14.75 C-5.45 13.25 -4.83 11.76 -4.22 10.26 C-2.81 6.84 -1.41 3.42 0 0 Z " fill="#E3512A" transform="translate(49,0)"/>
<path d="M0 0 C0.66 0 1.32 0 2 0 C3.01 2.27 4.01 4.54 5 6.81 C5.29 7.46 5.57 8.1 5.87 8.76 C7.14 11.68 8 13.78 8 17 C5.36 19.11 3.85 20.06 0.44 19.81 C-1.85 19.05 -3.86 18.1 -6 17 C-4.13 11.28 -2.15 5.62 0 0 Z " fill="#A83321" transform="translate(49,55)"/>
</svg>
