<?xml version="1.0" encoding="UTF-8"?>
<!-- Generator: https://ezgif.com/webp-to-svg -->
<svg version="1.1" xmlns="http://www.w3.org/2000/svg" width="100" height="83">
<path d="M0 0 C3.97 2.36 7.62 5.04 10.64 8.57 C10.64 9.23 10.64 9.89 10.64 10.57 C12.56 10.54 12.56 10.54 14.52 10.51 C18.39 10.45 18.39 10.45 20.64 11.57 C20.64 12.56 20.64 13.55 20.64 14.57 C21.28 14.76 21.92 14.94 22.58 15.13 C24.64 16.57 24.64 16.57 25.64 19.95 C25.64 23.57 25.64 23.57 23.83 25.95 C21.64 27.57 21.64 27.57 19.64 28.57 C19.29 30.71 19.04 32.86 18.83 35.01 C18 41.5 16.48 48.73 11.64 53.57 C18.24 53.9 24.84 54.23 31.64 54.57 C29.64 59.57 29.64 59.57 28.08 62.07 C25.54 66.48 25.49 69.37 26.63 74.24 C26.82 75.05 27 75.86 27.2 76.7 C27.34 77.32 27.49 77.93 27.64 78.57 C26.94 78.5 26.23 78.44 25.5 78.37 C22.26 78.07 19.01 77.79 15.77 77.51 C14.66 77.4 13.55 77.3 12.41 77.19 C4.63 76.53 -3 76.09 -10.48 78.63 C-16.03 80.44 -20.41 80 -25.73 78.01 C-32.76 75.7 -39.89 76.74 -47.14 77.38 C-49.23 77.56 -51.32 77.72 -53.41 77.87 C-56.39 78.09 -59.38 78.32 -62.36 78.57 C-62.18 77.94 -62 77.31 -61.82 76.66 C-60.26 70.39 -60.16 66.25 -63.36 60.57 C-64.68 58.59 -66 56.61 -67.36 54.57 C-56.96 54.08 -56.96 54.08 -46.36 53.57 C-48.01 50.93 -49.66 48.29 -51.36 45.57 C-53.97 38.36 -53.55 31.17 -53.36 23.57 C-54.02 23.45 -54.69 23.33 -55.37 23.2 C-59.89 22.34 -64.16 21.53 -68.36 19.57 C-68.36 18.58 -68.36 17.59 -68.36 16.57 C-67.76 16.39 -67.15 16.21 -66.53 16.02 C-61.62 14.58 -61.62 14.58 -57.36 11.88 C-54.88 10.26 -53.83 10.56 -50.92 10.76 C-48.55 10.9 -48.55 10.9 -46.36 10.57 C-44.03 8.19 -44.03 8.19 -42.8 6.3 C-32.71 -5.82 -13.24 -6.33 0 0 Z " fill="#D3D3D3" transform="translate(68.359375,3.4296875)"/>
<path d="M0 0 C4.65 3.3 8.31 7.23 11.81 11.71 C6.81 11.71 6.81 11.71 5.37 10.4 C4.38 9.33 3.39 8.25 2.41 7.18 C-2.74 2.05 -8.14 1.38 -15.19 0.71 C-15.19 1.37 -15.19 2.03 -15.19 2.71 C-14.26 2.94 -13.34 3.16 -12.38 3.4 C-8.62 4.95 -7.94 6.14 -6.19 9.71 C-5.53 10.7 -4.87 11.69 -4.19 12.71 C-3.79 16.4 -3.6 18.75 -5.57 21.96 C-8.74 24.07 -11.73 24.81 -15.38 25.8 C-20.58 27.48 -27.34 29.92 -30.46 34.62 C-31.24 36.85 -31.67 38.87 -31.94 41.21 C-32.09 42.34 -32.09 42.34 -32.24 43.49 C-32.18 46.06 -31.48 47.52 -30.19 49.71 C-32.19 48.71 -34.19 47.71 -36.19 46.71 C-33.49 50.95 -33.49 50.95 -29.28 53.3 C-27.13 53.52 -25.04 53.59 -22.88 53.59 C-22.14 53.61 -21.4 53.63 -20.63 53.65 C-18.82 53.7 -17.01 53.71 -15.19 53.71 C-14.7 52.72 -14.7 52.72 -14.19 51.71 C-14.19 52.37 -14.19 53.03 -14.19 53.71 C-13.53 53.71 -12.87 53.71 -12.19 53.71 C-12.85 52.99 -13.51 52.27 -14.19 51.52 C-16.35 48.49 -16.78 47.33 -16.19 43.71 C-15.53 43.05 -14.87 42.39 -14.19 41.71 C-12.07 42.09 -12.07 42.09 -10.19 42.71 C-11.18 43.7 -12.17 44.69 -13.19 45.71 C-12.88 46.47 -12.57 47.24 -12.25 48.02 C-11.51 49.9 -10.83 51.8 -10.19 53.71 C-3.81 53.85 -3.81 53.85 1.77 51.19 C4.16 48.42 5.64 46.2 6.81 42.71 C7.47 42.38 8.13 42.05 8.81 41.71 C11.99 36.31 12.94 31.97 12.81 25.71 C13.8 25.05 14.79 24.39 15.81 23.71 C16.43 35.67 15.35 43.28 7.81 52.71 C14.41 53.04 21.01 53.37 27.81 53.71 C26.48 57.04 25.14 60.38 23.81 63.71 C22.82 63.71 21.83 63.71 20.81 63.71 C20.48 64.37 20.15 65.03 19.81 65.71 C20.37 60.83 21.38 59.99 24.81 55.71 C20.52 55.71 16.23 55.71 11.81 55.71 C12.12 57.32 12.12 57.32 12.43 58.96 C12.8 62.59 12.79 63.79 10.81 66.71 C10.48 66.71 10.15 66.71 9.81 66.71 C9.81 64.73 9.81 62.75 9.81 60.71 C7.5 60.05 5.19 59.39 2.81 58.71 C2.81 58.05 2.81 57.39 2.81 56.71 C4.98 57.22 6.81 57.71 8.81 58.71 C8.81 57.72 8.81 56.73 8.81 55.71 C3.73 55.6 3.73 55.6 -1.19 56.71 C-2.18 56.22 -2.18 56.22 -3.19 55.71 C-4.56 55.56 -5.94 55.46 -7.32 55.39 C-8.13 55.35 -8.94 55.31 -9.77 55.27 C-11.03 55.21 -11.03 55.21 -12.32 55.15 C-13.59 55.08 -13.59 55.08 -14.89 55.02 C-16.99 54.91 -19.09 54.81 -21.19 54.71 C-20.53 55.7 -19.87 56.69 -19.19 57.71 C-19.07 60.9 -19.07 60.9 -19.19 63.71 C-19.85 63.71 -20.51 63.71 -21.19 63.71 C-21.19 62.72 -21.19 61.73 -21.19 60.71 C-21.6 61.21 -22.02 61.7 -22.44 62.21 C-24.19 63.71 -24.19 63.71 -28.19 63.71 C-28.32 56.96 -28.32 56.96 -27.19 54.71 C-29.5 54.71 -31.81 54.71 -34.19 54.71 C-33.53 55.7 -32.87 56.69 -32.19 57.71 C-31.86 64.04 -31.86 64.04 -33.19 66.71 C-24.61 66.38 -16.03 66.05 -7.19 65.71 C-7.52 64.72 -7.85 63.73 -8.19 62.71 C-4.23 61.72 -4.23 61.72 -0.19 60.71 C-0.52 63.02 -0.85 65.33 -1.19 67.71 C2.11 67.71 5.41 67.71 8.81 67.71 C8.81 68.37 8.81 69.03 8.81 69.71 C13.1 70.04 17.39 70.37 21.81 70.71 C21.81 69.06 21.81 67.41 21.81 65.71 C23.55 68.33 24.2 69.75 24.81 72.71 C18.34 72.81 12.22 72.64 5.81 71.71 C0.07 71.32 -4.9 71.43 -10.38 73.27 C-16.17 75.22 -20.34 74.72 -26.15 72.67 C-31.53 71.11 -37.08 71.5 -42.63 71.59 C-44.3 71.6 -44.3 71.6 -46 71.61 C-48.73 71.64 -51.46 71.67 -54.19 71.71 C-51.27 69.77 -49.57 69.26 -46.19 68.71 C-45.86 67.39 -45.53 66.07 -45.19 64.71 C-44.82 65.23 -44.45 65.74 -44.07 66.27 C-42.16 68.07 -42.16 68.07 -39 67.4 C-38.08 67.17 -37.15 66.94 -36.19 66.71 C-36.19 66.05 -36.19 65.39 -36.19 64.71 C-37 64.73 -37.8 64.75 -38.63 64.77 C-41.19 64.71 -41.19 64.71 -42.19 63.71 C-42.23 62.04 -42.23 60.38 -42.19 58.71 C-40.54 58.33 -38.87 58 -37.19 57.71 C-36.7 58.21 -36.7 58.21 -36.19 58.71 C-35.86 57.72 -35.53 56.73 -35.19 55.71 C-39.2 55.53 -39.2 55.53 -43.19 55.71 C-45.55 58.07 -45.68 59.49 -46.19 62.71 C-46.85 62.71 -47.51 62.71 -48.19 62.71 C-48.52 64.03 -48.85 65.35 -49.19 66.71 C-50.51 66.71 -51.83 66.71 -53.19 66.71 C-53.19 66.05 -53.19 65.39 -53.19 64.71 C-51.87 64.71 -50.55 64.71 -49.19 64.71 C-49.23 63.97 -49.27 63.23 -49.32 62.46 C-49.19 59.71 -49.19 59.71 -47.19 55.71 C-51.81 56.04 -56.43 56.37 -61.19 56.71 C-61.69 55.23 -61.69 55.23 -62.19 53.71 C-52.29 53.22 -52.29 53.22 -42.19 52.71 C-43.14 51.35 -44.09 49.99 -45.07 48.59 C-49.67 41.98 -50.5 36.31 -50.38 28.46 C-50.38 27.65 -50.38 26.83 -50.38 25.99 C-50.33 19.99 -50.33 19.99 -49.19 17.71 C-49.95 17.72 -50.71 17.73 -51.49 17.75 C-52.49 17.76 -53.48 17.76 -54.5 17.77 C-55.49 17.79 -56.48 17.8 -57.49 17.81 C-60.19 17.71 -60.19 17.71 -63.19 16.71 C-63.19 16.05 -63.19 15.39 -63.19 14.71 C-61.8 13.86 -60.41 13.03 -59 12.21 C-58.23 11.75 -57.45 11.28 -56.65 10.8 C-53.91 9.59 -52.15 9.43 -49.19 9.71 C-46.88 10.71 -46.88 10.71 -45.19 11.71 C-44.94 11.13 -44.69 10.56 -44.44 9.96 C-40.57 2.97 -33.45 -1.34 -26.02 -3.67 C-17.09 -5.63 -7.94 -4.67 0 0 Z " fill="#333839" transform="translate(68.19140625,6.2890625)"/>
<path d="M0 0 C5.87 -0.31 9.69 0.14 15 3 C17.25 5.06 17.25 5.06 19 7 C19.99 7.66 20.98 8.32 22 9 C22 9.66 22 10.32 22 11 C24.85 10.3 24.85 10.3 26 9 C28.33 8.96 30.67 8.96 33 9 C32.67 11.64 32.34 14.28 32 17 C32.66 17.33 33.32 17.66 34 18 C34.33 16.68 34.66 15.36 35 14 C36.32 14.66 37.64 15.32 39 16 C38.69 18.38 38.69 18.38 38 21 C35 23 35 23 32 23 C32 26.3 32 29.6 32 33 C31.67 33 31.34 33 31 33 C30.5 29.53 30.5 29.53 30 26 C29.88 26.54 29.75 27.07 29.62 27.62 C28.28 32.73 26.45 37.32 24 42 C23.34 42 22.68 42 22 42 C21.94 42.56 21.88 43.11 21.81 43.69 C20.67 46.95 18.51 48.69 16 51 C16.33 51.66 16.66 52.32 17 53 C12.94 53.34 9.04 53.53 5 53 C2.19 50.19 2.19 50.19 1 47 C1.33 46.01 1.66 45.02 2 44 C2.66 44 3.32 44 4 44 C4 43.34 4 42.68 4 42 C2.02 42.49 2.02 42.49 0 43 C-0.25 45.37 -0.25 45.37 0 48 C1.44 49.69 1.44 49.69 3 51 C3 51.66 3 52.32 3 53 C-0.04 53.19 -3.08 53.33 -6.12 53.44 C-6.98 53.5 -7.84 53.55 -8.72 53.62 C-15.03 53.79 -15.03 53.79 -17.96 51.41 C-19.45 49.67 -20.77 47.93 -22 46 C-21.67 45.34 -21.34 44.68 -21 44 C-19.68 44.99 -18.36 45.98 -17 47 C-17.19 46.34 -17.37 45.68 -17.56 45 C-18.13 41.12 -18.21 37.76 -17 34 C-10.83 27.2 -1.66 23.89 7.07 21.68 C9.2 21.18 9.2 21.18 10 19 C10.55 13.29 9.63 10.43 6 6 C4.03 4.32 2.3 3.15 0 2 C0 1.34 0 0.68 0 0 Z " fill="#CFB42B" transform="translate(53,7)"/>
<path d="M0 0 C0.99 0 1.98 0 3 0 C2.34 1.65 1.68 3.3 1 5 C1.66 5 2.32 5 3 5 C4.32 11.43 5.25 17.43 5 24 C5.8 24.12 6.61 24.25 7.44 24.38 C8.71 24.68 8.71 24.68 10 25 C10.33 25.66 10.66 26.32 11 27 C12.66 28.02 14.32 29.02 16 30 C16.66 30.66 17.32 31.32 18 32 C20.73 32.31 23.38 32.51 26.12 32.62 C26.88 32.66 27.63 32.7 28.41 32.74 C30.27 32.84 32.14 32.92 34 33 C34.49 32.01 34.49 32.01 35 31 C35 31.66 35 32.32 35 33 C35.66 33 36.32 33 37 33 C36.34 32.28 35.68 31.56 35 30.81 C32.84 27.78 32.41 26.62 33 23 C33.66 22.34 34.32 21.68 35 21 C37.12 21.38 37.12 21.38 39 22 C38.01 22.99 37.02 23.98 36 25 C36.31 25.76 36.62 26.53 36.94 27.31 C37.68 29.19 38.36 31.09 39 33 C45.38 33.14 45.38 33.14 50.96 30.48 C53.35 27.71 54.84 25.49 56 22 C56.99 21.51 56.99 21.51 58 21 C61.18 15.6 62.13 11.26 62 5 C62.99 4.34 63.98 3.68 65 3 C65.62 14.96 64.54 22.57 57 32 C63.6 32.33 70.2 32.66 77 33 C75.67 36.33 74.33 39.67 73 43 C72.01 43 71.02 43 70 43 C69.5 43.99 69.5 43.99 69 45 C69.56 40.12 70.57 39.28 74 35 C69.71 35 65.42 35 61 35 C61.31 36.61 61.31 36.61 61.62 38.25 C61.99 41.88 61.98 43.08 60 46 C59.67 46 59.34 46 59 46 C59 44.02 59 42.04 59 40 C56.69 39.34 54.38 38.68 52 38 C52 37.34 52 36.68 52 36 C54.17 36.51 56 37 58 38 C58 37.01 58 36.02 58 35 C52.92 34.89 52.92 34.89 48 36 C47.01 35.51 47.01 35.51 46 35 C44.63 34.85 43.25 34.75 41.87 34.68 C41.06 34.64 40.26 34.6 39.43 34.56 C38.16 34.5 38.16 34.5 36.88 34.44 C35.6 34.37 35.6 34.37 34.3 34.31 C32.2 34.2 30.1 34.1 28 34 C28.66 34.99 29.32 35.98 30 37 C30.12 40.19 30.12 40.19 30 43 C29.34 43 28.68 43 28 43 C28 42.01 28 41.02 28 40 C27.59 40.5 27.17 40.99 26.75 41.5 C25 43 25 43 21 43 C20.87 36.25 20.87 36.25 22 34 C19.69 34 17.38 34 15 34 C15.66 34.99 16.32 35.98 17 37 C17.33 43.33 17.33 43.33 16 46 C24.58 45.67 33.16 45.34 42 45 C41.67 44.01 41.34 43.02 41 42 C43.64 41.34 46.28 40.68 49 40 C48.67 42.31 48.34 44.62 48 47 C51.3 47 54.6 47 58 47 C58 47.66 58 48.32 58 49 C62.29 49.33 66.58 49.66 71 50 C71 48.35 71 46.7 71 45 C72.75 47.62 73.39 49.04 74 52 C67.53 52.1 61.41 51.93 55 51 C49.27 50.61 44.29 50.72 38.81 52.56 C33.02 54.51 28.85 54.01 23.04 51.96 C17.66 50.4 12.11 50.79 6.56 50.88 C4.89 50.89 4.89 50.89 3.19 50.9 C0.46 50.93 -2.27 50.96 -5 51 C-2.08 49.05 -0.37 48.55 3 48 C3.33 46.68 3.66 45.36 4 44 C4.37 44.52 4.74 45.03 5.12 45.56 C7.03 47.36 7.03 47.36 10.19 46.69 C11.12 46.46 12.04 46.23 13 46 C13 45.34 13 44.68 13 44 C12.2 44.02 11.39 44.04 10.56 44.06 C8 44 8 44 7 43 C6.96 41.33 6.96 39.67 7 38 C8.66 37.62 10.32 37.29 12 37 C12.49 37.5 12.49 37.5 13 38 C13.33 37.01 13.66 36.02 14 35 C9.99 34.82 9.99 34.82 6 35 C3.64 37.36 3.51 38.78 3 42 C2.34 42 1.68 42 1 42 C0.67 43.32 0.34 44.64 0 46 C-1.32 46 -2.64 46 -4 46 C-4 45.34 -4 44.68 -4 44 C-2.68 44 -1.36 44 0 44 C-0.06 42.89 -0.06 42.89 -0.12 41.75 C0 39 0 39 2 35 C-2.62 35.33 -7.24 35.66 -12 36 C-12.5 34.52 -12.5 34.52 -13 33 C-3.1 32.51 -3.1 32.51 7 32 C6.05 30.64 5.1 29.28 4.12 27.88 C-0.25 21.6 -1.32 16.16 -1.19 8.69 C-1.19 7.96 -1.19 7.23 -1.19 6.48 C-1.14 1.14 -1.14 1.14 0 0 Z " fill="#2F3334" transform="translate(19,27)"/>
<path d="M0 0 C8.91 0 17.82 0 27 0 C27 0.66 27 1.32 27 2 C27.66 1.34 28.32 0.68 29 0 C29.66 0.33 30.32 0.66 31 1 C31 1.66 31 2.32 31 3 C31.99 3 32.98 3 34 3 C34.33 2.34 34.66 1.68 35 1 C35 2.65 35 4.3 35 6 C33.35 6.66 31.7 7.32 30 8 C32.45 7.89 32.45 7.89 35 7 C36.16 4.53 36.16 4.53 37 2 C37.99 1.67 38.98 1.34 40 1 C40.5 1.99 40.5 1.99 41 3 C40.06 5.12 40.06 5.12 39 7 C38.34 7 37.68 7 37 7 C36.91 7.84 36.91 7.84 36.81 8.69 C35.67 11.95 33.51 13.69 31 16 C31.5 16.99 31.5 16.99 32 18 C27.94 18.34 24.04 18.53 20 18 C17.19 15.19 17.19 15.19 16 12 C16.33 11.01 16.66 10.02 17 9 C17.66 9 18.32 9 19 9 C19 8.34 19 7.68 19 7 C17.68 7.33 16.36 7.66 15 8 C14.75 10.37 14.75 10.37 15 13 C16.44 14.69 16.44 14.69 18 16 C18 16.66 18 17.32 18 18 C14.96 18.19 11.92 18.33 8.88 18.44 C8.02 18.5 7.16 18.55 6.28 18.62 C-0.03 18.79 -0.03 18.79 -2.96 16.41 C-4.45 14.67 -5.77 12.93 -7 11 C-6.67 10.34 -6.34 9.68 -6 9 C-4.68 9.99 -3.36 10.98 -2 12 C-2.23 11.32 -2.45 10.64 -2.69 9.94 C-3 7 -3 7 0 0 Z " fill="#EAD981" transform="translate(38,42)"/>
<path d="M0 0 C4.65 3.3 8.31 7.23 11.81 11.71 C6.81 11.71 6.81 11.71 5.37 10.4 C4.38 9.33 3.39 8.25 2.41 7.18 C-2.74 2.05 -8.14 1.38 -15.19 0.71 C-15.19 1.37 -15.19 2.03 -15.19 2.71 C-14.26 2.94 -13.34 3.16 -12.38 3.4 C-8.62 4.95 -7.94 6.14 -6.19 9.71 C-5.53 10.7 -4.87 11.69 -4.19 12.71 C-3.79 16.4 -3.6 18.75 -5.57 21.96 C-8.82 24.13 -11.97 24.98 -15.72 25.98 C-18.42 26.69 -18.42 26.69 -21.57 28.46 C-24.19 29.71 -24.19 29.71 -26.57 29.4 C-27.37 29.06 -27.37 29.06 -28.19 28.71 C-27.68 28.3 -27.16 27.89 -26.63 27.46 C-26.15 26.88 -25.68 26.31 -25.19 25.71 C-25.42 23.55 -25.42 23.55 -26.19 21.71 C-27.84 21.38 -29.49 21.05 -31.19 20.71 C-30.53 19.72 -29.87 18.73 -29.19 17.71 C-28.53 17.71 -27.87 17.71 -27.19 17.71 C-26.86 16.72 -26.53 15.73 -26.19 14.71 C-24.87 14.71 -23.55 14.71 -22.19 14.71 C-22.44 15.64 -22.44 15.64 -22.69 16.59 C-23.27 18.67 -23.27 18.67 -23.19 20.71 C-22.2 20.71 -21.21 20.71 -20.19 20.71 C-20.19 18.73 -20.19 16.75 -20.19 14.71 C-18.87 14.38 -17.55 14.05 -16.19 13.71 C-16.19 14.37 -16.19 15.03 -16.19 15.71 C-15.53 15.71 -14.87 15.71 -14.19 15.71 C-14.19 16.37 -14.19 17.03 -14.19 17.71 C-11.55 17.71 -8.91 17.71 -6.19 17.71 C-6.93 17.01 -7.68 16.31 -8.44 15.59 C-15.19 8.53 -15.19 8.53 -15.19 4.71 C-16.51 4.38 -17.83 4.05 -19.19 3.71 C-19.19 3.38 -19.19 3.05 -19.19 2.71 C-21.17 3.7 -21.17 3.7 -23.19 4.71 C-23.65 4.05 -24.1 3.39 -24.57 2.71 C-25.1 2.05 -25.64 1.39 -26.19 0.71 C-26.85 0.71 -27.51 0.71 -28.19 0.71 C-28.52 1.37 -28.85 2.03 -29.19 2.71 C-29.85 2.71 -30.51 2.71 -31.19 2.71 C-31.19 3.37 -31.19 4.03 -31.19 4.71 C-32 4.98 -32.8 5.25 -33.63 5.52 C-34.47 5.92 -35.32 6.31 -36.19 6.71 C-36.52 7.7 -36.85 8.69 -37.19 9.71 C-34.88 9.71 -32.57 9.71 -30.19 9.71 C-30.19 10.04 -30.19 10.37 -30.19 10.71 C-31.28 11 -32.38 11.29 -33.5 11.59 C-37.23 12.53 -37.23 12.53 -40.19 14.71 C-40.52 13.39 -40.85 12.07 -41.19 10.71 C-42.51 10.38 -43.83 10.05 -45.19 9.71 C-33.11 -3.22 -16.55 -9.74 0 0 Z " fill="#333835" transform="translate(68.19140625,6.2890625)"/>
<path d="M0 0 C3.97 2.36 7.62 5.04 10.64 8.57 C10.64 9.23 10.64 9.89 10.64 10.57 C12.56 10.54 12.56 10.54 14.52 10.51 C18.39 10.45 18.39 10.45 20.64 11.57 C20.64 12.56 20.64 13.55 20.64 14.57 C21.28 14.76 21.92 14.94 22.58 15.13 C24.64 16.57 24.64 16.57 25.64 19.95 C25.64 23.57 25.64 23.57 23.83 25.95 C21.64 27.57 21.64 27.57 19.64 28.57 C19.29 30.71 19.04 32.86 18.83 35.01 C18 41.5 16.48 48.73 11.64 53.57 C18.24 53.9 24.84 54.23 31.64 54.57 C30.16 58.28 28.87 61.32 26.64 64.57 C25.98 64.57 25.32 64.57 24.64 64.57 C25.19 61.2 25.7 59.49 27.64 56.57 C20.71 56.57 13.78 56.57 6.64 56.57 C7.57 55.13 8.5 53.68 9.45 52.2 C13.53 45.37 15.58 39.06 15.95 31.13 C16.12 28.64 16.12 28.64 16.64 26.57 C19.7 24.45 19.7 24.45 22.64 23.57 C22.31 21.92 21.98 20.27 21.64 18.57 C20.98 18.57 20.32 18.57 19.64 18.57 C19.15 20.06 19.15 20.06 18.64 21.57 C17.16 21.08 17.16 21.08 15.64 20.57 C16.52 14.82 16.52 14.82 17.64 12.57 C16.47 12.71 15.29 12.86 14.08 13.01 C11.34 13.02 10.07 12.91 7.9 11.19 C6.78 9.95 5.67 8.71 4.56 7.46 C-1.35 1.65 -9.41 -0.51 -17.48 -0.74 C-28.04 -0.57 -34.91 3.38 -42.46 10.55 C-44.41 12.43 -44.41 12.43 -45.36 14.57 C-45.94 14.45 -46.52 14.33 -47.12 14.21 C-51.63 13.47 -53.64 13.16 -57.73 15.51 C-59.03 16.53 -59.03 16.53 -60.36 17.57 C-61.35 17.57 -62.34 17.57 -63.36 17.57 C-63.36 18.23 -63.36 18.89 -63.36 19.57 C-56.43 20.07 -56.43 20.07 -49.36 20.57 C-50.02 26.51 -50.68 32.45 -51.36 38.57 C-52.02 38.24 -52.68 37.91 -53.36 37.57 C-53.36 32.95 -53.36 28.33 -53.36 23.57 C-54.91 23.28 -56.45 22.99 -58.05 22.7 C-61.68 21.97 -64.99 21.14 -68.36 19.57 C-68.36 18.58 -68.36 17.59 -68.36 16.57 C-67.76 16.39 -67.15 16.21 -66.53 16.02 C-61.62 14.58 -61.62 14.58 -57.36 11.88 C-54.88 10.26 -53.83 10.56 -50.92 10.76 C-48.55 10.9 -48.55 10.9 -46.36 10.57 C-44.03 8.19 -44.03 8.19 -42.8 6.3 C-32.71 -5.82 -13.24 -6.33 0 0 Z " fill="#D7D8D8" transform="translate(68.359375,3.4296875)"/>
<path d="M0 0 C1.32 0 2.64 0 4 0 C4.66 0.99 5.32 1.98 6 3 C6.37 2.5 6.74 2.01 7.12 1.5 C9.75 -0.6 11.74 -0.22 15 0 C15 0.99 15 1.98 15 3 C11.77 5.15 10.72 5.2 7 5 C7 6.32 7 7.64 7 9 C8.32 9 9.64 9 11 9 C9.81 12.38 8.72 14.65 6 17 C6 15.35 6 13.7 6 12 C5.32 12.74 5.32 12.74 4.62 13.5 C3 15 3 15 1 15 C1.66 15.99 2.32 16.98 3 18 C3.25 19.79 3.25 19.79 3.5 21.62 C3.75 23.3 3.75 23.3 4 25 C4.66 25.33 5.32 25.66 6 26 C6.41 28.29 6.41 28.29 6.62 31.06 C6.7 31.98 6.77 32.9 6.85 33.85 C6.9 34.56 6.95 35.27 7 36 C5.02 35.34 3.04 34.68 1 34 C-0.32 27.57 -1.25 21.57 -1 15 C-1.66 15 -2.32 15 -3 15 C-2.34 13.35 -1.68 11.7 -1 10 C-2.32 10.33 -3.64 10.66 -5 11 C-4.67 9.68 -4.34 8.36 -4 7 C-4.76 7.01 -5.52 7.02 -6.3 7.04 C-7.29 7.04 -8.29 7.05 -9.31 7.06 C-10.3 7.07 -11.28 7.09 -12.3 7.1 C-15 7 -15 7 -18 6 C-18 5.34 -18 4.68 -18 4 C-16.61 3.15 -15.21 2.32 -13.81 1.5 C-13.04 1.04 -12.26 0.57 -11.46 0.09 C-7.39 -1.72 -4.16 -1.07 0 0 Z " fill="#C1A720" transform="translate(23,17)"/>
<path d="M0 0 C6.78 -0.36 11.94 0.28 17.25 5 C17.83 5.66 18.41 6.32 19 7 C19.58 7.58 20.16 8.15 20.75 8.75 C21.16 9.16 21.58 9.57 22 10 C21.52 10.81 21.52 10.81 21.04 11.64 C19.82 14.42 19.59 16.73 19.38 19.75 C19.3 20.73 19.23 21.72 19.15 22.73 C19.1 23.48 19.05 24.23 19 25 C18.34 25 17.68 25 17 25 C16.88 25.93 16.88 25.93 16.75 26.88 C16 29 16 29 13.94 30.25 C13.3 30.5 12.66 30.75 12 31 C12.66 31.66 13.32 32.32 14 33 C13 34 13 34 10.5 34.11 C9.42 34.11 8.33 34.1 7.21 34.1 C5.46 34.09 5.46 34.09 3.67 34.09 C1.82 34.08 1.82 34.08 -0.06 34.06 C-1.92 34.06 -1.92 34.06 -3.81 34.05 C-6.87 34.04 -9.94 34.02 -13 34 C-10.57 31.16 -10.11 31.01 -6.09 30.52 C-4.56 30.46 -3.03 30.41 -1.5 30.38 C4.33 30.26 4.33 30.26 10 29 C9.34 28.01 8.68 27.02 8 26 C8.66 26 9.32 26 10 26 C9.67 25.01 9.34 24.02 9 23 C9.47 22.63 9.95 22.26 10.44 21.88 C12.63 19.24 12.87 17.41 13 14 C11.16 7.99 7.27 5.81 2 3 C1.34 2.67 0.68 2.34 0 2 C0 1.34 0 0.68 0 0 Z " fill="#C4A91F" transform="translate(53,7)"/>
<path d="M0 0 C1.32 0 2.64 0 4 0 C4.66 1.32 5.32 2.64 6 4 C7.98 3.01 9.96 2.02 12 1 C11.67 1.99 11.34 2.98 11 4 C11.58 4.54 12.16 5.07 12.75 5.62 C15.22 8.23 17.01 11.02 19 14 C20.3 15.37 21.62 16.72 23 18 C22 19 22 19 19.06 19.12 C16 19 16 19 14 18 C14 17.34 14 16.68 14 16 C13.34 16 12.68 16 12 16 C12 15.34 12 14.68 12 14 C11.01 14.33 10.02 14.66 9 15 C8.83 17.92 8.83 17.92 9 21 C9.66 21.66 10.32 22.32 11 23 C8.13 22.69 8.13 22.69 5 22 C4.34 21.01 3.68 20.02 3 19 C3.66 18.67 4.32 18.34 5 18 C5.33 17.01 5.66 16.02 6 15 C5.24 14.71 4.47 14.42 3.69 14.12 C1 13 1 13 -2 11 C-4.29 10.76 -4.29 10.76 -6.69 10.88 C-7.5 10.89 -8.3 10.91 -9.14 10.93 C-9.75 10.95 -10.37 10.98 -11 11 C-9.81 8.56 -9.81 8.56 -8 6 C-5.31 5.19 -5.31 5.19 -3 5 C-3 4.34 -3 3.68 -3 3 C-2.34 3 -1.68 3 -1 3 C-0.67 2.01 -0.34 1.02 0 0 Z " fill="#EAC50C" transform="translate(40,6)"/>
<path d="M0 0 C8.25 0 16.5 0 25 0 C25 0.33 25 0.66 25 1 C24.43 1.13 23.87 1.27 23.29 1.4 C22.55 1.58 21.82 1.76 21.06 1.94 C20.33 2.11 19.6 2.29 18.85 2.46 C17 2.84 17 2.84 16 4 C15.67 6.42 15.67 6.42 16 9 C17.44 10.69 17.44 10.69 19 12 C19 12.66 19 13.32 19 14 C15.96 14.19 12.92 14.33 9.88 14.44 C9.02 14.5 8.16 14.55 7.28 14.62 C0.97 14.79 0.97 14.79 -1.96 12.41 C-3.45 10.67 -4.77 8.93 -6 7 C-5.67 6.34 -5.34 5.68 -5 5 C-3.02 6.65 -1.04 8.3 1 10 C1 8.68 1 7.36 1 6 C0.67 5.67 0.34 5.34 0 5 C0 3.35 0 1.7 0 0 Z " fill="#FBECA3" transform="translate(37,46)"/>
<path d="M0 0 C2.31 0 4.62 0 7 0 C6.67 2.97 6.34 5.94 6 9 C7.32 9 8.64 9 10 9 C10.33 8.01 10.66 7.02 11 6 C11.66 6 12.32 6 13 6 C13 6.99 13 7.98 13 9 C13.66 9 14.32 9 15 9 C14.34 6.03 13.68 3.06 13 0 C14.28 -0.06 15.56 -0.12 16.88 -0.19 C17.95 -0.24 17.95 -0.24 19.05 -0.29 C19.7 -0.2 20.34 -0.1 21 0 C23 3 23 3 23 6 C23.99 6 24.98 6 26 6 C26 5.01 26 4.02 26 3 C27.32 3 28.64 3 30 3 C30 4.32 30 5.64 30 7 C27.69 7 25.38 7 23 7 C22.67 7.99 22.34 8.98 22 10 C24.97 10.5 24.97 10.5 28 11 C28 11.33 28 11.66 28 12 C19.09 12 10.18 12 1 12 C1 9.03 1 6.06 1 3 C0.67 2.01 0.34 1.02 0 0 Z " fill="#5C5D5E" transform="translate(34,61)"/>
<path d="M0 0 C0.66 0.66 1.32 1.32 2 2 C1.34 3.32 0.68 4.64 0 6 C-0.66 6 -1.32 6 -2 6 C-2.09 6.84 -2.09 6.84 -2.19 7.69 C-3.33 10.95 -5.49 12.69 -8 15 C-7.67 15.66 -7.34 16.32 -7 17 C-11.06 17.34 -14.96 17.53 -19 17 C-21.81 14.19 -21.81 14.19 -23 11 C-22.67 10.01 -22.34 9.02 -22 8 C-21.34 8 -20.68 8 -20 8 C-20 7.34 -20 6.68 -20 6 C-18.19 5.38 -18.19 5.38 -16 5 C-15.01 5.66 -14.02 6.32 -13 7 C-8.29 7.52 -8.29 7.52 -4.12 5.69 C-2.81 3.88 -2.81 3.88 -2 1 C-1.34 0.67 -0.68 0.34 0 0 Z " fill="#C6C3A8" transform="translate(77,43)"/>
<path d="M0 0 C0.66 0 1.32 0 2 0 C2 2.31 2 4.62 2 7 C2.66 7.33 3.32 7.66 4 8 C4.33 6.68 4.66 5.36 5 4 C6.32 4.66 7.64 5.32 9 6 C8.69 8.38 8.69 8.38 8 11 C5 13 5 13 2 13 C2 16.3 2 19.6 2 23 C1.67 23 1.34 23 1 23 C0.67 20.69 0.34 18.38 0 16 C-0.97 15.88 -1.94 15.75 -2.94 15.62 C-3.95 15.42 -4.96 15.21 -6 15 C-7.49 12.01 -7.12 9.29 -7 6 C-6.67 5.34 -6.34 4.68 -6 4 C-5.36 3.86 -4.72 3.71 -4.06 3.56 C-1.62 3.14 -1.62 3.14 0 0 Z " fill="#A48E27" transform="translate(83,17)"/>
<path d="M0 0 C-0.33 1.32 -0.66 2.64 -1 4 C-3.48 3.5 -3.48 3.5 -6 3 C-6 4.65 -6 6.3 -6 8 C-3.52 8.5 -3.52 8.5 -1 9 C-0.67 8.01 -0.34 7.02 0 6 C0.33 7.32 0.66 8.64 1 10 C-0.69 11.56 -0.69 11.56 -3 13 C-6.37 12.76 -7.59 12.41 -10 10 C-10.33 10.99 -10.66 11.98 -11 13 C-14.42 14.8 -17.17 15.22 -21 15 C-21 12.69 -21 10.38 -21 8 C-20.01 8.33 -19.02 8.66 -18 9 C-18 9.66 -18 10.32 -18 11 C-16.02 10.73 -16.02 10.73 -14 10 C-13.67 9.01 -13.34 8.02 -13 7 C-12.34 7 -11.68 7 -11 7 C-11.06 6.24 -11.12 5.47 -11.19 4.69 C-11 2 -11 2 -10 0.12 C-6.67 -1.75 -3.68 -0.66 0 0 Z " fill="#CECDCD" transform="translate(33,62)"/>
<path d="M0 0 C2.31 1 2.31 1 4 2 C4 2.66 4 3.32 4 4 C4.99 3.67 5.98 3.34 7 3 C6.69 6.37 6.69 6.37 6 10 C3 12 3 12 -1 12 C-0.67 10.68 -0.34 9.36 0 8 C-0.76 8.01 -1.52 8.02 -2.3 8.04 C-3.29 8.04 -4.29 8.05 -5.31 8.06 C-6.3 8.07 -7.28 8.09 -8.3 8.1 C-11 8 -11 8 -14 7 C-14 6.34 -14 5.68 -14 5 C-12.61 4.15 -11.21 3.32 -9.81 2.5 C-9.04 2.04 -8.26 1.57 -7.46 1.09 C-4.72 -0.12 -2.96 -0.28 0 0 Z " fill="#635F3E" transform="translate(19,16)"/>
<path d="M0 0 C1.58 -0.03 3.17 -0.05 4.75 -0.06 C6.07 -0.08 6.07 -0.08 7.42 -0.1 C9.78 -0.01 11.73 0.43 14 1 C14.33 0.67 14.66 0.34 15 0 C17.34 0.29 19.67 0.62 22 1 C22 1.99 22 2.98 22 4 C20.02 3.34 18.04 2.68 16 2 C17.39 4.78 19.16 4.98 22 6 C22 6.33 22 6.66 22 7 C21.29 6.99 20.58 6.98 19.85 6.96 C18.93 6.96 18.01 6.95 17.06 6.94 C15.69 6.92 15.69 6.92 14.29 6.9 C12.03 6.74 12.03 6.74 11 8 C9 8.04 7 8.04 5 8 C5.33 8.99 5.66 9.98 6 11 C4.02 11 2.04 11 0 11 C0.66 9.68 1.32 8.36 2 7 C4.31 7 6.62 7 9 7 C9 5.68 9 4.36 9 3 C7.68 3 6.36 3 5 3 C5 3.99 5 4.98 5 6 C4.01 6 3.02 6 2 6 C1.34 4.02 0.68 2.04 0 0 Z " fill="#D2D2D2" transform="translate(55,61)"/>
<path d="M0 0 C2.44 0.81 2.44 0.81 5 2 C5.33 2.99 5.66 3.98 6 5 C5.34 5 4.68 5 4 5 C2.63 6.29 1.29 7.62 0 9 C0.8 9.25 1.61 9.49 2.44 9.75 C5 11 5 11 5.81 13.12 C5.87 13.74 5.94 14.36 6 15 C1.25 16 1.25 16 -1 16 C-1.33 15.01 -1.66 14.02 -2 13 C-3.32 13.99 -4.64 14.98 -6 16 C-6.33 15.34 -6.66 14.68 -7 14 C-5.56 11.38 -5.56 11.38 -4 9 C-5.32 9 -6.64 9 -8 9 C-8 7.68 -8 6.36 -8 5 C-7.05 4.73 -6.1 4.46 -5.12 4.19 C-1.75 3.25 -1.75 3.25 0 0 Z " fill="#776D30" transform="translate(38,17)"/>
<path d="M0 0 C4.29 0 8.58 0 13 0 C13 5.62 13 5.62 11 9 C8.69 8.67 6.38 8.34 4 8 C4 10.31 4 12.62 4 15 C5.32 15.66 6.64 16.32 8 17 C5.69 17 3.38 17 1 17 C1.21 15.87 1.41 14.73 1.62 13.56 C2.26 8.68 1.26 4.73 0 0 Z " fill="#7E7F7F" transform="translate(8,62)"/>
<path d="M0 0 C0.33 0 0.66 0 1 0 C1.05 1.92 1.09 3.83 1.12 5.75 C1.15 6.82 1.17 7.88 1.2 8.98 C1 11.96 0.64 13.55 -1 16 C-3.12 17.25 -3.12 17.25 -5 18 C-4.34 18.66 -3.68 19.32 -3 20 C-4 21 -4 21 -6.5 21.11 C-7.58 21.11 -8.67 21.1 -9.79 21.1 C-10.95 21.09 -12.12 21.09 -13.33 21.09 C-15.18 21.08 -15.18 21.08 -17.06 21.06 C-18.92 21.06 -18.92 21.06 -20.81 21.05 C-23.87 21.04 -26.94 21.02 -30 21 C-27.6 18.21 -27.17 18.02 -23.23 17.59 C-21.74 17.55 -20.25 17.52 -18.75 17.5 C-12.78 17.43 -8.28 16.95 -3 14 C-0.84 11.13 -0.65 8.27 -0.38 4.75 C-0.3 3.86 -0.23 2.97 -0.15 2.05 C-0.1 1.37 -0.05 0.7 0 0 Z " fill="#FAD831" transform="translate(70,20)"/>
<path d="M0 0 C0.83 2.89 1 4.89 1 8 C1.39 8.78 1.78 9.57 2.19 10.38 C3 13 3 13 1.94 16.25 C0 19 0 19 -2.69 19.88 C-3.45 19.92 -4.21 19.96 -5 20 C-5.33 19.34 -5.66 18.68 -6 18 C-4.35 17.67 -2.7 17.34 -1 17 C-1.84 15.05 -1.84 15.05 -3 14 C-3 13.01 -3 12.02 -3 11 C-3.66 10.67 -4.32 10.34 -5 10 C-5 9.34 -5 8.68 -5 8 C-6.32 7.67 -7.64 7.34 -9 7 C-8.22 6.75 -7.43 6.51 -6.62 6.25 C-3.68 4.85 -3.1 3.99 -2 1 C-1.67 1.66 -1.34 2.32 -1 3 C-0.67 2.01 -0.34 1.02 0 0 Z " fill="#7B7645" transform="translate(73,31)"/>
<path d="M0 0 C1.32 0 2.64 0 4 0 C4.33 1.65 4.66 3.3 5 5 C4.01 5.33 3.02 5.66 2 6 C4.48 6.99 4.48 6.99 7 8 C7 8.66 7 9.32 7 10 C5.91 9.84 4.81 9.67 3.69 9.5 C0.12 8.93 0.12 8.93 -3 9 C-3 9.33 -3 9.66 -3 10 C-5.64 10.33 -8.28 10.66 -11 11 C-9.81 8.56 -9.81 8.56 -8 6 C-5.31 5.19 -5.31 5.19 -3 5 C-3 4.34 -3 3.68 -3 3 C-2.34 3 -1.68 3 -1 3 C-0.67 2.01 -0.34 1.02 0 0 Z " fill="#A38F28" transform="translate(40,6)"/>
<path d="M0 0 C8.91 0 17.82 0 27 0 C24 3 24 3 21.36 3.34 C20.33 3.32 19.3 3.31 18.24 3.29 C17.12 3.28 16 3.27 14.85 3.26 C13.68 3.24 12.52 3.21 11.31 3.19 C10.13 3.17 8.95 3.16 7.74 3.15 C4.83 3.11 1.91 3.06 -1 3 C-0.67 2.01 -0.34 1.02 0 0 Z " fill="#FCE46D" transform="translate(38,42)"/>
<path d="M0 0 C3.3 0 6.6 0 10 0 C10.1 1.11 10.21 2.23 10.31 3.38 C10.65 5.17 10.65 5.17 11 7 C11.99 7.66 12.98 8.32 14 9 C12.33 9.04 10.67 9.04 9 9 C8.67 8.67 8.34 8.34 8 8 C6.49 7.77 4.96 7.59 3.44 7.44 C2.61 7.35 1.78 7.27 0.93 7.18 C0.3 7.12 -0.34 7.06 -1 7 C-0.67 4.69 -0.34 2.38 0 0 Z " fill="#B3B2B2" transform="translate(68,67)"/>
<path d="M0 0 C5.84 1.25 8.73 4.22 12 9 C13.42 13.26 14.1 17.71 12.11 21.86 C11.14 23.29 10.08 24.65 9 26 C7.68 25.67 6.36 25.34 5 25 C5.66 24.67 6.32 24.34 7 24 C6.67 23.01 6.34 22.02 6 21 C6.47 20.63 6.95 20.26 7.44 19.88 C9.63 17.24 9.87 15.41 10 12 C8.13 6.27 4.83 4.19 0 1 C0 0.67 0 0.34 0 0 Z " fill="#F5CD07" transform="translate(56,9)"/>
<path d="M0 0 C0.84 1.08 0.84 1.08 1.69 2.19 C3.98 4.97 6.41 7.49 9 10 C8 11 8 11 5.06 11.12 C2 11 2 11 0 10 C0 9.34 0 8.68 0 8 C-0.66 8 -1.32 8 -2 8 C-2 7.34 -2 6.68 -2 6 C-2.99 6.33 -3.98 6.66 -5 7 C-5.17 9.92 -5.17 9.92 -5 13 C-4.34 13.66 -3.68 14.32 -3 15 C-5.97 14.5 -5.97 14.5 -9 14 C-8.34 13.67 -7.68 13.34 -7 13 C-7 10.69 -7 8.38 -7 6 C-5.19 4.94 -5.19 4.94 -3 4 C-2.01 4.33 -1.02 4.66 0 5 C-0.66 4.01 -1.32 3.02 -2 2 C-1.34 2 -0.68 2 0 2 C0 1.34 0 0.68 0 0 Z " fill="#CCB01B" transform="translate(54,14)"/>
<path d="M0 0 C2.31 0 4.62 0 7 0 C6.67 2.97 6.34 5.94 6 9 C7.98 8.67 9.96 8.34 12 8 C12 8.99 12 9.98 12 11 C8.33 12.18 4.83 12.07 1 12 C1.02 11.08 1.02 11.08 1.04 10.14 C1.04 9.33 1.05 8.52 1.06 7.69 C1.07 6.89 1.09 6.09 1.1 5.26 C1.1 2.83 1.1 2.83 0 0 Z " fill="#D0D0D0" transform="translate(34,61)"/>
<path d="M0 0 C0.33 0.99 0.66 1.98 1 3 C5.29 3.33 9.58 3.66 14 4 C13.67 4.99 13.34 5.98 13 7 C12.03 7.12 11.06 7.25 10.06 7.38 C8.55 7.68 8.55 7.68 7 8 C6.67 8.66 6.34 9.32 6 10 C6 9.01 6 8.02 6 7 C3.18 4.72 3.18 4.72 0 5 C0.99 5.66 1.98 6.32 3 7 C3 8.32 3 9.64 3 11 C2.34 11 1.68 11 1 11 C-1.19 8.19 -1.19 8.19 -3 5 C-2.67 4.01 -2.34 3.02 -2 2 C-1.34 2 -0.68 2 0 2 C0 1.34 0 0.68 0 0 Z " fill="#868572" transform="translate(57,49)"/>
<path d="M0 0 C1.5 0.01 1.5 0.01 3.04 0.03 C3.81 0.04 4.58 0.05 5.38 0.06 C5.38 1.71 5.38 3.36 5.38 5.06 C3.77 5.17 2.17 5.25 0.56 5.31 C-0.33 5.36 -1.22 5.41 -2.14 5.45 C-4.62 5.06 -4.62 5.06 -6.45 3.05 C-6.84 2.39 -7.23 1.74 -7.62 1.06 C-4.98 -0.26 -2.95 -0.03 0 0 Z " fill="#FDF7DA" transform="translate(46.625,53.9375)"/>
<path d="M0 0 C0.72 0.62 1.44 1.24 2.19 1.88 C4.79 3.84 6.96 4.9 10 6 C10.33 6.33 10.66 6.66 11 7 C12.68 7.23 14.37 7.41 16.06 7.56 C16.98 7.65 17.9 7.73 18.85 7.82 C19.91 7.91 19.91 7.91 21 8 C21.33 6.68 21.66 5.36 22 4 C23.5 5.38 23.5 5.38 25 7 C25 7.66 25 8.32 25 9 C21.96 9.19 18.92 9.33 15.88 9.44 C15.02 9.5 14.16 9.55 13.28 9.62 C7.01 9.78 7.01 9.78 4.04 7.48 C0 2.9 0 2.9 0 0 Z " fill="#D6D4C4" transform="translate(31,51)"/>
<path d="M0 0 C4.29 0 8.58 0 13 0 C13 1.65 13 3.3 13 5 C12.34 4.67 11.68 4.34 11 4 C11 3.34 11 2.68 11 2 C9.35 2 7.7 2 6 2 C6 2.99 6 3.98 6 5 C7.32 4.67 8.64 4.34 10 4 C10 4.99 10 5.98 10 7 C7.69 7 5.38 7 3 7 C2.69 6.22 2.38 5.43 2.06 4.62 C1.07 2.08 1.07 2.08 0 0 Z " fill="#F1F1F1" transform="translate(8,62)"/>
<path d="M0 0 C1.32 0.66 2.64 1.32 4 2 C3.69 4.38 3.69 4.38 3 7 C0 9 0 9 -3 9 C-3 12.3 -3 15.6 -3 19 C-3.33 19 -3.66 19 -4 19 C-4.03 17.08 -4.05 15.17 -4.06 13.25 C-4.07 12.18 -4.09 11.12 -4.1 10.02 C-4.02 7.47 -3.75 5.42 -3 3 C-2.34 3.33 -1.68 3.66 -1 4 C-0.67 2.68 -0.34 1.36 0 0 Z " fill="#777251" transform="translate(88,21)"/>
<path d="M0 0 C3 0 3 0 4.64 1.18 C6.41 3.55 6.5 5.26 6.69 8.19 C6.75 9.09 6.82 9.99 6.89 10.92 C6.92 11.61 6.96 12.29 7 13 C5.02 12.34 3.04 11.68 1 11 C0.67 7.37 0.34 3.74 0 0 Z " fill="#C1B45C" transform="translate(23,40)"/>
<path d="M0 0 C0.33 0 0.66 0 1 0 C1.05 2.23 1.09 4.46 1.12 6.69 C1.15 7.93 1.17 9.17 1.2 10.45 C1.01 13.81 0.46 16 -1 19 C-1.99 18.34 -2.98 17.68 -4 17 C-3.54 13.53 -3.11 10.33 -2 7 C-2.02 6.15 -2.04 5.31 -2.06 4.44 C-2 2 -2 2 0 0 Z " fill="#292F2F" transform="translate(83,30)"/>
<path d="M0 0 C0.33 1.32 0.66 2.64 1 4 C-0.54 4.09 -0.54 4.09 -2.11 4.18 C-3.47 4.27 -4.83 4.35 -6.19 4.44 C-6.86 4.48 -7.53 4.52 -8.23 4.56 C-11.9 4.79 -15.42 5.17 -19 6 C-14.5 0.77 -6.63 -0.52 0 0 Z " fill="#F2CD0F" transform="translate(60,32)"/>
<path d="M0 0 C0.33 0 0.66 0 1 0 C1.03 0.83 1.05 1.67 1.08 2.53 C1.45 9.94 2.59 15.44 6 22 C6.33 22.99 6.66 23.98 7 25 C6.01 25 5.02 25 4 25 C-1.79 16.49 -1.32 9.82 0 0 Z " fill="#BDBEBF" transform="translate(17,31)"/>
<path d="M0 0 C0.99 0.33 1.98 0.66 3 1 C3 1.66 3 2.32 3 3 C4.98 2.65 4.98 2.65 7 2 C7.33 1.34 7.66 0.68 8 0 C8.66 0 9.32 0 10 0 C10 1.65 10 3.3 10 5 C6.49 6.6 3.86 7.22 0 7 C0 4.69 0 2.38 0 0 Z " fill="#EFEFEF" transform="translate(12,70)"/>
<path d="M0 0 C2.31 0 4.62 0 7 0 C6.93 0.63 6.86 1.25 6.78 1.9 C6.69 2.72 6.6 3.53 6.5 4.38 C6.41 5.19 6.31 6 6.22 6.84 C5.97 8.97 5.97 8.97 6 11 C4.02 11 2.04 11 0 11 C0.33 10.34 0.66 9.68 1 9 C1.14 5.62 1.08 3.23 0 0 Z " fill="#DEDEDE" transform="translate(47,61)"/>
<path d="M0 0 C2.5 0.56 2.5 0.56 4.81 2.75 C6.6 5.74 6.89 7.16 6.5 10.56 C6.17 9.24 5.84 7.92 5.5 6.56 C4.76 6.6 4.02 6.64 3.25 6.69 C0.37 6.56 -1 5.89 -3.5 4.56 C-4.49 4.56 -5.48 4.56 -6.5 4.56 C-4.43 2.1 -3.18 0.72 0 0 Z " fill="#9C8C2F" transform="translate(16.5,15.4375)"/>
<path d="M0 0 C2 3 2 3 3 5 C3.99 5.66 4.98 6.32 6 7 C4.68 7 3.36 7 2 7 C1.67 8.65 1.34 10.3 1 12 C0.67 11.01 0.34 10.02 0 9 C-1.32 9 -2.64 9 -4 9 C-4 6.69 -4 4.38 -4 2 C-3.34 2.66 -2.68 3.32 -2 4 C-1.34 2.68 -0.68 1.36 0 0 Z " fill="#D6B815" transform="translate(82,21)"/>
<path d="M0 0 C2.31 0.33 4.62 0.66 7 1 C7 1.99 7 2.98 7 4 C5.02 3.34 3.04 2.68 1 2 C2.39 4.78 4.16 4.98 7 6 C7 6.33 7 6.66 7 7 C4.36 7 1.72 7 -1 7 C-2 4 -2 4 -1.06 1.81 C-0.54 0.92 -0.54 0.92 0 0 Z " fill="#F0F0F0" transform="translate(70,61)"/>
<path d="M0 0 C0.83 2.89 1 4.89 1 8 C1.33 8.66 1.66 9.32 2 10 C1.22 9.81 0.43 9.63 -0.38 9.44 C-2.97 8.74 -2.97 8.74 -5 10 C-5 9.34 -5 8.68 -5 8 C-6.32 7.67 -7.64 7.34 -9 7 C-8.22 6.75 -7.43 6.51 -6.62 6.25 C-3.68 4.85 -3.1 3.99 -2 1 C-1.67 1.66 -1.34 2.32 -1 3 C-0.67 2.01 -0.34 1.02 0 0 Z " fill="#9D8D32" transform="translate(73,31)"/>
<path d="M0 0 C2.73 0.03 5.3 0.56 8 1 C7.67 2.32 7.34 3.64 7 5 C5.35 4.67 3.7 4.34 2 4 C1.67 4.99 1.34 5.98 1 7 C0.01 7 -0.98 7 -2 7 C-2.12 4.62 -2.12 4.62 -2 2 C-1.34 1.34 -0.68 0.68 0 0 Z " fill="#E4E4E4" transform="translate(25,61)"/>
<path d="M0 0 C1.03 3.29 1.2 4.58 -0.31 7.75 C-2 10 -2 10 -4 11 C-3.34 9.35 -2.68 7.7 -2 6 C-3.32 6 -4.64 6 -6 6 C-6 4.68 -6 3.36 -6 2 C-2.25 0 -2.25 0 0 0 Z " fill="#4F4C34" transform="translate(36,20)"/>
<path d="M0 0 C4.62 0 9.24 0 14 0 C13 6 13 6 12 9 C11.01 9 10.02 9 9 9 C8.67 9.66 8.34 10.32 8 11 C8.56 6.12 9.57 5.28 13 1 C8.71 1 4.42 1 0 1 C0 0.67 0 0.34 0 0 Z " fill="#646464" transform="translate(80,61)"/>
<path d="M0 0 C1.5 0.57 1.5 0.57 3.02 1.16 C4.03 1.54 5.03 1.92 6.06 2.31 C6.83 2.61 7.6 2.91 8.4 3.22 C8.07 3.88 7.74 4.54 7.4 5.22 C1.46 4.23 1.46 4.23 -4.6 3.22 C-4.6 2.23 -4.6 1.24 -4.6 0.22 C-2.6 -0.78 -2.6 -0.78 0 0 Z " fill="#F1E7AC" transform="translate(62.6015625,48.77734375)"/>
<path d="M0 0 C1.98 0 3.96 0 6 0 C5.34 1.98 4.68 3.96 4 6 C1.03 5.5 1.03 5.5 -2 5 C-2 4.01 -2 3.02 -2 2 C-1.34 2 -0.68 2 0 2 C0 1.34 0 0.68 0 0 Z " fill="#AAABAB" transform="translate(87,62)"/>
<path d="M0 0 C0.66 0 1.32 0 2 0 C2.62 3.38 2.62 3.38 3 7 C2.34 7.66 1.68 8.32 1 9 C0.3 10.32 -0.37 11.65 -1 13 C-1.22 11.64 -1.22 11.64 -1.44 10.25 C-1.86 7.79 -2.35 5.41 -3 3 C-2.34 3 -1.68 3 -1 3 C-0.67 2.01 -0.34 1.02 0 0 Z " fill="#756C33" transform="translate(27,29)"/>
<path d="M0 0 C2.97 0 5.94 0 9 0 C9 0.99 9 1.98 9 3 C5.33 4.18 1.83 4.07 -2 4 C-1.34 2.68 -0.68 1.36 0 0 Z " fill="#E9E9E9" transform="translate(37,69)"/>
<path d="M0 0 C-0.33 1.32 -0.66 2.64 -1 4 C-2.98 4 -4.96 4 -7 4 C-7 2.35 -7 0.7 -7 -1 C-3.51 -2.2 -3.32 -2.21 0 0 Z " fill="#5C5832" transform="translate(44,29)"/>
<path d="M0 0 C1.32 0.33 2.64 0.66 4 1 C3.34 1.66 2.68 2.32 2 3 C1.35 5.57 1.35 5.57 1 8 C0.34 8 -0.32 8 -1 8 C-1.33 9.32 -1.66 10.64 -2 12 C-3.32 12 -4.64 12 -6 12 C-6 11.34 -6 10.68 -6 10 C-4.68 10 -3.36 10 -2 10 C-2 8.35 -2 6.7 -2 5 C-1.67 5 -1.34 5 -1 5 C-0.67 3.35 -0.34 1.7 0 0 Z " fill="#252626" transform="translate(21,61)"/>
<path d="M0 0 C6.62 0.75 6.62 0.75 10 3 C9.01 3.66 8.02 4.32 7 5 C7.33 5.66 7.66 6.32 8 7 C6.68 7 5.36 7 4 7 C3.9 6.4 3.79 5.8 3.69 5.19 C2.91 2.72 1.93 1.68 0 0 Z " fill="#EAE6CB" transform="translate(56,53)"/>
<path d="M0 0 C0.66 0 1.32 0 2 0 C2 1.32 2 2.64 2 4 C3.98 3.67 5.96 3.34 8 3 C7.67 3.99 7.34 4.98 7 6 C3.7 5.67 0.4 5.34 -3 5 C-2.67 4.34 -2.34 3.68 -2 3 C-1.34 3 -0.68 3 0 3 C0 2.01 0 1.02 0 0 Z " fill="#FCFCFC" transform="translate(81,70)"/>
<path d="M0 0 C-1.3 2.59 -2.29 3.02 -5 4 C-7.75 3.62 -7.75 3.62 -10 3 C-9.01 2.34 -8.02 1.68 -7 1 C-7.66 0.67 -8.32 0.34 -9 0 C-5.93 -1.53 -3.3 -0.55 0 0 Z " fill="#B0A970" transform="translate(73,47)"/>
<path d="M0 0 C0.66 0 1.32 0 2 0 C1.67 2.31 1.34 4.62 1 7 C0.34 6.67 -0.32 6.34 -1 6 C-1.66 7.32 -2.32 8.64 -3 10 C-3.66 8.02 -4.32 6.04 -5 4 C-4.01 3.67 -3.02 3.34 -2 3 C-1.34 2.01 -0.68 1.02 0 0 Z " fill="#575433" transform="translate(83,17)"/>
<path d="M0 0 C2 3 2 3 3 7 C-0.96 7 -4.92 7 -9 7 C-9 6.67 -9 6.34 -9 6 C-4.55 5.5 -4.55 5.5 0 5 C0 3.35 0 1.7 0 0 Z " fill="#676868" transform="translate(90,72)"/>
<path d="M0 0 C0.66 0 1.32 0 2 0 C1.67 1.65 1.34 3.3 1 5 C-3.55 5.37 -3.55 5.37 -5.81 3.5 C-6.2 3 -6.6 2.51 -7 2 C-4.69 2 -2.38 2 0 2 C0 1.34 0 0.68 0 0 Z " fill="#E8E8E8" transform="translate(75,70)"/>
<path d="M0 0 C1.65 0 3.3 0 5 0 C5.33 0.99 5.66 1.98 6 3 C6.66 3 7.32 3 8 3 C8 3.66 8 4.32 8 5 C6.35 5 4.7 5 3 5 C3 3.68 3 2.36 3 1 C2.34 1 1.68 1 1 1 C1 1.99 1 2.98 1 4 C0.34 3.67 -0.32 3.34 -1 3 C-0.67 2.01 -0.34 1.02 0 0 Z " fill="#8C8D8D" transform="translate(80,69)"/>
<path d="M0 0 C0.99 0.33 1.98 0.66 3 1 C2.41 7.15 2.41 7.15 2 9 C1.01 9.5 1.01 9.5 0 10 C-1.12 3.38 -1.12 3.38 0 0 Z " fill="#1C2020" transform="translate(78,63)"/>
<path d="M0 0 C0.66 0 1.32 0 2 0 C1.67 3.96 1.34 7.92 1 12 C0.01 11.34 -0.98 10.68 -2 10 C-2.19 7.38 -2.19 7.38 -2 5 C-1.34 5 -0.68 5 0 5 C0 3.35 0 1.7 0 0 Z " fill="#FCD201" transform="translate(75,19)"/>
<path d="M0 0 C3 1 3 1 4 3 C4.99 3.66 5.98 4.32 7 5 C5.86 5.22 5.86 5.22 4.69 5.44 C1.92 5.96 1.92 5.96 -1 7 C-0.67 4.69 -0.34 2.38 0 0 Z " fill="#8F8E8E" transform="translate(68,67)"/>
<path d="M0 0 C1.32 0.33 2.64 0.66 4 1 C4.33 2.98 4.66 4.96 5 7 C2.52 6.01 2.52 6.01 0 5 C0 3.35 0 1.7 0 0 Z " fill="#EDE098" transform="translate(25,46)"/>
<path d="M0 0 C4.75 0.75 4.75 0.75 7 3 C7.12 5.62 7.12 5.62 7 8 C6.67 6.68 6.34 5.36 6 4 C4.35 4 2.7 4 1 4 C0.67 2.68 0.34 1.36 0 0 Z " fill="#F2CC08" transform="translate(16,18)"/>
<path d="M0 0 C0.66 0.66 1.32 1.32 2 2 C1.34 3.32 0.68 4.64 0 6 C-0.66 6 -1.32 6 -2 6 C-2.33 6.99 -2.66 7.98 -3 9 C-4 6 -4 6 -3.19 3.38 C-2 1 -2 1 0 0 Z " fill="#BFB773" transform="translate(77,43)"/>
<path d="M0 0 C2.64 0 5.28 0 8 0 C6.68 0.33 5.36 0.66 4 1 C4 2.32 4 3.64 4 5 C3.01 5 2.02 5 1 5 C0.67 3.35 0.34 1.7 0 0 Z " fill="#F7F7F7" transform="translate(56,62)"/>
<path d="M0 0 C2.31 0 4.62 0 7 0 C6.67 0.66 6.34 1.32 6 2 C5.34 2 4.68 2 4 2 C3.01 3.48 3.01 3.48 2 5 C1.01 5 0.02 5 -1 5 C-0.67 3.35 -0.34 1.7 0 0 Z " fill="#AFA14B" transform="translate(79,16)"/>
<path d="M0 0 C0.33 0 0.66 0 1 0 C1 1.98 1 3.96 1 6 C2.32 6.66 3.64 7.32 5 8 C2.69 8 0.38 8 -2 8 C-1.34 5.36 -0.68 2.72 0 0 Z " fill="#5F6060" transform="translate(11,71)"/>
<path d="M0 0 C1.32 0 2.64 0 4 0 C4 1.32 4 2.64 4 4 C1.69 4 -0.62 4 -3 4 C-2.01 3.67 -1.02 3.34 0 3 C0 2.01 0 1.02 0 0 Z " fill="#757474" transform="translate(60,64)"/>
<path d="M0 0 C0.33 0 0.66 0 1 0 C1.31 1.11 1.62 2.23 1.94 3.38 C2.82 6.79 2.82 6.79 4 9 C3.01 9.33 2.02 9.66 1 10 C-1.57 6.15 -0.83 4.41 0 0 Z " fill="#A6A37E" transform="translate(36,45)"/>
<path d="M0 0 C0.99 0.33 1.98 0.66 3 1 C3 1.66 3 2.32 3 3 C3.99 3 4.98 3 6 3 C6.33 2.34 6.66 1.68 7 1 C7 1.99 7 2.98 7 4 C2.55 4.49 2.55 4.49 -2 5 C-1.34 3.35 -0.68 1.7 0 0 Z " fill="#F2E079" transform="translate(66,42)"/>
<path d="M0 0 C0.99 0.33 1.98 0.66 3 1 C3.33 2.98 3.66 4.96 4 7 C3.01 7 2.02 7 1 7 C0.34 5.02 -0.32 3.04 -1 1 C-0.67 0.67 -0.34 0.34 0 0 Z " fill="#EED54A" transform="translate(75,37)"/>
<path d="M0 0 C1.32 0 2.64 0 4 0 C5.12 2.31 5.12 2.31 6 5 C5.01 6.48 5.01 6.48 4 8 C3.34 6.35 2.68 4.7 2 3 C1.34 3 0.68 3 0 3 C0 2.01 0 1.02 0 0 Z " fill="#B39E22" transform="translate(23,17)"/>
<path d="M0 0 C1.32 0.33 2.64 0.66 4 1 C3.01 1.5 3.01 1.5 2 2 C2.99 2.66 3.98 3.32 5 4 C2.36 4.33 -0.28 4.66 -3 5 C-2.01 3.35 -1.02 1.7 0 0 Z " fill="#C9AD1D" transform="translate(32,12)"/>
<path d="M0 0 C0.33 0 0.66 0 1 0 C1 1.65 1 3.3 1 5 C0.01 5.5 0.01 5.5 -1 6 C-3.62 5.06 -3.62 5.06 -6 4 C-6 3.34 -6 2.68 -6 2 C-3.83 2.51 -2 3 0 4 C0 2.68 0 1.36 0 0 Z " fill="#878787" transform="translate(77,61)"/>
<path d="M0 0 C2.48 0.99 2.48 0.99 5 2 C5 3.65 5 5.3 5 7 C4.34 7 3.68 7 3 7 C0.7 4.44 0 3.52 0 0 Z " fill="#97978D" transform="translate(55,53)"/>
<path d="M0 0 C0.99 0.66 1.98 1.32 3 2 C0.03 4.48 0.03 4.48 -3 7 C-3 3 -3 3 -1.5 1.25 C-1.01 0.84 -0.51 0.42 0 0 Z " fill="#A79C3F" transform="translate(40,37)"/>
<path d="M0 0 C1.5 1.19 1.5 1.19 3 3 C3.19 5.69 3.19 5.69 3 8 C2.01 8 1.02 8 0 8 C0 5.36 0 2.72 0 0 Z " fill="#E7C929" transform="translate(23,32)"/>
<path d="M0 0 C2.48 0.5 2.48 0.5 5 1 C4.62 3.44 4.62 3.44 4 6 C3.01 6.49 3.01 6.49 2 7 C1.34 4.69 0.68 2.38 0 0 Z " fill="#EEC80A" transform="translate(27,27)"/>
<path d="M0 0 C2.12 0.38 2.12 0.38 4 1 C3.34 1 2.68 1 2 1 C2 1.66 2 2.32 2 3 C0.37 4.38 -1.29 5.72 -3 7 C-2.25 2.25 -2.25 2.25 0 0 Z " fill="#F8D005" transform="translate(31,18)"/>
</svg>
