<?xml version="1.0" encoding="UTF-8"?>
<!-- Generator: https://ezgif.com/png-to-svg -->
<svg version="1.1" xmlns="http://www.w3.org/2000/svg" width="512" height="512" viewBox="-39.395 -38.97 676.939 676.939" preserveAspectRatio="xMidYMid meet">
<path d="M0 0 C0.23 36.08 0.41 72.16 0.51 108.23 C0.52 112.49 0.54 116.75 0.55 121.01 C0.55 122.28 0.55 122.28 0.56 123.58 C0.6 137.31 0.68 151.04 0.77 164.77 C0.87 178.86 0.92 192.94 0.94 207.03 C0.95 215.72 1 224.42 1.08 233.11 C1.13 239.07 1.15 245.03 1.14 250.99 C1.13 254.43 1.14 257.87 1.19 261.31 C1.24 265.04 1.23 268.77 1.2 272.5 C1.25 274.13 1.25 274.13 1.29 275.79 C1.23 278.84 1.08 281.15 0 284 C-3.02 286.77 -6.27 288.37 -10 290 C-11.73 290.85 -13.46 291.7 -15.19 292.56 C-16.2 293.06 -17.21 293.56 -18.25 294.07 C-23.14 296.54 -27.87 299.29 -32.62 302 C-41.17 306.87 -49.77 311.61 -58.44 316.25 C-66.03 320.32 -73.6 324.41 -81.09 328.67 C-86.67 331.83 -92.3 334.88 -97.94 337.94 C-104.7 341.6 -111.39 345.36 -118 349.31 C-123.93 352.85 -129.94 356.01 -136.15 359.03 C-141.93 361.92 -147.47 365.23 -153.05 368.46 C-158.44 371.56 -163.86 374.57 -169.38 377.44 C-176.02 380.9 -182.55 384.54 -189.06 388.25 C-197.98 393.33 -206.97 398.25 -216 403.12 C-224 407.43 -231.9 411.88 -239.8 416.38 C-248.11 421.09 -256.52 425.6 -265 430 C-256.91 427.78 -249.21 424.81 -241.44 421.69 C-233.94 418.68 -226.45 415.77 -218.82 413.11 C-210.17 410.09 -201.61 406.85 -193.06 403.57 C-188.44 401.8 -183.82 400.03 -179.2 398.27 C-178.26 397.91 -177.32 397.55 -176.35 397.18 C-167.14 393.67 -157.92 390.2 -148.69 386.75 C-132.95 380.86 -117.22 374.94 -101.5 369 C-85.67 363.02 -69.84 357.06 -54 351.12 C-41.87 346.58 -29.74 342.02 -17.62 337.44 C-16.9 337.16 -16.17 336.89 -15.42 336.6 C-6.25 333.13 2.92 329.65 12.09 326.17 C18.27 323.82 24.45 321.47 30.62 319.12 C31.25 318.89 31.87 318.65 32.52 318.41 C51.04 311.37 69.59 304.4 88.18 297.52 C96.5 294.44 104.81 291.32 113.09 288.13 C113.9 287.82 114.7 287.51 115.53 287.19 C119.3 285.74 123.07 284.28 126.84 282.81 C128.15 282.3 129.47 281.79 130.78 281.28 C131.92 280.84 133.05 280.4 134.22 279.94 C137 279 137 279 140 279 C140.3 283.55 140.52 288.1 140.66 292.66 C140.72 294.21 140.8 295.75 140.91 297.3 C141.24 302.42 141.28 307 140 312 C136.53 315.81 132.61 317.79 128 320 C126.49 320.94 124.99 321.89 123.52 322.88 C122.09 323.78 120.67 324.67 119.25 325.56 C118.46 326.06 117.66 326.56 116.84 327.08 C104.22 335.02 91.57 342.91 78.91 350.8 C69.18 356.86 59.47 362.96 49.81 369.12 C40.05 375.35 30.22 381.46 20.37 387.54 C9.49 394.25 -1.3 401.09 -12.07 407.96 C-17.92 411.69 -23.79 415.36 -29.71 418.97 C-34.58 421.97 -39.4 425.03 -44.23 428.09 C-50.74 432.21 -57.27 436.3 -63.81 440.38 C-71.69 445.29 -79.55 450.25 -87.38 455.25 C-94.66 459.91 -102 464.47 -109.39 468.96 C-119.77 475.28 -130.01 481.81 -140.25 488.34 C-150.88 495.12 -161.54 501.86 -172.24 508.53 C-178.4 512.37 -184.55 516.24 -190.69 520.12 C-197.16 524.23 -203.67 528.28 -210.19 532.31 C-226.43 542.35 -242.62 552.46 -258.72 562.73 C-266.4 567.63 -274.12 572.48 -281.86 577.29 C-287.15 580.59 -292.42 583.9 -297.68 587.25 C-298.77 587.94 -299.86 588.63 -300.98 589.34 C-303.07 590.67 -305.16 592 -307.25 593.34 C-308.19 593.94 -309.13 594.53 -310.11 595.15 C-310.93 595.68 -311.76 596.2 -312.61 596.75 C-315.11 598.06 -317.24 598.51 -320 599 C-320.23 562.92 -320.41 526.84 -320.51 490.77 C-320.52 486.51 -320.54 482.25 -320.55 477.99 C-320.55 477.14 -320.55 476.3 -320.56 475.42 C-320.6 461.69 -320.68 447.96 -320.77 434.23 C-320.87 420.14 -320.92 406.06 -320.94 391.97 C-320.95 383.28 -321 374.58 -321.08 365.89 C-321.13 359.93 -321.15 353.97 -321.14 348.01 C-321.13 344.57 -321.14 341.13 -321.19 337.69 C-321.24 333.96 -321.23 330.23 -321.2 326.5 C-321.23 325.42 -321.26 324.33 -321.29 323.21 C-321.23 320.16 -321.09 317.85 -320 315 C-316.97 312.25 -313.73 310.63 -310 309 C-308.85 308.41 -307.71 307.81 -306.52 307.2 C-305.48 306.7 -304.45 306.2 -303.38 305.69 C-297.63 302.88 -292.06 299.84 -286.51 296.68 C-280.86 293.47 -275.15 290.35 -269.44 287.25 C-261.83 283.12 -254.27 278.91 -246.75 274.62 C-237.35 269.28 -227.87 264.12 -218.34 259.02 C-210.02 254.56 -201.76 250.02 -193.52 245.41 C-179.64 237.65 -165.75 229.92 -151.75 222.38 C-142.98 217.65 -134.3 212.8 -125.64 207.87 C-118.81 204 -111.92 200.22 -105 196.5 C-88.51 187.62 -72.26 178.3 -56 169 C-77.65 177.03 -99.28 185.08 -120.88 193.25 C-121.79 193.6 -122.71 193.94 -123.65 194.3 C-127.45 195.74 -131.25 197.17 -135.05 198.61 C-146.8 203.06 -158.56 207.5 -170.31 211.94 C-171.42 212.36 -172.53 212.77 -173.67 213.2 C-190.96 219.73 -208.26 226.23 -225.56 232.71 C-239.21 237.82 -252.84 242.96 -266.46 248.14 C-275.91 251.73 -285.36 255.3 -294.81 258.88 C-295.75 259.23 -296.69 259.59 -297.66 259.95 C-315.18 266.57 -332.71 273.14 -350.24 279.71 C-367.35 286.11 -384.43 292.57 -401.5 299.06 C-403.57 299.85 -405.64 300.64 -407.72 301.43 C-408.72 301.81 -409.72 302.19 -410.75 302.58 C-412.71 303.33 -414.67 304.07 -416.64 304.82 C-417.58 305.18 -418.52 305.54 -419.49 305.91 C-420.41 306.26 -421.33 306.61 -422.28 306.97 C-424.93 307.97 -427.57 308.98 -430.21 309.99 C-434.09 311.46 -437.97 312.93 -441.85 314.4 C-443.22 314.92 -444.59 315.44 -445.96 315.96 C-447.8 316.66 -449.63 317.35 -451.46 318.04 C-452.47 318.42 -453.48 318.81 -454.52 319.2 C-457 320 -457 320 -460 320 C-463.13 292.16 -463.13 292.16 -458.42 284.4 C-454.02 280.15 -448.57 277.81 -443.02 275.4 C-437.68 272.92 -432.87 269.63 -427.94 266.44 C-425.9 265.16 -423.86 263.89 -421.82 262.63 C-416.64 259.4 -411.47 256.14 -406.31 252.88 C-397.91 247.55 -389.45 242.31 -380.98 237.08 C-369.31 229.87 -357.71 222.55 -346.14 215.18 C-340.08 211.31 -334 207.48 -327.9 203.68 C-322.85 200.54 -317.83 197.37 -312.81 194.19 C-306.13 189.96 -299.42 185.78 -292.69 181.62 C-284.49 176.57 -276.36 171.43 -268.25 166.24 C-261.02 161.63 -253.73 157.12 -246.43 152.63 C-240.54 149 -234.75 145.25 -229.05 141.33 C-226.03 139.27 -222.97 137.41 -219.75 135.66 C-214.37 132.71 -209.3 129.33 -204.19 125.94 C-195.95 120.51 -187.63 115.3 -179.14 110.28 C-173.09 106.69 -167.18 102.93 -161.29 99.07 C-156.25 95.78 -151.15 92.62 -146 89.5 C-140.1 85.93 -134.27 82.27 -128.5 78.5 C-122.03 74.28 -115.48 70.2 -108.87 66.19 C-100.97 61.39 -93.17 56.45 -85.37 51.5 C-81.52 49.06 -77.67 46.62 -73.81 44.19 C-72.65 43.45 -72.65 43.45 -71.47 42.71 C-64.04 38.02 -56.59 33.37 -49.13 28.72 C-42.21 24.4 -35.32 20.02 -28.44 15.62 C-22.09 11.58 -15.74 7.54 -9.31 3.62 C-8.71 3.25 -8.1 2.87 -7.48 2.49 C-4.74 0.84 -3.26 0 0 0 Z " fill="#A18B58" transform="translate(460,0)"/>
</svg>
