<?xml version="1.0" encoding="UTF-8"?>
<!-- Generator: https://ezgif.com/png-to-svg -->
<svg version="1.1" xmlns="http://www.w3.org/2000/svg" width="512" height="512" viewBox="26.322 25.612 172.351 172.351" preserveAspectRatio="xMidYMid meet">
<path d="M0 0 C0.5 0.43 0.99 0.87 1.5 1.31 C0.84 2.63 0.18 3.95 -0.5 5.31 C-4.5 5.31 -4.5 5.31 -6.41 4.34 C-10.49 2.34 -15.08 2.79 -19.5 3.31 C-23.98 5.47 -26.49 7.76 -28.5 12.31 C-30.01 18.02 -29.39 22.25 -26.5 27.31 C-22.34 31.27 -19.72 32.46 -14.06 32.5 C-13.09 32.51 -12.13 32.53 -11.13 32.54 C-8.27 32.5 -8.27 32.5 -5.5 30.31 C-4.76 26.74 -4.76 26.74 -4.5 23.31 C-5.37 23.44 -5.37 23.44 -6.26 23.57 C-10.92 24.17 -14.85 24.38 -19.5 23.31 C-15.72 17.63 -15.72 17.63 -12.59 16.82 C-10.43 16.72 -8.34 16.79 -6.19 16.94 C-5.08 16.98 -5.08 16.98 -3.94 17.02 C-2.13 17.09 -0.31 17.2 1.5 17.31 C3.85 22.01 3.11 28.23 2.5 33.31 C0.44 37.02 -2.88 38.05 -6.69 39.69 C-14.44 40.96 -21.28 40.4 -27.78 35.77 C-32.87 31.47 -35.92 27 -36.75 20.25 C-37.13 13.28 -35.33 7.54 -30.7 2.26 C-21.61 -6.26 -10.25 -6.92 0 0 Z " fill="#FDFDFD" transform="translate(121.5,94.6875)"/>
<path d="M0 0 C5.75 4.94 8.48 10.96 9.44 18.38 C8.65 24.93 6.71 30.88 1.75 35.44 C-1.94 38.23 -5.54 39.76 -10 41 C-12.24 40.57 -12.24 40.57 -14 40 C-14 38.35 -14 36.7 -14 35 C-12.99 34.65 -12.99 34.65 -11.95 34.3 C-5.73 32.03 -2.06 30.11 1 24 C1.53 18.72 1.64 14.33 -0.69 9.5 C-4.75 5.11 -7.46 3.81 -13.44 3.56 C-18.39 3.71 -21.27 4.55 -25 8 C-27.52 11.42 -28.77 14.95 -30 19 C-31.98 19 -33.96 19 -36 19 C-35.46 11.3 -33.39 5.98 -27.69 0.69 C-19.25 -6.05 -8.82 -5.54 0 0 Z " fill="#FDFDFD" transform="translate(180,94)"/>
<path d="M0 0 C0.8 0 1.6 0.01 2.43 0.01 C4.41 0.03 6.39 0.04 8.38 0.06 C8.42 2.06 8.42 4.06 8.38 6.06 C7.38 7.06 7.38 7.06 4 7.16 C2.6 7.15 1.21 7.14 -0.19 7.12 C-0.9 7.12 -1.61 7.12 -2.34 7.11 C-4.1 7.1 -5.86 7.08 -7.62 7.06 C-7.62 11.02 -7.62 14.98 -7.62 19.06 C-5.37 19.05 -5.37 19.05 -3.07 19.03 C-1.11 19.02 0.85 19.01 2.81 19 C4.3 18.99 4.3 18.99 5.82 18.97 C6.77 18.97 7.71 18.97 8.68 18.96 C10 18.96 10 18.96 11.33 18.95 C13.38 19.06 13.38 19.06 14.38 20.06 C14.5 22.56 14.5 22.56 14.38 25.06 C12.57 26.87 9.83 26.19 7.41 26.2 C6.2 26.2 4.99 26.2 3.74 26.2 C2.46 26.2 1.19 26.19 -0.12 26.19 C-1.4 26.19 -2.67 26.2 -3.99 26.2 C-5.8 26.2 -5.8 26.2 -7.66 26.2 C-8.78 26.19 -9.9 26.19 -11.05 26.19 C-13.62 26.06 -13.62 26.06 -14.62 25.06 C-14.93 21.99 -14.9 18.9 -14.94 15.81 C-14.97 14.95 -15 14.09 -15.03 13.21 C-15.07 8.97 -15.01 6.69 -12.73 3.02 C-8.79 -0.64 -5.12 -0.05 0 0 Z " fill="#FEFEFE" transform="translate(50.625,108.9375)"/>
<path d="M0 0 C8.91 0 17.82 0 27 0 C27.33 1.98 27.66 3.96 28 6 C24.39 7.8 20.23 7.31 16.25 7.38 C14.91 7.43 14.91 7.43 13.54 7.49 C9.06 7.55 5.95 7.47 2.36 4.6 C0 2 0 2 0 0 Z " fill="#FEFEFE" transform="translate(37,90)"/>
<path d="M0 0 C2.38 0.88 2.38 0.88 4.38 3.88 C4.19 6.44 4.19 6.44 3.38 8.88 C0.38 10.88 0.38 10.88 -2.19 10.62 C-4.62 9.88 -4.62 9.88 -6.62 7.88 C-7 5.44 -7 5.44 -6.62 2.88 C-4.4 0.4 -3.34 -0.16 0 0 Z " fill="#FCFCFC" transform="translate(167.625,107.125)"/>
</svg>
