<?xml version="1.0" encoding="UTF-8"?>
<!-- Generator: https://ezgif.com/png-to-svg -->
<svg version="1.1" xmlns="http://www.w3.org/2000/svg" width="512" height="512" viewBox="-6.832 -7.024 113.674 113.674" preserveAspectRatio="xMidYMid meet">
<path d="M0 0 C1.09 0.01 1.09 0.01 2.2 0.01 C2.96 0.01 3.72 0.01 4.51 0.01 C7.03 0.01 9.56 0.02 12.09 0.03 C13.83 0.03 15.58 0.03 17.33 0.03 C21.94 0.03 26.54 0.04 31.15 0.06 C35.85 0.07 40.55 0.07 45.25 0.08 C54.47 0.09 63.7 0.1 72.93 0.12 C72.61 0.9 72.29 1.68 71.96 2.49 C71.04 4.84 70.42 7.1 69.8 9.55 C67.76 15.49 65.57 19.99 59.93 23.12 C46.57 26.2 31.46 24.17 17.93 23.12 C17.6 25.43 17.27 27.74 16.93 30.12 C41.68 30.62 41.68 30.62 66.93 31.12 C64.05 34 62.54 34.9 58.86 36.31 C57.99 36.66 57.11 37 56.2 37.35 C53.93 38.12 53.93 38.12 51.93 38.12 C51.67 38.67 51.41 39.21 51.15 39.77 C48.43 45 45.59 49.43 40.93 53.12 C35.33 54.46 30.07 54.18 24.36 53.81 C22.86 53.76 21.36 53.71 19.86 53.66 C16.21 53.54 12.57 53.35 8.93 53.12 C8.27 56.09 7.61 59.06 6.93 62.12 C24.01 61.02 40.96 59.45 57.93 57.12 C56.43 61.74 53.77 65.12 50.74 68.81 C49.8 69.96 48.87 71.11 47.95 72.26 C47.45 72.86 46.96 73.46 46.46 74.08 C44.84 76.16 44.84 76.16 43.39 78.72 C40.49 83.48 38.47 86.54 32.9 87.91 C30.93 88.23 28.96 88.51 26.99 88.75 C24.78 89.1 22.57 89.46 20.36 89.83 C19.18 90.02 17.99 90.22 16.77 90.42 C9.6 91.74 2.55 93.61 -4.51 95.44 C-6.61 95.98 -8.72 96.52 -10.82 97.05 C-12.65 97.52 -14.48 98 -16.31 98.47 C-19.07 99.12 -19.07 99.12 -21.07 99.12 C-21.07 98.46 -21.07 97.8 -21.07 97.12 C-16.12 94.48 -11.17 91.84 -6.07 89.12 C-13 88.79 -19.93 88.46 -27.07 88.12 C-25.95 79.12 -25.95 79.12 -24.46 74.74 C-23.97 73.27 -23.97 73.27 -23.47 71.78 C-23.12 70.74 -22.76 69.71 -22.4 68.64 C-22.03 67.55 -21.67 66.46 -21.29 65.34 C-20.12 61.87 -18.94 58.4 -17.76 54.94 C-16.6 51.49 -15.43 48.04 -14.27 44.59 C-13.55 42.45 -12.82 40.31 -12.09 38.17 C-11.42 36.18 -10.75 34.18 -10.09 32.19 C-9.37 30.01 -8.62 27.85 -7.86 25.69 C-7.28 23.98 -7.28 23.98 -6.69 22.24 C-6.16 20.7 -6.16 20.7 -5.61 19.13 C-4.96 15.5 -5.73 13.51 -7.07 10.12 C-7.09 7.6 -7.09 7.6 -6.76 5.31 C-6.66 4.54 -6.56 3.77 -6.46 2.98 C-5.67 -0.81 -3.43 0.01 0 0 Z " fill="#000734" transform="translate(27.07440185546875,-0.124420166015625)"/>
<path d="M0 0 C1.09 0.01 1.09 0.01 2.2 0.01 C2.96 0.01 3.72 0.01 4.51 0.01 C7.03 0.01 9.56 0.02 12.09 0.03 C13.83 0.03 15.58 0.03 17.33 0.03 C21.94 0.03 26.54 0.04 31.15 0.06 C35.85 0.07 40.55 0.07 45.25 0.08 C54.47 0.09 63.7 0.1 72.93 0.12 C72.61 0.9 72.29 1.68 71.96 2.49 C71.04 4.84 70.42 7.1 69.8 9.55 C67.76 15.49 65.57 19.99 59.93 23.12 C46.57 26.2 31.46 24.17 17.93 23.12 C17.6 25.43 17.27 27.74 16.93 30.12 C41.68 30.62 41.68 30.62 66.93 31.12 C64.05 34 62.54 34.9 58.86 36.31 C57.99 36.66 57.11 37 56.2 37.35 C53.93 38.12 53.93 38.12 51.93 38.12 C51.67 38.67 51.41 39.21 51.15 39.77 C48.43 45 45.59 49.43 40.93 53.12 C35.33 54.46 30.07 54.18 24.36 53.81 C22.86 53.76 21.36 53.71 19.86 53.66 C16.21 53.54 12.57 53.35 8.93 53.12 C8.27 56.09 7.61 59.06 6.93 62.12 C24.01 61.02 40.96 59.45 57.93 57.12 C56.43 61.74 53.77 65.12 50.74 68.81 C49.8 69.96 48.87 71.11 47.95 72.26 C47.45 72.86 46.96 73.46 46.46 74.08 C44.84 76.16 44.84 76.16 43.39 78.72 C40.49 83.48 38.47 86.54 32.9 87.91 C30.93 88.23 28.96 88.51 26.99 88.75 C24.78 89.1 22.57 89.46 20.36 89.83 C19.18 90.02 17.99 90.22 16.77 90.42 C9.6 91.74 2.55 93.61 -4.51 95.44 C-6.61 95.98 -8.72 96.52 -10.82 97.05 C-12.65 97.52 -14.48 98 -16.31 98.47 C-19.07 99.12 -19.07 99.12 -21.07 99.12 C-21.07 98.46 -21.07 97.8 -21.07 97.12 C-16.12 94.48 -11.17 91.84 -6.07 89.12 C-13 88.79 -19.93 88.46 -27.07 88.12 C-25.95 79.12 -25.95 79.12 -24.46 74.74 C-23.97 73.27 -23.97 73.27 -23.47 71.78 C-23.12 70.74 -22.76 69.71 -22.4 68.64 C-22.03 67.55 -21.67 66.46 -21.29 65.34 C-20.12 61.87 -18.94 58.4 -17.76 54.94 C-16.6 51.49 -15.43 48.04 -14.27 44.59 C-13.55 42.45 -12.82 40.31 -12.09 38.17 C-11.42 36.18 -10.75 34.18 -10.09 32.19 C-9.37 30.01 -8.62 27.85 -7.86 25.69 C-7.28 23.98 -7.28 23.98 -6.69 22.24 C-6.16 20.7 -6.16 20.7 -5.61 19.13 C-4.96 15.5 -5.73 13.51 -7.07 10.12 C-7.09 7.6 -7.09 7.6 -6.76 5.31 C-6.66 4.54 -6.56 3.77 -6.46 2.98 C-5.67 -0.81 -3.43 0.01 0 0 Z M-3.07 3.12 C-3.61 9.47 -3.61 9.47 -2.01 12.19 C-0.25 15.83 -1.92 19.64 -3.13 23.32 C-3.75 24.98 -3.75 24.98 -4.39 26.69 C-6.46 32.23 -8.23 37.82 -9.95 43.48 C-11.15 47.36 -12.39 51.21 -13.65 55.07 C-13.87 55.74 -14.09 56.41 -14.32 57.1 C-15.21 59.86 -16.12 62.61 -17.02 65.37 C-17.69 67.41 -18.36 69.46 -19.03 71.51 C-19.42 72.71 -19.81 73.91 -20.22 75.14 C-21.21 78.09 -21.21 78.09 -21.07 81.12 C-14.07 80.51 -7.3 79.21 -0.43 77.75 C2.93 77.12 2.93 77.12 6.93 77.12 C6.37 77.3 5.82 77.47 5.24 77.64 C2.72 78.43 0.2 79.21 -2.32 80 C-3.2 80.27 -4.07 80.54 -4.97 80.82 C-5.81 81.08 -6.66 81.34 -7.53 81.62 C-8.3 81.86 -9.08 82.1 -9.88 82.35 C-12.05 83.12 -14.04 84.05 -16.07 85.12 C-5.4 84.51 5.26 83.85 15.93 83.12 C12.63 84.44 9.33 85.76 5.93 87.12 C9.48 88.31 10.63 87.83 14.18 86.81 C19.08 85.43 23.47 85.02 28.55 84.81 C33.17 84.28 35.91 83.58 38.96 80.1 C41.17 77.17 43.09 74.09 44.9 70.9 C46.45 68.22 48.19 65.68 49.93 63.12 C45.13 62.94 40.78 63.26 36.05 64.09 C28.74 65.25 21.51 65.56 14.11 65.75 C12.2 65.81 12.2 65.81 10.24 65.87 C7.14 65.96 4.03 66.05 0.93 66.12 C1.29 65.06 1.65 64.01 2.02 62.91 C2.49 61.53 2.96 60.14 3.43 58.75 C3.66 58.05 3.9 57.35 4.15 56.63 C5.46 52.96 5.46 52.96 5.93 49.12 C7.24 49.13 7.24 49.13 8.57 49.14 C11.8 49.16 15.03 49.17 18.26 49.18 C19.66 49.18 21.06 49.19 22.46 49.2 C24.47 49.21 26.48 49.22 28.48 49.22 C29.69 49.23 30.9 49.23 32.15 49.24 C34.83 49.44 34.83 49.44 35.93 48.12 C36.92 48.12 37.91 48.12 38.93 48.12 C41.15 46.31 41.15 46.31 42.93 44.12 C42.93 43.46 42.93 42.8 42.93 42.12 C42.18 42.27 41.43 42.41 40.66 42.56 C39.18 42.84 39.18 42.84 37.68 43.12 C36.7 43.31 35.73 43.5 34.72 43.69 C31.93 44.12 31.93 44.12 27.93 44.12 C28.82 43.82 28.82 43.82 29.73 43.51 C32.42 42.6 35.11 41.67 37.8 40.75 C38.74 40.43 39.67 40.12 40.64 39.79 C41.54 39.48 42.43 39.17 43.36 38.85 C44.18 38.57 45.01 38.29 45.86 37.99 C48.1 37.21 48.1 37.21 49.93 35.12 C37.06 35.12 24.19 35.12 10.93 35.12 C12.25 30.83 13.57 26.54 14.93 22.12 C14.93 21.13 14.93 20.14 14.93 19.12 C16.19 19.19 17.45 19.25 18.75 19.31 C23.45 19.53 28.15 19.67 32.86 19.78 C34.89 19.84 36.92 19.93 38.95 20.03 C49.7 21.06 49.7 21.06 59.63 17.97 C62.67 14.83 64.35 11.15 65.93 7.12 C66.59 5.8 67.25 4.48 67.93 3.12 C44.5 3.12 21.07 3.12 -3.07 3.12 Z " fill="#0085EE" transform="translate(27.07440185546875,-0.124420166015625)"/>
<path d="M0 0 C0 0.66 0 1.32 0 2 C-3.57 3.54 -7.16 5.02 -10.75 6.5 C-12.24 7.14 -12.24 7.14 -13.77 7.8 C-21.05 10.76 -27.16 11.56 -35 11 C-34 9 -34 9 -31.09 7.95 C-29.8 7.57 -28.52 7.2 -27.23 6.84 C-26.55 6.64 -25.87 6.44 -25.17 6.24 C-23.73 5.82 -22.29 5.41 -20.84 5 C-18.64 4.38 -16.44 3.74 -14.23 3.1 C-12.84 2.7 -11.44 2.3 -10.04 1.9 C-9.38 1.71 -8.72 1.52 -8.04 1.32 C-5.25 0.54 -2.92 0 0 0 Z " fill="#0087F5" transform="translate(52,89)"/>
<path d="M0 0 C-1.67 3.94 -4.23 6.79 -7 10 C-7 7 -7 7 -5 5 C-5.65 5.06 -6.31 5.12 -6.98 5.18 C-13.99 5.83 -20.99 6.43 -28 7 C-27.67 6.34 -27.34 5.68 -27 5 C-24.84 4.31 -24.84 4.31 -22.01 3.71 C-21 3.49 -19.98 3.27 -18.93 3.05 C-17.86 2.83 -16.79 2.6 -15.69 2.38 C-14.63 2.15 -13.57 1.92 -12.48 1.68 C-8.2 0.77 -4.39 0 0 0 Z " fill="#0066BF" transform="translate(90,6)"/>
<path d="M0 0 C-1.56 3.52 -3.69 6.27 -6.12 9.25 C-6.85 10.14 -7.57 11.03 -8.32 11.95 C-8.87 12.63 -9.43 13.3 -10 14 C-10.66 13.67 -11.32 13.34 -12 13 C-10.68 11.02 -9.36 9.04 -8 7 C-11.3 7.33 -14.6 7.66 -18 8 C-18 7.34 -18 6.68 -18 6 C-17.29 5.81 -16.58 5.61 -15.85 5.41 C-14.93 5.15 -14.01 4.89 -13.06 4.62 C-11.69 4.24 -11.69 4.24 -10.29 3.85 C-7.83 3.23 -7.83 3.23 -7 1 C-4 0 -4 0 0 0 Z " fill="#0084C9" transform="translate(71,67)"/>
<path d="M0 0 C4.29 0 8.58 0 13 0 C9.94 3.06 8.3 3.83 4.31 5.19 C3.32 5.53 2.32 5.88 1.3 6.23 C0.54 6.48 -0.22 6.74 -1 7 C-0.67 4.69 -0.34 2.38 0 0 Z " fill="#00B0FC" transform="translate(81,31)"/>
<path d="M0 0 C-0.99 0.71 -0.99 0.71 -2 1.44 C-2.99 2.21 -2.99 2.21 -4 3 C-4 3.33 -4 3.66 -4 4 C-13.41 6.3 -13.41 6.3 -18 6 C-16.58 3.17 -14.55 2.96 -11.68 2 C-10.98 1.77 -10.28 1.55 -9.56 1.31 C-8.52 0.96 -8.52 0.96 -7.46 0.59 C-2.25 -1.13 -2.25 -1.13 0 0 Z " fill="#006BC1" transform="translate(72,39)"/>
<path d="M0 0 C0.33 0.99 0.66 1.98 1 3 C0 4 0 4 -3.56 4.06 C-4.7 4.04 -5.83 4.02 -7 4 C-7 3.01 -7 2.02 -7 1 C-4.51 0.31 -2.62 0 0 0 Z " fill="#00B6FD" transform="translate(73,59)"/>
<path d="M0 0 C0.81 0.1 1.62 0.2 2.45 0.31 C3.06 0.39 3.68 0.48 4.31 0.56 C2.31 2.56 2.31 2.56 -0.07 2.76 C-0.98 2.73 -1.88 2.71 -2.81 2.69 C-4.18 2.66 -4.18 2.66 -5.57 2.63 C-6.27 2.61 -6.97 2.59 -7.69 2.56 C-7.69 1.9 -7.69 1.24 -7.69 0.56 C-4.59 -0.47 -3.16 -0.41 0 0 Z " fill="#0069A1" transform="translate(60.6875,72.4375)"/>
</svg>
