<?xml version="1.0" encoding="UTF-8"?>
<!-- Generator: https://ezgif.com/webp-to-svg -->
<svg version="1.1" xmlns="http://www.w3.org/2000/svg" width="50" height="50">
<path d="M0 0 C13.2 0 26.4 0 40 0 C36.31 9.23 36.31 9.23 33 12 C29.52 12.85 26.24 12.67 22.69 12.44 C21.76 12.41 20.82 12.37 19.87 12.34 C17.57 12.26 15.29 12.14 13 12 C13 12.66 13 13.32 13 14 C20.92 14.33 28.84 14.66 37 15 C37 15.66 37 16.32 37 17 C36.48 17.22 35.96 17.44 35.43 17.66 C34.73 17.98 34.03 18.3 33.31 18.62 C32.63 18.93 31.94 19.23 31.24 19.54 C28.72 20.99 28.72 20.99 26.75 24.12 C23.6 27.41 23.6 27.41 20.01 27.59 C18.57 27.55 17.13 27.48 15.69 27.38 C14.58 27.33 14.58 27.33 13.44 27.29 C11.63 27.22 9.81 27.12 8 27 C8 27.99 8 28.98 8 30 C20.52 29.28 20.52 29.28 33 28 C30.37 33.64 26.59 41.05 20.99 44.09 C19.13 44.56 19.13 44.56 16 45 C15.34 45.66 14.68 46.32 14 47 C7.01 50.43 0.69 50.32 -7 50 C-6 47 -6 47 -3.94 45.81 C-3.3 45.54 -2.66 45.28 -2 45 C-5.96 44.51 -5.96 44.51 -10 44 C-9.43 39.26 -8.49 35.01 -6.93 30.51 C-6.33 28.71 -6.33 28.71 -5.71 26.87 C-4.86 24.38 -4.01 21.89 -3.15 19.4 C-2.75 18.2 -2.35 17 -1.93 15.76 C-1.56 14.68 -1.19 13.6 -0.81 12.48 C0.34 8.13 0.34 8.13 0 0 Z " fill="#007FE6" transform="translate(10,0)"/>
<path d="M0 0 C11.55 0 23.1 0 35 0 C32.6 2.4 31.67 2.34 28.38 2.62 C27.56 2.7 26.74 2.77 25.9 2.85 C25.27 2.9 24.65 2.95 24 3 C26.31 3.66 28.62 4.32 31 5 C31 5.66 31 6.32 31 7 C23.74 7 16.48 7 9 7 C8.34 9.97 7.68 12.94 7 16 C12.61 16 18.22 16 24 16 C20.81 18.13 18.73 18.5 15 19 C15 19.66 15 20.32 15 21 C18.46 20.51 18.46 20.51 22 20 C19.15 22.85 16.2 22.46 12.38 22.62 C11.67 22.66 10.96 22.7 10.23 22.74 C8.49 22.84 6.75 22.92 5 23 C4.01 25.64 3.02 28.28 2 31 C9.59 30.67 17.18 30.34 25 30 C22.42 36.46 22.42 36.46 20 39 C17.98 39.61 17.98 39.61 15.62 39.75 C14.75 39.81 13.88 39.86 12.98 39.92 C7.65 40.06 2.33 40.08 -3 40 C0 38 0 38 4 37 C-1.94 37.49 -1.94 37.49 -8 38 C-7.35 30.26 -4.98 23.43 -2.44 16.13 C-2.13 15.2 -1.82 14.27 -1.5 13.31 C-1.21 12.48 -0.92 11.65 -0.63 10.8 C0.29 7.18 0.29 7.18 0 0 Z " fill="#00062D" transform="translate(12,2)"/>
<path d="M0 0 C-2.4 6.65 -2.4 6.65 -5 9 C-7.99 9.64 -10.95 9.87 -14 10 C-14 9.01 -14 8.02 -14 7 C-15.32 7 -16.64 7 -18 7 C-18 6.34 -18 5.68 -18 5 C-18.66 4.67 -19.32 4.34 -20 4 C-16.5 2.49 -13.19 1.53 -9.44 0.88 C-8.51 0.71 -7.58 0.54 -6.62 0.37 C-4 0 -4 0 0 0 Z " fill="#00204E" transform="translate(37,32)"/>
<path d="M0 0 C0.33 0.66 0.66 1.32 1 2 C2.2 1.67 3.39 1.34 4.62 1 C8.16 0.11 11.34 -0.18 15 0 C13 2 13 2 11 3 C12.92 2.94 12.92 2.94 14.88 2.88 C17.05 2.8 17.05 2.8 19 3 C19.66 3.66 20.32 4.32 21 5 C20.01 5 19.02 5 18 5 C17.67 5.99 17.34 6.98 17 8 C11.4 7.58 6.28 7.08 1 5 C0.67 3.35 0.34 1.7 0 0 Z " fill="#006ACB" transform="translate(3,38)"/>
<path d="M0 0 C1.32 0 2.64 0 4 0 C4 0.66 4 1.32 4 2 C3.34 2 2.68 2 2 2 C2 2.66 2 3.32 2 4 C2.99 4.33 3.98 4.66 5 5 C5 5.66 5 6.32 5 7 C2.69 7 0.38 7 -2 7 C-1.12 1.12 -1.12 1.12 0 0 Z " fill="#00A5F0" transform="translate(21,10)"/>
<path d="M0 0 C0 0.99 0 1.98 0 3 C-0.66 3.66 -1.32 4.32 -2 5 C-2.66 5 -3.32 5 -4 5 C-4 4.34 -4 3.68 -4 3 C-6.64 3 -9.28 3 -12 3 C-7.86 0.24 -4.93 -0.14 0 0 Z " fill="#004E99" transform="translate(45,3)"/>
<path d="M0 0 C-0.33 0.99 -0.66 1.98 -1 3 C-5.62 3 -10.24 3 -15 3 C-11.86 0.91 -10.58 0.66 -6.94 0.38 C-6.06 0.3 -5.18 0.23 -4.28 0.15 C-2.85 0.06 -1.43 0 0 0 Z " fill="#0093FC" transform="translate(35,24)"/>
<path d="M0 0 C1.98 0 3.96 0 6 0 C6 0.66 6 1.32 6 2 C3.69 2.66 1.38 3.32 -1 4 C-0.67 2.68 -0.34 1.36 0 0 Z " fill="#00B0FC" transform="translate(41,15)"/>
<path d="M0 0 C6.05 -0.2 6.05 -0.2 8 0 C8.66 0.66 9.32 1.32 10 2 C6.69 2.69 6.69 2.69 3 3 C1.06 1.56 1.06 1.56 0 0 Z " fill="#005FA4" transform="translate(14,41)"/>
</svg>
