<?xml version="1.0" encoding="UTF-8"?>
<!-- Generator: https://ezgif.com/png-to-svg -->
<svg version="1.1" xmlns="http://www.w3.org/2000/svg" width="512" height="512" viewBox="-39.689 -36.781 683.39 683.39" preserveAspectRatio="xMidYMid meet">
<path d="M0 0 C3.03 0.01 6.07 0 9.1 -0.01 C23.49 -0.01 37.71 0.23 51.91 2.82 C52.88 2.99 53.84 3.17 54.84 3.34 C77.95 7.63 101.07 13.31 122.22 23.81 C125.14 25.23 125.14 25.23 128.71 26.44 C134.03 28.4 138.9 31.14 143.85 33.88 C144.83 34.42 145.82 34.96 146.83 35.52 C153.4 39.16 159.8 42.94 166.04 47.13 C167.59 48.14 169.14 49.14 170.69 50.15 C172.37 51.25 174.05 52.34 175.73 53.44 C176.54 53.97 177.36 54.5 178.2 55.04 C178.96 55.54 179.71 56.04 180.49 56.56 C181.17 57 181.86 57.45 182.56 57.91 C183.05 58.31 183.54 58.72 184.04 59.13 C184.04 59.79 184.04 60.45 184.04 61.13 C184.91 61.53 184.91 61.53 185.79 61.95 C193.07 65.77 199.1 71.89 205.05 77.49 C207.82 80.12 207.82 80.12 211.04 82.13 C211.04 82.79 211.04 83.45 211.04 84.13 C211.7 84.13 212.36 84.13 213.04 84.13 C213.04 84.79 213.04 85.45 213.04 86.13 C213.7 86.13 214.36 86.13 215.04 86.13 C215.04 86.79 215.04 87.45 215.04 88.13 C216 88.53 216 88.53 216.98 88.94 C219.04 90.13 219.04 90.13 220.04 93.13 C220.7 93.13 221.36 93.13 222.04 93.13 C223.38 94.42 223.38 94.42 224.98 96.32 C225.6 97.06 226.23 97.8 226.87 98.56 C227.59 99.41 228.3 100.26 229.04 101.13 C229.85 102.05 230.66 102.97 231.49 103.92 C285.87 166.21 307.46 246.25 302.9 327.63 C298.51 392.11 268.96 454.48 226.04 502.13 C224.98 503.33 223.91 504.53 222.85 505.72 C217.33 511.89 217.33 511.89 215.04 514.13 C214.38 514.13 213.72 514.13 213.04 514.13 C213.04 514.79 213.04 515.45 213.04 516.13 C212.38 516.13 211.72 516.13 211.04 516.13 C211.04 516.79 211.04 517.45 211.04 518.13 C210.38 518.13 209.72 518.13 209.04 518.13 C209.04 518.79 209.04 519.45 209.04 520.13 C207.58 521.62 207.58 521.62 205.55 523.33 C204.82 523.95 204.08 524.57 203.33 525.21 C202.57 525.85 201.82 526.48 201.04 527.13 C200.36 527.7 199.69 528.28 198.99 528.87 C190 536.49 180.87 543.61 171.04 550.13 C169.92 550.9 168.8 551.68 167.68 552.45 C166.06 553.56 166.06 553.56 164.41 554.69 C163.45 555.35 162.49 556.02 161.5 556.7 C159.04 558.13 159.04 558.13 156.04 558.13 C156.04 558.79 156.04 559.45 156.04 560.13 C150.04 563.13 150.04 563.13 148.12 564.09 C144.87 565.7 141.63 567.33 138.43 569.02 C67.94 605.82 -15.81 610.13 -91.17 586.7 C-97.92 584.53 -104.44 581.92 -110.96 579.13 C-112.23 578.6 -113.5 578.08 -114.77 577.55 C-132.02 570.3 -148.17 561.12 -163.96 551.13 C-164.99 550.48 -166.02 549.84 -167.09 549.17 C-171.59 546.28 -171.59 546.28 -172.96 545.13 C-172.96 544.47 -172.96 543.81 -172.96 543.13 C-173.68 542.88 -174.4 542.64 -175.14 542.38 C-183.61 538.63 -190.65 530.69 -197.4 524.47 C-199.62 522.44 -201.87 520.47 -204.15 518.51 C-208.26 514.92 -212.39 511.26 -215.96 507.13 C-215.96 506.47 -215.96 505.81 -215.96 505.13 C-216.62 505.13 -217.28 505.13 -217.96 505.13 C-219.69 503.45 -219.69 503.45 -221.59 501.26 C-222.22 500.54 -222.85 499.82 -223.5 499.08 C-224.96 497.13 -224.96 497.13 -224.96 495.13 C-225.62 495.13 -226.28 495.13 -226.96 495.13 C-228.47 493.45 -228.47 493.45 -230.09 491.26 C-230.62 490.54 -231.16 489.82 -231.72 489.08 C-232.96 487.13 -232.96 487.13 -232.96 485.13 C-233.62 485.13 -234.28 485.13 -234.96 485.13 C-236.18 483.74 -236.18 483.74 -237.54 481.8 C-238.03 481.09 -238.53 480.38 -239.05 479.65 C-239.58 478.88 -240.1 478.11 -240.65 477.32 C-241.19 476.54 -241.74 475.75 -242.3 474.95 C-246.34 469.1 -250.26 463.2 -253.96 457.13 C-254.32 456.56 -254.68 455.99 -255.04 455.4 C-262.89 442.86 -269.07 429.69 -274.96 416.13 C-275.28 415.4 -275.6 414.66 -275.93 413.9 C-289.21 382.99 -297.02 348.2 -297.16 314.52 C-297.17 313.44 -297.18 312.36 -297.18 311.25 C-297.19 308.97 -297.2 306.68 -297.2 304.4 C-297.21 301 -297.24 297.59 -297.27 294.19 C-297.37 275.2 -295.75 256.51 -291.65 237.94 C-291.43 236.96 -291.22 235.97 -291 234.96 C-284.74 206.78 -275.17 177.46 -259.7 152.89 C-258.28 150.64 -256.92 148.38 -255.57 146.09 C-249.33 135.57 -242.51 125.74 -234.96 116.13 C-234.23 115.2 -233.5 114.26 -232.74 113.3 C-230.83 110.89 -228.9 108.51 -226.96 106.13 C-225.76 104.62 -225.76 104.62 -224.54 103.08 C-223.33 101.56 -223.33 101.56 -222.09 100.01 C-221.35 99.07 -220.61 98.14 -219.84 97.19 C-218.91 96.17 -218.91 96.17 -217.96 95.13 C-217.3 95.13 -216.64 95.13 -215.96 95.13 C-215.96 94.47 -215.96 93.81 -215.96 93.13 C-215.3 93.13 -214.64 93.13 -213.96 93.13 C-213.71 92.55 -213.45 91.97 -213.19 91.37 C-209.4 84.47 -201.89 79.19 -195.96 74.13 C-195.04 73.32 -194.12 72.51 -193.16 71.67 C-186.94 66.24 -180.51 61.22 -173.77 56.44 C-173.03 55.91 -172.29 55.38 -171.52 54.84 C-170.83 54.35 -170.13 53.87 -169.42 53.37 C-168.49 52.72 -168.49 52.72 -167.54 52.06 C-165.96 51.13 -165.96 51.13 -163.96 51.13 C-163.96 50.47 -163.96 49.81 -163.96 49.13 C-161.7 47.62 -159.44 46.24 -157.09 44.88 C-155.69 44.06 -154.3 43.25 -152.9 42.43 C-152.22 42.03 -151.54 41.64 -150.84 41.23 C-148.54 39.88 -146.28 38.48 -144.02 37.07 C-139.77 34.52 -135.39 32.24 -130.96 30.01 C-130.32 29.68 -129.68 29.36 -129.02 29.02 C-124.61 26.83 -120.13 24.95 -115.55 23.15 C-112.99 22.14 -110.44 21.08 -107.9 20.02 C-93.23 13.97 -78.4 9.75 -62.96 6.13 C-61.81 5.86 -61.81 5.86 -60.63 5.58 C-40.56 0.83 -20.53 -0.04 0 0 Z " fill="#02060B" transform="translate(296.9609375,-0.13037109375)"/>
<path d="M0 0 C3.03 0.01 6.07 0 9.1 -0.01 C23.49 -0.01 37.71 0.23 51.91 2.82 C52.88 2.99 53.84 3.17 54.84 3.34 C77.95 7.63 101.07 13.31 122.22 23.81 C125.14 25.23 125.14 25.23 128.71 26.44 C134.03 28.4 138.9 31.14 143.85 33.88 C144.83 34.42 145.82 34.96 146.83 35.52 C153.4 39.16 159.8 42.94 166.04 47.13 C167.59 48.14 169.14 49.14 170.69 50.15 C172.37 51.25 174.05 52.34 175.73 53.44 C176.54 53.97 177.36 54.5 178.2 55.04 C178.96 55.54 179.71 56.04 180.49 56.56 C181.17 57 181.86 57.45 182.56 57.91 C183.05 58.31 183.54 58.72 184.04 59.13 C184.04 59.79 184.04 60.45 184.04 61.13 C184.91 61.53 184.91 61.53 185.79 61.95 C193.07 65.77 199.1 71.89 205.05 77.49 C207.82 80.12 207.82 80.12 211.04 82.13 C211.04 82.79 211.04 83.45 211.04 84.13 C211.7 84.13 212.36 84.13 213.04 84.13 C213.04 84.79 213.04 85.45 213.04 86.13 C213.7 86.13 214.36 86.13 215.04 86.13 C215.04 86.79 215.04 87.45 215.04 88.13 C216 88.53 216 88.53 216.98 88.94 C219.04 90.13 219.04 90.13 220.04 93.13 C220.7 93.13 221.36 93.13 222.04 93.13 C223.38 94.42 223.38 94.42 224.98 96.32 C225.6 97.06 226.23 97.8 226.87 98.56 C227.59 99.41 228.3 100.26 229.04 101.13 C229.85 102.05 230.66 102.97 231.49 103.92 C285.87 166.21 307.46 246.25 302.9 327.63 C298.51 392.11 268.96 454.48 226.04 502.13 C224.98 503.33 223.91 504.53 222.85 505.72 C217.33 511.89 217.33 511.89 215.04 514.13 C214.38 514.13 213.72 514.13 213.04 514.13 C213.04 514.79 213.04 515.45 213.04 516.13 C212.38 516.13 211.72 516.13 211.04 516.13 C211.04 516.79 211.04 517.45 211.04 518.13 C210.38 518.13 209.72 518.13 209.04 518.13 C209.04 518.79 209.04 519.45 209.04 520.13 C207.58 521.62 207.58 521.62 205.55 523.33 C204.82 523.95 204.08 524.57 203.33 525.21 C202.57 525.85 201.82 526.48 201.04 527.13 C200.36 527.7 199.69 528.28 198.99 528.87 C190 536.49 180.87 543.61 171.04 550.13 C169.92 550.9 168.8 551.68 167.68 552.45 C166.06 553.56 166.06 553.56 164.41 554.69 C163.45 555.35 162.49 556.02 161.5 556.7 C159.04 558.13 159.04 558.13 156.04 558.13 C156.04 558.79 156.04 559.45 156.04 560.13 C150.04 563.13 150.04 563.13 148.12 564.09 C144.87 565.7 141.63 567.33 138.43 569.02 C67.94 605.82 -15.81 610.13 -91.17 586.7 C-97.92 584.53 -104.44 581.92 -110.96 579.13 C-112.23 578.6 -113.5 578.08 -114.77 577.55 C-132.02 570.3 -148.17 561.12 -163.96 551.13 C-164.99 550.48 -166.02 549.84 -167.09 549.17 C-171.59 546.28 -171.59 546.28 -172.96 545.13 C-172.96 544.47 -172.96 543.81 -172.96 543.13 C-173.68 542.88 -174.4 542.64 -175.14 542.38 C-183.61 538.63 -190.65 530.69 -197.4 524.47 C-199.62 522.44 -201.87 520.47 -204.15 518.51 C-208.26 514.92 -212.39 511.26 -215.96 507.13 C-215.96 506.47 -215.96 505.81 -215.96 505.13 C-216.62 505.13 -217.28 505.13 -217.96 505.13 C-219.69 503.45 -219.69 503.45 -221.59 501.26 C-222.22 500.54 -222.85 499.82 -223.5 499.08 C-224.96 497.13 -224.96 497.13 -224.96 495.13 C-225.62 495.13 -226.28 495.13 -226.96 495.13 C-228.47 493.45 -228.47 493.45 -230.09 491.26 C-230.62 490.54 -231.16 489.82 -231.72 489.08 C-232.96 487.13 -232.96 487.13 -232.96 485.13 C-233.62 485.13 -234.28 485.13 -234.96 485.13 C-236.18 483.74 -236.18 483.74 -237.54 481.8 C-238.03 481.09 -238.53 480.38 -239.05 479.65 C-239.58 478.88 -240.1 478.11 -240.65 477.32 C-241.19 476.54 -241.74 475.75 -242.3 474.95 C-246.34 469.1 -250.26 463.2 -253.96 457.13 C-254.32 456.56 -254.68 455.99 -255.04 455.4 C-262.89 442.86 -269.07 429.69 -274.96 416.13 C-275.28 415.4 -275.6 414.66 -275.93 413.9 C-289.21 382.99 -297.02 348.2 -297.16 314.52 C-297.17 313.44 -297.18 312.36 -297.18 311.25 C-297.19 308.97 -297.2 306.68 -297.2 304.4 C-297.21 301 -297.24 297.59 -297.27 294.19 C-297.37 275.2 -295.75 256.51 -291.65 237.94 C-291.43 236.96 -291.22 235.97 -291 234.96 C-284.74 206.78 -275.17 177.46 -259.7 152.89 C-258.28 150.64 -256.92 148.38 -255.57 146.09 C-249.33 135.57 -242.51 125.74 -234.96 116.13 C-234.23 115.2 -233.5 114.26 -232.74 113.3 C-230.83 110.89 -228.9 108.51 -226.96 106.13 C-225.76 104.62 -225.76 104.62 -224.54 103.08 C-223.33 101.56 -223.33 101.56 -222.09 100.01 C-221.35 99.07 -220.61 98.14 -219.84 97.19 C-218.91 96.17 -218.91 96.17 -217.96 95.13 C-217.3 95.13 -216.64 95.13 -215.96 95.13 C-215.96 94.47 -215.96 93.81 -215.96 93.13 C-215.3 93.13 -214.64 93.13 -213.96 93.13 C-213.71 92.55 -213.45 91.97 -213.19 91.37 C-209.4 84.47 -201.89 79.19 -195.96 74.13 C-195.04 73.32 -194.12 72.51 -193.16 71.67 C-186.94 66.24 -180.51 61.22 -173.77 56.44 C-173.03 55.91 -172.29 55.38 -171.52 54.84 C-170.83 54.35 -170.13 53.87 -169.42 53.37 C-168.49 52.72 -168.49 52.72 -167.54 52.06 C-165.96 51.13 -165.96 51.13 -163.96 51.13 C-163.96 50.47 -163.96 49.81 -163.96 49.13 C-161.7 47.62 -159.44 46.24 -157.09 44.88 C-155.69 44.06 -154.3 43.25 -152.9 42.43 C-152.22 42.03 -151.54 41.64 -150.84 41.23 C-148.54 39.88 -146.28 38.48 -144.02 37.07 C-139.77 34.52 -135.39 32.24 -130.96 30.01 C-130.32 29.68 -129.68 29.36 -129.02 29.02 C-124.61 26.83 -120.13 24.95 -115.55 23.15 C-112.99 22.14 -110.44 21.08 -107.9 20.02 C-93.23 13.97 -78.4 9.75 -62.96 6.13 C-61.81 5.86 -61.81 5.86 -60.63 5.58 C-40.56 0.83 -20.53 -0.04 0 0 Z M-9.34 15.63 C-10.19 15.9 -11.05 16.17 -11.93 16.45 C-22.55 19.87 -33.25 23.44 -43.36 28.17 C-48.25 30.38 -53.25 31.59 -58.46 32.82 C-93.13 41.53 -125.93 56.84 -153.96 79.13 C-154.87 79.85 -155.78 80.56 -156.71 81.3 C-171.47 93.14 -185.28 106.22 -196.96 121.13 C-197.76 122.13 -198.56 123.12 -199.39 124.15 C-205.5 131.82 -210.79 139.88 -215.85 148.28 C-216.83 149.91 -217.83 151.53 -218.83 153.15 C-234.34 178.73 -244.34 207.84 -249.96 237.13 C-250.21 238.29 -250.47 239.45 -250.73 240.64 C-254.05 256.05 -255.35 271.38 -254.96 287.13 C-248.68 281.94 -242.96 276.27 -237.21 270.51 C-236.26 269.55 -235.3 268.6 -234.35 267.65 C-233.44 266.75 -232.54 265.84 -231.6 264.9 C-230.78 264.08 -229.96 263.26 -229.12 262.42 C-227.22 260.41 -225.56 258.38 -223.96 256.13 C-219.95 256.67 -218.02 258.64 -215.21 261.44 C-214.01 262.61 -214.01 262.61 -212.79 263.81 C-210.96 266.13 -210.96 266.13 -210.96 270.13 C-211.95 270.46 -212.94 270.79 -213.96 271.13 C-215.35 272.51 -215.35 272.51 -216.75 274.29 C-220.23 278.4 -223.95 282.19 -227.77 285.97 C-228.38 286.58 -229 287.19 -229.63 287.81 C-232.21 290.37 -234.8 292.91 -237.38 295.46 C-239.29 297.33 -241.18 299.21 -243.08 301.09 C-243.67 301.67 -244.26 302.25 -244.87 302.84 C-246.27 304.23 -247.62 305.68 -248.96 307.13 C-248.96 307.79 -248.96 308.45 -248.96 309.13 C-249.62 309.13 -250.28 309.13 -250.96 309.13 C-251.26 316.58 -250.4 323.45 -248.96 330.76 C-248.77 331.76 -248.58 332.76 -248.38 333.8 C-247.92 336.24 -247.44 338.69 -246.96 341.13 C-246.3 341.13 -245.64 341.13 -244.96 341.13 C-243.49 339.68 -243.49 339.68 -241.95 337.75 C-237.6 332.64 -232.88 327.95 -228.12 323.22 C-226.7 321.81 -225.28 320.4 -223.86 318.99 C-220.9 316.04 -217.93 313.09 -214.97 310.15 C-212.52 307.71 -210.06 305.28 -207.62 302.84 C-205.79 301.02 -203.96 299.2 -202.13 297.39 C-197.73 293 -193.47 288.57 -189.44 283.84 C-187.13 281.17 -184.65 278.69 -182.15 276.19 C-181.43 275.47 -181.43 275.47 -180.71 274.74 C-177.21 271.26 -177.21 271.26 -174.96 270.13 C-174.71 270.71 -174.47 271.29 -174.21 271.88 C-172.78 274.46 -171.18 276.19 -168.96 278.13 C-168.3 278.13 -167.64 278.13 -166.96 278.13 C-166.8 276.62 -166.8 276.62 -166.63 275.08 C-166.2 271.24 -165.74 267.41 -165.26 263.58 C-165.07 262.02 -164.89 260.46 -164.72 258.9 C-162.59 239.66 -156.51 220.4 -147.18 203.44 C-145.81 201.27 -145.81 201.27 -145.96 199.13 C-145.3 199.13 -144.64 199.13 -143.96 199.13 C-143.9 200.02 -143.9 200.02 -143.85 200.93 C-142.71 215.33 -137.85 225.91 -128.96 237.13 C-130.44 240.54 -132.39 242.78 -134.96 245.44 C-138.82 249.65 -142.08 254.01 -145.21 258.76 C-145.64 259.4 -146.07 260.05 -146.51 260.72 C-148.66 264.01 -150.61 267.34 -152.46 270.82 C-154.87 274.74 -157.98 275.65 -162.21 277.09 C-171.84 280.74 -181.33 287.88 -186.34 297.01 C-187.67 300 -188.19 302.63 -188.57 305.87 C-189.77 312.13 -193.23 315.29 -197.84 319.44 C-199.27 320.79 -200.71 322.14 -202.14 323.49 C-202.81 324.12 -203.49 324.75 -204.18 325.4 C-206.33 327.49 -208.13 329.76 -209.96 332.13 C-213.03 335.27 -216.19 338.32 -219.36 341.35 C-221.61 343.51 -223.84 345.68 -226.07 347.86 C-227.25 349 -228.44 350.14 -229.63 351.27 C-231.36 352.92 -233.06 354.58 -234.77 356.25 C-235.3 356.75 -235.84 357.25 -236.39 357.77 C-238.08 359.38 -238.08 359.38 -239.96 362.13 C-240 365.26 -240 365.26 -238.96 368.13 C-238.77 368.81 -238.58 369.49 -238.39 370.19 C-238.08 371.08 -238.08 371.08 -237.77 372 C-237.44 372.98 -237.44 372.98 -237.1 373.99 C-236.75 374.99 -236.75 374.99 -236.4 376.01 C-236.16 376.69 -235.93 377.38 -235.69 378.09 C-235.12 379.77 -234.54 381.45 -233.96 383.13 C-233.3 383.13 -232.64 383.13 -231.96 383.13 C-231.78 384.35 -231.59 385.56 -231.4 386.82 C-226 410.42 -204 438.09 -186.96 455.13 C-186.63 456.9 -186.3 458.67 -186.01 460.45 C-184.83 467.53 -183.45 473.79 -179.96 480.13 C-179.49 481.05 -179.02 481.97 -178.54 482.92 C-167.69 502.97 -149.99 515.09 -128.66 522.19 C-121.18 524.1 -114.08 524.17 -106.38 523.96 C-94.96 523.69 -85.75 524.17 -75.05 528.37 C-70.79 529.92 -66.39 531.05 -62.02 532.26 C-57.12 533.62 -52.26 535.01 -47.45 536.67 C-19.39 546.11 17.61 545.57 46.04 538.13 C47.19 537.83 47.19 537.83 48.37 537.53 C53.32 536.23 58.19 534.74 63.04 533.13 C63.68 532.92 64.33 532.7 64.99 532.48 C68 531.49 71 530.47 73.99 529.44 C75.34 529 76.69 528.57 78.04 528.13 C79.04 527.79 80.05 527.44 81.09 527.09 C89.97 524.25 97.71 523.77 106.98 524.13 C117.78 524.33 126.89 524.14 137.04 520.13 C138.61 519.55 138.61 519.55 140.2 518.96 C143.21 517.79 146.12 516.5 149.04 515.13 C150.41 514.5 150.41 514.5 151.8 513.86 C167.4 506.11 179.14 491.93 186.04 476.13 C186.56 475.03 187.07 473.93 187.61 472.79 C189.07 469.06 189.6 465.84 190.1 461.88 C191.29 454.86 194.07 451.13 199.09 446.19 C217.11 428.25 231.19 400.63 240.04 377.13 C240.44 376.14 240.84 375.16 241.25 374.14 C241.64 373.17 242.02 372.2 242.41 371.19 C242.75 370.34 243.09 369.48 243.44 368.6 C244.16 365.62 243.92 364.07 243.04 361.13 C241.3 358.86 241.3 358.86 239.03 356.77 C238.21 355.96 237.39 355.16 236.54 354.33 C235.67 353.5 234.81 352.67 233.91 351.82 C224.18 342.39 224.18 342.39 220.66 338.23 C217.77 334.84 214.63 331.76 211.39 328.7 C210.38 327.73 209.36 326.76 208.35 325.79 C206.79 324.3 205.22 322.81 203.63 321.35 C197.57 315.74 192.89 311.29 192.33 302.58 C191.44 295 184.34 288.93 178.9 284.2 C174.87 281.28 170.6 279.33 166.02 277.42 C159.95 274.79 157.48 272.78 154.41 266.82 C151.48 261.36 148.21 256.42 144.35 251.57 C143.9 251 143.45 250.43 142.98 249.84 C140.82 247.15 138.73 244.86 136.14 242.54 C134.04 240.13 134.04 240.13 134.02 237.63 C135.16 234.83 136.55 232.6 138.29 230.13 C144.69 220.34 147.32 210.57 149.04 199.13 C162.09 224.26 169.84 249.8 171.04 278.13 C174.36 276.57 176.6 274.92 179.04 272.13 C179.04 271.47 179.04 270.81 179.04 270.13 C185.55 275.63 191.59 281.53 197.6 287.57 C198.51 288.47 199.42 289.37 200.35 290.3 C201.24 291.19 202.13 292.08 203.04 293 C203.84 293.79 204.63 294.59 205.44 295.41 C207.47 297.54 209.41 299.7 211.33 301.92 C215.16 306.33 219.24 310.45 223.38 314.57 C224.15 315.33 224.91 316.1 225.7 316.89 C228.13 319.3 230.55 321.72 232.98 324.13 C234.63 325.78 236.29 327.43 237.94 329.08 C241.97 333.1 246 337.12 250.04 341.13 C251.57 338.18 252.48 335.63 253.11 332.36 C253.37 331 253.37 331 253.64 329.61 C253.81 328.67 253.98 327.72 254.16 326.76 C254.35 325.82 254.53 324.89 254.71 323.93 C255.45 320.04 255.45 320.04 256.04 316.13 C256.17 315.16 256.31 314.2 256.44 313.2 C255.87 308.86 253.44 306.8 250.38 303.92 C249.5 303.06 249.5 303.06 248.61 302.19 C246.75 300.36 244.86 298.56 242.98 296.76 C240.52 294.38 238.08 291.99 235.63 289.61 C235.04 289.04 234.45 288.47 233.85 287.88 C230.17 284.29 226.68 280.61 223.36 276.69 C221.7 274.73 219.93 272.92 218.1 271.13 C217.52 270.55 216.93 269.98 216.32 269.38 C215.9 268.97 215.48 268.56 215.04 268.13 C216.5 264.76 218.38 262.52 220.98 259.94 C222.01 258.9 222.01 258.9 223.07 257.84 C225.04 256.13 225.04 256.13 228.04 255.13 C228.31 255.73 228.58 256.33 228.87 256.94 C230.01 259.07 231.12 260.46 232.82 262.15 C233.38 262.72 233.93 263.28 234.51 263.85 C235.11 264.44 235.71 265.04 236.32 265.65 C236.94 266.26 237.56 266.88 238.19 267.51 C239.49 268.81 240.79 270.1 242.1 271.4 C244.1 273.38 246.1 275.38 248.1 277.37 C249.36 278.63 250.62 279.89 251.89 281.15 C252.49 281.75 253.09 282.35 253.71 282.96 C256.01 285.8 256.01 285.8 259.04 287.13 C259.57 269.13 257.78 251.74 254.04 234.13 C253.81 233.07 253.81 233.07 253.59 232 C251.37 221.79 248.57 211.97 245.04 202.13 C244.81 201.49 244.58 200.84 244.34 200.18 C234.06 171.51 220.24 144.87 201.04 121.13 C199.83 119.62 199.83 119.62 198.6 118.07 C187.61 104.53 175.04 91.57 161.04 81.13 C160.4 80.65 159.76 80.17 159.1 79.67 C148.51 71.69 137.63 64.58 126.04 58.13 C125.4 57.77 124.77 57.41 124.11 57.04 C109.76 48.94 94.44 42.7 78.73 37.76 C78.05 37.54 77.37 37.33 76.68 37.11 C72.89 35.94 69.09 34.87 65.23 33.91 C64.42 33.7 63.61 33.5 62.77 33.29 C61.23 32.91 59.68 32.54 58.13 32.18 C52.22 30.73 47.01 28.32 41.53 25.71 C35.59 23.02 29.46 20.93 23.29 18.82 C22.03 18.37 20.77 17.93 19.5 17.48 C8.82 13.8 1.48 12.03 -9.34 15.63 Z " fill="#E62B00" transform="translate(296.9609375,-0.13037109375)"/>
<path d="M0 0 C3.03 0.01 6.07 0 9.1 -0.01 C23.49 -0.01 37.71 0.23 51.91 2.82 C52.88 2.99 53.84 3.17 54.84 3.34 C77.95 7.63 101.07 13.31 122.22 23.81 C125.14 25.23 125.14 25.23 128.71 26.44 C134.03 28.4 138.9 31.14 143.85 33.88 C144.83 34.42 145.82 34.96 146.83 35.52 C153.4 39.16 159.8 42.94 166.04 47.13 C167.59 48.14 169.14 49.14 170.69 50.15 C172.37 51.25 174.05 52.34 175.73 53.44 C176.54 53.97 177.36 54.5 178.2 55.04 C178.96 55.54 179.71 56.04 180.49 56.56 C181.17 57 181.86 57.45 182.56 57.91 C183.05 58.31 183.54 58.72 184.04 59.13 C184.04 59.79 184.04 60.45 184.04 61.13 C184.91 61.53 184.91 61.53 185.79 61.95 C193.07 65.77 199.1 71.89 205.05 77.49 C207.82 80.12 207.82 80.12 211.04 82.13 C211.04 82.79 211.04 83.45 211.04 84.13 C211.7 84.13 212.36 84.13 213.04 84.13 C213.04 84.79 213.04 85.45 213.04 86.13 C213.7 86.13 214.36 86.13 215.04 86.13 C215.04 86.79 215.04 87.45 215.04 88.13 C216 88.53 216 88.53 216.98 88.94 C219.04 90.13 219.04 90.13 220.04 93.13 C220.7 93.13 221.36 93.13 222.04 93.13 C223.38 94.42 223.38 94.42 224.98 96.32 C225.6 97.06 226.23 97.8 226.87 98.56 C227.59 99.41 228.3 100.26 229.04 101.13 C229.85 102.05 230.66 102.97 231.49 103.92 C285.87 166.21 307.46 246.25 302.9 327.63 C298.51 392.11 268.96 454.48 226.04 502.13 C224.98 503.33 223.91 504.53 222.85 505.72 C217.33 511.89 217.33 511.89 215.04 514.13 C214.38 514.13 213.72 514.13 213.04 514.13 C213.04 514.79 213.04 515.45 213.04 516.13 C212.38 516.13 211.72 516.13 211.04 516.13 C211.04 516.79 211.04 517.45 211.04 518.13 C210.38 518.13 209.72 518.13 209.04 518.13 C209.04 518.79 209.04 519.45 209.04 520.13 C207.58 521.62 207.58 521.62 205.55 523.33 C204.82 523.95 204.08 524.57 203.33 525.21 C202.57 525.85 201.82 526.48 201.04 527.13 C200.36 527.7 199.69 528.28 198.99 528.87 C190 536.49 180.87 543.61 171.04 550.13 C169.92 550.9 168.8 551.68 167.68 552.45 C166.06 553.56 166.06 553.56 164.41 554.69 C163.45 555.35 162.49 556.02 161.5 556.7 C159.04 558.13 159.04 558.13 156.04 558.13 C156.04 558.79 156.04 559.45 156.04 560.13 C150.04 563.13 150.04 563.13 148.12 564.09 C144.87 565.7 141.63 567.33 138.43 569.02 C67.94 605.82 -15.81 610.13 -91.17 586.7 C-97.92 584.53 -104.44 581.92 -110.96 579.13 C-112.23 578.6 -113.5 578.08 -114.77 577.55 C-132.02 570.3 -148.17 561.12 -163.96 551.13 C-164.99 550.48 -166.02 549.84 -167.09 549.17 C-171.59 546.28 -171.59 546.28 -172.96 545.13 C-172.96 544.47 -172.96 543.81 -172.96 543.13 C-173.68 542.88 -174.4 542.64 -175.14 542.38 C-183.61 538.63 -190.65 530.69 -197.4 524.47 C-199.62 522.44 -201.87 520.47 -204.15 518.51 C-208.26 514.92 -212.39 511.26 -215.96 507.13 C-215.96 506.47 -215.96 505.81 -215.96 505.13 C-216.62 505.13 -217.28 505.13 -217.96 505.13 C-219.69 503.45 -219.69 503.45 -221.59 501.26 C-222.22 500.54 -222.85 499.82 -223.5 499.08 C-224.96 497.13 -224.96 497.13 -224.96 495.13 C-225.62 495.13 -226.28 495.13 -226.96 495.13 C-228.47 493.45 -228.47 493.45 -230.09 491.26 C-230.62 490.54 -231.16 489.82 -231.72 489.08 C-232.96 487.13 -232.96 487.13 -232.96 485.13 C-233.62 485.13 -234.28 485.13 -234.96 485.13 C-236.18 483.74 -236.18 483.74 -237.54 481.8 C-238.03 481.09 -238.53 480.38 -239.05 479.65 C-239.58 478.88 -240.1 478.11 -240.65 477.32 C-241.19 476.54 -241.74 475.75 -242.3 474.95 C-246.34 469.1 -250.26 463.2 -253.96 457.13 C-254.32 456.56 -254.68 455.99 -255.04 455.4 C-262.89 442.86 -269.07 429.69 -274.96 416.13 C-275.28 415.4 -275.6 414.66 -275.93 413.9 C-289.21 382.99 -297.02 348.2 -297.16 314.52 C-297.17 313.44 -297.18 312.36 -297.18 311.25 C-297.19 308.97 -297.2 306.68 -297.2 304.4 C-297.21 301 -297.24 297.59 -297.27 294.19 C-297.37 275.2 -295.75 256.51 -291.65 237.94 C-291.43 236.96 -291.22 235.97 -291 234.96 C-284.74 206.78 -275.17 177.46 -259.7 152.89 C-258.28 150.64 -256.92 148.38 -255.57 146.09 C-249.33 135.57 -242.51 125.74 -234.96 116.13 C-234.23 115.2 -233.5 114.26 -232.74 113.3 C-230.83 110.89 -228.9 108.51 -226.96 106.13 C-225.76 104.62 -225.76 104.62 -224.54 103.08 C-223.33 101.56 -223.33 101.56 -222.09 100.01 C-221.35 99.07 -220.61 98.14 -219.84 97.19 C-218.91 96.17 -218.91 96.17 -217.96 95.13 C-217.3 95.13 -216.64 95.13 -215.96 95.13 C-215.96 94.47 -215.96 93.81 -215.96 93.13 C-215.3 93.13 -214.64 93.13 -213.96 93.13 C-213.71 92.55 -213.45 91.97 -213.19 91.37 C-209.4 84.47 -201.89 79.19 -195.96 74.13 C-195.04 73.32 -194.12 72.51 -193.16 71.67 C-186.94 66.24 -180.51 61.22 -173.77 56.44 C-173.03 55.91 -172.29 55.38 -171.52 54.84 C-170.83 54.35 -170.13 53.87 -169.42 53.37 C-168.49 52.72 -168.49 52.72 -167.54 52.06 C-165.96 51.13 -165.96 51.13 -163.96 51.13 C-163.96 50.47 -163.96 49.81 -163.96 49.13 C-161.7 47.62 -159.44 46.24 -157.09 44.88 C-155.69 44.06 -154.3 43.25 -152.9 42.43 C-152.22 42.03 -151.54 41.64 -150.84 41.23 C-148.54 39.88 -146.28 38.48 -144.02 37.07 C-139.77 34.52 -135.39 32.24 -130.96 30.01 C-130.32 29.68 -129.68 29.36 -129.02 29.02 C-124.61 26.83 -120.13 24.95 -115.55 23.15 C-112.99 22.14 -110.44 21.08 -107.9 20.02 C-93.23 13.97 -78.4 9.75 -62.96 6.13 C-61.81 5.86 -61.81 5.86 -60.63 5.58 C-40.56 0.83 -20.53 -0.04 0 0 Z M-44.96 11.13 C-46.05 11.31 -47.14 11.49 -48.26 11.67 C-50.71 12.08 -53.15 12.53 -55.59 13.01 C-56.44 13.17 -57.28 13.33 -58.16 13.5 C-85.12 18.85 -110.72 28.22 -134.96 41.13 C-135.93 41.64 -135.93 41.64 -136.92 42.16 C-158.45 53.6 -177.48 69.28 -194.96 86.13 C-195.83 86.96 -196.7 87.78 -197.59 88.63 C-203.2 94.09 -208.09 100.01 -212.96 106.13 C-213.6 106.89 -214.23 107.64 -214.88 108.42 C-225.5 121.19 -234.18 135.5 -241.96 150.13 C-242.74 151.58 -242.74 151.58 -243.53 153.06 C-251.49 168.44 -257.93 184.57 -262.96 201.13 C-263.29 202.17 -263.29 202.17 -263.62 203.24 C-272.76 232.95 -275.1 262.73 -275.21 293.63 C-275.22 294.56 -275.22 295.49 -275.23 296.45 C-275.28 308.83 -274.59 320.87 -272.96 333.13 C-272.82 334.24 -272.69 335.35 -272.55 336.5 C-272.2 339.29 -271.84 342.09 -271.46 344.88 C-271.34 345.8 -271.23 346.72 -271.11 347.66 C-270.47 352.39 -269.57 356.62 -267.96 361.13 C-267.6 362.56 -267.25 363.99 -266.92 365.42 C-264.3 376.65 -260.96 387.32 -256.77 398.05 C-256 400.04 -255.26 402.03 -254.53 404.03 C-243.16 434.4 -225.55 462.73 -203.45 486.44 C-201.46 488.59 -199.54 490.78 -197.63 493 C-187.18 504.97 -174.93 515.03 -161.96 524.13 C-161.33 524.57 -160.71 525.01 -160.06 525.47 C-153 530.4 -145.74 534.97 -138.27 539.26 C-137.27 539.84 -137.27 539.84 -136.24 540.44 C-132.79 542.37 -131 543.13 -126.96 543.13 C-126.96 543.79 -126.96 544.45 -126.96 545.13 C-57.4 577.42 22.1 584.21 95.04 559.13 C96.01 558.81 96.97 558.48 97.97 558.15 C112.62 553.21 126.45 547.51 140.04 540.13 C140.7 539.78 141.36 539.42 142.04 539.06 C172.52 522.6 200.1 498.7 221.04 471.13 C221.67 470.31 222.3 469.48 222.95 468.63 C228.38 461.36 233.13 453.72 237.88 446 C239.5 443.39 241.18 440.83 242.85 438.26 C247.11 431.58 250.55 424.74 253.18 417.27 C254.2 414.73 255.49 412.41 256.79 410.01 C264 395.82 267.63 379.69 271.46 364.32 C271.95 362.48 272.48 360.66 273.03 358.84 C274.04 355.13 274.71 351.52 275.29 347.72 C275.4 347.03 275.5 346.34 275.61 345.63 C275.84 344.18 276.05 342.73 276.27 341.27 C276.6 339.1 276.93 336.92 277.27 334.75 C279.61 319.47 280.27 304.32 280.29 288.88 C280.29 288.01 280.29 287.13 280.29 286.23 C280.3 265.67 278.26 245.81 273.6 225.76 C273.38 224.78 273.15 223.8 272.92 222.79 C272.48 220.98 272.48 220.98 272.04 219.13 C271.84 218.29 271.65 217.45 271.45 216.58 C269.6 208.87 267.28 201.36 264.76 193.85 C264.1 191.87 263.45 189.89 262.8 187.91 C260.63 181.38 258.28 175.21 255.04 169.13 C254.45 167.66 253.88 166.18 253.35 164.69 C241.42 134.37 219.72 106.83 196.98 83.94 C196.27 83.23 196.27 83.23 195.55 82.5 C172.9 59.96 144.75 42.27 115.32 30.08 C113.81 29.45 112.31 28.81 110.81 28.16 C98.54 22.83 85.95 19.39 72.98 16.26 C72.18 16.06 71.38 15.87 70.56 15.67 C47.99 10.25 25.82 7.76 2.6 7.81 C-0.39 7.82 -3.39 7.79 -6.38 7.77 C-19.49 7.73 -32.05 8.9 -44.96 11.13 Z " fill="#02060B" transform="translate(296.9609375,-0.13037109375)"/>
<path d="M0 0 C8.51 4.48 16.47 9.22 24.12 15.06 C24.7 15.49 25.27 15.92 25.85 16.35 C41.58 28.13 53.97 40.92 62.12 59.06 C62.47 59.82 62.81 60.57 63.16 61.35 C64.99 65.75 65.23 69.35 65.12 74.06 C63.17 74.14 63.17 74.14 61.17 74.21 C44.28 74.64 44.28 74.64 28.12 79.06 C28.69 79.08 29.26 79.09 29.84 79.11 C47.77 79.62 64.7 81.79 82.12 86.06 C83.87 86.44 85.62 86.82 87.38 87.19 C91.12 88.06 91.12 88.06 92.12 89.06 C93.72 104.44 87.53 115.13 78.44 126.81 C67.36 141.06 61.74 153.7 61.12 172.06 C60.5 172.05 59.88 172.03 59.24 172.01 C42.32 171.65 28.44 173.16 12.51 179.08 C5.71 181.52 -0.84 182.28 -7.74 179.34 C-17.33 173.6 -23.15 163.88 -27.88 154.06 C-27.88 153.4 -27.88 152.74 -27.88 152.06 C-31.84 152.06 -35.8 152.06 -39.88 152.06 C-40.06 153.01 -40.25 153.96 -40.44 154.94 C-41.98 160.38 -45.5 164.61 -48.88 169.06 C-49.29 169.66 -49.7 170.25 -50.13 170.86 C-54.02 176.12 -59.78 179.03 -65.88 181.06 C-72.05 181.47 -76.42 180.46 -82.12 178.19 C-88.27 175.86 -94.1 174.22 -100.65 173.39 C-102.88 173.06 -102.88 173.06 -104.88 172.06 C-106.69 171.98 -108.5 171.96 -110.32 171.96 C-111.93 171.97 -111.93 171.97 -113.58 171.97 C-114.71 171.98 -115.84 171.99 -117 172 C-118.14 172 -119.27 172.01 -120.44 172.01 C-123.25 172.03 -126.06 172.04 -128.88 172.06 C-128.98 170.95 -129.09 169.84 -129.21 168.7 C-130.45 156.64 -130.45 156.64 -133.88 145.06 C-134.18 144.27 -134.48 143.48 -134.79 142.66 C-137.14 137.31 -140.29 133.32 -144.31 129.12 C-153.64 119.39 -160.09 107.03 -160.12 93.31 C-160.06 91.56 -159.99 89.81 -159.88 88.06 C-138.2 82.77 -117.19 79.65 -94.88 79.06 C-107.6 76 -119.78 74.36 -132.88 74.06 C-131.9 66.44 -130.52 59.85 -126.88 53.06 C-126.24 51.88 -126.24 51.88 -125.6 50.67 C-121.74 43.87 -117.02 37.93 -111.88 32.06 C-111.29 31.4 -110.71 30.73 -110.12 30.05 C-92.42 11.16 -67.39 -1.89 -43.88 -11.94 C-43.17 -12.25 -42.47 -12.56 -41.75 -12.87 C-28.98 -18.15 -11.29 -5.84 0 0 Z " fill="#E84800" transform="translate(332.875,37.9375)"/>
<path d="M0 0 C3.66 3.36 5.7 6.29 6.79 11.25 C4.3 9.4 4.3 9.4 1.81 7.54 C-6.83 2.03 -19.12 3.01 -28.89 4.72 C-40.74 7.44 -51.66 12.3 -62.21 18.25 C-62.83 18.6 -63.44 18.94 -64.08 19.3 C-84.79 30.97 -102.65 45.55 -119.46 62.25 C-119.98 62.76 -120.49 63.27 -121.02 63.8 C-127.13 69.85 -132.86 76.03 -138.22 82.78 C-140.3 85.36 -142.48 87.81 -144.71 90.25 C-148.93 94.89 -152.9 99.7 -156.85 104.57 C-171.59 122.75 -171.59 122.75 -179.27 131.12 C-181.14 133.18 -182.96 135.27 -184.77 137.38 C-187.83 140.9 -191.09 144.16 -194.42 147.42 C-196.39 149.37 -196.39 149.37 -198.59 152.25 C-199.12 152.91 -199.66 153.57 -200.21 154.25 C-200.87 154.25 -201.53 154.25 -202.21 154.25 C-202.21 154.91 -202.21 155.57 -202.21 156.25 C-203.47 157.56 -203.47 157.56 -205.34 159.13 C-208.02 161.4 -210.69 163.67 -213.3 166.03 C-221.68 173.53 -230.42 179.73 -240.21 185.25 C-240.87 185.63 -241.53 186 -242.2 186.38 C-257.43 194.81 -273.01 199.41 -290.46 199.5 C-291.94 199.53 -291.94 199.53 -293.45 199.57 C-305.42 199.63 -315.68 196.17 -324.63 188.06 C-337.16 174.98 -340.73 159.08 -340.64 141.46 C-340.27 129.38 -337.47 117.69 -331.21 107.25 C-330.88 107.25 -330.55 107.25 -330.21 107.25 C-330.11 108.39 -330.01 109.53 -329.91 110.7 C-328.12 131.29 -328.12 131.29 -317.21 148.25 C-307.91 155.56 -297.63 156.43 -286.21 155.25 C-280.04 154.18 -274.12 152.28 -268.21 150.25 C-266.97 149.83 -265.73 149.41 -264.45 148.97 C-232.14 136.95 -205 114.35 -181.09 90.13 C-169.28 78.17 -169.28 78.17 -162.92 72.74 C-160.38 70.53 -158.06 68.16 -155.71 65.75 C-144.08 53.84 -130.8 43.22 -117.4 33.38 C-116.85 32.98 -116.3 32.57 -115.74 32.16 C-88.24 12.27 -34.06 -26.9 0 0 Z " fill="#E51900" transform="translate(466.2109375,293.74609375)"/>
<path d="M0 0 C3.4 2.67 4.32 6.22 5.56 10.19 C5.87 11.14 5.87 11.14 6.19 12.11 C6.82 14.07 7.42 16.03 8 18 C8.56 19.85 8.56 19.85 9.12 21.74 C13.08 38.15 11.02 57.5 2.25 72 C-5.42 82.26 -16.34 89.29 -29.01 91.53 C-41.34 93.21 -55.26 93.32 -67 89 C-67.99 88.64 -68.98 88.27 -70 87.9 C-98.87 76.5 -120.56 55.67 -142 34 C-140.1 29.98 -137.52 26.7 -134.75 23.25 C-133.76 22 -132.77 20.76 -131.78 19.51 C-131.06 18.61 -131.06 18.61 -130.33 17.69 C-127.82 14.51 -125.41 11.26 -123 8 C-119.61 9.41 -117.03 11.54 -114.23 13.88 C-96.57 28.67 -74.05 42.62 -51.09 46.61 C-49 47 -49 47 -46 48 C-33.33 48.97 -22.03 47.99 -11.56 39.94 C-2.49 31.16 -1.06 20.01 -0.44 8.06 C-0.37 6.89 -0.37 6.89 -0.31 5.7 C-0.2 3.8 -0.1 1.9 0 0 Z " fill="#E61000" transform="translate(462,401)"/>
<path d="M0 0 C6.04 22.84 3.78 47.15 -1 70 C-1.16 70.79 -1.32 71.57 -1.49 72.38 C-3.88 83.77 -8.02 93.36 -18 100 C-25.98 104.57 -35.04 104 -43.68 101.66 C-57.85 97.41 -70.2 89.72 -82.5 81.69 C-83.43 81.09 -84.35 80.49 -85.31 79.87 C-86.17 79.3 -87.02 78.73 -87.91 78.14 C-88.67 77.63 -89.44 77.12 -90.23 76.6 C-92.27 74.76 -92.78 73.72 -93 71 C-91.59 69.14 -91.59 69.14 -89.5 67.25 C-86.72 64.71 -84.17 62.09 -81.71 59.24 C-78.01 54.95 -74.08 50.93 -70.06 46.94 C-69.07 45.93 -69.07 45.93 -68.05 44.91 C-63.53 40.4 -58.84 36.16 -54 32 C-52.84 30.98 -51.67 29.96 -50.51 28.94 C-43.93 23.21 -37.35 17.74 -30 13 C-28.95 12.32 -27.9 11.64 -26.81 10.94 C-9.47 0 -9.47 0 0 0 Z " fill="#E42100" transform="translate(447,319)"/>
<path d="M0 0 C5.98 0.48 10.39 1.72 15.69 4.5 C16.38 4.85 17.07 5.21 17.78 5.57 C31.74 12.93 43.82 23.06 55.42 33.66 C56.85 34.96 58.28 36.24 59.74 37.5 C65.26 42.24 70.43 47.28 75.56 52.44 C76.37 53.25 77.19 54.05 78.02 54.88 C92.11 69 92.11 69 93 74 C73.17 88.4 49.62 105.3 24 103 C16.85 101.18 12.26 95.75 8 90 C6.63 87.5 5.81 85.66 5 83 C4.69 82.03 4.37 81.05 4.05 80.05 C-0.66 64.66 -2.49 49.85 -2.34 33.8 C-2.31 31.11 -2.32 28.41 -2.32 25.71 C-2.31 16.96 -2.14 8.54 0 0 Z " fill="#E52100" transform="translate(151,319)"/>
<path d="M0 0 C1.88 0.93 3.77 1.85 5.63 2.81 C17.63 8.83 29.73 11.63 43 7.94 C47.95 5.94 51.99 2.46 56 -1 C59.33 1.68 60.29 4.92 61.69 8.88 C62.12 10.09 62.56 11.3 63.01 12.55 C63.89 15.61 64.22 17.86 64 21 C62.67 21.08 62.67 21.08 61.32 21.16 C44.47 22.7 31.04 31.31 16.82 39.92 C13.75 41.75 10.61 43.46 7.47 45.16 C5.99 45.92 5.99 45.92 5 47 C-12.37 48.73 -24.04 41.89 -38.09 32.56 C-48.66 25.57 -59.4 22.21 -72 21 C-70.92 13.51 -69.09 6.91 -66 0 C-62.59 0.63 -60.38 1.94 -57.56 3.94 C-49.22 9.85 -40.89 9.88 -31 9 C-22.66 7.51 -15.61 4.66 -8.5 0.07 C-5.24 -1.33 -3.39 -0.91 0 0 Z " fill="#04070B" transform="translate(303,86)"/>
<path d="M0 0 C-0.51 4.74 -1.74 7.66 -4.44 11.56 C-5.16 12.61 -5.88 13.65 -6.62 14.72 C-9.01 18.06 -11.53 21.28 -14.06 24.5 C-21.18 33.59 -26.5 42.95 -30 54 C-34.76 48.31 -36.6 40.34 -36 33 C-37.2 33.29 -38.39 33.58 -39.62 33.88 C-47.32 35.57 -55.17 36.95 -63.06 37.14 C-70.91 36.94 -70.91 36.94 -77.44 40.56 C-79.43 44.94 -79.54 47.23 -79 52 C-78.08 54.25 -78.08 54.25 -77 56 C-77 56.99 -77 57.98 -77 59 C-80 61 -80 61 -82.43 60.88 C-88.25 58.89 -92.39 52.43 -95.5 47.31 C-98.47 40.78 -97.99 32.31 -95.98 25.57 C-95.65 24.72 -95.33 23.87 -95 23 C-96.7 22.57 -96.7 22.57 -98.44 22.12 C-99.61 21.75 -100.79 21.38 -102 21 C-102.33 20.34 -102.66 19.68 -103 19 C-102.25 18.67 -101.5 18.34 -100.73 17.99 C-97.88 16.73 -95.03 15.47 -92.18 14.2 C-90.37 13.4 -88.55 12.6 -86.74 11.79 C-80.84 9.18 -74.97 6.52 -69.14 3.78 C-64.33 1.55 -59.58 -0.33 -54.5 -1.81 C-53.84 -2.02 -53.17 -2.22 -52.49 -2.43 C-35.28 -7.62 -16.67 -6.42 0 0 Z " fill="#06080C" transform="translate(409,136)"/>
<path d="M0 0 C3.89 2.39 7.83 4.18 12.06 5.88 C13.28 6.38 14.51 6.87 15.77 7.38 C19.52 8.9 23.29 10.39 27.06 11.88 C28.73 12.55 30.39 13.22 32.06 13.88 C29.88 16.38 28.33 17.32 25.06 17.88 C25.22 18.39 25.38 18.91 25.54 19.43 C27.18 27.16 27.3 36.66 23.53 43.74 C20.49 48.16 17.17 52.42 13.06 55.88 C9.06 55.88 9.06 55.88 6.06 53.88 C6.93 49.13 6.93 49.13 8.06 46.88 C8.69 40.93 8.69 40.93 5.97 35.66 C3.81 33.24 3.19 32.91 -0.16 32.22 C-1.38 32.23 -2.61 32.24 -3.88 32.26 C-11.06 32.16 -17.88 31.16 -24.94 29.82 C-25.93 29.63 -26.91 29.45 -27.93 29.25 C-30.27 28.8 -32.61 28.35 -34.94 27.88 C-34.99 28.53 -35.04 29.18 -35.09 29.85 C-35.51 34.88 -36.13 39.29 -38 44.01 C-38.37 44.94 -38.73 45.87 -39.1 46.83 C-39.38 47.51 -39.66 48.18 -39.94 48.88 C-40.27 48.88 -40.6 48.88 -40.94 48.88 C-41.16 47.97 -41.16 47.97 -41.39 47.05 C-41.61 46.21 -41.84 45.37 -42.07 44.51 C-42.28 43.7 -42.48 42.88 -42.7 42.05 C-46.11 33.37 -51.93 25.97 -57.57 18.63 C-70.94 1.1 -70.94 1.1 -70.94 -5.12 C-68.9 -5.77 -66.86 -6.41 -64.82 -7.05 C-63.68 -7.41 -62.54 -7.77 -61.37 -8.14 C-40.96 -13.93 -17.92 -11.13 0 0 Z " fill="#05080C" transform="translate(259.94140625,141.1171875)"/>
<path d="M0 0 C0.7 0.33 1.39 0.67 2.11 1.01 C31.18 15.2 56.36 36.2 80 58 C79.7 61.17 78.94 62.06 76.57 64.29 C75.58 65.06 74.58 65.83 73.56 66.62 C69.65 69.66 69.65 69.66 66 73 C62.31 72.93 60.35 70.67 57.86 68.15 C57.35 67.62 56.84 67.08 56.31 66.53 C55.76 65.98 55.22 65.42 54.66 64.85 C52.91 63.07 51.17 61.29 49.44 59.5 C41.63 51.47 33.84 43.91 25 37 C23.81 36.02 22.61 35.05 21.43 34.07 C13.55 27.74 5.39 22.28 -3.26 17.07 C-4.85 16.09 -6.39 15.05 -7.92 13.99 C-24.29 3.41 -44.93 -5.07 -64.65 -1.52 C-70.27 0.07 -74.57 3.27 -79 7 C-78.54 2.06 -77.51 -0.49 -74 -4 C-51.46 -22.13 -23.02 -11.16 0 0 Z " fill="#E42E00" transform="translate(204,299)"/>
<path d="M0 0 C2.9 1.3 4.85 2.64 6.99 4.98 C7.53 5.56 8.06 6.15 8.62 6.75 C9.18 7.37 9.74 7.99 10.31 8.62 C10.89 9.26 11.47 9.89 12.07 10.54 C15.05 13.81 17.98 17.1 20.88 20.44 C27.82 28.41 35.55 34.69 44 41 C30.6 53.12 2.96 49.98 -13.83 49.26 C-23.54 48.73 -33.77 47.53 -42 42 C-38.79 38.69 -35.5 35.72 -31.88 32.88 C-23.76 26.3 -16.49 18.93 -9.7 10.99 C-7.69 8.63 -5.63 6.32 -3.56 4 C-2.88 3.24 -2.2 2.47 -1.5 1.69 C-1.01 1.13 -0.51 0.57 0 0 Z " fill="#E40900" transform="translate(298,462)"/>
<path d="M0 0 C0.31 7.26 -0.75 13.54 -2.56 20.56 C-2.83 21.62 -3.1 22.68 -3.38 23.77 C-7.48 39.14 -14.26 51.78 -23 65 C-34.55 63.48 -44.36 59.49 -54 53 C-52.55 48.31 -49.78 45.27 -46.44 41.81 C-42.81 38.21 -42.81 38.21 -40 34 C-39.34 34 -38.68 34 -38 34 C-38 33.34 -38 32.68 -38 32 C-37.34 32 -36.68 32 -36 32 C-35.64 31.16 -35.64 31.16 -35.28 30.29 C-30.98 22.59 -22.62 16.67 -15.82 11.25 C-11.9 8.12 -8.06 4.88 -4.21 1.65 C-2 0 -2 0 0 0 Z " fill="#05060B" transform="translate(432,338)"/>
<path d="M0 0 C19.33 8.49 36.2 29.69 50 45 C50.83 45.9 51.66 46.81 52.52 47.74 C54 50 54 50 53.8 52.01 C52.38 55.54 48.65 56.59 45.38 58.12 C44.33 58.65 44.33 58.65 43.25 59.18 C37.02 62.19 29.94 65.49 23 64 C8.63 50.28 0.4 21.24 -0.07 2.01 C-0.05 1.35 -0.03 0.68 0 0 Z " fill="#04060B" transform="translate(166,338)"/>
<path d="M0 0 C-1.03 0.52 -2.06 1.04 -3.12 1.58 C-13.86 7.1 -24.01 13.22 -34 20 C-34.78 20.53 -35.55 21.05 -36.35 21.6 C-46.1 28.25 -55.63 35.15 -65 42.31 C-66.32 43.32 -66.32 43.32 -67.67 44.35 C-71.42 47.22 -75.15 50.1 -78.81 53.08 C-79.36 53.52 -79.91 53.96 -80.48 54.41 C-81.87 55.52 -83.25 56.66 -84.62 57.79 C-87 59 -87 59 -89.43 58.51 C-92.56 56.67 -95.33 54.54 -98.12 52.25 C-106.88 45.22 -115.91 38.59 -125 32 C-126.09 31.21 -126.09 31.21 -127.2 30.4 C-142.15 19.57 -157.54 9.39 -174 1 C-167.05 -1.32 -157.16 5.28 -150.81 8.44 C-147.86 9.93 -144.93 11.46 -142 13 C-140.52 13.78 -140.52 13.78 -139.01 14.57 C-124.62 22.14 -110.56 29.97 -97.02 38.98 C-96.15 39.54 -95.28 40.11 -94.38 40.69 C-93.3 41.4 -93.3 41.4 -92.21 42.14 C-89.06 43.37 -87.23 42.92 -84 42 C-80.99 40.36 -80.99 40.36 -77.94 38.19 C-64.18 29.01 -49.59 21.21 -34.94 13.56 C-33.83 12.98 -32.73 12.4 -31.59 11.81 C-25.35 8.59 -19.08 5.67 -12.57 3.05 C-10.32 2.13 -8.13 1.14 -5.94 0.12 C-3 -1 -3 -1 0 0 Z " fill="#F15C00" transform="translate(387,285)"/>
<path d="M0 0 C6.48 3.92 11.37 8.84 16.05 14.75 C15.72 15.41 15.39 16.07 15.05 16.75 C14.44 16.19 13.84 15.62 13.22 15.04 C12.42 14.31 11.62 13.57 10.8 12.82 C9.61 11.72 9.61 11.72 8.41 10.6 C2.86 6.26 -5.25 7.05 -12.01 7.5 C-21.11 8.7 -27.69 16.92 -32.95 23.75 C-39.31 32.55 -44.32 41.95 -48.95 51.75 C-50.72 51.61 -52.5 51.47 -54.27 51.32 C-55.25 51.24 -56.24 51.15 -57.25 51.07 C-59.95 50.75 -59.95 50.75 -62.95 49.75 C-55.67 30.14 -37.01 8.69 -17.95 -0.25 C-12.02 -2.22 -5.81 -2.45 0 0 Z " fill="#DF3700" transform="translate(230.953125,223.24609375)"/>
<path d="M0 0 C11.67 7 21.66 18.75 29 30 C29.37 30.56 29.73 31.12 30.11 31.69 C37 42.3 37 42.3 37 46 C32.71 46.33 28.42 46.66 24 47 C22.73 44.37 22.73 44.37 21.44 41.69 C14.26 27.38 4.9 10.59 -11 5 C-17.99 3.32 -25.97 2.49 -32.5 5.75 C-33.32 6.49 -34.15 7.24 -35 8 C-36.42 9.11 -36.42 9.11 -37.88 10.25 C-38.58 10.83 -39.28 11.41 -40 12 C-37.76 5.26 -32.66 1.25 -26.72 -2.4 C-16.88 -7.26 -9.29 -5.19 0 0 Z " fill="#DF3700" transform="translate(392,227)"/>
<path d="M0 0 C2.71 2.47 4.51 5.21 6.44 8.31 C8.33 11.34 10.22 14.32 12.25 17.25 C17.25 25.1 18.56 32.86 18 42 C17.7 43.34 17.38 44.68 17 46 C11.84 45.06 9.17 42.02 6 38 C0.59 28.86 -1.17 21.76 -1.12 11.31 C-1.13 10.45 -1.13 9.58 -1.14 8.69 C-1.14 7.86 -1.13 7.03 -1.13 6.18 C-1.13 5.42 -1.13 4.67 -1.13 3.89 C-1 2 -1 2 0 0 Z " fill="#DD3B00" transform="translate(170,167)"/>
<path d="M0 0 C2.65 2.65 2.31 4.71 2.38 8.32 C2.35 21.68 0.5 31.97 -9 42 C-11.94 44.56 -11.94 44.56 -14 46 C-16.47 43.53 -16.31 42.02 -16.38 38.64 C-16.35 26.49 -13.33 19.31 -5.91 9.56 C-3.63 6.5 -1.8 3.37 0 0 Z " fill="#E23C00" transform="translate(427,167)"/>
<path d="M0 0 C-0.65 4.09 -2.32 7.86 -5 11 C-7.81 12.2 -9.88 12.88 -12.81 13.44 C-13.84 13.68 -13.84 13.68 -14.89 13.92 C-25.77 16.3 -25.77 16.3 -29.94 13.88 C-31.44 11.21 -31.2 9 -31 6 C-20.76 1.86 -11.1 -0.59 0 0 Z " fill="#F1F2F2" transform="translate(367,148)"/>
<path d="M0 0 C6.65 -0.3 12.39 0.8 18.81 2.44 C19.75 2.67 20.69 2.9 21.66 3.13 C25.15 4 28.59 4.86 32 6 C32.34 9.07 32.22 10.63 30.62 13.31 C25.55 16.58 20.26 15.46 14.56 14.3 C5.55 11.91 5.55 11.91 3.2 8.03 C2.8 7.03 2.41 6.03 2 5 C1.41 3.58 1.41 3.58 0.81 2.12 C0.54 1.42 0.28 0.72 0 0 Z " fill="#F2F3F3" transform="translate(231,148)"/>
<path d="M0 0 C6.46 2.65 13.3 7.3 16.27 13.76 C16.51 14.5 16.75 15.24 17 16 C16.36 15.4 16.36 15.4 15.71 14.79 C8.38 8.17 1.72 6.51 -8 6 C-8 5.67 -8 5.34 -8 5 C-4.7 5 -1.4 5 2 5 C1.34 3.35 0.68 1.7 0 0 Z " fill="#B12D02" transform="translate(230,224)"/>
<path d="M0 0 C-2.71 1.44 -5.42 2.88 -8.12 4.31 C-8.89 4.72 -9.65 5.12 -10.43 5.54 C-14.59 7.75 -18.77 9.91 -23 12 C-23.33 10.68 -23.66 9.36 -24 8 C-21.01 6.65 -18.01 5.32 -15 4 C-13.43 3.3 -13.43 3.3 -11.84 2.59 C-10.78 2.12 -9.72 1.66 -8.62 1.19 C-7.63 0.75 -6.63 0.31 -5.6 -0.14 C-3 -1 -3 -1 0 0 Z " fill="#D55201" transform="translate(387,285)"/>
<path d="M0 0 C0.33 0.99 0.66 1.98 1 3 C-15.56 20.42 -15.56 20.42 -23 23 C-25.27 22.63 -25.27 22.63 -27 22 C-26.35 21.69 -25.69 21.39 -25.02 21.07 C-14.96 16.03 -6.83 8.93 0 0 Z " fill="#C60701" transform="translate(473,492)"/>
<path d="M0 0 C4.06 0.66 7.54 1.95 11.31 3.56 C12.92 4.25 12.92 4.25 14.55 4.94 C15.76 5.47 15.76 5.47 17 6 C15.42 7.21 15.42 7.21 13 8 C10.55 6.99 8.5 5.97 6.25 4.62 C5.65 4.28 5.05 3.94 4.43 3.59 C2.94 2.74 1.47 1.87 0 1 C0 0.67 0 0.34 0 0 Z " fill="#B44602" transform="translate(213,285)"/>
<path d="M0 0 C0.33 0.99 0.66 1.98 1 3 C-0.26 4.83 -0.26 4.83 -2.12 6.81 C-2.77 7.51 -3.41 8.21 -4.07 8.93 C-4.71 9.61 -5.35 10.29 -6 11 C-6.99 12.16 -7.97 13.32 -8.94 14.5 C-9.96 15.74 -9.96 15.74 -11 17 C-11 13.07 -9.67 12.04 -7.19 9.06 C-4.72 6.09 -2.29 3.11 0 0 Z " fill="#C54002" transform="translate(88,101)"/>
<path d="M0 0 C0.99 0.33 1.98 0.66 3 1 C-0.49 4.6 -4.11 7.83 -8 11 C-6.53 5.99 -3.72 3.48 0 0 Z " fill="#AD2C02" transform="translate(360,228)"/>
<path d="M0 0 C0.62 1.81 0.62 1.81 1 4 C0.01 5.49 0.01 5.49 -1 7 C-1.45 9.05 -1.45 9.05 -1.62 11.19 C-1.75 12.45 -1.87 13.7 -2 15 C-2.99 15.33 -3.98 15.66 -5 16 C-4.03 10.2 -2.99 5.16 0 0 Z " fill="#C13401" transform="translate(383,177)"/>
<path d="M0 0 C0.33 0.99 0.66 1.98 1 3 C-1.64 5.97 -4.28 8.94 -7 12 C-7.66 11.67 -8.32 11.34 -9 11 C-6.03 7.37 -3.06 3.74 0 0 Z " fill="#C21001" transform="translate(500,440)"/>
<path d="M0 0 C1 4 1 4 -0.21 6.14 C-0.78 6.84 -1.35 7.53 -1.94 8.25 C-2.5 8.96 -3.07 9.66 -3.65 10.39 C-4.32 11.19 -4.32 11.19 -5 12 C-5.66 11.67 -6.32 11.34 -7 11 C-4.69 7.37 -2.38 3.74 0 0 Z " fill="#C13902" transform="translate(408,140)"/>
<path d="M0 0 C0.33 0 0.66 0 1 0 C1.33 5.61 1.66 11.22 2 17 C0.68 16.34 -0.64 15.68 -2 15 C-1.34 15 -0.68 15 0 15 C0 10.05 0 5.1 0 0 Z " fill="#902404" transform="translate(467,263)"/>
<path d="M0 0 C0.33 0.66 0.66 1.32 1 2 C-0.65 3.98 -2.3 5.96 -4 8 C-4.99 7.67 -5.98 7.34 -7 7 C-4.69 4.69 -2.38 2.38 0 0 Z " fill="#B31B02" transform="translate(296,373)"/>
<path d="M0 0 C-5.18 3.22 -5.18 3.22 -7 4 C-7.99 3.67 -8.98 3.34 -10 3 C-6.84 -0.16 -4.31 -1.44 0 0 Z " fill="#813305" transform="translate(387,285)"/>
<path d="M0 0 C2.76 2.4 3.04 3.16 4 7 C1.69 5.35 -0.62 3.7 -3 2 C-2.01 1.34 -1.02 0.68 0 0 Z " fill="#B62A02" transform="translate(469,298)"/>
<path d="M0 0 C0.33 0 0.66 0 1 0 C1.33 4.29 1.66 8.58 2 13 C1.01 13.33 0.02 13.66 -1 14 C-0.67 9.38 -0.34 4.76 0 0 Z " fill="#972603" transform="translate(130,266)"/>
</svg>
