<?xml version="1.0" encoding="utf-8"?>
<svg xmlns="http://www.w3.org/2000/svg" xmlns:graph="http://ns.adobe.com/Graphs/1.0/" xmlns:i="http://ns.adobe.com/AdobeIllustrator/10.0/" xmlns:x="http://ns.adobe.com/Extensibility/1.0/" xmlns:xlink="http://www.w3.org/1999/xlink" version="1.1" id="Layer_1" x="0px" y="0px" viewBox="0 0 1200 1200" style="enable-background:new 0 0 1200 1200;">
<style type="text/css">
	.st0{fill:#00060C;}
	.st1{fill:url(#SVGID_1_);}
	.st2{fill:url(#SVGID_2_);}
	.st3{fill:url(#SVGID_3_);}
	.st4{fill:url(#SVGID_4_);}
	.st5{fill:#FFFFFF;}
	.st6{fill:url(#SVGID_5_);}
	.st7{fill:url(#SVGID_6_);}
	.st8{fill:url(#SVGID_7_);}
	.st9{fill:url(#SVGID_8_);}
	.st10{fill:url(#SVGID_9_);}
	.st11{fill:#FF6100;}
	.st12{fill:url(#SVGID_10_);}
	.st13{fill:url(#SVGID_11_);}
	.st14{fill:url(#SVGID_12_);}
</style>

<switch>
	
	<g>
		<g>
			<circle class="st0" cx="600" cy="600" r="576"/>
			<g>
				<linearGradient id="SVGID_1_" gradientUnits="userSpaceOnUse" x1="831.0776" y1="-51.1082" x2="831.0776" y2="528.3507">
					<stop offset="0" style="stop-color:#FFCE78"/>
					<stop offset="0.154" style="stop-color:#FFCC75"/>
					<stop offset="0.2861" style="stop-color:#FFC76A"/>
					<stop offset="0.4098" style="stop-color:#FFBF58"/>
					<stop offset="0.4972" style="stop-color:#FFB647"/>
					<stop offset="0.7914" style="stop-color:#FFB447"/>
					<stop offset="0.8972" style="stop-color:#FFAD48"/>
					<stop offset="0.9725" style="stop-color:#FFA249"/>
					<stop offset="1" style="stop-color:#FF9B49"/>
				</linearGradient>
				<path class="st1" d="M845.8,343.1c-3.9,8.8-12.9,24.4-20.6,32.2c-9.6,14.7-15.9,39.2-9.4,57.7c22.7-14.1,34.6-39.5,32.9-69.8&#xA;					C848.4,356.4,847.4,350,845.8,343.1z"/>
				<linearGradient id="SVGID_2_" gradientUnits="userSpaceOnUse" x1="423.776" y1="-51.1082" x2="423.776" y2="528.3507">
					<stop offset="0" style="stop-color:#FFCE78"/>
					<stop offset="0.154" style="stop-color:#FFCC75"/>
					<stop offset="0.2861" style="stop-color:#FFC76A"/>
					<stop offset="0.4098" style="stop-color:#FFBF58"/>
					<stop offset="0.4972" style="stop-color:#FFB647"/>
					<stop offset="0.7914" style="stop-color:#FFB447"/>
					<stop offset="0.8972" style="stop-color:#FFAD48"/>
					<stop offset="0.9725" style="stop-color:#FFA249"/>
					<stop offset="1" style="stop-color:#FF9B49"/>
				</linearGradient>
				<path class="st2" d="M371.7,551.7c10.5-24.5,25-47.3,42.7-67.2l0,0c22.8-27.2,72.5-29.2,86.8,7.7c0-0.1,0-0.1,0.1-0.3&#xA;					c-9.5-28-42.6-50-69.5-37.8c-35.1,14.7-67.3,60.9-85.5,93.6c2.6,0.2,5.3,0.5,7.9,0.9C360.1,549.3,365.8,550.4,371.7,551.7z"/>
				<linearGradient id="SVGID_3_" gradientUnits="userSpaceOnUse" x1="401.3573" y1="-51.1082" x2="401.3573" y2="528.3507">
					<stop offset="0" style="stop-color:#FFCE78"/>
					<stop offset="0.154" style="stop-color:#FFCC75"/>
					<stop offset="0.2861" style="stop-color:#FFC76A"/>
					<stop offset="0.4098" style="stop-color:#FFBF58"/>
					<stop offset="0.4972" style="stop-color:#FFB647"/>
					<stop offset="0.7914" style="stop-color:#FFB447"/>
					<stop offset="0.8972" style="stop-color:#FFAD48"/>
					<stop offset="0.9725" style="stop-color:#FFA249"/>
					<stop offset="1" style="stop-color:#FF9B49"/>
				</linearGradient>
				<path class="st3" d="M325.4,801.7c32.5,68.6,115.8,12.6,168.8-24.8c-63.6-71.2-134.5-134.3-179.8-140.8&#xA;					C303.5,689.8,307.7,750.8,325.4,801.7z M448.7,773.7c-12.5,7.9-34.9,19.8-61.4,24.4c-25.8-36.3-42.1-79.7-45.5-126.7&#xA;					C386.2,701.6,426,746,448.7,773.7z"/>
				<linearGradient id="SVGID_4_" gradientUnits="userSpaceOnUse" x1="365.8167" y1="-51.1082" x2="365.8167" y2="528.3507">
					<stop offset="0" style="stop-color:#FFCE78"/>
					<stop offset="0.154" style="stop-color:#FFCC75"/>
					<stop offset="0.2861" style="stop-color:#FFC76A"/>
					<stop offset="0.4098" style="stop-color:#FFBF58"/>
					<stop offset="0.4972" style="stop-color:#FFB647"/>
					<stop offset="0.7914" style="stop-color:#FFB447"/>
					<stop offset="0.8972" style="stop-color:#FFAD48"/>
					<stop offset="0.9725" style="stop-color:#FFA249"/>
					<stop offset="1" style="stop-color:#FF9B49"/>
				</linearGradient>
				<path class="st4" d="M381,433c6.4-18.5,0.2-43-9.4-57.7c-7.6-7.8-16.7-23.5-20.6-32.2c-6.1,22-2.8,52.8,8.5,68.4&#xA;					C363.4,418.8,375.1,430.3,381,433z"/>
				<path class="st5" d="M519.4,336.7c6.7-4,10.4-10.5,8.3-17.3c-13.2-4.5-44-11.9-59.4-12.4c-4,3.1,9.7,16,9.8,20.5&#xA;					C478.1,329.9,505.5,336.3,519.4,336.7z"/>
				<linearGradient id="SVGID_5_" gradientUnits="userSpaceOnUse" x1="598.4127" y1="-51.1082" x2="598.4127" y2="528.3507">
					<stop offset="0" style="stop-color:#FFCE78"/>
					<stop offset="0.154" style="stop-color:#FFCC75"/>
					<stop offset="0.2861" style="stop-color:#FFC76A"/>
					<stop offset="0.4098" style="stop-color:#FFBF58"/>
					<stop offset="0.4972" style="stop-color:#FFB647"/>
					<stop offset="0.7914" style="stop-color:#FFB447"/>
					<stop offset="0.8972" style="stop-color:#FFAD48"/>
					<stop offset="0.9725" style="stop-color:#FFA249"/>
					<stop offset="1" style="stop-color:#FF9B49"/>
				</linearGradient>
				<path class="st6" d="M386.4,343.9c24.1,20.1,31.3,68.9,28.8,83.6c14-4.2,56.3-2.7,78.8,5.9c11.3,3.3,23.7,11,35.6,10.5&#xA;					c29.6,1,52.5-38.9,58.3-56.5l10.5-0.1v0l10.6,0.1c5.9,17.6,28.9,57.5,58.3,56.5c11.9,0.6,24.3-7.2,35.6-10.5&#xA;					c22.6-8.7,65-10,78.8-5.9c-3.9-88.1,60.4-81,59.8-160.6c-42.1-11.3-91.1-19.5-135.4-15.9c24.1-11,56.1-12.6,83-12.6&#xA;					C778.7,153.8,673.6,95.6,598.8,67.6c-0.1,0-0.3,0.1-0.4,0.1v0c-0.1,0-0.2-0.1-0.3-0.1c-74.6,27.9-179.9,86.2-190.3,170.9&#xA;					c26.9,0,59,1.6,83,12.6c-44.3-3.6-93.4,4.6-135.4,15.9C355.3,267,353,311.8,386.4,343.9z M811,285.5&#xA;					c-3.8,26.6-61,72.2-58.1,107.8c0,0-13.2-24.5-11.3-46.9c0,0-35.9,9.2-71.2,9.4c0,0-26.4,13.8-7.1,40.3l-11.3,7.2&#xA;					c0,0-44.6-27.9-24-74.2c0,0-12.9-2.9-18.4-7.5C663.7,305.8,723.6,250.4,811,285.5z M467.6,228.4c0,0,2.1-21.3,14.7-42.8&#xA;					c0,0,34.5,50,116.1-0.9v0c81.7,51,116.2,0.9,116.2,0.9c12.6,21.4,14.7,42.8,14.7,42.8c-40.2-5.9-102.2,53.6-130.9,51v0&#xA;					c-0.8,0-22.8,0.4-63.9-28.8C500.7,226.6,467.6,228.4,467.6,228.4z M517,291c22.5,14.9,70.3,30.7,70.3,30.7&#xA;					c-5.5,4.5-18.4,7.5-18.4,7.5c20.6,46.3-24,74.2-24,74.2l-11.3-7.2c19.3-26.5-7.1-40.3-7.1-40.3c-35.3-0.2-71.2-9.4-71.2-9.4&#xA;					c1.9,22.4-11.3,46.9-11.3,46.9c2.8-35.9-54.2-81.1-58.1-107.8C438.7,265.8,494.4,276,517,291z"/>
				<linearGradient id="SVGID_6_" gradientUnits="userSpaceOnUse" x1="598.4464" y1="-51.1082" x2="598.4464" y2="528.3507">
					<stop offset="0" style="stop-color:#FFCE78"/>
					<stop offset="0.154" style="stop-color:#FFCC75"/>
					<stop offset="0.2861" style="stop-color:#FFC76A"/>
					<stop offset="0.4098" style="stop-color:#FFBF58"/>
					<stop offset="0.4972" style="stop-color:#FFB647"/>
					<stop offset="0.7914" style="stop-color:#FFB447"/>
					<stop offset="0.8972" style="stop-color:#FFAD48"/>
					<stop offset="0.9725" style="stop-color:#FFA249"/>
					<stop offset="1" style="stop-color:#FF9B49"/>
				</linearGradient>
				<path class="st7" d="M598.6,37.3c-712.5,17.3-712.3,1073.8-0.2,1089.5v0c0,0,0,0,0.1,0v0C1310.6,1110.9,1310.5,55.1,598.6,37.3z&#xA;					 M1077,680.3l-135.5-138c-4.5,4.4-13.5,13.3-18,17.7c-1-55.2-16.3-110.1-44.1-157.8c0.8,28.5-14.1,62.3-30.9,77.9&#xA;					c20,21.4,37.2,45.4,51.2,71.1c31.3,8.6,67.3,33.4,65.9,68.5l99.7,101.6c-21.6,65.4-57.1,125.9-103.2,176.7&#xA;					c-8.8,84.8-90.3,144.6-180.7,130.9c-43.4,6.4-88.7,36.5-183.1,37.1v0c-94.5-0.6-139.6-30.7-183-37.1&#xA;					c-90.4,13.8-171.9-46-180.7-130.8c-46.1-50.9-81.6-111.4-103.2-176.7l99.7-101.6c-1.3-35.1,34.6-59.9,65.9-68.5&#xA;					c14-25.7,31.3-49.7,51.2-71.1c-16.8-15.7-31.7-49.4-30.9-77.9c-27.8,47.7-43.2,102.6-44.1,157.8c-4.5-4.4-13.5-13.3-18-17.7&#xA;					l-135.5,138c-4.6-19.6-8.1-39.4-10.3-59.5c8.1-8.3,40.6-41.4,49.4-50.3l-0.2-0.2l33.2-33.8c-6.2-6.1-18.7-18.3-24.9-24.4&#xA;					c0,0-63.4,64.6-63.4,64.6c1.9-159.7,76.7-320,208.3-411.2l-0.4,0c34.2-24.8,71.7-44.9,111.1-60.3c24.9-9.5,50.2-17.2,76.5-22.7&#xA;					c27.1-12.5,60.7-24.5,98.9-35.5v0c0.1,0,0.2,0.1,0.3,0.1v0c0.1,0,0.3-0.1,0.4-0.1v0c38.1,11,71.8,23,98.9,35.5&#xA;					c26.3,5.6,51.6,13.2,76.5,22.7c39.4,15.3,76.9,35.5,111.1,60.3l-0.4,0c131.6,91.2,206.4,251.4,208.3,411.2&#xA;					c0,0-63.4-64.6-63.4-64.6c-6.2,6.1-18.7,18.3-24.9,24.4l33.2,33.8l-0.2,0.2c8.9,9.1,41,41.8,49.4,50.3&#xA;					C1085,641,1081.6,660.7,1077,680.3z"/>
				<linearGradient id="SVGID_7_" gradientUnits="userSpaceOnUse" x1="773.0807" y1="-51.1082" x2="773.0807" y2="528.3507">
					<stop offset="0" style="stop-color:#FFCE78"/>
					<stop offset="0.154" style="stop-color:#FFCC75"/>
					<stop offset="0.2861" style="stop-color:#FFC76A"/>
					<stop offset="0.4098" style="stop-color:#FFBF58"/>
					<stop offset="0.4972" style="stop-color:#FFB647"/>
					<stop offset="0.7914" style="stop-color:#FFB447"/>
					<stop offset="0.8972" style="stop-color:#FFAD48"/>
					<stop offset="0.9725" style="stop-color:#FFA249"/>
					<stop offset="1" style="stop-color:#FF9B49"/>
				</linearGradient>
				<path class="st8" d="M764.8,453.9c-26.8-11.9-59.8,10.1-69.2,38c0,0.1,0.1,0.2,0.1,0.3c14.4-36.9,64.1-34.9,86.8-7.7l0,0&#xA;					c17.7,20,32.1,42.7,42.7,67.2c8.5-1.9,16.9-3.2,25.5-4c-8.3-15.4-17.8-29.9-28.5-43.5C806.1,484.5,788.8,463.7,764.8,453.9z"/>
				<linearGradient id="SVGID_8_" gradientUnits="userSpaceOnUse" x1="795.4996" y1="-51.1082" x2="795.4996" y2="528.3507">
					<stop offset="0" style="stop-color:#FFCE78"/>
					<stop offset="0.154" style="stop-color:#FFCC75"/>
					<stop offset="0.2861" style="stop-color:#FFC76A"/>
					<stop offset="0.4098" style="stop-color:#FFBF58"/>
					<stop offset="0.4972" style="stop-color:#FFB647"/>
					<stop offset="0.7914" style="stop-color:#FFB447"/>
					<stop offset="0.8972" style="stop-color:#FFAD48"/>
					<stop offset="0.9725" style="stop-color:#FFA249"/>
					<stop offset="1" style="stop-color:#FF9B49"/>
				</linearGradient>
				<path class="st9" d="M871.4,801.7c17.8-50.9,21.9-111.9,10.9-165.5c-45.3,6.4-116.1,69.5-179.8,140.8&#xA;					C755.6,814.2,839,870.2,871.4,801.7z M809.6,798.1c-26.5-4.6-48.9-16.5-61.4-24.4c22.7-27.8,62.5-72.2,106.9-102.4&#xA;					C851.7,718.4,835.3,761.9,809.6,798.1z"/>
				<linearGradient id="SVGID_9_" gradientUnits="userSpaceOnUse" x1="598.4285" y1="-51.1082" x2="598.4285" y2="528.3507">
					<stop offset="0" style="stop-color:#FFCE78"/>
					<stop offset="0.154" style="stop-color:#FFCC75"/>
					<stop offset="0.2861" style="stop-color:#FFC76A"/>
					<stop offset="0.4098" style="stop-color:#FFBF58"/>
					<stop offset="0.4972" style="stop-color:#FFB647"/>
					<stop offset="0.7914" style="stop-color:#FFB447"/>
					<stop offset="0.8972" style="stop-color:#FFAD48"/>
					<stop offset="0.9725" style="stop-color:#FFA249"/>
					<stop offset="1" style="stop-color:#FF9B49"/>
				</linearGradient>
				<path class="st10" d="M598.4,909.7L598.4,909.7c-28.3,32.9-52.1,61.2-84.1,82.1c18.7,9,57.3,14.6,84.1,14v0&#xA;					c26.8,0.5,65.4-5,84.1-14C650.5,970.9,626.8,942.6,598.4,909.7z"/>
				<path class="st11" d="M767.4,569.9c0.5-0.3,1.1-0.5,1.6-0.8c-69.6,21.6-170.4,88.5-170.6,88.3v0c-2.8-1.5-101.9-66.9-170.6-88.2&#xA;					c64.8,30.8,166,112.5,170.6,116.4v0.1C602.1,682.4,702,601.5,767.4,569.9z"/>
				<linearGradient id="SVGID_10_" gradientUnits="userSpaceOnUse" x1="416.8624" y1="-51.1082" x2="416.8624" y2="528.3507">
					<stop offset="0" style="stop-color:#FFCE78"/>
					<stop offset="0.154" style="stop-color:#FFCC75"/>
					<stop offset="0.2861" style="stop-color:#FFC76A"/>
					<stop offset="0.4098" style="stop-color:#FFBF58"/>
					<stop offset="0.4972" style="stop-color:#FFB647"/>
					<stop offset="0.7914" style="stop-color:#FFB447"/>
					<stop offset="0.8972" style="stop-color:#FFAD48"/>
					<stop offset="0.9725" style="stop-color:#FFA249"/>
					<stop offset="1" style="stop-color:#FF9B49"/>
				</linearGradient>
				<path class="st12" d="M425.7,639.2c44.9,31.2,72.2,57.1,113.2,100.4l32.2-26.9c-56.5-57.2-185.8-154.3-262.4-137.8&#xA;					c-23.1,3.6-45.4,21.4-46,37.1C278.6,595,316.2,567.7,425.7,639.2z"/>
				<linearGradient id="SVGID_11_" gradientUnits="userSpaceOnUse" x1="599.8591" y1="-51.1082" x2="599.8591" y2="528.3507">
					<stop offset="0" style="stop-color:#FFCE78"/>
					<stop offset="0.154" style="stop-color:#FFCC75"/>
					<stop offset="0.2861" style="stop-color:#FFC76A"/>
					<stop offset="0.4098" style="stop-color:#FFBF58"/>
					<stop offset="0.4972" style="stop-color:#FFB647"/>
					<stop offset="0.7914" style="stop-color:#FFB447"/>
					<stop offset="0.8972" style="stop-color:#FFAD48"/>
					<stop offset="0.9725" style="stop-color:#FFA249"/>
					<stop offset="1" style="stop-color:#FF9B49"/>
				</linearGradient>
				<path class="st13" d="M596.9,738.3C596.9,738.3,596.8,738.3,596.9,738.3l-30.5,30.3c0.1,0.1,0.1,0.1,0.2,0.2&#xA;					c-1.4,1.2-2.8,2.4-4.1,3.7l-0.1,0c-93.7,96.2-284.9,194.9-277.1,19.4c-35.9,57.5-27.8,173.2,65,179&#xA;					C498.3,982,602.2,791.1,694.6,702c69.3-73.1,202.9-144.7,239.6-90c-20.7-65.1-120.9-34.9-167.7-5.4&#xA;					C705,641.9,651.2,683.8,596.9,738.3z"/>
				<linearGradient id="SVGID_12_" gradientUnits="userSpaceOnUse" x1="785.2991" y1="-51.1082" x2="785.2991" y2="528.3507">
					<stop offset="0" style="stop-color:#FFCE78"/>
					<stop offset="0.154" style="stop-color:#FFCC75"/>
					<stop offset="0.2861" style="stop-color:#FFC76A"/>
					<stop offset="0.4098" style="stop-color:#FFBF58"/>
					<stop offset="0.4972" style="stop-color:#FFB647"/>
					<stop offset="0.7914" style="stop-color:#FFB447"/>
					<stop offset="0.8972" style="stop-color:#FFAD48"/>
					<stop offset="0.9725" style="stop-color:#FFA249"/>
					<stop offset="1" style="stop-color:#FF9B49"/>
				</linearGradient>
				<path class="st14" d="M911.6,791.9C923.3,941,768,892.9,677.4,809l-38.7,49.3c64.6,71.1,163.7,146.7,251.3,97.9&#xA;					c40.7-24.1,47.9-78.5,37.8-120.5C921.9,809.4,911.6,791.9,911.6,791.9z"/>
				<path class="st5" d="M677.4,336.7c14-0.5,41.4-6.9,41.4-9.2c0-4.5,13.7-17.4,9.8-20.5c-15.5,0.5-46.2,7.9-59.4,12.4&#xA;					c-0.4,1.2-0.6,2.4-0.6,3.7C668.5,328.5,671.9,333.5,677.4,336.7z"/>
			</g>
		</g>
	</g>
</switch>

</svg>