<?xml version="1.0" encoding="UTF-8"?>
<!-- Generator: https://ezgif.com/png-to-svg -->
<svg version="1.1" xmlns="http://www.w3.org/2000/svg" width="512" height="512" viewBox="-42.995 -37.39 685.866 685.866" preserveAspectRatio="xMidYMid meet">
<path d="M0 0 C1.23 0 2.46 0.01 3.72 0.01 C21.92 0.08 39.46 0.71 57.31 4.44 C58.4 4.65 59.49 4.87 60.6 5.09 C117.25 16.4 168.84 44.45 210.31 84.44 C211.19 85.28 211.19 85.28 212.09 86.15 C219.71 93.52 226.78 101.06 233.31 109.44 C234.17 110.49 235.02 111.55 235.88 112.6 C266.33 150.18 286.4 194.91 296.06 242.19 C296.26 243.16 296.46 244.12 296.67 245.12 C299.99 262.22 300.66 278.86 300.63 296.24 C300.63 300.03 300.65 303.83 300.67 307.63 C300.72 326.66 299.34 345.29 295.06 363.88 C294.85 364.81 294.64 365.74 294.42 366.71 C283.14 415.33 260.95 460.6 227.64 497.95 C226.45 499.29 225.27 500.64 224.09 502 C214.05 513.43 203.29 524.05 191.31 533.44 C189.58 534.9 187.85 536.35 186.12 537.81 C161.02 558.27 131.74 573.66 101.31 584.44 C99.85 584.98 98.38 585.51 96.91 586.05 C23.92 612.17 -60.15 605.24 -129.69 572.44 C-149.7 562.86 -168.26 551.18 -185.69 537.44 C-186.56 536.76 -187.43 536.08 -188.32 535.38 C-196.52 528.85 -204.12 521.68 -211.69 514.44 C-213.1 513.08 -213.1 513.08 -214.55 511.7 C-219.52 506.85 -224.02 501.77 -228.35 496.33 C-230.38 493.81 -232.49 491.38 -234.62 488.95 C-270.61 447.75 -292.25 391.16 -298.69 337.44 C-298.77 336.71 -298.86 335.98 -298.95 335.23 C-299.68 328.64 -299.86 322.12 -299.89 315.49 C-299.9 313.8 -299.9 313.8 -299.91 312.08 C-299.92 309.69 -299.92 307.31 -299.93 304.93 C-299.94 301.37 -299.97 297.81 -300 294.25 C-300.22 245.98 -287.52 197.46 -263.69 155.44 C-262.98 154.16 -262.27 152.87 -261.57 151.59 C-252.81 135.8 -242.28 121.25 -230.69 107.44 C-230.24 106.9 -229.8 106.37 -229.34 105.82 C-223.52 98.79 -217.49 92.04 -211.06 85.56 C-210.16 84.64 -210.16 84.64 -209.23 83.7 C-204.93 79.44 -204.93 79.44 -202.69 79.44 C-202.69 78.78 -202.69 78.12 -202.69 77.44 C-201.16 76.04 -199.56 74.72 -197.94 73.44 C-196.41 72.22 -196.41 72.22 -194.85 70.98 C-194.32 70.56 -193.79 70.14 -193.24 69.7 C-191.81 68.54 -190.41 67.33 -189.02 66.11 C-168.45 48.18 -143.6 34.36 -118.69 23.44 C-117.9 23.09 -117.11 22.75 -116.3 22.39 C-79.31 6.4 -40.12 -0.21 0 0 Z " fill="#02070C" transform="translate(299.6875,-0.4375)"/>
<path d="M0 0 C1.23 0 2.46 0.01 3.72 0.01 C21.92 0.08 39.46 0.71 57.31 4.44 C58.4 4.65 59.49 4.87 60.6 5.09 C117.25 16.4 168.84 44.45 210.31 84.44 C211.19 85.28 211.19 85.28 212.09 86.15 C219.71 93.52 226.78 101.06 233.31 109.44 C234.17 110.49 235.02 111.55 235.88 112.6 C266.33 150.18 286.4 194.91 296.06 242.19 C296.26 243.16 296.46 244.12 296.67 245.12 C299.99 262.22 300.66 278.86 300.63 296.24 C300.63 300.03 300.65 303.83 300.67 307.63 C300.72 326.66 299.34 345.29 295.06 363.88 C294.85 364.81 294.64 365.74 294.42 366.71 C283.14 415.33 260.95 460.6 227.64 497.95 C226.45 499.29 225.27 500.64 224.09 502 C214.05 513.43 203.29 524.05 191.31 533.44 C189.58 534.9 187.85 536.35 186.12 537.81 C161.02 558.27 131.74 573.66 101.31 584.44 C99.85 584.98 98.38 585.51 96.91 586.05 C23.92 612.17 -60.15 605.24 -129.69 572.44 C-149.7 562.86 -168.26 551.18 -185.69 537.44 C-186.56 536.76 -187.43 536.08 -188.32 535.38 C-196.52 528.85 -204.12 521.68 -211.69 514.44 C-213.1 513.08 -213.1 513.08 -214.55 511.7 C-219.52 506.85 -224.02 501.77 -228.35 496.33 C-230.38 493.81 -232.49 491.38 -234.62 488.95 C-270.61 447.75 -292.25 391.16 -298.69 337.44 C-298.77 336.71 -298.86 335.98 -298.95 335.23 C-299.68 328.64 -299.86 322.12 -299.89 315.49 C-299.9 313.8 -299.9 313.8 -299.91 312.08 C-299.92 309.69 -299.92 307.31 -299.93 304.93 C-299.94 301.37 -299.97 297.81 -300 294.25 C-300.22 245.98 -287.52 197.46 -263.69 155.44 C-262.98 154.16 -262.27 152.87 -261.57 151.59 C-252.81 135.8 -242.28 121.25 -230.69 107.44 C-230.24 106.9 -229.8 106.37 -229.34 105.82 C-223.52 98.79 -217.49 92.04 -211.06 85.56 C-210.16 84.64 -210.16 84.64 -209.23 83.7 C-204.93 79.44 -204.93 79.44 -202.69 79.44 C-202.69 78.78 -202.69 78.12 -202.69 77.44 C-201.16 76.04 -199.56 74.72 -197.94 73.44 C-196.41 72.22 -196.41 72.22 -194.85 70.98 C-194.32 70.56 -193.79 70.14 -193.24 69.7 C-191.81 68.54 -190.41 67.33 -189.02 66.11 C-168.45 48.18 -143.6 34.36 -118.69 23.44 C-117.9 23.09 -117.11 22.75 -116.3 22.39 C-79.31 6.4 -40.12 -0.21 0 0 Z M-17.69 17.44 C-18.47 17.71 -19.26 17.97 -20.07 18.25 C-28.6 21.16 -37.11 24.1 -45.44 27.54 C-52.37 30.31 -59.54 32.26 -66.73 34.24 C-81.47 38.3 -81.47 38.3 -95.63 44.02 C-98.18 45.2 -100.72 46.24 -103.34 47.25 C-109.11 49.54 -114.58 52.3 -120.06 55.19 C-121.08 55.72 -122.1 56.26 -123.15 56.81 C-130.34 60.63 -137.1 64.63 -143.69 69.44 C-145.22 70.53 -146.74 71.63 -148.27 72.72 C-156.84 78.9 -165.01 85.18 -172.69 92.44 C-174.04 93.61 -175.39 94.78 -176.75 95.94 C-184.37 102.61 -191.13 109.82 -197.38 117.78 C-198.31 118.95 -199.24 120.13 -200.17 121.3 C-216.11 141.28 -229.97 163.65 -238.42 187.87 C-239.6 191.19 -240.91 194.39 -242.31 197.62 C-254.07 225.73 -258.56 257.15 -257.69 287.44 C-250.28 281.2 -243.34 274.58 -237 267.25 C-234.7 264.59 -232.4 261.95 -230 259.38 C-229.46 258.79 -228.92 258.2 -228.36 257.59 C-226.69 256.44 -226.69 256.44 -224.78 256.47 C-221.89 257.81 -220.13 259.71 -217.94 262 C-217.14 262.83 -216.34 263.65 -215.52 264.5 C-214.91 265.14 -214.31 265.78 -213.69 266.44 C-215.17 269.89 -217.12 272.09 -219.79 274.7 C-220.61 275.51 -221.43 276.32 -222.28 277.15 C-223.56 278.41 -223.56 278.41 -224.88 279.69 C-230.14 284.84 -235.25 290 -240.04 295.6 C-241.68 297.43 -243.39 299.07 -245.21 300.71 C-245.78 301.23 -246.34 301.74 -246.92 302.27 C-248.07 303.31 -249.23 304.33 -250.41 305.33 C-252.88 307.63 -254.47 309.33 -255.13 312.71 C-255.28 318.94 -254.02 325 -252.69 331.06 C-252.5 331.97 -252.31 332.88 -252.11 333.82 C-251.64 336.03 -251.17 338.23 -250.69 340.44 C-247.7 340.75 -247.7 340.75 -245.89 339.01 C-245.23 338.34 -244.56 337.67 -243.88 336.98 C-243.12 336.23 -242.36 335.47 -241.58 334.7 C-240.77 333.87 -239.95 333.04 -239.11 332.19 C-237.84 330.92 -237.84 330.92 -236.55 329.62 C-234.76 327.82 -232.97 326.02 -231.18 324.21 C-228.47 321.47 -225.75 318.74 -223.02 316 C-221.28 314.25 -219.54 312.5 -217.8 310.75 C-216.99 309.94 -216.18 309.13 -215.35 308.29 C-211.17 304.06 -207.15 299.75 -203.27 295.24 C-201.01 292.66 -198.62 290.26 -196.19 287.84 C-195.71 287.37 -195.23 286.89 -194.74 286.4 C-193.25 284.91 -191.75 283.42 -190.25 281.94 C-189.22 280.91 -188.19 279.89 -187.17 278.87 C-184.68 276.39 -182.18 273.91 -179.69 271.44 C-178.54 272.37 -177.39 273.31 -176.25 274.25 C-175.61 274.77 -174.97 275.29 -174.32 275.83 C-172.69 277.44 -172.69 277.44 -171.69 280.44 C-172.21 280.82 -172.73 281.21 -173.26 281.61 C-174.71 282.69 -176.16 283.78 -177.6 284.88 C-179.14 286.03 -180.71 287.12 -182.31 288.19 C-187.52 293.12 -190.5 298.45 -191.25 305.56 C-192.47 312.44 -195.98 315.88 -200.95 320.54 C-201.77 321.35 -202.6 322.16 -203.45 322.99 C-206.07 325.56 -208.72 328.09 -211.38 330.62 C-214 333.17 -216.63 335.73 -219.25 338.29 C-220.88 339.87 -222.51 341.45 -224.15 343.02 C-228.36 347.07 -232.35 351.2 -236.13 355.65 C-238.52 358.39 -241.09 360.9 -243.69 363.44 C-241.62 371.07 -238.83 378.22 -235.62 385.44 C-235.14 386.53 -234.66 387.62 -234.16 388.74 C-226.16 406.53 -216.11 422.47 -204.62 438.19 C-204.05 438.98 -203.47 439.77 -202.87 440.59 C-200.04 444.43 -197.15 448.05 -193.89 451.53 C-190.49 455.35 -189.52 458.17 -188.56 463.19 C-188.26 464.59 -187.95 465.99 -187.64 467.39 C-187.49 468.08 -187.34 468.76 -187.18 469.47 C-183.89 482.67 -175.96 492.84 -166.69 502.44 C-165.58 503.6 -165.58 503.6 -164.45 504.79 C-146.99 521.87 -124.31 524.46 -101.04 524.87 C-90.36 525.19 -80.71 527.99 -70.62 531.31 C-67.32 532.37 -64 533.4 -60.69 534.44 C-59.95 534.67 -59.22 534.9 -58.46 535.13 C-19.78 546.98 19.27 545.44 57.75 534.56 C58.64 534.31 59.53 534.06 60.45 533.8 C64.6 532.61 68.66 531.35 72.67 529.75 C84.63 525.16 96.2 524.74 108.87 524.84 C128.26 524.89 146.18 518.75 161.31 506.44 C162.08 505.84 162.85 505.25 163.64 504.64 C174.9 495.43 183.13 482.36 186.3 468.18 C188.65 457.89 191.82 451.66 199.05 443.99 C217.65 424.26 230.15 397.33 239.95 372.34 C240.19 371.74 240.43 371.13 240.67 370.51 C241.53 367.74 242.11 365.35 242.31 362.44 C240.84 359.96 240.84 359.96 238.48 357.83 C237.19 356.54 237.19 356.54 235.87 355.23 C234.45 353.86 234.45 353.86 233 352.47 C232.02 351.51 231.05 350.55 230.08 349.59 C227.51 347.06 224.92 344.54 222.33 342.04 C219.21 339.01 216.11 335.95 213.01 332.9 C210.59 330.52 208.16 328.15 205.73 325.79 C201.92 322.07 198.19 318.4 194.8 314.31 C193.98 313.36 193.16 312.41 192.31 311.44 C191.65 311.44 190.99 311.44 190.31 311.44 C190.42 310.16 190.52 308.88 190.62 307.56 C190.6 300.26 187.18 294.18 182.38 288.81 C176.34 283.24 167.69 277.82 159.56 276.25 C158.49 275.98 157.42 275.71 156.31 275.44 C155.59 273.79 154.94 272.12 154.31 270.44 C152.78 267.7 151.08 265.07 149.38 262.44 C148.89 261.69 148.41 260.95 147.92 260.18 C144.25 254.6 140.24 249.48 135.75 244.55 C131.43 239.74 131.43 239.74 131.31 236.44 C132.44 235.07 133.58 233.72 134.77 232.41 C142.55 222.45 145.53 210.8 145.31 198.44 C145.97 198.44 146.63 198.44 147.31 198.44 C147.58 199.29 147.84 200.15 148.11 201.03 C149.34 204.52 150.85 207.69 152.5 211 C162.65 232.27 167.7 254.94 168.31 278.44 C170.91 277.24 172.35 276.4 174.31 274.25 C174.97 273.65 175.63 273.05 176.31 272.44 C180.21 272.71 182.12 274.88 184.79 277.55 C186.1 278.87 186.1 278.87 187.45 280.21 C188.4 281.17 189.35 282.13 190.3 283.1 C191.29 284.09 192.27 285.07 193.26 286.06 C195.33 288.14 197.39 290.22 199.46 292.3 C202.08 294.95 204.71 297.59 207.34 300.23 C209.87 302.77 212.4 305.31 214.93 307.85 C215.4 308.32 215.87 308.8 216.36 309.29 C221.36 314.32 226.25 319.39 230.88 324.77 C233.79 328.15 236.97 331.28 240.12 334.44 C240.79 335.12 241.46 335.8 242.15 336.5 C242.79 337.14 243.42 337.78 244.08 338.44 C244.66 339.01 245.23 339.59 245.82 340.19 C247.24 341.65 247.24 341.65 249.31 341.44 C251.59 334.59 252.47 327.59 253.31 320.44 C253.46 319.51 253.6 318.58 253.75 317.62 C254.15 313.6 254.03 311.39 251.55 308.11 C250.07 306.63 248.54 305.2 246.96 303.84 C244.86 301.94 243.13 300.12 241.31 297.98 C236 291.81 230.15 286.17 224.38 280.44 C223.2 279.27 222.03 278.1 220.86 276.93 C218.01 274.1 215.16 271.27 212.31 268.44 C213.81 265.26 215.16 263.49 217.94 261.31 C219.82 259.88 219.82 259.88 221.31 258.44 C221.31 257.78 221.31 257.12 221.31 256.44 C226.42 256.79 228.99 259.58 232.38 263.08 C233.23 263.93 233.23 263.93 234.09 264.8 C235.88 266.61 237.66 268.43 239.44 270.25 C240.64 271.47 241.85 272.68 243.05 273.89 C244.2 275.06 245.36 276.23 246.51 277.39 C247.05 277.94 247.58 278.48 248.14 279.05 C250.26 281.22 252.26 283.36 254.05 285.82 C254.68 286.62 254.68 286.62 255.31 287.44 C255.97 287.44 256.63 287.44 257.31 287.44 C257.85 265.96 254.62 244.2 249.31 223.44 C249.12 222.65 248.93 221.87 248.73 221.06 C235.65 168.12 204.65 116.95 161.31 83.44 C160.04 82.42 158.76 81.4 157.48 80.39 C138.21 65.16 116.35 52.11 93.31 43.44 C91.95 42.89 90.58 42.35 89.21 41.8 C79.21 37.89 69.18 35.05 58.74 32.56 C52.67 31.1 47.03 29.39 41.34 26.79 C34.93 23.93 28.26 21.65 21.65 19.28 C20.15 18.74 18.64 18.19 17.14 17.64 C3.64 12.68 -4.14 12.73 -17.69 17.44 Z " fill="#FAA34C" transform="translate(299.6875,-0.4375)"/>
<path d="M0 0 C1.23 0 2.46 0.01 3.72 0.01 C21.92 0.08 39.46 0.71 57.31 4.44 C58.4 4.65 59.49 4.87 60.6 5.09 C117.25 16.4 168.84 44.45 210.31 84.44 C211.19 85.28 211.19 85.28 212.09 86.15 C219.71 93.52 226.78 101.06 233.31 109.44 C234.17 110.49 235.02 111.55 235.88 112.6 C266.33 150.18 286.4 194.91 296.06 242.19 C296.26 243.16 296.46 244.12 296.67 245.12 C299.99 262.22 300.66 278.86 300.63 296.24 C300.63 300.03 300.65 303.83 300.67 307.63 C300.72 326.66 299.34 345.29 295.06 363.88 C294.85 364.81 294.64 365.74 294.42 366.71 C283.14 415.33 260.95 460.6 227.64 497.95 C226.45 499.29 225.27 500.64 224.09 502 C214.05 513.43 203.29 524.05 191.31 533.44 C189.58 534.9 187.85 536.35 186.12 537.81 C161.02 558.27 131.74 573.66 101.31 584.44 C99.85 584.98 98.38 585.51 96.91 586.05 C23.92 612.17 -60.15 605.24 -129.69 572.44 C-149.7 562.86 -168.26 551.18 -185.69 537.44 C-186.56 536.76 -187.43 536.08 -188.32 535.38 C-196.52 528.85 -204.12 521.68 -211.69 514.44 C-213.1 513.08 -213.1 513.08 -214.55 511.7 C-219.52 506.85 -224.02 501.77 -228.35 496.33 C-230.38 493.81 -232.49 491.38 -234.62 488.95 C-270.61 447.75 -292.25 391.16 -298.69 337.44 C-298.77 336.71 -298.86 335.98 -298.95 335.23 C-299.68 328.64 -299.86 322.12 -299.89 315.49 C-299.9 313.8 -299.9 313.8 -299.91 312.08 C-299.92 309.69 -299.92 307.31 -299.93 304.93 C-299.94 301.37 -299.97 297.81 -300 294.25 C-300.22 245.98 -287.52 197.46 -263.69 155.44 C-262.98 154.16 -262.27 152.87 -261.57 151.59 C-252.81 135.8 -242.28 121.25 -230.69 107.44 C-230.24 106.9 -229.8 106.37 -229.34 105.82 C-223.52 98.79 -217.49 92.04 -211.06 85.56 C-210.16 84.64 -210.16 84.64 -209.23 83.7 C-204.93 79.44 -204.93 79.44 -202.69 79.44 C-202.69 78.78 -202.69 78.12 -202.69 77.44 C-201.16 76.04 -199.56 74.72 -197.94 73.44 C-196.41 72.22 -196.41 72.22 -194.85 70.98 C-194.32 70.56 -193.79 70.14 -193.24 69.7 C-191.81 68.54 -190.41 67.33 -189.02 66.11 C-168.45 48.18 -143.6 34.36 -118.69 23.44 C-117.9 23.09 -117.11 22.75 -116.3 22.39 C-79.31 6.4 -40.12 -0.21 0 0 Z M-35.94 9.38 C-36.67 9.47 -37.4 9.56 -38.15 9.65 C-45.64 10.27 -45.64 10.27 -52.69 12.44 C-54.57 12.73 -56.45 12.99 -58.34 13.24 C-66.15 14.41 -73.67 16.39 -81.25 18.56 C-81.95 18.76 -82.65 18.96 -83.37 19.16 C-95.15 22.52 -106.51 26.41 -117.69 31.44 C-118.52 31.8 -119.36 32.17 -120.22 32.55 C-140.26 41.41 -158.55 52.81 -175.69 66.44 C-176.71 67.24 -177.73 68.04 -178.79 68.86 C-194 81.2 -209.05 95.75 -220.45 111.71 C-221.79 113.58 -223.17 115.42 -224.55 117.26 C-239.85 137.97 -252.25 161.31 -260.42 185.73 C-261.43 188.68 -262.52 191.51 -263.75 194.38 C-285.72 248.68 -285.7 323.09 -266.35 378.43 C-265.69 380.43 -265.17 382.42 -264.68 384.47 C-258.02 412.11 -243.17 441.16 -225.69 463.44 C-224.92 464.46 -224.15 465.47 -223.36 466.52 C-209.55 484.86 -194.18 502.67 -175.69 516.44 C-175.04 516.93 -174.39 517.41 -173.72 517.92 C-163.73 525.39 -153.6 532.39 -142.69 538.44 C-141.85 538.91 -141 539.37 -140.14 539.86 C-126.71 547.25 -113.23 553.59 -98.69 558.44 C-97.57 558.81 -96.45 559.18 -95.3 559.57 C-77.33 565.45 -59.42 569.69 -40.69 572.44 C-39.88 572.57 -39.07 572.7 -38.24 572.83 C-7.84 577.67 25.27 575.33 55.31 569.44 C56.45 569.25 57.58 569.06 58.75 568.86 C106.16 560.46 151.66 537.64 187.31 505.44 C187.92 504.89 188.53 504.34 189.16 503.77 C195.95 497.65 202.54 491.54 208.31 484.44 C209.25 483.34 210.19 482.23 211.12 481.13 C224.53 465.23 235.69 447.86 245.31 429.44 C245.65 428.8 245.98 428.16 246.33 427.5 C249.99 420.48 253.3 413.37 256.26 406.03 C257.08 404 257.97 401.99 258.88 400 C260.79 395.25 262.26 390.41 263.7 385.5 C264.13 384.04 264.57 382.59 265.01 381.13 C268.99 368.02 272.01 354.94 274.31 341.44 C274.53 340.25 274.74 339.06 274.96 337.83 C280.27 306.72 280.07 271.12 274.56 240.12 C274.44 239.41 274.31 238.7 274.18 237.97 C272.68 229.76 270.64 221.75 268.27 213.75 C267.36 210.62 266.57 207.47 265.81 204.29 C256.08 164.79 234.28 127.61 207.31 97.44 C206.11 96.06 206.11 96.06 204.88 94.66 C196.67 85.4 188.06 77.08 178.31 69.44 C177.38 68.7 177.38 68.7 176.44 67.95 C160.35 55.24 143.68 44.57 125.31 35.44 C124.69 35.13 124.07 34.82 123.44 34.5 C109.01 27.4 93.72 22.85 78.31 18.44 C77.42 18.18 76.54 17.92 75.62 17.65 C59.71 13.04 43.76 10.35 27.31 8.44 C26.22 8.31 26.22 8.31 25.1 8.18 C20.84 7.71 16.59 7.53 12.31 7.44 C11.32 7.41 10.33 7.38 9.31 7.34 C-5.97 6.91 -20.78 7.48 -35.94 9.38 Z " fill="#02070C" transform="translate(299.6875,-0.4375)"/>
<path d="M0 0 C5.63 3.8 10.87 8.07 16.09 12.41 C16.81 12.99 17.53 13.56 18.26 14.16 C31.13 24.68 43.23 40.82 46.09 57.41 C46.12 59.41 46.12 61.41 46.09 63.41 C44.83 63.45 43.58 63.49 42.28 63.53 C30.39 63.96 18.47 64.62 7.09 68.41 C8.25 68.44 9.41 68.46 10.6 68.49 C21.79 68.84 32.86 69.83 43.97 71.23 C45.87 71.46 45.87 71.46 47.81 71.69 C56.84 72.87 65.36 74.88 74.09 77.41 C75.69 95.25 65.51 109.22 54.95 122.42 C51.65 126.58 49.11 130.46 47.09 135.41 C46.81 136.03 46.53 136.66 46.24 137.3 C43.14 144.94 43.36 153.28 43.09 161.41 C42.45 161.4 41.81 161.38 41.14 161.37 C24.05 161 9.21 161.63 -6.67 168.41 C-12.85 170.96 -17.93 171.91 -24.27 169.52 C-34.14 164.55 -41.78 155.41 -45.79 145.15 C-46.34 143.23 -46.34 143.23 -46.91 140.41 C-50.95 139.83 -54.09 139.88 -57.91 141.41 C-60.93 145.56 -62.93 149.99 -65.05 154.65 C-68.07 160.85 -73.23 164.77 -78.91 168.41 C-88.64 171.66 -98.14 169.35 -107.34 165.73 C-120.57 160.86 -134.01 161.02 -147.91 161.41 C-147.92 160.67 -147.94 159.93 -147.95 159.17 C-148.72 142.24 -153.66 127.03 -166.21 115.21 C-176.05 104.78 -179.15 91.24 -178.91 77.41 C-157.64 71.37 -135.97 68.78 -113.91 68.41 C-125.45 63.33 -139.49 63.92 -151.91 63.41 C-150.32 44.48 -139.88 30.51 -126.91 17.41 C-125.66 16.15 -125.66 16.15 -124.39 14.86 C-109.16 0.23 -89.73 -9.93 -70.84 -19.02 C-69.52 -19.66 -69.52 -19.66 -68.18 -20.31 C-44.6 -31.45 -19.96 -12.93 0 0 Z " fill="#FBB74F" transform="translate(351.9072265625,48.5869140625)"/>
<path d="M0 0 C0.84 -0.02 1.68 -0.04 2.54 -0.05 C12.86 -0.04 20.45 3.22 27.94 10.31 C29.52 12.26 30.7 14.11 31.94 16.31 C31.61 16.97 31.28 17.63 30.94 18.31 C30.26 17.71 29.58 17.12 28.88 16.5 C20.86 10.53 12.58 10.33 2.94 11.31 C-2.21 12.27 -7.1 13.67 -12.06 15.31 C-13.08 15.64 -14.1 15.97 -15.15 16.3 C-32.07 22.27 -47.7 31.7 -62.06 42.31 C-62.92 42.94 -62.92 42.94 -63.79 43.57 C-75.63 52.22 -86.06 62.24 -96.44 72.56 C-97.09 73.21 -97.75 73.86 -98.42 74.53 C-102.83 78.96 -107 83.56 -111.06 88.31 C-111.54 88.86 -112.01 89.42 -112.5 89.98 C-113.82 91.53 -115.13 93.07 -116.44 94.62 C-116.91 95.18 -117.38 95.74 -117.86 96.31 C-121.54 100.67 -125.15 105.08 -128.75 109.5 C-131.79 113.19 -134.88 116.84 -137.98 120.48 C-140.84 123.84 -143.62 127.24 -146.38 130.69 C-151.24 136.68 -156.53 142.25 -161.83 147.86 C-164.26 150.44 -166.63 153.06 -168.94 155.75 C-174.77 162.51 -181.22 168.59 -188.06 174.31 C-188.58 174.75 -189.1 175.19 -189.64 175.64 C-210.91 193.51 -235.73 207.96 -264.19 207.69 C-265.39 207.7 -266.58 207.71 -267.82 207.72 C-281.15 207.68 -290.53 204.42 -300.29 195.21 C-312.13 182.66 -315.66 166.77 -315.47 149.96 C-315.1 138 -312.7 124.89 -305.06 115.31 C-305.03 115.88 -304.99 116.45 -304.96 117.03 C-303.64 139.11 -303.64 139.11 -292.06 157.31 C-281.76 165.06 -270.59 164.36 -258.43 162.87 C-234.72 158.52 -212.2 145.49 -193.06 131.31 C-192.5 130.9 -191.93 130.48 -191.35 130.05 C-175.11 118.05 -160.85 104.35 -146.69 90 C-144.16 87.44 -141.62 84.88 -139.09 82.33 C-137.52 80.75 -135.96 79.17 -134.4 77.59 C-129.8 72.94 -125.04 68.56 -120.06 64.31 C-118.97 63.35 -117.87 62.39 -116.78 61.43 C-108.84 54.49 -100.63 48.01 -92.11 41.8 C-90.76 40.82 -89.42 39.84 -88.08 38.84 C-67.53 23.6 -44.76 9.5 -20.06 2.31 C-19.25 2.06 -18.44 1.82 -17.6 1.56 C-11.82 0.1 -5.93 0.08 0 0 Z " fill="#FB9948" transform="translate(441.0625,285.6875)"/>
<path d="M0 0 C2.78 3.29 4.13 6.58 5.56 10.62 C5.98 11.77 6.39 12.92 6.82 14.1 C12.47 31.67 11.88 50.27 4 67 C-1.87 78.07 -11.29 84.89 -23 89 C-45.23 95.41 -67.31 89.69 -87.19 79.34 C-104.41 69.65 -119.26 56.84 -133.38 43.12 C-134.24 42.3 -135.1 41.48 -135.99 40.64 C-136.79 39.85 -137.58 39.07 -138.4 38.26 C-139.48 37.21 -139.48 37.21 -140.58 36.14 C-142 34 -142 34 -141.87 31.42 C-140.61 27.92 -138.32 25.47 -135.88 22.75 C-134.87 21.61 -133.88 20.46 -132.88 19.32 C-132.39 18.76 -131.9 18.2 -131.4 17.62 C-128.45 14.2 -125.72 10.6 -123 7 C-119.31 9.75 -115.64 12.5 -112.03 15.34 C-87.81 34.46 -58.99 49.66 -27.36 46.76 C-19.82 45.47 -13.58 41.25 -8.69 35.44 C-1.64 25.07 -1.03 12.12 0 0 Z " fill="#FC9948" transform="translate(463,402)"/>
<path d="M0 0 C6.57 0.44 11.25 2.18 17 5.31 C17.83 5.76 18.65 6.2 19.5 6.65 C27.95 11.32 35.54 16.9 43 23 C43.59 23.48 44.18 23.96 44.79 24.46 C60.25 37.18 75.56 51.04 88.53 66.31 C89.96 68.05 89.96 68.05 91.75 69.47 C92.17 69.98 92.58 70.48 93 71 C92.73 73.5 92.34 74.68 90.49 76.41 C89.84 76.84 89.19 77.26 88.53 77.7 C87.8 78.18 87.07 78.66 86.33 79.16 C85.54 79.66 84.75 80.17 83.94 80.69 C83.12 81.21 82.31 81.74 81.47 82.29 C44.69 105.92 44.69 105.92 24 103 C17.1 101.17 11.57 96.03 7.78 90.09 C-5.91 64.05 -6.16 28.07 0 0 Z " fill="#F99747" transform="translate(151,319)"/>
<path d="M0 0 C8.07 22.38 4.06 54.3 -2.19 76.75 C-2.45 77.74 -2.72 78.73 -3 79.74 C-5.8 89.1 -10.61 96.14 -19.11 101.12 C-27.86 105.17 -38.3 103.75 -47.12 100.69 C-60.97 95.58 -74.26 87.88 -86 79 C-87.37 78.02 -88.75 77.04 -90.12 76.06 C-91.07 75.38 -92.02 74.7 -93 74 C-88.61 64.07 -78 55.81 -70.39 48.2 C-68.63 46.44 -66.88 44.67 -65.12 42.9 C-58.39 36.14 -51.53 29.88 -44 24 C-42.85 23.07 -41.69 22.14 -40.54 21.21 C-12.24 -0.9 -12.24 -0.9 0 0 Z " fill="#F99747" transform="translate(447,319)"/>
<path d="M0 0 C2.92 1.32 5.75 2.78 8.58 4.29 C19.39 9.79 29.73 12.52 42.02 10.91 C46.35 9.38 50.13 7.36 54.02 4.91 C54.7 4.48 55.38 4.06 56.09 3.62 C57.42 2.76 58.73 1.84 60.02 0.91 C62.45 3.88 63.89 6.68 65.2 10.29 C65.72 11.66 65.72 11.66 66.25 13.06 C67.07 16.12 67.15 18.75 67.02 21.91 C66.12 22.03 65.22 22.16 64.3 22.29 C53.67 24.04 45.4 27.75 36.02 32.91 C32.91 34.6 29.79 36.28 26.68 37.97 C24.57 39.12 22.46 40.27 20.35 41.43 C3.35 50.75 3.35 50.75 -7.8 48.29 C-18.01 45.23 -27.06 39.66 -35.8 33.66 C-45.62 27.04 -56.62 24.73 -67.98 21.91 C-67.59 14.54 -66.06 8.63 -62.98 1.91 C-58.44 1.91 -58.01 2.71 -54.8 5.53 C-47.71 10.92 -39.62 11.91 -30.98 10.91 C-21.35 9.15 -13.38 5.94 -4.91 1.2 C-1.98 -0.09 -1.98 -0.09 0 0 Z " fill="#03080C" transform="translate(299.984375,84.08984375)"/>
<path d="M0 0 C1.79 0 1.79 0 3.62 0 C13.72 0.1 22.47 1.57 31.81 5.38 C30.47 14.69 23.24 22.24 17.59 29.45 C11.2 37.67 4.86 45.81 2.69 56.19 C2.52 56.98 2.35 57.77 2.18 58.58 C2.06 59.17 1.94 59.77 1.81 60.38 C-1.13 58.9 -1.26 57 -2.31 53.94 C-2.67 52.95 -3.02 51.96 -3.38 50.94 C-4.41 46.37 -4.34 42.04 -4.19 37.38 C-5.42 37.64 -6.66 37.91 -7.93 38.18 C-9.64 38.54 -11.35 38.9 -13.06 39.25 C-13.96 39.44 -14.86 39.62 -15.78 39.81 C-22.61 41.18 -29.4 42.07 -36.36 42.43 C-40.15 42.72 -42.1 43.31 -45.16 45.63 C-48.27 49.85 -47.84 53.34 -47.19 58.38 C-46.34 61.35 -46.34 61.35 -45.19 63.38 C-46.88 64.94 -46.88 64.94 -49.19 66.38 C-53.23 66.05 -55.08 64.99 -57.69 61.94 C-64.31 53.74 -66.76 47.3 -66.56 36.67 C-66.18 33.33 -65.37 30.51 -64.19 27.38 C-66.5 27.05 -68.81 26.72 -71.19 26.38 C-71.19 25.38 -71.19 24.4 -71.19 23.38 C-68.67 22.27 -66.15 21.17 -63.62 20.06 C-62.57 19.6 -62.57 19.6 -61.49 19.13 C-58.26 17.71 -55.03 16.31 -51.79 14.92 C-48.98 13.71 -46.17 12.49 -43.37 11.25 C-41.6 10.48 -39.83 9.71 -38.06 8.94 C-37.2 8.56 -36.34 8.17 -35.45 7.78 C-23.53 2.6 -13.07 -0.27 0 0 Z " fill="#05090D" transform="translate(378.1875,130.625)"/>
<path d="M0 0 C1.17 -0.01 2.35 -0.02 3.55 -0.04 C13.12 -0.05 22.2 0.66 31.06 4.5 C31.98 4.89 32.91 5.28 33.86 5.68 C36.26 6.88 38.4 8.14 40.65 9.6 C44.99 12.36 49.5 14.37 54.25 16.31 C55.08 16.66 55.91 17 56.77 17.36 C62.39 19.67 67.99 21.64 73.88 23.19 C73.88 23.85 73.88 24.51 73.88 25.19 C69.91 27.17 69.91 27.17 65.88 29.19 C66.37 30.18 66.37 30.18 66.88 31.19 C68.36 49.38 68.36 49.38 62.66 57.12 C62.07 57.81 61.48 58.49 60.88 59.19 C59.99 60.27 59.99 60.27 59.09 61.38 C57.44 63.23 55.92 64.79 53.88 66.19 C50.86 66.19 49.52 65.51 46.88 64.19 C47.75 59.44 47.75 59.44 48.88 57.19 C49.49 51.27 49.49 51.27 46.9 46 C44.09 42.85 41.65 42.4 37.54 42.1 C36.74 42.07 35.95 42.03 35.12 42 C33.43 41.88 31.74 41.75 30.05 41.62 C29.19 41.55 28.34 41.49 27.46 41.42 C23.37 41.05 19.35 40.36 15.31 39.62 C14.23 39.43 14.23 39.43 13.13 39.24 C8.16 38.33 8.16 38.33 5.88 37.19 C5.96 38.26 6.04 39.33 6.12 40.44 C6.15 46.33 4.14 51.81 1.88 57.19 C1.22 57.85 0.56 58.51 -0.12 59.19 C-0.3 58.5 -0.47 57.8 -0.65 57.09 C-4.54 43.55 -13.44 32.76 -22.01 21.82 C-30.12 11.3 -30.12 11.3 -30.12 5.19 C-28.23 4.54 -26.33 3.89 -24.44 3.25 C-23.38 2.89 -22.33 2.53 -21.24 2.16 C-14.13 -0.06 -7.4 0 0 0 Z " fill="#04090D" transform="translate(219.125,130.8125)"/>
<path d="M0 0 C1.42 1.1 1.42 1.1 2.87 2.21 C7.96 6.22 12.81 10.45 17.6 14.82 C20.49 17.44 23.44 19.97 26.41 22.49 C28 24 28 24 30 27 C27.6 29.21 25.18 31.39 22.75 33.56 C22.07 34.19 21.39 34.82 20.68 35.47 C20.02 36.06 19.36 36.65 18.67 37.25 C18.06 37.8 17.46 38.35 16.83 38.92 C15 40 15 40 12.93 39.82 C9.86 38.52 7.82 36.13 5.56 33.75 C5.1 33.27 4.63 32.79 4.15 32.3 C2.77 30.87 1.38 29.44 0 28 C-0.83 27.17 -1.66 26.34 -2.51 25.49 C-4.23 23.77 -5.93 22.03 -7.62 20.27 C-14.38 13.28 -21.51 7.18 -29.27 1.32 C-30.95 0.04 -32.6 -1.27 -34.25 -2.59 C-55.06 -19.2 -85.47 -37.95 -113 -35 C-119.32 -33.4 -124.81 -30.93 -130 -27 C-129.42 -32.11 -127.34 -35.03 -123.43 -38.32 C-86.38 -66.12 -29.1 -22.52 0 0 Z " fill="#F89747" transform="translate(255,332)"/>
<path d="M0 0 C4.26 1.6 6.86 4.82 9.81 8.12 C10.35 8.71 10.88 9.3 11.43 9.9 C14.24 13.01 17.01 16.14 19.75 19.31 C26.94 27.58 34.86 34.91 44 41 C44 41.66 44 42.32 44 43 C29.73 47.84 15.72 49.56 0.75 49.44 C-0.39 49.43 -0.39 49.43 -1.55 49.43 C-15.34 49.38 -29.17 48.58 -42 43 C-42 42.34 -42 41.68 -42 41 C-40.45 39.82 -38.86 38.71 -37.25 37.62 C-23.48 27.8 -11.19 14.46 -1 1 C-0.67 0.67 -0.34 0.34 0 0 Z " fill="#FA9847" transform="translate(298,462)"/>
<path d="M0 0 C4.8 2.6 9 5.41 13.12 9 C13.95 9.71 13.95 9.71 14.8 10.43 C25.84 19.99 36.74 29.88 46.26 40.98 C47.49 42.4 48.73 43.81 49.99 45.21 C50.63 45.93 51.28 46.64 51.94 47.38 C52.82 48.35 52.82 48.35 53.71 49.34 C55 51 55 51 55 53 C32.45 64.93 32.45 64.93 23.92 65.02 C20.7 63.3 19.3 60.15 17.56 57.06 C17.17 56.37 16.77 55.68 16.36 54.97 C15.58 53.6 14.8 52.22 14.03 50.84 C13.22 49.38 12.37 47.95 11.52 46.52 C4.17 33.42 -0.48 14.98 0 0 Z " fill="#04080C" transform="translate(166,338)"/>
<path d="M0 0 C-0.04 8.22 -1.77 15.83 -3.81 23.75 C-4.06 24.73 -4.31 25.71 -4.56 26.72 C-6.12 32.58 -8.12 37.69 -11 43 C-11.67 44.35 -12.34 45.71 -13 47.07 C-13.67 48.42 -14.33 49.77 -15 51.12 C-15.33 51.8 -15.66 52.48 -16 53.18 C-18.07 57.35 -20.34 61.18 -23 65 C-30.36 64.32 -36.78 62.53 -43.5 59.56 C-44.52 59.11 -44.52 59.11 -45.57 58.65 C-49.01 57.08 -52.09 55.43 -55 53 C-53.49 47.56 -49.76 44.19 -45.94 40.25 C-45.23 39.51 -44.52 38.77 -43.79 38.01 C-41.54 35.66 -39.27 33.33 -37 31 C-36.28 30.25 -35.55 29.5 -34.81 28.73 C-25.75 19.34 -16.51 10.74 -6 3 C-5.25 2.41 -4.51 1.82 -3.74 1.21 C-2 0 -2 0 0 0 Z " fill="#04080C" transform="translate(433,338)"/>
<path d="M0 0 C0.33 0 0.66 0 1 0 C1.09 0.7 1.17 1.41 1.26 2.13 C2.97 14.16 6.56 24.7 13.55 34.7 C16 38.59 16 38.59 16 41 C14.47 43.12 12.96 44.92 11.19 46.81 C6.93 51.59 3.13 56.46 -0.38 61.81 C-0.8 62.45 -1.22 63.08 -1.65 63.74 C-3.77 66.98 -5.68 70.26 -7.5 73.69 C-10.27 78.28 -15.02 79.66 -20 81 C-20.66 81 -21.32 81 -22 81 C-23.13 52.25 -13.88 24.84 0 0 Z " fill="#F8A246" transform="translate(152,198)"/>
<path d="M0 0 C7.67 2.36 14.85 5.49 22.12 8.88 C22.74 9.16 23.35 9.44 23.98 9.74 C38.64 16.58 52.63 24.44 66.4 32.93 C67.45 33.58 68.5 34.23 69.59 34.89 C71.61 36.15 73.63 37.41 75.64 38.68 C77 39.53 77 39.53 78.39 40.39 C79.18 40.9 79.98 41.4 80.8 41.92 C83.19 43.29 83.19 43.29 87 43 C89.56 41.78 89.56 41.78 92.23 40.07 C93.25 39.44 94.27 38.82 95.33 38.17 C96.42 37.5 97.5 36.82 98.62 36.12 C100.89 34.74 103.17 33.35 105.44 31.97 C106.56 31.29 107.67 30.61 108.82 29.91 C115.12 26.12 121.55 22.58 128.02 19.08 C129.92 18.04 131.81 16.99 133.7 15.93 C141.04 11.86 148.56 8.3 156.25 4.94 C157.17 4.53 158.09 4.12 159.03 3.7 C160.32 3.15 160.32 3.15 161.64 2.59 C162.41 2.26 163.18 1.93 163.97 1.59 C166 1 166 1 169 2 C167.69 2.7 167.69 2.7 166.34 3.41 C141.68 16.74 118.92 33.64 96.89 50.91 C96.22 51.43 95.56 51.95 94.87 52.48 C93.66 53.47 92.48 54.49 91.33 55.55 C87.63 58.97 87.63 58.97 84.5 59.12 C81.18 57.63 78.72 55.48 76.06 53.06 C69.96 47.71 63.58 43 56.93 38.36 C54.87 36.91 52.84 35.43 50.82 33.94 C36.08 23.12 20.91 13.05 5.03 3.98 C3.34 3.01 1.67 2.01 0 1 C0 0.67 0 0.34 0 0 Z " fill="#F35C00" transform="translate(214,285)"/>
<path d="M0 0 C16.04 8.02 27.38 22.1 37.28 36.67 C37.71 37.29 38.13 37.92 38.57 38.56 C38.97 39.16 39.37 39.76 39.78 40.38 C40.13 40.91 40.48 41.43 40.84 41.98 C41.84 43.86 41.84 43.86 43.84 49.86 C39.55 50.19 35.26 50.52 30.84 50.86 C29.92 49.12 29.92 49.12 28.97 47.34 C23.88 37.9 18.59 29.23 11.84 20.86 C11.41 20.25 10.97 19.64 10.52 19.01 C6.11 13 -1.91 8.37 -9.16 6.86 C-17.96 5.74 -24.36 8.37 -31.45 13.53 C-32.01 13.97 -32.57 14.41 -33.16 14.86 C-29.76 7.22 -24.36 3.66 -17.16 -0.14 C-11.32 -2.09 -5.82 -2.1 0 0 Z " fill="#F49E45" transform="translate(386.15625,223.140625)"/>
<path d="M0 0 C4.79 2.77 8.67 6.6 12.57 10.49 C12.24 11.15 11.91 11.81 11.57 12.49 C10.89 11.89 10.21 11.29 9.51 10.68 C2.79 5.67 -3.14 4.35 -11.43 5.49 C-28.58 10.17 -37.63 25.57 -45.99 40.18 C-47.74 43.29 -49.3 46.1 -50.43 49.49 C-54.94 49.56 -59.02 49.59 -63.43 48.49 C-61.17 32.87 -43.21 15.43 -31.43 5.49 C-21.27 -1.93 -11.9 -5.14 0 0 Z " fill="#F49F46" transform="translate(232.42578125,224.51171875)"/>
<path d="M0 0 C0.66 0 1.32 0 2 0 C4.23 9.44 4.2 20.15 0 29 C-0.34 29.75 -0.68 30.49 -1.03 31.26 C-3.97 37.11 -7.9 41.87 -13 46 C-13.66 46 -14.32 46 -15 46 C-17.95 37.14 -16.37 27.94 -12.49 19.68 C-10.74 16.53 -8.76 13.75 -6.49 10.96 C-3.9 7.56 -1.98 3.78 0 0 Z " fill="#F0A943" transform="translate(427,167)"/>
<path d="M0 0 C2.67 2.44 4.46 5.12 6.38 8.19 C6.98 9.16 7.59 10.14 8.22 11.15 C8.81 12.09 9.4 13.03 10 14 C10.49 14.76 10.99 15.51 11.5 16.29 C11.93 16.96 12.36 17.62 12.81 18.31 C13.19 18.89 13.57 19.46 13.96 20.05 C16.96 25.67 17.26 30.66 17.12 36.88 C17.12 37.66 17.11 38.44 17.1 39.25 C17.07 41.17 17.04 43.08 17 45 C12.8 45 10.84 42.82 8 40 C3.73 35.18 1.76 30.13 0 24 C-0.33 23.01 -0.66 22.02 -1 21 C-1.09 19.54 -1.13 18.08 -1.13 16.62 C-1.13 15.78 -1.14 14.94 -1.14 14.08 C-1.13 13.21 -1.13 12.34 -1.12 11.44 C-1.13 10.56 -1.13 9.69 -1.14 8.78 C-1.14 7.95 -1.13 7.11 -1.13 6.25 C-1.13 5.48 -1.13 4.71 -1.13 3.92 C-1 2 -1 2 0 0 Z " fill="#F4AC44" transform="translate(170,167)"/>
<path d="M0 0 C-1.03 4.99 -3.13 8.66 -7 12 C-13.53 14.57 -21.01 15.91 -28 15 C-30 13.31 -30 13.31 -31 11 C-31.19 8.25 -31.19 8.25 -31 6 C-20.99 1.88 -10.87 -0.66 0 0 Z " fill="#F2F3F3" transform="translate(367,148)"/>
<path d="M0 0 C10.86 -1.35 20.85 2.63 31 6 C30.4 11.44 30.4 11.44 28.68 13.85 C24.21 16.91 16.83 14.98 11.81 14.06 C7.17 12.84 4.98 11.46 2.25 7.5 C0.59 4.63 0 3.36 0 0 Z " fill="#F1F1F2" transform="translate(232,148)"/>
<path d="M0 0 C0.33 1.32 0.66 2.64 1 4 C-5.6 4 -12.2 4 -19 4 C-13.86 -1.14 -6.75 -0.22 0 0 Z " fill="#231D13" transform="translate(376,114)"/>
<path d="M0 0 C-2.62 1.48 -5.25 2.96 -7.88 4.44 C-8.62 4.86 -9.37 5.28 -10.14 5.71 C-11.21 6.32 -11.21 6.32 -12.3 6.93 C-12.96 7.31 -13.62 7.68 -14.3 8.06 C-15.52 8.73 -16.76 9.38 -18 10 C-18.33 9.34 -18.66 8.68 -19 8 C-19.66 7.67 -20.32 7.34 -21 7 C-16.62 4.73 -12.23 2.6 -7.69 0.69 C-6.46 0.17 -6.46 0.17 -5.2 -0.36 C-3 -1 -3 -1 0 0 Z " fill="#CD4F02" transform="translate(383,287)"/>
<path d="M0 0 C0.33 1.32 0.66 2.64 1 4 C0.25 4.4 -0.5 4.8 -1.27 5.21 C-2.25 5.74 -3.24 6.27 -4.25 6.81 C-5.22 7.33 -6.2 7.86 -7.2 8.39 C-9.63 9.79 -11.81 11.26 -14 13 C-11.57 7.53 -6.65 0 0 0 Z " fill="#E69E42" transform="translate(367,225)"/>
<path d="M0 0 C0.33 0 0.66 0 1 0 C1 3.96 1 7.92 1 12 C-5.93 11.67 -12.86 11.34 -20 11 C-20 10.67 -20 10.34 -20 10 C-13.73 10 -7.46 10 -1 10 C-1 7.03 -1 4.06 -1 1 C-0.67 0.67 -0.34 0.34 0 0 Z " fill="#D7983D" transform="translate(394,198)"/>
<path d="M0 0 C0.33 0.99 0.66 1.98 1 3 C-2.96 6.96 -6.92 10.92 -11 15 C-11.66 14.67 -12.32 14.34 -13 14 C-8.83 9.14 -4.58 4.47 0 0 Z " fill="#D4823E" transform="translate(71,257)"/>
<path d="M0 0 C6.2 1.94 12.11 4.26 18 7 C17.01 7.5 17.01 7.5 16 8 C15.67 8.66 15.34 9.32 15 10 C12.5 8.53 10 7.05 7.5 5.56 C6.78 5.14 6.07 4.72 5.33 4.29 C3.54 3.22 1.77 2.11 0 1 C0 0.67 0 0.34 0 0 Z " fill="#DC5401" transform="translate(214,285)"/>
<path d="M0 0 C9.41 1.49 9.41 1.49 19 3 C19 3.33 19 3.66 19 4 C13.21 4.1 7.71 3.99 2 3 C1.34 3.99 0.68 4.98 0 6 C0 4.02 0 2.04 0 0 Z " fill="#D79A3D" transform="translate(225,168)"/>
<path d="M0 0 C0.33 0 0.66 0 1 0 C1.31 3.31 1.31 3.31 1 7 C-1.5 8.94 -1.5 8.94 -4 10 C-2.89 6.51 -1.74 3.23 0 0 Z " fill="#DE8840" transform="translate(135,401)"/>
<path d="M0 0 C2 1 2 1 3 3 C2.07 3.62 1.14 4.24 0.19 4.88 C-1.39 5.93 -1.39 5.93 -3 7 C-4.49 7.99 -4.49 7.99 -6 9 C-4.47 5.56 -2.4 2.88 0 0 Z " fill="#B77E37" transform="translate(359,229)"/>
<path d="M0 0 C1.46 0.45 2.92 0.91 4.38 1.38 C5.19 1.63 6 1.89 6.84 2.15 C9 3 9 3 11 5 C5.96 5 4.22 3.6 0 1 C0 0.67 0 0.34 0 0 Z " fill="#B94702" transform="translate(214,285)"/>
<path d="M0 0 C2.95 1.14 4.88 2.67 7 5 C6.67 5.66 6.34 6.32 6 7 C5.24 6.38 4.47 5.76 3.69 5.12 C1 2.94 1 2.94 -2 1 C-1.34 0.67 -0.68 0.34 0 0 Z " fill="#BF8339" transform="translate(238,230)"/>
<path d="M0 0 C0.66 0 1.32 0 2 0 C0.8 2.49 -0.45 4.68 -2 7 C-2.66 7 -3.32 7 -4 7 C-2.93 4.08 -2.22 2.22 0 0 Z " fill="#DA9C3E" transform="translate(334,174)"/>
</svg>
