<?xml version="1.0" encoding="UTF-8"?>
<svg version="1.1" xmlns="http://www.w3.org/2000/svg" width="50" height="50">
<path d="M0 0 C0.66 0 1.32 0 2 0 C2 6.93 2 13.86 2 21 C4.475 21.99 4.475 21.99 7 23 C7.99 22.34 8.98 21.68 10 21 C10.41570008 18.77501085 10.41570008 18.77501085 10.29296875 16.2109375 C10.28330078 15.26992187 10.27363281 14.32890625 10.26367188 13.359375 C10.23853516 12.37453125 10.21339844 11.3896875 10.1875 10.375 C10.17396484 9.38242188 10.16042969 8.38984375 10.14648438 7.3671875 C10.11105743 4.91091928 10.06166196 2.45572715 10 0 C10.66 0 11.32 0 12 0 C12.12375 1.423125 12.12375 1.423125 12.25 2.875 C12.4975 3.90625 12.745 4.9375 13 6 C14.86644906 7.18330183 14.86644906 7.18330183 17 8 C20.90776382 12.4866918 21.11009187 16.16513082 21 22 C15.06 24.475 15.06 24.475 9 27 C8.67 29.97 8.34 32.94 8 36 C6.68 36 5.36 36 4 36 C3.67 33.03 3.34 30.06 3 27 C-0.96 25.35 -4.92 23.7 -9 22 C-9.4998202 15.87720257 -8.45350289 12.89246242 -5 8 C-4.278125 7.649375 -3.55625 7.29875 -2.8125 6.9375 C-2.214375 6.628125 -1.61625 6.31875 -1 6 C-0.18415432 2.94091587 -0.18415432 2.94091587 0 0 Z " fill="#FEFFFF" transform="translate(19,0)"/>
<path d="M0 0 C1.2375 0.185625 2.475 0.37125 3.75 0.5625 C6.76279577 0.94711223 9.10010827 1.0874594 12 0 C12 2.64 12 5.28 12 8 C11.01 8.33 10.02 8.66 9 9 C9 10.65 9 12.3 9 14 C8.34 14 7.68 14 7 14 C7 11.36 7 8.72 7 6 C6.34 6 5.68 6 5 6 C5 8.64 5 11.28 5 14 C4.34 14 3.68 14 3 14 C3 12.35 3 10.7 3 9 C2.01 8.67 1.02 8.34 0 8 C0 5.36 0 2.72 0 0 Z " fill="#FEFFFF" transform="translate(19,36)"/>
<path d="M0 0 C0 0.99 0 1.98 0 3 C-0.99 3.495 -0.99 3.495 -2 4 C-2.8013619 6.85741085 -3.49708506 9.66711443 -4.125 12.5625 C-4.30675781 13.36880859 -4.48851562 14.17511719 -4.67578125 15.00585938 C-5.12467118 17.00223825 -5.56329743 19.0009198 -6 21 C-6.66 21 -7.32 21 -8 21 C-8 17.37 -8 13.74 -8 10 C-9.32 10.33 -10.64 10.66 -12 11 C-12 9.02 -12 7.04 -12 5 C-8.04 3.35 -4.08 1.7 0 0 Z " fill="#FFFFFF" transform="translate(41,23)"/>
<path d="M0 0 C4.29 1.65 8.58 3.3 13 5 C13 6.98 13 8.96 13 11 C11.68 10.67 10.36 10.34 9 10 C9 13.63 9 17.26 9 21 C8.34 21 7.68 21 7 21 C6.74605469 19.79601562 6.49210938 18.59203125 6.23046875 17.3515625 C5.88344818 15.77590153 5.53575703 14.20038815 5.1875 12.625 C5.02185547 11.8309375 4.85621094 11.036875 4.68554688 10.21875 C4.51474609 9.45820312 4.34394531 8.69765625 4.16796875 7.9140625 C3.94016724 6.8614624 3.94016724 6.8614624 3.70776367 5.78759766 C3.04540191 3.61901975 3.04540191 3.61901975 0 2 C0 1.34 0 0.68 0 0 Z " fill="#FFFFFF" transform="translate(8,23)"/>
</svg>
