<?xml version="1.0" encoding="UTF-8"?>
<!-- Generator: https://ezgif.com/png-to-svg -->
<svg version="1.1" xmlns="http://www.w3.org/2000/svg" width="512" height="512" viewBox="-194.785 -53.04 990.08 990.08" preserveAspectRatio="xMidYMid meet">
<path d="M0 0 C3.3 0 6.6 0 10 0 C10 129.69 10 259.38 10 393 C14.45 394.49 14.45 394.49 19 396 C20.78 396.71 22.56 397.46 24.31 398.23 C25.23 398.64 26.16 399.05 27.11 399.46 C28.06 399.89 29.02 400.31 30 400.75 C37.05 403.85 44.11 406.91 51.25 409.81 C56.63 412 61.93 414.31 67.2 416.76 C71.18 418.53 75.24 420.1 79.29 421.68 C84.72 423.82 89.9 426.33 95.1 429 C101.61 431.25 107.75 427.59 113.68 424.96 C114.62 424.55 115.55 424.14 116.51 423.73 C119.49 422.43 122.46 421.12 125.44 419.81 C129.33 418.11 133.23 416.41 137.12 414.71 C138.06 414.3 139 413.89 139.97 413.46 C146.59 410.58 153.25 407.84 159.97 405.21 C164.73 403.31 169.35 401.14 174 399 C178.62 397.02 183.24 395.04 188 393 C188.33 263.31 188.66 133.62 189 0 C192.63 0 196.26 0 200 0 C201.47 9.06 202.65 18.12 203.66 27.23 C203.81 28.57 203.95 29.9 204.1 31.23 C204.49 34.7 204.88 38.17 205.27 41.64 C205.73 45.82 206.2 49.99 206.66 54.16 C207.04 57.51 207.41 60.85 207.78 64.2 C208.39 69.63 209 75.07 209.66 80.49 C209.76 81.28 209.86 82.06 209.95 82.87 C210.19 84.81 210.44 86.75 210.69 88.7 C211.01 92.15 211.06 95.53 211 99 C211.84 99.26 212.69 99.51 213.55 99.77 C217.26 101.09 220.67 102.76 224.12 104.62 C224.78 104.98 225.44 105.34 226.12 105.7 C237.91 112.16 248.47 120.24 259.05 128.48 C260.8 129.84 262.55 131.19 264.31 132.54 C265.22 133.25 266.13 133.96 267.06 134.69 C267.84 135.29 268.61 135.89 269.41 136.51 C269.93 137 270.46 137.49 271 138 C271 138.66 271 139.32 271 140 C271.59 140.27 272.18 140.53 272.79 140.81 C275.05 142.03 276.54 143.28 278.36 145.09 C278.97 145.7 279.59 146.32 280.23 146.95 C280.87 147.61 281.52 148.26 282.19 148.94 C282.86 149.61 283.53 150.29 284.22 150.99 C289.52 156.4 294.4 161.98 299 168 C299.73 168.95 300.47 169.91 301.23 170.89 C303.52 173.9 305.77 176.94 308 180 C308.71 180.95 309.42 181.9 310.14 182.88 C321.28 198.28 329.72 215.5 337 233 C337.45 234.03 337.89 235.06 338.35 236.12 C355.52 277.77 357.96 323.85 352 368 C351.91 368.89 351.82 369.79 351.73 370.71 C350.97 376.19 350.97 376.19 348.49 378.26 C346.38 379.37 344.25 380.18 342 381 C340.27 381.75 338.54 382.51 336.82 383.28 C334.73 384.17 332.65 385.05 330.56 385.94 C328.75 386.71 326.94 387.48 325.13 388.25 C323.78 388.83 322.42 389.41 321.06 389.99 C314.66 392.72 308.26 395.46 301.86 398.21 C299.69 399.14 297.52 400.07 295.35 401 C292.11 402.4 288.87 403.79 285.63 405.18 C274.89 409.79 264.15 414.4 253.33 418.8 C249.63 420.31 245.99 421.88 242.38 423.56 C237.06 426.03 231.63 428.16 226.16 430.28 C222.7 431.67 219.32 433.23 215.93 434.81 C209.48 437.81 202.95 440.59 196.37 443.32 C192.98 444.73 189.59 446.15 186.2 447.56 C185.51 447.85 184.83 448.14 184.12 448.43 C176.28 451.71 168.47 455.06 160.67 458.43 C148.47 463.68 136.23 468.82 124 474 C123.67 521.85 123.34 569.7 123 619 C118.05 621.47 118.05 621.47 113 624 C111.37 624.94 111.37 624.94 109.7 625.9 C104.97 628.22 101.5 629.61 96.34 628.35 C80.97 622.97 80.97 622.97 77 619 C76.89 617.13 76.85 615.25 76.84 613.37 C76.83 611.54 76.83 611.54 76.81 609.67 C76.81 608.31 76.8 606.94 76.79 605.58 C76.79 604.15 76.78 602.72 76.76 601.29 C76.74 597.4 76.72 593.51 76.7 589.62 C76.67 585.56 76.65 581.5 76.62 577.44 C76.57 569.74 76.53 562.04 76.48 554.35 C76.43 545.59 76.38 536.83 76.32 528.07 C76.21 510.05 76.1 492.02 76 474 C74.95 473.56 73.89 473.11 72.8 472.66 C68.79 470.97 64.78 469.28 60.77 467.6 C59.06 466.87 57.34 466.15 55.62 465.43 C43.6 460.38 31.6 455.28 19.62 450.12 C18.1 449.47 16.57 448.81 15.04 448.16 C14.37 447.87 13.69 447.57 13 447.28 C4.26 443.53 -4.49 439.84 -13.28 436.23 C-18.73 433.98 -24.11 431.6 -29.47 429.14 C-32.69 427.69 -35.95 426.4 -39.25 425.12 C-45.61 422.63 -51.75 419.81 -57.92 416.88 C-61.88 415.03 -65.9 413.36 -69.96 411.71 C-75.68 409.38 -81.38 407.01 -87.05 404.56 C-87.72 404.28 -88.38 403.99 -89.07 403.7 C-92.65 402.16 -96.22 400.6 -99.79 399.04 C-107.01 395.9 -114.23 392.86 -121.62 390.15 C-124.96 388.93 -128.28 387.66 -131.59 386.4 C-133.18 385.8 -134.78 385.23 -136.39 384.69 C-141.4 382.97 -145.79 381.27 -150 378 C-152.29 373.04 -152.73 368.41 -153 363 C-153.23 361.41 -153.47 359.83 -153.73 358.25 C-160.07 303.92 -149.27 248.45 -122 201 C-121.36 199.88 -120.71 198.75 -120.05 197.6 C-96.08 157.41 -57.16 116.84 -13 99 C-12.34 99 -11.68 99 -11 99 C-11.02 98.44 -11.03 97.88 -11.05 97.3 C-11.17 89.79 -10.41 82.48 -9.54 75.02 C-9.39 73.69 -9.23 72.35 -9.08 71.01 C-8.68 67.51 -8.28 64.01 -7.87 60.51 C-7.46 56.99 -7.06 53.47 -6.66 49.96 C-5.29 37.96 -3.91 25.96 -2.36 13.98 C-1.91 10.23 -1.55 6.48 -1.25 2.72 C-1 1 -1 1 0 0 Z " fill="#FFFFFF" transform="translate(200,0)"/>
<path d="M0 0 C4.08 0.63 7.48 1.45 11.25 3.13 C12.31 3.6 13.37 4.06 14.45 4.54 C15.62 5.07 16.79 5.59 18 6.12 C20.66 7.3 23.31 8.46 25.97 9.62 C26.72 9.95 27.46 10.28 28.23 10.61 C40.25 15.88 52.35 20.99 64.44 26.12 C66.86 27.16 69.28 28.19 71.7 29.22 C75.05 30.64 78.39 32.06 81.74 33.49 C82.73 33.9 83.71 34.32 84.72 34.75 C86.1 35.34 86.1 35.34 87.49 35.93 C89.06 36.6 90.61 37.27 92.17 37.95 C96.99 40.07 100.15 41 105.29 39.2 C108.08 38.05 110.82 36.82 113.56 35.56 C115.65 34.63 117.74 33.7 119.83 32.77 C120.88 32.3 121.92 31.83 123 31.34 C127.23 29.45 131.49 27.63 135.75 25.81 C137.45 25.08 139.16 24.35 140.86 23.62 C141.8 23.22 142.74 22.82 143.71 22.41 C150.01 19.71 156.31 17.01 162.61 14.31 C164.87 13.34 167.13 12.37 169.39 11.4 C170.11 11.1 170.83 10.79 171.57 10.47 C172.99 9.86 174.41 9.25 175.83 8.65 C179.25 7.18 182.67 5.71 186.07 4.21 C186.72 3.93 187.36 3.65 188.02 3.36 C189.76 2.59 191.5 1.82 193.24 1.06 C196 0 196 0 199 0 C199.26 15.12 199.45 30.23 199.57 45.35 C199.63 52.37 199.7 59.39 199.83 66.41 C199.95 73.18 200.02 79.96 200.04 86.74 C200.06 89.32 200.1 91.9 200.16 94.49 C200.63 115.83 200.63 115.83 196.55 120.41 C193.25 122.88 190.23 125 186 125 C186 125.66 186 126.32 186 127 C184.09 128.38 184.09 128.38 181.38 130 C174.94 133.98 168.78 138.3 162.7 142.79 C161 144 161 144 159.09 145.13 C155.47 147.36 154.19 148.48 152.65 152.61 C152.38 154.13 152.15 155.66 151.94 157.19 C151.72 158.48 151.72 158.48 151.51 159.81 C150.96 163.2 150.48 166.6 150 170 C149.76 171.63 149.52 173.27 149.28 174.9 C148.07 183.18 146.88 191.47 145.73 199.75 C144.13 211.24 142.34 222.64 140 234 C136.37 234 132.74 234 129 234 C129 184.17 129 134.34 129 83 C109.86 83 90.72 83 71 83 C71 132.83 71 182.66 71 234 C67.37 234 63.74 234 60 234 C58.48 232.48 58.61 230.94 58.31 228.82 C58.17 227.88 58.04 226.93 57.9 225.95 C57.74 224.87 57.59 223.8 57.44 222.69 C57.09 220.26 56.73 217.83 56.38 215.41 C56.28 214.72 56.18 214.03 56.07 213.31 C54.56 202.95 52.99 192.6 51.42 182.24 C51.06 179.88 50.7 177.51 50.34 175.14 C49.83 171.76 49.32 168.39 48.8 165.01 C48.65 163.99 48.5 162.97 48.34 161.92 C47.27 152.71 47.27 152.71 42.02 145.58 C40.77 144.79 39.51 144.01 38.25 143.25 C36.88 142.38 35.51 141.51 34.14 140.64 C33.44 140.2 32.75 139.76 32.03 139.31 C28.41 136.98 24.91 134.47 21.48 131.86 C18.38 129.55 15.39 127.64 11.87 126.04 C6.37 123.33 1.19 120.47 -0.89 114.41 C-2.29 106.45 -1.83 98.38 -1.56 90.33 C-1.53 87.72 -1.51 85.12 -1.49 82.51 C-1.44 76.37 -1.31 70.24 -1.15 64.1 C-0.97 57.1 -0.89 50.11 -0.81 43.12 C-0.64 28.74 -0.36 14.37 0 0 Z " fill="#FFFFFF" transform="translate(200,650)"/>
<path d="M0 0 C1.63 4.11 2.51 6.77 1 11 C-1.32 12.93 -1.32 12.93 -4.56 14.88 C-5.84 15.65 -7.11 16.43 -8.39 17.21 C-9.47 17.87 -9.47 17.87 -10.58 18.53 C-14.33 20.81 -18.04 23.15 -21.76 25.48 C-28.36 29.63 -34.99 33.75 -41.61 37.87 C-42.95 38.71 -44.29 39.54 -45.62 40.38 C-46.56 40.96 -46.56 40.96 -47.52 41.55 C-50.7 43.54 -53.87 45.56 -57.02 47.61 C-57.66 48.03 -58.31 48.45 -58.98 48.89 C-60.21 49.69 -61.44 50.5 -62.66 51.31 C-66.78 54 -66.78 54 -69 54 C-69.13 55.13 -69.25 56.25 -69.38 57.41 C-69.98 62.13 -70.89 66.76 -71.86 71.42 C-72.04 72.31 -72.22 73.2 -72.41 74.12 C-73 76.99 -73.59 79.87 -74.19 82.75 C-74.6 84.76 -75.01 86.76 -75.43 88.77 C-77.82 100.38 -80.25 111.97 -82.76 123.55 C-84.7 132.52 -86.54 141.5 -88.36 150.49 C-91.31 164.99 -94.39 179.45 -97.63 193.89 C-100.39 206.16 -102.99 218.45 -105.51 230.77 C-106.95 237.8 -108.44 244.81 -109.94 251.83 C-112.77 265.08 -115.53 278.35 -118.25 291.62 C-118.42 292.44 -118.58 293.25 -118.76 294.09 C-120.64 303.28 -122.5 312.47 -124.32 321.68 C-125.86 329.24 -127.47 336.7 -130 344 C-133.63 344 -137.26 344 -141 344 C-141 277.34 -141 210.68 -141 142 C-146.28 144.31 -151.56 146.62 -157 149 C-162.52 151.34 -168.04 153.67 -173.57 155.99 C-178.68 158.14 -183.77 160.33 -188.8 162.64 C-193.1 164.61 -197.41 166.41 -201.81 168.12 C-205.41 169.53 -208.88 170.94 -212.32 172.68 C-215 174 -215 174 -217 174 C-217 146.94 -217 119.88 -217 92 C-192.96 81.07 -192.96 81.07 -185.85 78.17 C-182.46 76.78 -179.09 75.34 -175.72 73.9 C-174.75 73.48 -174.75 73.48 -173.75 73.06 C-171.67 72.16 -169.58 71.27 -167.5 70.38 C-166 69.73 -164.5 69.09 -162.99 68.44 C-154.14 64.65 -145.29 60.83 -136.45 57 C-135.48 56.58 -134.51 56.16 -133.5 55.73 C-128.73 53.66 -123.96 51.59 -119.19 49.52 C-110.26 45.65 -101.31 41.86 -92.24 38.32 C-88.74 36.89 -85.35 35.32 -81.94 33.69 C-74.78 30.28 -67.48 27.31 -60.13 24.34 C-54.7 22.14 -49.35 19.84 -44.06 17.31 C-38.57 14.69 -33.02 12.35 -27.36 10.13 C-23.54 8.63 -19.79 7.03 -16.06 5.31 C-4.56 0 -4.56 0 0 0 Z " fill="#FFFFFF" transform="translate(598,420)"/>
<path d="M0 0 C6.77 1.85 13.03 4.2 19.38 7.19 C26.28 10.37 33.23 13.35 40.31 16.12 C47.34 18.88 54.14 21.89 60.95 25.15 C66.8 27.88 72.81 30.24 78.8 32.63 C84.84 35.05 90.75 37.71 96.65 40.46 C102.22 43.02 107.86 45.41 113.5 47.81 C114.74 48.34 115.98 48.87 117.22 49.4 C119.69 50.45 122.15 51.51 124.62 52.56 C129.1 54.47 133.58 56.39 138.06 58.31 C139.74 59.03 141.42 59.75 143.09 60.47 C152.86 64.65 152.86 64.65 154.94 65.55 C156.39 66.17 157.84 66.79 159.29 67.41 C163.05 69.02 166.82 70.64 170.59 72.25 C177.16 75.07 183.74 77.89 190.31 80.7 C192.91 81.81 195.51 82.92 198.11 84.03 C199.9 84.79 201.68 85.56 203.47 86.32 C204.54 86.78 205.61 87.24 206.71 87.71 C207.64 88.1 208.57 88.5 209.53 88.91 C211.72 89.88 213.86 90.93 216 92 C216 119.06 216 146.12 216 174 C209.07 171.48 202.29 168.94 195.55 166.02 C194.68 165.65 193.82 165.28 192.93 164.9 C190.21 163.73 187.48 162.55 184.75 161.38 C182.97 160.61 181.19 159.85 179.41 159.08 C166.26 153.42 153.13 147.71 140 142 C140 208.66 140 275.32 140 344 C136.37 344 132.74 344 129 344 C127.52 339.79 126.42 335.65 125.51 331.28 C125.37 330.62 125.23 329.95 125.09 329.27 C124.62 327.01 124.15 324.76 123.69 322.5 C123.34 320.85 123 319.2 122.65 317.54 C121.87 313.81 121.1 310.08 120.32 306.34 C118.07 295.51 115.79 284.68 113.52 273.86 C112.82 270.52 112.12 267.18 111.42 263.85 C107.03 242.86 102.6 221.88 98.15 200.9 C97.83 199.36 97.83 199.36 97.5 197.79 C97.28 196.79 97.07 195.78 96.85 194.74 C94.64 184.33 92.45 173.9 90.26 163.48 C88.59 155.55 86.92 147.63 85.23 139.7 C84.8 137.66 84.37 135.62 83.93 133.58 C83.65 132.24 83.36 130.9 83.07 129.56 C81.33 121.39 79.63 113.2 77.96 105.01 C77.7 103.74 77.7 103.74 77.44 102.44 C77.09 100.73 76.74 99.02 76.39 97.3 C76.22 96.46 76.05 95.62 75.88 94.75 C75.62 93.5 75.62 93.5 75.36 92.23 C73.06 80.9 70.61 69.63 67.81 58.42 C67 55 67 55 67 53 C66.27 52.73 65.54 52.45 64.79 52.17 C62.12 51.05 59.79 49.78 57.32 48.27 C55.98 47.45 55.98 47.45 54.6 46.61 C53.16 45.72 53.16 45.72 51.69 44.81 C50.68 44.2 49.68 43.58 48.64 42.94 C4.88 16.08 4.88 16.08 -3 10 C-2.25 3.38 -2.25 3.38 0 0 Z " fill="#FFFFFF" transform="translate(3,420)"/>
</svg>
