<?xml version="1.0" encoding="UTF-8"?>
<!-- Generator: https://ezgif.com/png-to-svg -->
<svg version="1.1" xmlns="http://www.w3.org/2000/svg" width="512" height="512" viewBox="-36.744 -176.854 673.187 673.187" preserveAspectRatio="xMidYMid meet">
<path d="M0 0 C0.66 0 1.32 0 2 0 C4.53 13.9 -1.52 25.25 -8.72 36.75 C-10.16 38.86 -10.16 38.86 -10 41 C-9.01 41.33 -8.02 41.66 -7 42 C-6.37 42.21 -5.75 42.42 -5.1 42.64 C0.66 44.58 6.44 46.42 12.25 48.19 C13.12 48.46 13.99 48.73 14.89 49.01 C15.74 49.27 16.58 49.53 17.45 49.79 C18.21 50.03 18.96 50.26 19.74 50.5 C22.22 51.05 24.47 51.09 27 51 C27 51.66 27 52.32 27 53 C28.87 53.82 30.75 54.63 32.62 55.44 C33.67 55.89 34.71 56.34 35.79 56.81 C38.9 57.96 41.74 58.47 45 59 C47.34 59.97 47.34 59.97 49.38 61.06 C50.06 61.42 50.75 61.79 51.46 62.16 C51.97 62.44 52.48 62.71 53 63 C53 63.66 53 64.32 53 65 C55.47 65.5 55.47 65.5 58 66 C58 66.66 58 67.32 58 68 C60.47 68.5 60.47 68.5 63 69 C63.33 69.99 63.66 70.98 64 72 C65.92 73.17 65.92 73.17 68 74 C70 75 70 75 71.44 76.5 C73.04 78.25 73.04 78.25 76 79 C76.29 79.64 76.58 80.28 76.88 80.94 C77.85 83.25 77.85 83.25 80.5 84 C83.6 85.24 83.58 86.1 85 89 C86.5 90.68 86.5 90.68 88.23 92.26 C108.79 112.27 122.7 141.44 123.34 170.25 C123.38 173.31 123.38 176.37 123.38 179.44 C123.37 180.24 123.37 181.03 123.37 181.86 C123.27 205.84 118.76 224.69 104 244 C103.43 244.76 102.86 245.53 102.27 246.31 C101.24 247.68 100.21 249.05 99.16 250.41 C97.93 252.01 97.93 252.01 97 254 C96.36 254.12 95.72 254.25 95.06 254.38 C94.38 254.58 93.7 254.79 93 255 C92.69 255.64 92.38 256.28 92.06 256.94 C91 259 91 259 88.94 260.06 C87.48 260.53 87.48 260.53 86 261 C85.07 261.34 85.07 261.34 84.13 261.68 C74.62 265.06 65.13 267.52 55 267 C55 266.34 55 265.68 55 265 C56.13 264.57 57.27 264.13 58.44 263.69 C59.61 263.13 60.79 262.57 62 262 C62.33 261.01 62.66 260.02 63 259 C63.99 258.67 64.98 258.34 66 258 C73.86 254.69 80.35 246.57 84 239 C86.84 231.78 87.41 223.56 85.1 216.09 C84.16 213.98 83.17 211.98 82 210 C81.34 210 80.68 210 80 210 C79.85 209.04 79.85 209.04 79.69 208.06 C79.46 207.38 79.23 206.7 79 206 C78.01 205.67 77.02 205.34 76 205 C75.01 204.34 74.02 203.68 73 203 C69.87 202.83 69.87 202.83 67 203 C67 203.66 67 204.32 67 205 C66.13 205.23 65.27 205.45 64.38 205.69 C56.54 208.73 52.47 214.56 49 222 C46.26 229.25 45.47 236.18 45.06 243.88 C43.74 263.45 41.4 283.76 28 299 C25.23 302.33 25.23 302.33 23 306 C20.94 306.62 20.94 306.62 19 307 C19 307.66 19 308.32 19 309 C18.01 309.33 17.02 309.66 16 310 C15.54 310.48 15.07 310.97 14.6 311.47 C12.63 313.36 11.06 313.79 8.44 314.5 C7.65 314.72 6.87 314.93 6.06 315.16 C4.54 315.57 4.54 315.57 3 316 C2.27 316.25 1.54 316.49 0.79 316.75 C-5.38 318.79 -10.88 319.48 -17.38 319.38 C-18.29 319.37 -19.2 319.36 -20.15 319.35 C-27.09 319.21 -33.4 318.24 -40 316 C-41.18 315.67 -42.35 315.34 -43.56 315 C-46.07 313.97 -47.24 313.01 -49 311 C-49.99 310.34 -50.98 309.68 -52 309 C-53.38 307.03 -54.72 305.03 -56 303 C-55.35 303.13 -54.7 303.27 -54.02 303.4 C-53.15 303.58 -52.28 303.76 -51.38 303.94 C-50.09 304.2 -50.09 304.2 -48.77 304.46 C-36.99 306.74 -23.82 308.29 -13 302 C-7.89 297.92 -5.83 293.41 -5 287 C-5.51 284.09 -5.51 284.09 -7 282 C-7.99 281.67 -8.98 281.34 -10 281 C-10.66 280.67 -11.32 280.34 -12 280 C-12.99 279.67 -13.98 279.34 -15 279 C-15.82 278.65 -16.65 278.3 -17.5 277.94 C-26.86 275.43 -37.09 277.43 -46.56 278.5 C-72.53 281.27 -100.64 281.66 -125.02 270.83 C-126.95 269.95 -126.95 269.95 -128.88 269.57 C-131.13 268.96 -132.89 268.1 -134.93 266.97 C-135.67 266.57 -136.4 266.17 -137.15 265.76 C-138.67 264.92 -140.19 264.08 -141.71 263.24 C-145.52 261.17 -148.69 259.72 -153 259 C-155.24 257.88 -155.24 257.88 -157.31 256.56 C-158.01 256.13 -158.71 255.7 -159.43 255.25 C-159.95 254.84 -160.46 254.43 -161 254 C-161 253.34 -161 252.68 -161 252 C-162.65 251.67 -164.3 251.34 -166 251 C-166.33 250.01 -166.66 249.02 -167 248 C-168.92 246.83 -168.92 246.83 -171 246 C-173 245 -173 245 -175 243 C-175.66 242.67 -176.32 242.34 -177 242 C-177.64 241.34 -178.28 240.68 -178.94 240 C-180.92 237.78 -180.92 237.78 -184 237 C-184.67 235.67 -185.33 234.33 -186 233 C-188.36 230.94 -190 230 -193 229 C-193.29 228.4 -193.58 227.8 -193.88 227.19 C-195.86 223.32 -198.95 221.35 -203 220 C-203.29 219.4 -203.58 218.8 -203.88 218.19 C-205.86 214.32 -208.95 212.35 -213 211 C-213.67 209.67 -214.33 208.33 -215 207 C-217.36 204.94 -219 204 -222 203 C-222.29 202.4 -222.58 201.8 -222.88 201.19 C-224.86 197.32 -227.95 195.35 -232 194 C-232.67 192.67 -233.33 191.33 -234 190 C-236.36 187.94 -238 187 -241 186 C-241.31 185.34 -241.62 184.68 -241.94 184 C-242.29 183.34 -242.64 182.68 -243 182 C-244.33 181.64 -245.66 181.3 -247 181 C-247.33 180.01 -247.66 179.02 -248 178 C-248.66 177.84 -249.32 177.67 -250 177.5 C-250.66 177.34 -251.32 177.17 -252 177 C-252.33 176.01 -252.66 175.02 -253 174 C-253.99 173.67 -254.98 173.34 -256 173 C-256.66 172.34 -257.32 171.68 -258 171 C-259.33 170.33 -260.69 169.71 -262.06 169.12 C-264 168 -264 168 -265 165 C-266.99 164.3 -268.99 163.63 -271 163 C-271.33 162.34 -271.66 161.68 -272 161 C-274.12 159.88 -274.12 159.88 -277 159 C-278.42 158.22 -279.81 157.41 -281.19 156.56 C-281.9 156.13 -282.62 155.7 -283.36 155.25 C-284.17 154.63 -284.17 154.63 -285 154 C-285 153.34 -285 152.68 -285 152 C-285.91 151.92 -286.81 151.84 -287.75 151.75 C-291 151 -291 151 -292.64 149.22 C-296 146.06 -299.8 144.52 -304 142.69 C-304.88 142.3 -305.76 141.91 -306.67 141.51 C-320.34 135.58 -334 130.05 -349 129 C-349.78 128.94 -350.56 128.88 -351.36 128.82 C-362.98 128.42 -377.27 130.27 -386.94 137.06 C-387.62 137.7 -388.3 138.34 -389 139 C-391.7 140.74 -393.94 141.98 -397 143 C-397.33 143.66 -397.66 144.32 -398 145 C-398.9 145.18 -398.9 145.18 -399.81 145.37 C-404.88 146.83 -408.4 152.56 -411.18 156.81 C-414.54 164 -414.15 174.37 -412.27 181.93 C-410.41 186.55 -408.57 188.78 -404 191 C-403.67 191.99 -403.34 192.98 -403 194 C-401.55 194.19 -401.55 194.19 -400.06 194.38 C-399.05 194.58 -398.04 194.79 -397 195 C-396.67 195.66 -396.34 196.32 -396 197 C-393.93 197.7 -393.93 197.7 -391.44 198.12 C-390.61 198.29 -389.78 198.46 -388.93 198.63 C-381.17 199.6 -376.13 198.64 -369 195.69 C-351.39 188.82 -333.12 186.1 -315 193 C-314.07 193.33 -313.14 193.66 -312.19 194 C-310 195 -310 195 -309 197 C-308.01 197.33 -307.02 197.66 -306 198 C-305.31 199.32 -304.64 200.66 -304 202 C-302.35 203.81 -302.35 203.81 -300.5 205.5 C-297.99 207.84 -296.38 209.84 -295 213 C-296.18 212.59 -297.35 212.18 -298.56 211.75 C-317.07 205.42 -317.07 205.42 -336.02 207.95 C-340.12 210.12 -342.14 213.4 -344.31 217.44 C-346 223.73 -345.05 228.44 -342 234 C-339.98 235.34 -339.98 235.34 -338 236 C-337.67 236.66 -337.34 237.32 -337 238 C-336.34 238.33 -335.68 238.66 -335 239 C-334.08 239.52 -334.08 239.52 -333.15 240.04 C-329.41 241.71 -325.54 241.34 -321.5 241.31 C-320.6 241.31 -319.7 241.3 -318.78 241.3 C-307.07 241.09 -294.49 238.69 -286 230 C-285.07 229.78 -285.07 229.78 -284.12 229.56 C-281.11 228.76 -279.39 227 -277 225 C-275.8 224.09 -274.59 223.2 -273.38 222.31 C-272.81 221.9 -272.24 221.48 -271.65 221.05 C-270 220 -270 220 -267 219 C-266.67 218.34 -266.34 217.68 -266 217 C-265.01 216.67 -264.02 216.34 -263 216 C-262.67 215.34 -262.34 214.68 -262 214 C-261.01 213.78 -261.01 213.78 -260 213.56 C-259.34 213.38 -258.68 213.19 -258 213 C-257.67 212.01 -257.34 211.02 -257 210 C-256.4 209.88 -255.8 209.75 -255.19 209.62 C-251.99 208.71 -250.94 206.63 -249 204 C-248.02 202.98 -247.03 201.97 -246 201 C-245.34 201.33 -244.68 201.66 -244 202 C-245.93 208.42 -248.41 214.27 -251.56 220.19 C-252 221.01 -252.44 221.84 -252.89 222.69 C-259 233.94 -266.49 243.75 -274.98 253.3 C-277.13 255.73 -279.04 258.07 -280.72 260.87 C-282 263 -282 263 -284.06 263.56 C-284.7 263.71 -285.34 263.85 -286 264 C-286.33 264.66 -286.66 265.32 -287 266 C-288 268 -288 268 -290.12 268.75 C-290.74 268.83 -291.36 268.92 -292 269 C-292 269.66 -292 270.32 -292 271 C-292.99 271.33 -293.98 271.66 -295 272 C-295.6 272.64 -296.2 273.28 -296.81 273.94 C-299.47 276.44 -301.52 276.87 -305 278 C-306.42 278.59 -307.84 279.19 -309.26 279.8 C-337.9 292.09 -368.77 294.48 -398.16 282.96 C-400.67 281.93 -403.16 280.88 -405.64 279.8 C-409.38 278.2 -413.07 277.02 -417 276 C-417 275.34 -417 274.68 -417 274 C-417.8 273.88 -418.61 273.75 -419.44 273.62 C-420.71 273.32 -420.71 273.32 -422 273 C-422.33 272.34 -422.66 271.68 -423 271 C-423.66 270.67 -424.32 270.34 -425 270 C-425.99 269.34 -426.98 268.68 -428 268 C-428.68 267.71 -429.36 267.42 -430.06 267.12 C-432 266 -432 266 -433 263.94 C-433.33 263.3 -433.66 262.66 -434 262 C-434.66 261.83 -435.32 261.67 -436 261.5 C-436.66 261.33 -437.32 261.17 -438 261 C-438.3 260.41 -438.59 259.81 -438.89 259.2 C-440.16 256.68 -441.63 255.24 -443.69 253.31 C-447.41 249.71 -450.51 245.88 -453.55 241.69 C-454.03 241.13 -454.51 240.57 -455 240 C-455.66 240 -456.32 240 -457 240 C-457.13 239.41 -457.25 238.82 -457.38 238.21 C-458.36 234.72 -460.36 231.78 -462.19 228.69 C-466.57 221.04 -470.28 213.4 -473 205 C-473.21 204.36 -473.42 203.73 -473.64 203.08 C-477.24 191.56 -477.42 179.83 -477.5 167.88 C-477.51 167.12 -477.52 166.36 -477.53 165.58 C-477.68 151.97 -475.61 139.51 -470.69 126.75 C-468.43 120.31 -469.08 114.66 -470 108 C-473.4 81.49 -473.4 81.49 -467 70 C-466.44 68.84 -465.89 67.69 -465.31 66.5 C-464.88 65.67 -464.45 64.85 -464 64 C-463.67 63.34 -463.34 62.68 -463 62 C-461.33 60.33 -459.67 58.67 -458 57 C-457.67 56.34 -457.34 55.68 -457 55 C-455 54.33 -453 53.67 -451 53 C-448.77 52 -446.56 50.97 -444.35 49.94 C-435.14 46.26 -424.34 47.4 -415 50 C-413 51 -413 51 -410 53 C-410 53.66 -410 54.32 -410 55 C-410.83 54.99 -411.67 54.98 -412.53 54.96 C-419.12 54.91 -425.47 55.11 -432 56 C-432 56.99 -432 57.98 -432 59 C-432.93 59.25 -433.86 59.49 -434.81 59.75 C-438.29 61.11 -439.32 61.73 -441 65 C-441.91 68.51 -441.91 68.51 -442 72 C-441.01 73.48 -441.01 73.48 -440 75 C-439.34 75 -438.68 75 -438 75 C-438 75.99 -438 76.98 -438 78 C-436.37 77.72 -434.75 77.42 -433.12 77.12 C-432.22 76.96 -431.32 76.8 -430.38 76.63 C-427.83 76.17 -427.83 76.17 -426 74 C-425.67 73.34 -425.34 72.68 -425 72 C-424.4 71.86 -423.8 71.71 -423.19 71.56 C-420.91 71.14 -420.91 71.14 -419.12 69.5 C-416.46 67.62 -414.2 67.36 -411 67 C-411 66.34 -411 65.68 -411 65 C-409.86 64.88 -408.71 64.75 -407.54 64.62 C-403.08 64.07 -398.79 63.09 -394.44 62 C-364.4 54.54 -332.5 59.59 -303.28 68.34 C-301.03 68.99 -298.78 69.57 -296.51 70.12 C-293.23 70.94 -291.44 71.72 -288.62 73.5 C-286.18 75.06 -286.18 75.06 -283.94 75.5 C-282 76 -282 76 -280.06 77.5 C-278.08 79.17 -278.08 79.17 -275.56 79.44 C-272.24 80.17 -270.54 81.79 -268 84 C-265.18 86.04 -265.18 86.04 -262.44 87 C-260 88 -260 88 -258 90 C-257.01 90.66 -256.02 91.32 -255 92 C-243 100 -243 100 -241.56 101.56 C-240.08 103.17 -240.08 103.17 -237.88 103.5 C-237.26 103.67 -236.64 103.83 -236 104 C-235.67 104.99 -235.34 105.98 -235 107 C-233.08 108.17 -233.08 108.17 -231 109 C-229 110 -229 110 -227 112 C-226.34 112.33 -225.68 112.66 -225 113 C-224.34 113.66 -223.68 114.32 -223 115 C-222.34 115.33 -221.68 115.66 -221 116 C-220.34 116.66 -219.68 117.32 -219 118 C-218.34 118.33 -217.68 118.66 -217 119 C-216.34 119.66 -215.68 120.32 -215 121 C-214.01 121.33 -213.02 121.66 -212 122 C-211.67 122.99 -211.34 123.98 -211 125 C-210.34 125.17 -209.68 125.33 -209 125.5 C-208.34 125.67 -207.68 125.83 -207 126 C-206.67 126.99 -206.34 127.98 -206 129 C-205.36 129.14 -204.72 129.29 -204.06 129.44 C-203.38 129.62 -202.7 129.81 -202 130 C-201.33 131.33 -200.67 132.67 -200 134 C-199.34 134.16 -198.68 134.33 -198 134.5 C-197.34 134.66 -196.68 134.83 -196 135 C-195.54 135.96 -195.54 135.96 -195.06 136.94 C-194.15 139.26 -194.15 139.26 -191.5 140 C-188.46 141.21 -188.27 142.11 -187 145 C-184.13 147.1 -184.13 147.1 -181 148 C-180.33 149.33 -179.67 150.67 -179 152 C-176.64 154.06 -175 155 -172 156 C-171.32 157.32 -170.65 158.66 -170 160 C-167.13 162.1 -167.13 162.1 -164 163 C-163.54 163.99 -163.54 163.99 -163.06 165 C-162.71 165.66 -162.36 166.32 -162 167 C-160.67 167.36 -159.34 167.7 -158 168 C-157.67 168.99 -157.34 169.98 -157 171 C-156.34 171.16 -155.68 171.33 -155 171.5 C-154.34 171.66 -153.68 171.83 -153 172 C-152.67 172.99 -152.34 173.98 -152 175 C-150.68 175.37 -149.34 175.71 -148 176 C-147.67 176.66 -147.34 177.32 -147 178 C-146.01 178.33 -145.02 178.66 -144 179 C-143.67 179.66 -143.34 180.32 -143 181 C-142.01 181.33 -141.02 181.66 -140 182 C-139.67 182.66 -139.34 183.32 -139 184 C-138.2 184.31 -137.39 184.62 -136.56 184.94 C-134 186 -134 186 -132 189 C-129.88 190.12 -129.88 190.12 -127 191 C-126.53 191.5 -126.05 191.99 -125.56 192.5 C-124.1 194.15 -124.1 194.15 -122 194.5 C-119.52 195.12 -118.72 196.14 -117 198 C-98.18 213.19 -69.21 216.42 -46 215 C-36.01 213.9 -26.33 211.39 -16.88 208 C-16.21 207.76 -15.54 207.53 -14.85 207.28 C-11.2 205.89 -11.2 205.89 -8.82 202.94 C-8.41 201.98 -8.41 201.98 -8 201 C-7.37 200.72 -6.74 200.44 -6.1 200.15 C-2.88 198.38 -2.03 195.82 -0.44 192.56 C0.14 191.41 0.72 190.26 1.32 189.07 C5.08 180.52 6.54 172.17 6.44 162.88 C6.43 161.88 6.42 160.89 6.42 159.86 C6.09 144.79 2.85 129.14 -8 118 C-8.99 117.67 -9.98 117.34 -11 117 C-11.62 116.34 -12.24 115.68 -12.88 115 C-15.32 112.7 -16.76 112.51 -20 112 C-21.33 110.67 -22.67 109.33 -24 108 C-27.75 106.08 -29.95 105.84 -34 107 C-34.29 107.89 -34.58 108.77 -34.88 109.69 C-35.83 112.5 -36.87 115.25 -38 118 C-38.99 117.83 -39.98 117.67 -41 117.5 C-45.03 116.92 -48.93 116.93 -53 117 C-52.53 117.52 -52.05 118.03 -51.56 118.56 C-49.46 121.83 -49.13 124.11 -49 128 C-49.78 130.82 -50.82 133.3 -52 136 C-52.58 135.93 -53.15 135.86 -53.74 135.79 C-60.72 135 -67.61 134.85 -74.62 134.88 C-75.71 134.87 -76.79 134.87 -77.9 134.86 C-83.69 134.87 -89.27 135.13 -95 136 C-95 136.99 -95 137.98 -95 139 C-95.74 139.04 -96.49 139.08 -97.25 139.12 C-101.22 140.39 -102.03 142.38 -104 146 C-105.11 148.64 -106.06 151.29 -107 154 C-111.34 153.39 -115.68 152.74 -120 152 C-120 151.34 -120 150.68 -120 150 C-120.78 149.92 -121.57 149.84 -122.38 149.75 C-125 149 -125 149 -126.12 147 C-126.56 146.01 -126.56 146.01 -127 145 C-127.99 144.67 -128.98 144.34 -130 144 C-132.32 141.62 -133.87 139.12 -135 136 C-134.84 132.49 -134.07 129.34 -133 126 C-131.12 125.38 -131.12 125.38 -129 125 C-128.34 125.66 -127.68 126.32 -127 127 C-127 126.67 -127 126.34 -127 126 C-126.03 126.02 -125.06 126.04 -124.06 126.06 C-121.13 126.36 -121.13 126.36 -120 125 C-119.63 122.67 -119.3 120.34 -119 118 C-118.18 118.02 -117.36 118.05 -116.52 118.07 C-115.44 118.09 -114.36 118.11 -113.25 118.12 C-112.18 118.15 -111.12 118.17 -110.02 118.2 C-107.02 118 -105.54 117.49 -103 116 C-101.51 115.5 -101.51 115.5 -100 115 C-100.66 114.01 -101.32 113.02 -102 112 C-102.29 111.32 -102.58 110.64 -102.88 109.94 C-104.81 106.6 -107.67 106.12 -111.19 104.81 C-116.54 103.67 -121.3 103.86 -126.38 106 C-128.99 109.22 -129.91 113.04 -131 117 C-133.64 116.34 -136.28 115.68 -139 115 C-140.55 117.33 -141.79 119.5 -143 122 C-143.33 122.66 -143.66 123.32 -144 124 C-146.32 124.41 -148.66 124.74 -151 125 C-151.66 127.31 -152.32 129.62 -153 132 C-154.65 132 -156.3 132 -158 132 C-158.33 131.01 -158.66 130.02 -159 129 C-159.64 128.86 -160.28 128.71 -160.94 128.56 C-161.62 128.38 -162.3 128.19 -163 128 C-163.69 126.68 -164.36 125.34 -165 124 C-165.94 122.77 -166.9 121.57 -167.88 120.38 C-171.64 115.38 -175.25 109.87 -174.83 103.4 C-173.61 97.61 -173.61 97.61 -172 96 C-169.65 95.44 -167.3 94.93 -164.94 94.44 C-163.65 94.17 -162.36 93.9 -161.03 93.62 C-160.03 93.42 -159.03 93.21 -158 93 C-158 92.34 -158 91.68 -158 91 C-156.74 90.77 -155.48 90.55 -154.19 90.31 C-150.83 89.5 -150.24 89.34 -148.19 86.38 C-147.8 85.59 -147.4 84.81 -147 84 C-146.01 84 -145.02 84 -144 84 C-142.51 81.03 -142.51 81.03 -141 78 C-140.01 78.66 -139.02 79.32 -138 80 C-137.81 82.62 -137.81 82.62 -138 85 C-137.42 84.38 -136.85 83.76 -136.25 83.12 C-134 81 -134 81 -131.81 80.06 C-131.21 79.71 -130.62 79.36 -130 79 C-129.62 77.34 -129.29 75.68 -129 74 C-128 73 -127 72 -126 71 C-125.03 69.43 -124.1 67.83 -123.22 66.21 C-122.71 65.27 -122.2 64.33 -121.67 63.36 C-121.14 62.37 -120.61 61.39 -120.06 60.38 C-119.54 59.41 -119.01 58.45 -118.47 57.46 C-112.35 46.75 -112.35 46.75 -109 35 C-106 36 -106 36 -104.44 38.44 C-102.64 42.88 -101.79 47.29 -101 52 C-90.67 43.39 -90.14 28.45 -88 16 C-86.51 15.5 -86.51 15.5 -85 15 C-84.18 16.41 -83.37 17.83 -82.56 19.25 C-82.11 20.04 -81.66 20.83 -81.19 21.64 C-79.45 25.09 -78.89 28.27 -78.68 32.11 C-78.64 32.86 -78.6 33.62 -78.56 34.39 C-78.52 35.17 -78.48 35.95 -78.44 36.75 C-78.39 37.54 -78.35 38.34 -78.31 39.15 C-78.2 41.1 -78.1 43.05 -78 45 C-75.46 44.15 -73.29 43.37 -71 42 C-70.67 41.01 -70.34 40.02 -70 39 C-69.44 38.88 -68.87 38.76 -68.29 38.64 C-64.84 37.68 -62.77 35.3 -60.31 32.81 C-59.79 32.28 -59.26 31.75 -58.72 31.21 C-50.71 22.84 -44.63 13.03 -41 2 C-40.34 2.33 -39.68 2.66 -39 3 C-39.56 14.85 -42.67 27.35 -49.08 37.43 C-50.17 38.98 -50.17 38.98 -50 41 C-46.53 40.51 -46.53 40.51 -43 40 C-43 39.34 -43 38.68 -43 38 C-41.35 37.67 -39.7 37.34 -38 37 C-37.67 36.01 -37.34 35.02 -37 34 C-36.22 33.92 -35.43 33.84 -34.62 33.75 C-33.76 33.5 -32.89 33.26 -32 33 C-31.3 31.68 -30.63 30.35 -30 29 C-27.88 28.25 -27.88 28.25 -26 28 C-26 27.34 -26 26.68 -26 26 C-25.44 25.96 -24.89 25.92 -24.31 25.88 C-20.81 24.55 -19.26 21.91 -17 19 C-15 17 -15 17 -11.88 14.56 C-7.67 11.02 -4.77 6.72 -1.7 2.2 C-0.86 1.11 -0.86 1.11 0 0 Z M-12 39 C-11 41 -11 41 -11 41 Z M-52 41 C-51 43 -51 43 -51 43 Z M-80 42 C-80 43.65 -80 45.3 -80 47 C-79.67 47 -79.34 47 -79 47 C-79 45.35 -79 43.7 -79 42 C-79.33 42 -79.66 42 -80 42 Z M-54 44 C-53 46 -53 46 -53 46 Z M-81 47 C-80 49 -80 49 -80 49 Z M-103 52 C-102 54 -102 54 -102 54 Z M-116 72 C-116.33 73.65 -116.66 75.3 -117 77 C-114.52 77.5 -114.52 77.5 -112 78 C-112 77.34 -112 76.68 -112 76 C-111.4 75.92 -110.8 75.83 -110.19 75.75 C-107.4 74.8 -106.57 73.43 -105 71 C-109.29 69.74 -111.88 70.37 -116 72 Z M-119 74 C-118 77 -118 77 -118 77 Z M-42 84 C-43.32 87.63 -44.64 91.26 -46 95 C-45.01 95.99 -44.02 96.98 -43 98 C-40.78 93.38 -39.62 90.23 -40 85 C-40.66 84.67 -41.32 84.34 -42 84 Z M-36 104 C-35 107 -35 107 -35 107 Z " fill="#A0916E" transform="translate(477,0)"/>
<path d="M0 0 C8.25 0 16.5 0 25 0 C25 0.33 25 0.66 25 1 C16.75 1 8.5 1 0 1 C0 0.67 0 0.34 0 0 Z " fill="#9F9C62" transform="translate(100,57)"/>
<path d="M0 0 C6.93 0 13.86 0 21 0 C21 0.33 21 0.66 21 1 C14.07 1 7.14 1 0 1 C0 0.67 0 0.34 0 0 Z " fill="#AEAE51" transform="translate(109,291)"/>
<path d="M0 0 C6.6 0 13.2 0 20 0 C20 0.33 20 0.66 20 1 C13.4 1 6.8 1 0 1 C0 0.67 0 0.34 0 0 Z " fill="#B1A15D" transform="translate(410,214)"/>
<path d="M0 0 C4.62 0 9.24 0 14 0 C14 0.33 14 0.66 14 1 C9.38 1 4.76 1 0 1 C0 0.67 0 0.34 0 0 Z " fill="#9B9B64" transform="translate(438,305)"/>
<path d="M0 0 C0.33 0 0.66 0 1 0 C1 4.62 1 9.24 1 14 C0.67 14 0.34 14 0 14 C0 9.38 0 4.76 0 0 Z " fill="#C2C23C" transform="translate(64,164)"/>
<path d="M0 0 C0.33 0 0.66 0 1 0 C1 4.62 1 9.24 1 14 C0.67 14 0.34 14 0 14 C0 9.38 0 4.76 0 0 Z " fill="#B0B04F" transform="translate(4,82)"/>
<path d="M0 0 C0.33 0 0.66 0 1 0 C1 3.63 1 7.26 1 11 C0.67 11 0.34 11 0 11 C0 7.37 0 3.74 0 0 Z " fill="#C9C936" transform="translate(523,232)"/>
<path d="M0 0 C0.33 0 0.66 0 1 0 C1 3.63 1 7.26 1 11 C0.67 11 0.34 11 0 11 C0 7.37 0 3.74 0 0 Z " fill="#B1B14D" transform="translate(399,29)"/>
<path d="M0 0 C3.3 0 6.6 0 10 0 C10 0.33 10 0.66 10 1 C6.7 1 3.4 1 0 1 C0 0.67 0 0.34 0 0 Z " fill="#BBBB44" transform="translate(446,277)"/>
<path d="M0 0 C3.3 0 6.6 0 10 0 C10 0.33 10 0.66 10 1 C6.7 1 3.4 1 0 1 C0 0.67 0 0.34 0 0 Z " fill="#B2B24C" transform="translate(41,46)"/>
<path d="M0 0 C2.97 0 5.94 0 9 0 C9 0.33 9 0.66 9 1 C6.03 1 3.06 1 0 1 C0 0.67 0 0.34 0 0 Z " fill="#C6B847" transform="translate(417,280)"/>
<path d="M0 0 C2.97 0 5.94 0 9 0 C9 0.33 9 0.66 9 1 C6.03 1 3.06 1 0 1 C0 0.67 0 0.34 0 0 Z " fill="#B8AA55" transform="translate(386,280)"/>
<path d="M0 0 C2.97 0 5.94 0 9 0 C9 0.33 9 0.66 9 1 C6.03 1 3.06 1 0 1 C0 0.67 0 0.34 0 0 Z " fill="#C8A55A" transform="translate(148,206)"/>
<path d="M0 0 C2.97 0 5.94 0 9 0 C9 0.33 9 0.66 9 1 C6.03 1 3.06 1 0 1 C0 0.67 0 0.34 0 0 Z " fill="#BAB34B" transform="translate(406,135)"/>
<path d="M0 0 C0.93 2.61 1.15 3.64 0.06 6.25 C-0.46 7.12 -0.46 7.12 -1 8 C-0.67 5.36 -0.34 2.72 0 0 Z " fill="#A18778" transform="translate(435,86)"/>
<path d="M0 0 C2.97 0 5.94 0 9 0 C9 0.33 9 0.66 9 1 C6.03 1 3.06 1 0 1 C0 0.67 0 0.34 0 0 Z " fill="#AAAA55" transform="translate(55,55)"/>
<path d="M0 0 C2.64 0 5.28 0 8 0 C8 0.33 8 0.66 8 1 C5.36 1 2.72 1 0 1 C0 0.67 0 0.34 0 0 Z " fill="#FFFF00" transform="translate(402,281)"/>
<path d="M0 0 C2.64 0 5.28 0 8 0 C8 0.33 8 0.66 8 1 C5.36 1 2.72 1 0 1 C0 0.67 0 0.34 0 0 Z " fill="#B4B44A" transform="translate(532,268)"/>
<path d="M0 0 C2.31 0 4.62 0 7 0 C7 0.33 7 0.66 7 1 C4.69 1.33 2.38 1.66 0 2 C0 1.34 0 0.68 0 0 Z " fill="#AFAFAA" transform="translate(326,125)"/>
<path d="M0 0 C2.31 0 4.62 0 7 0 C7 0.33 7 0.66 7 1 C4.69 1 2.38 1 0 1 C0 0.67 0 0.34 0 0 Z " fill="#B9B04F" transform="translate(436,278)"/>
<path d="M0 0 C0.33 0 0.66 0 1 0 C1 2.31 1 4.62 1 7 C0.67 7 0.34 7 0 7 C0 4.69 0 2.38 0 0 Z " fill="#A4A45B" transform="translate(522,248)"/>
<path d="M0 0 C0.33 0 0.66 0 1 0 C1 2.31 1 4.62 1 7 C0.67 7 0.34 7 0 7 C0 4.69 0 2.38 0 0 Z " fill="#C2C23C" transform="translate(482,151)"/>
<path d="M0 0 C1.98 0 3.96 0 6 0 C4.02 0.99 4.02 0.99 2 2 C1.34 1.34 0.68 0.68 0 0 Z " fill="#9B926D" transform="translate(425,117)"/>
<path d="M0 0 C1.98 0 3.96 0 6 0 C6 0.33 6 0.66 6 1 C4.02 1 2.04 1 0 1 C0 0.67 0 0.34 0 0 Z " fill="#C2B847" transform="translate(132,290)"/>
<path d="M0 0 C1.98 0 3.96 0 6 0 C6 0.33 6 0.66 6 1 C4.02 1 2.04 1 0 1 C0 0.67 0 0.34 0 0 Z " fill="#C6B14E" transform="translate(428,279)"/>
<path d="M0 0 C1.98 0 3.96 0 6 0 C6 0.33 6 0.66 6 1 C4.02 1 2.04 1 0 1 C0 0.67 0 0.34 0 0 Z " fill="#C6B14E" transform="translate(378,279)"/>
<path d="M0 0 C1.98 0 3.96 0 6 0 C6 0.33 6 0.66 6 1 C4.02 1 2.04 1 0 1 C0 0.67 0 0.34 0 0 Z " fill="#D1C638" transform="translate(160,240)"/>
<path d="M0 0 C0.33 0 0.66 0 1 0 C1 1.98 1 3.96 1 6 C0.67 6 0.34 6 0 6 C0 4.02 0 2.04 0 0 Z " fill="#B18778" transform="translate(132,221)"/>
<path d="M0 0 C1.98 0 3.96 0 6 0 C6 0.33 6 0.66 6 1 C4.02 1 2.04 1 0 1 C0 0.67 0 0.34 0 0 Z " fill="#BFBF40" transform="translate(93,198)"/>
<path d="M0 0 C0.33 0 0.66 0 1 0 C1 1.98 1 3.96 1 6 C0.67 6 0.34 6 0 6 C0 4.02 0 2.04 0 0 Z " fill="#B8B847" transform="translate(482,167)"/>
<path d="M0 0 C1.98 0 3.96 0 6 0 C6 0.33 6 0.66 6 1 C4.02 1 2.04 1 0 1 C0 0.67 0 0.34 0 0 Z " fill="#BBB14E" transform="translate(391,135)"/>
<path d="M0 0 C0.33 0 0.66 0 1 0 C1 1.98 1 3.96 1 6 C0.67 6 0.34 6 0 6 C0 4.02 0 2.04 0 0 Z " fill="#A3A371" transform="translate(356,119)"/>
<path d="M0 0 C0.33 0 0.66 0 1 0 C1 1.98 1 3.96 1 6 C0.67 6 0.34 6 0 6 C0 4.02 0 2.04 0 0 Z " fill="#B8B83C" transform="translate(5,100)"/>
<path d="M0 0 C1.98 0 3.96 0 6 0 C6 0.33 6 0.66 6 1 C4.02 1 2.04 1 0 1 C0 0.67 0 0.34 0 0 Z " fill="#9F9F95" transform="translate(305,94)"/>
<path d="M0 0 C1.98 0 3.96 0 6 0 C6 0.33 6 0.66 6 1 C4.02 1 2.04 1 0 1 C0 0.67 0 0.34 0 0 Z " fill="#9C9C63" transform="translate(40,76)"/>
<path d="M0 0 C1.98 0 3.96 0 6 0 C6 0.33 6 0.66 6 1 C4.02 1 2.04 1 0 1 C0 0.67 0 0.34 0 0 Z " fill="#B19C63" transform="translate(128,58)"/>
<path d="M0 0 C1.65 0 3.3 0 5 0 C5 0.33 5 0.66 5 1 C3.35 1 1.7 1 0 1 C0 0.67 0 0.34 0 0 Z " fill="#A1A15D" transform="translate(101,290)"/>
<path d="M0 0 C0.33 0 0.66 0 1 0 C1 1.65 1 3.3 1 5 C0.67 5 0.34 5 0 5 C0 3.35 0 1.7 0 0 Z " fill="#AAAA55" transform="translate(521,257)"/>
<path d="M0 0 C1.65 0 3.3 0 5 0 C5 0.33 5 0.66 5 1 C3.35 1 1.7 1 0 1 C0 0.67 0 0.34 0 0 Z " fill="#C7BB44" transform="translate(402,213)"/>
<path d="M0 0 C1.65 0 3.3 0 5 0 C5 0.33 5 0.66 5 1 C3.35 1 1.7 1 0 1 C0 0.67 0 0.34 0 0 Z " fill="#90906E" transform="translate(545,203)"/>
<path d="M0 0 C1.65 0 3.3 0 5 0 C5 0.33 5 0.66 5 1 C3.35 1 1.7 1 0 1 C0 0.67 0 0.34 0 0 Z " fill="#C7BB44" transform="translate(146,188)"/>
<path d="M0 0 C1.65 0 3.3 0 5 0 C5 0.33 5 0.66 5 1 C3.35 1 1.7 1 0 1 C0 0.67 0 0.34 0 0 Z " fill="#C7BB44" transform="translate(128,188)"/>
<path d="M0 0 C1.65 0 3.3 0 5 0 C5 0.33 5 0.66 5 1 C3.35 1 1.7 1 0 1 C0 0.67 0 0.34 0 0 Z " fill="#C7BB44" transform="translate(417,136)"/>
<path d="M0 0 C1.65 0 3.3 0 5 0 C5 0.33 5 0.66 5 1 C3.35 1 1.7 1 0 1 C0 0.67 0 0.34 0 0 Z " fill="#C7BB44" transform="translate(131,130)"/>
<path d="M0 0 C1.65 0 3.3 0 5 0 C5 0.33 5 0.66 5 1 C3.35 1 1.7 1 0 1 C0 0.67 0 0.34 0 0 Z " fill="#A1A15D" transform="translate(111,130)"/>
<path d="M0 0 C0.33 0 0.66 0 1 0 C1 1.65 1 3.3 1 5 C0.67 5 0.34 5 0 5 C0 3.35 0 1.7 0 0 Z " fill="#999966" transform="translate(7,115)"/>
<path d="M0 0 C1.65 0 3.3 0 5 0 C5 0.33 5 0.66 5 1 C3.35 1 1.7 1 0 1 C0 0.67 0 0.34 0 0 Z " fill="#C7BB44" transform="translate(359,117)"/>
<path d="M0 0 C1.32 0.33 2.64 0.66 4 1 C3.01 1.5 3.01 1.5 2 2 C1.34 1.34 0.68 0.68 0 0 Z " fill="#AFAF50" transform="translate(367,71)"/>
<path d="M0 0 C1.65 0 3.3 0 5 0 C5 0.33 5 0.66 5 1 C3.35 1 1.7 1 0 1 C0 0.67 0 0.34 0 0 Z " fill="#CCB24C" transform="translate(136,59)"/>
<path d="M0 0 C1.65 0 3.3 0 5 0 C5 0.33 5 0.66 5 1 C3.35 1 1.7 1 0 1 C0 0.67 0 0.34 0 0 Z " fill="#A1A15D" transform="translate(92,58)"/>
<path d="M0 0 C0.33 0 0.66 0 1 0 C1 1.65 1 3.3 1 5 C0.67 5 0.34 5 0 5 C0 3.35 0 1.7 0 0 Z " fill="#AEA15D" transform="translate(387,16)"/>
<path d="M0 0 C0.33 0 0.66 0 1 0 C1 1.65 1 3.3 1 5 C0.67 5 0.34 5 0 5 C0 3.35 0 1.7 0 0 Z " fill="#A1A15D" transform="translate(480,8)"/>
<path d="M0 0 C0.33 0 0.66 0 1 0 C1 1.65 1 3.3 1 5 C0.67 5 0.34 5 0 5 C0 3.35 0 1.7 0 0 Z " fill="#C3C33B" transform="translate(438,7)"/>
<path d="M0 0 C4 1 4 1 4 1 Z " fill="#D9CA35" transform="translate(139,289)"/>
<path d="M0 0 C4 1 4 1 4 1 Z " fill="#CACA35" transform="translate(96,289)"/>
<path d="M0 0 C4 1 4 1 4 1 Z " fill="#BAAA55" transform="translate(373,278)"/>
<path d="M0 0 C4 1 4 1 4 1 Z " fill="#B4B44A" transform="translate(542,267)"/>
<path d="M0 0 C1 4 1 4 1 4 Z " fill="#9F9F60" transform="translate(520,264)"/>
<path d="M0 0 C4 1 4 1 4 1 Z " fill="#BAAA55" transform="translate(147,240)"/>
<path d="M0 0 C1 4 1 4 1 4 Z " fill="#CACA25" transform="translate(562,229)"/>
<path d="M0 0 C1 4 1 4 1 4 Z " fill="#AAAA45" transform="translate(562,220)"/>
<path d="M0 0 C4 1 4 1 4 1 Z " fill="#C4B44A" transform="translate(433,213)"/>
<path d="M0 0 C4 1 4 1 4 1 Z " fill="#BFBF40" transform="translate(439,212)"/>
<path d="M0 0 C1 4 1 4 1 4 Z " fill="#BF4030" transform="translate(598,210)"/>
<path d="M0 0 C4 1 4 1 4 1 Z " fill="#AF9F60" transform="translate(159,207)"/>
<path d="M0 0 C1 4 1 4 1 4 Z " fill="#AA5545" transform="translate(599,205)"/>
<path d="M0 0 C4 1 4 1 4 1 Z " fill="#9F9F60" transform="translate(85,197)"/>
<path d="M0 0 C4 1 4 1 4 1 Z " fill="#FFFF00" transform="translate(138,187)"/>
<path d="M0 0 C1 4 1 4 1 4 Z " fill="#AAAA45" transform="translate(6,109)"/>
<path d="M0 0 C1 4 1 4 1 4 Z " fill="#AAAA55" transform="translate(35,68)"/>
<path d="M0 0 C4 1 4 1 4 1 Z " fill="#CFBF40" transform="translate(158,63)"/>
<path d="M0 0 C4 1 4 1 4 1 Z " fill="#BAAA55" transform="translate(149,61)"/>
<path d="M0 0 C4 1 4 1 4 1 Z " fill="#9A8A75" transform="translate(143,60)"/>
<path d="M0 0 C4 1 4 1 4 1 Z " fill="#AAAA55" transform="translate(86,59)"/>
<path d="M0 0 C4 1 4 1 4 1 Z " fill="#9F9F60" transform="translate(53,47)"/>
<path d="M0 0 C4 1 4 1 4 1 Z " fill="#CACA35" transform="translate(36,47)"/>
<path d="M0 0 C1 4 1 4 1 4 Z " fill="#BAAA55" transform="translate(375,43)"/>
<path d="M0 0 C3 1 3 1 3 1 Z " fill="#D4D42A" transform="translate(474,318)"/>
<path d="M0 0 C3 1 3 1 3 1 Z " fill="#AAAA55" transform="translate(442,318)"/>
<path d="M0 0 C3 1 3 1 3 1 Z " fill="#AAAA55" transform="translate(454,304)"/>
<path d="M0 0 C3 1 3 1 3 1 Z " fill="#958080" transform="translate(432,304)"/>
<path d="M0 0 C3 1 3 1 3 1 Z " fill="#BFAA55" transform="translate(144,288)"/>
<path d="M0 0 C3 1 3 1 3 1 Z " fill="#808080" transform="translate(92,288)"/>
<path d="M0 0 C3 1 3 1 3 1 Z " fill="#E9D42A" transform="translate(148,287)"/>
<path d="M0 0 C3 1 3 1 3 1 Z " fill="#B8B847" transform="translate(88,287)"/>
<path d="M0 0 C3 1 3 1 3 1 Z " fill="#C6C638" transform="translate(458,278)"/>
<path d="M0 0 C3 1 3 1 3 1 Z " fill="#C6C638" transform="translate(368,277)"/>
<path d="M0 0 C3 1 3 1 3 1 Z " fill="#B8B847" transform="translate(364,276)"/>
<path d="" fill="#AAAA55" transform="translate(0,0)"/>
<path d="" fill="#808080" transform="translate(0,0)"/>
<path d="M0 0 C3 1 3 1 3 1 Z " fill="#AAAA55" transform="translate(547,266)"/>
<path d="M0 0 C3 1 3 1 3 1 Z " fill="#B8B847" transform="translate(551,265)"/>
<path d="M0 0 C3 1 3 1 3 1 Z " fill="#C6C638" transform="translate(168,239)"/>
<path d="" fill="#C6C638" transform="translate(0,0)"/>
<path d="" fill="#E2E21C" transform="translate(0,0)"/>
<path d="M0 0 C3 1 3 1 3 1 Z " fill="#A38E71" transform="translate(397,212)"/>
<path d="M0 0 C3 1 3 1 3 1 Z " fill="#B8B847" transform="translate(444,211)"/>
<path d="M0 0 C3 1 3 1 3 1 Z " fill="#B8B847" transform="translate(392,211)"/>
<path d="M0 0 C3 1 3 1 3 1 Z " fill="#E2E21C" transform="translate(448,210)"/>
<path d="M0 0 C3 1 3 1 3 1 Z " fill="#E2E21C" transform="translate(385,209)"/>
<path d="M0 0 C3 1 3 1 3 1 Z " fill="#B8B847" transform="translate(164,208)"/>
<path d="M0 0 C3 1 3 1 3 1 Z " fill="#B8B847" transform="translate(144,207)"/>
<path d="" fill="#B8B831" transform="translate(0,0)"/>
<path d="M0 0 C3 1 3 1 3 1 Z " fill="#BFAA55" transform="translate(123,189)"/>
<path d="" fill="#B8B847" transform="translate(0,0)"/>
<path d="" fill="#B8B847" transform="translate(0,0)"/>
<path d="" fill="#AAAA55" transform="translate(0,0)"/>
<path d="M0 0 C3 1 3 1 3 1 Z " fill="#C6C638" transform="translate(367,155)"/>
<path d="" fill="#C63838" transform="translate(0,0)"/>
<path d="" fill="#C6C638" transform="translate(0,0)"/>
<path d="" fill="#B84747" transform="translate(0,0)"/>
<path d="" fill="#C6C638" transform="translate(0,0)"/>
<path d="" fill="#AAAA55" transform="translate(0,0)"/>
<path d="" fill="#80806A" transform="translate(0,0)"/>
<path d="" fill="#E2E21C" transform="translate(0,0)"/>
<path d="M0 0 C3 1 3 1 3 1 Z " fill="#C6C638" transform="translate(386,136)"/>
<path d="M0 0 C3 1 3 1 3 1 Z " fill="#E2E21C" transform="translate(98,133)"/>
<path d="" fill="#E2E21C" transform="translate(0,0)"/>
<path d="M0 0 C3 1 3 1 3 1 Z " fill="#E2E21C" transform="translate(142,132)"/>
<path d="M0 0 C3 1 3 1 3 1 Z " fill="#958080" transform="translate(138,131)"/>
<path d="M0 0 C3 1 3 1 3 1 Z " fill="#C6C638" transform="translate(106,131)"/>
<path d="" fill="#C6C638" transform="translate(0,0)"/>
<path d="" fill="#B8B8B8" transform="translate(0,0)"/>
<path d="M0 0 C3 1 3 1 3 1 Z " fill="#FFFF00" transform="translate(122,129)"/>
<path d="" fill="#BFAA55" transform="translate(0,0)"/>
<path d="" fill="#BFBFAA" transform="translate(0,0)"/>
<path d="M0 0 C3 1 3 1 3 1 Z " fill="#BFAA55" transform="translate(434,118)"/>
<path d="" fill="#C6C638" transform="translate(0,0)"/>
<path d="" fill="#C6C638" transform="translate(0,0)"/>
<path d="" fill="#B8B8B8" transform="translate(0,0)"/>
<path d="M0 0 C3 1 3 1 3 1 Z " fill="#E2E21C" transform="translate(445,106)"/>
<path d="M0 0 C3 1 3 1 3 1 Z " fill="#B8B847" transform="translate(353,105)"/>
<path d="M0 0 C0.33 0.66 0.66 1.32 1 2 C0.34 1.67 -0.32 1.34 -1 1 C-0.67 0.67 -0.34 0.34 0 0 Z " fill="#BF8080" transform="translate(433,94)"/>
<path d="M0 0 C3 1 3 1 3 1 Z " fill="#8E8E8E" transform="translate(313,93)"/>
<path d="" fill="#AAAA40" transform="translate(0,0)"/>
<path d="M0 0 C3 1 3 1 3 1 Z " fill="#E2E21C" transform="translate(363,72)"/>
<path d="M0 0 C3 1 3 1 3 1 Z " fill="#B8B847" transform="translate(173,67)"/>
<path d="M0 0 C3 1 3 1 3 1 Z " fill="#BFAA55" transform="translate(166,65)"/>
<path d="M0 0 C3 1 3 1 3 1 Z " fill="#9C9C63" transform="translate(154,62)"/>
<path d="M0 0 C3 1 3 1 3 1 Z " fill="#B8B847" transform="translate(78,61)"/>
<path d="M0 0 C3 1 3 1 3 1 Z " fill="#C6C638" transform="translate(82,60)"/>
<path d="M0 0 C3 1 3 1 3 1 Z " fill="#808080" transform="translate(49,56)"/>
<path d="M0 0 C3 1 3 1 3 1 Z " fill="#B8B847" transform="translate(486,46)"/>
<path d="M0 0 C3 1 3 1 3 1 Z " fill="#B8B847" transform="translate(479,44)"/>
<path d="M0 0 C3 1 3 1 3 1 Z " fill="#B8B847" transform="translate(475,43)"/>
<path d="M0 0 C3 1 3 1 3 1 Z " fill="#C6C638" transform="translate(471,42)"/>
<path d="" fill="#C6C638" transform="translate(0,0)"/>
<path d="" fill="#A38E71" transform="translate(0,0)"/>
<path d="" fill="#B8B847" transform="translate(0,0)"/>
<path d="" fill="#8E8E71" transform="translate(0,0)"/>
<path d="" fill="#808080" transform="translate(0,0)"/>
<path d="M0 0 C2 1 2 1 2 1 Z " fill="#D4D42A" transform="translate(478,317)"/>
<path d="M0 0 C2 1 2 1 2 1 Z " fill="#D4D42A" transform="translate(439,317)"/>
<path d="M0 0 C2 1 2 1 2 1 Z " fill="#95956A" transform="translate(480,316)"/>
<path d="M0 0 C2 1 2 1 2 1 Z " fill="#D4D42A" transform="translate(437,316)"/>
<path d="M0 0 C2 1 2 1 2 1 Z " fill="#95956A" transform="translate(458,303)"/>
<path d="M0 0 C2 1 2 1 2 1 Z " fill="#95956A" transform="translate(428,303)"/>
<path d="M0 0 C2 1 2 1 2 1 Z " fill="#BFBF40" transform="translate(460,302)"/>
<path d="M0 0 C2 1 2 1 2 1 Z " fill="#AAAA55" transform="translate(424,302)"/>
<path d="M0 0 C2 1 2 1 2 1 Z " fill="#D4D42A" transform="translate(462,301)"/>
<path d="" fill="#BFBF40" transform="translate(0,0)"/>
<path d="" fill="#BFBF40" transform="translate(0,0)"/>
<path d="" fill="#95956A" transform="translate(0,0)"/>
<path d="" fill="#BFBF40" transform="translate(0,0)"/>
<path d="M0 0 C2 1 2 1 2 1 Z " fill="#95956A" transform="translate(152,286)"/>
<path d="M0 0 C2 1 2 1 2 1 Z " fill="#95956A" transform="translate(85,286)"/>
<path d="" fill="#BFBF40" transform="translate(0,0)"/>
<path d="M0 0 C2 1 2 1 2 1 Z " fill="#95956A" transform="translate(155,285)"/>
<path d="M0 0 C2 1 2 1 2 1 Z " fill="#95956A" transform="translate(82,285)"/>
<path d="" fill="#D4D42A" transform="translate(0,0)"/>
<path d="M0 0 C2 1 2 1 2 1 Z " fill="#D4D42A" transform="translate(158,284)"/>
<path d="M0 0 C2 1 2 1 2 1 Z " fill="#D4D42A" transform="translate(79,284)"/>
<path d="" fill="#BFBF40" transform="translate(0,0)"/>
<path d="M0 0 C2 1 2 1 2 1 Z " fill="#808080" transform="translate(160,283)"/>
<path d="M0 0 C2 1 2 1 2 1 Z " fill="#D4D42A" transform="translate(77,283)"/>
<path d="M0 0 C2 1 2 1 2 1 Z " fill="#95956A" transform="translate(74,282)"/>
<path d="" fill="#95956A" transform="translate(0,0)"/>
<path d="M0 0 C2 1 2 1 2 1 Z " fill="#D4D42A" transform="translate(165,281)"/>
<path d="M0 0 C2 1 2 1 2 1 Z " fill="#D4D42A" transform="translate(72,281)"/>
<path d="M0 0 C2 1 2 1 2 1 Z " fill="#808080" transform="translate(465,280)"/>
<path d="M0 0 C2 1 2 1 2 1 Z " fill="#D4D42A" transform="translate(167,280)"/>
<path d="M0 0 C2 1 2 1 2 1 Z " fill="#D4D42A" transform="translate(169,279)"/>
<path d="M0 0 C2 1 2 1 2 1 Z " fill="#D4D42A" transform="translate(67,279)"/>
<path d="" fill="#AAAA55" transform="translate(0,0)"/>
<path d="M0 0 C2 1 2 1 2 1 Z " fill="#D4D42A" transform="translate(65,278)"/>
<path d="M0 0 C2 1 2 1 2 1 Z " fill="#95956A" transform="translate(361,275)"/>
<path d="M0 0 C2 1 2 1 2 1 Z " fill="#95956A" transform="translate(358,274)"/>
<path d="M0 0 C2 1 2 1 2 1 Z " fill="#BFBF40" transform="translate(58,274)"/>
<path d="M0 0 C2 1 2 1 2 1 Z " fill="#D4D42A" transform="translate(355,273)"/>
<path d="M0 0 C2 1 2 1 2 1 Z " fill="#D4D42A" transform="translate(353,272)"/>
<path d="M0 0 C2 1 2 1 2 1 Z " fill="#D4D42A" transform="translate(350,271)"/>
<path d="M0 0 C2 1 2 1 2 1 Z " fill="#808080" transform="translate(348,270)"/>
<path d="M0 0 C2 1 2 1 2 1 Z " fill="#D4D4D4" transform="translate(343,268)"/>
<path d="M0 0 C2 1 2 1 2 1 Z " fill="#D4D4D4" transform="translate(341,267)"/>
<path d="M0 0 C2 1 2 1 2 1 Z " fill="#808080" transform="translate(339,266)"/>
<path d="M0 0 C2 1 2 1 2 1 Z " fill="#808080" transform="translate(337,265)"/>
<path d="M0 0 C2 1 2 1 2 1 Z " fill="#95956A" transform="translate(554,264)"/>
<path d="M0 0 C2 1 2 1 2 1 Z " fill="#808080" transform="translate(335,264)"/>
<path d="M0 0 C2 1 2 1 2 1 Z " fill="#D4D42A" transform="translate(557,263)"/>
<path d="M0 0 C2 1 2 1 2 1 Z " fill="#D4D42A" transform="translate(533,263)"/>
<path d="M0 0 C2 1 2 1 2 1 Z " fill="#808080" transform="translate(333,263)"/>
<path d="M0 0 C2 1 2 1 2 1 Z " fill="#808080" transform="translate(559,262)"/>
<path d="M0 0 C2 1 2 1 2 1 Z " fill="#BFBF40" transform="translate(535,262)"/>
<path d="M0 0 C2 1 2 1 2 1 Z " fill="#BFBFBF" transform="translate(331,262)"/>
<path d="M0 0 C2 1 2 1 2 1 Z " fill="#808080" transform="translate(561,261)"/>
<path d="M0 0 C2 1 2 1 2 1 Z " fill="#808080" transform="translate(537,261)"/>
<path d="M0 0 C2 1 2 1 2 1 Z " fill="#BFBFBF" transform="translate(329,261)"/>
<path d="" fill="#FFFF00" transform="translate(0,0)"/>
<path d="M0 0 C2 1 2 1 2 1 Z " fill="#BFBFBF" transform="translate(314,252)"/>
<path d="M0 0 C2 1 2 1 2 1 Z " fill="#BFBFBF" transform="translate(308,248)"/>
<path d="" fill="#BFBF40" transform="translate(0,0)"/>
<path d="" fill="#FFFF00" transform="translate(0,0)"/>
<path d="" fill="#FFFF00" transform="translate(0,0)"/>
<path d="" fill="#BFBF40" transform="translate(0,0)"/>
<path d="" fill="#BFBF40" transform="translate(0,0)"/>
<path d="M0 0 C2 1 2 1 2 1 Z " fill="#95956A" transform="translate(143,239)"/>
<path d="" fill="#FF7F00" transform="translate(0,0)"/>
<path d="" fill="#BFBF40" transform="translate(0,0)"/>
<path d="" fill="#BFBF40" transform="translate(0,0)"/>
<path d="M0 0 C2 1 2 1 2 1 Z " fill="#95956A" transform="translate(173,238)"/>
<path d="M0 0 C2 1 2 1 2 1 Z " fill="#95956A" transform="translate(176,237)"/>
<path d="" fill="#FF7F00" transform="translate(0,0)"/>
<path d="" fill="#95956A" transform="translate(0,0)"/>
<path d="M0 0 C2 1 2 1 2 1 Z " fill="#808080" transform="translate(181,235)"/>
<path d="M0 0 C2 1 2 1 2 1 Z " fill="#BFBF40" transform="translate(183,234)"/>
<path d="M0 0 C2 1 2 1 2 1 Z " fill="#D4D42A" transform="translate(185,233)"/>
<path d="" fill="#FFFF00" transform="translate(0,0)"/>
<path d="" fill="#BFBF40" transform="translate(0,0)"/>
<path d="" fill="#BF4040" transform="translate(0,0)"/>
<path d="" fill="#FFFF00" transform="translate(0,0)"/>
<path d="" fill="#BFBF40" transform="translate(0,0)"/>
<path d="M0 0 C2 1 2 1 2 1 Z " fill="#808080" transform="translate(193,229)"/>
<path d="" fill="#BF4040" transform="translate(0,0)"/>
<path d="" fill="#BF4040" transform="translate(0,0)"/>
<path d="" fill="#D4D42A" transform="translate(0,0)"/>
<path d="" fill="#D42A2A" transform="translate(0,0)"/>
<path d="" fill="#D4D42A" transform="translate(0,0)"/>
<path d="" fill="#808080" transform="translate(0,0)"/>
<path d="" fill="#BFBF40" transform="translate(0,0)"/>
<path d="" fill="#BFBF40" transform="translate(0,0)"/>
<path d="" fill="#D42A2A" transform="translate(0,0)"/>
<path d="" fill="#D4D42A" transform="translate(0,0)"/>
<path d="" fill="#D4D42A" transform="translate(0,0)"/>
<path d="" fill="#BFBF40" transform="translate(0,0)"/>
<path d="" fill="#D42A2A" transform="translate(0,0)"/>
<path d="" fill="#BFBF40" transform="translate(0,0)"/>
<path d="" fill="#D4D42A" transform="translate(0,0)"/>
<path d="" fill="#95956A" transform="translate(0,0)"/>
<path d="" fill="#95956A" transform="translate(0,0)"/>
<path d="" fill="#BFBF40" transform="translate(0,0)"/>
<path d="" fill="#D42A2A" transform="translate(0,0)"/>
<path d="M0 0 C2 1 2 1 2 1 Z " fill="#D4D42A" transform="translate(178,213)"/>
<path d="" fill="#BFBF40" transform="translate(0,0)"/>
<path d="M0 0 C2 1 2 1 2 1 Z " fill="#95956A" transform="translate(176,212)"/>
<path d="" fill="#808080" transform="translate(0,0)"/>
<path d="M0 0 C2 1 2 1 2 1 Z " fill="#D4D42A" transform="translate(174,211)"/>
<path d="M0 0 C2 1 2 1 2 1 Z " fill="#95956A" transform="translate(389,210)"/>
<path d="" fill="#808080" transform="translate(0,0)"/>
<path d="M0 0 C2 1 2 1 2 1 Z " fill="#95956A" transform="translate(171,210)"/>
<path d="" fill="#D4D42A" transform="translate(0,0)"/>
<path d="M0 0 C2 1 2 1 2 1 Z " fill="#95956A" transform="translate(452,209)"/>
<path d="M0 0 C2 1 2 1 2 1 Z " fill="#95956A" transform="translate(168,209)"/>
<path d="M0 0 C2 1 2 1 2 1 Z " fill="#95956A" transform="translate(139,209)"/>
<path d="M0 0 C2 1 2 1 2 1 Z " fill="#808080" transform="translate(455,208)"/>
<path d="M0 0 C2 1 2 1 2 1 Z " fill="#D4D42A" transform="translate(383,208)"/>
<path d="" fill="#D4D42A" transform="translate(0,0)"/>
<path d="M0 0 C2 1 2 1 2 1 Z " fill="#808080" transform="translate(141,208)"/>
<path d="M0 0 C2 1 2 1 2 1 Z " fill="#D4D42A" transform="translate(458,207)"/>
<path d="M0 0 C2 1 2 1 2 1 Z " fill="#D4D42A" transform="translate(380,207)"/>
<path d="" fill="#D4D42A" transform="translate(0,0)"/>
<path d="M0 0 C2 1 2 1 2 1 Z " fill="#D4D42A" transform="translate(460,206)"/>
<path d="M0 0 C2 1 2 1 2 1 Z " fill="#D4D42A" transform="translate(377,206)"/>
<path d="M0 0 C2 1 2 1 2 1 Z " fill="#D4D42A" transform="translate(463,205)"/>
<path d="M0 0 C2 1 2 1 2 1 Z " fill="#BFBF40" transform="translate(375,205)"/>
<path d="M0 0 C2 1 2 1 2 1 Z " fill="#95956A" transform="translate(551,204)"/>
<path d="M0 0 C2 1 2 1 2 1 Z " fill="#808080" transform="translate(465,204)"/>
<path d="M0 0 C2 1 2 1 2 1 Z " fill="#D4D42A" transform="translate(373,204)"/>
<path d="M0 0 C2 1 2 1 2 1 Z " fill="#D4D42A" transform="translate(371,203)"/>
<path d="" fill="#FFFF00" transform="translate(0,0)"/>
<path d="" fill="#AAAA55" transform="translate(0,0)"/>
<path d="M0 0 C2 1 2 1 2 1 Z " fill="#D4D42A" transform="translate(369,202)"/>
<path d="M0 0 C2 1 2 1 2 1 Z " fill="#D4D42A" transform="translate(366,201)"/>
<path d="M0 0 C2 1 2 1 2 1 Z " fill="#BFBF40" transform="translate(364,200)"/>
<path d="M0 0 C2 1 2 1 2 1 Z " fill="#BFBF40" transform="translate(362,199)"/>
<path d="" fill="#AAAA55" transform="translate(0,0)"/>
<path d="" fill="#BFBF40" transform="translate(0,0)"/>
<path d="M0 0 C2 1 2 1 2 1 Z " fill="#BFBF40" transform="translate(360,198)"/>
<path d="M0 0 C2 1 2 1 2 1 Z " fill="#D4D42A" transform="translate(102,196)"/>
<path d="M0 0 C2 1 2 1 2 1 Z " fill="#95956A" transform="translate(81,196)"/>
<path d="" fill="#BFBF40" transform="translate(0,0)"/>
<path d="M0 0 C2 1 2 1 2 1 Z " fill="#808080" transform="translate(104,195)"/>
<path d="M0 0 C2 1 2 1 2 1 Z " fill="#808080" transform="translate(353,194)"/>
<path d="" fill="#BFBF40" transform="translate(0,0)"/>
<path d="M0 0 C2 1 2 1 2 1 Z " fill="#95956A" transform="translate(109,193)"/>
<path d="M0 0 C2 1 2 1 2 1 Z " fill="#95956A" transform="translate(74,193)"/>
<path d="M0 0 C2 1 2 1 2 1 Z " fill="#BFBF40" transform="translate(160,192)"/>
<path d="M0 0 C2 1 2 1 2 1 Z " fill="#95956A" transform="translate(112,192)"/>
<path d="" fill="#BFBF40" transform="translate(0,0)"/>
<path d="M0 0 C2 1 2 1 2 1 Z " fill="#BFBF40" transform="translate(158,191)"/>
<path d="M0 0 C2 1 2 1 2 1 Z " fill="#D4D42A" transform="translate(115,191)"/>
<path d="M0 0 C2 1 2 1 2 1 Z " fill="#D4D42A" transform="translate(156,190)"/>
<path d="M0 0 C2 1 2 1 2 1 Z " fill="#AAAA55" transform="translate(119,190)"/>
<path d="" fill="#BFBF40" transform="translate(0,0)"/>
<path d="M0 0 C2 1 2 1 2 1 Z " fill="#95956A" transform="translate(153,189)"/>
<path d="" fill="#808080" transform="translate(0,0)"/>
<path d="M0 0 C2 1 2 1 2 1 Z " fill="#BFBF40" transform="translate(210,165)"/>
<path d="" fill="#95956A" transform="translate(0,0)"/>
<path d="" fill="#BFBF40" transform="translate(0,0)"/>
<path d="" fill="#BFBF40" transform="translate(0,0)"/>
<path d="M0 0 C2 1 2 1 2 1 Z " fill="#95956A" transform="translate(364,154)"/>
<path d="M0 0 C2 1 2 1 2 1 Z " fill="#808080" transform="translate(361,153)"/>
<path d="M0 0 C2 1 2 1 2 1 Z " fill="#D4D42A" transform="translate(359,152)"/>
<path d="M0 0 C2 1 2 1 2 1 Z " fill="#808080" transform="translate(190,152)"/>
<path d="M0 0 C2 1 2 1 2 1 Z " fill="#BFBF40" transform="translate(355,150)"/>
<path d="" fill="#9F8080" transform="translate(0,0)"/>
<path d="M0 0 C2 1 2 1 2 1 Z " fill="#BFBF40" transform="translate(180,147)"/>
<path d="" fill="#D42A2A" transform="translate(0,0)"/>
<path d="M0 0 C2 1 2 1 2 1 Z " fill="#D4D42A" transform="translate(178,146)"/>
<path d="" fill="#D4D42A" transform="translate(0,0)"/>
<path d="M0 0 C2 1 2 1 2 1 Z " fill="#BFBF40" transform="translate(176,145)"/>
<path d="M0 0 C2 1 2 1 2 1 Z " fill="#808080" transform="translate(174,144)"/>
<path d="" fill="#956A6A" transform="translate(0,0)"/>
<path d="M0 0 C2 1 2 1 2 1 Z " fill="#D4D42A" transform="translate(172,143)"/>
<path d="M0 0 C2 1 2 1 2 1 Z " fill="#D4D42A" transform="translate(169,142)"/>
<path d="M0 0 C2 1 2 1 2 1 Z " fill="#808080" transform="translate(167,141)"/>
<path d="" fill="#956A6A" transform="translate(0,0)"/>
<path d="M0 0 C2 1 2 1 2 1 Z " fill="#D4D42A" transform="translate(165,140)"/>
<path d="" fill="#D4D42A" transform="translate(0,0)"/>
<path d="M0 0 C2 1 2 1 2 1 Z " fill="#95956A" transform="translate(378,139)"/>
<path d="M0 0 C2 1 2 1 2 1 Z " fill="#95956A" transform="translate(162,139)"/>
<path d="M0 0 C2 1 2 1 2 1 Z " fill="#D4D42A" transform="translate(160,138)"/>
<path d="" fill="#808080" transform="translate(0,0)"/>
<path d="M0 0 C2 1 2 1 2 1 Z " fill="#D4D42A" transform="translate(383,137)"/>
<path d="M0 0 C2 1 2 1 2 1 Z " fill="#808080" transform="translate(157,137)"/>
<path d="M0 0 C2 1 2 1 2 1 Z " fill="#D4D42A" transform="translate(154,136)"/>
<path d="M0 0 C2 1 2 1 2 1 Z " fill="#D4D42A" transform="translate(91,136)"/>
<path d="" fill="#D4D42A" transform="translate(0,0)"/>
<path d="" fill="#AAAAAA" transform="translate(0,0)"/>
<path d="M0 0 C2 1 2 1 2 1 Z " fill="#D4D42A" transform="translate(151,135)"/>
<path d="M0 0 C2 1 2 1 2 1 Z " fill="#808080" transform="translate(93,135)"/>
<path d="" fill="#95956A" transform="translate(0,0)"/>
<path d="" fill="#D42A2A" transform="translate(0,0)"/>
<path d="M0 0 C2 1 2 1 2 1 Z " fill="#D4D42A" transform="translate(149,134)"/>
<path d="M0 0 C2 1 2 1 2 1 Z " fill="#D4D42A" transform="translate(96,134)"/>
<path d="M0 0 C2 1 2 1 2 1 Z " fill="#D4D42A" transform="translate(146,133)"/>
<path d="" fill="#BF4040" transform="translate(0,0)"/>
<path d="" fill="#D4D42A" transform="translate(0,0)"/>
<path d="M0 0 C2 1 2 1 2 1 Z " fill="#95956A" transform="translate(102,132)"/>
<path d="" fill="#D4D42A" transform="translate(0,0)"/>
<path d="" fill="#959595" transform="translate(0,0)"/>
<path d="" fill="#D4D42A" transform="translate(0,0)"/>
<path d="" fill="#D42A2A" transform="translate(0,0)"/>
<path d="" fill="#D42A2A" transform="translate(0,0)"/>
<path d="" fill="#808080" transform="translate(0,0)"/>
<path d="" fill="#BFBF40" transform="translate(0,0)"/>
<path d="" fill="#BF4040" transform="translate(0,0)"/>
<path d="" fill="#AAAA55" transform="translate(0,0)"/>
<path d="" fill="#D4D42A" transform="translate(0,0)"/>
<path d="" fill="#D4D4D4" transform="translate(0,0)"/>
<path d="" fill="#BFBF40" transform="translate(0,0)"/>
<path d="M0 0 C2 1 2 1 2 1 Z " fill="#BFBFBF" transform="translate(344,118)"/>
<path d="M0 0 C2 1 2 1 2 1 Z " fill="#BFBFBF" transform="translate(342,117)"/>
<path d="" fill="#BFBF40" transform="translate(0,0)"/>
<path d="" fill="#808080" transform="translate(0,0)"/>
<path d="M0 0 C2 1 2 1 2 1 Z " fill="#959595" transform="translate(339,116)"/>
<path d="" fill="#BFBFBF" transform="translate(0,0)"/>
<path d="M0 0 C2 1 2 1 2 1 Z " fill="#D4D42A" transform="translate(462,114)"/>
<path d="" fill="#9F9F80" transform="translate(0,0)"/>
<path d="" fill="#BFBFBF" transform="translate(0,0)"/>
<path d="" fill="#D4D4D4" transform="translate(0,0)"/>
<path d="M0 0 C2 1 2 1 2 1 Z " fill="#808080" transform="translate(453,109)"/>
<path d="M0 0 C2 1 2 1 2 1 Z " fill="#D4D42A" transform="translate(451,108)"/>
<path d="" fill="#959595" transform="translate(0,0)"/>
<path d="" fill="#BFBF40" transform="translate(0,0)"/>
<path d="M0 0 C2 1 2 1 2 1 Z " fill="#D4D42A" transform="translate(448,107)"/>
<path d="M0 0 C2 1 2 1 2 1 Z " fill="#D4D4D4" transform="translate(242,106)"/>
<path d="M0 0 C2 1 2 1 2 1 Z " fill="#AAAA55" transform="translate(366,105)"/>
<path d="" fill="#BFBF40" transform="translate(0,0)"/>
<path d="" fill="#959595" transform="translate(0,0)"/>
<path d="M0 0 C2 1 2 1 2 1 Z " fill="#D4D42A" transform="translate(235,101)"/>
<path d="" fill="#808080" transform="translate(0,0)"/>
<path d="" fill="#FFFF00" transform="translate(0,0)"/>
<path d="M0 0 C2 1 2 1 2 1 Z " fill="#959595" transform="translate(317,92)"/>
<path d="M0 0 C2 1 2 1 2 1 Z " fill="#D4D4D4" transform="translate(325,88)"/>
<path d="M0 0 C2 1 2 1 2 1 Z " fill="#BFBF40" transform="translate(209,84)"/>
<path d="" fill="#BFBFBF" transform="translate(0,0)"/>
<path d="M0 0 C2 1 2 1 2 1 Z " fill="#BFBF40" transform="translate(197,77)"/>
<path d="M0 0 C2 1 2 1 2 1 Z " fill="#808080" transform="translate(195,76)"/>
<path d="M0 0 C2 1 2 1 2 1 Z " fill="#95956A" transform="translate(47,75)"/>
<path d="" fill="#BFBF40" transform="translate(0,0)"/>
<path d="M0 0 C2 1 2 1 2 1 Z " fill="#BFBF40" transform="translate(191,74)"/>
<path d="M0 0 C2 1 2 1 2 1 Z " fill="#808080" transform="translate(49,74)"/>
<path d="" fill="#808080" transform="translate(0,0)"/>
<path d="M0 0 C2 1 2 1 2 1 Z " fill="#808080" transform="translate(189,73)"/>
<path d="" fill="#D4D42A" transform="translate(0,0)"/>
<path d="" fill="#D4D42A" transform="translate(0,0)"/>
<path d="M0 0 C2 1 2 1 2 1 Z " fill="#D4D42A" transform="translate(187,72)"/>
<path d="M0 0 C2 1 2 1 2 1 Z " fill="#D4D42A" transform="translate(541,71)"/>
<path d="M0 0 C2 1 2 1 2 1 Z " fill="#808080" transform="translate(54,71)"/>
<path d="" fill="#BFBF40" transform="translate(0,0)"/>
<path d="M0 0 C2 1 2 1 2 1 Z " fill="#95956A" transform="translate(182,70)"/>
<path d="M0 0 C2 1 2 1 2 1 Z " fill="#95956A" transform="translate(179,69)"/>
<path d="" fill="#FFFF00" transform="translate(0,0)"/>
<path d="M0 0 C2 1 2 1 2 1 Z " fill="#95956A" transform="translate(176,68)"/>
<path d="M0 0 C2 1 2 1 2 1 Z " fill="#BFBF40" transform="translate(535,67)"/>
<path d="M0 0 C2 1 2 1 2 1 Z " fill="#BFBF40" transform="translate(62,67)"/>
<path d="" fill="#BFBF40" transform="translate(0,0)"/>
<path d="M0 0 C2 1 2 1 2 1 Z " fill="#AAAA55" transform="translate(170,66)"/>
<path d="M0 0 C2 1 2 1 2 1 Z " fill="#95956A" transform="translate(64,66)"/>
<path d="" fill="#808080" transform="translate(0,0)"/>
<path d="M0 0 C2 1 2 1 2 1 Z " fill="#BFBF40" transform="translate(530,64)"/>
<path d="M0 0 C2 1 2 1 2 1 Z " fill="#95956A" transform="translate(163,64)"/>
<path d="M0 0 C2 1 2 1 2 1 Z " fill="#95956A" transform="translate(69,64)"/>
<path d="" fill="#D4D42A" transform="translate(0,0)"/>
<path d="" fill="#FFFF00" transform="translate(0,0)"/>
<path d="M0 0 C2 1 2 1 2 1 Z " fill="#95956A" transform="translate(72,63)"/>
<path d="M0 0 C2 1 2 1 2 1 Z " fill="#95956A" transform="translate(75,62)"/>
<path d="" fill="#BFBF40" transform="translate(0,0)"/>
<path d="M0 0 C2 1 2 1 2 1 Z " fill="#808080" transform="translate(516,57)"/>
<path d="M0 0 C2 1 2 1 2 1 Z " fill="#D4D42A" transform="translate(46,57)"/>
<path d="M0 0 C2 1 2 1 2 1 Z " fill="#95956A" transform="translate(514,56)"/>
<path d="" fill="#BFBF40" transform="translate(0,0)"/>
<path d="M0 0 C2 1 2 1 2 1 Z " fill="#D4D42A" transform="translate(512,55)"/>
<path d="M0 0 C2 1 2 1 2 1 Z " fill="#95956A" transform="translate(509,54)"/>
<path d="M0 0 C2 1 2 1 2 1 Z " fill="#D4D42A" transform="translate(507,53)"/>
<path d="M0 0 C2 1 2 1 2 1 Z " fill="#95956A" transform="translate(504,52)"/>
<path d="M0 0 C2 1 2 1 2 1 Z " fill="#BFBF40" transform="translate(26,51)"/>
<path d="M0 0 C2 1 2 1 2 1 Z " fill="#D4D42A" transform="translate(499,50)"/>
<path d="M0 0 C2 1 2 1 2 1 Z " fill="#808080" transform="translate(28,50)"/>
<path d="M0 0 C2 1 2 1 2 1 Z " fill="#95956A" transform="translate(496,49)"/>
<path d="M0 0 C2 1 2 1 2 1 Z " fill="#95956A" transform="translate(60,49)"/>
<path d="M0 0 C2 1 2 1 2 1 Z " fill="#D4D42A" transform="translate(30,49)"/>
<path d="M0 0 C2 1 2 1 2 1 Z " fill="#95956A" transform="translate(493,48)"/>
<path d="M0 0 C2 1 2 1 2 1 Z " fill="#D4D42A" transform="translate(58,48)"/>
<path d="M0 0 C2 1 2 1 2 1 Z " fill="#95956A" transform="translate(33,48)"/>
<path d="M0 0 C2 1 2 1 2 1 Z " fill="#95956A" transform="translate(490,47)"/>
<path d="" fill="#D4D42A" transform="translate(0,0)"/>
<path d="M0 0 C2 1 2 1 2 1 Z " fill="#95956A" transform="translate(483,45)"/>
<path d="" fill="#D4D42A" transform="translate(0,0)"/>
<path d="" fill="#BFBF40" transform="translate(0,0)"/>
<path d="" fill="#D4D42A" transform="translate(0,0)"/>
<path d="" fill="#95956A" transform="translate(0,0)"/>
<path d="" fill="#D4D42A" transform="translate(0,0)"/>
<path d="" fill="#FFFF00" transform="translate(0,0)"/>
<path d="M0 0 C2 1 2 1 2 1 Z " fill="#BFBF40" transform="translate(432,39)"/>
<path d="" fill="#D4D42A" transform="translate(0,0)"/>
<path d="" fill="#BFBF40" transform="translate(0,0)"/>
<path d="" fill="#95956A" transform="translate(0,0)"/>
<path d="M0 0 C2 1 2 1 2 1 Z " fill="#BFBF40" transform="translate(437,36)"/>
<path d="" fill="#BFBF40" transform="translate(0,0)"/>
<path d="" fill="#95956A" transform="translate(0,0)"/>
<path d="" fill="#BFBF40" transform="translate(0,0)"/>
<path d="" fill="#D4D42A" transform="translate(0,0)"/>
<path d="M0 0 C2 1 2 1 2 1 Z " fill="#BFBF40" transform="translate(443,32)"/>
<path d="" fill="#BFBF40" transform="translate(0,0)"/>
<path d="" fill="#95956A" transform="translate(0,0)"/>
<path d="" fill="#BFBF40" transform="translate(0,0)"/>
<path d="" fill="#9F8080" transform="translate(0,0)"/>
<path d="" fill="#95956A" transform="translate(0,0)"/>
<path d="" fill="#BFBF40" transform="translate(0,0)"/>
<path d="" fill="#BFBF40" transform="translate(0,0)"/>
<path d="" fill="#D4D42A" transform="translate(0,0)"/>
<path d="" fill="#D4D42A" transform="translate(0,0)"/>
<path d="" fill="#AAAA55" transform="translate(0,0)"/>
<path d="" fill="#BFBF40" transform="translate(0,0)"/>
<path d="" fill="#BFBF40" transform="translate(0,0)"/>
<path d="" fill="#95956A" transform="translate(0,0)"/>
<path d="" fill="#BFBF40" transform="translate(0,0)"/>
<path d="" fill="#808080" transform="translate(0,0)"/>
<path d="" fill="#BFBF40" transform="translate(0,0)"/>
<path d="" fill="#BFBF40" transform="translate(0,0)"/>
<path d="" fill="#BFBF40" transform="translate(0,0)"/>
<path d="" fill="#D4D42A" transform="translate(0,0)"/>
<path d="" fill="#FFFF00" transform="translate(0,0)"/>
<path d="" fill="#BFBF40" transform="translate(0,0)"/>
<path d="" fill="#AAAA55" transform="translate(0,0)"/>
<path d="" fill="#AAAA55" transform="translate(0,0)"/>
<path d="" fill="#AAAA55" transform="translate(0,0)"/>
<path d="" fill="#AAAA55" transform="translate(0,0)"/>
<path d="" fill="#808080" transform="translate(0,0)"/>
<path d="" fill="#808080" transform="translate(0,0)"/>
<path d="" fill="#AAAA55" transform="translate(0,0)"/>
<path d="" fill="#AAAA55" transform="translate(0,0)"/>
<path d="" fill="#AAAA55" transform="translate(0,0)"/>
<path d="" fill="#FFFF00" transform="translate(0,0)"/>
<path d="" fill="#FFFF00" transform="translate(0,0)"/>
<path d="" fill="#808080" transform="translate(0,0)"/>
<path d="" fill="#808080" transform="translate(0,0)"/>
<path d="" fill="#FFFF00" transform="translate(0,0)"/>
<path d="" fill="#808080" transform="translate(0,0)"/>
<path d="" fill="#AAAA55" transform="translate(0,0)"/>
<path d="" fill="#AAAA55" transform="translate(0,0)"/>
<path d="" fill="#AAAA55" transform="translate(0,0)"/>
<path d="" fill="#808080" transform="translate(0,0)"/>
<path d="" fill="#AAAA55" transform="translate(0,0)"/>
<path d="" fill="#808080" transform="translate(0,0)"/>
<path d="" fill="#AAAA55" transform="translate(0,0)"/>
<path d="" fill="#808080" transform="translate(0,0)"/>
<path d="" fill="#AAAA55" transform="translate(0,0)"/>
<path d="" fill="#AAAA55" transform="translate(0,0)"/>
<path d="" fill="#AAAA55" transform="translate(0,0)"/>
<path d="" fill="#808080" transform="translate(0,0)"/>
<path d="" fill="#AAAA55" transform="translate(0,0)"/>
<path d="" fill="#AAAA55" transform="translate(0,0)"/>
<path d="" fill="#AAAA55" transform="translate(0,0)"/>
<path d="" fill="#AAAA55" transform="translate(0,0)"/>
<path d="" fill="#AAAA55" transform="translate(0,0)"/>
<path d="" fill="#AAAA55" transform="translate(0,0)"/>
<path d="" fill="#AAAA55" transform="translate(0,0)"/>
<path d="" fill="#808080" transform="translate(0,0)"/>
<path d="" fill="#808080" transform="translate(0,0)"/>
<path d="" fill="#AAAA55" transform="translate(0,0)"/>
<path d="" fill="#AAAA55" transform="translate(0,0)"/>
<path d="" fill="#AAAA55" transform="translate(0,0)"/>
<path d="" fill="#FFFF00" transform="translate(0,0)"/>
<path d="" fill="#808080" transform="translate(0,0)"/>
<path d="" fill="#AAAA55" transform="translate(0,0)"/>
<path d="" fill="#AAAA55" transform="translate(0,0)"/>
<path d="" fill="#808080" transform="translate(0,0)"/>
<path d="" fill="#AAAA55" transform="translate(0,0)"/>
<path d="" fill="#AAAA55" transform="translate(0,0)"/>
<path d="" fill="#AAAA55" transform="translate(0,0)"/>
<path d="" fill="#AAAAAA" transform="translate(0,0)"/>
<path d="" fill="#FFFF00" transform="translate(0,0)"/>
<path d="" fill="#808080" transform="translate(0,0)"/>
<path d="" fill="#808080" transform="translate(0,0)"/>
<path d="" fill="#808080" transform="translate(0,0)"/>
<path d="" fill="#808080" transform="translate(0,0)"/>
<path d="" fill="#808080" transform="translate(0,0)"/>
<path d="" fill="#AAAA55" transform="translate(0,0)"/>
<path d="" fill="#AAAA55" transform="translate(0,0)"/>
<path d="" fill="#AAAA55" transform="translate(0,0)"/>
<path d="" fill="#808080" transform="translate(0,0)"/>
<path d="" fill="#AAAA55" transform="translate(0,0)"/>
<path d="" fill="#AAAA55" transform="translate(0,0)"/>
<path d="" fill="#AAAA55" transform="translate(0,0)"/>
<path d="" fill="#FFFF00" transform="translate(0,0)"/>
<path d="" fill="#AAAA55" transform="translate(0,0)"/>
<path d="" fill="#AAAA55" transform="translate(0,0)"/>
<path d="" fill="#AAAA55" transform="translate(0,0)"/>
<path d="" fill="#FFFF00" transform="translate(0,0)"/>
<path d="" fill="#AAAA55" transform="translate(0,0)"/>
<path d="" fill="#AAAA55" transform="translate(0,0)"/>
<path d="" fill="#AAAA55" transform="translate(0,0)"/>
<path d="" fill="#AAAA55" transform="translate(0,0)"/>
<path d="" fill="#AAAA55" transform="translate(0,0)"/>
<path d="" fill="#FFFF00" transform="translate(0,0)"/>
<path d="" fill="#AAAA55" transform="translate(0,0)"/>
<path d="" fill="#AAAAAA" transform="translate(0,0)"/>
<path d="" fill="#808080" transform="translate(0,0)"/>
<path d="" fill="#808080" transform="translate(0,0)"/>
<path d="" fill="#FFFF00" transform="translate(0,0)"/>
<path d="" fill="#AAAA55" transform="translate(0,0)"/>
<path d="" fill="#AAAA55" transform="translate(0,0)"/>
<path d="" fill="#808080" transform="translate(0,0)"/>
<path d="" fill="#FFFF00" transform="translate(0,0)"/>
<path d="" fill="#AAAA55" transform="translate(0,0)"/>
<path d="" fill="#AAAAAA" transform="translate(0,0)"/>
<path d="" fill="#AAAA55" transform="translate(0,0)"/>
<path d="" fill="#FFFF00" transform="translate(0,0)"/>
<path d="" fill="#FFFF00" transform="translate(0,0)"/>
<path d="" fill="#AAAA55" transform="translate(0,0)"/>
<path d="" fill="#AAAA55" transform="translate(0,0)"/>
<path d="" fill="#AAAA55" transform="translate(0,0)"/>
<path d="" fill="#808080" transform="translate(0,0)"/>
<path d="" fill="#808080" transform="translate(0,0)"/>
<path d="" fill="#AAAAAA" transform="translate(0,0)"/>
<path d="" fill="#AAAA55" transform="translate(0,0)"/>
<path d="" fill="#AAAA55" transform="translate(0,0)"/>
<path d="" fill="#AAAA55" transform="translate(0,0)"/>
<path d="" fill="#AAAA55" transform="translate(0,0)"/>
<path d="" fill="#AAAA55" transform="translate(0,0)"/>
<path d="" fill="#AAAAAA" transform="translate(0,0)"/>
<path d="" fill="#AAAA55" transform="translate(0,0)"/>
<path d="" fill="#808080" transform="translate(0,0)"/>
<path d="" fill="#AAAA55" transform="translate(0,0)"/>
<path d="" fill="#AAAA55" transform="translate(0,0)"/>
<path d="" fill="#AAAAAA" transform="translate(0,0)"/>
<path d="" fill="#AAAA55" transform="translate(0,0)"/>
<path d="" fill="#FFFF00" transform="translate(0,0)"/>
<path d="" fill="#808080" transform="translate(0,0)"/>
<path d="" fill="#808080" transform="translate(0,0)"/>
<path d="" fill="#808080" transform="translate(0,0)"/>
<path d="" fill="#808080" transform="translate(0,0)"/>
<path d="" fill="#AAAA55" transform="translate(0,0)"/>
<path d="" fill="#808080" transform="translate(0,0)"/>
<path d="" fill="#AAAAAA" transform="translate(0,0)"/>
<path d="" fill="#AAAA55" transform="translate(0,0)"/>
<path d="" fill="#808080" transform="translate(0,0)"/>
<path d="" fill="#AAAA55" transform="translate(0,0)"/>
<path d="" fill="#AAAAAA" transform="translate(0,0)"/>
<path d="" fill="#AAAA55" transform="translate(0,0)"/>
<path d="" fill="#808080" transform="translate(0,0)"/>
<path d="" fill="#AAAA55" transform="translate(0,0)"/>
<path d="" fill="#808080" transform="translate(0,0)"/>
<path d="" fill="#AA5555" transform="translate(0,0)"/>
<path d="" fill="#AAAA55" transform="translate(0,0)"/>
<path d="" fill="#AAAA55" transform="translate(0,0)"/>
<path d="" fill="#808080" transform="translate(0,0)"/>
<path d="" fill="#808080" transform="translate(0,0)"/>
<path d="" fill="#808080" transform="translate(0,0)"/>
<path d="" fill="#808080" transform="translate(0,0)"/>
<path d="" fill="#808080" transform="translate(0,0)"/>
<path d="" fill="#AA5555" transform="translate(0,0)"/>
<path d="" fill="#AAAAAA" transform="translate(0,0)"/>
<path d="" fill="#AAAA55" transform="translate(0,0)"/>
<path d="" fill="#808080" transform="translate(0,0)"/>
<path d="" fill="#808080" transform="translate(0,0)"/>
<path d="" fill="#AAAAAA" transform="translate(0,0)"/>
<path d="" fill="#AA5555" transform="translate(0,0)"/>
<path d="" fill="#AAAAAA" transform="translate(0,0)"/>
<path d="" fill="#AAAA55" transform="translate(0,0)"/>
<path d="" fill="#AAAAAA" transform="translate(0,0)"/>
<path d="" fill="#AAAA55" transform="translate(0,0)"/>
<path d="" fill="#808080" transform="translate(0,0)"/>
<path d="" fill="#FFFFFF" transform="translate(0,0)"/>
<path d="" fill="#808080" transform="translate(0,0)"/>
<path d="" fill="#808080" transform="translate(0,0)"/>
<path d="" fill="#AAAA55" transform="translate(0,0)"/>
<path d="" fill="#AAAAAA" transform="translate(0,0)"/>
<path d="" fill="#AAAA55" transform="translate(0,0)"/>
<path d="" fill="#AAAAAA" transform="translate(0,0)"/>
<path d="" fill="#AAAA55" transform="translate(0,0)"/>
<path d="" fill="#AAAAAA" transform="translate(0,0)"/>
<path d="" fill="#AAAAAA" transform="translate(0,0)"/>
<path d="" fill="#808080" transform="translate(0,0)"/>
<path d="" fill="#AAAA55" transform="translate(0,0)"/>
<path d="" fill="#808080" transform="translate(0,0)"/>
<path d="" fill="#808080" transform="translate(0,0)"/>
<path d="" fill="#808080" transform="translate(0,0)"/>
<path d="" fill="#AAAAAA" transform="translate(0,0)"/>
<path d="" fill="#AAAA55" transform="translate(0,0)"/>
<path d="" fill="#AAAA55" transform="translate(0,0)"/>
<path d="" fill="#AAAA55" transform="translate(0,0)"/>
<path d="" fill="#AAAA55" transform="translate(0,0)"/>
<path d="" fill="#AAAAAA" transform="translate(0,0)"/>
<path d="" fill="#AAAA55" transform="translate(0,0)"/>
<path d="" fill="#AAAA55" transform="translate(0,0)"/>
<path d="" fill="#808080" transform="translate(0,0)"/>
<path d="" fill="#AAAAAA" transform="translate(0,0)"/>
<path d="" fill="#808080" transform="translate(0,0)"/>
<path d="" fill="#AAAA55" transform="translate(0,0)"/>
<path d="" fill="#AAAAAA" transform="translate(0,0)"/>
<path d="" fill="#AAAA55" transform="translate(0,0)"/>
<path d="" fill="#AAAA55" transform="translate(0,0)"/>
<path d="" fill="#AAAA55" transform="translate(0,0)"/>
<path d="" fill="#AAAA55" transform="translate(0,0)"/>
<path d="" fill="#808080" transform="translate(0,0)"/>
<path d="" fill="#AAAA55" transform="translate(0,0)"/>
<path d="" fill="#AAAA55" transform="translate(0,0)"/>
<path d="" fill="#AAAA55" transform="translate(0,0)"/>
<path d="" fill="#808080" transform="translate(0,0)"/>
<path d="" fill="#FFFF00" transform="translate(0,0)"/>
<path d="" fill="#AAAA55" transform="translate(0,0)"/>
<path d="" fill="#AAAA55" transform="translate(0,0)"/>
<path d="" fill="#AAAA55" transform="translate(0,0)"/>
<path d="" fill="#AAAA55" transform="translate(0,0)"/>
<path d="" fill="#AAAA55" transform="translate(0,0)"/>
<path d="" fill="#808080" transform="translate(0,0)"/>
<path d="" fill="#AAAA55" transform="translate(0,0)"/>
<path d="" fill="#AAAA55" transform="translate(0,0)"/>
<path d="" fill="#AAAAAA" transform="translate(0,0)"/>
<path d="" fill="#AAAA55" transform="translate(0,0)"/>
<path d="" fill="#808080" transform="translate(0,0)"/>
<path d="" fill="#808080" transform="translate(0,0)"/>
<path d="" fill="#AAAA55" transform="translate(0,0)"/>
<path d="" fill="#AAAAAA" transform="translate(0,0)"/>
<path d="" fill="#AAAA55" transform="translate(0,0)"/>
<path d="" fill="#AAAA55" transform="translate(0,0)"/>
<path d="" fill="#AAAA55" transform="translate(0,0)"/>
<path d="" fill="#AAAAAA" transform="translate(0,0)"/>
<path d="" fill="#AAAA55" transform="translate(0,0)"/>
<path d="" fill="#AAAA55" transform="translate(0,0)"/>
<path d="" fill="#AAAAAA" transform="translate(0,0)"/>
<path d="" fill="#AAAA55" transform="translate(0,0)"/>
<path d="" fill="#808080" transform="translate(0,0)"/>
<path d="" fill="#AAAA55" transform="translate(0,0)"/>
<path d="" fill="#808080" transform="translate(0,0)"/>
<path d="" fill="#808080" transform="translate(0,0)"/>
<path d="" fill="#AAAA55" transform="translate(0,0)"/>
<path d="" fill="#AAAA55" transform="translate(0,0)"/>
<path d="" fill="#AAAA55" transform="translate(0,0)"/>
<path d="" fill="#808080" transform="translate(0,0)"/>
<path d="" fill="#AAAA55" transform="translate(0,0)"/>
<path d="" fill="#808080" transform="translate(0,0)"/>
<path d="" fill="#808080" transform="translate(0,0)"/>
<path d="" fill="#FFFF00" transform="translate(0,0)"/>
<path d="" fill="#AAAA55" transform="translate(0,0)"/>
<path d="" fill="#AAAA55" transform="translate(0,0)"/>
<path d="" fill="#AAAAAA" transform="translate(0,0)"/>
<path d="" fill="#808080" transform="translate(0,0)"/>
<path d="" fill="#AAAAAA" transform="translate(0,0)"/>
<path d="" fill="#AAAAAA" transform="translate(0,0)"/>
<path d="" fill="#AAAA55" transform="translate(0,0)"/>
<path d="" fill="#AAAA55" transform="translate(0,0)"/>
<path d="" fill="#AAAAAA" transform="translate(0,0)"/>
<path d="" fill="#808080" transform="translate(0,0)"/>
<path d="" fill="#808080" transform="translate(0,0)"/>
<path d="" fill="#AAAA55" transform="translate(0,0)"/>
<path d="" fill="#808080" transform="translate(0,0)"/>
<path d="" fill="#AAAA55" transform="translate(0,0)"/>
<path d="" fill="#AAAAAA" transform="translate(0,0)"/>
<path d="" fill="#AAAAAA" transform="translate(0,0)"/>
<path d="" fill="#AAAAAA" transform="translate(0,0)"/>
<path d="" fill="#AAAAAA" transform="translate(0,0)"/>
<path d="" fill="#AAAAAA" transform="translate(0,0)"/>
<path d="" fill="#AAAAAA" transform="translate(0,0)"/>
<path d="" fill="#808080" transform="translate(0,0)"/>
<path d="" fill="#808080" transform="translate(0,0)"/>
<path d="" fill="#AAAA55" transform="translate(0,0)"/>
<path d="" fill="#AAAA55" transform="translate(0,0)"/>
<path d="" fill="#808080" transform="translate(0,0)"/>
<path d="" fill="#808080" transform="translate(0,0)"/>
<path d="" fill="#AAAAAA" transform="translate(0,0)"/>
<path d="" fill="#AAAA55" transform="translate(0,0)"/>
<path d="" fill="#AAAA55" transform="translate(0,0)"/>
<path d="" fill="#AAAA55" transform="translate(0,0)"/>
<path d="" fill="#808080" transform="translate(0,0)"/>
<path d="" fill="#AAAA55" transform="translate(0,0)"/>
<path d="" fill="#AAAA55" transform="translate(0,0)"/>
<path d="" fill="#AAAAAA" transform="translate(0,0)"/>
<path d="" fill="#AAAA55" transform="translate(0,0)"/>
<path d="" fill="#AAAAAA" transform="translate(0,0)"/>
<path d="" fill="#AAAA55" transform="translate(0,0)"/>
<path d="" fill="#808080" transform="translate(0,0)"/>
<path d="" fill="#AAAA55" transform="translate(0,0)"/>
<path d="" fill="#AAAA55" transform="translate(0,0)"/>
<path d="" fill="#AAAAAA" transform="translate(0,0)"/>
<path d="" fill="#808080" transform="translate(0,0)"/>
<path d="" fill="#AAAA55" transform="translate(0,0)"/>
<path d="" fill="#AAAAAA" transform="translate(0,0)"/>
<path d="" fill="#AAAA55" transform="translate(0,0)"/>
<path d="" fill="#AAAAAA" transform="translate(0,0)"/>
<path d="" fill="#808080" transform="translate(0,0)"/>
<path d="" fill="#AAAA55" transform="translate(0,0)"/>
<path d="" fill="#AAAAAA" transform="translate(0,0)"/>
<path d="" fill="#808080" transform="translate(0,0)"/>
<path d="" fill="#AAAAAA" transform="translate(0,0)"/>
<path d="" fill="#AAAAAA" transform="translate(0,0)"/>
<path d="" fill="#808080" transform="translate(0,0)"/>
<path d="" fill="#808080" transform="translate(0,0)"/>
<path d="" fill="#808080" transform="translate(0,0)"/>
<path d="" fill="#AAAAAA" transform="translate(0,0)"/>
<path d="" fill="#AAAA55" transform="translate(0,0)"/>
<path d="" fill="#AAAAAA" transform="translate(0,0)"/>
<path d="" fill="#AAAAAA" transform="translate(0,0)"/>
<path d="" fill="#AAAA55" transform="translate(0,0)"/>
<path d="" fill="#AAAAAA" transform="translate(0,0)"/>
<path d="" fill="#AAAA55" transform="translate(0,0)"/>
<path d="" fill="#808080" transform="translate(0,0)"/>
<path d="" fill="#AAAA55" transform="translate(0,0)"/>
<path d="" fill="#808080" transform="translate(0,0)"/>
<path d="" fill="#808080" transform="translate(0,0)"/>
<path d="" fill="#808080" transform="translate(0,0)"/>
<path d="" fill="#AAAA55" transform="translate(0,0)"/>
<path d="" fill="#808080" transform="translate(0,0)"/>
<path d="" fill="#808080" transform="translate(0,0)"/>
<path d="" fill="#808080" transform="translate(0,0)"/>
<path d="" fill="#AAAA55" transform="translate(0,0)"/>
<path d="" fill="#AAAAAA" transform="translate(0,0)"/>
<path d="" fill="#808080" transform="translate(0,0)"/>
<path d="" fill="#808080" transform="translate(0,0)"/>
<path d="" fill="#AAAAAA" transform="translate(0,0)"/>
<path d="" fill="#AAAA55" transform="translate(0,0)"/>
<path d="" fill="#AAAAAA" transform="translate(0,0)"/>
<path d="" fill="#FFFFFF" transform="translate(0,0)"/>
<path d="" fill="#AAAAAA" transform="translate(0,0)"/>
<path d="" fill="#AAAA55" transform="translate(0,0)"/>
<path d="" fill="#FFFFFF" transform="translate(0,0)"/>
<path d="" fill="#808080" transform="translate(0,0)"/>
<path d="" fill="#AAAA55" transform="translate(0,0)"/>
<path d="" fill="#BF8080" transform="translate(0,0)"/>
<path d="" fill="#BF8080" transform="translate(0,0)"/>
<path d="" fill="#808080" transform="translate(0,0)"/>
<path d="" fill="#AAAAAA" transform="translate(0,0)"/>
<path d="" fill="#AAAAAA" transform="translate(0,0)"/>
<path d="" fill="#808080" transform="translate(0,0)"/>
<path d="" fill="#AAAAAA" transform="translate(0,0)"/>
<path d="" fill="#FFFF00" transform="translate(0,0)"/>
<path d="" fill="#FFFFFF" transform="translate(0,0)"/>
<path d="" fill="#AAAAAA" transform="translate(0,0)"/>
<path d="" fill="#808080" transform="translate(0,0)"/>
<path d="" fill="#FFFFFF" transform="translate(0,0)"/>
<path d="" fill="#AAAAAA" transform="translate(0,0)"/>
<path d="" fill="#808080" transform="translate(0,0)"/>
<path d="" fill="#AAAAAA" transform="translate(0,0)"/>
<path d="" fill="#808080" transform="translate(0,0)"/>
<path d="" fill="#808080" transform="translate(0,0)"/>
<path d="" fill="#AAAAAA" transform="translate(0,0)"/>
<path d="" fill="#AAAA55" transform="translate(0,0)"/>
<path d="" fill="#AAAAAA" transform="translate(0,0)"/>
<path d="" fill="#AAAA55" transform="translate(0,0)"/>
<path d="" fill="#AAAAAA" transform="translate(0,0)"/>
<path d="" fill="#AAAAAA" transform="translate(0,0)"/>
<path d="" fill="#FFFF00" transform="translate(0,0)"/>
<path d="" fill="#808080" transform="translate(0,0)"/>
<path d="" fill="#999966" transform="translate(0,0)"/>
<path d="" fill="#808080" transform="translate(0,0)"/>
<path d="" fill="#AAAA55" transform="translate(0,0)"/>
<path d="" fill="#808080" transform="translate(0,0)"/>
<path d="" fill="#AAAAAA" transform="translate(0,0)"/>
<path d="" fill="#808080" transform="translate(0,0)"/>
<path d="" fill="#FFFFFF" transform="translate(0,0)"/>
<path d="" fill="#AAAAAA" transform="translate(0,0)"/>
<path d="" fill="#FFFFFF" transform="translate(0,0)"/>
<path d="" fill="#AA5555" transform="translate(0,0)"/>
<path d="" fill="#AAAA55" transform="translate(0,0)"/>
<path d="" fill="#AAAA55" transform="translate(0,0)"/>
<path d="" fill="#808080" transform="translate(0,0)"/>
<path d="" fill="#AAAAAA" transform="translate(0,0)"/>
<path d="" fill="#AAAA55" transform="translate(0,0)"/>
<path d="" fill="#AAAA55" transform="translate(0,0)"/>
<path d="" fill="#FFFF00" transform="translate(0,0)"/>
<path d="" fill="#808080" transform="translate(0,0)"/>
<path d="" fill="#808080" transform="translate(0,0)"/>
<path d="" fill="#AAAA55" transform="translate(0,0)"/>
<path d="" fill="#808080" transform="translate(0,0)"/>
<path d="" fill="#808080" transform="translate(0,0)"/>
<path d="" fill="#AAAAAA" transform="translate(0,0)"/>
<path d="" fill="#808080" transform="translate(0,0)"/>
<path d="" fill="#808080" transform="translate(0,0)"/>
<path d="" fill="#808080" transform="translate(0,0)"/>
<path d="" fill="#AAAA55" transform="translate(0,0)"/>
<path d="" fill="#808080" transform="translate(0,0)"/>
<path d="" fill="#AAAA55" transform="translate(0,0)"/>
<path d="" fill="#AAAAAA" transform="translate(0,0)"/>
<path d="" fill="#808080" transform="translate(0,0)"/>
<path d="" fill="#AAAA55" transform="translate(0,0)"/>
<path d="" fill="#AAAAAA" transform="translate(0,0)"/>
<path d="" fill="#808080" transform="translate(0,0)"/>
<path d="" fill="#AAAA55" transform="translate(0,0)"/>
<path d="" fill="#AAAAAA" transform="translate(0,0)"/>
<path d="" fill="#808080" transform="translate(0,0)"/>
<path d="" fill="#808080" transform="translate(0,0)"/>
<path d="" fill="#BF8080" transform="translate(0,0)"/>
<path d="" fill="#AAAA55" transform="translate(0,0)"/>
<path d="" fill="#BF8080" transform="translate(0,0)"/>
<path d="" fill="#AAAAAA" transform="translate(0,0)"/>
<path d="" fill="#BF8080" transform="translate(0,0)"/>
<path d="" fill="#AAAA55" transform="translate(0,0)"/>
<path d="" fill="#808080" transform="translate(0,0)"/>
<path d="" fill="#AAAA55" transform="translate(0,0)"/>
<path d="" fill="#AAAA55" transform="translate(0,0)"/>
<path d="" fill="#AAAAAA" transform="translate(0,0)"/>
<path d="" fill="#AAAA55" transform="translate(0,0)"/>
<path d="" fill="#FFFFFF" transform="translate(0,0)"/>
<path d="" fill="#808080" transform="translate(0,0)"/>
<path d="" fill="#808080" transform="translate(0,0)"/>
<path d="" fill="#AAAA55" transform="translate(0,0)"/>
<path d="" fill="#AAAA55" transform="translate(0,0)"/>
<path d="" fill="#AAAA55" transform="translate(0,0)"/>
<path d="" fill="#AAAA55" transform="translate(0,0)"/>
<path d="" fill="#AAAA55" transform="translate(0,0)"/>
<path d="" fill="#AAAA55" transform="translate(0,0)"/>
<path d="" fill="#FFFF00" transform="translate(0,0)"/>
<path d="" fill="#808080" transform="translate(0,0)"/>
<path d="" fill="#AAAA55" transform="translate(0,0)"/>
<path d="" fill="#808080" transform="translate(0,0)"/>
<path d="" fill="#808080" transform="translate(0,0)"/>
<path d="" fill="#AAAA55" transform="translate(0,0)"/>
<path d="" fill="#808080" transform="translate(0,0)"/>
<path d="" fill="#AAAA55" transform="translate(0,0)"/>
<path d="" fill="#AAAA55" transform="translate(0,0)"/>
<path d="" fill="#808080" transform="translate(0,0)"/>
<path d="" fill="#AAAAAA" transform="translate(0,0)"/>
<path d="" fill="#808080" transform="translate(0,0)"/>
<path d="" fill="#808080" transform="translate(0,0)"/>
<path d="" fill="#AAAAAA" transform="translate(0,0)"/>
<path d="" fill="#808080" transform="translate(0,0)"/>
<path d="" fill="#808080" transform="translate(0,0)"/>
<path d="" fill="#AAAA55" transform="translate(0,0)"/>
<path d="" fill="#AAAAAA" transform="translate(0,0)"/>
<path d="" fill="#AAAA55" transform="translate(0,0)"/>
<path d="" fill="#AAAAAA" transform="translate(0,0)"/>
<path d="" fill="#AAAA55" transform="translate(0,0)"/>
<path d="" fill="#808080" transform="translate(0,0)"/>
<path d="" fill="#808080" transform="translate(0,0)"/>
<path d="" fill="#808080" transform="translate(0,0)"/>
<path d="" fill="#AAAAAA" transform="translate(0,0)"/>
<path d="" fill="#AAAAAA" transform="translate(0,0)"/>
<path d="" fill="#AAAAAA" transform="translate(0,0)"/>
<path d="" fill="#808080" transform="translate(0,0)"/>
<path d="" fill="#AAAA55" transform="translate(0,0)"/>
<path d="" fill="#FFFFFF" transform="translate(0,0)"/>
<path d="" fill="#AAAA55" transform="translate(0,0)"/>
<path d="" fill="#808080" transform="translate(0,0)"/>
<path d="" fill="#BF8080" transform="translate(0,0)"/>
<path d="" fill="#AAAA55" transform="translate(0,0)"/>
<path d="" fill="#AAAA55" transform="translate(0,0)"/>
<path d="" fill="#808080" transform="translate(0,0)"/>
<path d="" fill="#808080" transform="translate(0,0)"/>
<path d="" fill="#AAAA55" transform="translate(0,0)"/>
<path d="" fill="#808080" transform="translate(0,0)"/>
<path d="" fill="#808080" transform="translate(0,0)"/>
<path d="" fill="#808080" transform="translate(0,0)"/>
<path d="" fill="#808080" transform="translate(0,0)"/>
<path d="" fill="#808080" transform="translate(0,0)"/>
<path d="" fill="#AAAA55" transform="translate(0,0)"/>
<path d="" fill="#808080" transform="translate(0,0)"/>
<path d="" fill="#AAAA55" transform="translate(0,0)"/>
<path d="" fill="#AAAA55" transform="translate(0,0)"/>
<path d="" fill="#AAAA55" transform="translate(0,0)"/>
<path d="" fill="#808080" transform="translate(0,0)"/>
<path d="" fill="#AAAA55" transform="translate(0,0)"/>
<path d="" fill="#808080" transform="translate(0,0)"/>
<path d="" fill="#AAAA55" transform="translate(0,0)"/>
<path d="" fill="#AAAA55" transform="translate(0,0)"/>
<path d="" fill="#AAAA55" transform="translate(0,0)"/>
<path d="" fill="#808080" transform="translate(0,0)"/>
<path d="" fill="#AAAA55" transform="translate(0,0)"/>
<path d="" fill="#AAAA55" transform="translate(0,0)"/>
<path d="" fill="#AAAA55" transform="translate(0,0)"/>
<path d="" fill="#808080" transform="translate(0,0)"/>
<path d="" fill="#AAAA55" transform="translate(0,0)"/>
<path d="" fill="#FFFF00" transform="translate(0,0)"/>
<path d="" fill="#808080" transform="translate(0,0)"/>
<path d="" fill="#AAAA55" transform="translate(0,0)"/>
<path d="" fill="#AAAA55" transform="translate(0,0)"/>
<path d="" fill="#AAAA55" transform="translate(0,0)"/>
<path d="" fill="#AAAA55" transform="translate(0,0)"/>
<path d="" fill="#AAAA55" transform="translate(0,0)"/>
<path d="" fill="#AAAA55" transform="translate(0,0)"/>
<path d="" fill="#AAAA55" transform="translate(0,0)"/>
<path d="" fill="#AAAA55" transform="translate(0,0)"/>
<path d="" fill="#AAAA55" transform="translate(0,0)"/>
<path d="" fill="#AAAA55" transform="translate(0,0)"/>
<path d="" fill="#AAAA55" transform="translate(0,0)"/>
<path d="" fill="#808080" transform="translate(0,0)"/>
<path d="" fill="#AAAA55" transform="translate(0,0)"/>
<path d="" fill="#AAAA55" transform="translate(0,0)"/>
<path d="" fill="#808080" transform="translate(0,0)"/>
<path d="" fill="#AAAA55" transform="translate(0,0)"/>
<path d="" fill="#AAAA55" transform="translate(0,0)"/>
<path d="" fill="#808080" transform="translate(0,0)"/>
<path d="" fill="#808080" transform="translate(0,0)"/>
<path d="" fill="#FFFF00" transform="translate(0,0)"/>
<path d="" fill="#AAAA55" transform="translate(0,0)"/>
<path d="" fill="#808080" transform="translate(0,0)"/>
<path d="" fill="#808080" transform="translate(0,0)"/>
<path d="" fill="#808080" transform="translate(0,0)"/>
<path d="" fill="#808080" transform="translate(0,0)"/>
<path d="" fill="#AAAA55" transform="translate(0,0)"/>
<path d="" fill="#AAAA55" transform="translate(0,0)"/>
<path d="" fill="#808080" transform="translate(0,0)"/>
<path d="" fill="#AAAA55" transform="translate(0,0)"/>
<path d="" fill="#808080" transform="translate(0,0)"/>
<path d="" fill="#AAAA55" transform="translate(0,0)"/>
<path d="" fill="#808080" transform="translate(0,0)"/>
<path d="" fill="#AAAA55" transform="translate(0,0)"/>
<path d="" fill="#AAAA55" transform="translate(0,0)"/>
<path d="" fill="#808080" transform="translate(0,0)"/>
<path d="" fill="#AAAA55" transform="translate(0,0)"/>
<path d="" fill="#AAAA55" transform="translate(0,0)"/>
<path d="" fill="#AAAA55" transform="translate(0,0)"/>
<path d="" fill="#AAAA55" transform="translate(0,0)"/>
<path d="" fill="#AAAA55" transform="translate(0,0)"/>
<path d="" fill="#808080" transform="translate(0,0)"/>
<path d="" fill="#808080" transform="translate(0,0)"/>
<path d="" fill="#AAAA55" transform="translate(0,0)"/>
<path d="" fill="#808080" transform="translate(0,0)"/>
<path d="" fill="#808080" transform="translate(0,0)"/>
<path d="" fill="#FFFF00" transform="translate(0,0)"/>
<path d="" fill="#808080" transform="translate(0,0)"/>
<path d="" fill="#AAAA55" transform="translate(0,0)"/>
<path d="" fill="#808080" transform="translate(0,0)"/>
<path d="" fill="#FFFF00" transform="translate(0,0)"/>
<path d="" fill="#AAAA55" transform="translate(0,0)"/>
<path d="" fill="#FFFF00" transform="translate(0,0)"/>
<path d="" fill="#FFFF00" transform="translate(0,0)"/>
<path d="" fill="#808080" transform="translate(0,0)"/>
<path d="" fill="#FFFF00" transform="translate(0,0)"/>
<path d="" fill="#808080" transform="translate(0,0)"/>
<path d="" fill="#AAAA55" transform="translate(0,0)"/>
<path d="" fill="#AAAA55" transform="translate(0,0)"/>
<path d="" fill="#AAAA55" transform="translate(0,0)"/>
<path d="" fill="#AAAA55" transform="translate(0,0)"/>
<path d="" fill="#AAAA55" transform="translate(0,0)"/>
<path d="" fill="#808080" transform="translate(0,0)"/>
<path d="" fill="#AAAA55" transform="translate(0,0)"/>
<path d="" fill="#AAAA55" transform="translate(0,0)"/>
<path d="" fill="#808080" transform="translate(0,0)"/>
<path d="" fill="#AAAA55" transform="translate(0,0)"/>
<path d="" fill="#808080" transform="translate(0,0)"/>
</svg>
