<?xml version="1.0" encoding="UTF-8"?>
<!-- Generator: https://ezgif.com/png-to-svg -->
<svg version="1.1" xmlns="http://www.w3.org/2000/svg" width="512" height="512" viewBox="-19.105 -90.723 322.034 322.034" preserveAspectRatio="xMidYMid meet">
<path d="M0 0 C0.87 -0.02 1.75 -0.05 2.64 -0.07 C5.5 -0.14 8.36 -0.18 11.22 -0.21 C12.2 -0.22 13.18 -0.23 14.2 -0.25 C19.4 -0.32 24.59 -0.37 29.79 -0.39 C35.14 -0.43 40.49 -0.54 45.83 -0.68 C49.97 -0.77 54.1 -0.8 58.24 -0.81 C60.21 -0.82 62.18 -0.86 64.15 -0.93 C79.07 -1.38 79.07 -1.38 83.56 2.02 C86.64 5.26 88.81 8.9 90.83 12.87 C92.36 15.77 94.24 18.39 96.12 21.08 C97.47 23.11 98.81 25.14 100.16 27.18 C100.84 28.21 101.53 29.24 102.23 30.3 C103.53 32.25 104.82 34.2 106.11 36.16 C108 39 109.89 41.84 111.78 44.68 C118.29 36.04 124.25 27.06 130.22 18.06 C130.78 17.24 131.34 16.43 131.92 15.59 C133.85 12.72 133.85 12.72 135.19 9.57 C139.21 1.6 139.21 1.6 143.69 -0.01 C149.56 -1.11 155.52 -0.83 161.46 -0.67 C163.4 -0.66 165.34 -0.66 167.28 -0.66 C171.33 -0.64 175.38 -0.59 179.44 -0.5 C184.61 -0.4 189.78 -0.36 194.96 -0.36 C198.96 -0.35 202.95 -0.31 206.95 -0.27 C208.86 -0.24 210.77 -0.23 212.67 -0.22 C224.28 -0.13 232.73 0.46 242.33 7.56 C247.22 12.56 252.6 18.59 252.86 25.92 C252.85 26.72 252.84 27.52 252.83 28.35 C252.82 29.57 252.82 29.57 252.81 30.81 C252.8 31.42 252.79 32.04 252.78 32.68 C251.65 32.64 250.52 32.6 249.36 32.56 C238.65 32.21 227.95 31.98 217.24 31.88 C211.73 31.82 206.23 31.72 200.72 31.51 C177.58 29.41 177.58 29.41 156.25 35.9 C150.91 41.12 147.72 47.02 144.96 53.91 C143.27 57.89 140.88 61.18 138.28 64.61 C137.12 66.3 135.95 67.99 134.78 69.68 C137.8 75.21 141.24 80.23 144.97 85.3 C146.05 86.77 147.13 88.24 148.2 89.72 C148.8 90.48 149.39 91.25 150 92.03 C151.78 94.68 151.78 94.68 153.16 98.11 C155.13 102.33 156.68 105.32 160.78 107.68 C169.85 109.91 179.48 109.26 188.75 109.03 C192.25 108.96 195.75 108.96 199.25 108.96 C206.1 108.93 212.94 108.82 219.78 108.68 C219.78 102.08 219.78 95.48 219.78 88.68 C217.91 88.69 216.04 88.71 214.11 88.73 C207.91 88.77 201.71 88.78 195.5 88.75 C191.74 88.74 187.99 88.74 184.23 88.78 C180.6 88.82 176.97 88.82 173.34 88.78 C171.95 88.78 170.57 88.79 169.19 88.81 C158.38 89 158.38 89 154.44 85.73 C152.66 83.46 151.22 81.17 149.78 78.68 C148.77 77.42 147.75 76.17 146.72 74.93 C146.08 73.85 145.44 72.78 144.78 71.68 C145.47 69.36 145.47 69.36 146.78 66.68 C147.24 65.66 147.69 64.65 148.16 63.61 C150.82 58.77 152.78 55.31 158.22 53.6 C162.51 53.22 166.66 53.22 170.96 53.36 C172.54 53.38 174.12 53.38 175.7 53.39 C179 53.4 182.3 53.46 185.6 53.55 C189.8 53.66 194.01 53.71 198.21 53.73 C202.26 53.75 206.3 53.8 210.34 53.86 C211.1 53.87 211.86 53.88 212.64 53.89 C225.55 54.05 236.35 56.14 245.78 65.68 C252.86 75.45 253.06 83.78 253.13 95.44 C253.15 97.29 253.18 99.15 253.22 101 C253.46 113.11 253.16 121.52 245.68 131.48 C244.99 132.16 244.3 132.85 243.6 133.55 C242.92 134.25 242.25 134.95 241.55 135.67 C231.55 142.92 220.68 142.38 208.84 142.45 C206.9 142.47 204.96 142.49 203.02 142.52 C198.97 142.55 194.92 142.57 190.87 142.58 C185.69 142.6 180.52 142.68 175.34 142.79 C171.34 142.85 167.35 142.87 163.35 142.88 C161.44 142.89 159.53 142.91 157.62 142.96 C142.75 143.3 142.75 143.3 137.88 139.27 C135.83 136.49 134.28 133.79 132.78 130.68 C131.97 129.43 131.13 128.2 130.27 126.99 C129.55 125.9 128.84 124.8 128.1 123.68 C122.1 114.6 115.94 105.64 109.78 96.68 C103.96 104.9 98.38 113.26 92.83 121.67 C92.17 122.67 91.5 123.67 90.82 124.7 C89.94 126.03 89.94 126.03 89.05 127.38 C88.3 128.47 87.55 129.56 86.78 130.68 C86.34 131.59 85.9 132.51 85.44 133.45 C83.29 137.32 81.3 140.86 76.88 142.3 C71 143.32 65.05 143.06 59.1 142.93 C57.17 142.92 55.23 142.91 53.29 142.92 C49.24 142.9 45.19 142.86 41.13 142.78 C35.96 142.68 30.79 142.66 25.61 142.66 C21.61 142.65 17.61 142.62 13.61 142.58 C11.71 142.56 9.8 142.55 7.89 142.54 C-3.72 142.47 -12.16 141.9 -21.77 134.79 C-22.35 134.2 -22.93 133.6 -23.53 132.99 C-24.42 132.12 -24.42 132.12 -25.33 131.23 C-25.95 130.39 -26.58 129.54 -27.22 128.68 C-27.84 127.84 -27.84 127.84 -28.47 126.99 C-34.07 117.94 -32.94 107.52 -32.88 97.27 C-32.88 95.18 -32.89 93.09 -32.9 90.99 C-32.9 86.62 -32.89 82.25 -32.87 77.88 C-32.84 72.3 -32.86 66.72 -32.89 61.14 C-32.9 56.82 -32.9 52.51 -32.89 48.19 C-32.88 46.14 -32.89 44.08 -32.9 42.02 C-32.95 29.78 -32.73 20.9 -25.08 10.87 C-24.38 10.19 -23.68 9.51 -22.97 8.8 C-22.28 8.1 -21.59 7.4 -20.89 6.68 C-14.41 1.82 -8 0.08 0 0 Z M0.78 32.68 C-0.14 35.44 -0.33 37.06 -0.31 39.91 C-0.31 40.71 -0.31 41.51 -0.3 42.34 C-0.3 43.17 -0.29 44.01 -0.28 44.86 C-0.27 45.71 -0.27 46.55 -0.27 47.42 C-0.25 49.51 -0.24 51.59 -0.22 53.68 C3.27 54.84 6.37 54.8 10 54.76 C11.11 54.75 11.11 54.75 12.25 54.75 C16.61 54.73 20.98 54.65 25.34 54.56 C30.3 54.45 35.26 54.4 40.22 54.39 C42.28 54.37 44.33 54.33 46.39 54.27 C62.98 53.78 62.98 53.78 67.65 56.94 C71.08 60.31 73.28 64.09 74.78 68.68 C74.66 71.18 74.66 71.18 73.78 73.68 C73.41 74.76 73.03 75.84 72.65 76.96 C70.25 81.33 68.24 84.31 63.78 86.68 C53.95 88.94 43.46 88.26 33.43 88.03 C29.63 87.96 25.84 87.96 22.05 87.96 C14.62 87.93 7.2 87.82 -0.22 87.68 C-0.22 94.61 -0.22 101.54 -0.22 108.68 C6.39 111.98 17.05 110.3 24.3 110.35 C27.75 110.38 31.19 110.44 34.63 110.59 C49.64 111.71 49.64 111.71 63.34 106.89 C67.71 102.48 70.73 97.42 73.57 91.95 C75.11 89.07 76.99 86.57 79.03 84.02 C80.09 82.6 81.16 81.17 82.22 79.74 C82.79 79 83.35 78.26 83.93 77.5 C84.46 76.79 84.99 76.07 85.53 75.34 C85.99 74.72 86.45 74.11 86.93 73.48 C87.96 71.71 87.96 71.71 87.58 69.68 C86.71 67.49 85.67 65.84 84.26 63.95 C83.73 63.22 83.21 62.5 82.66 61.76 C82.1 61.01 81.55 60.26 80.97 59.49 C79.9 58.04 78.83 56.59 77.76 55.13 C77.13 54.33 76.5 53.53 75.85 52.7 C74.15 50.21 72.99 48.03 71.76 45.31 C69.21 40.21 66.65 35.83 61.78 32.68 C52.44 30.04 42.28 30.99 32.68 31.51 C29.08 31.68 25.48 31.76 21.88 31.85 C14.84 32.03 7.81 32.32 0.78 32.68 Z " fill="#F2F2F2" transform="translate(32.216552734375,-0.67626953125)"/>
</svg>
