<?xml version="1.0" encoding="UTF-8"?>
<!-- Generator: https://ezgif.com/png-to-svg -->
<svg version="1.1" xmlns="http://www.w3.org/2000/svg" width="512" height="512" viewBox="-7.044 -7.011 113.693 113.693" preserveAspectRatio="xMidYMid meet">
<path d="M0 0 C1.24 -0.01 2.49 -0.02 3.77 -0.03 C5.13 -0.02 6.48 -0.02 7.84 -0.01 C9.23 -0.01 10.63 -0.02 12.02 -0.02 C14.94 -0.02 17.86 -0.02 20.79 -0 C24.52 0.01 28.26 0 32 -0.01 C34.88 -0.02 37.76 -0.02 40.64 -0.01 C42.01 -0.01 43.39 -0.01 44.77 -0.02 C46.7 -0.03 48.63 -0.01 50.55 0 C51.65 0 52.75 0 53.88 0.01 C57.24 0.44 59.14 1.38 61.84 3.39 C62.49 5.33 62.49 5.33 62.51 7.51 C62.51 8.3 62.52 9.09 62.53 9.9 C62.5 11.13 62.5 11.13 62.47 12.39 C62.49 13.21 62.51 14.03 62.53 14.87 C62.52 15.66 62.51 16.45 62.51 17.26 C62.5 17.98 62.49 18.7 62.49 19.44 C61.84 21.39 61.84 21.39 59.91 23.11 C55.63 24.89 51.76 24.87 47.17 24.9 C45.78 24.93 45.78 24.93 44.36 24.95 C41.42 25.01 38.47 25.04 35.53 25.08 C33.53 25.11 31.53 25.14 29.53 25.18 C24.63 25.26 19.74 25.33 14.84 25.39 C14.15 27.25 14.15 27.25 13.84 29.39 C23.73 41.94 47.29 43.41 61.84 46.39 C61.84 46.72 61.84 47.05 61.84 47.39 C38.03 47.98 10.83 47.79 -8.4 31.49 C-11.24 26.49 -10.73 21.41 -10.66 15.76 C-10.67 14.62 -10.69 13.47 -10.7 12.29 C-10.7 11.2 -10.69 10.1 -10.69 8.97 C-10.68 7.97 -10.68 6.97 -10.68 5.94 C-10.16 3.39 -10.16 3.39 -8.51 1.75 C-5.5 0.01 -3.47 0.01 0 0 Z " fill="#FEFFFF" transform="translate(24.157958984375,52.61181640625)"/>
<path d="M0 0 C0 0.33 0 0.66 0 1 C-0.73 1.15 -1.47 1.3 -2.22 1.46 C-27.36 5.13 -27.36 5.13 -48 18 C-47.69 20.13 -47.69 20.13 -47 22 C-45.75 22.01 -44.51 22.03 -43.22 22.04 C-38.59 22.1 -33.96 22.18 -29.33 22.26 C-27.33 22.3 -25.32 22.32 -23.32 22.35 C-20.44 22.38 -17.56 22.43 -14.68 22.49 C-13.78 22.49 -12.89 22.5 -11.97 22.51 C-7.27 22.62 -3.67 22.73 0 26 C0.65 27.95 0.65 27.95 0.66 30.12 C0.67 30.91 0.68 31.7 0.68 32.52 C0.65 33.75 0.65 33.75 0.62 35 C0.64 35.82 0.66 36.64 0.68 37.48 C0.68 38.27 0.67 39.06 0.66 39.88 C0.66 40.59 0.65 41.31 0.65 42.05 C0 44 0 44 -2.15 45.6 C-5.43 47.21 -7.54 47.38 -11.18 47.39 C-12.4 47.4 -13.63 47.41 -14.89 47.42 C-16.21 47.41 -17.52 47.4 -18.88 47.4 C-20.25 47.4 -21.62 47.4 -22.99 47.41 C-25.86 47.41 -28.72 47.41 -31.59 47.39 C-35.26 47.37 -38.93 47.38 -42.6 47.4 C-45.43 47.41 -48.26 47.41 -51.09 47.4 C-53.09 47.4 -55.1 47.41 -57.11 47.42 C-58.95 47.4 -58.95 47.4 -60.82 47.39 C-61.9 47.39 -62.97 47.38 -64.08 47.38 C-67.42 46.94 -69.32 46.03 -72 44 C-72.65 41.46 -72.65 41.46 -72.66 38.45 C-72.67 37.36 -72.68 36.27 -72.68 35.14 C-72.66 34 -72.64 32.86 -72.62 31.69 C-72.64 30.56 -72.66 29.43 -72.68 28.27 C-72.63 19.02 -72.63 19.02 -69.86 15.43 C-60.84 7.75 -49.39 4.45 -38 2 C-37.02 1.77 -36.05 1.55 -35.04 1.32 C-23.55 -0.92 -11.65 -0.18 0 0 Z " fill="#FEFFFF" transform="translate(86,0)"/>
</svg>
