<?xml version="1.0" encoding="UTF-8"?>
<!-- Generator: https://ezgif.com/png-to-svg -->
<svg version="1.1" xmlns="http://www.w3.org/2000/svg" width="512" height="512" viewBox="-3.76 -6.252 107.524 107.524" preserveAspectRatio="xMidYMid meet">
<path d="M0 0 C1.78 0 1.78 0 3.6 0.01 C4.58 0.01 4.58 0.01 5.58 0.01 C7.75 0.01 9.92 0.01 12.09 0.02 C13.59 0.02 15.09 0.03 16.59 0.03 C20.55 0.03 24.51 0.04 28.46 0.05 C32.5 0.06 36.53 0.07 40.57 0.07 C48.49 0.08 56.41 0.1 64.34 0.12 C63.64 4.11 62.71 6.46 60.21 9.68 C59.65 10.43 59.09 11.17 58.52 11.94 C54.04 16.42 50.23 18.34 43.95 18.57 C41.87 18.57 39.79 18.55 37.72 18.51 C36.62 18.51 35.52 18.5 34.38 18.49 C30.89 18.47 27.39 18.42 23.9 18.37 C21.52 18.35 19.14 18.33 16.77 18.32 C10.96 18.27 5.15 18.2 -0.66 18.12 C-0.81 18.9 -0.96 19.69 -1.12 20.49 C-1.62 22.91 -2.29 24.87 -3.29 27.11 C-3.57 27.75 -3.86 28.38 -4.15 29.04 C-4.5 29.83 -4.86 30.62 -5.23 31.43 C-6.36 33.97 -7.5 36.51 -8.66 39.12 C-2.06 39.12 4.54 39.12 11.34 39.12 C10.34 44.12 10.34 44.12 8.17 46.42 C2.82 49.59 -4.06 48.53 -10.04 48.37 C-11.35 48.35 -12.66 48.33 -14 48.32 C-17.22 48.27 -20.44 48.2 -23.66 48.12 C-23.08 44.74 -22.24 41.83 -20.82 38.71 C-20.44 37.88 -20.07 37.04 -19.68 36.18 C-19.27 35.29 -18.86 34.4 -18.45 33.48 C-18.03 32.56 -17.61 31.63 -17.18 30.68 C-16.3 28.74 -15.41 26.8 -14.53 24.85 C-13.16 21.87 -11.81 18.88 -10.46 15.89 C-9.6 14.01 -8.74 12.12 -7.88 10.23 C-7.48 9.33 -7.07 8.43 -6.65 7.51 C-6.27 6.68 -5.89 5.86 -5.51 5.01 C-5.17 4.28 -4.84 3.55 -4.5 2.8 C-3.18 0.15 -3.12 0.14 0 0 Z " fill="#FEFFFF" transform="translate(33.66383361816406,13.879745483398438)"/>
<path d="M0 0 C0.5 0.99 0.5 0.99 1 2 C-1.94 9.55 -6.49 14.53 -13.62 18.44 C-16.48 19.11 -19.08 19.14 -22 19 C-23.24 15.42 -22.75 12.66 -22 9 C-26.1 8.07 -30.12 7.71 -34.31 7.44 C-35.57 7.35 -36.82 7.27 -38.11 7.18 C-39.54 7.09 -39.54 7.09 -41 7 C-40.34 5.02 -39.68 3.04 -39 1 C-34.57 0.86 -30.14 0.71 -25.71 0.57 C-24.21 0.52 -22.7 0.48 -21.2 0.43 C-19.03 0.36 -16.86 0.29 -14.68 0.22 C-12.73 0.16 -12.73 0.16 -10.73 0.09 C-7.15 0 -3.58 -0.02 0 0 Z " fill="#FFFFFF" transform="translate(76,39)"/>
<path d="M0 0 C11.22 0 22.44 0 34 0 C32.85 5.73 31.87 6.94 28 11 C24.58 12.14 21.97 12.11 18.36 12.1 C17.06 12.09 15.77 12.09 14.43 12.09 C13.06 12.08 11.68 12.07 10.31 12.06 C8.93 12.06 7.55 12.05 6.16 12.05 C2.77 12.04 -0.61 12.02 -4 12 C-3.3 7.41 -1.95 4.55 0 0 Z " fill="#FEFFFF" transform="translate(6,69)"/>
</svg>
