<?xml version="1.0" encoding="UTF-8"?>
<!-- Generator: https://ezgif.com/png-to-svg -->
<svg version="1.1" xmlns="http://www.w3.org/2000/svg" width="512" height="512" viewBox="-48.124 -21.326 385.493 385.493" preserveAspectRatio="xMidYMid meet">
<path d="M0 0 C1.26 0.04 2.52 0.08 3.81 0.12 C3.03 1.14 2.25 2.15 1.44 3.19 C-15.09 25.31 -29.84 50.01 -32.19 78.12 C-32.24 78.76 -32.29 79.39 -32.35 80.05 C-33.03 95.84 -27.69 110.65 -17.61 122.72 C-13.64 126.66 -6 134.12 -0.19 134.12 C-0.7 133.52 -1.2 132.91 -1.73 132.29 C-15.85 115.1 -22.6 96.48 -21.19 74.12 C-18.25 50.3 -5.48 27.73 13.46 12.83 C31.19 -0.53 31.19 -0.53 37.75 -0.12 C38.52 -0.09 39.29 -0.05 40.09 -0.02 C40.94 0.05 40.94 0.05 41.81 0.12 C40.51 2.8 39.11 5.34 37.53 7.86 C16.47 41.2 16.47 41.2 13.94 79.5 C15.51 85.86 18 90.83 21.81 96.12 C22.46 97.04 22.46 97.04 23.11 97.98 C27.83 104.06 35.49 110.68 42.81 113.12 C42.34 112.35 41.87 111.58 41.39 110.79 C39.65 107.9 37.93 105 36.24 102.08 C35.5 100.83 34.75 99.58 33.99 98.34 C27.79 88.17 27.79 88.17 27.84 83.64 C28.59 81.26 29.59 79.3 30.81 77.12 C31.64 75.29 32.45 73.45 33.27 71.6 C34.19 69.65 35.12 67.7 36.06 65.75 C36.55 64.73 37.04 63.71 37.55 62.66 C42.87 51.77 49.08 42.47 56.81 33.12 C57.42 32.31 58.04 31.49 58.67 30.65 C61.15 27.73 63.9 25.43 66.94 23.12 C67.51 22.69 68.09 22.25 68.68 21.8 C79.61 13.67 91.1 9.54 104.75 9.62 C106.23 9.63 106.23 9.63 107.74 9.63 C117.8 9.83 128.72 11.58 137.81 16.12 C139.85 16.35 141.89 16.58 143.93 16.77 C163.47 18.6 163.47 18.6 170.81 26.12 C174.37 32.13 174.96 36.99 174.88 43.88 C174.87 44.57 174.87 45.27 174.86 45.99 C174.85 47.7 174.83 49.41 174.81 51.12 C171.92 49.98 169.05 48.8 166.19 47.56 C158.89 44.88 151.27 44.06 143.95 47 C137.97 50.15 133.95 53.91 131.31 60.19 C128.08 70.7 128.8 81.34 133.81 91.12 C138.83 99.45 145.69 105.08 154.5 109 C155.23 109.33 155.95 109.67 156.7 110.01 C162.39 112.59 168.18 114.9 174 117.19 C204.92 129.43 204.92 129.43 212.94 144.12 C220.2 161.19 216.34 179.87 211.88 197.12 C211.5 198.59 211.5 198.59 211.11 200.09 C209.71 205.33 208.1 210.21 205.81 215.12 C205.15 215.12 204.49 215.12 203.81 215.12 C203.97 214.19 204.13 213.25 204.29 212.29 C206.67 195.5 205.65 178.95 195.84 164.68 C182.56 147.89 161.91 141.32 141.56 137.81 C140.57 137.64 139.57 137.47 138.55 137.29 C131.92 136.24 125.52 135.93 118.81 136.12 C119.98 136.47 121.14 136.81 122.34 137.16 C143.54 143.51 161.6 151.65 177.81 167.12 C178.44 167.68 179.06 168.23 179.71 168.79 C189.5 177.74 197.06 191.87 197.95 205.25 C198.86 227.99 193.1 246.7 178.54 264.44 C176.81 266.12 176.81 266.12 173.81 267.12 C174.12 265.91 174.43 264.69 174.75 263.44 C178.72 245.16 176.12 228.03 166.25 212.06 C164.51 209.39 162.87 207.18 160.6 204.94 C158.81 203.12 158.81 203.12 158.81 201.12 C157.94 200.73 157.94 200.73 157.06 200.33 C154.7 199.06 152.91 197.61 150.88 195.88 C143.33 189.89 132.6 184.12 122.81 184.12 C123.43 184.66 124.05 185.19 124.68 185.74 C143.73 202.5 156.33 222.13 158.06 247.84 C158.44 269.35 151.06 286.76 136.5 302.55 C120.42 319.13 99.22 329.89 78.81 340.12 C78.2 340.46 77.58 340.8 76.95 341.15 C72.04 343.64 68 343.45 62.81 342.12 C59.55 340.9 56.51 339.38 53.44 337.75 C52.57 337.3 51.71 336.86 50.82 336.4 C-33.82 292.22 -33.82 292.22 -45.19 258.12 C-41.68 258.76 -39.42 260.18 -36.5 262.19 C-20.54 272.49 -2.86 277.66 15.18 283.12 C33.04 288.56 49.07 294.38 63.81 306.12 C63.34 297.54 60.33 291.27 54.19 285.19 C42.64 275.61 27.71 270.13 14.1 264.23 C-19.57 249.57 -47.34 229.29 -61.19 194.12 C-63.51 187.88 -65.45 181.55 -67.19 175.12 C-67.53 173.89 -67.87 172.66 -68.22 171.39 C-71.33 157.92 -70.46 143.86 -70.19 130.12 C-68.47 132.7 -67.44 134.78 -66.34 137.63 C-59.7 154.47 -52.72 170.05 -41.19 184.12 C-40.64 184.84 -40.09 185.55 -39.52 186.29 C-21.21 208.97 8.47 214.54 35.48 219.95 C52.62 223.43 68.31 228.62 81.81 240.12 C82.49 240.69 83.16 241.25 83.85 241.83 C86.26 243.86 88.59 245.9 90.81 248.12 C85.02 232.58 76.14 220.05 61 212.56 C50.94 208.25 40.05 206.06 29.4 203.69 C-2.16 196.66 -30.57 185.81 -49.05 157.58 C-55.06 148.06 -59.45 138.06 -62.19 127.12 C-62.41 126.25 -62.64 125.38 -62.87 124.49 C-68.95 95.78 -61.72 64.93 -45.97 40.58 C-37.87 28.52 -16.79 -0.55 0 0 Z M108.81 134.12 C112.81 135.12 112.81 135.12 112.81 135.12 Z " fill="#00BD6D" transform="translate(70.1875,-0.125)"/>
</svg>
