<?xml version="1.0" encoding="UTF-8"?>
<!-- Generator: https://ezgif.com/png-to-svg -->
<svg version="1.1" xmlns="http://www.w3.org/2000/svg" width="512" height="512" viewBox="91.875 226.378 898.24 898.24" preserveAspectRatio="xMidYMid meet">
<path d="M0 0 C1.72 -0 1.72 -0 3.48 -0.01 C5.39 -0 5.39 -0 7.34 0 C8.71 0 10.07 -0 11.43 -0 C15.21 -0.01 18.98 -0 22.76 0 C26.86 0.01 30.95 0 35.05 0 C42.24 -0 49.43 0 56.62 0 C67.31 0.01 78 0.01 88.69 0.01 C106.67 0.01 124.65 0.01 142.63 0.02 C160.44 0.02 178.25 0.03 196.07 0.03 C197.73 0.03 197.73 0.03 199.42 0.03 C205.04 0.03 210.65 0.03 216.27 0.03 C256.09 0.03 295.91 0.04 335.73 0.05 C374.42 0.06 413.11 0.07 451.8 0.07 C452.99 0.07 454.19 0.07 455.41 0.07 C467.38 0.07 479.35 0.07 491.32 0.07 C515.71 0.08 540.1 0.08 564.48 0.08 C565.6 0.08 566.73 0.08 567.88 0.08 C642.8 0.09 717.72 0.11 792.63 0.12 C793.29 1.44 793.95 2.76 794.63 4.12 C791.28 8.37 787.86 11.69 783.63 15.12 C781.95 16.78 780.29 18.45 778.63 20.12 C777.52 21.25 776.4 22.37 775.28 23.49 C773.98 24.79 772.69 26.08 771.4 27.38 C764.19 34.6 756.98 41.82 749.77 49.04 C745.41 53.4 741.06 57.77 736.7 62.13 C732.48 66.36 728.26 70.59 724.04 74.81 C722.43 76.43 720.82 78.04 719.21 79.65 C716.97 81.9 714.73 84.14 712.48 86.39 C711.82 87.06 711.15 87.73 710.46 88.42 C709.85 89.03 709.24 89.64 708.61 90.27 C708.08 90.8 707.55 91.33 707.01 91.88 C704.54 94.12 702.76 94.25 699.53 94.25 C698.67 94.25 697.8 94.25 696.91 94.25 C695.96 94.25 695 94.25 694.02 94.24 C693.01 94.25 692 94.25 690.96 94.25 C687.55 94.25 684.14 94.24 680.73 94.24 C678.3 94.24 675.87 94.24 673.43 94.24 C668.18 94.24 662.93 94.24 657.68 94.23 C650.09 94.22 642.5 94.22 634.9 94.22 C622.59 94.22 610.27 94.21 597.95 94.2 C585.99 94.19 574.02 94.18 562.05 94.18 C561.31 94.18 560.57 94.18 559.8 94.18 C553.32 94.18 546.84 94.17 540.36 94.17 C512.45 94.16 484.54 94.14 456.63 94.12 C456.96 152.2 457.29 210.28 457.63 270.12 C547.39 270.12 637.15 270.12 729.63 270.12 C729.96 271.11 730.29 272.1 730.63 273.12 C729.31 275.13 729.31 275.13 727.38 277.25 C726.76 277.95 726.14 278.66 725.49 279.38 C723.63 281.12 723.63 281.12 720.63 282.12 C719.93 283.44 719.27 284.78 718.63 286.12 C717.13 287.87 717.13 287.87 715.63 289.12 C714.97 289.12 714.31 289.12 713.63 289.12 C713.3 290.11 712.97 291.1 712.63 292.12 C710.7 294.31 710.7 294.31 708.63 296.12 C707.97 296.12 707.31 296.12 706.63 296.12 C706.24 297.01 706.24 297.01 705.84 297.9 C704.57 300.24 703.24 301.77 701.37 303.64 C700.7 304.31 700.02 304.99 699.33 305.69 C698.22 306.79 698.22 306.79 697.1 307.91 C695.93 309.08 695.93 309.08 694.74 310.27 C692.17 312.84 689.59 315.41 687.01 317.98 C685.22 319.76 683.44 321.55 681.65 323.34 C677.91 327.08 674.16 330.82 670.41 334.55 C666.08 338.87 661.75 343.2 657.42 347.53 C653.26 351.69 649.09 355.85 644.92 360.01 C643.15 361.78 641.37 363.55 639.6 365.33 C637.13 367.8 634.65 370.26 632.17 372.73 C631.07 373.84 631.07 373.84 629.94 374.97 C629.27 375.64 628.59 376.3 627.9 376.99 C627.31 377.58 626.73 378.16 626.12 378.76 C623.47 381.18 621.64 381.24 618.16 381.2 C617.22 381.19 616.28 381.19 615.31 381.18 C614.27 381.17 613.23 381.15 612.17 381.14 C609.91 381.12 607.65 381.1 605.39 381.08 C604.18 381.07 602.98 381.06 601.74 381.05 C594.7 380.99 587.66 380.99 580.62 380.98 C573.17 380.97 565.73 380.94 558.29 380.85 C551.74 380.77 545.19 380.75 538.63 380.77 C536.14 380.77 533.66 380.75 531.17 380.7 C514.41 380.13 514.41 380.13 500.27 387.98 C498.29 389.96 496.48 392.01 494.63 394.12 C493.21 395.4 491.78 396.65 490.3 397.86 C489.14 398.86 487.98 399.87 486.82 400.87 C486.2 401.41 485.58 401.95 484.94 402.5 C480.66 406.21 476.44 409.98 472.27 413.83 C470.63 415.12 470.63 415.12 468.63 415.12 C468.63 415.78 468.63 416.44 468.63 417.12 C466.83 418.72 466.83 418.72 464.32 420.62 C460.46 423.63 456.79 426.74 453.2 430.06 C449.62 433.36 445.99 436.51 442.2 439.56 C437.66 443.22 433.38 447.07 429.12 451.04 C425.03 454.82 420.75 458.32 416.42 461.81 C413.39 464.32 410.51 466.95 407.63 469.62 C403.03 473.91 398.27 477.92 393.37 481.87 C389.51 485.05 385.84 488.43 382.15 491.82 C373.09 500.12 373.09 500.12 370.63 500.12 C370.63 500.78 370.63 501.44 370.63 502.12 C368.83 503.72 368.83 503.72 366.32 505.62 C361.41 509.45 356.82 513.52 352.24 517.73 C349.34 520.4 346.4 523.01 343.41 525.58 C342.24 526.6 341.09 527.64 339.95 528.7 C338.38 530.12 338.38 530.12 335.63 532.12 C334.31 531.79 332.99 531.46 331.63 531.12 C331.3 440.04 330.97 348.96 330.63 255.12 C289.38 254.79 248.13 254.46 205.63 254.12 C202.56 251.05 199.62 248.06 196.76 244.81 C195.72 243.63 195.72 243.63 194.66 242.43 C193.99 241.67 193.32 240.91 192.63 240.12 C192.08 239.5 191.52 238.87 190.95 238.22 C183.8 230.11 176.82 221.84 170.01 213.44 C167.14 209.91 164.2 206.49 161.13 203.12 C157.27 198.88 153.63 194.5 150.02 190.05 C144.16 182.87 138.19 175.79 131.95 168.94 C128.92 165.59 125.96 162.21 123.07 158.75 C122.41 157.96 121.75 157.17 121.07 156.35 C119.63 154.12 119.63 154.12 119.63 150.12 C189.59 150.12 259.55 150.12 331.63 150.12 C331.14 122.9 331.14 122.9 330.63 95.12 C322.75 95.12 314.87 95.12 306.76 95.11 C281.55 95.1 256.35 95.05 231.14 95 C227.23 94.99 223.31 94.98 219.4 94.97 C218.62 94.97 217.84 94.97 217.04 94.97 C204.41 94.94 191.79 94.93 179.17 94.93 C166.22 94.93 153.27 94.9 140.32 94.86 C132.33 94.84 124.34 94.83 116.35 94.84 C110.22 94.85 104.1 94.83 97.97 94.8 C95.46 94.79 92.94 94.79 90.43 94.8 C87 94.81 83.57 94.79 80.14 94.76 C79.14 94.77 78.14 94.78 77.11 94.8 C72.46 94.73 70.35 94.69 66.62 91.73 C65.96 90.87 65.31 90.01 64.63 89.12 C63.9 88.34 63.16 87.55 62.4 86.74 C61.71 85.98 61.03 85.22 60.32 84.44 C59.28 83.29 59.28 83.29 58.21 82.11 C56.63 80.12 56.63 80.12 56.63 78.12 C55.97 78.12 55.31 78.12 54.63 78.12 C53.15 76.46 53.15 76.46 51.32 74.06 C47.82 69.57 44.19 65.23 40.45 60.94 C39.9 60.3 39.34 59.67 38.78 59.02 C37.06 57.05 35.35 55.09 33.63 53.12 C26.97 45.48 20.34 37.83 13.95 29.94 C11.18 26.57 8.35 23.25 5.51 19.94 C5 19.34 4.49 18.74 3.96 18.13 C0.64 14.26 -2.74 10.47 -6.26 6.77 C-7.37 5.12 -7.37 5.12 -7.37 1.12 C-4.77 -0.17 -2.91 -0 0 0 Z " fill="#E3002B" transform="translate(147.36519634723663,485.8758015036583)"/>
<path d="M0 0 C1.32 0.33 2.64 0.66 4 1 C4.94 2.73 4.94 2.73 5.55 4.97 C5.79 5.79 6.03 6.6 6.28 7.44 C6.63 8.71 6.63 8.71 7 10 C7.52 11.58 8.04 13.17 8.57 14.75 C9.36 17.12 10.14 19.49 10.93 21.87 C11.18 22.63 11.43 23.4 11.7 24.18 C12.04 25.21 12.04 25.21 12.38 26.26 C12.99 28.08 12.99 28.08 14 30 C23.9 30 33.8 30 44 30 C44.5 31.98 44.5 31.98 45 34 C44.08 34.65 43.16 35.3 42.22 35.98 C40.98 36.86 39.74 37.74 38.5 38.62 C37.86 39.08 37.22 39.53 36.57 40 C32.46 42.93 28.42 45.92 24.45 49.04 C23 50 23 50 21 50 C22.51 57.28 24.6 64.21 26.96 71.25 C28.28 75.27 29.4 78.71 29 83 C25.5 82.37 23.25 80.98 20.38 78.91 C19.5 78.29 18.63 77.67 17.73 77.03 C16.38 76.06 16.38 76.06 15 75.06 C13.21 73.78 11.42 72.5 9.62 71.22 C8.83 70.65 8.04 70.08 7.23 69.5 C5.2 68.14 3.21 67.03 1 66 C0.23 66.56 0.23 66.56 -0.56 67.13 C-2.91 68.84 -5.27 70.54 -7.62 72.25 C-8.43 72.84 -9.24 73.42 -10.07 74.03 C-11.66 75.17 -13.24 76.31 -14.83 77.45 C-16.17 78.4 -17.5 79.37 -18.82 80.35 C-20.4 81.48 -20.4 81.48 -23 83 C-24.49 82.5 -24.49 82.5 -26 82 C-25.37 78.51 -24.48 75.23 -23.34 71.88 C-22.86 70.44 -22.86 70.44 -22.38 68.98 C-21.71 66.99 -21.03 65 -20.35 63.02 C-19.88 61.58 -19.88 61.58 -19.4 60.12 C-19.11 59.26 -18.81 58.4 -18.51 57.51 C-17.91 54.57 -18.01 52.83 -19 50 C-20.68 48.2 -20.68 48.2 -22.89 46.77 C-23.69 46.22 -24.48 45.66 -25.29 45.09 C-26.12 44.52 -26.96 43.96 -27.81 43.38 C-29.04 42.52 -29.04 42.52 -30.3 41.64 C-31.83 40.57 -33.37 39.51 -34.91 38.45 C-36.98 37.02 -38.99 35.52 -41 34 C-40.67 32.68 -40.34 31.36 -40 30 C-30.1 30 -20.2 30 -10 30 C-6.7 20.1 -3.4 10.2 0 0 Z " fill="#FDFDFD" transform="translate(267,333)"/>
<path d="M0 0 C1.9 0.25 1.9 0.25 4 1 C4.94 2.71 4.94 2.71 5.55 4.94 C5.79 5.75 6.03 6.56 6.28 7.4 C6.63 8.69 6.63 8.69 7 10 C7.52 11.67 8.04 13.33 8.57 15 C9.36 17.53 10.14 20.06 10.93 22.6 C11.18 23.41 11.43 24.22 11.7 25.06 C12.04 26.16 12.04 26.16 12.38 27.29 C12.86 29.01 12.86 29.01 14 30 C16.22 30.09 18.44 30.11 20.66 30.1 C21.32 30.1 21.99 30.09 22.67 30.09 C24.8 30.09 26.93 30.08 29.06 30.06 C30.5 30.06 31.94 30.05 33.38 30.05 C36.92 30.04 40.46 30.02 44 30 C44.5 31.98 44.5 31.98 45 34 C37.03 39.71 29.05 45.4 21 51 C21.63 54.49 22.52 57.77 23.66 61.12 C24.14 62.56 24.14 62.56 24.62 64.02 C25.29 66.01 25.97 68 26.65 69.98 C26.96 70.94 27.28 71.89 27.6 72.88 C27.89 73.74 28.19 74.6 28.49 75.49 C29.07 78.32 28.74 80.24 28 83 C23.8 81.56 20.75 79.47 17.25 76.75 C12.29 72.95 7.25 69.38 2 66 C-4.9 70.18 -11.37 74.66 -17.58 79.8 C-20.77 82.36 -21.74 83 -26 83 C-25.27 77.04 -23.35 71.5 -21.5 65.81 C-21.18 64.82 -20.86 63.82 -20.53 62.79 C-19.37 59.19 -18.2 55.59 -17 52 C-25.28 45.6 -33.61 39.26 -42 33 C-41.34 32.01 -40.68 31.02 -40 30 C-36.93 29.66 -36.93 29.66 -33.02 29.71 C-32.34 29.71 -31.65 29.72 -30.95 29.72 C-28.76 29.74 -26.57 29.77 -24.38 29.81 C-22.89 29.83 -21.41 29.84 -19.92 29.85 C-16.28 29.89 -12.64 29.94 -9 30 C-8.88 29.44 -8.77 28.88 -8.65 28.3 C-7.56 23.17 -6.2 18.28 -4.5 13.31 C-4.08 12.07 -3.65 10.83 -3.22 9.55 C-2.82 8.38 -2.41 7.21 -2 6 C-1.33 4 -0.66 2 0 0 Z " fill="#FDFDFD" transform="translate(673,333)"/>
<path d="M0 0 C1.92 0.03 1.92 0.03 4 1 C5.28 3.78 5.28 3.78 6.36 7.44 C6.71 8.62 7.07 9.79 7.44 11 C8.09 13.26 8.09 13.26 8.75 15.56 C10.15 20.33 11.55 25.09 13 30 C23.23 30 33.46 30 44 30 C44 31.32 44 32.64 44 34 C42.07 35.8 40.25 37.29 38.12 38.81 C37.54 39.25 36.96 39.68 36.35 40.13 C34.58 41.43 32.79 42.72 31 44 C29.98 44.73 28.96 45.46 27.91 46.21 C25.62 47.82 23.32 49.42 21 51 C21.8 57.77 24.31 64 26.56 70.39 C26.87 71.29 27.18 72.2 27.5 73.13 C27.79 73.94 28.08 74.76 28.37 75.6 C29.04 78.16 29.11 80.37 29 83 C23.58 82.63 20.21 79.42 16.12 76.19 C11.25 72.36 6.46 68.95 1 66 C-0.38 66.96 -1.75 67.92 -3.12 68.88 C-4.48 69.82 -4.48 69.82 -5.86 70.78 C-8.15 72.4 -10.42 74.03 -12.68 75.69 C-13.61 76.37 -13.61 76.37 -14.56 77.07 C-15.8 77.97 -17.04 78.88 -18.26 79.8 C-22.66 83 -22.66 83 -26 83 C-25.28 75.59 -22.76 68.84 -20.35 61.83 C-20.04 60.88 -19.72 59.93 -19.4 58.96 C-19.11 58.1 -18.81 57.24 -18.51 56.36 C-17.96 53.79 -18.02 52.42 -19 50 C-20.98 48.72 -20.98 48.72 -23 48 C-23 47.34 -23 46.68 -23 46 C-23.67 45.78 -24.35 45.57 -25.04 45.34 C-28.93 43.58 -31.99 41.15 -35.31 38.5 C-35.96 38 -36.6 37.5 -37.27 36.99 C-38.89 35.71 -40.45 34.36 -42 33 C-42 32.34 -42 31.68 -42 31 C-38.52 29.84 -35.81 29.89 -32.14 29.9 C-31.15 29.9 -31.15 29.9 -30.14 29.91 C-28.03 29.91 -25.92 29.92 -23.81 29.94 C-22.38 29.94 -20.95 29.95 -19.52 29.95 C-16.01 29.96 -12.51 29.98 -9 30 C-8.87 28.96 -8.74 27.92 -8.6 26.84 C-8.09 23.58 -7.41 20.67 -6.41 17.54 C-6.1 16.57 -5.79 15.61 -5.47 14.61 C-4.99 13.13 -4.99 13.13 -4.5 11.62 C-4.18 10.62 -3.86 9.61 -3.53 8.57 C-1.14 1.14 -1.14 1.14 0 0 Z " fill="#FDFDFD" transform="translate(538,333)"/>
<path d="M0 0 C1.85 0.11 1.85 0.11 4 1 C5.26 3.67 5.26 3.67 6.32 7.19 C6.71 8.44 7.1 9.7 7.5 10.99 C7.9 12.33 8.29 13.66 8.69 15 C9.48 17.61 10.28 20.21 11.07 22.81 C11.42 23.97 11.77 25.14 12.12 26.33 C12.74 28.89 12.74 28.89 14 30 C16.22 30.09 18.44 30.11 20.66 30.1 C21.32 30.1 21.99 30.09 22.67 30.09 C24.8 30.09 26.93 30.08 29.06 30.06 C30.5 30.06 31.94 30.05 33.38 30.05 C36.92 30.04 40.46 30.02 44 30 C44.5 31.98 44.5 31.98 45 34 C44.41 34.41 43.81 34.82 43.2 35.25 C37.53 39.2 31.92 43.22 26.35 47.3 C24.59 48.57 22.8 49.8 21 51 C21.66 54.69 22.65 58.1 23.88 61.63 C24.25 62.69 24.61 63.74 24.98 64.82 C25.75 67.03 26.52 69.24 27.29 71.45 C27.83 73.03 27.83 73.03 28.38 74.63 C28.88 76.07 28.88 76.07 29.4 77.54 C30 80 30 80 29 83 C24.71 82.44 21.68 79.82 18.31 77.31 C17.07 76.4 15.82 75.5 14.57 74.59 C13.66 73.93 13.66 73.93 12.74 73.25 C9.23 70.73 5.62 68.36 2 66 C-4.9 70.18 -11.37 74.66 -17.58 79.8 C-20.77 82.36 -21.74 83 -26 83 C-24.83 75.62 -22.69 68.93 -20.03 61.98 C-17.9 56.62 -17.9 56.62 -18 51 C-20.23 48.72 -20.23 48.72 -23.25 46.75 C-24.34 45.98 -25.44 45.2 -26.53 44.43 C-27.38 43.83 -27.38 43.83 -28.25 43.23 C-31.14 41.2 -33.94 39.06 -36.75 36.94 C-37.76 36.18 -38.76 35.43 -39.8 34.65 C-40.52 34.11 -41.25 33.56 -42 33 C-41.67 32.34 -41.34 31.68 -41 31 C-25.65 30.5 -25.65 30.5 -10 30 C-8.91 26.72 -7.81 23.44 -6.69 20.06 C-4.46 13.38 -2.23 6.69 0 0 Z " fill="#FDFDFD" transform="translate(809,333)"/>
<path d="M0 0 C2.51 0.97 3.74 1.48 4.96 3.94 C5.27 5.1 5.27 5.1 5.6 6.29 C5.96 7.58 5.96 7.58 6.34 8.89 C6.58 9.8 6.82 10.7 7.06 11.62 C7.55 13.39 8.04 15.15 8.54 16.91 C8.75 17.7 8.96 18.48 9.17 19.29 C10.28 22.91 11.67 26.45 13 30 C23.23 30 33.46 30 44 30 C44 34 44 34 42.43 35.58 C41.34 36.33 41.34 36.33 40.24 37.09 C39.05 37.93 39.05 37.93 37.85 38.78 C37.01 39.35 36.17 39.91 35.31 40.5 C32.91 42.18 30.5 43.85 28.1 45.54 C26.39 46.73 24.63 47.86 22.86 48.97 C20.66 50.92 20.66 50.92 20.96 54.08 C22.31 60.04 24.58 65.79 26.65 71.53 C26.96 72.43 27.28 73.33 27.6 74.26 C27.89 75.08 28.19 75.89 28.49 76.73 C29.05 79.22 28.82 80.61 28 83 C24.66 82.38 22.54 81.17 19.81 79.16 C18.64 78.31 18.64 78.31 17.45 77.44 C16.64 76.84 15.83 76.24 15 75.62 C14.19 75.03 13.39 74.44 12.55 73.84 C6.43 69.34 6.43 69.34 3.88 67.28 C3.26 66.86 2.64 66.43 2 66 C-4.04 67.17 -9.37 72.7 -14.04 76.43 C-15.11 77.27 -16.18 78.1 -17.25 78.94 C-18.25 79.73 -19.24 80.52 -20.27 81.34 C-23 83 -23 83 -25.17 82.6 C-25.77 82.4 -26.38 82.21 -27 82 C-24.92 74.91 -22.67 67.88 -20.31 60.88 C-19.99 59.92 -19.67 58.96 -19.34 57.98 C-18.56 55.65 -17.78 53.33 -17 51 C-17.59 50.71 -18.19 50.43 -18.8 50.13 C-21.95 48.51 -24.83 46.51 -27.75 44.5 C-28.35 44.1 -28.95 43.69 -29.57 43.28 C-31.09 42.24 -32.55 41.12 -34 40 C-34 39.34 -34 38.68 -34 38 C-34.58 37.9 -35.15 37.79 -35.75 37.69 C-38.38 36.88 -39.99 35.87 -42 34 C-42 33.01 -42 32.02 -42 31 C-26.65 30.5 -26.65 30.5 -11 30 C-8.51 23.36 -8.51 23.36 -6.21 16.66 C-5.91 15.74 -5.61 14.83 -5.3 13.88 C-4.67 11.97 -4.05 10.07 -3.43 8.16 C-3.13 7.25 -2.83 6.35 -2.52 5.41 C-2.25 4.59 -1.99 3.76 -1.71 2.91 C-1 1 -1 1 0 0 Z " fill="#FDFDFD" transform="translate(403,333)"/>
<path d="" fill="#FF0000" transform="translate(0,0)"/>
<path d="" fill="#FF0000" transform="translate(0,0)"/>
<path d="" fill="#FF0000" transform="translate(0,0)"/>
</svg>
