<?xml version="1.0" encoding="UTF-8"?>
<svg version="1.1" xmlns="http://www.w3.org/2000/svg" width="50" height="50">
<path d="M0 0 C8.91 0 17.82 0 27 0 C25.02 2.31 23.04 4.62 21 7 C20.55709077 11.00346023 20.55709077 11.00346023 23 13.25 C23.66 13.8275 24.32 14.405 25 15 C23.60840337 18.47899158 22.36748512 19.48052501 19 21 C15.82530062 17.88307091 12.66164608 14.75516454 9.5 11.625 C8.59378906 10.73554688 7.68757813 9.84609375 6.75390625 8.9296875 C5.46806641 7.65351563 5.46806641 7.65351563 4.15625 6.3515625 C3.36025391 5.56604004 2.56425781 4.78051758 1.74414062 3.97119141 C0 2 0 2 0 0 Z " fill="#316279" transform="translate(9,19)"/>
<path d="M0 0 C4.44729077 -0.14898157 8.89323843 -0.25750548 13.34228516 -0.32958984 C14.8536104 -0.35965471 16.36476271 -0.40052013 17.87548828 -0.45263672 C30.40236721 -0.87377767 30.40236721 -0.87377767 34.36230469 1.29199219 C36.0234375 2.8984375 36.0234375 2.8984375 38 6 C38 6.66 38 7.32 38 8 C33.55270923 8.14898157 29.10676157 8.25750548 24.65771484 8.32958984 C23.1463896 8.35965471 21.63523729 8.40052013 20.12451172 8.45263672 C7.59763279 8.87377767 7.59763279 8.87377767 3.63769531 6.70800781 C1.9765625 5.1015625 1.9765625 5.1015625 0 2 C0 1.34 0 0.68 0 0 Z " fill="#F47015" transform="translate(0,10)"/>
<path d="M0 0 C9.97594419 -0.61919654 9.97594419 -0.61919654 13.6875 1.625 C15.45003228 4.81434413 15.53935466 6.37553672 15 10 C13.12726574 12.60830453 10.85831886 14.70789618 8.5 16.875 C7.87996094 17.46796875 7.25992188 18.0609375 6.62109375 18.671875 C5.09393227 20.12855211 3.54866657 21.56620705 2 23 C-1.78496138 21.48601545 -2.0072198 20.9855604 -4 17 C-1.03 14.03 1.94 11.06 5 8 C3.47524303 4.95048605 2.07114674 2.63600494 0 0 Z " fill="#F47115" transform="translate(35,10)"/>
</svg>
