<?xml version="1.0" encoding="UTF-8"?>
<svg version="1.1" xmlns="http://www.w3.org/2000/svg" width="100" height="100">
<path d="M0 0 C1.2375 -0.020625 2.475 -0.04125 3.75 -0.0625 C4.44609375 -0.07410156 5.1421875 -0.08570312 5.859375 -0.09765625 C8.03292403 0.00150201 9.91306537 0.40306149 12 1 C9.52183405 22.45569994 6.24387774 48.82953441 -11 64 C-21.4910672 71.57594029 -31.74724586 73.44228346 -44.5546875 71.640625 C-52.50343886 69.54735952 -58.83522559 63.43817113 -63.125 56.625 C-64.65362265 50.29213472 -65.23444729 44.51461486 -62.3125 38.5625 C-55.47607857 30.98700599 -47.73328877 29.04999347 -37.67578125 28.48828125 C-35.55509269 28.4165041 -33.4339157 28.35796819 -31.3125 28.3125 C-30.21744141 28.27833984 -29.12238281 28.24417969 -27.99414062 28.20898438 C-25.32976117 28.12754046 -22.66490109 28.062074 -20 28 C-20 31.96 -20 35.92 -20 40 C-22.45953125 40.18175781 -22.45953125 40.18175781 -24.96875 40.3671875 C-27.14586106 40.53610129 -29.3229429 40.70539206 -31.5 40.875 C-32.57765625 40.95363281 -33.6553125 41.03226563 -34.765625 41.11328125 C-40.72663252 41.58580014 -46.25203386 42.33978648 -52 44 C-51.53629326 48.72980877 -51.02063186 52.25025011 -48 56 C-42.4574192 60.22986429 -35.63604593 59.69308043 -29 59 C-21.78049684 57.27383308 -16.99265106 53.15213781 -13 47 C-5.22619006 32.4801675 -2.84859849 16.03415664 0 0 Z " fill="#1DFEE7" transform="translate(82,27)"/>
<path d="M0 0 C1.1875 3.5625 1.1875 3.5625 2 7 C2.66 7 3.32 7 4 7 C4.12375 6.236875 4.2475 5.47375 4.375 4.6875 C5 2 5 2 7 -1 C8.46067199 -0.54917531 9.91848032 -0.08906463 11.375 0.375 C12.18710938 0.63023438 12.99921875 0.88546875 13.8359375 1.1484375 C16 2 16 2 18 4 C17.48308594 5.14597656 16.96617188 6.29195312 16.43359375 7.47265625 C15.76734276 9.00221837 15.10202742 10.53218828 14.4375 12.0625 C14.09525391 12.81466797 13.75300781 13.56683594 13.40039062 14.34179688 C10.76176343 20.49859367 10.65407427 24.62856638 13.19140625 30.984375 C13.64386719 31.89703125 14.09632812 32.8096875 14.5625 33.75 C17 38.69405099 17 38.69405099 17 42 C15.73308493 42.67408308 14.46129251 43.33900497 13.1875 44 C12.47980469 44.37125 11.77210937 44.7425 11.04296875 45.125 C9 46 9 46 6 46 C5.01 44.02 4.02 42.04 3 40 C2.01 41.98 1.02 43.96 0 46 C-1.6498275 45.57781184 -3.29483665 45.13675575 -4.9375 44.6875 C-5.85402344 44.44386719 -6.77054688 44.20023438 -7.71484375 43.94921875 C-8.46894531 43.63597656 -9.22304688 43.32273438 -10 43 C-10.495 41.515 -10.495 41.515 -11 40 C-10.08230498 38.19178544 -9.15797265 36.38646145 -8.19165039 34.60375977 C-4.6632237 27.8787136 -4.6632237 27.8787136 -4.44921875 20.47363281 C-6.12405573 15.56848242 -8.49999111 11.05189267 -11.15454102 6.60961914 C-12 5 -12 5 -12 3 C-10.5682384 2.30062798 -9.12932968 1.61587282 -7.6875 0.9375 C-6.48673828 0.36322266 -6.48673828 0.36322266 -5.26171875 -0.22265625 C-3 -1 -3 -1 0 0 Z " fill="#1DFEE7" transform="translate(56,2)"/>
<path d="M0 0 C1.02633611 4.90906037 2.04123701 9.82029471 3.0456543 14.73388672 C3.38887968 16.40477987 3.73521059 18.07503824 4.0847168 19.74462891 C4.58681721 22.14585448 5.07767171 24.54914813 5.56640625 26.953125 C5.72468399 27.69806213 5.88296173 28.44299927 6.04603577 29.21051025 C6.80826633 33.01796785 6.96216969 35.15132123 6 39 C0.555 39.495 0.555 39.495 -5 40 C-6.00059979 35.07113362 -6.99741459 30.1415227 -7.99072266 25.21118164 C-8.32919948 23.53388782 -8.66871141 21.85680253 -9.00927734 20.17993164 C-9.49849075 17.7702347 -9.98398225 15.35981344 -10.46875 12.94921875 C-10.62186646 12.19912033 -10.77498291 11.44902191 -10.93273926 10.67619324 C-11.5222714 7.7294857 -12 5.01367853 -12 2 C-10.7625 1.67 -9.525 1.34 -8.25 1 C-7.55390625 0.814375 -6.8578125 0.62875 -6.140625 0.4375 C-4 0 -4 0 0 0 Z " fill="#1DFEE7" transform="translate(35,11)"/>
<path d="M0 0 C0.86114943 3.89463992 1.71541795 7.79072042 2.56347656 11.68823242 C2.85262686 13.01253431 3.14361885 14.33643552 3.43652344 15.65991211 C3.85841904 17.56776994 4.27303782 19.4772323 4.6875 21.38671875 C5.06455078 23.10701294 5.06455078 23.10701294 5.44921875 24.86206055 C5.94075081 27.66244242 6.11135406 30.16743108 6 33 C1.94150823 33.98387679 -1.83531255 34.03924323 -6 34 C-6.84256281 29.79346033 -7.67241313 25.58450944 -8.5 21.375 C-8.73847656 20.18519531 -8.97695312 18.99539062 -9.22265625 17.76953125 C-9.44824219 16.61582031 -9.67382812 15.46210937 -9.90625 14.2734375 C-10.11572266 13.21560059 -10.32519531 12.15776367 -10.54101562 11.06787109 C-11.00058707 7.99607597 -11.081281 5.10087004 -11 2 C-3.375 0 -3.375 0 0 0 Z " fill="#1DFEE7" transform="translate(18,22)"/>
</svg>
