<?xml version="1.0" encoding="UTF-8"?>
<!-- Generator: https://ezgif.com/png-to-svg -->
<svg version="1.1" xmlns="http://www.w3.org/2000/svg" width="512" height="512" viewBox="-27.69 -13.685 255.45 255.45" preserveAspectRatio="xMidYMid meet">
<path d="M0 0 C1.79 0.12 3.57 0.33 5.35 0.56 C6.97 0.77 6.97 0.77 8.62 0.98 C9.76 1.13 10.89 1.28 12.06 1.44 C13.2 1.59 14.34 1.73 15.52 1.88 C18.35 2.25 21.17 2.62 24 3 C24.14 8.8 23.67 14.16 22.68 19.87 C22.54 20.7 22.4 21.53 22.26 22.39 C21.81 25.07 21.34 27.76 20.88 30.44 C20.72 31.36 20.56 32.27 20.39 33.22 C15.38 62.11 9.37 91.14 -5 117 C-5.86 118.61 -5.86 118.61 -6.74 120.25 C-19.07 142.49 -37.68 157.12 -62.06 164.27 C-81.5 169.08 -103.58 167.24 -121.25 157.7 C-135.61 148.83 -146.33 135.7 -150.5 119.12 C-150.82 117.07 -150.82 117.07 -151 115 C-151.1 113.81 -151.1 113.81 -151.21 112.59 C-151.67 101.39 -147.7 92.35 -140.29 84.09 C-118.22 62.86 -77.15 66.81 -49 67 C-49 75.58 -49 84.16 -49 93 C-51.53 93.05 -54.07 93.1 -56.68 93.15 C-59.2 93.2 -61.72 93.26 -64.25 93.32 C-65.97 93.36 -67.69 93.39 -69.41 93.42 C-78.58 93.59 -87.68 93.93 -96.8 94.93 C-97.88 95.04 -97.88 95.04 -98.99 95.16 C-106.82 96.09 -115.07 97.75 -121.81 102.06 C-124.67 105.9 -124.73 108.52 -124.45 113.23 C-123.77 117.44 -122.41 120.5 -120 124 C-119.54 124.68 -119.07 125.36 -118.6 126.06 C-112.55 133.88 -103.47 137.81 -94 140 C-76.62 141.65 -60.4 138.35 -46.17 127.93 C-13.08 99.61 -7.72 46.62 -1.85 6.17 C-1.1 1.1 -1.1 1.1 0 0 Z " fill="#1BFDE7" transform="translate(176,59)"/>
<path d="M0 0 C0.27 0.6 0.53 1.2 0.81 1.82 C2.02 4.53 3.23 7.23 4.44 9.94 C4.86 10.88 5.28 11.83 5.71 12.8 C6.12 13.7 6.52 14.6 6.93 15.53 C7.49 16.78 7.49 16.78 8.06 18.05 C8.85 19.96 8.85 19.96 10 21 C12.97 14.07 15.94 7.14 19 0 C25.2 1.38 29.86 2.55 35.5 5 C36.71 5.52 37.91 6.03 39.16 6.56 C42 8 42 8 43 10 C42.43 11.83 42.43 11.83 41.45 14.08 C41.08 14.92 40.72 15.76 40.34 16.63 C39.94 17.54 39.54 18.45 39.12 19.39 C38.3 21.32 37.47 23.24 36.64 25.17 C35.32 28.21 34 31.25 32.67 34.29 C31.39 37.21 30.13 40.14 28.88 43.08 C28.47 43.98 28.07 44.88 27.66 45.82 C24.93 52.21 24.67 55.63 27.26 62.2 C27.78 63.33 28.3 64.45 28.84 65.61 C29.12 66.23 29.4 66.84 29.68 67.47 C30.57 69.42 31.47 71.37 32.38 73.31 C35.97 81.1 39.51 88.77 42 97 C37.09 99.5 32.17 101.97 27.19 104.31 C26.5 104.64 25.81 104.96 25.11 105.3 C22.64 106.12 20.58 106.12 18 106 C17.51 104.86 17.01 103.71 16.5 102.54 C15.86 101.04 15.21 99.55 14.56 98.06 C14.24 97.31 13.91 96.55 13.58 95.78 C12.2 92.13 12.2 92.13 10 89 C7.36 94.94 4.72 100.88 2 107 C-3.74 105.09 -9.07 103.21 -14.56 100.81 C-15.19 100.54 -15.82 100.27 -16.46 99.99 C-17.98 99.33 -19.49 98.66 -21 98 C-20.4 92.81 -18.73 88.66 -16.59 83.97 C-15.9 82.42 -15.22 80.87 -14.53 79.32 C-13.45 76.91 -12.37 74.49 -11.28 72.08 C-10.22 69.73 -9.18 67.38 -8.15 65.03 C-7.82 64.32 -7.49 63.6 -7.15 62.86 C-4.82 57.52 -4.69 54.39 -6.77 49.01 C-7.75 46.66 -8.79 44.34 -9.85 42.02 C-10.63 40.28 -11.4 38.54 -12.18 36.8 C-13.4 34.08 -14.63 31.36 -15.87 28.63 C-17.06 26 -18.24 23.35 -19.41 20.71 C-19.79 19.9 -20.16 19.08 -20.55 18.25 C-20.88 17.48 -21.22 16.72 -21.57 15.94 C-21.87 15.27 -22.17 14.61 -22.48 13.92 C-23.12 11.57 -22.87 10.26 -22 8 C-20.19 6.81 -20.19 6.81 -17.85 5.86 C-16.59 5.34 -16.59 5.34 -15.3 4.8 C-13.98 4.28 -13.98 4.28 -12.62 3.75 C-11.31 3.2 -11.31 3.2 -9.97 2.65 C-3.46 -0 -3.46 -0 0 0 Z " fill="#1AFDE6" transform="translate(111,0)"/>
<path d="M0 0 C4.28 19.12 8.09 38.34 11.88 57.56 C12.13 58.84 12.38 60.12 12.64 61.43 C13.36 65.1 14.09 68.77 14.8 72.44 C15.03 73.56 15.25 74.68 15.48 75.84 C15.68 76.87 15.88 77.9 16.09 78.96 C16.26 79.87 16.44 80.77 16.62 81.7 C17 84 17 84 17 87 C13.96 87.68 10.92 88.34 7.88 89 C6.59 89.29 6.59 89.29 5.28 89.58 C4.44 89.76 3.61 89.94 2.74 90.12 C1.98 90.29 1.21 90.46 0.43 90.63 C-2.41 91.06 -5.14 91.02 -8 91 C-10.32 81.22 -12.4 71.41 -14.39 61.56 C-14.54 60.8 -14.7 60.05 -14.85 59.27 C-15.66 55.29 -16.46 51.31 -17.26 47.33 C-17.92 44.05 -18.59 40.77 -19.26 37.49 C-20.07 33.51 -20.88 29.52 -21.68 25.53 C-21.99 24.01 -22.29 22.5 -22.6 20.99 C-23.04 18.89 -23.46 16.78 -23.88 14.67 C-24.12 13.48 -24.36 12.28 -24.61 11.05 C-24.97 8.26 -24.94 6.62 -24 4 C-20.94 3.32 -17.88 2.66 -14.81 2 C-13.52 1.71 -13.52 1.71 -12.19 1.42 C-11.35 1.24 -10.51 1.06 -9.64 0.88 C-8.87 0.71 -8.1 0.54 -7.31 0.37 C-4.84 -0.03 -2.5 -0.06 0 0 Z " fill="#19FDE6" transform="translate(63,23)"/>
<path d="M0 0 C3.42 12.78 6.04 25.69 8.57 38.67 C9.26 42.15 9.95 45.64 10.64 49.12 C11.08 51.36 11.52 53.59 11.95 55.82 C12.16 56.85 12.37 57.89 12.58 58.95 C13.5 63.7 14.27 68.14 14 73 C11.13 73.67 8.25 74.34 5.38 75 C4.57 75.19 3.76 75.38 2.93 75.58 C-1.47 76.58 -5.46 77.24 -10 77 C-11.58 73.35 -12.55 69.84 -13.33 65.94 C-13.57 64.75 -13.81 63.55 -14.06 62.31 C-14.31 61.03 -14.56 59.74 -14.82 58.41 C-15.09 57.07 -15.35 55.73 -15.62 54.38 C-16.18 51.57 -16.73 48.76 -17.28 45.95 C-17.98 42.35 -18.69 38.76 -19.41 35.18 C-19.96 32.4 -20.51 29.63 -21.05 26.85 C-21.44 24.89 -21.83 22.93 -22.22 20.97 C-22.57 19.16 -22.57 19.16 -22.93 17.31 C-23.14 16.26 -23.34 15.21 -23.56 14.12 C-24.04 10.71 -24.07 7.44 -24 4 C-21.13 3.33 -18.25 2.66 -15.38 2 C-14.57 1.81 -13.76 1.62 -12.93 1.42 C-12.13 1.24 -11.34 1.06 -10.52 0.88 C-9.8 0.71 -9.08 0.54 -8.33 0.37 C-5.53 -0.07 -2.83 -0.06 0 0 Z " fill="#1AFDE6" transform="translate(24,49)"/>
</svg>
