<?xml version="1.0" encoding="UTF-8"?>
<!-- Generator: https://ezgif.com/png-to-svg -->
<svg version="1.1" xmlns="http://www.w3.org/2000/svg" width="512" height="512" viewBox="-36.757 -157.312 672.795 672.795" preserveAspectRatio="xMidYMid meet">
<path d="M0 0 C3.86 0.06 7.72 0.04 11.58 0.03 C18.26 0.02 24.93 0.07 31.61 0.14 C41.27 0.26 50.92 0.29 60.58 0.31 C76.25 0.34 91.92 0.44 107.59 0.57 C122.8 0.7 138.02 0.8 153.24 0.86 C154.17 0.86 155.11 0.86 156.08 0.87 C160.79 0.89 165.5 0.9 170.21 0.92 C209.25 1.07 248.28 1.32 287.32 1.62 C287.32 32.97 287.32 64.32 287.32 96.62 C280.39 96.62 273.46 96.62 266.32 96.62 C266.32 91.01 266.32 85.4 266.32 79.62 C196.36 79.62 126.4 79.62 54.32 79.62 C53.66 83.25 53 86.88 52.32 90.62 C51.51 93.82 50.67 96.99 49.76 100.16 C49.4 101.43 49.4 101.43 49.03 102.72 C48.53 104.48 48.03 106.25 47.53 108.01 C46.76 110.71 45.99 113.42 45.22 116.12 C44.74 117.84 44.25 119.56 43.76 121.29 C43.53 122.09 43.3 122.9 43.06 123.73 C41.44 129.39 41.44 129.39 40.32 131.62 C121.5 131.13 121.5 131.13 204.32 130.62 C189.8 177.84 189.8 177.84 185.23 192.47 C184.61 194.46 183.99 196.44 183.38 198.43 C182.44 201.43 181.51 204.42 180.57 207.42 C180.3 208.29 180.03 209.16 179.76 210.06 C177.79 216.34 175.58 222.43 173.32 228.62 C164.41 228.62 155.5 228.62 146.32 228.62 C145.39 221.19 145.39 221.19 145.1 218.84 C144.91 215.44 144.91 215.44 143.32 212.62 C141.74 212.53 140.16 212.5 138.57 212.5 C137.54 212.5 136.52 212.5 135.46 212.5 C134.32 212.5 133.18 212.51 132.01 212.51 C130.82 212.51 129.63 212.51 128.41 212.51 C125.13 212.51 121.86 212.52 118.59 212.52 C115.17 212.53 111.75 212.53 108.34 212.53 C101.86 212.53 95.39 212.54 88.92 212.55 C81.55 212.56 74.18 212.57 66.81 212.57 C51.65 212.59 36.49 212.6 21.32 212.62 C21.07 213.35 20.81 214.07 20.54 214.81 C-10.49 301.21 -10.49 301.21 -22.68 334.62 C-18.39 334.62 -14.1 334.62 -9.68 334.62 C-11.87 344.51 -15.33 354.07 -18.68 363.62 C-56.96 363.62 -95.24 363.62 -134.68 363.62 C-132.43 353.5 -132.43 353.5 -131.03 349.51 C-130.72 348.61 -130.41 347.71 -130.09 346.77 C-129.75 345.82 -129.42 344.87 -129.07 343.88 C-128.71 342.86 -128.36 341.84 -127.99 340.78 C-126.83 337.44 -125.66 334.09 -124.49 330.75 C-123.67 328.4 -122.85 326.04 -122.03 323.69 C-119.97 317.76 -117.9 311.84 -115.83 305.91 C-114.15 301.13 -112.48 296.35 -110.82 291.57 C-110.22 289.85 -109.62 288.13 -109.02 286.4 C-108.72 285.57 -108.43 284.73 -108.13 283.86 C-107.23 281.28 -106.33 278.7 -105.42 276.12 C-100.39 261.71 -95.41 247.3 -90.43 232.87 C-90.03 231.73 -89.63 230.58 -89.23 229.4 C-85.1 217.46 -80.98 205.51 -76.86 193.57 C-61.34 148.53 -61.34 148.53 -54.95 130.77 C-51.87 122.2 -48.88 113.6 -45.93 104.99 C-43.1 96.75 -40.24 88.51 -37.37 80.29 C-36.21 76.96 -35.05 73.64 -33.9 70.32 C-33.13 68.13 -32.36 65.93 -31.6 63.74 C-30.51 60.63 -29.42 57.51 -28.34 54.4 C-28.01 53.48 -27.69 52.55 -27.35 51.6 C-25.18 45.34 -23.36 39.04 -21.68 32.62 C-26.96 28.66 -32.24 24.7 -37.68 20.62 C-36.31 13.8 -34.81 7.99 -29.79 2.99 C-21.78 -2.2 -9.25 -0.18 0 0 Z " fill="#0A1F3E" transform="translate(312.67563235759735,-1.6249186992645264)"/>
<path d="M0 0 C3.35 1.47 6 3.55 8.02 6.61 C9.06 9.43 8.69 11.05 8.07 13.98 C7.11 19.12 6.32 24.24 5.7 29.42 C5.61 30.1 5.52 30.78 5.43 31.48 C2.52 55.99 8.87 82.28 24.18 101.8 C26.01 103.87 27.86 105.87 29.82 107.8 C28.1 112.46 25.78 115.83 22.82 119.8 C22.3 119.64 21.77 119.48 21.23 119.32 C19.53 118.8 17.83 118.3 16.13 117.79 C13.68 117.05 11.24 116.31 8.8 115.55 C-16.2 107.9 -40.92 106.15 -64.7 118.68 C-72.17 123.04 -78.75 128.81 -85.25 134.47 C-86.2 135.28 -87.14 136.09 -88.11 136.92 C-89.33 138.01 -89.33 138.01 -90.58 139.12 C-93.89 141.26 -96.24 141.79 -100.18 141.8 C-102.57 140.38 -102.57 140.38 -104.18 137.8 C-104.68 134.85 -104.89 132.43 -104.86 129.48 C-104.85 128.24 -104.85 128.24 -104.85 126.98 C-103.53 90.75 -77.87 58.12 -52.83 34.3 C-41.12 23.62 -27.7 14.95 -14.18 6.8 C-13.07 6.1 -11.96 5.41 -10.82 4.7 C-9.23 3.73 -9.23 3.73 -7.61 2.73 C-6.66 2.15 -5.71 1.56 -4.73 0.95 C-2.18 -0.2 -2.18 -0.2 0 0 Z " fill="#0B203F" transform="translate(104.17578125,112.203125)"/>
<path d="M0 0 C3.86 0.06 7.72 0.04 11.58 0.03 C18.26 0.02 24.93 0.07 31.61 0.14 C41.27 0.26 50.92 0.29 60.58 0.31 C76.25 0.34 91.92 0.44 107.59 0.57 C122.8 0.7 138.02 0.8 153.24 0.86 C154.17 0.86 155.11 0.86 156.08 0.87 C160.79 0.89 165.5 0.9 170.21 0.92 C209.25 1.07 248.28 1.32 287.32 1.62 C287.32 32.97 287.32 64.32 287.32 96.62 C280.39 96.62 273.46 96.62 266.32 96.62 C266.32 91.01 266.32 85.4 266.32 79.62 C196.36 79.62 126.4 79.62 54.32 79.62 C53.66 83.25 53 86.88 52.32 90.62 C51.51 93.82 50.67 96.99 49.76 100.16 C49.4 101.43 49.4 101.43 49.03 102.72 C48.53 104.48 48.03 106.25 47.53 108.01 C46.76 110.71 45.99 113.42 45.22 116.12 C44.74 117.84 44.25 119.56 43.76 121.29 C43.53 122.09 43.3 122.9 43.06 123.73 C41.44 129.39 41.44 129.39 40.32 131.62 C121.5 131.13 121.5 131.13 204.32 130.62 C189.8 177.84 189.8 177.84 185.23 192.47 C184.61 194.46 183.99 196.44 183.38 198.43 C182.44 201.43 181.51 204.42 180.57 207.42 C180.3 208.29 180.03 209.16 179.76 210.06 C177.79 216.34 175.58 222.43 173.32 228.62 C164.41 228.62 155.5 228.62 146.32 228.62 C145.39 221.19 145.39 221.19 145.1 218.84 C144.91 215.44 144.91 215.44 143.32 212.62 C141.74 212.53 140.16 212.5 138.57 212.5 C137.54 212.5 136.52 212.5 135.46 212.5 C134.32 212.5 133.18 212.51 132.01 212.51 C130.82 212.51 129.63 212.51 128.41 212.51 C125.13 212.51 121.86 212.52 118.59 212.52 C115.17 212.53 111.75 212.53 108.34 212.53 C101.86 212.53 95.39 212.54 88.92 212.55 C81.55 212.56 74.18 212.57 66.81 212.57 C51.65 212.59 36.49 212.6 21.32 212.62 C21.07 213.35 20.81 214.07 20.54 214.81 C-10.49 301.21 -10.49 301.21 -22.68 334.62 C-18.39 334.62 -14.1 334.62 -9.68 334.62 C-11.87 344.51 -15.33 354.07 -18.68 363.62 C-56.96 363.62 -95.24 363.62 -134.68 363.62 C-132.43 353.5 -132.43 353.5 -131.03 349.51 C-130.72 348.61 -130.41 347.71 -130.09 346.77 C-129.75 345.82 -129.42 344.87 -129.07 343.88 C-128.71 342.86 -128.36 341.84 -127.99 340.78 C-126.83 337.44 -125.66 334.09 -124.49 330.75 C-123.67 328.4 -122.85 326.04 -122.03 323.69 C-119.97 317.76 -117.9 311.84 -115.83 305.91 C-114.15 301.13 -112.48 296.35 -110.82 291.57 C-110.22 289.85 -109.62 288.13 -109.02 286.4 C-108.72 285.57 -108.43 284.73 -108.13 283.86 C-107.23 281.28 -106.33 278.7 -105.42 276.12 C-100.39 261.71 -95.41 247.3 -90.43 232.87 C-90.03 231.73 -89.63 230.58 -89.23 229.4 C-85.1 217.46 -80.98 205.51 -76.86 193.57 C-61.34 148.53 -61.34 148.53 -54.95 130.77 C-51.87 122.2 -48.88 113.6 -45.93 104.99 C-43.1 96.75 -40.24 88.51 -37.37 80.29 C-36.21 76.96 -35.05 73.64 -33.9 70.32 C-33.13 68.13 -32.36 65.93 -31.6 63.74 C-30.51 60.63 -29.42 57.51 -28.34 54.4 C-28.01 53.48 -27.69 52.55 -27.35 51.6 C-25.18 45.34 -23.36 39.04 -21.68 32.62 C-26.96 28.66 -32.24 24.7 -37.68 20.62 C-36.31 13.8 -34.81 7.99 -29.79 2.99 C-21.78 -2.2 -9.25 -0.18 0 0 Z M-30.68 12.99 C-31.84 16.06 -31.7 17.55 -30.68 20.62 C-29.32 22.18 -29.32 22.18 -27.52 23.3 C-26.89 23.74 -26.26 24.17 -25.61 24.62 C-24.95 25.05 -24.29 25.49 -23.61 25.94 C-22.95 26.39 -22.29 26.85 -21.6 27.31 C-19.97 28.43 -18.32 29.53 -16.68 30.62 C-18.04 37.28 -19.87 43.63 -22.05 50.06 C-22.34 50.94 -22.63 51.82 -22.93 52.72 C-24.35 56.94 -25.86 61.09 -27.53 65.22 C-29.81 70.88 -31.82 76.63 -33.8 82.4 C-34.18 83.51 -34.57 84.63 -34.96 85.77 C-36.2 89.37 -37.44 92.97 -38.68 96.56 C-39.53 99.05 -40.39 101.54 -41.25 104.03 C-43.35 110.13 -45.45 116.23 -47.54 122.33 C-48.57 125.31 -49.6 128.3 -50.62 131.28 C-58.16 153.13 -58.16 153.13 -65.45 175.07 C-66.68 178.83 -68.01 182.51 -69.52 186.18 C-72.39 193.26 -74.78 200.51 -77.24 207.75 C-77.77 209.3 -78.29 210.85 -78.82 212.4 C-79.91 215.58 -80.99 218.76 -82.08 221.94 C-84.29 228.42 -86.51 234.89 -88.74 241.37 C-89.42 243.36 -90.11 245.36 -90.79 247.36 C-92.86 253.37 -94.94 259.38 -97.04 265.38 C-97.4 266.42 -97.76 267.46 -98.14 268.54 C-98.8 270.42 -99.46 272.31 -100.13 274.2 C-101.6 278.4 -102.99 282.61 -104.24 286.88 C-105.62 291.55 -107.42 295.92 -109.39 300.37 C-110.78 303.89 -111.84 307.42 -112.9 311.04 C-114.09 315.01 -115.47 318.91 -116.86 322.81 C-117.47 324.54 -118.08 326.28 -118.69 328.01 C-119.72 330.92 -120.75 333.83 -121.78 336.74 C-122.89 339.89 -124 343.04 -125.11 346.19 C-125.64 347.68 -125.64 347.68 -126.19 349.2 C-126.67 350.59 -126.67 350.59 -127.17 352 C-127.46 352.82 -127.75 353.64 -128.05 354.49 C-128.82 356.73 -128.82 356.73 -128.68 359.62 C-93.37 359.62 -58.06 359.62 -21.68 359.62 C-17.58 349.29 -17.58 349.29 -15.68 338.62 C-19.97 338.62 -24.26 338.62 -28.68 338.62 C-25.04 328.16 -21.36 317.71 -17.55 307.31 C-14.83 299.89 -12.22 292.44 -9.78 284.91 C-8.76 281.87 -7.64 278.86 -6.51 275.85 C-5.1 272.09 -3.73 268.32 -2.35 264.54 C-2.04 263.69 -1.72 262.84 -1.4 261.96 C-0.41 259.24 0.58 256.53 1.57 253.81 C2.55 251.15 3.52 248.48 4.5 245.82 C5.14 244.05 5.79 242.29 6.43 240.52 C8.04 236.1 9.67 231.68 11.33 227.28 C11.66 226.42 11.98 225.56 12.31 224.68 C12.91 223.06 13.53 221.44 14.14 219.83 C14.41 219.1 14.69 218.37 14.97 217.62 C15.33 216.68 15.33 216.68 15.69 215.71 C16.49 213.08 16.87 210.34 17.32 207.62 C60.55 207.62 103.78 207.62 148.32 207.62 C148.98 213.23 149.64 218.84 150.32 224.62 C156.92 224.62 163.52 224.62 170.32 224.62 C170.77 223.15 171.22 221.68 171.68 220.16 C173.26 214.94 174.85 209.72 176.44 204.51 C176.96 202.82 177.47 201.14 177.99 199.45 C180.72 190.47 183.67 181.58 186.65 172.69 C191.22 159.11 191.22 159.11 195.45 145.44 C195.65 144.77 195.85 144.1 196.05 143.41 C196.84 140.69 197.32 138.47 197.32 135.62 C143.53 135.62 89.74 135.62 34.32 135.62 C36.3 129.35 38.28 123.08 40.32 116.62 C40.98 113.65 41.64 110.68 42.32 107.62 C43.05 105.42 43.77 103.22 44.53 101.03 C46.04 96.47 47.26 91.82 48.51 87.19 C48.78 86.2 49.06 85.2 49.34 84.18 C49.6 83.24 49.85 82.29 50.12 81.32 C50.35 80.46 50.58 79.61 50.82 78.73 C51.4 76.66 51.4 76.66 51.32 74.62 C123.59 74.62 195.86 74.62 270.32 74.62 C270.32 80.56 270.32 86.5 270.32 92.62 C274.61 92.62 278.9 92.62 283.32 92.62 C283.32 63.91 283.32 35.2 283.32 5.62 C244.21 5.4 205.09 5.22 165.97 5.11 C161.35 5.1 156.73 5.09 152.12 5.08 C150.74 5.07 150.74 5.07 149.33 5.07 C134.44 5.02 119.56 4.95 104.67 4.85 C89.39 4.76 74.12 4.7 58.85 4.68 C49.42 4.67 39.99 4.63 30.57 4.55 C24.1 4.49 17.64 4.48 11.18 4.49 C7.45 4.5 3.72 4.49 -0.01 4.43 C-4.05 4.38 -8.1 4.4 -12.14 4.42 C-13.91 4.38 -13.91 4.38 -15.71 4.33 C-23.51 4.48 -26.49 6.42 -30.68 12.99 Z " fill="#B2BDC4" transform="translate(312.67563235759735,-1.6249186992645264)"/>
<path d="M0 0 C2.26 2.92 2.26 2.92 4 6 C4.99 6.66 5.98 7.32 7 8 C7 8.66 7 9.32 7 10 C7.78 10.25 8.57 10.49 9.38 10.75 C12 12 12 12 13.3 13.69 C14.33 17.1 13.21 18.92 11.82 22.16 C11.33 23.34 10.83 24.53 10.31 25.75 C9.77 27 9.23 28.25 8.69 29.5 C7.64 31.95 6.61 34.39 5.57 36.84 C5.11 37.93 4.64 39.01 4.16 40.13 C3.23 42.44 2.51 44.58 2 47 C1.45 46.86 0.91 46.72 0.35 46.58 C-43.15 36.06 -111.67 60.79 -150.51 81.1 C-155.04 82.74 -158.76 80.82 -163 79 C-163.81 71.42 -160.74 66.73 -156.34 60.74 C-141.55 42.75 -115.99 33.51 -95 25 C-93.93 24.56 -92.86 24.12 -91.75 23.67 C-20.98 -5.17 -20.98 -5.17 0 0 Z " fill="#0D2140" transform="translate(272,26)"/>
<path d="M0 0 C-1.87 6.49 -3.96 12.84 -6.34 19.15 C-6.65 20 -6.97 20.85 -7.29 21.72 C-8.32 24.46 -9.35 27.2 -10.38 29.94 C-11.09 31.84 -11.8 33.74 -12.51 35.65 C-13.96 39.53 -15.41 43.41 -16.86 47.28 C-19.8 55.14 -22.72 63.01 -25.64 70.88 C-26.75 73.87 -27.86 76.86 -28.98 79.85 C-29.98 82.57 -30.99 85.28 -32 88 C-32.99 88 -33.98 88 -35 88 C-36.58 85.88 -36.58 85.88 -38.25 83 C-41.04 78.39 -44.02 74.46 -47.71 70.56 C-49 69 -49 69 -49 67 C-49.66 67 -50.32 67 -51 67 C-52.48 65.5 -52.48 65.5 -54.19 63.44 C-65.27 50.5 -78.57 40.88 -93 32 C-90.78 26.01 -88.18 20.92 -83 17 C-79.1 16.38 -75.44 16.58 -71.52 16.82 C-50.91 18.03 -28.89 9.75 -9.97 2.54 C-9.1 2.21 -8.23 1.88 -7.33 1.54 C-6.57 1.24 -5.8 0.95 -5.01 0.64 C-3 0 -3 0 0 0 Z " fill="#0C2140" transform="translate(226,206)"/>
<path d="M0 0 C3.35 1.47 6 3.55 8.02 6.61 C9.06 9.43 8.69 11.05 8.07 13.98 C7.11 19.12 6.32 24.24 5.7 29.42 C5.61 30.1 5.52 30.78 5.43 31.48 C2.52 55.99 8.87 82.28 24.18 101.8 C26.01 103.87 27.86 105.87 29.82 107.8 C28.1 112.46 25.78 115.83 22.82 119.8 C22.3 119.64 21.77 119.48 21.23 119.32 C19.53 118.8 17.83 118.3 16.13 117.79 C13.68 117.05 11.24 116.31 8.8 115.55 C-16.2 107.9 -40.92 106.15 -64.7 118.68 C-72.17 123.04 -78.75 128.81 -85.25 134.47 C-86.2 135.28 -87.14 136.09 -88.11 136.92 C-89.33 138.01 -89.33 138.01 -90.58 139.12 C-93.89 141.26 -96.24 141.79 -100.18 141.8 C-102.57 140.38 -102.57 140.38 -104.18 137.8 C-104.68 134.85 -104.89 132.43 -104.86 129.48 C-104.85 128.24 -104.85 128.24 -104.85 126.98 C-103.53 90.75 -77.87 58.12 -52.83 34.3 C-41.12 23.62 -27.7 14.95 -14.18 6.8 C-13.07 6.1 -11.96 5.41 -10.82 4.7 C-9.23 3.73 -9.23 3.73 -7.61 2.73 C-6.66 2.15 -5.71 1.56 -4.73 0.95 C-2.18 -0.2 -2.18 -0.2 0 0 Z M-9.8 9.05 C-10.92 9.71 -10.92 9.71 -12.07 10.39 C-30.59 21.57 -48.37 34.96 -63.18 50.8 C-63.18 51.46 -63.18 52.12 -63.18 52.8 C-63.84 52.8 -64.5 52.8 -65.18 52.8 C-66.96 54.8 -68.61 56.8 -70.24 58.92 C-70.73 59.56 -71.22 60.19 -71.72 60.84 C-83.85 76.73 -92.43 93.64 -98.18 112.8 C-98.42 113.52 -98.67 114.24 -98.92 114.98 C-101 121.65 -100.34 128.89 -100.18 135.8 C-98.49 136.71 -98.49 136.71 -96.18 136.8 C-93.97 135.42 -92.1 134.07 -90.11 132.42 C-89.54 131.97 -88.97 131.51 -88.38 131.04 C-85.63 128.84 -82.93 126.59 -80.23 124.34 C-62.01 109.13 -41.88 102.72 -18.18 104.8 C-7.81 106.16 2.25 108.72 12.17 111.98 C15.4 112.97 18.46 113.48 21.82 113.8 C24.05 111.13 24.05 111.13 23.68 108.91 C22.58 106.19 21.02 104.23 19.2 101.92 C14.51 95.61 11.05 88.93 7.82 81.8 C7.22 80.48 7.22 80.48 6.61 79.13 C-1.1 60.31 -1.71 36.4 3.17 16.86 C3.84 13.72 4.03 11 3.82 7.8 C2.64 5.86 2.64 5.86 0.82 4.8 C-3.42 4.8 -6.26 6.93 -9.8 9.05 Z " fill="#B6C0C7" transform="translate(104.17578125,112.203125)"/>
<path d="M0 0 C2.26 2.92 2.26 2.92 4 6 C4.99 6.66 5.98 7.32 7 8 C7 8.66 7 9.32 7 10 C7.78 10.25 8.57 10.49 9.38 10.75 C12 12 12 12 13.3 13.69 C14.33 17.1 13.21 18.92 11.82 22.16 C11.33 23.34 10.83 24.53 10.31 25.75 C9.77 27 9.23 28.25 8.69 29.5 C7.64 31.95 6.61 34.39 5.57 36.84 C5.11 37.93 4.64 39.01 4.16 40.13 C3.23 42.44 2.51 44.58 2 47 C1.45 46.86 0.91 46.72 0.35 46.58 C-43.15 36.06 -111.67 60.79 -150.51 81.1 C-155.04 82.74 -158.76 80.82 -163 79 C-163.81 71.42 -160.74 66.73 -156.34 60.74 C-141.55 42.75 -115.99 33.51 -95 25 C-93.93 24.56 -92.86 24.12 -91.75 23.67 C-20.98 -5.17 -20.98 -5.17 0 0 Z M-127.19 44.62 C-128.04 45.06 -128.89 45.49 -129.76 45.93 C-137.67 50.08 -144.58 55.28 -150.88 61.62 C-151.59 62.34 -152.31 63.05 -153.05 63.79 C-155.83 66.94 -157.9 69.55 -158.19 73.81 C-158.13 74.53 -158.06 75.26 -158 76 C-154.57 77.24 -152.49 77 -149.24 75.59 C-147.78 74.91 -146.33 74.21 -144.88 73.5 C-132.21 67.6 -119.29 62.74 -105.8 59.08 C-102.03 58.01 -98.33 56.81 -94.61 55.58 C-63.56 45.4 -33.7 40.17 -1 41 C-0.8 40.48 -0.6 39.95 -0.39 39.41 C0.53 37.02 1.45 34.64 2.38 32.25 C2.85 31.01 2.85 31.01 3.34 29.75 C3.65 28.95 3.95 28.15 4.27 27.33 C4.56 26.59 4.84 25.86 5.13 25.11 C6 23 6 23 7.12 20.89 C8.38 18.2 7.97 16.77 7 14 C5.25 12.02 5.25 12.02 3.06 10.38 C0.45 8.28 -1.11 6.83 -3 4 C-37.81 -3.97 -97.61 29.43 -127.19 44.62 Z " fill="#B7C1C7" transform="translate(272,26)"/>
<path d="M0 0 C-1.87 6.49 -3.96 12.84 -6.34 19.15 C-6.65 20 -6.97 20.85 -7.29 21.72 C-8.32 24.46 -9.35 27.2 -10.38 29.94 C-11.09 31.84 -11.8 33.74 -12.51 35.65 C-13.96 39.53 -15.41 43.41 -16.86 47.28 C-19.8 55.14 -22.72 63.01 -25.64 70.88 C-26.75 73.87 -27.86 76.86 -28.98 79.85 C-29.98 82.57 -30.99 85.28 -32 88 C-32.99 88 -33.98 88 -35 88 C-36.58 85.88 -36.58 85.88 -38.25 83 C-41.04 78.39 -44.02 74.46 -47.71 70.56 C-49 69 -49 69 -49 67 C-49.66 67 -50.32 67 -51 67 C-52.48 65.5 -52.48 65.5 -54.19 63.44 C-65.27 50.5 -78.57 40.88 -93 32 C-90.78 26.01 -88.18 20.92 -83 17 C-79.1 16.38 -75.44 16.58 -71.52 16.82 C-50.91 18.03 -28.89 9.75 -9.97 2.54 C-9.1 2.21 -8.23 1.88 -7.33 1.54 C-6.57 1.24 -5.8 0.95 -5.01 0.64 C-3 0 -3 0 0 0 Z M-14.79 9.27 C-21.57 11.92 -28.38 13.91 -35.44 15.69 C-37.22 16.14 -37.22 16.14 -39.03 16.6 C-48.57 18.98 -57.79 20.91 -67.66 21.12 C-68.88 21.15 -68.88 21.15 -70.12 21.19 C-71.7 21.23 -73.29 21.24 -74.88 21.22 C-77.97 21.28 -80.14 21.36 -82.67 23.24 C-84.66 25.42 -85.96 27.19 -86.11 30.19 C-84.58 32.69 -82.87 33.56 -80.31 35 C-62.69 45.74 -46.58 62.01 -35 79 C-32.97 76.97 -32.35 75.75 -31.3 73.13 C-30.98 72.34 -30.66 71.55 -30.34 70.73 C-30 69.87 -29.66 69.01 -29.31 68.12 C-28.96 67.23 -28.6 66.33 -28.23 65.4 C-25.59 58.67 -23.15 51.88 -20.8 45.03 C-17.04 34.12 -12.96 23.32 -8.92 12.5 C-8.25 10.68 -7.61 8.84 -7 7 C-9.91 7 -12.1 8.18 -14.79 9.27 Z " fill="#B6C0C6" transform="translate(226,206)"/>
<path d="M0 0 C3.43 2.91 4.82 4.57 5.75 9.06 C4.88 13.72 3.38 15.18 -0.27 18.04 C-7.98 22.97 -17.54 27.59 -26.94 26.75 C-29.35 25.76 -30.64 25.13 -32.25 23.06 C-33.62 18.45 -32.48 14.76 -30.25 10.62 C-23.01 1.62 -11.53 -4.91 0 0 Z " fill="#BEC6C7" transform="translate(180.9375,97.25)"/>
<path d="M0 0 C3.44 2 3.44 2 6 4 C5.7 7.1 5.49 8.57 3.1 10.66 C-13.58 20.11 -13.58 20.11 -22 19 C-23 18 -23 18 -23.38 15.31 C-22.89 11.02 -21.13 8.79 -18 6 C-12.14 1.76 -7.43 -0.63 0 0 Z " fill="#E8BE0E" transform="translate(176,100)"/>
<path d="M0 0 C1.32 0.66 2.64 1.32 4 2 C4.33 1.34 4.66 0.68 5 0 C4.69 1.94 4.38 3.88 4.06 5.81 C3.89 6.89 3.71 7.97 3.54 9.08 C3 12 3 12 2 15 C1.01 15.33 0.02 15.66 -1 16 C-1.77 19.46 -2.17 22.76 -2.32 26.3 C-2.36 27.28 -2.4 28.25 -2.44 29.26 C-2.48 30.27 -2.52 31.27 -2.56 32.31 C-2.61 33.34 -2.65 34.37 -2.69 35.42 C-2.8 37.95 -2.9 40.47 -3 43 C-3.33 43 -3.66 43 -4 43 C-4.53 28.09 -3.56 14.5 0 0 Z " fill="#A7B1BA" transform="translate(108,121)"/>
<path d="M0 0 C0 0.66 0 1.32 0 2 C-0.99 2.33 -1.98 2.66 -3 3 C-3.99 4.48 -3.99 4.48 -5 6 C-5 5.01 -5 4.02 -5 3 C-6.65 3 -8.3 3 -10 3 C-6.65 0.77 -4.01 0 0 0 Z " fill="#A0ABB4" transform="translate(199,75)"/>
</svg>
