<?xml version="1.0" encoding="UTF-8"?>
<!-- Generator: https://ezgif.com/png-to-svg -->
<svg version="1.1" xmlns="http://www.w3.org/2000/svg" width="512" height="512" viewBox="-36.852 -36.849 673.702 673.702" preserveAspectRatio="xMidYMid meet">
<path d="M0 0 C7.28 5.35 11.19 13.58 14 22 C14.76 28.11 14.45 33.03 10.71 38.07 C5.13 44.36 -3.51 47.99 -10.88 51.75 C-12.73 52.7 -14.58 53.66 -16.43 54.61 C-17.39 55.1 -18.36 55.6 -19.35 56.11 C-21.94 57.45 -24.53 58.81 -27.11 60.18 C-37.67 65.8 -48.33 71.16 -59.1 76.38 C-64.57 79.03 -70.02 81.71 -75.48 84.39 C-80.24 86.73 -85.01 89.05 -89.78 91.35 C-94.46 93.61 -99.12 95.89 -103.78 98.2 C-105.54 99.06 -107.31 99.92 -109.08 100.76 C-111.54 101.94 -113.99 103.15 -116.43 104.37 C-117.16 104.71 -117.89 105.04 -118.63 105.39 C-122.7 107.48 -124.42 109.17 -125.91 113.56 C-126.3 115.03 -126.67 116.51 -127 118 C-127.31 119.23 -127.63 120.46 -127.95 121.72 C-128.19 122.82 -128.44 123.93 -128.69 125.06 C-129.12 127.04 -129.56 129.02 -130 131 C-127.7 130.14 -125.4 129.28 -123.11 128.42 C-122.39 128.15 -121.67 127.88 -120.93 127.6 C-116.42 125.91 -111.92 124.21 -107.43 122.51 C-104.47 121.38 -101.51 120.27 -98.55 119.16 C-97.05 118.59 -95.55 118.02 -94.06 117.45 C-66.18 106.82 -66.18 106.82 -54.25 110 C-49.89 112.68 -48.3 115.08 -47 120 C-46.12 126.64 -45.78 133.53 -49.96 139.11 C-59.36 147.81 -72.46 152.82 -84 158 C-84 160.61 -83.12 161.54 -81.65 163.68 C-81.13 164.44 -80.62 165.19 -80.09 165.97 C-79.52 166.78 -78.96 167.6 -78.38 168.44 C-77.8 169.27 -77.22 170.11 -76.63 170.97 C-67.1 185.62 -67.1 185.62 -56 199 C-55.39 198.01 -54.79 197.01 -54.16 195.99 C-48.46 186.72 -42.48 177.75 -36 169 C-35.55 168.4 -35.11 167.8 -34.65 167.18 C-27.83 157.98 -20.87 148.89 -13.93 139.79 C-9.88 134.48 -5.86 129.16 -1.88 123.81 C2.93 117.38 7.84 111.04 12.78 104.72 C16.64 99.77 20.44 94.78 24.19 89.75 C28.29 84.25 32.45 78.8 36.72 73.43 C39.29 70.2 41.8 66.95 44.27 63.65 C50.17 55.84 56.22 48.4 63.12 41.44 C64.07 40.48 64.07 40.48 65.03 39.51 C65.62 38.93 66.21 38.34 66.82 37.75 C67.34 37.24 67.86 36.73 68.39 36.2 C70.23 34.83 71.75 34.41 74 34 C74.33 34.99 74.66 35.98 75 37 C75.91 36.48 76.81 35.97 77.75 35.44 C81 34 81 34 83.38 34.31 C84.18 34.65 84.18 34.65 85 35 C83.69 38.94 82.08 41.23 79 44 C79.33 44.66 79.66 45.32 80 46 C80.69 45.42 81.37 44.84 82.08 44.25 C82.98 43.51 83.88 42.76 84.81 42 C86.15 40.89 86.15 40.89 87.52 39.75 C90 38 90 38 93 38 C93 38.99 93 39.98 93 41 C99.74 41.13 106.3 40.8 113 40 C112.45 44.62 110.41 47.98 107.94 51.81 C107.56 52.41 107.18 53.01 106.79 53.62 C105.87 55.09 104.94 56.54 104 58 C107.62 59.21 108.64 58.54 112 57 C111.09 62.77 108.39 67.12 105.5 72.12 C104.96 73.07 104.41 74.01 103.85 74.99 C99.77 81.95 95.41 88 90 94 C88.19 96.09 86.41 98.2 84.62 100.31 C83.93 101.13 83.93 101.13 83.22 101.96 C79.92 105.85 76.75 109.84 73.62 113.88 C69.17 119.62 64.49 125.13 59.7 130.6 C55.8 135.06 52.03 139.59 48.31 144.19 C45.59 147.5 42.8 150.75 40 154 C36.45 158.12 32.93 162.27 29.5 166.5 C25.11 171.9 20.59 177.17 16.05 182.45 C9.81 189.71 3.6 197.01 -2.44 204.44 C-6.39 209.29 -10.45 214.04 -14.54 218.78 C-18.53 223.42 -22.41 228.13 -26.26 232.89 C-28 235 -28 235 -30 237 C-29.71 241.66 -28.22 244.8 -25.78 248.73 C-25.1 249.83 -24.43 250.93 -23.73 252.06 C-22.99 253.25 -22.24 254.44 -21.5 255.62 C-20.74 256.86 -19.97 258.1 -19.21 259.34 C-17.62 261.92 -16.02 264.51 -14.42 267.08 C-10.92 272.74 -7.47 278.42 -4.01 284.1 C-2.97 285.81 -1.93 287.52 -0.89 289.23 C2.62 294.99 6.07 300.79 9.43 306.63 C9.78 307.22 10.12 307.82 10.47 308.43 C14.07 314.72 14.69 319.83 14 327 C12.32 332.94 9.59 336.86 5 341 C4.16 342.1 3.32 343.2 2.5 344.31 C0 347 0 347 -2.47 347.38 C-5 347 -5 347 -6.63 345.61 C-7.1 344.97 -7.57 344.33 -8.05 343.67 C-8.58 342.96 -9.11 342.24 -9.66 341.51 C-10.2 340.74 -10.75 339.98 -11.31 339.19 C-12.16 338.03 -12.16 338.03 -13.03 336.85 C-14.7 334.58 -16.35 332.29 -18 330 C-18.87 328.81 -19.75 327.61 -20.62 326.42 C-22.43 323.96 -24.22 321.49 -26 319 C-26.33 321.31 -26.66 323.62 -27 326 C-27.99 326 -28.98 326 -30 326 C-31.5 324.45 -31.5 324.45 -33.08 322.26 C-33.98 321.04 -33.98 321.04 -34.89 319.8 C-35.52 318.92 -36.16 318.04 -36.81 317.12 C-38.16 315.28 -39.51 313.44 -40.87 311.61 C-41.55 310.67 -42.24 309.73 -42.95 308.77 C-46.04 304.6 -49.23 300.52 -52.44 296.44 C-57.43 290.06 -62.31 283.61 -67 277 C-74.34 283.14 -80.86 289.66 -87 297 C-88.32 296.34 -89.64 295.68 -91 295 C-100.6 305.16 -110.15 315.36 -119.55 325.71 C-121.15 327.47 -122.76 329.24 -124.38 331 C-124.86 331.54 -125.35 332.08 -125.85 332.64 C-134.12 341.66 -134.12 341.66 -139.94 342.17 C-140.62 342.17 -141.3 342.18 -142 342.19 C-142.68 342.2 -143.36 342.22 -144.06 342.23 C-146 342 -146 342 -149 340 C-148.47 335.43 -147.32 332.36 -144.89 328.46 C-144.25 327.42 -143.6 326.38 -142.94 325.3 C-142.24 324.19 -141.54 323.08 -140.81 321.94 C-140.08 320.76 -139.34 319.58 -138.6 318.4 C-133.29 309.91 -127.79 301.55 -122.19 293.24 C-116.98 285.51 -111.87 277.73 -106.75 269.94 C-104.57 266.63 -102.39 263.32 -100.21 260 C-99.19 258.45 -98.17 256.89 -97.16 255.33 C-95.04 252.06 -92.91 248.83 -90.58 245.71 C-87.09 241.19 -87.09 241.19 -86.1 235.79 C-86.9 233.42 -87.95 231.5 -89.25 229.38 C-89.67 228.59 -90.09 227.81 -90.53 227.01 C-91.46 225.28 -92.42 223.57 -93.39 221.86 C-95.79 217.59 -98.04 213.24 -100.3 208.89 C-101.46 206.65 -102.64 204.42 -103.83 202.19 C-104.37 201.17 -104.91 200.15 -105.47 199.09 C-105.96 198.18 -106.45 197.27 -106.95 196.33 C-108 194 -108 194 -108 191 C-107.01 191 -106.02 191 -105 191 C-106.16 185.67 -107.75 181.01 -110.1 176.08 C-110.97 174.06 -111.49 172.14 -112 170 C-116.61 171.87 -121.2 173.78 -125.77 175.75 C-127.32 176.41 -128.88 177.06 -130.45 177.69 C-141.37 181.91 -141.37 181.91 -148.72 190.58 C-149.54 192.7 -150.3 194.84 -151 197 C-151.43 198.12 -151.86 199.24 -152.3 200.4 C-153.74 204.24 -155.07 208.11 -156.38 212 C-156.62 212.74 -156.87 213.47 -157.13 214.23 C-169.88 251.86 -180.88 290.08 -192.07 328.19 C-192.77 330.58 -193.47 332.96 -194.18 335.35 C-195.66 340.35 -197.11 345.35 -198.45 350.4 C-198.67 351.19 -198.88 351.99 -199.11 352.8 C-199.66 354.83 -200.18 356.86 -200.71 358.89 C-202.22 362.53 -203.67 363.94 -207 366 C-210.81 366.48 -213.28 366.27 -216.88 364.94 C-219.29 362.73 -219.6 361.41 -219.96 358.22 C-220.05 353.42 -219.07 348.72 -218.25 344 C-218.05 342.78 -217.85 341.56 -217.64 340.3 C-217.08 336.91 -216.5 333.53 -215.93 330.14 C-215.31 326.53 -214.71 322.91 -214.11 319.3 C-213.03 312.85 -211.94 306.41 -210.85 299.96 C-208.98 288.88 -207.12 277.81 -205.26 266.73 C-201.19 242.48 -197.1 218.24 -193 194 C-194.28 194.25 -194.28 194.25 -195.59 194.51 C-227.4 200.7 -227.4 200.7 -240.06 202.88 C-241.26 203.09 -242.45 203.3 -243.68 203.52 C-245.4 203.81 -245.4 203.81 -247.16 204.12 C-248.15 204.29 -249.13 204.46 -250.15 204.64 C-253.13 205.02 -256 205.06 -259 205 C-257.35 203.35 -255.7 201.7 -254 200 C-258.95 199.67 -263.9 199.34 -269 199 C-269 198.34 -269 197.68 -269 197 C-268.39 196.67 -267.78 196.34 -267.15 196 C-265.29 194.99 -263.44 193.99 -261.59 192.99 C-259.41 191.81 -257.24 190.64 -255.07 189.46 C-249.87 186.65 -244.67 183.82 -239.49 180.96 C-225.81 173.39 -211.91 166.35 -197.9 159.44 C-196.94 158.96 -195.99 158.49 -195 158 C-193.97 157.55 -192.94 157.1 -191.88 156.63 C-188.46 154.69 -186.98 153.42 -185 150 C-184.11 146.43 -183.67 142.84 -183.25 139.19 C-183.12 138.21 -183 137.23 -182.87 136.22 C-182.57 133.82 -182.28 131.41 -182 129 C-183.16 129.39 -184.32 129.79 -185.52 130.19 C-189.94 131.68 -194.37 133.17 -198.79 134.65 C-200.68 135.29 -202.58 135.93 -204.47 136.57 C-214.83 140.06 -225.2 143.44 -235.71 146.46 C-236.6 146.72 -237.49 146.98 -238.4 147.24 C-239.64 147.59 -239.64 147.59 -240.9 147.95 C-241.98 148.25 -241.98 148.25 -243.09 148.57 C-245 149 -245 149 -248 149 C-248 147.68 -248 146.36 -248 145 C-247.34 144.67 -246.68 144.34 -246 144 C-246.33 143.01 -246.66 142.02 -247 141 C-246.41 140.67 -245.82 140.34 -245.21 140 C-231.33 132.23 -217.59 124.27 -204 116 C-204.77 116.21 -205.54 116.42 -206.34 116.64 C-209.83 117.6 -213.32 118.55 -216.81 119.5 C-218.03 119.83 -219.24 120.17 -220.49 120.51 C-221.66 120.83 -222.82 121.14 -224.02 121.47 C-225.09 121.76 -226.17 122.06 -227.27 122.36 C-230 123 -230 123 -233 123 C-232.67 122.36 -232.34 121.72 -232 121.06 C-230.93 119.23 -230.93 119.23 -231 118 C-231.87 118.22 -232.74 118.43 -233.63 118.66 C-234.79 118.93 -235.94 119.21 -237.12 119.5 C-238.26 119.78 -239.4 120.06 -240.57 120.34 C-243.81 120.96 -246.71 121.12 -250 121 C-245.57 116.13 -240.46 112.64 -235 109 C-234.15 108.43 -234.15 108.43 -233.28 107.85 C-217.69 97.48 -201.61 87.85 -185.31 78.62 C-184.67 78.26 -184.04 77.9 -183.38 77.53 C-180.27 75.77 -177.16 74.02 -174.04 72.28 C-172.92 71.65 -171.79 71.01 -170.64 70.36 C-169.15 69.53 -169.15 69.53 -167.63 68.68 C-163.44 66 -160.79 63.69 -159.65 58.77 C-159.44 57.97 -159.24 57.17 -159.03 56.35 C-158.7 55.09 -158.7 55.09 -158.38 53.81 C-155.81 44.93 -152.66 40.37 -145 35 C-143.19 33.59 -141.39 32.15 -139.6 30.72 C-137.29 28.89 -134.96 27.09 -132.63 25.3 C-130.97 23.98 -129.38 22.59 -127.79 21.19 C-124.55 18.65 -123.02 18.52 -119 19 C-117.03 24.02 -116.59 28.56 -116.38 33.88 C-116.31 35.32 -116.24 36.77 -116.17 38.22 C-116.09 40.09 -116.09 40.09 -116 42 C-107.93 37.97 -99.87 33.93 -91.81 29.89 C-71.95 19.92 -52.05 10.06 -31.81 0.88 C-30.98 0.5 -30.15 0.12 -29.29 -0.27 C-28.52 -0.62 -27.75 -0.96 -26.96 -1.32 C-26.29 -1.62 -25.62 -1.92 -24.93 -2.23 C-16.41 -5.62 -7.74 -4.84 0 0 Z " fill="#FFFFFF" transform="translate(378,119)"/>
<path d="M0 0 C1.25 -0.01 2.51 -0.02 3.8 -0.02 C6.45 -0.04 9.1 -0.05 11.76 -0.06 C14.41 -0.07 17.07 -0.09 19.73 -0.12 C43.36 -0.38 66.52 1.41 89.42 7.55 C90.57 7.85 91.72 8.15 92.91 8.46 C134.22 19.43 173.48 38.47 206.41 65.93 C208.02 67.27 209.64 68.59 211.27 69.91 C225.43 81.59 238.76 94.69 249.98 109.24 C250.91 110.37 251.85 111.51 252.79 112.64 C286.07 152.89 307.34 203.75 314.98 255.24 C315.16 256.3 315.33 257.36 315.52 258.46 C317.36 270.83 317.35 283.2 317.35 295.69 C317.36 299.44 317.39 303.19 317.43 306.94 C317.74 373.7 292.48 439.97 249.98 491.24 C249.54 491.78 249.1 492.32 248.65 492.88 C236.61 507.67 223.09 521.58 207.98 533.24 C206.88 534.15 205.78 535.06 204.69 535.98 C162.93 570.68 109.6 592.34 55.98 599.24 C55.37 599.32 54.75 599.41 54.12 599.5 C47.4 600.35 40.72 600.43 33.96 600.48 C32.71 600.48 31.46 600.49 30.17 600.5 C27.51 600.51 24.86 600.53 22.2 600.53 C19.55 600.54 16.89 600.57 14.23 600.59 C-9.4 600.86 -32.56 599.07 -55.46 592.93 C-56.61 592.63 -57.76 592.33 -58.95 592.02 C-100.26 581.04 -139.52 562.01 -172.45 534.54 C-174.06 533.21 -175.68 531.89 -177.3 530.57 C-191.47 518.88 -204.8 505.79 -216.02 491.24 C-216.95 490.1 -217.89 488.97 -218.83 487.84 C-252.11 447.58 -273.38 396.73 -281.02 345.24 C-281.2 344.18 -281.37 343.11 -281.55 342.02 C-283.4 329.65 -283.39 317.28 -283.39 304.79 C-283.39 301.04 -283.43 297.29 -283.47 293.54 C-283.78 226.78 -258.52 160.51 -216.02 109.24 C-215.58 108.7 -215.14 108.16 -214.69 107.6 C-202.65 92.8 -189.13 78.89 -174.02 67.24 C-172.92 66.33 -171.82 65.42 -170.73 64.5 C-128.97 29.8 -75.64 8.14 -22.02 1.24 C-21.41 1.15 -20.79 1.07 -20.16 0.98 C-13.44 0.13 -6.76 0.04 0 0 Z M-29.02 30.24 C-30.61 30.53 -30.61 30.53 -32.23 30.82 C-56.85 35.48 -80.54 43.17 -103.02 54.24 C-103.8 54.62 -104.57 54.99 -105.37 55.38 C-123.47 64.23 -140.48 75.42 -156.02 88.24 C-156.6 88.72 -157.18 89.19 -157.77 89.68 C-171.4 101.02 -184.14 113.22 -195.02 127.24 C-195.9 128.33 -196.78 129.41 -197.66 130.5 C-229.26 169.69 -249.28 218.25 -255.02 268.24 C-255.11 268.99 -255.19 269.74 -255.28 270.51 C-255.91 276.35 -256.19 282.12 -256.22 288 C-256.23 288.89 -256.24 289.79 -256.24 290.72 C-256.26 293.6 -256.27 296.48 -256.27 299.36 C-256.27 300.35 -256.27 301.33 -256.27 302.35 C-256.26 317.2 -255.81 331.62 -253.02 346.24 C-252.84 347.19 -252.67 348.14 -252.48 349.12 C-244.27 392.13 -226.89 434.18 -199.02 468.24 C-198.3 469.15 -197.57 470.07 -196.82 471.01 C-184.76 486.1 -171.25 500.34 -156.02 512.24 C-155.11 512.96 -155.11 512.96 -154.18 513.7 C-105.42 552.49 -45.79 573.82 16.54 573.55 C17.46 573.55 18.38 573.55 19.33 573.54 C34.05 573.49 48.47 572.9 62.98 570.24 C64.57 569.95 64.57 569.95 66.19 569.65 C90.81 564.99 114.5 557.31 136.98 546.24 C138.15 545.67 138.15 545.67 139.34 545.1 C157.43 536.24 174.44 525.06 189.98 512.24 C190.56 511.76 191.14 511.28 191.73 510.79 C205.36 499.46 218.1 487.26 228.98 473.24 C229.86 472.15 230.74 471.06 231.62 469.98 C263.23 430.78 283.24 382.23 288.98 332.24 C289.07 331.49 289.15 330.74 289.24 329.97 C289.87 324.12 290.15 318.36 290.18 312.48 C290.19 311.58 290.2 310.68 290.2 309.76 C290.22 306.88 290.23 304 290.23 301.11 C290.23 300.13 290.23 299.14 290.23 298.13 C290.22 283.28 289.77 268.86 286.98 254.24 C286.8 253.29 286.63 252.34 286.44 251.36 C278.23 208.35 260.85 166.3 232.98 132.24 C232.26 131.32 231.53 130.41 230.79 129.46 C218.72 114.37 205.21 100.13 189.98 88.24 C189.37 87.76 188.77 87.27 188.15 86.78 C139.38 47.99 79.75 26.66 17.42 26.93 C16.5 26.93 15.58 26.93 14.64 26.93 C-0.09 26.99 -14.51 27.57 -29.02 30.24 Z " fill="#FFFFFF" transform="translate(283.01953125,-0.23828125)"/>
</svg>
