<?xml version="1.0" encoding="UTF-8"?>
<!-- Generator: https://ezgif.com/webp-to-svg -->
<svg version="1.1" xmlns="http://www.w3.org/2000/svg" width="50" height="50">
<path d="M0 0 C5.5 4.92 9.57 9.77 10.34 17.27 C10.42 24.79 9.89 29.56 6 36 C5.65 39.24 5.65 39.24 8.5 41.56 C9.33 42.37 10.15 43.17 11 44 C11 44.66 11 45.32 11 46 C9.38 46.05 7.75 46.09 6.12 46.12 C4.77 46.16 4.77 46.16 3.38 46.2 C1 46 1 46 -1 44 C-2.93 44.21 -2.93 44.21 -5.06 44.88 C-13.72 46.98 -21.19 46.71 -29 42 C-34.5 37.08 -38.57 32.23 -39.34 24.73 C-39.43 16.22 -39.07 10.45 -33.23 4.07 C-23.61 -5.06 -11.6 -7 0 0 Z M-29 8 C-28.6 10.52 -28.18 13.04 -27.75 15.56 C-27.64 16.27 -27.53 16.97 -27.42 17.7 C-26.34 23.88 -24.52 29.17 -19.25 33 C-15.17 34.26 -12.08 34.27 -8 33 C-5.05 31.1 -5.05 31.1 -3 29 C-7.9 23.82 -13.06 18.98 -19 15 C-19.66 15 -20.32 15 -21 15 C-21 14.34 -21 13.68 -21 13 C-8.33 20.11 -8.33 20.11 -3 25 C-2.34 24.67 -1.68 24.34 -1 24 C-1.41 18.75 -2.02 15.58 -6 12 C-13.07 8.26 -21.18 8.32 -29 8 Z " fill="#E92A46" transform="translate(39,4)"/>
</svg>
