<?xml version="1.0" encoding="UTF-8"?>
<!-- Generator: https://ezgif.com/png-to-svg -->
<svg version="1.1" xmlns="http://www.w3.org/2000/svg" width="512" height="512" viewBox="-36.917 -43.012 672.963 672.963" preserveAspectRatio="xMidYMid meet">
<path d="M0 0 C3.61 -0 7.22 -0.04 10.83 -0.08 C54.26 -0.29 96.47 11.18 135.27 30.37 C136.13 30.79 136.99 31.21 137.87 31.64 C154.92 40.06 170.45 50.49 185.27 62.37 C186.21 63.11 187.14 63.85 188.1 64.6 C203.86 77.27 218.85 91.39 231.27 107.37 C232.35 108.71 233.43 110.05 234.51 111.39 C269.44 154.97 289.61 207.15 296.27 262.37 C296.38 263.22 296.48 264.08 296.59 264.96 C297.55 273.9 297.52 282.88 297.52 291.87 C297.53 293.16 297.53 293.16 297.53 294.48 C297.51 309.62 296.68 324.4 294.27 339.37 C294.03 340.93 294.03 340.93 293.77 342.51 C285.93 389.35 266.19 432.25 238.27 470.37 C236.6 472.7 234.94 475.04 233.27 477.37 C229.89 475.9 227.68 474.03 225.09 471.42 C224.26 470.59 223.44 469.77 222.58 468.92 C221.68 468.01 220.79 467.1 219.86 466.17 C218.9 465.2 217.93 464.24 216.97 463.27 C214.9 461.2 212.83 459.12 210.76 457.04 C207.49 453.74 204.21 450.45 200.93 447.17 C195.73 441.96 190.54 436.74 185.35 431.53 C176.07 422.21 166.79 412.89 157.5 403.58 C154.24 400.32 150.99 397.05 147.74 393.78 C145.71 391.74 143.68 389.7 141.64 387.66 C140.26 386.28 138.88 384.89 137.51 383.5 C133.1 379.09 128.64 374.82 123.9 370.77 C121.93 369.07 120.09 367.28 118.27 365.43 C117.61 364.77 116.95 364.1 116.27 363.41 C114.94 362.05 113.61 360.69 112.27 359.33 C109.07 356.08 105.83 352.94 102.37 349.96 C96.71 345.09 91.57 339.71 86.34 334.4 C82.06 330.07 77.71 325.93 73.1 321.97 C70.36 319.56 67.82 316.98 65.27 314.37 C61.5 310.55 57.68 306.88 53.59 303.4 C50.3 300.52 47.14 297.5 43.96 294.5 C38.73 289.58 33.42 284.92 27.81 280.44 C25.27 278.37 22.87 276.21 20.46 274 C16.03 269.95 11.39 266.26 6.65 262.59 C2.69 259.52 -1.13 256.34 -4.91 253.06 C-12.36 246.65 -20.3 240.94 -28.25 235.17 C-33.06 231.67 -37.84 228.12 -42.63 224.58 C-46.69 221.58 -50.77 218.62 -54.89 215.71 C-55.72 215.11 -56.55 214.52 -57.41 213.91 C-59 212.78 -60.6 211.66 -62.2 210.54 C-62.91 210.04 -63.63 209.54 -64.36 209.02 C-64.99 208.58 -65.61 208.14 -66.26 207.68 C-67.73 206.37 -67.73 206.37 -68.73 203.37 C-33.28 214.72 0.83 236.33 31.27 257.37 C31.98 257.86 32.69 258.34 33.41 258.84 C43.62 265.89 53.53 273.28 63.33 280.87 C65.11 282.24 66.89 283.6 68.67 284.96 C76.09 290.61 83.34 296.44 90.56 302.34 C93.51 304.75 96.48 307.13 99.46 309.5 C103.84 312.99 108.12 316.6 112.38 320.23 C115.87 323.2 119.4 326.11 122.96 329 C128.23 333.28 133.25 337.8 138.27 342.37 C145.16 348.51 152.23 354.43 159.27 360.37 C161.91 352.69 163.88 345.02 165.46 337.06 C165.63 336.22 165.8 335.39 165.97 334.53 C167.46 326.82 168.43 319.27 168.51 311.42 C168.52 310.68 168.53 309.95 168.54 309.19 C168.71 293.53 168.74 278.52 164.27 263.37 C164.07 262.62 163.86 261.86 163.64 261.09 C152.72 222.28 124.81 194.66 90.52 175.25 C61.84 159.44 30.81 152.27 -1.38 147.86 C-3.22 147.61 -5.05 147.36 -6.89 147.1 C-11.09 146.52 -15.29 145.94 -19.48 145.37 C-26.81 144.36 -34.14 143.35 -41.47 142.34 C-54.9 140.48 -68.33 138.63 -81.75 136.78 C-82.56 136.67 -83.37 136.56 -84.2 136.45 C-93.36 135.18 -102.52 133.92 -111.68 132.66 C-119.09 131.64 -126.49 130.62 -133.9 129.6 C-138.54 128.96 -143.18 128.32 -147.82 127.69 C-150.68 127.29 -153.54 126.9 -156.4 126.5 C-158.35 126.23 -160.3 125.97 -162.25 125.7 C-163.42 125.54 -164.59 125.38 -165.79 125.21 C-167.3 125 -167.3 125 -168.84 124.79 C-171.81 124.36 -174.77 123.87 -177.73 123.37 C-169.67 180.02 -169.67 180.02 -159.73 236.37 C-159.55 237.27 -159.37 238.17 -159.19 239.1 C-147.34 299.74 -133.58 362.3 -89.73 408.37 C-89.03 409.13 -88.34 409.88 -87.63 410.66 C-63 436.72 -27.04 452.42 8.7 453.44 C43.94 453.73 77.56 443.63 106.61 423.85 C124 412.04 124 412.04 132.06 412.87 C147.42 416.36 160.39 433.2 171.07 443.91 C172.61 445.44 174.15 446.98 175.69 448.51 C179.83 452.64 183.96 456.78 188.09 460.92 C192.43 465.26 196.77 469.6 201.11 473.93 C208.38 481.2 215.64 488.47 222.91 495.74 C231.31 504.16 239.72 512.57 248.14 520.97 C255.37 528.2 262.61 535.43 269.83 542.66 C274.15 546.98 278.46 551.29 282.78 555.6 C286.83 559.65 290.87 563.7 294.91 567.75 C296.4 569.24 297.89 570.72 299.38 572.21 C301.4 574.23 303.42 576.25 305.44 578.28 C306.04 578.88 306.64 579.47 307.25 580.08 C311.27 584.14 311.27 584.14 311.27 586.37 C296.98 586.49 282.68 586.58 268.38 586.63 C261.73 586.66 255.09 586.69 248.45 586.75 C242.04 586.8 235.63 586.83 229.22 586.84 C226.77 586.85 224.33 586.87 221.89 586.9 C218.46 586.94 215.03 586.94 211.6 586.94 C210.6 586.96 209.6 586.97 208.56 586.99 C200.33 586.93 194.27 584.42 187.74 579.44 C187.14 578.83 186.54 578.22 185.93 577.59 C185.23 576.89 184.53 576.19 183.81 575.47 C183.09 574.73 182.38 573.99 181.64 573.23 C180.88 572.46 180.12 571.69 179.33 570.89 C176.93 568.46 174.54 566.01 172.15 563.56 C170.51 561.89 168.87 560.23 167.23 558.57 C163.23 554.52 159.25 550.45 155.27 546.37 C151.79 547.48 148.54 548.62 145.34 550.4 C144.62 550.8 143.9 551.19 143.16 551.59 C142.4 552.02 141.63 552.44 140.84 552.87 C107.7 570.59 71.66 581.49 34.27 585.37 C32.95 585.51 32.95 585.51 31.59 585.66 C7.41 587.97 -17.77 587.24 -41.73 583.37 C-42.86 583.19 -43.99 583.01 -45.16 582.82 C-72.29 578.22 -99.11 569.73 -123.73 557.37 C-124.67 556.9 -125.62 556.43 -126.59 555.94 C-137.74 550.36 -148.6 544.68 -158.73 537.37 C-160.34 536.25 -160.34 536.25 -161.99 535.12 C-182.74 520.71 -202.48 503.77 -218.73 484.37 C-219.16 483.87 -219.59 483.37 -220.03 482.85 C-260.45 435.75 -288.55 371.61 -288.96 308.97 C-288.97 307.78 -288.98 306.6 -288.99 305.37 C-289 302.85 -289.01 300.34 -289.02 297.82 C-289.03 295.3 -289.05 292.78 -289.08 290.27 C-289.59 246.98 -279.9 204.25 -260.73 165.37 C-260.28 164.46 -259.84 163.56 -259.39 162.62 C-249.63 142.76 -237.89 124.37 -223.73 107.37 C-223.26 106.8 -222.79 106.23 -222.31 105.65 C-209.32 89.89 -194.98 74.7 -178.44 62.64 C-176.62 61.29 -174.83 59.9 -173.05 58.5 C-138.44 31.55 -97.63 14.05 -54.85 5.06 C-53.7 4.82 -52.55 4.57 -51.36 4.32 C-34.18 0.87 -17.5 -0 0 0 Z " fill="#E82B44" transform="translate(288.72509765625,-0.37060546875)"/>
</svg>
