<?xml version="1.0" encoding="UTF-8"?>
<!-- Generator: https://ezgif.com/png-to-svg -->
<svg version="1.1" xmlns="http://www.w3.org/2000/svg" width="512" height="512" viewBox="-22.267 -22.637 361.637 361.637" preserveAspectRatio="xMidYMid meet">
<path d="M0 0 C1.19 -0.01 1.19 -0.01 2.4 -0.02 C4.07 -0.03 5.74 -0.03 7.41 -0.04 C9.9 -0.05 12.4 -0.08 14.89 -0.11 C56.4 -0.38 93.69 18.08 123.13 46.52 C153.05 77.18 167.09 116.77 166.86 159.19 C166.67 169.43 165.8 179.22 163.5 189.2 C163.34 189.94 163.17 190.68 163 191.45 C157.88 213.52 147.51 233.5 133.5 251.2 C129.16 250.74 127.17 248.14 124.25 245.08 C121.19 241.88 118.13 238.84 114.76 235.95 C109.8 231.66 105.23 227 100.63 222.33 C98.95 220.62 97.26 218.91 95.57 217.21 C94.47 216.09 94.47 216.09 93.35 214.95 C91.61 213.14 91.61 213.14 89.5 212.2 C89.5 211.54 89.5 210.88 89.5 210.2 C88.95 209.98 88.39 209.75 87.82 209.52 C84.84 207.83 82.9 205.65 80.5 203.2 C79.44 202.13 78.38 201.06 77.31 199.99 C76.73 199.42 76.16 198.84 75.57 198.24 C72.96 195.62 70.36 193.01 67.75 190.39 C66.38 189.02 65.02 187.65 63.65 186.27 C61.66 184.27 59.67 182.27 57.67 180.27 C57.07 179.67 56.47 179.06 55.86 178.44 C52.15 174.73 48.32 171.23 44.33 167.82 C42.51 166.21 40.81 164.52 39.13 162.77 C35.54 159.08 31.54 156.01 27.45 152.9 C26.8 152.34 26.16 151.78 25.5 151.2 C25.5 150.54 25.5 149.88 25.5 149.2 C24.97 148.98 24.43 148.76 23.88 148.53 C20.72 146.77 18.19 144.41 15.5 142.02 C8.84 136.17 1.84 130.87 -5.28 125.59 C-11.51 120.97 -17.57 116.22 -23.5 111.2 C-22.84 110.87 -22.18 110.54 -21.5 110.2 C-17.97 111.41 -14.66 113.15 -11.31 114.77 C-10.28 115.26 -9.26 115.75 -8.2 116.26 C8.96 124.72 24.78 134.86 39.71 146.79 C42.26 148.8 44.88 150.72 47.5 152.64 C58.4 160.78 68.73 169.67 79.08 178.49 C83.45 182.2 87.93 185.74 92.5 189.2 C98.79 182.92 98.49 167.7 98.5 159.2 C97.31 137.54 89.23 119.26 73.5 104.2 C65.45 97.21 56.14 92.6 46.5 88.2 C45.44 87.72 44.38 87.23 43.29 86.73 C37.32 84.22 31.32 82.6 24.98 81.34 C24.13 81.17 23.28 81 22.4 80.83 C10.05 78.45 -2.42 76.79 -14.87 75.05 C-17.66 74.66 -20.44 74.27 -23.23 73.88 C-44.31 70.9 -65.39 67.99 -86.5 65.2 C-78.25 128.94 -78.25 128.94 -57.5 189.2 C-57.17 189.87 -56.84 190.53 -56.51 191.21 C-51.26 201.73 -44.88 210.01 -36.5 218.2 C-35.76 218.96 -35.02 219.72 -34.26 220.5 C-20.42 233.93 -1.13 239.48 17.74 239.45 C36.26 239.16 51.96 232.14 67.54 222.81 C72.32 220.03 75.82 218.2 81.5 219.2 C84.35 220.93 84.35 220.93 87 223.27 C87.94 224.08 88.88 224.9 89.85 225.75 C92.67 228.35 95.41 231 98.07 233.77 C99.59 235.36 99.59 235.36 101.94 237.02 C102.46 237.41 102.97 237.8 103.5 238.2 C103.5 238.86 103.5 239.52 103.5 240.2 C104.1 240.48 104.7 240.75 105.31 241.03 C107.45 242.17 108.83 243.28 110.53 244.98 C111.1 245.55 111.67 246.11 112.25 246.69 C113.17 247.62 113.17 247.62 114.11 248.56 C114.76 249.22 115.42 249.87 116.09 250.54 C118.25 252.7 120.4 254.86 122.55 257.02 C124.05 258.52 125.54 260.01 127.04 261.51 C130.17 264.65 133.3 267.78 136.43 270.92 C140.45 274.96 144.48 278.99 148.5 283.02 C151.59 286.11 154.68 289.2 157.76 292.29 C159.25 293.78 160.73 295.26 162.22 296.75 C164.29 298.82 166.35 300.9 168.42 302.97 C169.35 303.9 169.35 303.9 170.3 304.85 C174.5 309.09 174.5 309.09 174.5 310.2 C166.93 310.3 159.36 310.37 151.79 310.41 C148.27 310.43 144.76 310.46 141.24 310.5 C137.19 310.56 133.14 310.58 129.09 310.59 C127.84 310.61 126.58 310.64 125.29 310.66 C116.86 310.66 112.6 309.71 106.15 304.19 C105.47 303.5 104.8 302.81 104.1 302.09 C103.36 301.34 102.61 300.59 101.85 299.81 C101.09 299.03 100.34 298.25 99.57 297.45 C98.79 296.66 98.01 295.87 97.21 295.05 C95.3 293.11 93.4 291.16 91.5 289.2 C90.75 289.57 90.75 289.57 89.98 289.95 C48.96 309.98 4.24 317.15 -39.8 302.43 C-62.23 294.63 -81.35 282.63 -98.5 266.2 C-99.36 265.4 -100.23 264.59 -101.12 263.77 C-121.1 244.67 -134.55 219.85 -141.5 193.2 C-141.7 192.44 -141.89 191.68 -142.1 190.9 C-147.57 168.86 -148.39 142.23 -142.5 120.2 C-142.31 119.46 -142.13 118.72 -141.94 117.96 C-137.28 99.21 -129.22 80.64 -117.5 65.2 C-116.85 64.35 -116.21 63.5 -115.54 62.62 C-110.81 56.56 -105.72 50.83 -100.5 45.2 C-99.96 44.61 -99.42 44.02 -98.86 43.41 C-74.47 17.67 -35.49 0.2 0 0 Z " fill="#0A8A4C" transform="translate(145.49609375,-0.203125)"/>
</svg>
