<?xml version="1.0" encoding="UTF-8"?>
<!-- Generator: https://ezgif.com/png-to-svg -->
<svg version="1.1" xmlns="http://www.w3.org/2000/svg" width="512" height="512" viewBox="-16.936 -148.5 894.876 894.876" preserveAspectRatio="xMidYMid meet">
<path d="M0 0 C0.82 -0.01 1.63 -0.01 2.48 -0.02 C8.13 -0.01 8.13 -0.01 9.25 1.11 C14.65 81.41 -8.24 165.03 -39.75 238.11 C-40.43 239.71 -41.11 241.3 -41.78 242.9 C-54.9 273.71 -71.67 303.62 -90.75 331.11 C-91.25 331.83 -91.74 332.54 -92.25 333.28 C-102.66 348.36 -113.21 363.23 -125.18 377.11 C-127.54 379.86 -129.81 382.66 -132.07 385.48 C-137.41 392.05 -143.24 398.14 -149.05 404.29 C-151.09 406.47 -153.09 408.67 -155.09 410.87 C-162.49 419.03 -170.09 426.96 -178.47 434.11 C-180.95 436.28 -183.34 438.52 -185.74 440.77 C-192.2 446.84 -198.81 452.59 -205.75 458.11 C-206.87 459.02 -207.99 459.93 -209.1 460.84 C-229.56 477.47 -251.15 492.53 -273.75 506.11 C-275.09 506.94 -276.43 507.76 -277.77 508.59 C-279.14 509.43 -280.51 510.27 -281.88 511.11 C-282.52 511.51 -283.16 511.91 -283.82 512.32 C-288.41 515.11 -288.41 515.11 -291.75 515.11 C-292.03 498.72 -292.25 482.34 -292.38 465.95 C-292.44 458.34 -292.52 450.73 -292.66 443.12 C-292.78 436.49 -292.86 429.85 -292.88 423.22 C-292.9 419.71 -292.93 416.2 -293.02 412.69 C-293.58 389.62 -293.58 389.62 -289.18 384.25 C-286.36 381.59 -283.2 379.87 -279.75 378.11 C-278.04 376.81 -276.35 375.48 -274.69 374.11 C-273.89 373.47 -273.09 372.83 -272.26 372.18 C-268.5 369.08 -264.93 365.79 -261.35 362.49 C-259.12 360.45 -256.86 358.46 -254.57 356.48 C-250.43 352.89 -246.59 349.02 -242.75 345.11 C-232.75 335.11 -232.75 335.11 -230.7 333.09 C-229.97 332.37 -229.25 331.66 -228.5 330.92 C-227.48 329.91 -227.48 329.91 -226.43 328.88 C-224.68 327.2 -224.68 327.2 -223.75 325.11 C-223.09 325.11 -222.43 325.11 -221.75 325.11 C-221.39 324.26 -221.39 324.26 -221.02 323.4 C-219.52 320.68 -217.69 318.69 -215.57 316.42 C-211.32 311.87 -207.53 307.05 -203.75 302.11 C-203.15 301.32 -202.54 300.52 -201.92 299.71 C-194.56 290.04 -187.26 280.38 -180.75 270.11 C-180.23 269.29 -179.7 268.47 -179.16 267.63 C-170.07 253.44 -161.46 239.1 -153.75 224.11 C-153.17 222.98 -152.59 221.84 -151.99 220.68 C-134.76 186.98 -122.23 151.72 -112.75 115.11 C-165.6 120.24 -217.89 126.88 -269.81 138.18 C-271.11 138.46 -271.11 138.46 -272.44 138.75 C-274.04 139.09 -275.65 139.45 -277.25 139.8 C-281.02 140.62 -284.79 141.33 -288.61 141.89 C-289.32 141.99 -290.04 142.1 -290.78 142.21 C-293.32 142.08 -294.18 141.27 -295.94 139.5 C-296.91 138.29 -297.84 137.05 -298.75 135.8 C-299.78 134.49 -300.81 133.19 -301.84 131.88 C-302.58 130.91 -302.58 130.91 -303.33 129.92 C-305.25 127.48 -307.33 125.2 -309.44 122.92 C-312.43 119.63 -315.28 116.26 -318.07 112.8 C-321.96 107.98 -326.08 103.46 -330.31 98.95 C-334.23 94.74 -337.87 90.35 -341.48 85.86 C-344.41 82.32 -347.53 78.96 -350.66 75.6 C-354.55 71.4 -358.16 67 -361.74 62.52 C-363.51 60.41 -365.32 58.5 -367.32 56.61 C-369.75 54.11 -369.75 54.11 -369.75 51.11 C-360.68 48.45 -351.58 46 -342.38 43.8 C-340.52 43.35 -340.52 43.35 -338.62 42.89 C-324.04 39.42 -309.41 36.2 -294.75 33.11 C-294.08 32.97 -293.41 32.83 -292.72 32.68 C-266.19 27.08 -239.51 22.44 -212.75 18.11 C-211.88 17.97 -211.01 17.83 -210.11 17.68 C-151.11 8.15 -91.49 3.44 -31.82 0.86 C-30.87 0.82 -29.93 0.78 -28.95 0.73 C-19.3 0.32 -9.66 0.04 0 0 Z " fill="#FE5800" transform="translate(400.75390625,39.890625)"/>
<path d="M0 0 C13.33 -0.1 26.62 0.17 39.94 0.75 C40.93 0.79 41.92 0.84 42.94 0.88 C147.81 5.54 250.58 19.97 352.67 44.21 C355.93 44.98 359.19 45.75 362.45 46.51 C364.39 46.97 366.32 47.42 368.25 47.88 C369.12 48.08 369.99 48.28 370.89 48.49 C376.77 49.89 376.77 49.89 379 51 C377.29 55.15 374.36 58.29 371.44 61.62 C370.9 62.25 370.36 62.87 369.81 63.51 C365.98 67.92 362.07 72.26 358.14 76.58 C355.89 79.12 353.75 81.73 351.62 84.38 C347.94 88.93 344.07 93.24 340.09 97.52 C337.1 100.75 334.26 104.07 331.5 107.5 C327.87 112.01 324.04 116.27 320.1 120.51 C316.99 123.86 314.06 127.31 311.19 130.88 C310.46 131.76 309.73 132.65 308.98 133.57 C307.78 135.04 306.6 136.53 305.46 138.05 C304.06 139.75 304.06 139.75 301 142 C293.86 142.27 286.4 140.21 279.44 138.81 C277.11 138.36 274.79 137.9 272.46 137.45 C271.24 137.21 270.02 136.97 268.76 136.73 C234.24 130.05 199.55 124.25 164.69 119.69 C163.75 119.56 162.82 119.44 161.86 119.31 C148.27 117.53 134.66 116.15 121 115 C142.19 186.12 171.47 254.24 220.41 310.97 C222.88 313.85 225.26 316.79 227.62 319.75 C231.14 324.07 234.89 328 238.88 331.88 C240.87 333.87 242.73 335.92 244.56 338.06 C249.87 344.23 255.65 349.8 261.81 355.09 C264.36 357.31 266.83 359.59 269.31 361.88 C272.89 365.13 276.51 368.31 280.25 371.38 C281.09 372.09 281.94 372.81 282.8 373.54 C285.03 375.35 287.26 376.72 289.79 378.06 C295.26 381.21 299.97 384.55 301.84 390.82 C303.05 398.79 302.77 406.83 302.52 414.86 C302.43 418.39 302.42 421.92 302.4 425.44 C302.35 432.11 302.23 438.77 302.08 445.43 C301.91 453.02 301.83 460.61 301.75 468.2 C301.6 483.8 301.34 499.4 301 515 C297.22 514.32 294.61 513.39 291.34 511.34 C290.47 510.8 289.6 510.26 288.7 509.7 C287.79 509.12 286.88 508.54 285.94 507.94 C284.99 507.34 284.05 506.75 283.08 506.14 C276.31 501.87 269.6 497.52 263 493 C261.71 492.13 260.43 491.26 259.14 490.39 C239.03 476.71 219.49 461.82 201.57 445.36 C196.99 441.16 192.34 437.07 187.5 433.19 C186.67 432.47 185.85 431.74 185 431 C185 430.34 185 429.68 185 429 C184.44 428.77 183.88 428.53 183.31 428.3 C180.4 426.66 178.4 424.64 176.04 422.27 C175.58 421.81 175.11 421.34 174.63 420.86 C173.65 419.87 172.66 418.88 171.68 417.89 C170.21 416.4 168.72 414.91 167.24 413.43 C162.49 408.66 157.87 403.84 153.49 398.73 C151.32 396.21 149.03 393.8 146.75 391.38 C141.81 386.04 137.32 380.44 132.88 374.69 C130.39 371.47 127.81 368.32 125.21 365.18 C117.99 356.44 111.38 347.37 105 338 C104.5 337.27 104 336.54 103.49 335.79 C96.43 325.43 89.72 314.89 83.29 304.14 C82.1 302.17 80.9 300.21 79.69 298.25 C67.25 277.89 55.99 256.1 47 234 C46.31 232.31 46.31 232.31 45.6 230.59 C22.29 173.71 5.1 113.57 1 52 C0.94 51.22 0.89 50.45 0.83 49.65 C-0.35 33.13 -0.1 16.56 0 0 Z " fill="#FE5800" transform="translate(451,40)"/>
<path d="M0 0 C0.9 0 1.8 0 2.73 0.01 C3.68 0 4.62 0 5.6 0 C8.73 -0 11.87 -0 15.01 0 C17.18 0 19.35 0 21.53 -0 C26.08 -0 30.64 0 35.19 0.01 C41.05 0.01 46.9 0.01 52.76 0 C57.24 -0 61.73 -0 66.21 0 C68.37 0 70.53 0 72.69 -0 C75.7 -0 78.72 0 81.73 0.01 C82.63 0 83.53 0 84.46 0 C90.62 0.02 90.62 0.02 91.73 1.14 C91.84 2.63 91.88 4.14 91.89 5.64 C91.9 6.62 91.91 7.59 91.93 8.59 C91.93 10.21 91.93 10.21 91.94 11.86 C91.95 12.99 91.96 14.12 91.97 15.28 C92.05 25.74 92.06 36.19 92.04 46.65 C92.03 54.37 92.06 62.09 92.14 69.8 C92.2 75.9 92.19 81.99 92.16 88.09 C92.16 90.67 92.18 93.25 92.22 95.83 C92.55 119.2 92.55 119.2 85.03 127.41 C83.51 128.92 81.96 130.33 80.33 131.72 C77.52 134.21 75.06 137.04 72.54 139.82 C71.54 140.9 70.54 141.98 69.54 143.05 C66.19 146.69 63.1 150.53 60.01 154.39 C57.07 157.93 53.95 161.29 50.81 164.66 C47.84 167.87 45.03 171.16 42.29 174.57 C37.93 179.99 33.25 185.06 28.5 190.15 C24.2 194.77 20.09 199.54 15.99 204.35 C0.55 222.45 0.55 222.45 -6.27 229.14 C-8.14 227.26 -7.39 224.56 -7.4 222.07 C-7.4 221.19 -7.4 220.31 -7.4 219.4 C-7.4 218.48 -7.4 217.55 -7.4 216.59 C-7.4 213.46 -7.4 210.33 -7.4 207.2 C-7.4 204.97 -7.4 202.73 -7.4 200.5 C-7.41 194.41 -7.41 188.32 -7.4 182.23 C-7.4 175.87 -7.4 169.52 -7.4 163.16 C-7.41 151.8 -7.4 140.44 -7.4 129.08 C-7.39 118.76 -7.39 108.45 -7.4 98.14 C-7.4 86.18 -7.41 74.22 -7.4 62.26 C-7.4 55.92 -7.4 49.59 -7.41 43.25 C-7.41 37.29 -7.41 31.34 -7.4 25.38 C-7.4 23.19 -7.4 21 -7.4 18.81 C-7.4 15.83 -7.4 12.85 -7.4 9.87 C-7.4 8.99 -7.4 8.11 -7.4 7.2 C-7.38 0.05 -7.13 0.02 0 0 Z " fill="#FE5800" transform="translate(388.26905822753906,328.8644714355469)"/>
</svg>
