<?xml version="1.0" encoding="UTF-8"?>
<!-- Generator: https://ezgif.com/png-to-svg -->
<svg version="1.1" xmlns="http://www.w3.org/2000/svg" width="512" height="512" viewBox="-254.768 -59.413 1109.046 1109.046" preserveAspectRatio="xMidYMid meet">
<path d="M0 0 C1.98 0 3.96 0 6 0 C6 0.66 6 1.32 6 2 C6.66 2 7.32 2 8 2 C8.41 2.99 8.82 3.98 9.25 5 C10.72 8.48 12.43 11.79 14.23 15.11 C15 17 15 17 15 21 C15.66 21.33 16.32 21.66 17 22 C17.88 23.89 18.68 25.81 19.44 27.75 C21.01 31.76 22.75 35.33 25 39 C26.21 41.37 27.39 43.74 28.56 46.12 C34.6 58.32 40.98 70.35 47.52 82.29 C52.75 91.86 57.8 101.42 62.3 111.37 C63.55 114.09 64.74 116.65 66.54 119.05 C68.6 121.81 69.69 124.83 71 128 C72.04 130.15 73.11 132.3 74.19 134.44 C74.81 135.67 75.43 136.91 76.05 138.14 C76.38 138.78 76.7 139.41 77.03 140.06 C77.99 141.97 78.94 143.88 79.88 145.8 C84 154.11 88.24 162.34 92.59 170.53 C94.78 174.66 96.91 178.82 99 183 C100.59 185.73 102.25 188.37 104 191 C104 192.32 104 193.64 104 195 C104.66 195 105.32 195 106 195 C106.82 196.56 107.63 198.12 108.44 199.69 C108.89 200.56 109.34 201.43 109.81 202.32 C110.96 204.91 111.56 207.21 112 210 C112.99 210.33 113.98 210.66 115 211 C117.02 212.2 119.01 213.43 121 214.69 C125.94 217.77 130.94 220.66 136.08 223.41 C141.78 226.51 147.38 229.77 153 233 C153 233.66 153 234.32 153 235 C153.78 235.14 154.57 235.29 155.38 235.44 C158 236 158 236 160 237 C160 237.66 160 238.32 160 239 C160.85 239.26 161.7 239.51 162.57 239.77 C166.24 241.08 169.47 242.75 172.88 244.62 C174.03 245.26 175.18 245.89 176.37 246.54 C177.24 247.02 178.1 247.5 179 248 C179 248.66 179 249.32 179 250 C180.65 250.33 182.3 250.66 184 251 C184 251.66 184 252.32 184 253 C184.55 253.1 185.09 253.21 185.65 253.32 C188.55 254.16 190.91 255.47 193.54 256.95 C194.62 257.55 195.69 258.15 196.8 258.77 C197.92 259.4 199.04 260.04 200.19 260.69 C201.29 261.3 202.39 261.91 203.52 262.54 C209.2 265.74 214.71 269.06 220.09 272.74 C222.49 274.33 224.97 275.63 227.56 276.88 C228.83 277.49 228.83 277.49 230.13 278.12 C230.75 278.41 231.36 278.7 232 279 C232 279.66 232 280.32 232 281 C234.31 281.33 236.62 281.66 239 282 C239 282.66 239 283.32 239 284 C239.7 284.09 240.4 284.18 241.12 284.27 C244.64 285.16 247.07 286.72 250.12 288.69 C255.17 291.89 260.28 294.87 265.56 297.68 C272.81 301.61 272.81 301.61 274 304 C275.65 304.71 277.32 305.37 279 306 C280.78 306.86 282.55 307.73 284.31 308.62 C285.2 309.07 286.08 309.52 286.99 309.98 C287.98 310.48 287.98 310.48 289 311 C289 311.66 289 312.32 289 313 C289.7 313.27 290.4 313.54 291.12 313.81 C295.32 315.55 299.22 317.48 303 320 C303.38 322.47 303.38 322.47 303.4 325.66 C303.42 327.48 303.42 327.48 303.43 329.34 C303.43 330.7 303.43 332.05 303.43 333.41 C303.44 334.84 303.45 336.28 303.46 337.71 C303.48 341.66 303.49 345.61 303.49 349.57 C303.5 353.82 303.53 358.08 303.55 362.33 C303.6 372.62 303.62 382.91 303.64 393.19 C303.65 398.03 303.66 402.87 303.67 407.72 C303.72 423.8 303.75 439.89 303.76 455.97 C303.77 457 303.77 458.03 303.77 459.1 C303.77 460.13 303.77 461.16 303.77 462.23 C303.77 464.32 303.77 466.41 303.78 468.5 C303.78 469.54 303.78 470.58 303.78 471.65 C303.79 488.47 303.85 505.29 303.93 522.11 C304.01 539.37 304.06 556.63 304.06 573.89 C304.07 583.59 304.09 593.28 304.15 602.98 C304.2 611.23 304.22 619.49 304.19 627.75 C304.18 631.96 304.19 636.17 304.23 640.39 C304.28 644.24 304.27 648.1 304.23 651.95 C304.23 653.35 304.24 654.75 304.27 656.14 C304.35 660.28 304.29 664.05 303 668 C299.74 671.18 295.71 674 291 674 C291 674.66 291 675.32 291 676 C289.35 676.33 287.7 676.66 286 677 C286 677.66 286 678.32 286 679 C283.88 680.17 281.75 681.34 279.62 682.5 C278.72 683 278.72 683 277.8 683.51 C273.23 686 273.23 686 271 686 C270.67 686.66 270.34 687.32 270 688 C268.58 688.91 267.11 689.76 265.62 690.56 C264.83 691 264.04 691.43 263.23 691.88 C261 693 261 693 258 694 C258.02 695.47 258.02 695.47 258.04 696.97 C258.16 706.21 258.25 715.45 258.31 724.69 C258.34 729.44 258.38 734.2 258.45 738.95 C258.52 743.53 258.55 748.11 258.57 752.7 C258.58 754.45 258.6 756.2 258.63 757.95 C258.68 760.4 258.68 762.84 258.68 765.29 C258.71 766.38 258.71 766.38 258.75 767.49 C258.72 769.52 258.72 769.52 258 773 C253.3 777 253.3 777 250 777 C250 777.66 250 778.32 250 779 C247.87 780.52 247.87 780.52 245 782.25 C240.64 784.93 236.56 787.75 232.56 790.93 C231 792 231 792 229 792 C229 792.66 229 793.32 229 794 C227.34 795.17 225.62 796.26 223.88 797.31 C220.64 799.31 217.54 801.23 214.69 803.75 C211.57 806.36 208.21 809 204 809 C204 809.66 204 810.32 204 811 C203.01 811 202.02 811 201 811 C201 811.66 201 812.32 201 813 C199.21 813.98 197.42 814.95 195.63 815.93 C193.83 816.91 193.83 816.91 193 819 C190.44 819.62 190.44 819.62 188 820 C188 820.66 188 821.32 188 822 C186.32 823.29 186.32 823.29 184.12 824.62 C183.05 825.29 183.05 825.29 181.95 825.98 C180 827 180 827 178 827 C177.67 827.99 177.34 828.98 177 830 C175.22 831.39 175.22 831.39 173.06 832.69 C172 833.34 172 833.34 170.91 834.01 C169 835 169 835 167 835 C167 835.66 167 836.32 167 837 C160.38 840.88 160.38 840.88 157 842 C157 842.66 157 843.32 157 844 C155.37 845.05 153.69 846.04 152 847 C150.41 848.09 148.82 849.19 147.25 850.31 C143.85 852.71 140.44 855.1 137 857.44 C136.28 857.93 135.56 858.42 134.81 858.93 C133 860 133 860 131 860 C131 860.66 131 861.32 131 862 C130.01 862 129.02 862 128 862 C128 862.66 128 863.32 128 864 C127.01 864.66 126.02 865.32 125 866 C124.67 869.06 124.67 869.06 124.88 872.66 C124.89 874.03 124.91 875.39 124.92 876.76 C124.95 878.9 125 881.04 125.09 883.19 C125.56 895.07 125.56 895.07 121.69 899.85 C118.9 902.15 116.08 904.11 113 906 C111.89 906.81 110.79 907.62 109.7 908.45 C108.85 909.05 108 909.64 107.12 910.25 C104.21 912.33 101.48 914.35 99 916.94 C97 919 97 919 94 920 C93.67 920.66 93.34 921.32 93 922 C92.01 922 91.02 922 90 922 C89.67 922.99 89.34 923.98 89 925 C88.01 925 87.02 925 86 925 C85.67 925.99 85.34 926.98 85 928 C83.22 929.61 83.22 929.61 81.06 931.19 C80.35 931.72 79.64 932.25 78.91 932.79 C77 934 77 934 75 934 C75 934.66 75 935.32 75 936 C74.04 936.15 74.04 936.15 73.06 936.31 C72.38 936.54 71.7 936.77 71 937 C70.67 937.99 70.34 938.98 70 940 C68.05 941.66 66.13 943.18 64.06 944.69 C63.51 945.1 62.96 945.52 62.39 945.95 C58.27 949 58.27 949 56 949 C56 949.66 56 950.32 56 951 C54.58 952.28 54.58 952.28 52.61 953.71 C51.9 954.24 51.19 954.76 50.46 955.29 C49.71 955.84 48.96 956.38 48.19 956.94 C46.72 958.01 45.26 959.08 43.79 960.15 C42.81 960.86 42.81 960.86 41.81 961.59 C40.06 962.95 38.56 964.42 37 966 C34.2 968.07 31.35 970.06 28.5 972.06 C25.82 973.93 25.82 973.93 24 977 C23.01 977 22.02 977 21 977 C20.67 977.99 20.34 978.98 20 980 C18.02 981.36 16.02 982.7 14 984 C13.67 984.66 13.34 985.32 13 986 C12.34 986 11.68 986 11 986 C11 986.66 11 987.32 11 988 C7.69 990.21 6.66 990.22 2.81 990.12 C1.91 990.11 1.01 990.09 0.08 990.07 C-0.95 990.04 -0.95 990.04 -2 990 C-2 989.34 -2 988.68 -2 988 C-2.56 987.94 -3.11 987.88 -3.69 987.81 C-6.96 986.66 -8.63 984.49 -11 982 C-11.76 981.44 -12.53 980.89 -13.31 980.31 C-14.15 979.66 -14.15 979.66 -15 979 C-15 978.34 -15 977.68 -15 977 C-15.79 976.66 -15.79 976.66 -16.6 976.31 C-19.8 974.56 -22.54 972.33 -25.38 970.06 C-26.62 969.07 -27.86 968.09 -29.11 967.1 C-29.75 966.59 -30.39 966.08 -31.04 965.56 C-34.23 963.02 -37.43 960.51 -40.62 958 C-41.2 957.54 -41.78 957.09 -42.38 956.62 C-44.69 954.8 -46.99 953 -49.4 951.31 C-50.19 950.66 -50.19 950.66 -51 950 C-51 949.34 -51 948.68 -51 948 C-51.99 948 -52.98 948 -54 948 C-55.69 946.36 -57.35 944.69 -59 943 C-60.99 941.66 -62.99 940.32 -65 939 C-65.33 938.34 -65.66 937.68 -66 937 C-66.99 936.67 -67.98 936.34 -69 936 C-70.12 934.85 -71.24 933.69 -72.35 932.52 C-75.14 929.95 -78.34 927.94 -81.5 925.84 C-84 924 -84 924 -86.42 921.57 C-90.11 917.89 -94.32 915.03 -98.55 911.99 C-99.36 911.33 -100.17 910.68 -101 910 C-101 909.34 -101 908.68 -101 908 C-101.57 907.9 -102.13 907.81 -102.72 907.71 C-105.51 906.84 -107.22 905.51 -109.5 903.69 C-110.63 902.8 -110.63 902.8 -111.78 901.89 C-112.51 901.26 -113.25 900.64 -114 900 C-114.7 899.44 -115.39 898.88 -116.11 898.31 C-118.67 895.18 -118.47 893.2 -118.43 889.19 C-118.44 887.85 -118.45 886.52 -118.46 885.18 C-118.45 883.09 -118.44 880.99 -118.42 878.9 C-118.4 876.87 -118.42 874.84 -118.43 872.81 C-118.42 871.6 -118.41 870.39 -118.4 869.14 C-118.72 865.82 -118.72 865.82 -121.4 863.68 C-122.26 863.12 -123.12 862.57 -124 862 C-125.04 861.19 -125.04 861.19 -126.1 860.37 C-127.07 859.63 -127.07 859.63 -128.06 858.88 C-129.04 858.13 -129.04 858.13 -130.04 857.37 C-131.96 856.03 -133.88 854.99 -136 854 C-136 853.34 -136 852.68 -136 852 C-136.68 851.77 -137.36 851.55 -138.06 851.31 C-141.19 849.91 -143.64 848.19 -146.35 846.12 C-148.12 844.81 -148.12 844.81 -151 844 C-152.02 843.02 -153.02 842.02 -154 841 C-156.72 838.69 -158.6 837.13 -162 836 C-162 835.34 -162 834.68 -162 834 C-162.7 833.75 -163.4 833.5 -164.12 833.25 C-167.4 831.83 -170.14 830.13 -173 828 C-173 827.34 -173 826.68 -173 826 C-173.74 825.71 -174.49 825.42 -175.25 825.12 C-177.57 824.18 -179.78 823.15 -182 822 C-182 821.34 -182 820.68 -182 820 C-182.72 819.75 -183.44 819.49 -184.18 819.23 C-187.22 817.9 -189.49 816.28 -192.12 814.25 C-197.48 810.25 -203.05 807.04 -209 804 C-209 803.34 -209 802.68 -209 802 C-209.56 801.74 -210.13 801.47 -210.71 801.2 C-213.18 799.91 -215.36 798.43 -217.62 796.81 C-218.51 796.19 -219.39 795.57 -220.29 794.93 C-221.19 794.29 -222.08 793.65 -223 793 C-229.19 788.6 -235.44 784.42 -241.95 780.48 C-242.96 779.75 -242.96 779.75 -244 779 C-244 778.34 -244 777.68 -244 777 C-244.76 776.71 -245.53 776.42 -246.31 776.12 C-249 775 -249 775 -252 773 C-252.32 770.43 -252.44 768.1 -252.43 765.52 C-252.45 764.36 -252.45 764.36 -252.46 763.19 C-252.49 760.63 -252.5 758.08 -252.51 755.52 C-252.53 753.76 -252.55 751.99 -252.57 750.22 C-252.61 745.56 -252.64 740.9 -252.67 736.24 C-252.7 731.49 -252.75 726.74 -252.79 721.98 C-252.88 712.66 -252.94 703.33 -253 694 C-255.96 692.35 -258.92 690.71 -261.88 689.06 C-262.72 688.59 -263.56 688.13 -264.43 687.64 C-265.23 687.19 -266.04 686.75 -266.87 686.29 C-267.61 685.87 -268.35 685.46 -269.12 685.03 C-270.4 684.33 -271.69 683.65 -273 683 C-273 682.34 -273 681.68 -273 681 C-274.65 680.67 -276.3 680.34 -278 680 C-278 679.34 -278 678.68 -278 678 C-278.85 677.74 -279.7 677.47 -280.58 677.2 C-286.78 675.02 -292.17 672.46 -297 668 C-298.84 663.33 -298.71 658.81 -298.56 653.86 C-298.57 652.43 -298.58 650.99 -298.6 649.55 C-298.63 645.61 -298.57 641.67 -298.51 637.74 C-298.45 633.48 -298.47 629.23 -298.48 624.98 C-298.49 617.62 -298.45 610.25 -298.37 602.89 C-298.27 592.25 -298.23 581.6 -298.22 570.96 C-298.19 553.68 -298.1 536.41 -297.98 519.14 C-297.86 502.37 -297.77 485.59 -297.71 468.81 C-297.71 467.78 -297.71 466.75 -297.7 465.68 C-297.69 460.49 -297.67 455.3 -297.65 450.11 C-297.52 407.07 -297.29 364.04 -297 321 C-296.01 320.67 -295.02 320.34 -294 320 C-294 319.34 -294 318.68 -294 318 C-291.59 316.34 -291.59 316.34 -288.38 314.5 C-287.33 313.89 -286.29 313.28 -285.21 312.66 C-282.18 311.09 -279.26 309.98 -276 309 C-276 308.34 -276 307.68 -276 307 C-274.32 306.13 -274.32 306.13 -272.6 305.24 C-265.55 301.58 -258.63 297.96 -252.11 293.4 C-248.73 291.16 -245.16 289.29 -241.57 287.39 C-239.4 286.21 -237.3 284.98 -235.19 283.69 C-232.02 282.01 -229.55 281.35 -226 281 C-226 280.34 -226 279.68 -226 279 C-222.33 277.04 -219.13 275.61 -215 275 C-215 274.34 -215 273.68 -215 273 C-212.99 271.6 -212.99 271.6 -210.31 270.06 C-209.01 269.31 -209.01 269.31 -207.68 268.54 C-206.79 268.03 -205.91 267.52 -205 267 C-203.69 266.16 -203.69 266.16 -202.36 265.31 C-200 264 -200 264 -197 264 C-197 263.34 -197 262.68 -197 262 C-195.97 261.44 -195.97 261.44 -194.91 260.86 C-193.97 260.35 -193.03 259.84 -192.06 259.31 C-191.06 258.77 -190.06 258.22 -189.02 257.66 C-186.39 256.22 -183.79 254.74 -181.19 253.25 C-177.88 251.4 -174.66 250.03 -171 249 C-171 248.34 -171 247.68 -171 247 C-170.14 246.58 -169.28 246.16 -168.39 245.72 C-165.12 244.06 -161.97 242.29 -158.81 240.44 C-157.79 239.84 -156.76 239.24 -155.71 238.62 C-153.77 237.46 -151.87 236.25 -150 235 C-149.01 235 -148.02 235 -147 235 C-147 234.34 -147 233.68 -147 233 C-146.14 232.58 -145.28 232.16 -144.39 231.72 C-138.47 228.71 -132.75 225.33 -127 222 C-125.89 221.36 -125.89 221.36 -124.76 220.7 C-122.46 219.37 -120.17 218.03 -117.88 216.69 C-117.15 216.27 -116.43 215.85 -115.69 215.41 C-108.2 211.2 -108.2 211.2 -104 204 C-103.41 202.78 -102.8 201.58 -102.19 200.38 C-99.62 195.33 -97.32 190.17 -95 185 C-94.34 185 -93.68 185 -93 185 C-92.34 182.69 -91.68 180.38 -91 178 C-90.34 178 -89.68 178 -89 178 C-88.75 177 -88.5 175.99 -88.24 174.96 C-87.07 170.88 -85.25 167.38 -83.19 163.69 C-82.46 162.36 -81.74 161.04 -81.02 159.71 C-80.67 159.08 -80.32 158.44 -79.96 157.78 C-78.71 155.47 -77.54 153.11 -76.38 150.75 C-74.73 147.41 -72.99 144.13 -71.19 140.88 C-67.58 134.32 -64.27 127.63 -60.96 120.93 C-59.56 118.11 -58.16 115.31 -56.75 112.5 C-56.31 111.62 -55.87 110.75 -55.42 109.84 C-54.95 108.91 -54.48 107.97 -54 107 C-53.71 106.4 -53.41 105.81 -53.11 105.2 C-50.57 100.09 -47.92 95.04 -45.25 90 C-40.7 81.4 -36.31 72.73 -32 64 C-31.34 64 -30.68 64 -30 64 C-29.92 63.33 -29.84 62.67 -29.75 61.98 C-28.75 58.02 -26.91 54.81 -24.94 51.25 C-19.49 41.2 -14.56 30.92 -10 20.44 C-6.97 13.49 -3.42 6.76 0 0 Z " fill="#1D1A1A" transform="translate(297,0)"/>
<path d="M0 0 C0.33 0 0.66 0 1 0 C1 66 1 132 1 200 C28.57 196.47 28.57 196.47 56.12 192.88 C67.29 191.43 78.47 190.19 89.68 189.08 C98.13 188.23 106.55 187.18 114.95 185.91 C120.03 185.17 124.86 184.88 130 185 C127.25 187.75 123.94 188.95 120.42 190.48 C119.66 190.82 118.9 191.16 118.11 191.51 C115.66 192.59 113.2 193.67 110.75 194.75 C109.14 195.46 107.54 196.17 105.93 196.88 C98.74 200.06 91.54 203.21 84.32 206.29 C79.56 208.32 74.86 210.41 70.19 212.62 C66.43 214.4 62.68 216.15 58.88 217.83 C53.98 220 49.1 222.22 44.21 224.44 C42.37 225.28 40.52 226.12 38.67 226.96 C35.8 228.26 32.92 229.57 30.05 230.88 C27.25 232.15 24.45 233.42 21.65 234.69 C20.8 235.08 19.95 235.47 19.08 235.87 C14.11 238.11 9.13 240.14 4 242 C13.24 240.63 22.43 239.08 31.63 237.45 C33.8 237.06 35.97 236.68 38.14 236.3 C45.9 234.93 53.65 233.51 61.4 232.05 C66.95 231 72.5 230.02 78.06 229.06 C80.06 228.72 82.05 228.37 84.05 228.03 C85.04 227.86 86.04 227.68 87.06 227.51 C103.6 224.65 120.13 221.75 136.66 218.83 C138.02 218.59 139.39 218.35 140.76 218.1 C144.36 217.47 147.97 216.83 151.57 216.17 C152.33 216.04 153.09 215.9 153.87 215.76 C155.3 215.5 156.74 215.24 158.18 214.98 C164.1 213.92 170 213.34 176 213 C173.49 215.51 171.12 216.33 167.83 217.69 C167.21 217.95 166.59 218.2 165.95 218.47 C164.6 219.03 163.26 219.58 161.92 220.13 C158.36 221.6 154.8 223.08 151.25 224.56 C150.53 224.85 149.82 225.15 149.09 225.45 C143.15 227.92 137.26 230.48 131.38 233.06 C122.52 236.94 113.62 240.68 104.69 244.38 C103.48 244.88 102.27 245.38 101.02 245.89 C97.68 247.27 94.34 248.63 91 250 C90.01 250.41 89.02 250.82 87.99 251.24 C86.65 251.79 86.65 251.79 85.27 252.35 C84.49 252.67 83.71 252.99 82.9 253.32 C81 254 81 254 79 254 C79 254.66 79 255.32 79 256 C77.66 256.45 77.66 256.45 76.29 256.92 C69.67 259.21 63.38 261.63 57.15 264.88 C54.17 266.43 51.11 267.72 48 269 C47.13 269.37 46.26 269.74 45.36 270.12 C40.15 272.31 34.91 274.43 29.62 276.44 C22.66 279.09 15.83 282.02 9 285 C16.59 283.84 23.96 282.35 31.38 280.38 C44.07 277.09 56.89 274.43 69.74 271.8 C77.17 270.28 84.53 268.72 91.82 266.58 C93.97 266.01 96.04 265.68 98.25 265.44 C103.14 264.87 107.6 263.43 112.29 261.98 C115.86 261.04 119.2 260.56 122.88 260.19 C129.43 259.37 135.45 257.84 141.75 255.89 C147.1 254.23 152.45 252.99 157.95 251.88 C163.32 250.76 168.62 249.35 173.94 248 C181.75 246.02 189.54 244.22 197.46 242.72 C202.23 241.75 206.94 240.54 211.64 239.27 C215.18 238.34 218.34 237.8 222 238 C218.18 241.34 213.7 242.94 209.06 244.81 C202.49 247.49 196.04 250.35 189.61 253.34 C185.65 255.16 181.67 256.92 177.68 258.66 C176.96 258.97 176.24 259.28 175.5 259.61 C172.55 260.9 169.6 262.19 166.64 263.47 C158.64 266.94 150.84 270.5 143.24 274.78 C140.53 276.26 137.79 277.36 134.88 278.38 C127.33 281.16 120.15 284.62 112.91 288.09 C106.68 291.07 100.4 293.85 93.99 296.43 C86.7 299.38 79.61 302.55 72.62 306.16 C68.63 308.22 64.59 310.1 60.48 311.9 C56.71 313.57 52.97 315.32 49.23 317.06 C35.24 323.56 21.15 329.84 7 336 C14.81 334.1 22.54 332.03 30.25 329.75 C32.34 329.13 34.44 328.52 36.53 327.9 C38.13 327.43 38.13 327.43 39.75 326.95 C42.99 326 46.23 325.06 49.47 324.13 C63.04 320.24 63.04 320.24 76.44 315.82 C79.15 314.95 81.89 314.28 84.66 313.6 C90.42 312.12 96.11 310.35 101.8 308.65 C107.94 306.85 114.09 305.21 120.3 303.69 C123.73 302.81 127.07 301.78 130.44 300.69 C137.76 298.34 145.15 296.21 152.55 294.14 C157.37 292.79 162.12 291.31 166.87 289.7 C170.17 288.62 173.52 287.71 176.88 286.81 C184.62 284.7 192.31 282.43 200 280.12 C210.09 277.11 220.21 274.28 230.39 271.59 C239.15 269.26 247.85 266.75 256.53 264.13 C257.46 263.85 258.4 263.57 259.37 263.29 C260.61 262.91 260.61 262.91 261.87 262.53 C264 262 264 262 267 262 C267 287.41 267 312.82 267 339 C262.54 340.49 262.54 340.49 258 342 C257.09 342.37 256.18 342.73 255.24 343.11 C252.88 344.05 250.6 344.63 248.12 345.19 C242.13 346.64 236.27 348.42 230.38 350.25 C222.27 352.75 214.14 355.08 205.94 357.25 C194.72 360.22 183.58 363.39 172.44 366.62 C171.65 366.85 170.85 367.08 170.04 367.32 C163.17 369.32 156.3 371.32 149.44 373.35 C141.77 375.61 134.1 377.82 126.38 379.88 C117.78 382.19 109.25 384.71 100.74 387.32 C84.77 392.23 68.7 396.82 52.6 401.3 C42.37 404.15 32.18 407.17 22 410.2 C20.99 410.5 19.98 410.81 18.93 411.12 C17.01 411.7 15.09 412.29 13.17 412.9 C12.3 413.18 11.43 413.45 10.53 413.73 C9.77 413.98 9.01 414.22 8.23 414.48 C6 415 6 415 1 415 C1 456.58 1 498.16 1 541 C-2.3 540.34 -5.6 539.68 -9 539 C-9 538.34 -9 537.68 -9 537 C-9.91 536.94 -10.81 536.88 -11.75 536.81 C-17.52 536.01 -22.71 533.31 -28 531 C-29.67 530.33 -31.33 529.66 -33 529 C-33.98 518.92 -34.39 508.84 -34.75 498.73 C-34.82 496.95 -34.89 495.18 -34.95 493.41 C-35.09 489.7 -35.22 485.99 -35.36 482.28 C-35.49 478.54 -35.63 474.8 -35.77 471.07 C-36.63 448.7 -37.25 426.38 -37 404 C-38.83 403.8 -38.83 403.8 -40.69 403.59 C-43.88 403.19 -46.83 402.6 -49.9 401.62 C-50.78 401.34 -51.65 401.06 -52.55 400.78 C-53.49 400.48 -54.42 400.18 -55.38 399.88 C-63.56 397.31 -71.77 394.94 -80.06 392.75 C-91.18 389.81 -102.21 386.65 -113.25 383.44 C-126.8 379.49 -140.36 375.63 -154 372 C-154 371.34 -154 370.68 -154 370 C-154.79 369.93 -155.58 369.85 -156.39 369.77 C-164.6 368.82 -171.98 366.91 -179.8 364.32 C-186.3 362.18 -192.83 360.45 -199.48 358.86 C-205.52 357.38 -211.42 355.56 -217.32 353.64 C-227.8 350.24 -238.34 347.19 -248.98 344.36 C-263.54 340.46 -263.54 340.46 -265 339 C-265.09 336.6 -265.13 334.22 -265.11 331.82 C-265.11 331.07 -265.11 330.32 -265.11 329.54 C-265.11 327.05 -265.11 324.55 -265.1 322.06 C-265.1 320.33 -265.09 318.61 -265.09 316.88 C-265.09 312.33 -265.08 307.79 -265.07 303.24 C-265.06 298.6 -265.05 293.96 -265.05 289.32 C-265.04 280.21 -265.02 271.11 -265 262 C-259.98 263.08 -255.01 264.21 -250.09 265.7 C-249.03 266.02 -247.97 266.34 -246.88 266.66 C-245.77 267 -244.65 267.34 -243.5 267.69 C-234.56 270.36 -225.61 272.99 -216.62 275.5 C-215.13 275.92 -215.13 275.92 -213.6 276.35 C-208.49 277.77 -203.37 279.17 -198.25 280.57 C-195.62 281.29 -192.99 282.01 -190.36 282.72 C-188.49 283.24 -186.62 283.74 -184.74 284.25 C-175.14 286.87 -175.14 286.87 -170.6 288.62 C-167.06 289.98 -163.63 290.9 -159.94 291.75 C-153.18 293.36 -146.57 295.31 -139.94 297.38 C-132.01 299.84 -124.05 302.08 -116 304.12 C-108.43 306.05 -101.08 308.21 -93.71 310.77 C-89.3 312.23 -84.85 313.51 -80.38 314.75 C-79.62 314.96 -78.86 315.17 -78.07 315.39 C-74.4 316.39 -70.74 317.28 -67 318 C-67.57 317.68 -68.14 317.36 -68.73 317.03 C-79.87 310.77 -90.98 304.46 -102 298 C-112.78 291.69 -123.63 285.52 -134.52 279.4 C-138.99 276.88 -143.45 274.34 -147.89 271.78 C-150.09 270.52 -152.3 269.27 -154.51 268.03 C-155.62 267.4 -156.73 266.77 -157.88 266.12 C-158.86 265.57 -159.85 265.02 -160.87 264.45 C-161.57 263.97 -162.27 263.49 -163 263 C-163 262.34 -163 261.68 -163 261 C-163.7 260.9 -164.4 260.8 -165.12 260.7 C-168.51 259.88 -171 258.5 -174.02 256.75 C-174.58 256.43 -175.15 256.1 -175.74 255.76 C-177.58 254.7 -179.42 253.63 -181.25 252.56 C-182.51 251.83 -183.77 251.1 -185.03 250.38 C-188.7 248.26 -192.35 246.13 -196 244 C-196.98 243.43 -197.96 242.85 -198.97 242.27 C-203.66 239.53 -208.33 236.77 -213 234 C-211.56 229.67 -208.29 228.56 -204.5 226.44 C-202.93 225.54 -201.36 224.64 -199.79 223.73 C-198.99 223.28 -198.18 222.82 -197.36 222.35 C-194.52 220.72 -191.71 219.06 -188.9 217.39 C-181.63 213.07 -174.3 208.89 -166.94 204.75 C-152.98 196.89 -139.1 188.9 -125.39 180.62 C-124.5 180.09 -123.61 179.55 -122.7 179 C-121.05 178 -119.41 177 -117.77 175.99 C-113.06 173.13 -108.27 170.6 -103.32 168.17 C-100.22 166.61 -97.32 164.85 -94.38 163 C-93.35 162.36 -92.33 161.72 -91.27 161.06 C-90.19 160.38 -89.11 159.7 -88 159 C-87.34 158.65 -86.68 158.3 -86 157.95 C-80.17 154.74 -77.8 151.12 -75 145.19 C-74.58 144.35 -74.16 143.51 -73.73 142.64 C-72.47 140.1 -71.23 137.55 -70 135 C-68.98 132.93 -67.94 130.87 -66.91 128.81 C-66.26 127.52 -65.62 126.23 -64.98 124.94 C-62.14 119.21 -59.16 113.57 -56.14 107.93 C-53.11 102.25 -50.23 96.5 -47.39 90.72 C-44.32 84.46 -41.1 78.35 -37.62 72.31 C-33.88 65.78 -30.61 59.11 -27.45 52.28 C-23.65 44.15 -19.47 36.24 -15.24 28.32 C-14 26 -12.77 23.67 -11.54 21.34 C-7.77 14.19 -3.97 7.05 0 0 Z " fill="#DD281E" transform="translate(299,80)"/>
<path d="M0 0 C0.33 0 0.66 0 1 0 C1 47.19 1 94.38 1 143 C-2.63 144.98 -6.26 146.96 -10 149 C-20.36 154.73 -30.59 160.66 -40.8 166.63 C-47.35 170.46 -53.91 174.25 -60.5 178 C-76.49 187.11 -92.42 196.35 -108.14 205.92 C-113.09 208.92 -118.12 211.73 -123.21 214.49 C-127.73 216.94 -132.21 219.47 -136.69 222 C-137.66 222.55 -138.63 223.1 -139.63 223.66 C-145.01 226.71 -150.36 229.79 -155.69 232.92 C-156.77 233.56 -157.86 234.2 -158.98 234.86 C-161.08 236.1 -163.18 237.34 -165.28 238.59 C-166.23 239.16 -167.19 239.72 -168.17 240.3 C-169.01 240.8 -169.84 241.29 -170.71 241.81 C-172.83 242.91 -174.66 243.54 -177 244 C-177 244.66 -177 245.32 -177 246 C-177.99 246 -178.98 246 -180 246 C-179.97 247.07 -179.94 248.13 -179.91 249.23 C-179.6 260.33 -179.39 271.43 -179.22 282.53 C-179.1 290.03 -178.94 297.52 -178.74 305.01 C-178.53 313.1 -178.37 321.2 -178.26 329.29 C-178.19 333.81 -178.11 338.33 -177.96 342.84 C-177.83 347.16 -177.75 351.48 -177.73 355.8 C-177.71 357.41 -177.66 359.02 -177.6 360.62 C-177.11 372.57 -177.11 372.57 -180.25 376.61 C-183.78 380.03 -187.83 382.45 -192 385 C-193.84 386.45 -195.65 387.92 -197.44 389.44 C-201.48 392.77 -205.56 396.03 -209.69 399.25 C-215.63 403.89 -221.49 408.62 -227.32 413.41 C-230.63 416.12 -233.96 418.78 -237.35 421.39 C-238 421.89 -238.65 422.39 -239.32 422.91 C-241 424 -241 424 -243 424 C-243 424.66 -243 425.32 -243 426 C-244.5 427.29 -244.5 427.29 -246.44 428.62 C-247.08 429.07 -247.71 429.52 -248.37 429.98 C-250 431 -250 431 -251 431 C-251.21 415.99 -251.37 400.97 -251.47 385.96 C-251.51 378.99 -251.58 372.02 -251.68 365.04 C-251.78 358.31 -251.83 351.57 -251.85 344.83 C-251.87 342.27 -251.9 339.71 -251.95 337.15 C-252.23 322.05 -252.11 311.71 -242 300 C-240.43 297.82 -238.94 295.6 -237.44 293.38 C-236.34 291.8 -236.34 291.8 -235.21 290.19 C-231.73 285.17 -228.37 280.09 -225 275 C-224.34 274.01 -223.68 273.02 -223 272 C-224.17 272.68 -224.17 272.68 -225.35 273.38 C-228.23 275.06 -231.12 276.73 -234 278.41 C-235.25 279.13 -236.49 279.86 -237.74 280.59 C-239.53 281.64 -241.32 282.68 -243.12 283.72 C-244.2 284.35 -245.27 284.98 -246.39 285.62 C-249 287 -249 287 -251 287 C-251 252.35 -251 217.7 -251 182 C-220 170 -220 170 -207 165 C-205.47 164.41 -203.94 163.81 -202.37 163.2 C-201.06 162.69 -199.75 162.19 -198.44 161.69 C-197.77 161.42 -197.1 161.16 -196.4 160.89 C-193.01 159.59 -190.7 159 -187 159 C-187 158.34 -187 157.68 -187 157 C-186.41 156.79 -185.83 156.58 -185.23 156.37 C-179.24 154.22 -173.3 151.95 -167.38 149.62 C-161.33 147.25 -155.26 145 -149.12 142.88 C-143.37 140.88 -137.77 138.69 -132.17 136.29 C-126.88 134.14 -121.48 132.3 -116.08 130.43 C-109.65 128.19 -103.31 125.74 -97 123.19 C-90.96 120.75 -84.88 118.45 -78.78 116.18 C-74.73 114.67 -70.73 113.07 -66.75 111.38 C-51.69 105 -51.69 105 -47 105 C-46.84 104.47 -46.68 103.93 -46.52 103.38 C-45.23 99.28 -43.8 95.44 -41.81 91.62 C-37.68 83.67 -34.42 75.28 -31 67 C-30.34 67 -29.68 67 -29 67 C-28.88 66.37 -28.76 65.75 -28.63 65.1 C-28.38 63.88 -28.38 63.88 -28.12 62.62 C-27.88 61.41 -27.88 61.41 -27.63 60.16 C-27 58 -27 58 -25 56 C-24.29 54.16 -23.58 52.33 -22.91 50.47 C-20.19 43.09 -17.13 36.04 -13.2 29.23 C-11.09 25.31 -9.58 21.16 -8 17 C-7.34 15.33 -6.67 13.67 -6 12 C-5.34 12 -4.68 12 -4 12 C-3.88 11.39 -3.76 10.77 -3.63 10.14 C-3.38 8.92 -3.38 8.92 -3.12 7.69 C-2.88 6.49 -2.88 6.49 -2.63 5.26 C-2 3 -2 3 0 0 Z " fill="#DE281E" transform="translate(565,504)"/>
<path d="M0 0 C0.66 0 1.32 0 2 0 C2.66 2.97 3.32 5.94 4 9 C4.66 9 5.32 9 6 9 C6.34 9.9 6.68 10.79 7.03 11.72 C9.77 18.81 12.74 25.63 16.25 32.38 C19.1 37.88 21.11 42.8 22 49 C22.66 49 23.32 49 24 49 C26.03 53.48 28 57.96 29.75 62.56 C31.77 67.67 34.18 72.56 36.77 77.4 C38.78 81.24 40.34 84.92 41.54 89.09 C43.66 95.9 45.67 101.85 51.88 105.86 C58.91 109.3 66.24 111.71 73.71 113.98 C77.8 115.25 81.77 116.75 85.75 118.31 C88.17 119.21 90.58 120.11 93 121 C95.5 121.94 98 122.87 100.5 123.81 C101.82 124.31 103.14 124.8 104.46 125.3 C107.93 126.6 111.39 127.9 114.85 129.2 C116.94 129.99 119.03 130.78 121.12 131.56 C122.16 131.95 123.19 132.34 124.25 132.74 C130.9 135.24 137.57 137.65 144.29 139.93 C147 141 147 141 149.37 142.46 C152.71 144.42 156.22 145.59 159.88 146.81 C165.48 148.74 171.01 150.76 176.5 153 C181.85 155.18 187.23 157.17 192.69 159.06 C198.44 161.06 204.07 163.21 209.67 165.59 C213.95 167.4 218.25 169.14 222.56 170.88 C223.68 171.33 223.68 171.33 224.83 171.79 C233.82 175.4 242.9 178.65 252 182 C252 199.49 252 216.98 252 235 C247.98 234.2 245.36 233.39 241.75 231.69 C238.29 230.07 234.83 228.49 231.31 227 C228.42 225.73 225.82 224.3 223.19 222.56 C218.98 219.82 214.5 218.03 209.83 216.21 C207.04 215.02 204.56 213.62 202 212 C202.73 213.09 203.45 214.18 204.2 215.3 C204.68 216.02 205.16 216.74 205.66 217.48 C206.73 219.1 207.81 220.72 208.89 222.34 C211.6 226.4 214.31 230.47 217.01 234.54 C222.12 242.23 227.27 249.89 232.5 257.5 C236.96 263.99 241.38 270.51 245.75 277.06 C246.26 277.83 246.78 278.6 247.31 279.39 C247.78 280.1 248.25 280.81 248.73 281.54 C249.15 282.16 249.56 282.78 249.99 283.42 C252.08 286.69 252.12 288.83 252.12 292.71 C252.12 294.53 252.12 294.53 252.12 296.39 C252.12 297.74 252.12 299.09 252.11 300.45 C252.11 301.86 252.11 303.28 252.11 304.7 C252.11 308.56 252.11 312.42 252.1 316.28 C252.1 320.31 252.09 324.34 252.09 328.37 C252.09 336.01 252.08 343.64 252.07 351.28 C252.06 359.97 252.06 368.66 252.05 377.35 C252.04 395.24 252.02 413.12 252 431 C247.58 428.53 243.89 426.26 240.19 422.75 C236.21 419.08 232.14 415.65 227.9 412.3 C224.24 409.4 220.62 406.45 217 403.5 C212.58 399.9 208.15 396.31 203.69 392.75 C198.42 388.55 193.18 384.3 188 380 C187.42 379.64 186.83 379.28 186.23 378.9 C183.12 376.77 181.28 375.15 180.37 371.41 C180.14 368.11 180.13 364.88 180.21 361.57 C180.2 360.32 180.2 359.07 180.2 357.78 C180.21 354.37 180.24 350.96 180.29 347.54 C180.33 343.97 180.34 340.4 180.35 336.83 C180.37 330.07 180.43 323.32 180.5 316.56 C180.57 308.86 180.61 301.17 180.65 293.47 C180.72 277.65 180.84 261.82 181 246 C180.39 245.86 179.78 245.72 179.15 245.58 C176.4 244.84 174.22 243.59 171.74 242.19 C170.71 241.61 169.68 241.04 168.62 240.44 C167.53 239.82 166.44 239.2 165.31 238.56 C164.19 237.93 163.07 237.3 161.92 236.65 C153.6 231.94 145.35 227.15 137.14 222.26 C133.47 220.1 129.79 217.96 126.11 215.81 C123.18 214.1 120.25 212.39 117.32 210.68 C106.89 204.58 96.44 198.52 85.95 192.55 C79.17 188.68 72.42 184.75 65.69 180.81 C58.43 176.57 51.15 172.36 43.81 168.26 C37.82 164.92 31.89 161.48 25.96 158.03 C19.95 154.54 13.92 151.09 7.88 147.66 C6.93 147.11 5.98 146.56 5 146 C4.13 145.59 3.26 145.18 2.36 144.76 C0 143 0 143 -0.62 140.4 C-0.61 138.82 -0.61 138.82 -0.6 137.21 C-0.61 136 -0.62 134.8 -0.62 133.55 C-0.6 132.21 -0.59 130.87 -0.57 129.53 C-0.57 128.12 -0.57 126.71 -0.57 125.3 C-0.57 121.48 -0.54 117.65 -0.51 113.82 C-0.48 109.82 -0.47 105.82 -0.47 101.82 C-0.45 94.24 -0.41 86.67 -0.36 79.09 C-0.3 70.47 -0.28 61.85 -0.25 53.22 C-0.2 35.48 -0.11 17.74 0 0 Z " fill="#DD281E" transform="translate(34,504)"/>
<path d="M0 0 C2.93 1.36 5.37 2.94 7.91 4.94 C8.64 5.52 9.38 6.1 10.14 6.7 C10.92 7.31 11.7 7.93 12.5 8.56 C14.13 9.85 15.77 11.13 17.41 12.41 C18.2 13.03 18.99 13.65 19.81 14.29 C22.51 16.4 25.25 18.46 28 20.5 C35.35 25.98 42.58 31.62 49.79 37.28 C51.29 38.45 52.81 39.6 54.35 40.73 C59.39 44.48 63.2 48.25 66.81 53.38 C67.31 54.06 67.81 54.75 68.33 55.45 C69.9 57.63 71.45 59.81 73 62 C73.51 62.72 74.02 63.43 74.55 64.17 C77.07 67.72 79.59 71.28 82.09 74.85 C84.95 78.94 87.85 83 90.75 87.06 C91.18 87.66 91.61 88.27 92.06 88.89 C93.04 90.26 94.02 91.63 95 93 C98.34 86.49 100.8 79.63 103.22 72.73 C103.74 71.24 104.27 69.76 104.8 68.27 C105.92 65.13 106.99 62.02 107.92 58.82 C109.85 52.68 109.85 52.68 112.97 50.84 C119.74 48.34 126.58 46.32 133.56 44.5 C134.7 44.2 135.84 43.9 137.01 43.59 C162.5 36.89 162.5 36.89 170 37 C170.03 38.06 170.03 38.06 170.06 39.13 C170.26 45.91 170.47 52.69 170.68 59.46 C170.79 62.94 170.89 66.42 170.99 69.9 C171.53 88.31 172.45 106.64 174 125 C175.27 125.46 175.27 125.46 176.56 125.93 C179.76 127.09 182.96 128.26 186.16 129.43 C187.53 129.93 188.9 130.42 190.28 130.92 C198.12 133.77 205.88 136.7 213.55 139.98 C222.11 143.54 228.52 143.53 237.12 140.31 C237.87 140.04 238.62 139.77 239.39 139.49 C244.73 137.53 249.98 135.39 255.21 133.17 C258.12 131.95 261.05 130.8 264 129.69 C265.3 129.2 265.3 129.2 266.62 128.7 C269 128 269 128 273 128 C273 127.34 273 126.68 273 126 C274.98 125.67 276.96 125.34 279 125 C279.03 123.97 279.05 122.93 279.08 121.87 C279.51 104.1 279.94 86.33 280.44 68.57 C280.48 67.17 280.52 65.78 280.55 64.38 C280.81 54.9 281.31 45.46 282 36 C287.16 37.07 292.2 38.32 297.25 39.81 C304.22 41.84 311.24 43.5 318.31 45.14 C323.3 46.31 328.18 47.61 333.06 49.19 C338.01 50.79 342.83 51.68 347.96 52.43 C351.28 53.05 354.36 54.01 357.56 55.06 C366.12 57.96 366.12 57.96 375 58 C378.54 55.89 381.4 53.22 384.41 50.42 C387.34 47.8 390.53 45.52 393.69 43.19 C395.07 42.16 396.45 41.13 397.83 40.1 C399.22 39.07 400.61 38.03 402 37 C410.46 30.7 418.87 24.36 427.19 17.88 C428.32 17 428.32 17 429.47 16.1 C432.32 13.88 435.17 11.65 438.01 9.42 C439.82 8.01 441.63 6.6 443.44 5.19 C444.45 4.4 445.46 3.61 446.5 2.79 C449 1 449 1 452 0 C450.31 6.33 448.12 12.14 445.33 18.06 C443.41 22.31 441.81 26.67 440.21 31.05 C439.04 33.91 437.61 36.37 436 39 C435.34 40.5 434.71 42.03 434.12 43.56 C432.21 48.49 430.19 53.36 428.15 58.24 C426.97 60.92 426.97 60.92 426.28 63.5 C424.56 66.87 422.93 67.33 419.45 68.69 C418.29 69.15 417.13 69.62 415.94 70.1 C415.32 70.33 414.7 70.57 414.06 70.82 C412.09 71.58 410.13 72.35 408.18 73.14 C406.14 73.95 404.1 74.77 402.06 75.58 C395.36 78.23 388.74 81.07 382.12 83.94 C371.94 88.33 361.73 92.65 351.5 96.94 C350.86 97.21 350.21 97.48 349.55 97.75 C341.37 101.18 333.19 104.59 325 108 C329.16 108 333.15 107.27 337.25 106.62 C338.08 106.5 338.92 106.37 339.78 106.24 C340.6 106.11 341.42 105.98 342.27 105.85 C343.01 105.74 343.75 105.62 344.51 105.5 C347.14 105.01 347.14 105.01 350.23 104.05 C354.49 102.86 358.73 102.08 363.08 101.34 C363.94 101.2 364.79 101.05 365.67 100.9 C368.38 100.43 371.1 99.96 373.81 99.5 C376.52 99.04 379.22 98.57 381.92 98.1 C383.6 97.82 385.27 97.53 386.95 97.24 C391.88 96.4 396.77 95.44 401.66 94.38 C404.14 93.98 406.49 93.94 409 94 C406.98 96.02 405.76 96.65 403.17 97.71 C402.38 98.03 401.59 98.36 400.78 98.69 C399.92 99.04 399.07 99.38 398.19 99.74 C397.3 100.1 396.42 100.46 395.51 100.84 C392.68 102 389.84 103.16 387 104.31 C384.19 105.46 381.38 106.6 378.58 107.76 C376.83 108.47 375.08 109.18 373.33 109.89 C368.17 112.01 363.18 114.35 358.23 116.91 C355.03 118.47 351.84 119.51 348.44 120.56 C343.51 122.13 338.77 123.86 334.07 126.05 C331.1 127.41 328.06 128.59 325.02 129.79 C320.32 131.67 315.65 133.61 310.98 135.54 C309.6 136.11 308.22 136.68 306.83 137.24 C305.28 137.89 303.72 138.55 302.18 139.21 C300 140 300 140 297 140 C297 140.66 297 141.32 297 142 C296.12 142.32 295.25 142.63 294.34 142.96 C283.65 146.88 273.16 151.22 262.66 155.63 C260.78 156.42 258.89 157.21 257 158 C256.06 158.39 255.12 158.79 254.16 159.19 C253.27 159.56 252.38 159.93 251.46 160.3 C250.67 160.63 249.88 160.96 249.07 161.3 C247 162 247 162 244 162 C244 162.66 244 163.32 244 164 C241.49 165.04 238.97 166.06 236.44 167.06 C235.38 167.5 235.38 167.5 234.3 167.96 C229.47 169.85 226.17 170.35 221 169 C218.98 168.05 216.97 167.05 215 166 C212.72 165.16 210.43 164.34 208.12 163.56 C203.63 161.99 199.44 160.32 195.25 158.1 C189.67 155.37 183.77 153.27 178 151 C176.15 150.25 174.29 149.5 172.44 148.75 C169 147.37 165.54 146.12 162 145 C162 144.34 162 143.68 162 143 C160.11 142.66 160.11 142.66 158.19 142.31 C153.38 141.25 149.2 139.41 144.77 137.3 C141.33 135.69 137.83 134.3 134.3 132.91 C131.17 131.67 128.09 130.34 125 129 C125 128.34 125 127.68 125 127 C123.8 126.95 122.59 126.9 121.35 126.86 C114.52 126.09 108.59 123.11 102.38 120.31 C100.49 119.48 98.61 118.66 96.73 117.83 C94.9 117.03 93.08 116.23 91.26 115.42 C87.37 113.72 83.45 112.11 79.5 110.56 C78.37 110.12 77.23 109.67 76.06 109.21 C75.05 108.81 74.04 108.41 73 108 C70.19 106.86 67.41 105.71 64.64 104.48 C61.58 103.24 58.56 102.21 55.42 101.2 C38.76 95.48 38.76 95.48 34.95 88.17 C33.12 83.73 31.84 79.17 30.68 74.51 C29.72 70.96 28.33 67.79 26.81 64.44 C26.34 63.35 25.86 62.25 25.37 61.13 C24.92 60.1 24.46 59.06 24 58 C22.32 54.01 20.66 50 19 46 C14.14 34.3 14.14 34.3 9.06 22.69 C7.6 19.43 6.25 16.14 4.94 12.81 C3.81 9.95 2.63 7.26 1.25 4.5 C0 2 0 2 0 0 Z " fill="#DB281E" transform="translate(74,499)"/>
<path d="M0 0 C3.72 1.45 7.05 3.09 10.48 5.13 C11.55 5.77 12.62 6.4 13.72 7.05 C14.87 7.74 16.03 8.43 17.19 9.12 C18.4 9.85 19.61 10.57 20.82 11.29 C29.96 16.73 39.01 22.31 48.06 27.91 C57.57 33.78 67.2 39.45 76.87 45.07 C82.56 48.38 88.21 51.73 93.81 55.2 C99.4 58.66 105.08 61.89 110.86 65.02 C115.89 67.79 115.89 67.79 117 70 C109.54 67.81 102.83 64.55 95.94 61 C92.55 59.26 89.15 57.53 85.75 55.81 C85.08 55.47 84.4 55.13 83.71 54.78 C79.21 52.54 74.67 50.58 69.97 48.8 C67.47 47.79 65.28 46.42 63 45 C61.37 44.28 59.73 43.57 58.09 42.88 C55.53 41.8 53.02 40.65 50.5 39.5 C46.36 37.61 42.2 35.77 38 34 C44.36 39.24 50.9 44.2 57.5 49.12 C66.42 55.79 75.23 62.58 84.01 69.44 C92.22 75.86 100.5 82.17 108.98 88.25 C112.26 90.62 115.22 93.02 118 96 C113.87 94.49 110.16 92.46 106.38 90.25 C105.12 89.52 103.86 88.8 102.61 88.07 C101.99 87.72 101.37 87.36 100.74 87 C95.23 83.84 89.63 80.84 84 77.91 C75.1 73.26 66.46 68.4 58 63 C57.67 63.33 57.34 63.66 57 64 C64.38 70.76 64.38 70.76 71.88 77.38 C76.08 81.02 80.14 84.81 84.22 88.59 C87.73 91.85 91.29 95.03 94.91 98.16 C97.64 100.57 100.32 103.03 103 105.5 C107.6 109.74 112.26 113.91 117 118 C113.68 118 113.01 117.58 110.36 115.77 C109.64 115.28 108.92 114.79 108.17 114.29 C107.4 113.76 106.62 113.22 105.82 112.67 C105.02 112.13 104.22 111.58 103.39 111.02 C100.82 109.27 98.25 107.51 95.69 105.75 C93.97 104.58 92.25 103.41 90.53 102.24 C87.36 100.08 84.2 97.92 81.03 95.75 C77.7 93.47 74.36 91.23 71 89 C74.82 93.53 78.78 97.84 83 102 C86.63 105.58 90.04 109.26 93.36 113.14 C95 115 96.72 116.75 98.5 118.5 C101.5 121.45 104.27 124.55 107.02 127.73 C110.94 132.22 114.98 136.6 119 141 C114.65 141 112.13 138.48 108.75 136 C107.22 134.9 105.69 133.8 104.16 132.7 C102.93 131.81 102.93 131.81 101.66 130.9 C95.91 126.8 90.09 122.8 84.28 118.79 C78.65 114.87 73.07 110.88 67.53 106.83 C64.19 104.41 60.79 102.07 57.38 99.75 C51.86 95.98 46.38 92.17 40.94 88.31 C33.98 83.39 27 78.5 20 73.62 C19.04 72.96 18.09 72.29 17.11 71.61 C16.18 70.97 15.26 70.32 14.31 69.66 C13.1 68.82 13.1 68.82 11.86 67.96 C9.17 66.01 9.17 66.01 6.7 64.92 C3.98 63.5 2.07 62.26 0 60 C-1.26 55.42 -1.05 51 -0.88 46.29 C-0.86 44.95 -0.85 43.62 -0.84 42.28 C-0.81 38.78 -0.72 35.28 -0.62 31.77 C-0.53 28.2 -0.48 24.62 -0.44 21.04 C-0.34 14.02 -0.19 7.01 0 0 Z " fill="#D6281E" transform="translate(80,694)"/>
<path d="M0 0 C0.28 7.68 0.49 15.37 0.62 23.05 C0.68 26.63 0.77 30.19 0.91 33.76 C1.04 37.21 1.11 40.66 1.14 44.11 C1.17 46.06 1.26 48 1.36 49.95 C1.36 53.66 1.22 56.49 0 60 C-3.6 63.53 -7.57 65.68 -12 68 C-13.89 69.26 -15.76 70.54 -17.61 71.86 C-18.52 72.49 -19.43 73.13 -20.37 73.78 C-21.3 74.43 -22.23 75.08 -23.19 75.75 C-24.18 76.44 -25.18 77.14 -26.21 77.85 C-32.73 82.4 -39.23 86.97 -45.72 91.57 C-55.31 98.35 -64.94 105.06 -74.56 111.79 C-83.46 118.02 -92.37 124.25 -101.25 130.5 C-101.92 130.97 -102.58 131.44 -103.27 131.92 C-107.91 135.19 -112.47 138.57 -117 142 C-117.66 141.67 -118.32 141.34 -119 141 C-117.72 139.49 -116.42 138 -115.12 136.5 C-114.41 135.66 -113.69 134.83 -112.95 133.97 C-111.98 132.99 -111.98 132.99 -111 132 C-110.34 132 -109.68 132 -109 132 C-108.74 131.41 -108.47 130.81 -108.2 130.2 C-106.96 127.92 -105.7 126.53 -103.81 124.75 C-100.62 121.73 -97.77 118.47 -94.89 115.15 C-91.85 111.7 -88.71 108.35 -85.56 105 C-84.91 104.31 -84.26 103.61 -83.59 102.89 C-79.14 98.18 -74.65 93.52 -70 89 C-73.38 90.58 -76.38 92.52 -79.47 94.61 C-80.53 95.32 -81.59 96.04 -82.69 96.77 C-84.33 97.87 -84.33 97.87 -86 99 C-88.08 100.38 -90.16 101.76 -92.25 103.14 C-93.27 103.82 -94.29 104.5 -95.34 105.2 C-97.43 106.58 -99.52 107.97 -101.62 109.35 C-102.63 110.02 -103.64 110.7 -104.68 111.39 C-106.04 112.29 -106.04 112.29 -107.42 113.2 C-110.04 115.03 -112.53 116.98 -115 119 C-115.66 118.67 -116.32 118.34 -117 118 C-114.5 115.64 -112 113.29 -109.5 110.94 C-108.8 110.28 -108.11 109.62 -107.39 108.95 C-103.26 105.06 -99.07 101.27 -94.79 97.55 C-92.54 95.6 -90.33 93.62 -88.12 91.62 C-87.28 90.87 -86.44 90.11 -85.58 89.33 C-84.73 88.56 -83.88 87.79 -83 87 C-73.17 78.12 -63.2 69.45 -53 61 C-56.57 62.35 -59.85 63.94 -63.17 65.83 C-64.63 66.66 -64.63 66.66 -66.13 67.5 C-67.14 68.08 -68.15 68.66 -69.19 69.25 C-70.67 70.09 -70.67 70.09 -72.19 70.95 C-77.79 74.13 -83.34 77.39 -88.85 80.72 C-91.33 82.19 -93.83 83.58 -96.38 84.94 C-101.55 87.71 -106.56 90.71 -111.57 93.78 C-112.37 94.18 -113.17 94.58 -114 95 C-114.66 94.67 -115.32 94.34 -116 94 C-107.92 87.37 -99.84 80.78 -91.44 74.56 C-86.86 71.17 -82.34 67.7 -77.81 64.25 C-76.91 63.56 -76.01 62.87 -75.07 62.16 C-70.8 58.9 -66.52 55.63 -62.25 52.36 C-54.58 46.47 -46.87 40.63 -39 35 C-44.97 36.77 -50.35 39.06 -55.84 42.01 C-58 43 -58 43 -61 43 C-61 43.66 -61 44.32 -61 45 C-61.88 45.37 -61.88 45.37 -62.78 45.75 C-65.5 46.89 -68.22 48.04 -70.94 49.19 C-71.86 49.57 -72.79 49.96 -73.74 50.36 C-79.01 52.6 -84.03 55 -88.96 57.89 C-91.92 59.5 -95.02 60.62 -98.17 61.82 C-102.35 63.57 -106.35 65.67 -110.35 67.8 C-111.87 68.59 -113.43 69.3 -115 70 C-115.66 69.67 -116.32 69.34 -117 69 C-114.9 67.62 -112.79 66.25 -110.69 64.88 C-110.11 64.5 -109.54 64.12 -108.94 63.73 C-105.33 61.38 -101.66 59.25 -97.87 57.21 C-91.85 53.96 -86.01 50.43 -80.18 46.86 C-77.08 44.96 -73.97 43.06 -70.87 41.17 C-70.26 40.8 -69.65 40.43 -69.03 40.05 C-64.55 37.32 -60.04 34.64 -55.5 32 C-48.57 27.96 -41.71 23.8 -34.86 19.63 C-17.04 8.79 -17.04 8.79 -8.88 3.94 C-8.19 3.53 -7.5 3.12 -6.8 2.69 C-2.23 0 -2.23 0 0 0 Z " fill="#D7281E" transform="translate(520,694)"/>
<path d="M0 0 C-25.01 21.49 -25.01 21.49 -35.51 29.91 C-38.01 31.95 -38.01 31.95 -40.18 34.15 C-40.84 34.8 -41.5 35.45 -42.19 36.12 C-42.74 36.71 -43.29 37.29 -43.86 37.88 C-50.02 41.09 -60.19 36.48 -66.44 34.75 C-67.58 34.44 -68.72 34.13 -69.9 33.81 C-78.96 31.32 -88 28.72 -97 26 C-97 25.34 -97 24.68 -97 24 C-92.92 22.89 -88.83 21.79 -84.75 20.69 C-83.61 20.38 -82.47 20.07 -81.3 19.75 C-74.78 17.99 -68.25 16.3 -61.7 14.67 C-58 13.75 -54.31 12.79 -50.62 11.81 C-49.86 11.61 -49.09 11.41 -48.3 11.2 C-40.96 9.26 -33.61 7.31 -26.27 5.35 C-24.93 4.99 -23.6 4.64 -22.26 4.28 C-20.37 3.78 -18.47 3.27 -16.58 2.77 C-15.48 2.48 -14.38 2.18 -13.25 1.88 C-10.91 1.25 -8.59 0.55 -6.28 -0.17 C-3 -1 -3 -1 0 0 Z " fill="#D4281E" transform="translate(478,488)"/>
<path d="M0 0 C0.33 0 0.66 0 1 0 C1 47.19 1 94.38 1 143 C-2.3 144.65 -5.6 146.3 -9 148 C-9 147.01 -9 146.02 -9 145 C-8.01 145 -7.02 145 -6 145 C-6 144.01 -6 143.02 -6 142 C-4.35 142 -2.7 142 -1 142 C-1.33 98.77 -1.66 55.54 -2 11 C-2.66 11 -3.32 11 -4 11 C-2.25 3.38 -2.25 3.38 0 0 Z " fill="#AF2A22" transform="translate(565,504)"/>
<path d="M0 0 C0.67 1.33 1.33 2.67 2 4 C2.35 4.58 2.7 5.17 3.06 5.77 C4.26 8.62 4.25 10.85 4.24 13.95 C4.24 15.16 4.25 16.38 4.25 17.64 C4.24 18.98 4.23 20.33 4.23 21.67 C4.23 23.09 4.23 24.51 4.23 25.93 C4.23 29.78 4.22 33.63 4.2 37.48 C4.19 41.51 4.19 45.53 4.19 49.56 C4.18 57.18 4.16 64.8 4.14 72.42 C4.12 81.1 4.11 89.78 4.1 98.45 C4.08 116.3 4.04 134.15 4 152 C3.34 152 2.68 152 2 152 C2 151.26 2 150.52 1.99 149.77 C1.93 131.82 1.86 113.88 1.76 95.93 C1.72 87.26 1.68 78.58 1.65 69.9 C1.63 62.34 1.6 54.77 1.55 47.21 C1.53 43.21 1.51 39.2 1.5 35.2 C1.5 31.43 1.48 27.66 1.45 23.89 C1.44 22.5 1.43 21.12 1.43 19.74 C1.44 17.85 1.42 15.96 1.4 14.07 C1.39 13.01 1.39 11.95 1.38 10.86 C0.95 7.59 -0.21 5.73 -2 3 C-2 2.34 -2 1.68 -2 1 C-1.34 0.67 -0.68 0.34 0 0 Z " fill="#501B18" transform="translate(284,783)"/>
<path d="M0 0 C0.66 0 1.32 0 2 0 C2.66 2.64 3.32 5.28 4 8 C3.67 8 3.34 8 3 8 C2.98 25.44 2.96 42.87 2.95 60.31 C2.94 68.41 2.94 76.5 2.92 84.6 C2.91 91.65 2.91 98.71 2.91 105.76 C2.9 109.5 2.9 113.24 2.89 116.97 C2.89 121.14 2.89 125.31 2.89 129.47 C2.88 130.72 2.88 131.96 2.88 133.25 C2.88 134.38 2.88 135.51 2.88 136.67 C2.88 137.66 2.88 138.64 2.88 139.66 C2.85 142.02 2.85 142.02 4 144 C2.68 143.67 1.36 143.34 0 143 C0 95.81 0 48.62 0 0 Z " fill="#A02822" transform="translate(34,504)"/>
<path d="M0 0 C1.42 0.31 2.85 0.62 4.27 0.93 C5.06 1.11 5.85 1.28 6.67 1.46 C9.85 2.2 12.95 3.14 16.06 4.12 C17.19 4.48 18.31 4.83 19.47 5.2 C20.72 5.59 20.72 5.59 22 6 C22 6.33 22 6.66 22 7 C20.54 6.94 19.08 6.85 17.62 6.75 C16.81 6.7 16 6.66 15.16 6.61 C10.6 5.73 6.32 3.73 2 2 C2 26.42 2 50.84 2 76 C5.3 76.33 8.6 76.66 12 77 C12.33 77.66 12.66 78.32 13 79 C15.12 79.69 15.12 79.69 17.56 80.12 C18.39 80.29 19.22 80.46 20.07 80.63 C21.02 80.81 21.02 80.81 22 81 C22 81.66 22 82.32 22 83 C15.66 82.5 4.62 81.62 0 77 C-0.09 74.6 -0.13 72.22 -0.11 69.82 C-0.11 69.07 -0.11 68.32 -0.11 67.54 C-0.11 65.05 -0.11 62.55 -0.1 60.06 C-0.1 58.33 -0.09 56.61 -0.09 54.88 C-0.09 50.33 -0.08 45.79 -0.07 41.24 C-0.06 36.6 -0.05 31.96 -0.05 27.32 C-0.04 18.21 -0.02 9.11 0 0 Z " fill="#A92922" transform="translate(34,342)"/>
<path d="M0 0 C0 25.41 0 50.82 0 77 C-3.77 78.88 -5.03 79.22 -9 79 C-7.75 77.5 -7.75 77.5 -6 76 C-4.68 76 -3.36 76 -2 76 C-2 51.58 -2 27.16 -2 2 C-3.32 2 -4.64 2 -6 2 C-6 2.66 -6 3.32 -6 4 C-9.47 5.16 -12.36 5.07 -16 5 C-16 5.66 -16 6.32 -16 7 C-18.75 7.92 -20.36 8.11 -23.19 8.06 C-25.07 8.03 -25.07 8.03 -27 8 C-24.22 6.15 -22.37 5.39 -19.22 4.49 C-18.29 4.23 -17.37 3.96 -16.42 3.69 C-15.46 3.42 -14.49 3.15 -13.5 2.88 C-12.54 2.6 -11.57 2.32 -10.58 2.04 C-3.39 0 -3.39 0 0 0 Z " fill="#AF2A22" transform="translate(566,342)"/>
<path d="M0 0 C1.32 0 2.64 0 4 0 C5.97 18.24 6.41 36.39 6.6 54.71 C6.64 58.48 6.69 62.25 6.74 66.02 C6.84 73.34 6.92 80.67 7 88 C7.76 87.96 8.51 87.92 9.29 87.88 C13.04 88.05 15.04 89.8 18 92 C16 93 16 93 13.62 92.22 C12.71 91.84 11.81 91.46 10.88 91.06 C9.96 90.68 9.05 90.3 8.12 89.91 C7.42 89.61 6.72 89.31 6 89 C3.46 59.69 2.76 30.41 3 1 C2.01 0.67 1.02 0.34 0 0 Z " fill="#581B17" transform="translate(241,535)"/>
<path d="M0 0 C0.66 0.33 1.32 0.66 2 1 C1.67 1.33 1.34 1.66 1 2 C1.99 2.66 2.98 3.32 4 4 C2.98 4.44 1.97 4.87 0.92 5.32 C-0.47 5.92 -1.86 6.52 -3.25 7.12 C-3.97 7.44 -4.69 7.75 -5.44 8.07 C-11 10.51 -16.38 13.17 -21.74 16.03 C-22.49 16.35 -23.23 16.67 -24 17 C-24.66 16.67 -25.32 16.34 -26 16 C-18.48 11.06 -10.98 6.28 -3.01 2.09 C-1.06 1.16 -1.06 1.16 0 0 Z " fill="#962923" transform="translate(429,747)"/>
<path d="M0 0 C0.98 3.05 0.98 4.95 0 8 C-0.66 8 -1.32 8 -2 8 C-2.08 8.76 -2.17 9.53 -2.25 10.31 C-3.29 15.41 -5.14 20.15 -7 25 C-7.66 25 -8.32 25 -9 25 C-9 27.31 -9 29.62 -9 32 C-12.3 32 -15.6 32 -19 32 C-16 30 -16 30 -13.47 29.29 C-10.71 28.16 -10.71 28.16 -9.56 25.02 C-9.19 23.82 -8.82 22.62 -8.44 21.38 C-7.12 17.28 -5.82 13.32 -3.81 9.5 C-2.19 6.36 -1.01 3.38 0 0 Z " fill="#481915" transform="translate(510,536)"/>
<path d="M0 0 C0.66 0.33 1.32 0.66 2 1 C-0.48 2.49 -0.48 2.49 -3 4 C0.63 4 4.26 4 8 4 C8 4.33 8 4.66 8 5 C4.42 5.7 0.84 6.38 -2.75 7.06 C-4.27 7.36 -4.27 7.36 -5.83 7.67 C-6.81 7.85 -7.79 8.03 -8.8 8.22 C-9.7 8.4 -10.6 8.57 -11.53 8.75 C-14 9 -15.65 8.77 -18 8 C-15.56 6.85 -13.13 5.71 -10.69 4.56 C-10 4.24 -9.31 3.91 -8.6 3.58 C-5.76 2.25 -2.98 0.99 0 0 Z " fill="#561714" transform="translate(320,314)"/>
<path d="M0 0 C4.48 3.67 6.35 8.47 8.69 13.62 C9.09 14.5 9.49 15.37 9.91 16.27 C10.65 17.87 11.39 19.48 12.12 21.09 C12.73 22.41 13.35 23.71 14 25 C13.01 25 12.02 25 11 25 C11 24.01 11 23.02 11 22 C10.34 22 9.68 22 9 22 C8.07 20.14 7.15 18.29 6.22 16.43 C5.37 14.74 4.5 13.06 3.62 11.38 C3.17 10.51 2.72 9.65 2.25 8.75 C1.82 7.94 1.39 7.13 0.95 6.3 C0 4 0 4 0 0 Z " fill="#3D3D3D" transform="translate(343,82)"/>
<path d="M0 0 C6.43 -0.92 10.94 2.3 16.31 5.38 C17.23 5.88 18.15 6.39 19.1 6.91 C25.86 10.71 25.86 10.71 27 13 C18.83 10.6 11.54 6.9 4 3 C2.67 2.33 1.34 1.66 0 1 C0 0.67 0 0.34 0 0 Z " fill="#A12A24" transform="translate(170,751)"/>
<path d="M0 0 C0.33 0 0.66 0 1 0 C1.29 3.38 1.41 6.63 1 10 C-2.11 13.11 -6.74 13.99 -10.91 15.25 C-13.26 16 -13.26 16 -16 18 C-18.04 18.2 -18.04 18.2 -20.19 18.12 C-21.45 18.08 -22.7 18.04 -24 18 C-21.17 16.11 -18.74 15.04 -15.56 13.88 C-14.14 13.35 -14.14 13.35 -12.69 12.8 C-10 12 -10 12 -6 12 C-6 11.34 -6 10.68 -6 10 C-4.02 9.67 -2.04 9.34 0 9 C0 6.03 0 3.06 0 0 Z " fill="#AA2720" transform="translate(353,615)"/>
<path d="M0 0 C0.66 0 1.32 0 2 0 C2 0.99 2 1.98 2 3 C2.66 3 3.32 3 4 3 C4.33 4.65 4.66 6.3 5 8 C5.8 8.24 6.59 8.48 7.41 8.73 C13.2 10.57 18.19 12.26 23 16 C21 17 21 17 19.06 16.52 C16.52 15.59 14.01 14.62 11.5 13.62 C10.62 13.31 9.74 13 8.83 12.68 C2.53 10.16 2.53 10.16 0.96 6.7 C0.46 4.45 0.13 2.3 0 0 Z " fill="#B22822" transform="translate(110,583)"/>
<path d="M0 0 C-0.33 0.99 -0.66 1.98 -1 3 C-1.59 3.04 -2.18 3.07 -2.79 3.11 C-7.74 3.53 -10.76 4.29 -15 7 C-17.81 7.19 -17.81 7.19 -20 7 C-20 7.66 -20 8.32 -20 9 C-22.31 8.67 -24.62 8.34 -27 8 C-24.64 5.64 -23.21 5.37 -20 4.56 C-15.34 3.36 -10.77 2.02 -6.19 0.55 C-4 0 -4 0 0 0 Z " fill="#B02820" transform="translate(500,361)"/>
<path d="M0 0 C4.29 0 8.58 0 13 0 C13 0.99 13 1.98 13 3 C13.95 3.12 14.9 3.25 15.88 3.38 C19 4 19 4 21 6 C14.12 5.58 7.4 4.7 1 2 C0.67 1.34 0.34 0.68 0 0 Z " fill="#AF2720" transform="translate(95,436)"/>
<path d="M0 0 C1.13 3.82 0.65 5.7 -0.81 9.44 C-1.17 10.36 -1.53 11.29 -1.89 12.25 C-2.26 13.15 -2.62 14.06 -3 15 C-3.5 16.38 -3.5 16.38 -4.01 17.79 C-5 20 -5 20 -7 21 C-8.13 23.02 -8.13 23.02 -9 25 C-9.33 24.34 -9.66 23.68 -10 23 C-9.2 20.66 -9.2 20.66 -7.91 17.77 C-7.46 16.74 -7 15.71 -6.53 14.65 C-6.05 13.57 -5.56 12.49 -5.06 11.38 C-4.34 9.74 -4.34 9.74 -3.6 8.08 C-2.41 5.38 -1.21 2.69 0 0 Z " fill="#B12921" transform="translate(534,571)"/>
<path d="M0 0 C2.86 2.47 4.08 5.05 5.56 8.5 C6.89 11.58 8.13 14.2 10 17 C10 18.32 10 19.64 10 21 C9.34 21 8.68 21 8 21 C6.66 18.25 5.33 15.5 4 12.75 C3.62 11.97 3.24 11.2 2.84 10.39 C2.48 9.64 2.12 8.89 1.75 8.11 C1.41 7.42 1.08 6.73 0.73 6.01 C0 4 0 4 0 0 Z " fill="#2D2D2D" transform="translate(366,126)"/>
<path d="M0 0 C0.66 0.33 1.32 0.66 2 1 C1.67 1.99 1.34 2.98 1 4 C-0.65 4 -2.3 4 -4 4 C-4.33 4.99 -4.66 5.98 -5 7 C-10.94 7.5 -10.94 7.5 -17 8 C-14.27 5.27 -11.03 4.21 -7.5 2.81 C-6.81 2.53 -6.12 2.24 -5.41 1.95 C-3.63 1.23 -1.82 0.61 0 0 Z " fill="#501B18" transform="translate(362,643)"/>
<path d="M0 0 C5.74 -0.2 10.61 -0.27 16 2 C16 2.66 16 3.32 16 4 C18.97 4.5 18.97 4.5 22 5 C18.82 6.04 16.87 5.94 13.67 5 C12.47 4.66 12.47 4.66 11.25 4.31 C10.43 4.06 9.6 3.82 8.75 3.56 C7.49 3.2 7.49 3.2 6.2 2.83 C4.13 2.23 2.07 1.61 0 1 C0 0.67 0 0.34 0 0 Z " fill="#4C1A17" transform="translate(373,539)"/>
<path d="M0 0 C0.66 0.33 1.32 0.66 2 1 C0.69 2.5 0.69 2.5 -1 4 C-1.99 4 -2.98 4 -4 4 C-4.25 4.6 -4.5 5.2 -4.75 5.81 C-6.22 8.38 -7.43 9.53 -10 11 C-12.75 11.19 -12.75 11.19 -15 11 C-15 10.34 -15 9.68 -15 9 C-12.99 7.6 -12.99 7.6 -10.31 6.06 C-9.44 5.56 -8.57 5.05 -7.68 4.54 C-6.79 4.03 -5.91 3.52 -5 3 C-4.11 2.42 -3.21 1.84 -2.29 1.25 C-1.16 0.63 -1.16 0.63 0 0 Z " fill="#2E2E2E" transform="translate(97,264)"/>
<path d="M0 0 C-2.47 2.47 -3.57 2.55 -7 3 C-8.99 3 -10.97 3 -12.96 2.97 C-15.25 2.96 -15.25 2.96 -18.5 3.5 C-22.41 4.06 -26.06 4.07 -30 4 C-30 3.67 -30 3.34 -30 3 C-26.5 2.49 -23 1.99 -19.5 1.5 C-18.03 1.29 -18.03 1.29 -16.52 1.07 C-10.95 0.29 -5.63 -0.16 0 0 Z " fill="#9D2822" transform="translate(429,265)"/>
<path d="M0 0 C0.99 0 1.98 0 3 0 C3 0.99 3 1.98 3 3 C3.66 3 4.32 3 5 3 C5.7 4.26 6.38 5.54 7.06 6.81 C7.64 7.87 7.64 7.87 8.22 8.96 C9 11 9 11 8 14 C7.38 13.2 6.76 12.39 6.12 11.56 C4.26 8.96 4.26 8.96 2 8 C1.37 6.15 1.37 6.15 0.88 3.94 C0.71 3.2 0.54 2.47 0.37 1.71 C0.25 1.15 0.12 0.58 0 0 Z " fill="#333333" transform="translate(398,192)"/>
<path d="M0 0 C-8.75 7 -8.75 7 -13 7 C-13.33 7.66 -13.66 8.32 -14 9 C-14.66 9 -15.32 9 -16 9 C-15.43 6.13 -15.14 5.14 -13 3 C-11.33 2.66 -9.67 2.33 -8 2 C-4.77 -0.15 -3.72 -0.2 0 0 Z " fill="#343434" transform="translate(581,679)"/>
<path d="M0 0 C-1.64 0.9 -1.64 0.9 -3.31 1.81 C-5.47 3.02 -6.86 3.83 -8.44 5.75 C-11.21 7.96 -14.58 7.17 -18 7 C-14.84 4.4 -11.64 2.82 -7.88 1.25 C-6.82 0.8 -5.77 0.35 -4.68 -0.11 C-2 -1 -2 -1 0 0 Z " fill="#4B1A18" transform="translate(465,345)"/>
<path d="M0 0 C-1.29 3.88 -2.89 4.53 -6.31 6.69 C-7.28 7.31 -8.24 7.93 -9.24 8.57 C-12 10 -12 10 -16 10 C-16 9.34 -16 8.68 -16 8 C-15.18 7.61 -14.35 7.22 -13.5 6.81 C-10.09 5.05 -6.94 3.09 -3.73 0.99 C-2 0 -2 0 0 0 Z " fill="#4B4B4B" transform="translate(166,225)"/>
<path d="M0 0 C3 3.53 5.2 7.03 7.25 11.19 C8.03 12.76 8.03 12.76 8.83 14.36 C10 17 10 17 10 19 C9.34 19 8.68 19 8 19 C7.04 17.27 6.08 15.54 5.12 13.81 C4.59 12.85 4.06 11.89 3.51 10.89 C0 4.16 0 4.16 0 0 Z " fill="#3E3E3E" transform="translate(382,158)"/>
<path d="M0 0 C2.31 0 4.62 0 7 0 C7 0.66 7 1.32 7 2 C7.52 2.1 8.03 2.21 8.56 2.31 C11.87 3.24 14.9 4.54 18 6 C18.33 6.66 18.66 7.32 19 8 C12.39 6.18 6.19 3.95 0 1 C0 0.67 0 0.34 0 0 Z " fill="#AD2821" transform="translate(143,604)"/>
<path d="M0 0 C-7.03 5.49 -7.03 5.49 -12 6 C-13.09 6.19 -14.19 6.37 -15.31 6.56 C-16.2 6.71 -17.09 6.85 -18 7 C-14.84 4.4 -11.64 2.82 -7.88 1.25 C-6.82 0.8 -5.77 0.35 -4.68 -0.11 C-2 -1 -2 -1 0 0 Z " fill="#521B16" transform="translate(345,652)"/>
<path d="M0 0 C1.98 0 3.96 0 6 0 C6 0.66 6 1.32 6 2 C6.66 2 7.32 2 8 2 C8.33 3.98 8.66 5.96 9 8 C8.01 8 7.02 8 6 8 C5.34 6.35 4.68 4.7 4 3 C2.51 3.99 2.51 3.99 1 5 C0.67 3.35 0.34 1.7 0 0 Z " fill="#2E2E2E" transform="translate(297,0)"/>
<path d="M0 0 C6.45 2.06 12.74 4.42 19 7 C15.64 8.12 15.26 7.95 12.19 6.62 C8.8 5.25 5.64 4.46 2 4 C2 3.34 2 2.68 2 2 C1.34 2 0.68 2 0 2 C0 1.34 0 0.68 0 0 Z " fill="#B42822" transform="translate(173,643)"/>
<path d="M0 0 C0.66 0.33 1.32 0.66 2 1 C1.01 1.66 0.02 2.32 -1 3 C-0.67 3.66 -0.34 4.32 0 5 C-1.41 5.37 -2.83 5.72 -4.25 6.06 C-5.04 6.26 -5.83 6.46 -6.64 6.66 C-9.1 7.01 -10.66 6.77 -13 6 C-11.4 5.19 -9.79 4.37 -8.19 3.56 C-7.29 3.11 -6.4 2.66 -5.48 2.19 C-3 1 -3 1 0 0 Z " fill="#571713" transform="translate(320,359)"/>
<path d="M0 0 C2.97 0.5 2.97 0.5 6 1 C6 1.66 6 2.32 6 3 C7.32 2.67 8.64 2.34 10 2 C11.65 3.98 13.3 5.96 15 8 C11.08 8 9.17 6.56 5.81 4.56 C4.73 3.92 3.64 3.29 2.52 2.63 C1.69 2.09 0.86 1.55 0 1 C0 0.67 0 0.34 0 0 Z " fill="#B12721" transform="translate(119,332)"/>
<path d="M0 0 C-6.38 5.02 -6.38 5.02 -10.36 4.98 C-11.54 4.8 -11.54 4.8 -12.75 4.62 C-13.55 4.51 -14.35 4.4 -15.17 4.29 C-15.78 4.19 -16.38 4.1 -17 4 C-17 3.67 -17 3.34 -17 3 C-15.11 2.49 -13.21 1.99 -11.31 1.5 C-9.73 1.08 -9.73 1.08 -8.11 0.66 C-5.29 0.06 -2.87 -0.13 0 0 Z " fill="#8F2824" transform="translate(521,318)"/>
<path d="M0 0 C0.33 0 0.66 0 1 0 C1.54 5.39 0.12 9.63 -3 14 C-3.99 14.33 -4.98 14.66 -6 15 C-4.85 10.5 -3.5 6.91 -1 3 C-0.67 2.01 -0.34 1.02 0 0 Z " fill="#464646" transform="translate(246,100)"/>
<path d="M0 0 C7.48 0.28 12.65 3.18 19 7 C17 8 17 8 15.21 7.47 C14.16 7.02 14.16 7.02 13.09 6.57 C11.95 6.09 11.95 6.09 10.78 5.6 C9.99 5.26 9.19 4.92 8.38 4.56 C7.57 4.22 6.77 3.89 5.95 3.54 C3.96 2.7 1.98 1.85 0 1 C0 0.67 0 0.34 0 0 Z " fill="#9C261F" transform="translate(176,618)"/>
<path d="M0 0 C3.3 0 6.6 0 10 0 C10 0.66 10 1.32 10 2 C15.44 3.49 15.44 3.49 21 5 C17.16 5.96 16.38 6.09 12.89 5 C11.76 4.66 11.76 4.66 10.61 4.31 C9.44 3.94 9.44 3.94 8.25 3.56 C7.46 3.32 6.66 3.08 5.85 2.83 C3.9 2.23 1.95 1.61 0 1 C0 0.67 0 0.34 0 0 Z " fill="#5B1B18" transform="translate(396,545)"/>
<path d="M0 0 C-2.65 1.46 -3.89 2 -7 2 C-7.33 3.32 -7.66 4.64 -8 6 C-10.97 6 -13.94 6 -17 6 C-15.42 2.83 -12.24 2.42 -9.06 1.31 C-8.42 1.07 -7.77 0.84 -7.1 0.59 C-2.25 -1.13 -2.25 -1.13 0 0 Z " fill="#A3261F" transform="translate(402,654)"/>
<path d="M0 0 C-0.61 0.27 -1.23 0.53 -1.86 0.8 C-2.67 1.16 -3.48 1.51 -4.31 1.88 C-5.11 2.22 -5.91 2.57 -6.74 2.93 C-9.2 4.03 -9.2 4.03 -12 6 C-13.32 5.34 -14.64 4.68 -16 4 C-14.09 3.13 -12.17 2.28 -10.25 1.44 C-9.18 0.96 -8.12 0.49 -7.02 -0 C-4.02 -0.99 -2.87 -1.16 0 0 Z " fill="#A32620" transform="translate(440,640)"/>
<path d="M0 0 C2.6 3.16 4.18 6.36 5.75 10.12 C6.2 11.18 6.65 12.23 7.11 13.32 C8 16 8 16 7 18 C2.94 12.4 0 7.04 0 0 Z " fill="#4B1816" transform="translate(96,553)"/>
<path d="M0 0 C4.95 1.89 9.59 4.06 14 7 C14 7.66 14 8.32 14 9 C9.16 7.58 5.22 5.73 1 3 C0.67 2.01 0.34 1.02 0 0 Z " fill="#383838" transform="translate(586,313)"/>
<path d="M0 0 C0 0.66 0 1.32 0 2 C-2.05 3.54 -2.05 3.54 -4.75 5.19 C-5.63 5.74 -6.51 6.29 -7.42 6.86 C-10 8 -10 8 -12.33 7.68 C-12.88 7.45 -13.43 7.23 -14 7 C-12.38 6.02 -10.75 5.04 -9.12 4.06 C-8.22 3.52 -7.32 2.97 -6.38 2.41 C-2.31 0 -2.31 0 0 0 Z " fill="#AF2821" transform="translate(132,286)"/>
<path d="M0 0 C0.33 0.99 0.66 1.98 1 3 C-0.44 3.82 -1.87 4.63 -3.31 5.44 C-4.51 6.12 -4.51 6.12 -5.74 6.81 C-8 8 -8 8 -11 9 C-9.73 5.18 -8.37 4.77 -4.94 2.81 C-4.02 2.28 -3.1 1.75 -2.15 1.21 C-1.44 0.81 -0.73 0.41 0 0 Z " fill="#393939" transform="translate(178,217)"/>
<path d="M0 0 C0 2 0 2 -1.21 3.52 C-3.3 5.25 -5.1 5.9 -7.69 6.69 C-8.9 7.06 -8.9 7.06 -10.14 7.45 C-11.06 7.72 -11.06 7.72 -12 8 C-12 7.34 -12 6.68 -12 6 C-9.88 4.49 -9.88 4.49 -7.12 2.88 C-6.22 2.34 -5.32 1.8 -4.38 1.24 C-2 0 -2 0 0 0 Z " fill="#343434" transform="translate(192,210)"/>
<path d="M0 0 C0.66 0.33 1.32 0.66 2 1 C0 4 0 4 -3 5 C-4.69 7 -4.69 7 -6 9 C-7.32 8.67 -8.64 8.34 -10 8 C-6.7 5.36 -3.4 2.72 0 0 Z " fill="#B42921" transform="translate(474,734)"/>
<path d="M0 0 C7.33 -0.37 7.33 -0.37 10.5 1.38 C12 3 12 3 12 5 C10.37 4.55 8.75 4.09 7.12 3.62 C5.77 3.24 5.77 3.24 4.38 2.85 C2 2 2 2 0 0 Z " fill="#4E1917" transform="translate(119,622)"/>
<path d="M0 0 C1.32 0.33 2.64 0.66 4 1 C4 1.66 4 2.32 4 3 C5.32 3.33 6.64 3.66 8 4 C8 4.66 8 5.32 8 6 C8.66 6 9.32 6 10 6 C10 6.99 10 7.98 10 9 C8 9 8 9 5.56 6.62 C4.72 5.76 3.87 4.89 3 4 C2.01 3.34 1.02 2.68 0 2 C0 1.34 0 0.68 0 0 Z " fill="#3C3C3C" transform="translate(235,939)"/>
<path d="M0 0 C3.96 1.98 3.96 1.98 8 4 C8 4.66 8 5.32 8 6 C8.66 6 9.32 6 10 6 C10 6.99 10 7.98 10 9 C9.34 9 8.68 9 8 9 C8 8.34 8 7.68 8 7 C7.24 6.71 6.47 6.42 5.69 6.12 C3 5 3 5 0 3 C0 2.01 0 1.02 0 0 Z " fill="#454545" transform="translate(45,770)"/>
<path d="M0 0 C1.77 0.06 3.54 0.15 5.31 0.25 C6.79 0.32 6.79 0.32 8.3 0.39 C11 1 11 1 12.86 3.05 C13.23 3.69 13.61 4.34 14 5 C8.95 4.37 4.7 2.87 0 1 C0 0.67 0 0.34 0 0 Z " fill="#4E1917" transform="translate(101,615)"/>
<path d="M0 0 C0.66 0 1.32 0 2 0 C2 0.66 2 1.32 2 2 C2.99 2 3.98 2 5 2 C5 2.66 5 3.32 5 4 C7.47 4.99 7.47 4.99 10 6 C10 6.66 10 7.32 10 8 C6.26 7.49 4.44 6.89 2 4 C1.44 3.44 0.89 2.89 0.31 2.31 C-0.12 1.88 -0.55 1.45 -1 1 C-0.67 0.67 -0.34 0.34 0 0 Z " fill="#3F3F3F" transform="translate(141,837)"/>
<path d="M0 0 C-8.08 5.74 -8.08 5.74 -14 5 C-12.54 2.07 -10.59 1.9 -7.56 0.81 C-6.57 0.45 -5.59 0.08 -4.57 -0.29 C-2 -1 -2 -1 0 0 Z " fill="#A82722" transform="translate(334,680)"/>
<path d="M0 0 C7.75 0.75 7.75 0.75 10 3 C12.57 3.65 12.57 3.65 15 4 C15 4.66 15 5.32 15 6 C9.55 4.97 4.88 3.75 0 1 C0 0.67 0 0.34 0 0 Z " fill="#461816" transform="translate(273,633)"/>
<path d="M0 0 C0.33 0.66 0.66 1.32 1 2 C2.65 2.71 4.32 3.37 6 4 C7.34 4.65 8.68 5.31 10 6 C10 6.66 10 7.32 10 8 C5.95 6.77 2.56 5.3 -1 3 C-0.67 2.01 -0.34 1.02 0 0 Z " fill="#3D3D3D" transform="translate(570,302)"/>
<path d="M0 0 C0 0.33 0 0.66 0 1 C-1.65 1 -3.3 1 -5 1 C-5.33 2.32 -5.66 3.64 -6 5 C-7.32 5 -8.64 5 -10 5 C-10 4.01 -10 3.02 -10 2 C-6.42 -0.86 -4.36 -1.37 0 0 Z " fill="#383838" transform="translate(61,288)"/>
<path d="M0 0 C0 0.66 0 1.32 0 2 C-0.66 2 -1.32 2 -2 2 C-2 2.66 -2 3.32 -2 4 C-4.31 4.33 -6.62 4.66 -9 5 C-9 5.66 -9 6.32 -9 7 C-9.99 6.67 -10.98 6.34 -12 6 C-10.71 5.19 -9.42 4.37 -8.12 3.56 C-7.05 2.88 -7.05 2.88 -5.95 2.19 C-2.37 0 -2.37 0 0 0 Z " fill="#393939" transform="translate(143,239)"/>
<path d="M0 0 C3.42 1.2 5.56 2.33 8 5 C8.99 5.66 9.98 6.32 11 7 C10.67 7.66 10.34 8.32 10 9 C2.47 5.87 2.47 5.87 0.5 2.25 C0.33 1.51 0.17 0.76 0 0 Z " fill="#383838" transform="translate(407,208)"/>
<path d="M0 0 C0.99 0.66 1.98 1.32 3 2 C-0.3 4.31 -3.6 6.62 -7 9 C-7.66 8.67 -8.32 8.34 -9 8 C-6.03 5.36 -3.06 2.72 0 0 Z " fill="#8E2B25" transform="translate(412,804)"/>
<path d="M0 0 C0.66 0.33 1.32 0.66 2 1 C0.5 4 -0.37 5.69 -3.44 7.19 C-4.28 7.46 -5.13 7.72 -6 8 C-7.34 8.65 -8.68 9.31 -10 10 C-7.03 6 -3.87 3.08 0 0 Z " fill="#471816" transform="translate(455,506)"/>
<path d="M0 0 C-0.99 0 -1.98 0 -3 0 C-3.33 0.99 -3.66 1.98 -4 3 C-6.97 3 -9.94 3 -13 3 C-9.55 -0.45 -4.64 -1.85 0 0 Z " fill="#531B17" transform="translate(435,458)"/>
<path d="M0 0 C1.32 0 2.64 0 4 0 C4 0.66 4 1.32 4 2 C5.65 2 7.3 2 9 2 C9 2.99 9 3.98 9 5 C9.99 5 10.98 5 12 5 C12 5.66 12 6.32 12 7 C7.69 5.43 3.94 3.32 0 1 C0 0.67 0 0.34 0 0 Z " fill="#B02822" transform="translate(107,325)"/>
<path d="M0 0 C0.75 1.56 0.75 1.56 1 4 C-0.13 6.5 -1.52 8.67 -3 11 C-3.66 11 -4.32 11 -5 11 C-3.77 6.95 -2.3 3.56 0 0 Z " fill="#343434" transform="translate(239,116)"/>
<path d="M0 0 C1.14 3.41 0.87 4 -0.44 7.19 C-0.72 7.9 -1.01 8.62 -1.31 9.36 C-1.65 10.17 -1.65 10.17 -2 11 C-2.99 11 -3.98 11 -5 11 C-3.55 7.21 -1.85 3.61 0 0 Z " fill="#3B3B3B" transform="translate(258,78)"/>
<path d="M0 0 C3.72 0.51 6.73 1.12 10 3 C10 3.99 10 4.98 10 6 C9.01 6 8.02 6 7 6 C7 5.34 7 4.68 7 4 C5.35 3.67 3.7 3.34 2 3 C2 2.34 2 1.68 2 1 C1.34 0.67 0.68 0.34 0 0 Z " fill="#363636" transform="translate(17,677)"/>
<path d="M0 0 C-9.62 5 -9.62 5 -14 5 C-14 4.34 -14 3.68 -14 3 C-12.68 3 -11.36 3 -10 3 C-10 2.34 -10 1.68 -10 1 C-6.59 0.22 -3.49 -0.1 0 0 Z " fill="#481915" transform="translate(472,626)"/>
<path d="M0 0 C2.25 2.25 3.01 4.06 4.19 7 C4.55 7.89 4.92 8.77 5.29 9.69 C6 12 6 12 5 14 C1.32 9.25 0.41 5.99 0 0 Z " fill="#4D1817" transform="translate(90,538)"/>
<path d="M0 0 C-0.99 0 -1.98 0 -3 0 C-3 0.66 -3 1.32 -3 2 C-5.75 2.92 -7.36 3.11 -10.19 3.06 C-12.07 3.03 -12.07 3.03 -14 3 C-9.74 0.16 -5.04 -2.01 0 0 Z " fill="#551A18" transform="translate(470,448)"/>
<path d="M0 0 C3.96 1.98 3.96 1.98 8 4 C8 4.66 8 5.32 8 6 C8.99 6.33 9.98 6.66 11 7 C6.24 7 4.69 5.87 1 3 C0.67 2.01 0.34 1.02 0 0 Z " fill="#383838" transform="translate(442,229)"/>
<path d="M0 0 C0.66 0 1.32 0 2 0 C0.52 6.65 0.52 6.65 -2.12 8.44 C-2.74 8.62 -3.36 8.81 -4 9 C-3.12 4.25 -3.12 4.25 -2 2 C-1.34 2 -0.68 2 0 2 C0 1.34 0 0.68 0 0 Z " fill="#333333" transform="translate(203,186)"/>
<path d="M0 0 C0.66 0 1.32 0 2 0 C1.29 3.67 -0.28 6.7 -2 10 C-2.66 10 -3.32 10 -4 10 C-3.52 8.52 -3.04 7.04 -2.56 5.56 C-2.3 4.74 -2.03 3.92 -1.75 3.07 C-1 1 -1 1 0 0 Z " fill="#424242" transform="translate(218,156)"/>
<path d="M0 0 C1.43 2.86 0.6 4.93 0 8 C-1.65 8.33 -3.3 8.66 -5 9 C-3.75 5.54 -2.32 2.85 0 0 Z " fill="#A9261F" transform="translate(324,803)"/>
<path d="M0 0 C2.94 0.75 2.94 0.75 6 2 C6.88 4.12 6.88 4.12 7 6 C2.25 4.12 2.25 4.12 0 3 C0 2.01 0 1.02 0 0 Z " fill="#2D2D2D" transform="translate(66,785)"/>
<path d="M0 0 C0 0.66 0 1.32 0 2 C-2.75 4.19 -2.75 4.19 -6 6 C-8.2 5.61 -8.2 5.61 -10 5 C-8.71 4.16 -7.42 3.33 -6.12 2.5 C-5.41 2.04 -4.69 1.57 -3.95 1.09 C-2 0 -2 0 0 0 Z " fill="#4E1A16" transform="translate(425,728)"/>
<path d="M0 0 C2.7 2.7 3.71 5.43 5 9 C4.69 11.44 4.69 11.44 4 13 C0.88 8.66 0.44 5.2 0 0 Z " fill="#A32720" transform="translate(39,513)"/>
<path d="M0 0 C5.37 -0.35 5.37 -0.35 8 0 C10 2 10 2 11 4 C7.05 3.45 3.65 2.61 0 1 C0 0.67 0 0.34 0 0 Z " fill="#501A18" transform="translate(132,627)"/>
<path d="M0 0 C1.39 4.18 -0.18 6.13 -2 10 C-2.99 9.67 -3.98 9.34 -5 9 C-3.35 6.03 -1.7 3.06 0 0 Z " fill="#545454" transform="translate(225,142)"/>
<path d="M0 0 C3.82 0.53 6.06 1.5 9 4 C8.67 4.99 8.34 5.98 8 7 C6.66 6.02 5.33 5.04 4 4.06 C3.26 3.52 2.51 2.97 1.75 2.41 C1.17 1.94 0.59 1.48 0 1 C0 0.67 0 0.34 0 0 Z " fill="#383838" transform="translate(255,956)"/>
<path d="M0 0 C0.66 0.33 1.32 0.66 2 1 C-2.31 6.78 -2.31 6.78 -5.81 7.88 C-6.9 7.94 -6.9 7.94 -8 8 C-5.33 5.33 -2.67 2.67 0 0 Z " fill="#461815" transform="translate(365,894)"/>
<path d="M0 0 C0.99 0.33 1.98 0.66 3 1 C0.65 3.72 -1.62 4.81 -5 6 C-5 5.01 -5 4.02 -5 3 C-3.35 2.67 -1.7 2.34 0 2 C0 1.34 0 0.68 0 0 Z " fill="#383838" transform="translate(446,845)"/>
<path d="M0 0 C2.97 1.98 5.94 3.96 9 6 C8.01 6.5 8.01 6.5 7 7 C4.84 6 4.84 6 2.38 4.56 C1.56 4.09 0.74 3.62 -0.1 3.13 C-0.73 2.76 -1.35 2.38 -2 2 C-1.34 1.34 -0.68 0.68 0 0 Z " fill="#802924" transform="translate(189,783)"/>
<path d="M0 0 C4.75 1.88 4.75 1.88 7 3 C7 3.99 7 4.98 7 6 C2.32 4.52 2.32 4.52 0.69 1.88 C0.46 1.26 0.23 0.64 0 0 Z " fill="#2F2F2F" transform="translate(56,778)"/>
<path d="M0 0 C0 0.66 0 1.32 0 2 C-0.99 2.33 -1.98 2.66 -3 3 C-3.71 3.8 -3.71 3.8 -4.44 4.62 C-4.95 5.08 -5.47 5.53 -6 6 C-8.1 5.59 -8.1 5.59 -10 5 C-8.71 4.16 -7.42 3.33 -6.12 2.5 C-5.41 2.04 -4.69 1.57 -3.95 1.09 C-2 0 -2 0 0 0 Z " fill="#AD2721" transform="translate(503,704)"/>
<path d="M0 0 C0.66 0.66 1.32 1.32 2 2 C1.34 2 0.68 2 0 2 C0 2.66 0 3.32 0 4 C-2.64 4.33 -5.28 4.66 -8 5 C-5.31 2.75 -3.35 1.12 0 0 Z " fill="#4A4A4A" transform="translate(31,302)"/>
<path d="M0 0 C0.66 0.66 1.32 1.32 2 2 C1.34 2 0.68 2 0 2 C0 2.66 0 3.32 0 4 C-0.99 4 -1.98 4 -3 4 C-3 4.66 -3 5.32 -3 6 C-3.99 5.67 -4.98 5.34 -6 5 C-6 4.34 -6 3.68 -6 3 C-4.02 2.01 -2.04 1.02 0 0 Z " fill="#2C2C2C" transform="translate(38,298)"/>
<path d="M0 0 C3.37 0.55 5.08 1.05 8 3 C7.67 3.66 7.34 4.32 7 5 C4.62 4.75 4.62 4.75 2 4 C0.69 1.94 0.69 1.94 0 0 Z " fill="#3B3B3B" transform="translate(537,285)"/>
<path d="M0 0 C3.44 2.66 4 5.9 5 10 C2 9 2 9 0.81 6.69 C0 4 0 4 0 0 Z " fill="#505050" transform="translate(366,126)"/>
<path d="M0 0 C0.97 3.01 1.28 5.05 0 8 C-2.06 9.25 -2.06 9.25 -4 10 C-2.89 6.51 -1.74 3.23 0 0 Z " fill="#B02821" transform="translate(286,104)"/>
<path d="M0 0 C2.38 -0.19 2.38 -0.19 5 0 C5.66 0.99 6.32 1.98 7 3 C6.67 3.99 6.34 4.98 6 6 C3.98 4.36 1.98 2.69 0 1 C0 0.67 0 0.34 0 0 Z " fill="#363636" transform="translate(284,979)"/>
<path d="M0 0 C2.12 0.38 2.12 0.38 4 1 C2.38 2.71 0.71 4.37 -1 6 C-1.66 6 -2.32 6 -3 6 C-2.43 3.13 -2.14 2.14 0 0 Z " fill="#353535" transform="translate(322,971)"/>
<path d="M0 0 C1.91 0.71 1.91 0.71 4.06 1.81 C4.78 2.17 5.49 2.53 6.22 2.89 C8 4 8 4 9 6 C7.54 5.55 6.08 5.09 4.62 4.62 C3.81 4.37 3 4.11 2.16 3.85 C0 3 0 3 -2 1 C-1.34 0.67 -0.68 0.34 0 0 Z " fill="#682622" transform="translate(188,758)"/>
<path d="M0 0 C-3.13 2.64 -6.09 3.84 -10 5 C-10 4.34 -10 3.68 -10 3 C-6.58 0.46 -4.24 -0.36 0 0 Z " fill="#515151" transform="translate(581,679)"/>
<path d="M0 0 C0.99 0.66 1.98 1.32 3 2 C0.69 3.65 -1.62 5.3 -4 7 C-4.66 6.67 -5.32 6.34 -6 6 C-4.02 4.02 -2.04 2.04 0 0 Z " fill="#8B2A26" transform="translate(407,829)"/>
<path d="M0 0 C7.51 -0.37 7.51 -0.37 10 1.5 C10.5 2.24 10.5 2.24 11 3 C9.74 2.88 8.48 2.75 7.19 2.62 C6.13 2.52 6.13 2.52 5.04 2.41 C3 2 3 2 0 0 Z " fill="#A5271F" transform="translate(177,460)"/>
<path d="M0 0 C7.51 -0.37 7.51 -0.37 10 1.5 C10.5 2.24 10.5 2.24 11 3 C9.74 2.88 8.48 2.75 7.19 2.62 C6.13 2.52 6.13 2.52 5.04 2.41 C3 2 3 2 0 0 Z " fill="#AD2820" transform="translate(56,425)"/>
<path d="M0 0 C3.34 0.6 5.46 1.74 8 4 C8 4.66 8 5.32 8 6 C5.03 4.88 2.67 3.78 0 2 C0 1.34 0 0.68 0 0 Z " fill="#474747" transform="translate(432,224)"/>
<path d="M0 0 C1.32 0.33 2.64 0.66 4 1 C1.69 2.65 -0.62 4.3 -3 6 C-2.67 4.68 -2.34 3.36 -2 2 C-1.34 2 -0.68 2 0 2 C0 1.34 0 0.68 0 0 Z " fill="#424242" transform="translate(341,956)"/>
<path d="M0 0 C4.46 0.99 4.46 0.99 9 2 C9 2.99 9 3.98 9 5 C5.92 3.8 2.94 2.52 0 1 C0 0.67 0 0.34 0 0 Z " fill="#AB2621" transform="translate(157,354)"/>
<path d="M0 0 C1.98 0 3.96 0 6 0 C3.6 2.9 1.69 3.5 -2 4 C-2 3.34 -2 2.68 -2 2 C-1.34 2 -0.68 2 0 2 C0 1.34 0 0.68 0 0 Z " fill="#2D2D2D" transform="translate(21,307)"/>
<path d="M0 0 C-3.06 2.62 -3.73 3 -8 3 C-8 2.34 -8 1.68 -8 1 C-3.38 -1.12 -3.38 -1.12 0 0 Z " fill="#363636" transform="translate(158,232)"/>
<path d="M0 0 C0.62 1.81 0.62 1.81 1 4 C0.01 5.49 0.01 5.49 -1 7 C-1.99 6.67 -2.98 6.34 -4 6 C-2.68 4.02 -1.36 2.04 0 0 Z " fill="#323232" transform="translate(213,167)"/>
<path d="M0 0 C4 4.75 4 4.75 4 7 C2.35 6.67 0.7 6.34 -1 6 C-0.67 4.02 -0.34 2.04 0 0 Z " fill="#2E2E2E" transform="translate(357,109)"/>
</svg>
