<?xml version="1.0" encoding="UTF-8"?>
<!-- Generator: https://ezgif.com/webp-to-svg -->
<svg version="1.1" xmlns="http://www.w3.org/2000/svg" width="100" height="100">
<path d="M0 0 C0.66 0 1.32 0 2 0 C2.26 0.57 2.51 1.15 2.78 1.74 C3.97 4.38 5.2 7 6.44 9.62 C6.84 10.53 7.24 11.43 7.65 12.36 C12.9 23.34 21.27 26.15 32 32 C32 43.88 32 55.76 32 68 C30.02 68.99 30.02 68.99 28 70 C28 71.18 28 72.35 28 73.56 C27.88 75.71 27.88 75.71 27 78 C24.02 80.65 21.02 82.74 17.69 84.92 C14.67 87.25 14.84 87.6 14 91 C12 92.73 10.09 94.24 7.94 95.75 C7.37 96.16 6.8 96.57 6.22 97 C4.82 98.01 3.41 99 2 100 C-1.42 98.46 -4.19 96.45 -7.12 94.12 C-7.99 93.45 -8.86 92.77 -9.76 92.07 C-12 90 -12 90 -12.96 87.98 C-14.49 85.07 -16.81 83.99 -19.56 82.25 C-24.77 78.64 -24.77 78.64 -25.8 75.77 C-25.92 73.85 -25.97 71.93 -26 70 C-27.32 69.34 -28.64 68.68 -30 68 C-30 56.12 -30 44.24 -30 32 C-25.61 29.52 -25.61 29.52 -21.12 27 C-20.2 26.48 -19.28 25.96 -18.33 25.42 C-17.61 25.01 -16.88 24.61 -16.13 24.19 C-15.39 23.77 -14.65 23.35 -13.88 22.92 C-12 22 -12 22 -10 22 C-9.76 21.18 -9.51 20.37 -9.26 19.52 C-7.77 15.37 -5.88 11.55 -3.88 7.62 C-3.5 6.89 -3.13 6.15 -2.75 5.39 C-1.83 3.59 -0.92 1.8 0 0 Z " fill="#1B1A1A" transform="translate(49,0)"/>
<path d="M0 0 C0.66 0.33 1.32 0.66 2 1 C2 1.99 2 2.98 2 4 C1.01 4.33 0.02 4.66 -1 5 C-1 5.66 -1 6.32 -1 7 C-0.34 7.25 0.32 7.49 1 7.75 C4.76 9.32 8.37 11.15 12 13 C8.27 14.24 7.21 13.55 3.62 12.12 C0.08 10.73 -3.24 9.64 -7 9 C-7 11.64 -7 14.28 -7 17 C-5.93 17.27 -4.85 17.53 -3.75 17.8 C-2.31 18.16 -0.87 18.52 0.56 18.88 C1.27 19.05 1.97 19.22 2.7 19.4 C7.16 20.51 11.58 21.71 16 23 C16 27.29 16 31.58 16 36 C17.32 36 18.64 36 20 36 C20 32.04 20 28.08 20 24 C25.2 21.79 28.58 22.07 34 23 C31 25 31 25 28 25 C28 25.66 28 26.32 28 27 C29.98 27.33 31.96 27.66 34 28 C34 28.33 34 28.66 34 29 C31.03 28.67 28.06 28.34 25 28 C25 30.97 25 33.94 25 37 C22.26 38.37 20.03 38.13 17 38 C16.34 37.67 15.68 37.34 15 37 C15 34.03 15 31.06 15 28 C12.69 28.33 10.38 28.66 8 29 C7.67 29.99 7.34 30.98 7 32 C4.36 30.02 1.72 28.04 -1 26 C0.11 29.84 0.93 32.41 4 35 C5.91 36.03 5.91 36.03 8.01 36.82 C9.15 37.28 9.15 37.28 10.31 37.75 C11.09 38.06 11.88 38.37 12.69 38.69 C13.48 39.01 14.28 39.33 15.1 39.66 C17.07 40.45 19.03 41.22 21 42 C21.85 50.82 22.05 59.19 21 68 C21.95 67.17 22.9 66.35 23.88 65.5 C26.75 63 26.75 63 29 63 C29 58.38 29 53.76 29 49 C35.84 45 35.84 45 38 44 C38.99 44.5 38.99 44.5 40 45 C39.2 45.54 38.39 46.07 37.56 46.62 C34.53 49.43 34.27 50.97 34 55 C34.93 54.34 35.86 53.68 36.81 53 C40 51 40 51 43 51 C43 48.69 43 46.38 43 44 C43.33 44 43.66 44 44 44 C44 45.65 44 47.3 44 49 C44.66 49 45.32 49 46 49 C45.84 50.75 45.84 50.75 45 53 C42.27 55.21 39.4 57.07 36.47 59 C33.86 60.7 33.86 60.7 33.54 62.95 C32.65 66.35 29.68 67.83 26.94 69.75 C26.37 70.16 25.8 70.57 25.22 71 C23.82 72.01 22.41 73 21 74 C17.58 72.46 14.81 70.45 11.88 68.12 C11.01 67.45 10.14 66.77 9.24 66.07 C7 64 7 64 6.04 61.98 C4.51 59.07 2.19 57.99 -0.56 56.25 C-5.77 52.64 -5.77 52.64 -6.8 49.77 C-6.92 47.85 -6.97 45.93 -7 44 C-8.32 43.34 -9.64 42.68 -11 42 C-11 30.12 -11 18.24 -11 6 C-7.37 4.02 -3.74 2.04 0 0 Z " fill="#181919" transform="translate(30,26)"/>
<path d="M0 0 C0.33 0 0.66 0 1 0 C1 5.94 1 11.88 1 18 C7.44 17.51 7.44 17.51 14 17 C12.68 17.99 11.36 18.98 10 20 C10.66 20 11.32 20 12 20 C14 20 16 20 18 20 C15.14 22.33 12.44 23.69 9 25 C9.76 24.77 10.52 24.54 11.3 24.31 C12.29 24.02 13.29 23.73 14.31 23.44 C15.3 23.15 16.28 22.86 17.3 22.56 C20 22 20 22 23 23 C19.7 24.65 16.4 26.3 13 28 C14.55 27.5 16.09 27.01 17.69 26.5 C21.27 25.35 24.24 24.84 28 25 C28 27.64 28 30.28 28 33 C24.25 34.18 20.5 35.34 16.75 36.5 C15.69 36.83 14.62 37.17 13.53 37.51 C12.5 37.83 11.48 38.14 10.42 38.47 C9.48 38.76 8.54 39.06 7.57 39.36 C5 40 5 40 1 40 C1 43.96 1 47.92 1 52 C-0.32 52 -1.64 52 -3 52 C-3 47.71 -3 43.42 -3 39 C-4.38 38.75 -5.76 38.51 -7.19 38.25 C-13.61 36.98 -19.78 35.01 -26 33 C-26 30.36 -26 27.72 -26 25 C-20.76 25.55 -16.03 26.43 -11 28 C-13.97 26.35 -16.94 24.7 -20 23 C-20 22.34 -20 21.68 -20 21 C-18.19 20.04 -16.35 19.14 -14.5 18.25 C-6.75 13.94 -3.69 7.83 0 0 Z " fill="#D4261D" transform="translate(49,10)"/>
<path d="M0 0 C0.33 0 0.66 0 1 0 C1 4.95 1 9.9 1 15 C-1.62 16.51 -4.25 18 -6.88 19.5 C-7.62 19.93 -8.37 20.36 -9.14 20.8 C-10.21 21.41 -10.21 21.41 -11.3 22.03 C-11.96 22.41 -12.62 22.79 -13.3 23.17 C-15 24 -15 24 -17 24 C-16.93 24.95 -16.86 25.91 -16.79 26.89 C-16.35 36.96 -16.35 36.96 -18.27 40.04 C-20.4 41.81 -22.17 43 -25 43 C-25 34.75 -25 26.5 -25 18 C-14 13 -14 13 -8.5 11.75 C-5.45 10.93 -4.36 10.61 -2.75 7.85 C-2 5.58 -1.48 3.34 -1 1 C-0.67 0.67 -0.34 0.34 0 0 Z " fill="#D1261D" transform="translate(76,51)"/>
<path d="M0 0 C2.51 2.03 3.07 3.23 4.05 6.41 C5.47 9.94 7.22 10.93 10.67 12.43 C12.5 13.13 14.34 13.79 16.19 14.44 C17.13 14.79 18.07 15.14 19.04 15.5 C21.35 16.36 23.67 17.19 26 18 C26 19.65 26 21.3 26 23 C25.01 23.33 24.02 23.66 23 24 C23.49 24.5 23.98 25 24.49 25.52 C26.54 28.89 26.33 31.93 26.19 35.75 C26.17 36.8 26.17 36.8 26.15 37.86 C26.11 39.58 26.06 41.29 26 43 C24.65 42.37 23.32 41.7 22 41 C21.26 40.61 20.53 40.22 19.77 39.82 C18 38 18 38 17.61 34.64 C17.68 32.75 17.68 32.75 17.75 30.81 C17.79 29.54 17.82 28.27 17.86 26.96 C17.91 25.98 17.95 25.01 18 24 C16.96 23.62 16.96 23.62 15.89 23.22 C12.67 21.86 9.76 20.21 6.75 18.44 C5.69 17.82 4.64 17.2 3.55 16.56 C1 15 1 15 0 14 C-0.07 11.65 -0.08 9.29 -0.06 6.94 C-0.05 5.65 -0.04 4.36 -0.04 3.03 C-0.02 2.03 -0.01 1.03 0 0 Z " fill="#D2261D" transform="translate(23,51)"/>
<path d="M0 0 C0.5 0.99 0.5 0.99 1 2 C-2.75 7.75 -2.75 7.75 -5 10 C-5.33 10.66 -5.66 11.32 -6 12 C-17.71 18.17 -17.71 18.17 -23.64 17.86 C-25.9 17.09 -27.89 16.11 -30 15 C-31.77 14.42 -33.54 13.83 -35.31 13.25 C-38.79 11.85 -40.72 10.66 -42.69 7.44 C-44 4 -44 4 -43 1 C-40.36 2.98 -37.72 4.96 -35 7 C-34.67 6.34 -34.34 5.68 -34 5 C-31.68 4.59 -29.34 4.26 -27 4 C-27 6.97 -27 9.94 -27 13 C-23.7 13 -20.4 13 -17 13 C-17 10.03 -17 7.06 -17 4 C-16.28 4.13 -15.55 4.26 -14.8 4.39 C-9.23 5.35 -9.23 5.35 -3.93 3.95 C-2.11 2.45 -2.11 2.45 0 0 Z " fill="#C9251D" transform="translate(72,50)"/>
<path d="M0 0 C1.68 0.63 3.35 1.3 5 2 C5.91 2.37 6.81 2.74 7.75 3.12 C10.36 5.3 10.41 5.94 10.81 9.19 C10.87 10.45 10.94 11.7 11 13 C6.36 11.5 3.38 9.46 0 6 C-0.38 2.69 -0.38 2.69 0 0 Z " fill="#BC241D" transform="translate(28,70)"/>
<path d="M0 0 C0.5 2.62 0.5 2.62 0 6 C-2.43 8.37 -5.13 10.2 -8 12 C-9.29 8.14 -8.68 6.66 -7 3 C-3 0 -3 0 0 0 Z " fill="#CB251D" transform="translate(72,70)"/>
<path d="M0 0 C0.33 0.99 0.66 1.98 1 3 C-0.75 5.06 -0.75 5.06 -3 7 C-5.98 6.81 -8.39 5.4 -11 4 C-11 3.34 -11 2.68 -11 2 C-7.12 0.81 -4.08 0 0 0 Z " fill="#231A1A" transform="translate(69,49)"/>
<path d="M0 0 C0.66 0.33 1.32 0.66 2 1 C0.79 1.87 0.79 1.87 -0.44 2.75 C-3.12 5.11 -3.49 5.65 -4 9 C-4.65 10.67 -5.31 12.34 -6 14 C-6.66 13.67 -7.32 13.34 -8 13 C-5.26 2.83 -5.26 2.83 -2 0.69 C-1.34 0.46 -0.68 0.23 0 0 Z " fill="#611D1B" transform="translate(68,70)"/>
<path d="M0 0 C-2.55 2.35 -3.71 2.98 -7.25 3.19 C-8.16 3.13 -9.06 3.06 -10 3 C-10 2.34 -10 1.68 -10 1 C-3.38 -1.12 -3.38 -1.12 0 0 Z " fill="#AC231C" transform="translate(68,50)"/>
</svg>
