<?xml version="1.0" encoding="UTF-8"?>
<!-- Generator: https://ezgif.com/png-to-svg -->
<svg version="1.1" xmlns="http://www.w3.org/2000/svg" width="512" height="512" viewBox="-28.486 -33.171 456.971 456.971" preserveAspectRatio="xMidYMid meet">
<path d="M0 0 C1.91 1.57 3.76 3.2 5.56 4.89 C6.07 5.37 6.58 5.85 7.11 6.34 C13.49 12.34 19.7 18.52 25.9 24.69 C27.25 26.03 28.6 27.37 29.95 28.71 C34.33 33.06 38.7 37.41 43.08 41.77 C44.2 42.89 44.2 42.89 45.35 44.03 C52.42 51.07 59.49 58.11 66.55 65.16 C75.54 74.12 84.53 83.08 93.55 92.02 C99.91 98.34 106.26 104.67 112.61 111 C116.39 114.78 120.17 118.54 123.96 122.3 C127.53 125.83 131.09 129.38 134.63 132.93 C135.93 134.23 137.22 135.52 138.53 136.8 C153.02 151.06 163.13 167.4 163.31 188.38 C163.34 215.48 147.35 231.79 129.42 249.77 C128.07 251.13 126.73 252.48 125.38 253.84 C120.98 258.27 116.58 262.68 112.17 267.1 C110.65 268.63 109.12 270.16 107.6 271.69 C101.26 278.05 94.91 284.42 88.56 290.78 C79.51 299.85 70.46 308.93 61.42 318.03 C55.04 324.45 48.65 330.86 42.25 337.26 C38.44 341.07 34.64 344.89 30.84 348.72 C27.27 352.32 23.69 355.91 20.1 359.49 C18.79 360.8 17.48 362.11 16.18 363.43 C2.24 377.54 -12.69 387.89 -33.32 388.24 C-54.39 388.32 -70.64 380.66 -85.6 365.95 C-87.55 364.02 -89.49 362.07 -91.43 360.12 C-92.85 358.71 -94.27 357.3 -95.68 355.9 C-99.51 352.1 -103.32 348.29 -107.13 344.47 C-110.32 341.28 -113.52 338.09 -116.72 334.9 C-124.27 327.37 -131.81 319.84 -139.34 312.29 C-147.09 304.53 -154.85 296.79 -162.63 289.06 C-169.32 282.4 -176.01 275.72 -182.68 269.04 C-186.66 265.06 -190.64 261.08 -194.64 257.12 C-198.39 253.39 -202.14 249.64 -205.87 245.88 C-207.23 244.52 -208.6 243.15 -209.97 241.79 C-224.89 227.04 -235.11 210.75 -235.31 189.06 C-235.34 162.27 -219.1 145.96 -201.42 128.23 C-200.07 126.87 -198.73 125.52 -197.38 124.16 C-192.98 119.73 -188.58 115.32 -184.17 110.9 C-182.65 109.37 -181.12 107.84 -179.6 106.31 C-173.26 99.95 -166.91 93.58 -160.56 87.22 C-151.51 78.15 -142.46 69.07 -133.42 59.97 C-127.04 53.55 -120.65 47.14 -114.25 40.74 C-110.44 36.93 -106.64 33.11 -102.84 29.28 C-99.27 25.68 -95.69 22.09 -92.1 18.51 C-90.79 17.2 -89.48 15.89 -88.18 14.57 C-64.3 -9.62 -30.6 -19.69 0 0 Z M-74.71 39.19 C-76.06 40.54 -77.41 41.88 -78.76 43.22 C-82.41 46.85 -86.05 50.5 -89.68 54.15 C-93.5 57.97 -97.32 61.79 -101.15 65.61 C-107.57 72.02 -113.98 78.44 -120.38 84.86 C-127.78 92.28 -135.18 99.68 -142.6 107.07 C-148.98 113.43 -155.35 119.8 -161.72 126.18 C-165.51 129.98 -169.31 133.78 -173.11 137.57 C-176.69 141.14 -180.26 144.71 -183.82 148.3 C-185.12 149.6 -186.43 150.91 -187.74 152.21 C-198.32 162.72 -207.79 173.3 -208.38 189 C-207.75 205.75 -197 216.59 -185.81 227.71 C-184.46 229.06 -183.12 230.41 -181.78 231.76 C-178.15 235.41 -174.5 239.05 -170.85 242.68 C-167.03 246.5 -163.21 250.32 -159.39 254.15 C-152.98 260.57 -146.56 266.98 -140.14 273.38 C-132.72 280.78 -125.32 288.18 -117.93 295.6 C-111.57 301.98 -105.2 308.35 -98.82 314.72 C-95.02 318.51 -91.22 322.31 -87.43 326.11 C-83.86 329.69 -80.29 333.26 -76.7 336.82 C-75.4 338.12 -74.09 339.43 -72.79 340.74 C-62.28 351.32 -51.7 360.79 -36 361.38 C-19.24 360.75 -8.41 350 2.71 338.79 C4.06 337.45 5.41 336.1 6.76 334.76 C10.41 331.12 14.05 327.47 17.68 323.82 C21.5 319.99 25.32 316.17 29.15 312.35 C35.57 305.94 41.98 299.51 48.38 293.08 C55.78 285.66 63.18 278.25 70.6 270.85 C77.74 263.72 84.88 256.57 92.02 249.42 C95.05 246.39 98.08 243.35 101.11 240.33 C104.69 236.75 108.26 233.18 111.82 229.59 C113.13 228.28 114.43 226.97 115.74 225.67 C126.58 214.87 135.63 205.21 136.44 189.12 C135.75 171.1 123.79 160.49 111.88 148.59 C110.55 147.26 109.23 145.93 107.91 144.59 C104.33 141 100.74 137.41 97.16 133.82 C94.91 131.58 92.67 129.33 90.43 127.08 C82.6 119.23 74.76 111.39 66.92 103.55 C59.62 96.25 52.34 88.95 45.06 81.64 C38.8 75.35 32.52 69.06 26.24 62.79 C22.5 59.04 18.76 55.3 15.03 51.55 C11.52 48.02 8 44.5 4.47 40.98 C3.19 39.7 1.9 38.41 0.62 37.12 C-9.83 26.58 -20.38 17.21 -36 16.62 C-52.75 17.25 -63.59 28 -74.71 39.19 Z " fill="#FFC019" transform="translate(236,11)"/>
<path d="M0 0 C3.76 1.57 6.18 3.91 9.06 6.77 C9.55 7.25 10.04 7.73 10.54 8.23 C12.16 9.83 13.76 11.43 15.37 13.04 C16.5 14.15 17.62 15.27 18.75 16.39 C21.11 18.74 23.46 21.09 25.82 23.45 C28.82 26.45 31.83 29.43 34.85 32.42 C37.18 34.72 39.5 37.04 41.82 39.36 C42.93 40.47 44.04 41.57 45.15 42.66 C54.19 51.59 61.53 60.12 62.1 73.37 C61.52 87.27 52.23 96.64 42.89 105.77 C41.71 106.94 40.54 108.11 39.37 109.28 C36.92 111.71 34.47 114.13 32.01 116.55 C28.86 119.65 25.72 122.77 22.58 125.89 C20.17 128.3 17.75 130.7 15.32 133.1 C14.16 134.25 13 135.4 11.84 136.55 C10.23 138.15 8.62 139.74 7 141.33 C6.08 142.23 5.16 143.14 4.21 144.07 C2 146 2 146 0 146 C-1.35 144.63 -1.35 144.63 -2.95 142.67 C-7.15 137.74 -11.7 133.23 -16.32 128.69 C-17.86 127.18 -19.39 125.67 -20.93 124.15 C-25.28 119.84 -29.63 115.53 -34 111.24 C-36.69 108.61 -39.37 105.96 -42.04 103.3 C-43.05 102.3 -44.07 101.3 -45.09 100.31 C-53.37 92.22 -59.06 85.26 -59.25 73.31 C-59 57.32 -48.36 49.19 -37.56 38.48 C-36.05 36.99 -34.55 35.49 -33.05 33.99 C-29.87 30.83 -26.68 27.66 -23.5 24.5 C-19.78 20.8 -16.06 17.1 -12.34 13.4 C-10.86 11.93 -9.38 10.45 -7.9 8.98 C-7 8.09 -6.11 7.21 -5.19 6.29 C-4.41 5.51 -3.62 4.73 -2.81 3.92 C-0.94 2.12 -0.94 2.12 0 0 Z " fill="#FFC019" transform="translate(118,127)"/>
<path d="M0 0 C5.15 4.18 8.91 9.34 11.75 15.31 C12.03 14.74 12.31 14.18 12.6 13.59 C17.39 4.36 22.81 -1.26 32.75 -4.69 C41.54 -7.2 49.94 -5.19 57.88 -1.06 C64.14 4.11 70.34 10.02 71.75 18.31 C72.62 27.64 72.28 35.53 66.36 43.08 C61.57 48.54 56.49 53.69 51.34 58.8 C49.79 60.34 48.24 61.88 46.7 63.42 C43.43 66.68 40.15 69.93 36.88 73.19 C33.06 76.98 29.24 80.78 25.42 84.58 C23.9 86.1 22.38 87.61 20.85 89.13 C19.93 90.04 19.01 90.96 18.07 91.9 C17.26 92.7 16.44 93.51 15.61 94.34 C13.7 96.18 13.7 96.18 12.75 98.31 C9.01 96.75 6.59 94.43 3.71 91.59 C3.22 91.12 2.73 90.64 2.23 90.14 C0.62 88.56 -0.98 86.97 -2.59 85.38 C-3.14 84.84 -3.69 84.29 -4.26 83.73 C-7.18 80.84 -10.1 77.94 -13.01 75.03 C-16 72.05 -19.01 69.1 -22.02 66.14 C-24.35 63.85 -26.66 61.54 -28.98 59.23 C-30.08 58.14 -31.18 57.05 -32.29 55.97 C-40.91 47.54 -48.84 38.33 -49.35 25.68 C-48.98 16.69 -45.66 9.12 -39.55 2.45 C-28.52 -7.58 -12.2 -8.56 0 0 Z " fill="#FFC019" transform="translate(269.25,174.6875)"/>
<path d="M0 0 C2.11 0.99 3.36 2.03 4.81 3.85 C4.81 4.51 4.81 5.17 4.81 5.85 C5.47 5.85 6.13 5.85 6.81 5.85 C6.81 6.51 6.81 7.17 6.81 7.85 C7.47 7.85 8.13 7.85 8.81 7.85 C8.81 8.51 8.81 9.17 8.81 9.85 C9.47 9.85 10.13 9.85 10.81 9.85 C10.81 10.51 10.81 11.17 10.81 11.85 C11.37 12.09 11.94 12.32 12.52 12.57 C15.33 14.14 17.29 16.06 19.56 18.35 C20.36 19.14 21.16 19.94 21.98 20.76 C23.81 22.85 23.81 22.85 23.81 24.85 C24.47 24.85 25.13 24.85 25.81 24.85 C25.81 25.51 25.81 26.17 25.81 26.85 C26.47 26.85 27.13 26.85 27.81 26.85 C27.81 27.51 27.81 28.17 27.81 28.85 C28.47 28.85 29.13 28.85 29.81 28.85 C29.81 29.51 29.81 30.17 29.81 30.85 C30.47 30.85 31.13 30.85 31.81 30.85 C31.81 31.51 31.81 32.17 31.81 32.85 C32.69 33.24 32.69 33.24 33.58 33.63 C35.99 34.95 37.63 36.4 39.56 38.35 C40.18 38.96 40.79 39.57 41.42 40.19 C42.81 41.85 42.81 41.85 42.81 43.85 C43.47 43.85 44.13 43.85 44.81 43.85 C44.81 44.51 44.81 45.17 44.81 45.85 C45.47 45.85 46.13 45.85 46.81 45.85 C46.81 46.51 46.81 47.17 46.81 47.85 C47.47 47.85 48.13 47.85 48.81 47.85 C48.81 48.51 48.81 49.17 48.81 49.85 C49.47 49.85 50.13 49.85 50.81 49.85 C52.25 51.61 52.25 51.61 53.81 53.98 C54.59 55.12 54.59 55.12 55.38 56.3 C59.58 63.78 59.75 71.46 58.81 79.85 C56.31 87.85 51.98 94.4 44.81 98.85 C35.86 103.35 27.74 104.33 18.19 101.29 C9.89 97.95 3.52 92.06 -0.19 83.85 C-0.19 82.86 -0.19 81.87 -0.19 80.85 C-0.85 80.85 -1.51 80.85 -2.19 80.85 C-2.27 81.55 -2.35 82.25 -2.44 82.98 C-4.55 91.06 -11.43 96.64 -18.37 100.73 C-27.13 104.23 -35.91 103.67 -44.58 100.17 C-52.61 96.11 -57.98 89.55 -60.8 81 C-62.41 72.14 -62.01 63.53 -57.19 55.85 C-51.74 48.93 -45.33 42.78 -39.14 36.53 C-38.63 36.01 -38.11 35.49 -37.57 34.95 C-34.84 32.19 -32.11 29.44 -29.37 26.68 C-27.11 24.41 -24.86 22.13 -22.61 19.84 C-19.89 17.07 -17.15 14.3 -14.4 11.55 C-13.36 10.5 -12.32 9.45 -11.29 8.39 C-9.85 6.92 -8.39 5.47 -6.94 4.02 C-6.11 3.19 -5.29 2.35 -4.44 1.5 C-2.19 -0.15 -2.19 -0.15 0 0 Z " fill="#FFC019" transform="translate(201.1874542236328,47.14979553222656)"/>
<path d="M0 0 C7.26 6.4 11.18 14.41 12 24 C13.11 24.06 14.23 24.12 15.38 24.19 C23.68 25.28 30.38 29.3 35.53 35.86 C41.27 44.22 42.07 51.88 41 62 C38.92 70.47 32.99 77.29 25.75 81.94 C18.39 86.28 8.47 86.28 0.23 84.35 C-7.96 80.99 -14.31 74.99 -18 67 C-18 66.01 -18 65.02 -18 64 C-18.66 64 -19.32 64 -20 64 C-20.04 64.66 -20.08 65.32 -20.12 66 C-22.19 73.1 -27.69 78.23 -33.75 82.12 C-41.54 86.37 -51.58 86.59 -60.01 84.12 C-68.7 80.1 -74.44 73.81 -78 65 C-80.63 57.1 -79.85 47.74 -76.32 40.25 C-71.35 31.77 -64.94 27.14 -55.58 24.25 C-53.73 23.78 -51.87 23.38 -50 23 C-49.79 21.72 -49.59 20.44 -49.38 19.12 C-47.32 10.1 -42.6 3.83 -35.25 -1.62 C-24.31 -8.32 -10.38 -7.25 0 0 Z " fill="#FFC019" transform="translate(219,226)"/>
<path d="M0 0 C3.26 1.43 5.4 3.17 7.89 5.7 C8.95 6.77 8.95 6.77 10.04 7.86 C10.77 8.61 11.5 9.36 12.25 10.12 C13 10.88 13.74 11.63 14.51 12.41 C16.34 14.27 18.17 16.13 20 18 C18.57 21.26 16.83 23.4 14.3 25.89 C13.59 26.6 12.87 27.31 12.14 28.04 C11.39 28.77 10.64 29.5 9.88 30.25 C8.74 31.37 8.74 31.37 7.59 32.51 C5.73 34.34 3.87 36.17 2 38 C-1.26 36.57 -3.4 34.83 -5.89 32.3 C-6.6 31.59 -7.31 30.87 -8.04 30.14 C-8.77 29.39 -9.5 28.64 -10.25 27.88 C-11 27.12 -11.74 26.37 -12.51 25.59 C-14.34 23.73 -16.17 21.87 -18 20 C-16.57 16.74 -14.83 14.6 -12.3 12.11 C-11.23 11.05 -11.23 11.05 -10.14 9.96 C-9.39 9.23 -8.64 8.5 -7.88 7.75 C-7.12 7 -6.37 6.26 -5.59 5.49 C-3.73 3.66 -1.87 1.83 0 0 Z " fill="#FFC01A" transform="translate(199,154)"/>
<path d="M0 0 C3.23 1.42 5.4 3.14 7.89 5.62 C8.6 6.33 9.31 7.04 10.04 7.77 C10.77 8.5 11.5 9.24 12.25 10 C13 10.74 13.74 11.47 14.51 12.23 C15.56 13.29 15.56 13.29 16.64 14.38 C17.29 15.02 17.93 15.67 18.59 16.34 C20 18 20 18 20 20 C18.53 21.45 18.53 21.45 16.5 23.12 C8.81 29.27 8.81 29.27 3 37 C-0.77 36.43 -2.48 34.88 -5.11 32.18 C-5.86 31.42 -6.62 30.66 -7.39 29.87 C-8.17 29.07 -8.95 28.26 -9.75 27.44 C-10.54 26.63 -11.34 25.82 -12.15 24.99 C-14.11 23 -16.06 21 -18 19 C-14.08 14.3 -9.99 9.86 -5.62 5.56 C-5.08 5.02 -4.53 4.48 -3.97 3.92 C-2.65 2.61 -1.33 1.31 0 0 Z " fill="#FFC019" transform="translate(199,316)"/>
</svg>
