<?xml version="1.0" encoding="UTF-8"?>
<!-- Generator: https://ezgif.com/png-to-svg -->
<svg version="1.1" xmlns="http://www.w3.org/2000/svg" width="512" height="512" viewBox="-77.753 -101.613 1443.613 1443.613" preserveAspectRatio="xMidYMid meet">
<path d="M0 0 C77.4 25.91 160 46.09 333.21 22.1 C353.59 16.48 373.9 11.15 394.81 7.81 C396.63 7.52 396.63 7.52 398.49 7.22 C418.69 4.19 438.96 3.21 459.37 3.25 C460.46 3.25 461.55 3.25 462.68 3.25 C478.98 3.29 494.54 4 510.5 7.63 C511.49 7.84 512.47 8.04 513.49 8.26 C536.54 13.14 558.82 20.7 581.11 28.21 C606.87 36.88 632.55 45.41 659.5 49.63 C660.53 49.8 661.56 49.97 662.62 50.14 C667.36 50.73 672.06 50.91 676.84 51.06 C678.88 51.13 680.92 51.2 682.96 51.27 C684.02 51.31 685.08 51.35 686.17 51.38 C722.37 52.69 722.37 52.69 738.5 55.63 C739.55 55.82 740.61 56.01 741.7 56.2 C760.07 59.61 777.8 64.68 795.5 70.63 C796.39 70.93 797.29 71.23 798.21 71.54 C847.08 88.18 918.76 118.81 945 166.37 C952.88 183.46 954.84 204.69 949.5 222.63 C948.89 224.06 948.89 224.06 948.28 225.52 C947.25 229.6 948.08 232.06 949.31 236.06 C961.02 275.02 945.25 324.47 926.79 359.12 C921.68 368.38 916.02 377.67 908.87 385.51 C905.94 389.36 904.82 392.98 903.43 397.56 C897.66 415.17 889.02 431.89 876.5 445.63 C876 446.18 875.5 446.73 874.99 447.3 C860.13 463.68 841.47 475.07 819.5 478.63 C819.93 479.06 820.37 479.49 820.82 479.93 C841.48 501.55 852.86 532.12 859.73 560.68 C861.85 569.51 864.28 576.89 869.03 584.64 C887.11 614.48 890.4 656.18 882.75 689.79 C872.44 730.7 847.56 765.05 811.33 786.93 C787.89 800.51 762.37 807.08 735.31 806.94 C734.58 806.94 733.86 806.93 733.11 806.93 C722 806.88 711.29 806.43 700.5 803.63 C699.7 803.42 698.9 803.22 698.08 803.01 C676.23 797.25 656.87 788.17 639.5 773.63 C606.31 746.52 565.93 734.22 523.5 731.63 C522.45 731.55 521.41 731.48 520.34 731.41 C473.69 729.8 424.89 752.83 391.21 784 C357.66 815.79 341.67 860.17 340.21 905.79 C339.82 926.8 341.78 947.37 347.5 967.63 C347.68 968.31 347.87 968.99 348.07 969.69 C355.38 995.46 368.81 1019.57 386.5 1039.63 C387.35 1040.6 388.2 1041.57 389.07 1042.57 C417.81 1074.93 458.1 1096.52 501.66 1099.42 C508.1 1099.76 514.54 1099.87 521 1099.88 C521.69 1099.88 522.38 1099.88 523.09 1099.88 C539.41 1099.86 555.24 1098.48 570.82 1093.4 C573.5 1092.63 573.5 1092.63 577.5 1092.63 C571.98 1126.3 553.06 1158.15 526.5 1179.63 C525.56 1180.39 524.63 1181.15 523.67 1181.93 C515.38 1188.55 506.63 1194.25 497.5 1199.63 C496.9 1199.98 496.31 1200.33 495.69 1200.7 C465.21 1218.56 429.17 1226.66 394.43 1230.88 C393.41 1231 393.41 1231 392.36 1231.13 C375 1233.2 357.83 1233.83 340.37 1233.81 C339.31 1233.81 338.25 1233.81 337.15 1233.81 C290.06 1233.74 244.1 1227.21 198.5 1215.63 C198.19 1216.41 197.89 1217.19 197.58 1218 C193.69 1227.42 184.73 1232.24 175.9 1236.26 C170.66 1238.15 165.52 1238.16 160 1238.13 C158.87 1238.12 157.75 1238.12 156.59 1238.11 C122.59 1237.42 87.62 1227.92 55.5 1217.63 C54.17 1217.2 54.17 1217.2 52.81 1216.77 C-6.49 1197.56 -64.85 1162.54 -105.5 1114.63 C-106.31 1113.7 -107.12 1112.78 -107.96 1111.83 C-121.9 1095.84 -134.01 1078.43 -145.5 1060.63 C-146 1059.86 -146.5 1059.1 -147.01 1058.31 C-147.7 1057.24 -147.7 1057.24 -148.4 1056.14 C-148.81 1055.51 -149.22 1054.88 -149.63 1054.23 C-150.5 1052.63 -150.5 1052.63 -150.5 1050.63 C-151.16 1050.96 -151.82 1051.29 -152.5 1051.63 C-168.85 1052.62 -180.73 1050.91 -193.4 1039.99 C-195.27 1038.31 -197.11 1036.6 -198.94 1034.88 C-199.6 1034.26 -200.25 1033.64 -200.93 1033.01 C-206.08 1028.11 -210.93 1023.07 -215.5 1017.63 C-216.2 1016.8 -216.2 1016.8 -216.91 1015.97 C-283.22 937.63 -310.55 830.86 -304.04 716.62 C-304 715.95 -303.96 715.28 -303.91 714.59 C-303.7 711.25 -303.44 707.93 -303.09 704.6 C-302.97 703.35 -302.84 702.1 -302.71 700.81 C-302.59 699.69 -302.47 698.58 -302.34 697.43 C-302.23 694.56 -302.23 694.56 -304.13 692.66 C-306.08 691.26 -306.08 691.26 -308.3 690.03 C-317.35 684.25 -320.89 670.33 -323.13 660.5 C-323.33 659.67 -323.54 658.83 -323.75 657.97 C-327.38 642.45 -327.85 627.3 -327.82 611.42 C-327.82 607.86 -327.84 604.3 -327.87 600.73 C-327.92 579.54 -325.85 558.74 -321.82 537.94 C-321.69 537.28 -321.56 536.63 -321.43 535.95 C-313.82 496.59 -301.18 459.03 -284.5 422.63 C-283.78 421.01 -283.05 419.39 -282.33 417.77 C-270.05 390.61 -254.29 364.51 -236.5 340.63 C-235.71 339.56 -235.71 339.56 -234.91 338.48 C-227.77 328.91 -220.33 319.64 -212.5 310.63 C-211.87 309.89 -211.24 309.16 -210.58 308.4 C-208.9 306.46 -207.2 304.55 -205.5 302.63 C-204.9 301.94 -204.3 301.25 -203.68 300.54 C-197.64 293.74 -191.32 287.26 -184.89 280.83 C-183.13 279.07 -181.38 277.3 -179.63 275.53 C-173.62 269.49 -167.55 263.79 -160.86 258.51 C-158.53 256.65 -156.32 254.7 -154.13 252.69 C-138.08 238.31 -119.76 226 -101.5 214.63 C-100.4 213.93 -100.4 213.93 -99.27 213.23 C-88.56 206.57 -77.6 200.41 -66.5 194.44 C-65.89 194.1 -65.27 193.77 -64.63 193.43 C-62.86 192.47 -61.09 191.53 -59.32 190.58 C-58.29 190.04 -57.27 189.49 -56.21 188.93 C-53.93 187.83 -51.97 187.1 -49.5 186.63 C-49.85 186.19 -50.2 185.75 -50.55 185.3 C-73.72 155.98 -90.31 121.66 -91.5 83.63 C-91.56 82.4 -91.61 81.17 -91.66 79.9 C-92.36 55.58 -88.44 26.23 -72.13 7.13 C-51.13 -14.52 -25.59 -8.6 0 0 Z " fill="#000000" transform="translate(327.50372314453125,8.373321533203125)"/>
<path d="M0 0 C77.4 25.91 160 46.09 333.21 22.1 C353.59 16.48 373.9 11.15 394.81 7.81 C396.63 7.52 396.63 7.52 398.49 7.22 C418.69 4.19 438.96 3.21 459.37 3.25 C460.46 3.25 461.55 3.25 462.68 3.25 C478.98 3.29 494.54 4 510.5 7.63 C511.49 7.84 512.47 8.04 513.49 8.26 C536.54 13.14 558.82 20.7 581.11 28.21 C606.87 36.88 632.55 45.41 659.5 49.63 C660.53 49.8 661.56 49.97 662.62 50.14 C667.36 50.73 672.06 50.91 676.84 51.06 C678.88 51.13 680.92 51.2 682.96 51.27 C684.02 51.31 685.08 51.35 686.17 51.38 C722.37 52.69 722.37 52.69 738.5 55.63 C739.55 55.82 740.61 56.01 741.7 56.2 C760.07 59.61 777.8 64.68 795.5 70.63 C796.39 70.93 797.29 71.23 798.21 71.54 C847.08 88.18 918.76 118.81 945 166.37 C952.88 183.46 954.84 204.69 949.5 222.63 C948.89 224.06 948.89 224.06 948.28 225.52 C947.25 229.6 948.08 232.06 949.31 236.06 C961.02 275.02 945.25 324.47 926.79 359.12 C921.68 368.38 916.02 377.67 908.87 385.51 C905.94 389.36 904.82 392.98 903.43 397.56 C897.66 415.17 889.02 431.89 876.5 445.63 C876 446.18 875.5 446.73 874.99 447.3 C860.13 463.68 841.47 475.07 819.5 478.63 C819.93 479.06 820.37 479.49 820.82 479.93 C841.48 501.55 852.86 532.12 859.73 560.68 C861.85 569.51 864.28 576.89 869.03 584.64 C887.11 614.48 890.4 656.18 882.75 689.79 C872.44 730.7 847.56 765.05 811.33 786.93 C787.89 800.51 762.37 807.08 735.31 806.94 C734.58 806.94 733.86 806.93 733.11 806.93 C722 806.88 711.29 806.43 700.5 803.63 C699.7 803.42 698.9 803.22 698.08 803.01 C676.23 797.25 656.87 788.17 639.5 773.63 C606.31 746.52 565.93 734.22 523.5 731.63 C522.45 731.55 521.41 731.48 520.34 731.41 C473.69 729.8 424.89 752.83 391.21 784 C357.66 815.79 341.67 860.17 340.21 905.79 C339.82 926.8 341.78 947.37 347.5 967.63 C347.68 968.31 347.87 968.99 348.07 969.69 C355.38 995.46 368.81 1019.57 386.5 1039.63 C387.35 1040.6 388.2 1041.57 389.07 1042.57 C417.81 1074.93 458.1 1096.52 501.66 1099.42 C508.1 1099.76 514.54 1099.87 521 1099.88 C521.69 1099.88 522.38 1099.88 523.09 1099.88 C539.41 1099.86 555.24 1098.48 570.82 1093.4 C573.5 1092.63 573.5 1092.63 577.5 1092.63 C571.98 1126.3 553.06 1158.15 526.5 1179.63 C525.56 1180.39 524.63 1181.15 523.67 1181.93 C515.38 1188.55 506.63 1194.25 497.5 1199.63 C496.9 1199.98 496.31 1200.33 495.69 1200.7 C465.21 1218.56 429.17 1226.66 394.43 1230.88 C393.41 1231 393.41 1231 392.36 1231.13 C375 1233.2 357.83 1233.83 340.37 1233.81 C339.31 1233.81 338.25 1233.81 337.15 1233.81 C290.06 1233.74 244.1 1227.21 198.5 1215.63 C198.19 1216.41 197.89 1217.19 197.58 1218 C193.69 1227.42 184.73 1232.24 175.9 1236.26 C170.66 1238.15 165.52 1238.16 160 1238.13 C158.87 1238.12 157.75 1238.12 156.59 1238.11 C122.59 1237.42 87.62 1227.92 55.5 1217.63 C54.17 1217.2 54.17 1217.2 52.81 1216.77 C-6.49 1197.56 -64.85 1162.54 -105.5 1114.63 C-106.31 1113.7 -107.12 1112.78 -107.96 1111.83 C-121.9 1095.84 -134.01 1078.43 -145.5 1060.63 C-146 1059.86 -146.5 1059.1 -147.01 1058.31 C-147.7 1057.24 -147.7 1057.24 -148.4 1056.14 C-148.81 1055.51 -149.22 1054.88 -149.63 1054.23 C-150.5 1052.63 -150.5 1052.63 -150.5 1050.63 C-151.16 1050.96 -151.82 1051.29 -152.5 1051.63 C-168.85 1052.62 -180.73 1050.91 -193.4 1039.99 C-195.27 1038.31 -197.11 1036.6 -198.94 1034.88 C-199.6 1034.26 -200.25 1033.64 -200.93 1033.01 C-206.08 1028.11 -210.93 1023.07 -215.5 1017.63 C-216.2 1016.8 -216.2 1016.8 -216.91 1015.97 C-283.22 937.63 -310.55 830.86 -304.04 716.62 C-304 715.95 -303.96 715.28 -303.91 714.59 C-303.7 711.25 -303.44 707.93 -303.09 704.6 C-302.97 703.35 -302.84 702.1 -302.71 700.81 C-302.59 699.69 -302.47 698.58 -302.34 697.43 C-302.23 694.56 -302.23 694.56 -304.13 692.66 C-306.08 691.26 -306.08 691.26 -308.3 690.03 C-317.35 684.25 -320.89 670.33 -323.13 660.5 C-323.33 659.67 -323.54 658.83 -323.75 657.97 C-327.38 642.45 -327.85 627.3 -327.82 611.42 C-327.82 607.86 -327.84 604.3 -327.87 600.73 C-327.92 579.54 -325.85 558.74 -321.82 537.94 C-321.69 537.28 -321.56 536.63 -321.43 535.95 C-313.82 496.59 -301.18 459.03 -284.5 422.63 C-283.78 421.01 -283.05 419.39 -282.33 417.77 C-270.05 390.61 -254.29 364.51 -236.5 340.63 C-235.71 339.56 -235.71 339.56 -234.91 338.48 C-227.77 328.91 -220.33 319.64 -212.5 310.63 C-211.87 309.89 -211.24 309.16 -210.58 308.4 C-208.9 306.46 -207.2 304.55 -205.5 302.63 C-204.9 301.94 -204.3 301.25 -203.68 300.54 C-197.64 293.74 -191.32 287.26 -184.89 280.83 C-183.13 279.07 -181.38 277.3 -179.63 275.53 C-173.62 269.49 -167.55 263.79 -160.86 258.51 C-158.53 256.65 -156.32 254.7 -154.13 252.69 C-138.08 238.31 -119.76 226 -101.5 214.63 C-100.4 213.93 -100.4 213.93 -99.27 213.23 C-88.56 206.57 -77.6 200.41 -66.5 194.44 C-65.89 194.1 -65.27 193.77 -64.63 193.43 C-62.86 192.47 -61.09 191.53 -59.32 190.58 C-58.29 190.04 -57.27 189.49 -56.21 188.93 C-53.93 187.83 -51.97 187.1 -49.5 186.63 C-49.85 186.19 -50.2 185.75 -50.55 185.3 C-73.72 155.98 -90.31 121.66 -91.5 83.63 C-91.56 82.4 -91.61 81.17 -91.66 79.9 C-92.36 55.58 -88.44 26.23 -72.13 7.13 C-51.13 -14.52 -25.59 -8.6 0 0 Z M-41.5 38.63 C-42.77 41.49 -42.77 41.49 -43.63 44.69 C-44.1 46.25 -44.1 46.25 -44.57 47.85 C-51.44 75.73 -47.83 102.99 -35.5 128.63 C-35.21 129.25 -34.91 129.88 -34.6 130.52 C-20.75 159.07 4.74 181.53 34.54 192.1 C47.35 196.39 59.82 197.97 73.32 197.89 C75.36 197.88 77.4 197.89 79.44 197.9 C88.63 197.91 97.42 197.06 106.5 195.63 C94.35 208.2 73.03 212.39 56.11 212.88 C53.82 212.91 51.54 212.93 49.25 212.94 C48.17 212.94 47.09 212.95 45.98 212.96 C37.72 212.88 29.38 212.34 21.53 209.58 C11.46 206.41 2.47 209.11 -6.75 213.38 C-7.87 213.87 -8.98 214.37 -10.13 214.88 C-13.6 216.43 -17.05 218.02 -20.5 219.63 C-21.58 220.12 -22.65 220.61 -23.76 221.12 C-61.68 238.5 -96.49 260.95 -128.5 287.63 C-129.52 288.47 -130.53 289.31 -131.57 290.17 C-140.08 297.31 -148.06 304.87 -155.88 312.75 C-157.83 314.7 -159.78 316.64 -161.73 318.58 C-168.07 324.92 -174.13 331.28 -179.68 338.34 C-181.47 340.59 -183.36 342.7 -185.32 344.81 C-204.33 366.02 -219.88 391.49 -233.34 416.47 C-234.46 418.54 -235.6 420.6 -236.74 422.65 C-260.29 465.49 -274.97 513.49 -282.5 561.63 C-282.67 562.67 -282.84 563.71 -283.01 564.79 C-287.79 595.77 -288.15 628.6 -278.5 658.63 C-276.01 656.13 -275.58 654.16 -274.54 650.78 C-274.16 649.57 -273.78 648.36 -273.38 647.1 C-273.08 646.13 -273.08 646.13 -272.77 645.14 C-263.43 615.65 -249.74 588.88 -230.5 564.63 C-230.08 564.09 -229.67 563.56 -229.23 563.01 C-224.36 556.8 -219.2 551.08 -213.5 545.63 C-212.84 544.97 -212.18 544.31 -211.5 543.63 C-211.77 544.17 -212.04 544.71 -212.32 545.26 C-223.48 567.68 -232.77 590.65 -240.5 614.44 C-240.84 615.47 -240.84 615.47 -241.19 616.53 C-244.11 625.52 -246.54 634.55 -248.62 643.78 C-249.47 647.48 -250.43 651.14 -251.44 654.81 C-254.73 667.55 -256.56 680.63 -258.5 693.63 C-258.67 694.71 -258.84 695.79 -259.02 696.9 C-267.24 751.15 -263.08 811.01 -247.5 863.63 C-247.14 864.89 -246.77 866.15 -246.4 867.45 C-240.51 887.02 -233.44 906.24 -224.5 924.63 C-224.07 925.52 -223.64 926.41 -223.2 927.33 C-213.72 946.77 -202.27 964.94 -188.5 981.63 C-187.99 982.25 -187.48 982.87 -186.96 983.51 C-181.41 990.22 -175.63 996.69 -169.5 1002.88 C-168.96 1003.43 -168.42 1003.97 -167.87 1004.54 C-165.27 1007.12 -162.94 1009.27 -159.5 1010.63 C-159.75 1009.63 -159.99 1008.64 -160.24 1007.61 C-162.16 999.62 -163.98 991.62 -165.63 983.56 C-165.79 982.81 -165.95 982.06 -166.11 981.28 C-169.21 965.85 -169.87 950.76 -169.82 935.06 C-169.82 934.05 -169.82 933.03 -169.81 931.99 C-169.79 918.05 -169.4 904.45 -166.87 890.7 C-166.28 887.36 -165.9 884 -165.5 880.63 C-164.84 880.63 -164.18 880.63 -163.5 880.63 C-163.38 881.86 -163.26 883.09 -163.14 884.36 C-155.12 956.09 -121.85 1032.31 -72.77 1085.17 C-70.78 1087.33 -68.85 1089.52 -66.94 1091.75 C-60.67 1098.95 -53.77 1105.44 -46.5 1111.63 C-45.59 1112.43 -44.68 1113.23 -43.75 1114.05 C-29.45 1126.51 -13.92 1137.15 2.5 1146.63 C3.33 1147.11 4.17 1147.59 5.03 1148.09 C25.18 1159.66 45.99 1168.69 68 1176.06 C69.12 1176.44 69.12 1176.44 70.26 1176.83 C79.63 1179.97 89.02 1182.61 98.67 1184.75 C102.44 1185.61 106.14 1186.6 109.87 1187.63 C120.48 1190.41 131.41 1191.65 142.26 1193.15 C146.44 1193.76 150.59 1194.5 154.75 1195.26 C157.7 1195.65 160.53 1195.69 163.5 1195.63 C160.24 1193.02 156.79 1191.11 153.12 1189.13 C136.25 1179.7 121.13 1165.98 109.5 1150.63 C108.86 1149.81 108.86 1149.81 108.21 1148.98 C98.46 1136.48 89.58 1122.74 84.5 1107.63 C84.98 1108.15 85.47 1108.67 85.97 1109.21 C113.59 1137.88 152.18 1155.51 189.5 1167.63 C190.76 1168.05 190.76 1168.05 192.05 1168.47 C220.19 1177.72 249.15 1183.83 278.5 1187.63 C279.72 1187.79 280.95 1187.95 282.21 1188.12 C331.78 1194.49 388.95 1194.33 436.5 1177.63 C437.32 1177.34 438.15 1177.05 439 1176.76 C471.08 1165.49 471.08 1165.49 494.5 1142.63 C493.31 1142.48 492.12 1142.33 490.89 1142.18 C456.01 1137.58 419.88 1124.72 391.5 1103.63 C390.94 1103.22 390.39 1102.82 389.81 1102.4 C382.44 1097.02 375.66 1091.18 369.05 1084.88 C366.7 1082.6 366.7 1082.6 364.28 1081.56 C361.93 1080.33 361.61 1078.99 360.5 1076.63 C359.27 1075.36 357.99 1074.13 356.68 1072.94 C349.78 1066.18 344.17 1058.42 338.5 1050.63 C338.05 1050.02 337.61 1049.42 337.15 1048.79 C318.16 1022.66 306.21 991.58 299.31 960.19 C299.15 959.5 299 958.81 298.84 958.1 C295.61 942.55 295.09 926.82 295.12 911 C295.12 909.55 295.12 909.55 295.12 908.08 C295.16 893.23 295.87 879.1 299.5 864.63 C299.71 863.75 299.91 862.88 300.13 861.98 C308.36 828.21 325.02 796.1 347.5 769.63 C348.38 768.56 349.27 767.48 350.16 766.41 C357.47 757.66 365.33 749.58 373.5 741.63 C370.54 740.73 368.35 740.61 365.31 741.05 C360.68 741.64 356.13 741.8 351.46 741.83 C350.2 741.84 350.2 741.84 348.93 741.85 C346.24 741.87 343.56 741.87 340.87 741.88 C339.95 741.88 339.04 741.88 338.09 741.88 C324.02 741.87 310.34 741.31 296.5 738.63 C295.81 738.5 295.11 738.38 294.4 738.25 C272.19 734.21 249.64 725.65 229.5 715.63 C228.77 715.27 228.04 714.91 227.29 714.54 C193.56 697.78 161.16 672.8 138.77 642.34 C137.47 640.6 136.14 638.88 134.8 637.16 C119 616.63 107.78 593.07 99.5 568.63 C99.26 567.94 99.03 567.26 98.79 566.55 C88.72 536.38 87.25 505.12 86.5 473.63 C87.16 473.63 87.82 473.63 88.5 473.63 C88.45 474.34 88.4 475.04 88.36 475.78 C87.48 501.66 94.19 530.56 103.5 554.63 C103.8 555.43 104.11 556.23 104.43 557.06 C114.04 581.9 125.88 604.71 142.5 625.63 C143.67 627.11 143.67 627.11 144.87 628.62 C156.25 642.66 169.22 655.75 183.84 666.42 C185.49 667.62 187.11 668.85 188.73 670.09 C223.85 696.47 266.37 711.36 309.5 717.63 C310.24 717.74 310.98 717.86 311.74 717.98 C355.29 724.76 402.33 718.86 443.16 703.01 C453.21 699.19 463.48 696.55 473.96 694.2 C475.5 693.85 477.03 693.49 478.55 693.09 C492.26 689.66 506.58 689.29 520.64 689.37 C523.13 689.38 525.62 689.37 528.11 689.35 C542.25 689.34 555.91 690.77 569.75 693.81 C570.72 694.03 571.68 694.24 572.68 694.46 C582.59 696.73 592.03 699.97 601.5 703.63 C602.21 703.9 602.93 704.17 603.67 704.45 C626.67 713.15 647.14 725.57 666.32 740.88 C689.39 758.98 717.41 767.51 746.67 764.4 C751.04 763.79 755.25 762.78 759.5 761.63 C760.13 761.46 760.77 761.29 761.42 761.12 C777.15 756.94 790.96 750.08 803.5 739.63 C804.9 738.47 804.9 738.47 806.33 737.29 C825.97 720.32 837.72 697.08 841.5 671.63 C841.68 670.51 841.87 669.38 842.06 668.23 C843.49 656.43 842.92 644.23 840.5 632.63 C840.3 631.65 840.11 630.67 839.91 629.66 C837.53 618.99 833.63 609.38 827.06 600.63 C822.16 593.77 820.62 586.13 818.87 578 C818.73 577.34 818.59 576.68 818.44 576.01 C818.16 574.68 817.87 573.35 817.58 572.03 C812.68 549.28 803.14 528.51 789.5 509.63 C787.52 509.97 787.52 509.97 785.5 510.63 C784.3 513.03 784.28 514.73 784.14 517.41 C783.1 534.33 780.3 550.45 776.5 566.95 C773.54 578.44 773.54 578.44 776.06 589.56 C782.23 594.79 787.7 595.05 795.5 594.63 C795.5 595.29 795.5 595.95 795.5 596.63 C790.79 597.82 786.19 597.81 781.37 597.81 C780.56 597.83 779.75 597.84 778.91 597.85 C778.13 597.85 777.35 597.86 776.55 597.86 C775.84 597.86 775.14 597.87 774.41 597.87 C772.5 597.63 772.5 597.63 769.5 595.63 C768.87 592.81 768.87 592.81 768.5 589.21 C768.29 587.25 768.29 587.25 768.07 585.24 C767.96 584.2 767.96 584.2 767.85 583.14 C766.58 571.18 764.99 559.87 760.5 548.63 C760.04 547.43 759.59 546.23 759.13 544.99 C754.12 532.44 746.83 522.31 737.5 512.63 C736.44 511.5 736.44 511.5 735.36 510.34 C733.66 508.37 733.66 508.37 731.37 508.69 C729.15 509.6 729.15 509.6 727.5 512.63 C727.06 514.89 727.06 514.89 726.89 517.45 C726.8 518.44 726.71 519.43 726.61 520.46 C726.51 521.54 726.41 522.63 726.31 523.75 C723.8 547.63 718.52 570.85 710.3 593.41 C709.31 596.13 708.4 598.88 707.5 601.63 C695.54 599.01 683.69 596.23 671.92 592.88 C666.52 591.34 661.09 589.91 655.65 588.5 C651.77 587.49 647.89 586.46 644.02 585.38 C622.95 579.51 601.57 576.36 579.87 574.01 C570.36 572.97 560.91 571.84 551.52 570.02 C550.09 569.74 548.67 569.48 547.24 569.22 C528.45 565.85 505.72 560.62 493.5 544.63 C491.59 541.39 489.98 538.08 488.5 534.63 C487.97 533.42 487.97 533.42 487.43 532.19 C486.41 529.4 485.86 526.73 485.37 523.81 C485.12 522.35 485.12 522.35 484.86 520.86 C484.74 520.12 484.62 519.39 484.5 518.63 C487.7 521.56 489.65 524.44 491.68 528.25 C502.56 547.26 520.85 557.01 541.5 562.63 C544.8 563.46 548.11 564.22 551.43 564.94 C552.21 565.11 552.99 565.28 553.8 565.46 C558.79 566.48 563.4 566.78 568.5 566.63 C568.51 564.74 568.51 564.74 567.5 562.63 C565.26 561.15 563.1 559.88 560.75 558.63 C546.99 550.84 533.7 538.95 528.5 523.63 C523.47 502.86 526.8 478.1 534.5 458.63 C534.77 457.88 535.05 457.14 535.34 456.37 C545.78 428.49 566.17 404.67 589.5 386.63 C590.46 385.88 591.43 385.13 592.43 384.35 C596.51 381.24 600.59 378.17 604.92 375.42 C606.02 374.73 607.12 374.03 608.25 373.31 C609.25 372.7 610.26 372.08 611.29 371.45 C612.02 370.85 612.75 370.25 613.5 369.63 C613.5 368.31 613.5 366.99 613.5 365.63 C571.7 368.44 534.81 388.96 507.5 420.16 C503.97 424.5 500.7 429.03 497.5 433.63 C504.33 415.96 514.2 401.09 527.5 387.63 C528.21 386.84 528.92 386.06 529.66 385.25 C547.68 365.88 575.92 355.03 601.5 350.63 C603 350.36 603 350.36 604.53 350.08 C615.61 348.33 626.6 348.36 637.79 348.42 C641.06 348.44 644.32 348.44 647.58 348.44 C662.87 348.47 677.72 349.19 692.87 351.44 C694.06 351.61 695.26 351.79 696.48 351.96 C705.72 353.32 714.93 354.81 724.12 356.41 C725.05 356.57 725.98 356.73 726.94 356.89 C727.75 357.03 728.56 357.18 729.4 357.32 C731.64 357.7 731.64 357.7 734.5 357.63 C735.28 367.86 735.73 378.04 735.75 388.31 C735.75 389.02 735.75 389.72 735.75 390.44 C735.77 403.05 734.74 415.36 733.15 427.88 C732.58 432.53 732.19 436.95 732.5 441.63 C733.16 442.29 733.82 442.95 734.5 443.63 C752.58 442.38 769.07 425.29 780.5 412.63 C783.14 409.44 785.37 406.18 787.5 402.63 C787.84 402.06 788.18 401.5 788.54 400.92 C798.89 384.7 798.89 384.7 803.5 366.63 C804.36 366.83 805.22 367.04 806.11 367.25 C816.63 369.57 826.72 370.23 837.5 370.63 C829.91 371.29 822.32 371.95 814.5 372.63 C815.16 376.26 815.82 379.89 816.5 383.63 C816.66 385.84 816.76 388.05 816.76 390.27 C816.77 392.01 816.77 392.01 816.77 393.79 C816.76 395 816.76 396.2 816.75 397.44 C816.74 398.69 816.74 399.95 816.73 401.24 C816.63 412.45 815.78 423.5 814.5 434.63 C816.34 435.74 816.34 435.74 818.5 436.63 C834.73 431.15 848.05 415.89 855.62 401.13 C860.68 390.86 864.17 379.96 866.93 368.88 C867.92 365.5 868.95 363.96 871.75 361.86 C875.73 358.61 878.3 354.97 881 350.63 C881.47 349.87 881.94 349.12 882.43 348.35 C893.37 330.68 899.63 311.75 904.5 291.63 C904.88 290.14 905.27 288.66 905.66 287.18 C909.38 272.23 912.59 252.21 905.1 238.05 C898.36 227.86 890.59 220.7 880.18 214.31 C865.74 205.31 848.47 190.88 840.5 175.63 C840.5 174.64 840.5 173.65 840.5 172.63 C844.81 173.16 847.85 174.12 851.56 176.36 C852.51 176.93 853.46 177.5 854.44 178.08 C855.45 178.7 856.46 179.31 857.5 179.94 C859.65 181.22 861.8 182.5 863.95 183.77 C865.59 184.74 865.59 184.74 867.25 185.73 C887.3 199.03 887.3 199.03 909.5 205.63 C909.79 196.4 909.56 188.01 903.42 180.67 C860.04 134.65 787.24 107.36 726.12 96.94 C725.42 96.82 724.72 96.7 724 96.58 C712.79 94.77 701.64 94.48 690.31 94.3 C674.87 94.03 659.74 93.33 644.5 90.63 C643.79 90.51 643.08 90.38 642.35 90.26 C627.93 87.75 613.86 83.55 599.87 79.31 C598.85 79.01 598.85 79.01 597.81 78.69 C585.61 75 573.52 71 561.44 66.93 C487.39 42 421.04 41.08 346.05 62.89 C339.94 64.65 333.82 66.35 327.68 68.02 C325.54 68.61 323.41 69.22 321.28 69.84 C286.1 79.75 249.76 83.85 213.31 83.81 C212.25 83.81 211.19 83.81 210.1 83.81 C193.48 83.8 177.04 83.36 160.5 81.63 C159.7 81.55 158.9 81.47 158.08 81.38 C150.92 80.64 143.82 79.55 136.73 78.28 C136 78.15 135.27 78.02 134.51 77.89 C97.79 71.33 61.42 63.65 25.83 52.35 C22.2 51.23 18.54 50.24 14.87 49.25 C6.67 47.03 -1.45 44.53 -9.57 42 C-11.42 41.42 -11.42 41.42 -13.32 40.84 C-19.15 39.01 -24.97 37.17 -30.75 35.17 C-36 33.54 -38.03 34.54 -41.5 38.63 Z " fill="#FDFDFD" transform="translate(327.50372314453125,8.373321533203125)"/>
<path d="M0 0 C18.01 12.13 18.01 12.13 19.88 14 C20.24 19.34 19.29 23.71 17.5 28.69 C17.28 29.34 17.06 29.99 16.83 30.66 C15.71 33.89 14.51 36.99 12.88 40 C5.5 39.25 -1.29 36.88 -8.32 34.62 C-19.36 31.15 -29.76 29.7 -41.31 29.38 C-42.45 29.34 -43.59 29.3 -44.77 29.26 C-47.55 29.17 -50.34 29.08 -53.12 29 C-54.64 23.57 -55.51 18.64 -55.5 13 C-55.5 12.31 -55.5 11.61 -55.5 10.9 C-55.37 5.12 -54.35 0.23 -50.12 -4 C-50.08 -6 -50.08 -8 -50.12 -10 C-54.1 -12.71 -58.26 -12.22 -62.87 -12.12 C-64.06 -12.11 -64.06 -12.11 -65.27 -12.09 C-67.22 -12.07 -69.17 -12.04 -71.12 -12 C-49.86 -28.75 -18.87 -12.63 0 0 Z " fill="#FCFCFC" transform="translate(833.1210632324219,118.99723815917969)"/>
<path d="M0 0 C1.42 0.31 2.83 0.62 4.25 0.94 C5.43 1.2 5.43 1.2 6.64 1.46 C8.03 1.78 9.42 2.12 10.79 2.51 C13.43 3.1 15.94 3.22 18.64 3.32 C19.71 3.36 20.78 3.4 21.88 3.44 C22.99 3.48 24.11 3.52 25.25 3.56 C26.94 3.63 26.94 3.63 28.66 3.69 C31.44 3.8 34.22 3.9 37 4 C34.64 6.46 32.46 8.53 29.5 10.22 C28.84 10.59 28.19 10.97 27.52 11.35 C26.83 11.73 26.14 12.11 25.44 12.5 C24.73 12.9 24.02 13.29 23.29 13.7 C13.56 19.01 4.52 22.15 -6.62 22.12 C-7.94 22.13 -9.25 22.13 -10.6 22.13 C-14 22 -14 22 -17 21 C-17 20.34 -17 19.68 -17 19 C-15.53 17.88 -15.53 17.88 -13.5 16.56 C-7.7 12.39 -3.19 6.39 0 0 Z " fill="#F3F3F3" transform="translate(869,141)"/>
<path d="M0 0 C0 3.78 -1.08 5.77 -3 9 C-4.33 9.68 -5.66 10.34 -7 11 C-8.95 12.71 -8.95 12.71 -10.75 14.62 C-11.36 15.26 -11.98 15.89 -12.61 16.54 C-13.07 17.02 -13.53 17.5 -14 18 C-14 15 -14 15 -11.95 12.7 C-10.62 11.42 -10.62 11.42 -9.25 10.12 C-5.89 6.91 -2.83 3.7 0 0 Z " fill="#DEDEDE" transform="translate(117,549)"/>
<path d="M0 0 C0.99 0.33 1.98 0.66 3 1 C4.66 1.35 6.33 1.68 8 2 C8 2.33 8 2.66 8 3 C3.38 3.33 -1.24 3.66 -6 4 C-2 1 -2 1 0 0 Z " fill="#D3D3D3" transform="translate(768,103)"/>
</svg>
