<?xml version="1.0" encoding="UTF-8"?>
<!-- Generator: https://ezgif.com/webp-to-svg -->
<svg version="1.1" xmlns="http://www.w3.org/2000/svg" width="50" height="50">
<path d="M0 0 C2.33 0.33 4.67 0.67 7 1 C10.87 1.2 14.39 1.13 18.19 0.31 C25.46 -0.28 34.15 1.44 40 6 C41.23 10.25 40.41 14.2 38.44 18.06 C36.89 21.23 36.95 21.84 37.56 25.12 C38 29 38 29 36.5 31.56 C32.97 33.59 30.91 32.88 27 32 C23.85 31.28 23.85 31.28 21 31 C20.01 31.66 19.02 32.32 18 33 C17.58 36.5 17.58 36.5 18 40 C20.57 42.57 22.48 42.54 26 43 C25.31 45.38 25.31 45.38 24 48 C18.34 50.97 12.22 50.5 6 50 C-0.22 47.93 -5.35 43.5 -8.94 38.06 C-11.23 31.67 -11.26 23.09 -9.27 16.65 C-7.7 13.74 -5.66 11.69 -3.25 9.44 C-0.67 7.15 -0.67 7.15 -0.75 3.75 C-0.87 2.39 -0.87 2.39 -1 1 C-0.67 0.67 -0.34 0.34 0 0 Z " fill="#040404" transform="translate(10,0)"/>
<path d="M0 0 C2.33 0.33 4.67 0.67 7 1 C10.87 1.2 14.39 1.13 18.19 0.31 C25.46 -0.28 34.15 1.44 40 6 C41.23 10.25 40.41 14.2 38.44 18.06 C36.89 21.23 36.95 21.84 37.56 25.12 C38 29 38 29 36.5 31.56 C32.97 33.59 30.91 32.88 27 32 C23.85 31.28 23.85 31.28 21 31 C20.01 31.66 19.02 32.32 18 33 C17.58 36.5 17.58 36.5 18 40 C20.57 42.57 22.48 42.54 26 43 C25.31 45.38 25.31 45.38 24 48 C18.34 50.97 12.22 50.5 6 50 C-0.22 47.93 -5.35 43.5 -8.94 38.06 C-11.23 31.67 -11.26 23.09 -9.27 16.65 C-7.7 13.74 -5.66 11.69 -3.25 9.44 C-0.67 7.15 -0.67 7.15 -0.75 3.75 C-0.87 2.39 -0.87 2.39 -1 1 C-0.67 0.67 -0.34 0.34 0 0 Z M1 3 C1.33 4.32 1.66 5.64 2 7 C3.65 7.33 5.3 7.66 7 8 C7 8.66 7 9.32 7 10 C6.15 9.88 5.31 9.75 4.44 9.62 C-0.32 10.14 -2.87 12.48 -6 16 C-8.28 19.78 -7.83 21.68 -7 26 C-7 27.35 -7.02 28.71 -7.06 30.06 C-7 33.7 -6.6 35.79 -5 39 C-4.01 38.51 -4.01 38.51 -3 38 C-2.41 39.11 -2.41 39.11 -1.81 40.25 C0.13 43.2 2.16 44.93 5 47 C5.99 46.51 5.99 46.51 7 46 C9 46 9 46 12 47 C13.56 47.07 15.13 47.09 16.69 47.06 C17.5 47.05 18.3 47.04 19.14 47.04 C19.75 47.02 20.37 47.01 21 47 C21 46.34 21 45.68 21 45 C19.34 43.98 17.68 42.98 16 42 C14.49 38.98 14.82 36.33 15 33 C15.66 32.01 16.32 31.02 17 30 C15.91 29.75 14.81 29.5 13.69 29.25 C9.94 27.98 8.89 27.34 7 24 C7.33 24.33 7.66 24.66 8 25 C11.55 28.37 14.52 28.44 19.31 28.62 C23.24 28.79 27.03 29 30.92 29.59 C31.94 29.72 32.95 29.86 34 30 C35.3 28.93 35.3 28.93 35.06 26.44 C35.04 25.63 35.02 24.83 35 24 C34.01 24.33 33.02 24.66 32 25 C31.51 24.01 31.51 24.01 31 23 C31 23.66 31 24.32 31 25 C28.36 24.34 25.72 23.68 23 23 C23 20.69 23 18.38 23 16 C25.76 14.62 27.95 14.81 31 15 C31.66 15.66 32.32 16.32 33 17 C33.99 17 34.98 17 36 17 C37.43 14.65 38.09 13.52 37.62 10.75 C37.42 10.17 37.21 9.59 37 9 C36.34 9 35.68 9 35 9 C35 8.01 35 7.02 35 6 C23.87 2.06 12.64 2.7 1 3 Z " fill="#EBEBEB" transform="translate(10,0)"/>
<path d="M0 0 C1.9 0.26 3.79 0.53 5.69 0.81 C6.74 0.96 7.8 1.11 8.89 1.27 C12.18 2.04 14.35 2.89 17 5 C18.23 9.25 17.41 13.2 15.44 17.06 C13.89 20.23 13.95 20.84 14.56 24.12 C15 28 15 28 13.5 30.56 C9.24 33.01 5.43 31.34 0.88 30.25 C-2.05 29.79 -2.05 29.79 -4.81 31.06 C-7.63 33.56 -7.75 35.32 -8 39 C-8.33 39 -8.66 39 -9 39 C-9.12 35.63 -9.12 35.63 -9 32 C-8.34 31.34 -7.68 30.68 -7 30 C-8.09 29.59 -9.19 29.18 -10.31 28.75 C-13.49 27.38 -15.44 26.22 -17 23 C-16.69 20.75 -16.69 20.75 -16 19 C-15.55 19.97 -15.09 20.94 -14.62 21.94 C-13.34 25.07 -13.34 25.07 -11 26 C-8.61 26.21 -6.21 26.37 -3.81 26.5 C1.19 26.78 6.06 27.23 11 28 C11 26.68 11 25.36 11 24 C9.83 23.93 9.83 23.93 8.63 23.85 C7.62 23.78 6.61 23.7 5.56 23.62 C4.55 23.56 3.54 23.49 2.5 23.41 C1.68 23.28 0.85 23.14 0 23 C-1.39 20.21 -1.26 18.08 -1 15 C2.45 12.7 3.95 12.66 8 13 C8.66 13.66 9.32 14.32 10 15 C10.99 14.67 11.98 14.34 13 14 C13.33 12.35 13.66 10.7 14 9 C13.34 8.67 12.68 8.34 12 8 C12 7.01 12 6.02 12 5 C6.06 4.01 6.06 4.01 0 3 C0 2.01 0 1.02 0 0 Z " fill="#EDEDED" transform="translate(33,1)"/>
<path d="M0 0 C2 2 2 2 2.77 4.02 C3.89 6.25 3.89 6.25 6.6 7.05 C7.6 7.28 8.6 7.51 9.62 7.75 C10.63 7.99 11.63 8.23 12.66 8.48 C13.43 8.65 14.21 8.82 15 9 C15 9.66 15 10.32 15 11 C13.79 11.62 13.79 11.62 12.56 12.25 C9.68 13.81 9.68 13.81 9.19 17.19 C9.13 18.12 9.06 19.04 9 20 C8.67 20 8.34 20 8 20 C7.88 16.62 7.88 16.62 8 13 C8.66 12.34 9.32 11.68 10 11 C8.91 10.59 7.81 10.18 6.69 9.75 C3.49 8.37 1.64 7.18 0 4 C0 2.68 0 1.36 0 0 Z " fill="#B8B8B8" transform="translate(16,20)"/>
<path d="M0 0 C0.99 0 1.98 0 3 0 C3.66 0.99 4.32 1.98 5 3 C4.01 3.33 3.02 3.66 2 4 C1.34 3.67 0.68 3.34 0 3 C0 2.01 0 1.02 0 0 Z M1 4 C1.33 4.66 1.66 5.32 2 6 C2.66 6 3.32 6 4 6 C3.67 7.32 3.34 8.64 3 10 C2.34 10 1.68 10 1 10 C-0.12 6.25 -0.12 6.25 1 4 Z " fill="#B0B0B0" transform="translate(41,15)"/>
<path d="M0 0 C0 0.33 0 0.66 0 1 C-1.65 1 -3.3 1 -5 1 C-5 1.66 -5 2.32 -5 3 C-5.66 3 -6.32 3 -7 3 C-7 4.98 -7 6.96 -7 9 C-6.01 9.33 -5.02 9.66 -4 10 C-5.65 9.67 -7.3 9.34 -9 9 C-9.19 5.62 -9.19 5.62 -9 2 C-5.56 -0.29 -4.01 -0.18 0 0 Z " fill="#929292" transform="translate(41,14)"/>
<path d="M0 0 C2.64 0.33 5.28 0.66 8 1 C8 1.99 8 2.98 8 4 C6.02 4 4.04 4 2 4 C1.34 2.68 0.68 1.36 0 0 Z " fill="#595959" transform="translate(28,3)"/>
</svg>
