<?xml version="1.0" encoding="UTF-8"?>
<!-- Generator: https://ezgif.com/webp-to-svg -->
<svg version="1.1" xmlns="http://www.w3.org/2000/svg" width="50" height="50">
<path d="M0 0 C3.15 2.46 3.8 5.85 5 9.56 C5.66 11.23 6.32 12.9 7 14.56 C8.94 14.35 8.94 14.35 11 13.56 C12.31 11.86 12.31 11.86 13.19 9.75 C13.67 8.72 13.67 8.72 14.17 7.67 C15.07 5.6 15.07 5.6 15.36 3.43 C16 1.56 16 1.56 18.06 0.31 C19.02 -0.06 19.02 -0.06 20 -0.44 C20.83 0.33 21.66 1.1 22.52 1.9 C23.62 2.91 24.71 3.92 25.81 4.94 C26.36 5.45 26.91 5.95 27.47 6.48 C29.9 8.71 32.25 10.73 35 12.56 C35 13.55 35 14.54 35 15.56 C33.4 15.78 31.79 15.99 30.19 16.19 C29.29 16.3 28.4 16.42 27.48 16.54 C25 16.56 25 16.56 22 14.56 C22.49 16.05 22.49 16.05 23 17.56 C20.24 18.16 17.84 18.56 15 18.56 C16.39 21.75 17.98 23.64 20.56 25.94 C23.09 28.39 23.96 29.43 25.06 32.88 C25 35.56 25 35.56 23 37.56 C21.68 37.56 20.36 37.56 19 37.56 C18.34 34.92 17.68 32.28 17 29.56 C14.93 29.41 14.93 29.41 13 30.56 C11.35 27.26 9.7 23.96 8 20.56 C7.9 21.84 7.79 23.12 7.69 24.44 C7.51 26.62 7.51 26.62 7 28.56 C6.01 29.22 5.02 29.88 4 30.56 C3.01 29.9 2.02 29.24 1 28.56 C0.67 31.53 0.34 34.5 0 37.56 C-2.37 37.69 -2.37 37.69 -5 37.56 C-5.66 36.9 -6.32 36.24 -7 35.56 C-6.82 30.88 -4.6 28.65 -1.44 25.38 C1.86 22.45 1.86 22.45 3 18.56 C1.67 16.99 1.67 16.99 0 15.44 C-0.56 14.9 -1.11 14.36 -1.69 13.8 C-2.12 13.39 -2.55 12.98 -3 12.56 C-3.33 14.87 -3.66 17.18 -4 19.56 C-7.94 19.29 -9.75 18.76 -12.88 16.25 C-15 13.56 -15 13.56 -15 9.56 C-13.04 8.18 -11.03 6.85 -9 5.56 C-7.65 3.91 -6.32 2.24 -5 0.56 C-2 -0.44 -2 -0.44 0 0 Z " fill="#FE9A51" transform="translate(15,6.4375)"/>
</svg>
