<?xml version="1.0" encoding="UTF-8"?>
<!-- Generator: https://ezgif.com/png-to-svg -->
<svg version="1.1" xmlns="http://www.w3.org/2000/svg" width="512" height="512" viewBox="-6 -5.765 112 112" preserveAspectRatio="xMidYMid meet">
<path d="M0 0 C2.37 2.31 2.37 2.31 4 5 C3.82 5.78 3.65 6.56 3.47 7.36 C2.43 13.19 7.42 19.3 10.5 24.06 C13.24 27.28 14.02 27.46 18 28 C23.5 22.47 27.75 16.56 30 9 C29.68 7.66 29.35 6.33 29 5 C32.74 -0.44 32.74 -0.44 35.95 -1.86 C38 -2 38 -2 39.8 -0.85 C40.69 0.04 40.69 0.04 41.61 0.94 C42.28 1.59 42.96 2.23 43.65 2.9 C44.34 3.59 45.04 4.29 45.75 5 C47.12 6.33 48.49 7.67 49.86 9 C50.54 9.66 51.22 10.33 51.92 11.01 C55.73 14.65 59.67 18.17 63.83 21.43 C65.26 22.56 66.64 23.78 68 25 C68 25.99 68 26.98 68 28 C52.2 32.24 52.2 32.24 46.8 29.2 C44.59 26.91 42.72 24.67 41 22 C40.01 22.66 39.02 23.32 38 24 C40.55 27.52 40.55 27.52 44 30 C44 30.66 44 31.32 44 32 C42.57 32.42 41.13 32.81 39.69 33.19 C38.89 33.41 38.09 33.63 37.26 33.86 C36.52 33.9 35.77 33.95 35 34 C34.01 33.01 33.02 32.02 32 31 C29.69 32.98 27.38 34.96 25 37 C27.61 39.62 30.23 42.23 32.9 44.8 C47.65 59.07 47.65 59.07 48.23 65.61 C48 68 48 68 46.5 70.25 C42.99 72.71 40.25 72.72 36 73 C35.99 72.17 35.97 71.33 35.96 70.47 C35.63 62.74 34.46 57.36 30 51 C29.57 51.97 29.13 52.94 28.69 53.94 C27 57 27 57 24 58 C23.84 57.37 23.68 56.74 23.52 56.09 C22.3 51.62 21.06 47.78 18.44 43.94 C15.67 39.86 14.75 35.82 14 31 C11.76 36.72 11.95 41.51 12.22 47.56 C11.97 51.39 10.92 53.71 9 57 C7.68 57 6.36 57 5 57 C3.25 55 3.25 55 2 53 C-2.57 59.34 -2.77 65.32 -3 73 C-10.18 72.52 -10.18 72.52 -13.56 70.38 C-15 68 -15 68 -15.19 64.81 C-11.94 54.39 -1.78 46.31 6 39 C6.66 38.67 7.32 38.34 8 38 C7.25 37.28 6.5 36.55 5.73 35.8 C4.74 34.83 3.74 33.85 2.75 32.88 C2.26 32.4 1.77 31.93 1.26 31.44 C-2.02 28.2 -4.56 24.91 -7 21 C-10.57 25.65 -10.68 30.35 -11 36 C-19.27 35.29 -24.23 33.28 -29.8 27.01 C-31.36 24.4 -31.64 21.99 -32 19 C-30.97 18.29 -30.97 18.29 -29.92 17.57 C-29.02 16.95 -28.12 16.33 -27.19 15.69 C-25.85 14.77 -25.85 14.77 -24.48 13.82 C-21.12 11.35 -19.33 10 -18 6 C-16.33 4.21 -16.33 4.21 -14.25 2.38 C-13.57 1.76 -12.9 1.15 -12.2 0.52 C-7.94 -2.42 -4.48 -2.53 0 0 Z " fill="#FE9A51" transform="translate(32,15)"/>
</svg>
