<?xml version="1.0" encoding="UTF-8"?>
<!-- Generator: https://ezgif.com/png-to-svg -->
<svg version="1.1" xmlns="http://www.w3.org/2000/svg" width="512" height="512" viewBox="-253.663 -119.193 2222.326 2222.326" preserveAspectRatio="xMidYMid meet">
<path d="M0 0 C0.49 1.03 0.97 2.07 1.47 3.13 C40.16 85.25 79.9 168.77 176 209 C183.94 211.85 191.94 214.52 200 217 C200.71 217.23 201.43 217.46 202.17 217.7 C211.01 220.32 219.17 217.65 227.69 215 C229.18 214.54 229.18 214.54 230.7 214.07 C247.06 208.89 262.93 202.2 278 194 C278.69 193.62 279.39 193.25 280.1 192.86 C305.51 178.87 328.44 158.03 346 135 C346.9 133.85 347.81 132.7 348.71 131.54 C379.26 92.22 400.57 45.15 421 0 C427.59 0.49 432.8 2.27 438.81 4.94 C439.73 5.34 440.65 5.74 441.59 6.16 C470.73 19.15 496.14 36.84 519 59 C519.65 59.63 520.3 60.26 520.98 60.91 C528.86 68.56 536.2 76.35 543 85 C543.98 86.18 544.96 87.36 545.94 88.53 C570.97 118.54 590.97 152.97 606 189 C606.35 189.84 606.7 190.68 607.06 191.54 C624.75 234.53 635.97 281.66 639 328 C639.06 328.84 639.12 329.69 639.18 330.56 C641.42 364.77 642.98 403.07 632 436 C632.73 436.28 633.46 436.56 634.21 436.85 C636.81 437.92 639.21 439.12 641.68 440.47 C655.46 447.9 669.4 454.34 684 460 C685 460.39 685.99 460.78 687.02 461.18 C698.95 465.76 711 469.74 723.31 473.19 C724.89 473.63 724.89 473.63 726.5 474.09 C748.55 480.06 771.01 484.05 793.6 487.33 C795.67 487.63 797.74 487.94 799.81 488.24 C833.14 493.16 866.54 497.58 899.94 501.98 C901.73 502.22 903.52 502.45 905.3 502.69 C914.36 503.88 923.42 505.06 932.49 506.17 C934.66 506.44 936.83 506.71 939 506.98 C940.99 507.22 942.99 507.45 944.98 507.69 C946.15 507.83 947.32 507.98 948.53 508.13 C949.54 508.25 950.56 508.37 951.61 508.5 C954 509 954 509 956 511 C943.54 529.01 930.33 546.4 916.4 563.3 C915.11 564.87 913.83 566.46 912.55 568.04 C908.06 573.6 903.4 578.95 898.55 584.2 C896.59 586.35 894.68 588.53 892.79 590.73 C888.58 595.55 884.09 600.06 879.56 604.56 C878.75 605.37 877.95 606.19 877.12 607.02 C872.24 611.89 867.24 616.53 862 621 C860.85 622 859.7 622.99 858.54 623.99 C834.83 644.39 810.12 663.75 784 681 C784.54 687.65 785.5 694.05 786.97 700.55 C787.16 701.44 787.36 702.33 787.56 703.24 C788.2 706.12 788.85 709 789.5 711.88 C789.72 712.87 789.95 713.86 790.18 714.89 C804.8 782.9 804.8 782.9 833 846 C833.51 846.87 834.03 847.74 834.55 848.64 C851.63 877.5 870.52 905.23 892 931 C892.82 932.01 893.64 933.02 894.49 934.06 C900.8 941.69 907.58 948.79 914.56 955.81 C915.86 957.12 915.86 957.12 917.17 958.45 C923.14 964.39 929.42 969.75 936 975 C937.04 975.86 938.07 976.73 939.1 977.61 C946.73 984.08 954.64 990.15 962.61 996.19 C965.11 998.08 967.6 999.99 970.09 1001.89 C979.3 1008.94 988.55 1015.92 997.91 1022.78 C1003.63 1026.98 1009.32 1031.23 1015 1035.5 C1028.6 1045.72 1042.29 1055.83 1056.13 1065.74 C1059.83 1068.4 1063.47 1071.11 1067 1074 C1065.69 1078.39 1063.98 1082.01 1061.58 1085.9 C1060.89 1087.03 1060.2 1088.15 1059.49 1089.31 C1058.74 1090.52 1058 1091.73 1057.25 1092.94 C1056.48 1094.19 1055.71 1095.45 1054.94 1096.71 C1053.38 1099.26 1051.81 1101.81 1050.24 1104.35 C1047.63 1108.6 1045.05 1112.85 1042.46 1117.11 C1037.03 1126.06 1031.56 1134.98 1026.04 1143.87 C1022.34 1149.83 1018.67 1155.79 1015 1161.76 C1007.76 1173.56 1000.43 1185.31 993 1197 C991.9 1198.73 990.81 1200.45 989.71 1202.18 C987.37 1205.87 985.02 1209.56 982.67 1213.24 C980.22 1217.07 977.79 1220.91 975.36 1224.76 C967.48 1237.2 959.38 1249.48 951.12 1261.69 C950.4 1262.75 950.4 1262.75 949.67 1263.84 C934.58 1286.16 918.65 1307.82 902 1329 C901.02 1330.25 900.04 1331.5 899.06 1332.75 C896.82 1335.6 894.57 1338.46 892.33 1341.31 C890.51 1343.62 888.7 1345.93 886.88 1348.24 C885.96 1349.41 885.04 1350.58 884.12 1351.76 C881.85 1354.64 879.58 1357.53 877.32 1360.43 C871.3 1368.13 865.17 1375.75 858.99 1383.33 C856.64 1386.21 854.31 1389.1 852 1392 C848.03 1396.98 844.01 1401.9 839.99 1406.83 C836.42 1411.22 832.91 1415.66 829.44 1420.12 C825.27 1425.48 820.92 1430.63 816.48 1435.75 C813.05 1439.72 809.77 1443.79 806.56 1447.94 C802.13 1453.67 797.47 1459.15 792.7 1464.6 C788.8 1469.06 785.03 1473.6 781.3 1478.2 C777.13 1483.27 772.83 1488.23 768.55 1493.2 C766.03 1496.13 763.51 1499.07 761 1502 C760.51 1502.57 760.01 1503.15 759.51 1503.74 C756.97 1506.7 754.43 1509.67 751.89 1512.64 C746.67 1518.76 741.41 1524.82 736 1530.78 C734.19 1532.79 732.4 1534.83 730.62 1536.88 C727.17 1540.84 723.62 1544.7 720.05 1548.57 C717.43 1551.42 714.84 1554.31 712.31 1557.25 C709.43 1560.58 706.36 1563.69 703.19 1566.75 C701.37 1568.62 699.69 1570.51 698 1572.49 C693.48 1577.68 688.62 1582.52 683.75 1587.38 C682.77 1588.36 681.79 1589.34 680.81 1590.32 C678.77 1592.36 676.73 1594.41 674.69 1596.45 C672.09 1599.04 669.49 1601.64 666.9 1604.24 C664.88 1606.26 662.86 1608.28 660.83 1610.3 C659.42 1611.72 658 1613.13 656.59 1614.55 C652.1 1619.02 647.58 1623.37 642.75 1627.47 C639.5 1630.31 636.52 1633.42 633.5 1636.5 C629.09 1640.95 624.68 1645.29 619.89 1649.33 C616.58 1652.25 613.55 1655.45 610.45 1658.58 C607.69 1661.31 604.81 1663.84 601.86 1666.36 C599.42 1668.51 597.16 1670.83 594.88 1673.16 C593.06 1674.94 591.19 1676.61 589.27 1678.27 C585.17 1681.83 581.2 1685.52 577.25 1689.25 C568.12 1697.84 558.89 1706.31 549.56 1714.69 C546.69 1717.28 543.85 1719.89 541 1722.5 C534.41 1728.55 527.81 1734.57 521.06 1740.44 C517.83 1743.25 514.66 1746.12 511.5 1749 C507.71 1752.46 503.89 1755.87 500.02 1759.23 C497.71 1761.25 495.45 1763.31 493.19 1765.38 C489.77 1768.47 486.28 1771.42 482.69 1774.31 C478.47 1777.72 474.46 1781.29 470.5 1785 C465.77 1789.42 460.92 1793.61 455.87 1797.66 C452.58 1800.34 449.39 1803.1 446.19 1805.88 C439.86 1811.34 433.35 1816.52 426.75 1821.64 C423.82 1823.91 420.91 1826.21 418 1828.5 C416.83 1829.42 415.67 1830.33 414.5 1831.25 C412.16 1833.09 409.81 1834.94 407.46 1836.79 C399.69 1842.91 391.86 1848.98 384 1855 C383.38 1855.48 382.76 1855.95 382.12 1856.44 C377.08 1860.3 372.04 1864.15 367 1868 C366.16 1868.64 365.32 1869.29 364.45 1869.95 C353.64 1878.21 342.8 1886.43 331.91 1894.57 C329.98 1896.02 328.05 1897.47 326.12 1898.91 C318.23 1904.85 310.3 1910.73 302.35 1916.58 C296.54 1920.85 290.76 1925.17 285 1929.5 C276.16 1936.14 267.27 1942.72 258.36 1949.26 C255.98 1951.02 253.6 1952.77 251.22 1954.53 C241.18 1961.95 231.12 1969.36 220.94 1976.59 C219.64 1977.54 218.36 1978.51 217.11 1979.52 C212.69 1982.98 212.69 1982.98 209.42 1983.08 C206.3 1981.69 203.97 1979.9 201.31 1977.75 C200.16 1976.83 199 1975.91 197.84 1975 C196.91 1974.27 196.91 1974.27 195.96 1973.52 C192.5 1970.84 188.94 1968.3 185.38 1965.75 C176.66 1959.49 168.01 1953.14 159.38 1946.76 C157.03 1945.02 154.67 1943.29 152.32 1941.57 C143.06 1934.78 133.89 1927.88 124.77 1920.9 C119.16 1916.61 113.49 1912.42 107.75 1908.31 C99.81 1902.63 92.05 1896.74 84.32 1890.78 C79.95 1887.43 75.57 1884.09 71.19 1880.75 C69.84 1879.72 69.84 1879.72 68.46 1878.67 C62.91 1874.45 57.34 1870.25 51.75 1866.07 C47.01 1862.5 42.33 1858.88 37.64 1855.26 C36.02 1854.02 34.4 1852.77 32.78 1851.53 C25.4 1845.87 18.07 1840.14 10.76 1834.38 C9.03 1833.02 7.3 1831.67 5.57 1830.32 C-2.77 1823.8 -11 1817.17 -19.2 1810.47 C-20.78 1809.18 -22.37 1807.89 -23.96 1806.6 C-33.42 1798.92 -42.72 1791.05 -51.69 1782.81 C-55.12 1779.66 -58.61 1776.66 -62.25 1773.75 C-68.3 1768.87 -73.9 1763.56 -79.55 1758.23 C-82.68 1755.29 -85.87 1752.43 -89.12 1749.63 C-94.01 1745.39 -98.78 1741.01 -103.58 1736.67 C-107.3 1733.32 -111.02 1729.97 -114.81 1726.69 C-118.98 1723.06 -123.03 1719.3 -127.08 1715.55 C-131.18 1711.75 -135.32 1708 -139.48 1704.27 C-147.63 1696.93 -155.67 1689.47 -163.73 1682.02 C-165.87 1680.05 -168.01 1678.07 -170.15 1676.1 C-176.25 1670.49 -182.32 1664.85 -188.38 1659.19 C-189.03 1658.58 -189.68 1657.97 -190.36 1657.34 C-194.11 1653.82 -197.79 1650.24 -201.4 1646.57 C-203.04 1644.96 -204.74 1643.48 -206.5 1642 C-211.39 1637.8 -215.86 1633.19 -220.37 1628.59 C-223.35 1625.57 -226.35 1622.66 -229.59 1619.91 C-234.75 1615.42 -239.55 1610.59 -244.38 1605.75 C-245.36 1604.77 -246.34 1603.79 -247.32 1602.81 C-249.36 1600.77 -251.41 1598.73 -253.45 1596.69 C-256.04 1594.09 -258.64 1591.49 -261.24 1588.9 C-263.26 1586.88 -265.28 1584.86 -267.3 1582.83 C-268.72 1581.42 -270.13 1580 -271.55 1578.59 C-276.07 1574.05 -280.46 1569.47 -284.62 1564.6 C-286.32 1562.63 -288.13 1560.81 -290 1559 C-293.17 1555.87 -296.13 1552.63 -299.03 1549.25 C-300.96 1547.04 -302.95 1544.88 -304.95 1542.72 C-309.74 1537.56 -314.27 1532.27 -318.69 1526.78 C-321.2 1523.76 -323.82 1520.88 -326.5 1518 C-330.81 1513.37 -334.85 1508.58 -338.82 1503.65 C-340.98 1501.03 -343.21 1498.51 -345.5 1496 C-349.34 1491.78 -352.96 1487.42 -356.55 1482.98 C-359.32 1479.61 -362.15 1476.3 -365 1473 C-370.1 1467.08 -375.08 1461.07 -380 1455 C-385.32 1448.49 -390.65 1441.99 -396 1435.5 C-401.35 1429.01 -406.69 1422.52 -412 1416 C-412.48 1415.41 -412.97 1414.82 -413.46 1414.21 C-419.64 1406.65 -425.76 1399.06 -431.76 1391.36 C-435.45 1386.65 -439.25 1382.04 -443.06 1377.44 C-448.03 1371.44 -452.86 1365.37 -457.58 1359.17 C-460.17 1355.78 -462.8 1352.42 -465.44 1349.06 C-465.89 1348.48 -466.35 1347.9 -466.82 1347.3 C-468.21 1345.53 -469.61 1343.77 -471 1342 C-480.58 1329.84 -490.06 1317.61 -499.38 1305.25 C-499.95 1304.49 -500.53 1303.73 -501.12 1302.94 C-511.79 1288.75 -521.76 1274.05 -531.69 1259.33 C-533.56 1256.57 -535.44 1253.8 -537.31 1251.04 C-544.02 1241.12 -550.49 1231.1 -556.67 1220.85 C-559.42 1216.28 -562.31 1211.82 -565.25 1207.38 C-572.68 1196.03 -579.85 1184.52 -587 1173 C-587.56 1172.1 -588.12 1171.19 -588.7 1170.26 C-595.38 1159.52 -602 1148.74 -608.56 1137.93 C-612.31 1131.77 -616.08 1125.63 -619.87 1119.5 C-622.55 1115.15 -625.22 1110.8 -627.89 1106.44 C-629.35 1104.05 -630.82 1101.67 -632.3 1099.28 C-634.22 1096.17 -636.13 1093.05 -638.03 1089.93 C-638.75 1088.73 -639.49 1087.54 -640.23 1086.35 C-641.25 1084.71 -642.26 1083.04 -643.26 1081.38 C-644.13 1079.97 -644.13 1079.97 -645.01 1078.52 C-646 1076 -646 1076 -645.39 1073.83 C-643.91 1071.88 -642.54 1070.66 -640.54 1069.26 C-639.47 1068.51 -639.47 1068.51 -638.39 1067.74 C-637.62 1067.21 -636.85 1066.67 -636.06 1066.12 C-634.42 1064.96 -632.77 1063.8 -631.12 1062.63 C-630.28 1062.03 -629.43 1061.43 -628.55 1060.81 C-624.52 1057.95 -620.54 1055.01 -616.56 1052.06 C-614.97 1050.88 -613.37 1049.71 -611.78 1048.53 C-610.99 1047.94 -610.2 1047.36 -609.38 1046.76 C-607.03 1045.02 -604.67 1043.29 -602.32 1041.57 C-593.08 1034.8 -583.93 1027.93 -574.84 1020.97 C-569.05 1016.54 -563.2 1012.18 -557.31 1007.88 C-548.77 1001.62 -540.4 995.17 -532.08 988.63 C-530.1 987.08 -528.11 985.53 -526.11 983.99 C-520.03 979.28 -514.13 974.49 -508.48 969.27 C-506.44 967.4 -504.36 965.59 -502.27 963.78 C-497.69 959.78 -493.36 955.55 -489.06 951.25 C-488.27 950.46 -487.47 949.66 -486.66 948.84 C-481.82 943.96 -477.28 939.03 -473.05 933.61 C-471.16 931.2 -469.19 928.89 -467.18 926.58 C-448.62 905.15 -433.26 880.85 -418.6 856.65 C-417.5 854.83 -416.4 853.02 -415.29 851.21 C-387.07 805.07 -376.81 750.23 -365.44 697.94 C-365.19 696.79 -364.93 695.64 -364.68 694.46 C-364.45 693.41 -364.23 692.36 -364 691.28 C-363.8 690.37 -363.61 689.47 -363.41 688.53 C-362.99 685.92 -362.73 683.64 -363 681 C-365.25 679.09 -367.33 677.61 -369.81 676.06 C-371.29 675.1 -372.76 674.13 -374.23 673.16 C-375.01 672.65 -375.79 672.14 -376.59 671.61 C-380.69 668.87 -384.66 665.94 -388.62 663 C-389.43 662.4 -390.24 661.81 -391.07 661.19 C-417.39 641.62 -442.62 620.4 -465.88 597.25 C-466.58 596.55 -467.28 595.86 -468 595.14 C-472.54 590.59 -476.82 585.88 -481 581 C-481.97 579.88 -482.95 578.77 -483.92 577.65 C-490.34 570.24 -496.51 562.68 -502.51 554.92 C-504.11 552.86 -505.73 550.8 -507.34 548.75 C-513.41 541.04 -519.36 533.25 -525.12 525.31 C-525.66 524.58 -526.19 523.85 -526.74 523.1 C-529.79 518.86 -532.49 514.58 -535 510 C-526.54 508.14 -518.02 507 -509.43 505.9 C-506.75 505.56 -504.06 505.21 -501.38 504.86 C-497.5 504.35 -493.63 503.85 -489.75 503.35 C-458.77 499.33 -427.81 495.24 -396.88 490.87 C-393.73 490.42 -390.58 489.98 -387.43 489.54 C-370.76 487.23 -354.18 484.6 -337.66 481.39 C-336.91 481.24 -336.17 481.1 -335.4 480.95 C-299.24 473.9 -264.76 461.95 -231.5 446.19 C-230.56 445.74 -229.63 445.3 -228.66 444.84 C-223.75 442.47 -219.11 439.94 -214.58 436.91 C-213 436 -213 436 -211 436 C-211.21 435.12 -211.21 435.12 -211.43 434.22 C-214.21 422.53 -216.86 410.98 -218 399 C-218.13 397.64 -218.13 397.64 -218.26 396.26 C-219.04 387.31 -219.2 378.41 -219.19 369.44 C-219.19 368.67 -219.19 367.89 -219.19 367.1 C-218.99 272.88 -192.74 178.62 -121 84 C-119.77 82.49 -119.77 82.49 -118.52 80.95 C-112.21 73.31 -105.42 66.21 -98.44 59.19 C-97.14 57.88 -97.14 57.88 -95.83 56.55 C-89.86 50.61 -83.61 45.2 -77 40 C-76.36 39.5 -75.72 38.99 -75.07 38.48 C-23.94 -1.14 -23.94 -1.14 0 0 Z " fill="#000000" transform="translate(647,1)"/>
<path d="M0 0 C6.8 1.38 13.21 3.3 19.75 5.6 C20.77 5.95 21.79 6.3 22.84 6.67 C24.99 7.42 27.14 8.17 29.3 8.92 C32.5 10.04 35.71 11.15 38.91 12.26 C41.03 13 43.14 13.74 45.25 14.47 C46.17 14.79 47.09 15.11 48.04 15.44 C59.43 19.43 70.71 23.74 82 28 C82 28.55 82 29.11 82 29.68 C81.97 43.27 81.96 56.87 81.95 70.46 C81.94 77.04 81.94 83.61 81.92 90.19 C81.91 96.55 81.91 102.92 81.91 109.29 C81.9 111.7 81.9 114.1 81.89 116.51 C81.86 131.06 82.14 145.57 82.76 160.11 C83.05 167.05 83.22 173.99 83.35 180.94 C83.43 184.72 83.51 188.49 83.6 192.26 C83.61 193.05 83.63 193.84 83.65 194.66 C84.29 223.56 85.23 252.43 86.81 281.3 C86.93 283.57 87.06 285.84 87.18 288.11 C88.26 308.23 89.77 328.3 91.52 348.38 C91.92 352.97 92.29 357.57 92.64 362.17 C94.88 389.77 100.12 417.22 107 444 C107.45 445.82 107.9 447.65 108.36 449.47 C115.73 478.48 126.28 506.58 138.15 534.02 C138.98 535.95 139.8 537.87 140.63 539.8 C152.76 568.04 166.89 595.01 182.92 621.23 C184.1 623.16 185.27 625.11 186.44 627.06 C193.04 638 199.97 648.69 207.08 659.31 C208.87 661.99 210.66 664.68 212.44 667.37 C219.62 678.13 227 688.72 234.65 699.15 C236.41 701.56 238.16 703.97 239.91 706.39 C246.63 715.58 253.53 724.58 260.72 733.42 C262.52 735.64 264.29 737.88 266.06 740.12 C269.58 744.53 273.21 748.82 276.86 753.11 C279.79 756.56 282.66 760.04 285.5 763.56 C289.56 768.55 293.85 773.28 298.23 777.98 C300.33 780.25 302.38 782.56 304.41 784.9 C314.76 796.78 325.87 807.97 337 819.12 C337.54 819.66 338.07 820.2 338.62 820.76 C344.03 826.18 349.45 831.54 355.28 836.52 C357.86 838.74 360.33 841.06 362.81 843.38 C367.38 847.59 372.07 851.61 376.92 855.51 C379.23 857.38 381.52 859.27 383.8 861.18 C394.22 869.9 404.96 878.08 416 886 C416.81 886.58 417.62 887.17 418.45 887.77 C438.13 901.91 458.71 914.43 480 926 C480.83 926.46 481.66 926.92 482.52 927.39 C484.79 928.63 487.07 929.82 489.38 931 C490.02 931.36 490.67 931.71 491.33 932.08 C495.03 933.89 497.51 934.18 501.34 932.99 C502.91 932.36 504.46 931.7 506 931 C506.8 930.64 507.6 930.29 508.42 929.92 C511.04 928.7 513.61 927.43 516.19 926.12 C517.14 925.64 518.09 925.16 519.08 924.67 C547.51 910.11 574.2 891.93 599.35 872.29 C601.04 870.97 602.74 869.66 604.43 868.35 C615.9 859.46 626.86 850.05 637.54 840.24 C639.75 838.23 641.99 836.26 644.25 834.31 C647.4 831.58 650.32 828.7 653.24 825.73 C654.98 824.02 656.77 822.45 658.62 820.88 C666.78 813.83 674.42 806.04 681.39 797.82 C683.18 795.79 685.07 793.9 687 792 C690.21 788.83 693.22 785.54 696.16 782.12 C698.2 779.78 700.28 777.48 702.38 775.19 C706.25 770.89 709.92 766.47 713.56 761.97 C716.28 758.66 719.07 755.43 721.88 752.19 C727.29 745.91 732.44 739.47 737.51 732.92 C739.11 730.86 740.73 728.8 742.34 726.75 C749.97 717.05 757.33 707.19 764.48 697.14 C765.88 695.17 767.29 693.21 768.71 691.25 C784.35 669.49 799.27 647.02 813 624 C813.56 623.07 814.11 622.14 814.68 621.18 C847.9 565.37 874.78 506.02 891 443 C891.43 441.38 891.43 441.38 891.86 439.72 C912.02 362.08 911.26 278.64 913.84 198.95 C913.97 194.92 914.1 190.88 914.24 186.84 C916.03 133.89 916.25 80.98 916 28 C934.69 21 953.37 14.01 972.27 7.61 C975.12 6.65 977.96 5.67 980.8 4.7 C982.64 4.07 984.48 3.45 986.31 2.82 C987.15 2.54 987.99 2.25 988.85 1.95 C994.65 0 994.65 0 998 0 C998.03 0.82 998.07 1.63 998.1 2.47 C999.57 35.23 1002.63 67.99 1010 100 C1010.22 101 1010.45 102.01 1010.67 103.04 C1014.29 119.29 1018.83 135.17 1024 151 C1024.37 152.14 1024.74 153.28 1025.12 154.45 C1034.43 182.78 1045.45 210.42 1059 237 C1059.64 238.27 1059.64 238.27 1060.3 239.57 C1071.67 261.82 1086.16 282.72 1102 302 C1102.49 302.6 1102.98 303.2 1103.49 303.82 C1116.14 319.21 1129.8 334.46 1145.06 347.34 C1147.53 349.46 1149.92 351.67 1152.31 353.88 C1156.8 357.97 1161.41 361.85 1166.14 365.67 C1168.64 367.7 1171.09 369.78 1173.54 371.88 C1179.71 377.19 1186.08 382.18 1192.57 387.09 C1197.23 390.63 1201.83 394.25 1206.38 397.94 C1215.87 405.6 1225.75 412.73 1235.62 419.9 C1237.36 421.17 1239.11 422.45 1240.85 423.72 C1242.49 424.92 1244.13 426.11 1245.77 427.29 C1246.51 427.84 1247.26 428.38 1248.02 428.94 C1248.67 429.41 1249.32 429.88 1249.99 430.37 C1252.51 432.41 1254.74 434.68 1257 437 C1227.97 481.3 1227.97 481.3 1217.36 496.35 C1212.66 503.01 1208.13 509.77 1203.62 516.56 C1198.76 523.9 1193.84 531.15 1188.68 538.27 C1185.11 543.21 1181.66 548.24 1178.19 553.25 C1171.76 562.52 1165.22 571.7 1158.58 580.82 C1156.96 583.06 1155.34 585.3 1153.73 587.55 C1142.09 603.74 1130.04 619.61 1117.94 635.45 C1116.12 637.84 1114.3 640.23 1112.48 642.62 C1107.02 649.78 1101.53 656.91 1095.95 663.98 C1092.97 667.75 1090.04 671.55 1087.12 675.38 C1082.82 681 1078.37 686.5 1073.89 691.98 C1070.35 696.32 1066.87 700.7 1063.44 705.12 C1059.22 710.54 1054.83 715.77 1050.34 720.96 C1047.34 724.43 1044.39 727.94 1041.5 731.5 C1036.63 737.49 1031.6 743.34 1026.56 749.19 C1025.01 750.99 1023.46 752.8 1021.92 754.62 C1016.46 761.03 1010.92 767.35 1005.23 773.56 C1003.31 775.66 1001.43 777.79 999.56 779.94 C996.17 783.84 992.68 787.64 989.18 791.44 C986.33 794.55 983.5 797.67 980.69 800.81 C975.17 806.96 969.51 812.98 963.86 819.01 C961.98 821.02 960.11 823.03 958.23 825.05 C957.62 825.71 957 826.37 956.37 827.06 C955.21 828.31 954.04 829.56 952.88 830.81 C950.15 833.75 947.38 836.62 944.53 839.44 C942.13 841.81 939.88 844.25 937.69 846.81 C932.59 852.72 926.94 858.1 921.38 863.58 C916.98 867.94 912.74 872.36 908.71 877.07 C905.65 880.53 902.35 883.75 899.06 887 C898.38 887.68 897.69 888.36 896.99 889.06 C895.33 890.71 893.67 892.36 892 894 C888.2 889.42 884.83 884.57 881.44 879.69 C880.82 878.8 880.2 877.91 879.56 876.99 C876.27 872.28 873 867.55 869.75 862.8 C854.87 841.02 839.18 819.93 822.09 799.84 C819.16 796.39 816.28 792.9 813.44 789.38 C809.62 784.68 805.6 780.23 801.5 775.79 C798.15 772.05 795.02 768.15 791.91 764.21 C790.01 761.82 790.01 761.82 787 760 C787.27 760.78 787.55 761.55 787.83 762.35 C795.18 783.34 801.64 804.57 807.73 825.95 C808.31 828 808.9 830.05 809.49 832.1 C810.61 835.98 811.71 839.87 812.8 843.75 C813.31 845.52 813.31 845.52 813.83 847.32 C814.13 848.4 814.43 849.49 814.74 850.61 C815.01 851.56 815.28 852.51 815.56 853.48 C816.02 856.11 815.96 857.54 815 860 C813.09 861.99 813.09 861.99 810.6 864.09 C804.93 869.02 799.65 874.27 794.38 879.62 C789.03 885.04 783.7 890.35 777.92 895.31 C774.45 898.37 771.24 901.7 768 905 C763.42 909.67 758.77 914.14 753.81 918.41 C751.43 920.5 749.21 922.73 747 925 C743.52 928.57 739.89 931.86 736.13 935.13 C732.54 938.28 729.09 941.58 725.62 944.88 C710.1 959.54 710.1 959.54 701.81 966.19 C696.48 970.49 691.53 975.14 686.55 979.84 C682.11 984.02 677.51 987.92 672.74 991.73 C669.55 994.37 666.53 997.17 663.5 1000 C659.63 1003.63 655.71 1007.12 651.56 1010.44 C645.87 1015.01 640.58 1019.96 635.26 1024.96 C631.59 1028.4 627.83 1031.73 624 1035 C627.75 1039.1 632.16 1042.19 636.62 1045.44 C637.89 1046.36 637.89 1046.36 639.17 1047.3 C649.39 1054.77 659.64 1062.19 669.95 1069.53 C671.17 1070.4 671.17 1070.4 672.42 1071.29 C673.97 1072.4 675.52 1073.5 677.08 1074.6 C681.09 1077.47 684.63 1080.4 688 1084 C682.29 1089.33 676.59 1094.6 670.5 1099.5 C666.52 1102.7 662.73 1106.03 659 1109.5 C654.47 1113.7 649.83 1117.7 645.02 1121.57 C642.79 1123.36 640.59 1125.17 638.39 1126.99 C629.28 1134.52 619.89 1141.55 610.26 1148.39 C608.05 1149.96 605.86 1151.55 603.67 1153.14 C586.72 1165.48 569.52 1177.48 552 1189 C545 1185.34 538.62 1181.07 532.19 1176.5 C524.44 1171.07 516.69 1165.67 508.81 1160.44 C507.98 1159.87 507.15 1159.31 506.3 1158.72 C505.52 1158.21 504.75 1157.71 503.96 1157.18 C502.95 1156.51 502.95 1156.51 501.93 1155.83 C499.45 1154.77 498.48 1155.02 496 1156 C494.01 1157.09 494.01 1157.09 492 1158.49 C491.21 1159.02 490.42 1159.56 489.6 1160.1 C488.74 1160.69 487.88 1161.27 487 1161.88 C486.1 1162.48 485.2 1163.08 484.27 1163.7 C479.3 1167.04 474.37 1170.43 469.47 1173.89 C466.94 1175.66 464.41 1177.43 461.87 1179.19 C460.63 1180.06 459.38 1180.94 458.15 1181.83 C456.4 1183.08 454.64 1184.31 452.88 1185.53 C451.86 1186.25 450.85 1186.97 449.8 1187.71 C447 1189 447 1189 444.35 1188.36 C442.36 1187.21 440.46 1186.08 438.6 1184.74 C437.97 1184.29 437.34 1183.84 436.69 1183.37 C436.01 1182.88 435.33 1182.38 434.62 1181.88 C433.11 1180.79 431.59 1179.7 430.07 1178.61 C429.25 1178.03 428.44 1177.45 427.6 1176.85 C422.95 1173.54 418.25 1170.31 413.56 1167.06 C391.9 1152.01 370.37 1136.71 350.51 1119.31 C348.14 1117.25 345.69 1115.29 343.25 1113.31 C338.82 1109.71 334.55 1105.96 330.33 1102.12 C328.24 1100.22 326.13 1098.35 324 1096.5 C322.67 1095.33 321.33 1094.17 320 1093 C319.1 1092.22 318.21 1091.44 317.28 1090.64 C316.36 1089.83 315.45 1089.02 314.5 1088.19 C313.64 1087.44 312.79 1086.69 311.91 1085.92 C310 1084 310 1084 310 1082 C311.54 1080.74 311.54 1080.74 313.7 1079.31 C314.49 1078.78 315.28 1078.25 316.09 1077.71 C316.95 1077.15 317.81 1076.58 318.69 1076 C325.63 1071.34 332.33 1066.54 338.91 1061.38 C342.13 1058.9 345.42 1056.53 348.75 1054.19 C357.01 1048.36 365 1042.18 373 1036 C371.09 1031.73 368.12 1029.3 364.56 1026.38 C363.29 1025.3 362.01 1024.23 360.73 1023.16 C360.1 1022.63 359.47 1022.1 358.81 1021.55 C356.25 1019.36 353.79 1017.1 351.31 1014.81 C347.84 1011.62 344.3 1008.58 340.62 1005.62 C335.19 1001.24 330.09 996.54 324.98 991.77 C320.38 987.48 315.62 983.38 310.82 979.3 C304.49 973.9 298.23 968.44 292.12 962.79 C289.47 960.34 286.79 957.92 284.06 955.56 C279.4 951.52 274.9 947.32 270.38 943.12 C268.19 941.09 265.99 939.07 263.78 937.06 C258.68 932.42 253.68 927.73 248.84 922.81 C247.04 921.04 245.18 919.39 243.25 917.75 C239.14 914.22 235.34 910.41 231.56 906.53 C228.86 903.78 226.1 901.19 223.18 898.68 C218.62 894.73 214.41 890.48 210.19 886.19 C208.7 884.68 207.22 883.17 205.73 881.67 C204.76 880.68 204.76 880.68 203.77 879.68 C201.9 877.81 201.9 877.81 199 876 C199 875.34 199 874.68 199 874 C198.41 873.73 197.81 873.45 197.2 873.17 C193.68 871.3 191.05 868.62 188.19 865.88 C187.58 865.33 186.97 864.79 186.34 864.23 C185.77 863.67 185.19 863.12 184.61 862.55 C183.82 861.82 183.82 861.82 183.02 861.07 C180.03 855 184.43 845.36 186.18 839.27 C186.66 837.57 186.66 837.57 187.15 835.84 C188.2 832.16 189.25 828.49 190.31 824.81 C190.67 823.57 191.03 822.32 191.39 821.04 C197.46 799.87 203.95 778.86 211 758 C206.76 762.83 202.55 767.68 198.38 772.56 C194.08 777.58 189.77 782.58 185.44 787.56 C165.84 810.16 147.94 833.71 130.88 858.29 C128.85 861.22 126.81 864.14 124.77 867.06 C123.35 869.1 121.92 871.14 120.5 873.19 C119.84 874.13 119.18 875.08 118.5 876.05 C114.6 881.65 110.76 887.3 107 893 C104.11 891.69 102.05 890.3 99.81 888.05 C99.21 887.46 98.62 886.86 98 886.25 C97.36 885.61 96.73 884.97 96.07 884.3 C95.41 883.64 94.74 882.97 94.06 882.29 C92.65 880.87 91.24 879.46 89.84 878.04 C87.71 875.9 85.58 873.76 83.44 871.62 C82.07 870.25 80.7 868.87 79.32 867.49 C78.69 866.86 78.07 866.23 77.42 865.58 C73.66 861.79 70.09 857.89 66.62 853.83 C63.89 850.74 60.94 847.88 58 845 C53.72 840.77 49.59 836.52 45.7 831.92 C42.84 828.69 39.72 825.7 36.62 822.69 C33.92 819.92 31.4 817.05 28.87 814.13 C25.72 810.54 22.42 807.09 19.12 803.62 C13.33 797.49 7.61 791.31 2 785 C0.46 783.29 -1.08 781.58 -2.62 779.88 C-10.02 771.65 -17.22 763.26 -24.42 754.85 C-25.96 753.05 -27.51 751.24 -29.05 749.44 C-47.47 728 -47.47 728 -54.72 718.84 C-57.71 715.11 -60.76 711.43 -63.81 707.75 C-68.59 701.97 -73.28 696.15 -77.89 690.23 C-81.34 685.81 -84.88 681.46 -88.44 677.12 C-93.33 671.15 -98.02 665.05 -102.63 658.85 C-105.77 654.62 -108.98 650.44 -112.25 646.31 C-128.54 625.72 -144.05 604.55 -159.38 583.24 C-161.02 580.97 -162.67 578.7 -164.32 576.43 C-170.33 568.15 -176.24 559.81 -182.01 551.36 C-184.85 547.21 -187.72 543.08 -190.6 538.96 C-199.85 525.72 -208.95 512.38 -218 499 C-218.73 497.93 -218.73 497.93 -219.47 496.83 C-223.29 491.18 -227.12 485.53 -230.94 479.88 C-231.73 478.71 -231.73 478.71 -232.53 477.52 C-238.3 468.99 -244.05 460.46 -249.74 451.88 C-252.46 447.8 -255.22 443.75 -258.04 439.73 C-259 438 -259 438 -259 435 C-257.1 433.42 -255.24 432.06 -253.19 430.69 C-251.89 429.79 -250.6 428.9 -249.31 428 C-248.62 427.52 -247.92 427.04 -247.2 426.54 C-243.31 423.82 -239.5 421 -235.69 418.19 C-234.88 417.6 -234.08 417 -233.25 416.39 C-211.85 400.56 -190.82 384.16 -170.57 366.87 C-167.35 364.12 -164.07 361.45 -160.75 358.81 C-154.25 353.52 -148.24 347.72 -142.17 341.95 C-139.11 339.04 -136.02 336.19 -132.89 333.37 C-128.57 329.47 -124.5 325.53 -120.76 321.07 C-118.66 318.6 -116.46 316.25 -114.25 313.88 C-108.47 307.52 -103.22 300.82 -98 294 C-97.51 293.37 -97.02 292.74 -96.52 292.09 C-81.13 272.16 -67.88 250.73 -56.98 228.01 C-56 225.99 -54.98 223.98 -53.96 221.98 C-27.12 168.23 -10.68 107.44 -4 48 C-3.89 47.06 -3.78 46.12 -3.67 45.15 C-1.97 30.14 -1.02 15.07 0 0 Z " fill="#FEFEFE" transform="translate(359,666)"/>
<path d="M0 0 C42.53 25.45 66.23 84.3 78 130 C88.83 175.28 92.46 221.4 81 267 C80.73 268.09 80.46 269.18 80.18 270.3 C63.34 337.81 32.68 402.96 -10 458 C-10.45 458.58 -10.9 459.17 -11.36 459.77 C-18.52 469.04 -25.96 478.07 -33.43 487.09 C-35.52 489.64 -37.61 492.19 -39.69 494.75 C-47.19 503.93 -54.92 512.92 -62.66 521.9 C-65.7 525.45 -68.68 529.05 -71.62 532.69 C-75.47 537.43 -79.52 541.94 -83.65 546.44 C-86.83 549.91 -89.92 553.45 -93 557 C-94.31 558.5 -95.62 560 -96.94 561.5 C-97.52 562.17 -98.11 562.84 -98.71 563.53 C-99.14 564.02 -99.56 564.5 -100 565 C-96.22 563.26 -92.82 561 -89.38 558.69 C-88.72 558.25 -88.07 557.81 -87.4 557.36 C-69.19 545.08 -51.62 531.84 -34.96 517.53 C-32.06 515.05 -29.1 512.64 -26.12 510.25 C-22.46 507.27 -19.05 504.19 -15.78 500.78 C-14.03 499.03 -12.21 497.42 -10.33 495.82 C-5.84 491.92 -1.63 487.78 2.56 483.56 C3.64 482.49 3.64 482.49 4.73 481.4 C8.81 477.32 12.7 473.15 16.47 468.78 C18.39 466.54 20.38 464.37 22.38 462.19 C26.64 457.46 30.69 452.58 34.69 447.62 C36.16 445.8 37.65 443.98 39.14 442.17 C45.17 434.81 51.09 427.4 56.72 419.73 C58.2 417.73 59.69 415.73 61.17 413.74 C73.25 397.48 84.87 380.92 96 364 C99.16 364.64 101.55 365.74 104.32 367.37 C105.15 367.86 105.99 368.34 106.85 368.85 C107.75 369.37 108.64 369.9 109.56 370.44 C183.76 413.24 265.63 425.46 350 432 C345.98 436.29 341.59 439.66 336.81 443.06 C336.02 443.63 335.23 444.19 334.42 444.78 C301.89 467.91 267.34 486.39 230.62 501.94 C229.77 502.3 228.92 502.66 228.05 503.03 C208.43 511.35 188.62 519.17 168.78 526.92 C164.11 528.74 159.45 530.57 154.78 532.4 C139.04 538.58 123.28 544.74 107.5 550.83 C53.42 571.72 -0.59 592.64 -50.48 622.51 C-53.94 624.56 -57.47 626.5 -61 628.44 C-77.16 637.4 -92.77 647.54 -108 658 C-108.74 658.5 -109.47 659.01 -110.23 659.52 C-122.62 668.01 -134.63 676.92 -146.52 686.1 C-148.86 687.89 -151.21 689.67 -153.57 691.45 C-161.86 697.68 -169.81 704.16 -177.59 711.02 C-180.49 713.58 -183.47 716.02 -186.5 718.44 C-199.65 729.09 -212.02 741.13 -223 754 C-223.92 755.05 -224.83 756.1 -225.75 757.16 C-232 764.35 -237.94 771.69 -243.69 779.29 C-246.14 782.49 -248.63 785.65 -251.12 788.81 C-251.61 789.43 -252.1 790.05 -252.6 790.68 C-253.73 792.12 -254.87 793.56 -256 795 C-259.28 791.88 -262.03 788.48 -264.75 784.88 C-265.64 783.71 -266.53 782.54 -267.43 781.37 C-267.86 780.79 -268.3 780.22 -268.75 779.63 C-277.29 768.49 -286.38 757.77 -295.82 747.4 C-297.3 745.77 -298.76 744.13 -300.21 742.48 C-305.44 736.51 -311.03 731.22 -317 726 C-318.65 724.5 -320.29 723 -321.94 721.5 C-327.14 716.81 -332.55 712.4 -338 708 C-339.77 706.54 -341.54 705.08 -343.31 703.62 C-354.97 694.1 -366.89 684.94 -379 676 C-379.7 675.48 -380.4 674.96 -381.12 674.43 C-399.81 660.67 -419.18 648.05 -439 636 C-439.98 635.4 -440.96 634.8 -441.97 634.18 C-456.11 625.54 -470.42 617.3 -485.07 609.55 C-487.95 608.02 -490.83 606.49 -493.7 604.95 C-534.36 583.3 -577.6 567.27 -620.5 550.72 C-709.62 516.34 -709.62 516.34 -752 498 C-753.2 497.49 -754.4 496.97 -755.63 496.44 C-788.83 482.14 -820.1 464.77 -849 443 C-850 442.25 -850 442.25 -851.02 441.48 C-858.78 435.67 -858.78 435.67 -862 433 C-862 432.67 -862 432.34 -862 432 C-861.03 431.91 -860.06 431.82 -859.06 431.73 C-775.05 423.9 -684.73 414.62 -613.36 365.1 C-611 364 -611 364 -608.89 364.5 C-606.52 366.38 -605.23 368.3 -603.62 370.88 C-588.16 394.85 -570.95 417.83 -553 440 C-552.32 440.85 -551.63 441.7 -550.93 442.57 C-546.72 447.75 -542.45 452.86 -538.12 457.94 C-537.46 458.72 -537.46 458.72 -536.78 459.53 C-528.24 469.48 -519.22 478.95 -509.93 488.2 C-508.3 489.83 -506.68 491.45 -505.05 493.08 C-499.54 498.6 -493.96 503.96 -488 509 C-486.88 509.97 -485.76 510.95 -484.65 511.92 C-476.62 518.87 -468.43 525.55 -460 532 C-459.26 532.57 -458.52 533.13 -457.76 533.71 C-448.36 540.88 -438.86 547.89 -429.19 554.69 C-427.96 555.55 -427.96 555.55 -426.71 556.43 C-422.25 559.54 -417.76 562.39 -413 565 C-421.24 555.31 -421.24 555.31 -429.69 545.81 C-433.54 541.57 -437.15 537.17 -440.75 532.72 C-442.94 530.08 -445.19 527.53 -447.5 525 C-451.34 520.78 -454.96 516.42 -458.55 511.98 C-461.32 508.61 -464.15 505.3 -467 502 C-472.1 496.08 -477.09 490.08 -482 484 C-482.96 482.81 -482.96 482.81 -483.95 481.59 C-485.97 479.07 -487.99 476.53 -490 474 C-490.8 473 -491.6 472 -492.42 470.96 C-504.7 455.48 -516.61 439.83 -527 423 C-527.37 422.41 -527.73 421.82 -528.11 421.21 C-530.82 416.85 -533.43 412.44 -536 408 C-536.51 407.11 -537.03 406.23 -537.56 405.31 C-585.54 322.17 -614.99 227.51 -591 132 C-578.2 84.33 -556.67 33.07 -516.72 1.79 C-514.4 0.72 -513.37 1.13 -511 2 C-509.36 4.44 -507.95 6.8 -506.56 9.38 C-495.76 28.52 -482.78 46.12 -467.71 62.1 C-465.52 64.44 -463.4 66.81 -461.31 69.25 C-455.74 75.68 -449.65 81.56 -443.2 87.09 C-438.72 90.98 -434.37 95 -430 99 C-431.54 102.29 -433.41 105.21 -435.45 108.22 C-436.47 109.74 -436.47 109.74 -437.52 111.3 C-438.94 113.4 -440.37 115.51 -441.79 117.61 C-448.48 127.54 -454.87 137.43 -459.06 148.69 C-459.39 149.57 -459.72 150.44 -460.06 151.35 C-464.03 162.31 -466.66 173.6 -469 185 C-469.15 185.7 -469.29 186.39 -469.45 187.11 C-477.1 225.08 -466.71 268.06 -454 304 C-446.12 302.02 -438.95 298.84 -431.68 295.29 C-429.84 294.39 -427.99 293.5 -426.14 292.62 C-411.78 285.7 -398.47 277.17 -385.25 268.31 C-384.6 267.88 -383.96 267.45 -383.29 267 C-364.46 254.41 -346.45 240.84 -328.97 226.44 C-326.73 224.6 -324.48 222.76 -322.22 220.94 C-315.28 215.32 -308.38 209.67 -301.58 203.88 C-298.29 201.08 -294.98 198.34 -291.62 195.62 C-285.94 190.99 -280.41 186.19 -274.88 181.38 C-270.96 177.96 -267.01 174.57 -263.06 171.19 C-262.45 170.67 -261.84 170.14 -261.22 169.61 C-259.81 168.4 -258.41 167.2 -257 166 C-253.13 168.48 -249.67 171.06 -246.31 174.19 C-242.89 177.32 -239.42 180.33 -235.81 183.25 C-231.29 186.91 -226.88 190.68 -222.5 194.5 C-217.4 198.94 -212.25 203.31 -207 207.57 C-204.67 209.46 -202.35 211.36 -200.04 213.28 C-191.74 220.15 -183.38 226.93 -174.87 233.54 C-172.83 235.13 -170.8 236.73 -168.76 238.34 C-153.72 250.16 -138.37 261.38 -122.19 271.61 C-119.91 273.06 -117.65 274.53 -115.38 276 C-97.07 287.84 -78.24 296.92 -58 305 C-51.39 281.02 -51.39 281.02 -45.69 256.81 C-45.54 256.15 -45.39 255.48 -45.24 254.79 C-42.45 241.31 -41.62 227.91 -41.69 214.19 C-41.69 213.4 -41.69 212.61 -41.69 211.8 C-41.74 199.96 -42.26 188.57 -45 177 C-45.17 176.25 -45.33 175.49 -45.5 174.72 C-50.92 150.42 -61.4 129.59 -76.07 109.62 C-78.57 106.18 -80.67 103.09 -82 99 C-80.84 97.81 -79.67 96.62 -78.5 95.44 C-77.53 94.45 -77.53 94.45 -76.53 93.43 C-74.55 91.53 -72.55 89.74 -70.46 87.96 C-65.3 83.47 -60.47 78.66 -55.64 73.82 C-54.07 72.26 -52.5 70.71 -50.93 69.16 C-44.5 62.76 -38.62 56.13 -33 49 C-32.06 47.85 -31.12 46.71 -30.17 45.57 C-18.71 31.35 -9.22 15.73 0 0 Z " fill="#FEFEFE" transform="translate(1114,124)"/>
<path d="M0 0 C6.09 1.16 11.65 3.36 17.44 5.56 C18.06 5.8 18.69 6.04 19.33 6.28 C58.41 21.18 96.47 38.59 134 57 C135.06 57.52 136.12 58.03 137.21 58.57 C168.16 73.65 197.91 91.08 226 111 C226.77 111.55 227.55 112.1 228.34 112.66 C238.06 119.57 247.61 126.65 257 134 C258.12 134.87 259.23 135.74 260.35 136.61 C276.6 149.28 292.57 162.33 308 176 C308.71 176.62 309.42 177.25 310.15 177.89 C316.37 183.42 322.33 189.17 328.2 195.07 C329.69 196.57 331.19 198.06 332.7 199.56 C338.01 204.87 343.17 210.25 348 216 C348.54 216.63 349.07 217.27 349.62 217.92 C351.24 219.85 352.84 221.8 354.44 223.75 C354.96 224.38 355.48 225 356.02 225.65 C357.72 227.73 359.36 229.86 361 232 C362.07 233.32 362.07 233.32 363.16 234.67 C369.15 242.66 370.15 249.02 370 258.81 C370.01 260.28 370.02 261.74 370.03 263.2 C370.06 266.52 370.05 269.84 370.03 273.15 C369.99 279.94 370.01 286.73 370.04 293.52 C370.07 307.02 370.05 320.51 370 334 C360.36 334.22 351.18 333.66 341.62 332.31 C339.67 332.04 339.67 332.04 337.67 331.76 C312.38 328.18 288.02 321.76 263.94 313.25 C263.15 312.98 262.37 312.71 261.56 312.43 C256.39 310.53 256.39 310.53 254.81 308.38 C253.68 305.06 253.66 301.81 253.57 298.34 C253.5 296.81 253.42 295.28 253.34 293.74 C253.23 291.35 253.13 288.96 253.08 286.56 C252.82 275.2 252.82 275.2 246.75 266.01 C244.26 263.86 241.67 261.93 239 260 C237.67 258.85 236.36 257.69 235.06 256.5 C230.55 252.58 225.98 248.73 221.41 244.88 C219.22 243.04 217.04 241.18 214.87 239.3 C206.86 232.41 198.56 225.95 190.12 219.6 C188.13 218.1 186.15 216.58 184.17 215.07 C167.46 202.34 150.14 190.53 132.3 179.44 C125.81 175.38 119.42 171.17 113 167 C113.67 184.43 114.99 201.8 116.38 219.19 C116.49 220.63 116.6 222.07 116.72 223.52 C117.18 229.24 117.63 234.96 118.09 240.68 C118.6 246.95 119.1 253.23 119.56 259.5 C126.49 353 144.52 445.93 203 539 C203.5 539.75 204.01 540.5 204.53 541.28 C212.44 553.03 220.64 564.56 229 576 C229.84 577.16 229.84 577.16 230.71 578.34 C238.8 589.45 247.1 600.39 255.6 611.2 C257.09 613.11 258.54 615.05 260 617 C259.86 607.12 259.71 597.25 259.56 587.38 C259.55 586.64 259.54 585.9 259.53 585.14 C259.24 565.57 258.9 546.01 258.44 526.44 C258.09 511.62 257.86 496.82 258 482 C257.29 481.87 256.58 481.75 255.85 481.62 C252.9 480.98 250.18 480.09 247.34 479.07 C246.23 478.67 245.12 478.27 243.98 477.86 C242.79 477.43 241.6 477.01 240.38 476.56 C239.14 476.12 237.91 475.67 236.63 475.22 C233.4 474.05 230.16 472.87 226.92 471.7 C225.05 471.02 223.18 470.34 221.3 469.66 C199.02 461.58 199.02 461.58 188.5 457.19 C187.29 456.69 186.09 456.18 184.84 455.67 C178.17 451.75 176.4 442.6 173.88 435.69 C173.63 435.03 173.39 434.37 173.15 433.69 C160.43 398.75 153.45 362.82 147.56 326.19 C147.38 325.07 147.2 323.95 147.02 322.8 C146.51 319.61 146 316.42 145.5 313.23 C145.35 312.27 145.2 311.31 145.04 310.32 C144.9 309.43 144.77 308.54 144.62 307.62 C144.5 306.84 144.38 306.07 144.26 305.27 C143.98 302.83 143.96 300.45 144 298 C147.38 298.7 150.25 299.96 153.36 301.45 C154.98 302.22 154.98 302.22 156.63 303 C157.8 303.56 158.98 304.11 160.19 304.69 C184.96 316.33 210.15 326.96 236 336 C237.07 336.38 238.14 336.76 239.24 337.15 C267.61 347.15 297.12 352.84 326.62 358.38 C327.49 358.54 328.36 358.7 329.25 358.87 C342.47 361.35 355.65 363.18 369 365 C369 524.39 369 683.78 369 848 C363.22 844.79 358.11 841.81 352.94 837.88 C347.79 834.02 342.57 830.3 337.25 826.69 C317.05 812.93 297.65 797.96 278.77 782.45 C277.16 781.13 275.53 779.81 273.91 778.5 C268.66 774.26 263.57 769.9 258.59 765.35 C257.01 763.92 255.43 762.49 253.83 761.09 C246.84 754.92 240.24 748.4 233.67 741.8 C231.81 739.93 229.94 738.07 228.08 736.22 C222.71 730.85 217.39 725.5 212.47 719.72 C209.96 716.78 207.28 714 204.62 711.19 C199.9 706.14 195.42 700.97 191.1 695.57 C189.02 693.02 186.85 690.6 184.62 688.19 C179.63 682.69 175.08 676.86 170.54 670.99 C168.92 668.89 167.28 666.81 165.64 664.73 C157.48 654.35 149.64 643.77 142 633 C141.43 632.2 140.87 631.41 140.28 630.59 C131.52 618.27 123.14 605.74 115 593 C114.5 592.22 114 591.44 113.48 590.63 C101.34 571.73 90 552.4 79.39 532.6 C78.08 530.14 76.75 527.69 75.41 525.24 C44.35 467.65 23.97 403.58 14 339 C13.85 338.07 13.7 337.13 13.55 336.17 C11.5 323.19 10.49 310.13 9.57 297.03 C9.51 296.12 9.44 295.21 9.38 294.27 C7.85 272.61 6.61 250.94 5.5 229.25 C5.45 228.23 5.39 227.21 5.34 226.16 C1.47 150.86 -0.86 75.4 0 0 Z " fill="#FEFEFE" transform="translate(476,708)"/>
<path d="M0 0 C0.43 112.22 0.43 112.22 -1.84 159.54 C-2.01 163.18 -2.18 166.83 -2.34 170.47 C-3.69 200.01 -5.2 229.55 -8 259 C-8.08 259.87 -8.16 260.73 -8.25 261.62 C-12.83 309.86 -20.33 357.41 -32.31 404.38 C-32.53 405.23 -32.75 406.09 -32.98 406.98 C-33.6 409.41 -34.23 411.84 -34.86 414.27 C-35.05 415 -35.24 415.72 -35.43 416.47 C-35.92 418.32 -36.46 420.16 -37 422 C-37.22 422.75 -37.44 423.51 -37.67 424.29 C-39.88 427.13 -43.11 427.97 -46.4 429.14 C-47.16 429.43 -47.93 429.72 -48.72 430.01 C-51.26 430.96 -53.82 431.89 -56.38 432.81 C-58.18 433.47 -59.98 434.14 -61.78 434.8 C-67.51 436.89 -73.25 438.95 -79 441 C-79.93 441.33 -80.86 441.67 -81.82 442.01 C-114.71 453.75 -147.82 463.75 -182 471 C-184.42 471.52 -186.84 472.05 -189.26 472.57 C-204.08 475.77 -218.92 478.83 -233.78 481.84 C-235.53 482.19 -237.29 482.55 -239.04 482.91 C-241.5 483.41 -243.97 483.9 -246.43 484.4 C-247.51 484.62 -247.51 484.62 -248.61 484.85 C-254.05 485.92 -259.48 486.52 -265 487 C-264.99 488.17 -264.98 489.34 -264.96 490.54 C-264.89 502.38 -265.09 514.2 -265.44 526.04 C-265.46 526.8 -265.48 527.56 -265.5 528.35 C-265.71 535.5 -265.93 542.65 -266.15 549.8 C-266.86 573.21 -267.13 596.58 -267 620 C-266.38 619.31 -265.77 618.63 -265.13 617.92 C-264.32 617.02 -263.51 616.12 -262.68 615.19 C-261.87 614.3 -261.07 613.41 -260.24 612.49 C-257.8 609.78 -255.34 607.07 -252.88 604.38 C-248.86 599.96 -244.89 595.52 -241 591 C-240.18 590.06 -239.36 589.12 -238.51 588.14 C-223.51 570.8 -212.04 551.86 -200.69 532 C-200.18 531.12 -199.68 530.24 -199.16 529.33 C-197.03 525.62 -194.93 521.92 -192.97 518.12 C-192.12 516.51 -192.12 516.51 -191.25 514.88 C-190.8 513.99 -190.35 513.1 -189.89 512.18 C-184.87 506.4 -174.33 505.39 -167.14 503.5 C-164.94 502.92 -162.74 502.34 -160.54 501.75 C-154.3 500.09 -148.06 498.42 -141.81 496.78 C-115.25 489.8 -89.12 481.99 -64.07 470.56 C-62.07 469.65 -60.04 468.82 -58 468 C-57.34 468.33 -56.68 468.66 -56 469 C-85.31 535.75 -118.39 599.35 -162 658 C-162.44 658.59 -162.88 659.18 -163.33 659.79 C-171.97 671.41 -180.78 682.84 -190 694 C-191.44 695.77 -192.88 697.54 -194.31 699.31 C-208.49 716.6 -223.66 732.74 -239.44 748.56 C-240.28 749.41 -240.28 749.41 -241.14 750.27 C-246.71 755.86 -252.28 761.4 -258.28 766.52 C-260.45 768.39 -262.53 770.35 -264.61 772.32 C-271.13 778.47 -277.95 784.06 -285.07 789.51 C-287.13 791.1 -289.18 792.72 -291.22 794.34 C-301.16 802.22 -311.37 809.52 -321.9 816.58 C-324.77 818.52 -327.6 820.51 -330.44 822.5 C-342.44 830.81 -354.74 838.68 -367.19 846.31 C-368.35 847.02 -368.35 847.02 -369.53 847.75 C-374.87 851 -374.87 851 -376 851 C-376 691.61 -376 532.22 -376 368 C-364.12 367.01 -352.24 366.02 -340 365 C-328.63 363.45 -317.31 361.86 -306 360 C-304.43 359.74 -304.43 359.74 -302.82 359.48 C-285.62 356.62 -268.55 352.84 -251.61 348.69 C-250.82 348.5 -250.03 348.31 -249.22 348.11 C-247.79 347.76 -246.36 347.4 -244.93 347.03 C-241.73 346.24 -240.21 345.93 -237 347 C-237.35 347.85 -237.71 348.7 -238.08 349.57 C-245.97 368.47 -253.82 387.38 -261.62 406.31 C-269.02 424.24 -276.47 442.13 -284 460 C-281.63 457.69 -279.42 455.4 -277.44 452.74 C-276.98 452.13 -276.52 451.51 -276.04 450.87 C-275.31 449.88 -275.31 449.88 -274.56 448.88 C-274.04 448.18 -273.53 447.48 -272.99 446.76 C-271.32 444.51 -269.66 442.26 -268 440 C-267.45 439.25 -266.89 438.49 -266.32 437.72 C-251.52 417.6 -238.94 396.45 -226.74 374.67 C-225.58 372.6 -224.41 370.53 -223.24 368.46 C-220.22 363.11 -217.36 357.74 -214.68 352.22 C-207.73 338.25 -202.11 330.92 -187.58 325.1 C-182.9 323.1 -178.53 320.54 -174.12 318 C-172.8 317.24 -172.8 317.24 -171.44 316.46 C-160.19 309.93 -150.47 301.9 -141 293 C-139.95 292.07 -139.95 292.07 -138.89 291.12 C-117.13 270.92 -106.84 234.49 -103 206 C-102.87 205.02 -102.73 204.03 -102.6 203.02 C-101.68 194.72 -101.91 186.34 -102 178 C-105.9 179.84 -109.79 181.69 -113.68 183.54 C-114.99 184.17 -116.31 184.79 -117.63 185.42 C-125.95 189.34 -133.8 193.56 -141.5 198.61 C-142.32 199.07 -143.15 199.53 -144 200 C-144.66 199.67 -145.32 199.34 -146 199 C-145.66 198.04 -145.33 197.07 -144.98 196.08 C-137.56 174.78 -130.55 153.41 -124.06 131.8 C-121.39 122.93 -118.6 114.09 -115.81 105.25 C-115.45 104.08 -115.45 104.08 -115.07 102.9 C-113.72 98.6 -112.36 94.3 -111 90 C-119.21 106.27 -119.21 106.27 -127.12 122.7 C-136.57 142.77 -147.47 162.06 -158.47 181.31 C-159.92 183.86 -161.35 186.43 -162.77 189 C-169.29 200.68 -176.73 211.48 -185 222 C-185.47 222.62 -185.94 223.23 -186.43 223.87 C-190.37 228.8 -195.03 232.13 -200.25 235.62 C-202.05 236.86 -203.84 238.09 -205.64 239.32 C-206.54 239.94 -207.44 240.55 -208.36 241.18 C-212.31 243.9 -216.19 246.69 -220.06 249.5 C-220.79 250.02 -221.51 250.55 -222.26 251.09 C-234.14 259.66 -234.14 259.66 -245.85 268.48 C-248 270 -248 270 -250.3 271.08 C-252.98 272.48 -254.3 273.47 -256 276 C-257.48 282.13 -257.07 288.62 -257 294.88 C-257.01 296.63 -257.02 298.39 -257.04 300.14 C-257.06 304.43 -257.05 308.71 -257 313 C-285.46 323.94 -314.02 330.64 -344.19 334.75 C-344.97 334.86 -345.75 334.96 -346.56 335.07 C-348.85 335.38 -351.13 335.69 -353.42 335.98 C-354.4 336.12 -354.4 336.12 -355.41 336.25 C-362.25 337.12 -369.12 337.54 -376 338 C-376.28 326.25 -376.49 314.49 -376.62 302.74 C-376.68 297.28 -376.77 291.82 -376.91 286.36 C-377.04 281.08 -377.11 275.81 -377.14 270.53 C-377.16 268.53 -377.2 266.52 -377.27 264.52 C-377.6 253.95 -377.51 246.06 -370.16 237.92 C-368.62 236.33 -367.05 234.8 -365.41 233.3 C-363.56 231.59 -361.89 229.73 -360.22 227.84 C-359.17 226.73 -358.12 225.61 -357.06 224.5 C-355.88 223.25 -354.71 222 -353.53 220.75 C-352.65 219.82 -352.65 219.82 -351.76 218.88 C-349.99 216.99 -348.25 215.09 -346.5 213.19 C-341.51 207.73 -336.59 202.39 -330.89 197.64 C-328.65 195.69 -326.58 193.61 -324.5 191.5 C-320.49 187.45 -316.34 183.69 -312 180 C-309.75 178.09 -307.5 176.17 -305.25 174.25 C-304.65 173.74 -304.04 173.22 -303.42 172.69 C-299.48 169.31 -295.62 165.85 -291.81 162.31 C-287.3 158.12 -282.64 154.17 -277.84 150.31 C-275.28 148.23 -272.77 146.11 -270.26 143.97 C-263.93 138.55 -257.46 133.36 -250.79 128.35 C-248.96 126.97 -247.15 125.57 -245.33 124.18 C-234.04 115.6 -222.29 107.73 -210.5 99.88 C-209.68 99.33 -208.86 98.78 -208.02 98.22 C-147.22 57.69 -81.05 30.1 -13.12 3.75 C-12.1 3.35 -11.07 2.95 -10.01 2.54 C-9.1 2.19 -8.19 1.84 -7.26 1.48 C-6.5 1.19 -5.73 0.9 -4.95 0.6 C-3 0 -3 0 0 0 Z " fill="#FEFEFE" transform="translate(1246,705)"/>
<path d="M0 0 C-0.61 8.59 -2.74 16.72 -5 25 C-5.27 26.01 -5.27 26.01 -5.55 27.03 C-11.3 48.04 -22.32 70.61 -41.06 82.75 C-41.84 83.26 -42.62 83.77 -43.42 84.29 C-59.71 94.74 -82.93 109.45 -103 109 C-106.02 71.71 -106.02 71.71 -101.23 62.65 C-97.03 58.01 -92.04 55.27 -86.28 52.95 C-83.2 51.67 -80.7 49.94 -78 48 C-75.52 49.1 -73.71 50.24 -71.62 52 C-66.7 55.75 -61.73 56.53 -55.66 56.37 C-50.05 55.59 -45.03 53.36 -41.3 49.03 C-38.26 44.35 -36.6 40.44 -37.5 34.84 C-38.94 22.54 -38.94 22.54 -35.61 18.18 C-31.68 14.76 -27.13 12.45 -22.46 10.2 C-19.99 8.99 -17.59 7.69 -15.19 6.34 C-3.79 0 -3.79 0 0 0 Z " fill="#E72127" transform="translate(1117,915)"/>
<path d="M0 0 C1.23 3.7 0.6 4.9 -0.65 8.54 C-1.02 9.62 -1.38 10.69 -1.76 11.79 C-2.15 12.91 -2.54 14.03 -2.94 15.19 C-3.52 16.88 -3.52 16.88 -4.11 18.62 C-5.06 21.41 -6.03 24.21 -7 27 C-7.66 27 -8.32 27 -9 27 C-9.33 26.34 -9.66 25.68 -10 25 C-10.66 24.67 -11.32 24.34 -12 24 C-8.04 16.08 -4.08 8.16 0 0 Z " fill="#111111" transform="translate(1135,793)"/>
<path d="M0 0 C4.59 4.44 8.79 9.2 13 14 C8.92 14 7.15 12.3 3.81 10 C2.73 9.26 1.64 8.51 0.52 7.75 C-0.31 7.17 -1.14 6.6 -2 6 C-1.49 3.83 -1 2 0 0 Z " fill="#111111" transform="translate(689,675)"/>
<path d="M0 0 C1.13 0.91 2.26 1.83 3.38 2.75 C4 3.26 4.63 3.77 5.27 4.3 C7.08 6.08 8 7.68 9 10 C7.62 11.5 7.62 11.5 6 13 C5.34 13 4.68 13 4 13 C3.33 11.21 2.66 9.42 2 7.62 C1.63 6.63 1.26 5.63 0.88 4.6 C0 2 0 2 0 0 Z " fill="#070707" transform="translate(1145,1424)"/>
<path d="M0 0 C0.66 0.33 1.32 0.66 2 1 C-1.29 4.98 -4.51 8.62 -8.44 12 C-9.03 12.52 -9.63 13.03 -10.25 13.56 C-12 15 -12 15 -15 17 C-13.68 14.07 -12.25 12.01 -9.96 9.77 C-9.38 9.19 -8.8 8.62 -8.2 8.03 C-7.6 7.44 -7 6.85 -6.38 6.25 C-5.76 5.65 -5.15 5.05 -4.52 4.43 C-3.02 2.95 -1.51 1.47 0 0 Z " fill="#EBEBEB" transform="translate(591,131)"/>
<path d="M0 0 C1.65 0.99 3.3 1.98 5 3 C4.67 3.99 4.34 4.98 4 6 C3.34 6 2.68 6 2 6 C2 7.32 2 8.64 2 10 C1.34 10 0.68 10 0 10 C0 6.7 0 3.4 0 0 Z " fill="#171717" transform="translate(588,874)"/>
<path d="M0 0 C0.99 1.32 1.98 2.64 3 4 C-1.95 6.97 -1.95 6.97 -7 10 C-4.98 5.96 -2.92 3.38 0 0 Z " fill="#1E1E1E" transform="translate(1020,681)"/>
<path d="M0 0 C0.66 1.32 1.32 2.64 2 4 C-0.97 6.47 -0.97 6.47 -4 9 C-4.66 8.67 -5.32 8.34 -6 8 C-4.02 5.36 -2.04 2.72 0 0 Z " fill="#131313" transform="translate(1094,1348)"/>
<path d="M0 0 C0 4 -1.73 5.8 -4 9 C-4.99 8.34 -5.98 7.68 -7 7 C-4.69 4.69 -2.38 2.38 0 0 Z " fill="#E5E5E5" transform="translate(1013,1491)"/>
<path d="M0 0 C2.31 1.98 4.62 3.96 7 6 C6.01 6.49 6.01 6.49 5 7 C4.34 6.67 3.68 6.34 3 6 C2.67 6.66 2.34 7.32 2 8 C1.34 5.36 0.68 2.72 0 0 Z " fill="#202020" transform="translate(1145,1424)"/>
<path d="M0 0 C2 2 2 2 2.2 3.95 C2.13 5.96 2.07 7.98 2 10 C1.01 9.34 0.02 8.68 -1 8 C-0.67 5.36 -0.34 2.72 0 0 Z " fill="#E7E7E7" transform="translate(1237,944)"/>
<path d="M0 0 C1.65 0.33 3.3 0.66 5 1 C5.33 1.99 5.66 2.98 6 4 C2.7 3.67 -0.6 3.34 -4 3 C-2.68 2.67 -1.36 2.34 0 2 C0 1.34 0 0.68 0 0 Z " fill="#282828" transform="translate(827,1068)"/>
<path d="M0 0 C0.33 0 0.66 0 1 0 C1.62 3.38 1.62 3.38 2 7 C1.34 7.66 0.68 8.32 0 9 C-0.66 9 -1.32 9 -2 9 C-1.34 6.03 -0.68 3.06 0 0 Z " fill="#EDEDED" transform="translate(1133,802)"/>
<path d="M0 0 C-0.33 2.97 -0.66 5.94 -1 9 C-1.33 9 -1.66 9 -2 9 C-2 6.69 -2 4.38 -2 2 C-2.99 1.67 -3.98 1.34 -5 1 C-3 0 -3 0 0 0 Z " fill="#B12D2F" transform="translate(1117,915)"/>
</svg>
