<?xml version="1.0" encoding="UTF-8"?>
<!-- Generator: https://ezgif.com/png-to-svg -->
<svg version="1.1" xmlns="http://www.w3.org/2000/svg" width="512" height="512" viewBox="-218.255 -49.74 928.48 928.48" preserveAspectRatio="xMidYMid meet">
<path d="M0 0 C3.42 1.62 5.65 3.41 8.31 6.12 C9.39 7.21 9.39 7.21 10.49 8.32 C12.38 10.34 14.18 12.38 15.98 14.48 C20.71 19.9 25.81 24.95 30.9 30.04 C31.95 31.08 33 32.13 34.04 33.18 C36.23 35.36 38.41 37.55 40.6 39.73 C43.38 42.5 46.15 45.28 48.93 48.06 C51.09 50.23 53.25 52.38 55.41 54.54 C56.43 55.57 57.46 56.59 58.48 57.62 C64.98 64.15 64.98 64.15 71.82 70.32 C77.48 75.17 82.65 80.54 87.9 85.82 C89.88 87.82 91.87 89.81 93.85 91.8 C98.79 96.75 103.71 101.7 108.64 106.65 C112.81 110.84 116.99 115.04 121.17 119.23 C123.11 121.18 125.06 123.13 127 125.09 C132.22 130.33 137.42 135.48 143.05 140.28 C146.91 143.69 150.5 147.39 154.12 151.05 C155.6 152.54 157.08 154.03 158.56 155.51 C162.24 159.21 165.92 162.91 169.59 166.6 C172.71 169.74 175.83 172.88 178.95 176.01 C180.4 177.46 181.84 178.92 183.29 180.37 C187.82 184.92 192.4 189.33 197.28 193.52 C226.09 218.38 247.25 250.33 251 289 C251.16 292.98 251.17 296.96 251.19 300.94 C251.2 302.14 251.2 303.34 251.21 304.58 C251.23 307.9 251.25 311.22 251.26 314.54 C251.28 317.39 251.29 320.24 251.31 323.08 C251.46 350.09 251.54 377.1 251.6 404.11 C251.61 407.62 251.62 411.13 251.62 414.64 C251.63 415.52 251.63 416.39 251.63 417.29 C251.67 431.44 251.74 445.59 251.83 459.74 C251.91 474.27 251.97 488.81 251.98 503.34 C251.99 511.5 252.02 519.66 252.09 527.81 C252.15 534.76 252.17 541.7 252.15 548.65 C252.15 552.19 252.15 555.73 252.21 559.27 C252.26 563.12 252.24 566.96 252.21 570.8 C252.24 571.92 252.27 573.03 252.3 574.18 C252.2 578.94 251.95 581.86 248.85 585.6 C246.32 587.89 243.71 589.94 241 592 C239.52 593.4 238.06 594.82 236.62 596.27 C235.9 596.99 235.19 597.71 234.45 598.45 C233.7 599.2 232.95 599.96 232.19 600.73 C231.37 601.55 230.55 602.37 229.71 603.22 C227.95 604.98 226.2 606.74 224.45 608.51 C221.68 611.3 218.9 614.08 216.13 616.87 C208.24 624.77 200.36 632.69 192.49 640.61 C187.66 645.46 182.82 650.32 177.98 655.17 C176.14 657.02 174.3 658.87 172.46 660.72 C169.91 663.29 167.34 665.86 164.78 668.43 C163.64 669.59 163.64 669.59 162.47 670.77 C161.77 671.46 161.08 672.16 160.36 672.87 C159.76 673.48 159.15 674.09 158.53 674.71 C157 676 157 676 155 676 C155 676.66 155 677.32 155 678 C153.54 679.44 153.54 679.44 151.52 681.11 C147.02 684.94 142.85 689.03 138.69 693.23 C137.9 694.02 137.11 694.81 136.3 695.63 C134.6 697.33 132.91 699.04 131.21 700.74 C128.54 703.44 125.85 706.13 123.17 708.82 C115.55 716.47 107.93 724.12 100.32 731.78 C95.65 736.47 90.98 741.16 86.3 745.85 C84.52 747.63 82.74 749.42 80.97 751.21 C78.49 753.71 76.02 756.19 73.54 758.68 C72.8 759.42 72.06 760.17 71.3 760.94 C70.63 761.61 69.95 762.28 69.26 762.97 C68.68 763.56 68.09 764.15 67.49 764.75 C66 766 66 766 64 766 C64 766.66 64 767.32 64 768 C63.34 768 62.68 768 62 768 C62 768.66 62 769.32 62 770 C60.67 771.3 60.67 771.3 58.75 772.87 C53.41 777.41 48.55 782.4 43.65 787.4 C41.37 789.72 39.08 792.03 36.79 794.35 C32.54 798.64 28.3 802.93 24.08 807.24 C21.12 810.26 18.16 813.26 15.18 816.25 C14.05 817.39 12.93 818.54 11.81 819.69 C10.25 821.29 8.68 822.87 7.1 824.45 C6.21 825.36 5.32 826.26 4.4 827.19 C2 829 2 829 0.17 828.91 C-2.91 827.62 -4.71 825.66 -7.06 823.29 C-7.56 822.8 -8.05 822.3 -8.56 821.8 C-10.23 820.14 -11.88 818.47 -13.53 816.79 C-14.72 815.6 -15.91 814.41 -17.1 813.22 C-20.33 809.99 -23.55 806.74 -26.77 803.5 C-30.14 800.11 -33.52 796.72 -36.9 793.34 C-43.29 786.93 -49.68 780.51 -56.07 774.09 C-67.51 762.59 -78.96 751.1 -90.42 739.61 C-94.44 735.57 -98.46 731.53 -102.48 727.49 C-104.98 724.98 -107.47 722.48 -109.97 719.97 C-111.13 718.8 -112.29 717.64 -113.45 716.47 C-115.03 714.88 -116.61 713.29 -118.19 711.71 C-119.52 710.37 -119.52 710.37 -120.88 709.01 C-122.83 706.96 -122.83 706.96 -125 706 C-125 705.34 -125 704.68 -125 704 C-125.66 704 -126.32 704 -127 704 C-127 703.34 -127 702.68 -127 702 C-127.56 701.73 -128.12 701.45 -128.69 701.17 C-150.94 689.89 -171.07 675.14 -190.25 659.31 C-190.95 658.74 -191.65 658.17 -192.37 657.58 C-228.06 628.12 -249.99 594.1 -254.62 547.71 C-258.33 508.83 -257.76 469.62 -256.64 430.63 C-256.56 428.06 -256.49 425.49 -256.42 422.92 C-255.43 387.21 -253.85 351.54 -251.35 315.9 C-251.22 313.94 -251.08 311.98 -250.95 310.03 C-249.83 294.01 -248.56 278.35 -243.31 263.06 C-243.06 262.32 -242.81 261.57 -242.55 260.8 C-239.74 252.83 -236.03 245.41 -232 238 C-231.17 236.43 -231.17 236.43 -230.32 234.83 C-222.1 219.96 -210.51 208.07 -198.56 196.2 C-197.1 194.74 -195.64 193.28 -194.18 191.82 C-191.15 188.79 -188.12 185.76 -185.08 182.75 C-181.18 178.87 -177.29 174.98 -173.41 171.09 C-170.41 168.09 -167.41 165.09 -164.41 162.1 C-162.97 160.67 -161.53 159.23 -160.1 157.8 C-158.11 155.8 -156.11 153.82 -154.11 151.84 C-153.22 150.94 -153.22 150.94 -152.32 150.03 C-148.23 146 -148.23 146 -146 146 C-146 145.34 -146 144.68 -146 144 C-144.64 142.66 -144.64 142.66 -142.7 141.07 C-137.12 136.32 -132.01 131.13 -126.85 125.94 C-125.74 124.84 -124.64 123.74 -123.54 122.63 C-121.18 120.27 -118.83 117.91 -116.47 115.55 C-112.74 111.8 -109.01 108.06 -105.27 104.32 C-97.35 96.39 -89.42 88.44 -81.5 80.5 C-72.94 71.92 -64.39 63.35 -55.83 54.77 C-52.12 51.06 -48.42 47.35 -44.72 43.63 C-42.41 41.32 -40.09 39 -37.78 36.69 C-36.72 35.62 -35.65 34.55 -34.59 33.48 C-29.41 28.27 -24.2 23.14 -18.6 18.37 C-16.47 16.54 -14.48 14.59 -12.5 12.6 C-11.76 11.85 -11.02 11.11 -10.25 10.34 C-9.51 9.59 -8.77 8.84 -8 8.06 C-6.84 6.89 -6.84 6.89 -5.65 5.7 C-3.77 3.8 -1.88 1.9 0 0 Z " fill="#19191A" transform="translate(249,0)"/>
<path d="M0 0 C0.66 0 1.32 0 2 0 C2.67 1.53 3.35 3.06 4.02 4.59 C4.46 5.59 4.9 6.59 5.35 7.61 C6.34 9.87 7.34 12.13 8.33 14.39 C10.74 19.86 13.14 25.32 15.55 30.79 C19.77 40.38 23.99 49.97 28.2 59.57 C28.76 60.84 28.76 60.84 29.33 62.14 C31.27 66.54 33.2 70.95 35.13 75.36 C35.91 77.12 36.68 78.88 37.45 80.64 C37.83 81.5 38.21 82.37 38.6 83.27 C40.8 88.29 43.02 93.3 45.24 98.31 C46.56 101.3 47.88 104.29 49.2 107.28 C49.81 108.67 50.43 110.05 51.05 111.44 C51.89 113.34 52.73 115.24 53.57 117.15 C54.04 118.21 54.51 119.28 55 120.37 C56 123 56 123 56 126 C36.86 126 17.72 126 -2 126 C-7.44 112.63 -7.44 112.63 -13 99 C-32.33 106.73 -46.34 132.73 -54.23 151.07 C-56.28 156.01 -58.23 160.96 -60 166 C-60.26 166.71 -60.52 167.41 -60.78 168.14 C-63.9 177.88 -63.82 188 -64.2 198.14 C-64.29 200.28 -64.37 202.42 -64.46 204.56 C-65.24 224.2 -65.69 243.85 -66.04 263.51 C-66.29 276.67 -66.63 289.82 -67.24 302.97 C-72.88 368.56 -72.88 368.56 -47.43 426.02 C-37.68 436.35 -26.49 445.12 -14.7 452.97 C-10.39 455.88 -7.1 458.76 -3.84 462.8 C-1.54 465.55 0.96 468.07 3.5 470.59 C3.98 471.08 4.46 471.56 4.96 472.05 C6.45 473.54 7.94 475.02 9.44 476.5 C10.47 477.52 11.49 478.55 12.52 479.57 C15.01 482.05 17.5 484.53 20 487 C20.3 463.85 20.53 440.7 20.67 417.55 C20.74 406.8 20.83 396.06 20.98 385.31 C21.11 375.94 21.19 366.56 21.22 357.19 C21.24 352.23 21.28 347.27 21.37 342.31 C21.46 337.64 21.49 332.97 21.47 328.29 C21.47 326.58 21.5 324.87 21.55 323.16 C21.98 314.25 21.98 314.25 18.72 306.23 C15.22 302.55 11.22 299.78 7 297 C5.7 295.98 4.4 294.96 3.12 293.91 C2.09 293.11 1.06 292.32 0 291.5 C-1.63 290.25 -3.25 288.99 -4.83 287.68 C-7.12 285.85 -7.12 285.85 -10.3 283.95 C-14.76 281 -19.08 278.06 -20.68 272.74 C-21.61 266.44 -21.19 260.15 -20.81 253.81 C-20.75 251.89 -20.69 249.96 -20.63 248.04 C-20.49 243.35 -20.27 238.68 -20 234 C-16.71 234.61 -13.6 235.39 -10.44 236.47 C-9.56 236.77 -8.68 237.07 -7.78 237.37 C-6.84 237.7 -5.9 238.02 -4.93 238.35 C-3.94 238.69 -2.96 239.03 -1.94 239.37 C1.23 240.45 4.4 241.54 7.56 242.62 C9.63 243.33 11.71 244.04 13.78 244.75 C24.39 248.37 34.98 252.02 45.55 255.74 C50.71 257.56 55.89 259.31 61.1 260.98 C65.45 262.51 69.72 264.29 74 266 C74 381.17 74 496.34 74 615 C70.53 612.03 70.53 612.03 67 609 C65.77 608.02 64.52 607.05 63.27 606.1 C62.61 605.6 61.96 605.11 61.28 604.6 C60.59 604.07 59.89 603.55 59.17 603.01 C30.5 581.19 2.95 558.19 -23.78 534.06 C-24.88 533.06 -25.99 532.07 -27.09 531.08 C-83.43 480.34 -125.2 432.82 -129.41 354.51 C-130.52 332.76 -129.98 311.08 -128.8 289.34 C-128.69 287.18 -128.57 285.02 -128.46 282.86 C-126.46 245.03 -122.67 207.46 -117 170 C-116.87 169.1 -116.73 168.21 -116.59 167.28 C-116.2 164.67 -115.8 162.06 -115.39 159.45 C-115.28 158.68 -115.16 157.91 -115.04 157.12 C-114.12 151.32 -112.78 145.84 -110.81 140.31 C-110.51 139.44 -110.21 138.57 -109.9 137.67 C-102.86 117.98 -91.88 100.54 -78 85 C-76.83 83.63 -75.67 82.25 -74.5 80.88 C-65.01 70.18 -54.58 60.38 -42.45 52.72 C-32.75 46.5 -26.94 38.9 -20.59 29.37 C-18.01 25.52 -15.31 21.77 -12.62 18 C-9.98 14.26 -7.34 10.51 -4.77 6.71 C-4.14 5.8 -3.52 4.88 -2.88 3.94 C-2.36 3.16 -1.84 2.39 -1.3 1.59 C-0.87 1.07 -0.44 0.54 0 0 Z " fill="#FEFEFE" transform="translate(152,138)"/>
<path d="M0 0 C3.44 1.15 3.82 1.8 5.75 4.73 C6.27 5.5 6.79 6.28 7.33 7.08 C7.88 7.92 8.43 8.76 9 9.62 C10.17 11.37 11.34 13.11 12.51 14.85 C13.1 15.72 13.68 16.59 14.29 17.49 C17.15 21.69 20.15 25.78 23.2 29.85 C25.19 32.51 27.09 35.14 28.86 37.95 C33.82 45.66 40.16 49.94 47.62 54.97 C54.21 59.45 60.15 64.61 66 70 C66.58 70.53 67.16 71.07 67.75 71.62 C81.6 84.55 92.92 99.38 102 116 C102.32 116.59 102.64 117.18 102.98 117.78 C110.6 131.94 115.75 146.76 117.71 162.74 C118.11 165.83 118.56 168.9 119.01 171.98 C124.34 208.51 127.78 245.11 129.75 281.96 C129.87 284.18 130 286.4 130.12 288.63 C134.21 363.45 129.15 425.99 77.5 483.66 C61.06 501.9 43.51 518.86 25.27 535.28 C23.56 536.82 21.85 538.36 20.14 539.9 C-6.88 564.28 -34.72 587.55 -63.7 609.58 C-64.44 610.14 -65.17 610.7 -65.92 611.27 C-70.88 615 -70.88 615 -72 615 C-72 499.83 -72 384.66 -72 266 C-60.77 261.51 -60.77 261.51 -55.47 259.78 C-53.76 259.22 -53.76 259.22 -52.01 258.64 C-49.67 257.88 -47.33 257.12 -44.99 256.36 C-38.99 254.38 -33.1 252.29 -27.25 249.89 C-23.89 248.56 -20.46 247.52 -17 246.5 C-12.59 245.16 -8.26 243.78 -4 242 C0.36 240.18 4.8 238.72 9.31 237.31 C10.34 236.99 10.34 236.99 11.38 236.66 C14.9 235.58 18.38 234.69 22 234 C22.22 239.69 22.39 245.38 22.49 251.08 C22.54 253.01 22.6 254.95 22.68 256.88 C23.31 272.89 23.31 272.89 20.19 277.91 C17.91 279.96 15.66 281.48 13 283 C11.82 283.91 10.66 284.85 9.52 285.8 C8.43 286.64 7.34 287.48 6.25 288.31 C0.8 292.54 -4.51 296.89 -9.74 301.38 C-13.87 304.93 -13.87 304.93 -16.14 306.2 C-18.32 307.95 -18.32 307.95 -18.49 311.16 C-18.49 312.48 -18.48 313.8 -18.48 315.16 C-18.49 316.26 -18.49 316.26 -18.49 317.38 C-18.5 319.84 -18.48 322.31 -18.45 324.77 C-18.45 326.54 -18.45 328.3 -18.46 330.06 C-18.46 334.86 -18.43 339.65 -18.41 344.45 C-18.38 349.46 -18.38 354.47 -18.37 359.48 C-18.36 368.96 -18.33 378.45 -18.29 387.94 C-18.24 398.74 -18.22 409.54 -18.2 420.34 C-18.16 442.56 -18.09 464.78 -18 487 C-13 482.02 -8 477.04 -3 472.06 C-1.31 470.37 0.39 468.67 2.09 466.98 C4.54 464.54 6.99 462.1 9.44 459.66 C10.19 458.91 10.94 458.16 11.72 457.4 C12.44 456.67 13.16 455.95 13.9 455.21 C14.52 454.59 15.15 453.97 15.79 453.33 C17.06 451.99 18.3 450.64 19.49 449.23 C23.26 444.74 27.22 441.01 31.79 437.34 C48.25 424.06 65.98 409.66 69.02 387.68 C70.12 376.45 69.76 365.19 69.25 353.93 C69.02 347.77 69.02 341.6 68.99 335.43 C68.91 325.1 68.68 314.79 68.35 304.47 C67.88 289.97 67.68 275.47 67.52 260.96 C67.4 249.6 67.2 238.24 66.99 226.89 C66.97 225.69 66.95 224.48 66.93 223.25 C66.79 216.32 66.63 209.39 66.41 202.46 C66.35 200.38 66.3 198.3 66.25 196.21 C65.6 165.51 52.75 137.3 33 114 C32.24 112.99 31.47 111.98 30.69 110.94 C26.28 106.12 20.89 100.94 15 98 C11.37 107.24 7.74 116.48 4 126 C-15.14 126 -34.28 126 -54 126 C-53.05 121.27 -51.55 117.34 -49.6 112.98 C-49.07 111.8 -49.07 111.8 -48.54 110.59 C-47.39 107.97 -46.22 105.36 -45.06 102.75 C-44.25 100.91 -43.43 99.06 -42.62 97.22 C-40.92 93.38 -39.23 89.55 -37.53 85.71 C-34.02 77.78 -30.53 69.84 -27.05 61.9 C-25.94 59.38 -24.83 56.86 -23.72 54.33 C-15.78 36.24 -7.89 18.12 0 0 Z " fill="#FEFEFE" transform="translate(346,138)"/>
<path d="M0 0 C3.42 1.62 5.65 3.41 8.31 6.12 C9.39 7.21 9.39 7.21 10.49 8.32 C12.38 10.34 14.18 12.38 15.98 14.48 C20.71 19.9 25.81 24.95 30.9 30.04 C31.95 31.08 33 32.13 34.04 33.18 C36.23 35.36 38.41 37.55 40.6 39.73 C43.38 42.5 46.15 45.28 48.93 48.06 C51.09 50.23 53.25 52.38 55.41 54.54 C56.43 55.57 57.46 56.59 58.48 57.62 C64.98 64.15 64.98 64.15 71.82 70.32 C77.48 75.17 82.65 80.54 87.9 85.82 C89.88 87.82 91.87 89.81 93.85 91.8 C98.79 96.75 103.71 101.7 108.64 106.65 C112.81 110.84 116.99 115.04 121.17 119.23 C123.11 121.18 125.06 123.13 127 125.09 C132.22 130.33 137.42 135.48 143.05 140.28 C146.91 143.69 150.5 147.39 154.12 151.05 C155.6 152.54 157.08 154.03 158.56 155.51 C162.24 159.21 165.92 162.91 169.59 166.6 C172.71 169.74 175.83 172.88 178.95 176.01 C180.4 177.46 181.84 178.92 183.29 180.37 C187.82 184.92 192.4 189.33 197.28 193.52 C226.09 218.38 247.25 250.33 251 289 C251.16 292.98 251.17 296.96 251.19 300.94 C251.2 302.14 251.2 303.34 251.21 304.58 C251.23 307.9 251.25 311.22 251.26 314.54 C251.28 317.39 251.29 320.24 251.31 323.08 C251.46 350.09 251.54 377.1 251.6 404.11 C251.61 407.62 251.62 411.13 251.62 414.64 C251.63 415.52 251.63 416.39 251.63 417.29 C251.67 431.44 251.74 445.59 251.83 459.74 C251.91 474.27 251.97 488.81 251.98 503.34 C251.99 511.5 252.02 519.66 252.09 527.81 C252.15 534.76 252.17 541.7 252.15 548.65 C252.15 552.19 252.15 555.73 252.21 559.27 C252.26 563.12 252.24 566.96 252.21 570.8 C252.24 571.92 252.27 573.03 252.3 574.18 C252.2 578.94 251.95 581.86 248.85 585.6 C246.32 587.89 243.71 589.94 241 592 C239.52 593.4 238.06 594.82 236.62 596.27 C235.9 596.99 235.19 597.71 234.45 598.45 C233.7 599.2 232.95 599.96 232.19 600.73 C231.37 601.55 230.55 602.37 229.71 603.22 C227.95 604.98 226.2 606.74 224.45 608.51 C221.68 611.3 218.9 614.08 216.13 616.87 C208.24 624.77 200.36 632.69 192.49 640.61 C187.66 645.46 182.82 650.32 177.98 655.17 C176.14 657.02 174.3 658.87 172.46 660.72 C169.91 663.29 167.34 665.86 164.78 668.43 C163.64 669.59 163.64 669.59 162.47 670.77 C161.77 671.46 161.08 672.16 160.36 672.87 C159.76 673.48 159.15 674.09 158.53 674.71 C157 676 157 676 155 676 C155 676.66 155 677.32 155 678 C153.54 679.44 153.54 679.44 151.52 681.11 C147.02 684.94 142.85 689.03 138.69 693.23 C137.9 694.02 137.11 694.81 136.3 695.63 C134.6 697.33 132.91 699.04 131.21 700.74 C128.54 703.44 125.85 706.13 123.17 708.82 C115.55 716.47 107.93 724.12 100.32 731.78 C95.65 736.47 90.98 741.16 86.3 745.85 C84.52 747.63 82.74 749.42 80.97 751.21 C78.49 753.71 76.02 756.19 73.54 758.68 C72.8 759.42 72.06 760.17 71.3 760.94 C70.63 761.61 69.95 762.28 69.26 762.97 C68.68 763.56 68.09 764.15 67.49 764.75 C66 766 66 766 64 766 C64 766.66 64 767.32 64 768 C63.34 768 62.68 768 62 768 C62 768.66 62 769.32 62 770 C60.67 771.3 60.67 771.3 58.75 772.87 C53.41 777.41 48.55 782.4 43.65 787.4 C41.37 789.72 39.08 792.03 36.79 794.35 C32.54 798.64 28.3 802.93 24.08 807.24 C21.12 810.26 18.16 813.26 15.18 816.25 C14.05 817.39 12.93 818.54 11.81 819.69 C10.25 821.29 8.68 822.87 7.1 824.45 C6.21 825.36 5.32 826.26 4.4 827.19 C2 829 2 829 0.17 828.91 C-2.91 827.62 -4.71 825.66 -7.06 823.29 C-7.56 822.8 -8.05 822.3 -8.56 821.8 C-10.23 820.14 -11.88 818.47 -13.53 816.79 C-14.72 815.6 -15.91 814.41 -17.1 813.22 C-20.33 809.99 -23.55 806.74 -26.77 803.5 C-30.14 800.11 -33.52 796.72 -36.9 793.34 C-43.29 786.93 -49.68 780.51 -56.07 774.09 C-67.51 762.59 -78.96 751.1 -90.42 739.61 C-94.44 735.57 -98.46 731.53 -102.48 727.49 C-104.98 724.98 -107.47 722.48 -109.97 719.97 C-111.13 718.8 -112.29 717.64 -113.45 716.47 C-115.03 714.88 -116.61 713.29 -118.19 711.71 C-119.52 710.37 -119.52 710.37 -120.88 709.01 C-122.83 706.96 -122.83 706.96 -125 706 C-125 705.34 -125 704.68 -125 704 C-125.66 704 -126.32 704 -127 704 C-127 703.34 -127 702.68 -127 702 C-127.56 701.73 -128.12 701.45 -128.69 701.17 C-150.94 689.89 -171.07 675.14 -190.25 659.31 C-190.95 658.74 -191.65 658.17 -192.37 657.58 C-228.06 628.12 -249.99 594.1 -254.62 547.71 C-258.33 508.83 -257.76 469.62 -256.64 430.63 C-256.56 428.06 -256.49 425.49 -256.42 422.92 C-255.43 387.21 -253.85 351.54 -251.35 315.9 C-251.22 313.94 -251.08 311.98 -250.95 310.03 C-249.83 294.01 -248.56 278.35 -243.31 263.06 C-243.06 262.32 -242.81 261.57 -242.55 260.8 C-239.74 252.83 -236.03 245.41 -232 238 C-231.17 236.43 -231.17 236.43 -230.32 234.83 C-222.1 219.96 -210.51 208.07 -198.56 196.2 C-197.1 194.74 -195.64 193.28 -194.18 191.82 C-191.15 188.79 -188.12 185.76 -185.08 182.75 C-181.18 178.87 -177.29 174.98 -173.41 171.09 C-170.41 168.09 -167.41 165.09 -164.41 162.1 C-162.97 160.67 -161.53 159.23 -160.1 157.8 C-158.11 155.8 -156.11 153.82 -154.11 151.84 C-153.22 150.94 -153.22 150.94 -152.32 150.03 C-148.23 146 -148.23 146 -146 146 C-146 145.34 -146 144.68 -146 144 C-144.64 142.66 -144.64 142.66 -142.7 141.07 C-137.12 136.32 -132.01 131.13 -126.85 125.94 C-125.74 124.84 -124.64 123.74 -123.54 122.63 C-121.18 120.27 -118.83 117.91 -116.47 115.55 C-112.74 111.8 -109.01 108.06 -105.27 104.32 C-97.35 96.39 -89.42 88.44 -81.5 80.5 C-72.94 71.92 -64.39 63.35 -55.83 54.77 C-52.12 51.06 -48.42 47.35 -44.72 43.63 C-42.41 41.32 -40.09 39 -37.78 36.69 C-36.72 35.62 -35.65 34.55 -34.59 33.48 C-29.41 28.27 -24.2 23.14 -18.6 18.37 C-16.47 16.54 -14.48 14.59 -12.5 12.6 C-11.76 11.85 -11.02 11.11 -10.25 10.34 C-9.51 9.59 -8.77 8.84 -8 8.06 C-6.84 6.89 -6.84 6.89 -5.65 5.7 C-3.77 3.8 -1.88 1.9 0 0 Z M-2.92 24.56 C-3.66 25.29 -4.39 26.03 -5.14 26.79 C-5.98 27.63 -6.83 28.47 -7.69 29.33 C-8.62 30.27 -9.54 31.2 -10.49 32.16 C-11.47 33.14 -12.45 34.13 -13.43 35.11 C-15.55 37.23 -17.67 39.36 -19.78 41.49 C-23.12 44.86 -26.47 48.23 -29.83 51.59 C-35.14 56.92 -40.45 62.25 -45.75 67.59 C-55.22 77.12 -64.71 86.65 -74.2 96.17 C-77.52 99.51 -80.85 102.85 -84.17 106.19 C-86.25 108.28 -88.32 110.37 -90.4 112.46 C-91.81 113.88 -93.22 115.3 -94.63 116.72 C-98.96 121.06 -103.34 125.23 -107.99 129.23 C-111.97 132.74 -115.69 136.52 -119.45 140.26 C-120.36 141.16 -121.27 142.07 -122.21 142.99 C-125.2 145.96 -128.19 148.93 -131.18 151.9 C-132.21 152.93 -133.25 153.97 -134.29 155 C-138.61 159.3 -142.93 163.6 -147.25 167.91 C-153.38 174.03 -159.53 180.14 -165.69 186.24 C-170.05 190.56 -174.39 194.89 -178.73 199.22 C-181.31 201.8 -183.89 204.37 -186.49 206.93 C-197.57 217.88 -207.91 228.61 -216 242 C-216.54 242.89 -217.08 243.79 -217.64 244.71 C-218.79 246.65 -219.85 248.61 -220.88 250.62 C-221.24 251.33 -221.6 252.03 -221.97 252.75 C-231.84 272.27 -233.5 291.09 -233.79 312.62 C-233.83 315.38 -233.88 318.14 -233.93 320.9 C-234.39 347.14 -234.62 373.39 -234.8 399.64 C-234.82 403.05 -234.85 406.47 -234.87 409.88 C-234.88 410.73 -234.89 411.58 -234.89 412.45 C-235 426.17 -235.21 439.87 -235.48 453.59 C-235.75 467.72 -235.9 481.86 -235.94 496 C-235.97 503.91 -236.05 511.82 -236.26 519.73 C-238.6 556.68 -238.6 556.68 -224.2 589.02 C-217.92 595.62 -210.87 601.41 -203 606 C-202.34 606 -201.68 606 -201 606 C-200.64 606.87 -200.64 606.87 -200.27 607.75 C-198.74 610.45 -197 611.98 -194.64 613.99 C-188.43 619.45 -182.62 625.26 -176.79 631.11 C-175.6 632.3 -174.41 633.49 -173.22 634.69 C-170.68 637.23 -168.13 639.78 -165.59 642.33 C-161.57 646.37 -157.54 650.4 -153.51 654.44 C-144.96 663 -136.42 671.56 -127.88 680.12 C-118.64 689.38 -109.41 698.64 -100.17 707.89 C-96.17 711.89 -92.17 715.9 -88.18 719.9 C-85.69 722.4 -83.2 724.9 -80.7 727.39 C-79.55 728.54 -78.41 729.69 -77.26 730.85 C-71.9 736.23 -66.53 741.53 -60.75 746.47 C-57.93 748.93 -55.31 751.56 -52.68 754.21 C-52.1 754.79 -51.52 755.36 -50.93 755.96 C-49.05 757.83 -47.18 759.71 -45.31 761.59 C-44 762.9 -42.69 764.22 -41.38 765.53 C-37.95 768.96 -34.53 772.4 -31.1 775.83 C-27.6 779.35 -24.09 782.86 -20.58 786.37 C-13.72 793.24 -6.86 800.12 0 807 C12.58 796.42 24.18 784.95 35.77 773.31 C38.54 770.52 41.32 767.74 44.09 764.96 C49.98 759.06 55.87 753.15 61.75 747.25 C68.59 740.39 75.43 733.53 82.27 726.67 C85 723.94 87.72 721.21 90.44 718.47 C92.12 716.79 93.8 715.11 95.48 713.42 C96.23 712.67 96.97 711.92 97.74 711.14 C101.7 707.18 105.77 703.43 110.01 699.77 C113.59 696.59 116.94 693.18 120.31 689.79 C121.1 689 121.88 688.21 122.7 687.4 C124.39 685.69 126.09 683.99 127.79 682.29 C130.48 679.59 133.17 676.89 135.86 674.19 C141.58 668.46 147.29 662.73 153 657 C159.62 650.35 166.25 643.71 172.87 637.07 C175.52 634.42 178.16 631.77 180.8 629.12 C182.43 627.48 184.06 625.85 185.69 624.21 C186.42 623.48 187.14 622.75 187.89 622 C193.51 616.38 199.14 610.97 205.67 606.41 C220.29 596.08 234.31 584.19 237.49 565.76 C239.46 549.82 239.01 533.66 238.54 517.64 C238.32 509.78 238.29 501.92 238.26 494.05 C238.21 480.01 238.01 465.97 237.71 451.93 C237.42 438.37 237.22 424.81 237.11 411.24 C237.11 410.4 237.1 409.56 237.1 408.7 C237.07 405.33 237.04 401.96 237.02 398.59 C236.83 372.75 236.57 346.92 236.06 321.08 C236 318.4 235.96 315.71 235.92 313.03 C235.6 291.24 233.23 271.69 223.94 251.81 C223.61 251.06 223.27 250.32 222.93 249.54 C214.71 231.93 200.61 219.08 186.99 205.66 C184.83 203.52 182.68 201.38 180.52 199.23 C177.92 196.64 175.32 194.06 172.71 191.47 C172.23 190.99 171.74 190.51 171.24 190.02 C166.92 185.73 162.61 181.47 157.99 177.5 C153.39 173.55 149.15 169.26 144.88 164.95 C143.4 163.46 141.92 161.97 140.44 160.49 C136.76 156.79 133.08 153.09 129.41 149.4 C126.29 146.26 123.17 143.12 120.05 139.99 C118.6 138.54 117.16 137.08 115.71 135.63 C114.82 134.73 113.93 133.83 113 132.91 C112.23 132.13 111.45 131.35 110.65 130.54 C108.58 128.55 106.48 126.68 104.3 124.81 C99.35 120.5 94.76 115.87 90.14 111.21 C89.18 110.24 88.22 109.28 87.26 108.31 C85.2 106.24 83.15 104.18 81.1 102.11 C77.85 98.84 74.6 95.58 71.35 92.32 C62.11 83.05 52.88 73.77 43.66 64.49 C38.55 59.35 33.44 54.21 28.32 49.08 C25.09 45.84 21.86 42.59 18.64 39.33 C16.64 37.32 14.63 35.31 12.62 33.3 C11.24 31.92 9.87 30.53 8.5 29.14 C7.69 28.33 6.87 27.51 6.03 26.67 C5.32 25.96 4.61 25.25 3.88 24.51 C1.19 22.34 -0.25 22.39 -2.92 24.56 Z " fill="#A49E86" transform="translate(249,0)"/>
<path d="M0 0 C0.66 0 1.32 0 2 0 C2.67 1.53 3.35 3.06 4.02 4.59 C4.46 5.59 4.9 6.59 5.35 7.61 C6.34 9.87 7.34 12.13 8.33 14.39 C10.74 19.86 13.14 25.32 15.55 30.79 C19.77 40.38 23.99 49.97 28.2 59.57 C28.76 60.84 28.76 60.84 29.33 62.14 C31.27 66.54 33.2 70.95 35.13 75.36 C35.91 77.12 36.68 78.88 37.45 80.64 C37.83 81.5 38.21 82.37 38.6 83.27 C40.8 88.29 43.02 93.3 45.24 98.31 C46.56 101.3 47.88 104.29 49.2 107.28 C49.81 108.67 50.43 110.05 51.05 111.44 C51.89 113.34 52.73 115.24 53.57 117.15 C54.04 118.21 54.51 119.28 55 120.37 C56 123 56 123 56 126 C36.86 126 17.72 126 -2 126 C-7.44 112.63 -7.44 112.63 -13 99 C-31.54 106.42 -45.3 131 -53.15 148.58 C-58.04 159.49 -58.04 159.49 -61 171 C-61.59 171.14 -62.17 171.27 -62.77 171.41 C-69.73 173.15 -76.28 175.58 -82.93 178.23 C-89.01 180.65 -95.15 182.86 -101.34 184.96 C-105.41 186.36 -109.16 188.07 -113 190 C-113.66 190 -114.32 190 -115 190 C-115.33 267.55 -115.66 345.1 -116 425 C-116.33 425 -116.66 425 -117 425 C-117.07 392.84 -117.12 360.68 -117.15 328.51 C-117.16 324.71 -117.16 320.9 -117.16 317.1 C-117.17 316.34 -117.17 315.58 -117.17 314.8 C-117.18 302.57 -117.2 290.34 -117.23 278.11 C-117.26 265.53 -117.28 252.96 -117.28 240.39 C-117.29 232.65 -117.3 224.9 -117.32 217.16 C-117.34 211.2 -117.34 205.24 -117.34 199.28 C-117.34 196.85 -117.35 194.42 -117.36 192 C-117.44 174.38 -116.79 157.08 -110.81 140.31 C-110.51 139.44 -110.21 138.57 -109.9 137.67 C-102.86 117.98 -91.88 100.54 -78 85 C-76.83 83.63 -75.67 82.25 -74.5 80.88 C-65.01 70.18 -54.58 60.38 -42.45 52.72 C-32.75 46.5 -26.94 38.9 -20.59 29.37 C-18.01 25.52 -15.31 21.77 -12.62 18 C-9.98 14.26 -7.34 10.51 -4.77 6.71 C-4.14 5.8 -3.52 4.88 -2.88 3.94 C-2.36 3.16 -1.84 2.39 -1.3 1.59 C-0.87 1.07 -0.44 0.54 0 0 Z " fill="#E4E4E4" transform="translate(152,138)"/>
<path d="M0 0 C3.03 1.4 5.27 3.66 7.65 5.94 C8.19 6.44 8.72 6.93 9.26 7.44 C12.94 10.9 16.51 14.46 20.05 18.05 C21.92 19.89 23.85 21.61 25.84 23.31 C28.83 25.88 31.64 28.57 34.4 31.38 C37.13 34.14 39.89 36.79 42.84 39.31 C46.96 42.84 50.73 46.67 54.51 50.55 C56.86 52.84 59.31 54.87 61.9 56.88 C59.51 64.42 56.61 71.69 53.59 79 C52.6 81.42 51.61 83.83 50.62 86.24 C49.91 87.97 49.91 87.97 49.19 89.73 C47.64 93.52 46.15 97.32 44.65 101.13 C42.24 107.19 39.54 113.07 36.71 118.95 C34.76 123.09 33.04 127.32 31.29 131.54 C28.77 137.6 26.14 143.61 23.53 149.63 C22.95 150.96 22.37 152.29 21.79 153.63 C20.67 156.22 19.54 158.81 18.41 161.4 C17.15 164.3 15.9 167.2 14.64 170.1 C11.89 176.45 9.04 182.71 5.9 188.88 C3.99 193.15 2.32 197.41 0.9 201.88 C0.24 201.88 -0.42 201.88 -1.1 201.88 C-1.74 200.23 -1.74 200.23 -2.39 198.56 C-7.12 186.51 -12.19 174.63 -17.37 162.77 C-20.86 154.76 -24.27 146.72 -27.53 138.62 C-28.75 135.65 -30.07 132.73 -31.41 129.82 C-34.75 122.52 -37.76 115.08 -40.79 107.64 C-43.94 99.93 -47.24 92.32 -50.77 84.78 C-52.44 81.11 -53.91 77.41 -55.28 73.63 C-55.63 72.68 -55.63 72.68 -55.99 71.72 C-57.8 66.81 -59.46 61.85 -61.1 56.88 C-60.66 56.47 -60.22 56.06 -59.77 55.65 C-51.12 47.58 -42.55 39.47 -34.27 31.02 C-31.37 28.07 -28.42 25.26 -25.27 22.57 C-22.12 19.85 -19.19 16.99 -16.3 14 C-15.49 13.16 -14.67 12.32 -13.83 11.46 C-12.15 9.71 -10.48 7.96 -8.81 6.2 C-8 5.37 -7.19 4.54 -6.36 3.69 C-5.64 2.93 -4.91 2.18 -4.17 1.4 C-2.1 -0.12 -2.1 -0.12 0 0 Z " fill="#96907A" transform="translate(250.095703125,52.122802734375)"/>
<path d="M0 0 C3.44 1.15 3.82 1.8 5.75 4.73 C6.27 5.5 6.79 6.28 7.33 7.08 C7.88 7.92 8.43 8.76 9 9.62 C10.17 11.37 11.34 13.11 12.51 14.85 C13.1 15.72 13.68 16.59 14.29 17.49 C17.15 21.69 20.15 25.78 23.2 29.85 C25.19 32.51 27.09 35.14 28.86 37.95 C33.82 45.66 40.16 49.94 47.62 54.97 C54.21 59.45 60.15 64.61 66 70 C66.58 70.53 67.16 71.07 67.75 71.62 C81.6 84.55 92.92 99.38 102 116 C102.32 116.59 102.64 117.18 102.98 117.78 C111.46 133.53 116.96 150.09 118 168 C113.57 167.55 110.07 166.61 106.01 164.82 C102.24 163.28 98.3 162.27 94.38 161.19 C92.52 160.67 90.66 160.15 88.8 159.62 C87.85 159.36 86.9 159.09 85.92 158.82 C83 158 80.08 157.16 77.17 156.31 C76.23 156.04 75.29 155.77 74.32 155.49 C72.52 154.97 70.73 154.44 68.93 153.92 C68.11 153.68 67.29 153.44 66.44 153.2 C65.29 152.86 65.29 152.86 64.11 152.52 C61.82 151.89 61.82 151.89 58.65 151.79 C56 151 56 151 53.91 147.79 C53.27 146.41 52.66 145.02 52.06 143.62 C51.38 142.15 50.69 140.69 50 139.22 C49.67 138.5 49.33 137.77 48.98 137.03 C44.87 128.54 38.99 121.23 33 114 C32.24 112.99 31.47 111.98 30.69 110.94 C26.28 106.12 20.89 100.94 15 98 C11.37 107.24 7.74 116.48 4 126 C-15.14 126 -34.28 126 -54 126 C-53.05 121.27 -51.55 117.34 -49.6 112.98 C-49.07 111.8 -49.07 111.8 -48.54 110.59 C-47.39 107.97 -46.22 105.36 -45.06 102.75 C-44.25 100.91 -43.43 99.06 -42.62 97.22 C-40.92 93.38 -39.23 89.55 -37.53 85.71 C-34.02 77.78 -30.53 69.84 -27.05 61.9 C-25.94 59.38 -24.83 56.86 -23.72 54.33 C-15.78 36.24 -7.89 18.12 0 0 Z " fill="#E7E7E7" transform="translate(346,138)"/>
<path d="M0 0 C0.33 0.99 0.66 1.98 1 3 C-10.14 14.18 -21.28 25.36 -32.43 36.54 C-37.61 41.72 -42.78 46.91 -47.96 52.11 C-52.46 56.63 -56.97 61.16 -61.49 65.67 C-63.88 68.07 -66.27 70.46 -68.65 72.86 C-71.31 75.54 -73.98 78.21 -76.65 80.88 C-77.44 81.68 -78.23 82.47 -79.04 83.29 C-79.77 84.02 -80.5 84.75 -81.25 85.49 C-81.88 86.13 -82.52 86.76 -83.16 87.41 C-85.03 89.03 -86.8 89.91 -89 91 C-90.82 92.53 -90.82 92.53 -92.59 94.35 C-93.28 95.05 -93.98 95.74 -94.69 96.45 C-95.44 97.21 -96.19 97.97 -96.97 98.75 C-98.16 99.95 -98.16 99.95 -99.39 101.18 C-102.03 103.83 -104.66 106.48 -107.29 109.13 C-109.12 110.97 -110.95 112.8 -112.78 114.64 C-117.11 118.98 -121.43 123.32 -125.75 127.67 C-133.96 135.92 -142.17 144.16 -150.38 152.4 C-153.09 155.11 -155.79 157.83 -158.49 160.55 C-160.13 162.2 -161.78 163.85 -163.42 165.5 C-164.18 166.27 -164.94 167.03 -165.72 167.82 C-166.74 168.85 -166.74 168.85 -167.79 169.9 C-168.69 170.8 -168.69 170.8 -169.61 171.72 C-171 173 -171 173 -172 173 C-172 142.64 -172 112.28 -172 81 C-158.8 76.05 -145.6 71.1 -132 66 C-121.95 61.75 -111.95 57.48 -102 53 C-99.94 52.08 -97.89 51.17 -95.83 50.25 C-93.93 49.4 -92.03 48.54 -90.12 47.69 C-88.92 47.15 -88.92 47.15 -87.7 46.6 C-74.49 40.57 -61.58 33.85 -48.75 27.06 C-48.08 26.71 -47.4 26.35 -46.71 25.99 C-32.9 18.67 -19.54 10.68 -6.29 2.4 C-2.37 0 -2.37 0 0 0 Z " fill="#E6E6E6" transform="translate(448,576)"/>
<path d="M0 0 C3.03 1.4 5.27 3.66 7.65 5.94 C8.19 6.44 8.72 6.93 9.26 7.44 C12.94 10.9 16.51 14.46 20.05 18.05 C21.92 19.89 23.85 21.61 25.84 23.31 C28.83 25.88 31.64 28.57 34.4 31.38 C37.13 34.14 39.89 36.79 42.84 39.31 C46.99 42.87 50.79 46.73 54.61 50.64 C56.81 52.89 56.81 52.89 59.2 54.55 C59.76 54.99 60.33 55.43 60.9 55.88 C60.9 56.54 60.9 57.2 60.9 57.88 C53.62 59.97 46.3 61.7 38.87 63.23 C35.87 63.83 35.87 63.83 32.9 64.88 C30.49 64.98 28.07 65.06 25.65 65.13 C7.54 66.01 -7.29 74.38 -20.1 86.88 C-18.31 94.47 -15.18 101.23 -11.7 108.16 C-10.78 110.04 -9.93 111.96 -9.1 113.88 C-9.43 114.54 -9.76 115.2 -10.1 115.88 C-11.5 113.47 -12.91 111.07 -14.31 108.66 C-15.56 106.53 -16.8 104.41 -18.05 102.28 C-21.13 97.03 -24.18 91.76 -27.1 86.41 C-28.07 84.62 -29.06 82.83 -30.05 81.04 C-31.31 78.76 -32.55 76.47 -33.77 74.17 C-37.19 67.69 -37.19 67.69 -43.1 63.81 C-44.43 63.48 -45.76 63.17 -47.1 62.88 C-49.43 61.98 -51.76 61.09 -54.1 60.19 C-55.23 59.75 -56.36 59.32 -57.53 58.87 C-58.38 58.54 -59.22 58.21 -60.1 57.88 C-58.53 53.83 -55.65 51.42 -52.47 48.63 C-46.38 43.14 -40.57 37.42 -34.83 31.57 C-31.72 28.43 -28.59 25.4 -25.22 22.52 C-22.09 19.82 -19.18 16.98 -16.3 14 C-15.49 13.16 -14.67 12.32 -13.83 11.46 C-12.15 9.71 -10.48 7.96 -8.81 6.2 C-8 5.37 -7.19 4.54 -6.36 3.69 C-5.64 2.93 -4.91 2.18 -4.17 1.4 C-2.1 -0.12 -2.1 -0.12 0 0 Z " fill="#A59F87" transform="translate(250.095703125,52.122802734375)"/>
<path d="M0 0 C0 28.05 0 56.1 0 85 C-7.88 78.25 -7.88 78.25 -10.46 75.67 C-11.35 74.78 -11.35 74.78 -12.25 73.89 C-12.87 73.26 -13.49 72.64 -14.13 72 C-14.8 71.33 -15.48 70.66 -16.17 69.96 C-18.38 67.76 -20.58 65.56 -22.78 63.36 C-24.31 61.82 -25.85 60.28 -27.39 58.75 C-30.6 55.54 -33.8 52.33 -37.01 49.12 C-41.13 45 -45.25 40.88 -49.37 36.76 C-52.54 33.6 -55.71 30.43 -58.87 27.26 C-60.39 25.74 -61.91 24.22 -63.44 22.7 C-65.55 20.59 -67.66 18.47 -69.78 16.35 C-70.41 15.72 -71.05 15.09 -71.7 14.44 C-76 10.11 -76 10.11 -76 9 C-75.07 8.9 -74.14 8.8 -73.19 8.7 C-56.32 6.87 -39.45 5 -22.62 2.81 C-21.34 2.65 -20.05 2.48 -18.73 2.31 C-12.25 1.47 -12.25 1.47 -5.81 0.45 C-3 0 -3 0 0 0 Z " fill="#E7E7E7" transform="translate(226,666)"/>
<path d="M0 0 C0.5 0.99 0.5 0.99 1 2 C0.16 4.43 -0.75 6.75 -1.75 9.11 C-2.05 9.82 -2.35 10.54 -2.66 11.28 C-3.62 13.58 -4.59 15.89 -5.56 18.19 C-6.5 20.44 -7.44 22.68 -8.38 24.93 C-9.01 26.43 -9.63 27.92 -10.26 29.41 C-12.3 34.3 -14.29 39.21 -16.24 44.13 C-18.21 49.07 -20.26 53.9 -22.56 58.69 C-25.09 63.95 -27.38 69.27 -29.61 74.67 C-32.13 80.72 -34.76 86.73 -37.38 92.75 C-37.95 94.08 -38.53 95.42 -39.11 96.75 C-40.24 99.34 -41.36 101.93 -42.49 104.53 C-43.75 107.43 -45.01 110.33 -46.26 113.23 C-49.01 119.58 -51.86 125.83 -55 132 C-56.92 136.27 -58.58 140.53 -60 145 C-60.66 144.67 -61.32 144.34 -62 144 C-62.13 136.07 -62.19 128.14 -62.18 120.21 C-62.18 116.52 -62.19 112.84 -62.26 109.15 C-62.57 90.46 -62.14 71.5 -50 56 C-45.8 52.5 -41.27 50.45 -36 49 C-36 48.34 -36 47.68 -36 47 C-36.97 47.04 -37.94 47.08 -38.95 47.12 C-43.42 47.11 -47.55 46.18 -51.88 45.12 C-52.65 44.95 -53.42 44.78 -54.21 44.6 C-56.16 44.13 -58.08 43.57 -60 43 C-60.33 42.34 -60.66 41.68 -61 41 C-60.47 40.85 -59.93 40.71 -59.38 40.56 C-56.96 39.89 -54.54 39.23 -52.12 38.56 C-51.28 38.33 -50.44 38.1 -49.57 37.87 C-48.77 37.64 -47.96 37.42 -47.13 37.19 C-46.39 36.99 -45.65 36.78 -44.88 36.57 C-42.94 36.04 -42.94 36.04 -41 35 C-40.04 32.97 -39.16 30.9 -38.31 28.81 C-37.77 27.54 -37.23 26.27 -36.69 25 C-35.84 23.01 -35.01 21.02 -34.21 19.02 C-29.88 8.13 -29.88 8.13 -25.6 5.56 C-22.72 4.75 -19.97 4.35 -17 4 C-14.5 3.48 -12 2.93 -9.5 2.38 C-8.33 2.14 -7.17 1.9 -5.97 1.65 C-2.97 1.05 -2.97 1.05 0 0 Z " fill="#676355" transform="translate(311,109)"/>
<path d="M0 0 C0.99 0.33 1.98 0.66 3 1 C4.77 32.54 4.77 32.54 -1.38 40.35 C-4.6 43.56 -8.14 46.13 -11.96 48.58 C-14.79 50.55 -17.07 52.91 -19.46 55.4 C-21.35 57.36 -23.37 59.16 -25.44 60.94 C-26.46 61.82 -26.46 61.82 -27.5 62.71 C-28.24 63.35 -28.24 63.35 -29 64 C-27.34 68.24 -25.52 72.4 -23.69 76.56 C-21.59 81.33 -19.53 86.11 -17.56 90.94 C-16.1 94.5 -14.55 97.98 -12.88 101.45 C-12.51 102.22 -12.14 102.99 -11.75 103.79 C-11.01 105.33 -10.26 106.86 -9.5 108.39 C-8.61 110.23 -7.8 112.11 -7 114 C-7.33 114.66 -7.66 115.32 -8 116 C-9.41 113.6 -10.81 111.19 -12.22 108.78 C-13.46 106.66 -14.71 104.53 -15.96 102.41 C-19.04 97.15 -22.09 91.89 -25 86.54 C-25.98 84.74 -26.97 82.95 -27.96 81.16 C-29.22 78.88 -30.45 76.59 -31.67 74.29 C-35.09 67.81 -35.09 67.81 -41.01 63.94 C-42.33 63.6 -43.66 63.29 -45 63 C-47.33 62.11 -49.67 61.21 -52 60.31 C-53.13 59.88 -54.27 59.44 -55.44 58.99 C-56.28 58.66 -57.13 58.34 -58 58 C-56.43 53.95 -53.55 51.55 -50.38 48.75 C-44.28 43.27 -38.47 37.55 -32.73 31.7 C-29.63 28.55 -26.5 25.52 -23.14 22.64 C-18.18 18.36 -13.61 13.72 -9 9.06 C-8.13 8.19 -7.26 7.31 -6.36 6.41 C-4.24 4.28 -2.12 2.14 0 0 Z " fill="#CCC7B3" transform="translate(248,52)"/>
<path d="M0 0 C3.87 1.6 6.63 4.23 9.62 7.06 C10.69 8.06 11.76 9.05 12.83 10.05 C13.63 10.79 13.63 10.79 14.44 11.55 C19.57 16.32 24.78 20.99 30.12 25.5 C31.07 26.33 32.02 27.15 33 28 C33 28.33 33 28.66 33 29 C31.64 29.13 31.64 29.13 30.25 29.26 C10.83 31.43 -4.88 38.22 -19 52 C-23.04 48.57 -24.74 44.77 -26.75 40 C-27.07 39.29 -27.38 38.58 -27.71 37.84 C-29.24 34.29 -30 31.92 -30 28 C-28.55 26.19 -28.55 26.19 -26.53 24.36 C-25.79 23.68 -25.06 23 -24.3 22.3 C-23.52 21.6 -22.74 20.91 -21.94 20.19 C-20.42 18.81 -18.91 17.43 -17.4 16.04 C-16.66 15.37 -15.92 14.7 -15.16 14 C-12.55 11.58 -10.04 9.08 -7.55 6.53 C-5.17 4.18 -2.61 2.1 0 0 Z " fill="#B7B098" transform="translate(249,87)"/>
<path d="M0 0 C8.45 0.75 16.69 2.38 25 4 C25 4.66 25 5.32 25 6 C23.09 7.06 21.17 8.1 19.25 9.12 C18.18 9.71 17.12 10.29 16.02 10.88 C13 12 13 12 10.91 11.46 C8.5 9.61 6.38 7.61 4.25 5.44 C3.45 4.63 2.65 3.83 1.83 3 C0 1 0 1 0 0 Z " fill="#CDC8B4" transform="translate(250,152)"/>
<path d="M0 0 C3.91 1.58 6.52 4.27 9.42 7.23 C9.93 7.73 10.43 8.24 10.95 8.76 C12.56 10.38 14.15 12 15.75 13.62 C16.84 14.72 17.93 15.82 19.02 16.92 C21.69 19.61 24.34 22.3 27 25 C26.34 25.66 25.68 26.32 25 27 C21.43 23.48 17.87 19.96 14.32 16.43 C13.11 15.23 11.9 14.03 10.68 12.83 C8.94 11.11 7.2 9.39 5.47 7.66 C4.92 7.13 4.38 6.59 3.81 6.04 C2.5 4.73 1.25 3.37 0 2 C0 1.34 0 0.68 0 0 Z " fill="#2B2B2B" transform="translate(144,596)"/>
</svg>
