<?xml version="1.0" encoding="UTF-8"?>
<!-- Generator: https://ezgif.com/png-to-svg -->
<svg version="1.1" xmlns="http://www.w3.org/2000/svg" width="235" height="214">
<path d="M0 0 C14.17 10.01 26.06 23.5 32 40 C31.79 43.75 31.67 45.33 29 48 C29.56 48.7 29.56 48.7 30.14 49.41 C38.15 60.22 40.49 73.22 41.75 86.35 C42.29 91.41 42.29 91.41 45.39 95.34 C46.25 95.89 47.11 96.43 48 97 C49.09 98.27 50.16 99.56 51.19 100.88 C57.3 107.99 65.89 111.56 74.24 115.51 C80.78 119.05 84.7 123.42 87.25 130.44 C88.96 138.56 87.79 145.89 83.82 153.17 C76.58 163.76 64.67 169.29 52.44 171.69 C46.92 172.7 41.47 173.24 35.88 173.5 C25.03 174.04 14.64 175.83 5 181 C3.86 181.6 3.86 181.6 2.69 182.2 C-2.57 185.13 -7 188.62 -11.5 192.56 C-17.68 197.94 -23.95 202.99 -32.44 203.62 C-36 203 -36 203 -37.75 201.06 C-38.44 199.36 -39.14 197.66 -39.81 195.95 C-43.82 186.28 -49.04 180.73 -58.61 176.32 C-69.67 172.02 -80.88 170.04 -92.71 169.76 C-109.87 169.31 -125.77 166.78 -138.94 154.81 C-144.26 149.16 -146.52 143.01 -147.44 135.38 C-146.59 128.83 -144.89 122.64 -140 118 C-133.68 113.67 -126.77 110.24 -119.98 106.71 C-113.76 103.14 -110.53 99.12 -106.75 93.14 C-104.84 90.81 -103.94 90.33 -101 90 C-101.09 88.48 -101.09 88.48 -101.19 86.94 C-101.14 74.36 -96.81 62.6 -91.79 51.26 C-91.53 50.51 -91.27 49.77 -91 49 C-91.33 48.34 -91.66 47.68 -92 47 C-92.67 41.32 -90.72 37.64 -88.06 32.81 C-87.66 32.06 -87.25 31.31 -86.83 30.54 C-83.21 24.04 -79.06 18.48 -74 13 C-73.39 12.3 -72.78 11.59 -72.15 10.87 C-51.65 -11.41 -25.61 -16 0 0 Z " fill="#0B0D0C" transform="translate(147,11)"/>
<path d="M0 0 C-0.14 2.1 -0.29 4.21 -0.44 6.31 C-0.56 8.07 -0.56 8.07 -0.68 9.86 C-1 13 -1 13 -2 16 C-2.12 18.82 -2.19 21.61 -2.19 24.44 C-2.19 25.65 -2.19 25.65 -2.19 26.88 C-2.14 32.44 -1.63 37.69 -0.44 43.13 C0.17 47.09 0.08 51 0 55 C-1.94 55.24 -1.94 55.24 -3.92 55.48 C-18.83 57.43 -30.94 61.38 -44 69 C-42.89 68.5 -41.77 68.01 -40.62 67.5 C-35.73 65.63 -31.17 65.71 -26 66 C-26.71 66.57 -27.43 67.14 -28.16 67.73 C-29.1 68.48 -30.04 69.23 -31 70 C-31.87 70.7 -32.75 71.39 -33.65 72.11 C-42.69 79.4 -49.38 85.76 -55 96 C-54.24 95.36 -53.47 94.72 -52.69 94.06 C-50 92 -50 92 -47 91 C-47.02 91.91 -47.02 91.91 -47.05 92.84 C-47.41 108.97 -47.41 124.97 -36.28 138.02 C-34.88 139.38 -33.44 140.69 -32 142 C-32 142.66 -32 143.32 -32 144 C-31.16 144.39 -31.16 144.39 -30.3 144.8 C-27.79 146.11 -25.53 147.65 -23.19 149.25 C-16.52 153.56 -9.41 156.27 -2 159 C-2 159.33 -2 159.66 -2 160 C-14.06 159.61 -26.13 157.87 -35 149 C-32.09 159.35 -21.99 165.18 -13.5 170.59 C-7.35 174.56 -3.08 178.19 -0.53 185.33 C0.68 191.44 0.2 197.81 0 204 C-0.66 204 -1.32 204 -2 204 C-2.2 203.31 -2.39 202.62 -2.59 201.91 C-5.87 191.62 -11.55 184.58 -21.05 179.34 C-35.17 172.91 -49.78 171.17 -65.12 170.56 C-79.23 169.97 -92.23 167.58 -102.94 157.62 C-107.11 153.06 -110.15 148.23 -110.44 141.94 C-109.56 134.06 -106.89 130.1 -100.94 125.05 C-96.75 122.13 -92.3 119.93 -87.67 117.79 C-81.64 114.99 -77.34 112.04 -73.81 106.25 C-72.33 103.83 -72.33 103.83 -71 102 C-70.34 102 -69.68 102 -69 102 C-68.77 103.06 -68.54 104.12 -68.3 105.22 C-67.97 106.65 -67.64 108.07 -67.31 109.5 C-67.09 110.54 -67.09 110.54 -66.86 111.61 C-65.56 117.13 -63.23 121.36 -60 126 C-60.12 125.42 -60.24 124.85 -60.37 124.25 C-64.83 102.56 -66.88 82.26 -56 62 C-55.6 61.23 -55.21 60.46 -54.8 59.66 C-50.2 51.32 -43.69 44.69 -37 38 C-38.61 38.93 -40.21 39.87 -41.81 40.81 C-42.71 41.33 -43.6 41.86 -44.52 42.39 C-46.99 43.87 -46.99 43.87 -48.7 45.7 C-49.13 46.13 -49.56 46.56 -50 47 C-50.66 47 -51.32 47 -52 47 C-52.66 48.32 -53.32 49.64 -54 51 C-55 48 -55 48 -53.88 45.29 C-42.69 24.77 -28.13 9.4 -6 1 C-3.88 0.39 -2.21 0 0 0 Z " fill="#00D5A3" transform="translate(115,5)"/>
<path d="M0 0 C4.66 1.61 7.72 4.92 10.54 8.88 C11.47 12.07 11.54 14.51 11.54 17.88 C12.2 17.88 12.86 17.88 13.54 17.88 C13.54 14.58 13.54 11.28 13.54 7.88 C14.59 7.85 15.64 7.83 16.73 7.8 C24.72 7.51 31.49 7.09 38.54 2.88 C37.95 9.32 35.94 14.55 32.73 20.13 C32.4 20.71 32.07 21.28 31.73 21.88 C29.33 25.9 26.6 29.36 23.54 32.88 C32.19 27.69 32.19 27.69 39.54 20.88 C37.45 33.23 29.02 43.77 19.23 51.19 C3.57 61.86 3.57 61.86 -4.46 60.88 C-7.06 59.79 -9.39 58.69 -11.83 57.32 C-12.5 56.95 -13.16 56.58 -13.84 56.21 C-26.1 49.26 -36.96 37.48 -41.46 23.88 C-41.13 22.89 -40.8 21.9 -40.46 20.88 C-39.92 21.63 -39.37 22.37 -38.82 23.14 C-36.32 26.04 -33.96 27.71 -30.71 29.69 C-29.72 30.3 -28.74 30.9 -27.72 31.52 C-26.6 32.19 -26.6 32.19 -25.46 32.88 C-26.12 32.09 -26.78 31.3 -27.47 30.49 C-34.1 22.4 -40.46 13.8 -40.46 2.88 C-39.8 2.88 -39.14 2.88 -38.46 2.88 C-38.46 3.54 -38.46 4.2 -38.46 4.88 C-37.67 5.02 -36.89 5.17 -36.08 5.32 C-33.46 5.88 -33.46 5.88 -31.46 6.88 C-28.58 7.11 -25.72 7.3 -22.83 7.44 C-22.03 7.48 -21.23 7.53 -20.4 7.57 C-18.42 7.68 -16.44 7.78 -14.46 7.88 C-14.79 11.18 -15.12 14.48 -15.46 17.88 C-14.8 17.88 -14.14 17.88 -13.46 17.88 C-13.58 16.58 -13.58 16.58 -13.71 15.25 C-13.23 8.8 -8.85 5.06 -4.34 0.88 C-2.46 -0.12 -2.46 -0.12 0 0 Z " fill="#00D5A3" transform="translate(116.45703125,95.12109375)"/>
<path d="M0 0 C14.17 10.01 26.06 23.5 32 40 C31.69 43.42 31.69 43.42 31 46 C30.01 46.33 29.02 46.66 28 47 C28 46.34 28 45.68 28 45 C28.66 45 29.32 45 30 45 C29.72 43.58 29.42 42.17 29.12 40.75 C28.96 39.96 28.8 39.17 28.63 38.36 C28 35.98 27.32 34.08 26 32 C25.01 31.67 24.02 31.34 23 31 C21.16 29.4 19.74 27.67 18.22 25.76 C11.35 17.24 4.44 9.7 -5 4 C-6.62 3.02 -6.62 3.02 -8.27 2.02 C-12.17 -0.2 -16.23 -1.74 -20.44 -3.25 C-21.79 -3.74 -23.14 -4.23 -24.48 -4.72 C-25.64 -5.14 -26.8 -5.57 -28 -6 C-28.08 -4.98 -28.16 -3.95 -28.24 -2.89 C-28.54 0.89 -28.86 4.68 -29.17 8.47 C-29.31 10.11 -29.44 11.76 -29.57 13.4 C-29.75 15.75 -29.95 18.11 -30.15 20.46 C-30.2 21.2 -30.26 21.94 -30.32 22.7 C-30.47 24.48 -30.73 26.24 -31 28 C-31.99 28.49 -31.99 28.49 -33 29 C-34.61 5.42 -34.61 5.42 -32 -6 C-57.09 3.43 -74.33 17.58 -86 42 C-85.67 42.33 -85.34 42.66 -85 43 C-84.36 42.3 -83.72 41.6 -83.06 40.88 C-78.25 36.07 -72.82 32.01 -66 31 C-66.68 31.52 -67.36 32.03 -68.06 32.56 C-80.27 42.69 -88.75 55.69 -93 71 C-93.21 71.72 -93.41 72.44 -93.62 73.19 C-97.02 87.15 -94.81 101.18 -92 115 C-91.66 117 -91.32 119 -91 121 C-97.32 115.59 -99.85 108.05 -101 100 C-101 98.68 -101 97.36 -101 96 C-101.66 96 -102.32 96 -103 96 C-103.23 96.7 -103.45 97.4 -103.69 98.12 C-108.21 108.02 -117.78 112.55 -127.25 116.94 C-132.75 119.6 -136.74 122.79 -140 128 C-141.91 133.88 -141.79 139.08 -139 144.56 C-133.27 153.93 -124.63 158.92 -114.25 161.69 C-108.61 162.91 -103.12 163.29 -97.38 163.5 C-77.68 164.23 -57.01 166.56 -42.12 180.79 C-36.92 186.46 -35.86 191.35 -36 199 C-35.57 201.31 -35.57 201.31 -35 203 C-38.52 200.66 -38.56 199.85 -39.69 195.94 C-42.67 187.39 -47.6 181.97 -55.56 177.69 C-67.37 172.3 -79.8 170.07 -92.71 169.76 C-109.87 169.31 -125.77 166.78 -138.94 154.81 C-144.26 149.16 -146.52 143.01 -147.44 135.38 C-146.59 128.83 -144.89 122.64 -140 118 C-133.68 113.67 -126.77 110.24 -119.98 106.71 C-113.76 103.14 -110.53 99.12 -106.75 93.14 C-104.84 90.81 -103.94 90.33 -101 90 C-101.09 88.48 -101.09 88.48 -101.19 86.94 C-101.14 74.36 -96.81 62.6 -91.79 51.26 C-91.53 50.51 -91.27 49.77 -91 49 C-91.33 48.34 -91.66 47.68 -92 47 C-92.67 41.32 -90.72 37.64 -88.06 32.81 C-87.66 32.06 -87.25 31.31 -86.83 30.54 C-83.21 24.04 -79.06 18.48 -74 13 C-73.39 12.3 -72.78 11.59 -72.15 10.87 C-51.65 -11.41 -25.61 -16 0 0 Z " fill="#090908" transform="translate(147,11)"/>
<path d="M0 0 C0.66 0 1.32 0 2 0 C2.56 0.87 3.11 1.73 3.69 2.62 C8.84 10.61 16.66 14.01 25 18 C30.38 20.68 34.64 22.83 38 28 C38.58 28.7 39.16 29.4 39.75 30.12 C42.04 35.4 42.05 41.05 40.12 46.47 C34.96 56.42 27.33 61.96 17 66 C9.42 68.34 1.94 69.16 -5.94 69.5 C-23.82 70.29 -39.66 74.75 -53.3 86.75 C-55 88 -55 88 -58 88 C-50.1 78.48 -41.38 70.98 -30 66 C-28.31 65.25 -28.31 65.25 -26.59 64.49 C-20.83 62.35 -14.82 62.04 -8.75 61.5 C11.21 59.94 11.21 59.94 27.44 49.31 C30.77 44.38 30.65 39.84 30 34 C27.97 27.49 21.77 25 16.17 21.98 C7.64 17.29 3.67 10.89 0 2 C0 1.34 0 0.68 0 0 Z " fill="#01D4A2" transform="translate(189,110)"/>
<path d="M0 0 C19.34 3.49 35.69 15.72 46.81 31.62 C49.54 35.61 52.12 39.54 54 44 C53.67 44.99 53.34 45.98 53 47 C52.43 46.12 51.86 45.24 51.28 44.33 C40.98 28.94 25.46 18.58 8 13 C7.82 14.3 7.64 15.59 7.45 16.93 C6.79 21.63 6.11 26.34 5.43 31.04 C5.15 32.98 4.87 34.91 4.6 36.84 C4.22 39.48 3.83 42.12 3.44 44.75 C3.32 45.57 3.21 46.38 3.09 47.22 C2.8 49.16 2.41 51.08 2 53 C1.01 53.49 1.01 53.49 0 54 C-3.57 46.86 -2.19 36.34 -2.19 28.61 C-2.19 26.57 -2.21 24.53 -2.22 22.5 C-2.24 14.77 -1.75 7.54 0 0 Z " fill="#01D5A3" transform="translate(119,5)"/>
<path d="M0 0 C7.63 1.72 12.81 7.05 17.31 13.19 C21.26 19.45 23 26.64 23 34 C22.24 33.69 21.47 33.38 20.69 33.06 C18.81 32.32 16.91 31.64 15 31 C15.33 31.99 15.66 32.98 16 34 C17.2 45.92 14.22 55.86 6.67 65.18 C2.47 69.75 -1.88 74.28 -8 76 C-7.13 75.01 -6.27 74.02 -5.38 73 C-4.25 71.67 -3.12 70.33 -2 69 C-1.49 68.42 -0.97 67.84 -0.44 67.25 C6.37 59.06 10.16 47.55 10.1 36.92 C10.09 35.52 10.09 35.52 10.09 34.1 C10.08 33.14 10.07 32.18 10.06 31.19 C10.06 30.21 10.05 29.23 10.05 28.22 C10.04 25.81 10.02 23.41 10 21 C12.17 21.51 14 22 16 23 C12.85 14.61 7.78 8.48 1.32 2.35 C0 1 0 1 0 0 Z " fill="#01D3A2" transform="translate(157,75)"/>
<path d="M0 0 C28.98 14.16 28.98 14.16 33.38 25.56 C34.99 34.43 33.57 42.69 28.44 50.19 C18.78 62.02 4.55 66.19 -10 68 C-12.71 68.23 -15.41 68.37 -18.12 68.5 C-28.97 69.04 -39.36 70.83 -49 76 C-49.76 76.4 -50.53 76.79 -51.31 77.2 C-57.23 80.5 -62.1 84.58 -67.16 89.02 C-71.74 92.95 -77.69 98 -84 98 C-84 97.34 -84 96.68 -84 96 C-83.45 95.79 -82.91 95.58 -82.35 95.37 C-75.07 92.4 -69.58 88.05 -63.63 82.98 C-57.54 77.89 -51.33 74.08 -44 71 C-43.43 70.75 -42.85 70.5 -42.26 70.24 C-33.51 66.84 -23.83 66.64 -14.57 65.77 C1.01 64.28 14.36 61.68 25.59 49.81 C27.74 47.05 28.86 44.3 30 41 C29.34 41 28.68 41 28 41 C28.07 40.09 28.14 39.19 28.21 38.25 C28.54 30.93 28.45 25.72 23.85 19.82 C21.4 17.41 18.8 15.76 15.8 14.11 C14 13 14 13 12.12 10.56 C9.29 7.14 5.91 5.45 2.05 3.33 C1.37 2.89 0.7 2.45 0 2 C0 1.34 0 0.68 0 0 Z " fill="#030303" transform="translate(201,116)"/>
<path d="M0 0 C0.66 0.33 1.32 0.66 2 1 C1.52 1.7 1.03 2.39 0.54 3.11 C-2.18 8.21 -1.78 13.38 -1 19 C1.53 26.01 5.7 30.13 12.05 33.84 C14 35 14 35 16 37 C8.49 36.52 2.84 33.46 -2.81 28.56 C-3.53 27.72 -4.26 26.87 -5 26 C-5.76 25.11 -6.53 24.23 -7.31 23.31 C-9.63 18.76 -10.04 15.01 -9 10 C-6.72 5.69 -4.05 2.7 0 0 Z " fill="#0C110F" transform="translate(21,131)"/>
<path d="M0 0 C0.66 0.99 1.32 1.98 2 3 C1.09 4.13 0.17 5.26 -0.75 6.38 C-1.26 7 -1.77 7.63 -2.3 8.27 C-4.93 10.94 -7.19 11.88 -10.88 12.44 C-15.22 11.83 -16.85 10 -20 7 C-18.67 4.35 -17.39 4.13 -14.69 3 C-12.37 2.02 -10.12 1.06 -7.9 -0.14 C-5.01 -1.45 -2.99 -0.84 0 0 Z " fill="#FEFEFE" transform="translate(146,82)"/>
<path d="M0 0 C2.74 1.2 5.36 2.59 8 4 C9.33 4.67 10.66 5.34 12 6 C8.25 10.88 8.25 10.88 6 12 C0.7 12.6 -1.85 11.23 -6 8 C-6.64 7.53 -7.28 7.05 -7.94 6.56 C-9 5 -9 5 -8.81 2.38 C-7.22 -2.27 -4.11 -0.99 0 0 Z " fill="#FEFEFE" transform="translate(93,82)"/>
<path d="M0 0 C7.06 2.2 12.76 7.06 17 13 C21.73 22.98 24.41 32.97 24 44 C21.98 40.46 21.18 36.89 20.25 32.94 C17.11 20.64 10.8 9.2 0 2 C0 1.34 0 0.68 0 0 Z " fill="#03CF9F" transform="translate(160,55)"/>
<path d="M0 0 C13.19 -0.55 22.3 -0.39 32.62 8.75 C34.1 10.15 35.56 11.57 37 13 C33.32 13 31.5 11.88 28.25 10.19 C27.17 9.64 26.1 9.09 24.99 8.53 C24 8.02 23.02 7.52 22 7 C16.87 4.48 12.16 3.36 6.55 2.53 C4.06 2.01 2.2 1.24 0 0 Z " fill="#02CF9F" transform="translate(127,59)"/>
<path d="M0 0 C0.66 0.33 1.32 0.66 2 1 C-7.47 7.73 -17.57 9.35 -29 10 C-21.77 5.18 -13.04 3.4 -4.65 1.61 C-2.04 1.12 -2.04 1.12 0 0 Z " fill="#02D2A1" transform="translate(151,155)"/>
<path d="M0 0 C0.33 0 0.66 0 1 0 C0.66 8.18 -0.73 15.27 -6.25 21.56 C-6.83 22.04 -7.41 22.51 -8 23 C-7.52 16.93 -6.16 12.42 -3.44 7 C-3.11 6.32 -2.78 5.64 -2.44 4.94 C-1.64 3.29 -0.82 1.64 0 0 Z " fill="#02D6A4" transform="translate(184,121)"/>
<path d="M0 0 C0.66 0 1.32 0 2 0 C0.59 3.04 -1.09 5.59 -3.12 8.25 C-3.66 8.96 -4.2 9.66 -4.76 10.39 C-5.17 10.92 -5.58 11.45 -6 12 C-6.66 11.67 -7.32 11.34 -8 11 C-6.86 9.35 -5.71 7.71 -4.56 6.06 C-3.92 5.15 -3.29 4.23 -2.63 3.29 C-1 1 -1 1 0 0 Z " fill="#03D1A2" transform="translate(162,150)"/>
<path d="M0 0 C0.33 0 0.66 0 1 0 C0.89 1.81 0.76 3.63 0.62 5.44 C0.56 6.45 0.49 7.46 0.41 8.5 C0.28 9.32 0.14 10.15 0 11 C-0.99 11.5 -0.99 11.5 -2 12 C-3.35 5.75 -3.35 5.75 -1.62 2.06 C-1.09 1.38 -0.55 0.7 0 0 Z " fill="#05BB90" transform="translate(121,47)"/>
<path d="M0 0 C3.33 1.67 6.67 3.33 10 5 C10 5.33 10 5.66 10 6 C5.44 5.56 2.42 5.15 -1 2 C-0.67 1.34 -0.34 0.68 0 0 Z " fill="#0C2921" transform="translate(27,162)"/>
<path d="M0 0 C0.99 0.33 1.98 0.66 3 1 C1.61 4.37 0.02 5.99 -3 8 C-1.12 2.25 -1.12 2.25 0 0 Z " fill="#0C2A21" transform="translate(62,95)"/>
</svg>
