<?xml version="1.0" encoding="UTF-8"?>
<svg version="1.1" xmlns="http://www.w3.org/2000/svg" width="50" height="50">
<path d="M0 0 C3.76748454 1.0959955 5.74849525 2.1528185 8.4375 5 C8.685 6.299375 8.685 6.299375 8.9375 7.625 C9.185 8.800625 9.185 8.800625 9.4375 10 C11.7805809 11.12085312 11.7805809 11.12085312 14.4375 12 C17.57006696 14.78450397 19.23915564 16.54547471 19.8125 20.75 C19.29593413 25.22690417 17.47202452 26.73788614 14.4375 30 C14.4375 31.03884057 14.545069 32.07569 14.6484375 33.109375 C14.94650123 37.90678173 15.08061578 40.19198274 12 44.0625 C8.69326707 46.3060753 5.51955628 46.53754965 1.60546875 46.75390625 C-1.47545371 47.10363258 -3.82438072 48.60051681 -6.5625 50 C-11.19686547 50.56747332 -13.87029675 49.87171364 -17.5625 47 C-19.59921629 43.99341882 -19.5625 42.80903404 -19.5625 39 C-21.17125 38.6596875 -21.17125 38.6596875 -22.8125 38.3125 C-27.04422749 36.83139538 -28.40271131 35.88761964 -30.5625 32 C-31.04001931 28.1798455 -31.13784339 25.95056734 -29.125 22.625 C-27.50068186 19.89614553 -27.30212556 18.58964026 -27.0625 15.5 C-26.73332237 11.62086756 -26.09233951 9.09202606 -23.5625 6 C-20.44354817 4.03120394 -18.32293664 3.864517 -14.6875 4.125 C-8.63855389 4.29327229 -5.75984353 0 0 0 Z M-6.5625 5 C-2.5625 6 -2.5625 6 -2.5625 6 Z M13.4375 23 C14.4375 25 14.4375 25 14.4375 25 Z M-23.5625 32 C-22.5625 34 -22.5625 34 -22.5625 34 Z " fill="#4D664C" transform="translate(30.5625,0)"/>
<path d="M0 0 C3.76748454 1.0959955 5.74849525 2.1528185 8.4375 5 C8.685 6.299375 8.685 6.299375 8.9375 7.625 C9.185 8.800625 9.185 8.800625 9.4375 10 C11.7805809 11.12085312 11.7805809 11.12085312 14.4375 12 C17.57006696 14.78450397 19.23915564 16.54547471 19.8125 20.75 C19.29593413 25.22690417 17.47202452 26.73788614 14.4375 30 C14.4375 31.03884057 14.545069 32.07569 14.6484375 33.109375 C14.94650123 37.90678173 15.08061578 40.19198274 12 44.0625 C8.69326707 46.3060753 5.51955628 46.53754965 1.60546875 46.75390625 C-1.47545371 47.10363258 -3.82438072 48.60051681 -6.5625 50 C-11.19686547 50.56747332 -13.87029675 49.87171364 -17.5625 47 C-19.59921629 43.99341882 -19.5625 42.80903404 -19.5625 39 C-21.17125 38.6596875 -21.17125 38.6596875 -22.8125 38.3125 C-27.04422749 36.83139538 -28.40271131 35.88761964 -30.5625 32 C-31.04001931 28.1798455 -31.13784339 25.95056734 -29.125 22.625 C-27.50068186 19.89614553 -27.30212556 18.58964026 -27.0625 15.5 C-26.73332237 11.62086756 -26.09233951 9.09202606 -23.5625 6 C-20.44354817 4.03120394 -18.32293664 3.864517 -14.6875 4.125 C-8.63855389 4.29327229 -5.75984353 0 0 0 Z M-3.5625 2 C-3.2325 2.66 -2.9025 3.32 -2.5625 4 C-1.5725 4.33 -0.5825 4.66 0.4375 5 C1.125 7.0625 1.125 7.0625 1.4375 9 C0.47650391 8.83951172 0.47650391 8.83951172 -0.50390625 8.67578125 C-6.59418544 7.831674 -10.20791806 7.89434247 -15.5625 11 C-17.94041979 13.04044964 -17.94041979 13.04044964 -19.5625 15 C-19.93173077 9.46153846 -19.93173077 9.46153846 -18.0625 7.125 C-17.5675 6.75375 -17.0725 6.3825 -16.5625 6 C-19.83328876 6.5639291 -21.42621562 7.45680431 -23.5625 10 C-24.69776957 12.27053914 -24.76159935 13.85375736 -24.9375 16.375 C-25.31332571 20.23799543 -26.14694733 21.95430316 -28.5625 25 C-28.97952122 28.0842309 -28.97952122 28.0842309 -28.5625 31 C-27.9025 31.66 -27.2425 32.32 -26.5625 33 C-25.0775 29.535 -25.0775 29.535 -23.5625 26 C-23.12550781 26.99580078 -23.12550781 26.99580078 -22.6796875 28.01171875 C-19.47810123 34.90821748 -16.77874087 39.07519439 -9.6875 42.3125 C-8.98625 42.539375 -8.285 42.76625 -7.5625 43 C-8.5625 44 -8.5625 44 -10.41015625 44.09765625 C-12.4609375 44.06510417 -14.51171875 44.03255208 -16.5625 44 C-14.32078653 46.75903196 -13.20238574 47.90469787 -9.625 48.4375 C-6.55646537 48.21466028 -6.55646537 48.21466028 -4.3125 46.5625 C-1.36304918 44.88667567 0.17388587 44.75729439 3.5 44.5625 C7.09918797 44.31575984 8.13667007 44.23636637 11.0625 41.9375 C11.51625 41.298125 11.97 40.65875 12.4375 40 C12.1075 39.34 11.7775 38.68 11.4375 38 C9.1275 38.99 6.8175 39.98 4.4375 41 C4.4375 41.33 4.4375 41.66 4.4375 42 C3.53 41.95875 2.6225 41.9175 1.6875 41.875 C-1.4407046 41.99531556 -2.94864006 42.3914708 -5.5625 44 C-5.31640625 42.109375 -5.31640625 42.109375 -4.5625 40 C-2.71484375 38.953125 -2.71484375 38.953125 -0.5 38.25 C0.23347656 38.00765625 0.96695312 37.7653125 1.72265625 37.515625 C2.28855469 37.34546875 2.85445312 37.1753125 3.4375 37 C2.4475 37.99 1.4575 38.98 0.4375 40 C1.9225 40.495 1.9225 40.495 3.4375 41 C4.41863243 39.70982586 5.39734199 38.41780894 6.375 37.125 C6.92027344 36.40570313 7.46554688 35.68640625 8.02734375 34.9453125 C10.54244382 31.47572848 10.57274845 29.26335482 10.5625 25 C10.56507812 23.9275 10.56765625 22.855 10.5703125 21.75 C10.6247341 19.03817948 10.6247341 19.03817948 9.4375 17 C11.875 18.1875 11.875 18.1875 14.4375 20 C15.25 22.6875 15.25 22.6875 15.4375 25 C16.0975 24.67 16.7575 24.34 17.4375 24 C17.85640218 21.21061788 17.85640218 21.21061788 17.4375 18 C14.51010327 14.26340398 14.51010327 14.26340398 10.25 12.5625 C9.651875 12.376875 9.05375 12.19125 8.4375 12 C7.77083333 10 7.10416667 8 6.4375 6 C3.80516842 3.29652432 2.41206059 2.08662761 -1.375 1.75 C-2.096875 1.8325 -2.81875 1.915 -3.5625 2 Z M-6.5625 5 C-2.5625 6 -2.5625 6 -2.5625 6 Z M13.4375 23 C14.4375 25 14.4375 25 14.4375 25 Z M-23.5625 32 C-22.5625 34 -22.5625 34 -22.5625 34 Z " fill="#8CE029" transform="translate(30.5625,0)"/>
<path d="M0 0 C-0.45224761 5.91492272 -1.1582605 11.35199888 -3 17 C-0.69 16.34 1.62 15.68 4 15 C3.67 16.98 3.34 18.96 3 21 C1.39743892 21.50512244 -0.20711792 22.00391627 -1.8125 22.5 C-2.70582031 22.7784375 -3.59914063 23.056875 -4.51953125 23.34375 C-7 24 -7 24 -10 24 C-9.505 19.545 -9.505 19.545 -9 15 C-9.99 18.3 -10.98 21.6 -12 25 C-15.3125 25.6875 -15.3125 25.6875 -19 26 C-22.08545279 23.82159598 -22.79605394 21.17796237 -23.75 17.625 C-24.01296875 16.68914063 -24.2759375 15.75328125 -24.546875 14.7890625 C-25.14959122 11.07924025 -24.67363094 8.34726188 -23 5 C-15.9264531 1.84216656 -7.74052018 -0.17592091 0 0 Z " fill="#EFF0F0" transform="translate(35,12)"/>
<path d="M0 0 C2.66666667 0 5.33333333 0 8 0 C7.01 0.33 6.02 0.66 5 1 C5.33 1.66 5.66 2.32 6 3 C6.51207216 8.60760991 6.81070632 13.43449813 4.1875 18.5 C3.1046875 19.7375 3.1046875 19.7375 2 21 C1.4225 21.78375 0.845 22.5675 0.25 23.375 C-0.1625 23.91125 -0.575 24.4475 -1 25 C-1.99 24.67 -2.98 24.34 -4 24 C-3.34 23.01 -2.68 22.02 -2 21 C-5.51202512 22.20728609 -5.51202512 22.20728609 -9 24 C-10.04289755 26.06890419 -10.04289755 26.06890419 -10 28 C-9.46375 27.67 -8.9275 27.34 -8.375 27 C-5.46051249 25.77284737 -3.14131003 26 0 26 C2.13355094 25.18330183 2.13355094 25.18330183 4 24 C5.33333333 23.33333333 6.66666667 22.66666667 8 22 C6.84826645 24.46800047 5.95216435 26.04783565 4 28 C1.79296875 28.30859375 1.79296875 28.30859375 -0.8125 28.4375 C-5.06470075 28.7669388 -7.39176334 29.69473769 -11 32 C-14.0625 32.4375 -14.0625 32.4375 -17 32 C-19.375 30 -19.375 30 -21 28 C-18.36 28 -15.72 28 -13 28 C-13 27.34 -13 26.68 -13 26 C-14.051875 25.62875 -15.10375 25.2575 -16.1875 24.875 C-20.90812703 22.87376055 -23.70019286 19.59961429 -26 15 C-26.13415472 12.3276379 -26.04318541 9.67749512 -26 7 C-25.01 7.495 -25.01 7.495 -24 8 C-23.21875 10.43359375 -23.21875 10.43359375 -22.5 13.4375 C-21.57875896 17.66777825 -21.57875896 17.66777825 -19 21 C-15.41656024 21.16677282 -15.41656024 21.16677282 -12 21 C-11.81824219 19.95199219 -11.81824219 19.95199219 -11.6328125 18.8828125 C-11.38144531 17.51769531 -11.38144531 17.51769531 -11.125 16.125 C-10.96257813 15.22007813 -10.80015625 14.31515625 -10.6328125 13.3828125 C-10 11 -10 11 -8 9 C-8.66 12.63 -9.32 16.26 -10 20 C-5.71 19.01 -1.42 18.02 3 17 C3 15.35 3 13.7 3 12 C2.67 12.33 2.34 12.66 2 13 C0.33382885 13.04063832 -1.33388095 13.042721 -3 13 C-2.45144652 8.428721 -1.58255197 4.32564205 0 0 Z " fill="#424956" transform="translate(35,16)"/>
<path d="M0 0 C2.86724686 0.57344937 3.8614515 0.8614515 6 3 C6.625 5.125 6.625 5.125 7 7 C7.33 5.02 7.66 3.04 8 1 C8.66 1 9.32 1 10 1 C10.35154608 3.95298707 10.55995395 6.14533344 8.88671875 8.69921875 C7.62716445 10.16455939 6.31608251 11.5852113 5 13 C5 14.03884057 5.107569 15.07569 5.2109375 16.109375 C5.63367101 22.91337156 5.63367101 22.91337156 3.9453125 25.80859375 C1.79622345 27.85894087 -0.19313751 28.97397218 -3.1796875 29.0703125 C-5.375 28.8125 -5.375 28.8125 -9 28 C-9 27.67 -9 27.34 -9 27 C-5.97265625 26.75585938 -5.97265625 26.75585938 -2.9453125 26.51171875 C-0.60480784 26.12606964 -0.60480784 26.12606964 1 23 C0.59652344 23.495 0.19304688 23.99 -0.22265625 24.5 C-2.49753206 26.41989519 -3.5223407 26.23596568 -6.4375 26 C-10.18110485 25.85266031 -10.18110485 25.85266031 -13.5625 27.5 C-14.036875 27.995 -14.51125 28.49 -15 29 C-15.66 28.67 -16.32 28.34 -17 28 C-16.34 27.34 -15.68 26.68 -15 26 C-15 24.68 -15 23.36 -15 22 C-8.375 20 -8.375 20 -5 20 C-5.99 20.99 -6.98 21.98 -8 23 C-7.34 23.33 -6.68 23.66 -6 24 C-5.7525 23.46375 -5.505 22.9275 -5.25 22.375 C-4 20 -4 20 -1.875 17.625 C1.60366079 12.67757132 0.28289688 5.73652013 0 0 Z M4 6 C5 8 5 8 5 8 Z " fill="#87D72D" transform="translate(40,17)"/>
<path d="M0 0 C2.66666667 0 5.33333333 0 8 0 C7.01 0.33 6.02 0.66 5 1 C5.33 1.66 5.66 2.32 6 3 C6.14779962 4.9753988 6.22118966 6.95678924 6.25 8.9375 C6.28867187 10.52884766 6.28867187 10.52884766 6.328125 12.15234375 C6 15 6 15 4.484375 16.87890625 C3.74960937 17.43384766 3.74960937 17.43384766 3 18 C3 16.02 3 14.04 3 12 C2.67 12.33 2.34 12.66 2 13 C0.33382885 13.04063832 -1.33388095 13.042721 -3 13 C-2.45144652 8.428721 -1.58255197 4.32564205 0 0 Z " fill="#394150" transform="translate(35,16)"/>
<path d="M0 0 C-0.33 1.98 -0.66 3.96 -1 6 C-3.64 6 -6.28 6 -9 6 C-9 7.65 -9 9.3 -9 11 C-8.34 11 -7.68 11 -7 11 C-7 11.99 -7 12.98 -7 14 C-8.32 14 -9.64 14 -11 14 C-12.42258812 10.17679443 -13.24042276 7.08718695 -13 3 C-11.906875 2.690625 -10.81375 2.38125 -9.6875 2.0625 C-2.52941176 0 -2.52941176 0 0 0 Z " fill="#414958" transform="translate(29,18)"/>
<path d="M0 0 C0 3 0 3 -1.1953125 4.65625 C-3.50992652 6.37968555 -5.01221538 6.39558232 -7.875 6.5 C-12.12283816 6.7893455 -14.39525255 7.69696691 -18 10 C-21.0625 10.4375 -21.0625 10.4375 -24 10 C-26.375 8 -26.375 8 -28 6 C-25.36 6 -22.72 6 -20 6 C-19.67 4.35 -19.34 2.7 -19 1 C-18.01 1.33 -17.02 1.66 -16 2 C-16.33 3.32 -16.66 4.64 -17 6 C-16.195625 5.505 -16.195625 5.505 -15.375 5 C-12.46051249 3.77284737 -10.14131003 4 -7 4 C-4.3636952 2.94547808 -2.38272092 1.58848061 0 0 Z " fill="#4E6D49" transform="translate(42,38)"/>
<path d="M0 0 C2.19219402 2.36689329 2.9871902 3.51727269 3.07421875 6.796875 C2.94660156 7.77140625 2.81898437 8.7459375 2.6875 9.75 C2.50767578 11.22726563 2.50767578 11.22726563 2.32421875 12.734375 C2.21722656 13.48203125 2.11023438 14.2296875 2 15 C1.34 14.34 0.68 13.68 0 13 C-0.99 15.31 -1.98 17.62 -3 20 C-5 18 -5 18 -5.3125 15.125 C-4.97113383 11.71133828 -4.45178682 10.3609799 -2 8 C-1.01 8 -0.02 8 1 8 C0.67 7.34 0.34 6.68 0 6 C-0.039992 4.00039988 -0.04346799 1.99952758 0 0 Z " fill="#49604A" transform="translate(7,13)"/>
<path d="M0 0 C0.99 0 1.98 0 3 0 C3 0.66 3 1.32 3 2 C3.92232422 2.03867188 3.92232422 2.03867188 4.86328125 2.078125 C11.43710021 2.53944563 11.43710021 2.53944563 14.0625 4.6875 C15.23506168 7.57981882 15.21079572 9.90832951 15 13 C14.01 13.495 14.01 13.495 13 14 C12 11 11 8 10 5 C8.35 5 6.7 5 5 5 C4.67 5.66 4.34 6.32 4 7 C3.34 6.34 2.68 5.68 2 5 C2 3.68 2 2.36 2 1 C1.34 0.67 0.68 0.34 0 0 Z " fill="#83BD49" transform="translate(33,11)"/>
<path d="M0 0 C0.66 0.33 1.32 0.66 2 1 C0.515 2.485 0.515 2.485 -1 4 C1.31 4 3.62 4 6 4 C5.67 4.99 5.34 5.98 5 7 C4.39671875 6.96519531 3.7934375 6.93039063 3.171875 6.89453125 C-1.92525488 6.6485551 -1.92525488 6.6485551 -6.5625 8.5 C-7.036875 8.995 -7.51125 9.49 -8 10 C-8.66 9.67 -9.32 9.34 -10 9 C-9.34 8.34 -8.68 7.68 -8 7 C-8 5.68 -8 4.36 -8 3 C-6.865625 2.690625 -5.73125 2.38125 -4.5625 2.0625 C-1.21224901 1.37075469 -1.21224901 1.37075469 0 0 Z " fill="#7BC335" transform="translate(33,36)"/>
<path d="M0 0 C6.34917127 0.36629834 6.34917127 0.36629834 9.375 3.3125 C10.79090842 5.6541947 11.6031217 7.32107145 12 10 C13.32 10.33 14.64 10.66 16 11 C14 12 14 12 11.6875 12.0625 C7.99846922 10.60404597 7.10566475 8.33640581 5.30859375 4.91015625 C3.78740837 2.68967968 2.46538205 1.99553483 0 1 C0 0.67 0 0.34 0 0 Z " fill="#4B674A" transform="translate(27,2)"/>
<path d="M0 0 C0.99 0.495 0.99 0.495 2 1 C2.78125 3.43359375 2.78125 3.43359375 3.5 6.4375 C4.42124104 10.66777825 4.42124104 10.66777825 7 14 C10.08347826 14.16681109 10.08347826 14.16681109 13 14 C12.34 15.32 11.68 16.64 11 18 C5.97101246 16.56314642 4.04322498 14.05763331 1 10 C-0.60725635 6.78548731 -0.05748185 3.56387464 0 0 Z " fill="#414B55" transform="translate(9,23)"/>
<path d="M0 0 C0 3 0 3 -1.1875 4.65234375 C-3.52607392 6.3911541 -5.10979636 6.42917215 -8 6.5625 C-11.68903651 6.74365804 -12.81190086 6.87460058 -16 9 C-16.99 8.67 -17.98 8.34 -19 8 C-12.17884914 3.72006221 -12.17884914 3.72006221 -7 4 C-4.39175059 2.92601495 -2.36461808 1.57641206 0 0 Z " fill="#44584C" transform="translate(42,38)"/>
<path d="M0 0 C2.35448165 2.55068845 2.98327924 3.71017358 3.1875 7.25 C3.125625 8.1575 3.06375 9.065 3 10 C1.02 10.99 -0.96 11.98 -3 13 C-2.34 11.35 -1.68 9.7 -1 8 C-0.34 8 0.32 8 1 8 C0.67 7.34 0.34 6.68 0 6 C-0.039992 4.00039988 -0.04346799 1.99952758 0 0 Z " fill="#82CF30" transform="translate(7,13)"/>
<path d="M0 0 C1.98 0 3.96 0 6 0 C5.25 5.75 5.25 5.75 3 8 C3 6.68 3 5.36 3 4 C2.01 4 1.02 4 0 4 C0 2.68 0 1.36 0 0 Z " fill="#F7F7F7" transform="translate(20,24)"/>
<path d="M0 0 C-0.33 1.98 -0.66 3.96 -1 6 C-3.31 6 -5.62 6 -8 6 C-8 5.01 -8 4.02 -8 3 C-7.34 3 -6.68 3 -6 3 C-5.525625 2.505 -5.05125 2.01 -4.5625 1.5 C-3 0 -3 0 0 0 Z " fill="#333C4D" transform="translate(29,18)"/>
<path d="M0 0 C0.99 0 1.98 0 3 0 C3 2.97 3 5.94 3 9 C0.08414133 7.54207067 -0.57396059 4.85207882 -2 2 C-1.34 1.34 -0.68 0.68 0 0 Z " fill="#8FE627" transform="translate(42,31)"/>
<path d="M0 0 C3 1 3 1 5 4 C5.125 7.1875 5.125 7.1875 5 10 C4.01 10.495 4.01 10.495 3 11 C1.72746564 7.35206816 0.67170806 3.8063457 0 0 Z " fill="#4E6C49" transform="translate(43,14)"/>
<path d="M0 0 C1.9375 0.75 1.9375 0.75 4 2 C4.75 4.125 4.75 4.125 5 6 C6.32 6.33 7.64 6.66 9 7 C6.3333581 8.33332095 4.83319697 7.67102033 2 7 C1.34 4.69 0.68 2.38 0 0 Z " fill="#5F8D40" transform="translate(34,6)"/>
<path d="M0 0 C0.99 0.495 0.99 0.495 2 1 C2.4140625 3.28515625 2.4140625 3.28515625 2.625 6.0625 C2.69976562 6.98160156 2.77453125 7.90070312 2.8515625 8.84765625 C2.92503906 9.91306641 2.92503906 9.91306641 3 11 C1.03553095 9.3655205 0.07682209 8.53570606 -0.29296875 5.95703125 C-0.1953125 3.97135417 -0.09765625 1.98567708 0 0 Z " fill="#33394F" transform="translate(9,23)"/>
<path d="M0 0 C0.99 0.33 1.98 0.66 3 1 C3.66 0.67 4.32 0.34 5 0 C5.66 0.66 6.32 1.32 7 2 C4.69 3.65 2.38 5.3 0 7 C0 4.69 0 2.38 0 0 Z " fill="#86D72E" transform="translate(10,9)"/>
<path d="M0 0 C1.65 0.33 3.3 0.66 5 1 C4.01 2.485 4.01 2.485 3 4 C-0.125 4.1875 -0.125 4.1875 -3 4 C-2.67 3.34 -2.34 2.68 -2 2 C-1.34 2 -0.68 2 0 2 C0 1.34 0 0.68 0 0 Z " fill="#89DB2D" transform="translate(19,41)"/>
<path d="M0 0 C0.33 0 0.66 0 1 0 C1.66 2.31 2.32 4.62 3 7 C1.68 7 0.36 7 -1 7 C-1.66 6.01 -2.32 5.02 -3 4 C-2.02727325 2.64664105 -1.0260734 1.31337396 0 0 Z " fill="#7BC334" transform="translate(4,29)"/>
<path d="M0 0 C0.33 0 0.66 0 1 0 C1.08114106 1.77007714 1.13925505 3.54122098 1.1875 5.3125 C1.23970703 6.79169922 1.23970703 6.79169922 1.29296875 8.30078125 C1 11 1 11 -0.51171875 12.85546875 C-1.00285156 13.23316406 -1.49398437 13.61085938 -2 14 C-1.855625 13.175 -1.71125 12.35 -1.5625 11.5 C-0.94746848 7.67313722 -0.46439363 3.84783293 0 0 Z " fill="#32334E" transform="translate(40,20)"/>
<path d="M0 0 C0.33 0 0.66 0 1 0 C1 1.65 1 3.3 1 5 C0.34 5 -0.32 5 -1 5 C-0.67 6.32 -0.34 7.64 0 9 C-0.66 9 -1.32 9 -2 9 C-2.125 5.625 -2.125 5.625 -2 2 C-1.34 1.34 -0.68 0.68 0 0 Z " fill="#8DE328" transform="translate(7,25)"/>
<path d="M0 0 C1.36125 0.37125 1.36125 0.37125 2.75 0.75 C-0.69450737 3.04633824 -3.18812283 3.29016485 -7.25 3.75 C-4.05 -0.31153846 -4.05 -0.31153846 0 0 Z " fill="#293247" transform="translate(21.25,12.25)"/>
<path d="M0 0 C0.99 0.33 1.98 0.66 3 1 C4.1875 3.5625 4.1875 3.5625 5 6 C2.03 5.505 2.03 5.505 -1 5 C-0.67 3.35 -0.34 1.7 0 0 Z " fill="#86D72E" transform="translate(29,4)"/>
<path d="M0 0 C1.65 0 3.3 0 5 0 C4.01 0.33 3.02 0.66 2 1 C2.33 1.99 2.66 2.98 3 4 C2.0625 6.1875 2.0625 6.1875 1 8 C0.67 5.36 0.34 2.72 0 0 Z " fill="#4E6B49" transform="translate(38,16)"/>
</svg>
