<?xml version="1.0" encoding="UTF-8"?>
<!-- Generator: https://ezgif.com/png-to-svg -->
<svg version="1.1" xmlns="http://www.w3.org/2000/svg" width="512" height="512" viewBox="-36.912 -38.886 673.68 673.68" preserveAspectRatio="xMidYMid meet">
<path d="M0 0 C2.17 0.01 4.34 -0.02 6.51 -0.05 C36.6 -0.2 61.84 15.05 84.34 33.69 C84.93 34.17 85.51 34.65 86.11 35.14 C87.37 36.45 87.37 36.45 87.37 38.45 C88.03 38.45 88.69 38.45 89.37 38.45 C90.75 39.77 90.75 39.77 92.37 41.7 C93.31 42.8 93.31 42.8 94.26 43.93 C95.3 45.17 95.3 45.17 96.37 46.45 C97.14 47.33 97.91 48.21 98.7 49.12 C109.3 61.46 117.58 74.67 124.37 89.45 C125.1 91.02 125.1 91.02 125.84 92.63 C129.48 100.97 133.37 110.26 133.37 119.45 C133.92 119.52 134.47 119.6 135.03 119.67 C163.32 124.36 187.96 143.51 208.37 162.45 C208.98 163 209.58 163.54 210.2 164.11 C223.06 176.31 233.47 192.79 240.31 209.07 C240.57 209.68 240.83 210.28 241.09 210.91 C245.98 223.29 248.05 235.49 247.89 248.73 C247.87 250.95 247.89 253.16 247.92 255.38 C247.95 270.59 244.38 283.87 237.37 297.45 C236.84 298.53 236.3 299.61 235.75 300.72 C231.7 308.61 226.85 315.5 221.37 322.45 C220.73 323.3 220.08 324.15 219.42 325.02 C214.45 331.56 208.86 337.01 202.62 342.32 C202.01 342.84 201.4 343.37 200.76 343.91 C187.17 355.45 187.17 355.45 184.37 355.45 C184.99 347.9 186.58 340.66 188.27 333.29 C197.73 293.39 197.73 293.39 188.37 254.45 C187.94 253.56 187.51 252.68 187.06 251.77 C181.47 240.8 172.49 229.48 160.37 225.45 C160.54 226 160.7 226.56 160.88 227.14 C164.24 238.49 167.46 249.75 169.37 261.45 C169.54 262.37 169.71 263.29 169.88 264.23 C171.71 275.23 171.77 286.14 171.75 297.26 C171.75 298.76 171.75 298.76 171.75 300.28 C171.71 315.71 170.9 330.37 167.37 345.45 C167.17 346.38 166.96 347.32 166.75 348.29 C157.22 391.77 134.6 429.13 103.56 460.51 C102.87 461.21 102.17 461.91 101.46 462.64 C97.05 467.02 92.45 470.86 87.37 474.45 C104.92 475.39 121.24 469.68 135.37 459.45 C136.21 458.6 136.21 458.6 137.06 457.74 C138.37 456.45 138.37 456.45 140.37 456.45 C140.65 455.85 140.92 455.25 141.2 454.63 C142.32 452.54 143.43 451.16 145.06 449.45 C160.39 431.71 167.14 406.2 174.39 384.31 C175.3 381.65 176.3 379.05 177.37 376.45 C178.36 376.78 179.35 377.11 180.37 377.45 C181.38 379.51 181.38 379.51 182.27 382.24 C182.77 383.76 182.77 383.76 183.28 385.3 C183.79 386.95 183.79 386.95 184.31 388.63 C184.84 390.34 184.84 390.34 185.38 392.07 C195.58 425.95 196.68 461.64 180.68 493.86 C163.74 524.34 134.45 541.51 102 551.15 C76.43 558.25 44.17 561 18.75 552.19 C15.39 551.06 12.92 550.29 9.37 550.45 C5.28 553.08 2.23 556.36 -1.08 559.89 C-19.24 578.12 -48 589.01 -72.63 594.45 C-73.46 594.63 -74.28 594.82 -75.14 595.01 C-83.96 596.74 -92.73 596.82 -101.69 596.82 C-104.29 596.82 -106.9 596.86 -109.5 596.9 C-124.26 597 -137.85 594.71 -151.44 588.7 C-152.23 588.35 -153.02 588.01 -153.84 587.65 C-164.9 582.71 -173.89 575.82 -182.63 567.45 C-183.54 566.58 -184.44 565.71 -185.38 564.82 C-186.12 564.04 -186.86 563.25 -187.63 562.45 C-188.06 562 -188.49 561.55 -188.94 561.08 C-208.65 539.5 -221.63 504.48 -221.63 475.45 C-218.51 476.85 -216.22 478.53 -213.69 480.82 C-211.38 482.9 -209.09 484.86 -206.63 486.76 C-205.97 487.32 -205.31 487.87 -204.63 488.45 C-204.63 489.11 -204.63 489.77 -204.63 490.45 C-203.8 490.79 -203.8 490.79 -202.96 491.14 C-199.94 492.83 -197.76 494.99 -195.25 497.38 C-176.17 515.22 -154.85 530.33 -127.57 529.7 C-117.17 528.81 -106.86 526.42 -97.63 521.45 C-97.3 520.79 -96.97 520.13 -96.63 519.45 C-97.52 519.23 -97.52 519.23 -98.44 519.01 C-127.85 511.79 -155.8 501.14 -180.63 483.45 C-181.31 482.97 -181.99 482.49 -182.68 481.99 C-192.32 475.14 -201.16 467.69 -209.63 459.45 C-210.41 458.7 -210.41 458.7 -211.21 457.93 C-226.68 443.03 -238.99 426.04 -249.63 407.45 C-249.97 406.87 -250.3 406.29 -250.65 405.7 C-263.84 383 -270.56 357.99 -275.63 332.45 C-285.46 350.64 -289.8 369.07 -284.25 389.44 C-280.24 402.3 -272.91 413 -264.63 423.45 C-263.94 424.34 -263.25 425.23 -262.53 426.15 C-258.42 431.39 -254.1 436.46 -249.79 441.54 C-246.68 445.2 -243.58 448.87 -240.5 452.57 C-239.78 453.44 -239.05 454.31 -238.31 455.2 C-236.63 457.45 -236.63 457.45 -235.63 460.45 C-272.08 455.92 -309.38 441.15 -332.63 411.45 C-347.46 390.9 -353.45 369.5 -353.19 344.32 C-353.19 343.42 -353.18 342.52 -353.18 341.6 C-353.08 327.39 -352.1 314.03 -347.63 300.45 C-347.34 299.57 -347.06 298.69 -346.77 297.78 C-339.91 277.15 -329.68 257.71 -315.57 241.13 C-314.8 240.23 -314.8 240.23 -314.01 239.31 C-311.28 236.16 -308.52 233.49 -305.25 230.88 C-303.56 229.41 -303.56 229.41 -302.63 227.45 C-302.58 224.24 -303.04 221.44 -303.75 218.31 C-306.13 207.85 -306.99 197.66 -306.94 186.95 C-306.93 184.98 -306.93 184.98 -306.92 182.97 C-306.62 158.41 -301.56 134.52 -290.63 112.45 C-290.32 111.81 -290.01 111.18 -289.7 110.52 C-277.11 84.66 -255.72 63.5 -228.37 53.63 C-216.01 49.54 -204.29 48.21 -191.32 48.2 C-190.6 48.2 -189.88 48.19 -189.14 48.19 C-164.74 48.23 -144.25 54.91 -121.63 63.45 C-121.63 64.11 -121.63 64.77 -121.63 65.45 C-122.46 65.71 -123.3 65.98 -124.16 66.25 C-178 80.99 -178 80.99 -215.94 119.08 C-217.98 123.14 -219.52 127.05 -220.63 131.45 C-220.83 132.17 -221.03 132.89 -221.24 133.64 C-222.29 137.73 -222.72 141.51 -222.68 145.73 C-222.67 146.62 -222.66 147.51 -222.66 148.42 C-222.64 149.42 -222.64 149.42 -222.63 150.45 C-222.05 149.85 -221.47 149.25 -220.88 148.63 C-209.15 136.54 -197.48 125.12 -183.63 115.45 C-182.44 114.59 -181.25 113.72 -180.05 112.86 C-150.81 92.17 -116.7 81.02 -81.63 75.45 C-80.51 75.26 -79.38 75.07 -78.23 74.88 C-41.62 70.47 -5.17 76.06 29.37 88.45 C18.54 71.26 5.61 58.09 -14.83 52.88 C-21.08 51.5 -27.12 51.06 -33.5 51.07 C-34.53 51.07 -35.55 51.07 -36.61 51.08 C-54.29 51.35 -71.87 54.68 -89.15 58.23 C-93.04 59.02 -96.63 59.67 -100.63 59.45 C-99.33 55.63 -97.88 53.38 -94.94 50.63 C-92.18 47.98 -89.56 45.3 -87.07 42.38 C-73.3 26.57 -55.17 14.63 -35.88 6.51 C-34.92 6.1 -34.92 6.1 -33.95 5.69 C-22.89 1.28 -11.82 -0.07 0 0 Z " fill="#3B434F" transform="translate(352.628173828125,-0.446044921875)"/>
<path d="M0 0 C2.17 0.01 4.34 -0.02 6.51 -0.05 C36.6 -0.2 61.84 15.05 84.34 33.69 C84.93 34.17 85.51 34.65 86.11 35.14 C87.37 36.45 87.37 36.45 87.37 38.45 C88.03 38.45 88.69 38.45 89.37 38.45 C90.75 39.77 90.75 39.77 92.37 41.7 C93.31 42.8 93.31 42.8 94.26 43.93 C95.3 45.17 95.3 45.17 96.37 46.45 C97.14 47.33 97.91 48.21 98.7 49.12 C109.3 61.46 117.58 74.67 124.37 89.45 C125.1 91.02 125.1 91.02 125.84 92.63 C129.48 100.97 133.37 110.26 133.37 119.45 C133.92 119.52 134.47 119.6 135.03 119.67 C163.32 124.36 187.96 143.51 208.37 162.45 C208.98 163 209.58 163.54 210.2 164.11 C223.06 176.31 233.47 192.79 240.31 209.07 C240.57 209.68 240.83 210.28 241.09 210.91 C245.98 223.29 248.05 235.49 247.89 248.73 C247.87 250.95 247.89 253.16 247.92 255.38 C247.95 270.59 244.38 283.87 237.37 297.45 C236.84 298.53 236.3 299.61 235.75 300.72 C231.7 308.61 226.85 315.5 221.37 322.45 C220.73 323.3 220.08 324.15 219.42 325.02 C214.45 331.56 208.86 337.01 202.62 342.32 C202.01 342.84 201.4 343.37 200.76 343.91 C187.17 355.45 187.17 355.45 184.37 355.45 C184.99 347.9 186.58 340.66 188.27 333.29 C197.73 293.39 197.73 293.39 188.37 254.45 C187.94 253.56 187.51 252.68 187.06 251.77 C181.47 240.8 172.49 229.48 160.37 225.45 C160.54 226 160.7 226.56 160.88 227.14 C164.24 238.49 167.46 249.75 169.37 261.45 C169.54 262.37 169.71 263.29 169.88 264.23 C171.71 275.23 171.77 286.14 171.75 297.26 C171.75 298.76 171.75 298.76 171.75 300.28 C171.71 315.71 170.9 330.37 167.37 345.45 C167.17 346.38 166.96 347.32 166.75 348.29 C157.22 391.77 134.6 429.13 103.56 460.51 C102.87 461.21 102.17 461.91 101.46 462.64 C97.05 467.02 92.45 470.86 87.37 474.45 C104.92 475.39 121.24 469.68 135.37 459.45 C136.21 458.6 136.21 458.6 137.06 457.74 C138.37 456.45 138.37 456.45 140.37 456.45 C140.65 455.85 140.92 455.25 141.2 454.63 C142.32 452.54 143.43 451.16 145.06 449.45 C160.39 431.71 167.14 406.2 174.39 384.31 C175.3 381.65 176.3 379.05 177.37 376.45 C178.36 376.78 179.35 377.11 180.37 377.45 C181.38 379.51 181.38 379.51 182.27 382.24 C182.77 383.76 182.77 383.76 183.28 385.3 C183.79 386.95 183.79 386.95 184.31 388.63 C184.84 390.34 184.84 390.34 185.38 392.07 C195.58 425.95 196.68 461.64 180.68 493.86 C163.74 524.34 134.45 541.51 102 551.15 C76.43 558.25 44.17 561 18.75 552.19 C15.39 551.06 12.92 550.29 9.37 550.45 C5.28 553.08 2.23 556.36 -1.08 559.89 C-19.24 578.12 -48 589.01 -72.63 594.45 C-73.46 594.63 -74.28 594.82 -75.14 595.01 C-83.96 596.74 -92.73 596.82 -101.69 596.82 C-104.29 596.82 -106.9 596.86 -109.5 596.9 C-124.26 597 -137.85 594.71 -151.44 588.7 C-152.23 588.35 -153.02 588.01 -153.84 587.65 C-164.9 582.71 -173.89 575.82 -182.63 567.45 C-183.54 566.58 -184.44 565.71 -185.38 564.82 C-186.12 564.04 -186.86 563.25 -187.63 562.45 C-188.06 562 -188.49 561.55 -188.94 561.08 C-208.65 539.5 -221.63 504.48 -221.63 475.45 C-218.51 476.85 -216.22 478.53 -213.69 480.82 C-211.38 482.9 -209.09 484.86 -206.63 486.76 C-205.97 487.32 -205.31 487.87 -204.63 488.45 C-204.63 489.11 -204.63 489.77 -204.63 490.45 C-203.8 490.79 -203.8 490.79 -202.96 491.14 C-199.94 492.83 -197.76 494.99 -195.25 497.38 C-176.17 515.22 -154.85 530.33 -127.57 529.7 C-117.17 528.81 -106.86 526.42 -97.63 521.45 C-97.3 520.79 -96.97 520.13 -96.63 519.45 C-97.52 519.23 -97.52 519.23 -98.44 519.01 C-127.85 511.79 -155.8 501.14 -180.63 483.45 C-181.31 482.97 -181.99 482.49 -182.68 481.99 C-192.32 475.14 -201.16 467.69 -209.63 459.45 C-210.41 458.7 -210.41 458.7 -211.21 457.93 C-226.68 443.03 -238.99 426.04 -249.63 407.45 C-249.97 406.87 -250.3 406.29 -250.65 405.7 C-263.84 383 -270.56 357.99 -275.63 332.45 C-285.46 350.64 -289.8 369.07 -284.25 389.44 C-280.24 402.3 -272.91 413 -264.63 423.45 C-263.94 424.34 -263.25 425.23 -262.53 426.15 C-258.42 431.39 -254.1 436.46 -249.79 441.54 C-246.68 445.2 -243.58 448.87 -240.5 452.57 C-239.78 453.44 -239.05 454.31 -238.31 455.2 C-236.63 457.45 -236.63 457.45 -235.63 460.45 C-272.08 455.92 -309.38 441.15 -332.63 411.45 C-347.46 390.9 -353.45 369.5 -353.19 344.32 C-353.19 343.42 -353.18 342.52 -353.18 341.6 C-353.08 327.39 -352.1 314.03 -347.63 300.45 C-347.34 299.57 -347.06 298.69 -346.77 297.78 C-339.91 277.15 -329.68 257.71 -315.57 241.13 C-314.8 240.23 -314.8 240.23 -314.01 239.31 C-311.28 236.16 -308.52 233.49 -305.25 230.88 C-303.56 229.41 -303.56 229.41 -302.63 227.45 C-302.58 224.24 -303.04 221.44 -303.75 218.31 C-306.13 207.85 -306.99 197.66 -306.94 186.95 C-306.93 184.98 -306.93 184.98 -306.92 182.97 C-306.62 158.41 -301.56 134.52 -290.63 112.45 C-290.32 111.81 -290.01 111.18 -289.7 110.52 C-277.11 84.66 -255.72 63.5 -228.37 53.63 C-216.01 49.54 -204.29 48.21 -191.32 48.2 C-190.6 48.2 -189.88 48.19 -189.14 48.19 C-164.74 48.23 -144.25 54.91 -121.63 63.45 C-121.63 64.11 -121.63 64.77 -121.63 65.45 C-122.46 65.71 -123.3 65.98 -124.16 66.25 C-178 80.99 -178 80.99 -215.94 119.08 C-217.98 123.14 -219.52 127.05 -220.63 131.45 C-220.83 132.17 -221.03 132.89 -221.24 133.64 C-222.29 137.73 -222.72 141.51 -222.68 145.73 C-222.67 146.62 -222.66 147.51 -222.66 148.42 C-222.64 149.42 -222.64 149.42 -222.63 150.45 C-222.05 149.85 -221.47 149.25 -220.88 148.63 C-209.15 136.54 -197.48 125.12 -183.63 115.45 C-182.44 114.59 -181.25 113.72 -180.05 112.86 C-150.81 92.17 -116.7 81.02 -81.63 75.45 C-80.51 75.26 -79.38 75.07 -78.23 74.88 C-41.62 70.47 -5.17 76.06 29.37 88.45 C18.54 71.26 5.61 58.09 -14.83 52.88 C-21.08 51.5 -27.12 51.06 -33.5 51.07 C-34.53 51.07 -35.55 51.07 -36.61 51.08 C-54.29 51.35 -71.87 54.68 -89.15 58.23 C-93.04 59.02 -96.63 59.67 -100.63 59.45 C-99.33 55.63 -97.88 53.38 -94.94 50.63 C-92.18 47.98 -89.56 45.3 -87.07 42.38 C-73.3 26.57 -55.17 14.63 -35.88 6.51 C-34.92 6.1 -34.92 6.1 -33.95 5.69 C-22.89 1.28 -11.82 -0.07 0 0 Z M-53.63 34.45 C-50.29 35.56 -49.28 35.29 -45.94 34.51 C-24.98 30.48 -4.4 35.38 13.6 46.43 C16.3 48.33 18.84 50.33 21.37 52.45 C22.22 53.13 23.07 53.82 23.94 54.53 C38.91 67.23 51.67 87.56 53.57 107.56 C53.76 111.54 53.65 115.48 53.37 119.45 C51.68 118.5 51.68 118.5 49.95 117.54 C38.11 111.05 26.12 105.88 13.37 101.45 C12.66 101.19 11.95 100.94 11.21 100.68 C3.3 97.93 -4.67 95.88 -12.88 94.2 C-13.67 94.03 -14.46 93.87 -15.28 93.7 C-26.77 91.48 -38.32 91.24 -50 91.26 C-51.05 91.26 -51.05 91.26 -52.11 91.26 C-68.85 91.29 -85.42 91.94 -101.63 96.45 C-102.48 96.66 -103.34 96.87 -104.22 97.09 C-118.6 100.78 -132.4 105.73 -145.63 112.45 C-146.26 112.76 -146.89 113.08 -147.54 113.41 C-165.47 122.5 -181.59 134.1 -196.1 147.99 C-197.13 148.97 -198.17 149.95 -199.21 150.93 C-210.71 161.74 -222.02 174.52 -229.63 188.45 C-229.63 189.11 -229.63 189.77 -229.63 190.45 C-230.29 190.45 -230.95 190.45 -231.63 190.45 C-240.89 163.59 -243.5 137.91 -231.63 111.45 C-219.99 88.17 -201.6 74.48 -177.25 66.31 C-176.38 66.03 -175.52 65.74 -174.63 65.45 C-174.63 65.12 -174.63 64.79 -174.63 64.45 C-207.35 63.97 -231.52 68.3 -256.13 91.57 C-275.44 111.6 -284.17 137.55 -288.63 164.45 C-288.8 165.38 -288.97 166.31 -289.15 167.26 C-291.92 185.68 -291.04 208.37 -283.93 225.7 C-282.11 230.95 -282.11 230.95 -283.63 234.45 C-285.67 236.44 -285.67 236.44 -288.25 238.32 C-313.45 257.56 -327.99 289.1 -334.63 319.45 C-335 321.12 -335 321.12 -335.37 322.82 C-340.09 348.26 -335.69 375.63 -321.63 397.45 C-318.83 401.32 -315.85 404.91 -312.63 408.45 C-312.02 409.14 -311.4 409.83 -310.77 410.55 C-303.2 418.65 -292.05 427.43 -281.63 431.45 C-280.97 431.12 -280.31 430.79 -279.63 430.45 C-280.11 429.95 -280.6 429.45 -281.1 428.93 C-298.37 410.43 -304.62 388.95 -303.77 364.15 C-302.57 341.5 -290.98 319.9 -274.63 304.45 C-265.63 297.11 -265.63 297.11 -260.63 295.45 C-260.65 296.59 -260.67 297.73 -260.7 298.9 C-261.2 333.63 -253.23 367.05 -236.59 397.68 C-235.65 399.4 -234.75 401.13 -233.84 402.86 C-224.95 419.27 -213.25 433.59 -200.19 446.85 C-198.91 448.16 -197.65 449.49 -196.4 450.83 C-164.72 484.2 -113.51 506.16 -67.7 507.69 C-64.34 507.73 -60.99 507.64 -57.63 507.45 C-60.29 510.78 -62.96 514.11 -65.63 517.45 C-66.25 518.28 -66.88 519.11 -67.53 519.97 C-75.22 529.03 -85.96 534.67 -96.63 539.45 C-97.48 539.85 -98.33 540.25 -99.21 540.66 C-117.59 548.75 -141.81 549.69 -160.63 542.45 C-172.68 537.51 -182.54 530.81 -191.63 521.45 C-192.62 520.79 -193.61 520.13 -194.63 519.45 C-193.22 524.28 -191.11 528.42 -188.5 532.7 C-187.9 533.69 -187.9 533.69 -187.29 534.7 C-173.5 556.99 -153.97 572.48 -128.38 578.82 C-93.56 586.45 -55.21 575.45 -25.58 556.81 C-15.18 549.98 -6.06 541.81 1.56 531.93 C3.37 530.45 3.37 530.45 5.79 530.59 C8.33 531.43 10.82 532.33 13.31 533.32 C27.18 538.47 41.34 539.7 56 539.76 C57.02 539.76 57.02 539.76 58.07 539.77 C70.5 539.77 82.3 538.46 94.37 535.45 C95.58 535.15 96.8 534.85 98.04 534.54 C124.19 527.17 150.7 511.86 164.39 487.65 C172.36 472.44 176.78 456.5 176.5 439.32 C176.48 437.74 176.48 437.74 176.47 436.13 C176.45 433.57 176.41 431.01 176.37 428.45 C173.66 431.16 172.91 434.34 171.68 437.88 C164.63 457.37 149.96 473.28 131.37 482.45 C117.93 488.31 105.99 490.86 91.25 490.82 C90.21 490.82 90.21 490.82 89.16 490.82 C75.59 490.79 64.39 489.05 52.37 482.45 C51.71 482.45 51.05 482.45 50.37 482.45 C53.77 478.65 57.61 476.33 61.93 473.76 C68.91 469.5 75.23 464.85 81.37 459.45 C82.16 458.76 82.96 458.08 83.77 457.38 C86.35 455.11 88.87 452.79 91.37 450.45 C92.16 449.71 92.16 449.71 92.96 448.96 C107.17 435.56 118.6 420.33 128.37 403.45 C128.76 402.78 129.14 402.12 129.54 401.43 C138.92 385.1 145.1 367.47 150.37 349.45 C150.71 348.36 151.05 347.26 151.4 346.14 C155.7 329.76 155.7 312.52 155.81 295.7 C155.82 294.8 155.83 293.91 155.85 292.98 C156.22 260.29 146.41 229.2 131.37 200.45 C131.04 199.79 130.71 199.13 130.37 198.45 C150.82 200.79 167.74 206.49 183.37 220.45 C184.22 221.16 185.07 221.86 185.95 222.59 C196.62 231.7 202.68 242.85 208.37 255.45 C208.83 256.43 209.29 257.41 209.77 258.41 C215.64 273.52 213.6 293.85 210.37 309.45 C213.42 306.78 215.28 303.49 217.25 300.01 C217.6 299.39 217.95 298.76 218.31 298.12 C230.55 276.09 235.65 250.85 228.7 226.27 C226.19 218.19 222.6 210.76 218.37 203.45 C218.03 202.84 217.68 202.24 217.32 201.62 C198.4 169.25 166.29 145.58 130.37 135.45 C126.41 134.5 122.43 133.85 118.37 133.45 C118.22 132.19 118.08 130.93 117.93 129.63 C114.15 99.8 99.53 74.31 78.75 52.88 C77.52 51.6 76.31 50.29 75.1 48.99 C62.14 35.28 42.77 23.27 24.37 18.82 C23.4 18.58 22.43 18.34 21.43 18.09 C-4.52 12.6 -32.46 18.1 -53.63 34.45 Z " fill="#8DE229" transform="translate(352.628173828125,-0.446044921875)"/>
<path d="M0 0 C-0.64 5.4 -1.85 10.43 -3.36 15.65 C-3.6 16.47 -3.83 17.29 -4.07 18.13 C-4.81 20.73 -5.56 23.34 -6.31 25.94 C-7.29 29.34 -8.27 32.75 -9.24 36.15 C-9.48 36.98 -9.71 37.81 -9.96 38.67 C-11.84 45.32 -13.55 52.01 -15.17 58.74 C-16.05 62.19 -17.11 65.53 -18.29 68.9 C-19.08 71.24 -19.74 73.6 -20.38 75.98 C-20.78 77.44 -20.78 77.44 -21.18 78.93 C-21.99 81.97 -22.8 85.01 -23.61 88.06 C-26.57 99.17 -29.58 110.25 -32.96 121.24 C-35.38 129.13 -37.49 137.09 -39.61 145.06 C-42.8 157.04 -46.12 168.95 -49.73 180.81 C-50.95 184.82 -52.08 188.84 -53.14 192.89 C-53.9 195.63 -54.7 198.36 -55.51 201.08 C-55.79 202.01 -56.06 202.94 -56.34 203.9 C-56.89 205.76 -57.45 207.62 -58.02 209.48 C-59.79 215.51 -61.05 220.84 -59 227 C-47.41 225.44 -36.15 222.45 -24.81 219.62 C-21.87 218.9 -18.92 218.17 -15.98 217.44 C-14.05 216.97 -12.13 216.49 -10.21 216.01 C-5.87 214.92 -1.55 213.89 2.83 213.01 C11.8 211.19 18.6 208.56 25.88 202.81 C27.56 201.55 29.24 200.28 30.93 199.02 C31.64 198.46 32.36 197.91 33.09 197.34 C35 196 35 196 38 195 C35.92 203.92 33.53 212.69 30.81 221.44 C26.13 236.51 22.09 251.76 18 267 C17.05 267.22 17.05 267.22 16.07 267.44 C-8.39 273 -32.7 279.13 -57.02 285.25 C-67.49 287.88 -77.96 290.49 -88.42 293.11 C-92.65 294.16 -96.88 295.22 -101.1 296.28 C-103.09 296.77 -105.07 297.27 -107.05 297.76 C-112.3 299.07 -117.54 300.39 -122.78 301.71 C-124.44 302.13 -124.44 302.13 -126.13 302.56 C-128.26 303.09 -130.39 303.63 -132.53 304.18 C-133.48 304.41 -134.43 304.65 -135.41 304.9 C-136.25 305.11 -137.09 305.33 -137.95 305.55 C-140 306 -140 306 -142 306 C-141.47 300.83 -140.61 296.32 -138.94 291.38 C-136.38 283.56 -134.27 275.64 -132.19 267.69 C-129.62 257.91 -126.92 248.18 -124 238.5 C-121.11 228.92 -118.43 219.3 -115.88 209.62 C-112.95 198.51 -109.9 187.45 -106.7 176.41 C-102.7 162.64 -98.83 148.82 -95 135 C-90.41 118.43 -85.78 101.87 -80.83 85.41 C-80.55 84.5 -80.28 83.58 -80 82.65 C-79.33 80.43 -78.67 78.22 -78 76 C-78.67 76.17 -79.34 76.34 -80.03 76.51 C-86.39 78.12 -92.76 79.72 -99.13 81.32 C-102.4 82.14 -105.67 82.97 -108.94 83.79 C-136.81 90.83 -136.81 90.83 -149 93 C-149.27 94.06 -149.53 95.12 -149.8 96.22 C-151.54 103.15 -153.27 110.07 -155 117 C-155.66 116.67 -156.32 116.34 -157 116 C-157.73 113.66 -157.73 113.66 -158.4 110.57 C-158.65 109.44 -158.9 108.32 -159.16 107.16 C-159.42 105.97 -159.67 104.79 -159.94 103.56 C-161.7 90.46 -161.7 90.46 -167 79 C-167.13 79.59 -167.27 80.18 -167.41 80.79 C-168.04 83.47 -168.74 86.14 -169.44 88.81 C-169.75 90.21 -169.75 90.21 -170.08 91.63 C-171.87 98.26 -171.87 98.26 -174.86 100.22 C-177.23 101.04 -179.53 101.55 -182 102 C-183.72 102.41 -185.44 102.83 -187.16 103.25 C-188.98 103.65 -190.8 104.04 -192.62 104.44 C-200.28 106.13 -207.86 107.93 -215.4 110.06 C-218.03 110.75 -220.56 111.31 -223.23 111.79 C-232.43 113.48 -232.43 113.48 -239.19 119.69 C-240.16 121.44 -241.1 123.21 -242 125 C-242.75 126.16 -242.75 126.16 -243.52 127.34 C-247.5 133.58 -247.77 138.96 -246.38 146.2 C-245.49 150 -244.52 153.78 -243.53 157.55 C-243.16 158.97 -242.8 160.39 -242.43 161.82 C-241.47 165.56 -240.5 169.3 -239.53 173.04 C-238.56 176.75 -237.61 180.46 -236.66 184.16 C-235.53 188.54 -234.41 192.91 -233.27 197.29 C-230.29 208.82 -227.38 220.36 -224.51 231.92 C-224.26 232.92 -224 233.93 -223.74 234.96 C-223.23 237.07 -222.74 239.2 -222.28 241.33 C-222.04 242.4 -221.8 243.47 -221.56 244.58 C-221.36 245.54 -221.15 246.5 -220.94 247.49 C-219.18 252.19 -215.24 253.79 -211 256 C-210.19 256.57 -209.38 257.14 -208.54 257.72 C-204.5 260.52 -201.32 262.48 -196.31 262.12 C-194.53 261.79 -192.76 261.41 -191 261 C-189.73 260.77 -188.45 260.54 -187.14 260.3 C-183.24 259.52 -179.68 258.54 -176 257 C-173.91 253.8 -173.62 252.6 -173 249 C-172.42 247.17 -171.84 245.35 -171.24 243.53 C-168.74 235.99 -166.78 228.36 -164.99 220.62 C-163.96 216.85 -162.62 213.55 -161 210 C-161.57 210.15 -162.15 210.3 -162.74 210.46 C-165.37 211.15 -168 211.82 -170.62 212.5 C-171.53 212.74 -172.43 212.98 -173.36 213.22 C-182.89 215.66 -182.89 215.66 -187 215 C-189.6 212.17 -190.59 209.59 -191.46 205.89 C-191.71 204.89 -191.95 203.9 -192.19 202.88 C-192.56 201.3 -192.56 201.3 -192.94 199.69 C-193.46 197.51 -193.98 195.34 -194.5 193.17 C-194.76 192.11 -195.01 191.05 -195.27 189.97 C-196.06 186.74 -196.94 183.55 -197.85 180.36 C-199.43 174.77 -200.78 169.81 -200 164 C-197.62 160.69 -194.74 160.17 -190.88 159.24 C-188.99 158.77 -188.99 158.77 -187.06 158.3 C-185.68 157.97 -184.29 157.64 -182.91 157.31 C-181.49 156.97 -180.06 156.62 -178.64 156.27 C-174.88 155.36 -171.12 154.45 -167.36 153.55 C-163.58 152.64 -159.8 151.72 -156.01 150.8 C-151.74 149.77 -147.47 148.73 -143.19 147.7 C-142.54 147.55 -141.89 147.39 -141.21 147.23 C-139.33 146.77 -137.44 146.32 -135.56 145.87 C-131.21 144.81 -126.89 143.68 -122.58 142.53 C-119.98 142 -117.64 141.9 -115 142 C-116.9 149.06 -118.88 156.09 -120.9 163.11 C-124.68 176.16 -124.68 176.16 -128.06 189.31 C-129.81 196.54 -132 203.61 -134.21 210.71 C-136.97 219.66 -139.33 228.69 -141.6 237.78 C-142.97 243.19 -144.44 248.5 -146.27 253.78 C-147.35 257.07 -148.23 260.41 -149.12 263.76 C-150.8 269.96 -152.57 276.12 -154.33 282.29 C-155.22 285.39 -156.1 288.5 -156.98 291.6 C-157.61 293.79 -158.26 295.98 -158.91 298.17 C-160.02 301.83 -160.02 301.83 -160.52 304.95 C-161.03 307.47 -161.41 308.98 -163 311 C-167.16 313.11 -171.46 314.03 -176 315 C-177.2 315.29 -178.4 315.59 -179.63 315.89 C-183.37 316.8 -187.12 317.65 -190.88 318.5 C-199.98 320.57 -209.04 322.69 -217.99 325.37 C-228.36 327.54 -234.3 323.5 -242.94 318.19 C-244.23 317.41 -245.53 316.62 -246.83 315.84 C-250.57 313.59 -254.29 311.3 -258 309 C-258.98 308.4 -259.95 307.8 -260.96 307.18 C-263.36 305.7 -265.74 304.2 -268.12 302.69 C-268.8 302.26 -269.47 301.84 -270.16 301.4 C-275.91 297.66 -278.11 294.58 -279.75 287.96 C-280.05 286.73 -280.36 285.51 -280.68 284.25 C-281 282.91 -281.33 281.58 -281.65 280.24 C-282 278.86 -282.34 277.47 -282.69 276.08 C-283.41 273.17 -284.13 270.26 -284.84 267.34 C-285.74 263.66 -286.65 259.98 -287.57 256.3 C-294.24 229.46 -294.24 229.46 -297.02 216.25 C-298 211.79 -299.21 207.4 -300.4 203 C-302.29 195.96 -304.06 188.89 -305.82 181.82 C-306.17 180.42 -306.52 179.03 -306.86 177.63 C-307.77 174.01 -308.67 170.39 -309.58 166.77 C-310.49 163.09 -311.41 159.4 -312.33 155.72 C-316.03 140.91 -316.03 140.91 -317.23 136.08 C-317.69 134.22 -318.17 132.37 -318.66 130.52 C-320.95 121.95 -320.95 121.95 -318.61 117.15 C-317.97 116.12 -317.33 115.08 -316.67 114.02 C-316.32 113.45 -315.97 112.89 -315.61 112.3 C-314.48 110.47 -313.34 108.64 -312.19 106.81 C-311.41 105.55 -310.63 104.29 -309.85 103.03 C-308.3 100.52 -306.74 98.01 -305.18 95.51 C-303.27 92.44 -301.39 89.35 -299.53 86.26 C-299.03 85.43 -298.53 84.6 -298.02 83.75 C-297.11 82.25 -296.21 80.75 -295.31 79.24 C-291.33 72.67 -288.72 70.59 -281.31 68.69 C-280.52 68.48 -279.73 68.27 -278.92 68.05 C-276.28 67.35 -273.64 66.68 -271 66 C-269.63 65.65 -269.63 65.65 -268.22 65.28 C-258.29 62.73 -248.33 60.28 -238.33 58.02 C-222.99 54.55 -207.76 50.7 -192.53 46.8 C-185.08 44.89 -177.64 43 -170.19 41.11 C-169.46 40.92 -168.74 40.74 -167.99 40.54 C-157.21 37.81 -146.43 35.1 -135.62 32.5 C-134.64 32.26 -134.64 32.26 -133.64 32.02 C-132.98 31.86 -132.31 31.7 -131.62 31.54 C-130.2 31.19 -128.78 30.85 -127.36 30.51 C-126.62 30.33 -125.88 30.15 -125.12 29.97 C-111.48 26.67 -97.86 23.3 -84.24 19.94 C-81.98 19.39 -79.73 18.83 -77.48 18.28 C-61.35 14.31 -45.22 10.32 -29.11 6.28 C-22.73 4.68 -16.34 3.1 -9.94 1.56 C-8.92 1.32 -8.92 1.32 -7.89 1.07 C-5.17 0.43 -2.81 0 0 0 Z " fill="#FDFDFD" transform="translate(436,130)"/>
<path d="M0 0 C0 3 0 3 -1.14 4.45 C-1.67 4.95 -2.2 5.45 -2.75 5.97 C-3.35 6.53 -3.95 7.1 -4.57 7.68 C-5.56 8.58 -5.56 8.58 -6.56 9.5 C-7.24 10.12 -7.91 10.74 -8.61 11.38 C-26.58 27.65 -47.74 38.71 -69 50 C-57.95 61.76 -43.71 70.6 -29 77 C-28.07 77.43 -27.15 77.86 -26.2 78.3 C-7.1 86.31 18.3 84.62 38 80 C39.67 79.66 41.33 79.32 43 79 C40.33 82.2 36.9 83.69 33.19 85.38 C32.18 85.83 32.18 85.83 31.15 86.3 C29.11 87.22 27.06 88.11 25 89 C23.91 89.47 22.83 89.94 21.71 90.43 C-3.12 100.19 -38.44 103.47 -63.52 92.94 C-68.46 90.75 -73.3 88.39 -78.09 85.88 C-80.04 84.98 -81.9 84.45 -84 84 C-84.71 84.99 -85.43 85.98 -86.16 87 C-105.36 113.53 -133.1 131.89 -165.88 137.25 C-167.29 137.44 -167.29 137.44 -168.74 137.64 C-171.03 137.89 -171.03 137.89 -173 139 C-174.81 139.08 -176.63 139.11 -178.45 139.1 C-180.06 139.09 -180.06 139.09 -181.71 139.09 C-182.83 139.08 -183.96 139.07 -185.12 139.06 C-186.26 139.06 -187.4 139.05 -188.57 139.05 C-191.38 139.04 -194.19 139.02 -197 139 C-194.06 137.48 -191.4 136.52 -188.19 135.75 C-171.49 131.29 -155.93 123.54 -143 112 C-142.17 111.26 -141.34 110.53 -140.48 109.77 C-127.37 97.44 -120.6 81.49 -113.19 65.41 C-112 63 -112 63 -110 60 C-111.25 60.03 -112.49 60.07 -113.78 60.11 C-129.2 60.4 -143.2 58.51 -158 54 C-158 53.67 -158 53.34 -158 53 C-156.91 53.02 -155.82 53.04 -154.69 53.06 C-124.62 53.63 -124.62 53.63 -95 49 C-93.68 48.71 -92.35 48.42 -91.03 48.12 C-66.05 42.14 -44.3 29.93 -23 16 C-21.76 15.19 -21.76 15.19 -20.49 14.36 C-18.03 12.74 -15.58 11.12 -13.12 9.5 C-12.38 9.01 -11.64 8.52 -10.87 8.01 C-7.11 5.49 -3.49 2.9 0 0 Z " fill="#8BE029" transform="translate(435,424)"/>
<path d="M0 0 C1 2 1 2 0.29 4.47 C-0.07 5.47 -0.44 6.47 -0.81 7.5 C-9.55 31.48 -6.17 59.1 4.07 82.04 C6.88 87.95 10.62 93.15 14.51 98.38 C15.15 99.25 15.15 99.25 15.79 100.14 C17 101.79 18.24 103.42 19.47 105.05 C21 108 21 108 20.29 110.37 C18.98 113.03 17.55 115.49 15.96 117.98 C15.38 118.92 14.8 119.86 14.2 120.82 C12.99 122.77 11.76 124.7 10.52 126.63 C6.34 133.45 4.76 138.29 6.47 146.14 C6.96 148.1 7.48 150.05 8 152 C8.04 153.67 8.05 155.33 8 157 C7.47 157.2 6.95 157.39 6.4 157.59 C-11.31 164.22 -25.52 171.68 -39 185 C-39.64 185.57 -40.28 186.14 -40.95 186.73 C-54.72 199.22 -61.6 217.71 -67 235 C-67.33 235 -67.66 235 -68 235 C-69.78 202.88 -56.29 170.84 -35.3 146.86 C-27.68 138.56 -18.6 132.78 -9 127 C-9.52 123.32 -10.69 120.39 -12.37 117.1 C-24.54 93.14 -24.56 61.54 -17 36 C-16.46 34.14 -16.46 34.14 -15.9 32.25 C-12.17 20.91 -6.8 9.82 0 0 Z " fill="#8CE029" transform="translate(101,112)"/>
<path d="M0 0 C0.66 0 1.32 0 2 0 C3.76 6.91 4.4 13.45 4.62 20.56 C4.66 21.57 4.7 22.58 4.74 23.62 C4.84 26.08 4.92 28.54 5 31 C6.09 31.04 7.18 31.07 8.3 31.11 C39.48 32.41 64.7 47.05 87 68 C87.6 68.54 88.2 69.07 88.82 69.62 C96.68 76.94 105.12 87.95 109 98 C108.67 98.66 108.34 99.32 108 100 C107.3 99.07 106.6 98.14 105.88 97.19 C90.29 79.11 64.44 66.53 41 64 C37.79 63.86 34.59 63.86 31.38 63.88 C30.47 63.88 29.57 63.88 28.65 63.88 C18.75 63.94 8.88 64.44 -1 65 C-0.56 65.76 -0.11 66.52 0.34 67.3 C19.98 101.06 40.38 138.68 31.62 179.27 C31 181 31 181 29 182 C28.94 181.26 28.89 180.52 28.83 179.76 C28.58 176.36 28.32 172.96 28.06 169.56 C27.93 167.82 27.93 167.82 27.8 166.03 C26.98 155.32 25.84 145.38 23 135 C22.84 134.37 22.67 133.74 22.5 133.09 C16.17 109.02 4.55 83.56 -13.19 65.69 C-15.04 63.64 -15.92 62.58 -16.31 59.84 C-16.01 56.1 -14.92 52.66 -13.68 49.13 C-11.48 42.62 -9.8 35.96 -8.06 29.31 C-5.49 19.51 -2.82 9.74 0 0 Z " fill="#8ADE2A" transform="translate(450,118)"/>
<path d="M0 0 C1.3 0.21 1.3 0.21 2.62 0.42 C18.84 3.18 38.94 7.49 52 18 C47.11 20.76 42.24 20.88 36.85 19.42 C34.64 18.61 32.48 17.73 30.31 16.81 C23.09 13.96 15.9 11.81 8.31 10.12 C6.95 9.82 6.95 9.82 5.56 9.51 C-2.67 7.74 -10.68 6.84 -19.09 6.73 C-19.94 6.71 -20.8 6.7 -21.68 6.69 C-40.68 6.46 -58.6 6.66 -77 12 C-77.82 12.23 -78.63 12.46 -79.48 12.7 C-84.75 14.22 -89.89 16 -95 18 C-96.08 18.42 -96.08 18.42 -97.19 18.85 C-115.45 26.14 -131.78 36.56 -147.23 48.63 C-149.89 50.69 -152.6 52.69 -155.31 54.69 C-160.19 58.34 -164.89 62.17 -169.57 66.05 C-172.29 68.23 -175.04 70.16 -178 72 C-176.26 67.76 -173.28 64.6 -170.31 61.19 C-169.77 60.56 -169.22 59.93 -168.66 59.28 C-161.71 51.31 -154.32 44.56 -146 38 C-145.06 37.25 -144.12 36.51 -143.15 35.74 C-120.61 18.33 -94.72 7.14 -67 1 C-66.02 0.77 -66.02 0.77 -65.02 0.54 C-44.16 -4.22 -21.05 -3.47 0 0 Z " fill="#89DA2A" transform="translate(330,114)"/>
<path d="M0 0 C4.39 1.51 7.96 3.86 11.69 6.56 C12.3 7.01 12.92 7.45 13.55 7.91 C23.07 14.89 30.82 22.64 38 32 C38.67 32.85 39.34 33.7 40.02 34.58 C47.7 44.7 59 59.86 59 73 C55.04 74 51.08 75 47.12 76 C46 76.29 44.87 76.57 43.71 76.87 C42.09 77.27 42.09 77.27 40.45 77.69 C39.45 77.94 38.46 78.19 37.43 78.45 C35 79 35 79 33 79 C32.97 78.39 32.93 77.77 32.9 77.14 C31.15 48.22 22.14 24.38 1.91 3.08 C0 1 0 1 0 0 Z " fill="#8BDF29" transform="translate(391,43)"/>
<path d="M0 0 C11.55 0.33 23.1 0.66 35 1 C35 1.33 35 1.66 35 2 C29.39 2 23.78 2 18 2 C18.33 2.99 18.66 3.98 19 5 C12.42 4.38 6.33 2.85 0 1 C0 0.67 0 0.34 0 0 Z " fill="#7CC32F" transform="translate(277,477)"/>
<path d="M0 0 C0.99 0.33 1.98 0.66 3 1 C1.21 2.01 -0.58 3 -2.38 4 C-3.37 4.56 -4.37 5.11 -5.4 5.69 C-8 7 -8 7 -10 7 C-10 6.01 -10 5.02 -10 4 C-12.64 4.33 -15.28 4.66 -18 5 C-14.6 2.74 -12.45 2.47 -8.44 1.94 C-4.07 1.45 -4.07 1.45 0 0 Z " fill="#77B932" transform="translate(475,503)"/>
<path d="M0 0 C0 3 0 3 -1.75 4.82 C-2.49 5.44 -3.24 6.05 -4 6.69 C-4.74 7.31 -5.49 7.93 -6.25 8.57 C-6.83 9.04 -7.4 9.52 -8 10 C-8.99 9.34 -9.98 8.68 -11 8 C-7.37 5.36 -3.74 2.72 0 0 Z " fill="#7ABD31" transform="translate(435,424)"/>
<path d="M0 0 C-3.75 3 -3.75 3 -6 3 C-6.33 4.98 -6.66 6.96 -7 9 C-8 6.3 -8.04 5.12 -7.19 2.31 C-5.25 -1.46 -3.72 -1.12 0 0 Z " fill="#6A6F7A" transform="translate(293,223)"/>
<path d="M0 0 C2.64 0 5.28 0 8 0 C7.34 1.32 6.68 2.64 6 4 C5.67 3.34 5.34 2.68 5 2 C2.47 1.34 2.47 1.34 0 1 C0 0.67 0 0.34 0 0 Z " fill="#7DC52F" transform="translate(287,507)"/>
<path d="M0 0 C1 2 1 2 0.44 4.16 C0.15 4.98 -0.14 5.79 -0.44 6.62 C-0.72 7.44 -1.01 8.26 -1.31 9.1 C-1.54 9.73 -1.76 10.35 -2 11 C-2.66 10.01 -3.32 9.02 -4 8 C-3.07 4.89 -1.81 2.71 0 0 Z " fill="#75B533" transform="translate(101,112)"/>
</svg>
