<?xml version="1.0" encoding="UTF-8"?>
<!-- Generator: https://ezgif.com/png-to-svg -->
<svg version="1.1" xmlns="http://www.w3.org/2000/svg" width="512" height="512" viewBox="-90.685 -17.94 334.88 334.88" preserveAspectRatio="xMidYMid meet">
<path d="M0 0 C3 1 3 1 4.73 4.22 C5.37 5.64 6 7.07 6.62 8.5 C9.39 14.62 12.3 20.6 15.5 26.5 C18.49 32.05 21.3 37.65 23.94 43.38 C27.62 51.35 31.67 59.11 35.8 66.86 C36.18 67.57 36.55 68.28 36.94 69.02 C37.87 70.76 38.86 72.47 39.86 74.18 C41.3 77.74 41.1 79.33 40 83 C38.83 85.63 37.49 88.15 36.12 90.69 C31.5 99.62 28.42 107.8 29 118 C37.12 111.25 43.66 104.73 48 95 C48.99 95 49.98 95 51 95 C51.56 96.01 52.12 97.01 52.7 98.05 C54.18 100.65 55.74 103.14 57.43 105.61 C57.83 106.2 58.23 106.79 58.65 107.4 C59.48 108.61 60.32 109.82 61.17 111.01 C62.37 112.79 62.37 112.79 64 116 C62.95 118.96 61.41 120.8 59.11 122.87 C58.49 123.43 57.88 123.99 57.25 124.57 C56.57 125.18 55.89 125.8 55.19 126.44 C47.27 133.76 39.57 141.28 31.93 148.89 C30.66 150.16 29.38 151.42 28.11 152.69 C14.92 165.72 14.92 165.72 4.06 180.69 C3.38 181.78 2.7 182.87 2 184 C1.34 184 0.68 184 0 184 C0 123.28 0 62.56 0 0 Z " fill="#4DB06B" transform="translate(79,0)"/>
<path d="M0 0 C0.66 0 1.32 0 2 0 C2 60.72 2 121.44 2 184 C1.34 184 0.68 184 0 184 C-0.93 182.55 -1.79 181.06 -2.62 179.56 C-8.21 170.64 -15.64 163.46 -23 156 C-23.55 155.44 -24.1 154.89 -24.66 154.32 C-29.1 149.82 -33.54 145.35 -38 140.88 C-38.95 139.92 -38.95 139.92 -39.91 138.95 C-48.92 129.85 -48.92 129.85 -58.55 121.43 C-60.28 119.72 -61.21 118.31 -62 116 C-60.73 113.51 -59.48 111.44 -57.88 109.19 C-57.06 107.99 -56.24 106.8 -55.43 105.61 C-55.03 105.02 -54.62 104.43 -54.21 103.83 C-52.32 100.97 -50.66 97.99 -49 95 C-48.01 95 -47.02 95 -46 95 C-45.57 96.07 -45.13 97.14 -44.69 98.25 C-42.57 102.53 -39.71 105.83 -36.5 109.31 C-36.03 109.83 -35.55 110.34 -35.06 110.87 C-32.55 113.54 -30.02 115.92 -27 118 C-26.79 112.39 -27.31 107.68 -29.06 102.31 C-29.39 101.28 -29.39 101.28 -29.72 100.23 C-31.68 94.31 -34.45 89.18 -37.74 83.87 C-39.32 80.27 -39.11 78.74 -38 75 C-36.9 72.49 -35.77 70.11 -34.5 67.69 C-34.15 66.99 -33.79 66.3 -33.43 65.59 C-30.47 59.83 -27.41 54.13 -24.36 48.42 C-21.41 42.88 -18.73 37.24 -16.1 31.54 C-12.38 23.54 -8.21 15.78 -4.06 8 C-2.66 5.36 -1.32 2.68 0 0 Z " fill="#4DB06B" transform="translate(72,0)"/>
<path d="M0 0 C1.01 1.72 2.01 3.45 3 5.19 C3.56 6.15 4.11 7.11 4.69 8.11 C6.05 11.12 6.51 12.75 6 16 C4.79 17.75 4.79 17.75 3.06 19.44 C-24.8 49.49 -38.2 102.04 -37 142 C-36.66 144.07 -36.29 146.13 -35.88 148.19 C-35.58 150.7 -35.58 150.7 -36 153 C-38.7 156.19 -41.87 158.44 -45.31 160.79 C-48.32 162.94 -51.08 165.39 -53.88 167.81 C-55.91 169.55 -57.95 171.28 -60 173 C-61.33 174.15 -61.33 174.15 -62.7 175.32 C-65 177 -65 177 -68 177 C-68.09 164.26 -68.16 151.53 -68.21 138.79 C-68.23 132.88 -68.26 126.97 -68.3 121.05 C-68.35 115.34 -68.37 109.63 -68.38 103.91 C-68.39 101.74 -68.4 99.57 -68.42 97.39 C-68.45 94.34 -68.46 91.28 -68.45 88.22 C-68.48 86.89 -68.48 86.89 -68.5 85.53 C-68.39 68.69 -56.63 54.98 -46 43 C-44.85 41.67 -43.71 40.33 -42.56 39 C-41.38 37.66 -40.19 36.33 -39 35 C-37.75 33.59 -37.75 33.59 -36.47 32.15 C-28.46 23.25 -19.86 15.04 -11 7 C-10.29 6.34 -9.58 5.68 -8.84 5 C-8.14 4.36 -7.43 3.72 -6.7 3.05 C-6.07 2.47 -5.43 1.88 -4.77 1.28 C-3 0 -3 0 0 0 Z " fill="#4DB06B" transform="translate(147,122)"/>
<path d="M0 0 C4.39 0.45 6.92 3.4 9.94 6.31 C11.11 7.42 12.27 8.52 13.44 9.63 C14.03 10.19 14.63 10.76 15.24 11.34 C16.88 12.88 18.54 14.4 20.21 15.9 C66.78 57.73 66.78 57.73 68.12 80.04 C68.12 80.76 68.12 81.49 68.12 82.24 C68.12 83.5 68.12 83.5 68.12 84.78 C68.12 86.15 68.12 86.15 68.11 87.54 C68.11 88.51 68.11 89.47 68.11 90.47 C68.11 93.66 68.11 96.85 68.1 100.05 C68.1 102.26 68.09 104.47 68.09 106.69 C68.09 112.51 68.08 118.34 68.07 124.17 C68.06 130.11 68.05 136.06 68.05 142 C68.04 153.67 68.02 165.33 68 177 C63.47 176.12 60.79 173.5 57.44 170.5 C56.19 169.41 54.94 168.32 53.7 167.23 C53.08 166.68 52.46 166.14 51.82 165.58 C46.74 161.17 41.6 156.73 36 153 C36.02 150.27 36.21 147.71 36.5 145 C39.67 104.15 25 53.53 -1.06 21.5 C-3.46 18.69 -3.46 18.69 -6 16 C-5.74 9.7 -3.26 5.31 0 0 Z " fill="#4DB06B" transform="translate(6,122)"/>
</svg>
