<?xml version="1.0" encoding="UTF-8"?>
<!-- Generator: https://ezgif.com/webp-to-svg -->
<svg version="1.1" xmlns="http://www.w3.org/2000/svg" width="50" height="50">
<path d="M0 0 C3 1 3 1 4.39 3.14 C4.82 4.02 5.25 4.91 5.69 5.81 C6.34 7.12 6.34 7.12 7.01 8.46 C8 11 8 11 8 15 C8.99 15.33 9.98 15.66 11 16 C12.81 18.31 12.81 18.31 14 21 C13.38 22.81 13.38 22.81 12 25 C9.52 30.8 8.42 36.09 7.72 42.36 C7 45 7 45 5.09 46.87 C3 48 3 48 0.44 47.81 C-2 47 -2 47 -5 45 C-5.63 42.55 -6.11 40.24 -6.5 37.75 C-7.3 32.7 -8.54 28.53 -11 24 C-11.33 23.01 -11.66 22.02 -12 21 C-10.19 17.81 -10.19 17.81 -8 15 C-7.34 15 -6.68 15 -6 15 C-5.94 14.2 -5.88 13.39 -5.81 12.56 C-4.73 7.84 -2.48 4.12 0 0 Z M-6 15 C-5 17 -5 17 -5 17 Z M7 15 C8 17 8 17 8 17 Z " fill="#438953" transform="translate(24,1)"/>
<path d="M0 0 C3 1 3 1 4.81 3.31 C6 6 6 6 5.38 7.81 C4.92 8.53 4.47 9.26 4 10 C1.52 15.8 0.42 21.09 -0.28 27.36 C-1 30 -1 30 -2.91 31.86 C-5 33 -5 33 -7.56 32.88 C-10.11 31.96 -11.29 31.07 -13 29 C-12.34 29 -11.68 29 -11 29 C-11.16 28.26 -11.33 27.52 -11.5 26.75 C-12.2 21.5 -12.08 16.29 -12 11 C-9 12 -9 12 -7 15 C-6.61 17.32 -6.27 19.66 -6 22 C-5.01 19.69 -4.02 17.38 -3 15 C-2.34 15 -1.68 15 -1 15 C-0.3 11.52 -0.3 11.52 0 8 C-0.33 8 -0.66 8 -1 8 C-1.12 2.25 -1.12 2.25 0 0 Z " fill="#337644" transform="translate(32,16)"/>
<path d="M0 0 C4.14 4.14 6.74 8.01 7.25 13.97 C7.25 16.66 7.18 19.32 7 22 C7.66 21.67 8.32 21.34 9 21 C8.55 22.48 8.09 23.96 7.62 25.44 C7.37 26.26 7.11 27.08 6.85 27.93 C6 30 6 30 4 31 C2.95 33.31 1.94 35.64 1 38 C0.67 38 0.34 38 0 38 C0 25.46 0 12.92 0 0 Z " fill="#64B276" transform="translate(25,1)"/>
<path d="M0 0 C4.26 5.34 4.13 10.31 4 17 C4.66 16.67 5.32 16.34 6 16 C5.58 17.48 5.14 18.96 4.69 20.44 C4.44 21.26 4.2 22.08 3.95 22.93 C3.64 23.62 3.32 24.3 3 25 C2.01 25.33 1.02 25.66 0 26 C-0.81 22.52 -1.08 19.48 -0.88 15.92 C-0.83 14.99 -0.78 14.06 -0.73 13.1 C-0.68 12.14 -0.62 11.18 -0.56 10.19 C-0.51 9.21 -0.46 8.23 -0.4 7.22 C-0.28 4.81 -0.14 2.41 0 0 Z " fill="#4F965F" transform="translate(28,6)"/>
<path d="M0 0 C0.33 0 0.66 0 1 0 C1 5.94 1 11.88 1 18 C-2.47 14.53 -3.83 11.92 -4 7 C-2.99 4.27 -1.7 2.4 0 0 Z " fill="#175E32" transform="translate(24,1)"/>
<path d="M0 0 C0.66 0 1.32 0 2 0 C6 6.62 6 6.62 6 10 C3.53 8.85 1.95 7.95 0 6 C-0.33 6.66 -0.66 7.32 -1 8 C-1.99 8 -2.98 8 -4 8 C-2.88 5.03 -1.78 2.67 0 0 Z " fill="#58A268" transform="translate(16,16)"/>
<path d="M0 0 C0.99 0.33 1.98 0.66 3 1 C3 6.94 3 12.88 3 19 C2.34 19 1.68 19 1 19 C0.67 12.73 0.34 6.46 0 0 Z " fill="#155A30" transform="translate(22,30)"/>
<path d="M0 0 C3.75 1.25 4.24 2.57 6 6 C6 6.66 6 7.32 6 8 C5.01 8 4.02 8 3 8 C2.67 7.34 2.34 6.68 2 6 C0.52 6.99 0.52 6.99 -1 8 C-1.12 2.25 -1.12 2.25 0 0 Z " fill="#246B39" transform="translate(32,16)"/>
<path d="M0 0 C2.5 1 2.5 1 5 3 C5.47 5.79 5.23 8.14 5 11 C1.19 8.23 0.93 4.37 0 0 Z " fill="#2D7140" transform="translate(20,8)"/>
<path d="M0 0 C3 4 3 4 2.69 7.25 C2.46 8.16 2.23 9.06 2 10 C1.34 10 0.68 10 0 10 C0 6.7 0 3.4 0 0 Z " fill="#418450" transform="translate(29,8)"/>
<path d="M0 0 C0.66 0 1.32 0 2 0 C2.33 1.32 2.66 2.64 3 4 C2.34 4 1.68 4 1 4 C0.67 4.66 0.34 5.32 0 6 C-0.99 6 -1.98 6 -3 6 C-1.12 1.12 -1.12 1.12 0 0 Z " fill="#69BA7A" transform="translate(15,18)"/>
<path d="M0 0 C0.66 0 1.32 0 2 0 C1.67 2.97 1.34 5.94 1 9 C0.01 9.33 -0.98 9.66 -2 10 C-1.34 6.7 -0.68 3.4 0 0 Z " fill="#0F5327" transform="translate(30,37)"/>
</svg>
