<?xml version="1.0" encoding="UTF-8"?>
<!-- Generator: https://ezgif.com/png-to-svg -->
<svg version="1.1" xmlns="http://www.w3.org/2000/svg" width="512" height="512" viewBox="-33.2 -71.175 750.4 750.4" preserveAspectRatio="xMidYMid meet">
<path d="M0 0 C4.59 1.4 8.76 3.27 13 5.49 C13.66 5.83 14.32 6.18 15 6.53 C17.15 7.64 19.29 8.76 21.44 9.88 C22.94 10.65 24.45 11.43 25.95 12.21 C34.99 16.9 44.02 21.61 53.05 26.34 C63.23 31.66 73.46 36.9 83.68 42.15 C94.18 47.54 104.66 52.95 115.13 58.38 C123.66 62.79 132.2 67.19 140.74 71.59 C150.63 76.68 160.52 81.78 170.38 86.94 C181.45 92.73 192.57 98.44 203.68 104.15 C214.18 109.54 224.66 114.95 235.13 120.38 C243.66 124.79 252.2 129.19 260.74 133.59 C279.74 143.37 279.74 143.37 287.81 147.6 C289.59 148.53 291.38 149.45 293.17 150.36 C298.21 152.93 303.11 155.64 307.95 158.56 C323.29 168.88 323.29 168.88 340.56 171.5 C344.73 169.86 348.2 167.41 351.73 164.67 C355.77 161.69 360.26 159.52 364.69 157.19 C366.54 156.17 368.4 155.14 370.25 154.11 C376.16 150.88 382.16 147.86 388.19 144.88 C395.15 141.43 402.08 137.95 408.94 134.31 C417.67 129.68 426.46 125.15 435.25 120.62 C444.76 115.73 454.27 110.83 463.75 105.88 C472.24 101.44 480.74 97.02 489.25 92.62 C489.86 92.31 490.47 91.99 491.1 91.67 C492.02 91.19 492.02 91.19 492.96 90.71 C494.19 90.07 495.43 89.43 496.66 88.79 C497.28 88.48 497.89 88.16 498.52 87.83 C504.89 84.54 511.26 81.24 517.62 77.94 C518.73 77.36 519.84 76.79 520.98 76.2 C523.2 75.04 525.43 73.89 527.66 72.73 C533.27 69.82 538.89 66.91 544.5 64 C546.75 62.83 549 61.67 551.25 60.5 C564.75 53.5 578.25 46.5 591.75 39.5 C592.86 38.92 593.98 38.35 595.12 37.75 C597.38 36.58 599.63 35.42 601.88 34.25 C608.6 30.77 615.31 27.28 622.03 23.8 C624.25 22.65 626.46 21.5 628.68 20.35 C634.13 17.53 639.58 14.7 645.02 11.86 C647.71 10.45 650.41 9.05 653.1 7.65 C654.4 6.97 655.7 6.29 657 5.61 C658.8 4.67 660.61 3.73 662.41 2.79 C663.44 2.25 664.48 1.71 665.54 1.15 C668 0 668 0 670 0 C666.26 23.1 662.25 46.15 658.19 69.19 C657.99 70.3 657.99 70.3 657.79 71.43 C654.25 91.51 650.63 111.58 646.9 131.63 C643.48 150.08 640.3 168.57 637.15 187.06 C633.58 208 629.89 228.91 626 249.79 C625.64 251.71 625.29 253.62 624.93 255.54 C624.76 256.45 624.59 257.36 624.42 258.3 C623.4 263.76 622.43 269.23 621.51 274.71 C617.73 297.1 612.41 315.67 597 333 C596.37 333.72 595.74 334.45 595.09 335.19 C588.69 342.08 581.01 347.11 573.3 352.4 C569.49 355.05 565.75 357.77 562 360.5 C556.2 364.71 550.36 368.88 544.5 373 C538.6 377.15 532.72 381.34 526.88 385.56 C526.13 386.1 525.39 386.63 524.62 387.19 C520.93 389.86 517.26 392.55 513.6 395.27 C512.91 395.78 512.22 396.29 511.5 396.82 C510.2 397.79 508.89 398.77 507.59 399.75 C503.22 403 503.22 403 501 403 C500.96 403.61 500.92 404.23 500.88 404.86 C500.46 411.22 500 417.57 499.51 423.93 C499.12 429.14 498.8 434.36 498.51 439.58 C498.27 443.63 497.99 447.67 497.7 451.72 C497.57 453.73 497.45 455.74 497.35 457.76 C496.53 473.89 496.53 473.89 492.89 478.9 C490.36 480.96 487.88 482.48 485 484 C483.63 484.96 482.28 485.95 480.94 486.95 C479.63 487.86 478.31 488.78 477 489.69 C475.52 490.72 474.05 491.75 472.57 492.79 C471.82 493.31 471.07 493.84 470.3 494.38 C466.45 497.1 462.63 499.86 458.81 502.62 C453 506.84 447.17 511.03 441.32 515.2 C436.59 518.57 431.89 521.97 427.19 525.38 C420.62 530.13 414.02 534.82 407.4 539.48 C402.23 543.11 397.11 546.8 392 550.5 C386.19 554.71 380.36 558.88 374.5 563 C368.51 567.21 362.56 571.46 356.62 575.75 C355.87 576.29 355.11 576.84 354.33 577.4 C351.06 579.76 347.8 582.13 344.63 584.63 C343.68 585.37 342.73 586.11 341.75 586.88 C340.96 587.51 340.17 588.15 339.36 588.8 C337 590 337 590 334.22 590.05 C329.74 588.59 326.48 586.08 322.75 583.25 C321.14 582.06 319.53 580.86 317.92 579.67 C317.1 579.06 316.29 578.45 315.44 577.82 C311.66 575 307.83 572.25 304 569.5 C302.5 568.42 301 567.33 299.5 566.25 C298.76 565.71 298.01 565.18 297.25 564.62 C254.5 533.75 254.5 533.75 252.25 532.12 C250.75 531.04 249.25 529.96 247.75 528.88 C243.99 526.16 240.22 523.44 236.46 520.71 C229.2 515.45 221.91 510.22 214.56 505.06 C206.74 499.57 199.04 493.91 191.36 488.22 C186.91 484.93 182.43 481.68 177.93 478.45 C174.08 475.56 174.08 475.56 173.58 472.2 C173.5 471 173.41 469.81 173.33 468.58 C173.26 467.59 173.26 467.59 173.19 466.58 C173.03 464.4 172.89 462.22 172.75 460.04 C172.64 458.52 172.53 457.01 172.43 455.49 C172.14 451.5 171.87 447.51 171.6 443.52 C171.17 437.13 170.73 430.74 170.28 424.36 C170.12 422.12 169.97 419.89 169.82 417.66 C169.73 416.29 169.64 414.92 169.54 413.55 C169.46 412.36 169.38 411.16 169.3 409.93 C169.1 406.94 169.1 406.94 168 404 C165.7 402.25 163.41 400.65 161 399.06 C159.53 398.07 158.05 397.08 156.58 396.09 C155.44 395.32 155.44 395.32 154.27 394.54 C150.73 392.14 147.24 389.66 143.75 387.19 C142.32 386.18 140.89 385.16 139.46 384.15 C138.73 383.64 138.01 383.12 137.26 382.59 C133.3 379.8 129.34 377.03 125.38 374.25 C124.55 373.67 123.73 373.1 122.88 372.5 C118.29 369.29 113.69 366.09 109.07 362.91 C70.77 336.45 70.77 336.45 59.81 315.25 C59.49 314.64 59.17 314.04 58.84 313.41 C52.57 300.83 50.69 286.66 48.37 272.96 C47.4 267.25 46.4 261.54 45.41 255.83 C45.11 254.08 45.11 254.08 44.8 252.29 C43.03 242.11 41.17 231.94 39.29 221.78 C35.43 200.97 31.7 180.15 28 159.31 C22.7 129.47 17.34 99.64 11.94 69.81 C11.75 68.79 11.57 67.77 11.38 66.72 C10.31 60.8 9.23 54.88 8.16 48.95 C7.66 46.19 7.16 43.43 6.66 40.66 C5.32 33.28 3.99 25.9 2.62 18.53 C2.42 17.48 2.23 16.43 2.03 15.36 C1.7 13.55 1.36 11.74 1.02 9.94 C0.39 6.54 0 3.47 0 0 Z " fill="#020101" transform="translate(7,9)"/>
<path d="M0 0 C10.04 4.65 19.98 9.43 29.75 14.63 C37.51 18.77 45.34 22.79 53.17 26.81 C77.56 39.32 77.56 39.32 88.14 44.96 C90.73 46.34 93.35 47.68 95.98 48.98 C96.91 49.45 96.91 49.45 97.86 49.92 C99.48 50.74 101.1 51.54 102.73 52.33 C105 54 105 54 105.6 56.15 C106.07 59.52 106.4 62.88 106.68 66.27 C106.74 66.97 106.8 67.67 106.86 68.39 C107.06 70.68 107.25 72.96 107.44 75.25 C107.57 76.83 107.7 78.41 107.84 79.99 C108.1 83.16 108.36 86.33 108.63 89.51 C108.96 93.51 109.3 97.52 109.64 101.52 C109.82 103.7 110.01 105.88 110.19 108.06 C110.31 109.52 110.31 109.52 110.44 111.01 C110.93 117.02 111.1 122.97 111 129 C111.45 128.67 111.9 128.35 112.37 128.01 C113.01 127.55 113.65 127.09 114.3 126.61 C115.39 125.83 115.39 125.83 116.49 125.04 C118.09 123.88 119.7 122.72 121.31 121.56 C125.57 118.49 129.83 115.4 134.06 112.28 C134.87 111.69 135.68 111.09 136.51 110.49 C138.06 109.35 139.61 108.2 141.16 107.05 C142.22 106.28 142.22 106.28 143.3 105.48 C143.92 105.03 144.54 104.57 145.18 104.1 C147.19 102.88 148.66 102.25 151 102 C152.73 102.78 152.73 102.78 154.48 104.07 C155.14 104.55 155.8 105.03 156.48 105.52 C157.54 106.31 157.54 106.31 158.62 107.12 C159.36 107.66 160.1 108.2 160.86 108.75 C162.43 109.89 163.99 111.04 165.56 112.2 C168.85 114.62 172.16 117.01 175.48 119.4 C178.42 121.51 181.35 123.64 184.28 125.77 C185.83 126.88 187.41 127.94 189 129 C189.02 128.44 189.04 127.89 189.06 127.31 C189.89 104.81 189.89 104.81 191.28 94.6 C191.89 89.7 192 85.23 191.43 80.3 C189.33 61.47 189.33 61.47 194 54 C202.21 45.68 214.64 41.44 225.29 37.19 C233.72 33.81 241.6 29.62 249.58 25.29 C253.76 23.06 257.99 20.91 262.21 18.75 C263.05 18.32 263.89 17.9 264.75 17.45 C268.17 15.71 271.59 13.96 275 12.22 C277.55 10.92 280.1 9.62 282.65 8.32 C283.8 7.73 283.8 7.73 284.97 7.13 C287.99 5.59 290.91 4.06 293.77 2.23 C296 1 296 1 300 1 C299.64 15.75 298.83 30.43 297.56 45.12 C297.47 46.21 297.47 46.21 297.38 47.32 C296.66 55.67 295.78 63.99 294.7 72.3 C293.94 78.27 293.43 84.25 293 90.25 C292.46 97.59 291.82 104.92 291.07 112.24 C290.07 122.15 289.19 132.06 288.34 141.98 C288.19 143.72 288.05 145.47 287.9 147.22 C287.59 150.85 287.28 154.48 286.97 158.11 C286.58 162.69 286.19 167.26 285.8 171.83 C285.42 176.29 285.04 180.76 284.66 185.23 C284.58 186.09 284.51 186.96 284.43 187.85 C283.42 199.73 282.46 211.61 281.62 223.51 C281.55 224.46 281.48 225.4 281.41 226.38 C281.36 227.18 281.3 227.99 281.24 228.82 C281 230.96 280.53 232.91 280 235 C279.84 236.38 279.72 237.77 279.63 239.15 C279.57 239.96 279.51 240.77 279.45 241.6 C279.4 242.47 279.34 243.33 279.28 244.22 C279.22 245.11 279.16 246.01 279.09 246.93 C278.89 249.79 278.69 252.64 278.5 255.5 C278.24 259.26 277.98 263.02 277.72 266.78 C277.66 267.64 277.6 268.51 277.55 269.4 C277.49 270.21 277.43 271.01 277.37 271.85 C277.32 272.55 277.28 273.26 277.23 273.99 C277 276 277 276 276.49 278.03 C275.67 281.33 275.85 284.72 275.81 288.1 C275.08 315.86 275.08 315.86 269.88 321.43 C266.64 323.88 263.05 325.45 259.3 326.96 C255.17 328.83 251.72 331.65 248.12 334.38 C246.61 335.48 245.09 336.58 243.57 337.68 C242.44 338.5 242.44 338.5 241.28 339.34 C237.53 342.07 233.76 344.78 230 347.5 C228.5 348.58 227 349.67 225.5 350.75 C222.5 352.92 219.5 355.08 216.5 357.25 C215.39 358.05 215.39 358.05 214.25 358.88 C212.75 359.96 211.26 361.04 209.76 362.12 C205.96 364.86 202.16 367.61 198.36 370.36 C196.82 371.47 195.29 372.58 193.75 373.69 C193.01 374.22 192.26 374.76 191.5 375.32 C187.98 377.85 184.47 380.39 180.93 382.9 C180.3 383.35 179.66 383.8 179.01 384.27 C177.84 385.1 176.67 385.93 175.5 386.75 C173.01 388.53 170.6 390.33 168.24 392.28 C166 394 166 394 164 394 C163.93 383.05 163.88 372.09 163.84 361.14 C163.83 356.05 163.81 350.96 163.77 345.87 C163.74 340.95 163.72 336.03 163.72 331.11 C163.71 329.24 163.7 327.38 163.68 325.51 C163.56 311.49 163.81 297.33 170.69 284.69 C171.21 283.69 171.21 283.69 171.74 282.68 C178.01 271.05 187.01 261.71 197.88 254.31 C199.38 253.27 200.88 252.23 202.39 251.18 C203.15 250.66 203.91 250.13 204.7 249.59 C208.38 247.04 212.03 244.46 215.69 241.88 C216.31 241.43 216.94 240.99 217.59 240.54 C218.92 239.6 220.23 238.65 221.54 237.68 C223.52 236.33 225.43 235.23 227.54 234.11 C234.45 230.24 234.45 230.24 238.88 223.9 C240.41 218.01 240.58 211.99 240.81 205.94 C240.93 204.13 241.05 202.33 241.17 200.52 C241.4 197.19 241.59 193.87 241.74 190.53 C241.96 186 242.46 181.51 243 177 C227.17 186.38 211.34 195.77 195.57 205.26 C189.52 208.9 183.45 212.52 177.38 216.12 C176.27 216.77 176.27 216.77 175.14 217.44 C171.49 219.6 167.84 221.76 164.19 223.92 C162.87 224.7 161.54 225.49 160.22 226.27 C159.6 226.64 158.99 227 158.35 227.37 C155.51 228.97 155.51 228.97 153 231 C147.65 230.63 144.07 229.24 139.5 226.5 C138.91 226.15 138.31 225.8 137.7 225.44 C135.8 224.3 133.9 223.15 132 222 C130.68 221.21 129.35 220.42 128.03 219.63 C124.34 217.43 120.67 215.22 117 213 C115.57 212.14 114.14 211.29 112.71 210.43 C110.49 209.1 108.26 207.77 106.04 206.43 C102.62 204.36 99.18 202.33 95.74 200.29 C94.88 199.78 94.88 199.78 94 199.26 C91.14 197.57 88.28 195.88 85.42 194.2 C75.88 188.56 66.44 182.79 57 177 C57.44 183.84 57.96 190.67 58.53 197.5 C58.72 199.82 58.89 202.14 59.03 204.46 C59.39 217.49 59.39 217.49 64.32 229.11 C67.12 231.16 69.84 232.58 73 234 C74.64 235.11 76.26 236.25 77.85 237.42 C79.44 238.53 81.03 239.64 82.62 240.75 C83.48 241.35 84.33 241.95 85.21 242.57 C89.34 245.46 93.47 248.33 97.65 251.15 C116.15 263.73 128.18 277.3 135 299 C135.33 299.99 135.66 300.98 136 302 C136.09 304.94 136.13 307.85 136.11 310.79 C136.11 311.68 136.11 312.58 136.11 313.51 C136.11 316.48 136.11 319.45 136.1 322.42 C136.1 324.48 136.09 326.53 136.09 328.59 C136.09 334.01 136.08 339.43 136.07 344.85 C136.06 350.38 136.05 355.91 136.05 361.44 C136.04 372.3 136.02 383.15 136 394 C133.35 392.7 130.93 391.35 128.52 389.64 C127.53 388.93 127.53 388.93 126.52 388.22 C125.81 387.71 125.1 387.21 124.38 386.69 C123.25 385.89 123.25 385.89 122.11 385.08 C114.47 379.64 106.86 374.15 99.27 368.64 C95.51 365.92 91.76 363.21 88 360.5 C83.49 357.24 78.97 353.98 74.46 350.71 C67.15 345.42 59.82 340.14 52.44 334.94 C51.83 334.5 51.23 334.05 50.6 333.6 C47.02 331.01 43.5 328.68 39.56 326.67 C33.97 323.64 28.43 320.55 25.96 314.42 C24.23 307.09 24.19 299.62 24.06 292.12 C23.97 289.89 23.87 287.65 23.77 285.42 C23.57 281.14 23.4 276.85 23.26 272.57 C23.05 267.14 22.38 261.87 21.5 256.51 C20.37 248.58 20.03 240.55 19.5 232.56 C18.8 221.93 17.99 211.41 16.49 200.86 C15.49 192.98 15.04 185.05 14.5 177.12 C13.79 166.86 13.02 156.64 11.74 146.42 C10.56 136.77 9.99 127.06 9.32 117.36 C8.74 108.96 8.13 100.6 7.03 92.25 C5.62 81.56 4.85 70.81 4 60.06 C3.82 57.87 3.65 55.67 3.47 53.48 C3.13 49.22 2.79 44.95 2.46 40.69 C2.08 35.99 1.69 31.29 1.3 26.59 C1.15 24.88 1.15 24.88 1.01 23.14 C0.84 21.18 0.68 19.23 0.51 17.28 C0.03 11.51 -0.08 5.79 0 0 Z " fill="#FDFDFD" transform="translate(192,148)"/>
<path d="M0 0 C4.59 1.4 8.76 3.27 13 5.49 C13.66 5.83 14.32 6.18 15 6.53 C17.15 7.64 19.29 8.76 21.44 9.88 C22.94 10.65 24.45 11.43 25.95 12.21 C34.99 16.9 44.02 21.61 53.05 26.34 C63.23 31.66 73.46 36.9 83.68 42.15 C94.18 47.54 104.66 52.95 115.13 58.38 C123.66 62.79 132.2 67.19 140.74 71.59 C150.63 76.68 160.52 81.78 170.38 86.94 C181.45 92.73 192.57 98.44 203.68 104.15 C214.18 109.54 224.66 114.95 235.13 120.38 C243.66 124.79 252.2 129.19 260.74 133.59 C279.74 143.37 279.74 143.37 287.81 147.6 C289.59 148.53 291.38 149.45 293.17 150.36 C298.21 152.93 303.11 155.64 307.95 158.56 C323.29 168.88 323.29 168.88 340.56 171.5 C344.73 169.86 348.2 167.41 351.73 164.67 C355.77 161.69 360.26 159.52 364.69 157.19 C366.54 156.17 368.4 155.14 370.25 154.11 C376.16 150.88 382.16 147.86 388.19 144.88 C395.15 141.43 402.08 137.95 408.94 134.31 C417.67 129.68 426.46 125.15 435.25 120.62 C444.76 115.73 454.27 110.83 463.75 105.88 C472.24 101.44 480.74 97.02 489.25 92.62 C489.86 92.31 490.47 91.99 491.1 91.67 C492.02 91.19 492.02 91.19 492.96 90.71 C494.19 90.07 495.43 89.43 496.66 88.79 C497.28 88.48 497.89 88.16 498.52 87.83 C504.89 84.54 511.26 81.24 517.62 77.94 C518.73 77.36 519.84 76.79 520.98 76.2 C523.2 75.04 525.43 73.89 527.66 72.73 C533.27 69.82 538.89 66.91 544.5 64 C546.75 62.83 549 61.67 551.25 60.5 C564.75 53.5 578.25 46.5 591.75 39.5 C592.86 38.92 593.98 38.35 595.12 37.75 C597.38 36.58 599.63 35.42 601.88 34.25 C608.6 30.77 615.31 27.28 622.03 23.8 C624.25 22.65 626.46 21.5 628.68 20.35 C634.13 17.53 639.58 14.7 645.02 11.86 C647.71 10.45 650.41 9.05 653.1 7.65 C654.4 6.97 655.7 6.29 657 5.61 C658.8 4.67 660.61 3.73 662.41 2.79 C663.44 2.25 664.48 1.71 665.54 1.15 C668 0 668 0 670 0 C666.26 23.1 662.25 46.15 658.19 69.19 C657.99 70.3 657.99 70.3 657.79 71.43 C654.25 91.51 650.63 111.58 646.9 131.63 C643.48 150.08 640.3 168.57 637.15 187.06 C633.58 208 629.89 228.91 626 249.79 C625.64 251.71 625.29 253.62 624.93 255.54 C624.76 256.45 624.59 257.36 624.42 258.3 C623.4 263.76 622.43 269.23 621.51 274.71 C617.73 297.1 612.41 315.67 597 333 C596.37 333.72 595.74 334.45 595.09 335.19 C588.69 342.08 581.01 347.11 573.3 352.4 C569.49 355.05 565.75 357.77 562 360.5 C556.2 364.71 550.36 368.88 544.5 373 C538.6 377.15 532.72 381.34 526.88 385.56 C526.13 386.1 525.39 386.63 524.62 387.19 C520.93 389.86 517.26 392.55 513.6 395.27 C512.91 395.78 512.22 396.29 511.5 396.82 C510.2 397.79 508.89 398.77 507.59 399.75 C503.22 403 503.22 403 501 403 C500.96 403.61 500.92 404.23 500.88 404.86 C500.46 411.22 500 417.57 499.51 423.93 C499.12 429.14 498.8 434.36 498.51 439.58 C498.27 443.63 497.99 447.67 497.7 451.72 C497.57 453.73 497.45 455.74 497.35 457.76 C496.53 473.89 496.53 473.89 492.89 478.9 C490.36 480.96 487.88 482.48 485 484 C483.63 484.96 482.28 485.95 480.94 486.95 C479.63 487.86 478.31 488.78 477 489.69 C475.52 490.72 474.05 491.75 472.57 492.79 C471.82 493.31 471.07 493.84 470.3 494.38 C466.45 497.1 462.63 499.86 458.81 502.62 C453 506.84 447.17 511.03 441.32 515.2 C436.59 518.57 431.89 521.97 427.19 525.38 C420.62 530.13 414.02 534.82 407.4 539.48 C402.23 543.11 397.11 546.8 392 550.5 C386.19 554.71 380.36 558.88 374.5 563 C368.51 567.21 362.56 571.46 356.62 575.75 C355.87 576.29 355.11 576.84 354.33 577.4 C351.06 579.76 347.8 582.13 344.63 584.63 C343.68 585.37 342.73 586.11 341.75 586.88 C340.96 587.51 340.17 588.15 339.36 588.8 C337 590 337 590 334.22 590.05 C329.74 588.59 326.48 586.08 322.75 583.25 C321.14 582.06 319.53 580.86 317.92 579.67 C317.1 579.06 316.29 578.45 315.44 577.82 C311.66 575 307.83 572.25 304 569.5 C302.5 568.42 301 567.33 299.5 566.25 C298.76 565.71 298.01 565.18 297.25 564.62 C254.5 533.75 254.5 533.75 252.25 532.12 C250.75 531.04 249.25 529.96 247.75 528.88 C243.99 526.16 240.22 523.44 236.46 520.71 C229.2 515.45 221.91 510.22 214.56 505.06 C206.74 499.57 199.04 493.91 191.36 488.22 C186.91 484.93 182.43 481.68 177.93 478.45 C174.08 475.56 174.08 475.56 173.58 472.2 C173.5 471 173.41 469.81 173.33 468.58 C173.26 467.59 173.26 467.59 173.19 466.58 C173.03 464.4 172.89 462.22 172.75 460.04 C172.64 458.52 172.53 457.01 172.43 455.49 C172.14 451.5 171.87 447.51 171.6 443.52 C171.17 437.13 170.73 430.74 170.28 424.36 C170.12 422.12 169.97 419.89 169.82 417.66 C169.73 416.29 169.64 414.92 169.54 413.55 C169.46 412.36 169.38 411.16 169.3 409.93 C169.1 406.94 169.1 406.94 168 404 C165.7 402.25 163.41 400.65 161 399.06 C159.53 398.07 158.05 397.08 156.58 396.09 C155.44 395.32 155.44 395.32 154.27 394.54 C150.73 392.14 147.24 389.66 143.75 387.19 C142.32 386.18 140.89 385.16 139.46 384.15 C138.73 383.64 138.01 383.12 137.26 382.59 C133.3 379.8 129.34 377.03 125.38 374.25 C124.55 373.67 123.73 373.1 122.88 372.5 C118.29 369.29 113.69 366.09 109.07 362.91 C70.77 336.45 70.77 336.45 59.81 315.25 C59.49 314.64 59.17 314.04 58.84 313.41 C52.57 300.83 50.69 286.66 48.37 272.96 C47.4 267.25 46.4 261.54 45.41 255.83 C45.11 254.08 45.11 254.08 44.8 252.29 C43.03 242.11 41.17 231.94 39.29 221.78 C35.43 200.97 31.7 180.15 28 159.31 C22.7 129.47 17.34 99.64 11.94 69.81 C11.75 68.79 11.57 67.77 11.38 66.72 C10.31 60.8 9.23 54.88 8.16 48.95 C7.66 46.19 7.16 43.43 6.66 40.66 C5.32 33.28 3.99 25.9 2.62 18.53 C2.42 17.48 2.23 16.43 2.03 15.36 C1.7 13.55 1.36 11.74 1.02 9.94 C0.39 6.54 0 3.47 0 0 Z M14 19 C14.64 25.09 15.42 31.14 16.38 37.19 C16.51 38.02 16.64 38.84 16.77 39.7 C17.74 45.69 18.94 51.61 20.26 57.53 C21.35 62.64 22.23 67.78 23.12 72.92 C23.79 76.83 24.49 80.74 25.2 84.64 C29.01 105.8 29.01 105.8 30.62 116.38 C31.61 122.82 32.84 129.16 34.26 135.53 C35.35 140.64 36.23 145.78 37.12 150.92 C37.79 154.83 38.49 158.74 39.2 162.64 C43.01 183.8 43.01 183.8 44.62 194.38 C45.61 200.82 46.84 207.16 48.26 213.53 C49.35 218.64 50.23 223.78 51.12 228.92 C51.79 232.83 52.49 236.74 53.2 240.64 C55.09 251.12 56.97 261.59 58.56 272.12 C61.63 291.88 65.66 310.41 79 326 C79.78 326.92 80.56 327.83 81.37 328.78 C90.01 338.1 100.44 344.86 110.93 351.93 C115.89 355.28 120.79 358.7 125.69 362.12 C127.6 363.46 129.52 364.79 131.44 366.12 C136.69 369.78 141.94 373.45 147.19 377.12 C147.99 377.68 148.79 378.24 149.61 378.82 C153.96 381.86 158.3 384.92 162.62 387.98 C163.54 388.64 164.46 389.29 165.41 389.96 C167.19 391.21 168.96 392.47 170.73 393.73 C171.52 394.29 172.32 394.85 173.13 395.43 C173.83 395.93 174.53 396.42 175.25 396.94 C176.94 398.17 176.94 398.17 179 398 C179.04 399.11 179.07 400.22 179.11 401.36 C179.63 414.69 180.7 427.94 181.9 441.21 C181.96 441.92 182.02 442.64 182.09 443.37 C182.22 444.8 182.35 446.22 182.48 447.64 C182.81 451.25 183.04 454.83 183.12 458.45 C183.15 459.53 183.15 459.53 183.18 460.63 C183.23 462.61 183.26 464.6 183.28 466.58 C184.38 471.82 187.29 473.67 191.61 476.74 C192.16 477.07 192.71 477.39 193.28 477.72 C196.3 479.55 199.16 481.51 202.01 483.58 C203.73 484.84 205.46 486.07 207.2 487.3 C211.49 490.34 215.74 493.42 220 496.5 C225.32 500.35 230.65 504.19 236 508 C245.14 514.52 254.23 521.11 263.33 527.69 C270.88 533.14 278.42 538.6 286 544 C293.57 549.39 301.09 554.84 308.62 560.28 C311.08 562.06 313.55 563.84 316.01 565.61 C316.82 566.2 317.64 566.79 318.48 567.4 C320.04 568.52 321.6 569.65 323.16 570.77 C323.87 571.28 324.58 571.79 325.3 572.32 C326.23 572.99 326.23 572.99 327.18 573.67 C329 575 329 575 330.98 576.73 C332.89 578.21 332.89 578.21 335.02 577.84 C337.17 576.93 338.85 575.87 340.73 574.48 C341.44 573.96 342.15 573.44 342.89 572.9 C343.65 572.34 344.41 571.77 345.19 571.19 C346.82 569.99 348.44 568.8 350.07 567.61 C350.9 567 351.72 566.39 352.57 565.77 C356.18 563.14 359.84 560.57 363.5 558 C372.39 551.75 381.2 545.38 390 539 C399.5 532.12 409.01 525.27 418.61 518.52 C423.77 514.89 428.89 511.2 434 507.5 C439.81 503.29 445.64 499.12 451.5 495 C459.66 489.26 467.75 483.43 475.82 477.57 C478 476 478 476 479.76 475.03 C482.51 473.38 484.57 472.12 485.74 469.06 C486.15 466.66 486.33 464.33 486.45 461.91 C486.56 460.57 486.56 460.57 486.67 459.2 C486.81 457.29 486.94 455.38 487.06 453.47 C487.25 450.48 487.49 447.49 487.74 444.5 C488.41 436.39 489.01 428.29 489.22 420.15 C489.76 399.57 489.76 399.57 495.56 393.81 C499.28 390.82 503.29 388.56 507.51 386.37 C511.61 384.12 515.26 381.3 519 378.5 C520.5 377.42 522 376.33 523.5 375.25 C526.51 373.08 529.52 370.9 532.54 368.71 C539.83 363.43 547.14 358.18 554.5 353 C560.58 348.72 566.65 344.41 572.69 340.06 C573.43 339.53 574.17 339 574.94 338.45 C596.77 322.71 606.94 301.86 611.28 275.64 C611.59 273.7 611.89 271.76 612.19 269.82 C612.61 267.07 613.05 264.33 613.48 261.58 C613.7 260.22 613.91 258.87 614.13 257.51 C615.67 247.72 617.38 237.96 619.38 228.24 C622.07 215.1 624.22 201.88 626.4 188.64 C629.03 172.74 631.87 156.87 634.97 141.05 C636.85 131.4 638.53 121.76 639.93 112.03 C640.79 106.14 641.95 100.38 643.26 94.57 C644.1 90.5 644.75 86.42 645.38 82.31 C646.61 74.16 648.05 66.05 649.56 57.94 C649.88 56.24 649.88 56.24 650.2 54.51 C651.12 49.58 652.07 44.65 653.08 39.73 C653.98 35.3 654.61 30.87 655.12 26.38 C655.21 25.66 655.3 24.94 655.39 24.2 C655.59 22.47 655.8 20.73 656 19 C651.21 19.59 647.42 21.72 643.25 24 C641.55 24.91 639.86 25.82 638.16 26.73 C636.72 27.5 636.72 27.5 635.25 28.28 C629.49 31.33 623.7 34.29 617.91 37.27 C607.67 42.52 597.44 47.79 587.25 53.12 C578.89 57.5 570.51 61.85 562.12 66.19 C561.53 66.5 560.93 66.81 560.31 67.13 C553.04 70.89 545.76 74.64 538.48 78.38 C535.61 79.86 532.74 81.34 529.88 82.81 C528.81 83.36 528.81 83.36 527.72 83.92 C519.31 88.25 510.9 92.61 502.54 97.04 C493.45 101.84 484.29 106.51 475.15 111.21 C466.87 115.46 458.6 119.71 450.38 124.06 C441.15 128.95 431.85 133.72 422.56 138.5 C412.97 143.43 403.39 148.39 393.84 153.39 C388.16 156.36 382.48 159.3 376.78 162.23 C376.06 162.61 375.33 162.98 374.59 163.36 C371.02 165.2 367.45 167.03 363.88 168.86 C363.22 169.21 362.55 169.55 361.87 169.9 C360.55 170.58 359.22 171.25 357.9 171.93 C354.52 173.66 351.18 175.45 347.88 177.33 C347.2 177.71 346.53 178.08 345.84 178.47 C344.57 179.19 343.3 179.92 342.05 180.66 C339.16 182.28 337.26 183.01 333.93 182.89 C330.83 181.95 328.18 180.78 325.32 179.26 C324.24 178.7 323.16 178.13 322.05 177.55 C320.9 176.93 319.75 176.32 318.56 175.69 C317.34 175.04 316.12 174.4 314.89 173.76 C312.41 172.45 309.94 171.15 307.46 169.83 C302.78 167.35 298.08 164.89 293.38 162.44 C292.49 161.97 291.6 161.51 290.68 161.03 C279.83 155.37 268.93 149.81 258.04 144.24 C244.07 137.09 230.13 129.91 216.22 122.67 C210.44 119.67 204.66 116.68 198.88 113.69 C197.98 113.23 197.98 113.23 197.07 112.75 C186.47 107.27 175.87 101.81 165.26 96.35 C154.91 91.02 144.57 85.67 134.24 80.31 C125.34 75.69 116.42 71.09 107.5 66.5 C96.32 60.74 85.14 54.97 73.98 49.18 C68.17 46.16 62.36 43.15 56.55 40.15 C55.92 39.83 55.3 39.5 54.65 39.17 C50.9 37.23 50.9 37.23 47.15 35.3 C41.09 32.17 35.04 29.03 29.02 25.83 C28.13 25.36 27.24 24.89 26.32 24.4 C24.7 23.53 23.08 22.67 21.46 21.79 C17.92 19.73 17.92 19.73 14 19 Z " fill="#FA0000" transform="translate(7,9)"/>
<path d="M0 0 C11.84 5.88 23.62 11.86 35.39 17.88 C38.3 19.37 41.21 20.85 44.12 22.34 C46.03 23.31 47.95 24.29 49.86 25.27 C50.8 25.75 51.74 26.23 52.71 26.73 C57.23 29.04 61.74 31.38 66.21 33.79 C76.25 39.2 76.25 39.2 86.78 43.55 C92.89 45.79 98.56 48.08 103 53 C106.45 61.16 106.06 70.28 105.99 79.01 C106 85.2 106.52 91.33 107 97.5 C107.16 99.88 107.31 102.26 107.46 104.64 C108.44 118.75 109.9 132.85 111.59 146.89 C112.02 150.79 112.1 154.63 112.06 158.56 C112.05 159.78 112.04 161 112.04 162.25 C112.02 163.16 112.01 164.07 112 165 C105.6 161.9 99.44 158.59 93.38 154.88 C91.64 153.82 89.91 152.78 88.18 151.73 C87.21 151.14 86.25 150.56 85.26 149.96 C81.53 147.72 77.79 145.49 74.04 143.27 C73.35 142.86 72.65 142.45 71.93 142.02 C69.13 140.36 66.32 138.7 63.52 137.04 C55.61 132.36 47.75 127.63 39.93 122.8 C35.9 120.33 31.83 117.94 27.75 115.56 C20.13 111.13 20.13 111.13 19 110 C18.48 107.23 18 104.47 17.56 101.69 C17.43 100.88 17.3 100.06 17.16 99.23 C16.77 96.82 16.38 94.41 16 92 C15.63 89.67 15.25 87.33 14.88 85 C14.73 84.07 14.58 83.14 14.43 82.19 C14.09 79.97 14.09 79.97 13 78 C12.69 75.7 12.49 73.4 12.28 71.09 C12.11 68.95 12.11 68.95 11 67 C10.69 64.7 10.49 62.4 10.28 60.09 C10.11 57.95 10.11 57.95 9 56 C8.69 53.7 8.49 51.4 8.28 49.09 C8.11 46.95 8.11 46.95 7 45 C6.66 42.98 6.35 40.96 6.06 38.94 C5.49 35.09 4.9 31.29 4 27.5 C1.89 18.46 0.82 9.23 0 0 Z " fill="#FCFCFC" transform="translate(59,79)"/>
<path d="M0 0 C-0.6 5.9 -1.41 11.67 -2.53 17.49 C-2.68 18.3 -2.83 19.1 -2.99 19.93 C-3.32 21.67 -3.65 23.41 -3.98 25.15 C-6.56 38.71 -9.07 52.29 -11.43 65.89 C-11.73 67.62 -11.73 67.62 -12.03 69.39 C-12.82 73.94 -13.61 78.49 -14.38 83.05 C-14.92 86.23 -15.47 89.4 -16.02 92.57 C-16.18 93.51 -16.33 94.45 -16.49 95.42 C-18.89 109.1 -18.89 109.1 -23.45 113.2 C-24.42 113.76 -25.4 114.32 -26.4 114.9 C-28.05 115.88 -28.05 115.88 -29.74 116.88 C-30.95 117.57 -32.16 118.25 -33.38 118.94 C-34.63 119.67 -35.89 120.41 -37.15 121.15 C-39.77 122.69 -42.4 124.21 -45.04 125.72 C-48.85 127.91 -52.64 130.13 -56.43 132.36 C-60.05 134.49 -63.67 136.62 -67.3 138.73 C-76.57 144.14 -85.78 149.64 -94.97 155.18 C-97.64 156.79 -100.32 158.4 -103 160 C-104.08 160.64 -104.08 160.64 -105.17 161.3 C-109.76 164 -109.76 164 -112 164 C-112.24 154.6 -111.59 145.34 -110.77 135.99 C-110.56 133.54 -110.36 131.1 -110.15 128.65 C-110.02 127.08 -109.89 125.51 -109.75 123.94 C-109.66 122.86 -109.66 122.86 -109.57 121.75 C-109.33 119 -109.06 116.31 -108.5 113.6 C-107.99 110.94 -107.74 108.37 -107.55 105.66 C-107.48 104.62 -107.4 103.58 -107.33 102.51 C-107.25 101.39 -107.18 100.28 -107.1 99.13 C-106.93 96.76 -106.76 94.39 -106.59 92.01 C-106.32 88.28 -106.06 84.55 -105.8 80.82 C-105.56 77.22 -105.3 73.61 -105.04 70 C-104.96 68.89 -104.89 67.78 -104.81 66.63 C-104.04 56.07 -104.04 56.07 -102 52 C-100.05 50.47 -100.05 50.47 -97.66 49.36 C-96.77 48.93 -95.89 48.51 -94.97 48.07 C-94.01 47.64 -93.05 47.2 -92.06 46.75 C-90.03 45.78 -88 44.81 -85.97 43.84 C-84.95 43.36 -83.94 42.88 -82.89 42.39 C-78.89 40.47 -74.97 38.41 -71.06 36.31 C-62.58 31.81 -54.04 27.4 -45.5 23 C-36.69 18.46 -27.89 13.92 -19.12 9.31 C-18.41 8.94 -17.7 8.57 -16.97 8.18 C-12.56 5.85 -8.2 3.43 -3.88 0.94 C-2 0 -2 0 0 0 Z " fill="#FDFDFD" transform="translate(625,79)"/>
<path d="M0 0 C-0.62 6.74 -1.43 13.43 -2.44 20.12 C-2.56 20.97 -2.68 21.81 -2.81 22.68 C-3.39 26.59 -4.06 30.42 -5.04 34.26 C-5.86 37.45 -6.43 40.5 -6.88 43.75 C-10.36 66.75 -14.81 83.03 -34.1 97.89 C-38.2 100.87 -42.37 103.74 -46.56 106.59 C-51.71 110.09 -56.78 113.7 -61.81 117.38 C-69.02 122.62 -76.33 127.7 -83.72 132.69 C-86.88 134.83 -89.95 136.96 -92.92 139.37 C-95 141 -95 141 -97 141 C-97.15 134.16 -96.57 127.65 -95.69 120.88 C-94.05 107.57 -93.03 94.24 -92.09 80.87 C-91.82 76.98 -91.51 73.09 -91.18 69.21 C-91.06 67.74 -90.95 66.27 -90.85 64.81 C-90.04 53.56 -90.04 53.56 -87.76 50.14 C-86.07 48.76 -84.48 47.9 -82.5 47 C-81.04 46.21 -79.58 45.42 -78.12 44.64 C-76.9 44.02 -76.9 44.02 -75.66 43.38 C-71.65 41.3 -67.76 39 -63.85 36.73 C-60.51 34.78 -57.16 32.86 -53.81 30.94 C-47.2 27.13 -40.66 23.24 -34.12 19.31 C-33.1 18.7 -32.08 18.08 -31.03 17.45 C-26.03 14.44 -21.04 11.42 -16.06 8.39 C-15.13 7.83 -14.2 7.27 -13.24 6.69 C-11.5 5.63 -9.75 4.57 -8.01 3.5 C-7.25 3.04 -6.48 2.58 -5.69 2.1 C-5.02 1.69 -4.35 1.28 -3.67 0.86 C-2 0 -2 0 0 0 Z " fill="#FCFCFC" transform="translate(598,228)"/>
<path d="M0 0 C7.78 4.2 15.47 8.52 23.12 12.94 C24.25 13.59 25.38 14.24 26.54 14.91 C35.27 19.95 43.92 25.13 52.55 30.34 C61.61 35.8 70.76 41.09 79.94 46.34 C80.98 46.94 82.02 47.53 83.09 48.15 C84.02 48.68 84.94 49.2 85.9 49.75 C88 51 88 51 89 52 C89.2 53.54 89.35 55.09 89.46 56.64 C89.54 57.6 89.62 58.56 89.7 59.55 C89.78 60.59 89.86 61.62 89.94 62.69 C90.46 69.1 90.98 75.46 92 81.81 C93.51 91.62 94.03 101.55 94.74 111.44 C95.18 117.5 95.66 123.56 96.12 129.62 C96.29 131.83 96.46 134.03 96.63 136.23 C96.74 137.61 96.74 137.61 96.85 139.03 C96.9 139.68 96.95 140.33 97 141 C93.74 139.79 91.03 138.49 88.24 136.42 C87.54 135.9 86.85 135.39 86.13 134.86 C85.38 134.31 84.64 133.76 83.88 133.19 C77.43 128.46 70.93 123.86 64.31 119.38 C57.9 115.02 51.58 110.58 45.37 105.96 C42.35 103.71 39.31 101.51 36.21 99.38 C21.72 89.41 12.91 77.4 9 60 C8.69 58.12 8.39 56.24 8.12 54.36 C7.3 48.89 6.43 43.44 5.53 37.99 C5.26 36.39 5 34.79 4.74 33.19 C4.34 30.74 3.93 28.3 3.53 25.85 C2.1 17.25 0.71 8.7 0 0 Z " fill="#FCFCFC" transform="translate(86,228)"/>
</svg>
