<?xml version="1.0" encoding="UTF-8"?>
<!-- Generator: https://ezgif.com/png-to-svg -->
<svg version="1.1" xmlns="http://www.w3.org/2000/svg" width="512" height="512" viewBox="-258.14 -90.015 1680.28 1680.28" preserveAspectRatio="xMidYMid meet">
<path d="M0 0 C2.97 0 5.94 0 9 0 C8.34 2.31 7.68 4.62 7 7 C6.34 7 5.68 7 5 7 C5.33 7.99 5.66 8.98 6 10 C5.11 12.57 5.11 12.57 3.75 15.56 C1.67 20.3 0.01 24.95 -1.32 29.94 C-2 32 -2 32 -4 35 C-4.61 37.57 -5.15 40.1 -5.62 42.69 C-5.76 43.39 -5.89 44.09 -6.03 44.81 C-6.36 46.54 -6.68 48.27 -7 50 C-7.66 50 -8.32 50 -9 50 C-9.13 50.86 -9.25 51.72 -9.38 52.61 C-9.99 55.95 -10.87 59.06 -11.88 62.31 C-13.71 68.57 -14.96 74.79 -15.96 81.23 C-16.42 84.12 -16.91 86.78 -18.02 89.51 C-19.34 92.86 -19.71 96.26 -20.12 99.81 C-20.21 100.51 -20.3 101.2 -20.39 101.91 C-20.6 103.61 -20.8 105.3 -21 107 C-21.66 107 -22.32 107 -23 107 C-22.94 108.83 -22.94 108.83 -22.88 110.69 C-22.87 115.84 -23.65 120.75 -24.49 125.82 C-25.14 129.87 -25.59 133.92 -26 138 C-26.66 138 -27.32 138 -28 138 C-27.81 138.87 -27.63 139.73 -27.44 140.62 C-26.98 144.12 -27.41 146.55 -28 150 C-28.14 152.12 -28.24 154.24 -28.32 156.37 C-28.36 157.57 -28.4 158.78 -28.44 160.02 C-28.48 161.29 -28.52 162.57 -28.56 163.88 C-28.6 165.19 -28.65 166.51 -28.69 167.86 C-29.11 181.67 -29.03 195.4 -28.63 209.21 C-28.58 210.65 -28.54 212.08 -28.5 213.52 C-28.45 215.54 -28.38 217.56 -28.32 219.59 C-28.26 221.37 -28.26 221.37 -28.21 223.18 C-28.18 225.95 -28.18 225.95 -27 228 C-26.77 233.54 -26.77 233.54 -28 236 C-27.34 236 -26.68 236 -26 236 C-25.88 237 -25.76 238.01 -25.63 239.04 C-25.21 253.61 -25.21 253.61 -21 266 C-20.67 268.16 -20.39 270.33 -20.12 272.5 C-19.45 277.46 -18.53 281.84 -16.79 286.51 C-15.34 291.08 -14.6 295.84 -13.75 300.55 C-13.09 303.59 -12.23 306.15 -11 309 C-10.49 310.47 -9.99 311.95 -9.5 313.44 C-8.68 315.92 -7.86 318.4 -7 320.88 C-6.42 322.69 -5.88 324.51 -5.42 326.36 C-3.78 332.96 -1.36 338.8 1.59 344.93 C3.09 348.19 4.22 351.44 5.28 354.87 C6.35 358.04 7.79 361.03 9.23 364.05 C10 366 10 366 10 369 C10.66 369 11.32 369 12 369 C12.24 369.55 12.48 370.11 12.73 370.68 C18.6 384.23 18.6 384.23 25.85 397.08 C27.36 399.59 28.26 402.17 29 405 C29.66 405 30.32 405 31 405 C32.49 409.46 32.49 409.46 34 414 C34.66 414 35.32 414 36 414 C36.25 414.52 36.51 415.04 36.77 415.57 C39.75 422.81 39.75 422.81 45 428 C45.29 428.74 45.58 429.49 45.88 430.25 C47.14 433.34 48.9 435.42 51 438 C51.33 438.99 51.66 439.98 52 441 C52.99 441.66 53.98 442.32 55 443 C56.03 444.71 57.06 446.43 58.02 448.19 C58.87 449.76 59.8 451.29 60.75 452.81 C62 455 62 455 62 457 C62.99 457.33 63.98 457.66 65 458 C66.19 460.56 66.19 460.56 67 463 C67.66 463 68.32 463 69 463 C69.33 464.32 69.66 465.64 70 467 C70.66 467 71.32 467 72 467 C72 467.66 72 468.32 72 469 C72.66 469.33 73.32 469.66 74 470 C74.47 470.8 74.95 471.61 75.44 472.44 C76.9 475.24 76.9 475.24 80 477 C81.04 478.64 82.04 480.31 83 482 C83.84 483.08 83.84 483.08 84.69 484.19 C86 486 86 486 86 488 C86.96 488.4 86.96 488.4 87.94 488.81 C90 490 90 490 91 493 C91.66 493 92.32 493 93 493 C94.62 494.31 94.62 494.31 96 496 C96 496.99 96 497.98 96 499 C96.59 499.25 97.18 499.5 97.79 499.76 C100.28 501.15 101.62 502.62 103.44 504.81 C106.16 508.03 108.97 511.05 112 514 C113.67 515.67 115.33 517.33 117 519 C117.78 519.76 118.57 520.53 119.38 521.31 C121.48 523.47 123.43 525.65 125.38 527.94 C128.64 531.7 132.16 534.84 136 538 C139.68 541.15 143.3 544.29 146.69 547.75 C148.99 549.99 151.24 551.37 154 553 C155.35 554.31 156.69 555.65 158 557 C161.6 559.95 165.29 562.76 169 565.56 C170.52 566.71 170.52 566.71 172.06 567.88 C174.92 570.01 174.92 570.01 177.81 571.65 C180 573 180 573 181 575 C182.65 575.94 184.31 576.89 185.98 577.8 C188.08 579.05 189.95 580.44 191.88 581.94 C195.38 584.63 199.01 586.76 202.91 588.84 C205 590 205 590 208.12 592.12 C211.34 594.22 214.45 595.58 218 597 C218 597.66 218 598.32 218 599 C218.6 599.14 219.2 599.29 219.81 599.44 C221.56 599.89 223.29 600.43 225 601 C225 601.66 225 602.32 225 603 C227.97 603.99 230.94 604.98 234 606 C234 606.66 234 607.32 234 608 C234.53 608.16 235.07 608.32 235.62 608.48 C240.91 610.14 245.72 612.26 250.64 614.8 C255.3 617.17 260.15 619.06 265 621 C268.33 622.33 271.67 623.67 275 625 C275 625.66 275 626.32 275 627 C275.68 627.11 276.35 627.22 277.05 627.33 C278.38 627.57 278.38 627.57 279.75 627.81 C280.63 627.96 281.51 628.11 282.42 628.27 C285.22 629.06 286.72 630.25 289 632 C291.04 632.63 291.04 632.63 293.19 632.94 C297.45 633.77 301.06 635.22 304.96 637.1 C306.96 637.98 308.87 638.53 311 639 C311 639.66 311 640.32 311 641 C311.82 641.13 312.64 641.27 313.48 641.4 C314.56 641.58 315.64 641.76 316.75 641.94 C317.82 642.11 318.88 642.29 319.98 642.46 C322.36 642.89 324.67 643.37 327 644 C327 644.66 327 645.32 327 646 C327.95 646.12 328.9 646.25 329.88 646.38 C334.62 647.05 339.31 648.03 344 649 C344 649.66 344 650.32 344 651 C345.15 651.12 346.3 651.23 347.48 651.35 C351.91 651.91 356 653.04 360.25 654.38 C361.75 654.83 363.25 655.28 364.75 655.73 C365.48 655.95 366.21 656.17 366.95 656.4 C376.17 659.12 385.6 661.04 395 663 C395 663.66 395 664.32 395 665 C395.63 665.05 396.26 665.1 396.91 665.15 C404.66 665.8 412.32 666.84 420 668 C420 668.66 420 669.32 420 670 C421.42 669.94 421.42 669.94 422.88 669.88 C426.91 669.87 430.65 670.65 434.58 671.5 C436.6 671.92 438.64 672.22 440.69 672.5 C444 673 444 673 447.12 673.96 C451.5 675.24 455.91 675.68 460.44 676.12 C461.26 676.21 462.09 676.3 462.94 676.39 C464.96 676.6 466.98 676.8 469 677 C469 677.66 469 678.32 469 679 C470.3 679.12 471.6 679.25 472.94 679.38 C480.64 680.14 488.32 681.08 496 682 C496 682.66 496 683.32 496 684 C497.26 683.98 498.52 683.96 499.82 683.94 C505.21 683.94 510.52 684.4 515.88 684.94 C516.81 685.02 517.75 685.11 518.71 685.2 C525.61 685.87 525.61 685.87 529 687 C529 687.66 529 688.32 529 689 C535.93 689.33 542.86 689.66 550 690 C550 691.98 550 693.96 550 696 C548.35 696 546.7 696 545 696 C545 696.66 545 697.32 545 698 C542.96 698.51 540.92 699.01 538.88 699.5 C537.17 699.92 537.17 699.92 535.43 700.34 C532.19 700.96 529.29 701.12 526 701 C526 701.66 526 702.32 526 703 C525 703.18 524 703.36 522.96 703.55 C521.62 703.8 520.28 704.06 518.94 704.31 C518.28 704.43 517.62 704.55 516.95 704.67 C512.31 705.56 508.32 707.06 504 709 C502.41 709.51 500.8 709.99 499.19 710.44 C494.91 711.68 490.83 713.2 486.71 714.9 C483.62 716.16 480.5 717.33 477.38 718.5 C473.6 719.94 469.96 721.45 466.38 723.31 C463 725 463 725 460 725 C460 725.66 460 726.32 460 727 C459.41 727.18 458.82 727.36 458.21 727.55 C457.42 727.8 456.63 728.05 455.81 728.31 C454.65 728.68 454.65 728.68 453.46 729.05 C450.74 730.1 448.48 731.48 446 733 C443.61 734.25 441.22 735.48 438.81 736.69 C438.18 737.01 437.56 737.33 436.91 737.66 C432.24 740 432.24 740 430 740 C430 740.66 430 741.32 430 742 C427.09 743.26 425.2 744 422 744 C422 744.66 422 745.32 422 746 C417.62 749 417.62 749 415 749 C415 749.66 415 750.32 415 751 C414.46 751.18 413.91 751.36 413.36 751.55 C412.64 751.8 411.92 752.05 411.19 752.31 C410.48 752.56 409.77 752.8 409.04 753.05 C406.84 754.07 405.65 755.24 404 757 C402.67 757.67 401.33 758.33 400 759 C399.67 759.66 399.34 760.32 399 761 C397.35 762.03 395.68 763.02 394 764 C391.65 765.58 389.32 767.18 386.99 768.79 C385 770 385 770 383 770 C383 770.66 383 771.32 383 772 C382.01 772.33 381.02 772.66 380 773 C378.98 773.97 377.98 774.98 377 776 C375.67 777.09 374.31 778.15 372.94 779.19 C372.25 779.72 371.55 780.25 370.84 780.79 C369 782 369 782 367 782 C366.67 782.99 366.34 783.98 366 785 C361.89 788.7 357.45 792 353.05 795.35 C351.23 796.81 349.63 798.34 348 800 C346.92 800.9 345.84 801.8 344.75 802.69 C341.34 805.58 338.47 808.77 335.57 812.16 C333.81 814.23 332.03 816.2 330 818 C329.34 818 328.68 818 328 818 C327.77 818.56 327.55 819.11 327.31 819.69 C325.63 822.65 323.43 824.62 321 827 C320.09 828.07 319.2 829.16 318.31 830.25 C316 833 316 833 314 834 C313.69 834.62 313.38 835.24 313.06 835.88 C311.96 838.08 310.77 839.31 309 841 C308.34 841.99 307.68 842.98 307 844 C306.34 844 305.68 844 305 844 C304.74 844.56 304.48 845.12 304.21 845.69 C301.35 851.15 297.49 856.16 293.62 860.94 C291.81 863 291.81 863 291 866 C290.34 866 289.68 866 289 866 C288.77 866.64 288.55 867.28 288.31 867.94 C283.45 879.27 283.45 879.27 280 881 C279.08 882.63 278.24 884.31 277.44 886 C275.24 890.53 272.95 894.99 270.57 899.42 C267.32 905.44 264.22 911.38 261.83 917.8 C260.95 920.13 259.96 922.37 258.94 924.62 C255.66 931.94 253.23 939.36 250.96 947.05 C250 950 250 950 248.94 951.96 C247.6 954.87 247.38 957.71 247 960.88 C246.44 965.52 245.52 969.58 244 974 C242.39 981.59 241.58 989.27 241 997 C236.7 997.6 234.43 996.26 230.99 993.75 C230.1 993.07 230.1 993.07 229.19 992.38 C228.57 991.92 227.96 991.47 227.32 991 C225.54 989.68 223.77 988.34 222 987 C221.14 986.35 220.27 985.7 219.38 985.04 C218.07 984.05 216.76 983.06 215.45 982.06 C213.97 980.91 213.97 980.91 212 980 C212 979.34 212 978.68 212 978 C211.03 977.73 210.06 977.46 209.06 977.19 C207.55 976.6 207.55 976.6 206 976 C205.67 975.01 205.34 974.02 205 973 C202.5 971.78 202.5 971.78 200 971 C200 970.34 200 969.68 200 969 C199.28 968.75 198.56 968.5 197.81 968.25 C194.74 966.88 192.59 965.12 190 963 C188.69 962.29 187.36 961.61 186 961 C186 960.34 186 959.68 186 959 C185.43 958.73 184.86 958.46 184.27 958.19 C181.92 956.96 179.88 955.57 177.75 954 C176.69 953.23 176.69 953.23 175.61 952.44 C175.08 951.96 174.55 951.49 174 951 C174 950.34 174 949.68 174 949 C173.42 948.89 172.85 948.79 172.25 948.68 C169.66 947.9 168.07 946.78 165.94 945.12 C164.93 944.36 164.93 944.36 163.9 943.57 C162 942 162 942 160.55 940.55 C156.04 936.05 150.76 932.03 145.38 928.62 C144.59 928.09 143.81 927.55 143 927 C143 926.34 143 925.68 143 925 C141.35 924.34 139.7 923.68 138 923 C138 922.34 138 921.68 138 921 C137.26 920.75 136.51 920.5 135.75 920.25 C132.77 918.9 131.22 917.37 129 915 C128.01 914.34 127.02 913.68 126 913 C126 912.34 126 911.68 126 911 C125.44 910.75 124.89 910.5 124.31 910.25 C121 908.46 118.28 906.08 115.42 903.66 C112.39 901.07 112.39 901.07 109 899 C109 898.34 109 897.68 109 897 C108.28 896.77 107.56 896.55 106.81 896.31 C103.44 894.74 101.44 892.79 99 890 C99 889.34 99 888.68 99 888 C98.28 887.77 97.56 887.55 96.81 887.31 C93.41 885.73 91.55 883.74 89 881 C85.52 877.2 85.52 877.2 81 875 C78.31 872.56 78.31 872.56 76 870 C76 869.34 76 868.68 76 868 C75.46 867.77 74.93 867.55 74.38 867.31 C71.18 865.54 68.71 863.46 66 861 C66 860.34 66 859.68 66 859 C65.12 858.59 65.12 858.59 64.21 858.18 C56.5 854.08 50.43 846.67 45 840 C44.67 840.99 44.34 841.98 44 843 C44.66 843 45.32 843 46 843 C46.66 844.98 47.32 846.96 48 849 C48.66 849 49.32 849 50 849 C50.99 851.97 51.98 854.94 53 858 C53.66 858 54.32 858 55 858 C55.46 858.94 55.92 859.88 56.39 860.85 C57.01 862.11 57.63 863.37 58.25 864.62 C58.55 865.24 58.85 865.86 59.16 866.5 C61.17 870.55 63.46 874.24 66 878 C66.87 879.61 67.7 881.23 68.5 882.88 C68.92 883.74 69.34 884.6 69.77 885.48 C70.18 886.31 70.58 887.14 71 888 C71.71 889.38 72.42 890.75 73.12 892.12 C74.7 895.26 75.91 898.44 77.09 901.74 C78.22 904.55 79.6 907.19 81 909.88 C83.33 914.44 85.01 918.84 86.36 923.77 C87.28 926.98 88.66 929.95 90 933 C92.36 939 94.38 944.86 95.51 951.22 C95.91 953.24 95.91 953.24 98 955 C98.56 957.08 98.56 957.08 99 959.61 C99.16 960.53 99.33 961.45 99.5 962.4 C99.66 963.36 99.83 964.32 100 965.31 C100.33 967.21 100.66 969.1 101 970.99 C101.14 971.83 101.29 972.67 101.44 973.54 C102.04 976.17 102.97 978.51 104 981 C104.4 982.91 104.75 984.83 105.06 986.75 C105.38 990.18 105.38 990.18 107 993 C107.68 996.45 108.09 999.95 108.56 1003.44 C108.77 1004.88 108.77 1004.88 108.98 1006.35 C109.84 1012.61 110.18 1018.69 110 1025 C110.66 1025 111.32 1025 112 1025 C125.87 1052.74 117.27 1119.76 113 1150 C112.67 1150.66 112.34 1151.32 112 1152 C111.34 1152 110.68 1152 110 1152 C110.02 1152.59 110.03 1153.17 110.05 1153.78 C110.15 1160.52 109.54 1167.01 108.62 1173.69 C108.5 1174.68 108.37 1175.67 108.24 1176.7 C107.54 1181.98 106.59 1186.91 105 1192 C104.49 1194.26 104.02 1196.52 103.56 1198.79 C103 1201 103 1201 102.03 1203.25 C100.42 1207.56 99.91 1212.05 99.23 1216.59 C98.45 1221.46 97.04 1225.47 95 1230 C94.07 1232.64 93.25 1235.32 92.44 1238 C92.23 1238.67 92.02 1239.35 91.81 1240.04 C90.48 1244.34 89.22 1248.67 88 1253 C87.34 1253 86.68 1253 86 1253 C85.86 1254.07 85.71 1255.14 85.56 1256.25 C85.16 1258.92 84.72 1261.41 84 1264 C83.34 1264 82.68 1264 82 1264 C81.92 1265.18 81.84 1266.35 81.75 1267.56 C81.29 1271.32 80.09 1273.8 78.04 1277.01 C76.32 1280.3 75.63 1283.85 74.81 1287.45 C73.94 1290.18 72.78 1291.79 71 1294 C70.27 1295.63 69.55 1297.26 68.87 1298.91 C65.46 1307.14 61.49 1315.1 57.45 1323.03 C55.94 1325.95 55.94 1325.95 55 1329 C54.34 1329 53.68 1329 53 1329 C52.88 1329.72 52.75 1330.44 52.62 1331.19 C52 1333.98 51.22 1336.41 50 1339 C49.34 1339.33 48.68 1339.66 48 1340 C47 1341.59 47 1341.59 46.09 1343.53 C45.74 1344.24 45.39 1344.95 45.03 1345.68 C44.67 1346.42 44.31 1347.17 43.94 1347.94 C43.57 1348.68 43.21 1349.42 42.83 1350.19 C42.16 1351.56 41.49 1352.94 40.82 1354.32 C40.22 1355.55 39.61 1356.78 39 1358 C38.34 1358 37.68 1358 37 1358 C36.67 1359.65 36.34 1361.3 36 1363 C35.34 1363 34.68 1363 34 1363 C33.79 1363.78 33.59 1364.57 33.38 1365.38 C31.53 1370.25 29.07 1374.78 26 1379 C25.34 1379 24.68 1379 24 1379 C23.81 1379.78 23.63 1380.57 23.44 1381.38 C21.78 1385.56 19.51 1388.76 16.88 1392.4 C14.14 1396.19 11.58 1400.1 9 1404 C8.34 1404.99 7.68 1405.98 7 1407 C6.34 1407 5.68 1407 5 1407 C4.89 1407.57 4.79 1408.13 4.68 1408.71 C3.89 1411.38 2.69 1413.26 1.12 1415.56 C0.61 1416.33 0.1 1417.09 -0.43 1417.88 C-1.85 1419.79 -3.32 1421.33 -5 1423 C-6.83 1425.36 -8.6 1427.74 -10.38 1430.14 C-10.91 1430.75 -11.45 1431.37 -12 1432 C-12.66 1432 -13.32 1432 -14 1432 C-14.06 1432.54 -14.12 1433.07 -14.19 1433.62 C-15.62 1437.81 -18.94 1440.82 -21.85 1444.06 C-22.48 1444.76 -23.1 1445.46 -23.75 1446.19 C-24.34 1446.84 -24.94 1447.49 -25.55 1448.17 C-27.2 1450.04 -27.2 1450.04 -28 1453 C-29.64 1454.69 -31.31 1456.35 -33 1458 C-33.97 1459.09 -34.93 1460.2 -35.88 1461.31 C-36.38 1461.91 -36.89 1462.5 -37.41 1463.11 C-38.49 1464.4 -39.58 1465.69 -40.66 1466.98 C-44.18 1471.12 -47.88 1474.7 -52.02 1478.21 C-55.91 1481.72 -59.21 1485.77 -62.48 1489.84 C-63.62 1491.26 -64.8 1492.63 -66 1494 C-66.66 1494 -67.32 1494 -68 1494 C-68 1494.66 -68 1495.32 -68 1496 C-69.69 1498.12 -69.69 1498.12 -72 1500 C-74.75 1500.25 -74.75 1500.25 -77 1500 C-76.67 1497.03 -76.34 1494.06 -76 1491 C-75.34 1491 -74.68 1491 -74 1491 C-73.88 1489.8 -73.75 1488.61 -73.62 1487.38 C-73.18 1483.72 -72.3 1480.45 -71 1477 C-70.34 1477 -69.68 1477 -69 1477 C-68.85 1475.55 -68.85 1475.55 -68.69 1474.06 C-68.16 1470.34 -67.07 1466.96 -65.83 1463.42 C-64.42 1459.32 -63.22 1455.16 -62 1451 C-61.34 1451 -60.68 1451 -60 1451 C-59.96 1450.42 -59.93 1449.83 -59.89 1449.23 C-59.33 1442.27 -57.84 1435.74 -56 1429 C-55.34 1429 -54.68 1429 -54 1429 C-53.94 1428.02 -53.94 1428.02 -53.89 1427.02 C-53.53 1422.04 -52.94 1417.38 -51.62 1412.56 C-49.9 1406.15 -48.98 1399.69 -48.09 1393.12 C-47.58 1389.47 -47.02 1386.08 -45.98 1382.54 C-44.7 1377.93 -44.33 1373.38 -43.94 1368.62 C-43.78 1366.83 -43.63 1365.03 -43.46 1363.23 C-43.4 1362.44 -43.33 1361.65 -43.27 1360.84 C-43 1359 -43 1359 -42 1358 C-41.77 1355.14 -41.6 1352.29 -41.46 1349.43 C-41.42 1348.55 -41.38 1347.67 -41.33 1346.77 C-41.24 1344.91 -41.16 1343.04 -41.07 1341.18 C-40.94 1338.37 -40.8 1335.56 -40.66 1332.76 C-39.88 1316.62 -40 1300.67 -40.8 1284.54 C-40.94 1281.71 -41.07 1278.89 -41.2 1276.07 C-41.29 1274.27 -41.38 1272.47 -41.46 1270.67 C-41.52 1269.41 -41.52 1269.41 -41.58 1268.12 C-41.7 1263.92 -41.7 1263.92 -43 1260 C-43.97 1253.68 -44.1 1247.38 -44 1241 C-44.66 1241 -45.32 1241 -46 1241 C-45.94 1239.61 -45.94 1239.61 -45.88 1238.19 C-45.73 1234.84 -45.73 1234.84 -48 1232 C-48.46 1229.58 -48.82 1227.13 -49.12 1224.69 C-49.29 1223.39 -49.46 1222.1 -49.63 1220.76 C-49.95 1217.47 -50.07 1214.3 -50 1211 C-50.66 1211 -51.32 1211 -52 1211 C-52.29 1209.41 -52.29 1209.41 -52.59 1207.79 C-52.85 1206.4 -53.11 1205.01 -53.38 1203.62 C-53.56 1202.58 -53.56 1202.58 -53.76 1201.51 C-54.5 1197.33 -54.5 1197.33 -57 1194 C-57.55 1192.23 -57.55 1192.23 -57.96 1190.11 C-58.13 1189.34 -58.29 1188.57 -58.45 1187.77 C-58.77 1186.15 -59.09 1184.53 -59.41 1182.92 C-60.45 1177.92 -61.87 1173.63 -64 1169 C-68.36 1157.92 -68.36 1157.92 -69 1152 C-69.66 1152 -70.32 1152 -71 1152 C-71.51 1150.59 -72.01 1149.17 -72.5 1147.75 C-72.78 1146.96 -73.06 1146.17 -73.34 1145.36 C-74 1143 -74 1143 -74 1139 C-74.66 1139 -75.32 1139 -76 1139 C-76.24 1138.38 -76.48 1137.77 -76.73 1137.13 C-78.77 1131.98 -80.9 1126.92 -83.27 1121.91 C-84 1120 -84 1120 -84 1117 C-84.66 1117 -85.32 1117 -86 1117 C-86.48 1115.93 -86.96 1114.86 -87.46 1113.75 C-88.1 1112.36 -88.74 1110.96 -89.38 1109.56 C-89.85 1108.5 -89.85 1108.5 -90.34 1107.42 C-91.89 1103.53 -91.89 1103.53 -95 1101 C-96.11 1098.89 -97.14 1096.73 -98.12 1094.56 C-98.66 1093.39 -99.2 1092.21 -99.76 1091 C-101 1088 -101 1088 -101 1086 C-101.66 1086 -102.32 1086 -103 1086 C-107 1079.37 -107 1079.37 -107 1076 C-107.66 1076 -108.32 1076 -109 1076 C-112 1071.62 -112 1071.62 -112 1069 C-112.66 1069 -113.32 1069 -114 1069 C-114.27 1067.87 -114.54 1066.73 -114.81 1065.56 C-115.4 1063.8 -115.4 1063.8 -116 1062 C-116.99 1061.67 -117.98 1061.34 -119 1061 C-120.03 1059.02 -121.03 1057.02 -122 1055 C-122.66 1054.67 -123.32 1054.34 -124 1054 C-124.46 1052.27 -124.46 1052.27 -124.94 1050.5 C-125.29 1049.35 -125.64 1048.19 -126 1047 C-126.99 1046.67 -127.98 1046.34 -129 1046 C-131 1043 -131 1043 -131 1040 C-131.64 1039.73 -132.28 1039.46 -132.94 1039.19 C-135 1038 -135 1038 -136 1035 C-136.99 1034.34 -137.98 1033.68 -139 1033 C-139.52 1032.03 -140.03 1031.06 -140.56 1030.06 C-143.14 1025.26 -146.93 1021.57 -150.66 1017.65 C-152.82 1015.2 -154.37 1012.82 -156 1010 C-156.74 1009.26 -157.49 1008.51 -158.25 1007.75 C-160.59 1005.41 -162.46 1003.13 -164.44 1000.5 C-166.57 997.69 -168.61 995.31 -171.38 993.12 C-174 991 -174 991 -175 988 C-177.94 984.79 -181.16 981.98 -184.44 979.12 C-187.8 976.17 -190.7 973.11 -193.54 969.66 C-195.6 967.32 -197.94 965.39 -200.34 963.41 C-202.7 961.41 -204.82 959.18 -207 957 C-208.66 955.66 -210.33 954.32 -212 953 C-214.03 951.24 -216.05 949.46 -218.06 947.68 C-219.66 946.29 -221.32 944.98 -223 943.69 C-223.66 943.13 -224.32 942.57 -225 942 C-225 941.34 -225 940.68 -225 940 C-225.78 939.69 -226.57 939.38 -227.38 939.06 C-230 938 -230 938 -232 937 C-232 936.34 -232 935.68 -232 935 C-232.62 934.69 -233.24 934.38 -233.88 934.06 C-235.25 933.38 -236.62 932.69 -238 932 C-238 931.34 -238 930.68 -238 930 C-238.95 929.73 -239.9 929.46 -240.88 929.19 C-244 928 -244 928 -246 925 C-248.55 923.8 -248.55 923.8 -251 923 C-251 922.34 -251 921.68 -251 921 C-253.33 919.79 -255.5 918.83 -258 918 C-259 917 -260 916 -261 915 C-262.58 913.98 -264.19 913 -265.81 912.06 C-269.63 909.82 -273.33 907.48 -277 905 C-280.86 902.52 -284.77 900.74 -289 899 C-289 898.34 -289 897.68 -289 897 C-289.61 896.82 -290.23 896.64 -290.86 896.45 C-292.08 896.07 -292.08 896.07 -293.31 895.69 C-294.51 895.32 -294.51 895.32 -295.74 894.95 C-298.12 893.95 -299.26 892.86 -301 891 C-303.1 890.29 -303.1 890.29 -305 890 C-305 889.34 -305 888.68 -305 888 C-305.8 887.94 -306.61 887.88 -307.44 887.81 C-311.43 886.9 -314.27 885.31 -317.78 883.26 C-323.82 879.83 -330.55 877.56 -337 875 C-337 874.34 -337 873.68 -337 873 C-337.66 872.89 -338.33 872.78 -339.01 872.67 C-344.01 871.77 -347.72 870.82 -352 868 C-358.56 865.35 -365.29 863.2 -372 861 C-372 860.34 -372 859.68 -372 859 C-373.13 858.9 -374.27 858.79 -375.44 858.69 C-379.32 858.2 -382.76 857.2 -386.43 855.89 C-390.6 854.44 -394.85 853.22 -399.08 851.96 C-402 851 -402 851 -404 849.95 C-406.69 848.67 -409.31 848.32 -412.25 847.88 C-413.87 847.62 -413.87 847.62 -415.52 847.37 C-416.34 847.25 -417.16 847.12 -418 847 C-418 846.34 -418 845.68 -418 845 C-419.1 844.81 -420.19 844.61 -421.32 844.41 C-422.78 844.15 -424.23 843.89 -425.69 843.62 C-426.41 843.5 -427.13 843.37 -427.87 843.24 C-431.83 842.52 -435.26 841.51 -439 840 C-442.21 839.32 -445.42 838.71 -448.65 838.14 C-452.03 837.52 -454.09 836.94 -457 835 C-459.12 834.46 -459.12 834.46 -461.45 834.15 C-462.72 833.96 -462.72 833.96 -464.02 833.76 C-464.9 833.63 -465.78 833.51 -466.69 833.38 C-468.03 833.17 -468.03 833.17 -469.39 832.97 C-471.59 832.64 -473.8 832.32 -476 832 C-476 831.34 -476 830.68 -476 830 C-476.97 830.04 -477.94 830.08 -478.94 830.12 C-482.73 830.13 -486.17 829.4 -489.84 828.51 C-492.54 827.87 -495.26 827.42 -498 827 C-498 826.34 -498 825.68 -498 825 C-498.91 824.94 -499.81 824.88 -500.75 824.82 C-520.55 823.45 -520.55 823.45 -522 822 C-530.21 819.84 -538.58 818.97 -547 818 C-547 817.34 -547 816.68 -547 816 C-547.59 816.02 -548.17 816.03 -548.78 816.05 C-555.52 816.16 -561.96 815.49 -568.62 814.5 C-570.13 814.29 -570.13 814.29 -571.67 814.07 C-574.11 813.72 -576.56 813.36 -579 813 C-579 812.34 -579 811.68 -579 811 C-580.02 810.95 -581.04 810.9 -582.09 810.85 C-592.78 810.3 -603.37 809.28 -614 808 C-614 805.36 -614 802.72 -614 800 C-611.36 799.67 -608.72 799.34 -606 799 C-606 798.34 -606 797.68 -606 797 C-604.39 796.73 -604.39 796.73 -602.75 796.45 C-601.31 796.2 -599.87 795.94 -598.44 795.69 C-597.38 795.51 -597.38 795.51 -596.3 795.33 C-591.47 794.46 -587.48 792.99 -583 791 C-580.27 790.27 -580.27 790.27 -577.81 789.81 C-576.58 789.57 -576.58 789.57 -575.33 789.33 C-573 789 -573 789 -569 789 C-569 788.34 -569 787.68 -569 787 C-558.65 783.19 -558.65 783.19 -553.5 781.56 C-548.95 780.08 -544.69 778.07 -540.38 775.99 C-538 775 -538 775 -535 775 C-535 774.34 -535 773.68 -535 773 C-534.42 772.77 -533.83 772.54 -533.23 772.3 C-530.49 771.21 -527.74 770.11 -525 769 C-523.96 768.58 -522.91 768.16 -521.84 767.73 C-520.8 767.3 -519.76 766.88 -518.69 766.44 C-517.24 765.85 -517.24 765.85 -515.76 765.25 C-512.95 764.04 -512.95 764.04 -510.27 762.35 C-508 761 -508 761 -506 761 C-506 760.34 -506 759.68 -506 759 C-503.38 757.66 -500.75 756.33 -498.12 755 C-497.01 754.43 -497.01 754.43 -495.86 753.84 C-495.15 753.48 -494.43 753.12 -493.7 752.75 C-493.04 752.41 -492.38 752.08 -491.7 751.73 C-490 751 -490 751 -488 751 C-488 750.34 -488 749.68 -488 749 C-485.41 747.97 -485.41 747.97 -482.82 746.95 C-480.79 745.89 -479.61 744.62 -478 743 C-476.51 742.06 -474.98 741.16 -473.44 740.31 C-472.26 739.66 -472.26 739.66 -471.06 738.99 C-469 738 -469 738 -467 738 C-466.67 737.01 -466.34 736.02 -466 735 C-463.85 733.54 -461.75 732.22 -459.5 730.94 C-455.07 728.68 -455.07 728.68 -452 725 C-451.07 724.55 -450.14 724.09 -449.19 723.62 C-446.03 722.22 -446.03 722.22 -444.12 720.12 C-442.15 718.15 -440.44 716.98 -438.06 715.56 C-435.42 713.98 -433.25 712.42 -431.12 710.19 C-430.42 709.47 -429.72 708.74 -429 708 C-428.34 708 -427.68 708 -427 708 C-426.67 707.01 -426.34 706.02 -426 705 C-425.34 705 -424.68 705 -424 705 C-424 704.34 -424 703.68 -424 703 C-423.34 703 -422.68 703 -422 703 C-422 702.34 -422 701.68 -422 701 C-420.92 700.38 -420.92 700.38 -419.81 699.75 C-416.79 698.08 -416.79 698.08 -414.5 694.94 C-411.93 691.92 -410.55 691.38 -407 690 C-406.8 689.09 -406.8 689.09 -406.59 688.15 C-405.82 685.34 -404.58 684.49 -402.31 682.69 C-398.91 679.86 -396.08 676.93 -393.32 673.48 C-392 672 -392 672 -389 670 C-388.67 669.01 -388.34 668.02 -388 667 C-386.36 665.31 -384.69 663.65 -383 662 C-382.44 661.24 -381.89 660.47 -381.31 659.69 C-380.88 659.13 -380.45 658.57 -380 658 C-379.34 658 -378.68 658 -378 658 C-377.73 657.24 -377.46 656.47 -377.19 655.69 C-376.02 653.05 -375.08 651.91 -373 650 C-372.48 649.28 -371.97 648.56 -371.44 647.81 C-370.96 647.21 -370.49 646.62 -370 646 C-369.34 646 -368.68 646 -368 646 C-367.63 645.23 -367.63 645.23 -367.25 644.44 C-364.87 639.81 -362.69 635.69 -359 632 C-358.02 630.33 -357.04 628.66 -356.11 626.97 C-354.56 624.21 -352.85 621.56 -351.15 618.89 C-349.98 616.98 -348.98 615.02 -348 613 C-347.34 613 -346.68 613 -346 613 C-345.91 612.48 -345.82 611.97 -345.73 611.43 C-344.72 608.06 -343.01 605.13 -341.31 602.06 C-337.57 595.17 -334.16 588.18 -331 581 C-330.53 579.96 -330.07 578.91 -329.59 577.84 C-327.03 571.93 -325.16 566.34 -324 560 C-323.34 560 -322.68 560 -322 560 C-321.01 555.71 -320.02 551.42 -319 547 C-318.34 547 -317.68 547 -317 547 C-316.95 546.31 -316.9 545.62 -316.85 544.91 C-316.36 538.77 -315.47 532.99 -314 527 C-313.34 527 -312.68 527 -312 527 C-312.03 525.08 -312.03 525.08 -312.06 523.13 C-312.06 518.01 -311.58 513.01 -311 507.94 C-310.9 507.07 -310.81 506.21 -310.71 505.31 C-310.48 503.21 -310.24 501.1 -310 499 C-305.56 499.71 -303.44 501.1 -300 504 C-299.01 504.33 -298.02 504.66 -297 505 C-295.28 506.57 -293.78 508.25 -292.25 510 C-289.99 512.22 -289.99 512.22 -286.5 513.5 C-283.08 514.97 -281.45 516.28 -279 519 C-278.34 519.33 -277.68 519.66 -277 520 C-277 520.66 -277 521.32 -277 522 C-276.28 522.25 -275.56 522.5 -274.81 522.75 C-271.7 524.13 -269.64 525.84 -267 528 C-265.49 529.01 -263.96 530.01 -262.44 531 C-259.25 533.09 -256.65 535.25 -254 538 C-253.01 538.33 -252.02 538.66 -251 539 C-249.65 540.31 -248.31 541.65 -247 543 C-246.34 543.33 -245.68 543.66 -245 544 C-245 544.66 -245 545.32 -245 546 C-244.27 546.25 -243.54 546.5 -242.79 546.75 C-239.73 548.12 -237.86 549.71 -235.44 552 C-232.72 554.56 -230.38 556.43 -227 558 C-225.98 558.98 -224.98 559.98 -224 561 C-223.01 561.66 -222.02 562.32 -221 563 C-221 563.66 -221 564.32 -221 565 C-219.35 565.66 -217.7 566.32 -216 567 C-216 567.66 -216 568.32 -216 569 C-215.32 569.21 -214.64 569.41 -213.94 569.62 C-210.08 571.43 -206.92 573.9 -204 577 C-204 577.66 -204 578.32 -204 579 C-203.34 579.19 -202.68 579.37 -202 579.56 C-198.4 581.29 -195.89 583.57 -192.96 586.25 C-191.01 588.05 -191.01 588.05 -188.75 589.6 C-187.89 590.29 -187.89 590.29 -187 591 C-187 591.66 -187 592.32 -187 593 C-186.34 593.19 -185.68 593.37 -185 593.56 C-181.49 595.24 -179.11 597.4 -176.25 600 C-173.84 602.14 -171.35 604.13 -168.81 606.12 C-159.49 613.54 -159.49 613.54 -158 618 C-157.18 618.33 -156.35 618.66 -155.5 619 C-154.68 619.33 -153.85 619.66 -153 620 C-152.67 620.99 -152.34 621.98 -152 623 C-151.26 623.29 -150.51 623.58 -149.75 623.88 C-146.31 625.28 -144.61 627.36 -142 630 C-140.23 631.46 -138.43 632.9 -136.62 634.31 C-132.46 637.67 -128.89 641.1 -125.54 645.27 C-124.01 647.11 -124.01 647.11 -121.81 648.6 C-121.21 649.06 -120.61 649.52 -120 650 C-120 650.66 -120 651.32 -120 652 C-119.07 652.19 -119.07 652.19 -118.12 652.38 C-116 653 -116 653 -114 655 C-114.33 654.4 -114.66 653.8 -115 653.19 C-116 651 -116 651 -116 648 C-116.99 647.67 -117.98 647.34 -119 647 C-120.5 644.93 -120.5 644.93 -122 642.31 C-122.5 641.46 -122.99 640.61 -123.5 639.74 C-125.08 636.86 -126.53 633.94 -128 631 C-129.85 627.64 -131.71 624.28 -133.57 620.93 C-135 618 -135 618 -135 615 C-135.66 615 -136.32 615 -137 615 C-137.28 614.38 -137.56 613.76 -137.85 613.12 C-138.25 612.24 -138.65 611.35 -139.06 610.44 C-139.74 608.94 -139.74 608.94 -140.43 607.42 C-141.54 604.99 -142.68 602.58 -143.86 600.18 C-144.17 599.52 -144.48 598.87 -144.81 598.2 C-145.42 596.93 -146.04 595.66 -146.68 594.39 C-148.7 590.17 -149.55 586.6 -150 582 C-150.66 582 -151.32 582 -152 582 C-152.51 580.75 -153.01 579.5 -153.5 578.25 C-153.78 577.55 -154.06 576.86 -154.34 576.14 C-155 574 -155 574 -155 570 C-155.66 570 -156.32 570 -157 570 C-157.18 569.36 -157.36 568.72 -157.55 568.06 C-158.71 564.07 -159.89 560.25 -161.56 556.44 C-163.89 550.87 -165.39 545.08 -165 539 C-165.66 539 -166.32 539 -167 539 C-167.19 538.14 -167.39 537.29 -167.59 536.4 C-167.85 535.26 -168.11 534.12 -168.38 532.94 C-168.76 531.25 -168.76 531.25 -169.15 529.53 C-169.71 527.2 -170.33 524.88 -171 522.59 C-172.1 518.64 -172.93 514.71 -173.69 510.69 C-173.9 509.62 -173.9 509.62 -174.12 508.52 C-175.12 503.24 -175.12 503.24 -174 501 C-174.66 501 -175.32 501 -176 501 C-176.12 500.25 -176.23 499.51 -176.35 498.74 C-176.88 495.37 -177.41 492 -177.94 488.62 C-178.12 487.45 -178.3 486.27 -178.49 485.06 C-178.67 483.94 -178.84 482.82 -179.03 481.66 C-179.19 480.63 -179.35 479.59 -179.52 478.52 C-179.88 476.02 -179.88 476.02 -181 474 C-181.21 471.96 -181.37 469.91 -181.5 467.86 C-181.58 466.62 -181.67 465.39 -181.75 464.12 C-181.83 462.82 -181.92 461.52 -182 460.19 C-182.16 457.64 -182.33 455.09 -182.5 452.54 C-182.57 451.41 -182.64 450.27 -182.72 449.11 C-182.92 446.12 -182.92 446.12 -183.51 443.71 C-184.07 440.6 -184.13 437.68 -184.13 434.51 C-184.13 433.22 -184.14 431.93 -184.14 430.6 C-184.14 429.2 -184.14 427.8 -184.13 426.4 C-184.13 424.96 -184.13 423.51 -184.14 422.07 C-184.14 419.05 -184.14 416.03 -184.13 413.02 C-184.12 409.15 -184.13 405.28 -184.13 401.41 C-184.14 398.44 -184.14 395.46 -184.13 392.48 C-184.13 391.06 -184.13 389.63 -184.14 388.2 C-184.14 386.21 -184.13 384.22 -184.13 382.23 C-184.13 380.53 -184.13 380.53 -184.13 378.79 C-184 376 -184 376 -183 373 C-182.79 370.8 -182.63 368.6 -182.5 366.4 C-182.42 365.1 -182.33 363.81 -182.25 362.48 C-182.12 360.42 -182 358.36 -181.88 356.3 C-181.75 354.31 -181.63 352.32 -181.5 350.34 C-181.43 349.15 -181.36 347.95 -181.28 346.73 C-181 344 -181 344 -180 343 C-179.74 341.44 -179.53 339.87 -179.35 338.29 C-179.23 337.32 -179.12 336.35 -179 335.34 C-178.87 334.3 -178.75 333.26 -178.62 332.19 C-177.73 324.97 -176.73 317.98 -174.75 310.96 C-173.59 306.38 -172.88 301.72 -172.18 297.05 C-171.41 292.31 -169.94 288.42 -168 284 C-167.28 281.33 -166.62 278.69 -166 276 C-165.2 272.81 -164.38 269.62 -163.56 266.44 C-163.36 265.63 -163.15 264.81 -162.94 263.98 C-161.68 259.09 -160.05 254.63 -158 250 C-157.28 247.82 -156.59 245.64 -155.94 243.44 C-154.69 239.27 -153.4 235.12 -152 231 C-151.34 231 -150.68 231 -150 231 C-149.9 230.18 -149.79 229.36 -149.68 228.52 C-148.88 224.39 -147.56 220.67 -146.06 216.75 C-145.67 215.67 -145.67 215.67 -145.26 214.57 C-143.25 209.25 -143.25 209.25 -141 207 C-140.18 204.17 -139.53 201.31 -138.88 198.43 C-138.59 197.63 -138.3 196.83 -138 196 C-137.01 195.67 -136.02 195.34 -135 195 C-134.52 193.41 -134.05 191.82 -133.65 190.21 C-131.3 182.22 -126.94 170.94 -121 165 C-120.31 163.34 -119.65 161.67 -119 160 C-113.27 148.61 -106.8 137.44 -99.56 126.94 C-97.84 124.42 -96.9 122.7 -95.94 119.75 C-94.74 116.23 -92.66 114.52 -90 112 C-90 111.34 -90 110.68 -90 110 C-89.34 110 -88.68 110 -88 110 C-87.73 109.07 -87.46 108.14 -87.19 107.19 C-86.01 104.02 -85.32 103.23 -83 101 C-82 99.23 -81.01 97.47 -80.04 95.69 C-78.67 93.46 -76.85 91.85 -75 90 C-74.28 88.83 -73.6 87.64 -72.94 86.44 C-71.34 83.61 -70.25 82.16 -68 80 C-67.32 78.95 -66.64 77.9 -65.94 76.81 C-64.98 75.42 -64.98 75.42 -64 74 C-63.34 74 -62.68 74 -62 74 C-61.74 73.27 -61.48 72.55 -61.22 71.8 C-59.95 68.88 -58.47 66.73 -56.5 64.25 C-55.89 63.47 -55.28 62.69 -54.66 61.89 C-53 60 -53 60 -51 59 C-50.04 57.31 -49.08 55.62 -48.14 53.92 C-46.38 50.96 -44.35 48.53 -42 46 C-41.34 46 -40.68 46 -40 46 C-39.91 45.16 -39.91 45.16 -39.81 44.31 C-38.64 40.99 -36.61 39.31 -34 37 C-33.26 36.65 -32.51 36.3 -31.75 35.94 C-31.17 35.63 -30.6 35.32 -30 35 C-29.86 34.4 -29.71 33.8 -29.56 33.19 C-28.71 29.85 -26.48 28.32 -24 26 C-20.98 23.13 -18.42 20.26 -16 16.88 C-13.61 13.6 -11.51 12.05 -8 10 C-3.47 5.39 -3.47 5.39 0 0 Z M-113 657 C-112.34 657.66 -111.68 658.32 -111 659 C-111 658.34 -111 657.68 -111 657 C-111.66 657 -112.32 657 -113 657 Z " fill="#FE1800" transform="translate(614,0)"/>
<path d="" fill="#FF0000" transform="translate(0,0)"/>
<path d="" fill="#FF0000" transform="translate(0,0)"/>
<path d="" fill="#FF0000" transform="translate(0,0)"/>
</svg>
