<?xml version="1.0" encoding="UTF-8"?>
<!-- Generator: https://ezgif.com/webp-to-svg -->
<svg version="1.1" xmlns="http://www.w3.org/2000/svg" width="100" height="100">
<path d="M0 0 C0.66 0 1.32 0 2 0 C1.84 0.91 1.67 1.82 1.5 2.75 C0.24 12.04 0.27 19.74 5 28 C5.56 29.05 6.11 30.1 6.69 31.19 C14.9 41.18 26.84 43.25 39 45 C39 45.66 39 46.32 39 47 C38.02 47.35 38.02 47.35 37.02 47.7 C28.69 50.81 23.59 53.84 19.76 62.13 C19.11 63.73 18.55 65.36 18 67 C14.42 65.35 11.25 63.22 8 61 C8.23 61.8 8.23 61.8 8.47 62.62 C11.04 72.45 9.65 80.99 5 90 C2.22 94.45 -0.09 97.88 -5 100 C-4.51 98.33 -4.51 98.33 -4 96.62 C-1.84 87.72 -2.52 80.08 -7 72 C-13.59 62.47 -21.85 58.31 -33 56 C-35.67 55.57 -38.3 55.25 -41 55 C-40.67 54.01 -40.34 53.02 -40 52 C-37.96 51.11 -37.96 51.11 -35.38 50.31 C-28.96 47.91 -25.09 43.97 -21.91 37.93 C-21.2 36.31 -20.59 34.66 -20 33 C-16.42 34.65 -13.25 36.78 -10 39 C-10.33 38.03 -10.66 37.06 -11 36.06 C-13.55 26.94 -11.91 18.18 -7.31 9.99 C-2.82 2.82 -2.82 2.82 0 0 Z " fill="#FE0000" transform="translate(51,0)"/>
</svg>
