<?xml version="1.0" encoding="UTF-8"?>
<!-- Generator: https://ezgif.com/png-to-svg -->
<svg version="1.1" xmlns="http://www.w3.org/2000/svg" width="512" height="512" viewBox="-127.995 -47.792 856.406 856.406" preserveAspectRatio="xMidYMid meet">
<path d="M0 0 C3.7 1.73 7.28 3.61 10.86 5.58 C12.18 6.28 13.51 6.97 14.84 7.66 C17.49 9.05 20.13 10.45 22.77 11.85 C27.62 14.41 32.58 16.75 37.55 19.08 C48.04 24.04 58.42 29.2 68.8 34.39 C70.03 35 70.03 35 71.28 35.62 C73.61 36.79 75.93 37.95 78.26 39.11 C78.97 39.47 79.68 39.82 80.41 40.19 C85.31 42.65 85.31 42.65 86.42 43.76 C86.52 45.29 86.54 46.83 86.54 48.36 C86.54 49.85 86.54 49.85 86.55 51.38 C86.54 52.48 86.54 53.58 86.54 54.71 C86.54 55.86 86.54 57.01 86.54 58.2 C86.54 62.02 86.53 65.85 86.52 69.67 C86.52 72.32 86.52 74.96 86.52 77.61 C86.51 83.87 86.5 90.13 86.49 96.39 C86.48 103.52 86.48 110.64 86.47 117.77 C86.46 132.44 86.44 147.1 86.42 161.76 C87.19 161.9 87.96 162.04 88.75 162.19 C91.86 162.86 94.29 164.02 97.13 165.46 C98.26 166.02 99.39 166.59 100.55 167.17 C101.77 167.79 103 168.41 104.23 169.04 C105.51 169.68 106.79 170.33 108.08 170.97 C111.47 172.67 114.85 174.39 118.24 176.1 C124.23 179.13 130.23 182.14 136.23 185.16 C136.88 185.49 137.53 185.82 138.2 186.15 C147.67 190.92 157.19 195.59 166.77 200.12 C173.38 203.24 179.88 206.49 186.42 209.76 C186.42 171.15 186.42 132.54 186.42 92.76 C193.17 95.01 193.17 95.01 196.51 96.66 C197.27 97.03 198.02 97.4 198.8 97.78 C200.02 98.38 200.02 98.38 201.25 98.99 C202.12 99.42 202.99 99.85 203.88 100.29 C206.74 101.69 209.6 103.11 212.45 104.52 C213.43 105.01 214.41 105.49 215.42 105.99 C220.59 108.55 225.77 111.13 230.94 113.7 C236.27 116.35 241.61 118.98 246.95 121.61 C251.07 123.64 255.19 125.68 259.3 127.73 C261.26 128.71 263.23 129.68 265.2 130.64 C267.96 132 270.71 133.37 273.46 134.76 C274.27 135.14 275.08 135.53 275.91 135.93 C281.6 138.84 285.96 142.32 289.42 147.76 C290.36 151.15 290.36 154.34 290.29 157.83 C290.3 158.82 290.31 159.81 290.32 160.82 C290.34 164.12 290.31 167.41 290.28 170.7 C290.29 173.07 290.29 175.43 290.3 177.8 C290.32 184.21 290.3 190.63 290.26 197.04 C290.23 203.08 290.24 209.11 290.24 215.14 C290.25 227.1 290.22 239.05 290.17 251 C290.12 262.6 290.1 274.19 290.11 285.78 C290.12 300.44 290.1 315.09 290.07 329.74 C290.06 334.41 290.06 339.07 290.06 343.74 C290.06 350.02 290.04 356.31 290 362.59 C289.99 364.89 289.99 367.2 289.99 369.51 C290 372.65 289.98 375.8 289.95 378.95 C289.96 380.32 289.96 380.32 289.97 381.72 C289.89 387.23 289.09 390.38 285.42 394.76 C281.51 398.47 277.81 400.71 272.3 400.79 C265.09 400.3 259.67 397.91 253.32 394.58 C252.28 394.06 251.23 393.53 250.16 392.99 C246.85 391.3 243.54 389.6 240.23 387.89 C236.99 386.23 233.74 384.57 230.49 382.92 C228.32 381.81 226.15 380.71 223.98 379.6 C217.1 376.09 210.17 372.69 203.18 369.38 C194.35 365.2 185.59 360.89 176.86 356.51 C176.23 356.2 175.6 355.88 174.96 355.56 C169.79 352.97 164.63 350.38 159.47 347.78 C154.98 345.52 150.48 343.27 145.98 341.01 C145.04 340.54 145.04 340.54 144.08 340.06 C135.04 335.53 125.96 331.12 116.83 326.79 C104.54 320.94 92.41 314.79 80.26 308.67 C68.07 302.54 55.86 296.5 43.54 290.65 C37.8 287.92 32.09 285.13 26.42 282.26 C25.75 281.92 25.07 281.57 24.37 281.22 C21.7 279.87 19.03 278.51 16.36 277.15 C14.34 276.12 12.32 275.09 10.3 274.07 C9.14 273.48 7.98 272.89 6.79 272.28 C0.96 269.65 -4.38 268.44 -10.77 268.33 C-11.95 268.29 -13.14 268.25 -14.37 268.2 C-24.65 268.93 -34.9 275.81 -43.89 280.39 C-52.27 284.65 -60.69 288.79 -69.18 292.82 C-78.07 297.05 -86.9 301.38 -95.7 305.79 C-96.31 306.1 -96.91 306.4 -97.54 306.71 C-101.89 308.89 -106.23 311.08 -110.58 313.26 C-115.53 315.76 -120.49 318.25 -125.45 320.73 C-126.06 321.04 -126.67 321.34 -127.29 321.65 C-135.16 325.6 -143.06 329.46 -151.02 333.23 C-159.78 337.39 -168.47 341.67 -177.14 346.01 C-177.77 346.33 -178.4 346.64 -179.05 346.97 C-183.56 349.23 -188.07 351.5 -192.58 353.76 C-197.72 356.35 -202.87 358.93 -208.02 361.51 C-208.95 361.98 -208.95 361.98 -209.91 362.46 C-219.06 367.05 -228.26 371.52 -237.51 375.9 C-243.68 378.83 -249.8 381.84 -255.89 384.92 C-256.7 385.33 -257.51 385.74 -258.34 386.16 C-261.59 387.8 -264.84 389.45 -268.08 391.1 C-270.51 392.34 -272.95 393.57 -275.39 394.8 C-276.11 395.17 -276.84 395.54 -277.58 395.92 C-284.9 399.6 -291.39 401.82 -299.58 399.76 C-304.53 397.15 -308.06 393.8 -310.58 388.76 C-310.68 385.65 -310.73 382.56 -310.72 379.45 C-310.73 378.47 -310.73 377.5 -310.74 376.49 C-310.75 373.19 -310.75 369.9 -310.75 366.6 C-310.76 364.25 -310.77 361.89 -310.77 359.53 C-310.79 352.45 -310.8 345.37 -310.81 338.29 C-310.82 334.95 -310.82 331.62 -310.83 328.28 C-310.85 317.2 -310.86 306.12 -310.87 295.03 C-310.87 292.16 -310.87 289.28 -310.87 286.4 C-310.87 285.69 -310.87 284.97 -310.87 284.24 C-310.88 272.65 -310.91 261.07 -310.94 249.48 C-310.97 237.59 -310.99 225.7 -310.99 213.81 C-311 207.14 -311.01 200.46 -311.03 193.78 C-311.05 187.5 -311.06 181.22 -311.05 174.94 C-311.05 172.63 -311.05 170.33 -311.07 168.02 C-311.09 164.87 -311.08 161.73 -311.07 158.58 C-311.08 157.67 -311.09 156.75 -311.1 155.81 C-311.04 150.29 -310.25 147.15 -306.58 142.76 C-302.48 138.86 -297.62 136.57 -292.6 134.09 C-291.7 133.64 -290.81 133.19 -289.88 132.73 C-286.94 131.25 -283.99 129.78 -281.03 128.31 C-278.98 127.28 -276.93 126.26 -274.88 125.23 C-270.59 123.09 -266.3 120.95 -262 118.81 C-256.49 116.06 -250.98 113.31 -245.47 110.55 C-241.24 108.43 -237.01 106.32 -232.77 104.21 C-230.74 103.19 -228.71 102.18 -226.67 101.16 C-223.84 99.74 -221.01 98.33 -218.17 96.92 C-217.33 96.5 -216.48 96.07 -215.61 95.64 C-214.84 95.26 -214.07 94.88 -213.28 94.48 C-212.61 94.15 -211.94 93.81 -211.25 93.47 C-209.58 92.76 -209.58 92.76 -207.58 92.76 C-207.58 131.37 -207.58 169.98 -207.58 209.76 C-196.36 204.15 -185.14 198.54 -173.58 192.76 C-169.95 191.03 -166.32 189.3 -162.58 187.51 C-144.46 178.83 -126.54 169.75 -108.58 160.76 C-108.08 102.85 -108.08 102.85 -107.58 43.76 C-95.91 37.62 -84.25 31.52 -72.46 25.64 C-71.02 24.92 -69.58 24.2 -68.14 23.48 C-65.17 21.99 -62.19 20.5 -59.22 19.02 C-55.42 17.12 -51.62 15.22 -47.82 13.32 C-44.87 11.84 -41.91 10.36 -38.96 8.89 C-37.55 8.18 -36.15 7.48 -34.75 6.78 C-32.8 5.81 -30.85 4.83 -28.9 3.86 C-27.25 3.03 -27.25 3.03 -25.56 2.19 C-17.1 -1.86 -9.12 -3.15 0 0 Z " fill="#00D468" transform="translate(310.57763671875,1.23681640625)"/>
<path d="M0 0 C1.22 -0.05 2.43 -0.1 3.69 -0.15 C9.58 0.21 14.71 2.93 20 5.38 C20.6 5.65 21.19 5.92 21.81 6.2 C26.53 8.37 31.24 10.59 35.94 12.81 C37.44 13.52 38.94 14.23 40.45 14.94 C51.15 20 61.81 25.13 72.45 30.3 C80.51 34.2 88.62 38 96.75 41.75 C107.77 46.83 118.7 52.09 129.61 57.41 C139.03 62 148.48 66.49 158 70.88 C162.67 73.04 167.34 75.2 172 77.38 C173.05 77.86 173.05 77.86 174.12 78.36 C178.66 80.47 183.19 82.61 187.71 84.76 C189.18 85.45 190.65 86.14 192.12 86.83 C194.18 87.79 196.23 88.76 198.28 89.75 C199.46 90.3 200.63 90.86 201.85 91.43 C206.53 94.32 209.98 98.18 212 103.38 C212.19 105.85 212.28 108.2 212.27 110.67 C212.27 111.41 212.28 112.15 212.28 112.91 C212.29 115.38 212.29 117.85 212.29 120.32 C212.3 122.09 212.3 123.86 212.31 125.63 C212.33 130.44 212.33 135.25 212.33 140.07 C212.34 144.08 212.34 148.1 212.35 152.12 C212.37 161.6 212.37 171.09 212.37 180.57 C212.37 190.35 212.39 200.12 212.42 209.9 C212.45 218.3 212.46 226.69 212.46 235.09 C212.46 240.1 212.46 245.12 212.48 250.13 C212.5 254.85 212.5 259.57 212.49 264.28 C212.49 266.01 212.49 267.74 212.5 269.47 C212.61 285.93 212.61 285.93 208 292.38 C206.14 294.11 206.14 294.11 204.24 295.13 C203.55 295.51 202.85 295.9 202.13 296.3 C201.43 296.65 200.72 297.01 200 297.38 C199.36 297.71 198.72 298.05 198.06 298.4 C196.09 299.41 194.1 300.38 192.11 301.34 C191.38 301.7 190.64 302.06 189.89 302.43 C187.51 303.58 185.13 304.73 182.75 305.88 C181.08 306.68 179.41 307.49 177.73 308.3 C167.05 313.47 156.32 318.51 145.54 323.47 C136.13 327.81 126.81 332.33 117.5 336.88 C105.99 342.5 94.43 347.99 82.79 353.34 C72.83 357.94 62.98 362.74 53.12 367.56 C4.99 391.11 4.99 391.11 -12.2 386.83 C-16.73 385.24 -20.96 383.03 -25.21 380.81 C-28.46 379.14 -31.74 377.54 -35.04 375.96 C-35.66 375.66 -36.29 375.36 -36.94 375.04 C-38.25 374.41 -39.56 373.78 -40.87 373.16 C-42.89 372.18 -44.91 371.2 -46.93 370.22 C-55.53 366.03 -64.18 361.94 -72.88 357.94 C-83.86 352.88 -94.75 347.64 -105.62 342.34 C-114.95 337.79 -124.32 333.34 -133.75 329 C-146.55 323.11 -159.21 316.97 -171.86 310.78 C-181.59 306.01 -181.59 306.01 -191.4 301.4 C-192.29 300.99 -193.18 300.58 -194.09 300.16 C-195.62 299.47 -197.15 298.78 -198.69 298.1 C-205.38 295.04 -209.17 291.13 -212 284.38 C-212.38 280.85 -212.38 280.85 -212.39 276.87 C-212.39 276.14 -212.4 275.4 -212.4 274.65 C-212.42 272.2 -212.41 269.75 -212.4 267.3 C-212.41 265.54 -212.42 263.77 -212.42 262.01 C-212.44 257.24 -212.44 252.46 -212.44 247.68 C-212.43 243.69 -212.44 239.7 -212.44 235.71 C-212.46 226.29 -212.46 216.88 -212.45 207.46 C-212.43 197.75 -212.45 188.04 -212.48 178.33 C-212.5 169.99 -212.5 161.65 -212.5 153.31 C-212.49 148.33 -212.5 143.35 -212.51 138.37 C-212.53 133.69 -212.53 129.01 -212.51 124.32 C-212.5 122.61 -212.51 120.89 -212.52 119.18 C-212.61 103.04 -212.61 103.04 -208 96.38 C-204.74 93.22 -201.23 91.33 -197.15 89.38 C-196.01 88.83 -194.86 88.28 -193.68 87.71 C-192.43 87.12 -191.18 86.53 -189.94 85.94 C-188.63 85.31 -187.32 84.69 -186.02 84.06 C-176.41 79.47 -166.75 75.01 -157.09 70.55 C-146.35 65.59 -135.73 60.4 -125.1 55.2 C-113.92 49.74 -102.7 44.41 -91.39 39.21 C-82.37 35.05 -73.43 30.73 -64.5 26.38 C-53.88 21.2 -43.22 16.09 -32.5 11.12 C-31.37 10.6 -30.24 10.08 -29.07 9.54 C-26.05 8.14 -23.03 6.76 -20 5.38 C-19.13 4.98 -18.26 4.58 -17.37 4.17 C-16.58 3.81 -15.78 3.45 -14.97 3.08 C-14.29 2.77 -13.62 2.46 -12.92 2.15 C-8.63 0.42 -4.62 0.13 0 0 Z " fill="#00D469" transform="translate(300,371.625)"/>
<path d="M0 0 C0 88.77 0 177.54 0 269 C-3.63 269.66 -7.26 270.32 -11 271 C-13.99 272 -13.99 272 -16.44 273.29 C-17.34 273.73 -18.25 274.17 -19.18 274.63 C-20.11 275.1 -21.04 275.58 -22 276.06 C-24.02 277.06 -26.04 278.06 -28.07 279.05 C-29.06 279.55 -30.06 280.05 -31.09 280.56 C-36.03 283 -41.02 285.32 -46.01 287.65 C-52.83 290.87 -59.57 294.26 -66.31 297.65 C-75.07 302.05 -83.83 306.43 -92.59 310.82 C-95.9 312.48 -99.2 314.13 -102.51 315.79 C-115.14 322.13 -127.76 328.46 -140.53 334.51 C-149.26 338.65 -157.92 342.92 -166.56 347.25 C-167.19 347.57 -167.82 347.88 -168.47 348.21 C-172.98 350.47 -177.49 352.73 -182 355 C-187.14 357.59 -192.29 360.17 -197.44 362.75 C-198.38 363.22 -198.38 363.22 -199.33 363.7 C-208.49 368.28 -217.69 372.75 -226.93 377.14 C-233.1 380.07 -239.22 383.08 -245.31 386.16 C-246.12 386.57 -246.93 386.98 -247.77 387.4 C-251.01 389.04 -254.26 390.68 -257.5 392.34 C-259.93 393.57 -262.37 394.81 -264.81 396.04 C-265.54 396.41 -266.26 396.78 -267 397.16 C-274.32 400.84 -280.82 403.06 -289 401 C-293.95 398.39 -297.48 395.04 -300 390 C-300.1 386.89 -300.15 383.8 -300.15 380.69 C-300.15 379.71 -300.15 378.73 -300.16 377.73 C-300.17 374.43 -300.17 371.13 -300.18 367.84 C-300.18 365.48 -300.19 363.13 -300.2 360.77 C-300.22 353.69 -300.23 346.61 -300.24 339.52 C-300.24 336.19 -300.25 332.85 -300.25 329.52 C-300.27 318.44 -300.28 307.35 -300.29 296.27 C-300.29 293.39 -300.29 290.52 -300.3 287.64 C-300.3 286.92 -300.3 286.21 -300.3 285.47 C-300.3 273.89 -300.33 262.31 -300.36 250.72 C-300.4 238.83 -300.41 226.94 -300.42 215.05 C-300.42 208.37 -300.43 201.7 -300.45 195.02 C-300.48 188.74 -300.48 182.46 -300.47 176.18 C-300.47 173.87 -300.48 171.57 -300.49 169.26 C-300.51 166.11 -300.5 162.97 -300.49 159.82 C-300.5 158.9 -300.51 157.99 -300.52 157.05 C-300.47 151.53 -299.67 148.39 -296 144 C-291.9 140.1 -287.04 137.81 -282.02 135.32 C-281.12 134.87 -280.23 134.42 -279.31 133.96 C-276.36 132.48 -273.41 131.02 -270.46 129.55 C-268.41 128.52 -266.36 127.5 -264.3 126.47 C-260.01 124.32 -255.72 122.18 -251.43 120.04 C-245.91 117.3 -240.4 114.54 -234.89 111.79 C-230.66 109.67 -226.43 107.56 -222.2 105.44 C-220.16 104.43 -218.13 103.41 -216.1 102.4 C-213.26 100.98 -210.43 99.57 -207.59 98.16 C-206.75 97.74 -205.9 97.31 -205.03 96.87 C-204.26 96.49 -203.49 96.11 -202.7 95.72 C-202.03 95.39 -201.36 95.05 -200.67 94.71 C-199 94 -199 94 -197 94 C-197 132.61 -197 171.22 -197 211 C-185.78 205.39 -174.56 199.78 -163 194 C-159.37 192.27 -155.74 190.53 -152 188.75 C-133.88 180.07 -115.97 170.98 -98 162 C-97.5 104.09 -97.5 104.09 -97 45 C-85.33 38.86 -73.68 32.76 -61.88 26.88 C-60.44 26.15 -59 25.43 -57.56 24.71 C-54.59 23.23 -51.62 21.74 -48.64 20.26 C-44.84 18.36 -41.04 16.46 -37.24 14.55 C-34.29 13.08 -31.33 11.6 -28.38 10.12 C-26.98 9.42 -25.57 8.72 -24.17 8.02 C-22.22 7.04 -20.27 6.07 -18.32 5.1 C-16.67 4.27 -16.67 4.27 -14.98 3.43 C-14 2.96 -13.01 2.48 -12 2 C-11.19 1.61 -10.38 1.21 -9.54 0.81 C-7 0 -7 0 0 0 Z " fill="#00FE7D" transform="translate(300,0)"/>
<path d="M0 0 C0 127.71 0 255.42 0 387 C-11.49 387 -11.49 387 -17.69 383.94 C-18.43 383.59 -19.17 383.24 -19.93 382.89 C-22.63 381.61 -25.32 380.31 -28 379 C-29.74 378.16 -31.47 377.32 -33.21 376.49 C-37.79 374.28 -42.36 372.07 -46.93 369.84 C-55.53 365.65 -64.18 361.57 -72.88 357.56 C-83.86 352.5 -94.75 347.27 -105.62 341.97 C-114.95 337.42 -124.32 332.96 -133.75 328.62 C-146.55 322.74 -159.21 316.6 -171.86 310.4 C-181.59 305.64 -181.59 305.64 -191.4 301.03 C-192.29 300.62 -193.18 300.21 -194.09 299.79 C-195.62 299.09 -197.15 298.4 -198.69 297.72 C-205.38 294.67 -209.17 290.76 -212 284 C-212.38 280.47 -212.38 280.47 -212.39 276.5 C-212.39 275.76 -212.4 275.03 -212.4 274.27 C-212.42 271.82 -212.41 269.37 -212.4 266.92 C-212.41 265.16 -212.42 263.4 -212.42 261.64 C-212.44 256.86 -212.44 252.08 -212.44 247.31 C-212.43 243.32 -212.44 239.33 -212.44 235.33 C-212.46 225.92 -212.46 216.5 -212.45 207.08 C-212.43 197.37 -212.45 187.67 -212.48 177.96 C-212.5 169.62 -212.5 161.28 -212.5 152.93 C-212.49 147.96 -212.5 142.98 -212.51 138 C-212.53 133.31 -212.53 128.63 -212.51 123.95 C-212.5 122.23 -212.51 120.52 -212.52 118.8 C-212.61 102.66 -212.61 102.66 -208 96 C-204.74 92.84 -201.23 90.95 -197.15 89 C-196.01 88.45 -194.86 87.9 -193.68 87.33 C-192.43 86.74 -191.18 86.15 -189.94 85.56 C-188.63 84.94 -187.32 84.31 -186.02 83.69 C-176.41 79.1 -166.75 74.63 -157.09 70.18 C-146.35 65.21 -135.73 60.02 -125.1 54.83 C-113.92 49.36 -102.7 44.03 -91.39 38.83 C-82.37 34.67 -73.43 30.35 -64.5 26 C-53.88 20.82 -43.22 15.72 -32.5 10.75 C-31.37 10.23 -30.24 9.7 -29.07 9.16 C-26.05 7.77 -23.03 6.38 -20 5 C-19.13 4.6 -18.26 4.2 -17.37 3.79 C-16.58 3.43 -15.78 3.07 -14.97 2.7 C-14.29 2.4 -13.62 2.09 -12.92 1.77 C-8.25 -0.1 -5.4 0 0 0 Z " fill="#00FE7D" transform="translate(300,372)"/>
</svg>
