<?xml version="1.0" encoding="UTF-8"?>
<!-- Generator: https://ezgif.com/png-to-svg -->
<svg version="1.1" xmlns="http://www.w3.org/2000/svg" width="512" height="512" viewBox="-35.996 -190.569 672 672" preserveAspectRatio="xMidYMid meet">
<path d="M0 0 C24.2 -1.53 24.2 -1.53 29.87 2.56 C32.83 5.42 34.77 8.73 36.83 12.27 C38.27 14.09 39.75 15.88 41.26 17.64 C42.34 18.99 42.34 18.99 43.45 20.35 C46.18 23.71 49 26.99 51.83 30.27 C56.13 35.26 60.33 40.31 64.48 45.43 C67.22 48.75 70.02 52.01 72.83 55.27 C77.13 60.26 81.33 65.31 85.48 70.43 C88.22 73.75 91.02 77.01 93.83 80.27 C99.72 87.12 105.53 94.04 111.09 101.17 C112.16 102.55 112.16 102.55 113.26 103.96 C113.9 104.79 114.54 105.61 115.2 106.47 C115.73 107.06 116.27 107.66 116.83 108.27 C117.49 108.27 118.15 108.27 118.83 108.27 C120.18 106.78 121.46 105.22 122.7 103.64 C126.33 99.11 130.03 94.66 133.83 90.27 C137.38 86.14 140.89 82 144.33 77.77 C148.26 72.92 152.31 68.19 156.38 63.46 C159.42 59.94 162.4 56.38 165.33 52.77 C169.26 47.92 173.31 43.19 177.38 38.46 C180.42 34.94 183.4 31.38 186.33 27.77 C191.17 21.8 196.11 15.89 201.24 10.15 C202.87 8.3 202.87 8.3 204.19 6.2 C206.62 2.79 208.46 0.6 212.63 -0.4 C216.09 -0.58 219.45 -0.51 222.9 -0.33 C224.18 -0.3 225.46 -0.27 226.78 -0.23 C230.8 -0.11 234.81 0.07 238.83 0.27 C240.05 0.32 241.27 0.37 242.54 0.43 C251.22 0.79 259.9 1.32 268.58 1.89 C269.94 1.98 271.31 2.07 272.68 2.16 C320.89 5.26 368.93 9.97 416.83 16.27 C417.16 17.26 417.49 18.25 417.83 19.27 C416.93 19.89 416.04 20.5 415.11 21.14 C381.51 44.57 362.3 77.19 354.83 117.27 C348.05 158.6 356.4 203.02 380.64 237.52 C390.85 251.54 403.13 263.01 417.83 272.27 C417.5 273.26 417.17 274.25 416.83 275.27 C358.75 282.57 300.52 288.2 242.04 291.06 C239.33 291.19 236.61 291.35 233.9 291.52 C211.33 292.93 211.33 292.93 206.13 289.2 C203.56 286.37 201.72 283.58 199.83 280.27 C198.4 278.47 196.94 276.7 195.45 274.96 C194.36 273.6 194.36 273.6 193.24 272.22 C190.49 268.86 187.66 265.56 184.83 262.27 C180.53 257.28 176.32 252.23 172.17 247.11 C169.43 243.79 166.63 240.53 163.83 237.27 C159.53 232.28 155.32 227.23 151.17 222.11 C148.43 218.79 145.63 215.53 142.83 212.27 C136.86 205.34 131.03 198.3 125.34 191.14 C124.53 190.13 123.72 189.12 122.89 188.08 C122.16 187.16 121.43 186.24 120.67 185.29 C119.76 184.29 119.76 184.29 118.83 183.27 C118.17 183.27 117.51 183.27 116.83 183.27 C115.47 184.76 114.19 186.31 112.95 187.89 C109.32 192.43 105.62 196.88 101.83 201.27 C98.27 205.39 94.76 209.54 91.33 213.77 C87.39 218.62 83.34 223.35 79.27 228.08 C76.24 231.6 73.26 235.16 70.33 238.77 C66.39 243.62 62.34 248.35 58.27 253.08 C55.24 256.6 52.26 260.16 49.33 263.77 C44.48 269.74 39.54 275.65 34.41 281.38 C32.79 283.24 32.79 283.24 31.46 285.34 C29.03 288.75 27.19 290.94 23.02 291.94 C19.56 292.12 16.2 292.04 12.75 291.87 C11.47 291.84 10.19 291.8 8.87 291.77 C4.85 291.65 0.84 291.47 -3.17 291.27 C-4.4 291.22 -5.62 291.17 -6.88 291.11 C-15.57 290.74 -24.25 290.22 -32.92 289.64 C-34.29 289.56 -35.66 289.47 -37.03 289.38 C-85.24 286.28 -133.28 281.56 -181.17 275.27 C-181.67 273.78 -181.67 273.78 -182.17 272.27 C-181.28 271.65 -180.38 271.03 -179.46 270.4 C-146.48 247.4 -127.15 215.28 -119.86 175.89 C-118.5 168.04 -117.42 160.24 -117.17 152.27 C-117.13 151.3 -117.09 150.33 -117.05 149.34 C-116.18 108.91 -129.23 69.52 -156.8 39.71 C-164.6 31.69 -172.71 25.18 -182.17 19.27 C-181.84 18.28 -181.51 17.29 -181.17 16.27 C-123.88 8.14 -66.4 3.19 -8.6 0.49 C-5.73 0.35 -2.87 0.19 0 0 Z M228.59 49.07 C227.9 49.9 227.22 50.73 226.51 51.58 C225.74 52.5 224.97 53.42 224.17 54.37 C223.4 55.32 222.62 56.28 221.83 57.27 C220.76 58.57 220.76 58.57 219.67 59.89 C218.2 61.68 216.73 63.48 215.28 65.28 C212.51 68.66 209.67 71.97 206.83 75.27 C203.27 79.39 199.76 83.54 196.33 87.77 C192.39 92.62 188.34 97.35 184.27 102.08 C181.24 105.6 178.26 109.16 175.33 112.77 C171.91 116.97 168.42 121.1 164.89 125.21 C164.13 126.09 164.13 126.09 163.37 126.99 C160.87 129.91 158.35 132.81 155.8 135.69 C154.87 136.76 153.94 137.82 153.01 138.89 C152.18 139.84 151.35 140.78 150.49 141.75 C148.58 144.05 148.58 144.05 149.08 146.24 C150.32 149.61 152.84 152.06 155.2 154.71 C156.3 155.96 157.4 157.22 158.49 158.47 C159.05 159.11 159.61 159.74 160.18 160.39 C162.66 163.22 165.09 166.09 167.51 168.96 C167.97 169.49 168.42 170.03 168.89 170.59 C171.72 173.93 174.5 177.31 177.26 180.71 C181.22 185.57 185.29 190.33 189.38 195.08 C192.42 198.6 195.4 202.16 198.33 205.77 C202.71 211.16 207.23 216.43 211.76 221.7 C214.78 225.21 217.77 228.73 220.76 232.27 C221.2 232.78 221.64 233.3 222.09 233.83 C224.18 236.31 226.16 238.75 228 241.43 C230.59 244.58 230.59 244.58 234.33 244.83 C235.71 244.77 237.08 244.68 238.45 244.56 C239.22 244.52 239.98 244.47 240.76 244.43 C243.31 244.28 245.85 244.09 248.39 243.89 C250.18 243.78 251.97 243.67 253.77 243.56 C258.71 243.24 263.65 242.88 268.58 242.51 C271.96 242.26 275.34 242.01 278.72 241.77 C290.19 240.94 301.65 240.09 313.11 239.17 C314.08 239.1 315.04 239.02 316.04 238.94 C321.32 238.51 326.57 237.97 331.83 237.27 C330.38 233.26 328.44 229.62 326.4 225.89 C312.95 201.17 306.37 174.6 306.45 146.39 C306.45 145.68 306.45 144.97 306.45 144.23 C306.56 114.55 314.01 86.1 329.34 60.61 C331.24 57.65 331.24 57.65 331.83 54.27 C307.7 51.96 283.58 49.94 259.39 48.52 C257.75 48.42 257.75 48.42 256.08 48.32 C252.98 48.14 249.87 47.96 246.77 47.78 C245.85 47.73 244.93 47.68 243.98 47.62 C235.8 46.55 235.8 46.55 228.59 49.07 Z M-4.07 47.4 C-5.59 47.49 -5.59 47.49 -7.13 47.59 C-8.29 47.66 -9.45 47.73 -10.64 47.8 C-11.89 47.88 -13.13 47.96 -14.42 48.04 C-15.72 48.12 -17.03 48.2 -18.37 48.28 C-21.88 48.5 -25.38 48.72 -28.89 48.94 C-31.05 49.08 -33.21 49.22 -35.37 49.35 C-55.67 50.64 -75.95 52.06 -96.17 54.27 C-94.98 57.38 -93.68 60.31 -92.04 63.21 C-77.83 88.85 -70.7 116.13 -70.86 145.46 C-70.86 146.18 -70.87 146.89 -70.87 147.63 C-71.02 178.33 -78.86 206.32 -94.71 232.64 C-96.34 235.06 -96.34 235.06 -96.17 237.27 C-74.33 239.68 -52.42 241.1 -30.49 242.46 C-29.02 242.55 -27.55 242.64 -26.08 242.73 C-22.57 242.95 -19.05 243.16 -15.53 243.38 C-13.58 243.5 -11.63 243.62 -9.68 243.74 C-8.5 243.81 -7.32 243.88 -6.11 243.95 C-5.08 244.01 -4.05 244.07 -2.99 244.14 C-1.6 244.2 -1.6 244.2 -0.17 244.27 C1.17 244.34 1.17 244.34 2.55 244.42 C5.05 244.48 5.05 244.48 7.19 242.25 C7.97 241.33 8.76 240.41 9.58 239.46 C10.01 238.96 10.44 238.46 10.89 237.95 C12.22 236.4 13.53 234.84 14.83 233.27 C15.56 232.38 16.3 231.5 17.05 230.58 C18.51 228.8 19.96 227.01 21.41 225.22 C24.16 221.86 26.99 218.56 29.83 215.27 C33.38 211.14 36.89 207 40.33 202.77 C44.26 197.92 48.31 193.19 52.38 188.46 C55.42 184.94 58.4 181.38 61.33 177.77 C64.76 173.54 68.27 169.39 71.83 165.27 C73.83 162.94 75.83 160.6 77.83 158.27 C78.29 157.73 78.76 157.18 79.24 156.62 C80.53 155.12 81.8 153.6 83.08 152.08 C83.8 151.22 84.53 150.36 85.28 149.48 C87.11 147.31 87.11 147.31 86.83 144.27 C85.11 142.05 83.38 139.98 81.51 137.89 C80.41 136.63 79.3 135.37 78.19 134.1 C77.63 133.46 77.07 132.82 76.49 132.16 C74 129.33 71.57 126.46 69.14 123.58 C68.68 123.04 68.23 122.51 67.76 121.95 C64.93 118.61 62.15 115.23 59.39 111.83 C55.43 106.97 51.36 102.21 47.27 97.46 C44.24 93.94 41.26 90.38 38.33 86.77 C34.44 81.98 30.44 77.29 26.42 72.62 C23.39 69.09 20.37 65.56 17.37 62.01 C16.44 60.91 15.5 59.8 14.56 58.7 C12.66 56.47 10.8 54.23 9.02 51.9 C7.42 49.75 7.42 49.75 4.83 47.27 C1.83 47.07 -1.07 47.26 -4.07 47.4 Z " fill="#F30808" transform="translate(182.174072265625,-0.26904296875)"/>
<path d="M0 0 C0.66 0.66 1.32 1.32 2 2 C2.99 1.67 3.98 1.34 5 1 C5.99 1.66 6.98 2.32 8 3 C8 3.66 8 4.32 8 5 C8.71 5.25 9.41 5.49 10.14 5.75 C13.37 7.16 15.92 8.96 18.75 11.06 C19.71 11.78 20.68 12.49 21.67 13.22 C24.95 15.73 24.95 15.73 25.41 18.35 C28.01 40.82 28.01 40.82 23.55 47.67 C20.93 50.88 17.93 53.64 14.8 56.35 C11.81 59.09 9.39 62.27 6.88 65.44 C5.31 67.4 3.75 69.19 2 71 C1.01 71 0.02 71 -1 71 C-2.84 69.09 -2.84 69.09 -4.94 66.38 C-5.73 65.37 -6.52 64.37 -7.33 63.34 C-7.76 62.8 -8.19 62.26 -8.63 61.7 C-11.05 58.7 -13.6 55.79 -16.12 52.88 C-17.63 51.12 -19.13 49.36 -20.63 47.6 C-21.87 46.15 -23.13 44.72 -24.39 43.29 C-25.05 42.51 -25.7 41.74 -26.38 40.94 C-26.94 40.29 -27.5 39.64 -28.09 38.96 C-29 37 -29 37 -28.42 34.54 C-26.86 31.75 -25.14 29.7 -22.94 27.38 C-18.05 22.1 -13.52 16.59 -9 11 C-7.32 8.94 -5.63 6.87 -3.94 4.81 C-3.18 3.89 -2.43 2.97 -1.65 2.02 C-1.11 1.35 -0.56 0.69 0 0 Z " fill="#A60505" transform="translate(329,74)"/>
<path d="M0 0 C2.91 0.23 3.93 0.92 5.97 3.05 C6.66 3.94 7.35 4.83 8.06 5.75 C8.84 6.74 9.63 7.74 10.43 8.76 C10.85 9.29 11.26 9.82 11.69 10.36 C13.48 12.6 15.34 14.78 17.21 16.97 C19.06 19.13 20.89 21.32 22.73 23.5 C23.91 24.89 25.12 26.27 26.32 27.65 C26.98 28.42 27.64 29.2 28.31 30 C28.89 30.66 29.46 31.32 30.05 32 C31 34 31 34 30.42 36.46 C28.86 39.25 27.14 41.31 24.94 43.62 C19.49 49.5 14.41 55.65 9.46 61.96 C7.18 64.83 5.33 66.51 2 68 C1.34 68.99 0.68 69.98 0 71 C-4 70.66 -5.68 69.53 -8.34 66.61 C-11.47 63.58 -15.13 61.19 -18.67 58.67 C-21 57 -21 57 -22 56 C-22.15 54.24 -22.23 52.48 -22.28 50.72 C-22.34 49.12 -22.34 49.12 -22.39 47.48 C-22.43 46.35 -22.46 45.22 -22.5 44.06 C-22.57 41.84 -22.64 39.63 -22.72 37.41 C-22.75 36.42 -22.78 35.43 -22.81 34.41 C-22.85 31.99 -22.85 31.99 -24 30 C-21.91 25.81 -18.92 22.39 -15.88 18.88 C-14.9 17.73 -13.92 16.59 -12.94 15.45 C-12.45 14.87 -11.96 14.3 -11.45 13.71 C-8.47 10.2 -5.58 6.62 -2.68 3.05 C-1 1 -1 1 0 0 Z " fill="#A50606" transform="translate(269,146)"/>
<path d="M0 0 C1 2 1 2 0.31 4.56 C-1 7 -1 7 -3.12 7.81 C-3.74 7.87 -4.36 7.94 -5 8 C-5.33 9.65 -5.66 11.3 -6 13 C-7.32 13.33 -8.64 13.66 -10 14 C-10.33 15.65 -10.66 17.3 -11 19 C-12.32 19.33 -13.64 19.66 -15 20 C-15 20.66 -15 21.32 -15 22 C-15.66 22 -16.32 22 -17 22 C-15.66 19.08 -14.16 16.83 -12.03 14.43 C-11.46 13.78 -10.89 13.13 -10.3 12.46 C-9.71 11.79 -9.11 11.13 -8.5 10.44 C-7.32 9.1 -6.14 7.77 -4.97 6.43 C-4.19 5.55 -4.19 5.55 -3.39 4.65 C-1.81 2.84 -1.81 2.84 0 0 Z " fill="#AF3535" transform="translate(329,74)"/>
<path d="M0 0 C0.66 0.33 1.32 0.66 2 1 C1.67 3.97 1.34 6.94 1 10 C0.67 10 0.34 10 0 10 C-0.33 8.02 -0.66 6.04 -1 4 C-1.66 4 -2.32 4 -3 4 C-3 4.99 -3 5.98 -3 7 C-4.32 7.33 -5.64 7.66 -7 8 C-5.85 5.53 -4.95 3.95 -3 2 C-2.01 2 -1.02 2 0 2 C0 1.34 0 0.68 0 0 Z " fill="#A02121" transform="translate(314,94)"/>
<path d="M0 0 C0.99 0.33 1.98 0.66 3 1 C2.67 2.65 2.34 4.3 2 6 C0.02 6 -1.96 6 -4 6 C-2.85 3.53 -1.95 1.95 0 0 Z " fill="#E32C2C" transform="translate(343,58)"/>
<path d="M0 0 C0.99 0.33 1.98 0.66 3 1 C2.67 2.65 2.34 4.3 2 6 C0.02 6.33 -1.96 6.66 -4 7 C-2.93 4.08 -2.22 2.22 0 0 Z " fill="#CB1B1B" transform="translate(333,70)"/>
<path d="M0 0 C1 2 1 2 0.31 4.56 C-1 7 -1 7 -3.12 7.81 C-3.74 7.87 -4.36 7.94 -5 8 C-5 8.66 -5 9.32 -5 10 C-5.66 9.67 -6.32 9.34 -7 9 C-4.69 6.03 -2.38 3.06 0 0 Z " fill="#C64C4C" transform="translate(329,74)"/>
<path d="M0 0 C0.66 0 1.32 0 2 0 C1.19 2.44 1.19 2.44 0 5 C-0.99 5.33 -1.98 5.66 -3 6 C-3 6.66 -3 7.32 -3 8 C-3.66 8 -4.32 8 -5 8 C-3.63 5.05 -2.12 2.48 0 0 Z " fill="#9E2D2D" transform="translate(265,150)"/>
</svg>
