<?xml version="1.0" encoding="UTF-8"?>
<!-- Generator: https://ezgif.com/png-to-svg -->
<svg version="1.1" xmlns="http://www.w3.org/2000/svg" width="512" height="512" viewBox="-90.617 -42.397 781.514 781.514" preserveAspectRatio="xMidYMid meet">
<path d="M0 0 C2.13 1.11 4.08 2.37 6.07 3.71 C8.1 5.12 8.1 5.12 10.88 6.44 C14.56 8.28 18.03 10.39 21.55 12.52 C23.56 13.73 25.58 14.91 27.62 16.06 C30.86 17.92 33.99 19.9 37.11 21.95 C39.06 23.04 40.81 23.56 43 24 C43 24.66 43 25.32 43 26 C43.7 26.25 44.4 26.5 45.12 26.75 C48.37 28.16 51.06 30.04 54 32 C54.78 32.3 55.56 32.61 56.36 32.92 C59.25 34.1 61.64 35.59 64.25 37.31 C68.26 39.91 72.29 42.33 76.48 44.62 C79.73 46.4 82.96 48.23 86.19 50.06 C86.77 50.39 87.35 50.72 87.95 51.06 C90.75 52.65 93.45 54.31 96.11 56.12 C98.73 57.83 101.11 58.87 104 60 C105.77 61.07 107.52 62.17 109.25 63.31 C114.06 66.43 118.95 69.28 124 72 C130.47 75.5 136.74 79.27 142.99 83.15 C145.25 84.54 147.5 85.89 149.81 87.19 C152.18 88.53 154.46 89.91 156.75 91.38 C162.46 94.98 168.44 98.09 174.39 101.28 C178.24 103.38 181.93 105.59 185.56 108.06 C188.95 110.37 192.35 112.24 196.04 114.01 C198.79 115.4 201.34 117.05 203.93 118.71 C206.12 120.07 208.36 121.32 210.62 122.56 C213.28 124.01 215.73 125.49 218.25 127.19 C220.84 129.03 220.84 129.03 223.34 129.91 C226.24 131.1 228.64 132.59 231.25 134.31 C235.26 136.91 239.29 139.33 243.48 141.62 C246.73 143.4 249.96 145.23 253.19 147.06 C253.77 147.39 254.35 147.72 254.95 148.06 C258.75 150.22 262.37 152.57 266 155 C266.93 155.45 267.86 155.91 268.81 156.38 C272.35 158.18 275.5 160.32 278.75 162.6 C281.11 164.07 283.41 164.98 286 166 C290.37 167.74 293.76 169.54 297 173 C298.63 178.61 298.39 184.06 298.25 189.86 C298.25 191.58 298.25 193.31 298.25 195.03 C298.26 199.71 298.19 204.38 298.12 209.05 C298.05 213.93 298.04 218.82 298.03 223.71 C297.99 232.95 297.9 242.2 297.79 251.45 C297.67 261.98 297.61 272.5 297.55 283.03 C297.44 304.69 297.25 326.35 297 348 C292.77 346.65 289.39 345.16 285.69 342.69 C281.54 339.97 277.35 337.49 273 335.12 C271.19 334.11 269.47 332.97 267.75 331.81 C265.16 329.97 265.16 329.97 262.66 329.09 C259.76 327.9 257.36 326.41 254.75 324.69 C249.94 321.57 245.05 318.72 240 316 C233.58 312.53 227.36 308.78 221.16 304.93 C217.79 302.87 214.38 300.96 210.9 299.11 C209 298 209 298 207.07 296.49 C204.79 294.85 202.6 294.03 200 293 C198.16 291.89 196.35 290.74 194.56 289.56 C190.79 287.12 187.04 284.98 183 283 C180.47 281.52 177.96 280 175.45 278.48 C173.44 277.27 171.42 276.09 169.38 274.94 C166.91 273.52 164.52 272.08 162.12 270.56 C158.53 268.29 154.84 266.24 151.1 264.2 C149.27 263.15 147.5 261.99 145.75 260.81 C143.16 258.97 143.16 258.97 140.66 258.09 C137.76 256.9 135.36 255.41 132.75 253.69 C127.08 250.02 121.27 246.74 115.31 243.57 C110.02 240.73 104.98 237.77 100.07 234.3 C97.62 232.67 97.62 232.67 93 231 C89.7 228.69 86.4 226.38 83 224 C82.67 251.39 82.34 278.78 82 307 C83.32 307.66 84.64 308.32 86 309 C101.34 316.93 101.34 316.93 108.17 321.87 C110.11 323.07 111.77 323.57 114 324 C114 324.66 114 325.32 114 326 C114.7 326.25 115.4 326.5 116.12 326.75 C119.37 328.16 122.06 330.04 125 332 C125.78 332.3 126.56 332.61 127.37 332.92 C130.22 334.09 132.56 335.55 135.12 337.25 C138.71 339.57 142.29 341.75 146.06 343.75 C152.11 346.97 157.91 350.58 163.72 354.22 C167.42 356.51 170.92 358.44 175 360 C176.77 361.07 178.52 362.17 180.25 363.31 C185.06 366.43 189.95 369.28 195 372 C201.47 375.5 207.74 379.27 213.99 383.15 C216.25 384.54 218.5 385.89 220.81 387.19 C223.18 388.53 225.46 389.91 227.75 391.38 C232.7 394.5 237.85 397.23 243 400 C250.75 404.22 258.31 408.73 265.83 413.35 C267.18 414.17 268.53 414.99 269.88 415.81 C270.84 416.41 270.84 416.41 271.82 417.02 C274.87 418.87 277.52 420.26 281 421 C281 421.66 281 422.32 281 423 C281.7 423.25 282.4 423.5 283.12 423.75 C286.37 425.16 289.06 427.04 292 429 C293.66 429.69 295.32 430.36 297 431 C297.3 442.84 297.53 454.68 297.67 466.52 C297.74 472.02 297.83 477.52 297.98 483.01 C298.12 488.32 298.2 493.63 298.23 498.95 C298.26 500.97 298.3 502.99 298.37 505.01 C298.89 520.35 298.89 520.35 295.77 524.72 C291.36 529.03 285.82 531.23 280.22 533.62 C277.36 534.84 275.08 536.14 272.56 537.94 C269.17 540.27 265.79 542.17 262.09 543.95 C255.97 547.03 250.24 550.84 244.5 554.56 C238.65 558.31 232.61 561.8 226 564 C223.33 562.71 220.85 561.38 218.31 559.88 C217.23 559.25 217.23 559.25 216.12 558.61 C211.96 556.19 207.85 553.72 203.8 551.12 C200.96 549.36 198.02 547.79 195.08 546.21 C193 545 193 545 191.05 543.48 C188.78 541.84 186.59 541.03 184 540 C182.16 538.89 180.35 537.74 178.56 536.56 C174.79 534.12 171.04 531.98 167 530 C164.47 528.52 161.96 527 159.45 525.48 C157.44 524.27 155.42 523.09 153.38 521.94 C150.91 520.52 148.52 519.08 146.12 517.56 C141.17 514.44 136.04 511.65 130.89 508.86 C126.34 506.37 121.91 503.73 117.5 501 C111.54 497.31 105.51 493.87 99.32 490.57 C94 487.72 88.96 484.7 83.98 481.3 C81.43 479.62 78.74 478.34 76 477 C73.47 475.52 70.96 474 68.45 472.48 C66.44 471.27 64.42 470.09 62.38 468.94 C59.91 467.52 57.52 466.08 55.12 464.56 C49.98 461.32 44.66 458.42 39.3 455.56 C34.03 452.74 29.05 449.75 24.12 446.37 C21.5 444.67 18.77 443.34 15.96 441.99 C13.21 440.6 10.66 438.95 8.07 437.29 C5.88 435.93 3.64 434.68 1.38 433.44 C-1.28 431.99 -3.73 430.51 -6.25 428.81 C-8.84 426.97 -8.84 426.97 -11.34 426.09 C-14.24 424.9 -16.64 423.41 -19.25 421.69 C-23.42 418.98 -27.64 416.49 -32.01 414.12 C-34.77 412.57 -37.36 410.76 -40 409 C-41.36 408.32 -41.36 408.32 -42.75 407.62 C-46.47 405.76 -49.99 403.64 -53.54 401.48 C-55.6 400.24 -57.66 399.05 -59.75 397.88 C-63 396 -63 396 -66.12 393.88 C-68.73 392.18 -71.11 391.1 -74 390 C-74.23 345.53 -74.41 301.06 -74.51 256.59 C-74.52 251.35 -74.54 246.1 -74.55 240.85 C-74.55 239.8 -74.55 238.76 -74.56 237.68 C-74.6 220.76 -74.68 203.83 -74.77 186.91 C-74.87 169.55 -74.92 152.18 -74.94 134.82 C-74.95 124.1 -75 113.39 -75.08 102.67 C-75.13 95.33 -75.15 87.98 -75.14 80.64 C-75.13 76.39 -75.14 72.16 -75.19 67.92 C-75.24 64.03 -75.24 60.15 -75.21 56.27 C-75.2 54.87 -75.22 53.46 -75.25 52.06 C-75.47 41.61 -75.47 41.61 -71.88 37.68 C-69.32 35.84 -66.82 34.39 -64 33 C-63.06 32.5 -62.13 32 -61.16 31.49 C-57.2 29.4 -53.17 27.63 -49 26 C-49 25.34 -49 24.68 -49 24 C-48.03 23.63 -47.06 23.26 -46.06 22.88 C-43.02 21.58 -40.41 20 -37.69 18.12 C-33.71 15.38 -29.62 13.25 -25.28 11.15 C-22.35 9.67 -19.72 7.83 -17 6 C-14.96 4.93 -12.91 3.92 -10.83 2.93 C-4.01 -0.53 -4.01 -0.53 0 0 Z " fill="#FF3454" transform="translate(303,0)"/>
<path d="M0 0 C0.33 30.03 0.66 60.06 1 91 C5.29 93.31 9.58 95.62 14 98 C18.25 100.62 18.25 100.62 20.09 101.81 C22.97 103.6 25.94 105.19 28.92 106.79 C31 108 31 108 32.95 109.52 C35.22 111.16 37.41 111.98 40 113 C41.77 114.07 43.52 115.17 45.25 116.31 C49.42 119.02 53.64 121.51 58 123.88 C59.81 124.89 61.53 126.03 63.25 127.19 C65.84 129.03 65.84 129.03 68.34 129.91 C71.24 131.1 73.64 132.59 76.25 134.31 C81.06 137.43 85.95 140.28 91 143 C95.98 145.69 100.81 148.49 105.56 151.56 C109.32 153.99 113.08 156.12 117.11 158.04 C119.83 159.42 122.36 161.07 124.93 162.71 C127.12 164.07 129.36 165.32 131.62 166.56 C135.22 168.53 138.59 170.73 142 173 C142.91 173.45 143.81 173.91 144.75 174.38 C148.48 176.24 151.99 178.36 155.55 180.52 C157.56 181.73 159.58 182.91 161.62 184.06 C164.09 185.48 166.48 186.92 168.88 188.44 C172.47 190.71 176.16 192.76 179.9 194.8 C181.73 195.85 183.5 197.01 185.25 198.19 C187.85 200.04 187.85 200.04 190.4 200.93 C193 202 195.02 203.26 197.31 204.88 C200.78 207.25 204.25 209.2 208.04 211.01 C210.79 212.4 213.34 214.05 215.93 215.71 C218.12 217.07 220.36 218.32 222.62 219.56 C225.28 221.01 227.73 222.49 230.25 224.19 C232.84 226.03 232.84 226.03 235.34 226.91 C238.24 228.1 240.64 229.59 243.25 231.31 C247.42 234.02 251.64 236.51 256.01 238.88 C258.77 240.43 261.36 242.24 264 244 C264.87 244.43 265.75 244.86 266.64 245.31 C270.7 247.35 274.59 249.63 278.5 251.94 C279.23 252.37 279.97 252.8 280.72 253.24 C283.98 255.16 287.2 257.1 290.32 259.24 C293.14 261.09 295.76 262.08 299 263 C299 264.32 299 265.64 299 267 C298.39 267.29 297.79 267.58 297.16 267.88 C288.92 271.92 281.2 276.57 273.5 281.56 C269.18 284.34 264.77 286.66 260.14 288.88 C257.48 290.27 255.33 292.11 253 294 C251.34 294.7 249.68 295.4 248.01 296.09 C244.33 297.76 240.9 299.86 237.44 301.94 C236.71 302.37 235.98 302.8 235.23 303.24 C232 305.15 228.84 307.11 225.72 309.2 C223.52 310.66 221.45 311.84 219.06 312.94 C216.37 314.24 214.01 315.64 211.62 317.44 C208.08 320.09 204.26 321.89 200.29 323.81 C197.56 325.23 195.38 327.07 193 329 C191.32 329.71 189.64 330.42 187.94 331.09 C185.68 332.15 183.74 333.46 181.69 334.88 C177.71 337.62 173.61 339.75 169.27 341.86 C166.34 343.33 163.72 345.17 161 347 C159.18 348.13 157.35 349.23 155.5 350.31 C154.6 350.84 153.71 351.38 152.78 351.93 C149.36 353.25 147.5 352.97 144 352 C141.97 350.71 139.97 349.38 138 348 C137.22 347.7 136.45 347.39 135.64 347.08 C132.75 345.9 130.36 344.41 127.75 342.69 C123.58 339.98 119.36 337.49 115 335.12 C113.19 334.11 111.47 332.97 109.75 331.81 C107.16 329.97 107.16 329.97 104.66 329.09 C101.76 327.9 99.36 326.41 96.75 324.69 C91.94 321.57 87.05 318.72 82 316 C75.53 312.5 69.27 308.73 63.02 304.86 C60.72 303.44 58.42 302.07 56.06 300.75 C53 299 53 299 49.88 296.88 C47.18 294.98 47.18 294.98 44.66 294.1 C41.7 292.88 39.23 291.32 36.56 289.56 C32.79 287.12 29.04 284.98 25 283 C21.64 281.05 18.32 279.02 15 277 C12.48 275.48 9.96 273.96 7.44 272.44 C6.79 272.05 6.14 271.66 5.48 271.26 C1.32 268.76 -2.88 266.37 -7.14 264.05 C-8.9 263.06 -10.58 261.94 -12.25 260.81 C-14.85 258.96 -14.85 258.96 -17.39 258.07 C-20.03 256.99 -22.11 255.69 -24.44 254.06 C-27.86 251.73 -31.27 249.83 -35 248 C-37.49 246.54 -39.95 245.04 -42.41 243.55 C-44.83 242.1 -47.28 240.73 -49.75 239.38 C-52.37 237.94 -54.86 236.46 -57.31 234.75 C-59.67 233.21 -61.25 232.42 -64 232 C-64 231.34 -64 230.68 -64 230 C-65.05 229.63 -65.05 229.63 -66.12 229.25 C-69.37 227.84 -72.06 225.96 -75 224 C-75.78 223.7 -76.56 223.39 -77.36 223.08 C-80.25 221.9 -82.64 220.41 -85.25 218.69 C-89.26 216.09 -93.29 213.67 -97.48 211.38 C-100.73 209.6 -103.96 207.77 -107.19 205.94 C-107.77 205.61 -108.35 205.28 -108.95 204.94 C-111.75 203.35 -114.45 201.69 -117.11 199.88 C-119.73 198.17 -122.11 197.13 -125 196 C-126.77 194.93 -128.52 193.83 -130.25 192.69 C-134.33 190.04 -138.43 187.59 -142.73 185.34 C-143.86 184.67 -143.86 184.67 -145 184 C-145.57 183.7 -146.14 183.4 -146.72 183.09 C-151.61 180.18 -151.61 180.18 -152.64 177.07 C-152.86 174.69 -152.87 172.39 -152.79 169.99 C-152.8 169.09 -152.8 168.19 -152.8 167.27 C-152.79 164.3 -152.74 161.35 -152.68 158.39 C-152.67 156.33 -152.66 154.28 -152.65 152.22 C-152.63 146.82 -152.56 141.41 -152.48 136.01 C-152.41 130.49 -152.38 124.98 -152.34 119.46 C-152.27 108.64 -152.15 97.82 -152 87 C-151.32 86.67 -150.65 86.35 -149.95 86.01 C-149.06 85.57 -148.17 85.14 -147.25 84.69 C-145.93 84.04 -145.93 84.04 -144.58 83.39 C-141.98 82.08 -141.98 82.08 -139.8 80.33 C-138 79 -138 79 -136 79 C-136 78.34 -136 77.68 -136 77 C-135.06 76.63 -134.12 76.26 -133.15 75.88 C-128.02 73.68 -123.33 70.75 -118.56 67.88 C-111.88 63.88 -105.18 59.92 -98.38 56.12 C-92.72 52.97 -87.12 49.76 -81.54 46.48 C-79.49 45.29 -77.44 44.11 -75.38 42.94 C-72.71 41.41 -70.07 39.84 -67.44 38.25 C-60.44 34.03 -53.33 30 -46.2 25.99 C-42.62 23.96 -39.13 21.83 -35.69 19.56 C-31.4 16.81 -27.06 14.46 -22.47 12.25 C-19.02 10.51 -15.76 8.5 -12.47 6.49 C-1.73 0 -1.73 0 0 0 Z " fill="#FF3454" transform="translate(152,344)"/>
<path d="M0 0 C0 57.75 0 115.5 0 175 C-2.97 176.65 -5.94 178.3 -9 180 C-11.42 181.37 -13.84 182.74 -16.25 184.12 C-16.84 184.46 -17.42 184.79 -18.02 185.14 C-22.15 187.5 -26.23 189.92 -30.29 192.39 C-34.7 195.07 -39.14 197.63 -43.69 200.06 C-46.8 201.74 -49.73 203.44 -52.56 205.56 C-56.01 208.15 -59.74 209.95 -63.61 211.83 C-69.04 214.49 -74.12 217.69 -79.25 220.88 C-85.06 224.47 -90.98 227.78 -97 231 C-101.2 233.29 -105.23 235.78 -109.25 238.38 C-113.92 241.37 -118.69 244.05 -123.58 246.67 C-126.14 248.03 -126.14 248.03 -129 250 C-132.65 252.43 -136.45 254.47 -140.3 256.54 C-142.59 257.78 -144.83 259.06 -147.06 260.38 C-150 262 -150 262 -152 262 C-152.26 239.3 -152.45 216.61 -152.57 193.91 C-152.63 183.37 -152.7 172.83 -152.83 162.3 C-152.94 153.11 -153.01 143.93 -153.03 134.74 C-153.05 129.88 -153.08 125.01 -153.16 120.15 C-153.24 115.57 -153.26 110.99 -153.24 106.41 C-153.25 104.73 -153.27 103.05 -153.31 101.38 C-153.61 88.7 -153.61 88.7 -149.61 84.48 C-146.8 82.65 -144.1 81.28 -141 80 C-139.62 79.32 -138.25 78.63 -136.88 77.94 C-135.93 77.49 -135.93 77.49 -134.96 77.03 C-132.69 75.84 -130.62 74.45 -128.5 73 C-125.13 70.7 -121.76 68.82 -118.09 67.05 C-111.97 63.97 -106.24 60.16 -100.5 56.44 C-96.18 53.66 -91.77 51.34 -87.14 49.12 C-84.48 47.73 -82.33 45.89 -80 44 C-78.32 43.29 -76.64 42.58 -74.94 41.91 C-72.68 40.85 -70.74 39.54 -68.69 38.12 C-64.78 35.44 -60.79 33.34 -56.53 31.27 C-50.26 28.12 -44.39 24.25 -38.5 20.44 C-34.21 17.68 -29.84 15.33 -25.26 13.1 C-18.65 9.88 -12.77 5.83 -6.77 1.61 C-4 0 -4 0 0 0 Z " fill="#FF3454" transform="translate(152,86)"/>
</svg>
