<?xml version="1.0" encoding="UTF-8"?>
<!-- Generator: https://ezgif.com/png-to-svg -->
<svg version="1.1" xmlns="http://www.w3.org/2000/svg" width="512" height="512" viewBox="-36.001 -102.949 672.002 672.002" preserveAspectRatio="xMidYMid meet">
<path d="M0 0 C0.67 -0 1.33 -0.01 2.02 -0.01 C7.05 -0.05 12.09 -0.07 17.13 -0.07 C17.87 -0.08 18.61 -0.08 19.37 -0.08 C42.71 -0.11 65.6 0.57 88.69 4.24 C89.93 4.43 91.17 4.61 92.45 4.81 C118.03 8.73 142.88 15.26 167.39 23.5 C168.85 23.97 170.32 24.39 171.81 24.76 C174.68 25.49 177.21 26.83 179.88 28.11 C185.09 30.56 190.2 32.53 195.69 34.24 C196.35 34.57 197.01 34.9 197.69 35.24 C198.8 35.66 199.92 36.09 201.06 36.52 C211.67 40.96 211.67 40.96 214.31 46.84 C215.1 50.28 215.41 53.73 215.59 57.26 C215.68 58.98 215.86 60.69 216.05 62.4 C220.81 107.69 213.8 157.26 200.61 200.58 C199.22 205.15 198.23 209.5 197.69 214.24 C198.87 214.61 198.87 214.61 200.07 214.99 C203.19 216.48 203.22 217.25 204.69 220.24 C205.86 221.49 207.07 222.7 208.32 223.86 C210.23 225.65 210.23 225.65 211.69 227.24 C211.69 227.9 211.69 228.56 211.69 229.24 C212.69 228.96 213.69 228.68 214.73 228.4 C216.07 228.03 217.41 227.67 218.75 227.3 C219.41 227.12 220.07 226.94 220.74 226.75 C231.9 223.73 231.9 223.73 235.88 224.86 C236.48 224.99 237.08 225.11 237.69 225.24 C239.73 223.88 239.73 223.88 241.69 222.24 C243.63 221.68 243.63 221.68 245.69 221.24 C247.37 220.59 249.03 219.93 250.69 219.24 C250.69 218.58 250.69 217.92 250.69 217.24 C251.37 217.18 252.04 217.12 252.74 217.05 C253.63 216.97 254.52 216.89 255.44 216.8 C256.32 216.72 257.2 216.64 258.11 216.55 C260.59 216.32 260.59 216.32 262.51 215.71 C265.14 215.14 267.47 215.21 270.16 215.32 C289.32 215.82 307.5 213.74 326.39 210.7 C329.69 210.24 329.69 210.24 333.69 210.24 C332.41 213.81 330.91 216.53 328.54 219.49 C327.93 220.26 327.32 221.04 326.69 221.83 C326.05 222.63 325.41 223.42 324.75 224.24 C318.65 231.85 318.65 231.85 313.69 240.24 C312.03 241.91 310.36 243.58 308.69 245.24 C301.76 252.06 301.76 252.06 298.71 260.63 C299.54 262.77 299.54 262.77 300.66 264.87 C303.48 271.32 302.29 279.36 300.13 285.86 C296.06 295.63 290.34 303.06 282.63 310.24 C280.46 312.01 280.46 312.01 280.69 314.24 C279.7 314.57 278.71 314.9 277.69 315.24 C277.01 315.98 277.01 315.98 276.32 316.74 C274.69 318.24 274.69 318.24 272.46 318.66 C269.22 319.34 266.66 320.58 263.69 322.05 C241.34 332.55 219.07 333.36 195.69 326.24 C194.37 327.89 193.05 329.54 191.69 331.24 C192.26 331.43 192.83 331.63 193.42 331.83 C195.99 332.73 198.56 333.64 201.13 334.55 C202.48 335.01 202.48 335.01 203.85 335.49 C204.7 335.79 205.56 336.1 206.44 336.41 C207.23 336.69 208.02 336.97 208.83 337.26 C210.69 338.24 210.69 338.24 211.69 341.24 C211.04 344.17 210.31 347.01 209.49 349.89 C209.13 351.18 209.13 351.18 208.77 352.49 C208 355.24 207.22 357.99 206.44 360.74 C205.93 362.56 205.42 364.38 204.91 366.2 C204.18 368.84 203.44 371.48 202.69 374.12 C201.15 379.54 199.71 384.97 198.44 390.46 C198.07 391.34 198.07 391.34 197.69 392.24 C196.7 392.57 195.71 392.9 194.69 393.24 C193.7 393.9 192.71 394.56 191.69 395.24 C190.7 395.9 189.71 396.56 188.69 397.24 C187.93 397.9 187.17 398.56 186.38 399.24 C183.45 401.41 181.18 402.23 177.69 403.24 C176.21 403.73 174.73 404.23 173.25 404.74 C172.48 404.99 171.7 405.25 170.9 405.51 C169.07 406.11 167.26 406.73 165.44 407.36 C157.03 409.33 148.29 409.38 139.69 409.24 C139.36 410.23 139.03 411.22 138.69 412.24 C135.98 413.25 135.98 413.25 132.32 414.15 C131.66 414.31 130.99 414.48 130.3 414.65 C128.1 415.19 125.9 415.72 123.69 416.24 C122.59 416.5 122.59 416.5 121.47 416.77 C116.71 417.91 111.94 419.02 107.17 420.12 C104.51 420.73 101.86 421.35 99.21 421.96 C91.68 423.71 84.15 425.45 76.63 427.19 C71.99 428.26 67.36 429.33 62.72 430.41 C60.96 430.82 59.21 431.23 57.45 431.63 C55 432.19 52.56 432.76 50.12 433.33 C49.39 433.49 48.66 433.66 47.91 433.83 C43.9 434.75 43.9 434.75 40.69 437.24 C39.13 437.21 37.56 437.17 36 437.13 C30.71 437.38 25.54 438.92 20.41 440.13 C19.08 440.44 17.76 440.75 16.44 441.05 C12.9 441.87 9.36 442.7 5.82 443.54 C2.89 444.22 -0.05 444.91 -2.98 445.59 C-23.92 450.46 -44.84 455.42 -65.73 460.46 C-68.16 461.04 -70.58 461.62 -73.01 462.2 C-75.7 462.85 -78.38 463.51 -81.07 464.19 C-87.52 465.78 -93.47 466.69 -100.12 466.55 C-101.29 466.56 -101.29 466.56 -102.49 466.56 C-107.72 466.51 -112.31 465.82 -117.31 464.24 C-119 462.05 -119 462.05 -120.31 459.24 C-121.15 458.12 -122.01 457.02 -122.87 455.93 C-127.47 449.45 -127.74 443.08 -126.91 435.39 C-125.37 427.3 -121.89 420.27 -116.64 413.96 C-115.23 412.14 -114.27 410.32 -113.31 408.24 C-114.61 408.95 -114.61 408.95 -115.93 409.68 C-119.31 411.24 -119.31 411.24 -122.14 411.69 C-125.49 412.27 -128.24 413.3 -131.37 414.61 C-148.74 421.34 -165.97 421.39 -184.31 419.24 C-186.31 422.09 -186.31 422.09 -187.56 424.81 C-189.87 428.02 -191.42 428.26 -195.25 429.13 C-196.2 429.36 -196.2 429.36 -197.18 429.6 C-198.68 429.95 -200.18 430.3 -201.68 430.64 C-204.65 431.32 -207.61 432.03 -210.58 432.75 C-216.57 434.2 -222.56 435.62 -228.55 437.04 C-232.33 437.93 -236.1 438.83 -239.88 439.72 C-242.29 440.3 -244.71 440.87 -247.12 441.44 C-248.24 441.7 -249.36 441.97 -250.51 442.25 C-255.77 443.48 -260.95 444.6 -266.31 445.24 C-265.02 442.42 -263.65 440.31 -261.52 438.07 C-260.97 437.49 -260.43 436.91 -259.87 436.32 C-259.29 435.71 -258.71 435.11 -258.12 434.49 C-256.93 433.23 -255.75 431.97 -254.56 430.7 C-253.99 430.1 -253.42 429.5 -252.84 428.88 C-250.54 426.41 -248.32 423.89 -246.16 421.3 C-244.31 419.24 -244.31 419.24 -242.04 417.23 C-232.85 408.57 -230.59 398.29 -227.43 386.43 C-226.89 384.47 -226.34 382.52 -225.79 380.57 C-224.74 376.83 -223.71 373.09 -222.7 369.34 C-220.97 362.95 -219.15 356.59 -217.31 350.24 C-224.34 346 -224.34 346 -232.31 344.24 C-232.31 343.58 -232.31 342.92 -232.31 342.24 C-234.16 341.87 -234.16 341.87 -236.06 341.49 C-239.81 340.56 -241.93 339.41 -244.31 336.24 C-244.31 335.58 -244.31 334.92 -244.31 334.24 C-232.86 331.06 -221.34 328.37 -209.75 325.8 C-207.09 325.21 -204.42 324.61 -201.76 324.02 C-200.02 323.63 -198.28 323.24 -196.54 322.86 C-191.67 321.77 -186.81 320.67 -181.95 319.54 C-180.93 319.31 -179.91 319.07 -178.86 318.83 C-177.05 318.41 -175.25 317.98 -173.45 317.56 C-169.95 316.75 -166.93 316.24 -163.31 316.24 C-164.34 307.03 -165.98 300.35 -172.81 293.86 C-175.25 292.27 -177.56 291.18 -180.31 290.24 C-180.31 289.58 -180.31 288.92 -180.31 288.24 C-181.3 287.91 -182.29 287.58 -183.31 287.24 C-183.38 286.65 -183.45 286.05 -183.52 285.44 C-185.93 265.44 -189.8 247.22 -201.31 230.24 C-201.97 230.24 -202.63 230.24 -203.31 230.24 C-203.4 229.68 -203.49 229.11 -203.59 228.54 C-205.98 220.94 -214.3 213.29 -220.31 208.24 C-220.97 208.24 -221.63 208.24 -222.31 208.24 C-222.64 206.92 -222.97 205.6 -223.31 204.24 C-212.54 205.98 -202.58 208.56 -192.31 212.24 C-189.21 213.29 -186.14 214.29 -183 215.18 C-182.11 215.53 -181.22 215.88 -180.31 216.24 C-179.98 217.23 -179.65 218.22 -179.31 219.24 C-177.32 219.93 -175.32 220.6 -173.31 221.24 C-171.68 222.74 -171.68 222.74 -170.31 224.24 C-169.61 224.57 -168.91 224.9 -168.18 225.24 C-166.31 226.24 -166.31 226.24 -165.31 229.24 C-164.67 229.38 -164.03 229.53 -163.37 229.68 C-162.69 229.86 -162.01 230.05 -161.31 230.24 C-161.06 230.78 -160.82 231.32 -160.56 231.88 C-158.72 235.35 -155.99 237.77 -153.18 240.49 C-152.34 241.32 -152.34 241.32 -151.48 242.17 C-150.09 243.53 -148.7 244.88 -147.31 246.24 C-147.6 245.5 -147.89 244.75 -148.19 243.99 C-164.88 201.25 -175.8 158 -178.64 112.12 C-179.15 104.22 -180.39 96.93 -182.31 89.24 C-186.07 72.44 -186.69 51.74 -181.31 35.24 C-179.5 32.95 -177.79 31.89 -175.31 30.24 C-174.16 29.28 -174.16 29.28 -173 28.3 C-168.25 24.66 -164.15 23.17 -158.31 22.24 C-155.6 21.33 -152.97 20.29 -150.31 19.24 C-150.31 18.58 -150.31 17.92 -150.31 17.24 C-149.03 17.11 -147.76 16.99 -146.44 16.86 C-141.28 16.29 -136.26 15.3 -131.18 14.24 C-122.14 12.36 -113.61 11.17 -104.35 11.05 C-92.05 10.85 -80.38 9.85 -68.31 7.26 C-59.39 5.36 -50.48 4.09 -41.43 2.99 C-40.76 2.91 -40.09 2.82 -39.4 2.74 C-26.24 1.12 -13.26 0.08 0 0 Z M-108.31 402.24 C-107.65 402.9 -106.99 403.56 -106.31 404.24 C-106.31 403.58 -106.31 402.92 -106.31 402.24 C-106.97 402.24 -107.63 402.24 -108.31 402.24 Z M-111.31 403.24 C-111.97 403.9 -112.63 404.56 -113.31 405.24 C-111.33 406.23 -111.33 406.23 -109.31 407.24 C-109.31 406.25 -109.31 405.26 -109.31 404.24 C-109.97 403.91 -110.63 403.58 -111.31 403.24 Z " fill="#020203" transform="translate(266.30859375,-0.23828125)"/>
<path d="M0 0 C1.28 0.23 2.56 0.46 3.88 0.69 C7.6 1.39 11.3 2.19 15 3 C16.46 3.29 17.93 3.59 19.39 3.88 C68.86 14.25 118.59 39.13 161 66 C157.96 67.52 156.1 66.24 152.94 65.19 C140.18 61.12 128.31 59.84 114.94 59.94 C113.79 59.94 112.63 59.95 111.45 59.95 C108.63 59.96 105.82 59.98 103 60 C103.52 60.17 104.04 60.34 104.58 60.52 C133.91 70.17 158.88 85.42 181 107 C181.56 107.53 182.11 108.06 182.69 108.61 C187.18 112.97 191.04 117.64 194.81 122.62 C195.38 123.36 195.96 124.1 196.54 124.86 C199.27 128.43 201.65 131.65 203 136 C202.48 135.65 201.96 135.3 201.42 134.93 C199.84 133.88 198.26 132.82 196.68 131.77 C194.94 130.62 193.21 129.46 191.48 128.29 C181.18 121.46 170.04 115.97 158 113 C158.63 113.56 159.26 114.11 159.91 114.69 C162.62 117.11 165.31 119.55 168 122 C169.05 122.95 169.05 122.95 170.13 123.92 C189.8 142.52 201.11 171.51 204 198 C204.07 200.67 204.05 203.32 204 206 C202.63 206.51 201.25 207.01 199.88 207.5 C199.11 207.78 198.34 208.06 197.55 208.34 C194.63 209.1 192.01 209.1 189 209 C188.64 207.96 188.27 206.92 187.9 205.85 C183.77 194.3 178.62 184.67 171 175 C183.67 177.89 183.67 177.89 189 181 C172.01 152.16 140.77 133.36 109 125 C93.69 121.47 78.82 119.76 63.12 119.75 C62.34 119.75 61.56 119.75 60.75 119.75 C49.24 119.76 38.22 120.17 27 123 C25.78 123.29 24.55 123.58 23.29 123.88 C16.44 125.72 11.92 127.85 7 133 C5.38 136.23 5.52 138.43 6 142 C14.77 152.3 31.38 157.14 43.74 161.9 C110.09 187.52 110.09 187.52 128 217 C129.44 220.63 129.44 220.63 130 223 C125.67 225.03 121.71 225.52 117 226 C116.67 225.39 116.34 224.79 116 224.16 C112.1 217.29 107.53 211.64 102 206 C101.37 205.35 100.74 204.69 100.09 204.02 C80.86 185.51 53 174.32 28.68 164.2 C16.52 159.1 3.53 152.85 -2 140 C-2.48 136.35 -2.17 134.36 -0.62 131 C9.43 119.51 25.66 117.11 40 115 C41.22 114.81 42.44 114.63 43.7 114.43 C73.28 110.89 107.24 114.11 135 125 C116.1 89.85 88.89 62.51 54 43 C53.23 42.57 52.46 42.13 51.67 41.69 C28.88 29 0.77 15.46 -26 16 C-25.38 16.51 -24.77 17.02 -24.13 17.55 C-17.28 23.43 -12.15 29.65 -7 37 C-7.5 37.99 -7.5 37.99 -8 39 C-8.84 38.43 -9.67 37.86 -10.54 37.28 C-19.01 31.62 -27.56 26.85 -37 23 C-38.18 22.51 -39.37 22.03 -40.59 21.53 C-53.02 17.05 -65.9 16.64 -79 16 C-77.24 44.97 -71.67 71.27 -57.82 97.02 C-57.55 97.68 -57.28 98.33 -57 99 C-57.33 99.66 -57.66 100.32 -58 101 C-76.37 77.33 -86.16 48.17 -86.5 18.38 C-86.52 17.29 -86.54 16.2 -86.56 15.09 C-86.55 14.07 -86.54 13.06 -86.53 12.02 C-86.53 11.13 -86.52 10.23 -86.52 9.3 C-86 7 -86 7 -84.12 5.25 C-61.02 -8.42 -25.14 -4.78 0 0 Z " fill="#FAFAFA" transform="translate(186,44)"/>
<path d="M0 0 C1.15 1.15 2.3 2.3 3.44 3.45 C4.53 4.53 5.62 5.61 6.71 6.68 C9.45 9.37 12.02 12.02 14.44 15 C16.97 17.97 19.58 20.4 22.55 22.91 C24.35 24.45 26.13 26.03 27.89 27.62 C51.93 49.24 80.7 62.87 110.27 75.15 C117.61 78.22 124.82 81.56 132 85 C129.23 87.87 126.34 90.37 123.19 92.81 C108.62 104.44 95.29 121.81 91.26 140.42 C90 143 90 143 86.37 144.39 C84.88 144.7 83.38 144.99 81.88 145.25 C80.39 145.55 78.91 145.84 77.43 146.14 C76.69 146.28 75.96 146.42 75.2 146.56 C73.03 146.99 70.9 147.54 68.76 148.11 C62.89 149.5 62.89 149.5 60 149 C50.95 140.7 45.03 126.54 39 116 C38.61 115.32 38.22 114.64 37.81 113.94 C26.82 94.71 18.89 73.96 11.98 52.98 C11.33 50.98 10.65 48.99 9.97 47.01 C7.55 39.94 5.55 32.83 3.81 25.56 C3.42 23.93 3.42 23.93 3.02 22.27 C1.29 14.83 0.03 7.66 0 0 Z " fill="#0054DA" transform="translate(115,150)"/>
<path d="M0 0 C0.83 0 1.65 0 2.51 0 C35.24 0.1 66.17 5.21 97.38 15.19 C97.38 15.52 97.38 15.85 97.38 16.19 C91.93 16.68 91.93 16.68 86.38 17.19 C87.39 17.49 88.41 17.79 89.45 18.11 C97.99 20.69 106.22 23.55 114.38 27.19 C115.17 27.53 115.97 27.88 116.79 28.24 C128.84 33.48 140.33 39.06 151.38 46.19 C149.63 43.57 147.83 41.35 145.75 39 C145.12 38.28 144.49 37.57 143.84 36.83 C143.11 36.02 143.11 36.02 142.38 35.19 C146.12 35.19 148.54 36.58 151.75 38.31 C152.39 38.66 153.04 39 153.7 39.36 C167.39 46.91 180.67 55.82 192.38 66.19 C193.16 66.87 193.95 67.54 194.76 68.24 C201.72 74.35 208.36 80.8 214.74 87.5 C216.19 89 217.73 90.43 219.27 91.84 C226.08 98.97 226.04 105.36 225.94 114.94 C225.82 119.03 225.64 123.11 225.38 127.19 C225.71 126.28 226.05 125.38 226.4 124.45 C226.84 123.27 227.29 122.09 227.75 120.88 C228.41 119.12 228.41 119.12 229.09 117.32 C230.38 114.19 230.38 114.19 232.38 111.19 C234.31 113.13 233.51 116.01 233.51 118.59 C233.51 119.45 233.5 120.3 233.5 121.19 C233.5 122.01 233.51 122.84 233.51 123.69 C233.5 129.26 233.08 134.66 232.38 140.19 C236.54 132.58 236.54 132.58 238.38 124.19 C239.04 124.19 239.69 124.19 240.38 124.19 C240.73 134.4 240.22 143.29 237.38 153.19 C238.36 151.44 239.34 149.69 240.31 147.94 C240.86 146.96 241.4 145.99 241.96 144.98 C243.14 142.65 243.9 140.73 244.38 138.19 C245.04 138.19 245.69 138.19 246.38 138.19 C250.74 149.35 255.23 161.05 254.38 173.19 C251.07 173.52 247.77 173.85 244.38 174.19 C245.51 174.66 246.64 175.14 247.81 175.62 C265.09 183.37 284.23 193.34 295.38 209.19 C293.63 209.72 291.88 210.24 290.12 210.75 C289.15 211.04 288.18 211.33 287.17 211.63 C284.27 212.21 283.06 212.33 280.38 211.19 C278.65 209.93 276.97 208.6 275.31 207.25 C265.48 199.52 253.89 193.95 242.38 189.19 C242.71 190.15 243.05 191.12 243.4 192.12 C246.61 201.43 249.53 210.23 249.38 220.19 C247.11 220.69 244.83 221.19 242.56 221.69 C240.67 222.11 240.67 222.11 238.73 222.53 C235.38 223.19 235.38 223.19 232.38 223.19 C232.28 222.16 232.18 221.13 232.08 220.07 C229.93 198.96 224.91 179.2 213.38 161.19 C222.13 163.83 231.17 169.52 236.38 177.19 C235.2 170.88 233.4 165.22 230.75 159.38 C230.4 158.59 230.05 157.81 229.68 157.01 C224.74 146.34 217.95 137.15 210.38 128.19 C209.68 127.35 208.98 126.52 208.26 125.66 C200.44 116.63 191.32 109.63 181.44 103.02 C180.07 102.1 178.72 101.15 177.38 100.19 C177.38 99.86 177.38 99.53 177.38 99.19 C189.97 98.78 199.95 102.34 211.38 107.19 C181.89 69.85 128.69 48.51 85.49 32.36 C83.35 31.56 81.21 30.73 79.09 29.89 C72.34 27.24 65.64 24.96 58.62 23.12 C57.68 22.87 56.74 22.62 55.76 22.36 C52.97 21.63 50.17 20.9 47.38 20.19 C46.6 19.99 45.82 19.79 45.01 19.58 C34.23 16.85 23.39 14.75 12.38 13.19 C11.66 13.08 10.94 12.98 10.2 12.87 C-13.13 9.56 -38.32 9.7 -61.62 13.19 C-55.86 6.69 -45.69 5.26 -37.56 3.5 C-36.63 3.29 -35.7 3.08 -34.75 2.86 C-23.14 0.27 -11.85 -0.02 0 0 Z " fill="#F9F9F9" transform="translate(168.625,23.8125)"/>
<path d="M0 0 C7.68 -0.02 15.35 -0.04 23.03 -0.05 C26.6 -0.06 30.16 -0.06 33.73 -0.08 C70.74 -0.19 70.74 -0.19 87.44 2.38 C88.77 2.57 88.77 2.57 90.12 2.77 C97.7 3.92 105.25 5.19 112.78 6.6 C115.14 7.03 117.51 7.43 119.88 7.83 C147.68 12.68 175.58 21.68 201 34 C201.86 34.41 202.71 34.82 203.6 35.24 C206 37 206 37 206.63 39.35 C206.63 40.28 206.63 41.21 206.63 42.17 C206.64 43.23 206.66 44.3 206.67 45.39 C206.66 46.55 206.64 47.7 206.63 48.89 C206.63 50.69 206.63 50.69 206.64 52.53 C206.64 55.77 206.62 59 206.58 62.24 C206.56 64.25 206.55 66.25 206.54 68.26 C206.45 86.79 205.79 104.88 202.51 123.15 C202.04 125.75 201.65 128.35 201.28 130.96 C198.98 146.85 195.3 162.84 190 178 C187.03 176.88 184.67 175.78 182 174 C181.29 171.05 180.74 168.18 180.25 165.19 C176.9 146.81 170.43 130.21 161.3 113.97 C158.52 107.61 159.09 100.3 160.91 93.7 C164.9 83.56 170.2 76.08 180 71 C185.55 68.79 191.09 68.75 197 69 C178.96 47.08 153.46 34.57 125.31 31.32 C111.77 30.18 98.43 30.29 85.18 33.44 C80.07 34.34 76.62 33 72.15 30.56 C71.22 30.06 70.3 29.56 69.35 29.05 C68.37 28.52 67.39 27.99 66.38 27.44 C51.93 19.77 37.22 13.72 21.88 8.12 C20.83 7.74 19.79 7.36 18.71 6.97 C14.11 5.32 9.62 3.84 4.82 2.87 C3.56 2.58 2.3 2.29 1 2 C0.67 1.34 0.34 0.68 0 0 Z " fill="#0054D9" transform="translate(254,22)"/>
<path d="M0 0 C3.17 2.99 3.46 4.75 3.62 9 C3.51 18.49 -0.41 26.6 -6.94 33.38 C-7.54 33.96 -8.13 34.53 -8.75 35.12 C-9.31 35.68 -9.86 36.23 -10.44 36.8 C-14.71 40.78 -20.69 45.12 -26.75 45.12 C-24.11 50.47 -21.44 55.8 -18.75 61.12 C-18.01 62.61 -18.01 62.61 -17.25 64.12 C-16.83 64.91 -16.42 65.69 -16 66.5 C-15.65 67.17 -15.31 67.84 -14.95 68.52 C-13.47 70.49 -12 71.19 -9.75 72.12 C-9.75 72.78 -9.75 73.44 -9.75 74.12 C-10.71 74.31 -11.66 74.49 -12.64 74.68 C-19.72 76.05 -26.66 77.53 -33.58 79.57 C-35.75 80.12 -35.75 80.12 -38.75 80.12 C-38.75 79.47 -38.75 78.81 -38.75 78.12 C-38.09 77.8 -37.43 77.47 -36.75 77.12 C-36.02 70.97 -38.57 66.59 -41.25 61.25 C-41.68 60.37 -42.11 59.49 -42.55 58.59 C-43.61 56.43 -44.67 54.27 -45.75 52.12 C-53.34 52.61 -60.42 54.12 -67.75 56.12 C-68.9 60.19 -70.04 64.25 -71.19 68.31 C-71.51 69.46 -71.84 70.61 -72.17 71.8 C-72.49 72.91 -72.8 74.02 -73.12 75.17 C-73.41 76.19 -73.7 77.21 -73.99 78.26 C-74.68 80.87 -75.25 83.47 -75.75 86.12 C-75.09 86.12 -74.43 86.12 -73.75 86.12 C-73.75 86.78 -73.75 87.44 -73.75 88.12 C-75.38 88.52 -75.38 88.52 -77.04 88.93 C-78.48 89.29 -79.93 89.64 -81.38 90 C-82.44 90.26 -82.44 90.26 -83.54 90.53 C-86.76 91.33 -89.88 92.17 -93.02 93.26 C-95.75 94.12 -95.75 94.12 -99.75 94.12 C-99.75 93.47 -99.75 92.81 -99.75 92.12 C-99 91.66 -98.24 91.2 -97.47 90.73 C-93.29 86.72 -92.62 81.94 -91.25 76.44 C-90.65 74.16 -90.05 71.88 -89.44 69.6 C-89.15 68.49 -88.86 67.37 -88.57 66.23 C-87.52 62.25 -86.37 58.31 -85.19 54.38 C-83 47.02 -80.89 39.64 -78.8 32.25 C-78.57 31.41 -78.33 30.57 -78.08 29.71 C-77.86 28.91 -77.63 28.11 -77.4 27.29 C-76.86 25.48 -76.2 23.71 -75.51 21.95 C-74.55 18.4 -75.04 15.69 -75.75 12.12 C-67.06 9.68 -58.37 7.56 -49.52 5.78 C-44.79 4.81 -40.11 3.73 -35.44 2.54 C-7.48 -4.58 -7.48 -4.58 0 0 Z " fill="#F9F9F9" transform="translate(369.75,273.875)"/>
<path d="M0 0 C0.79 0 1.58 0 2.4 0 C7.36 0.04 12.23 0.28 17.14 1 C19.63 1.15 21.77 0.69 24.19 0.12 C20.67 5.66 16.89 10.97 12.94 16.19 C12.5 16.77 12.07 17.36 11.62 17.96 C10.52 19.39 9.36 20.76 8.19 22.12 C7.53 22.12 6.87 22.12 6.19 22.12 C6.17 21.53 6.15 20.93 6.12 20.31 C5.31 17.84 5.31 17.84 2.44 16.38 C-6.76 12.95 -17.84 14.86 -26.81 18.12 C-32.89 20.97 -37.96 23.88 -40.81 30.12 C-40.45 32.27 -40.45 32.27 -39.81 34.12 C-33.95 34.34 -28.41 34.15 -22.62 33.12 C-2.91 29.87 -2.91 29.87 4.56 33.94 C7.1 36.05 8.92 37.65 9.52 41 C9.71 50.96 6.08 59.22 -0.37 66.71 C-13.2 79.38 -31.34 87.38 -49.3 87.35 C-50.98 87.33 -50.98 87.33 -52.69 87.31 C-53.83 87.31 -54.97 87.31 -56.14 87.31 C-64.53 87.27 -64.53 87.27 -66.81 86.12 C-68.19 86.06 -69.56 86.04 -70.94 86.06 C-72.22 86.08 -73.5 86.1 -74.81 86.12 C-73.2 81.37 -70.57 77.54 -67.75 73.44 C-64.57 68.91 -64.57 68.91 -61.81 64.12 C-61.15 64.12 -60.49 64.12 -59.81 64.12 C-59.59 65.07 -59.36 66.02 -59.12 67 C-58.15 70.22 -58.15 70.22 -55.7 71.3 C-44.35 74.55 -31.79 72 -21.41 66.96 C-16.17 63.94 -11.78 60.25 -9.94 54.31 C-9.9 53.59 -9.86 52.87 -9.81 52.12 C-11.45 50.48 -13.3 50.95 -15.56 50.94 C-19.78 50.96 -23.72 51.38 -27.88 52.12 C-33.37 53.04 -38.75 53.41 -44.31 53.5 C-45.08 53.53 -45.84 53.55 -46.63 53.58 C-50.41 53.59 -52.57 53.28 -55.78 51.23 C-59.59 47.29 -59.21 43.64 -59.14 38.35 C-58.17 28.85 -51.66 21.35 -44.81 15.12 C-31.74 4.64 -16.72 -0.1 0 0 Z " fill="#F9F9F9" transform="translate(544.8125,228.875)"/>
<path d="M0 0 C2.29 0.12 4.03 -0.22 6.21 -0.89 C-3.56 14.89 -3.56 14.89 -8.79 21.11 C-9.45 21.11 -10.11 21.11 -10.79 21.11 C-10.99 20.33 -11.2 19.54 -11.41 18.74 C-12.56 15.87 -12.56 15.87 -15.49 14.97 C-26.59 12.09 -38.71 14.27 -48.79 19.49 C-52.23 21.58 -54.78 23.54 -56.79 27.11 C-57.12 30.32 -57.12 30.32 -56.79 33.11 C-50.77 33.37 -44.99 32.94 -39.04 32.11 C-17.48 29.21 -17.48 29.21 -8.95 35.46 C-6.21 39.36 -7.16 44.63 -7.79 49.11 C-11.58 61.25 -21.13 70.77 -32.11 76.84 C-37.21 79.26 -42.46 81.25 -47.79 83.11 C-48.76 83.47 -49.74 83.82 -50.74 84.19 C-56.97 86.07 -63.09 86.28 -69.54 86.24 C-70.32 86.24 -71.11 86.23 -71.92 86.23 C-77.92 86.19 -83.82 85.77 -89.79 85.11 C-90.45 85.11 -91.11 85.11 -91.79 85.11 C-90.14 80.13 -87.26 76.13 -84.29 71.86 C-83.79 71.13 -83.29 70.4 -82.77 69.64 C-79.04 64.24 -79.04 64.24 -76.79 63.11 C-76.54 63.9 -76.29 64.68 -76.04 65.49 C-74.57 68.56 -73.87 68.91 -70.79 70.11 C-67.57 70.52 -64.34 70.44 -61.1 70.42 C-60.24 70.44 -59.38 70.46 -58.49 70.47 C-47.66 70.48 -38.24 66.52 -29.85 59.74 C-27.31 56.51 -26.65 54.09 -25.79 50.11 C-32.51 49.91 -38.95 50.03 -45.6 51.11 C-50.88 51.94 -56.02 52.36 -61.35 52.42 C-62.65 52.44 -63.95 52.46 -65.29 52.48 C-69.03 52.09 -70.87 51.45 -73.79 49.11 C-76.88 44.62 -76.44 39.33 -75.79 34.11 C-71.78 21.23 -60.62 11.88 -49.13 5.68 C-33.4 -1.94 -17.08 -2.21 0 0 Z " fill="#F9F9F9" transform="translate(172.78662109375,319.8876953125)"/>
<path d="M0 0 C0 0.66 0 1.32 0 2 C-0.62 2.43 -1.24 2.85 -1.88 3.29 C-4.59 5.48 -4.96 7.04 -5.88 10.38 C-6.2 11.53 -6.53 12.69 -6.87 13.88 C-7.05 14.53 -7.23 15.18 -7.41 15.85 C-8.06 18.22 -8.73 20.57 -9.41 22.93 C-9.66 23.8 -9.91 24.66 -10.16 25.56 C-10.42 26.45 -10.67 27.33 -10.94 28.25 C-12.41 33.37 -13.87 38.49 -15.25 43.64 C-19.9 60.67 -26.27 74.79 -42.07 84.04 C-57.62 92.17 -76.42 97.21 -94 95 C-98.04 92.86 -100.29 91.22 -102 87 C-103.1 79.9 -100.96 73.24 -98.94 66.5 C-98.3 64.3 -97.66 62.09 -97.02 59.89 C-96.69 58.76 -96.36 57.63 -96.01 56.47 C-94.34 50.74 -92.73 45 -91.12 39.25 C-90.83 38.2 -90.53 37.14 -90.22 36.06 C-89.95 35.08 -89.67 34.09 -89.38 33.08 C-89.02 31.79 -89.02 31.79 -88.65 30.47 C-88 27.99 -87.48 25.51 -87 23 C-87.66 22.67 -88.32 22.34 -89 22 C-88.67 21.01 -88.34 20.02 -88 19 C-86.24 18.31 -86.24 18.31 -83.96 17.87 C-83.13 17.7 -82.3 17.53 -81.45 17.36 C-80.58 17.2 -79.71 17.04 -78.81 16.88 C-77.96 16.71 -77.11 16.54 -76.23 16.36 C-71.83 15.5 -67.43 14.71 -63 14 C-63 14.66 -63 15.32 -63 16 C-63.77 16.71 -64.55 17.42 -65.35 18.16 C-68.38 21.41 -69.38 24.3 -70.44 28.5 C-70.85 30.01 -71.26 31.51 -71.67 33.02 C-71.88 33.82 -72.1 34.62 -72.31 35.44 C-73.55 40.04 -74.88 44.61 -76.19 49.19 C-76.44 50.07 -76.69 50.96 -76.95 51.87 C-77.94 55.36 -78.93 58.8 -80.16 62.22 C-81.1 65.34 -81.3 68 -81.31 71.25 C-81.33 72.29 -81.35 73.32 -81.36 74.39 C-81.24 75.25 -81.12 76.11 -81 77 C-76.42 80.06 -72.38 79.6 -67 79 C-56.62 76.84 -45.51 73.53 -39.45 64.31 C-37.05 60.31 -35.45 56.31 -34.06 51.88 C-33.82 51.11 -33.57 50.35 -33.32 49.57 C-28.98 35.89 -25.36 21.95 -22 8 C-22.99 7.5 -22.99 7.5 -24 7 C-23.67 6.01 -23.34 5.02 -23 4 C-20.24 3.11 -17.63 2.42 -14.81 1.81 C-14.06 1.64 -13.3 1.46 -12.52 1.28 C-8.27 0.32 -4.38 -0.2 0 0 Z " fill="#F8F8F8" transform="translate(280,290)"/>
<path d="M0 0 C-1 3 -1 3 -4 5 C-5.27 7.8 -5.27 7.8 -6.31 11.25 C-6.63 12.23 -6.63 12.23 -6.95 13.22 C-10.19 23.52 -12.9 34 -15.64 44.44 C-19.84 60.33 -25.37 74.29 -40 83.19 C-46.4 86.92 -52.89 89.89 -60 92 C-61.77 92.56 -61.77 92.56 -63.57 93.12 C-71.08 95.34 -78.29 96.4 -86.12 96.5 C-86.92 96.52 -87.71 96.54 -88.53 96.56 C-93.79 96.5 -96.84 95.48 -101 92 C-104.19 85.63 -102.39 75.24 -100.31 68.69 C-99.95 67.64 -99.59 66.6 -99.21 65.53 C-97.76 61.31 -96.6 57.05 -95.44 52.75 C-94 47.5 -92.49 42.31 -90.69 37.17 C-89.21 32.52 -88.13 27.75 -87 23 C-87.66 23 -88.32 23 -89 23 C-88.67 22.01 -88.34 21.02 -88 20 C-85.78 19.2 -85.78 19.2 -82.87 18.61 C-81.84 18.4 -80.8 18.18 -79.74 17.96 C-78.65 17.75 -77.56 17.53 -76.44 17.31 C-75.35 17.09 -74.25 16.86 -73.13 16.63 C-70.42 16.08 -67.71 15.53 -65 15 C-65 15.99 -65 16.98 -65 18 C-65.99 18.66 -66.98 19.32 -68 20 C-69 22.39 -69 22.39 -69.68 25.24 C-69.97 26.31 -70.26 27.38 -70.56 28.48 C-70.85 29.6 -71.14 30.72 -71.44 31.88 C-73.44 39.43 -75.55 46.89 -78.08 54.29 C-80.95 62.75 -82.47 70.03 -82 79 C-71.53 82.49 -61.11 79.17 -51.46 74.87 C-42.65 70.42 -38.66 64.5 -35.35 55.32 C-32.78 47.38 -30.76 39.25 -28.65 31.17 C-27.17 25.53 -25.48 20.01 -23.53 14.52 C-22.88 11.43 -23.32 9.06 -24 6 C-7.14 0 -7.14 0 0 0 Z " fill="#F9F9F9" transform="translate(480,243)"/>
<path d="M0 0 C0.84 0.18 1.68 0.36 2.54 0.55 C15.62 3.39 27.71 7.73 40 13 C40 17 40 17 38.54 18.48 C37.59 19.11 37.59 19.11 36.62 19.75 C36 20.18 35.37 20.61 34.73 21.05 C33 22 33 22 31 22 C29.81 20.46 29.81 20.46 28.44 18.38 C25.05 13.66 20.96 10.91 16 8 C13.91 9.91 13.91 9.91 12.69 12.38 C10.82 15.29 8.78 16.97 6 19 C5.62 18.58 5.24 18.15 4.86 17.71 C-2.96 9.39 -12.57 4.38 -23 0 C-22.94 1.26 -22.88 2.52 -22.81 3.81 C-22.79 9.51 -24.31 14.61 -26 20 C-35.06 18.84 -42.26 11.31 -47.76 4.47 C-48.17 3.98 -48.58 3.5 -49 3 C-49.33 3 -49.66 3 -50 3 C-51.08 8.44 -51.32 13.85 -51.56 19.38 C-51.63 20.77 -51.63 20.77 -51.69 22.18 C-51.8 24.46 -51.9 26.73 -52 29 C-60.81 27.65 -68.2 22.58 -74 16 C-73.69 23.4 -72.03 29.28 -69 36 C-68.41 37.37 -67.83 38.75 -67.25 40.12 C-66.84 41.07 -66.43 42.02 -66 43 C-72.63 41.79 -77.84 39.43 -83 35 C-84.87 29.39 -84.98 23.11 -83.2 17.46 C-78.3 7.68 -68.87 2.74 -59 -1 C-40.1 -7.25 -18.91 -4.35 0 0 Z " fill="#F6F6F6" transform="translate(227,123)"/>
<path d="M0 0 C10.09 2.33 17.89 11.1 24 19 C24 19.66 24 20.32 24 21 C29.3 16.97 32.79 12.83 36 7 C39.33 8.43 41.32 10.15 43.69 12.88 C44.29 13.55 44.89 14.23 45.51 14.93 C47.01 17.01 47.58 18.5 48 21 C54.63 18.74 58.97 14.8 64 10 C70.61 12.83 75.4 16.42 80 22 C80.33 22.99 80.66 23.98 81 25 C78.65 25.03 76.29 25.05 73.94 25.06 C71.97 25.08 71.97 25.08 69.96 25.1 C66 25 66 25 62.8 24.51 C58.59 23.95 54.51 23.8 50.27 23.76 C49.03 23.75 49.03 23.75 47.77 23.73 C45.12 23.71 42.47 23.69 39.81 23.69 C38.91 23.68 38.01 23.68 37.08 23.68 C23.96 23.68 11.65 24.24 -1 28 C-2.14 28.3 -3.28 28.6 -4.46 28.91 C-13.93 31.66 -23.24 36.42 -28.92 44.73 C-30.93 48.94 -31.51 53.4 -32 58 C-41.04 55.53 -47.42 48.26 -53 41 C-52.67 40.34 -52.34 39.68 -52 39 C-51.2 39.47 -50.39 39.95 -49.56 40.44 C-45.33 42.29 -41.57 42.71 -37 43 C-37.6 42.23 -38.21 41.45 -38.83 40.66 C-47.41 29.47 -47.41 29.47 -50 23 C-49.67 22.01 -49.34 21.02 -49 20 C-48.54 20.38 -48.08 20.75 -47.6 21.14 C-40.95 26.36 -33.86 29.93 -26 33 C-26.22 32.13 -26.43 31.26 -26.66 30.36 C-28.51 22.42 -29.4 15.15 -29 7 C-26 7 -26 7 -23.88 9.06 C-23.45 9.52 -23.02 9.97 -22.57 10.44 C-17.1 15.87 -10.99 19.82 -4 23 C-2.27 15.35 -0.67 7.82 0 0 Z " fill="#F8F8F8" transform="translate(208,129)"/>
<path d="M0 0 C23.68 8.14 40.72 36.52 52.69 56.79 C54 59.01 55.34 61.21 56.69 63.4 C57.52 64.77 58.35 66.13 59.19 67.5 C59.57 68.13 59.96 68.76 60.36 69.41 C63 73.77 63 73.77 63 76 C59.9 76.87 56.79 77.72 53.69 78.56 C52.37 78.93 52.37 78.93 51.02 79.31 C50.17 79.54 49.32 79.77 48.45 80 C47.67 80.22 46.89 80.43 46.08 80.65 C44 81 44 81 41 80 C39.89 77.66 39.89 77.66 38.81 74.62 C35.11 65.28 28.7 54.38 19.04 50.14 C18.41 49.87 17.78 49.59 17.12 49.31 C14 47 14 47 13.48 44.84 C13.36 42.97 13.28 41.11 13.22 39.25 C12.31 25.81 6.07 11.84 0 0 Z " fill="#FAFAFA" transform="translate(81,231)"/>
<path d="M0 0 C-1.15 1.2 -1.15 1.2 -2.32 2.42 C-5.56 6.33 -6.64 10.4 -7.88 15.25 C-8.12 16.15 -8.36 17.06 -8.62 17.99 C-9.43 20.99 -10.21 23.99 -11 27 C-12.18 31.44 -13.37 35.88 -14.56 40.31 C-14.86 41.42 -15.15 42.52 -15.45 43.66 C-17.45 51.09 -19.64 58.43 -22 65.75 C-23.25 69.81 -24.18 73.84 -25 78 C-24.34 78 -23.68 78 -23 78 C-23.33 78.99 -23.66 79.98 -24 81 C-26.09 81.82 -26.09 81.82 -28.8 82.42 C-29.78 82.64 -30.76 82.86 -31.76 83.09 C-33.3 83.42 -33.3 83.42 -34.88 83.75 C-36.4 84.1 -36.4 84.1 -37.96 84.46 C-45.59 86.14 -45.59 86.14 -49 85 C-48.25 84.39 -47.49 83.78 -46.71 83.15 C-42.94 79.36 -41.96 74.6 -40.56 69.56 C-40.27 68.54 -39.97 67.53 -39.67 66.48 C-38.76 63.32 -37.87 60.16 -37 57 C-36.61 55.59 -36.61 55.59 -36.21 54.16 C-35.23 50.57 -34.25 46.98 -33.28 43.38 C-31.07 35.17 -28.69 27.01 -26.27 18.85 C-25.99 17.9 -25.71 16.95 -25.42 15.96 C-25.04 14.71 -25.04 14.71 -24.66 13.42 C-23.99 10.96 -23.47 8.5 -23 6 C-23.66 6 -24.32 6 -25 6 C-25 5.34 -25 4.68 -25 4 C-22.63 3.35 -20.25 2.71 -17.88 2.06 C-17.21 1.88 -16.54 1.7 -15.86 1.51 C-4.49 -1.55 -4.49 -1.55 0 0 Z " fill="#F9F9F9" transform="translate(89,335)"/>
<path d="M0 0 C-0.46 0.52 -0.92 1.05 -1.39 1.59 C-3.36 4.53 -3.98 7.12 -4.81 10.56 C-6.58 17.68 -8.74 24.62 -11.07 31.56 C-12.35 35.49 -13.37 38.81 -13 43 C-14.41 43.53 -15.83 44.05 -17.25 44.56 C-18.04 44.85 -18.83 45.14 -19.64 45.44 C-22.19 46.05 -23.55 45.85 -26 45 C-25.54 44.28 -25.08 43.57 -24.6 42.83 C-23.05 40.08 -22.19 37.74 -21.39 34.7 C-21.13 33.72 -20.87 32.75 -20.6 31.74 C-20.34 30.73 -20.08 29.73 -19.81 28.69 C-19.54 27.66 -19.27 26.63 -18.99 25.58 C-18.32 23.05 -17.66 20.53 -17 18 C-17.73 18.97 -18.45 19.94 -19.2 20.94 C-26.47 30.62 -33.73 40.31 -41 50 C-42.93 46.52 -43.98 42.95 -45.06 39.12 C-45.57 37.33 -45.57 37.33 -46.1 35.51 C-46.91 32.34 -47.52 29.23 -48 26 C-48.66 26 -49.32 26 -50 26 C-54.14 39.84 -54.14 39.84 -56 54 C-59.96 54.66 -63.92 55.32 -68 56 C-67.64 54.94 -67.27 53.89 -66.9 52.8 C-63.95 44.15 -61.17 35.46 -58.62 26.69 C-58.36 25.8 -58.1 24.91 -57.83 24 C-57.59 23.16 -57.35 22.31 -57.1 21.45 C-56.89 20.71 -56.68 19.97 -56.46 19.21 C-55.95 16.76 -55.92 14.5 -56 12 C-53.92 11.47 -51.84 10.95 -49.75 10.44 C-48.59 10.15 -47.43 9.86 -46.23 9.56 C-43.28 9.05 -41.76 8.97 -39 10 C-39.33 10.33 -39.66 10.66 -40 11 C-40.33 15.7 -39.46 19.42 -38 23.88 C-37.63 25.03 -37.26 26.18 -36.88 27.37 C-36.59 28.24 -36.3 29.1 -36 30 C-35.34 30 -34.68 30 -34 30 C-32.44 28.26 -32.44 28.26 -30.85 25.98 C-30.24 25.15 -29.62 24.31 -28.99 23.44 C-28.36 22.55 -27.72 21.67 -27.06 20.75 C-26.43 19.88 -25.8 19 -25.14 18.11 C-23.96 16.47 -22.77 14.84 -21.59 13.2 C-20.54 11.75 -19.44 10.34 -18.29 8.97 C-16.63 6.84 -16.63 6.84 -17 3 C-15.11 2.49 -13.21 1.99 -11.31 1.5 C-9.73 1.08 -9.73 1.08 -8.11 0.66 C-5.29 0.06 -2.87 -0.13 0 0 Z " fill="#F5F5F5" transform="translate(327,375)"/>
<path d="M0 0 C-0.66 0.99 -1.32 1.98 -2 3 C-2.6 4.87 -3.13 6.76 -3.62 8.66 C-3.92 9.79 -4.21 10.91 -4.52 12.07 C-4.97 13.83 -4.97 13.83 -5.44 15.62 C-9.05 29.5 -9.05 29.5 -11.4 36.2 C-12.15 38.44 -12.63 40.68 -13 43 C-21.04 45.28 -21.04 45.28 -25 44 C-25.15 43.12 -25.15 43.12 -25.31 42.23 C-26.12 39.61 -27.21 38.33 -29.06 36.31 C-29.68 35.63 -30.31 34.94 -30.95 34.24 C-31.96 33.13 -31.96 33.13 -33 32 C-34.48 30.34 -35.96 28.67 -37.44 27 C-38.62 25.67 -39.81 24.33 -41 23 C-43.2 26.89 -44.36 31.06 -45.62 35.31 C-45.85 36.05 -46.08 36.78 -46.32 37.54 C-47.71 42.2 -48.24 46.14 -48 51 C-52.29 51.99 -56.58 52.98 -61 54 C-61 53.34 -61 52.68 -61 52 C-60.34 52 -59.68 52 -59 52 C-58.78 51.07 -58.56 50.13 -58.34 49.17 C-56.25 40.49 -53.84 32 -50.93 23.56 C-49.36 18.83 -48.71 14.99 -49 10 C-43.9 8.09 -39.54 6.57 -34 7 C-34.12 7.69 -34.24 8.38 -34.36 9.09 C-33.82 13.46 -31.22 15.52 -28.19 18.56 C-27.1 19.69 -26.01 20.81 -24.92 21.94 C-24.15 22.73 -24.15 22.73 -23.37 23.53 C-21.76 25.25 -20.35 27.07 -19 29 C-16.9 23.86 -15.27 18.66 -13.81 13.31 C-13.47 12.05 -13.12 10.79 -12.77 9.49 C-12.11 6.5 -11.83 4.04 -12 1 C-10.56 0.64 -9.13 0.28 -7.69 -0.06 C-6.49 -0.36 -6.49 -0.36 -5.26 -0.66 C-3 -1 -3 -1 0 0 Z " fill="#F4F4F4" transform="translate(405,358)"/>
<path d="M0 0 C0 0.33 0 0.66 0 1 C-0.82 1.03 -1.64 1.05 -2.49 1.08 C-16.34 1.78 -27.58 6.66 -37 17 C-41.3 15.32 -44.18 12.15 -47.44 9 C-53.96 2.81 -60.8 -2.62 -68 -8 C-69.67 -9.33 -71.34 -10.66 -73 -12 C-52.52 -22.24 -17.87 -11.13 0 0 Z " fill="#FAFAFA" transform="translate(419,78)"/>
<path d="M0 0 C0.83 0.01 1.66 0.02 2.52 0.03 C4.55 0.05 6.59 0.09 8.62 0.12 C6.95 4.72 4.83 7.5 1.62 11.12 C1.13 10.13 1.13 10.13 0.62 9.12 C-8.5 8.53 -15.82 8.55 -23.38 14.12 C-28.31 18.51 -32.11 23.53 -33.38 30.12 C-33.16 33.92 -33.07 35.43 -30.38 38.12 C-22.17 39.51 -14.64 36.76 -7.38 33.12 C-6.65 31.15 -5.98 29.15 -5.38 27.12 C-7.15 27.58 -8.92 28.04 -10.69 28.5 C-12.17 28.88 -12.17 28.88 -13.68 29.27 C-16.56 30.04 -16.56 30.04 -19.38 32.12 C-18.71 28.82 -18.06 25.52 -17.38 22.12 C-15.88 22.19 -15.88 22.19 -14.36 22.25 C-10.19 22.12 -6.54 21.3 -2.56 20.12 C4.43 18.12 4.43 18.12 6.62 18.12 C6.62 18.79 6.62 19.44 6.62 20.12 C5.63 20.62 5.63 20.62 4.62 21.12 C3.38 24.65 2.54 27.36 2.94 31.11 C2.62 34.12 2.62 34.12 0.13 36.32 C-1.54 37.28 -1.54 37.28 -3.25 38.25 C-4.13 38.76 -4.13 38.76 -5.03 39.28 C-15.69 45.28 -26.03 48.58 -38.38 47.12 C-41.43 45.46 -42.82 43.23 -44.38 40.12 C-45.13 30.92 -41.83 23.83 -36.46 16.55 C-30.65 9.79 -23.73 5.12 -15.38 2.12 C-14.49 1.76 -13.61 1.4 -12.7 1.03 C-8.39 -0.14 -4.44 -0.09 0 0 Z " fill="#F4F4F4" transform="translate(449.375,346.875)"/>
<path d="M0 0 C-1.12 1.84 -2.24 3.67 -3.38 5.5 C-4 6.52 -4.63 7.54 -5.27 8.59 C-5.84 9.39 -6.41 10.18 -7 11 C-7.66 11 -8.32 11 -9 11 C-9.5 10.01 -9.5 10.01 -10 9 C-18.79 8.39 -24.78 8.78 -32 14 C-32.91 14.58 -33.81 15.15 -34.75 15.75 C-39.06 20.06 -42.28 25.15 -42.44 31.38 C-42.27 35.09 -42.27 35.09 -40 38 C-32.49 39.45 -25.99 37.69 -19.18 34.58 C-16.54 32.67 -15.92 31.08 -15 28 C-17 28.33 -19 28.66 -21 29 C-21.93 29.14 -22.86 29.29 -23.81 29.44 C-24.53 29.62 -25.26 29.81 -26 30 C-26.33 30.66 -26.66 31.32 -27 32 C-27.66 32 -28.32 32 -29 32 C-28.01 28.7 -27.02 25.4 -26 22 C-23.9 21.85 -23.9 21.85 -21.75 21.69 C-16.5 21.18 -11.56 19.99 -6.47 18.62 C-4 18 -4 18 -2 18 C-2 18.66 -2 19.32 -2 20 C-2.99 20.5 -2.99 20.5 -4 21 C-4.88 23.21 -4.88 23.21 -5.56 25.81 C-5.81 26.69 -6.06 27.56 -6.32 28.46 C-7.03 30.91 -7.03 30.91 -7.32 33.14 C-8.84 37.31 -14.27 39.09 -18 41 C-25.58 44.47 -32.06 47.13 -40.44 47.31 C-41.55 47.35 -42.66 47.39 -43.81 47.43 C-47.66 46.91 -49.25 45.69 -52 43 C-54.19 38.62 -53.49 33.12 -52.42 28.47 C-48.68 17.73 -39.85 9.36 -30 4 C-20.11 -0.45 -10.6 -0.46 0 0 Z " fill="#F4F4F4" transform="translate(207,405)"/>
<path d="M0 0 C-0.99 0.33 -1.98 0.66 -3 1 C-1.08 10.4 0.87 19.8 3.12 29.12 C3.36 30.14 3.36 30.14 3.6 31.19 C4.01 32.81 4.49 34.41 5 36 C5.99 36.5 5.99 36.5 7 37 C7 37.66 7 38.32 7 39 C4.73 39.53 2.46 40.05 0.19 40.56 C-1.08 40.85 -2.34 41.14 -3.64 41.44 C-7 42 -7 42 -10 41 C-9.01 40.67 -8.02 40.34 -7 40 C-7.5 36.04 -7.5 36.04 -8 32 C-20.45 33.56 -20.45 33.56 -30.52 39.97 C-31.78 41.94 -32.93 43.92 -34 46 C-33.34 46.33 -32.68 46.66 -32 47 C-36.8 49.24 -41.83 50.06 -47 51 C-47 50.34 -47 49.68 -47 49 C-45.84 47.87 -44.69 46.74 -43.52 45.62 C-40.42 42.32 -37.99 38.48 -35.44 34.75 C-34.21 32.96 -32.97 31.17 -31.74 29.39 C-30.81 28.04 -30.81 28.04 -29.86 26.67 C-28.08 24.11 -26.26 21.59 -24.42 19.08 C-23.86 18.32 -23.31 17.56 -22.73 16.77 C-21.68 15.33 -20.63 13.9 -19.56 12.47 C-16.13 7.75 -16.13 7.75 -16 2 C-14.09 1.47 -12.17 0.95 -10.25 0.44 C-9.18 0.15 -8.12 -0.14 -7.02 -0.44 C-4.16 -0.97 -2.68 -0.98 0 0 Z " fill="#F7F7F7" transform="translate(248,394)"/>
<path d="M0 0 C0.77 -0.01 1.53 -0.03 2.32 -0.04 C4.31 0.19 4.31 0.19 6.31 2.19 C5.96 8.3 4.5 13.06 0.06 17.38 C-5.93 21.32 -11.99 22.86 -18.94 24.19 C-25.26 25.45 -31.47 26.83 -37.66 28.67 C-39.69 29.19 -39.69 29.19 -42.69 29.19 C-41.96 24.56 -41.08 19.99 -40 15.44 C-39.8 14.43 -39.8 14.43 -39.59 13.4 C-39.11 11.45 -39.11 11.45 -37.69 8.19 C-35.23 6.89 -35.23 6.89 -31.69 6.19 C-29.95 5.77 -28.21 5.35 -26.46 4.93 C-24.52 4.49 -22.57 4.06 -20.62 3.62 C-19.64 3.4 -18.66 3.18 -17.65 2.96 C-4.68 0.04 -4.68 0.04 0 0 Z " fill="#050505" transform="translate(348.6875,286.8125)"/>
<path d="M0 0 C0.6 0.47 1.2 0.95 1.81 1.44 C2.56 1.93 3.3 2.43 4.06 2.94 C4.64 3.43 5.22 3.93 5.81 4.44 C5.81 5.1 5.81 5.76 5.81 6.44 C4.68 7.03 3.54 7.63 2.37 8.24 C-16.92 18.51 -32.84 31.14 -45.19 49.44 C-46.18 49.11 -47.17 48.78 -48.19 48.44 C-43.62 39.32 -38.96 31.14 -32.19 23.44 C-31.52 22.62 -30.86 21.8 -30.18 20.96 C-25.28 15.12 -8.58 -2.21 0 0 Z " fill="#F3F3F3" transform="translate(267.1875,239.5625)"/>
<path d="M0 0 C1 3 1 3 0.06 5.19 C-0.29 5.79 -0.64 6.38 -1 7 C1.37 6.96 1.37 6.96 4 6 C6.26 3.02 6.26 3.02 8 0 C8.33 0 8.66 0 9 0 C9.37 1.56 9.72 3.12 10.06 4.69 C10.36 5.99 10.36 5.99 10.66 7.32 C11.03 10.21 10.83 12.22 10 15 C9.34 15.66 8.68 16.32 8 17 C8.66 17.33 9.32 17.66 10 18 C10 18.66 10 19.32 10 20 C8.77 20.26 7.54 20.51 6.27 20.78 C-4.39 22.83 -4.39 22.83 -12.12 29.81 C-13.3 32.08 -13.3 32.08 -14 34 C-13.34 34.33 -12.68 34.66 -12 35 C-16.8 37.24 -21.83 38.06 -27 39 C-27 38.34 -27 37.68 -27 37 C-25.85 35.88 -24.7 34.75 -23.54 33.64 C-20.34 30.23 -17.83 26.28 -15.19 22.44 C-14.57 21.55 -13.96 20.67 -13.33 19.75 C-8.81 13.22 -4.35 6.65 0 0 Z " fill="#F3F3F3" transform="translate(228,406)"/>
<path d="M0 0 C-0.46 0.7 -0.92 1.41 -1.39 2.14 C-3.03 5.05 -3.9 7.6 -4.75 10.82 C-5.05 11.94 -5.35 13.05 -5.65 14.19 C-5.95 15.35 -6.25 16.5 -6.56 17.69 C-6.87 18.82 -7.17 19.95 -7.48 21.12 C-10.67 31.91 -10.67 31.91 -12 43 C-16.62 43.99 -21.24 44.98 -26 46 C-26 45.34 -26 44.68 -26 44 C-25.01 43.5 -25.01 43.5 -24 43 C-23.15 40.75 -22.43 38.55 -21.75 36.25 C-21.43 35.21 -21.43 35.21 -21.11 34.14 C-20.4 31.76 -19.7 29.38 -19 27 C-18.6 25.65 -18.6 25.65 -18.18 24.27 C-17.34 21.45 -16.51 18.63 -15.69 15.81 C-15.42 14.92 -15.15 14.02 -14.88 13.1 C-14.63 12.25 -14.39 11.4 -14.14 10.52 C-13.92 9.77 -13.7 9.02 -13.47 8.24 C-12.95 5.77 -12.92 3.51 -13 1 C-11.4 0.64 -9.79 0.28 -8.19 -0.06 C-7.29 -0.26 -6.4 -0.46 -5.48 -0.66 C-3 -1 -3 -1 0 0 Z " fill="#F4F4F4" transform="translate(348,371)"/>
<path d="M0 0 C0.1 0.63 0.2 1.25 0.3 1.9 C3.58 21.88 9.57 40.16 19.18 58.02 C19.45 58.68 19.72 59.33 20 60 C19.67 60.66 19.34 61.32 19 62 C9.87 50.24 3.12 36.72 -2.06 22.81 C-2.49 21.67 -2.49 21.67 -2.93 20.49 C-4.65 15.65 -5.53 11.12 -6 6 C-5.34 6 -4.68 6 -4 6 C-3.88 5.2 -3.75 4.39 -3.62 3.56 C-3.42 2.72 -3.21 1.87 -3 1 C-1 0 -1 0 0 0 Z " fill="#EDEDEE" transform="translate(109,83)"/>
<path d="M0 0 C0.33 0 0.66 0 1 0 C1.34 1.58 1.67 3.17 2 4.75 C2.19 5.63 2.37 6.51 2.56 7.42 C3 10 3 10 3 14 C-3.93 15.49 -3.93 15.49 -11 17 C-7.76 11.05 -4.13 5.38 0 0 Z " fill="#131313" transform="translate(236,406)"/>
<path d="M0 0 C0 3.98 -1.53 4.91 -4 8 C-7.88 14.2 -9.44 20.92 -11 28 C-13.06 26.38 -13.06 26.38 -15 24 C-14.85 15.76 -8.66 8.42 -3.06 2.81 C-2.05 1.86 -1.04 0.92 0 0 Z " fill="#E3E3E3" transform="translate(413,92)"/>
<path d="M0 0 C1.26 -0 2.53 -0.01 3.83 -0.01 C10.82 -0 17.68 0.24 24.62 1.12 C24.62 1.46 24.62 1.78 24.62 2.12 C16.03 3.1 7.52 3.28 -1.12 3.25 C-2.4 3.25 -3.67 3.26 -4.99 3.26 C-6.84 3.26 -6.84 3.26 -8.73 3.26 C-10.4 3.26 -10.4 3.26 -12.09 3.25 C-15.58 3.12 -18.93 2.67 -22.38 2.12 C-22.38 1.79 -22.38 1.47 -22.38 1.12 C-14.92 -0.06 -7.54 -0.02 0 0 Z " fill="#CCCCCC" transform="translate(248.375,157.875)"/>
<path d="M0 0 C10.23 0 20.46 0 31 0 C31 0.99 31 1.98 31 3 C9.28 3.19 9.28 3.19 0 2 C0 1.34 0 0.68 0 0 Z " fill="#DDDDDD" transform="translate(134,41)"/>
<path d="M0 0 C0.36 1.75 0.72 3.5 1.06 5.25 C1.26 6.22 1.46 7.2 1.66 8.2 C1.98 10.87 1.86 12.49 1 15 C0.34 14.34 -0.32 13.68 -1 13 C-3.11 13.32 -3.11 13.32 -5 14 C-5.33 11.36 -5.66 8.72 -6 6 C-5.34 6 -4.68 6 -4 6 C-3.88 5.2 -3.75 4.39 -3.62 3.56 C-3.42 2.72 -3.21 1.87 -3 1 C-1 0 -1 0 0 0 Z " fill="#E3E3E3" transform="translate(109,83)"/>
<path d="M0 0 C1.44 0.28 2.88 0.58 4.31 0.88 C5.11 1.04 5.91 1.2 6.74 1.37 C9 2 9 2 12 4 C11.34 4 10.68 4 10 4 C10.48 4.54 10.96 5.09 11.46 5.64 C12.09 6.36 12.72 7.08 13.38 7.81 C14 8.52 14.63 9.23 15.27 9.96 C17 12 17 12 19 15 C16 15 16 15 13.48 12.73 C12.52 11.75 11.57 10.75 10.62 9.75 C7.26 6.23 3.88 2.96 0 0 Z " fill="#1D1D1D" transform="translate(342,156)"/>
<path d="M0 0 C-0.66 0.66 -1.32 1.32 -2 2 C-0.68 2.66 0.64 3.32 2 4 C-7.41 4.99 -7.41 4.99 -17 6 C-14.17 3.17 -12.65 2.2 -9.06 0.75 C-8.21 0.39 -7.35 0.04 -6.47 -0.33 C-3.83 -1.05 -2.54 -0.92 0 0 Z " fill="#E7E7E7" transform="translate(124,31)"/>
<path d="M0 0 C3.15 1.26 4.85 3.43 7.19 5.88 C9.49 7.92 11.83 9.9 14.19 11.88 C13.53 12.53 12.87 13.19 12.19 13.88 C11.45 13.27 10.72 12.67 9.96 12.05 C8.98 11.25 8.01 10.45 7 9.62 C6.04 8.84 5.07 8.05 4.08 7.23 C1.46 5.1 -1.17 2.98 -3.81 0.88 C-1.81 -0.12 -1.81 -0.12 0 0 Z " fill="#E6E6E6" transform="translate(349.8125,65.125)"/>
<path d="M0 0 C2.64 0.33 5.28 0.66 8 1 C8 3 8 5 8 7 C4.37 6.67 0.74 6.34 -3 6 C-1.68 4.68 -0.36 3.36 1 2 C0.67 1.34 0.34 0.68 0 0 Z " fill="#DADADA" transform="translate(287,161)"/>
<path d="M0 0 C1 3 1 3 0 5.04 C-0.47 5.75 -0.95 6.46 -1.44 7.19 C-1.91 7.9 -2.38 8.62 -2.87 9.36 C-3.43 10.17 -3.43 10.17 -4 11 C-3.01 11 -2.02 11 -1 11 C-1 11.99 -1 12.98 -1 14 C-4.3 14.66 -7.6 15.32 -11 16 C-11 15.34 -11 14.68 -11 14 C-9.84 12.88 -8.68 11.75 -7.51 10.64 C-4.56 7.44 -2.33 3.67 0 0 Z " fill="#E1E1E1" transform="translate(212,429)"/>
<path d="M0 0 C0.33 0 0.66 0 1 0 C1 3.3 1 6.6 1 10 C1.66 10 2.32 10 3 10 C3.33 8.68 3.66 7.36 4 6 C5.07 8.73 5.08 9.79 4 12.58 C3.53 13.46 3.05 14.34 2.56 15.25 C2.09 16.14 1.62 17.03 1.13 17.95 C0.76 18.63 0.38 19.3 0 20 C-0.33 20 -0.66 20 -1 20 C-0.67 13.4 -0.34 6.8 0 0 Z " fill="#323232" transform="translate(394,132)"/>
<path d="M0 0 C1.18 0.01 1.18 0.01 2.39 0.01 C4.32 0.03 6.25 0.04 8.19 0.06 C7.2 1.71 6.21 3.36 5.19 5.06 C4.53 4.73 3.87 4.4 3.19 4.06 C3.19 3.4 3.19 2.74 3.19 2.06 C-2.42 2.06 -8.03 2.06 -13.81 2.06 C-13.81 1.73 -13.81 1.4 -13.81 1.06 C-9.19 -0.11 -4.73 -0.05 0 0 Z " fill="#DEDEDF" transform="translate(198.8125,404.9375)"/>
<path d="M0 0 C0.33 0.99 0.66 1.98 1 3 C2.65 3 4.3 3 6 3 C6 3.33 6 3.66 6 4 C-3.98 5.33 -13.96 5.1 -24 5 C-24 4.67 -24 4.34 -24 4 C-22.85 3.96 -21.71 3.93 -20.53 3.89 C-19 3.82 -17.47 3.75 -15.94 3.69 C-15.19 3.66 -14.43 3.64 -13.66 3.62 C-8.45 3.37 -4.68 2.32 0 0 Z " fill="#E0E0E1" transform="translate(263,147)"/>
<path d="M0 0 C2.93 2.85 5.64 5.65 8 9 C7.67 9.66 7.34 10.32 7 11 C3.37 8.36 -0.26 5.72 -4 3 C-3 1 -3 1 0 0 Z " fill="#E1E1E1" transform="translate(381,169)"/>
<path d="M0 0 C0.99 0 1.98 0 3 0 C3.33 2.64 3.66 5.28 4 8 C4.66 7.67 5.32 7.34 6 7 C5.67 8.65 5.34 10.3 5 12 C5.66 12.33 6.32 12.66 7 13 C6.01 13 5.02 13 4 13 C1.05 8.39 -0.55 5.63 0 0 Z " fill="#EBEBEB" transform="translate(184,178)"/>
<path d="M0 0 C5.94 0 11.88 0 18 0 C17.34 1.65 16.68 3.3 16 5 C15.67 4.01 15.34 3.02 15 2 C14.17 2.02 13.34 2.05 12.48 2.07 C10.85 2.1 10.85 2.1 9.19 2.12 C8.11 2.15 7.03 2.17 5.92 2.2 C3 2 3 2 0 0 Z " fill="#C7C7C8" transform="translate(440,347)"/>
<path d="M0 0 C1.45 2.9 0.45 4.56 -0.44 7.62 C-0.72 8.63 -1.01 9.63 -1.31 10.66 C-1.65 11.82 -1.65 11.82 -2 13 C-3.65 12.01 -5.3 11.02 -7 10 C-6.02 8.52 -5.04 7.04 -4.06 5.56 C-3.52 4.74 -2.97 3.92 -2.41 3.07 C-1 1 -1 1 0 0 Z " fill="#202021" transform="translate(310,392)"/>
<path d="M0 0 C0.33 0.66 0.66 1.32 1 2 C-0.41 2.51 -1.83 3.01 -3.25 3.5 C-4.43 3.92 -4.43 3.92 -5.64 4.34 C-8 5 -8 5 -12 5 C-12 3 -12 3 -10.5 1.38 C-6.88 -0.62 -4.1 -0.21 0 0 Z " fill="#DDDDDD" transform="translate(282,363)"/>
<path d="M0 0 C4.86 2.5 8.28 6.09 12 10 C11.34 10.66 10.68 11.32 10 12 C9.45 11.43 8.89 10.87 8.32 10.29 C7.6 9.55 6.87 8.82 6.12 8.06 C5.41 7.33 4.69 6.6 3.95 5.85 C2.13 3.94 2.13 3.94 0 3 C0 2.01 0 1.02 0 0 Z " fill="#E7E7E7" transform="translate(217,134)"/>
<path d="M0 0 C5.61 0 11.22 0 17 0 C17 0.33 17 0.66 17 1 C15.02 1.33 13.04 1.66 11 2 C11 2.66 11 3.32 11 4 C9.54 3.72 8.08 3.42 6.62 3.12 C5.81 2.96 5 2.8 4.16 2.63 C2 2 2 2 0 0 Z " fill="#181819" transform="translate(287,103)"/>
<path d="M0 0 C2 3 2 3 1.62 5.69 C1.42 6.45 1.21 7.21 1 8 C2.65 8 4.3 8 6 8 C5.67 8.66 5.34 9.32 5 10 C2.93 10.41 2.93 10.41 0.44 10.62 C-0.8 10.74 -0.8 10.74 -2.07 10.85 C-3.02 10.93 -3.02 10.93 -4 11 C-3.53 10.11 -3.05 9.23 -2.56 8.31 C-1.2 5.43 -0.46 3.12 0 0 Z " fill="#DDDDDD" transform="translate(305,410)"/>
<path d="M0 0 C0.33 1.32 0.66 2.64 1 4 C-0.32 4 -1.64 4 -3 4 C-3.33 4.99 -3.66 5.98 -4 7 C-8.75 6.25 -8.75 6.25 -11 4 C-10 3 -10 3 -7.71 2.9 C-6.34 2.92 -6.34 2.92 -4.94 2.94 C-4.02 2.95 -3.1 2.96 -2.15 2.96 C-1.44 2.98 -0.73 2.99 0 3 C0 2.01 0 1.02 0 0 Z " fill="#232323" transform="translate(423,194)"/>
<path d="M0 0 C3.78 1.09 6.47 1.91 9 5 C7 6 7 6 5.06 5.44 C4.04 5.22 4.04 5.22 3 5 C1.51 5.99 1.51 5.99 0 7 C0 4.69 0 2.38 0 0 Z " fill="#E4E5E5" transform="translate(208,129)"/>
<path d="M0 0 C-1 3 -1 3 -4 5 C-4.99 6.49 -4.99 6.49 -6 8 C-6 7.01 -6 6.02 -6 5 C-7.32 4.67 -8.64 4.34 -10 4 C-9.67 3.34 -9.34 2.68 -9 2 C-2.89 0 -2.89 0 0 0 Z " fill="#D5D5D5" transform="translate(480,243)"/>
<path d="M0 0 C3.22 1.41 5.32 3.1 7.75 5.62 C8.67 6.57 8.67 6.57 9.61 7.54 C10.3 8.26 10.3 8.26 11 9 C10.34 9.66 9.68 10.32 9 11 C7.49 9.55 6 8.09 4.5 6.62 C3.25 5.41 3.25 5.41 1.97 4.16 C0 2 0 2 0 0 Z " fill="#E5E5E5" transform="translate(161,62)"/>
<path d="M0 0 C0.66 0.33 1.32 0.66 2 1 C1.67 5.62 1.34 10.24 1 15 C-1 13 -1 13 -1.23 10.21 C-1.22 9.13 -1.2 8.05 -1.19 6.94 C-1.18 5.85 -1.17 4.77 -1.17 3.65 C-1 1 -1 1 0 0 Z " fill="#C7C7C7" transform="translate(180,135)"/>
<path d="M0 0 C1.32 0 2.64 0 4 0 C6.25 3 6.25 3 8 6 C7.67 6.66 7.34 7.32 7 8 C4.03 6.02 1.06 4.04 -2 2 C-1.34 1.34 -0.68 0.68 0 0 Z " fill="#DADADB" transform="translate(171,75)"/>
<path d="M0 0 C0.66 0 1.32 0 2 0 C2.66 2.64 3.32 5.28 4 8 C1.03 7.5 1.03 7.5 -2 7 C-1.34 4.69 -0.68 2.38 0 0 Z " fill="#29292A" transform="translate(277,401)"/>
<path d="M0 0 C-1.65 1.98 -3.3 3.96 -5 6 C-7 3 -7 3 -7 1 C-7.99 0.67 -8.98 0.34 -10 0 C-6.34 -0.75 -3.58 -1.24 0 0 Z " fill="#E2E2E3" transform="translate(89,335)"/>
<path d="M0 0 C0 0.66 0 1.32 0 2 C-3.31 3.62 -3.31 3.62 -7 5 C-7.99 4.34 -8.98 3.68 -10 3 C-10 2.34 -10 1.68 -10 1 C-6.56 0.38 -3.51 0 0 0 Z " fill="#FCFCFC" transform="translate(217,162)"/>
<path d="M0 0 C0.99 0.33 1.98 0.66 3 1 C2.52 5.31 1.25 7.17 -2 10 C-1.34 6.7 -0.68 3.4 0 0 Z " fill="#2D2D2D" transform="translate(407,168)"/>
<path d="M0 0 C2.52 3.12 4.4 6.31 6 10 C5.67 10.66 5.34 11.32 5 12 C3.96 10.76 2.95 9.51 1.94 8.25 C1.08 7.21 1.08 7.21 0.21 6.14 C-1 4 -1 4 -0.68 1.73 C-0.46 1.16 -0.23 0.59 0 0 Z " fill="#D2D2D3" transform="translate(123,133)"/>
<path d="M0 0 C0.99 0.33 1.98 0.66 3 1 C3 1.99 3 2.98 3 4 C0.62 5.75 0.62 5.75 -2 7 C-2.66 6.67 -3.32 6.34 -4 6 C-2.68 4.02 -1.36 2.04 0 0 Z " fill="#EBEBEB" transform="translate(244,136)"/>
<path d="M0 0 C4.46 0.99 4.46 0.99 9 2 C8.01 2.33 7.02 2.66 6 3 C5.67 3.66 5.34 4.32 5 5 C3.68 4.67 2.36 4.34 1 4 C0.67 2.68 0.34 1.36 0 0 Z " fill="#DDDDDE" transform="translate(240,127)"/>
<path d="M0 0 C4.42 1.35 6.34 3.26 9 7 C4.68 7 3.07 4.87 0 2 C0 1.34 0 0.68 0 0 Z " fill="#E7E7E7" transform="translate(360,110)"/>
<path d="M0 0 C0.33 0 0.66 0 1 0 C1 7.59 1 15.18 1 23 C0.67 23 0.34 23 0 23 C0 15.41 0 7.82 0 0 Z " fill="#000000" transform="translate(80,52)"/>
<path d="M0 0 C0.99 0 1.98 0 3 0 C3 0.99 3 1.98 3 3 C4.32 3.33 5.64 3.66 7 4 C3.7 4.66 0.4 5.32 -3 6 C-3 5.34 -3 4.68 -3 4 C-2.34 3.67 -1.68 3.34 -1 3 C-0.67 2.01 -0.34 1.02 0 0 Z " fill="#CDCDCD" transform="translate(325,411)"/>
<path d="M0 0 C1.32 0.66 2.64 1.32 4 2 C3.01 2.33 2.02 2.66 1 3 C1.33 4.32 1.66 5.64 2 7 C0.68 7.99 -0.64 8.98 -2 10 C-1.34 6.7 -0.68 3.4 0 0 Z " fill="#DDDDDD" transform="translate(432,369)"/>
<path d="M0 0 C2.64 0 5.28 0 8 0 C8 0.33 8 0.66 8 1 C6.35 1.33 4.7 1.66 3 2 C3.66 2.66 4.32 3.32 5 4 C2.69 4.33 0.38 4.66 -2 5 C-1.34 4.67 -0.68 4.34 0 4 C0 2.68 0 1.36 0 0 Z " fill="#DCDCDC" transform="translate(276,160)"/>
<path d="M0 0 C3.59 1.33 6.75 2.96 10 5 C8 6 8 6 5.84 5.44 C5.02 5.15 4.21 4.86 3.38 4.56 C2.56 4.28 1.74 3.99 0.9 3.69 C0.27 3.46 -0.35 3.24 -1 3 C-0.67 2.01 -0.34 1.02 0 0 Z " fill="#CBCBCB" transform="translate(337,105)"/>
<path d="M0 0 C-1.32 0.33 -2.64 0.66 -4 1 C-4.33 2.98 -4.66 4.96 -5 7 C-5.66 7 -6.32 7 -7 7 C-7 4.69 -7 2.38 -7 0 C-3.87 -1.04 -3.01 -0.93 0 0 Z " fill="#D9D9D9" transform="translate(400,359)"/>
<path d="M0 0 C0 0.99 0 1.98 0 3 C-0.87 3.14 -1.73 3.29 -2.62 3.44 C-4.3 3.72 -4.3 3.72 -6 4 C-8 4.33 -10 4.67 -12 5 C-9.93 2.93 -8.69 2.36 -6 1.38 C-5.3 1.11 -4.6 0.85 -3.88 0.59 C-2 0 -2 0 0 0 Z " fill="#DADADA" transform="translate(524,232)"/>
<path d="M0 0 C0 3.94 -1.46 5.09 -4 8 C-4.66 8.66 -5.32 9.32 -6 10 C-6.66 10 -7.32 10 -8 10 C-6.35 5.71 -3.26 3.12 0 0 Z " fill="#C3C3C4" transform="translate(413,92)"/>
<path d="M0 0 C0.66 0 1.32 0 2 0 C2 0.99 2 1.98 2 3 C3.32 3.66 4.64 4.32 6 5 C5.2 5.12 4.39 5.25 3.56 5.38 C2.29 5.68 2.29 5.68 1 6 C0.67 6.66 0.34 7.32 0 8 C-0.66 8 -1.32 8 -2 8 C-1.34 5.36 -0.68 2.72 0 0 Z " fill="#CECECE" transform="translate(180,429)"/>
<path d="M0 0 C0.33 0 0.66 0 1 0 C1.19 1.21 1.19 1.21 1.38 2.44 C1.58 3.28 1.79 4.13 2 5 C2.66 5.33 3.32 5.66 4 6 C4 6.66 4 7.32 4 8 C2.02 8 0.04 8 -2 8 C-1.34 5.36 -0.68 2.72 0 0 Z " fill="#D5D5D5" transform="translate(251,425)"/>
<path d="M0 0 C0.66 0.99 1.32 1.98 2 3 C2.99 3.66 3.98 4.32 5 5 C2.09 6.26 0.2 7 -3 7 C-3 6.34 -3 5.68 -3 5 C-2.34 4.67 -1.68 4.34 -1 4 C-0.35 1.98 -0.35 1.98 0 0 Z " fill="#DCDCDC" transform="translate(334,347)"/>
<path d="M0 0 C3.3 0 6.6 0 10 0 C10 0.66 10 1.32 10 2 C5.95 3.16 3.78 2.84 0 1 C0 0.67 0 0.34 0 0 Z " fill="#131313" transform="translate(252,40)"/>
<path d="M0 0 C3 1 3 1 5 3 C1.7 3.33 -1.6 3.66 -5 4 C-2 1 -2 1 0 0 Z " fill="#C9C9C9" transform="translate(112,33)"/>
<path d="M0 0 C5.94 0 11.88 0 18 0 C18 0.33 18 0.66 18 1 C12.06 1 6.12 1 0 1 C0 0.67 0 0.34 0 0 Z " fill="#000000" transform="translate(94,421)"/>
<path d="M0 0 C0.99 0 1.98 0 3 0 C3 1.98 3 3.96 3 6 C2.01 6 1.02 6 0 6 C0 4.02 0 2.04 0 0 Z " fill="#D4D4D4" transform="translate(184,178)"/>
<path d="M0 0 C-1.65 1.32 -3.3 2.64 -5 4 C-5.66 2.68 -6.32 1.36 -7 0 C-2.25 -1.12 -2.25 -1.12 0 0 Z " fill="#E4E4E4" transform="translate(239,396)"/>
<path d="M0 0 C3.38 1.19 5.65 2.28 8 5 C7.01 5.33 6.02 5.66 5 6 C5 5.34 5 4.68 5 4 C4.01 4.33 3.02 4.66 2 5 C1.34 3.35 0.68 1.7 0 0 Z " fill="#DCDCDC" transform="translate(81,231)"/>
<path d="M0 0 C0.66 0.33 1.32 0.66 2 1 C-0.12 4.18 -1.63 5.32 -5 7 C-5.66 6.67 -6.32 6.34 -7 6 C-4.69 4.02 -2.38 2.04 0 0 Z " fill="#D8D8D8" transform="translate(155,128)"/>
<path d="M0 0 C4.29 0 8.58 0 13 0 C13 0.33 13 0.66 13 1 C8.71 1 4.42 1 0 1 C0 0.67 0 0.34 0 0 Z " fill="#000000" transform="translate(155,9)"/>
<path d="M0 0 C0.33 0 0.66 0 1 0 C1 3.63 1 7.26 1 11 C0.67 11 0.34 11 0 11 C0 7.37 0 3.74 0 0 Z " fill="#000000" transform="translate(569,268)"/>
<path d="M0 0 C0.33 0 0.66 0 1 0 C1 3.63 1 7.26 1 11 C0.67 11 0.34 11 0 11 C0 7.37 0 3.74 0 0 Z " fill="#000000" transform="translate(86,105)"/>
<path d="M0 0 C0.33 0 0.66 0 1 0 C1 3.63 1 7.26 1 11 C0.67 11 0.34 11 0 11 C0 7.37 0 3.74 0 0 Z " fill="#000000" transform="translate(483,103)"/>
<path d="M0 0 C0.33 0 0.66 0 1 0 C1 3.3 1 6.6 1 10 C0.67 10 0.34 10 0 10 C0 6.7 0 3.4 0 0 Z " fill="#000000" transform="translate(483,62)"/>
<path d="M0 0 C0.33 0 0.66 0 1 0 C1 2.31 1 4.62 1 7 C0.34 6.67 -0.32 6.34 -1 6 C-0.67 4.02 -0.34 2.04 0 0 Z " fill="#000000" transform="translate(101,308)"/>
<path d="M0 0 C2.64 0 5.28 0 8 0 C8 0.33 8 0.66 8 1 C5.36 1 2.72 1 0 1 C0 0.67 0 0.34 0 0 Z " fill="#000000" transform="translate(533,213)"/>
<path d="M0 0 C0.33 0 0.66 0 1 0 C1 2.64 1 5.28 1 8 C0.67 8 0.34 8 0 8 C0 5.36 0 2.72 0 0 Z " fill="#000000" transform="translate(87,120)"/>
<path d="M0 0 C0.33 0 0.66 0 1 0 C1 2.31 1 4.62 1 7 C0.67 7 0.34 7 0 7 C0 4.69 0 2.38 0 0 Z " fill="#000000" transform="translate(81,279)"/>
<path d="M0 0 C0.66 0.99 1.32 1.98 2 3 C1.67 3.66 1.34 4.32 1 5 C0.34 4.01 -0.32 3.02 -1 2 C-0.67 1.34 -0.34 0.68 0 0 Z " fill="#000000" transform="translate(115,238)"/>
<path d="M0 0 C2.31 0 4.62 0 7 0 C7 0.33 7 0.66 7 1 C4.69 1 2.38 1 0 1 C0 0.67 0 0.34 0 0 Z " fill="#000000" transform="translate(547,213)"/>
<path d="M0 0 C0.33 0 0.66 0 1 0 C1 2.31 1 4.62 1 7 C0.67 7 0.34 7 0 7 C0 4.69 0 2.38 0 0 Z " fill="#000000" transform="translate(481,128)"/>
<path d="M0 0 C2.31 0 4.62 0 7 0 C7 0.33 7 0.66 7 1 C4.69 1 2.38 1 0 1 C0 0.67 0 0.34 0 0 Z " fill="#000000" transform="translate(175,9)"/>
<path d="M0 0 C2.31 0 4.62 0 7 0 C7 0.33 7 0.66 7 1 C4.69 1 2.38 1 0 1 C0 0.67 0 0.34 0 0 Z " fill="#000000" transform="translate(331,0)"/>
<path d="M0 0 C2.31 0 4.62 0 7 0 C7 0.33 7 0.66 7 1 C4.69 1 2.38 1 0 1 C0 0.67 0 0.34 0 0 Z " fill="#000000" transform="translate(232,0)"/>
<path d="M0 0 C1.98 0 3.96 0 6 0 C6 0.33 6 0.66 6 1 C4.02 1 2.04 1 0 1 C0 0.67 0 0.34 0 0 Z " fill="#000000" transform="translate(561,213)"/>
<path d="M0 0 C1.98 0 3.96 0 6 0 C6 0.33 6 0.66 6 1 C4.02 1 2.04 1 0 1 C0 0.67 0 0.34 0 0 Z " fill="#000000" transform="translate(576,211)"/>
<path d="M0 0 C0.33 0 0.66 0 1 0 C1 1.98 1 3.96 1 6 C0.67 6 0.34 6 0 6 C0 4.02 0 2.04 0 0 Z " fill="#000000" transform="translate(88,131)"/>
<path d="M0 0 C0.33 0 0.66 0 1 0 C1 1.98 1 3.96 1 6 C0.67 6 0.34 6 0 6 C0 4.02 0 2.04 0 0 Z " fill="#000000" transform="translate(482,120)"/>
<path d="M0 0 C1.98 0 3.96 0 6 0 C6 0.33 6 0.66 6 1 C4.02 1 2.04 1 0 1 C0 0.67 0 0.34 0 0 Z " fill="#000000" transform="translate(348,2)"/>
<path d="M0 0 C1.98 0 3.96 0 6 0 C6 0.33 6 0.66 6 1 C4.02 1 2.04 1 0 1 C0 0.67 0 0.34 0 0 Z " fill="#000000" transform="translate(216,2)"/>
<path d="M0 0 C1.98 0 3.96 0 6 0 C6 0.33 6 0.66 6 1 C4.02 1 2.04 1 0 1 C0 0.67 0 0.34 0 0 Z " fill="#000000" transform="translate(224,1)"/>
<path d="M0 0 C1.65 0 3.3 0 5 0 C5 0.33 5 0.66 5 1 C3.35 1 1.7 1 0 1 C0 0.67 0 0.34 0 0 Z " fill="#000000" transform="translate(421,409)"/>
<path d="M0 0 C1.65 0 3.3 0 5 0 C5 0.33 5 0.66 5 1 C3.35 1 1.7 1 0 1 C0 0.67 0 0.34 0 0 Z " fill="#000000" transform="translate(499,331)"/>
<path d="M0 0 C1.65 0 3.3 0 5 0 C5 0.33 5 0.66 5 1 C3.35 1 1.7 1 0 1 C0 0.67 0 0.34 0 0 Z " fill="#000000" transform="translate(480,331)"/>
<path d="M0 0 C0.33 0 0.66 0 1 0 C1 1.65 1 3.3 1 5 C0.67 5 0.34 5 0 5 C0 3.35 0 1.7 0 0 Z " fill="#000000" transform="translate(80,271)"/>
<path d="M0 0 C1.65 0 3.3 0 5 0 C5 0.33 5 0.66 5 1 C3.35 1 1.7 1 0 1 C0 0.67 0 0.34 0 0 Z " fill="#000000" transform="translate(569,212)"/>
<path d="M0 0 C1.65 0 3.3 0 5 0 C5 0.33 5 0.66 5 1 C3.35 1 1.7 1 0 1 C0 0.67 0 0.34 0 0 Z " fill="#000000" transform="translate(583,210)"/>
<path d="M0 0 C0.33 0 0.66 0 1 0 C1 1.65 1 3.3 1 5 C0.67 5 0.34 5 0 5 C0 3.35 0 1.7 0 0 Z " fill="#000000" transform="translate(92,159)"/>
<path d="M0 0 C0.33 0 0.66 0 1 0 C1 1.65 1 3.3 1 5 C0.67 5 0.34 5 0 5 C0 3.35 0 1.7 0 0 Z " fill="#000000" transform="translate(90,146)"/>
<path d="M0 0 C0.33 0 0.66 0 1 0 C1 1.65 1 3.3 1 5 C0.67 5 0.34 5 0 5 C0 3.35 0 1.7 0 0 Z " fill="#000000" transform="translate(479,145)"/>
<path d="M0 0 C0.33 0 0.66 0 1 0 C1 1.65 1 3.3 1 5 C0.67 5 0.34 5 0 5 C0 3.35 0 1.7 0 0 Z " fill="#000000" transform="translate(480,138)"/>
<path d="M0 0 C0.33 0 0.66 0 1 0 C1 1.65 1 3.3 1 5 C0.67 5 0.34 5 0 5 C0 3.35 0 1.7 0 0 Z " fill="#000000" transform="translate(81,77)"/>
<path d="M0 0 C0.33 0 0.66 0 1 0 C1 1.65 1 3.3 1 5 C0.67 5 0.34 5 0 5 C0 3.35 0 1.7 0 0 Z " fill="#000000" transform="translate(81,44)"/>
<path d="M0 0 C1.65 0 3.3 0 5 0 C5 0.33 5 0.66 5 1 C3.35 1 1.7 1 0 1 C0 0.67 0 0.34 0 0 Z " fill="#000000" transform="translate(139,11)"/>
<path d="M0 0 C1.65 0 3.3 0 5 0 C5 0.33 5 0.66 5 1 C3.35 1 1.7 1 0 1 C0 0.67 0 0.34 0 0 Z " fill="#000000" transform="translate(340,1)"/>
<path d="M0 0 C4 1 4 1 4 1 Z " fill="#000000" transform="translate(210,458)"/>
<path d="M0 0 C1 4 1 4 1 4 Z " fill="#000000" transform="translate(138,445)"/>
<path d="M0 0 C4 1 4 1 4 1 Z " fill="#000000" transform="translate(274,443)"/>
<path d="M0 0 C4 1 4 1 4 1 Z " fill="#000000" transform="translate(287,440)"/>
<path d="M0 0 C1 4 1 4 1 4 Z " fill="#000000" transform="translate(137,439)"/>
<path d="M0 0 C4 1 4 1 4 1 Z " fill="#000000" transform="translate(32,438)"/>
<path d="M0 0 C1 4 1 4 1 4 Z " fill="#000000" transform="translate(138,433)"/>
<path d="M0 0 C4 1 4 1 4 1 Z " fill="#000000" transform="translate(317,433)"/>
<path d="M0 0 C4 1 4 1 4 1 Z " fill="#000000" transform="translate(53,433)"/>
<path d="M0 0 C4 1 4 1 4 1 Z " fill="#000000" transform="translate(351,425)"/>
<path d="M0 0 C4 1 4 1 4 1 Z " fill="#000000" transform="translate(115,420)"/>
<path d="M0 0 C4 1 4 1 4 1 Z " fill="#000000" transform="translate(88,420)"/>
<path d="M0 0 C4 1 4 1 4 1 Z " fill="#000000" transform="translate(505,330)"/>
<path d="M0 0 C4 1 4 1 4 1 Z " fill="#000000" transform="translate(469,329)"/>
<path d="M0 0 C4 1 4 1 4 1 Z " fill="#000000" transform="translate(47,326)"/>
<path d="M0 0 C4 1 4 1 4 1 Z " fill="#000000" transform="translate(69,321)"/>
<path d="M0 0 C4 1 4 1 4 1 Z " fill="#000000" transform="translate(556,214)"/>
<path d="M0 0 C4 1 4 1 4 1 Z " fill="#000000" transform="translate(592,209)"/>
<path d="M0 0 C4 1 4 1 4 1 Z " fill="#000000" transform="translate(45,203)"/>
<path d="M0 0 C1 4 1 4 1 4 Z " fill="#000000" transform="translate(475,169)"/>
<path d="M0 0 C1 4 1 4 1 4 Z " fill="#000000" transform="translate(476,164)"/>
<path d="M0 0 C1 4 1 4 1 4 Z " fill="#000000" transform="translate(478,152)"/>
<path d="M0 0 C1 4 1 4 1 4 Z " fill="#000000" transform="translate(89,139)"/>
<path d="M0 0 C1 4 1 4 1 4 Z " fill="#000000" transform="translate(82,84)"/>
<path d="M0 0 C1 4 1 4 1 4 Z " fill="#000000" transform="translate(482,54)"/>
<path d="M0 0 C1 4 1 4 1 4 Z " fill="#000000" transform="translate(82,39)"/>
<path d="M0 0 C4 1 4 1 4 1 Z " fill="#000000" transform="translate(134,12)"/>
<path d="M0 0 C4 1 4 1 4 1 Z " fill="#000000" transform="translate(146,10)"/>
<path d="M0 0 C4 1 4 1 4 1 Z " fill="#000000" transform="translate(378,7)"/>
<path d="M0 0 C4 1 4 1 4 1 Z " fill="#000000" transform="translate(188,7)"/>
<path d="M0 0 C4 1 4 1 4 1 Z " fill="#000000" transform="translate(373,6)"/>
<path d="M0 0 C4 1 4 1 4 1 Z " fill="#000000" transform="translate(193,6)"/>
<path d="M0 0 C4 1 4 1 4 1 Z " fill="#000000" transform="translate(368,5)"/>
<path d="M0 0 C4 1 4 1 4 1 Z " fill="#000000" transform="translate(198,5)"/>
<path d="M0 0 C4 1 4 1 4 1 Z " fill="#000000" transform="translate(362,4)"/>
<path d="M0 0 C4 1 4 1 4 1 Z " fill="#000000" transform="translate(204,4)"/>
<path d="M0 0 C4 1 4 1 4 1 Z " fill="#000000" transform="translate(356,3)"/>
<path d="M0 0 C4 1 4 1 4 1 Z " fill="#000000" transform="translate(210,3)"/>
<path d="M0 0 C3 1 3 1 3 1 Z " fill="#000000" transform="translate(180,465)"/>
<path d="M0 0 C3 1 3 1 3 1 Z " fill="#000000" transform="translate(184,464)"/>
<path d="M0 0 C3 1 3 1 3 1 Z " fill="#000000" transform="translate(189,463)"/>
<path d="M0 0 C3 1 3 1 3 1 Z " fill="#000000" transform="translate(193,462)"/>
<path d="M0 0 C3 1 3 1 3 1 Z " fill="#000000" transform="translate(197,461)"/>
<path d="M0 0 C3 1 3 1 3 1 Z " fill="#000000" transform="translate(202,460)"/>
<path d="M0 0 C3 1 3 1 3 1 Z " fill="#000000" transform="translate(206,459)"/>
<path d="M0 0 C3 1 3 1 3 1 Z " fill="#000000" transform="translate(219,456)"/>
<path d="M0 0 C3 1 3 1 3 1 Z " fill="#000000" transform="translate(223,455)"/>
<path d="M0 0 C3 1 3 1 3 1 Z " fill="#000000" transform="translate(227,454)"/>
<path d="M0 0 C3 1 3 1 3 1 Z " fill="#000000" transform="translate(232,453)"/>
<path d="M0 0 C3 1 3 1 3 1 Z " fill="#000000" transform="translate(236,452)"/>
<path d="M0 0 C3 1 3 1 3 1 Z " fill="#000000" transform="translate(240,451)"/>
<path d="M0 0 C3 1 3 1 3 1 Z " fill="#000000" transform="translate(249,449)"/>
<path d="M0 0 C3 1 3 1 3 1 Z " fill="#000000" transform="translate(253,448)"/>
<path d="M0 0 C3 1 3 1 3 1 Z " fill="#000000" transform="translate(257,447)"/>
<path d="M0 0 C3 1 3 1 3 1 Z " fill="#000000" transform="translate(266,445)"/>
<path d="M0 0 C3 1 3 1 3 1 Z " fill="#000000" transform="translate(4,445)"/>
<path d="M0 0 C3 1 3 1 3 1 Z " fill="#000000" transform="translate(270,444)"/>
<path d="M0 0 C3 1 3 1 3 1 Z " fill="#000000" transform="translate(12,443)"/>
<path d="M0 0 C3 1 3 1 3 1 Z " fill="#000000" transform="translate(279,442)"/>
<path d="M0 0 C3 1 3 1 3 1 Z " fill="#000000" transform="translate(16,442)"/>
<path d="M0 0 C3 1 3 1 3 1 Z " fill="#000000" transform="translate(283,441)"/>
<path d="M0 0 C3 1 3 1 3 1 Z " fill="#000000" transform="translate(20,441)"/>
<path d="M0 0 C3 1 3 1 3 1 Z " fill="#000000" transform="translate(24,440)"/>
<path d="M0 0 C3 1 3 1 3 1 Z " fill="#000000" transform="translate(292,439)"/>
<path d="M0 0 C3 1 3 1 3 1 Z " fill="#000000" transform="translate(28,439)"/>
<path d="M0 0 C3 1 3 1 3 1 Z " fill="#000000" transform="translate(296,438)"/>
<path d="M0 0 C3 1 3 1 3 1 Z " fill="#000000" transform="translate(300,437)"/>
<path d="M0 0 C3 1 3 1 3 1 Z " fill="#000000" transform="translate(37,437)"/>
<path d="M0 0 C3 1 3 1 3 1 Z " fill="#000000" transform="translate(309,435)"/>
<path d="M0 0 C3 1 3 1 3 1 Z " fill="#000000" transform="translate(45,435)"/>
<path d="M0 0 C3 1 3 1 3 1 Z " fill="#000000" transform="translate(313,434)"/>
<path d="M0 0 C3 1 3 1 3 1 Z " fill="#000000" transform="translate(49,434)"/>
<path d="M0 0 C3 1 3 1 3 1 Z " fill="#000000" transform="translate(322,432)"/>
<path d="M0 0 C3 1 3 1 3 1 Z " fill="#000000" transform="translate(58,432)"/>
<path d="M0 0 C3 1 3 1 3 1 Z " fill="#000000" transform="translate(326,431)"/>
<path d="M0 0 C3 1 3 1 3 1 Z " fill="#000000" transform="translate(62,431)"/>
<path d="M0 0 C3 1 3 1 3 1 Z " fill="#000000" transform="translate(330,430)"/>
<path d="M0 0 C3 1 3 1 3 1 Z " fill="#000000" transform="translate(67,430)"/>
<path d="M0 0 C3 1 3 1 3 1 Z " fill="#000000" transform="translate(334,429)"/>
<path d="M0 0 C3 1 3 1 3 1 Z " fill="#000000" transform="translate(71,429)"/>
<path d="M0 0 C3 1 3 1 3 1 Z " fill="#000000" transform="translate(343,427)"/>
<path d="M0 0 C3 1 3 1 3 1 Z " fill="#000000" transform="translate(347,426)"/>
<path d="M0 0 C3 1 3 1 3 1 Z " fill="#000000" transform="translate(356,424)"/>
<path d="M0 0 C3 1 3 1 3 1 Z " fill="#000000" transform="translate(360,423)"/>
<path d="M0 0 C3 1 3 1 3 1 Z " fill="#000000" transform="translate(364,422)"/>
<path d="M0 0 C3 1 3 1 3 1 Z " fill="#000000" transform="translate(369,421)"/>
<path d="M0 0 C3 1 3 1 3 1 Z " fill="#000000" transform="translate(373,420)"/>
<path d="M0 0 C3 1 3 1 3 1 Z " fill="#000000" transform="translate(377,419)"/>
<path d="M0 0 C3 1 3 1 3 1 Z " fill="#000000" transform="translate(120,419)"/>
<path d="M0 0 C3 1 3 1 3 1 Z " fill="#000000" transform="translate(83,419)"/>
<path d="M0 0 C3 1 3 1 3 1 Z " fill="#000000" transform="translate(124,418)"/>
<path d="M0 0 C3 1 3 1 3 1 Z " fill="#000000" transform="translate(386,417)"/>
<path d="M0 0 C3 1 3 1 3 1 Z " fill="#000000" transform="translate(390,416)"/>
<path d="M0 0 C3 1 3 1 3 1 Z " fill="#000000" transform="translate(394,415)"/>
<path d="M0 0 C3 1 3 1 3 1 Z " fill="#000000" transform="translate(399,414)"/>
<path d="M0 0 C3 1 3 1 3 1 Z " fill="#000000" transform="translate(411,409)"/>
<path d="M0 0 C3 1 3 1 3 1 Z " fill="#000000" transform="translate(437,405)"/>
<path d="" fill="#000000" transform="translate(0,0)"/>
<path d="" fill="#000000" transform="translate(0,0)"/>
<path d="" fill="#000000" transform="translate(0,0)"/>
<path d="" fill="#000000" transform="translate(0,0)"/>
<path d="" fill="#000000" transform="translate(0,0)"/>
<path d="" fill="#000000" transform="translate(0,0)"/>
<path d="" fill="#000000" transform="translate(0,0)"/>
<path d="" fill="#000000" transform="translate(0,0)"/>
<path d="" fill="#000000" transform="translate(0,0)"/>
<path d="" fill="#000000" transform="translate(0,0)"/>
<path d="" fill="#000000" transform="translate(0,0)"/>
<path d="" fill="#000000" transform="translate(0,0)"/>
<path d="M0 0 C3 1 3 1 3 1 Z " fill="#000000" transform="translate(463,332)"/>
<path d="M0 0 C3 1 3 1 3 1 Z " fill="#000000" transform="translate(25,331)"/>
<path d="M0 0 C3 1 3 1 3 1 Z " fill="#000000" transform="translate(475,330)"/>
<path d="M0 0 C3 1 3 1 3 1 Z " fill="#000000" transform="translate(30,330)"/>
<path d="M0 0 C3 1 3 1 3 1 Z " fill="#000000" transform="translate(510,329)"/>
<path d="M0 0 C0.33 0.66 0.66 1.32 1 2 C0.34 1.67 -0.32 1.34 -1 1 C-0.67 0.67 -0.34 0.34 0 0 Z " fill="#000000" transform="translate(459,329)"/>
<path d="M0 0 C3 1 3 1 3 1 Z " fill="#000000" transform="translate(34,329)"/>
<path d="M0 0 C3 1 3 1 3 1 Z " fill="#000000" transform="translate(514,328)"/>
<path d="M0 0 C3 1 3 1 3 1 Z " fill="#000000" transform="translate(466,328)"/>
<path d="M0 0 C3 1 3 1 3 1 Z " fill="#000000" transform="translate(39,328)"/>
<path d="M0 0 C3 1 3 1 3 1 Z " fill="#000000" transform="translate(43,327)"/>
<path d="M0 0 C3 1 3 1 3 1 Z " fill="#000000" transform="translate(523,325)"/>
<path d="M0 0 C3 1 3 1 3 1 Z " fill="#000000" transform="translate(52,325)"/>
<path d="M0 0 C3 1 3 1 3 1 Z " fill="#000000" transform="translate(56,324)"/>
<path d="M0 0 C3 1 3 1 3 1 Z " fill="#000000" transform="translate(61,323)"/>
<path d="M0 0 C3 1 3 1 3 1 Z " fill="#000000" transform="translate(65,322)"/>
<path d="M0 0 C3 1 3 1 3 1 Z " fill="#000000" transform="translate(74,320)"/>
<path d="M0 0 C3 1 3 1 3 1 Z " fill="#000000" transform="translate(78,319)"/>
<path d="M0 0 C3 1 3 1 3 1 Z " fill="#000000" transform="translate(83,318)"/>
<path d="M0 0 C3 1 3 1 3 1 Z " fill="#000000" transform="translate(87,317)"/>
<path d="M0 0 C3 1 3 1 3 1 Z " fill="#000000" transform="translate(91,316)"/>
<path d="M0 0 C3 1 3 1 3 1 Z " fill="#000000" transform="translate(96,315)"/>
<path d="" fill="#000000" transform="translate(0,0)"/>
<path d="" fill="#000000" transform="translate(0,0)"/>
<path d="" fill="#000000" transform="translate(0,0)"/>
<path d="" fill="#000000" transform="translate(0,0)"/>
<path d="M0 0 C3 1 3 1 3 1 Z " fill="#000000" transform="translate(482,226)"/>
<path d="M0 0 C3 1 3 1 3 1 Z " fill="#000000" transform="translate(486,225)"/>
<path d="M0 0 C3 1 3 1 3 1 Z " fill="#000000" transform="translate(494,223)"/>
<path d="M0 0 C3 1 3 1 3 1 Z " fill="#000000" transform="translate(520,216)"/>
<path d="M0 0 C3 1 3 1 3 1 Z " fill="#000000" transform="translate(523,215)"/>
<path d="M0 0 C3 1 3 1 3 1 Z " fill="#000000" transform="translate(528,214)"/>
<path d="" fill="#000000" transform="translate(0,0)"/>
<path d="" fill="#000000" transform="translate(0,0)"/>
<path d="M0 0 C3 1 3 1 3 1 Z " fill="#000000" transform="translate(59,206)"/>
<path d="" fill="#000000" transform="translate(0,0)"/>
<path d="M0 0 C3 1 3 1 3 1 Z " fill="#000000" transform="translate(51,204)"/>
<path d="" fill="#000000" transform="translate(0,0)"/>
<path d="" fill="#000000" transform="translate(0,0)"/>
<path d="" fill="#000000" transform="translate(0,0)"/>
<path d="" fill="#000000" transform="translate(0,0)"/>
<path d="" fill="#000000" transform="translate(0,0)"/>
<path d="" fill="#000000" transform="translate(0,0)"/>
<path d="" fill="#000000" transform="translate(0,0)"/>
<path d="" fill="#000000" transform="translate(0,0)"/>
<path d="" fill="#000000" transform="translate(0,0)"/>
<path d="" fill="#000000" transform="translate(0,0)"/>
<path d="" fill="#000000" transform="translate(0,0)"/>
<path d="" fill="#000000" transform="translate(0,0)"/>
<path d="" fill="#000000" transform="translate(0,0)"/>
<path d="" fill="#000000" transform="translate(0,0)"/>
<path d="" fill="#000000" transform="translate(0,0)"/>
<path d="" fill="#000000" transform="translate(0,0)"/>
<path d="" fill="#000000" transform="translate(0,0)"/>
<path d="M0 0 C3 1 3 1 3 1 Z " fill="#000000" transform="translate(113,18)"/>
<path d="M0 0 C3 1 3 1 3 1 Z " fill="#000000" transform="translate(414,16)"/>
<path d="M0 0 C3 1 3 1 3 1 Z " fill="#000000" transform="translate(119,16)"/>
<path d="M0 0 C3 1 3 1 3 1 Z " fill="#000000" transform="translate(411,15)"/>
<path d="M0 0 C3 1 3 1 3 1 Z " fill="#000000" transform="translate(122,15)"/>
<path d="M0 0 C3 1 3 1 3 1 Z " fill="#000000" transform="translate(126,14)"/>
<path d="M0 0 C3 1 3 1 3 1 Z " fill="#000000" transform="translate(130,13)"/>
<path d="M0 0 C3 1 3 1 3 1 Z " fill="#000000" transform="translate(400,12)"/>
<path d="M0 0 C3 1 3 1 3 1 Z " fill="#000000" transform="translate(396,11)"/>
<path d="M0 0 C3 1 3 1 3 1 Z " fill="#000000" transform="translate(392,10)"/>
<path d="M0 0 C3 1 3 1 3 1 Z " fill="#000000" transform="translate(388,9)"/>
<path d="M0 0 C3 1 3 1 3 1 Z " fill="#000000" transform="translate(383,8)"/>
<path d="M0 0 C3 1 3 1 3 1 Z " fill="#000000" transform="translate(184,8)"/>
<path d="M0 0 C2 1 2 1 2 1 Z " fill="#000000" transform="translate(153,465)"/>
<path d="M0 0 C2 1 2 1 2 1 Z " fill="#000000" transform="translate(215,457)"/>
<path d="" fill="#000000" transform="translate(0,0)"/>
<path d="" fill="#000000" transform="translate(0,0)"/>
<path d="M0 0 C2 1 2 1 2 1 Z " fill="#000000" transform="translate(245,450)"/>
<path d="M0 0 C2 1 2 1 2 1 Z " fill="#000000" transform="translate(262,446)"/>
<path d="M0 0 C2 1 2 1 2 1 Z " fill="#000000" transform="translate(0,446)"/>
<path d="M0 0 C2 1 2 1 2 1 Z " fill="#000000" transform="translate(8,444)"/>
<path d="M0 0 C2 1 2 1 2 1 Z " fill="#000000" transform="translate(41,436)"/>
<path d="" fill="#000000" transform="translate(0,0)"/>
<path d="" fill="#000000" transform="translate(0,0)"/>
<path d="M0 0 C2 1 2 1 2 1 Z " fill="#000000" transform="translate(339,428)"/>
<path d="" fill="#000000" transform="translate(0,0)"/>
<path d="M0 0 C2 1 2 1 2 1 Z " fill="#000000" transform="translate(75,428)"/>
<path d="" fill="#000000" transform="translate(0,0)"/>
<path d="" fill="#000000" transform="translate(0,0)"/>
<path d="" fill="#000000" transform="translate(0,0)"/>
<path d="" fill="#000000" transform="translate(0,0)"/>
<path d="" fill="#000000" transform="translate(0,0)"/>
<path d="M0 0 C2 1 2 1 2 1 Z " fill="#000000" transform="translate(382,418)"/>
<path d="M0 0 C2 1 2 1 2 1 Z " fill="#000000" transform="translate(128,417)"/>
<path d="M0 0 C2 1 2 1 2 1 Z " fill="#000000" transform="translate(131,416)"/>
<path d="" fill="#000000" transform="translate(0,0)"/>
<path d="M0 0 C2 1 2 1 2 1 Z " fill="#000000" transform="translate(134,415)"/>
<path d="M0 0 C2 1 2 1 2 1 Z " fill="#000000" transform="translate(136,414)"/>
<path d="M0 0 C2 1 2 1 2 1 Z " fill="#000000" transform="translate(403,413)"/>
<path d="M0 0 C2 1 2 1 2 1 Z " fill="#000000" transform="translate(141,412)"/>
<path d="M0 0 C2 1 2 1 2 1 Z " fill="#000000" transform="translate(143,411)"/>
<path d="" fill="#000000" transform="translate(0,0)"/>
<path d="" fill="#000000" transform="translate(0,0)"/>
<path d="M0 0 C2 1 2 1 2 1 Z " fill="#000000" transform="translate(428,408)"/>
<path d="M0 0 C2 1 2 1 2 1 Z " fill="#000000" transform="translate(432,407)"/>
<path d="" fill="#000000" transform="translate(0,0)"/>
<path d="M0 0 C2 1 2 1 2 1 Z " fill="#000000" transform="translate(435,406)"/>
<path d="M0 0 C2 1 2 1 2 1 Z " fill="#000000" transform="translate(440,404)"/>
<path d="M0 0 C2 1 2 1 2 1 Z " fill="#000000" transform="translate(442,403)"/>
<path d="" fill="#000000" transform="translate(0,0)"/>
<path d="" fill="#000000" transform="translate(0,0)"/>
<path d="" fill="#000000" transform="translate(0,0)"/>
<path d="" fill="#000000" transform="translate(0,0)"/>
<path d="" fill="#000000" transform="translate(0,0)"/>
<path d="" fill="#000000" transform="translate(0,0)"/>
<path d="" fill="#000000" transform="translate(0,0)"/>
<path d="" fill="#000000" transform="translate(0,0)"/>
<path d="" fill="#000000" transform="translate(0,0)"/>
<path d="" fill="#000000" transform="translate(0,0)"/>
<path d="" fill="#000000" transform="translate(0,0)"/>
<path d="" fill="#000000" transform="translate(0,0)"/>
<path d="" fill="#000000" transform="translate(0,0)"/>
<path d="" fill="#000000" transform="translate(0,0)"/>
<path d="" fill="#000000" transform="translate(0,0)"/>
<path d="" fill="#000000" transform="translate(0,0)"/>
<path d="" fill="#000000" transform="translate(0,0)"/>
<path d="M0 0 C2 1 2 1 2 1 Z " fill="#000000" transform="translate(46,349)"/>
<path d="M0 0 C2 1 2 1 2 1 Z " fill="#000000" transform="translate(44,348)"/>
<path d="M0 0 C2 1 2 1 2 1 Z " fill="#000000" transform="translate(42,347)"/>
<path d="M0 0 C2 1 2 1 2 1 Z " fill="#000000" transform="translate(40,346)"/>
<path d="M0 0 C2 1 2 1 2 1 Z " fill="#000000" transform="translate(38,345)"/>
<path d="" fill="#000000" transform="translate(0,0)"/>
<path d="M0 0 C2 1 2 1 2 1 Z " fill="#000000" transform="translate(32,342)"/>
<path d="M0 0 C2 1 2 1 2 1 Z " fill="#000000" transform="translate(30,341)"/>
<path d="" fill="#000000" transform="translate(0,0)"/>
<path d="M0 0 C2 1 2 1 2 1 Z " fill="#000000" transform="translate(475,336)"/>
<path d="M0 0 C2 1 2 1 2 1 Z " fill="#000000" transform="translate(472,335)"/>
<path d="M0 0 C2 1 2 1 2 1 Z " fill="#000000" transform="translate(469,334)"/>
<path d="M0 0 C2 1 2 1 2 1 Z " fill="#000000" transform="translate(466,333)"/>
<path d="M0 0 C2 1 2 1 2 1 Z " fill="#000000" transform="translate(22,332)"/>
<path d="M0 0 C2 1 2 1 2 1 Z " fill="#000000" transform="translate(461,331)"/>
<path d="M0 0 C2 1 2 1 2 1 Z " fill="#000000" transform="translate(518,327)"/>
<path d="M0 0 C2 1 2 1 2 1 Z " fill="#000000" transform="translate(463,327)"/>
<path d="M0 0 C2 1 2 1 2 1 Z " fill="#000000" transform="translate(521,326)"/>
<path d="M0 0 C2 1 2 1 2 1 Z " fill="#000000" transform="translate(526,324)"/>
<path d="M0 0 C2 1 2 1 2 1 Z " fill="#000000" transform="translate(528,323)"/>
<path d="M0 0 C2 1 2 1 2 1 Z " fill="#000000" transform="translate(530,322)"/>
<path d="M0 0 C2 1 2 1 2 1 Z " fill="#000000" transform="translate(532,321)"/>
<path d="M0 0 C2 1 2 1 2 1 Z " fill="#000000" transform="translate(534,320)"/>
<path d="M0 0 C2 1 2 1 2 1 Z " fill="#000000" transform="translate(536,319)"/>
<path d="" fill="#000000" transform="translate(0,0)"/>
<path d="" fill="#000000" transform="translate(0,0)"/>
<path d="" fill="#000000" transform="translate(0,0)"/>
<path d="" fill="#000000" transform="translate(0,0)"/>
<path d="" fill="#000000" transform="translate(0,0)"/>
<path d="" fill="#000000" transform="translate(0,0)"/>
<path d="" fill="#000000" transform="translate(0,0)"/>
<path d="M0 0 C2 1 2 1 2 1 Z " fill="#000000" transform="translate(84,288)"/>
<path d="" fill="#000000" transform="translate(0,0)"/>
<path d="" fill="#000000" transform="translate(0,0)"/>
<path d="" fill="#000000" transform="translate(0,0)"/>
<path d="" fill="#000000" transform="translate(0,0)"/>
<path d="" fill="#000000" transform="translate(0,0)"/>
<path d="" fill="#000000" transform="translate(0,0)"/>
<path d="" fill="#000000" transform="translate(0,0)"/>
<path d="" fill="#000000" transform="translate(0,0)"/>
<path d="" fill="#000000" transform="translate(0,0)"/>
<path d="" fill="#000000" transform="translate(0,0)"/>
<path d="" fill="#000000" transform="translate(0,0)"/>
<path d="" fill="#000000" transform="translate(0,0)"/>
<path d="" fill="#000000" transform="translate(0,0)"/>
<path d="" fill="#000000" transform="translate(0,0)"/>
<path d="" fill="#000000" transform="translate(0,0)"/>
<path d="" fill="#000000" transform="translate(0,0)"/>
<path d="" fill="#000000" transform="translate(0,0)"/>
<path d="" fill="#000000" transform="translate(0,0)"/>
<path d="" fill="#000000" transform="translate(0,0)"/>
<path d="M0 0 C2 1 2 1 2 1 Z " fill="#000000" transform="translate(491,224)"/>
<path d="" fill="#000000" transform="translate(0,0)"/>
<path d="M0 0 C2 1 2 1 2 1 Z " fill="#000000" transform="translate(504,223)"/>
<path d="" fill="#000000" transform="translate(0,0)"/>
<path d="M0 0 C2 1 2 1 2 1 Z " fill="#000000" transform="translate(506,222)"/>
<path d="" fill="#000000" transform="translate(0,0)"/>
<path d="M0 0 C2 1 2 1 2 1 Z " fill="#000000" transform="translate(510,220)"/>
<path d="" fill="#000000" transform="translate(0,0)"/>
<path d="M0 0 C2 1 2 1 2 1 Z " fill="#000000" transform="translate(512,219)"/>
<path d="M0 0 C2 1 2 1 2 1 Z " fill="#000000" transform="translate(514,218)"/>
<path d="" fill="#000000" transform="translate(0,0)"/>
<path d="M0 0 C2 1 2 1 2 1 Z " fill="#000000" transform="translate(87,218)"/>
<path d="" fill="#000000" transform="translate(0,0)"/>
<path d="M0 0 C2 1 2 1 2 1 Z " fill="#000000" transform="translate(78,213)"/>
<path d="" fill="#000000" transform="translate(0,0)"/>
<path d="M0 0 C2 1 2 1 2 1 Z " fill="#000000" transform="translate(76,212)"/>
<path d="M0 0 C2 1 2 1 2 1 Z " fill="#000000" transform="translate(74,211)"/>
<path d="" fill="#000000" transform="translate(0,0)"/>
<path d="M0 0 C2 1 2 1 2 1 Z " fill="#000000" transform="translate(69,209)"/>
<path d="M0 0 C2 1 2 1 2 1 Z " fill="#000000" transform="translate(598,208)"/>
<path d="M0 0 C2 1 2 1 2 1 Z " fill="#000000" transform="translate(66,208)"/>
<path d="M0 0 C2 1 2 1 2 1 Z " fill="#000000" transform="translate(63,207)"/>
<path d="" fill="#000000" transform="translate(0,0)"/>
<path d="M0 0 C2 1 2 1 2 1 Z " fill="#000000" transform="translate(56,205)"/>
<path d="" fill="#000000" transform="translate(0,0)"/>
<path d="" fill="#000000" transform="translate(0,0)"/>
<path d="" fill="#000000" transform="translate(0,0)"/>
<path d="" fill="#000000" transform="translate(0,0)"/>
<path d="" fill="#000000" transform="translate(0,0)"/>
<path d="" fill="#000000" transform="translate(0,0)"/>
<path d="" fill="#000000" transform="translate(0,0)"/>
<path d="" fill="#000000" transform="translate(0,0)"/>
<path d="M0 0 C2 1 2 1 2 1 Z " fill="#000000" transform="translate(475,40)"/>
<path d="M0 0 C2 1 2 1 2 1 Z " fill="#000000" transform="translate(473,39)"/>
<path d="M0 0 C2 1 2 1 2 1 Z " fill="#000000" transform="translate(471,38)"/>
<path d="" fill="#000000" transform="translate(0,0)"/>
<path d="M0 0 C2 1 2 1 2 1 Z " fill="#000000" transform="translate(460,33)"/>
<path d="M0 0 C2 1 2 1 2 1 Z " fill="#000000" transform="translate(458,32)"/>
<path d="M0 0 C2 1 2 1 2 1 Z " fill="#000000" transform="translate(456,31)"/>
<path d="M0 0 C2 1 2 1 2 1 Z " fill="#000000" transform="translate(451,29)"/>
<path d="M0 0 C2 1 2 1 2 1 Z " fill="#000000" transform="translate(449,28)"/>
<path d="M0 0 C2 1 2 1 2 1 Z " fill="#000000" transform="translate(446,27)"/>
<path d="M0 0 C2 1 2 1 2 1 Z " fill="#000000" transform="translate(444,26)"/>
<path d="M0 0 C2 1 2 1 2 1 Z " fill="#000000" transform="translate(441,25)"/>
<path d="M0 0 C2 1 2 1 2 1 Z " fill="#000000" transform="translate(436,23)"/>
<path d="M0 0 C2 1 2 1 2 1 Z " fill="#000000" transform="translate(433,22)"/>
<path d="M0 0 C2 1 2 1 2 1 Z " fill="#000000" transform="translate(104,22)"/>
<path d="M0 0 C2 1 2 1 2 1 Z " fill="#000000" transform="translate(430,21)"/>
<path d="M0 0 C2 1 2 1 2 1 Z " fill="#000000" transform="translate(106,21)"/>
<path d="M0 0 C2 1 2 1 2 1 Z " fill="#000000" transform="translate(427,20)"/>
<path d="M0 0 C2 1 2 1 2 1 Z " fill="#000000" transform="translate(108,20)"/>
<path d="M0 0 C2 1 2 1 2 1 Z " fill="#000000" transform="translate(424,19)"/>
<path d="M0 0 C2 1 2 1 2 1 Z " fill="#000000" transform="translate(111,19)"/>
<path d="M0 0 C2 1 2 1 2 1 Z " fill="#000000" transform="translate(421,18)"/>
<path d="M0 0 C2 1 2 1 2 1 Z " fill="#000000" transform="translate(418,17)"/>
<path d="M0 0 C2 1 2 1 2 1 Z " fill="#000000" transform="translate(408,14)"/>
<path d="M0 0 C2 1 2 1 2 1 Z " fill="#000000" transform="translate(404,13)"/>
<path d="" fill="#000000" transform="translate(0,0)"/>
<path d="" fill="#000000" transform="translate(0,0)"/>
<path d="" fill="#000000" transform="translate(0,0)"/>
<path d="" fill="#000000" transform="translate(0,0)"/>
<path d="" fill="#000000" transform="translate(0,0)"/>
<path d="" fill="#000000" transform="translate(0,0)"/>
<path d="" fill="#000000" transform="translate(0,0)"/>
<path d="" fill="#000000" transform="translate(0,0)"/>
<path d="" fill="#000000" transform="translate(0,0)"/>
<path d="" fill="#000000" transform="translate(0,0)"/>
<path d="" fill="#000000" transform="translate(0,0)"/>
<path d="" fill="#000000" transform="translate(0,0)"/>
<path d="" fill="#000000" transform="translate(0,0)"/>
<path d="" fill="#000000" transform="translate(0,0)"/>
<path d="" fill="#000000" transform="translate(0,0)"/>
<path d="" fill="#000000" transform="translate(0,0)"/>
<path d="" fill="#000000" transform="translate(0,0)"/>
<path d="" fill="#000000" transform="translate(0,0)"/>
<path d="" fill="#000000" transform="translate(0,0)"/>
<path d="" fill="#000000" transform="translate(0,0)"/>
<path d="" fill="#000000" transform="translate(0,0)"/>
<path d="" fill="#000000" transform="translate(0,0)"/>
<path d="" fill="#000000" transform="translate(0,0)"/>
<path d="" fill="#000000" transform="translate(0,0)"/>
<path d="" fill="#000000" transform="translate(0,0)"/>
<path d="" fill="#000000" transform="translate(0,0)"/>
<path d="" fill="#000000" transform="translate(0,0)"/>
<path d="" fill="#000000" transform="translate(0,0)"/>
<path d="" fill="#000000" transform="translate(0,0)"/>
<path d="" fill="#000000" transform="translate(0,0)"/>
<path d="" fill="#000000" transform="translate(0,0)"/>
<path d="" fill="#000000" transform="translate(0,0)"/>
<path d="" fill="#000000" transform="translate(0,0)"/>
<path d="" fill="#000000" transform="translate(0,0)"/>
<path d="" fill="#000000" transform="translate(0,0)"/>
<path d="" fill="#000000" transform="translate(0,0)"/>
<path d="" fill="#000000" transform="translate(0,0)"/>
<path d="" fill="#000000" transform="translate(0,0)"/>
<path d="" fill="#000000" transform="translate(0,0)"/>
<path d="" fill="#000000" transform="translate(0,0)"/>
<path d="" fill="#000000" transform="translate(0,0)"/>
<path d="" fill="#000000" transform="translate(0,0)"/>
<path d="" fill="#000000" transform="translate(0,0)"/>
<path d="" fill="#000000" transform="translate(0,0)"/>
<path d="" fill="#000000" transform="translate(0,0)"/>
<path d="" fill="#000000" transform="translate(0,0)"/>
<path d="" fill="#000000" transform="translate(0,0)"/>
<path d="" fill="#000000" transform="translate(0,0)"/>
<path d="" fill="#000000" transform="translate(0,0)"/>
<path d="" fill="#000000" transform="translate(0,0)"/>
<path d="" fill="#000000" transform="translate(0,0)"/>
<path d="" fill="#000000" transform="translate(0,0)"/>
<path d="" fill="#000000" transform="translate(0,0)"/>
<path d="" fill="#000000" transform="translate(0,0)"/>
<path d="" fill="#000000" transform="translate(0,0)"/>
<path d="" fill="#000000" transform="translate(0,0)"/>
<path d="" fill="#000000" transform="translate(0,0)"/>
<path d="" fill="#000000" transform="translate(0,0)"/>
<path d="" fill="#000000" transform="translate(0,0)"/>
<path d="" fill="#000000" transform="translate(0,0)"/>
<path d="" fill="#000000" transform="translate(0,0)"/>
<path d="" fill="#000000" transform="translate(0,0)"/>
<path d="" fill="#000000" transform="translate(0,0)"/>
<path d="" fill="#000000" transform="translate(0,0)"/>
<path d="" fill="#000000" transform="translate(0,0)"/>
<path d="" fill="#000000" transform="translate(0,0)"/>
<path d="" fill="#000000" transform="translate(0,0)"/>
<path d="" fill="#000000" transform="translate(0,0)"/>
<path d="" fill="#000000" transform="translate(0,0)"/>
<path d="" fill="#000000" transform="translate(0,0)"/>
<path d="" fill="#000000" transform="translate(0,0)"/>
<path d="" fill="#000000" transform="translate(0,0)"/>
<path d="" fill="#000000" transform="translate(0,0)"/>
<path d="" fill="#000000" transform="translate(0,0)"/>
<path d="" fill="#000000" transform="translate(0,0)"/>
<path d="" fill="#000000" transform="translate(0,0)"/>
<path d="" fill="#000000" transform="translate(0,0)"/>
<path d="" fill="#000000" transform="translate(0,0)"/>
<path d="" fill="#000000" transform="translate(0,0)"/>
<path d="" fill="#000000" transform="translate(0,0)"/>
<path d="" fill="#000000" transform="translate(0,0)"/>
<path d="" fill="#000000" transform="translate(0,0)"/>
<path d="" fill="#000000" transform="translate(0,0)"/>
<path d="" fill="#000000" transform="translate(0,0)"/>
<path d="" fill="#000000" transform="translate(0,0)"/>
<path d="" fill="#000000" transform="translate(0,0)"/>
<path d="" fill="#000000" transform="translate(0,0)"/>
<path d="" fill="#000000" transform="translate(0,0)"/>
<path d="" fill="#000000" transform="translate(0,0)"/>
<path d="" fill="#000000" transform="translate(0,0)"/>
<path d="" fill="#000000" transform="translate(0,0)"/>
<path d="" fill="#000000" transform="translate(0,0)"/>
<path d="" fill="#000000" transform="translate(0,0)"/>
<path d="" fill="#000000" transform="translate(0,0)"/>
<path d="" fill="#000000" transform="translate(0,0)"/>
<path d="" fill="#000000" transform="translate(0,0)"/>
<path d="" fill="#000000" transform="translate(0,0)"/>
<path d="" fill="#000000" transform="translate(0,0)"/>
<path d="" fill="#000000" transform="translate(0,0)"/>
<path d="" fill="#000000" transform="translate(0,0)"/>
<path d="" fill="#000000" transform="translate(0,0)"/>
<path d="" fill="#000000" transform="translate(0,0)"/>
<path d="" fill="#000000" transform="translate(0,0)"/>
<path d="" fill="#000000" transform="translate(0,0)"/>
<path d="" fill="#000000" transform="translate(0,0)"/>
<path d="" fill="#000000" transform="translate(0,0)"/>
<path d="" fill="#000000" transform="translate(0,0)"/>
<path d="" fill="#000000" transform="translate(0,0)"/>
<path d="" fill="#000000" transform="translate(0,0)"/>
<path d="" fill="#000000" transform="translate(0,0)"/>
<path d="" fill="#000000" transform="translate(0,0)"/>
<path d="" fill="#000000" transform="translate(0,0)"/>
<path d="" fill="#000000" transform="translate(0,0)"/>
<path d="" fill="#000000" transform="translate(0,0)"/>
<path d="" fill="#000000" transform="translate(0,0)"/>
<path d="" fill="#000000" transform="translate(0,0)"/>
<path d="" fill="#000000" transform="translate(0,0)"/>
<path d="" fill="#000000" transform="translate(0,0)"/>
<path d="" fill="#000000" transform="translate(0,0)"/>
<path d="" fill="#000000" transform="translate(0,0)"/>
<path d="" fill="#000000" transform="translate(0,0)"/>
<path d="" fill="#000000" transform="translate(0,0)"/>
<path d="" fill="#000000" transform="translate(0,0)"/>
<path d="" fill="#000000" transform="translate(0,0)"/>
<path d="" fill="#000000" transform="translate(0,0)"/>
<path d="" fill="#000000" transform="translate(0,0)"/>
<path d="" fill="#000000" transform="translate(0,0)"/>
<path d="" fill="#000000" transform="translate(0,0)"/>
<path d="" fill="#000000" transform="translate(0,0)"/>
<path d="" fill="#000000" transform="translate(0,0)"/>
<path d="" fill="#000000" transform="translate(0,0)"/>
<path d="" fill="#000000" transform="translate(0,0)"/>
<path d="" fill="#000000" transform="translate(0,0)"/>
<path d="" fill="#000000" transform="translate(0,0)"/>
<path d="" fill="#000000" transform="translate(0,0)"/>
<path d="" fill="#000000" transform="translate(0,0)"/>
<path d="" fill="#000000" transform="translate(0,0)"/>
<path d="" fill="#000000" transform="translate(0,0)"/>
<path d="" fill="#000000" transform="translate(0,0)"/>
<path d="" fill="#000000" transform="translate(0,0)"/>
<path d="" fill="#000000" transform="translate(0,0)"/>
<path d="" fill="#000000" transform="translate(0,0)"/>
<path d="" fill="#000000" transform="translate(0,0)"/>
<path d="" fill="#000000" transform="translate(0,0)"/>
<path d="" fill="#000000" transform="translate(0,0)"/>
<path d="" fill="#000000" transform="translate(0,0)"/>
<path d="" fill="#000000" transform="translate(0,0)"/>
<path d="" fill="#000000" transform="translate(0,0)"/>
<path d="" fill="#000000" transform="translate(0,0)"/>
<path d="" fill="#000000" transform="translate(0,0)"/>
<path d="" fill="#000000" transform="translate(0,0)"/>
<path d="" fill="#000000" transform="translate(0,0)"/>
<path d="" fill="#000000" transform="translate(0,0)"/>
<path d="" fill="#000000" transform="translate(0,0)"/>
<path d="" fill="#000000" transform="translate(0,0)"/>
<path d="" fill="#000000" transform="translate(0,0)"/>
<path d="" fill="#000000" transform="translate(0,0)"/>
<path d="" fill="#000000" transform="translate(0,0)"/>
<path d="" fill="#000000" transform="translate(0,0)"/>
<path d="" fill="#000000" transform="translate(0,0)"/>
<path d="" fill="#000000" transform="translate(0,0)"/>
<path d="" fill="#000000" transform="translate(0,0)"/>
<path d="" fill="#000000" transform="translate(0,0)"/>
<path d="" fill="#000000" transform="translate(0,0)"/>
<path d="" fill="#000000" transform="translate(0,0)"/>
<path d="" fill="#000000" transform="translate(0,0)"/>
<path d="" fill="#000000" transform="translate(0,0)"/>
<path d="" fill="#000000" transform="translate(0,0)"/>
</svg>
