<?xml version="1.0" encoding="UTF-8"?>
<!-- Generator: https://ezgif.com/png-to-svg -->
<svg version="1.1" xmlns="http://www.w3.org/2000/svg" width="512" height="512" viewBox="-6 -23 112 112" preserveAspectRatio="xMidYMid meet">
<path d="M0 0 C33 0 66 0 100 0 C100 21.78 100 43.56 100 66 C67 66 34 66 0 66 C0 44.22 0 22.44 0 0 Z " fill="#CDCCCC" transform="translate(0,0)"/>
<path d="M0 0 C12.21 0 24.42 0 37 0 C37 21.78 37 43.56 37 66 C18.19 66 -0.62 66 -20 66 C-19.67 62.7 -19.34 59.4 -19 56 C-19.49 54.52 -19.49 54.52 -20 53 C-18.75 53.09 -18.75 53.09 -17.47 53.18 C-9.82 53.48 -3.91 53.24 2 48 C6.71 42.57 7.8 36.94 7.49 29.87 C6.52 24.15 3.63 20.59 -0.44 16.62 C-3.22 14.86 -5.84 13.88 -9 13 C-5.25 11.88 -5.25 11.88 -3 13 C-2.88 11.78 -2.75 10.57 -2.62 9.31 C-2.25 5.67 -1.45 3.62 0 0 Z " fill="#C0BFBE" transform="translate(63,0)"/>
<path d="M0 0 C4.13 3.79 7.55 8.02 8.41 13.66 C8.66 21.55 7.3 27.02 2 33 C-3.24 37.5 -8.53 38.78 -15.36 38.41 C-22.18 37.34 -26.43 34.11 -30.77 28.88 C-34.44 23.26 -35.01 17.54 -34 11 C-31.24 4.6 -26.91 0.5 -21 -3 C-13.37 -5.33 -6.68 -4.23 0 0 Z " fill="#A10225" transform="translate(63,16)"/>
<path d="M0 0 C3.63 0 7.26 0 11 0 C11 21.78 11 43.56 11 66 C2.42 66 -6.16 66 -15 66 C-14.34 60.72 -13.68 55.44 -13 50 C-12.34 50 -11.68 50 -11 50 C-10.96 49.37 -10.93 48.74 -10.89 48.09 C-10.5 43.08 -9.77 38.92 -7.83 34.29 C-6.35 30.19 -5.56 25.91 -4.65 21.66 C-4 19 -4 19 -3 18 C-2.62 15.54 -2.29 13.09 -2 10.62 C-1.13 3.39 -1.13 3.39 0 0 Z " fill="#F1F1F1" transform="translate(89,0)"/>
<path d="M0 0 C7.26 0 14.52 0 22 0 C21.34 2.97 20.68 5.94 20 9 C19.75 10.17 19.51 11.34 19.25 12.55 C19.03 13.6 18.8 14.66 18.56 15.75 C18.22 17.35 18.22 17.35 17.88 18.98 C17 22 17 22 15.53 24.3 C13.81 27.33 13.26 29.79 12.68 33.22 C12.37 34.99 12.37 34.99 12.06 36.79 C11.85 38.02 11.65 39.24 11.44 40.5 C11.02 42.93 10.61 45.36 10.18 47.78 C10 48.85 9.82 49.93 9.64 51.03 C9.03 53.88 8.1 56.32 7 59 C6.62 61.33 6.28 63.66 6 66 C4.02 66 2.04 66 0 66 C0 44.22 0 22.44 0 0 Z " fill="#DDDCDB" transform="translate(0,0)"/>
<path d="M0 0 C3.63 0 7.26 0 11 0 C11.73 6.29 9.66 11.03 7.29 16.82 C4.77 23.04 3.44 28.88 2.5 35.5 C1.74 40.9 0.82 45.84 -1 51 C-1.39 52.87 -1.75 54.74 -2.06 56.62 C-2.6 59.81 -3.22 62.86 -4 66 C-7.96 66 -11.92 66 -16 66 C-16.18 61.32 -15.72 58.29 -14 54 C-13.56 51.94 -13.17 49.86 -12.82 47.78 C-12.61 46.6 -12.41 45.42 -12.19 44.21 C-11.77 41.74 -11.36 39.26 -10.94 36.79 C-10.74 35.61 -10.53 34.43 -10.32 33.22 C-10.14 32.15 -9.95 31.07 -9.77 29.97 C-8.96 26.84 -7.71 24.72 -6 22 C-5.19 19.75 -5.19 19.75 -4.65 17.46 C-4.33 16.22 -4.33 16.22 -4.01 14.95 C-3.69 13.68 -3.69 13.68 -3.38 12.38 C-2.95 10.67 -2.52 8.97 -2.09 7.27 C-1.9 6.52 -1.72 5.78 -1.52 5.01 C-1.08 3.32 -0.55 1.65 0 0 Z " fill="#BFBFBE" transform="translate(22,0)"/>
<path d="M0 0 C1.98 0 3.96 0 6 0 C4.31 18.39 4.31 18.39 1.79 24.86 C0.78 27.59 0.12 30.36 -0.56 33.19 C-1.54 37.2 -2.66 41.09 -4 45 C-4.36 46.66 -4.7 48.33 -5 50 C-5.66 50 -6.32 50 -7 50 C-6.98 50.65 -6.95 51.3 -6.93 51.98 C-6.82 57.09 -6.98 61.2 -9 66 C-10.65 66 -12.3 66 -14 66 C-14.34 60.72 -13.43 56.71 -11.8 51.7 C-10.69 47.96 -10.06 44.19 -9.43 40.35 C-9 38 -9 38 -8 35 C-7.34 35 -6.68 35 -6 35 C-5.95 34.06 -5.9 33.12 -5.85 32.15 C-5.78 30.9 -5.7 29.66 -5.62 28.38 C-5.52 26.53 -5.52 26.53 -5.41 24.65 C-5.01 21.12 -4.17 18.33 -3 15 C-2.42 12.38 -1.88 9.76 -1.38 7.12 C-1.17 6.09 -1.17 6.09 -0.97 5.04 C-0.64 3.36 -0.32 1.68 0 0 Z " fill="#D5D5D5" transform="translate(83,0)"/>
<path d="M0 0 C3.96 0 7.92 0 12 0 C12 5.31 11.86 6.43 9.79 10.74 C8.33 14.91 8.08 19.33 7.62 23.7 C6.98 27.12 5.93 29.13 4 32 C2.14 36.66 1.51 41.05 1 46 C0.67 46 0.34 46 0 46 C0 30.82 0 15.64 0 0 Z " fill="#F4F5F5" transform="translate(1,0)"/>
<path d="M0 0 C0.7 0.45 1.4 0.91 2.12 1.38 C4.95 3.11 4.95 3.11 8.12 3.94 C11 5 11 5 12.94 6.62 C14.59 10.33 13.77 13.04 13 17 C12.67 17.66 12.34 18.32 12 19 C6.39 19 0.78 19 -5 19 C-3.88 10.04 -3.88 10.04 -2.5 7.25 C-1.35 4.76 -0.53 2.66 0 0 Z " fill="#EEEEEE" transform="translate(31,47)"/>
<path d="M0 0 C6.27 0 12.54 0 19 0 C18.13 4.36 17.08 8.69 16 13 C10.06 12.67 4.12 12.34 -2 12 C-1.43 7.99 -0.8 3.98 0 0 Z " fill="#F1F1F1" transform="translate(44,0)"/>
<path d="M0 0 C1.98 0 3.96 0 6 0 C5 8.57 5 8.57 4 12 C5.32 12.33 6.64 12.66 8 13 C5.03 13.66 2.06 14.32 -1 15 C-3.01 10.98 -2.22 6.74 -1 2.56 C-0.67 1.72 -0.34 0.87 0 0 Z " fill="#D8D7D6" transform="translate(38,0)"/>
<path d="M0 0 C5.45 0.99 5.45 0.99 11 2 C9.68 5.63 8.36 9.26 7 13 C4.69 13 2.38 13 0 13 C0.13 11.97 0.13 11.97 0.25 10.92 C0.36 10.02 0.46 9.12 0.56 8.19 C0.67 7.29 0.77 6.4 0.88 5.48 C1.16 2.87 1.16 2.87 0 0 Z " fill="#D7D6D6" transform="translate(43,53)"/>
<path d="M0 0 C1.32 0 2.64 0 4 0 C4.41 5.42 3.04 9.07 1 14 C-5.62 14.25 -5.62 14.25 -9 12 C-6.03 12.5 -6.03 12.5 -3 13 C-2.81 11.17 -2.81 11.17 -2.62 9.31 C-2.21 5.94 -1.45 3.1 0 0 Z " fill="#D2CECE" transform="translate(63,0)"/>
<path d="M0 0 C1.65 0 3.3 0 5 0 C4.18 4.38 3.1 8.68 2 13 C0.68 12.67 -0.64 12.34 -2 12 C-1.33 8 -0.67 4 0 0 Z " fill="#E6E6E5" transform="translate(58,0)"/>
</svg>
