<?xml version="1.0" encoding="UTF-8"?>
<!-- Generator: https://ezgif.com/webp-to-svg -->
<svg version="1.1" xmlns="http://www.w3.org/2000/svg" width="50" height="33">
<path d="M0 0 C16.5 0 33 0 50 0 C50 10.89 50 21.78 50 33 C33.5 33 17 33 0 33 C0 22.11 0 11.22 0 0 Z " fill="#C6C4C4" transform="translate(0,0)"/>
<path d="M0 0 C2.75 1.8 4.53 3.05 6 6 C6.42 9.06 6.49 11.95 6 15 C3.56 18 3.56 18 1 20 C0.67 20.33 0.34 20.66 0 21 C-2.93 21.29 -5.14 21.5 -8 21 C-10.94 18.56 -10.94 18.56 -13 16 C-13.33 15.67 -13.66 15.34 -14 15 C-14.44 11.95 -14.48 9.05 -14 6 C-9.75 0.64 -6.77 -0.57 0 0 Z " fill="#A20626" transform="translate(29,6)"/>
<path d="M0 0 C1.98 0 3.96 0 6 0 C6 10.89 6 21.78 6 33 C1.71 33 -2.58 33 -7 33 C-6.38 25.58 -4.81 18.64 -2.94 11.44 C-2.66 10.33 -2.37 9.23 -2.08 8.09 C-1.39 5.39 -0.7 2.7 0 0 Z " fill="#F1F1F0" transform="translate(44,0)"/>
<path d="M0 0 C4.29 0 8.58 0 13 0 C12.2 6.93 10.53 13.65 8.94 20.44 C8.66 21.65 8.37 22.85 8.08 24.1 C7.39 27.07 6.7 30.03 6 33 C2.04 33 -1.92 33 -6 33 C-5.67 31.35 -5.34 29.7 -5 28 C-5.66 27.67 -6.32 27.34 -7 27 C-6.09 26.75 -5.18 26.5 -4.25 26.25 C-0.7 24.88 0.89 24.17 3 21 C3.64 17.88 3.67 15.12 3 12 C1.85 10.26 1.85 10.26 0.38 8.81 C-0.41 7.88 -1.19 6.96 -2 6 C-1.34 4.02 -0.68 2.04 0 0 Z " fill="#BFBCBC" transform="translate(31,0)"/>
<path d="M0 0 C2.64 0 5.28 0 8 0 C7.13 9.23 6.17 17.57 2 26 C-0.23 22.65 -0.24 21.58 -0.2 17.68 C-0.19 16.65 -0.18 15.62 -0.18 14.56 C-0.15 12.95 -0.15 12.95 -0.12 11.31 C-0.12 10.23 -0.11 9.15 -0.1 8.03 C-0.07 5.35 -0.04 2.68 0 0 Z " fill="#E6E4E4" transform="translate(0,0)"/>
<path d="M0 0 C0.99 0.62 0.99 0.62 2 1.25 C5.59 3.34 9.27 5.18 13 7 C12.67 8.65 12.34 10.3 12 12 C7.38 12 2.76 12 -2 12 C-1 3.43 -1 3.43 0 0 Z " fill="#EBEBEB" transform="translate(13,21)"/>
<path d="M0 0 C0.99 0 1.98 0 3 0 C2.2 6.93 0.53 13.65 -1.06 20.44 C-1.34 21.65 -1.63 22.85 -1.92 24.1 C-2.61 27.07 -3.3 30.03 -4 33 C-5.32 33 -6.64 33 -8 33 C-5.48 20.11 -5.48 20.11 -3.44 15.38 C-1.33 10.43 -0.74 5.3 0 0 Z " fill="#D3D3D2" transform="translate(41,0)"/>
<path d="M0 0 C1.65 0 3.3 0 5 0 C4.33 5.03 3.46 9.97 2.44 14.94 C2.3 15.62 2.16 16.31 2.02 17.01 C1.68 18.67 1.34 20.34 1 22 C0.67 22 0.34 22 0 22 C0 14.74 0 7.48 0 0 Z " fill="#F5F6F6" transform="translate(1,0)"/>
<path d="M0 0 C2.97 0 5.94 0 9 0 C8.67 1.98 8.34 3.96 8 6 C5.03 6 2.06 6 -1 6 C-0.67 4.02 -0.34 2.04 0 0 Z " fill="#EFEFEF" transform="translate(22,0)"/>
<path d="M0 0 C2.63 1.52 4.84 2.84 7 5 C6.36 5.23 5.72 5.45 5.06 5.69 C2.73 6.85 2.73 6.85 2.25 9.62 C2.17 10.41 2.09 11.19 2 12 C0.68 12 -0.64 12 -2 12 C-1 3.43 -1 3.43 0 0 Z " fill="#DCDADA" transform="translate(13,21)"/>
<path d="M0 0 C1.65 0 3.3 0 5 0 C5 2.31 5 4.62 5 7 C3.35 7.33 1.7 7.66 0 8 C0 5.36 0 2.72 0 0 Z " fill="#D4D2D2" transform="translate(17,0)"/>
<path d="M0 0 C0.33 0 0.66 0 1 0 C1 4.29 1 8.58 1 13 C-0.32 13 -1.64 13 -3 13 C-2.69 11.02 -2.38 9.04 -2.06 7.06 C-1.89 5.96 -1.71 4.86 -1.54 3.72 C-1 1 -1 1 0 0 Z " fill="#E7E7E7" transform="translate(49,20)"/>
<path d="M0 0 C1.32 0 2.64 0 4 0 C3.67 2.64 3.34 5.28 3 8 C1.35 7.67 -0.3 7.34 -2 7 C-1.34 4.69 -0.68 2.38 0 0 Z " fill="#C9C7C7" transform="translate(31,0)"/>
</svg>
