<?xml version="1.0" encoding="UTF-8"?>
<!-- Generator: https://ezgif.com/png-to-svg -->
<svg version="1.1" xmlns="http://www.w3.org/2000/svg" width="512" height="512" viewBox="-7.661 -48.366 1109.073 1109.073" preserveAspectRatio="xMidYMid meet">
<path d="M0 0 C0.99 -0 1.97 -0.01 2.99 -0.02 C6.27 -0.03 9.55 -0.04 12.83 -0.04 C15.11 -0.05 17.39 -0.05 19.67 -0.06 C24.46 -0.07 29.25 -0.08 34.04 -0.08 C40.16 -0.08 46.28 -0.11 52.4 -0.14 C57.12 -0.16 61.83 -0.16 66.55 -0.16 C68.8 -0.17 71.05 -0.17 73.31 -0.19 C90.21 -0.28 104.45 0.49 118.81 10.35 C127.94 19.47 131.86 28.31 132.06 41.04 C131.95 52.73 129.17 60.5 120.95 69.06 C118 71.72 115.21 73.48 111.62 75.16 C112.49 75.61 113.36 76.06 114.25 76.52 C125.46 82.39 132.84 87.59 137.66 99.8 C141.34 111.63 140.82 124.85 135.19 135.99 C133.75 138.45 132.25 140.82 130.62 143.16 C130.11 143.91 129.59 144.67 129.06 145.44 C128.58 146.01 128.11 146.58 127.62 147.16 C126.96 147.16 126.3 147.16 125.62 147.16 C125.62 147.82 125.62 148.48 125.62 149.16 C123.53 150.78 123.53 150.78 120.68 152.6 C119.77 153.2 118.85 153.79 117.91 154.41 C110.8 158.2 103.38 159.79 95.45 160.83 C94.02 161.02 94.02 161.02 92.56 161.21 C82.17 162.49 71.87 162.56 61.42 162.49 C59.39 162.49 57.37 162.48 55.34 162.48 C51.15 162.48 46.96 162.46 42.77 162.44 C37.39 162.41 32.01 162.4 26.63 162.4 C22.47 162.39 18.31 162.38 14.16 162.37 C12.17 162.37 10.18 162.36 8.2 162.36 C5.45 162.35 2.7 162.34 -0.05 162.32 C-0.87 162.32 -1.69 162.32 -2.54 162.32 C-8.15 162.28 -8.15 162.28 -10.38 161.16 C-10.4 140.32 -10.42 119.47 -10.43 98.63 C-10.44 88.95 -10.44 79.27 -10.45 69.6 C-10.46 61.16 -10.47 52.73 -10.47 44.3 C-10.47 39.83 -10.48 35.37 -10.48 30.9 C-10.49 26.7 -10.49 22.5 -10.49 18.3 C-10.49 16.75 -10.49 15.21 -10.5 13.66 C-10.5 11.56 -10.5 9.46 -10.5 7.36 C-10.5 6.18 -10.5 5 -10.5 3.78 C-10.23 -1.98 -4.52 0.01 0 0 Z M42.62 35.16 C42.43 39.47 42.24 43.79 42.06 48.1 C42 49.33 41.95 50.56 41.89 51.83 C41.84 53 41.79 54.17 41.74 55.38 C41.7 56.46 41.65 57.54 41.6 58.66 C41.33 61.1 41.33 61.1 42.62 62.16 C46.28 62.42 49.95 62.35 53.62 62.35 C55.15 62.37 55.15 62.37 56.7 62.39 C67.93 62.51 67.93 62.51 77.62 57.66 C80.72 53.79 80.96 51.33 80.91 46.49 C80.47 42.91 78.96 40.83 76.62 38.16 C70.63 33.67 60.23 35.04 53.12 35.1 C51.6 35.11 51.6 35.11 50.05 35.11 C47.57 35.12 45.1 35.14 42.62 35.16 Z M42.62 96.16 C42.24 100.63 42.15 105.12 42 109.6 C41.95 110.87 41.89 112.13 41.84 113.44 C41.8 114.64 41.75 115.85 41.71 117.09 C41.67 118.21 41.63 119.32 41.58 120.47 C41.43 123.13 41.43 123.13 42.62 125.16 C46.41 125.19 50.21 125.21 54 125.22 C55.59 125.24 55.59 125.24 57.21 125.25 C69.69 125.83 69.69 125.83 81.12 121.85 C81.75 121.44 82.38 121.03 83.03 120.61 C85.57 118.3 86.48 116.17 86.96 112.79 C87.05 107.1 86.73 103.48 82.62 99.16 C73.9 93.89 62.79 95.08 52.93 95.04 C52.04 95.03 51.14 95.03 50.21 95.02 C49.37 95.02 48.54 95.03 47.67 95.03 C46.54 95.03 46.54 95.03 45.38 95.03 C43.59 94.97 43.59 94.97 42.62 96.16 Z " fill="#FEFEFE" transform="translate(219.378173828125,421.8388671875)"/>
<path d="M0 0 C1 -0 2 -0.01 3.02 -0.01 C4.65 -0.01 4.65 -0.01 6.31 -0 C7.42 -0 8.52 -0.01 9.66 -0.01 C12.01 -0.01 14.35 -0.01 16.7 -0 C20.3 0 23.9 -0 27.5 -0.01 C29.77 -0.01 32.04 -0.01 34.31 -0 C35.94 -0.01 35.94 -0.01 37.6 -0.01 C38.6 -0.01 39.6 -0 40.62 0 C41.51 0 42.39 0 43.3 0 C45.31 0.13 45.31 0.13 46.31 1.13 C46.44 2.79 46.49 4.45 46.52 6.11 C46.55 7.7 46.55 7.7 46.58 9.32 C46.59 10.48 46.61 11.63 46.63 12.82 C46.65 14 46.67 15.17 46.69 16.38 C46.76 20.15 46.82 23.92 46.88 27.69 C46.92 30.24 46.96 32.79 47.01 35.34 C47.11 41.6 47.21 47.87 47.31 54.13 C55.04 46.43 62.36 38.48 69.09 29.9 C76.48 20.71 84.36 11.83 92.31 3.13 C92.91 2.34 92.91 2.34 93.51 1.54 C96.2 -0.56 98.34 -0.23 101.71 -0.21 C102.36 -0.21 103 -0.21 103.66 -0.21 C105.79 -0.21 107.92 -0.19 110.04 -0.16 C111.52 -0.16 112.99 -0.15 114.47 -0.15 C118.35 -0.14 122.23 -0.11 126.11 -0.08 C130.08 -0.05 134.04 -0.03 138 -0.02 C145.77 0.02 153.54 0.07 161.31 0.13 C161.64 1.12 161.97 2.11 162.31 3.13 C161.26 4.79 161.26 4.79 159.55 6.64 C158.91 7.34 158.26 8.05 157.59 8.77 C152.79 13.74 147.89 18.6 142.98 23.45 C141.57 24.84 140.16 26.23 138.76 27.62 C137.93 28.44 137.1 29.26 136.24 30.1 C134.26 31.98 134.26 31.98 133.31 34.13 C132.65 34.13 131.99 34.13 131.31 34.13 C130.97 34.96 130.97 34.96 130.63 35.82 C128.93 38.81 126.77 40.79 124.27 43.16 C123.27 44.12 122.27 45.09 121.27 46.06 C119.69 47.57 118.12 49.08 116.53 50.57 C114.99 52.02 113.47 53.5 111.96 54.97 C111.04 55.84 110.13 56.71 109.19 57.61 C107.05 59.95 107.05 59.95 107.37 62.68 C108.31 65.13 109.35 67.26 110.72 69.5 C111.21 70.32 111.7 71.13 112.21 71.97 C113 73.26 113 73.26 113.81 74.57 C114.35 75.45 114.89 76.34 115.45 77.25 C119.32 83.6 123.3 89.87 127.38 96.09 C129.03 98.68 130.57 101.31 132.08 103.99 C134.65 108.44 137.35 112.81 140.03 117.2 C148.52 131.14 156.93 145.12 165.31 159.13 C164.65 160.12 163.99 161.11 163.31 162.13 C160.83 162.54 160.83 162.54 157.66 162.58 C155.88 162.61 155.88 162.61 154.07 162.65 C152.78 162.66 151.49 162.66 150.17 162.67 C148.85 162.68 147.53 162.69 146.18 162.71 C143.38 162.73 140.59 162.74 137.8 162.74 C134.23 162.75 130.66 162.8 127.09 162.86 C123.68 162.91 120.27 162.91 116.86 162.92 C115.58 162.95 114.29 162.97 112.98 163 C104.39 162.93 104.39 162.93 101.49 160.77 C100.14 158.95 99.22 157.21 98.31 155.13 C97.39 153.42 97.39 153.42 96.44 151.67 C95.84 150.44 95.25 149.21 94.66 147.97 C93.96 146.56 93.27 145.15 92.58 143.73 C92.03 142.62 92.03 142.62 91.47 141.48 C89.41 137.31 87.28 133.17 85.16 129.04 C84.5 127.76 84.5 127.76 83.83 126.45 C82.49 123.84 81.15 121.24 79.81 118.63 C78.89 116.82 77.96 115.02 77.03 113.21 C74.79 108.85 72.55 104.49 70.31 100.13 C67.98 99.91 67.98 99.91 65.75 102.47 C64.74 103.47 63.74 104.49 62.75 105.5 C62.24 106.01 61.74 106.52 61.21 107.04 C58.42 109.83 58.42 109.83 56.31 113.13 C55.65 113.13 54.99 113.13 54.31 113.13 C54.07 113.71 53.82 114.28 53.56 114.88 C52.31 117.13 52.31 117.13 50.28 118.94 C47.88 121.61 47.75 122.91 47.6 126.46 C47.51 128.05 47.51 128.05 47.43 129.67 C47.37 131.38 47.37 131.38 47.31 133.13 C47.26 134.32 47.21 135.51 47.15 136.73 C47 140.45 46.87 144.16 46.75 147.88 C46.69 149.8 46.69 149.8 46.62 151.76 C46.51 154.88 46.41 158.01 46.31 161.13 C43.88 162.35 42.32 162.26 39.6 162.26 C38.63 162.26 37.65 162.27 36.64 162.27 C35.58 162.27 34.52 162.26 33.43 162.26 C32.35 162.26 31.27 162.26 30.15 162.27 C27.86 162.27 25.57 162.26 23.28 162.26 C19.76 162.25 16.24 162.26 12.72 162.27 C10.5 162.27 8.28 162.26 6.06 162.26 C4.47 162.27 4.47 162.27 2.85 162.27 C1.87 162.27 0.9 162.26 -0.11 162.26 C-0.97 162.26 -1.83 162.26 -2.72 162.26 C-4.69 162.13 -4.69 162.13 -5.69 161.13 C-5.79 159.07 -5.81 157 -5.81 154.94 C-5.82 154.29 -5.82 153.63 -5.82 152.96 C-5.82 150.76 -5.82 148.55 -5.82 146.34 C-5.82 144.77 -5.82 143.19 -5.82 141.62 C-5.83 137.33 -5.82 133.04 -5.82 128.75 C-5.82 124.27 -5.82 119.8 -5.82 115.32 C-5.83 107.79 -5.82 100.27 -5.82 92.75 C-5.81 84.04 -5.81 75.33 -5.82 66.62 C-5.82 59.16 -5.82 51.69 -5.82 44.23 C-5.82 39.76 -5.82 35.3 -5.82 30.84 C-5.83 26.64 -5.82 22.44 -5.82 18.25 C-5.82 16.7 -5.82 15.16 -5.82 13.62 C-5.82 11.52 -5.82 9.42 -5.81 7.32 C-5.81 6.14 -5.81 4.96 -5.81 3.75 C-5.6 -0.66 -3.96 0 0 0 Z " fill="#FEFEFE" transform="translate(876.6875,421.87060546875)"/>
<path d="M0 0 C0.73 -0.01 1.46 -0.02 2.21 -0.02 C3.75 -0.04 5.29 -0.05 6.83 -0.06 C8.37 -0.07 9.91 -0.09 11.45 -0.12 C25.79 -0.4 40.12 1.06 52.92 8.11 C53.58 8.46 54.23 8.81 54.91 9.16 C61.95 12.94 67.91 17.37 73.36 23.24 C73.88 23.74 74.4 24.25 74.93 24.77 C90.71 41 93.75 64.72 93.51 86.32 C92.95 109.92 86.37 130.63 69.36 147.24 C68.78 147.83 68.21 148.42 67.62 149.04 C50.43 165.52 25.73 166.65 3.39 166.45 C-9.79 166.17 -21.59 163.75 -33.64 158.24 C-34.45 157.87 -35.26 157.5 -36.09 157.12 C-42.51 153.88 -47.54 149.25 -52.64 144.24 C-53.7 143.22 -53.7 143.22 -54.77 142.18 C-70.6 125.77 -74.75 102.9 -74.68 80.85 C-74.22 59.17 -68.66 38.5 -53.64 22.24 C-52.98 22.24 -52.32 22.24 -51.64 22.24 C-51.4 21.65 -51.16 21.06 -50.92 20.45 C-44.94 10.06 -27.63 4.93 -16.87 2 C-11.22 0.67 -5.8 0.06 0 0 Z M-7.64 44.24 C-8.28 44.65 -8.91 45.06 -9.56 45.49 C-16.78 50.9 -19.64 58.79 -21.25 67.4 C-23.34 82.55 -23.9 101.32 -15.58 114.68 C-11.19 120.41 -4.89 125 2.36 126.24 C12.45 126.96 21.2 126.78 29.6 120.58 C39.79 111.48 40.77 98.04 41.54 85.11 C41.81 72.64 41.01 57.88 32.04 48.36 C23.35 40.46 14.58 39.53 3.26 40.06 C-0.93 40.45 -4.18 41.94 -7.64 44.24 Z " fill="#FEFEFE" transform="translate(587.64453125,419.76171875)"/>
<path d="M0 0 C8.89 7.36 15 16.49 19.94 26.81 C20.24 27.45 20.55 28.08 20.87 28.73 C22.5 32.29 23.37 35.08 23 39 C17.68 40.39 12.34 41.71 7 43 C5.35 43.4 5.35 43.4 3.66 43.81 C0.02 44.68 -3.61 45.53 -7.25 46.38 C-8.44 46.66 -9.63 46.95 -10.86 47.24 C-11.98 47.5 -13.11 47.76 -14.27 48.02 C-15.27 48.26 -16.28 48.5 -17.32 48.74 C-20.31 49.03 -21.55 48.69 -24 47 C-24.87 45.27 -24.87 45.27 -25.44 43.25 C-27.34 37.62 -30.44 33.74 -35.56 30.69 C-43.11 26.98 -51.71 26.88 -59.89 28.61 C-67.5 31.27 -71.67 36.23 -75.81 42.94 C-79.19 51.64 -79.34 60.02 -79.31 69.25 C-79.33 70.48 -79.34 71.72 -79.36 72.99 C-79.37 84.24 -78.46 96.03 -71 105 C-65.11 110.74 -59.72 112.2 -51.69 112.44 C-44.05 112.24 -37.68 111.49 -31.98 106.08 C-27.65 100.92 -25.13 95.34 -23 89 C-22.59 87.8 -22.17 86.61 -21.75 85.38 C-21.38 84.2 -21.38 84.2 -21 83 C-13.26 83.54 -6.37 85.52 1 87.88 C2.12 88.23 3.25 88.58 4.41 88.94 C6.6 89.63 8.79 90.33 10.97 91.03 C12.89 91.64 14.82 92.24 16.75 92.82 C17.95 93.19 17.95 93.19 19.19 93.57 C19.88 93.78 20.58 93.98 21.29 94.2 C23 95 23 95 25 98 C22.44 113.59 14.03 126.26 3 137 C2.37 137.63 1.74 138.26 1.09 138.9 C-15.32 154.15 -39.65 153.57 -60.53 153.13 C-76.04 152.54 -92.14 148.43 -104 138 C-104.63 137.52 -105.26 137.05 -105.9 136.56 C-119.71 125.65 -128.72 107.66 -131.59 90.54 C-134.78 63.05 -133.42 35.13 -116 12.44 C-89.5 -18.28 -32.88 -23.57 0 0 Z " fill="#FEFEFE" transform="translate(828,433)"/>
<path d="M0 0 C10.23 0.18 23.8 4.25 31.29 11.75 C31.38 13.82 31.4 15.9 31.39 17.97 C31.39 19.23 31.39 20.49 31.38 21.79 C31.37 23.13 31.37 24.47 31.36 25.81 C31.35 27.16 31.35 28.5 31.34 29.85 C31.33 33.15 31.31 36.45 31.29 39.75 C32.61 40.41 33.93 41.07 35.29 41.75 C35.29 66.75 35.29 66.75 35.26 69.23 C35.15 81.41 35.76 93.58 36.29 105.75 C38 105.53 38 105.53 39.73 105.31 C41.25 105.12 42.77 104.94 44.29 104.75 C45.04 104.65 45.78 104.56 46.55 104.46 C47.29 104.37 48.03 104.28 48.79 104.19 C49.46 104.1 50.13 104.02 50.83 103.93 C54.32 103.67 57.79 103.72 61.29 103.75 C61.32 109.11 61.34 114.46 61.35 119.82 C61.35 121.64 61.36 123.47 61.37 125.29 C61.38 127.91 61.39 130.53 61.39 133.14 C61.4 133.96 61.4 134.78 61.41 135.62 C61.41 138.92 61.35 141.59 60.29 144.75 C78.79 148.9 78.79 148.9 97.58 148.17 C98.48 148.03 99.37 147.89 100.29 147.75 C101.29 148.75 101.29 148.75 101.41 150.69 C101.41 151.54 101.41 152.39 101.41 153.27 C101.41 154.71 101.41 154.71 101.41 156.18 C101.4 157.23 101.4 158.27 101.39 159.35 C101.39 160.41 101.39 161.48 101.39 162.57 C101.38 165.99 101.37 169.4 101.36 172.81 C101.35 175.12 101.35 177.43 101.34 179.74 C101.33 185.41 101.32 191.08 101.29 196.75 C96.86 198.69 93.66 198.82 88.92 198.19 C88.17 198.1 87.42 198.01 86.65 197.91 C81.25 197.23 75.87 196.37 70.5 195.5 C69.81 195.38 69.13 195.27 68.43 195.16 C64.99 194.59 61.55 194.02 58.11 193.43 C45.7 190.79 45.7 190.79 34.29 194.75 C33.63 194.75 32.97 194.75 32.29 194.75 C31.3 199.04 30.31 203.33 29.29 207.75 C27.97 207.75 26.65 207.75 25.29 207.75 C24.79 206.29 24.29 204.83 23.79 203.37 C23.52 202.56 23.24 201.75 22.95 200.91 C22.29 198.75 22.29 198.75 22.29 196.75 C21.5 196.69 20.7 196.63 19.88 196.57 C9.36 195.73 9.36 195.73 4.29 194.75 C4.21 196.03 4.13 197.31 4.04 198.62 C3.78 200.84 3.78 200.84 3.29 202.75 C1.23 204.25 1.23 204.25 -0.71 204.75 C-1.37 202.77 -2.03 200.79 -2.71 198.75 C-3.65 198.94 -4.6 199.12 -5.58 199.31 C-8.71 199.75 -8.71 199.75 -10.71 198.75 C-10.71 196.77 -10.71 194.79 -10.71 192.75 C-12.36 192.42 -14.01 192.09 -15.71 191.75 C-17.03 187.77 -16.77 183.9 -16.71 179.75 C-17.84 179.36 -18.97 178.97 -20.14 178.56 C-23.71 176.75 -23.71 176.75 -25.02 174.5 C-24.71 171.75 -24.71 171.75 -21.73 169.12 C-16.68 163.43 -17.93 155.17 -18.02 148 C-18.03 145.72 -18.03 143.45 -18.02 141.17 C-18.01 139.76 -18.02 138.35 -18.04 136.94 C-18.04 132.1 -18.04 132.1 -16.22 130.2 C-15.47 129.48 -15.47 129.48 -14.71 128.75 C-14.21 125.72 -14.21 125.72 -14.23 122.25 C-14.2 120.97 -14.17 119.69 -14.14 118.37 C-14.12 117.02 -14.1 115.67 -14.08 114.31 C-14.03 111.67 -13.98 109.02 -13.92 106.38 C-13.89 104.62 -13.89 104.62 -13.86 102.82 C-13.71 99.75 -13.71 99.75 -13.21 97.96 C-12.55 95.07 -12.5 92.32 -12.42 89.36 C-12.39 88.07 -12.35 86.77 -12.31 85.44 C-12.28 84.03 -12.25 82.61 -12.21 81.2 C-12.2 80.49 -12.18 79.77 -12.16 79.04 C-12.08 75.26 -12 71.47 -11.93 67.69 C-11.87 64.57 -11.79 61.45 -11.7 58.33 C-11.59 54.55 -11.51 50.78 -11.44 47 C-11.42 45.56 -11.38 44.13 -11.33 42.7 C-10.94 32.27 -10.94 32.27 -15.57 23.25 C-17.26 21.02 -17.28 19.11 -17.14 16.37 C-17.12 15.54 -17.1 14.71 -17.08 13.85 C-16.71 11.75 -16.71 11.75 -14.71 9.75 C-14.28 7.81 -14.28 7.81 -14.14 5.69 C-13.3 -1.91 -6.49 0.14 0 0 Z M36.29 116.75 C35.96 121.37 35.63 125.99 35.29 130.75 C39.49 131.8 42.09 131.48 46.29 130.75 C44.81 136.43 44.81 136.43 42.29 138 C41.63 138.25 40.97 138.49 40.29 138.75 C39.63 139.41 38.97 140.07 38.29 140.75 C44.23 141.74 44.23 141.74 50.29 142.75 C50.29 133.84 50.29 124.93 50.29 115.75 C45.38 115.75 41.12 116.08 36.29 116.75 Z " fill="#FEFEFE" transform="translate(403.705810546875,403.250244140625)"/>
<path d="M0 0 C0.97 -0.01 1.95 -0.02 2.95 -0.03 C4.54 -0.04 4.54 -0.04 6.15 -0.04 C7.23 -0.05 8.31 -0.05 9.42 -0.06 C11.71 -0.07 14 -0.08 16.28 -0.08 C19.79 -0.09 23.3 -0.12 26.81 -0.15 C29.03 -0.16 31.25 -0.16 33.46 -0.17 C34.52 -0.18 35.57 -0.19 36.66 -0.2 C38.12 -0.2 38.12 -0.2 39.61 -0.2 C40.47 -0.2 41.33 -0.2 42.22 -0.21 C42.91 -0.09 43.6 0.04 44.31 0.16 C46.84 3.96 46.59 6.99 46.57 11.38 C46.57 12.64 46.57 12.64 46.58 13.93 C46.58 16.72 46.58 19.51 46.57 22.3 C46.57 24.25 46.58 26.21 46.58 28.17 C46.58 32.28 46.58 36.4 46.57 40.52 C46.56 45.73 46.56 50.94 46.57 56.14 C46.71 129.98 46.71 129.98 29.75 147.84 C16.48 160.44 1 164.53 -16.85 164.48 C-18.86 164.47 -20.87 164.5 -22.88 164.52 C-40.88 164.53 -57.27 160.49 -70.51 147.67 C-79.48 137.36 -84.94 123.49 -84.76 109.79 C-84.75 108.91 -84.74 108.04 -84.73 107.14 C-84.72 106.49 -84.71 105.83 -84.69 105.16 C-78.85 103.79 -73.03 102.67 -67.08 101.84 C-66.3 101.73 -65.53 101.62 -64.73 101.5 C-63.1 101.27 -61.48 101.04 -59.85 100.82 C-57.37 100.47 -54.89 100.11 -52.4 99.75 C-50.82 99.53 -49.23 99.31 -47.64 99.09 C-46.9 98.98 -46.17 98.87 -45.4 98.76 C-41.94 98.29 -39.02 97.93 -35.69 99.16 C-35.35 101.02 -35.35 101.02 -34.99 102.92 C-34.67 104.56 -34.34 106.21 -34.01 107.85 C-33.78 109.07 -33.78 109.07 -33.55 110.32 C-32.45 115.68 -31.12 118.63 -26.69 122.16 C-22.67 124.17 -18.61 123.44 -14.44 122.16 C-9.88 118.84 -9.11 114.54 -8.17 109.16 C-7.51 104.39 -7.52 99.63 -7.49 94.82 C-7.48 93.8 -7.47 92.79 -7.46 91.74 C-7.43 88.4 -7.4 85.07 -7.38 81.73 C-7.36 79.41 -7.34 77.08 -7.31 74.76 C-7.26 68.66 -7.21 62.57 -7.16 56.47 C-7.11 50.24 -7.06 44.02 -7 37.79 C-6.89 25.58 -6.79 13.37 -6.69 1.16 C-4.27 -0.05 -2.71 0.02 0 0 Z " fill="#F36626" transform="translate(136.693359375,421.8388671875)"/>
<path d="" fill="#FFFFFF" transform="translate(0,0)"/>
<path d="" fill="#FFFFFF" transform="translate(0,0)"/>
<path d="" fill="#FFFFFF" transform="translate(0,0)"/>
<path d="" fill="#FFFFFF" transform="translate(0,0)"/>
</svg>
