<?xml version="1.0" encoding="UTF-8"?>
<svg version="1.1" xmlns="http://www.w3.org/2000/svg" width="50" height="50">
<path d="M0 0 C0 0.66 0 1.32 0 2 C1.95030467 3.33346412 3.99004369 4.43891316 6.0546875 5.5859375 C9.07027507 7.77799112 9.79907797 10.13603526 10.625 13.6875 C11.09155505 17.80873625 11.08284224 21.85788783 11 26 C12.98 26.99 14.96 27.98 17 29 C17.02686553 30.97909398 17.04633375 32.95828971 17.0625 34.9375 C17.07410156 36.03964844 17.08570313 37.14179687 17.09765625 38.27734375 C17 41 17 41 16 42 C9.32640215 43.46285265 2.82306784 44.26242569 -4 44 C-4 43.34 -4 42.68 -4 42 C-4.77714355 42.01047363 -5.55428711 42.02094727 -6.35498047 42.03173828 C-9.861621 42.07320282 -13.36821006 42.09929578 -16.875 42.125 C-18.09832031 42.14175781 -19.32164063 42.15851562 -20.58203125 42.17578125 C-22.33193359 42.18544922 -22.33193359 42.18544922 -24.1171875 42.1953125 C-25.19597168 42.20578613 -26.27475586 42.21625977 -27.38623047 42.22705078 C-30 42 -30 42 -32 40 C-32.82042303 37.00718923 -33.1378962 34.09990651 -33 31 C-31.12740149 28.22577998 -29.89883227 27.29961076 -26.75 26.25 C-25.88375 26.12625 -25.88375 26.12625 -25 26 C-25 25.01 -25 24.02 -25 23 C-24.34 22.67 -23.68 22.34 -23 22 C-24.65 21.67 -26.3 21.34 -28 21 C-28.66 18.03 -29.32 15.06 -30 12 C-22.25 8 -22.25 8 -20 8 C-19.7525 7.401875 -19.505 6.80375 -19.25 6.1875 C-17.76908673 3.59590178 -16.57699464 2.50324687 -14 1 C-9.32567113 -0.16858222 -4.78552594 -0.08250907 0 0 Z " fill="#281F06" transform="translate(33,3)"/>
<path d="M0 0 C0 0.66 0 1.32 0 2 C1.216875 1.896875 2.43375 1.79375 3.6875 1.6875 C7.30142722 1.68108095 7.91767214 1.9382541 11 4.25 C13 7 13 7 13 11 C13.99 12.485 13.99 12.485 15 14 C15.125 16.6875 15.125 16.6875 15 19 C14.34 19 13.68 19 13 19 C13 21.31 13 23.62 13 26 C12.34 25.67 11.68 25.34 11 25 C10.34 25.66 9.68 26.32 9 27 C7.68252676 27.69748583 6.35085807 28.36959957 5 29 C5 28.34 5 27.68 5 27 C4.34 27 3.68 27 3 27 C3 27.66 3 28.32 3 29 C1.02 29.33 -0.96 29.66 -3 30 C-3.33 30.99 -3.66 31.98 -4 33 C-4.66 32.67 -5.32 32.34 -6 32 C-6 30.35 -6 28.7 -6 27 C-5.30132812 26.73445313 -4.60265625 26.46890625 -3.8828125 26.1953125 C-2.97273438 25.84210937 -2.06265625 25.48890625 -1.125 25.125 C-0.22007813 24.77695312 0.68484375 24.42890625 1.6171875 24.0703125 C4.12217007 23.11469105 4.12217007 23.11469105 6 21 C6.71408334 19.01643517 7.38617742 17.01684563 8 15 C7.113125 14.731875 6.22625 14.46375 5.3125 14.1875 C2 13 2 13 -0.375 11.5 C-3.83809201 9.52109028 -7.10930238 8.85727236 -11 8 C-11 6 -11 6 -10 5 C-9.566875 4.525625 -9.13375 4.05125 -8.6875 3.5625 C-5.88174192 0.96457585 -3.83746829 0 0 0 Z " fill="#E3C015" transform="translate(27,5)"/>
<path d="M0 0 C0 0.66 0 1.32 0 2 C0.66 2.66 1.32 3.32 2 4 C-0.64 4 -3.28 4 -6 4 C-6 3.34 -6 2.68 -6 2 C-7.31823302 2.59155331 -8.62947051 3.19871463 -9.9375 3.8125 C-10.66839844 4.14894531 -11.39929688 4.48539062 -12.15234375 4.83203125 C-14.33029489 5.93600134 -14.33029489 5.93600134 -15 9 C-15.66 8.67 -16.32 8.34 -17 8 C-17 8.66 -17 9.32 -17 10 C-16.27554687 10.09796875 -15.55109375 10.1959375 -14.8046875 10.296875 C-8.85607192 11.21692754 -4.6990896 12.18992735 0 16 C-1.8125 16.6875 -1.8125 16.6875 -4 17 C-4.474375 16.505 -4.94875 16.01 -5.4375 15.5 C-5.953125 15.005 -6.46875 14.51 -7 14 C-9.65466049 14.23043864 -9.65466049 14.23043864 -12 15 C-12 16.32 -12 17.64 -12 19 C-11.34 19 -10.68 19 -10 19 C-10 18.34 -10 17.68 -10 17 C-9.01 17.33 -8.02 17.66 -7 18 C-7.66 19.32 -8.32 20.64 -9 22 C-14.29085798 22.43367688 -14.29085798 22.43367688 -17 22 C-19.5410987 19.04904667 -20.04734674 16.81061305 -21 13 C-21.33 15.97 -21.66 18.94 -22 22 C-25 22 -25 22 -28 21 C-28.73046875 18.93359375 -28.73046875 18.93359375 -29.1875 16.4375 C-29.34605469 15.61121094 -29.50460938 14.78492188 -29.66796875 13.93359375 C-29.77753906 13.29550781 -29.88710938 12.65742188 -30 12 C-28.71086513 11.32845067 -27.41859796 10.66291141 -26.125 10 C-25.40570312 9.62875 -24.68640625 9.2575 -23.9453125 8.875 C-22 8 -22 8 -20 8 C-19.7525 7.401875 -19.505 6.80375 -19.25 6.1875 C-17.76908673 3.59590178 -16.57699464 2.50324687 -14 1 C-9.32567113 -0.16858222 -4.78552594 -0.08250907 0 0 Z " fill="#CA7907" transform="translate(33,3)"/>
<path d="M0 0 C0.99 0.66 1.98 1.32 3 2 C3 2.66 3 3.32 3 4 C3.66 4.33 4.32 4.66 5 5 C4.51917969 5.39832031 4.03835938 5.79664063 3.54296875 6.20703125 C1.62608175 8.43450247 1.52258357 9.78834669 1.3125 12.6875 C1.24675781 13.49574219 1.18101563 14.30398437 1.11328125 15.13671875 C1.07589844 15.75160156 1.03851563 16.36648437 1 17 C0.34 17 -0.32 17 -1 17 C-1.33 15.68 -1.66 14.36 -2 13 C-2.33 14.65 -2.66 16.3 -3 18 C4.59 18.33 12.18 18.66 20 19 C20 19.66 20 20.32 20 21 C20.763125 20.690625 21.52625 20.38125 22.3125 20.0625 C27.17314841 18.66197419 31.96858173 18.34020266 37 18 C37 14.7 37 11.4 37 8 C34.69 7.67 32.38 7.34 30 7 C30 6.34 30 5.68 30 5 C35.625 4.75 35.625 4.75 39 7 C39.328125 9.78515625 39.328125 9.78515625 39.25 13.0625 C39.23453125 14.14660156 39.2190625 15.23070312 39.203125 16.34765625 C39 19 39 19 38 20 C31.32640215 21.46285265 24.82306784 22.26242569 18 22 C18 21.34 18 20.68 18 20 C17.22285645 20.01047363 16.44571289 20.02094727 15.64501953 20.03173828 C12.138379 20.07320282 8.63178994 20.09929578 5.125 20.125 C3.90167969 20.14175781 2.67835937 20.15851562 1.41796875 20.17578125 C-0.33193359 20.18544922 -0.33193359 20.18544922 -2.1171875 20.1953125 C-3.19597168 20.20578613 -4.27475586 20.21625977 -5.38623047 20.22705078 C-8 20 -8 20 -10 18 C-10.82042303 15.00718923 -11.1378962 12.09990651 -11 9 C-9.12740149 6.22577998 -7.89883227 5.29961076 -4.75 4.25 C-3.88375 4.12625 -3.88375 4.12625 -3 4 C-3 3.01 -3 2.02 -3 1 C-2.01 0.67 -1.02 0.34 0 0 Z " fill="#971C1C" transform="translate(11,25)"/>
<path d="M0 0 C0.33 0 0.66 0 1 0 C1.99 2.97 2.98 5.94 4 9 C6.64 9 9.28 9 12 9 C12.33 8.01 12.66 7.02 13 6 C12.34 5.67 11.68 5.34 11 5 C11.33 5.99 11.66 6.98 12 8 C10.68 7.67 9.36 7.34 8 7 C8.33 5.35 8.66 3.7 9 2 C11.3125 1.3125 11.3125 1.3125 14 1 C15.02196992 1.97753644 16.01979625 2.9805881 17 4 C20.10839021 4.7269226 20.10839021 4.7269226 23 5 C21.06818182 12.87587413 21.06818182 12.87587413 18 15 C13.71830408 16.28359193 9.4242605 16.73343356 5 16 C2 13.5625 2 13.5625 0 11 C-0.33 10.67 -0.66 10.34 -1 10 C-1.0979057 8.50261876 -1.12974864 7.00057108 -1.125 5.5 C-1.12757812 4.6853125 -1.13015625 3.870625 -1.1328125 3.03125 C-1 1 -1 1 0 0 Z " fill="#63A7A1" transform="translate(12,15)"/>
<path d="M0 0 C2.97 0.33 5.94 0.66 9 1 C8.01 1.33 7.02 1.66 6 2 C5.67 4.97 5.34 7.94 5 11 C4.67 11 4.34 11 4 11 C4 8.36 4 5.72 4 3 C3.01 3.495 3.01 3.495 2 4 C2 6.31 2 8.62 2 11 C1.01 10.67 0.02 10.34 -1 10 C-0.67 10.66 -0.34 11.32 0 12 C1.89685547 12.09087891 1.89685547 12.09087891 3.83203125 12.18359375 C5.49219871 12.26800904 7.15235437 12.35265655 8.8125 12.4375 C9.64587891 12.47681641 10.47925781 12.51613281 11.33789062 12.55664062 C12.14033203 12.59853516 12.94277344 12.64042969 13.76953125 12.68359375 C14.87711792 12.73858032 14.87711792 12.73858032 16.00708008 12.79467773 C18 13 18 13 21 14 C21 13.34 21 12.68 21 12 C24.63 12 28.26 12 32 12 C32.33 9.03 32.66 6.06 33 3 C33.33 3 33.66 3 34 3 C34.02688151 4.64574566 34.04634123 6.29161413 34.0625 7.9375 C34.07410156 8.85402344 34.08570313 9.77054688 34.09765625 10.71484375 C34 13 34 13 33 14 C30.16027465 14.32351301 27.31926263 14.5130429 24.46875 14.71875 C22.0586395 14.73385265 22.0586395 14.73385265 21 16 C19.33382885 16.04063832 17.66611905 16.042721 16 16 C16 15.34 16 14.68 16 14 C7.09 14 -1.82 14 -11 14 C-9.68 13.67 -8.36 13.34 -7 13 C-6.67 10.36 -6.34 7.72 -6 5 C-5.67 5 -5.34 5 -5 5 C-5 7.31 -5 9.62 -5 12 C-4.34 12 -3.68 12 -3 12 C-3.020625 10.88625 -3.04125 9.7725 -3.0625 8.625 C-3 5 -3 5 -2 3 C-5.3 3 -8.6 3 -12 3 C-12 2.67 -12 2.34 -12 2 C-8.04 2 -4.08 2 0 2 C0 1.34 0 0.68 0 0 Z " fill="#4B4645" transform="translate(15,30)"/>
<path d="M0 0 C0.33 0.99 0.66 1.98 1 3 C1.680625 3.474375 2.36125 3.94875 3.0625 4.4375 C3.701875 4.953125 4.34125 5.46875 5 6 C5 7.32 5 8.64 5 10 C3.25 11.125 3.25 11.125 1 12 C-0.75 11.25 -0.75 11.25 -3 10 C-5.64859654 9.23598177 -8.31400868 8.62673131 -11 8 C-11 6 -11 6 -10 5 C-9.566875 4.525625 -9.13375 4.05125 -8.6875 3.5625 C-5.88174192 0.96457585 -3.83746829 0 0 0 Z " fill="#D2930D" transform="translate(27,5)"/>
<path d="M0 0 C1.32 0 2.64 0 4 0 C5.41377341 2.63904371 6.37240135 5.07120629 7 8 C7.66 8 8.32 8 9 8 C9 7.34 9 6.68 9 6 C9.66 6 10.32 6 11 6 C11 6.66 11 7.32 11 8 C11.99 8 12.98 8 14 8 C14 6.68 14 5.36 14 4 C14.99 4 15.98 4 17 4 C17 3.34 17 2.68 17 2 C17.66 2 18.32 2 19 2 C19 4.64 19 7.28 19 10 C12.73 10 6.46 10 0 10 C-0.33 9.01 -0.66 8.02 -1 7 C-0.34 7 0.32 7 1 7 C1.33 5.02 1.66 3.04 2 1 C1.34 0.67 0.68 0.34 0 0 Z " fill="#B3B2B2" transform="translate(15,33)"/>
<path d="M0 0 C0.33 0 0.66 0 1 0 C1.20496094 0.63808594 1.40992188 1.27617187 1.62109375 1.93359375 C1.89050781 2.75988281 2.15992188 3.58617187 2.4375 4.4375 C2.70433594 5.26121094 2.97117187 6.08492187 3.24609375 6.93359375 C3.82155494 8.96219588 3.82155494 8.96219588 5 10 C7.32817964 10.36760731 9.6618385 10.70241581 12 11 C11.67 11.99 11.34 12.98 11 14 C11.99 14.66 12.98 15.32 14 16 C5.96904441 16.78734859 5.96904441 16.78734859 2 13.5625 C1.34 12.716875 0.68 11.87125 0 11 C-0.33 10.67 -0.66 10.34 -1 10 C-1.0979057 8.50261876 -1.12974864 7.00057108 -1.125 5.5 C-1.12757812 4.6853125 -1.13015625 3.870625 -1.1328125 3.03125 C-1 1 -1 1 0 0 Z " fill="#3E98A8" transform="translate(12,15)"/>
<path d="M0 0 C3.23242894 0.92529039 5.42753324 2.54256873 8.07421875 4.59375 C6.26171875 5.28125 6.26171875 5.28125 4.07421875 5.59375 C3.59984375 5.09875 3.12546875 4.60375 2.63671875 4.09375 C2.12109375 3.59875 1.60546875 3.10375 1.07421875 2.59375 C-1.58044174 2.82418864 -1.58044174 2.82418864 -3.92578125 3.59375 C-3.92578125 4.91375 -3.92578125 6.23375 -3.92578125 7.59375 C-3.26578125 7.59375 -2.60578125 7.59375 -1.92578125 7.59375 C-1.92578125 6.93375 -1.92578125 6.27375 -1.92578125 5.59375 C-0.93578125 5.92375 0.05421875 6.25375 1.07421875 6.59375 C0.41421875 7.91375 -0.24578125 9.23375 -0.92578125 10.59375 C-3.80078125 10.78125 -3.80078125 10.78125 -6.92578125 10.59375 C-9.08080656 7.36121204 -9.3943426 6.34224077 -8.92578125 2.59375 C-6.88382036 -1.23492667 -3.94744527 -0.64209831 0 0 Z " fill="#0E120D" transform="translate(24.92578125,14.40625)"/>
<path d="M0 0 C0.33 0 0.66 0 1 0 C1.02688151 1.64574566 1.04634123 3.29161413 1.0625 4.9375 C1.07410156 5.85402344 1.08570313 6.77054688 1.09765625 7.71484375 C1 10 1 10 0 11 C-2.83972535 11.32351301 -5.68073737 11.5130429 -8.53125 11.71875 C-10.9413605 11.73385265 -10.9413605 11.73385265 -12 13 C-13.66617115 13.04063832 -15.33388095 13.042721 -17 13 C-17 12.34 -17 11.68 -17 11 C-25.91 11 -34.82 11 -44 11 C-44 10.67 -44 10.34 -44 10 C-39.92489562 9.9752655 -35.84982036 9.95712363 -31.7746582 9.94506836 C-30.38858275 9.94004223 -29.00251259 9.93322034 -27.61645508 9.92456055 C-25.62323285 9.91241982 -23.62997181 9.90728979 -21.63671875 9.90234375 C-20.43748779 9.89710693 -19.23825684 9.89187012 -18.00268555 9.88647461 C-15 10 -15 10 -12 11 C-12 10.34 -12 9.68 -12 9 C-8.37 9 -4.74 9 -1 9 C-0.67 6.03 -0.34 3.06 0 0 Z " fill="#190202" transform="translate(48,33)"/>
<path d="M0 0 C3.3 0 6.6 0 10 0 C9.67 2.97 9.34 5.94 9 9 C8.34 9 7.68 9 7 9 C6.67 7.68 6.34 6.36 6 5 C5.67 6.65 5.34 8.3 5 10 C3.35 9.67 1.7 9.34 0 9 C0 8.34 0 7.68 0 7 C0.99 7 1.98 7 3 7 C3 5.68 3 4.36 3 3 C1.68 3 0.36 3 -1 3 C-0.67 2.01 -0.34 1.02 0 0 Z " fill="#E0E1E1" transform="translate(3,33)"/>
<path d="M0 0 C0.99 0.66 1.98 1.32 3 2 C3 2.66 3 3.32 3 4 C3.66 4.33 4.32 4.66 5 5 C4.67 5.66 4.34 6.32 4 7 C0.04 7 -3.92 7 -8 7 C-8.33 8.32 -8.66 9.64 -9 11 C-7.68 11 -6.36 11 -5 11 C-5 12.32 -5 13.64 -5 15 C-5.99 14.67 -6.98 14.34 -8 14 C-7.34 14 -6.68 14 -6 14 C-6 13.34 -6 12.68 -6 12 C-7.32 12 -8.64 12 -10 12 C-10 10.35 -10 8.7 -10 7 C-7.69 6.01 -5.38 5.02 -3 4 C-3 3.01 -3 2.02 -3 1 C-2.01 0.67 -1.02 0.34 0 0 Z " fill="#63230F" transform="translate(11,25)"/>
<path d="M0 0 C1.98 0 3.96 0 6 0 C6.02689216 1.47906892 6.04634621 2.95827483 6.0625 4.4375 C6.07410156 5.26121094 6.08570313 6.08492187 6.09765625 6.93359375 C6 9 6 9 5 10 C3.35 10 1.7 10 0 10 C0 6.7 0 3.4 0 0 Z " fill="#9F9F9F" transform="translate(42,33)"/>
<path d="M0 0 C0.99 0 1.98 0 3 0 C3 3.3 3 6.6 3 10 C0.03 9.505 0.03 9.505 -3 9 C-3 9.66 -3 10.32 -3 11 C-3.99 10.67 -4.98 10.34 -6 10 C-5.18957164 8.51969728 -4.37659652 7.04078858 -3.5625 5.5625 C-2.88380859 4.32693359 -2.88380859 4.32693359 -2.19140625 3.06640625 C-1 1 -1 1 0 0 Z " fill="#8C1216" transform="translate(39,33)"/>
<path d="M0 0 C0 0.66 0 1.32 0 2 C0.66 2.66 1.32 3.32 2 4 C-0.64 4 -3.28 4 -6 4 C-6 3.34 -6 2.68 -6 2 C-11.01508715 3.54058233 -15.6147081 5.02931839 -20 8 C-18.60186993 4.62118566 -17.17112209 2.84982122 -14 1 C-9.32567113 -0.16858222 -4.78552594 -0.08250907 0 0 Z " fill="#453103" transform="translate(33,3)"/>
<path d="M0 0 C3.13735845 0.93272819 4.71557415 1.63430962 6.75 4.25 C9.36250357 9.99750785 9.12377582 15.81120919 9 22 C8.01 22.33 7.02 22.66 6 23 C6 21.35 6 19.7 6 18 C6.66 18 7.32 18 8 18 C7.35474023 16.5414128 6.7087728 15.08313863 6.0625 13.625 C5.52302734 12.40683594 5.52302734 12.40683594 4.97265625 11.1640625 C4.3430097 9.76316215 3.68687358 8.37374716 3 7 C3.66 7 4.32 7 5 7 C3.70700306 4.11562221 2.34058637 2.12780579 0 0 Z " fill="#0A0A00" transform="translate(35,7)"/>
<path d="M0 0 C0.66 0 1.32 0 2 0 C2 0.66 2 1.32 2 2 C2.66 2.33 3.32 2.66 4 3 C3.34 3 2.68 3 2 3 C2 3.66 2 4.32 2 5 C1.01 5 0.02 5 -1 5 C-1 6.32 -1 7.64 -1 9 C-1.99 9 -2.98 9 -4 9 C-4 8.34 -4 7.68 -4 7 C-4.66 7 -5.32 7 -6 7 C-6 7.66 -6 8.32 -6 9 C-6.66 9 -7.32 9 -8 9 C-8.33 7.68 -8.66 6.36 -9 5 C-8.34 5 -7.68 5 -7 5 C-6.67 4.34 -6.34 3.68 -6 3 C-2.9375 2.375 -2.9375 2.375 0 2 C0 1.34 0 0.68 0 0 Z " fill="#716B59" transform="translate(30,32)"/>
<path d="M0 0 C0.66 0 1.32 0 2 0 C2.66 0.99 3.32 1.98 4 3 C5.32 2.67 6.64 2.34 8 2 C8 4.64 8 7.28 8 10 C5 10 5 10 2 9 C1.26953125 6.93359375 1.26953125 6.93359375 0.8125 4.4375 C0.65394531 3.61121094 0.49539062 2.78492188 0.33203125 1.93359375 C0.16767578 0.97646484 0.16767578 0.97646484 0 0 Z " fill="#955E05" transform="translate(3,15)"/>
<path d="M0 0 C3.16115776 1.36983503 3.9927092 1.9890638 6 5 C6.125 7.6875 6.125 7.6875 6 10 C5.34 9.67 4.68 9.34 4 9 C4 8.34 4 7.68 4 7 C2.35 7.66 0.7 8.32 -1 9 C-1.09765625 2.84765625 -1.09765625 2.84765625 -1 1 C-0.67 0.67 -0.34 0.34 0 0 Z " fill="#EAD21A" transform="translate(36,14)"/>
<path d="M0 0 C0 0.99 0 1.98 0 3 C-1.98 3.33 -3.96 3.66 -6 4 C-6.33 4.99 -6.66 5.98 -7 7 C-7.66 6.67 -8.32 6.34 -9 6 C-9 4.35 -9 2.7 -9 1 C-5.57367167 -0.61798838 -3.61944899 -1.34053666 0 0 Z " fill="#DA9C0C" transform="translate(30,31)"/>
<path d="M0 0 C-0.25 2.375 -0.25 2.375 -1 5 C-2.9375 6.1875 -2.9375 6.1875 -5 7 C-5.66 7.66 -6.32 8.32 -7 9 C-7.33 7.02 -7.66 5.04 -8 3 C-2.25 0 -2.25 0 0 0 Z " fill="#B3880E" transform="translate(13,11)"/>
<path d="M0 0 C1.32 0 2.64 0 4 0 C4 2.97 4 5.94 4 9 C2.68 9.33 1.36 9.66 0 10 C-0.33 9.01 -0.66 8.02 -1 7 C-0.34 7 0.32 7 1 7 C1.33 5.02 1.66 3.04 2 1 C1.34 0.67 0.68 0.34 0 0 Z " fill="#D2D2D2" transform="translate(15,33)"/>
<path d="M0 0 C2.475 0.495 2.475 0.495 5 1 C5.33 3.64 5.66 6.28 6 9 C4.35 8.67 2.7 8.34 1 8 C1 7.34 1 6.68 1 6 C1.99 6 2.98 6 4 6 C4 4.68 4 3.36 4 2 C2.68 2 1.36 2 0 2 C0 1.34 0 0.68 0 0 Z " fill="#A7A8A8" transform="translate(2,34)"/>
<path d="M0 0 C2.0625 0.4375 2.0625 0.4375 4 1 C3.01 1.495 3.01 1.495 2 2 C2.33 2.66 2.66 3.32 3 4 C2.34 4 1.68 4 1 4 C1.33 4.99 1.66 5.98 2 7 C0.68 6.67 -0.64 6.34 -2 6 C-1.125 1.125 -1.125 1.125 0 0 Z " fill="#348E93" transform="translate(22,16)"/>
<path d="M0 0 C1.65 0 3.3 0 5 0 C5 1.65 5 3.3 5 5 C4.67 4.01 4.34 3.02 4 2 C3.34 2 2.68 2 2 2 C2 4.31 2 6.62 2 9 C0.14223235 5.86501708 -0.20140476 3.62528568 0 0 Z " fill="#E3E3E3" transform="translate(42,33)"/>
<path d="M0 0 C-0.99 0.33 -1.98 0.66 -3 1 C-3.33 3.97 -3.66 6.94 -4 10 C-4.33 10 -4.66 10 -5 10 C-5 7.36 -5 4.72 -5 2 C-5.99 1.67 -6.98 1.34 -8 1 C-5.07175348 0.02391783 -3.04386724 -0.08226668 0 0 Z " fill="#3F3824" transform="translate(24,31)"/>
<path d="M0 0 C0.99 0 1.98 0 3 0 C2.67 1.98 2.34 3.96 2 6 C1.01 6 0.02 6 -1 6 C-1.625 4.125 -1.625 4.125 -2 2 C-1.34 1.34 -0.68 0.68 0 0 Z " fill="#A31E23" transform="translate(39,33)"/>
<path d="M0 0 C0.5775 0.78375 1.155 1.5675 1.75 2.375 C3.82897637 4.80047244 5.09040333 5.85694417 8 7 C6.25 7.6875 6.25 7.6875 4 8 C1.75 6.875 1.75 6.875 0 5 C-0.25 2.3125 -0.25 2.3125 0 0 Z " fill="#469DB6" transform="translate(13,20)"/>
<path d="M0 0 C0.33 0.66 0.66 1.32 1 2 C1.66 2 2.32 2 3 2 C3.66 4.31 4.32 6.62 5 9 C3.0625 8.4375 3.0625 8.4375 1 7 C0.25 3.375 0.25 3.375 0 0 Z " fill="#A6360D" transform="translate(13,16)"/>
<path d="M0 0 C0.33 1.32 0.66 2.64 1 4 C-0.98 4.99 -0.98 4.99 -3 6 C-3.33 4.68 -3.66 3.36 -4 2 C-2.68 1.34 -1.36 0.68 0 0 Z " fill="#D5A611" transform="translate(31,11)"/>
<path d="M0 0 C0.33 0 0.66 0 1 0 C1 2.64 1 5.28 1 8 C-2 8 -2 8 -4 7 C-3.67 6.01 -3.34 5.02 -3 4 C-2.01 4 -1.02 4 0 4 C0 2.68 0 1.36 0 0 Z " fill="#5B330F" transform="translate(10,17)"/>
<path d="M0 0 C1.32 0 2.64 0 4 0 C3.34 2.31 2.68 4.62 2 7 C1.34 6.67 0.68 6.34 0 6 C0 4.02 0 2.04 0 0 Z " fill="#6A8966" transform="translate(31,20)"/>
<path d="M0 0 C0.66 0 1.32 0 2 0 C2 0.66 2 1.32 2 2 C2.66 2.33 3.32 2.66 4 3 C3.67 3.66 3.34 4.32 3 5 C1.0625 4.625 1.0625 4.625 -1 4 C-1.33 3.34 -1.66 2.68 -2 2 C-1.34 2 -0.68 2 0 2 C0 1.34 0 0.68 0 0 Z " fill="#D29916" transform="translate(12,27)"/>
<path d="M0 0 C1.98 0.99 1.98 0.99 4 2 C3.67 3.32 3.34 4.64 3 6 C2.01 6 1.02 6 0 6 C0 4.02 0 2.04 0 0 Z " fill="#7BBFAD" transform="translate(28,19)"/>
<path d="M0 0 C0.66 0 1.32 0 2 0 C2.66 1.65 3.32 3.3 4 5 C3.01 5.33 2.02 5.66 1 6 C-0.0625 4.125 -0.0625 4.125 -1 2 C-0.67 1.34 -0.34 0.68 0 0 Z " fill="#D87B16" transform="translate(13,12)"/>
</svg>
