<?xml version="1.0" encoding="UTF-8"?>
<!-- Generator: https://ezgif.com/png-to-svg -->
<svg version="1.1" xmlns="http://www.w3.org/2000/svg" width="512" height="512" viewBox="-38.463 -80.308 676.032 676.032" preserveAspectRatio="xMidYMid meet">
<path d="M0 0 C1.32 0.01 1.32 0.01 2.68 0.03 C3.67 0.04 3.67 0.04 4.69 0.06 C3.21 3.51 1.25 5.71 -1.44 8.31 C-2.16 9.02 -2.89 9.73 -3.63 10.45 C-4.46 11.25 -4.46 11.25 -5.31 12.06 C-4.45 12 -3.58 11.94 -2.69 11.88 C0.59 11.65 3.88 11.43 7.16 11.21 C8.57 11.11 9.98 11.02 11.39 10.92 C54.51 7.9 103.14 10.91 143.69 27.06 C143.36 28.05 143.03 29.04 142.69 30.06 C139.96 31.23 139.96 31.23 136.62 32.25 C135.52 32.59 134.42 32.94 133.28 33.29 C132.42 33.55 131.57 33.8 130.69 34.06 C133.93 36.23 136.83 37.24 140.52 38.49 C141.2 38.72 141.87 38.95 142.57 39.18 C144.73 39.92 146.9 40.65 149.06 41.38 C159.03 44.73 168.91 48.19 178.69 52.06 C179.02 50.74 179.35 49.42 179.69 48.06 C181.08 48.03 181.08 48.03 182.49 48 C209.43 47.99 209.43 47.99 236.04 44.54 C241.29 43.59 246.67 43.87 252 43.88 C253.25 43.87 254.5 43.87 255.79 43.87 C264.91 43.92 273.71 44.5 282.69 46.06 C282.31 45.54 281.94 45.02 281.56 44.49 C277.65 38.72 277.65 38.72 277.88 35.06 C278.28 34.07 278.28 34.07 278.69 33.06 C283.21 32.84 286.4 33.45 290.58 35.15 C292.25 35.83 292.25 35.83 293.95 36.52 C295.12 37.01 296.29 37.5 297.5 38 C298.71 38.5 299.92 39 301.16 39.52 C322.33 48.43 340.46 59.9 357.69 75.06 C358.46 75.71 359.23 76.36 360.02 77.03 C364.03 80.41 367.54 83.99 370.92 87.99 C372.09 89.36 373.29 90.72 374.52 92.04 C393.07 112.14 413.04 141.25 412.13 169.57 C411.23 176.7 408.45 181.94 403 186.62 C398.52 189.67 394.01 190.04 388.69 190.06 C388.63 190.95 388.63 190.95 388.57 191.86 C388.17 196.67 387.65 200.07 384.69 204.06 C385.64 204.81 386.59 205.55 387.56 206.31 C391.16 209.35 392.47 211.31 393.06 216.06 C392.71 225.35 388.12 233.68 383.24 241.34 C381.21 244.43 381.21 244.43 380.94 247.97 C381.79 250.34 382.86 252.35 384.13 254.52 C384.63 255.38 385.12 256.23 385.64 257.12 C386.17 258.03 386.7 258.94 387.25 259.88 C388.35 261.79 389.46 263.7 390.56 265.62 C391.37 267.02 391.37 267.02 392.19 268.45 C397.66 277.99 402.57 287.72 407.19 297.69 C407.63 298.64 408.08 299.59 408.54 300.56 C409.15 301.91 409.15 301.91 409.78 303.29 C410.33 304.49 410.33 304.49 410.9 305.71 C411.77 308.29 411.83 310.36 411.69 313.06 C407.73 311.63 404.4 309.73 400.88 307.44 C399.9 306.81 398.92 306.17 397.92 305.52 C396.81 304.8 396.81 304.8 395.69 304.06 C395.98 304.86 396.27 305.65 396.57 306.46 C407.81 338.44 412.98 373.02 405.52 406.49 C405.23 407.84 405.23 407.84 404.92 409.22 C404.52 410.95 404.1 412.67 403.66 414.39 C402.63 418.77 402.3 420.34 404.52 424.45 C405.59 425.74 405.59 425.74 406.69 427.06 C408.24 431.73 408.23 435.55 406.56 440.19 C404.28 443.69 402.07 445.61 398.69 448.06 C398.03 448.06 397.37 448.06 396.69 448.06 C397.02 449.05 397.35 450.04 397.69 451.06 C398.08 455.54 398.25 459.67 396.56 463.88 C392.56 468.55 389.99 471.19 383.81 471.88 C382.44 471.96 381.06 472.03 379.69 472.06 C379.52 473.07 379.36 474.08 379.19 475.12 C377.77 480.21 373.88 483.12 369.69 486.06 C366.89 486.99 365.14 487.2 362.25 487.19 C361.49 487.19 360.73 487.19 359.94 487.2 C357.73 487.07 355.81 486.67 353.69 486.06 C353.48 486.64 353.27 487.22 353.06 487.81 C351.03 491.14 349.21 492.33 345.69 494.06 C339.49 494.89 334.9 494.69 329.69 491.06 C326.34 491.54 323.56 493.02 320.57 494.54 C307.21 501.21 294.05 506.94 279.69 511.06 C278.93 511.28 278.16 511.51 277.38 511.73 C269.78 513.9 262.64 515.63 254.69 515.06 C256.44 511.28 258.66 508.95 261.69 506.06 C263.02 504.73 264.36 503.4 265.69 502.06 C264.74 502.2 263.79 502.34 262.81 502.49 C250.12 504.24 237.54 504.42 224.75 504.38 C223.66 504.37 222.58 504.37 221.46 504.37 C205.33 504.32 189.6 503.86 173.69 501.06 C171.89 500.76 171.89 500.76 170.06 500.44 C151.69 497.25 133.66 493.02 115.69 488.06 C116.02 487.07 116.35 486.08 116.69 485.06 C119.05 484.02 121.3 483.17 123.75 482.38 C124.41 482.15 125.08 481.93 125.76 481.69 C127.4 481.14 129.04 480.6 130.69 480.06 C125.77 478.16 120.82 476.42 115.82 474.75 C93.65 467.34 71.89 459.2 51.13 448.34 C48.67 447.05 46.2 445.79 43.73 444.52 C30.7 437.86 17.73 431.12 5 423.92 C2.58 422.56 0.18 421.26 -2.31 420.06 C-2.31 419.07 -2.31 418.08 -2.31 417.06 C0.86 415.48 4.32 415.68 7.81 415.5 C8.57 415.46 9.32 415.41 10.1 415.37 C11.96 415.26 13.82 415.16 15.69 415.06 C14.73 414.41 13.77 413.75 12.79 413.08 C8.41 410.08 4.05 407.08 -0.31 404.06 C-1.02 403.58 -1.72 403.09 -2.45 402.59 C-16.99 392.54 -31.16 381.96 -44.43 370.26 C-46.99 367.79 -46.99 367.79 -50.31 367.06 C-55.29 374.74 -57.56 380.5 -57.55 389.67 C-57.59 402 -57.59 402 -61.11 406.22 C-72.79 415.97 -88.2 421.22 -103.31 420.06 C-108.17 419.1 -111.53 417.73 -115.31 414.5 C-118.72 411.73 -120.93 411.33 -125.13 410.59 C-128.38 409.8 -130.68 408.06 -133.31 406.06 C-136.53 403.92 -136.92 403.9 -140.5 404.19 C-146.27 404.33 -150.72 402.33 -155.04 398.55 C-156.31 397.06 -156.31 397.06 -156.31 395.06 C-157.64 394.72 -157.64 394.72 -159 394.38 C-162.83 392.86 -164.6 391.13 -167.31 388.06 C-168.36 386.95 -168.36 386.95 -169.44 385.81 C-175.51 376.91 -175.62 366.11 -173.94 355.75 C-172.2 346.95 -169.71 338.35 -167.13 329.77 C-166.76 328.5 -166.39 327.24 -166 325.93 C-165.27 323.46 -164.51 320.99 -163.73 318.54 C-161.12 309.74 -161.32 302.97 -163.31 294.06 C-163.57 292.91 -163.82 291.75 -164.08 290.56 C-164.93 286.89 -165.86 283.26 -166.81 279.62 C-166.98 278.97 -167.15 278.31 -167.33 277.64 C-172.13 259.27 -177.91 241.16 -184.51 223.35 C-190.56 206.85 -190.56 206.85 -188.31 201.06 C-185.31 197.57 -181.94 194.88 -178.31 192.06 C-177.12 189.68 -177 187.83 -176.73 185.17 C-173.88 157.99 -169.22 121.98 -147.86 102.3 C-146.4 101.14 -144.86 100.09 -143.31 99.06 C-142.58 96.52 -142.01 94.09 -141.5 91.5 C-139.56 82.38 -136.59 73.78 -133.31 65.06 C-131.99 65.06 -130.67 65.06 -129.31 65.06 C-129.04 66.13 -128.76 67.2 -128.47 68.31 C-128.11 69.71 -127.74 71.1 -127.38 72.5 C-127.19 73.21 -127.01 73.91 -126.82 74.64 C-126.13 78.14 -126.13 78.14 -124.31 81.06 C-123.66 80 -123.01 78.94 -122.34 77.84 C-112.93 62.6 -112.93 62.6 -108.31 57.06 C-107.65 57.06 -106.99 57.06 -106.31 57.06 C-105.95 56.21 -105.95 56.21 -105.58 55.35 C-91.23 29.43 -49.29 12.22 -22.67 4.42 C-6.81 -0.09 -6.81 -0.09 0 0 Z M-62.15 76.43 C-65.01 78.59 -67.88 80.72 -70.75 82.84 C-72.05 83.8 -73.34 84.76 -74.63 85.72 C-77.19 87.62 -79.27 89.05 -82.31 90.06 C-81.96 89.48 -81.61 88.91 -81.25 88.31 C-79.95 85.82 -79.95 85.82 -81.31 82.06 C-83.29 85.69 -85.27 89.32 -87.31 93.06 C-80.94 93.21 -75.08 92.7 -68.81 91.62 C-44.85 87.85 -19.32 87.37 4.74 90.62 C11.33 91.36 17.47 91.28 24 90.06 C42.56 87.04 60.37 90.76 77.12 99 C77.79 99.32 78.45 99.65 79.13 99.98 C82.41 101.65 85.24 103.41 88.04 105.82 C90.36 108.28 90.36 108.28 92.69 108.06 C92.69 108.72 92.69 109.38 92.69 110.06 C97.85 114.45 103.56 115.49 110.06 116.94 C135.56 122.99 157.32 134.3 177.38 151.15 C182.92 156.03 182.92 156.03 189.69 158.06 C194.07 155.16 196.35 151.69 198.75 147.12 C201.08 142.78 203.59 138.91 206.69 135.06 C206.69 134.4 206.69 133.74 206.69 133.06 C205.94 132.81 205.19 132.55 204.41 132.29 C193.86 128.34 185.9 122.53 180.62 112.4 C179.69 110.06 179.69 110.06 179.16 106.59 C177.26 102.03 175.34 101.33 170.96 99.4 C170.02 99.02 169.09 98.64 168.12 98.25 C167.16 97.84 166.2 97.43 165.21 97 C162.05 95.66 158.87 94.36 155.69 93.06 C154.55 92.59 153.41 92.12 152.23 91.64 C146.69 89.36 141.15 87.1 135.58 84.9 C134.68 84.54 133.78 84.19 132.86 83.82 C130.76 82.95 130.76 82.95 128.69 83.06 C128.69 82.07 128.69 81.08 128.69 80.06 C129.82 80.1 130.96 80.15 132.12 80.19 C136.83 80.2 141.15 79.24 145.69 78.06 C111.77 55.45 54.11 55.61 14.69 56.06 C14.69 55.07 14.69 54.08 14.69 53.06 C15.78 52.89 15.78 52.89 16.89 52.72 C19.81 52.03 21.91 51.01 24.5 49.5 C25.69 48.82 25.69 48.82 26.89 48.12 C27.49 47.77 28.08 47.42 28.69 47.06 C28.69 46.73 28.69 46.4 28.69 46.06 C-6.04 44.62 -34.72 55.69 -62.15 76.43 Z M-80.31 80.06 C-79.31 82.06 -79.31 82.06 -79.31 82.06 Z M-67.31 211.06 C-69 215.86 -70.27 220.68 -71.44 225.62 C-71.62 226.37 -71.8 227.11 -71.99 227.87 C-72.89 231.68 -73.55 235.12 -73.31 239.06 C-69.12 236.01 -65.06 232.9 -61.19 229.44 C-58.05 226.64 -54.87 224.29 -51.31 222.06 C-53.98 219.1 -57.12 217.07 -60.44 214.88 C-61.51 214.16 -62.59 213.44 -63.7 212.71 C-65.94 210.97 -65.94 210.97 -67.31 211.06 Z M338.69 287.06 C338.52 288.09 338.36 289.12 338.19 290.19 C336.75 295.22 333.1 297.59 328.69 300.06 C326.37 300.78 324.04 301.45 321.69 302.06 C318.26 303.6 318.26 303.6 315.69 306.06 C315.02 309.51 315.02 309.51 314.69 313.06 C312.77 316.14 311.64 317.73 308.19 318.94 C304.33 320.67 303.5 323.3 301.69 327.06 C301.69 327.72 301.69 328.38 301.69 329.06 C301.13 329.33 300.57 329.6 300 329.88 C297.65 331.01 297.65 331.01 295.56 332.62 C289.54 335.64 283.17 335.31 276.69 334.06 C275.94 335.11 275.19 336.16 274.41 337.25 C268.46 345.46 262.67 352.71 254.69 359.06 C257.79 362.49 261.1 365.14 264.88 367.81 C279.88 378.58 291.36 391.92 301.69 407.06 C302.52 406.55 303.36 406.05 304.22 405.52 C311.81 401.01 319.25 397.48 327.61 394.58 C331.19 392.81 331.74 391.44 333.69 388.06 C342.31 382.16 350.29 380.12 360.69 380.06 C361.03 367.95 360.06 356.46 358.19 344.5 C357.95 342.89 357.7 341.28 357.46 339.67 C356.89 335.8 356.29 331.93 355.69 328.06 C360.26 331.81 363.39 335.12 366.69 340.06 C368.34 336 366.97 332.49 365.75 328.5 C365.53 327.76 365.3 327.02 365.07 326.26 C362.49 318 359.2 310.05 355.63 302.17 C354.79 300.29 353.99 298.39 353.19 296.49 C350.8 291.11 350.8 291.11 346.09 287.96 C343.59 287.43 341.25 287.13 338.69 287.06 Z M145.75 400.38 C128.92 405.56 112.06 407.28 94.62 404.77 C88.73 403.95 82.44 403.14 76.69 405.06 C75.7 405.39 74.71 405.72 73.69 406.06 C76.6 408.4 79.5 410.05 82.89 411.63 C83.92 412.11 84.95 412.59 86.02 413.09 C87.68 413.85 87.68 413.85 89.38 414.62 C90.52 415.15 91.66 415.67 92.83 416.21 C101.02 419.94 109.28 423.46 117.62 426.81 C118.69 427.24 119.76 427.67 120.85 428.12 C121.84 428.51 122.82 428.9 123.84 429.3 C124.71 429.64 125.57 429.98 126.46 430.33 C128.77 431.22 128.77 431.22 131.69 431.06 C131.69 432.05 131.69 433.04 131.69 434.06 C130.81 434.12 129.93 434.18 129.02 434.25 C127.86 434.33 126.7 434.41 125.5 434.5 C124.35 434.58 123.2 434.66 122.02 434.75 C119.17 435.02 116.48 435.44 113.69 436.06 C116.23 438.6 118.27 439 121.71 440.02 C122.97 440.38 124.22 440.75 125.51 441.13 C126.88 441.53 128.25 441.92 129.62 442.31 C130.32 442.51 131.01 442.71 131.72 442.92 C165.01 452.48 206.84 463.94 241.69 457.06 C239.24 455.43 237.45 454.5 234.76 453.5 C206.25 442.7 179.9 426.55 155.69 408.06 C155.85 407.13 156.02 406.21 156.19 405.25 C156.76 402.11 156.76 402.11 156.69 399.06 C152.59 397.7 149.7 399.1 145.75 400.38 Z M240.44 462.56 C239.79 462.9 239.14 463.23 238.47 463.57 C236.87 464.4 235.28 465.23 233.69 466.06 C233.69 466.39 233.69 466.72 233.69 467.06 C246.14 467.46 258.43 466.22 270.69 464.06 C267.15 461.7 263.85 461.16 259.75 460.44 C259.03 460.3 258.32 460.17 257.58 460.03 C250.61 458.77 246.62 459.31 240.44 462.56 Z " fill="#161A67" transform="translate(188.3125,-0.0625)"/>
<path d="M0 0 C2.53 1.96 4.94 4 7.32 6.12 C8.37 7.03 8.37 7.03 9.44 7.95 C21.92 19.48 28.69 35.57 29.58 52.33 C30.24 71.24 24.15 87.08 11.51 101.06 C-0.85 114.16 -19.12 122.72 -37.17 123.32 C-48.08 123.5 -58.06 122.72 -68.68 120.12 C-69.79 119.87 -70.91 119.61 -72.06 119.35 C-87.51 115.29 -99.8 105.61 -108.05 92.07 C-110.72 87.23 -112.8 82.31 -114.68 77.12 C-115.07 76.11 -115.46 75.1 -115.87 74.06 C-119.75 62.78 -121.91 47.3 -117.23 35.99 C-115.28 32.45 -113.14 29.33 -110.68 26.12 C-109.89 25.02 -109.12 23.92 -108.34 22.81 C-96.03 5.66 -80.42 -8.03 -59.22 -12.48 C-38.51 -15.73 -17.3 -12.15 0 0 Z " fill="#008EFC" transform="translate(268.67578125,111.87890625)"/>
<path d="M0 0 C0.79 0.12 1.58 0.24 2.4 0.36 C9.04 1.46 15.53 3 21.25 6.62 C25.48 13.31 23.32 22.12 21.68 29.5 C21.02 32.38 20.32 35.25 19.62 38.12 C19.26 39.66 18.9 41.2 18.54 42.74 C17.62 46.64 16.68 50.53 15.74 54.43 C15.21 56.61 14.68 58.79 14.15 60.98 C11.61 71.53 11.61 71.53 10.45 76.27 C5.15 94.04 5.15 94.04 8.53 111.48 C13.39 117.94 19.6 123.67 25.88 128.75 C33.65 135.22 44.41 147.22 45.5 157.69 C45.35 165.7 39.77 179.11 34.19 184.69 C32.52 184.73 30.85 184.73 29.19 184.69 C29.22 183.57 29.26 182.45 29.29 181.29 C29.32 179.82 29.35 178.35 29.38 176.88 C29.4 176.14 29.43 175.4 29.45 174.64 C29.57 170.37 29.57 170.37 27.68 166.68 C27.18 166.35 26.69 166.02 26.19 165.69 C26.11 166.45 26.02 167.21 25.94 168 C25.29 171.21 24.42 173.48 23.12 176.44 C20.12 184.26 20.86 192.45 21.19 200.69 C22.18 198.38 23.17 196.07 24.19 193.69 C27.16 193.69 30.13 193.69 33.19 193.69 C33.48 198.22 33.4 202.29 32.19 206.69 C28.97 209.98 25.31 211.73 21.19 213.69 C20.56 214.12 19.93 214.55 19.28 214.99 C14.69 218.02 9.91 218.13 4.56 218.25 C3.83 218.28 3.1 218.3 2.35 218.33 C-1.57 218.3 -4.09 217.87 -7.21 215.4 C-9.37 213.15 -10.74 211.58 -11.81 208.69 C-12.81 208.88 -12.81 208.88 -13.82 209.08 C-16.55 209.51 -19.05 209.8 -21.81 209.69 C-24.94 207.38 -24.94 207.38 -26.81 204.69 C-26.81 204.03 -26.81 203.37 -26.81 202.69 C-27.9 202.77 -28.98 202.85 -30.1 202.93 C-41.55 203.54 -41.55 203.54 -44.93 201.27 C-46.31 199.44 -46.31 199.44 -47.53 197.48 C-49.09 195.3 -50.42 194.72 -52.88 193.69 C-57.26 191.74 -59.64 188.93 -61.81 184.69 C-65.74 172.52 -61.15 159.43 -57.81 147.69 C-57.48 146.5 -57.48 146.5 -57.13 145.29 C-56.09 141.65 -55.02 138.03 -53.9 134.41 C-52.78 130.82 -52.78 130.82 -52.25 127.62 C-51.47 123.54 -50.79 121.43 -47.42 118.86 C-37.41 113.45 -26.52 111.53 -15.27 110.9 C-12.68 110.77 -12.68 110.77 -9.81 109.69 C-12.78 108.04 -15.75 106.39 -18.81 104.69 C-18.81 74 -18.81 43.31 -18.81 11.69 C-23.43 11.69 -28.05 11.69 -32.81 11.69 C-32.76 12.73 -32.7 13.78 -32.64 14.86 C-32.61 15.56 -32.57 16.25 -32.53 16.97 C-32.45 18.54 -32.37 20.12 -32.28 21.69 C-32.05 26.05 -31.82 30.41 -31.6 34.76 C-31.07 45.12 -31.07 45.12 -30.46 55.47 C-29.47 71.52 -29.72 87.61 -29.81 103.69 C-32.29 104.18 -32.29 104.18 -34.81 104.69 C-34.86 103.4 -34.9 102.11 -34.95 100.79 C-36.4 57.98 -36.4 57.98 -42.81 15.69 C-48.8 15.43 -53.42 16.18 -59.06 18.12 C-68.66 21.31 -68.66 21.31 -70.81 21.69 C-71.81 20.69 -71.81 20.69 -72.25 17.44 C-71.81 13.69 -71.81 13.69 -69.5 11.06 C-50.01 -2.73 -22.7 -3.4 0 0 Z " fill="#008EFD" transform="translate(86.8125,191.3125)"/>
<path d="M0 0 C0.66 0 1.32 0 2 0 C3.46 1.93 4.8 3.86 6.12 5.88 C9.51 10.9 13.02 15.72 16.88 20.4 C18.23 22.06 19.58 23.74 20.91 25.42 C26.58 32.55 32.72 39.03 39.18 45.44 C40.87 47.12 42.55 48.81 44.23 50.5 C50.85 57.13 57.66 63.18 65 69 C66.17 69.98 67.34 70.97 68.5 71.97 C74.76 77.36 81.14 82.46 87.83 87.32 C88.55 87.87 89.26 88.43 90 89 C90 89.33 90 89.66 90 90 C84.72 90 79.44 90 74 90 C96.67 111.68 124.07 127.1 152 141 C153.28 141.64 153.28 141.64 154.59 142.29 C163.56 146.73 172.54 150.83 182.02 154.06 C185.33 155.22 187.78 156.21 190 159 C188.86 159.2 187.71 159.41 186.54 159.62 C185.04 159.89 183.55 160.17 182.06 160.44 C181.31 160.57 180.55 160.71 179.78 160.85 C176.08 161.24 176.08 161.24 173 163 C191.77 172.68 212.57 178.08 233 183 C233.95 183.23 234.89 183.46 235.87 183.69 C258.39 189.06 280.84 192.92 304 194 C301.1 196.53 298.25 198.46 294.81 200.14 C294.1 200.49 293.38 200.84 292.64 201.2 C292.1 201.47 291.56 201.73 291 202 C296.6 202.02 302.2 202.04 307.8 202.05 C309.7 202.06 311.6 202.07 313.5 202.08 C351.86 202.25 380.35 193.96 411 171 C412 174 412 174 411 176.5 C409 179 409 179 405.56 180.44 C401.25 182.33 400 183.76 398 188 C397.18 194.37 398.47 198.67 402 204 C403.58 205.89 405.2 207.7 406.93 209.46 C407.28 209.97 407.63 210.48 408 211 C407 214 407 214 403.86 215.83 C402.5 216.5 401.12 217.16 399.75 217.81 C399.02 218.16 398.3 218.51 397.55 218.87 C396.06 219.59 394.58 220.3 393.09 221 C391.27 221.87 389.48 222.77 387.68 223.68 C381.38 226.79 375.06 229.04 368.31 230.94 C367.52 231.16 366.73 231.39 365.91 231.62 C360.26 233.13 360.26 233.13 358 232 C361.63 228.04 365.26 224.08 369 220 C366.02 220 363.57 220.44 360.66 221.06 C359.6 221.28 358.53 221.5 357.44 221.73 C355.22 222.19 353.01 222.66 350.79 223.13 C321.21 229.25 286.67 228.33 257 223 C255.68 222.77 254.36 222.54 253.04 222.32 C248.75 221.57 244.47 220.79 240.19 220 C239.5 219.87 238.82 219.75 238.11 219.62 C236.17 219.26 234.23 218.88 232.29 218.5 C231.17 218.28 230.06 218.07 228.9 217.84 C225.98 216.99 224.27 215.99 222 214 C223.06 213.65 224.12 213.3 225.21 212.94 C226.6 212.48 227.99 212.02 229.38 211.56 C230.42 211.22 230.42 211.22 231.49 210.87 C235.32 209.61 235.32 209.61 239 208 C238.3 207.82 237.61 207.64 236.89 207.46 C191.35 195.58 143.29 179.66 104 153 C104 152.67 104 152.34 104 152 C110.27 151.67 116.54 151.34 123 151 C120.81 149.66 118.63 148.32 116.38 146.94 C99 136.14 82.33 124.3 66 112 C65.07 111.31 65.07 111.31 64.13 110.6 C56.84 105.12 49.8 99.38 42.88 93.45 C40.08 90.97 40.08 90.97 37.12 89.08 C35 87 35 87 34.76 84.04 C34.88 82.91 35 81.79 35.12 80.62 C35.5 69.79 30.57 61.56 23.5 53.62 C22 52.08 20.5 50.54 19 49 C17.89 47.69 16.78 46.38 15.69 45.06 C12.2 41.03 8.29 37.52 4.26 34.03 C0.31 30.54 -3.68 26.93 -4.28 21.46 C-4.17 20.63 -4.05 19.8 -3.94 18.94 C-3.81 18 -3.69 17.07 -3.56 16.1 C-2.58 10.68 -1.35 5.34 0 0 Z " fill="#FBDB46" transform="translate(105,271)"/>
<path d="M0 0 C-1.59 3.9 -4.13 6.34 -7.12 9.25 C-8.04 10.14 -8.95 11.03 -9.88 11.95 C-10.93 12.97 -10.93 12.97 -12 14 C-11.48 13.81 -10.96 13.61 -10.42 13.41 C3.3 8.56 17.58 7.88 32.02 7.73 C33.13 7.71 34.25 7.7 35.4 7.69 C56.5 7.5 77.43 7.48 98.38 10.25 C99.55 10.4 99.55 10.4 100.74 10.56 C109.23 11.7 117.61 13.25 125.98 15.05 C126.75 15.21 127.52 15.37 128.32 15.54 C133.76 16.76 133.76 16.76 136 19 C133.73 19.84 131.46 20.67 129.19 21.5 C128.54 21.74 127.9 21.98 127.24 22.22 C124.35 23.27 122.1 24 119 24 C119 24.66 119 25.32 119 26 C120 26.24 121.01 26.48 122.04 26.73 C130.06 28.69 137.99 30.79 145.85 33.31 C148.55 34.17 151.25 35.01 153.95 35.86 C156.15 36.55 158.36 37.24 160.56 37.94 C161.6 38.26 162.64 38.59 163.72 38.92 C170.06 40.93 176.17 43.25 182.28 45.87 C184.55 46.81 186.8 47.65 189.14 48.41 C198.49 51.6 203.32 55.86 209 64 C210.25 65.52 211.52 67.02 212.81 68.5 C213.33 69.11 213.86 69.72 214.39 70.34 C215.96 72.09 215.96 72.09 218.08 73.31 C220 75 220 75 220.45 77.18 C220.42 78.41 220.42 78.41 220.39 79.67 C220.37 81.01 220.37 81.01 220.35 82.37 C220.3 83.77 220.3 83.77 220.25 85.19 C220.23 86.13 220.21 87.07 220.2 88.04 C220.15 90.36 220.08 92.68 220 95 C212.46 95.54 207.88 94.03 201.25 90.56 C199.42 89.64 197.59 88.73 195.75 87.82 C194.81 87.35 193.87 86.88 192.91 86.4 C187.2 83.65 181.34 81.27 175.49 78.87 C174.65 78.52 173.82 78.17 172.95 77.81 C172.21 77.51 171.47 77.21 170.71 76.89 C169 76 169 76 168 74 C176.42 72.52 176.42 72.52 185 71 C171.53 65.07 157.96 59.78 144 55.12 C143.32 54.9 142.64 54.67 141.94 54.43 C126.69 49.32 111.69 45.6 95.69 43.81 C94.24 43.64 92.79 43.47 91.34 43.3 C82.14 42.25 72.94 41.47 63.68 41.18 C60.04 41 56.59 40.57 53 40 C55.48 37.21 58.23 35.59 61.5 33.81 C62.46 33.28 63.42 32.75 64.41 32.21 C67 31 67 31 70 31 C70 30.34 70 29.68 70 29 C63.03 29.07 56.06 29.16 49.09 29.26 C46.73 29.3 44.36 29.32 42 29.35 C28.7 29.48 15.95 29.75 3 33 C2.15 33.21 1.31 33.42 0.43 33.63 C-1.64 34.19 -3.66 34.81 -5.69 35.5 C-6.42 35.75 -7.15 35.99 -7.9 36.25 C-22.09 41.33 -35.32 48.89 -47.29 58 C-49.49 59.63 -51.51 60.89 -54 62 C-53.38 58.39 -52.39 55.2 -51 51.81 C-50.65 50.95 -50.3 50.09 -49.94 49.21 C-49.33 47.79 -48.69 46.38 -48 45 C-64.2 55.11 -72.38 67.36 -81 84 C-89.58 84 -98.16 84 -107 84 C-104.9 77.69 -103.1 72.81 -99.62 67.38 C-99.19 66.69 -98.76 66.01 -98.32 65.31 C-79.71 36.81 -36.54 0 0 0 Z " fill="#FADA46" transform="translate(174,10)"/>
<path d="M0 0 C27.38 4.27 52.66 22.03 72 41 C70.4 44.2 67.6 44.45 64.31 45.62 C63.09 46.07 61.87 46.52 60.61 46.98 C56.29 48.2 52.91 48.98 48.8 46.87 C48.17 46.4 47.53 45.92 46.88 45.44 C44.21 43.42 44.21 43.42 41 43.05 C32.24 47.22 26.86 62.08 23.62 70.64 C16.97 87.54 16.97 87.54 17.74 104.88 C18.77 106.81 19.89 108.65 21.06 110.5 C32.16 129.1 44.14 153.94 41 176 C38.82 183.04 35.04 187.64 29.75 192.62 C28.73 193.61 28.73 193.61 27.7 194.61 C25.81 196.42 23.91 198.22 22 200 C21.27 200.68 20.55 201.36 19.8 202.06 C15.21 206.19 10.34 210.03 5.56 213.94 C4.84 214.53 4.12 215.12 3.37 215.73 C2.69 216.29 2.01 216.84 1.32 217.4 C0.7 217.9 0.09 218.4 -0.54 218.92 C-2 220 -2 220 -3 220 C-2.88 218.85 -2.75 217.69 -2.62 216.5 C-2.54 215.67 -2.45 214.83 -2.36 213.97 C-2.1 211.87 -1.81 209.78 -1.49 207.68 C1.32 188.56 0.81 169.74 -3.62 150.95 C-4.14 148.28 -4.14 145.7 -4 143 C-4.95 143.82 -5.9 144.65 -6.88 145.5 C-9.75 148 -9.75 148 -12 148 C-12.01 147.2 -12.03 146.4 -12.04 145.58 C-12.12 141.82 -12.21 138.07 -12.31 134.31 C-12.33 133.63 -12.34 132.95 -12.36 132.25 C-12.59 123.37 -13.39 114.86 -15.06 106.12 C-16.49 97.99 -16.49 97.99 -14.73 94.43 C-12.75 92.56 -12.75 92.56 -10.46 90.93 C-7.34 88.49 -5.39 85.57 -3.31 82.25 C-2.93 81.65 -2.55 81.04 -2.16 80.42 C1.23 74.86 3.87 69.16 6 63 C6.32 62.14 6.64 61.28 6.96 60.39 C13.25 40.31 8.57 18.54 0 0 Z " fill="#008EFC" transform="translate(298,127)"/>
<path d="M0 0 C2.35 0.01 4.7 0.01 7.05 0.01 C12.76 0.02 18.47 0.04 24.19 0.06 C21.64 2.65 19.13 4.93 16.19 7.06 C0.51 19.25 -10.73 34.98 -18.81 53.06 C-19.52 52.92 -20.23 52.77 -20.95 52.62 C-34.29 50.21 -48.63 49.55 -61.81 53.06 C-60.35 58.56 -57.7 62.57 -54.44 67.12 C-53.91 67.87 -53.38 68.61 -52.83 69.38 C-41.34 85.17 -27.74 98.75 -8.81 105.06 C-7.28 107.21 -7.28 107.21 -5.75 109.88 C-5.24 110.75 -4.74 111.62 -4.21 112.52 C-3.02 114.68 -1.89 116.85 -0.81 119.06 C-6.44 118.55 -10.63 117.04 -15.62 114.44 C-16.33 114.08 -17.03 113.72 -17.75 113.34 C-33.69 105 -47.6 92.07 -58.81 78.06 C-58.81 80.37 -58.81 82.68 -58.81 85.06 C-62.27 84.25 -65.73 83.44 -69.19 82.62 C-70.17 82.39 -71.16 82.16 -72.17 81.93 C-73.11 81.71 -74.05 81.48 -75.02 81.25 C-75.89 81.05 -76.76 80.85 -77.66 80.64 C-79.81 80.06 -79.81 80.06 -81.81 79.06 C-83.83 78.96 -85.85 78.93 -87.88 78.94 C-88.96 78.93 -90.04 78.93 -91.16 78.93 C-95.41 79.08 -99.59 79.54 -103.81 80.06 C-104.61 56.29 -103.28 37.27 -89.81 17.06 C-102.77 18.42 -111.44 21.98 -120.81 31.06 C-121.92 28.29 -121.85 27.16 -120.84 24.29 C-116.24 15.15 -111.9 8.94 -102.35 4.87 C-97.95 3.47 -93.71 3.63 -89.14 3.78 C-88.15 3.79 -87.15 3.8 -86.12 3.82 C-82.96 3.86 -79.79 3.93 -76.62 4 C-59.09 4.5 -59.09 4.5 -41.85 1.8 C-28.46 -1.44 -13.67 -0.05 0 0 Z " fill="#008EFC" transform="translate(159.8125,98.9375)"/>
<path d="M0 0 C1.11 -0 1.11 -0 2.25 -0 C3.8 -0 5.36 -0 6.91 0 C9.3 0.01 11.69 0 14.08 -0 C15.6 -0 17.11 -0 18.62 0 C19.34 -0 20.06 -0 20.8 -0.01 C25.8 0.02 25.8 0.02 26.91 1.13 C27.05 3.4 27.15 5.67 27.23 7.95 C27.85 19.53 31.31 31.53 39.73 39.95 C41.71 41.55 43.7 42.86 45.91 44.13 C46.61 44.55 47.3 44.96 48.02 45.38 C57.86 50.25 70.36 48.85 80.91 47.13 C77.26 58.83 66.39 67.88 56.08 73.59 C38.89 81.95 16.08 83.37 -2.09 77.13 C-15.72 71.68 -27.63 62.95 -33.93 49.31 C-39.67 35.9 -41.44 23.64 -41.09 9.13 C-35.34 6.21 -29.71 4.4 -23.46 2.95 C-22.74 2.78 -22.03 2.61 -21.29 2.44 C-14.19 0.85 -7.29 -0.02 0 0 Z " fill="#151967" transform="translate(200.0859375,141.8671875)"/>
<path d="M0 0 C10.5 3.84 22.97 9.24 28.19 19.56 C28.66 20.65 29.12 21.74 29.61 22.86 C31.86 27.94 35.34 31.87 39 36 C39.58 36.66 40.15 37.32 40.75 38 C46.63 44.31 53.58 48.54 62.25 49.27 C74.51 49.61 83.26 46.41 93 39 C93.66 39 94.32 39 95 39 C95.09 43.4 95.14 47.79 95.19 52.19 C95.21 53.43 95.24 54.68 95.26 55.96 C95.27 57.16 95.28 58.37 95.29 59.61 C95.31 60.71 95.32 61.82 95.34 62.95 C94.96 66.4 94.11 68.27 92 71 C88.91 71.72 86.99 71.54 84.18 70.01 C82.86 69.14 81.54 68.26 80.23 67.37 C77.01 65.39 73.57 64.22 70 62.99 C69.34 62.66 68.68 62.34 68 62 C67.67 61.01 67.34 60.02 67 59 C66.34 59 65.68 59 65 59 C66.33 65.91 66.33 65.91 71 71 C71.66 71.33 72.32 71.66 73 72 C72.71 72.52 72.42 73.03 72.12 73.56 C70.71 76.62 69.92 79.77 69 83 C68.67 83.33 68.34 83.66 68 84 C53.15 83.38 42.66 69.84 33 60 C32 59 31 58 30 57 C26.67 62.54 27.06 68.79 28 75 C31.92 84.05 38.08 91.34 45.94 97.19 C46.62 97.79 47.3 98.38 48 99 C48 100.32 48 101.64 48 103 C46.56 103.05 45.13 103.09 43.69 103.12 C42.49 103.16 42.49 103.16 41.26 103.2 C39 103 39 103 36 101 C36.69 105.34 36.69 105.34 37.88 109.56 C38 112 38 112 35.62 114.75 C34.76 115.49 33.89 116.24 33 117 C32.67 117.33 32.34 117.66 32 118 C27.96 118.79 24.42 118.73 20.72 116.82 C14.41 112.17 9.75 106.17 5 100 C4.23 99.03 3.46 98.07 2.67 97.07 C-4.17 88.39 -10.4 79.33 -16.55 70.15 C-17.82 68.27 -19.11 66.41 -20.42 64.55 C-21.06 63.61 -21.71 62.66 -22.38 61.69 C-22.92 60.91 -23.46 60.13 -24.02 59.32 C-26.68 52.99 -21.79 44.58 -19.53 38.52 C-17.63 33.29 -16.46 28.55 -16 23 C-14.06 24.86 -12.22 26.72 -10.56 28.84 C-5.97 34.6 -0.8 38.14 6 41 C6.99 41 7.98 41 9 41 C8.6 40.28 8.2 39.57 7.79 38.83 C0.94 25.94 -0.5 14.31 0 0 Z " fill="#008EFC" transform="translate(446,207)"/>
<path d="M0 0 C0.32 2.04 0.63 4.08 0.94 6.12 C1.11 7.26 1.29 8.4 1.46 9.57 C3.06 21.82 3.13 34.05 3.06 46.38 C3.06 48 3.05 49.62 3.05 51.24 C3.04 55.16 3.02 59.08 3 63 C3.55 62.42 4.11 61.85 4.68 61.25 C5.4 60.51 6.13 59.76 6.88 59 C7.59 58.26 8.31 57.51 9.05 56.75 C11 55 11 55 13 55 C14.6 63.87 15.33 72.43 15.25 81.44 C15.24 83.22 15.24 83.22 15.23 85.03 C15.05 99.79 12.19 112.91 8 127 C23.1 123.66 38.2 120.29 53.29 116.91 C55.04 116.51 56.79 116.12 58.54 115.73 C61.03 115.17 63.53 114.61 66.03 114.05 C66.81 113.87 67.6 113.7 68.41 113.52 C73.82 112.29 79.2 110.96 84.56 109.5 C87.1 108.98 89.41 108.91 92 109 C91.09 110.09 90.17 111.17 89.25 112.25 C88.74 112.85 88.23 113.46 87.7 114.08 C85.88 116.14 83.95 118.06 82 120 C89.6 118.04 96.99 115.7 104.38 113.06 C125.73 105.54 125.73 105.54 134 104 C132.57 107.1 130.86 109.64 128.75 112.31 C128.19 113.03 127.63 113.75 127.05 114.49 C126.03 115.73 126.03 115.73 125 117 C124.63 117.56 124.27 118.12 123.89 118.7 C119.32 125.07 113.24 126.33 105.94 128.31 C103.34 129.06 100.75 129.82 98.16 130.57 C97.49 130.77 96.83 130.96 96.14 131.16 C91.3 132.57 86.53 134.15 81.78 135.83 C81.12 136.07 80.46 136.3 79.77 136.54 C76.58 137.68 73.38 138.83 70.19 139.99 C68.47 140.6 68.47 140.6 66.71 141.23 C65.71 141.59 64.7 141.96 63.66 142.34 C61 143 61 143 57 142 C59.97 139.03 62.94 136.06 66 133 C58.36 133.63 51 134.88 43.5 136.44 C42.44 136.65 41.37 136.87 40.28 137.1 C38.16 137.53 36.05 137.96 33.94 138.4 C30.61 139.08 27.27 139.75 23.94 140.41 C21.6 140.88 19.25 141.35 16.91 141.83 C12.97 142.63 9.03 143.41 5.08 144.2 C3.43 144.53 1.78 144.86 0.13 145.19 C-2.27 145.68 -4.68 146.16 -7.09 146.64 C-7.82 146.79 -8.56 146.94 -9.31 147.1 C-12.8 147.78 -15.62 148.31 -19 147 C-18.45 142.34 -17.52 138 -16.24 133.5 C-11.04 115.18 -10.54 96.95 -10 78 C-10.77 78.64 -11.54 79.28 -12.34 79.93 C-13.34 80.76 -14.34 81.59 -15.38 82.44 C-16.37 83.26 -17.37 84.08 -18.4 84.93 C-21 87 -21 87 -23 88 C-22.55 83.39 -22 78.97 -20.97 74.45 C-19.5 66.46 -19.74 58.41 -19.79 50.31 C-19.81 47.57 -19.81 44.83 -19.81 42.09 C-19.82 40.31 -19.83 38.53 -19.83 36.75 C-19.83 35.46 -19.83 35.46 -19.84 34.15 C-19.88 29.38 -20.24 24.82 -20.93 20.09 C-21.36 15.59 -21.36 15.59 -19.85 13.12 C-18.12 11.48 -16.4 10.26 -14.38 9 C-13.74 8.56 -13.11 8.13 -12.46 7.68 C-11.23 6.82 -9.99 5.99 -8.73 5.17 C-6.76 3.88 -6.76 3.88 -4.16 1.69 C-2 0 -2 0 0 0 Z " fill="#F8D946" transform="translate(276,230)"/>
<path d="M0 0 C6.48 29.62 -0.71 59.55 -9 88 C-1.37 81.8 -1.37 81.8 6.12 75.44 C9 73 9 73 10 73 C10.12 79.2 9.76 85.01 8.75 91.12 C8.62 91.94 8.49 92.75 8.35 93.59 C7.07 101.21 5.18 108.59 3 116 C-10.59 115.76 -20.87 112.1 -31 103 C-31.74 102.35 -32.48 101.71 -33.24 101.04 C-46.28 88.9 -53.7 72.13 -59.44 55.56 C-59.7 54.83 -59.96 54.1 -60.22 53.34 C-62.17 47.44 -63.52 40.91 -60.62 35.06 C-52.74 21.17 -36.15 15.32 -21.89 10.3 C-15.74 8.07 -10.28 4.93 -4.7 1.54 C-2 0 -2 0 0 0 Z " fill="#008EFC" transform="translate(248,252)"/>
<path d="M0 0 C19.44 8.02 36.13 18.19 52 32 C52.83 32.72 52.83 32.72 53.68 33.45 C74.79 51.86 102.88 83 105.2 112.59 C105.3 118.13 105.32 122.31 102 127 C97.79 131 97.79 131 94 131 C93.89 130 93.89 130 93.77 128.98 C92.8 122.19 90.83 117.29 87.14 111.51 C85.74 108.42 86.11 107.22 87 104 C88.41 92.35 84.88 83.74 78.14 74.43 C72.45 67.67 65.14 60.63 57 57 C57.89 57.95 58.77 58.9 59.69 59.88 C67.66 69.22 71.59 80.82 71 93 C67.27 89.43 64.11 85.63 61 81.5 C51.83 69.63 41.26 59.63 29 51 C27.92 50.24 26.85 49.48 25.74 48.7 C-1.49 30.11 -32.56 22.63 -65.16 22.55 C-75.84 22.41 -86.43 20.81 -95 14 C-95.78 13.46 -96.57 12.93 -97.38 12.38 C-97.91 11.92 -98.45 11.47 -99 11 C-99 10.34 -99 9.68 -99 9 C-97.82 8.96 -96.65 8.93 -95.43 8.89 C-86.11 8.53 -76.99 7.8 -67.75 6.44 C-43.07 2.96 -19.2 5.69 5 11 C4.64 10.37 4.28 9.75 3.91 9.1 C3.21 7.88 3.21 7.88 2.5 6.62 C1.8 5.41 1.8 5.41 1.09 4.16 C0 2 0 2 0 0 Z " fill="#008CFA" transform="translate(485,49)"/>
<path d="M0 0 C3.37 1.37 6.55 3.03 9.75 4.75 C10.67 5.24 11.58 5.72 12.53 6.22 C30.49 15.98 47.15 28.4 62.11 42.32 C63.9 44.06 63.9 44.06 66 45 C65.6 48.31 64.89 50.16 63.06 53 C60.35 57.43 60.01 62.23 59.39 67.3 C59 70 59 70 58 71 C51.81 71.59 46.13 70.64 40.19 69 C38.96 68.67 38.96 68.67 37.72 68.33 C16.14 62.21 -4.83 52.15 -23 39 C-24.21 38.19 -25.43 37.38 -26.64 36.57 C-27.87 35.71 -29.09 34.86 -30.31 34 C-30.9 33.62 -31.48 33.24 -32.08 32.85 C-33.68 31.69 -33.68 31.69 -36 29 C-35.97 25.91 -35.78 23.89 -35 21 C-34.75 20.04 -34.5 19.08 -34.24 18.09 C-33.26 15.34 -32.18 12.67 -31 10 C-30.66 9.2 -30.32 8.41 -29.96 7.59 C-28.51 5.02 -27.46 3.67 -25 2 C-20.8 1.03 -16.77 0.54 -12.48 0.25 C-1.96 -0.51 -1.96 -0.51 0 0 Z " fill="#008EFD" transform="translate(402,381)"/>
<path d="M0 0 C3.15 2.9 5.21 5.77 7.28 9.51 C8.17 11.11 8.17 11.11 9.08 12.75 C9.7 13.86 10.31 14.98 10.94 16.12 C11.55 17.22 12.15 18.31 12.78 19.43 C14.54 22.61 16.28 25.8 18 29 C18.79 30.45 18.79 30.45 19.59 31.93 C20.06 32.82 20.52 33.7 21 34.62 C21.42 35.39 21.83 36.17 22.25 36.97 C23 39 23 39 22 42 C17.38 39.03 12.76 36.06 8 33 C9.49 38.32 11.1 43.38 13.31 48.44 C19.4 62.77 23.23 77.71 26 93 C26.23 94.2 26.45 95.41 26.69 96.65 C30.15 118.03 28.4 140.09 23 161 C20 160 20 160 17.81 157.56 C14.21 154.28 11.73 153.88 7 153 C6.72 151.33 6.72 151.33 6.44 149.62 C4.97 143.69 1.19 136.99 -4.08 133.7 C-6 132 -6 132 -6.53 129.52 C-6.54 128.56 -6.56 127.59 -6.57 126.59 C-6.62 124.98 -6.62 124.98 -6.66 123.34 C-6.67 122.22 -6.68 121.09 -6.69 119.94 C-6.73 117.74 -6.78 115.54 -6.82 113.34 C-6.85 112.28 -6.87 111.22 -6.89 110.12 C-7.05 105.72 -7.48 101.37 -8 97 C-4.08 100.8 -0.51 104.82 3 109 C5.38 84.74 -5.16 56.61 -17.27 35.83 C-18.23 33.42 -17.92 32.4 -17 30 C-16.19 28.51 -15.35 27.03 -14.5 25.56 C-12.22 21.24 -11.75 17.99 -11.69 13.12 C-11.48 7.45 -11.48 7.45 -9.28 5.39 C-7.12 4.38 -7.12 4.38 -5.01 3.71 C-2.7 2.89 -1.6 1.82 0 0 Z " fill="#F9DA46" transform="translate(562,253)"/>
<path d="M0 0 C18.27 -0.8 35.02 4.59 49.15 16.35 C53.22 20.14 56.13 24.27 59 29 C61.84 33.37 64.21 36.67 69 39 C72.34 39.57 72.34 39.57 75.81 39.69 C77.55 39.79 77.55 39.79 79.33 39.89 C80.21 39.92 81.09 39.96 82 40 C82.59 45.79 82.37 49.71 78.63 54.31 C76.2 56.83 73.59 59.11 70.87 61.32 C68.91 62.97 68.91 62.97 67.38 65.21 C66.93 65.8 66.47 66.39 66 67 C65.34 67 64.68 67 64 67 C62.87 65.36 61.82 63.66 60.81 61.94 C54.93 52.47 47.19 45.21 36.46 41.5 C28.01 39.77 19.23 40.31 11.15 43.25 C10.44 43.49 9.73 43.74 9 44 C7.87 44.42 7.87 44.42 6.73 44.86 C2.46 45.08 -0.41 43.01 -4 40.88 C-4.7 40.48 -5.4 40.09 -6.12 39.69 C-10.38 37.23 -13.69 34.64 -17 31 C-14.38 29.52 -11.75 28.04 -9.12 26.56 C-8.38 26.14 -7.63 25.72 -6.86 25.29 C-5.79 24.68 -5.79 24.68 -4.7 24.07 C-4.04 23.69 -3.38 23.32 -2.7 22.94 C-1.48 22.27 -0.24 21.62 1 21 C0.75 19.7 0.75 19.7 0.5 18.38 C-0.39 12.3 -0.08 6.12 0 0 Z " fill="#008DFC" transform="translate(485,145)"/>
<path d="M0 0 C3.54 2.72 6.34 5.63 9.25 9 C13.59 13.55 17.87 14.28 23.83 15.1 C35.63 16.81 45.32 23.32 54.06 31.19 C54.65 31.69 55.24 32.2 55.84 32.72 C62.35 38.72 70.24 47.72 73.06 56.19 C69.99 54.78 67.28 53.01 64.49 51.12 C56.73 45.87 48.93 42.23 40.06 39.19 C39.01 38.81 37.95 38.43 36.86 38.04 C31.63 36.87 26.59 36.94 21.25 37 C20.2 37 19.15 37 18.07 37 C12.9 36.81 12.9 36.81 8.06 38.19 C-18.79 40.59 -18.79 40.59 -28.94 32.19 C-31.91 29.39 -34.64 26.57 -36.94 23.19 C-36.94 22.53 -36.94 21.87 -36.94 21.19 C-35.38 21.43 -35.38 21.43 -33.78 21.68 C-27.68 22.45 -21.57 22.29 -15.44 22.25 C-14.23 22.25 -13.03 22.24 -11.79 22.24 C-8.84 22.22 -5.89 22.21 -2.94 22.19 C-7.15 17 -11.21 12.83 -16.94 9.38 C-17.8 8.82 -17.8 8.82 -18.69 8.26 C-25.91 3.75 -33.06 1.54 -41.38 0 C-42.3 -0.18 -43.22 -0.35 -44.17 -0.54 C-46.42 -0.97 -48.68 -1.39 -50.94 -1.81 C-48.61 -4.24 -46.66 -5.6 -43.56 -6.94 C-42.81 -7.27 -42.06 -7.6 -41.29 -7.95 C-26.94 -13.24 -12.05 -8.42 0 0 Z " fill="#008CFA" transform="translate(465.9375,92.8125)"/>
<path d="M0 0 C5.38 5.42 7.99 11.12 8.38 18.75 C8.18 26.69 4.87 33.98 -0.02 40.18 C-6.9 46.52 -15.99 49.4 -25.15 49.27 C-31.52 48.67 -35.53 45.79 -39.81 41.19 C-45.16 34.52 -46.64 28.77 -46.41 20.28 C-45.28 11.22 -39.89 4.66 -33 -1 C-22.89 -7.27 -9.61 -6.98 0 0 Z " fill="#FBDC46" transform="translate(536,203)"/>
<path d="M0 0 C-6.95 21.87 -6.95 21.87 -14.41 26.5 C-19.89 28.86 -25.58 30.21 -31.4 31.43 C-34.93 32.21 -38.26 33.33 -41.69 34.5 C-46.63 36.12 -46.63 36.12 -50 35 C-49.01 34.01 -49.01 34.01 -48 33 C-56.38 33.71 -64.49 35.47 -72.69 37.25 C-74.16 37.56 -75.63 37.88 -77.1 38.19 C-83.73 39.61 -90.35 41.06 -96.95 42.61 C-97.96 42.85 -98.98 43.08 -100.02 43.33 C-101.88 43.77 -103.74 44.21 -105.59 44.67 C-106.4 44.86 -107.22 45.05 -108.05 45.25 C-108.75 45.42 -109.45 45.59 -110.16 45.77 C-112 46 -112 46 -115 45 C-109.1 39.58 -103.1 34.35 -96.85 29.34 C-94.87 27.72 -92.93 26.05 -91.02 24.35 C-77.52 12.34 -61 10.02 -43.39 9.55 C-42.59 9.53 -41.79 9.5 -40.97 9.48 C-37.72 9.39 -34.48 9.32 -31.23 9.29 C-20.46 9.18 -13.23 8.08 -4.38 1.7 C-2 0 -2 0 0 0 Z " fill="#008CFA" transform="translate(429,297)"/>
<path d="M0 0 C4.42 0.46 7.1 3.47 10.25 6.31 C17.18 12.41 24.41 17.95 31.85 23.41 C34.08 25.06 36.29 26.73 38.5 28.41 C49.29 36.56 60.44 43.86 72.03 50.8 C73.71 51.83 75.36 52.91 77 54 C76.35 57.83 74.55 60.53 72.44 63.75 C71.8 64.73 71.16 65.72 70.5 66.73 C70 67.48 69.51 68.23 69 69 C50.37 62.04 33.3 48.34 17.69 36.3 C16.23 35.18 14.77 34.07 13.31 32.96 C5.41 26.84 -1.76 19.88 -9 13 C-7.43 9.75 -5.62 7.08 -3.38 4.25 C-2.74 3.45 -2.11 2.65 -1.46 1.83 C-0.98 1.22 -0.5 0.62 0 0 Z " fill="#F9DA46" transform="translate(406,143)"/>
<path d="M0 0 C1.22 0.71 2.44 1.43 3.66 2.16 C9.45 5.56 15.35 7.01 21.97 8.08 C19.51 13.83 14.8 15.92 9.2 18.21 C-3.5 22.7 -16.04 23.4 -29.4 23.64 C-35.34 23.8 -40.39 24.21 -46.03 26.08 C-47.35 26.08 -48.67 26.08 -50.03 26.08 C-51.77 24.03 -51.77 24.03 -53.34 21.33 C-53.87 20.45 -54.4 19.56 -54.95 18.66 C-56.03 16.08 -56.03 16.08 -55.89 13.99 C-52.14 5.67 -43.15 -1.02 -35.31 -5.26 C-24.89 -8.29 -9.3 -5.09 0 0 Z " fill="#008DFB" transform="translate(178.02685546875,231.921875)"/>
<path d="M0 0 C0.66 0 1.32 0 2 0 C3.62 1.95 5.13 3.9 6.62 5.94 C10.36 10.96 14.25 15.58 18.7 20 C20 22 20 22 19.93 24.42 C14.79 38.69 0.21 49.57 -12.99 55.96 C-21.87 59.95 -30.18 61.97 -40 62 C-36.99 57.82 -33.92 53.87 -30.38 50.12 C-18.25 36.57 -10.06 20.15 -2 4 C-1.62 3.24 -1.24 2.48 -0.85 1.7 C-0.57 1.14 -0.29 0.58 0 0 Z " fill="#008DFB" transform="translate(436,304)"/>
<path d="M0 0 C4.62 3.36 8.35 7.95 10.75 13.12 C11.27 16.59 11.27 16.59 10.75 20.12 C9.03 22.39 7.58 24.02 5.5 25.88 C5.01 26.34 4.52 26.81 4.01 27.29 C-3.07 33.96 -3.07 33.96 -8.19 34.69 C-11.81 34.54 -12.31 34.07 -15.31 31.56 C-17.25 28.12 -17.25 28.12 -17.31 24.62 C-16.13 20.72 -14.69 18.36 -12.25 15.12 C-17.2 16.98 -20.92 19.25 -25.07 22.51 C-28.2 24.83 -31.56 26.72 -34.95 28.63 C-37.4 30.22 -39.26 32 -41.25 34.12 C-44.91 32.8 -48.12 31.05 -51.47 29.08 C-53.96 27.75 -56.55 26.92 -59.25 26.12 C-51.91 17.81 -41.66 13.43 -31.25 10.12 C-30.26 10.12 -29.27 10.12 -28.25 10.12 C-28.16 9.29 -28.16 9.29 -28.06 8.44 C-26.48 3.94 -23.13 1.64 -19.12 -0.69 C-12.95 -3.02 -5.86 -3.21 0 0 Z " fill="#008CFA" transform="translate(552.25,388.875)"/>
<path d="M0 0 C-24.08 19.09 -53.57 28.14 -84.31 24.75 C-92.1 23.63 -99.63 21.76 -107 19 C-103.07 16.6 -98.82 16.06 -94.36 15.27 C-93.52 15.12 -92.68 14.97 -91.81 14.81 C-90.03 14.49 -88.25 14.17 -86.48 13.86 C-83.77 13.38 -81.07 12.89 -78.37 12.39 C-76.64 12.08 -74.91 11.77 -73.17 11.46 C-72.37 11.31 -71.57 11.17 -70.75 11.02 C-65.76 10.15 -61.07 9.86 -56 10 C-57.32 12.31 -58.64 14.62 -60 17 C-58.9 16.62 -57.8 16.25 -56.66 15.86 C-48.25 13.02 -39.82 10.3 -31.28 7.83 C-26.27 6.38 -21.29 4.87 -16.31 3.31 C-15.67 3.11 -15.02 2.91 -14.35 2.7 C-11.45 1.79 -8.58 0.85 -5.73 -0.21 C-3 -1 -3 -1 0 0 Z " fill="#0089F6" transform="translate(381,367)"/>
<path d="M0 0 C5.71 0.67 8.93 4.26 12.38 8.59 C13.22 9.7 14.05 10.82 14.88 11.94 C15.71 13.05 16.55 14.17 17.38 15.28 C18.16 16.32 18.95 17.36 19.75 18.44 C20.5 19.33 21.25 20.21 22.02 21.13 C23.75 23.44 23.75 23.44 24.31 26.88 C23.57 31.57 22.08 33.1 18.75 36.44 C15.45 38.09 12.28 38.27 8.75 37.44 C6.02 35.32 4.14 32.72 2.12 29.94 C1.59 29.24 1.06 28.55 0.51 27.83 C-0.56 26.42 -1.62 25.01 -2.67 23.59 C-3.75 22.12 -4.84 20.67 -5.96 19.23 C-6.5 18.53 -7.05 17.83 -7.61 17.11 C-8.1 16.48 -8.59 15.85 -9.09 15.2 C-10.25 13.44 -10.25 13.44 -10.94 10.25 C-10.01 6.47 -8.17 4.94 -5.25 2.44 C-3.25 0.44 -3.25 0.44 0 0 Z " fill="#008CFA" transform="translate(537.25,442.5625)"/>
<path d="M0 0 C16.84 10.92 30.48 23.86 41.46 40.65 C42.06 41.55 42.67 42.45 43.29 43.37 C43.68 44.12 44.06 44.88 44.46 45.65 C44.13 46.64 43.8 47.63 43.46 48.65 C40.89 49.84 40.89 49.84 38.46 50.65 C38.12 50.11 37.78 49.56 37.43 49 C31.61 39.95 24.74 32.49 16.46 25.65 C15.91 25.19 15.35 24.72 14.78 24.25 C6.82 17.55 -1.2 11.26 -10.02 5.72 C-11.56 4.75 -13.06 3.71 -14.54 2.65 C-14.54 1.99 -14.54 1.33 -14.54 0.65 C-8.84 -2.14 -5.92 -3.13 0 0 Z " fill="#0089F7" transform="translate(437.54296875,368.34765625)"/>
<path d="M0 0 C4.29 1.39 6.46 5.15 9.03 8.66 C9.89 9.77 10.75 10.87 11.62 11.98 C20.91 23.87 20.91 23.87 21.53 28.03 C21.03 31.66 21.03 31.66 18.41 34.59 C14.7 36.86 13.27 37.14 9.03 36.66 C7.12 35.25 7.12 35.25 5.41 33.16 C4.74 32.35 4.08 31.53 3.4 30.7 C2.62 29.7 1.84 28.69 1.03 27.66 C0.53 27.03 0.02 26.4 -0.5 25.76 C-2.17 23.67 -3.82 21.58 -5.47 19.47 C-6.01 18.79 -6.55 18.12 -7.11 17.42 C-9.51 14.27 -10.87 12.33 -11.44 8.35 C-10.39 2.34 -6 -0.45 0 0 Z " fill="#008DFB" transform="translate(557.96875,428.34375)"/>
<path d="M0 0 C2.27 1.84 2.27 1.84 4.38 4.38 C5.51 5.74 5.51 5.74 6.68 7.14 C7.44 8.08 8.21 9.03 9 10 C10.17 11.29 10.17 11.29 11.36 12.61 C17.5 19.61 17.5 19.61 17.88 24.31 C17 28 17 28 14.38 31 C11 33 11 33 8.06 33.81 C3.1 32.5 1.05 28.96 -2 25 C-2.89 23.94 -3.78 22.88 -4.67 21.82 C-5.59 20.69 -6.52 19.57 -7.44 18.44 C-7.89 17.91 -8.34 17.38 -8.8 16.83 C-11.13 13.9 -12 12.03 -12.45 8.28 C-12 5 -12 5 -9.38 2.06 C-5.65 -0.22 -4.26 -0.56 0 0 Z " fill="#008CFA" transform="translate(520,455)"/>
<path d="M0 0 C2.09 1.65 2.09 1.65 3.94 3.94 C4.61 4.76 5.28 5.58 5.96 6.42 C6.64 7.27 7.31 8.12 8 9 C8.68 9.79 9.36 10.58 10.07 11.39 C12.83 14.67 14.79 17.01 15.69 21.25 C14.83 24.67 13.44 26.49 11 29 C7.72 30.64 5.63 30.53 2 30 C-0.73 27.74 -2.72 25.03 -4.81 22.19 C-5.67 21.08 -5.67 21.08 -6.54 19.95 C-12.8 11.83 -12.8 11.83 -13.56 8.69 C-12.79 4.99 -10.89 3.58 -8.12 1.14 C-5.19 -0.44 -3.28 -0.45 0 0 Z " fill="#008CFA" transform="translate(574,412)"/>
<path d="M0 0 C0.99 0 1.98 0 3 0 C3.49 5.59 1.89 9.29 -0.5 14.19 C-0.86 14.93 -1.21 15.67 -1.58 16.44 C-4.69 22.74 -8.21 28.8 -13 34 C-13.66 34 -14.32 34 -15 34 C-15 34.66 -15 35.32 -15 36 C-15.99 36 -16.98 36 -18 36 C-18 22.63 -9.19 9.19 0 0 Z " fill="#F0D148" transform="translate(567,215)"/>
<path d="M0 0 C0.66 0 1.32 0 2 0 C3.55 1.61 3.55 1.61 5.31 3.75 C9.94 9.17 14.8 12.6 21 16 C19.77 19.69 18.06 20.72 15 23 C7.99 20.73 3.57 16.26 -0.09 10.07 C-1.45 6.97 -1.41 4.31 -1 1 C-0.67 0.67 -0.34 0.34 0 0 Z " fill="#E6E6EB" transform="translate(482,277)"/>
<path d="M0 0 C4.17 3.93 7.89 8.16 11 13 C11 13.66 11 14.32 11 15 C9.58 14.55 8.17 14.09 6.75 13.62 C5.96 13.37 5.17 13.11 4.36 12.85 C2 12 2 12 -2 10 C-1.34 6.7 -0.68 3.4 0 0 Z " fill="#EFD048" transform="translate(109,256)"/>
<path d="M0 0 C1.68 0.29 1.68 0.29 4 1 C6.69 1.15 9.36 1.26 12.05 1.32 C12.82 1.34 13.59 1.36 14.38 1.38 C16.84 1.44 19.29 1.5 21.75 1.56 C23.42 1.61 25.09 1.65 26.75 1.69 C30.84 1.8 34.92 1.9 39 2 C39 2.33 39 2.66 39 3 C25.14 3 11.28 3 -3 3 C-2.01 2.01 -1.02 1.02 0 0 Z " fill="#302D62" transform="translate(398,471)"/>
<path d="M0 0 C4.51 2.46 8.19 5.6 12 9 C11.01 9.33 10.02 9.66 9 10 C8.67 10.66 8.34 11.32 8 12 C7.04 10.75 6.08 9.5 5.12 8.25 C4.59 7.55 4.06 6.86 3.51 6.14 C2.11 4.15 1.02 2.2 0 0 Z " fill="#102F83" transform="translate(541,104)"/>
<path d="M0 0 C1 3 1 3 -0.12 5.62 C-2 8 -2 8 -4.69 8.81 C-5.45 8.87 -6.21 8.94 -7 9 C-7.33 8.01 -7.66 7.02 -8 6 C-5.36 4.02 -2.72 2.04 0 0 Z " fill="#E1C44A" transform="translate(516,442)"/>
<path d="M0 0 C2.76 2.76 2.58 5.21 3 9 C1.35 9.33 -0.3 9.66 -2 10 C-1.54 6.53 -1.11 3.33 0 0 Z " fill="#D5BA4C" transform="translate(56,86)"/>
<path d="M0 0 C0.66 0.33 1.32 0.66 2 1 C0.35 2.65 -1.3 4.3 -3 6 C-2.34 6.66 -1.68 7.32 -1 8 C-3.31 8.33 -5.62 8.66 -8 9 C-7.04 7.87 -6.08 6.75 -5.12 5.62 C-4.59 5 -4.06 4.37 -3.51 3.73 C-2.39 2.44 -1.21 1.21 0 0 Z " fill="#D0B54D" transform="translate(341,364)"/>
<path d="M0 0 C-0.33 0.99 -0.66 1.98 -1 3 C-3.88 3.62 -3.88 3.62 -7 4 C-7.66 3.34 -8.32 2.68 -9 2 C-5.63 0.5 -3.8 0 0 0 Z " fill="#DCC04B" transform="translate(336,483)"/>
<path d="M0 0 C-1.65 1.65 -3.3 3.3 -5 5 C-5.33 4.34 -5.66 3.68 -6 3 C-8.53 2.34 -8.53 2.34 -11 2 C-11 1.67 -11 1.34 -11 1 C-7.28 0.31 -3.79 -0.11 0 0 Z " fill="#4E465F" transform="translate(343,362)"/>
<path d="M0 0 C0.33 1.32 0.66 2.64 1 4 C-0.81 5.56 -0.81 5.56 -3 7 C-3.99 6.67 -4.98 6.34 -6 6 C-4.02 4.02 -2.04 2.04 0 0 Z " fill="#443E60" transform="translate(363,344)"/>
<path d="M0 0 C1.71 1.62 3.37 3.29 5 5 C5 5.66 5 6.32 5 7 C2.69 6.34 0.38 5.68 -2 5 C-1.34 4.67 -0.68 4.34 0 4 C0 2.68 0 1.36 0 0 Z " fill="#C1A84F" transform="translate(115,264)"/>
<path d="M0 0 C1.65 1.65 3.3 3.3 5 5 C2.92 5.55 1.16 6 -1 6 C-0.67 4.02 -0.34 2.04 0 0 Z " fill="#D7BB4C" transform="translate(109,256)"/>
<path d="M0 0 C0.66 0.33 1.32 0.66 2 1 C1.34 2.65 0.68 4.3 0 6 C-0.66 6 -1.32 6 -2 6 C-2 5.34 -2 4.68 -2 4 C-3.98 4 -5.96 4 -8 4 C-5.31 2.21 -3.05 1.02 0 0 Z " fill="#403A60" transform="translate(527,248)"/>
<path d="M0 0 C0.66 0.33 1.32 0.66 2 1 C-2.82 7.29 -2.82 7.29 -7 8 C-6.02 6.85 -5.04 5.71 -4.06 4.56 C-3.52 3.92 -2.97 3.29 -2.41 2.63 C-1.63 1.73 -0.84 0.84 0 0 Z " fill="#443E60" transform="translate(114,62)"/>
<path d="M0 0 C-1.15 2.47 -2.05 4.05 -4 6 C-4.33 5.01 -4.66 4.02 -5 3 C-5.66 2.67 -6.32 2.34 -7 2 C-2.25 0 -2.25 0 0 0 Z " fill="#D1B74C" transform="translate(410,334)"/>
<path d="M0 0 C0.66 0 1.32 0 2 0 C2.66 1.65 3.32 3.3 4 5 C3.01 5.33 2.02 5.66 1 6 C0.34 6.99 -0.32 7.98 -1 9 C-0.67 6.03 -0.34 3.06 0 0 Z " fill="#CFB44D" transform="translate(105,271)"/>
<path d="M0 0 C3 3 3 3 3.29 5.04 C3.2 7.03 3.1 9.01 3 11 C1.35 10.67 -0.3 10.34 -2 10 C-1.01 9.67 -0.02 9.34 1 9 C0.67 6.03 0.34 3.06 0 0 Z " fill="#0858B8" transform="translate(98,173)"/>
<path d="M0 0 C2.94 0.38 2.94 0.38 6 1 C6.33 1.66 6.66 2.32 7 3 C2.55 3.5 2.55 3.5 -2 4 C-1.01 3.67 -0.02 3.34 1 3 C0.67 2.01 0.34 1.02 0 0 Z " fill="#373361" transform="translate(353,79)"/>
<path d="M0 0 C-1.65 1.32 -3.3 2.64 -5 4 C-5 3.34 -5 2.68 -5 2 C-6.65 2 -8.3 2 -10 2 C-10 1.67 -10 1.34 -10 1 C-3.38 -1.12 -3.38 -1.12 0 0 Z " fill="#443E60" transform="translate(476,490)"/>
<path d="M0 0 C0.99 0.66 1.98 1.32 3 2 C3 2.66 3 3.32 3 4 C-3.62 3.25 -3.62 3.25 -7 1 C-4.69 1.33 -2.38 1.66 0 2 C0 1.34 0 0.68 0 0 Z " fill="#0568CC" transform="translate(156,214)"/>
<path d="M0 0 C-0.66 1.32 -1.32 2.64 -2 4 C-3.65 3.67 -5.3 3.34 -7 3 C-4.5 -0 -4.26 0 0 0 Z " fill="#0F3288" transform="translate(540,404)"/>
<path d="M0 0 C-3.04 2.02 -4.19 2.32 -7.69 2.62 C-8.5 2.7 -9.3 2.77 -10.14 2.85 C-10.75 2.9 -11.37 2.95 -12 3 C-7.98 0.32 -4.74 -1.58 0 0 Z " fill="#075FC1" transform="translate(381,367)"/>
<path d="M0 0 C1.98 0 3.96 0 6 0 C6.33 1.32 6.66 2.64 7 4 C4.98 3.4 2.98 2.73 1 2 C0.67 1.34 0.34 0.68 0 0 Z " fill="#DBBF4B" transform="translate(342,84)"/>
<path d="M0 0 C2.31 0 4.62 0 7 0 C7 0.66 7 1.32 7 2 C5.02 2.66 3.04 3.32 1 4 C0.67 2.68 0.34 1.36 0 0 Z " fill="#50485E" transform="translate(237,39)"/>
</svg>
