<?xml version="1.0" encoding="UTF-8"?>
<!-- Generator: https://ezgif.com/png-to-svg -->
<svg version="1.1" xmlns="http://www.w3.org/2000/svg" width="512" height="512" viewBox="-25.625 -16.86 314.72 314.72" preserveAspectRatio="xMidYMid meet">
<path d="M0 0 C1.32 0 2.64 0 4 0 C4.23 30.71 4.41 61.42 4.51 92.13 C4.52 95.76 4.54 99.38 4.55 103.01 C4.55 103.73 4.55 104.45 4.56 105.2 C4.6 116.88 4.68 128.57 4.77 140.26 C4.87 152.25 4.92 164.24 4.94 176.24 C4.95 182.97 4.98 189.71 5.06 196.44 C5.13 202.78 5.15 209.12 5.13 215.46 C5.13 217.79 5.15 220.11 5.19 222.44 C5.47 240.04 5.47 240.04 1.85 244.87 C-0.73 246.72 -3.05 247.87 -6 249 C-7.43 249.86 -8.85 250.75 -10.25 251.67 C-11.64 252.51 -13.04 253.35 -14.44 254.19 C-20.91 258.11 -27.35 262.08 -33.75 266.12 C-34.54 266.62 -35.33 267.12 -36.14 267.63 C-39.85 269.98 -43.54 272.34 -47.2 274.76 C-47.85 275.18 -48.49 275.6 -49.16 276.04 C-50.88 277.17 -52.6 278.31 -54.31 279.45 C-57 281 -57 281 -60 281 C-60 225.23 -60 169.46 -60 112 C-65.28 112 -70.56 112 -76 112 C-74.28 107.69 -72.4 104.53 -69.69 100.88 C-65.65 95.33 -61.73 89.73 -57.88 84.06 C-52.24 75.79 -46.53 67.56 -40.81 59.34 C-36.54 53.22 -32.3 47.08 -28.08 40.93 C-23.82 34.71 -19.49 28.55 -15.14 22.39 C-12.36 18.44 -9.63 14.47 -7.03 10.39 C-6.58 9.69 -6.12 8.99 -5.66 8.26 C-4.82 6.96 -4 5.64 -3.2 4.32 C-2.09 2.58 -2.09 2.58 0 0 Z " fill="#CE142D" transform="translate(214,0)"/>
<path d="M0 0 C21.12 0 42.24 0 64 0 C64 31.35 64 62.7 64 95 C60.48 94.12 58.66 93.35 55.68 91.48 C54.43 90.7 54.43 90.7 53.15 89.9 C52.25 89.33 51.36 88.77 50.44 88.19 C49.04 87.31 49.04 87.31 47.62 86.42 C44.74 84.62 41.87 82.81 39 81 C38.15 80.46 37.29 79.93 36.42 79.37 C32.45 76.88 28.49 74.37 24.54 71.87 C21.5 69.94 18.45 68.03 15.4 66.13 C14.67 65.68 13.94 65.22 13.18 64.75 C11.81 63.9 10.44 63.06 9.07 62.21 C7.37 61.15 5.69 60.08 4 59 C3.28 58.58 2.57 58.15 1.83 57.71 C0 56 0 56 -0.48 53.51 C-0.47 52.53 -0.46 51.54 -0.45 50.52 C-0.45 49.38 -0.45 48.25 -0.45 47.07 C-0.43 45.88 -0.41 44.69 -0.39 43.46 C-0.39 42.36 -0.38 41.26 -0.38 40.13 C-0.36 36.02 -0.3 31.92 -0.25 27.81 C-0.17 18.63 -0.09 9.46 0 0 Z " fill="#CF142C" transform="translate(60,186)"/>
<path d="M0 0 C0.66 0 1.32 0 2 0 C2.35 1.51 2.35 1.51 2.7 3.04 C7.5 24.45 7.5 24.45 20.75 41.19 C28.95 46.22 39.54 49.39 49 51 C49 51.99 49 52.98 49 54 C47.87 54.33 47.87 54.33 46.73 54.66 C32.98 58.92 22.32 65.31 15.38 78.25 C8.43 92.54 5.18 108.53 2 124 C1.34 124 0.68 124 0 124 C-0.16 123.29 -0.31 122.58 -0.47 121.85 C-6.09 95.98 -6.09 95.98 -17 72 C-17.68 70.67 -18.35 69.34 -19 68 C-19.66 68 -20.32 68 -21 68 C-21.72 67.25 -22.45 66.5 -23.2 65.73 C-26.25 62.76 -29.04 61.21 -32.88 59.38 C-34.05 58.81 -35.22 58.24 -36.43 57.65 C-39.93 56.03 -43.45 54.5 -47 53 C-47 52.34 -47 51.68 -47 51 C-45.58 50.65 -45.58 50.65 -44.14 50.3 C-24.75 45.58 -24.75 45.58 -10.36 32.55 C-5.78 24.24 -3.66 15.17 -1.48 6.01 C-1 4 -0.5 2 0 0 Z " fill="#EAB048" transform="translate(91,31)"/>
</svg>
