<?xml version="1.0" encoding="UTF-8"?>
<!-- Generator: https://ezgif.com/png-to-svg -->
<svg version="1.1" xmlns="http://www.w3.org/2000/svg" width="512" height="512" viewBox="-9.76 -9.76 219.52 219.52" preserveAspectRatio="xMidYMid meet">
<path d="M0 0 C0.66 0 1.32 0 2 0 C4.02 8.32 6.76 19.71 4 28 C5.65 27.34 7.3 26.68 9 26 C7.39 29.79 4.88 32.63 2.19 35.69 C-1.18 39.57 -4.42 43.5 -7.48 47.63 C-8.05 48.41 -8.63 49.19 -9.22 49.99 C-10.35 51.52 -11.47 53.06 -12.58 54.61 C-13.1 55.32 -13.62 56.02 -14.15 56.74 C-14.61 57.37 -15.06 58 -15.53 58.65 C-17 60 -17 60 -21 60 C-22.48 59.01 -22.48 59.01 -24 58 C-30.69 64.01 -35.08 69.83 -36 79 C-33.03 79 -30.06 79 -27 79 C-26.76 78.29 -26.53 77.59 -26.28 76.86 C-24.77 73.5 -22.84 71.03 -20.5 68.19 C-19.71 67.21 -18.91 66.24 -18.09 65.23 C-17.4 64.49 -16.71 63.76 -16 63 C-15.34 63 -14.68 63 -14 63 C-14.66 68.61 -15.32 74.22 -16 80 C-16.66 80 -17.32 80 -18 80 C-15.84 82.33 -13.65 83.92 -10.94 85.56 C0.63 93.23 7.04 102.65 11.69 115.56 C12.92 118.79 13.38 119.97 16 122 C18.45 122.73 18.45 122.73 21.25 123.06 C22.83 123.29 22.83 123.29 24.44 123.53 C26.2 123.76 26.2 123.76 28 124 C29.38 124.19 30.75 124.38 32.12 124.57 C35.75 125.06 39.37 125.53 43 126 C43 126.66 43 127.32 43 128 C42.33 128.08 41.67 128.16 40.98 128.24 C37.95 128.61 34.91 128.99 31.88 129.38 C30.83 129.5 29.78 129.63 28.7 129.76 C21.14 130.59 21.14 130.59 14 133 C12.65 134.75 12.65 134.75 12 136.94 C6.53 150.95 -0.58 160.85 -14 168 C-17.1 169.31 -20.2 170.54 -23.37 171.66 C-26.72 173.37 -28.06 174.77 -30 178 C-30.87 181.07 -31.33 184.15 -31.75 187.31 C-31.88 188.15 -32 188.98 -32.13 189.85 C-32.43 191.9 -32.72 193.95 -33 196 C-33.66 196 -34.32 196 -35 196 C-35.07 194.85 -35.15 193.71 -35.23 192.53 C-35.67 182.01 -35.67 182.01 -40.78 173.33 C-44.39 171.17 -48.31 169.78 -52.25 168.33 C-62.51 164.47 -69.67 157.53 -75 148 C-76.36 144.92 -77.61 141.83 -78.76 138.66 C-80.23 135.5 -81.12 134.02 -84 132 C-87.42 131.11 -90.86 130.7 -94.38 130.31 C-96.24 130.08 -98.1 129.85 -99.96 129.61 C-101.27 129.46 -101.27 129.46 -102.6 129.3 C-105.42 128.95 -108.21 128.5 -111 128 C-111 127.34 -111 126.68 -111 126 C-110.3 125.92 -109.61 125.85 -108.89 125.77 C-105.72 125.42 -102.55 125.06 -99.38 124.69 C-97.73 124.51 -97.73 124.51 -96.06 124.33 C-88.03 123.56 -88.03 123.56 -81 120 C-79.75 117.38 -78.88 115.12 -78.06 112.38 C-75.75 105.49 -73.03 100.34 -68 95 C-67.46 94.38 -66.91 93.76 -66.35 93.12 C-60.89 87.19 -54.09 82.24 -46 81 C-46 79.68 -46 78.36 -46 77 C-47.98 77.5 -47.98 77.5 -50 78 C-46.69 66.13 -42.8 60.03 -32.88 52.69 C-28.94 49.01 -26.57 44.7 -24 40 C-24.5 39.55 -24.99 39.09 -25.5 38.62 C-27 37 -27 37 -27 35 C-27.66 35 -28.32 35 -29 35 C-27.66 32.07 -26.13 29.81 -24 27.4 C-23.42 26.74 -22.84 26.09 -22.25 25.41 C-21.65 24.74 -21.05 24.07 -20.44 23.38 C-19.25 22.03 -18.06 20.68 -16.87 19.34 C-16.34 18.74 -15.82 18.15 -15.28 17.54 C-13.91 16.01 -13.91 16.01 -13 14 C-12.01 14.33 -11.02 14.66 -10 15 C-10.33 15.46 -10.66 15.93 -10.99 16.41 C-12.48 18.52 -13.96 20.63 -15.44 22.75 C-15.95 23.48 -16.47 24.21 -17 24.96 C-17.5 25.67 -17.99 26.38 -18.5 27.11 C-18.95 27.76 -19.41 28.41 -19.88 29.08 C-21.03 31.05 -21.56 32.76 -22 35 C-20.02 35.49 -20.02 35.49 -18 36 C-17.25 37.62 -17.25 37.62 -17 40 C-18.94 43.25 -18.94 43.25 -21 46 C-16.79 42.01 -13.29 37.69 -9.81 33.06 C-9.28 32.37 -8.75 31.68 -8.2 30.97 C-2.92 23.96 -1.67 17.73 -0.88 9.12 C-0.75 7.81 -0.75 7.81 -0.61 6.46 C-0.4 4.31 -0.2 2.15 0 0 Z " fill="#909DF4" transform="translate(134,2)"/>
<path d="M0 0 C-0.75 4.75 -0.75 4.75 -3 7 C-3.5 9.04 -3.98 11.08 -4.44 13.12 C-6.44 20.01 -9.38 22.36 -15.3 26.09 C-20.17 29.53 -23.13 34.39 -25 40 C-25.07 41.73 -25.08 43.46 -25.06 45.19 C-25.05 46.09 -25.04 46.99 -25.04 47.92 C-25.02 48.61 -25.01 49.29 -25 50 C-23.02 49.5 -23.02 49.5 -21 49 C-15.43 55.14 -15.43 55.14 -15 60 C-17.97 59.5 -17.97 59.5 -21 59 C-19.78 59.85 -18.55 60.68 -17.31 61.5 C-16.63 61.96 -15.94 62.43 -15.24 62.91 C-13.05 64.19 -13.05 64.19 -10.53 63.95 C-7.14 64.02 -5.82 65.29 -3.19 67.38 C1.23 70.65 4.6 72.1 10 73 C10.71 72.13 10.71 72.13 11.43 71.25 C12.05 70.51 12.67 69.76 13.31 69 C13.93 68.26 14.54 67.51 15.18 66.75 C17 65 17 65 20 65 C20 65.66 20 66.32 20 67 C22.55 65.73 22.89 64.58 24.19 62.06 C27.06 56.75 30.43 51.91 33.94 47 C37.47 42.02 41 37.04 44.44 32 C44.93 31.28 45.43 30.56 45.94 29.81 C47.17 28.06 47.17 28.06 47 26 C45.02 28.64 43.04 31.28 41 34 C38.64 33.36 38.64 33.36 36 32 C34.71 29.43 34.71 29.43 33.81 26.31 C33.49 25.23 33.17 24.15 32.84 23.04 C32.56 22.04 32.29 21.03 32 20 C31.8 19.29 31.59 18.59 31.38 17.86 C30.91 16.24 30.45 14.62 30 13 C29.44 11.48 29.44 11.48 28.88 9.94 C27.94 6.81 27.85 4.24 28 1 C39.22 5.27 48.12 13.59 53.56 24.25 C55.08 27.64 56.42 31.07 57.69 34.56 C58.92 37.79 59.38 38.97 62 41 C64.45 41.73 64.45 41.73 67.25 42.06 C68.83 42.29 68.83 42.29 70.44 42.53 C72.2 42.76 72.2 42.76 74 43 C75.38 43.19 76.75 43.38 78.12 43.57 C81.75 44.06 85.37 44.53 89 45 C89 45.66 89 46.32 89 47 C88 47.12 88 47.12 86.98 47.24 C83.95 47.61 80.91 47.99 77.88 48.38 C76.83 48.5 75.78 48.63 74.7 48.76 C67.14 49.59 67.14 49.59 60 52 C58.65 53.75 58.65 53.75 58 55.94 C52.53 69.95 45.42 79.85 32 87 C28.9 88.31 25.8 89.54 22.63 90.66 C19.28 92.37 17.94 93.77 16 97 C15.13 100.07 14.67 103.15 14.25 106.31 C14.12 107.15 14 107.98 13.87 108.85 C13.57 110.9 13.28 112.95 13 115 C12.34 115 11.68 115 11 115 C10.89 113.28 10.89 113.28 10.77 111.53 C10.33 101.01 10.33 101.01 5.22 92.33 C1.61 90.17 -2.31 88.78 -6.25 87.33 C-16.51 83.47 -23.67 76.53 -29 67 C-30.36 63.92 -31.61 60.83 -32.76 57.66 C-34.23 54.5 -35.12 53.02 -38 51 C-41.42 50.11 -44.86 49.7 -48.38 49.31 C-50.24 49.08 -52.1 48.85 -53.96 48.61 C-55.27 48.46 -55.27 48.46 -56.6 48.3 C-59.42 47.95 -62.21 47.5 -65 47 C-65 46.34 -65 45.68 -65 45 C-64.3 44.92 -63.61 44.85 -62.89 44.77 C-59.72 44.42 -56.55 44.06 -53.38 43.69 C-51.73 43.51 -51.73 43.51 -50.06 43.33 C-42.03 42.56 -42.03 42.56 -35 39 C-33.75 36.38 -32.88 34.12 -32.06 31.38 C-29.75 24.49 -27.03 19.34 -22 14 C-21.18 13.07 -21.18 13.07 -20.35 12.12 C-15.49 6.84 -7.55 0 0 0 Z " fill="#141688" transform="translate(88,83)"/>
<path d="M0 0 C0 3.52 -0.57 4 -2.75 6.62 C-10.44 16.49 -11.9 26.71 -11 39 C-8.58 51.24 -3.58 60.82 6.47 68.31 C16.59 75.08 27 76.28 39 75 C49.4 72.31 58.98 65.98 65 57 C69.36 48.7 71.19 42.09 71.25 32.81 C71.27 32 71.29 31.19 71.31 30.35 C71.36 22.7 69.72 15.88 65.25 9.56 C63.89 7.63 63.89 7.63 63 6 C63.33 5.34 63.66 4.68 64 4 C70.12 10.26 72.9 17.08 75.8 25.26 C77.15 28.92 77.15 28.92 80.24 31.13 C83.1 32.03 85.75 32.5 88.74 32.85 C89.8 32.98 90.87 33.11 91.97 33.24 C93.07 33.37 94.18 33.49 95.31 33.62 C96.43 33.76 97.56 33.89 98.71 34.03 C101.47 34.36 104.24 34.68 107 35 C107 35.66 107 36.32 107 37 C106 37.12 106 37.12 104.98 37.24 C101.95 37.61 98.91 37.99 95.88 38.38 C94.83 38.5 93.78 38.63 92.7 38.76 C85.14 39.59 85.14 39.59 78 42 C76.65 43.75 76.65 43.75 76 45.94 C70.53 59.95 63.42 69.85 50 77 C46.9 78.31 43.8 79.54 40.63 80.66 C37.28 82.37 35.94 83.77 34 87 C33.13 90.07 32.67 93.15 32.25 96.31 C32.12 97.15 32 97.98 31.87 98.85 C31.57 100.9 31.28 102.95 31 105 C30.34 105 29.68 105 29 105 C28.89 103.28 28.89 103.28 28.77 101.53 C28.33 91.01 28.33 91.01 23.22 82.33 C19.61 80.17 15.69 78.78 11.75 77.33 C1.49 73.47 -5.67 66.53 -11 57 C-12.36 53.92 -13.61 50.83 -14.76 47.66 C-16.23 44.5 -17.12 43.02 -20 41 C-23.42 40.11 -26.86 39.7 -30.38 39.31 C-32.24 39.08 -34.1 38.85 -35.96 38.61 C-37.27 38.46 -37.27 38.46 -38.6 38.3 C-41.42 37.95 -44.21 37.5 -47 37 C-47 36.34 -47 35.68 -47 35 C-46.3 34.92 -45.61 34.85 -44.89 34.77 C-41.72 34.42 -38.55 34.06 -35.38 33.69 C-33.73 33.51 -33.73 33.51 -32.06 33.33 C-24.03 32.56 -24.03 32.56 -17 29 C-15.75 26.38 -14.88 24.12 -14.06 21.38 C-11.09 12.47 -6.66 6.57 0 0 Z " fill="#3BE5F0" transform="translate(70,93)"/>
<path d="M0 0 C0.66 0 1.32 0 2 0 C4.02 8.32 6.76 19.71 4 28 C5.65 27.34 7.3 26.68 9 26 C7.39 29.79 4.88 32.63 2.19 35.69 C-1.18 39.57 -4.42 43.5 -7.48 47.63 C-8.34 48.8 -8.34 48.8 -9.22 49.99 C-10.35 51.52 -11.47 53.06 -12.58 54.61 C-13.1 55.32 -13.62 56.02 -14.15 56.74 C-14.61 57.37 -15.06 58 -15.53 58.65 C-17 60 -17 60 -21 60 C-21.99 59.34 -22.98 58.68 -24 58 C-30.69 64.01 -35.08 69.83 -36 79 C-33.03 79 -30.06 79 -27 79 C-26.76 78.29 -26.53 77.59 -26.28 76.86 C-24.77 73.5 -22.84 71.03 -20.5 68.19 C-19.71 67.21 -18.91 66.24 -18.09 65.23 C-17.4 64.49 -16.71 63.76 -16 63 C-15.34 63 -14.68 63 -14 63 C-14.66 68.61 -15.32 74.22 -16 80 C-16.66 80 -17.32 80 -18 80 C-18 81.98 -18 83.96 -18 86 C-19.48 86.5 -19.48 86.5 -21 87 C-21.53 86.33 -22.06 85.66 -22.6 84.97 C-24.87 82.69 -24.87 82.69 -28.02 82.97 C-29.13 83.14 -30.24 83.32 -31.38 83.5 C-38.59 84.31 -38.59 84.31 -41.69 82.25 C-44 80 -44 80 -46 77 C-47.98 77.5 -47.98 77.5 -50 78 C-46.69 66.13 -42.8 60.03 -32.88 52.69 C-28.94 49.01 -26.57 44.7 -24 40 C-24.5 39.55 -24.99 39.09 -25.5 38.62 C-27 37 -27 37 -27 35 C-27.66 35 -28.32 35 -29 35 C-27.66 32.07 -26.13 29.81 -24 27.4 C-23.13 26.42 -23.13 26.42 -22.25 25.41 C-21.65 24.74 -21.05 24.07 -20.44 23.38 C-19.25 22.03 -18.06 20.68 -16.87 19.34 C-16.34 18.74 -15.82 18.15 -15.28 17.54 C-13.91 16.01 -13.91 16.01 -13 14 C-12.01 14.33 -11.02 14.66 -10 15 C-10.33 15.46 -10.66 15.93 -10.99 16.41 C-12.48 18.52 -13.96 20.63 -15.44 22.75 C-15.95 23.48 -16.47 24.21 -17 24.96 C-17.74 26.02 -17.74 26.02 -18.5 27.11 C-18.95 27.76 -19.41 28.41 -19.88 29.08 C-21.03 31.05 -21.56 32.76 -22 35 C-20.68 35.33 -19.36 35.66 -18 36 C-17.25 37.62 -17.25 37.62 -17 40 C-18.94 43.25 -18.94 43.25 -21 46 C-16.79 42.01 -13.29 37.69 -9.81 33.06 C-9.28 32.37 -8.75 31.68 -8.2 30.97 C-2.92 23.96 -1.67 17.73 -0.88 9.12 C-0.79 8.25 -0.7 7.37 -0.61 6.46 C-0.4 4.31 -0.2 2.15 0 0 Z " fill="#9676FD" transform="translate(134,2)"/>
<path d="M0 0 C6.61 3.23 10.59 9.28 15 15 C15.6 15.69 16.19 16.37 16.8 17.08 C18 19 18 19 18 21.08 C15.32 31.48 11.48 37.26 3 44 C2.35 44.57 1.7 45.14 1.03 45.73 C-1.47 47.29 -3.1 47.24 -6 47 C-12.89 32.67 -12.89 32.67 -11 25 C-9.23 20.7 -7.07 16.62 -4.85 12.54 C-3.42 9.8 -2.63 7.92 -2 5 C-8.06 11.95 -8.06 11.95 -13.13 19.62 C-13.64 20.52 -13.64 20.52 -14.15 21.42 C-15.09 23.12 -15.99 24.83 -16.88 26.54 C-19 29 -19 29 -22.74 29.36 C-23.82 29.24 -24.89 29.12 -26 29 C-25.53 29.52 -25.06 30.04 -24.57 30.58 C-19.17 36.97 -16 43.5 -16 52 C-17.32 52 -18.64 52 -20 52 C-21.15 49.73 -22.29 47.46 -23.44 45.19 C-23.76 44.54 -24.09 43.9 -24.42 43.24 C-28.07 35.98 -29.51 29.49 -27.3 21.48 C-23.25 12.2 -11.05 -3.38 0 0 Z " fill="#121386" transform="translate(100,94)"/>
<path d="M0 0 C0.33 0.66 0.66 1.32 1 2 C0.3 3.74 0.3 3.74 -0.84 5.81 C-1.24 6.56 -1.65 7.3 -2.06 8.07 C-2.71 9.24 -2.71 9.24 -3.38 10.44 C-4.22 11.98 -5.06 13.52 -5.9 15.06 C-6.28 15.74 -6.65 16.43 -7.04 17.13 C-9.97 22.85 -9.86 29.02 -8.11 35.1 C-7.13 37.77 -6.11 40.39 -5 43 C-1.22 43.59 -0.04 43.03 3.16 40.77 C4.28 39.8 5.4 38.81 6.5 37.81 C7.06 37.33 7.61 36.85 8.18 36.35 C10.83 34.03 13.3 31.69 15.72 29.14 C18 27 18 27 21 27 C21 27.66 21 28.32 21 29 C21.66 29 22.32 29 23 29 C22.59 34.67 20.93 38.24 17.56 42.69 C13.9 47.61 13.9 47.61 11 53 C10.34 53 9.68 53 9 53 C9 52.34 9 51.68 9 51 C4.49 53.32 2.06 56.06 -1 60 C-11.94 57.2 -11.94 57.2 -16 53 C-16 52.34 -16 51.68 -16 51 C-15.34 51 -14.68 51 -14 51 C-17.32 38.35 -17.32 38.35 -25 28 C-25 27.34 -25 26.68 -25 26 C-22.69 26 -20.38 26 -18 26 C-17.73 25.28 -17.47 24.56 -17.19 23.82 C-13.3 14.61 -6.84 7.15 0 0 Z " fill="#8ECEEE" transform="translate(99,97)"/>
<path d="M0 0 C-0.75 4.75 -0.75 4.75 -3 7 C-3.5 9.04 -3.98 11.08 -4.44 13.12 C-6.44 20.01 -9.38 22.36 -15.3 26.09 C-20.17 29.53 -23.13 34.39 -25 40 C-25.07 41.73 -25.08 43.46 -25.06 45.19 C-25.05 46.54 -25.05 46.54 -25.04 47.92 C-25.02 48.61 -25.01 49.29 -25 50 C-23.02 49.5 -23.02 49.5 -21 49 C-15.43 55.14 -15.43 55.14 -15 60 C-16.98 59.67 -18.96 59.34 -21 59 C-19.78 59.85 -18.55 60.68 -17.31 61.5 C-16.63 61.96 -15.94 62.43 -15.24 62.91 C-13.05 64.19 -13.05 64.19 -10.55 63.95 C-7.1 64.02 -5.56 65.34 -2.81 67.38 C-1.95 68 -1.09 68.63 -0.21 69.27 C2 71 2 71 4 73 C3.34 73.66 2.68 74.32 2 75 C1.36 77.07 1.36 77.07 1 79 C-4.78 78.32 -9.15 75.27 -13 71 C-12.67 70.34 -12.34 69.68 -12 69 C-10.52 69.5 -10.52 69.5 -9 70 C-9 69.34 -9 68.68 -9 68 C-12.96 67.01 -16.92 66.02 -21 65 C-21.33 66.32 -21.66 67.64 -22 69 C-28.82 56.13 -32.8 44.49 -28.88 29.75 C-26.88 24 -23.88 17.83 -19.5 13.53 C-17.84 11.97 -17.84 11.97 -16.62 9.52 C-14.73 6.59 -13.02 5.46 -10 3.75 C-8.7 3 -8.7 3 -7.38 2.23 C-4.88 0.94 -2.84 0 0 0 Z " fill="#05085C" transform="translate(88,83)"/>
<path d="M0 0 C12.31 5.37 18.76 12.55 23.82 25.03 C25.85 30.55 26.51 35.51 26.44 41.38 C26.43 42.2 26.43 43.02 26.43 43.87 C26.28 50.46 24.98 56.08 22 62 C20.87 58.7 21 55.62 21.11 52.16 C21.36 44.75 20.98 39.08 17.58 32.3 C17 30 17 30 18.39 27.2 C18.92 26.48 19.45 25.75 20 25 C19.4 25.76 18.8 26.53 18.19 27.31 C16.53 29.35 14.9 31.2 13 33 C10.64 32.36 10.64 32.36 8 31 C6.71 28.43 6.71 28.43 5.81 25.31 C5.49 24.23 5.17 23.15 4.84 22.04 C4.56 21.04 4.29 20.03 4 19 C3.8 18.29 3.59 17.59 3.38 16.86 C2.91 15.24 2.45 13.62 2 12 C1.63 10.99 1.26 9.98 0.88 8.94 C-0.06 5.81 -0.15 3.24 0 0 Z " fill="#3F3FCD" transform="translate(116,84)"/>
<path d="M0 0 C0.5 0.99 0.5 0.99 1 2 C0.22 4.16 0.22 4.16 -0.94 6.62 C-1.51 7.85 -1.51 7.85 -2.09 9.1 C-2.39 9.73 -2.69 10.35 -3 11 C-1.68 11.33 -0.36 11.66 1 12 C-0.56 13.27 -2.12 14.54 -3.69 15.81 C-4.56 16.52 -5.43 17.23 -6.32 17.96 C-8.83 19.87 -11.18 21.59 -14 23 C-14.99 22.67 -15.98 22.34 -17 22 C-17.6 22.31 -18.19 22.62 -18.8 22.93 C-21.7 24.34 -23.93 24.16 -27.12 24.06 C-31.22 23.81 -31.22 23.81 -35 25 C-44.34 25.76 -53.2 20.54 -60.38 14.81 C-63 12 -63 12 -63 8 C-58.68 8.51 -54.97 9.2 -51 11 C-51 11.66 -51 12.32 -51 13 C-51.99 13.33 -52.98 13.66 -54 14 C-49.83 17.76 -46.25 20.01 -41 22 C-40.67 20.35 -40.34 18.7 -40 17 C-38.89 17.26 -38.89 17.26 -37.76 17.54 C-32.73 18.4 -29.42 18.92 -25 16.06 C-23.17 14.43 -21.39 12.75 -19.67 11 C-16.24 8.43 -14.2 8.64 -10 9 C-9.01 9 -8.02 9 -7 9 C-5.08 7.01 -5.08 7.01 -3.31 4.5 C-2.69 3.66 -2.07 2.83 -1.43 1.97 C-0.96 1.32 -0.48 0.67 0 0 Z " fill="#8388F0" transform="translate(130,140)"/>
<path d="M0 0 C0 3.52 -0.57 4 -2.75 6.62 C-10.4 16.45 -11.98 26.75 -11 39 C-10.11 42.55 -9.03 45.92 -7.78 49.36 C-7 52 -7 52 -8 55 C-9.32 55 -10.64 55 -12 55 C-12.24 54.32 -12.48 53.65 -12.73 52.95 C-13.07 52.06 -13.4 51.17 -13.75 50.25 C-14.07 49.37 -14.4 48.49 -14.73 47.58 C-16.25 44.5 -17.18 43 -20 41 C-23.42 40.1 -26.86 39.7 -30.38 39.31 C-32.24 39.08 -34.1 38.85 -35.96 38.61 C-37.27 38.46 -37.27 38.46 -38.6 38.3 C-41.42 37.95 -44.21 37.5 -47 37 C-47 36.34 -47 35.68 -47 35 C-46.3 34.92 -45.61 34.85 -44.89 34.77 C-41.72 34.42 -38.55 34.06 -35.38 33.69 C-33.73 33.51 -33.73 33.51 -32.06 33.33 C-24.03 32.56 -24.03 32.56 -17 29 C-15.75 26.38 -14.88 24.12 -14.06 21.38 C-11.09 12.47 -6.66 6.57 0 0 Z " fill="#5FABF7" transform="translate(70,93)"/>
<path d="M0 0 C0.66 0 1.32 0 2 0 C1.98 7.46 1.9 13.48 -3.21 19.23 C-3.8 19.81 -4.39 20.4 -5 21 C-5.59 21.61 -6.18 22.23 -6.79 22.86 C-16.22 31.93 -27.11 34.41 -39.77 34.21 C-50.25 33.83 -59.79 28.42 -67.19 21.06 C-67.79 20.38 -68.38 19.7 -69 19 C-68.67 18.34 -68.34 17.68 -68 17 C-67.22 17.67 -67.22 17.67 -66.42 18.36 C-59.84 23.76 -52.89 28.51 -44.25 29.38 C-42 29.11 -39.75 28.82 -37.5 28.5 C-34 28 -34 28 -30.31 28.12 C-26.73 27.99 -25.54 27.44 -23 25 C-22.34 25.33 -21.68 25.66 -21 26 C-16.93 26 -14.88 23.91 -11.81 21.5 C-11.25 21.07 -10.69 20.64 -10.12 20.2 C-8.74 19.14 -7.37 18.07 -6 17 C-6.99 16.67 -7.98 16.34 -9 16 C-7.26 6.14 -7.26 6.14 -3.44 2.69 C-2.63 2.13 -1.83 1.57 -1 1 C-0.67 0.67 -0.34 0.34 0 0 Z " fill="#040B59" transform="translate(136,135)"/>
<path d="M0 0 C0.66 0.99 1.32 1.98 2 3 C1.61 3.41 1.23 3.83 0.83 4.25 C-5.24 10.98 -8.79 16.76 -8.46 26.05 C-7.62 31.43 -5.31 36.12 -3 41 C-2.32 42.66 -1.65 44.33 -1 46 C1.47 45.5 1.47 45.5 4 45 C4 45.99 4 46.98 4 48 C3.34 48 2.68 48 2 48 C1.67 48.66 1.34 49.32 1 50 C0.01 49.34 -0.98 48.68 -2 48 C-3.39 47.81 -3.39 47.81 -4.81 47.62 C-8.65 46.87 -10.92 45.36 -14 43 C-14.33 42.34 -14.66 41.68 -15 41 C-12.69 41.66 -10.38 42.32 -8 43 C-8.62 41.71 -9.25 40.41 -9.88 39.12 C-10.22 38.41 -10.57 37.69 -10.93 36.95 C-11.97 34.85 -11.97 34.85 -14 33 C-14.99 33 -15.98 33 -17 33 C-17.66 33.66 -18.32 34.32 -19 35 C-19.66 26.5 -19.07 20.05 -14 13 C-10.7 9.48 -7.2 6.72 -3.06 4.25 C-0.68 3.11 -0.68 3.11 0 0 Z " fill="#8B78EF" transform="translate(81,100)"/>
<path d="M0 0 C3.99 2.84 6.03 5.34 8.12 9.75 C8.63 10.81 9.13 11.86 9.65 12.95 C10.76 15.47 11.77 17.97 12.69 20.56 C13.92 23.79 14.38 24.97 17 27 C19.45 27.73 19.45 27.73 22.25 28.06 C23.3 28.22 24.35 28.37 25.44 28.53 C27.2 28.76 27.2 28.76 29 29 C30.38 29.19 31.75 29.38 33.12 29.57 C36.75 30.06 40.37 30.53 44 31 C44 31.66 44 32.32 44 33 C43.33 33.08 42.67 33.16 41.98 33.24 C38.95 33.61 35.91 33.99 32.88 34.38 C31.83 34.5 30.78 34.63 29.7 34.76 C22.16 35.62 22.16 35.62 15 38 C13.08 41 13.08 41 12 44 C11.5 42.51 11.5 42.51 11 41 C9.51 41.5 9.51 41.5 8 42 C8.02 41.35 8.03 40.7 8.05 40.03 C8.11 37.04 8.15 34.05 8.19 31.06 C8.21 30.04 8.24 29.02 8.26 27.97 C8.34 19.62 7.14 12.53 2.31 5.56 C0 2.19 0 2.19 0 0 Z " fill="#65A0FA" transform="translate(133,97)"/>
<path d="M0 0 C-0.75 4.75 -0.75 4.75 -3 7 C-3.55 9.07 -4.07 11.16 -4.56 13.25 C-6.37 19.46 -8.48 22.02 -14.07 25.14 C-16 26 -16 26 -17 26 C-15.93 8.67 -15.93 8.67 -11.13 4.3 C-7.72 2.12 -4.15 0 0 0 Z " fill="#16178C" transform="translate(88,83)"/>
<path d="M0 0 C4.32 0.51 8.03 1.2 12 3 C12 3.66 12 4.32 12 5 C11.01 5.33 10.02 5.66 9 6 C13.17 9.76 16.75 12.01 22 14 C22.33 12.35 22.66 10.7 23 9 C27.69 9.57 32.35 10.19 37 11 C36.67 11.99 36.34 12.98 36 14 C33.06 15.12 33.06 15.12 30 16 C29.34 16.33 28.68 16.66 28 17 C18.66 17.76 9.8 12.54 2.62 6.81 C0 4 0 4 0 0 Z " fill="#84C3E3" transform="translate(67,148)"/>
<path d="M0 0 C0.66 0 1.32 0 2 0 C1.97 9.56 0.79 15.21 -6 22 C-7.67 22.04 -9.33 22.04 -11 22 C-9.35 20.35 -7.7 18.7 -6 17 C-6.99 16.67 -7.98 16.34 -9 16 C-7.26 6.14 -7.26 6.14 -3.44 2.69 C-2.63 2.13 -1.83 1.57 -1 1 C-0.67 0.67 -0.34 0.34 0 0 Z " fill="#111286" transform="translate(136,135)"/>
<path d="M0 0 C0.33 0 0.66 0 1 0 C2.57 9.77 2.57 9.77 0.62 13.94 C-2.38 16.3 -5.35 17.66 -8.88 19.09 C-11.21 20.09 -13.02 21.42 -15 23 C-15.66 23 -16.32 23 -17 23 C-15.59 18.65 -13.43 15.04 -10 12 C-8.15 11.2 -8.15 11.2 -6.25 10.56 C-5.18 10.05 -4.11 9.53 -3 9 C-2.09 5.49 -2.09 5.49 -2 2 C-1.34 1.34 -0.68 0.68 0 0 Z " fill="#7D6CEF" transform="translate(132,124)"/>
<path d="M0 0 C4.93 3.88 8.54 7.76 12 13 C11.19 14.94 11.19 14.94 10 17 C9.01 17.33 8.02 17.66 7 18 C2.31 14.44 1.17 9.54 0 4 C0 2.68 0 1.36 0 0 Z " fill="#121286" transform="translate(120,99)"/>
<path d="M0 0 C6 7.71 6 7.71 6 11 C7.65 10.67 9.3 10.34 11 10 C11 10.99 11 11.98 11 13 C10.34 13 9.68 13 9 13 C8.67 13.66 8.34 14.32 8 15 C7.01 14.34 6.02 13.68 5 13 C4.07 12.88 3.14 12.75 2.19 12.62 C-1.65 11.87 -3.92 10.36 -7 8 C-7.33 7.34 -7.66 6.68 -8 6 C-5.69 6.66 -3.38 7.32 -1 8 C-1.33 6.02 -1.66 4.04 -2 2 C-1.34 2 -0.68 2 0 2 C0 1.34 0 0.68 0 0 Z " fill="#7595D5" transform="translate(74,135)"/>
<path d="M0 0 C0.33 0.66 0.66 1.32 1 2 C0.22 4.16 0.22 4.16 -0.94 6.62 C-1.32 7.44 -1.7 8.26 -2.09 9.1 C-2.54 10.04 -2.54 10.04 -3 11 C-1.68 11.33 -0.36 11.66 1 12 C-0.64 13.34 -2.29 14.67 -3.94 16 C-5.31 17.11 -5.31 17.11 -6.71 18.25 C-9 20 -9 20 -10 20 C-10 16.7 -10 13.4 -10 10 C-8.68 9.34 -7.36 8.68 -6 8 C-4.25 6.07 -4.25 6.07 -2.75 3.88 C-2.23 3.15 -1.71 2.43 -1.17 1.68 C-0.79 1.13 -0.4 0.57 0 0 Z " fill="#7C6AED" transform="translate(130,140)"/>
<path d="M0 0 C0.35 4.9 -0.53 7.66 -3 11.88 C-3.56 12.84 -4.11 13.81 -4.69 14.8 C-5.12 15.53 -5.55 16.25 -6 17 C-6.99 16.67 -7.98 16.34 -9 16 C-8.69 15.46 -8.38 14.93 -8.06 14.38 C-6.82 11.6 -6.49 9 -6 6 C-5.06 3.19 -5.06 3.19 -4 1 C-2 0 -2 0 0 0 Z " fill="#4EC8F7" transform="translate(144,138)"/>
<path d="M0 0 C0.33 0.99 0.66 1.98 1 3 C-2.34 8.57 -2.34 8.57 -6.34 9.61 C-8.57 9.85 -10.76 9.99 -13 10 C-13.33 9.01 -13.66 8.02 -14 7 C-13.11 6.74 -13.11 6.74 -12.21 6.48 C-7.36 5 -3.77 3.53 0 0 Z " fill="#6CA4FC" transform="translate(54,114)"/>
<path d="M0 0 C-1.01 2.02 -2.01 4.03 -3.04 6.04 C-3.37 6.7 -3.71 7.37 -4.06 8.06 C-4.4 8.73 -4.75 9.41 -5.1 10.1 C-6.11 12.14 -6.11 12.14 -7 15 C-7.66 15 -8.32 15 -9 15 C-9.79 6.99 -9.79 6.99 -6.62 3 C-2.69 0 -2.69 0 0 0 Z " fill="#3FEEF5" transform="translate(114,175)"/>
<path d="M0 0 C0 0.66 0 1.32 0 2 C-0.69 2.25 -1.37 2.51 -2.08 2.77 C-2.98 3.11 -3.88 3.46 -4.81 3.81 C-5.71 4.15 -6.6 4.49 -7.52 4.83 C-9.94 5.97 -11.18 7.1 -13 9 C-13.66 9 -14.32 9 -15 9 C-14.46 5.2 -12.84 3.5 -10 1 C-6.79 -0.61 -3.56 -0.06 0 0 Z " fill="#70A3FC" transform="translate(161,134)"/>
<path d="M0 0 C0.54 0.28 1.08 0.55 1.64 0.84 C4.32 2.16 7.03 3.39 9.75 4.62 C11.23 5.29 11.23 5.29 12.73 5.98 C13.86 6.48 13.86 6.48 15 7 C13 9 13 9 10.25 9.44 C5.69 8.82 4.2 7.28 1 4 C0.12 1.69 0.12 1.69 0 0 Z " fill="#70A2FB" transform="translate(146,115)"/>
<path d="M0 0 C4.25 1.49 6.95 2.9 9 7 C9.13 9.67 9.04 12.32 9 15 C8.34 15 7.68 15 7 15 C6.75 14.4 6.49 13.79 6.23 13.17 C4.47 9.08 2.8 5.5 0 2 C0 1.34 0 0.68 0 0 Z " fill="#42EDF5" transform="translate(87,175)"/>
<path d="M0 0 C9.04 -0.3 9.04 -0.3 12 2 C15 6.29 15 6.29 15 9 C12.79 7.93 10.71 6.81 8.62 5.5 C5.82 3.9 3.08 2.93 0 2 C0 1.34 0 0.68 0 0 Z " fill="#70A0FB" transform="translate(40,134)"/>
<path d="M0 0 C4.95 0.33 9.9 0.66 15 1 C15 1.66 15 2.32 15 3 C11.71 4.3 8.51 5.44 5 6 C1.88 4.31 1.88 4.31 0 2 C0 1.34 0 0.68 0 0 Z " fill="#837DF1" transform="translate(91,80)"/>
<path d="M0 0 C0.66 0.99 1.32 1.98 2 3 C1.04 4.13 0.08 5.25 -0.88 6.38 C-1.41 7 -1.94 7.63 -2.49 8.27 C-3.61 9.56 -4.79 10.79 -6 12 C-6.31 9.19 -6.31 9.19 -6 6 C-3.56 4.31 -3.56 4.31 -1 3 C-0.67 2.01 -0.34 1.02 0 0 Z " fill="#735DD6" transform="translate(81,100)"/>
<path d="M0 0 C2.64 0 5.28 0 8 0 C8 0.66 8 1.32 8 2 C5.69 2.66 3.38 3.32 1 4 C0.67 2.68 0.34 1.36 0 0 Z " fill="#3F3FD0" transform="translate(98,81)"/>
<path d="M0 0 C0.99 0.33 1.98 0.66 3 1 C3.69 3.06 3.69 3.06 4 5 C2.35 5.33 0.7 5.66 -1 6 C-1.04 4.33 -1.04 2.67 -1 1 C-0.67 0.67 -0.34 0.34 0 0 Z " fill="#8DAAF2" transform="translate(75,140)"/>
<path d="M0 0 C0.33 0.66 0.66 1.32 1 2 C2.32 2 3.64 2 5 2 C5 2.66 5 3.32 5 4 C5.66 4.33 6.32 4.66 7 5 C5.35 5.33 3.7 5.66 2 6 C2 5.34 2 4.68 2 4 C0.68 4 -0.64 4 -2 4 C-1.34 2.68 -0.68 1.36 0 0 Z " fill="#7276D8" transform="translate(111,157)"/>
<path d="M0 0 C0.33 1.32 0.66 2.64 1 4 C-0.98 4.66 -2.96 5.32 -5 6 C-5.66 4.68 -6.32 3.36 -7 2 C-4.69 2 -2.38 2 0 2 C0 1.34 0 0.68 0 0 Z " fill="#73A0D4" transform="translate(81,121)"/>
<path d="M0 0 C0.33 0.66 0.66 1.32 1 2 C0.22 4.16 0.22 4.16 -0.94 6.62 C-1.32 7.44 -1.7 8.26 -2.09 9.1 C-2.39 9.73 -2.69 10.35 -3 11 C-3.66 10.01 -4.32 9.02 -5 8 C-3.63 5.05 -2.01 2.56 0 0 Z " fill="#6859D6" transform="translate(130,140)"/>
<path d="M0 0 C0.33 0.66 0.66 1.32 1 2 C0 4.16 0 4.16 -1.44 6.62 C-1.91 7.44 -2.38 8.26 -2.87 9.1 C-3.24 9.73 -3.62 10.35 -4 11 C-4.66 10.34 -5.32 9.68 -6 9 C-4.02 6.03 -2.04 3.06 0 0 Z " fill="#7E90E0" transform="translate(99,97)"/>
<path d="M0 0 C0 3.61 -0.82 4.41 -3 7.19 C-3.56 7.9 -4.11 8.62 -4.69 9.36 C-5.12 9.9 -5.55 10.44 -6 11 C-6.71 9.23 -6.71 9.23 -7 7 C-5.57 5.08 -5.57 5.08 -3.56 3.25 C-2.57 2.33 -2.57 2.33 -1.57 1.39 C-1.05 0.93 -0.53 0.47 0 0 Z " fill="#5584D7" transform="translate(70,93)"/>
<path d="M0 0 C0.66 0.33 1.32 0.66 2 1 C0.35 3.97 -1.3 6.94 -3 10 C-3.66 9.01 -4.32 8.02 -5 7 C-3.35 4.69 -1.7 2.38 0 0 Z " fill="#7789E2" transform="translate(135,108)"/>
<path d="M0 0 C0.33 0 0.66 0 1 0 C1 2.31 1 4.62 1 7 C0.01 7.33 -0.98 7.66 -2 8 C-2.12 5.12 -2.12 5.12 -2 2 C-1.34 1.34 -0.68 0.68 0 0 Z " fill="#6A5AD7" transform="translate(132,124)"/>
</svg>
