<?xml version="1.0" encoding="UTF-8"?>
<!-- Generator: https://ezgif.com/webp-to-svg -->
<svg version="1.1" xmlns="http://www.w3.org/2000/svg" width="50" height="50">
<path d="M0 0 C0.99 0.66 1.98 1.32 3 2 C2.58 8.2 1.4 13.27 -1 19 C0.65 19 2.3 19 4 19 C4.66 20.32 5.32 21.64 6 23 C6.99 23 7.98 23 9 23 C9 23.66 9 24.32 9 25 C10.8 25.7 10.8 25.7 13 26 C14.34 25.35 15.68 24.68 17 24 C17.99 24.33 18.98 24.66 20 25 C19.08 30.56 15.29 34.57 11 38 C6.68 39.1 3.16 38.39 -1 37 C-3.64 40.63 -6.28 44.26 -9 48 C-10.32 47.67 -11.64 47.34 -13 47 C-14.5 43.12 -13.43 40.57 -12.06 36.75 C-11.68 35.67 -11.3 34.59 -10.91 33.48 C-10.61 32.66 -10.31 31.84 -10 31 C-13.24 30.28 -16.24 29.86 -19.56 29.88 C-20.68 29.87 -20.68 29.87 -21.82 29.87 C-23.99 30 -25.91 30.4 -28 31 C-28.66 29.68 -29.32 28.36 -30 27 C-29.36 26.75 -28.72 26.5 -28.06 26.25 C-25.81 25.18 -25.81 25.18 -25.25 22.88 C-25.17 22.26 -25.09 21.64 -25 21 C-25.99 21 -26.98 21 -28 21 C-28 20.01 -28 19.02 -28 18 C-24.7 17.67 -21.4 17.34 -18 17 C-18 17.99 -18 18.98 -18 20 C-19.32 20 -20.64 20 -22 20 C-21.67 21.32 -21.34 22.64 -21 24 C-19.02 24 -17.04 24 -15 24 C-14.57 22.21 -14.57 22.21 -14.12 20.38 C-12.52 15.49 -9.91 11.64 -6.94 7.5 C-6.49 6.88 -6.04 6.25 -5.58 5.61 C-2.29 1.14 -2.29 1.14 0 0 Z M3 29 C2.34 30.98 1.68 32.96 1 35 C4.99 35.89 4.99 35.89 9 36 C12.04 33.79 12.04 33.79 14 31 C14 30.67 14 30.34 14 30 C10.37 29.67 6.74 29.34 3 29 Z " fill="#1E0DEC" transform="translate(30,1)"/>
<path d="M0 0 C0 3 0 3 -1 5 C0.32 5 1.64 5 3 5 C3.49 5.52 3.99 6.03 4.5 6.56 C4.99 7.04 5.49 7.51 6 8 C8.16 7.77 8.16 7.77 10 7 C10 6.34 10 5.68 10 5 C10.99 5 11.98 5 13 5 C13 5.66 13 6.32 13 7 C14.8 7.7 14.8 7.7 17 8 C18.34 7.35 19.68 6.68 21 6 C22.48 6.5 22.48 6.5 24 7 C23.08 12.56 19.29 16.57 15 20 C10.68 21.1 7.16 20.39 3 19 C0.36 22.63 -2.28 26.26 -5 30 C-6.32 29.67 -7.64 29.34 -9 29 C-10.5 25.12 -9.43 22.57 -8.06 18.75 C-7.68 17.67 -7.3 16.59 -6.91 15.48 C-6.61 14.66 -6.31 13.84 -6 13 C-6.99 12.67 -7.98 12.34 -9 12 C-9 10.35 -9 8.7 -9 7 C-8.01 7.33 -7.02 7.66 -6 8 C-6.66 8 -7.32 8 -8 8 C-8 8.66 -8 9.32 -8 10 C-6.02 10 -4.04 10 -2 10 C-1.67 9.34 -1.34 8.68 -1 8 C-1.99 7.67 -2.98 7.34 -4 7 C-2.93 4.08 -2.22 2.22 0 0 Z M7 11 C6.34 12.98 5.68 14.96 5 17 C8.99 17.89 8.99 17.89 13 18 C16.04 15.79 16.04 15.79 18 13 C18 12.67 18 12.34 18 12 C14.37 11.67 10.74 11.34 7 11 Z " fill="#AF7901" transform="translate(26,19)"/>
<path d="M0 0 C-0.66 1.32 -1.32 2.64 -2 4 C-2.66 4 -3.32 4 -4 4 C-4 3.01 -4 2.02 -4 1 C-4.66 1 -5.32 1 -6 1 C-5.59 1.87 -5.18 2.74 -4.76 3.63 C-4 7 -4 7 -5.55 9.99 C-6.32 10.94 -7.09 11.89 -7.88 12.88 C-8.64 13.84 -9.4 14.81 -10.18 15.8 C-10.78 16.53 -11.38 17.25 -12 18 C-13.32 17.67 -14.64 17.34 -16 17 C-17.68 11.98 -16.13 7.68 -14 3 C-9.34 -1.66 -6.05 -1.25 0 0 Z " fill="#1B0AD8" transform="translate(33,31)"/>
<path d="M0 0 C0 0.99 0 1.98 0 3 C-1.32 3 -2.64 3 -4 3 C-3.67 4.32 -3.34 5.64 -3 7 C-1.02 7 0.96 7 3 7 C3.38 8.66 3.71 10.32 4 12 C3 13 3 13 1.07 13.06 C-0.51 13.02 -2.09 12.98 -3.68 12.94 C-5.94 13 -7.83 13.36 -10 14 C-10.66 12.68 -11.32 11.36 -12 10 C-11.36 9.75 -10.72 9.51 -10.06 9.25 C-7.81 8.18 -7.81 8.18 -7.25 5.88 C-7.17 5.26 -7.08 4.64 -7 4 C-7.99 4 -8.98 4 -10 4 C-10 3.01 -10 2.02 -10 1 C-3.37 0 -3.37 0 0 0 Z " fill="#9F6B00" transform="translate(12,18)"/>
<path d="M0 0 C0.66 0.33 1.32 0.66 2 1 C1.58 7.2 0.4 12.27 -2 18 C-0.35 18 1.3 18 3 18 C3.69 20.81 3.69 20.81 4 24 C2.56 25.88 2.56 25.88 1 27 C-0.5 25.62 -0.5 25.62 -2 24 C-2 23.34 -2 22.68 -2 22 C-3.32 22 -4.64 22 -6 22 C-5.67 20.02 -5.34 18.04 -5 16 C-4.34 16 -3.68 16 -3 16 C-2.88 15.03 -2.75 14.06 -2.62 13.06 C-2 8.65 -1.01 4.34 0 0 Z " fill="#4D48C5" transform="translate(31,2)"/>
<path d="M0 0 C0 3 0 3 -1 5 C0.32 5 1.64 5 3 5 C7 9.22 7 9.22 7 12 C5.17 11.91 5.17 11.91 3.31 11.81 C-0.58 11.79 -2.84 12.63 -6 15 C-6 14.34 -6 13.68 -6 13 C-6.99 12.67 -7.98 12.34 -9 12 C-9 10.35 -9 8.7 -9 7 C-8.01 7.33 -7.02 7.66 -6 8 C-6.66 8 -7.32 8 -8 8 C-8 8.66 -8 9.32 -8 10 C-6.02 10 -4.04 10 -2 10 C-1.67 9.34 -1.34 8.68 -1 8 C-1.99 7.67 -2.98 7.34 -4 7 C-2.93 4.08 -2.22 2.22 0 0 Z " fill="#A77387" transform="translate(26,19)"/>
<path d="M0 0 C0.66 0 1.32 0 2 0 C1.67 3.63 1.34 7.26 1 11 C1.48 10.35 1.96 9.7 2.46 9.03 C3.09 8.2 3.72 7.36 4.38 6.5 C5 5.66 5.63 4.83 6.27 3.97 C6.84 3.32 7.41 2.67 8 2 C8.66 2 9.32 2 10 2 C8.41 7.09 5.26 10.87 2 15 C0.68 14.67 -0.64 14.34 -2 14 C-3.25 10.45 -2.72 8.28 -1.56 4.75 C-1.28 3.86 -0.99 2.97 -0.69 2.05 C-0.46 1.37 -0.24 0.7 0 0 Z " fill="#423AF1" transform="translate(19,34)"/>
<path d="M0 0 C0.66 0.33 1.32 0.66 2 1 C1.54 1.65 1.08 2.3 0.61 2.98 C-0 3.85 -0.62 4.72 -1.25 5.62 C-1.89 6.53 -2.53 7.44 -3.18 8.38 C-4.6 10.42 -5.97 12.47 -7.31 14.56 C-9 17 -9 17 -11 18 C-9.48 13.57 -7.07 9.97 -4.38 6.19 C-3.95 5.59 -3.53 4.99 -3.1 4.38 C-2.07 2.91 -1.04 1.46 0 0 Z " fill="#423BF9" transform="translate(28,2)"/>
<path d="M0 0 C0.99 0.33 1.98 0.66 3 1 C2.34 1 1.68 1 1 1 C1 1.66 1 2.32 1 3 C4.95 3.18 7.6 3.09 11 1 C9.54 5.39 7.02 5.88 3 8 C3 7.34 3 6.68 3 6 C2.01 5.67 1.02 5.34 0 5 C0 3.35 0 1.7 0 0 Z " fill="#78559D" transform="translate(17,26)"/>
<path d="M0 0 C0.99 0.33 1.98 0.66 3 1 C2.67 2.65 2.34 4.3 2 6 C-0.64 6 -3.28 6 -6 6 C-6 4.68 -6 3.36 -6 2 C-4.68 2 -3.36 2 -2 2 C-2 2.66 -2 3.32 -2 4 C-1.34 3.67 -0.68 3.34 0 3 C0 2.01 0 1.02 0 0 Z " fill="#C78903" transform="translate(13,25)"/>
<path d="M0 0 C0.66 0 1.32 0 2 0 C0.51 4.59 -1.85 7.44 -5 11 C-5.99 10.67 -6.98 10.34 -8 10 C-6.72 8.33 -5.42 6.66 -4.12 5 C-3.05 3.61 -3.05 3.61 -1.95 2.19 C-1.3 1.47 -0.66 0.74 0 0 Z " fill="#3A37C1" transform="translate(27,36)"/>
<path d="M0 0 C2.97 0.5 2.97 0.5 6 1 C5.67 2.65 5.34 4.3 5 6 C4.01 6 3.02 6 2 6 C2 5.34 2 4.68 2 4 C0.68 4 -0.64 4 -2 4 C-1.34 2.68 -0.68 1.36 0 0 Z " fill="#2F2FF9" transform="translate(27,20)"/>
<path d="M0 0 C1.98 0 3.96 0 6 0 C6.69 2.81 6.69 2.81 7 6 C5.56 7.88 5.56 7.88 4 9 C3.34 8.67 2.68 8.34 2 8 C2 7.34 2 6.68 2 6 C2.66 6 3.32 6 4 6 C4.33 4.35 4.66 2.7 5 1 C3.35 1.33 1.7 1.66 0 2 C0 1.34 0 0.68 0 0 Z " fill="#4641E9" transform="translate(28,20)"/>
<path d="M0 0 C0.99 0.33 1.98 0.66 3 1 C3 2.32 3 3.64 3 5 C2.34 5 1.68 5 1 5 C1 6.65 1 8.3 1 10 C-0.8 7.24 -1.01 6.11 -0.62 2.75 C-0.42 1.84 -0.21 0.93 0 0 Z " fill="#443DEC" transform="translate(16,21)"/>
<path d="M0 0 C0.66 0 1.32 0 2 0 C2 0.99 2 1.98 2 3 C3.65 3.33 5.3 3.66 7 4 C7 4.99 7 5.98 7 7 C4.08 5.93 2.22 5.22 0 3 C0 2.01 0 1.02 0 0 Z " fill="#AC772F" transform="translate(27,32)"/>
<path d="M0 0 C0.99 0.33 1.98 0.66 3 1 C3.69 3.06 3.69 3.06 4 5 C1.03 4.5 1.03 4.5 -2 4 C-1.34 2.68 -0.68 1.36 0 0 Z " fill="#BE8459" transform="translate(29,26)"/>
<path d="M0 0 C0.99 0 1.98 0 3 0 C2.67 1.32 2.34 2.64 2 4 C1.34 3.67 0.68 3.34 0 3 C0 2.01 0 1.02 0 0 Z " fill="#000C9D" transform="translate(41,23)"/>
</svg>
