<?xml version="1.0" encoding="UTF-8"?>
<!-- Generator: https://ezgif.com/png-to-svg -->
<svg version="1.1" xmlns="http://www.w3.org/2000/svg" width="512" height="512" viewBox="-57.676 -23.071 424.502 424.502" preserveAspectRatio="xMidYMid meet">
<path d="M0 0 C2.7 1.11 2.7 1.11 5.47 2.68 C6.52 3.27 7.57 3.86 8.65 4.47 C9.78 5.12 10.9 5.77 12.06 6.44 C13.26 7.12 14.45 7.79 15.65 8.47 C18.8 10.26 21.95 12.08 25.09 13.89 C26.97 14.98 28.86 16.07 30.74 17.15 C46.76 26.37 62.53 35.9 78 46 C78.62 46.4 79.23 46.8 79.87 47.21 C83.28 49.43 86.65 51.7 90 54 C91.08 54.74 92.16 55.48 93.27 56.25 C133.33 84.15 133.33 84.15 136.75 99.34 C136.93 101.17 136.93 101.17 137.12 103.05 C137.19 103.76 137.26 104.47 137.33 105.2 C137.58 107.8 137.8 110.4 138 113 C138.08 114.07 138.17 115.13 138.26 116.23 C138.84 123.88 139.37 131.53 139.86 139.18 C140.03 141.87 140.21 144.56 140.4 147.26 C141.4 161.74 142.2 176.22 142.37 190.73 C142.39 191.89 142.42 193.05 142.45 194.25 C142.48 206.09 138.66 215.65 132.75 225.75 C132.29 226.55 131.83 227.36 131.36 228.19 C130.25 230.13 129.13 232.07 128 234 C131.63 232.02 135.26 230.04 139 228 C140.37 231.43 141.26 233.68 141.81 237.14 C142 238.31 142 238.31 142.19 239.51 C142.32 240.34 142.45 241.18 142.59 242.04 C142.88 243.83 143.17 245.63 143.47 247.43 C143.92 250.24 144.37 253.04 144.82 255.85 C145.25 258.58 145.7 261.31 146.15 264.04 C146.29 264.91 146.44 265.79 146.59 266.7 C147.61 272.57 149.12 278.01 151.45 283.53 C152.2 286.91 151.37 288.86 150 292 C148.83 293.79 148.83 293.79 147.52 295.27 C147.03 295.84 146.53 296.41 146.02 297 C145.47 297.6 144.93 298.2 144.38 298.81 C143.81 299.46 143.24 300.1 142.65 300.76 C129.22 315.81 115.42 330.96 100 344 C99.03 344.86 98.07 345.71 97.07 346.59 C87.51 355.02 77.43 362.67 67 370 C66.34 370.46 65.69 370.92 65.01 371.4 C54.85 378.42 54.85 378.42 49.38 378.69 C46 378 46 378 44 376.94 C42.2 373.45 42.5 369.69 43.6 365.97 C44.44 363.73 45.34 361.52 46.25 359.31 C55.71 334.71 56.89 307.73 57.27 281.61 C57.29 279.88 57.29 279.88 57.32 278.11 C57.4 272.33 57.44 266.55 57.45 260.76 C57.46 258.62 57.48 256.49 57.5 254.35 C57.49 253.36 57.48 252.38 57.47 251.36 C57.55 244.64 57.55 244.64 59.79 241.48 C61.8 240.13 63.77 239.01 65.94 237.95 C71.42 234.64 72.87 229.56 74.94 223.75 C75.7 221.74 76.45 219.74 77.21 217.73 C77.7 216.41 77.7 216.41 78.19 215.05 C79 213 79 213 80 212 C82.96 211.98 85.89 212.03 88.85 212.12 C89.73 212.14 90.62 212.17 91.53 212.19 C94.38 212.27 97.22 212.35 100.06 212.44 C101.99 212.49 103.91 212.54 105.83 212.6 C110.55 212.73 115.28 212.86 120 213 C117.29 210.91 114.58 208.83 111.88 206.75 C110.73 205.87 110.73 205.87 109.57 204.97 C105.47 201.83 101.34 198.8 97 196 C97 197.32 97 198.64 97 200 C98.98 201.69 98.98 201.69 101.5 203.06 C104.03 204.54 104.03 204.54 106 206 C106 206.99 106 207.98 106 209 C98.08 208.67 90.16 208.34 82 208 C82.83 203.83 83.88 200.44 85.41 196.5 C85.65 195.88 85.89 195.26 86.14 194.62 C86.92 192.6 87.71 190.58 88.5 188.56 C89.04 187.17 89.58 185.78 90.12 184.39 C94.62 172.87 99.25 161.41 104 150 C100.27 152.44 96.53 154.88 92.8 157.32 C91.48 158.19 90.16 159.05 88.83 159.92 C82.03 164.37 75.23 168.82 68.5 173.38 C67.54 174.03 66.58 174.68 65.6 175.34 C63.81 176.55 62.04 177.76 60.26 178.98 C59.47 179.52 58.68 180.05 57.87 180.61 C57.19 181.07 56.51 181.54 55.81 182.02 C54 183 54 183 51 183 C50 179.54 49 176.08 48 172.62 C47.71 171.64 47.43 170.66 47.13 169.64 C46.86 168.7 46.59 167.76 46.31 166.79 C45.94 165.49 45.94 165.49 45.55 164.15 C45 162 45 162 45 160 C48.31 161.07 50.57 162.39 53.12 164.69 C54.07 165.45 55.02 166.21 56 167 C56.99 166.67 57.98 166.34 59 166 C55.81 161.62 52.18 158.52 47.94 155.25 C47.31 154.76 46.69 154.26 46.04 153.75 C43.39 151.69 41.22 150.07 38 149 C38.41 150.46 38.41 150.46 38.83 151.95 C39.84 155.57 40.84 159.2 41.85 162.82 C42.28 164.39 42.72 165.96 43.15 167.52 C43.79 169.78 44.41 172.04 45.03 174.29 C45.33 175.34 45.33 175.34 45.63 176.4 C46.61 180 47.39 183.27 47 187 C45.45 188.6 45.45 188.6 43.12 190.06 C42.23 190.65 41.34 191.23 40.41 191.83 C39.63 192.33 39.63 192.33 38.83 192.83 C35.84 194.74 32.9 196.71 29.96 198.68 C28.33 199.76 26.7 200.84 25.07 201.91 C24.32 202.41 23.56 202.91 22.78 203.43 C22.1 203.87 21.42 204.32 20.72 204.78 C18.86 206.02 18.86 206.02 17 208 C16.62 221.15 19.47 234.48 21.57 247.41 C21.99 250.05 22.41 252.69 22.82 255.32 C22.95 256.12 23.09 256.92 23.22 257.75 C24.39 265.18 24.39 265.18 23 269 C20.68 270.87 18.52 272.4 16 273.94 C14.63 274.81 13.25 275.68 11.88 276.55 C11.22 276.96 10.55 277.38 9.86 277.81 C6.78 279.78 3.86 281.96 0.93 284.14 C-1.75 285.33 -3.19 284.75 -6 284 C-8.23 282.85 -8.23 282.85 -10.47 281.42 C-11.29 280.9 -12.11 280.38 -12.95 279.84 C-13.79 279.3 -14.63 278.75 -15.5 278.19 C-16.34 277.65 -17.18 277.12 -18.05 276.57 C-19.67 275.53 -21.28 274.47 -22.88 273.4 C-25.13 271.87 -25.13 271.87 -28.16 270.3 C-30.39 267.51 -30.22 266.74 -29.97 263.26 C-29.67 261.17 -29.35 259.08 -29 257 C-28.73 255.15 -28.73 255.15 -28.45 253.27 C-27.72 248.41 -26.95 243.55 -26.16 238.7 C-25.48 234.51 -24.85 230.32 -24.29 226.12 C-24.09 224.68 -23.88 223.25 -23.65 221.82 C-22.06 213.45 -22.06 213.45 -24.54 205.71 C-26.92 203.8 -29.31 202.42 -32 201 C-33.84 199.8 -35.68 198.6 -37.5 197.38 C-39.52 196.1 -41.54 194.83 -43.56 193.56 C-45.8 192.15 -48.04 190.73 -50.27 189.3 C-50.83 188.95 -51.4 188.59 -51.98 188.22 C-57.62 184.62 -63.19 180.91 -68.75 177.19 C-78.13 170.9 -87.55 164.68 -97 158.5 C-97.98 157.86 -97.98 157.86 -98.98 157.2 C-102.65 154.8 -106.33 152.4 -110 150 C-109.74 150.63 -109.48 151.26 -109.21 151.91 C-103.59 165.55 -98.1 179.23 -92.78 192.99 C-91.88 195.31 -90.97 197.63 -90.06 199.95 C-87.47 206.59 -84.9 213.23 -82.5 219.94 C-78.53 231.51 -78.53 231.51 -70 239.75 C-68.34 240.52 -66.68 241.27 -65 242 C-63.83 244.35 -63.86 245.77 -63.83 248.39 C-63.81 249.76 -63.81 249.76 -63.79 251.16 C-63.77 252.16 -63.76 253.16 -63.75 254.18 C-63.72 256.32 -63.69 258.45 -63.66 260.58 C-63.64 261.7 -63.63 262.82 -63.61 263.98 C-62.98 315.54 -62.98 315.54 -50.37 365.27 C-49.04 368.89 -48.47 371.2 -49 375 C-50 376.88 -50 376.88 -52 378 C-58.67 378.63 -62.22 377.34 -67.69 373.62 C-68.38 373.17 -69.07 372.72 -69.78 372.26 C-76.45 367.84 -82.77 363.02 -89 358 C-89.94 357.25 -90.89 356.5 -91.86 355.72 C-97.49 351.19 -102.89 346.46 -108.2 341.55 C-110.36 339.58 -112.55 337.66 -114.77 335.75 C-119.39 331.72 -123.73 327.42 -128.06 323.06 C-128.83 322.3 -129.59 321.54 -130.38 320.76 C-135.13 316 -139.64 311.11 -144 306 C-145.09 304.74 -146.18 303.48 -147.27 302.23 C-148.31 301.03 -149.34 299.83 -150.38 298.62 C-151.17 297.7 -151.17 297.7 -151.99 296.76 C-157.05 290.88 -157.05 290.88 -156.81 286.44 C-156.26 281.98 -155.22 277.67 -154.14 273.32 C-151.73 263.33 -150.1 253.24 -148.49 243.1 C-148.13 240.78 -147.75 238.47 -147.37 236.16 C-147.26 235.45 -147.15 234.74 -147.04 234.01 C-146.76 232.33 -146.39 230.66 -146 229 C-145.34 228.67 -144.68 228.34 -144 228 C-141.62 229.21 -141.62 229.21 -138.88 230.94 C-137.96 231.5 -137.05 232.07 -136.12 232.65 C-135.07 233.32 -135.07 233.32 -134 234 C-134.28 233.52 -134.56 233.04 -134.85 232.54 C-136.16 230.28 -137.46 228.02 -138.75 225.75 C-139.42 224.61 -139.42 224.61 -140.09 223.45 C-146.4 212.33 -148.64 202.34 -148.39 189.59 C-148.38 188.19 -148.36 186.8 -148.35 185.41 C-148.14 170.04 -147.18 154.7 -146.08 139.37 C-145.8 135.36 -145.54 131.34 -145.28 127.33 C-145.08 124.17 -144.86 121.01 -144.64 117.86 C-144.54 116.38 -144.44 114.9 -144.35 113.41 C-143.4 98.29 -139.79 88.93 -128.5 78.75 C-127.01 77.49 -125.51 76.24 -124 75 C-123 74.16 -122 73.32 -120.96 72.46 C-105.19 59.43 -88.18 48 -70.6 37.56 C-67.59 35.75 -64.6 33.92 -61.61 32.07 C-46.5 22.79 -31.22 13.92 -15.63 5.46 C-13.41 4.23 -11.27 2.93 -9.11 1.58 C-5.6 -0.21 -3.89 -0.33 0 0 Z " fill="#390B65" transform="translate(157,0)"/>
<path d="M0 0 C4.15 0.83 6.12 1.41 9.61 3.41 C10.49 3.92 11.38 4.43 12.29 4.95 C13.25 5.5 14.2 6.05 15.19 6.62 C16.2 7.2 17.2 7.78 18.24 8.38 C20.4 9.61 22.55 10.85 24.7 12.1 C27.94 13.97 31.2 15.82 34.45 17.67 C54.41 29.05 74.07 40.96 93 54 C93.57 54.39 94.14 54.78 94.72 55.18 C136.24 83.77 136.24 83.77 139.75 99.34 C139.87 100.56 139.99 101.79 140.12 103.05 C140.19 103.76 140.26 104.47 140.33 105.2 C140.58 107.8 140.8 110.4 141 113 C141.08 114.07 141.17 115.13 141.26 116.23 C141.84 123.88 142.37 131.53 142.86 139.18 C143.03 141.87 143.21 144.56 143.4 147.26 C144.4 161.74 145.2 176.22 145.37 190.73 C145.39 191.89 145.42 193.05 145.45 194.25 C145.48 206.09 141.66 215.65 135.75 225.75 C135.29 226.55 134.83 227.36 134.36 228.19 C133.25 230.13 132.13 232.07 131 234 C134.63 232.02 138.26 230.04 142 228 C143.37 231.43 144.26 233.68 144.81 237.14 C144.93 237.92 145.06 238.7 145.19 239.51 C145.32 240.34 145.45 241.18 145.59 242.04 C145.88 243.83 146.17 245.63 146.47 247.43 C146.92 250.24 147.37 253.04 147.82 255.85 C148.25 258.58 148.7 261.31 149.15 264.04 C149.29 264.91 149.44 265.79 149.59 266.7 C150.61 272.57 152.12 278.01 154.45 283.53 C155.2 286.91 154.37 288.86 153 292 C151.83 293.79 151.83 293.79 150.52 295.27 C150.03 295.84 149.53 296.41 149.02 297 C148.47 297.6 147.93 298.2 147.38 298.81 C146.81 299.46 146.24 300.1 145.65 300.76 C132.22 315.81 118.42 330.96 103 344 C102.03 344.86 101.07 345.71 100.07 346.59 C90.51 355.02 80.43 362.67 70 370 C69.34 370.46 68.69 370.92 68.01 371.4 C57.85 378.42 57.85 378.42 52.38 378.69 C49 378 49 378 47 376.94 C45.2 373.45 45.5 369.69 46.6 365.97 C47.44 363.73 48.34 361.52 49.25 359.31 C58.71 334.71 59.89 307.73 60.27 281.61 C60.28 280.45 60.3 279.3 60.32 278.11 C60.4 272.33 60.44 266.55 60.45 260.76 C60.46 258.62 60.48 256.49 60.5 254.35 C60.49 253.36 60.48 252.38 60.47 251.36 C60.55 244.64 60.55 244.64 62.79 241.48 C64.8 240.13 66.77 239.01 68.94 237.95 C74.42 234.64 75.87 229.56 77.94 223.75 C78.7 221.74 79.45 219.74 80.21 217.73 C80.7 216.41 80.7 216.41 81.19 215.05 C82 213 82 213 83 212 C85.96 211.98 88.89 212.03 91.85 212.12 C92.73 212.14 93.62 212.17 94.53 212.19 C97.38 212.27 100.22 212.35 103.06 212.44 C104.99 212.49 106.91 212.54 108.83 212.6 C113.55 212.73 118.28 212.86 123 213 C120.29 210.91 117.58 208.83 114.88 206.75 C113.73 205.87 113.73 205.87 112.57 204.97 C108.47 201.83 104.34 198.8 100 196 C100 197.32 100 198.64 100 200 C101.98 201.69 101.98 201.69 104.5 203.06 C107.03 204.54 107.03 204.54 109 206 C109 206.99 109 207.98 109 209 C101.08 208.67 93.16 208.34 85 208 C85.83 203.83 86.88 200.44 88.41 196.5 C88.65 195.88 88.89 195.26 89.14 194.62 C89.92 192.6 90.71 190.58 91.5 188.56 C92.04 187.17 92.58 185.78 93.12 184.39 C97.62 172.87 102.25 161.41 107 150 C103.27 152.44 99.53 154.88 95.8 157.32 C94.48 158.19 93.16 159.05 91.83 159.92 C85.03 164.37 78.23 168.82 71.5 173.38 C70.54 174.03 69.58 174.68 68.6 175.34 C66.81 176.55 65.04 177.76 63.26 178.98 C62.47 179.52 61.68 180.05 60.87 180.61 C60.19 181.07 59.51 181.54 58.81 182.02 C57 183 57 183 54 183 C53 179.54 52 176.08 51 172.62 C50.71 171.64 50.43 170.66 50.13 169.64 C49.86 168.7 49.59 167.76 49.31 166.79 C49.06 165.92 48.81 165.05 48.55 164.15 C48 162 48 162 48 160 C51.31 161.07 53.57 162.39 56.12 164.69 C57.07 165.45 58.02 166.21 59 167 C59.99 166.67 60.98 166.34 62 166 C58.81 161.62 55.18 158.52 50.94 155.25 C50.31 154.76 49.69 154.26 49.04 153.75 C46.39 151.69 44.22 150.07 41 149 C41.41 150.46 41.41 150.46 41.83 151.95 C42.84 155.57 43.84 159.2 44.85 162.82 C45.28 164.39 45.72 165.96 46.15 167.52 C46.79 169.78 47.41 172.04 48.03 174.29 C48.23 174.99 48.42 175.69 48.63 176.4 C49.61 180 50.39 183.27 50 187 C48.45 188.6 48.45 188.6 46.12 190.06 C45.23 190.65 44.34 191.23 43.41 191.83 C42.89 192.16 42.37 192.49 41.83 192.83 C38.84 194.74 35.9 196.71 32.96 198.68 C31.33 199.76 29.7 200.84 28.07 201.91 C27.32 202.41 26.56 202.91 25.78 203.43 C25.1 203.87 24.42 204.32 23.72 204.78 C21.86 206.02 21.86 206.02 20 208 C19.62 221.15 22.47 234.48 24.57 247.41 C24.99 250.05 25.41 252.69 25.82 255.32 C25.95 256.12 26.09 256.92 26.22 257.75 C27.39 265.18 27.39 265.18 26 269 C23.68 270.87 21.52 272.4 19 273.94 C17.63 274.81 16.26 275.68 14.89 276.55 C13.89 277.18 13.89 277.18 12.87 277.81 C9.73 279.8 6.69 281.93 3.64 284.04 C2 285 2 285 0 285 C0 190.95 0 96.9 0 0 Z " fill="#5B2982" transform="translate(154,0)"/>
</svg>
