<?xml version="1.0" encoding="UTF-8"?>
<!-- Generator: https://ezgif.com/png-to-svg -->
<svg version="1.1" xmlns="http://www.w3.org/2000/svg" width="512" height="512" viewBox="-43.315 -21.61 335.63 335.63" preserveAspectRatio="xMidYMid meet">
<path d="M0 0 C8.75 5.82 8.75 5.82 11.11 9.93 C12.85 12.62 14.34 14.19 17 16 C23.05 17.21 29.03 17.07 35.18 17 C36.97 17.01 38.75 17.02 40.53 17.03 C45.21 17.06 49.89 17.04 54.57 17.01 C59.35 16.99 64.12 17.02 68.9 17.04 C78.27 17.07 87.63 17.05 97 17 C97 23.6 97 30.2 97 37 C98.98 37 100.96 37 103 37 C103.13 43.48 103.21 49.95 103.27 56.43 C103.3 58.64 103.33 60.84 103.38 63.04 C103.44 66.21 103.47 69.38 103.49 72.55 C103.51 73.53 103.54 74.52 103.57 75.53 C103.57 76.45 103.57 77.37 103.57 78.32 C103.58 79.13 103.59 79.94 103.6 80.77 C103 83 103 83 100.49 84.73 C97.89 86.66 97.89 86.66 97.57 88.84 C97.46 91.24 97.51 93.59 97.61 96 C97.63 96.91 97.64 97.82 97.66 98.75 C97.7 100.73 97.75 102.71 97.81 104.68 C97.89 107.83 97.94 110.97 97.97 114.11 C98.06 123.05 98.18 131.99 98.44 140.92 C98.59 146.39 98.66 151.86 98.67 157.33 C98.69 159.4 98.74 161.48 98.83 163.55 C99.2 172.66 99.41 180.61 93.38 187.93 C89.23 192.34 84.69 196.19 80 200 C78.53 201.27 77.07 202.54 75.61 203.82 C74.67 204.65 74.67 204.65 73.7 205.5 C65.95 212.3 65.95 212.3 58.56 219.5 C54.86 223.28 50.75 226.49 46.64 229.8 C43.79 232.17 41.22 234.68 38.66 237.34 C36.32 239.69 33.81 241.82 31.3 243.98 C28.49 246.44 25.75 248.97 23 251.5 C19.03 255.15 15.03 258.77 10.95 262.3 C9.48 263.58 8.03 264.89 6.58 266.2 C5.77 266.94 4.96 267.68 4.12 268.44 C3.39 269.12 2.65 269.8 1.88 270.5 C0 272 0 272 -2 272 C-2 272.66 -2 273.32 -2 274 C-5.49 277.21 -9.27 280.07 -13 283 C-13.7 283.57 -14.39 284.15 -15.11 284.74 C-19.31 288.04 -19.31 288.04 -22.38 287.86 C-25.61 286.8 -27.53 285.27 -30.12 283.06 C-31.09 282.25 -32.05 281.44 -33.04 280.6 C-36.82 277.28 -40.53 273.89 -44.23 270.48 C-47.01 268 -49.85 265.65 -52.75 263.31 C-56.52 260.27 -59.98 257.13 -63.35 253.66 C-65.67 251.33 -68.16 249.21 -70.66 247.06 C-73.53 244.53 -76.33 241.92 -79.12 239.31 C-83.73 235.02 -88.44 230.88 -93.25 226.81 C-97.97 222.82 -102.47 218.71 -106.74 214.23 C-109.35 211.66 -112.09 209.28 -114.86 206.88 C-118.33 203.83 -121.7 200.67 -125.06 197.5 C-125.73 196.87 -126.4 196.25 -127.09 195.61 C-129.07 193.75 -131.04 191.89 -133 190 C-133.85 189.31 -133.85 189.31 -134.71 188.6 C-138.19 185.55 -140.42 183.31 -140.85 178.59 C-140.87 176.91 -140.85 175.24 -140.81 173.56 C-140.81 172.64 -140.81 171.72 -140.82 170.78 C-140.82 168.79 -140.8 166.81 -140.77 164.82 C-140.73 161.67 -140.72 158.53 -140.73 155.39 C-140.73 149.85 -140.7 144.31 -140.65 138.77 C-140.58 129.9 -140.54 121.03 -140.55 112.16 C-140.54 109.06 -140.5 105.97 -140.46 102.87 C-140.46 100.97 -140.45 99.08 -140.45 97.18 C-140.42 95.89 -140.42 95.89 -140.39 94.57 C-140.42 90.19 -140.46 88.6 -143.5 85.23 C-144.32 84.49 -145.15 83.76 -146 83 C-146.6 80.65 -146.6 80.65 -146.57 78.21 C-146.57 77.29 -146.57 76.37 -146.57 75.42 C-146.54 74.44 -146.51 73.46 -146.49 72.45 C-146.48 71.44 -146.47 70.42 -146.47 69.38 C-146.44 66.15 -146.38 62.92 -146.31 59.69 C-146.29 57.49 -146.26 55.3 -146.24 53.11 C-146.19 47.74 -146.11 42.37 -146 37 C-144.02 37 -142.04 37 -140 37 C-140.01 36.43 -140.01 35.86 -140.02 35.27 C-140.04 32.7 -140.05 30.13 -140.06 27.56 C-140.07 26.66 -140.08 25.77 -140.09 24.84 C-140.09 23.99 -140.09 23.13 -140.1 22.25 C-140.1 21.46 -140.11 20.67 -140.11 19.86 C-140 18 -140 18 -139 17 C-136.61 16.95 -134.25 16.96 -131.87 17.02 C-130.32 17.04 -128.77 17.07 -127.23 17.09 C-126.4 17.11 -125.57 17.12 -124.72 17.14 C-119.44 17.22 -114.16 17.23 -108.87 17.25 C-104.23 17.28 -99.59 17.32 -94.95 17.43 C-90.46 17.53 -85.98 17.56 -81.49 17.54 C-79.78 17.55 -78.07 17.58 -76.37 17.63 C-67.33 18.2 -67.33 18.2 -59.43 14.61 C-57.09 11.74 -55.39 8.69 -53.77 5.36 C-51.18 0.45 -47.92 -1.69 -43 -4 C-42.18 -4.41 -41.36 -4.81 -40.52 -5.23 C-25.72 -11.63 -13.09 -7.9 0 0 Z " fill="#1D262B" transform="translate(146,8)"/>
<path d="M0 0 C-0.33 0.99 -0.66 1.98 -1 3 C-0.01 3 0.98 3 2 3 C2 4.32 2 5.64 2 7 C1.39 6.89 0.77 6.79 0.14 6.68 C-0.67 6.56 -1.48 6.44 -2.31 6.31 C-3.51 6.12 -3.51 6.12 -4.74 5.93 C-7.06 5.79 -7.06 5.79 -8.76 7.27 C-10.86 10.21 -10.48 12.52 -10 16 C-7.83 18.63 -6.05 20.47 -3 22 C-3.66 23.32 -4.32 24.64 -5 26 C-6.65 25.67 -8.3 25.34 -10 25 C-9.96 29.47 -9.89 33.93 -9.79 38.4 C-9.76 39.92 -9.74 41.43 -9.73 42.95 C-9.71 45.14 -9.66 47.32 -9.61 49.51 C-9.58 51.48 -9.58 51.48 -9.55 53.49 C-8.92 57.5 -7.83 59.16 -5 62 C-0.66 64.17 5.11 63.27 9.88 63.31 C11.07 63.34 12.27 63.37 13.5 63.4 C15.23 63.41 15.23 63.41 16.99 63.43 C18.05 63.44 19.1 63.45 20.19 63.47 C23.71 62.88 24.83 61.78 27 59 C28.27 55.87 28.27 55.87 29 53 C30.95 52.87 32.91 52.74 34.86 52.61 C38.01 51.71 39.1 50.69 41 48 C41.62 44.92 41.7 41.88 41.75 38.75 C41.78 37.91 41.81 37.07 41.84 36.2 C41.91 34.14 41.96 32.07 42 30 C42.33 30.99 42.66 31.98 43 33 C43.99 33 44.98 33 46 33 C46 34.65 46 36.3 46 38 C46.66 38 47.32 38 48 38 C47.67 38.99 47.34 39.98 47 41 C46.67 40.34 46.34 39.68 46 39 C45.01 39.49 45.01 39.49 44 40 C44 41.98 44 43.96 44 46 C44.99 45.01 44.99 45.01 46 44 C46.99 44 47.98 44 49 44 C49.12 49.75 49.12 49.75 48 52 C47.98 52.85 47.96 53.69 47.94 54.56 C46.18 61 40.62 65.38 36 70 C79.06 69.5 79.06 69.5 123 69 C123.33 59.1 123.66 49.2 124 39 C125.65 39 127.3 39 129 39 C129.1 44.21 129.17 49.43 129.22 54.64 C129.24 56.42 129.27 58.19 129.3 59.97 C129.35 62.51 129.37 65.06 129.39 67.61 C129.41 68.41 129.43 69.2 129.45 70.02 C129.45 72.26 129.45 72.26 129 76 C128.34 76.38 127.68 76.76 127 77.16 C124.61 79.36 124.68 79.9 124.53 83.03 C124.53 84.76 124.55 86.5 124.58 88.23 C124.58 89.64 124.58 89.64 124.59 91.09 C124.6 93.14 124.61 95.2 124.64 97.25 C124.67 100.51 124.68 103.76 124.68 107.01 C124.68 116.26 124.73 125.52 124.81 134.77 C124.86 140.42 124.87 146.08 124.86 151.74 C124.86 153.89 124.88 156.05 124.91 158.2 C124.95 161.22 124.95 164.24 124.94 167.26 C124.96 168.14 124.99 169.03 125.01 169.94 C124.95 173.78 124.77 176.09 122.24 179.09 C120.23 180.85 118.17 182.44 116 184 C114.66 185.23 113.32 186.47 112 187.72 C111.34 188.34 110.68 188.96 110 189.61 C109.34 190.23 108.68 190.86 108 191.5 C103.39 195.87 98.72 200.14 93.92 204.31 C90.95 206.93 88.07 209.65 85.19 212.38 C81.13 216.18 77.04 219.85 72.69 223.31 C66.12 228.57 60.12 234.4 54.02 240.19 C49.43 244.55 44.73 248.79 40 253 C39.22 253.71 38.44 254.42 37.63 255.15 C32.84 259.51 27.98 263.79 23.06 268 C22.51 268.48 21.95 268.96 21.38 269.46 C18.92 271.55 17.09 272.97 14 274 C13.67 274.99 13.34 275.98 13 277 C11 277 11 277 8.74 274.84 C7.83 273.9 6.93 272.96 6 272 C4.07 270.2 2.14 268.4 0.19 266.62 C-0.34 266.14 -0.87 265.66 -1.41 265.16 C-4.88 262 -8.39 258.88 -11.94 255.81 C-15.46 252.72 -18.9 249.55 -22.36 246.39 C-24.49 244.46 -26.64 242.57 -28.81 240.69 C-33.26 236.82 -37.55 232.78 -41.86 228.76 C-45.5 225.37 -49.18 222.05 -52.95 218.8 C-56.21 215.94 -59.39 212.98 -62.59 210.04 C-65.29 207.55 -68.02 205.09 -70.81 202.69 C-74.79 199.23 -78.65 195.65 -82.5 192.06 C-83.43 191.2 -83.43 191.2 -84.37 190.32 C-85.58 189.19 -86.78 188.05 -87.96 186.9 C-89.95 184.98 -89.95 184.98 -92.09 183.43 C-95.66 180.53 -97.72 178.31 -98.7 173.74 C-98.93 169.73 -98.9 165.79 -98.78 161.78 C-98.77 160.31 -98.75 158.84 -98.75 157.38 C-98.72 153.53 -98.64 149.7 -98.55 145.86 C-98.47 141.93 -98.43 138 -98.39 134.07 C-98.31 126.38 -98.17 118.69 -98 111 C-96.54 113.65 -96 114.89 -96 118 C-95.01 118 -94.02 118 -93 118 C-93 115.69 -93 113.38 -93 111 C-92.67 111 -92.34 111 -92 111 C-92.01 111.76 -92.02 112.52 -92.03 113.3 C-92.13 120.43 -92.21 127.57 -92.26 134.7 C-92.29 138.37 -92.32 142.04 -92.38 145.71 C-92.43 149.25 -92.46 152.79 -92.47 156.33 C-92.49 158.34 -92.53 160.35 -92.57 162.36 C-92.57 163.58 -92.57 164.8 -92.57 166.06 C-92.58 167.14 -92.59 168.21 -92.6 169.32 C-92.26 172.21 -92.26 172.21 -89.61 173.73 C-88.75 174.15 -87.89 174.57 -87 175 C-85.35 176.54 -83.75 178.12 -82.19 179.75 C-78.54 183.47 -74.82 186.97 -70.86 190.36 C-69 192 -67.25 193.72 -65.5 195.5 C-62.54 198.51 -59.43 201.29 -56.23 204.05 C-53.62 206.33 -51.06 208.66 -48.5 211 C-44.71 214.46 -40.89 217.87 -37.02 221.23 C-32.97 224.78 -28.99 228.4 -25 232 C-23.33 233.5 -21.67 235 -20 236.5 C-19.17 237.24 -18.35 237.99 -17.5 238.75 C-15.84 240.24 -14.19 241.73 -12.54 243.21 C-7.18 248.03 -1.85 252.87 3.46 257.74 C4.3 258.48 5.14 259.23 6 260 C6.85 260.78 7.7 261.55 8.57 262.36 C10.79 264.24 10.79 264.24 12.95 263.77 C15.22 262.92 16.43 261.98 18.17 260.3 C18.75 259.76 19.33 259.21 19.92 258.65 C20.53 258.06 21.13 257.48 21.75 256.88 C23.01 255.67 24.28 254.48 25.54 253.28 C26.15 252.7 26.75 252.13 27.37 251.54 C29.23 249.79 31.13 248.1 33.06 246.44 C36.62 243.37 40.06 240.19 43.5 237 C47.61 233.19 51.74 229.44 55.98 225.77 C58.52 223.55 61.01 221.27 63.5 219 C67.29 215.54 71.11 212.13 74.98 208.77 C78.16 205.98 81.3 203.15 84.44 200.31 C86.91 198.08 89.39 195.85 91.88 193.62 C94.63 191.15 97.37 188.67 100.09 186.16 C100.61 185.68 101.14 185.2 101.68 184.7 C103.17 183.33 104.65 181.95 106.14 180.58 C109 178 109 178 112.13 175.93 C114.79 173.7 115.46 172.17 115.76 168.72 C115.79 166.99 115.8 165.26 115.77 163.53 C115.78 162.58 115.79 161.63 115.81 160.66 C115.83 157.54 115.82 154.42 115.8 151.29 C115.82 149.13 115.83 146.96 115.85 144.79 C115.88 139.09 115.88 133.39 115.88 127.69 C115.87 121.87 115.91 116.05 115.94 110.24 C115.99 98.82 116.01 87.41 116 76 C111.38 76 106.76 76 102 76 C102.02 77.07 102.05 78.14 102.07 79.24 C102.3 89.35 102.46 99.46 102.57 109.56 C102.63 114.76 102.7 119.96 102.83 125.15 C102.95 130.17 103.02 135.19 103.04 140.21 C103.06 142.12 103.1 144.03 103.16 145.94 C103.61 160.91 103.61 160.91 99.62 166.09 C96.85 168.36 94.06 170.16 91 172 C89.66 173.33 88.33 174.66 87 176 C86.34 176 85.68 176 85 176 C85 176.66 85 177.32 85 178 C83.5 179.48 83.5 179.48 81.44 181.19 C78.67 183.53 76.03 185.91 73.5 188.5 C70.55 191.49 67.47 194.25 64.29 196.99 C62.06 198.94 59.89 200.94 57.72 202.95 C53.36 207 48.96 210.9 44.31 214.62 C39.95 218.13 36.02 221.88 32.11 225.88 C29.54 228.46 26.83 230.85 24.06 233.23 C21.68 235.27 19.34 237.35 17 239.44 C16.24 240.12 15.47 240.8 14.69 241.5 C14.13 241.99 13.57 242.49 13 243 C9.99 241.66 8 240.2 5.75 237.81 C3.39 235.38 1.01 233.08 -1.56 230.88 C-5.47 227.51 -9.23 224.02 -13 220.5 C-17.31 216.48 -21.64 212.51 -26.1 208.65 C-32.89 202.76 -39.48 196.65 -46.08 190.54 C-51.36 185.66 -56.67 180.82 -62 176 C-59.67 174.79 -57.5 173.83 -55 173 C-55.99 172.01 -55.99 172.01 -57 171 C-57.2 168.4 -57.2 168.4 -57.12 165.38 C-57.11 164.37 -57.09 163.37 -57.07 162.34 C-57.05 161.57 -57.02 160.79 -57 160 C-54.69 160 -52.38 160 -50 160 C-49.67 161.98 -49.34 163.96 -49 166 C-40.75 166 -32.5 166 -24 166 C-24 165.01 -24 164.02 -24 163 C-23.33 162.81 -22.65 162.62 -21.96 162.43 C-17.77 160.41 -14.9 157.45 -11.62 154.19 C-10.97 153.57 -10.32 152.95 -9.64 152.32 C-5.94 148.86 -5.94 148.86 -4.93 144.13 C-5.86 141.75 -5.86 141.75 -8.56 140.69 C-9.37 140.46 -10.17 140.23 -11 140 C-11 139.67 -11 139.34 -11 139 C-9.02 139 -7.04 139 -5 139 C-5 137.68 -5 136.36 -5 135 C-1.35 136.25 -0.22 136.67 2 140 C2 141.32 2 142.64 2 144 C2.89 143.9 3.77 143.79 4.69 143.69 C9.02 144.1 10.24 145.76 13 149 C13.33 149.33 13.66 149.66 14 150 C14.04 152.33 14.04 154.67 14 157 C14.74 157.06 15.48 157.12 16.25 157.19 C21.65 158.78 24.01 164.52 27 169 C28.81 171.87 28.81 171.87 31 174 C33.63 174.5 33.63 174.5 36 174 C37.23 172.96 37.23 172.96 37.35 170.74 C36.86 166.93 35.23 165.76 32.44 163.19 C28.62 159.56 25.07 155.89 21.68 151.88 C19.35 149.28 16.79 146.95 14.19 144.64 C13 143 13 143 13.31 140.8 C13.54 140.2 13.77 139.61 14 139 C15.32 138.67 16.64 138.34 18 138 C18.59 138.66 19.18 139.33 19.79 140.01 C25.61 146.51 31.46 152.63 38.13 158.25 C40.03 160.03 41.51 161.88 43 164 C44.65 163.67 46.3 163.34 48 163 C49.04 160.83 49.04 160.83 49 158 C47.06 155.63 45.24 153.73 43 151.69 C41.79 150.53 40.58 149.38 39.37 148.22 C38.78 147.67 38.2 147.11 37.59 146.54 C35.07 144.1 32.83 141.46 30.57 138.78 C28.3 136.2 25.8 133.87 23.29 131.54 C22 130 22 130 22 127 C24.12 126.15 24.12 126.15 27 126 C29.27 127.82 31.06 129.5 33 131.62 C33.51 132.16 34.02 132.69 34.54 133.25 C35.55 134.31 36.56 135.38 37.56 136.46 C38.89 137.89 40.27 139.27 41.66 140.66 C43.09 142.09 44.49 143.55 45.84 145.05 C47.49 146.86 49.07 148.5 51 150 C53.74 150.19 53.74 150.19 56 149 C56.99 148.67 57.98 148.34 59 148 C56.97 144.36 54.78 141.54 51.83 138.6 C51.02 137.79 50.21 136.98 49.37 136.15 C48.53 135.32 47.68 134.48 46.81 133.62 C45.99 132.8 45.16 131.97 44.31 131.12 C39.98 126.82 35.57 122.7 30.94 118.72 C27.48 115.65 24.25 112.35 21 109.06 C20.32 108.38 19.64 107.69 18.94 106.99 C17.29 105.33 15.64 103.67 14 102 C10.45 103.66 8.23 105.6 5.5 108.44 C-1.52 115.73 -1.52 115.73 -5.77 116.5 C-10.91 116.6 -15.02 116.68 -19.25 113.5 C-21.5 111.15 -22.51 109.32 -22.81 106.06 C-22.39 101.22 -19.51 98.14 -16 95 C-15.34 94.67 -14.68 94.34 -14 94 C-19.94 93.67 -25.88 93.34 -32 93 C-38.24 104.33 -38.24 104.33 -43.21 116.24 C-44 118 -44 118 -46 119 C-48.35 118.39 -50.69 117.73 -53 117 C-51.28 109.56 -48.21 103.08 -44.69 96.36 C-42.7 92.87 -42.7 92.87 -42 89 C-42.85 88.71 -43.7 88.42 -44.57 88.12 C-45.74 87.71 -46.92 87.3 -48.12 86.88 C-49.83 86.28 -49.83 86.28 -51.57 85.68 C-57.79 83.32 -63.88 80.62 -70 78 C-70 95.82 -70 113.64 -70 132 C-70.66 132 -71.32 132 -72 132 C-72 131.34 -72 130.68 -72 130 C-73.48 130.99 -73.48 130.99 -75 132 C-74.34 135.61 -74.34 135.61 -73 139 C-73.66 139.99 -74.32 140.98 -75 142 C-75.28 145.3 -75.28 145.3 -75.19 148.94 C-75.18 150.16 -75.17 151.39 -75.17 152.65 C-75.03 155.31 -74.79 157.48 -74 160 C-74.99 160.33 -75.98 160.66 -77 161 C-77.33 133.28 -77.66 105.56 -78 77 C-84.93 76.5 -84.93 76.5 -92 76 C-92 74.35 -92 72.7 -92 71 C-93.98 71 -95.96 71 -98 71 C-98 70.67 -98 70.34 -98 70 C-69.29 70 -40.58 70 -11 70 C-12.65 68.35 -14.3 66.7 -16 65 C-22.06 58.78 -25.29 52.53 -27 44 C-50.1 43.67 -73.2 43.34 -97 43 C-95 41 -95 41 -92 39 C-91.67 38.34 -91.34 37.68 -91 37 C-69.55 37 -48.1 37 -26 37 C-26 33.7 -26 30.4 -26 27 C-47.78 27 -69.56 27 -92 27 C-92.33 29.31 -92.66 31.62 -93 34 C-94.65 35.32 -96.3 36.64 -98 38 C-98 32.39 -98 26.78 -98 21 C-73.25 21 -48.5 21 -23 21 C-22.34 19.35 -21.68 17.7 -21 16 C-20.24 15.24 -20.24 15.24 -19.46 14.46 C-17.61 12.61 -17.28 11.08 -16.62 8.56 C-15.66 5.56 -14.95 3.94 -12.94 1.44 C-8.65 -0.66 -4.68 -0.33 0 0 Z " fill="#171E24" transform="translate(112,12)"/>
<path d="M0 0 C-0.33 0.99 -0.66 1.98 -1 3 C-0.01 3 0.98 3 2 3 C2 4.32 2 5.64 2 7 C1.39 6.89 0.77 6.79 0.14 6.68 C-0.67 6.56 -1.48 6.44 -2.31 6.31 C-3.51 6.12 -3.51 6.12 -4.74 5.93 C-7.06 5.79 -7.06 5.79 -8.76 7.27 C-10.86 10.21 -10.48 12.52 -10 16 C-7.83 18.63 -6.05 20.47 -3 22 C-3.66 23.32 -4.32 24.64 -5 26 C-6.65 25.67 -8.3 25.34 -10 25 C-9.96 29.47 -9.89 33.93 -9.79 38.4 C-9.76 39.92 -9.74 41.43 -9.73 42.95 C-9.71 45.14 -9.66 47.32 -9.61 49.51 C-9.58 51.48 -9.58 51.48 -9.55 53.49 C-8.92 57.5 -7.83 59.16 -5 62 C-0.66 64.17 5.11 63.27 9.88 63.31 C11.07 63.34 12.27 63.37 13.5 63.4 C15.23 63.41 15.23 63.41 16.99 63.43 C18.05 63.44 19.1 63.45 20.19 63.47 C23.71 62.88 24.83 61.78 27 59 C28.27 55.87 28.27 55.87 29 53 C30.95 52.87 32.91 52.74 34.86 52.61 C38.01 51.71 39.1 50.69 41 48 C41.62 44.92 41.7 41.88 41.75 38.75 C41.78 37.91 41.81 37.07 41.84 36.2 C41.91 34.14 41.96 32.07 42 30 C42.33 30.99 42.66 31.98 43 33 C43.99 33 44.98 33 46 33 C46 34.65 46 36.3 46 38 C46.66 38 47.32 38 48 38 C47.67 38.99 47.34 39.98 47 41 C46.67 40.34 46.34 39.68 46 39 C45.01 39.49 45.01 39.49 44 40 C44 41.98 44 43.96 44 46 C44.99 45.01 44.99 45.01 46 44 C46.99 44 47.98 44 49 44 C49.12 49.75 49.12 49.75 48 52 C47.98 52.85 47.96 53.69 47.94 54.56 C46.18 61 40.62 65.38 36 70 C79.06 69.5 79.06 69.5 123 69 C123.33 59.1 123.66 49.2 124 39 C125.65 39 127.3 39 129 39 C129.1 44.21 129.17 49.43 129.22 54.64 C129.24 56.42 129.27 58.19 129.3 59.97 C129.35 62.51 129.37 65.06 129.39 67.61 C129.41 68.41 129.43 69.2 129.45 70.02 C129.45 72.26 129.45 72.26 129 76 C128.34 76.38 127.68 76.76 127 77.16 C124.61 79.36 124.68 79.9 124.53 83.03 C124.53 84.76 124.55 86.5 124.58 88.23 C124.58 89.64 124.58 89.64 124.59 91.09 C124.6 93.14 124.61 95.2 124.64 97.25 C124.67 100.51 124.68 103.76 124.68 107.01 C124.68 116.26 124.73 125.52 124.81 134.77 C124.86 140.42 124.87 146.08 124.86 151.74 C124.86 153.89 124.88 156.05 124.91 158.2 C124.95 161.22 124.95 164.24 124.94 167.26 C124.96 168.14 124.99 169.03 125.01 169.94 C124.95 173.78 124.77 176.09 122.24 179.09 C120.23 180.85 118.17 182.44 116 184 C114.66 185.23 113.32 186.47 112 187.72 C111.34 188.34 110.68 188.96 110 189.61 C109.34 190.23 108.68 190.86 108 191.5 C103.39 195.87 98.72 200.14 93.92 204.31 C90.95 206.93 88.07 209.65 85.19 212.38 C81.13 216.18 77.04 219.85 72.69 223.31 C66.12 228.57 60.12 234.4 54.02 240.19 C49.43 244.55 44.73 248.79 40 253 C39.22 253.71 38.44 254.42 37.63 255.15 C32.84 259.51 27.98 263.79 23.06 268 C22.51 268.48 21.95 268.96 21.38 269.46 C18.92 271.55 17.09 272.97 14 274 C13.67 274.99 13.34 275.98 13 277 C11 277 11 277 8.74 274.84 C7.83 273.9 6.93 272.96 6 272 C4.07 270.2 2.14 268.4 0.19 266.62 C-0.34 266.14 -0.87 265.66 -1.41 265.16 C-4.88 262 -8.39 258.88 -11.94 255.81 C-15.46 252.72 -18.9 249.55 -22.36 246.39 C-24.49 244.46 -26.64 242.57 -28.81 240.69 C-33.26 236.82 -37.55 232.78 -41.86 228.76 C-45.5 225.37 -49.18 222.05 -52.95 218.8 C-56.21 215.94 -59.39 212.98 -62.59 210.04 C-65.29 207.55 -68.02 205.09 -70.81 202.69 C-74.79 199.23 -78.65 195.65 -82.5 192.06 C-83.43 191.2 -83.43 191.2 -84.37 190.32 C-85.58 189.19 -86.78 188.05 -87.96 186.9 C-89.95 184.98 -89.95 184.98 -92.09 183.43 C-95.66 180.53 -97.72 178.31 -98.7 173.74 C-98.93 169.73 -98.9 165.79 -98.78 161.78 C-98.77 160.31 -98.75 158.84 -98.75 157.38 C-98.72 153.53 -98.64 149.7 -98.55 145.86 C-98.47 141.93 -98.43 138 -98.39 134.07 C-98.31 126.38 -98.17 118.69 -98 111 C-96.54 113.65 -96 114.89 -96 118 C-95.01 118 -94.02 118 -93 118 C-93 115.69 -93 113.38 -93 111 C-92.67 111 -92.34 111 -92 111 C-92.01 111.76 -92.02 112.52 -92.03 113.3 C-92.13 120.43 -92.21 127.57 -92.26 134.7 C-92.29 138.37 -92.32 142.04 -92.38 145.71 C-92.43 149.25 -92.46 152.79 -92.47 156.33 C-92.49 158.34 -92.53 160.35 -92.57 162.36 C-92.57 163.58 -92.57 164.8 -92.57 166.06 C-92.58 167.14 -92.59 168.21 -92.6 169.32 C-92.26 172.21 -92.26 172.21 -89.61 173.73 C-88.75 174.15 -87.89 174.57 -87 175 C-85.35 176.54 -83.75 178.12 -82.19 179.75 C-78.54 183.47 -74.82 186.97 -70.86 190.36 C-69 192 -67.25 193.72 -65.5 195.5 C-62.54 198.51 -59.43 201.29 -56.23 204.05 C-53.62 206.33 -51.06 208.66 -48.5 211 C-44.71 214.46 -40.89 217.87 -37.02 221.23 C-32.97 224.78 -28.99 228.4 -25 232 C-23.33 233.5 -21.67 235 -20 236.5 C-19.17 237.24 -18.35 237.99 -17.5 238.75 C-15.84 240.24 -14.19 241.73 -12.54 243.21 C-7.18 248.03 -1.85 252.87 3.46 257.74 C4.3 258.48 5.14 259.23 6 260 C6.85 260.78 7.7 261.55 8.57 262.36 C10.79 264.24 10.79 264.24 12.95 263.77 C15.22 262.92 16.43 261.98 18.17 260.3 C18.75 259.76 19.33 259.21 19.92 258.65 C20.53 258.06 21.13 257.48 21.75 256.88 C23.01 255.67 24.28 254.48 25.54 253.28 C26.15 252.7 26.75 252.13 27.37 251.54 C29.23 249.79 31.13 248.1 33.06 246.44 C36.62 243.37 40.06 240.19 43.5 237 C47.61 233.19 51.74 229.44 55.98 225.77 C58.52 223.55 61.01 221.27 63.5 219 C67.29 215.54 71.11 212.13 74.98 208.77 C78.16 205.98 81.3 203.15 84.44 200.31 C86.91 198.08 89.39 195.85 91.88 193.62 C94.63 191.15 97.37 188.67 100.09 186.16 C100.61 185.68 101.14 185.2 101.68 184.7 C103.17 183.33 104.65 181.95 106.14 180.58 C109 178 109 178 112.13 175.93 C114.79 173.7 115.46 172.17 115.76 168.72 C115.79 166.99 115.8 165.26 115.77 163.53 C115.78 162.58 115.79 161.63 115.81 160.66 C115.83 157.54 115.82 154.42 115.8 151.29 C115.82 149.13 115.83 146.96 115.85 144.79 C115.88 139.09 115.88 133.39 115.88 127.69 C115.87 121.87 115.91 116.05 115.94 110.24 C115.99 98.82 116.01 87.41 116 76 C111.38 76 106.76 76 102 76 C102.01 76.97 102.02 77.93 102.04 78.93 C102.16 95.96 101.54 112.98 101 130 C100.67 130 100.34 130 100 130 C99.67 124.72 99.34 119.44 99 114 C98.34 119.61 97.68 125.22 97 131 C96.67 131 96.34 131 96 131 C95.16 124.45 94.87 118.09 94.9 111.5 C94.9 110.05 94.9 110.05 94.91 108.58 C94.91 105.53 94.92 102.48 94.94 99.44 C94.94 97.36 94.95 95.28 94.95 93.2 C94.96 88.13 94.98 83.07 95 78 C92.92 78.8 90.83 79.6 88.75 80.39 C87 81.06 87 81.06 85.23 81.74 C82.82 82.68 80.43 83.65 78.06 84.69 C73.53 86.63 69.97 88 65 88 C65.47 88.79 65.94 89.57 66.43 90.38 C75.19 105.17 75.19 105.17 74.69 109.94 C74.35 110.96 74.35 110.96 74 112 C73.34 112 72.68 112 72 112 C71.67 113.65 71.34 115.3 71 117 C68 116 68 116 66.28 112.58 C65.68 111.14 65.08 109.7 64.5 108.25 C62.59 103.6 60.62 99.31 58 95 C58 94.34 58 93.68 58 93 C57.2 93.17 56.39 93.33 55.56 93.5 C46.93 94.71 40.87 93.66 32.88 90.19 C32.02 89.83 31.17 89.47 30.29 89.11 C26.62 87.57 23.01 86.01 19.45 84.24 C14.98 82.63 11.64 81.6 7 83 C3.38 85.55 0.34 88.49 -2.71 91.7 C-4.13 93.19 -5.59 94.64 -7.06 96.1 C-10.79 99.84 -10.79 99.84 -14 104 C-13.88 106.76 -13.88 106.76 -13 109 C-10.03 109.33 -7.06 109.66 -4 110 C-4 113 -4 113 -5 116 C-10.33 116.58 -14.7 116.86 -19.12 113.5 C-21.46 111.15 -22.52 109.38 -22.81 106.06 C-22.39 101.22 -19.51 98.14 -16 95 C-15.34 94.67 -14.68 94.34 -14 94 C-19.94 93.67 -25.88 93.34 -32 93 C-38.24 104.33 -38.24 104.33 -43.21 116.24 C-44 118 -44 118 -46 119 C-48.35 118.39 -50.69 117.73 -53 117 C-51.28 109.56 -48.21 103.08 -44.69 96.36 C-42.7 92.87 -42.7 92.87 -42 89 C-42.85 88.71 -43.7 88.42 -44.57 88.12 C-45.74 87.71 -46.92 87.3 -48.12 86.88 C-49.83 86.28 -49.83 86.28 -51.57 85.68 C-57.79 83.32 -63.88 80.62 -70 78 C-70 95.82 -70 113.64 -70 132 C-70.66 132 -71.32 132 -72 132 C-72 131.34 -72 130.68 -72 130 C-73.48 130.99 -73.48 130.99 -75 132 C-74.34 135.61 -74.34 135.61 -73 139 C-73.66 139.99 -74.32 140.98 -75 142 C-75.28 145.3 -75.28 145.3 -75.19 148.94 C-75.18 150.16 -75.17 151.39 -75.17 152.65 C-75.03 155.31 -74.79 157.48 -74 160 C-74.99 160.33 -75.98 160.66 -77 161 C-77.33 133.28 -77.66 105.56 -78 77 C-84.93 76.5 -84.93 76.5 -92 76 C-92 74.35 -92 72.7 -92 71 C-93.98 71 -95.96 71 -98 71 C-98 70.67 -98 70.34 -98 70 C-69.29 70 -40.58 70 -11 70 C-12.65 68.35 -14.3 66.7 -16 65 C-22.06 58.78 -25.29 52.53 -27 44 C-50.1 43.67 -73.2 43.34 -97 43 C-95 41 -95 41 -92 39 C-91.67 38.34 -91.34 37.68 -91 37 C-69.55 37 -48.1 37 -26 37 C-26 33.7 -26 30.4 -26 27 C-47.78 27 -69.56 27 -92 27 C-92.33 29.31 -92.66 31.62 -93 34 C-94.65 35.32 -96.3 36.64 -98 38 C-98 32.39 -98 26.78 -98 21 C-73.25 21 -48.5 21 -23 21 C-22.34 19.35 -21.68 17.7 -21 16 C-20.24 15.24 -20.24 15.24 -19.46 14.46 C-17.61 12.61 -17.28 11.08 -16.62 8.56 C-15.66 5.56 -14.95 3.94 -12.94 1.44 C-8.65 -0.66 -4.68 -0.33 0 0 Z " fill="#151D23" transform="translate(112,12)"/>
<path d="M0 0 C0.33 0 0.66 0 1 0 C1 27.72 1 55.44 1 84 C1.99 83.5 1.99 83.5 3 83 C2.93 82.37 2.86 81.74 2.78 81.09 C1.17 66.27 1.17 66.27 4 61 C3.75 58.93 3.75 58.93 3 57 C2.5 55.51 2.5 55.51 2 54 C3.98 53.5 3.98 53.5 6 53 C6 53.66 6 54.32 6 55 C6.66 55 7.32 55 8 55 C8 37.18 8 19.36 8 1 C14.36 3.12 20.69 5.25 27 7.5 C27.86 7.8 28.71 8.09 29.6 8.39 C30.41 8.69 31.22 8.98 32.06 9.28 C32.8 9.54 33.53 9.8 34.29 10.06 C36 11 36 11 37 14 C35.85 16.61 34.65 19.06 33.31 21.56 C30.18 27.59 27.34 33.61 25 40 C27.64 40.33 30.28 40.66 33 41 C33.52 39.79 34.04 38.59 34.57 37.34 C35.28 35.73 35.98 34.11 36.69 32.5 C37.03 31.71 37.37 30.92 37.72 30.1 C38.06 29.32 38.41 28.53 38.76 27.72 C39.07 27.01 39.38 26.29 39.7 25.56 C41.56 21.91 43.83 18.48 46 15 C52.27 15.33 58.54 15.66 65 16 C64.67 16.66 64.34 17.32 64 18 C63.34 18 62.68 18 62 18 C61.73 18.6 61.46 19.2 61.19 19.81 C60 22 60 22 58.38 23.25 C56.46 25.68 56.39 27.96 56.54 30.99 C57.18 33.8 58.54 35.52 60.91 37.12 C65.72 39.14 69.98 39.38 75 38 C79.63 35.08 83.31 30.99 87 27 C88 26 88.99 24.99 90 24 C93.45 25.48 95.65 27.43 98.27 30.11 C99.48 31.33 99.48 31.33 100.71 32.59 C101.55 33.45 102.39 34.3 103.25 35.19 C108.36 40.41 113.48 45.51 119.03 50.27 C122.66 53.45 126.07 56.85 129.5 60.25 C130.23 60.96 130.95 61.66 131.7 62.39 C132.39 63.07 133.07 63.75 133.78 64.45 C134.4 65.06 135.02 65.67 135.66 66.3 C137 68 137 68 137 71 C135.31 72.75 135.31 72.75 133 74 C128.75 73.67 126.87 72.32 124 69.25 C123.36 68.57 122.72 67.9 122.06 67.2 C121.38 66.48 120.7 65.75 120 65 C118.79 63.8 118.79 63.8 117.56 62.57 C115.85 60.85 114.16 59.1 112.5 57.32 C111.68 56.45 110.85 55.58 110 54.69 C109.18 53.8 108.35 52.92 107.5 52.01 C105.16 49.76 105.16 49.76 102.19 49.71 C101.47 49.8 100.74 49.9 100 50 C102.23 54.12 104.89 57.07 108.25 60.31 C112.14 64.12 115.85 68 119.36 72.16 C121.13 74.15 123.04 75.89 125 77.69 C127.99 80.62 127.99 80.62 128.06 83.81 C127 86 127 86 125 88 C122.69 88 122.69 88 120 87 C118.76 85.59 117.52 84.17 116.38 82.68 C114.41 80.28 112.07 78.41 109.69 76.43 C104.6 72.13 100.33 67.03 96 62 C94.68 62.33 93.36 62.66 92 63 C92.4 67.47 95.55 69.84 98.62 72.75 C99.72 73.82 100.82 74.88 101.91 75.95 C102.71 76.73 102.71 76.73 103.52 77.53 C106.03 80.03 108.32 82.69 110.6 85.39 C112.09 87.17 112.09 87.17 114.44 89.19 C116 91 116 91 116.38 93.62 C116 96 116 96 114 98 C111.63 98.41 111.63 98.41 109 98 C106.9 96.02 106.9 96.02 104.94 93.38 C104.25 92.46 103.56 91.55 102.85 90.62 C101.43 88.61 100.1 86.6 98.81 84.5 C96.76 81.68 95.32 80.92 92 80 C91.78 78.36 91.78 78.36 91.56 76.69 C91.12 73.07 91.12 73.07 90 70 C86.88 67.92 83.66 67.5 80 67 C79.77 66.07 79.55 65.14 79.31 64.19 C77.79 60.49 76.54 59.68 73 58 C73 59.32 73 60.64 73 62 C72.01 62.5 72.01 62.5 71 63 C71.52 63.39 72.03 63.78 72.56 64.19 C74 66 74 66 73.79 68.38 C72.9 71.32 71.91 72.61 69.76 74.77 C68.78 75.76 68.78 75.76 67.78 76.77 C67.09 77.45 66.4 78.12 65.69 78.81 C64.67 79.85 64.67 79.85 63.63 80.91 C62.98 81.57 62.32 82.22 61.64 82.89 C61.04 83.49 60.43 84.09 59.82 84.7 C58 86 58 86 54 86 C54 86.99 54 87.98 54 89 C45.42 89.33 36.84 89.66 28 90 C28 87.69 28 85.38 28 83 C25.69 83 23.38 83 21 83 C21 86.63 21 90.26 21 94 C21.99 94.33 22.98 94.66 24 95 C21.79 97.54 20.26 98.31 17 99 C17.67 99.61 18.34 100.22 19.03 100.84 C25.28 106.55 31.47 112.31 37.62 118.12 C44.92 125.01 52.3 131.79 59.88 138.38 C63.21 141.28 66.49 144.26 69.75 147.25 C70.25 147.71 70.76 148.17 71.28 148.65 C73.98 151.12 76.65 153.62 79.3 156.15 C80.1 156.91 80.1 156.91 80.92 157.69 C81.95 158.67 82.98 159.65 83.99 160.65 C86.99 163.48 87.67 164 92 164 C93.94 162.75 93.94 162.75 95.74 160.98 C96.44 160.34 97.14 159.7 97.85 159.04 C98.56 158.36 99.27 157.69 100 157 C100.66 156.38 101.33 155.76 102.01 155.12 C104.06 153.19 106.09 151.25 108.12 149.31 C113.89 143.85 119.74 138.56 125.82 133.45 C130.97 129.09 135.89 124.5 140.8 119.87 C144.56 116.34 148.37 112.89 152.29 109.53 C154.84 107.24 157.2 104.78 159.55 102.29 C161 101 161 101 163 101 C163 100.34 163 99.68 163 99 C164.65 97.5 166.38 96.08 168.12 94.69 C169.08 93.93 170.03 93.17 171.01 92.39 C173 90.8 175.04 89.28 177.14 87.83 C179.79 85.61 179.99 85.07 180.76 81.44 C180.79 80.05 180.8 78.66 180.77 77.27 C180.78 76.51 180.79 75.75 180.81 74.96 C180.83 72.46 180.82 69.96 180.8 67.45 C180.82 65.71 180.83 63.97 180.85 62.22 C180.88 57.65 180.88 53.07 180.88 48.5 C180.87 43.83 180.91 39.15 180.94 34.48 C180.99 25.32 181.01 16.16 181 7 C184.96 7 188.92 7 193 7 C193 35.38 193 63.76 193 93 C190.36 92.67 187.72 92.34 185 92 C182.91 93.09 182.91 93.09 181.62 94.94 C180.78 95.98 179.9 97.01 179 98 C178.34 98 177.68 98 177 98 C177 98.66 177 99.32 177 100 C175.74 101.27 175.74 101.27 173.88 102.81 C169.81 106.27 165.9 109.86 162 113.5 C157.69 117.52 153.36 121.5 148.9 125.35 C146.7 127.26 144.54 129.23 142.38 131.19 C138.99 134.25 135.55 137.25 132.07 140.2 C124.39 146.71 117.02 153.52 109.69 160.42 C103.38 166.33 97.04 171.98 90 177 C89.3 176.36 88.6 175.72 87.88 175.06 C82.96 170.58 78.03 166.13 73.02 161.77 C68.97 158.22 64.99 154.6 61 151 C59.33 149.5 57.67 148 56 146.5 C53.47 144.23 50.95 141.96 48.43 139.68 C44.64 136.26 40.85 132.85 37 129.5 C33.15 126.14 29.35 122.73 25.55 119.3 C23.93 117.84 22.3 116.37 20.67 114.92 C12.31 107.45 3.93 99.93 -4 92 C-5.94 92.28 -5.94 92.28 -8 93 C-9.98 93.5 -9.98 93.5 -12 94 C-12 65.29 -12 36.58 -12 7 C-8.37 7 -4.74 7 -1 7 C-0.67 4.69 -0.34 2.38 0 0 Z " fill="#181F25" transform="translate(34,89)"/>
<path d="M0 0 C5.58 2.15 5.58 2.15 7 5 C8.16 5.25 9.31 5.5 10.5 5.75 C20.33 8.06 26.87 15.39 33 23 C33.5 23.99 33.5 23.99 34 25 C59.08 25.33 84.16 25.66 110 26 C110 31.94 110 37.88 110 44 C111.98 44 113.96 44 116 44 C116 56.21 116 68.42 116 81 C115.67 81 115.34 81 115 81 C115 69.12 115 57.24 115 45 C113.35 45 111.7 45 110 45 C110.01 45.9 110.01 46.81 110.02 47.74 C110.03 51.08 110.05 54.42 110.05 57.76 C110.06 59.21 110.07 60.66 110.08 62.11 C110.09 64.18 110.09 66.26 110.1 68.34 C110.1 69.59 110.11 70.84 110.11 72.13 C110 75 110 75 109 76 C106.29 76.1 103.61 76.13 100.9 76.11 C100.05 76.11 99.2 76.11 98.33 76.11 C95.51 76.11 92.69 76.11 89.87 76.1 C87.92 76.1 85.97 76.09 84.02 76.09 C78.88 76.09 73.74 76.08 68.6 76.07 C63.36 76.06 58.12 76.05 52.88 76.05 C42.58 76.04 32.29 76.02 22 76 C23.15 72.56 24.69 71.6 27.43 69.38 C31.25 66.02 32.92 63.18 33.25 58.12 C33.17 57.09 33.09 56.06 33 55 C33.33 55 33.66 55 34 55 C34.33 53.35 34.66 51.7 35 50 C33.02 50.99 31.04 51.98 29 53 C29 50.69 29 48.38 29 46 C30.32 46 31.64 46 33 46 C33.5 45.01 33.5 45.01 34 44 C33.34 44 32.68 44 32 44 C32 42.35 32 40.7 32 39 C31.01 39 30.02 39 29 39 C28.99 40.02 28.97 41.05 28.96 42.11 C28.91 43.47 28.86 44.83 28.81 46.19 C28.81 46.86 28.8 47.53 28.79 48.23 C28.63 52.06 28.08 53.9 25.72 56.97 C21.76 59.93 19.8 59.41 15 59 C14.91 60.33 14.91 60.33 14.81 61.69 C14.03 64.87 13.28 66.71 10.89 68.96 C6.46 71.4 0.98 70.71 -3.94 70.62 C-5.1 70.64 -6.27 70.66 -7.47 70.68 C-17 70.63 -17 70.63 -20.75 67.59 C-24.22 63.6 -24.14 60.89 -24.1 55.8 C-24.1 55.1 -24.09 54.39 -24.09 53.66 C-24.09 51.4 -24.08 49.14 -24.06 46.88 C-24.06 45.34 -24.05 43.81 -24.05 42.28 C-24.04 38.52 -24.02 34.76 -24 31 C-22.82 31.09 -22.82 31.09 -21.62 31.19 C-20.76 31.13 -19.89 31.06 -19 31 C-18.34 30.01 -17.68 29.02 -17 28 C-17.76 27.75 -18.53 27.5 -19.31 27.25 C-22.38 25.82 -23.46 25 -25 22 C-25.49 18.06 -25.56 15.9 -23.44 12.5 C-21 11 -21 11 -17.38 11.19 C-14 12 -14 12 -12 13 C-12 11.68 -12 10.36 -12 9 C-12.99 9 -13.98 9 -15 9 C-15 8.34 -15 7.68 -15 7 C-17.31 6.67 -19.62 6.34 -22 6 C-22 5.67 -22 5.34 -22 5 C-20.95 4.92 -19.9 4.84 -18.81 4.75 C-14.98 4.33 -14.98 4.33 -12.69 1.94 C-8.64 -0.98 -4.83 -0.66 0 0 Z " fill="#171F26" transform="translate(126,6)"/>
<path d="M0 0 C3.63 0 7.26 0 11 0 C12 1 12 1 12.09 3.98 C12.08 5.34 12.07 6.69 12.05 8.04 C12.03 9.57 12.02 11.09 12.01 12.62 C12 13.84 12 13.84 11.99 15.09 C11.94 20.31 11.96 25.52 11.96 30.73 C11.95 35.32 11.93 39.9 11.87 44.48 C11.82 48.91 11.81 53.34 11.84 57.77 C11.84 59.45 11.82 61.14 11.79 62.82 C11.43 72.42 11.43 72.42 15.17 80.98 C17.68 83.26 20.18 85.14 23 87 C24.24 88.03 25.48 89.08 26.69 90.15 C27.79 91.08 28.9 92.01 30 92.94 C35.18 97.33 40.04 101.92 44.79 106.78 C47.33 109.33 50 111.68 52.74 114.02 C55.71 116.62 58.6 119.31 61.5 122 C65.59 125.79 69.71 129.53 73.93 133.18 C76.57 135.5 79.16 137.87 81.75 140.25 C82.25 140.71 82.76 141.17 83.28 141.65 C85.98 144.12 88.65 146.62 91.3 149.15 C92.1 149.91 92.1 149.91 92.92 150.69 C93.95 151.67 94.98 152.65 95.99 153.65 C98.99 156.48 99.67 157 104 157 C105.94 155.75 105.94 155.75 107.74 153.98 C108.44 153.34 109.14 152.7 109.85 152.04 C110.56 151.36 111.27 150.69 112 150 C112.66 149.38 113.33 148.76 114.01 148.12 C116.06 146.19 118.09 144.25 120.12 142.31 C125.89 136.85 131.74 131.56 137.82 126.45 C142.97 122.09 147.89 117.5 152.8 112.87 C156.56 109.34 160.37 105.89 164.29 102.53 C166.84 100.24 169.2 97.78 171.55 95.29 C173 94 173 94 175 94 C175 93.34 175 92.68 175 92 C176.65 90.5 178.38 89.08 180.12 87.69 C181.08 86.93 182.03 86.17 183.01 85.39 C185 83.8 187.04 82.28 189.14 80.83 C191.79 78.61 191.99 78.07 192.76 74.44 C192.79 73.05 192.8 71.66 192.77 70.27 C192.78 69.51 192.79 68.75 192.81 67.96 C192.83 65.46 192.82 62.96 192.8 60.45 C192.82 58.71 192.83 56.97 192.85 55.22 C192.88 50.65 192.88 46.07 192.88 41.5 C192.87 36.83 192.91 32.15 192.94 27.48 C192.99 18.32 193.01 9.16 193 0 C196.96 0 200.92 0 205 0 C205 28.38 205 56.76 205 86 C202.36 85.67 199.72 85.34 197 85 C194.91 86.09 194.91 86.09 193.62 87.94 C192.78 88.98 191.9 90.01 191 91 C190.34 91 189.68 91 189 91 C189 91.66 189 92.32 189 93 C187.74 94.27 187.74 94.27 185.88 95.81 C181.81 99.27 177.9 102.86 174 106.5 C169.69 110.52 165.36 114.5 160.9 118.35 C158.7 120.26 156.54 122.23 154.38 124.19 C150.99 127.25 147.55 130.25 144.07 133.2 C136.39 139.71 129.02 146.52 121.69 153.42 C115.38 159.33 109.04 164.98 102 170 C101.3 169.36 100.6 168.72 99.88 168.06 C94.96 163.58 90.03 159.13 85.02 154.77 C80.97 151.22 76.99 147.6 73 144 C71.33 142.5 69.67 141 68 139.5 C65.47 137.23 62.95 134.96 60.43 132.68 C56.64 129.26 52.85 125.85 49 122.5 C45.15 119.14 41.35 115.73 37.55 112.3 C35.93 110.84 34.3 109.37 32.67 107.92 C24.31 100.45 15.93 92.93 8 85 C6.06 85.28 6.06 85.28 4 86 C2.02 86.5 2.02 86.5 0 87 C0 58.29 0 29.58 0 0 Z " fill="#F5FAF9" transform="translate(22,96)"/>
<path d="M0 0 C8.75 5.82 8.75 5.82 11.11 9.93 C12.85 12.62 14.34 14.19 17 16 C23.05 17.21 29.03 17.07 35.18 17 C36.97 17.01 38.75 17.02 40.53 17.03 C45.21 17.06 49.89 17.04 54.57 17.01 C59.35 16.99 64.12 17.02 68.9 17.04 C78.27 17.07 87.63 17.05 97 17 C97 23.6 97 30.2 97 37 C98.98 37 100.96 37 103 37 C103 52.18 103 67.36 103 83 C100.03 84.48 100.03 84.48 97 86 C96.99 87.2 96.97 88.41 96.96 89.65 C96.82 100.99 96.66 112.34 96.48 123.68 C96.38 129.51 96.3 135.35 96.23 141.18 C96.17 146.81 96.08 152.44 95.98 158.06 C95.94 160.21 95.92 162.36 95.9 164.51 C95.87 167.52 95.82 170.52 95.75 173.53 C95.75 174.42 95.75 175.31 95.75 176.22 C95.62 180.68 95.41 182.47 92.58 186.09 C90 188 90 188 88 188 C87.38 186.13 87.38 186.13 87 184 C87.66 183.34 88.32 182.68 89 182 C89.19 178.89 89.26 175.86 89.24 172.75 C89.24 171.79 89.24 170.83 89.25 169.84 C89.25 167.75 89.25 165.66 89.24 163.58 C89.24 160.27 89.25 156.97 89.26 153.67 C89.3 144.27 89.32 134.88 89.31 125.49 C89.3 119.75 89.32 114.01 89.35 108.27 C89.36 106.08 89.36 103.89 89.35 101.7 C89.33 98.63 89.35 95.57 89.37 92.51 C89.36 91.6 89.35 90.69 89.34 89.76 C89.37 87.4 89.44 85.29 90 83 C92.5 80.65 92.5 80.65 95 79 C95.52 75.99 95.72 73.53 95.71 70.52 C95.73 69.29 95.73 69.29 95.75 68.04 C95.8 65.45 95.8 62.85 95.81 60.25 C95.84 58.49 95.86 56.72 95.89 54.96 C95.95 50.64 95.98 46.32 96 42 C94.02 42 92.04 42 90 42 C90 36.06 90 30.12 90 24 C86.61 24.08 86.61 24.08 83.15 24.16 C75.66 24.32 68.18 24.43 60.69 24.52 C56.15 24.57 51.61 24.64 47.07 24.75 C42.69 24.86 38.31 24.92 33.92 24.95 C32.26 24.97 30.59 25 28.92 25.06 C15.84 25.47 15.84 25.47 11.27 21.83 C9.26 19.31 7.65 16.76 6 14 C1.15 9.02 -3.93 5.83 -10.69 4 C-13.92 3.02 -14.88 2.44 -17 0 C-21.33 -1.44 -25.47 -1.55 -30 -1 C-32.6 0.85 -32.6 0.85 -35 3 C-37.12 3.54 -37.12 3.54 -39.5 3.94 C-44.04 4.82 -46.18 6.18 -49 10 C-49.8 11.93 -50.47 13.83 -51.03 15.84 C-52.48 19.06 -54.31 21.72 -57 24 C-59.81 24.58 -61.75 24.77 -64.54 24.68 C-65.66 24.68 -65.66 24.68 -66.79 24.68 C-69.23 24.68 -71.67 24.63 -74.11 24.59 C-75.81 24.57 -77.51 24.57 -79.2 24.56 C-83.66 24.54 -88.12 24.48 -92.57 24.41 C-97.13 24.35 -101.68 24.32 -106.23 24.29 C-115.15 24.23 -124.08 24.12 -133 24 C-133 29.94 -133 35.88 -133 42 C-134.98 42 -136.96 42 -139 42 C-138.98 47.18 -138.93 52.36 -138.85 57.53 C-138.82 59.29 -138.81 61.05 -138.8 62.81 C-138.8 65.35 -138.75 67.88 -138.71 70.42 C-138.71 71.2 -138.71 71.99 -138.72 72.79 C-138.66 74.97 -138.56 76.89 -138 79 C-137.17 79.74 -136.34 80.49 -135.49 81.25 C-131.44 85.72 -132.37 90.7 -132.48 96.51 C-132.48 97.74 -132.49 98.98 -132.49 100.25 C-132.51 103.54 -132.55 106.83 -132.6 110.12 C-132.64 113.4 -132.65 116.68 -132.67 119.96 C-132.74 131.08 -132.91 142.19 -133.46 153.3 C-133.5 154.09 -133.54 154.87 -133.58 155.68 C-133.87 160.87 -133.87 160.87 -135 162 C-135.24 164.22 -135.42 166.46 -135.56 168.69 C-135.65 169.91 -135.73 171.13 -135.82 172.39 C-135.98 175.6 -136.03 178.78 -136 182 C-136.99 182 -137.98 182 -139 182 C-139.02 180.25 -139.02 180.25 -139.04 178.47 C-139.18 167.47 -139.34 156.48 -139.52 145.49 C-139.62 139.84 -139.7 134.19 -139.77 128.54 C-139.83 123.08 -139.92 117.63 -140.02 112.18 C-140.06 110.1 -140.08 108.02 -140.1 105.94 C-140.13 103.02 -140.18 100.11 -140.25 97.2 C-140.25 96.34 -140.25 95.47 -140.25 94.59 C-140.38 90.21 -140.47 88.58 -143.51 85.22 C-144.33 84.49 -145.15 83.76 -146 83 C-146.6 80.65 -146.6 80.65 -146.57 78.21 C-146.57 77.29 -146.57 76.37 -146.57 75.42 C-146.54 74.44 -146.51 73.46 -146.49 72.45 C-146.48 71.44 -146.47 70.42 -146.47 69.38 C-146.44 66.15 -146.38 62.92 -146.31 59.69 C-146.29 57.49 -146.26 55.3 -146.24 53.11 C-146.19 47.74 -146.11 42.37 -146 37 C-144.02 37 -142.04 37 -140 37 C-140.01 36.43 -140.01 35.86 -140.02 35.27 C-140.04 32.7 -140.05 30.13 -140.06 27.56 C-140.07 26.66 -140.08 25.77 -140.09 24.84 C-140.09 23.99 -140.09 23.13 -140.1 22.25 C-140.1 21.46 -140.11 20.67 -140.11 19.86 C-140 18 -140 18 -139 17 C-136.61 16.95 -134.25 16.96 -131.87 17.02 C-130.32 17.04 -128.77 17.07 -127.23 17.09 C-126.4 17.11 -125.57 17.12 -124.72 17.14 C-119.44 17.22 -114.16 17.23 -108.87 17.25 C-104.23 17.28 -99.59 17.32 -94.95 17.43 C-90.46 17.53 -85.98 17.56 -81.49 17.54 C-79.78 17.55 -78.07 17.58 -76.37 17.63 C-67.33 18.2 -67.33 18.2 -59.43 14.61 C-57.09 11.74 -55.39 8.69 -53.77 5.36 C-51.18 0.45 -47.92 -1.69 -43 -4 C-42.18 -4.41 -41.36 -4.81 -40.52 -5.23 C-25.72 -11.63 -13.09 -7.9 0 0 Z " fill="#BBC7C8" transform="translate(146,8)"/>
<path d="M0 0 C3.65 1.25 4.78 1.67 7 5 C7.12 7.69 7.12 7.69 7 10 C8.65 10 10.3 10 12 10 C12.5 12.97 12.5 12.97 13 16 C11.95 15.92 10.9 15.84 9.81 15.75 C3.68 16.15 1.24 19.67 -2.62 24.06 C-3.19 24.73 -3.76 25.41 -4.35 26.1 C-6 28 -6 28 -7.7 29.55 C-9.32 31.06 -9.32 31.06 -9.25 34.12 C-9.32 36.89 -9.32 36.89 -8 38 C-5.42 38.14 -3.31 38.09 -0.81 37.38 C0.08 37.19 0.08 37.19 1 37 C3.46 39.46 4 41.71 5 45 C8.35 45.77 8.35 45.77 12 46 C13.96 44.71 13.96 44.71 15 43 C15.66 43.33 16.32 43.66 17 44 C16.01 44.99 15.02 45.98 14 47 C19.28 47.99 24.56 48.98 30 50 C28.51 50.5 28.51 50.5 27 51 C26.67 51.99 26.34 52.98 26 54 C24.68 54 23.36 54 22 54 C22 53.01 22 52.02 22 51 C20.68 51 19.36 51 18 51 C19.2 55.21 19.2 55.21 21.56 58.81 C23.49 61.75 23.3 63.78 23.19 67.25 C23.15 68.87 23.15 68.87 23.11 70.52 C23.07 71.34 23.04 72.16 23 73 C27.09 70.4 27.09 70.4 30.75 67.25 C31.16 66.84 31.57 66.43 32 66 C32.66 66 33.32 66 34 66 C34.57 76.84 34.57 76.84 31 81 C25.79 86 25.79 86 23 86 C23 86.66 23 87.32 23 88 C22.46 87.81 21.93 87.63 21.38 87.44 C18.9 86.82 18.9 86.82 16.06 87.69 C13 88 13 88 10.12 86.06 C9.42 85.38 8.72 84.7 8 84 C7.34 87.3 6.68 90.6 6 94 C0.38 94 0.38 94 -2.71 90.96 C-3.38 90.32 -4.05 89.67 -4.74 89.01 C-5.42 88.33 -6.11 87.64 -6.81 86.94 C-8.17 85.61 -9.53 84.29 -10.89 82.96 C-11.57 82.31 -12.24 81.65 -12.94 80.97 C-16.19 77.86 -19.6 74.94 -23 72 C-29.1 66.59 -35.1 61.08 -41.08 55.54 C-46.36 50.66 -51.67 45.82 -57 41 C-54.67 39.79 -52.5 38.83 -50 38 C-50.66 37.34 -51.32 36.68 -52 36 C-52.2 33.4 -52.2 33.4 -52.12 30.38 C-52.11 29.37 -52.09 28.37 -52.07 27.34 C-52.05 26.57 -52.02 25.79 -52 25 C-49.69 25 -47.38 25 -45 25 C-44.67 26.98 -44.34 28.96 -44 31 C-35.75 31 -27.5 31 -19 31 C-19 30.01 -19 29.02 -19 28 C-18.33 27.81 -17.65 27.62 -16.96 27.43 C-12.77 25.41 -9.9 22.45 -6.62 19.19 C-5.97 18.57 -5.32 17.95 -4.64 17.32 C-0.94 13.86 -0.94 13.86 0.07 9.13 C-0.86 6.75 -0.86 6.75 -3.56 5.69 C-4.37 5.46 -5.17 5.23 -6 5 C-6 4.67 -6 4.34 -6 4 C-4.02 4 -2.04 4 0 4 C0 2.68 0 1.36 0 0 Z " fill="#161D23" transform="translate(107,147)"/>
<path d="M0 0 C1.19 0.07 1.19 0.07 2.4 0.14 C3.68 0.22 3.68 0.22 4.98 0.29 C6.33 0.37 6.33 0.37 7.7 0.46 C8.61 0.51 9.51 0.56 10.44 0.62 C12.67 0.75 14.91 0.88 17.14 1.02 C16.81 1.68 16.48 2.34 16.14 3.02 C15.48 3.02 14.82 3.02 14.14 3.02 C13.87 3.62 13.61 4.22 13.33 4.83 C12.14 7.02 12.14 7.02 10.52 8.27 C8.61 10.7 8.53 12.99 8.69 16.01 C9.33 18.83 10.68 20.54 13.06 22.15 C17.86 24.16 22.12 24.41 27.14 23.02 C31.78 20.1 35.45 16.01 39.14 12.02 C40.14 11.02 41.14 10.01 42.14 9.02 C45.6 10.5 47.79 12.45 50.41 15.13 C51.62 16.36 51.62 16.36 52.86 17.61 C53.69 18.47 54.53 19.33 55.39 20.21 C60.51 25.43 65.62 30.53 71.17 35.29 C74.8 38.47 78.22 41.87 81.64 45.27 C82.37 45.98 83.1 46.68 83.85 47.41 C84.53 48.09 85.22 48.77 85.92 49.47 C86.54 50.08 87.16 50.69 87.8 51.32 C89.14 53.02 89.14 53.02 89.14 56.02 C87.45 57.77 87.45 57.77 85.14 59.02 C80.89 58.69 79.01 57.34 76.14 54.27 C75.5 53.6 74.86 52.92 74.2 52.22 C73.52 51.5 72.84 50.77 72.14 50.02 C71.34 49.22 70.53 48.42 69.7 47.59 C67.99 45.87 66.3 44.12 64.64 42.35 C63.82 41.48 62.99 40.61 62.14 39.71 C61.32 38.83 60.49 37.94 59.64 37.03 C57.31 34.78 57.31 34.78 54.33 34.73 C53.61 34.83 52.89 34.92 52.14 35.02 C54.37 39.14 57.03 42.09 60.39 45.33 C64.29 49.14 67.99 53.02 71.5 57.18 C73.27 59.17 75.18 60.91 77.14 62.71 C80.13 65.64 80.13 65.64 80.2 68.83 C79.14 71.02 79.14 71.02 77.14 73.02 C74.83 73.02 74.83 73.02 72.14 72.02 C70.9 70.61 69.66 69.2 68.53 67.7 C66.55 65.3 64.21 63.43 61.83 61.45 C56.74 57.15 52.48 52.06 48.14 47.02 C46.82 47.35 45.5 47.68 44.14 48.02 C44.55 52.49 47.69 54.86 50.77 57.77 C51.87 58.84 52.96 59.91 54.06 60.97 C54.59 61.49 55.12 62.01 55.67 62.55 C58.17 65.05 60.46 67.71 62.74 70.42 C64.24 72.2 64.24 72.2 66.58 74.21 C68.14 76.02 68.14 76.02 68.52 78.65 C68.14 81.02 68.14 81.02 66.14 83.02 C63.77 83.44 63.77 83.44 61.14 83.02 C59.04 81.05 59.04 81.05 57.08 78.4 C56.39 77.49 55.7 76.58 54.99 75.64 C53.57 73.63 52.24 71.62 50.95 69.52 C48.91 66.7 47.46 65.94 44.14 65.02 C43.93 63.38 43.93 63.38 43.7 61.71 C43.26 58.09 43.26 58.09 42.14 55.02 C39.03 52.94 35.81 52.52 32.14 52.02 C31.92 51.09 31.69 50.17 31.45 49.21 C29.88 45.39 28.9 44.61 25.14 43.02 C21.45 42.3 21.45 42.3 18.14 42.02 C17.89 41.28 17.65 40.54 17.39 39.77 C15.96 36.63 14.97 35.03 12.14 33.02 C8 32.26 5.7 32.02 2.13 34.31 C0.02 36.13 -1.92 38.03 -3.86 40.02 C-4.6 40.74 -5.34 41.46 -6.1 42.2 C-9.95 45.75 -9.95 45.75 -12.86 50.02 C-16.21 49.42 -18.24 48.18 -20.86 46.02 C-20.36 41.96 -19.31 38.68 -17.67 34.96 C-16.59 32.39 -15.74 29.76 -14.87 27.12 C-5.9 0.07 -5.9 0.07 0 0 Z " fill="#F5F9F8" transform="translate(81.857666015625,103.978271484375)"/>
<path d="M0 0 C4.62 0 9.24 0 14 0 C14.23 12.49 14.41 24.98 14.52 37.48 C14.57 43.28 14.64 49.08 14.75 54.88 C14.86 60.48 14.92 66.08 14.95 71.68 C14.97 73.82 15 75.95 15.06 78.08 C15.46 94.8 15.46 94.8 11.85 100.23 C9.35 102.51 6.88 104.23 4 106 C2.57 107.27 1.17 108.57 -0.2 109.91 C-0.85 110.53 -1.5 111.15 -2.18 111.78 C-3.48 113.02 -4.79 114.25 -6.1 115.49 C-10.04 119.21 -14.06 122.83 -18.15 126.39 C-20.64 128.55 -23.07 130.77 -25.5 133 C-29.29 136.46 -33.11 139.87 -36.98 143.23 C-41.03 146.78 -45.01 150.4 -49 154 C-50.67 155.5 -52.33 157 -54 158.5 C-54.83 159.25 -55.66 159.99 -56.51 160.76 C-58.15 162.23 -59.79 163.71 -61.43 165.18 C-65.51 168.85 -69.58 172.53 -73.62 176.25 C-75.15 177.66 -76.69 179.06 -78.23 180.46 C-79.89 181.99 -81.54 183.52 -83.18 185.07 C-87.46 189.02 -87.46 189.02 -89.86 188.93 C-92.89 187.61 -94.85 185.64 -97.25 183.38 C-98.24 182.45 -99.22 181.53 -100.21 180.61 C-101.13 179.75 -102.05 178.89 -103 178 C-104.29 176.87 -105.58 175.74 -106.88 174.62 C-111.08 170.98 -115.14 167.19 -119.22 163.41 C-122.76 160.13 -126.34 156.92 -129.99 153.77 C-132.47 151.59 -134.89 149.36 -137.31 147.12 C-141.01 143.74 -144.78 140.51 -148.69 137.38 C-152.75 134.09 -156.47 130.65 -160.1 126.9 C-162.64 124.36 -165.35 122.05 -168.07 119.71 C-170.57 117.5 -172.88 115.13 -175.22 112.75 C-177.07 110.94 -178.98 109.25 -180.94 107.56 C-181.56 107 -182.19 106.43 -182.83 105.85 C-184.92 103.98 -184.92 103.98 -187.12 102.66 C-190.36 100.28 -192.57 97.99 -193.44 93.95 C-194.16 87.46 -193.92 80.94 -193.78 74.44 C-193.77 72.32 -193.75 70.2 -193.75 68.08 C-193.72 62.52 -193.64 56.97 -193.55 51.41 C-193.47 45.73 -193.43 40.06 -193.39 34.38 C-193.31 23.25 -193.17 12.13 -193 1 C-188.71 1 -184.42 1 -180 1 C-180 3.64 -180 6.28 -180 9 C-183.96 8.67 -187.92 8.34 -192 8 C-192 36.71 -192 65.42 -192 95 C-190.35 94.01 -188.7 93.02 -187 92 C-183.97 92.04 -182.99 93.01 -180.7 95.04 C-179.49 96.32 -179.49 96.32 -178.25 97.62 C-175.35 100.61 -172.48 103.55 -169.31 106.25 C-165.26 109.71 -161.39 113.35 -157.5 117 C-153.02 121.2 -148.54 125.36 -143.89 129.36 C-141.56 131.38 -139.28 133.44 -137 135.5 C-134.06 138.15 -131.11 140.78 -128.12 143.38 C-124.16 146.83 -120.29 150.39 -116.43 153.95 C-113 157.1 -109.53 160.2 -106 163.24 C-102.75 166.1 -99.58 169.05 -96.39 171.98 C-94.04 173.96 -91.67 175.5 -89 177 C-88.15 176.21 -87.31 175.43 -86.44 174.62 C-76.13 165.07 -76.13 165.07 -72.12 161.62 C-68.89 158.83 -65.77 155.92 -62.66 152.98 C-56.89 147.55 -51.07 142.35 -44.88 137.41 C-40.6 133.83 -36.6 129.99 -32.56 126.16 C-28.09 121.95 -23.45 118.06 -18.64 114.24 C-14.57 110.78 -10.91 106.95 -7.21 103.09 C-5 101 -5 101 -3 101 C-3 100.34 -3 99.68 -3 99 C-1.43 97.24 -1.43 97.24 0.69 95.31 C1.37 94.67 2.06 94.03 2.76 93.36 C5 92 5 92 7.58 92.23 C9.39 92.81 11.2 93.4 13 94 C13 65.62 13 37.24 13 8 C9.04 8 5.08 8 1 8 C1 33.74 1 59.48 1 86 C0.67 86 0.34 86 0 86 C0 57.62 0 29.24 0 0 Z " fill="#B0BCBF" transform="translate(214,88)"/>
<path d="M0 0 C0.99 0.33 1.98 0.66 3 1 C2.01 1.66 1.02 2.32 0 3 C-0.23 6 -0.26 8.78 -0.16 11.77 C-0.13 13.66 -0.09 15.54 -0.06 17.43 C-0.03 18.43 -0.01 19.44 0.02 20.47 C0.13 25.8 0.16 31.14 0.21 36.47 C0.28 43.25 0.37 50.03 0.54 56.81 C0.69 62.29 0.74 67.77 0.75 73.26 C0.76 75.33 0.81 77.41 0.89 79.48 C1.23 88.62 1.42 96.6 -4.62 103.94 C-8.77 108.35 -13.31 112.19 -18 116 C-19.47 117.27 -20.93 118.54 -22.39 119.82 C-23.02 120.37 -23.65 120.93 -24.3 121.5 C-32.05 128.3 -32.05 128.3 -39.44 135.5 C-43.14 139.28 -47.25 142.49 -51.36 145.8 C-54.21 148.17 -56.78 150.68 -59.34 153.34 C-61.68 155.69 -64.19 157.82 -66.7 159.98 C-69.51 162.44 -72.25 164.97 -75 167.5 C-78.97 171.15 -82.97 174.77 -87.05 178.3 C-88.52 179.58 -89.97 180.89 -91.42 182.2 C-92.23 182.94 -93.04 183.68 -93.88 184.44 C-94.61 185.12 -95.35 185.8 -96.12 186.5 C-98 188 -98 188 -100 188 C-100 188.66 -100 189.32 -100 190 C-103.49 193.21 -107.27 196.07 -111 199 C-112.05 199.86 -112.05 199.86 -113.11 200.74 C-117.31 204.04 -117.31 204.04 -120.38 203.86 C-123.61 202.8 -125.53 201.27 -128.12 199.06 C-129.09 198.25 -130.05 197.44 -131.04 196.6 C-134.82 193.28 -138.53 189.89 -142.23 186.48 C-145.01 184 -147.85 181.65 -150.75 179.31 C-154.52 176.27 -157.98 173.13 -161.35 169.66 C-163.67 167.33 -166.16 165.21 -168.66 163.06 C-171.53 160.53 -174.33 157.92 -177.12 155.31 C-181.73 151.02 -186.44 146.88 -191.25 142.81 C-195.97 138.82 -200.47 134.71 -204.74 130.23 C-207.35 127.66 -210.09 125.28 -212.86 122.88 C-216.33 119.83 -219.7 116.67 -223.06 113.5 C-223.73 112.87 -224.4 112.25 -225.09 111.61 C-227.07 109.75 -229.04 107.89 -231 106 C-231.59 105.54 -232.17 105.08 -232.78 104.6 C-235.66 102.15 -237.69 100.27 -238.61 96.53 C-238.81 93.6 -238.79 90.75 -238.68 87.82 C-238.67 86.76 -238.66 85.71 -238.65 84.62 C-238.61 81.26 -238.53 77.91 -238.44 74.56 C-238.4 72.28 -238.37 70 -238.34 67.72 C-238.26 62.15 -238.15 56.57 -238 51 C-237.67 51 -237.34 51 -237 51 C-237 66.51 -237 82.02 -237 98 C-236.01 98 -235.02 98 -234 98 C-234.08 97.39 -234.17 96.79 -234.25 96.16 C-235 90 -235.12 84.14 -234 78 C-233.5 77.5 -233.5 77.5 -233 77 C-232.84 75.59 -232.75 74.17 -232.68 72.75 C-232.64 71.89 -232.6 71.04 -232.56 70.16 C-232.52 69.26 -232.48 68.36 -232.44 67.44 C-232.39 66.54 -232.35 65.63 -232.31 64.71 C-232.2 62.47 -232.1 60.24 -232 58 C-231.67 58 -231.34 58 -231 58 C-231.06 59.06 -231.12 60.12 -231.18 61.22 C-233.08 82.6 -233.08 82.6 -226.43 102.06 C-223.05 105.69 -219.31 108.68 -215.21 111.47 C-208.97 115.8 -203.53 121.31 -198 126.5 C-193.74 130.47 -189.46 134.39 -185.05 138.2 C-182.33 140.59 -179.67 143.04 -177 145.5 C-173.7 148.54 -170.39 151.56 -167 154.5 C-163.61 157.44 -160.3 160.46 -157 163.5 C-153.04 167.14 -149.05 170.74 -144.98 174.27 C-142.69 176.27 -140.44 178.32 -138.19 180.38 C-133.67 184.48 -128.96 188.29 -124.15 192.05 C-122 194 -122 194 -121 197 C-120.58 196.63 -120.17 196.27 -119.74 195.89 C-116.46 193.01 -113.17 190.14 -109.84 187.32 C-103.02 181.53 -96.36 175.62 -89.83 169.51 C-86.34 166.24 -82.8 163.05 -79.18 159.93 C-76.75 157.78 -74.39 155.56 -72.02 153.34 C-67.33 148.95 -62.66 144.63 -57.62 140.62 C-50.7 135.08 -44.36 128.91 -37.93 122.82 C-31.93 117.16 -25.86 111.58 -19.62 106.19 C-16.26 103.27 -13.11 100.19 -10 97 C-9.34 97.33 -8.68 97.66 -8 98 C-8.33 98.62 -8.66 99.24 -9 99.88 C-10.14 101.91 -10.14 101.91 -10 104 C-5.69 101.31 -5.69 101.31 -3.42 96.99 C-3.2 94.5 -3.15 92.06 -3.17 89.56 C-3.15 88.62 -3.13 87.67 -3.11 86.7 C-3.06 83.59 -3.06 80.48 -3.05 77.36 C-3.02 75.2 -2.99 73.04 -2.95 70.87 C-2.87 65.19 -2.82 59.5 -2.78 53.81 C-2.71 44.69 -2.58 35.57 -2.46 26.46 C-2.42 23.27 -2.4 20.08 -2.38 16.89 C-2.36 14.94 -2.34 13 -2.32 11.05 C-2.31 10.16 -2.31 9.27 -2.31 8.35 C-2.23 2.23 -2.23 2.23 0 0 Z " fill="#7E8A8E" transform="translate(244,92)"/>
<path d="M0 0 C1.26 0 2.52 0 3.82 0.01 C4.51 0.01 5.2 0.01 5.91 0.01 C8.21 0.01 10.51 0.01 12.81 0.02 C14.4 0.02 15.99 0.03 17.58 0.03 C21.78 0.03 25.97 0.04 30.17 0.05 C34.44 0.06 38.72 0.07 42.99 0.07 C51.39 0.08 59.79 0.1 68.18 0.12 C68.18 9.03 68.18 17.94 68.18 27.12 C39.47 27.12 10.76 27.12 -18.82 27.12 C-17.82 24.12 -17.82 24.12 -15.07 21.93 C-8.92 16.98 -6.36 10.61 -4.39 3.12 C-3.5 0.04 -3.34 0.14 0 0 Z " fill="#25D9F9" transform="translate(166.81568908691406,54.87974548339844)"/>
<path d="M0 0 C2.88 0.75 5.47 1.86 8.14 3.16 C20.23 8.96 30.42 12.77 43.97 11.51 C48.51 20.16 52.68 28.89 56.34 37.95 C56.67 38.76 57.01 39.58 57.35 40.42 C59.45 45.72 60.86 50.91 61.97 56.51 C54.79 60.52 54.79 60.52 51.55 60.48 C47.98 59.14 45.81 56.75 43.28 54.01 C39.98 50.3 39.98 50.3 35.97 47.51 C35.97 46.85 35.97 46.19 35.97 45.51 C37.95 45.18 39.93 44.85 41.97 44.51 C41.97 43.52 41.97 42.53 41.97 41.51 C41.4 41.56 40.83 41.6 40.24 41.65 C39.47 41.69 38.7 41.72 37.9 41.76 C37.15 41.81 36.4 41.85 35.62 41.9 C29.28 40.97 24.68 36.58 20.36 32.16 C19.86 31.66 19.37 31.16 18.86 30.64 C17.31 29.06 15.76 27.48 14.22 25.89 C12.66 24.29 11.09 22.7 9.53 21.11 C8.12 19.67 6.71 18.23 5.31 16.79 C2.99 14.39 2.99 14.39 -0.03 12.51 C-3.45 12.82 -5.09 14.21 -7.42 16.64 C-8.03 17.26 -8.64 17.88 -9.26 18.53 C-9.89 19.18 -10.51 19.84 -11.16 20.51 C-12.41 21.8 -13.66 23.1 -14.92 24.39 C-15.47 24.96 -16.02 25.54 -16.58 26.13 C-18.99 28.43 -20.1 28.51 -23.53 28.7 C-27.03 28.51 -27.03 28.51 -29.03 26.51 C-28.75 20.12 -23.73 16.43 -19.48 12.16 C-18.04 10.71 -16.64 9.22 -15.24 7.73 C-6.87 -0.73 -6.87 -0.73 0 0 Z " fill="#F7FAFA" transform="translate(126.033447265625,93.4892578125)"/>
<path d="M0 0 C23.43 0 46.86 0 71 0 C71.5 5.94 71.5 5.94 72 12 C74.68 16.92 74.68 16.92 78 20 C71.4 20 64.8 20 58 20 C58 19.01 58 18.02 58 17 C59.32 16.67 60.64 16.34 62 16 C61.34 14.02 60.68 12.04 60 10 C46.8 10 33.6 10 20 10 C20.33 11.65 20.66 13.3 21 15 C21.75 15.02 22.5 15.04 23.28 15.06 C26.7 15.16 30.13 15.27 33.56 15.38 C35.33 15.42 35.33 15.42 37.14 15.47 C43.09 15.67 48.39 15.97 54 18 C54 18.99 54 19.98 54 21 C59.94 21 65.88 21 72 21 C72 21.33 72 21.66 72 22 C69.69 22 67.38 22 65 22 C65 22.66 65 23.32 65 24 C61.75 25.08 59.39 25.12 55.97 25.11 C54.73 25.11 53.49 25.11 52.21 25.11 C50.85 25.11 49.5 25.1 48.14 25.1 C46.76 25.1 45.37 25.09 43.99 25.09 C40.34 25.09 36.7 25.08 33.05 25.07 C29.33 25.06 25.61 25.05 21.89 25.05 C14.6 25.04 7.3 25.02 0 25 C0 16.75 0 8.5 0 0 Z " fill="#22D6F7" transform="translate(15,56)"/>
<path d="M0 0 C0.99 0.33 1.98 0.66 3 1 C4.89 1.07 6.79 1.08 8.69 1.06 C9.68 1.05 10.68 1.04 11.7 1.04 C12.46 1.02 13.22 1.01 14 1 C15.25 3.49 14.78 4.41 14 7 C14.66 7 15.32 7 16 7 C16 15.58 16 24.16 16 33 C18.97 32.5 18.97 32.5 22 32 C22.33 24.41 22.66 16.82 23 9 C24.32 9.66 25.64 10.32 27 11 C27 17.93 27 24.86 27 32 C28.65 32 30.3 32 32 32 C32.33 24.74 32.66 17.48 33 10 C31.02 10 29.04 10 27 10 C27.33 9.34 27.66 8.68 28 8 C30 7.44 30 7.44 32.44 7 C36.14 6.38 36.14 6.38 39 4 C39.64 1.93 39.64 1.93 40 0 C46.24 -0.48 46.24 -0.48 49.2 1.39 C51.97 5.41 51.58 9.23 51.5 14 C51.52 14.9 51.53 15.8 51.55 16.73 C51.51 23.25 51.51 23.25 49.23 26.61 C45.65 28.84 43.14 28.28 39 28 C38.91 29.33 38.91 29.33 38.81 30.69 C38.03 33.87 37.28 35.71 34.89 37.96 C30.46 40.4 24.98 39.71 20.06 39.62 C18.31 39.65 18.31 39.65 16.53 39.68 C7 39.63 7 39.63 3.25 36.59 C-0.22 32.6 -0.14 29.89 -0.1 24.8 C-0.1 24.1 -0.09 23.39 -0.09 22.66 C-0.09 20.4 -0.08 18.14 -0.06 15.88 C-0.06 14.34 -0.05 12.81 -0.05 11.28 C-0.04 7.52 -0.02 3.76 0 0 Z " fill="#ECEFF0" transform="translate(102,37)"/>
<path d="M0 0 C1.26 0 2.52 0 3.82 0.01 C4.51 0.01 5.2 0.01 5.91 0.01 C8.21 0.01 10.51 0.01 12.81 0.02 C14.4 0.02 15.99 0.03 17.58 0.03 C21.78 0.03 25.97 0.04 30.17 0.05 C34.44 0.06 38.72 0.07 42.99 0.07 C51.39 0.08 59.79 0.1 68.18 0.12 C68.18 9.03 68.18 17.94 68.18 27.12 C39.47 27.12 10.76 27.12 -18.82 27.12 C-17.82 24.12 -17.82 24.12 -15.07 21.93 C-8.92 16.98 -6.36 10.61 -4.39 3.12 C-3.5 0.04 -3.34 0.14 0 0 Z M-2.82 1.12 C-2.82 4.09 -2.82 7.06 -2.82 10.12 C-3.48 10.12 -4.14 10.12 -4.82 10.12 C-4.2 13.59 -4.2 13.59 -2.82 17.12 C-0.32 18.64 -0.32 18.64 2.18 19.12 C1.52 20.11 0.86 21.1 0.18 22.12 C1.83 22.12 3.48 22.12 5.18 22.12 C5.18 21.46 5.18 20.8 5.18 20.12 C6.5 20.12 7.82 20.12 9.18 20.12 C9.18 19.46 9.18 18.8 9.18 18.12 C8.19 17.79 7.2 17.46 6.18 17.12 C6.14 15.45 6.14 13.79 6.18 12.12 C7.18 11.12 7.18 11.12 10.88 11.01 C12.52 11.01 14.17 11.01 15.81 11.02 C17.11 11.02 17.11 11.02 18.43 11.03 C21.2 11.03 23.98 11.05 26.75 11.06 C28.62 11.06 30.5 11.07 32.37 11.07 C36.97 11.08 41.58 11.1 46.18 11.12 C46.84 12.77 47.5 14.42 48.18 16.12 C35.97 16.45 23.76 16.78 11.18 17.12 C12.17 17.45 13.16 17.78 14.18 18.12 C14.18 18.78 14.18 19.44 14.18 20.12 C14.81 20.11 15.44 20.1 16.08 20.09 C16.9 20.08 17.72 20.07 18.56 20.06 C19.37 20.05 20.18 20.03 21.02 20.02 C23.18 20.12 23.18 20.12 25.18 21.12 C25.18 21.78 25.18 22.44 25.18 23.12 C26.79 23.15 28.39 23.17 30 23.18 C31.34 23.2 31.34 23.2 32.7 23.22 C35.32 23.23 35.32 23.23 38.18 22.12 C41.65 21.89 45.11 21.73 48.58 21.6 C56.17 21.25 61.57 20.73 67.18 15.12 C67.18 10.5 67.18 5.88 67.18 1.12 C44.08 1.12 20.98 1.12 -2.82 1.12 Z " fill="#1AB4D9" transform="translate(166.81568908691406,54.87974548339844)"/>
<path d="M0 0 C2.69 -0.31 2.69 -0.31 6 0 C8.81 2.44 8.81 2.44 11 5 C11.33 5.33 11.66 5.66 12 6 C12.04 8.33 12.04 10.67 12 13 C12.74 13.06 13.48 13.12 14.25 13.19 C19.65 14.78 22.01 20.52 25 25 C26.81 27.87 26.81 27.87 29 30 C31.91 30.42 33.38 30.31 36 29 C35.5 30.49 35.5 30.49 35 32 C31.53 32.5 31.53 32.5 28 33 C27.34 35.31 26.68 37.62 26 40 C19.14 41.6 12.85 40.25 6 39 C6.66 37.68 7.32 36.36 8 35 C7.47 35.77 7.47 35.77 6.94 36.56 C5 38 5 38 1.44 37.81 C-2 37 -2 37 -4 35 C-4.71 33.02 -5.39 31.02 -6 29 C-6.63 29.1 -7.25 29.19 -7.9 29.29 C-8.72 29.4 -9.53 29.51 -10.38 29.62 C-11.59 29.8 -11.59 29.8 -12.84 29.98 C-13.55 29.98 -14.26 29.99 -15 30 C-17 28 -17 28 -17.39 25.16 C-16.9 21.18 -15.75 20.15 -12.81 17.5 C-10.05 14.93 -7.42 12.45 -5.06 9.5 C-3 7 -3 7 -1 6 C1 5.96 3 5.96 5 6 C5 4.35 5 2.7 5 1 C3.35 1 1.7 1 0 1 C0 0.67 0 0.34 0 0 Z " fill="#1F252C" transform="translate(114,156)"/>
<path d="M0 0 C0 17.82 0 35.64 0 54 C-7.88 56.25 -7.88 56.25 -12 55 C-12.18 54.43 -12.36 53.86 -12.55 53.28 C-16.98 39.42 -21.69 26.3 -29.12 13.71 C-30 12 -30 12 -30 10 C-28.41 9.53 -28.41 9.53 -26.78 9.05 C-19.5 6.85 -12.72 4.62 -6 1 C-3.89 0.38 -2.2 0 0 0 Z " fill="#F5F9F9" transform="translate(207,90)"/>
<path d="M0 0 C6.36 2.12 12.69 4.25 19 6.5 C20.29 6.94 20.29 6.94 21.6 7.39 C22.41 7.69 23.22 7.98 24.06 8.28 C24.8 8.54 25.53 8.8 26.29 9.06 C28 10 28 10 29 13 C27.97 15.22 26.88 17.3 25.69 19.44 C21.48 27.33 18.45 35.58 15.5 44 C15.28 44.64 15.05 45.28 14.82 45.94 C13.53 49.62 12.26 53.31 11 57 C6.56 56.35 4.31 55.16 0 53 C0 35.51 0 18.02 0 0 Z " fill="#F8FBFA" transform="translate(42,90)"/>
<path d="M0 0 C0.33 0 0.66 0 1 0 C1 14.52 1 29.04 1 44 C-0.98 44.99 -2.96 45.98 -5 47 C-5.01 48.2 -5.03 49.41 -5.04 50.65 C-5.18 61.99 -5.34 73.34 -5.52 84.68 C-5.62 90.51 -5.7 96.35 -5.77 102.18 C-5.83 107.81 -5.92 113.44 -6.02 119.06 C-6.06 121.21 -6.08 123.36 -6.1 125.51 C-6.13 128.52 -6.18 131.52 -6.25 134.53 C-6.25 135.86 -6.25 135.86 -6.25 137.22 C-6.38 141.68 -6.59 143.47 -9.42 147.09 C-12 149 -12 149 -14 149 C-14.62 147.12 -14.62 147.12 -15 145 C-14.01 144.01 -14.01 144.01 -13 143 C-12.81 139.89 -12.74 136.86 -12.76 133.75 C-12.76 132.79 -12.76 131.83 -12.75 130.84 C-12.75 128.75 -12.75 126.66 -12.76 124.58 C-12.76 121.27 -12.75 117.97 -12.74 114.67 C-12.7 105.27 -12.68 95.88 -12.69 86.49 C-12.7 80.75 -12.68 75.01 -12.65 69.27 C-12.64 67.08 -12.64 64.89 -12.65 62.7 C-12.67 59.63 -12.65 56.57 -12.63 53.51 C-12.64 52.6 -12.65 51.69 -12.66 50.76 C-12.63 48.4 -12.56 46.29 -12 44 C-9.5 41.65 -9.5 41.65 -7 40 C-6.48 36.99 -6.28 34.53 -6.29 31.52 C-6.28 30.7 -6.26 29.88 -6.25 29.04 C-6.2 26.45 -6.2 23.85 -6.19 21.25 C-6.16 19.49 -6.14 17.72 -6.11 15.96 C-6.05 11.64 -6.02 7.32 -6 3 C-5.67 3 -5.34 3 -5 3 C-4.67 7.62 -4.34 12.24 -4 17 C-3.01 17.33 -2.02 17.66 -1 18 C-1.01 16.95 -1.02 15.9 -1.04 14.82 C-1.04 13.45 -1.05 12.07 -1.06 10.69 C-1.07 10 -1.08 9.31 -1.09 8.6 C-1.1 5.45 -1 3.01 0 0 Z " fill="#A7B1B4" transform="translate(248,47)"/>
<path d="M0 0 C0.33 0 0.66 0 1 0 C1 15.51 1 31.02 1 47 C1.99 47 2.98 47 4 47 C3.92 46.39 3.83 45.79 3.75 45.16 C3 39 2.88 33.14 4 27 C4.33 26.67 4.66 26.34 5 26 C5.16 24.59 5.25 23.17 5.32 21.75 C5.36 20.89 5.4 20.04 5.44 19.16 C5.48 18.26 5.52 17.36 5.56 16.44 C5.61 15.54 5.65 14.63 5.69 13.71 C5.8 11.47 5.9 9.24 6 7 C6.33 7 6.66 7 7 7 C6.94 8.06 6.88 9.12 6.82 10.22 C4.92 31.6 4.92 31.6 11.57 51.06 C14.95 54.69 18.69 57.68 22.79 60.47 C29.03 64.8 34.47 70.31 40 75.5 C44.26 79.47 48.54 83.39 52.95 87.2 C56.2 90.05 59.38 93 62.56 95.94 C66.1 99.2 69.7 102.37 73.38 105.46 C75.17 107.16 76.57 108.99 78 111 C77.67 111.33 77.34 111.66 77 112 C78.48 112.99 78.48 112.99 80 114 C79 115 79 115 76.44 115.06 C75.63 115.04 74.83 115.02 74 115 C74 114.34 74 113.68 74 113 C73.47 112.79 72.94 112.58 72.39 112.37 C68.39 110.08 65.32 106.72 62.04 103.52 C58.81 100.45 55.76 98.23 51.8 96.11 C48.24 93.91 45.36 90.9 42.38 88 C40.96 86.65 39.54 85.3 38.13 83.95 C37.43 83.28 36.73 82.61 36.02 81.92 C33.15 79.19 30.23 76.5 27.31 73.81 C26.79 73.33 26.27 72.85 25.74 72.36 C23.02 69.86 20.31 67.36 17.59 64.87 C17.02 64.35 16.45 63.83 15.86 63.29 C14.8 62.31 13.73 61.33 12.66 60.36 C11.68 59.46 10.71 58.55 9.75 57.62 C8.53 56.49 7.26 55.4 5.97 54.36 C1.86 50.79 -0.49 48.24 -0.91 42.69 C-0.91 40.7 -0.86 38.71 -0.78 36.72 C-0.77 35.66 -0.76 34.61 -0.75 33.52 C-0.7 30.18 -0.6 26.84 -0.5 23.5 C-0.46 21.22 -0.42 18.95 -0.39 16.67 C-0.3 11.11 -0.17 5.56 0 0 Z " fill="#879296" transform="translate(6,143)"/>
<path d="M0 0 C0.33 0 0.66 0 1 0 C1 1.09 1.01 2.19 1.01 3.32 C1.03 7.39 1.09 11.46 1.15 15.53 C1.18 17.29 1.19 19.05 1.2 20.81 C1.2 23.35 1.25 25.88 1.29 28.42 C1.29 29.2 1.29 29.99 1.28 30.79 C1.34 32.97 1.44 34.89 2 37 C2.83 37.74 3.66 38.49 4.51 39.25 C8.56 43.72 7.63 48.7 7.52 54.51 C7.52 55.74 7.51 56.98 7.51 58.25 C7.49 61.54 7.45 64.83 7.4 68.12 C7.36 71.4 7.35 74.68 7.33 77.96 C7.26 89.08 7.09 100.19 6.54 111.3 C6.5 112.09 6.46 112.87 6.42 113.68 C6.13 118.87 6.13 118.87 5 120 C4.76 122.22 4.58 124.46 4.44 126.69 C4.35 127.91 4.27 129.13 4.18 130.39 C4.02 133.6 3.97 136.78 4 140 C3.01 140 2.02 140 1 140 C0.98 138.25 0.98 138.25 0.96 136.47 C0.82 125.47 0.66 114.48 0.48 103.49 C0.38 97.84 0.3 92.19 0.23 86.54 C0.17 81.08 0.08 75.63 -0.02 70.18 C-0.06 68.1 -0.08 66.02 -0.1 63.94 C-0.13 61.02 -0.18 58.11 -0.25 55.2 C-0.25 54.34 -0.25 53.47 -0.25 52.59 C-0.38 48.18 -0.48 46.57 -3.55 43.18 C-4.36 42.46 -5.17 41.74 -6 41 C-6 39.68 -6 38.36 -6 37 C-5.01 36.5 -5.01 36.5 -4 36 C-2.81 32.44 -2.65 29.03 -2.44 25.31 C-2.39 24.61 -2.35 23.91 -2.31 23.19 C-2.2 21.46 -2.1 19.73 -2 18 C-1.67 18 -1.34 18 -1 18 C-0.5 9.09 -0.5 9.09 0 0 Z " fill="#A7B2B5" transform="translate(6,50)"/>
<path d="M0 0 C23.43 0 46.86 0 71 0 C71 0.33 71 0.66 71 1 C47.9 1 24.8 1 1 1 C1 9.25 1 17.5 1 26 C22.45 25.67 43.9 25.34 66 25 C66 24.34 66 23.68 66 23 C62.37 22.67 58.74 22.34 55 22 C54.5 20.52 54.5 20.52 54 19 C49.9 18.24 45.96 17.85 41.8 17.75 C40.08 17.7 40.08 17.7 38.33 17.65 C35.93 17.59 33.53 17.54 31.12 17.48 C29.99 17.45 28.85 17.41 27.67 17.38 C26.63 17.35 25.59 17.33 24.52 17.3 C22 17 22 17 20 15 C20.38 12.38 20.38 12.38 21 10 C26.66 9.95 32.32 9.91 37.98 9.89 C39.91 9.88 41.83 9.87 43.76 9.85 C46.52 9.82 49.29 9.81 52.05 9.8 C52.92 9.79 53.78 9.78 54.67 9.77 C56.78 9.77 58.89 9.88 61 10 C63 12 63 12 63.31 14.5 C63.21 15.33 63.11 16.15 63 17 C62.01 17.66 61.02 18.32 60 19 C59.5 19.5 59.5 19.5 59 20 C65.27 20 71.54 20 78 20 C76.35 18.35 74.7 16.7 73 15 C71.82 11.55 72.05 9.44 73 6 C73.34 6.79 73.68 7.57 74.03 8.38 C77.01 14.84 79.75 19.39 85.46 23.7 C86.22 24.34 86.22 24.34 87 25 C87 25.66 87 26.32 87 27 C58.29 27 29.58 27 0 27 C0 18.09 0 9.18 0 0 Z " fill="#1A9EBD" transform="translate(14,55)"/>
<path d="M0 0 C3.62 0.38 3.62 0.38 6.06 2.12 C7.62 4.38 7.62 4.38 7.62 8.38 C8.23 8.26 8.83 8.14 9.45 8.02 C15.96 6.97 15.96 6.97 19.19 8.94 C20.96 11.95 20.94 13.93 20.62 17.38 C18.97 18.04 17.32 18.7 15.62 19.38 C15.62 21.69 15.62 24 15.62 26.38 C13.97 26.76 12.3 27.09 10.62 27.38 C8.58 25.33 8.92 21.07 8.62 18.38 C7.89 18.41 7.15 18.44 6.39 18.48 C-3.3 18.75 -3.3 18.75 -7.38 15.38 C-7.7 17.02 -8.03 18.68 -8.38 20.38 C-11.56 21.19 -11.56 21.19 -15.38 21.38 C-18.31 19.38 -18.31 19.38 -20.38 16.38 C-21.01 12.36 -20.98 10.34 -18.81 6.88 C-15.35 4.75 -13.24 5.46 -9.38 6.38 C-8.39 6.7 -7.39 7.04 -6.38 7.38 C-6.25 6.59 -6.13 5.81 -6 5 C-5.04 0.98 -4.1 0.46 0 0 Z " fill="#F3F6F6" transform="translate(121.375,11.625)"/>
<path d="M0 0 C6 6 6 6 6.1 8.72 C6.09 9.82 6.07 10.93 6.06 12.06 C6.05 13.17 6.04 14.27 6.04 15.41 C6.02 16.26 6.01 17.12 6 18 C10.09 15.4 10.09 15.4 13.75 12.25 C14.16 11.84 14.57 11.43 15 11 C15.66 11 16.32 11 17 11 C17.57 21.84 17.57 21.84 14 26 C8.79 31 8.79 31 6 31 C6 31.66 6 32.32 6 33 C5.46 32.81 4.93 32.63 4.38 32.44 C1.91 31.81 1.91 31.81 -0.82 32.71 C-4 33 -4 33 -6.7 31.45 C-7.54 30.73 -8.38 30 -9.25 29.25 C-10.1 28.53 -10.95 27.82 -11.83 27.08 C-14.45 24.57 -15.93 22.98 -16.2 19.3 C-16.17 18.31 -16.15 17.33 -16.12 16.31 C-16.11 15.32 -16.09 14.32 -16.07 13.3 C-16.05 12.54 -16.02 11.78 -16 11 C-14.73 11.93 -13.46 12.87 -12.19 13.81 C-11.13 14.6 -11.13 14.6 -10.04 15.39 C-8.21 16.83 -6.6 18.32 -5 20 C-5.09 18.59 -5.09 18.59 -5.18 17.15 C-5.59 5.71 -5.59 5.71 -2.5 2.12 C-1.67 1.42 -0.85 0.72 0 0 Z " fill="#212830" transform="translate(124,202)"/>
<path d="M0 0 C21.45 0 42.9 0 65 0 C65 2.97 65 5.94 65 9 C43.88 9 22.76 9 1 9 C0.67 6.03 0.34 3.06 0 0 Z " fill="#ECF0EF" transform="translate(163,39)"/>
<path d="M0 0 C21.45 0 42.9 0 65 0 C64.67 2.97 64.34 5.94 64 9 C42.88 9 21.76 9 0 9 C0 6.03 0 3.06 0 0 Z " fill="#EDF0F0" transform="translate(21,39)"/>
<path d="M0 0 C3.34 3.34 4.42 7.88 6.06 12.25 C6.43 13.19 6.79 14.13 7.17 15.11 C8.92 19.72 10.46 24.06 11 29 C9.78 29.7 8.55 30.39 7.31 31.06 C6.63 31.45 5.94 31.83 5.24 32.22 C2.27 33.25 0.96 33.1 -2 32 C-4.05 30.21 -5.85 28.48 -7.69 26.5 C-10.98 22.79 -10.98 22.79 -15 20 C-15 19.34 -15 18.68 -15 18 C-13.02 17.67 -11.04 17.34 -9 17 C-9 16.01 -9 15.02 -9 14 C-9.57 14.05 -10.14 14.09 -10.72 14.14 C-16.42 14.41 -20.44 13.62 -25 10 C-27.44 7.76 -29.75 5.43 -32 3 C-31.34 2.67 -30.68 2.34 -30 2 C-28.42 2.96 -28.42 2.96 -26.81 3.94 C-20.75 7.17 -13.68 6.66 -7 6 C-4.79 5.04 -4.79 5.04 -3 4 C-2.01 4 -1.02 4 0 4 C0 2.68 0 1.36 0 0 Z " fill="#AAB5B8" transform="translate(177,121)"/>
<path d="M0 0 C0.33 1.98 0.66 3.96 1 6 C0.35 6.3 -0.3 6.6 -0.97 6.92 C-4.22 10.25 -3.57 13.85 -3.55 18.34 C-3.56 19.29 -3.57 20.25 -3.58 21.23 C-3.61 24.4 -3.61 27.56 -3.61 30.73 C-3.62 32.92 -3.64 35.12 -3.66 37.31 C-3.7 43.08 -3.72 48.86 -3.74 54.64 C-3.76 60.53 -3.8 66.42 -3.84 72.31 C-3.92 83.87 -3.97 95.44 -4 107 C-4.33 107 -4.66 107 -5 107 C-5.33 84.89 -5.66 62.78 -6 40 C-7.32 40 -8.64 40 -10 40 C-10.33 60.46 -10.66 80.92 -11 102 C-11.33 102 -11.66 102 -12 102 C-12.02 89.52 -12.04 77.04 -12.05 64.55 C-12.06 58.76 -12.06 52.96 -12.08 47.17 C-12.09 41.58 -12.09 35.99 -12.09 30.4 C-12.1 28.26 -12.1 26.13 -12.11 23.99 C-12.11 21.01 -12.11 18.02 -12.11 15.04 C-12.12 14.15 -12.12 13.26 -12.12 12.34 C-12.11 6.23 -12.11 6.23 -11 4 C-11.66 4 -12.32 4 -13 4 C-12.67 3.01 -12.34 2.02 -12 1 C-7.92 0.46 -4.13 0 0 0 Z " fill="#292F34" transform="translate(240,82)"/>
<path d="M0 0 C3.5 1 3.5 1 5.19 3.88 C5.62 4.91 6.05 5.94 6.5 7 C8.55 8.85 8.55 8.85 10.5 10 C10.17 10.33 9.84 10.66 9.5 11 C11.97 11.5 11.97 11.5 14.5 12 C14.5 19.26 14.5 26.52 14.5 34 C10.5 35 10.5 35 8.5 34 C8.5 27.07 8.5 20.14 8.5 13 C7.51 13.33 6.52 13.66 5.5 14 C5.47 14.6 5.45 15.2 5.42 15.82 C5.31 18.53 5.19 21.23 5.06 23.94 C5 25.36 5 25.36 4.94 26.8 C4.9 27.7 4.86 28.6 4.82 29.53 C4.76 30.78 4.76 30.78 4.71 32.05 C4.5 34 4.5 34 3.5 35 C1.52 35 -0.46 35 -2.5 35 C-2.5 26.42 -2.5 17.84 -2.5 9 C-3.16 9 -3.82 9 -4.5 9 C-4.46 8.22 -4.42 7.43 -4.38 6.62 C-4.21 3.84 -4.21 3.84 -6.5 2 C-3.5 0 -3.5 0 0 0 Z " fill="#E0E3E5" transform="translate(120.5,35)"/>
<path d="M0 0 C38.12 0.5 38.12 0.5 77 1 C77 6.94 77 12.88 77 19 C78.98 19 80.96 19 83 19 C83 31.21 83 43.42 83 56 C82.67 56 82.34 56 82 56 C82 44.12 82 32.24 82 20 C80.35 20 78.7 20 77 20 C77 29.9 77 39.8 77 50 C76.67 50 76.34 50 76 50 C75.97 48.85 75.97 48.85 75.94 47.68 C75.84 44.2 75.73 40.73 75.62 37.25 C75.59 36.04 75.56 34.84 75.53 33.59 C75.49 32.43 75.45 31.27 75.41 30.08 C75.38 29.01 75.35 27.94 75.32 26.84 C75 23.97 74.56 22.4 73 20 C65.53 18.55 57.81 18.79 50.21 18.68 C48.92 18.66 47.62 18.64 46.29 18.62 C42.87 18.57 39.45 18.52 36.03 18.47 C32.53 18.42 29.03 18.36 25.53 18.31 C18.69 18.2 11.84 18.1 5 18 C5 17.67 5 17.34 5 17 C26.12 17 47.24 17 69 17 C69 14.03 69 11.06 69 8 C50.19 8 31.38 8 12 8 C12 7.67 12 7.34 12 7 C31.14 7 50.28 7 70 7 C70.33 5.68 70.66 4.36 71 3 C73.47 2.51 73.47 2.51 76 2 C50.92 2 25.84 2 0 2 C0 1.34 0 0.68 0 0 Z " fill="#293237" transform="translate(159,31)"/>
<path d="M0 0 C0.99 0.33 1.98 0.66 3 1 C4.89 1.07 6.79 1.08 8.69 1.06 C9.68 1.05 10.68 1.04 11.7 1.04 C12.46 1.02 13.22 1.01 14 1 C15.25 3.49 14.78 4.41 14 7 C14.66 7 15.32 7 16 7 C16.33 16.9 16.66 26.8 17 37 C17.66 37 18.32 37 19 37 C18.67 36.01 18.34 35.02 18 34 C21.47 33.5 21.47 33.5 25 33 C23.92 35.48 23.92 35.48 22 38 C18.86 38.49 18.86 38.49 15.31 38.31 C14.13 38.27 12.95 38.22 11.74 38.18 C10.38 38.09 10.38 38.09 9 38 C9.33 37.09 9.65 36.18 9.99 35.25 C11.51 29.92 11.21 24.55 11.12 19.06 C11.12 18 11.11 16.93 11.1 15.83 C11.07 13.22 11.04 10.61 11 8 C9.35 8 7.7 8 6 8 C5.99 8.58 5.97 9.17 5.96 9.77 C5.88 12.43 5.78 15.09 5.69 17.75 C5.66 18.67 5.64 19.59 5.62 20.54 C5.58 21.43 5.55 22.32 5.51 23.23 C5.49 24.05 5.46 24.87 5.43 25.71 C4.91 28.5 3.93 29.94 2 32 C1.34 32 0.68 32 0 32 C0 21.44 0 10.88 0 0 Z " fill="#F2F6F7" transform="translate(102,37)"/>
<path d="M0 0 C0.99 0.5 0.99 0.5 2 1 C1.67 11.89 1.34 22.78 1 34 C6.3 35.77 11.63 37.46 17 39 C14.03 47.91 14.03 47.91 11 57 C6 56 6 56 0 53 C0 35.51 0 18.02 0 0 Z " fill="#A4AFB3" transform="translate(42,90)"/>
<path d="M0 0 C0.33 0 0.66 0 1 0 C1 17.82 1 35.64 1 54 C-6.88 56.25 -6.88 56.25 -11 55 C-11.67 53.06 -12.34 51.13 -13 49.19 C-13.37 48.11 -13.74 47.03 -14.12 45.92 C-15 43 -15 43 -15 40 C-13.07 38.99 -11.13 37.99 -9.19 37 C-8.11 36.44 -7.03 35.89 -5.92 35.31 C-3 34 -3 34 0 34 C0 22.78 0 11.56 0 0 Z " fill="#9AA5A8" transform="translate(206,90)"/>
<path d="M0 0 C7.08 5.92 13.43 12.2 19.42 19.22 C21.07 21.14 21.07 21.14 23.44 23.19 C25 25 25 25 25.38 27.62 C25 30 25 30 23 32 C20.63 32.41 20.63 32.41 18 32 C15.9 30.02 15.9 30.02 13.94 27.38 C13.25 26.46 12.56 25.55 11.85 24.62 C10.43 22.61 9.1 20.6 7.81 18.5 C5.76 15.68 4.32 14.92 1 14 C0.86 12.91 0.71 11.81 0.56 10.69 C0.12 7.07 0.12 7.07 -1 4 C-1.99 3.67 -2.98 3.34 -4 3 C-3.01 2.67 -2.02 2.34 -1 2 C-0.67 1.34 -0.34 0.68 0 0 Z " fill="#EBF0F1" transform="translate(125,155)"/>
<path d="M0 0 C0.66 0.66 1.32 1.32 2 2 C1.78 6.48 0.02 8.4 -3.19 11.38 C-6.12 14.15 -8.78 16.88 -11.25 20.06 C-13.64 22.93 -13.64 22.93 -16.75 23.56 C-19 23 -19 23 -21 21 C-21.39 18.16 -21.39 18.16 -21 15 C-19.21 12.66 -19.21 12.66 -16.81 10.5 C-14.05 7.93 -11.42 5.45 -9.06 2.5 C-5.96 -1.26 -4.57 -1.26 0 0 Z " fill="#F7FAFA" transform="translate(118,163)"/>
<path d="M0 0 C2.75 0.67 3.81 1.15 5.31 3.56 C4.73 9.53 1.2 12.34 -2.88 16.38 C-3.54 17.07 -4.2 17.76 -4.88 18.47 C-9.85 23.45 -9.85 23.45 -14.18 24.01 C-15 23.86 -15.83 23.72 -16.69 23.56 C-17.73 20.73 -18.16 19.49 -17.69 16.56 C-15.09 12.83 -11.92 9.75 -8.69 6.56 C-8.11 5.91 -7.52 5.26 -6.93 4.59 C-4.72 2.15 -3.27 0.68 0 0 Z " fill="#F4F6F6" transform="translate(102.6875,151.4375)"/>
<path d="M0 0 C25.08 0 50.16 0 76 0 C76 0.33 76 0.66 76 1 C51.25 1 26.5 1 1 1 C1.33 5.95 1.66 10.9 2 16 C3.32 15.34 4.64 14.68 6 14 C6.82 10.44 6.82 10.44 7 7 C7.33 7 7.66 7 8 7 C8 9.97 8 12.94 8 16 C29.12 16 50.24 16 72 16 C72 14.02 72 12.04 72 10 C72.33 10 72.66 10 73 10 C73 12.31 73 14.62 73 17 C51.55 17 30.1 17 8 17 C8 18.32 8 19.64 8 21 C6.02 21.66 4.04 22.32 2 23 C1.67 31.58 1.34 40.16 1 49 C0.67 49 0.34 49 0 49 C0 39.1 0 29.2 0 19 C-1.98 19 -3.96 19 -6 19 C-6 18.67 -6 18.34 -6 18 C-4.02 18 -2.04 18 0 18 C0 12.06 0 6.12 0 0 Z " fill="#2E373D" transform="translate(13,32)"/>
<path d="M0 0 C1.3 0 1.3 0 2.63 0.01 C3.51 0.01 4.39 0 5.31 0 C7.18 0 9.05 0 10.92 0.01 C13.8 0.01 16.68 0.01 19.56 0 C21.37 0 23.19 0 25 0.01 C25.87 0 26.73 0 27.63 0 C33.7 0.02 33.7 0.02 34.81 1.14 C34.81 2.79 34.81 4.44 34.81 6.14 C21.28 6.14 7.75 6.14 -6.19 6.14 C-6.52 4.49 -6.85 2.84 -7.19 1.14 C-5.29 -0.76 -2.52 0.01 0 0 Z " fill="#122E37" transform="translate(41.186279296875,64.86105346679688)"/>
<path d="M0 0 C2.25 0.44 2.25 0.44 4.25 2.44 C4.22 7.82 2.83 10.62 -0.81 14.32 C-1.35 14.83 -1.88 15.35 -2.44 15.88 C-3.21 16.69 -3.21 16.69 -4.01 17.51 C-6.63 20.1 -8.35 21.37 -12.02 21.97 C-12.92 21.8 -13.82 21.62 -14.75 21.44 C-16.75 18.44 -16.75 18.44 -16.57 16 C-14.56 9.74 -6.63 1.05 0 0 Z " fill="#F2F5F5" transform="translate(89.75,142.5625)"/>
<path d="M0 0 C1.64 0 3.28 0.01 4.92 0.03 C6.21 0.04 6.21 0.04 7.53 0.04 C10.3 0.05 13.06 0.08 15.82 0.1 C17.69 0.11 19.56 0.12 21.43 0.13 C26.02 0.15 30.6 0.19 35.19 0.23 C35.58 1.88 35.91 3.55 36.19 5.23 C35.19 6.23 35.19 6.23 31.41 6.34 C29.72 6.34 28.03 6.33 26.35 6.32 C25.02 6.32 25.02 6.32 23.66 6.32 C20.82 6.31 17.97 6.3 15.13 6.29 C13.21 6.28 11.29 6.28 9.36 6.28 C4.64 6.26 -0.08 6.25 -4.81 6.23 C-5.43 4.35 -5.43 4.35 -5.81 2.23 C-3.81 0.23 -3.81 0.23 0 0 Z " fill="#113E48" transform="translate(177.80712890625,64.77294921875)"/>
<path d="M0 0 C6.23 -0.48 6.23 -0.48 9.22 1.38 C11.99 5.46 11.43 9.44 11.25 14.25 C11.23 15.19 11.21 16.12 11.2 17.09 C11.15 19.39 11.08 21.7 11 24 C10.67 24 10.34 24 10 24 C9.67 20.7 9.34 17.4 9 14 C8.67 14 8.34 14 8 14 C7.67 12.02 7.34 10.04 7 8 C6.94 9 6.88 10 6.82 11.03 C6.73 12.32 6.65 13.61 6.56 14.94 C6.48 16.23 6.4 17.51 6.32 18.84 C6 22 6 22 5 23 C2.67 23.04 0.33 23.04 -2 23 C-2.05 22.01 -2.1 21.03 -2.15 20.01 C-2.22 18.73 -2.3 17.45 -2.38 16.12 C-2.44 14.85 -2.51 13.57 -2.59 12.26 C-2.67 8.92 -2.67 8.92 -5 7 C-4.36 6.59 -3.72 6.17 -3.06 5.75 C-0.79 3.82 -0.4 2.89 0 0 Z " fill="#DFE4E5" transform="translate(142,37)"/>
<path d="M0 0 C0.66 0.33 1.32 0.66 2 1 C2.62 3.56 2.62 3.56 3 6 C3.33 6 3.66 6 4 6 C4.08 7.94 4.14 9.87 4.19 11.81 C4.24 13.43 4.24 13.43 4.29 15.08 C4 18 4 18 2.78 19.88 C0.48 21.33 -0.99 21.3 -3.69 21.19 C-4.5 21.16 -5.3 21.13 -6.14 21.11 C-6.75 21.07 -7.37 21.04 -8 21 C-8.33 21.99 -8.66 22.98 -9 24 C-9.99 24 -10.98 24 -12 24 C-12.33 17.07 -12.66 10.14 -13 3 C-14.98 3 -16.96 3 -19 3 C-18.67 2.34 -18.34 1.68 -18 1 C-16.52 0.97 -15.04 0.95 -13.56 0.94 C-12.74 0.93 -11.92 0.91 -11.07 0.9 C-9 1 -9 1 -8 2 C-7.93 4.35 -7.92 6.71 -7.94 9.06 C-7.95 10.35 -7.96 11.64 -7.96 12.97 C-7.98 13.97 -7.99 14.97 -8 16 C-4.53 15.5 -4.53 15.5 -1 15 C-0.67 10.05 -0.34 5.1 0 0 Z " fill="#F9FCFC" transform="translate(148,44)"/>
<path d="M0 0 C2 2 2 2 2.45 4.26 C1.81 8.15 -0.4 10.17 -3.12 12.81 C-3.6 13.31 -4.07 13.82 -4.56 14.33 C-7.15 16.9 -8.65 17.96 -12.3 18.39 C-15 18 -15 18 -16 17 C-16.5 14.44 -16.5 14.44 -16 11 C-12.2 5.46 -7.26 -0.96 0 0 Z " fill="#EEF1F1" transform="translate(127,175)"/>
<path d="M0 0 C0.69 2.49 1 4.38 1 7 C5.03 9.21 8.44 10.46 13 11 C12.62 11.44 12.25 11.87 11.86 12.32 C8.54 16.19 5.25 20.08 2 24 C-1.36 23.4 -3.38 22.15 -6 20 C-5.42 15.21 -3.93 11.41 -2 7 C-1.26 4.68 -0.62 2.36 0 0 Z " fill="#9FAAAE" transform="translate(67,130)"/>
<path d="M0 0 C6 6 6 6 6.31 8.88 C6.28 14.24 3.99 19.1 2 24 C-0.69 23 -1.78 22.46 -3.05 19.83 C-5.73 10 -5.73 10 -5 6 C-3.5 3.75 -1.88 1.97 0 0 Z " fill="#EDF0F1" transform="translate(124,202)"/>
<path d="M0 0 C1.65 0 3.3 0 5 0 C7.48 2.48 6.19 9.11 6.19 12.44 C6.2 13.51 6.21 14.59 6.22 15.7 C6.23 16.72 6.23 17.75 6.23 18.81 C6.23 19.76 6.24 20.7 6.24 21.68 C6 24 6 24 4 26 C2.68 25.67 1.36 25.34 0 25 C0 16.75 0 8.5 0 0 Z " fill="#20272C" transform="translate(108,44)"/>
<path d="M0 0 C1.32 0 2.64 0 4 0 C4 0.66 4 1.32 4 2 C4.66 2 5.32 2 6 2 C6 2.99 6 3.98 6 5 C6.33 3.35 6.66 1.7 7 0 C8.11 0.91 9.21 1.83 10.31 2.75 C10.93 3.26 11.54 3.77 12.18 4.3 C16.94 8.75 16.94 8.75 17.14 13.16 C16.98 14.88 16.98 14.88 16.81 16.62 C16.72 17.77 16.62 18.92 16.52 20.1 C16 23 16 23 14 25 C11.5 25.31 11.5 25.31 9 25 C8.34 24.01 7.68 23.02 7 22 C9.65 20.92 12.28 19.91 15 19 C12.61 14.46 9.48 11.31 5.81 7.81 C3.82 5.91 1.9 4 0 2 C0 1.34 0 0.68 0 0 Z " fill="#1D2429" transform="translate(156,141)"/>
<path d="M0 0 C5.8 3.76 8.7 6.47 11 13 C11.84 14.05 11.84 14.05 12.69 15.12 C14.37 17.53 14.24 19.13 14 22 C11.05 20.62 8.49 19.01 5.88 17.06 C5.19 16.56 4.51 16.05 3.8 15.54 C2 14 2 14 0 11 C-0.2 8.3 -0.2 8.3 -0.12 5.31 C-0.11 4.32 -0.09 3.32 -0.07 2.3 C-0.05 1.54 -0.02 0.78 0 0 Z " fill="#E1E6E7" transform="translate(108,213)"/>
<path d="M0 0 C0.58 10.98 0.58 10.98 -3 15 C-10.04 21 -10.04 21 -13 21 C-13.35 16.76 -12.6 15.27 -10 12 C-9.55 10.87 -9.09 9.73 -8.62 8.56 C-6.94 4.86 -4.58 0 0 0 Z " fill="#E5E9EA" transform="translate(141,213)"/>
<path d="M0 0 C1.65 0 3.3 0 5 0 C5 8.91 5 17.82 5 27 C3.35 26.67 1.7 26.34 0 26 C0 17.42 0 8.84 0 0 Z " fill="#131B21" transform="translate(119,43)"/>
<path d="M0 0 C6.91 0.27 10.15 1.98 15.06 6.75 C15.95 7.54 15.95 7.54 16.86 8.34 C18.54 9.92 18.54 9.92 21 13 C20.87 15.89 20.87 15.89 20 18 C14.51 15.89 11.17 12.36 7.12 8.16 C4.94 5.85 4.94 5.85 1.94 3.56 C1.3 3.05 0.66 2.53 0 2 C0 1.34 0 0.68 0 0 Z " fill="#8E9B9F" transform="translate(19,200)"/>
<path d="M0 0 C4.16 1.6 7.34 4.48 10 8 C10.5 10.75 10.5 10.75 10 13 C8 15 8 15 5.62 15.44 C3 15 3 15 0.69 12.94 C-1.39 9.33 -1.38 7.1 -1 3 C-0.67 2.01 -0.34 1.02 0 0 Z " fill="#F4F8F8" transform="translate(140,172)"/>
<path d="M0 0 C0.33 0.66 0.66 1.32 1 2 C2.65 1.67 4.3 1.34 6 1 C4.85 2.15 3.7 3.3 2.55 4.45 C1.49 5.51 0.44 6.57 -0.61 7.64 C-6.61 13.74 -12.73 19.46 -20 24 C-19.19 21.06 -19.19 21.06 -18 18 C-17.01 17.67 -16.02 17.34 -15 17 C-15.33 16.01 -15.66 15.02 -16 14 C-16.66 13.67 -17.32 13.34 -18 13 C-15.69 11.02 -13.38 9.04 -11 7 C-10.67 8.65 -10.34 10.3 -10 12 C-5.84 9.45 -2.72 7.08 0 3 C0 2.01 0 1.02 0 0 Z " fill="#7B898D" transform="translate(169,252)"/>
<path d="M0 0 C2.47 0.49 2.47 0.49 5 1 C5 7.6 5 14.2 5 21 C3.68 21.33 2.36 21.66 1 22 C0 21 0 21 -0.11 18.96 C-0.11 18.08 -0.1 17.21 -0.1 16.31 C-0.09 15.36 -0.09 14.42 -0.09 13.45 C-0.08 12.45 -0.07 11.46 -0.06 10.44 C-0.06 9.44 -0.05 8.44 -0.05 7.42 C-0.04 4.94 -0.02 2.47 0 0 Z " fill="#202629" transform="translate(130,48)"/>
<path d="M0 0 C4.09 -0.02 8.19 -0.04 12.28 -0.05 C13.67 -0.06 15.07 -0.07 16.46 -0.08 C18.46 -0.09 20.46 -0.09 22.46 -0.1 C23.67 -0.1 24.87 -0.11 26.11 -0.11 C29 0 29 0 31 1 C33.33 1.04 35.67 1.04 38 1 C38 1.66 38 2.32 38 3 C25.46 3 12.92 3 0 3 C0 2.01 0 1.02 0 0 Z " fill="#12191F" transform="translate(174,67)"/>
<path d="M0 0 C1.65 0 3.3 0 5 0 C5 5.61 5 11.22 5 17 C3.02 17 1.04 17 -1 17 C-1.03 14.35 -1.05 11.71 -1.06 9.06 C-1.07 8.31 -1.08 7.55 -1.09 6.78 C-1.1 4.85 -1.05 2.92 -1 1 C-0.67 0.67 -0.34 0.34 0 0 Z " fill="#1D2429" transform="translate(142,43)"/>
<path d="M0 0 C2.31 0 4.62 0 7 0 C7.12 0.97 7.25 1.94 7.38 2.94 C7.58 3.95 7.79 4.96 8 6 C8.66 6.33 9.32 6.66 10 7 C10 8.65 10 10.3 10 12 C2.25 12.12 2.25 12.12 0 11 C0 7.37 0 3.74 0 0 Z " fill="#1B2126" transform="translate(55,172)"/>
<path d="M0 0 C2 3 2 3 1.94 4.88 C0.28 8.62 -2.42 11.32 -6.19 12.94 C-6.79 12.96 -7.38 12.98 -8 13 C-8.66 12.34 -9.32 11.68 -10 11 C-10 7.24 -8.62 5.31 -6.12 2.69 C-3.43 0 -3.43 0 0 0 Z " fill="#DDE0DF" transform="translate(194,245)"/>
<path d="M0 0 C3.51 0.58 5.29 1.83 7.81 4.31 C8.44 4.91 9.06 5.5 9.71 6.11 C11 8 11 8 10.7 10.23 C10.47 10.81 10.24 11.4 10 12 C7.88 12.88 7.88 12.88 5 13 C2.39 11.43 0.56 9.62 -1 7 C-0.88 3.12 -0.88 3.12 0 0 Z " fill="#F0F3F4" transform="translate(55,245)"/>
<path d="M0 0 C4.29 0 8.58 0 13 0 C13 2.64 13 5.28 13 8 C8.71 7.34 4.42 6.68 0 6 C0 4.02 0 2.04 0 0 Z " fill="#A4B0B4" transform="translate(21,89)"/>
<path d="M0 0 C1.98 0.99 1.98 0.99 4 2 C4 8.93 4 15.86 4 23 C2.68 23 1.36 23 0 23 C0 15.41 0 7.82 0 0 Z " fill="#F7FEFD" transform="translate(125,46)"/>
<path d="M0 0 C1.62 0.81 1.62 0.81 2.38 2.5 C2.62 4.81 2.62 4.81 1.06 7.5 C-1.8 10.22 -3.48 10.64 -7.38 10.81 C-8.38 9.81 -8.38 9.81 -8.81 7.56 C-8.38 4.81 -8.38 4.81 -5.62 1.94 C-2.38 -0.19 -2.38 -0.19 0 0 Z " fill="#EAEEEE" transform="translate(205.375,234.1875)"/>
<path d="M0 0 C3.14 0.22 4.34 1.28 6.81 3.31 C9 6 9 6 8.81 8.31 C8.54 8.87 8.28 9.43 8 10 C6.35 10.33 4.7 10.66 3 11 C-0.58 7.16 -0.58 7.16 -2 5 C-1.87 2.64 -1.66 1.66 0 0 Z " fill="#B6B8B9" transform="translate(43,234)"/>
<path d="M0 0 C2.86 1.28 5.11 2.45 7 5 C7.25 7.62 7.25 7.62 7 10 C6 11 6 11 3.69 11.31 C1 11 1 11 -1.38 9.31 C-3 7 -3 7 -2.88 4.38 C-2 2 -2 2 0 0 Z " fill="#A1ACAD" transform="translate(132,186)"/>
<path d="M0 0 C2.01 0.29 4.01 0.62 6 1 C5.67 1.66 5.34 2.32 5 3 C6.65 3.33 8.3 3.66 10 4 C9.67 4.66 9.34 5.32 9 6 C7.68 5.67 6.36 5.34 5 5 C5 11.93 5 18.86 5 26 C4.67 26 4.34 26 4 26 C4 19.07 4 12.14 4 5 C3.01 5.33 2.02 5.66 1 6 C0.67 12.6 0.34 19.2 0 26 C-0.33 26 -0.66 26 -1 26 C-1.03 21.85 -1.05 17.71 -1.06 13.56 C-1.07 12.38 -1.08 11.19 -1.09 9.97 C-1.09 8.85 -1.09 7.73 -1.1 6.57 C-1.1 5.52 -1.11 4.48 -1.11 3.41 C-1 1 -1 1 0 0 Z " fill="#B9C0C2" transform="translate(125,43)"/>
<path d="M0 0 C-1.51 3.44 -3.61 6.25 -5.88 9.22 C-7.09 11.14 -7.48 12.8 -8 15 C-9.56 16.75 -9.56 16.75 -11 18 C-11.99 17.67 -12.98 17.34 -14 17 C-13.47 12.97 -12.44 10.9 -9.69 7.94 C-8.74 6.91 -8.74 6.91 -7.78 5.87 C-7.19 5.25 -6.61 4.64 -6 4 C-5.24 3.18 -4.47 2.35 -3.69 1.5 C-2 0 -2 0 0 0 Z " fill="#ECF1F0" transform="translate(87,144)"/>
<path d="M0 0 C0.66 0.66 1.32 1.32 2 2 C1.75 4.56 1.75 4.56 1 7 C0.01 7.5 0.01 7.5 -1 8 C-1.99 7.34 -2.98 6.68 -4 6 C-3.34 4.68 -2.68 3.36 -2 2 C-5.91 1.55 -5.91 1.55 -7.78 3.61 C-8.35 4.32 -8.92 5.02 -9.5 5.75 C-10.1 6.48 -10.7 7.2 -11.32 7.95 C-11.87 8.63 -12.43 9.3 -13 10 C-14.32 11.35 -15.64 12.69 -17 14 C-17.66 13.67 -18.32 13.34 -19 13 C-18.55 12.56 -18.11 12.13 -17.64 11.68 C-14.68 8.76 -11.81 5.86 -9.19 2.62 C-5.99 -1.21 -4.68 -1.29 0 0 Z " fill="#E0E5E6" transform="translate(118,163)"/>
<path d="M0 0 C4.62 0 9.24 0 14 0 C14 2.31 14 4.62 14 7 C11.36 7 8.72 7 6 7 C6 5.35 6 3.7 6 2 C4.35 1.67 2.7 1.34 1 1 C1 3.31 1 5.62 1 8 C0.67 8 0.34 8 0 8 C0 5.36 0 2.72 0 0 Z " fill="#949D9E" transform="translate(214,88)"/>
<path d="M0 0 C0.66 0.33 1.32 0.66 2 1 C1.43 4.59 0.19 6.05 -2.5 8.44 C-5.36 11.15 -6.88 12.89 -7 17 C-7.33 17 -7.66 17 -8 17 C-8.33 14.69 -8.66 12.38 -9 10 C-11.31 10 -13.62 10 -16 10 C-15.42 9.73 -14.84 9.46 -14.25 9.19 C-11.97 7.98 -10.03 6.59 -8 5 C-8.33 6.32 -8.66 7.64 -9 9 C-8.34 9 -7.68 9 -7 9 C-7 8.34 -7 7.68 -7 7 C-6.01 6.34 -5.02 5.68 -4 5 C-2.63 3.36 -1.29 1.7 0 0 Z " fill="#2E353B" transform="translate(104,166)"/>
<path d="M0 0 C0.99 0.33 1.98 0.66 3 1 C3 1.99 3 2.98 3 4 C3.78 4.06 4.57 4.12 5.38 4.19 C6.24 4.46 7.11 4.72 8 5 C9.31 7.56 9.31 7.56 10 10 C10.66 10 11.32 10 12 10 C12 11.65 12 13.3 12 15 C6.59 13.69 2.88 9.6 0 5 C-0.2 2.24 -0.2 2.24 0 0 Z " fill="#13191F" transform="translate(141,144)"/>
<path d="M0 0 C1.66 1.66 1.36 3.78 1.56 6.06 C1.65 6.98 1.73 7.9 1.82 8.85 C1.88 9.56 1.94 10.27 2 11 C1.01 10.67 0.02 10.34 -1 10 C-0.67 8.35 -0.34 6.7 0 5 C-1.65 5 -3.3 5 -5 5 C-5.33 6.32 -5.66 7.64 -6 9 C-6 8.34 -6 7.68 -6 7 C-7.65 7 -9.3 7 -11 7 C-10.01 6.67 -9.02 6.34 -8 6 C-7.67 5.01 -7.34 4.02 -7 3 C-7.99 2.34 -8.98 1.68 -10 1 C-6.6 0.22 -3.49 -0.19 0 0 Z " fill="#343B40" transform="translate(130,29)"/>
<path d="M0 0 C0.66 1.32 1.32 2.64 2 4 C0.62 5.5 0.62 5.5 -1 7 C-1.66 7 -2.32 7 -3 7 C-3 7.66 -3 8.32 -3 9 C-4.68 10.52 -6.42 11.97 -8.19 13.38 C-9.15 14.15 -10.11 14.92 -11.11 15.71 C-12.06 16.47 -13.02 17.22 -14 18 C-14.9 18.76 -15.81 19.51 -16.74 20.29 C-19 22 -19 22 -21 22 C-21 21.34 -21 20.68 -21 20 C-19.28 18.48 -19.28 18.48 -16.94 16.75 C-16.12 16.13 -15.31 15.51 -14.47 14.88 C-13.65 14.26 -12.84 13.64 -12 13 C-10.63 11.93 -9.28 10.85 -7.94 9.75 C-7.37 9.29 -6.8 8.83 -6.21 8.36 C-4.67 6.93 -4.67 6.93 -5 4 C-3.35 4 -1.7 4 0 4 C0 2.68 0 1.36 0 0 Z " fill="#667374" transform="translate(147,273)"/>
<path d="M0 0 C0.66 0.33 1.32 0.66 2 1 C0.76 2.46 -0.47 3.93 -1.71 5.39 C-2.89 6.87 -3.95 8.43 -5 10 C-5.82 10.31 -6.65 10.62 -7.5 10.94 C-10.12 11.73 -10.12 11.73 -10.94 13.88 C-12.54 17.09 -14.91 18.3 -18 20 C-18.99 19.67 -19.98 19.34 -21 19 C-20.11 18.2 -20.11 18.2 -19.2 17.38 C-12.78 11.61 -6.38 5.81 0 0 Z " fill="#DEE2E2" transform="translate(160,222)"/>
<path d="M0 0 C0.99 0.66 1.98 1.32 3 2 C3.31 4.5 3.31 4.5 3 7 C1 9 1 9 -1.44 9.31 C-4 9 -4 9 -5.81 7.62 C-7 6 -7 6 -7 4 C-4.69 3.34 -2.38 2.68 0 2 C0 1.34 0 0.68 0 0 Z " fill="#8C9297" transform="translate(147,178)"/>
<path d="M0 0 C0 3.52 -0.7 4.44 -3 7 C-3.66 7 -4.32 7 -5 7 C-6.47 11.3 -7.77 15.62 -9 20 C-9.66 20 -10.32 20 -11 20 C-12.05 17.16 -12.48 15.93 -12 13 C-9.37 9.29 -6.25 6.16 -3 3 C-2.41 2.41 -1.81 1.81 -1.2 1.2 C-0.81 0.81 -0.41 0.41 0 0 Z " fill="#E1E7E7" transform="translate(97,155)"/>
<path d="M0 0 C0.99 0.66 1.98 1.32 3 2 C2.25 6.75 2.25 6.75 0 9 C-2.5 8.81 -2.5 8.81 -5 8 C-5.66 7.01 -6.32 6.02 -7 5 C-4.69 3.35 -2.38 1.7 0 0 Z " fill="#8C9599" transform="translate(159,168)"/>
<path d="M0 0 C0.99 0.33 1.98 0.66 3 1 C2.5 1.89 2.01 2.77 1.5 3.69 C0.06 6.88 -0.3 8.58 0 12 C-2.97 12 -5.94 12 -9 12 C-7.68 10.35 -6.36 8.7 -5 7 C-5.66 6.67 -6.32 6.34 -7 6 C-6.03 5.75 -5.06 5.51 -4.06 5.25 C-2.55 4.63 -2.55 4.63 -1 4 C-0.03 1.97 -0.03 1.97 0 0 Z " fill="#2B3235" transform="translate(114,27)"/>
<path d="M0 0 C0.33 0 0.66 0 1 0 C1.33 5.94 1.66 11.88 2 18 C3.32 17.34 4.64 16.68 6 16 C5.57 20.75 4.67 22.92 1 26 C-0.16 20.52 -0.11 15.2 -0.06 9.62 C-0.06 8.7 -0.05 7.77 -0.05 6.82 C-0.04 4.54 -0.02 2.27 0 0 Z " fill="#D7DBDB" transform="translate(135,49)"/>
<path d="M0 0 C0.99 0 1.98 0 3 0 C3 5.61 3 11.22 3 17 C2.01 16.34 1.02 15.68 0 15 C-0.22 12.37 -0.28 9.99 -0.19 7.38 C-0.17 6.67 -0.16 5.96 -0.15 5.23 C-0.11 3.49 -0.06 1.74 0 0 Z " fill="#0A1014" transform="translate(131,49)"/>
<path d="M0 0 C5.94 5.74 5.94 5.74 6.12 9.69 C6.08 10.45 6.04 11.21 6 12 C2.56 10.47 -0.12 8.4 -3 6 C-2.34 6 -1.68 6 -1 6 C-0.67 4.02 -0.34 2.04 0 0 Z " fill="#D6DBDE" transform="translate(116,223)"/>
<path d="M0 0 C2.01 0.29 4.01 0.62 6 1 C6.04 2.67 6.04 4.33 6 6 C5 7 5 7 2.56 7.19 C0 7 0 7 -2 5 C-1.46 1.46 -1.46 1.46 0 0 Z " fill="#EAEDEF" transform="translate(188,171)"/>
<path d="M0 0 C1.88 0.31 1.88 0.31 4 1 C4.66 1.99 5.32 2.98 6 4 C4.35 3.67 2.7 3.34 1 3 C1.56 6.23 2.37 7.98 5 10 C5.99 10 6.98 10 8 10 C8.33 8.68 8.66 7.36 9 6 C9.66 7.32 10.32 8.64 11 10 C9.75 11.56 9.75 11.56 8 13 C4.94 13 3.64 11.73 1.19 9.88 C-1 7 -1 7 -0.81 3.19 C-0.54 2.14 -0.28 1.08 0 0 Z " fill="#A6AAAC" transform="translate(55,245)"/>
<path d="M0 0 C0.33 0.66 0.66 1.32 1 2 C2.65 1.67 4.3 1.34 6 1 C4.85 2.15 3.7 3.3 2.55 4.45 C1.48 5.51 0.43 6.59 -0.61 7.68 C-4.75 11.96 -9.15 15.56 -14 19 C-12.19 14.14 -8.01 11.3 -4.17 8.07 C-2.71 6.79 -1.35 5.4 0 4 C0 2.68 0 1.36 0 0 Z " fill="#5E6B6C" transform="translate(169,252)"/>
<path d="M0 0 C0.66 0.33 1.32 0.66 2 1 C1.45 1.54 0.89 2.09 0.32 2.64 C-0.77 3.72 -0.77 3.72 -1.88 4.81 C-2.59 5.52 -3.31 6.23 -4.05 6.96 C-6.15 9.04 -6.15 9.04 -8 12 C-8.66 12 -9.32 12 -10 12 C-10.33 12.99 -10.66 13.98 -11 15 C-11.66 15 -12.32 15 -13 15 C-14.63 16.46 -14.63 16.46 -16 18 C-16.66 17.67 -17.32 17.34 -18 17 C-13.39 12.27 -8.68 7.74 -3.66 3.45 C-2.4 2.35 -1.19 1.19 0 0 Z " fill="#DEE2E4" transform="translate(180,204)"/>
<path d="M0 0 C1.88 0.12 1.88 0.12 4 1 C5.75 3.56 5.75 3.56 7 6 C5.02 6.66 3.04 7.32 1 8 C-0.56 6.75 -0.56 6.75 -2 5 C-1.75 2.86 -1.54 1.54 0 0 Z " fill="#282F35" transform="translate(127,150)"/>
<path d="M0 0 C7.43 -0.14 7.43 -0.14 11 1 C10.67 2.65 10.34 4.3 10 6 C8.02 6 6.04 6 4 6 C3.71 5.2 3.42 4.39 3.12 3.56 C2.27 0.87 2.27 0.87 0 0 Z " fill="#C0D0D0" transform="translate(128,5)"/>
<path d="M0 0 C2.31 0 4.62 0 7 0 C7.12 2.38 7.12 2.38 7 5 C6.34 5.66 5.68 6.32 5 7 C1.46 6.46 1.46 6.46 0 5 C-0.04 3.33 -0.04 1.67 0 0 Z " fill="#E8EDEE" transform="translate(55,172)"/>
<path d="M0 0 C2.16 3.25 2.25 3.88 1.88 7.56 C1.81 8.35 1.75 9.13 1.68 9.94 C1 12 1 12 -1.05 13.28 C-1.7 13.52 -2.34 13.75 -3 14 C-4.37 10.31 -3.6 8.29 -2.06 4.75 C-1.68 3.86 -1.3 2.97 -0.91 2.05 C-0.61 1.37 -0.31 0.7 0 0 Z " fill="#E1E7E8" transform="translate(72,118)"/>
<path d="M0 0 C0 3.2 -0.74 5.09 -2 8 C-1.01 8 -0.02 8 1 8 C1 7.34 1 6.68 1 6 C1.99 6.33 2.98 6.66 4 7 C2.31 8.56 2.31 8.56 0 10 C-2.75 9.69 -2.75 9.69 -5 9 C-5.31 6.75 -5.31 6.75 -5 4 C-2.5 1.69 -2.5 1.69 0 0 Z " fill="#BDC1C1" transform="translate(202,235)"/>
<path d="M0 0 C-1.98 0.99 -1.98 0.99 -4 2 C-4 1.34 -4 0.68 -4 0 C-6.14 1.87 -6.14 1.87 -6.94 4.44 C-7.99 6.97 -8.95 8.23 -11 10 C-11.48 3.77 -11.48 3.77 -9.44 0.5 C-6.02 -1.6 -3.81 -0.88 0 0 Z " fill="#D2D8DA" transform="translate(112,18)"/>
<path d="M0 0 C4.45 0.99 4.45 0.99 9 2 C5 3 5 3 2 3 C0.35 5.97 -1.3 8.94 -3 12 C-3.66 10.68 -4.32 9.36 -5 8 C-3.74 5.01 -1.88 2.68 0 0 Z " fill="#1A2025" transform="translate(78,102)"/>
<path d="M0 0 C3.63 0 7.26 0 11 0 C10.67 0.66 10.34 1.32 10 2 C9.34 2 8.68 2 8 2 C7.75 2.6 7.5 3.2 7.25 3.81 C5.84 6.29 4.35 7.43 2 9 C2 7.35 2 5.7 2 4 C2.66 4 3.32 4 4 4 C4.33 3.01 4.66 2.02 5 1 C3.35 1 1.7 1 0 1 C0 0.67 0 0.34 0 0 Z " fill="#C1C7C7" transform="translate(88,105)"/>
<path d="M0 0 C0.33 0 0.66 0 1 0 C1.12 2.88 1.12 2.88 1 6 C-1 8 -1 8 -3.5 8.31 C-4.74 8.16 -4.74 8.16 -6 8 C-6.66 7.01 -7.32 6.02 -8 5 C-5.35 3.92 -2.72 2.91 0 2 C0 1.34 0 0.68 0 0 Z " fill="#83898C" transform="translate(171,158)"/>
<path d="M0 0 C1.98 0 3.96 0 6 0 C6 1.65 6 3.3 6 5 C4.34 5.38 2.68 5.71 1 6 C0 5 0 5 -0.06 2.44 C-0.04 1.63 -0.02 0.83 0 0 Z " fill="#DDE2E3" transform="translate(152,202)"/>
<path d="M0 0 C-1.2 2.49 -2.45 4.68 -4 7 C-4.99 7 -5.98 7 -7 7 C-7.27 7.64 -7.54 8.28 -7.81 8.94 C-9 11 -9 11 -12 12 C-10.53 8.6 -8.62 6.35 -6 3.75 C-5.3 3.04 -4.6 2.34 -3.88 1.61 C-2 0 -2 0 0 0 Z " fill="#CFD5D6" transform="translate(87,144)"/>
<path d="M0 0 C1.32 1.32 2.64 2.64 4 4 C3.34 4.66 2.68 5.32 2 6 C2.32 8.6 2.32 8.6 3 11 C-0.82 9.44 -3.19 6.96 -6 4 C-4.68 4 -3.36 4 -2 4 C-2 4.66 -2 5.32 -2 6 C-1.34 6 -0.68 6 0 6 C0 4.02 0 2.04 0 0 Z " fill="#738083" transform="translate(96,264)"/>
<path d="M0 0 C3.23 0.56 4.98 1.37 7 4 C7 4.99 7 5.98 7 7 C4.03 6.5 4.03 6.5 1 6 C0.67 4.02 0.34 2.04 0 0 Z " fill="#F1F4F4" transform="translate(43,236)"/>
<path d="M0 0 C2.69 -0.31 2.69 -0.31 6 0 C8.81 2.44 8.81 2.44 11 5 C11.33 5.33 11.66 5.66 12 6 C12.04 8.33 12.04 10.67 12 13 C11.67 13 11.34 13 11 13 C11 11.02 11 9.04 11 7 C10.01 7 9.02 7 8 7 C5.86 4.86 5.57 3.87 5 1 C3.35 1 1.7 1 0 1 C0 0.67 0 0.34 0 0 Z " fill="#3C4147" transform="translate(114,156)"/>
<path d="M0 0 C1.65 0 3.3 0 5 0 C5 1.32 5 2.64 5 4 C8.96 4.33 12.92 4.66 17 5 C16.67 5.99 16.34 6.98 16 8 C16 7.34 16 6.68 16 6 C15.15 6.07 15.15 6.07 14.28 6.14 C8.23 6.42 5 5.41 0 2 C0 1.34 0 0.68 0 0 Z " fill="#88949A" transform="translate(152,129)"/>
<path d="M0 0 C1.65 0 3.3 0 5 0 C5.12 2.38 5.12 2.38 5 5 C4.34 5.66 3.68 6.32 3 7 C2.01 7 1.02 7 0 7 C0 4.69 0 2.38 0 0 Z " fill="#12171F" transform="translate(125,34)"/>
<path d="M0 0 C0.66 0.33 1.32 0.66 2 1 C1.67 2.65 1.34 4.3 1 6 C1.66 6.33 2.32 6.66 3 7 C2.67 7.99 2.34 8.98 2 10 C2 9.34 2 8.68 2 8 C0.56 7.83 -0.87 7.67 -2.31 7.5 C-3.51 7.36 -3.51 7.36 -4.74 7.22 C-7.12 6.95 -7.12 6.95 -10 7 C-9.67 6.01 -9.34 5.02 -9 4 C-6.69 4 -4.38 4 -2 4 C-2 3.01 -2 2.02 -2 1 C-1.34 0.67 -0.68 0.34 0 0 Z " fill="#31383C" transform="translate(139,13)"/>
<path d="M0 0 C0.62 1.88 0.62 1.88 1 4 C-1 6 -1 6 -4.12 6.12 C-5.55 6.06 -5.55 6.06 -7 6 C-7 5.01 -7 4.02 -7 3 C-4.69 2.01 -2.38 1.02 0 0 Z " fill="#F6F9F9" transform="translate(191,249)"/>
<path d="M0 0 C3.22 5.27 3.22 5.27 4 7 C3.67 7.66 3.34 8.32 3 9 C1.68 7.68 0.36 6.36 -1 5 C-0.67 4.34 -0.34 3.68 0 3 C-0.66 3 -1.32 3 -2 3 C-2 2.34 -2 1.68 -2 1 C-2.99 1.33 -3.98 1.66 -5 2 C-6.39 2.07 -7.79 2.09 -9.19 2.06 C-11.07 2.03 -11.07 2.03 -13 2 C-13 1.67 -13 1.34 -13 1 C-8.61 0.3 -4.44 -0.11 0 0 Z " fill="#BCC1C2" transform="translate(170,105)"/>
<path d="M0 0 C1.96 0.42 3.92 0.86 5.88 1.31 C7.51 1.68 7.51 1.68 9.18 2.05 C12 3 12 3 14 6 C8.55 5.43 4.09 4.05 -1 2 C-0.67 1.34 -0.34 0.68 0 0 Z " fill="#31383B" transform="translate(49,91)"/>
<path d="M0 0 C3.16 1.37 3.99 1.99 6 5 C3.69 4.67 1.38 4.34 -1 4 C-1.33 4.99 -1.66 5.98 -2 7 C-2.69 5.19 -2.69 5.19 -3 3 C-1.56 1.25 -1.56 1.25 0 0 Z " fill="#899396" transform="translate(132,186)"/>
<path d="M0 0 C2.62 1.05 3.79 1.65 5.25 4.12 C5.5 4.74 5.75 5.36 6 6 C5.01 6 4.02 6 3 6 C2.67 7.98 2.34 9.96 2 12 C1 10 0 8 -1 6 C-0.34 5.67 0.32 5.34 1 5 C0.67 3.35 0.34 1.7 0 0 Z " fill="#2B3236" transform="translate(128,169)"/>
<path d="M0 0 C1.98 0 3.96 0 6 0 C5.67 1.65 5.34 3.3 5 5 C3.35 5 1.7 5 0 5 C0 3.35 0 1.7 0 0 Z " fill="#E1E6E7" transform="translate(92,202)"/>
<path d="M0 0 C1.46 2.65 2 3.89 2 7 C3.65 7 5.3 7 7 7 C7 7.33 7 7.66 7 8 C3.62 8.12 3.62 8.12 0 8 C-0.66 7.34 -1.32 6.68 -2 6 C-1.44 1.44 -1.44 1.44 0 0 Z " fill="#D4DADB" transform="translate(99,114)"/>
<path d="M0 0 C0.66 0.33 1.32 0.66 2 1 C1.01 2.48 1.01 2.48 0 4 C0 4.99 0 5.98 0 7 C-2.76 7.6 -5.16 8 -8 8 C-5.36 5.36 -2.72 2.72 0 0 Z " fill="#E1E6E7" transform="translate(119,94)"/>
<path d="M0 0 C0.99 0.33 1.98 0.66 3 1 C1.38 2.34 -0.25 3.67 -1.88 5 C-3.23 6.11 -3.23 6.11 -4.62 7.25 C-7 9 -7 9 -9 9 C-9 8.34 -9 7.68 -9 7 C-7.14 5.24 -7.14 5.24 -4.69 3.31 C-3.89 2.67 -3.09 2.03 -2.26 1.36 C-1.52 0.91 -0.77 0.46 0 0 Z " fill="#47555D" transform="translate(135,286)"/>
<path d="M0 0 C0.99 0.33 1.98 0.66 3 1 C3 1.66 3 2.32 3 3 C3.66 3 4.32 3 5 3 C5 4.65 5 6.3 5 8 C3.02 6.35 1.04 4.7 -1 3 C-0.67 2.01 -0.34 1.02 0 0 Z " fill="#2B3034" transform="translate(77,209)"/>
<path d="M0 0 C2.69 0.18 5.33 0.62 8 1 C8 1.33 8 1.66 8 2 C6.67 2.43 6.67 2.43 5.31 2.88 C2.5 3.83 -0.25 4.87 -3 6 C-1.12 1.12 -1.12 1.12 0 0 Z " fill="#E3E8E8" transform="translate(80,104)"/>
<path d="M0 0 C1 2 2 4 3 6 C2.67 6.66 2.34 7.32 2 8 C3.32 8.33 4.64 8.66 6 9 C3.62 9.12 3.62 9.12 1 9 C-1 7 -1 7 -1.19 3.94 C-1 1 -1 1 0 0 Z " fill="#DCE1E2" transform="translate(98,177)"/>
<path d="M0 0 C1.32 0 2.64 0 4 0 C4.33 2.31 4.66 4.62 5 7 C3.06 6.31 3.06 6.31 1 5 C0.25 2.38 0.25 2.38 0 0 Z " fill="#DCE0E2" transform="translate(121,219)"/>
<path d="M0 0 C2.06 0.44 2.06 0.44 4 1 C3.34 1 2.68 1 2 1 C1.67 2.32 1.34 3.64 1 5 C2.32 5.66 3.64 6.32 5 7 C2.62 7.12 2.62 7.12 0 7 C-0.66 6.34 -1.32 5.68 -2 5 C-1.46 1.46 -1.46 1.46 0 0 Z " fill="#CCD1D3" transform="translate(188,171)"/>
<path d="M0 0 C0.33 0 0.66 0 1 0 C1 2.97 1 5.94 1 9 C0.34 9 -0.32 9 -1 9 C-0.67 10.32 -0.34 11.64 0 13 C-0.99 12.67 -1.98 12.34 -3 12 C-2.01 8.04 -1.02 4.08 0 0 Z " fill="#24B3D3" transform="translate(163,56)"/>
<path d="M0 0 C0.66 0 1.32 0 2 0 C2 0.66 2 1.32 2 2 C2.99 2 3.98 2 5 2 C4.67 3.98 4.34 5.96 4 8 C3.34 8 2.68 8 2 8 C1.33 5.33 0.67 2.67 0 0 Z " fill="#FCFDFC" transform="translate(111,221)"/>
<path d="M0 0 C1.15 0.95 2.29 1.91 3.44 2.88 C4.39 3.68 4.39 3.68 5.37 4.49 C7 6 7 6 8 8 C5.3 7.63 3.42 7.3 1.19 5.69 C0 4 0 4 0 0 Z " fill="#2A323A" transform="translate(163,141)"/>
<path d="M0 0 C-2.25 2.06 -2.25 2.06 -5 4 C-7.25 3.88 -7.25 3.88 -9 3 C-9.33 2.34 -9.66 1.68 -10 1 C-3.38 -1.12 -3.38 -1.12 0 0 Z " fill="#C7C8C9" transform="translate(194,254)"/>
<path d="M0 0 C1.32 1.32 2.64 2.64 4 4 C3.36 4.29 2.72 4.58 2.06 4.88 C-0.15 5.83 -0.15 5.83 -1 8 C-1.99 6.68 -2.98 5.36 -4 4 C-3.01 3.67 -2.02 3.34 -1 3 C-0.67 2.01 -0.34 1.02 0 0 Z " fill="#2F373A" transform="translate(146,125)"/>
<path d="M0 0 C0.66 0 1.32 0 2 0 C2.33 0.99 2.66 1.98 3 3 C0.03 4.98 0.03 4.98 -3 7 C-1.12 1.12 -1.12 1.12 0 0 Z " fill="#677276" transform="translate(152,269)"/>
<path d="M0 0 C0 3 0 3 -2.31 5.69 C-5 8 -5 8 -8 8 C-5.36 5.36 -2.72 2.72 0 0 Z " fill="#CFD6D8" transform="translate(97,155)"/>
<path d="M0 0 C1.15 0.95 2.29 1.91 3.44 2.88 C4.39 3.68 4.39 3.68 5.37 4.49 C7 6 7 6 8 8 C6.35 7.67 4.7 7.34 3 7 C2.67 6.01 2.34 5.02 2 4 C1.01 3.34 0.02 2.68 -1 2 C-0.67 1.34 -0.34 0.68 0 0 Z " fill="#31373B" transform="translate(141,141)"/>
<path d="M0 0 C0.66 1.32 1.32 2.64 2 4 C-0.81 5.12 -0.81 5.12 -4 6 C-4.99 5.34 -5.98 4.68 -7 4 C-4.69 3.34 -2.38 2.68 0 2 C0 1.34 0 0.68 0 0 Z " fill="#A7ADAF" transform="translate(147,178)"/>
<path d="M0 0 C0.99 0.66 1.98 1.32 3 2 C2.67 3.65 2.34 5.3 2 7 C1.67 6.01 1.34 5.02 1 4 C0.01 4 -0.98 4 -2 4 C-1.34 2.68 -0.68 1.36 0 0 Z " fill="#7A8286" transform="translate(159,168)"/>
<path d="M0 0 C1.32 1.32 2.64 2.64 4 4 C2.35 4.66 0.7 5.32 -1 6 C-1 5.34 -1 4.68 -1 4 C-1.99 3.67 -2.98 3.34 -4 3 C-3.01 2.67 -2.02 2.34 -1 2 C-0.67 1.34 -0.34 0.68 0 0 Z " fill="#D5D9DC" transform="translate(125,155)"/>
<path d="M0 0 C1.67 0.06 1.67 0.06 3.38 0.12 C3.38 0.46 3.38 0.79 3.38 1.12 C0.38 2.12 -2.62 3.12 -5.62 4.12 C-5.95 5.12 -6.28 6.11 -6.62 7.12 C-5.84 2.16 -5.49 0.19 0 0 Z " fill="#DDE3E5" transform="translate(121.625,11.875)"/>
<path d="M0 0 C1.32 0.33 2.64 0.66 4 1 C1.42 3.65 -0.92 5.94 -4 8 C-2.67 5.33 -1.33 2.67 0 0 Z " fill="#6B7578" transform="translate(179,245)"/>
<path d="M0 0 C1.65 0.99 3.3 1.98 5 3 C4.01 3.5 4.01 3.5 3 4 C3 4.66 3 5.32 3 6 C1.68 5.34 0.36 4.68 -1 4 C-0.67 2.68 -0.34 1.36 0 0 Z " fill="#262C32" transform="translate(114,230)"/>
<path d="M0 0 C5.75 1.75 5.75 1.75 8 4 C7.01 4.66 6.02 5.32 5 6 C3.35 4.02 1.7 2.04 0 0 Z " fill="#B0B8BA" transform="translate(145,123)"/>
<path d="M0 0 C4.45 0.99 4.45 0.99 9 2 C5 3 5 3 2 3 C1.34 3.66 0.68 4.32 0 5 C-0.33 4.01 -0.66 3.02 -1 2 C-0.67 1.34 -0.34 0.68 0 0 Z " fill="#3D4548" transform="translate(78,102)"/>
<path d="M0 0 C2.94 0.38 2.94 0.38 6 1 C6.33 1.66 6.66 2.32 7 3 C4.36 3 1.72 3 -1 3 C-0.67 2.01 -0.34 1.02 0 0 Z " fill="#B9D0CE" transform="translate(127,1)"/>
<path d="M0 0 C1.99 2.99 2.94 5.6 4 9 C2.68 8.67 1.36 8.34 0 8 C0 5.36 0 2.72 0 0 Z " fill="#393F45" transform="translate(183,112)"/>
</svg>
