<?xml version="1.0" encoding="UTF-8"?>
<!-- Generator: https://ezgif.com/png-to-svg -->
<svg version="1.1" xmlns="http://www.w3.org/2000/svg" width="512" height="512" viewBox="-21.282 -16.439 220.364 220.364" preserveAspectRatio="xMidYMid meet">
<path d="M0 0 C0.03 1.13 0.05 2.26 0.08 3.43 C0.55 18.14 2.64 32.49 5 47 C7.64 43.58 9.66 40.07 11.69 36.25 C12.01 35.65 12.33 35.05 12.66 34.43 C13.44 32.95 14.22 31.48 15 30 C37.59 30.99 37.59 30.99 48 32 C47.33 35.91 45.46 38.87 43.44 42.25 C42.8 43.33 42.16 44.41 41.5 45.52 C41 46.34 40.51 47.16 40 48 C40.55 48.11 41.1 48.23 41.67 48.34 C83.37 57.22 121.68 82.83 148 116 C149.52 117.9 151.04 119.79 152.56 121.69 C153.71 123.12 154.86 124.56 156 126 C155.67 126.66 155.34 127.32 155 128 C154.44 127.47 153.88 126.93 153.3 126.38 C118.97 94.48 66.57 76.83 20 78 C30.45 91.34 42.34 102.85 55.81 113.12 C56.53 113.67 57.24 114.22 57.97 114.78 C66.43 121.17 75.2 127.11 84 133 C80.63 134.12 80.15 133.94 77 132.7 C76.21 132.39 75.41 132.07 74.59 131.75 C73.74 131.4 72.88 131.05 72 130.69 C70.67 130.14 70.67 130.14 69.31 129.59 C49.2 121.19 30.69 110.23 15 95 C14.32 94.38 13.64 93.76 12.94 93.12 C-1.12 79.95 -8.94 62.54 -13 44 C-13.32 42.56 -13.32 42.56 -13.65 41.09 C-14.24 38.07 -14.64 35.06 -15 32 C-15.1 31.22 -15.2 30.45 -15.3 29.65 C-17.2 14.12 -17.2 14.12 -14.49 9.34 C-12.42 7.55 -10.4 6.29 -8 5 C-6.85 4.05 -5.73 3.07 -4.62 2.06 C-2 0 -2 0 0 0 Z " fill="#FF0000" transform="translate(16,58)"/>
<path d="M0 0 C0.8 0.25 1.6 0.5 2.43 0.76 C4.67 1.75 5.92 2.85 7.52 4.68 C6.41 4.84 5.31 5 4.18 5.16 C-24.88 9.54 -54.84 20.65 -73.48 44.68 C-73.98 45.67 -73.98 45.67 -74.48 46.68 C-73.93 46.79 -73.37 46.9 -72.8 47.02 C-67.45 48.13 -62.55 49.66 -57.48 51.68 C-59.97 56.05 -62.86 59.48 -66.29 63.12 C-68.58 65.65 -68.58 65.65 -70.3 68.75 C-72.47 72.18 -74.14 74.36 -77.48 76.68 C-84.07 77.99 -90.93 76.63 -97.48 75.68 C-99.1 75.49 -100.72 75.31 -102.34 75.13 C-106.06 74.71 -109.77 74.22 -113.48 73.68 C-102.12 49.53 -86.29 26.35 -63.48 11.68 C-61.48 10.35 -59.48 9.02 -57.48 7.68 C-89.57 15.31 -118.47 28.28 -142.66 51.04 C-144.48 52.68 -144.48 52.68 -146.48 53.68 C-146.63 44.11 -146.42 34.56 -146.11 25 C-146.08 23.85 -146.05 22.7 -146.02 21.52 C-145.98 20.44 -145.94 19.35 -145.9 18.23 C-145.87 17.26 -145.84 16.29 -145.8 15.29 C-145.47 12.57 -145.03 10.94 -143.48 8.68 C-141.74 7.59 -141.74 7.59 -139.62 6.75 C-138.82 6.44 -138.03 6.12 -137.22 5.79 C-136.36 5.47 -135.5 5.14 -134.61 4.81 C-133.71 4.46 -132.82 4.12 -131.89 3.76 C-88.46 -12.66 -44.27 -13.95 0 0 Z " fill="#FFFFFF" transform="translate(146.484375,9.31640625)"/>
<path d="M0 0 C0.86 0.11 1.73 0.22 2.62 0.34 C3.26 0.43 3.9 0.53 4.56 0.62 C4.56 1.61 4.56 2.61 4.56 3.62 C2.57 5.18 0.61 6.56 -1.5 7.94 C-9.93 13.7 -17.2 20.45 -24.44 27.62 C-25.25 28.42 -26.06 29.22 -26.89 30.04 C-32.12 35.52 -36.45 41.64 -40.81 47.81 C-41.42 48.67 -42.03 49.52 -42.65 50.41 C-45.85 55.01 -48.46 59.37 -50.44 64.62 C-49.84 65.03 -49.25 65.43 -48.64 65.84 C-37.42 73.53 -27.36 82.36 -17.44 91.62 C-16.64 90.09 -15.85 88.54 -15.06 87 C-14.62 86.14 -14.18 85.28 -13.73 84.4 C-12.15 81.15 -12.15 81.15 -10.44 75.62 C-5.49 76.61 -0.54 77.61 4.56 78.62 C1.64 92.37 -3.72 104.87 -11.44 116.62 C-14.97 114.61 -18.21 112.36 -21.45 109.91 C-42.57 93.97 -64.89 84.4 -90.44 77.62 C-90.44 72.83 -88.75 70.79 -86 67.12 C-85.32 66.2 -85.32 66.2 -84.63 65.26 C-83.69 63.99 -82.75 62.73 -81.81 61.46 C-80.55 59.77 -79.3 58.06 -78.05 56.36 C-71.88 47.97 -65.52 40.14 -57.54 33.42 C-56.09 32.19 -54.69 30.92 -53.31 29.61 C-43.26 20.14 -31.79 12.33 -19.81 5.5 C-18.86 4.95 -18.86 4.95 -17.88 4.39 C-12.04 1.17 -6.7 -0.92 0 0 Z " fill="#FF0000" transform="translate(159.4375,25.375)"/>
<path d="M0 0 C0.05 7.21 0.09 14.42 0.11 21.62 C0.12 24.08 0.13 26.53 0.15 28.98 C0.18 32.51 0.19 36.03 0.2 39.55 C0.21 40.65 0.22 41.75 0.23 42.88 C0.23 44.42 0.23 44.42 0.23 45.98 C0.23 46.88 0.24 47.78 0.24 48.7 C0 51 0 51 -2 54 C-6.29 51.69 -10.58 49.38 -15 47 C-15 42.05 -15 37.1 -15 32 C-21.29 33 -26.41 33.85 -32 37 C-32.66 37 -33.32 37 -34 37 C-32.54 32.71 -30.27 29.4 -27.5 25.88 C-27.06 25.32 -26.63 24.76 -26.18 24.18 C-21.75 18.57 -17.16 12.95 -12 8 C-11.34 8 -10.68 8 -10 8 C-10 7.34 -10 6.68 -10 6 C-8.32 4.49 -8.32 4.49 -6.12 2.88 C-5.41 2.34 -4.69 1.8 -3.95 1.24 C-2 0 -2 0 0 0 Z " fill="#FF0000" transform="translate(167,38)"/>
<path d="M0 0 C-1.64 3.29 -5.26 4.07 -8.5 5.5 C-27.35 14.14 -44.27 25.27 -59 40 C-64.46 39.55 -68.93 38.04 -74 36 C-74 35.01 -74 34.02 -74 33 C-71.61 31.01 -69.25 29.25 -66.69 27.5 C-65.54 26.71 -65.54 26.71 -64.37 25.9 C-45.87 13.32 -23.28 -1.01 0 0 Z " fill="#FF0000" transform="translate(153,18)"/>
<path d="M0 0 C7.75 2.38 14.97 5.57 22.31 9 C22.92 9.28 23.53 9.57 24.16 9.86 C35.38 15.08 46.27 20.83 57 27 C56.67 27.66 56.34 28.32 56 29 C54.98 28.7 53.96 28.4 52.91 28.09 C40.02 24.38 26.99 21.48 13.88 18.69 C11.74 18.23 9.61 17.77 7.47 17.31 C2.32 16.2 -2.84 15.1 -8 14 C-6.61 10.4 -5.06 7.38 -2.88 4.19 C-2.07 3 -2.07 3 -1.24 1.79 C-0.83 1.2 -0.42 0.61 0 0 Z " fill="#FFFFFF" transform="translate(122,76)"/>
<path d="M0 0 C0.73 0.26 1.46 0.51 2.21 0.78 C2.21 4.78 2.21 4.78 0.9 6.47 C-0.01 7.29 -0.01 7.29 -0.93 8.12 C-1.92 9.03 -1.92 9.03 -2.93 9.96 C-3.62 10.58 -4.32 11.2 -5.04 11.84 C-5.72 12.46 -6.4 13.09 -7.11 13.73 C-13.69 19.72 -13.69 19.72 -16.79 21.78 C-19.49 21.52 -21.37 20.99 -23.79 19.78 C-23.79 19.12 -23.79 18.46 -23.79 17.78 C-22.21 16.55 -20.57 15.4 -18.91 14.28 C-13.61 10.57 -9.37 6.42 -5.08 1.59 C-2.79 -0.22 -2.79 -0.22 0 0 Z " fill="#FF0000" transform="translate(125.7890625,163.22265625)"/>
<path d="M0 0 C1.98 0.66 3.96 1.32 6 2 C3.94 8.47 -0.94 11.78 -6 16 C-6.66 16.57 -7.32 17.14 -8 17.73 C-11.02 20.14 -12.52 21.03 -16.44 20.81 C-17.28 20.54 -18.13 20.28 -19 20 C-19 19.01 -19 18.02 -19 17 C-17.57 15.68 -17.57 15.68 -15.56 14.31 C-9.84 10.23 -3.92 5.89 0 0 Z " fill="#FF0000" transform="translate(114,159)"/>
</svg>
