<?xml version="1.0" encoding="UTF-8"?>
<!-- Generator: https://ezgif.com/png-to-svg -->
<svg version="1.1" xmlns="http://www.w3.org/2000/svg" width="512" height="512" viewBox="-48.017 -195.932 896.325 896.325" preserveAspectRatio="xMidYMid meet">
<path d="M0 0 C1.32 0 2.64 0 4 0 C4.03 2.38 4.05 4.75 4.06 7.12 C4.07 7.79 4.08 8.46 4.09 9.14 C4.11 13.21 3.79 17.01 3 21 C3.99 21 4.98 21 6 21 C8.69 29.49 7.22 40.31 6 49 C7.65 49 9.3 49 11 49 C14.29 55.44 14.22 59.08 12.03 66.11 C11.05 69.09 10.04 72.05 9 75 C9.99 75.66 10.98 76.32 12 77 C13.86 70.37 15.56 63.74 17 57 C19.31 56.81 19.31 56.81 22 57 C23.63 58.5 23.63 58.5 25 60 C25.99 60 26.98 60 28 60 C28 61.65 28 63.3 28 65 C29.32 64.67 30.64 64.34 32 64 C31.67 66.97 31.34 69.94 31 73 C31.66 73 32.32 73 33 73 C32.48 79.66 30.66 85.19 28.19 91.38 C27.84 92.26 27.5 93.14 27.15 94.05 C25.14 99.17 23.09 104.28 21.04 109.38 C19.09 114.29 17.17 119.21 15.25 124.12 C14.84 125.18 14.43 126.23 14 127.31 C13 129.87 12 132.44 11 135 C12.65 134.67 14.3 134.34 16 134 C15.4 139.69 13.9 144.64 11.94 150 C11.3 151.77 10.67 153.54 10.04 155.32 C9.7 156.24 9.37 157.17 9.03 158.12 C7.62 162.05 6.26 166.01 4.9 169.96 C2.51 176.89 0.13 183.81 -2.56 190.62 C-5.15 197.19 -7.33 203.87 -9.5 210.58 C-11.11 215.51 -12.94 220.23 -15 225 C-16.26 228.42 -17.44 231.87 -18.62 235.31 C-18.97 236.3 -19.31 237.29 -19.66 238.3 C-20.77 241.54 -21.89 244.77 -23 248 C-24.21 251.5 -25.42 255.01 -26.63 258.51 C-27.4 260.75 -28.17 262.98 -28.94 265.22 C-30.67 270.22 -32.42 275.19 -34.3 280.14 C-35.54 283.45 -36.71 286.79 -37.88 290.12 C-38.4 291.63 -38.93 293.13 -39.46 294.63 C-39.72 295.37 -39.98 296.11 -40.25 296.87 C-43.05 304.82 -45.89 312.74 -48.88 320.62 C-53.59 333.1 -58.01 345.7 -62.08 358.39 C-62.77 360.36 -63.57 362.3 -64.41 364.21 C-66.34 368.64 -67.77 373.22 -69.25 377.81 C-71.48 384.62 -73.84 391.34 -76.5 398 C-79.81 406.3 -82.64 414.73 -85.42 423.23 C-87.16 428.53 -89.04 433.77 -91 439 C-89.8 438.87 -88.61 438.75 -87.37 438.62 C-72.44 437.09 -57.49 436.2 -42.5 435.44 C-41.24 435.37 -39.99 435.31 -38.69 435.24 C-21.18 434.34 -3.67 433.54 13.87 433.2 C15.51 433.17 17.16 433.14 18.81 433.1 C20.09 433.08 20.09 433.08 21.4 433.05 C23.95 433 26.49 432.95 29.04 432.89 C79.79 431.82 130.55 431.49 181.31 431.04 C193.95 430.93 206.6 430.81 219.25 430.7 C245.17 430.46 271.08 430.23 297 430 C296.45 429.73 295.91 429.47 295.35 429.19 C294.27 428.66 294.27 428.66 293.17 428.12 C292.46 427.77 291.75 427.42 291.02 427.06 C281.13 421.85 274.81 412.34 270.91 402.14 C265.92 385.78 272.12 370.35 278 355 C280.93 347.26 283.44 339.45 285.75 331.5 C286.46 329.07 287.18 326.64 287.89 324.21 C288.25 322.99 288.6 321.77 288.97 320.52 C294.5 301.61 300.18 282.74 305.88 263.88 C306.22 262.72 306.57 261.56 306.93 260.36 C310.3 249.23 313.66 238.1 317.05 226.98 C317.91 224.15 318.77 221.33 319.62 218.5 C319.93 217.51 319.93 217.51 320.23 216.5 C322.86 207.87 325.38 199.23 327.81 190.55 C330.05 182.66 332.56 174.85 335.11 167.05 C337.59 159.42 339.82 151.72 342 144 C343.32 139.4 344.65 134.79 345.98 130.19 C346.37 128.85 346.76 127.5 347.15 126.15 C349.1 119.38 351.07 112.63 353.34 105.95 C354.43 102.73 355.37 99.46 356.31 96.19 C356.75 94.68 357.19 93.17 357.63 91.67 C357.86 90.9 358.08 90.12 358.32 89.33 C360.19 82.94 362.12 76.56 364.04 70.19 C364.75 67.83 365.46 65.48 366.16 63.13 C367.24 59.54 368.32 55.95 369.41 52.36 C369.84 50.94 370.26 49.52 370.69 48.09 C373.62 38.33 376.73 28.65 380 19 C376.04 19 372.08 19 368 19 C368 16.03 368 13.06 368 10 C370.02 9.94 370.02 9.94 372.09 9.89 C383.29 9.52 394.42 8.85 405.57 7.76 C454.22 3.04 503.13 2.93 551.97 2.88 C554.08 2.88 556.19 2.87 558.3 2.87 C577.56 2.83 596.76 3.23 616 4 C616.29 11.69 616.29 11.69 613.69 14.5 C611 16 611 16 608 16 C609.32 16.33 610.64 16.66 612 17 C610.62 23.39 610.62 23.39 607.31 26.62 C606.55 27.41 605.79 28.19 605 29 C605.26 31.48 605.26 31.48 606 34 C605.06 37.31 605.06 37.31 604 40 C602.35 40 600.7 40 599 40 C599 41.65 599 43.3 599 45 C600.65 45 602.3 45 604 45 C605.48 47.96 605.06 50.74 605 54 C602.92 54.03 600.83 54.05 598.75 54.06 C597.01 54.08 597.01 54.08 595.23 54.1 C592.59 54.02 590.5 53.79 588 53 C588 53.99 588 54.98 588 56 C588.66 55.67 589.32 55.34 590 55 C592.04 54.93 594.08 54.92 596.12 54.94 C597.22 54.95 598.32 54.96 599.45 54.96 C600.29 54.98 601.13 54.99 602 55 C602 57.64 602 60.28 602 63 C597.21 64.39 592.85 63.69 588 63 C587.94 63.78 587.88 64.57 587.81 65.38 C587 68 587 68 584.88 69.38 C582 70 582 70 578.88 69.55 C574.56 68.94 570.41 68.85 566.06 68.88 C565.3 68.87 564.54 68.87 563.76 68.86 C562.63 68.87 562.63 68.87 561.47 68.87 C560.81 68.87 560.14 68.87 559.45 68.87 C556.78 68.98 556.78 68.98 553.25 69.51 C548.98 70.06 544.83 70.08 540.53 69.99 C538.9 69.97 537.27 69.95 535.65 69.94 C534.8 69.92 533.96 69.91 533.1 69.9 C516.31 69.72 499.98 70.3 483.44 73.49 C473.29 75.37 463.04 75.89 452.75 76.56 C449.92 76.75 447.08 76.94 444.25 77.13 C442.5 77.25 440.75 77.37 439 77.48 C433.97 77.82 429 78.33 424 79 C423.34 81.64 422.68 84.28 422 87 C423.32 87 424.64 87 426 87 C426.57 95.06 424.95 101.67 422.5 109.31 C421.76 111.71 421.02 114.1 420.29 116.5 C419.91 117.73 419.52 118.96 419.13 120.23 C417.28 126.39 415.61 132.6 413.94 138.81 C411.64 147.26 409.23 155.62 406.5 163.94 C403.21 173.96 400.49 184.11 397.84 194.31 C396.03 201.26 394.08 208.14 391.94 214.99 C390.59 219.31 389.35 223.65 388.12 228 C387.74 229.34 387.74 229.34 387.36 230.7 C386.32 234.34 385.29 237.98 384.26 241.63 C381.14 252.65 377.94 263.64 374.54 274.57 C372.55 281 370.8 287.47 369.08 293.97 C367.18 301.11 365.11 308.21 363.06 315.31 C362.17 318.4 361.29 321.5 360.4 324.59 C360.19 325.33 359.98 326.07 359.76 326.84 C357.84 333.55 355.97 340.28 354.13 347.02 C352.51 352.71 350.74 358.35 349 364 C365.17 364 381.34 364 398 364 C398.66 360.7 399.32 357.4 400 354 C400.74 351.3 401.51 348.62 402.31 345.94 C404.34 338.85 405.96 331.73 407.38 324.5 C407.58 323.47 407.78 322.45 407.98 321.39 C408.66 317.93 409.33 314.46 410 311 C411 305.83 412.02 300.65 413.05 295.49 C413.35 294.02 413.63 292.55 413.92 291.08 C418.61 266.75 429.53 247.1 450.25 232.75 C459.46 227.94 470.07 226.23 480.25 224.88 C481.32 224.72 482.38 224.56 483.48 224.4 C504.65 221.46 526.04 220.59 547.38 219.88 C548.58 219.83 549.79 219.79 551.03 219.75 C571.03 219.05 590.99 218.73 611 219 C610.36 221.57 609.72 224.14 609.09 226.7 C608.82 227.79 608.82 227.79 608.54 228.9 C605.13 242.58 605.13 242.58 598 247 C594.18 251.3 591.83 256.14 590 261.56 C589.63 262.63 589.63 262.63 589.24 263.73 C586.86 270.85 585.26 278.14 583.82 285.51 C582.45 292.21 580.56 296.29 575.81 301.31 C571.45 303.93 566.68 304.55 561.68 303.53 C547.54 300.75 532.29 303.92 519.17 309.23 C517 310 517 310 514 310 C515.67 303.33 517.33 296.67 519 290 C518.01 290.33 517.02 290.66 516 291 C505.35 292.04 494.69 292.13 484 292 C483.9 292.62 483.8 293.24 483.7 293.88 C482.8 299.24 481.65 304.47 480.21 309.72 C477.99 317.9 475.99 326.13 474 334.37 C469.35 353.6 464.58 372.81 459.76 392 C458.71 396.18 457.66 400.36 456.63 404.54 C456.4 405.46 456.18 406.38 455.94 407.32 C455.5 409.1 455.06 410.88 454.63 412.66 C454.43 413.46 454.23 414.26 454.03 415.09 C453.85 415.8 453.68 416.5 453.5 417.23 C453 419 453 419 452 421 C452.59 420.97 453.18 420.94 453.79 420.91 C465.96 420.3 478.13 419.88 490.31 419.81 C491.43 419.8 492.55 419.79 493.71 419.77 C494.75 419.77 495.79 419.77 496.86 419.77 C497.78 419.77 498.7 419.76 499.65 419.76 C502 420 502 420 505 422 C505.44 424.44 505.44 424.44 505 427 C498.87 433.71 482.77 431.89 474.38 432.28 C472.43 432.37 470.49 432.44 468.54 432.52 C466.94 432.58 466.94 432.58 465.3 432.65 C452.39 433.13 439.48 433.36 426.56 433.56 C424.65 433.59 424.65 433.59 422.71 433.63 C386.77 434.21 350.93 433.85 315 433 C315 433.99 315 434.98 315 436 C314.34 436.33 313.68 436.66 313 437 C313.62 437.07 314.25 437.14 314.89 437.21 C347.83 440.99 347.83 440.99 355.86 448.44 C357.27 450.37 357.83 451.6 358 454 C356.9 456.08 356.9 456.08 355 458 C352.15 458.59 352.15 458.59 348.72 458.72 C347.46 458.77 346.2 458.83 344.91 458.88 C343.62 458.92 342.33 458.96 341 459 C339.82 459.05 338.64 459.1 337.43 459.15 C333.79 459.3 330.15 459.42 326.51 459.54 C325.2 459.58 323.88 459.62 322.53 459.67 C319.1 459.78 315.66 459.89 312.22 460 C308.7 460.11 305.17 460.22 301.64 460.34 C294.76 460.56 287.88 460.78 281 461 C288.83 461.81 296.62 462.22 304.49 462.43 C306.85 462.5 309.21 462.58 311.56 462.65 C315.24 462.77 318.91 462.88 322.58 462.97 C326.16 463.07 329.73 463.19 333.3 463.3 C334.4 463.33 335.5 463.35 336.63 463.38 C337.66 463.42 338.69 463.45 339.74 463.49 C340.64 463.52 341.54 463.54 342.46 463.57 C345.5 464.08 347.47 465.29 350 467 C349.69 469.88 349.69 469.88 349 473 C348.01 473.66 347.02 474.32 346 475 C345.67 475.99 345.34 476.98 345 478 C349.42 478.03 353.83 478.05 358.25 478.06 C359.48 478.07 360.72 478.08 361.99 478.09 C368.87 478.11 375.6 477.89 382.43 477.12 C386.28 476.94 389.35 477.81 393 479 C393.12 481.37 393.12 481.37 393 484 C392.34 484.66 391.68 485.32 391 486 C394.13 487.56 397.46 487.14 400.9 487.13 C401.71 487.13 402.53 487.13 403.37 487.13 C406.09 487.14 408.81 487.14 411.52 487.13 C413.42 487.13 415.32 487.13 417.22 487.14 C421.22 487.14 425.22 487.14 429.22 487.13 C434.29 487.12 439.36 487.13 444.43 487.13 C448.37 487.14 452.3 487.14 456.24 487.13 C458.11 487.13 459.97 487.13 461.83 487.14 C464.48 487.14 467.13 487.14 469.77 487.13 C470.62 487.13 471.46 487.13 472.33 487.13 C476.76 487.11 481.15 486.94 485.57 486.59 C486.48 486.53 487.39 486.46 488.33 486.39 C490.06 486.25 491.79 486.09 493.51 485.91 C497.88 485.57 499.38 485.51 502.95 488.32 C508 494.92 508 494.92 508 498 C507.23 498 506.47 498 505.68 497.99 C485.87 497.95 466.06 498.08 446.25 498.34 C442.31 498.39 438.37 498.44 434.43 498.49 C427.62 498.57 420.8 498.65 413.99 498.74 C396.5 498.96 379.01 499.18 361.52 499.39 C358.61 499.43 355.71 499.46 352.81 499.5 C323.5 499.86 294.19 500.19 264.88 500.51 C261.82 500.54 258.76 500.58 255.69 500.61 C237.9 500.8 220.1 501 202.31 501.18 C164.21 501.58 126.11 502.02 88.02 502.83 C72.35 503.17 56.67 503.38 41 503.56 C40.11 503.57 39.23 503.58 38.31 503.59 C-35.79 504.46 -109.9 504.09 -184 504 C-182.94 496.33 -182.94 496.33 -181.72 492.57 C-181.46 491.77 -181.2 490.97 -180.93 490.14 C-180.51 488.86 -180.51 488.86 -180.08 487.55 C-179.78 486.64 -179.49 485.73 -179.18 484.79 C-178.21 481.82 -177.23 478.85 -176.25 475.88 C-175.57 473.81 -174.89 471.74 -174.21 469.67 C-168.72 452.96 -162.93 436.37 -157.05 419.81 C-155.04 414.15 -153.12 408.46 -151.25 402.75 C-148.45 394.21 -145.42 385.77 -142.35 377.33 C-139.55 369.62 -136.91 361.87 -134.38 354.07 C-133.08 350.07 -131.69 346.15 -130.1 342.25 C-127.58 336.05 -125.4 329.75 -123.19 323.44 C-117.08 306.08 -110.74 288.8 -104.39 271.53 C-102.87 267.38 -101.36 263.24 -99.86 259.09 C-97.71 253.15 -95.41 247.26 -93.12 241.38 C-90.27 233.99 -87.45 226.61 -84.88 219.12 C-82.79 213.07 -80.48 207.12 -78.06 201.19 C-74.98 193.61 -72.17 185.97 -69.51 178.24 C-65.8 167.49 -61.84 156.87 -57.42 146.39 C-53.05 135.93 -48.78 125.41 -44.98 114.73 C-41.42 104.81 -37.62 94.97 -33.88 85.12 C-33.55 84.27 -33.23 83.41 -32.89 82.53 C-30.66 76.66 -28.35 70.83 -26 65 C-21.95 54.95 -17.94 44.89 -14.12 34.75 C-9.72 23.04 -4.87 11.52 0 0 Z M5 50 C6 54 6 54 6 54 Z M4 55 C5 57 5 57 5 57 Z M26 66 C27 69 27 69 27 69 Z M25 69 C24.13 71.25 23.28 73.5 22.44 75.75 C22.19 76.38 21.94 77.02 21.69 77.67 C20.42 81.11 19.53 83.52 21 87 C21.84 84.94 22.67 82.88 23.5 80.81 C23.96 79.66 24.43 78.52 24.91 77.33 C25.91 74.28 26.24 72.17 26 69 C25.67 69 25.34 69 25 69 Z M19 87 C18.48 88.07 17.97 89.14 17.44 90.25 C17.15 90.85 16.86 91.46 16.56 92.08 C15.88 94.4 16.24 95.73 17 98 C17.53 96.73 18.05 95.46 18.56 94.19 C18.85 93.48 19.14 92.77 19.44 92.04 C20.25 89.83 20.25 89.83 19 87 Z M15 98 C13.46 101.93 11.95 105.87 10.44 109.81 C10 110.93 9.56 112.05 9.11 113.21 C8.7 114.28 8.29 115.35 7.87 116.46 C7.49 117.45 7.11 118.44 6.71 119.46 C5.72 122.09 5.72 122.09 7 125 C8.13 122.19 9.26 119.38 10.38 116.56 C10.69 115.78 11.01 115 11.34 114.19 C13.45 108.84 14.88 103.64 16 98 C15.67 98 15.34 98 15 98 Z M5 125 C4.67 126.32 4.34 127.64 4 129 C4.66 129 5.32 129 6 129 C5.67 127.68 5.34 126.36 5 125 Z M7 142 C8 144 8 144 8 144 Z " fill="#FFFFFF" transform="translate(184,0)"/>
<path d="M0 0 C-1.24 6.9 -2.95 13.51 -5.06 20.19 C-7.93 29.43 -10.69 38.7 -13.38 48 C-13.76 49.32 -14.14 50.64 -14.52 51.95 C-16.07 57.3 -17.61 62.64 -19.15 67.99 C-20.29 71.93 -21.42 75.87 -22.56 79.81 C-22.75 80.46 -22.94 81.1 -23.13 81.77 C-26.01 91.74 -29.03 101.66 -32.12 111.57 C-34.72 119.96 -37.09 128.41 -39.43 136.89 C-41.3 143.65 -43.33 150.33 -45.5 157 C-48.25 165.49 -50.73 174.03 -53.09 182.63 C-55.77 192.29 -58.62 201.9 -61.5 211.5 C-65.05 223.37 -68.54 235.25 -71.81 247.2 C-73.18 252.21 -74.67 257.15 -76.38 262.06 C-77.21 264.67 -77.65 267.29 -78 270 C-80.25 270.25 -80.25 270.25 -83 270 C-85.17 267.98 -85.17 267.98 -87 266 C-87.44 266.97 -87.87 267.93 -88.32 268.93 C-100.02 294.62 -100.02 294.62 -110 299 C-113.31 298.69 -113.31 298.69 -116 298 C-117.43 294.17 -116.55 291.54 -115.44 287.69 C-115.06 286.35 -114.68 285.01 -114.31 283.67 C-114 282.56 -114 282.56 -113.68 281.43 C-112.39 276.8 -111.2 272.15 -110 267.5 C-103.06 240.86 -103.06 240.86 -100 231 C-100.33 230.67 -100.66 230.34 -101 230 C-101.24 231.26 -101.48 232.51 -101.73 233.81 C-103 239.47 -105.07 244.7 -107.25 250.06 C-108.06 252.09 -108.87 254.12 -109.68 256.15 C-110.07 257.14 -110.47 258.13 -110.87 259.15 C-112.93 264.35 -114.87 269.58 -116.81 274.82 C-120.31 284.18 -120.31 284.18 -123 286 C-126.06 286.38 -126.06 286.38 -129 286 C-131 283 -131 283 -131 280 C-133.75 282.36 -134.67 284.38 -135.68 287.83 C-135.97 288.79 -136.26 289.75 -136.55 290.73 C-136.99 292.26 -136.99 292.26 -137.44 293.81 C-137.74 294.84 -138.05 295.87 -138.36 296.94 C-139.25 299.95 -140.13 302.98 -141 306 C-141.23 306.81 -141.47 307.62 -141.71 308.45 C-142.83 312.3 -143.92 316.14 -145 320 C-146.32 320 -147.64 320 -149 320 C-150.75 317.5 -150.75 317.5 -152 315 C-153.98 320 -155.68 325.06 -157.28 330.19 C-157.5 330.89 -157.72 331.58 -157.94 332.3 C-160.24 339.71 -162.43 347.15 -164.62 354.59 C-168.44 367.55 -172.33 380.46 -176.54 393.29 C-177.87 397.36 -179.12 401.39 -180.07 405.57 C-181 409 -181 409 -183.31 410.56 C-186.21 411.03 -188.17 410.64 -191 410 C-191.68 400.91 -189.71 393.42 -186.94 384.81 C-186.52 383.48 -186.1 382.14 -185.69 380.81 C-184.86 378.12 -184.02 375.44 -183.17 372.76 C-181.56 367.59 -180.06 362.39 -178.56 357.19 C-175.82 347.73 -172.99 338.3 -170.12 328.88 C-169.91 328.17 -169.7 327.47 -169.48 326.75 C-169.05 325.32 -168.61 323.9 -168.18 322.48 C-167.97 321.78 -167.76 321.08 -167.54 320.35 C-167.32 319.65 -167.11 318.95 -166.89 318.22 C-160.75 298.01 -154.73 277.76 -148.72 257.51 C-148.49 256.75 -148.27 255.99 -148.04 255.21 C-147.62 253.81 -147.2 252.41 -146.79 251.01 C-145.2 245.67 -143.6 240.33 -142 235 C-183.91 234.67 -225.82 234.34 -269 234 C-269.99 236.97 -270.98 239.94 -272 243 C-275.68 253.92 -279.61 264.69 -283.95 275.36 C-286.79 282.37 -289.37 289.45 -291.93 296.57 C-294.37 303.36 -296.97 310.09 -299.62 316.81 C-302.23 323.4 -304.76 329.99 -307.06 336.69 C-309.47 343.69 -312.18 350.54 -314.96 357.4 C-317.61 363.95 -320.09 370.55 -322.48 377.21 C-324.37 382.44 -326.46 387.57 -328.62 392.7 C-329.84 395.63 -331.05 398.56 -332.24 401.51 C-333.27 404.05 -334.3 406.59 -335.34 409.13 C-335.87 410.43 -336.4 411.74 -336.92 413.04 C-337.69 414.96 -338.47 416.87 -339.26 418.79 C-339.94 420.47 -339.94 420.47 -340.64 422.19 C-341.87 424.73 -342.86 426.21 -345 428 C-345.99 427.67 -346.98 427.34 -348 427 C-348.26 418.76 -347.61 411.09 -346 403 C-346.66 404.65 -347.32 406.3 -348 408 C-349.32 407.67 -350.64 407.34 -352 407 C-354.27 398.93 -352.78 390.21 -352 382 C-352.8 381.7 -353.59 381.41 -354.41 381.11 C-357 380 -357 380 -358.38 378.31 C-360.08 372 -356.93 365.03 -355 359 C-355.99 358.67 -356.98 358.34 -358 358 C-358.24 358.86 -358.48 359.72 -358.73 360.61 C-361.05 368.77 -363.47 376.9 -366 385 C-367.65 385 -369.3 385 -371 385 C-370.48 380.62 -369.94 376.31 -369 372 C-372.51 370.31 -372.51 370.31 -376.31 370.38 C-376.87 370.58 -377.43 370.79 -378 371 C-379.27 368.45 -378.8 367.57 -378.06 364.88 C-377.87 364.15 -377.67 363.43 -377.47 362.68 C-377.32 362.13 -377.16 361.57 -377 361 C-377.99 360.34 -378.98 359.68 -380 359 C-379.36 353.9 -377.83 349.5 -375.98 344.74 C-375.68 343.96 -375.38 343.17 -375.07 342.37 C-374.12 339.87 -373.15 337.37 -372.19 334.88 C-370.93 331.6 -369.67 328.33 -368.42 325.05 C-367.97 323.88 -367.97 323.88 -367.51 322.68 C-365.16 316.51 -363 310.29 -361 304 C-362.32 304.33 -363.64 304.66 -365 305 C-364.62 301.26 -363.73 298.2 -362.16 294.82 C-360.15 290.4 -358.41 285.93 -356.75 281.38 C-356.46 280.57 -356.16 279.77 -355.86 278.94 C-353.1 271.37 -350.47 263.75 -347.84 256.13 C-346.13 251.18 -344.37 246.25 -342.44 241.38 C-339.89 234.9 -337.73 228.3 -335.59 221.68 C-333.88 216.46 -331.99 211.35 -329.91 206.26 C-328.75 203.39 -327.71 200.49 -326.69 197.56 C-324.75 192.09 -322.77 186.63 -320.75 181.19 C-317.94 173.6 -315.18 165.99 -312.44 158.38 C-311.91 156.91 -311.91 156.91 -311.37 155.42 C-309.56 150.37 -307.76 145.32 -305.98 140.26 C-301.56 127.7 -297.01 115.18 -292.46 102.66 C-288.36 91.37 -284.31 80.07 -280.36 68.73 C-278.23 62.62 -276 56.55 -273.69 50.5 C-271.14 43.8 -268.66 37.08 -266.27 30.32 C-266.05 29.68 -265.82 29.04 -265.59 28.37 C-264.47 25.22 -263.37 22.07 -262.27 18.91 C-261.88 17.78 -261.48 16.64 -261.07 15.48 C-260.72 14.47 -260.36 13.46 -260 12.42 C-259 10 -259 10 -257 8 C-254.77 7.7 -254.77 7.7 -251.92 7.63 C-250.84 7.6 -249.77 7.57 -248.66 7.53 C-247.46 7.51 -246.27 7.48 -245.05 7.46 C-243.12 7.4 -241.19 7.35 -239.27 7.3 C-237.18 7.24 -235.09 7.19 -233.01 7.14 C-228.57 7.04 -224.14 6.92 -219.71 6.79 C-218.17 6.75 -216.63 6.71 -215.1 6.67 C-213.94 6.63 -213.94 6.63 -212.76 6.6 C-210.37 6.53 -207.98 6.47 -205.59 6.41 C-188.96 5.96 -172.34 5.4 -155.71 4.83 C-151.73 4.69 -147.74 4.56 -143.76 4.42 C-132.48 4.04 -121.19 3.66 -109.9 3.27 C-98.63 2.89 -87.36 2.5 -76.08 2.12 C-75.32 2.1 -74.55 2.07 -73.76 2.04 C-13.21 0 -13.21 0 0 0 Z M-101.42 72.08 C-102.2 72.08 -102.98 72.09 -103.79 72.1 C-111.1 72.18 -118.41 72.26 -125.72 72.34 C-130.62 72.39 -135.51 72.45 -140.4 72.5 C-163.61 72.74 -186.8 73.1 -210 74 C-213 82.22 -215.99 90.43 -218.98 98.65 C-219.23 99.36 -219.49 100.06 -219.75 100.79 C-221.98 106.93 -224.16 113.09 -226.32 119.26 C-228.81 126.31 -231.38 133.34 -233.94 140.38 C-234.2 141.1 -234.46 141.82 -234.73 142.56 C-237.25 149.48 -239.77 156.39 -242.33 163.29 C-242.66 164.17 -242.99 165.06 -243.33 165.98 C-243.93 167.57 -244.52 169.16 -245.12 170.75 C-246.52 174.28 -246.52 174.28 -247 178 C-246.19 177.93 -245.39 177.85 -244.56 177.78 C-237.81 177.23 -231.14 176.92 -224.36 176.97 C-223.62 176.98 -222.89 176.98 -222.13 176.99 C-219.09 177.02 -216.05 177.05 -213.01 177.1 C-202.81 177.23 -193.3 176.87 -183.44 173.95 C-178.97 172.72 -174.6 172.27 -170 171.88 C-169.03 171.79 -168.06 171.71 -167.06 171.62 C-153.4 170.56 -139.69 170.82 -126 171 C-125.34 172.32 -124.68 173.64 -124 175 C-120.58 164.35 -117.28 153.67 -114.12 142.94 C-111.47 133.92 -108.77 124.92 -106 115.94 C-105.68 114.88 -105.35 113.83 -105.02 112.75 C-103.64 108.3 -102.27 103.86 -100.89 99.42 C-100.14 97 -99.39 94.59 -98.64 92.18 C-97.94 89.9 -97.23 87.63 -96.53 85.36 C-96.21 84.34 -95.89 83.32 -95.57 82.26 C-95.29 81.36 -95.01 80.47 -94.72 79.54 C-94.01 77.04 -93.47 74.55 -93 72 C-95.81 72 -98.62 72.05 -101.42 72.08 Z M-353 310 C-356.26 317.25 -358.83 324.11 -360 332 C-357.29 328.76 -355.86 325.5 -354.38 321.56 C-353.95 320.45 -353.52 319.34 -353.09 318.19 C-352.15 315.45 -351.48 312.85 -351 310 C-351.66 310 -352.32 310 -353 310 Z M-361 332 C-360 335 -360 335 -360 335 Z M-362 335 C-363.88 338.87 -363.88 338.87 -363 343 C-361.12 339.13 -361.12 339.13 -362 335 Z M-365 344 C-364 346 -364 346 -364 346 Z M-366 346 C-365 349 -365 349 -365 349 Z M-367 349 C-366 351 -366 351 -366 351 Z M-368 352 C-367 354 -367 354 -367 354 Z M-351 376 C-350 379 -350 379 -350 379 Z " fill="#FFFFFF" transform="translate(539,3)"/>
<path d="M0 0 C1.1 -0.02 2.2 -0.05 3.33 -0.07 C10.37 -0.06 14.28 0.65 19.44 5.56 C22.4 9.84 21.99 14.56 21.44 19.56 C20.31 24.3 18.93 28.92 17.44 33.56 C18.74 33.52 20.04 33.47 21.38 33.42 C23.11 33.38 24.84 33.35 26.56 33.31 C27.42 33.28 28.27 33.25 29.16 33.21 C34.79 33.12 37.98 33.77 42.44 37.56 C45.24 40.93 45.92 43.76 45.72 48.14 C44.24 60.84 40.48 73.01 30.37 81.36 C26.93 83.5 23.66 83.69 19.67 83.66 C18.78 83.66 17.89 83.65 16.98 83.65 C16.06 83.64 15.14 83.63 14.19 83.62 C13.25 83.62 12.32 83.62 11.35 83.61 C9.05 83.6 6.74 83.58 4.44 83.56 C4.07 85.03 4.07 85.03 3.7 86.53 C1.54 95.05 -0.63 103.17 -5.56 110.56 C-6.22 110.56 -6.88 110.56 -7.56 110.56 C-7.56 111.22 -7.56 111.88 -7.56 112.56 C-15.06 116.17 -22.1 115.98 -30.31 115.88 C-32.28 115.88 -32.28 115.88 -34.29 115.88 C-45.22 115.82 -45.22 115.82 -48.56 113.56 C-51.44 109.67 -52.56 107.8 -52.56 102.94 C-51.45 97.02 -49.43 91.27 -47.56 85.56 C-49.17 85.61 -49.17 85.61 -50.82 85.67 C-52.25 85.7 -53.69 85.72 -55.12 85.75 C-55.83 85.78 -56.53 85.8 -57.26 85.83 C-62.43 85.9 -66.01 85.08 -70.56 82.56 C-70.89 81.57 -71.22 80.58 -71.56 79.56 C-72.22 79.56 -72.88 79.56 -73.56 79.56 C-74.6 74.32 -74.4 70.68 -72.9 65.56 C-72.72 64.92 -72.53 64.28 -72.34 63.62 C-71.94 62.28 -71.53 60.94 -71.12 59.6 C-70.5 57.57 -69.92 55.54 -69.34 53.5 C-66.8 44.88 -64.25 38.87 -56.84 33.64 C-52.24 32.13 -47.99 32.24 -43.19 32.38 C-42.26 32.39 -41.33 32.4 -40.38 32.42 C-38.11 32.45 -35.83 32.5 -33.56 32.56 C-33.38 31.87 -33.2 31.18 -33.01 30.47 C-32.22 27.5 -31.39 24.53 -30.56 21.56 C-30.36 20.75 -30.15 19.94 -29.94 19.11 C-27.86 11.73 -23.76 6.26 -17.11 2.37 C-11.59 -0.25 -6 -0.06 0 0 Z M-1.56 14.56 C-1.56 15.22 -1.56 15.88 -1.56 16.56 C-4.53 16.56 -7.5 16.56 -10.56 16.56 C-10.85 17.9 -11.15 19.24 -11.45 20.62 C-16.31 42.06 -16.31 42.06 -23.18 46.64 C-28.72 49.79 -33.78 50.21 -40.06 50.31 C-40.98 50.34 -41.9 50.37 -42.84 50.4 C-45.08 50.47 -47.32 50.53 -49.56 50.56 C-50.4 53.04 -51.23 55.52 -52.06 58 C-52.3 58.71 -52.54 59.41 -52.79 60.14 C-54.02 63.29 -54.02 63.29 -54.56 66.56 C-52.59 66.62 -52.59 66.62 -50.58 66.68 C-48.85 66.74 -47.11 66.81 -45.38 66.88 C-44.08 66.91 -44.08 66.91 -42.76 66.94 C-37.94 67.15 -34.44 67.39 -30.56 70.56 C-27.43 75.26 -28.11 80.06 -28.56 85.56 C-29.35 89.34 -30.4 92.88 -31.56 96.56 C-27.27 96.56 -22.98 96.56 -18.56 96.56 C-18.32 95.57 -18.08 94.58 -17.83 93.56 C-14.7 81.09 -11.93 72.59 -0.44 65.69 C6.59 62.98 15.23 64.22 22.44 65.56 C27.44 58.14 27.44 58.14 29.44 49.56 C31.88 49.94 31.88 49.94 34.44 50.56 C34.77 51.22 35.1 51.88 35.44 52.56 C36.1 52.56 36.76 52.56 37.44 52.56 C38.41 48.39 38.41 48.39 37.69 44.25 C36.46 42.25 36.46 42.25 33.44 41.56 C33.44 40.9 33.44 40.24 33.44 39.56 C25.52 39.23 17.6 38.9 9.44 38.56 C10.43 35.59 11.42 32.62 12.44 29.56 C11.45 27.58 11.45 27.58 10.44 25.56 C9.12 25.89 7.8 26.22 6.44 26.56 C6.45 25.86 6.46 25.17 6.47 24.45 C6.48 23.54 6.49 22.63 6.5 21.69 C6.51 20.78 6.52 19.88 6.54 18.95 C6.6 16.55 6.6 16.55 5.44 14.56 C3.13 14.56 0.82 14.56 -1.56 14.56 Z " fill="#FFFC09" transform="translate(716.5625,86.4375)"/>
<path d="M0 0 C1.1 -0.02 2.2 -0.05 3.33 -0.07 C10.37 -0.06 14.28 0.65 19.44 5.56 C22.4 9.84 21.99 14.56 21.44 19.56 C20.31 24.3 18.93 28.92 17.44 33.56 C18.74 33.52 20.04 33.47 21.38 33.42 C23.11 33.38 24.84 33.35 26.56 33.31 C27.42 33.28 28.27 33.25 29.16 33.21 C34.79 33.12 37.98 33.77 42.44 37.56 C45.24 40.93 45.92 43.76 45.72 48.14 C44.24 60.84 40.48 73.01 30.37 81.36 C26.93 83.5 23.66 83.69 19.67 83.66 C18.78 83.66 17.89 83.65 16.98 83.65 C16.06 83.64 15.14 83.63 14.19 83.62 C13.25 83.62 12.32 83.62 11.35 83.61 C9.05 83.6 6.74 83.58 4.44 83.56 C4.07 85.03 4.07 85.03 3.7 86.53 C1.54 95.05 -0.63 103.17 -5.56 110.56 C-6.22 110.56 -6.88 110.56 -7.56 110.56 C-7.56 111.22 -7.56 111.88 -7.56 112.56 C-15.06 116.16 -22.11 116.01 -30.31 115.94 C-32.28 115.95 -32.28 115.95 -34.29 115.97 C-35.55 115.97 -36.81 115.96 -38.11 115.96 C-39.25 115.96 -40.4 115.95 -41.57 115.95 C-44.82 115.53 -46.19 114.75 -48.56 112.56 C-47.08 112.61 -47.08 112.61 -45.57 112.66 C-41.87 112.77 -38.17 112.84 -34.48 112.89 C-32.88 112.92 -31.29 112.96 -29.69 113.02 C-19.14 113.65 -19.14 113.65 -9.62 109.82 C-7.18 107.5 -5.36 105.26 -4.19 102.06 C-3.9 101.3 -3.6 100.54 -3.3 99.75 C-2.94 98.67 -2.94 98.67 -2.56 97.56 C-2.15 96.39 -1.74 95.21 -1.31 94 C-1.07 93.2 -0.82 92.39 -0.56 91.56 C0.1 91.56 0.76 91.56 1.44 91.56 C1.77 88.26 2.1 84.96 2.44 81.56 C3.63 81.53 4.83 81.49 6.06 81.45 C20.27 81.34 20.27 81.34 32.38 74.88 C33.06 74.11 33.74 73.35 34.44 72.56 C35.1 72.56 35.76 72.56 36.44 72.56 C36.71 71.72 36.97 70.87 37.25 70 C38.44 66.56 38.44 66.56 40 63.12 C41.49 59.44 42.1 56.52 42.44 52.56 C42.51 51.74 42.59 50.92 42.67 50.07 C42.92 45.39 43.02 43.32 40.06 39.5 C36.69 37.01 34.98 36.43 30.87 36.25 C29.97 36.2 29.08 36.16 28.15 36.12 C27.22 36.08 26.28 36.04 25.31 36 C23.9 35.94 23.9 35.94 22.45 35.87 C20.11 35.76 17.77 35.66 15.44 35.56 C16.23 29.94 17.11 24.35 18.04 18.75 C18.9 12.84 18.9 12.84 17.27 7.27 C11.39 1.8 -0.84 3.33 -8.51 3.3 C-11.67 3.24 -11.67 3.24 -13.56 5.56 C-14.55 5.56 -15.54 5.56 -16.56 5.56 C-16.79 6.12 -17.02 6.68 -17.25 7.25 C-18.94 10.22 -21.03 12.28 -23.56 14.56 C-24.22 14.56 -24.88 14.56 -25.56 14.56 C-25.81 15.82 -26.06 17.08 -26.31 18.38 C-27.54 23.97 -29.53 29.22 -31.56 34.56 C-32.19 34.57 -32.82 34.57 -33.47 34.57 C-36.36 34.61 -39.24 34.68 -42.12 34.75 C-43.12 34.76 -44.11 34.76 -45.13 34.77 C-51.9 34.97 -55.54 35.92 -60.56 40.56 C-62.07 42.54 -62.07 42.54 -62.81 44.69 C-63.11 45.46 -63.42 46.22 -63.73 47.02 C-64.93 50.7 -65.94 54.41 -66.85 58.18 C-67.56 60.56 -67.56 60.56 -69.56 63.56 C-71.67 70.47 -71.67 70.47 -71.56 77.56 C-68.09 81.39 -65.78 82.85 -60.6 83.27 C-58.8 83.33 -56.99 83.36 -55.19 83.38 C-54.26 83.4 -53.33 83.43 -52.38 83.45 C-50.11 83.51 -47.84 83.55 -45.56 83.56 C-46.31 92.87 -46.31 92.87 -47.62 96.44 C-49.11 101.4 -48.71 106.42 -48.56 111.56 C-51.56 109.56 -51.56 109.56 -52.4 105.97 C-52.83 101.27 -51.68 97.46 -50.12 93.06 C-49.88 92.34 -49.64 91.61 -49.39 90.86 C-48.79 89.09 -48.18 87.32 -47.56 85.56 C-49.17 85.61 -49.17 85.61 -50.82 85.67 C-52.25 85.7 -53.69 85.72 -55.12 85.75 C-55.83 85.78 -56.53 85.8 -57.26 85.83 C-62.43 85.9 -66.01 85.08 -70.56 82.56 C-70.89 81.57 -71.22 80.58 -71.56 79.56 C-72.22 79.56 -72.88 79.56 -73.56 79.56 C-74.6 74.32 -74.4 70.68 -72.9 65.56 C-72.72 64.92 -72.53 64.28 -72.34 63.62 C-71.94 62.28 -71.53 60.94 -71.12 59.6 C-70.5 57.57 -69.92 55.54 -69.34 53.5 C-66.8 44.88 -64.25 38.87 -56.84 33.64 C-52.24 32.13 -47.99 32.24 -43.19 32.38 C-42.26 32.39 -41.33 32.4 -40.38 32.42 C-38.11 32.45 -35.83 32.5 -33.56 32.56 C-33.38 31.87 -33.2 31.18 -33.01 30.47 C-32.22 27.5 -31.39 24.53 -30.56 21.56 C-30.36 20.75 -30.15 19.94 -29.94 19.11 C-27.86 11.73 -23.76 6.26 -17.11 2.37 C-11.59 -0.25 -6 -0.06 0 0 Z " fill="#FFFE6C" transform="translate(716.5625,86.4375)"/>
<path d="M0 0 C1.73 -0.03 3.46 -0.05 5.19 -0.06 C6.15 -0.07 7.11 -0.09 8.11 -0.1 C11 0 11 0 16 1 C16 8.59 16 16.18 16 24 C26.89 24.5 26.89 24.5 38 25 C38 26.32 38 27.64 38 29 C38.64 29.29 39.28 29.58 39.94 29.88 C42 31 42 31 43 33 C43.23 39.53 43.23 39.53 42 42 C40.35 42 38.7 42 37 42 C36.9 42.99 36.79 43.98 36.69 45 C36.09 49.28 34.61 53 33 57 C32.01 57 31.02 57 30 57 C31.16 50.53 33.12 44.9 36 39 C33.45 41.27 32.23 43.36 30.94 46.5 C29.78 49.29 28.69 51.46 27 54 C24.29 54.43 24.29 54.43 20.9 54.51 C19.08 54.56 19.08 54.56 17.23 54.62 C15.96 54.64 14.68 54.66 13.38 54.69 C12.1 54.72 10.82 54.76 9.5 54.79 C6.33 54.87 3.17 54.94 0 55 C-0.33 55.99 -0.66 56.98 -1 58 C-2.52 59.36 -2.52 59.36 -4.38 60.75 C-11.07 66.38 -11.73 73.83 -13.35 82.09 C-14 85 -14 85 -15 86 C-17.7 86.07 -20.37 86.09 -23.06 86.06 C-23.82 86.06 -24.58 86.05 -25.36 86.05 C-27.24 86.04 -29.12 86.02 -31 86 C-30.41 80.3 -29.6 75.19 -27 70 C-26.74 64.88 -26.74 64.88 -28 60 C-29.95 58.77 -29.95 58.77 -32 58 C-32.5 57.5 -32.5 57.5 -33 57 C-34.56 56.84 -36.13 56.75 -37.69 56.68 C-39.11 56.62 -39.11 56.62 -40.55 56.56 C-41.55 56.52 -42.54 56.48 -43.56 56.44 C-45.06 56.37 -45.06 56.37 -46.58 56.31 C-49.06 56.2 -51.53 56.1 -54 56 C-53.41 51.15 -52.42 46.71 -50.94 42.06 C-50.58 40.92 -50.21 39.78 -49.84 38.6 C-49.56 37.74 -49.29 36.88 -49 36 C-48.38 35.97 -47.77 35.95 -47.14 35.92 C-44.34 35.81 -41.55 35.69 -38.75 35.56 C-37.78 35.52 -36.81 35.48 -35.82 35.44 C-34.88 35.4 -33.95 35.36 -32.98 35.32 C-32.13 35.28 -31.27 35.24 -30.38 35.21 C-26.63 34.88 -24.65 34.65 -21.94 31.94 C-21.3 31.3 -20.66 30.66 -20 30 C-19.01 30 -18.02 30 -17 30 C-16.35 27.02 -15.92 24.16 -15.62 21.12 C-15.13 17.03 -13.74 13.75 -12 10 C-10.97 7.35 -9.99 4.67 -9 2 C-6.03 2 -3.06 2 0 2 C0 1.34 0 0.68 0 0 Z M1 2 C1 2.66 1 3.32 1 4 C-1.97 4 -4.94 4 -8 4 C-8.29 5.34 -8.58 6.68 -8.88 8.06 C-13.74 29.5 -13.74 29.5 -20.61 34.08 C-26.16 37.23 -31.21 37.65 -37.5 37.75 C-38.42 37.78 -39.34 37.81 -40.28 37.84 C-42.52 37.91 -44.76 37.96 -47 38 C-47.84 40.48 -48.67 42.96 -49.5 45.44 C-49.74 46.14 -49.98 46.85 -50.22 47.58 C-51.46 50.72 -51.46 50.72 -52 54 C-50.03 54.06 -50.03 54.06 -48.02 54.11 C-46.28 54.18 -44.55 54.25 -42.81 54.31 C-41.52 54.35 -41.52 54.35 -40.19 54.38 C-35.38 54.58 -31.88 54.83 -28 58 C-24.87 62.7 -25.55 67.49 -26 73 C-26.79 76.78 -27.84 80.31 -29 84 C-24.71 84 -20.42 84 -16 84 C-15.76 83.01 -15.52 82.02 -15.27 81 C-12.14 68.53 -9.37 60.02 2.12 53.12 C9.15 50.42 17.79 51.66 25 53 C30 45.58 30 45.58 32 37 C34.44 37.38 34.44 37.38 37 38 C37.33 38.66 37.66 39.32 38 40 C38.66 40 39.32 40 40 40 C40.97 35.83 40.97 35.83 40.25 31.69 C39.02 29.69 39.02 29.69 36 29 C36 28.34 36 27.68 36 27 C28.08 26.67 20.16 26.34 12 26 C12.99 23.03 13.98 20.06 15 17 C14.01 15.02 14.01 15.02 13 13 C11.68 13.33 10.36 13.66 9 14 C9.01 13.3 9.02 12.6 9.04 11.88 C9.04 10.97 9.05 10.06 9.06 9.12 C9.07 8.22 9.09 7.32 9.1 6.38 C9.16 3.98 9.16 3.98 8 2 C5.69 2 3.38 2 1 2 Z " fill="#FFFE6A" transform="translate(714,99)"/>
<path d="M0 0 C0.66 0.33 1.32 0.66 2 1 C0.71 2.38 -0.63 3.71 -2 5 C-2.66 5 -3.32 5 -4 5 C-4 5.66 -4 6.32 -4 7 C-4.6 7.54 -5.2 8.07 -5.81 8.62 C-8.77 11.83 -9.63 14.88 -11 19 C-12.07 15.82 -12.04 14.2 -10.56 11.19 C-8.02 6.4 -4.23 3.29 0 0 Z " fill="#FFFE84" transform="translate(699,89)"/>
<path d="M0 0 C0.33 1.32 0.66 2.64 1 4 C-3.49 8.64 -7.87 8.76 -14 9 C-14 8.67 -14 8.34 -14 8 C-13.41 7.84 -12.82 7.68 -12.21 7.52 C-6.78 5.92 -3.64 4.35 0 0 Z " fill="#FFFD53" transform="translate(751,159)"/>
</svg>
