<?xml version="1.0" encoding="UTF-8"?>
<!-- Generator: https://ezgif.com/png-to-svg -->
<svg version="1.1" xmlns="http://www.w3.org/2000/svg" width="512" height="512" viewBox="-40.087 -87.826 680.579 680.579" preserveAspectRatio="xMidYMid meet">
<path d="M0 0 C2.45 0.02 4.89 0 7.34 -0.03 C22.48 -0.05 37.35 2.3 51.32 8.33 C52.57 8.86 52.57 8.86 53.84 9.39 C66.79 14.9 77.85 21.98 88.95 30.52 C89.88 31.23 90.81 31.93 91.77 32.65 C111.95 48.28 129.46 71.63 132.9 97.54 C133.13 99.56 133.34 101.57 133.55 103.59 C134.13 109.27 135.04 114.89 135.95 120.52 C136.36 119.96 136.77 119.41 137.2 118.83 C150.49 101.27 167.8 89.81 189.76 86.27 C214.62 83.25 241.95 87.56 262.3 102.99 C280.53 117.49 291.23 136.52 297.95 158.52 C298.34 159.75 298.34 159.75 298.73 161 C306.98 188.34 306.4 223.32 297.95 250.52 C297.71 251.31 297.48 252.11 297.23 252.92 C293.01 266.92 286.79 279.59 276.95 290.52 C276.52 291 276.09 291.48 275.65 291.97 C259.62 309.58 237.18 321.12 213.32 323.33 C211.86 323.4 210.41 323.47 208.95 323.52 C209.12 324.09 209.3 324.66 209.48 325.25 C210.29 327.86 211.09 330.47 211.89 333.08 C212.16 333.98 212.44 334.87 212.73 335.8 C220.1 360.04 216.5 386.63 205.17 409.04 C196.03 426.09 182.18 439.83 166.95 451.52 C166.39 451.95 165.84 452.37 165.27 452.81 C129.64 479.99 89.99 496.01 45.95 503.52 C44.91 503.71 43.87 503.9 42.8 504.09 C29.95 506.13 16.99 505.96 4.01 505.96 C2.14 505.96 2.14 505.96 0.24 505.96 C-19.35 505.93 -37.93 504.99 -57.05 500.52 C-58.21 500.25 -59.37 499.99 -60.57 499.71 C-101.6 489.97 -138.3 471.21 -170.05 443.52 C-170.79 442.89 -171.53 442.27 -172.29 441.62 C-193.21 423.76 -206.27 401.98 -210.05 374.52 C-210.33 370.6 -210.39 366.7 -210.36 362.77 C-210.36 361.72 -210.36 360.68 -210.35 359.6 C-210.17 346.88 -207.43 335.46 -203.05 323.52 C-203.69 323.52 -204.32 323.52 -204.97 323.51 C-225.96 322.64 -246.44 313.3 -262.05 299.52 C-262.65 299.07 -263.24 298.61 -263.86 298.15 C-277.99 287.2 -287.31 268.35 -292.05 251.52 C-292.28 250.75 -292.51 249.98 -292.74 249.18 C-300.68 221.16 -300.68 186.36 -292.05 158.52 C-291.82 157.74 -291.59 156.96 -291.36 156.15 C-287.14 142.03 -280.74 128.71 -271.05 117.52 C-270.41 116.72 -269.77 115.93 -269.11 115.11 C-252.8 95.67 -229.57 88.06 -205.05 85.52 C-185.34 84.01 -163.48 88.71 -148.05 101.52 C-147.2 102.22 -146.35 102.93 -145.47 103.65 C-139.89 108.46 -135.48 113.65 -131.05 119.52 C-130.86 118.59 -130.86 118.59 -130.67 117.65 C-122.67 78.54 -106.21 44.61 -72.05 21.52 C-63.87 16.21 -55.24 11.95 -46.24 8.21 C-45.51 7.9 -44.78 7.58 -44.02 7.26 C-29.9 1.65 -15.08 -0.16 0 0 Z M-8.05 19.52 C-7.3 20.03 -6.56 20.53 -5.79 21.05 C-2.53 24 -1.05 27.15 0.7 31.08 C9.22 49.11 23.13 60.64 41.67 67.49 C46.37 68.97 51.07 69.87 55.95 70.52 C55.38 56.01 50.52 42.48 40.58 31.73 C26.16 19.61 9.87 19.18 -8.05 19.52 Z M-62.05 35.52 C-59.06 37.02 -56.82 36.08 -53.55 35.52 C-41.38 33.67 -28.99 34.63 -17.05 37.52 C-17.21 36.93 -17.38 36.35 -17.54 35.74 C-18.5 31.58 -18.82 26.49 -17.05 22.52 C-14.99 21.27 -14.99 21.27 -13.05 20.52 C-29.41 20.52 -47.9 27.86 -62.05 35.52 Z M65.95 34.52 C66.54 37.94 67.42 40.86 68.82 44.02 C73.71 56.08 74.8 68.69 75.95 81.52 C77.08 81.67 78.22 81.82 79.39 81.97 C93.51 83.95 105.35 87.87 116.95 96.52 C115.04 83.17 107.34 70.81 98.95 60.52 C98.27 59.68 97.6 58.84 96.9 57.98 C88.3 47.85 77.83 40.38 65.95 34.52 Z M-90.05 71.52 C-90.74 72.12 -91.42 72.73 -92.12 73.35 C-97.53 78.41 -101.31 84.16 -105.05 90.52 C-101.24 90.52 -98.95 89.24 -95.49 87.65 C-86.45 83.64 -77.84 82.31 -68.05 81.52 C-68.21 79.7 -68.21 79.7 -68.36 77.83 C-68.35 74.34 -68.09 73.57 -65.99 70.52 C-62.48 68.13 -60.13 67.78 -56.05 68.52 C-52.34 69.97 -48.84 71.81 -45.3 73.65 C-30.69 80.95 -14.72 87.85 1.95 86.52 C5.12 85.71 5.12 85.71 6.95 83.52 C8.24 79.49 8.38 77.44 6.57 73.58 C-3.3 61.03 -17.41 55.73 -32.68 52.83 C-53.5 50.91 -74.51 57.41 -90.05 71.52 Z M26.95 81.52 C26.21 83.4 25.46 85.28 24.7 87.21 C21.75 94.67 18.38 99 11.16 102.45 C4.65 104.62 -2.24 104.99 -9.05 105.52 C-6.7 109.66 -4.33 113.77 -1.86 117.83 C0.84 122.3 0.84 122.3 1.95 124.52 C2.61 124.52 3.27 124.52 3.95 124.52 C4.29 123.84 4.63 123.17 4.98 122.47 C12.75 107.55 23.28 96.73 37.95 88.52 C38.94 87.86 39.93 87.2 40.95 86.52 C36.33 84.87 31.71 83.22 26.95 81.52 Z M-104.4 115.03 C-118.01 132.45 -118.24 153.27 -117.92 174.29 C-117.83 180.42 -117.82 186.56 -117.8 192.69 C-117.78 198.05 -117.73 203.4 -117.62 208.76 C-117.52 213.98 -117.49 219.2 -117.51 224.42 C-117.5 226.39 -117.47 228.37 -117.42 230.34 C-116.97 246.54 -116.97 246.54 -122.27 252.87 C-124.72 255.44 -127.31 257.75 -130.04 260.01 C-131.04 260.84 -132.03 261.67 -133.05 262.52 C-133.05 263.18 -133.05 263.84 -133.05 264.52 C-133.63 264.77 -134.22 265.01 -134.82 265.26 C-137.44 266.74 -138.86 268.35 -140.8 270.65 C-145.69 276.23 -150.91 281.44 -156.2 286.64 C-160.13 290.51 -163.85 294.49 -167.42 298.69 C-169.16 300.64 -171.01 302.39 -172.93 304.15 C-188.49 319.59 -195.25 341.12 -195.43 362.58 C-195.23 387.22 -185.77 407.75 -168.48 425.15 C-164.58 428.9 -160.31 432.19 -156.05 435.52 C-154.2 437.06 -152.34 438.6 -150.49 440.15 C-145.51 444.21 -140.41 447.97 -135.05 451.52 C-133.96 452.26 -132.87 453 -131.75 453.76 C-99.54 475.04 -62.15 486.16 -24.05 490.52 C-22.8 490.67 -22.8 490.67 -21.52 490.81 C-13.69 491.62 -5.86 491.76 2.01 491.77 C3.05 491.77 3.05 491.77 4.12 491.77 C65.2 491.68 122.69 470.32 168.38 429.9 C169.81 428.64 171.27 427.41 172.73 426.19 C188.4 412.79 198.34 393.98 200.95 373.52 C202.27 349.13 198.15 326.63 181.95 307.52 C178.81 304.11 175.51 300.88 172.16 297.69 C169.85 295.46 167.72 293.15 165.63 290.71 C161.56 285.99 157.14 281.64 152.7 277.27 C151.11 275.71 149.52 274.14 147.93 272.57 C147.24 271.89 146.54 271.2 145.83 270.5 C143.95 268.52 143.95 268.52 142.32 266.27 C141.87 265.69 141.42 265.12 140.95 264.52 C140.29 264.52 139.63 264.52 138.95 264.52 C138.64 263.72 138.64 263.72 138.33 262.9 C136.37 259.52 133.69 257.09 130.89 254.4 C123.98 247.71 123.98 247.71 123.84 242.93 C123.84 241.34 123.85 239.76 123.87 238.18 C123.87 237.32 123.87 236.45 123.88 235.56 C123.88 233.68 123.89 231.8 123.9 229.92 C123.92 226.92 123.93 223.93 123.94 220.94 C123.96 212.44 124 203.93 124.04 195.42 C124.07 190.22 124.09 185.02 124.1 179.82 C124.1 177.84 124.11 175.87 124.13 173.9 C124.28 151.87 123.53 129.62 107.51 112.65 C96.01 102.06 81.81 99.57 66.6 100.14 C51.68 101.12 39.37 107.03 29.08 117.88 C21.91 126.75 17.69 136.5 14.95 147.52 C14.75 148.31 14.55 149.1 14.34 149.91 C13.57 153.14 12.97 156.35 12.49 159.63 C12.33 160.71 12.17 161.79 12.01 162.9 C11.88 163.89 11.74 164.89 11.61 165.92 C10.88 168.79 10.4 169.88 7.95 171.52 C5.57 171.92 5.57 171.92 2.95 171.9 C1.65 171.91 1.65 171.91 0.32 171.92 C-2.58 171.43 -3.24 170.81 -5.05 168.52 C-5.76 166.12 -5.76 166.12 -6.23 163.29 C-6.41 162.25 -6.6 161.2 -6.79 160.13 C-6.98 159.02 -7.17 157.91 -7.36 156.77 C-10.91 137.82 -17.26 120.98 -33.19 108.9 C-53.93 95.14 -87.03 96.45 -104.4 115.03 Z M153.78 121.83 C151.67 124.31 149.79 126.84 147.95 129.52 C147.34 130.38 146.74 131.24 146.12 132.12 C140.51 141.44 141.39 151.03 141.95 161.52 C144.34 158.56 145.92 155.6 147.51 152.15 C155.71 135.55 168.75 119.14 186.35 112.17 C204.25 106.45 223.44 106.83 240.39 115.27 C258.17 124.58 268.07 137.95 274.71 156.66 C278.01 168.51 277.2 182.95 271.76 193.91 C266.33 203.23 257.23 206.66 247.51 210.35 C245 211.5 243.6 212.32 241.95 214.52 C241.19 218.63 241.19 218.63 241.95 222.52 C244.28 224.82 247.02 226.1 249.95 227.52 C261.22 233.35 261.22 233.35 263.7 239.33 C265.38 254.07 258.36 268.73 249.47 280.2 C244.65 286.16 239.53 290.64 232.95 294.52 C232 295.1 232 295.1 231.03 295.69 C222.51 300.42 212.36 302.26 202.95 304.52 C203.94 306.5 203.94 306.5 204.95 308.52 C222.58 309.01 241.33 301.59 254.95 290.52 C255.78 289.86 256.61 289.19 257.46 288.5 C274.84 273.73 282.58 254.36 286.95 232.52 C287.32 230.7 287.32 230.7 287.69 228.83 C293.03 196.47 288.13 158.96 269.07 131.58 C254.99 113.5 237.72 104.41 215.19 101.12 C212.77 100.84 210.38 100.66 207.95 100.52 C207.2 100.47 206.45 100.42 205.67 100.36 C186.04 99.61 167.22 107.56 153.78 121.83 Z M-254.26 121.66 C-276.68 144.62 -283.44 176.49 -283.35 207.62 C-283.2 217.79 -282.16 227.57 -280.05 237.52 C-279.89 238.29 -279.73 239.06 -279.56 239.85 C-274.69 261.99 -262.81 282.44 -243.42 294.94 C-231.6 302.14 -216.78 308.83 -202.68 308.58 C-200.88 308.55 -200.88 308.55 -199.05 308.52 C-198.39 307.2 -197.73 305.88 -197.05 304.52 C-198.61 304.16 -198.61 304.16 -200.2 303.79 C-220.74 298.9 -237.44 290.97 -249.05 272.52 C-254.09 263.22 -259.03 252.28 -258.05 241.52 C-255.91 235.19 -253.49 231.86 -247.63 228.63 C-246.38 228.03 -245.13 227.43 -243.86 226.83 C-239.68 225.08 -239.68 225.08 -236.05 222.52 C-235.37 217.07 -235.37 217.07 -237.69 212.41 C-240.44 210.21 -242.9 209.27 -246.24 208.15 C-255.74 204.62 -261.76 201.11 -266.86 192.18 C-272.3 180.05 -271.74 163.85 -267.05 151.52 C-259.87 134.55 -248.55 120.51 -231.17 113.33 C-212.83 106.84 -193.82 106.31 -175.93 114.52 C-157.77 124.19 -145.75 141.88 -138.05 160.52 C-137.72 160.52 -137.39 160.52 -137.05 160.52 C-136.93 157.19 -136.86 153.86 -136.8 150.52 C-136.75 149.12 -136.75 149.12 -136.7 147.69 C-136.58 139.03 -139.13 133.5 -144.55 126.83 C-145.12 126.13 -145.69 125.42 -146.27 124.7 C-146.86 123.98 -147.45 123.26 -148.05 122.52 C-148.68 121.69 -149.31 120.86 -149.96 120 C-160.02 108.08 -175.82 102.27 -190.92 100.93 C-214.34 99.2 -237.18 105.02 -254.26 121.66 Z M-239.05 130.52 C-239.71 130.99 -240.36 131.47 -241.03 131.96 C-250.73 139.51 -257.54 152.14 -259.77 164.15 C-260.83 173.05 -261.17 182.96 -255.6 190.49 C-250.98 195.08 -245.46 197.27 -239.42 199.39 C-234.37 201.2 -230.45 203.12 -227.69 207.85 C-225.15 214.48 -223.95 219.27 -226.3 226.21 C-229.38 232.04 -233.39 234.46 -239.24 237.21 C-243.43 238.96 -243.43 238.96 -247.05 241.52 C-248.33 254.51 -241.03 266.19 -233.06 275.96 C-222.6 287.28 -208.86 292.3 -193.74 293.15 C-188.78 293.07 -186.22 292.55 -182.68 289.02 C-181.13 287.16 -181.13 287.16 -180.05 285.52 C-182.98 283.19 -185.95 281.5 -189.3 279.83 C-197.63 275.33 -203.7 269.48 -207.05 260.52 C-209.54 252.04 -207.73 243.78 -203.8 236.06 C-199.74 229.42 -195.06 226.13 -187.93 223.27 C-182.01 222.13 -176.06 221.84 -170.05 221.52 C-172.4 219.17 -174.25 218.61 -177.36 217.46 C-188.91 212.75 -199.55 205.58 -205.43 194.33 C-208.57 186.5 -207.93 178.98 -204.93 171.21 C-201.81 164.47 -197.97 158.71 -191.05 155.52 C-181.74 152.82 -173.59 155.73 -165.05 159.52 C-157.71 163.68 -151.19 168.75 -145.05 174.52 C-143.65 171.42 -143.65 171.42 -145.49 168.08 C-146.19 166.7 -146.9 165.33 -147.61 163.96 C-147.99 163.24 -148.36 162.52 -148.74 161.78 C-157.91 144.14 -168.91 128.15 -188.15 120.71 C-205.23 115.96 -225.17 119.9 -239.05 130.52 Z M168.67 139.04 C160.32 149.49 153.3 161.52 149.95 174.52 C155.22 170.62 155.22 170.62 160.32 166.52 C169.19 159.77 178.65 155.35 189.82 154.08 C196.07 154.96 201.88 157.61 205.95 162.52 C211.15 171.5 214.2 179.06 212.95 189.52 C209.04 201.66 200.82 208.45 189.81 214.13 C185.23 216.35 180.61 218.48 175.95 220.52 C175.95 220.85 175.95 221.18 175.95 221.52 C176.83 221.55 177.71 221.57 178.62 221.6 C188.01 222.04 198.35 223.02 205.6 229.77 C211.44 237.37 214.58 245.97 213.95 255.52 C211.56 265.58 206.2 272.41 197.95 278.52 C194.04 280.74 190.05 282.69 185.95 284.52 C186.93 285.67 187.91 286.81 188.89 287.96 C189.43 288.6 189.98 289.24 190.54 289.89 C192.47 292.34 192.47 292.34 195.62 292.76 C210.93 293.08 225.38 289.02 236.7 278.33 C244.94 269.53 253.2 256.89 253.95 244.52 C252.33 240.25 250.05 238.75 245.95 236.89 C244.71 236.35 243.46 235.82 242.22 235.29 C237.07 232.95 233.37 229.91 231.14 224.58 C231.04 223.56 231.04 223.56 230.95 222.52 C230.84 221.49 230.74 220.46 230.64 219.4 C231.09 213.74 232.52 208.32 236.31 203.95 C239.97 201.06 244.1 199.67 248.45 198.08 C255.39 195.53 259.94 192.8 263.82 186.46 C268.2 175.03 266.29 162.01 261.4 151.05 C254.15 137.06 243.42 126.56 228.16 121.62 C205.46 115.52 184.14 120.74 168.67 139.04 Z M-189.8 167.58 C-194.07 173.16 -197.43 178.23 -197.05 185.52 C-193.86 195.43 -186.89 200.66 -178.05 205.52 C-170.49 209.23 -163.5 211.47 -155.05 212.52 C-154.39 221.1 -153.73 229.68 -153.05 238.52 C-156.35 237.2 -159.65 235.88 -163.05 234.52 C-171.16 232.67 -179.13 231.53 -187.05 234.52 C-187.96 234.85 -188.87 235.18 -189.8 235.52 C-194.13 239.37 -196.54 244.51 -197.51 250.19 C-197.74 255.8 -196.87 259.21 -193.05 263.52 C-187.72 269.31 -180.55 273.25 -173.05 275.52 C-168.92 274.18 -166.16 270.9 -163.19 267.88 C-162.63 267.33 -162.07 266.77 -161.5 266.19 C-160.32 265.01 -159.14 263.83 -157.97 262.65 C-156.2 260.85 -154.41 259.07 -152.63 257.28 C-151.48 256.13 -150.33 254.98 -149.19 253.82 C-148.66 253.3 -148.13 252.77 -147.59 252.23 C-146.57 251.2 -145.57 250.15 -144.57 249.1 C-143.53 248.02 -142.46 246.96 -141.37 245.92 C-136.71 241.16 -136.08 237.21 -136.01 230.67 C-135.99 229.73 -135.96 228.8 -135.94 227.83 C-135.91 225.86 -135.89 223.88 -135.89 221.91 C-135.86 218.92 -135.74 215.95 -135.62 212.96 C-135.44 204.35 -135.37 197.21 -141.46 190.61 C-144.18 188.04 -147.05 185.76 -150.05 183.52 C-151.27 182.55 -152.48 181.57 -153.68 180.58 C-167.03 169.72 -167.03 169.72 -183.24 165.02 C-187.11 165.21 -187.11 165.21 -189.8 167.58 Z M160.95 179.52 C160.08 180.19 160.08 180.19 159.19 180.88 C157.74 182.04 156.34 183.28 154.95 184.52 C154.95 185.18 154.95 185.84 154.95 186.52 C154.37 186.77 153.8 187.02 153.21 187.27 C150.6 188.71 148.84 190.4 146.76 192.52 C146.07 193.22 145.37 193.92 144.65 194.65 C137.77 202.21 140.58 222.41 141.04 232.15 C141.6 239.51 143.45 244.54 149.01 249.65 C151.18 251.48 153.37 253.18 155.68 254.82 C159.6 257.76 162.87 261.32 166.26 264.83 C167.48 266.04 168.71 267.24 169.94 268.45 C172.17 270.67 174.16 272.91 175.95 275.52 C185.49 274.1 194.84 268.84 200.81 261.32 C203.55 256.99 203.6 252.46 202.95 247.52 C201.29 242.22 199.2 237.72 194.2 234.96 C182.26 230.31 170.33 233.64 158.95 238.52 C159.61 230.27 160.27 222.02 160.95 213.52 C163.34 212.82 165.73 212.12 168.2 211.4 C180.4 207.65 192.02 202.49 200.45 192.58 C202.79 187.8 203.61 184.08 202.28 178.96 C200.15 173.14 197.69 168.39 191.95 165.52 C179.73 164.25 170.07 172.44 160.95 179.52 Z " fill="#FFFFFF" transform="translate(297.05224609375,-0.521484375)"/>
<path d="M0 0 C4.08 2.84 7.63 6.1 11.24 9.51 C39.57 36.19 82.29 54.44 121.38 54.14 C125.42 53.99 129.38 53.48 133.38 52.86 C134.23 52.73 135.09 52.59 135.98 52.46 C169.25 47.01 200.99 32.74 225.69 9.61 C238.38 -1.93 252.66 -9.57 270.04 -9.23 C280.02 -8.52 288.98 -3.89 296.03 3.13 C307.7 16.64 312.63 33.71 312.23 51.37 C310.69 70.98 300.14 84.18 286.94 98.05 C286.43 98.59 285.91 99.13 285.39 99.68 C277.46 107.97 269.31 115.44 259.94 122.05 C259.36 122.45 258.79 122.86 258.2 123.28 C205.87 160.1 138.88 173.96 75.94 163.05 C40.44 156.5 5.69 143.19 -23.06 121.05 C-24.08 120.31 -25.09 119.57 -26.14 118.81 C-45.03 104.85 -67.82 84.98 -73.06 61.05 C-73.25 60.27 -73.43 59.5 -73.62 58.71 C-76.55 40.95 -72.19 23.15 -62.21 8.3 C-57.91 2.54 -53.39 -1.55 -47.06 -4.95 C-45.96 -5.57 -45.96 -5.57 -44.83 -6.2 C-29.86 -13.43 -13.36 -8.14 0 0 Z M-35.06 15.05 C-36.51 20.31 -36.38 25.14 -34.21 30.14 C-32.49 32.99 -30.3 35.1 -27.87 37.34 C-26.17 38.95 -24.76 40.59 -23.31 42.42 C-19.97 46.39 -16.03 49.5 -11.98 52.72 C-10.08 54.23 -8.21 55.77 -6.36 57.34 C27.68 86.21 74.05 100.25 118.19 100.3 C118.89 100.3 119.59 100.3 120.32 100.3 C132.71 100.29 144.75 99.4 156.94 97.05 C157.69 96.9 158.44 96.76 159.22 96.61 C184.79 91.5 209.27 81.5 230.94 67.05 C231.58 66.62 232.22 66.2 232.88 65.76 C242.63 59.24 251.19 51.8 259.49 43.49 C261.06 41.92 262.66 40.38 264.29 38.87 C269.8 33.69 273.75 29.47 274.02 21.69 C273.8 18.07 273.31 15.64 271.38 12.55 C267.95 10.44 264.9 9.77 260.94 10.05 C251.85 12.53 244.03 19.02 237.25 25.3 C205.62 54.32 159.51 73.78 116.37 73.32 C91.21 72.13 66.43 65.2 43.94 54.05 C43.23 53.7 42.52 53.36 41.8 53.01 C26.44 45.52 13.01 35.98 0.27 24.65 C-7.2 18.05 -15.41 10.98 -25.62 9.73 C-29.64 10.25 -32.25 12.23 -35.06 15.05 Z M-45.06 47.05 C-45.93 48.12 -46.76 49.23 -47.56 50.36 C-48.23 51.28 -48.23 51.28 -48.91 52.22 C-51.37 56.11 -51.43 59.55 -51.06 64.05 C-48.56 71.08 -43.79 75.91 -38.72 81.21 C-36.06 84.05 -36.06 84.05 -33.94 86.71 C-31.05 90.31 -27.58 93.08 -24.06 96.05 C-23.18 96.81 -22.31 97.58 -21.4 98.37 C10.57 125.82 50.62 140.31 91.94 146.05 C92.63 146.15 93.33 146.25 94.05 146.36 C149.58 153.74 208.9 137.07 253.11 103.25 C254.05 102.52 254.98 101.79 255.94 101.05 C256.86 100.33 257.78 99.62 258.73 98.88 C269.83 90.14 284.34 77.83 288.94 64.05 C289.51 58.16 288.25 53.87 284.94 49.05 C283.95 48.39 282.96 47.73 281.94 47.05 C281.44 47.56 280.93 48.08 280.42 48.62 C245.28 84.71 204.09 107.79 153.94 116.05 C153.16 116.18 152.39 116.31 151.59 116.44 C113.31 122.49 71.77 117.42 35.94 103.05 C35.29 102.79 34.63 102.53 33.96 102.26 C5.75 90.92 -18.2 73.43 -39.35 51.77 C-39.96 51.16 -40.56 50.54 -41.18 49.91 C-41.71 49.35 -42.24 48.8 -42.79 48.23 C-43.89 46.93 -43.89 46.93 -45.06 47.05 Z " fill="#FFFFFF" transform="translate(181.0625,317.953125)"/>
<path d="M0 0 C10.92 9.39 18.39 20.26 20.32 34.89 C20.67 44.85 18.05 53.88 11.69 61.64 C1.84 71.66 -11.16 75.51 -24.94 75.8 C-34.34 75.7 -40.47 72.84 -47.33 66.49 C-53.22 59.92 -55.53 52.9 -55.4 44.21 C-54.54 35.71 -50.21 29.24 -44.12 23.49 C-38.61 19.03 -33.37 17.88 -26.5 17.05 C-21.81 17.66 -20.34 19.04 -17.12 22.49 C-15.53 26.05 -16.11 27.43 -17.38 31.18 C-19.12 34.49 -19.12 34.49 -22.12 36.49 C-24.95 36.98 -27.78 37.31 -30.63 37.63 C-33.34 38.25 -33.34 38.25 -34.45 40.87 C-35.44 44.72 -35.64 47.94 -34.38 51.74 C-32.82 53.91 -31.58 54.48 -29.12 55.49 C-21.47 56.54 -12.88 55.25 -6.17 51.35 C-2.08 48.2 -0.49 45.32 0.16 40.3 C0.68 31.81 -2.51 25.12 -8.06 18.8 C-16.57 11 -27.97 7.34 -39.12 5.49 C-40.26 5.29 -40.26 5.29 -41.41 5.09 C-60.41 2.43 -82.95 4.21 -99.19 15.24 C-105.86 20.51 -110.75 26.95 -112.12 35.49 C-112.35 40.56 -111.69 44.32 -108.5 48.36 C-102.93 54.13 -95.89 55.47 -88.12 55.74 C-83.98 55.69 -81.34 55.31 -78.12 52.49 C-76.23 49.99 -76.12 48.71 -76.19 45.55 C-77.42 41.54 -78.76 40.01 -82.12 37.49 C-84.33 36.91 -84.33 36.91 -86.69 36.55 C-90.35 35.89 -90.99 35.62 -93.75 32.8 C-95.44 28.74 -95.37 26.69 -94.12 22.49 C-91.4 19.15 -89.5 17.63 -85.19 17.18 C-77.65 17.32 -70.08 20.57 -64.62 25.71 C-57.51 34.16 -56.3 42.7 -57.12 53.49 C-58.93 60.86 -63.84 67.71 -70.21 71.84 C-81.45 77.66 -93.58 76.13 -105.38 72.75 C-114.52 69.67 -122.93 64.35 -127.63 55.73 C-133.17 43.4 -132.81 33.43 -128.12 20.79 C-125.03 13.94 -120.39 8.78 -115.12 3.49 C-114.52 2.85 -113.92 2.21 -113.29 1.55 C-87.37 -23.75 -26.85 -22.1 0 0 Z " fill="#FFFFFF" transform="translate(354.125,287.51171875)"/>
<path d="M0 0 C2.48 1.19 4.69 2.49 6.95 4.05 C8.02 4.77 9.09 5.49 10.2 6.24 C19.4 15.65 23.3 27.96 23.45 40.93 C23.23 56.81 18.02 71.98 6.95 83.61 C-1.66 91.5 -9.8 94.59 -21.52 94.35 C-30.27 93.61 -36.07 90.06 -42.01 83.68 C-49.39 74.18 -52.45 63.66 -52.36 51.8 C-52.36 50.97 -52.35 50.13 -52.35 49.27 C-52.05 34.16 -46.84 21.21 -36.35 10.24 C-26.15 0.51 -14.06 -4.37 0 0 Z M-21.68 21.61 C-29.81 29.96 -33.13 40.11 -33.49 51.55 C-33.31 59.38 -31.97 66.3 -26.43 72.11 C-22.5 75.31 -20.11 75.39 -15.05 75.05 C-6.47 71.79 -2.08 64.92 1.95 57.05 C5.67 47.07 5.34 35.09 1.22 25.3 C-1.16 21.09 -3.94 18.94 -8.43 17.05 C-13.39 17.05 -17.47 19.11 -21.68 21.61 Z " fill="#FFFFFF" transform="translate(260.05078125,184.94921875)"/>
<path d="M0 0 C2.93 2.11 5.47 4.43 8 7 C8.93 7.93 8.93 7.93 9.88 8.88 C21.44 21.22 24.53 36.78 24.28 53.12 C23.88 63.33 20.42 72.09 14 80 C13.48 80.65 12.95 81.3 12.41 81.96 C7.18 87.79 1.36 90.51 -6.4 91.38 C-17.47 91.75 -24.79 89.42 -33.12 82.12 C-44.65 71.35 -50.87 56.63 -51.47 40.91 C-51.63 28.2 -49.07 16.16 -41 6 C-29.73 -4.88 -14.08 -8.47 0 0 Z M-26 17 C-32.61 26.52 -33.4 37.72 -31.5 48.93 C-29.02 57.94 -24.13 65.77 -16.12 70.81 C-11.22 72.68 -7.76 72.7 -2.88 70.75 C3.43 64.72 5.31 57.04 5.56 48.5 C5.16 37.98 2.12 27.97 -5 20 C-11.49 14.68 -18.52 11.77 -26 17 Z " fill="#FFFFFF" transform="translate(368,188)"/>
</svg>
