<?xml version="1.0" encoding="UTF-8"?>
<!-- Generator: https://ezgif.com/png-to-svg -->
<svg version="1.1" xmlns="http://www.w3.org/2000/svg" width="512" height="512" viewBox="-44.605 -48.045 891.934 891.934" preserveAspectRatio="xMidYMid meet">
<path d="M0 0 C9.94 4.76 20.45 7.96 30.91 11.39 C38 13.71 45.06 16.11 52.12 18.52 C53.39 18.95 54.65 19.38 55.91 19.81 C67.72 23.84 79.51 27.94 91.28 32.07 C105.71 37.13 120.17 42.08 134.65 46.98 C151.05 52.54 167.43 58.17 183.77 63.9 C198.37 69.02 213 74.02 227.65 78.98 C248.07 85.9 268.43 92.94 288.77 100.08 C293.64 101.78 298.52 103.48 303.4 105.16 C304.5 105.54 305.61 105.92 306.74 106.31 C308.69 106.98 310.63 107.65 312.58 108.32 C318.54 110.37 318.54 110.37 319.65 111.48 C319.75 113.34 319.78 115.21 319.78 117.07 C319.78 118.29 319.79 119.51 319.79 120.76 C319.79 122.13 319.78 123.49 319.78 124.86 C319.78 126.29 319.79 127.72 319.79 129.15 C319.79 133.08 319.79 137.01 319.79 140.93 C319.79 144.25 319.79 147.56 319.79 150.88 C319.79 160.67 319.79 170.46 319.78 180.25 C319.78 184.86 319.78 189.47 319.77 194.08 C319.7 383.24 319.7 383.24 262.65 608.48 C261.97 609.44 261.28 610.4 260.57 611.39 C246.97 629.97 231.01 647.52 212.65 661.48 C211.35 662.51 210.04 663.53 208.73 664.55 C185.05 683.04 159.14 697.92 132.6 711.93 C129.93 713.34 127.26 714.76 124.6 716.19 C113.48 722.15 102.17 727.66 90.75 733.02 C87.62 734.5 84.5 735.98 81.37 737.47 C52.44 751.15 22.85 763.53 -6.97 775.13 C-9.42 776.11 -11.82 777.12 -14.23 778.18 C-14.89 778.46 -15.55 778.75 -16.23 779.04 C-18.08 779.83 -19.92 780.64 -21.76 781.45 C-29.21 783.59 -35.4 780.98 -42.26 778.12 C-43.1 777.78 -43.94 777.44 -44.81 777.09 C-47.53 775.98 -50.25 774.86 -52.97 773.73 C-54.87 772.96 -56.76 772.18 -58.65 771.41 C-73.24 765.43 -87.72 759.23 -102.15 752.88 C-106.14 751.14 -110.15 749.44 -114.16 747.74 C-121.78 744.52 -129.22 741.13 -136.58 737.35 C-141.32 734.95 -146.19 732.84 -151.03 730.67 C-159.6 726.82 -167.93 722.67 -176.19 718.23 C-179.99 716.19 -183.81 714.22 -187.66 712.27 C-216.52 697.6 -245.26 681.1 -270.35 660.48 C-271.15 659.83 -271.15 659.83 -271.97 659.16 C-285.67 647.97 -298.65 635.6 -309.35 621.48 C-309.76 620.95 -310.17 620.43 -310.59 619.88 C-329.07 596.03 -342.4 569.24 -351.35 540.48 C-351.65 539.51 -351.95 538.54 -352.27 537.54 C-365.49 494.59 -369.88 449.42 -372.47 404.73 C-372.55 403.43 -372.62 402.14 -372.7 400.8 C-374.09 375.27 -374.59 349.72 -374.88 324.16 C-374.91 321.44 -374.94 318.73 -374.97 316.01 C-375.76 247.84 -375.43 179.66 -375.35 111.48 C-373.46 110.69 -371.58 109.9 -369.69 109.11 C-368.64 108.67 -367.59 108.22 -366.51 107.77 C-361.77 105.84 -356.95 104.2 -352.09 102.58 C-351.05 102.23 -350.01 101.88 -348.94 101.52 C-346.71 100.77 -344.48 100.02 -342.25 99.27 C-336.29 97.27 -330.34 95.26 -324.39 93.24 C-323.19 92.84 -321.99 92.43 -320.75 92.02 C-310.03 88.39 -299.34 84.67 -288.66 80.92 C-273.25 75.52 -257.81 70.22 -242.35 64.98 C-226.82 59.72 -211.32 54.41 -195.85 48.98 C-179.31 43.19 -162.74 37.52 -146.15 31.9 C-133.49 27.61 -120.85 23.29 -108.24 18.86 C-104.78 17.65 -101.31 16.45 -97.84 15.28 C-88.97 12.25 -80.23 9.07 -71.56 5.51 C-45.25 -5.22 -26.33 -12.78 0 0 Z " fill="#12233E" transform="translate(429.34710693359375,12.517242431640625)"/>
<path d="M0 0 C4.77 0.64 9.12 1.95 13.64 3.57 C14.78 3.97 14.78 3.97 15.95 4.38 C17.63 4.98 19.31 5.57 20.99 6.17 C25.79 7.87 30.59 9.55 35.39 11.24 C36.45 11.61 37.51 11.98 38.6 12.37 C52.3 17.17 66.04 21.87 79.77 26.57 C86.31 28.81 92.84 31.05 99.38 33.29 C100.09 33.54 100.81 33.78 101.54 34.03 C116.2 39.06 130.85 44.13 145.49 49.2 C158.08 53.57 170.66 57.92 183.26 62.25 C184.24 62.59 184.24 62.59 185.23 62.93 C190.49 64.74 195.76 66.55 201.02 68.36 C220.72 75.13 240.41 81.94 260.06 88.85 C260.92 89.16 261.79 89.46 262.69 89.77 C263.67 90.12 263.67 90.12 264.67 90.46 C270.79 92.6 276.93 94.66 283.08 96.7 C284.04 97.02 285 97.34 285.99 97.67 C288.33 98.45 290.66 99.22 293 100 C293.02 126.03 293.04 152.06 293.05 178.09 C293.06 190.17 293.06 202.26 293.08 214.35 C293.09 224.91 293.09 235.46 293.09 246.01 C293.1 251.59 293.1 257.16 293.11 262.73 C293.16 302.94 293.16 302.94 292.56 322.74 C292.52 324.03 292.48 325.32 292.44 326.65 C292.21 333.25 291.82 339.8 291.21 346.38 C290.93 349.84 290.87 353.29 290.81 356.76 C290.13 388.5 286.87 420.99 280 452 C279.63 453.74 279.27 455.48 278.9 457.22 C267.13 512.42 240.95 561.83 196 597 C194.85 597.92 193.71 598.83 192.56 599.75 C191.39 600.66 190.23 601.58 189.06 602.5 C188.52 602.93 187.97 603.37 187.41 603.81 C184.69 605.93 182.46 607.53 179 608 C178.41 607.22 177.81 606.45 177.2 605.65 C171.32 597.98 165.37 590.36 159.39 582.77 C157.09 579.85 154.8 576.92 152.5 574 C151.58 572.83 150.67 571.67 149.75 570.5 C119.5 532 119.5 532 89.25 493.5 C88.8 492.92 88.34 492.34 87.87 491.75 C86.96 490.59 86.05 489.42 85.13 488.26 C82.79 485.28 80.45 482.3 78.11 479.32 C77.63 478.72 77.16 478.12 76.67 477.49 C75.73 476.3 74.79 475.11 73.85 473.92 C71.85 471.41 69.93 468.9 68.11 466.26 C64.5 461.11 61.78 459.19 55.86 457.19 C37.35 449.49 23.84 431.94 15.81 414.31 C10.8 402.04 7.49 389.17 6 376 C5.89 375.14 5.78 374.27 5.66 373.38 C3.14 349.84 4.91 325.08 10 302 C10.33 302 10.66 302 11 302 C11.04 302.68 11.08 303.36 11.12 304.06 C11.92 317.15 12.81 329.51 17 342 C17.41 343.34 17.83 344.68 18.24 346.02 C21.83 357.21 26.76 368.02 33 378 C33.48 378.81 33.97 379.62 34.47 380.46 C38.31 384.32 42.87 385.76 47.91 387.69 C49.52 388.32 49.52 388.32 51.17 388.98 C54.61 390.33 58.05 391.67 61.5 393 C63.79 393.9 66.08 394.8 68.37 395.7 C71.62 396.97 74.87 398.25 78.12 399.51 C81.08 400.67 84.04 401.83 87 403 C88.1 403.43 89.19 403.85 90.32 404.29 C91.4 404.72 92.47 405.15 93.58 405.59 C94.55 405.98 95.53 406.36 96.53 406.76 C100.39 408.7 101.8 411.13 103.44 415 C103.78 415.71 104.12 416.43 104.47 417.16 C105.69 419.76 106.84 422.38 108 425 C108.79 426.72 109.59 428.44 110.38 430.16 C118.97 448.73 126.77 466.91 131 487 C138.21 487.95 145.29 488.18 152.56 488.19 C153.65 488.2 154.73 488.21 155.85 488.22 C161.93 488.24 167.18 487.79 173 486 C172.31 484.91 171.62 483.81 170.9 482.69 C168.82 479.4 166.74 476.11 164.67 472.81 C162.08 468.7 159.47 464.6 156.86 460.5 C155.49 458.33 154.12 456.17 152.75 454 C151.75 452.43 151.75 452.43 150.73 450.84 C150.11 449.86 149.49 448.88 148.86 447.88 C148.31 447.01 147.76 446.14 147.19 445.24 C146 443 146 443 146 440 C146.91 440.55 147.83 441.1 148.77 441.66 C159.14 447.84 169.65 453.75 180.22 459.57 C189.96 464.94 189.96 464.94 194.7 467.81 C195.35 468.2 196 468.59 196.67 468.99 C198.29 469.97 199.89 470.97 201.5 471.97 C203.9 473.29 203.9 473.29 205.98 472.25 C208.02 470.99 209.3 469.8 210.85 467.98 C211.36 467.38 211.88 466.77 212.41 466.15 C212.96 465.5 213.5 464.86 214.06 464.19 C214.92 463.18 214.92 463.18 215.8 462.15 C217.54 460.11 219.27 458.05 221 456 C221.96 454.87 222.92 453.74 223.88 452.61 C225.21 451.03 226.55 449.45 227.88 447.86 C230.32 444.97 232.78 442.1 235.28 439.25 C236.1 438.31 236.1 438.31 236.94 437.36 C237.99 436.15 239.05 434.95 240.12 433.76 C242.84 430.64 245.05 428.05 246 424 C245.07 421.39 244.11 419.28 242.79 416.88 C242.24 415.84 242.24 415.84 241.69 414.78 C240.5 412.51 239.28 410.26 238.06 408 C237.22 406.41 236.39 404.83 235.55 403.24 C233.86 400.02 232.15 396.8 230.43 393.58 C227.04 387.21 223.74 380.79 220.44 374.38 C219.53 372.61 218.61 370.85 217.7 369.09 C213.29 360.56 208.89 352.03 204.5 343.5 C199.46 333.71 194.42 323.93 189.36 314.15 C188.44 312.39 187.53 310.62 186.62 308.86 C183.66 303.13 180.7 297.41 177.71 291.7 C176.22 288.86 174.74 286.03 173.26 283.19 C172.56 281.83 171.84 280.47 171.13 279.12 C170.14 277.23 169.15 275.34 168.17 273.45 C167.6 272.37 167.04 271.29 166.46 270.18 C163.91 264.62 162.75 259.61 162.73 253.51 C162.73 252.31 162.73 251.11 162.73 249.87 C162.73 248.63 162.74 247.4 162.75 246.12 C162.74 244.9 162.73 243.67 162.73 242.4 C162.74 235.61 163.22 229.56 165 223 C164.28 222.74 163.56 222.47 162.82 222.2 C159.93 220.97 157.47 219.52 154.84 217.82 C153.88 217.19 152.91 216.57 151.92 215.93 C147.44 212.97 142.99 209.97 138.56 206.94 C137.62 206.29 136.67 205.64 135.7 204.98 C128.54 200.08 121.43 195.12 114.34 190.14 C108.69 186.17 103.01 182.26 97.31 178.38 C89.2 172.85 81.17 167.22 73.17 161.54 C69.26 158.77 65.35 156.01 61.44 153.25 C60 152.23 58.56 151.22 57.12 150.2 C56.09 149.48 55.06 148.75 54 148 C54.81 146.06 54.81 146.06 56 144 C56.99 143.67 57.98 143.34 59 143 C59.69 141.68 60.35 140.34 61 139 C62.17 137.82 63.38 136.67 64.62 135.56 C73.27 127.09 78.24 116.35 82 105 C82.25 104.32 82.49 103.64 82.75 102.93 C87.14 88.91 83.43 73.26 76.86 60.61 C75.29 57.71 73.66 54.85 72 52 C67.92 51.55 67.92 51.55 65.48 54.32 C64.52 55.39 63.57 56.47 62.62 57.56 C61.55 58.76 60.48 59.97 59.41 61.17 C58.85 61.8 58.29 62.43 57.71 63.08 C54.9 66.23 52.01 69.3 49.12 72.38 C47.94 73.64 46.75 74.91 45.57 76.18 C44.98 76.81 44.39 77.44 43.78 78.09 C41.44 80.6 39.09 83.12 36.74 85.63 C35.58 86.88 34.42 88.12 33.26 89.36 C30.29 92.55 27.32 95.73 24.36 98.93 C18.37 105.38 12.33 111.72 6.07 117.9 C3.53 120.48 1.24 123.16 -1 126 C-1.66 125.67 -2.32 125.34 -3 125 C-12.02 95.51 -13.6 59.3 -7.42 29.06 C-7 27.01 -6.63 24.95 -6.27 22.89 C-4.83 15 -2.76 7.53 0 0 Z " fill="#FEFEFE" transform="translate(421,49)"/>
<path d="M0 0 C2.54 2.42 4.61 4.7 6.38 7.73 C6.8 8.44 7.22 9.15 7.65 9.89 C8.1 10.65 8.54 11.41 9 12.19 C14.1 20.7 19.62 28.81 25.44 36.84 C27.04 39.05 28.62 41.28 30.19 43.5 C36.99 53.07 44.12 62.27 51.61 71.31 C53.46 73.56 55.26 75.84 57.06 78.12 C64.6 87.57 72.59 96.64 80.76 105.54 C82.75 107.73 84.7 109.95 86.62 112.19 C90.22 116.33 94.08 120.17 98 124 C95.33 127.42 92.68 130.36 89.36 133.15 C86.3 135.79 83.44 138.53 80.64 141.44 C79.92 142.19 79.19 142.94 78.45 143.71 C76.96 145.26 75.48 146.82 74 148.39 C72.93 149.49 72.93 149.49 71.83 150.62 C71.19 151.3 70.55 151.97 69.89 152.66 C68 154 68 154 66 153.86 C63.88 152.95 62.1 151.92 60.19 150.62 C59.09 149.87 59.09 149.87 57.96 149.1 C57.17 148.55 56.38 148 55.56 147.44 C54.73 146.86 53.9 146.29 53.04 145.7 C33.42 132.02 14.81 116.94 -3.36 101.4 C-5.1 99.91 -6.85 98.44 -8.6 96.96 C-14.65 91.86 -20.47 86.68 -26 81 C-27.89 79.11 -29.84 77.36 -31.88 75.62 C-39.27 69.26 -46.07 62.23 -52.4 54.82 C-53.99 53.02 -55.65 51.35 -57.38 49.69 C-61.19 45.94 -64.5 41.83 -67.84 37.66 C-69.7 35.37 -71.61 33.15 -73.56 30.94 C-76 28 -76 28 -76 26 C-75.48 25.82 -74.95 25.64 -74.41 25.46 C-49.59 17.02 -24.77 8.58 0 0 Z " fill="#FDFDFD" transform="translate(200,111)"/>
<path d="M0 0 C2.91 1.45 5.32 2.82 7.95 4.65 C9.08 5.44 9.08 5.44 10.24 6.24 C11.45 7.08 11.45 7.08 12.69 7.94 C55.8 37.64 102.32 62.68 151 82 C150.48 86.86 148.12 90.33 145.5 94.31 C141.35 100.76 137.48 107.32 133.78 114.03 C131.09 118.91 131.09 118.91 130 120 C122.69 120.52 115.98 118.92 108.88 117.31 C107.02 116.9 107.02 116.9 105.13 116.49 C102.62 115.93 100.1 115.37 97.59 114.8 C94.35 114.08 91.11 113.37 87.87 112.66 C78.32 110.57 68.91 108.23 59.56 105.36 C56.18 104.34 52.79 103.39 49.38 102.48 C13.92 92.96 13.92 92.96 0 86 C0 57.62 0 29.24 0 0 Z " fill="#FDFDFD" transform="translate(89,217)"/>
<path d="M0 0 C0.15 0.72 0.3 1.43 0.46 2.17 C3.83 18.24 7.39 34.24 11.31 50.19 C11.94 52.76 12.54 55.33 13.14 57.91 C17.75 77.66 24.24 97.2 31.37 116.18 C32.56 119.4 33 121.48 33 125 C32.42 125.28 31.85 125.56 31.25 125.85 C18.51 132.07 6.1 138.6 -6 146 C-8.9 143.28 -11 140.64 -13 137.2 C-13.55 136.26 -14.1 135.31 -14.67 134.33 C-15.25 133.32 -15.84 132.3 -16.44 131.25 C-17.05 130.19 -17.66 129.13 -18.3 128.03 C-24.24 117.7 -29.94 107.24 -35.54 96.72 C-36.85 94.28 -38.17 91.85 -39.51 89.43 C-49.67 70.79 -58.32 51.17 -66.44 31.56 C-66.71 30.9 -66.99 30.23 -67.27 29.54 C-69 25.27 -69 25.27 -69 23 C-54.37 17.63 -39.67 12.46 -24.92 7.4 C-23.06 6.76 -21.19 6.11 -19.33 5.47 C-16.68 4.56 -14.03 3.65 -11.38 2.75 C-10.18 2.33 -10.18 2.33 -8.95 1.9 C-5.86 0.85 -3.29 0 0 0 Z " fill="#FDFDFD" transform="translate(340,63)"/>
<path d="M0 0 C8.39 0.49 16.77 1.05 25.14 1.75 C53.78 4.11 82.27 4.34 111 4 C110.44 8.2 109.77 12.27 108.7 16.37 C108.44 17.35 108.19 18.33 107.93 19.34 C107.66 20.36 107.4 21.38 107.12 22.44 C104.7 31.91 102.62 41.36 101 51 C76.22 57.26 51.29 62.24 26 65.88 C25.25 65.98 24.49 66.09 23.71 66.21 C21.56 66.52 19.41 66.82 17.25 67.12 C16.02 67.29 14.79 67.46 13.52 67.64 C9.98 68 6.55 68.06 3 68 C-0.58 20.42 -0.58 20.42 0 0 Z " fill="#FDFDFE" transform="translate(91,376)"/>
<path d="M0 0 C0.06 1.31 0.11 2.62 0.17 3.98 C0.37 8.84 0.59 13.71 0.8 18.58 C0.89 20.69 0.98 22.79 1.07 24.9 C1.2 27.93 1.33 30.96 1.46 33.98 C1.5 34.93 1.54 35.87 1.58 36.84 C1.64 38.16 1.64 38.16 1.7 39.51 C1.74 40.28 1.77 41.05 1.8 41.85 C2 43.99 2.43 45.93 3 48 C3.7 51.22 3.87 53.8 3 57 C0.16 60.31 -3.43 62.54 -7 65 C-8.06 65.81 -9.12 66.64 -10.17 67.46 C-22.94 77.46 -36.63 86.21 -50.16 95.13 C-52.11 96.41 -54.06 97.7 -56 99 C-56.99 99 -57.98 99 -59 99 C-67.53 82.96 -73.85 66.39 -79.06 49 C-79.53 47.47 -79.53 47.47 -80.01 45.91 C-80.28 44.95 -80.56 43.99 -80.85 43 C-81.1 42.15 -81.34 41.31 -81.6 40.44 C-82.07 37.55 -82.02 35.75 -81 33 C-78.99 31.72 -78.99 31.72 -76.3 30.78 C-75.29 30.41 -74.28 30.05 -73.24 29.67 C-72.13 29.28 -71.02 28.9 -69.88 28.5 C-67.49 27.63 -65.11 26.75 -62.73 25.88 C-62.11 25.65 -61.48 25.42 -60.84 25.18 C-53.54 22.49 -46.36 19.52 -39.19 16.5 C-38.54 16.23 -37.88 15.95 -37.21 15.67 C-27.72 11.69 -18.37 7.48 -9.15 2.89 C-8.38 2.51 -7.6 2.13 -6.8 1.73 C-6.13 1.39 -5.46 1.06 -4.78 0.71 C-3 0 -3 0 0 0 Z " fill="#FDFDFD" transform="translate(187,479)"/>
<path d="M0 0 C0.66 0 1.32 0 2 0 C2.15 0.63 2.3 1.26 2.45 1.91 C6.98 20.72 12.79 38.91 19.05 57.21 C20.83 62.43 22.49 67.69 24 73 C7.03 64.69 -8.11 52.59 -22.33 40.28 C-24.5 38.43 -26.69 36.68 -29 35 C-27.71 32.19 -26.34 30.07 -24.21 27.83 C-23.66 27.25 -23.12 26.67 -22.56 26.08 C-21.98 25.47 -21.41 24.87 -20.81 24.25 C-19.63 22.99 -18.44 21.73 -17.26 20.47 C-16.7 19.87 -16.13 19.27 -15.54 18.65 C-10.49 13.25 -5.87 7.64 -1.48 1.69 C-0.99 1.13 -0.5 0.57 0 0 Z " fill="#FAFAFB" transform="translate(200,599)"/>
<path d="M0 0 C12.55 6.76 25.46 14.12 34.75 25.12 C35.21 25.67 35.67 26.21 36.14 26.77 C37.36 28.32 37.36 28.32 39 31 C38.67 31.99 38.34 32.98 38 34 C34.32 35.56 30.07 35.3 26.12 35.38 C25.43 35.41 24.74 35.45 24.02 35.49 C19.48 35.57 16.63 34.75 13.31 31.57 C10.97 28.76 9.41 25.68 7.88 22.38 C7.54 21.67 7.2 20.97 6.85 20.25 C0 5.79 0 5.79 0 0 Z " fill="#FAFAFB" transform="translate(516,282)"/>
<path d="M0 0 C0.46 0.35 0.92 0.7 1.4 1.07 C2.8 2.13 4.21 3.18 5.62 4.22 C7.16 5.37 8.69 6.55 10.2 7.75 C16.01 12.17 21.87 14.72 28.73 17.05 C33.91 18.82 33.91 18.82 35 21 C25.98 21.76 17.05 22.14 8 22 C6.66 18.71 5.33 15.42 4 12.12 C3.62 11.19 3.24 10.25 2.84 9.29 C2.48 8.39 2.12 7.49 1.75 6.57 C1.41 5.74 1.08 4.92 0.73 4.06 C0 2 0 2 0 0 Z " fill="#F6F7F8" transform="translate(606,457)"/>
</svg>
