<?xml version="1.0" encoding="UTF-8"?>
<!-- Generator: https://ezgif.com/webp-to-svg -->
<svg version="1.1" xmlns="http://www.w3.org/2000/svg" width="100" height="100">
<path d="M0 0 C29.7 0 59.4 0 90 0 C90.08 11.43 90.17 22.85 90.25 34.62 C90.29 38.22 90.32 41.82 90.36 45.53 C90.38 49.95 90.38 49.95 90.38 52.02 C90.39 53.46 90.4 54.9 90.42 56.34 C90.45 58.52 90.46 60.71 90.45 62.89 C90.46 64.12 90.47 65.35 90.48 66.62 C89.83 71.22 87.86 74.43 84.31 77.43 C83.72 77.76 83.14 78.09 82.54 78.43 C81.85 78.83 81.15 79.24 80.44 79.65 C79.63 80.1 78.83 80.54 78 81 C77.04 81.55 76.08 82.09 75.09 82.65 C71.84 84.49 68.58 86.31 65.31 88.12 C63.1 89.36 60.89 90.59 58.68 91.82 C57.71 92.36 56.74 92.9 55.74 93.45 C53 94.95 53 94.95 50.52 96.7 C47.34 98.34 45.54 98.45 42 98 C38.8 96.63 38.8 96.63 35.39 94.71 C34.47 94.2 34.47 94.2 33.53 93.68 C32.23 92.96 30.94 92.23 29.65 91.49 C27.71 90.39 25.76 89.3 23.81 88.21 C2.01 76.04 2.01 76.04 0 70 C-0.09 67.75 -0.12 65.49 -0.11 63.23 C-0.11 62.54 -0.11 61.85 -0.11 61.13 C-0.11 58.88 -0.11 56.64 -0.1 54.39 C-0.1 53.01 -0.1 51.62 -0.09 50.23 C-0.09 45.09 -0.08 39.95 -0.06 34.81 C-0.04 23.32 -0.02 11.84 0 0 Z " fill="#3B3940" transform="translate(5,1)"/>
<path d="M0 0 C1.11 0.25 1.11 0.25 2.25 0.5 C5.19 1.12 5.19 1.12 9 1 C9.99 1 10.98 1 12 1 C12.66 0.67 13.32 0.34 14 0 C15.08 13.67 15.08 13.67 15 18.69 C14.83 22 14.83 22 16 25 C15.34 25 14.68 25 14 25 C14.47 25.7 14.95 26.4 15.44 27.12 C17 30 17 30 17.38 33.19 C17.69 36.18 17.69 36.18 20.25 37.44 C23.38 38.08 24.98 38.04 28 37 C29.84 34.56 29.84 34.56 31.19 31.56 C33.87 26.13 33.87 26.13 36 24 C41.67 23.53 45.03 23.97 50 27 C51 28 51 28 51.1 31.82 C51.09 33.4 51.08 34.98 51.06 36.56 C51.06 37.37 51.05 38.18 51.05 39.01 C51.04 41 51.02 43 51 45 C49.68 44.67 48.36 44.34 47 44 C47.66 44.99 48.32 45.98 49 47 C49.72 51.87 49.81 56.45 47 60.62 C46.34 61.41 45.68 62.19 45 63 C43.52 60.04 43.94 57.26 44 54 C43.34 54 42.68 54 42 54 C41.94 54.94 41.94 54.94 41.89 55.9 C41.79 57.12 41.79 57.12 41.69 58.38 C41.6 59.59 41.6 59.59 41.51 60.84 C41 63 41 63 38 65 C37.5 63.02 37.5 63.02 37 61 C36.34 61 35.68 61 35 61 C34.34 59.35 33.68 57.7 33 56 C32.34 56 31.68 56 31 56 C30.48 56.7 29.97 57.4 29.44 58.12 C27.08 60.91 25.48 61.94 22.38 63.69 C19.6 65.44 18.25 66.35 17.04 69.43 C16.58 71.95 16.27 74.45 16 77 C15.12 80.06 15.12 80.06 14 82 C12.02 82.5 12.02 82.5 10 83 C10.66 79.37 11.32 75.74 12 72 C10.95 72.25 9.9 72.5 8.81 72.75 C5 73 5 73 2.06 71.06 C1.38 70.38 0.7 69.7 0 69 C-0.33 69.99 -0.66 70.98 -1 72 C-1.5 69.03 -1.5 69.03 -2 66 C-2.99 66 -3.98 66 -5 66 C-5 67.65 -5 69.3 -5 71 C-6.32 70.67 -7.64 70.34 -9 70 C-9.19 67.62 -9.19 67.62 -9 65 C-5.44 62.62 -4.2 62.43 0 63 C2.52 64.45 4.76 66.15 7 68 C6.12 66.41 5.22 64.83 4.31 63.25 C3.81 62.37 3.31 61.49 2.8 60.58 C1.12 57.89 1.12 57.89 -1.5 56.12 C-4.65 53.45 -5.88 50.52 -7.31 46.75 C-7.58 46.12 -7.84 45.49 -8.11 44.84 C-9.99 40.05 -10.44 36.14 -10 31 C-8.87 28.46 -8.87 28.46 -7.44 26.38 C-5.46 23.16 -4.98 22.36 -5.19 18.44 C-5.46 17.63 -5.72 16.83 -6 16 C-4.35 15.67 -2.7 15.34 -1 15 C-1.33 13.35 -1.66 11.7 -2 10 C-2.99 9.67 -3.98 9.34 -5 9 C-4 8 -4 8 -1.44 7.94 C-0.23 7.97 -0.23 7.97 1 8 C0.67 5.36 0.34 2.72 0 0 Z " fill="#F9F9F9" transform="translate(39,11)"/>
<path d="M0 0 C29.7 0 59.4 0 90 0 C90.08 11.43 90.17 22.85 90.25 34.62 C90.29 38.22 90.32 41.82 90.36 45.53 C90.38 49.95 90.38 49.95 90.38 52.02 C90.39 53.46 90.4 54.9 90.42 56.34 C90.45 58.52 90.46 60.71 90.45 62.89 C90.46 64.12 90.47 65.35 90.48 66.62 C89.83 71.22 87.86 74.43 84.31 77.43 C83.72 77.76 83.14 78.09 82.54 78.43 C81.85 78.83 81.15 79.24 80.44 79.65 C79.63 80.1 78.83 80.54 78 81 C77.04 81.55 76.08 82.09 75.09 82.65 C71.84 84.49 68.58 86.31 65.31 88.12 C63.1 89.36 60.89 90.59 58.68 91.82 C57.71 92.36 56.74 92.9 55.74 93.45 C53 94.95 53 94.95 50.52 96.7 C47.34 98.34 45.54 98.45 42 98 C38.8 96.63 38.8 96.63 35.39 94.71 C34.47 94.2 34.47 94.2 33.53 93.68 C32.23 92.96 30.94 92.23 29.65 91.49 C27.71 90.39 25.76 89.3 23.81 88.21 C2.01 76.04 2.01 76.04 0 70 C-0.09 67.75 -0.12 65.49 -0.11 63.23 C-0.11 62.54 -0.11 61.85 -0.11 61.13 C-0.11 58.88 -0.11 56.64 -0.1 54.39 C-0.1 53.01 -0.1 51.62 -0.09 50.23 C-0.09 45.09 -0.08 39.95 -0.06 34.81 C-0.04 23.32 -0.02 11.84 0 0 Z M5 5 C4.9 15.46 4.79 25.91 4.69 36.69 C4.64 39.98 4.6 43.28 4.55 46.67 C4.53 49.29 4.52 51.9 4.51 54.51 C4.5 55.19 4.49 55.86 4.47 56.56 C4.44 58.56 4.43 60.56 4.43 62.56 C4.42 63.68 4.41 64.81 4.4 65.97 C5.19 69.98 6.91 71.42 10 74 C12.17 75.37 14.4 76.66 16.66 77.88 C17.28 78.22 17.91 78.56 18.55 78.92 C20.53 79.99 22.51 81.06 24.5 82.12 C26.48 83.2 28.47 84.28 30.45 85.36 C32.25 86.33 34.05 87.3 35.85 88.27 C37.85 89.37 39.82 90.53 41.75 91.75 C43.97 93.29 43.97 93.29 46.69 92.56 C49.88 90.4 50.17 88.74 51 85 C50.98 83.72 50.96 82.44 50.94 81.12 C51.24 77.85 51.93 77.06 54.44 74.82 C56.41 73.42 58.4 72.07 60.43 70.76 C63.21 69.09 63.21 69.09 65 66 C65.99 66.33 66.98 66.66 68 67 C68.69 69.06 68.69 69.06 69 71 C69.66 71 70.32 71 71 71 C71.66 72.32 72.32 73.64 73 75 C75.71 71.17 76.33 68.67 76 64 C76.66 64 77.32 64 78 64 C78 66.97 78 69.94 78 73 C81.81 69.52 81.81 69.52 83.17 64.76 C83.17 63.89 83.18 63.02 83.19 62.12 C83.2 61.26 83.22 60.4 83.23 59.51 C82.99 56.88 82.33 55.26 81 53 C82.32 53.66 83.64 54.32 85 55 C85 38.5 85 22 85 5 C58.6 5 32.2 5 5 5 Z " fill="#E1B027" transform="translate(5,1)"/>
<path d="M0 0 C29.7 0 59.4 0 90 0 C90.08 11.43 90.17 22.85 90.25 34.62 C90.29 38.22 90.32 41.82 90.36 45.53 C90.38 49.95 90.38 49.95 90.38 52.02 C90.39 53.46 90.4 54.9 90.42 56.34 C90.45 58.52 90.46 60.71 90.45 62.89 C90.46 64.12 90.47 65.35 90.48 66.62 C89.83 71.22 87.86 74.43 84.31 77.43 C83.72 77.76 83.14 78.09 82.54 78.43 C81.85 78.83 81.15 79.24 80.44 79.65 C79.63 80.1 78.83 80.54 78 81 C77.04 81.55 76.08 82.09 75.09 82.65 C71.84 84.49 68.58 86.31 65.31 88.12 C63.1 89.36 60.89 90.59 58.68 91.82 C57.71 92.36 56.74 92.9 55.74 93.45 C53 94.95 53 94.95 50.52 96.7 C47.34 98.34 45.54 98.45 42 98 C38.8 96.63 38.8 96.63 35.39 94.71 C34.47 94.2 34.47 94.2 33.53 93.68 C32.23 92.96 30.94 92.23 29.65 91.49 C27.71 90.39 25.76 89.3 23.81 88.21 C2.01 76.04 2.01 76.04 0 70 C-0.09 67.75 -0.12 65.49 -0.11 63.23 C-0.11 62.54 -0.11 61.85 -0.11 61.13 C-0.11 58.88 -0.11 56.64 -0.1 54.39 C-0.1 53.01 -0.1 51.62 -0.09 50.23 C-0.09 45.09 -0.08 39.95 -0.06 34.81 C-0.04 23.32 -0.02 11.84 0 0 Z M3 3 C2.92 13.95 2.83 24.9 2.75 36.19 C2.71 39.64 2.68 43.09 2.64 46.65 C2.63 49.38 2.62 52.12 2.61 54.86 C2.6 55.56 2.59 56.27 2.58 57 C2.55 59.09 2.54 61.19 2.55 63.28 C2.54 64.46 2.53 65.64 2.52 66.86 C3.1 70.66 4.34 72.27 7 75 C9.59 76.82 9.59 76.82 12.51 78.34 C14.11 79.22 14.11 79.22 15.75 80.12 C16.86 80.72 17.98 81.32 19.12 81.94 C21.32 83.13 23.51 84.33 25.7 85.53 C26.76 86.1 27.83 86.68 28.92 87.27 C32.6 89.34 36.11 91.63 39.58 94.03 C43.07 95.43 45.37 94.86 49 94 C52.18 92.64 52.18 92.64 55.27 90.83 C55.84 90.51 56.41 90.2 56.99 89.87 C58.19 89.2 59.38 88.53 60.57 87.85 C62.36 86.82 64.15 85.82 65.95 84.81 C78.44 78.9 78.44 78.9 87 69 C87.29 65.93 87.29 65.93 87.23 62.49 C87.23 61.51 87.23 61.51 87.23 60.5 C87.23 58.39 87.21 56.28 87.2 54.17 C87.19 52.88 87.19 51.59 87.19 50.25 C87.18 45.42 87.15 40.58 87.12 35.75 C87.08 24.94 87.04 14.13 87 3 C59.28 3 31.56 3 3 3 Z " fill="#3E3C3F" transform="translate(5,1)"/>
<path d="M0 0 C0.66 0 1.32 0 2 0 C3.36 7.86 3.36 7.86 2 11 C-0.24 12.62 -0.24 12.62 -3.17 14.16 C-4.23 14.73 -5.29 15.29 -6.38 15.88 C-7.49 16.45 -8.6 17.03 -9.75 17.62 C-10.85 18.21 -11.95 18.8 -13.08 19.4 C-17.66 21.82 -22.16 24.15 -27 26 C-26.96 19.82 -26.77 14.79 -22.27 10.24 C-20.16 8.62 -18 7.24 -15.75 5.8 C-12.8 4.13 -12.8 4.13 -11 1 C-9.68 1.66 -8.36 2.32 -7 3 C-7 4.32 -7 5.64 -7 7 C-6.01 6.67 -5.02 6.34 -4 6 C-3.67 7.32 -3.34 8.64 -3 10 C-1.12 6.73 -0.51 3.72 0 0 Z " fill="#37363F" transform="translate(81,65)"/>
<path d="M0 0 C2 1 4 2 6 3 C6.45 5.63 6.74 8.1 6.94 10.75 C7.02 11.47 7.1 12.18 7.18 12.92 C7.47 16.75 7.38 18.55 4.86 21.52 C1.97 24.02 -0.79 25.8 -4.15 27.63 C-5.01 28.1 -5.01 28.1 -5.89 28.59 C-7.72 29.59 -9.55 30.58 -11.38 31.56 C-13.19 32.55 -15.01 33.55 -16.82 34.54 C-18.54 35.48 -20.27 36.41 -21.99 37.34 C-24.39 38.66 -26.71 40.03 -29.04 41.46 C-32.21 43.11 -33.51 43.33 -37 43 C-39.27 42.03 -39.27 42.03 -41.59 40.66 C-42.45 40.16 -43.31 39.65 -44.2 39.14 C-45.1 38.6 -46.01 38.06 -46.94 37.5 C-48.82 36.4 -50.7 35.29 -52.58 34.19 C-53.5 33.65 -54.42 33.1 -55.37 32.54 C-57.7 31.18 -60.03 29.84 -62.39 28.53 C-63.03 28.17 -63.67 27.81 -64.33 27.44 C-66.01 26.5 -67.7 25.56 -69.38 24.62 C-71.62 23.23 -73.27 21.96 -75 20 C-74.67 19.01 -74.34 18.02 -74 17 C-73.34 17.33 -72.68 17.66 -72 18 C-72 18.66 -72 19.32 -72 20 C-71.3 20.26 -70.61 20.52 -69.89 20.79 C-66.71 22.12 -63.79 23.69 -60.78 25.37 C-60.2 25.69 -59.62 26.02 -59.02 26.35 C-57.8 27.03 -56.58 27.71 -55.36 28.39 C-53.51 29.43 -51.65 30.47 -49.79 31.5 C-40.23 36.83 -40.23 36.83 -37.42 38.84 C-35.06 40.29 -35.06 40.29 -32.58 39.4 C-31.73 38.94 -30.88 38.47 -30 38 C-29.02 37.49 -28.03 36.98 -27.02 36.46 C-24.11 34.86 -21.21 33.27 -18.31 31.66 C-16.44 30.63 -14.57 29.61 -12.71 28.59 C-11.51 27.93 -10.32 27.26 -9.12 26.6 C-8.04 26.01 -6.96 25.41 -5.85 24.8 C-1.81 22.25 1.3 19.54 3 15 C3.59 10.26 3.58 6.21 1.5 1.88 C1 1.26 0.51 0.64 0 0 Z " fill="#D3A52C" transform="translate(84,53)"/>
<path d="M0 0 C3 1.5 3 1.5 6 3 C6.45 5.63 6.74 8.1 6.94 10.75 C7.02 11.47 7.1 12.18 7.18 12.92 C7.47 16.76 7.38 18.55 4.85 21.53 C2.02 23.98 -0.68 25.75 -3.96 27.55 C-5.62 28.47 -5.62 28.47 -7.33 29.42 C-8.48 30.04 -9.63 30.67 -10.81 31.31 C-11.99 31.96 -13.18 32.62 -14.36 33.27 C-17.23 34.85 -20.12 36.43 -23 38 C-23.66 37.01 -24.32 36.02 -25 35 C-24.29 34.64 -23.59 34.29 -22.86 33.92 C-19.65 32.28 -16.45 30.61 -13.25 28.94 C-12.14 28.38 -11.03 27.81 -9.88 27.24 C-3.65 23.95 0.49 21.74 3 15 C3.87 10.27 3.58 6.21 1.5 1.88 C1 1.26 0.51 0.64 0 0 Z " fill="#D0A32C" transform="translate(84,53)"/>
<path d="M0 0 C2 1 4 2 6 3 C6.11 5.06 6.19 7.12 6.25 9.19 C6.3 10.34 6.34 11.48 6.39 12.67 C5.93 16.6 4.7 18.18 2 21 C1.34 20.67 0.68 20.34 0 20 C0.5 19.38 0.99 18.76 1.5 18.12 C3.61 13.73 3.61 9.79 3 5 C1.69 1.97 1.69 1.97 0 0 Z " fill="#57514A" transform="translate(84,53)"/>
<path d="M0 0 C0.66 0 1.32 0 2 0 C3.43 8.25 3.43 8.25 2 11 C-0.44 12.31 -0.44 12.31 -3 13 C-3.66 12.67 -4.32 12.34 -5 12 C-4 10 -4 10 -2 9 C-1.31 6.88 -1.31 6.88 -0.88 4.44 C-0.71 3.61 -0.54 2.78 -0.37 1.93 C-0.25 1.3 -0.12 0.66 0 0 Z " fill="#4B4A50" transform="translate(81,65)"/>
</svg>
