<?xml version="1.0" encoding="UTF-8"?>
<!-- Generator: https://ezgif.com/png-to-svg -->
<svg version="1.1" xmlns="http://www.w3.org/2000/svg" width="512" height="512" viewBox="-69.838 -40.474 739.581 739.581" preserveAspectRatio="xMidYMid meet">
<path d="M0 0 C1 -0.01 2 -0.01 3.03 -0.02 C6.4 -0.03 9.78 -0.02 13.15 -0 C15.59 -0.01 18.02 -0.02 20.45 -0.02 C25.76 -0.04 31.06 -0.04 36.37 -0.03 C44.26 -0.01 52.15 -0.02 60.03 -0.03 C74.12 -0.05 88.21 -0.05 102.29 -0.04 C114.62 -0.03 126.95 -0.03 139.28 -0.03 C140.1 -0.03 140.91 -0.03 141.76 -0.03 C145.07 -0.03 148.39 -0.04 151.7 -0.04 C182.83 -0.05 213.95 -0.04 245.08 -0.02 C272.74 0 300.41 0 328.07 -0.02 C359.14 -0.04 390.21 -0.05 421.27 -0.04 C424.58 -0.03 427.89 -0.03 431.2 -0.03 C432.02 -0.03 432.83 -0.03 433.67 -0.03 C445.99 -0.03 458.31 -0.03 470.64 -0.04 C484.64 -0.05 498.65 -0.05 512.66 -0.03 C520.5 -0.02 528.35 -0.02 536.19 -0.03 C542.04 -0.04 547.89 -0.03 553.73 -0.01 C556.11 -0.01 558.48 -0.01 560.85 -0.02 C564.07 -0.03 567.28 -0.02 570.49 0 C571.89 -0.01 571.89 -0.01 573.31 -0.03 C577.51 0.02 579.72 0.14 583.36 2.41 C586.73 6.03 586.45 9.01 586.44 13.73 C586.45 14.49 586.45 15.24 586.45 16.02 C586.46 18.59 586.46 21.15 586.46 23.71 C586.47 25.56 586.47 27.4 586.47 29.25 C586.49 34.34 586.49 39.44 586.5 44.53 C586.5 50.02 586.51 55.5 586.53 60.99 C586.55 74.25 586.56 87.51 586.58 100.78 C586.58 104.52 586.58 108.27 586.59 112.02 C586.61 135.28 586.64 158.54 586.65 181.8 C586.65 187.2 586.65 192.59 586.66 197.98 C586.66 198.65 586.66 199.32 586.66 200.01 C586.67 221.7 586.7 243.4 586.74 265.09 C586.79 288.03 586.81 310.98 586.82 333.92 C586.82 346.42 586.83 358.93 586.87 371.43 C586.89 382.08 586.91 392.74 586.89 403.39 C586.89 408.82 586.89 414.25 586.92 419.68 C586.94 424.67 586.94 429.65 586.92 434.63 C586.92 436.43 586.92 438.22 586.94 440.01 C587.06 454.9 584.58 468.66 577.43 481.94 C577.09 482.6 576.74 483.26 576.39 483.94 C562.91 509.19 539.72 523.12 514.67 535.3 C508.42 538.37 502.36 541.76 496.31 545.19 C495.34 545.74 494.37 546.28 493.37 546.85 C488.56 549.59 483.81 552.4 479.12 555.37 C472.26 559.67 465.16 563.66 457.87 567.19 C451.67 570.23 445.69 573.61 439.68 577 C438.72 577.55 437.75 578.1 436.76 578.66 C431.31 581.75 425.91 584.92 420.55 588.15 C412.6 592.94 404.57 597.43 396.25 601.5 C390.27 604.43 384.63 607.67 379 611.23 C373.39 614.74 367.58 617.95 361.82 621.2 C357.91 623.42 354.05 625.65 350.3 628.12 C347.42 629.95 344.58 631.26 341.4 632.47 C336.17 634.46 331.61 637.12 326.87 640.07 C326.01 640.58 325.14 641.1 324.26 641.63 C319.95 644.22 315.75 646.86 311.63 649.73 C300.22 657.44 289.85 659.99 276.07 658.1 C269.33 656.64 264.08 652.99 258.55 649.04 C254.27 646.11 249.7 643.66 245.18 641.13 C243.45 640.14 241.72 639.16 239.99 638.17 C239.18 637.71 238.38 637.26 237.55 636.79 C236.16 635.99 234.77 635.18 233.38 634.37 C230.59 632.73 227.85 631.31 224.87 630.05 C220.77 628.27 217.06 626.12 213.25 623.82 C211.74 622.92 210.23 622.02 208.73 621.12 C207.98 620.68 207.24 620.24 206.47 619.78 C203.35 617.94 200.21 616.16 197.06 614.38 C192.62 611.87 188.29 609.24 184 606.5 C179.21 603.52 174.37 601.07 169.25 598.75 C161.89 595.42 155.06 591.49 148.17 587.28 C134.02 578.63 119.53 570.5 104.77 562.92 C100.02 560.47 95.43 557.82 90.86 555.04 C86.67 552.52 82.43 550.11 78.18 547.69 C76.82 546.91 76.82 546.91 75.43 546.12 C73.59 545.08 71.75 544.03 69.91 542.98 C67.54 541.64 65.18 540.29 62.81 538.94 C57.04 535.66 51.29 532.45 45.31 529.57 C33.88 523.95 22.82 516.99 13.31 508.5 C12.33 507.64 11.36 506.79 10.35 505.9 C4.72 500.75 0.21 495.4 -3.57 488.75 C-3.9 488.17 -4.23 487.59 -4.58 486.99 C-5.71 484.86 -6.7 482.7 -7.69 480.5 C-8.43 478.88 -8.43 478.88 -9.19 477.23 C-13.83 466.41 -14.54 456.81 -14.44 445.14 C-14.45 443.23 -14.45 441.33 -14.47 439.42 C-14.49 434.22 -14.47 429.02 -14.45 423.82 C-14.43 418.19 -14.45 412.57 -14.46 406.94 C-14.48 395.94 -14.47 384.94 -14.44 373.94 C-14.41 361.14 -14.42 348.33 -14.42 335.52 C-14.43 311.98 -14.4 288.45 -14.36 264.91 C-14.32 243.43 -14.31 221.94 -14.32 200.46 C-14.32 199.08 -14.33 197.7 -14.33 196.32 C-14.33 195.63 -14.33 194.95 -14.33 194.25 C-14.33 190.81 -14.33 187.37 -14.33 183.93 C-14.33 183.25 -14.33 182.58 -14.33 181.88 C-14.34 163.91 -14.33 145.95 -14.31 127.98 C-14.31 125.41 -14.31 122.84 -14.31 120.26 C-14.3 119 -14.3 117.73 -14.3 116.43 C-14.29 107.49 -14.29 98.56 -14.3 89.63 C-14.3 78.75 -14.29 67.88 -14.26 57.01 C-14.25 51.46 -14.24 45.91 -14.25 40.36 C-14.26 35.28 -14.25 30.21 -14.22 25.13 C-14.22 23.29 -14.22 21.45 -14.23 19.61 C-14.24 17.12 -14.22 14.63 -14.2 12.13 C-14.21 11.41 -14.22 10.69 -14.23 9.94 C-14.18 6.84 -13.84 4.75 -12.27 2.06 C-8.29 -0.35 -4.57 -0.05 0 0 Z " fill="#393840" transform="translate(13.692473411560059,-0.5033645629882813)"/>
<path d="M0 0 C4.05 1.53 5.77 4.04 8.25 7.5 C9.03 8.58 9.82 9.66 10.61 10.73 C11 11.28 11.4 11.82 11.8 12.38 C14.74 16.35 17.89 20.17 21 24 C24.76 22.44 27.09 20.11 29.91 17.21 C30.84 16.27 31.77 15.33 32.72 14.36 C33.69 13.37 34.66 12.37 35.62 11.38 C37.53 9.42 39.44 7.47 41.35 5.52 C42.2 4.66 43.04 3.79 43.91 2.9 C46 1 46 1 48 1 C47.49 7.69 46.97 14.39 46.44 21.08 C46.18 24.49 45.91 27.9 45.64 31.31 C45.5 33.08 45.37 34.84 45.23 36.6 C45.02 39.18 44.82 41.76 44.62 44.34 C44.56 45.12 44.5 45.9 44.43 46.71 C43.94 53.1 43.53 58.55 45.94 64.62 C50.36 75.94 50.6 88.75 46.8 100.32 C45.28 105.42 44.71 110.73 44 116 C43.34 116 42.68 116 42 116 C42.19 133.18 45.23 146.43 53.32 161.64 C55.14 165.08 56.49 168.12 57 172 C50.54 171.83 46.7 168 42 164 C43.59 181.2 52.08 194.92 62.74 208.13 C69 216.07 69 216.07 69 219 C66.87 218.86 64.75 218.71 62.62 218.56 C60.85 218.44 60.85 218.44 59.04 218.32 C56 218 56 218 54 217 C59.04 225.74 64.96 232.86 72 240 C72.78 240.79 73.56 241.59 74.37 242.41 C87.31 254.78 105.72 266.4 123.96 266.22 C131.28 265.69 137.9 262.44 142.83 256.97 C147.8 250.89 151.62 244.7 155.12 237.69 C155.64 236.68 156.16 235.67 156.69 234.63 C161.28 225.58 165.61 216.49 169.38 207.06 C176.89 188.92 188.44 172 207 164 C227.95 157.77 249.88 167.24 268 177 C273.38 180.03 278.71 183.16 283.84 186.59 C285.24 187.5 286.66 188.37 288.11 189.18 C291.34 191.16 293.6 192.67 294.72 196.4 C294.99 199.4 294.99 202.31 294.91 205.33 C294.91 206.46 294.91 207.59 294.91 208.76 C294.91 212.5 294.84 216.23 294.78 219.96 C294.77 222.55 294.75 225.15 294.75 227.74 C294.72 233.86 294.66 239.98 294.58 246.1 C294.49 253.07 294.44 260.04 294.4 267.01 C294.32 281.34 294.18 295.67 294 310 C290.92 308.97 289.76 307.86 287.57 305.59 C281.3 299.24 274.79 294.31 267 290 C265.58 289.17 265.58 289.17 264.13 288.33 C259.33 285.59 255.55 283.69 250 283 C250.67 283.62 251.33 284.24 252.02 284.88 C269.75 301.91 284.35 324.05 285.24 349.31 C285.8 379.93 274.3 402.7 253.38 424.57 C250.63 427.42 247.84 430.23 245 433 C244.34 432.67 243.68 432.34 243 432 C243.67 431.23 243.67 431.23 244.36 430.45 C253.99 418.86 257.05 406.79 256 392 C253.57 380.95 247.56 373.03 239 366 C238.97 367.15 238.95 368.3 238.92 369.49 C238.12 394.62 232.82 420.95 214 439 C208.1 443.9 208.1 443.9 205 445 C202.75 444.62 202.75 444.62 201 444 C201.78 443.24 202.57 442.47 203.38 441.69 C210.5 434.39 211.37 425.7 211.36 415.87 C211.35 414.69 211.33 413.52 211.31 412.31 C211.32 411.13 211.32 409.94 211.32 408.72 C211.29 402.78 211.06 397.6 209 392 C208.49 393.07 207.98 394.15 207.46 395.25 C200.47 409.79 200.47 409.79 195 415 C194.34 415 193.68 415 193 415 C192.91 413.62 192.91 413.62 192.81 412.21 C191.66 400.29 188.3 388.66 178.95 380.4 C173.9 376.77 169.37 374.04 163.06 373.94 C159.56 375.15 158.96 375.97 157 379 C156.31 380.49 155.64 381.99 155 383.5 C151.6 390.42 146.41 395.62 141 401 C140.18 401.82 139.36 402.64 138.51 403.49 C126.04 415.34 111.45 424.79 97.19 434.31 C96.6 434.7 96.02 435.09 95.42 435.5 C84.67 442.7 84.67 442.7 79.3 445.69 C73.23 449.1 69.45 451.69 67.06 458.5 C65.88 463.93 65.82 468.6 67 474 C69.66 488.41 68.24 497.53 61.1 510.03 C59.32 513.21 57.78 516.5 56.25 519.81 C55.96 520.43 55.67 521.05 55.38 521.69 C52.21 528.59 49.36 535.51 48 543 C48.64 543.27 49.28 543.54 49.94 543.81 C52 545 52 545 53 548 C49.42 550.18 45.83 552.33 42.22 554.46 C41 555.19 39.78 555.93 38.56 556.67 C36.81 557.73 35.04 558.78 33.27 559.82 C32.22 560.45 31.16 561.08 30.07 561.74 C26.46 563.22 24.7 563.1 21 562 C18.12 559.94 18.12 559.94 16 558 C16.52 557.2 17.04 556.4 17.57 555.58 C28.74 538 35.94 518.57 32.42 497.54 C31.22 492.38 29.81 487.52 27 483 C26.34 482.67 25.68 482.34 25 482 C24.77 482.58 24.55 483.15 24.32 483.75 C20.65 490.03 12.17 494.78 5.24 496.66 C-2.44 497.83 -8.21 496.02 -14.63 491.78 C-21.45 486.65 -26.52 480.31 -31.41 473.39 C-33.93 469.94 -35.83 468.07 -40 467 C-42.33 466.92 -44.67 466.91 -47 467 C-49.05 473.15 -47.95 478.76 -46.45 484.88 C-45.87 487.61 -45.86 490.22 -46 493 C-52.21 487.89 -56.39 479.85 -58 472 C-58 469.97 -58 467.94 -57.98 465.91 C-57.92 458.81 -57.92 458.81 -60.79 452.55 C-65.74 449.04 -70.06 448.28 -76 449 C-79.88 450.29 -80.89 451.5 -83 455 C-84.06 460.86 -82.6 466.19 -80.75 471.74 C-79.45 475.64 -78.89 478.87 -79 483 C-80.46 482.52 -81.92 482.04 -83.38 481.56 C-84.59 481.16 -84.59 481.16 -85.84 480.75 C-88 480 -88 480 -90 479 C-89.81 479.62 -89.63 480.24 -89.44 480.88 C-89 483 -89 483 -90 485 C-97.41 483.99 -101.95 478.57 -106.38 472.88 C-110.78 466.95 -111.31 462.12 -110.94 454.94 C-110.92 454.14 -110.91 453.33 -110.89 452.51 C-110.7 448.61 -110.58 446.64 -107.9 443.68 C-104.53 441.73 -101.13 439.88 -97.62 438.19 C-96.93 437.85 -96.24 437.51 -95.53 437.16 C-67.8 423.59 -67.8 423.59 -57.14 426.88 C-43.43 433.08 -32.65 445.05 -22.37 455.71 C-17.7 460.52 -17.7 460.52 -12 464 C-5.92 464 -3.22 462.01 1 458 C-0.35 454.18 -2.08 451.38 -4.56 448.19 C-9.34 441.77 -13.15 434.91 -16.96 427.88 C-18 426 -19.07 424.15 -20.16 422.3 C-21.63 419.66 -22.76 417.27 -23.75 414.44 C-27.77 404.08 -33.79 390.67 -44.31 385.75 C-47.39 384.52 -50.51 383.53 -53.69 382.56 C-66.23 378.4 -73.29 364.37 -78.95 353.22 C-81.34 348.35 -83.63 343.44 -85.88 338.5 C-86.26 337.66 -86.64 336.83 -87.03 335.96 C-88.56 332.54 -89.92 329.27 -90.95 325.66 C-92.19 321.36 -93.89 317.37 -95.64 313.25 C-112.29 273.44 -119.07 236.19 -102.75 195.11 C-95.77 178.31 -85.95 163.76 -73.45 150.62 C-71.16 148.17 -69.06 145.65 -67 143 C-67.82 142.96 -68.65 142.92 -69.5 142.88 C-75.13 141.47 -79.24 138.5 -82.59 133.74 C-86.1 127.58 -87.76 122.19 -87 115 C-85.27 110.27 -83.21 107.73 -79 105 C-76.3 104.63 -73.94 104.45 -71.25 104.44 C-64.95 104.24 -59.85 103.38 -54 101 C-53.01 100.67 -52.02 100.34 -51 100 C-50.5 97.67 -50.5 97.67 -51 95 C-52.97 93.62 -54.98 92.3 -57 91 C-61.23 86.22 -64 81.48 -64 75 C-55.81 75 -50.2 78.25 -43.26 82.19 C-40.13 84.06 -40.13 84.06 -37 85 C-45.49 77.92 -54.7 73.19 -65.86 72.68 C-66.75 72.64 -67.64 72.6 -68.55 72.56 C-69.46 72.52 -70.37 72.48 -71.31 72.44 C-72.71 72.37 -72.71 72.37 -74.13 72.31 C-76.42 72.2 -78.71 72.1 -81 72 C-78.65 65.37 -74.25 60.9 -68.06 57.56 C-60.24 54.4 -50.1 55.27 -42 57 C-42.08 56.16 -42.16 55.31 -42.24 54.44 C-43.94 36.64 -45.57 18.83 -47 1 C-43.24 2.55 -40.93 4.88 -38.12 7.79 C-36.74 9.2 -36.74 9.2 -35.33 10.64 C-33.88 12.14 -32.43 13.64 -30.98 15.14 C-29.57 16.59 -28.16 18.03 -26.75 19.48 C-25.91 20.34 -25.07 21.21 -24.2 22.1 C-22.11 24.33 -22.11 24.33 -19 24 C-17.14 21.92 -15.48 19.86 -13.81 17.62 C-12.83 16.34 -11.85 15.06 -10.88 13.78 C-10.39 13.14 -9.91 12.51 -9.41 11.85 C-7.42 9.24 -5.37 6.68 -3.31 4.12 C-2.67 3.32 -2.03 2.52 -1.36 1.7 C-0.91 1.14 -0.46 0.58 0 0 Z " fill="#FEFEFE" transform="translate(274,62)"/>
<path d="M0 0 C1 -0.01 2 -0.01 3.03 -0.02 C6.4 -0.03 9.78 -0.02 13.15 -0 C15.59 -0.01 18.02 -0.02 20.45 -0.02 C25.76 -0.04 31.06 -0.04 36.37 -0.03 C44.26 -0.01 52.15 -0.02 60.03 -0.03 C74.12 -0.05 88.21 -0.05 102.29 -0.04 C114.62 -0.03 126.95 -0.03 139.28 -0.03 C140.1 -0.03 140.91 -0.03 141.76 -0.03 C145.07 -0.03 148.39 -0.04 151.7 -0.04 C182.83 -0.05 213.95 -0.04 245.08 -0.02 C272.74 0 300.41 0 328.07 -0.02 C359.14 -0.04 390.21 -0.05 421.27 -0.04 C424.58 -0.03 427.89 -0.03 431.2 -0.03 C432.02 -0.03 432.83 -0.03 433.67 -0.03 C445.99 -0.03 458.31 -0.03 470.64 -0.04 C484.64 -0.05 498.65 -0.05 512.66 -0.03 C520.5 -0.02 528.35 -0.02 536.19 -0.03 C542.04 -0.04 547.89 -0.03 553.73 -0.01 C556.11 -0.01 558.48 -0.01 560.85 -0.02 C564.07 -0.03 567.28 -0.02 570.49 0 C571.89 -0.01 571.89 -0.01 573.31 -0.03 C577.51 0.02 579.72 0.14 583.36 2.41 C586.73 6.03 586.45 9.01 586.44 13.73 C586.45 14.49 586.45 15.24 586.45 16.02 C586.46 18.59 586.46 21.15 586.46 23.71 C586.47 25.56 586.47 27.4 586.47 29.25 C586.49 34.34 586.49 39.44 586.5 44.53 C586.5 50.02 586.51 55.5 586.53 60.99 C586.55 74.25 586.56 87.51 586.58 100.78 C586.58 104.52 586.58 108.27 586.59 112.02 C586.61 135.28 586.64 158.54 586.65 181.8 C586.65 187.2 586.65 192.59 586.66 197.98 C586.66 198.65 586.66 199.32 586.66 200.01 C586.67 221.7 586.7 243.4 586.74 265.09 C586.79 288.03 586.81 310.98 586.82 333.92 C586.82 346.42 586.83 358.93 586.87 371.43 C586.89 382.08 586.91 392.74 586.89 403.39 C586.89 408.82 586.89 414.25 586.92 419.68 C586.94 424.67 586.94 429.65 586.92 434.63 C586.92 436.43 586.92 438.22 586.94 440.01 C587.06 454.9 584.58 468.66 577.43 481.94 C577.09 482.6 576.74 483.26 576.39 483.94 C562.91 509.19 539.72 523.12 514.67 535.3 C508.42 538.37 502.36 541.76 496.31 545.19 C495.34 545.74 494.37 546.28 493.37 546.85 C488.56 549.59 483.81 552.4 479.12 555.37 C472.26 559.67 465.16 563.66 457.87 567.19 C451.67 570.23 445.69 573.61 439.68 577 C438.72 577.55 437.75 578.1 436.76 578.66 C431.31 581.75 425.91 584.92 420.55 588.15 C412.6 592.94 404.57 597.43 396.25 601.5 C390.27 604.43 384.63 607.67 379 611.23 C373.39 614.74 367.58 617.95 361.82 621.2 C357.91 623.42 354.05 625.65 350.3 628.12 C347.42 629.95 344.58 631.26 341.4 632.47 C336.17 634.46 331.61 637.12 326.87 640.07 C326.01 640.58 325.14 641.1 324.26 641.63 C319.95 644.22 315.75 646.86 311.63 649.73 C300.22 657.44 289.85 659.99 276.07 658.1 C269.33 656.64 264.08 652.99 258.55 649.04 C254.27 646.11 249.7 643.66 245.18 641.13 C243.45 640.14 241.72 639.16 239.99 638.17 C239.18 637.71 238.38 637.26 237.55 636.79 C236.16 635.99 234.77 635.18 233.38 634.37 C230.59 632.73 227.85 631.31 224.87 630.05 C220.77 628.27 217.06 626.12 213.25 623.82 C211.74 622.92 210.23 622.02 208.73 621.12 C207.98 620.68 207.24 620.24 206.47 619.78 C203.35 617.94 200.21 616.16 197.06 614.38 C192.62 611.87 188.29 609.24 184 606.5 C179.21 603.52 174.37 601.07 169.25 598.75 C161.89 595.42 155.06 591.49 148.17 587.28 C134.02 578.63 119.53 570.5 104.77 562.92 C100.02 560.47 95.43 557.82 90.86 555.04 C86.67 552.52 82.43 550.11 78.18 547.69 C76.82 546.91 76.82 546.91 75.43 546.12 C73.59 545.08 71.75 544.03 69.91 542.98 C67.54 541.64 65.18 540.29 62.81 538.94 C57.04 535.66 51.29 532.45 45.31 529.57 C33.88 523.95 22.82 516.99 13.31 508.5 C12.33 507.64 11.36 506.79 10.35 505.9 C4.72 500.75 0.21 495.4 -3.57 488.75 C-3.9 488.17 -4.23 487.59 -4.58 486.99 C-5.71 484.86 -6.7 482.7 -7.69 480.5 C-8.43 478.88 -8.43 478.88 -9.19 477.23 C-13.83 466.41 -14.54 456.81 -14.44 445.14 C-14.45 443.23 -14.45 441.33 -14.47 439.42 C-14.49 434.22 -14.47 429.02 -14.45 423.82 C-14.43 418.19 -14.45 412.57 -14.46 406.94 C-14.48 395.94 -14.47 384.94 -14.44 373.94 C-14.41 361.14 -14.42 348.33 -14.42 335.52 C-14.43 311.98 -14.4 288.45 -14.36 264.91 C-14.32 243.43 -14.31 221.94 -14.32 200.46 C-14.32 199.08 -14.33 197.7 -14.33 196.32 C-14.33 195.63 -14.33 194.95 -14.33 194.25 C-14.33 190.81 -14.33 187.37 -14.33 183.93 C-14.33 183.25 -14.33 182.58 -14.33 181.88 C-14.34 163.91 -14.33 145.95 -14.31 127.98 C-14.31 125.41 -14.31 122.84 -14.31 120.26 C-14.3 119 -14.3 117.73 -14.3 116.43 C-14.29 107.49 -14.29 98.56 -14.3 89.63 C-14.3 78.75 -14.29 67.88 -14.26 57.01 C-14.25 51.46 -14.24 45.91 -14.25 40.36 C-14.26 35.28 -14.25 30.21 -14.22 25.13 C-14.22 23.29 -14.22 21.45 -14.23 19.61 C-14.24 17.12 -14.22 14.63 -14.2 12.13 C-14.21 11.41 -14.22 10.69 -14.23 9.94 C-14.18 6.84 -13.84 4.75 -12.27 2.06 C-8.29 -0.35 -4.57 -0.05 0 0 Z M17.31 33.5 C17.2 35.72 17.17 37.95 17.16 40.17 C17.16 40.88 17.16 41.59 17.16 42.32 C17.15 44.73 17.14 47.13 17.14 49.54 C17.13 51.27 17.13 53 17.12 54.73 C17.11 59.51 17.1 64.28 17.09 69.06 C17.08 73.16 17.07 77.25 17.06 81.34 C17.02 96.01 16.99 110.68 16.96 125.35 C16.96 126.51 16.96 127.67 16.96 128.86 C16.92 151.85 16.88 174.83 16.86 197.82 C16.86 202.88 16.85 207.94 16.85 213 C16.85 214.26 16.85 215.51 16.84 216.81 C16.82 237.15 16.77 257.5 16.71 277.84 C16.65 298.73 16.62 319.62 16.61 340.51 C16.6 352.23 16.58 363.96 16.54 375.69 C16.5 385.68 16.48 395.68 16.49 405.67 C16.5 410.77 16.5 415.86 16.46 420.96 C16.43 425.63 16.43 430.31 16.45 434.98 C16.46 436.66 16.45 438.34 16.43 440.03 C16.25 454.9 20.05 468.23 30.31 479.5 C30.78 480.07 31.26 480.63 31.75 481.21 C40.12 490.47 52.43 496.28 63.27 502.14 C68.98 505.24 68.98 505.24 71.58 507.29 C73.5 508.89 73.5 508.89 77.31 508.5 C77.31 509.16 77.31 509.82 77.31 510.5 C79.62 511.16 81.93 511.82 84.31 512.5 C84.31 513.16 84.31 513.82 84.31 514.5 C85.53 515.09 85.53 515.09 86.77 515.68 C94.16 519.29 101.28 523.17 108.34 527.38 C121.08 534.96 133.91 542.47 147.25 548.93 C156.29 553.57 164.98 558.93 173.71 564.12 C180.54 568.18 187.39 572.14 194.43 575.82 C201.11 579.3 207.69 582.92 214.25 586.63 C215.2 587.17 216.15 587.71 217.13 588.26 C222.53 591.32 227.89 594.43 233.24 597.57 C234.41 598.25 235.58 598.93 236.75 599.62 C238.98 600.93 241.21 602.24 243.44 603.57 C249.3 606.99 254.78 609.63 261.31 611.5 C261.31 612.16 261.31 612.82 261.31 613.5 C262.04 613.89 262.04 613.89 262.79 614.28 C265.02 615.46 267.26 616.64 269.5 617.82 C270.26 618.22 271.03 618.62 271.83 619.04 C272.95 619.64 272.95 619.64 274.1 620.24 C274.83 620.63 275.57 621.01 276.32 621.41 C278.31 622.5 278.31 622.5 280.98 624.36 C284.18 625.93 285.87 625.33 289.31 624.5 C292.25 623.13 292.25 623.13 295.14 621.34 C296.21 620.71 297.27 620.09 298.37 619.44 C299.46 618.78 300.55 618.12 301.68 617.44 C302.8 616.78 303.92 616.11 305.07 615.43 C307.82 613.8 310.57 612.15 313.31 610.5 C312.52 608.5 312.52 608.5 311.31 606.5 C310.32 606.17 309.33 605.84 308.31 605.5 C312.32 590.95 318.44 577.71 325.71 564.52 C328.18 559.87 328.5 556.09 328.5 550.94 C328.5 550.22 328.5 549.51 328.5 548.77 C328.45 543.85 327.81 539.38 326.7 534.59 C326.09 531.33 326.57 528.72 327.31 525.5 C327.43 524.68 327.54 523.86 327.67 523.02 C328.77 517.17 330.18 513.98 335.1 510.5 C337.07 509.28 339.05 508.1 341.06 506.94 C343.16 505.65 345.27 504.36 347.37 503.07 C348.39 502.45 349.42 501.84 350.47 501.21 C354.07 499.05 357.57 496.78 361.06 494.44 C361.92 493.87 361.92 493.87 362.8 493.28 C394.8 472.12 394.8 472.12 417.5 442.07 C419.31 438.5 419.31 438.5 422.31 436.5 C430.32 436.5 435.47 439.98 441.26 445.29 C450.1 454.62 452.19 465.15 453.31 477.5 C461.42 474.22 465.21 464.1 468.46 456.56 C468.74 455.88 469.02 455.2 469.31 454.5 C471.77 461.21 471.64 467.74 471.62 474.82 C471.64 475.99 471.65 477.16 471.67 478.37 C471.67 489.14 470.13 498.26 462.56 506.38 C462.15 506.75 461.73 507.12 461.31 507.5 C469.81 506.47 476.1 500.93 481.31 494.5 C494.08 474.96 499.88 451.84 499.31 428.5 C508.17 435.04 513.82 443.75 516.31 454.5 C517.74 469.57 513.81 480.3 505.31 492.5 C504.65 493.49 503.99 494.48 503.31 495.5 C507.56 493.85 510.43 490.69 513.56 487.5 C514.14 486.92 514.71 486.33 515.31 485.73 C527.62 473.09 536.09 459 542.31 442.5 C542.65 441.61 542.99 440.72 543.34 439.8 C547.75 425.77 547.02 407.4 542.31 393.5 C541.78 391.9 541.78 391.9 541.24 390.26 C535.01 372.78 523.78 358.08 510.31 345.5 C516.23 346.76 520.96 348.6 526.18 351.63 C526.88 352.03 527.57 352.42 528.29 352.83 C534.07 356.21 539.25 360.11 544.31 364.5 C545.47 365.44 546.64 366.38 547.81 367.32 C550.31 369.5 550.31 369.5 552.31 372.5 C552.97 372.5 553.63 372.5 554.31 372.5 C554.33 348.99 554.35 325.48 554.36 301.97 C554.36 291.03 554.37 280.1 554.38 269.16 C554.4 256.38 554.4 243.59 554.41 230.8 C554.41 229.18 554.41 229.18 554.41 227.53 C554.4 162.52 553.84 97.51 553.31 32.5 C502.32 32.49 451.33 32.47 400.33 32.46 C399.58 32.46 398.83 32.46 398.05 32.46 C381.66 32.46 365.28 32.45 348.89 32.45 C340.86 32.45 332.82 32.45 324.79 32.45 C323.59 32.45 323.59 32.45 322.36 32.45 C296.42 32.44 270.48 32.44 244.54 32.43 C217.89 32.42 191.24 32.41 164.6 32.41 C160.84 32.41 157.08 32.41 153.32 32.41 C152.58 32.41 151.84 32.41 151.08 32.41 C139.14 32.41 127.21 32.4 115.27 32.4 C103.29 32.39 91.3 32.39 79.32 32.39 C72.82 32.39 66.32 32.39 59.82 32.38 C53.88 32.38 47.94 32.38 42 32.38 C39.85 32.38 37.69 32.38 35.53 32.38 C32.61 32.37 29.7 32.38 26.79 32.38 C25.93 32.38 25.07 32.38 24.19 32.37 C20.45 32.02 20.45 32.02 17.31 33.5 Z " fill="#E3B127" transform="translate(13.692473411560059,-0.5033645629882813)"/>
<path d="M0 0 C1 -0.01 2 -0.01 3.03 -0.02 C6.4 -0.03 9.78 -0.02 13.15 -0 C15.59 -0.01 18.02 -0.02 20.45 -0.02 C25.76 -0.04 31.06 -0.04 36.37 -0.03 C44.26 -0.01 52.15 -0.02 60.03 -0.03 C74.12 -0.05 88.21 -0.05 102.29 -0.04 C114.62 -0.03 126.95 -0.03 139.28 -0.03 C140.1 -0.03 140.91 -0.03 141.76 -0.03 C145.07 -0.03 148.39 -0.04 151.7 -0.04 C182.83 -0.05 213.95 -0.04 245.08 -0.02 C272.74 0 300.41 0 328.07 -0.02 C359.14 -0.04 390.21 -0.05 421.27 -0.04 C424.58 -0.03 427.89 -0.03 431.2 -0.03 C432.02 -0.03 432.83 -0.03 433.67 -0.03 C445.99 -0.03 458.31 -0.03 470.64 -0.04 C484.64 -0.05 498.65 -0.05 512.66 -0.03 C520.5 -0.02 528.35 -0.02 536.19 -0.03 C542.04 -0.04 547.89 -0.03 553.73 -0.01 C556.11 -0.01 558.48 -0.01 560.85 -0.02 C564.07 -0.03 567.28 -0.02 570.49 0 C571.89 -0.01 571.89 -0.01 573.31 -0.03 C577.51 0.02 579.72 0.14 583.36 2.41 C586.73 6.03 586.45 9.01 586.44 13.73 C586.45 14.49 586.45 15.24 586.45 16.02 C586.46 18.59 586.46 21.15 586.46 23.71 C586.47 25.56 586.47 27.4 586.47 29.25 C586.49 34.34 586.49 39.44 586.5 44.53 C586.5 50.02 586.51 55.5 586.53 60.99 C586.55 74.25 586.56 87.51 586.58 100.78 C586.58 104.52 586.58 108.27 586.59 112.02 C586.61 135.28 586.64 158.54 586.65 181.8 C586.65 187.2 586.65 192.59 586.66 197.98 C586.66 198.65 586.66 199.32 586.66 200.01 C586.67 221.7 586.7 243.4 586.74 265.09 C586.79 288.03 586.81 310.98 586.82 333.92 C586.82 346.42 586.83 358.93 586.87 371.43 C586.89 382.08 586.91 392.74 586.89 403.39 C586.89 408.82 586.89 414.25 586.92 419.68 C586.94 424.67 586.94 429.65 586.92 434.63 C586.92 436.43 586.92 438.22 586.94 440.01 C587.06 454.9 584.58 468.66 577.43 481.94 C577.09 482.6 576.74 483.26 576.39 483.94 C562.91 509.19 539.72 523.12 514.67 535.3 C508.42 538.37 502.36 541.76 496.31 545.19 C495.34 545.74 494.37 546.28 493.37 546.85 C488.56 549.59 483.81 552.4 479.12 555.37 C472.26 559.67 465.16 563.66 457.87 567.19 C451.67 570.23 445.69 573.61 439.68 577 C438.72 577.55 437.75 578.1 436.76 578.66 C431.31 581.75 425.91 584.92 420.55 588.15 C412.6 592.94 404.57 597.43 396.25 601.5 C390.27 604.43 384.63 607.67 379 611.23 C373.39 614.74 367.58 617.95 361.82 621.2 C357.91 623.42 354.05 625.65 350.3 628.12 C347.42 629.95 344.58 631.26 341.4 632.47 C336.17 634.46 331.61 637.12 326.87 640.07 C326.01 640.58 325.14 641.1 324.26 641.63 C319.95 644.22 315.75 646.86 311.63 649.73 C300.22 657.44 289.85 659.99 276.07 658.1 C269.33 656.64 264.08 652.99 258.55 649.04 C254.27 646.11 249.7 643.66 245.18 641.13 C243.45 640.14 241.72 639.16 239.99 638.17 C239.18 637.71 238.38 637.26 237.55 636.79 C236.16 635.99 234.77 635.18 233.38 634.37 C230.59 632.73 227.85 631.31 224.87 630.05 C220.77 628.27 217.06 626.12 213.25 623.82 C211.74 622.92 210.23 622.02 208.73 621.12 C207.98 620.68 207.24 620.24 206.47 619.78 C203.35 617.94 200.21 616.16 197.06 614.38 C192.62 611.87 188.29 609.24 184 606.5 C179.21 603.52 174.37 601.07 169.25 598.75 C161.89 595.42 155.06 591.49 148.17 587.28 C134.02 578.63 119.53 570.5 104.77 562.92 C100.02 560.47 95.43 557.82 90.86 555.04 C86.67 552.52 82.43 550.11 78.18 547.69 C76.82 546.91 76.82 546.91 75.43 546.12 C73.59 545.08 71.75 544.03 69.91 542.98 C67.54 541.64 65.18 540.29 62.81 538.94 C57.04 535.66 51.29 532.45 45.31 529.57 C33.88 523.95 22.82 516.99 13.31 508.5 C12.33 507.64 11.36 506.79 10.35 505.9 C4.72 500.75 0.21 495.4 -3.57 488.75 C-3.9 488.17 -4.23 487.59 -4.58 486.99 C-5.71 484.86 -6.7 482.7 -7.69 480.5 C-8.43 478.88 -8.43 478.88 -9.19 477.23 C-13.83 466.41 -14.54 456.81 -14.44 445.14 C-14.45 443.23 -14.45 441.33 -14.47 439.42 C-14.49 434.22 -14.47 429.02 -14.45 423.82 C-14.43 418.19 -14.45 412.57 -14.46 406.94 C-14.48 395.94 -14.47 384.94 -14.44 373.94 C-14.41 361.14 -14.42 348.33 -14.42 335.52 C-14.43 311.98 -14.4 288.45 -14.36 264.91 C-14.32 243.43 -14.31 221.94 -14.32 200.46 C-14.32 199.08 -14.33 197.7 -14.33 196.32 C-14.33 195.63 -14.33 194.95 -14.33 194.25 C-14.33 190.81 -14.33 187.37 -14.33 183.93 C-14.33 183.25 -14.33 182.58 -14.33 181.88 C-14.34 163.91 -14.33 145.95 -14.31 127.98 C-14.31 125.41 -14.31 122.84 -14.31 120.26 C-14.3 119 -14.3 117.73 -14.3 116.43 C-14.29 107.49 -14.29 98.56 -14.3 89.63 C-14.3 78.75 -14.29 67.88 -14.26 57.01 C-14.25 51.46 -14.24 45.91 -14.25 40.36 C-14.26 35.28 -14.25 30.21 -14.22 25.13 C-14.22 23.29 -14.22 21.45 -14.23 19.61 C-14.24 17.12 -14.22 14.63 -14.2 12.13 C-14.21 11.41 -14.22 10.69 -14.23 9.94 C-14.18 6.84 -13.84 4.75 -12.27 2.06 C-8.29 -0.35 -4.57 -0.05 0 0 Z M3.31 17.5 C3.27 89.73 3.23 161.96 3.18 236.38 C3.16 259.21 3.15 282.03 3.13 305.55 C3.12 325.97 3.12 325.97 3.12 346.39 C3.11 355.5 3.11 364.61 3.1 373.72 C3.08 384.23 3.08 394.74 3.08 405.24 C3.08 410.62 3.08 415.99 3.07 421.37 C3.06 426.23 3.06 431.09 3.07 435.95 C3.07 437.71 3.06 439.47 3.06 441.22 C2.98 463.17 8.67 478.75 24.31 494.5 C30.13 500.23 36.46 504.14 43.62 508 C44.7 508.6 45.78 509.19 46.9 509.81 C49.77 511.39 52.66 512.96 55.54 514.54 C60.81 517.42 66.06 520.34 71.31 523.25 C72.45 523.89 73.59 524.52 74.77 525.17 C80.9 528.57 86.98 532.03 93 535.63 C99.44 539.48 106 543.08 112.62 546.63 C121.76 551.54 130.81 556.59 139.81 561.75 C140.4 562.1 141 562.44 141.62 562.79 C144.49 564.44 147.36 566.09 150.24 567.74 C154.27 570.06 158.32 572.35 162.37 574.63 C164.03 575.56 164.03 575.56 165.72 576.51 C172.29 580.17 178.91 583.75 185.53 587.33 C195.48 592.72 205.38 598.2 215.14 603.94 C219.14 606.28 223.16 608.45 227.31 610.5 C228.17 611.1 229.04 611.7 229.93 612.32 C232.7 614.22 235.6 615.66 238.62 617.13 C243.7 619.62 248.57 622.36 253.43 625.25 C254.88 626.11 256.34 626.97 257.79 627.82 C260.09 629.18 262.38 630.55 264.67 631.93 C267.01 633.35 269.38 634.74 271.75 636.13 C272.45 636.57 273.16 637 273.89 637.46 C279.34 640.6 284.05 641.45 290.31 640.5 C293.66 639.27 293.66 639.27 296.62 637.25 C297.82 636.51 299.03 635.77 300.23 635.03 C300.88 634.63 301.52 634.22 302.19 633.8 C306.19 631.35 310.29 629.07 314.37 626.75 C316.17 625.73 317.97 624.7 319.78 623.67 C320.69 623.15 321.59 622.63 322.53 622.09 C325.32 620.49 328.11 618.89 330.9 617.28 C331.82 616.75 332.73 616.22 333.68 615.68 C335.4 614.68 337.13 613.69 338.85 612.69 C343.23 610.17 347.65 607.81 352.18 605.59 C358.39 602.52 364.35 599.09 370.31 595.57 C372.31 594.39 374.31 593.21 376.31 592.04 C377.78 591.17 377.78 591.17 379.28 590.29 C383.38 587.87 387.5 585.47 391.62 583.08 C393.41 582.03 395.19 580.97 396.96 579.88 C399.33 578.49 401.75 577.48 404.29 576.42 C408.57 574.47 412.6 572.03 416.68 569.69 C418.74 568.52 420.8 567.34 422.86 566.17 C423.92 565.57 424.99 564.96 426.08 564.34 C431.31 561.37 436.56 558.44 441.81 555.5 C449.82 551.02 457.82 546.53 465.81 542 C473.76 537.5 481.71 533.03 489.68 528.57 C490.71 527.99 491.74 527.41 492.8 526.82 C498.23 523.78 503.66 520.75 509.09 517.72 C510.21 517.1 511.32 516.47 512.47 515.83 C514.58 514.65 516.7 513.47 518.81 512.3 C540.68 500.08 559.83 486.02 567.18 460.75 C569.81 450.46 569.45 439.89 569.44 429.36 C569.44 427.61 569.44 425.86 569.44 424.11 C569.45 419.3 569.44 414.5 569.44 409.69 C569.44 405.51 569.44 401.32 569.44 397.14 C569.45 386.99 569.44 376.84 569.44 366.69 C569.43 357.89 569.43 349.1 569.44 340.31 C569.49 232.7 568.81 125.11 568.31 17.5 C381.86 17.5 195.41 17.5 3.31 17.5 Z " fill="#3A383F" transform="translate(13.692473411560059,-0.5033645629882813)"/>
<path d="M0 0 C13.26 1.66 25.17 10.42 35 19 C36.02 19.84 36.02 19.84 37.05 20.69 C44.78 27.08 44.78 27.08 45.37 32.22 C45.37 33.5 45.37 34.77 45.37 36.09 C45.38 36.79 45.38 37.5 45.38 38.23 C45.39 40.56 45.38 42.89 45.36 45.23 C45.36 46.86 45.36 48.49 45.36 50.11 C45.36 53.53 45.35 56.95 45.34 60.37 C45.31 64.73 45.31 69.08 45.32 73.44 C45.32 76.81 45.32 80.18 45.31 83.55 C45.3 85.15 45.3 86.76 45.3 88.36 C45.31 108.82 40.8 124.72 26.42 139.88 C21.97 144.29 17.12 147.18 11.62 150.12 C10.64 150.67 9.65 151.22 8.63 151.78 C5.43 153.54 2.22 155.27 -1 157 C-2.1 157.59 -3.2 158.18 -4.33 158.79 C-8.79 161.19 -13.25 163.59 -17.72 165.98 C-24.46 169.59 -31.1 173.33 -37.67 177.25 C-51.79 185.67 -66.2 193.59 -80.66 201.41 C-87.54 205.15 -94.31 209.08 -101.06 213.06 C-109.28 217.91 -117.59 222.46 -126.07 226.82 C-133.82 230.83 -141.31 235.22 -148.81 239.65 C-158.87 245.56 -169.11 251.1 -179.4 256.59 C-182.71 258.38 -185.97 260.24 -189.22 262.11 C-191 263 -191 263 -193 263 C-193 263.66 -193 264.32 -193 265 C-196.36 264.4 -198.38 263.15 -201 261 C-200.49 254.76 -199 249.78 -196.5 244.06 C-196.15 243.25 -195.8 242.43 -195.44 241.59 C-192.26 234.31 -188.61 227.31 -184.79 220.34 C-182.22 215.53 -181.81 211.78 -181.81 206.44 C-181.81 205.72 -181.81 205 -181.81 204.26 C-181.85 199.35 -182.5 194.88 -183.61 190.09 C-184.22 186.82 -183.73 184.22 -183 181 C-182.87 180.13 -182.74 179.26 -182.61 178.37 C-181.58 172.96 -180.38 169.68 -175.81 166.44 C-173.89 165.26 -171.95 164.12 -170 163 C-167.53 161.5 -165.08 159.97 -162.62 158.44 C-161.62 157.81 -161.62 157.81 -160.59 157.18 C-140.97 144.96 -121.5 131.25 -105 115 C-104.24 114.25 -103.48 113.51 -102.7 112.74 C-98.03 107.84 -95.14 102.79 -92.42 96.6 C-90.9 93.81 -89.76 92.54 -87 91 C-78.89 90.86 -73.64 94.63 -67.83 100.01 C-60.45 107.73 -55.81 117 -55.94 127.75 C-55.95 128.73 -55.96 129.72 -55.96 130.73 C-55.98 131.86 -55.98 131.86 -56 133 C-47.74 127.02 -43.72 117.59 -41 108 C-36.1 112.9 -36.72 120.23 -36.68 126.72 C-36.68 127.91 -36.68 129.09 -36.69 130.31 C-36.67 131.48 -36.66 132.66 -36.64 133.87 C-36.63 144.44 -38.16 152.76 -45 161 C-45.66 161.33 -46.32 161.66 -47 162 C-39.6 160.82 -33.51 155.7 -29 150 C-15.69 129.42 -12.51 107.98 -10 84 C-1.06 88.27 3.26 97.21 7 106 C10.31 115.87 8.33 127.84 4 137 C2.23 140.06 0.38 143 -1.61 145.92 C-3.09 147.72 -3.09 147.72 -3 149 C12.63 133.8 24.25 118.56 32 98 C32.34 97.11 32.68 96.22 33.04 95.3 C37.45 81.26 36.71 62.89 32 49 C31.65 47.93 31.3 46.86 30.93 45.76 C24.96 29.01 14.42 14.74 1.58 2.57 C1.06 2.05 0.54 1.54 0 1 C0 0.67 0 0.34 0 0 Z " fill="#3B3941" transform="translate(523,344)"/>
<path d="M0 0 C1.28 0 1.28 0 2.59 0.01 C3.5 0.01 4.4 0.01 5.33 0 C8.4 0 11.47 0.01 14.55 0.01 C16.75 0.01 18.96 0.01 21.17 0.01 C27.27 0.01 33.36 0.01 39.46 0.01 C45.35 0.02 51.24 0.02 57.13 0.02 C69.19 0.02 81.24 0.02 93.3 0.03 C105.24 0.03 117.18 0.04 129.13 0.04 C129.87 0.04 130.61 0.04 131.37 0.04 C135.14 0.04 138.91 0.04 142.67 0.04 C169.37 0.04 196.07 0.05 222.77 0.06 C248.71 0.06 274.65 0.07 300.59 0.08 C301.39 0.08 302.19 0.08 303.01 0.08 C311.04 0.08 319.07 0.08 327.09 0.08 C343.44 0.08 359.79 0.09 376.14 0.09 C376.89 0.09 377.64 0.09 378.42 0.09 C428.65 0.1 478.88 0.11 529.11 0.13 C529.11 0.46 529.11 0.79 529.11 1.13 C353.22 1.46 177.33 1.79 -3.89 2.13 C-4.71 29.61 -4.71 29.61 -5.04 57.08 C-5.05 58.7 -5.05 60.31 -5.06 61.93 C-5.07 66.24 -5.08 70.55 -5.09 74.86 C-5.09 79.56 -5.11 84.26 -5.12 88.95 C-5.14 97.05 -5.16 105.14 -5.18 113.24 C-5.2 124.94 -5.23 136.64 -5.26 148.34 C-5.3 167.34 -5.35 186.34 -5.39 205.34 C-5.43 223.76 -5.47 242.19 -5.51 260.62 C-5.52 262.33 -5.52 262.33 -5.52 264.07 C-5.53 269.8 -5.55 275.52 -5.56 281.24 C-5.68 328.54 -5.78 375.84 -5.89 423.13 C-6.22 423.13 -6.55 423.13 -6.89 423.13 C-6.91 369.39 -6.93 315.64 -6.94 261.9 C-6.94 255.56 -6.94 249.23 -6.94 242.89 C-6.94 241.63 -6.94 240.36 -6.94 239.06 C-6.95 218.61 -6.95 198.15 -6.96 177.69 C-6.97 156.71 -6.98 135.73 -6.98 114.76 C-6.98 101.8 -6.99 88.85 -6.99 75.89 C-7 67.02 -7 58.15 -7 49.28 C-7 44.15 -7 39.03 -7 33.9 C-7.01 29.22 -7.01 24.53 -7.01 19.85 C-7.01 18.15 -7.01 16.44 -7.01 14.74 C-7.01 12.44 -7.01 10.14 -7.01 7.84 C-7.01 6.56 -7.01 5.28 -7.01 3.96 C-6.79 -1.1 -4.49 0.01 0 0 Z " fill="#63573C" transform="translate(37.88531747460365,31.868991523981094)"/>
<path d="M0 0 C2.62 2.88 2.62 2.88 4 5 C0.37 3.67 -2.94 1.97 -6.32 0.08 C-12.49 -3.37 -17.91 -6 -25 -7 C-25 -7.33 -25 -7.66 -25 -8 C-15.87 -10.57 -7.25 -5.21 0 0 Z " fill="#68676E" transform="translate(235,144)"/>
<path d="M0 0 C0.66 0.33 1.32 0.66 2 1 C-2.62 5.62 -7.24 10.24 -12 15 C-12.66 14.67 -13.32 14.34 -14 14 C-12.42 12.23 -10.84 10.46 -9.25 8.69 C-8.81 8.19 -8.36 7.69 -7.91 7.17 C-5.45 4.45 -3.03 2.07 0 0 Z " fill="#E7E7E8" transform="translate(470,232)"/>
<path d="M0 0 C0.33 0.66 0.66 1.32 1 2 C1.66 2.33 2.32 2.66 3 3 C0.03 5.97 -2.94 8.94 -6 12 C-6.66 11.67 -7.32 11.34 -8 11 C-7.51 10.37 -7.01 9.75 -6.5 9.1 C-5.54 7.88 -5.54 7.88 -4.56 6.62 C-3.92 5.81 -3.29 5 -2.63 4.16 C-0.98 2.11 -0.98 2.11 0 0 Z " fill="#C2C2C4" transform="translate(525,483)"/>
<path d="M0 0 C0.33 0 0.66 0 1 0 C1.25 2.42 1.48 4.83 1.69 7.25 C1.76 7.93 1.83 8.61 1.91 9.32 C2.18 12.63 2.25 14.59 0.52 17.48 C0.02 17.98 -0.48 18.48 -1 19 C-1.1 12.58 -0.75 6.37 0 0 Z " fill="#7E7D82" transform="translate(320,76)"/>
<path d="M0 0 C3.96 0.99 3.96 0.99 8 2 C5.67 3.21 3.5 4.17 1 5 C1 5.66 1 6.32 1 7 C0.01 6.67 -0.98 6.34 -2 6 C-1.34 6 -0.68 6 0 6 C0 4.02 0 2.04 0 0 Z " fill="#7A797E" transform="translate(184,541)"/>
<path d="M0 0 C0.66 0.33 1.32 0.66 2 1 C-0.54 3.97 -3.49 5.36 -7 7 C-7.66 6.34 -8.32 5.68 -9 5 C-7.55 4.14 -6.09 3.28 -4.62 2.44 C-3.41 1.72 -3.41 1.72 -2.16 1 C-1.45 0.67 -0.74 0.34 0 0 Z " fill="#5B503A" transform="translate(537,508)"/>
<path d="M0 0 C4.46 0.99 4.46 0.99 9 2 C7.68 2.33 6.36 2.66 5 3 C4.67 3.66 4.34 4.32 4 5 C2.68 3.35 1.36 1.7 0 0 Z " fill="#6D6C72" transform="translate(523,344)"/>
<path d="M0 0 C0.99 1.32 1.98 2.64 3 4 C0.65 5.43 -0.48 6.09 -3.25 5.62 C-3.83 5.42 -4.4 5.21 -5 5 C-3.35 3.35 -1.7 1.7 0 0 Z " fill="#C0C0C2" transform="translate(480,501)"/>
</svg>
