<?xml version="1.0" encoding="UTF-8"?>
<!-- Generator: https://ezgif.com/png-to-svg -->
<svg version="1.1" xmlns="http://www.w3.org/2000/svg" width="512" height="512" viewBox="10.495 9.926 208.186 208.186" preserveAspectRatio="xMidYMid meet">
<path d="M0 0 C0.83 0.61 1.66 1.21 2.51 1.84 C3.77 2.74 3.77 2.74 5.05 3.67 C23.96 18.03 36 38.87 40.1 62.19 C43.04 88.29 36.5 112.91 20.14 133.65 C4.97 151.3 -16.19 163.26 -39.49 165.84 C-53.07 166.61 -66.81 166.29 -79.49 160.84 C-79.49 157.87 -79.49 154.9 -79.49 151.84 C-78.43 152.11 -77.36 152.39 -76.27 152.68 C-74.84 153.04 -73.42 153.41 -71.99 153.77 C-71.29 153.96 -70.6 154.14 -69.88 154.33 C-48.64 159.73 -27.73 156.38 -8.53 146.28 C9.93 135.25 23.36 117.71 28.89 96.9 C34.26 75.44 31.31 54.19 20.88 34.81 C9.75 16.4 -7.1 3.6 -27.61 -2.54 C-37.44 -4.57 -47.5 -5.26 -57.49 -6.16 C-57.49 31.79 -57.49 69.74 -57.49 108.84 C-39.67 108.84 -21.85 108.84 -3.49 108.84 C1.51 112.84 1.51 112.84 2.51 114.84 C2.95 119.12 2.96 122.78 1.26 126.77 C-1.38 129.89 -3.43 130.74 -7.52 131.1 C-8.7 131.1 -9.89 131.11 -11.11 131.11 C-11.76 131.12 -12.42 131.12 -13.09 131.13 C-15.25 131.14 -17.42 131.14 -19.58 131.14 C-21.09 131.14 -22.59 131.14 -24.1 131.15 C-27.26 131.16 -30.41 131.16 -33.57 131.15 C-37.61 131.15 -41.65 131.16 -45.69 131.19 C-48.8 131.2 -51.91 131.2 -55.02 131.2 C-56.51 131.2 -58 131.2 -59.49 131.21 C-61.57 131.23 -63.66 131.22 -65.74 131.21 C-66.93 131.21 -68.11 131.21 -69.33 131.21 C-72.84 130.79 -74.68 129.95 -77.49 127.84 C-79.53 124.77 -79.74 124.14 -79.77 120.68 C-79.78 119.83 -79.79 118.99 -79.8 118.12 C-79.8 117.19 -79.8 116.27 -79.81 115.32 C-79.82 114.34 -79.83 113.36 -79.84 112.36 C-79.87 109.13 -79.89 105.9 -79.9 102.67 C-79.92 100.43 -79.94 98.19 -79.96 95.95 C-80.01 90.06 -80.05 84.17 -80.09 78.27 C-80.13 72.26 -80.18 66.25 -80.23 60.24 C-80.33 48.44 -80.41 36.64 -80.49 24.84 C-82.14 24.51 -83.79 24.18 -85.49 23.84 C-85.49 67.73 -85.49 111.62 -85.49 156.84 C-86.15 157.17 -86.81 157.5 -87.49 157.84 C-106.49 150.13 -123.1 133.05 -131.53 114.54 C-140.04 94.24 -142.84 72.22 -136.49 50.84 C-136 49.13 -136 49.13 -135.49 47.4 C-127.59 22.89 -110.27 5.46 -87.73 -6.18 C-82.63 -8.68 -77.23 -11.16 -71.49 -11.16 C-71.49 -8.52 -71.49 -5.88 -71.49 -3.16 C-72.19 -2.9 -72.9 -2.63 -73.62 -2.35 C-96.81 6.85 -113.02 20.48 -123.95 43.21 C-127.38 51.29 -130.1 60.01 -130.49 68.84 C-130.54 69.84 -130.59 70.84 -130.64 71.87 C-131.3 96.1 -122.66 116.28 -106.43 134.01 C-104.21 136.26 -101.84 138.14 -99.3 140.01 C-98.59 140.54 -97.87 141.08 -97.13 141.62 C-96.59 142.02 -96.05 142.42 -95.49 142.84 C-95.49 142.23 -95.48 141.62 -95.48 140.99 C-95.42 126.2 -95.35 111.4 -95.25 96.6 C-95.21 89.44 -95.17 82.29 -95.14 75.13 C-95.12 68.89 -95.09 62.65 -95.04 56.42 C-95.02 53.11 -95 49.81 -94.99 46.51 C-94.98 42.82 -94.95 39.13 -94.92 35.44 C-94.92 34.35 -94.92 33.26 -94.93 32.13 C-94.86 26.66 -94.71 22.49 -91.49 17.84 C-87.04 14.87 -82.7 15.07 -77.49 15.84 C-74.08 18.36 -72.82 19.84 -71.49 23.84 C-71.39 25.19 -71.34 26.56 -71.33 27.92 C-71.32 28.75 -71.31 29.57 -71.3 30.43 C-71.29 31.33 -71.29 32.24 -71.28 33.17 C-71.27 34.13 -71.26 35.09 -71.25 36.07 C-71.22 39.24 -71.2 42.4 -71.17 45.57 C-71.15 47.76 -71.13 49.95 -71.11 52.15 C-71.05 57.92 -71 63.7 -70.96 69.47 C-70.9 76.4 -70.83 83.33 -70.77 90.25 C-70.67 100.78 -70.58 111.31 -70.49 121.84 C-49.37 121.84 -28.25 121.84 -6.49 121.84 C-6.16 120.19 -5.83 118.54 -5.49 116.84 C-25.29 116.84 -45.09 116.84 -65.49 116.84 C-65.49 73.94 -65.49 31.04 -65.49 -13.16 C-43.05 -16.9 -18.96 -12.98 0 0 Z " fill="#FCFCFC" transform="translate(164.48828125,39.1640625)"/>
</svg>
