<?xml version="1.0" encoding="UTF-8"?>
<!-- Generator: https://ezgif.com/png-to-svg -->
<svg version="1.1" xmlns="http://www.w3.org/2000/svg" width="512" height="512" viewBox="-2.372 -2.889 323.714 323.714" preserveAspectRatio="xMidYMid meet">
<path d="M0 0 C1.34 1.35 2.67 2.7 4 4.06 C12.95 12.95 22.83 16.6 34.5 20.75 C60.52 30.17 76.82 43.5 96.35 62.93 C98.97 65.53 101.62 68.12 104.26 70.7 C105.94 72.36 107.61 74.02 109.28 75.68 C110.07 76.45 110.86 77.22 111.68 78.01 C112.39 78.73 113.11 79.45 113.85 80.2 C114.8 81.14 114.8 81.14 115.77 82.1 C117 84.06 117 84.06 116.81 86.7 C115.26 91.22 111.04 92.63 107 94.69 C79.22 109.72 63.52 134.42 50 162.06 C49.34 161.73 48.68 161.4 48 161.06 C48.16 160.11 48.32 159.15 48.49 158.17 C49.15 153.55 49.15 148.97 49.12 144.31 C49.13 143.46 49.13 142.61 49.14 141.74 C49.14 140.92 49.13 140.11 49.13 139.27 C49.13 138.16 49.13 138.16 49.13 137.04 C49.07 134.85 49.07 134.85 48 132.06 C27.06 145.95 15.63 167.09 4.25 188.87 C3.84 189.6 3.43 190.32 3 191.06 C2.64 191.76 2.28 192.45 1.91 193.17 C-0.49 195.55 -2.24 195.54 -5.54 195.57 C-6.66 195.55 -6.66 195.55 -7.81 195.53 C-8.61 195.53 -9.4 195.54 -10.22 195.54 C-12.86 195.54 -15.5 195.52 -18.14 195.49 C-19.98 195.48 -21.83 195.48 -23.67 195.48 C-27.54 195.47 -31.42 195.45 -35.29 195.42 C-40.22 195.38 -45.14 195.36 -50.07 195.35 C-54.8 195.34 -59.53 195.32 -64.27 195.3 C-65.15 195.3 -66.04 195.29 -66.95 195.29 C-77.67 195.24 -88.31 194.93 -99 194.06 C-98.1 188.9 -95.92 184.78 -93.44 180.23 C-91.57 176.68 -90.58 174.09 -91 170.06 C-92.98 169.07 -94.96 168.08 -97 167.06 C-97.33 168.38 -97.66 169.7 -98 171.06 C-108.38 169.09 -117.96 166.81 -124.72 158.13 C-128.36 152.25 -129.97 145.92 -130.88 139.12 C-131.53 134.44 -132.88 130.98 -135.12 126.81 C-137.82 121.78 -138.91 118.73 -138 113.06 C-136.5 110.56 -136.5 110.56 -135 109.06 C-133.35 109.39 -131.7 109.72 -130 110.06 C-129.38 95.16 -132.05 88.23 -142 77.06 C-141.84 77.62 -141.69 78.17 -141.53 78.74 C-141.33 79.47 -141.14 80.19 -140.94 80.94 C-140.74 81.66 -140.54 82.38 -140.34 83.12 C-140 85.06 -140 85.06 -141 87.06 C-145.63 87.43 -149.03 87.55 -153.25 85.44 C-161.58 78.24 -164.74 70 -166.61 59.29 C-167.12 56.4 -167.61 53.79 -169 51.19 C-172.03 44.75 -171.29 36.93 -171.35 29.96 C-171.37 28.56 -171.39 27.17 -171.43 25.78 C-171.49 23.75 -171.51 21.73 -171.52 19.71 C-171.54 18.5 -171.56 17.3 -171.58 16.06 C-171 13.06 -171 13.06 -168.63 11.2 C-165.97 10.05 -163.44 9.24 -160.62 8.56 C-157.29 7.72 -154.62 6.88 -151.5 5.38 C-146.64 3.55 -142.13 3.42 -137 4.06 C-136.13 4.6 -135.27 5.14 -134.38 5.69 C-131.9 7.48 -131.9 7.48 -128.31 6.25 C-127.54 6.03 -126.76 5.82 -125.96 5.6 C-122.06 4.89 -118.33 5.07 -114.38 5.19 C-105.75 5.38 -98.11 4.12 -90 1.06 C-89.34 0.4 -88.68 -0.26 -88 -0.94 C-80.31 -2.6 -72.01 -2.09 -64.19 -2.06 C-62.99 -2.07 -61.79 -2.07 -60.55 -2.07 C-58.81 -2.07 -58.81 -2.07 -57.04 -2.07 C-56 -2.07 -54.96 -2.07 -53.89 -2.07 C-51.14 -1.94 -48.68 -1.51 -46 -0.94 C-41.04 -0.67 -36.59 -1.13 -31.69 -1.94 C-7.11 -5.51 -7.11 -5.51 0 0 Z " fill="#B07D1C" transform="translate(187,63.9375)"/>
<path d="M0 0 C3.81 1.41 7.4 3.12 11 5 C12.05 4.01 12.05 4.01 13.12 3 C16.56 0.61 17.9 0.63 22 1 C29.96 4.11 36.56 9.52 43 15 C44.05 15.88 45.11 16.76 46.16 17.64 C56.18 26.02 65.77 34.7 74.96 43.98 C78.54 47.58 82.19 51.01 86.07 54.29 C90.24 57.98 94.09 62.03 98 66 C98.84 66.76 99.68 67.52 100.55 68.3 C107.36 75.8 107.53 82.61 107.25 92.5 C107.23 93.7 107.21 94.91 107.2 96.15 C107.15 99.1 107.08 102.05 107 105 C106.34 105 105.68 105 105 105 C104.69 104.19 104.37 103.38 104.05 102.55 C103.62 101.48 103.19 100.41 102.75 99.31 C102.12 97.73 102.12 97.73 101.48 96.11 C99.7 92.36 97.81 88.91 94 87 C94 86.34 94 85.68 94 85 C93.34 85 92.68 85 92 85 C92.11 85.96 92.11 85.96 92.22 86.95 C92.53 89.96 92.76 92.98 93 96 C93.11 97 93.23 98 93.35 99.03 C94.07 109.4 89.78 117.1 85 126 C84.34 125.01 83.68 124.02 83 123 C82.2 124.14 82.2 124.14 81.39 125.3 C80.68 126.29 79.98 127.29 79.25 128.31 C78.55 129.3 77.86 130.28 77.14 131.3 C75.18 133.78 73.74 135.46 71 137 C68.42 137.29 68.42 137.29 65.75 137.19 C64.41 137.15 64.41 137.15 63.05 137.11 C62.37 137.07 61.7 137.04 61 137 C60.01 134.52 60.01 134.52 59 132 C58.6 132.69 58.2 133.37 57.79 134.08 C57.26 134.98 56.73 135.88 56.19 136.81 C55.4 138.15 55.4 138.15 54.61 139.52 C52 143.55 52 143.55 50 145 C47.74 145.07 47.74 145.07 45.31 144.69 C44.5 144.57 43.7 144.45 42.86 144.32 C42.25 144.22 41.63 144.11 41 144 C41.33 144.99 41.66 145.98 42 147 C39.03 147 36.06 147 33 147 C33 147.66 33 148.32 33 149 C26.79 148.41 22.91 146.12 18.75 141.5 C15.93 137.48 14.73 134.84 14.81 129.88 C14.82 129.01 14.83 128.14 14.83 127.24 C15 125 15 125 16 123 C15.28 122.83 14.56 122.67 13.81 122.5 C9.72 120.32 7.82 117.22 6 113 C5.62 110.49 5.73 108.55 6 106 C6.83 106.63 6.83 106.63 7.68 107.28 C8.4 107.83 9.13 108.37 9.88 108.94 C10.59 109.48 11.31 110.03 12.05 110.59 C13.94 112.04 13.94 112.04 16 113 C15.7 92.37 14.92 77.02 1 61 C-3.01 56.32 -3.01 56.32 -2.94 53.38 C-1.91 50.78 -1.18 49.72 1 48 C3.48 47.49 3.48 47.49 6.19 47.31 C7.09 47.25 7.99 47.18 8.92 47.11 C9.95 47.06 9.95 47.06 11 47 C12.31 48.97 12.31 48.97 13.62 50.94 C14.17 51.75 14.72 52.57 15.28 53.41 C16.4 55.09 17.5 56.77 18.59 58.46 C22.18 64.29 22.18 64.29 27 69 C28.98 69 30.96 69 33 69 C33 64.71 33 60.42 33 56 C32.34 58.31 31.68 60.62 31 63 C24.98 61.01 22.26 57.28 19 52 C17.77 49.09 16.75 46.2 15.82 43.19 C15.22 40.83 15.22 40.83 13 40 C5.59 39.3 -0.92 39.38 -7 44 C-10.13 46.97 -10.92 49.04 -11.27 53.32 C-11.33 58.68 -11.22 63.77 -10 69 C-13.58 67.56 -15.07 65.86 -17.12 62.62 C-17.62 61.85 -18.12 61.08 -18.63 60.29 C-19.08 59.53 -19.54 58.78 -20 58 C-20.39 57.37 -20.77 56.74 -21.17 56.09 C-22.28 53.3 -22.23 50.94 -22.19 47.94 C-22.18 46.37 -22.18 46.37 -22.17 44.78 C-22 42 -22 42 -21 39 C-19.04 38.38 -19.04 38.38 -16.62 38 C-13.06 37.44 -11.35 36.79 -9 34 C-9.68 34.1 -10.35 34.19 -11.05 34.29 C-11.94 34.4 -12.83 34.51 -13.75 34.62 C-14.63 34.74 -15.51 34.86 -16.42 34.98 C-19.26 35 -20.58 34.38 -23 33 C-23.66 33 -24.32 33 -25 33 C-26.61 29.79 -26.06 26.56 -26 23 C-22.63 23.55 -20.92 24.05 -18 26 C-15.37 26.17 -15.37 26.17 -13 26 C-12.58 25.13 -12.58 25.13 -12.15 24.24 C-9.35 18.79 -6.44 14.11 -1 11 C2.44 10.62 2.44 10.62 5 11 C4.51 9.02 4.51 9.02 4 7 C-3.04 6.21 -7.37 7.07 -13.08 11.33 C-15.39 13.34 -17.28 15.46 -19 18 C-23.26 17.53 -25.33 15.19 -28 12 C-28 10.68 -28 9.36 -28 8 C-26.12 8.31 -26.12 8.31 -24 9 C-23.01 10.48 -23.01 10.48 -22 12 C-19.94 12.72 -19.94 12.72 -18 13 C-17.91 11.67 -17.91 11.67 -17.81 10.31 C-15.67 1.59 -8.09 -1.24 0 0 Z " fill="#D2A74B" transform="translate(49,75)"/>
<path d="M0 0 C1.34 1.35 2.67 2.7 4 4.06 C12.95 12.95 22.83 16.6 34.5 20.75 C60.52 30.17 76.82 43.5 96.35 62.93 C98.97 65.53 101.62 68.12 104.26 70.7 C105.94 72.36 107.61 74.02 109.28 75.68 C110.07 76.45 110.86 77.22 111.68 78.01 C112.39 78.73 113.11 79.45 113.85 80.2 C114.8 81.14 114.8 81.14 115.77 82.1 C117 84.06 117 84.06 116.81 86.7 C115.26 91.22 111.04 92.63 107 94.69 C79.22 109.72 63.52 134.42 50 162.06 C49.34 161.73 48.68 161.4 48 161.06 C48.16 160.11 48.32 159.15 48.49 158.17 C49.15 153.55 49.15 148.97 49.12 144.31 C49.13 143.46 49.13 142.61 49.14 141.74 C49.14 140.92 49.13 140.11 49.13 139.27 C49.13 138.16 49.13 138.16 49.13 137.04 C49.07 134.85 49.07 134.85 48 132.06 C27.06 145.95 15.63 167.09 4.25 188.87 C3.84 189.6 3.43 190.32 3 191.06 C2.64 191.76 2.28 192.45 1.91 193.17 C-0.49 195.55 -2.24 195.54 -5.54 195.57 C-6.66 195.55 -6.66 195.55 -7.81 195.53 C-8.61 195.53 -9.4 195.54 -10.22 195.54 C-12.86 195.54 -15.5 195.52 -18.14 195.49 C-19.98 195.48 -21.83 195.48 -23.67 195.48 C-27.54 195.47 -31.42 195.45 -35.29 195.42 C-40.22 195.38 -45.14 195.36 -50.07 195.35 C-54.8 195.34 -59.53 195.32 -64.27 195.3 C-65.15 195.3 -66.04 195.29 -66.95 195.29 C-77.67 195.24 -88.31 194.93 -99 194.06 C-98.1 188.9 -95.92 184.78 -93.44 180.23 C-91.57 176.68 -90.58 174.09 -91 170.06 C-92.98 169.07 -94.96 168.08 -97 167.06 C-97.33 168.38 -97.66 169.7 -98 171.06 C-108.38 169.09 -117.96 166.81 -124.72 158.13 C-128.36 152.25 -129.97 145.92 -130.88 139.12 C-131.53 134.44 -132.88 130.98 -135.12 126.81 C-137.82 121.78 -138.91 118.73 -138 113.06 C-136.5 110.56 -136.5 110.56 -135 109.06 C-133.35 109.39 -131.7 109.72 -130 110.06 C-129.38 95.16 -132.05 88.23 -142 77.06 C-141.84 77.62 -141.69 78.17 -141.53 78.74 C-141.33 79.47 -141.14 80.19 -140.94 80.94 C-140.74 81.66 -140.54 82.38 -140.34 83.12 C-140 85.06 -140 85.06 -141 87.06 C-145.63 87.43 -149.03 87.55 -153.25 85.44 C-161.58 78.24 -164.74 70 -166.61 59.29 C-167.12 56.4 -167.61 53.79 -169 51.19 C-172.03 44.75 -171.29 36.93 -171.35 29.96 C-171.37 28.56 -171.39 27.17 -171.43 25.78 C-171.49 23.75 -171.51 21.73 -171.52 19.71 C-171.54 18.5 -171.56 17.3 -171.58 16.06 C-171 13.06 -171 13.06 -168.63 11.2 C-165.97 10.05 -163.44 9.24 -160.62 8.56 C-157.29 7.72 -154.62 6.88 -151.5 5.38 C-146.64 3.55 -142.13 3.42 -137 4.06 C-136.13 4.6 -135.27 5.14 -134.38 5.69 C-131.9 7.48 -131.9 7.48 -128.31 6.25 C-127.54 6.03 -126.76 5.82 -125.96 5.6 C-122.06 4.89 -118.33 5.07 -114.38 5.19 C-105.75 5.38 -98.11 4.12 -90 1.06 C-89.34 0.4 -88.68 -0.26 -88 -0.94 C-80.31 -2.6 -72.01 -2.09 -64.19 -2.06 C-62.99 -2.07 -61.79 -2.07 -60.55 -2.07 C-58.81 -2.07 -58.81 -2.07 -57.04 -2.07 C-56 -2.07 -54.96 -2.07 -53.89 -2.07 C-51.14 -1.94 -48.68 -1.51 -46 -0.94 C-41.04 -0.67 -36.59 -1.13 -31.69 -1.94 C-7.11 -5.51 -7.11 -5.51 0 0 Z M-18.81 3.88 C-19.5 4.04 -20.19 4.21 -20.89 4.38 C-24.34 5.24 -27.56 6.24 -30.8 7.68 C-34.19 9.14 -36.36 9.4 -40 9.06 C-40.99 8.57 -40.99 8.57 -42 8.06 C-43.99 8 -45.97 8 -47.96 8.04 C-49.15 8.05 -50.35 8.06 -51.58 8.07 C-54.1 8.11 -56.63 8.15 -59.15 8.19 C-60.34 8.2 -61.54 8.21 -62.77 8.22 C-64.42 8.25 -64.42 8.25 -66.1 8.27 C-69.01 8.06 -70.5 7.47 -73 6.06 C-76.95 5.55 -78.7 5.9 -82.25 7.81 C-84.77 9.88 -85.92 11.05 -87 14.06 C-87.78 13.86 -88.57 13.65 -89.38 13.44 C-90.67 13.25 -90.67 13.25 -92 13.06 C-92.66 13.72 -93.32 14.38 -94 15.06 C-93.76 17.52 -93.14 18.87 -91.69 20.88 C-90.08 22.29 -90.08 22.29 -88.13 21.8 C-85.81 21 -84.23 19.93 -82.25 18.5 C-77.87 15.69 -75.15 15.29 -70 16.06 C-67.5 18.06 -67.5 18.06 -66 20.06 C-66.54 19.73 -67.07 19.4 -67.62 19.06 C-70.54 17.84 -72.87 17.92 -76 18.06 C-76.33 18.72 -76.66 19.38 -77 20.06 C-76.09 20.74 -75.19 21.42 -74.25 22.12 C-70.77 24.99 -69.03 28.07 -67 32.06 C-68.32 31.73 -69.64 31.4 -71 31.06 C-71.08 30.46 -71.17 29.87 -71.25 29.25 C-72.26 26.29 -73.2 25.46 -76 24.06 C-79.69 24.29 -79.69 24.29 -83 25.06 C-83.5 26.55 -83.5 26.55 -84 28.06 C-81.69 28.72 -79.38 29.38 -77 30.06 C-78.48 30.56 -78.48 30.56 -80 31.06 C-79.42 35.82 -77.45 39.03 -75 43.06 C-75.67 42.45 -76.33 41.83 -77.02 41.19 C-95.83 22.48 -95.83 22.48 -119 11.62 C-122.79 12.18 -124.98 13.76 -128 16.06 C-128.93 15.52 -128.93 15.52 -129.87 14.97 C-135.55 11.85 -140.47 9.54 -147 11.06 C-150.56 12.79 -153.17 14.88 -155.44 18.12 C-156.19 20.37 -156.19 20.37 -156 24.06 C-158.86 23.67 -159.78 23.36 -161.56 21 C-162.27 20.04 -162.27 20.04 -163 19.06 C-163.99 19.06 -164.98 19.06 -166 19.06 C-165.69 22.63 -164.98 24.09 -162.69 26.94 C-160.31 29.22 -160.31 29.22 -158 29.25 C-155.55 27.79 -154.15 25.84 -152.4 23.63 C-149.23 20.08 -145.99 18.24 -141.33 17.82 C-138.87 17.81 -136.45 17.89 -134 18.06 C-133.5 20.04 -133.5 20.04 -133 22.06 C-133.82 21.92 -134.65 21.77 -135.5 21.62 C-140.75 22.28 -143.57 25.16 -147 29.06 C-148.63 31.69 -149.79 34.2 -151 37.06 C-157.62 36.31 -157.62 36.31 -161 34.06 C-161.99 34.06 -162.98 34.06 -164 34.06 C-164.02 35.34 -164.04 36.62 -164.06 37.94 C-164.07 38.66 -164.09 39.38 -164.1 40.12 C-164.13 42.14 -164.13 42.14 -163 44.06 C-161.05 44.65 -161.05 44.65 -159 45.06 C-158.34 45.39 -157.68 45.72 -157 46.06 C-155 46.11 -153 46.1 -151 46.06 C-150.01 46.06 -149.02 46.06 -148 46.06 C-151.42 49.21 -154.44 49.62 -159 50.06 C-160.98 56.01 -161.07 62.29 -158.8 68.16 C-156.37 72.72 -153.92 76.62 -150 80.06 C-149.34 80.06 -148.68 80.06 -148 80.06 C-148.16 79.38 -148.32 78.7 -148.48 78 C-149.68 71.2 -150.16 63.87 -147.5 57.44 C-141.39 51.63 -135.98 50.62 -127.64 50.63 C-125 51.06 -125 51.06 -123.26 52.3 C-121.78 54.38 -121.02 56.33 -120.19 58.75 C-117.87 64.8 -115.03 70.48 -109.12 73.56 C-108.42 73.73 -107.72 73.89 -107 74.06 C-106.34 71.75 -105.68 69.44 -105 67.06 C-105 71.35 -105 75.64 -105 80.06 C-111 80.06 -111 80.06 -113.09 78.52 C-117.59 73.15 -121.17 67.66 -124.46 61.47 C-125.83 58.77 -125.83 58.77 -129 58.06 C-134.88 58.18 -134.88 58.18 -139.56 61.38 C-141.22 63.85 -141.22 63.85 -140.75 66.02 C-139.92 68.27 -138.94 69.64 -137.38 71.45 C-136.86 72.08 -136.33 72.71 -135.79 73.36 C-134.69 74.65 -133.59 75.94 -132.48 77.22 C-128.83 81.6 -126.56 85.57 -125 91.06 C-124.8 91.74 -124.6 92.42 -124.4 93.13 C-122.76 99.56 -122.57 106.01 -122.38 112.62 C-122.32 114.28 -122.32 114.28 -122.26 115.97 C-122.16 118.67 -122.08 121.36 -122 124.06 C-125.4 121.81 -128.76 119.55 -132 117.06 C-132.58 122.62 -131.58 125.76 -128.45 130.39 C-126.56 132.56 -124.78 133.43 -122 134.06 C-122.33 134.72 -122.66 135.38 -123 136.06 C-123.83 142.47 -123.2 147.09 -119.43 152.38 C-116.53 155.79 -113.19 158.44 -109 160.06 C-107.68 160.06 -106.36 160.06 -105 160.06 C-105 159.4 -105 158.74 -105 158.06 C-102.03 158.06 -99.06 158.06 -96 158.06 C-96.33 157.07 -96.66 156.08 -97 155.06 C-96.41 155.2 -95.82 155.35 -95.21 155.49 C-92.71 155.96 -90.54 156.22 -88 156.06 C-85.62 153.95 -84.53 152.7 -83 150.06 C-82.61 149.42 -82.22 148.77 -81.81 148.1 C-80.84 146.44 -79.91 144.76 -79 143.06 C-78.01 145.54 -78.01 145.54 -77 148.06 C-71.77 148.53 -68.17 148.8 -63.62 145.94 C-61.05 143.12 -58.98 140.32 -57 137.06 C-56.34 136.07 -55.68 135.08 -55 134.06 C-55.31 140.17 -58.17 144.48 -62 149.06 C-64.53 151.29 -67.17 153.23 -70 155.06 C-69.47 159.41 -68 161.81 -65.25 165.19 C-64.57 166.04 -63.9 166.88 -63.2 167.76 C-60.97 170.1 -58.84 171.54 -56 173.06 C-55.5 169.1 -55.5 169.1 -55 165.06 C-54.49 166.31 -54.49 166.31 -53.98 167.58 C-53.53 168.67 -53.08 169.76 -52.62 170.88 C-52.18 171.95 -51.74 173.03 -51.29 174.14 C-50.05 177.17 -50.05 177.17 -48 180.06 C-54.82 175.58 -61.55 171.07 -68 166.06 C-68 168.04 -68 170.02 -68 172.06 C-73.41 168.56 -75.95 163.55 -79 158.06 C-79.99 158.39 -80.98 158.72 -82 159.06 C-81.7 166.9 -80.48 173.97 -77 181.06 C-76.19 182.86 -76.19 182.86 -75.36 184.69 C-73.37 187.42 -72.32 188 -68.96 188.68 C-64.91 188.88 -60.91 188.85 -56.86 188.75 C-55.36 188.73 -53.87 188.72 -52.37 188.72 C-48.45 188.69 -44.52 188.62 -40.6 188.54 C-36.59 188.47 -32.58 188.44 -28.57 188.4 C-20.71 188.33 -12.86 188.21 -5 188.06 C-4.68 187.28 -4.68 187.28 -4.34 186.48 C3.71 167.02 3.71 167.02 8 159.06 C8.42 158.28 8.84 157.49 9.28 156.68 C20.36 136.36 36.03 123.16 56 112.06 C56 118.99 56 125.92 56 133.06 C58.12 130.23 59.41 128.46 60.73 125.38 C68.26 108.26 78.26 95.43 94 85.06 C94.65 84.63 95.3 84.19 95.97 83.74 C97.31 82.84 98.65 81.95 100 81.06 C99.48 77.05 97.62 75.47 94.62 72.88 C93.72 72.09 92.81 71.3 91.87 70.49 C90.92 69.69 89.98 68.89 89 68.06 C88.12 67.31 87.25 66.56 86.35 65.79 C75.2 55.45 75.2 55.45 62 50.06 C62 49.4 62 48.74 62 48.06 C64.31 48.06 66.62 48.06 69 48.06 C66.34 44.93 62.99 43.29 59.38 41.5 C58.69 41.16 58.01 40.82 57.31 40.47 C46.81 35.38 35.87 31.28 25 27.06 C23.58 26.5 22.17 25.95 20.75 25.39 C15.55 23.35 10.41 21.45 5 20.06 C5.16 21.34 5.33 22.62 5.5 23.94 C5.77 26.01 6 27.97 6 30.06 C5.44 29.19 5.44 29.19 4.86 28.3 C1.81 23.64 -1.34 19.27 -5 15.06 C-3.35 15.06 -1.7 15.06 0 15.06 C0.84 12.78 0.84 12.78 1 10.06 C-0.47 7.72 -0.47 7.72 -2.69 5.75 C-3.39 5.05 -4.1 4.36 -4.82 3.64 C-9.12 0.53 -14.06 2.67 -18.81 3.88 Z " fill="#0C0705" transform="translate(187,63.9375)"/>
<path d="M0 0 C14.84 2.4 29 15.92 39.65 25.87 C42.15 28.14 44.77 30.18 47.44 32.25 C54.67 38.08 60.85 45.27 66 53 C66 53.99 66 54.98 66 56 C66.66 56 67.32 56 68 56 C65.13 37.8 59.93 20.09 45 8 C42.08 6.14 39.12 4.5 36 3 C36 2.67 36 2.34 36 2 C51.16 1.41 66.12 1.74 79 11 C80.02 11.98 81.03 12.97 82 14 C81.01 14 80.02 14 79 14 C79 14.66 79 15.32 79 16 C79.71 16.09 80.43 16.17 81.16 16.26 C91.07 18.84 100.63 29.83 108.3 36.52 C111.19 39.03 114.09 41.52 117 44 C116.26 47.81 116.26 47.81 113.92 49.54 C113.02 50.04 112.12 50.54 111.19 51.06 C92.3 62.57 82.79 79.3 74 99 C73.67 99 73.34 99 73 99 C73 92.07 73 85.14 73 78 C63.64 83.41 55.06 88.74 47 96 C46.09 96.81 45.17 97.62 44.23 98.45 C30.81 111 23.61 127.32 16.08 143.8 C15 146 15 146 13 149 C1.83 124.05 1.83 124.05 1.81 109.69 C1.8 108.98 1.79 108.27 1.78 107.54 C1.75 98.14 4.26 91.04 8.62 82.81 C13.28 73.55 15.11 65.85 11.96 55.61 C11.48 54.32 11.48 54.32 11 53 C15.01 53.6 17.55 55.67 20.75 58.06 C22.23 59.16 22.23 59.16 23.73 60.29 C24.48 60.85 25.23 61.42 26 62 C22.45 50.59 22.45 50.59 17 40 C17 39.34 17 38.68 17 38 C18.2 38.43 19.39 38.87 20.62 39.31 C25.88 41.08 31.23 42.17 36.67 43.25 C39.87 43.97 42.9 44.91 46 46 C45.24 45.39 44.48 44.77 43.7 44.14 C42.71 43.33 41.71 42.52 40.69 41.69 C39.7 40.89 38.72 40.09 37.7 39.26 C35 37 35 37 33.61 35.41 C30.52 32.7 26.27 31.43 22.45 29.96 C18.72 28.36 16.73 27.21 15.14 23.38 C14.76 22.26 14.39 21.15 14 20 C12.42 18.25 12.42 18.25 11 17 C11 16.34 11 15.68 11 15 C11.66 15 12.32 15 13 15 C10.05 9.87 6.33 6.45 1.83 2.64 C1.22 2.1 0.62 1.56 0 1 C0 0.67 0 0.34 0 0 Z " fill="#7B5A24" transform="translate(170,98)"/>
<path d="M0 0 C5.56 0.06 9.92 1.06 15 3.25 C15.8 3.58 16.6 3.91 17.43 4.25 C31.97 10.79 41 23.93 49.84 36.59 C50.85 38.04 51.88 39.48 52.91 40.91 C55.94 45.25 58.08 48.94 59 54.25 C59.15 55.03 59.3 55.8 59.46 56.6 C60.52 66.34 54.5 72.85 49 80.25 C43.48 87.88 41.26 95.86 40.56 105.25 C40.28 108.02 40.04 109.19 38.56 111.62 C33.93 114.56 28.49 116.25 23 116.25 C24.65 111.96 27.74 109.37 31 106.25 C29.95 106.31 28.9 106.37 27.81 106.44 C24 106.25 24 106.25 21.5 104.69 C18.02 102.69 15.83 103.4 12 104.25 C11.01 104.58 10.02 104.91 9 105.25 C9 104.26 9 103.27 9 102.25 C8.28 102.19 7.56 102.13 6.81 102.06 C2.25 100.74 -0 97.55 -2.81 93.88 C-4.32 90.54 -4.21 87.87 -4 84.25 C-3.45 84.67 -2.89 85.09 -2.32 85.53 C-1.23 86.35 -1.23 86.35 -0.12 87.19 C0.59 87.73 1.31 88.28 2.05 88.84 C3.94 90.29 3.94 90.29 6 91.25 C5.7 70.62 4.92 55.27 -9 39.25 C-13.01 34.57 -13.01 34.57 -12.94 31.62 C-11.91 29.03 -11.18 27.97 -9 26.25 C-6.52 25.74 -6.52 25.74 -3.81 25.56 C-2.91 25.5 -2.01 25.43 -1.08 25.36 C-0.39 25.33 0.29 25.29 1 25.25 C2.31 27.22 2.31 27.22 3.62 29.19 C4.17 30 4.72 30.82 5.28 31.66 C6.4 33.34 7.5 35.02 8.59 36.71 C12.18 42.54 12.18 42.54 17 47.25 C18.98 47.25 20.96 47.25 23 47.25 C23 42.96 23 38.67 23 34.25 C22.34 36.56 21.68 38.87 21 41.25 C14.98 39.26 12.26 35.53 9 30.25 C7.77 27.34 6.75 24.45 5.82 21.44 C5.22 19.08 5.22 19.08 3 18.25 C-4.41 17.55 -10.92 17.63 -17 22.25 C-20.13 25.22 -20.92 27.29 -21.27 31.57 C-21.33 36.93 -21.22 42.02 -20 47.25 C-23.58 45.81 -25.07 44.11 -27.12 40.88 C-27.62 40.1 -28.12 39.33 -28.63 38.54 C-29.08 37.78 -29.54 37.03 -30 36.25 C-30.39 35.62 -30.77 34.99 -31.17 34.34 C-32.28 31.55 -32.23 29.19 -32.19 26.19 C-32.18 25.14 -32.17 24.1 -32.17 23.03 C-32 20.25 -32 20.25 -31 17.25 C-29.04 16.62 -29.04 16.62 -26.62 16.25 C-23.12 15.7 -21.17 15.16 -19 12.25 C-19 11.26 -19 10.27 -19 9.25 C-14.19 5.07 -9.2 4.18 -3 3.25 C-3.99 2.59 -4.98 1.93 -6 1.25 C-4.32 -0.43 -2.3 0.04 0 0 Z " fill="#110B08" transform="translate(59,96.75)"/>
<path d="M0 0 C1.42 2.24 2.66 4.41 3.88 6.75 C6.72 11.94 9.19 16.44 14 20 C17.12 20.18 17.12 20.18 20 20 C20.05 18.99 20.1 17.97 20.15 16.93 C20.22 15.58 20.3 14.23 20.38 12.88 C20.42 11.88 20.42 11.88 20.47 10.86 C20.72 6.6 21.48 2.98 23 -1 C28.01 -0.52 31.18 0.69 35 4 C38.8 10.83 39 18.32 38 26 C36.93 28.31 35.72 30.1 34.18 32.11 C32.1 35.44 32.1 39.15 32 43 C32.66 43 33.32 43 34 43 C34.21 42.09 34.41 41.19 34.62 40.25 C36.33 36.21 38.2 35.06 42 33 C42.66 33 43.32 33 44 33 C45.14 42.26 41.13 48.99 37 57 C36.34 57 35.68 57 35 57 C34.52 56.01 34.04 55.03 33.54 54.01 C32.9 52.71 32.26 51.42 31.62 50.12 C31.31 49.47 30.99 48.82 30.66 48.15 C29.31 45.42 28.17 43.17 26 41 C25.07 40.91 25.07 40.91 24.12 40.81 C21.19 39.69 20.6 37.72 19.18 35.04 C15.24 28.25 9.83 23.69 3 20 C3.92 21.38 3.92 21.38 4.86 22.78 C12.16 33.8 16.87 43.35 16 57 C13.84 62.16 13.84 62.16 12 64 C10.33 64.04 8.67 64.04 7 64 C7.5 64.99 7.5 64.99 8 66 C11.28 66.47 11.28 66.47 15.06 66.62 C16.35 66.7 17.64 66.77 18.97 66.85 C20.47 66.93 20.47 66.93 22 67 C21.98 66.07 21.95 65.14 21.93 64.18 C21.75 51.91 21.75 51.91 24 46 C24.66 46 25.32 46 26 46 C27.02 48.33 28.01 50.66 29 53 C29.29 53.65 29.57 54.3 29.87 54.96 C31.9 59.86 32.49 63.69 32 69 C29.4 72.12 27.9 73.7 23.89 74.34 C21.01 74.39 18.61 74.3 16 73 C13.08 72.58 13.08 72.58 10 73 C7.62 74.88 7.62 74.88 6 77 C6 76.34 6 75.68 6 75 C5.28 74.94 4.56 74.88 3.81 74.81 C-0.75 73.49 -3 70.3 -5.81 66.62 C-7.32 63.29 -7.21 60.62 -7 57 C-6.45 57.42 -5.89 57.84 -5.32 58.28 C-4.23 59.1 -4.23 59.1 -3.12 59.94 C-2.41 60.48 -1.69 61.03 -0.95 61.59 C0.94 63.04 0.94 63.04 3 64 C2.7 43.37 1.92 28.02 -12 12 C-16.01 7.32 -16.01 7.32 -15.94 4.38 C-14.44 0.57 -14.44 0.57 -12 -1 C-7.57 -2.14 -3.87 -2.79 0 0 Z " fill="#725122" transform="translate(62,124)"/>
<path d="M0 0 C9.85 6.12 17.95 13.04 24 23 C24.48 23.74 24.97 24.48 25.46 25.25 C30.25 33.03 31.77 41.95 31 51 C28.84 56.16 28.84 56.16 27 58 C25.33 58.04 23.67 58.04 22 58 C22.33 58.66 22.66 59.32 23 60 C26.28 60.47 26.28 60.47 30.06 60.62 C31.35 60.7 32.64 60.77 33.97 60.85 C34.97 60.9 35.97 60.95 37 61 C36.98 60.07 36.95 59.14 36.93 58.18 C36.75 45.91 36.75 45.91 39 40 C39.66 40 40.32 40 41 40 C42.02 42.33 43.01 44.66 44 47 C44.29 47.65 44.57 48.3 44.87 48.96 C46.9 53.86 47.49 57.69 47 63 C44.4 66.12 42.9 67.7 38.89 68.34 C36.01 68.39 33.61 68.3 31 67 C28.08 66.58 28.08 66.58 25 67 C22.62 68.88 22.62 68.88 21 71 C21 70.34 21 69.68 21 69 C20.28 68.94 19.56 68.88 18.81 68.81 C14.25 67.49 12 64.3 9.19 60.62 C7.68 57.29 7.79 54.62 8 51 C8.55 51.42 9.11 51.84 9.68 52.28 C10.77 53.1 10.77 53.1 11.88 53.94 C12.59 54.48 13.31 55.03 14.05 55.59 C15.94 57.04 15.94 57.04 18 58 C17.7 37.38 16.82 21.99 3 6 C0 2.29 0 2.29 0 0 Z " fill="#AA771C" transform="translate(47,130)"/>
<path d="M0 0 C1.86 0.65 1.86 0.65 3.75 1.31 C9.42 3.21 15.19 4.61 21 6 C21 7.32 21 8.64 21 10 C17.63 11.5 15.8 12 12 12 C12.19 12.53 12.39 13.07 12.59 13.62 C16.05 23.54 17.33 32.48 17 43 C16.01 43.5 16.01 43.5 15 44 C14.76 43.47 14.52 42.94 14.27 42.39 C13.93 41.68 13.6 40.98 13.25 40.25 C12.93 39.55 12.6 38.86 12.27 38.14 C10.81 35.69 9.08 33.94 7 32 C6.53 32.96 6.05 33.92 5.57 34.9 C4.9 36.25 4.23 37.59 3.56 38.94 C3.03 40.01 3.03 40.01 2.49 41.1 C0.57 44.95 -1.4 48.76 -3.46 52.53 C-3.87 53.27 -4.27 54.01 -4.68 54.77 C-5.46 56.17 -6.24 57.58 -7.03 58.97 C-10.7 65.69 -12.05 72.46 -12.62 80.06 C-12.7 81 -12.77 81.94 -12.85 82.91 C-12.9 83.6 -12.95 84.29 -13 85 C-13.33 85 -13.66 85 -14 85 C-15.09 80.59 -15.18 76.27 -15.19 71.75 C-15.21 70.68 -15.21 70.68 -15.22 69.59 C-15.25 60.17 -12.75 53.06 -8.38 44.81 C-3.72 35.55 -1.89 27.85 -5.04 17.61 C-5.36 16.75 -5.67 15.89 -6 15 C-1.99 15.6 0.55 17.67 3.75 20.06 C4.73 20.8 5.72 21.53 6.73 22.29 C7.48 22.85 8.23 23.42 9 24 C5.45 12.59 5.45 12.59 0 2 C0 1.34 0 0.68 0 0 Z " fill="#100A06" transform="translate(187,136)"/>
<path d="M0 0 C3.12 1.84 6.16 3.74 9 6 C9 6.33 9 6.66 9 7 C6.36 7 3.72 7 1 7 C0.67 13.6 0.34 20.2 0 27 C-6.59 23.71 -8.84 18.83 -11.19 12.12 C-11.49 11.18 -11.79 10.23 -12.11 9.26 C-12.78 6.83 -12.78 6.83 -15 6 C-22.41 5.3 -28.92 5.38 -35 10 C-38.13 12.97 -38.92 15.04 -39.27 19.32 C-39.33 24.68 -39.22 29.77 -38 35 C-41.58 33.56 -43.07 31.86 -45.12 28.62 C-45.62 27.85 -46.12 27.08 -46.63 26.29 C-47.08 25.53 -47.54 24.78 -48 24 C-48.39 23.37 -48.77 22.74 -49.17 22.09 C-50.28 19.3 -50.23 16.94 -50.19 13.94 C-50.18 12.89 -50.17 11.85 -50.17 10.78 C-50 8 -50 8 -49 5 C-48.31 5.15 -47.62 5.31 -46.91 5.46 C-41.06 6.48 -41.06 6.48 -35.58 4.65 C-34.09 3.41 -32.63 2.15 -31.18 0.86 C-20.96 -7.85 -11.12 -5.61 0 0 Z " fill="#F5F4F3" transform="translate(77,109)"/>
<path d="M0 0 C3.79 1.26 4.06 2.45 5.94 5.88 C7.9 9.47 9.54 11.75 13 14 C13 12.02 13 10.04 13 8 C13.46 8.35 13.92 8.7 14.4 9.07 C18.34 12.05 22.31 14.99 26.31 17.88 C27.13 18.47 27.95 19.07 28.8 19.68 C31 21.26 31 21.26 34 21 C35.02 21.98 36.02 22.98 37 24 C38.54 24.94 40.1 25.84 41.69 26.69 C42.5 27.12 43.3 27.56 44.14 28.01 C44.75 28.34 45.37 28.66 46 29 C46 29.33 46 29.66 46 30 C40.84 30.22 35.68 30.39 30.52 30.49 C28.77 30.54 27.01 30.6 25.26 30.68 C10.7 31.31 10.7 31.31 6.55 28.11 C4.95 25.76 3.93 23.68 3 21 C2.67 20.23 2.35 19.45 2.01 18.65 C-0.26 13.07 -0.96 7 -1 1 C-0.67 0.67 -0.34 0.34 0 0 Z " fill="#755323" transform="translate(106,222)"/>
<path d="M0 0 C2.97 0 5.94 0 9 0 C9.33 0.99 9.66 1.98 10 3 C9.34 3 8.68 3 8 3 C9.02 3.96 9.02 3.96 10.06 4.94 C13.74 8.62 17.07 12.7 20 17 C20 17.66 20 18.32 20 19 C20.99 19.33 21.98 19.66 23 20 C23 20.66 23 21.32 23 22 C18.52 20.86 14.85 19.57 11 17 C15.06 22.36 19.25 25.31 25 28.65 C29.69 31.49 32.03 34.04 33.73 39.24 C34.15 41.16 34.58 43.08 35 45 C30.47 43.22 28.4 39.9 25.58 36.07 C21.51 30.94 17.67 28.52 11.55 26.2 C8.71 24.86 7.2 23.21 5 21 C2.45 19.69 2.45 19.69 -0.25 18.75 C-1.14 18.41 -2.03 18.08 -2.95 17.73 C-3.63 17.49 -4.3 17.25 -5 17 C-5 16.67 -5 16.34 -5 16 C-3.02 16 -1.04 16 1 16 C-3.4 9.02 -3.4 9.02 -9 3 C-8 2 -8 2 -5.19 1.81 C-2.13 1.99 -0.56 2.42 2 4 C1.34 2.68 0.68 1.36 0 0 Z " fill="#7E5B23" transform="translate(119,80)"/>
<path d="M0 0 C13.58 2.2 25.66 13.7 35.98 22.25 C36.85 22.97 36.85 22.97 37.74 23.7 C39 25 39 25 39 27 C35.04 26.43 32.33 25.19 29 23 C29.56 23.64 29.56 23.64 30.14 24.29 C33.7 28.37 36.91 32.55 40 37 C34.95 35.42 30.14 33.47 25.31 31.31 C24.55 31 23.8 30.68 23.01 30.36 C19.13 28.61 16.77 27.38 15.09 23.34 C14.73 22.24 14.37 21.14 14 20 C12.42 18.25 12.42 18.25 11 17 C11 16.34 11 15.68 11 15 C11.66 15 12.32 15 13 15 C10.05 9.87 6.33 6.45 1.83 2.64 C1.22 2.1 0.62 1.56 0 1 C0 0.67 0 0.34 0 0 Z " fill="#100A06" transform="translate(170,98)"/>
<path d="M0 0 C3.5 1.4 6.75 3.1 10 5 C9.38 5.29 8.76 5.58 8.12 5.88 C5.87 6.94 5.87 6.94 4 9 C4 8.34 4 7.68 4 7 C-3.04 6.21 -7.37 7.07 -13.08 11.33 C-15.39 13.34 -17.28 15.46 -19 18 C-23.26 17.53 -25.33 15.19 -28 12 C-28 10.68 -28 9.36 -28 8 C-26.12 8.31 -26.12 8.31 -24 9 C-23.01 10.48 -23.01 10.48 -22 12 C-19.94 12.72 -19.94 12.72 -18 13 C-17.91 11.67 -17.91 11.67 -17.81 10.31 C-15.68 1.62 -8.09 -1.27 0 0 Z " fill="#A6741C" transform="translate(49,75)"/>
<path d="M0 0 C2.44 1.88 2.44 1.88 4 4 C4 4.66 4 5.32 4 6 C0.56 6.67 -2.87 7.34 -6.31 8 C-7.29 8.19 -8.27 8.38 -9.27 8.58 C-10.21 8.76 -11.15 8.94 -12.11 9.12 C-13.41 9.38 -13.41 9.38 -14.73 9.63 C-17 10 -17 10 -20 10 C-20 9.34 -20 8.68 -20 8 C-18.01 6.51 -16.05 5.18 -13.94 3.88 C-13.38 3.5 -12.81 3.13 -12.24 2.75 C-8.02 0.12 -4.92 -0.55 0 0 Z " fill="#130C06" transform="translate(182,70)"/>
<path d="M0 0 C1.82 1.21 1.82 1.21 3.69 2.94 C4.31 3.5 4.93 4.07 5.57 4.65 C6.28 5.32 6.28 5.32 7 6 C6.67 7.65 6.34 9.3 6 11 C-0.04 12.51 -5.9 11.64 -12 11 C-12 10.67 -12 10.34 -12 10 C-6.24 8.7 -0.91 7.74 5 8 C2.61 4.76 0.8 2.49 -3 1 C-2.01 0.67 -1.02 0.34 0 0 Z " fill="#70501D" transform="translate(181,68)"/>
<path d="M0 0 C-0.94 0.26 -0.94 0.26 -1.9 0.52 C-2.72 0.76 -3.53 1 -4.38 1.25 C-5.19 1.48 -6 1.71 -6.84 1.95 C-9.52 3.25 -9.84 4.32 -11 7 C-11.51 7.43 -12.02 7.86 -12.55 8.3 C-14.83 10.97 -14.78 13.76 -15.19 17.19 C-15.35 18.46 -15.5 19.73 -15.67 21.04 C-15.78 22.02 -15.89 22.99 -16 24 C-16.33 24 -16.66 24 -17 24 C-17.62 11.39 -17.62 11.39 -15.38 6.38 C-10.93 1.93 -6.42 -1.99 0 0 Z " fill="#201D1D" transform="translate(54,115)"/>
<path d="M0 0 C0.33 0 0.66 0 1 0 C1.78 8.69 1.47 15.45 -2.31 23.38 C-2.77 24.35 -2.77 24.35 -3.25 25.34 C-5.57 29.86 -5.57 29.86 -9 31 C-7.67 26.71 -5.98 22.87 -3.94 18.88 C-0.94 12.54 -0.03 6.96 0 0 Z " fill="#2B1D09" transform="translate(184,159)"/>
<path d="M0 0 C1.94 1.44 1.94 1.44 3 3 C3 3.66 3 4.32 3 5 C1.58 4.86 0.17 4.71 -1.25 4.56 C-2.43 4.44 -2.43 4.44 -3.64 4.32 C-5.82 4.02 -7.88 3.58 -10 3 C-9.67 2.01 -9.34 1.02 -9 0 C-5.85 -1.57 -3.36 -0.71 0 0 Z " fill="#EBEAE9" transform="translate(113,89)"/>
<path d="M0 0 C0.33 0 0.66 0 1 0 C1.06 0.81 1.12 1.62 1.18 2.45 C1.27 3.52 1.35 4.59 1.44 5.69 C1.52 6.74 1.6 7.8 1.68 8.89 C1.96 11.65 2.4 14.29 3 17 C0.53 15.85 -1.05 14.95 -3 13 C-2.67 12.01 -2.34 11.02 -2 10 C-1.34 10.33 -0.68 10.66 0 11 C0 7.37 0 3.74 0 0 Z " fill="#D0CFCD" transform="translate(36,127)"/>
<path d="M0 0 C1.98 0.99 1.98 0.99 4 2 C4 3.65 4 5.3 4 7 C2.68 7 1.36 7 0 7 C0 4.69 0 2.38 0 0 Z " fill="#3D2B12" transform="translate(103,244)"/>
<path d="M0 0 C0 3.31 -0.4 5.11 -2 8 C-4.62 8.81 -4.62 8.81 -7 9 C-5.44 5.18 -2.96 2.81 0 0 Z " fill="#281D0E" transform="translate(89,204)"/>
<path d="M0 0 C5.44 1.48 5.44 1.48 11 3 C11 3.33 11 3.66 11 4 C7.37 4.33 3.74 4.66 0 5 C0 3.35 0 1.7 0 0 Z " fill="#6D4E1E" transform="translate(192,84)"/>
<path d="M0 0 C0.66 0 1.32 0 2 0 C2.99 3.63 3.98 7.26 5 11 C2.35 8.35 0.66 6.31 -1 3 C-0.67 2.01 -0.34 1.02 0 0 Z " fill="#291C09" transform="translate(190,86)"/>
<path d="M0 0 C-0.66 0.66 -1.32 1.32 -2 2 C-2 2.99 -2 3.98 -2 5 C-4.97 4.5 -4.97 4.5 -8 4 C-7.67 3.01 -7.34 2.02 -7 1 C-4.54 -0.23 -2.72 -0.07 0 0 Z " fill="#C3C2C1" transform="translate(111,88)"/>
<path d="M0 0 C1.74 3.23 2.89 6.51 4 10 C1 9 1 9 -0.25 7.25 C-1.18 4.47 -0.77 2.78 0 0 Z " fill="#292625" transform="translate(66,120)"/>
<path d="M0 0 C3.82 0.53 6.06 1.5 9 4 C6 5 6 5 2.81 3.56 C1.88 3.05 0.96 2.53 0 2 C0 1.34 0 0.68 0 0 Z " fill="#262323" transform="translate(71,105)"/>
</svg>
