<?xml version="1.0" encoding="UTF-8"?>
<svg version="1.1" xmlns="http://www.w3.org/2000/svg" width="50" height="50">
<path d="M0 0 C0.67764404 -0.0213501 1.35528809 -0.0427002 2.0534668 -0.06469727 C6.49838757 -0.09499478 9.01639115 0.71153032 12.625 3.25 C13.91124086 3.84520165 15.20266361 4.42938731 16.5 5 C20.96327583 7.19769665 24.65024122 10.24337177 27.625 14.25 C27.625 15.24 27.625 16.23 27.625 17.25 C26.19169403 18.18331552 24.75438593 19.11134727 23.29296875 20 C20.34024305 22.21281552 18.62969246 25.18399977 16.625 28.25 C14.625 27.25 14.625 27.25 13.625 26.25 C13.37790283 26.81589844 13.13080566 27.38179687 12.8762207 27.96484375 C9.87902086 33.81906116 9.87902086 33.81906116 6.43115234 35.00390625 C3.86409436 35.26168613 1.39157348 35.30769739 -1.1875 35.25 C-2.07115234 35.26160156 -2.95480469 35.27320313 -3.86523438 35.28515625 C-6.0350611 35.30861384 -8.20531392 35.28406769 -10.375 35.25 C-10.045 33.93 -9.715 32.61 -9.375 31.25 C-10.138125 31.105625 -10.90125 30.96125 -11.6875 30.8125 C-15.34404969 28.68659902 -15.79446698 26.43170224 -17.08984375 22.5390625 C-17.43309501 19.78364827 -16.82144731 18.57067371 -15.375 16.25 C-16.550625 16.1571875 -16.550625 16.1571875 -17.75 16.0625 C-20.375 15.25 -20.375 15.25 -21.6875 13.1875 C-22.56908486 9.42072831 -22.50604407 6.11580013 -22.375 2.25 C-15.28914703 -0.11195099 -7.41957748 0.12333357 0 0 Z " fill="#AA791C" transform="translate(22.375,7.75)"/>
<path d="M0 0 C0.67764404 -0.0213501 1.35528809 -0.0427002 2.0534668 -0.06469727 C6.49838757 -0.09499478 9.01639115 0.71153032 12.625 3.25 C13.91124086 3.84520165 15.20266361 4.42938731 16.5 5 C20.96327583 7.19769665 24.65024122 10.24337177 27.625 14.25 C27.625 15.24 27.625 16.23 27.625 17.25 C26.19169403 18.18331552 24.75438593 19.11134727 23.29296875 20 C20.34024305 22.21281552 18.62969246 25.18399977 16.625 28.25 C14.625 27.25 14.625 27.25 13.625 26.25 C13.37790283 26.81589844 13.13080566 27.38179687 12.8762207 27.96484375 C9.87902086 33.81906116 9.87902086 33.81906116 6.43115234 35.00390625 C3.86409436 35.26168613 1.39157348 35.30769739 -1.1875 35.25 C-2.07115234 35.26160156 -2.95480469 35.27320313 -3.86523438 35.28515625 C-6.0350611 35.30861384 -8.20531392 35.28406769 -10.375 35.25 C-10.045 33.93 -9.715 32.61 -9.375 31.25 C-10.138125 31.105625 -10.90125 30.96125 -11.6875 30.8125 C-15.34404969 28.68659902 -15.79446698 26.43170224 -17.08984375 22.5390625 C-17.43309501 19.78364827 -16.82144731 18.57067371 -15.375 16.25 C-16.550625 16.1571875 -16.550625 16.1571875 -17.75 16.0625 C-20.375 15.25 -20.375 15.25 -21.6875 13.1875 C-22.56908486 9.42072831 -22.50604407 6.11580013 -22.375 2.25 C-15.28914703 -0.11195099 -7.41957748 0.12333357 0 0 Z M-2.375 1.6875 C-3.220625 1.76871094 -4.06625 1.84992187 -4.9375 1.93359375 C-7.33783372 2.18862563 -7.33783372 2.18862563 -9.46484375 2.8203125 C-11.375 3.25 -11.375 3.25 -14.9375 2.6875 C-18.49057574 1.85377008 -18.49057574 1.85377008 -21.375 4.25 C-21.26137738 5.7300841 -21.13377092 7.20910074 -21 8.6875 C-20.93039063 9.51121094 -20.86078125 10.33492187 -20.7890625 11.18359375 C-20.65242188 11.86550781 -20.51578125 12.54742187 -20.375 13.25 C-19.715 13.58 -19.055 13.91 -18.375 14.25 C-18.045 13.26 -17.715 12.27 -17.375 11.25 C-15.3125 10.5625 -15.3125 10.5625 -13.375 10.25 C-13.045 11.24 -12.715 12.23 -12.375 13.25 C-11.055 11.93 -9.735 10.61 -8.375 9.25 C-6.13337852 13.60138286 -6.42704946 16.51024729 -7.375 21.25 C-7.519375 22.03375 -7.66375 22.8175 -7.8125 23.625 C-8.375 25.25 -8.375 25.25 -10.375 26.25 C-9.715 24.6 -9.055 22.95 -8.375 21.25 C-9.035 20.59 -9.695 19.93 -10.375 19.25 C-10.375 20.24 -10.375 21.23 -10.375 22.25 C-12.025 21.92 -13.675 21.59 -15.375 21.25 C-14.715 23.56 -14.055 25.87 -13.375 28.25 C-11.395 28.25 -9.415 28.25 -7.375 28.25 C-6.715 29.9 -6.055 31.55 -5.375 33.25 C-1.25200418 33.79039266 2.52472505 34.03649775 6.625 33.25 C8.81562546 31.1624628 9.99014014 29.20592299 11.34375 26.51171875 C12.76919187 23.99546617 14.22699388 22.81988113 16.625 21.25 C17.12 22.735 17.12 22.735 17.625 24.25 C19.88385324 20.99602492 19.88385324 20.99602492 20.625 17.25 C21.945 16.59 23.265 15.93 24.625 15.25 C24.85021054 13.17872058 24.85021054 13.17872058 23.33984375 11.84765625 C18.63278132 7.78199573 14.10762023 4.25 7.625 4.25 C7.295 3.26 6.965 2.27 6.625 1.25 C3.55367883 1.25 0.6699209 1.3857929 -2.375 1.6875 Z " fill="#0B0603" transform="translate(22.375,7.75)"/>
<path d="M0 0 C4.69881838 1.15532003 7.74970061 3.86711447 11.125 7.1875 C11.62257813 7.66985107 12.12015625 8.15220215 12.6328125 8.64916992 C14.0078125 10.0859375 14.0078125 10.0859375 16 12.8125 C15.87109375 14.9921875 15.87109375 14.9921875 15 16.8125 C14.649375 17.72 14.29875 18.6275 13.9375 19.5625 C13.628125 20.305 13.31875 21.0475 13 21.8125 C12.34 21.8125 11.68 21.8125 11 21.8125 C11 22.4725 11 23.1325 11 23.8125 C9.68 23.8125 8.36 23.8125 7 23.8125 C7 24.4725 7 25.1325 7 25.8125 C5.02 25.8125 3.04 25.8125 1 25.8125 C0.34 23.5025 -0.32 21.1925 -1 18.8125 C0.65 19.1425 2.3 19.4725 4 19.8125 C4.33 18.8225 4.66 17.8325 5 16.8125 C5.625 18.625 5.625 18.625 6 20.8125 C5.34 21.8025 4.68 22.7925 4 23.8125 C6.27588427 22.93730479 6.27588427 22.93730479 7.1875 20.1875 C8.35391751 15.34238112 7.55730586 11.48441757 6 6.8125 C3.66924071 7.77115509 3.66924071 7.77115509 2 10.8125 C1.67 9.8225 1.34 8.8325 1 7.8125 C-0.94074861 8.08867533 -0.94074861 8.08867533 -3 8.8125 C-3.99 10.2975 -3.99 10.2975 -5 11.8125 C-6.31626692 8.19276598 -7 5.71682869 -7 1.8125 C-3.46835443 -0.54193038 -3.46835443 -0.54193038 0 0 Z " fill="#CFA44A" transform="translate(8,10.1875)"/>
<path d="M0 0 C3.60781873 1.55631396 5.5868237 3.46836178 8.1875 6.375 C7.5275 7.695 6.8675 9.015 6.1875 10.375 C5.5275 10.375 4.8675 10.375 4.1875 10.375 C3.89875 11.15875 3.61 11.9425 3.3125 12.75 C2.1875 15.375 2.1875 15.375 0.1875 17.375 C0.1875 16.385 0.1875 15.395 0.1875 14.375 C-4.20541786 17.69409349 -6.6352865 20.17387886 -8.8125 25.375 C-9.4725 25.045 -10.1325 24.715 -10.8125 24.375 C-12.18572332 19.11466872 -12.17269846 14.33141677 -9.8125 9.375 C-8.1875 7.5 -8.1875 7.5 -6.8125 6.375 C-7.8025 5.385 -8.7925 4.395 -9.8125 3.375 C-9.4825 2.715 -9.1525 2.055 -8.8125 1.375 C-6.5025 3.355 -4.1925 5.335 -1.8125 7.375 C-3.21009905 3.82981116 -3.21009905 3.82981116 -4.8125 0.375 C-2.8125 -0.625 -2.8125 -0.625 0 0 Z " fill="#70511F" transform="translate(38.8125,14.625)"/>
<path d="M0 0 C0.66 0 1.32 0 2 0 C4.47923113 3.03017138 5.0241451 4.5492915 4.8125 8.5 C4.11125781 11.52073561 3.28017258 14.18362032 2 17 C1.34 17 0.68 17 0 17 C0 15.68 0 14.36 0 13 C-1.32 13 -2.64 13 -4 13 C-4.144375 11.9275 -4.28875 10.855 -4.4375 9.75 C-4.83749442 7.08337051 -5.27591924 4.58600271 -6 2 C-5.01 1.67 -4.02 1.34 -3 1 C-2.67 1.66 -2.34 2.32 -2 3 C-1.34 2.01 -0.68 1.02 0 0 Z " fill="#443215" transform="translate(12,17)"/>
<path d="M0 0 C0.495 2.97 0.495 2.97 1 6 C0.01 6 -0.98 6 -2 6 C-2.33 5.67 -2.66 5.34 -3 5 C-3.24709717 5.56589844 -3.49419434 6.13179687 -3.7487793 6.71484375 C-6.74597914 12.56906116 -6.74597914 12.56906116 -10.19384766 13.75390625 C-12.76090564 14.01168613 -15.23342652 14.05769739 -17.8125 14 C-19.13797852 14.01740234 -19.13797852 14.01740234 -20.49023438 14.03515625 C-22.6600611 14.05861384 -24.83031392 14.03406769 -27 14 C-26.67 12.68 -26.34 11.36 -26 10 C-26.804375 9.773125 -27.60875 9.54625 -28.4375 9.3125 C-29.7059375 8.6628125 -29.7059375 8.6628125 -31 8 C-31.8125 5.375 -31.8125 5.375 -32 3 C-31.01 4.485 -31.01 4.485 -30 6 C-29.01 6.144375 -28.02 6.28875 -27 6.4375 C-26.01 6.623125 -25.02 6.80875 -24 7 C-22.8125 9.03515625 -22.8125 9.03515625 -22 11 C-17.90309777 11.47045767 -14.07705363 11.70789573 -10 11 C-8.00434995 9.14689638 -7.08391149 7.51031087 -5.96484375 5.04296875 C-4.61342966 2.18147251 -3.32921113 0 0 0 Z " fill="#090604" transform="translate(39,29)"/>
<path d="M0 0 C0.598125 0.20625 1.19625 0.4125 1.8125 0.625 C0.3275 2.11 0.3275 2.11 -1.1875 3.625 C-0.23875 3.563125 0.71 3.50125 1.6875 3.4375 C2.71875 3.499375 3.75 3.56125 4.8125 3.625 C5.8025 5.11 5.8025 5.11 6.8125 6.625 C5.8225 7.945 4.8325 9.265 3.8125 10.625 C3.4825 9.635 3.1525 8.645 2.8125 7.625 C0.87175139 7.90117533 0.87175139 7.90117533 -1.1875 8.625 C-2.1775 10.11 -2.1775 10.11 -3.1875 11.625 C-4.50376692 8.00526598 -5.1875 5.52932869 -5.1875 1.625 C-2.1875 -0.375 -2.1875 -0.375 0 0 Z " fill="#83652A" transform="translate(6.1875,10.375)"/>
<path d="M0 0 C0.99 0.33 1.98 0.66 3 1 C2.34 1 1.68 1 1 1 C1.66 3.97 2.32 6.94 3 10 C3.66 9.01 4.32 8.02 5 7 C5.99 7.33 6.98 7.66 8 8 C7.34 8 6.68 8 6 8 C6.32742187 8.56203125 6.65484375 9.1240625 6.9921875 9.703125 C8.11785494 12.26859964 8.2068111 13.96842277 8.125 16.75 C8.10695313 17.54921875 8.08890625 18.3484375 8.0703125 19.171875 C8.03550781 20.07679687 8.03550781 20.07679687 8 21 C7.34 21 6.68 21 6 21 C5.06934867 18.39417629 4.85082593 17.35801776 5.9375 14.75 C6.288125 14.1725 6.63875 13.595 7 13 C5.824375 12.9071875 5.824375 12.9071875 4.625 12.8125 C2 12 2 12 0.6875 9.875 C-0.11840308 6.50485983 -0.13541723 3.45313937 0 0 Z " fill="#1A1612" transform="translate(0,11)"/>
<path d="M0 0 C0.66 1.32 1.32 2.64 2 4 C1.01 5.485 1.01 5.485 0 7 C1.65 6.67 3.3 6.34 5 6 C4.01 6.495 4.01 6.495 3 7 C3 7.66 3 8.32 3 9 C1.02 9 -0.96 9 -3 9 C-3.66 6.69 -4.32 4.38 -5 2 C-2.525 2.495 -2.525 2.495 0 3 C0 2.01 0 1.02 0 0 Z " fill="#BC9541" transform="translate(12,27)"/>
<path d="M0 0 C3.22265625 5.2734375 3.22265625 5.2734375 4 7 C3.67 7.66 3.34 8.32 3 9 C2.443125 8.54625 1.88625 8.0925 1.3125 7.625 C-0.94954292 5.88949648 -0.94954292 5.88949648 -3.6875 5 C-4.8321875 4.505 -4.8321875 4.505 -6 4 C-6.33 3.01 -6.66 2.02 -7 1 C-4.53721199 -0.231394 -2.7204945 -0.07159196 0 0 Z " fill="#8B641E" transform="translate(20,10)"/>
<path d="M0 0 C1.98773749 2.98160623 2.41311144 4.56250985 3 8 C3.32483418 9.33542939 3.6550855 10.66961551 4 12 C2.68 12 1.36 12 0 12 C-0.144375 10.9275 -0.28875 9.855 -0.4375 8.75 C-0.83749442 6.08337051 -1.27591924 3.58600271 -2 1 C-1.34 0.67 -0.68 0.34 0 0 Z " fill="#866123" transform="translate(8,18)"/>
<path d="M0 0 C-6.47929607 2.24791904 -11.36486534 1.85783771 -18 0 C-15.09361174 -0.96879609 -12.59998848 -1.37015046 -9.5625 -1.6875 C-8.61503906 -1.79449219 -7.66757813 -1.90148438 -6.69140625 -2.01171875 C-3.8384667 -1.99929666 -2.39981533 -1.48073712 0 0 Z " fill="#160F06" transform="translate(18,10)"/>
<path d="M0 0 C1.32 0.33 2.64 0.66 4 1 C4 1.66 4 2.32 4 3 C4.66 3.33 5.32 3.66 6 4 C6 4.66 6 5.32 6 6 C6.66 6.33 7.32 6.66 8 7 C5.125 7.1875 5.125 7.1875 2 7 C0 4 0 4 0 0 Z " fill="#61451A" transform="translate(15,34)"/>
<path d="M0 0 C0.33 0.66 0.66 1.32 1 2 C0.01 3.485 0.01 3.485 -1 5 C-1.33 4.01 -1.66 3.02 -2 2 C-3.94074861 2.27617533 -3.94074861 2.27617533 -6 3 C-6.66 3.99 -7.32 4.98 -8 6 C-8.33 4.35 -8.66 2.7 -9 1 C-5.8035914 -0.06546953 -3.34252724 -0.07427838 0 0 Z " fill="#D8D8D7" transform="translate(11,16)"/>
<path d="M0 0 C0.66 0 1.32 0 2 0 C2 0.66 2 1.32 2 2 C1.34 2 0.68 2 0 2 C0 2.928125 0 3.85625 0 4.8125 C0 6.875 0 8.9375 0 11 C-3 7.375 -3 7.375 -3 4 C-2.34 4 -1.68 4 -1 4 C-0.67 2.68 -0.34 1.36 0 0 Z " fill="#382914" transform="translate(12,17)"/>
<path d="M0 0 C1.98 0.495 1.98 0.495 4 1 C3.34 2.65 2.68 4.3 2 6 C1.01 6 0.02 6 -1 6 C-0.67 4.02 -0.34 2.04 0 0 Z " fill="#684A1F" transform="translate(12,19)"/>
<path d="M0 0 C-0.33 0.99 -0.66 1.98 -1 3 C-1.33 3 -1.66 3 -2 3 C-3.33568021 3.32380126 -4.66923011 3.65657551 -6 4 C-6.33 3.01 -6.66 2.02 -7 1 C-4.53721199 -0.231394 -2.7204945 -0.07159196 0 0 Z " fill="#8A6C34" transform="translate(20,10)"/>
<path d="M0 0 C0.66 1.32 1.32 2.64 2 4 C1 5 1 5 -1.5625 5.0625 C-2.7690625 5.0315625 -2.7690625 5.0315625 -4 5 C-4 4.01 -4 3.02 -4 2 C-2.02 2.495 -2.02 2.495 0 3 C0 2.01 0 1.02 0 0 Z " fill="#D5D3D3" transform="translate(12,27)"/>
</svg>
