<?xml version="1.0" encoding="UTF-8"?>
<!-- Generator: https://ezgif.com/png-to-svg -->
<svg version="1.1" xmlns="http://www.w3.org/2000/svg" width="512" height="512" viewBox="-85.202 -41.945 768.757 768.757" preserveAspectRatio="xMidYMid meet">
<path d="M0 0 C2.59 0.02 5.18 0 7.77 -0.03 C24.09 -0.05 39.73 2.81 55.16 8.15 C56.15 8.48 57.14 8.82 58.16 9.17 C72.02 14.03 86.92 19.91 98.22 29.52 C99 30.16 99.77 30.8 100.56 31.46 C107.53 37.77 114.65 48.16 115.4 57.8 C115.47 60.71 115.51 63.61 115.54 66.52 C115.57 67.51 115.59 68.5 115.62 69.53 C115.73 81.87 110.72 91.02 104.47 101.4 C103.85 102.44 103.23 103.49 102.59 104.57 C100.81 107.56 99.02 110.54 97.22 113.52 C96.54 114.66 96.54 114.66 95.84 115.82 C89.68 126.06 89.68 126.06 86.22 130.52 C86.86 131.12 87.5 131.71 88.17 132.32 C98.79 142.5 108.12 155.15 108.52 170.36 C108.61 180.73 106.85 187.96 101.66 197.05 C101.2 197.86 100.74 198.67 100.27 199.5 C99.33 201.12 98.38 202.73 97.4 204.33 C96.96 205.07 96.53 205.81 96.08 206.58 C95.47 207.57 95.47 207.57 94.85 208.59 C93.99 210.57 93.99 210.57 95.02 212.66 C96.3 214.64 97.7 216.21 99.35 217.9 C109.62 229.44 114.95 242.73 114.49 258.19 C113.25 273.6 102.8 287.72 95.07 300.71 C91.67 306.43 88.36 312.19 85.04 317.96 C84.4 319.06 83.76 320.17 83.11 321.31 C81.14 324.71 79.18 328.12 77.22 331.52 C74.7 335.9 72.18 340.27 69.66 344.65 C69.04 345.72 68.42 346.8 67.78 347.91 C63.64 355.09 59.47 362.25 55.29 369.4 C50.21 378.07 45.2 386.79 40.22 395.52 C34.68 405.24 29.09 414.93 23.44 424.59 C17.29 435.11 11.2 445.68 5.11 456.24 C1.36 462.75 -2.39 469.26 -6.15 475.77 C-9.92 482.3 -13.69 488.84 -17.45 495.38 C-19.32 498.62 -21.19 501.85 -23.07 505.09 C-25.58 509.44 -28.07 513.8 -30.55 518.17 C-31.77 520.31 -32.99 522.45 -34.21 524.58 C-34.76 525.55 -35.3 526.52 -35.86 527.52 C-40.49 535.59 -45.84 543.48 -54.15 548.08 C-54.98 548.56 -55.82 549.04 -56.67 549.53 C-58.78 550.52 -58.78 550.52 -60.78 550.52 C-60.74 551.07 -60.71 551.62 -60.67 552.18 C-59.99 572.09 -68.64 590.36 -77.78 607.52 C-78.2 608.32 -78.63 609.12 -79.06 609.95 C-95.53 640.81 -114.62 672.34 -149.78 683.52 C-150.92 683.89 -152.06 684.25 -153.24 684.63 C-159.57 686.15 -166.11 685.96 -172.59 685.96 C-173.28 685.96 -173.97 685.96 -174.68 685.96 C-186.42 685.91 -196.71 684.5 -207.78 680.52 C-209.55 679.93 -211.33 679.34 -213.1 678.75 C-231.02 672.57 -247.88 664.03 -264.78 655.52 C-266.02 654.9 -267.25 654.28 -268.49 653.66 C-284.1 645.79 -298.26 637.67 -311.78 626.52 C-313.03 625.57 -313.03 625.57 -314.3 624.6 C-316.87 622.44 -318.83 620.22 -320.9 617.58 C-321.56 616.75 -322.23 615.92 -322.91 615.06 C-324.78 612.52 -324.78 612.52 -325.97 609.8 C-328.4 606.73 -330.26 606.73 -334.03 606.27 C-334.86 606.19 -335.68 606.11 -336.53 606.02 C-368.25 601.83 -394.73 581.32 -420.22 563.32 C-422.43 561.77 -424.64 560.21 -426.85 558.67 C-451.47 541.36 -477.01 521.82 -484.38 490.97 C-486.93 475.39 -486.33 457.99 -479.78 443.52 C-479.48 442.86 -479.19 442.2 -478.88 441.51 C-472.69 427.79 -464.79 414.92 -453.78 404.52 C-453.12 404.52 -452.46 404.52 -451.78 404.52 C-451.67 403.52 -451.57 402.52 -451.46 401.49 C-450.87 397.41 -449.51 393.77 -447.84 390.02 C-447.53 389.33 -447.23 388.64 -446.91 387.93 C-440.29 373.58 -430.38 359.02 -416.71 350.71 C-413.15 348.29 -411.97 347.21 -410.78 343.01 C-410.29 339.13 -410.29 339.13 -410.22 335.4 C-409.35 327.74 -405.14 321.09 -401.4 314.46 C-400.97 313.7 -400.55 312.93 -400.11 312.15 C-395.95 304.75 -391.66 297.43 -387.37 290.11 C-382.79 282.28 -378.27 274.41 -373.78 266.52 C-368.24 256.8 -362.64 247.11 -356.99 237.45 C-350.84 226.93 -344.75 216.37 -338.67 205.8 C-334.92 199.29 -331.16 192.78 -327.4 186.28 C-324.26 180.84 -321.13 175.39 -317.99 169.95 C-311.37 158.47 -304.73 147 -298.04 135.56 C-293.79 128.27 -289.56 120.96 -285.34 113.65 C-284.72 112.58 -284.1 111.5 -283.47 110.4 C-280.57 105.37 -277.67 100.34 -274.78 95.3 C-270.8 88.37 -266.8 81.44 -262.78 74.52 C-262.34 73.77 -261.91 73.03 -261.46 72.26 C-253.4 58.49 -245.13 49.06 -229.44 44.21 C-217.41 41.94 -204.36 42.49 -192.78 46.52 C-192.39 45.49 -192.39 45.49 -192 44.44 C-185.72 29.45 -176.6 17.37 -161.6 10.53 C-139.93 2.21 -114.67 11.85 -94.69 20.71 C-92.07 21.89 -89.49 23.13 -86.91 24.4 C-82.36 26.03 -79.22 25.17 -74.85 23.22 C-73.85 22.67 -72.85 22.13 -71.81 21.57 C-70.69 20.97 -69.57 20.38 -68.41 19.76 C-67.83 19.44 -67.24 19.13 -66.64 18.8 C-44.86 7.08 -24.92 -0.24 0 0 Z " fill="#0A0A14" transform="translate(484.7763671875,-0.521484375)"/>
<path d="M0 0 C0.85 0.26 1.71 0.52 2.58 0.79 C40.52 12.89 105.11 35.61 134.19 64.69 C133.8 69.72 132.66 73.25 130.12 77.58 C129.48 78.69 128.83 79.8 128.17 80.94 C127.47 82.12 126.77 83.31 126.06 84.5 C125.33 85.75 124.61 87 123.88 88.24 C122.39 90.81 120.89 93.37 119.39 95.94 C116.72 100.48 114.09 105.05 111.46 109.62 C109.61 112.83 107.76 116.05 105.9 119.26 C102.79 124.65 99.68 130.04 96.56 135.43 C94.69 138.68 92.82 141.93 90.94 145.18 C88.43 149.54 85.91 153.9 83.4 158.26 C77.14 169.12 70.87 179.98 64.56 190.81 C63.99 191.79 63.43 192.77 62.84 193.77 C60.03 198.6 57.17 203.35 54.06 207.99 C52.93 209.87 52.93 209.87 53.19 213.06 C54.01 215.99 54.01 215.99 57.19 217.69 C60.05 218.31 60.05 218.31 63.19 217.69 C65.5 215.93 67.37 214.3 69.38 212.25 C70.52 211.13 71.68 210.02 72.83 208.9 C73.4 208.35 73.97 207.8 74.55 207.23 C76.79 205.12 79.15 203.22 81.56 201.31 C86.84 197.08 91.72 192.49 96.64 187.84 C101.06 183.69 105.63 179.82 110.37 176.04 C115.08 172.11 119.5 167.89 123.96 163.7 C127.01 160.84 130.12 158.08 133.28 155.35 C135.55 153.37 137.77 151.34 140 149.31 C143.38 146.26 146.82 143.34 150.38 140.5 C155.01 136.76 159.36 132.78 163.69 128.69 C168.83 123.82 174.07 119.19 179.63 114.8 C183.19 111.86 186.45 108.62 189.7 105.34 C193.09 103.09 195.19 103.19 199.19 103.69 C201.79 104.95 201.79 104.95 204.38 106.81 C205.4 107.54 206.43 108.27 207.48 109.02 C208.06 109.43 208.64 109.85 209.23 110.28 C211.45 111.88 213.7 113.43 215.95 114.98 C225.58 121.63 235.02 128.43 244.19 135.69 C245.07 136.37 245.94 137.06 246.85 137.76 C273.3 158.57 273.3 158.57 274.51 166.89 C274.06 170.8 272.18 173.6 270.12 176.88 C269.2 178.4 268.28 179.92 267.36 181.45 C266.85 182.28 266.34 183.11 265.82 183.97 C262.78 189.02 259.87 194.14 256.94 199.25 C252.05 207.74 247.13 216.23 242.19 224.69 C235.44 236.23 228.75 247.82 222.08 259.41 C218.95 264.83 215.82 270.26 212.69 275.69 C211.44 277.85 210.19 280.02 208.94 282.19 C191.44 312.52 173.94 342.85 156.44 373.19 C155.82 374.26 155.2 375.34 154.56 376.44 C153.32 378.59 152.08 380.74 150.83 382.9 C147.92 387.94 145.01 392.99 142.12 398.05 C141.1 399.84 140.07 401.63 139.04 403.42 C137.76 405.66 136.48 407.9 135.2 410.15 C133.55 413.01 131.89 415.86 130.19 418.69 C129.75 419.43 129.3 420.18 128.85 420.95 C127.01 423.81 125.81 425.48 122.52 426.58 C112.12 426.29 102.87 423.24 93.19 419.69 C92.53 419.45 91.88 419.21 91.2 418.96 C81.67 415.41 81.67 415.41 79.19 411.69 C78.75 407.2 79.4 404.59 81.72 400.77 C82.28 399.84 82.83 398.91 83.4 397.95 C84.01 396.96 84.62 395.96 85.25 394.94 C86.55 392.77 87.84 390.61 89.13 388.45 C89.8 387.33 90.48 386.21 91.17 385.06 C94.39 379.68 97.5 374.25 100.62 368.81 C101.88 366.63 103.14 364.44 104.4 362.26 C105.03 361.17 105.65 360.09 106.3 358.97 C109.42 353.54 112.56 348.11 115.69 342.69 C116.94 340.52 118.19 338.35 119.44 336.19 C121.94 331.85 124.44 327.52 126.94 323.19 C127.56 322.11 128.18 321.04 128.81 319.94 C130.06 317.77 131.31 315.61 132.56 313.44 C135.7 308 138.84 302.56 141.97 297.12 C142.6 296.03 143.22 294.95 143.87 293.83 C145.11 291.67 146.36 289.51 147.6 287.34 C150.77 281.83 153.98 276.35 157.24 270.89 C157.89 269.8 158.55 268.7 159.22 267.58 C160.46 265.49 161.71 263.41 162.97 261.34 C163.53 260.4 164.08 259.47 164.65 258.51 C165.14 257.7 165.63 256.88 166.14 256.05 C167.33 253.36 167.51 251.59 167.19 248.69 C165.71 246.64 165.71 246.64 163.19 245.69 C159.72 245.56 157.32 245.76 154.57 248.01 C153.42 249.19 152.29 250.4 151.17 251.62 C148.99 253.9 146.66 255.79 144.19 257.75 C139.48 261.53 135.07 265.54 130.69 269.69 C125.63 274.48 120.46 278.99 115.01 283.34 C110.3 287.26 105.88 291.49 101.41 295.68 C98.37 298.53 95.26 301.3 92.1 304.02 C89.83 306 87.6 308.03 85.38 310.06 C82 313.12 78.56 316.03 75 318.88 C69.67 323.18 64.71 327.82 59.74 332.53 C55.32 336.69 50.75 340.55 46.01 344.34 C41.3 348.26 36.88 352.49 32.41 356.68 C29.38 359.52 26.28 362.28 23.13 364.99 C19.8 367.9 16.55 370.89 13.29 373.87 C10.41 376.36 8.29 377.19 4.43 377.12 C-0.85 376.1 -5.47 372.86 -10.06 370.19 C-11.25 369.51 -12.44 368.83 -13.63 368.16 C-17.37 366.03 -21.09 363.86 -24.81 361.69 C-25.42 361.33 -26.03 360.97 -26.66 360.61 C-35.08 355.69 -43.47 350.72 -51.81 345.69 C-53.01 344.97 -54.22 344.26 -55.42 343.54 C-56.61 342.83 -57.79 342.12 -58.98 341.4 C-60.58 340.44 -60.58 340.44 -62.22 339.46 C-64.81 337.69 -64.81 337.69 -66.81 334.69 C-67.14 325.89 -64.6 316.87 -62.84 308.28 C-62.53 306.76 -62.23 305.24 -61.92 303.72 C-61.09 299.61 -60.25 295.5 -59.41 291.39 C-58.53 287.06 -57.66 282.73 -56.78 278.4 C-55.3 271.12 -53.82 263.84 -52.34 256.56 C-50.64 248.2 -48.94 239.84 -47.25 231.48 C-45.43 222.52 -43.61 213.55 -41.79 204.59 C-41.27 202.04 -40.75 199.49 -40.24 196.94 C-39.26 192.13 -38.28 187.32 -37.3 182.51 C-37.15 181.76 -37 181.01 -36.84 180.24 C-34.79 170.19 -32.64 160.16 -30.21 150.19 C-29.2 145.95 -28.42 142.08 -28.81 137.69 C-31.02 135.14 -32.41 134.74 -35.75 134.31 C-38.9 134.37 -38.9 134.37 -40.62 136.62 C-41.43 138.08 -41.43 138.08 -42.25 139.56 C-42.73 140.41 -42.73 140.41 -43.22 141.27 C-43.98 142.6 -44.74 143.95 -45.48 145.29 C-47 148.02 -48.56 150.72 -50.13 153.43 C-53.04 158.44 -55.94 163.45 -58.82 168.48 C-62.31 174.55 -65.81 180.62 -69.31 186.69 C-70.56 188.85 -71.81 191.02 -73.06 193.19 C-80.56 206.19 -88.06 219.19 -95.56 232.19 C-96.18 233.26 -96.8 234.33 -97.44 235.44 C-98.68 237.6 -99.93 239.75 -101.17 241.9 C-104.06 246.92 -106.95 251.93 -109.83 256.95 C-110.84 258.7 -111.85 260.46 -112.86 262.22 C-114.12 264.41 -115.37 266.6 -116.63 268.8 C-127.04 286.92 -127.04 286.92 -129.81 289.69 C-135.13 289.37 -138 288.3 -142 284.81 C-142.94 284 -143.87 283.19 -144.84 282.36 C-145.82 281.48 -146.8 280.59 -147.81 279.69 C-148.87 278.77 -149.92 277.85 -150.98 276.93 C-166.11 263.57 -166.11 263.57 -166.81 254.69 C-165.68 251.82 -165.68 251.82 -163.9 248.82 C-162.92 247.14 -162.92 247.14 -161.92 245.43 C-161.2 244.22 -160.47 243.02 -159.75 241.81 C-159.01 240.56 -158.27 239.3 -157.54 238.04 C-156.03 235.47 -154.52 232.92 -153 230.36 C-150.45 226.08 -147.94 221.78 -145.44 217.47 C-143.73 214.53 -142.02 211.6 -140.3 208.67 C-134.73 199.13 -129.22 189.55 -123.7 179.97 C-120.58 174.54 -117.44 169.11 -114.31 163.69 C-113.06 161.52 -111.81 159.35 -110.56 157.19 C-103.06 144.19 -95.56 131.19 -88.06 118.19 C-87.44 117.11 -86.82 116.04 -86.19 114.94 C-84.94 112.77 -83.69 110.61 -82.44 108.44 C-79.3 103 -76.16 97.56 -73.03 92.12 C-66.41 80.63 -59.77 69.17 -53.08 57.73 C-48.8 50.39 -44.55 43.04 -40.31 35.69 C-38.45 32.45 -36.58 29.22 -34.71 25.98 C-33.08 23.15 -31.45 20.31 -29.82 17.48 C-28.22 14.69 -26.61 11.91 -25 9.12 C-24.41 8.09 -23.81 7.05 -23.2 5.99 C-22.66 5.04 -22.11 4.1 -21.54 3.12 C-21.06 2.29 -20.58 1.45 -20.09 0.59 C-16 -5.52 -5.78 -1.8 0 0 Z " fill="#D9FD00" transform="translate(282.8125,86.3125)"/>
<path d="M0 0 C2.59 0.02 5.18 0 7.77 -0.03 C24.09 -0.05 39.73 2.81 55.16 8.15 C56.15 8.48 57.14 8.82 58.16 9.17 C72.02 14.03 86.92 19.91 98.22 29.52 C99 30.16 99.77 30.8 100.56 31.46 C107.53 37.77 114.65 48.16 115.4 57.8 C115.47 60.71 115.51 63.61 115.54 66.52 C115.57 67.51 115.59 68.5 115.62 69.53 C115.73 81.87 110.72 91.02 104.47 101.4 C103.85 102.44 103.23 103.49 102.59 104.57 C100.81 107.56 99.02 110.54 97.22 113.52 C96.54 114.66 96.54 114.66 95.84 115.82 C89.68 126.06 89.68 126.06 86.22 130.52 C86.86 131.12 87.5 131.71 88.17 132.32 C98.79 142.5 108.12 155.15 108.52 170.36 C108.61 180.73 106.85 187.96 101.66 197.05 C101.2 197.86 100.74 198.67 100.27 199.5 C99.33 201.12 98.38 202.73 97.4 204.33 C96.96 205.07 96.53 205.81 96.08 206.58 C95.47 207.57 95.47 207.57 94.85 208.59 C93.99 210.57 93.99 210.57 95.02 212.66 C96.3 214.64 97.7 216.21 99.35 217.9 C109.62 229.44 114.95 242.73 114.49 258.19 C113.25 273.6 102.8 287.72 95.07 300.71 C91.67 306.43 88.36 312.19 85.04 317.96 C84.4 319.06 83.76 320.17 83.11 321.31 C81.14 324.71 79.18 328.12 77.22 331.52 C74.7 335.9 72.18 340.27 69.66 344.65 C69.04 345.72 68.42 346.8 67.78 347.91 C63.64 355.09 59.47 362.25 55.29 369.4 C50.21 378.07 45.2 386.79 40.22 395.52 C34.68 405.24 29.09 414.93 23.44 424.59 C17.29 435.11 11.2 445.68 5.11 456.24 C1.36 462.75 -2.39 469.26 -6.15 475.77 C-9.92 482.3 -13.69 488.84 -17.45 495.38 C-19.32 498.62 -21.19 501.85 -23.07 505.09 C-25.58 509.44 -28.07 513.8 -30.55 518.17 C-31.77 520.31 -32.99 522.45 -34.21 524.58 C-34.76 525.55 -35.3 526.52 -35.86 527.52 C-40.49 535.59 -45.84 543.48 -54.15 548.08 C-54.98 548.56 -55.82 549.04 -56.67 549.53 C-58.78 550.52 -58.78 550.52 -60.78 550.52 C-60.74 551.07 -60.71 551.62 -60.67 552.18 C-59.99 572.09 -68.64 590.36 -77.78 607.52 C-78.2 608.32 -78.63 609.12 -79.06 609.95 C-95.53 640.81 -114.62 672.34 -149.78 683.52 C-150.92 683.89 -152.06 684.25 -153.24 684.63 C-159.57 686.15 -166.11 685.96 -172.59 685.96 C-173.28 685.96 -173.97 685.96 -174.68 685.96 C-186.42 685.91 -196.71 684.5 -207.78 680.52 C-209.55 679.93 -211.33 679.34 -213.1 678.75 C-231.02 672.57 -247.88 664.03 -264.78 655.52 C-266.02 654.9 -267.25 654.28 -268.49 653.66 C-284.1 645.79 -298.26 637.67 -311.78 626.52 C-313.03 625.57 -313.03 625.57 -314.3 624.6 C-316.87 622.44 -318.83 620.22 -320.9 617.58 C-321.56 616.75 -322.23 615.92 -322.91 615.06 C-324.78 612.52 -324.78 612.52 -325.97 609.8 C-328.4 606.73 -330.26 606.73 -334.03 606.27 C-334.86 606.19 -335.68 606.11 -336.53 606.02 C-368.25 601.83 -394.73 581.32 -420.22 563.32 C-422.43 561.77 -424.64 560.21 -426.85 558.67 C-451.47 541.36 -477.01 521.82 -484.38 490.97 C-486.93 475.39 -486.33 457.99 -479.78 443.52 C-479.48 442.86 -479.19 442.2 -478.88 441.51 C-472.69 427.79 -464.79 414.92 -453.78 404.52 C-453.12 404.52 -452.46 404.52 -451.78 404.52 C-451.67 403.52 -451.57 402.52 -451.46 401.49 C-450.87 397.41 -449.51 393.77 -447.84 390.02 C-447.53 389.33 -447.23 388.64 -446.91 387.93 C-440.29 373.58 -430.38 359.02 -416.71 350.71 C-413.15 348.29 -411.97 347.21 -410.78 343.01 C-410.29 339.13 -410.29 339.13 -410.22 335.4 C-409.35 327.74 -405.14 321.09 -401.4 314.46 C-400.97 313.7 -400.55 312.93 -400.11 312.15 C-395.95 304.75 -391.66 297.43 -387.37 290.11 C-382.79 282.28 -378.27 274.41 -373.78 266.52 C-368.24 256.8 -362.64 247.11 -356.99 237.45 C-350.84 226.93 -344.75 216.37 -338.67 205.8 C-334.92 199.29 -331.16 192.78 -327.4 186.28 C-324.26 180.84 -321.13 175.39 -317.99 169.95 C-311.37 158.47 -304.73 147 -298.04 135.56 C-293.79 128.27 -289.56 120.96 -285.34 113.65 C-284.72 112.58 -284.1 111.5 -283.47 110.4 C-280.57 105.37 -277.67 100.34 -274.78 95.3 C-270.8 88.37 -266.8 81.44 -262.78 74.52 C-262.34 73.77 -261.91 73.03 -261.46 72.26 C-253.4 58.49 -245.13 49.06 -229.44 44.21 C-217.41 41.94 -204.36 42.49 -192.78 46.52 C-192.39 45.49 -192.39 45.49 -192 44.44 C-185.72 29.45 -176.6 17.37 -161.6 10.53 C-139.93 2.21 -114.67 11.85 -94.69 20.71 C-92.07 21.89 -89.49 23.13 -86.91 24.4 C-82.36 26.03 -79.22 25.17 -74.85 23.22 C-73.85 22.67 -72.85 22.13 -71.81 21.57 C-70.69 20.97 -69.57 20.38 -68.41 19.76 C-67.83 19.44 -67.24 19.13 -66.64 18.8 C-44.86 7.08 -24.92 -0.24 0 0 Z M-77 40.26 C-80.31 41.77 -81.33 41.44 -84.78 40.52 C-86.39 39.91 -87.99 39.26 -89.58 38.56 C-90.92 37.98 -90.92 37.98 -92.29 37.38 C-93.21 36.97 -94.14 36.57 -95.09 36.15 C-103.41 32.5 -111.74 29.05 -120.4 26.28 C-121.98 25.78 -123.56 25.24 -125.12 24.67 C-135.2 21.35 -148.32 20.49 -158.46 24.02 C-167.77 28.91 -172.79 37.21 -177.65 46.21 C-178.22 47.23 -178.79 48.25 -179.37 49.3 C-181.77 53.64 -184.01 57.88 -185.78 62.52 C-187.59 61.98 -187.59 61.98 -189.45 61.43 C-204.45 57.18 -220.77 53.59 -235.17 61.43 C-242.65 67.43 -247.16 75.12 -251.78 83.4 C-252.76 85.13 -253.75 86.87 -254.73 88.61 C-255.75 90.4 -256.76 92.19 -257.77 93.98 C-260.9 99.52 -264.09 105.02 -267.28 110.52 C-268.53 112.69 -269.78 114.85 -271.03 117.02 C-273.53 121.35 -276.03 125.69 -278.53 130.02 C-279.15 131.09 -279.76 132.17 -280.4 133.27 C-281.65 135.44 -282.9 137.6 -284.15 139.77 C-287.29 145.21 -290.43 150.65 -293.56 156.09 C-300.18 167.58 -306.82 179.04 -313.51 190.49 C-319.68 201.05 -325.78 211.64 -331.89 222.24 C-335.01 227.67 -338.14 233.09 -341.28 238.52 C-342.53 240.69 -343.78 242.85 -345.03 245.02 C-367.53 284.02 -367.53 284.02 -369.4 287.28 C-370.65 289.43 -371.89 291.58 -373.12 293.73 C-376.04 298.79 -378.96 303.84 -381.9 308.88 C-383.28 311.25 -384.65 313.63 -386.03 316 C-387 317.66 -387.97 319.32 -388.94 320.98 C-395.2 331.34 -395.2 331.34 -397.09 343.08 C-397.08 344.16 -397.08 345.23 -397.08 346.34 C-396.76 349.66 -395.95 352.41 -394.78 355.52 C-395.66 355.63 -396.54 355.73 -397.45 355.84 C-409.12 358.24 -418.86 368.98 -425.32 378.46 C-431.24 387.53 -436.67 397.45 -439.21 408.02 C-440.49 412.75 -442.83 414.73 -446.6 417.71 C-458.02 427.24 -465.22 442.66 -469.78 456.52 C-470.02 457.26 -470.27 458.01 -470.52 458.77 C-474.72 474.07 -471.52 490.53 -464.03 504.14 C-455.59 518.76 -443.25 529.63 -429.78 539.52 C-429.15 539.99 -428.52 540.46 -427.87 540.94 C-377.98 578.75 -377.98 578.75 -318.78 593.52 C-318.39 594.41 -318.39 594.41 -318 595.32 C-306.02 621.26 -277.98 633.37 -253.78 645.52 C-252.63 646.1 -251.49 646.68 -250.31 647.27 C-203.64 671.24 -203.64 671.24 -152.78 669.52 C-118.62 657.7 -101.14 622.92 -85.78 592.52 C-83.57 587.93 -81.61 583.27 -79.78 578.52 C-79.31 577.37 -79.31 577.37 -78.83 576.19 C-74.26 564.6 -73.39 552.77 -75.78 540.52 C-74.11 540.46 -74.11 540.46 -72.4 540.4 C-64.47 539.38 -58.28 534.62 -53.31 528.61 C-50.41 524.66 -48.12 520.38 -45.78 516.08 C-44.63 514.02 -43.48 511.95 -42.33 509.89 C-41.74 508.83 -41.16 507.78 -40.55 506.69 C-37.73 501.66 -34.82 496.68 -31.9 491.71 C-25.11 480.1 -18.38 468.46 -11.67 456.8 C-8.54 451.37 -5.41 445.95 -2.28 440.52 C-1.03 438.35 0.22 436.19 1.47 434.02 C13.97 412.35 26.47 390.69 38.97 369.02 C39.59 367.95 40.21 366.88 40.85 365.77 C42.1 363.61 43.35 361.44 44.6 359.28 C47.74 353.84 50.87 348.39 54.01 342.95 C60.05 332.46 66.12 321.98 72.22 311.52 C77.26 302.9 82.28 294.28 87.29 285.65 C88.22 284.05 88.22 284.05 89.16 282.42 C99.47 265.2 99.47 265.2 99.58 245.64 C95.73 234.1 87.66 225.02 79.22 216.52 C78.56 216.19 77.9 215.86 77.22 215.52 C77.75 210.94 78.93 207.83 81.31 203.9 C82.24 202.34 82.24 202.34 83.19 200.76 C83.84 199.69 84.49 198.62 85.16 197.52 C86.45 195.4 87.73 193.27 89 191.15 C89.57 190.21 90.14 189.27 90.73 188.31 C94.69 180.92 95.2 173.77 94.22 165.52 C90.28 153.27 81.02 143.49 71.22 135.52 C69.89 134.38 68.55 133.23 67.22 132.08 C66.23 131.24 65.24 130.39 64.22 129.52 C66.14 128.06 68.03 126.64 70.08 125.37 C76.23 121.38 79.32 116.19 82.87 109.89 C84.53 106.98 86.25 104.1 87.96 101.21 C88.98 99.48 90 97.74 91.01 96.01 C92.02 94.31 93.02 92.6 94.03 90.9 C100.09 80.47 104.16 71.37 101.75 59.14 C98.32 47.42 90.82 40.36 80.37 34.48 C71.62 29.75 62.6 25.83 53.22 22.52 C52.43 22.24 51.63 21.95 50.81 21.66 C48.62 20.9 46.43 20.2 44.22 19.52 C43.47 19.28 42.71 19.03 41.93 18.78 C-1.25 5.79 -39.97 17.01 -77 40.26 Z " fill="#DEDEDE" transform="translate(484.7763671875,-0.521484375)"/>
<path d="M0 0 C3.64 1.76 7.28 3.5 10.93 5.24 C54.32 25.91 54.32 25.91 61.15 39.08 C65.8 52.67 59.52 65.27 53.72 77.4 C45.93 93.22 37.18 108.68 26.4 122.64 C25.8 123.43 25.21 124.22 24.61 125.03 C18.11 133.13 8.71 139.04 -1.6 140.64 C-36.95 144.07 -88.1 115.4 -115.29 94.46 C-123.69 87.3 -129.25 79.73 -131.12 68.54 C-132.45 43.67 -109.91 10.74 -94.49 -7.29 C-93.87 -7.97 -93.25 -8.65 -92.6 -9.36 C-91.55 -10.55 -91.55 -10.55 -90.47 -11.77 C-64.77 -39.31 -26.85 -13.07 0 0 Z " fill="#FCFCFC" transform="translate(319.60498046875,503.35546875)"/>
<path d="M0 0 C12.86 6.29 24.52 15.03 36.25 23.15 C38.36 24.61 40.47 26.06 42.59 27.51 C46.58 30.24 50.56 32.98 54.53 35.73 C55.33 36.28 56.13 36.83 56.96 37.4 C99.37 66.74 99.37 66.74 102.53 77.73 C104.81 92.75 99.78 103.88 90.97 115.85 C87.46 120.05 83.48 124.25 78.53 126.73 C76.53 126.77 74.53 126.77 72.53 126.73 C73.03 127.32 73.52 127.92 74.03 128.54 C76.57 133.94 76.39 139.54 74.84 145.28 C73.86 147.84 72.75 150.27 71.53 152.73 C71.08 153.64 70.64 154.54 70.18 155.48 C64.77 165.91 58.49 174.75 47.78 180.1 C22.12 185.04 -0.69 164.59 -20.62 151.09 C-69.89 117.6 -69.89 117.6 -76.11 98.78 C-78.71 83.79 -72.93 71.07 -64.55 58.95 C-60.7 53.88 -57.43 50.11 -51.47 47.73 C-47.53 47.48 -47.53 47.48 -44.47 47.73 C-44.8 46.74 -45.13 45.75 -45.47 44.73 C-46.76 31.02 -41.65 18.74 -33.33 7.95 C-23.19 -3.81 -14.5 -6.06 0 0 Z " fill="#FCFCFC" transform="translate(117.46875,383.2734375)"/>
<path d="M0 0 C4.52 0.06 8.48 1.04 12.77 2.39 C13.89 2.73 13.89 2.73 15.04 3.08 C20 4.64 24.72 6.46 29.41 8.73 C31.72 9.84 34.03 10.9 36.38 11.92 C61.44 22.84 85.91 35.33 109.46 49.2 C110.56 49.84 111.67 50.49 112.81 51.15 C180.16 90.4 180.16 90.4 204.46 115.2 C204.95 115.68 205.44 116.17 205.95 116.66 C207.37 118.17 207.37 118.17 209.46 121.2 C209.17 125.83 207.68 129.05 205.33 133 C204.4 134.59 204.4 134.59 203.44 136.21 C202.79 137.3 202.13 138.39 201.46 139.51 C200.8 140.62 200.15 141.73 199.47 142.87 C194.65 151 194.65 151 193.46 152.2 C189.19 152.94 186.8 152.04 183.34 149.7 C181.74 148.55 180.16 147.38 178.58 146.2 C176.8 144.91 175.01 143.62 173.22 142.33 C172.28 141.65 171.34 140.98 170.38 140.28 C114.39 100.4 51.27 62.43 -12.57 36.66 C-15.67 35.14 -17.56 34.04 -19.54 31.2 C-19.19 26.57 -17.77 23.36 -15.42 19.4 C-14.79 18.34 -14.17 17.28 -13.53 16.19 C-12.87 15.1 -12.22 14.01 -11.54 12.89 C-10.89 11.78 -10.23 10.67 -9.56 9.53 C-4.05 0.23 -4.05 0.23 0 0 Z " fill="#D8FC00" transform="translate(341.54296875,48.80078125)"/>
<path d="M0 0 C2.13 0.78 4.17 1.66 6.24 2.58 C7.03 2.93 7.82 3.28 8.64 3.63 C21.27 9.23 33.67 15.34 46.05 21.46 C46.99 21.92 47.94 22.38 48.91 22.86 C51.28 24.02 53.64 25.2 55.99 26.4 C56.96 26.87 56.96 26.87 57.95 27.36 C62.62 29.78 66.58 32.76 69.05 37.46 C69.98 44.06 66.8 49.81 63.67 55.4 C63.23 56.21 62.79 57.02 62.33 57.86 C60.93 60.41 59.5 62.94 58.05 65.46 C57.58 66.28 57.11 67.1 56.63 67.94 C43.84 90.06 43.84 90.06 37.05 93.46 C21.86 95.27 7.87 87.78 -5.38 81.26 C-7.64 80.15 -9.91 79.05 -12.19 77.96 C-37.28 65.79 -37.28 65.79 -41.95 56.46 C-43.43 46.9 -38.4 39.54 -33.95 31.46 C-33.21 30.07 -32.47 28.68 -31.73 27.29 C-14.82 -4.1 -14.82 -4.1 0 0 Z " fill="#090914" transform="translate(271.95068359375,515.5400390625)"/>
<path d="M0 0 C1.37 0.34 2.74 0.69 4.11 1.03 C17.29 4.47 33.22 10.22 43 20 C42.82 26.08 40.56 30.12 37.44 35.12 C36.99 35.86 36.55 36.59 36.09 37.35 C34.74 39.57 33.37 41.79 32 44 C31.2 45.32 30.39 46.64 29.59 47.96 C24.24 56.76 24.24 56.76 23 58 C16.47 58.24 16.47 58.24 14 57 C12.98 55.05 12.04 53.06 11.14 51.06 C10.73 50.16 10.73 50.16 10.31 49.24 C9.43 47.31 8.56 45.37 7.69 43.44 C2.62 31.79 2.62 31.79 -4 21 C-4.99 21 -5.98 21 -7 21 C-7 30.57 -7 40.14 -7 50 C-10.63 50.66 -14.26 51.32 -18 52 C-21.85 54.3 -21.85 54.3 -23.86 55.98 C-27.4 57.67 -30.24 57.85 -34 57 C-38.82 54.75 -43.3 51.98 -47.81 49.19 C-49.1 48.4 -50.4 47.62 -51.69 46.84 C-54.26 45.29 -56.83 43.74 -59.4 42.17 C-64.98 38.79 -70.67 35.58 -76.36 32.4 C-80.05 30.3 -83.28 28.34 -86 25 C-86.13 20.15 -83.09 17.4 -80 14 C-76.11 15.44 -72.65 17.27 -69.07 19.37 C-67.38 20.36 -67.38 20.36 -65.66 21.36 C-63.89 22.4 -62.13 23.44 -60.36 24.47 C-51.44 29.75 -51.44 29.75 -42 34 C-43.43 29.5 -45.66 26.99 -49.01 23.7 C-49.49 23.22 -49.98 22.74 -50.48 22.24 C-52.02 20.72 -53.57 19.2 -55.12 17.69 C-56.18 16.65 -57.23 15.61 -58.28 14.58 C-60.84 12.04 -63.42 9.52 -66 7 C-65 4 -65 4 -63.43 2.94 C-44.14 -5.62 -20.14 -5.64 0 0 Z " fill="#FBFBFB" transform="translate(516,44)"/>
<path d="M0 0 C4.13 0.47 6.86 2.12 10.25 4.38 C10.92 4.81 11.6 5.25 12.3 5.7 C21.55 11.73 30.55 18.13 39.59 24.47 C43.45 27.18 47.35 29.84 51.25 32.5 C65.64 42.38 65.64 42.38 68.31 46.38 C68.83 51.18 67.81 54.04 65.43 58.19 C64.9 59.14 64.37 60.1 63.82 61.08 C62.31 63.38 62.31 63.38 60.31 64.38 C48.47 65.91 37.9 57.09 28.56 50.75 C27.52 50.05 26.49 49.36 25.42 48.64 C-9.32 25.1 -9.32 25.1 -11.38 15 C-10.31 9.39 -6.18 0.86 0 0 Z " fill="#0B0B16" transform="translate(88.69140625,462.625)"/>
<path d="M0 0 C13.29 0.97 25.33 11.86 35.81 19.43 C38 21 40.2 22.54 42.4 24.09 C67.2 41.41 67.2 41.41 69 45 C69.15 50.43 68.24 55.39 64.69 59.62 C62.02 61.8 59.7 61.45 56.37 61.34 C52.54 60.79 49.69 59.2 46.44 57.19 C45.75 56.78 45.07 56.38 44.37 55.96 C36.67 51.34 29.31 46.21 22 41 C20.86 40.19 20.86 40.19 19.69 39.37 C-2.54 23.7 -2.54 23.7 -7 17 C-7.73 11.58 -7.37 8.97 -4.06 4.56 C-2.75 2.98 -1.45 1.45 0 0 Z " fill="#0C0C17" transform="translate(113,418)"/>
<path d="M0 0 C0.66 0.33 1.32 0.66 2 1 C-0.97 3.97 -3.94 6.94 -7 10 C-7.66 9.67 -8.32 9.34 -9 9 C-8.07 7.87 -7.13 6.75 -6.19 5.62 C-5.67 5 -5.14 4.37 -4.61 3.73 C-3 2 -3 2 0 0 Z " fill="#E0E0E1" transform="translate(62,433)"/>
<path d="M0 0 C0 0.33 0 0.66 0 1 C-2.31 1 -4.62 1 -7 1 C-7.66 2.32 -8.32 3.64 -9 5 C-9.33 3.68 -9.66 2.36 -10 1 C-6.79 -0.61 -3.56 -0.06 0 0 Z " fill="#A0BA04" transform="translate(274,84)"/>
</svg>
