<?xml version="1.0" encoding="UTF-8"?>
<!-- Generator: https://ezgif.com/png-to-svg -->
<svg version="1.1" xmlns="http://www.w3.org/2000/svg" width="512" height="512" viewBox="-7.261 -6.401 113.333 113.333" preserveAspectRatio="xMidYMid meet">
<path d="M0 0 C3.95 0.55 7.35 1.39 11 3 C10.02 7.52 7.92 11.17 5.69 15.19 C5.3 15.92 4.91 16.66 4.5 17.42 C4.11 18.12 3.72 18.82 3.32 19.54 C2.97 20.18 2.62 20.82 2.26 21.48 C0.64 23.43 -0.52 23.69 -3 24 C-4.9 23.44 -4.9 23.44 -6.94 22.56 C-15.62 19.48 -24.9 20.03 -33.36 23.55 C-42.57 28.61 -48.47 35.94 -51.6 45.91 C-53.64 56.6 -51.58 66.66 -45.81 75.81 C-40.78 82.23 -32.95 86.5 -25 88 C-15.1 89.02 -6.52 87.87 1.73 82.08 C8.49 76.44 13.33 69.77 15 61 C15.64 53.26 15.2 46.99 11.88 39.93 C11 38 11 38 11 36 C13.9 33.81 17.11 32.08 20.25 30.25 C21.12 29.72 22 29.19 22.89 28.64 C23.74 28.14 24.58 27.65 25.45 27.14 C26.23 26.68 27 26.22 27.8 25.75 C30 25 30 25 32.21 25.72 C34.67 27.48 35.18 29.12 36 32 C36 33.32 36 34.64 36 36 C34.73 36.51 33.46 37 32.19 37.5 C31.48 37.78 30.77 38.06 30.04 38.34 C28 39 28 39 25 39 C25.46 40.14 25.46 40.14 25.94 41.31 C29.46 53.55 28.08 65.82 22 77 C20.13 80.12 20.13 80.12 18 83 C17.6 83.55 17.21 84.11 16.8 84.68 C10.66 92.61 1.67 97.67 -8 100 C-11.43 100.44 -14.8 100.53 -18.25 100.5 C-19.17 100.49 -20.09 100.49 -21.04 100.48 C-33.43 100.15 -43.23 95.8 -52 87 C-62.99 74.45 -65.19 62.61 -64.22 46.36 C-63.25 35.93 -57.25 27.1 -49.87 19.93 C-39.74 11.54 -27.81 7.38 -14.69 8.25 C-10.57 8.69 -6.85 9.4 -3 11 C-2.81 9.95 -2.81 9.95 -2.62 8.88 C-1.96 5.82 -1.03 2.95 0 0 Z " fill="#FEFFFF" transform="translate(64,0)"/>
<path d="M0 0 C3.84 3.15 6.55 5.99 7.28 11.06 C7.39 18.24 5.88 22.62 0.95 27.83 C-3.65 32.2 -7.84 35.29 -14.06 36.73 C-15.09 36.97 -15.09 36.97 -16.14 37.22 C-23.44 38.5 -30.92 37.02 -37.39 33.43 C-45.22 27.85 -50.61 21.21 -52.46 11.66 C-52.7 10.02 -52.89 8.38 -53.06 6.73 C-50.55 7.88 -48.58 9.1 -46.37 10.79 C-41.07 13.89 -36.51 14.3 -30.56 12.91 C-27.14 11.23 -25.03 8.58 -22.56 5.73 C-16.53 -1.25 -8.8 -5.44 0 0 Z " fill="#16A0DB" transform="translate(67.05859375,48.2734375)"/>
<path d="M0 0 C2.63 1.74 4.83 3.72 7 6 C6.53 10.99 4.08 15.13 1 19 C0.34 19 -0.32 19 -1 19 C-1 19.66 -1 20.32 -1 21 C-11.12 25.91 -20.26 26.23 -31 23 C-31.66 22.67 -32.32 22.34 -33 22 C-33 21.34 -33 20.68 -33 20 C-34.32 19.34 -35.64 18.68 -37 18 C-37 17.34 -37 16.68 -37 16 C-36.32 15.91 -35.64 15.82 -34.95 15.73 C-26.87 14.18 -23.47 10.74 -18.27 4.55 C-13.27 -1.06 -7.15 -2.34 0 0 Z " fill="#31BDEE" transform="translate(65,47)"/>
</svg>
