<?xml version="1.0" encoding="UTF-8"?>
<!-- Generator: https://ezgif.com/webp-to-svg -->
<svg version="1.1" xmlns="http://www.w3.org/2000/svg" width="50" height="50">
<path d="M0 0 C1.98 0.33 3.96 0.66 6 1 C4.77 5.07 3.24 8.4 1 12 C0.14 11.89 -0.71 11.79 -1.6 11.68 C-8.42 10.96 -12.99 10.6 -19 14 C-19.99 14.33 -20.98 14.66 -22 15 C-23.17 17.42 -23.17 17.42 -24 20 C-24.33 20.66 -24.66 21.32 -25 22 C-25.56 27.96 -25.5 32.93 -22 38 C-16.98 42.64 -13.06 43.27 -6.45 43.23 C-3.36 42.94 -1.46 41.84 1 40 C1.66 40 2.32 40 3 40 C6.57 33.37 7.39 28.35 6 21 C5.51 19.52 5.51 19.52 5 18 C6.62 16.99 8.25 16 9.88 15 C10.78 14.44 11.68 13.89 12.62 13.31 C15 12 15 12 17 12 C17.49 14.97 17.49 14.97 18 18 C16.02 18.99 16.02 18.99 14 20 C14.05 20.85 14.09 21.69 14.14 22.56 C14.43 31.58 13.48 36.86 7.69 43.75 C0.57 49.71 -4.02 50.72 -13.39 50.45 C-19.9 49.64 -23.63 46.73 -27.88 41.94 C-32.92 34.97 -32.81 28.36 -32 20 C-30.04 13.24 -25.95 9.7 -20.09 6.09 C-16.04 3.97 -12.82 3.89 -8.31 3.94 C-6.54 3.95 -6.54 3.95 -4.74 3.96 C-3.83 3.98 -2.93 3.99 -2 4 C-1.34 2.68 -0.68 1.36 0 0 Z " fill="#FEFFFF" transform="translate(32,0)"/>
<path d="M0 0 C2.69 1.91 3.73 3.33 4.94 6.38 C5.02 10.02 3.95 11.94 2 15 C-2.7 19.35 -6.47 20.36 -12.72 20.28 C-17.39 19.71 -20.11 16.89 -23.31 13.69 C-25.35 10.44 -25.7 7.79 -26 4 C-25.3 4.5 -24.6 4.99 -23.88 5.5 C-20.49 7.27 -18.77 7.63 -15 7 C-12.27 4.69 -12.27 4.69 -10 2 C-6.28 -0.48 -4.4 -0.46 0 0 Z " fill="#2BBAEC" transform="translate(33,23)"/>
<path d="M0 0 C4.31 2.58 6.54 4.67 9 9 C13.62 10.54 18.18 10.66 23 10 C26.09 7.75 26.09 7.75 28 5 C28.66 4.67 29.32 4.34 30 4 C29.86 6.95 29.7 9.2 27.7 11.48 C22.99 15.46 19.25 16.36 13.28 16.28 C8.61 15.71 5.89 12.89 2.69 9.69 C0.65 6.44 0.3 3.79 0 0 Z " fill="#139AD7" transform="translate(7,27)"/>
</svg>
