<?xml version="1.0" encoding="UTF-8"?>
<!-- Generator: https://ezgif.com/png-to-svg -->
<svg version="1.1" xmlns="http://www.w3.org/2000/svg" width="512" height="512" viewBox="-103.855 -43.885 808.181 808.181" preserveAspectRatio="xMidYMid meet">
<path d="M0 0 C35.31 0 70.62 0 107 0 C111.02 8.05 114.51 15.09 117.56 23.33 C123.1 37.47 129.65 51.53 136.56 65.06 C137.95 67.9 139.05 70.72 140.12 73.69 C143.84 83.49 148.53 92.86 153.11 102.29 C157.15 110.63 160.74 118.85 163.74 127.63 C165.49 132.3 167.75 136.65 170.03 141.08 C172.43 145.77 174.59 150.57 176.75 155.38 C177.13 156.21 177.5 157.04 177.89 157.9 C179.77 162.09 181.48 166.29 183.06 170.61 C185.13 175.88 187.54 181.03 189.88 186.19 C190.8 188.23 191.72 190.27 192.64 192.32 C195.87 199.47 199.21 206.54 202.81 213.52 C203.87 215.73 204.68 217.84 205.38 220.19 C207.44 226.84 210.71 233.02 213.71 239.29 C216.26 244.66 218.75 250.05 221.25 255.44 C222.01 257.07 222.01 257.07 222.79 258.74 C225.37 264.33 227.83 269.94 230.07 275.67 C231.55 279.39 233.18 283.04 234.81 286.69 C235.15 287.45 235.5 288.22 235.85 289.01 C241.49 301.64 241.49 301.64 247.57 314.07 C248.95 316.9 250.06 319.72 251.12 322.69 C254.23 330.91 258.07 338.77 261.91 346.67 C262.27 347.44 262.63 348.21 263 349 C263.77 350.54 263.77 350.54 264.55 352.11 C266.33 356.3 266.4 360.09 266.34 364.6 C266.34 365.43 266.34 366.26 266.34 367.11 C266.34 369.83 266.32 372.56 266.29 375.28 C266.29 377.17 266.28 379.07 266.28 380.96 C266.27 385.94 266.24 390.91 266.21 395.88 C266.18 400.96 266.16 406.05 266.15 411.13 C266.11 421.08 266.06 431.04 266 441 C261.69 440.16 260.03 438.17 257 435 C254.17 432.58 251.3 430.24 248.38 427.93 C243.57 424.08 239.19 420.36 235.33 415.56 C232.52 412.25 229.18 409.69 225.44 407.5 C220.45 404.43 217.97 401.28 215.85 395.88 C213.77 390.76 211.53 385.76 209.15 380.78 C208.81 380.06 208.47 379.34 208.12 378.6 C206.7 375.63 205.29 372.66 203.86 369.7 C200.22 362.09 196.7 354.57 193.94 346.59 C192.15 341.66 189.9 336.94 187.69 332.19 C186.96 330.6 186.96 330.6 186.21 328.99 C183.68 323.52 181.08 318.11 178.31 312.75 C175.1 306.45 172.55 299.96 169.98 293.39 C167.56 287.24 164.82 281.43 161.79 275.56 C159.69 271.39 157.77 267.15 155.88 262.88 C155.56 262.17 155.25 261.47 154.93 260.74 C153.14 256.69 151.43 252.61 149.76 248.5 C146.15 239.8 142.01 231.34 137.94 222.85 C131.23 208.83 131.23 208.83 128.52 201.54 C125.43 193.23 121.56 185.3 117.75 177.31 C117.01 175.75 116.27 174.19 115.53 172.63 C112.31 165.79 112.31 165.79 109 159 C108.67 247.77 108.34 336.54 108 428 C109.65 428.66 111.3 429.32 113 430 C114.75 431.32 114.75 431.32 116.34 432.8 C119.88 435.95 123.62 438.61 127.56 441.25 C128.97 442.21 130.38 443.17 131.79 444.12 C132.5 444.6 133.2 445.08 133.92 445.57 C137.69 448.16 141.4 450.82 145.1 453.49 C149.45 456.62 153.85 459.65 158.3 462.62 C159.14 463.31 159.14 463.31 160 464 C160 464.66 160 465.32 160 466 C162.18 467.13 164.32 468.12 166.62 469 C169 470 169 470 171 472 C172.38 472.94 173.78 473.85 175.19 474.75 C178.05 476.63 180.71 478.52 183.25 480.81 C186.54 483.73 190.08 486.25 193.69 488.75 C194.25 489.14 194.81 489.53 195.38 489.93 C198.18 491.85 200.97 493.49 204 495 C205.32 495.97 206.61 496.97 207.88 498 C210.76 500.29 213.68 502.5 216.7 504.61 C217.66 505.28 217.66 505.28 218.63 505.97 C219.91 506.86 221.19 507.74 222.48 508.62 C224.02 509.7 225.52 510.84 227 512 C227 512.66 227 513.32 227 514 C227.66 514 228.32 514 229 514 C229 548.98 229 583.96 229 620 C228.34 620 227.68 620 227 620 C225.63 618.5 225.63 618.5 224.12 616.44 C223.63 615.78 223.14 615.11 222.63 614.43 C220.99 611.99 219.57 609.46 218.12 606.9 C216.09 603.47 213.76 600.24 211.44 597 C210.92 596.27 210.39 595.54 209.85 594.78 C208.77 593.27 207.69 591.76 206.6 590.24 C205.06 588.08 203.54 585.91 202.02 583.73 C201.07 582.41 200.13 581.08 199.19 579.75 C198.56 578.84 198.56 578.84 197.92 577.91 C194.01 572.47 189.27 569.23 183.46 566.02 C179.78 563.98 176.76 561.41 173.62 558.62 C169.16 554.73 164.67 551.23 159.61 548.12 C158 547 158 547 157 545 C156.18 544.69 155.35 544.38 154.5 544.06 C153.68 543.71 152.85 543.36 152 543 C151.67 542.01 151.34 541.02 151 540 C149.69 539.28 148.35 538.63 147 538 C144.89 536.57 142.81 535.12 140.75 533.62 C140.14 533.19 139.54 532.76 138.92 532.31 C133.46 528.37 128.08 524.33 122.71 520.27 C118.96 517.45 115.18 514.71 111.31 512.06 C107.82 509.66 105 507 102 504 C99.72 502.53 97.4 501.27 95 500 C95 499.34 95 498.68 95 498 C94.34 497.8 93.68 497.6 93 497.4 C88.8 495.44 85.58 492.59 82.06 489.62 C76.75 485.18 71.49 481.02 65.47 477.54 C62.55 475.72 60.05 473.62 57.44 471.38 C47.53 462.6 47.53 462.6 36.37 455.8 C34 454 34 454 33.38 451.02 C33.39 449.78 33.39 448.55 33.4 447.28 C33.39 446.59 33.39 445.9 33.38 445.18 C33.37 442.85 33.4 440.52 33.43 438.19 C33.43 436.51 33.43 434.83 33.42 433.15 C33.42 428.52 33.45 423.88 33.48 419.25 C33.51 414.26 33.51 409.27 33.52 404.27 C33.53 395.62 33.55 386.96 33.59 378.3 C33.65 365.78 33.66 353.25 33.67 340.72 C33.68 320.38 33.7 300.03 33.74 279.69 C33.75 278.47 33.75 277.25 33.75 276 C33.79 258.72 33.84 241.44 33.89 224.17 C33.9 222.95 33.9 221.74 33.91 220.48 C33.91 219.27 33.91 218.06 33.92 216.81 C33.98 196.55 34.01 176.3 34.01 156.04 C34.01 143.55 34.04 131.05 34.11 118.56 C34.16 109.99 34.17 101.43 34.15 92.86 C34.14 87.92 34.15 82.98 34.2 78.04 C34.25 73.51 34.25 68.98 34.21 64.45 C34.21 62.82 34.22 61.18 34.25 59.55 C34.4 51.11 33.86 44.76 28.12 38.2 C26.43 36.45 24.73 34.71 23 33 C21.9 31.62 20.83 30.22 19.8 28.8 C17.78 26.05 15.73 23.34 13.64 20.64 C12.8 19.56 12.8 19.56 11.95 18.45 C10.8 16.97 9.65 15.48 8.5 14 C7.95 13.29 7.4 12.57 6.83 11.83 C6.33 11.19 5.84 10.55 5.33 9.89 C4 7.99 2.98 6.09 2 4 C1.34 4 0.68 4 0 4 C0 2.68 0 1.36 0 0 Z " fill="#7F0204" transform="translate(0,66)"/>
<path d="M0 0 C34.65 0 69.3 0 105 0 C105 5.62 105 5.62 102.44 8.6 C101.89 9.25 101.35 9.9 100.78 10.57 C100.2 11.25 99.61 11.93 99 12.62 C97.79 14.06 96.59 15.49 95.39 16.93 C94.51 17.97 94.51 17.97 93.62 19.04 C91.55 21.55 89.63 24.16 87.75 26.81 C83.54 32.73 79.14 38.86 74 44 C73.9 46.16 73.87 48.32 73.87 50.49 C73.87 51.18 73.87 51.86 73.86 52.57 C73.86 54.91 73.86 57.25 73.86 59.59 C73.86 61.27 73.86 62.95 73.85 64.63 C73.85 69.28 73.84 73.92 73.84 78.57 C73.84 83.57 73.83 88.56 73.83 93.56 C73.82 102.23 73.81 110.9 73.8 119.57 C73.79 133.27 73.77 146.96 73.75 160.66 C73.74 165.34 73.73 170.02 73.73 174.7 C73.72 176.46 73.72 176.46 73.72 178.25 C73.7 191.57 73.68 204.9 73.66 218.23 C73.66 219.45 73.66 220.66 73.66 221.92 C73.63 241.68 73.61 261.44 73.6 281.2 C73.58 301.46 73.55 321.73 73.51 341.99 C73.49 354.5 73.47 367.02 73.47 379.53 C73.47 388.1 73.46 396.67 73.43 405.24 C73.42 410.19 73.42 415.14 73.42 420.09 C73.43 424.61 73.42 429.14 73.4 433.67 C73.39 435.31 73.39 436.95 73.4 438.59 C73.41 440.82 73.4 443.04 73.38 445.26 C73.38 446.5 73.38 447.74 73.38 449.01 C73 452 73 452 71.65 453.76 C71.11 454.17 70.56 454.58 70 455 C69.07 455.85 68.14 456.69 67.19 457.56 C63.07 461.09 58.63 464.13 54.2 467.24 C50.2 470.07 46.48 473.03 42.94 476.43 C40.72 478.23 38.32 479.54 35.82 480.93 C32.95 482.62 30.37 484.64 27.75 486.69 C27.2 487.12 26.64 487.55 26.07 487.99 C21.41 491.63 16.86 495.38 12.34 499.19 C10.26 500.8 8.36 501.86 6 503 C4.7 503.92 3.43 504.89 2.19 505.88 C1.42 506.48 0.64 507.09 -0.15 507.71 C-2.39 509.51 -4.6 511.31 -6.82 513.13 C-7.49 513.67 -8.15 514.22 -8.84 514.78 C-10.19 515.88 -11.53 516.98 -12.86 518.09 C-13.48 518.59 -14.1 519.1 -14.74 519.62 C-15.58 520.31 -15.58 520.31 -16.43 521.01 C-18 522 -18 522 -21 522 C-21 522.66 -21 523.32 -21 524 C-21.99 524 -22.98 524 -24 524 C-24.33 524.99 -24.66 525.98 -25 527 C-27.14 528.65 -29.26 530.18 -31.5 531.69 C-36.78 535.33 -41.61 539.13 -46.23 543.6 C-48 545 -48 545 -51 545 C-51 545.66 -51 546.32 -51 547 C-52.42 547.74 -52.42 547.74 -53.88 548.5 C-60.51 552.29 -66.26 557.43 -71.94 562.5 C-75 565 -75 565 -78 565 C-78.33 565.99 -78.66 566.98 -79 568 C-80.67 568.67 -82.33 569.33 -84 570 C-88.22 573.01 -90.66 575.66 -93.06 580.22 C-94.52 582.98 -96.16 585.48 -98 588 C-98.66 588 -99.32 588 -100 588 C-100.23 588.68 -100.46 589.36 -100.69 590.07 C-102.33 593.74 -104.54 596.72 -106.94 599.94 C-110.08 604.16 -112.71 608.23 -115 613 C-116.56 614.69 -116.56 614.69 -118 616 C-118.66 616.99 -119.32 617.98 -120 619 C-120.66 619 -121.32 619 -122 619 C-122.21 605.43 -122.37 591.86 -122.47 578.29 C-122.51 571.99 -122.58 565.69 -122.68 559.39 C-122.78 553.31 -122.83 547.23 -122.85 541.14 C-122.87 538.82 -122.9 536.5 -122.95 534.19 C-123.02 530.93 -123.03 527.69 -123.02 524.43 C-123.05 523.48 -123.09 522.52 -123.12 521.53 C-123.06 517.42 -122.91 514.99 -120.05 511.89 C-117.77 510.09 -115.47 508.53 -113 507 C-111.79 506.16 -110.58 505.31 -109.38 504.45 C-107.2 502.97 -105.01 501.49 -102.82 500.02 C-100.1 498.19 -100.1 498.19 -98.38 496.38 C-96.7 494.7 -94.98 493.82 -92.88 492.75 C-88.46 490.39 -84.7 487.54 -80.85 484.36 C-79 483 -79 483 -77 483 C-76.67 482.01 -76.34 481.02 -76 480 C-74.48 478.61 -74.48 478.61 -72.62 477.31 C-72.02 476.88 -71.41 476.44 -70.79 475.99 C-69 475 -69 475 -66 475 C-66 474.34 -66 473.68 -66 473 C-65.01 472.67 -64.02 472.34 -63 472 C-62.34 471.34 -61.68 470.68 -61 470 C-59.62 469.08 -58.25 468.16 -56.86 467.26 C-52.97 464.63 -49.22 461.79 -45.44 459 C-44.6 458.38 -43.76 457.77 -42.9 457.13 C-39.59 454.69 -36.31 452.25 -33.1 449.67 C-30.92 447.93 -28.61 446.68 -26.17 445.35 C-22.09 442.82 -18.36 439.77 -14.57 436.83 C-12 435 -12 435 -10 435 C-10 434.34 -10 433.68 -10 433 C-8.71 432.32 -7.39 431.67 -6.06 431.05 C-3.46 429.47 -2.23 428.68 -1.25 425.77 C-0.99 422.87 -0.97 420.06 -1.04 417.15 C-1.03 415.49 -1.03 415.49 -1.02 413.79 C-1 410.08 -1.05 406.36 -1.09 402.65 C-1.09 399.99 -1.09 397.33 -1.09 394.66 C-1.08 388.93 -1.11 383.2 -1.15 377.47 C-1.22 369.18 -1.24 360.89 -1.25 352.61 C-1.27 339.16 -1.32 325.71 -1.4 312.27 C-1.47 299.2 -1.53 286.14 -1.56 273.08 C-1.56 272.28 -1.56 271.47 -1.57 270.64 C-1.58 266.6 -1.59 262.56 -1.6 258.52 C-1.68 225.02 -1.82 191.51 -2 158 C-3.77 161.69 -5.54 165.39 -7.3 169.08 C-7.8 170.12 -8.3 171.16 -8.82 172.23 C-12.08 179.07 -15.32 185.91 -18.44 192.81 C-18.83 193.67 -19.23 194.54 -19.63 195.42 C-21.53 199.6 -23.34 203.79 -25.02 208.06 C-26.92 212.87 -29.07 217.53 -31.31 222.19 C-32.11 223.85 -32.9 225.51 -33.69 227.18 C-34.8 229.49 -35.91 231.8 -37.02 234.12 C-39.97 240.29 -42.85 246.43 -45.19 252.88 C-48.52 261.83 -52.88 270.33 -57.06 278.91 C-62.55 290.21 -62.55 290.21 -67.19 301.88 C-71.17 312.41 -76.33 322.46 -81.25 332.58 C-85.58 341.46 -89.53 350.19 -92.71 359.56 C-94.68 364.81 -97.25 369.71 -99.8 374.69 C-102.26 379.47 -104.57 384.32 -106.88 389.19 C-107.26 389.99 -107.64 390.79 -108.03 391.62 C-109.48 394.68 -110.88 397.68 -112.05 400.86 C-113.13 403.3 -114.25 404.45 -116.31 406.12 C-116.89 406.6 -117.46 407.08 -118.05 407.57 C-120 409 -120 409 -122.45 410.44 C-129.34 414.66 -135.12 420.95 -140.68 426.75 C-143.95 430.11 -146.92 432.64 -151 435 C-151.87 435.89 -152.73 436.77 -153.62 437.69 C-156 440 -156 440 -159 440 C-159.16 429.32 -159.29 418.65 -159.36 407.97 C-159.4 403.01 -159.45 398.05 -159.53 393.1 C-159.6 388.3 -159.65 383.5 -159.66 378.7 C-159.68 376.88 -159.7 375.07 -159.74 373.25 C-160 360.49 -158.01 351.27 -152 340 C-150.92 337.88 -149.83 335.75 -148.75 333.62 C-148.26 332.67 -147.77 331.71 -147.26 330.72 C-146.09 328.19 -145.28 325.81 -144.56 323.12 C-142.9 317.07 -139.94 311.7 -137.09 306.14 C-131.53 295.21 -126.26 284.22 -122.11 272.68 C-118.67 263.15 -114.1 254.14 -109.5 245.12 C-106.23 238.65 -103.47 232.02 -100.75 225.3 C-95.41 212.1 -89.63 198.96 -83.11 186.3 C-79.27 178.94 -79.27 178.94 -76.56 171.12 C-74.75 164.3 -71.21 158.22 -68 151.98 C-65.51 147.06 -63.28 142.02 -61 137 C-60.55 136.03 -60.09 135.06 -59.62 134.07 C-59.19 133.14 -58.76 132.21 -58.31 131.25 C-57.94 130.45 -57.56 129.65 -57.18 128.83 C-56.2 126.49 -55.41 124.21 -54.65 121.8 C-52.96 116.65 -50.69 111.86 -48.31 107 C-47.42 105.15 -46.53 103.3 -45.64 101.45 C-44.36 98.81 -43.08 96.17 -41.8 93.54 C-37.01 83.99 -37.01 83.99 -33.5 73.94 C-31.73 67.29 -28.26 61.33 -25.14 55.25 C-19.85 44.83 -14.99 34.43 -11.25 23.36 C-9 17.32 -5.98 11.7 -3 6 C-2.01 4.02 -1.02 2.04 0 0 Z " fill="#720306" transform="translate(495,66)"/>
<path d="M0 0 C1.88 1.06 1.88 1.06 3 3 C3.2 4.1 3.4 5.2 3.61 6.33 C5.46 11.21 7.84 12.36 12.31 14.69 C20.02 18.91 26.01 22.29 29 31 C29.54 33.98 29.62 36.85 29.56 39.88 C29.55 41.06 29.55 41.06 29.53 42.26 C29.25 49.82 27.58 55.62 21.96 60.93 C16.81 65 16.81 65 14 65 C14 65.66 14 66.32 14 67 C13.34 67 12.68 67 12 67 C10.63 73.06 9.59 78.37 11 84.5 C12.21 89.77 11.6 93.94 10.41 99.18 C9.95 102.38 10.37 104.84 11 108 C11.13 112.06 11.06 115.61 10.44 119.62 C9.7 124.69 10.35 129.67 10.84 134.73 C10.99 137.76 10.7 140.07 10 143 C9.74 147.84 9.97 151.58 12 156 C14.83 158.05 14.83 158.05 18.25 159.56 C24.39 162.63 29.13 165.19 33 171 C34.1 177.27 34.15 183.46 34.12 189.81 C34.13 190.75 34.13 191.69 34.14 192.66 C34.14 193.56 34.13 194.47 34.13 195.39 C34.13 196.21 34.13 197.02 34.13 197.86 C34 200 34 200 33 203 C32.06 203.07 32.06 203.07 31.1 203.15 C30.28 203.22 29.47 203.3 28.62 203.38 C27.41 203.48 27.41 203.48 26.16 203.59 C23.8 203.83 23.8 203.83 22 206 C21.7 209.08 21.7 209.08 21.76 212.78 C21.75 213.49 21.75 214.2 21.75 214.93 C21.74 217.33 21.75 219.73 21.76 222.12 C21.76 223.85 21.76 225.58 21.76 227.31 C21.75 232.08 21.76 236.84 21.77 241.61 C21.78 246.75 21.78 251.88 21.78 257.02 C21.77 265.93 21.78 274.84 21.79 283.75 C21.8 297.86 21.79 311.96 21.78 326.07 C21.78 330.9 21.77 335.72 21.77 340.55 C21.77 342.36 21.77 342.36 21.77 344.21 C21.76 357.95 21.75 371.7 21.75 385.45 C21.75 387.33 21.75 387.33 21.75 389.26 C21.75 409.57 21.76 429.89 21.77 450.21 C21.79 471.08 21.78 491.96 21.75 512.83 C21.74 525.7 21.74 538.56 21.77 551.42 C21.78 560.26 21.78 569.1 21.76 577.94 C21.74 583.02 21.74 588.11 21.77 593.2 C21.86 613.66 21.59 632.71 15.73 652.5 C14.61 656.32 13.71 660.19 12.81 664.06 C12.65 664.74 12.49 665.41 12.32 666.1 C11.26 670.61 10.47 675.12 9.75 679.69 C8.37 688.24 6.12 696.58 3.88 704.94 C3.6 705.96 3.6 705.96 3.32 707 C0.22 718.57 0.22 718.57 -1 721 C-1.66 721 -2.32 721 -3 721 C-3.33 550.72 -3.66 380.44 -4 205 C-4.33 205 -4.66 205 -5 205 C-5.33 375.28 -5.66 545.56 -6 721 C-6.66 721 -7.32 721 -8 721 C-8.45 719.19 -8.9 717.39 -9.36 715.58 C-9.65 714.42 -9.94 713.26 -10.24 712.06 C-10.87 709.5 -11.51 706.94 -12.15 704.38 C-13.57 698.68 -15 692.98 -16.47 687.29 C-18.56 679.2 -20.47 671.18 -21.74 662.92 C-22.4 658.83 -23.27 654.9 -24.44 650.92 C-30.07 631.03 -29.86 611.55 -29.78 591.05 C-29.77 585.85 -29.79 580.66 -29.81 575.46 C-29.83 566.49 -29.83 557.52 -29.82 548.54 C-29.8 535.57 -29.82 522.6 -29.84 509.62 C-29.88 488.57 -29.89 467.51 -29.88 446.46 C-29.87 426.02 -29.88 405.59 -29.9 385.15 C-29.9 383.26 -29.9 383.26 -29.91 381.33 C-29.91 374.99 -29.92 368.65 -29.93 362.32 C-29.99 309.88 -30.01 257.44 -30 205 C-30.77 204.88 -31.54 204.76 -32.34 204.63 C-33.84 204.38 -33.84 204.38 -35.38 204.12 C-36.87 203.88 -36.87 203.88 -38.4 203.63 C-41 203 -41 203 -43 201 C-43.46 197.14 -43.32 193.25 -43.31 189.38 C-43.33 188.31 -43.34 187.24 -43.36 186.14 C-43.37 178.91 -42.98 172.78 -38.34 166.9 C-34.47 163.7 -30.67 161.22 -26.19 158.94 C-22.86 157.18 -21.13 156.17 -18.75 153.19 C-17.63 148.43 -17.78 143.43 -20 139 C-20.1 137.52 -20.13 136.04 -20.12 134.56 C-20.13 133.78 -20.13 133 -20.13 132.19 C-20 130 -20 130 -19 127 C-18.84 125.04 -18.84 125.04 -18.88 123 C-18.87 122.32 -18.87 121.64 -18.87 120.94 C-18.93 118.78 -18.93 118.78 -20 116 C-20.38 111.5 -20.2 107.65 -18.88 103.31 C-17.81 99.29 -18.64 97.86 -20 94 C-20.38 89.05 -20.07 84.27 -19.31 79.38 C-18.77 74.65 -19.31 70.99 -22 67 C-24.18 65.02 -26.45 63.3 -28.84 61.59 C-33.1 58.45 -35.32 54.93 -37 50 C-38.46 40.12 -38.83 31.48 -33 23 C-30.62 20.94 -30.62 20.94 -27.88 19 C-26.9 18.31 -25.93 17.62 -24.93 16.9 C-22.34 15.22 -19.79 13.88 -17 12.56 C-14.32 11.17 -13.23 10.45 -11.85 7.73 C-11.04 5.29 -11.04 5.29 -10.54 2.89 C-10.36 2.27 -10.18 1.64 -10 1 C-6.81 -0.59 -3.47 -0.38 0 0 Z " fill="#760304" transform="translate(305,0)"/>
<path d="M0 0 C1.88 1.06 1.88 1.06 3 3 C3.2 4.1 3.4 5.2 3.61 6.33 C5.46 11.21 7.84 12.36 12.31 14.69 C20.02 18.91 26.01 22.29 29 31 C29.54 33.98 29.62 36.85 29.56 39.88 C29.55 41.06 29.55 41.06 29.53 42.26 C29.27 49.6 27.45 55.13 22.51 60.67 C19.53 63.42 16.95 64.48 13 65 C10.77 65.99 10.77 65.99 9 67 C9 66.34 9 65.68 9 65 C1.66 66.2 1.66 66.2 -5.5 68.19 C-8 69 -8 69 -11 68 C-11.5 67.01 -11.5 67.01 -12 66 C-12.62 66.35 -13.24 66.7 -13.88 67.06 C-14.93 67.53 -14.93 67.53 -16 68 C-16.66 67.67 -17.32 67.34 -18 67 C-18 68.32 -18 69.64 -18 71 C-18.66 71 -19.32 71 -20 71 C-20.56 69.95 -20.56 69.95 -21.12 68.88 C-22.95 66.07 -24.27 64.91 -26.94 63 C-31.93 59.42 -35 55.86 -37 50 C-38.46 40.12 -38.83 31.48 -33 23 C-30.62 20.94 -30.62 20.94 -27.88 19 C-26.9 18.31 -25.93 17.62 -24.93 16.9 C-22.34 15.22 -19.79 13.88 -17 12.56 C-14.32 11.17 -13.23 10.45 -11.85 7.73 C-11.04 5.29 -11.04 5.29 -10.54 2.89 C-10.36 2.27 -10.18 1.64 -10 1 C-6.81 -0.59 -3.47 -0.38 0 0 Z " fill="#88070D" transform="translate(305,0)"/>
<path d="M0 0 C4.72 1.63 7.57 4.67 10.32 8.8 C11.43 15.07 11.48 21.26 11.45 27.61 C11.46 29.02 11.46 29.02 11.46 30.46 C11.46 31.36 11.46 32.27 11.46 33.2 C11.46 34.01 11.45 34.82 11.45 35.66 C11.32 37.8 11.32 37.8 10.32 40.8 C8.41 41 6.49 41.18 4.57 41.36 C2.97 41.52 2.97 41.52 1.34 41.68 C-3.47 41.87 -3.47 41.87 -5.68 40.8 C-9.05 36.64 -10.53 32.64 -11.86 27.49 C-12.65 23.33 -12.65 23.33 -14.68 19.8 C-14.77 18.32 -14.81 16.84 -14.8 15.36 C-14.8 14.56 -14.81 13.76 -14.81 12.93 C-14.68 10.8 -14.68 10.8 -13.68 8.8 C-13.02 8.8 -12.36 8.8 -11.68 8.8 C-11.48 8.16 -11.29 7.52 -11.09 6.87 C-10.83 6.04 -10.57 5.21 -10.3 4.36 C-10.05 3.54 -9.79 2.72 -9.53 1.87 C-7.66 -2.66 -3.91 -0.93 0 0 Z " fill="#880305" transform="translate(327.67578125,162.19921875)"/>
<path d="M0 0 C0.99 0.33 1.98 0.66 3 1 C3 1.99 3 2.98 3 4 C3.66 4 4.32 4 5 4 C5 3.34 5 2.68 5 2 C9.06 0.65 11.03 1.49 15 3 C15.76 3.78 16.53 4.57 17.31 5.38 C20.09 8.09 21.53 8.64 25.12 9.81 C29.76 11.55 29.76 11.55 31.81 15.44 C31.99 16.12 32.17 16.81 32.35 17.52 C33.18 20.69 34.44 23.6 35.69 26.62 C37.48 30.99 38.26 34.28 38 39 C35 40 35 40 32.44 39.06 C24.75 34.87 18.39 28.81 13 22 C12.4 22.21 11.81 22.42 11.19 22.64 C9 23 9 23 5.94 20.81 C4.14 19.19 2.8 17.73 1.38 15.75 C-0.32 13.59 -1.36 13.49 -4 13 C-4.99 12.34 -5.98 11.68 -7 11 C-6.67 9.35 -6.34 7.7 -6 6 C-5.34 6 -4.68 6 -4 6 C-3 9 -3 9 -3 10 C0.3 9.67 3.6 9.34 7 9 C7.33 10.65 7.66 12.3 8 14 C8.66 14 9.32 14 10 14 C10 13.01 10 12.02 10 11 C9.34 11 8.68 11 8 11 C8 9.35 8 7.7 8 6 C6.36 6.77 6.36 6.77 4.69 7.56 C1 9 1 9 -2 8 C-2.2 4.28 -2.15 3.23 0 0 Z " fill="#9A0103" transform="translate(66,322)"/>
<path d="M0 0 C2.11 3.17 3.02 5.86 4.12 9.5 C4.48 10.64 4.83 11.79 5.2 12.97 C6 16 6 16 6 19 C5.34 19 4.68 19 4 19 C4.5 19.78 4.99 20.57 5.5 21.38 C7 24 7 24 7 26 C8.98 26.66 10.96 27.32 13 28 C12.86 28.77 12.71 29.54 12.56 30.34 C12.38 31.34 12.19 32.34 12 33.38 C11.81 34.37 11.63 35.37 11.44 36.4 C10.94 38.89 10.94 38.89 11 41 C10.34 41 9.68 41 9 41 C8.67 38.69 8.34 36.38 8 34 C7.34 34 6.68 34 6 34 C5.85 33.34 5.71 32.67 5.55 31.99 C3.95 25.68 2.44 22.63 -3 19 C-3.33 20.32 -3.66 21.64 -4 23 C-7.83 21.55 -9.28 19.69 -11 16 C-11.5 13.38 -11.5 13.38 -11 11 C-8.81 9.06 -8.81 9.06 -6 8 C-3.19 8.81 -3.19 8.81 -1 10 C-1 10.66 -1 11.32 -1 12 C-0.34 12 0.32 12 1 12 C0.67 8.04 0.34 4.08 0 0 Z " fill="#4B0002" transform="translate(72,273)"/>
<path d="M0 0 C0.99 0.33 1.98 0.66 3 1 C4.32 3.69 4.32 3.69 5.56 7 C6.85 11.3 6.85 11.3 10 14 C10 15.32 10 16.64 10 18 C10.66 18 11.32 18 12 18 C12 18.66 12 19.32 12 20 C13.32 20.66 14.64 21.32 16 22 C15.34 22.33 14.68 22.66 14 23 C14.6 23.82 15.2 24.65 15.81 25.5 C17.88 28.57 19.12 31.67 20.29 35.17 C21.04 37.29 21.04 37.29 23 40 C20 40 20 40 17.62 38.25 C14.56 34.95 13.22 31.11 11.6 26.95 C9.1 20.62 6.15 14.48 3.3 8.3 C2.66 6.91 2.66 6.91 2.01 5.49 C1.62 4.65 1.24 3.81 0.84 2.94 C0 1 0 1 0 0 Z " fill="#A21C20" transform="translate(203,432)"/>
<path d="M0 0 C1.65 0.33 3.3 0.66 5 1 C5 6.61 5 12.22 5 18 C3.68 17.34 2.36 16.68 1 16 C1 15.34 1 14.68 1 14 C0.36 13.77 -0.28 13.55 -0.94 13.31 C-3 12 -3 12 -3.94 9.75 C-4.02 6.15 -2.81 4.07 -1 1 C-0.67 0.67 -0.34 0.34 0 0 Z " fill="#AF080C" transform="translate(103,276)"/>
<path d="M0 0 C0.69 1.62 0.69 1.62 1 4 C0.05 6.03 -0.95 8.02 -2 10 C-2.77 12.32 -3.38 14.63 -4 17 C-4.66 17 -5.32 17 -6 17 C-6 17.66 -6 18.32 -6 19 C-5.34 19.33 -4.68 19.66 -4 20 C-2.81 21.94 -2.81 21.94 -2 24 C-2.33 24.66 -2.66 25.32 -3 26 C-4.32 26 -5.64 26 -7 26 C-7.66 27.98 -8.32 29.96 -9 32 C-10.56 30.88 -10.56 30.88 -12 29 C-11.7 23.23 -9.06 18.46 -6.56 13.38 C-6.15 12.53 -5.75 11.68 -5.33 10.81 C-3.58 7.19 -1.8 3.59 0 0 Z " fill="#960508" transform="translate(409,259)"/>
<path d="M0 0 C8.81 5.46 8.81 5.46 9.79 8.2 C9.89 9.09 9.89 9.09 10 10 C9.01 10.5 9.01 10.5 8 11 C8 11.66 8 12.32 8 13 C4.04 14.98 4.04 14.98 0 17 C0 11.39 0 5.78 0 0 Z " fill="#9D0507" transform="translate(34,255)"/>
<path d="M0 0 C0.33 0 0.66 0 1 0 C2.12 7.62 2.12 7.62 1 11 C1.66 11.33 2.32 11.66 3 12 C2.34 12.66 1.68 13.32 1 14 C0.34 13.67 -0.32 13.34 -1 13 C-1.33 13.66 -1.66 14.32 -2 15 C-2 14.34 -2 13.68 -2 13 C-2.66 13 -3.32 13 -4 13 C-4 14.32 -4 15.64 -4 17 C-4.66 17 -5.32 17 -6 17 C-6.19 17.68 -6.39 18.35 -6.59 19.05 C-6.85 19.94 -7.11 20.83 -7.38 21.75 C-7.63 22.63 -7.89 23.51 -8.15 24.42 C-8.92 26.76 -9.84 28.83 -11 31 C-13.18 24.45 -8.88 17.55 -5.97 11.68 C-4.34 8.44 -2.68 5.22 -1 2 C-0.67 1.34 -0.34 0.68 0 0 Z " fill="#B0171E" transform="translate(472,117)"/>
<path d="M0 0 C2.31 0.33 4.62 0.66 7 1 C7 5.95 7 10.9 7 16 C3.06 14.69 2.71 13.17 0.81 9.56 C0.28 8.57 -0.25 7.59 -0.79 6.57 C-2 4 -2 4 -2 2 C-1.34 2 -0.68 2 0 2 C0 1.34 0 0.68 0 0 Z " fill="#9F080B" transform="translate(101,338)"/>
<path d="M0 0 C0.66 0.33 1.32 0.66 2 1 C2.62 3.56 2.62 3.56 3 6 C1.68 6 0.36 6 -1 6 C-1.33 8.31 -1.66 10.62 -2 13 C-1.01 13.33 -0.02 13.66 1 14 C-0.14 14.65 -0.14 14.65 -1.31 15.31 C-5.95 18.22 -7.67 21.02 -10 26 C-10.66 26 -11.32 26 -12 26 C-10.08 19.56 -7.54 13.82 -4.31 7.94 C-3.9 7.17 -3.48 6.4 -3.05 5.6 C-2.04 3.73 -1.02 1.87 0 0 Z " fill="#901418" transform="translate(389,305)"/>
<path d="M0 0 C2.77 2.77 3.93 6.13 5.44 9.69 C5.74 10.38 6.04 11.08 6.35 11.79 C7.24 13.86 8.12 15.93 9 18 C9.57 19.34 10.15 20.68 10.72 22.02 C11.14 23 11.57 23.99 12 25 C10.68 25.33 9.36 25.66 8 26 C7.67 25.01 7.34 24.02 7 23 C6.34 22.34 5.68 21.68 5 21 C4.73 18.31 4.91 15.71 5 13 C2.53 12.01 2.53 12.01 0 11 C0 7.37 0 3.74 0 0 Z " fill="#8D181D" transform="translate(235,355)"/>
<path d="M0 0 C0 0.66 0 1.32 0 2 C-0.66 2 -1.32 2 -2 2 C-0.41 7.36 1.19 12.71 3 18 C2.34 18 1.68 18 1 18 C-0.65 14.7 -2.3 11.4 -4 8 C-4.99 8 -5.98 8 -7 8 C-7 5.36 -7 2.72 -7 0 C-3.87 -1.04 -3.01 -0.93 0 0 Z " fill="#A51C22" transform="translate(113,217)"/>
<path d="M0 0 C0.66 0 1.32 0 2 0 C2 0.66 2 1.32 2 2 C1.01 2.5 1.01 2.5 0 3 C-0.65 5.02 -0.65 5.02 -1 7 C-0.34 7 0.32 7 1 7 C0.63 9.74 0.31 11.59 -1.38 13.81 C-3 15 -3 15 -6 15 C-6 11.7 -6 8.4 -6 5 C-5.01 4.67 -4.02 4.34 -3 4 C-1.99 2.67 -0.99 1.34 0 0 Z " fill="#900A0D" transform="translate(500,221)"/>
<path d="M0 0 C6.15 1.56 11.49 3.39 15 9 C15.38 12.38 15.38 12.38 15 15 C13.67 13.67 12.33 12.33 11 11 C10.26 10.3 9.51 9.6 8.75 8.88 C7 7 7 7 7 5 C6.03 4.73 5.06 4.46 4.06 4.19 C2.55 3.6 2.55 3.6 1 3 C0.67 2.01 0.34 1.02 0 0 Z " fill="#390305" transform="translate(214,665)"/>
<path d="M0 0 C0.66 0 1.32 0 2 0 C0.51 4.44 -2.39 5.55 -6.44 7.56 C-10.16 9.43 -13.14 10.98 -16 14 C-16.66 14 -17.32 14 -18 14 C-18.33 14.99 -18.66 15.98 -19 17 C-19.66 16.67 -20.32 16.34 -21 16 C-16.37 9.47 -10.85 6.32 -3.95 2.6 C-1.19 1.28 -1.19 1.28 0 0 Z " fill="#6A2326" transform="translate(285,155)"/>
<path d="M0 0 C0.99 0.66 1.98 1.32 3 2 C2.34 2.66 1.68 3.32 1 4 C1.33 4.99 1.66 5.98 2 7 C1.01 7.5 1.01 7.5 0 8 C0 7.34 0 6.68 0 6 C-1.98 6.33 -3.96 6.66 -6 7 C-6 7.99 -6 8.98 -6 10 C-8.31 10.66 -10.62 11.32 -13 12 C-11.61 8.65 -10.11 6.89 -7 5 C-6.01 5 -5.02 5 -4 5 C-4 4.34 -4 3.68 -4 3 C-3.01 2.67 -2.02 2.34 -1 2 C-0.67 1.34 -0.34 0.68 0 0 Z " fill="#60171C" transform="translate(433,536)"/>
<path d="M0 0 C4.1 1.44 7.3 3.44 10.81 6 C12.28 7.05 12.28 7.05 13.77 8.12 C14.51 8.74 15.24 9.36 16 10 C16 10.66 16 11.32 16 12 C14.66 11.69 13.33 11.35 12 11 C10.48 10.63 10.48 10.63 8.94 10.25 C5.39 8.74 4.75 7.34 3 4 C2.01 3.34 1.02 2.68 0 2 C0 1.34 0 0.68 0 0 Z " fill="#7C181E" transform="translate(210,567)"/>
<path d="M0 0 C2.53 2.36 3.89 3.66 5 7 C5.99 7.33 6.98 7.66 8 8 C7.79 8.7 7.59 9.4 7.38 10.12 C6.92 13.6 7.72 15.77 9 19 C8.34 19 7.68 19 7 19 C3.63 12.83 1.66 6.82 0 0 Z " fill="#A9242C" transform="translate(170,357)"/>
<path d="M0 0 C6.91 1.94 12.16 7.96 17 13 C16.3 12.71 15.6 12.42 14.88 12.12 C11.97 10.94 11.97 10.94 8.75 10.06 C7.84 9.71 6.94 9.36 6 9 C5.67 8.01 5.34 7.02 5 6 C4.01 5.67 3.02 5.34 2 5 C0.81 2.44 0.81 2.44 0 0 Z " fill="#8D151D" transform="translate(174,541)"/>
<path d="M0 0 C0.99 0.33 1.98 0.66 3 1 C1.55 4.32 0.09 7.63 -1.38 10.94 C-1.79 11.88 -2.2 12.83 -2.62 13.8 C-3.02 14.7 -3.42 15.6 -3.84 16.53 C-4.2 17.36 -4.57 18.19 -4.95 19.05 C-6 21 -6 21 -8 22 C-8.5 17.25 -6.75 13.94 -4.56 9.88 C-2.01 5.06 -2.01 5.06 0 0 Z " fill="#68191E" transform="translate(397,429)"/>
<path d="M0 0 C0.33 0 0.66 0 1 0 C1 2.31 1 4.62 1 7 C0.01 7 -0.98 7 -2 7 C-2 7.99 -2 8.98 -2 10 C-1.34 10 -0.68 10 0 10 C0 10.66 0 11.32 0 12 C-0.66 12 -1.32 12 -2 12 C-2 12.99 -2 13.98 -2 15 C-2.99 15 -3.98 15 -5 15 C-5 15.66 -5 16.32 -5 17 C-5.66 17 -6.32 17 -7 17 C-5.53 10.85 -2.94 5.58 0 0 Z " fill="#72171D" transform="translate(348,396)"/>
<path d="M0 0 C0.74 0.76 1.48 1.53 2.25 2.31 C4.79 4.93 4.79 4.93 7.12 6.5 C9.46 8.37 10.54 10.4 12 13 C12.56 13.72 13.11 14.44 13.69 15.19 C15 17 15 17 15 19 C10.95 17.65 9.37 14.88 6.94 11.56 C3.67 7.11 3.67 7.11 0 3 C0 2.01 0 1.02 0 0 Z " fill="#9B2125" transform="translate(18,90)"/>
<path d="M0 0 C0.99 0 1.98 0 3 0 C3.47 3.58 3.1 4.85 1.03 7.89 C0.2 8.86 -0.64 9.82 -1.5 10.81 C-2.34 11.79 -3.17 12.76 -4.03 13.77 C-4.68 14.51 -5.33 15.24 -6 16 C-6.33 15.01 -6.66 14.02 -7 13 C-6.55 12.61 -6.1 12.22 -5.64 11.82 C-3.66 9.63 -2.85 7.57 -1.81 4.81 C-1.47 3.91 -1.12 3.01 -0.77 2.08 C-0.52 1.39 -0.26 0.71 0 0 Z " fill="#2E0D0F" transform="translate(597,66)"/>
<path d="M0 0 C0.66 0 1.32 0 2 0 C4.84 5.13 6.44 10.39 8 16 C6.02 16 4.04 16 2 16 C2.66 13.36 3.32 10.72 4 8 C3.34 8 2.68 8 2 8 C1.34 5.36 0.68 2.72 0 0 Z " fill="#9A1A1F" transform="translate(133,128)"/>
<path d="M0 0 C4.3 1.98 7.31 4.8 10.75 8 C11.35 8.55 11.95 9.09 12.57 9.66 C14.09 11.06 15.55 12.53 17 14 C17 14.66 17 15.32 17 16 C9.48 12.49 4.65 6.72 0 0 Z " fill="#921D24" transform="translate(234,479)"/>
<path d="M0 0 C3 1 3 1 4.39 3.43 C4.82 4.42 5.25 5.42 5.69 6.44 C6.34 7.92 6.34 7.92 7.01 9.43 C8 12 8 12 8 14 C7.34 14 6.68 14 6 14 C5.59 13.03 5.18 12.06 4.75 11.06 C3.35 7.88 3.35 7.88 0.81 7.12 C0.21 7.08 -0.38 7.04 -1 7 C-0.67 4.69 -0.34 2.38 0 0 Z " fill="#9B222A" transform="translate(126,113)"/>
<path d="M0 0 C3.13 1.18 6.21 2.48 9.25 3.88 C9.94 4.18 10.62 4.49 11.33 4.8 C13 6 13 6 13.73 8.13 C13.82 8.75 13.91 9.37 14 10 C10.07 9.41 7.78 7.48 4.75 5 C3.86 4.28 2.97 3.56 2.05 2.81 C1.37 2.21 0.7 1.62 0 1 C0 0.67 0 0.34 0 0 Z " fill="#591518" transform="translate(51,531)"/>
<path d="M0 0 C1.32 0 2.64 0 4 0 C4 0.66 4 1.32 4 2 C4.66 2 5.32 2 6 2 C5.67 2.66 5.34 3.32 5 4 C4.34 3.67 3.68 3.34 3 3 C3.33 5.64 3.66 8.28 4 11 C3.34 11 2.68 11 2 11 C-1.08 5.71 -1.08 5.71 -0.69 2.12 C-0.35 1.07 -0.35 1.07 0 0 Z " fill="#981315" transform="translate(152,314)"/>
<path d="M0 0 C2.25 3.37 3.92 6.9 5.62 10.56 C5.95 11.25 6.27 11.93 6.61 12.64 C9 17.76 9 17.76 9 20 C8.34 20 7.68 20 7 20 C-0.43 7.25 -0.43 7.25 0 0 Z " fill="#8B2529" transform="translate(168,204)"/>
<path d="M0 0 C0.66 0.33 1.32 0.66 2 1 C2.13 7.39 2.13 7.39 1.5 10.44 C0.81 14 0.94 17.38 1 21 C0.34 21.33 -0.32 21.66 -1 22 C-3.06 17.89 -2.35 13.11 -1 8.88 C-0.67 7.93 -0.34 6.98 0 6 C0.17 2.75 0.17 2.75 0 0 Z " fill="#691A1F" transform="translate(314,130)"/>
<path d="M0 0 C0.66 0.33 1.32 0.66 2 1 C-0.64 6.61 -3.28 12.22 -6 18 C-6.33 18 -6.66 18 -7 18 C-6.6 11.81 -4.51 4.51 0 0 Z " fill="#621C26" transform="translate(444,327)"/>
<path d="M0 0 C4.15 1.44 7.3 3.5 10.81 6.12 C11.79 6.85 12.76 7.57 13.77 8.32 C14.51 8.87 15.24 9.43 16 10 C14.32 10.74 14.32 10.74 12 11 C9.49 9.38 9.49 9.38 6.88 7.12 C3.64 4.26 3.64 4.26 0 2 C0 1.34 0 0.68 0 0 Z " fill="#742126" transform="translate(141,518)"/>
<path d="M0 0 C2.59 2.59 3.62 5.29 5.12 8.62 C5.66 9.81 6.2 11 6.76 12.23 C7.37 13.6 7.37 13.6 8 15 C7.01 15 6.02 15 5 15 C3.38 13 3.38 13 2 11 C1.67 11 1.34 11 1 11 C0.67 7.37 0.34 3.74 0 0 Z " fill="#921A1D" transform="translate(150,164)"/>
<path d="M0 0 C3.07 3.07 4.07 6.8 5 11 C4.96 13.51 4.58 15.54 4 18 C2.68 17.34 1.36 16.68 0 16 C0.66 16 1.32 16 2 16 C2.18 11.38 1.83 8.22 0 4 C0 2.68 0 1.36 0 0 Z " fill="#781214" transform="translate(122,102)"/>
<path d="M0 0 C1.02 3.18 1.12 3.74 -0.38 6.94 C-0.91 7.95 -1.45 8.96 -2 10 C-2.7 12.74 -2.7 12.74 -3 15 C-4.32 15.33 -5.64 15.66 -7 16 C-5.57 12.34 -4.01 8.76 -2.38 5.19 C-1.93 4.21 -1.48 3.24 -1.02 2.23 C-0.52 1.13 -0.52 1.13 0 0 Z " fill="#8E2A32" transform="translate(409,259)"/>
<path d="M0 0 C4.87 1.39 7.16 3.87 10 8 C10.31 10.88 10.31 10.88 10 13 C9.34 12.67 8.68 12.34 8 12 C7.87 11.38 7.73 10.77 7.6 10.13 C6.83 7.4 5.66 6.59 3.44 4.88 C1.5 3.37 1.5 3.37 0 2 C0 1.34 0 0.68 0 0 Z " fill="#9E2530" transform="translate(328,163)"/>
<path d="M0 0 C5.2 1.36 8.18 3.36 12 7 C12 7.66 12 8.32 12 9 C11.4 8.69 10.8 8.38 10.19 8.06 C7.91 6.9 7.91 6.9 5 6 C5 5.34 5 4.68 5 4 C3.68 4.33 2.36 4.66 1 5 C0.67 3.35 0.34 1.7 0 0 Z " fill="#911B21" transform="translate(197,558)"/>
<path d="M0 0 C0.99 0.5 0.99 0.5 2 1 C2 1.66 2 2.32 2 3 C2.66 3 3.32 3 4 3 C4.66 4.65 5.32 6.3 6 8 C5.34 8 4.68 8 4 8 C3.67 8.66 3.34 9.32 3 10 C2.01 9.67 1.02 9.34 0 9 C0 6.03 0 3.06 0 0 Z " fill="#A80A11" transform="translate(302,431)"/>
<path d="M0 0 C3 1 3 1 4.13 3.14 C4.46 4.02 4.79 4.91 5.12 5.81 C5.46 6.69 5.79 7.56 6.13 8.46 C6.87 10.63 7.49 12.77 8 15 C7.34 15 6.68 15 6 15 C4.99 13.07 3.99 11.13 3 9.19 C2.44 8.11 1.89 7.03 1.31 5.92 C0 3 0 3 0 0 Z " fill="#831925" transform="translate(196,416)"/>
<path d="M0 0 C2.87 2.48 4.16 5.12 5.69 8.56 C6.12 9.53 6.56 10.5 7.01 11.5 C8 14 8 14 8 16 C7.34 16 6.68 16 6 16 C4.99 14.09 3.99 12.17 3 10.25 C2.44 9.18 1.89 8.12 1.31 7.02 C0 4 0 4 0 0 Z " fill="#682324" transform="translate(217,315)"/>
<path d="M0 0 C0.33 0 0.66 0 1 0 C1.75 5.88 -0.54 10.37 -4 15 C-4.99 15.33 -5.98 15.66 -7 16 C-5.57 12.34 -4.01 8.76 -2.38 5.19 C-1.93 4.21 -1.48 3.24 -1.02 2.23 C-0.52 1.13 -0.52 1.13 0 0 Z " fill="#9C232B" transform="translate(440,190)"/>
<path d="M0 0 C0.66 0.33 1.32 0.66 2 1 C0.02 5.29 -1.96 9.58 -4 14 C-4.33 14 -4.66 14 -5 14 C-5.49 6.6 -5.49 6.6 -3.06 3.62 C-2.04 2.82 -2.04 2.82 -1 2 C-0.67 1.34 -0.34 0.68 0 0 Z " fill="#711E26" transform="translate(415,391)"/>
<path d="M0 0 C0.66 0.33 1.32 0.66 2 1 C-1.46 8.43 -1.46 8.43 -5 16 C-5.33 16 -5.66 16 -6 16 C-6.39 11.54 -5.22 9.02 -3 5.19 C-2.44 4.21 -1.89 3.24 -1.31 2.23 C-0.88 1.49 -0.45 0.76 0 0 Z " fill="#7E1D24" transform="translate(478,250)"/>
<path d="M0 0 C0.51 0.4 1.02 0.8 1.54 1.21 C5.54 4.29 9.37 6.92 14 9 C11 10 11 10 7.56 8.81 C4.28 7.14 2.25 5.88 0 3 C0 2.01 0 1.02 0 0 Z " fill="#531D1F" transform="translate(314,153)"/>
<path d="M0 0 C2.91 1.46 3.32 3.5 4.62 6.44 C5.07 7.43 5.52 8.41 5.98 9.43 C7 12 7 12 7 14 C6.34 14 5.68 14 5 14 C5 13.34 5 12.68 5 12 C4.01 11.67 3.02 11.34 2 11 C1.34 7.37 0.68 3.74 0 0 Z " fill="#951B24" transform="translate(114,85)"/>
<path d="M0 0 C3.69 1.23 3.86 2.13 5.56 5.5 C7.12 8.9 7.12 8.9 10 11 C9.67 11.99 9.34 12.98 9 14 C1.33 5.92 1.33 5.92 0 0 Z " fill="#7E2A2D" transform="translate(268,49)"/>
<path d="M0 0 C2.47 0.5 2.47 0.5 5 1 C4.67 3.64 4.34 6.28 4 9 C3.34 9 2.68 9 2 9 C1.34 6.03 0.68 3.06 0 0 Z " fill="#410002" transform="translate(70,108)"/>
<path d="M0 0 C0.66 0 1.32 0 2 0 C2.17 4.41 2 7.12 0 11 C-0.17 14.17 -0.17 14.17 0 17 C-0.66 17 -1.32 17 -2 17 C-2.22 11 -1.51 5.81 0 0 Z " fill="#561B1C" transform="translate(287,75)"/>
<path d="M0 0 C0.66 0.33 1.32 0.66 2 1 C2 2.98 2 4.96 2 7 C1.34 7 0.68 7 0 7 C-0.66 8.32 -1.32 9.64 -2 11 C-2.66 11 -3.32 11 -4 11 C-2.96 7.13 -1.96 3.51 0 0 Z " fill="#7E181E" transform="translate(395,290)"/>
<path d="M0 0 C0.33 0 0.66 0 1 0 C1.23 0.89 1.45 1.77 1.69 2.69 C3.17 6.43 5.02 8.34 8 11 C6.02 10.34 4.04 9.68 2 9 C2 8.34 2 7.68 2 7 C0.68 6.67 -0.64 6.34 -2 6 C-1.34 4.02 -0.68 2.04 0 0 Z " fill="#681316" transform="translate(93,557)"/>
<path d="M0 0 C2.89 1.92 4.19 3.37 6.19 6.12 C6.72 6.85 7.25 7.57 7.79 8.32 C8.19 8.87 8.59 9.43 9 10 C6 10 6 10 3.38 7.81 C0.99 4.99 0.31 3.6 0 0 Z " fill="#A3222C" transform="translate(217,462)"/>
<path d="M0 0 C0.66 0 1.32 0 2 0 C2 2.64 2 5.28 2 8 C1.01 7.67 0.02 7.34 -1 7 C-1 7.99 -1 8.98 -1 10 C-1.66 10 -2.32 10 -3 10 C-2.69 8.52 -2.38 7.04 -2.06 5.56 C-1.8 4.33 -1.8 4.33 -1.54 3.07 C-1 1 -1 1 0 0 Z " fill="#86181C" transform="translate(375,334)"/>
<path d="M0 0 C1.94 0.81 1.94 0.81 4 2 C4.33 2.99 4.66 3.98 5 5 C5.66 5.33 6.32 5.66 7 6 C7 6.66 7 7.32 7 8 C4.03 7.5 4.03 7.5 1 7 C0.67 4.69 0.34 2.38 0 0 Z " fill="#760D11" transform="translate(284,663)"/>
<path d="M0 0 C0.33 0 0.66 0 1 0 C1.33 2.97 1.66 5.94 2 9 C3.32 9.33 4.64 9.66 6 10 C6 10.99 6 11.98 6 13 C3.56 12.19 3.56 12.19 1 11 C-0.28 7.15 -0.07 4.05 0 0 Z " fill="#5C0608" transform="translate(34,202)"/>
<path d="M0 0 C3.22 1.41 5.32 3.1 7.75 5.62 C8.67 6.57 8.67 6.57 9.61 7.54 C10.3 8.26 10.3 8.26 11 9 C10.67 9.99 10.34 10.98 10 12 C9.46 11.32 8.93 10.64 8.38 9.94 C5.65 6.57 2.84 3.28 0 0 Z " fill="#470103" transform="translate(429,325)"/>
<path d="M0 0 C0.33 0 0.66 0 1 0 C1.33 2.64 1.66 5.28 2 8 C1.01 7.67 0.02 7.34 -1 7 C-1.33 7.99 -1.66 8.98 -2 10 C-2.66 10 -3.32 10 -4 10 C-2.89 6.51 -1.74 3.23 0 0 Z " fill="#AF222B" transform="translate(472,117)"/>
<path d="M0 0 C-0.33 2.31 -0.66 4.62 -1 7 C-1.99 7 -2.98 7 -4 7 C-4 5.02 -4 3.04 -4 1 C-2 0 -2 0 0 0 Z " fill="#400607" transform="translate(204,282)"/>
<path d="M0 0 C0.66 0 1.32 0 2 0 C2 1.32 2 2.64 2 4 C1.26 3.92 0.52 3.83 -0.25 3.75 C-3.78 4.07 -4.77 5.35 -7 8 C-6.39 5.04 -5.75 3.62 -4 1 C-2.68 1.33 -1.36 1.66 0 2 C0 1.34 0 0.68 0 0 Z " fill="#6B0708" transform="translate(106,273)"/>
<path d="M0 0 C0.99 0.33 1.98 0.66 3 1 C4 4 4 4 2.56 7.19 C1.79 8.58 1.79 8.58 1 10 C0.67 10 0.34 10 0 10 C0 6.7 0 3.4 0 0 Z " fill="#560002" transform="translate(64,169)"/>
<path d="M0 0 C0.66 0 1.32 0 2 0 C2.1 0.93 2.21 1.86 2.31 2.81 C3.01 6.03 3.48 7.03 6 9 C5.67 9.66 5.34 10.32 5 11 C3.96 9.93 2.95 8.84 1.94 7.75 C1.37 7.15 0.8 6.54 0.21 5.92 C-1 4 -1 4 -0.68 1.77 C-0.46 1.18 -0.23 0.6 0 0 Z " fill="#7C181C" transform="translate(253,491)"/>
<path d="M0 0 C0.66 0 1.32 0 2 0 C1.55 1.48 1.09 2.96 0.62 4.44 C0.37 5.26 0.11 6.08 -0.15 6.93 C-1 9 -1 9 -3 10 C-3 8.02 -3 6.04 -3 4 C-2.34 4 -1.68 4 -1 4 C-0.67 2.68 -0.34 1.36 0 0 Z " fill="#7F1B1F" transform="translate(452,307)"/>
<path d="M0 0 C1.94 0.75 1.94 0.75 4 2 C4.75 4.12 4.75 4.12 5 6 C3.35 6.33 1.7 6.66 0 7 C0 4.69 0 2.38 0 0 Z " fill="#952C33" transform="translate(106,218)"/>
<path d="M0 0 C2.97 1.12 5.33 2.22 8 4 C7.67 4.66 7.34 5.32 7 6 C5.68 6 4.36 6 3 6 C2.67 4.68 2.34 3.36 2 2 C1.34 2 0.68 2 0 2 C0 1.34 0 0.68 0 0 Z " fill="#661519" transform="translate(131,511)"/>
<path d="M0 0 C0.33 0 0.66 0 1 0 C0.53 4.06 0.12 7.47 -2 11 C-2.66 11 -3.32 11 -4 11 C-3.52 9.54 -3.04 8.08 -2.56 6.62 C-2.3 5.81 -2.03 5 -1.75 4.16 C-1 2 -1 2 0 0 Z " fill="#85242C" transform="translate(340,413)"/>
<path d="M0 0 C1.65 0 3.3 0 5 0 C4.01 0.5 4.01 0.5 3 1 C3.33 3.64 3.66 6.28 4 9 C1.5 6.06 0.53 3.82 0 0 Z " fill="#A42630" transform="translate(188,397)"/>
<path d="M0 0 C0.99 0.33 1.98 0.66 3 1 C3.69 3.06 3.69 3.06 4 5 C4.66 5 5.32 5 6 5 C6 5.99 6 6.98 6 8 C5.01 8 4.02 8 3 8 C0 2.25 0 2.25 0 0 Z " fill="#B73C44" transform="translate(178,377)"/>
<path d="M0 0 C0.66 0 1.32 0 2 0 C0.84 3.91 -0.36 6.87 -3 10 C-3 5.67 -2.03 3.73 0 0 Z " fill="#792C2E" transform="translate(483,239)"/>
<path d="M0 0 C-0.66 1.65 -1.32 3.3 -2 5 C-2.66 5 -3.32 5 -4 5 C-4.33 5.66 -4.66 6.32 -5 7 C-6 5 -6 5 -5.75 2.94 C-5.5 2.3 -5.25 1.66 -5 1 C-2 0 -2 0 0 0 Z " fill="#632022" transform="translate(399,649)"/>
<path d="M0 0 C0.99 0 1.98 0 3 0 C3 0.66 3 1.32 3 2 C4.32 2.66 5.64 3.32 7 4 C7 4.99 7 5.98 7 7 C6.67 6.34 6.34 5.68 6 5 C5.18 4.69 4.35 4.38 3.5 4.06 C2.68 3.71 1.85 3.36 1 3 C0.67 2.01 0.34 1.02 0 0 Z " fill="#371012" transform="translate(151,606)"/>
<path d="M0 0 C2.48 0.99 2.48 0.99 5 2 C4.67 3.32 4.34 4.64 4 6 C3.01 5.67 2.02 5.34 1 5 C0.67 3.35 0.34 1.7 0 0 Z " fill="#A40308" transform="translate(534,348)"/>
<path d="M0 0 C0.33 0 0.66 0 1 0 C1.36 4.24 0.54 6.58 -2 10 C-2.66 10 -3.32 10 -4 10 C-3.52 8.52 -3.04 7.04 -2.56 5.56 C-2.3 4.74 -2.03 3.92 -1.75 3.07 C-1 1 -1 1 0 0 Z " fill="#9D373D" transform="translate(401,276)"/>
<path d="M0 0 C1.32 1.32 2.64 2.64 4 4 C2.68 5.65 1.36 7.3 0 9 C0 6.03 0 3.06 0 0 Z " fill="#460406" transform="translate(373,675)"/>
<path d="M0 0 C0.66 0 1.32 0 2 0 C0.8 3.08 -0.48 6.06 -2 9 C-2.66 8.67 -3.32 8.34 -4 8 C-2.68 5.36 -1.36 2.72 0 0 Z " fill="#711B2A" transform="translate(420,380)"/>
<path d="M0 0 C0.66 0 1.32 0 2 0 C2 1.98 2 3.96 2 6 C0.68 6 -0.64 6 -2 6 C-1.34 4.02 -0.68 2.04 0 0 Z " fill="#5C1F20" transform="translate(361,366)"/>
<path d="M0 0 C0.69 1.69 0.69 1.69 1 4 C-0.31 6.75 -0.31 6.75 -2 9 C-2.66 9 -3.32 9 -4 9 C-2.8 5.92 -1.52 2.94 0 0 Z " fill="#932A31" transform="translate(386,311)"/>
<path d="M0 0 C3 1 3 1 4.25 3.31 C5.05 6.17 4.82 7.25 4 10 C3.33 8.71 2.66 7.42 2 6.12 C1.63 5.41 1.26 4.69 0.88 3.95 C0 2 0 2 0 0 Z " fill="#86292D" transform="translate(140,291)"/>
<path d="M0 0 C0.33 1.32 0.66 2.64 1 4 C-2.62 7 -2.62 7 -6 7 C-6 6.34 -6 5.68 -6 5 C-4.34 3.98 -2.68 2.98 -1 2 C-0.67 1.34 -0.34 0.68 0 0 Z " fill="#952026" transform="translate(293,8)"/>
<path d="M0 0 C2.44 0.75 2.44 0.75 5 2 C5.81 4.12 5.81 4.12 6 6 C4.12 5.81 4.12 5.81 2 5 C0.75 2.44 0.75 2.44 0 0 Z " fill="#922A35" transform="translate(174,541)"/>
<path d="M0 0 C1.32 0 2.64 0 4 0 C3.67 0.99 3.34 1.98 3 3 C0.44 4.19 0.44 4.19 -2 5 C-1.34 3.35 -0.68 1.7 0 0 Z " fill="#5E1B1D" transform="translate(364,360)"/>
<path d="M0 0 C0.66 0.33 1.32 0.66 2 1 C2 1.66 2 2.32 2 3 C3.32 3 4.64 3 6 3 C6 3.66 6 4.32 6 5 C1.55 4.01 1.55 4.01 -3 3 C-2.01 2.67 -1.02 2.34 0 2 C0 1.34 0 0.68 0 0 Z " fill="#5B060D" transform="translate(487,219)"/>
<path d="M0 0 C0.66 0 1.32 0 2 0 C3.69 2.31 3.69 2.31 5 5 C4.67 5.99 4.34 6.98 4 8 C1.85 5.38 0.6 3.36 0 0 Z " fill="#6F2226" transform="translate(116,238)"/>
<path d="M0 0 C0.99 0.66 1.98 1.32 3 2 C2.01 3.98 1.02 5.96 0 8 C-0.66 8 -1.32 8 -2 8 C-1.34 5.36 -0.68 2.72 0 0 Z " fill="#751A1E" transform="translate(486,230)"/>
</svg>
