<?xml version="1.0" encoding="UTF-8"?>
<!-- Generator: https://ezgif.com/png-to-svg -->
<svg version="1.1" xmlns="http://www.w3.org/2000/svg" width="512" height="512" viewBox="-25.316 -85.441 470.882 470.882" preserveAspectRatio="xMidYMid meet">
<path d="M0 0 C4.65 1.23 8.78 2.7 13.12 4.81 C20.66 8.41 28.26 11.84 35.88 15.25 C36.5 15.53 37.13 15.81 37.77 16.1 C47.39 20.41 57.03 24.67 66.69 28.91 C74.3 32.25 81.9 35.62 89.5 39 C98.16 42.85 106.82 46.69 115.5 50.5 C125.32 54.81 135.12 59.16 144.91 63.52 C153.45 67.31 161.99 71.08 170.54 74.83 C176.18 77.31 181.81 79.8 187.43 82.32 C188.67 82.88 189.92 83.43 191.16 83.99 C193.55 85.06 195.93 86.13 198.32 87.21 C199.93 87.93 199.93 87.93 201.58 88.66 C202.53 89.09 203.48 89.52 204.46 89.96 C208.69 91.84 208.69 91.84 213.12 91.34 C213.89 90.97 214.65 90.6 215.45 90.22 C216.34 89.8 217.23 89.37 218.16 88.94 C219.14 88.46 220.12 87.99 221.12 87.5 C223.3 86.48 225.47 85.45 227.64 84.43 C228.82 83.88 230 83.32 231.22 82.75 C238.03 79.58 244.93 76.58 251.81 73.56 C254.01 72.6 256.2 71.63 258.4 70.67 C259.85 70.03 261.3 69.39 262.75 68.75 C269.53 65.77 276.3 62.76 283.06 59.75 C292.56 55.52 302.07 51.32 311.59 47.14 C319.23 43.78 326.87 40.4 334.5 37 C343.16 33.15 351.82 29.31 360.5 25.5 C369.32 21.62 378.13 17.73 386.94 13.81 C388.06 13.31 389.19 12.81 390.35 12.3 C395.45 10.03 400.55 7.76 405.63 5.46 C406.47 5.09 407.32 4.71 408.18 4.32 C409.72 3.63 411.26 2.93 412.8 2.23 C417.78 0 417.78 0 420 0 C419.42 3.14 418.61 4.76 416.34 6.99 C415.5 7.82 415.5 7.82 414.64 8.67 C414.04 9.26 413.43 9.85 412.8 10.45 C412.18 11.07 411.55 11.69 410.91 12.33 C408.9 14.31 406.89 16.28 404.88 18.25 C402.88 20.21 400.89 22.17 398.91 24.13 C397.67 25.35 396.43 26.56 395.19 27.77 C392.19 30.72 389.33 33.73 386.58 36.92 C382.83 41.26 378.81 45.3 374.73 49.33 C373.97 50.09 373.21 50.85 372.42 51.63 C370.01 54.03 367.6 56.42 365.19 58.81 C361.99 61.98 358.8 65.16 355.61 68.33 C354.87 69.06 354.14 69.78 353.38 70.53 C352.71 71.2 352.03 71.88 351.33 72.57 C350.73 73.16 350.14 73.76 349.52 74.36 C347.8 76.13 347.8 76.13 346 79 C345.34 79 344.68 79 344 79 C343.74 79.58 343.49 80.17 343.22 80.77 C341.89 83.2 340.43 84.8 338.46 86.76 C337.73 87.48 337.01 88.2 336.26 88.94 C335.48 89.71 334.69 90.48 333.89 91.27 C333.08 92.07 332.27 92.88 331.44 93.7 C328.86 96.26 326.28 98.82 323.69 101.38 C321.11 103.92 318.54 106.47 315.96 109.03 C314.36 110.61 312.76 112.2 311.16 113.78 C307.98 116.93 304.89 120.04 302.09 123.53 C301.4 124.35 300.71 125.16 300 126 C299.34 126 298.68 126 298 126 C297.73 126.59 297.47 127.18 297.2 127.79 C295.96 130.07 294.69 131.54 292.85 133.36 C292.22 133.99 291.58 134.63 290.92 135.28 C290.23 135.96 289.54 136.63 288.83 137.33 C288.12 138.04 287.41 138.74 286.67 139.47 C284.39 141.74 282.1 143.99 279.81 146.25 C277.54 148.49 275.27 150.74 273.01 152.98 C271.6 154.38 270.19 155.77 268.77 157.16 C265.57 160.34 262.47 163.56 259.52 166.97 C255.81 171.28 251.84 175.27 247.8 179.26 C246.66 180.39 246.66 180.39 245.51 181.55 C243.11 183.93 240.71 186.31 238.31 188.69 C235.14 191.83 231.97 194.98 228.8 198.14 C228.08 198.85 227.35 199.57 226.61 200.3 C223.17 203.72 219.94 207.13 217 211 C215.37 212.81 215.37 212.81 214 214 C213.34 214 212.68 214 212 214 C212 214.66 212 215.32 212 216 C210.68 216 209.36 216 208 216 C208 215.34 208 214.68 208 214 C207.34 214 206.68 214 206 214 C204.64 212.36 203.31 210.68 202 209 C200.35 207.32 198.68 205.65 197 204 C195.91 202.91 194.83 201.83 193.74 200.74 C193.15 200.15 192.57 199.57 191.96 198.96 C170.13 177.13 170.13 177.13 168.49 175.48 C167.2 174.2 165.89 172.95 164.58 171.7 C163 170 163 170 163 168 C162.34 168 161.68 168 161 168 C159.54 166.52 159.54 166.52 157.85 164.48 C154.24 160.24 150.42 156.3 146.46 152.39 C145.77 151.71 145.08 151.02 144.36 150.31 C142.18 148.14 140 145.98 137.81 143.81 C134.92 140.95 132.03 138.08 129.14 135.21 C128.16 134.23 128.16 134.23 127.15 133.24 C123.86 129.97 120.88 126.65 118 123 C116.36 121.31 114.69 119.65 113 118 C111.75 116.75 110.49 115.5 109.24 114.25 C108.54 113.56 107.84 112.87 107.12 112.15 C103.96 109 100.79 105.84 97.63 102.68 C95.96 101.02 94.3 99.37 92.63 97.71 C90.21 95.3 87.8 92.89 85.38 90.48 C84.65 89.75 83.91 89.02 83.15 88.27 C79.82 84.93 76.58 81.57 73.5 77.99 C69.76 73.66 65.74 69.65 61.66 65.63 C60.09 64.07 58.52 62.51 56.94 60.95 C54.49 58.52 52.03 56.09 49.57 53.67 C47.18 51.3 44.79 48.94 42.41 46.57 C41.67 45.84 40.92 45.11 40.16 44.36 C39.48 43.68 38.8 43.01 38.1 42.31 C37.2 41.42 37.2 41.42 36.28 40.52 C35 39 35 39 35 37 C34.01 36.67 33.02 36.34 32 36 C30.63 34.6 30.63 34.6 29.12 32.74 C25.87 28.91 22.43 25.37 18.85 21.86 C18.3 21.31 17.75 20.77 17.18 20.22 C14.89 17.96 12.6 15.71 10.3 13.47 C8.6 11.81 6.91 10.15 5.22 8.48 C4.7 7.97 4.17 7.47 3.63 6.95 C2.36 5.69 1.17 4.35 0 3 C0 2.01 0 1.02 0 0 Z " fill="#572C84" transform="translate(0,25)"/>
<path d="M0 0 C0.34 8.97 -0.99 17.53 -2.42 26.36 C-2.68 27.98 -2.94 29.61 -3.2 31.24 C-3.75 34.73 -4.31 38.21 -4.87 41.7 C-6.23 50.16 -7.56 58.62 -8.9 67.08 C-9.37 70 -9.83 72.92 -10.29 75.84 C-13.13 93.75 -15.87 111.68 -18.58 129.62 C-19.67 136.85 -20.76 144.07 -21.86 151.3 C-21.98 152.11 -22.11 152.92 -22.23 153.76 C-25.37 174.51 -28.55 195.25 -31.74 215.99 C-32.37 220.1 -33 224.22 -33.63 228.33 C-34.37 233.15 -35.11 237.97 -35.85 242.79 C-36.12 244.57 -36.39 246.35 -36.67 248.13 C-37.04 250.57 -37.42 253.01 -37.79 255.45 C-37.9 256.16 -38.01 256.87 -38.12 257.61 C-38.61 260.78 -39.14 263.9 -40 267 C-40.66 267 -41.32 267 -42 267 C-45.45 247.13 -48.37 227.2 -51.25 207.24 C-51.78 203.6 -52.31 199.97 -52.83 196.33 C-54.08 187.75 -55.32 179.17 -56.56 170.6 C-57.83 161.77 -59.11 152.94 -60.39 144.11 C-61.5 136.49 -62.6 128.87 -63.71 121.25 C-64.36 116.71 -65.02 112.18 -65.68 107.64 C-66.3 103.4 -66.91 99.15 -67.52 94.9 C-67.74 93.35 -67.97 91.79 -68.2 90.24 C-68.51 88.11 -68.81 85.99 -69.12 83.86 C-69.29 82.67 -69.46 81.49 -69.64 80.26 C-70.58 71.8 -70.58 71.8 -68.28 68.61 C-67.09 67.48 -67.09 67.48 -65.87 66.32 C-65 65.47 -64.13 64.63 -63.23 63.75 C-62.31 62.89 -61.39 62.02 -60.44 61.12 C-58.64 59.4 -56.85 57.67 -55.06 55.95 C-54.18 55.1 -53.3 54.25 -52.4 53.38 C-50.4 51.4 -48.54 49.39 -46.72 47.24 C-40.65 40.12 -33.76 33.71 -27.11 27.13 C-17.94 18.09 -17.94 18.09 -9.31 8.54 C-7.67 6.61 -5.92 4.79 -4.12 3 C-3.26 2.13 -3.26 2.13 -2.38 1.25 C-1 0 -1 0 0 0 Z " fill="#532C84" transform="translate(420,33)"/>
<path d="M0 0 C6.45 5.37 12.46 11.02 17.91 17.41 C23.43 23.76 29.52 29.59 35.5 35.5 C48.99 48.84 48.99 48.84 54.44 55.28 C56.12 57.13 57.9 58.75 59.78 60.39 C60.39 60.93 61.01 61.48 61.64 62.04 C62.89 63.15 64.16 64.22 65.45 65.27 C68.16 67.75 69.91 69.67 70.16 73.43 C69.04 84.64 67.4 95.77 65.75 106.91 C65.42 109.17 65.09 111.43 64.76 113.69 C63.88 119.72 63 125.75 62.11 131.77 C61.2 138 60.29 144.22 59.37 150.45 C58.28 157.92 57.19 165.38 56.1 172.85 C53.96 187.39 51.85 201.93 49.75 216.48 C49.51 218.13 49.27 219.78 49.03 221.44 C48.17 227.45 47.3 233.47 46.44 239.49 C46.05 242.21 45.65 244.94 45.26 247.66 C44.91 250.05 44.57 252.44 44.23 254.84 C44.08 255.87 43.93 256.9 43.78 257.96 C43.65 258.84 43.52 259.73 43.39 260.64 C43.03 262.8 42.57 264.89 42 267 C41.34 267 40.68 267 40 267 C35.53 240.94 31.52 214.8 27.49 188.67 C26.93 185.03 26.37 181.38 25.81 177.74 C20.47 143.15 15.17 108.55 9.93 73.94 C9.82 73.21 9.71 72.48 9.6 71.72 C9.06 68.16 8.52 64.59 7.98 61.03 C6.93 54.07 5.87 47.12 4.77 40.18 C4.2 36.61 3.64 33.04 3.08 29.47 C2.81 27.76 2.54 26.05 2.26 24.34 C1.88 21.95 1.5 19.56 1.13 17.18 C1.01 16.48 0.9 15.79 0.78 15.07 C-0 10.01 -0.09 5.13 0 0 Z " fill="#532C84" transform="translate(0,33)"/>
<path d="M0 0 C1.94 0.38 1.94 0.38 4 1 C4.68 2.32 5.35 3.66 6 5 C6.57 5.27 7.14 5.54 7.73 5.82 C10.78 7.41 12.83 9.57 15.25 12 C16.14 12.89 17.03 13.77 17.95 14.69 C20 17 20 17 20 19 C21.48 19.5 21.48 19.5 23 20 C23 20.66 23 21.32 23 22 C23.87 22.39 23.87 22.39 24.77 22.78 C27.18 24.1 28.82 25.55 30.75 27.5 C31.36 28.11 31.98 28.72 32.61 29.34 C34 31 34 31 34 33 C35.48 33.5 35.48 33.5 37 34 C37 34.66 37 35.32 37 36 C37.58 36.25 38.15 36.5 38.74 36.76 C41.32 38.18 43.04 39.82 45.11 41.91 C45.86 42.67 46.62 43.44 47.39 44.22 C48.17 45.01 48.95 45.81 49.75 46.62 C50.54 47.43 51.34 48.23 52.15 49.05 C54.11 51.03 56.06 53.01 58 55 C56.13 59 53.52 62.08 50.62 65.38 C49.53 66.63 48.44 67.89 47.35 69.15 C46.79 69.79 46.24 70.43 45.66 71.09 C43.09 74.05 40.55 77.02 38 80 C37.01 81.16 36.01 82.32 35.02 83.48 C32.95 85.89 30.89 88.3 28.82 90.71 C20.11 100.89 20.11 100.89 16.44 105.06 C13.04 108.93 9.72 112.87 6.4 116.8 C2.97 120.86 -0.48 124.91 -3.94 128.94 C-4.43 129.52 -4.93 130.09 -5.44 130.69 C-7.99 133.67 -10.55 136.64 -13.11 139.61 C-17.7 144.94 -22.26 150.28 -26.69 155.75 C-30.39 160.32 -34.27 164.68 -38.25 169 C-40.05 170.88 -40.05 170.88 -41 173 C-41.99 173 -42.98 173 -44 173 C-42.79 161.36 -41.3 149.81 -39.46 138.26 C-39.22 136.7 -38.97 135.15 -38.73 133.59 C-37.68 126.91 -36.62 120.23 -35.56 113.55 C-34.74 108.36 -33.92 103.17 -33.1 97.99 C-32.96 97.13 -32.83 96.28 -32.69 95.4 C-30.91 84.13 -29.26 72.85 -27.75 61.54 C-27.41 59.1 -27.08 56.65 -26.74 54.21 C-26.28 50.83 -25.82 47.46 -25.41 44.08 C-23.88 31.46 -22.64 22.94 -13 14 C-11.75 12.63 -10.51 11.25 -9.28 9.86 C-8.17 8.68 -7.05 7.49 -5.94 6.31 C-5.36 5.69 -4.78 5.08 -4.18 4.44 C-2.79 2.96 -1.4 1.48 0 0 Z " fill="#602A84" transform="translate(89,127)"/>
<path d="M0 0 C2.22 1.13 3.38 2.4 4.95 4.33 C7.72 7.65 10.54 10.88 13.45 14.08 C14.9 15.67 16.34 17.28 17.76 18.89 C18.44 19.63 19.11 20.37 19.81 21.13 C22.09 24.36 22.58 26.6 23.16 30.5 C23.26 31.15 23.36 31.79 23.47 32.46 C23.8 34.62 24.12 36.78 24.43 38.94 C24.66 40.48 24.9 42.03 25.14 43.57 C25.77 47.73 26.39 51.89 27 56.05 C27.65 60.38 28.31 64.71 28.96 69.04 C29.91 75.26 30.84 81.47 31.78 87.69 C33.28 97.76 34.83 107.83 36.41 117.9 C36.77 120.19 37.12 122.47 37.48 124.76 C37.6 125.5 37.71 126.24 37.83 127 C38.06 128.46 38.29 129.92 38.51 131.38 C39.07 134.91 39.62 138.44 40.17 141.98 C40.79 145.88 41.39 149.79 42 153.7 C42.18 154.84 42.36 155.98 42.54 157.16 C43.36 162.47 43.98 167.52 43.76 172.89 C40.86 171.6 39 170.33 36.95 167.91 C36.44 167.31 35.93 166.71 35.4 166.09 C34.86 165.45 34.32 164.81 33.76 164.14 C33.19 163.47 32.62 162.8 32.04 162.12 C30.85 160.73 29.67 159.33 28.49 157.94 C26.38 155.45 24.26 152.97 22.12 150.5 C17.38 144.98 12.67 139.43 7.98 133.86 C4.41 129.63 0.78 125.45 -2.86 121.27 C-7.39 116.07 -11.79 110.79 -16.13 105.44 C-18.98 102 -21.98 98.72 -24.99 95.42 C-28.11 91.91 -31.03 88.26 -33.99 84.61 C-36.87 81.12 -39.91 77.79 -42.96 74.45 C-46.2 70.81 -49.24 67.03 -52.29 63.24 C-54.11 60.92 -54.11 60.92 -56.06 59.33 C-57.24 57.89 -57.24 57.89 -57.12 56.14 C-55.86 52.94 -53.63 50.85 -51.23 48.47 C-50.71 47.94 -50.19 47.41 -49.65 46.86 C-47.93 45.12 -46.2 43.39 -44.47 41.65 C-43.27 40.45 -42.07 39.24 -40.87 38.03 C-38.35 35.5 -35.83 32.98 -33.31 30.46 C-30.07 27.23 -26.85 23.98 -23.64 20.73 C-21.16 18.23 -18.68 15.74 -16.2 13.26 C-15 12.07 -13.81 10.87 -12.63 9.66 C-10.98 7.99 -9.31 6.33 -7.63 4.67 C-7.14 4.17 -6.65 3.67 -6.15 3.15 C-2.78 -0.13 -2.78 -0.13 0 0 Z " fill="#5F2B84" transform="translate(330.2368621826172,127.10774230957031)"/>
<path d="M0 0 C4.5 1.12 4.5 1.12 6.81 3.89 C7.32 4.49 7.84 5.09 8.36 5.71 C8.9 6.36 9.44 7.01 10 7.69 C10.86 8.7 10.86 8.7 11.73 9.73 C12.91 11.13 14.09 12.54 15.27 13.94 C17.36 16.43 19.47 18.89 21.59 21.35 C23.07 23.07 24.55 24.8 26.03 26.53 C28.03 28.87 30.03 31.2 32.03 33.53 C36.87 39.17 41.7 44.82 46.5 50.5 C50.4 55.12 54.32 59.72 58.25 64.31 C58.75 64.9 59.26 65.49 59.77 66.1 C63.07 69.95 66.43 73.74 69.89 77.45 C71 79 71 79 71 82 C70.22 82.34 69.44 82.67 68.64 83.02 C54.91 88.96 41.19 94.9 27.5 100.94 C12.57 107.51 12.57 107.51 7.56 109.69 C6.51 110.15 5.46 110.6 4.38 111.07 C2 112 2 112 0 112 C0 75.04 0 38.08 0 0 Z " fill="#512B88" transform="translate(212,0)"/>
<path d="M0 0 C0.99 0 1.98 0 3 0 C3 36.96 3 73.92 3 112 C-2.71 110.1 -7.93 108.27 -13.37 105.85 C-14.04 105.55 -14.71 105.25 -15.4 104.95 C-17.56 103.99 -19.72 103.03 -21.88 102.06 C-23.38 101.4 -24.88 100.73 -26.38 100.06 C-30.18 98.37 -33.99 96.68 -37.79 94.99 C-41.27 93.44 -44.75 91.89 -48.23 90.34 C-54.49 87.57 -60.75 84.79 -67 82 C-67 77.89 -64.84 76.12 -62.25 73.19 C-61.76 72.62 -61.27 72.05 -60.76 71.46 C-59.71 70.25 -58.66 69.05 -57.61 67.84 C-55.01 64.87 -52.44 61.87 -49.88 58.88 C-49.37 58.29 -48.87 57.7 -48.35 57.1 C-45.28 53.53 -42.28 49.91 -39.31 46.25 C-35.76 41.87 -32.03 37.68 -28.23 33.51 C-25.22 30.12 -22.39 26.6 -19.54 23.07 C-15.94 18.72 -12.23 14.46 -8.52 10.21 C-7.99 9.61 -7.46 9.01 -6.92 8.38 C-6.41 7.81 -5.91 7.23 -5.39 6.64 C-4.14 5.16 -2.96 3.61 -1.8 2.05 C-1.21 1.38 -0.61 0.7 0 0 Z " fill="#532C85" transform="translate(205,0)"/>
<path d="M0 0 C0.98 3.05 0.98 4.95 0 8 C-0.66 8 -1.32 8 -2 8 C-2.33 5.69 -2.66 3.38 -3 1 C-2.01 0.67 -1.02 0.34 0 0 Z " fill="#842482" transform="translate(380,292)"/>
</svg>
