<?xml version="1.0" encoding="UTF-8"?>
<!-- Generator: https://ezgif.com/png-to-svg -->
<svg version="1.1" xmlns="http://www.w3.org/2000/svg" width="512" height="512" viewBox="2.185 1.14 706.72 706.72" preserveAspectRatio="xMidYMid meet">
<path d="M0 0 C1.42 2.85 1.14 5.27 1.16 8.46 C1.17 9.46 1.17 9.46 1.18 10.49 C1.19 12.75 1.2 15 1.21 17.26 C1.22 18.88 1.23 20.49 1.24 22.11 C1.27 27.42 1.29 32.73 1.31 38.04 C1.31 38.95 1.32 39.85 1.32 40.78 C1.35 49.3 1.38 57.82 1.39 66.34 C1.41 77.24 1.46 88.14 1.53 99.04 C1.57 106.71 1.6 114.37 1.61 122.03 C1.61 126.61 1.63 131.19 1.66 135.76 C1.7 140.07 1.71 144.38 1.7 148.69 C1.7 150.27 1.71 151.85 1.73 153.43 C1.9 166.84 1.9 166.84 -1.88 171.36 C-3.46 172.82 -3.46 172.82 -5 174 C-5.85 174.71 -6.7 175.43 -7.58 176.16 C-8.9 177.1 -8.9 177.1 -10.25 178.06 C-11.29 178.82 -12.33 179.58 -13.4 180.36 C-13.97 180.77 -14.54 181.19 -15.13 181.61 C-18.76 184.3 -22.31 187.09 -25.88 189.88 C-26.65 190.48 -27.42 191.08 -28.21 191.7 C-33.5 195.82 -38.77 199.96 -44.03 204.1 C-48.28 207.44 -52.55 210.74 -56.84 214.03 C-63.79 219.37 -70.71 224.77 -77.63 230.15 C-81.61 233.25 -85.58 236.34 -89.56 239.44 C-90.98 240.54 -92.4 241.64 -93.82 242.75 C-94.5 243.28 -95.18 243.81 -95.88 244.35 C-97.36 245.5 -98.84 246.65 -100.32 247.8 C-104.51 251.07 -108.72 254.33 -112.94 257.56 C-119.09 262.29 -125.22 267.05 -131.34 271.82 C-135.8 275.29 -140.27 278.75 -144.75 282.19 C-149.19 285.6 -153.6 289.04 -158 292.5 C-163.03 296.46 -168.07 300.4 -173.15 304.28 C-176 306.45 -178.81 308.64 -181.6 310.88 C-182.19 311.35 -182.78 311.82 -183.39 312.3 C-184.52 313.21 -185.65 314.12 -186.78 315.04 C-188.32 316.26 -188.32 316.26 -191 318 C-191.99 317.67 -192.98 317.34 -194 317 C-192.94 312.68 -191.87 308.36 -190.8 304.04 C-190.44 302.58 -190.08 301.12 -189.72 299.65 C-187.43 290.33 -184.94 281.14 -182 272 C-189.19 277.08 -196.08 282.43 -202.89 288.01 C-207.2 291.54 -211.54 295.02 -215.94 298.44 C-221.94 303.12 -227.82 307.95 -233.68 312.81 C-238.07 316.44 -242.51 320 -247 323.5 C-254.48 329.33 -261.78 335.37 -269.08 341.41 C-275.84 347.01 -282.65 352.55 -289.51 358.01 C-291.25 359.4 -292.98 360.8 -294.71 362.21 C-295.59 362.92 -296.47 363.64 -297.38 364.38 C-298.17 365.02 -298.96 365.67 -299.77 366.34 C-301.79 367.84 -303.71 368.96 -306 370 C-308 368 -308 368 -308.25 365.84 C-308.25 364.48 -308.25 364.48 -308.25 363.1 C-308.25 362.06 -308.26 361.02 -308.26 359.95 C-308.25 358.81 -308.25 357.66 -308.24 356.48 C-308.24 355.28 -308.25 354.08 -308.25 352.84 C-308.25 349.53 -308.25 346.22 -308.24 342.91 C-308.23 339.41 -308.23 335.92 -308.23 332.43 C-308.23 326.54 -308.22 320.65 -308.21 314.75 C-308.19 308.02 -308.18 301.29 -308.19 294.55 C-308.19 287.32 -308.18 280.08 -308.17 272.84 C-308.17 270.8 -308.17 268.75 -308.17 266.71 C-308.16 259.08 -308.13 251.45 -308.04 243.81 C-308.01 241.18 -307.99 238.55 -307.97 235.91 C-307.95 231.88 -307.88 227.86 -307.8 223.83 C-307.8 222.6 -307.79 221.37 -307.79 220.1 C-307.76 218.96 -307.73 217.82 -307.7 216.65 C-307.69 215.65 -307.67 214.66 -307.66 213.63 C-306.76 210.05 -305 209.02 -302 207 C-301.43 206.59 -300.87 206.18 -300.28 205.76 C-299.76 205.41 -299.25 205.06 -298.71 204.7 C-298.11 204.28 -297.51 203.87 -296.89 203.45 C-296.25 203.01 -295.6 202.58 -294.94 202.12 C-288.74 197.89 -282.58 193.62 -276.44 189.31 C-262.05 179.22 -247.64 169.16 -233.14 159.23 C-227.16 155.12 -221.21 150.97 -215.25 146.81 C-208.52 142.12 -201.78 137.49 -194.93 132.97 C-190.42 129.94 -185.99 126.78 -181.56 123.63 C-174.74 118.8 -167.86 114.06 -160.96 109.34 C-159.04 108.03 -157.13 106.71 -155.21 105.39 C-147.55 100.12 -139.88 94.86 -132.19 89.62 C-131.26 88.99 -130.32 88.35 -129.36 87.7 C-121.92 82.63 -121.92 82.63 -118.39 80.22 C-109.91 74.45 -101.45 68.65 -93.12 62.66 C-84.61 56.54 -75.92 50.67 -67.25 44.77 C-59.66 39.59 -52.09 34.39 -44.63 29.02 C-36.98 23.53 -29.22 18.17 -21.48 12.81 C-18.22 10.55 -14.97 8.28 -11.74 5.97 C-11.14 5.55 -10.53 5.12 -9.91 4.68 C-8.38 3.59 -6.85 2.5 -5.33 1.41 C-3 0 -3 0 0 0 Z " fill="#F9AF3C" transform="translate(667,39)"/>
<path d="M0 0 C3.15 0.62 5.28 1.67 7.91 3.48 C8.67 4 9.42 4.52 10.19 5.05 C11.4 5.89 11.4 5.89 12.62 6.75 C13.46 7.33 14.3 7.91 15.17 8.51 C21.65 13.01 28.05 17.61 34.43 22.25 C41.26 27.22 48.21 32 55.19 36.76 C57.91 38.62 60.61 40.5 63.31 42.38 C68.48 45.96 73.68 49.51 78.88 53.06 C86.17 58.05 93.44 63.07 100.69 68.12 C111.44 75.62 122.22 83.07 133.06 90.45 C143.68 97.67 154.27 104.95 164.81 112.3 C170.25 116.09 175.71 119.87 181.19 123.62 C188.01 128.3 194.79 133.04 201.56 137.79 C207.56 142 213.59 146.17 219.63 150.31 C223.04 152.65 226.43 155 229.81 157.38 C234.56 160.71 239.34 163.98 244.12 167.25 C245.37 168.1 245.37 168.1 246.64 168.97 C248.3 170.11 249.97 171.25 251.64 172.39 C262.69 179.94 273.69 187.55 284.67 195.21 C288.88 198.14 293.09 201.07 297.32 203.95 C297.94 204.37 298.55 204.79 299.18 205.22 C300.74 206.28 302.3 207.34 303.87 208.4 C306 210 306 210 307 212 C307.09 214.07 307.12 216.13 307.12 218.2 C307.12 219.17 307.12 219.17 307.12 220.15 C307.12 222.31 307.12 224.48 307.11 226.64 C307.11 228.19 307.11 229.73 307.11 231.28 C307.11 235.49 307.11 239.7 307.1 243.91 C307.1 248.3 307.09 252.7 307.09 257.09 C307.09 265.42 307.08 273.74 307.07 282.07 C307.06 291.55 307.06 301.02 307.05 310.5 C307.04 330 307.02 349.5 307 369 C303.56 368.38 301.42 367.92 298.8 365.56 C298.24 365.06 297.67 364.56 297.09 364.05 C296.5 363.52 295.92 362.99 295.31 362.44 C294.06 361.33 292.8 360.22 291.54 359.12 C290.93 358.58 290.32 358.04 289.7 357.48 C286.79 354.95 283.77 352.57 280.74 350.18 C277.22 347.38 273.74 344.53 270.25 341.69 C264.53 337.02 258.76 332.43 252.94 327.88 C248.51 324.42 244.16 320.87 239.82 317.29 C236.7 314.76 233.54 312.28 230.38 309.81 C225.01 305.63 219.74 301.34 214.5 297 C207.1 290.87 199.59 284.9 192 279 C191.05 278.26 190.11 277.53 189.13 276.77 C187.09 275.17 185.05 273.59 183 272 C183.62 277.04 184.66 281.81 186.07 286.69 C186.47 288.15 186.88 289.6 187.29 291.05 C187.93 293.31 188.57 295.57 189.21 297.83 C189.84 300.03 190.45 302.24 191.07 304.44 C191.26 305.11 191.45 305.78 191.65 306.47 C192.75 310.41 193.2 313.91 193 318 C188.16 316.46 184.84 313.69 181 310.5 C179.66 309.41 178.31 308.31 176.97 307.22 C175.97 306.4 175.97 306.4 174.94 305.57 C172.17 303.33 169.34 301.16 166.5 299 C161.86 295.46 157.29 291.85 152.75 288.19 C146.76 283.37 140.68 278.66 134.56 274 C128.49 269.39 122.47 264.71 116.46 260.03 C112.07 256.61 107.67 253.2 103.25 249.81 C96.46 244.6 89.73 239.3 83 234 C57.7 214.06 57.7 214.06 32.06 194.56 C25.86 189.92 19.76 185.16 13.69 180.34 C12.58 179.46 11.46 178.58 10.34 177.7 C8.81 176.49 7.28 175.28 5.75 174.06 C4.88 173.37 4.01 172.68 3.11 171.97 C0.06 169.12 -0.91 167.15 -1.25 162.95 C-1.25 161.75 -1.25 160.55 -1.25 159.31 C-1.25 158.63 -1.25 157.96 -1.25 157.27 C-1.26 155.02 -1.25 152.77 -1.24 150.52 C-1.24 148.91 -1.25 147.3 -1.25 145.68 C-1.25 141.3 -1.25 136.92 -1.24 132.54 C-1.23 127.96 -1.23 123.38 -1.23 118.81 C-1.23 111.12 -1.22 103.43 -1.21 95.74 C-1.19 86.84 -1.18 77.94 -1.19 69.05 C-1.19 60.49 -1.18 51.94 -1.17 43.39 C-1.17 39.75 -1.17 36.1 -1.17 32.46 C-1.17 28.18 -1.16 23.89 -1.15 19.6 C-1.15 18.03 -1.15 16.45 -1.15 14.87 C-1.15 12.73 -1.14 10.58 -1.13 8.44 C-1.13 7.24 -1.13 6.03 -1.13 4.8 C-1 2 -1 2 0 0 Z " fill="#FDFDFD" transform="translate(44,39)"/>
<path d="M0 0 C0.09 28.43 0.16 56.87 0.2 85.3 C0.21 88.66 0.21 92.02 0.22 95.37 C0.22 96.04 0.22 96.71 0.22 97.4 C0.24 108.22 0.27 119.04 0.31 129.86 C0.35 140.97 0.37 152.07 0.38 163.17 C0.38 169.41 0.39 175.65 0.42 181.88 C0.45 187.75 0.46 193.62 0.45 199.49 C0.45 201.64 0.46 203.8 0.48 205.95 C0.5 208.89 0.49 211.83 0.48 214.77 C0.49 215.63 0.5 216.48 0.52 217.36 C0.45 224.26 -2.18 228.3 -6.89 233.27 C-7.43 233.84 -7.96 234.41 -8.52 235 C-9.37 235.9 -9.37 235.9 -10.25 236.81 C-10.86 237.46 -11.46 238.1 -12.09 238.76 C-13.39 240.13 -14.68 241.51 -15.99 242.88 C-19.38 246.45 -22.75 250.04 -26.12 253.62 C-26.8 254.34 -27.47 255.06 -28.17 255.79 C-34.16 262.15 -40.09 268.57 -46 275 C-52.49 282.05 -59 289.08 -65.56 296.06 C-70.87 301.71 -76.14 307.39 -81.37 313.12 C-83.22 315.15 -85.08 317.17 -86.95 319.2 C-87.44 319.73 -87.93 320.26 -88.43 320.81 C-89.78 322.28 -91.14 323.74 -92.49 325.21 C-94.3 327.23 -96.01 329.24 -97.7 331.35 C-98.46 332.23 -99.22 333.1 -100 334 C-100.66 334 -101.32 334 -102 334 C-102.25 334.58 -102.51 335.17 -102.77 335.77 C-104.13 338.24 -105.64 339.81 -107.69 341.75 C-110.4 344.39 -112.98 347.06 -115.44 349.94 C-118.01 352.93 -120.69 355.73 -123.5 358.5 C-126.17 361.13 -128.74 363.78 -131.19 366.62 C-134.53 370.51 -138 374.26 -141.5 378 C-142.39 378.96 -142.39 378.96 -143.31 379.93 C-146.53 383.37 -149.76 386.81 -153 390.25 C-153.65 390.95 -154.31 391.65 -154.99 392.37 C-156.25 393.7 -157.5 395.04 -158.76 396.37 C-162.34 400.17 -165.81 404.04 -169.24 407.98 C-172.18 411.36 -175.17 414.69 -178.19 418 C-178.79 418.68 -179.39 419.36 -180.01 420.06 C-180.6 420.7 -181.19 421.34 -181.79 422 C-182.57 422.87 -182.57 422.87 -183.37 423.75 C-185 425 -185 425 -189 425 C-189.05 389.03 -189.08 353.07 -189.1 317.1 C-189.1 312.85 -189.11 308.61 -189.11 304.36 C-189.11 303.52 -189.11 302.67 -189.11 301.8 C-189.12 288.11 -189.14 274.42 -189.15 260.73 C-189.17 246.69 -189.18 232.65 -189.19 218.61 C-189.19 209.94 -189.2 201.27 -189.22 192.6 C-189.23 186.66 -189.23 180.72 -189.23 174.78 C-189.23 171.35 -189.23 167.92 -189.24 164.49 C-189.25 160.78 -189.25 157.06 -189.24 153.35 C-189.25 152.26 -189.25 151.17 -189.26 150.05 C-189.25 149.06 -189.25 148.06 -189.25 147.03 C-189.25 146.18 -189.25 145.32 -189.25 144.44 C-188.86 140.61 -187.84 137.84 -185.11 135.11 C-184.33 134.52 -183.55 133.92 -182.75 133.31 C-181.85 132.62 -180.95 131.93 -180.02 131.22 C-176.24 128.44 -172.42 125.7 -168.59 122.98 C-164.11 119.81 -159.7 116.56 -155.31 113.25 C-149.46 108.84 -143.59 104.47 -137.69 100.12 C-136.89 99.54 -136.1 98.96 -135.28 98.35 C-131.25 95.39 -127.21 92.42 -123.17 89.46 C-114.85 83.35 -106.59 77.19 -98.42 70.9 C-92.35 66.24 -86.2 61.7 -80.03 57.17 C-72.9 51.94 -65.83 46.64 -58.76 41.33 C-56.18 39.38 -53.59 37.44 -51 35.5 C-50.05 34.79 -49.1 34.07 -48.12 33.34 C-45.8 31.6 -43.48 29.86 -41.16 28.13 C-25.99 17.01 -25.99 17.01 -11.5 5.06 C-4.23 -1.41 -4.23 -1.41 0 0 Z " fill="#F9AF3C" transform="translate(665,244)"/>
<path d="M0 0 C4.1 1.44 7.3 3.44 10.81 6 C12.28 7.05 12.28 7.05 13.77 8.12 C14.87 9.05 14.87 9.05 16 10 C16 10.66 16 11.32 16 12 C16.6 12.28 17.19 12.55 17.8 12.84 C19.89 13.94 21.38 15.06 23.12 16.62 C30.12 22.75 37.37 28.34 45.05 33.58 C49.66 36.74 54.12 40.05 58.57 43.42 C61.22 45.43 63.9 47.4 66.59 49.36 C74.4 55.07 82.11 60.79 89.54 67 C92.96 69.78 96.54 72.34 100.12 74.91 C103.25 77.18 106.32 79.52 109.38 81.88 C109.92 82.3 110.47 82.72 111.04 83.16 C113.71 85.22 116.36 87.29 119.01 89.37 C126.3 95.06 133.8 100.4 141.4 105.67 C146.91 109.49 152.3 113.44 157.62 117.5 C162.45 121.17 167.28 124.49 172.54 127.5 C175.67 129.41 178.62 131.52 181.56 133.69 C182.57 134.43 183.59 135.18 184.63 135.95 C187 138 187 138 188 141 C188.09 142.6 188.12 144.21 188.12 145.82 C188.13 146.82 188.13 147.82 188.13 148.85 C188.13 149.95 188.12 151.05 188.12 152.18 C188.12 153.93 188.12 153.93 188.12 155.71 C188.12 158.96 188.12 162.2 188.12 165.44 C188.11 168.94 188.11 172.43 188.11 175.93 C188.11 181.98 188.11 188.04 188.11 194.1 C188.1 202.86 188.09 211.61 188.09 220.37 C188.09 234.58 188.08 248.78 188.08 262.99 C188.07 276.79 188.06 290.6 188.05 304.4 C188.05 305.25 188.05 306.1 188.05 306.98 C188.05 311.24 188.05 315.51 188.05 319.78 C188.04 355.18 188.02 390.59 188 426 C187.34 426.33 186.68 426.66 186 427 C181.58 423.39 177.75 419.71 174.05 415.38 C171.57 412.51 169.01 409.72 166.44 406.94 C165.93 406.39 165.43 405.85 164.91 405.28 C162.07 402.22 159.22 399.16 156.36 396.11 C155.14 394.8 153.91 393.49 152.69 392.19 C152.09 391.55 151.49 390.91 150.88 390.25 C147.34 386.46 143.88 382.62 140.5 378.69 C138.39 376.31 136.11 374.1 133.84 371.87 C132.06 370.06 130.39 368.19 128.73 366.26 C125.19 362.19 121.52 358.24 117.81 354.31 C116.49 352.91 115.17 351.5 113.84 350.09 C113.19 349.4 112.54 348.71 111.88 348 C109.17 345.12 106.49 342.22 103.81 339.31 C103.33 338.79 102.84 338.26 102.34 337.72 C100.9 336.15 99.45 334.57 98 333 C89.37 323.63 80.7 314.3 72 305 C63.8 296.22 55.61 287.43 47.47 278.6 C45.97 276.97 44.47 275.35 42.97 273.72 C38.22 268.58 33.47 263.42 28.75 258.25 C23.48 252.49 18.12 246.8 12.75 241.14 C10.82 239.1 8.91 237.05 7 235 C6.34 234.29 5.68 233.58 4.99 232.85 C4.36 232.15 3.73 231.45 3.08 230.73 C2.23 229.8 2.23 229.8 1.36 228.85 C-1.81 224.53 -1.14 219.24 -1.13 214.1 C-1.13 213.19 -1.13 212.28 -1.13 211.34 C-1.14 208.29 -1.13 205.24 -1.13 202.18 C-1.13 200 -1.13 197.81 -1.13 195.62 C-1.14 189.68 -1.14 183.74 -1.13 177.8 C-1.13 171.59 -1.13 165.38 -1.14 159.17 C-1.14 148.08 -1.13 136.99 -1.13 125.9 C-1.12 115.83 -1.13 105.77 -1.13 95.7 C-1.14 84.02 -1.14 72.34 -1.13 60.66 C-1.13 54.47 -1.13 48.28 -1.14 42.1 C-1.14 36.28 -1.14 30.47 -1.13 24.66 C-1.13 22.52 -1.13 20.38 -1.13 18.24 C-1.14 15.34 -1.13 12.43 -1.13 9.52 C-1.13 8.66 -1.13 7.81 -1.13 6.92 C-1.11 1.11 -1.11 1.11 0 0 Z " fill="#FEFEFE" transform="translate(44,243)"/>
<path d="M0 0 C1.42 2.85 1.14 5.27 1.16 8.46 C1.17 9.46 1.17 9.46 1.18 10.49 C1.19 12.75 1.2 15 1.21 17.26 C1.22 18.88 1.23 20.49 1.24 22.11 C1.27 27.42 1.29 32.73 1.31 38.04 C1.31 38.95 1.32 39.85 1.32 40.78 C1.35 49.3 1.38 57.82 1.39 66.34 C1.41 77.24 1.46 88.14 1.53 99.04 C1.57 106.71 1.6 114.37 1.61 122.03 C1.61 126.61 1.63 131.19 1.66 135.76 C1.7 140.07 1.71 144.38 1.7 148.69 C1.7 150.27 1.71 151.85 1.73 153.43 C1.9 166.84 1.9 166.84 -1.88 171.36 C-3.46 172.82 -3.46 172.82 -5 174 C-5.85 174.71 -6.7 175.43 -7.58 176.16 C-8.9 177.1 -8.9 177.1 -10.25 178.06 C-11.29 178.82 -12.33 179.58 -13.4 180.36 C-13.97 180.77 -14.54 181.19 -15.13 181.61 C-18.76 184.3 -22.31 187.09 -25.88 189.88 C-26.65 190.48 -27.42 191.08 -28.21 191.7 C-33.5 195.82 -38.77 199.96 -44.03 204.1 C-48.28 207.44 -52.55 210.74 -56.84 214.03 C-63.79 219.37 -70.71 224.77 -77.63 230.15 C-81.61 233.25 -85.58 236.34 -89.56 239.44 C-90.98 240.54 -92.4 241.64 -93.82 242.75 C-94.5 243.28 -95.18 243.81 -95.88 244.35 C-97.36 245.5 -98.84 246.65 -100.32 247.8 C-104.51 251.07 -108.72 254.33 -112.94 257.56 C-119.09 262.29 -125.22 267.05 -131.34 271.82 C-135.8 275.29 -140.27 278.75 -144.75 282.19 C-149.19 285.6 -153.6 289.04 -158 292.5 C-163.03 296.46 -168.07 300.4 -173.15 304.28 C-176 306.45 -178.81 308.64 -181.6 310.88 C-182.19 311.35 -182.78 311.82 -183.39 312.3 C-184.52 313.21 -185.65 314.12 -186.78 315.04 C-188.32 316.26 -188.32 316.26 -191 318 C-191.99 317.67 -192.98 317.34 -194 317 C-192.94 312.68 -191.87 308.36 -190.8 304.04 C-190.44 302.58 -190.08 301.12 -189.72 299.65 C-187.43 290.33 -184.94 281.14 -182 272 C-189.19 277.08 -196.08 282.43 -202.89 288.01 C-207.2 291.54 -211.54 295.02 -215.94 298.44 C-221.94 303.12 -227.82 307.95 -233.68 312.81 C-238.07 316.44 -242.51 320 -247 323.5 C-254.48 329.33 -261.78 335.37 -269.08 341.41 C-275.84 347.01 -282.65 352.55 -289.51 358.01 C-291.25 359.4 -292.98 360.8 -294.71 362.21 C-295.59 362.92 -296.47 363.64 -297.38 364.38 C-298.17 365.02 -298.96 365.67 -299.77 366.34 C-301.79 367.84 -303.71 368.96 -306 370 C-308 368 -308 368 -308.25 365.84 C-308.25 364.48 -308.25 364.48 -308.25 363.1 C-308.25 362.06 -308.26 361.02 -308.26 359.95 C-308.25 358.81 -308.25 357.66 -308.24 356.48 C-308.24 355.28 -308.25 354.08 -308.25 352.84 C-308.25 349.53 -308.25 346.22 -308.24 342.91 C-308.23 339.41 -308.23 335.92 -308.23 332.43 C-308.23 326.54 -308.22 320.65 -308.21 314.75 C-308.19 308.02 -308.18 301.29 -308.19 294.55 C-308.19 287.32 -308.18 280.08 -308.17 272.84 C-308.17 270.8 -308.17 268.75 -308.17 266.71 C-308.16 259.08 -308.13 251.45 -308.04 243.81 C-308.01 241.18 -307.99 238.55 -307.97 235.91 C-307.95 231.88 -307.88 227.86 -307.8 223.83 C-307.8 222.6 -307.79 221.37 -307.79 220.1 C-307.76 218.96 -307.73 217.82 -307.7 216.65 C-307.69 215.65 -307.67 214.66 -307.66 213.63 C-306.76 210.05 -305 209.02 -302 207 C-301.43 206.59 -300.87 206.18 -300.28 205.76 C-299.76 205.41 -299.25 205.06 -298.71 204.7 C-298.11 204.28 -297.51 203.87 -296.89 203.45 C-296.25 203.01 -295.6 202.58 -294.94 202.12 C-288.74 197.89 -282.58 193.62 -276.44 189.31 C-262.05 179.22 -247.64 169.16 -233.14 159.23 C-227.16 155.12 -221.21 150.97 -215.25 146.81 C-208.52 142.12 -201.78 137.49 -194.93 132.97 C-190.42 129.94 -185.99 126.78 -181.56 123.63 C-174.74 118.8 -167.86 114.06 -160.96 109.34 C-159.04 108.03 -157.13 106.71 -155.21 105.39 C-147.55 100.12 -139.88 94.86 -132.19 89.62 C-131.26 88.99 -130.32 88.35 -129.36 87.7 C-121.92 82.63 -121.92 82.63 -118.39 80.22 C-109.91 74.45 -101.45 68.65 -93.12 62.66 C-84.61 56.54 -75.92 50.67 -67.25 44.77 C-59.66 39.59 -52.09 34.39 -44.63 29.02 C-36.98 23.53 -29.22 18.17 -21.48 12.81 C-18.22 10.55 -14.97 8.28 -11.74 5.97 C-11.14 5.55 -10.53 5.12 -9.91 4.68 C-8.38 3.59 -6.85 2.5 -5.33 1.41 C-3 0 -3 0 0 0 Z M-24.25 28.94 C-28.26 31.77 -32.28 34.58 -36.31 37.38 C-37.43 38.15 -38.54 38.92 -39.66 39.69 C-40.21 40.07 -40.77 40.46 -41.34 40.85 C-42.95 41.96 -44.55 43.08 -46.16 44.19 C-52.03 48.26 -57.92 52.32 -63.81 56.38 C-64.82 57.07 -64.82 57.07 -65.86 57.78 C-69.19 60.07 -72.53 62.36 -75.87 64.65 C-84.07 70.27 -92.22 75.95 -100.35 81.66 C-106.16 85.73 -112.01 89.75 -117.88 93.75 C-123.92 97.87 -129.92 102.05 -135.86 106.33 C-142.21 110.89 -148.66 115.29 -155.11 119.7 C-157.91 121.63 -160.71 123.56 -163.5 125.5 C-172.39 131.66 -181.31 137.78 -190.22 143.9 C-198.79 149.78 -207.34 155.7 -215.82 161.71 C-223.44 167.1 -231.08 172.45 -238.77 177.72 C-244.15 181.4 -249.48 185.13 -254.81 188.88 C-261.58 193.62 -268.37 198.33 -275.19 203 C-275.94 203.52 -276.69 204.03 -277.47 204.56 C-278.2 205.06 -278.92 205.55 -279.67 206.06 C-280.66 206.76 -280.66 206.76 -281.68 207.47 C-284 209 -284 209 -286.36 210.21 C-291.15 212.8 -291.15 212.8 -293.81 217.36 C-294.11 220.33 -294.11 223.17 -294.02 226.15 C-294.02 227.26 -294.02 228.37 -294.03 229.52 C-294.02 233.19 -293.95 236.85 -293.88 240.52 C-293.86 243.07 -293.85 245.62 -293.84 248.17 C-293.81 254.18 -293.74 260.19 -293.65 266.21 C-293.55 273.05 -293.5 279.9 -293.45 286.75 C-293.36 300.84 -293.2 314.92 -293 329 C-289.05 325.09 -289.05 325.09 -285.35 320.95 C-284.91 320.42 -284.46 319.89 -284 319.34 C-283.32 318.52 -283.32 318.52 -282.62 317.69 C-278.88 313.21 -275.08 308.8 -271.14 304.49 C-269.8 303.05 -269.8 303.05 -270 301 C-269.01 300.67 -268.02 300.34 -267 300 C-265.8 298.61 -264.6 297.22 -263.48 295.77 C-261.46 293.36 -259.22 291.22 -257 289 C-254.49 286.3 -252.02 283.56 -249.55 280.82 C-247.04 278.06 -244.53 275.55 -241.62 273.22 C-240.76 272.49 -239.89 271.75 -239 271 C-239 270.34 -239 269.68 -239 269 C-238.34 269 -237.68 269 -237 269 C-235.49 267.47 -235.49 267.47 -234 265.56 C-231.2 262.1 -231.2 262.1 -229 261 C-229 260.34 -229 259.68 -229 259 C-228.16 258.66 -228.16 258.66 -227.31 258.31 C-224.34 256.63 -222.35 254.47 -220 252 C-216.38 248.33 -212.67 244.79 -208.88 241.31 C-208.35 240.83 -207.83 240.34 -207.29 239.84 C-204.93 237.68 -202.66 235.77 -200 234 C-200 233.34 -200 232.68 -200 232 C-199.46 231.76 -198.92 231.53 -198.36 231.28 C-195.37 229.66 -192.89 227.65 -190.25 225.5 C-188.77 224.31 -188.77 224.31 -187.27 223.09 C-186.52 222.4 -185.77 221.71 -185 221 C-185 220.34 -185 219.68 -185 219 C-183 218 -181 217 -179 216 C-179 215.34 -179 214.68 -179 214 C-178.44 213.74 -177.88 213.48 -177.3 213.22 C-174.73 211.86 -172.55 210.27 -170.25 208.5 C-169.45 207.89 -168.65 207.28 -167.83 206.66 C-166.92 205.84 -166.92 205.84 -166 205 C-166 204.34 -166 203.68 -166 203 C-165.47 202.77 -164.94 202.53 -164.39 202.29 C-161.28 200.61 -158.55 198.52 -155.75 196.38 C-155.2 195.95 -154.64 195.53 -154.07 195.1 C-152.71 194.07 -151.36 193.04 -150 192 C-150.52 192.72 -151.04 193.44 -151.58 194.18 C-165.63 213.94 -181.31 237.83 -180 263 C-173.65 259.1 -167.58 255.06 -161.78 250.38 C-160 249 -160 249 -158 248 C-158 247.34 -158 246.68 -158 246 C-157.26 245.74 -156.52 245.47 -155.76 245.2 C-153.01 244.01 -151.12 242.7 -148.81 240.81 C-137.47 231.74 -137.47 231.74 -132 229 C-132 228.34 -132 227.68 -132 227 C-131.2 226.81 -130.39 226.63 -129.56 226.44 C-125.46 224.78 -122.66 222.52 -119.26 219.75 C-116.32 217.47 -113.28 215.74 -110 214 C-110 213.34 -110 212.68 -110 212 C-109.27 211.74 -108.54 211.47 -107.79 211.2 C-104.99 210 -102.83 208.61 -100.38 206.81 C-96.81 204.26 -93.21 201.83 -89.5 199.5 C-86.03 197.32 -82.65 195.07 -79.31 192.69 C-74.11 188.97 -68.67 185.66 -63.18 182.38 C-61.42 181.3 -59.71 180.16 -58 179 C-58 178.34 -58 177.68 -58 177 C-57.27 176.72 -56.54 176.45 -55.79 176.16 C-47.69 172.78 -39.95 167.43 -32.94 162.19 C-31 161 -31 161 -28.08 160.03 C-24.15 158.33 -21.23 156.68 -19 153 C-16.79 144.48 -17.57 135.28 -17.78 126.54 C-17.86 123.01 -17.87 119.47 -17.88 115.93 C-17.92 109.24 -18.02 102.55 -18.14 95.86 C-18.27 88.24 -18.34 80.62 -18.4 73 C-18.52 57.33 -18.73 41.67 -19 26 C-20.97 26 -22.72 27.85 -24.25 28.94 Z " fill="#1D1A17" transform="translate(667,39)"/>
<path d="M0 0 C3.15 0.62 5.28 1.67 7.91 3.48 C8.67 4 9.42 4.52 10.19 5.05 C11.4 5.89 11.4 5.89 12.62 6.75 C13.46 7.33 14.3 7.91 15.17 8.51 C21.65 13.01 28.05 17.61 34.43 22.25 C41.26 27.22 48.21 32 55.19 36.76 C57.91 38.62 60.61 40.5 63.31 42.38 C68.48 45.96 73.68 49.51 78.88 53.06 C86.17 58.05 93.44 63.07 100.69 68.12 C111.44 75.62 122.22 83.07 133.06 90.45 C143.68 97.67 154.27 104.95 164.81 112.3 C170.25 116.09 175.71 119.87 181.19 123.62 C188.01 128.3 194.79 133.04 201.56 137.79 C207.56 142 213.59 146.17 219.63 150.31 C223.04 152.65 226.43 155 229.81 157.38 C234.56 160.71 239.34 163.98 244.12 167.25 C245.37 168.1 245.37 168.1 246.64 168.97 C248.3 170.11 249.97 171.25 251.64 172.39 C262.69 179.94 273.69 187.55 284.67 195.21 C288.88 198.14 293.09 201.07 297.32 203.95 C297.94 204.37 298.55 204.79 299.18 205.22 C300.74 206.28 302.3 207.34 303.87 208.4 C306 210 306 210 307 212 C307.09 214.07 307.12 216.13 307.12 218.2 C307.12 219.17 307.12 219.17 307.12 220.15 C307.12 222.31 307.12 224.48 307.11 226.64 C307.11 228.19 307.11 229.73 307.11 231.28 C307.11 235.49 307.11 239.7 307.1 243.91 C307.1 248.3 307.09 252.7 307.09 257.09 C307.09 265.42 307.08 273.74 307.07 282.07 C307.06 291.55 307.06 301.02 307.05 310.5 C307.04 330 307.02 349.5 307 369 C303.56 368.38 301.42 367.92 298.8 365.56 C298.24 365.06 297.67 364.56 297.09 364.05 C296.5 363.52 295.92 362.99 295.31 362.44 C294.06 361.33 292.8 360.22 291.54 359.12 C290.93 358.58 290.32 358.04 289.7 357.48 C286.79 354.95 283.77 352.57 280.74 350.18 C277.22 347.38 273.74 344.53 270.25 341.69 C264.53 337.02 258.76 332.43 252.94 327.88 C248.51 324.42 244.16 320.87 239.82 317.29 C236.7 314.76 233.54 312.28 230.38 309.81 C225.01 305.63 219.74 301.34 214.5 297 C207.1 290.87 199.59 284.9 192 279 C191.05 278.26 190.11 277.53 189.13 276.77 C187.09 275.17 185.05 273.59 183 272 C183.62 277.04 184.66 281.81 186.07 286.69 C186.47 288.15 186.88 289.6 187.29 291.05 C187.93 293.31 188.57 295.57 189.21 297.83 C189.84 300.03 190.45 302.24 191.07 304.44 C191.26 305.11 191.45 305.78 191.65 306.47 C192.75 310.41 193.2 313.91 193 318 C188.16 316.46 184.84 313.69 181 310.5 C179.66 309.41 178.31 308.31 176.97 307.22 C175.97 306.4 175.97 306.4 174.94 305.57 C172.17 303.33 169.34 301.16 166.5 299 C161.86 295.46 157.29 291.85 152.75 288.19 C146.76 283.37 140.68 278.66 134.56 274 C128.49 269.39 122.47 264.71 116.46 260.03 C112.07 256.61 107.67 253.2 103.25 249.81 C96.46 244.6 89.73 239.3 83 234 C57.7 214.06 57.7 214.06 32.06 194.56 C25.86 189.92 19.76 185.16 13.69 180.34 C12.58 179.46 11.46 178.58 10.34 177.7 C8.81 176.49 7.28 175.28 5.75 174.06 C4.88 173.37 4.01 172.68 3.11 171.97 C0.06 169.12 -0.91 167.15 -1.25 162.95 C-1.25 161.75 -1.25 160.55 -1.25 159.31 C-1.25 158.63 -1.25 157.96 -1.25 157.27 C-1.26 155.02 -1.25 152.77 -1.24 150.52 C-1.24 148.91 -1.25 147.3 -1.25 145.68 C-1.25 141.3 -1.25 136.92 -1.24 132.54 C-1.23 127.96 -1.23 123.38 -1.23 118.81 C-1.23 111.12 -1.22 103.43 -1.21 95.74 C-1.19 86.84 -1.18 77.94 -1.19 69.05 C-1.19 60.49 -1.18 51.94 -1.17 43.39 C-1.17 39.75 -1.17 36.1 -1.17 32.46 C-1.17 28.18 -1.16 23.89 -1.15 19.6 C-1.15 18.03 -1.15 16.45 -1.15 14.87 C-1.15 12.73 -1.14 10.58 -1.13 8.44 C-1.13 7.24 -1.13 6.03 -1.13 4.8 C-1 2 -1 2 0 0 Z M8 23 C7.72 39.53 7.51 56.07 7.38 72.6 C7.32 80.28 7.23 87.96 7.09 95.63 C6.97 102.33 6.9 109.02 6.87 115.72 C6.86 119.26 6.82 122.8 6.73 126.34 C5.46 141.36 5.46 141.36 10.61 154.68 C13.44 157.11 16.56 158.56 20 160 C21.4 160.97 22.78 161.98 24.11 163.05 C25.01 163.72 25.01 163.72 25.93 164.4 C32.9 169.58 39.72 174.93 46.42 180.46 C50.21 183.58 54.06 186.58 58 189.51 C61.31 191.98 64.59 194.49 67.88 197 C68.6 197.56 69.33 198.12 70.08 198.69 C77.66 204.49 85.19 210.35 92.71 216.22 C103.78 224.85 114.87 233.45 126 242 C128.62 244.01 131.23 246.03 133.85 248.04 C136.92 250.4 139.99 252.76 143.07 255.1 C144.51 256.19 145.94 257.28 147.38 258.38 C148.09 258.92 148.8 259.46 149.53 260.02 C153.16 262.78 156.74 265.58 160.28 268.46 C161.3 269.29 161.3 269.29 162.34 270.14 C163.62 271.19 164.9 272.24 166.18 273.31 C169.1 275.69 171.31 277.27 175 278 C180.33 254.15 168.17 228.09 155.75 208.31 C152.9 203.83 149.96 199.41 147 195 C151.91 199.13 156.67 203.42 161.39 207.77 C164.47 210.6 167.57 213.41 170.69 216.19 C185.69 229.69 200.01 243.88 214.25 258.19 C216.11 260.05 217.96 261.91 219.82 263.77 C223.91 267.87 228 271.97 232.09 276.08 C233.7 277.69 235.31 279.3 236.92 280.91 C239.08 283.08 241.11 285.33 243.12 287.62 C247.39 292.4 251.88 296.9 256.43 301.4 C259.22 304.22 261.82 307.16 264.39 310.17 C266.03 312.03 267.73 313.77 269.5 315.5 C271.81 317.78 274 320.1 276.12 322.56 C279.63 326.62 283.24 330.56 286.88 334.5 C287.75 335.45 287.75 335.45 288.65 336.43 C290.08 337.97 291.54 339.49 293 341 C293.33 341 293.66 341 294 341 C294.12 324.77 294.2 308.54 294.26 292.31 C294.28 284.78 294.32 277.24 294.38 269.71 C294.43 263.14 294.46 256.57 294.47 250.01 C294.48 246.53 294.49 243.05 294.53 239.57 C294.57 235.69 294.57 231.81 294.57 227.93 C294.59 226.77 294.6 225.62 294.62 224.43 C294.75 218.32 294.75 218.32 291.62 213.36 C290.75 212.91 289.89 212.46 289 212 C288.19 211.44 287.39 210.89 286.55 210.32 C285.67 209.74 284.79 209.16 283.88 208.56 C278.63 205.1 273.43 201.56 268.25 198 C259.7 192.13 251.09 186.37 242.45 180.64 C237.03 177.05 231.67 173.4 226.35 169.65 C222.74 167.11 219.09 164.62 215.44 162.12 C214.23 161.3 214.23 161.3 212.99 160.45 C211.24 159.26 209.49 158.07 207.74 156.87 C205.9 155.62 204.06 154.36 202.22 153.1 C192 146.12 181.76 139.16 171.45 132.3 C170.72 131.82 169.99 131.33 169.24 130.83 C165.64 128.44 162.04 126.05 158.43 123.66 C151.71 119.21 145.1 114.67 138.6 109.88 C134.06 106.59 129.37 103.53 124.69 100.44 C113.98 93.34 103.35 86.14 92.75 78.88 C88.02 75.65 83.29 72.42 78.56 69.19 C77.65 68.56 76.73 67.94 75.78 67.29 C69.86 63.25 63.9 59.25 57.92 55.29 C53.71 52.49 49.56 49.61 45.43 46.7 C42.77 44.84 40.08 43.04 37.38 41.25 C32.39 37.94 27.44 34.58 22.5 31.19 C21.82 30.72 21.13 30.25 20.43 29.77 C19.46 29.1 19.46 29.1 18.47 28.42 C17.86 28 17.25 27.58 16.62 27.15 C15.29 26.2 14 25.2 12.72 24.18 C10.93 22.72 10.93 22.72 8 23 Z " fill="#1B1B1B" transform="translate(44,39)"/>
<path d="M0 0 C0.09 28.43 0.16 56.87 0.2 85.3 C0.21 88.66 0.21 92.02 0.22 95.37 C0.22 96.04 0.22 96.71 0.22 97.4 C0.24 108.22 0.27 119.04 0.31 129.86 C0.35 140.97 0.37 152.07 0.38 163.17 C0.38 169.41 0.39 175.65 0.42 181.88 C0.45 187.75 0.46 193.62 0.45 199.49 C0.45 201.64 0.46 203.8 0.48 205.95 C0.5 208.89 0.49 211.83 0.48 214.77 C0.49 215.63 0.5 216.48 0.52 217.36 C0.45 224.26 -2.18 228.3 -6.89 233.27 C-7.43 233.84 -7.96 234.41 -8.52 235 C-9.37 235.9 -9.37 235.9 -10.25 236.81 C-10.86 237.46 -11.46 238.1 -12.09 238.76 C-13.39 240.13 -14.68 241.51 -15.99 242.88 C-19.38 246.45 -22.75 250.04 -26.12 253.62 C-26.8 254.34 -27.47 255.06 -28.17 255.79 C-34.16 262.15 -40.09 268.57 -46 275 C-52.49 282.05 -59 289.08 -65.56 296.06 C-70.87 301.71 -76.14 307.39 -81.37 313.12 C-83.22 315.15 -85.08 317.17 -86.95 319.2 C-87.44 319.73 -87.93 320.26 -88.43 320.81 C-89.78 322.28 -91.14 323.74 -92.49 325.21 C-94.3 327.23 -96.01 329.24 -97.7 331.35 C-98.46 332.23 -99.22 333.1 -100 334 C-100.66 334 -101.32 334 -102 334 C-102.25 334.58 -102.51 335.17 -102.77 335.77 C-104.13 338.24 -105.64 339.81 -107.69 341.75 C-110.4 344.39 -112.98 347.06 -115.44 349.94 C-118.01 352.93 -120.69 355.73 -123.5 358.5 C-126.17 361.13 -128.74 363.78 -131.19 366.62 C-134.53 370.51 -138 374.26 -141.5 378 C-142.39 378.96 -142.39 378.96 -143.31 379.93 C-146.53 383.37 -149.76 386.81 -153 390.25 C-153.65 390.95 -154.31 391.65 -154.99 392.37 C-156.25 393.7 -157.5 395.04 -158.76 396.37 C-162.34 400.17 -165.81 404.04 -169.24 407.98 C-172.18 411.36 -175.17 414.69 -178.19 418 C-178.79 418.68 -179.39 419.36 -180.01 420.06 C-180.6 420.7 -181.19 421.34 -181.79 422 C-182.57 422.87 -182.57 422.87 -183.37 423.75 C-185 425 -185 425 -189 425 C-189.05 389.03 -189.08 353.07 -189.1 317.1 C-189.1 312.85 -189.11 308.61 -189.11 304.36 C-189.11 303.52 -189.11 302.67 -189.11 301.8 C-189.12 288.11 -189.14 274.42 -189.15 260.73 C-189.17 246.69 -189.18 232.65 -189.19 218.61 C-189.19 209.94 -189.2 201.27 -189.22 192.6 C-189.23 186.66 -189.23 180.72 -189.23 174.78 C-189.23 171.35 -189.23 167.92 -189.24 164.49 C-189.25 160.78 -189.25 157.06 -189.24 153.35 C-189.25 152.26 -189.25 151.17 -189.26 150.05 C-189.25 149.06 -189.25 148.06 -189.25 147.03 C-189.25 146.18 -189.25 145.32 -189.25 144.44 C-188.77 139.75 -187.16 136.68 -183.56 133.69 C-182.97 133.18 -182.37 132.66 -181.75 132.14 C-180 131 -180 131 -177 131 C-176.67 215.81 -176.34 300.62 -176 388 C-170.25 383.21 -169.53 382.28 -167 376 C-165.44 373.76 -163.68 371.73 -161.88 369.69 C-158.6 366.08 -158.6 366.08 -156 362 C-155.34 362 -154.68 362 -154 362 C-153.67 360.68 -153.34 359.36 -153 358 C-152.34 358 -151.68 358 -151 358 C-150.81 357.34 -150.63 356.68 -150.44 356 C-148.79 352.57 -146.74 350.31 -144.2 347.51 C-141.48 344.4 -138.92 341.19 -136.38 337.94 C-135.92 337.36 -135.47 336.78 -135 336.19 C-132.66 333.2 -130.43 330.19 -128.29 327.07 C-127.53 326.05 -126.78 325.04 -126 324 C-125.34 324 -124.68 324 -124 324 C-123.62 323.18 -123.62 323.18 -123.24 322.34 C-121.76 319.55 -120 317.11 -118.12 314.56 C-117.45 313.64 -116.77 312.71 -116.07 311.75 C-114 309 -114 309 -111.99 306.78 C-106.62 299.29 -104.61 289.69 -102.12 280.94 C-101.75 279.62 -101.37 278.3 -100.99 276.99 C-99.65 272.33 -98.33 267.66 -97 263 C-94.65 254.73 -92.29 246.46 -89.94 238.19 C-89.63 237.12 -89.33 236.04 -89.01 234.94 C-85.41 222.31 -81.76 209.71 -77.83 197.18 C-74.93 187.91 -72.28 178.58 -69.63 169.24 C-65.58 154.99 -61.45 140.78 -57.27 126.57 C-56.77 124.87 -56.28 123.17 -55.78 121.48 C-55.54 120.66 -55.3 119.84 -55.05 119 C-53.6 114.07 -52.17 109.14 -50.75 104.21 C-50.43 103.09 -50.11 101.96 -49.77 100.81 C-49.2 98.8 -48.62 96.8 -48.05 94.8 C-47.81 93.94 -47.56 93.08 -47.3 92.2 C-47.1 91.48 -46.89 90.75 -46.68 90.01 C-45.96 87.89 -45 86 -44 84 C-43.62 82.34 -43.28 80.68 -43 79 C-42.67 79 -42.34 79 -42 79 C-41.81 87.21 -42.41 95.3 -43.1 103.47 C-43.22 104.9 -43.34 106.33 -43.46 107.77 C-43.71 110.84 -43.96 113.91 -44.22 116.98 C-44.63 121.85 -45.03 126.72 -45.43 131.59 C-46.5 144.56 -47.58 157.53 -48.66 170.5 C-49.37 179.03 -50.07 187.55 -50.77 196.08 C-51.17 200.91 -51.57 205.73 -51.98 210.56 C-52.23 213.58 -52.48 216.6 -52.72 219.63 C-52.89 221.66 -53.06 223.69 -53.24 225.73 C-53.97 234.84 -54.12 243.87 -54 253 C-49.76 248.79 -45.53 244.57 -41.29 240.35 C-39.85 238.91 -38.41 237.48 -36.97 236.04 C-34.9 233.98 -32.83 231.92 -30.76 229.86 C-30.11 229.21 -29.47 228.57 -28.8 227.91 C-28.2 227.31 -27.6 226.71 -26.98 226.09 C-26.45 225.57 -25.92 225.04 -25.38 224.5 C-23.78 222.84 -23.78 222.84 -22 220 C-21.34 220 -20.68 220 -20 220 C-20 219.34 -20 218.68 -20 218 C-19.34 217.67 -18.68 217.34 -18 217 C-18 215.99 -18 214.98 -18.01 213.95 C-18.05 189.42 -18.08 164.89 -18.1 140.36 C-18.11 128.5 -18.13 116.63 -18.15 104.77 C-18.17 94.43 -18.18 84.09 -18.19 73.75 C-18.19 68.28 -18.2 62.8 -18.21 57.33 C-18.23 52.17 -18.23 47.02 -18.23 41.87 C-18.23 39.98 -18.23 38.09 -18.24 36.2 C-18.25 33.61 -18.25 31.03 -18.24 28.44 C-18.25 27.7 -18.25 26.95 -18.26 26.19 C-18.23 21.17 -17.37 16.83 -16 12 C-16.99 11.5 -16.99 11.5 -18 11 C-16.44 9.56 -14.88 8.12 -13.31 6.69 C-12.44 5.89 -11.57 5.09 -10.68 4.26 C-4.04 -1.35 -4.04 -1.35 0 0 Z " fill="#201B15" transform="translate(665,244)"/>
<path d="M0 0 C4.1 1.44 7.3 3.44 10.81 6 C12.28 7.05 12.28 7.05 13.77 8.12 C14.87 9.05 14.87 9.05 16 10 C16 10.66 16 11.32 16 12 C16.59 12.26 17.19 12.51 17.8 12.77 C20.21 14.12 21.51 15.49 23.25 17.62 C23.77 18.26 24.29 18.89 24.83 19.54 C25.41 20.26 25.41 20.26 26 21 C21.93 21 19.88 18.91 16.81 16.5 C15.97 15.86 15.97 15.86 15.12 15.2 C13.74 14.14 12.37 13.07 11 12 C10.97 38.76 10.97 65.51 11.03 92.27 C11.05 104.69 11.06 117.11 11.04 129.53 C11.03 140.36 11.04 151.19 11.07 162.01 C11.09 167.75 11.1 173.48 11.07 179.22 C11.05 184.61 11.07 190.01 11.1 195.4 C11.11 197.38 11.11 199.36 11.09 201.35 C11.07 204.05 11.09 206.75 11.12 209.46 C11.1 210.24 11.09 211.03 11.07 211.83 C11.15 215.19 11.31 217.2 13.56 219.79 C15.31 221.3 17.12 222.65 19 224 C20.07 225.14 21.11 226.32 22.1 227.53 C27.5 233.88 33.53 239.63 39.44 245.5 C40.66 246.72 41.88 247.93 43.1 249.15 C46.06 252.1 49.03 255.05 52 258 C51.33 245.58 50.39 233.2 49.3 220.8 C48.57 212.44 47.92 204.09 47.48 195.7 C47.1 188.34 46.49 181.02 45.75 173.69 C44.25 158.21 42.94 142.73 41.66 127.23 C41.43 124.46 41.2 121.69 40.97 118.92 C40.64 114.98 40.31 111.04 39.99 107.1 C39.84 105.32 39.84 105.32 39.69 103.5 C39.18 97.31 38.9 91.21 39 85 C40.67 88.24 41.73 91.3 42.66 94.83 C43.13 96.59 43.13 96.59 43.61 98.39 C43.95 99.67 44.28 100.94 44.62 102.25 C44.98 103.58 45.33 104.92 45.68 106.25 C48.45 116.75 51.09 127.28 53.7 137.82 C55.72 145.95 57.79 154.05 60.08 162.1 C62.23 169.69 64.17 177.34 66.13 184.98 C68.87 195.65 71.65 206.32 74.45 216.98 C79.16 234.94 83.84 252.9 88.5 270.88 C88.8 272.04 89.11 273.21 89.42 274.42 C90.29 277.77 91.16 281.13 92.03 284.49 C92.29 285.48 92.54 286.46 92.81 287.48 C93.05 288.43 93.3 289.37 93.55 290.35 C93.79 291.27 94.03 292.19 94.28 293.14 C94.79 295.16 95.28 297.2 95.74 299.24 C95.99 300.3 96.24 301.37 96.5 302.46 C96.82 303.91 96.82 303.91 97.15 305.38 C98.57 309.76 101.34 312.51 104.62 315.62 C105.89 316.9 107.16 318.18 108.43 319.46 C109.04 320.06 109.65 320.67 110.29 321.29 C112.55 323.55 114.69 325.92 116.81 328.31 C117.51 329.09 118.21 329.87 118.93 330.68 C119.61 331.45 120.3 332.21 121 333 C122.48 334.65 123.96 336.29 125.44 337.94 C126.18 338.76 126.91 339.58 127.68 340.43 C130.15 343.17 132.64 345.9 135.12 348.62 C138.02 351.8 140.88 355 143.69 358.25 C145.87 360.77 148.12 363.16 150.5 365.5 C153.45 368.4 156.17 371.44 158.87 374.57 C161.45 377.51 164.09 380.39 166.73 383.27 C167.24 383.82 167.75 384.38 168.27 384.94 C169.51 386.3 170.76 387.65 172 389 C172.14 356.34 172.24 323.69 172.31 291.03 C172.31 287.18 172.32 283.33 172.33 279.47 C172.33 278.71 172.33 277.94 172.33 277.15 C172.36 264.72 172.41 252.29 172.46 239.86 C172.52 227.11 172.55 214.36 172.56 201.61 C172.57 193.74 172.6 185.87 172.65 178 C172.68 171.97 172.69 165.94 172.68 159.91 C172.68 157.43 172.69 154.96 172.72 152.48 C172.74 149.11 172.74 145.73 172.72 142.36 C172.74 141.37 172.76 140.39 172.77 139.37 C172.81 134.48 172.81 134.48 170.62 130.29 C168.8 128.74 168.8 128.74 166 127 C166 126.67 166 126.34 166 126 C169.54 125.55 170.9 125.94 173.97 127.86 C174.99 128.67 176.01 129.48 177.06 130.31 C178.08 131.11 179.11 131.91 180.16 132.74 C181.1 133.48 182.03 134.23 183 135 C183.76 135.53 184.52 136.06 185.31 136.61 C187 138 187 138 188 141 C188.09 142.6 188.12 144.21 188.12 145.82 C188.13 146.82 188.13 147.82 188.13 148.85 C188.13 149.95 188.12 151.05 188.12 152.18 C188.12 153.93 188.12 153.93 188.12 155.71 C188.12 158.96 188.12 162.2 188.12 165.44 C188.11 168.94 188.11 172.43 188.11 175.93 C188.11 181.98 188.11 188.04 188.11 194.1 C188.1 202.86 188.09 211.61 188.09 220.37 C188.09 234.58 188.08 248.78 188.08 262.99 C188.07 276.79 188.06 290.6 188.05 304.4 C188.05 305.25 188.05 306.1 188.05 306.98 C188.05 311.24 188.05 315.51 188.05 319.78 C188.04 355.18 188.02 390.59 188 426 C187.34 426.33 186.68 426.66 186 427 C181.58 423.39 177.75 419.71 174.05 415.38 C171.57 412.51 169.01 409.72 166.44 406.94 C165.93 406.39 165.43 405.85 164.91 405.28 C162.07 402.22 159.22 399.16 156.36 396.11 C155.14 394.8 153.91 393.49 152.69 392.19 C152.09 391.55 151.49 390.91 150.88 390.25 C147.34 386.46 143.88 382.62 140.5 378.69 C138.39 376.31 136.11 374.1 133.84 371.87 C132.06 370.06 130.39 368.19 128.73 366.26 C125.19 362.19 121.52 358.24 117.81 354.31 C116.49 352.91 115.17 351.5 113.84 350.09 C113.19 349.4 112.54 348.71 111.88 348 C109.17 345.12 106.49 342.22 103.81 339.31 C103.33 338.79 102.84 338.26 102.34 337.72 C100.9 336.15 99.45 334.57 98 333 C89.37 323.63 80.7 314.3 72 305 C63.8 296.22 55.61 287.43 47.47 278.6 C45.97 276.97 44.47 275.35 42.97 273.72 C38.22 268.58 33.47 263.42 28.75 258.25 C23.48 252.49 18.12 246.8 12.75 241.14 C10.82 239.1 8.91 237.05 7 235 C6.34 234.29 5.68 233.58 4.99 232.85 C4.36 232.15 3.73 231.45 3.08 230.73 C2.23 229.8 2.23 229.8 1.36 228.85 C-1.81 224.53 -1.14 219.24 -1.13 214.1 C-1.13 213.19 -1.13 212.28 -1.13 211.34 C-1.14 208.29 -1.13 205.24 -1.13 202.18 C-1.13 200 -1.13 197.81 -1.13 195.62 C-1.14 189.68 -1.14 183.74 -1.13 177.8 C-1.13 171.59 -1.13 165.38 -1.14 159.17 C-1.14 148.08 -1.13 136.99 -1.13 125.9 C-1.12 115.83 -1.13 105.77 -1.13 95.7 C-1.14 84.02 -1.14 72.34 -1.13 60.66 C-1.13 54.47 -1.13 48.28 -1.14 42.1 C-1.14 36.28 -1.14 30.47 -1.13 24.66 C-1.13 22.52 -1.13 20.38 -1.13 18.24 C-1.14 15.34 -1.13 12.43 -1.13 9.52 C-1.13 8.66 -1.13 7.81 -1.13 6.92 C-1.11 1.11 -1.11 1.11 0 0 Z " fill="#1A1A1A" transform="translate(44,243)"/>
<path d="M0 0 C0.33 16.5 0.57 33 0.73 49.5 C0.8 57.16 0.9 64.82 1.06 72.48 C1.2 79.16 1.29 85.85 1.32 92.53 C1.34 96.07 1.38 99.6 1.48 103.13 C2.13 126.34 2.13 126.34 -2.97 132.05 C-5.79 134.54 -8.8 136.34 -12.16 138 C-15.33 139.72 -17.97 142.02 -20.75 144.31 C-29.14 150.91 -37.55 157.47 -46 164 C-46.64 164.49 -47.28 164.99 -47.94 165.5 C-49.62 166.8 -51.31 168.09 -53 169.38 C-53.93 170.08 -54.86 170.79 -55.81 171.52 C-58 173 -58 173 -60 173 C-60 173.66 -60 174.32 -60 175 C-62.26 176.83 -64.52 178.55 -66.88 180.25 C-68.34 181.33 -69.8 182.4 -71.26 183.48 C-72.03 184.05 -72.8 184.62 -73.59 185.2 C-77.69 188.26 -81.72 191.41 -85.75 194.56 C-87.24 195.73 -88.74 196.9 -90.23 198.07 C-90.87 198.56 -91.5 199.06 -92.15 199.56 C-92.76 200.04 -93.37 200.51 -94 201 C-95.04 201.83 -95.04 201.83 -96.11 202.68 C-98 204 -98 204 -100 204 C-100 204.66 -100 205.32 -100 206 C-101.68 207.4 -103.42 208.72 -105.19 210 C-106.29 210.81 -107.4 211.62 -108.5 212.43 C-109.08 212.85 -109.65 213.27 -110.25 213.71 C-113.09 215.81 -115.89 217.96 -118.69 220.12 C-119.23 220.55 -119.78 220.97 -120.34 221.4 C-124.91 224.92 -129.46 228.46 -134 232 C-135.69 233.31 -137.37 234.63 -139.06 235.94 C-140.38 236.96 -141.69 237.98 -143 239 C-142.67 239.66 -142.34 240.32 -142 241 C-140.75 243.49 -141.22 244.41 -142 247 C-142.58 247.08 -143.15 247.16 -143.75 247.25 C-146.62 248.21 -148 249.78 -150 252 C-148.02 254.48 -148.02 254.48 -146 257 C-146.33 257.33 -146.66 257.66 -147 258 C-146.07 258.04 -145.14 258.08 -144.19 258.12 C-143.14 258.41 -142.08 258.7 -141 259 C-139.3 262.05 -139.3 262.05 -138 265 C-143.43 269.18 -148.87 273.36 -154.3 277.54 C-154.83 277.95 -155.36 278.35 -155.91 278.77 C-156.97 279.59 -158.03 280.41 -159.1 281.22 C-161.96 283.41 -164.79 285.63 -167.6 287.89 C-168.19 288.36 -168.78 288.82 -169.39 289.31 C-170.52 290.21 -171.65 291.12 -172.78 292.04 C-174.32 293.26 -174.32 293.26 -177 295 C-177.99 294.67 -178.98 294.34 -180 294 C-178.94 289.68 -177.87 285.36 -176.8 281.04 C-176.44 279.58 -176.08 278.12 -175.72 276.65 C-173.43 267.33 -170.94 258.14 -168 249 C-175.19 254.08 -182.08 259.43 -188.89 265.01 C-193.2 268.54 -197.54 272.02 -201.94 275.44 C-207.2 279.54 -212.36 283.75 -217.5 288 C-223.87 293.27 -230.3 298.44 -236.82 303.51 C-240.64 306.49 -244.38 309.56 -248.11 312.64 C-250 314 -250 314 -252 314 C-252 313.34 -252 312.68 -252 312 C-251.34 311.67 -250.68 311.34 -250 311 C-251.65 310.67 -253.3 310.34 -255 310 C-255 308.68 -255 307.36 -255 306 C-256.65 306 -258.3 306 -260 306 C-260 305.01 -260 304.02 -260 303 C-262.03 303.64 -262.03 303.64 -264 305 C-264.11 305.81 -264.22 306.62 -264.33 307.45 C-264.66 308.71 -264.66 308.71 -265 310 C-267.14 311.22 -267.14 311.22 -269.81 312.06 C-273.88 313.37 -276.14 314.8 -279 318 C-280.2 313.05 -280.47 308.46 -277.77 303.94 C-274.4 299.37 -270.6 295.17 -266.78 290.97 C-264.38 288.32 -262.17 285.55 -259.94 282.75 C-256.45 278.42 -252.84 274.44 -248.45 271.01 C-245.81 268.84 -243.91 266.57 -241.81 263.88 C-237.27 258.21 -232.49 252.78 -227 248 C-226.34 248 -225.68 248 -225 248 C-225 247.34 -225 246.68 -225 246 C-224.34 246 -223.68 246 -223 246 C-222.75 245.42 -222.5 244.85 -222.25 244.25 C-220.82 241.67 -219.22 239.94 -217 238 C-216.34 238 -215.68 238 -215 238 C-215 237.34 -215 236.68 -215 236 C-213.36 234.38 -213.36 234.38 -211.19 232.56 C-208.18 230.03 -208.18 230.03 -205.36 227.28 C-204 226 -204 226 -202 226 C-201.77 225.43 -201.53 224.86 -201.29 224.27 C-199.7 221.47 -197.8 219.8 -195.38 217.69 C-194.03 216.5 -194.03 216.5 -192.65 215.3 C-191.77 214.54 -190.9 213.78 -190 213 C-188.97 212.08 -188.97 212.08 -187.91 211.14 C-183.5 207.21 -178.91 203.53 -174.27 199.87 C-172.39 198.32 -170.68 196.76 -169 195 C-168.34 194.34 -167.68 193.68 -167 193 C-166.34 193 -165.68 193 -165 193 C-165 192.34 -165 191.68 -165 191 C-162.92 189.09 -162.92 189.09 -160.19 186.94 C-159.29 186.22 -158.4 185.51 -157.48 184.78 C-155 183 -155 183 -152 182 C-152 181.34 -152 180.68 -152 180 C-150.21 178.41 -150.21 178.41 -147.81 176.62 C-145.18 174.64 -142.6 172.67 -140.06 170.56 C-138 169 -138 169 -136 169 C-137.7 172.68 -139.9 176 -142.12 179.38 C-153.56 197.06 -166.04 217.22 -165 239 C-162.58 237.23 -160.17 235.46 -157.75 233.69 C-157.07 233.19 -156.39 232.69 -155.68 232.17 C-155.02 231.69 -154.36 231.2 -153.67 230.7 C-153.03 230.23 -152.39 229.76 -151.73 229.28 C-150.35 228.26 -148.99 227.21 -147.64 226.14 C-146 225 -146 225 -144 225 C-144 224.34 -144 223.68 -144 223 C-142.17 221.66 -140.29 220.4 -138.38 219.19 C-133.34 215.94 -133.34 215.94 -128.62 212.25 C-121.33 206 -121.33 206 -118 206 C-118 205.34 -118 204.68 -118 204 C-116.21 202.83 -114.41 201.67 -112.57 200.57 C-108.46 198.06 -104.51 195.3 -100.54 192.57 C-98 191 -98 191 -96 191 C-96 190.34 -96 189.68 -96 189 C-94.6 187.87 -94.6 187.87 -92.63 186.64 C-91.91 186.19 -91.19 185.73 -90.45 185.26 C-89.68 184.78 -88.91 184.3 -88.12 183.81 C-82.53 180.3 -77.06 176.67 -71.66 172.85 C-66.84 169.49 -61.92 166.28 -57 163.06 C-55.96 162.38 -54.93 161.69 -53.86 160.99 C-52.88 160.35 -51.89 159.7 -50.88 159.04 C-49.99 158.45 -49.1 157.87 -48.18 157.27 C-46 156 -46 156 -44 156 C-44 155.34 -44 154.68 -44 154 C-41.78 152.54 -39.56 151.19 -37.25 149.88 C-31.42 146.47 -25.75 142.92 -20.17 139.12 C-17 137 -17 137 -14.33 135.71 C-8.44 132.68 -8.44 132.68 -4.98 127.3 C-4.6 123.95 -4.57 120.74 -4.66 117.36 C-4.64 115.47 -4.64 115.47 -4.62 113.55 C-4.6 110.11 -4.63 106.68 -4.68 103.24 C-4.72 99.64 -4.7 96.05 -4.69 92.45 C-4.67 85.65 -4.71 78.85 -4.76 72.04 C-4.82 64.29 -4.82 56.54 -4.82 48.8 C-4.81 32.86 -4.88 16.93 -5 1 C-2 0 -2 0 0 0 Z " fill="#1C1A17" transform="translate(653,62)"/>
<path d="M0 0 C0.33 84.81 0.66 169.62 1 257 C6.08 252.81 6.08 252.81 10.41 248.19 C14.58 243.3 18.98 238.66 23.39 234 C27.2 229.96 30.91 225.86 34.54 221.66 C37.88 217.86 39.97 217.56 45 217 C45.33 216.01 45.66 215.02 46 214 C46.8 213.36 47.61 212.72 48.44 212.06 C50.93 210.06 51.84 208.9 53 206 C53.33 205.34 53.66 204.68 54 204 C54.66 204.33 55.32 204.66 56 205 C55.67 204.01 55.34 203.02 55 202 C55.33 201.34 55.66 200.68 56 200 C57.32 200 58.64 200 60 200 C60 199.01 60 198.02 60 197 C60.66 197 61.32 197 62 197 C62 196.34 62 195.68 62 195 C63.32 194.67 64.64 194.34 66 194 C66 193.01 66 192.02 66 191 C67.98 191.33 69.96 191.66 72 192 C71.25 193.73 70.5 195.45 69.75 197.18 C69.1 198.76 68.54 200.38 68 202 C67.34 202 66.68 202 66 202 C66.23 202.89 66.45 203.77 66.69 204.69 C67.06 208.59 66.4 209.97 64 213 C63.34 213 62.68 213 62 213 C62.66 214.32 63.32 215.64 64 217 C63.37 217.62 63.37 217.62 62.73 218.25 C59.4 221.55 56.07 224.86 52.75 228.19 C52.12 228.82 51.49 229.45 50.84 230.11 C48.43 232.59 46.14 235.17 43.9 237.81 C41.18 240.95 38.34 243.97 35.5 247 C34.9 247.64 34.31 248.28 33.69 248.93 C30.47 252.38 27.24 255.81 24 259.25 C23.35 259.95 22.69 260.65 22.01 261.37 C20.75 262.7 19.5 264.04 18.24 265.37 C14.66 269.17 11.19 273.04 7.76 276.98 C4.82 280.36 1.83 283.69 -1.19 287 C-1.79 287.68 -2.39 288.36 -3.01 289.06 C-3.6 289.7 -4.19 290.34 -4.79 291 C-5.57 291.87 -5.57 291.87 -6.37 292.75 C-8 294 -8 294 -12 294 C-12.05 258.03 -12.08 222.07 -12.1 186.1 C-12.1 181.85 -12.11 177.61 -12.11 173.36 C-12.11 172.52 -12.11 171.67 -12.11 170.8 C-12.12 157.11 -12.14 143.42 -12.15 129.73 C-12.17 115.69 -12.18 101.65 -12.19 87.61 C-12.19 78.94 -12.2 70.27 -12.22 61.6 C-12.23 55.66 -12.23 49.72 -12.23 43.78 C-12.23 40.35 -12.23 36.92 -12.24 33.49 C-12.25 29.78 -12.25 26.06 -12.24 22.35 C-12.25 21.26 -12.25 20.17 -12.26 19.05 C-12.25 18.06 -12.25 17.06 -12.25 16.03 C-12.25 15.18 -12.25 14.32 -12.25 13.44 C-11.77 8.75 -10.16 5.68 -6.56 2.69 C-5.97 2.18 -5.37 1.66 -4.75 1.14 C-3 0 -3 0 0 0 Z " fill="#1C1916" transform="translate(488,375)"/>
<path d="M0 0 C0.99 1.49 0.99 1.49 2 3 C1.25 5.44 1.25 5.44 0 8 C-0.34 8.88 -0.34 8.88 -0.69 9.77 C-2.66 13.12 -5.4 15.57 -8.19 18.25 C-12.4 22.33 -16.37 26.51 -20.2 30.94 C-23.29 34.47 -26.52 37.85 -29.75 41.25 C-35.27 47.09 -40.74 52.97 -46.16 58.91 C-50.21 63.33 -54.32 67.69 -58.43 72.05 C-61.4 75.21 -64.36 78.38 -67.26 81.62 C-68.01 82.45 -68.01 82.45 -68.77 83.29 C-70.09 84.77 -71.41 86.26 -72.73 87.74 C-74.84 89.84 -76.2 91.09 -79 92 C-83.47 91.87 -87.05 90.98 -90.19 87.75 C-91.24 84.19 -90.48 82.34 -89 79 C-88.34 79 -87.68 79 -87 79 C-87.05 77.93 -87.05 77.93 -87.11 76.84 C-87.28 70.62 -86.87 66.51 -84 61 C-82.14 56.45 -80.79 52.16 -79.94 47.31 C-79.76 46.32 -79.58 45.32 -79.4 44.3 C-79.27 43.54 -79.14 42.78 -79 42 C-78.34 42 -77.68 42 -77 42 C-76.67 38.04 -76.34 34.08 -76 30 C-75.34 30 -74.68 30 -74 30 C-73.34 27.03 -72.68 24.06 -72 21 C-71.01 21 -70.02 21 -69 21 C-68.67 22.32 -68.34 23.64 -68 25 C-69.32 25.33 -70.64 25.66 -72 26 C-72.09 31.15 -71.85 35.92 -71 41 C-69.06 40.81 -69.06 40.81 -67 40 C-65.66 38.16 -65.66 38.16 -64.75 35.94 C-64.41 35.2 -64.08 34.47 -63.73 33.71 C-63.49 33.15 -63.25 32.58 -63 32 C-60.77 31.97 -58.54 31.95 -56.31 31.94 C-55.07 31.93 -53.83 31.91 -52.55 31.9 C-49.54 31.99 -46.92 32.29 -44 33 C-44 32.34 -44 31.68 -44 31 C-41 29 -41 29 -38 29 C-37.67 27.68 -37.34 26.36 -37 25 C-35.68 24.67 -34.36 24.34 -33 24 C-33 23.01 -33 22.02 -33 21 C-32.01 21 -31.02 21 -30 21 C-29.5 19.51 -29.5 19.51 -29 18 C-25.77 16.38 -22.55 15.61 -19 15 C-19.23 14.07 -19.45 13.14 -19.69 12.19 C-20 9 -20 9 -18.94 7.19 C-16.36 5.61 -13.98 5.33 -11 5 C-11 4.34 -11 3.68 -11 3 C-10.37 2.87 -9.75 2.73 -9.1 2.6 C-8.28 2.42 -7.47 2.24 -6.62 2.06 C-5.81 1.89 -5 1.71 -4.16 1.54 C-1.97 1.08 -1.97 1.08 0 0 Z " fill="#1A1A1A" transform="translate(656,470)"/>
<path d="M0 0 C0.33 16.5 0.57 33 0.73 49.5 C0.8 57.16 0.9 64.82 1.06 72.48 C1.2 79.16 1.29 85.85 1.32 92.53 C1.34 96.07 1.38 99.6 1.48 103.13 C2.13 126.34 2.13 126.34 -2.97 132.05 C-5.79 134.54 -8.8 136.34 -12.16 138 C-15.33 139.72 -17.97 142.02 -20.75 144.31 C-29.14 150.91 -37.55 157.47 -46 164 C-46.64 164.49 -47.28 164.99 -47.94 165.5 C-49.62 166.8 -51.31 168.09 -53 169.38 C-53.93 170.08 -54.86 170.79 -55.81 171.52 C-58 173 -58 173 -60 173 C-60 173.66 -60 174.32 -60 175 C-62.26 176.83 -64.52 178.55 -66.88 180.25 C-68.34 181.33 -69.8 182.4 -71.26 183.48 C-72.03 184.05 -72.8 184.62 -73.59 185.2 C-77.69 188.26 -81.72 191.41 -85.75 194.56 C-87.24 195.73 -88.74 196.9 -90.23 198.07 C-90.87 198.56 -91.5 199.06 -92.15 199.56 C-92.76 200.04 -93.37 200.51 -94 201 C-94.7 201.56 -95.39 202.11 -96.11 202.68 C-98 204 -98 204 -100 204 C-100 204.66 -100 205.32 -100 206 C-101.68 207.4 -103.42 208.72 -105.19 210 C-106.29 210.81 -107.4 211.62 -108.5 212.43 C-109.36 213.06 -109.36 213.06 -110.25 213.71 C-113.09 215.81 -115.89 217.96 -118.69 220.12 C-119.51 220.76 -119.51 220.76 -120.35 221.41 C-124.13 224.32 -127.89 227.25 -131.66 230.18 C-135.53 233.19 -139.41 236.17 -143.3 239.16 C-146.06 241.27 -148.8 243.4 -151.54 245.53 C-153.09 246.73 -154.64 247.93 -156.19 249.12 C-156.93 249.71 -157.67 250.29 -158.44 250.89 C-159.13 251.42 -159.83 251.96 -160.54 252.51 C-161.47 253.23 -161.47 253.23 -162.42 253.97 C-164 255 -164 255 -166 255 C-167.19 251.44 -167.1 248.56 -167.06 244.81 C-167.05 243.54 -167.04 242.27 -167.04 240.96 C-167.02 239.98 -167.01 239.01 -167 238 C-166.01 238 -165.02 238 -164 238 C-161.61 236.45 -159.34 234.88 -157.06 233.19 C-156.44 232.74 -155.82 232.28 -155.18 231.82 C-152.65 229.97 -150.14 228.11 -147.68 226.18 C-146 225 -146 225 -144 225 C-144 224.34 -144 223.68 -144 223 C-142.17 221.66 -140.29 220.4 -138.38 219.19 C-133.34 215.94 -133.34 215.94 -128.62 212.25 C-121.33 206 -121.33 206 -118 206 C-118 205.34 -118 204.68 -118 204 C-116.21 202.83 -114.41 201.67 -112.57 200.57 C-108.46 198.06 -104.51 195.3 -100.54 192.57 C-98 191 -98 191 -96 191 C-96 190.34 -96 189.68 -96 189 C-94.6 187.87 -94.6 187.87 -92.63 186.64 C-91.91 186.19 -91.19 185.73 -90.45 185.26 C-89.68 184.78 -88.91 184.3 -88.12 183.81 C-82.53 180.3 -77.06 176.67 -71.66 172.85 C-66.84 169.49 -61.92 166.28 -57 163.06 C-55.96 162.38 -54.93 161.69 -53.86 160.99 C-52.88 160.35 -51.89 159.7 -50.88 159.04 C-49.99 158.45 -49.1 157.87 -48.18 157.27 C-46 156 -46 156 -44 156 C-44 155.34 -44 154.68 -44 154 C-41.78 152.54 -39.56 151.19 -37.25 149.88 C-31.42 146.47 -25.75 142.92 -20.17 139.12 C-17 137 -17 137 -14.33 135.71 C-8.44 132.68 -8.44 132.68 -4.98 127.3 C-4.6 123.95 -4.57 120.74 -4.66 117.36 C-4.64 115.47 -4.64 115.47 -4.62 113.55 C-4.6 110.11 -4.63 106.68 -4.68 103.24 C-4.72 99.64 -4.7 96.05 -4.69 92.45 C-4.67 85.65 -4.71 78.85 -4.76 72.04 C-4.82 64.29 -4.82 56.54 -4.82 48.8 C-4.81 32.86 -4.88 16.93 -5 1 C-2 0 -2 0 0 0 Z " fill="#8D6026" transform="translate(653,62)"/>
<path d="M0 0 C3.25 1.57 5.92 3.38 8.75 5.62 C9.95 6.57 9.95 6.57 11.17 7.54 C11.78 8.02 12.38 8.5 13 9 C13 8.34 13 7.68 13 7 C16.56 8 18.83 9.62 21.5 12.06 C25.41 15.61 29.59 18.57 33.95 21.53 C38.59 24.7 43.09 28.02 47.57 31.42 C50.22 33.43 52.9 35.4 55.59 37.36 C63.4 43.07 71.11 48.79 78.54 55 C81.96 57.78 85.53 60.33 89.11 62.9 C97.95 69.32 106.51 76.14 115 83 C114.67 83.66 114.34 84.32 114 85 C112.51 84.01 112.51 84.01 111 83 C111 83.66 111 84.32 111 85 C110.34 85 109.68 85 109 85 C108.5 86.49 108.5 86.49 108 88 C105 80.6 105 80.6 105 78 C103.46 76.59 103.46 76.59 101.41 75.16 C100.63 74.6 99.86 74.04 99.06 73.46 C98.21 72.85 97.37 72.25 96.5 71.62 C94.74 70.35 92.99 69.07 91.23 67.8 C90.35 67.16 89.46 66.52 88.55 65.86 C84.95 63.23 81.38 60.56 77.81 57.88 C77.16 57.39 76.51 56.9 75.84 56.4 C73.25 54.45 70.66 52.49 68.06 50.54 C57.74 42.77 47.36 35.08 36.94 27.44 C35.57 26.42 34.23 25.36 32.92 24.27 C32.29 23.85 31.65 23.43 31 23 C28.27 23.71 28.27 23.71 26 25 C25.67 24.01 25.34 23.02 25 22 C24.01 21.67 23.02 21.34 22 21 C22 21.66 22 22.32 22 23 C20.68 22.67 19.36 22.34 18 22 C17.5 19.52 17.5 19.52 17 17 C13.04 17.5 13.04 17.5 9 18 C8.67 22.95 8.34 27.9 8 33 C7.34 33 6.68 33 6 33 C5.77 105.27 5.77 105.27 6.21 177.54 C6.24 179.96 6.26 182.38 6.27 184.8 C6.29 188.05 6.34 191.29 6.39 194.54 C6.39 195.45 6.39 196.36 6.39 197.3 C6.55 203.94 8.56 206.63 13.31 211.25 C15.51 213.5 17.35 215.69 19.25 218.19 C23.22 223.38 27.55 228.22 32 233 C32.52 233.59 33.04 234.18 33.58 234.79 C35.07 236.32 35.07 236.32 38 236 C38 236.99 38 237.98 38 239 C39.32 239 40.64 239 42 239 C42 241.64 42 244.28 42 247 C37.32 243.09 32.88 239.02 28.59 234.68 C28.01 234.1 27.43 233.53 26.84 232.93 C25.01 231.1 23.19 229.27 21.38 227.44 C20.15 226.21 18.92 224.98 17.7 223.74 C15.44 221.48 13.19 219.22 10.94 216.95 C6.41 212.11 6.41 212.11 1.38 207.87 C-0.86 204.84 -0.4 201.44 -0.36 197.82 C-0.36 196.97 -0.37 196.13 -0.37 195.26 C-0.37 192.42 -0.36 189.59 -0.34 186.75 C-0.34 184.72 -0.34 182.69 -0.34 180.66 C-0.34 175.14 -0.33 169.62 -0.3 164.1 C-0.29 158.33 -0.28 152.57 -0.28 146.8 C-0.27 135.88 -0.25 124.96 -0.22 114.04 C-0.18 101.6 -0.17 89.17 -0.15 76.74 C-0.12 51.16 -0.07 25.58 0 0 Z " fill="#C9C9C9" transform="translate(55,255)"/>
<path d="M0 0 C7.01 2.55 13.11 6.65 19.25 10.81 C24.66 14.45 30.11 17.99 35.62 21.46 C37.8 22.87 39.91 24.34 42 25.88 C44.85 28.11 44.85 28.11 48 29 C48 29.66 48 30.32 48 31 C49.98 31.66 51.96 32.32 54 33 C54 33.66 54 34.32 54 35 C54.71 35.26 55.42 35.52 56.15 35.78 C59.2 37.09 61.79 38.68 64.56 40.5 C67.65 42.52 70.66 44.43 74 46 C74 46.66 74 47.32 74 48 C74.55 48.26 75.1 48.52 75.67 48.79 C78.33 50.17 80.8 51.75 83.31 53.38 C87.48 56.05 91.67 58.6 96 61 C96 61.66 96 62.32 96 63 C96.62 63.14 97.24 63.29 97.88 63.44 C100 64 100 64 102 65 C102 65.66 102 66.32 102 67 C102.7 67.24 103.39 67.49 104.11 67.74 C107.47 69.2 110.2 71.07 113.19 73.19 C114.04 73.79 114.04 73.79 114.92 74.4 C116.07 75.22 117.23 76.03 118.38 76.85 C120.62 78.44 122.87 80 125.12 81.56 C129.64 84.72 134.09 87.97 138.53 91.22 C140.4 92.57 142.32 93.86 144.25 95.12 C147.15 97.1 149.69 99.3 152.32 101.61 C154.41 103.34 156.62 104.7 159 106 C159.33 104.02 159.66 102.04 160 100 C160.33 100 160.66 100 161 100 C162.21 108.01 162.81 116.05 161 124 C156.48 122.51 153.14 119.97 149.5 117 C148.25 116 146.99 114.99 145.73 113.99 C145.11 113.48 144.48 112.98 143.83 112.46 C141.16 110.33 138.46 108.26 135.75 106.19 C130.59 102.23 125.45 98.25 120.31 94.25 C119.55 93.66 118.8 93.07 118.02 92.46 C114.89 90.03 111.77 87.6 108.65 85.17 C100.25 78.63 91.84 72.1 83.39 65.61 C79.33 62.49 75.29 59.34 71.25 56.19 C65.27 51.53 59.28 46.91 53.25 42.31 C47.59 38 41.97 33.64 36.38 29.24 C31.58 25.45 26.76 21.69 21.94 17.94 C21.18 17.35 20.42 16.76 19.64 16.15 C16.09 13.39 12.54 10.64 8.96 7.92 C8.35 7.46 7.74 6.99 7.12 6.51 C5.48 5.27 3.85 4.03 2.21 2.79 C1.48 2.2 0.75 1.61 0 1 C0 0.67 0 0.34 0 0 Z " fill="#C4C4C4" transform="translate(58,193)"/>
<path d="M0 0 C0.33 0 0.66 0 1 0 C1 3.3 1 6.6 1 10 C0.34 10.33 -0.32 10.66 -1 11 C-1.73 12.75 -1.73 12.75 -2.26 14.9 C-2.49 15.74 -2.72 16.57 -2.95 17.44 C-3.2 18.36 -3.44 19.28 -3.69 20.23 C-3.95 21.19 -4.2 22.14 -4.47 23.13 C-5.32 26.29 -6.16 29.46 -7 32.62 C-7.58 34.81 -8.17 37 -8.76 39.18 C-13.41 56.57 -17.91 74 -22.33 91.46 C-23.7 96.85 -25.11 102.23 -26.53 107.61 C-28.19 113.88 -29.81 120.16 -31.37 126.46 C-32.94 132.76 -34.53 139.06 -36.14 145.36 C-36.42 146.48 -36.7 147.59 -37 148.74 C-39.45 158.38 -41.91 168.02 -44.37 177.66 C-45.97 183.96 -47.57 190.26 -49.16 196.56 C-49.98 199.8 -50.8 203.05 -51.63 206.29 C-52 207.75 -52.36 209.2 -52.73 210.66 C-57.27 228.82 -57.27 228.82 -64.25 235.94 C-65.17 236.9 -66.09 237.87 -67.02 238.84 C-67.5 239.34 -67.97 239.84 -68.47 240.36 C-70.15 242.16 -71.77 244.01 -73.39 245.88 C-77.59 250.71 -81.99 255.35 -86.39 260 C-90.12 263.95 -93.74 267.96 -97.3 272.06 C-99.97 275.1 -102.73 278.05 -105.5 281 C-109.03 284.78 -112.53 288.56 -115.88 292.5 C-118.95 296.08 -122.35 299.02 -126 302 C-124.54 297.5 -122.01 294.32 -118.94 290.81 C-115.63 287.14 -115.63 287.14 -113 283 C-112.34 283 -111.68 283 -111 283 C-110.5 281.02 -110.5 281.02 -110 279 C-109.34 279 -108.68 279 -108 279 C-107.81 278.34 -107.63 277.68 -107.44 277 C-105.79 273.57 -103.74 271.31 -101.2 268.51 C-98.48 265.4 -95.92 262.19 -93.38 258.94 C-92.92 258.36 -92.47 257.78 -92 257.19 C-89.66 254.2 -87.43 251.19 -85.29 248.07 C-84.53 247.05 -83.78 246.04 -83 245 C-82.34 245 -81.68 245 -81 245 C-80.62 244.18 -80.62 244.18 -80.24 243.34 C-78.76 240.55 -77 238.11 -75.12 235.56 C-74.45 234.64 -73.77 233.71 -73.07 232.75 C-71 230 -71 230 -68.99 227.78 C-63.62 220.29 -61.61 210.69 -59.12 201.94 C-58.75 200.62 -58.37 199.3 -57.99 197.99 C-56.65 193.33 -55.33 188.66 -54 184 C-51.65 175.73 -49.29 167.46 -46.94 159.19 C-46.63 158.12 -46.33 157.04 -46.01 155.94 C-42.41 143.31 -38.76 130.71 -34.83 118.18 C-31.93 108.91 -29.28 99.58 -26.63 90.24 C-22.58 75.99 -18.45 61.78 -14.27 47.57 C-13.77 45.87 -13.28 44.17 -12.78 42.48 C-12.54 41.66 -12.3 40.84 -12.05 40 C-10.6 35.07 -9.17 30.14 -7.75 25.21 C-7.43 24.09 -7.11 22.96 -6.77 21.81 C-6.2 19.8 -5.62 17.8 -5.05 15.8 C-4.81 14.94 -4.56 14.08 -4.3 13.2 C-4.1 12.48 -3.89 11.75 -3.68 11.01 C-2.96 8.89 -2 7 -1 5 C-0.62 3.34 -0.28 1.68 0 0 Z " fill="#8E6225" transform="translate(622,323)"/>
<path d="M0 0 C1.32 0.33 2.64 0.66 4 1 C4 1.66 4 2.32 4 3 C4.79 3.34 4.79 3.34 5.59 3.69 C8.84 5.46 11.66 7.72 14.56 10 C17.66 12.42 20.73 14.82 24 17 C24 17.66 24 18.32 24 19 C24.52 19.23 25.03 19.45 25.56 19.69 C28.9 21.48 32.15 23.5 35 26 C35 26.66 35 27.32 35 28 C35.93 28.46 35.93 28.46 36.88 28.94 C38.25 29.62 39.62 30.31 41 31 C41 31.66 41 32.32 41 33 C41.57 33.26 42.14 33.53 42.73 33.8 C50.98 38.17 57.79 45.53 64.51 51.91 C68.66 55.83 72.91 59.44 77.56 62.77 C78.03 63.17 78.51 63.58 79 64 C79 64.66 79 65.32 79 66 C79.55 66.22 80.1 66.44 80.66 66.66 C83.75 68.43 86 70.83 88.44 73.38 C91.07 76.1 93.67 78.74 96.63 81.11 C98.88 82.91 100.61 84.72 102.44 86.94 C104.55 89.41 106.48 91.4 109 93.5 C113.82 97.51 117.65 102.36 121.62 107.19 C123.93 109.99 123.93 109.99 126.38 112.38 C132.72 118.72 138.77 125.7 144 133 C144 133.66 144 134.32 144 135 C144.66 135 145.32 135 146 135 C146 138.96 146 142.92 146 147 C141.05 143 136.84 138.72 132.63 133.95 C129.58 130.52 126.45 127.17 123.31 123.81 C122.72 123.18 122.13 122.55 121.52 121.89 C120.3 120.59 119.07 119.29 117.85 117.98 C116 116 114.15 114.01 112.3 112.02 C105.2 104.36 97.98 96.86 90.5 89.56 C88.25 87.25 86.11 84.89 83.97 82.47 C79.14 77.1 74.11 71.96 69 66.86 C67.61 65.48 67.61 65.48 66.2 64.06 C64.26 62.13 62.33 60.19 60.39 58.26 C57.93 55.8 55.47 53.34 53.01 50.88 C50.63 48.49 48.25 46.12 45.87 43.74 C45 42.87 44.13 41.99 43.23 41.09 C38.86 36.74 34.44 32.53 29.74 28.53 C27.91 26.92 26.2 25.24 24.5 23.5 C21.59 20.54 18.54 17.82 15.4 15.11 C12.23 12.32 9.11 9.48 6 6.62 C5.41 6.09 4.82 5.55 4.22 5 C2.79 3.69 1.39 2.35 0 1 C0 0.67 0 0.34 0 0 Z " fill="#C5C5C5" transform="translate(192,233)"/>
<path d="M0 0 C0.33 0 0.66 0 1 0 C1.01 0.73 1.03 1.45 1.04 2.2 C1.4 19.96 1.76 37.71 2.12 55.47 C2.3 64.06 2.47 72.65 2.64 81.24 C2.79 88.74 2.94 96.23 3.1 103.73 C3.18 107.69 3.26 111.65 3.34 115.61 C3.71 134.37 4.22 153.12 5.14 171.86 C5.21 173.27 5.21 173.27 5.28 174.71 C5.32 175.55 5.36 176.4 5.41 177.27 C5.56 180.63 5.65 183.99 5.73 187.35 C5.79 189.06 5.86 190.77 5.96 192.47 C6.73 206.38 6.73 206.38 3.85 210.74 C0.7 214.18 -3.03 216.56 -7 219 C-8.56 220.19 -10.1 221.39 -11.62 222.62 C-12.35 223.18 -13.07 223.74 -13.81 224.31 C-21.22 230.03 -28.39 235.99 -35.44 242.14 C-39.89 246 -39.89 246 -41 246 C-41 241.71 -41 237.42 -41 233 C-40.67 233 -40.34 233 -40 233 C-39.67 235.97 -39.34 238.94 -39 242 C-34.76 237.79 -30.53 233.57 -26.29 229.35 C-24.85 227.91 -23.41 226.48 -21.97 225.04 C-19.9 222.98 -17.83 220.92 -15.76 218.86 C-15.11 218.21 -14.47 217.57 -13.8 216.91 C-13.2 216.31 -12.6 215.71 -11.98 215.09 C-11.45 214.57 -10.92 214.04 -10.38 213.5 C-8.78 211.84 -8.78 211.84 -7 209 C-6.34 209 -5.68 209 -5 209 C-5 208.34 -5 207.68 -5 207 C-4.34 206.67 -3.68 206.34 -3 206 C-3 204.99 -3.01 203.99 -3.01 202.95 C-3.08 178.44 -3.12 153.92 -3.16 129.41 C-3.17 117.56 -3.19 105.7 -3.23 93.85 C-3.26 83.51 -3.28 73.18 -3.28 62.85 C-3.29 57.38 -3.3 51.91 -3.32 46.44 C-3.34 41.28 -3.34 36.13 -3.34 30.98 C-3.34 29.09 -3.35 27.2 -3.36 25.32 C-3.37 22.73 -3.37 20.15 -3.36 17.56 C-3.37 16.82 -3.38 16.08 -3.39 15.32 C-3.34 9.79 -1.99 5.15 0 0 Z " fill="#98651F" transform="translate(650,255)"/>
<path d="M0 0 C2.37 2.37 2.68 3.86 3.55 7.07 C3.83 8.1 4.12 9.13 4.41 10.2 C4.71 11.31 5.01 12.42 5.31 13.56 C5.94 15.86 6.57 18.16 7.2 20.46 C7.51 21.59 7.82 22.72 8.13 23.87 C9.22 27.81 10.38 31.72 11.56 35.62 C13.84 43.21 15.83 50.87 17.77 58.55 C19.29 64.5 21.02 70.37 22.85 76.24 C25.01 83.31 27.01 90.44 29.03 97.56 C30.36 102.24 31.7 106.92 33.03 111.61 C33.29 112.52 33.55 113.43 33.82 114.37 C37.11 125.9 40.48 137.4 43.85 148.9 C47.26 160.53 50.64 172.16 53.94 183.81 C54.24 184.89 54.55 185.96 54.87 187.07 C55.15 188.06 55.43 189.06 55.71 190.08 C56.09 191.4 56.09 191.4 56.47 192.75 C57 195 57 195 57 198 C57.66 198 58.32 198 59 198 C59.33 199.32 59.66 200.64 60 202 C60.66 202 61.32 202 62 202 C63.62 203.95 65.13 205.9 66.62 207.94 C69.67 212.01 72.74 215.94 76.19 219.69 C79.61 223.44 82.47 227.4 85.26 231.64 C87.28 234.38 89.58 236.62 92 239 C93.61 240.83 95.19 242.69 96.75 244.56 C97.92 245.96 97.92 245.96 99.11 247.38 C100.81 249.74 101.6 251.16 102 254 C102.66 254 103.32 254 104 254 C105.56 255.73 105.56 255.73 107.44 258.19 C109.88 261.34 112.36 264.44 114.97 267.45 C115.47 268.03 115.98 268.61 116.49 269.21 C117.49 270.35 118.49 271.49 119.49 272.62 C123 276.67 123 276.67 123 280 C120.64 277.5 118.29 275 115.94 272.5 C114.95 271.46 114.95 271.46 113.95 270.39 C110.07 266.26 106.27 262.07 102.58 257.77 C101 256 99.34 254.34 97.62 252.69 C94.72 249.84 92.17 246.8 89.62 243.62 C86.03 239.15 82.21 235.11 78.11 231.1 C75.58 228.59 73.27 225.93 70.95 223.23 C67.66 219.46 64.24 215.8 60.84 212.12 C60.39 211.62 59.94 211.12 59.47 210.6 C58.45 209.49 57.4 208.41 56.32 207.36 C50.95 201.86 49.2 196.57 47.46 189.18 C47.17 188.03 46.88 186.88 46.58 185.7 C45.63 181.95 44.72 178.19 43.81 174.44 C43.17 171.83 42.51 169.22 41.86 166.62 C40.53 161.32 39.21 156.01 37.91 150.71 C35.38 140.46 32.76 130.24 30.13 120.02 C29.4 117.16 28.67 114.3 27.94 111.44 C25.6 102.22 23.22 93 20.79 83.8 C18.47 75.01 16.21 66.21 13.95 57.41 C11.68 48.59 9.35 39.79 7 31 C5.74 26.27 4.49 21.54 3.25 16.81 C2.93 15.63 2.62 14.44 2.29 13.22 C2 12.08 1.7 10.94 1.39 9.77 C1.12 8.75 0.86 7.74 0.58 6.69 C0 4 0 4 0 0 Z " fill="#C4C4C4" transform="translate(90,350)"/>
<path d="M0 0 C3.54 -0.45 4.9 -0.06 7.97 1.86 C8.99 2.67 10.01 3.48 11.06 4.31 C12.08 5.11 13.11 5.91 14.16 6.74 C15.1 7.48 16.03 8.23 17 9 C17.76 9.53 18.52 10.06 19.31 10.61 C21 12 21 12 22 15 C22.09 16.6 22.12 18.21 22.12 19.82 C22.13 20.82 22.13 21.82 22.13 22.85 C22.12 24.5 22.12 24.5 22.12 26.18 C22.12 27.35 22.12 28.51 22.12 29.71 C22.12 32.96 22.12 36.2 22.12 39.44 C22.11 42.94 22.11 46.43 22.11 49.93 C22.11 55.98 22.11 62.04 22.11 68.1 C22.1 76.86 22.09 85.61 22.09 94.37 C22.09 108.58 22.08 122.78 22.08 136.99 C22.07 150.79 22.06 164.6 22.05 178.4 C22.05 179.68 22.05 179.68 22.05 180.98 C22.05 185.24 22.05 189.51 22.05 193.78 C22.04 229.18 22.02 264.59 22 300 C21.34 300.33 20.68 300.66 20 301 C19.01 300.34 18.02 299.68 17 299 C17 298.34 17 297.68 17 297 C17.99 297 18.98 297 20 297 C19.93 296.41 19.86 295.82 19.79 295.22 C19.05 288.6 18.86 282.09 18.88 275.43 C18.88 274.31 18.88 273.19 18.88 272.03 C18.88 268.29 18.88 264.55 18.89 260.8 C18.89 258.11 18.89 255.42 18.89 252.73 C18.89 246.95 18.89 241.17 18.89 235.38 C18.9 227.02 18.91 218.66 18.91 210.3 C18.91 196.74 18.92 183.17 18.92 169.61 C18.93 156.43 18.94 143.26 18.95 130.09 C18.95 128.87 18.95 128.87 18.95 127.63 C18.95 123.55 18.95 119.47 18.95 115.39 C18.96 81.59 18.98 47.8 19 14 C18.34 14 17.68 14 17 14 C17 13.01 17 12.02 17 11 C14.36 10.34 11.72 9.68 9 9 C8.67 93.48 8.34 177.96 8 265 C7.34 264.67 6.68 264.34 6 264 C6 263.18 6 263.18 6.01 262.35 C6.14 230.12 6.24 197.89 6.31 165.65 C6.31 161.78 6.32 157.91 6.33 154.05 C6.33 153.27 6.33 152.5 6.33 151.71 C6.36 139.23 6.41 126.76 6.46 114.28 C6.52 101.48 6.55 88.68 6.56 75.88 C6.57 67.98 6.6 60.08 6.65 52.18 C6.68 46.13 6.69 40.07 6.68 34.02 C6.68 31.53 6.69 29.04 6.72 26.56 C6.74 23.17 6.74 19.78 6.72 16.4 C6.74 15.41 6.76 14.42 6.77 13.4 C6.81 8.49 6.81 8.49 4.62 4.29 C2.8 2.73 2.8 2.73 0 1 C0 0.67 0 0.34 0 0 Z " fill="#1C1C1C" transform="translate(210,369)"/>
<path d="M0 0 C0.99 0.5 0.99 0.5 2 1 C-0.45 3.34 -2.91 5.67 -5.38 8 C-6.42 9 -6.42 9 -7.49 10.02 C-8.5 10.97 -8.5 10.97 -9.52 11.94 C-10.14 12.52 -10.76 13.11 -11.4 13.71 C-13 15 -13 15 -15 15 C-15.21 15.55 -15.42 16.09 -15.63 16.65 C-17.52 19.89 -20.17 22.09 -22.94 24.56 C-30.85 31.78 -38.43 39.31 -46 46.88 C-46.59 47.46 -47.18 48.05 -47.79 48.65 C-53.59 54.43 -59.33 60.2 -64.65 66.43 C-66.34 68.39 -68.14 70.2 -70 72 C-73.15 75.11 -76.08 78.32 -78.96 81.68 C-81.55 84.62 -84.21 87.5 -86.88 90.38 C-93.75 97.8 -100.54 105.3 -107.19 112.94 C-109.27 115.31 -111.38 117.66 -113.5 120 C-118.36 125.4 -123.18 130.82 -127.84 136.39 C-128.34 136.98 -128.84 137.58 -129.36 138.19 C-130.36 139.39 -131.36 140.58 -132.36 141.78 C-133.55 143.21 -134.77 144.61 -136 146 C-136.33 146 -136.66 146 -137 146 C-138.2 141.05 -138.47 136.46 -135.77 131.94 C-132.4 127.37 -128.6 123.17 -124.78 118.97 C-122.38 116.32 -120.17 113.55 -117.94 110.75 C-114.45 106.42 -110.84 102.44 -106.45 99.01 C-103.81 96.84 -101.91 94.57 -99.81 91.88 C-95.27 86.21 -90.49 80.78 -85 76 C-84.34 76 -83.68 76 -83 76 C-83 75.34 -83 74.68 -83 74 C-82.34 74 -81.68 74 -81 74 C-80.75 73.42 -80.5 72.85 -80.25 72.25 C-78.82 69.67 -77.22 67.94 -75 66 C-74.34 66 -73.68 66 -73 66 C-73 65.34 -73 64.68 -73 64 C-71.36 62.38 -71.36 62.38 -69.19 60.56 C-66.18 58.03 -66.18 58.03 -63.36 55.28 C-62 54 -62 54 -60 54 C-59.77 53.43 -59.53 52.86 -59.29 52.27 C-57.7 49.47 -55.8 47.8 -53.38 45.69 C-52.48 44.9 -51.58 44.11 -50.65 43.3 C-49.77 42.54 -48.9 41.78 -48 41 C-47.31 40.39 -46.62 39.77 -45.91 39.14 C-41.5 35.21 -36.91 31.53 -32.27 27.87 C-30.39 26.32 -28.68 24.76 -27 23 C-26.34 22.34 -25.68 21.68 -25 21 C-24.34 21 -23.68 21 -23 21 C-23 20.34 -23 19.68 -23 19 C-20.92 17.09 -20.92 17.09 -18.19 14.94 C-17.29 14.22 -16.4 13.51 -15.48 12.78 C-13 11 -13 11 -10 10 C-10 9.34 -10 8.68 -10 8 C-8.07 6.31 -8.07 6.31 -5.56 4.44 C-2.67 2.35 -2.67 2.35 0 0 Z " fill="#8F6327" transform="translate(511,234)"/>
<path d="M0 0 C2.44 0.38 2.44 0.38 5 1 C6.27 3.54 6.11 5.26 6.08 8.1 C6.08 9.18 6.07 10.26 6.06 11.37 C6.05 12.56 6.04 13.75 6.02 14.98 C6.01 16.23 6 17.47 5.99 18.76 C5.97 22.19 5.93 25.62 5.9 29.05 C5.87 32.63 5.84 36.21 5.81 39.8 C5.75 46.58 5.69 53.37 5.63 60.15 C5.55 67.88 5.49 75.6 5.42 83.33 C5.29 99.22 5.15 115.11 5 131 C2.54 129.83 2.54 129.83 0 128 C-0.62 125.63 -0.62 125.63 -0.6 122.78 C-0.61 121.7 -0.62 120.62 -0.62 119.5 C-0.6 118.32 -0.59 117.13 -0.57 115.91 C-0.57 114.66 -0.57 113.41 -0.57 112.12 C-0.57 108.7 -0.54 105.27 -0.51 101.85 C-0.48 98.27 -0.47 94.69 -0.47 91.11 C-0.45 84.33 -0.41 77.55 -0.36 70.77 C-0.3 63.06 -0.28 55.34 -0.25 47.62 C-0.2 31.75 -0.11 15.87 0 0 Z " fill="#BDBDBD" transform="translate(52,62)"/>
<path d="M0 0 C0.63 0.42 1.25 0.84 1.9 1.28 C3.12 2.1 3.12 2.1 4.38 2.94 C5.19 3.48 6 4.03 6.84 4.59 C9.62 6.41 10.61 7 14 7 C16.02 8.43 16.02 8.43 18.38 10.44 C22.78 14.08 27.33 17.36 32.05 20.58 C36.66 23.74 41.12 27.05 45.57 30.42 C48.22 32.43 50.9 34.4 53.59 36.36 C61.4 42.07 69.11 47.79 76.54 54 C79.96 56.78 83.53 59.33 87.11 61.9 C95.95 68.32 104.51 75.14 113 82 C112.67 82.66 112.34 83.32 112 84 C110.51 83.01 110.51 83.01 109 82 C109 82.66 109 83.32 109 84 C108.34 84 107.68 84 107 84 C106.5 85.49 106.5 85.49 106 87 C103 79.6 103 79.6 103 77 C101.46 75.59 101.46 75.59 99.41 74.16 C98.63 73.6 97.86 73.04 97.06 72.46 C96.21 71.85 95.37 71.25 94.5 70.62 C92.74 69.35 90.99 68.07 89.23 66.8 C88.35 66.16 87.46 65.52 86.55 64.86 C82.95 62.23 79.38 59.56 75.81 56.88 C75.16 56.39 74.51 55.9 73.84 55.4 C71.25 53.45 68.66 51.49 66.06 49.54 C55.74 41.77 45.36 34.08 34.94 26.44 C33.57 25.42 32.23 24.36 30.92 23.27 C29.97 22.64 29.97 22.64 29 22 C26.27 22.71 26.27 22.71 24 24 C23.67 23.01 23.34 22.02 23 21 C22.01 20.67 21.02 20.34 20 20 C20 20.66 20 21.32 20 22 C18.68 21.67 17.36 21.34 16 21 C15.67 19.35 15.34 17.7 15 16 C11.04 16.5 11.04 16.5 7 17 C6.67 21.95 6.34 26.9 6 32 C5.34 32 4.68 32 4 32 C3.67 39.92 3.34 47.84 3 56 C2.67 56 2.34 56 2 56 C1.98 55.17 1.98 55.17 1.97 54.32 C1.86 48.51 1.75 42.7 1.63 36.9 C1.58 34.73 1.54 32.57 1.5 30.41 C1.44 27.28 1.38 24.16 1.32 21.04 C1.3 20.08 1.28 19.13 1.27 18.15 C1.13 12.06 0.7 6.05 0 0 Z " fill="#F9F9F9" transform="translate(57,256)"/>
<path d="M0 0 C1.32 0 2.64 0 4 0 C3.67 83.49 3.34 166.98 3 253 C3.99 253.33 4.98 253.66 6 254 C5.19 255.94 5.19 255.94 4 258 C3.01 258.33 2.02 258.66 1 259 C0.67 173.53 0.34 88.06 0 0 Z " fill="#CD9E55" transform="translate(487,374)"/>
<path d="M0 0 C0.33 0.66 0.66 1.32 1 2 C0.31 4.06 0.31 4.06 -1 6 C-1.58 6.14 -2.17 6.27 -2.77 6.41 C-5.66 7.17 -7.57 8.58 -10 10.31 C-10.85 10.91 -11.69 11.5 -12.56 12.11 C-14.91 13.93 -16.91 15.89 -19 18 C-21.34 19.56 -23.69 21.11 -26.06 22.62 C-26.75 23.07 -27.45 23.52 -28.16 23.98 C-30 25 -30 25 -32 25 C-32.33 25.99 -32.66 26.98 -33 28 C-34.31 28.71 -35.65 29.36 -37 30 C-40.65 32.4 -43.94 34.88 -47 38 C-50.24 40.83 -53.18 43.09 -57 45 C-58.38 45.95 -59.73 46.93 -61.06 47.94 C-61.73 48.44 -62.41 48.95 -63.1 49.46 C-65.01 50.95 -65.01 50.95 -66.6 52.6 C-68.5 54.49 -70.7 55.63 -73 57 C-75.7 59.02 -78.02 61.02 -80.31 63.5 C-83.12 66.11 -85.64 67.43 -89.07 69.03 C-92.55 70.78 -95.27 73.27 -98 76 C-98.76 76.45 -99.53 76.91 -100.31 77.38 C-103.09 78.97 -103.09 78.97 -105.69 81.19 C-108 83 -108 83 -110 83 C-110 83.66 -110 84.32 -110 85 C-111.68 86.29 -111.68 86.29 -113.88 87.62 C-114.59 88.07 -115.31 88.52 -116.05 88.98 C-118 90 -118 90 -120 90 C-120.24 90.6 -120.48 91.19 -120.73 91.81 C-122.25 94.44 -123.75 95.45 -126.31 97.06 C-127.12 97.58 -127.92 98.09 -128.75 98.62 C-130.42 99.65 -132.11 100.64 -133.81 101.62 C-136.07 102.93 -136.07 102.93 -137.88 104.88 C-140.63 107.63 -143.65 109.99 -147 112 C-147.66 112 -148.32 112 -149 112 C-149.66 113.32 -150.32 114.64 -151 116 C-151.66 116 -152.32 116 -153 116 C-153 116.66 -153 117.32 -153 118 C-155.64 118.33 -158.28 118.66 -161 119 C-151.27 111.18 -141.29 103.7 -131.22 96.31 C-126.13 92.57 -121.05 88.8 -116 85 C-110.13 80.58 -104.23 76.22 -98.31 71.88 C-93 67.97 -87.71 64.04 -82.5 60 C-76.49 55.34 -70.37 50.83 -64.23 46.32 C-57.04 41.04 -49.89 35.69 -42.76 30.33 C-40.18 28.38 -37.59 26.44 -35 24.5 C-34.06 23.79 -33.11 23.08 -32.14 22.35 C-29.77 20.57 -27.39 18.8 -25.02 17.02 C-23.62 15.97 -22.21 14.92 -20.81 13.88 C-20.13 13.36 -19.44 12.85 -18.74 12.32 C-14.35 9.04 -10.03 5.69 -5.8 2.21 C-3.87 0.91 -2.27 0.42 0 0 Z " fill="#FBC462" transform="translate(649,255)"/>
<path d="M0 0 C0.33 0 0.66 0 1 0 C1.01 0.73 1.03 1.45 1.04 2.2 C1.4 19.96 1.76 37.71 2.12 55.47 C2.3 64.06 2.47 72.65 2.64 81.24 C2.79 88.74 2.94 96.23 3.1 103.73 C3.18 107.69 3.26 111.65 3.34 115.61 C3.71 134.37 4.22 153.12 5.14 171.86 C5.19 172.8 5.23 173.74 5.28 174.71 C5.32 175.55 5.36 176.4 5.41 177.27 C5.56 180.63 5.65 183.99 5.73 187.35 C5.79 189.06 5.86 190.77 5.96 192.47 C6.73 206.38 6.73 206.38 3.86 210.73 C0.7 214.18 -3.03 216.56 -7 219 C-8.66 220.27 -10.31 221.56 -11.94 222.88 C-12.65 223.42 -13.36 223.97 -14.09 224.53 C-16.42 226.32 -18.71 228.15 -21 230 C-21.66 229.67 -22.32 229.34 -23 229 C-21.71 227.62 -20.37 226.29 -19 225 C-18.34 225 -17.68 225 -17 225 C-16.77 224.38 -16.55 223.76 -16.31 223.12 C-14.62 220.39 -13.01 219.95 -10 219 C-10 218.34 -10 217.68 -10 217 C-9.34 217 -8.68 217 -8 217 C-7.67 216.01 -7.34 215.02 -7 214 C-4 212 -4 212 -1 212 C-1 210.68 -1 209.36 -1 208 C-0.01 208 0.98 208 2 208 C2.17 183.18 2.05 158.38 1.34 133.56 C1.29 131.82 1.29 131.82 1.24 130.04 C1.01 121.69 0.75 113.35 0.5 105 C-0.34 77.37 -1.14 49.77 -1.16 22.12 C-1.16 21.1 -1.16 20.08 -1.16 19.03 C-1.16 16.19 -1.16 13.35 -1.15 10.51 C-1.15 9.67 -1.15 8.83 -1.15 7.96 C-1.12 2.23 -1.12 2.23 0 0 Z " fill="#7F5F36" transform="translate(650,255)"/>
<path d="M0 0 C3.2 -0.32 4.69 -0.2 7.46 1.53 C8.23 2.18 9.01 2.83 9.81 3.5 C10.6 4.15 11.39 4.8 12.21 5.47 C12.8 5.97 13.39 6.48 14 7 C13.01 7.5 13.01 7.5 12 8 C11.01 7.34 10.02 6.68 9 6 C8.67 91.47 8.34 176.94 8 265 C7.34 264.67 6.68 264.34 6 264 C6 263.18 6 263.18 6.01 262.35 C6.14 230.12 6.24 197.89 6.31 165.65 C6.31 161.78 6.32 157.91 6.33 154.05 C6.33 153.27 6.33 152.5 6.33 151.71 C6.36 139.23 6.41 126.76 6.46 114.28 C6.52 101.48 6.55 88.68 6.56 75.88 C6.57 67.98 6.6 60.08 6.65 52.18 C6.68 46.13 6.69 40.07 6.68 34.02 C6.68 31.53 6.69 29.04 6.72 26.56 C6.74 23.17 6.74 19.78 6.72 16.4 C6.74 15.41 6.76 14.42 6.77 13.4 C6.81 8.49 6.81 8.49 4.62 4.29 C2.8 2.73 2.8 2.73 0 1 C0 0.67 0 0.34 0 0 Z " fill="#868686" transform="translate(210,369)"/>
<path d="M0 0 C5.3 0.41 8.54 3.34 12.56 6.5 C14 7.6 15.43 8.7 16.87 9.8 C17.57 10.35 18.27 10.89 19 11.46 C21.71 13.54 24.44 15.58 27.19 17.62 C34.06 22.78 40.85 28.02 47.65 33.27 C49.28 34.54 50.92 35.8 52.56 37.06 C53.1 37.47 53.63 37.89 54.18 38.31 C57.91 41.18 61.67 44 65.44 46.81 C69.4 49.77 73.26 52.78 77 56 C76.5 56.99 76.5 56.99 76 58 C74.51 57.01 74.51 57.01 73 56 C73 56.66 73 57.32 73 58 C72.34 58 71.68 58 71 58 C70.67 58.99 70.34 59.98 70 61 C67 53.6 67 53.6 67 51 C65.46 49.59 65.46 49.59 63.41 48.16 C62.63 47.6 61.86 47.04 61.06 46.46 C60.21 45.85 59.37 45.25 58.5 44.62 C56.74 43.35 54.99 42.07 53.23 40.8 C52.35 40.16 51.46 39.52 50.55 38.86 C46.95 36.23 43.38 33.56 39.81 30.88 C39.17 30.39 38.52 29.9 37.85 29.4 C36.55 28.42 35.25 27.45 33.95 26.47 C31.3 24.48 28.65 22.49 26 20.5 C24.68 19.51 23.36 18.52 22.03 17.52 C18.51 14.88 14.98 12.24 11.44 9.61 C10.69 9.06 9.95 8.51 9.19 7.94 C7.75 6.87 6.31 5.81 4.88 4.74 C3.23 3.52 1.61 2.26 0 1 C0 0.67 0 0.34 0 0 Z " fill="#F0F0F0" transform="translate(93,282)"/>
<path d="M0 0 C0.5 0.99 0.5 0.99 1 2 C0.38 2.6 -0.24 3.2 -0.88 3.81 C-3.14 6.01 -3.14 6.01 -5 9 C-5 8.34 -5 7.68 -5 7 C-6.44 7.93 -7.88 8.87 -9.31 9.81 C-10.11 10.33 -10.91 10.86 -11.74 11.39 C-13.73 12.81 -15.3 14.26 -17 16 C-17.99 16.66 -18.98 17.32 -20 18 C-18.35 18.66 -16.7 19.32 -15 20 C-18.22 21.07 -20.63 21 -24 21 C-26.27 21.44 -26.27 21.44 -28 22 C-28 23.32 -28 24.64 -28 26 C-31.13 27.86 -33.37 28.2 -37 28 C-37 28.66 -37 29.32 -37 30 C-38.29 30.7 -39.58 31.38 -40.88 32.06 C-41.95 32.64 -41.95 32.64 -43.05 33.22 C-44.02 33.61 -44.02 33.61 -45 34 C-45.66 33.67 -46.32 33.34 -47 33 C-45.97 32.27 -44.94 31.55 -43.88 30.8 C-43.2 30.32 -42.52 29.84 -41.82 29.34 C-40.3 28.27 -38.77 27.19 -37.25 26.12 C-33.34 23.36 -29.44 20.61 -25.54 17.85 C-17.06 11.85 -8.56 5.89 0 0 Z " fill="#E0AC57" transform="translate(563,123)"/>
<path d="M0 0 C0.66 0.33 1.32 0.66 2 1 C1.67 1.99 1.34 2.98 1 4 C0.34 4 -0.32 4 -1 4 C-1 4.66 -1 5.32 -1 6 C-3.31 6.99 -5.62 7.98 -8 9 C-8 9.66 -8 10.32 -8 11 C-14.62 14 -14.62 14 -18 14 C-18.33 14.99 -18.66 15.98 -19 17 C-19.99 17 -20.98 17 -22 17 C-22.27 17.6 -22.54 18.2 -22.81 18.81 C-23.98 20.97 -25.19 22.36 -27 24 C-27.99 23.67 -28.98 23.34 -30 23 C-30 23.99 -30 24.98 -30 26 C-31.98 26 -33.96 26 -36 26 C-32.63 22.33 -28.86 19.7 -24.75 16.94 C-23.33 15.97 -21.91 15.01 -20.48 14.04 C-19.75 13.54 -19.02 13.05 -18.26 12.54 C-14.5 9.98 -10.75 7.39 -7 4.81 C-5.65 3.88 -4.29 2.95 -2.94 2.02 C-1.97 1.35 -1 0.69 0 0 Z " fill="#E2AD59" transform="translate(510,160)"/>
<path d="M0 0 C0.33 0 0.66 0 1 0 C1.36 13.6 0.23 26.97 -1 40.5 C-1.19 42.69 -1.39 44.88 -1.58 47.07 C-2.04 52.38 -2.52 57.69 -3 63 C-3.33 63 -3.66 63 -4 63 C-4.3 47.67 -4 32.25 -1.31 17.11 C-0.97 13.72 -1.5 12.9 -3 10 C-2.54 7.42 -2.54 7.42 -1.62 4.75 C-1.33 3.86 -1.03 2.97 -0.73 2.05 C-0.49 1.37 -0.25 0.7 0 0 Z " fill="#4B2C0A" transform="translate(621,331)"/>
<path d="M0 0 C5.3 0.41 8.54 3.34 12.56 6.5 C13.98 7.59 15.41 8.69 16.83 9.78 C17.53 10.32 18.23 10.86 18.96 11.43 C21.88 13.68 24.85 15.87 27.81 18.06 C30.74 20.23 33.5 22.34 36 25 C35.67 25.66 35.34 26.32 35 27 C31.98 24.82 28.97 22.62 25.96 20.43 C24.54 19.39 23.12 18.36 21.69 17.33 C19.17 15.49 16.65 13.65 14.12 11.81 C13.3 11.22 12.48 10.62 11.64 10.01 C7.42 6.92 3.57 3.83 0 0 Z " fill="#A4A4A4" transform="translate(93,282)"/>
<path d="M0 0 C3.56 1 5.83 2.62 8.5 5.06 C12.6 8.8 17.01 11.89 21.61 14.98 C23.92 16.54 26.02 18.02 28 20 C24.4 20.41 23.22 20.15 20.19 18 C19.47 17.34 18.74 16.68 18 16 C16.35 16.66 14.7 17.32 13 18 C12.67 17.01 12.34 16.02 12 15 C10 13.79 10 13.79 8 13 C8.33 12.34 8.66 11.68 9 11 C9.66 11.33 10.32 11.66 11 12 C10.28 11.28 9.56 10.56 8.81 9.81 C7.88 8.88 6.96 7.96 6 7 C5.09 6.11 4.19 5.23 3.25 4.31 C1 2 1 2 0 0 Z " fill="#F3F3F3" transform="translate(68,262)"/>
<path d="M0 0 C5.37 0.39 8.68 3.48 12.75 6.69 C14.17 7.78 15.6 8.88 17.02 9.97 C17.71 10.5 18.39 11.02 19.09 11.56 C22.1 13.83 25.22 15.89 28.4 17.91 C30 19 30 19 32 21 C29.7 21.82 28.42 22.13 26.06 21.38 C23.35 19.57 21.31 17.31 19 15 C14.04 10.21 14.04 10.21 8 8 C6.29 6.38 4.63 4.71 3 3 C2.4 2.4 1.8 1.8 1.19 1.19 C0.8 0.8 0.4 0.4 0 0 Z " fill="#DEDEDE" transform="translate(181,348)"/>
<path d="M0 0 C0.66 0.33 1.32 0.66 2 1 C2 1.66 2 2.32 2 3 C3.32 3.66 4.64 4.32 6 5 C5.67 5.66 5.34 6.32 5 7 C5.51 7.69 6.01 8.37 6.53 9.08 C7.18 9.98 7.83 10.88 8.5 11.81 C9.15 12.71 9.8 13.6 10.47 14.52 C12 17 12 17 12 20 C9.62 19.31 9.62 19.31 7 18 C6.31 16.34 5.64 14.68 5 13 C2.96 12.11 2.96 12.11 1 12 C1.33 10.68 1.66 9.36 2 8 C1.34 8 0.68 8 0 8 C0 8.99 0 9.98 0 11 C-0.66 10.67 -1.32 10.34 -2 10 C-2 9.01 -2 8.02 -2 7 C-0.68 6.34 0.64 5.68 2 5 C1.01 4.34 0.02 3.68 -1 3 C-0.67 2.01 -0.34 1.02 0 0 Z " fill="#F2F2F2" transform="translate(186,227)"/>
<path d="M0 0 C0.69 1.69 0.69 1.69 1 4 C-0.31 6.75 -0.31 6.75 -2 9 C-2.66 9 -3.32 9 -4 9 C-4.43 10.42 -4.43 10.42 -4.88 11.88 C-6 15 -6 15 -8 17 C-8.47 18.18 -8.95 19.35 -9.44 20.56 C-10.21 22.26 -10.21 22.26 -11 24 C-11.99 24.33 -12.98 24.66 -14 25 C-12.21 19.98 -9.59 15.45 -7 10.81 C-6.55 9.99 -6.1 9.17 -5.63 8.33 C-4.98 7.16 -4.98 7.16 -4.31 5.96 C-3.72 4.89 -3.72 4.89 -3.11 3.8 C-2 2 -2 2 0 0 Z " fill="#DEAC5C" transform="translate(511,240)"/>
<path d="M0 0 C4 0.62 6.8 2.6 10 5 C10 5.66 10 6.32 10 7 C10.59 7.26 11.19 7.51 11.8 7.77 C14.21 9.12 15.51 10.49 17.25 12.62 C17.77 13.26 18.29 13.89 18.83 14.54 C19.41 15.26 19.41 15.26 20 16 C15.98 16 13.9 14.07 10.81 11.75 C9.97 11.16 9.97 11.16 9.12 10.55 C7.52 9.36 7.52 9.36 5 7 C5 5.68 5 4.36 5 3 C4.36 2.88 3.72 2.75 3.06 2.62 C2.38 2.42 1.7 2.21 1 2 C0.67 1.34 0.34 0.68 0 0 Z " fill="#2F2F2F" transform="translate(50,248)"/>
<path d="M0 0 C0.99 0.33 1.98 0.66 3 1 C2.67 1.99 2.34 2.98 2 4 C2.99 4.33 3.98 4.66 5 5 C2.36 5 -0.28 5 -3 5 C-3.33 5.66 -3.66 6.32 -4 7 C-4.99 7.33 -5.98 7.66 -7 8 C-9.13 9.87 -10.4 11.6 -12 14 C-13.65 13.67 -15.3 13.34 -17 13 C-13.96 9.73 -10.74 7.42 -7 5 C-5.77 4.06 -4.54 3.13 -3.31 2.19 C-2.22 1.47 -1.13 0.74 0 0 Z " fill="#E0A853" transform="translate(472,186)"/>
<path d="M0 0 C0.66 0.33 1.32 0.66 2 1 C1.31 2.88 1.31 2.88 0 5 C-1.64 5.72 -3.31 6.39 -5 7 C-5.33 7.66 -5.66 8.32 -6 9 C-7.73 9.75 -9.47 10.5 -11.22 11.2 C-13.18 12 -13.18 12 -15.25 13.75 C-15.83 14.16 -16.4 14.57 -17 15 C-17.99 14.67 -18.98 14.34 -20 14 C-17.23 12.04 -14.46 10.08 -11.69 8.12 C-10.9 7.57 -10.12 7.01 -9.31 6.44 C-8.55 5.91 -7.79 5.37 -7.01 4.82 C-5.97 4.08 -5.97 4.08 -4.9 3.33 C-3.28 2.2 -1.64 1.1 0 0 Z " fill="#E1AE5F" transform="translate(396,239)"/>
<path d="M0 0 C0.66 0 1.32 0 2 0 C0.31 3.63 -1.8 6.91 -4 10.25 C-4.7 11.33 -5.4 12.41 -6.12 13.52 C-6.74 14.34 -7.36 15.16 -8 16 C-8.66 16 -9.32 16 -10 16 C-10 15.01 -10 14.02 -10 13 C-10.66 12.67 -11.32 12.34 -12 12 C-11.39 11.47 -10.77 10.94 -10.14 10.39 C-9.33 9.68 -8.52 8.98 -7.69 8.25 C-6.89 7.55 -6.09 6.86 -5.26 6.14 C-2.97 4.1 -2.97 4.1 -1.33 1.73 C-0.89 1.16 -0.45 0.59 0 0 Z " fill="#401D06" transform="translate(515,231)"/>
<path d="M0 0 C2.06 0.44 2.06 0.44 4 1 C1.21 3.01 -1.58 5 -4.38 7 C-5.17 7.57 -5.96 8.14 -6.78 8.73 C-7.92 9.55 -7.92 9.55 -9.09 10.38 C-9.79 10.88 -10.49 11.38 -11.21 11.9 C-13 13 -13 13 -15 13 C-15 12.34 -15 11.68 -15 11 C-14.34 11 -13.68 11 -13 11 C-13 10.34 -13 9.68 -13 9 C-12.01 8.34 -11.02 7.68 -10 7 C-9.75 6.34 -9.5 5.68 -9.25 5 C-7.29 1.86 -4.46 1.82 -1 1 C-0.67 0.67 -0.34 0.34 0 0 Z " fill="#382209" transform="translate(594,99)"/>
<path d="M0 0 C0.33 0 0.66 0 1 0 C1 2.64 1 5.28 1 8 C1.99 8 2.98 8 4 8 C3.67 11.3 3.34 14.6 3 18 C3.99 18 4.98 18 6 18 C4.75 20.5 3 22.06 1 24 C0.29 15.98 -0.15 8.05 0 0 Z " fill="#383838" transform="translate(89,399)"/>
<path d="M0 0 C0.99 0.33 1.98 0.66 3 1 C-1.95 4.3 -6.9 7.6 -12 11 C-12.33 9.68 -12.66 8.36 -13 7 C-9.48 3.89 -6.5 2.3 -2 1 C-1.34 0.67 -0.68 0.34 0 0 Z " fill="#3B200B" transform="translate(611,88)"/>
<path d="M0 0 C3.48 1.52 5.96 3.58 8.75 6.12 C9.95 7.21 9.95 7.21 11.17 8.32 C12.08 9.15 12.08 9.15 13 10 C11.68 10.99 10.36 11.98 9 13 C0 2 0 2 0 0 Z " fill="#313131" transform="translate(190,233)"/>
<path d="M0 0 C0.33 0.66 0.66 1.32 1 2 C0.31 4.06 0.31 4.06 -1 6 C-2.94 6.62 -2.94 6.62 -5 7 C-5.99 7.66 -6.98 8.32 -8 9 C-10.19 8.62 -10.19 8.62 -12 8 C-10.76 6.85 -9.51 5.7 -8.25 4.56 C-7.55 3.92 -6.86 3.29 -6.14 2.63 C-4.01 1.01 -2.61 0.42 0 0 Z " fill="#D9AA6A" transform="translate(649,255)"/>
<path d="M0 0 C5.71 3.65 10.94 7.48 16 12 C15.67 12.66 15.34 13.32 15 14 C12.49 12.25 9.99 10.47 7.5 8.69 C6.78 8.19 6.07 7.69 5.33 7.17 C4.66 6.69 3.98 6.2 3.28 5.7 C2.65 5.25 2.02 4.81 1.38 4.35 C0.92 3.9 0.47 3.46 0 3 C0 2.01 0 1.02 0 0 Z " fill="#D5D5D5" transform="translate(129,307)"/>
<path d="M0 0 C0.99 0.33 1.98 0.66 3 1 C3 1.99 3 2.98 3 4 C4.32 4 5.64 4 7 4 C7 6.64 7 9.28 7 12 C4.69 10.02 2.38 8.04 0 6 C0.33 4.68 0.66 3.36 1 2 C0.67 1.34 0.34 0.68 0 0 Z " fill="#D8D8D8" transform="translate(90,490)"/>
<path d="M0 0 C2.73 5.46 4.75 9.97 3 16 C2.81 16.93 2.63 17.86 2.44 18.81 C2.29 19.53 2.15 20.26 2 21 C1.67 21 1.34 21 1 21 C0.67 14.07 0.34 7.14 0 0 Z " fill="#434343" transform="translate(83,328)"/>
<path d="M0 0 C0.99 0 1.98 0 3 0 C3.19 1.14 3.19 1.14 3.38 2.31 C3.88 5.2 3.88 5.2 6 8 C5.97 10.74 5.45 13.28 5 16 C2.79 12.69 2.22 10.18 1.38 6.31 C1.11 5.13 0.85 3.95 0.59 2.74 C0.39 1.83 0.2 0.93 0 0 Z " fill="#DEDEDE" transform="translate(82,323)"/>
<path d="M0 0 C3.2 -0.32 4.69 -0.2 7.46 1.53 C8.23 2.18 9.01 2.83 9.81 3.5 C10.6 4.15 11.39 4.8 12.21 5.47 C12.8 5.97 13.39 6.48 14 7 C13.01 7.5 13.01 7.5 12 8 C10.12 7.19 10.12 7.19 8 6 C7.34 5.71 6.68 5.42 6 5.12 C3.57 3.76 1.89 2.03 0 0 Z " fill="#626262" transform="translate(210,369)"/>
<path d="M0 0 C3.88 0.88 3.88 0.88 5 2 C5.34 5.17 5.26 6.6 3.5 9.31 C2.76 10.15 2.76 10.15 2 11 C0.81 7.12 0 4.08 0 0 Z " fill="#E5E5E5" transform="translate(87,339)"/>
<path d="M0 0 C6.12 0.38 10.83 4.83 15 9 C11.62 9.38 10.23 9.15 7.32 7.29 C6.45 6.55 5.58 5.82 4.69 5.06 C3.8 4.33 2.92 3.6 2.01 2.85 C1.35 2.24 0.68 1.63 0 1 C0 0.67 0 0.34 0 0 Z " fill="#C4C4C4" transform="translate(81,273)"/>
<path d="M0 0 C0.66 0.33 1.32 0.66 2 1 C2 1.66 2 2.32 2 3 C3.32 3.66 4.64 4.32 6 5 C5.67 5.99 5.34 6.98 5 8 C4.01 8.33 3.02 8.66 2 9 C1.34 8.67 0.68 8.34 0 8 C0 8.99 0 9.98 0 11 C-0.66 10.67 -1.32 10.34 -2 10 C-2 9.01 -2 8.02 -2 7 C-0.68 6.34 0.64 5.68 2 5 C1.01 4.34 0.02 3.68 -1 3 C-0.67 2.01 -0.34 1.02 0 0 Z " fill="#E0E0E0" transform="translate(186,227)"/>
<path d="M0 0 C3.09 0.61 5.2 1.6 7.75 3.44 C8.36 3.87 8.98 4.3 9.61 4.75 C10.3 5.37 10.3 5.37 11 6 C11 6.66 11 7.32 11 8 C9.35 7.67 7.7 7.34 6 7 C5.67 5.68 5.34 4.36 5 3 C3.02 3 1.04 3 -1 3 C-0.67 2.01 -0.34 1.02 0 0 Z " fill="#323232" transform="translate(44,39)"/>
<path d="M0 0 C1.98 0 3.96 0 6 0 C6 2.31 6 4.62 6 7 C4.02 6.01 2.04 5.02 0 4 C0 2.68 0 1.36 0 0 Z " fill="#65413F" transform="translate(345,353)"/>
<path d="M0 0 C1.32 0.66 2.64 1.32 4 2 C1.5 8.62 1.5 8.62 -3 12 C-2.01 8.04 -1.02 4.08 0 0 Z " fill="#C89042" transform="translate(494,619)"/>
<path d="M0 0 C0.66 0 1.32 0 2 0 C2.09 5.15 1.85 9.92 1 15 C0.67 15 0.34 15 0 15 C-0.19 12.69 -0.38 10.38 -0.56 8.06 C-0.72 6.13 -0.72 6.13 -0.88 4.16 C-0.92 3.12 -0.96 2.07 -1 1 C-0.67 0.67 -0.34 0.34 0 0 Z " fill="#1A1A1A" transform="translate(86,343)"/>
<path d="M0 0 C2.24 3.35 2.17 3.91 1.62 7.69 C1.46 8.9 1.46 8.9 1.29 10.14 C1.19 10.75 1.1 11.37 1 12 C2.32 12.66 3.64 13.32 5 14 C4.01 15.49 4.01 15.49 3 17 C2.34 17 1.68 17 1 17 C-0.19 13.44 -0.1 10.56 -0.06 6.81 C-0.05 5.54 -0.04 4.27 -0.04 2.96 C-0.02 1.98 -0.01 1.01 0 0 Z " fill="#896E4E" transform="translate(486,300)"/>
<path d="M0 0 C0.33 0 0.66 0 1 0 C1.03 1.79 1.05 3.58 1.06 5.38 C1.07 6.37 1.09 7.37 1.1 8.4 C1 11 1 11 0 13 C-0.66 13 -1.32 13 -2 13 C-1.86 11.02 -1.71 9.04 -1.56 7.06 C-1.48 5.96 -1.4 4.86 -1.32 3.72 C-1 1 -1 1 0 0 Z " fill="#B5B5B5" transform="translate(219,301)"/>
<path d="M0 0 C5.01 1.47 7.52 4.28 11 8 C10.67 8.66 10.34 9.32 10 10 C8.7 9.09 7.41 8.17 6.12 7.25 C5.41 6.74 4.69 6.23 3.95 5.7 C1.91 3.92 1.02 2.47 0 0 Z " fill="#C2C2C2" transform="translate(68,262)"/>
<path d="M0 0 C1.3 0.91 2.59 1.83 3.88 2.75 C4.59 3.26 5.31 3.77 6.05 4.3 C8.09 6.08 8.98 7.53 10 10 C2.2 5.88 2.2 5.88 0 2 C0 1.34 0 0.68 0 0 Z " fill="#AFAFAF" transform="translate(119,299)"/>
<path d="M0 0 C0.66 0 1.32 0 2 0 C0.35 3.58 -1.78 6.75 -4 10 C-4.99 9.34 -5.98 8.68 -7 8 C-5.88 6.66 -4.76 5.33 -3.62 4 C-2.69 2.89 -2.69 2.89 -1.73 1.75 C-1.16 1.17 -0.59 0.59 0 0 Z " fill="#6B3907" transform="translate(515,231)"/>
<path d="M0 0 C0.33 0 0.66 0 1 0 C1 2.97 1 5.94 1 9 C-0.32 9.33 -1.64 9.66 -3 10 C-3 7.69 -3 5.38 -3 3 C-2.34 3 -1.68 3 -1 3 C-0.67 2.01 -0.34 1.02 0 0 Z " fill="#E1E1E1" transform="translate(91,430)"/>
<path d="M0 0 C0.66 0 1.32 0 2 0 C3.23 6.4 3.23 6.4 2.06 9.44 C1.71 9.95 1.36 10.47 1 11 C0.34 10.67 -0.32 10.34 -1 10 C-0.67 6.7 -0.34 3.4 0 0 Z " fill="#3C2E23" transform="translate(484,310)"/>
<path d="M0 0 C4.27 1.58 6.27 4.51 9 8 C5.03 8 3.84 6.69 1 4 C0.19 1.75 0.19 1.75 0 0 Z " fill="#717171" transform="translate(61,256)"/>
<path d="M0 0 C0.66 0.66 1.32 1.32 2 2 C-1.63 4.31 -5.26 6.62 -9 9 C-9 8.01 -9 7.02 -9 6 C-3.86 2 -3.86 2 0 2 C0 1.34 0 0.68 0 0 Z " fill="#442908" transform="translate(394,238)"/>
<path d="M0 0 C2.67 0.67 5.33 1.33 8 2 C8 3.32 8 4.64 8 6 C4.09 4.73 2.21 3.49 0 0 Z " fill="#2C2C2C" transform="translate(229,351)"/>
<path d="M0 0 C0.99 0.33 1.98 0.66 3 1 C-2.14 6.57 -2.14 6.57 -6 7 C-6.33 6.34 -6.66 5.68 -7 5 C-5.91 4.13 -4.8 3.28 -3.69 2.44 C-3.07 1.96 -2.46 1.49 -1.82 1 C-1.22 0.67 -0.62 0.34 0 0 Z " fill="#DCA859" transform="translate(609,91)"/>
<path d="M0 0 C0.99 0 1.98 0 3 0 C3.19 2.81 3.19 2.81 3 6 C2.01 6.99 1.02 7.98 0 9 C0 6.03 0 3.06 0 0 Z " fill="#353535" transform="translate(86,364)"/>
<path d="M0 0 C4.45 0.99 4.45 0.99 9 2 C8.34 3.32 7.68 4.64 7 6 C5.83 5.19 4.66 4.38 3.5 3.56 C2.85 3.11 2.2 2.66 1.53 2.19 C1.03 1.8 0.52 1.41 0 1 C0 0.67 0 0.34 0 0 Z " fill="#333333" transform="translate(69,72)"/>
<path d="M0 0 C3.47 1.98 3.47 1.98 7 4 C5.02 4.99 5.02 4.99 3 6 C1.5 4.69 1.5 4.69 0 3 C0 2.01 0 1.02 0 0 Z " fill="#E4E4E4" transform="translate(89,86)"/>
<path d="M0 0 C2.97 1.65 5.94 3.3 9 5 C6 6 6 6 2.81 4.56 C1.88 4.05 0.96 3.53 0 3 C0 2.01 0 1.02 0 0 Z " fill="#EDEDED" transform="translate(289,222)"/>
<path d="M0 0 C2.88 0.19 2.88 0.19 6 1 C7.38 3.56 7.38 3.56 8 6 C6.66 5.19 5.33 4.38 4 3.56 C3.26 3.11 2.51 2.66 1.75 2.19 C1.17 1.8 0.59 1.41 0 1 C0 0.67 0 0.34 0 0 Z " fill="#303030" transform="translate(252,196)"/>
<path d="M0 0 C3.47 1.98 3.47 1.98 7 4 C4 6 4 6 1.81 5.62 C1.21 5.42 0.62 5.21 0 5 C0 3.35 0 1.7 0 0 Z " fill="#EDEDED" transform="translate(104,96)"/>
<path d="M0 0 C2.31 0.33 4.62 0.66 7 1 C7.33 1.99 7.66 2.98 8 4 C4.09 4 2.88 2.49 0 0 Z " fill="#313131" transform="translate(284,218)"/>
</svg>
