<?xml version="1.0" encoding="UTF-8"?>
<!-- Generator: https://ezgif.com/png-to-svg -->
<svg version="1.1" xmlns="http://www.w3.org/2000/svg" width="512" height="512" viewBox="0.039 11.944 249.682 249.682" preserveAspectRatio="xMidYMid meet">
<path d="M0 0 C0.96 -0.02 1.92 -0.04 2.91 -0.06 C7.53 -0.09 11.38 0.06 15.7 1.77 C21.83 4.08 28.11 3.4 34.56 3.19 C43.98 3.01 51.69 3.22 60.57 6.42 C65.28 7.81 69.62 7.11 74.38 6.25 C85.3 4.55 98.36 4.1 108.2 9.92 C113.36 15.45 112.66 22.83 112.56 29.94 C112.56 31.4 112.56 31.4 112.55 32.89 C112.51 38.07 112.25 43.11 111.62 48.25 C111.27 51.92 111.32 53.11 112.81 56.62 C117.01 60.93 121.71 64.23 126.81 67.38 C129.38 69.25 129.38 69.25 130.38 71.38 C130.38 71.99 130.38 72.61 130.38 73.25 C129.72 73.91 129.06 74.57 128.38 75.25 C128.33 76.22 128.29 77.19 128.25 78.19 C127.03 88.13 116.26 96.75 109.38 103.25 C111.35 107.7 111.35 107.7 113.38 112.25 C123.03 110.88 131.35 102.49 137.38 95.25 C139.64 91.96 141.66 88.54 143.65 85.07 C145.08 82.72 146.24 80.95 148.38 79.25 C151.04 79.33 152.09 79.97 154 81.81 C157.54 88.08 157.73 94.98 157.69 102 C157.68 102.88 157.68 103.76 157.67 104.67 C157.39 119.99 152.22 131.95 141.66 143.09 C133.58 150.72 124.26 153.39 113.38 154.25 C113.01 155.77 113.01 155.77 112.64 157.33 C106.89 181.12 106.89 181.12 102.19 184.62 C98.66 187.92 98.9 189.28 98.62 194 C98.59 195.22 98.56 196.45 98.52 197.71 C98.34 202.11 97.47 206 96.38 210.25 C97.55 210.21 98.73 210.17 99.94 210.12 C104.1 210.11 107.44 210.94 111.38 212.25 C111.71 213.57 112.03 214.89 112.38 216.25 C101.48 222.5 82.68 219.41 70.54 219.42 C68.12 219.42 65.71 219.42 63.29 219.43 C58.25 219.43 53.21 219.44 48.17 219.44 C41.74 219.44 35.31 219.45 28.88 219.47 C23.9 219.48 18.92 219.48 13.94 219.48 C11.57 219.48 9.2 219.48 6.83 219.49 C-23.96 219.58 -23.96 219.58 -30.62 216.25 C-30.62 214.93 -30.62 213.61 -30.62 212.25 C-26.17 211.26 -26.17 211.26 -21.62 210.25 C-21.95 209.59 -22.28 208.93 -22.62 208.25 C-22.63 206.65 -22.57 205.05 -22.48 203.45 C-22.42 202.01 -22.42 202.01 -22.37 200.55 C-22.29 198.53 -22.19 196.51 -22.06 194.5 C-21.81 188.98 -21.81 188.98 -24.21 184.21 C-25.95 182.72 -27.67 181.43 -29.62 180.25 C-29.48 179.65 -29.34 179.05 -29.19 178.44 C-28.25 174.46 -27.42 170.48 -26.81 166.44 C-26.7 165.73 -26.59 165.02 -26.48 164.29 C-26.44 162.14 -26.44 162.14 -28.04 160.46 C-30.23 157.41 -30.39 154.32 -30.75 150.69 C-31.31 145.4 -31.31 145.4 -32.62 140.25 C-36.22 137.85 -38.54 137.8 -42.81 137.38 C-48.86 136.68 -53.48 135.58 -58.62 132.25 C-61.17 128.43 -61.22 126.8 -60.62 122.25 C-57.25 115.49 -51.15 110.8 -44.62 107.25 C-42.31 106.52 -39.98 105.84 -37.62 105.25 C-38.21 104.33 -38.79 103.41 -39.38 102.46 C-53.4 79.91 -53.4 79.91 -52.62 71.06 C-51.62 67.25 -51.62 67.25 -49.62 64.25 C-47.23 63.26 -47.23 63.26 -44.38 62.38 C-36.67 59.65 -33.2 56.86 -29.38 49.69 C-26.5 43.12 -25.9 36.96 -25.37 29.86 C-24.67 21.1 -23.64 9.42 -16.64 3.37 C-11.24 -0.43 -6.37 0.03 0 0 Z M-8.62 15.25 C-8.95 16.9 -9.28 18.55 -9.62 20.25 C-8.31 19.59 -6.98 18.93 -5.62 18.25 C-5.95 17.26 -6.28 16.27 -6.62 15.25 C-7.28 15.25 -7.94 15.25 -8.62 15.25 Z M17.38 193.25 C16.59 193.95 15.81 194.65 15 195.38 C8.7 202.13 8.7 202.13 5.38 210.25 C26.83 210.25 48.28 210.25 70.38 210.25 C66.93 203.75 66.93 203.75 62.38 198.25 C59.56 197.61 57.21 197.24 54.38 197.06 C45.05 196.33 45.05 196.33 42.38 194.25 C41.12 191.62 41.12 191.62 40.38 189.25 C37.48 188.95 34.59 188.68 31.69 188.44 C30.87 188.35 30.05 188.26 29.21 188.17 C23.4 187.72 21.14 188.44 17.38 193.25 Z " fill="#AB7051" transform="translate(76.625,25.75)"/>
<path d="M0 0 C0.96 -0.02 1.92 -0.04 2.91 -0.06 C7.53 -0.09 11.38 0.06 15.7 1.77 C21.83 4.08 28.11 3.4 34.56 3.19 C43.98 3.01 51.69 3.22 60.57 6.42 C65.28 7.81 69.62 7.11 74.38 6.25 C85.3 4.55 98.36 4.1 108.2 9.92 C113.36 15.45 112.66 22.83 112.56 29.94 C112.56 31.4 112.56 31.4 112.55 32.89 C112.51 38.07 112.25 43.11 111.62 48.25 C111.27 51.92 111.32 53.11 112.81 56.62 C117.01 60.93 121.71 64.23 126.81 67.38 C129.38 69.25 129.38 69.25 130.38 71.38 C130.38 71.99 130.38 72.61 130.38 73.25 C129.72 73.91 129.06 74.57 128.38 75.25 C128.33 76.22 128.29 77.19 128.25 78.19 C127.03 88.13 116.26 96.75 109.38 103.25 C111.35 107.7 111.35 107.7 113.38 112.25 C123.03 110.88 131.35 102.49 137.38 95.25 C139.64 91.96 141.66 88.54 143.65 85.07 C145.08 82.72 146.24 80.95 148.38 79.25 C151.04 79.33 152.09 79.97 154 81.81 C157.54 88.08 157.73 94.98 157.69 102 C157.68 102.88 157.68 103.76 157.67 104.67 C157.39 119.99 152.22 131.95 141.66 143.09 C133.58 150.72 124.26 153.39 113.38 154.25 C113.01 155.77 113.01 155.77 112.64 157.33 C106.89 181.12 106.89 181.12 102.19 184.62 C98.66 187.92 98.9 189.28 98.62 194 C98.59 195.22 98.56 196.45 98.52 197.71 C98.34 202.11 97.47 206 96.38 210.25 C97.55 210.21 98.73 210.17 99.94 210.12 C104.1 210.11 107.44 210.94 111.38 212.25 C111.71 213.57 112.03 214.89 112.38 216.25 C101.48 222.5 82.68 219.41 70.54 219.42 C68.12 219.42 65.71 219.42 63.29 219.43 C58.25 219.43 53.21 219.44 48.17 219.44 C41.74 219.44 35.31 219.45 28.88 219.47 C23.9 219.48 18.92 219.48 13.94 219.48 C11.57 219.48 9.2 219.48 6.83 219.49 C-23.96 219.58 -23.96 219.58 -30.62 216.25 C-30.62 214.93 -30.62 213.61 -30.62 212.25 C-26.17 211.26 -26.17 211.26 -21.62 210.25 C-21.95 209.59 -22.28 208.93 -22.62 208.25 C-22.63 206.65 -22.57 205.05 -22.48 203.45 C-22.42 202.01 -22.42 202.01 -22.37 200.55 C-22.29 198.53 -22.19 196.51 -22.06 194.5 C-21.81 188.98 -21.81 188.98 -24.21 184.21 C-25.95 182.72 -27.67 181.43 -29.62 180.25 C-29.48 179.65 -29.34 179.05 -29.19 178.44 C-28.25 174.46 -27.42 170.48 -26.81 166.44 C-26.7 165.73 -26.59 165.02 -26.48 164.29 C-26.44 162.14 -26.44 162.14 -28.04 160.46 C-30.23 157.41 -30.39 154.32 -30.75 150.69 C-31.31 145.4 -31.31 145.4 -32.62 140.25 C-36.22 137.85 -38.54 137.8 -42.81 137.38 C-48.86 136.68 -53.48 135.58 -58.62 132.25 C-61.17 128.43 -61.22 126.8 -60.62 122.25 C-57.25 115.49 -51.15 110.8 -44.62 107.25 C-42.31 106.52 -39.98 105.84 -37.62 105.25 C-38.21 104.33 -38.79 103.41 -39.38 102.46 C-53.4 79.91 -53.4 79.91 -52.62 71.06 C-51.62 67.25 -51.62 67.25 -49.62 64.25 C-47.23 63.26 -47.23 63.26 -44.38 62.38 C-36.67 59.65 -33.2 56.86 -29.38 49.69 C-26.5 43.12 -25.9 36.96 -25.37 29.86 C-24.67 21.1 -23.64 9.42 -16.64 3.37 C-11.24 -0.43 -6.37 0.03 0 0 Z M-12.58 29.86 C-17.21 35.26 -20.63 41.29 -23.88 47.59 C-24.28 48.35 -24.67 49.11 -25.07 49.89 C-25.84 51.39 -26.6 52.9 -27.34 54.41 C-30.45 60.55 -34.02 63.82 -40.44 66.5 C-41.23 66.84 -42.02 67.17 -42.83 67.52 C-43.42 67.76 -44.02 68 -44.62 68.25 C-44.32 68.87 -44.01 69.49 -43.69 70.12 C-43 71.5 -42.31 72.88 -41.62 74.25 C-43.61 74.75 -43.61 74.75 -45.62 75.25 C-45.34 76.12 -45.05 76.98 -44.75 77.88 C-44.04 80.02 -43.33 82.16 -42.62 84.31 C-41.03 89 -39.21 93.03 -36.62 97.25 C-35.98 98.31 -35.34 99.38 -34.68 100.48 C-30.24 107.93 -30.24 107.93 -23.12 112.44 C-21.63 112.75 -20.13 113.02 -18.62 113.25 C-17.12 113.62 -15.62 114 -14.12 114.38 C22.93 122.76 65.64 113.59 101.38 103.25 C101.38 103.91 101.38 104.57 101.38 105.25 C75.65 115.9 45.33 118.42 17.73 118.49 C15.34 118.5 12.96 118.53 10.57 118.56 C-3.74 118.66 -18.59 117.7 -31.62 111.25 C-30.68 120.82 -29.58 130.25 -27.66 139.68 C-26.87 143.62 -26.44 147.43 -26.25 151.44 C-26.01 155 -25.6 156.88 -23.06 159.44 C-22.26 160.04 -21.45 160.63 -20.62 161.25 C-19.97 160.92 -19.3 160.59 -18.62 160.25 C-19.34 159.66 -19.34 159.66 -20.06 159.06 C-21.98 156.84 -22.14 155.1 -22.62 152.25 C-22.08 152.61 -21.53 152.98 -20.96 153.35 C-10.86 159.76 0.43 164.76 12.38 166.25 C13.19 166.36 14 166.47 14.84 166.58 C30.68 168.29 46.94 168.37 62.38 164.25 C63.6 163.95 64.82 163.65 66.08 163.34 C73.12 161.49 79.25 159.2 85.38 155.25 C83.98 151.07 81.88 150.7 78 148.75 C70.31 144.86 70.31 144.86 68.38 142.25 C68.19 139.06 68.19 139.06 68.38 136.25 C71.01 136.25 73.66 136.25 76.38 136.25 C77.03 134.6 77.69 132.95 78.38 131.25 C78.05 133.56 77.72 135.87 77.38 138.25 C79.03 138.58 80.68 138.91 82.38 139.25 C82.59 138.66 82.81 138.07 83.04 137.46 C85.68 130.86 88.35 127.93 94.25 124 C97.56 122.83 100.88 122.6 104.38 122.25 C104.71 122.91 105.03 123.57 105.38 124.25 C106.69 123.92 108.01 123.59 109.38 123.25 C109.04 125.23 108.72 127.21 108.38 129.25 C107.97 128.76 107.56 128.28 107.14 127.78 C104.42 125.43 102.13 125.77 98.66 125.9 C93.78 126.65 91.13 129.35 88.06 133 C86.01 136.95 85.68 139.84 85.38 144.25 C90.84 148.74 96.49 148.88 103.38 148.25 C105.93 147.47 108 146.49 110.38 145.25 C110.04 146.57 109.72 147.89 109.38 149.25 C111.85 148.26 111.85 148.26 114.38 147.25 C114.71 147.91 115.03 148.57 115.38 149.25 C125.17 149.25 132.75 144.53 139.84 137.96 C141.83 135.8 143.63 133.61 145.38 131.25 C145.79 130.69 146.21 130.13 146.64 129.55 C152.14 121.09 152.64 111.16 152.69 101.38 C152.69 100.47 152.7 99.57 152.7 98.64 C152.65 93.79 152.26 89.8 150.38 85.25 C149.72 85.25 149.06 85.25 148.38 85.25 C147.96 86.07 147.96 86.07 147.53 86.9 C139.63 101.75 129.27 110.88 114.38 118.25 C114.38 119.24 114.38 120.23 114.38 121.25 C113.38 121.25 112.4 121.25 111.38 121.25 C111.26 120.53 111.15 119.81 111.03 119.07 C110.34 116.1 109.29 113.82 107.88 111.12 C106.49 108.48 105.32 106.09 104.38 103.25 C105.76 99.11 107.97 97.93 111.38 95.25 C111.04 94.26 110.72 93.27 110.38 92.25 C109.72 92.25 109.06 92.25 108.38 92.25 C108.86 91.72 109.34 91.19 109.84 90.64 C110.47 89.93 111.1 89.23 111.75 88.5 C112.38 87.8 113 87.11 113.65 86.39 C115.25 84.4 116.34 82.57 117.38 80.25 C116.72 79.59 116.06 78.93 115.38 78.25 C118.01 76.6 120.66 74.95 123.38 73.25 C122.17 69.64 121.29 69.34 118.12 67.44 C112.86 64.06 108.69 60.22 106.38 54.25 C106.4 51.61 106.4 51.61 106.75 48.44 C107.34 41.66 107.53 34.93 107.56 28.12 C107.58 26.61 107.58 26.61 107.6 25.07 C107.6 24.12 107.6 23.16 107.61 22.18 C107.61 21.33 107.61 20.47 107.62 19.59 C107.35 17.02 106.77 15.42 105.38 13.25 C92.09 6.99 75.03 9.91 61.38 13.25 C60.88 12.26 60.88 12.26 60.38 11.25 C53.1 7.93 45.6 7.82 37.75 7.94 C36.67 7.93 35.59 7.93 34.48 7.93 C15.69 8.05 0.29 16.42 -12.58 29.86 Z M-8.62 15.25 C-8.95 16.9 -9.28 18.55 -9.62 20.25 C-8.31 19.59 -6.98 18.93 -5.62 18.25 C-5.95 17.26 -6.28 16.27 -6.62 15.25 C-7.28 15.25 -7.94 15.25 -8.62 15.25 Z M17.38 193.25 C16.59 193.95 15.81 194.65 15 195.38 C8.7 202.13 8.7 202.13 5.38 210.25 C26.83 210.25 48.28 210.25 70.38 210.25 C66.93 203.75 66.93 203.75 62.38 198.25 C59.56 197.61 57.21 197.24 54.38 197.06 C45.05 196.33 45.05 196.33 42.38 194.25 C41.12 191.62 41.12 191.62 40.38 189.25 C37.48 188.95 34.59 188.68 31.69 188.44 C30.87 188.35 30.05 188.26 29.21 188.17 C23.4 187.72 21.14 188.44 17.38 193.25 Z " fill="#15091D" transform="translate(76.625,25.75)"/>
<path d="M0 0 C1.08 -0.02 2.16 -0.04 3.28 -0.06 C9.96 -0.09 16.68 0.14 22.75 3.25 C23.25 4.73 23.25 4.73 23.75 6.25 C22.33 5.94 20.92 5.63 19.5 5.31 C18.32 5.05 18.32 5.05 17.11 4.79 C15.7 4.47 14.3 4.11 12.92 3.7 C-3.06 0.42 -21.44 4.52 -34.97 13.38 C-39.29 16.5 -43.13 19.82 -46.42 24.02 C-47.03 24.76 -47.63 25.49 -48.25 26.25 C-48.91 26.25 -49.57 26.25 -50.25 26.25 C-50.5 26.97 -50.74 27.69 -51 28.44 C-52.25 31.25 -52.25 31.25 -54 33.38 C-58.04 38.54 -61.98 44.74 -63.25 51.25 C-60.61 51.25 -57.97 51.25 -55.25 51.25 C-54.92 51.91 -54.59 52.57 -54.25 53.25 C-50.96 52.87 -50.96 52.87 -48.25 51.25 C-45.88 51 -45.88 51 -43.25 51.25 C-42.25 52.25 -41.25 53.25 -40.25 54.25 C-38.11 54.17 -38.11 54.17 -36.25 53.25 C-35.75 52.26 -35.75 52.26 -35.25 51.25 C-34.26 51.58 -33.27 51.91 -32.25 52.25 C-32.19 53.03 -32.13 53.82 -32.06 54.62 C-31.5 57.44 -31.5 57.44 -28.94 58.69 C-25.75 59.35 -24.96 58.91 -22.25 57.25 C-19.3 56.13 -18.01 56.3 -14.81 56.94 C-11.16 57.63 -11.16 57.63 -8.31 55.31 C-7.63 54.63 -6.95 53.95 -6.25 53.25 C-9.22 52.26 -12.19 51.27 -15.25 50.25 C-15.25 48.93 -15.25 47.61 -15.25 46.25 C-16.9 45.59 -18.55 44.93 -20.25 44.25 C-20.58 45.24 -20.91 46.23 -21.25 47.25 C-22.24 46.59 -23.23 45.93 -24.25 45.25 C-26.35 45.66 -26.35 45.66 -28.44 46.62 C-29.51 47.07 -29.51 47.07 -30.61 47.52 C-31.15 47.76 -31.69 48 -32.25 48.25 C-31.83 45.73 -31.43 43.59 -30.25 41.31 C-28.97 38.68 -28.64 36.14 -28.25 33.25 C-27.26 33.25 -26.27 33.25 -25.25 33.25 C-24.59 30.61 -23.93 27.97 -23.25 25.25 C-22.59 25.25 -21.93 25.25 -21.25 25.25 C-21.25 24.59 -21.25 23.93 -21.25 23.25 C-20.59 23.25 -19.93 23.25 -19.25 23.25 C-19.13 22.49 -19 21.72 -18.88 20.94 C-18.25 18.25 -18.25 18.25 -16.25 15.25 C-15.59 15.25 -14.93 15.25 -14.25 15.25 C-14.25 14.59 -14.25 13.93 -14.25 13.25 C-10.81 10.96 -9.26 11.07 -5.25 11.25 C-0.91 19.52 1.05 27.44 2.5 36.62 C2.91 39.09 3.32 41.56 3.73 44.02 C3.91 45.1 4.08 46.18 4.26 47.29 C4.7 49.95 5.2 52.6 5.75 55.25 C6.44 55.09 7.12 54.94 7.83 54.78 C8.73 54.58 9.63 54.39 10.56 54.19 C11.46 53.99 12.35 53.79 13.27 53.59 C15.75 53.25 15.75 53.25 18.75 54.25 C18.75 54.91 18.75 55.57 18.75 56.25 C22.22 55.75 22.22 55.75 25.75 55.25 C24.45 56.62 23.15 57.98 21.84 59.35 C20.25 61.75 20.25 61.75 20.75 67.25 C25.04 67.58 29.33 67.91 33.75 68.25 C34.72 64.26 34.72 64.26 34.75 60.25 C32.98 57.96 31.22 56.86 28.75 55.25 C34.07 51.7 41.61 53.09 47.75 54.25 C55.18 56.81 61.1 60.86 66.75 66.25 C60.42 79.78 47.89 91 35.69 99.12 C35.12 99.51 34.56 99.89 33.97 100.28 C18.53 110.16 -5.68 108.54 -23.56 108.56 C-25.43 108.57 -25.43 108.57 -27.33 108.58 C-56.64 108.36 -56.64 108.36 -66 101.12 C-68.99 97.31 -71.66 93.35 -74.25 89.25 C-74.83 88.34 -75.41 87.44 -76 86.5 C-78.34 82.29 -79.76 77.81 -81.25 73.25 C-81.62 72.14 -81.99 71.02 -82.38 69.88 C-82.66 69.01 -82.95 68.14 -83.25 67.25 C-81.27 66.26 -81.27 66.26 -79.25 65.25 C-80.24 64.26 -81.23 63.27 -82.25 62.25 C-81.92 61.26 -81.59 60.27 -81.25 59.25 C-78.85 58.16 -76.4 57.41 -73.89 56.61 C-67.78 53.47 -65.19 47.52 -62.44 41.56 C-53.39 22.81 -40.36 10.14 -21.07 2.2 C-14.17 -0.11 -7.2 0.03 0 0 Z " fill="#FBF8E6" transform="translate(114.25,33.75)"/>
<path d="M0 0 C4 4.97 4 4.97 4 8 C3.35 8.17 2.7 8.34 2.02 8.52 C-5.65 10.64 -11.41 13.19 -16 20 C-17.12 22.3 -18.06 24.61 -19 27 C-21.64 27 -24.28 27 -27 27 C-27.5 29.79 -27.5 29.79 -27 33 C-22.56 37.79 -16.87 40.28 -11 43 C-11 44.32 -11 45.64 -11 47 C-24.9 55.6 -42.87 58.2 -58.94 58.19 C-59.95 58.19 -60.97 58.19 -62.01 58.19 C-70.49 58.12 -78.64 57.41 -87 56 C-87.82 55.88 -88.64 55.76 -89.48 55.63 C-99.7 53.81 -109.49 48.79 -118 43 C-116.94 46.4 -115.99 49.01 -114 52 C-117.65 50.75 -118.78 50.33 -121 47 C-121.39 44.62 -121.69 42.22 -121.94 39.81 C-122.57 34.08 -123.42 28.46 -124.56 22.81 C-125.94 15.9 -126.65 9.04 -127 2 C-126.49 2.25 -125.97 2.51 -125.45 2.77 C-111.57 9.01 -96.04 9.53 -81.06 9.38 C-79.87 9.37 -79.87 9.37 -78.65 9.36 C-54.28 9.22 -30.66 5.79 -6.91 0.42 C-2.44 -0.56 -2.44 -0.56 0 0 Z " fill="#D93459" transform="translate(172,135)"/>
<path d="M0 0 C0 2.64 0 5.28 0 8 C-0.33 7.34 -0.66 6.68 -1 6 C-1.99 5.67 -2.98 5.34 -4 5 C-4 4.34 -4 3.68 -4 3 C-10 3.27 -14.38 3.81 -19 8 C-21.76 12.11 -23.63 15.95 -23 21 C-17.34 23.95 -12.38 24.82 -6 24 C-4.66 23.35 -3.32 22.69 -2 22 C-1.01 22 -0.02 22 1 22 C1 22.99 1 23.98 1 25 C2.32 24.34 3.64 23.68 5 23 C5.33 23.99 5.66 24.98 6 26 C5.22 26.43 4.43 26.87 3.62 27.31 C-0.25 31.28 -0.38 35.63 -1 41 C-0.34 41 0.32 41 1 41 C0.46 43.55 -0.11 46.09 -0.69 48.62 C-0.84 49.34 -0.99 50.05 -1.14 50.79 C-2.37 56.06 -4.18 59.13 -8 63 C-10.31 63.88 -10.31 63.88 -12 64 C-11.5 63.01 -11.5 63.01 -11 62 C-10.34 62 -9.68 62 -9 62 C-9.33 61.34 -9.66 60.68 -10 60 C-14.15 61.1 -17.91 62.39 -21.85 64.14 C-31.33 67.93 -40.66 70.2 -50.88 70.19 C-51.93 70.19 -51.93 70.19 -53.01 70.19 C-58.02 70.14 -62.25 69.52 -67 68 C-67.66 68 -68.32 68 -69 68 C-69 67.34 -69 66.68 -69 66 C-69.63 66.01 -70.26 66.02 -70.91 66.04 C-76.38 66.09 -81.58 65.8 -87 65 C-87.21 65.58 -87.41 66.16 -87.62 66.75 C-89 69 -89 69 -91.75 70.62 C-96.96 73.83 -100 80.1 -101.95 85.73 C-102.29 86.48 -102.64 87.23 -103 88 C-106.63 89.31 -106.63 89.31 -110 90 C-110 89.34 -110 88.68 -110 88 C-110.8 88.5 -111.61 88.99 -112.44 89.5 C-116.69 91.29 -120.43 91.7 -125 91 C-127 89 -127 89 -127.23 86.48 C-127.22 85.44 -127.21 84.4 -127.2 83.34 C-127.19 82.21 -127.18 81.09 -127.18 79.94 C-127.16 78.76 -127.14 77.59 -127.12 76.38 C-127.12 75.19 -127.11 74.01 -127.1 72.79 C-127.07 69.86 -127.04 66.93 -127 64 C-126.34 64 -125.68 64 -125 64 C-125.81 61.81 -125.81 61.81 -128 61.25 C-129.62 60.79 -131.25 60.34 -132.87 59.88 C-135 59 -135 59 -137 56 C-137 55.01 -137 54.02 -137 53 C-135.68 53 -134.36 53 -133 53 C-133 52.34 -133 51.68 -133 51 C-132.01 51 -131.02 51 -130 51 C-130.66 50.67 -131.32 50.34 -132 50 C-131.67 47.36 -131.34 44.72 -131 42 C-127.27 42.5 -125.19 42.87 -122 45 C-119.78 45.45 -117.55 45.81 -115.31 46.12 C-114.13 46.29 -112.95 46.46 -111.74 46.63 C-110.38 46.81 -110.38 46.81 -109 47 C-109 46.34 -109 45.68 -109 45 C-109.79 44.82 -110.57 44.64 -111.38 44.45 C-126 40.95 -126 40.95 -130.44 36.62 C-132.14 33.76 -132.37 32.27 -132 29 C-128.26 30.43 -124.74 32.11 -121.19 33.94 C-99.01 45.07 -70.85 46.38 -47 40 C-45.77 39.69 -44.53 39.37 -43.26 39.05 C-36.74 37.31 -30.89 35.3 -25 32 C-25 31.34 -25 30.68 -25 30 C-25.89 29.54 -26.78 29.08 -27.7 28.61 C-28.89 27.99 -30.07 27.37 -31.25 26.75 C-32.41 26.15 -33.57 25.54 -34.77 24.92 C-37.73 23.16 -39.84 21.67 -42 19 C-42.25 15.75 -42.25 15.75 -42 13 C-38.62 12.16 -36.33 11.89 -33 13 C-32.88 12.22 -32.75 11.43 -32.62 10.62 C-32 8 -32 8 -30 6 C-30.49 9.12 -31 12 -32 15 C-30.35 15.33 -28.7 15.66 -27 16 C-26.83 14.82 -26.67 13.65 -26.5 12.44 C-25.16 6.97 -21.48 4.13 -17 1 C-11.7 -2.12 -5.79 -1.45 0 0 Z " fill="#450B29" transform="translate(186,149)"/>
<path d="M0 0 C0.5 2.48 0.5 2.48 1 5 C0.21 4.94 -0.58 4.88 -1.39 4.82 C-10.19 4.46 -17.1 6.06 -25 10 C-25.66 10.66 -26.32 11.32 -27 12 C-25.98 12.93 -25.98 12.93 -24.94 13.88 C-18.09 20.82 -13.97 28.77 -10.55 37.8 C-8.04 42.98 -4.2 46.1 0.56 49.19 C1.31 49.68 2.05 50.16 2.82 50.67 C4.84 51.9 6.87 52.98 9 54 C9 54.66 9 55.32 9 56 C6.42 57.64 3.91 59.04 1 60 C-2.83 58.87 -4.64 57.38 -7.38 54.5 C-11.31 50.75 -15.66 49.45 -20.94 48.44 C-21.62 48.29 -22.3 48.15 -23 48 C-23.33 47.34 -23.66 46.68 -24 46 C-27.35 45.8 -30.66 45.73 -34.01 45.79 C-36.14 45.73 -36.14 45.73 -40 45 C-42.4 42.04 -42.4 42.04 -44 39 C-47.3 36.61 -51.02 36.46 -55 36 C-55.5 34.52 -55.5 34.52 -56 33 C-58.02 32.27 -58.02 32.27 -60 32 C-60 31.34 -60 30.68 -60 30 C-55.05 29.5 -55.05 29.5 -50 29 C-50 28.34 -50 27.68 -50 27 C-54.48 26.28 -54.48 26.28 -59 26 C-58.34 24.35 -57.68 22.7 -57 21 C-58.98 21.33 -60.96 21.66 -63 22 C-62.48 19.24 -61.89 16.67 -61 14 C-61.66 14 -62.32 14 -63 14 C-63 13.34 -63 12.68 -63 12 C-64.32 12 -65.64 12 -67 12 C-67.66 8.7 -68.32 5.4 -69 2 C-66.36 1.67 -63.72 1.34 -61 1 C-61 1.66 -61 2.32 -61 3 C-58.69 3.33 -56.38 3.66 -54 4 C-54 3.34 -54 2.68 -54 2 C-49.68 0.65 -45.65 -0.24 -41.13 -0.71 C-38.89 -1.01 -36.76 -1.53 -34.56 -2.06 C-23 -4.41 -11.19 -3.62 0 0 Z " fill="#E49654" transform="translate(182,39)"/>
<path d="M0 0 C3.31 -0.09 6.62 -0.14 9.94 -0.19 C10.86 -0.21 11.79 -0.24 12.74 -0.26 C17.3 -0.31 21.05 -0.17 25.3 1.52 C31.45 3.83 37.72 3.15 44.19 2.94 C53.6 2.76 61.32 2.97 70.2 6.17 C74.91 7.56 79.24 6.86 84 6 C94.93 4.3 107.98 3.85 117.83 9.67 C122.99 15.2 122.28 22.58 122.19 29.69 C122.18 30.66 122.18 31.64 122.18 32.64 C122.13 37.82 121.88 42.86 121.25 48 C120.9 51.67 120.94 52.86 122.44 56.38 C126.64 60.68 131.34 63.98 136.44 67.12 C139 69 139 69 140 71.12 C140 71.74 140 72.36 140 73 C139.34 73.66 138.68 74.32 138 75 C137.96 75.97 137.92 76.94 137.88 77.94 C136.66 87.88 125.88 96.5 119 103 C120.32 105.97 121.64 108.94 123 112 C132.66 110.63 140.97 102.24 147 95 C149.27 91.71 151.28 88.29 153.27 84.82 C154.71 82.47 155.86 80.7 158 79 C160.66 79.08 161.71 79.72 163.62 81.56 C167.16 87.83 167.36 94.73 167.31 101.75 C167.31 102.63 167.3 103.51 167.3 104.42 C167.01 119.74 161.85 131.7 151.29 142.84 C143.2 150.47 133.88 153.14 123 154 C122.01 157.3 121.02 160.6 120 164 C119.34 164 118.68 164 118 164 C117.73 158.62 117.61 155.43 121 151 C123.59 148.41 125.36 148.45 128.94 147.81 C141.35 145.07 149.19 137.94 156.25 127.75 C162.67 115.3 162.77 98.54 160 85 C159.34 85 158.68 85 158 85 C157.75 85.88 157.49 86.76 157.23 87.66 C152.61 100.19 141.46 109.82 130 116 C128.02 116.71 126.02 117.39 124 118 C124 118.99 124 119.98 124 121 C123.01 121 122.02 121 121 121 C120.59 120.04 120.18 119.07 119.76 118.08 C119.21 116.8 118.67 115.53 118.12 114.25 C117.86 113.62 117.59 112.98 117.31 112.33 C116.2 109.73 115.09 107.17 113.77 104.67 C113 103 113 103 113.56 101 C115.36 98.5 117.59 96.9 120 95 C120 94.34 120 93.68 120 93 C119.34 92.67 118.68 92.34 118 92 C119.65 87.71 122.74 85.12 126 82 C125.34 80.35 124.68 78.7 124 77 C130.75 73 130.75 73 133 73 C130.87 70.76 128.65 68.97 126.12 67.19 C121.36 63.66 117.18 59.64 115 54 C115.02 51.36 115.02 51.36 115.38 48.19 C115.98 41.41 116.12 34.68 116.12 27.88 C116.13 26.36 116.13 26.36 116.14 24.82 C116.14 23.87 116.13 22.91 116.13 21.93 C116.13 20.65 116.13 20.65 116.13 19.34 C116.01 17.1 115.63 15.15 115 13 C99.93 9.75 85.89 10.36 71 14 C70.5 12.52 70.5 12.52 70 11 C62.4 9.13 55.18 8.69 47.38 8.75 C46.29 8.74 45.21 8.73 44.1 8.73 C36.12 8.75 29.55 10.03 22 12.62 C20.86 13.02 20.86 13.02 19.69 13.41 C19.13 13.61 18.57 13.8 18 14 C17.67 12.68 17.34 11.36 17 10 C19.91 8.74 21.8 8 25 8 C25 7.34 25 6.68 25 6 C23.7 5.88 22.4 5.76 21.05 5.63 C19.33 5.46 17.6 5.29 15.88 5.12 C15.02 5.05 14.16 4.97 13.28 4.89 C8.59 4.42 4.43 3.73 0 2 C0 1.34 0 0.68 0 0 Z " fill="#170F1D" transform="translate(67,26)"/>
<path d="M0 0 C3.73 0.5 5.81 0.87 9 3 C11.22 3.45 13.45 3.81 15.69 4.12 C16.87 4.29 18.05 4.46 19.26 4.63 C20.62 4.81 20.62 4.81 22 5 C22 4.34 22 3.68 22 3 C23.31 3.24 23.31 3.24 24.66 3.49 C30.57 4.33 36.54 4.19 42.5 4.19 C44.42 4.19 44.42 4.19 46.37 4.19 C56.36 4.13 66.19 3.48 76.11 2.44 C80.76 1.96 85.33 1.92 90 2 C86.5 4.33 84.65 4.34 80.5 4.56 C77.05 4.75 74.28 4.91 71 6 C68.86 6.08 66.72 6.11 64.58 6.1 C63.33 6.09 62.07 6.09 60.78 6.09 C59.47 6.08 58.16 6.07 56.81 6.06 C55.48 6.06 54.14 6.05 52.81 6.05 C49.54 6.04 46.27 6.02 43 6 C43 6.66 43 7.32 43 8 C43.62 8.06 44.24 8.12 44.88 8.19 C47 9 47 9 48.25 11.38 C49 14 49 14 49 17 C46.69 17.66 44.38 18.32 42 19 C50.02 20.13 57.92 20.1 66 20 C66.5 21.49 66.5 21.49 67 23 C70.96 22.72 74.92 22.42 78.88 22.12 C80.54 22.01 80.54 22.01 82.23 21.89 C88.95 21.37 95.43 20.51 102 19 C100.15 23.17 98.01 24.76 94 27 C89.39 28.02 84.83 28.19 80.12 28.19 C79.07 28.19 79.07 28.19 77.99 28.19 C72.98 28.14 68.75 27.52 64 26 C63.34 26 62.68 26 62 26 C62 25.34 62 24.68 62 24 C61.37 24.01 60.74 24.02 60.09 24.04 C54.62 24.09 49.42 23.8 44 23 C43.79 23.58 43.59 24.16 43.38 24.75 C42 27 42 27 39.25 28.62 C34.04 31.83 31 38.1 29.05 43.73 C28.53 44.86 28.53 44.86 28 46 C24.38 47.31 24.38 47.31 21 48 C21 47.34 21 46.68 21 46 C20.2 46.5 19.39 46.99 18.56 47.5 C14.31 49.29 10.57 49.7 6 49 C4 47 4 47 3.77 44.48 C3.79 42.92 3.79 42.92 3.8 41.34 C3.81 40.21 3.82 39.09 3.82 37.94 C3.84 36.76 3.86 35.59 3.88 34.38 C3.88 33.19 3.89 32.01 3.9 30.79 C3.93 27.86 3.96 24.93 4 22 C4.66 22 5.32 22 6 22 C5.19 19.81 5.19 19.81 3 19.25 C1.38 18.79 -0.25 18.34 -1.87 17.88 C-4 17 -4 17 -6 14 C-6 13.01 -6 12.02 -6 11 C-4.68 11 -3.36 11 -2 11 C-2 10.34 -2 9.68 -2 9 C-1.01 9 -0.02 9 1 9 C0.34 8.67 -0.32 8.34 -1 8 C-0.67 5.36 -0.34 2.72 0 0 Z " fill="#2A071F" transform="translate(55,191)"/>
<path d="M0 0 C0.66 0.66 1.32 1.32 2 2 C4.06 2.54 4.06 2.54 6.43 2.82 C7.75 3 7.75 3 9.09 3.19 C10.01 3.32 10.93 3.44 11.88 3.56 C13.69 3.81 15.5 4.06 17.3 4.32 C18.11 4.42 18.91 4.53 19.74 4.64 C21.87 4.98 23.92 5.44 26 6 C26 6.66 26 7.32 26 8 C24.02 8.66 22.04 9.32 20 10 C20.5 10.99 20.5 10.99 21 12 C20.34 12 19.68 12 19 12 C18.67 12.99 18.34 13.98 18 15 C15.85 16.47 15.85 16.47 13.06 18.06 C1.32 25.33 -6.01 35.17 -12.22 47.3 C-12.61 48.06 -13 48.81 -13.4 49.59 C-14.16 51.08 -14.9 52.57 -15.63 54.07 C-18.47 59.71 -21.54 63.31 -27.34 66.14 C-29.22 66.76 -31.11 67.38 -33 68 C-32.67 68.6 -32.34 69.2 -32 69.81 C-31 72 -31 72 -31 75 C-32.32 75 -33.64 75 -35 75 C-34.48 75.98 -34.48 75.98 -33.94 76.98 C-31.46 81.74 -29.78 85.65 -29 91 C-28.28 91.66 -28.28 91.66 -27.55 92.34 C-25.51 94.52 -25.31 96.27 -24.81 99.19 C-24.65 100.09 -24.5 100.99 -24.33 101.92 C-24.22 102.61 -24.11 103.29 -24 104 C-23.34 104 -22.68 104 -22 104 C-23 106 -23 106 -25 109 C-25.99 109 -26.98 109 -28 109 C-27.8 109.59 -27.59 110.19 -27.38 110.8 C-25.3 117.21 -24.37 123.28 -24 130 C-24.99 130 -25.98 130 -27 130 C-27 130.99 -27 131.98 -27 133 C-40.71 132.29 -40.71 132.29 -45 128 C-45.17 123.85 -44.84 121.96 -42.07 118.79 C-35.38 112.7 -35.38 112.7 -31 112 C-31.5 109.03 -31.5 109.03 -32 106 C-29.52 105.5 -29.52 105.5 -27 105 C-27.58 104.08 -28.16 103.16 -28.76 102.21 C-42.77 79.66 -42.77 79.66 -42 70.81 C-41 67 -41 67 -39 64 C-36.61 63.01 -36.61 63.01 -33.75 62.12 C-26.04 59.4 -22.57 56.61 -18.75 49.44 C-15.87 42.87 -15.27 36.71 -14.75 29.61 C-14.05 20.85 -13.01 9.17 -6.02 3.12 C-3 1 -3 1 0 0 Z M2 15 C1.67 16.65 1.34 18.3 1 20 C2.32 19.34 3.64 18.68 5 18 C4.67 17.01 4.34 16.02 4 15 C3.34 15 2.68 15 2 15 Z " fill="#1A111F" transform="translate(66,26)"/>
<path d="M0 0 C1.25 0.02 2.49 0.04 3.77 0.05 C5.18 0.09 5.18 0.09 6.62 0.12 C6.65 3.67 6.67 7.21 6.69 10.75 C6.69 11.8 6.7 12.85 6.71 13.93 C6.72 19.71 6.46 25.27 5.75 31 C5.28 36.63 6.21 39.8 9.73 44.22 C12.77 47.27 16.02 49.78 19.62 52.12 C20.62 52.78 21.6 53.44 22.62 54.12 C22.62 54.78 22.62 55.44 22.62 56.12 C20.95 57.38 20.95 57.38 18.75 58.69 C18.03 59.12 17.31 59.56 16.57 60 C15.28 60.75 13.96 61.46 12.62 62.12 C10.68 61.57 10.68 61.57 8.5 60.69 C7.41 60.26 7.41 60.26 6.3 59.82 C5.75 59.59 5.2 59.36 4.62 59.12 C6.08 55.3 8.01 53.93 11.62 52.12 C12.28 52.12 12.94 52.12 13.62 52.12 C13.62 51.47 13.62 50.81 13.62 50.12 C12.84 49.94 12.06 49.75 11.25 49.56 C2.89 46.25 -3.56 41.33 -7.38 33.12 C-8.16 31.19 -8.93 29.25 -9.69 27.31 C-12.75 19.66 -17.38 12.81 -23.38 7.12 C-21.84 6.33 -20.29 5.54 -18.75 4.75 C-17.46 4.09 -17.46 4.09 -16.15 3.41 C-10.57 0.82 -6.17 -0.12 0 0 Z " fill="#883940" transform="translate(177.375,42.875)"/>
<path d="M0 0 C0.66 0 1.32 0 2 0 C4.31 5.51 4.3 10.57 4.25 16.44 C4.26 17.81 4.26 17.81 4.27 19.21 C4.26 24.53 3.74 28.97 2 34 C1.01 34 0.02 34 -1 34 C-1.23 34.72 -1.45 35.44 -1.69 36.19 C-3.41 39.89 -4.62 41.63 -8 44 C-14.94 45.05 -20.86 44.35 -27 41 C-27 40.34 -27 39.68 -27 39 C-27.99 38.67 -28.98 38.34 -30 38 C-30 37.34 -30 36.68 -30 36 C-30.66 36 -31.32 36 -32 36 C-32.5 34.51 -32.5 34.51 -33 33 C-32.18 32.53 -31.36 32.05 -30.51 31.57 C-17.18 23.67 -6.45 14.43 0 0 Z " fill="#E0955A" transform="translate(225,111)"/>
<path d="M0 0 C-0.01 1.94 -0.06 3.88 -0.12 5.81 C-0.15 6.89 -0.17 7.97 -0.2 9.08 C-1 12 -1 12 -3.59 13.78 C-15.17 17.92 -26.85 18.44 -39 18 C-39 17.34 -39 16.68 -39 16 C-37.68 15.67 -36.36 15.34 -35 15 C-35 14.34 -35 13.68 -35 13 C-41.6 13 -48.2 13 -55 13 C-55.33 10.36 -55.66 7.72 -56 5 C-55.34 4.99 -54.68 4.98 -53.99 4.97 C-39.57 4.72 -12.65 -4.22 0 0 Z " fill="#CC3559" transform="translate(161,195)"/>
<path d="M0 0 C0.06 1.14 0.12 2.29 0.18 3.46 C0.27 4.96 0.35 6.45 0.44 7.94 C0.48 8.69 0.52 9.45 0.56 10.22 C0.44 13.92 0.44 13.92 2 17 C2.04 18.67 2.04 20.33 2 22 C3.76 21.94 3.76 21.94 5.56 21.88 C9.72 21.86 13.06 22.69 17 24 C17.5 25.98 17.5 25.98 18 28 C14.62 30 11.71 30.4 7.81 30.69 C6.75 30.77 5.68 30.86 4.58 30.95 C3.73 30.97 2.88 30.98 2 31 C1.67 30.67 1.34 30.34 1 30 C-0.94 29.92 -2.87 29.86 -4.81 29.81 C-10.67 29.38 -10.67 29.38 -13.44 26.19 C-13.95 25.14 -14.47 24.08 -15 23 C-16.65 21.65 -18.32 20.31 -20 19 C-25 13.73 -25 13.73 -25 11 C-25.66 11 -26.32 11 -27 11 C-27 10.01 -27 9.02 -27 8 C-25.95 7.76 -24.9 7.52 -23.82 7.27 C-16.8 5.6 -10.09 3.99 -3.6 0.73 C-2 0 -2 0 0 0 Z " fill="#110A22" transform="translate(171,214)"/>
<path d="M0 0 C3.37 0.41 6.05 1.02 9.17 2.41 C13.26 4.21 17.4 5.19 21.75 6.12 C22.93 6.38 22.93 6.38 24.13 6.65 C30.06 7.9 35.94 8.73 42 9 C42.5 12.47 42.5 12.47 43 16 C37.72 15.67 32.44 15.34 27 15 C27 15.66 27 16.32 27 17 C30.92 18.66 34.89 19.87 39 21 C39 21.66 39 22.32 39 23 C33.75 26.5 27.02 25.06 21 24 C17.76 23.21 14.6 22.24 11.44 21.19 C10.69 20.94 9.94 20.69 9.17 20.44 C4.61 18.82 0.91 16.85 -3 14 C-2.67 12.35 -2.34 10.7 -2 9 C-1.01 9 -0.02 9 1 9 C0.34 8.67 -0.32 8.34 -1 8 C-0.67 5.36 -0.34 2.72 0 0 Z " fill="#7F0A32" transform="translate(55,191)"/>
<path d="M0 0 C0.5 0.99 0.5 0.99 1 2 C3.57 2.91 3.57 2.91 6.56 3.62 C7.57 3.89 8.59 4.15 9.63 4.41 C10.41 4.61 11.19 4.8 12 5 C12 9 12 9 10.5 10.85 C9.54 11.73 9.54 11.73 8.56 12.62 C5.9 15.03 5.9 15.03 4 18 C4.99 18.33 5.98 18.66 7 19 C5.18 23.91 1.48 26.76 -3.07 29.03 C-9.65 31.65 -16.56 33.2 -23.44 34.81 C-24.41 35.04 -25.38 35.28 -26.38 35.51 C-27.31 35.72 -28.23 35.93 -29.18 36.14 C-30.01 36.33 -30.85 36.52 -31.7 36.72 C-34.11 37.01 -35.71 36.75 -38 36 C-37.33 35.6 -36.67 35.2 -35.98 34.79 C-21.06 25.59 -9.77 14.49 0 0 Z " fill="#B585A0" transform="translate(181,100)"/>
<path d="M0 0 C1.08 -0.02 2.16 -0.04 3.28 -0.06 C9.96 -0.09 16.68 0.14 22.75 3.25 C23.25 4.73 23.25 4.73 23.75 6.25 C22.33 5.94 20.92 5.63 19.5 5.31 C18.32 5.05 18.32 5.05 17.11 4.79 C15.7 4.47 14.3 4.11 12.92 3.7 C-3.06 0.42 -21.44 4.52 -34.97 13.38 C-39.29 16.5 -43.13 19.82 -46.42 24.02 C-47.03 24.76 -47.63 25.49 -48.25 26.25 C-48.91 26.25 -49.57 26.25 -50.25 26.25 C-50.5 26.97 -50.75 27.69 -51 28.44 C-52.25 31.25 -52.25 31.25 -54 33.38 C-58.04 38.54 -61.98 44.74 -63.25 51.25 C-60.61 51.25 -57.97 51.25 -55.25 51.25 C-54.92 51.91 -54.59 52.57 -54.25 53.25 C-52.23 54.38 -52.23 54.38 -50.25 55.25 C-50.25 58.92 -50.25 62.58 -50.25 66.25 C-52.17 66.47 -54.08 66.68 -56 66.88 C-57.07 66.99 -58.13 67.11 -59.23 67.23 C-62.29 67.25 -63.71 66.86 -66.25 65.25 C-66.25 63.27 -66.25 61.29 -66.25 59.25 C-66.91 58.92 -67.57 58.59 -68.25 58.25 C-67.26 57.26 -66.27 56.27 -65.25 55.25 C-66.24 54.26 -67.23 53.27 -68.25 52.25 C-56.58 29.1 -44.1 9.9 -18.25 1.25 C-12.15 0.07 -6.2 0.03 0 0 Z " fill="#EBE0CB" transform="translate(114.25,33.75)"/>
<path d="M0 0 C0 1.98 0 3.96 0 6 C-1.05 6.06 -1.05 6.06 -2.12 6.11 C-3.48 6.21 -3.48 6.21 -4.88 6.31 C-5.78 6.37 -6.68 6.43 -7.62 6.49 C-10.36 6.79 -10.36 6.79 -12 10 C-12.99 10 -13.98 10 -15 10 C-15 10.99 -15 11.98 -15 13 C-16.32 13 -17.64 13 -19 13 C-19.33 13.99 -19.66 14.98 -20 16 C-20.5 14.52 -20.5 14.52 -21 13 C-21.82 13.18 -21.82 13.18 -22.65 13.37 C-28.1 14.58 -33.55 15.79 -39 17 C-39 17.99 -39 18.98 -39 20 C-38.34 20 -37.68 20 -37 20 C-37 20.66 -37 21.32 -37 22 C-36.01 22.33 -35.02 22.66 -34 23 C-35.21 23.34 -35.21 23.34 -36.44 23.69 C-37.28 24.12 -38.13 24.55 -39 25 C-39.89 27.55 -39.89 27.55 -40 30 C-37.03 30.99 -34.06 31.98 -31 33 C-31 34.65 -31 36.3 -31 38 C-34.15 38.86 -36.17 38.97 -39.44 38.44 C-43.35 37.96 -45.38 38.55 -49 40 C-51.25 40.75 -51.25 40.75 -53 41 C-53.66 40.34 -54.32 39.68 -55 39 C-54.67 38.01 -54.34 37.02 -54 36 C-53.34 36 -52.68 36 -52 36 C-51.71 34.91 -51.42 33.81 -51.12 32.69 C-50 29 -50 29 -48 26 C-44.88 24.81 -44.88 24.81 -42 24 C-42.06 22.87 -42.12 21.73 -42.19 20.56 C-41.64 15.93 -39.32 14.09 -35.81 11.19 C-30.04 6.73 -25.43 3.65 -18 4 C-17.67 3.67 -17.34 3.34 -17 3 C-15.1 2.44 -13.18 1.92 -11.25 1.44 C-10.2 1.17 -9.16 0.9 -8.08 0.62 C-5.28 0.06 -2.84 -0.12 0 0 Z " fill="#E19958" transform="translate(111,38)"/>
<path d="M0 0 C0.99 0.5 0.99 0.5 2 1 C2 1.66 2 2.32 2 3 C2.66 3 3.32 3 4 3 C5.62 4.38 5.62 4.38 7 6 C7 6.66 7 7.32 7 8 C13.21 10.26 19.43 10.92 26 10 C29.47 7.5 31.39 4.95 33 1 C33.99 1.33 34.98 1.66 36 2 C31.28 14.34 23.73 22.42 12.47 29.15 C8.9 30.38 5.76 30.13 2 30 C2.02 28.84 2.05 27.68 2.07 26.48 C2.19 17.44 1.95 8.89 0 0 Z " fill="#8F3943" transform="translate(191,144)"/>
<path d="M0 0 C2.11 4.28 2.24 8.14 2.12 12.81 C2.12 13.51 2.11 14.2 2.1 14.91 C2.07 16.61 2.04 18.3 2 20 C-2.58 22.64 -6.83 22.54 -12 22 C-14.89 21.15 -17.83 20.17 -20 18 C-19.7 12.15 -18.87 8.61 -15 4 C-10.11 -0.32 -6.22 -0.5 0 0 Z " fill="#F5EEDB" transform="translate(182,152)"/>
<path d="M0 0 C0.66 0 1.32 0 2 0 C3.89 4.79 4.35 9.16 4.31 14.25 C4.31 15 4.31 15.74 4.31 16.51 C4.21 22.36 3.25 27.56 1 33 C-4.2 32.14 -7.99 30.16 -11.62 26.25 C-13.18 24.55 -13.18 24.55 -17 25 C-17 25.66 -17 26.32 -17 27 C-21.84 30.6 -26.86 33.68 -33 34 C-30.72 31.49 -28.4 30 -25.44 28.38 C-14.01 21.61 -5.42 12.13 0 0 Z " fill="#F5F4EA" transform="translate(225,111)"/>
<path d="M0 0 C3.68 0.61 7.35 1.25 11 2 C11 2.66 11 3.32 11 4 C11.76 4.14 12.53 4.29 13.31 4.44 C16 5 16 5 19 6 C18.8 6.64 18.59 7.28 18.38 7.94 C17.12 11.99 16.03 15.71 15.56 19.94 C15 23 15 23 13.5 24.94 C9.77 26.52 6 26.59 2 26 C0 24 0 24 -0.23 21.57 C-0.22 20.57 -0.21 19.58 -0.2 18.55 C-0.19 17.48 -0.18 16.4 -0.18 15.29 C-0.16 14.17 -0.14 13.04 -0.12 11.88 C-0.12 10.74 -0.11 9.6 -0.1 8.43 C-0.07 5.62 -0.04 2.81 0 0 Z " fill="#E2975D" transform="translate(59,214)"/>
<path d="M0 0 C-0.31 3.37 -0.31 3.37 -1 7 C-4 9 -4 9 -7 9 C-8.74 12.23 -9.89 15.51 -11 19 C-11.66 19 -12.32 19 -13 19 C-12.67 20.32 -12.34 21.64 -12 23 C-9.68 22.47 -7.68 21.86 -5.5 20.88 C-0.27 19.57 4.69 20.36 10 21 C10 18.03 10 15.06 10 12 C10.99 11.67 11.98 11.34 13 11 C14.67 9.5 14.67 9.5 16 8 C16 11.84 14.59 14.77 13.12 18.25 C11.09 23.12 9.36 27.9 8 33 C6.19 33.69 6.19 33.69 4 34 C3 33 2 32 1 31 C-1.54 30.58 -1.54 30.58 -4 31 C-4.66 31.66 -5.32 32.32 -6 33 C-8.62 32.62 -8.62 32.62 -11 32 C-11 31.34 -11 30.68 -11 30 C-13.64 30 -16.28 30 -19 30 C-18.3 23.77 -8.26 0 0 0 Z " fill="#D2A06E" transform="translate(70,55)"/>
<path d="M0 0 C0.51 0.25 1.03 0.51 1.55 0.77 C15.65 7.11 31.24 7.47 46.44 7.25 C48.06 7.24 49.69 7.23 51.31 7.22 C62.22 7.13 73.12 6.83 84 6 C75.46 13.21 61.11 11.34 50.51 11.32 C47.83 11.31 45.16 11.34 42.48 11.36 C34.09 11.39 25.92 11.11 17.64 9.67 C16.96 9.55 16.29 9.44 15.6 9.32 C11.06 8.43 7.17 6.93 3 5 C3.14 5.74 3.28 6.49 3.43 7.26 C4.08 10.71 4.73 14.17 5.38 17.62 C5.61 18.86 5.84 20.1 6.08 21.37 C7.44 28.73 8.67 36.05 9.45 43.5 C10.07 46.32 11.11 47.84 13 50 C9.35 48.75 8.22 48.33 6 45 C5.61 42.62 5.31 40.22 5.06 37.81 C4.43 32.08 3.58 26.46 2.44 20.81 C1.06 13.9 0.35 7.04 0 0 Z " fill="#BF4C62" transform="translate(45,137)"/>
<path d="M0 0 C0.33 1.32 0.66 2.64 1 4 C0.34 4 -0.32 4 -1 4 C-1 4.66 -1 5.32 -1 6 C-1.66 6 -2.32 6 -3 6 C-3.66 8.64 -4.32 11.28 -5 14 C-5.99 14 -6.98 14 -8 14 C-8.05 14.63 -8.1 15.25 -8.15 15.9 C-8.22 16.72 -8.3 17.53 -8.38 18.38 C-8.44 19.19 -8.51 20 -8.59 20.84 C-9 23 -9 23 -11 25 C-11 25.99 -11 26.98 -11 28 C-10.45 27.78 -9.89 27.57 -9.32 27.34 C-8.6 27.07 -7.87 26.79 -7.12 26.5 C-6.05 26.08 -6.05 26.08 -4.95 25.66 C-1.83 24.61 1.18 24.63 4.19 26 C4.79 26.33 5.38 26.66 6 27 C5.67 28.32 5.34 29.64 5 31 C6.32 30.67 7.64 30.34 9 30 C9 30.66 9 31.32 9 32 C10.21 32.19 10.21 32.19 11.44 32.38 C12.28 32.58 13.13 32.79 14 33 C14.33 33.66 14.66 34.32 15 35 C10.35 39.03 10.35 39.03 6.52 38.94 C4.79 38.69 3.07 38.4 1.37 38.07 C-1.7 37.98 -2.68 39.09 -5 41 C-7.89 40.86 -9.47 40.38 -11.81 38.69 C-13 37 -13 37 -13 33 C-13.66 32.67 -14.32 32.34 -15 32 C-14.24 20.89 -8.22 7.61 0 0 Z " fill="#F3EDDB" transform="translate(94,53)"/>
<path d="M0 0 C0 0.66 0 1.32 0 2 C-1.89 2.82 -3.79 3.63 -5.69 4.44 C-6.74 4.89 -7.8 5.34 -8.89 5.81 C-11.64 6.86 -14.08 7.63 -17 8 C-19.06 7.06 -19.06 7.06 -21 6 C-22.32 6 -23.64 6 -25 6 C-24.84 6.72 -24.67 7.44 -24.5 8.19 C-23.59 13.29 -23.59 13.29 -24 16 C-26.56 19.05 -28.21 20.74 -32 22 C-32.7 23.65 -33.37 25.32 -34 27 C-34.66 27.33 -35.32 27.66 -36 28 C-35.84 18.31 -34.9 9.57 -30 1 C-22.21 -5.13 -8.95 -2.47 0 0 Z " fill="#873F46" transform="translate(92,32)"/>
<path d="M0 0 C3.37 0.41 6.05 1.02 9.17 2.41 C13.26 4.21 17.4 5.19 21.75 6.12 C22.93 6.38 22.93 6.38 24.13 6.65 C30.06 7.9 35.94 8.73 42 9 C42.5 12.47 42.5 12.47 43 16 C33.08 15.56 23.63 13.28 14 11 C15.32 12.32 16.64 13.64 18 15 C10.83 14.67 5.23 11.35 -1 8 C-0.67 5.36 -0.34 2.72 0 0 Z " fill="#C3375E" transform="translate(55,191)"/>
<path d="M0 0 C-0.21 1.65 -0.42 3.3 -0.7 4.94 C-1.04 6.98 -1.04 6.98 -1.02 9 C-1.23 11.54 -1.58 12.85 -3 15 C-9.49 19.31 -16.49 22.01 -24 24 C-23.92 23.08 -23.83 22.17 -23.75 21.23 C-23.64 20.04 -23.54 18.85 -23.44 17.62 C-23.33 16.44 -23.23 15.26 -23.12 14.04 C-22.76 11.08 -22.76 11.08 -24 9 C-23.13 8.78 -23.13 8.78 -22.23 8.55 C-15.88 6.81 -10.29 4.29 -4.47 1.21 C-2 0 -2 0 0 0 Z " fill="#560D30" transform="translate(183,184)"/>
<path d="M0 0 C1.32 0.66 2.64 1.32 4 2 C3.81 3.88 3.81 3.88 3 6 C1.34 6.68 -0.33 7.35 -2 8 C-6.31 10.81 -8.7 12.77 -9.94 17.88 C-9.96 18.91 -9.98 19.94 -10 21 C-4.61 24.21 0.84 25.07 7 26 C7 25.01 7 24.02 7 23 C7.99 23 8.98 23 10 23 C12.6 26.37 13.36 28.77 13 33 C12.49 32.69 11.98 32.38 11.45 32.05 C8.23 30.67 5.24 30.47 1.75 30.12 C-4.27 29.43 -8.88 28.31 -14 25 C-16.55 21.18 -16.6 19.55 -16 15 C-12.53 8.05 -6.4 4.05 0 0 Z " fill="#120F1D" transform="translate(32,133)"/>
<path d="M0 0 C7.92 0 15.84 0 24 0 C24 11.25 24 11.25 22 15 C19.29 15.86 17.78 16.27 15 16 C8.61 12.58 3.79 7.1 0 1 C0 0.67 0 0.34 0 0 Z " fill="#D89666" transform="translate(145,224)"/>
<path d="M0 0 C2.44 6.83 3.42 12.75 3 20 C-3.11 20.33 -7.66 20.42 -13 17 C-14 16 -14 16 -14.12 12.94 C-13.3 7.34 -8.26 4.21 -4 1 C-2 0 -2 0 0 0 Z " fill="#F1EBE8" transform="translate(35,138)"/>
<path d="M0 0 C3.31 -0.09 6.62 -0.14 9.94 -0.19 C10.86 -0.21 11.79 -0.24 12.74 -0.26 C18.33 -0.32 22.63 0.36 27.85 2.33 C31.41 3.44 34.86 3.32 38.56 3.19 C39.29 3.17 40.01 3.16 40.75 3.15 C42.5 3.11 44.25 3.06 46 3 C44 5 44 5 40 6 C46.93 6.49 46.93 6.49 54 7 C54 7.33 54 7.66 54 8 C52.72 8.05 51.44 8.1 50.12 8.15 C48.42 8.22 46.71 8.3 45 8.38 C44.16 8.41 43.32 8.44 42.46 8.47 C35.24 8.8 28.84 10.27 22 12.62 C20.86 13.02 20.86 13.02 19.69 13.41 C19.13 13.61 18.57 13.8 18 14 C17.67 12.68 17.34 11.36 17 10 C19.91 8.74 21.8 8 25 8 C25 7.34 25 6.68 25 6 C23.7 5.88 22.4 5.76 21.05 5.63 C19.33 5.46 17.6 5.29 15.88 5.12 C15.02 5.05 14.16 4.97 13.28 4.89 C8.59 4.42 4.43 3.73 0 2 C0 1.34 0 0.68 0 0 Z " fill="#241D2B" transform="translate(67,26)"/>
<path d="M0 0 C0.99 0.66 1.98 1.32 3 2 C4.32 2 5.64 2 7 2 C7.33 1.34 7.66 0.68 8 0 C10.44 0.11 12.88 0.24 15.31 0.38 C16.35 0.42 16.35 0.42 17.4 0.47 C21.07 0.68 22.88 0.92 26 3 C25.16 2.99 24.31 2.98 23.45 2.96 C22.35 2.96 21.25 2.95 20.12 2.94 C19.03 2.93 17.94 2.91 16.82 2.9 C14.05 2.8 14.05 2.8 12 4 C13.98 5.65 15.96 7.3 18 9 C17.48 11.76 16.89 14.33 16 17 C14.21 17.03 12.42 17.05 10.62 17.06 C9.63 17.07 8.63 17.09 7.6 17.1 C5 17 5 17 3 16 C2.06 13.25 2.06 13.25 2 10 C4.44 7.12 4.44 7.12 7 5 C5.02 5 3.04 5 1 5 C1 4.34 1 3.68 1 3 C-5.44 3.5 -5.44 3.5 -12 4 C-10.68 3.34 -9.36 2.68 -8 2 C-4.75 -0.16 -3.76 -0.38 0 0 Z " fill="#F7E3D3" transform="translate(132,85)"/>
<path d="M0 0 C2.1 0.14 4.21 0.29 6.31 0.44 C8.07 0.56 8.07 0.56 9.86 0.68 C13 1 13 1 16 2 C21.09 2.33 26 2.03 31 1 C28.69 3.5 28.69 3.5 26 6 C25.01 6 24.02 6 23 6 C23 6.66 23 7.32 23 8 C0.77 18 0.77 18 -8 18 C-7.35 15.58 -7.35 15.58 -6 13 C-3.4 12.07 -3.4 12.07 -0.38 11.69 C0.63 11.55 1.63 11.41 2.66 11.26 C3.43 11.18 4.21 11.09 5 11 C5 10.34 5 9.68 5 9 C5.66 9 6.32 9 7 9 C7.33 6.69 7.66 4.38 8 2 C5.36 1.67 2.72 1.34 0 1 C0 0.67 0 0.34 0 0 Z " fill="#591035" transform="translate(155,175)"/>
<path d="M0 0 C0.33 0.66 0.66 1.32 1 2 C3.02 3.13 3.02 3.13 5 4 C5 7.67 5 11.33 5 15 C3.08 15.22 1.17 15.43 -0.75 15.62 C-1.82 15.74 -2.88 15.86 -3.98 15.98 C-7.04 16 -8.46 15.61 -11 14 C-11 12.02 -11 10.04 -11 8 C-11.66 7.67 -12.32 7.34 -13 7 C-12.51 6.57 -12.01 6.13 -11.5 5.69 C-9.67 4 -9.67 4 -10 1 C-3.38 0 -3.38 0 0 0 Z " fill="#F7E7DB" transform="translate(59,85)"/>
<path d="M0 0 C0.66 0 1.32 0 2 0 C2.33 0.99 2.66 1.98 3 3 C3.66 3 4.32 3 5 3 C5.66 2.34 6.32 1.68 7 1 C6.77 8.4 5.11 13.49 0 19 C-3.06 20.38 -3.06 20.38 -6 21 C-7.69 21.96 -9.37 22.94 -11 24 C-11.99 23.34 -12.98 22.68 -14 22 C-12.35 17.71 -9.26 15.12 -6 12 C-6.66 10.35 -7.32 8.7 -8 7 C-1.25 3 -1.25 3 1 3 C0.67 2.01 0.34 1.02 0 0 Z " fill="#1D0C1D" transform="translate(199,96)"/>
<path d="M0 0 C0.66 0.66 1.32 1.32 2 2 C1.67 2.33 1.34 2.66 1 3 C5.45 3.99 5.45 3.99 10 5 C10 5.33 10 5.66 10 6 C8.54 6.03 7.08 6.05 5.62 6.06 C4.81 6.07 4 6.09 3.16 6.1 C1 6 1 6 -1 5 C-7.04 4.57 -13.01 5.24 -19 6 C-19 6.66 -19 7.32 -19 8 C-18.34 8.33 -17.68 8.66 -17 9 C-21.46 9.5 -21.46 9.5 -26 10 C-26.33 8.68 -26.66 7.36 -27 6 C-29.64 5.67 -32.28 5.34 -35 5 C-34.67 4.34 -34.34 3.68 -34 3 C-33.11 3.06 -32.23 3.12 -31.31 3.19 C-27.66 3.21 -24.46 2.42 -20.94 1.5 C-14 -0.2 -7.12 -0.77 0 0 Z " fill="#DB9E66" transform="translate(167,36)"/>
<path d="M0 0 C-2.65 3.41 -5.57 3.83 -9.69 4.69 C-11.46 5.06 -11.46 5.06 -13.26 5.45 C-14.17 5.63 -15.07 5.81 -16 6 C-14.95 6.99 -14.95 6.99 -13.88 8 C-9.02 12.86 -4.49 18.56 -2 25 C-2.43 27.17 -2.43 27.17 -3 29 C-3.57 28.21 -4.14 27.43 -4.72 26.62 C-12.88 15.24 -12.88 15.24 -24 7 C-17.76 0.03 -8.8 -0.6 0 0 Z " fill="#240D18" transform="translate(178,44)"/>
<path d="M0 0 C0.34 6.96 -0.7 12.43 -3 19 C-3.66 19 -4.32 19 -5 19 C-6.38 17.03 -7.7 15.02 -9 13 C-11.26 9.99 -12.85 8.1 -16 6 C-16 5.34 -16 4.68 -16 4 C-5.74 0 -5.74 0 0 0 Z " fill="#EEE5DD" transform="translate(178,46)"/>
<path d="M0 0 C0.66 0 1.32 0 2 0 C2.06 1.26 2.12 2.52 2.19 3.81 C2.41 6.02 2.41 6.02 3 8 C5.25 9.72 5.25 9.72 8 11 C9.82 12.9 11.38 14.92 13 17 C11.96 19.74 11.03 20.98 8.69 22.81 C5.56 24.19 4.2 24.07 1 23 C0 22 0 22 -0.11 19.87 C-0.11 18.95 -0.1 18.03 -0.1 17.09 C-0.09 16.1 -0.09 15.11 -0.09 14.09 C-0.08 13.05 -0.07 12.01 -0.06 10.94 C-0.06 9.89 -0.05 8.85 -0.05 7.77 C-0.04 5.18 -0.02 2.59 0 0 Z " fill="#F6F2E3" transform="translate(59,216)"/>
<path d="M0 0 C-1.51 4.23 -4.16 5.86 -8 8 C-12.67 9.04 -17.29 9.18 -22.06 9.19 C-23.1 9.21 -23.1 9.21 -24.17 9.22 C-28.23 9.24 -31.34 8.8 -35 7 C-35 6.01 -35 5.02 -35 4 C-34.28 3.95 -33.57 3.9 -32.83 3.85 C-29.55 3.61 -26.28 3.37 -23 3.12 C-21.87 3.05 -20.75 2.97 -19.59 2.89 C-13.15 2.4 -6.3 0 0 0 Z " fill="#BD3759" transform="translate(157,210)"/>
<path d="M0 0 C1.23 0.01 1.23 0.01 2.48 0.03 C3.42 0.04 3.42 0.04 4.38 0.06 C6.49 4.34 6.62 8.2 6.5 12.88 C6.49 13.57 6.48 14.26 6.47 14.97 C6.45 16.67 6.41 18.37 6.38 20.06 C5.06 20.39 3.74 20.72 2.38 21.06 C2.31 20.36 2.25 19.67 2.19 18.95 C2.11 18.04 2.02 17.13 1.94 16.19 C1.86 15.28 1.78 14.38 1.69 13.45 C1.51 11.05 1.51 11.05 0.38 9.06 C-2.43 8.15 -2.43 8.15 -5.69 7.44 C-6.79 7.18 -7.9 6.92 -9.04 6.65 C-10.32 6.36 -10.32 6.36 -11.62 6.06 C-5.64 -0.08 -5.64 -0.08 0 0 Z " fill="#A68096" transform="translate(177.625,151.9375)"/>
<path d="M0 0 C2.12 1.62 2.12 1.62 3.12 3.62 C3.16 5.62 3.17 7.63 3.12 9.62 C-2.75 8.75 -2.75 8.75 -3.88 7.62 C-7.92 8.09 -11.89 8.78 -15.88 9.62 C-16.56 7.94 -16.56 7.94 -16.88 5.62 C-15.64 2.89 -14.53 1.12 -12.12 -0.69 C-7.74 -2.03 -4.14 -1.98 0 0 Z " fill="#180E1C" transform="translate(135.875,78.375)"/>
<path d="M0 0 C3.46 0.87 4.95 2.63 6.94 5.48 C7.25 8.8 7.25 8.8 6.94 11.48 C5.12 12.17 5.12 12.17 2.94 12.48 C1.94 11.48 0.94 10.48 -0.06 9.48 C-2.6 9.07 -2.6 9.07 -5.06 9.48 C-5.72 10.14 -6.38 10.8 -7.06 11.48 C-9.69 11.11 -9.69 11.11 -12.06 10.48 C-11.77 7.09 -11.04 5.45 -9 2.67 C-5.69 0.21 -4.03 -0.27 0 0 Z " fill="#0B041A" transform="translate(71.0625,76.515625)"/>
<path d="M0 0 C1.98 0.5 1.98 0.5 4 1 C4 1.66 4 2.32 4 3 C4.99 3.17 4.99 3.17 5.99 3.35 C9.78 4.17 13.43 5.28 17.12 6.44 C17.84 6.65 18.56 6.87 19.29 7.1 C22.56 8.11 25.14 9.09 28 11 C28 11.99 28 12.98 28 14 C22.51 14.26 18.14 13.44 12.94 11.75 C12.26 11.55 11.57 11.34 10.87 11.13 C6.34 9.69 2.84 7.8 -1 5 C-0.67 3.35 -0.34 1.7 0 0 Z " fill="#BA3B59" transform="translate(53,200)"/>
<path d="M0 0 C0 4.62 0 9.24 0 14 C-0.33 14 -0.66 14 -1 14 C-1 12.35 -1 10.7 -1 9 C-1.99 9.33 -2.98 9.66 -4 10 C-5.7 10.08 -7.4 10.11 -9.11 10.1 C-10.09 10.09 -11.07 10.09 -12.08 10.09 C-13.11 10.08 -14.13 10.07 -15.19 10.06 C-16.22 10.06 -17.26 10.05 -18.33 10.05 C-20.88 10.04 -23.44 10.02 -26 10 C-26 9.01 -26 8.02 -26 7 C-24.93 6.75 -23.85 6.49 -22.75 6.23 C-21.31 5.88 -19.87 5.54 -18.44 5.19 C-17.73 5.02 -17.03 4.86 -16.3 4.69 C-12.77 3.82 -9.48 2.85 -6.16 1.36 C-3 0 -3 0 0 0 Z " fill="#7E3844" transform="translate(170,215)"/>
<path d="M0 0 C0.33 0.99 0.66 1.98 1 3 C0.42 3.1 -0.16 3.2 -0.76 3.3 C-7.24 4.54 -11.61 6.48 -16.25 11.38 C-18.12 14.18 -19.1 16.76 -20 20 C-21.65 19.67 -23.3 19.34 -25 19 C-24.5 13.54 -23.46 9.87 -19.31 6.12 C-13.04 1.25 -7.95 -0.42 0 0 Z " fill="#BC3859" transform="translate(179,145)"/>
<path d="M0 0 C0.33 0 0.66 0 1 0 C1.57 18.34 1.57 18.34 -2 27 C-7.2 26.14 -10.99 24.16 -14.62 20.25 C-16.18 18.55 -16.18 18.55 -20 19 C-20 19.66 -20 20.32 -20 21 C-24.84 24.6 -29.86 27.68 -36 28 C-33.66 25.43 -31.19 23.8 -28.19 22.06 C-24.37 19.82 -20.66 17.5 -17 15 C-17 15.66 -17 16.32 -17 17 C-16.29 17.12 -15.58 17.24 -14.85 17.37 C-13.93 17.53 -13.01 17.7 -12.06 17.88 C-11.15 18.04 -10.23 18.2 -9.29 18.37 C-8.15 18.68 -8.15 18.68 -7 19 C-6.67 19.66 -6.34 20.32 -6 21 C-3.98 20.28 -3.98 20.28 -2 19 C-0.61 15.27 -0.66 11.19 -0.44 7.25 C-0.37 6.2 -0.37 6.2 -0.31 5.14 C-0.2 3.42 -0.1 1.71 0 0 Z " fill="#F1EBD9" transform="translate(228,117)"/>
<path d="M0 0 C-0.19 1.81 -0.19 1.81 -1 4 C-4.5 6.73 -8.42 7.86 -12.59 9.17 C-15.84 10.29 -18.88 11.78 -21.96 13.33 C-24.38 14.12 -25.63 13.83 -28 13 C-27.03 12.38 -26.06 11.76 -25.06 11.12 C-21.97 9.34 -21.97 9.34 -21 7 C-21.54 7.31 -22.07 7.62 -22.62 7.94 C-28.18 10.42 -34.04 10.12 -40 10 C-40 9.67 -40 9.34 -40 9 C-37.58 8.54 -35.17 8.08 -32.75 7.62 C-31.66 7.42 -31.66 7.42 -30.55 7.2 C-26.23 6.39 -21.91 5.69 -17.56 5.06 C-12.9 4.32 -9.04 2.95 -4.84 0.8 C-3 0 -3 0 0 0 Z " fill="#4D0F35" transform="translate(178,203)"/>
<path d="M0 0 C1.03 2.79 1.05 3.87 0.06 6.75 C-0.29 7.49 -0.64 8.24 -1 9 C0.65 9.33 2.3 9.66 4 10 C4 12.31 4 14.62 4 17 C2.35 16.67 0.7 16.34 -1 16 C-1 15.34 -1 14.68 -1 14 C-2.32 14 -3.64 14 -5 14 C-4.67 15.32 -4.34 16.64 -4 18 C-6.87 16.72 -9.15 15.58 -11 13 C-11.19 9.81 -11.19 9.81 -11 7 C-7.62 6.16 -5.33 5.89 -2 7 C-1.86 6.22 -1.71 5.43 -1.56 4.62 C-1 2 -1 2 0 0 Z " fill="#620C29" transform="translate(155,155)"/>
<path d="M0 0 C1.65 0 3.3 0 5 0 C2.49 5.77 2.49 5.77 -0.12 7 C-1.05 7.49 -1.05 7.49 -2 8 C-2.82 11.06 -2.82 11.06 -3 14 C-3.33 13.01 -3.66 12.02 -4 11 C-4.66 11 -5.32 11 -6 11 C-5.67 12.65 -5.34 14.3 -5 16 C-6.46 15.77 -7.92 15.52 -9.38 15.25 C-10.19 15.11 -11 14.97 -11.84 14.83 C-14 14 -14 14 -15.41 12.23 C-16 10 -16 10 -14 5 C-7.07 5.49 -7.07 5.49 0 6 C0 4.02 0 2.04 0 0 Z " fill="#D39660" transform="translate(86,56)"/>
<path d="M0 0 C5.28 0.66 10.56 1.32 16 2 C14.88 7.62 14.88 7.62 12.71 10.33 C12.27 10.9 11.82 11.47 11.36 12.06 C10.89 12.64 10.42 13.22 9.94 13.81 C9.47 14.41 8.99 15.01 8.51 15.62 C7.35 17.09 6.17 18.55 5 20 C3 17 3 17 3.39 14.91 C3.67 14.16 3.96 13.4 4.25 12.62 C4.54 11.83 4.83 11.04 5.13 10.23 C5.42 9.49 5.7 8.76 6 8 C6.39 6.99 6.78 5.98 7.19 4.94 C7.46 4.3 7.72 3.66 8 3 C7.24 2.88 6.47 2.75 5.69 2.62 C3 2 3 2 0 0 Z " fill="#7B3343" transform="translate(70,217)"/>
<path d="M0 0 C0.66 0.33 1.32 0.66 2 1 C4 1.04 6 1.04 8 1 C8.33 1.99 8.66 2.98 9 4 C3.25 4.12 3.25 4.12 1 3 C2.41 5.25 2.41 5.25 5 7 C8.08 7.06 10.99 6.59 14 6 C14 8.31 14 10.62 14 13 C7.5 13.46 3.58 12.33 -2 9 C-2.25 3.38 -2.25 3.38 0 0 Z " fill="#F7F3E8" transform="translate(165,159)"/>
<path d="M0 0 C0 4.29 0 8.58 0 13 C-5 14 -5 14 -7.02 13.07 C-7.91 12.39 -7.91 12.39 -8.81 11.69 C-9.42 11.24 -10.02 10.79 -10.64 10.32 C-11.09 9.89 -11.54 9.45 -12 9 C-12 8.34 -12 7.68 -12 7 C-10.14 5.27 -10.14 5.27 -7.69 3.38 C-6.89 2.74 -6.09 2.11 -5.26 1.46 C-3 0 -3 0 0 0 Z " fill="#F1E9D9" transform="translate(165,226)"/>
<path d="M0 0 C2.31 0 4.62 0 7 0 C7 0.99 7 1.98 7 3 C6.34 3 5.68 3 5 3 C5.33 3.66 5.66 4.32 6 5 C9.34 5.07 11.8 5.07 15 4 C15 5.32 15 6.64 15 8 C11.58 10.28 11 10.13 7.12 9.56 C3.41 9.09 0.66 9.22 -3 10 C-3.99 9.34 -4.98 8.68 -6 8 C-5.67 6.68 -5.34 5.36 -5 4 C-4.34 4 -3.68 4 -3 4 C-3 4.66 -3 5.32 -3 6 C-1.68 5.34 -0.36 4.68 1 4 C0.67 2.68 0.34 1.36 0 0 Z " fill="#232130" transform="translate(91,82)"/>
<path d="M0 0 C1.19 0.01 1.19 0.01 2.41 0.02 C3.2 0.01 3.99 0.01 4.81 0 C6.91 0.27 6.91 0.27 8.91 2.27 C8.72 4.77 8.72 4.77 7.91 7.27 C4.23 9.71 2.24 9.58 -2.09 9.27 C-4.09 7.27 -4.09 7.27 -4.34 4.77 C-4.02 1.57 -3.27 0.41 0 0 Z " fill="#B55561" transform="translate(141.09375,91.734375)"/>
<path d="M0 0 C0 0.66 0 1.32 0 2 C-6.2 3.83 -9.74 3.91 -16 2 C-23.35 1.05 -23.35 1.05 -29.86 3.52 C-30.42 4.25 -30.42 4.25 -31 5 C-30.38 2.62 -30.38 2.62 -29 0 C-19.92 -3.92 -9.29 -2.56 0 0 Z " fill="#C39885" transform="translate(92,32)"/>
<path d="M0 0 C-3.79 3.82 -7.8 3.55 -12.88 3.69 C-14.18 3.74 -14.18 3.74 -15.52 3.79 C-44 4.74 -44 4.74 -57 3 C-57 2.67 -57 2.34 -57 2 C-55.91 1.97 -54.81 1.95 -53.69 1.92 C-49.58 1.83 -45.47 1.73 -41.37 1.63 C-39.6 1.58 -37.83 1.54 -36.07 1.5 C-23.1 1.23 -23.1 1.23 -10.17 0.21 C-6.77 -0.12 -3.41 -0.06 0 0 Z " fill="#E6AAB0" transform="translate(129,143)"/>
<path d="M0 0 C0 0.66 0 1.32 0 2 C-0.99 2.5 -0.99 2.5 -2 3 C-1.67 3.33 -1.34 3.66 -1 4 C-0.86 7 -0.96 9.99 -1 13 C-4.3 13.33 -7.6 13.66 -11 14 C-12 10 -12 10 -11 7.56 C-8.4 4.23 -4.49 0 0 0 Z " fill="#F1F3E8" transform="translate(35,138)"/>
<path d="M0 0 C2 2 2 2 2.12 4.62 C2.08 5.41 2.04 6.19 2 7 C-1.4 9.09 -4.04 9.42 -8 9 C-9.88 7.75 -9.88 7.75 -11 6 C-11 4.68 -11 3.36 -11 2 C-6.93 -0.71 -4.84 -0.31 0 0 Z " fill="#B95B67" transform="translate(60,92)"/>
<path d="M0 0 C1 3 1 3 1 6 C4.3 6 7.6 6 11 6 C11 6.66 11 7.32 11 8 C3.74 8 -3.52 8 -11 8 C-11 7.01 -11 6.02 -11 5 C-11.99 4.34 -12.98 3.68 -14 3 C-13.67 2.34 -13.34 1.68 -13 1 C-12.67 1.33 -12.34 1.66 -12 2 C-9.97 2.2 -9.97 2.2 -7.62 2.19 C-6.44 2.21 -6.44 2.21 -5.23 2.23 C-2.71 2.15 -2.71 2.15 0 0 Z " fill="#201C30" transform="translate(73,237)"/>
<path d="M0 0 C14.85 0.33 29.7 0.66 45 1 C43 3 43 3 39.88 3.24 C38.57 3.24 37.26 3.23 35.91 3.23 C34.86 3.23 34.86 3.23 33.79 3.23 C32.31 3.23 30.82 3.22 29.34 3.21 C27.07 3.19 24.81 3.19 22.54 3.19 C11.44 3.15 11.44 3.15 8 2 C6.44 1.93 4.87 1.91 3.31 1.94 C2.5 1.95 1.7 1.96 0.86 1.96 C0.25 1.98 -0.37 1.99 -1 2 C-0.67 1.34 -0.34 0.68 0 0 Z " fill="#0F0417" transform="translate(64,141)"/>
<path d="M0 0 C1.94 0.31 3.88 0.62 5.81 0.94 C6.89 1.11 7.97 1.29 9.08 1.46 C12 2 12 2 15 3 C15.33 4.65 15.66 6.3 16 8 C14.75 7.97 14.75 7.97 13.47 7.93 C6.61 7.82 0.62 8.2 -6 10 C-5 8 -5 8 -2.5 7.15 C-1.49 6.89 -0.48 6.64 0.56 6.38 C2.36 5.92 4.15 5.47 6 5 C1.71 4.34 -2.58 3.68 -7 3 C-7 2.67 -7 2.34 -7 2 C-3.53 1.51 -3.53 1.51 0 1 C0 0.67 0 0.34 0 0 Z " fill="#CE9566" transform="translate(167,36)"/>
<path d="M0 0 C1.32 0.33 2.64 0.66 4 1 C5.28 8.03 6.28 16.15 4 23 C3.01 23 2.02 23 1 23 C0.67 15.41 0.34 7.82 0 0 Z " fill="#210218" transform="translate(189,148)"/>
<path d="M0 0 C2.8 2.8 3.16 6 4 9.75 C4.18 10.51 4.35 11.26 4.53 12.04 C5.89 18.05 6.77 24.02 7.41 30.14 C8.04 33.18 8.95 34.71 11 37 C7.35 35.75 6.22 35.33 4 32 C3.58 29.49 3.26 27.03 3 24.5 C2.35 18.72 1.54 13.04 0.37 7.33 C-0.02 4.85 -0.06 2.51 0 0 Z " fill="#E8C3C9" transform="translate(47,150)"/>
<path d="M0 0 C0.66 0 1.32 0 2 0 C2 0.66 2 1.32 2 2 C5.92 3.66 9.89 4.87 14 6 C14 6.66 14 7.32 14 8 C10.23 10.51 7.61 10.03 3.31 9.62 C2.61 9.57 1.91 9.51 1.19 9.45 C-0.54 9.31 -2.27 9.16 -4 9 C-4 8.67 -4 8.34 -4 8 C-2.35 8 -0.7 8 1 8 C0.67 5.36 0.34 2.72 0 0 Z " fill="#500B34" transform="translate(80,206)"/>
<path d="M0 0 C1.98 0 3.96 0 6 0 C5.45 4.18 3.1 6.6 0.44 9.75 C-0.8 11.23 -0.8 11.23 -2.07 12.73 C-2.7 13.48 -3.34 14.23 -4 15 C-5.32 14.34 -6.64 13.68 -8 13 C-6.56 9.26 -4.15 7.09 -1.24 4.46 C0.32 2.94 0.32 2.94 0 0 Z " fill="#803A51" transform="translate(193,105)"/>
<path d="M0 0 C1.32 0.6 2.64 1.2 4 1.81 C11.08 4.68 18.5 5.77 26 7 C26 7.33 26 7.66 26 8 C18.71 8.29 9.62 8.31 3 5 C3.16 5.6 3.31 6.21 3.47 6.83 C3.67 7.63 3.86 8.43 4.06 9.25 C4.26 10.04 4.46 10.83 4.66 11.64 C5.01 14.1 4.77 15.66 4 18 C3.67 16.35 3.34 14.7 3 13 C2.34 13 1.68 13 1 13 C0.67 8.71 0.34 4.42 0 0 Z " fill="#C16A82" transform="translate(45,137)"/>
<path d="M0 0 C6.6 0 13.2 0 20 0 C20 0.66 20 1.32 20 2 C18.68 2.33 17.36 2.66 16 3 C16 3.66 16 4.32 16 5 C21.28 5 26.56 5 32 5 C32 5.33 32 5.66 32 6 C23.59 6.5 23.59 6.5 15 7 C15 5.68 15 4.36 15 3 C13.24 3.06 13.24 3.06 11.44 3.12 C7.28 3.14 3.94 2.31 0 1 C0 0.67 0 0.34 0 0 Z " fill="#600828" transform="translate(106,208)"/>
<path d="M0 0 C1.6 -0.05 3.21 -0.09 4.81 -0.12 C5.71 -0.15 6.6 -0.17 7.52 -0.2 C10 0 10 0 13 2 C12.01 2.5 12.01 2.5 11 3 C24.86 3.5 24.86 3.5 39 4 C39 4.33 39 4.66 39 5 C34.75 5.02 30.5 5.04 26.25 5.05 C24.81 5.06 23.37 5.07 21.92 5.08 C14.22 5.12 6.65 5.09 -1 4 C-0.34 3.34 0.32 2.68 1 2 C0.67 1.34 0.34 0.68 0 0 Z " fill="#CFCEC9" transform="translate(68,137)"/>
<path d="M0 0 C0.73 1.98 1.39 3.98 2 6 C1.67 6.66 1.34 7.32 1 8 C-0.44 7.89 -1.88 7.76 -3.31 7.62 C-4.11 7.56 -4.91 7.49 -5.74 7.41 C-8 7 -8 7 -11 5 C-4.87 0 -4.87 0 0 0 Z " fill="#CF9C79" transform="translate(177,152)"/>
<path d="M0 0 C0.34 2.83 0.67 5.67 1 8.5 C1.1 9.29 1.19 10.08 1.29 10.9 C1.87 15.97 2.09 20.89 2 26 C-0.91 23.09 -0.94 19.67 -1.56 15.75 C-1.75 14.62 -1.75 14.62 -1.94 13.47 C-2.3 11.32 -2.65 9.16 -3 7 C-3.33 5 -3.67 3 -4 1 C-1 0 -1 0 0 0 Z " fill="#964867" transform="translate(42,134)"/>
<path d="M0 0 C0.66 0.66 1.32 1.32 2 2 C1.41 2.06 0.82 2.11 0.22 2.17 C-2.5 2.42 -5.22 2.68 -7.94 2.94 C-8.86 3.02 -9.79 3.11 -10.74 3.2 C-16.5 3.75 -22.25 4.35 -28 5 C-27 3 -27 3 -24.55 2.15 C-16.39 0.2 -8.4 -0.9 0 0 Z " fill="#E2D1BF" transform="translate(167,36)"/>
<path d="M0 0 C5.28 0 10.56 0 16 0 C15.34 1.32 14.68 2.64 14 4 C8.78 4.18 4.93 3.97 0 2 C0 1.34 0 0.68 0 0 Z " fill="#5F5D5B" transform="translate(67,26)"/>
<path d="M0 0 C0.99 0.33 1.98 0.66 3 1 C4.06 3.69 4.06 3.69 5 7 C5.35 8.01 5.7 9.02 6.06 10.06 C6.91 12.7 7.52 15.27 8 18 C7.34 18.33 6.68 18.66 6 19 C6 18.01 6 17.02 6 16 C4.02 15.34 2.04 14.68 0 14 C0.33 13.01 0.66 12.02 1 11 C1.33 11 1.66 11 2 11 C1.4 7.32 0.75 3.65 0 0 Z " fill="#3A2B38" transform="translate(29,100)"/>
<path d="M0 0 C0.99 0 1.98 0 3 0 C3.37 10.56 3.37 10.56 1 15 C0.34 15 -0.32 15 -1 15 C-1.03 12.69 -1.05 10.38 -1.06 8.06 C-1.07 6.77 -1.09 5.49 -1.1 4.16 C-1 1 -1 1 0 0 Z " fill="#A48399" transform="translate(166,224)"/>
<path d="M0 0 C3.04 -0.08 5.07 0.02 8 1 C7.66 9.23 7.66 9.23 5.25 12.06 C2.67 13.14 0.77 13.23 -2 13 C-1.17 12.42 -0.35 11.84 0.5 11.25 C1.33 10.51 2.15 9.76 3 9 C3 4.72 2.29 3.44 0 0 Z " fill="#D7996D" transform="translate(67,227)"/>
<path d="M0 0 C0.2 3.72 0.15 4.77 -2 8 C-5.62 8.69 -5.62 8.69 -9 9 C-6.67 6.67 -4.33 4.33 -2 2 C-2.54 2.31 -3.07 2.62 -3.62 2.94 C-9.18 5.42 -15.04 5.12 -21 5 C-21 4.67 -21 4.34 -21 4 C-19.88 3.8 -18.76 3.59 -17.61 3.38 C-16.13 3.11 -14.66 2.83 -13.19 2.56 C-12.45 2.43 -11.71 2.29 -10.95 2.15 C-7.34 1.48 -3.63 0 0 0 Z " fill="#730D2B" transform="translate(159,208)"/>
<path d="M0 0 C-1.25 0.48 -2.5 0.96 -3.75 1.44 C-4.79 1.84 -4.79 1.84 -5.86 2.25 C-10.13 3.75 -13.7 4.11 -18.25 4.06 C-19.33 4.05 -20.41 4.04 -21.52 4.04 C-22.34 4.02 -23.16 4.01 -24 4 C-24 3.34 -24 2.68 -24 2 C-20.75 1.47 -17.5 0.95 -14.25 0.44 C-13.33 0.29 -12.41 0.13 -11.46 -0.02 C-10.13 -0.23 -10.13 -0.23 -8.77 -0.44 C-7.95 -0.57 -7.13 -0.7 -6.29 -0.84 C-3.94 -1 -2.24 -0.7 0 0 Z " fill="#B14362" transform="translate(153,140)"/>
<path d="M0 0 C-3.27 2.18 -6.38 3.5 -10 5 C-10 5.66 -10 6.32 -10 7 C-9.01 7.66 -8.02 8.32 -7 9 C-7.66 9.66 -8.32 10.32 -9 11 C-11.62 10.62 -11.62 10.62 -14 10 C-13.71 6.61 -12.98 4.97 -10.94 2.19 C-6.96 -0.78 -4.86 -0.41 0 0 Z " fill="#311C19" transform="translate(73,77)"/>
<path d="M0 0 C0 0.99 0 1.98 0 3 C-1.07 3.25 -2.15 3.49 -3.25 3.75 C-7 5 -8.52 6.02 -11 9 C-13 7.62 -13 7.62 -15 6 C-15 5.34 -15 4.68 -15 4 C-4.74 0 -4.74 0 0 0 Z " fill="#9F8998" transform="translate(177,46)"/>
<path d="M0 0 C5.75 -0.12 5.75 -0.12 8 1 C8 2.32 8 3.64 8 5 C6.68 5 5.36 5 4 5 C4 5.66 4 6.32 4 7 C2.68 6.67 1.36 6.34 0 6 C-1.12 2.25 -1.12 2.25 0 0 Z " fill="#CF3C5A" transform="translate(53,93)"/>
<path d="M0 0 C1.46 0.11 2.92 0.24 4.38 0.38 C5.59 0.48 5.59 0.48 6.84 0.59 C9 1 9 1 11 3 C9.68 3.33 8.36 3.66 7 4 C7 4.66 7 5.32 7 6 C2.55 5.01 2.55 5.01 -2 4 C-1.34 2.68 -0.68 1.36 0 0 Z " fill="#29212B" transform="translate(83,26)"/>
<path d="M0 0 C0.33 0.99 0.66 1.98 1 3 C0.01 3.33 -0.98 3.66 -2 4 C-2 4.66 -2 5.32 -2 6 C-6.84 9.6 -11.86 12.68 -18 13 C-15.65 10.41 -13.15 8.8 -10.12 7.06 C-6.5 4.94 -3.18 2.76 0 0 Z " fill="#E9D5BD" transform="translate(210,132)"/>
<path d="M0 0 C1.9 0.55 1.9 0.55 4.52 1.55 C4.52 1.88 4.52 2.21 4.52 2.55 C-3.4 2.22 -11.32 1.89 -19.48 1.55 C-14.08 -2.05 -6.26 -1.14 0 0 Z " fill="#EEDDD2" transform="translate(85.4765625,30.453125)"/>
<path d="M0 0 C1.23 0.15 1.23 0.15 2.48 0.31 C3.42 0.43 3.42 0.43 4.38 0.56 C4.38 3.2 4.38 5.84 4.38 8.56 C4.04 7.9 3.72 7.24 3.38 6.56 C2.38 6.23 1.4 5.9 0.38 5.56 C0.04 4.9 -0.28 4.24 -0.62 3.56 C-3.65 2.9 -3.65 2.9 -6.62 2.56 C-6.62 1.9 -6.62 1.24 -6.62 0.56 C-4.1 -0.7 -2.77 -0.36 0 0 Z " fill="#18021F" transform="translate(181.625,148.4375)"/>
<path d="M0 0 C3.26 3.03 5.57 6.28 8 10 C8.66 10.66 9.32 11.32 10 12 C7.36 12 4.72 12 2 12 C1.34 10.02 0.68 8.04 0 6 C0.33 5.67 0.66 5.34 1 5 C0.71 3.32 0.38 1.66 0 0 Z " fill="#352C3E" transform="translate(41,125)"/>
<path d="M0 0 C2.31 0.33 4.62 0.66 7 1 C7 2.32 7 3.64 7 5 C1.25 6.12 1.25 6.12 -1 5 C-0.67 3.35 -0.34 1.7 0 0 Z " fill="#D23C57" transform="translate(140,94)"/>
<path d="M0 0 C6.22 0.59 6.22 0.59 9 2.06 C10.7 5.36 9.64 8.42 9 12 C8.34 12 7.68 12 7 12 C7 12.66 7 13.32 7 14 C6.01 13.67 5.02 13.34 4 13 C5.32 9.7 6.64 6.4 8 3 C6.35 2.67 4.7 2.34 3 2 C2.01 1.34 1.02 0.68 0 0 Z " fill="#923E33" transform="translate(70,217)"/>
<path d="M0 0 C0 0.33 0 0.66 0 1 C-0.62 1.07 -1.23 1.15 -1.87 1.23 C-8.84 2.31 -13.41 4.79 -19 9 C-20.49 9.99 -20.49 9.99 -22 11 C-19.66 5.55 -16.49 3.03 -11.12 0.69 C-7.05 -0.86 -4.28 -1.35 0 0 Z " fill="#830B24" transform="translate(178,144)"/>
<path d="M0 0 C0.99 1.49 0.99 1.49 2 3 C7.06 5.99 12.18 7.5 18 8 C18 8.33 18 8.66 18 9 C11.49 9.35 6.8 9.08 1 6 C0 5 0 5 -0.06 2.44 C-0.04 1.63 -0.02 0.83 0 0 Z " fill="#917D8A" transform="translate(162,165)"/>
<path d="M0 0 C0 1.32 0 2.64 0 4 C-10.56 4.37 -10.56 4.37 -15 2 C-15 1.67 -15 1.34 -15 1 C-12.88 0.83 -10.75 0.67 -8.62 0.5 C-7.44 0.41 -6.26 0.31 -5.04 0.22 C-3.36 0.1 -1.68 0 0 0 Z " fill="#937E93" transform="translate(38,154)"/>
<path d="M0 0 C2.34 0.29 4.67 0.62 7 1 C7 2.32 7 3.64 7 5 C4.03 5 1.06 5 -2 5 C-1 1 -1 1 0 0 Z " fill="#3B180D" transform="translate(125,64)"/>
<path d="M0 0 C-3.33 3.04 -5.61 3.38 -10.06 3.31 C-11.11 3.31 -12.15 3.3 -13.22 3.3 C-16 3 -16 3 -19 1 C-12.64 0.35 -6.4 -0.12 0 0 Z " fill="#CF7A90" transform="translate(129,143)"/>
<path d="M0 0 C3.68 0.6 7.35 1.25 11 2 C11 2.66 11 3.32 11 4 C11.99 4.33 12.98 4.66 14 5 C10.04 5 6.08 5 2 5 C2 4.01 2 3.02 2 2 C1.34 2 0.68 2 0 2 C0 1.34 0 0.68 0 0 Z " fill="#BE886E" transform="translate(59,214)"/>
<path d="M0 0 C2.47 0.5 2.47 0.5 5 1 C5.33 3.31 5.66 5.62 6 8 C4.35 7.67 2.7 7.34 1 7 C0.67 4.69 0.34 2.38 0 0 Z " fill="#A2375D" transform="translate(98,200)"/>
<path d="M0 0 C3.31 1.5 3.31 1.5 6 3 C3 5 3 5 1 5 C1 4.34 1 3.68 1 3 C-5.44 3.5 -5.44 3.5 -12 4 C-10.68 3.34 -9.36 2.68 -8 2 C-4.69 -0.21 -3.83 -0.45 0 0 Z " fill="#D5D5D5" transform="translate(132,85)"/>
<path d="M0 0 C2.97 0.5 2.97 0.5 6 1 C6 2.98 6 4.96 6 7 C4.68 7.33 3.36 7.66 2 8 C1.01 6.68 0.02 5.36 -1 4 C-0.01 4 0.98 4 2 4 C2 3.34 2 2.68 2 2 C1.34 2 0.68 2 0 2 C0 1.34 0 0.68 0 0 Z " fill="#201C28" transform="translate(72,81)"/>
<path d="M0 0 C0.7 0.72 1.4 1.44 2.12 2.19 C4.93 5 7.92 7.5 11 10 C10.34 10.66 9.68 11.32 9 12 C7 10 7 10 6 8 C5.67 8.66 5.34 9.32 5 10 C4.34 10 3.68 10 3 10 C3 9.34 3 8.68 3 8 C2.34 7.67 1.68 7.34 1 7 C1 6.34 1 5.68 1 5 C0.68 3.33 0.35 1.66 0 0 Z " fill="#311C24" transform="translate(147,228)"/>
<path d="M0 0 C2.47 0.5 2.47 0.5 5 1 C5 3.31 5 5.62 5 8 C3.35 7.67 1.7 7.34 0 7 C0 4.69 0 2.38 0 0 Z " fill="#64143D" transform="translate(154,164)"/>
<path d="M0 0 C2.56 0.19 2.56 0.19 4.56 2.19 C4.56 3.18 4.56 4.17 4.56 5.19 C1.92 5.19 -0.72 5.19 -3.44 5.19 C-3.44 0.26 -3.44 0.26 0 0 Z " fill="#3B140C" transform="translate(74.4375,63.8125)"/>
<path d="M0 0 C1.14 4.55 0.43 6.63 -1 11 C-1.99 11 -2.98 11 -4 11 C-4.66 12.65 -5.32 14.3 -6 16 C-6.66 14.68 -7.32 13.36 -8 12 C-7.34 12 -6.68 12 -6 12 C-6.33 11.01 -6.66 10.02 -7 9 C-5.35 9.33 -3.7 9.66 -2 10 C-1.34 6.7 -0.68 3.4 0 0 Z " fill="#BE9483" transform="translate(228,134)"/>
<path d="M0 0 C1.94 0.31 3.88 0.62 5.81 0.94 C6.89 1.11 7.97 1.29 9.08 1.46 C12 2 12 2 15 3 C15.33 4.65 15.66 6.3 16 8 C15.01 8 14.02 8 13 8 C12.67 7.01 12.34 6.02 12 5 C9.21 3.75 9.21 3.75 5.94 2.81 C4.83 2.47 3.73 2.12 2.59 1.77 C1.31 1.39 1.31 1.39 0 1 C0 0.67 0 0.34 0 0 Z " fill="#BA8778" transform="translate(167,36)"/>
<path d="M0 0 C0.33 0 0.66 0 1 0 C1.33 5.61 1.66 11.22 2 17 C-1.26 13.74 -0.85 9.45 -1 5 C-0.56 1.88 -0.56 1.88 0 0 Z " fill="#793A58" transform="translate(42,143)"/>
<path d="M0 0 C0.66 0 1.32 0 2 0 C2 0.66 2 1.32 2 2 C3.98 1.67 5.96 1.34 8 1 C7.67 1.66 7.34 2.32 7 3 C5.68 3 4.36 3 3 3 C3 3.66 3 4.32 3 5 C3.99 5.33 4.98 5.66 6 6 C3.03 5.5 3.03 5.5 0 5 C-0.56 3.06 -0.56 3.06 -1 1 C-0.67 0.67 -0.34 0.34 0 0 Z " fill="#38373A" transform="translate(86,86)"/>
<path d="M0 0 C1.94 0.5 1.94 0.5 4 2 C4.69 4.7 4.82 7.2 5 10 C1.92 7.23 0.31 4.94 -1 1 C-0.67 0.67 -0.34 0.34 0 0 Z " fill="#130F1B" transform="translate(31,114)"/>
<path d="M0 0 C0.66 0.33 1.32 0.66 2 1 C1.69 2.88 1.69 2.88 1 5 C-2.23 7.15 -3.28 7.2 -7 7 C-6.22 6.4 -5.43 5.8 -4.62 5.19 C-1.85 3.09 -1.85 3.09 0 0 Z " fill="#9F8490" transform="translate(72,233)"/>
<path d="M0 0 C5.94 0 11.88 0 18 0 C18 0.66 18 1.32 18 2 C17.01 2.33 16.02 2.66 15 3 C14.34 2.67 13.68 2.34 13 2 C10.8 1.77 8.59 1.59 6.38 1.44 C5.19 1.35 4 1.27 2.77 1.18 C1.4 1.09 1.4 1.09 0 1 C0 0.67 0 0.34 0 0 Z " fill="#8D0C36" transform="translate(108,208)"/>
<path d="M0 0 C0.62 0.77 0.62 0.77 1.25 1.56 C-6.79 3.84 -6.79 3.84 -10.75 2.56 C-2.95 -2.42 -2.95 -2.42 0 0 Z " fill="#A08398" transform="translate(153.75,133.4375)"/>
<path d="M0 0 C0.66 0 1.32 0 2 0 C2.19 1.46 2.38 2.92 2.56 4.38 C2.67 5.19 2.77 6 2.88 6.84 C3 9 3 9 2 11 C1.34 11 0.68 11 0 11 C0 7.37 0 3.74 0 0 Z " fill="#EEDAC3" transform="translate(59,216)"/>
<path d="M0 0 C0 0.99 0 1.98 0 3 C-6.93 2.5 -6.93 2.5 -14 2 C-14 1.67 -14 1.34 -14 1 C-12.23 0.83 -10.46 0.67 -8.69 0.5 C-7.7 0.41 -6.72 0.31 -5.7 0.22 C-3 0 -3 0 0 0 Z " fill="#312F3F" transform="translate(129,139)"/>
<path d="M0 0 C0.99 0 1.98 0 3 0 C3.66 1.98 4.32 3.96 5 6 C2.53 5.01 2.53 5.01 0 4 C0 2.68 0 1.36 0 0 Z " fill="#940729" transform="translate(74,179)"/>
<path d="M0 0 C0.66 0 1.32 0 2 0 C2.33 2.97 2.66 5.94 3 9 C0 6 0 6 -0.19 2.81 C-0.13 1.88 -0.06 0.96 0 0 Z " fill="#D0D2D3" transform="translate(35,143)"/>
<path d="M0 0 C0.66 0.33 1.32 0.66 2 1 C2 1.66 2 2.32 2 3 C-0.64 3.33 -3.28 3.66 -6 4 C-3.95 1.75 -2.99 1 0 0 Z " fill="#080617" transform="translate(38,88)"/>
<path d="M0 0 C0.66 0 1.32 0 2 0 C2.33 1.32 2.66 2.64 3 4 C0.69 4.33 -1.62 4.66 -4 5 C-4 4.34 -4 3.68 -4 3 C-2.68 2.34 -1.36 1.68 0 1 C0 0.67 0 0.34 0 0 Z " fill="#0C0A1A" transform="translate(93,86)"/>
<path d="" fill="#800000" transform="translate(0,0)"/>
</svg>
