<?xml version="1.0" encoding="UTF-8"?>
<!-- Generator: https://ezgif.com/png-to-svg -->
<svg version="1.1" xmlns="http://www.w3.org/2000/svg" width="512" height="512" viewBox="-37.253 -36.795 673.59 673.59" preserveAspectRatio="xMidYMid meet">
<path d="M0 0 C1.14 -0 1.14 -0 2.31 -0 C16.84 0.01 31.06 1.1 45.44 3.25 C46.37 3.38 47.3 3.52 48.25 3.66 C115.11 13.56 180.16 48.94 224.44 100.25 C225.09 100.96 225.74 101.67 226.41 102.41 C241.01 118.4 252.61 136.58 263.44 155.25 C263.81 155.89 264.19 156.53 264.57 157.19 C289.25 199.79 300.65 250.91 300.69 299.81 C300.69 301.03 300.69 301.03 300.69 302.27 C300.63 348.19 290.51 395.62 268.53 436.22 C267.3 438.51 266.09 440.8 264.88 443.1 C256.48 458.9 246.55 473.25 235.44 487.25 C234.7 488.18 233.96 489.12 233.2 490.08 C220.78 505.52 207.03 519.99 191.44 532.25 C190.27 533.2 189.11 534.16 187.95 535.12 C179.45 542.08 170.73 548.4 161.44 554.25 C160.69 554.72 159.94 555.2 159.17 555.69 C124.98 577.2 87.19 590.57 47.44 597.25 C46.68 597.38 45.92 597.5 45.14 597.64 C30.75 600 16.36 600.49 1.81 600.5 C0.96 600.5 0.1 600.5 -0.78 600.5 C-15.89 600.49 -30.61 599.54 -45.56 597.25 C-46.51 597.11 -47.45 596.97 -48.43 596.83 C-98.81 589.23 -146.98 567.11 -186.56 535.25 C-187.88 534.22 -187.88 534.22 -189.23 533.16 C-207.81 518.4 -224.32 501.2 -238.56 482.25 C-239.23 481.37 -239.91 480.5 -240.6 479.6 C-276.21 432.14 -298 372.68 -299.56 313.25 C-299.58 312.45 -299.61 311.66 -299.63 310.83 C-300.73 263.04 -291.52 216.68 -271.56 173.25 C-270.99 172.01 -270.99 172.01 -270.41 170.74 C-259.41 147.07 -244.72 123.58 -226.72 104.55 C-224.88 102.58 -223.11 100.58 -221.36 98.54 C-217.35 93.95 -213.12 89.62 -208.81 85.31 C-208.02 84.52 -207.23 83.73 -206.41 82.91 C-200.72 77.28 -194.89 72.16 -188.56 67.25 C-187.78 66.58 -187 65.9 -186.19 65.21 C-171.8 52.86 -155.3 43.05 -138.56 34.25 C-137.93 33.91 -137.29 33.57 -136.63 33.21 C-94.83 10.78 -47.27 0.04 0 0 Z " fill="#ECEDEF" transform="translate(299.5625,-0.25)"/>
<path d="M0 0 C0.75 -0 1.5 -0.01 2.27 -0.01 C20.39 -0.01 37.56 2.68 54.81 8.31 C55.75 8.62 56.69 8.92 57.66 9.23 C59.71 9.91 61.76 10.61 63.81 11.31 C59.35 22.49 44.13 28.86 33.81 33.31 C23.95 36.16 13.64 35.16 4.66 30.41 C4.05 30.05 3.44 29.68 2.81 29.31 C7.78 35.52 12.45 40.16 19.81 43.31 C20.66 43.68 21.51 44.04 22.38 44.42 C41.28 49.34 61.14 43.53 78.93 37.27 C81.81 36.31 81.81 36.31 83.81 36.31 C84.08 35.61 84.35 34.91 84.62 34.19 C85.88 31.15 87.31 28.24 88.81 25.31 C89.8 25.31 90.79 25.31 91.81 25.31 C91.81 27.29 91.81 29.27 91.81 31.31 C92.47 30.98 93.13 30.65 93.81 30.31 C97.74 29.84 99.46 30.1 102.88 32.18 C104.39 33.39 104.39 33.39 105.94 34.62 C106.95 35.43 107.96 36.23 109.01 37.05 C109.93 37.8 110.86 38.54 111.81 39.31 C112.99 40.02 112.99 40.02 114.2 40.75 C115.81 42.31 115.81 42.31 115.98 45.01 C115.85 46 115.71 46.98 115.56 48 C115.43 48.99 115.3 49.99 115.17 51.01 C114.99 52.15 114.99 52.15 114.81 53.31 C90.51 59.41 90.51 59.41 80.04 60.82 C75.59 61.5 71.21 62.41 66.81 63.31 C65.4 63.6 63.99 63.89 62.58 64.18 C58.44 65.02 54.3 65.87 50.16 66.72 C46.73 67.42 43.3 68.12 39.87 68.82 C37.4 69.33 34.92 69.85 32.44 70.36 C29.51 70.97 26.58 71.55 23.63 72.09 C22.4 72.33 21.16 72.57 19.89 72.82 C18.83 73.01 17.76 73.21 16.67 73.41 C13.34 74.46 11.36 75.94 8.81 78.31 C7.07 81.8 7.23 85.51 7.81 89.31 C9.52 92.39 11.62 94.72 14.81 96.31 C21.07 96.65 26.6 95.71 32.69 94.31 C34.37 93.94 36.06 93.56 37.74 93.19 C38.48 93.02 39.21 92.85 39.97 92.68 C41.81 92.31 41.81 92.31 43.81 92.31 C42.25 95.48 40.61 98.6 38.95 101.71 C38.39 102.77 37.83 103.83 37.26 104.92 C36.1 107.11 34.94 109.29 33.78 111.48 C27.9 122.65 23.59 133.92 20.62 146.19 C20.37 147.22 20.12 148.25 19.85 149.32 C18.16 156.38 16.9 163.36 16.14 170.58 C15.81 173.31 15.81 173.31 14.81 176.31 C9.3 213.71 13.92 252.81 36.75 283.69 C45.81 295.61 56.2 303.31 70.81 307.31 C75.27 307.87 79.69 307.96 84.19 308 C86.47 308.04 88.74 308.09 91.02 308.14 C92.13 308.16 93.24 308.18 94.39 308.2 C99.88 308.38 105.34 308.83 110.81 309.31 C110.81 309.97 110.81 310.63 110.81 311.31 C109.41 312.55 109.41 312.55 107.45 313.92 C106.73 314.43 106.01 314.93 105.27 315.45 C104.5 315.98 103.73 316.52 102.94 317.06 C102.16 317.6 101.38 318.14 100.58 318.69 C99.03 319.76 97.48 320.82 95.93 321.87 C94.17 323.07 92.42 324.29 90.67 325.51 C89.83 326.06 88.99 326.62 88.12 327.19 C87.42 327.66 86.71 328.13 85.99 328.62 C82.7 329.67 80.94 328.68 77.81 327.31 C75.38 326.01 73.04 324.68 70.69 323.25 C70.03 322.85 69.38 322.46 68.7 322.05 C62.44 318.19 56.59 313.87 50.81 309.31 C49.95 308.65 49.08 307.99 48.19 307.31 C19.83 285.07 -5.18 251.53 -13.99 216.07 C-14.22 212.92 -13.89 212.1 -11.88 209.75 C-6.65 203.5 -6.52 197.19 -7.19 189.31 C-8.12 185.27 -9.74 182.73 -12.81 179.88 C-16.07 176.36 -15.95 174.03 -16.19 169.31 C-14.8 168.51 -14.8 168.51 -13.38 167.69 C-9.81 165.03 -8.63 163.48 -7.19 159.31 C-6.4 153.84 -7.31 150.11 -10.19 145.31 C-11.12 145.39 -12.04 145.48 -13 145.56 C-16.19 145.31 -16.19 145.31 -17.76 143.66 C-19.39 140.98 -20.3 138.44 -21.24 135.44 C-21.61 134.29 -21.98 133.14 -22.36 131.95 C-23.11 129.56 -23.86 127.16 -24.61 124.77 C-27.87 114.63 -31.45 104.44 -38.94 96.62 C-39.7 95.82 -40.45 95.01 -41.23 94.18 C-43.05 92.26 -43.05 92.26 -45.19 91.31 C-45.26 92.65 -45.26 92.65 -45.34 94.02 C-45.78 101.28 -46.51 108.24 -48.19 115.31 C-50.76 114.74 -52.48 114.14 -54.81 112.81 C-59.23 110.85 -63.4 110.59 -68.19 110.31 C-68.19 111.3 -68.19 112.29 -68.19 113.31 C-67.37 113.55 -67.37 113.55 -66.54 113.79 C-59.91 115.84 -53.57 118.52 -48.18 122.97 C-46.04 124.69 -46.04 124.69 -42.19 124.31 C-42.85 123.65 -43.51 122.99 -44.19 122.31 C-43.81 117.09 -41.92 112.22 -40.19 107.31 C-36.9 109.96 -35.82 113.37 -34.45 117.22 C-34.2 117.9 -33.94 118.58 -33.69 119.28 C-32.89 121.45 -32.1 123.63 -31.31 125.81 C-30.28 128.66 -29.24 131.5 -28.2 134.34 C-27.94 135.03 -27.69 135.71 -27.43 136.42 C-25.29 142.18 -22.85 147.77 -20.19 153.31 C-19.22 153.13 -18.25 152.94 -17.25 152.75 C-15.73 152.53 -15.73 152.53 -14.19 152.31 C-13.19 153.31 -13.19 153.31 -12.94 156.19 C-13.19 159.31 -13.19 159.31 -14.38 161.19 C-16.91 162.76 -18.25 162.89 -21.19 162.31 C-23.5 159.81 -23.5 159.81 -25.19 157.31 C-25.19 161.55 -23.93 165.33 -22.84 169.4 C-22.19 172.31 -22.19 172.31 -22.19 176.31 C-25.65 177.3 -25.65 177.3 -29.19 178.31 C-29.31 177.51 -29.44 176.71 -29.57 175.89 C-32.34 152.58 -32.34 152.58 -41.19 131.31 C-41.52 133.62 -41.85 135.93 -42.19 138.31 C-43.29 136.19 -44.23 134.19 -44.95 131.9 C-46.48 128.7 -48.13 127.53 -51.06 125.56 C-51.93 124.97 -52.79 124.38 -53.68 123.77 C-55.93 122.46 -57.65 121.76 -60.19 121.31 C-60.48 121.95 -60.76 122.59 -61.06 123.25 C-62.19 125.31 -62.19 125.31 -64.19 126.31 C-65.73 126.23 -67.28 126.07 -68.81 125.88 C-69.63 125.77 -70.45 125.67 -71.29 125.57 C-72.23 125.44 -72.23 125.44 -73.19 125.31 C-73.08 126.36 -72.98 127.42 -72.88 128.5 C-73.19 132.31 -73.19 132.31 -75.44 135.12 C-80.18 138.9 -82.98 139.94 -89.19 139.31 C-94.11 137.41 -97.13 134.61 -100.19 130.31 C-100.85 129.65 -101.51 128.99 -102.19 128.31 C-102.85 129.3 -103.51 130.29 -104.19 131.31 C-105.51 130.98 -106.83 130.65 -108.19 130.31 C-108.19 128 -108.19 125.69 -108.19 123.31 C-109.18 123.81 -109.18 123.81 -110.19 124.31 C-110.56 128.97 -110.65 132.36 -108.56 136.62 C-106.28 139.45 -106.28 139.45 -103.06 141.31 C-99.65 143.69 -99.09 145.33 -98.19 149.31 C-97.53 147.66 -96.87 146.01 -96.19 144.31 C-95.2 144.64 -94.21 144.97 -93.19 145.31 C-92.69 147.79 -92.69 147.79 -92.19 150.31 C-91.53 150.31 -90.87 150.31 -90.19 150.31 C-89.86 148.66 -89.53 147.01 -89.19 145.31 C-86.29 145.78 -83.42 146.26 -80.56 146.94 C-78.05 147.33 -76.6 146.99 -74.19 146.31 C-73.79 158.85 -73.79 158.85 -76.19 163.31 C-78.86 164.93 -80.34 165.43 -83.44 165 C-85.19 164.31 -85.19 164.31 -86.19 163.31 C-86.85 164.3 -87.51 165.29 -88.19 166.31 C-88.85 166.31 -89.51 166.31 -90.19 166.31 C-91.18 163.84 -91.18 163.84 -92.19 161.31 C-96.36 166.39 -96.8 170.87 -96.19 177.31 C-93.39 180.3 -90.54 180.52 -86.62 180.69 C-80.6 180.52 -74.95 178.98 -69.19 177.31 C-67.34 180.43 -66.7 182.69 -67.19 186.31 C-68.61 188.3 -68.61 188.3 -70.5 190.19 C-76.24 196.44 -77.78 201.9 -77.53 210.3 C-77.02 214.76 -76.03 218.78 -73.19 222.31 C-72.02 222.74 -70.84 223.16 -69.64 223.6 C-67.74 224.67 -67.74 224.67 -66.19 226.31 C-65.12 230.72 -65.33 235.11 -65.43 239.62 C-65.43 240.97 -65.43 242.33 -65.42 243.68 C-65.42 246.55 -65.43 249.42 -65.46 252.29 C-65.53 259.7 -65.48 267.12 -65.43 274.54 C-65.42 275.27 -65.42 276 -65.41 276.75 C-65.33 289.14 -64.68 301.38 -63.19 313.69 C-63.1 314.44 -63.01 315.2 -62.91 315.98 C-62.06 323.75 -62.06 323.75 -60.19 331.31 C-60.15 333.65 -60.14 335.98 -60.19 338.31 C-102.43 323.5 -136.24 290.98 -156.19 251.31 C-162.38 238.2 -166.78 224.38 -170.19 210.31 C-170.46 209.21 -170.46 209.21 -170.73 208.09 C-175.75 186.35 -175.36 159.97 -170.19 138.31 C-169.99 137.45 -169.79 136.59 -169.59 135.71 C-158.78 90.01 -130.34 50.31 -90.46 25.27 C-71.79 13.98 -51.73 6.48 -30.22 2.89 C-27.32 2.63 -27.32 2.63 -26.19 1.31 C-17.61 -0.21 -8.69 0.03 0 0 Z " fill="#EDEEF0" transform="translate(298.1875,124.6875)"/>
<path d="M0 0 C1.14 -0 1.14 -0 2.31 -0 C16.84 0.01 31.06 1.1 45.44 3.25 C46.37 3.38 47.3 3.52 48.25 3.66 C115.11 13.56 180.16 48.94 224.44 100.25 C225.09 100.96 225.74 101.67 226.41 102.41 C241.01 118.4 252.61 136.58 263.44 155.25 C263.81 155.89 264.19 156.53 264.57 157.19 C289.25 199.79 300.65 250.91 300.69 299.81 C300.69 301.03 300.69 301.03 300.69 302.27 C300.63 348.19 290.51 395.62 268.53 436.22 C267.3 438.51 266.09 440.8 264.88 443.1 C256.48 458.9 246.55 473.25 235.44 487.25 C234.7 488.18 233.96 489.12 233.2 490.08 C220.78 505.52 207.03 519.99 191.44 532.25 C190.27 533.2 189.11 534.16 187.95 535.12 C179.45 542.08 170.73 548.4 161.44 554.25 C160.69 554.72 159.94 555.2 159.17 555.69 C124.98 577.2 87.19 590.57 47.44 597.25 C46.68 597.38 45.92 597.5 45.14 597.64 C30.75 600 16.36 600.49 1.81 600.5 C0.96 600.5 0.1 600.5 -0.78 600.5 C-15.89 600.49 -30.61 599.54 -45.56 597.25 C-46.51 597.11 -47.45 596.97 -48.43 596.83 C-98.81 589.23 -146.98 567.11 -186.56 535.25 C-187.88 534.22 -187.88 534.22 -189.23 533.16 C-207.81 518.4 -224.32 501.2 -238.56 482.25 C-239.23 481.37 -239.91 480.5 -240.6 479.6 C-276.21 432.14 -298 372.68 -299.56 313.25 C-299.58 312.45 -299.61 311.66 -299.63 310.83 C-300.73 263.04 -291.52 216.68 -271.56 173.25 C-270.99 172.01 -270.99 172.01 -270.41 170.74 C-259.41 147.07 -244.72 123.58 -226.72 104.55 C-224.88 102.58 -223.11 100.58 -221.36 98.54 C-217.35 93.95 -213.12 89.62 -208.81 85.31 C-208.02 84.52 -207.23 83.73 -206.41 82.91 C-200.72 77.28 -194.89 72.16 -188.56 67.25 C-187.78 66.58 -187 65.9 -186.19 65.21 C-171.8 52.86 -155.3 43.05 -138.56 34.25 C-137.93 33.91 -137.29 33.57 -136.63 33.21 C-94.83 10.78 -47.27 0.04 0 0 Z M-42.56 21.25 C-43.37 21.37 -44.18 21.48 -45.01 21.61 C-61.98 24.14 -79.33 28.16 -95.33 34.39 C-97.01 35.04 -98.7 35.66 -100.39 36.27 C-108.74 39.34 -116.6 43.08 -124.49 47.18 C-126.52 48.23 -128.57 49.25 -130.62 50.27 C-150.4 60.25 -169.03 73.18 -185.32 88.19 C-187.28 89.99 -189.28 91.72 -191.31 93.44 C-201.3 102.17 -210.45 111.76 -218.56 122.25 C-219.57 123.51 -220.57 124.78 -221.58 126.04 C-237.48 146.22 -250.89 168.43 -260.56 192.25 C-261.22 193.84 -261.22 193.84 -261.89 195.47 C-274.86 227.97 -281.82 263.02 -281.69 298 C-281.69 298.66 -281.68 299.32 -281.68 300 C-281.65 313.17 -281.29 326.03 -279.09 339.05 C-278.54 342.4 -278.11 345.76 -277.69 349.12 C-276.62 356.69 -274.65 363.91 -272.56 371.25 C-272.1 373 -271.64 374.75 -271.19 376.5 C-267.57 389.58 -263.58 402.11 -257.53 414.27 C-256.49 416.4 -255.51 418.54 -254.54 420.7 C-243.41 445.2 -228.53 467.25 -210.56 487.25 C-210.1 487.77 -209.63 488.3 -209.15 488.83 C-199.33 499.82 -189.15 510.12 -177.56 519.25 C-176.49 520.12 -175.42 520.99 -174.36 521.87 C-165.52 529.03 -156.23 535.27 -146.56 541.25 C-145.86 541.69 -145.16 542.12 -144.44 542.58 C-134.56 548.71 -124.5 553.83 -113.78 558.32 C-111.62 559.23 -109.47 560.16 -107.32 561.09 C-96.95 565.54 -86.4 569.11 -75.56 572.25 C-74.33 572.61 -73.1 572.97 -71.82 573.34 C-62.96 575.72 -53.97 577.34 -44.94 578.94 C-43.73 579.15 -42.53 579.37 -41.29 579.59 C-16.38 583.84 8.85 583.04 33.88 580.38 C34.7 580.29 35.53 580.2 36.38 580.11 C38.75 579.86 41.13 579.59 43.5 579.32 C44.2 579.24 44.9 579.17 45.62 579.09 C50.06 578.55 54.16 577.54 58.44 576.25 C60.2 575.84 61.97 575.44 63.75 575.06 C121.2 562.33 178.11 529.48 215.13 483.11 C216.66 481.22 218.21 479.35 219.8 477.52 C235.92 458.88 248.49 436.82 258.48 414.37 C259.18 412.82 259.9 411.27 260.63 409.74 C263.78 403.03 266.28 396.26 268.5 389.19 C269.02 387.56 269.02 387.56 269.54 385.9 C272 378.01 274.02 370.1 275.65 361.99 C276.44 358.25 276.44 358.25 277.42 355.01 C278.47 351.12 279.07 347.3 279.51 343.31 C279.64 342.18 279.64 342.18 279.77 341.03 C280.04 338.58 280.31 336.14 280.56 333.69 C280.65 332.85 280.74 332.01 280.83 331.14 C283.15 308.84 283.77 286.49 280.44 264.25 C280.3 263.33 280.17 262.4 280.03 261.45 C272.76 212.28 254.23 164.92 222.44 126.25 C221.8 125.44 221.16 124.63 220.51 123.8 C213.92 115.54 206.73 107.89 199.44 100.25 C198.68 99.45 197.93 98.65 197.15 97.83 C192.81 93.36 188.13 89.41 183.26 85.52 C181.47 84.08 179.7 82.62 177.96 81.14 C159.02 65.08 137.19 52.28 114.55 42.2 C113 41.5 111.46 40.79 109.93 40.06 C103.21 36.91 96.44 34.41 89.38 32.19 C88.29 31.84 87.21 31.5 86.09 31.14 C78.2 28.68 70.29 26.67 62.18 25.04 C58.44 24.25 58.44 24.25 55.02 23.21 C50.77 22.07 46.62 21.6 42.25 21.19 C40.67 21.03 39.1 20.88 37.52 20.71 C36.83 20.65 36.14 20.58 35.43 20.52 C33.38 20.24 31.44 19.76 29.44 19.25 C5.54 16.58 -18.85 17.72 -42.56 21.25 Z " fill="#EDEEF0" transform="translate(299.5625,-0.25)"/>
<path d="M0 0 C4.69 3.61 4.69 3.61 6 5 C6 5.99 6 6.98 6 8 C6.58 8.08 7.15 8.16 7.75 8.25 C10.65 9.22 12.04 10.69 14 13 C14 13.66 14 14.32 14 15 C7.68 16.96 1.35 18.35 -5.19 19.38 C-15.26 20.98 -25.2 23.08 -35.18 25.2 C-43.01 26.84 -50.85 28.45 -58.69 30.06 C-59.53 30.24 -60.38 30.41 -61.25 30.59 C-73.81 33.17 -86.39 35.68 -99 38 C-99.33 39.32 -99.66 40.64 -100 42 C-93.38 41.22 -86.82 40.21 -80.25 39.12 C-79.24 38.96 -78.23 38.8 -77.2 38.64 C-72.28 37.83 -67.45 36.9 -62.62 35.64 C-53.1 33.18 -43.4 31.48 -33.75 29.62 C-29.63 28.83 -25.51 28.03 -21.39 27.23 C-20.39 27.04 -19.39 26.84 -18.37 26.64 C-9.8 24.97 -1.25 23.22 7.27 21.32 C15.94 19.44 15.94 19.44 20 20 C28.25 26.58 33.8 38.97 39 48 C39.93 49.6 39.93 49.6 40.89 51.23 C42.19 54.48 42.14 55.73 41 59 C40.14 60.86 39.21 62.69 38.25 64.5 C18.23 103.77 13.35 150.75 19 194 C19.12 194.92 19.24 195.84 19.36 196.79 C19.73 199.63 20.11 202.47 20.5 205.31 C20.62 206.18 20.74 207.04 20.86 207.94 C21.69 213.72 22.76 219.18 25.12 224.56 C26.22 227.6 26.27 229.78 26 233 C24.64 235.35 24.64 235.35 22.69 237.62 C21.96 238.48 21.23 239.33 20.48 240.21 C19.66 241.13 18.84 242.05 18 243 C17.56 243.5 17.11 244 16.65 244.51 C5.6 256.89 5.6 256.89 0 262 C-0.6 262.55 -1.2 263.1 -1.81 263.67 C-6.11 266.28 -11.49 265.24 -16.38 265.07 C-19.41 264.99 -22.43 264.98 -25.46 264.98 C-45.15 264.78 -59.3 261.99 -74.1 248.02 C-96.86 223.9 -104.43 193.09 -104.31 160.81 C-104.31 160.01 -104.31 159.21 -104.3 158.39 C-104.21 141.27 -102.15 125.12 -98.56 108.38 C-98.25 106.93 -98.25 106.93 -97.94 105.45 C-94.61 90.18 -89.06 76.83 -81.88 63 C-81.35 61.98 -80.82 60.97 -80.28 59.92 C-79.77 58.96 -79.26 57.99 -78.74 57 C-78.29 56.13 -77.83 55.27 -77.36 54.38 C-76.06 52.1 -74.62 50.06 -73 48 C-75 48.46 -77 48.92 -79 49.38 C-80.19 49.65 -81.38 49.92 -82.61 50.2 C-85.2 50.81 -87.75 51.47 -90.31 52.19 C-99.93 54.31 -99.93 54.31 -104.02 51.73 C-109.73 46.95 -109.73 46.95 -110.27 43.05 C-110.46 38.73 -110.27 36.46 -108.06 32.62 C-101.99 26.47 -91.19 25.96 -83.12 24.56 C-80.72 24.13 -78.32 23.7 -75.92 23.27 C-74.16 22.95 -74.16 22.95 -72.36 22.62 C-67.7 21.76 -63.07 20.8 -58.44 19.81 C-57.66 19.65 -56.89 19.48 -56.09 19.31 C-54.06 18.87 -52.03 18.44 -50 18 C-43.56 16.66 -37.09 15.45 -30.62 14.25 C-23.89 13 -17.18 11.64 -10.48 10.27 C-9.66 10.1 -8.85 9.94 -8.01 9.77 C-7.28 9.62 -6.56 9.47 -5.81 9.32 C-4 9 -4 9 -2 9 C-1.86 7.7 -1.71 6.4 -1.56 5.06 C-1.12 1.12 -1.12 1.12 0 0 Z " fill="#111312" transform="translate(415,169)"/>
<path d="M0 0 C9.4 4.05 14.1 14.14 18 23 C19.71 27.64 21.22 32.34 22.69 37.06 C23.43 39.45 24.19 41.84 24.95 44.22 C25.43 45.78 25.43 45.78 25.93 47.37 C26.99 49.96 27.77 51.34 30 53 C30.82 52.98 31.65 52.96 32.5 52.94 C35 53 35 53 36.75 54.81 C39.17 59.05 39.76 63.21 39 68 C37.2 72.26 35.3 75.31 31.19 77.5 C30.47 77.67 29.74 77.83 29 78 C30.64 84.12 32.33 87.57 37 92 C39.83 97.53 39.66 103.94 39 110 C37.72 113.9 35.98 116.99 33.12 119.94 C31.5 122.92 32.29 125.18 33.15 128.34 C41.84 155.53 57.49 179.35 77 200 C77.79 200.86 78.59 201.72 79.41 202.6 C91.64 215.38 106.06 225.09 121.28 233.97 C122.88 234.93 124.44 235.96 126 237 C126 237.66 126 238.32 126 239 C123.71 240.09 121.42 241.17 119.12 242.25 C118.49 242.55 117.86 242.85 117.21 243.16 C88.98 256.43 52.98 262.74 22 257 C16.22 234.45 15.01 210.67 14.98 187.48 C14.97 183.76 14.93 180.04 14.89 176.31 C14.88 174.45 14.88 172.58 14.9 170.72 C14.92 168.07 14.9 165.43 14.87 162.78 C14.89 161.59 14.89 161.59 14.92 160.37 C14.84 156.89 14.7 154.82 12.38 152.12 C10.65 150.63 8.9 149.27 7 148 C7.42 193.65 7.42 193.65 12.03 239.01 C12.82 244.08 13.13 248.87 13 254 C9.7 253.67 6.4 253.34 3 253 C1.31 245.19 0.22 237.45 -0.56 229.5 C-0.63 228.84 -0.69 228.18 -0.76 227.5 C-2.4 210.28 -2.53 193.01 -2.75 175.72 C-2.8 171.76 -2.87 167.8 -2.95 163.84 C-2.98 161.95 -3.01 160.06 -3.02 158.17 C-3.03 155.52 -3.09 152.88 -3.15 150.24 C-3.14 149.46 -3.14 148.68 -3.14 147.88 C-3.15 145.42 -3.15 145.42 -4 142 C-6.89 139.43 -6.89 139.43 -10 138 C-9.98 187.95 -9.98 187.95 -3.91 237.43 C-3.03 242.05 -2.89 246.32 -3 251 C-4.78 250.79 -6.55 250.51 -8.31 250.19 C-9.79 249.96 -9.79 249.96 -11.3 249.73 C-15.16 247.26 -15.42 244.65 -16.4 240.29 C-17.52 234.17 -18.43 228.06 -19.12 221.88 C-19.21 221.13 -19.3 220.39 -19.38 219.62 C-22.49 191.62 -21.86 163.14 -22 135 C-23.43 134.31 -23.43 134.31 -24.89 133.61 C-28.97 131.49 -30.25 129.57 -32.19 125.5 C-34.17 116.96 -33.73 109.81 -29.45 102.11 C-28 100 -28 100 -25.12 97.38 C-22.79 95.27 -22.79 95.27 -22.91 92.93 C-23.18 90.43 -23.18 90.43 -24 87 C-24.75 87.22 -25.5 87.43 -26.27 87.66 C-34.33 89.85 -41.68 91.79 -49.62 88.5 C-52 86 -52 86 -52.56 82.25 C-52.24 77.81 -50.74 74.07 -49 70 C-48.01 70 -47.02 70 -46 70 C-45.67 71.65 -45.34 73.3 -45 75 C-42.67 74.04 -42.67 74.04 -41 71 C-40.34 71.66 -39.68 72.32 -39 73 C-35.56 72.65 -33.93 71.95 -31 70 C-30.46 67.41 -30.08 65 -29.81 62.38 C-29.73 61.67 -29.65 60.96 -29.56 60.23 C-29.36 58.49 -29.18 56.75 -29 55 C-29.61 55.34 -30.22 55.67 -30.85 56.02 C-35.18 58 -39.74 55.49 -44 54 C-44.33 55.65 -44.66 57.3 -45 59 C-45.66 59 -46.32 59 -47 59 C-47.29 58.2 -47.58 57.39 -47.88 56.56 C-48.73 53.87 -48.73 53.87 -51 53 C-51.33 54.98 -51.66 56.96 -52 59 C-53.5 57.75 -53.5 57.75 -55 56 C-55 54.68 -55 53.36 -55 52 C-55.72 51.79 -56.44 51.59 -57.19 51.38 C-61.35 49.34 -63.91 46.17 -66 42 C-66.07 40.46 -66.08 38.92 -66.06 37.38 C-66.05 36.56 -66.04 35.74 -66.04 34.9 C-66.02 34.27 -66.01 33.65 -66 33 C-64.51 32.5 -64.51 32.5 -63 32 C-62.67 34.31 -62.34 36.62 -62 39 C-61.01 39 -60.02 39 -59 39 C-57.29 37.06 -57.29 37.06 -56 35 C-55.72 35.53 -55.44 36.06 -55.15 36.61 C-52.12 41.94 -49.71 44.64 -44 47 C-38.77 47.64 -35.45 46.8 -31 44 C-28.7 40.56 -28.46 38.06 -28 34 C-27.39 34.02 -26.77 34.05 -26.14 34.07 C-25.33 34.09 -24.52 34.11 -23.69 34.12 C-22.89 34.15 -22.09 34.17 -21.26 34.2 C-18.72 34.16 -18.72 34.16 -16 32 C-16 31.01 -16 30.02 -16 29 C-11.59 29.55 -8.89 31.15 -5.31 33.75 C-4.36 34.43 -3.41 35.1 -2.43 35.8 C0.12 38.11 1.02 39.74 2 43 C2.66 41.68 3.32 40.36 4 39 C7.36 43.55 9.12 47.68 10.56 53.12 C10.77 53.89 10.98 54.66 11.2 55.46 C13.84 65.63 16 76.47 16 87 C16.99 86.34 17.98 85.68 19 85 C20.32 85 21.64 85 23 85 C22.84 84.45 22.69 83.89 22.53 83.32 C21.82 80.8 21.13 78.27 20.44 75.75 C20.07 74.44 20.07 74.44 19.69 73.11 C19.35 71.84 19.35 71.84 19 70.55 C18.78 69.77 18.57 69 18.35 68.2 C17.97 65.81 18.25 64.28 19 62 C19.45 62.87 19.45 62.87 19.92 63.75 C21.17 65.97 22.4 68.01 24 70 C26.63 70.84 26.63 70.84 29 70 C31.35 68.1 31.35 68.1 31.12 64.88 C31.08 63.93 31.04 62.98 31 62 C29.02 62.33 27.04 62.66 25 63 C19.85 53.38 15.95 43.45 12.12 33.25 C11.53 31.67 10.93 30.08 10.33 28.5 C8.88 24.67 7.44 20.84 6 17 C5.3 18.74 4.61 20.5 3.94 22.25 C3.55 23.22 3.17 24.2 2.78 25.2 C1.75 28.88 2.34 30.68 4 34 C-0.45 34.42 -2.38 33.38 -5.88 30.69 C-11.65 26.44 -17.15 24.17 -24 22 C-23.5 20.51 -23.5 20.51 -23 19 C-15.04 18.24 -9.83 19.93 -3 24 C-3.03 23.03 -3.06 22.06 -3.09 21.06 C-3.09 16.62 -2.33 12.41 -1.5 8.06 C-1.36 7.28 -1.21 6.5 -1.07 5.7 C-0.72 3.8 -0.36 1.9 0 0 Z " fill="#121413" transform="translate(253,216)"/>
<path d="M0 0 C2.3 0.01 4.6 0 6.9 -0.01 C55.98 -0.06 98.03 20.04 133.37 53.26 C134 53.84 134.64 54.43 135.3 55.03 C145.3 64.51 153.41 76.43 160.37 88.26 C160.77 88.94 161.17 89.62 161.58 90.32 C177.43 117.74 184.6 146.79 184.55 178.26 C184.55 178.99 184.55 179.73 184.55 180.48 C184.51 197.11 183.2 212.27 178.37 228.26 C178.07 229.32 177.77 230.39 177.46 231.48 C169.1 260.44 153.27 283.99 133.37 306.26 C132.77 306.93 132.17 307.61 131.55 308.3 C107.77 333.45 73.78 349.51 40.37 356.26 C39.14 356.53 39.14 356.53 37.89 356.8 C26.88 359.13 16.03 359.47 4.8 359.45 C3.74 359.45 3.74 359.45 2.65 359.45 C-7.91 359.42 -18.22 359.16 -28.63 357.26 C-29.28 357.15 -29.92 357.03 -30.58 356.92 C-64.86 350.66 -95.42 332.77 -120.63 309.26 C-121.37 308.57 -122.11 307.89 -122.88 307.18 C-145.28 285.65 -161.33 256.6 -169.38 226.76 C-169.57 226.08 -169.76 225.39 -169.95 224.68 C-173.59 210.37 -175.11 196.37 -174.97 181.64 C-174.95 179.06 -174.95 176.49 -174.96 173.92 C-174.94 161.38 -174.25 149.35 -170.63 137.26 C-170.35 136.13 -170.07 134.99 -169.77 133.82 C-158.53 88.84 -128.61 49.53 -89.13 25.51 C-61.41 9.23 -32.31 -0.18 0 0 Z M-23.63 7.26 C-26.09 7.76 -28.54 8.21 -31.01 8.64 C-41.35 10.51 -50.94 13.17 -60.63 17.26 C-61.64 17.65 -62.64 18.03 -63.67 18.43 C-81.19 25.42 -96.5 35.89 -110.63 48.26 C-111.2 48.74 -111.76 49.23 -112.34 49.73 C-119.58 55.98 -125.79 62.69 -131.63 70.26 C-132.45 71.26 -133.26 72.25 -134.09 73.28 C-140.66 81.41 -145.77 90.03 -150.63 99.26 C-151.19 100.29 -151.74 101.32 -152.32 102.38 C-158.14 113.54 -162.27 125.16 -165.38 137.32 C-165.58 138.09 -165.78 138.85 -165.99 139.64 C-169.14 152.57 -170.05 165.51 -170.01 178.76 C-170.01 179.5 -170.01 180.23 -170.01 180.99 C-169.96 194.07 -168.8 206.54 -165.63 219.26 C-165.42 220.11 -165.22 220.95 -165 221.83 C-157.35 251.69 -142.83 277.96 -121.63 300.26 C-120.92 301.02 -120.92 301.02 -120.18 301.79 C-99.69 323.32 -74.15 338.78 -45.63 347.26 C-45.3 347.26 -44.97 347.26 -44.63 347.26 C-44.35 339.33 -45.71 331.84 -47.04 324.05 C-50.43 303.24 -51 282.43 -51.26 261.39 C-51.3 258.74 -51.34 256.09 -51.38 253.45 C-51.47 247.05 -51.56 240.66 -51.63 234.26 C-48.69 235.74 -48.69 235.74 -45.63 238.26 C-44.99 241.27 -44.76 243.51 -44.78 246.53 C-44.76 247.36 -44.74 248.19 -44.72 249.05 C-44.66 251.79 -44.65 254.52 -44.63 257.26 C-44.61 259.13 -44.58 261 -44.55 262.87 C-44.48 266.83 -44.43 270.78 -44.39 274.74 C-44.19 293.14 -43.61 311.39 -41.63 329.7 C-41.54 330.53 -41.45 331.36 -41.36 332.22 C-40.6 340.86 -40.6 340.86 -38.63 349.26 C-35.33 349.59 -32.03 349.92 -28.63 350.26 C-28.75 347.51 -28.88 344.76 -29.01 342.01 C-29.05 340.87 -29.05 340.87 -29.1 339.71 C-29.33 335.22 -29.82 330.89 -30.61 326.46 C-31.71 320.11 -32.28 313.81 -32.7 307.39 C-32.78 306.15 -32.86 304.91 -32.95 303.64 C-34.18 283.88 -34.32 264.05 -34.63 244.26 C-30.37 247.15 -27.91 248.99 -26.78 254.17 C-26.75 255.65 -26.76 257.14 -26.8 258.62 C-26.79 259.43 -26.79 260.24 -26.78 261.07 C-26.77 262.81 -26.77 264.55 -26.79 266.29 C-26.83 269.98 -26.79 273.66 -26.76 277.35 C-26.74 279.23 -26.73 281.12 -26.72 283 C-26.67 291.86 -26.3 300.67 -25.76 309.51 C-25.72 310.21 -25.67 310.91 -25.63 311.63 C-24.77 325.62 -23.77 339.8 -19.63 353.26 C12.73 359.25 54.67 352.83 82.99 335.67 C85.37 334.26 85.37 334.26 87.69 333.37 C91.44 331.81 94.75 329.68 98.18 327.51 C98.89 327.06 99.6 326.62 100.33 326.16 C105.19 323.07 109.94 319.95 114.37 316.26 C114.37 315.6 114.37 314.94 114.37 314.26 C114.95 313.99 115.53 313.73 116.14 313.45 C120.06 311.36 123.12 308.26 126.37 305.26 C127.07 304.61 127.77 303.96 128.5 303.29 C133.15 298.83 137.36 294.06 141.43 289.07 C141.92 288.49 142.41 287.91 142.91 287.31 C145.16 284.48 146.33 282.61 146.73 278.99 C146.34 276.09 145.54 273.93 144.37 271.26 C142.2 264.71 141.29 258.01 140.3 251.2 C140.13 249.98 139.95 248.76 139.77 247.51 C138.62 239.41 137.57 231.44 137.37 223.26 C137.34 222.41 137.31 221.56 137.29 220.68 C136.28 183.11 141.85 140.98 161.63 108.17 C162.69 105.43 162.26 104.06 161.37 101.26 C160.12 98.71 158.84 96.28 157.43 93.82 C157.04 93.13 156.64 92.43 156.24 91.72 C151.74 83.95 146.74 75.64 140.37 69.26 C133.55 69.11 126.52 70.87 119.87 72.2 C118.28 72.51 118.28 72.51 116.67 72.82 C112.57 73.63 108.47 74.44 104.37 75.26 C103.42 75.45 102.48 75.64 101.51 75.83 C86.67 78.78 71.84 81.75 57 84.73 C55.21 85.09 53.42 85.45 51.63 85.8 C50.76 85.98 49.89 86.15 48.99 86.33 C48.22 86.49 47.45 86.64 46.65 86.8 C44.23 87.29 41.82 87.81 39.41 88.33 C38.61 88.51 37.8 88.68 36.98 88.86 C35.34 89.21 33.71 89.57 32.07 89.94 C28.11 90.79 24.45 91.51 20.37 91.26 C20.7 89.94 21.03 88.62 21.37 87.26 C22.63 87.01 23.9 86.77 25.21 86.51 C56.97 80.36 56.97 80.36 88.66 73.83 C93.85 72.73 99.05 71.66 104.24 70.57 C105.21 70.37 106.18 70.17 107.18 69.96 C111.7 69.02 116.22 68.09 120.74 67.19 C125.3 66.28 129.83 65.28 134.37 64.26 C133 61.42 131.86 59.25 129.37 57.26 C128.38 57.26 127.39 57.26 126.37 57.26 C126.27 56.39 126.27 56.39 126.18 55.51 C125.03 52.34 123.04 51.27 120.37 49.26 C119.61 48.49 118.85 47.72 118.07 46.93 C115.32 44.21 112.48 41.82 109.43 39.45 C108.43 38.66 107.43 37.87 106.4 37.05 C103.01 35.05 101.24 34.8 97.37 35.26 C96.71 35.59 96.05 35.92 95.37 36.26 C95.37 34.28 95.37 32.3 95.37 30.26 C94.38 30.26 93.39 30.26 92.37 30.26 C91.53 31.72 90.7 33.18 89.87 34.64 C89.4 35.45 88.94 36.26 88.46 37.1 C87.22 39.15 87.22 39.15 87.37 41.26 C86.81 41.37 86.25 41.48 85.68 41.59 C84.92 41.75 84.15 41.91 83.37 42.07 C82.62 42.22 81.88 42.37 81.12 42.53 C78.83 43.14 76.73 43.85 74.52 44.7 C58.96 50.64 38.47 54.31 22.43 48.26 C16.52 45.2 9.54 40.77 7.37 34.26 C8.17 34.8 8.17 34.8 8.99 35.35 C17.79 40.57 27.16 40.82 36.9 38.37 C48.51 34.21 58.92 27.25 67.37 18.26 C67.37 17.6 67.37 16.94 67.37 16.26 C59.41 13.4 51.5 10.9 43.24 9.07 C42.21 8.84 42.21 8.84 41.15 8.61 C38.89 8.12 36.63 7.69 34.37 7.26 C33.43 7.08 32.49 6.9 31.52 6.71 C23.1 5.23 14.92 4.98 6.41 5.05 C4.17 5.07 1.93 5.08 -0.3 5.08 C-12.79 4.04 -12.79 4.04 -23.63 7.26 Z " fill="#0C5E55" transform="translate(294.633544921875,119.7392578125)"/>
<path d="M0 0 C0.66 0 1.32 0 2 0 C15.17 0.04 28.03 0.4 41.05 2.6 C44.4 3.15 47.76 3.57 51.12 4 C57.47 4.89 63.51 6.4 69.68 8.13 C72.79 9 75.91 9.77 79.06 10.5 C92.02 13.74 104.29 18.26 116.26 24.16 C118.39 25.19 120.54 26.17 122.7 27.15 C158.6 43.46 191.81 68.92 217.25 99.12 C217.91 99.9 218.58 100.67 219.26 101.47 C229.42 113.57 238.32 126.59 246.18 140.28 C247.24 142.1 248.32 143.9 249.42 145.7 C284.69 204.76 293.41 281.98 276.9 348.34 C275.46 353.96 273.89 359.55 272.25 365.12 C271.97 366.07 271.7 367.02 271.41 368 C268.5 377.79 264.73 386.98 260.21 396.13 C259.18 398.26 258.2 400.42 257.23 402.58 C246.19 426.86 231.52 448.7 213.7 468.51 C212.38 469.98 211.08 471.45 209.79 472.93 C202.12 481.59 194.13 489.64 185.07 496.86 C183.19 498.37 181.34 499.91 179.52 501.49 C145.92 530.55 100.86 551.33 57.11 558.58 C54.36 558.83 54.36 558.83 53.25 560.12 C50.8 560.5 48.36 560.82 45.89 561.1 C45.13 561.19 44.37 561.27 43.59 561.36 C41.08 561.65 38.57 561.92 36.06 562.19 C34.78 562.33 34.78 562.33 33.48 562.47 C9.89 564.96 -14.25 565.73 -37.75 561.88 C-38.53 561.75 -39.32 561.62 -40.13 561.49 C-67.27 556.92 -94 549.26 -118.75 537.12 C-119.99 536.54 -121.23 535.95 -122.47 535.36 C-142.02 525.97 -160.09 513.99 -176.75 500.12 C-177.26 499.71 -177.77 499.29 -178.29 498.85 C-191.71 487.78 -204.01 475.83 -214.75 462.12 C-216.19 460.42 -217.62 458.71 -219.06 457 C-234.1 438.49 -246.14 417.99 -255.81 396.21 C-256.5 394.67 -257.21 393.14 -257.94 391.62 C-261.09 384.91 -263.59 378.14 -265.81 371.06 C-266.16 369.98 -266.5 368.9 -266.86 367.78 C-269.32 359.88 -271.33 351.97 -272.96 343.87 C-273.69 340.15 -273.69 340.15 -274.79 336.71 C-275.93 332.45 -276.4 328.31 -276.81 323.94 C-276.97 322.36 -277.12 320.78 -277.29 319.21 C-277.35 318.52 -277.42 317.83 -277.48 317.12 C-277.76 315.07 -278.24 313.13 -278.75 311.12 C-283.43 269.18 -278.08 223.55 -262.75 184.12 C-262.2 182.61 -262.2 182.61 -261.64 181.06 C-258.6 172.79 -254.88 165.01 -250.82 157.2 C-249.77 155.16 -248.75 153.12 -247.73 151.07 C-239.27 134.31 -228.61 118.65 -216.75 104.12 C-216.32 103.59 -215.88 103.05 -215.43 102.5 C-203.92 88.38 -191.12 75.33 -176.75 64.12 C-175.97 63.45 -175.18 62.78 -174.38 62.08 C-159.98 49.74 -143.49 39.92 -126.75 31.12 C-125.85 30.64 -125.85 30.64 -124.94 30.15 C-108.7 21.48 -91.39 15.29 -73.75 10.12 C-72.65 9.79 -72.65 9.79 -71.52 9.45 C-48.46 2.5 -24.02 -0.09 0 0 Z M-36.75 8.12 C-38.36 8.36 -39.98 8.6 -41.59 8.84 C-88.89 16.34 -135.08 36.04 -171.75 67.12 C-173.24 68.34 -173.24 68.34 -174.75 69.57 C-189.29 81.56 -203.48 94.99 -214.75 110.12 C-215.86 111.58 -216.96 113.03 -218.07 114.48 C-232.49 133.55 -245.74 154.68 -253.75 177.32 C-254.77 180.19 -255.96 182.95 -257.19 185.75 C-263.58 201.11 -267.22 216.9 -270.22 233.22 C-270.57 235.13 -270.93 237.03 -271.3 238.93 C-273.22 248.91 -273.91 258.82 -273.99 268.97 C-274 269.97 -274.01 270.97 -274.02 272 C-274.27 303.26 -274.27 303.26 -269.75 334.12 C-269.53 335.15 -269.3 336.17 -269.07 337.22 C-267.49 344.24 -265.68 351.19 -263.75 358.12 C-263.49 359.05 -263.24 359.98 -262.98 360.93 C-260.55 369.6 -258.13 378.15 -254.14 386.25 C-253.04 388.54 -252.01 390.82 -251.01 393.15 C-241.96 414.31 -230.34 434.27 -215.75 452.12 C-215.16 452.88 -214.58 453.64 -213.97 454.42 C-201.24 470.78 -186.21 486.52 -169.75 499.12 C-169.18 499.57 -168.6 500.02 -168.01 500.49 C-148.42 515.85 -126.11 529.79 -102.56 538.12 C-99.68 539.15 -96.92 540.34 -94.12 541.56 C-78.56 548.05 -62.29 552.02 -45.75 555.12 C-44.9 555.29 -44.04 555.46 -43.16 555.63 C-5.85 562.64 34.67 558.83 71.25 550.12 C72.68 549.8 74.11 549.48 75.55 549.16 C86.25 546.58 96.37 542.35 106.55 538.22 C108.31 537.5 110.08 536.8 111.86 536.11 C117.51 533.91 122.9 531.42 128.25 528.56 C129.06 528.13 129.87 527.7 130.71 527.26 C163.66 509.54 194.11 485.69 217.25 456.12 C217.88 455.38 218.51 454.63 219.15 453.86 C231.04 439.59 240.37 423.37 249.25 407.12 C249.61 406.46 249.98 405.79 250.36 405.11 C254.7 397.11 257.92 388.94 260.79 380.33 C261.8 377.34 262.95 374.45 264.18 371.54 C268.99 359.63 271.43 346.64 274.25 334.12 C274.62 332.48 274.62 332.48 275 330.81 C278.54 314.41 278.61 298.01 278.62 281.31 C278.63 280.22 278.63 279.13 278.63 278.01 C278.63 266.2 278.38 254.77 276.25 243.12 C276.02 241.6 275.79 240.08 275.57 238.56 C272.48 218.72 267.28 199.93 260.25 181.12 C259.84 180.02 259.43 178.92 259.01 177.78 C249.19 152.91 235.06 129.83 218.25 109.12 C217.78 108.54 217.32 107.96 216.84 107.36 C204.68 92.28 190.83 77.91 175.25 66.36 C172.6 64.38 170.09 62.32 167.56 60.19 C147.28 43.97 123.26 32.57 99.25 23.12 C98.23 22.71 97.22 22.3 96.17 21.87 C82.63 16.45 68.45 13.3 54.25 10.12 C53.15 9.88 52.06 9.63 50.93 9.38 C34.71 5.9 18.52 5.77 2 5.75 C0.94 5.75 -0.13 5.75 -1.22 5.74 C-13.24 5.75 -24.88 6.12 -36.75 8.12 Z " fill="#116259" transform="translate(297.75,17.875)"/>
<path d="M0 0 C-5.23 7.1 -5.23 7.1 -7.86 10.2 C-14.07 17.53 -18.52 25.56 -23 34 C-23.55 35.01 -24.09 36.02 -24.66 37.06 C-32.73 52.53 -38.08 69.04 -42 86 C-42.32 87.38 -42.32 87.38 -42.65 88.79 C-48.67 116.15 -48.41 146.76 -42 174 C-41.83 174.74 -41.67 175.47 -41.5 176.23 C-39.21 186.23 -36.01 196.09 -31.35 205.25 C-30 208 -30 208 -30 210 C-36.84 210.31 -43.39 209.15 -50.12 208.06 C-51.29 207.88 -52.46 207.7 -53.66 207.51 C-56.78 207.02 -59.89 206.53 -63 206 C-63.91 205.87 -64.82 205.75 -65.76 205.62 C-68 205 -68 205 -69.84 202.15 C-70.42 200.9 -70.97 199.64 -71.5 198.38 C-71.8 197.7 -72.09 197.02 -72.4 196.33 C-81.58 174.93 -85.19 153.13 -85.19 129.95 C-85.19 127.83 -85.21 125.72 -85.22 123.6 C-85.28 109.39 -83.52 95.79 -80 82 C-79.66 80.56 -79.32 79.11 -78.98 77.67 C-73.57 55.35 -64.76 33.8 -50 16 C-49.54 15.27 -49.07 14.54 -48.59 13.79 C-43.23 6.29 -37.01 5.18 -28.39 3.72 C-26.7 3.46 -25 3.2 -23.31 2.94 C-21.61 2.64 -19.9 2.35 -18.2 2.05 C-5.13 -0.2 -5.13 -0.2 0 0 Z " fill="#ECEDEF" transform="translate(432,201)"/>
<path d="M0 0 C2.86 3.37 4.37 7.02 5.88 11.12 C6.13 11.83 6.39 12.53 6.66 13.25 C9.58 21.38 12 29.6 14 38 C14.17 38.68 14.33 39.36 14.5 40.07 C17.27 51.98 17.26 63.96 17.25 76.12 C17.25 76.95 17.25 77.77 17.25 78.62 C17.24 80.98 17.23 83.34 17.2 85.7 C17.2 86.42 17.19 87.14 17.19 87.88 C17.12 92.88 17.12 92.88 16 94 C15.69 96.02 15.43 98.04 15.19 100.06 C11.66 125.89 1.82 154.73 -15 175 C-19.76 165.59 -21.56 156.31 -23.06 145.94 C-23.24 144.72 -23.42 143.5 -23.6 142.24 C-24.74 134.15 -25.79 126.18 -26 118 C-26.03 117.15 -26.05 116.3 -26.08 115.42 C-27.13 76.51 -20.89 33.67 0 0 Z " fill="#EBECEE" transform="translate(457,225)"/>
<path d="M0 0 C10.46 6.27 16.84 14.56 20.25 26.25 C22.46 32.56 29.34 35.24 35 38 C34.83 37.24 34.67 36.47 34.5 35.69 C33.48 28.16 33.44 21.19 36 14 C41.78 19.23 44.6 25.34 46 33 C46.07 35.76 45.88 38.49 45.69 41.25 C45.42 45.56 45.56 48.35 48.07 52.06 C50.6 54.54 53.25 56.75 56 59 C57.37 60.63 58.72 62.29 60 64 C59.84 63.24 59.67 62.49 59.5 61.71 C58.82 56.67 58.89 51.71 58.94 46.62 C58.94 45.6 58.95 44.58 58.95 43.53 C58.96 41.02 58.98 38.51 59 36 C59.99 36 60.98 36 62 36 C63.15 38.25 64.3 40.5 65.44 42.75 C65.93 43.7 65.93 43.7 66.42 44.67 C69.46 50.68 70.14 54.64 70.12 61.38 C70.13 63.3 70.13 63.3 70.13 65.27 C70 69 70 69 69.21 72.08 C68.91 76.22 70.9 78.35 73.44 81.38 C73.87 81.92 74.31 82.47 74.75 83.03 C75.82 84.36 76.91 85.68 78 87 C78.06 86.15 78.13 85.3 78.19 84.43 C79.22 74.62 82.18 67.49 87 59 C87.99 59 88.98 59 90 59 C93.3 68.91 91.02 80.67 87 90 C86.44 90.7 85.88 91.39 85.3 92.11 C83.79 93.88 83.79 93.88 84.12 95.92 C85.22 98.52 86.58 100.85 88.06 103.25 C88.88 104.59 88.88 104.59 89.72 105.95 C90.14 106.63 90.57 107.3 91 108 C91.18 107.35 91.37 106.69 91.56 106.02 C94.17 97.79 98.23 91.38 104 85 C104.66 85 105.32 85 106 85 C106 84.34 106 83.68 106 83 C106.66 83 107.32 83 108 83 C108.52 93.42 106.79 102.53 100.4 110.96 C98.7 113.43 97.63 115.04 97 118 C97.89 120.88 99.29 123.43 100.75 126.06 C101.31 127.12 101.31 127.12 101.88 128.21 C102.58 129.53 103.29 130.84 104.01 132.16 C104.33 132.76 104.66 133.37 105 134 C105.37 134.68 105.74 135.36 106.12 136.06 C107.22 138.47 107.15 140.38 107 143 C105.12 142.78 105.12 142.78 103 142 C101.91 140.07 101.91 140.07 101.06 137.56 C99.36 132.84 97.29 128.47 94.95 124.03 C94 122 94 122 94 120 C93.26 120.33 92.51 120.66 91.75 121 C81.8 123.65 71.83 122.34 62.93 117.24 C60.25 115.55 57.61 113.81 55 112 C55.33 111.34 55.66 110.68 56 110 C58.83 109.95 61.67 109.91 64.5 109.88 C65.29 109.86 66.08 109.84 66.9 109.82 C74.15 109.76 80.37 111.02 87 114.12 C87.76 114.48 88.53 114.83 89.31 115.2 C89.87 115.46 90.43 115.73 91 116 C89.01 111.28 86.93 106.43 83 103 C78.86 101.97 75.26 102 71.04 102.07 C61.52 102.18 51.95 96.15 45 90 C44.67 89.01 44.34 88.02 44 87 C53.51 86.62 61.83 87.48 71 90 C72.33 90.34 73.67 90.67 75 91 C73.69 89.19 72.38 87.37 71.06 85.56 C70.33 84.55 69.6 83.54 68.85 82.5 C66.33 79.09 65.73 78.88 61.62 78.19 C52.07 76.32 44.46 73.28 37 67 C36.01 66.26 35.02 65.51 34 64.75 C33.34 64.17 32.68 63.59 32 63 C32 62.34 32 61.68 32 61 C37.75 60.79 42.5 61.38 48 63 C49.24 63.35 50.47 63.71 51.75 64.07 C53.36 64.53 53.36 64.53 55 65 C49.93 57.63 49.93 57.63 42.52 53.49 C39.95 53.79 39.95 53.79 37.25 54.38 C27.38 56.27 14.65 56.77 6 51 C5.34 50.01 4.68 49.02 4 48 C5.27 47.35 6.54 46.71 7.81 46.06 C8.87 45.52 8.87 45.52 9.96 44.97 C13.02 43.51 15.66 42.86 19.01 42.68 C19.77 42.64 20.53 42.6 21.31 42.56 C22.09 42.52 22.88 42.48 23.69 42.44 C24.48 42.39 25.28 42.35 26.1 42.31 C28.07 42.2 30.03 42.1 32 42 C30.4 40.87 28.79 39.75 27.19 38.62 C26.29 38 25.4 37.37 24.48 36.73 C19.72 33.32 19.72 33.32 14.04 33.44 C11.77 34.06 9.87 35.02 7.75 36.06 C2.54 38.29 -2.36 38.38 -7.94 38.38 C-8.78 38.38 -9.62 38.38 -10.49 38.38 C-16.6 38.27 -16.6 38.27 -20 36 C-20 35.34 -20 34.68 -20 34 C-18.44 33.18 -16.88 32.37 -15.31 31.56 C-14.44 31.11 -13.57 30.66 -12.68 30.19 C-7.79 28.02 -2.98 27.78 2.31 27.44 C4.19 27.31 4.19 27.31 6.11 27.18 C7.07 27.12 8.02 27.06 9 27 C-3.15 20.66 -3.15 20.66 -16 16 C-16 15.01 -16 14.02 -16 13 C-7.51 13.04 -1.33 15.88 6 20 C5.54 19.27 5.08 18.53 4.61 17.78 C1.38 12.19 -0.5 6.5 0 0 Z " fill="#9F8A5C" transform="translate(413,76)"/>
<path d="M0 0 C1.32 0 2.64 0 4 0 C4.27 1.16 4.53 2.32 4.8 3.51 C5.16 5.05 5.52 6.59 5.88 8.12 C6.05 8.89 6.22 9.65 6.4 10.43 C7.4 14.71 8.53 18.85 10 23 C11.42 23.11 11.42 23.11 12.86 23.23 C26.29 24.6 36.54 28.99 46 39 C46 39.33 46 39.66 46 40 C32.48 40.63 24.09 37.7 13 30 C13.2 30.66 13.41 31.33 13.62 32.01 C13.89 32.89 14.16 33.78 14.44 34.69 C14.7 35.56 14.97 36.43 15.25 37.32 C15.96 39.87 16.52 42.4 17 45 C18.09 44.92 19.19 44.83 20.31 44.75 C33.54 44.82 42.8 53.55 51.57 62.4 C53 64 53 64 53 65 C41.8 65.88 31.76 61.79 23 55 C24.2 60.76 26.79 66.1 30 71 C33.32 72.66 33.32 72.66 37 73 C46.38 76.31 54.21 84.09 60 92 C60 92.66 60 93.32 60 94 C51.96 92.99 45.92 90.12 39 86 C38.01 85.5 38.01 85.5 37 85 C39.26 90.12 41.62 95.35 46 99 C51.05 100.76 56.57 100.1 61.84 99.96 C68.99 100.1 76.56 103.42 82 108 C82.71 109.31 83.38 110.64 84 112 C73.05 114.87 64.25 115.12 54 110 C55.68 111.96 57.37 113.9 59.09 115.82 C61 118 61 118 62.41 119.9 C63.85 121.69 64.99 122.87 67 124 C69.66 124.17 72.03 123.84 74.67 123.45 C84.61 122.12 94.71 121.95 104 126 C104 127.32 104 128.64 104 130 C98.37 132.41 93.13 132.23 87.12 132.12 C86.15 132.12 85.18 132.11 84.17 132.1 C81.78 132.07 79.39 132.04 77 132 C82.76 137.6 88.58 141.72 95.69 145.46 C96.83 146.22 96.83 146.22 98 147 C98 147.99 98 148.98 98 150 C90.09 148.72 83.87 144.26 78 139 C78.5 140.89 78.5 140.89 79 142.81 C80.22 148.23 80.19 153.47 80 159 C73.57 156.44 70.37 149.5 67.19 143.69 C66 140 66 140 65.77 137.07 C65.02 127.84 62.03 123.86 55.34 117.95 C54.57 117.31 53.79 116.66 53 116 C52.82 117.07 52.64 118.15 52.45 119.25 C52.2 120.69 51.94 122.13 51.69 123.56 C51.57 124.27 51.45 124.97 51.33 125.7 C50.47 130.5 49.08 134.58 47 139 C45 138 45 138 43.93 135.19 C39.24 119.05 39.24 119.05 41.85 111.57 C43.15 107.58 43.76 104.73 42.02 100.76 C39.04 95.27 35.59 90.1 32 85 C32.05 86.03 32.09 87.05 32.14 88.11 C32.41 96.89 31.84 103.9 28 112 C27.01 112 26.02 112 25 112 C22.52 105.69 21.53 100.2 21.62 93.44 C21.61 92.64 21.6 91.84 21.59 91.02 C21.62 85.36 22.78 81.2 25 76 C26.4 72.91 26.4 72.91 24.57 69.64 C23.91 68.36 23.24 67.08 22.56 65.81 C22.22 65.16 21.89 64.5 21.54 63.83 C20.7 62.22 19.85 60.61 19 59 C18.59 60.13 18.17 61.27 17.75 62.44 C10.78 80.81 10.78 80.81 3 86 C2.42 72.99 3.5 64.06 11.63 53.4 C12.08 52.94 12.54 52.48 13 52 C13.66 52 14.32 52 15 52 C14.54 50.44 14.09 48.87 13.62 47.31 C13.37 46.44 13.11 45.57 12.85 44.68 C12.02 42.06 11.05 39.54 10 37 C9.54 37.66 9.08 38.33 8.61 39.01 C6.75 41.68 4.88 44.34 3 47 C2.36 47.91 1.72 48.81 1.06 49.75 C-1.9 52.98 -5.29 55.66 -9 58 C-9.66 58 -10.32 58 -11 58 C-10.8 48.02 -5.57 38.19 1.31 31.12 C4.64 28 4.64 28 7 28 C6.66 26.94 6.32 25.88 5.98 24.78 C5.53 23.35 5.08 21.93 4.62 20.5 C4.4 19.8 4.18 19.11 3.95 18.39 C0 5.83 0 5.83 0 0 Z " fill="#9F8A5B" transform="translate(69,333)"/>
<path d="M0 0 C0.33 0.99 0.66 1.98 1 3 C1.33 3.66 1.66 4.32 2 5 C3.22 8.77 2.53 11.39 1.61 15.22 C-0.87 26.55 -1.41 37.94 -1.38 49.5 C-1.37 50.24 -1.37 50.97 -1.37 51.73 C-1.33 64.81 -0.16 77.28 3 90 C3.21 90.85 3.42 91.69 3.63 92.56 C11.29 122.44 25.82 148.68 47 171 C47.45 171.47 47.89 171.95 48.35 172.43 C64.48 189.44 84.93 203.75 107 212 C108.32 212 109.64 212 111 212 C111.33 212.99 111.66 213.98 112 215 C115.3 215.66 118.6 216.32 122 217 C122.32 209.47 120.86 202.24 119.6 194.83 C116.2 173.95 115.73 153.26 115.88 132.12 C115.89 129.48 115.89 126.83 115.9 124.19 C115.92 117.79 115.96 111.4 116 105 C118.92 106.07 120.78 106.78 123 109 C123.31 111.75 123.5 114.4 123.61 117.15 C123.64 117.99 123.68 118.84 123.72 119.7 C124.07 128.24 124.15 136.78 124.24 145.32 C124.52 170.39 126.14 195.1 129 220 C132.3 220.33 135.6 220.66 139 221 C138.81 219.59 138.61 218.19 138.41 216.74 C137.05 206.68 135.79 196.62 134.88 186.5 C134.8 185.67 134.72 184.83 134.65 183.98 C134.42 181.32 134.21 178.66 134 176 C133.92 174.97 133.83 173.93 133.74 172.87 C132.83 160.78 132.66 148.68 132.44 136.56 C132.39 134.37 132.35 132.17 132.31 129.97 C132.2 124.65 132.1 119.32 132 114 C134.02 115.3 136.02 116.64 138 118 C138.61 118.41 139.22 118.82 139.85 119.25 C141.81 122.23 141.44 125.61 141.44 129.07 C141.45 129.88 141.47 130.69 141.48 131.53 C141.5 133.29 141.52 135.05 141.54 136.81 C141.58 141.47 141.67 146.14 141.76 150.8 C141.78 151.75 141.8 152.69 141.81 153.66 C141.99 162.54 142.35 171.39 142.88 180.25 C142.92 180.95 142.96 181.65 143 182.37 C143.66 193.27 144.79 204.05 146.64 214.82 C147.14 217.87 147.56 220.94 148 224 C153.28 224.33 158.56 224.66 164 225 C164.33 225.99 164.66 226.98 165 228 C176.38 228.5 176.38 228.5 188 229 C188 229.33 188 229.66 188 230 C152.26 230.43 152.26 230.43 139 228 C138.36 227.89 137.72 227.77 137.05 227.66 C102.77 221.4 72.21 203.51 47 180 C46.26 179.31 45.52 178.63 44.76 177.92 C22.35 156.39 6.31 127.34 -1.75 97.5 C-2.03 96.47 -2.03 96.47 -2.32 95.42 C-5.95 81.11 -7.48 67.11 -7.34 52.38 C-7.31 49.8 -7.32 47.23 -7.32 44.66 C-7.3 32.13 -6.63 20.08 -3 8 C-2.8 7.28 -2.61 6.56 -2.4 5.82 C-1.11 1.11 -1.11 1.11 0 0 Z " fill="#106157" transform="translate(127,249)"/>
<path d="M0 0 C5.6 3.53 9.81 8.93 11.9 15.2 C12.54 25.08 12.59 32.25 5.9 39.89 C0.12 45.27 -7 47.36 -14.79 47.7 C-22.19 47.36 -26.88 44.79 -31.91 39.45 C-37.02 33.12 -38.77 27.15 -38.51 19.01 C-37.45 11.72 -33.74 5.8 -27.9 1.38 C-19.25 -4.3 -9.21 -4.74 0 0 Z " fill="#161817" transform="translate(263.1015625,58.80078125)"/>
<path d="M0 0 C4 2 4 2 6.38 4.12 C9.51 6.37 11.23 6.35 15 6 C15 6.99 15 7.98 15 9 C15.55 9.16 16.09 9.32 16.65 9.48 C23.28 11.53 29.61 14.21 35.01 18.66 C37.15 20.37 37.15 20.37 41 20 C40.01 19.01 40.01 19.01 39 18 C39.38 12.77 41.27 7.91 43 3 C46.29 5.64 47.37 9.06 48.74 12.91 C48.99 13.59 49.24 14.27 49.5 14.97 C50.3 17.14 51.09 19.32 51.88 21.5 C52.91 24.35 53.95 27.19 54.99 30.03 C55.37 31.06 55.37 31.06 55.76 32.11 C57.9 37.87 60.34 43.46 63 49 C63.97 48.81 64.94 48.63 65.94 48.44 C66.95 48.29 67.96 48.15 69 48 C70 49 70 49 70.25 51.88 C70 55 70 55 68.81 56.88 C66.27 58.45 64.94 58.57 62 58 C59.69 55.5 59.69 55.5 58 53 C58 57.23 59.25 61.02 60.34 65.09 C61 68 61 68 61 72 C57.53 72.99 57.53 72.99 54 74 C53.87 73.2 53.75 72.4 53.62 71.58 C50.85 48.27 50.85 48.27 42 27 C41.67 29.31 41.34 31.62 41 34 C39.9 31.88 38.96 29.88 38.23 27.59 C36.71 24.39 35.06 23.22 32.12 21.25 C31.26 20.66 30.4 20.06 29.51 19.45 C27.26 18.15 25.53 17.45 23 17 C22.71 17.64 22.42 18.28 22.12 18.94 C21 21 21 21 19 22 C17.45 21.91 15.91 21.76 14.38 21.56 C13.56 21.46 12.74 21.36 11.9 21.25 C11.27 21.17 10.65 21.09 10 21 C10.15 22.58 10.15 22.58 10.31 24.19 C10 28 10 28 7.75 30.81 C3 34.59 0.21 35.63 -6 35 C-10.92 33.1 -13.94 30.3 -17 26 C-17.66 25.34 -18.32 24.68 -19 24 C-19.66 24.99 -20.32 25.98 -21 27 C-22.32 26.67 -23.64 26.34 -25 26 C-25 23.69 -25 21.38 -25 19 C-25.99 19.33 -26.98 19.66 -28 20 C-26.98 14.63 -24.63 12.14 -20.29 9.14 C-16.48 7.25 -13.13 7.21 -9 8 C-5.64 9.37 -3.02 10.99 0 13 C0 8.71 0 4.42 0 0 Z " fill="#1A1C1B" transform="translate(215,229)"/>
<path d="M0 0 C8.62 1.95 17.22 4 25.81 6.06 C26.89 6.32 27.96 6.58 29.06 6.84 C34.72 8.2 40.36 9.58 46 11 C45.67 14.63 45.34 18.26 45 22 C33.78 19.93 22.58 17.32 12 13 C12 13.66 12 14.32 12 15 C12.66 15.21 13.33 15.42 14.01 15.64 C18.07 17.49 21.35 20.09 24.88 22.81 C26.25 23.86 27.62 24.91 28.99 25.96 C29.66 26.47 30.32 26.98 31 27.51 C32.96 28.97 34.96 30.34 36.98 31.71 C40 34 40 34 40.5 36.75 C40 39 40 39 39 40 C36.83 40.29 34.66 40.52 32.48 40.72 C31.83 40.78 31.17 40.84 30.5 40.91 C28.39 41.11 26.29 41.31 24.19 41.5 C22.1 41.69 20 41.89 17.91 42.09 C16.01 42.27 14.1 42.45 12.19 42.63 C9.69 42.92 7.41 43.3 5 44 C5.58 44.14 6.17 44.27 6.77 44.41 C9.47 45.04 12.17 45.68 14.88 46.31 C15.79 46.53 16.71 46.74 17.66 46.96 C23.85 48.42 29.92 50.12 36 52 C35.34 55.3 34.68 58.6 34 62 C28.27 61.41 23.01 60.31 17.5 58.69 C10.12 56.57 2.72 54.67 -4.74 52.89 C-7.42 52.16 -9.6 51.37 -12 50 C-11.89 48.42 -11.76 46.83 -11.62 45.25 C-11.56 44.37 -11.49 43.49 -11.41 42.58 C-10.98 39.87 -10.53 38.27 -9 36 C-6.79 35.27 -6.79 35.27 -4.05 34.95 C-3.06 34.83 -2.06 34.71 -1.04 34.58 C0.01 34.47 1.05 34.36 2.12 34.25 C3.15 34.12 4.17 34 5.22 33.87 C10.85 33.21 16.33 32.86 22 33 C22 32.34 22 31.68 22 31 C21.26 30.73 20.53 30.46 19.77 30.19 C17.08 29.03 15 27.75 12.64 26.03 C11.86 25.46 11.07 24.89 10.26 24.3 C9.05 23.41 9.05 23.41 7.81 22.5 C6.99 21.91 6.17 21.31 5.33 20.7 C-0.69 16.31 -0.69 16.31 -3 14 C-2.79 11.25 -2.79 11.25 -2.19 8 C-2 6.93 -1.8 5.85 -1.61 4.75 C-1 2 -1 2 0 0 Z " fill="#161817" transform="translate(56,220)"/>
<path d="M0 0 C4.37 -0.09 8.75 -0.14 13.12 -0.19 C14.36 -0.21 15.6 -0.24 16.88 -0.26 C18.07 -0.27 19.27 -0.28 20.51 -0.29 C21.61 -0.31 22.71 -0.32 23.84 -0.34 C29.4 0.26 33.42 2.76 37 7 C38.54 11.63 38.51 16.17 38 21 C36.01 24.91 34.63 26.58 31 29 C30.01 29 29.02 29 28 29 C28.39 29.7 28.77 30.4 29.17 31.12 C32.23 36.7 35.2 42.29 38 48 C34.04 48 30.08 48 26 48 C24.66 45.54 23.33 43.09 22 40.62 C21.62 39.93 21.24 39.23 20.84 38.51 C18 33.23 18 33.23 18 31 C15.36 31 12.72 31 10 31 C10 36.61 10 42.22 10 48 C6.37 48 2.74 48 -1 48 C-1.21 14.5 -1.21 14.5 0 0 Z " fill="#181A19" transform="translate(284,52)"/>
<path d="M0 0 C8.42 3.03 16.26 6.49 24 11 C23.27 15.93 22.47 20.25 19 24 C1.25 33.46 -23.18 37.4 -42.82 33.18 C-50.35 30.43 -58.3 24.83 -62.27 17.72 C-62.51 17.15 -62.75 16.59 -63 16 C-60.21 17.1 -57.5 18.24 -54.79 19.54 C-46.58 23.05 -36.41 21.91 -28.19 18.94 C-17.56 14.26 -8.79 7.49 0 0 Z " fill="#121514" transform="translate(363,137)"/>
<path d="M0 0 C3.58 3.24 6.22 5.84 7.01 10.77 C7.2 14.98 6.87 17.83 5.12 21.69 C0.56 26.6 -5.3 29.63 -11.38 32.38 C-12.03 32.38 -12.69 32.38 -13.38 32.38 C-12.94 33.27 -12.51 34.16 -12.06 35.08 C-11.51 36.25 -10.95 37.42 -10.38 38.62 C-9.82 39.79 -9.26 40.95 -8.69 42.14 C-7.38 45.38 -7.38 45.38 -7.38 49.38 C-10.34 50.37 -13.31 51.35 -16.38 52.38 C-18.76 47.34 -21.15 42.31 -23.53 37.27 C-24.34 35.56 -25.15 33.84 -25.96 32.13 C-27.13 29.67 -28.3 27.2 -29.46 24.74 C-29.82 23.98 -30.18 23.21 -30.56 22.43 C-35.38 12.23 -35.38 12.23 -35.38 8.38 C-31.93 6.68 -28.47 5.02 -25 3.38 C-24.03 2.9 -23.07 2.42 -22.07 1.93 C-14.62 -1.57 -7.75 -3.73 0 0 Z " fill="#151716" transform="translate(211.375,73.625)"/>
<path d="M0 0 C4.75 1.88 4.75 1.88 7 3 C6.41 7.85 4.29 11.5 1.94 15.69 C-0.86 20.1 -0.86 20.1 -2 25 C2.45 26.98 2.45 26.98 7 29 C7.26 28.16 7.51 27.32 7.77 26.46 C9.12 22.67 10.79 19.2 12.62 15.62 C12.95 14.98 13.27 14.34 13.61 13.68 C14.4 12.12 15.2 10.56 16 9 C18.97 10.12 21.33 11.22 24 13 C22.62 17.6 20.72 21.56 18.38 25.75 C15.91 29.65 15.91 29.65 15 34 C19.26 36.36 19.26 36.36 24 37 C27.3 30.73 30.6 24.46 34 18 C37.1 18.78 39.25 19.53 42 21 C41.39 24.92 40.19 27.94 38.35 31.45 C37.55 32.97 37.55 32.97 36.74 34.52 C36.19 35.56 35.63 36.61 35.06 37.69 C34.51 38.75 33.96 39.8 33.39 40.89 C29.27 48.73 29.27 48.73 27 51 C22.68 50.66 19.25 48.77 15.45 46.8 C14.83 46.48 14.21 46.16 13.58 45.83 C12.27 45.15 10.97 44.47 9.67 43.79 C7.71 42.76 5.74 41.74 3.77 40.72 C-2.65 37.39 -8.94 33.96 -15 30 C-14.4 25.93 -13.07 22.9 -11.09 19.3 C-10.51 18.23 -9.94 17.17 -9.34 16.08 C-8.73 14.98 -8.13 13.88 -7.5 12.75 C-6.89 11.64 -6.29 10.52 -5.66 9.38 C-1.16 1.16 -1.16 1.16 0 0 Z " fill="#161817" transform="translate(79,175)"/>
<path d="M0 0 C-0.33 0.66 -0.66 1.32 -1 2 C-1.99 2 -2.98 2 -4 2 C-4 2.66 -4 3.32 -4 4 C-2.02 4.99 -2.02 4.99 0 6 C-1.03 6.18 -2.05 6.36 -3.11 6.55 C-14.89 8.67 -25.95 11.33 -37 16 C-38 16.39 -39 16.77 -40.04 17.17 C-57.57 24.16 -72.83 34.65 -87 47 C-87.53 47.45 -88.06 47.9 -88.6 48.37 C-95.59 54.32 -101.39 60.76 -107 68 C-107.81 69 -108.63 70 -109.46 71.02 C-116.03 79.15 -121.14 87.78 -126 97 C-126.56 98.03 -127.11 99.06 -127.68 100.12 C-130.59 105.69 -133.02 111.38 -135.25 117.25 C-135.62 118.22 -135.62 118.22 -136 119.22 C-137.66 123.75 -138.89 128.3 -140 133 C-141.32 133 -142.64 133 -144 133 C-143.98 132.22 -143.96 131.43 -143.94 130.62 C-143.81 128.02 -143.81 128.02 -145 126 C-144.11 123.07 -143.14 120.24 -142.06 117.38 C-141.74 116.52 -141.42 115.67 -141.1 114.79 C-137.94 106.56 -134.24 98.73 -130 91 C-129.66 90.38 -129.33 89.76 -128.98 89.13 C-105.8 47.27 -66.3 17.04 -20.71 3.31 C-13.77 1.33 -7.28 -0.23 0 0 Z " fill="#126359" transform="translate(271,122)"/>
<path d="M0 0 C2.6 1.32 3.43 2.39 4.88 4.96 C5.14 7.93 5.23 10.69 5.18 13.66 C5.17 14.5 5.17 15.34 5.16 16.2 C5.15 18.87 5.11 21.54 5.07 24.21 C5.06 26.02 5.04 27.83 5.03 29.64 C5 34.08 4.94 38.52 4.88 42.96 C5.38 42.59 5.88 42.22 6.4 41.84 C8.65 40.18 10.92 38.54 13.2 36.89 C13.98 36.31 14.77 35.73 15.58 35.13 C16.33 34.59 17.09 34.05 17.87 33.48 C18.92 32.72 18.92 32.72 19.98 31.95 C20.92 31.46 20.92 31.46 21.88 30.96 C25.28 32.09 25.94 33.08 27.88 35.96 C26.48 39.29 24.98 40.91 22.03 42.98 C21.26 43.53 20.49 44.07 19.7 44.64 C18.89 45.2 18.09 45.76 17.26 46.33 C15.68 47.44 14.11 48.56 12.53 49.67 C11.76 50.21 10.99 50.75 10.19 51.31 C7.23 53.42 4.36 55.64 1.5 57.88 C-0.12 58.96 -0.12 58.96 -2.12 58.96 C-6.19 54.16 -6.72 50.44 -6.73 44.28 C-6.75 43.06 -6.75 43.06 -6.78 41.81 C-6.82 39.24 -6.85 36.66 -6.87 34.08 C-6.9 32.33 -6.93 30.57 -6.96 28.82 C-7.03 24.53 -7.08 20.24 -7.12 15.96 C-8.56 17.02 -8.56 17.02 -10.04 18.11 C-11.31 19.04 -12.59 19.97 -13.87 20.89 C-14.82 21.6 -14.82 21.6 -15.79 22.31 C-16.41 22.76 -17.03 23.21 -17.66 23.67 C-18.23 24.09 -18.8 24.5 -19.38 24.93 C-21.27 26.05 -22.97 26.53 -25.12 26.96 C-26.44 25.31 -27.76 23.66 -29.12 21.96 C-27.6 17.63 -24.32 15.67 -20.68 13.21 C-19.41 12.33 -18.15 11.46 -16.88 10.58 C-16.25 10.14 -15.61 9.71 -14.96 9.26 C-13.24 8.04 -11.56 6.78 -9.89 5.49 C-8.93 4.76 -7.98 4.03 -6.99 3.27 C-6.14 2.61 -5.3 1.94 -4.42 1.26 C-2.12 -0.04 -2.12 -0.04 0 0 Z " fill="#181A19" transform="translate(163.1171875,91.04296875)"/>
<path d="M0 0 C3.29 2.64 4.37 6.06 5.74 9.91 C5.99 10.59 6.24 11.27 6.5 11.97 C7.3 14.14 8.09 16.32 8.88 18.5 C9.91 21.35 10.95 24.19 11.99 27.03 C12.37 28.06 12.37 28.06 12.76 29.11 C14.9 34.87 17.34 40.46 20 46 C20.97 45.81 21.94 45.63 22.94 45.44 C23.95 45.29 24.96 45.15 26 45 C27 46 27 46 27.25 48.88 C27 52 27 52 25.81 53.88 C23.27 55.45 21.94 55.57 19 55 C16.69 52.5 16.69 52.5 15 50 C15 54.23 16.25 58.02 17.34 62.09 C18 65 18 65 18 69 C14.53 69.99 14.53 69.99 11 71 C10.81 69.8 10.81 69.8 10.62 68.58 C7.85 45.27 7.85 45.27 -1 24 C-1.33 26.31 -1.66 28.62 -2 31 C-3.1 28.88 -4.04 26.88 -4.77 24.59 C-6.29 21.39 -7.94 20.22 -10.88 18.25 C-11.74 17.66 -12.6 17.06 -13.49 16.45 C-15.74 15.15 -17.47 14.45 -20 14 C-20.29 14.64 -20.58 15.28 -20.88 15.94 C-22 18 -22 18 -24 19 C-28.05 19.26 -29.54 19.3 -33 17 C-33 16.34 -33 15.68 -33 15 C-29.73 13.12 -26.72 12.51 -23 12 C-24.46 11.97 -25.92 11.95 -27.38 11.94 C-28.59 11.92 -28.59 11.92 -29.84 11.9 C-32.05 11.86 -32.05 11.86 -34 13 C-32.12 9.12 -32.12 9.12 -31 8 C-24.54 6.67 -19.85 7.71 -14.42 11.22 C-13.19 12.07 -11.98 12.92 -10.77 13.8 C-7.43 16.21 -6.27 17 -2 17 C-2.66 16.34 -3.32 15.68 -4 15 C-3.62 9.77 -1.73 4.91 0 0 Z " fill="#E2E3E5" transform="translate(258,232)"/>
<path d="M0 0 C2.02 1.3 4.02 2.64 6 4 C6.91 4.62 6.91 4.62 7.85 5.25 C9.81 8.23 9.44 11.61 9.44 15.07 C9.45 15.88 9.47 16.69 9.48 17.53 C9.5 19.29 9.52 21.05 9.54 22.81 C9.58 27.47 9.67 32.14 9.76 36.8 C9.78 37.75 9.8 38.69 9.81 39.66 C9.99 48.54 10.35 57.39 10.88 66.25 C10.92 66.95 10.96 67.65 11 68.36 C11.62 78.67 12.72 88.83 14.41 99.02 C14.96 102.37 15.12 105.59 15 109 C12.69 108.67 10.38 108.34 8 108 C-0.19 72.8 0.56 35.93 0 0 Z " fill="#E7E8EA" transform="translate(259,363)"/>
<path d="M0 0 C2.92 1.07 4.78 1.78 7 4 C7.31 6.73 7.5 9.37 7.6 12.11 C7.64 12.95 7.68 13.79 7.71 14.66 C8.07 23.38 8.18 32.1 8.29 40.83 C8.54 60.3 9.2 79.52 11.38 98.88 C11.95 103.96 12.13 108.89 12 114 C10.68 114 9.36 114 8 114 C5.94 106.25 4.53 98.5 3.44 90.56 C3.32 89.75 3.21 88.94 3.09 88.1 C2.69 85.07 2.34 82.04 2 79 C1.92 78.28 1.83 77.56 1.74 76.82 C-0.16 60.25 -0.24 43.79 -0.12 27.12 C-0.11 24.48 -0.11 21.83 -0.1 19.19 C-0.08 12.79 -0.04 6.4 0 0 Z " fill="#D9DADC" transform="translate(243,354)"/>
<path d="M0 0 C2.92 1.07 4.78 1.78 7 4 C6.88 7.28 5.58 8.5 3.44 11.06 C0.68 13.75 0.68 13.75 1 17 C2.41 18.48 2.41 18.48 4.33 19.82 C5.04 20.35 5.76 20.88 6.49 21.43 C7.26 21.99 8.02 22.55 8.81 23.12 C10.37 24.29 11.93 25.45 13.48 26.61 C14.25 27.19 15.02 27.76 15.81 28.35 C20.32 31.75 24.66 35.37 29 39 C28.21 42.77 27.11 44.6 24 47 C20.79 46.62 18.91 45.38 16.46 43.34 C15.8 42.8 15.14 42.25 14.47 41.69 C13.78 41.11 13.09 40.53 12.38 39.94 C10.94 38.76 9.51 37.57 8.08 36.39 C6.72 35.26 5.36 34.13 4 33 C2.05 31.39 0.09 29.78 -1.88 28.19 C-3.02 27.25 -3.02 27.25 -4.18 26.29 C-5.9 24.81 -5.9 24.81 -8 25 C-9.81 27.02 -9.81 27.02 -11.62 29.5 C-12.26 30.34 -12.89 31.17 -13.54 32.03 C-14.26 33.01 -14.26 33.01 -15 34 C-18.34 33.28 -20.34 32.18 -23 30 C-21.68 27.16 -20.2 24.84 -18.21 22.43 C-17.66 21.76 -17.12 21.1 -16.56 20.41 C-15.98 19.72 -15.41 19.03 -14.81 18.31 C-13.64 16.88 -12.46 15.45 -11.29 14.02 C-10.72 13.33 -10.15 12.64 -9.57 11.93 C-7.05 8.83 -4.6 5.67 -2.17 2.5 C-1 1 -1 1 0 0 Z " fill="#161817" transform="translate(108,136)"/>
<path d="M0 0 C8.53 0.58 16.8 1.95 25.19 3.56 C26.43 3.8 27.66 4.03 28.94 4.27 C31.96 4.84 34.98 5.42 38 6 C37.67 8.97 37.34 11.94 37 15 C35.06 14.86 33.12 14.71 31.19 14.56 C30.11 14.48 29.03 14.4 27.92 14.32 C25 14 25 14 22 13 C21.96 13.57 21.91 14.14 21.87 14.73 C21.24 21.93 19.95 28.92 18.5 36 C18.27 37.13 18.05 38.26 17.82 39.43 C16.14 47.73 16.14 47.73 15 50 C12.03 50 9.06 50 6 50 C4.9 45.59 5.31 43.38 6.21 38.97 C6.35 38.3 6.48 37.62 6.62 36.93 C7.05 34.78 7.49 32.64 7.94 30.5 C8.38 28.36 8.81 26.21 9.24 24.07 C9.63 22.12 10.03 20.18 10.43 18.24 C11.11 14.89 11.11 14.89 11 11 C5.06 9.52 5.06 9.52 -1 8 C-0.67 5.36 -0.34 2.72 0 0 Z " fill="#161817" transform="translate(332,54)"/>
<path d="M0 0 C4.45 2.62 7.8 6.54 9.44 11.44 C10.2 17.68 9.83 22.04 5.92 27.06 C1.58 31.08 -3.04 30.92 -8.71 30.82 C-11.56 30.44 -11.56 30.44 -14.62 28.25 C-19.29 21.48 -20.94 16.75 -19.56 8.44 C-15.33 0.49 -8.68 -1.91 0 0 Z " fill="#E9EAEB" transform="translate(255.5625,65.5625)"/>
<path d="M0 0 C1.88 1.38 1.88 1.38 3 3 C3 3.66 3 4.32 3 5 C-7.21 7.2 -17.43 9.3 -27.69 11.25 C-39.47 13.49 -51.24 15.83 -63 18.19 C-63.87 18.36 -64.74 18.54 -65.64 18.72 C-69.72 19.53 -73.8 20.35 -77.88 21.17 C-81.11 21.82 -84.34 22.47 -87.57 23.11 C-90.71 23.73 -93.83 24.39 -96.96 25.07 C-97.76 25.24 -98.56 25.42 -99.39 25.6 C-101.02 25.95 -102.66 26.31 -104.29 26.68 C-108.26 27.53 -111.92 28.25 -116 28 C-116.62 26.12 -116.62 26.12 -117 24 C-114.76 21.76 -113.95 21.6 -110.93 21.03 C-110.09 20.86 -109.24 20.7 -108.37 20.53 C-107.45 20.36 -106.53 20.19 -105.59 20.01 C-104.63 19.83 -103.68 19.64 -102.7 19.46 C-100.65 19.06 -98.61 18.67 -96.56 18.29 C-92.31 17.49 -88.06 16.67 -83.82 15.85 C-81.73 15.45 -79.63 15.05 -77.54 14.65 C-70.22 13.24 -62.92 11.79 -55.62 10.25 C-54.73 10.06 -53.84 9.87 -52.92 9.68 C-51.18 9.31 -49.44 8.94 -47.71 8.57 C-42.52 7.47 -37.32 6.39 -32.12 5.31 C-31.16 5.11 -30.19 4.91 -29.19 4.7 C-23.13 3.43 -17.07 2.21 -11 1 C-9.72 0.73 -9.72 0.73 -8.41 0.46 C-5.5 -0.1 -2.95 -0.26 0 0 Z " fill="#DEE0E1" transform="translate(431,184)"/>
<path d="M0 0 C2.49 3.23 4.54 6.78 6.69 10.25 C7.31 11.22 7.93 12.19 8.56 13.18 C9.15 14.12 9.73 15.05 10.32 16.02 C10.86 16.87 11.4 17.73 11.95 18.62 C13 21 13 21 12.67 23.31 C12.45 23.87 12.23 24.43 12 25 C10.68 25.33 9.36 25.66 8 26 C5.36 21.71 2.72 17.42 0 13 C0.66 18.94 1.32 24.88 2 31 C1.01 31.33 0.02 31.66 -1 32 C-3.13 30.63 -5.03 29.27 -7 27.69 C-8.06 26.86 -9.12 26.03 -10.19 25.2 C-11.12 24.47 -12.04 23.75 -13 23 C-13.99 22.34 -14.98 21.68 -16 21 C-15.41 21.89 -14.82 22.78 -14.21 23.7 C-13.46 24.88 -12.7 26.07 -11.94 27.25 C-11.55 27.84 -11.16 28.42 -10.76 29.03 C-7.94 33.46 -7.94 33.46 -8.25 36.42 C-8.5 36.94 -8.75 37.46 -9 38 C-10.98 38.5 -10.98 38.5 -13 39 C-13.29 38.51 -13.57 38.01 -13.87 37.5 C-15.18 35.25 -16.5 33 -17.81 30.75 C-18.26 29.97 -18.72 29.2 -19.18 28.39 C-19.62 27.64 -20.06 26.89 -20.52 26.11 C-20.92 25.42 -21.33 24.73 -21.74 24.01 C-22.99 21.93 -22.99 21.93 -24.66 19.87 C-26 18 -26 18 -25.94 15.94 C-24.75 13.48 -23.26 12.46 -21 11 C-15.49 13.49 -10.84 17.42 -6 21 C-6.66 15.39 -7.32 9.78 -8 4 C-2 0 -2 0 0 0 Z " fill="#1B1D1C" transform="translate(428,474)"/>
<path d="M0 0 C4.51 4.51 3.23 12.91 3.25 18.94 C3.24 36.38 0.64 54.92 -12 68 C-15.01 70.49 -16.63 70.94 -20.5 71.56 C-24.15 70.98 -24.62 70.8 -26.88 68.19 C-29.94 63.59 -30.29 60.46 -30 55 C-29 52.56 -29 52.56 -28 51 C-27.34 51 -26.68 51 -26 51 C-24.38 53.5 -24.38 53.5 -23 56 C-17.39 55.62 -13.98 55.31 -10 51 C-2.48 39.29 -0.79 24.44 -0.38 10.88 C-0.34 9.82 -0.3 8.77 -0.26 7.69 C-0.16 5.13 -0.08 2.56 0 0 Z " fill="#E7E8EA" transform="translate(258,272)"/>
<path d="M0 0 C4.5 1.12 4.5 1.12 6.93 3.85 C7.47 4.45 8.01 5.05 8.57 5.66 C9.14 6.31 9.72 6.96 10.31 7.62 C16.09 14.01 22.06 20.13 28.29 26.07 C28.89 26.66 29.49 27.25 30.11 27.86 C30.65 28.37 31.18 28.88 31.73 29.41 C33 31 33 31 34 35 C31.69 36.98 29.38 38.96 27 41 C13.05 27.22 13.05 27.22 7.86 21.09 C3.48 16.17 -1.31 11.62 -6 7 C-4.02 4.69 -2.04 2.38 0 0 Z " fill="#171918" transform="translate(123,121)"/>
<path d="M0 0 C3 0 3 0 4.47 1.36 C5 2.01 5.52 2.65 6.06 3.31 C9.11 6.95 12.23 10.5 15.44 14 C16.3 14.95 17.17 15.9 18.06 16.88 C18.7 17.58 19.34 18.28 20 19 C18.12 22.88 18.12 22.88 17 24 C14.5 24.12 14.5 24.12 12 24 C11.67 23.67 11.34 23.34 11 23 C8.48 22.6 5.97 22.25 3.44 21.94 C2.73 21.85 2.02 21.76 1.28 21.66 C-0.48 21.44 -2.24 21.22 -4 21 C-0.7 24.63 2.6 28.26 6 32 C5.34 33.32 4.68 34.64 4 36 C2.51 36.5 2.51 36.5 1 37 C0.42 36.33 0.42 36.33 -0.18 35.64 C-0.74 34.99 -1.3 34.35 -1.88 33.69 C-2.5 32.96 -3.13 32.24 -3.77 31.5 C-5.39 29.69 -7.05 27.91 -8.73 26.16 C-9.19 25.68 -9.64 25.2 -10.12 24.7 C-11.46 23.3 -12.81 21.91 -14.16 20.52 C-16 18 -16 18 -15.84 15.73 C-15 14 -15 14 -14 13 C-12.35 13.07 -10.7 13.2 -9.06 13.38 C-7.59 13.52 -7.59 13.52 -6.08 13.68 C-5.06 13.78 -4.05 13.89 -3 14 C-1.1 14.19 0.79 14.38 2.69 14.56 C4.13 14.71 5.56 14.85 7 15 C6.34 14.32 5.68 13.65 5 12.95 C4.15 12.06 3.31 11.17 2.44 10.25 C1.59 9.37 0.74 8.49 -0.13 7.58 C-2 5 -2 5 -1.84 2.73 C-1 1 -1 1 0 0 Z " fill="#1A1C1B" transform="translate(457,447)"/>
<path d="M0 0 C2.11 1.63 2.11 1.63 4.17 3.71 C4.92 4.46 5.66 5.21 6.43 5.98 C7.2 6.77 7.96 7.56 8.75 8.38 C9.53 9.16 10.31 9.94 11.11 10.74 C16.86 16.58 16.86 16.58 18 20 C15 22 15 22 13.06 21.69 C11.76 21.25 10.46 20.81 9.17 20.37 C6.43 19.9 4.84 20.49 2.25 21.44 C1.45 21.72 0.65 22.01 -0.17 22.31 C-1.08 22.65 -1.08 22.65 -2 23 C-2 24.98 -2 26.96 -2 29 C-3.98 29.66 -5.96 30.32 -8 31 C-9.1 20.99 -9.1 11.06 -9 1 C-5.61 -1.13 -3.8 -1.15 0 0 Z " fill="#1C1E1D" transform="translate(392,496)"/>
<path d="M0 0 C-0.33 1.98 -0.66 3.96 -1 6 C-1.95 6.27 -2.9 6.54 -3.88 6.81 C-7.25 7.75 -7.25 7.75 -9 11 C-9.48 14.69 -9.23 16.56 -7.5 19.88 C-4.46 22.46 -2.8 22.68 1.09 22.43 C4.06 21.76 5.34 20.49 7 18 C7 16.68 7 15.36 7 14 C3.88 15.31 3.88 15.31 2 18 C0.68 17.34 -0.64 16.68 -2 16 C-1.41 12.61 -0.23 10.79 2.06 8.25 C2.88 7.33 2.88 7.33 3.72 6.39 C4.14 5.93 4.57 5.47 5 5 C11.5 8.22 11.5 8.22 14 11 C14.53 15.62 13.37 19.27 11.31 23.38 C8.09 27.03 5.46 28.64 0.6 29.35 C-3.67 29.6 -6.97 29.56 -10.44 26.88 C-14.02 22.86 -15.77 19.87 -16.44 14.5 C-15.76 9.06 -13.02 5.78 -9.12 2.12 C-5.68 -0.22 -4.07 -0.49 0 0 Z " fill="#1C1E1D" transform="translate(482,427)"/>
<path d="M0 0 C3 1.5 3 1.5 5 3 C4.34 4.32 3.68 5.64 3 7 C2.24 6.97 1.48 6.93 0.7 6.89 C-0.29 6.87 -1.29 6.84 -2.31 6.81 C-3.3 6.78 -4.28 6.74 -5.3 6.71 C-8 6.78 -8 6.78 -9.83 8.3 C-11.8 11.16 -11.35 13.64 -11 17 C-10.12 19.95 -10.12 19.95 -8 22 C-4.51 22.95 -2.11 23.32 1.38 22.31 C3.39 20.68 3.66 19.53 4 17 C0.04 17.5 0.04 17.5 -4 18 C-4.33 16.35 -4.66 14.7 -5 13 C-3.21 12.5 -1.42 12 0.38 11.5 C1.37 11.22 2.37 10.94 3.4 10.66 C6 10 6 10 8 10 C9.58 14.14 10.66 17.57 10 22 C6.54 26.35 3.39 28.47 -2.07 29.32 C-6.65 29.67 -9.35 29.21 -12.94 26.25 C-16.72 22.71 -18.3 19.38 -18.5 14.19 C-18.41 9.29 -17.03 6.87 -13.7 3.38 C-9.47 -0.05 -5.38 -0.73 0 0 Z " fill="#1B1D1C" transform="translate(368,504)"/>
<path d="M0 0 C13.94 -0.86 13.94 -0.86 17.88 2.06 C20 5 20 5 20.69 8.5 C19.85 12.77 18.31 14.27 15 17 C16.81 20.78 18.91 24.37 21 28 C18.68 28.28 18.68 28.28 16 28 C14.41 26.07 14.41 26.07 13.06 23.56 C10.8 19.64 10.8 19.64 6.62 17.94 C5.33 17.97 5.33 17.97 4 18 C4 21.63 4 25.26 4 29 C3.01 29 2.02 29 1 29 C-0.27 19.34 -0.09 9.72 0 0 Z " fill="#393A3A" transform="translate(301,513)"/>
<path d="M0 0 C2.94 1.88 2.94 1.88 5 4 C5 4.66 5 5.32 5 6 C6.05 5.38 7.1 4.76 8.19 4.12 C11.05 2.48 13.89 1.13 17 0 C17 1.32 17 2.64 17 4 C15.1 5.7 15.1 5.7 12.62 7.25 C11.81 7.77 11 8.29 10.16 8.83 C8 10 8 10 6 10 C6 11.98 6 13.96 6 16 C9.63 16 13.26 16 17 16 C17 17.32 17 18.64 17 20 C7.76 20 -1.48 20 -11 20 C-11.08 17.44 -11.16 14.88 -11.25 12.25 C-11.29 11.45 -11.32 10.65 -11.36 9.83 C-11.41 6.34 -11.27 4.37 -9.2 1.52 C-5.97 -0.71 -3.84 -0.54 0 0 Z " fill="#232524" transform="translate(531,280)"/>
<path d="M0 0 C1.98 0.5 1.98 0.5 4 1 C4 7.93 4 14.86 4 22 C7.46 16.74 7.46 16.74 10.88 11.47 C11.32 10.82 11.75 10.17 12.2 9.5 C12.64 8.83 13.08 8.16 13.54 7.47 C14.26 6.74 14.26 6.74 15 6 C16.32 6 17.64 6 19 6 C19 12.93 19 19.86 19 27 C22.08 22.12 22.08 22.12 25.13 17.22 C28.38 12.21 28.38 12.21 31.83 11.03 C32.55 11.02 33.26 11.01 34 11 C32.2 16.09 29.31 19.9 26.09 24.2 C24.79 25.94 23.52 27.7 22.28 29.49 C21.78 30.22 21.27 30.94 20.75 31.69 C20.31 32.33 19.87 32.97 19.42 33.64 C18 35 18 35 14 35 C14 28.07 14 21.14 14 14 C10.54 19.26 10.54 19.26 7.12 24.53 C6.68 25.18 6.25 25.83 5.8 26.5 C5.36 27.17 4.92 27.84 4.46 28.53 C3.74 29.26 3.74 29.26 3 30 C1.68 30 0.36 30 -1 30 C-1.19 9.47 -1.19 9.47 0 0 Z " fill="#444645" transform="translate(211,496)"/>
<path d="M0 0 C5.2 1.03 9.26 4.03 13.69 6.81 C14.57 7.35 15.45 7.88 16.35 8.43 C17.19 8.96 18.03 9.48 18.89 10.02 C19.65 10.49 20.42 10.97 21.21 11.46 C23.28 13.24 23.64 14.33 24 17 C21.12 16.4 19 15.55 16.55 13.93 C15.93 13.53 15.31 13.13 14.67 12.71 C13.72 12.08 13.72 12.08 12.75 11.44 C12.1 11.01 11.45 10.59 10.78 10.15 C9.18 9.11 7.59 8.05 6 7 C7.93 11.39 10.93 14.93 13.9 18.67 C17 22.68 17 22.68 17 26 C10.07 25.34 3.14 24.68 -4 24 C3.92 28.95 3.92 28.95 12 34 C11.67 34.99 11.34 35.98 11 37 C5.24 35.45 0.63 32.52 -4.38 29.38 C-5.62 28.6 -5.62 28.6 -6.89 27.81 C-8.93 26.55 -10.97 25.28 -13 24 C-12.67 22.35 -12.34 20.7 -12 19 C-3.94 18.74 3.21 20.05 11 22 C10.63 21.51 10.26 21.02 9.88 20.52 C8.22 18.29 6.58 16.05 4.94 13.81 C4.36 13.04 3.78 12.27 3.18 11.48 C2.63 10.73 2.09 9.98 1.53 9.21 C1.02 8.52 0.51 7.83 -0.01 7.13 C-1.29 4.38 -0.84 2.85 0 0 Z " fill="#242525" transform="translate(494,397)"/>
<path d="M0 0 C1.75 1.3 1.75 1.3 3 3 C3.25 6.62 3.25 6.62 3 10 C2 11 2 11 -0.56 11.06 C-1.37 11.04 -2.17 11.02 -3 11 C-3 10.34 -3 9.68 -3 9 C-1.68 9 -0.36 9 1 9 C0.3 6.49 0.3 6.49 -1 4 C-3.04 3.11 -3.04 3.11 -5 3 C-5.33 6.55 -5.2 8.61 -3.56 11.81 C0.04 14.89 3.33 15.31 8 15 C11.05 13.66 12.51 12.98 14 10 C13.26 10.31 12.51 10.62 11.75 10.94 C9 12 9 12 5 13 C5.66 10.36 6.32 7.72 7 5 C11.04 4.68 13.38 4.64 16.94 6.69 C19 9 19 9 19.62 11.44 C18.58 15.71 15.62 17.87 12.12 20.31 C8.36 21.53 4.87 21.72 1.13 20.28 C-2.86 18.16 -5.36 15.71 -8 12 C-8.66 11.34 -9.32 10.68 -10 10 C-10.99 11.49 -10.99 11.49 -12 13 C-13.32 12.67 -14.64 12.34 -16 12 C-15.83 7.57 -15.41 5.48 -12.5 2.06 C-8.74 -0.7 -4.49 -1.03 0 0 Z " fill="#DADBDD" transform="translate(206,243)"/>
<path d="M0 0 C9.9 0 19.8 0 30 0 C29.67 1.32 29.34 2.64 29 4 C27.93 3.98 26.86 3.96 25.75 3.94 C22.01 4.58 22.01 4.58 20.61 6.89 C19 10.31 17.96 13.01 18.12 16.81 C18.98 18.95 19.88 20.99 21 23 C20.34 23.66 19.68 24.32 19 25 C16.11 22.26 13.25 19.51 10.4 16.73 C9.43 15.79 8.45 14.85 7.47 13.92 C6.06 12.58 4.67 11.22 3.28 9.86 C2.43 9.05 1.59 8.24 0.72 7.4 C0.15 6.61 -0.41 5.82 -1 5 C-0.67 3.35 -0.34 1.7 0 0 Z " fill="#1A1C1B" transform="translate(502,380)"/>
<path d="M0 0 C1.94 0.69 1.94 0.69 4 2 C5.9 6.18 4.46 9.84 2.93 13.93 C-0.23 20.98 -8.29 23.54 -15.07 26.21 C-25.32 29.85 -25.32 29.85 -31 29 C-33 27.94 -33 27.94 -34 26 C-33.69 22.31 -33.69 22.31 -33 19 C-32.62 19.65 -32.24 20.31 -31.85 20.98 C-30.15 23.26 -30.15 23.26 -27.37 23.39 C-26.4 23.34 -25.43 23.3 -24.44 23.25 C-23.47 23.21 -22.5 23.18 -21.5 23.14 C-20.67 23.09 -19.85 23.05 -19 23 C-18.34 23 -17.68 23 -17 23 C-11.54 17.69 -8.98 10.9 -6 4 C-4.54 8.52 -5.73 11.52 -7 16 C-6.21 14.27 -5.42 12.54 -4.62 10.81 C-4.18 9.85 -3.74 8.89 -3.29 7.89 C-2.13 5.28 -1.04 2.66 0 0 Z " fill="#E1E2E3" transform="translate(237,272)"/>
<path d="M0 0 C5.94 0 11.88 0 18 0 C18 1.32 18 2.64 18 4 C13.38 4 8.76 4 4 4 C3.67 6.64 3.34 9.28 3 12 C4.79 11.97 4.79 11.97 6.62 11.94 C10.18 11.93 13.51 12.3 17 13 C17 13.99 17 14.98 17 16 C12.38 16 7.76 16 3 16 C3 18.97 3 21.94 3 25 C7.62 25 12.24 25 17 25 C17 26.32 17 27.64 17 29 C11.06 28.67 5.12 28.34 -1 28 C-1.03 24.08 -1.05 20.17 -1.06 16.25 C-1.07 15.14 -1.08 14.03 -1.09 12.88 C-1.09 11.81 -1.09 10.74 -1.1 9.64 C-1.1 8.66 -1.11 7.67 -1.11 6.66 C-1 4 -1 4 0 0 Z " fill="#1B1D1C" transform="translate(277,513)"/>
<path d="M0 0 C0.99 0 1.98 0 3 0 C2.67 4.29 2.34 8.58 2 13 C4.08 13.14 6.17 13.29 8.31 13.44 C11.8 13.68 14.68 13.89 18 15 C17.98 13.93 17.96 12.86 17.94 11.75 C17.99 8.85 18.13 6.71 19 4 C20.32 4 21.64 4 23 4 C22.47 9.88 21.58 15.64 20.5 21.44 C20.37 22.15 20.24 22.86 20.1 23.59 C19.12 28.75 19.12 28.75 18 31 C17.01 31 16.02 31 15 31 C15.14 29.58 15.29 28.17 15.44 26.75 C15.52 25.96 15.6 25.17 15.68 24.36 C15.98 22.18 16.42 20.12 17 18 C16.43 18.01 15.86 18.02 15.28 18.04 C10.39 18.09 5.81 17.82 1 17 C0.34 20.63 -0.32 24.26 -1 28 C-1.99 28 -2.98 28 -4 28 C-4.16 22.02 -3.6 16.5 -2.56 10.62 C-2.43 9.82 -2.29 9.01 -2.15 8.18 C-1.14 2.28 -1.14 2.28 0 0 Z " fill="#212322" transform="translate(248,508)"/>
<path d="M0 0 C2.92 1.83 5.43 3.87 7 7 C7.37 12.61 7.18 16.17 4 21 C1.15 24.01 -0.39 24.9 -4.5 25.56 C-8.87 24.86 -10.25 23.39 -13 20 C-14.48 17.04 -14.06 14.26 -14 11 C-12.46 13.05 -10.98 15.03 -9.69 17.25 C-8.05 19.29 -8.05 19.29 -5.06 19.5 C-1.96 19.21 -1.96 19.21 0.38 17.44 C2.58 14.13 2.43 11.89 2 8 C-0.36 5.64 -1.78 5.51 -5 5 C-5 6.65 -5 8.3 -5 10 C-3.68 10 -2.36 10 -1 10 C-1.33 11.32 -1.66 12.64 -2 14 C-4.38 13.75 -4.38 13.75 -7 13 C-9.4 9.91 -9.4 6.8 -9 3 C-6.78 -0.69 -4.03 -0.63 0 0 Z " fill="#DEDFE0" transform="translate(279,307)"/>
<path d="M0 0 C0 0.99 0 1.98 0 3 C-3.16 3.94 -5.97 4.11 -9.25 4.06 C-10.14 4.05 -11.03 4.04 -11.95 4.04 C-12.63 4.02 -13.3 4.01 -14 4 C-14 6.97 -14 9.94 -14 13 C-13.01 12.84 -12.02 12.67 -11 12.5 C-6.97 11.92 -3.07 11.93 1 12 C1 12.99 1 13.98 1 15 C-3.29 15.66 -7.58 16.32 -12 17 C-12 19.97 -12 22.94 -12 26 C-6.72 25.34 -1.44 24.68 4 24 C3.67 25.32 3.34 26.64 3 28 C0.94 28.34 -1.12 28.67 -3.19 29 C-4.34 29.19 -5.48 29.37 -6.67 29.56 C-9.5 29.93 -12.15 30.09 -15 30 C-16.82 20.68 -17.54 11.46 -18 2 C-11.85 0.37 -6.36 -0.2 0 0 Z " fill="#353636" transform="translate(344,510)"/>
<path d="M0 0 C2.8 0.77 4.48 2.34 6.13 4.7 C7.72 8.19 7.46 10.73 6.97 14.54 C5.66 17.54 5.66 17.54 3.97 19.54 C2.98 19.54 1.99 19.54 0.97 19.54 C1.14 18.88 1.3 18.22 1.47 17.54 C2.1 13.75 2.16 10.39 1.97 6.54 C1.31 5.88 0.65 5.22 -0.03 4.54 C-2.63 4.86 -2.63 4.86 -5.03 5.54 C-5.19 6.54 -5.19 6.54 -5.36 7.55 C-7.18 17.7 -7.18 17.7 -11.03 21.54 C-13.84 21.86 -13.84 21.86 -17.03 21.54 C-19.33 19.68 -20.71 18.19 -22.03 15.54 C-22.12 13.88 -22.16 12.21 -22.15 10.54 C-22.15 9.66 -22.16 8.77 -22.16 7.86 C-22.03 5.54 -22.03 5.54 -21.03 3.54 C-19.71 3.54 -18.39 3.54 -17.03 3.54 C-17.19 4.06 -17.36 4.57 -17.53 5.11 C-18.31 8.93 -18.81 12.99 -17.03 16.54 C-14.5 17.2 -14.5 17.2 -12.03 17.54 C-11.88 16.33 -11.88 16.33 -11.73 15.09 C-11.09 10.49 -10.49 6.48 -8.4 2.29 C-5.62 0.24 -3.46 -0.24 0 0 Z " fill="#282A2A" transform="translate(540.02734375,253.45703125)"/>
<path d="M0 0 C0.66 0 1.32 0 2 0 C2.03 1.75 2.05 3.5 2.06 5.25 C2.07 6.22 2.09 7.2 2.1 8.2 C2 11 2 11 1 15 C4.3 15 7.6 15 11 15 C11 10.38 11 5.76 11 1 C12.32 1 13.64 1 15 1 C14.67 5.95 14.34 10.9 14 16 C16.97 16 19.94 16 23 16 C23.33 11.38 23.66 6.76 24 2 C24.99 2 25.98 2 27 2 C27.03 4.44 27.05 6.87 27.06 9.31 C27.07 10 27.08 10.69 27.09 11.4 C27.1 14.55 27 16.99 26 20 C22.83 19.86 19.67 19.71 16.5 19.56 C15.61 19.52 14.73 19.48 13.81 19.44 C8.49 19.19 3.27 18.73 -2 18 C-2.23 11.72 -1.4 6.12 0 0 Z " fill="#2D2F2E" transform="translate(520,306)"/>
<path d="M0 0 C1.88 1.19 1.88 1.19 3 3 C3.38 6 3.38 6 3 9 C0.89 11.63 -1.45 12.89 -4.5 14.25 C-5.66 14.78 -5.66 14.78 -6.84 15.33 C-9 16 -9 16 -12 15 C-13.2 13.29 -13.2 13.29 -14.25 11.19 C-14.61 10.5 -14.96 9.81 -15.33 9.11 C-16.14 6.55 -16.13 5.43 -15 3 C-10.39 -0.23 -5.44 -1.94 0 0 Z " fill="#E5E6E7" transform="translate(205,82)"/>
<path d="M0 0 C2.25 -0.11 4.5 -0.19 6.75 -0.25 C8 -0.3 9.26 -0.34 10.55 -0.39 C14 0 14 0 16.42 1.86 C18 4 18 4 18.5 6.5 C17.82 9.88 16.73 10.91 14 13 C10.55 13.39 10.55 13.39 6.75 13.25 C5.49 13.21 4.22 13.18 2.92 13.14 C1.48 13.07 1.48 13.07 0 13 C0 8.71 0 4.42 0 0 Z " fill="#E5E6E8" transform="translate(294,61)"/>
<path d="M0 0 C1.5 1.51 1.5 1.51 3.07 3.61 C3.63 4.37 4.2 5.12 4.79 5.9 C5.37 6.69 5.96 7.49 6.56 8.31 C7.15 9.1 7.74 9.88 8.35 10.69 C10.64 13.76 12.88 16.82 15 20 C14.62 22.19 14.62 22.19 14 24 C12.68 24.33 11.36 24.66 10 25 C7.71 21.9 5.42 18.79 3.12 15.69 C2.47 14.81 1.82 13.93 1.15 13.02 C0.53 12.17 -0.1 11.32 -0.74 10.45 C-1.32 9.67 -1.89 8.89 -2.49 8.08 C-3.7 6.42 -4.86 4.71 -6 3 C-3.38 0 -3.38 0 0 0 Z " fill="#1E201F" transform="translate(437,467)"/>
<path d="M0 0 C0.99 0 1.98 0 3 0 C3 2.97 3 5.94 3 9 C9.93 11.6 16.88 13.96 24 16 C24 17.32 24 18.64 24 20 C15.46 18.32 7.27 15.66 -1 13 C-1.33 15.64 -1.66 18.28 -2 21 C-2.99 20.67 -3.98 20.34 -5 20 C-4.45 12.91 -2.39 6.67 0 0 Z " fill="#242625" transform="translate(512,351)"/>
<path d="M0 0 C0.99 0 1.98 0 3 0 C2.67 2.97 2.34 5.94 2 9 C3.97 9.29 3.97 9.29 5.98 9.59 C7.72 9.85 9.45 10.11 11.19 10.38 C12.05 10.5 12.92 10.63 13.81 10.76 C18.12 11.42 22.02 12.11 26 14 C26 14.99 26 15.98 26 17 C17.4 16.55 9.34 15.14 1 13 C0.34 15.64 -0.32 18.28 -1 21 C-1.99 21 -2.98 21 -4 21 C-3.3 13.84 -1.69 6.98 0 0 Z " fill="#313333" transform="translate(517,328)"/>
<path d="M0 0 C1.45 4.62 0.67 8.51 -1 13 C-3.62 15.88 -3.62 15.88 -6 18 C-6 18.99 -6 19.98 -6 21 C-19.22 25.86 -19.22 25.86 -25 25 C-27 23.94 -27 23.94 -28 22 C-27.69 18.31 -27.69 18.31 -27 15 C-26.62 15.65 -26.24 16.31 -25.85 16.98 C-24.15 19.26 -24.15 19.26 -21.37 19.39 C-20.4 19.34 -19.43 19.3 -18.44 19.25 C-17.47 19.21 -16.5 19.18 -15.5 19.14 C-14.67 19.09 -13.85 19.05 -13 19 C-12.34 19 -11.68 19 -11 19 C-5.54 13.69 -2.98 6.9 0 0 Z " fill="#D2D4D5" transform="translate(231,276)"/>
<path d="M0 0 C4.59 4.59 3.18 13.14 3.19 19.25 C3.2 20.24 3.21 21.22 3.22 22.24 C3.24 28.73 2.53 34.7 1 41 C-1.48 41.5 -1.48 41.5 -4 42 C-5.46 39.07 -4.46 37.3 -3.62 34.19 C-2.13 28.56 -0.91 23.31 -0.68 17.48 C-0.64 16.46 -0.6 15.44 -0.56 14.38 C-0.52 13.33 -0.48 12.27 -0.44 11.19 C-0.39 10.11 -0.35 9.04 -0.31 7.93 C-0.2 5.29 -0.1 2.64 0 0 Z " fill="#CDCECF" transform="translate(258,272)"/>
<path d="M0 0 C0.33 0 0.66 0 1 0 C1 7.26 1 14.52 1 22 C4.2 16.83 4.2 16.83 7.4 11.65 C7.8 11 8.2 10.36 8.62 9.7 C9.23 8.71 9.23 8.71 9.85 7.7 C11 6 11 6 13 4 C14.32 4 15.64 4 17 4 C15.61 7.95 13.75 10.96 11.25 14.31 C10.19 15.74 10.19 15.74 9.11 17.2 C8.41 18.12 7.72 19.05 7 20 C6.39 20.82 5.77 21.64 5.14 22.49 C3.77 24.33 2.39 26.17 1 28 C0.01 27.67 -0.98 27.34 -2 27 C-2.06 23.06 -2.09 19.13 -2.12 15.19 C-2.14 14.07 -2.16 12.95 -2.18 11.79 C-2.18 10.72 -2.19 9.65 -2.2 8.54 C-2.21 7.55 -2.22 6.56 -2.23 5.54 C-2 3 -2 3 0 0 Z " fill="#232524" transform="translate(228,503)"/>
<path d="M0 0 C2.23 -0.11 4.46 -0.19 6.69 -0.25 C7.93 -0.3 9.17 -0.34 10.45 -0.39 C14.59 0.06 16.19 0.97 19 4 C19.31 7.75 19.31 7.75 19 11 C18.34 11 17.68 11 17 11 C16.71 10.22 16.42 9.43 16.12 8.62 C15.15 5.9 15.15 5.9 13 4 C10.57 3.54 10.57 3.54 7.88 3.38 C6.96 3.3 6.05 3.23 5.12 3.15 C4.42 3.1 3.72 3.05 3 3 C3.01 3.83 3.02 4.67 3.04 5.53 C3.09 12.12 2.89 18.47 2 25 C1.67 25 1.34 25 1 25 C-0.11 19.67 -0.12 14.54 -0.06 9.12 C-0.06 8.25 -0.05 7.37 -0.05 6.46 C-0.04 4.31 -0.02 2.15 0 0 Z " fill="#313332" transform="translate(301,513)"/>
<path d="M0 0 C7.43 -0.1 14.64 0 22 1 C18.4 3.4 15.49 3.44 11.31 3.62 C10.61 3.66 9.91 3.7 9.19 3.74 C7.46 3.84 5.73 3.92 4 4 C4.63 4.63 5.25 5.25 5.9 5.9 C8.93 8.93 11.97 11.97 15 15 C13.02 15.99 13.02 15.99 11 17 C8.96 15.12 6.94 13.23 4.94 11.31 C4.07 10.52 4.07 10.52 3.18 9.71 C1.61 8.2 0.22 6.8 -1 5 C-0.87 2.11 -0.87 2.11 0 0 Z " fill="#252726" transform="translate(502,380)"/>
<path d="M0 0 C3 0.25 3 0.25 5 2.25 C5.27 5.6 5.09 8.88 5 12.25 C1.7 12.25 -1.6 12.25 -5 12.25 C-5.2 4.63 -5.2 4.63 -5 2.25 C-3 0.25 -3 0.25 0 0 Z " fill="#E8E9EA" transform="translate(528,283.75)"/>
<path d="M0 0 C1.61 -0.04 3.22 -0.08 4.88 -0.12 C5.78 -0.15 6.68 -0.17 7.62 -0.2 C10 0 10 0 12 2 C11.75 5.56 11.75 5.56 11 9 C7.57 10.71 3.78 10.05 0 10 C0 6.7 0 3.4 0 0 Z " fill="#EBECEE" transform="translate(305,517)"/>
<path d="M0 0 C1.98 0.5 1.98 0.5 4 1 C4.14 7.98 3.78 14.85 3.22 21.8 C3.03 24.55 2.96 27.25 3 30 C1.68 30 0.36 30 -1 30 C-1.19 9.47 -1.19 9.47 0 0 Z " fill="#404242" transform="translate(211,496)"/>
<path d="M0 0 C0.33 0 0.66 0 1 0 C1 5.28 1 10.56 1 16 C1.66 16 2.32 16 3 16 C3 14.35 3 12.7 3 11 C4.98 11 6.96 11 9 11 C9 11.33 9 11.66 9 12 C7.35 12 5.7 12 4 12 C4 14.97 4 17.94 4 21 C8.62 21 13.24 21 18 21 C18 22.32 18 23.64 18 25 C12.06 24.67 6.12 24.34 0 24 C0 16.08 0 8.16 0 0 Z " fill="#414342" transform="translate(276,517)"/>
<path d="M0 0 C1.51 0.02 1.51 0.02 3.06 0.04 C4.07 0.04 5.08 0.05 6.12 0.06 C7.3 0.08 7.3 0.08 8.5 0.1 C8.83 0.76 9.16 1.42 9.5 2.1 C8.51 2.59 8.51 2.59 7.5 3.1 C7.83 4.75 8.16 6.4 8.5 8.1 C6.06 10.34 4.78 11.07 1.43 11.41 C-1.5 11.1 -1.5 11.1 -4.5 9.1 C-4.5 8.44 -4.5 7.78 -4.5 7.1 C-1.24 5.21 1.78 4.6 5.5 4.1 C4.04 4.07 2.58 4.05 1.12 4.04 C-0.1 4.02 -0.1 4.02 -1.34 4 C-3.55 3.95 -3.55 3.95 -5.5 5.1 C-3.1 0.12 -3.1 0.12 0 0 Z " fill="#AEAFB0" transform="translate(229.50390625,239.90234375)"/>
<path d="M0 0 C0 1.32 0 2.64 0 4 C-1.9 5.7 -1.9 5.7 -4.38 7.25 C-5.19 7.77 -6 8.29 -6.84 8.83 C-9 10 -9 10 -11 10 C-11 11.98 -11 13.96 -11 16 C-11.33 16 -11.66 16 -12 16 C-12.23 13.95 -12.46 11.9 -12.68 9.85 C-12.82 7.99 -12.82 7.99 -14 7 C-14 10.3 -14 13.6 -14 17 C-17.63 17 -21.26 17 -25 17 C-25 16.67 -25 16.34 -25 16 C-21.7 16 -18.4 16 -15 16 C-15 12.7 -15 9.4 -15 6 C-14.34 6 -13.68 6 -13 6 C-12.67 5.34 -12.34 4.68 -12 4 C-12 4.66 -12 5.32 -12 6 C-10.91 5.38 -9.81 4.76 -8.69 4.12 C-8.07 3.78 -7.46 3.43 -6.82 3.07 C-1.59 0 -1.59 0 0 0 Z " fill="#595A5A" transform="translate(548,280)"/>
<path d="M0 0 C4.62 0 9.24 0 14 0 C13.01 3.3 12.02 6.6 11 10 C7.54 8.27 5.86 7.1 3.25 4.44 C2.64 3.82 2.02 3.2 1.39 2.56 C0 1 0 1 0 0 Z " fill="#E8EAEB" transform="translate(506,384)"/>
<path d="M0 0 C5.61 0 11.22 0 17 0 C17 1.32 17 2.64 17 4 C12.38 4 7.76 4 3 4 C2.67 4.99 2.34 5.98 2 7 C1.34 6.67 0.68 6.34 0 6 C0 4.02 0 2.04 0 0 Z " fill="#3A3C3C" transform="translate(278,513)"/>
<path d="M0 0 C5.61 0 11.22 0 17 0 C16.67 1.32 16.34 2.64 16 4 C14.39 4.22 14.39 4.22 12.75 4.44 C10.08 4.84 7.59 5.28 5 6 C5 5.34 5 4.68 5 4 C0.05 4 -4.9 4 -10 4 C-10 3.67 -10 3.34 -10 3 C-2.08 2.5 -2.08 2.5 6 2 C3.03 1.5 3.03 1.5 0 1 C0 0.67 0 0.34 0 0 Z " fill="#4B4D4D" transform="translate(515,380)"/>
<path d="M0 0 C0.99 0.33 1.98 0.66 3 1 C2.34 1 1.68 1 1 1 C1.66 3.64 2.32 6.28 3 9 C6.3 9.33 9.6 9.66 13 10 C13 10.66 13 11.32 13 12 C6.07 12 -0.86 12 -8 12 C-7.67 11.34 -7.34 10.68 -7 10 C-4.69 10 -2.38 10 0 10 C0 6.7 0 3.4 0 0 Z " fill="#0D0F0E" transform="translate(534,287)"/>
<path d="M0 0 C-0.33 1.32 -0.66 2.64 -1 4 C-9.42 4.5 -9.42 4.5 -18 5 C-18 3.68 -18 2.36 -18 1 C-15.75 0.83 -13.5 0.67 -11.25 0.5 C-9.37 0.36 -9.37 0.36 -7.45 0.22 C-4.97 0.06 -2.49 0 0 0 Z " fill="#151716" transform="translate(348,534)"/>
<path d="M0 0 C6.88 5.62 6.88 5.62 8 9 C2.25 12 2.25 12 0 12 C0 8.04 0 4.08 0 0 Z " fill="#DEDFE0" transform="translate(389,502)"/>
<path d="M0 0 C1.24 0.02 1.24 0.02 2.5 0.04 C3.32 0.04 4.15 0.05 5 0.06 C5.64 0.07 6.28 0.09 6.93 0.1 C7.26 0.76 7.59 1.42 7.93 2.1 C4.96 2.1 1.99 2.1 -1.07 2.1 C-1.05 2.93 -1.04 3.77 -1.03 4.62 C-0.98 11.22 -1.18 17.57 -2.07 24.1 C-2.4 24.1 -2.73 24.1 -3.07 24.1 C-3.1 20.29 -3.11 16.47 -3.13 12.66 C-3.14 11.57 -3.15 10.48 -3.15 9.36 C-3.16 8.33 -3.16 7.29 -3.16 6.23 C-3.17 5.27 -3.17 4.31 -3.18 3.32 C-3.03 0.42 -2.9 0.14 0 0 Z " fill="#0C0E0D" transform="translate(305.06640625,513.90234375)"/>
<path d="M0 0 C0.33 0 0.66 0 1 0 C0.67 7.92 0.34 15.84 0 24 C0.66 24 1.32 24 2 24 C1.67 25.32 1.34 26.64 1 28 C0.01 27.67 -0.98 27.34 -2 27 C-2.06 23.06 -2.09 19.13 -2.12 15.19 C-2.14 14.07 -2.16 12.95 -2.18 11.79 C-2.18 10.72 -2.19 9.65 -2.2 8.54 C-2.21 7.55 -2.22 6.56 -2.23 5.54 C-2 3 -2 3 0 0 Z " fill="#0D0E0D" transform="translate(228,503)"/>
<path d="M0 0 C7.43 -0.1 14.64 0 22 1 C18.85 3.1 18.14 3.24 14.55 3.2 C13.28 3.19 13.28 3.19 11.98 3.18 C11.1 3.16 10.22 3.14 9.31 3.12 C8.42 3.12 7.53 3.11 6.61 3.1 C4.4 3.07 2.2 3.04 0 3 C0 2.01 0 1.02 0 0 Z " fill="#141615" transform="translate(502,380)"/>
<path d="M0 0 C0.33 0.66 0.66 1.32 1 2 C1.66 2 2.32 2 3 2 C3 3.98 3 5.96 3 8 C4.32 8 5.64 8 7 8 C6.67 9.32 6.34 10.64 6 12 C3.62 11.75 3.62 11.75 1 11 C-1.41 7.9 -1.25 4.82 -1 1 C-0.67 0.67 -0.34 0.34 0 0 Z " fill="#C9CACB" transform="translate(271,309)"/>
<path d="M0 0 C1.23 0.01 1.23 0.01 2.48 0.03 C3.42 0.04 3.42 0.04 4.38 0.06 C4.38 1.38 4.38 2.7 4.38 4.06 C1.6 5.45 -0.56 5.25 -3.62 5.06 C-4.62 4.4 -5.6 3.74 -6.62 3.06 C-6.62 2.4 -6.62 1.74 -6.62 1.06 C-4.22 -0.14 -2.68 -0.04 0 0 Z " fill="#DBDDDE" transform="translate(231.625,245.9375)"/>
<path d="M0 0 C1.32 0 2.64 0 4 0 C4 4.62 4 9.24 4 14 C5.98 14 7.96 14 10 14 C10.33 12.68 10.66 11.36 11 10 C11.33 11.98 11.66 13.96 12 16 C8.7 16 5.4 16 2 16 C2.33 11.05 2.66 6.1 3 1 C2.34 1 1.68 1 1 1 C0.67 1.99 0.34 2.98 0 4 C0 2.68 0 1.36 0 0 Z " fill="#ADAEAF" transform="translate(519,305)"/>
<path d="M0 0 C0.66 0 1.32 0 2 0 C2.03 1.75 2.05 3.5 2.06 5.25 C2.07 6.22 2.09 7.2 2.1 8.2 C2.01 10.66 1.71 12.66 1 15 C1.99 15 2.98 15 4 15 C4 15.66 4 16.32 4 17 C2.35 17 0.7 17 -1 17 C-1.03 14.73 -1.05 12.46 -1.06 10.19 C-1.08 8.29 -1.08 8.29 -1.1 6.36 C-1 3 -1 3 0 0 Z " fill="#151615" transform="translate(520,306)"/>
<path d="M0 0 C1.98 0.11 3.96 0.24 5.94 0.38 C7.04 0.44 8.14 0.51 9.28 0.59 C10.63 0.79 10.63 0.79 12 1 C12.33 1.66 12.66 2.32 13 3 C12.67 3.66 12.34 4.32 12 5 C6.81 5.21 2.87 4.59 -2 3 C-1.34 2.01 -0.68 1.02 0 0 Z " fill="#3B3D3D" transform="translate(251,521)"/>
<path d="M0 0 C0.33 0 0.66 0 1 0 C1.85 7.69 2.12 15.26 2 23 C1.01 22.67 0.02 22.34 -1 22 C-1.11 14.59 -0.91 7.36 0 0 Z " fill="#101211" transform="translate(212,503)"/>
<path d="M0 0 C2.7 0.38 3.81 0.79 5.7 2.81 C6.21 3.53 6.72 4.26 7.25 5 C8.03 6.08 8.03 6.08 8.83 7.19 C10 9 10 9 10 10 C7.81 10.5 7.81 10.5 5 10 C2.6 7.16 0 3.81 0 0 Z " fill="#343635" transform="translate(312,531)"/>
<path d="M0 0 C0.8 0.01 1.6 0.02 2.42 0.03 C3.03 0.04 3.63 0.05 4.25 0.06 C4.25 1.05 4.25 2.04 4.25 3.06 C0.27 4.39 -3.6 4.13 -7.75 4.06 C-8.08 3.07 -8.41 2.08 -8.75 1.06 C-5.76 0.19 -3.11 -0.05 0 0 Z " fill="#323433" transform="translate(339.75,509.9375)"/>
<path d="M0 0 C0.99 0 1.98 0 3 0 C2.67 4.29 2.34 8.58 2 13 C1.34 12.01 0.68 11.02 0 10 C-0.99 10.5 -0.99 10.5 -2 11 C-1.86 9.54 -1.71 8.08 -1.56 6.62 C-1.48 5.81 -1.4 5 -1.32 4.16 C-1 2 -1 2 0 0 Z " fill="#1C1D1D" transform="translate(248,508)"/>
<path d="M0 0 C1.32 0 2.64 0 4 0 C3.67 4.95 3.34 9.9 3 15 C2.67 15 2.34 15 2 15 C1.67 12.69 1.34 10.38 1 8 C0.67 8 0.34 8 0 8 C0 5.36 0 2.72 0 0 Z " fill="#3D3F3E" transform="translate(531,307)"/>
<path d="M0 0 C0 1.32 0 2.64 0 4 C-2.97 5.65 -5.94 7.3 -9 9 C-8 4 -8 4 -5.06 1.69 C-2 0 -2 0 0 0 Z " fill="#282A29" transform="translate(548,280)"/>
<path d="M0 0 C6.4 -0.49 6.4 -0.49 9.44 2 C10.21 2.99 10.21 2.99 11 4 C9.02 6.31 7.04 8.62 5 11 C3.68 10.67 2.36 10.34 1 10 C2.24 9.44 2.24 9.44 3.5 8.88 C4.32 8.26 5.15 7.64 6 7 C6.42 3.87 6.42 3.87 6 1 C4.02 1 2.04 1 0 1 C0 0.67 0 0.34 0 0 Z " fill="#CBCCCE" transform="translate(213,248)"/>
<path d="M0 0 C0.99 0 1.98 0 3 0 C2.67 4.62 2.34 9.24 2 14 C1.34 14 0.68 14 0 14 C0 9.38 0 4.76 0 0 Z " fill="#171918" transform="translate(544,308)"/>
<path d="M0 0 C0.33 0 0.66 0 1 0 C1.12 7.62 1.12 7.62 0 11 C-1.65 11 -3.3 11 -5 11 C-4.34 10.67 -3.68 10.34 -3 10 C-3 9.34 -3 8.68 -3 8 C-4.98 8 -6.96 8 -9 8 C-9 7.67 -9 7.34 -9 7 C-7.02 7 -5.04 7 -3 7 C-3 5.02 -3 3.04 -3 1 C-2.67 1 -2.34 1 -2 1 C-2 2.98 -2 4.96 -2 7 C-1.34 7 -0.68 7 0 7 C0 4.69 0 2.38 0 0 Z " fill="#464747" transform="translate(546,315)"/>
<path d="M0 0 C3.12 0.49 6 1 9 2 C9 2.99 9 3.98 9 5 C5.04 4.67 1.08 4.34 -3 4 C-3 3.67 -3 3.34 -3 3 C-1.35 3 0.3 3 2 3 C2 2.34 2 1.68 2 1 C1.34 0.67 0.68 0.34 0 0 Z " fill="#3A3C3B" transform="translate(534,340)"/>
<path d="M0 0 C0.33 0.99 0.66 1.98 1 3 C1.99 3 2.98 3 4 3 C4.33 2.34 4.66 1.68 5 1 C4.67 3.31 4.34 5.62 4 8 C2.35 8.33 0.7 8.66 -1 9 C-2.6 5.8 -1.03 3.28 0 0 Z " fill="#CBCCCE" transform="translate(255,305)"/>
<path d="M0 0 C5.94 0.33 11.88 0.66 18 1 C18 1.33 18 1.66 18 2 C12.56 2.5 12.56 2.5 7 3 C6.67 3.99 6.34 4.98 6 6 C3.98 4.36 1.98 2.69 0 1 C0 0.67 0 0.34 0 0 Z " fill="#DCD9CF" transform="translate(145,464)"/>
<path d="M0 0 C2.05 0.03 4.1 0.07 6.15 0.1 C6.15 1.09 6.15 2.08 6.15 3.1 C3.51 3.76 0.87 4.42 -1.85 5.1 C-2.18 3.78 -2.51 2.46 -2.85 1.1 C-1.85 0.1 -1.85 0.1 0 0 Z " fill="#161817" transform="translate(535.84765625,253.90234375)"/>
<path d="M0 0 C-0.33 1.32 -0.66 2.64 -1 4 C-3.31 4 -5.62 4 -8 4 C-8 3.34 -8 2.68 -8 2 C-8.99 1.67 -9.98 1.34 -11 1 C-7.27 0.43 -3.79 0 0 0 Z " fill="#393B3A" transform="translate(348,534)"/>
<path d="M0 0 C0.1 0.64 0.21 1.28 0.31 1.94 C0.54 2.62 0.77 3.3 1 4 C1.99 4.33 2.98 4.66 4 5 C3.01 5.33 2.02 5.66 1 6 C0.27 8.02 0.27 8.02 0 10 C-0.66 10 -1.32 10 -2 10 C-2.2 3.95 -2.2 3.95 -2 2 C-1.34 1.34 -0.68 0.68 0 0 Z " fill="#111312" transform="translate(248,517)"/>
<path d="M0 0 C1.32 0 2.64 0 4 0 C3.67 2.97 3.34 5.94 3 9 C2.67 8.01 2.34 7.02 2 6 C1.34 6 0.68 6 0 6 C-0.33 6.66 -0.66 7.32 -1 8 C-0.67 5.36 -0.34 2.72 0 0 Z " fill="#3B3D3C" transform="translate(267,512)"/>
<path d="M0 0 C1.98 0 3.96 0 6 0 C6 0.66 6 1.32 6 2 C5.01 2.5 5.01 2.5 4 3 C3.34 6.03 3.34 6.03 3 9 C2.34 9 1.68 9 1 9 C0.67 6.03 0.34 3.06 0 0 Z " fill="#131514" transform="translate(326,512)"/>
<path d="M0 0 C0.99 0.33 1.98 0.66 3 1 C3.84 2.77 3.84 2.77 4 5 C3 7.36 3 7.36 1.56 9.75 C0.85 10.95 0.85 10.95 0.13 12.17 C-0.24 12.78 -0.62 13.38 -1 14 C-2.27 10.18 -1.27 8.74 0 5 C0.17 2.25 0.17 2.25 0 0 Z " fill="#282929" transform="translate(231,275)"/>
<path d="M0 0 C5.94 1.49 5.94 1.49 12 3 C11.01 3.33 10.02 3.66 9 4 C8.67 4.99 8.34 5.98 8 7 C6.66 6.22 5.33 5.42 4 4.62 C3.26 4.18 2.52 3.74 1.75 3.29 C1.17 2.86 0.59 2.44 0 2 C0 1.34 0 0.68 0 0 Z " fill="#BEBFC0" transform="translate(68,233)"/>
<path d="M0 0 C0.66 0.33 1.32 0.66 2 1 C1.67 5.29 1.34 9.58 1 14 C-0.32 13.34 -1.64 12.68 -3 12 C-4.66 11.32 -6.33 10.65 -8 10 C-4.63 8.92 -3.7 9.07 0 10 C0 6.7 0 3.4 0 0 Z " fill="#B5B7B7" transform="translate(214,228)"/>
<path d="M0 0 C0 0.66 0 1.32 0 2 C-5.46 2.11 -10.62 1.92 -16 1 C-16 0.67 -16 0.34 -16 0 C-10.5 -1.3 -5.53 -0.71 0 0 Z " fill="#0E100E" transform="translate(543,323)"/>
<path d="M0 0 C0 0.99 0 1.98 0 3 C-3.3 3 -6.6 3 -10 3 C-10 2.34 -10 1.68 -10 1 C-6.79 -0.61 -3.56 -0.06 0 0 Z " fill="#242525" transform="translate(345,522)"/>
<path d="M0 0 C2 1 2 1 2.81 3.38 C3 6 3 6 1.69 7.81 C0 9 0 9 -2 9 C-2.69 7.31 -2.69 7.31 -3 5 C-1.56 2.25 -1.56 2.25 0 0 Z " fill="#343635" transform="translate(205,285)"/>
<path d="M0 0 C1.04 3.21 0.94 5.41 0.19 8.69 C-0.07 9.87 -0.07 9.87 -0.33 11.07 C-1 13 -1 13 -3 14 C-4.07 11.24 -4.16 9.46 -3.18 6.66 C-2.16 4.42 -1.12 2.2 0 0 Z " fill="#ACADAE" transform="translate(231,276)"/>
<path d="M0 0 C0.66 0 1.32 0 2 0 C2 2.97 2 5.94 2 9 C1.67 9 1.34 9 1 9 C1 7.02 1 5.04 1 3 C-0.65 4.65 -2.3 6.3 -4 8 C-4.66 7.67 -5.32 7.34 -6 7 C-4.72 5.29 -3.38 3.63 -2 2 C-1.34 2 -0.68 2 0 2 C0 1.34 0 0.68 0 0 Z " fill="#B0A17D" transform="translate(519,159)"/>
<path d="M0 0 C0.99 0 1.98 0 3 0 C1.12 3.88 1.12 3.88 0 5 C-2 5.04 -4 5.04 -6 5 C-6.33 4.34 -6.66 3.68 -7 3 C-3.53 2.5 -3.53 2.5 0 2 C0 1.34 0 0.68 0 0 Z " fill="#191B1A" transform="translate(529,270)"/>
<path d="M0 0 C0.99 0 1.98 0 3 0 C2.34 4.49 1.3 8.67 0 13 C-0.33 13 -0.66 13 -1 13 C-0.67 8.71 -0.34 4.42 0 0 Z " fill="#171918" transform="translate(517,328)"/>
<path d="M0 0 C3.74 1.47 3.74 1.47 5 4 C5.13 6.67 5.04 9.32 5 12 C4.67 12 4.34 12 4 12 C3.67 9.36 3.34 6.72 3 4 C2.36 3.88 1.72 3.75 1.06 3.62 C0.38 3.42 -0.3 3.21 -1 3 C-1.33 2.34 -1.66 1.68 -2 1 C-1.34 0.67 -0.68 0.34 0 0 Z " fill="#484A4A" transform="translate(542,256)"/>
<path d="M0 0 C0 0.99 0 1.98 0 3 C1.65 3.33 3.3 3.66 5 4 C5 4.33 5 4.66 5 5 C0.54 5.5 0.54 5.5 -4 6 C-4 4.68 -4 3.36 -4 2 C-4.66 1.67 -5.32 1.34 -6 1 C-3 0 -3 0 0 0 Z " fill="#323333" transform="translate(230,235)"/>
<path d="M0 0 C0.66 0.66 1.32 1.32 2 2 C0.02 4.31 -1.96 6.62 -4 9 C-4.99 8.67 -5.98 8.34 -7 8 C-4.69 5.36 -2.38 2.72 0 0 Z " fill="#CFDBDB" transform="translate(439,412)"/>
<path d="M0 0 C0.33 1.33 0.67 2.67 1 4 C1.21 4.66 1.41 5.32 1.62 6 C2.06 8.31 1.71 9.79 1 12 C0.01 11.67 -0.98 11.34 -2 11 C-1.12 3.38 -1.12 3.38 0 0 Z " fill="#383A39" transform="translate(509,360)"/>
<path d="M0 0 C0 0.33 0 0.66 0 1 C-1.98 1 -3.96 1 -6 1 C-6.33 2.65 -6.66 4.3 -7 6 C-7.99 5.67 -8.98 5.34 -10 5 C-10.33 5.99 -10.66 6.98 -11 8 C-10.65 5.41 -10.26 3.42 -8.88 1.19 C-5.99 -0.64 -3.32 -0.19 0 0 Z " fill="#3A3C3C" transform="translate(531,280)"/>
<path d="M0 0 C1.32 0 2.64 0 4 0 C3.25 2.94 3.25 2.94 2 6 C-0.12 6.88 -0.12 6.88 -2 7 C-1.34 4.69 -0.68 2.38 0 0 Z " fill="#2B2D2C" transform="translate(519,386)"/>
<path d="M0 0 C1.38 1.29 2.71 2.63 4 4 C4 4.66 4 5.32 4 6 C3.34 6 2.68 6 2 6 C1.67 6.99 1.34 7.98 1 9 C0.34 8.67 -0.32 8.34 -1 8 C-0.67 5.36 -0.34 2.72 0 0 Z " fill="#3A3B3B" transform="translate(256,255)"/>
<path d="M0 0 C0.33 1.32 0.66 2.64 1 4 C1.66 4 2.32 4 3 4 C2.67 5.65 2.34 7.3 2 9 C1.01 9 0.02 9 -1 9 C-0.67 6.03 -0.34 3.06 0 0 Z " fill="#292B2A" transform="translate(264,530)"/>
<path d="M0 0 C0.66 0 1.32 0 2 0 C2.66 1.65 3.32 3.3 4 5 C-2.62 4.25 -2.62 4.25 -6 2 C-4.02 2 -2.04 2 0 2 C0 1.34 0 0.68 0 0 Z " fill="#2C726A" transform="translate(252,469)"/>
<path d="M0 0 C1.71 1.62 3.37 3.29 5 5 C5 5.66 5 6.32 5 7 C2.03 6.5 2.03 6.5 -1 6 C-0.67 4.02 -0.34 2.04 0 0 Z " fill="#AA9871" transform="translate(124,420)"/>
<path d="M0 0 C1.32 0.33 2.64 0.66 4 1 C4.33 2.65 4.66 4.3 5 6 C3.06 5.25 3.06 5.25 1 4 C0.25 1.88 0.25 1.88 0 0 Z " fill="#1B1D1C" transform="translate(312,531)"/>
<path d="M0 0 C1.32 0 2.64 0 4 0 C4.33 2.31 4.66 4.62 5 7 C4.67 6.01 4.34 5.02 4 4 C2.68 4 1.36 4 0 4 C0 2.68 0 1.36 0 0 Z " fill="#AD9C77" transform="translate(69,333)"/>
<path d="M0 0 C2 3 2 3 1.62 5.19 C1.42 5.79 1.21 6.38 1 7 C0.01 7 -0.98 7 -2 7 C-2.33 7.66 -2.66 8.32 -3 9 C-2.44 5.66 -1.65 2.97 0 0 Z " fill="#2C2E2D" transform="translate(263,271)"/>
<path d="M0 0 C0 0.33 0 0.66 0 1 C-4.12 2.29 -7.67 3.26 -12 3 C-12.33 2.34 -12.66 1.68 -13 1 C-8.59 -0.1 -4.52 -0.08 0 0 Z " fill="#A6A8A8" transform="translate(73,262)"/>
<path d="M0 0 C0.99 0.99 1.98 1.98 3 3 C3 3.66 3 4.32 3 5 C2.01 5.5 2.01 5.5 1 6 C0.67 6.99 0.34 7.98 0 9 C-0.66 9 -1.32 9 -2 9 C-1.34 6.03 -0.68 3.06 0 0 Z " fill="#CFD0D1" transform="translate(258,232)"/>
<path d="M0 0 C0.66 0.33 1.32 0.66 2 1 C2 2.98 2 4.96 2 7 C2.66 7.33 3.32 7.66 4 8 C3.01 8 2.02 8 1 8 C0.67 7.01 0.34 6.02 0 5 C-0.66 5 -1.32 5 -2 5 C-1.12 1.12 -1.12 1.12 0 0 Z " fill="#D5D8D9" transform="translate(388,149)"/>
<path d="M0 0 C1.98 0.66 3.96 1.32 6 2 C6 2.99 6 3.98 6 5 C3 5 3 5 1.31 3.62 C0 2 0 2 0 0 Z " fill="#DEDBD2" transform="translate(123,443)"/>
<path d="M0 0 C3.38 1.19 5.65 2.28 8 5 C6.68 5.33 5.36 5.66 4 6 C2.68 4.02 1.36 2.04 0 0 Z " fill="#CCCDCE" transform="translate(498,403)"/>
<path d="M0 0 C5.75 -0.12 5.75 -0.12 8 1 C8 1.66 8 2.32 8 3 C5.36 2.67 2.72 2.34 0 2 C0 1.34 0 0.68 0 0 Z " fill="#0E100F" transform="translate(528,340)"/>
<path d="M0 0 C1.32 1.65 2.64 3.3 4 5 C-0.55 5.37 -0.55 5.37 -2.81 3.5 C-3.2 3 -3.6 2.51 -4 2 C-2.68 1.34 -1.36 0.68 0 0 Z " fill="#3A3B3B" transform="translate(253,245)"/>
<path d="M0 0 C0.66 0.33 1.32 0.66 2 1 C0.35 2.98 -1.3 4.96 -3 7 C-3.99 6.67 -4.98 6.34 -6 6 C-4.02 4.02 -2.04 2.04 0 0 Z " fill="#BFC0C1" transform="translate(390,208)"/>
<path d="M0 0 C2.92 1.07 4.78 1.78 7 4 C6.67 4.99 6.34 5.98 6 7 C1.12 2.25 1.12 2.25 0 0 Z " fill="#2A2B2B" transform="translate(300,153)"/>
<path d="M0 0 C0.66 0.33 1.32 0.66 2 1 C1.34 2.32 0.68 3.64 0 5 C-3.3 4.34 -6.6 3.68 -10 3 C-10 2.67 -10 2.34 -10 2 C-6.7 2 -3.4 2 0 2 C0 1.34 0 0.68 0 0 Z " fill="#B3A381" transform="translate(481,151)"/>
<path d="M0 0 C0.33 0 0.66 0 1 0 C1 1.98 1 3.96 1 6 C1.66 6 2.32 6 3 6 C3 7.65 3 9.3 3 11 C2.34 10.01 1.68 9.02 1 8 C0.01 8.5 0.01 8.5 -1 9 C-0.67 6.03 -0.34 3.06 0 0 Z " fill="#525453" transform="translate(247,510)"/>
<path d="M0 0 C0.99 0.33 1.98 0.66 3 1 C2.34 2.32 1.68 3.64 1 5 C-1.31 4.01 -3.62 3.02 -6 2 C-6 1.67 -6 1.34 -6 1 C-4.79 1.03 -4.79 1.03 -3.56 1.06 C-1.07 1.3 -1.07 1.3 0 0 Z " fill="#CDCECF" transform="translate(281,310)"/>
<path d="M0 0 C0 0.99 0 1.98 0 3 C-2.97 2.67 -5.94 2.34 -9 2 C-9 1.67 -9 1.34 -9 1 C-5.85 0.3 -3.27 0 0 0 Z " fill="#F0F1F3" transform="translate(217,296)"/>
<path d="M0 0 C2.48 0.99 2.48 0.99 5 2 C5 2.66 5 3.32 5 4 C3.35 4.33 1.7 4.66 0 5 C0 3.35 0 1.7 0 0 Z " fill="#1F2423" transform="translate(390,151)"/>
<path d="M0 0 C0.66 0.33 1.32 0.66 2 1 C0.38 3.04 -1.29 5.04 -3 7 C-3.66 7 -4.32 7 -5 7 C-3.71 4.12 -2.34 2.13 0 0 Z " fill="#2C2E2D" transform="translate(234,61)"/>
<path d="M0 0 C1.32 1.32 2.64 2.64 4 4 C3.34 5.98 2.68 7.96 2 10 C1.67 10 1.34 10 1 10 C0.67 6.7 0.34 3.4 0 0 Z " fill="#CACCCC" transform="translate(427,486)"/>
<path d="M0 0 C1.32 0.33 2.64 0.66 4 1 C4 2.32 4 3.64 4 5 C1.03 4.5 1.03 4.5 -2 4 C-1.01 3.67 -0.02 3.34 1 3 C0.67 2.01 0.34 1.02 0 0 Z " fill="#444646" transform="translate(532,366)"/>
<path d="M0 0 C0.99 0 1.98 0 3 0 C2.67 1.98 2.34 3.96 2 6 C1.01 5.67 0.02 5.34 -1 5 C-0.67 3.35 -0.34 1.7 0 0 Z " fill="#282A29" transform="translate(512,351)"/>
<path d="M0 0 C0.66 0 1.32 0 2 0 C1.11 3.7 0.05 7.35 -1 11 C-1.33 11 -1.66 11 -2 11 C-2.29 3.57 -2.29 3.57 0 0 Z " fill="#BCBDBE" transform="translate(230,323)"/>
<path d="M0 0 C0.66 0.33 1.32 0.66 2 1 C0.35 2.65 -1.3 4.3 -3 6 C-3.33 4.68 -3.66 3.36 -4 2 C-2.12 0.94 -2.12 0.94 0 0 Z " fill="#CCCDCE" transform="translate(316,79)"/>
</svg>
