<?xml version="1.0" encoding="UTF-8"?>
<!-- Generator: https://ezgif.com/webp-to-svg -->
<svg version="1.1" xmlns="http://www.w3.org/2000/svg" width="50" height="50">
<path d="M0 0 C2.92 -0.11 5.83 -0.19 8.75 -0.25 C9.99 -0.3 9.99 -0.3 11.25 -0.35 C12.45 -0.37 12.45 -0.37 13.67 -0.39 C14.41 -0.41 15.14 -0.43 15.89 -0.45 C18 0 18 0 22 4 C21.01 7.63 20.02 11.26 19 15 C14.71 15 10.42 15 6 15 C6 13.35 6 11.7 6 10 C5.34 11.65 4.68 13.3 4 15 C2.02 15 0.04 15 -2 15 C-1.48 13.14 -0.96 11.29 -0.44 9.43 C0.13 6.27 0.06 3.21 0 0 Z M7 5 C8 7 8 7 8 7 Z M14 5 C15 7 15 7 15 7 Z M13 7 C14 11 14 11 14 11 Z M12 11 C13 14 13 14 13 14 Z " fill="#FEFFFF" transform="translate(2,20)"/>
<path d="M0 0 C1.98 0 3.96 0 6 0 C5.67 1.65 5.34 3.3 5 5 C5.93 5.22 5.93 5.22 6.88 5.44 C9 6 9 6 11 7 C10.72 8.61 10.42 10.21 10.12 11.81 C9.96 12.71 9.8 13.6 9.63 14.52 C9 17 9 17 7 20 C4.18 20.29 4.18 20.29 0.88 20.19 C-0.22 20.16 -1.32 20.13 -2.45 20.11 C-3.71 20.05 -3.71 20.05 -5 20 C-3.77 13.18 -2.11 6.61 0 0 Z M3 10 C4 13 4 13 4 13 Z M2 13 C3 16 3 16 3 16 Z " fill="#FEFFFF" transform="translate(27,15)"/>
<path d="M0 0 C-0.75 1.94 -0.75 1.94 -2 4 C-3.32 4.33 -4.64 4.66 -6 5 C-6.66 8.3 -7.32 11.6 -8 15 C-9.98 15 -11.96 15 -14 15 C-13.35 10.01 -12.73 6.05 -9.81 1.88 C-6.31 -0.46 -4.13 -0.4 0 0 Z " fill="#FFFFFF" transform="translate(50,20)"/>
<path d="M0 0 C1.98 0 3.96 0 6 0 C5.67 1.65 5.34 3.3 5 5 C2.03 4.5 2.03 4.5 -1 4 C-0.67 2.68 -0.34 1.36 0 0 Z " fill="#FEFFFF" transform="translate(20,15)"/>
</svg>
