<?xml version="1.0" encoding="UTF-8"?>
<!-- Generator: https://ezgif.com/png-to-svg -->
<svg version="1.1" xmlns="http://www.w3.org/2000/svg" width="512" height="512" viewBox="-36 -176.685 671.995 671.995" preserveAspectRatio="xMidYMid meet">
<path d="M0 0 C27.49 -0.14 54.97 -0.25 82.46 -0.31 C95.22 -0.34 107.98 -0.38 120.74 -0.45 C131.87 -0.51 142.99 -0.55 154.12 -0.56 C160.01 -0.57 165.9 -0.59 171.79 -0.63 C177.33 -0.68 182.88 -0.69 188.42 -0.68 C190.46 -0.68 192.49 -0.69 194.52 -0.72 C213.86 -0.92 213.86 -0.92 221 6 C222.31 7.02 223.62 8.03 224.95 9.04 C226.2 10.04 227.44 11.05 228.69 12.06 C229.31 12.57 229.94 13.07 230.58 13.59 C231.81 14.58 233.03 15.58 234.25 16.59 C235.96 18.01 235.96 18.01 237.76 19.17 C240.02 20.75 241.75 22.17 242.56 24.87 C243.32 31.2 242.27 36.27 240.46 42.34 C240.04 43.81 240.04 43.81 239.61 45.32 C238.69 48.53 237.75 51.73 236.81 54.94 C236.17 57.19 235.52 59.44 234.88 61.69 C233.56 66.27 232.24 70.85 230.91 75.42 C229.18 81.36 227.48 87.31 225.78 93.27 C225.28 95.03 224.78 96.79 224.28 98.55 C224.03 99.4 223.79 100.25 223.54 101.13 C222.57 104.52 221.6 107.92 220.63 111.31 C217.33 122.82 214.06 134.35 210.81 145.88 C210.45 147.14 210.45 147.14 210.09 148.44 C209.42 150.81 208.75 153.18 208.08 155.55 C207.88 156.25 207.69 156.95 207.48 157.67 C206.61 160.77 205.78 163.87 205 167 C185.86 167 166.72 167 147 167 C149.25 154.62 149.25 154.62 150.92 148.77 C151.1 148.14 151.27 147.51 151.46 146.86 C152.03 144.85 152.61 142.83 153.19 140.81 C153.59 139.38 154 137.95 154.41 136.52 C156.99 127.46 159.61 118.42 162.26 109.39 C165.35 98.85 168.36 88.28 171.36 77.72 C171.66 76.66 171.66 76.66 171.97 75.59 C172.37 74.18 172.77 72.78 173.16 71.38 C174.22 67.68 175.3 64 176.42 60.33 C176.65 59.56 176.88 58.79 177.12 58 C177.56 56.54 178.01 55.08 178.47 53.62 C179.62 49.8 180 47.07 180 43 C171.09 42.67 162.18 42.34 153 42 C152.01 46.95 152.01 46.95 151 52 C150.23 54.91 149.44 57.8 148.6 60.69 C148.37 61.49 148.14 62.29 147.9 63.12 C147.15 65.75 146.39 68.37 145.62 71 C145.09 72.86 144.55 74.72 144.02 76.58 C142.91 80.45 141.79 84.32 140.67 88.19 C139.06 93.79 137.45 99.4 135.86 105.01 C135.6 105.9 135.35 106.79 135.09 107.71 C134.58 109.49 134.07 111.27 133.57 113.05 C128.43 131.05 123.23 149.03 118 167 C99.52 167.33 81.04 167.66 62 168 C62.65 163.48 63.25 159.67 64.48 155.38 C64.79 154.32 65.09 153.25 65.4 152.16 C65.89 150.45 65.89 150.45 66.39 148.7 C66.74 147.5 67.08 146.29 67.44 145.05 C68.17 142.46 68.91 139.87 69.66 137.28 C70.82 133.23 71.98 129.17 73.13 125.12 C73.32 124.44 73.52 123.77 73.71 123.07 C74.1 121.71 74.49 120.34 74.88 118.98 C75.47 116.93 76.05 114.87 76.64 112.82 C80.35 99.8 83.99 86.76 87.61 73.71 C88.3 71.23 88.99 68.75 89.68 66.27 C89.89 65.53 90.09 64.78 90.31 64.01 C91.61 59.32 93 54.66 94.52 50.03 C95.19 47.54 95.19 47.54 95 43 C81.14 42.5 81.14 42.5 67 42 C66.34 44.97 65.68 47.94 65 51 C64.28 53.73 63.54 56.46 62.78 59.18 C62.45 60.34 62.45 60.34 62.12 61.54 C61.39 64.13 60.67 66.72 59.94 69.31 C59.42 71.16 58.9 73.02 58.38 74.87 C56.59 81.25 54.8 87.62 53 94 C52.65 95.24 52.3 96.48 51.94 97.76 C49.49 106.47 47.03 115.17 44.56 123.88 C44 125.86 43.44 127.84 42.88 129.83 C41.82 133.59 40.75 137.35 39.69 141.12 C39.37 142.23 39.06 143.34 38.74 144.48 C36.6 152.02 34.31 159.5 32 167 C3.29 167.5 3.29 167.5 -26 168 C-23.75 156.74 -23.75 156.74 -22.3 151.52 C-21.98 150.36 -21.65 149.19 -21.32 147.98 C-20.82 146.2 -20.82 146.2 -20.31 144.38 C-20 143.24 -19.68 142.1 -19.36 140.93 C-17.22 133.23 -15 125.56 -12.75 117.9 C-8.97 104.98 -5.32 92.02 -1.69 79.06 C-0.79 75.83 0.12 72.61 1.02 69.38 C1.9 66.26 2.77 63.14 3.65 60.02 C3.97 58.86 4.29 57.71 4.63 56.53 C4.92 55.46 5.22 54.4 5.53 53.31 C5.92 51.91 5.92 51.91 6.32 50.48 C9.56 38.65 7.21 28.5 4 16.94 C3.43 14.82 2.86 12.7 2.29 10.59 C1.78 8.69 1.26 6.79 0.73 4.9 C0 2 0 2 0 0 Z " fill="#FFFFFF" transform="translate(41,69)"/>
<path d="M0 0 C0.99 0 1.99 0 3.01 0.01 C4.13 0.01 5.25 0.01 6.41 0.01 C8.23 0.01 8.23 0.01 10.1 0.02 C11.96 0.02 11.96 0.02 13.86 0.03 C17.17 0.03 20.48 0.04 23.78 0.05 C27.15 0.06 30.52 0.07 33.9 0.07 C40.52 0.08 47.13 0.1 53.75 0.12 C47.54 22.82 41.29 45.51 34.75 68.12 C36.06 68.11 37.36 68.1 38.71 68.09 C43.6 68.05 48.49 68.07 53.38 68.11 C55.48 68.12 57.59 68.11 59.7 68.09 C80.81 67.9 80.81 67.9 88.66 75.02 C89.35 75.71 90.04 76.41 90.75 77.12 C92.06 78.14 93.38 79.15 94.71 80.13 C95.85 81.02 96.99 81.91 98.13 82.81 C98.7 83.25 99.28 83.7 99.87 84.16 C101.52 85.46 103.14 86.78 104.75 88.12 C105.72 88.87 106.68 89.62 107.67 90.39 C110.59 94.21 110.25 97.52 109.75 102.12 C108.77 106.76 107.46 111.28 106.12 115.83 C105.74 117.18 105.35 118.52 104.97 119.87 C103.94 123.48 102.89 127.09 101.84 130.69 C100.75 134.45 99.67 138.2 98.6 141.96 C97.06 147.3 95.52 152.64 93.97 157.99 C91.74 165.68 89.54 173.38 87.35 181.09 C86 185.88 84.63 190.67 83.27 195.46 C82.64 197.67 82.01 199.9 81.38 202.12 C80.52 205.19 79.64 208.25 78.76 211.32 C78.51 212.2 78.26 213.09 78.01 214 C75.31 223.32 72.45 230.08 63.91 235.24 C61.25 236.33 59.17 236.38 56.3 236.4 C54.64 236.42 54.64 236.42 52.94 236.43 C51.13 236.44 51.13 236.44 49.27 236.44 C47.36 236.45 47.36 236.45 45.4 236.47 C41.9 236.5 38.4 236.51 34.9 236.52 C31.23 236.54 27.57 236.57 23.91 236.59 C16.98 236.64 10.05 236.68 3.12 236.71 C-4.77 236.75 -12.66 236.8 -20.55 236.85 C-36.78 236.95 -53.02 237.04 -69.25 237.12 C-68.7 232.9 -68.01 228.86 -66.85 224.76 C-66.43 223.25 -66.43 223.25 -66 221.71 C-65.54 220.09 -65.54 220.09 -65.07 218.44 C-64.75 217.3 -64.43 216.16 -64.1 214.99 C-63.05 211.26 -61.99 207.53 -60.93 203.81 C-60.2 201.21 -59.47 198.62 -58.74 196.03 C-56.58 188.39 -54.42 180.75 -52.25 173.12 C-51.95 172.07 -51.65 171.03 -51.35 169.95 C-48.13 158.65 -44.9 147.36 -41.66 136.07 C-39.51 128.57 -37.37 121.06 -35.23 113.56 C-33.99 109.23 -32.76 104.91 -31.52 100.59 C-31.27 99.69 -31.01 98.8 -30.75 97.88 C-28.93 91.51 -27.11 85.14 -25.29 78.78 C-23.89 73.91 -22.5 69.03 -21.11 64.16 C-20.41 61.73 -19.72 59.3 -19.02 56.86 C-15.74 45.41 -12.47 33.95 -9.26 22.48 C-9.04 21.7 -8.83 20.92 -8.6 20.12 C-7.64 16.66 -6.68 13.2 -5.72 9.74 C-5.24 8.01 -5.24 8.01 -4.75 6.25 C-4.48 5.27 -4.21 4.29 -3.93 3.28 C-2.94 0.16 -2.94 0.16 0 0 Z M21.75 111.12 C16.94 126.76 12.32 142.43 7.87 158.17 C6.86 161.74 5.85 165.31 4.83 168.88 C4.18 171.17 3.53 173.46 2.89 175.75 C2.44 177.33 2.44 177.33 1.97 178.95 C0.65 183.66 -0.6 188.26 -1.25 193.12 C3 193.21 7.25 193.26 11.5 193.31 C13.31 193.35 13.31 193.35 15.16 193.38 C16.32 193.39 17.48 193.4 18.68 193.41 C19.74 193.43 20.81 193.44 21.91 193.46 C25.24 193.06 26.33 192.38 28.75 190.12 C29.89 187.72 29.89 187.72 30.6 184.92 C31.05 183.33 31.05 183.33 31.52 181.7 C31.99 179.97 31.99 179.97 32.47 178.21 C32.81 177.01 33.14 175.82 33.49 174.59 C34.39 171.39 35.27 168.2 36.15 165 C37.03 161.82 37.93 158.64 38.82 155.46 C40.19 150.57 41.55 145.68 42.9 140.79 C44.04 136.67 45.2 132.57 46.41 128.47 C46.77 127.22 46.77 127.22 47.14 125.95 C47.58 124.46 48.02 122.97 48.47 121.49 C49.68 117.31 49.65 115.6 48.75 111.12 C39.84 111.12 30.93 111.12 21.75 111.12 Z " fill="#FFFFFF" transform="translate(346.24623107910156,-0.1202545166015625)"/>
<path d="M0 0 C1.07 -0 1.07 -0 2.16 -0 C4.51 0 6.86 0.02 9.2 0.03 C10.84 0.04 12.47 0.04 14.1 0.04 C18.38 0.05 22.67 0.07 26.96 0.09 C31.34 0.11 35.71 0.12 40.09 0.13 C48.68 0.15 57.26 0.18 65.84 0.23 C65.21 3.8 64.68 5.9 62.22 8.61 C61.68 9.21 61.15 9.82 60.59 10.44 C59.73 11.39 59.73 11.39 58.84 12.35 C57.65 13.69 56.46 15.03 55.27 16.38 C54.39 17.36 54.39 17.36 53.49 18.36 C51.29 20.85 49.19 23.4 47.09 25.98 C46.37 26.84 45.64 27.69 44.89 28.58 C42.75 31.2 42.75 31.2 41.17 34.31 C38.96 37.98 37.49 39.91 33.84 42.23 C28.5 43.18 23.13 43.17 17.72 42.99 C16.65 42.96 15.58 42.94 14.49 42.91 C13.52 42.85 12.56 42.8 11.56 42.74 C8.6 43.27 7 44.12 4.99 46.38 C2.36 50.61 1.34 55.56 0.06 60.33 C-0.28 61.54 -0.62 62.75 -0.96 63.99 C-1.88 67.26 -2.77 70.54 -3.66 73.82 C-4.59 77.22 -5.54 80.62 -6.49 84.03 C-8.01 89.5 -9.52 94.98 -11.02 100.46 C-13.7 110.23 -16.43 119.99 -19.16 129.75 C-19.88 132.33 -20.6 134.9 -21.31 137.49 C-21.54 138.3 -21.76 139.11 -21.99 139.94 C-22.39 141.39 -22.79 142.83 -23.19 144.28 C-25.42 152.29 -27.81 160.25 -30.16 168.23 C-48.64 168.23 -67.12 168.23 -86.16 168.23 C-84.92 161.42 -83.69 155.02 -81.76 148.44 C-81.53 147.64 -81.3 146.84 -81.06 146.01 C-80.3 143.4 -79.54 140.78 -78.78 138.16 C-78.24 136.3 -77.7 134.43 -77.16 132.57 C-76.05 128.7 -74.93 124.83 -73.81 120.96 C-72 114.69 -70.2 108.41 -68.42 102.13 C-67.2 97.84 -65.97 93.56 -64.74 89.27 C-62.32 80.85 -59.93 72.43 -57.59 63.98 C-56.45 59.83 -55.28 55.69 -54.12 51.55 C-53.57 49.56 -53.02 47.57 -52.48 45.58 C-51.72 42.81 -50.95 40.04 -50.16 37.28 C-49.84 36.06 -49.84 36.06 -49.51 34.81 C-47.35 27.34 -43.2 22.01 -36.47 18.04 C-35.53 17.47 -34.6 16.91 -33.64 16.33 C-33.11 16.01 -32.57 15.69 -32.02 15.36 C-29.78 14 -27.57 12.6 -25.36 11.19 C-24.51 10.65 -23.67 10.11 -22.79 9.56 C-21.1 8.48 -19.4 7.39 -17.71 6.31 C-16.52 5.57 -16.52 5.57 -15.32 4.8 C-14.61 4.35 -13.91 3.91 -13.18 3.44 C-12.18 2.84 -12.18 2.84 -11.16 2.23 C-10.32 1.7 -10.32 1.7 -9.48 1.17 C-6.25 -0.14 -3.48 -0.01 0 0 Z " fill="#FFFFFF" transform="translate(534.1552734375,68.77294921875)"/>
<path d="M0 0 C1.01 0 2.02 0 3.06 0.01 C4.77 0.01 4.77 0.01 6.52 0.01 C7.76 0.01 9 0.02 10.28 0.02 C12.18 0.02 12.18 0.02 14.11 0.03 C17.48 0.03 20.84 0.04 24.21 0.05 C27.64 0.06 31.07 0.07 34.5 0.07 C41.24 0.08 47.98 0.1 54.72 0.12 C53.82 7.27 51.96 14.07 50.01 20.99 C49.4 23.18 48.81 25.37 48.22 27.56 C47.83 28.97 47.43 30.37 47.04 31.78 C46.69 33.05 46.34 34.31 45.98 35.61 C44.42 39.95 42.66 43.68 38.89 46.47 C34.07 47.91 28.91 47.49 23.93 47.49 C21.85 47.5 19.78 47.53 17.71 47.57 C15.74 47.58 15.74 47.58 13.72 47.58 C12.52 47.59 11.32 47.6 10.09 47.61 C6.04 47.02 3.94 45.57 0.72 43.12 C-0.89 42.11 -0.89 42.11 -2.53 41.08 C-3.58 40.37 -4.64 39.66 -5.72 38.93 C-6.79 38.24 -7.86 37.54 -8.97 36.83 C-11.28 34.12 -11.28 34.12 -11.53 32.25 C-10.97 25.56 -8.71 19.02 -6.78 12.62 C-6.3 10.98 -6.3 10.98 -5.81 9.3 C-3.1 0.16 -3.1 0.16 0 0 Z " fill="#FFFFFF" transform="translate(257.28419494628906,-0.1202545166015625)"/>
<path d="M0 0 C5.94 0 11.88 0 18 0 C18.99 7.92 19.98 15.84 21 24 C25.43 17.97 25.43 17.97 29.85 11.94 C31.02 10.35 32.2 8.77 33.39 7.19 C35.12 4.9 35.12 4.9 36.91 1.91 C39.72 -0.66 41.68 -0.52 45.39 -0.44 C46.56 -0.38 46.56 -0.38 47.75 -0.31 C48.94 -0.28 48.94 -0.28 50.15 -0.24 C52.1 -0.19 54.05 -0.1 56 0 C54.66 6.4 52.99 12.58 51 18.81 C50.71 19.71 50.43 20.6 50.14 21.52 C49.54 23.4 48.95 25.27 48.35 27.14 C47.43 30.02 46.52 32.9 45.61 35.78 C45.03 37.6 44.45 39.43 43.87 41.25 C43.6 42.11 43.33 42.98 43.04 43.87 C41.12 49.88 41.12 49.88 40 51 C37.47 51.07 34.97 51.09 32.44 51.06 C31.73 51.06 31.02 51.05 30.28 51.05 C28.52 51.04 26.76 51.02 25 51 C25.19 50.3 25.39 49.6 25.59 48.88 C27.13 43.27 28.61 37.65 30 32 C28.35 34.12 26.71 36.25 25.06 38.38 C24.59 38.98 24.13 39.58 23.64 40.2 C21.09 43.45 21.09 43.45 19 47 C15.7 47 12.4 47 9 47 C7.51 39.57 7.51 39.57 6 32 C4.02 38.27 2.04 44.54 0 51 C-4.95 51 -9.9 51 -15 51 C-14.26 45.85 -13.45 41.83 -11.86 36.99 C-11.64 36.34 -11.43 35.7 -11.22 35.03 C-10.55 32.98 -9.87 30.93 -9.19 28.88 C-8.3 26.19 -7.42 23.5 -6.54 20.8 C-6.22 19.83 -6.22 19.83 -5.89 18.83 C-3.85 12.58 -1.91 6.29 0 0 Z " fill="#A4A4A4" transform="translate(402,267)"/>
<path d="M0 0 C5.21 -0.07 10.43 -0.13 15.64 -0.16 C17.42 -0.18 19.19 -0.2 20.97 -0.23 C23.51 -0.26 26.06 -0.28 28.61 -0.29 C29.41 -0.31 30.2 -0.32 31.02 -0.34 C36.48 -0.34 36.48 -0.34 39 1.31 C40.86 4.44 40.51 7.54 40 11 C38.78 15.74 37.25 20.36 35.69 25 C35.28 26.23 34.88 27.46 34.46 28.73 C33.33 32.16 32.17 35.58 31 39 C30.72 39.83 30.43 40.66 30.14 41.52 C27.63 48.61 27.63 48.61 25 51 C21.91 51.57 18.87 51.46 15.74 51.39 C14.83 51.38 13.93 51.38 12.99 51.37 C10.1 51.35 7.21 51.3 4.31 51.25 C2.35 51.23 0.39 51.21 -1.57 51.2 C-6.38 51.15 -11.19 51.08 -16 51 C-14.37 45.66 -12.73 40.33 -11.09 35 C-10.54 33.19 -9.98 31.38 -9.43 29.57 C-6.4 19.67 -3.35 9.79 0 0 Z M12 13 C10.66 16.94 9.33 20.87 8 24.81 C7.62 25.93 7.24 27.05 6.84 28.21 C6.48 29.28 6.12 30.35 5.75 31.46 C5.41 32.45 5.08 33.44 4.73 34.46 C3.86 37.04 3.86 37.04 4 40 C7.63 40 11.26 40 15 40 C16.34 35.88 17.67 31.75 19 27.62 C19.38 26.45 19.76 25.27 20.16 24.06 C20.52 22.94 20.88 21.82 21.25 20.66 C21.75 19.11 21.75 19.11 22.27 17.52 C23.09 15.12 23.09 15.12 23 13 C19.37 13 15.74 13 12 13 Z " fill="#A4A4A4" transform="translate(251,267)"/>
<path d="M0 0 C2.1 0.01 4.19 -0.02 6.29 -0.05 C7.62 -0.05 8.96 -0.05 10.29 -0.05 C11.5 -0.05 12.71 -0.05 13.96 -0.06 C16.97 0.45 16.97 0.45 18.88 2.35 C20.81 6.06 19.84 9.49 18.97 13.45 C18.1 16.2 17.08 18.78 15.97 21.45 C10.69 21.78 5.41 22.11 -0.03 22.45 C0.63 19.81 1.29 17.17 1.97 14.45 C-1 14.45 -3.97 14.45 -7.03 14.45 C-9.67 22.7 -12.31 30.95 -15.03 39.45 C-12.06 39.45 -9.09 39.45 -6.03 39.45 C-5.04 37.14 -4.05 34.83 -3.03 32.45 C1.92 32.45 6.87 32.45 11.97 32.45 C10.74 39.91 9.49 45.93 3.97 51.45 C1.25 51.62 -1.38 51.68 -4.1 51.64 C-4.9 51.64 -5.69 51.64 -6.51 51.63 C-9.06 51.62 -11.61 51.6 -14.15 51.57 C-15.88 51.56 -17.61 51.55 -19.33 51.54 C-23.56 51.52 -27.8 51.49 -32.03 51.45 C-33.25 45.7 -32.68 41.85 -30.86 36.32 C-30.63 35.56 -30.39 34.81 -30.15 34.04 C-29.65 32.45 -29.14 30.87 -28.63 29.29 C-27.85 26.89 -27.09 24.48 -26.34 22.07 C-25.85 20.53 -25.36 18.99 -24.86 17.44 C-24.64 16.73 -24.42 16.02 -24.19 15.28 C-22.4 9.86 -20.29 5.25 -15.71 1.6 C-10.73 -0.54 -5.34 -0.03 0 0 Z " fill="#A4A4A4" transform="translate(116.02978515625,266.553955078125)"/>
<path d="M0 0 C0.83 0.01 1.67 0.01 2.52 0.02 C3.42 0.02 4.32 0.02 5.25 0.03 C6.67 0.04 6.67 0.04 8.11 0.05 C9.06 0.06 10.01 0.06 10.99 0.06 C13.34 0.08 15.7 0.09 18.05 0.11 C18.17 17.15 17.97 34.1 17.05 51.11 C11.77 51.11 6.49 51.11 1.05 51.11 C1.05 48.14 1.05 45.17 1.05 42.11 C-3.4 42.01 -7.61 42.08 -11.95 43.11 C-13.46 44.92 -13.46 44.92 -14.26 47.18 C-15.23 49.37 -15.23 49.37 -16.95 51.11 C-22.35 51.86 -27.53 51.57 -32.95 51.11 C-29.89 45.33 -26.71 39.64 -23.26 34.08 C-22.55 32.94 -21.84 31.79 -21.14 30.65 C-20.78 30.07 -20.42 29.49 -20.04 28.89 C-18.26 25.99 -16.48 23.09 -14.7 20.19 C-13.66 18.49 -12.61 16.78 -11.56 15.08 C-10.85 13.91 -10.14 12.75 -9.42 11.58 C-8.37 9.87 -7.32 8.16 -6.27 6.44 C-5.65 5.44 -5.04 4.44 -4.4 3.41 C-2.33 0.14 -2.33 0.14 0 0 Z M2.05 17.11 C0.82 19.07 -0.36 21.05 -1.51 23.05 C-2.15 24.15 -2.79 25.26 -3.45 26.39 C-5.03 28.74 -5.03 28.74 -4.95 30.11 C-2.64 30.11 -0.33 30.11 2.05 30.11 C2.38 25.82 2.71 21.53 3.05 17.11 C2.72 17.11 2.39 17.11 2.05 17.11 Z " fill="#A4A4A4" transform="translate(32.949462890625,266.886474609375)"/>
<path d="M0 0 C6.93 0 13.86 0 21 0 C20.67 16.83 20.34 33.66 20 51 C14.39 51 8.78 51 3 51 C3.33 48.03 3.66 45.06 4 42 C-0.62 42 -5.24 42 -10 42 C-10.99 44.48 -10.99 44.48 -12 47 C-12.66 48.32 -13.32 49.64 -14 51 C-19.28 51 -24.56 51 -30 51 C-28.54 47.35 -27.22 44.5 -25.2 41.22 C-24.64 40.3 -24.08 39.39 -23.5 38.45 C-22.9 37.47 -22.31 36.5 -21.69 35.5 C-21.07 34.49 -20.46 33.49 -19.82 32.45 C-14.91 24.45 -9.96 16.45 -5 8.48 C-4.49 7.65 -3.98 6.83 -3.45 5.98 C-3 5.26 -2.55 4.53 -2.08 3.79 C-0.96 1.99 -0.96 1.99 0 0 Z M5 16 C3.77 17.93 2.59 19.9 1.44 21.88 C0.8 22.97 0.16 24.06 -0.5 25.18 C-2.16 27.76 -2.16 27.76 -2 30 C0.31 30 2.62 30 5 30 C5.33 25.38 5.66 20.76 6 16 C5.67 16 5.34 16 5 16 Z " fill="#A4A4A4" transform="translate(183,267)"/>
<path d="M0 0 C12.54 0 25.08 0 38 0 C37 7 37 7 35 13 C27.41 13 19.82 13 12 13 C11.67 14.98 11.34 16.96 11 19 C16.61 19 22.22 19 28 19 C26.68 23.62 25.36 28.24 24 33 C18.39 33 12.78 33 7 33 C6.01 35.31 5.02 37.62 4 40 C11.26 40 18.52 40 26 40 C25.01 43.63 24.02 47.26 23 51 C10.46 51 -2.08 51 -15 51 C-12.75 40.88 -12.75 40.88 -11.58 37.12 C-11.32 36.28 -11.06 35.44 -10.79 34.58 C-10.52 33.7 -10.24 32.83 -9.96 31.93 C-9.68 31.01 -9.39 30.09 -9.1 29.15 C-8.19 26.24 -7.28 23.34 -6.38 20.44 C-5.76 18.46 -5.14 16.47 -4.52 14.49 C-3.02 9.66 -1.51 4.83 0 0 Z " fill="#A5A5A5" transform="translate(329,267)"/>
<path d="M0 0 C5.61 0 11.22 0 17 0 C17.66 5.94 18.32 11.88 19 18 C19.74 16.7 20.48 15.4 21.25 14.06 C29.26 1.02 29.26 1.02 34.28 -0.85 C39.29 -1.58 44.06 -0.96 49 0 C45.55 5.5 41.77 10.67 37.75 15.75 C37.28 16.35 36.81 16.95 36.32 17.56 C34 20.51 31.65 23.42 29.24 26.3 C23.79 32.91 20.37 39.12 17.84 47.3 C17 50 17 50 16 51 C13.47 51.07 10.97 51.09 8.44 51.06 C7.37 51.06 7.37 51.06 6.28 51.05 C4.52 51.04 2.76 51.02 1 51 C1.31 49.56 1.62 48.12 1.94 46.69 C2.11 45.89 2.29 45.09 2.46 44.26 C3 42 3 42 4 39 C4.42 30.71 3.15 22.63 2 14.44 C1.81 13.03 1.61 11.63 1.42 10.22 C0.96 6.82 0.48 3.41 0 0 Z " fill="#A4A4A4" transform="translate(490,267)"/>
</svg>
