<?xml version="1.0" encoding="UTF-8"?>
<!-- Generator: https://ezgif.com/webp-to-svg -->
<svg version="1.1" xmlns="http://www.w3.org/2000/svg" width="50" height="50">
<path d="M0 0 C3.12 -0.06 6.25 -0.09 9.38 -0.12 C10.26 -0.14 11.15 -0.16 12.07 -0.18 C12.92 -0.18 13.77 -0.19 14.65 -0.2 C15.83 -0.21 15.83 -0.21 17.03 -0.23 C19 0 19 0 21 2 C20.63 6.75 19.53 10.42 18 15 C11.4 15 4.8 15 -2 15 C-1.67 12.69 -1.34 10.38 -1 8 C-0.81 6.52 -0.62 5.04 -0.44 3.56 C-0.29 2.39 -0.15 1.21 0 0 Z M6 5 C5.67 7.31 5.34 9.62 5 12 C7.31 9.28 7.31 9.28 6.62 6.81 C6.42 6.21 6.21 5.62 6 5 Z M13 5 C13.33 6.32 13.66 7.64 14 9 C14.33 7.68 14.66 6.36 15 5 C14.34 5 13.68 5 13 5 Z M12 9 C13 12 13 12 13 12 Z " fill="#FEFFFF" transform="translate(3,17)"/>
<path d="M0 0 C1.98 0 3.96 0 6 0 C5.67 1.65 5.34 3.3 5 5 C6.98 5.99 8.96 6.98 11 8 C10.53 9.98 10.04 11.96 9.56 13.94 C9.3 15.04 9.03 16.14 8.75 17.28 C8 20 8 20 7 21 C4.98 21.07 2.96 21.08 0.94 21.06 C-0.17 21.05 -1.27 21.04 -2.41 21.04 C-3.69 21.02 -3.69 21.02 -5 21 C-4.42 13.65 -2.29 6.99 0 0 Z M3 11 C4 13 4 13 4 13 Z M2 13 C3 16 3 16 3 16 Z " fill="#FEFFFF" transform="translate(28,11)"/>
<path d="M0 0 C-0.81 1.94 -0.81 1.94 -2 4 C-2.99 4.33 -3.98 4.66 -5 5 C-5.66 8.3 -6.32 11.6 -7 15 C-8.98 15 -10.96 15 -13 15 C-12.46 9.72 -11.35 5.7 -9 1 C-6.04 -0.48 -3.26 -0.06 0 0 Z " fill="#FFFFFF" transform="translate(50,17)"/>
<path d="M0 0 C1.98 0 3.96 0 6 0 C5.34 1.98 4.68 3.96 4 6 C2.35 6 0.7 6 -1 6 C-0.67 4.02 -0.34 2.04 0 0 Z " fill="#CCCCCC" transform="translate(33,33)"/>
<path d="M0 0 C1.45 0.03 1.45 0.03 2.94 0.06 C2.61 1.71 2.28 3.36 1.94 5.06 C0.29 5.06 -1.36 5.06 -3.06 5.06 C-3.62 3.13 -3.62 3.13 -4.06 1.06 C-3.06 0.06 -3.06 0.06 0 0 Z " fill="#FFFFFF" transform="translate(24.0625,10.9375)"/>
<path d="M0 0 C1.32 0 2.64 0 4 0 C3.67 1.98 3.34 3.96 3 6 C1.35 6 -0.3 6 -2 6 C-1.12 1.12 -1.12 1.12 0 0 Z " fill="#CECFCF" transform="translate(21,33)"/>
<path d="M0 0 C1.32 0 2.64 0 4 0 C3.67 1.98 3.34 3.96 3 6 C1.35 6 -0.3 6 -2 6 C-1.34 4.02 -0.68 2.04 0 0 Z " fill="#CECECE" transform="translate(8,33)"/>
<path d="M0 0 C1.32 0 2.64 0 4 0 C3.67 1.98 3.34 3.96 3 6 C1.68 6 0.36 6 -1 6 C-0.67 4.02 -0.34 2.04 0 0 Z " fill="#CBCBCB" transform="translate(27,33)"/>
<path d="M0 0 C0.99 0.33 1.98 0.66 3 1 C2.67 2.65 2.34 4.3 2 6 C0.35 6 -1.3 6 -3 6 C-1.12 1.12 -1.12 1.12 0 0 Z " fill="#C9C9C9" transform="translate(15,33)"/>
<path d="M0 0 C1.65 0 3.3 0 5 0 C4.49 2.17 4 4 3 6 C2.01 6 1.02 6 0 6 C0 4.02 0 2.04 0 0 Z " fill="#C9C9C9" transform="translate(40,33)"/>
<path d="M0 0 C0.99 0 1.98 0 3 0 C3 1.98 3 3.96 3 6 C1.35 6 -0.3 6 -2 6 C-1.49 3.83 -1 2 0 0 Z " fill="#CACACA" transform="translate(2,33)"/>
</svg>
