<?xml version="1.0" encoding="UTF-8"?>
<!-- Generator: https://ezgif.com/png-to-svg -->
<svg version="1.1" xmlns="http://www.w3.org/2000/svg" width="512" height="512" viewBox="-16.16 -16.032 432.315 432.315" preserveAspectRatio="xMidYMid meet">
<path d="M0 0 C17.97 -0.14 35.94 -0.25 53.9 -0.31 C62.25 -0.34 70.59 -0.38 78.93 -0.45 C86.21 -0.51 93.48 -0.55 100.76 -0.56 C104.61 -0.57 108.46 -0.59 112.31 -0.63 C115.94 -0.68 119.56 -0.69 123.19 -0.68 C125.15 -0.68 127.1 -0.71 129.06 -0.75 C137.11 -0.69 141.86 0.77 148 6 C148.56 6.43 149.12 6.87 149.69 7.31 C151.15 8.45 152.58 9.63 154 10.81 C154.93 11.58 155.86 12.35 156.81 13.14 C159 15 159 15 160 16 C159.73 26.15 156.47 35.67 153.65 45.35 C153.11 47.22 152.58 49.09 152.04 50.96 C150.64 55.85 149.22 60.74 147.81 65.63 C146.1 71.51 144.41 77.39 142.72 83.27 C140.16 92.18 137.58 101.09 135 110 C122.13 110 109.26 110 96 110 C98.34 100.65 100.66 91.37 103.35 82.12 C103.55 81.45 103.74 80.78 103.94 80.09 C104.24 79.05 104.24 79.05 104.55 78 C104.97 76.54 105.39 75.09 105.81 73.63 C106.9 69.85 107.99 66.08 109.08 62.31 C110.2 58.43 111.32 54.56 112.44 50.68 C114.62 43.12 116.81 35.56 119 28 C113.06 28.33 107.12 28.66 101 29 C100.34 31.31 99.69 33.62 99.01 36 C96.84 43.64 94.67 51.28 92.5 58.91 C91.18 63.54 89.86 68.17 88.55 72.8 C87.28 77.27 86.01 81.74 84.74 86.2 C84.25 87.91 83.77 89.61 83.29 91.32 C82.61 93.7 81.93 96.09 81.25 98.48 C81.05 99.18 80.85 99.89 80.64 100.62 C79.68 103.99 78.58 106.84 77 110 C64.79 110 52.58 110 40 110 C43.37 96.5 43.37 96.5 45.18 90.21 C45.37 89.53 45.57 88.84 45.77 88.14 C46.4 85.93 47.03 83.72 47.67 81.52 C48.11 79.96 48.56 78.41 49 76.86 C50.16 72.81 51.32 68.77 52.48 64.73 C53.67 60.58 54.85 56.44 56.04 52.3 C58.36 44.2 60.68 36.1 63 28 C56.73 28 50.46 28 44 28 C43.76 29.32 43.53 30.63 43.28 31.99 C41.77 39.51 39.59 46.85 37.46 54.22 C37.02 55.77 36.58 57.32 36.14 58.87 C35.21 62.1 34.29 65.33 33.36 68.55 C32.17 72.69 30.98 76.83 29.8 80.97 C28.89 84.16 27.98 87.36 27.06 90.55 C26.62 92.07 26.19 93.6 25.75 95.13 C25.14 97.26 24.53 99.38 23.92 101.51 C23.57 102.71 23.22 103.92 22.87 105.17 C22 108 22 108 21 110 C8.46 110 -4.08 110 -17 110 C-16.31 104.47 -15.59 100.02 -14.07 94.79 C-13.87 94.12 -13.68 93.45 -13.48 92.76 C-13.06 91.32 -12.64 89.88 -12.22 88.43 C-11.55 86.15 -10.89 83.86 -10.23 81.57 C-8.59 75.89 -6.93 70.21 -5.28 64.53 C-3.88 59.72 -2.49 54.91 -1.1 50.1 C-0.45 47.86 0.21 45.62 0.86 43.37 C1.26 41.98 1.67 40.6 2.07 39.21 C2.42 38.01 2.77 36.8 3.13 35.57 C4.49 29.98 5.58 24.64 4 18.98 C3.66 17.7 3.66 17.7 3.31 16.38 C3.06 15.51 2.82 14.65 2.56 13.75 C2.08 12 1.6 10.24 1.13 8.48 C0.91 7.72 0.7 6.95 0.47 6.16 C0 4 0 4 0 0 Z " fill="#FEFFFF" transform="translate(24,168)"/>
<path d="M0 0 C0.97 3.87 1.07 4.68 0.01 8.22 C-0.35 9.45 -0.35 9.45 -0.72 10.7 C-0.98 11.58 -1.25 12.46 -1.53 13.36 C-1.8 14.26 -2.06 15.17 -2.34 16.1 C-3.2 18.99 -4.07 21.87 -4.94 24.75 C-5.52 26.71 -6.1 28.66 -6.69 30.62 C-8.11 35.42 -9.55 40.21 -11 45 C-10.18 44.99 -9.36 44.98 -8.51 44.96 C-5.41 44.94 -2.31 44.95 0.79 44.99 C2.77 45 4.75 44.97 6.72 44.94 C16.59 45.09 21.63 47.65 29 54 C30.71 55.17 32.44 56.32 34.19 57.44 C36.42 58.87 36.42 58.87 38 61 C39 70.13 35.87 78.63 33.33 87.29 C32.84 88.97 32.36 90.65 31.88 92.32 C30.87 95.82 29.85 99.32 28.82 102.82 C27.51 107.29 26.22 111.77 24.93 116.25 C23.94 119.7 22.94 123.16 21.93 126.62 C21.45 128.26 20.97 129.91 20.5 131.57 C19.83 133.88 19.16 136.18 18.47 138.49 C18.28 139.16 18.09 139.83 17.89 140.53 C16.1 146.51 13.43 151.67 8 155 C4.25 156.25 0.76 156.13 -3.14 156.11 C-4.39 156.11 -4.39 156.11 -5.66 156.11 C-8.4 156.11 -11.14 156.11 -13.89 156.1 C-15.79 156.1 -17.69 156.09 -19.59 156.09 C-24.6 156.09 -29.6 156.08 -34.61 156.07 C-39.72 156.06 -44.82 156.05 -49.93 156.05 C-59.95 156.04 -69.98 156.02 -80 156 C-78.59 148.14 -76.55 140.52 -74.35 132.85 C-73.98 131.55 -73.61 130.26 -73.24 128.97 C-72.25 125.49 -71.25 122.01 -70.26 118.52 C-69.21 114.86 -68.16 111.2 -67.11 107.54 C-65.36 101.38 -63.6 95.23 -61.83 89.08 C-59.8 82 -57.78 74.92 -55.76 67.83 C-53.8 60.98 -51.84 54.14 -49.88 47.29 C-49.06 44.39 -48.23 41.49 -47.4 38.59 C-46.42 35.17 -45.44 31.75 -44.46 28.33 C-43.93 26.49 -43.41 24.66 -42.89 22.82 C-42.56 21.7 -42.24 20.58 -41.91 19.42 C-41.64 18.47 -41.36 17.51 -41.08 16.53 C-39.49 11.32 -37.72 6.17 -36 1 C-24.12 0.67 -12.24 0.34 0 0 Z M-20 74 C-22.14 81.39 -24.27 88.77 -26.41 96.16 C-27.14 98.68 -27.86 101.19 -28.59 103.71 C-29.64 107.31 -30.68 110.92 -31.72 114.53 C-32.05 115.66 -32.37 116.79 -32.71 117.96 C-33.01 119 -33.31 120.04 -33.62 121.11 C-33.89 122.03 -34.16 122.96 -34.43 123.91 C-35.04 125.8 -35.04 125.8 -35 127 C-29.06 127 -23.12 127 -17 127 C-14.39 121.82 -14.39 121.82 -12.56 116.54 C-12.32 115.72 -12.08 114.89 -11.83 114.04 C-11.58 113.17 -11.34 112.3 -11.08 111.4 C-10.82 110.49 -10.56 109.58 -10.29 108.64 C-9.74 106.72 -9.19 104.8 -8.65 102.88 C-7.81 99.94 -6.97 97.01 -6.12 94.08 C-5.59 92.21 -5.05 90.34 -4.52 88.46 C-4.27 87.59 -4.01 86.72 -3.75 85.82 C-3.52 85 -3.29 84.17 -3.05 83.33 C-2.75 82.25 -2.75 82.25 -2.44 81.16 C-1.84 78.55 -1.84 78.55 -2 74 C-7.94 74 -13.88 74 -20 74 Z " fill="#FEFFFF" transform="translate(259,122)"/>
<path d="M0 0 C0.98 0 1.96 0 2.97 0 C4.03 0.01 5.1 0.01 6.19 0.02 C7.27 0.02 8.36 0.02 9.48 0.02 C12.95 0.03 16.43 0.04 19.9 0.05 C22.25 0.06 24.6 0.06 26.95 0.06 C32.73 0.08 38.5 0.09 44.27 0.11 C42.97 2.79 41.7 4.98 39.74 7.22 C39.24 7.78 38.75 8.35 38.24 8.94 C37.16 10.16 36.08 11.38 34.99 12.6 C31.81 16.22 29.17 19.84 26.59 23.93 C24.03 27.27 22.15 28.36 18.08 28.91 C15.01 29.15 11.98 29.19 8.91 29.15 C5.44 28.84 5.44 28.84 3.27 30.11 C2.4 32.6 1.64 35.04 0.94 37.57 C0.71 38.35 0.49 39.13 0.26 39.94 C-0.49 42.53 -1.22 45.12 -1.95 47.71 C-2.46 49.5 -2.98 51.3 -3.49 53.09 C-4.84 57.81 -6.18 62.54 -7.52 67.27 C-9.13 72.94 -10.75 78.6 -12.37 84.26 C-14.83 92.88 -17.28 101.5 -19.73 110.11 C-31.94 110.11 -44.15 110.11 -56.73 110.11 C-55.6 101.11 -55.6 101.11 -54.75 98.15 C-54.56 97.48 -54.37 96.8 -54.17 96.11 C-53.97 95.4 -53.76 94.69 -53.55 93.96 C-53.33 93.18 -53.11 92.41 -52.88 91.62 C-52.16 89.09 -51.43 86.57 -50.7 84.04 C-50.19 82.28 -49.69 80.51 -49.18 78.74 C-48.12 75.05 -47.06 71.35 -45.99 67.66 C-44.62 62.94 -43.27 58.21 -41.92 53.48 C-40.87 49.84 -39.82 46.19 -38.77 42.55 C-38.27 40.8 -37.77 39.06 -37.27 37.32 C-36.57 34.88 -35.87 32.45 -35.16 30.01 C-34.96 29.3 -34.76 28.58 -34.55 27.85 C-32.7 21.54 -30.98 16.42 -25.35 12.74 C-24.48 12.16 -23.6 11.58 -22.7 10.99 C-21.72 10.37 -20.74 9.75 -19.73 9.11 C-19.16 8.76 -18.6 8.4 -18.02 8.04 C-5.2 -0.01 -5.2 -0.01 0 0 Z " fill="#FFFFFF" transform="translate(348.72509765625,167.886474609375)"/>
<path d="M0 0 C12.87 0 25.74 0 39 0 C35.32 14.73 35.32 14.73 33.56 20.56 C33.37 21.25 33.18 21.93 32.98 22.63 C31.73 26.76 30.68 28.78 27 31 C19.39 32.68 8.79 33.02 1.95 28.98 C-0.96 26.92 -3.53 24.58 -6 22 C-5.38 19.46 -4.75 16.92 -4.12 14.38 C-3.95 13.66 -3.78 12.95 -3.6 12.21 C-3.42 11.51 -3.25 10.81 -3.07 10.09 C-2.91 9.45 -2.76 8.81 -2.59 8.15 C-1.83 5.4 -0.9 2.7 0 0 Z " fill="#FEFFFF" transform="translate(164,123)"/>
</svg>
