<?xml version="1.0" encoding="UTF-8"?>
<svg version="1.1" xmlns="http://www.w3.org/2000/svg" width="50" height="50">
<path d="M0 0 C1.1461474 0.71726644 2.27476584 1.46411846 3.375 2.25 C4.6434375 3.0234375 4.6434375 3.0234375 5.9375 3.8125 C9.73647508 10.25424035 5.71432528 21.96758747 4.3125 29 C4.14556641 29.98871094 3.97863281 30.97742187 3.80664062 31.99609375 C2.49185866 38.49623692 0.54348801 41.89788526 -4.68530273 46.01660156 C-6.625 47.25 -6.625 47.25 -9.625 48.25 C-9.625 45.28 -9.625 42.31 -9.625 39.25 C-9.955 39.91 -10.285 40.57 -10.625 41.25 C-11.285 41.25 -11.945 41.25 -12.625 41.25 C-12.955 40.59 -13.285 39.93 -13.625 39.25 C-13.625 42.22 -13.625 45.19 -13.625 48.25 C-23.52822888 43.29838556 -23.52822888 43.29838556 -25.74951172 37.12451172 C-26.66075252 33.33099327 -27.39610839 29.52924529 -28.0625 25.6875 C-28.31719521 24.35955065 -28.5743381 23.0320683 -28.83398438 21.70507812 C-30.92713577 10.62999405 -30.92713577 10.62999405 -30.625 6.25 C-29.26953125 4.51953125 -29.26953125 4.51953125 -27.4375 3.0625 C-26.84582031 2.57394531 -26.25414062 2.08539063 -25.64453125 1.58203125 C-18.41211483 -3.18828596 -7.83798049 -3.74924114 0 0 Z " fill="#EBEBEB" transform="translate(36.625,1.75)"/>
<path d="M0 0 C1.1461474 0.71726644 2.27476584 1.46411846 3.375 2.25 C4.6434375 3.0234375 4.6434375 3.0234375 5.9375 3.8125 C9.73647508 10.25424035 5.71432528 21.96758747 4.3125 29 C4.14556641 29.98871094 3.97863281 30.97742187 3.80664062 31.99609375 C2.49185866 38.49623692 0.54348801 41.89788526 -4.68530273 46.01660156 C-6.625 47.25 -6.625 47.25 -9.625 48.25 C-9.625 45.28 -9.625 42.31 -9.625 39.25 C-9.955 39.91 -10.285 40.57 -10.625 41.25 C-11.285 41.25 -11.945 41.25 -12.625 41.25 C-12.955 40.59 -13.285 39.93 -13.625 39.25 C-13.625 42.22 -13.625 45.19 -13.625 48.25 C-23.52822888 43.29838556 -23.52822888 43.29838556 -25.74951172 37.12451172 C-26.66075252 33.33099327 -27.39610839 29.52924529 -28.0625 25.6875 C-28.31719521 24.35955065 -28.5743381 23.0320683 -28.83398438 21.70507812 C-30.92713577 10.62999405 -30.92713577 10.62999405 -30.625 6.25 C-29.26953125 4.51953125 -29.26953125 4.51953125 -27.4375 3.0625 C-26.84582031 2.57394531 -26.25414062 2.08539063 -25.64453125 1.58203125 C-18.41211483 -3.18828596 -7.83798049 -3.74924114 0 0 Z M-25.625 6.25 C-25.625 6.91 -25.625 7.57 -25.625 8.25 C-24.34625 8.45625 -23.0675 8.6625 -21.75 8.875 C-19.52734375 9.4296875 -19.52734375 9.4296875 -17.625 10.25 C-16.3125 13 -16.3125 13 -15.625 16.25 C-13.96118316 20.51670295 -13.96118316 20.51670295 -10.625 23.25 C-10.625 23.91 -10.625 24.57 -10.625 25.25 C-11.285 25.25 -11.945 25.25 -12.625 25.25 C-12.8725 24.425 -13.12 23.6 -13.375 22.75 C-15.80435212 15.14829279 -15.80435212 15.14829279 -21.1875 9.75 C-23.70009241 9.14952793 -23.70009241 9.14952793 -26.625 9.25 C-26.32968667 16.08650363 -25.25314007 22.65201018 -23.75 29.3125 C-23.58854492 30.06265381 -23.42708984 30.81280762 -23.26074219 31.58569336 C-22.22261413 36.22793776 -22.22261413 36.22793776 -18.625 39.25 C-18.625 33.64 -18.625 28.03 -18.625 22.25 C-16.645 26.21 -14.665 30.17 -12.625 34.25 C-11.965 34.25 -11.305 34.25 -10.625 34.25 C-8.645 30.29 -6.665 26.33 -4.625 22.25 C-4.955 28.19 -5.285 34.13 -5.625 40.25 C-1.46140432 38.73480476 -1.46140432 38.73480476 -0.62011719 35.57617188 C-0.2744873 33.91424805 -0.2744873 33.91424805 0.078125 32.21875 C0.3359375 31.01605469 0.59375 29.81335938 0.859375 28.57421875 C1.11203125 27.31222656 1.3646875 26.05023437 1.625 24.75 C1.893125 23.48800781 2.16125 22.22601562 2.4375 20.92578125 C3.81020132 15.1370791 3.81020132 15.1370791 4.375 9.25 C3.715 8.92 3.055 8.59 2.375 8.25 C2.045 7.26 1.715 6.27 1.375 5.25 C-7.83380532 -1.22105238 -16.66229598 0.31724084 -25.625 6.25 Z " fill="#393938" transform="translate(36.625,1.75)"/>
<path d="M0 0 C1.1461474 0.71726644 2.27476584 1.46411846 3.375 2.25 C4.6434375 3.0234375 4.6434375 3.0234375 5.9375 3.8125 C9.73647508 10.25424035 5.71432528 21.96758747 4.3125 29 C4.14556641 29.98871094 3.97863281 30.97742187 3.80664062 31.99609375 C2.49185866 38.49623692 0.54348801 41.89788526 -4.68530273 46.01660156 C-6.625 47.25 -6.625 47.25 -9.625 48.25 C-9.625 45.28 -9.625 42.31 -9.625 39.25 C-9.955 39.91 -10.285 40.57 -10.625 41.25 C-11.285 41.25 -11.945 41.25 -12.625 41.25 C-12.955 40.59 -13.285 39.93 -13.625 39.25 C-13.625 42.22 -13.625 45.19 -13.625 48.25 C-23.52822888 43.29838556 -23.52822888 43.29838556 -25.74951172 37.12451172 C-26.66075252 33.33099327 -27.39610839 29.52924529 -28.0625 25.6875 C-28.31719521 24.35955065 -28.5743381 23.0320683 -28.83398438 21.70507812 C-30.92713577 10.62999405 -30.92713577 10.62999405 -30.625 6.25 C-29.26953125 4.51953125 -29.26953125 4.51953125 -27.4375 3.0625 C-26.84582031 2.57394531 -26.25414062 2.08539063 -25.64453125 1.58203125 C-18.41211483 -3.18828596 -7.83798049 -3.74924114 0 0 Z M-28.625 7.25 C-29.16146657 14.35385574 -27.82840842 21.51016247 -25.625 28.25 C-25.51671875 29.03890625 -25.4084375 29.8278125 -25.296875 30.640625 C-24.45013357 36.78870406 -22.80519982 39.90029788 -18.18359375 44.0703125 C-16.817892 45.35058523 -16.817892 45.35058523 -15.625 45.25 C-15.625 40.63 -15.625 36.01 -15.625 31.25 C-14.635 33.23 -13.645 35.21 -12.625 37.25 C-11.965 37.25 -11.305 37.25 -10.625 37.25 C-9.57607762 35.61368108 -8.57593297 33.94514137 -7.625 32.25 C-7.295 31.92 -6.965 31.59 -6.625 31.25 C-6.955 35.87 -7.285 40.49 -7.625 45.25 C-6.51125 44.363125 -5.3975 43.47625 -4.25 42.5625 C-3.62351562 42.06363281 -2.99703125 41.56476562 -2.3515625 41.05078125 C1.99000676 36.52258344 2.39107455 29.755519 3.5 23.8125 C3.68175781 22.88373047 3.86351562 21.95496094 4.05078125 20.99804688 C5.37463197 14.17281273 5.37463197 14.17281273 5.375 7.25 C1.92670199 2.61634956 -2.12379951 0.53625191 -7.625 -0.75 C-15.82341477 -1.92529722 -23.45774822 0.5474672 -28.625 7.25 Z " fill="#E8E8E8" transform="translate(36.625,1.75)"/>
<path d="M0 0 C1.03769531 -0.02578125 2.07539063 -0.0515625 3.14453125 -0.078125 C6.54901636 0.28898251 8.41142285 1.3000752 11.1875 3.25 C9.1875 5.25 9.1875 5.25 7.203125 6.0859375 C4.55913783 7.61289133 4.05847476 9.0725631 2.9375 11.875 C2.60234375 12.69226562 2.2671875 13.50953125 1.921875 14.3515625 C1.67953125 14.97804688 1.4371875 15.60453125 1.1875 16.25 C0.5275 16.25 -0.1325 16.25 -0.8125 16.25 C-1.11542969 15.55132812 -1.41835938 14.85265625 -1.73046875 14.1328125 C-2.14941406 13.22273438 -2.56835938 12.31265625 -3 11.375 C-3.40605469 10.47007813 -3.81210937 9.56515625 -4.23046875 8.6328125 C-6.12096459 5.78539901 -7.58512041 5.19380512 -10.8125 4.25 C-7.25446682 0.53023804 -5.15501867 0.07627648 0 0 Z " fill="#067BFC" transform="translate(24.8125,4.75)"/>
<path d="M0 0 C2.89088352 1.17821723 5.38788778 2.65182102 7.984375 4.3828125 C7.984375 5.0428125 7.984375 5.7028125 7.984375 6.3828125 C7.324375 6.3828125 6.664375 6.3828125 5.984375 6.3828125 C5.984375 7.0428125 5.984375 7.7028125 5.984375 8.3828125 C4.334375 8.7128125 2.684375 9.0428125 0.984375 9.3828125 C0.695625 10.2903125 0.406875 11.1978125 0.109375 12.1328125 C-1.735625 17.4628125 -1.735625 17.4628125 -3.015625 19.3828125 C-5.0859375 19.98828125 -5.0859375 19.98828125 -7.015625 20.3828125 C-7.85381658 18.76031309 -8.6860366 17.13472753 -9.515625 15.5078125 C-9.9796875 14.60289063 -10.44375 13.69796875 -10.921875 12.765625 C-12.015625 10.3828125 -12.015625 10.3828125 -12.015625 8.3828125 C-14.655625 7.7228125 -17.295625 7.0628125 -20.015625 6.3828125 C-20.015625 5.7228125 -20.015625 5.0628125 -20.015625 4.3828125 C-13.42135172 0.01780891 -7.84556338 -2.40232367 0 0 Z M-17.015625 4.3828125 C-15.19629156 6.45356853 -15.19629156 6.45356853 -13.03125 7.21875 C-10.38726283 8.74570383 -9.88659976 10.2053756 -8.765625 13.0078125 C-8.43046875 13.82507812 -8.0953125 14.64234375 -7.75 15.484375 C-7.38648438 16.42410156 -7.38648438 16.42410156 -7.015625 17.3828125 C-6.355625 17.3828125 -5.695625 17.3828125 -5.015625 17.3828125 C-4.71269531 16.68414062 -4.40976562 15.98546875 -4.09765625 15.265625 C-3.67871094 14.35554688 -3.25976562 13.44546875 -2.828125 12.5078125 C-2.42207031 11.60289063 -2.01601563 10.69796875 -1.59765625 9.765625 C0.29283959 6.91821151 1.75699541 6.32661762 4.984375 5.3828125 C2.46830707 2.75237785 1.07982374 1.46695332 -2.66015625 1.1796875 C-4.22830078 1.15648437 -4.22830078 1.15648437 -5.828125 1.1328125 C-6.86582031 1.10703125 -7.90351563 1.08125 -8.97265625 1.0546875 C-12.37714136 1.42179501 -14.23954785 2.4328877 -17.015625 4.3828125 Z " fill="#B8C2DB" transform="translate(31.015625,3.6171875)"/>
<path d="M0 0 C3.96478935 -0.1802177 6.65713218 -0.2153132 10 2 C11.484375 4.3125 11.484375 4.3125 12.75 7 C13.17796875 7.886875 13.6059375 8.77375 14.046875 9.6875 C15 12 15 12 15 14 C15.99 13.67 16.98 13.34 18 13 C17.67 14.32 17.34 15.64 17 17 C16.34 17 15.68 17 15 17 C13.99515796 15.04414675 12.99626195 13.08523763 12 11.125 C11.443125 10.03445312 10.88625 8.94390625 10.3125 7.8203125 C9 5 9 5 9 3 C8.236875 2.855625 7.47375 2.71125 6.6875 2.5625 C4 2 4 2 1 1 C1.83140672 4.97033709 2.66768307 8.93961327 3.50854492 12.90795898 C3.79407634 14.25891097 4.07826047 15.61014844 4.36108398 16.96166992 C4.76714908 18.90096856 5.17841675 20.83917557 5.58984375 22.77734375 C5.83597412 23.94515381 6.08210449 25.11296387 6.33569336 26.31616211 C6.73079382 28.90295918 6.73079382 28.90295918 8 30 C8.66 28.68 9.32 27.36 10 26 C10.33 27.98 10.66 29.96 11 32 C11.33 32 11.66 32 12 32 C12 33.65 12 35.3 12 37 C10.85373678 36.02133662 9.70800212 35.04205413 8.5625 34.0625 C7.60537109 33.24458984 7.60537109 33.24458984 6.62890625 32.41015625 C2.81550321 29.10886489 2.93744401 24.52071697 2.10546875 19.7265625 C1.73499216 16.05740655 1.73499216 16.05740655 0 13 C-0.26087055 11.3826026 -0.45964436 9.75493414 -0.625 8.125 C-0.72039063 7.24070312 -0.81578125 6.35640625 -0.9140625 5.4453125 C-1 3 -1 3 0 0 Z " fill="#3C3C3B" transform="translate(9,10)"/>
<path d="M0 0 C0.99 0.495 0.99 0.495 2 1 C2.48549019 3.56658535 2.88599481 6.10383275 3.25 8.6875 C4.27057239 15.49294912 4.27057239 15.49294912 8.1875 21 C9.5796875 21.99 9.5796875 21.99 11 23 C11 18.38 11 13.76 11 9 C13.8290723 11.8290723 14.37611108 12.38144425 15 16 C15.66 16 16.32 16 17 16 C17.309375 15.21625 17.61875 14.4325 17.9375 13.625 C19 11 19 11 20 9 C20.66 9.33 21.32 9.66 22 10 C21.67 12.97 21.34 15.94 21 19 C20.34 17.68 19.68 16.36 19 15 C18.01 17.475 18.01 17.475 17 20 C16.34 20 15.68 20 15 20 C14.67 19.34 14.34 18.68 14 18 C14 20.97 14 23.94 14 27 C4.00704225 22.00352113 4.00704225 22.00352113 1.8828125 15.66796875 C0.72764673 10.41471488 -0.17327026 5.39176277 0 0 Z " fill="#E2E2E2" transform="translate(9,23)"/>
<path d="M0 0 C2.5625 1.9375 2.5625 1.9375 4 4 C4.25 6.75 4.25 6.75 4 9 C3.505 7.515 3.505 7.515 3 6 C0.98491642 5.26676204 0.98491642 5.26676204 -1 5 C-0.34 5 0.32 5 1 5 C-2.12225983 1.14309079 -6.41587203 -0.61648984 -11.2109375 -1.328125 C-17.00297264 -1.60487753 -20.19484059 -0.13806329 -25 3 C-25.66 3 -26.32 3 -27 3 C-27 3.66 -27 4.32 -27 5 C-27.66 5 -28.32 5 -29 5 C-29.33 5.99 -29.66 6.98 -30 8 C-29.78087133 4.16524836 -29.05971606 3.05835887 -26.25 0.3125 C-17.49315331 -5.91833322 -9.13865263 -5.31869583 0 0 Z " fill="#181816" transform="translate(38,5)"/>
<path d="M0 0 C0.33 0 0.66 0 1 0 C-0.39764839 21.35028397 -0.39764839 21.35028397 -7 27.25 C-9.40880883 29.09310373 -11.09283026 30.03094342 -14 31 C-14 27.04 -14 23.08 -14 19 C-13.34 18.67 -12.68 18.34 -12 18 C-11.67 20.97 -11.34 23.94 -11 27 C-5.29719829 22.22556136 -3.85037979 18.49182012 -2.6875 11.25 C-2.38067624 9.54655524 -2.07216452 7.84341339 -1.76171875 6.140625 C-1.63756592 5.39329102 -1.51341309 4.64595703 -1.38549805 3.87597656 C-1 2 -1 2 0 0 Z " fill="#EAEAEA" transform="translate(41,19)"/>
<path d="M0 0 C7.70801907 -0.47191953 12.49270707 0.66180471 19 5 C19 5.66 19 6.32 19 7 C18.34 7 17.68 7 17 7 C17 7.66 17 8.32 17 9 C15.35 9.33 13.7 9.66 12 10 C11.731875 10.9075 11.46375 11.815 11.1875 12.75 C10.10423706 15.71471963 9.01640543 17.6169754 7 20 C7.70410614 14.19112438 10.50464913 8.82104824 15 5 C11.07478486 2.73087796 7.59307827 2.60427984 3.14453125 2.34375 C2.43683594 2.2303125 1.72914062 2.116875 1 2 C0.67 1.34 0.34 0.68 0 0 Z " fill="#788195" transform="translate(20,3)"/>
<path d="M0 0 C2.10715097 2.80953463 3.66589463 5.05846964 5.1875 8.125 C5.53167969 8.80820312 5.87585938 9.49140625 6.23046875 10.1953125 C7 12 7 12 7 14 C7.99 13.67 8.98 13.34 10 13 C9.67 14.32 9.34 15.64 9 17 C8.34 17 7.68 17 7 17 C6.01 15.02 5.02 13.04 4 11 C3.67 14.3 3.34 17.6 3 21 C2.67 21 2.34 21 2 21 C1.34 14.07 0.68 7.14 0 0 Z " fill="#1C1C1B" transform="translate(17,22)"/>
<path d="M0 0 C3.22073444 -0.48311017 5.33060545 -0.4060262 8.14453125 1.30078125 C10.52339906 3.09671929 12.88925613 4.88925613 15 7 C14.91015699 8.85772162 14.75388139 10.71247985 14.5625 12.5625 C14.46066406 13.57441406 14.35882813 14.58632812 14.25390625 15.62890625 C14.17011719 16.41136719 14.08632813 17.19382812 14 18 C13.34 18 12.68 18 12 18 C12 14.04 12 10.08 12 6 C9.21727456 4.60863728 6.64449832 3.43631605 3.75 2.375 C2.5125 1.92125 1.275 1.4675 0 1 C0 0.67 0 0.34 0 0 Z " fill="#DADADA" transform="translate(29,1)"/>
<path d="M0 0 C0.33 0 0.66 0 1 0 C1.4375 2.5625 1.4375 2.5625 1 6 C-1.0609281 8.64749994 -3.39518761 10.88866526 -6 13 C-6.33 13 -6.66 13 -7 13 C-6.67 9.7 -6.34 6.4 -6 3 C-5.67 3 -5.34 3 -5 3 C-5 4.65 -5 6.3 -5 8 C-1.39345961 5.59563974 -1.14547068 4.05320393 0 0 Z " fill="#212121" transform="translate(36,34)"/>
<path d="M0 0 C0.66 0.33 1.32 0.66 2 1 C1.67 3.97 1.34 6.94 1 10 C0.34 8.68 -0.32 7.36 -1 6 C-1.66 7.65 -2.32 9.3 -3 11 C-3.66 11 -4.32 11 -5 11 C-5 9.68 -5 8.36 -5 7 C-4.34 7 -3.68 7 -3 7 C-2.690625 6.21625 -2.38125 5.4325 -2.0625 4.625 C-1 2 -1 2 0 0 Z " fill="#D6D6D6" transform="translate(29,32)"/>
<path d="M0 0 C0.93065133 2.60582371 1.14917407 3.64198224 0.0625 6.25 C-0.4634375 7.11625 -0.4634375 7.11625 -1 8 C-1.99 7.67 -2.98 7.34 -4 7 C-2.68 4.69 -1.36 2.38 0 0 Z " fill="#1E1E1D" transform="translate(32,23)"/>
</svg>
