<?xml version="1.0" encoding="UTF-8"?>
<!-- Generator: https://ezgif.com/png-to-svg -->
<svg version="1.1" xmlns="http://www.w3.org/2000/svg" width="512" height="512" viewBox="29.341 -30.515 562.654 562.654" preserveAspectRatio="xMidYMid meet">
<path d="M0 0 C1.14 -0.01 2.29 -0.01 3.47 -0.02 C5.89 -0.03 8.31 -0.03 10.73 -0.04 C14.37 -0.05 18.01 -0.08 21.65 -0.11 C35.14 -0.17 47.95 0.49 61.17 3.2 C62.15 3.4 63.13 3.59 64.14 3.79 C66.42 4.27 68.67 4.81 70.92 5.39 C71.73 5.6 72.54 5.81 73.38 6.02 C108.53 15.37 141.19 32 167.8 56.98 C169.85 58.91 171.95 60.72 174.11 62.52 C179.94 67.62 185.1 73.35 190.17 79.2 C190.74 79.86 191.31 80.51 191.9 81.18 C193.63 83.2 195.31 85.26 196.98 87.33 C197.52 87.95 198.05 88.57 198.6 89.21 C202.36 94.03 202.3 97.19 201.62 103.11 C200.85 108.44 199.82 113.69 198.75 118.96 C198.37 120.81 198.37 120.81 197.99 122.7 C197.31 126.08 196.63 129.47 195.94 132.85 C195.2 136.48 194.47 140.11 193.74 143.74 C192.32 150.77 190.89 157.8 189.47 164.83 C187.81 172.98 186.17 181.13 184.52 189.29 C175.74 232.74 166.92 276.18 158.03 319.62 C157.62 321.67 157.2 323.72 156.78 325.77 C155.77 330.7 154.76 335.63 153.73 340.56 C151.81 349.77 150.01 358.98 148.5 368.27 C147.76 372.81 146.97 377.33 146.17 381.86 C145.81 384.01 145.48 386.16 145.17 388.31 C142.68 405.5 136.42 414.2 123.17 425.2 C121.7 426.48 120.23 427.75 118.77 429.04 C118.13 429.59 117.49 430.15 116.84 430.73 C114.88 432.46 113.01 434.27 111.17 436.14 C110.51 436.81 109.85 437.48 109.17 438.16 C108.51 438.84 107.85 439.51 107.17 440.2 C103.32 444.13 99.47 448 95.3 451.58 C90.33 455.86 85.77 460.53 81.17 465.2 C75.91 470.55 70.64 475.77 64.95 480.65 C62.39 482.89 60.04 485.27 57.67 487.7 C53.8 491.62 49.86 495.34 45.63 498.86 C44.04 500.16 44.04 500.16 43.17 502.2 C42.18 501.87 41.19 501.54 40.17 501.2 C40.24 500.49 40.32 499.77 40.39 499.04 C42.15 481.63 43.9 464.22 45.65 446.8 C46.49 438.38 47.34 429.97 48.19 421.55 C48.93 414.21 49.67 406.87 50.41 399.53 C50.79 395.64 51.19 391.76 51.58 387.87 C51.95 384.21 52.32 380.55 52.68 376.89 C52.88 374.91 53.08 372.94 53.28 370.96 C53.84 365.35 54.34 359.84 54.17 354.2 C53.84 354.85 53.51 355.49 53.17 356.15 C45.87 370.3 38.42 384.35 30.76 398.31 C27.79 403.72 24.86 409.15 21.92 414.58 C21.35 415.64 20.77 416.7 20.18 417.79 C18.85 420.26 17.51 422.73 16.17 425.2 C15.51 425.2 14.85 425.2 14.17 425.2 C13.45 423.83 13.45 423.83 12.71 422.43 C4.15 406.2 -4.43 389.99 -13.26 373.9 C-16.84 367.37 -20.34 360.79 -23.83 354.2 C-23.14 368.85 -21.58 383.42 -20.1 398.01 C-19.74 401.6 -19.38 405.2 -19.02 408.79 C-18.34 415.58 -17.65 422.36 -16.97 429.14 C-15.74 441.32 -14.51 453.51 -13.28 465.69 C-12.86 469.96 -12.42 474.23 -11.99 478.51 C-11.66 481.77 -11.33 485.03 -11.01 488.3 C-10.89 489.48 -10.77 490.66 -10.64 491.88 C-10.53 492.96 -10.43 494.03 -10.31 495.13 C-10.17 496.54 -10.17 496.54 -10.03 497.97 C-9.83 500.2 -9.83 500.2 -9.83 502.2 C-12.83 502.2 -12.83 502.2 -14.2 500.88 C-14.69 500.24 -15.19 499.61 -15.7 498.95 C-18.95 495.06 -22.46 491.66 -26.2 488.27 C-30.78 484.11 -35.23 479.88 -39.54 475.43 C-41.45 473.57 -43.4 471.84 -45.43 470.1 C-51.63 464.72 -57.29 458.78 -63.05 452.94 C-67.55 448.4 -72.09 444.02 -76.95 439.86 C-80.23 436.97 -83.26 433.83 -86.33 430.7 C-92.17 424.79 -92.17 424.79 -98.33 419.2 C-98.92 418.69 -99.51 418.18 -100.12 417.65 C-101.32 416.64 -102.53 415.64 -103.75 414.66 C-107.54 411.36 -109.24 408.7 -110.36 403.77 C-110.61 402.71 -110.85 401.64 -111.11 400.54 C-112.28 395.12 -113.41 389.69 -114.5 384.26 C-114.75 383.01 -115 381.77 -115.26 380.49 C-115.8 377.79 -116.34 375.1 -116.88 372.4 C-117.75 368.05 -118.62 363.71 -119.49 359.36 C-120.75 353.12 -122 346.88 -123.25 340.63 C-126.37 325.07 -129.5 309.52 -132.62 293.96 C-133.12 291.48 -133.62 289 -134.12 286.52 C-140.8 253.28 -147.56 220.05 -154.36 186.83 C-156.65 175.63 -158.94 164.43 -161.21 153.23 C-161.64 151.12 -162.07 149.01 -162.5 146.91 C-163.91 139.95 -165.32 133 -166.73 126.05 C-167.18 123.81 -167.63 121.57 -168.09 119.33 C-168.72 116.23 -169.34 113.13 -169.97 110.02 C-170.16 109.1 -170.35 108.18 -170.54 107.23 C-172.68 96.51 -172.68 96.51 -169.74 92 C-168.8 90.83 -167.85 89.67 -166.89 88.52 C-166.39 87.9 -165.89 87.29 -165.38 86.65 C-161.68 82.13 -157.84 77.74 -153.88 73.44 C-151.95 71.34 -150.11 69.19 -148.27 67.02 C-145.46 63.8 -142.48 60.98 -139.22 58.23 C-137.4 56.69 -135.61 55.12 -133.84 53.52 C-101.9 25 -60.93 7.65 -18.83 1.2 C-17.83 1.03 -16.83 0.85 -15.79 0.67 C-10.52 0.05 -5.31 0.02 0 0 Z M55.17 350.2 C56.17 352.2 56.17 352.2 56.17 352.2 Z " fill="#20201E" transform="translate(295.828125,-0.203125)"/>
<path d="M0 0 C2.32 0.69 4.63 1.38 6.95 2.08 C9.03 2.71 11.12 3.33 13.21 3.95 C19.14 5.73 24.88 7.69 30.61 10.07 C33.81 11.32 37.08 12.24 40.38 13.18 C42.8 13.94 45.07 14.83 47.4 15.83 C51.55 17.52 55.72 18.82 60.04 20.02 C61.28 20.38 62.52 20.75 63.8 21.12 C66.34 21.87 68.9 22.58 71.48 23.23 C77.95 25.23 82.17 27.19 85.39 33.19 C86.71 36.01 87.91 38.86 89.07 41.75 C90.63 45.52 92.48 49.14 94.3 52.79 C95.05 54.33 95.8 55.86 96.54 57.39 C97.11 58.56 97.11 58.56 97.69 59.76 C98.08 60.56 98.47 61.36 98.88 62.19 C100.13 64.76 101.38 67.33 102.63 69.9 C103.48 71.66 104.33 73.41 105.19 75.17 C108.05 81.04 110.91 86.91 113.78 92.78 C121.04 107.64 128.24 122.52 135.14 137.55 C138.14 144.07 141.21 150.54 144.36 156.99 C144.73 157.75 145.1 158.51 145.48 159.3 C147.3 163.04 149.13 166.78 150.97 170.52 C151.63 171.87 152.3 173.22 152.96 174.57 C153.42 175.5 153.42 175.5 153.89 176.46 C156 180.77 156 180.77 156 183 C156.66 183 157.32 183 158 183 C158.25 182.17 158.51 181.34 158.77 180.49 C160.16 176.54 161.89 172.88 163.75 169.13 C164.3 168 164.3 168 164.86 166.86 C165.64 165.25 166.43 163.65 167.21 162.05 C168.87 158.69 170.51 155.32 172.16 151.96 C172.97 150.28 173.79 148.61 174.61 146.93 C177.69 140.64 180.74 134.33 183.75 128 C187.79 119.53 191.85 111.07 195.94 102.62 C201.68 90.75 201.68 90.75 207.38 78.85 C208.34 76.85 209.33 74.87 210.33 72.89 C213.02 67.53 215.31 62.26 217.11 56.54 C220.98 44.46 225.27 31.43 236.96 24.96 C248.75 19.3 261.51 15.96 274.11 12.63 C281.68 10.59 288.99 7.93 296.33 5.18 C299.41 4.03 302.51 2.91 305.61 1.81 C306.59 1.46 307.57 1.1 308.58 0.74 C311 0 311 0 314 0 C313.36 7.01 312.09 13.71 310.56 20.57 C310.32 21.68 310.07 22.78 309.82 23.92 C309.3 26.29 308.78 28.65 308.25 31.01 C306.87 37.23 305.51 43.45 304.14 49.67 C303.73 51.52 303.73 51.52 303.32 53.41 C301.04 63.76 298.85 74.13 296.69 84.5 C294.36 95.69 291.93 106.86 289.38 118 C286.83 129.12 284.48 140.26 282.3 151.45 C280.53 160.53 278.6 169.57 276.64 178.61 C274.81 187.16 273.02 195.71 271.26 204.27 C269.64 212.08 268.02 219.89 266.39 227.69 C265.33 232.76 264.28 237.84 263.24 242.91 C262.22 247.91 261.18 252.9 260.13 257.89 C259.73 259.77 259.35 261.65 258.97 263.53 C255.26 281.96 255.26 281.96 249 288 C248.26 288.85 247.52 289.7 246.76 290.58 C246.08 291.32 245.39 292.05 244.69 292.81 C240.67 297.21 236.9 301.75 233.15 306.37 C227.06 313.82 227.06 313.82 224 317 C223.67 317 223.34 317 223 317 C222.59 306.37 223.82 295.84 224.84 285.28 C225.03 283.19 225.23 281.09 225.43 279 C225.85 274.52 226.28 270.03 226.7 265.54 C227.38 258.45 228.05 251.36 228.72 244.26 C229.78 233.05 230.84 221.84 231.91 210.62 C233.82 190.53 235.72 170.43 237.62 150.33 C238.29 143.27 238.96 136.22 239.63 129.17 C240.04 124.79 240.46 120.41 240.87 116.03 C241.06 113.99 241.26 111.96 241.45 109.93 C241.72 107.16 241.98 104.39 242.24 101.61 C242.32 100.81 242.4 100 242.48 99.17 C242.83 95.43 243.09 91.75 243 88 C233.1 107.78 223.19 127.57 213.3 147.36 C208.7 156.55 204.1 165.73 199.5 174.92 C195.49 182.94 191.48 190.95 187.47 198.97 C185.35 203.21 183.23 207.45 181.11 211.68 C179.1 215.68 177.1 219.69 175.1 223.69 C174.37 225.15 173.64 226.6 172.91 228.06 C167.78 238.3 162.84 248.62 158 259 C157.34 259 156.68 259 156 259 C155.75 258.47 155.5 257.94 155.24 257.4 C147.11 240.19 138.65 223.17 130.12 206.16 C128.23 202.39 126.34 198.62 124.45 194.85 C119.68 185.31 114.9 175.78 110.12 166.25 C104.94 155.91 99.76 145.57 94.59 135.23 C92.35 130.76 90.12 126.3 87.88 121.84 C86.49 119.06 85.1 116.29 83.71 113.51 C83.07 112.23 82.43 110.95 81.79 109.68 C78.03 102.19 74.4 94.66 71 87 C72.52 108.99 74.65 130.91 76.76 152.85 C77.4 159.48 78.03 166.11 78.66 172.75 C80.46 191.58 82.26 210.42 84.07 229.25 C85.07 239.7 86.07 250.15 87.06 260.61 C87.69 267.2 88.32 273.79 88.96 280.39 C89.35 284.47 89.74 288.55 90.13 292.64 C90.31 294.53 90.49 296.43 90.68 298.32 C90.93 300.9 91.17 303.48 91.41 306.06 C91.49 306.82 91.56 307.57 91.64 308.34 C91.95 311.77 92.17 314.72 91 318 C85.21 311.75 79.65 305.41 74.3 298.77 C71.08 294.9 67.64 291.25 64.16 287.61 C60.03 282.63 58.43 277.41 57.24 271.15 C57.09 270.39 56.94 269.63 56.78 268.85 C56.45 267.22 56.13 265.58 55.81 263.94 C54.95 259.52 54.06 255.1 53.17 250.68 C52.99 249.78 52.81 248.87 52.62 247.94 C50.9 239.44 49.03 230.97 47.12 222.5 C44.03 208.75 41.05 194.98 38.12 181.19 C37.91 180.2 37.7 179.21 37.49 178.18 C36.42 173.13 35.34 168.07 34.27 163.01 C32.23 153.36 30.18 143.71 28.12 134.06 C27.92 133.11 27.72 132.15 27.51 131.17 C24.28 115.97 21.02 100.77 17.77 85.57 C16 77.36 14.25 69.15 12.49 60.93 C11.49 56.31 10.5 51.68 9.51 47.05 C8.33 41.55 7.15 36.04 5.97 30.53 C5.54 28.49 5.1 26.45 4.66 24.41 C4.06 21.61 3.46 18.8 2.86 16 C2.69 15.18 2.51 14.37 2.33 13.53 C1.38 9.03 0.6 4.56 0 0 Z " fill="#FCFCFC" transform="translate(154,107)"/>
<path d="M0 0 C2.17 -0 4.34 -0.02 6.51 -0.04 C14.79 -0.07 22.67 0.5 30.81 2.19 C31.61 2.34 32.42 2.49 33.25 2.64 C50.08 5.81 65.49 10.44 80.81 18.19 C81.62 18.59 82.43 19 83.27 19.41 C103.21 29.42 121.4 41.14 137.78 56.37 C139.88 58.34 139.88 58.34 142.81 60.19 C142.81 60.85 142.81 61.51 142.81 62.19 C141.61 62.48 140.41 62.77 139.17 63.07 C130.33 65.23 121.54 67.5 112.81 70.06 C103.01 72.92 93.13 75.41 83.22 77.83 C82.09 78.1 80.95 78.38 79.78 78.67 C78.77 78.91 77.76 79.16 76.72 79.41 C74.67 79.96 72.63 80.59 70.61 81.27 C67.82 82.18 65.72 82.36 62.81 82.19 C62.53 83.06 62.25 83.94 61.96 84.84 C60.9 87.92 59.68 90.79 58.29 93.74 C57.79 94.81 57.29 95.88 56.77 96.99 C56.23 98.15 55.68 99.3 55.12 100.5 C53.93 103.04 52.74 105.58 51.56 108.12 C51.09 109.11 51.09 109.11 50.62 110.12 C47.23 117.39 43.93 124.69 40.62 132 C32.8 149.26 24.85 166.46 16.9 183.66 C13.82 190.31 10.75 196.97 7.68 203.62 C6.72 205.7 5.76 207.79 4.8 209.87 C4.41 210.71 4.02 211.55 3.62 212.42 C3.35 213 3.08 213.58 2.81 214.19 C2.15 214.19 1.49 214.19 0.81 214.19 C-9.55 191.66 -19.89 169.13 -30.19 146.58 C-31.9 142.83 -33.61 139.09 -35.32 135.35 C-36.02 133.82 -36.71 132.3 -37.41 130.77 C-39.11 127.04 -40.82 123.32 -42.55 119.6 C-45.58 113.06 -48.5 106.54 -51.05 99.79 C-54.72 88.64 -54.72 88.64 -62.91 81.05 C-66.51 79.99 -70.1 79.7 -73.83 79.44 C-78.04 78.98 -81.98 77.63 -86.01 76.37 C-95.65 73.53 -105.39 71.09 -115.16 68.72 C-122.94 66.82 -130.57 64.62 -138.19 62.19 C-126.57 37.23 -82.33 18.9 -58.26 9.81 C-56.58 9.25 -54.89 8.71 -53.19 8.19 C-52.13 7.85 -51.06 7.52 -49.96 7.17 C-33.33 2.2 -17.28 -0 0 0 Z " fill="#017CFB" transform="translate(309.1943359375,32.814697265625)"/>
<path d="M0 0 C1.14 -0.01 2.29 -0.01 3.47 -0.02 C5.89 -0.03 8.31 -0.03 10.73 -0.04 C14.37 -0.05 18.01 -0.08 21.65 -0.11 C35.14 -0.17 47.95 0.49 61.17 3.2 C62.15 3.4 63.13 3.59 64.14 3.79 C66.42 4.27 68.67 4.81 70.92 5.39 C71.73 5.6 72.54 5.81 73.38 6.02 C108.53 15.37 141.19 32 167.8 56.98 C169.85 58.91 171.95 60.72 174.11 62.52 C179.94 67.62 185.1 73.35 190.17 79.2 C190.74 79.86 191.31 80.51 191.9 81.18 C193.63 83.2 195.31 85.26 196.98 87.33 C197.52 87.95 198.05 88.57 198.6 89.21 C202.36 94.03 202.3 97.19 201.62 103.11 C200.85 108.44 199.82 113.69 198.75 118.96 C198.37 120.81 198.37 120.81 197.99 122.7 C197.31 126.08 196.63 129.47 195.94 132.85 C195.2 136.48 194.47 140.11 193.74 143.74 C192.32 150.77 190.89 157.8 189.47 164.83 C187.81 172.98 186.17 181.13 184.52 189.29 C175.74 232.74 166.92 276.18 158.03 319.62 C157.62 321.67 157.2 323.72 156.78 325.77 C155.77 330.7 154.76 335.63 153.73 340.56 C151.81 349.77 150.01 358.98 148.5 368.27 C147.76 372.81 146.97 377.33 146.17 381.86 C145.81 384.01 145.48 386.16 145.17 388.31 C142.68 405.5 136.42 414.2 123.17 425.2 C121.7 426.48 120.23 427.75 118.77 429.04 C118.13 429.59 117.49 430.15 116.84 430.73 C114.88 432.46 113.01 434.27 111.17 436.14 C110.51 436.81 109.85 437.48 109.17 438.16 C108.51 438.84 107.85 439.51 107.17 440.2 C103.32 444.13 99.47 448 95.3 451.58 C90.33 455.86 85.77 460.53 81.17 465.2 C75.91 470.55 70.64 475.77 64.95 480.65 C62.39 482.89 60.04 485.27 57.67 487.7 C53.8 491.62 49.86 495.34 45.63 498.86 C44.04 500.16 44.04 500.16 43.17 502.2 C42.18 501.87 41.19 501.54 40.17 501.2 C40.24 500.49 40.32 499.77 40.39 499.04 C42.15 481.63 43.9 464.22 45.65 446.8 C46.49 438.38 47.34 429.97 48.19 421.55 C48.93 414.21 49.67 406.87 50.41 399.53 C50.79 395.64 51.19 391.76 51.58 387.87 C51.95 384.21 52.32 380.55 52.68 376.89 C52.88 374.91 53.08 372.94 53.28 370.96 C53.84 365.35 54.34 359.84 54.17 354.2 C53.84 354.85 53.51 355.49 53.17 356.15 C45.87 370.3 38.42 384.35 30.76 398.31 C27.79 403.72 24.86 409.15 21.92 414.58 C21.35 415.64 20.77 416.7 20.18 417.79 C18.85 420.26 17.51 422.73 16.17 425.2 C15.51 425.2 14.85 425.2 14.17 425.2 C13.45 423.83 13.45 423.83 12.71 422.43 C4.15 406.2 -4.43 389.99 -13.26 373.9 C-16.84 367.37 -20.34 360.79 -23.83 354.2 C-23.14 368.85 -21.58 383.42 -20.1 398.01 C-19.74 401.6 -19.38 405.2 -19.02 408.79 C-18.34 415.58 -17.65 422.36 -16.97 429.14 C-15.74 441.32 -14.51 453.51 -13.28 465.69 C-12.86 469.96 -12.42 474.23 -11.99 478.51 C-11.66 481.77 -11.33 485.03 -11.01 488.3 C-10.89 489.48 -10.77 490.66 -10.64 491.88 C-10.53 492.96 -10.43 494.03 -10.31 495.13 C-10.17 496.54 -10.17 496.54 -10.03 497.97 C-9.83 500.2 -9.83 500.2 -9.83 502.2 C-12.83 502.2 -12.83 502.2 -14.2 500.88 C-14.69 500.24 -15.19 499.61 -15.7 498.95 C-18.95 495.06 -22.46 491.66 -26.2 488.27 C-30.78 484.11 -35.23 479.88 -39.54 475.43 C-41.45 473.57 -43.4 471.84 -45.43 470.1 C-51.63 464.72 -57.29 458.78 -63.05 452.94 C-67.55 448.4 -72.09 444.02 -76.95 439.86 C-80.23 436.97 -83.26 433.83 -86.33 430.7 C-92.17 424.79 -92.17 424.79 -98.33 419.2 C-98.92 418.69 -99.51 418.18 -100.12 417.65 C-101.32 416.64 -102.53 415.64 -103.75 414.66 C-107.54 411.36 -109.24 408.7 -110.36 403.77 C-110.61 402.71 -110.85 401.64 -111.11 400.54 C-112.28 395.12 -113.41 389.69 -114.5 384.26 C-114.75 383.01 -115 381.77 -115.26 380.49 C-115.8 377.79 -116.34 375.1 -116.88 372.4 C-117.75 368.05 -118.62 363.71 -119.49 359.36 C-120.75 353.12 -122 346.88 -123.25 340.63 C-126.37 325.07 -129.5 309.52 -132.62 293.96 C-133.12 291.48 -133.62 289 -134.12 286.52 C-140.8 253.28 -147.56 220.05 -154.36 186.83 C-156.65 175.63 -158.94 164.43 -161.21 153.23 C-161.64 151.12 -162.07 149.01 -162.5 146.91 C-163.91 139.95 -165.32 133 -166.73 126.05 C-167.18 123.81 -167.63 121.57 -168.09 119.33 C-168.72 116.23 -169.34 113.13 -169.97 110.02 C-170.16 109.1 -170.35 108.18 -170.54 107.23 C-172.68 96.51 -172.68 96.51 -169.74 92 C-168.8 90.83 -167.85 89.67 -166.89 88.52 C-166.39 87.9 -165.89 87.29 -165.38 86.65 C-161.68 82.13 -157.84 77.74 -153.88 73.44 C-151.95 71.34 -150.11 69.19 -148.27 67.02 C-145.46 63.8 -142.48 60.98 -139.22 58.23 C-137.4 56.69 -135.61 55.12 -133.84 53.52 C-101.9 25 -60.93 7.65 -18.83 1.2 C-17.83 1.03 -16.83 0.85 -15.79 0.67 C-10.52 0.05 -5.31 0.02 0 0 Z M-28.83 11.2 C-29.73 11.39 -30.64 11.57 -31.57 11.75 C-51.36 15.78 -70.09 22.57 -87.83 32.2 C-88.49 32.55 -89.15 32.91 -89.83 33.27 C-104.86 41.27 -118.08 50.95 -130.83 62.2 C-131.33 62.64 -131.83 63.08 -132.35 63.53 C-140.74 70.9 -148.48 78.8 -155.83 87.2 C-157.02 88.55 -157.02 88.55 -158.24 89.93 C-160.62 92.91 -162.7 95.52 -162.99 99.42 C-161.94 108.71 -160.04 117.81 -158.16 126.96 C-157.78 128.85 -157.4 130.75 -157.01 132.64 C-155.97 137.79 -154.92 142.94 -153.87 148.08 C-152.74 153.58 -151.63 159.07 -150.51 164.57 C-148.36 175.15 -146.21 185.73 -144.05 196.31 C-142.33 204.73 -140.62 213.16 -138.9 221.58 C-138.66 222.77 -138.42 223.95 -138.17 225.17 C-136.95 231.16 -135.74 237.14 -134.52 243.13 C-132.34 253.88 -130.15 264.63 -127.93 275.37 C-126.72 281.25 -125.51 287.14 -124.3 293.02 C-124.06 294.17 -123.83 295.32 -123.58 296.5 C-120.46 311.74 -117.55 326.99 -114.84 342.31 C-113.79 348.15 -112.71 353.98 -111.63 359.82 C-110.8 364.29 -110.01 368.77 -109.29 373.27 C-105.57 396.3 -100.95 409.34 -81.83 424.2 C-77.69 427.71 -73.63 431.27 -69.83 435.14 C-68.84 436.14 -68.84 436.14 -67.83 437.16 C-66.49 438.52 -65.16 439.88 -63.83 441.24 C-60.59 444.52 -57.32 447.69 -53.83 450.7 C-48.89 454.95 -44.39 459.6 -39.83 464.24 C-33.83 470.31 -27.55 475.95 -20.83 481.2 C-20.64 473.21 -21.39 465.38 -22.21 457.43 C-22.35 455.95 -22.5 454.48 -22.65 453 C-22.97 449.83 -23.28 446.67 -23.61 443.5 C-24.11 438.49 -24.62 433.48 -25.12 428.47 C-26.09 418.74 -27.07 409.02 -28.05 399.29 C-29.3 386.9 -30.55 374.51 -31.79 362.12 C-32.29 357.14 -32.79 352.17 -33.3 347.19 C-33.61 344.09 -33.92 340.99 -34.23 337.9 C-34.38 336.46 -34.52 335.03 -34.67 333.6 C-34.87 331.64 -35.06 329.68 -35.26 327.72 C-35.37 326.62 -35.48 325.53 -35.59 324.4 C-35.84 320.99 -35.87 317.62 -35.83 314.2 C-35.38 315.06 -34.92 315.91 -34.46 316.79 C-32.33 320.8 -30.21 324.82 -28.08 328.83 C-27.69 329.56 -27.3 330.29 -26.9 331.04 C-22.18 339.94 -17.43 348.81 -12.58 357.64 C-7.17 367.48 -1.99 377.44 3.17 387.41 C6.77 394.38 10.46 401.3 14.17 408.2 C14.83 408.2 15.49 408.2 16.17 408.2 C16.5 407.56 16.83 406.92 17.17 406.26 C23.56 393.89 30.01 381.57 36.72 369.38 C40.81 361.92 44.74 354.4 48.65 346.85 C53.63 337.26 58.82 327.78 64.03 318.31 C65.12 316.29 66.15 314.26 67.17 312.2 C67.03 313.45 66.89 314.69 66.74 315.97 C66.12 321.62 65.56 327.29 65 332.95 C64.89 334.09 64.78 335.23 64.66 336.41 C64.29 340.18 63.92 343.95 63.55 347.71 C63.29 350.37 63.03 353.02 62.77 355.67 C62.16 361.94 61.54 368.22 60.92 374.49 C59.83 385.64 58.74 396.78 57.64 407.92 C57.2 412.43 56.76 416.93 56.32 421.43 C56.2 422.65 56.08 423.86 55.95 425.11 C55.72 427.51 55.48 429.91 55.25 432.31 C54.69 437.99 54.13 443.66 53.54 449.34 C53.26 452.07 52.98 454.81 52.7 457.55 C52.5 459.48 52.29 461.4 52.09 463.32 C51.48 469.32 51.01 475.18 51.17 481.2 C60.1 473.7 68.73 465.85 76.84 457.47 C78.78 455.58 80.76 453.82 82.81 452.06 C87.85 447.69 92.49 442.95 97.17 438.2 C103.62 431.65 110.08 425.24 117.29 419.52 C127.05 411.71 133.06 404.8 135.16 392.28 C135.39 391.09 135.62 389.89 135.86 388.67 C136.37 385.99 136.87 383.32 137.35 380.64 C138.23 375.86 139.18 371.09 140.13 366.32 C141.58 359.06 143.02 351.8 144.45 344.54 C144.63 343.61 144.81 342.68 145 341.72 C145.56 338.88 146.12 336.04 146.67 333.2 C155.03 290.54 155.03 290.54 159 272.3 C160.88 263.62 162.68 254.93 164.44 246.23 C164.58 245.54 164.72 244.85 164.87 244.13 C165.75 239.75 166.64 235.37 167.52 231 C168.82 224.58 170.11 218.17 171.4 211.76 C171.75 210.08 172.09 208.39 172.43 206.71 C174.84 194.75 177.28 182.8 179.73 170.85 C181.11 164.08 182.5 157.32 183.88 150.55 C184.83 145.86 185.8 141.17 186.76 136.48 C187.67 132.07 188.58 127.65 189.48 123.23 C189.81 121.6 190.14 119.98 190.48 118.35 C190.94 116.12 191.4 113.88 191.85 111.65 C192.11 110.4 192.36 109.15 192.63 107.86 C193.83 100.07 193.83 100.07 191.08 92.93 C190.15 91.88 189.2 90.84 188.23 89.83 C187.49 89 187.49 89 186.72 88.15 C185.7 87.02 184.68 85.9 183.64 84.79 C181.55 82.53 179.52 80.2 177.48 77.89 C170.22 69.92 162.62 62.92 154.17 56.2 C153.05 55.29 151.93 54.38 150.81 53.47 C132.81 38.9 112.13 27.58 90.17 20.2 C89.34 19.91 88.5 19.62 87.64 19.32 C85.5 18.58 83.34 17.89 81.17 17.2 C80.25 16.9 79.33 16.6 78.38 16.29 C70.53 13.77 62.72 11.96 54.61 10.52 C53.48 10.3 52.35 10.09 51.19 9.87 C24.86 5.07 -2.7 5.7 -28.83 11.2 Z M55.17 350.2 C56.17 352.2 56.17 352.2 56.17 352.2 Z " fill="#FAFAFA" transform="translate(295.828125,-0.203125)"/>
<path d="M0 0 C2.17 -0 4.34 -0.02 6.51 -0.04 C14.79 -0.07 22.67 0.5 30.81 2.19 C31.61 2.34 32.42 2.49 33.25 2.64 C50.08 5.81 65.49 10.44 80.81 18.19 C81.62 18.59 82.43 19 83.27 19.41 C103.21 29.42 121.4 41.14 137.78 56.37 C139.88 58.34 139.88 58.34 142.81 60.19 C142.81 60.85 142.81 61.51 142.81 62.19 C141.61 62.48 140.41 62.77 139.17 63.07 C130.33 65.23 121.54 67.5 112.81 70.06 C103.01 72.92 93.13 75.41 83.22 77.83 C82.09 78.1 80.95 78.38 79.78 78.67 C78.77 78.91 77.76 79.16 76.72 79.41 C74.67 79.96 72.63 80.59 70.61 81.27 C67.82 82.18 65.72 82.36 62.81 82.19 C62.53 83.06 62.25 83.94 61.96 84.84 C60.9 87.92 59.68 90.79 58.29 93.74 C57.79 94.81 57.29 95.88 56.77 96.99 C56.23 98.15 55.68 99.3 55.12 100.5 C53.93 103.04 52.74 105.58 51.56 108.12 C51.09 109.11 51.09 109.11 50.62 110.12 C47.23 117.39 43.93 124.69 40.62 132 C32.8 149.26 24.85 166.46 16.9 183.66 C13.82 190.31 10.75 196.97 7.68 203.62 C6.72 205.7 5.76 207.79 4.8 209.87 C4.41 210.71 4.02 211.55 3.62 212.42 C3.35 213 3.08 213.58 2.81 214.19 C2.15 214.19 1.49 214.19 0.81 214.19 C-9.55 191.66 -19.89 169.13 -30.19 146.58 C-31.9 142.83 -33.61 139.09 -35.32 135.35 C-36.02 133.82 -36.71 132.3 -37.41 130.77 C-39.11 127.04 -40.82 123.32 -42.55 119.6 C-45.58 113.06 -48.5 106.54 -51.05 99.79 C-54.72 88.64 -54.72 88.64 -62.91 81.05 C-66.51 79.99 -70.1 79.7 -73.83 79.44 C-78.04 78.98 -81.98 77.63 -86.01 76.37 C-95.65 73.53 -105.39 71.09 -115.16 68.72 C-122.94 66.82 -130.57 64.62 -138.19 62.19 C-126.57 37.23 -82.33 18.9 -58.26 9.81 C-56.58 9.25 -54.89 8.71 -53.19 8.19 C-52.13 7.85 -51.06 7.52 -49.96 7.17 C-33.33 2.2 -17.28 -0 0 0 Z M-122.19 55.19 C-122.85 56.18 -123.51 57.17 -124.19 58.19 C-116.87 60.76 -109.48 62.67 -101.94 64.5 C-92.33 66.86 -82.79 69.34 -73.29 72.14 C-72.53 72.37 -71.76 72.59 -70.98 72.83 C-69.84 73.18 -69.84 73.18 -68.68 73.54 C-66.13 74.26 -66.13 74.26 -63.18 74.57 C-58.44 75.3 -55.27 75.88 -52.14 79.67 C-50.28 83.05 -48.73 86.5 -47.26 90.06 C-46.67 91.38 -46.08 92.69 -45.49 94 C-44.28 96.72 -43.09 99.44 -41.92 102.18 C-40.33 105.89 -38.68 109.58 -37.01 113.26 C-34.89 117.96 -32.78 122.67 -30.68 127.39 C-26.73 136.28 -22.65 145.1 -18.57 153.94 C-11.95 168.28 -5.48 182.69 0.81 197.19 C1.47 197.19 2.13 197.19 2.81 197.19 C12.01 177.3 21.19 157.4 30.24 137.45 C30.85 136.11 31.45 134.77 32.06 133.44 C32.36 132.77 32.66 132.11 32.97 131.43 C36.75 123.09 40.56 114.76 44.37 106.44 C44.87 105.35 44.87 105.35 45.37 104.23 C45.7 103.53 46.02 102.82 46.35 102.09 C46.83 101.06 46.83 101.06 47.31 100 C47.93 98.65 48.55 97.3 49.19 95.95 C50.66 92.8 51.98 89.71 53.16 86.42 C56.32 78.06 56.32 78.06 60.46 75.62 C63.76 74.53 66.95 73.84 70.37 73.25 C72.81 72.72 75.25 72.2 77.68 71.67 C78.89 71.42 80.1 71.18 81.34 70.93 C86.24 69.88 91.01 68.5 95.81 67.06 C103.45 64.82 111.13 62.75 118.86 60.83 C122.29 59.96 124.83 59.17 127.81 57.19 C118.75 49.14 109.16 42.46 98.81 36.19 C98.09 35.75 97.38 35.32 96.64 34.87 C25.81 -7.53 -59.74 1.42 -122.19 55.19 Z " fill="#F3F6F9" transform="translate(309.1943359375,32.814697265625)"/>
<path d="M0 0 C0.66 0 1.32 0 2 0 C1.67 1.32 1.34 2.64 1 4 C1.99 4.33 2.98 4.66 4 5 C3.01 5.5 3.01 5.5 2 6 C-0.62 5.06 -0.62 5.06 -3 4 C-1.62 2 -1.62 2 0 0 Z " fill="#3194FC" transform="translate(188,87)"/>
<path d="M0 0 C0.33 0 0.66 0 1 0 C1 1.98 1 3.96 1 6 C-0.32 6.33 -1.64 6.66 -3 7 C-1.12 1.12 -1.12 1.12 0 0 Z " fill="#C7C7C7" transform="translate(363,311)"/>
</svg>
