<?xml version="1.0" encoding="UTF-8"?>
<svg version="1.1" xmlns="http://www.w3.org/2000/svg" width="50" height="50">
<path d="M0 0 C10.7065055 1.21664835 20.36469265 4.19819387 30 9 C30.763125 9.38027344 31.52625 9.76054687 32.3125 10.15234375 C32.869375 10.43207031 33.42625 10.71179687 34 11 C33.95875 11.99 33.9175 12.98 33.875 14 C33.8663706 18.25429298 34.85989406 21.90903162 36 26 C36.33716179 27.33237038 36.67154266 28.66545713 37 30 C23.55125285 38.81548975 23.55125285 38.81548975 16 40 C16 40.99 16 41.98 16 43 C15.01 43 14.02 43 13 43 C16.63 44.98 20.26 46.96 24 49 C24 49.33 24 49.66 24 50 C12.25234369 48.66503906 -0.07327941 45.61781373 -10 39 C-10.04574284 36.66711508 -10.03824623 34.33301986 -10 32 C-10.60760482 29.6505947 -11.27129528 27.31470912 -12 25 C-12.34761285 23.33625297 -12.68367313 21.6699779 -13 20 C-10.94047642 18.70337462 -8.87762943 17.41264273 -6.8125 16.125 C-6.23435547 15.76019531 -5.65621094 15.39539062 -5.06054688 15.01953125 C-0.81967313 12.38395999 3.28451728 10.57182757 8 9 C8 8.34 8 7.68 8 7 C9.32 7.66 10.64 8.32 12 9 C12 8.67 12 8.34 12 8 C10.39684735 6.98545875 8.76662695 6.01352751 7.125 5.0625 C4.42290214 3.49589911 2.21084598 2.21084598 0 0 Z M5 14 C6 16 6 16 6 16 Z M18 14 C18.33 14.99 18.66 15.98 19 17 C19 16.01 19 15.02 19 14 C18.67 14 18.34 14 18 14 Z M3 17 C4 19 4 19 4 19 Z M20 17 C21 19 21 19 21 19 Z M2 19 C3 22 3 22 3 22 Z M21 19 C22 22 22 22 22 22 Z M1 23 C1 24.65 1 26.3 1 28 C1.33 28 1.66 28 2 28 C2 26.35 2 24.7 2 23 C1.67 23 1.34 23 1 23 Z M22 23 C23 27 23 27 23 27 Z M21 28 C22 30 22 30 22 30 Z M2 29 C3 31 3 31 3 31 Z M3 31 C4 33 4 33 4 33 Z M20 31 C21 33 21 33 21 33 Z M4 33 C5 35 5 35 5 35 Z M18 34 C19 36 19 36 19 36 Z " fill="#141735" transform="translate(13,0)"/>
<path d="M0 0 C-1.06419684 2.21025497 -2.13239294 4.18535011 -3.5625 6.1875 C-5.84908476 10.66125278 -6.78477187 15.1883339 -5.41015625 20.11328125 C-1.06285876 29.72211476 6.84625958 34.48106486 16 39 C16 39.33 16 39.66 16 40 C4.25234369 38.66503906 -8.07327941 35.61781373 -18 29 C-18.04574284 26.66711508 -18.03824623 24.33301986 -18 22 C-18.60760482 19.6505947 -19.27129528 17.31470912 -20 15 C-20.34761285 13.33625297 -20.68367313 11.6699779 -21 10 C-18.94047642 8.70337462 -16.87762943 7.41264273 -14.8125 6.125 C-14.23435547 5.76019531 -13.65621094 5.39539063 -13.06054688 5.01953125 C-4.98366477 0 -4.98366477 0 0 0 Z " fill="#0F1836" transform="translate(21,10)"/>
<path d="M0 0 C6.22121638 2.63205308 10.62188009 6.69918414 13.3671875 12.82421875 C14.50316909 16.730032 14.23586187 20.14661045 13 24 C11.8113762 25.93831136 10.50943896 27.66131662 9.078125 29.42578125 C7.56596546 31.63375333 7.60685436 33.40523881 8 36 C2.41176736 34.64527694 -0.69001754 30.41886827 -4 26 C-6.21051647 22.16260178 -6.44597697 19.45976973 -6 15 C-4.5361275 11.18150239 -2.90170547 7.90170547 0 5 C0.16687448 2.41645782 0.16687448 2.41645782 0 0 Z " fill="#E70011" transform="translate(21,7)"/>
<path d="M0 0 C0.66 0.33 1.32 0.66 2 1 C1.2884375 1.6496875 1.2884375 1.6496875 0.5625 2.3125 C-1.23686957 4.02309613 -1.23686957 4.02309613 -2 7 C-2.99 6.67 -3.98 6.34 -5 6 C-3.86695008 2.60085025 -2.87481525 1.94745549 0 0 Z " fill="#A70C24" transform="translate(7,17)"/>
</svg>
