<?xml version="1.0" encoding="UTF-8"?>
<!-- Generator: https://ezgif.com/png-to-svg -->
<svg version="1.1" xmlns="http://www.w3.org/2000/svg" width="512" height="512" viewBox="103.38 -1.12 562.24 562.24" preserveAspectRatio="xMidYMid meet">
<path d="M0 0 C2 1 4 2 6 3 C6 3.66 6 4.32 6 5 C6.86 5.4 6.86 5.4 7.74 5.81 C10.06 7.03 12.03 8.4 14.12 9.98 C15.3 10.85 15.3 10.85 16.5 11.75 C17.32 12.37 18.15 12.99 19 13.62 C24.36 17.62 29.71 21.55 35.31 25.19 C48 33.49 60.4 43.3 70.17 54.93 C72.25 57.29 74.48 59.44 76.75 61.62 C82.33 67.13 87.01 73.18 91.75 79.4 C93.43 81.55 95.22 83.61 97 85.69 C120.03 114.52 131.1 153.28 127.19 189.81 C123.66 220.15 112.22 246.6 94 271 C93.51 271.65 93.03 272.31 92.53 272.98 C86.92 280.47 80.9 287.48 74.51 294.31 C62.69 306.89 62.69 306.89 59.72 323.46 C60.44 332.56 64.55 340.53 68.73 348.5 C70 351 70 351 71 354 C67.1 352.65 64.48 350.94 61.38 348.25 C56.34 344.04 51.16 340.08 45.88 336.19 C45.06 335.59 44.25 334.99 43.41 334.37 C39.46 331.48 35.49 328.63 31.45 325.86 C22.25 319.53 13.96 312.84 6 305 C5.25 304.27 5.25 304.27 4.49 303.53 C-1.28 297.92 -6.87 292.2 -12 286 C-12.42 285.49 -12.85 284.98 -13.28 284.46 C-35.39 257.72 -52.2 229.04 -56 194 C-56.08 193.33 -56.16 192.65 -56.24 191.96 C-60.58 153.77 -46.39 116.94 -25 86 C-24.01 84.51 -24.01 84.51 -23 83 C-22.34 83 -21.68 83 -21 83 C-20.73 82.42 -20.46 81.84 -20.18 81.24 C-16.61 74.47 -10.96 68.73 -6 62.94 C-5.48 62.33 -4.96 61.72 -4.42 61.09 C-1.68 57.91 1.12 54.81 4 51.75 C9.33 45.63 11.71 38.57 11.31 30.48 C10.23 21.91 6.5 14.66 2.52 7.1 C1.32 4.65 0.48 2.66 0 0 Z M35 70 C34.21 81.81 33.43 93.61 32.65 105.42 C32.29 110.9 31.93 116.38 31.56 121.86 C31.21 127.16 30.86 132.46 30.51 137.76 C30.38 139.77 30.25 141.78 30.11 143.8 C29.09 158.38 29.09 158.38 29 173 C28.25 173.11 27.51 173.23 26.74 173.34 C17.7 174.72 8.87 176.83 0 179 C2.55 181.55 4.38 181.72 7.88 182.51 C9.05 182.77 10.22 183.04 11.42 183.31 C12.64 183.58 13.86 183.85 15.12 184.12 C16.36 184.4 17.59 184.68 18.86 184.96 C21.9 185.65 24.95 186.33 28 187 C29.87 211.68 31.58 236.37 33.19 261.06 C33.23 261.76 33.28 262.45 33.32 263.17 C33.89 271.78 34.44 280.39 35 289 C35.33 289 35.66 289 36 289 C38.31 255.34 40.62 221.68 43 187 C51.58 185.02 60.16 183.04 69 181 C69.66 180.34 70.32 179.68 71 179 C66.73 177.99 62.46 177 58.19 176 C56.97 175.71 55.76 175.43 54.51 175.13 C53.34 174.86 52.18 174.59 50.98 174.31 C49.91 174.06 48.83 173.81 47.73 173.55 C44.97 172.9 44.97 172.9 42 173 C42.02 172.23 42.03 171.46 42.05 170.67 C42.16 159.79 41.45 149.01 40.69 138.16 C40.55 136.19 40.42 134.21 40.28 132.24 C39.93 127.09 39.58 121.93 39.22 116.78 C38.85 111.51 38.49 106.23 38.13 100.95 C37.43 90.64 36.72 80.32 36 70 C35.67 70 35.34 70 35 70 Z " fill="#D71A1C" transform="translate(349,105)"/>
<path d="M0 0 C8.83 1.41 17.18 4.15 25.62 7 C26.35 7.24 27.08 7.49 27.82 7.74 C47.97 14.51 67.17 22.87 86.25 32.21 C89.61 33.85 92.98 35.46 96.4 36.98 C105.61 41.07 114.28 45.93 122.94 51.06 C123.8 51.57 123.8 51.57 124.68 52.09 C131.19 55.95 137.52 59.95 143.68 64.34 C145.92 65.94 148.18 67.5 150.46 69.04 C161.86 76.74 173 84.74 184 93 C184.62 93.46 185.23 93.92 185.87 94.39 C193.94 100.44 201.64 106.87 209.25 113.49 C210.95 114.96 212.67 116.42 214.4 117.87 C229.74 130.79 243.94 144.84 258.12 159 C258.81 159.68 259.49 160.36 260.19 161.06 C267.02 167.86 273.76 174.65 280 182 C281.77 183.95 283.58 185.88 285.38 187.81 C289.65 192.44 293.69 197.2 297.64 202.12 C299.31 204.16 300.99 206.15 302.73 208.13 C310.48 216.95 317.43 226.2 324.32 235.7 C326.34 238.46 328.41 241.19 330.49 243.91 C337.78 253.48 344.51 263.4 351.21 273.38 C353.64 276.94 356.17 280.42 358.72 283.89 C360 286 360 286 360 289 C358.56 290.36 358.56 290.36 356.5 291.76 C355.73 292.29 354.96 292.83 354.16 293.38 C353.3 293.95 352.45 294.53 351.56 295.12 C350.68 295.73 349.79 296.34 348.87 296.97 C346.94 298.29 345.01 299.61 343.07 300.92 C339.94 303.04 336.82 305.18 333.7 307.32 C316.29 319.24 298.88 331.15 280.3 341.18 C276.1 343.5 271.96 345.9 267.81 348.31 C265.32 349.76 262.83 351.2 260.34 352.64 C258.88 353.49 257.42 354.34 255.96 355.18 C187.39 395 187.39 395 153 395 C153.55 391.14 155.19 389.55 158 386.94 C162.26 382.81 166.01 378.48 169.71 373.84 C171.19 372 172.71 370.19 174.26 368.41 C188.52 352 199.43 333.93 208 314 C208.35 313.2 208.7 312.39 209.06 311.56 C225.62 273.07 226.24 231.54 211.03 192.5 C209.16 187.96 207.14 183.5 205 179.08 C204.01 177.03 203.06 174.96 202.1 172.89 C195.17 158.17 185.61 145.24 175.36 132.67 C174.07 131.09 172.79 129.49 171.52 127.89 C164.67 119.51 157.07 111.86 149.44 104.19 C148.91 103.65 148.38 103.12 147.83 102.56 C140.89 95.57 133.72 89.15 126 83 C124.91 82.08 123.83 81.15 122.75 80.21 C114.35 72.89 105.47 66.31 96.45 59.78 C94.04 58.03 91.66 56.27 89.27 54.5 C81.54 48.79 73.84 43.51 65.4 38.88 C61.85 36.92 58.4 34.85 54.94 32.75 C39.89 23.68 24.65 15.1 8.91 7.28 C7.89 6.76 6.88 6.25 5.83 5.71 C4.92 5.26 4.01 4.81 3.08 4.34 C1 3 1 3 0 0 Z " fill="#151E3C" transform="translate(274,29)"/>
<path d="M0 0 C-3.27 3.86 -6.58 7.65 -10 11.38 C-21.26 23.88 -31.66 36.99 -41 51 C-41.41 51.61 -41.82 52.22 -42.24 52.84 C-57.81 76.76 -69.04 108.28 -70 137 C-70.04 138.12 -70.08 139.24 -70.12 140.39 C-70.79 178.18 -57.02 215.59 -35 246 C-34.52 246.67 -34.03 247.34 -33.54 248.03 C-28.03 255.63 -22.39 262.98 -15.99 269.86 C-14.22 271.76 -12.55 273.7 -10.88 275.69 C-5.49 281.89 0.48 287.56 6.32 293.33 C7.75 294.75 9.16 296.18 10.57 297.61 C13.38 300.37 16.32 302.95 19.31 305.5 C19.92 306.02 20.53 306.54 21.15 307.07 C61.06 340.93 105.87 369.25 153 392 C153 392.66 153 393.32 153 394 C148.07 393.39 143.39 392.42 138.62 391 C137.9 390.78 137.18 390.57 136.44 390.35 C106.36 381.16 77.9 368.37 50 354 C48.21 353.09 46.43 352.18 44.64 351.27 C31.13 344.34 17.92 336.74 5.58 327.85 C3.57 326.41 1.55 325.01 -0.49 323.62 C-14.09 314.39 -27.58 304.89 -40.2 294.34 C-42.4 292.5 -44.63 290.68 -46.87 288.88 C-53.68 283.4 -60.41 277.88 -66.86 271.96 C-68.81 270.17 -70.8 268.42 -72.81 266.69 C-84.07 256.84 -94.7 246.42 -105.22 235.8 C-108.05 232.94 -110.9 230.08 -113.77 227.26 C-117.33 223.76 -120.67 220.14 -123.93 216.36 C-126.01 213.98 -128.16 211.67 -130.31 209.36 C-135.33 203.99 -140.13 198.52 -144.74 192.79 C-146.75 190.31 -148.8 187.89 -150.88 185.47 C-157.37 177.92 -163.42 170.07 -169.4 162.12 C-170.9 160.13 -172.42 158.15 -173.93 156.17 C-179.92 148.31 -185.66 140.29 -191.31 132.19 C-191.97 131.25 -192.63 130.3 -193.31 129.33 C-204.74 112.82 -204.74 112.82 -208 106 C-200.04 99.33 -191.61 93.52 -183 87.75 C-181.6 86.81 -180.21 85.87 -178.81 84.93 C-176.09 83.1 -173.36 81.27 -170.63 79.44 C-167.68 77.46 -164.73 75.46 -161.78 73.46 C-153.69 67.97 -145.46 62.74 -137.12 57.62 C-136.2 57.05 -135.27 56.48 -134.31 55.89 C-128.57 52.4 -122.71 49.31 -116.67 46.34 C-113.52 44.76 -110.55 42.96 -107.56 41.06 C-28.08 -7.63 -28.08 -7.63 0 0 Z " fill="#151E3C" transform="translate(343,137)"/>
<path d="M0 0 C7.64 0.59 14.65 2.86 21.94 5.12 C24.65 5.96 27.36 6.79 30.07 7.61 C30.75 7.82 31.43 8.03 32.13 8.24 C37.16 9.77 42.22 11.17 47.3 12.52 C95.28 25.38 142.2 45.55 186.34 68.12 C189.63 69.81 192.94 71.47 196.26 73.11 C196.98 73.46 197.69 73.81 198.42 74.17 C199.77 74.84 201.13 75.51 202.49 76.17 C210.19 79.97 217.17 84.81 224 90 C223.55 90.85 223.55 90.85 223.1 91.72 C219.18 99.84 218.51 107.71 218.62 116.62 C218.64 117.81 218.65 119 218.66 120.22 C219.06 142 223.44 162.49 228.66 183.53 C229.85 188.34 230.96 193.16 232 198 C227.71 196.57 226.76 193.41 224.75 189.62 C223.94 188.15 223.14 186.68 222.33 185.21 C221.73 184.13 221.73 184.13 221.13 183.02 C210.64 164.2 196.2 147.18 181 132 C179.98 130.97 178.96 129.94 177.94 128.91 C174.91 125.85 171.88 122.79 168.84 119.73 C167.54 118.42 166.24 117.11 164.95 115.79 C157.28 108.03 149.58 100.75 141 94 C139.86 93.04 138.73 92.08 137.61 91.1 C130.25 84.73 122.61 78.9 114.7 73.22 C112.36 71.54 110.02 69.83 107.69 68.12 C106.37 67.17 106.37 67.17 105.02 66.2 C102.74 64.54 100.47 62.86 98.2 61.18 C85.53 51.83 72.34 43.36 59 35 C58.02 34.38 57.04 33.77 56.03 33.14 C50.04 29.39 44.03 25.68 38 22 C36.88 21.31 35.75 20.63 34.59 19.92 C27.21 15.52 19.57 11.69 11.85 7.91 C9.23 6.62 6.61 5.31 4 4 C3.22 3.61 2.43 3.22 1.62 2.81 C1.09 2.54 0.55 2.28 0 2 C0 1.34 0 0.68 0 0 Z " fill="#19223F" transform="translate(372,57)"/>
<path d="M0 0 C3.76 1.25 4 2.28 5.86 5.68 C6.41 6.66 6.96 7.64 7.53 8.66 C8.12 9.72 8.71 10.78 9.31 11.88 C13.87 19.89 18.58 27.65 24.06 35.06 C24.57 35.75 25.07 36.44 25.59 37.14 C35.87 50.76 47.68 63 59.76 75.02 C62.14 77.39 64.5 79.76 66.87 82.14 C74.61 89.89 82.35 97.27 91 104 C92.16 104.98 93.32 105.97 94.46 106.97 C100.66 112.35 106.94 117.16 113.75 121.76 C117.07 124.05 120.26 126.46 123.44 128.94 C140.14 141.94 157.89 153.36 175.76 164.67 C178.85 166.62 181.92 168.59 184.96 170.61 C191.93 175.24 199.02 179.16 206.54 182.8 C211.92 185.42 217.2 188.21 222.5 191 C223.44 191.49 224.38 191.99 225.35 192.5 C227.56 193.66 229.78 194.83 232 196 C232 196.66 232 197.32 232 198 C223.38 197.48 215.5 194.93 207.31 192.38 C205.82 191.91 204.33 191.46 202.84 191 C199.2 189.87 195.56 188.74 191.92 187.6 C190.23 187.07 188.54 186.55 186.85 186.02 C181.56 184.38 176.29 182.7 171.02 180.98 C168.22 180.07 165.41 179.17 162.6 178.27 C114.69 162.92 68.56 142.85 24.38 118.81 C23.62 118.4 22.86 118 22.08 117.57 C17.06 114.78 12.52 111.55 8 108 C8.31 107.38 8.63 106.75 8.95 106.11 C23.38 77.11 9.04 32.96 0.47 3.83 C0 2 0 2 0 0 Z " fill="#19223F" transform="translate(165,305)"/>
<path d="M0 0 C0.99 0.5 0.99 0.5 2 1 C1.57 1.39 1.15 1.78 0.71 2.19 C-21.1 22.24 -40.13 42.85 -48 72 C-51.37 68.8 -54.02 65.71 -56.44 61.75 C-59.15 57.34 -62 53.08 -65.03 48.88 C-65.35 48.26 -65.67 47.64 -66 47 C-64.73 43.2 -63.38 42.63 -60.08 40.43 C-58.47 39.35 -58.47 39.35 -56.83 38.25 C-55.64 37.46 -54.44 36.67 -53.25 35.88 C-52.02 35.05 -50.79 34.23 -49.57 33.41 C-46.88 31.6 -44.18 29.8 -41.48 28 C-34.06 23.04 -26.67 18.02 -19.27 13.02 C-15.22 10.28 -11.16 7.54 -7.11 4.8 C-6.39 4.31 -5.67 3.83 -4.93 3.33 C-3.28 2.22 -1.64 1.11 0 0 Z " fill="#CD1519" transform="translate(221,200)"/>
<path d="M0 0 C4.72 4.34 8.25 9.29 11.88 14.56 C12.48 15.41 13.09 16.26 13.71 17.14 C14.28 17.96 14.85 18.78 15.43 19.63 C15.95 20.37 16.47 21.12 17 21.88 C18 24 18 24 17.78 25.97 C16.81 28.5 15.82 29.19 13.56 30.67 C12.83 31.15 12.1 31.64 11.35 32.14 C10.55 32.65 9.76 33.16 8.93 33.69 C8.11 34.24 7.28 34.78 6.43 35.34 C3.77 37.09 1.11 38.83 -1.56 40.56 C-4.17 42.27 -6.77 43.98 -9.37 45.69 C-11.08 46.81 -12.8 47.94 -14.52 49.07 C-26.22 56.75 -37.74 64.68 -49 73 C-49.66 72.67 -50.32 72.34 -51 72 C-50.14 71.21 -49.29 70.43 -48.4 69.62 C-38.87 60.87 -30.04 52.19 -22 42 C-21.23 41.03 -20.46 40.05 -19.67 39.05 C-10.17 26.7 -4.49 14.8 0 0 Z " fill="#CD1519" transform="translate(596,288)"/>
</svg>
