<?xml version="1.0" encoding="UTF-8"?>
<!-- Generator: https://ezgif.com/webp-to-svg -->
<svg version="1.1" xmlns="http://www.w3.org/2000/svg" width="50" height="50">
<path d="M0 0 C9.33 0 18.67 0 28 0 C29.05 -0.09 29.05 -0.09 30.12 -0.18 C32.5 -0.32 34.64 -0.36 37 0 C39.31 2.38 39.31 2.38 41 5 C41.72 5.33 42.44 5.66 43.19 6 C43.79 6.33 44.38 6.66 45 7 C45.33 8.67 45.67 10.33 46 12 C47.97 13.36 47.97 13.36 50 14 C50 14.66 50 15.32 50 16 C47.92 16.14 45.83 16.23 43.75 16.31 C42.59 16.37 41.43 16.43 40.23 16.49 C37 16 37 16 34.58 13.48 C34.06 12.66 33.54 11.84 33 11 C33.49 13.48 33.49 13.48 34 16 C30.95 16.29 28.04 16.42 25 16 C22.62 13.81 22.62 13.81 21 11 C20.42 10.07 19.84 9.14 19.25 8.19 C18.84 7.47 18.43 6.74 18 6 C18.29 6.54 18.58 7.07 18.88 7.62 C20.17 10.35 21.09 13.13 22 16 C18.46 16.7 15.51 16.94 12 16 C9.72 13.39 8.24 10.78 6.67 7.7 C4.79 4.66 3.07 3.7 0 2 C0 1.34 0 0.68 0 0 Z M28 4 C28.66 5.32 29.32 6.64 30 8 C30.33 7.34 30.66 6.68 31 6 C30.67 5.34 30.34 4.68 30 4 C29.34 4 28.68 4 28 4 Z " fill="#FBEB0E" transform="translate(0,17)"/>
</svg>
