<?xml version="1.0" encoding="UTF-8"?>
<!-- Generator: https://ezgif.com/png-to-svg -->
<svg version="1.1" xmlns="http://www.w3.org/2000/svg" width="512" height="512" viewBox="0.32 0.435 255.36 255.36" preserveAspectRatio="xMidYMid meet">
<path d="M0 0 C7.77 -0.05 15.54 -0.08 23.31 -0.1 C26.92 -0.11 30.53 -0.13 34.14 -0.15 C37.62 -0.17 41.1 -0.18 44.58 -0.19 C46.56 -0.2 48.54 -0.21 50.51 -0.23 C51.71 -0.23 52.91 -0.23 54.15 -0.23 C55.74 -0.23 55.74 -0.23 57.36 -0.24 C61.78 0.16 64.65 3.28 68 6 C68.6 5.2 69.2 4.39 69.81 3.56 C72 1 72 1 75 0 C77.76 -0.1 80.49 -0.14 83.25 -0.13 C84.05 -0.13 84.86 -0.13 85.69 -0.14 C87.4 -0.14 89.11 -0.13 90.81 -0.13 C93.42 -0.13 96.03 -0.13 98.64 -0.14 C100.3 -0.14 101.96 -0.13 103.62 -0.13 C104.4 -0.13 105.18 -0.14 105.98 -0.14 C109.49 -0.12 112.62 0.06 116 1 C116 1.66 116 2.32 116 3 C118.33 4.21 120.5 5.17 123 6 C123.6 5.2 124.2 4.39 124.81 3.56 C127 1 127 1 130 0 C132.75 -0.11 135.46 -0.16 138.21 -0.17 C139.02 -0.17 139.82 -0.17 140.65 -0.18 C142.35 -0.18 144.06 -0.19 145.76 -0.19 C148.36 -0.19 150.96 -0.21 153.55 -0.22 C155.21 -0.23 156.87 -0.23 158.52 -0.23 C159.3 -0.24 160.07 -0.24 160.87 -0.25 C165.88 -0.23 169.91 0.08 173.7 3.55 C181 12.55 181 12.55 181 18 C181.66 18 182.32 18 183 18 C184.12 21.75 184.12 21.75 183 24 C183.66 24 184.32 24 185 24 C185.99 26.47 185.99 26.47 187 29 C187.91 28.79 188.81 28.59 189.75 28.38 C193.16 27.98 194.34 27.91 197 30 C198.25 32.62 198.25 32.62 199 35 C199.66 35 200.32 35 201 35 C203.28 38.42 203.3 39.84 203.31 43.88 C203.33 44.9 203.35 45.93 203.36 46.99 C203 50 203 50 201.42 52.63 C199.79 54.84 199.79 54.84 200.15 57.05 C201.11 59.24 202.24 61.14 203.56 63.12 C206 66.78 206 66.78 206 69 C206.66 69 207.32 69 208 69 C208 69.66 208 70.32 208 71 C208.66 71 209.32 71 210 71 C210.04 71.62 210.08 72.24 210.12 72.88 C210.56 73.93 210.56 73.93 211 75 C213.84 76.2 213.84 76.2 217 77 C220.83 78.66 220.83 78.66 222 81 C223.95 81.59 223.95 81.59 226 82 C226.66 82.33 227.32 82.66 228 83 C228 83.99 228 84.98 228 86 C220.13 86.09 212.27 86.16 204.4 86.21 C200.75 86.23 197.09 86.26 193.44 86.3 C189.91 86.35 186.39 86.37 182.86 86.38 C180.86 86.39 178.86 86.42 176.87 86.45 C175.65 86.45 174.43 86.45 173.17 86.45 C171.56 86.47 171.56 86.47 169.92 86.48 C166.27 85.88 164.61 84.58 162 82 C161.19 79.25 161.19 79.25 161 77 C160.34 77 159.68 77 159 77 C156 70.5 156 70.5 156 66 C155.34 66 154.68 66 154 66 C153.49 64.73 153 63.46 152.5 62.19 C152.08 61.13 152.08 61.13 151.66 60.04 C151 58 151 58 151 55 C150.34 54.67 149.68 54.34 149 54 C149.33 53.34 149.66 52.68 150 52 C149.34 52 148.68 52 148 52 C147.6 50.7 147.6 50.7 147.19 49.38 C146.1 46.04 146.1 46.04 144.58 43.19 C143.02 40.03 141.77 36.87 140.56 33.56 C138.74 28.71 136.66 24.43 134 20 C134 19.34 134 18.68 134 18 C133.34 18 132.68 18 132 18 C131.01 17.01 131.01 17.01 130 16 C129.34 16 128.68 16 128 16 C127.5 18.47 127.5 18.47 127 21 C127.66 21.33 128.32 21.66 129 22 C128.67 22.66 128.34 23.32 128 24 C128.66 24 129.32 24 130 24 C130.33 24.79 130.65 25.57 130.99 26.38 C133.3 31.93 135.62 37.48 138 43 C139 45.33 140 47.67 141 50 C141.28 50.61 141.56 51.22 141.86 51.86 C143.39 55.23 144 57.21 144 61 C144.66 61 145.32 61 146 61 C146.73 62.98 147.39 64.98 148 67 C147.67 67.66 147.34 68.32 147 69 C147.66 69 148.32 69 149 69 C155.34 81.41 155.34 81.41 154 86 C148.06 86.02 142.11 86.04 136.17 86.05 C134.14 86.06 132.12 86.07 130.1 86.08 C127.19 86.09 124.29 86.09 121.38 86.1 C120.47 86.1 119.57 86.11 118.63 86.11 C117.79 86.11 116.95 86.11 116.08 86.11 C114.97 86.12 114.97 86.12 113.83 86.12 C112 86 112 86 110 85 C110 84.34 110 83.68 110 83 C109.34 83 108.68 83 108 83 C107.6 81.86 107.6 81.86 107.19 80.69 C106.22 78.02 106.22 78.02 104.5 76.62 C102.61 74.58 102.32 73.02 101.81 70.31 C101.65 69.5 101.5 68.7 101.33 67.86 C101.17 66.94 101.17 66.94 101 66 C100.34 66 99.68 66 99 66 C98.71 64.93 98.42 63.85 98.12 62.75 C97.17 59.18 97.17 59.18 95.88 56.75 C95 55 95 55 95 52 C94.34 52 93.68 52 93 52 C92.72 51.29 92.44 50.58 92.15 49.86 C91 47 89.82 44.15 88.62 41.31 C86.63 36.55 84.69 31.76 82.8 26.96 C82.02 24.97 82.02 24.97 81 23 C81.33 22.34 81.66 21.68 82 21 C80.52 20.5 80.52 20.5 79 20 C79 19.34 79 18.68 79 18 C78.34 18 77.68 18 77 18 C77 17.34 77 16.68 77 16 C75.68 16 74.36 16 73 16 C73.87 23.71 76.77 29.93 80.31 36.71 C82.22 40.43 83.77 44 85 48 C84.5 48.99 84.5 48.99 84 50 C84.66 50 85.32 50 86 50 C86.41 51.13 86.83 52.27 87.25 53.44 C89.41 59.2 91.83 64.83 94.75 70.25 C96.05 73.11 96.27 74.9 96 78 C96.66 78 97.32 78 98 78 C99.12 83.75 99.12 83.75 98 86 C83.15 86 68.3 86 53 86 C52.01 84.02 51.02 82.04 50 80 C50.33 79.67 50.66 79.34 51 79 C50.56 78.64 50.12 78.28 49.67 77.91 C47.41 75.32 46.47 72.64 45.25 69.44 C44.8 68.28 44.35 67.12 43.89 65.93 C43 63 43 63 44 61 C43.34 61 42.68 61 42 61 C41.75 60.18 41.51 59.35 41.25 58.5 C40.04 55.12 38.58 52.09 36.9 48.93 C35.98 46.97 35.52 45.1 35 43 C34.01 41.33 33.01 39.66 32 38 C31.33 36.34 30.66 34.67 30 33 C27.2 26.51 23.45 21.67 18.83 16.32 C17 14 17 14 17 12 C16.28 11.73 15.56 11.46 14.81 11.19 C12 10 9.52 8.73 7 7 C7 6.34 7 5.68 7 5 C6.4 5.23 5.8 5.45 5.19 5.69 C3 6 3 6 1.25 4.75 C0 3 0 3 0 0 Z M190 71 C191 74 191 74 191 74 Z " fill="#EDDD0F" transform="translate(14,85)"/>
<path d="" fill="#000000" transform="translate(0,0)"/>
</svg>
