<?xml version="1.0" encoding="UTF-8"?>
<svg version="1.1" xmlns="http://www.w3.org/2000/svg" width="50" height="61">
<path d="M0 0 C0.99 0.66 1.98 1.32 3 2 C5.3381615 1.70241581 7.67182036 1.36760731 10 1 C12.3125 1.25 12.3125 1.25 14 2 C14.66 2.99 15.32 3.98 16 5 C17.32 5 18.64 5 20 5 C21.35439668 7.70879335 21.06501451 10.00933268 21 13 C21.66 13 22.32 13 23 13 C22.97679687 14.10859375 22.95359375 15.2171875 22.9296875 16.359375 C22.91092423 17.82290992 22.89272463 19.28645214 22.875 20.75 C22.85824219 21.47960937 22.84148438 22.20921875 22.82421875 22.9609375 C22.78927761 26.8044624 22.82500316 29.74606772 25 33 C21.21056172 36.61318533 21.21056172 36.61318533 19 38 C16.3125 37.6875 16.3125 37.6875 14 37 C13.01 37.66 12.02 38.32 11 39 C11.77085938 39.26554687 12.54171875 39.53109375 13.3359375 39.8046875 C14.84027344 40.33449219 14.84027344 40.33449219 16.375 40.875 C17.87160156 41.39707031 17.87160156 41.39707031 19.3984375 41.9296875 C22 43 22 43 24 45 C24.4140625 48.0390625 24.4140625 48.0390625 24.625 51.625 C24.69976562 52.81351563 24.77453125 54.00203125 24.8515625 55.2265625 C24.90054688 56.14179687 24.94953125 57.05703125 25 58 C21.73718826 60.17520782 20.7659092 60.28244319 17 60 C16.01 59.67 15.02 59.34 14 59 C12.0112527 59.03156742 10.02185054 59.06445807 8.03515625 59.16015625 C6 59 6 59 4.01953125 57.94140625 C1.44347566 56.7405757 0.32256757 57.1083229 -2.375 57.875 C-6.04289173 58.82504409 -9.20596605 59 -13 59 C-13.804375 59.350625 -14.60875 59.70125 -15.4375 60.0625 C-18.88259863 61.32290194 -21.45427403 60.69524039 -25 60 C-25.31674724 54.19296725 -25.56087855 47.89372136 -22 43 C-18.42732148 41.3348578 -14.88656749 40.57407703 -11 40 C-12.88115606 38.41979534 -12.88115606 38.41979534 -15 37 C-15.61875 37.20625 -16.2375 37.4125 -16.875 37.625 C-19 38 -19 38 -20.5859375 36.96484375 C-22.09829049 35.69034909 -23.55305253 34.34829196 -25 33 C-24.50886719 32.26523438 -24.50886719 32.26523438 -24.0078125 31.515625 C-22.58227411 27.95730437 -22.78845652 24.51796989 -22.875 20.75 C-22.88853516 19.63238281 -22.88853516 19.63238281 -22.90234375 18.4921875 C-22.92581642 16.66131941 -22.96168475 14.83061762 -23 13 C-22.34 13 -21.68 13 -21 13 C-21.020625 12.05125 -21.04125 11.1025 -21.0625 10.125 C-21 7 -21 7 -20 5 C-18.35 5 -16.7 5 -15 5 C-14.67 4.01 -14.34 3.02 -14 2 C-9.24815619 -0.20207396 -5.12928977 -0.33634687 0 0 Z " fill="#D64AF7" transform="translate(25,0)"/>
<path d="M0 0 C2.64 0.33 5.28 0.66 8 1 C4.67692308 4.93846154 4.67692308 4.93846154 1.25 5.25 C0.5075 5.1675 -0.235 5.085 -1 5 C-1 5.99 -1 6.98 -1 8 C-0.34 7.67 0.32 7.34 1 7 C2.54023996 6.93049459 4.08334988 6.91547643 5.625 6.9375 C6.85089844 6.95103516 6.85089844 6.95103516 8.1015625 6.96484375 C9.04128906 6.98224609 9.04128906 6.98224609 10 7 C10 6.01 10 5.02 10 4 C10.66 4 11.32 4 12 4 C12.33 4.99 12.66 5.98 13 7 C14.32 6.67 15.64 6.34 17 6 C17 6.66 17 7.32 17 8 C17.66 8 18.32 8 19 8 C19.33 6.35 19.66 4.7 20 3 C21.32 2.67 22.64 2.34 24 2 C24.495 2.99 24.495 2.99 25 4 C24.67 4.66 24.34 5.32 24 6 C23.34 6 22.68 6 22 6 C22 6.66 22 7.32 22 8 C23.65 7.67 25.3 7.34 27 7 C26.34 7.99 25.68 8.98 25 10 C24.34 10 23.68 10 23 10 C22.67 10.66 22.34 11.32 22 12 C21.505 10.515 21.505 10.515 21 9 C19.68381002 9.78551657 18.37214772 10.5786237 17.0625 11.375 C16.33160156 11.81585938 15.60070313 12.25671875 14.84765625 12.7109375 C12.86227728 13.8773984 12.86227728 13.8773984 12 16 C13.2065625 15.87625 13.2065625 15.87625 14.4375 15.75 C19.17062009 16.08214878 23.00416621 17.42584181 27 20 C28 22.3125 28 22.3125 28 25 C28.185625 26.258125 28.37125 27.51625 28.5625 28.8125 C28.706875 29.864375 28.85125 30.91625 29 32 C27.35 32.66 25.7 33.32 24 34 C23.34 33.34 22.68 32.68 22 32 C19.22308229 31.85895021 16.50355761 32.00523741 13.7265625 32.125 C10.912545 31.9959906 9.38252864 31.44532543 7 30 C6.34 30.66 5.68 31.32 5 32 C4.01 32 3.02 32 2 32 C1.67 31.34 1.34 30.68 1 30 C0.443125 30.515625 -0.11375 31.03125 -0.6875 31.5625 C-3.65557831 33.40752165 -4.69542961 32.74352834 -8 32 C-10.26857146 32.84077872 -10.26857146 32.84077872 -12 34 C-12 33.34 -12 32.68 -12 32 C-12.66 32 -13.32 32 -14 32 C-14 32.99 -14 33.98 -14 35 C-15.65 34.67 -17.3 34.34 -19 34 C-18.04049136 22.63739763 -18.04049136 22.63739763 -16 19 C-13.15409259 18.00393241 -10.92243005 17.41671688 -8 17 C-6.845 16.79375 -5.69 16.5875 -4.5 16.375 C-3.675 16.25125 -2.85 16.1275 -2 16 C-4.75166435 12.94259517 -7.01864192 11.15249839 -11 10 C-11.99 10.495 -11.99 10.495 -13 11 C-13.99 10.67 -14.98 10.34 -16 10 C-16.33 9.01 -16.66 8.02 -17 7 C-15.35 7.33 -13.7 7.66 -12 8 C-12 7.34 -12 6.68 -12 6 C-12.66 6 -13.32 6 -14 6 C-14.33 5.01 -14.66 4.02 -15 3 C-14.34 2.67 -13.68 2.34 -13 2 C-12.01 2.33 -11.02 2.66 -10 3 C-9.67 4.65 -9.34 6.3 -9 8 C-7.68 7.67 -6.36 7.34 -5 7 C-5 7.99 -5 8.98 -5 10 C-4.01 10 -3.02 10 -2 10 C-2 8.02 -2 6.04 -2 4 C-1.01 4 -0.02 4 1 4 C0.67 2.68 0.34 1.36 0 0 Z " fill="#3C0B56" transform="translate(20,25)"/>
<path d="M0 0 C0.99 0.66 1.98 1.32 3 2 C5.3381615 1.70241581 7.67182036 1.36760731 10 1 C12.3125 1.25 12.3125 1.25 14 2 C14.66 2.99 15.32 3.98 16 5 C17.32 5 18.64 5 20 5 C21.35439668 7.70879335 21.06501451 10.00933268 21 13 C21.66 13 22.32 13 23 13 C22.97679687 14.10859375 22.95359375 15.2171875 22.9296875 16.359375 C22.91092423 17.82290992 22.89272463 19.28645214 22.875 20.75 C22.85824219 21.47960937 22.84148438 22.20921875 22.82421875 22.9609375 C22.78927761 26.8044624 22.82500316 29.74606772 25 33 C21.21056172 36.61318533 21.21056172 36.61318533 19 38 C16.3125 37.6875 16.3125 37.6875 14 37 C13.01 37.66 12.02 38.32 11 39 C11.77085938 39.26554687 12.54171875 39.53109375 13.3359375 39.8046875 C14.84027344 40.33449219 14.84027344 40.33449219 16.375 40.875 C17.87160156 41.39707031 17.87160156 41.39707031 19.3984375 41.9296875 C22 43 22 43 24 45 C24.4140625 48.0390625 24.4140625 48.0390625 24.625 51.625 C24.69976562 52.81351563 24.77453125 54.00203125 24.8515625 55.2265625 C24.90054688 56.14179687 24.94953125 57.05703125 25 58 C21.73718826 60.17520782 20.7659092 60.28244319 17 60 C16.01 59.67 15.02 59.34 14 59 C12.0112527 59.03156742 10.02185054 59.06445807 8.03515625 59.16015625 C6 59 6 59 4.01953125 57.94140625 C1.44347566 56.7405757 0.32256757 57.1083229 -2.375 57.875 C-6.04289173 58.82504409 -9.20596605 59 -13 59 C-13.804375 59.350625 -14.60875 59.70125 -15.4375 60.0625 C-18.88259863 61.32290194 -21.45427403 60.69524039 -25 60 C-25.31674724 54.19296725 -25.56087855 47.89372136 -22 43 C-18.42732148 41.3348578 -14.88656749 40.57407703 -11 40 C-12.88115606 38.41979534 -12.88115606 38.41979534 -15 37 C-15.61875 37.20625 -16.2375 37.4125 -16.875 37.625 C-19 38 -19 38 -20.5859375 36.96484375 C-22.09829049 35.69034909 -23.55305253 34.34829196 -25 33 C-24.50886719 32.26523438 -24.50886719 32.26523438 -24.0078125 31.515625 C-22.58227411 27.95730437 -22.78845652 24.51796989 -22.875 20.75 C-22.88853516 19.63238281 -22.88853516 19.63238281 -22.90234375 18.4921875 C-22.92581642 16.66131941 -22.96168475 14.83061762 -23 13 C-22.34 13 -21.68 13 -21 13 C-21.020625 12.05125 -21.04125 11.1025 -21.0625 10.125 C-21 7 -21 7 -20 5 C-18.35 5 -16.7 5 -15 5 C-14.67 4.01 -14.34 3.02 -14 2 C-9.24815619 -0.20207396 -5.12928977 -0.33634687 0 0 Z M-7 3 C-7 4.65 -7 6.3 -7 8 C-7.99 8.495 -7.99 8.495 -9 9 C-8.67 9.99 -8.34 10.98 -8 12 C-6.35 11.67 -4.7 11.34 -3 11 C-3.33 11.99 -3.66 12.98 -4 14 C-4.66 13.67 -5.32 13.34 -6 13 C-6 13.66 -6 14.32 -6 15 C-11.75 10.25 -11.75 10.25 -14 8 C-14.33 9.32 -14.66 10.64 -15 12 C-15.99 11.01 -16.98 10.02 -18 9 C-17.7215625 10.175625 -17.7215625 10.175625 -17.4375 11.375 C-17 14 -17 14 -18 16 C-18.66 16 -19.32 16 -20 16 C-19.67 17.32 -19.34 18.64 -19 20 C-18.34 20 -17.68 20 -17 20 C-17 20.66 -17 21.32 -17 22 C-17.66 22 -18.32 22 -19 22 C-18.67 22.99 -18.34 23.98 -18 25 C-16.35 25 -14.7 25 -13 25 C-13.33 26.65 -13.66 28.3 -14 30 C-12.02 30 -10.04 30 -8 30 C-8 29.34 -8 28.68 -8 28 C-8.66 27.67 -9.32 27.34 -10 27 C-8.68 27.33 -7.36 27.66 -6 28 C-6.33 28.33 -6.66 28.66 -7 29 C-7.04080783 30.99958364 -7.04254356 33.00045254 -7 35 C-7.99 35 -8.98 35 -10 35 C-10 34.01 -10 33.02 -10 32 C-11.32 32.33 -12.64 32.66 -14 33 C-14.33 31.35 -14.66 29.7 -15 28 C-16.32 27.67 -17.64 27.34 -19 27 C-19.33 27.66 -19.66 28.32 -20 29 C-19.67 29.66 -19.34 30.32 -19 31 C-18.34 31 -17.68 31 -17 31 C-17 31.66 -17 32.32 -17 33 C-18.65 32.67 -20.3 32.34 -22 32 C-21.67 32.99 -21.34 33.98 -21 35 C-18.17884816 36.07009208 -16.09455459 36 -13 36 C-8.296875 38.40625 -8.296875 38.40625 -7 41 C-8.2065625 41.1546875 -8.2065625 41.1546875 -9.4375 41.3125 C-13.78247386 42.15100373 -17.83457527 43.52821659 -22 45 C-22.33820166 46.5823006 -22.67035939 48.16589375 -23 49.75 C-23.185625 50.63171875 -23.37125 51.5134375 -23.5625 52.421875 C-24.11153675 55.22143965 -24.11153675 55.22143965 -24 59 C-22.35 59.33 -20.7 59.66 -19 60 C-19 59.01 -19 58.02 -19 57 C-18.34 57 -17.68 57 -17 57 C-17 57.66 -17 58.32 -17 59 C-16.071875 58.649375 -15.14375 58.29875 -14.1875 57.9375 C-11 57 -11 57 -8 58 C-5.80961577 56.62831762 -5.80961577 56.62831762 -4 55 C-3.67 55.66 -3.34 56.32 -3 57 C-2.13375 56.7525 -2.13375 56.7525 -1.25 56.5 C1 56 1 56 5 56 C5.495 56.495 5.495 56.495 6 57 C8.7835375 57.03173414 11.55391063 56.93159925 14.3359375 56.83984375 C17 57 17 57 20 59 C21.32 58.34 22.64 57.68 24 57 C24.15149298 53.37114676 24.15149298 53.37114676 23 50 C23 49.21625 23 48.4325 23 47.625 C21.76353203 44.37927159 20.88414763 44.13328389 17.8125 42.6875 C14.08816345 41.20609457 11.04325239 40.58530745 7 41 C9.75520215 38.04070881 12.46627288 35.96318174 16 34 C16.495 35.485 16.495 35.485 17 37 C17.495 36.01 17.495 36.01 18 35 C20.0625 33.875 20.0625 33.875 22 33 C21.34 32.67 20.68 32.34 20 32 C19.01 32.33 18.02 32.66 17 33 C17 32.34 17 31.68 17 31 C17.66 31 18.32 31 19 31 C19 30.34 19 29.68 19 29 C19.99 28.67 20.98 28.34 22 28 C21.91621094 27.24074219 21.83242188 26.48148438 21.74609375 25.69921875 C21.59333984 24.20841797 21.59333984 24.20841797 21.4375 22.6875 C21.28087891 21.20830078 21.28087891 21.20830078 21.12109375 19.69921875 C21 17 21 17 22 14 C21.34 14 20.68 14 20 14 C19.505 10.04 19.505 10.04 19 6 C18.34 6 17.68 6 17 6 C17 6.66 17 7.32 17 8 C15.7315625 6.7625 15.7315625 6.7625 14.4375 5.5 C11.67546865 3.15985411 10.99951809 2.99996114 7.125 2.6875 C6.09375 2.790625 5.0625 2.89375 4 3 C4 3.66 4 4.32 4 5 C3.01 5.33 2.02 5.66 1 6 C0.67 5.01 0.34 4.02 0 3 C-1.97536745 3.34786708 -1.97536745 3.34786708 -4 4 C-4.33 4.66 -4.66 5.32 -5 6 C-5.66 5.01 -6.32 4.02 -7 3 Z " fill="#A42BA6" transform="translate(25,0)"/>
<path d="M0 0 C7.26153846 -0.61538462 7.26153846 -0.61538462 11 2.5 C11.66 3.325 12.32 4.15 13 5 C13 4.34 13 3.68 13 3 C13.66 3 14.32 3 15 3 C15.33 5.64 15.66 8.28 16 11 C16.66 11 17.32 11 18 11 C17.814375 12.010625 17.62875 13.02125 17.4375 14.0625 C17.00231753 17.97914227 17.29146979 21.14244663 18 25 C15.66666667 25 13.33333333 25 11 25 C10.67 26.65 10.34 28.3 10 30 C9.34 30 8.68 30 8 30 C8 29.34 8 28.68 8 28 C6.35 28.66 4.7 29.32 3 30 C3 28.68 3 27.36 3 26 C2.34 25.67 1.68 25.34 1 25 C3 22 3 22 6 21 C5.89207179 18.0957107 5.89207179 18.0957107 5 15 C2.59141286 13.1375562 2.59141286 13.1375562 0 12 C-1 11 -1 11 -1.0625 7.9375 C-1.041875 6.968125 -1.02125 5.99875 -1 5 C-1.66 5 -2.32 5 -3 5 C-3 5.66 -3 6.32 -3 7 C-4.32 6.67 -5.64 6.34 -7 6 C-6.67 4.35 -6.34 2.7 -6 1 C-5.34 1 -4.68 1 -4 1 C-3.67 1.66 -3.34 2.32 -3 3 C-2.01 2.67 -1.02 2.34 0 2 C0 1.34 0 0.68 0 0 Z " fill="#B60EEC" transform="translate(29,3)"/>
<path d="M0 0 C2.64 0.33 5.28 0.66 8 1 C4.67692308 4.93846154 4.67692308 4.93846154 1.25 5.25 C0.5075 5.1675 -0.235 5.085 -1 5 C-1 5.99 -1 6.98 -1 8 C-0.34 7.67 0.32 7.34 1 7 C2.54023996 6.93049459 4.08334988 6.91547643 5.625 6.9375 C6.85089844 6.95103516 6.85089844 6.95103516 8.1015625 6.96484375 C9.04128906 6.98224609 9.04128906 6.98224609 10 7 C10 6.01 10 5.02 10 4 C10.66 4 11.32 4 12 4 C12.33 4.99 12.66 5.98 13 7 C14.32 6.67 15.64 6.34 17 6 C17 6.66 17 7.32 17 8 C17.66 8 18.32 8 19 8 C19.33 6.35 19.66 4.7 20 3 C21.32 2.67 22.64 2.34 24 2 C24.495 2.99 24.495 2.99 25 4 C24.67 4.66 24.34 5.32 24 6 C23.34 6 22.68 6 22 6 C22 6.66 22 7.32 22 8 C23.65 7.67 25.3 7.34 27 7 C26.34 7.99 25.68 8.98 25 10 C24.34 10 23.68 10 23 10 C22.67 10.66 22.34 11.32 22 12 C21.505 10.515 21.505 10.515 21 9 C19.68381002 9.78551657 18.37214772 10.5786237 17.0625 11.375 C16.33160156 11.81585938 15.60070313 12.25671875 14.84765625 12.7109375 C12.86227728 13.8773984 12.86227728 13.8773984 12 16 C3.585 16.495 3.585 16.495 -5 17 C-4.01 16.67 -3.02 16.34 -2 16 C-4.75166435 12.94259517 -7.01864192 11.15249839 -11 10 C-11.99 10.495 -11.99 10.495 -13 11 C-13.99 10.67 -14.98 10.34 -16 10 C-16.33 9.01 -16.66 8.02 -17 7 C-14.525 7.495 -14.525 7.495 -12 8 C-12 7.34 -12 6.68 -12 6 C-12.66 6 -13.32 6 -14 6 C-14.33 5.01 -14.66 4.02 -15 3 C-14.34 2.67 -13.68 2.34 -13 2 C-12.01 2.33 -11.02 2.66 -10 3 C-9.67 4.65 -9.34 6.3 -9 8 C-7.68 7.67 -6.36 7.34 -5 7 C-5 7.99 -5 8.98 -5 10 C-4.01 10 -3.02 10 -2 10 C-2 8.02 -2 6.04 -2 4 C-1.01 4 -0.02 4 1 4 C0.67 2.68 0.34 1.36 0 0 Z " fill="#664C76" transform="translate(20,25)"/>
<path d="M0 0 C5.64037358 -0.57849985 10.28569466 0.96299488 15 4 C16 6.3125 16 6.3125 16 9 C16.185625 10.258125 16.37125 11.51625 16.5625 12.8125 C16.706875 13.864375 16.85125 14.91625 17 16 C15.35 16.66 13.7 17.32 12 18 C11.34 17.34 10.68 16.68 10 16 C7.39613785 15.8328049 7.39613785 15.8328049 4.5 16 C1.53125 16.125 1.53125 16.125 -1 16 C-3 14 -3 14 -3.1953125 10.9609375 C-3.17210938 9.77757812 -3.14890625 8.59421875 -3.125 7.375 C-3.10695313 6.18648437 -3.08890625 4.99796875 -3.0703125 3.7734375 C-3.04710938 2.85820313 -3.02390625 1.94296875 -3 1 C-2.34 1 -1.68 1 -1 1 C-1 2.65 -1 4.3 -1 6 C-0.34 6 0.32 6 1 6 C0.67 4.02 0.34 2.04 0 0 Z " fill="#5F0D8B" transform="translate(32,41)"/>
<path d="M0 0 C0.99 0.66 1.98 1.32 3 2 C5.3381615 1.70241581 7.67182036 1.36760731 10 1 C12.3125 1.25 12.3125 1.25 14 2 C14.99 3.485 14.99 3.485 16 5 C17.32 5 18.64 5 20 5 C21.35439668 7.70879335 21.06501451 10.00933268 21 13 C21.66 13 22.32 13 23 13 C22.97679687 14.10859375 22.95359375 15.2171875 22.9296875 16.359375 C22.91092423 17.82290992 22.89272463 19.28645214 22.875 20.75 C22.85824219 21.47960937 22.84148438 22.20921875 22.82421875 22.9609375 C22.78927761 26.8044624 22.82500316 29.74606772 25 33 C21.21056172 36.61318533 21.21056172 36.61318533 19 38 C16.3125 37.6875 16.3125 37.6875 14 37 C13.01 37.66 12.02 38.32 11 39 C11.77085938 39.26554687 12.54171875 39.53109375 13.3359375 39.8046875 C14.84027344 40.33449219 14.84027344 40.33449219 16.375 40.875 C17.87160156 41.39707031 17.87160156 41.39707031 19.3984375 41.9296875 C22 43 22 43 24 45 C24.4140625 48.0390625 24.4140625 48.0390625 24.625 51.625 C24.69976562 52.81351563 24.77453125 54.00203125 24.8515625 55.2265625 C24.90054688 56.14179687 24.94953125 57.05703125 25 58 C21.73718826 60.17520782 20.7659092 60.28244319 17 60 C15.515 59.505 15.515 59.505 14 59 C12.700625 59.020625 11.40125 59.04125 10.0625 59.0625 C6.82302522 59.11005192 4.77234975 58.81269022 2 57 C1.34 56.67 0.68 56.34 0 56 C1.32 55.34 2.64 54.68 4 54 C4.66 54.66 5.32 55.32 6 56 C8.80940335 56.14069 11.56161862 55.99471132 14.37109375 55.875 C17 56 17 56 20 58 C22.15274948 57.69159401 22.15274948 57.69159401 24 57 C23.690625 55.948125 23.38125 54.89625 23.0625 53.8125 C22 50 22 50 21.875 47.25 C21.23519396 44.90876653 21.23519396 44.90876653 19.37109375 44.0625 C15.34001119 42.47148449 11.30528725 41.53816091 7 41 C8.3418344 36.97449681 10.4227573 36.11714364 14 34 C14.66 34 15.32 34 16 34 C16.33 34.66 16.66 35.32 17 36 C17.99 35.01 18.98 34.02 20 33 C19.01 33 18.02 33 17 33 C17 32.34 17 31.68 17 31 C17.66 31 18.32 31 19 31 C19 30.34 19 29.68 19 29 C19.66 28.67 20.32 28.34 21 28 C20.90460937 27.24074219 20.80921875 26.48148438 20.7109375 25.69921875 C20.60007813 24.70535156 20.48921875 23.71148438 20.375 22.6875 C20.25898437 21.70136719 20.14296875 20.71523438 20.0234375 19.69921875 C20 17 20 17 22 14 C21.01 14.33 20.02 14.66 19 15 C19 12.03 19 9.06 19 6 C18.34 6 17.68 6 17 6 C17 6.66 17 7.32 17 8 C14.50638429 6.79618552 12.31856917 5.54571278 10 4 C8.0103005 3.60986284 6.00980131 3.26797351 4 3 C4 3.66 4 4.32 4 5 C3.34 5 2.68 5 2 5 C1.67 5.66 1.34 6.32 1 7 C0.67 5.35 0.34 3.7 0 2 C-1.258125 2.12375 -2.51625 2.2475 -3.8125 2.375 C-4.52019531 2.44460938 -5.22789063 2.51421875 -5.95703125 2.5859375 C-8.29988142 2.92665391 -8.29988142 2.92665391 -11 5 C-11 4.34 -11 3.68 -11 3 C-11.66 3 -12.32 3 -13 3 C-13.33 4.32 -13.66 5.64 -14 7 C-14.33 6.34 -14.66 5.68 -15 5 C-14.67 4.01 -14.34 3.02 -14 2 C-9.24815619 -0.20207396 -5.12928977 -0.33634687 0 0 Z " fill="#E1E2E1" transform="translate(25,0)"/>
<path d="M0 0 C0.66 0.99 1.32 1.98 2 3 C2.66 2.01 3.32 1.02 4 0 C4.99 0.33 5.98 0.66 7 1 C6.01 1.495 6.01 1.495 5 2 C4.34786708 4.02463255 4.34786708 4.02463255 4 6 C5.32 6.33 6.64 6.66 8 7 C8 6.34 8 5.68 8 5 C8.99 4.67 9.98 4.34 11 4 C10.34 7.3 9.68 10.6 9 14 C4.4221205 14.9155759 2.39077603 14.76361322 -2 14 C-2.99 14.33 -3.98 14.66 -5 15 C-4.55296014 19.47883696 -4.55296014 19.47883696 -2 23 C-2.33 23.33 -2.66 23.66 -3 24 C-2.34 24.33 -1.68 24.66 -1 25 C-1 25.66 -1 26.32 -1 27 C-2.98 27 -4.96 27 -7 27 C-6.67 25.35 -6.34 23.7 -6 22 C-7.65 22 -9.3 22 -11 22 C-11.33 21.01 -11.66 20.02 -12 19 C-11.34 19 -10.68 19 -10 19 C-10 18.34 -10 17.68 -10 17 C-10.99 16.67 -11.98 16.34 -13 16 C-13 15.01 -13 14.02 -13 13 C-12.34 13 -11.68 13 -11 13 C-11 12.01 -11 11.02 -11 10 C-10.6937566 8.66018514 -10.36548445 7.32488113 -10 6 C-9.34 6.66 -8.68 7.32 -8 8 C-7.67 7.01 -7.34 6.02 -7 5 C-5.8553125 6.175625 -5.8553125 6.175625 -4.6875 7.375 C-2.09108195 10.07257717 -2.09108195 10.07257717 1 12 C1.33 11.34 1.66 10.68 2 10 C2.33 10.33 2.66 10.66 3 11 C3.33 10.01 3.66 9.02 4 8 C2.35 8.33 0.7 8.66 -1 9 C-1.33 8.01 -1.66 7.02 -2 6 C-1.34 5.67 -0.68 5.34 0 5 C0 3.35 0 1.7 0 0 Z " fill="#D51CE6" transform="translate(18,3)"/>
<path d="M0 0 C0.33 0 0.66 0 1 0 C1.33 2.64 1.66 5.28 2 8 C1.01 7.67 0.02 7.34 -1 7 C-0.67 7.66 -0.34 8.32 0 9 C0.07065617 11.04055005 0.08421976 13.08334257 0.0625 15.125 C0.05347656 16.22070312 0.04445313 17.31640625 0.03515625 18.4453125 C0.02355469 19.28835937 0.01195312 20.13140625 0 21 C0.66 21.33 1.32 21.66 2 22 C2 22.66 2 23.32 2 24 C2.66 24 3.32 24 4 24 C4 24.66 4 25.32 4 26 C2.68 26 1.36 26 0 26 C0 26.66 0 27.32 0 28 C1.010625 27.731875 2.02125 27.46375 3.0625 27.1875 C7.73207027 26.96513951 9.1487799 27.94049271 12.71484375 30.67578125 C14 32 14 32 14 34 C12.80375 34.474375 11.6075 34.94875 10.375 35.4375 C9.70210937 35.70433594 9.02921875 35.97117188 8.3359375 36.24609375 C6 37 6 37 0 38 C-0.99 42.62 -1.98 47.24 -3 52 C-1.35 52.33 0.3 52.66 2 53 C2 52.01 2 51.02 2 50 C2.66 50 3.32 50 4 50 C4 50.66 4 51.32 4 52 C4.556875 51.484375 5.11375 50.96875 5.6875 50.4375 C8 49 8 49 10.4375 49.5 C13.12922291 50.29885234 13.12922291 50.29885234 15.8125 48.5625 C16.534375 48.046875 17.25625 47.53125 18 47 C18 47.99 18 48.98 18 50 C19.485 50.495 19.485 50.495 21 51 C20.11957031 51.04898438 19.23914063 51.09796875 18.33203125 51.1484375 C17.17058594 51.22320312 16.00914063 51.29796875 14.8125 51.375 C13.08966797 51.47941406 13.08966797 51.47941406 11.33203125 51.5859375 C8.17985524 51.97764988 5.91333479 52.81891833 3 54 C-0.8125 53.625 -0.8125 53.625 -4 53 C-4.31674724 47.19296725 -4.56087855 40.89372136 -1 36 C2.57267852 34.3348578 6.11343251 33.57407703 10 33 C8.11884394 31.41979534 8.11884394 31.41979534 6 30 C5.38125 30.20625 4.7625 30.4125 4.125 30.625 C2 31 2 31 0.4140625 29.96484375 C-1.09829049 28.69034909 -2.55305253 27.34829196 -4 26 C-3.67257812 25.51015625 -3.34515625 25.0203125 -3.0078125 24.515625 C-1.58227411 20.95730437 -1.78845652 17.51796989 -1.875 13.75 C-1.88853516 12.63238281 -1.88853516 12.63238281 -1.90234375 11.4921875 C-1.92581642 9.66131941 -1.96168475 7.83061762 -2 6 C-1.34 6 -0.68 6 0 6 C0 4.02 0 2.04 0 0 Z " fill="#DBDBDB" transform="translate(4,7)"/>
<path d="M0 0 C0.66 0.66 1.32 1.32 2 2 C1.67 2.66 1.34 3.32 1 4 C0.34 4 -0.32 4 -1 4 C-1 4.66 -1 5.32 -1 6 C0.65 5.67 2.3 5.34 4 5 C3.01 6.485 3.01 6.485 2 8 C1.34 8 0.68 8 0 8 C-0.33 8.66 -0.66 9.32 -1 10 C-1.33 9.01 -1.66 8.02 -2 7 C-3.31618998 7.78551657 -4.62785228 8.5786237 -5.9375 9.375 C-6.66839844 9.81585938 -7.39929688 10.25671875 -8.15234375 10.7109375 C-10.13772272 11.8773984 -10.13772272 11.8773984 -11 14 C-19.415 14.495 -19.415 14.495 -28 15 C-27.01 14.67 -26.02 14.34 -25 14 C-25 13.01 -25 12.02 -25 11 C-21.7 11 -18.4 11 -15 11 C-14.67 9.35 -14.34 7.7 -14 6 C-13.34 6 -12.68 6 -12 6 C-12.33 4.68 -12.66 3.36 -13 2 C-12.34 2 -11.68 2 -11 2 C-10.67 2.99 -10.34 3.98 -10 5 C-8.68 4.67 -7.36 4.34 -6 4 C-6 4.66 -6 5.32 -6 6 C-5.34 6 -4.68 6 -4 6 C-3.67 4.35 -3.34 2.7 -3 1 C-2.01 0.67 -1.02 0.34 0 0 Z " fill="#5D4B67" transform="translate(43,27)"/>
<path d="M0 0 C1.32 0.33 2.64 0.66 4 1 C4.8441938 4.97977076 5.44687265 8.97007218 6 13 C4.35 13.66 2.7 14.32 1 15 C0.34 14.34 -0.32 13.68 -1 13 C-3.84297674 12.89909187 -6.62891177 13.06945445 -9.46875 13.22265625 C-10.72171875 13.11244141 -10.72171875 13.11244141 -12 13 C-12.66 12.01 -13.32 11.02 -14 10 C-13.34 10 -12.68 10 -12 10 C-11.34 8.68 -10.68 7.36 -10 6 C-9.67 6.66 -9.34 7.32 -9 8 C-6.36 8 -3.72 8 -1 8 C-1 6.02 -1 4.04 -1 2 C-0.01 2.66 0.98 3.32 2 4 C2 3.34 2 2.68 2 2 C1.34 1.34 0.68 0.68 0 0 Z " fill="#2A0240" transform="translate(43,44)"/>
<path d="M0 0 C2.64 0 5.28 0 8 0 C9.28432364 3.85297092 8.58019149 5.31288651 7 9 C4.875 11.375 4.875 11.375 3 13 C1.68 12.34 0.36 11.68 -1 11 C-1 9.02 -1 7.04 -1 5 C-1.66 5 -2.32 5 -3 5 C-3 5.66 -3 6.32 -3 7 C-4.32 6.67 -5.64 6.34 -7 6 C-6.67 4.35 -6.34 2.7 -6 1 C-5.34 1 -4.68 1 -4 1 C-3.67 1.66 -3.34 2.32 -3 3 C-2.01 2.67 -1.02 2.34 0 2 C0 1.34 0 0.68 0 0 Z " fill="#BA2CC2" transform="translate(29,3)"/>
<path d="M0 0 C0.33 0.99 0.66 1.98 1 3 C-2.624581 5.41638733 -3.00427392 4.79914522 -7 4 C-7.99 4.66 -8.98 5.32 -10 6 C-8.84371094 6.39832031 -8.84371094 6.39832031 -7.6640625 6.8046875 C-6.66117188 7.15789063 -5.65828125 7.51109375 -4.625 7.875 C-3.12839844 8.39707031 -3.12839844 8.39707031 -1.6015625 8.9296875 C1 10 1 10 3 12 C3.4140625 15.0390625 3.4140625 15.0390625 3.625 18.625 C3.69976562 19.81351563 3.77453125 21.00203125 3.8515625 22.2265625 C3.92503906 23.59941406 3.92503906 23.59941406 4 25 C0.73718826 27.17520782 -0.2340908 27.28244319 -4 27 C-4.99 26.67 -5.98 26.34 -7 26 C-8.299375 26.020625 -9.59875 26.04125 -10.9375 26.0625 C-14.17697478 26.11005192 -16.22765025 25.81269022 -19 24 C-19.66 23.67 -20.32 23.34 -21 23 C-19.68 22.34 -18.36 21.68 -17 21 C-16.34 21.66 -15.68 22.32 -15 23 C-12.19059665 23.14069 -9.43838138 22.99471132 -6.62890625 22.875 C-4 23 -4 23 -1 25 C1.15274948 24.69159401 1.15274948 24.69159401 3 24 C2.5359375 22.4221875 2.5359375 22.4221875 2.0625 20.8125 C1 17 1 17 0.875 14.25 C0.23519396 11.90876653 0.23519396 11.90876653 -1.62890625 11.0625 C-5.65998881 9.47148449 -9.69471275 8.53816091 -14 8 C-12.6581656 3.97449681 -10.5772427 3.11714364 -7 1 C-6.34 1 -5.68 1 -5 1 C-4.67 1.66 -4.34 2.32 -4 3 C-2.68 2.01 -1.36 1.02 0 0 Z " fill="#DFDEDE" transform="translate(46,33)"/>
<path d="M0 0 C0.66 0 1.32 0 2 0 C2 1.65 2 3.3 2 5 C4.31 5.33 6.62 5.66 9 6 C9 5.01 9 4.02 9 3 C10.98 3 12.96 3 15 3 C15 4.32 15 5.64 15 7 C15.99 6.67 16.98 6.34 18 6 C19.26422764 9.79268293 18.23577236 11.29268293 17 15 C13.37 15 9.74 15 6 15 C6 14.01 6 13.02 6 12 C7.134375 11.690625 8.26875 11.38125 9.4375 11.0625 C12.78775099 10.37075469 12.78775099 10.37075469 14 9 C11.03 8.505 11.03 8.505 8 8 C7.67 8.99 7.34 9.98 7 11 C5.8450079 10.26418258 4.70125815 9.51069961 3.5625 8.75 C2.60537109 8.12351562 2.60537109 8.12351562 1.62890625 7.484375 C-0.32533805 5.70352887 -0.71363243 4.60334154 -1 2 C-0.67 1.34 -0.34 0.68 0 0 Z " fill="#B837EC" transform="translate(13,18)"/>
<path d="M0 0 C0.99 0 1.98 0 3 0 C3 2.97 3 5.94 3 9 C1.68 9 0.36 9 -1 9 C-3.21874337 10.79206195 -4.394496 12.591744 -6 15 C-6.66 14.67 -7.32 14.34 -8 14 C-7.69128878 12.20767663 -7.37790936 10.41615679 -7.0625 8.625 C-6.88847656 7.62726562 -6.71445313 6.62953125 -6.53515625 5.6015625 C-6 3 -6 3 -5 1 C-3.35 1.33 -1.7 1.66 0 2 C0 1.34 0 0.68 0 0 Z " fill="#7401A5" transform="translate(10,44)"/>
<path d="M0 0 C2.76223278 2.76223278 2.57856291 5.20706617 3 9 C0.66666667 9 -1.66666667 9 -4 9 C-4.33 10.65 -4.66 12.3 -5 14 C-5.66 14 -6.32 14 -7 14 C-7 13.34 -7 12.68 -7 12 C-8.65 12.66 -10.3 13.32 -12 14 C-12 12.68 -12 11.36 -12 10 C-12.66 9.67 -13.32 9.34 -14 9 C-10.98832456 5.98832456 -7.54547277 6.16136925 -3.43359375 5.5625 C-2.63050781 5.376875 -1.82742187 5.19125 -1 5 C-0.67 4.34 -0.34 3.68 0 3 C-0.66 3 -1.32 3 -2 3 C-2 2.34 -2 1.68 -2 1 C-1.34 0.67 -0.68 0.34 0 0 Z " fill="#881CC0" transform="translate(44,19)"/>
<path d="M0 0 C0.33 0 0.66 0 1 0 C1.33 2.64 1.66 5.28 2 8 C1.01 7.67 0.02 7.34 -1 7 C-0.67 7.66 -0.34 8.32 0 9 C0.07065617 11.04055005 0.08421976 13.08334257 0.0625 15.125 C0.05347656 16.22070312 0.04445313 17.31640625 0.03515625 18.4453125 C0.02355469 19.28835937 0.01195312 20.13140625 0 21 C0.66 21.33 1.32 21.66 2 22 C2 22.66 2 23.32 2 24 C2.66 24 3.32 24 4 24 C4 24.66 4 25.32 4 26 C2.68 26 1.36 26 0 26 C0 26.66 0 27.32 0 28 C1.03125 27.7525 2.0625 27.505 3.125 27.25 C7.82251115 26.94693476 9.40741858 28.10841007 13 31 C12.01 31.33 11.02 31.66 10 32 C9.360625 31.67 8.72125 31.34 8.0625 31 C7.381875 30.67 6.70125 30.34 6 30 C5.071875 30.3403125 5.071875 30.3403125 4.125 30.6875 C2 31 2 31 0.4140625 29.9609375 C-1.09937454 28.68908196 -2.55368893 27.34769895 -4 26 C-3.67257812 25.51015625 -3.34515625 25.0203125 -3.0078125 24.515625 C-1.58227411 20.95730437 -1.78845652 17.51796989 -1.875 13.75 C-1.88853516 12.63238281 -1.88853516 12.63238281 -1.90234375 11.4921875 C-1.92581642 9.66131941 -1.96168475 7.83061762 -2 6 C-1.34 6 -0.68 6 0 6 C0 4.02 0 2.04 0 0 Z " fill="#E5E5E5" transform="translate(4,7)"/>
<path d="M0 0 C0.99 0.33 1.98 0.66 3 1 C3 1.66 3 2.32 3 3 C2.34 3 1.68 3 1 3 C1.33 3.66 1.66 4.32 2 5 C4.52733235 5.65555119 4.52733235 5.65555119 7 6 C7.33 6.99 7.66 7.98 8 9 C7.34 9 6.68 9 6 9 C6 9.66 6 10.32 6 11 C6.61875 10.814375 7.2375 10.62875 7.875 10.4375 C10 10 10 10 12 11 C12 10.34 12 9.68 12 9 C11.01 8.67 10.02 8.34 9 8 C10.32 7.67 11.64 7.34 13 7 C13.99 8.485 13.99 8.485 15 10 C14.34 10 13.68 10 13 10 C13 11.98 13 13.96 13 16 C12.01 16 11.02 16 10 16 C10 15.01 10 14.02 10 13 C8.68 13.33 7.36 13.66 6 14 C5.67 12.35 5.34 10.7 5 9 C3.02 9.33 1.04 9.66 -1 10 C-1.33 8.68 -1.66 7.36 -2 6 C-1.34 6 -0.68 6 0 6 C0 4.02 0 2.04 0 0 Z " fill="#9D24D5" transform="translate(5,19)"/>
<path d="M0 0 C0 3.96 0 7.92 0 12 C-2.31 12 -4.62 12 -7 12 C-7 11.01 -7 10.02 -7 9 C-6.01 9 -5.02 9 -4 9 C-3.67 8.34 -3.34 7.68 -3 7 C-4.32 7 -5.64 7 -7 7 C-6.67 5.02 -6.34 3.04 -6 1 C-3.92446352 0.4465236 -2.15634036 0 0 0 Z " fill="#9E02C6" transform="translate(21,42)"/>
<path d="M0 0 C2.0625 0.4375 2.0625 0.4375 4 1 C4.33 2.65 4.66 4.3 5 6 C6.32 5.67 7.64 5.34 9 5 C9 5.99 9 6.98 9 8 C10.32 8.33 11.64 8.66 13 9 C12.34 9 11.68 9 11 9 C11 9.66 11 10.32 11 11 C9.88625 10.505 9.88625 10.505 8.75 10 C5.86116688 8.77217129 5.86116688 8.77217129 2 9 C-0.1875 8.6875 -0.1875 8.6875 -2 8 C-2.33 7.01 -2.66 6.02 -3 5 C-0.525 5.495 -0.525 5.495 2 6 C2 5.34 2 4.68 2 4 C1.34 4 0.68 4 0 4 C-0.33 3.01 -0.66 2.02 -1 1 C-0.67 0.67 -0.34 0.34 0 0 Z " fill="#422159" transform="translate(6,27)"/>
<path d="M0 0 C0.33 0 0.66 0 1 0 C1 1.98 1 3.96 1 6 C1.66 6 2.32 6 3 6 C2.97679687 7.10859375 2.95359375 8.2171875 2.9296875 9.359375 C2.91092423 10.82290992 2.89272463 12.28645214 2.875 13.75 C2.85824219 14.47960938 2.84148438 15.20921875 2.82421875 15.9609375 C2.78927761 19.8044624 2.82500316 22.74606772 5 26 C4.01 26.66 3.02 27.32 2 28 C2 27.01 2 26.02 2 25 C0.35 25.33 -1.3 25.66 -3 26 C-3 25.34 -3 24.68 -3 24 C-2.34 24 -1.68 24 -1 24 C-1 23.34 -1 22.68 -1 22 C-0.34 21.67 0.32 21.34 1 21 C0.90460937 20.24074219 0.80921875 19.48148438 0.7109375 18.69921875 C0.54464844 17.20841797 0.54464844 17.20841797 0.375 15.6875 C0.25898437 14.70136719 0.14296875 13.71523438 0.0234375 12.69921875 C0 10 0 10 2 7 C1.01 7.33 0.02 7.66 -1 8 C-0.67 5.36 -0.34 2.72 0 0 Z " fill="#E8E8E7" transform="translate(45,7)"/>
<path d="M0 0 C1.98 0 3.96 0 6 0 C6 0.66 6 1.32 6 2 C4.35 1.67 2.7 1.34 1 1 C-0.485 7.435 -0.485 7.435 -2 14 C-1.34 14 -0.68 14 0 14 C0.2475 13.195625 0.495 12.39125 0.75 11.5625 C2 9 2 9 4.125 8.1875 C4.74375 8.125625 5.3625 8.06375 6 8 C6 9.32 6 10.64 6 12 C6.66 12.33 7.32 12.66 8 13 C6.02 13.99 6.02 13.99 4 15 C4 14.34 4 13.68 4 13 C3.34 13 2.68 13 2 13 C2 13.99 2 14.98 2 16 C0.35 15.67 -1.3 15.34 -3 15 C-2.5547115 9.72684667 -1.91626837 4.98229776 0 0 Z " fill="#281635" transform="translate(4,44)"/>
<path d="M0 0 C0.33 0 0.66 0 1 0 C1.1875 2.375 1.1875 2.375 1 5 C-2.26281174 7.17520782 -3.2340908 7.28244319 -7 7 C-7.99 6.67 -8.98 6.34 -10 6 C-11.299375 6.020625 -12.59875 6.04125 -13.9375 6.0625 C-17.17697478 6.11005192 -19.22765025 5.81269022 -22 4 C-22.66 3.67 -23.32 3.34 -24 3 C-22.68 2.34 -21.36 1.68 -20 1 C-19.34 1.66 -18.68 2.32 -18 3 C-15.19059665 3.14069 -12.43838138 2.99471132 -9.62890625 2.875 C-7 3 -7 3 -4 5 C-1.84725052 4.69159401 -1.84725052 4.69159401 0 4 C0 2.68 0 1.36 0 0 Z " fill="#CECECE" transform="translate(49,53)"/>
<path d="M0 0 C1.32 0.33 2.64 0.66 4 1 C4.061875 2.1446875 4.061875 2.1446875 4.125 3.3125 C4.77823609 6.32405113 4.77823609 6.32405113 8.0625 7.8125 C9.031875 8.204375 10.00125 8.59625 11 9 C10.67 9.66 10.34 10.32 10 11 C10.66 11.33 11.32 11.66 12 12 C12 12.66 12 13.32 12 14 C10.02 14 8.04 14 6 14 C6.33 12.35 6.66 10.7 7 9 C5.35 9 3.7 9 2 9 C1.67 8.01 1.34 7.02 1 6 C1.66 6 2.32 6 3 6 C3 5.34 3 4.68 3 4 C2.01 3.67 1.02 3.34 0 3 C0 2.01 0 1.02 0 0 Z " fill="#AD0DE1" transform="translate(5,16)"/>
<path d="M0 0 C2.64 0 5.28 0 8 0 C7.34 2.31 6.68 4.62 6 7 C4.02 7 2.04 7 0 7 C-0.93423645 3.98968256 -1.04449911 3.13349732 0 0 Z " fill="#78767A" transform="translate(22,32)"/>
<path d="M0 0 C3.63094642 2.64960955 5.89851796 5.01824456 8 9 C7.34 9 6.68 9 6 9 C6 10.65 6 12.3 6 14 C4.68 13.67 3.36 13.34 2 13 C1.855625 11.783125 1.71125 10.56625 1.5625 9.3125 C1.17219047 6.17329623 0.67648144 3.0924866 0 0 Z " fill="#CD0FEE" transform="translate(7,9)"/>
<path d="M0 0 C2.14576637 -0.02685938 4.29162645 -0.04633088 6.4375 -0.0625 C7.63246094 -0.07410156 8.82742187 -0.08570313 10.05859375 -0.09765625 C13 0 13 0 14 1 C14.04063832 2.66617115 14.042721 4.33388095 14 6 C13.34 6 12.68 6 12 6 C12 4.35 12 2.7 12 1 C9.03 1 6.06 1 3 1 C3 1.66 3 2.32 3 3 C3.66 3 4.32 3 5 3 C4.67 6.3 4.34 9.6 4 13 C3.34 13 2.68 13 2 13 C2 9.04 2 5.08 2 1 C1.34 0.67 0.68 0.34 0 0 Z " fill="#1E0333" transform="translate(19,41)"/>
<path d="M0 0 C0.66 0 1.32 0 2 0 C2 1.65 2 3.3 2 5 C3.65 5 5.3 5 7 5 C7 6.32 7 7.64 7 9 C5.68 8.67 4.36 8.34 3 8 C3 9.65 3 11.3 3 13 C2.01 12.67 1.02 12.34 0 12 C0 8.04 0 4.08 0 0 Z " fill="#7501AC" transform="translate(29,42)"/>
<path d="M0 0 C1.98 0.99 1.98 0.99 4 2 C4 1.34 4 0.68 4 0 C4.66 0 5.32 0 6 0 C6.33 2.64 6.66 5.28 7 8 C7.66 8 8.32 8 9 8 C8.67 8.99 8.34 9.98 8 11 C6.68 11 5.36 11 4 11 C3.67 10.01 3.34 9.02 3 8 C2.01 8.33 1.02 8.66 0 9 C0.185625 8.071875 0.37125 7.14375 0.5625 6.1875 C1.24123881 2.98656229 1.24123881 2.98656229 0 0 Z " fill="#B423C2" transform="translate(38,6)"/>
<path d="M0 0 C0.66 0.99 1.32 1.98 2 3 C2.66 2.01 3.32 1.02 4 0 C4.99 0.33 5.98 0.66 7 1 C6.01 1.495 6.01 1.495 5 2 C4.34786708 4.02463255 4.34786708 4.02463255 4 6 C5.32 6.33 6.64 6.66 8 7 C8 6.34 8 5.68 8 5 C8.99 4.67 9.98 4.34 11 4 C10.67 5.32 10.34 6.64 10 8 C6.37 8.33 2.74 8.66 -1 9 C-1.33 8.01 -1.66 7.02 -2 6 C-1.34 5.67 -0.68 5.34 0 5 C0 3.35 0 1.7 0 0 Z " fill="#DB16DF" transform="translate(18,3)"/>
<path d="M0 0 C1.32 0 2.64 0 4 0 C4.33 0.99 4.66 1.98 5 3 C4.01 3.495 4.01 3.495 3 4 C2.34786708 6.02463255 2.34786708 6.02463255 2 8 C2.66 8.33 3.32 8.66 4 9 C3.01 10.485 3.01 10.485 2 12 C1.34 11.67 0.68 11.34 0 11 C0 13.97 0 16.94 0 20 C-0.33 20 -0.66 20 -1 20 C-1.33 16.37 -1.66 12.74 -2 9 C-1.34 8.67 -0.68 8.34 0 8 C0 5.36 0 2.72 0 0 Z " fill="#B679B9" transform="translate(5,5)"/>
<path d="M0 0 C0.66 0.66 1.32 1.32 2 2 C1.67 2.66 1.34 3.32 1 4 C0.34 4 -0.32 4 -1 4 C-1 4.66 -1 5.32 -1 6 C0.65 5.67 2.3 5.34 4 5 C3.01 6.485 3.01 6.485 2 8 C1.34 8 0.68 8 0 8 C-0.33 8.66 -0.66 9.32 -1 10 C-1.33 9.01 -1.66 8.02 -2 7 C-3.65 7.66 -5.3 8.32 -7 9 C-6.67 7.68 -6.34 6.36 -6 5 C-5.34 5.33 -4.68 5.66 -4 6 C-3.67 4.35 -3.34 2.7 -3 1 C-2.01 0.67 -1.02 0.34 0 0 Z " fill="#36204A" transform="translate(43,27)"/>
<path d="M0 0 C1.98 0.495 1.98 0.495 4 1 C4.8441938 4.97977076 5.44687265 8.97007218 6 13 C5.34 12.67 4.68 12.34 4 12 C4 10.68 4 9.36 4 8 C2.68 8.33 1.36 8.66 0 9 C-0.33 6.69 -0.66 4.38 -1 2 C0.485 2.99 0.485 2.99 2 4 C2 3.34 2 2.68 2 2 C1.34 1.34 0.68 0.68 0 0 Z " fill="#21162C" transform="translate(43,44)"/>
<path d="M0 0 C-0.33 1.32 -0.66 2.64 -1 4 C-1.66 4 -2.32 4 -3 4 C-3 4.66 -3 5.32 -3 6 C-2.34 6 -1.68 6 -1 6 C-1.33 6.99 -1.66 7.98 -2 9 C-5.63 9.33 -9.26 9.66 -13 10 C-10.01353231 8.00902154 -7.40312738 7.05875074 -4 6 C-4 4.35 -4 2.7 -4 1 C-2 0 -2 0 0 0 Z " fill="#9C0FD9" transform="translate(45,16)"/>
<path d="M0 0 C0.99 0.99 1.98 1.98 3 3 C1.83857315 7.35535069 0.92300495 9.64619703 -3 12 C-3.99 11.34 -4.98 10.68 -6 10 C-5.195625 9.278125 -4.39125 8.55625 -3.5625 7.8125 C-0.97707928 4.97484311 -0.31957187 3.72833853 0 0 Z " fill="#DD14F5" transform="translate(37,6)"/>
<path d="M0 0 C0.66 0 1.32 0 2 0 C2.33 0.99 2.66 1.98 3 3 C4.32 2.67 5.64 2.34 7 2 C6.1875 5.4375 6.1875 5.4375 5 9 C4.01 9.33 3.02 9.66 2 10 C0.68373308 6.38026598 0 3.90432869 0 0 Z " fill="#5F2E7B" transform="translate(30,29)"/>
<path d="M0 0 C2.76223278 2.76223278 2.57856291 5.20706617 3 9 C0.33333333 9 -2.33333333 9 -5 9 C-3.35 7.02 -1.7 5.04 0 3 C-0.66 3 -1.32 3 -2 3 C-2 2.34 -2 1.68 -2 1 C-1.34 0.67 -0.68 0.34 0 0 Z " fill="#721F9D" transform="translate(44,19)"/>
<path d="M0 0 C1 1 1 1 1.0625 3.5625 C1.041875 4.366875 1.02125 5.17125 1 6 C0.67 4.68 0.34 3.36 0 2 C-1.258125 2.12375 -2.51625 2.2475 -3.8125 2.375 C-4.52019531 2.44460938 -5.22789063 2.51421875 -5.95703125 2.5859375 C-8.29988142 2.92665391 -8.29988142 2.92665391 -11 5 C-11 4.34 -11 3.68 -11 3 C-11.66 3 -12.32 3 -13 3 C-13.33 4.32 -13.66 5.64 -14 7 C-14.33 6.34 -14.66 5.68 -15 5 C-14.67 4.01 -14.34 3.02 -14 2 C-9.2550934 -0.19885916 -5.1191493 -0.26029573 0 0 Z " fill="#DBDADB" transform="translate(25,0)"/>
<path d="M0 0 C2 0.3125 2 0.3125 4 1 C4.33 1.66 4.66 2.32 5 3 C4.34 3 3.68 3 3 3 C3 4.98 3 6.96 3 9 C2.01 9 1.02 9 0 9 C0 8.01 0 7.02 0 6 C-0.99 5.67 -1.98 5.34 -3 5 C-2.01 4.34 -1.02 3.68 0 3 C0.66 3.33 1.32 3.66 2 4 C2 3.34 2 2.68 2 2 C1.01 1.67 0.02 1.34 -1 1 C-0.67 0.67 -0.34 0.34 0 0 Z " fill="#8615C0" transform="translate(15,26)"/>
<path d="M0 0 C1.4540625 0.0309375 1.4540625 0.0309375 2.9375 0.0625 C2.6075 1.7125 2.2775 3.3625 1.9375 5.0625 C0.2875 5.3925 -1.3625 5.7225 -3.0625 6.0625 C-3.44468767 4.40635343 -3.77645102 2.73792976 -4.0625 1.0625 C-3.0625 0.0625 -3.0625 0.0625 0 0 Z " fill="#D49BE9" transform="translate(31.0625,18.9375)"/>
<path d="M0 0 C2.01822917 0.06510417 4.03645833 0.13020833 6.0546875 0.1953125 C5.2296875 0.9996875 4.4046875 1.8040625 3.5546875 2.6328125 C0.93830019 4.71794268 0.93830019 4.71794268 1.0546875 6.1953125 C-0.2653125 6.5253125 -1.5853125 6.8553125 -2.9453125 7.1953125 C-3.5703125 4.8203125 -3.5703125 4.8203125 -3.9453125 2.1953125 C-1.9453125 0.1953125 -1.9453125 0.1953125 0 0 Z " fill="#6F3D71" transform="translate(18.9453125,1.8046875)"/>
<path d="M0 0 C0.99 0 1.98 0 3 0 C3 1.32 3 2.64 3 4 C-1.455 4.495 -1.455 4.495 -6 5 C-5.67 3.68 -5.34 2.36 -5 1 C-3.35 1.33 -1.7 1.66 0 2 C0 1.34 0 0.68 0 0 Z " fill="#6A01A0" transform="translate(10,44)"/>
<path d="M0 0 C2.64 0.33 5.28 0.66 8 1 C8 1.66 8 2.32 8 3 C8.99 3.33 9.98 3.66 11 4 C10.67 4.99 10.34 5.98 10 7 C9.01 6.34 8.02 5.68 7 5 C4.88719655 4.36707617 4.88719655 4.36707617 3 4 C3 3.01 3 2.02 3 1 C2.01 0.67 1.02 0.34 0 0 Z " fill="#3F0561" transform="translate(35,42)"/>
<path d="M0 0 C2.64752004 2.57784846 4.94432065 4.91648098 7 8 C5.68 8.33 4.36 8.66 3 9 C0.9375 6.1875 0.9375 6.1875 -1 3 C-0.67 2.01 -0.34 1.02 0 0 Z " fill="#EF14FA" transform="translate(11,8)"/>
<path d="M0 0 C3.96 0 7.92 0 12 0 C11.67 0.99 11.34 1.98 11 3 C7.37 3 3.74 3 0 3 C0 2.01 0 1.02 0 0 Z " fill="#D5D0D9" transform="translate(19,30)"/>
<path d="M0 0 C1.98 0 3.96 0 6 0 C6 0.66 6 1.32 6 2 C5.34 2 4.68 2 4 2 C4 4.31 4 6.62 4 9 C3.34 9 2.68 9 2 9 C2 6.69 2 4.38 2 2 C1.34 2 0.68 2 0 2 C0 1.34 0 0.68 0 0 Z " fill="#8101BB" transform="translate(22,42)"/>
<path d="M0 0 C2.64 0.33 5.28 0.66 8 1 C6.25 3.0625 6.25 3.0625 4 5 C1.75 4.75 1.75 4.75 0 4 C0 2.68 0 1.36 0 0 Z " fill="#733990" transform="translate(20,25)"/>
<path d="M0 0 C2.375 -0.1875 2.375 -0.1875 5 0 C7 3 7 3 6.625 5.6875 C6.41875 6.450625 6.2125 7.21375 6 8 C4.68 8.33 3.36 8.66 2 9 C2 8.34 2 7.68 2 7 C2.66 6.67 3.32 6.34 4 6 C4.65213292 3.97536745 4.65213292 3.97536745 5 2 C3.35 2 1.7 2 0 2 C0 1.34 0 0.68 0 0 Z " fill="#C94EF6" transform="translate(29,17)"/>
<path d="M0 0 C0 0.66 0 1.32 0 2 C0.66 2 1.32 2 2 2 C2 2.66 2 3.32 2 4 C0.35 3.67 -1.3 3.34 -3 3 C-3.33 3.99 -3.66 4.98 -4 6 C-4.66 4.68 -5.32 3.36 -6 2 C-3 0 -3 0 0 0 Z " fill="#DDDEDD" transform="translate(6,29)"/>
<path d="M0 0 C3.63094642 2.64960955 5.89851796 5.01824456 8 9 C7.34 9 6.68 9 6 9 C5.67 9.66 5.34 10.32 5 11 C4.54625 10.030625 4.0925 9.06125 3.625 8.0625 C2.34213779 4.92920418 2.34213779 4.92920418 0 4 C0 2.68 0 1.36 0 0 Z " fill="#E014EE" transform="translate(7,9)"/>
<path d="M0 0 C0 1.65 0 3.3 0 5 C-1.98 5 -3.96 5 -6 5 C-6 3.68 -6 2.36 -6 1 C-3.92446352 0.4465236 -2.15634036 0 0 0 Z " fill="#6C01A5" transform="translate(21,42)"/>
<path d="M0 0 C2.97 0.33 5.94 0.66 9 1 C8.67 2.32 8.34 3.64 8 5 C4.75791433 4.64950425 3.38472296 4.43778819 1.1875 1.9375 C0.795625 1.298125 0.40375 0.65875 0 0 Z " fill="#B91AC1" transform="translate(13,10)"/>
<path d="M0 0 C0.66 0 1.32 0 2 0 C2.66 0.66 3.32 1.32 4 2 C4.66 2.33 5.32 2.66 6 3 C5.01 3.33 4.02 3.66 3 4 C3 4.66 3 5.32 3 6 C1.68 5.67 0.36 5.34 -1 5 C-0.67 3.35 -0.34 1.7 0 0 Z " fill="#4D1B52" transform="translate(23,4)"/>
<path d="M0 0 C2.64 0 5.28 0 8 0 C5.66785852 1.20628008 3.50357861 2.1654738 1 3 C1.33 4.32 1.66 5.64 2 7 C1.34 7 0.68 7 0 7 C-0.93423645 3.98968256 -1.04449911 3.13349732 0 0 Z " fill="#8A8A8B" transform="translate(22,32)"/>
<path d="M0 0 C0.66 0.99 1.32 1.98 2 3 C1.01 4.485 1.01 4.485 0 6 C-3.125 6.1875 -3.125 6.1875 -6 6 C-2.25 1.125 -2.25 1.125 0 0 Z " fill="#9F3DD1" transform="translate(30,24)"/>
<path d="M0 0 C1.32 0.33 2.64 0.66 4 1 C4 2.32 4 3.64 4 5 C3.01 5.495 3.01 5.495 2 6 C1.34 5.67 0.68 5.34 0 5 C0 3.35 0 1.7 0 0 Z " fill="#DCB4E8" transform="translate(16,19)"/>
<path d="M0 0 C1 2 1 2 0.44140625 3.9453125 C0.15136719 4.66460938 -0.13867188 5.38390625 -0.4375 6.125 C-0.72496094 6.84945313 -1.01242188 7.57390625 -1.30859375 8.3203125 C-1.53675781 8.87460937 -1.76492187 9.42890625 -2 10 C-3.34771696 7.78023089 -4.04398726 6.49852224 -3.8125 3.875 C-3 2 -3 2 0 0 Z " fill="#C21CF2" transform="translate(39,14)"/>
<path d="M0 0 C0.99 0.33 1.98 0.66 3 1 C3 1.66 3 2.32 3 3 C2.34 3 1.68 3 1 3 C1.33 3.99 1.66 4.98 2 6 C1.0625 8.1875 1.0625 8.1875 0 10 C-0.66 9.67 -1.32 9.34 -2 9 C-2 8.01 -2 7.02 -2 6 C-1.34 6 -0.68 6 0 6 C0 4.02 0 2.04 0 0 Z " fill="#7C189C" transform="translate(5,19)"/>
<path d="M0 0 C0.66 0 1.32 0 2 0 C2.33 2.64 2.66 5.28 3 8 C3.66 8 4.32 8 5 8 C4.67 8.99 4.34 9.98 4 11 C2.68 11 1.36 11 0 11 C0 7.37 0 3.74 0 0 Z " fill="#743E7C" transform="translate(42,6)"/>
<path d="M0 0 C1.98 0 3.96 0 6 0 C5.67 0.99 5.34 1.98 5 3 C2.4375 4.1875 2.4375 4.1875 0 5 C0 3.35 0 1.7 0 0 Z " fill="#352638" transform="translate(31,3)"/>
<path d="M0 0 C2.33944736 0.28730055 4.6739143 0.61936779 7 1 C7 1.99 7 2.98 7 4 C6.01 4.33 5.02 4.66 4 5 C1.3125 3.0625 1.3125 3.0625 -1 1 C-0.67 0.67 -0.34 0.34 0 0 Z " fill="#100218" transform="translate(40,54)"/>
<path d="M0 0 C0 0.66 0 1.32 0 2 C-4.455 2.495 -4.455 2.495 -9 3 C-9 2.34 -9 1.68 -9 1 C-5.8035914 -0.06546953 -3.34252724 -0.07427838 0 0 Z " fill="#A901C7" transform="translate(13,48)"/>
<path d="M0 0 C0.66 0 1.32 0 2 0 C2 0.99 2 1.98 2 3 C3.32 3.33 4.64 3.66 6 4 C5.34 4 4.68 4 4 4 C4 4.66 4 5.32 4 6 C-0.875 4.25 -0.875 4.25 -2 2 C-1.34 2 -0.68 2 0 2 C0 1.34 0 0.68 0 0 Z " fill="#410F62" transform="translate(13,32)"/>
<path d="M0 0 C0.33 0.66 0.66 1.32 1 2 C1.66 2 2.32 2 3 2 C3.33 1.34 3.66 0.68 4 0 C4.33 0.99 4.66 1.98 5 3 C4.01 4.485 4.01 4.485 3 6 C2.01 5.67 1.02 5.34 0 5 C0 3.35 0 1.7 0 0 Z " fill="#E113FD" transform="translate(23,12)"/>
<path d="M0 0 C2.31 0 4.62 0 7 0 C7 0.99 7 1.98 7 3 C4.69 3 2.38 3 0 3 C0 2.01 0 1.02 0 0 Z " fill="#6B02A1" transform="translate(14,51)"/>
<path d="M0 0 C1.32 0.33 2.64 0.66 4 1 C4.33 2.65 4.66 4.3 5 6 C3.68 6.33 2.36 6.66 1 7 C1 6.34 1 5.68 1 5 C1.66 5 2.32 5 3 5 C2.2236068 1.9254644 2.2236068 1.9254644 0 0 Z " fill="#393542" transform="translate(43,44)"/>
<path d="M0 0 C0.99 0.99 1.98 1.98 3 3 C2.34 3 1.68 3 1 3 C1 3.66 1 4.32 1 5 C-0.98 5 -2.96 5 -5 5 C-4.67 4.34 -4.34 3.68 -4 3 C-3.34 3 -2.68 3 -2 3 C-1.34 2.01 -0.68 1.02 0 0 Z " fill="#CB2AE9" transform="translate(28,14)"/>
<path d="M0 0 C2.475 0.495 2.475 0.495 5 1 C4.67 1.66 4.34 2.32 4 3 C3.34 2.67 2.68 2.34 2 2 C2 4.97 2 7.94 2 11 C1.67 11 1.34 11 1 11 C0.67 7.37 0.34 3.74 0 0 Z " fill="#7F7881" transform="translate(3,14)"/>
<path d="M0 0 C0.99 1.485 0.99 1.485 2 3 C2.66 2.01 3.32 1.02 4 0 C4.99 0.33 5.98 0.66 7 1 C6.01 1.495 6.01 1.495 5 2 C4.34786708 4.02463255 4.34786708 4.02463255 4 6 C2.68 5.67 1.36 5.34 0 5 C0 3.35 0 1.7 0 0 Z " fill="#D85FDA" transform="translate(18,3)"/>
</svg>
