<?xml version="1.0" encoding="UTF-8"?>
<!-- Generator: https://ezgif.com/png-to-svg -->
<svg version="1.1" xmlns="http://www.w3.org/2000/svg" width="512" height="512" viewBox="-36 -72 672 672" preserveAspectRatio="xMidYMid meet">
<path d="M0 0 C0 104.61 0 209.22 0 317 C-18.81 323.6 -37.62 330.2 -57 337 C-72.62 342.57 -72.62 342.57 -88.23 348.16 C-100.8 352.66 -113.4 357.08 -126 361.5 C-141.78 367.04 -157.56 372.61 -173.31 378.25 C-190.94 384.56 -208.59 390.82 -226.25 397.06 C-231.86 399.05 -237.47 401.03 -243.07 403.01 C-243.78 403.26 -244.48 403.51 -245.2 403.76 C-260.17 409.06 -275.14 414.37 -290.11 419.68 C-295.9 421.74 -301.69 423.79 -307.48 425.85 C-308.72 426.29 -309.95 426.72 -311.22 427.18 C-323.11 431.39 -334.99 435.6 -346.88 439.81 C-348.33 440.33 -348.33 440.33 -349.82 440.85 C-357.5 443.57 -365.18 446.29 -372.85 449.01 C-379.61 451.4 -386.37 453.79 -393.12 456.19 C-394.09 456.53 -395.06 456.87 -396.06 457.23 C-415.05 463.95 -434.03 470.69 -453.01 477.42 C-470.95 483.79 -488.88 490.15 -506.81 496.5 C-518.67 500.69 -530.53 504.9 -542.38 509.1 C-544.53 509.87 -546.68 510.63 -548.83 511.4 C-555.17 513.65 -561.51 515.9 -567.85 518.15 C-569.83 518.85 -571.81 519.56 -573.79 520.26 C-576.23 521.12 -578.66 521.99 -581.09 522.85 C-582.18 523.24 -583.27 523.63 -584.39 524.02 C-585.8 524.53 -585.8 524.53 -587.25 525.04 C-588.16 525.36 -589.06 525.67 -590 526 C-591.02 526.37 -592.05 526.74 -593.1 527.12 C-596 528 -596 528 -600 528 C-600 423.72 -600 319.44 -600 212 C-592.18 208.74 -584.47 205.65 -576.49 202.88 C-574.89 202.32 -574.89 202.32 -573.26 201.75 C-570.98 200.95 -568.7 200.16 -566.42 199.36 C-560.35 197.24 -554.27 195.11 -548.2 192.98 C-546.99 192.56 -545.77 192.13 -544.51 191.69 C-533.87 187.96 -523.24 184.18 -512.62 180.38 C-509.22 179.15 -505.81 177.93 -502.4 176.71 C-501.55 176.41 -500.71 176.11 -499.83 175.8 C-489.65 172.16 -479.45 168.55 -469.25 164.94 C-465.21 163.51 -461.18 162.08 -457.14 160.65 C-456.1 160.28 -455.06 159.92 -453.99 159.54 C-440.99 154.94 -428 150.32 -415 145.71 C-396 138.97 -377 132.23 -358 125.5 C-339.96 119.11 -321.91 112.71 -303.88 106.31 C-303.22 106.08 -302.57 105.85 -301.9 105.61 C-295.93 103.49 -289.96 101.37 -283.98 99.25 C-274.8 96 -265.63 92.74 -256.45 89.48 C-255.81 89.25 -255.17 89.03 -254.51 88.79 C-251.3 87.65 -248.08 86.51 -244.86 85.37 C-239.05 83.31 -233.25 81.25 -227.44 79.19 C-224.21 78.04 -220.98 76.9 -217.75 75.75 C-216.46 75.29 -215.17 74.83 -213.88 74.38 C-211.29 73.46 -208.71 72.54 -206.12 71.62 C-205.49 71.4 -204.85 71.17 -204.19 70.94 C-202.9 70.48 -201.6 70.02 -200.31 69.56 C-197.08 68.42 -193.85 67.27 -190.62 66.12 C-184.82 64.06 -179.01 62.01 -173.21 59.95 C-169.99 58.8 -166.77 57.66 -163.55 56.52 C-162.92 56.29 -162.28 56.07 -161.62 55.83 C-152.42 52.57 -143.21 49.3 -134.01 46.04 C-92.78 31.4 -92.78 31.4 -72.63 24.26 C-71.58 23.89 -70.53 23.52 -69.45 23.13 C-64.43 21.36 -59.42 19.58 -54.4 17.81 C-52.52 17.14 -50.63 16.47 -48.75 15.81 C-47.39 15.33 -47.39 15.33 -46.01 14.84 C-40.72 12.97 -35.43 11.08 -30.15 9.19 C-26.93 8.04 -23.71 6.89 -20.49 5.74 C-19.02 5.21 -17.55 4.68 -16.08 4.15 C-14.1 3.44 -12.12 2.73 -10.14 2.03 C-9.04 1.63 -7.94 1.24 -6.81 0.83 C-4 0 -4 0 0 0 Z " fill="#020200" transform="translate(600,0)"/>
<path d="M0 0 C0 104.61 0 209.22 0 317 C-18.81 323.6 -37.62 330.2 -57 337 C-72.62 342.57 -72.62 342.57 -88.23 348.16 C-100.8 352.66 -113.4 357.08 -126 361.5 C-141.78 367.04 -157.56 372.61 -173.31 378.25 C-190.94 384.56 -208.59 390.82 -226.25 397.06 C-231.86 399.05 -237.47 401.03 -243.07 403.01 C-243.78 403.26 -244.48 403.51 -245.2 403.76 C-260.17 409.06 -275.14 414.37 -290.11 419.68 C-295.9 421.74 -301.69 423.79 -307.48 425.85 C-308.72 426.29 -309.95 426.72 -311.22 427.18 C-323.11 431.39 -334.99 435.6 -346.88 439.81 C-348.33 440.33 -348.33 440.33 -349.82 440.85 C-357.5 443.57 -365.18 446.29 -372.85 449.01 C-379.61 451.4 -386.37 453.79 -393.12 456.19 C-394.09 456.53 -395.06 456.87 -396.06 457.23 C-415.05 463.95 -434.03 470.69 -453.01 477.42 C-470.95 483.79 -488.88 490.15 -506.81 496.5 C-518.67 500.69 -530.53 504.9 -542.38 509.1 C-544.53 509.87 -546.68 510.63 -548.83 511.4 C-555.17 513.65 -561.51 515.9 -567.85 518.15 C-569.83 518.85 -571.81 519.56 -573.79 520.26 C-576.23 521.12 -578.66 521.99 -581.09 522.85 C-582.18 523.24 -583.27 523.63 -584.39 524.02 C-585.8 524.53 -585.8 524.53 -587.25 525.04 C-588.16 525.36 -589.06 525.67 -590 526 C-591.02 526.37 -592.05 526.74 -593.1 527.12 C-596 528 -596 528 -600 528 C-600 423.72 -600 319.44 -600 212 C-592.18 208.74 -584.47 205.65 -576.49 202.88 C-574.89 202.32 -574.89 202.32 -573.26 201.75 C-570.98 200.95 -568.7 200.16 -566.42 199.36 C-560.35 197.24 -554.27 195.11 -548.2 192.98 C-546.99 192.56 -545.77 192.13 -544.51 191.69 C-533.87 187.96 -523.24 184.18 -512.62 180.38 C-509.22 179.15 -505.81 177.93 -502.4 176.71 C-501.55 176.41 -500.71 176.11 -499.83 175.8 C-489.65 172.16 -479.45 168.55 -469.25 164.94 C-465.21 163.51 -461.18 162.08 -457.14 160.65 C-456.1 160.28 -455.06 159.92 -453.99 159.54 C-440.99 154.94 -428 150.32 -415 145.71 C-396 138.97 -377 132.23 -358 125.5 C-339.96 119.11 -321.91 112.71 -303.88 106.31 C-303.22 106.08 -302.57 105.85 -301.9 105.61 C-295.93 103.49 -289.96 101.37 -283.98 99.25 C-274.8 96 -265.63 92.74 -256.45 89.48 C-255.81 89.25 -255.17 89.03 -254.51 88.79 C-251.3 87.65 -248.08 86.51 -244.86 85.37 C-239.05 83.31 -233.25 81.25 -227.44 79.19 C-224.21 78.04 -220.98 76.9 -217.75 75.75 C-216.46 75.29 -215.17 74.83 -213.88 74.38 C-211.29 73.46 -208.71 72.54 -206.12 71.62 C-205.49 71.4 -204.85 71.17 -204.19 70.94 C-202.9 70.48 -201.6 70.02 -200.31 69.56 C-197.08 68.42 -193.85 67.27 -190.62 66.12 C-184.82 64.06 -179.01 62.01 -173.21 59.95 C-169.99 58.8 -166.77 57.66 -163.55 56.52 C-162.92 56.29 -162.28 56.07 -161.62 55.83 C-152.42 52.57 -143.21 49.3 -134.01 46.04 C-92.78 31.4 -92.78 31.4 -72.63 24.26 C-71.58 23.89 -70.53 23.52 -69.45 23.13 C-64.43 21.36 -59.42 19.58 -54.4 17.81 C-52.52 17.14 -50.63 16.47 -48.75 15.81 C-47.39 15.33 -47.39 15.33 -46.01 14.84 C-40.72 12.97 -35.43 11.08 -30.15 9.19 C-26.93 8.04 -23.71 6.89 -20.49 5.74 C-19.02 5.21 -17.55 4.68 -16.08 4.15 C-14.1 3.44 -12.12 2.73 -10.14 2.03 C-9.04 1.63 -7.94 1.24 -6.81 0.83 C-4 0 -4 0 0 0 Z M-24.75 25 C-32.41 27.8 -40.11 30.48 -47.83 33.14 C-51.89 34.55 -55.95 35.97 -59.98 37.49 C-66.1 39.82 -72.32 41.9 -78.51 44.04 C-82.69 45.49 -86.87 46.93 -91 48.5 C-97.12 50.82 -103.33 52.9 -109.51 55.04 C-113.69 56.49 -117.87 57.93 -122 59.5 C-128.12 61.82 -134.33 63.9 -140.51 66.04 C-141.49 66.38 -142.46 66.71 -143.47 67.06 C-144.34 67.36 -145.21 67.66 -146.11 67.97 C-148.26 68.74 -150.41 69.53 -152.55 70.34 C-158.25 72.49 -164.01 74.48 -169.76 76.49 C-171.62 77.15 -173.49 77.8 -175.36 78.45 C-177.96 79.37 -180.56 80.28 -183.16 81.19 C-187.68 82.77 -192.2 84.35 -196.73 85.94 C-199.13 86.78 -201.53 87.62 -203.93 88.46 C-218.09 93.39 -218.09 93.39 -232.16 98.56 C-238.22 100.86 -244.38 102.92 -250.51 105.04 C-254.69 106.49 -258.87 107.93 -263 109.5 C-269.12 111.82 -275.33 113.9 -281.51 116.04 C-285.69 117.49 -289.87 118.93 -294 120.5 C-300.12 122.82 -306.33 124.9 -312.51 127.04 C-316.69 128.49 -320.87 129.93 -325 131.5 C-331.12 133.82 -337.33 135.9 -343.51 138.04 C-347.69 139.49 -351.87 140.93 -356 142.5 C-362.12 144.82 -368.33 146.9 -374.51 149.04 C-378.69 150.49 -382.87 151.93 -387 153.5 C-393.12 155.82 -399.33 157.9 -405.51 160.04 C-409.69 161.49 -413.87 162.93 -418 164.5 C-424.12 166.82 -430.33 168.9 -436.51 171.04 C-440.69 172.49 -444.87 173.93 -449 175.5 C-455.12 177.82 -461.33 179.9 -467.51 182.04 C-471.69 183.49 -475.87 184.93 -480 186.5 C-486.12 188.82 -492.33 190.9 -498.51 193.04 C-499.49 193.38 -500.46 193.71 -501.47 194.06 C-502.77 194.51 -502.77 194.51 -504.11 194.97 C-506.34 195.76 -508.55 196.58 -510.77 197.42 C-515.24 199.1 -519.74 200.68 -524.25 202.25 C-525.11 202.55 -525.97 202.85 -526.85 203.16 C-530.48 204.43 -534.11 205.69 -537.75 206.96 C-540.41 207.89 -543.08 208.82 -545.75 209.75 C-546.96 210.17 -546.96 210.17 -548.2 210.6 C-551.9 211.89 -555.59 213.21 -559.26 214.59 C-562.2 215.7 -565.15 216.77 -568.12 217.79 C-568.99 218.09 -569.87 218.39 -570.76 218.7 C-572.57 219.33 -574.38 219.95 -576.19 220.57 C-577.06 220.87 -577.92 221.17 -578.81 221.48 C-579.59 221.75 -580.37 222.01 -581.18 222.29 C-582.99 222.85 -582.99 222.85 -584 224 C-584.1 225.5 -584.12 227.01 -584.12 228.51 C-584.13 229.49 -584.13 230.47 -584.13 231.48 C-584.13 232.57 -584.12 233.66 -584.12 234.79 C-584.12 235.94 -584.12 237.08 -584.12 238.27 C-584.12 241.47 -584.12 244.67 -584.12 247.87 C-584.11 251.32 -584.11 254.77 -584.11 258.21 C-584.11 264.19 -584.11 270.17 -584.11 276.15 C-584.1 284.79 -584.1 293.43 -584.09 302.07 C-584.09 316.09 -584.08 330.11 -584.08 344.13 C-584.07 357.75 -584.06 371.38 -584.05 385 C-584.05 385.84 -584.05 386.68 -584.05 387.54 C-584.05 391.75 -584.05 395.96 -584.05 400.17 C-584.04 435.11 -584.02 470.06 -584 505 C-582.41 504.52 -580.81 504.05 -579.22 503.57 C-577.88 503.17 -577.88 503.17 -576.52 502.76 C-571.15 501.14 -565.83 499.34 -560.5 497.56 C-559.34 497.18 -558.18 496.8 -556.99 496.4 C-555.28 495.83 -555.28 495.83 -553.53 495.25 C-552.52 494.92 -551.5 494.58 -550.46 494.23 C-547.67 493.24 -544.94 492.19 -542.2 491.08 C-537.25 489.08 -532.25 487.26 -527.21 485.49 C-526.29 485.16 -525.37 484.84 -524.42 484.5 C-521.41 483.44 -518.39 482.37 -515.38 481.31 C-513.25 480.56 -511.13 479.81 -509.01 479.06 C-505.7 477.9 -502.4 476.73 -499.1 475.57 C-491.36 472.84 -483.63 470.1 -475.9 467.35 C-472.73 466.22 -469.55 465.09 -466.37 463.96 C-464.37 463.25 -462.36 462.54 -460.36 461.82 C-449.35 457.9 -438.33 454.05 -427.21 450.44 C-422.22 448.8 -417.35 446.97 -412.49 444.99 C-408.44 443.38 -404.33 441.93 -400.21 440.49 C-398.83 440 -398.83 440 -397.42 439.5 C-394.41 438.44 -391.39 437.38 -388.38 436.31 C-386.23 435.56 -384.09 434.8 -381.95 434.04 C-377.5 432.47 -373.06 430.9 -368.61 429.33 C-359.39 426.08 -350.18 422.81 -340.96 419.55 C-335.97 417.78 -330.99 416.02 -326 414.25 C-324 413.54 -322 412.83 -320 412.12 C-308 407.88 -308 407.88 -305 406.81 C-303 406.1 -301 405.39 -299 404.69 C-294.02 402.92 -289.04 401.16 -284.07 399.4 C-274.78 396.11 -265.49 392.82 -256.21 389.53 C-251.87 387.99 -247.53 386.46 -243.19 384.92 C-241.14 384.2 -239.1 383.47 -237.05 382.74 C-227.04 379.2 -217.03 375.66 -207.01 372.12 C-199.84 369.59 -192.67 367.05 -185.5 364.5 C-182.95 363.59 -180.4 362.69 -177.84 361.78 C-177.2 361.55 -176.56 361.33 -175.9 361.09 C-171.94 359.68 -167.97 358.28 -164 356.88 C-156.74 354.32 -149.48 351.75 -142.23 349.16 C-140.33 348.48 -138.43 347.8 -136.54 347.13 C-133.65 346.1 -130.76 345.07 -127.88 344.03 C-116.69 340.03 -105.49 336.1 -94.19 332.43 C-89.23 330.81 -84.4 328.99 -79.57 327.02 C-75.08 325.24 -70.53 323.66 -65.98 322.07 C-64.96 321.71 -63.94 321.35 -62.89 320.98 C-59.66 319.84 -56.42 318.7 -53.19 317.56 C-49.96 316.43 -46.74 315.3 -43.52 314.16 C-41.52 313.46 -39.53 312.76 -37.53 312.06 C-30.29 309.5 -23.17 306.76 -16 304 C-16 211.27 -16 118.54 -16 23 C-19.42 23 -21.54 23.81 -24.75 25 Z " fill="#FCEB00" transform="translate(600,0)"/>
<path d="M0 0 C1.54 1.82 2.96 3.65 4.38 5.56 C5.28 6.76 6.18 7.96 7.09 9.16 C7.57 9.79 8.04 10.43 8.53 11.08 C10.95 14.24 13.44 17.34 15.94 20.44 C19.84 25.29 23.72 30.16 27.56 35.06 C28.01 35.64 28.47 36.21 28.93 36.8 C31.18 39.68 33.43 42.55 35.68 45.43 C40.58 51.69 45.53 57.9 50.56 64.06 C55.29 69.85 59.88 75.71 64.41 81.66 C67.36 85.5 70.43 89.25 73.5 93 C78.29 98.86 82.96 104.79 87.55 110.8 C94.07 119.34 100.77 127.74 107.56 136.06 C112.31 141.88 116.96 147.77 121.5 153.75 C123.32 156.14 125.2 158.48 127.1 160.81 C127.61 161.45 128.13 162.08 128.66 162.74 C129.66 163.97 130.67 165.2 131.69 166.42 C133.04 168.1 133.04 168.1 135 171 C134.67 171.99 134.34 172.98 134 174 C131.35 175.21 131.35 175.21 127.84 176.38 C127.22 176.59 126.59 176.8 125.95 177.01 C123.95 177.69 121.94 178.34 119.94 179 C117.96 179.66 115.98 180.32 114 180.99 C112.19 181.59 110.37 182.19 108.55 182.79 C105.37 183.88 102.22 185.03 99.07 186.22 C93.05 188.48 86.98 190.59 80.92 192.73 C79.22 193.33 77.52 193.93 75.82 194.54 C73.35 195.42 70.87 196.29 68.4 197.16 C67.65 197.43 66.89 197.7 66.12 197.98 C62.09 199.39 58.26 200.45 54 201 C53.19 199.99 52.38 198.97 51.55 197.93 C50.47 196.58 49.39 195.23 48.31 193.88 C47.78 193.21 47.25 192.54 46.71 191.86 C43.52 187.87 40.29 183.91 37 180 C30.42 181.33 24.25 183.16 17.94 185.44 C16.67 185.89 16.67 185.89 15.37 186.35 C11.01 187.9 6.66 189.5 2.33 191.13 C-2.57 192.96 -7.48 194.73 -12.4 196.5 C-13.69 196.96 -14.97 197.43 -16.25 197.89 C-18.12 198.57 -19.99 199.25 -21.86 199.92 C-22.97 200.32 -24.08 200.72 -25.22 201.13 C-28 202 -28 202 -31 202 C-31 182.86 -31 163.72 -31 144 C-7 135 -7 135 -1 133 C-2.29 130.23 -3.71 127.95 -5.65 125.6 C-6.18 124.96 -6.7 124.33 -7.24 123.67 C-7.8 122.99 -8.36 122.32 -8.94 121.62 C-10.11 120.19 -11.29 118.76 -12.46 117.33 C-13.35 116.25 -13.35 116.25 -14.25 115.15 C-17.78 110.81 -21.22 106.4 -24.66 101.99 C-26.87 99.05 -26.87 99.05 -29.12 96.82 C-31.57 93.15 -31.53 90.08 -31.45 85.81 C-31.45 85 -31.46 84.19 -31.46 83.36 C-31.45 80.69 -31.42 78.02 -31.39 75.36 C-31.38 73.5 -31.38 71.65 -31.37 69.79 C-31.36 64.92 -31.32 60.05 -31.27 55.18 C-31.23 50.21 -31.22 45.23 -31.2 40.26 C-31.15 30.51 -31.08 20.75 -31 11 C-21.61 6.76 -21.61 6.76 -16.82 5.08 C-15.95 4.78 -15.09 4.47 -14.2 4.16 C-12.89 3.71 -12.89 3.71 -11.56 3.25 C-10.22 2.78 -10.22 2.78 -8.85 2.29 C-2.26 0 -2.26 0 0 0 Z " fill="#FDEC00" transform="translate(321,146)"/>
<path d="M0 0 C0 72.93 0 145.86 0 221 C-27.81 231.43 -27.81 231.43 -41 236 C-43.99 237.04 -46.99 238.08 -49.98 239.12 C-51.98 239.81 -53.98 240.51 -55.98 241.2 C-60.06 242.61 -64.11 244.03 -68.12 245.61 C-72 247 -72 247 -81 249 C-81 176.07 -81 103.14 -81 28 C-38.07 12.67 -38.07 12.67 -26.56 8.88 C-19.38 6.51 -12.37 3.88 -5.43 0.89 C-3 0 -3 0 0 0 Z " fill="#FDEC00" transform="translate(124,216)"/>
<path d="M0 0 C0 72.93 0 145.86 0 221 C-12.21 225.29 -24.42 229.58 -37 234 C-39.64 234.99 -42.28 235.98 -45 237 C-46.82 237.64 -48.64 238.28 -50.46 238.9 C-51.43 239.24 -52.39 239.57 -53.39 239.91 C-55.37 240.59 -57.35 241.27 -59.34 241.95 C-64.97 243.9 -70.52 245.97 -76.03 248.27 C-78 249 -78 249 -80 249 C-80 176.07 -80 103.14 -80 28 C-73.95 25.31 -68.03 22.83 -61.81 20.64 C-60.96 20.34 -60.11 20.04 -59.23 19.73 C-56.49 18.75 -53.74 17.78 -51 16.81 C-48.17 15.81 -45.33 14.8 -42.5 13.8 C-40.62 13.13 -38.75 12.47 -36.88 11.8 C-31.52 9.9 -26.16 7.98 -20.82 6.02 C-19.09 5.38 -19.09 5.38 -17.32 4.74 C-15.25 3.97 -13.18 3.21 -11.11 2.44 C-9.76 1.95 -9.76 1.95 -8.38 1.44 C-7.24 1.02 -7.24 1.02 -6.08 0.59 C-4 0 -4 0 0 0 Z " fill="#FDEC00" transform="translate(557,63)"/>
<path d="M0 0 C9.59 9.51 17.71 20.36 26 31 C31.78 38.41 37.61 45.78 43.56 53.06 C48.29 58.85 52.88 64.71 57.41 70.66 C60.36 74.5 63.43 78.25 66.5 82 C70.43 86.8 74.3 91.63 78.06 96.56 C82.12 101.89 86.28 107.13 90.47 112.35 C93.82 116.52 97.14 120.72 100.44 124.94 C104.42 130.03 108.47 135.06 112.56 140.06 C116.64 145.07 120.71 150.09 124.69 155.19 C125.48 156.19 126.26 157.2 127.07 158.23 C128.86 160.8 129.9 163.09 131 166 C130.33 166.23 129.67 166.47 128.98 166.71 C122.58 168.94 116.19 171.17 109.79 173.41 C106.51 174.56 103.22 175.71 99.94 176.85 C96.76 177.96 93.58 179.07 90.41 180.18 C88.52 180.84 86.64 181.5 84.76 182.16 C79 184.18 73.27 186.26 67.59 188.51 C66.62 188.9 65.65 189.28 64.65 189.68 C62.86 190.39 61.08 191.12 59.3 191.87 C58.52 192.18 57.74 192.49 56.94 192.81 C56.27 193.09 55.6 193.37 54.91 193.66 C52.3 194.12 51.18 193.42 49 192 C46.81 189.45 46.81 189.45 44.44 186.25 C43.55 185.06 42.66 183.88 41.77 182.69 C41.31 182.08 40.85 181.47 40.38 180.84 C38.19 177.92 35.94 175.05 33.69 172.19 C33.24 171.61 32.79 171.04 32.32 170.45 C28.2 165.22 23.99 160.07 19.78 154.91 C15.49 149.64 11.33 144.28 7.22 138.87 C5.08 135.94 5.08 135.94 2.4 133.61 C-1.48 128.92 -0.65 123.16 -0.57 117.39 C-0.57 116.12 -0.57 114.85 -0.57 113.54 C-0.57 110.07 -0.54 106.61 -0.51 103.14 C-0.48 99.51 -0.47 95.89 -0.47 92.26 C-0.45 85.39 -0.41 78.53 -0.36 71.67 C-0.3 63.85 -0.28 56.04 -0.25 48.22 C-0.2 32.15 -0.11 16.07 0 0 Z " fill="#FDEC00" transform="translate(138,220)"/>
<path d="M0 0 C0 68.31 0 136.62 0 207 C-5.63 201.37 -5.63 201.37 -7.95 198.5 C-8.72 197.55 -8.72 197.55 -9.5 196.58 C-10.04 195.92 -10.57 195.25 -11.12 194.56 C-11.69 193.86 -12.26 193.16 -12.85 192.43 C-17.84 186.24 -22.76 179.99 -27.66 173.72 C-29.93 170.81 -32.22 167.9 -34.5 165 C-37.24 161.51 -39.98 158.03 -42.71 154.54 C-46.91 149.18 -51.12 143.84 -55.38 138.54 C-61.91 130.43 -68.26 122.19 -74.54 113.89 C-76.02 111.89 -76.02 111.89 -78.06 109.87 C-80.5 106.26 -80.54 103.38 -80.45 99.18 C-80.45 98.41 -80.46 97.64 -80.46 96.84 C-80.45 94.31 -80.42 91.77 -80.39 89.23 C-80.38 87.47 -80.38 85.7 -80.37 83.94 C-80.36 79.3 -80.32 74.67 -80.27 70.04 C-80.23 65.3 -80.22 60.57 -80.2 55.84 C-80.15 46.56 -80.08 37.28 -80 28 C-78.11 27.2 -76.21 26.4 -74.32 25.6 C-73.27 25.15 -72.21 24.71 -71.13 24.25 C-67.6 22.84 -64.05 21.77 -60.41 20.74 C-57.98 20 -55.69 19.1 -53.35 18.13 C-47.28 15.67 -41.09 13.66 -34.86 11.64 C-29.6 9.92 -24.45 8.03 -19.33 5.94 C-16.1 4.63 -12.84 3.43 -9.56 2.25 C-8.39 1.82 -7.21 1.39 -6 0.95 C-3 0 -3 0 0 0 Z " fill="#FDEC00" transform="translate(463,96)"/>
<path d="M0 0 C0 68.31 0 136.62 0 207 C-5.63 201.37 -5.63 201.37 -7.88 198.61 C-8.38 197.99 -8.88 197.37 -9.4 196.74 C-9.93 196.08 -10.46 195.43 -11 194.75 C-11.56 194.05 -12.13 193.36 -12.71 192.64 C-17.28 186.96 -21.72 181.17 -26.12 175.36 C-29.82 170.49 -33.62 165.73 -37.5 161 C-41.95 155.58 -46.27 150.09 -50.5 144.5 C-55.26 138.22 -60.14 132.05 -65.16 125.97 C-66.15 124.76 -67.13 123.55 -68.09 122.32 C-70.03 119.9 -70.03 119.9 -72.48 117.4 C-80.87 108.24 -81.36 100.5 -80.98 88.45 C-80.96 86.7 -80.94 84.94 -80.93 83.19 C-80.9 78.62 -80.8 74.05 -80.69 69.49 C-80.58 64.81 -80.54 60.13 -80.49 55.45 C-80.38 46.3 -80.21 37.15 -80 28 C-71.74 24.58 -63.34 21.58 -54.91 18.61 C-53.47 18.11 -52.04 17.6 -50.6 17.09 C-46.85 15.77 -43.11 14.44 -39.36 13.12 C-36.29 12.04 -33.22 10.96 -30.15 9.87 C-23.82 7.63 -17.48 5.4 -11.15 3.16 C-10.03 2.77 -8.91 2.37 -7.76 1.97 C-2.14 0 -2.14 0 0 0 Z " fill="#FDEC00" transform="translate(276,162)"/>
<path d="M0 0 C1.32 0.99 2.64 1.98 4 3 C4 3.66 4 4.32 4 5 C3.01 5 2.02 5 1 5 C1 46.25 1 87.5 1 130 C0.67 130 0.34 130 0 130 C0 87.1 0 44.2 0 0 Z " fill="#C5B800" transform="translate(138,220)"/>
</svg>
