<?xml version="1.0" encoding="UTF-8"?>
<!-- Generator: https://ezgif.com/png-to-svg -->
<svg version="1.1" xmlns="http://www.w3.org/2000/svg" width="512" height="512" viewBox="-36 -69.5 672 672" preserveAspectRatio="xMidYMid meet">
<path d="M0 0 C-0.01 0.94 -0.02 1.89 -0.03 2.86 C-0.26 25.84 -0.4 48.81 -0.44 71.79 C-0.46 82.91 -0.51 94.02 -0.63 105.13 C-0.74 114.82 -0.79 124.5 -0.77 134.19 C-0.77 139.32 -0.79 144.45 -0.88 149.58 C-0.96 154.41 -0.97 159.24 -0.92 164.07 C-0.91 165.84 -0.93 167.61 -0.98 169.37 C-1.41 178.71 -1.41 178.71 2.58 186.78 C6.42 190.09 10.64 192.6 15.11 194.97 C17.62 196.34 19.92 197.96 22.23 199.64 C23.36 200.43 23.36 200.43 24.5 201.23 C25.24 201.75 25.99 202.28 26.75 202.81 C28.44 204 30.13 205.18 31.82 206.37 C33.09 207.26 33.09 207.26 34.39 208.17 C38.8 211.26 43.21 214.35 47.62 217.44 C49.2 218.54 50.78 219.64 52.35 220.75 C53.11 221.28 53.87 221.81 54.66 222.36 C56.27 223.49 57.88 224.62 59.49 225.75 C64.21 229.06 68.95 232.34 73.72 235.58 C81.71 241 89.61 246.54 97.4 252.24 C101.11 254.95 104.85 257.59 108.68 260.12 C109.43 260.62 110.18 261.11 110.95 261.62 C112.37 262.56 113.79 263.49 115.23 264.4 C117.13 265.66 117.13 265.66 120 268 C120 269.32 120 270.64 120 272 C80.4 272 40.8 272 0 272 C0 358.13 0 444.26 0 533 C-56.76 533 -113.52 533 -172 533 C-172 518.15 -172 503.3 -172 488 C-173.65 487.34 -175.3 486.68 -177 486 C-178.78 484.8 -180.53 483.55 -182.25 482.25 C-187.07 478.63 -191.95 475.37 -197 472 C-197.33 492.13 -197.66 512.26 -198 533 C-254.76 533 -311.52 533 -370 533 C-370 446.87 -370 360.74 -370 272 C-406.3 272 -442.6 272 -480 272 C-478.88 267.51 -478.32 267.09 -474.79 264.45 C-473.42 263.41 -473.42 263.41 -472.03 262.35 C-470.53 261.22 -470.53 261.22 -468.99 260.06 C-466.8 258.38 -464.62 256.69 -462.45 254.99 C-461.58 254.31 -461.58 254.31 -460.7 253.63 C-448.41 243.99 -436.63 233.73 -425 223.31 C-424.36 222.74 -423.72 222.17 -423.06 221.58 C-389.06 191.09 -366.06 163.02 -363.46 116.13 C-362.83 102.99 -363.13 89.89 -363.75 76.75 C-363.79 75.88 -363.83 75.01 -363.87 74.12 C-364.92 51.63 -366.94 29.31 -370 7 C-367.05 7.68 -365.06 8.45 -362.59 10.23 C-361.94 10.7 -361.29 11.16 -360.62 11.64 C-359.92 12.15 -359.22 12.66 -358.5 13.19 C-356.97 14.29 -355.44 15.38 -353.91 16.48 C-353.1 17.06 -352.3 17.63 -351.48 18.23 C-347.34 21.19 -343.17 24.09 -339 27 C-332.82 31.32 -326.65 35.65 -320.5 40 C-311.88 46.09 -303.23 52.15 -294.58 58.2 C-291.97 60.02 -289.35 61.85 -286.74 63.68 C-276.14 71.12 -276.14 71.12 -265.5 78.5 C-250.24 89.05 -235.08 99.75 -219.94 110.46 C-206.04 120.28 -192.13 130.09 -178.12 139.75 C-171.36 144.42 -164.68 149.2 -158 154 C-153.31 150.08 -148.86 146 -144.56 141.66 C-143.95 141.05 -143.34 140.44 -142.72 139.81 C-140.7 137.79 -138.68 135.76 -136.67 133.73 C-135.21 132.27 -133.76 130.81 -132.3 129.36 C-129.18 126.22 -126.06 123.09 -122.94 119.96 C-118.01 115 -113.08 110.06 -108.14 105.11 C-94.11 91.05 -80.09 76.98 -66.07 62.9 C-58.33 55.12 -50.57 47.34 -42.81 39.57 C-37.9 34.65 -33 29.73 -28.1 24.8 C-25.06 21.74 -22.01 18.69 -18.96 15.64 C-17.54 14.22 -16.13 12.8 -14.71 11.37 C-12.79 9.43 -10.86 7.5 -8.93 5.58 C-8.09 4.72 -8.09 4.72 -7.23 3.85 C-3.34 0 -3.34 0 0 0 Z " fill="#151515" transform="translate(480,0)"/>
<path d="M0 0 C-0.01 0.94 -0.02 1.89 -0.03 2.86 C-0.26 25.84 -0.4 48.81 -0.44 71.79 C-0.46 82.91 -0.51 94.02 -0.63 105.13 C-0.74 114.82 -0.79 124.5 -0.77 134.19 C-0.77 139.32 -0.79 144.45 -0.88 149.58 C-0.96 154.41 -0.97 159.24 -0.92 164.07 C-0.91 165.84 -0.93 167.61 -0.98 169.37 C-1.41 178.71 -1.41 178.71 2.58 186.78 C6.42 190.09 10.64 192.6 15.11 194.97 C17.62 196.34 19.92 197.96 22.23 199.64 C23.36 200.43 23.36 200.43 24.5 201.23 C25.24 201.75 25.99 202.28 26.75 202.81 C28.44 204 30.13 205.18 31.82 206.37 C33.09 207.26 33.09 207.26 34.39 208.17 C38.8 211.26 43.21 214.35 47.62 217.44 C49.2 218.54 50.78 219.64 52.35 220.75 C53.11 221.28 53.87 221.81 54.66 222.36 C56.27 223.49 57.88 224.62 59.49 225.75 C64.21 229.06 68.95 232.34 73.72 235.58 C81.71 241 89.61 246.54 97.4 252.24 C101.11 254.95 104.85 257.59 108.68 260.12 C109.43 260.62 110.18 261.11 110.95 261.62 C112.37 262.56 113.79 263.49 115.23 264.4 C117.13 265.66 117.13 265.66 120 268 C120 269.32 120 270.64 120 272 C80.4 272 40.8 272 0 272 C0 358.13 0 444.26 0 533 C-56.76 533 -113.52 533 -172 533 C-172 518.15 -172 503.3 -172 488 C-173.65 487.34 -175.3 486.68 -177 486 C-178.78 484.8 -180.53 483.55 -182.25 482.25 C-187.07 478.63 -191.95 475.37 -197 472 C-197.33 492.13 -197.66 512.26 -198 533 C-254.76 533 -311.52 533 -370 533 C-370 446.87 -370 360.74 -370 272 C-406.3 272 -442.6 272 -480 272 C-478.88 267.51 -478.32 267.09 -474.79 264.45 C-473.42 263.41 -473.42 263.41 -472.03 262.35 C-470.53 261.22 -470.53 261.22 -468.99 260.06 C-466.8 258.38 -464.62 256.69 -462.45 254.99 C-461.58 254.31 -461.58 254.31 -460.7 253.63 C-448.41 243.99 -436.63 233.73 -425 223.31 C-424.36 222.74 -423.72 222.17 -423.06 221.58 C-389.06 191.09 -366.06 163.02 -363.46 116.13 C-362.83 102.99 -363.13 89.89 -363.75 76.75 C-363.79 75.88 -363.83 75.01 -363.87 74.12 C-364.92 51.63 -366.94 29.31 -370 7 C-367.05 7.68 -365.06 8.45 -362.59 10.23 C-361.94 10.7 -361.29 11.16 -360.62 11.64 C-359.92 12.15 -359.22 12.66 -358.5 13.19 C-356.97 14.29 -355.44 15.38 -353.91 16.48 C-353.1 17.06 -352.3 17.63 -351.48 18.23 C-347.34 21.19 -343.17 24.09 -339 27 C-332.82 31.32 -326.65 35.65 -320.5 40 C-311.88 46.09 -303.23 52.15 -294.58 58.2 C-291.97 60.02 -289.35 61.85 -286.74 63.68 C-276.14 71.12 -276.14 71.12 -265.5 78.5 C-250.24 89.05 -235.08 99.75 -219.94 110.46 C-206.04 120.28 -192.13 130.09 -178.12 139.75 C-171.36 144.42 -164.68 149.2 -158 154 C-153.31 150.08 -148.86 146 -144.56 141.66 C-143.95 141.05 -143.34 140.44 -142.72 139.81 C-140.7 137.79 -138.68 135.76 -136.67 133.73 C-135.21 132.27 -133.76 130.81 -132.3 129.36 C-129.18 126.22 -126.06 123.09 -122.94 119.96 C-118.01 115 -113.08 110.06 -108.14 105.11 C-94.11 91.05 -80.09 76.98 -66.07 62.9 C-58.33 55.12 -50.57 47.34 -42.81 39.57 C-37.9 34.65 -33 29.73 -28.1 24.8 C-25.06 21.74 -22.01 18.69 -18.96 15.64 C-17.54 14.22 -16.13 12.8 -14.71 11.37 C-12.79 9.43 -10.86 7.5 -8.93 5.58 C-8.09 4.72 -8.09 4.72 -7.23 3.85 C-3.34 0 -3.34 0 0 0 Z M-353 39 C-352.92 39.58 -352.85 40.16 -352.77 40.76 C-350.37 59.65 -348.87 78.54 -348.06 97.56 C-348.03 98.29 -348 99.01 -347.97 99.76 C-346.37 137.23 -348.92 167.73 -374.87 196.42 C-382.02 204.2 -389.68 211.41 -397.56 218.44 C-398.34 219.13 -398.34 219.13 -399.14 219.84 C-410.86 230.31 -422.91 240.34 -435.49 249.78 C-436.22 250.33 -436.95 250.87 -437.7 251.44 C-438.34 251.91 -438.98 252.39 -439.64 252.88 C-440.09 253.25 -440.54 253.62 -441 254 C-441 254.33 -441 254.66 -441 255 C-411.96 255 -382.92 255 -353 255 C-353 341.13 -353 427.26 -353 516 C-307.46 516 -261.92 516 -215 516 C-215 490.59 -215 465.18 -215 439 C-196.49 451.72 -196.49 451.72 -189.06 456.94 C-188.23 457.52 -187.41 458.1 -186.55 458.69 C-180.21 463.14 -173.88 467.61 -167.55 472.09 C-166.91 472.55 -166.27 473.01 -165.6 473.48 C-165.05 473.87 -164.49 474.26 -163.92 474.67 C-161.31 476.48 -158.65 478.23 -156 480 C-155.67 491.88 -155.34 503.76 -155 516 C-109.46 516 -63.92 516 -17 516 C-17 429.87 -17 343.74 -17 255 C11.71 255 40.42 255 70 255 C66.02 250.92 66.02 250.92 61.71 247.6 C61.11 247.19 60.51 246.78 59.89 246.36 C59.24 245.93 58.6 245.5 57.94 245.06 C56.51 244.09 55.08 243.13 53.65 242.16 C52.89 241.65 52.14 241.14 51.36 240.61 C47.24 237.8 43.15 234.93 39.06 232.06 C38.22 231.47 37.37 230.88 36.5 230.26 C30.47 226.04 24.46 221.8 18.46 217.55 C11.94 212.95 5.4 208.38 -1.14 203.81 C-1.93 203.25 -2.72 202.7 -3.54 202.13 C-4.29 201.6 -5.05 201.07 -5.83 200.53 C-7.89 199.08 -9.93 197.59 -11.96 196.09 C-14.66 193.81 -14.66 193.81 -17 194 C-17 142.85 -17 91.7 -17 39 C-21.44 42.8 -25.66 46.52 -29.74 50.66 C-30.28 51.2 -30.81 51.74 -31.36 52.29 C-33.13 54.07 -34.89 55.85 -36.65 57.63 C-37.92 58.91 -39.2 60.2 -40.47 61.48 C-43.2 64.23 -45.93 66.99 -48.66 69.74 C-52.98 74.09 -57.3 78.44 -61.62 82.78 C-62.35 83.52 -63.08 84.25 -63.84 85.01 C-65.33 86.51 -66.82 88.01 -68.32 89.51 C-78.38 99.62 -88.43 109.73 -98.47 119.86 C-105.25 126.71 -112.04 133.54 -118.84 140.36 C-122.44 143.97 -126.03 147.59 -129.61 151.21 C-132.97 154.62 -136.34 158.01 -139.73 161.39 C-140.97 162.64 -142.21 163.89 -143.44 165.14 C-145.12 166.85 -146.81 168.54 -148.51 170.23 C-149 170.73 -149.48 171.23 -149.98 171.75 C-151.37 173.11 -151.37 173.11 -154 175 C-158.09 174.82 -160.37 173.28 -163.56 170.81 C-168.78 166.89 -174.08 163.11 -179.44 159.38 C-181.19 158.15 -182.93 156.93 -184.68 155.71 C-186.01 154.79 -186.01 154.79 -187.35 153.85 C-191.57 150.9 -195.79 147.95 -200 145 C-201.67 143.83 -203.33 142.67 -205 141.5 C-221.67 129.83 -238.33 118.17 -255 106.5 C-255.83 105.92 -256.65 105.34 -257.5 104.75 C-259.16 103.58 -260.83 102.42 -262.49 101.25 C-266.7 98.31 -270.9 95.37 -275.11 92.43 C-283.61 86.48 -292.1 80.52 -300.57 74.53 C-311.21 67.02 -321.9 59.57 -332.57 52.11 C-333.48 51.47 -334.39 50.84 -335.33 50.18 C-337.07 48.96 -338.81 47.75 -340.55 46.53 C-341.34 45.98 -342.13 45.43 -342.94 44.86 C-343.97 44.14 -343.97 44.14 -345.03 43.4 C-346.42 42.41 -347.79 41.38 -349.13 40.32 C-350.89 38.81 -350.89 38.81 -353 39 Z " fill="#FAFAFA" transform="translate(480,0)"/>
<path d="M0 0 C19.47 0 38.94 0 59 0 C59.99 2.31 60.98 4.62 62 7 C66.9 11.9 72.44 13.3 79.25 13.44 C85.71 13.34 90.76 11.84 96 8 C98.23 5.38 99.39 3.4 100 0 C101.98 0 103.96 0 106 0 C105.71 8.07 102.73 13.25 97.06 18.95 C82.29 31.49 63.29 31.17 45 30 C39.89 29.25 35.54 27.44 31 25 C29.85 24.44 28.71 23.88 27.52 23.31 C16.51 17.7 7.7 9.62 0 0 Z " fill="#EAEAEA" transform="translate(308,255)"/>
<path d="M0 0 C19.14 0 38.28 0 58 0 C59.32 2.64 60.64 5.28 62 8 C69.39 13.14 76.18 13.78 85 13 C90.01 11.74 93.85 10.13 97.56 6.5 C98.85 4.26 99.62 2.54 100 0 C101.98 0 103.96 0 106 0 C105.22 7.8 101.98 13.95 96 19 C80.89 30.69 63.42 31.33 45 30 C28.42 27.49 10.53 14.9 0 2 C0 1.34 0 0.68 0 0 Z " fill="#EBEBEB" transform="translate(177,255)"/>
</svg>
