<?xml version="1.0" encoding="UTF-8"?>
<!-- Generator: https://ezgif.com/png-to-svg -->
<svg version="1.1" xmlns="http://www.w3.org/2000/svg" width="512" height="512" viewBox="61.96 -20.54 374.08 374.08" preserveAspectRatio="xMidYMid meet">
<path d="M0 0 C4.04 1.57 6.43 4.43 9.2 7.63 C10.26 8.82 11.32 10.01 12.38 11.2 C12.93 11.83 13.49 12.46 14.07 13.11 C41.58 47.16 41.58 47.16 79.01 65.48 C87.76 65.92 96.47 63.76 105 62 C104.87 63.1 104.74 64.19 104.6 65.32 C102.84 81.69 101.2 99.66 111.9 113.28 C118.78 121.46 126.78 128.59 134.81 135.62 C138.62 139.01 142.31 142.51 146.01 146.01 C153.23 152.8 160.57 159.44 168 166 C163.47 171.73 158.25 176.45 152.78 181.26 C119.33 208 119.33 208 102.03 244.79 C101.78 253.64 104.1 262.41 106 271 C104.87 270.87 103.74 270.74 102.58 270.61 C86.07 268.92 67.52 267.06 53.73 277.8 C45.67 284.55 38.66 292.43 31.77 300.35 C28.46 304.1 25.02 307.72 21.58 311.37 C14.93 318.47 8.42 325.69 2 333 C-2.04 331.44 -4.42 328.57 -7.19 325.37 C-8.24 324.18 -9.29 322.99 -10.35 321.8 C-10.91 321.17 -11.47 320.54 -12.04 319.89 C-39.64 285.73 -39.64 285.73 -77.29 267.52 C-86.28 267.07 -95.23 269.24 -104 271 C-103.84 269.9 -103.68 268.81 -103.51 267.68 C-100.29 243.84 -100.29 243.84 -108.1 221.91 C-115.26 212.74 -124.01 205 -132.74 197.38 C-136.56 194 -140.25 190.49 -143.96 186.99 C-151.2 180.2 -158.55 173.55 -166 167 C-161.48 161.27 -156.26 156.55 -150.81 151.74 C-117.44 124.93 -117.44 124.93 -99.75 88.21 C-99.3 79.4 -101.34 70.62 -103 62 C-101.35 62.19 -101.35 62.19 -99.67 62.39 C-83.4 64.1 -65.37 65.81 -51.82 55.2 C-43.76 48.43 -36.75 40.56 -29.84 32.65 C-26.52 28.91 -23.07 25.28 -19.63 21.63 C-12.96 14.53 -6.44 7.31 0 0 Z " fill="#FDFAFA" transform="translate(248,0)"/>
<path d="M0 0 C38.47 0 38.47 0 48.07 9.05 C48.54 9.53 49.01 10.01 49.5 10.5 C50.03 11.01 50.56 11.53 51.11 12.06 C58.89 19.68 66.17 27.81 73.29 36.04 C75.34 38.39 77.42 40.69 79.5 43 C82.21 46 84.9 49.02 87.56 52.06 C91.35 56.4 95.18 60.7 99 65 C99.33 55.1 99.66 45.2 100 35 C95.38 35 90.76 35 86 35 C84.56 22.86 84.56 22.86 88.43 17.87 C91.43 15.02 94.72 12.53 98 10 C99.36 8.69 100.7 7.36 102 6 C104.26 3.65 106.31 2.02 109 0 C125.17 0 141.34 0 158 0 C158 52.47 158 104.94 158 159 C120.96 159 120.96 159 109.96 149.52 C108.75 148.3 107.56 147.06 106.38 145.81 C105.74 145.15 105.1 144.5 104.44 143.82 C100.11 139.31 96.04 134.65 92.17 129.74 C89.68 126.6 87.1 123.55 84.5 120.5 C80.39 115.67 76.35 110.78 72.35 105.86 C67.96 100.52 63.47 95.27 59 90 C58.67 98.91 58.34 107.82 58 117 C62.62 117 67.24 117 72 117 C73.77 133.73 73.77 133.73 71 138.85 C68.84 141.45 66.44 143.24 63.7 145.22 C58.33 149.25 53.75 154.25 49 159 C32.83 159 16.66 159 0 159 C0 106.53 0 54.06 0 0 Z " fill="#DF2627" transform="translate(169,84)"/>
<path d="M0 0 C4.04 1.57 6.43 4.43 9.2 7.63 C10.26 8.82 11.32 10.01 12.38 11.2 C12.93 11.83 13.49 12.46 14.07 13.11 C41.58 47.16 41.58 47.16 79.01 65.48 C87.76 65.92 96.47 63.76 105 62 C104.87 63.1 104.74 64.19 104.6 65.32 C102.84 81.69 101.2 99.66 111.9 113.28 C118.78 121.46 126.78 128.59 134.81 135.62 C138.62 139.01 142.31 142.51 146.01 146.01 C153.23 152.8 160.57 159.44 168 166 C163.47 171.73 158.25 176.45 152.78 181.26 C119.33 208 119.33 208 102.03 244.79 C101.78 253.64 104.1 262.41 106 271 C104.87 270.87 103.74 270.74 102.58 270.61 C86.07 268.92 67.52 267.06 53.73 277.8 C45.67 284.55 38.66 292.43 31.77 300.35 C28.46 304.1 25.02 307.72 21.58 311.37 C14.93 318.47 8.42 325.69 2 333 C-2.04 331.44 -4.42 328.57 -7.19 325.37 C-8.24 324.18 -9.29 322.99 -10.35 321.8 C-10.91 321.17 -11.47 320.54 -12.04 319.89 C-39.64 285.73 -39.64 285.73 -77.29 267.52 C-86.28 267.07 -95.23 269.24 -104 271 C-103.84 269.9 -103.68 268.81 -103.51 267.68 C-100.29 243.84 -100.29 243.84 -108.1 221.91 C-115.26 212.74 -124.01 205 -132.74 197.38 C-136.56 194 -140.25 190.49 -143.96 186.99 C-151.2 180.2 -158.55 173.55 -166 167 C-161.48 161.27 -156.26 156.55 -150.81 151.74 C-117.44 124.93 -117.44 124.93 -99.75 88.21 C-99.3 79.4 -101.34 70.62 -103 62 C-101.35 62.19 -101.35 62.19 -99.67 62.39 C-83.4 64.1 -65.37 65.81 -51.82 55.2 C-43.76 48.43 -36.75 40.56 -29.84 32.65 C-26.52 28.91 -23.07 25.28 -19.63 21.63 C-12.96 14.53 -6.44 7.31 0 0 Z M0 16 C-1.62 17.62 -3.16 19.32 -4.67 21.03 C-5.66 22.14 -6.65 23.25 -7.64 24.36 C-8.43 25.25 -8.43 25.25 -9.24 26.16 C-12.67 29.98 -16.19 33.71 -19.71 37.46 C-22.77 40.74 -25.8 44.04 -28.74 47.43 C-50.11 71.87 -50.11 71.87 -67.99 73.13 C-76.36 73.46 -84.68 72.95 -93 72 C-92.99 74.01 -92.99 76.02 -92.98 78.03 C-92.97 79.73 -92.97 81.43 -92.96 83.13 C-92.96 86.64 -92.94 90.14 -92.89 93.65 C-92.67 107.78 -92.67 107.78 -95.79 112.98 C-98.07 115.29 -100.37 117.1 -103 119 C-109.08 124.05 -114.71 129.54 -120.31 135.11 C-121.17 135.96 -122.02 136.81 -122.9 137.68 C-124.69 139.46 -126.48 141.24 -128.27 143.03 C-131.01 145.76 -133.77 148.49 -136.53 151.21 C-138.27 152.95 -140.01 154.69 -141.75 156.42 C-142.58 157.24 -143.41 158.05 -144.26 158.89 C-145.01 159.65 -145.77 160.41 -146.55 161.19 C-147.22 161.86 -147.88 162.52 -148.57 163.21 C-150.31 165.01 -150.31 165.01 -150 168 C-148.61 169.58 -148.61 169.58 -146.69 171.09 C-145.95 171.7 -145.22 172.32 -144.46 172.96 C-143.65 173.63 -142.84 174.31 -142 175 C-133.85 181.99 -125.87 189.13 -118.06 196.5 C-117.52 197.02 -116.97 197.53 -116.41 198.06 C-91.95 221.28 -91.95 221.28 -91.36 239.24 C-91.52 246.62 -92.34 253.81 -94 261 C-93.11 260.74 -92.21 260.48 -91.29 260.22 C-79.23 257.12 -66.41 256.4 -55 262 C-43.72 269.39 -34.3 279.84 -25.06 289.56 C-24.13 290.55 -24.13 290.55 -23.17 291.55 C-15.28 299.89 -7.57 308.37 0 317 C3.88 315.45 5.98 313.04 8.7 309.92 C9.65 308.85 10.59 307.79 11.54 306.72 C12.04 306.15 12.54 305.59 13.05 305 C53.26 259.75 53.26 259.75 71.97 258.01 C80.12 257.75 88.15 258.85 96 261 C95.82 259.46 95.82 259.46 95.63 257.88 C92.37 226.91 92.37 226.91 101.44 215.27 C108.28 207.42 116.26 200.69 124.42 194.25 C130.99 189.04 136.99 183.22 142.94 177.31 C143.7 176.57 144.47 175.82 145.26 175.05 C145.99 174.33 146.72 173.61 147.46 172.86 C148.12 172.22 148.78 171.57 149.45 170.9 C151.21 168.74 151.88 167.79 152 165 C150 162.52 150 162.52 147.08 160.1 C145.97 159.11 144.86 158.12 143.75 157.14 C143.16 156.61 142.56 156.09 141.95 155.55 C138.78 152.74 135.69 149.84 132.59 146.95 C128.65 143.29 124.69 139.66 120.63 136.15 C96.12 114.84 96.12 114.84 94.86 97.02 C94.54 88.65 95.04 80.32 96 72 C94.01 72.02 92.02 72.04 90.03 72.06 C88.35 72.08 86.66 72.09 84.98 72.11 C81.51 72.14 78.05 72.18 74.59 72.27 C58.68 72.67 58.68 72.67 52.18 66.84 C50.69 65.28 49.26 63.67 47.84 62.04 C44.31 58.12 40.49 54.47 36.74 50.76 C34.28 48.31 31.84 45.85 29.4 43.39 C28.91 42.9 28.42 42.4 27.91 41.89 C25.37 39.32 22.83 36.76 20.29 34.19 C17.8 31.68 15.31 29.17 12.82 26.67 C11.42 25.26 10.02 23.84 8.63 22.43 C7.36 21.16 7.36 21.16 6.08 19.86 C5.33 19.12 4.59 18.37 3.83 17.6 C2.15 15.78 2.15 15.78 0 16 Z " fill="#D92A2B" transform="translate(248,0)"/>
<path d="M0 0 C3.92 1.96 5.94 3.7 9 6.77 C9.48 7.25 9.96 7.74 10.46 8.23 C12.05 9.83 13.64 11.43 15.22 13.03 C16.33 14.14 17.44 15.25 18.55 16.36 C21.46 19.28 24.37 22.21 27.28 25.14 C30.23 28.12 33.2 31.09 36.16 34.06 C41.37 39.29 46.57 44.52 51.77 49.75 C53.51 51.51 55.25 53.26 57 55 C53.62 55.84 51.33 56.11 48 55 C48 54.34 48 53.68 48 53 C47.05 52.77 46.1 52.55 45.12 52.31 C42 51 42 51 40.62 48.56 C40 46 40 46 40 43 C35.61 44.01 35.61 44.01 32.62 47.12 C32.42 47.74 32.21 48.36 32 49 C31.34 49 30.68 49 30 49 C29.5 49.99 29.5 49.99 29 51 C26 48 23 45 20 42 C18.78 40.8 18.78 40.8 17.54 39.57 C15.76 37.76 14.01 35.93 12.28 34.07 C11.35 33.09 10.43 32.11 9.5 31.12 C9.04 30.61 8.58 30.1 8.11 29.58 C6.58 27.92 6.58 27.92 4 26 C0.21 25.99 -1.13 27.11 -4.05 29.59 C-5.17 30.72 -6.29 31.86 -7.39 33 C-7.99 33.6 -8.58 34.2 -9.19 34.82 C-11.07 36.72 -12.94 38.64 -14.81 40.56 C-16.09 41.86 -17.37 43.16 -18.65 44.45 C-21.78 47.62 -24.89 50.81 -28 54 C-28.33 52.68 -28.66 51.36 -29 50 C-29.66 50 -30.32 50 -31 50 C-30.67 48.02 -30.34 46.04 -30 44 C-34.65 43.73 -34.65 43.73 -39 45 C-39 46.32 -39 47.64 -39 49 C-39.66 49 -40.32 49 -41 49 C-41.33 49.99 -41.66 50.98 -42 52 C-42.33 51.34 -42.66 50.68 -43 50 C-44.49 50.5 -44.49 50.5 -46 51 C-46.33 52.65 -46.66 54.3 -47 56 C-47.99 55.67 -48.98 55.34 -50 55 C-50 55.66 -50 56.32 -50 57 C-51.98 57.5 -51.98 57.5 -54 58 C-54.5 56.52 -54.5 56.52 -55 55 C-36.85 36.85 -18.7 18.7 0 0 Z " fill="#FDFEFD" transform="translate(248,16)"/>
<path d="M0 0 C3.44 1.37 5.76 4.19 8.3 6.8 C8.9 7.4 9.49 8 10.1 8.62 C12 10.52 13.88 12.44 15.76 14.36 C17.04 15.66 18.32 16.96 19.61 18.25 C22.75 21.43 25.88 24.61 29.01 27.8 C27.36 31.95 24.35 34.8 21.27 37.91 C20.42 38.77 20.42 38.77 19.55 39.65 C18.36 40.86 17.17 42.06 15.97 43.27 C14.13 45.11 12.32 46.98 10.5 48.84 C9.34 50.01 8.18 51.18 7.02 52.35 C6.47 52.91 5.93 53.47 5.37 54.05 C3.82 55.59 3.82 55.59 1.01 57.8 C-3.64 57.33 -6.19 53.98 -9.29 50.8 C-9.88 50.2 -10.48 49.6 -11.09 48.98 C-12.98 47.08 -14.86 45.16 -16.74 43.24 C-18.02 41.94 -19.31 40.64 -20.59 39.35 C-23.73 36.17 -26.86 32.99 -29.99 29.8 C-28.35 25.65 -25.33 22.8 -22.25 19.69 C-21.69 19.11 -21.12 18.54 -20.54 17.95 C-19.35 16.74 -18.15 15.54 -16.95 14.34 C-15.12 12.49 -13.3 10.62 -11.49 8.76 C-10.33 7.59 -9.16 6.42 -8 5.25 C-7.46 4.69 -6.92 4.13 -6.36 3.55 C-2.51 -0.25 -2.51 -0.25 0 0 Z " fill="#DD2728" transform="translate(248.99227905273438,230.19989013671875)"/>
<path d="M0 0 C1.34 1.36 1.34 1.36 2.94 3.31 C7.64 8.84 12.79 13.9 17.94 19 C18.92 19.98 19.9 20.95 20.88 21.93 C23.25 24.29 25.62 26.64 28 29 C26.36 33.2 23.27 35.99 20.12 39.08 C19.54 39.65 18.97 40.22 18.38 40.81 C16.55 42.63 14.71 44.44 12.88 46.25 C11.63 47.48 10.39 48.72 9.14 49.95 C6.1 52.97 3.05 55.99 0 59 C-4.08 57.38 -6.78 54.45 -9.79 51.37 C-10.33 50.82 -10.88 50.27 -11.44 49.71 C-13.17 47.95 -14.9 46.2 -16.62 44.44 C-18.36 42.68 -20.09 40.92 -21.83 39.16 C-22.91 38.07 -23.99 36.97 -25.06 35.87 C-27.76 33.08 -27.76 33.08 -31 31 C-29.35 26.73 -26.15 23.86 -22.97 20.7 C-22.38 20.11 -21.79 19.52 -21.18 18.9 C-19.93 17.65 -18.68 16.41 -17.42 15.16 C-15.5 13.25 -13.59 11.33 -11.68 9.4 C-10.46 8.19 -9.25 6.98 -8.03 5.77 C-7.46 5.19 -6.88 4.61 -6.29 4.01 C-2.23 0 -2.23 0 0 0 Z " fill="#DD2626" transform="translate(250,41)"/>
<path d="M0 0 C4.04 2.02 6.74 4.4 9.89 7.52 C10.45 8.07 11 8.61 11.57 9.17 C12.73 10.31 13.88 11.46 15.04 12.61 C16.81 14.37 18.6 16.12 20.4 17.86 C21.52 18.98 22.65 20.09 23.77 21.21 C24.31 21.73 24.85 22.25 25.4 22.79 C26.88 24.28 26.88 24.28 29 27 C28.52 31.64 25.21 34.19 22.03 37.3 C21.44 37.89 20.84 38.48 20.23 39.1 C18.97 40.35 17.71 41.59 16.44 42.84 C14.5 44.75 12.57 46.67 10.64 48.6 C9.41 49.81 8.19 51.02 6.97 52.23 C6.39 52.81 5.8 53.39 5.2 53.99 C1.12 58 1.12 58 0 58 C0 38.86 0 19.72 0 0 Z " fill="#DE2627" transform="translate(343,136)"/>
<path d="M0 0 C0.66 0 1.32 0 2 0 C2 19.14 2 38.28 2 58 C-3.88 52.96 -9.48 47.8 -14.98 42.37 C-16 41.36 -17.03 40.36 -18.06 39.37 C-19.56 37.92 -21.05 36.46 -22.53 34.99 C-23.41 34.13 -24.3 33.27 -25.21 32.38 C-27 30 -27 30 -27 27.93 C-25.78 25.57 -24.36 24.01 -22.46 22.14 C-21.74 21.41 -21.01 20.69 -20.26 19.95 C-19.49 19.2 -18.73 18.46 -17.94 17.69 C-17.2 16.95 -16.46 16.22 -15.7 15.46 C-11.45 11.27 -7.1 7.27 -2.53 3.42 C-0.88 2.06 -0.88 2.06 0 0 Z " fill="#DE2627" transform="translate(152,136)"/>
<path d="M0 0 C1.49 0.99 1.49 0.99 3 2 C5 2.33 5 2.33 7.2 2.32 C8.46 2.35 8.46 2.35 9.74 2.38 C10.65 2.39 11.55 2.4 12.48 2.41 C13.41 2.43 14.34 2.45 15.29 2.47 C18.26 2.53 21.22 2.58 24.19 2.62 C26.2 2.66 28.21 2.7 30.22 2.74 C35.14 2.84 40.07 2.92 45 3 C44.99 4.85 44.99 4.85 44.98 6.74 C44.97 11.35 45 15.95 45.04 20.56 C45.06 22.55 45.06 24.54 45.04 26.53 C45.03 29.4 45.06 32.26 45.1 35.13 C45.08 36.01 45.07 36.89 45.05 37.8 C45.17 42.89 45.91 45.45 49.56 49.12 C50.68 50.1 51.83 51.07 53 52 C52.01 52.5 52.01 52.5 51 53 C51 53.66 51 54.32 51 55 C48.69 54.67 46.38 54.34 44 54 C44 53.34 44 52.68 44 52 C43.01 52 42.02 52 41 52 C40.67 51.01 40.34 50.02 40 49 C40.99 48.67 41.98 48.34 43 48 C42.34 47.34 41.68 46.68 41 46 C40.88 42.88 40.88 42.88 41 40 C41.66 40 42.32 40 43 40 C43.33 28.45 43.66 16.9 44 5 C41.08 5.01 38.15 5.02 35.14 5.04 C32.31 5.04 29.48 5.05 26.65 5.05 C24.68 5.06 22.71 5.07 20.74 5.08 C17.92 5.09 15.09 5.09 12.26 5.1 C10.94 5.11 10.94 5.11 9.59 5.11 C8.77 5.11 7.95 5.11 7.1 5.11 C6.02 5.12 6.02 5.12 4.92 5.12 C3 5 3 5 0 4 C0 2.68 0 1.36 0 0 Z " fill="#CD3F3F" transform="translate(308,59)"/>
<path d="M0 0 C14.11 3.27 24.09 15.31 33.19 25.9 C35.26 28.3 37.38 30.65 39.5 33 C42.76 36.62 45.99 40.26 49.19 43.94 C51.96 47.09 54.78 50.2 57.59 53.31 C60.76 56.85 63.87 60.43 67 64 C67.33 54.43 67.66 44.86 68 35 C68.33 35 68.66 35 69 35 C69 45.23 69 55.46 69 66 C62.03 64.26 58.32 58.45 53.94 53 C49.55 47.54 44.83 42.44 40.02 37.34 C37.07 34.21 34.13 31.07 31.31 27.81 C21.58 16.41 21.58 16.41 10 7 C10 6.34 10 5.68 10 5 C8.02 5 6.04 5 4 5 C4 4.34 4 3.68 4 3 C2.68 2.67 1.36 2.34 0 2 C0 1.34 0 0.68 0 0 Z " fill="#C33232" transform="translate(201,85)"/>
<path d="M0 0 C4.04 2.02 6.74 4.4 9.89 7.52 C10.45 8.07 11 8.61 11.57 9.17 C12.73 10.31 13.88 11.46 15.04 12.61 C16.81 14.37 18.6 16.12 20.4 17.86 C21.52 18.98 22.65 20.09 23.77 21.21 C24.31 21.73 24.85 22.25 25.4 22.79 C26.88 24.28 26.88 24.28 29 27 C28.96 29.25 28.96 29.25 28 31 C25.94 32.75 25.94 32.75 24 34 C24 32.68 24 31.36 24 30 C24.99 30 25.98 30 27 30 C19.08 20.95 10.5 12.5 2 4 C2 21.49 2 38.98 2 57 C1.01 57.5 1.01 57.5 0 58 C0 38.86 0 19.72 0 0 Z " fill="#CD3C3B" transform="translate(343,136)"/>
<path d="M0 0 C0.66 0 1.32 0 2 0 C2 19.14 2 38.28 2 58 C-3.88 52.96 -9.48 47.8 -14.98 42.37 C-16 41.36 -17.03 40.36 -18.06 39.37 C-19.56 37.92 -21.05 36.46 -22.53 34.99 C-23.41 34.13 -24.3 33.27 -25.21 32.38 C-27 30 -27 30 -26.9 27.75 C-26 26 -26 26 -24 25 C-24.09 25.74 -24.17 26.49 -24.26 27.25 C-24.26 30.08 -24.26 30.08 -22.3 31.96 C-21.5 32.62 -20.7 33.27 -19.88 33.94 C-12.92 39.93 -6.49 46.51 0 53 C0 35.51 0 18.02 0 0 Z " fill="#CD3736" transform="translate(152,136)"/>
<path d="M0 0 C5.23 4.37 10.1 8.97 14.9 13.8 C15.62 14.53 16.35 15.25 17.09 16 C19.38 18.29 21.66 20.58 23.94 22.88 C25.5 24.44 27.05 26 28.61 27.56 C32.41 31.37 36.21 35.19 40 39 C39.01 39.33 38.02 39.66 37 40 C36.75 39.38 36.5 38.76 36.25 38.12 C35.2 35.9 35.2 35.9 33.25 35.12 C29.91 33.46 27.35 30.89 25 28 C25 27.34 25 26.68 25 26 C24.16 25.65 24.16 25.65 23.29 25.28 C20.47 23.7 18.57 21.78 16.3 19.46 C15.42 18.57 14.54 17.68 13.64 16.76 C12.73 15.83 11.81 14.9 10.88 13.94 C9.06 12.09 7.25 10.25 5.43 8.4 C4.63 7.58 3.83 6.76 3 5.92 C1.14 3.95 1.14 3.95 -1 3 C-0.67 2.01 -0.34 1.02 0 0 Z " fill="#F4E1E1" transform="translate(358,124)"/>
<path d="M0 0 C0.66 0.33 1.32 0.66 2 1 C2.33 1.99 2.66 2.98 3 4 C4.52 5.14 6.04 6.28 7.62 7.33 C9.92 10.12 9.94 12.44 10 16 C8.21 18.49 6.7 20.2 4.48 22.23 C3.91 22.79 3.33 23.35 2.74 23.92 C0.91 25.7 -0.95 27.44 -2.81 29.19 C-4.66 30.95 -6.5 32.71 -8.33 34.49 C-9.48 35.59 -10.63 36.68 -11.78 37.76 C-14.46 40.31 -16.66 42.52 -18 46 C-18.33 45.34 -18.66 44.68 -19 44 C-19.66 43.67 -20.32 43.34 -21 43 C-20.55 42.62 -20.1 42.24 -19.64 41.85 C-13.45 36.56 -7.73 30.84 -2 25.06 C-1.02 24.08 -0.05 23.1 0.93 22.12 C3.29 19.75 5.64 17.38 8 15 C6.39 11.59 4.59 9.38 1.88 6.75 C1.15 6.04 0.43 5.34 -0.32 4.61 C-0.87 4.08 -1.43 3.55 -2 3 C-1.34 2.67 -0.68 2.34 0 2 C0 1.34 0 0.68 0 0 Z " fill="#F5E6E5" transform="translate(269,245)"/>
</svg>
