<?xml version="1.0" encoding="UTF-8"?>
<!-- Generator: https://ezgif.com/png-to-svg -->
<svg version="1.1" xmlns="http://www.w3.org/2000/svg" width="512" height="512" viewBox="-202.673 -53.858 1005.346 1005.346" preserveAspectRatio="xMidYMid meet">
<path d="M0 0 C4.32 0.86 5.95 1.34 9.4 3.62 C10.21 4.14 11.02 4.67 11.85 5.21 C12.68 5.76 13.52 6.31 14.38 6.88 C19.81 10.45 24.99 13.46 31 16 C33.39 17.44 35.66 19.03 37.94 20.62 C43.08 24.14 48.28 27.38 53.75 30.38 C60.81 34.24 67.6 38.46 74.35 42.84 C77.82 45.07 81.23 47.17 84.95 48.95 C90.78 51.77 96.03 55.53 101.4 59.13 C106.36 62.42 111.33 65.23 116.67 67.81 C120.09 69.56 123.18 71.68 126.31 73.88 C130.89 77.01 135.45 79.88 140.38 82.44 C145.64 85.17 150.56 88.24 155.5 91.5 C160.4 94.73 165.28 97.79 170.5 100.5 C176.5 103.62 182.07 107.24 187.7 110.95 C191.88 113.69 196.07 116.2 200.5 118.5 C207.38 122.08 213.78 126.29 220.25 130.55 C226.22 134.67 226.22 134.67 233 137 C233 137.66 233 138.32 233 139 C233.74 139.27 234.47 139.55 235.23 139.83 C237.82 140.93 240.01 142.15 242.36 143.68 C243.57 144.46 243.57 144.46 244.8 145.25 C245.63 145.78 246.46 146.32 247.31 146.88 C253.94 151.21 253.94 151.21 260.92 154.95 C267.24 157.99 273 162.04 278.87 165.87 C284.13 169.26 289.35 172.3 295 175 C296.68 175.98 298.35 176.97 300 178 C300.53 177.62 301.07 177.25 301.62 176.86 C305.53 174.17 309.39 171.72 313.69 169.69 C321.18 166.08 328.52 161.47 335.09 156.38 C337.33 154.76 339.61 153.71 342.12 152.56 C347.76 149.82 352.83 146.53 358 143 C363.89 138.97 369.71 135.47 376.19 132.43 C382.47 129.24 388.17 125 393.91 120.95 C397 119 397 119 400.33 117.59 C404.79 115.66 408.65 113.17 412.69 110.5 C413.43 110.01 414.18 109.53 414.95 109.03 C419.1 106.31 419.1 106.31 423.08 103.34 C425.29 101.8 427.61 100.88 430.1 99.86 C433.53 98.31 436.64 96.23 439.81 94.19 C441.23 93.29 442.65 92.39 444.07 91.49 C445.09 90.84 445.09 90.84 446.13 90.18 C451.68 86.67 457.34 83.37 463.07 80.14 C468.27 77.21 473.31 74.18 478.25 70.81 C481.69 68.47 485.04 66.39 488.81 64.62 C496.64 60.91 504.26 55.82 511.01 50.38 C513.22 48.84 515.53 47.92 518.02 46.9 C521.88 45.14 525.41 42.81 529 40.56 C533.67 37.66 538.34 34.77 543.13 32.07 C547.12 29.79 551.06 27.42 555 25.06 C556.3 24.29 556.3 24.29 557.62 23.51 C561.44 21.23 565.18 18.93 568.77 16.3 C571.69 14.22 574.44 12.68 577.69 11.19 C583.33 8.47 588.33 5.18 593.41 1.54 C596 0 596 0 600 0 C600 247.17 600 494.34 600 749 C580 760 580 760 570 764 C568.18 764.86 566.38 765.75 564.61 766.69 C563.71 767.16 562.82 767.63 561.9 768.12 C561.01 768.59 560.11 769.07 559.19 769.56 C558.27 770.04 557.36 770.53 556.42 771.02 C551.38 773.68 551.38 773.68 546.49 776.59 C544.14 777.92 541.87 778.87 539.36 779.84 C533.78 782.01 528.58 784.73 523.31 787.56 C517.61 790.62 511.97 793.51 506 796 C503.53 797.19 501.07 798.39 498.62 799.62 C497.6 800.14 497.6 800.14 496.55 800.66 C492.85 802.52 489.18 804.43 485.53 806.38 C484.79 806.78 484.06 807.17 483.3 807.58 C481.9 808.33 480.5 809.09 479.11 809.85 C475.56 811.77 472.02 813.42 468.24 814.86 C462.2 817.21 456.65 820.34 451 823.5 C439.67 829.84 439.67 829.84 434.06 831.97 C427.73 834.38 421.92 837.72 416 841 C409.25 844.74 402.65 848.27 395.43 851.01 C390.93 852.84 386.71 855.2 382.44 857.5 C376.83 860.51 371.24 863.39 365.4 865.93 C360.46 868.13 355.65 870.58 350.81 873 C349.76 873.52 348.7 874.04 347.62 874.58 C341.42 877.64 341.42 877.64 335.55 881.27 C333.1 882.93 331.13 883.78 328.31 884.62 C321.71 886.86 315.77 890.22 309.73 893.65 C308.94 894.08 308.16 894.51 307.36 894.95 C306.66 895.35 305.97 895.74 305.25 896.15 C301.35 897.63 298.21 897.48 294.35 895.95 C293.48 895.46 292.6 894.98 291.7 894.48 C290.72 893.95 289.74 893.42 288.74 892.88 C287.73 892.32 286.72 891.76 285.69 891.19 C279.51 887.79 273.61 884.67 266.86 882.61 C264.56 881.85 262.69 880.78 260.69 879.44 C255.56 876.22 250.23 873.51 244.81 870.81 C243.53 870.17 243.53 870.17 242.22 869.52 C238.75 867.8 235.3 866.13 231.73 864.64 C225.19 861.9 219.01 858.35 212.75 855.04 C206.91 851.96 201.21 848.95 194.97 846.78 C190.56 845.03 186.5 842.51 182.38 840.19 C176.34 836.83 170.4 833.58 164 831 C157.68 828.45 151.83 825.25 145.88 821.94 C139.4 818.34 133.05 815.01 126.12 812.34 C119.24 809.39 112.71 805.65 106.11 802.12 C101.14 799.48 96.15 796.88 90.93 794.74 C85.73 792.53 80.8 789.78 75.81 787.12 C68.88 783.46 62.04 780.05 54.74 777.2 C50.77 775.46 47.09 773.28 43.36 771.09 C39.18 768.65 34.95 766.36 30.62 764.19 C29.54 763.64 28.46 763.1 27.35 762.54 C23.65 760.84 19.82 759.43 16 758 C8.08 753.54 8.08 753.54 0 749 C0 501.83 0 254.66 0 0 Z " fill="#1CB19A" transform="translate(0,0)"/>
<path d="M0 0 C4.32 0.86 5.95 1.34 9.4 3.62 C10.21 4.14 11.02 4.67 11.85 5.21 C12.68 5.76 13.52 6.31 14.38 6.88 C19.81 10.45 24.99 13.46 31 16 C33.39 17.44 35.66 19.03 37.94 20.62 C43.08 24.14 48.28 27.38 53.75 30.38 C60.81 34.24 67.6 38.46 74.35 42.84 C77.82 45.07 81.23 47.17 84.95 48.95 C90.78 51.77 96.03 55.53 101.4 59.13 C106.36 62.42 111.33 65.23 116.67 67.81 C120.09 69.56 123.18 71.68 126.31 73.88 C130.89 77.01 135.45 79.88 140.38 82.44 C145.64 85.17 150.56 88.24 155.5 91.5 C160.4 94.73 165.28 97.79 170.5 100.5 C176.5 103.62 182.07 107.24 187.7 110.95 C191.88 113.69 196.07 116.2 200.5 118.5 C207.38 122.08 213.78 126.29 220.25 130.55 C226.22 134.67 226.22 134.67 233 137 C233 137.66 233 138.32 233 139 C233.74 139.27 234.47 139.55 235.23 139.83 C237.82 140.93 240.01 142.15 242.36 143.68 C243.57 144.46 243.57 144.46 244.8 145.25 C245.63 145.78 246.46 146.32 247.31 146.88 C253.94 151.21 253.94 151.21 260.92 154.95 C267.24 157.99 273 162.04 278.87 165.87 C284.13 169.26 289.35 172.3 295 175 C296.68 175.98 298.35 176.97 300 178 C300.53 177.62 301.07 177.25 301.62 176.86 C305.53 174.17 309.39 171.72 313.69 169.69 C321.18 166.08 328.52 161.47 335.09 156.38 C337.33 154.76 339.61 153.71 342.12 152.56 C347.76 149.82 352.83 146.53 358 143 C363.89 138.97 369.71 135.47 376.19 132.43 C382.47 129.24 388.17 125 393.91 120.95 C397 119 397 119 400.33 117.59 C404.79 115.66 408.65 113.17 412.69 110.5 C413.43 110.01 414.18 109.53 414.95 109.03 C419.1 106.31 419.1 106.31 423.08 103.34 C425.29 101.8 427.61 100.88 430.1 99.86 C433.53 98.31 436.64 96.23 439.81 94.19 C441.23 93.29 442.65 92.39 444.07 91.49 C445.09 90.84 445.09 90.84 446.13 90.18 C451.68 86.67 457.34 83.37 463.07 80.14 C468.27 77.21 473.31 74.18 478.25 70.81 C481.69 68.47 485.04 66.39 488.81 64.62 C496.64 60.91 504.26 55.82 511.01 50.38 C513.22 48.84 515.53 47.92 518.02 46.9 C521.88 45.14 525.41 42.81 529 40.56 C533.67 37.66 538.34 34.77 543.13 32.07 C547.12 29.79 551.06 27.42 555 25.06 C556.3 24.29 556.3 24.29 557.62 23.51 C561.44 21.23 565.18 18.93 568.77 16.3 C571.69 14.22 574.44 12.68 577.69 11.19 C583.33 8.47 588.33 5.18 593.41 1.54 C596 0 596 0 600 0 C600 247.17 600 494.34 600 749 C580 760 580 760 570 764 C568.18 764.86 566.38 765.75 564.61 766.69 C563.71 767.16 562.82 767.63 561.9 768.12 C561.01 768.59 560.11 769.07 559.19 769.56 C558.27 770.04 557.36 770.53 556.42 771.02 C551.38 773.68 551.38 773.68 546.49 776.59 C544.14 777.92 541.87 778.87 539.36 779.84 C533.78 782.01 528.58 784.73 523.31 787.56 C517.61 790.62 511.97 793.51 506 796 C503.53 797.19 501.07 798.39 498.62 799.62 C497.6 800.14 497.6 800.14 496.55 800.66 C492.85 802.52 489.18 804.43 485.53 806.38 C484.79 806.78 484.06 807.17 483.3 807.58 C481.9 808.33 480.5 809.09 479.11 809.85 C475.56 811.77 472.02 813.42 468.24 814.86 C462.2 817.21 456.65 820.34 451 823.5 C439.67 829.84 439.67 829.84 434.06 831.97 C427.73 834.38 421.92 837.72 416 841 C409.25 844.74 402.65 848.27 395.43 851.01 C390.93 852.84 386.71 855.2 382.44 857.5 C376.83 860.51 371.24 863.39 365.4 865.93 C360.46 868.13 355.65 870.58 350.81 873 C349.76 873.52 348.7 874.04 347.62 874.58 C341.42 877.64 341.42 877.64 335.55 881.27 C333.1 882.93 331.13 883.78 328.31 884.62 C321.71 886.86 315.77 890.22 309.73 893.65 C308.94 894.08 308.16 894.51 307.36 894.95 C306.66 895.35 305.97 895.74 305.25 896.15 C301.35 897.63 298.21 897.48 294.35 895.95 C293.48 895.46 292.6 894.98 291.7 894.48 C290.72 893.95 289.74 893.42 288.74 892.88 C287.73 892.32 286.72 891.76 285.69 891.19 C279.51 887.79 273.61 884.67 266.86 882.61 C264.56 881.85 262.69 880.78 260.69 879.44 C255.56 876.22 250.23 873.51 244.81 870.81 C243.53 870.17 243.53 870.17 242.22 869.52 C238.75 867.8 235.3 866.13 231.73 864.64 C225.19 861.9 219.01 858.35 212.75 855.04 C206.91 851.96 201.21 848.95 194.97 846.78 C190.56 845.03 186.5 842.51 182.38 840.19 C176.34 836.83 170.4 833.58 164 831 C157.68 828.45 151.83 825.25 145.88 821.94 C139.4 818.34 133.05 815.01 126.12 812.34 C119.24 809.39 112.71 805.65 106.11 802.12 C101.14 799.48 96.15 796.88 90.93 794.74 C85.73 792.53 80.8 789.78 75.81 787.12 C68.88 783.46 62.04 780.05 54.74 777.2 C50.77 775.46 47.09 773.28 43.36 771.09 C39.18 768.65 34.95 766.36 30.62 764.19 C29.54 763.64 28.46 763.1 27.35 762.54 C23.65 760.84 19.82 759.43 16 758 C8.08 753.54 8.08 753.54 0 749 C0 501.83 0 254.66 0 0 Z M540.42 97.17 C539.68 97.64 538.95 98.12 538.19 98.61 C537.38 99.13 536.58 99.65 535.75 100.19 C528.52 104.82 521.22 109.29 513.81 113.62 C507.62 117.26 501.45 120.91 495.38 124.75 C488.22 129.27 480.99 133.67 473.75 138.06 C473.16 138.42 472.56 138.78 471.95 139.16 C468.88 141.02 465.81 142.88 462.74 144.74 C457.21 148.08 451.69 151.44 446.16 154.79 C444.97 155.51 443.78 156.23 442.59 156.96 C434.73 161.73 426.87 166.52 419.03 171.32 C415.18 173.68 411.32 176.02 407.45 178.33 C406.23 179.06 405.03 179.8 403.83 180.55 C400.43 182.65 397.05 184.46 393.39 186.06 C384.72 190.02 384.72 190.02 379 197.26 C377.46 203.86 377.93 210.57 378.24 217.29 C378.28 219.45 378.3 221.61 378.32 223.77 C378.39 229.42 378.56 235.07 378.76 240.72 C378.95 246.5 379.03 252.28 379.12 258.06 C379.31 269.37 379.62 280.69 380 292 C378.25 291.05 376.51 290.1 374.76 289.16 C373.79 288.63 372.82 288.1 371.82 287.56 C368.06 285.48 364.4 283.26 360.75 281 C359.19 280.04 357.64 279.09 356.08 278.13 C355.26 277.63 354.45 277.12 353.6 276.6 C348.89 273.7 344.16 270.82 339.44 267.94 C338.46 267.34 337.48 266.74 336.47 266.13 C330.76 262.65 325.02 259.24 319.25 255.88 C312.5 251.94 305.89 247.8 299.3 243.61 C290.31 237.89 281.16 232.45 272 227 C263.56 221.97 255.16 216.87 246.81 211.69 C239.25 206.99 231.64 202.36 224 197.79 C216.81 193.49 209.65 189.16 202.5 184.81 C201.91 184.45 201.32 184.1 200.71 183.73 C198.3 182.26 195.89 180.8 193.48 179.33 C189.25 176.76 185.02 174.19 180.79 171.62 C162.46 160.5 144.12 149.36 125.82 138.17 C116.97 132.76 108.11 127.36 99.24 121.97 C96.97 120.59 94.7 119.21 92.44 117.83 C89.34 115.94 86.24 114.06 83.14 112.17 C81.94 111.45 80.75 110.72 79.56 109.99 C73.49 106.3 67.41 102.62 61.29 99 C59.84 98.13 59.84 98.13 58.35 97.25 C56.15 95.84 56.15 95.84 54 96 C53.82 124.96 53.68 153.92 53.59 182.88 C53.58 186.3 53.57 189.72 53.56 193.14 C53.56 193.82 53.56 194.5 53.55 195.2 C53.52 206.22 53.46 217.24 53.38 228.27 C53.31 239.57 53.26 250.88 53.25 262.19 C53.24 268.54 53.21 274.89 53.15 281.25 C53.1 287.22 53.08 293.2 53.1 299.17 C53.09 301.37 53.08 303.57 53.05 305.76 C53.01 308.76 53.02 311.75 53.04 314.74 C53.01 315.62 52.99 316.49 52.97 317.39 C53.02 319.85 53.12 321.7 54 324 C56.43 326.22 59.01 327.66 62 329 C59.69 328.34 57.38 327.68 55 327 C54.78 329.93 54.78 329.93 56 332 C56.66 332 57.32 332 58 332 C58 332.66 58 333.32 58 334 C59.32 334.33 60.64 334.66 62 335 C62.33 336.98 62.66 338.96 63 341 C63.66 341 64.32 341 65 341 C66.21 343.33 67.17 345.5 68 348 C67.34 348 66.68 348 66 348 C65.67 347.01 65.34 346.02 65 345 C64.34 345 63.68 345 63 345 C62.67 343.68 62.34 342.36 62 341 C61.01 341 60.02 341 59 341 C59 340.34 59 339.68 59 339 C57.68 339.33 56.36 339.66 55 340 C55.66 345.28 56.32 350.56 57 356 C56.34 356.33 55.68 356.66 55 357 C53.92 360.23 53.88 362.54 53.88 365.93 C53.87 367.17 53.87 368.42 53.87 369.7 C53.87 371.1 53.88 372.49 53.88 373.88 C53.88 375.35 53.88 376.82 53.88 378.29 C53.87 382.34 53.88 386.39 53.88 390.45 C53.89 394.81 53.89 399.18 53.89 403.54 C53.89 411.11 53.89 418.68 53.89 426.25 C53.9 437.19 53.91 448.13 53.91 459.07 C53.91 476.82 53.92 494.57 53.92 512.33 C53.93 529.57 53.94 546.82 53.95 564.07 C53.95 565.13 53.95 566.19 53.95 567.29 C53.95 572.62 53.95 577.95 53.95 583.28 C53.96 627.52 53.98 671.76 54 716 C55.08 716.54 56.16 717.08 57.27 717.63 C58.71 718.35 60.15 719.07 61.59 719.79 C62.3 720.15 63.01 720.5 63.74 720.87 C68.92 723.45 74.09 726.06 79.25 728.68 C81.23 729.63 83.23 730.52 85.25 731.38 C89.75 733.28 94.08 735.49 98.44 737.69 C100.24 738.59 102.04 739.5 103.85 740.41 C104.73 740.85 105.61 741.3 106.52 741.75 C109.8 743.4 113.09 745.05 116.38 746.69 C117.65 747.33 118.93 747.97 120.21 748.61 C120.93 748.97 121.66 749.33 122.4 749.7 C145.04 761.02 167.68 772.34 190.31 783.66 C191.93 784.46 191.93 784.46 193.57 785.29 C195.95 786.48 198.33 787.67 200.71 788.86 C207.9 792.47 215.1 796.04 222.34 799.54 C223.13 799.92 223.91 800.31 224.73 800.7 C227.95 802.26 231.17 803.82 234.39 805.37 C250.95 813.36 250.95 813.36 257.29 817.05 C261.29 819.28 265.5 821.1 270 822 C268.34 816.4 265.85 811.3 263.31 806.06 C262.4 804.17 261.49 802.28 260.59 800.39 C260.14 799.46 259.7 798.54 259.24 797.59 C257.62 794.2 256.02 790.79 254.44 787.38 C252.6 783.43 250.76 779.49 248.89 775.56 C244.97 767.35 241.14 759.12 237.44 750.81 C234.38 743.94 231.17 737.16 227.74 730.46 C227.15 729.3 226.56 728.14 225.99 726.98 C225.33 725.67 224.66 724.37 223.96 723.09 C220.77 716.74 220.43 711.23 220.49 704.2 C220.48 703.04 220.47 701.88 220.47 700.68 C220.45 697.49 220.46 694.29 220.47 691.09 C220.47 687.63 220.46 684.17 220.44 680.71 C220.42 674.73 220.42 668.74 220.42 662.76 C220.43 654.1 220.41 645.45 220.39 636.79 C220.35 622.74 220.33 608.68 220.33 594.63 C220.32 580.99 220.31 567.36 220.28 553.72 C220.28 552.88 220.28 552.04 220.28 551.17 C220.26 541.99 220.25 532.82 220.23 523.64 C220.23 522.84 220.23 522.03 220.22 521.2 C220.21 516.37 220.21 516.37 220.21 511.53 C220.19 502.1 220.17 492.67 220.17 483.23 C220.16 477.32 220.16 471.41 220.15 465.49 C220.14 462.08 220.14 458.67 220.14 455.25 C220.14 451.56 220.14 447.86 220.13 444.16 C220.13 443.08 220.13 442 220.14 440.88 C220.13 439.89 220.13 438.9 220.13 437.89 C220.13 437.03 220.13 436.18 220.13 435.3 C219.96 432.22 219.38 429.76 218 427 C217.34 427 216.68 427 216 427 C215 425 214 423 213 421 C212.01 421 211.02 421 210 421 C210 420.34 210 419.68 210 419 C205.06 416.49 200.12 414.13 195 412 C195.33 411.34 195.66 410.68 196 410 C203.26 414.31 210.42 418.75 217.56 423.25 C225.28 428.09 233.03 432.85 240.91 437.43 C249.79 442.61 258.52 448.02 267.27 453.4 C269.53 454.79 271.8 456.17 274.06 457.56 C275.18 458.25 275.18 458.25 276.32 458.95 C281.36 462.03 286.45 465.03 291.56 468 C298.12 471.82 304.49 475.87 310.84 480.04 C316.2 483.54 321.68 486.71 327.27 489.84 C332.66 492.91 337.87 496.31 343.11 499.64 C347.42 502.39 351.75 505.07 356.19 507.62 C357.04 508.15 357.88 508.67 358.76 509.21 C361.24 510.58 363.37 511.53 366.01 512.47 C370.85 514.46 374.89 516.69 378 521 C380.87 529.71 380.04 539.4 379.82 548.47 C379.75 552.2 379.77 555.92 379.78 559.65 C379.78 566.75 379.71 573.86 379.6 580.96 C379.48 588.83 379.45 596.7 379.43 604.57 C379.41 614.56 379.36 624.55 379.23 634.54 C379.2 637.56 379.16 640.57 379.12 643.59 C379.11 644.33 379.1 645.07 379.09 645.83 C378.97 656.22 379.08 666.58 379.35 676.98 C379.42 680.67 379.5 684.37 379.57 688.07 C379.63 690.33 379.7 692.59 379.8 694.85 C380.57 712.41 376.25 724.61 368 740 C366.65 742.68 365.33 745.37 364 748.06 C363.48 749.06 362.97 750.07 362.44 751.1 C361.43 753.12 360.5 755.18 359.61 757.26 C358.1 760.82 356.44 764.3 354.75 767.78 C354.45 768.4 354.15 769.02 353.84 769.65 C352.58 772.26 351.31 774.86 350.04 777.47 C349.11 779.38 348.18 781.3 347.25 783.22 C346.7 784.35 346.15 785.49 345.58 786.65 C343.97 790.07 342.48 793.52 341 797 C340.11 798.98 339.21 800.96 338.3 802.93 C337.81 803.99 337.33 805.05 336.83 806.15 C336.08 807.78 336.08 807.78 335.31 809.44 C334.8 810.55 334.29 811.66 333.76 812.81 C332.51 815.54 331.26 818.27 330 821 C339.29 821 350.2 812.96 358.5 808.8 C360.11 807.99 361.72 807.19 363.33 806.38 C367.55 804.27 371.77 802.16 375.99 800.04 C380.23 797.91 384.48 795.79 388.73 793.66 C394.27 790.89 399.81 788.11 405.35 785.33 C408.2 783.91 411.05 782.48 413.89 781.06 C415.32 780.34 416.74 779.63 418.17 778.91 C425.66 775.16 433.14 771.41 440.69 767.78 C442.17 767.07 443.64 766.36 445.12 765.64 C447.34 764.57 449.57 763.5 451.79 762.43 C460.86 758.06 469.82 753.57 478.65 748.74 C482.04 746.98 485.48 745.48 489 744 C490.65 743.21 492.3 742.41 493.93 741.58 C494.82 741.14 495.71 740.69 496.62 740.23 C497.55 739.76 498.48 739.3 499.44 738.81 C501.41 737.82 503.39 736.83 505.36 735.84 C506.32 735.35 507.29 734.87 508.28 734.37 C510.63 733.19 512.98 732.02 515.33 730.85 C525.65 725.73 535.79 720.37 546 715 C546 510.4 546 305.8 546 95 C543.46 95 542.54 95.79 540.42 97.17 Z " fill="#171D27" transform="translate(0,0)"/>
<path d="M0 0 C8.06 1.55 14.28 4.69 21.05 9.16 C23.67 10.79 26.1 11.97 29 13 C29 13.66 29 14.32 29 15 C29.66 15.23 30.32 15.45 31 15.69 C33.55 16.8 35.62 17.99 37.94 19.5 C41.18 21.59 44.25 22.97 48 24 C48 24.66 48 25.32 48 26 C48.91 26.25 49.81 26.5 50.75 26.75 C54 28 54 28 55.77 29.82 C58.54 32.53 61.64 34.32 65 36.19 C65.62 36.54 66.23 36.9 66.87 37.26 C69.9 38.98 72.64 40.18 76 41 C77.67 42.67 79.33 44.33 81 46 C83.17 46.86 83.17 46.86 85 47 C85 47.66 85 48.32 85 49 C85.69 49.25 86.38 49.49 87.09 49.75 C91.09 51.47 94.62 53.81 98.27 56.17 C101.13 57.98 103.63 59.46 107 60 C107 60.66 107 61.32 107 62 C108.98 62.5 108.98 62.5 111 63 C111 63.66 111 64.32 111 65 C111.73 65.28 112.47 65.56 113.22 65.84 C115.78 66.91 118.05 68.09 120.43 69.5 C121.25 69.97 122.06 70.45 122.9 70.94 C124.16 71.68 124.16 71.68 125.44 72.44 C130.56 75.45 135.64 78.43 141 81 C140.67 82.32 140.34 83.64 140 85 C140.58 85.25 141.16 85.51 141.76 85.77 C146.23 87.74 150.65 89.77 155 92 C155 92.66 155 93.32 155 94 C155.99 94 156.98 94 158 94 C161 97.33 161 97.33 161 100 C161.66 100 162.32 100 163 100 C164.76 103.8 165.24 106.74 165.2 110.92 C165.19 112.75 165.19 112.75 165.18 114.61 C165.18 115.28 165.17 115.94 165.16 116.63 C165.13 118.82 165.12 121.02 165.11 123.21 C165.09 126.59 165.07 129.96 165.04 133.34 C164.97 142.84 164.95 152.35 164.93 161.85 C164.92 165.49 164.91 169.13 164.89 172.77 C164.83 193.9 164.81 215.03 164.82 236.17 C164.82 239.8 164.82 243.43 164.82 247.06 C164.82 248.14 164.82 248.14 164.82 249.25 C164.82 260.98 164.79 272.71 164.73 284.44 C164.68 296.58 164.67 308.72 164.7 320.87 C164.71 327.65 164.7 334.42 164.65 341.2 C164.6 347.57 164.61 353.94 164.65 360.31 C164.66 362.62 164.64 364.94 164.61 367.25 C164.38 384.89 168.73 397.53 177 413 C178.09 415.15 179.16 417.3 180.24 419.46 C181.16 421.32 182.1 423.16 183.04 425.01 C185.77 430.48 188.22 436.1 190.7 441.69 C193.46 447.87 196.4 453.94 199.49 459.96 C200.8 462.59 201.98 465.25 203.12 467.95 C205.48 473.43 208.02 478.84 210.5 484.26 C210.94 485.21 211.37 486.16 211.82 487.14 C212.21 488 212.61 488.86 213.02 489.75 C214 492 214 492 215 495 C210.37 493.59 206.14 491.68 201.84 489.47 C200.42 488.75 199 488.03 197.57 487.3 C196.82 486.93 196.08 486.55 195.31 486.16 C191.38 484.19 187.43 482.27 183.47 480.34 C182.65 479.95 181.84 479.55 181 479.14 C178.5 477.93 176 476.71 173.5 475.5 C162.3 470.06 151.11 464.59 139.99 459 C136.51 457.25 133.04 455.52 129.56 453.78 C128.14 453.07 126.71 452.36 125.29 451.64 C124.58 451.29 123.87 450.94 123.15 450.57 C109.2 443.6 95.26 436.63 81.31 429.66 C80.27 429.14 79.23 428.62 78.16 428.08 C75.98 426.99 73.79 425.9 71.61 424.8 C66.84 422.42 62.08 420.04 57.3 417.67 C55.97 417.01 54.64 416.35 53.31 415.69 C52.69 415.38 52.07 415.07 51.44 414.75 C46.95 412.51 42.53 410.14 38.12 407.75 C34.24 405.65 30.4 403.66 26.25 402.12 C20.06 399.82 14.32 396.56 8.51 393.44 C7.71 393.01 6.92 392.58 6.1 392.14 C5.02 391.56 5.02 391.56 3.93 390.97 C1.87 389.88 1.87 389.88 -1 389 C-1.02 343.72 -1.04 298.43 -1.05 253.15 C-1.05 247.8 -1.05 242.46 -1.05 237.12 C-1.06 236.06 -1.06 234.99 -1.06 233.9 C-1.06 216.66 -1.07 199.42 -1.08 182.19 C-1.09 164.51 -1.09 146.83 -1.09 129.15 C-1.1 118.24 -1.1 107.32 -1.11 96.41 C-1.11 88.93 -1.11 81.45 -1.11 73.98 C-1.11 69.66 -1.11 65.34 -1.12 61.02 C-1.12 57.07 -1.12 53.12 -1.12 49.17 C-1.12 47.74 -1.12 46.31 -1.12 44.88 C-1.13 42.93 -1.13 40.99 -1.12 39.05 C-1.12 37.43 -1.12 37.43 -1.12 35.78 C-1.02 33.35 -0.7 31.32 0 29 C0.66 29 1.32 29 2 29 C1.34 23.39 0.68 17.78 0 12 C1.32 12 2.64 12 4 12 C4 12.66 4 13.32 4 14 C5.32 14.33 6.64 14.66 8 15 C8 15.99 8 16.98 8 18 C8.99 18.33 9.98 18.66 11 19 C11 19.66 11 20.32 11 21 C11.66 21 12.32 21 13 21 C12.5 20.22 12.01 19.43 11.5 18.62 C10 16 10 16 10 14 C9.34 14 8.68 14 8 14 C7.67 12.02 7.34 10.04 7 8 C5.68 7.67 4.36 7.34 3 7 C3 6.34 3 5.68 3 5 C2.34 5 1.68 5 1 5 C0.67 3.35 0.34 1.7 0 0 Z " fill="#03988E" transform="translate(55,327)"/>
<path d="M0 0 C6.53 3.56 12.94 7.09 19.25 11 C20.8 11.95 22.35 12.9 23.89 13.86 C24.71 14.36 25.53 14.86 26.37 15.38 C31.22 18.37 36.08 21.34 40.94 24.31 C41.87 24.89 42.81 25.46 43.77 26.05 C50.7 30.29 57.73 34.36 65 38 C65 38.66 65 39.32 65 40 C65.99 40.34 65.99 40.34 67 40.69 C69.52 41.79 71.58 42.95 73.88 44.44 C77.45 46.73 81.08 48.36 85 50 C89.3 52.16 92.61 54.61 96 58 C99.39 60.11 102.54 61.81 106.24 63.33 C110.35 65.07 114.04 67.33 117.81 69.69 C118.57 70.15 119.32 70.62 120.1 71.1 C121.79 72.14 123.47 73.19 125.16 74.24 C130.03 77.26 134.91 80.26 139.79 83.26 C141.46 84.29 143.12 85.31 144.79 86.34 C145.84 86.99 146.89 87.63 147.97 88.3 C148.98 88.93 150 89.55 151.04 90.19 C154.65 92.4 158.3 94.54 161.96 96.66 C163.97 97.98 165.5 99.13 167 101 C167.22 103.65 167.28 106.05 167.19 108.69 C167.17 109.39 167.16 110.09 167.15 110.81 C167.11 112.54 167.06 114.27 167 116 C166.67 116 166.34 116 166 116 C166 111.38 166 106.76 166 102 C164.68 102 163.36 102 162 102 C162 101.01 162 100.02 162 99 C160.91 98.88 159.81 98.75 158.69 98.62 C155 98 155 98 152 96 C150.95 95.73 149.9 95.46 148.81 95.19 C145.61 94.19 144.02 93.45 141.38 91.62 C136.87 88.61 132.06 87.37 126.86 85.99 C123.92 84.97 123.07 84.17 121 82 C119.12 81.1 117.19 80.27 115.25 79.5 C114.18 79.07 113.11 78.64 112 78.19 C111.01 77.8 110.02 77.41 109 77 C104.73 75.28 100.77 73.31 96.8 70.96 C94.96 69.98 93.16 69.3 91.19 68.62 C87.93 67.48 85.23 65.97 82.31 64.12 C77.43 61.08 72.4 59.1 66.98 57.18 C64 56 64 56 61.61 54.47 C57.65 52.24 53.31 51.57 48.88 50.71 C43.84 49.6 41.57 47.88 38 44 C35.91 42.98 35.91 42.98 33.75 42.5 C30.36 41.51 27.55 40.29 24.5 38.5 C20.14 35.96 15.83 34.46 11 33 C11.66 35.64 12.32 38.28 13 41 C7.61 40.5 6.61 39.69 2 36 C1.67 70.32 1.34 104.64 1 140 C0.67 140 0.34 140 0 140 C0 93.8 0 47.6 0 0 Z " fill="#0E6A65" transform="translate(379,521)"/>
<path d="M0 0 C0.99 0.33 1.98 0.66 3 1 C2.34 1 1.68 1 1 1 C1 76.24 1 151.48 1 229 C2.65 229.66 4.3 230.32 6 231 C7.36 231.96 8.71 232.95 10 234 C8 235 8 235 4.88 234.06 C3.93 233.71 2.98 233.36 2 233 C2.33 234.32 2.66 235.64 3 237 C3.66 237 4.32 237 5 237 C5 237.66 5 238.32 5 239 C6.32 239.33 7.64 239.66 9 240 C9.33 241.98 9.66 243.96 10 246 C10.66 246 11.32 246 12 246 C14.3 248.56 15 249.48 15 253 C13 253 13 253 11.44 251.69 C10 250 10 250 9 247 C8.01 246.67 7.02 246.34 6 246 C6 245.34 6 244.68 6 244 C5.01 244.33 4.02 244.66 3 245 C3.14 245.81 3.29 246.62 3.44 247.45 C3.62 248.52 3.81 249.59 4 250.69 C4.19 251.74 4.37 252.8 4.56 253.89 C4.95 256.65 5.08 259.22 5 262 C4.34 262 3.68 262 3 262 C1.93 265.22 1.87 267.53 1.86 270.91 C1.86 272.16 1.85 273.4 1.84 274.68 C1.84 276.07 1.84 277.45 1.84 278.84 C1.84 280.3 1.83 281.77 1.83 283.24 C1.81 287.28 1.81 291.32 1.8 295.36 C1.79 299.71 1.78 304.07 1.76 308.42 C1.74 315.97 1.72 323.52 1.71 331.06 C1.69 341.97 1.66 352.88 1.63 363.79 C1.58 381.5 1.54 399.2 1.5 416.9 C1.46 434.1 1.42 451.29 1.37 468.49 C1.37 469.55 1.37 470.61 1.36 471.7 C1.35 477.02 1.34 482.33 1.32 487.65 C1.21 531.77 1.1 575.88 1 620 C0.67 620 0.34 620 0 620 C0 415.4 0 210.8 0 0 Z " fill="#154848" transform="translate(53,95)"/>
<path d="M0 0 C9.76 5.52 19.41 11.2 29 17 C28.34 17.66 27.68 18.32 27 19 C26.69 21.18 26.69 21.18 26.74 23.74 C26.73 25.25 26.73 25.25 26.72 26.8 C26.72 27.91 26.72 29.03 26.72 30.17 C26.72 31.35 26.71 32.53 26.7 33.74 C26.69 37.02 26.68 40.3 26.68 43.58 C26.68 47.11 26.66 50.65 26.65 54.18 C26.63 60.3 26.61 66.42 26.6 72.55 C26.59 81.4 26.56 90.25 26.54 99.11 C26.49 113.47 26.45 127.83 26.42 142.2 C26.39 156.15 26.36 170.11 26.32 184.06 C26.31 185.35 26.31 185.35 26.31 186.67 C26.3 190.98 26.29 195.29 26.27 199.61 C26.17 235.4 26.08 271.2 26 307 C25.67 307 25.34 307 25 307 C25 306.4 25 305.81 24.99 305.19 C24.89 269.84 24.78 234.5 24.67 199.15 C24.66 194.91 24.64 190.66 24.63 186.42 C24.62 185.57 24.62 184.73 24.62 183.86 C24.58 170.18 24.53 156.49 24.5 142.81 C24.45 128.77 24.41 114.74 24.36 100.7 C24.33 92.04 24.31 83.37 24.28 74.71 C24.27 68.77 24.25 62.83 24.23 56.89 C24.21 53.47 24.2 50.04 24.2 46.61 C24.19 42.9 24.17 39.18 24.16 35.47 C24.16 34.38 24.16 33.3 24.16 32.18 C24.13 27.34 24.02 22.75 23 18 C22.34 18 21.68 18 21 18 C18 14.54 18 14.54 18 12 C17.01 12 16.02 12 15 12 C15 11.34 15 10.68 15 10 C13.89 9.85 13.89 9.85 12.75 9.69 C9.76 8.94 8.42 7.84 6 6 C4.02 5.28 2.02 4.6 0 4 C0 2.68 0 1.36 0 0 Z " fill="#134647" transform="translate(195,409)"/>
</svg>
