<?xml version="1.0" encoding="UTF-8"?>
<!-- Generator: https://ezgif.com/png-to-svg -->
<svg version="1.1" xmlns="http://www.w3.org/2000/svg" width="512" height="512" viewBox="62.245 62.577 874.998 874.998" preserveAspectRatio="xMidYMid meet">
<path d="M0 0 C21.56 -0.12 43.11 -0.2 64.67 -0.26 C74.68 -0.28 84.69 -0.32 94.7 -0.38 C103.42 -0.43 112.15 -0.46 120.87 -0.47 C125.49 -0.48 130.11 -0.49 134.73 -0.53 C139.08 -0.56 143.42 -0.57 147.77 -0.57 C149.37 -0.57 150.96 -0.58 152.56 -0.6 C154.74 -0.62 156.92 -0.61 159.1 -0.6 C160.32 -0.61 161.54 -0.61 162.79 -0.62 C168.04 0.39 170.69 4.28 173.62 8.5 C174.07 9.15 174.53 9.8 174.99 10.47 C175.71 11.5 175.71 11.5 176.44 12.56 C176.95 13.3 177.46 14.03 177.99 14.79 C179.09 16.36 180.18 17.94 181.28 19.52 C183.04 22.06 184.81 24.58 186.58 27.11 C191.62 34.28 196.64 41.47 201.62 48.69 C205.4 54.15 209.23 59.57 213.06 64.99 C217.45 71.2 221.79 77.44 226.12 83.69 C230.48 89.97 234.85 96.23 239.31 102.44 C244.25 109.31 249.03 116.28 253.81 123.26 C257.52 128.67 261.29 134.02 265.14 139.33 C265.71 140.12 266.28 140.9 266.87 141.72 C268.01 143.28 269.15 144.84 270.29 146.41 C273.74 151.15 276.96 155.98 280 161 C284.59 156.77 287.98 152 291.5 146.88 C292.11 146 292.71 145.12 293.34 144.22 C298.1 137.34 302.82 130.43 307.53 123.51 C310.87 118.62 314.29 113.8 317.8 109.03 C322.68 102.31 327.39 95.47 332.14 88.66 C333.97 86.05 335.8 83.44 337.63 80.82 C343.49 72.46 349.33 64.08 355.1 55.66 C358.42 50.82 361.81 46.04 365.24 41.28 C368.34 36.95 371.37 32.58 374.38 28.19 C378.39 22.33 382.42 16.5 386.5 10.69 C387 9.96 387.51 9.24 388.03 8.49 C388.5 7.82 388.98 7.14 389.47 6.45 C389.89 5.85 390.3 5.26 390.73 4.65 C391.15 4.1 391.57 3.56 392 3 C392.39 2.48 392.78 1.96 393.19 1.42 C395.86 -0.67 397.93 -0.37 401.29 -0.36 C402.59 -0.36 403.89 -0.36 405.22 -0.37 C406.64 -0.35 408.06 -0.34 409.48 -0.33 C410.93 -0.33 412.38 -0.32 413.83 -0.32 C416.87 -0.32 419.9 -0.3 422.94 -0.28 C426.84 -0.25 430.75 -0.24 434.65 -0.24 C437.64 -0.23 440.64 -0.22 443.63 -0.21 C445.07 -0.21 446.51 -0.2 447.95 -0.2 C449.95 -0.19 451.96 -0.18 453.97 -0.16 C455.68 -0.15 455.68 -0.15 457.43 -0.14 C460 0 460 0 461 1 C461.1 3.96 461.13 6.89 461.13 9.85 C461.13 10.78 461.13 11.72 461.13 12.69 C461.14 15.86 461.13 19.04 461.13 22.21 C461.13 24.48 461.13 26.74 461.13 29 C461.14 35.17 461.14 41.34 461.13 47.51 C461.13 53.95 461.13 60.39 461.14 66.83 C461.14 78.35 461.13 89.86 461.13 101.37 C461.12 111.82 461.13 122.26 461.13 132.71 C461.14 144.83 461.14 156.95 461.13 169.07 C461.13 175.49 461.13 181.91 461.14 188.33 C461.14 194.36 461.14 200.4 461.13 206.43 C461.13 208.65 461.13 210.88 461.13 213.1 C461.14 216.12 461.13 219.14 461.13 222.15 C461.13 223.05 461.13 223.94 461.13 224.86 C461.11 230.89 461.11 230.89 460 232 C458.35 232.1 456.7 232.14 455.05 232.15 C454 232.15 452.94 232.16 451.86 232.16 C450.71 232.17 449.56 232.17 448.38 232.17 C447.21 232.17 446.04 232.17 444.83 232.18 C442.35 232.18 439.87 232.19 437.39 232.19 C433.58 232.19 429.77 232.21 425.97 232.22 C423.56 232.23 421.16 232.23 418.75 232.23 C417.04 232.24 417.04 232.24 415.28 232.25 C414.22 232.25 413.17 232.25 412.08 232.24 C411.14 232.24 410.21 232.25 409.25 232.25 C407 232 407 232 405 230 C404.74 227.49 404.74 227.49 404.72 224.25 C404.7 222.42 404.7 222.42 404.69 220.55 C404.69 219.19 404.68 217.82 404.68 216.46 C404.67 215.03 404.66 213.6 404.65 212.18 C404.62 208.29 404.61 204.4 404.6 200.52 C404.58 196.46 404.55 192.4 404.53 188.34 C404.48 180.65 404.44 172.96 404.41 165.28 C404.37 156.52 404.32 147.77 404.27 139.02 C404.17 121.01 404.08 103.01 404 85 C402.42 87.21 400.84 89.41 399.27 91.62 C398.82 92.23 398.38 92.85 397.93 93.49 C394.41 98.41 390.96 103.37 387.53 108.35 C382.67 115.38 377.75 122.37 372.84 129.37 C371.03 131.96 369.22 134.55 367.41 137.13 C362.43 144.26 357.44 151.38 352.41 158.48 C347.1 165.98 341.87 173.53 336.71 181.14 C333.92 185.26 331.05 189.32 328.11 193.34 C323.25 200 318.58 206.78 313.91 213.57 C312.59 215.49 311.24 217.39 309.87 219.28 C307.96 221.92 307.96 221.92 306.65 224.68 C305 227.61 303.82 229.14 301 231 C295.36 232.42 289.49 232.21 283.71 232.06 C280.94 232 278.18 232.02 275.4 232.05 C273.63 232.04 271.86 232.02 270.09 232 C269.27 232.01 268.45 232.02 267.6 232.02 C264.19 231.9 261.9 231.74 259.21 229.52 C257.66 227.75 256.31 225.95 255 224 C254.44 223.25 253.89 222.5 253.32 221.73 C252.88 221.08 252.44 220.43 251.99 219.76 C251.49 219.01 250.98 218.26 250.46 217.5 C249.94 216.71 249.41 215.93 248.88 215.12 C247.72 213.42 246.57 211.72 245.42 210.02 C244.84 209.18 244.27 208.33 243.68 207.46 C241.22 203.86 238.71 200.3 236.19 196.75 C231.42 190.03 226.7 183.27 222 176.5 C216.89 169.14 211.76 161.8 206.58 154.49 C202.37 148.54 198.21 142.55 194.06 136.56 C189.26 129.63 184.4 122.75 179.44 115.94 C173.87 108.3 168.54 100.52 163.24 92.69 C159.58 87.3 155.86 81.98 151.98 76.73 C148.76 72.29 145.68 67.75 142.59 63.22 C140.48 59.96 140.48 59.96 138 57 C134.92 56.94 131.86 56.95 128.77 57 C126.76 57.02 124.75 57.05 122.74 57.07 C121.67 57.08 120.6 57.09 119.5 57.11 C112.64 57.18 105.78 57.18 98.93 57.2 C92.9 57.22 86.88 57.26 80.85 57.35 C75.03 57.44 69.21 57.47 63.38 57.45 C61.16 57.45 58.95 57.48 56.73 57.53 C38.46 57.93 38.46 57.93 33.48 53.18 C30.8 50.04 28.91 46.65 27 43 C25.87 41.34 24.71 39.69 23.53 38.07 C22.52 36.57 21.51 35.07 20.5 33.56 C15.81 26.63 11.02 19.77 6.12 12.98 C5.42 12 4.72 11.01 4 10 C3.25 8.96 2.5 7.93 1.72 6.86 C0 4 0 4 0 0 Z " fill="#000001" transform="translate(217,384)"/>
<path d="M0 0 C0.77 -0.01 1.54 -0.03 2.33 -0.04 C4.88 -0.08 7.44 -0.1 9.99 -0.12 C10.86 -0.13 11.73 -0.14 12.63 -0.15 C17.25 -0.19 21.87 -0.22 26.49 -0.24 C31.25 -0.26 36.01 -0.33 40.78 -0.41 C44.44 -0.46 48.11 -0.48 51.78 -0.48 C53.53 -0.49 55.29 -0.52 57.05 -0.55 C70.75 -0.82 70.75 -0.82 75.11 2.04 C76.91 4.06 78.24 5.99 79.54 8.35 C80.13 9.14 80.73 9.93 81.34 10.74 C81.99 11.71 81.99 11.71 82.65 12.69 C83.15 13.44 83.65 14.18 84.17 14.95 C84.68 15.72 85.2 16.49 85.73 17.29 C86.86 18.97 88 20.66 89.14 22.34 C89.99 23.6 89.99 23.6 90.86 24.88 C93.41 28.64 96.04 32.34 98.67 36.04 C102.49 41.43 106.26 46.84 109.98 52.29 C113.87 57.98 117.86 63.59 121.92 69.17 C128.19 77.79 134.21 86.57 140.2 95.38 C144.39 101.55 148.72 107.61 153.09 113.64 C158.67 121.32 164.14 129.06 169.49 136.9 C173.35 142.55 177.26 148.17 181.17 153.79 C181.88 154.82 182.59 155.84 183.32 156.9 C183.98 157.85 184.65 158.81 185.33 159.79 C185.92 160.64 186.52 161.5 187.13 162.38 C188.39 164.26 188.39 164.26 189.54 165.35 C189.87 135.32 190.2 105.29 190.54 74.35 C193.03 73.11 194.72 73.22 197.51 73.21 C198.54 73.2 199.58 73.2 200.64 73.19 C201.76 73.19 202.89 73.19 204.04 73.19 C205.76 73.18 205.76 73.18 207.51 73.18 C209.94 73.17 212.37 73.17 214.8 73.17 C218.52 73.17 222.25 73.15 225.98 73.13 C228.33 73.13 230.69 73.12 233.04 73.12 C234.72 73.11 234.72 73.11 236.44 73.1 C237.47 73.1 238.51 73.11 239.57 73.11 C240.48 73.11 241.4 73.11 242.34 73.11 C244.54 73.35 244.54 73.35 246.54 75.35 C246.79 78.02 246.79 78.02 246.79 81.47 C246.79 82.78 246.8 84.08 246.8 85.43 C246.79 86.88 246.79 88.34 246.78 89.79 C246.78 91.32 246.79 92.85 246.79 94.37 C246.79 98.52 246.79 102.67 246.78 106.82 C246.77 111.16 246.77 115.49 246.77 119.83 C246.77 127.11 246.76 134.39 246.75 141.67 C246.73 150.1 246.73 158.53 246.73 166.96 C246.73 175.06 246.72 183.15 246.71 191.25 C246.71 194.7 246.71 198.15 246.71 201.6 C246.71 205.66 246.7 209.72 246.69 213.79 C246.69 215.28 246.69 216.77 246.69 218.27 C246.69 220.3 246.68 222.33 246.67 224.36 C246.67 225.5 246.67 226.64 246.67 227.82 C246.54 230.35 246.54 230.35 245.54 231.35 C243.14 231.53 240.77 231.65 238.37 231.72 C237.61 231.75 236.86 231.77 236.09 231.8 C229.12 232.03 222.15 232.16 215.18 232.27 C210.5 232.34 205.82 232.44 201.14 232.62 C196.62 232.79 192.09 232.88 187.56 232.91 C185.84 232.94 184.13 232.99 182.41 233.08 C169.4 233.68 169.4 233.68 164.67 229.83 C161.15 226.07 158.42 221.88 155.81 217.46 C153.76 214.06 151.45 210.84 149.17 207.6 C148.26 206.28 147.35 204.95 146.45 203.62 C143.21 198.85 139.91 194.13 136.6 189.42 C136.01 188.57 135.42 187.73 134.81 186.86 C131 181.43 127.18 176.01 123.35 170.6 C119.08 164.56 114.86 158.47 110.68 152.36 C106.91 146.87 103.08 141.43 99.23 135.99 C95.32 130.46 91.42 124.91 87.54 119.35 C80.72 109.61 73.87 99.89 67 90.18 C65.96 88.7 64.92 87.23 63.87 85.76 C62.91 84.4 61.95 83.04 60.99 81.68 C56.46 75.27 52.01 68.81 47.54 62.35 C47.21 118.12 46.88 173.89 46.54 231.35 C28.39 231.35 10.24 231.35 -8.46 231.35 C-10.34 229.48 -9.59 226.76 -9.6 224.27 C-9.6 223.38 -9.6 222.5 -9.59 221.59 C-9.6 220.66 -9.6 219.73 -9.6 218.77 C-9.61 215.63 -9.61 212.49 -9.6 209.34 C-9.61 207.1 -9.61 204.86 -9.62 202.61 C-9.62 196.5 -9.63 190.39 -9.63 184.28 C-9.63 179.19 -9.63 174.09 -9.64 169 C-9.64 157.68 -9.65 146.36 -9.65 135.04 C-9.65 134.36 -9.65 133.68 -9.65 132.98 C-9.64 132.3 -9.64 131.61 -9.64 130.91 C-9.64 119.88 -9.65 108.84 -9.67 97.8 C-9.68 86.48 -9.69 75.16 -9.69 63.84 C-9.69 57.48 -9.69 51.12 -9.7 44.76 C-9.71 38.78 -9.71 32.8 -9.7 26.82 C-9.7 24.62 -9.71 22.42 -9.71 20.22 C-9.72 17.23 -9.71 14.24 -9.71 11.24 C-9.71 10.36 -9.72 9.48 -9.72 8.57 C-9.68 0.48 -7.42 0.05 0 0 Z " fill="#FEFEFD" transform="translate(119.459716796875,383.64599609375)"/>
<path d="M0 0 C1.23 -0 2.46 -0.01 3.73 -0.01 C5.1 -0.01 6.48 -0.01 7.85 -0.01 C9.29 -0.01 10.73 -0.02 12.17 -0.02 C16.09 -0.03 20.01 -0.03 23.93 -0.03 C26.39 -0.03 28.84 -0.04 31.29 -0.04 C39.86 -0.05 48.42 -0.05 56.99 -0.05 C64.96 -0.05 72.93 -0.06 80.89 -0.08 C87.74 -0.09 94.59 -0.1 101.44 -0.1 C105.52 -0.09 109.61 -0.1 113.69 -0.11 C117.55 -0.12 121.4 -0.12 125.26 -0.11 C126.66 -0.11 128.07 -0.11 129.47 -0.12 C147.14 -0.19 161.05 2.24 174.16 14.86 C182.42 23.46 188.4 34.71 188.5 46.9 C188.51 47.84 188.52 48.78 188.53 49.75 C188.54 51.27 188.54 51.27 188.54 52.82 C188.55 53.87 188.56 54.93 188.56 56.01 C188.57 58.25 188.58 60.48 188.58 62.71 C188.59 66.09 188.62 69.47 188.65 72.86 C188.66 75.03 188.67 77.21 188.67 79.38 C188.68 80.38 188.69 81.38 188.71 82.41 C188.66 97.74 183.88 109.96 173.33 121 C171.2 123.17 171.2 123.17 169.34 126.13 C170.67 126.5 170.67 126.5 172.03 126.88 C179.49 129.7 182.95 135.18 186.34 142.13 C188.08 147.27 188.63 151.95 188.6 157.33 C188.61 158.51 188.61 158.51 188.61 159.72 C188.62 162.3 188.61 164.88 188.61 167.47 C188.61 169.27 188.61 171.07 188.61 172.87 C188.62 176.63 188.61 180.4 188.6 184.16 C188.59 188.99 188.6 193.82 188.61 198.65 C188.62 202.36 188.61 206.08 188.61 209.79 C188.61 211.57 188.61 213.35 188.61 215.14 C188.62 217.62 188.61 220.1 188.6 222.58 C188.6 223.32 188.61 224.06 188.61 224.82 C188.57 229.91 188.57 229.91 186.34 232.13 C184.1 232.38 184.1 232.38 181.27 232.38 C180.21 232.38 179.15 232.38 178.06 232.39 C176.91 232.38 175.77 232.37 174.59 232.36 C173.42 232.36 172.25 232.36 171.04 232.36 C168.56 232.36 166.08 232.35 163.6 232.34 C159.79 232.32 155.98 232.32 152.17 232.32 C149.77 232.31 147.37 232.31 144.96 232.3 C143.82 232.3 142.67 232.3 141.48 232.3 C140.43 232.29 139.38 232.29 138.29 232.28 C137.36 232.28 136.42 232.27 135.46 232.27 C133.34 232.13 133.34 232.13 132.34 231.13 C132.23 229.14 132.2 227.14 132.18 225.15 C132.17 223.87 132.16 222.58 132.15 221.26 C132.15 220.57 132.15 219.88 132.14 219.17 C132.13 217.02 132.11 214.86 132.09 212.7 C132.03 206.57 131.97 200.44 131.94 194.3 C131.92 190.55 131.88 186.8 131.84 183.06 C131.83 181.63 131.82 180.2 131.81 178.78 C131.81 176.77 131.78 174.77 131.76 172.77 C131.75 171.63 131.74 170.49 131.73 169.32 C131.27 165.54 130.51 163.28 128.34 160.13 C122.27 156.27 115.92 156.7 108.9 156.72 C107.05 156.7 107.05 156.7 105.15 156.69 C101.78 156.67 98.4 156.66 95.02 156.66 C91.48 156.65 87.94 156.63 84.41 156.61 C77.72 156.57 71.02 156.55 64.33 156.53 C52.33 156.5 40.32 156.44 28.32 156.37 C24.1 156.35 19.89 156.34 15.68 156.33 C12.45 156.32 9.23 156.3 6 156.29 C4.24 156.29 4.24 156.29 2.45 156.29 C1.39 156.28 0.33 156.28 -0.76 156.27 C-2.15 156.27 -2.15 156.27 -3.57 156.26 C-5.66 156.13 -5.66 156.13 -6.66 155.13 C-6.76 153.42 -6.79 151.7 -6.79 149.99 C-6.79 148.34 -6.79 148.34 -6.8 146.66 C-6.8 145.47 -6.79 144.27 -6.79 143.04 C-6.79 141.82 -6.79 140.61 -6.79 139.35 C-6.79 136.77 -6.79 134.19 -6.79 131.61 C-6.78 127.65 -6.79 123.69 -6.79 119.72 C-6.79 117.22 -6.79 114.73 -6.79 112.23 C-6.79 111.03 -6.8 109.84 -6.8 108.61 C-6.79 107.51 -6.79 106.41 -6.79 105.28 C-6.79 104.31 -6.79 103.34 -6.79 102.34 C-6.66 100.13 -6.66 100.13 -5.66 99.13 C-3.9 99.03 -2.14 98.99 -0.37 98.98 C0.77 98.97 1.92 98.96 3.1 98.95 C5 98.94 5 98.94 6.94 98.93 C8.28 98.92 9.62 98.91 10.96 98.9 C14.61 98.87 18.26 98.85 21.91 98.83 C25.71 98.81 29.52 98.78 33.33 98.75 C40.55 98.7 47.77 98.66 54.99 98.62 C63.2 98.57 71.42 98.51 79.63 98.46 C96.53 98.34 113.44 98.24 130.34 98.13 C130.34 84.6 130.34 71.07 130.34 57.13 C126.23 57.11 122.11 57.08 117.87 57.06 C104.31 56.97 90.76 56.89 77.2 56.79 C68.97 56.74 60.75 56.69 52.52 56.64 C45.36 56.59 38.19 56.55 31.02 56.5 C27.23 56.47 23.43 56.45 19.63 56.42 C16.06 56.41 12.5 56.38 8.93 56.35 C6.98 56.34 5.04 56.33 3.1 56.32 C1.95 56.31 0.81 56.3 -0.37 56.29 C-1.38 56.29 -2.38 56.28 -3.41 56.27 C-5.66 56.13 -5.66 56.13 -6.66 55.13 C-6.76 53.45 -6.79 51.76 -6.79 50.08 C-6.79 49 -6.79 47.92 -6.8 46.81 C-6.8 45.64 -6.79 44.47 -6.79 43.26 C-6.79 42.06 -6.79 40.87 -6.79 39.64 C-6.79 37.11 -6.79 34.57 -6.79 32.04 C-6.78 28.15 -6.79 24.26 -6.79 20.37 C-6.79 17.91 -6.79 15.46 -6.79 13.01 C-6.79 11.84 -6.8 10.66 -6.8 9.45 C-6.79 8.38 -6.79 7.3 -6.79 6.19 C-6.79 5.23 -6.79 4.28 -6.79 3.3 C-6.53 -1.04 -3.73 0.01 0 0 Z " fill="#FEFEFD" transform="translate(701.6581573486328,383.8662872314453)"/>
<path d="" fill="#00FFFF" transform="translate(0,0)"/>
<path d="" fill="#00FFFF" transform="translate(0,0)"/>
<path d="" fill="#00FFFF" transform="translate(0,0)"/>
<path d="" fill="#00FFFF" transform="translate(0,0)"/>
</svg>
