<?xml version="1.0" encoding="UTF-8"?>
<!-- Generator: https://ezgif.com/webp-to-svg -->
<svg version="1.1" xmlns="http://www.w3.org/2000/svg" width="50" height="50">
<path d="M0 0 C1 2.99 0.95 4.33 0.69 7.38 C0.6 10.75 0.6 10.75 2.26 13.56 C3.8 14.76 5.4 15.88 7 17 C9.05 20.08 9 21.1 9 25 C8.34 25 7.68 25 7 25 C7.21 26.22 7.41 27.43 7.62 28.69 C8.1 32.35 7.77 34.68 6 38 C5.01 38 4.02 38 3 38 C2.38 39.39 2.38 39.39 1.75 40.81 C0.06 43.89 -0.94 45.37 -4 47 C-4.99 46.67 -5.98 46.34 -7 46 C-8.8 46.77 -8.8 46.77 -10.62 47.94 C-15.14 50.38 -18.97 50.42 -24 50 C-24 49.01 -24 48.02 -24 47 C-24.58 46.9 -25.15 46.8 -25.75 46.7 C-31.08 45.05 -35.07 40.45 -38 35.88 C-40.14 29.58 -40.23 22.33 -37.93 16.11 C-34.12 9.15 -29.53 5.47 -22.04 3.04 C-19.37 2.29 -16.7 1.61 -14 1 C-14 1.66 -14 2.32 -14 3 C-10.74 3.86 -10.74 3.86 -7 4 C-1.19 0 -1.19 0 0 0 Z " fill="#3ABBDC" transform="translate(40,0)"/>
<path d="M0 0 C0 1.01 0 1.01 0.01 2.05 C0.13 4.81 0.33 7.31 1 10 C3.87 12.5 3.87 12.5 7 14 C7.49 15.48 7.49 15.48 8 17 C6.68 17 5.36 17 4 17 C4.49 17.5 4.99 17.99 5.5 18.5 C7.67 22.12 7.21 24.82 7 29 C6.34 27.68 5.68 26.36 5 25 C4.34 25 3.68 25 3 25 C3.06 26.03 3.12 27.06 3.19 28.12 C2.99 32.23 2.06 34.49 0 38 C-0.33 38 -0.66 38 -1 38 C-1 36.02 -1 34.04 -1 32 C-1.66 32 -2.32 32 -3 32 C-3.06 32.72 -3.12 33.44 -3.19 34.19 C-4.27 37.94 -6.03 39.5 -9 42 C-11.62 43.38 -11.62 43.38 -14 44 C-15.48 43.51 -15.48 43.51 -17 43 C-16.36 42.24 -15.72 41.47 -15.06 40.69 C-12.86 38.12 -12.86 38.12 -12 35 C-14.87 37.72 -14.87 37.72 -17 41 C-21.75 40.12 -21.75 40.12 -24 39 C-23.34 37.35 -22.68 35.7 -22 34 C-21.67 34.66 -21.34 35.32 -21 36 C-20.34 36.33 -19.68 36.66 -19 37 C-19.66 37 -20.32 37 -21 37 C-21 37.66 -21 38.32 -21 39 C-16.97 37.66 -16.2 35.55 -14 32 C-13.34 31.01 -12.68 30.02 -12 29 C-12.26 25.15 -14.56 22.84 -17 20 C-15.02 19.34 -13.04 18.68 -11 18 C-11 18.66 -11 19.32 -11 20 C-10.01 20.33 -9.02 20.66 -8 21 C-9.32 21 -10.64 21 -12 21 C-11.51 21.69 -11.02 22.39 -10.51 23.11 C-8.75 26.48 -8.69 28.54 -8.81 32.31 C-8.84 33.38 -8.87 34.45 -8.89 35.55 C-8.93 36.36 -8.96 37.17 -9 38 C-7.55 34.68 -6.7 31.79 -6.38 28.19 C-6.3 27.4 -6.23 26.61 -6.15 25.79 C-6.1 25.2 -6.05 24.61 -6 24 C-3.53 24.99 -3.53 24.99 -1 26 C-1.66 24.02 -2.32 22.04 -3 20 C-1.35 20 0.3 20 2 20 C1.38 19.38 0.76 18.76 0.12 18.12 C-1.25 16.75 -2.62 15.38 -4 14 C-2.68 14 -1.36 14 0 14 C0 13.34 0 12.68 0 12 C-2.31 12 -4.62 12 -7 12 C-5.67 9.33 -4.33 6.67 -3 4 C-3.68 4.64 -4.36 5.28 -5.06 5.94 C-8.51 8.36 -10.86 8.56 -15 9 C-18.13 10.09 -21.05 11.47 -24 13 C-24 13.99 -24 14.98 -24 16 C-22.02 16 -20.04 16 -18 16 C-18.33 15.34 -18.66 14.68 -19 14 C-17.35 13.67 -15.7 13.34 -14 13 C-14.88 15.5 -14.88 15.5 -17 18 C-19.61 18.29 -22.01 18.19 -24.62 17.98 C-27.27 17.79 -27.27 17.79 -30 20 C-30.72 22.06 -30.72 22.06 -31 24 C-29.42 23.54 -29.42 23.54 -27.81 23.06 C-24.87 22.24 -22 21.55 -19 21 C-17.35 22.98 -15.7 24.96 -14 27 C-15.93 29.44 -17.8 31.8 -20 34 C-22 33 -22 33 -23.12 29.94 C-23.41 28.97 -23.7 28 -24 27 C-24.66 27.66 -25.32 28.32 -26 29 C-27.32 28.34 -28.64 27.68 -30 27 C-30.33 27.66 -30.66 28.32 -31 29 C-30.53 29.39 -30.05 29.78 -29.56 30.19 C-27.65 32.41 -27.39 34.13 -27 37 C-27.99 36.67 -28.98 36.34 -30 36 C-31.19 33.44 -31.19 33.44 -32 31 C-32.66 31 -33.32 31 -34 31 C-34.2 29.56 -34.38 28.13 -34.56 26.69 C-34.67 25.89 -34.77 25.09 -34.88 24.26 C-35 22 -35 22 -34 19 C-30.94 17.81 -30.94 17.81 -28 17 C-28.1 16.25 -28.2 15.5 -28.3 14.72 C-28 12 -28 12 -25.95 10.12 C-24.62 9.29 -24.62 9.29 -23.25 8.44 C-19.75 6.22 -16.84 4.03 -14 1 C-14 2.32 -14 3.64 -14 5 C-9.97 4.11 -3.51 0 0 0 Z " fill="#081626" transform="translate(38,4)"/>
<path d="M0 0 C0 0.66 0 1.32 0 2 C0.99 2 1.98 2 3 2 C3 2.66 3 3.32 3 4 C2.01 4 1.02 4 0 4 C-0.33 4.99 -0.66 5.98 -1 7 C-1 6.01 -1 5.02 -1 4 C-1.64 4.7 -2.28 5.4 -2.94 6.12 C-5.94 9.18 -9.42 11.23 -13.11 13.38 C-15.53 15.45 -15.46 16.94 -16 20 C-19.06 21.81 -19.06 21.81 -22 23 C-22 23.99 -22 24.98 -22 26 C-22.99 26 -23.98 26 -25 26 C-25.72 19.53 -24.4 15.71 -20.83 10.27 C-16.17 4.51 -7.53 0 0 0 Z " fill="#3ABDDD" transform="translate(26,1)"/>
<path d="M0 0 C2 3.75 2 3.75 2 6 C3.98 6 5.96 6 8 6 C7.67 5.34 7.34 4.68 7 4 C8.65 3.67 10.3 3.34 12 3 C11.12 5.5 11.12 5.5 9 8 C6.39 8.29 3.99 8.19 1.38 7.98 C-1.27 7.79 -1.27 7.79 -4 10 C-4.72 12.06 -4.72 12.06 -5 14 C-3.95 13.69 -2.9 13.38 -1.81 13.06 C1.13 12.24 4 11.55 7 11 C8.65 12.98 10.3 14.96 12 17 C10.07 19.44 8.2 21.8 6 24 C4 23 4 23 2.88 19.94 C2.59 18.97 2.3 18 2 17 C1.34 17.66 0.68 18.32 0 19 C-1.32 18.34 -2.64 17.68 -4 17 C-4.33 17.66 -4.66 18.32 -5 19 C-4.53 19.39 -4.05 19.78 -3.56 20.19 C-1.65 22.41 -1.39 24.13 -1 27 C-1.99 26.67 -2.98 26.34 -4 26 C-5.19 23.44 -5.19 23.44 -6 21 C-6.66 21 -7.32 21 -8 21 C-8.2 19.56 -8.38 18.13 -8.56 16.69 C-8.67 15.89 -8.77 15.09 -8.88 14.26 C-9 12 -9 12 -8 9 C-4.94 7.81 -4.94 7.81 -2 7 C-2.04 6.22 -2.08 5.43 -2.12 4.62 C-2 2 -2 2 0 0 Z " fill="#1B5B70" transform="translate(12,14)"/>
<path d="M0 0 C2.48 0.99 2.48 0.99 5 2 C5 2.66 5 3.32 5 4 C3.35 4 1.7 4 0 4 C0.52 4.6 1.03 5.2 1.56 5.81 C2.04 6.53 2.51 7.26 3 8 C2.67 8.99 2.34 9.98 2 11 C0.68 10.34 -0.64 9.68 -2 9 C-2.11 9.76 -2.22 10.52 -2.33 11.3 C-2.49 12.29 -2.65 13.29 -2.81 14.31 C-2.96 15.3 -3.11 16.28 -3.27 17.3 C-4.03 20.13 -4.75 21.2 -7 23 C-6.98 22.12 -6.95 21.24 -6.93 20.33 C-6.91 19.17 -6.89 18.01 -6.88 16.81 C-6.85 15.66 -6.83 14.52 -6.8 13.33 C-7 10.06 -7.77 7.99 -9 5 C-8.67 4.01 -8.34 3.02 -8 2 C-5.36 2 -2.72 2 0 2 C0 1.34 0 0.68 0 0 Z " fill="#38B2D2" transform="translate(35,20)"/>
<path d="M0 0 C0.66 0.33 1.32 0.66 2 1 C1.01 1.33 0.02 1.66 -1 2 C-1 2.66 -1 3.32 -1 4 C2.3 3.34 5.6 2.68 9 2 C9 2.66 9 3.32 9 4 C9.6 4.27 10.2 4.54 10.81 4.81 C13.05 6.02 14.5 6.95 16 9 C15.77 12.48 13.87 15.13 12 18 C11.51 18.76 11.01 19.53 10.5 20.31 C10.01 20.87 9.51 21.43 9 22 C8.01 22 7.02 22 6 22 C6 21.34 6 20.68 6 20 C6.62 19.42 7.24 18.84 7.88 18.25 C10.44 15.53 11.4 13.7 12 10 C10.26 7.11 10.26 7.11 8 5 C4.71 5.38 4.71 5.38 2 7 C0 7.04 -2 7.04 -4 7 C-4 5.35 -4 3.7 -4 2 C-2.12 0.94 -2.12 0.94 0 0 Z " fill="#3CBFE0" transform="translate(11,21)"/>
<path d="M0 0 C2.76 1.42 4.15 3.51 5.94 6 C4.01 8.44 2.14 10.8 -0.06 13 C-0.72 12.67 -1.38 12.34 -2.06 12 C-2.66 9.95 -3.02 7.91 -3.4 5.81 C-3.62 5.21 -3.84 4.62 -4.06 4 C-5.05 3.67 -6.04 3.34 -7.06 3 C-2.74 0 -2.74 0 0 0 Z " fill="#0D263A" transform="translate(18.0625,25)"/>
<path d="M0 0 C-0.94 0.72 -0.94 0.72 -1.9 1.46 C-2.72 2.09 -3.53 2.72 -4.38 3.38 C-5.19 4 -6 4.63 -6.84 5.27 C-9.93 7.75 -11.23 9.13 -12 13 C-13.32 13.33 -14.64 13.66 -16 14 C-15.68 8.67 -12.65 5.58 -9 2 C-5.48 -0.68 -4.16 -1.26 0 0 Z " fill="#081827" transform="translate(20,7)"/>
<path d="M0 0 C0.33 0.66 0.66 1.32 1 2 C3.31 2 5.62 2 8 2 C8 2.66 8 3.32 8 4 C7.34 4.66 6.68 5.32 6 6 C5.67 6.66 5.34 7.32 5 8 C-2.51 8.37 -2.51 8.37 -5 6.5 C-5.33 6 -5.66 5.51 -6 5 C-4.02 4.67 -2.04 4.34 0 4 C0 2.68 0 1.36 0 0 Z " fill="#2E97B3" transform="translate(30,14)"/>
<path d="M0 0 C0 0.66 0 1.32 0 2 C0.99 2 1.98 2 3 2 C3 2.66 3 3.32 3 4 C2.01 4 1.02 4 0 4 C-0.33 4.99 -0.66 5.98 -1 7 C-1 6.01 -1 5.02 -1 4 C-1.56 4.52 -2.11 5.03 -2.69 5.56 C-5 7 -5 7 -7.44 6.69 C-8.28 6.46 -9.13 6.23 -10 6 C-11.67 5.96 -13.33 5.95 -15 6 C-11.16 2.49 -5.25 0 0 0 Z " fill="#3FC6E7" transform="translate(26,1)"/>
<path d="M0 0 C0.99 0.33 1.98 0.66 3 1 C2.29 1.45 1.58 1.89 0.85 2.36 C-0.07 2.96 -0.99 3.56 -1.94 4.19 C-3.31 5.08 -3.31 5.08 -4.71 5.98 C-7.39 8.35 -7.51 9.56 -8 13 C-10.44 14.38 -10.44 14.38 -13 15 C-13.66 14.67 -14.32 14.34 -15 14 C-14.67 13.34 -14.34 12.68 -14 12 C-12.68 12 -11.36 12 -10 12 C-9.98 11.3 -9.96 10.6 -9.94 9.88 C-8.55 5.63 -5.53 3.58 -2 1 C-1.34 0.67 -0.68 0.34 0 0 Z " fill="#33A4C2" transform="translate(18,8)"/>
<path d="M0 0 C0.99 0.33 1.98 0.66 3 1 C-1.78 4.9 -3.8 6.13 -10 6 C-9.67 4.68 -9.34 3.36 -9 2 C-6.95 1.77 -4.9 1.54 -2.85 1.32 C-0.99 1.18 -0.99 1.18 0 0 Z " fill="#33A2BF" transform="translate(34,3)"/>
<path d="M0 0 C0.99 0 1.98 0 3 0 C3 1.32 3 2.64 3 4 C2.38 4.25 1.76 4.49 1.12 4.75 C-1.35 6.21 -1.95 7.38 -3 10 C-7.75 9.12 -7.75 9.12 -10 8 C-9.34 6.35 -8.68 4.7 -8 3 C-7.67 3.66 -7.34 4.32 -7 5 C-6.34 5.33 -5.68 5.66 -5 6 C-5.66 6 -6.32 6 -7 6 C-7 6.66 -7 7.32 -7 8 C-2.99 6.66 -2.14 4.54 0 1 C0 0.67 0 0.34 0 0 Z " fill="#113C4C" transform="translate(24,35)"/>
<path d="M0 0 C0.66 0.66 1.32 1.32 2 2 C1.67 2.33 1.34 2.66 1 3 C1.66 3.66 2.32 4.32 3 5 C2.01 6.48 2.01 6.48 1 8 C-1.97 7.5 -1.97 7.5 -5 7 C-5 6.01 -5 5.02 -5 4 C-2.5 1.81 -2.5 1.81 0 0 Z " fill="#319DBA" transform="translate(19,13)"/>
<path d="M0 0 C0.66 0.33 1.32 0.66 2 1 C0.68 3.31 -0.64 5.62 -2 8 C-3.65 7.67 -5.3 7.34 -7 7 C-7 5.35 -7 3.7 -7 2 C-6.67 2.99 -6.34 3.98 -6 5 C-2.6 3.87 -1.95 2.87 0 0 Z " fill="#267F98" transform="translate(22,32)"/>
<path d="M0 0 C0.66 0 1.32 0 2 0 C2.33 1.65 2.66 3.3 3 5 C3.66 3.35 4.32 1.7 5 0 C5.66 0.66 6.32 1.32 7 2 C6.62 4.62 6.62 4.62 6 7 C4.35 7.33 2.7 7.66 1 8 C0.67 5.36 0.34 2.72 0 0 Z " fill="#32A8C5" transform="translate(35,36)"/>
<path d="M0 0 C0.66 0 1.32 0 2 0 C3.28 3.85 3.07 6.95 3 11 C2.01 11.5 2.01 11.5 1 12 C1 9.03 1 6.06 1 3 C0.01 3.33 -0.98 3.66 -2 4 C-1.34 2.68 -0.68 1.36 0 0 Z " fill="#41CAEF" transform="translate(38,0)"/>
<path d="M0 0 C2.31 1.06 2.31 1.06 4 2 C4 2.33 4 2.66 4 3 C-3.51 3.37 -3.51 3.37 -6 1.5 C-6.33 1 -6.66 0.51 -7 0 C-4.28 -1.36 -2.91 -0.76 0 0 Z " fill="#113949" transform="translate(31,19)"/>
<path d="M0 0 C0.99 0.99 1.98 1.98 3 3 C0.19 4.56 0.19 4.56 -3 6 C-3.99 5.67 -4.98 5.34 -6 5 C-4.02 3.35 -2.04 1.7 0 0 Z " fill="#0D2B3A" transform="translate(27,42)"/>
<path d="M0 0 C0.33 0 0.66 0 1 0 C1 1.98 1 3.96 1 6 C-0.65 6.33 -2.3 6.66 -4 7 C-4 5.02 -4 3.04 -4 1 C-3.34 1 -2.68 1 -2 1 C-1.67 1.66 -1.34 2.32 -1 3 C-0.67 2.01 -0.34 1.02 0 0 Z " fill="#35ABC9" transform="translate(45,28)"/>
<path d="M0 0 C0.66 0 1.32 0 2 0 C2 2.97 2 5.94 2 9 C3.32 9.66 4.64 10.32 6 11 C4.06 11.56 4.06 11.56 2 12 C0.26 10.26 0.63 7.81 0.44 5.44 C0.35 4.43 0.27 3.41 0.18 2.37 C0.12 1.59 0.06 0.81 0 0 Z " fill="#2E97B1" transform="translate(37,3)"/>
<path d="M0 0 C2.44 1.19 2.44 1.19 5 3 C5.81 5.69 5.81 5.69 6 8 C2.25 6.75 1.76 5.43 0 2 C0 1.34 0 0.68 0 0 Z " fill="#05121B" transform="translate(5,33)"/>
</svg>
