<?xml version="1.0" encoding="UTF-8"?>
<!-- Generator: https://ezgif.com/png-to-svg -->
<svg version="1.1" xmlns="http://www.w3.org/2000/svg" width="221" height="228">
<path d="M0 0 C0.99 0.33 1.98 0.66 3 1 C7.42 19.02 9.4 37.73 5 56 C5.8 56.38 6.6 56.76 7.42 57.14 C24.89 65.9 37.17 79.64 44 98 C45.67 103.47 46.2 108.32 46 114 C42.46 112.63 39.07 111.09 35.69 109.38 C34.8 108.93 33.92 108.48 33.01 108.02 C32.35 107.69 31.68 107.35 31 107 C31.41 108.02 31.82 109.03 32.24 110.08 C35.49 118.3 38.2 126.12 39 135 C39.08 135.85 39.16 136.71 39.25 137.59 C39.87 150.41 35.93 163.31 29 174 C25.49 171.25 24.34 167.34 22.81 163.31 C22.4 162.26 22.4 162.26 21.99 161.19 C21.32 159.46 20.66 157.73 20 156 C18.99 159.46 18.03 162.89 17.21 166.4 C12.86 184.79 3.79 202.14 -12.5 212.61 C-18.44 216 -18.44 216 -21 216 C-20.33 208.67 -19.67 201.33 -19 194 C-19.4 194.55 -19.8 195.09 -20.21 195.65 C-33.15 212.81 -49.82 224.03 -71.24 227.53 C-74.82 227.98 -78.21 228.11 -81.81 228.1 C-83.05 228.09 -84.29 228.09 -85.57 228.09 C-86.85 228.08 -88.12 228.07 -89.44 228.06 C-91.39 228.06 -91.39 228.06 -93.39 228.05 C-96.59 228.04 -99.8 228.02 -103 228 C-101.28 224.24 -99.01 221.85 -96 219 C-97.52 218.83 -97.52 218.83 -99.06 218.66 C-116.93 215.68 -132.44 204.44 -145 192 C-145.75 191.3 -146.5 190.6 -147.27 189.88 C-164.36 173.64 -174.62 149.13 -175.34 125.74 C-175.37 123.12 -175.38 120.5 -175.38 117.88 C-175.37 117.19 -175.37 116.51 -175.37 115.8 C-175.26 88.35 -165.19 64.7 -146 45 C-145.34 44.29 -144.69 43.58 -144.01 42.86 C-139.16 37.77 -133.89 33.81 -128 30 C-127.23 29.49 -126.46 28.97 -125.67 28.44 C-112.12 19.79 -95.43 14.28 -79.31 13.69 C-75.44 13.43 -73.83 12.32 -71.12 9.56 C-70.61 8.95 -70.1 8.33 -69.57 7.69 C-67.86 5.85 -66.3 4.99 -64 4 C-62.38 7.54 -61.9 10.13 -62 14 C-61.07 14.04 -61.07 14.04 -60.12 14.08 C-50.54 14.69 -41.39 17.08 -32.36 20.3 C-29.09 21.29 -29.09 21.29 -26.4 20.05 C-25.59 19.48 -24.78 18.9 -23.94 18.31 C-23.01 17.66 -22.08 17.02 -21.12 16.35 C-16.38 12.78 -11.69 9.16 -7.07 5.45 C-6.05 4.64 -5.04 3.83 -4 3 C-3.27 2.38 -2.53 1.75 -1.78 1.11 C-0.9 0.56 -0.9 0.56 0 0 Z " fill="#0A1B30" transform="translate(175,0)"/>
<path d="M0 0 C0.99 0.33 1.98 0.66 3 1 C7.42 19.02 9.4 37.73 5 56 C5.8 56.38 6.6 56.76 7.42 57.14 C24.89 65.9 37.17 79.64 44 98 C45.67 103.47 46.2 108.32 46 114 C42.46 112.63 39.07 111.09 35.69 109.38 C34.8 108.93 33.92 108.48 33.01 108.02 C32.35 107.69 31.68 107.35 31 107 C31.41 108.02 31.82 109.03 32.24 110.08 C35.49 118.3 38.2 126.12 39 135 C39.08 135.85 39.16 136.71 39.25 137.59 C39.87 150.41 35.93 163.31 29 174 C25.49 171.25 24.34 167.34 22.81 163.31 C22.4 162.26 22.4 162.26 21.99 161.19 C21.32 159.46 20.66 157.73 20 156 C18.99 159.46 18.03 162.89 17.21 166.4 C12.86 184.79 3.79 202.14 -12.5 212.61 C-18.44 216 -18.44 216 -21 216 C-20.33 208.67 -19.67 201.33 -19 194 C-19.4 194.55 -19.8 195.09 -20.21 195.65 C-33.15 212.81 -49.82 224.03 -71.24 227.53 C-74.82 227.98 -78.21 228.11 -81.81 228.1 C-83.05 228.09 -84.29 228.09 -85.57 228.09 C-86.85 228.08 -88.12 228.07 -89.44 228.06 C-91.39 228.06 -91.39 228.06 -93.39 228.05 C-96.59 228.04 -99.8 228.02 -103 228 C-101.28 224.24 -99.01 221.85 -96 219 C-97.52 218.83 -97.52 218.83 -99.06 218.66 C-116.93 215.68 -132.44 204.44 -145 192 C-145.75 191.3 -146.5 190.6 -147.27 189.88 C-164.36 173.64 -174.62 149.13 -175.34 125.74 C-175.37 123.12 -175.38 120.5 -175.38 117.88 C-175.37 117.19 -175.37 116.51 -175.37 115.8 C-175.26 88.35 -165.19 64.7 -146 45 C-145.34 44.29 -144.69 43.58 -144.01 42.86 C-139.16 37.77 -133.89 33.81 -128 30 C-127.23 29.49 -126.46 28.97 -125.67 28.44 C-112.12 19.79 -95.43 14.28 -79.31 13.69 C-75.44 13.43 -73.83 12.32 -71.12 9.56 C-70.61 8.95 -70.1 8.33 -69.57 7.69 C-67.86 5.85 -66.3 4.99 -64 4 C-62.38 7.54 -61.9 10.13 -62 14 C-61.07 14.04 -61.07 14.04 -60.12 14.08 C-50.54 14.69 -41.39 17.08 -32.36 20.3 C-29.09 21.29 -29.09 21.29 -26.4 20.05 C-25.59 19.48 -24.78 18.9 -23.94 18.31 C-23.01 17.66 -22.08 17.02 -21.12 16.35 C-16.38 12.78 -11.69 9.16 -7.07 5.45 C-6.05 4.64 -5.04 3.83 -4 3 C-3.27 2.38 -2.53 1.75 -1.78 1.11 C-0.9 0.56 -0.9 0.56 0 0 Z M-7.64 14.56 C-8.37 15.11 -9.11 15.65 -9.87 16.22 C-10.65 16.81 -11.44 17.39 -12.25 18 C-19.88 23.61 -27.55 28.7 -36 33 C-36.67 33.35 -37.34 33.71 -38.03 34.07 C-43.91 36.98 -49.05 37.64 -55.56 37.75 C-56.48 37.78 -57.39 37.81 -58.33 37.84 C-60.55 37.91 -62.78 37.96 -65 38 C-64.98 36.99 -64.96 35.98 -64.94 34.93 C-65 31.2 -65.39 27.75 -66 24.06 C-66.19 22.92 -66.37 21.78 -66.56 20.6 C-66.78 19.31 -66.78 19.31 -67 18 C-70.12 17.68 -70.12 17.68 -72.31 19.91 C-73.64 21.26 -73.64 21.26 -75 22.62 C-75.49 23.11 -75.97 23.6 -76.47 24.1 C-79.62 27.33 -82.31 30.72 -84.94 34.38 C-90.19 41.64 -95.22 45.32 -103.27 49.13 C-109.1 51.92 -113.98 55.96 -119 60 C-119.68 60.53 -120.37 61.06 -121.07 61.61 C-122.43 62.68 -123.73 63.83 -125 65 C-125 65.66 -125 66.32 -125 67 C-125.99 67.33 -126.98 67.66 -128 68 C-131.19 70.97 -133.69 74.15 -134.42 78.51 C-134.44 81.05 -134.29 83.48 -134 86 C-133.92 86.72 -133.84 87.45 -133.75 88.19 C-133.54 89.8 -133.28 91.4 -133 93 C-133.84 93.26 -134.68 93.52 -135.54 93.78 C-139.29 95.1 -142.81 96.73 -146.37 98.48 C-147.05 98.81 -147.73 99.14 -148.43 99.48 C-150.58 100.52 -152.73 101.57 -154.88 102.62 C-156.34 103.34 -157.81 104.05 -159.27 104.77 C-162.85 106.51 -166.43 108.25 -170 110 C-170.12 114.7 -169.96 117.22 -167 121 C-166.2 121.41 -165.39 121.83 -164.56 122.25 C-161.16 124.57 -160.42 127.09 -158.91 130.84 C-157.91 133.22 -156.79 135.12 -155 137 C-154.34 137 -153.68 137 -153 137 C-152.89 137.73 -152.79 138.45 -152.68 139.2 C-151.94 142.24 -150.86 144.17 -149.12 146.75 C-148.61 147.53 -148.1 148.31 -147.57 149.11 C-146.05 151.28 -146.05 151.28 -143 152 C-143.33 148.37 -143.66 144.74 -144 141 C-132.53 140.73 -132.53 140.73 -128.94 143.71 C-127.48 145.75 -126.23 147.82 -125 150 C-122.92 152.42 -122.92 152.42 -121 154 C-120.34 154 -119.68 154 -119 154 C-119 147.07 -119 140.14 -119 133 C-113.52 145.27 -110.86 155.15 -109.88 168.56 C-109.79 169.67 -109.7 170.77 -109.61 171.91 C-109.4 174.61 -109.2 177.3 -109 180 C-115.34 180.42 -115.34 180.42 -118.33 178.5 C-118.96 177.86 -119.6 177.22 -120.25 176.56 C-123.2 173.64 -123.2 173.64 -127 172 C-122.72 186.28 -117.53 196.12 -104.19 203.31 C-98.58 205.99 -93.16 207.3 -87 208 C-86.52 207.32 -86.03 206.64 -85.53 205.95 C-80.87 199.47 -76.03 193.19 -71 187 C-70.33 186.14 -69.66 185.28 -68.97 184.39 C-66.55 181.46 -63.96 179.36 -61 177 C-63.8 192.98 -70.84 205.62 -81.71 217.5 C-83.11 218.8 -83.11 218.8 -83 220 C-66.48 221.72 -50.08 213.69 -37.31 203.75 C-26.96 194.93 -18.48 182.92 -14 170 C-13.75 167.21 -13.75 167.21 -14 165 C-13.34 165 -12.68 165 -12 165 C-9.54 186.12 -9.54 186.12 -12 195 C-12.04 197.33 -12.04 199.67 -12 202 C3.6 189.9 10.21 170.63 12.63 151.59 C13.23 145.74 13.66 139.88 14 134 C19.34 140.47 23.17 147.57 27 155 C27.66 155 28.32 155 29 155 C33.66 145.97 32.15 131.87 29.51 122.37 C25.78 110.71 19.92 101.27 12 92 C20.35 94.38 28.2 97.18 36 101 C33.85 87.71 24.65 76.96 14.12 69.12 C8.85 65.65 1.48 61 -5 61 C-4.46 59.7 -4.46 59.7 -3.91 58.38 C-0.55 49.56 0.47 41.44 0.44 32 C0.43 30.94 0.43 29.88 0.43 28.78 C0.32 22.88 -0.31 17.66 -2 12 C-4.66 12 -5.52 12.96 -7.64 14.56 Z " fill="#41C8EA" transform="translate(175,0)"/>
<path d="M0 0 C0.33 0.66 0.66 1.32 1 2 C-0.16 4.53 -1.38 6.9 -2.75 9.31 C-3.36 10.39 -3.36 10.39 -3.98 11.49 C-10.84 23.19 -20.3 32.64 -30 42 C-29.14 42.09 -28.28 42.17 -27.39 42.26 C-19.65 43.15 -12.22 44.53 -4.69 46.5 C-3.86 46.71 -3.03 46.93 -2.17 47.15 C-1.4 47.36 -0.62 47.57 0.18 47.78 C1.21 48.06 1.21 48.06 2.27 48.35 C4 49 4 49 6 51 C-10.33 51.5 -10.33 51.5 -27 52 C-23.7 52.99 -20.4 53.98 -17 55 C-14.12 56.31 -11.39 57.62 -8.62 59.12 C-7.9 59.52 -7.17 59.91 -6.42 60.31 C16.9 73.15 16.9 73.15 19.68 82.2 C19.78 82.79 19.89 83.39 20 84 C18.69 83.89 18.69 83.89 17.35 83.78 C7.22 83.02 -2.84 82.9 -13 83 C-12.52 83.38 -12.03 83.76 -11.53 84.14 C-3.35 90.86 3.9 99.71 7 110 C7 111.32 7 112.64 7 114 C3.83 112.52 1.11 110.69 -1.75 108.69 C-8.67 104.2 -16.11 102.15 -24 100 C-23.79 100.67 -23.58 101.33 -23.36 102.02 C-21.34 108.81 -20.45 114.99 -20.5 122.06 C-20.5 123.05 -20.51 124.05 -20.51 125.07 C-20.94 143.89 -27.72 158.93 -40 173 C-41 171 -41 171 -40.04 167.92 C-39.57 166.69 -39.11 165.46 -38.62 164.19 C-35.34 155.47 -34.81 147.99 -34.81 138.76 C-34.81 136.64 -34.79 134.51 -34.78 132.39 C-34.77 131.02 -34.77 129.66 -34.77 128.29 C-34.77 127.06 -34.76 125.83 -34.76 124.56 C-35.47 114.18 -40.33 104.53 -46 96 C-47.01 94.34 -48.01 92.67 -49 91 C-45.52 89.84 -42.81 89.89 -39.14 89.9 C-38.15 89.9 -38.15 89.9 -37.14 89.91 C-35.03 89.91 -32.92 89.92 -30.81 89.94 C-29.38 89.94 -27.95 89.95 -26.52 89.95 C-23.01 89.96 -19.51 89.98 -16 90 C-17.25 89.2 -18.51 88.4 -19.77 87.6 C-20.47 87.16 -21.17 86.71 -21.89 86.25 C-28.95 82.06 -37.07 80.71 -45 79 C-45 78.34 -45 77.68 -45 77 C-31.21 72.78 -17.32 71.66 -3 71 C-12.09 65.43 -20.8 61.24 -31 58 C-31.92 57.67 -32.84 57.34 -33.79 57 C-39.34 55.08 -44.31 54.11 -50 56 C-52.9 57.75 -55.47 59.75 -58 62 C-56.76 62.05 -55.52 62.1 -54.24 62.15 C-52.6 62.22 -50.95 62.3 -49.31 62.38 C-48.5 62.41 -47.68 62.44 -46.84 62.47 C-42.5 62.68 -38.96 63.02 -35 65 C-38.1 66.61 -41.25 67.91 -44.5 69.19 C-48.88 70.98 -52.85 73.02 -56.88 75.5 C-63.29 79.39 -69.88 81.71 -77 84 C-76.39 84.33 -75.79 84.66 -75.16 85 C-61.1 92.98 -49.64 105.12 -43 120 C-43 120.66 -43 121.32 -43 122 C-44.72 123.26 -44.72 123.26 -47.06 124.69 C-52.33 128.08 -57.96 131.87 -60 138 C-58.99 137.67 -57.98 137.34 -56.94 137 C-53.25 135.93 -49.85 135.84 -46 136 C-48.01 137.51 -50.02 139.02 -52.04 140.51 C-62.26 148.22 -73.17 158.34 -79 170 C-85.94 170.48 -92.3 168.69 -99 167 C-99 166.34 -99 165.68 -99 165 C-98.44 164.9 -97.89 164.8 -97.31 164.7 C-88.98 163.07 -82.51 160.85 -77.56 153.66 C-75.17 149.59 -73.1 145.39 -71.04 141.15 C-63.82 126.33 -63.82 126.33 -59.24 120.92 C-57.79 119.1 -57.79 119.1 -58.14 117.02 C-63.12 105.28 -73.19 95.51 -84.4 89.77 C-89.68 88.21 -93.52 88.51 -98.34 91.08 C-99.88 91.98 -101.41 92.89 -102.94 93.81 C-111.91 99.15 -118.79 102.53 -129.38 102.25 C-130.58 102.24 -130.58 102.24 -131.82 102.23 C-137.69 102.16 -137.69 102.16 -140 101 C-138.68 98.08 -137.22 96.04 -135 93.75 C-131.69 90.03 -130.85 86.86 -130 82 C-134.62 82 -139.24 82 -144 82 C-142.45 78.9 -139.42 78.23 -136.37 76.93 C-135.7 76.64 -135.03 76.35 -134.34 76.05 C-132.91 75.44 -131.49 74.84 -130.06 74.24 C-127.9 73.32 -125.74 72.38 -123.59 71.44 C-122.2 70.85 -120.82 70.26 -119.43 69.68 C-118.79 69.39 -118.15 69.11 -117.49 68.82 C-112.97 66.96 -109.73 66.79 -105 68 C-104.67 68.66 -104.34 69.32 -104 70 C-106.47 70.5 -106.47 70.5 -109 71 C-108 71.11 -106.99 71.22 -105.96 71.33 C-104.58 71.49 -103.19 71.65 -101.81 71.81 C-101.09 71.9 -100.37 71.98 -99.62 72.06 C-94.92 72.65 -90.51 73.6 -85.94 74.88 C-80.89 76.12 -80.89 76.12 -76.06 74.69 C-72.25 71.82 -69.65 67.91 -67 64 C-62.65 57.64 -58 52.5 -51 49 C-59.06 48.66 -66.32 50.67 -74 53 C-74.64 53.16 -75.28 53.31 -75.94 53.48 C-82.05 55.16 -86.84 58.29 -91.95 61.95 C-95.79 64.6 -98.34 65.62 -103 65 C-105.38 63.5 -105.38 63.5 -107 62 C-105.99 53.88 -98.7 49.29 -92.62 44.53 C-88.45 41.31 -84.24 38.14 -80 35 C-79.34 35.33 -78.68 35.66 -78 36 C-80.31 39.3 -82.62 42.6 -85 46 C-84.01 45.24 -83.02 44.47 -82 43.69 C-80.34 42.45 -78.67 41.22 -77 40 C-76.14 39.36 -76.14 39.36 -75.26 38.72 C-64.4 30.76 -53.86 23.82 -40 23 C-41.14 24.11 -42.28 25.21 -43.42 26.32 C-45.74 28.78 -47.85 31.39 -50 34 C-30.68 25.58 -13.31 16.89 0 0 Z " fill="#3EC5E8" transform="translate(164,27)"/>
<path d="M0 0 C0.66 0.66 1.32 1.32 2 2 C0.02 4.31 -1.96 6.62 -4 9 C-3.34 9 -2.68 9 -2 9 C-2.49 10.02 -2.49 10.02 -3 11.06 C-4.18 14.54 -4.21 17.35 -4 21 C-3.51 21.99 -3.51 21.99 -3 23 C-2.87 25.67 -2.96 28.32 -3 31 C-3.99 31.5 -3.99 31.5 -5 32 C-4.67 32.99 -4.34 33.98 -4 35 C-14.23 39.29 -24.46 43.58 -35 48 C-30.71 48.33 -26.42 48.66 -22 49 C-22 55.75 -22 55.75 -24.75 59.06 C-25.26 59.69 -25.77 60.32 -26.3 60.97 C-26.86 61.64 -27.42 62.31 -28 63 C-29.34 64.66 -30.67 66.33 -32 68 C-15.4 68.71 -15.4 68.71 -0.16 62.93 C1.24 62.12 2.64 61.31 4.04 60.5 C5.44 59.69 6.83 58.85 8.21 58 C12.63 55.36 15.71 54.38 21 55 C34.79 59.39 43.34 71.51 51 83 C50.7 86.91 48.32 89.9 46.25 93.12 C42.8 98.59 39.75 104.14 37 110 C36 107 36 107 37 104 C36.34 104 35.68 104 35 104 C35 104.99 35 105.98 35 107 C34.01 107 33.02 107 32 107 C31.81 107.63 31.61 108.25 31.41 108.9 C31.15 109.72 30.89 110.53 30.62 111.38 C30.37 112.19 30.11 113 29.85 113.84 C29 116 29 116 27 118 C26.32 119.27 26.32 119.27 25.62 120.56 C24 123 24 123 21.9 123.65 C21.27 123.77 20.65 123.88 20 124 C17.54 118.74 15.44 113.63 14 108 C13.01 108.5 13.01 108.5 12 109 C11.57 111.78 11.57 111.78 11.44 115 C11.1 120.9 11.1 120.9 10 122 C12.31 122.66 14.62 123.32 17 124 C16.5 125.49 16.5 125.49 16 127 C6.34 128.74 6.34 128.74 3.04 126.92 C1.66 125.65 0.33 124.33 -1 123 C-1.99 123.33 -2.98 123.66 -4 124 C-4.67 122.38 -5.34 120.75 -6 119.12 C-6.37 118.22 -6.74 117.32 -7.12 116.38 C-8 114 -8 114 -8 112 C-4.29 113.67 -1.91 115.89 0.93 118.76 C3.94 120.56 6.56 120.19 10 120 C8.86 103.07 7.51 88.43 0 73 C0 79.93 0 86.86 0 94 C-3.71 92.14 -5.11 91.04 -7.69 88 C-8.29 87.3 -8.89 86.6 -9.51 85.88 C-11 84 -11 84 -12 82 C-15.05 81.53 -15.05 81.53 -18.56 81.38 C-19.76 81.3 -20.96 81.23 -22.19 81.15 C-23.58 81.07 -23.58 81.07 -25 81 C-24.67 84.63 -24.34 88.26 -24 92 C-27.9 90.7 -28.53 89.07 -30.69 85.62 C-31.31 84.65 -31.93 83.67 -32.57 82.66 C-34 80 -34 80 -34 77 C-35.48 76.5 -35.48 76.5 -37 76 C-38.35 74.04 -38.35 74.04 -39.62 71.62 C-40.05 70.83 -40.48 70.04 -40.91 69.23 C-42 67 -42 67 -43 64 C-44.45 63.04 -44.45 63.04 -45.94 62.06 C-50.03 59.31 -50.03 59.31 -51 56 C-51.02 54 -51.03 52 -51 50 C-46.05 47.57 -41.11 45.15 -36.16 42.74 C-34.47 41.91 -32.79 41.09 -31.1 40.26 C-28.69 39.08 -26.27 37.9 -23.85 36.72 C-23.1 36.35 -22.34 35.98 -21.56 35.59 C-16.23 33 -16.23 33 -14 33 C-14.25 31.58 -14.25 31.58 -14.5 30.12 C-14.68 28.75 -14.84 27.38 -15 26 C-15.15 24.82 -15.15 24.82 -15.31 23.62 C-15.81 16.99 -13.96 13.66 -9.73 8.62 C-8 7 -8 7 -6 7 C-5.67 6.01 -5.34 5.02 -5 4 C-3.38 2.61 -1.71 1.27 0 0 Z " fill="#0A1B30" transform="translate(56,60)"/>
<path d="M0 0 C0 0.66 0 1.32 0 2 C-1.14 3.14 -2.3 4.28 -3.48 5.39 C-5.23 7.24 -6.51 9.26 -7.94 11.38 C-11.42 15.96 -15.26 17.91 -20.45 20.26 C-27.43 23.5 -33.09 28.12 -39 33 C-39.7 33.55 -40.4 34.09 -41.12 34.66 C-45.87 38.46 -49.51 43.03 -53 48 C-53.56 48.78 -54.12 49.55 -54.69 50.35 C-56.34 53.69 -56.3 56.11 -56.19 59.81 C-56.16 60.97 -56.13 62.14 -56.11 63.33 C-56.05 64.65 -56.05 64.65 -56 66 C-67.72 71.86 -67.72 71.86 -69.85 72.92 C-71.32 73.66 -72.78 74.4 -74.25 75.16 C-79.79 78 -79.79 78 -82 78 C-78.36 60.65 -72.14 46.79 -61 33 C-60.47 32.31 -59.94 31.63 -59.39 30.92 C-58.31 29.57 -57.17 28.27 -56 27 C-55.34 27 -54.68 27 -54 27 C-54 26.34 -54 25.68 -54 25 C-51.91 23.16 -49.83 21.44 -47.62 19.75 C-46.98 19.25 -46.34 18.76 -45.68 18.25 C-33.34 8.84 -16.13 -1.04 0 0 Z " fill="#0A1B31" transform="translate(91,23)"/>
<path d="M0 0 C1.97 1.97 2.73 3.33 3.88 5.81 C5.56 9.28 7.54 12.01 10 15 C10.83 16.33 11.64 17.66 12.44 19 C17.03 26.41 23.8 31.6 31.68 35.24 C35.02 37.77 34.97 39.99 35.56 44.06 C37.44 55.07 40.23 61.85 48.07 69.97 C50 72 50 72 51 74 C32.8 67.5 17.66 48.72 9 32 C4.31 21.92 0.75 11.12 0 0 Z " fill="#0A1C32" transform="translate(8,129)"/>
<path d="M0 0 C0.49 0.99 0.49 0.99 1 2 C-0.65 2.33 -2.3 2.66 -4 3 C-0.7 3.33 2.6 3.66 6 4 C6 4.33 6 4.66 6 5 C2.37 5.33 -1.26 5.66 -5 6 C1.6 7.98 8.2 9.96 15 12 C10.9 13.03 9.93 12.79 6 12 C2.9 11.87 -0.21 11.91 -3.31 11.94 C-4.57 11.94 -4.57 11.94 -5.85 11.95 C-7.9 11.96 -9.95 11.98 -12 12 C-12 12.66 -12 13.32 -12 14 C-9.03 14 -6.06 14 -3 14 C-4 16 -4 16 -6.29 16.78 C-7.25 17.02 -8.2 17.26 -9.19 17.5 C-13.19 18.53 -17.1 19.63 -21 21 C-21 20.34 -21 19.68 -21 19 C-22.32 18.67 -23.64 18.34 -25 18 C-25 16.68 -25 15.36 -25 14 C-29.62 14 -34.24 14 -39 14 C-37.45 10.9 -34.42 10.23 -31.37 8.93 C-30.7 8.64 -30.03 8.35 -29.34 8.05 C-27.91 7.44 -26.49 6.84 -25.06 6.24 C-22.9 5.32 -20.74 4.38 -18.59 3.44 C-17.2 2.85 -15.82 2.26 -14.43 1.68 C-13.79 1.39 -13.15 1.11 -12.49 0.82 C-7.97 -1.04 -4.73 -1.21 0 0 Z " fill="#38B1D2" transform="translate(59,95)"/>
<path d="M0 0 C0.66 0.66 1.32 1.32 2 2 C1.75 7.33 -0.51 11.33 -3.06 15.88 C-3.44 16.56 -3.82 17.25 -4.21 17.96 C-5.13 19.64 -6.06 21.32 -7 23 C-8 20 -8 20 -7 17 C-7.66 17 -8.32 17 -9 17 C-9 17.99 -9 18.98 -9 20 C-9.99 20 -10.98 20 -12 20 C-13.48 24.45 -13.48 24.45 -15 29 C-15.33 29 -15.66 29 -16 29 C-15.68 19.35 -11.63 11.06 -5 4 C-3.37 2.63 -1.71 1.28 0 0 Z " fill="#0C2138" transform="translate(100,147)"/>
<path d="M0 0 C0.33 0 0.66 0 1 0 C1.03 1.81 1.05 3.62 1.06 5.44 C1.07 6.45 1.09 7.46 1.1 8.5 C1 11 1 11 0 12 C2.31 12.66 4.62 13.32 7 14 C6.67 14.99 6.34 15.98 6 17 C-3.66 18.74 -3.66 18.74 -6.96 16.92 C-8.34 15.65 -9.67 14.33 -11 13 C-11.99 13.33 -12.98 13.66 -14 14 C-14.67 12.38 -15.34 10.75 -16 9.12 C-16.37 8.22 -16.74 7.32 -17.12 6.38 C-18 4 -18 4 -18 2 C-15.02 3.34 -13 4.84 -10.69 7.12 C-7.8 9.7 -7.16 9.98 -3.06 10.38 C-2.05 10.25 -1.04 10.13 0 10 C0 6.7 0 3.4 0 0 Z " fill="#0D233A" transform="translate(66,170)"/>
<path d="M0 0 C5.94 0 11.88 0 18 0 C18.33 1.32 18.66 2.64 19 4 C13.72 4 8.44 4 3 4 C3.66 5.65 4.32 7.3 5 9 C5.66 8.34 6.32 7.68 7 7 C7.33 10.63 7.66 14.26 8 18 C4.08 16.69 3.46 15.03 1.31 11.56 C0.69 10.57 0.07 9.59 -0.57 8.57 C-2 6 -2 6 -2 4 C-1.34 4 -0.68 4 0 4 C0 2.68 0 1.36 0 0 Z " fill="#0E273D" transform="translate(24,134)"/>
<path d="M0 0 C7.33 0.53 13.97 1.87 21 4 C18.63 6.75 16.47 7.95 13 9 C9.89 9.2 9.89 9.2 6.69 9.12 C5.62 9.11 4.55 9.09 3.45 9.07 C2.64 9.05 1.83 9.02 1 9 C0.67 6.03 0.34 3.06 0 0 Z " fill="#0B1E34" transform="translate(115,23)"/>
<path d="M0 0 C0.66 0.33 1.32 0.66 2 1 C2 8.26 2 15.52 2 23 C-1.57 21.21 -3.43 19.93 -6 17 C-6 16.34 -6 15.68 -6 15 C-5.34 15 -4.68 15 -4 15 C-4.36 14.3 -4.72 13.6 -5.09 12.88 C-5.56 11.97 -6.02 11.06 -6.5 10.12 C-6.96 9.22 -7.43 8.32 -7.91 7.38 C-9 5 -9 5 -9 3 C-7.02 2.67 -5.04 2.34 -3 2 C-2.34 5.96 -1.68 9.92 -1 14 C-0.67 9.38 -0.34 4.76 0 0 Z " fill="#12344C" transform="translate(54,131)"/>
<path d="M0 0 C-0.66 1.65 -1.32 3.3 -2 5 C-1.13 4.71 -0.27 4.42 0.62 4.12 C3.75 3.08 6.88 2.04 10 1 C8.36 4.67 6.65 7.18 3 9 C0.79 9.07 -1.42 9.08 -3.62 9.06 C-4.81 9.05 -6 9.04 -7.23 9.04 C-8.14 9.02 -9.06 9.01 -10 9 C-10.33 8.01 -10.66 7.02 -11 6 C-9.55 4.99 -8.09 4 -6.62 3 C-5.41 2.16 -5.41 2.16 -4.16 1.31 C-2 0 -2 0 0 0 Z " fill="#0D253C" transform="translate(80,84)"/>
<path d="M0 0 C0.33 0.99 0.66 1.98 1 3 C0.67 3.33 0.34 3.66 0 4 C-0.15 7.71 0.02 11.13 0.56 14.81 C1 18 1 18 0 20 C-3.83 18.55 -5.28 16.69 -7 13 C-7.4 9.81 -7.31 8.45 -5.47 5.76 C-4.82 5.08 -4.17 4.39 -3.5 3.69 C-2.85 2.99 -2.2 2.29 -1.53 1.57 C-1.03 1.05 -0.52 0.54 0 0 Z " fill="#3EC5E7" transform="translate(52,70)"/>
<path d="M0 0 C2.56 2.49 4.96 4.95 7.19 7.75 C8.8 10.07 8.8 10.07 11 11 C10.43 13.87 10.14 14.86 8 17 C6.02 16.95 6.02 16.95 4 16 C2.73 13.67 2.73 13.67 1.75 10.75 C1.41 9.8 1.08 8.84 0.73 7.86 C0.03 5.1 -0.14 2.83 0 0 Z " fill="#3BBCDD" transform="translate(71,167)"/>
<path d="M0 0 C0 4.1 -1.7 5.6 -4.12 8.88 C-8.72 15.23 -11.97 21.74 -15 29 C-15.33 29 -15.66 29 -16 29 C-15.68 19.35 -11.63 11.06 -5 4 C-3.37 2.63 -1.71 1.28 0 0 Z " fill="#3BBBDC" transform="translate(100,147)"/>
<path d="M0 0 C-3.4 1.13 -5.54 0.72 -9 0 C-11.6 -0.09 -14.16 -0.14 -16.75 -0.12 C-17.81 -0.12 -17.81 -0.12 -18.89 -0.12 C-24 -0.08 -28.95 0.28 -34 1 C-33 -1 -33 -1 -31.03 -1.85 C-19.51 -5.37 -11.3 -3.6 0 0 Z " fill="#12354D" transform="translate(74,107)"/>
<path d="M0 0 C5.94 0 11.88 0 18 0 C18 0.99 18 1.98 18 3 C12.72 3 7.44 3 2 3 C2.33 4.98 2.66 6.96 3 9 C-0.03 5.59 0 4.98 0 0 Z " fill="#37AECE" transform="translate(25,135)"/>
<path d="M0 0 C2.92 1.21 2.92 1.21 5.75 2.81 C6.69 3.33 7.64 3.86 8.61 4.39 C11 6 11 6 13 9 C9.74 7.97 6.71 6.86 3.62 5.38 C-1.59 3.4 -6.61 3.2 -12 5 C-7.9 0.77 -6 -0.44 0 0 Z " fill="#35A9C9" transform="translate(77,120)"/>
<path d="M0 0 C0.33 4.29 0.66 8.58 1 13 C-2.49 9.51 -4.09 7.39 -6 3 C-6 2.34 -6 1.68 -6 1 C-4 0 -4 0 0 0 Z " fill="#3AB8D9" transform="translate(51,133)"/>
<path d="M0 0 C0.8 0.49 0.8 0.49 1.61 0.99 C4.63 2.26 6.99 2.2 10.25 2.12 C11.87 2.1 11.87 2.1 13.52 2.07 C14.34 2.05 15.16 2.02 16 2 C15.67 2.99 15.34 3.98 15 5 C4.89 6.6 4.89 6.6 1.31 4.19 C0 2 0 2 0 0 Z " fill="#36ACCC" transform="translate(57,182)"/>
<path d="M0 0 C-1.64 3.67 -3.35 6.18 -7 8 C-8.71 8.07 -10.42 8.08 -12.12 8.06 C-13.04 8.05 -13.95 8.04 -14.88 8.04 C-15.58 8.02 -16.28 8.01 -17 8 C-16.67 7.34 -16.34 6.68 -16 6 C-13.69 6.33 -11.38 6.66 -9 7 C-8.96 6.4 -8.92 5.8 -8.88 5.19 C-8 3 -8 3 -5.06 1.25 C-2 0 -2 0 0 0 Z " fill="#38B1D1" transform="translate(90,85)"/>
<path d="M0 0 C1.31 3.94 0.24 6.12 -1 10 C-1.66 9.34 -2.32 8.68 -3 8 C-3.99 8.33 -4.98 8.66 -6 9 C-6.73 11.02 -6.73 11.02 -7 13 C-7.31 9.86 -7.28 8.41 -5.47 5.76 C-4.82 5.08 -4.17 4.39 -3.5 3.69 C-2.85 2.99 -2.2 2.29 -1.53 1.57 C-1.03 1.05 -0.52 0.54 0 0 Z " fill="#37AFD0" transform="translate(52,70)"/>
<path d="M0 0 C1.79 0.02 1.79 0.02 3.62 0.04 C5.42 0.05 5.42 0.05 7.25 0.06 C8.18 0.07 9.1 0.09 10.06 0.1 C7.6 2.55 6.45 2.51 3.06 2.85 C1.73 2.99 1.73 2.99 0.37 3.14 C-1.94 3.1 -1.94 3.1 -3.94 1.1 C-2.94 0.1 -2.94 0.1 0 0 Z " fill="#36ABCB" transform="translate(15.94140625,110.90234375)"/>
<path d="M0 0 C1.99 1.99 2.85 3.5 4.06 6 C4.4 6.7 4.75 7.4 5.1 8.12 C5.54 9.05 5.54 9.05 6 10 C6.33 10.66 6.66 11.32 7 12 C5.35 12.33 3.7 12.66 2 13 C1.34 8.71 0.68 4.42 0 0 Z " fill="#12364E" transform="translate(8,129)"/>
<path d="M0 0 C0 0.33 0 0.66 0 1 C-1.98 1 -3.96 1 -6 1 C-6 1.99 -6 2.98 -6 4 C-6.52 3.86 -7.03 3.71 -7.56 3.56 C-10.69 2.84 -13.83 2.43 -17 2 C-17 1.67 -17 1.34 -17 1 C-11.28 0.17 -5.78 -0.12 0 0 Z " fill="#12384F" transform="translate(34,109)"/>
<path d="M0 0 C0.66 0 1.32 0 2 0 C2.81 1.62 2.81 1.62 3 4 C1.53 6.25 -0.16 8.02 -2 10 C-3 8 -3 8 -2.44 6.05 C-2.15 5.34 -1.86 4.62 -1.56 3.88 C-1.28 3.15 -0.99 2.43 -0.69 1.68 C-0.46 1.13 -0.24 0.57 0 0 Z " fill="#36ABCB" transform="translate(126,190)"/>
<path d="M0 0 C2.97 0 5.94 0 9 0 C9.33 1.32 9.66 2.64 10 4 C6.7 3.01 3.4 2.02 0 1 C0 0.67 0 0.34 0 0 Z " fill="#113149" transform="translate(135,78)"/>
<path d="M0 0 C-2.56 2.01 -5.05 3.63 -8 5 C-8 4.01 -8 3.02 -8 2 C-8.99 1.67 -9.98 1.34 -11 1 C-7.33 -0.18 -3.83 -0.07 0 0 Z " fill="#34A4C4" transform="translate(118,163)"/>
<path d="M0 0 C-2.05 2.25 -3.01 3 -6 4 C-8.19 2.56 -8.19 2.56 -10 1 C-6.79 -0.61 -3.56 -0.06 0 0 Z " fill="#12364E" transform="translate(114,75)"/>
<path d="M0 0 C0.66 0.33 1.32 0.66 2 1 C0.35 3.31 -1.3 5.62 -3 8 C-3.33 7.34 -3.66 6.68 -4 6 C-4.99 5.67 -5.98 5.34 -7 5 C-4.69 3.35 -2.38 1.7 0 0 Z " fill="#36ABCB" transform="translate(84,62)"/>
<path d="M0 0 C1.19 1.56 1.19 1.56 2 4 C0.62 7.75 0.62 7.75 -1 11 C-1.33 11 -1.66 11 -2 11 C-1.86 9.54 -1.71 8.08 -1.56 6.62 C-1.48 5.81 -1.4 5 -1.32 4.16 C-1 2 -1 2 0 0 Z " fill="#2F94B3" transform="translate(86,165)"/>
<path d="M0 0 C0 4 -1.73 5.8 -4 9 C-4.66 7.68 -5.32 6.36 -6 5 C-4.02 3.35 -2.04 1.7 0 0 Z " fill="#34A5C5" transform="translate(100,147)"/>
<path d="M0 0 C-1.65 1.65 -3.3 3.3 -5 5 C-5.99 3.68 -6.98 2.36 -8 1 C-5.07 0.02 -3.04 -0.08 0 0 Z " fill="#35A7C6" transform="translate(124,50)"/>
<path d="M0 0 C3.37 1.39 4.99 2.98 7 6 C3.62 4.81 1.35 3.72 -1 1 C-0.67 0.67 -0.34 0.34 0 0 Z " fill="#154059" transform="translate(52,197)"/>
<path d="M0 0 C3.16 1.37 3.99 1.99 6 5 C4.33 5 2.67 5 1 5 C0.67 3.35 0.34 1.7 0 0 Z " fill="#16435C" transform="translate(48,172)"/>
<path d="M0 0 C6.71 3.41 6.71 3.41 8 6 C4.09 4.84 1.13 3.64 -2 1 C-1.34 0.67 -0.68 0.34 0 0 Z " fill="#2E90AE" transform="translate(82,123)"/>
</svg>
