<?xml version="1.0" encoding="UTF-8"?>
<!-- Generator: https://ezgif.com/png-to-svg -->
<svg version="1.1" xmlns="http://www.w3.org/2000/svg" width="512" height="512" viewBox="-28.469 -14.336 267.678 267.678" preserveAspectRatio="xMidYMid meet">
<path d="M0 0 C1.45 0.84 1.45 0.84 2.93 1.7 C3.94 2.3 4.96 2.89 6 3.51 C8.05 4.62 10.1 5.72 12.16 6.8 C17.74 9.78 23.29 12.78 28.84 15.79 C30.82 16.86 32.79 17.93 34.77 19 C37.13 20.27 39.47 21.57 41.81 22.88 C42.81 23.42 42.81 23.42 43.84 23.96 C48.77 26.79 51.56 30.38 54 35.51 C54.17 36.46 54.33 37.41 54.5 38.38 C54.67 39.08 54.83 39.79 55 40.51 C56.16 40.89 56.16 40.89 57.34 41.29 C60.9 42.92 61.51 44.67 63.12 48.2 C63.63 49.27 64.13 50.35 64.64 51.45 C65.09 52.46 65.54 53.47 66 54.51 C66.35 55.25 66.69 55.99 67.05 56.75 C68.31 59.53 69 61.42 69 64.51 C64.32 63.8 60.21 62.12 55.86 60.35 C55.09 60.04 54.32 59.73 53.52 59.41 C51.08 58.43 48.63 57.44 46.19 56.45 C44.52 55.77 42.86 55.11 41.2 54.44 C37.13 52.8 33.06 51.15 29 49.51 C49.23 92.63 49.23 92.63 69.8 135.6 C70.67 137.41 71.54 139.22 72.42 141.03 C74.72 145.8 77.02 150.57 79.38 155.31 C82.18 161 84.44 165.84 84.62 172.25 C85.33 176.46 87.72 180.05 89.82 183.71 C91.66 188.07 90.29 190.77 88.6 195.1 C88.02 196.48 87.43 197.85 86.84 199.21 C86.53 199.94 86.22 200.67 85.9 201.41 C84.92 203.72 83.93 206.02 82.94 208.32 C82.27 209.89 81.6 211.45 80.93 213.02 C79.29 216.85 77.65 220.68 76 224.51 C72.37 224.51 68.74 224.51 65 224.51 C60.62 216.21 56.25 207.91 51.91 199.58 C51.14 198.11 51.14 198.11 50.36 196.6 C49.33 194.63 48.3 192.65 47.28 190.67 C45.15 186.55 43.01 182.46 40.65 178.48 C40 177.37 39.35 176.27 38.69 175.13 C38.13 174.24 37.58 173.34 37.01 172.42 C35.94 169.35 36.07 168.44 36.65 165.37 C37.3 160.05 35.9 156.54 33.65 151.79 C33.29 150.98 32.93 150.17 32.55 149.33 C31.37 146.69 30.15 144.07 28.94 141.45 C28.1 139.6 27.27 137.75 26.43 135.9 C24.76 132.17 23.07 128.45 21.37 124.73 C18.43 118.28 15.59 111.78 12.76 105.28 C11.65 102.72 10.53 100.17 9.41 97.61 C6.55 91.07 3.7 84.53 0.85 77.98 C0.31 76.76 0.31 76.76 -0.23 75.51 C-2.04 71.36 -3.84 67.22 -5.64 63.07 C-8.79 55.82 -11.96 48.58 -15.19 41.37 C-16.52 38.39 -17.85 35.41 -19.18 32.43 C-19.81 31.03 -20.43 29.64 -21.07 28.25 C-21.93 26.35 -22.78 24.44 -23.63 22.53 C-24.12 21.46 -24.6 20.38 -25.1 19.28 C-26.03 16.41 -26.26 15.23 -25 12.51 C-22.27 10.53 -19.4 8.95 -16.47 7.29 C-13.69 5.28 -13.6 4.71 -13 1.51 C-8.75 -2.79 -5.04 -3.02 0 0 Z " fill="#FE3434" transform="translate(26,14.4921875)"/>
<path d="M0 0 C4.3 1.22 7.97 3.44 11.85 5.61 C12.68 6.06 13.5 6.51 14.36 6.97 C15.54 7.62 15.54 7.62 16.74 8.29 C17.82 8.89 17.82 8.89 18.91 9.49 C20.6 10.74 20.6 10.74 21.6 13.74 C20.66 16.54 19.65 19.16 18.47 21.86 C18.18 22.6 17.88 23.34 17.58 24.11 C16.7 26.13 15.87 27.94 14.6 29.74 C11.86 30.73 11.86 30.73 9.6 30.74 C9.51 31.55 9.41 32.37 9.32 33.21 C8.44 37.51 6.86 41.2 5.1 45.21 C4.37 46.92 3.63 48.62 2.9 50.33 C2.52 51.22 2.14 52.11 1.75 53.02 C-0.14 57.49 -1.94 61.98 -3.74 66.49 C-4.11 67.42 -4.49 68.35 -4.87 69.3 C-6.05 72.26 -7.23 75.21 -8.4 78.17 C-9.25 80.29 -10.1 82.42 -10.95 84.54 C-13.18 90.11 -15.4 95.67 -17.62 101.24 C-38.64 153.93 -38.64 153.93 -47.13 174.92 C-47.78 176.54 -48.43 178.16 -49.09 179.78 C-49.97 181.97 -50.85 184.15 -51.74 186.34 C-52.23 187.56 -52.73 188.78 -53.23 190.04 C-54.4 192.74 -54.4 192.74 -55.4 193.74 C-57.78 194.11 -57.78 194.11 -60.4 193.74 C-66.29 185.42 -72.33 173.69 -71.14 163.42 C-71.61 158.55 -74.38 154.25 -76.82 150.06 C-79.61 144.9 -79.61 144.9 -79.05 141.73 C-78.79 141.04 -78.54 140.35 -78.28 139.64 C-77.99 138.86 -77.7 138.07 -77.4 137.26 C-75.63 132.8 -73.78 128.38 -71.87 123.98 C-71.43 122.96 -70.99 121.95 -70.54 120.9 C-69.14 117.65 -67.74 114.41 -66.34 111.17 C-64.51 106.94 -62.69 102.71 -60.87 98.48 C-60.42 97.44 -59.97 96.4 -59.51 95.33 C-54.71 84.17 -50.04 72.96 -45.4 61.74 C-46.38 62.2 -47.37 62.66 -48.38 63.13 C-52.03 64.83 -55.68 66.52 -59.33 68.2 C-60.92 68.93 -62.5 69.67 -64.08 70.4 C-66.34 71.46 -68.61 72.51 -70.89 73.55 C-71.95 74.05 -71.95 74.05 -73.03 74.56 C-78.06 76.85 -78.06 76.85 -81.4 75.74 C-80.36 69.78 -78.13 64.4 -75.9 58.8 C-75.31 57.19 -75.31 57.19 -74.7 55.55 C-71.64 47.93 -68.59 44.52 -61.4 40.74 C-59.3 39.51 -57.21 38.28 -55.12 37.04 C-52.86 35.75 -50.6 34.46 -48.34 33.17 C-45 31.27 -41.67 29.36 -38.34 27.44 C-36.54 26.4 -34.74 25.37 -32.92 24.37 C-28.23 21.69 -26.81 19.65 -24.4 14.74 C-21.98 12.58 -19.31 10.86 -16.59 9.11 C-15.89 8.65 -15.19 8.18 -14.47 7.71 C-13.1 6.8 -11.71 5.89 -10.33 5 C-8.57 3.85 -6.88 2.6 -5.2 1.34 C-2.4 -0.26 -2.4 -0.26 0 0 Z " fill="#FE3434" transform="translate(189.400634765625,0.263671875)"/>
<path d="M0 0 C0.66 0 1.32 0 2 0 C2.33 0.66 2.66 1.32 3 2 C4.65 1.67 6.3 1.34 8 1 C5.38 3.15 3.36 4.4 0 5 C-0.56 3.06 -0.56 3.06 -1 1 C-0.67 0.67 -0.34 0.34 0 0 Z " fill="#FE1B1B" transform="translate(109,72)"/>
</svg>
