<?xml version="1.0" encoding="UTF-8"?>
<!-- Generator: https://ezgif.com/png-to-svg -->
<svg version="1.1" xmlns="http://www.w3.org/2000/svg" width="512" height="512" viewBox="-36 -263.955 672 672" preserveAspectRatio="xMidYMid meet">
<path d="M0 0 C6.14 -0.17 12.27 -0.3 18.41 -0.38 C20.5 -0.42 22.59 -0.47 24.67 -0.53 C27.68 -0.61 30.68 -0.65 33.69 -0.68 C34.62 -0.72 35.54 -0.76 36.5 -0.79 C40.29 -0.8 42.94 -0.77 46.07 1.5 C47.83 3.26 49.4 5.1 51 7 C52.16 8.03 53.33 9.05 54.53 10.03 C61.91 16.4 68.6 23.55 75.45 30.47 C77.35 32.39 79.25 34.3 81.16 36.22 C81.72 36.8 82.29 37.37 82.88 37.96 C85.81 40.92 88.81 43.74 91.96 46.46 C95.99 49.94 99.75 53.64 103.49 57.43 C104.16 58.11 104.84 58.78 105.53 59.48 C107.65 61.61 109.76 63.74 111.88 65.88 C114.68 68.71 117.49 71.54 120.3 74.37 C120.95 75.02 121.59 75.67 122.25 76.34 C122.85 76.94 123.44 77.54 124.05 78.15 C124.84 78.94 124.84 78.94 125.64 79.75 C127 81.11 127 81.11 129 82 C129 82.66 129 83.32 129 84 C129.55 84.22 130.1 84.45 130.67 84.68 C133.71 86.4 135.81 88.63 138.25 91.12 C139.14 92.04 140.03 92.95 140.95 93.88 C141.97 94.93 141.97 94.93 143 96 C143.59 89.79 144.17 83.58 144.75 77.38 C144.84 76.43 144.93 75.48 145.02 74.51 C146.09 63.06 147.13 51.61 148.12 40.15 C148.21 39.11 148.3 38.06 148.39 36.99 C148.83 31.92 149.26 26.86 149.69 21.79 C149.85 19.94 150.01 18.09 150.17 16.23 C150.27 14.98 150.27 14.98 150.38 13.71 C150.45 12.92 150.51 12.14 150.58 11.33 C150.64 10.66 150.7 9.99 150.75 9.3 C151.09 6.19 151.56 3.1 152 0 C166.52 0 181.04 0 196 0 C194.85 21.83 194.85 21.83 193.88 32.54 C193.77 33.75 193.66 34.96 193.55 36.21 C193.26 39.46 192.97 42.72 192.68 45.97 C192.37 49.39 192.07 52.81 191.76 56.24 C191.19 62.69 190.61 69.14 190.03 75.6 C189.37 82.95 188.71 90.31 188.06 97.67 C186.71 112.78 185.36 127.89 184 143 C176.39 143.28 168.77 143.49 161.15 143.62 C157.61 143.68 154.08 143.77 150.54 143.91 C124.49 144.89 124.49 144.89 117.76 138.75 C115.58 136.3 113.8 133.74 112 131 C110.52 130.01 110.52 130.01 109 129 C109 128.34 109 127.68 109 127 C108.11 126.6 108.11 126.6 107.21 126.2 C104.93 124.96 103.46 123.69 101.64 121.85 C101.01 121.22 100.37 120.58 99.72 119.92 C99.04 119.23 98.37 118.54 97.67 117.83 C96.96 117.12 96.26 116.41 95.53 115.67 C93.26 113.39 91.01 111.1 88.75 108.81 C86.51 106.54 84.26 104.27 82.02 102.01 C80.62 100.6 79.23 99.19 77.84 97.77 C73.99 93.89 70.02 90.22 65.88 86.65 C63.14 84.25 60.59 81.69 58.04 79.1 C57.52 78.58 57.01 78.06 56.47 77.52 C54.85 75.89 53.24 74.26 51.62 72.62 C49.47 70.45 47.32 68.27 45.16 66.1 C44.67 65.6 44.18 65.11 43.68 64.59 C41.09 61.96 41.09 61.96 38 60 C38.02 60.81 38.02 60.81 38.04 61.63 C38.16 69.77 37.44 77.83 36.72 85.93 C36.59 87.45 36.46 88.98 36.33 90.5 C36.05 93.67 35.77 96.84 35.49 100.01 C35.13 104.08 34.78 108.14 34.43 112.2 C34.16 115.34 33.88 118.47 33.61 121.61 C33.48 123.11 33.35 124.61 33.22 126.1 C33.04 128.19 32.85 130.28 32.66 132.37 C32.56 133.56 32.46 134.74 32.35 135.97 C32 139 32 139 31 143 C16.81 143 2.62 143 -12 143 C-12 133.78 -11.82 124.92 -11.01 115.78 C-10.9 114.55 -10.79 113.31 -10.69 112.03 C-10.4 108.69 -10.11 105.35 -9.81 102 C-9.5 98.49 -9.2 94.97 -8.9 91.45 C-8.39 85.57 -7.87 79.68 -7.36 73.79 C-6.76 66.99 -6.17 60.18 -5.58 53.37 C-5.01 46.81 -4.44 40.24 -3.87 33.67 C-3.63 30.88 -3.38 28.09 -3.14 25.3 C-2.81 21.42 -2.47 17.54 -2.12 13.66 C-2.02 12.5 -1.92 11.35 -1.82 10.15 C-1.73 9.1 -1.63 8.05 -1.54 6.97 C-1.46 6.05 -1.38 5.13 -1.29 4.19 C-1 2 -1 2 0 0 Z " fill="#F63C09" transform="translate(12,0)"/>
<path d="M0 0 C18.57 -0.09 37.14 -0.16 55.7 -0.21 C64.33 -0.23 72.95 -0.26 81.57 -0.3 C89.09 -0.34 96.61 -0.37 104.13 -0.38 C108.11 -0.38 112.09 -0.39 116.06 -0.42 C119.82 -0.45 123.57 -0.46 127.32 -0.45 C129.34 -0.45 131.35 -0.48 133.37 -0.5 C146.65 -0.44 157.03 3.13 167 12 C175.37 20.77 179.77 31.49 180.38 43.56 C179.96 60.21 172.85 73.6 161 85 C153.85 90.96 146.06 94.89 137 97 C137.69 97.75 138.38 98.5 139.09 99.27 C143.58 104.16 148.07 109.06 152.5 114 C155.81 117.69 159.15 121.35 162.5 125 C163.42 126.01 164.35 127.02 165.27 128.02 C167.07 129.99 168.88 131.95 170.7 133.91 C171.52 134.81 172.34 135.7 173.19 136.62 C173.92 137.42 174.66 138.22 175.42 139.04 C177 141 177 141 177 143 C169.94 143.31 162.88 143.52 155.81 143.66 C153.42 143.72 151.02 143.8 148.62 143.91 C127.59 144.8 127.59 144.8 122.11 140.49 C119.22 137.64 117.13 134.44 115 131 C113.98 129.82 112.93 128.67 111.84 127.55 C95.39 109.64 95.39 109.64 93.64 106.73 C91.3 103.32 89.19 100.57 85.02 99.49 C79.21 98.69 73.36 98.84 67.5 98.94 C65.71 98.93 63.91 98.93 62.12 98.92 C57.74 98.9 53.37 98.93 49 99 C50.17 95.9 51.39 93.18 53.29 90.47 C53.95 89.51 53.95 89.51 54.63 88.53 C55.1 87.86 55.58 87.19 56.06 86.5 C56.79 85.45 56.79 85.45 57.53 84.39 C59.02 82.26 60.51 80.13 62 78 C63.32 76.11 64.63 74.22 65.94 72.33 C67.06 70.71 68.19 69.09 69.32 67.48 C70.99 65.14 70.99 65.14 72 63 C72.9 62.99 72.9 62.99 73.81 62.99 C80.06 62.95 86.3 62.88 92.55 62.79 C94.88 62.76 97.21 62.74 99.54 62.73 C102.89 62.71 106.24 62.66 109.6 62.61 C110.63 62.61 111.67 62.61 112.74 62.61 C119.01 62.48 122.89 61.74 128 58 C130.95 53.91 131.58 50.07 131.43 45.12 C130.72 41.63 128.77 40.06 126 38 C122.34 36.78 118.95 36.82 115.13 36.79 C114.33 36.78 113.53 36.77 112.71 36.76 C110.06 36.73 107.42 36.71 104.77 36.68 C102.94 36.66 101.1 36.64 99.27 36.62 C94.44 36.57 89.61 36.52 84.78 36.47 C79.86 36.42 74.93 36.36 70 36.31 C60.33 36.2 50.67 36.1 41 36 C40.96 36.66 40.92 37.33 40.87 38.01 C39.49 59.76 37.6 81.45 35.62 103.15 C35.13 108.46 34.65 113.78 34.17 119.09 C33.45 127.06 32.73 135.03 32 143 C17.48 143 2.96 143 -12 143 C-10.85 118.87 -10.85 118.87 -9.98 109.28 C-9.89 108.18 -9.79 107.07 -9.69 105.94 C-9.38 102.39 -9.07 98.84 -8.75 95.29 C-8.53 92.79 -8.31 90.28 -8.09 87.77 C-7.63 82.56 -7.17 77.36 -6.71 72.15 C-6.11 65.49 -5.53 58.82 -4.94 52.16 C-4.49 47 -4.03 41.85 -3.58 36.69 C-3.36 34.23 -3.14 31.77 -2.93 29.32 C-2.62 25.89 -2.32 22.47 -2.02 19.04 C-1.93 18.04 -1.84 17.03 -1.75 16 C-1.27 10.65 -0.7 5.32 0 0 Z " fill="#F63C09" transform="translate(227,0)"/>
<path d="M0 0 C1.36 0 2.72 0 4.08 -0 C7.74 -0 11.4 0.02 15.05 0.05 C18.89 0.07 22.72 0.08 26.56 0.08 C33.81 0.09 41.05 0.13 48.3 0.17 C56.55 0.21 64.81 0.23 73.07 0.25 C90.03 0.29 107 0.36 123.97 0.45 C123.34 3.85 122.71 6.29 120.78 9.17 C120.33 9.86 119.88 10.54 119.41 11.25 C118.94 11.96 118.46 12.66 117.97 13.39 C117.05 14.78 116.14 16.16 115.22 17.54 C114.72 18.25 114.22 18.95 113.71 19.68 C111.84 22.48 111.84 22.48 110.52 25.95 C108.67 30.1 106.67 33.7 102.97 36.45 C95.45 39.05 86.94 38.12 79.11 37.9 C76.76 37.89 74.42 37.88 72.07 37.88 C65.9 37.86 59.73 37.76 53.56 37.65 C43.68 37.47 33.8 37.42 23.92 37.37 C20.47 37.34 17.03 37.28 13.58 37.21 C11.47 37.18 9.35 37.16 7.24 37.13 C6.28 37.1 5.33 37.08 4.34 37.05 C-1.3 37.01 -4.6 37.59 -9.03 41.45 C-11.6 45.31 -11.69 48.88 -12.1 53.37 C-12.23 54.71 -12.23 54.71 -12.36 56.07 C-12.54 57.96 -12.72 59.85 -12.89 61.75 C-13.15 64.59 -13.43 67.43 -13.71 70.26 C-14.51 78.68 -15.22 87.11 -15.46 95.57 C-15.5 96.81 -15.54 98.05 -15.58 99.33 C-15.3 102.55 -15.3 102.55 -13.02 104.62 C-9.19 106.97 -6.01 106.99 -1.66 106.91 C-0.83 106.91 -0 106.91 0.85 106.91 C3.59 106.91 6.32 106.88 9.05 106.84 C10.95 106.84 12.85 106.83 14.75 106.83 C19.74 106.81 24.73 106.77 29.72 106.73 C34.81 106.69 39.9 106.67 45 106.65 C54.99 106.61 64.98 106.54 74.97 106.45 C75.96 96.55 75.96 96.55 76.97 86.45 C64.76 86.78 52.55 87.11 39.97 87.45 C41.35 84 42.27 81.75 44.29 78.85 C44.74 78.2 45.2 77.54 45.67 76.86 C46.14 76.19 46.61 75.52 47.09 74.83 C47.54 74.18 47.99 73.53 48.45 72.86 C49.38 71.53 50.33 70.2 51.29 68.88 C53.03 66.45 53.03 66.45 54.51 63.66 C57.13 59.28 59.1 56.03 64.12 54.49 C67.95 54.18 71.7 54.21 75.53 54.38 C76.93 54.4 78.33 54.42 79.74 54.43 C83.4 54.47 87.06 54.58 90.72 54.7 C94.47 54.81 98.22 54.86 101.97 54.92 C109.3 55.03 116.64 55.22 123.97 55.45 C122.49 76.07 120.92 96.67 119.11 117.26 C118.93 119.26 118.76 121.27 118.58 123.27 C118.34 126.09 118.09 128.91 117.84 131.72 C117.76 132.57 117.69 133.41 117.62 134.28 C117.32 137.5 117 140.37 115.97 143.45 C97.63 143.52 79.29 143.58 60.94 143.61 C52.43 143.62 43.91 143.65 35.39 143.68 C27.97 143.71 20.54 143.73 13.11 143.74 C9.18 143.74 5.25 143.75 1.32 143.77 C-2.38 143.79 -6.09 143.8 -9.79 143.79 C-11.79 143.79 -13.78 143.81 -15.77 143.83 C-29.16 143.78 -38.41 140.53 -48.26 131.38 C-58.74 120.41 -60.48 108.79 -60.32 94.24 C-60.05 84.22 -59.16 74.25 -58.28 64.27 C-58.2 63.33 -58.12 62.39 -58.04 61.43 C-56.36 41.59 -52.04 25.54 -37.03 11.45 C-25.75 2.6 -14.13 -0.16 0 0 Z " fill="#F63C09" transform="translate(476.0302734375,-0.4541015625)"/>
</svg>
