<?xml version="1.0" encoding="UTF-8"?>
<!-- Generator: https://ezgif.com/png-to-svg -->
<svg version="1.1" xmlns="http://www.w3.org/2000/svg" width="512" height="512" viewBox="8.741 -24.114 432.858 432.858" preserveAspectRatio="xMidYMid meet">
<path d="M0 0 C8.48 2.22 16.82 4.8 25.17 7.48 C27.88 8.35 30.6 9.21 33.31 10.07 C37.55 11.41 41.78 12.76 46.01 14.12 C49.47 15.23 52.92 16.33 56.38 17.42 C57.69 17.83 58.99 18.25 60.3 18.68 C62.12 19.27 63.95 19.84 65.78 20.42 C66.82 20.75 67.85 21.08 68.92 21.42 C73.95 22.37 78.59 21.3 83.39 19.7 C114.47 9.65 153.12 6.32 183.48 21.21 C190.26 23.32 198.13 19.91 204.61 17.83 C206.13 17.36 206.13 17.36 207.67 16.87 C210.89 15.86 214.1 14.84 217.31 13.81 C219.43 13.14 221.54 12.48 223.66 11.81 C231.67 9.28 239.68 6.75 247.67 4.17 C248.55 3.89 249.43 3.61 250.33 3.32 C251.97 2.8 253.6 2.27 255.24 1.74 C258.27 0.77 260.8 0 264 0 C265.64 2.97 267.26 5.95 268.88 8.94 C269.57 10.18 269.57 10.18 270.27 11.46 C277.74 25.36 277.8 40.44 273.33 55.4 C269.73 65.15 264.17 73.69 258 82 C258.85 83.69 258.85 83.69 259.72 85.42 C275.53 117.39 282.03 150.28 275.75 185.72 C275.63 186.44 275.51 187.15 275.38 187.89 C275.12 189.31 274.84 190.73 274.52 192.13 C273.77 195.99 273.76 197.62 275.91 200.98 C276.81 201.85 277.7 202.72 278.62 203.62 C279.55 204.55 280.48 205.48 281.44 206.44 C282.28 207.29 283.13 208.13 284 209 C284.9 210.17 285.78 211.36 286.62 212.56 C289.43 215.44 291.19 215.79 295.01 216.53 C299.8 217.67 302.5 220.31 305.31 224.19 C307.99 229.39 308.45 234.75 307.31 240.44 C306.92 244.89 308.16 247.57 309.99 251.57 C313.22 259.35 313.41 269.9 311.16 278.02 C307.82 285.32 302.37 290.88 294.88 293.88 C274.97 300.63 250.94 293.37 232.7 284.49 C230.96 283.61 229.23 282.72 227.5 281.81 C226.27 281.17 226.27 281.17 225.02 280.52 C219.26 277.4 219.26 277.4 217 274 C221.75 274.57 226.24 275.53 230.86 276.76 C240.88 279.45 250.67 281.2 261 282 C261.85 282.07 262.69 282.14 263.56 282.22 C271.8 282.58 281.83 281.37 288.31 276 C290.99 273.41 291.92 271.26 292.17 267.48 C292.17 266.54 292.18 265.59 292.19 264.62 C292.2 263.69 292.22 262.75 292.23 261.79 C291.98 258.71 291.56 256.68 290 254 C287.56 252.71 287.56 252.71 284.69 252 C278.69 250.04 275.64 247.74 272.37 242.27 C270.39 237.54 271.02 233.47 271.38 228.44 C270.87 223.81 269.2 222.29 266 219 C265.58 219.77 265.58 219.77 265.15 220.56 C263.86 222.88 262.56 225.19 261.25 227.5 C260.81 228.31 260.36 229.12 259.91 229.96 C259.47 230.72 259.03 231.49 258.58 232.28 C257.98 233.35 257.98 233.35 257.37 234.44 C256.92 234.95 256.47 235.47 256 236 C254.68 236 253.36 236 252 236 C250.3 233.81 250.3 233.81 248.75 231 C248.23 230.07 247.71 229.14 247.17 228.19 C246.79 227.47 246.4 226.74 246 226 C245.27 227.02 245.27 227.02 244.53 228.05 C233.68 243.11 222 258.08 206 268 C205.01 268 204.02 268 203 268 C202.59 267.15 202.18 266.29 201.76 265.41 C201.22 264.31 200.68 263.2 200.12 262.06 C199.59 260.96 199.06 259.86 198.51 258.72 C197.28 255.91 197.28 255.91 195 255 C194.76 255.82 194.51 256.64 194.26 257.49 C192.79 261.58 190.92 265.3 188.88 269.12 C188.48 269.87 188.08 270.62 187.67 271.39 C184.16 277.88 180.25 283.97 176 290 C174.98 291.46 174.98 291.46 173.95 292.96 C172.31 295.31 170.66 297.66 169 300 C164.59 299.41 160.91 298.28 156.81 296.56 C139.28 289.71 120.7 290.3 103.38 297.69 C102.43 298.12 101.49 298.56 100.52 299.01 C98 300 98 300 94 300 C92.24 298.1 92.24 298.1 90.46 295.42 C89.8 294.43 89.14 293.44 88.46 292.43 C87.78 291.36 87.09 290.29 86.38 289.19 C85.67 288.11 84.96 287.03 84.23 285.92 C68 260.8 68 260.8 68 255 C63.69 258.54 62.03 262.95 60 268 C55.67 267.47 52.72 264.76 49.44 262.12 C48.82 261.63 48.2 261.14 47.56 260.63 C37.06 252.1 28.88 242.7 21.18 231.66 C19.82 229.75 18.41 227.87 17 226 C14.69 229.96 12.38 233.92 10 238 C5.96 234.34 3.43 230.62 1.06 225.69 C0.55 224.64 0.55 224.64 0.03 223.57 C-6.8 209.26 -12.12 194.23 -13.56 178.35 C-14.22 166.23 -14.22 166.23 -20.75 156.56 C-22.48 155.35 -24.23 154.16 -26 153 C-27.3 151.79 -28.58 150.54 -29.81 149.25 C-30.37 148.7 -30.93 148.14 -31.5 147.57 C-32.85 146.16 -34.09 144.65 -35.31 143.12 C-38.78 140.38 -41.26 140.53 -45.57 140.29 C-50.54 139.7 -53.62 136.58 -56.81 133 C-60.36 128.14 -60.38 123.94 -60 118 C-59.77 117.2 -59.54 116.41 -59.3 115.59 C-58.88 111.98 -60.15 110.51 -62.12 107.5 C-70 94.77 -73.07 82.78 -72 68 C-71.12 64.9 -69.89 62.59 -68 60 C-67.46 59.13 -66.93 58.27 -66.38 57.38 C-54.93 45.93 -38.92 44.05 -23.56 43.44 C-22.04 43.37 -22.04 43.37 -20.48 43.31 C-17.99 43.2 -15.49 43.1 -13 43 C-13.05 41.69 -13.05 41.69 -13.11 40.36 C-13.44 25.44 -9.58 14.59 -2 2 C-1.34 1.34 -0.68 0.68 0 0 Z M-49.44 72.81 C-53.26 80.61 -51.63 87.07 -49 95 C-47.75 98.42 -46.55 101.36 -44 104 C-41.66 104.7 -39.65 104.81 -37.21 104.84 C-32.92 105.15 -30.13 107.83 -27.25 110.81 C-24.26 116.05 -23.83 119.4 -25 125.19 C-25.54 129.35 -25.16 130.75 -22.88 134.38 C-20.44 137.44 -17.82 140.28 -15 143 C-14.67 143 -14.34 143 -14 143 C-13.89 142.34 -13.77 141.68 -13.65 141.01 C-10.34 122.41 -6.13 105.07 3.6 88.72 C5.47 85.53 5.47 85.53 5.96 81.94 C4.6 79.2 2.9 76.88 1.06 74.44 C-1.02 71.65 -3.07 68.89 -5 66 C-18.62 62.58 -39.26 61.07 -49.44 72.81 Z M16 96 C17 98 17 98 17 98 Z M246 96 C246.11 97.79 246.24 99.58 246.38 101.38 C246.44 102.37 246.51 103.37 246.59 104.4 C246.76 107.16 246.76 107.16 249 109 C249.66 108.67 250.32 108.34 251 108 C250.59 102.71 249.65 99.88 246 96 Z " fill="#020101" transform="translate(105,42)"/>
<path d="M0 0 C9.77 1.6 18.95 4.77 28.31 7.88 C31.54 8.94 34.76 10 37.99 11.05 C38.76 11.31 39.54 11.57 40.34 11.83 C46.87 13.97 53.42 16.01 60 18 C61.07 18.34 61.07 18.34 62.16 18.68 C68.09 20.51 71.81 20.34 77.44 17.75 C91.59 11.63 106.55 8.36 122 9 C119.42 11.58 116.54 12.39 113.19 13.62 C98.79 19.17 86.78 28.05 76 39 C76.97 38.61 77.94 38.23 78.94 37.83 C93.25 32.22 106.45 28.13 122 29 C119.76 31.24 118.05 31.88 115.12 33.06 C105.59 37.31 90.81 46.37 86 56 C87.18 55.59 88.37 55.18 89.59 54.76 C101.2 50.78 111.6 47.53 124 48 C123.01 48.99 123.01 48.99 122 50 C121.01 50 120.02 50 119 50 C119 50.66 119 51.32 119 52 C117.93 52.64 116.86 53.28 115.75 53.94 C111.71 56.36 108.23 59.27 104.75 62.44 C104.24 62.89 103.74 63.35 103.21 63.81 C99.83 66.95 97.4 70.11 95 74 C96.05 73.6 96.05 73.6 97.12 73.2 C107.17 69.45 113.86 68 125 68 C125 106.61 125 145.22 125 185 C117.74 185 110.48 185 103 185 C102.67 182.36 102.34 179.72 102 177 C101.34 177 100.68 177 100 177 C98.93 180.46 98.9 183.64 98.94 187.25 C98.95 188.33 98.96 189.41 98.96 190.52 C98.98 191.34 98.99 192.16 99 193 C100.98 193 102.96 193 105 193 C105 191.02 105 189.04 105 187 C107 188 107 188 109 190 C112.8 190.76 116.45 191.04 120.31 191 C124 191 124 191 126 192 C126.59 194.65 126.74 197.29 127 200 C128.32 200.33 129.64 200.66 131 201 C130.34 202.32 129.68 203.64 129 205 C131.66 206.4 131.66 206.4 135 207 C137.47 205.76 139.19 204.64 141.31 202.94 C141.91 202.48 142.51 202.03 143.13 201.56 C145.1 200.06 147.05 198.53 149 197 C150.35 195.96 151.7 194.92 153.06 193.89 C155.16 192.28 157.27 190.67 159.37 189.06 C164.83 184.87 170.33 180.75 175.88 176.69 C176.64 176.12 177.41 175.55 178.2 174.96 C178.92 174.44 179.63 173.92 180.37 173.39 C181 172.92 181.63 172.46 182.28 171.99 C184 171 184 171 187 171 C189.2 175.58 190.65 178.8 190 184 C181.2 195.29 166.16 203.2 153 208 C164.68 205.91 176.15 201.72 186.08 195.2 C188 194 188 194 191 193 C191.99 197.45 191.99 197.45 193 202 C194.32 202.33 195.64 202.66 197 203 C197.12 202.31 197.24 201.63 197.37 200.92 C197.62 199.57 197.62 199.57 197.88 198.19 C198.12 196.85 198.12 196.85 198.37 195.48 C199 193 199 193 201 190 C201.07 187.71 201.08 185.42 201.06 183.12 C201.45 176.55 201.45 176.55 203.71 174.29 C205.25 173.53 206.81 172.83 208.39 172.18 C220.5 166.68 229.21 152.88 234 141 C238.51 127.56 240.2 114.92 240.34 100.78 C240.55 93.58 240.55 93.58 243.04 90.33 C244.01 89.67 244.01 89.67 245 89 C245.99 89.33 246.98 89.66 248 90 C261.84 117.69 259.87 153.43 250.88 182.12 C249.83 185.17 249.29 186.71 247 189 C246.28 188.03 246.28 188.03 245.54 187.03 C244.91 186.2 244.28 185.36 243.62 184.5 C242.69 183.25 242.69 183.25 241.73 181.97 C241.16 181.32 240.59 180.67 240 180 C239.34 180 238.68 180 238 180 C236.65 181.52 236.65 181.52 235.31 183.5 C232.57 187.34 229.54 190.69 226.22 194.04 C224.71 195.99 224.71 195.99 225.43 198.55 C225.62 199.36 225.81 200.17 226 201 C225.34 201.99 224.68 202.98 224 204 C223.45 206.7 223 209.24 223 212 C225.64 212.33 228.28 212.66 231 213 C233.48 209.34 234.49 206.39 235 202 C235.33 202.66 235.66 203.32 236 204 C236.99 204.33 237.98 204.66 239 205 C237.34 216.2 227.92 224.8 220.34 232.61 C219.25 233.75 218.17 234.9 217.09 236.06 C212.06 241.39 206.15 246.03 200 250 C199.01 250 198.02 250 197 250 C196.59 249.15 196.18 248.29 195.76 247.41 C195.22 246.31 194.68 245.2 194.12 244.06 C193.59 242.96 193.06 241.86 192.51 240.72 C191.28 237.91 191.28 237.91 189 237 C188.73 237.87 188.46 238.73 188.19 239.62 C186.15 245.41 184.48 248.71 179.55 252.44 C176.89 255.11 175.59 258.48 174.08 261.89 C173 264 173 264 171 265 C170.7 265.75 170.4 266.5 170.09 267.27 C168.92 270.21 167.46 272.27 165.5 274.75 C164.89 275.53 164.28 276.31 163.66 277.11 C162 279 162 279 160 280 C157.72 279.12 156.29 278.36 154.75 276.44 C152.3 274.42 150.04 274.5 146.94 274.31 C145 274 145 274 142 272 C142.99 270.02 143.98 268.04 145 266 C145.99 266 146.98 266 148 266 C148.25 265.38 148.5 264.76 148.75 264.12 C150.66 260.88 153.16 260.33 156.56 259 C159.19 258.02 159.19 258.02 162 256 C161.34 254.02 160.68 252.04 160 250 C156.53 254.45 156.53 254.45 153 259 C152.05 258.78 151.1 258.57 150.12 258.34 C132.84 254.69 115.1 254.34 98 259 C94.7 255.04 91.4 251.08 88 247 C88.99 246.67 89.98 246.34 91 246 C91.66 246.33 92.32 246.66 93 247 C96.33 247.46 98.87 247.78 101.73 245.8 C102.83 244.8 103.9 243.77 104.93 242.7 C111.23 237.51 116.93 236.43 124.94 236.75 C125.8 236.77 126.66 236.79 127.55 236.8 C129.7 236.85 131.85 236.92 134 237 C134.33 237 134.66 237 135 237 C135.66 235.68 136.32 234.36 137 233 C136.34 233 135.68 233 135 233 C135.33 233.66 135.66 234.32 136 235 C132.95 236.52 129.78 236.14 126.44 236.12 C125.39 236.13 125.39 236.13 124.32 236.14 C119.13 236.13 119.13 236.13 118 235 C115.99 235.29 113.99 235.62 112 236 C112.33 235.01 112.66 234.02 113 233 C113.99 233 114.98 233 116 233 C116 232.34 116 231.68 116 231 C116.66 231 117.32 231 118 231 C118 230.01 118 229.02 118 228 C117.4 228.28 116.79 228.55 116.17 228.84 C115.37 229.2 114.57 229.56 113.75 229.94 C112.96 230.3 112.17 230.66 111.36 231.03 C102.16 234.82 91.87 233.75 82.72 230.33 C75.68 226.89 70.87 220.97 66 215 C66.33 214.34 66.66 213.68 67 213 C68.09 213.43 68.09 213.43 69.2 213.88 C76.7 216.64 83.04 217.51 91 217 C89.91 216.65 88.82 216.3 87.7 215.93 C67.07 209.07 67.07 209.07 61 203 C60.93 201.48 60.92 199.96 60.94 198.44 C60.95 197.61 60.96 196.78 60.96 195.93 C60.98 195.3 60.99 194.66 61 194 C61.95 194.51 62.89 195.02 63.87 195.54 C71.34 199.46 78.79 202.85 86.81 205.5 C87.58 205.75 88.35 206.01 89.15 206.27 C92.2 207.24 94.78 208 98 208 C97.42 207.79 96.83 207.58 96.23 207.37 C84.39 202.92 74.43 196.39 65 188 C64.24 187.32 63.48 186.65 62.7 185.95 C61 184 61 184 60.88 180.44 C62.49 171.72 68.09 164.34 74 158 C73.31 158.16 72.62 158.32 71.91 158.48 C61.09 160.41 51.74 158.87 42 154 C42 153.34 42 152.68 42 152 C41.41 151.75 40.82 151.5 40.21 151.25 C29.95 145.47 26.03 130.67 22.8 120.24 C17.46 98.54 19.12 68.89 30 49 C29.45 48.33 28.91 47.67 28.35 46.98 C27.59 46.06 26.84 45.14 26.06 44.19 C25.25 43.19 24.43 42.19 23.59 41.16 C21.9 39.1 20.22 37.03 18.54 34.96 C17.76 34 16.99 33.05 16.19 32.06 C15.48 31.19 14.77 30.31 14.04 29.41 C12.13 27.15 10.13 25.06 8 23 C7.97 26.35 7.95 29.71 7.94 33.06 C7.93 34.01 7.92 34.95 7.91 35.92 C7.89 41.06 8.11 45.93 9 51 C5.28 47.54 3.24 43.51 1 39 C0.53 38.05 0.05 37.1 -0.43 36.12 C-4.64 26.6 -6.08 16.05 -3.09 5.92 C-2 3.44 -2 3.44 0 0 Z " fill="#E95324" transform="translate(111,60)"/>
<path d="M0 0 C0.66 0.33 1.32 0.66 2 1 C1.66 1.98 1.32 2.96 0.98 3.97 C-3.58 17.57 -5.15 30.38 -5.25 44.69 C-5.26 45.72 -5.27 46.75 -5.28 47.82 C-5.24 58.01 -3.96 67.74 -0.19 77.25 C0.21 78.27 0.21 78.27 0.61 79.31 C3.37 86.24 7.92 96.46 15 100 C15 100.66 15 101.32 15 102 C16.42 102.48 17.83 102.96 19.25 103.44 C20.04 103.7 20.83 103.97 21.64 104.25 C25.38 105.44 28.6 106.12 32.55 106.1 C33.39 106.09 34.24 106.09 35.11 106.09 C35.98 106.08 36.85 106.07 37.75 106.06 C38.64 106.06 39.53 106.05 40.44 106.05 C42.63 106.04 44.81 106.02 47 106 C45.61 108.87 44.13 111.21 42.12 113.69 C38.5 118.45 35.5 123.51 34.64 129.5 C35.41 134.82 40.98 137.9 45 141 C53.44 147.01 62.27 152.35 72 156 C67.47 157.43 64.03 156.06 59.69 154.56 C58.9 154.3 58.11 154.03 57.3 153.76 C49.41 150.99 42.21 147.19 35 143 C35 145.64 35 148.28 35 151 C46.04 157.85 56.98 163.11 70 165 C70 165.33 70 165.66 70 166 C59.24 166.43 50.07 166.42 40 162 C45.86 171.6 52.16 176.32 62.92 179.58 C71.33 181.27 79.04 180.17 86.86 176.88 C89 176 89 176 91 176 C91 176.99 91 177.98 91 179 C90.34 179 89.68 179 89 179 C89 179.66 89 180.32 89 181 C88.01 181.66 87.02 182.32 86 183 C88.64 182.67 91.28 182.34 94 182 C94 182.33 94 182.66 94 183 C98.29 183 102.58 183 107 183 C107.33 181.68 107.66 180.36 108 179 C108.99 179.33 109.98 179.66 111 180 C110.98 180.78 110.96 181.57 110.94 182.38 C110.81 184.98 110.81 184.98 112 187 C111.36 186.84 110.73 186.69 110.07 186.52 C100.17 184.84 88.67 184.23 79.86 189.55 C77.76 191.11 77.76 191.11 75.31 193.81 C73 196 73 196 69.38 196.31 C67.7 196.16 67.7 196.16 66 196 C65.01 196 64.02 196 63 196 C65.64 199.3 68.28 202.6 71 206 C72.81 205.5 74.63 205.01 76.5 204.5 C92.81 201.03 109.84 202.31 126 206 C129.47 201.55 129.47 201.55 133 197 C134.64 200.29 135.41 202.48 136 206 C135.44 206.12 134.89 206.25 134.31 206.38 C129.81 207.59 125.88 209.41 122 212 C121.67 212.66 121.34 213.32 121 214 C120.01 214 119.02 214 118 214 C117.01 216.97 117.01 216.97 116 220 C120.23 221.58 120.23 221.58 124.69 221.88 C125.45 221.92 126.21 221.96 127 222 C128.05 223.3 129.05 224.63 130 226 C132.09 226.8 132.09 226.8 134 227 C136.31 224.17 138.57 221.3 140.75 218.38 C141.18 217.81 141.61 217.24 142.05 216.65 C143.25 214.88 143.25 214.88 143 212 C143.99 212 144.98 212 146 212 C147.11 209.31 148.06 206.77 148.75 203.94 C150.36 200.14 152.47 198.99 156 197 C151.47 209.03 143.33 219.55 136 230 C131.59 229.41 127.91 228.28 123.81 226.56 C106.28 219.71 87.7 220.3 70.38 227.69 C69.43 228.12 68.49 228.56 67.52 229.01 C65 230 65 230 61 230 C59.24 228.1 59.24 228.1 57.46 225.42 C56.8 224.43 56.14 223.44 55.46 222.43 C54.78 221.36 54.09 220.29 53.38 219.19 C52.67 218.11 51.96 217.03 51.23 215.92 C35 190.8 35 190.8 35 185 C30.69 188.54 29.03 192.95 27 198 C22.67 197.47 19.72 194.76 16.44 192.12 C15.82 191.63 15.2 191.14 14.56 190.63 C4.06 182.1 -4.12 172.7 -11.82 161.66 C-13.18 159.75 -14.59 157.87 -16 156 C-18.31 159.96 -20.62 163.92 -23 168 C-27.04 164.34 -29.57 160.62 -31.94 155.69 C-32.28 154.99 -32.62 154.29 -32.97 153.57 C-39.27 140.37 -46.75 123.9 -46 109 C-45.34 109 -44.68 109 -44 109 C-44.33 108.34 -44.66 107.68 -45 107 C-45.1 105 -45.13 103 -45.12 101 C-45.13 99.93 -45.13 98.86 -45.13 97.75 C-45 95 -45 95 -44 93 C-44.1 90.95 -44.1 90.95 -45 89 C-46.8 87.93 -46.8 87.93 -49 87 C-50.69 85.69 -52.36 84.37 -54 83 C-53 81 -53 81 -51 78 C-47.88 77.31 -47.88 77.31 -45 77 C-45 76.01 -45 75.02 -45 74 C-44.69 71.93 -44.35 69.87 -44 67.81 C-43.72 66.18 -43.72 66.18 -43.44 64.52 C-43.29 63.69 -43.15 62.86 -43 62 C-41.35 62.33 -39.7 62.66 -38 63 C-38 61.35 -38 59.7 -38 58 C-37.01 58 -36.02 58 -35 58 C-34.67 57.01 -34.34 56.02 -34 55 C-35.32 54.67 -36.64 54.34 -38 54 C-38.33 54.99 -38.66 55.98 -39 57 C-39.99 57 -40.98 57 -42 57 C-42.33 58.32 -42.66 59.64 -43 61 C-42.38 53 -40.49 44.73 -36 38 C-36 37.01 -36 36.02 -36 35 C-35.4 30.83 -33.12 27.56 -31 24 C-30.67 24.66 -30.34 25.32 -30 26 C-29.01 26.33 -28.02 26.66 -27 27 C-27.68 27.76 -28.36 28.53 -29.06 29.31 C-29.7 30.2 -30.34 31.09 -31 32 C-30.67 32.99 -30.34 33.98 -30 35 C-27.69 35 -25.38 35 -23 35 C-22.64 33.56 -22.28 32.13 -21.94 30.69 C-21.74 29.89 -21.54 29.09 -21.34 28.26 C-20.8 25.84 -20.8 25.84 -22 23 C-22.99 23.33 -23.98 23.66 -25 24 C-25.66 23.67 -26.32 23.34 -27 23 C-27 22.34 -27 21.68 -27 21 C-27.66 20.67 -28.32 20.34 -29 20 C-27.68 17.36 -26.36 14.72 -25 12 C-24 16 -24 16 -24 18 C-21.09 20.02 -18.48 21.35 -15 22 C-15 21.34 -15 20.68 -15 20 C-15.66 19.67 -16.32 19.34 -17 19 C-16.34 19 -15.68 19 -15 19 C-14.67 18.34 -14.34 17.68 -14 17 C-14 17.66 -14 18.32 -14 19 C-13.34 19 -12.68 19 -12 19 C-10.88 21.25 -10.88 21.25 -10 24 C-10.75 25.94 -10.75 25.94 -12 28 C-12.69 29.99 -13.36 31.99 -14 34 C-14.66 34 -15.32 34 -16 34 C-15.5 38.95 -15.5 38.95 -15 44 C-13.02 43.5 -13.02 43.5 -11 43 C-10.5 45.47 -10.5 45.47 -10 48 C-9.98 47.4 -9.96 46.8 -9.94 46.18 C-9.84 43.43 -9.73 40.69 -9.62 37.94 C-9.59 36.99 -9.56 36.05 -9.53 35.08 C-9.31 29.72 -8.73 25.08 -7 20 C-7.66 20 -8.32 20 -9 20 C-8.5 18.51 -8.5 18.51 -8 17 C-7.67 17.33 -7.34 17.66 -7 18 C-6.67 15.69 -6.34 13.38 -6 11 C-5.34 11 -4.68 11 -4 11 C-3.82 9.93 -3.82 9.93 -3.63 8.85 C-3.47 7.93 -3.3 7.01 -3.12 6.06 C-2.96 5.15 -2.8 4.23 -2.63 3.29 C-2.42 2.53 -2.22 1.78 -2 1 C-1.34 0.67 -0.68 0.34 0 0 Z M-17 26 C-16 28 -16 28 -16 28 Z M-35 36 C-34 38 -34 38 -34 38 Z " fill="#050404" transform="translate(138,112)"/>
<path d="M0 0 C0.99 0.33 1.98 0.66 3 1 C16.84 28.69 14.87 64.43 5.88 93.12 C4.83 96.17 4.29 97.71 2 100 C1.28 99.03 1.28 99.03 0.54 98.03 C-0.09 97.2 -0.72 96.36 -1.38 95.5 C-2 94.66 -2.63 93.83 -3.27 92.97 C-3.84 92.32 -4.41 91.67 -5 91 C-5.66 91 -6.32 91 -7 91 C-8.35 92.52 -8.35 92.52 -9.69 94.5 C-12.43 98.34 -15.46 101.69 -18.78 105.04 C-20.29 106.99 -20.29 106.99 -19.57 109.55 C-19.29 110.76 -19.29 110.76 -19 112 C-19.66 112.99 -20.32 113.98 -21 115 C-21.55 117.7 -22 120.24 -22 123 C-19.36 123.33 -16.72 123.66 -14 124 C-11.52 120.34 -10.51 117.39 -10 113 C-9.67 113.66 -9.34 114.32 -9 115 C-8.01 115.33 -7.02 115.66 -6 116 C-7.66 127.2 -17.08 135.8 -24.66 143.61 C-25.75 144.75 -26.83 145.9 -27.91 147.06 C-32.94 152.39 -38.85 157.03 -45 161 C-45.99 161 -46.98 161 -48 161 C-48.41 160.15 -48.82 159.29 -49.24 158.41 C-50.05 156.75 -50.05 156.75 -50.88 155.06 C-51.41 153.96 -51.94 152.86 -52.49 151.72 C-53.72 148.91 -53.72 148.91 -56 148 C-56.27 148.87 -56.54 149.73 -56.81 150.62 C-58.85 156.41 -60.52 159.71 -65.45 163.44 C-68.11 166.11 -69.41 169.48 -70.92 172.89 C-72 175 -72 175 -74 176 C-74.3 176.75 -74.6 177.5 -74.91 178.27 C-76.08 181.21 -77.54 183.27 -79.5 185.75 C-80.11 186.53 -80.72 187.31 -81.34 188.11 C-83 190 -83 190 -85 191 C-87.28 190.12 -88.71 189.36 -90.25 187.44 C-92.7 185.42 -94.96 185.5 -98.06 185.31 C-100 185 -100 185 -103 183 C-102.01 181.02 -101.02 179.04 -100 177 C-99.01 177 -98.02 177 -97 177 C-96.63 176.07 -96.63 176.07 -96.25 175.12 C-94.34 171.88 -91.84 171.33 -88.44 170 C-85.81 169.02 -85.81 169.02 -83 167 C-83.66 165.02 -84.32 163.04 -85 161 C-88.47 165.45 -88.47 165.45 -92 170 C-92.95 169.78 -93.9 169.57 -94.88 169.34 C-112.16 165.69 -129.9 165.34 -147 170 C-150.3 166.04 -153.6 162.08 -157 158 C-156.01 157.67 -155.02 157.34 -154 157 C-153.34 157.33 -152.68 157.66 -152 158 C-148.67 158.46 -146.13 158.78 -143.27 156.8 C-142.17 155.8 -141.1 154.77 -140.07 153.7 C-133.77 148.51 -128.07 147.43 -120.06 147.75 C-119.2 147.77 -118.34 147.79 -117.45 147.8 C-115.3 147.85 -113.15 147.92 -111 148 C-110.67 148 -110.34 148 -110 148 C-109.34 146.68 -108.68 145.36 -108 144 C-108.66 144 -109.32 144 -110 144 C-109.67 144.66 -109.34 145.32 -109 146 C-112.05 147.52 -115.22 147.14 -118.56 147.12 C-119.61 147.13 -119.61 147.13 -120.68 147.14 C-125.87 147.13 -125.87 147.13 -127 146 C-129.01 146.29 -131.01 146.62 -133 147 C-132.67 146.01 -132.34 145.02 -132 144 C-131.01 144 -130.02 144 -129 144 C-129 143.34 -129 142.68 -129 142 C-128.34 142 -127.68 142 -127 142 C-126.9 141.11 -126.79 140.23 -126.69 139.31 C-126 136 -126 136 -124.44 133.81 C-122.5 130.03 -122.82 126.9 -122.99 122.72 C-123 120 -122.62 117.64 -122 115 C-120.68 115 -119.36 115 -118 115 C-118 113.68 -118 112.36 -118 111 C-116.68 111.33 -115.36 111.66 -114 112 C-114.66 113.32 -115.32 114.64 -116 116 C-113.34 117.4 -113.34 117.4 -110 118 C-107.53 116.76 -105.81 115.64 -103.69 113.94 C-103.09 113.48 -102.49 113.03 -101.87 112.56 C-99.9 111.06 -97.95 109.53 -96 108 C-94.65 106.96 -93.3 105.92 -91.94 104.89 C-89.84 103.28 -87.73 101.67 -85.63 100.06 C-80.17 95.87 -74.67 91.75 -69.12 87.69 C-68.36 87.12 -67.59 86.55 -66.8 85.96 C-66.08 85.44 -65.37 84.92 -64.63 84.39 C-64 83.92 -63.37 83.46 -62.72 82.99 C-61 82 -61 82 -58 82 C-55.8 86.58 -54.35 89.8 -55 95 C-63.8 106.29 -78.84 114.2 -92 119 C-80.32 116.91 -68.85 112.72 -58.92 106.2 C-57 105 -57 105 -54 104 C-53.01 108.45 -53.01 108.45 -52 113 C-50.02 113.5 -50.02 113.5 -48 114 C-47.82 112.97 -47.82 112.97 -47.63 111.92 C-47.47 111.02 -47.3 110.12 -47.12 109.19 C-46.96 108.29 -46.8 107.4 -46.63 106.48 C-46 104 -46 104 -44 101 C-43.93 98.71 -43.92 96.42 -43.94 94.12 C-43.55 87.55 -43.55 87.55 -41.29 85.29 C-39.75 84.53 -38.19 83.83 -36.61 83.18 C-24.5 77.68 -15.79 63.88 -11 52 C-6.49 38.56 -4.8 25.92 -4.66 11.78 C-4.45 4.58 -4.45 4.58 -1.96 1.33 C-0.99 0.67 -0.99 0.67 0 0 Z " fill="#040404" transform="translate(356,149)"/>
<path d="M0 0 C1 1 1 1 1.12 2.87 C1.12 3.7 1.12 4.52 1.12 5.37 C1.12 6.79 1.12 6.79 1.12 8.23 C1.12 9.8 1.12 9.8 1.11 11.39 C1.11 12.49 1.11 13.58 1.11 14.71 C1.11 18.34 1.11 21.97 1.1 25.6 C1.1 28.11 1.09 30.62 1.09 33.13 C1.09 39.07 1.08 45.01 1.07 50.95 C1.06 58.38 1.05 65.81 1.05 73.24 C1.04 86.49 1.02 99.75 1 113 C-4.94 113 -10.88 113 -17 113 C-17 111.35 -17 109.7 -17 108 C-17.66 108 -18.32 108 -19 108 C-19 106.68 -19 105.36 -19 104 C-20.98 104.5 -20.98 104.5 -23 105 C-23.2 105.76 -23.41 106.52 -23.62 107.3 C-23.89 108.29 -24.16 109.29 -24.44 110.31 C-24.7 111.3 -24.97 112.28 -25.25 113.3 C-25.78 115.22 -26.37 117.11 -27 119 C-29.92 117.93 -31.78 117.22 -34 115 C-34.23 112.26 -34.23 112.26 -34.19 108.68 C-34.18 108.03 -34.17 107.37 -34.17 106.7 C-34.02 97.48 -33.49 88.27 -33 79.06 C-32.9 77.2 -32.81 75.35 -32.71 73.49 C-32.48 68.99 -32.24 64.5 -32 60 C-32.66 59.95 -33.32 59.91 -34.01 59.86 C-43.97 59.03 -52.12 55.45 -59 48 C-66.5 38.49 -70.05 28.12 -69 16 C-68.2 12.59 -67.18 9.3 -66 6 C-65.67 6 -65.34 6 -65 6 C-64.82 7.11 -64.64 8.22 -64.45 9.36 C-64.2 10.82 -63.94 12.29 -63.69 13.75 C-63.57 14.48 -63.45 15.21 -63.33 15.96 C-62.35 21.55 -62.35 21.55 -59 26 C-56.61 27.37 -54.3 28.58 -51.81 29.75 C-51.11 30.09 -50.41 30.43 -49.69 30.78 C-46.72 32.23 -43.74 33.65 -40.77 35.07 C-38.61 36.1 -36.46 37.14 -34.31 38.19 C-33.65 38.5 -33 38.8 -32.32 39.12 C-28 41.22 -25.17 43.49 -22 47 C-21.51 42.98 -21.51 42.98 -23.15 39.41 C-23.62 38.9 -24.08 38.4 -24.56 37.88 C-27 35 -27 35 -26.81 32.62 C-26.54 32.09 -26.28 31.55 -26 31 C-27.65 31 -29.3 31 -31 31 C-31 30.34 -31 29.68 -31 29 C-32.32 29 -33.64 29 -35 29 C-35.5 27.02 -35.5 27.02 -36 25 C-35.24 24.86 -34.47 24.71 -33.69 24.56 C-30.92 24.04 -30.92 24.04 -28 23 C-27.01 23.33 -26.02 23.66 -25 24 C-25 23.34 -25 22.68 -25 22 C-24.01 22 -23.02 22 -22 22 C-22 20.68 -22 19.36 -22 18 C-22.99 18 -23.98 18 -25 18 C-25.5 19.49 -25.5 19.49 -26 21 C-26.5 20.01 -26.5 20.01 -27 19 C-27.8 18.69 -28.61 18.38 -29.44 18.06 C-32 17 -32 17 -34 14 C-32.31 11.96 -31.36 11.08 -28.74 10.49 C-27.94 10.43 -27.14 10.37 -26.31 10.31 C-25.1 10.21 -25.1 10.21 -23.86 10.11 C-23.25 10.08 -22.63 10.04 -22 10 C-22 9.34 -22 8.68 -22 8 C-19.33 8.67 -16.67 9.33 -14 10 C-14 9.01 -14 8.02 -14 7 C-15.32 7 -16.64 7 -18 7 C-18 6.34 -18 5.68 -18 5 C-16.68 5.33 -15.36 5.66 -14 6 C-14.5 4.51 -14.5 4.51 -15 3 C-14.34 3 -13.68 3 -13 3 C-13 2.34 -13 1.68 -13 1 C-8.62 0.3 -4.44 -0.21 0 0 Z " fill="#E95325" transform="translate(233,130)"/>
<path d="M0 0 C0.99 0.33 1.98 0.66 3 1 C16.84 28.69 14.87 64.43 5.88 93.12 C4.83 96.17 4.29 97.71 2 100 C1.52 99.35 1.04 98.7 0.54 98.03 C-0.09 97.2 -0.72 96.36 -1.38 95.5 C-2 94.66 -2.63 93.83 -3.27 92.97 C-3.84 92.32 -4.41 91.67 -5 91 C-5.66 91 -6.32 91 -7 91 C-8.28 92.45 -8.28 92.45 -9.56 94.38 C-12.63 98.62 -16.02 102.46 -19.56 106.31 C-20.9 107.79 -22.24 109.29 -23.52 110.83 C-27.95 116.13 -32.82 120.33 -38.31 124.5 C-39.53 125.45 -39.53 125.45 -40.77 126.41 C-46.73 131 -46.73 131 -49 131 C-48.51 128.28 -47.91 125.71 -47.06 123.07 C-44.12 113.69 -43.54 105.06 -43.94 95.21 C-43.96 92.24 -43.89 89.84 -43 87 C-40.3 84.59 -37.3 83.41 -34 82 C-16.99 69.09 -8.7 50.84 -5.38 30.16 C-4.71 24.07 -4.72 17.9 -4.66 11.78 C-4.45 4.58 -4.45 4.58 -1.96 1.33 C-0.99 0.67 -0.99 0.67 0 0 Z " fill="#FAFAFA" transform="translate(356,149)"/>
<path d="M0 0 C0.99 0.33 1.98 0.66 3 1 C2.98 1.81 2.97 2.63 2.95 3.47 C2.47 32.6 3.39 61.19 24.59 83.74 C29.52 88.37 34.95 92.02 41 95 C41 95.67 41.01 96.34 41.01 97.03 C41.15 109.96 41.7 121.71 46.04 133.96 C47 137 47 137 46 139 C29.87 128.12 15.37 115.68 5 99 C0.34 100.5 -0.87 103.88 -3 108 C-3.66 108 -4.32 108 -5 108 C-13.14 86.55 -13.14 86.55 -13 76 C-12.35 76.42 -11.7 76.84 -11.03 77.27 C-3.95 81.82 3.23 86.14 10.5 90.38 C12.1 91.32 12.1 91.32 13.74 92.28 C15.28 93.17 15.28 93.17 16.84 94.09 C17.76 94.62 18.68 95.16 19.63 95.71 C22.04 97.11 22.04 97.11 25 98 C20.61 94.15 16.21 90.31 11.74 86.55 C10.42 85.37 9.15 84.13 7.91 82.87 C5.5 80.42 2.94 78.18 0.36 75.92 C-14.03 62.98 -14.03 62.98 -15.38 56.9 C-15.44 52.75 -14.89 49.02 -14 45 C-13.72 43.34 -13.44 41.68 -13.18 40.02 C-10.74 25.8 -6.88 12.73 0 0 Z " fill="#F7F7F7" transform="translate(119,141)"/>
<path d="M0 0 C2.2 4.58 3.65 7.8 3 13 C-5.8 24.29 -20.84 32.2 -34 37 C-22.32 34.91 -10.85 30.72 -0.92 24.2 C1 23 1 23 4 22 C3.94 23.42 3.85 24.83 3.75 26.25 C3.7 27.04 3.66 27.83 3.61 28.64 C2.51 32.89 -0.32 34.59 -3.96 36.78 C-12.16 40.91 -20.04 43.81 -29 46 C-20.65 46.44 -13.91 46.21 -6.21 42.78 C-4 42 -4 42 -1 43 C-6.98 51.51 -13.92 58.62 -24.25 61.44 C-33.79 62.94 -43.51 63.55 -52.04 58.48 C-55.65 55.76 -57.36 53.28 -58.58 48.93 C-58.93 46.26 -58.83 44.57 -58 42 C-55.11 38.42 -51.67 35.75 -48 33 C-47.19 32.39 -46.39 31.78 -45.55 31.15 C-43.3 29.49 -41.03 27.87 -38.75 26.25 C-35.05 23.61 -31.41 20.89 -27.75 18.19 C-26.94 17.59 -26.12 16.99 -25.29 16.38 C-21.36 13.49 -17.44 10.59 -13.55 7.65 C-12.86 7.14 -12.18 6.63 -11.47 6.1 C-10.19 5.14 -8.91 4.17 -7.63 3.2 C-3.34 0 -3.34 0 0 0 Z " fill="#F7F7F7" transform="translate(298,231)"/>
<path d="M0 0 C4.4 1.47 7.68 3.88 11.25 6.75 C15.85 10.39 20.49 13.76 25.49 16.84 C25.99 17.23 26.49 17.61 27 18 C27 18.66 27 19.32 27 20 C27.7 20.23 28.39 20.47 29.11 20.71 C32.55 22.25 35.32 24.35 38.25 26.69 C39.4 27.59 40.55 28.49 41.7 29.4 C42.26 29.84 42.82 30.28 43.4 30.74 C45.59 32.47 47.83 34.13 50.06 35.81 C56.23 40.69 56.23 40.69 58 44 C58 48.44 57.61 50.89 55.5 54.75 C48.43 61.12 39.7 62.38 30.52 62.27 C18.47 61.34 11.17 55.87 3.5 47.06 C2.68 46.05 1.85 45.04 1 44 C1.33 43.34 1.66 42.68 2 42 C3.09 42.43 3.09 42.43 4.2 42.88 C11.7 45.64 18.04 46.51 26 46 C24.91 45.65 23.82 45.3 22.7 44.93 C2.07 38.07 2.07 38.07 -4 32 C-4.07 30.48 -4.08 28.96 -4.06 27.44 C-4.05 26.61 -4.04 25.78 -4.04 24.93 C-4.02 24.3 -4.01 23.66 -4 23 C-3.05 23.51 -2.11 24.02 -1.13 24.54 C6.34 28.46 13.79 31.85 21.81 34.5 C22.58 34.75 23.35 35.01 24.15 35.27 C27.2 36.24 29.78 37 33 37 C32.42 36.79 31.83 36.58 31.23 36.37 C19.39 31.92 9.43 25.39 0 17 C-0.76 16.33 -1.53 15.66 -2.32 14.98 C-4 13 -4 13 -3.94 9.06 C-3.31 5.55 -2.1 2.92 0 0 Z " fill="#F7F7F6" transform="translate(176,231)"/>
<path d="M0 0 C0.33 0 0.66 0 1 0 C1.18 1.11 1.36 2.22 1.55 3.36 C1.8 4.82 2.06 6.29 2.31 7.75 C2.43 8.48 2.55 9.21 2.67 9.96 C3.65 15.55 3.65 15.55 7 20 C9.39 21.37 11.7 22.58 14.19 23.75 C14.89 24.09 15.59 24.43 16.31 24.78 C19.28 26.23 22.26 27.65 25.23 29.07 C27.39 30.1 29.54 31.14 31.69 32.19 C32.35 32.5 33 32.8 33.68 33.12 C38 35.22 40.83 37.49 44 41 C44.16 40.03 44.33 39.06 44.5 38.06 C46.35 31.42 52.26 26.73 57 22 C55.52 29.09 53.62 35.99 51.56 42.94 C51.11 44.47 51.11 44.47 50.65 46.03 C49.77 49.02 48.89 52.01 48 55 C47.61 56.32 47.61 56.32 47.21 57.66 C45.82 62.36 44.35 67.01 42.79 71.65 C41.29 76.13 39.87 80.63 38.44 85.12 C37.98 86.55 37.98 86.55 37.52 88 C35.93 92.98 34.4 97.97 33 103 C32.67 103 32.34 103 32 103 C32.12 98.59 32.24 94.19 32.37 89.78 C32.41 88.29 32.46 86.8 32.5 85.31 C32.78 74.85 33.28 64.43 34 54 C33.34 53.97 32.67 53.95 31.99 53.92 C22.18 53.46 13.66 49.22 7 42 C-0.5 32.49 -4.05 22.12 -3 10 C-2.2 6.59 -1.18 3.3 0 0 Z " fill="#160706" transform="translate(167,136)"/>
<path d="M0 0 C0.33 0 0.66 0 1 0 C1.24 6.4 0.82 11.85 -1 18 C-1.66 18 -2.32 18 -3 18 C-3 18.66 -3 19.32 -3 20 C-1.68 20 -0.36 20 1 20 C-0.11 23.49 -1.26 26.77 -3 30 C-2.01 30 -1.02 30 0 30 C0 29.01 0 28.02 0 27 C1.32 27.33 2.64 27.66 4 28 C4.5 31.47 4.5 31.47 5 35 C4.34 35 3.68 35 3 35 C2.62 36.33 2.62 36.33 2.24 37.7 C-1.12 46.64 -9.17 52.08 -16.98 56.97 C-21.07 59.72 -24.57 62.94 -28.14 66.31 C-30 68 -30 68 -31 68 C-31 63.05 -31 58.1 -31 53 C-27.65 52.32 -24.29 51.63 -20.94 50.95 C-19.97 50.64 -19 50.32 -18 50 C-17.67 49.01 -17.34 48.02 -17 47 C-16.01 47 -15.02 47 -14 47 C-14 46.01 -14 45.02 -14 44 C-14.66 43.67 -15.32 43.34 -16 43 C-14.02 43 -12.04 43 -10 43 C-10.33 42.34 -10.66 41.68 -11 41 C-12.27 41.52 -12.27 41.52 -13.57 42.05 C-17.47 43.13 -19.92 42.85 -23.88 42.12 C-25.03 41.92 -26.18 41.72 -27.37 41.51 C-28.24 41.34 -29.1 41.17 -30 41 C-30.33 39.68 -30.66 38.36 -31 37 C-29.57 36.33 -28.13 35.66 -26.69 35 C-25.89 34.63 -25.09 34.26 -24.26 33.88 C-22 33 -22 33 -19 33 C-19 31.02 -19 29.04 -19 27 C-21.9 28.38 -24.8 29.78 -27.69 31.19 C-28.91 31.77 -28.91 31.77 -30.16 32.36 C-34.96 34.71 -38.48 36.97 -42 41 C-42.34 37.4 -42.14 35.29 -40.56 32 C-34.64 25.07 -26.14 21.36 -18.12 17.33 C-11.65 14.03 -6.58 10.51 -2.69 4.19 C-1.81 2.78 -0.92 1.38 0 0 Z " fill="#140A0A" transform="translate(303,137)"/>
<path d="M0 0 C0.99 0.33 1.98 0.66 3 1 C0.99 4.01 0.16 4.63 -3 6 C-1.11 6.25 -1.11 6.25 0.81 6.5 C1.87 6.64 1.87 6.64 2.96 6.78 C5.15 7.05 5.15 7.05 8 7 C8 6.34 8 5.68 8 5 C9.18 5.03 9.18 5.03 10.38 5.06 C12.98 5.19 12.98 5.19 15 4 C16.88 3.98 16.88 3.98 19.13 4.12 C19.94 4.17 20.74 4.22 21.57 4.27 C22.42 4.32 23.26 4.38 24.12 4.44 C25.4 4.52 25.4 4.52 26.7 4.6 C28.8 4.73 30.9 4.86 33 5 C31.38 11.75 31.38 11.75 28 14 C26.34 14.38 24.68 14.73 23 15 C23.99 15 24.98 15 26 15 C26 15.99 26 16.98 26 18 C24 19.69 24 19.69 22 21 C22.5 21.99 22.5 21.99 23 23 C26.03 23.66 26.03 23.66 29 24 C29.5 25.98 29.5 25.98 30 28 C29.34 28 28.68 28 28 28 C28 28.66 28 29.32 28 30 C28.66 30 29.32 30 30 30 C29.67 31.32 29.34 32.64 29 34 C28.42 33.95 27.84 33.91 27.24 33.86 C21.55 33.6 18.46 34.13 14 38 C9.43 42.28 9.43 42.28 8 48 C9.36 47.5 9.36 47.5 10.75 47 C16.08 45.46 23.94 44.47 29 47 C28.67 85.94 28.34 124.88 28 165 C27.67 165 27.34 165 27 165 C27 126.39 27 87.78 27 48 C13.57 49.55 13.57 49.55 1.26 53.2 C-1 54 -1 54 -3 54 C1.07 45.18 9.18 38.47 17 33 C19.33 32.25 19.33 32.25 21 32 C21 31.34 21 30.68 21 30 C21.99 29.67 22.98 29.34 24 29 C18.33 28.82 13.53 29.33 8.06 30.81 C7.37 30.99 6.67 31.17 5.96 31.36 C2.15 32.36 -1.59 33.47 -5.31 34.75 C-9 36 -9 36 -12 36 C-8.12 26.45 5.86 16.91 14.91 12.62 C17.26 11.67 19.6 10.79 22 10 C13.79 9.06 6.7 10.59 -1.19 12.75 C-2.11 13 -3.04 13.25 -3.99 13.51 C-9.32 15.04 -14.25 16.88 -19.22 19.34 C-20.1 19.67 -20.1 19.67 -21 20 C-21.66 19.67 -22.32 19.34 -23 19 C-16.81 12.45 -10.57 6.89 -3 2 C-2.01 1.34 -1.02 0.68 0 0 Z " fill="#160404" transform="translate(209,80)"/>
<path d="M0 0 C0.8 -0.01 1.61 -0.01 2.43 -0.02 C10.36 0.06 16.23 2.04 22.31 7.19 C26.3 10.15 28.67 10.85 33.62 10.38 C35.26 10.1 36.89 9.8 38.5 9.44 C37.58 10.67 36.67 11.9 35.75 13.12 C34.98 14.15 34.98 14.15 34.2 15.2 C32.34 17.65 30.43 20.04 28.5 22.44 C27.55 22.22 26.6 22 25.62 21.78 C8.34 18.13 -9.4 17.77 -26.5 22.44 C-29.8 18.48 -33.1 14.52 -36.5 10.44 C-35.51 10.11 -34.52 9.78 -33.5 9.44 C-32.84 9.77 -32.18 10.1 -31.5 10.44 C-28.17 10.89 -25.63 11.22 -22.77 9.24 C-21.67 8.24 -20.6 7.21 -19.57 6.14 C-13.47 1.12 -7.77 -0.19 0 0 Z " fill="#F9F9F9" transform="translate(235.5,296.5625)"/>
<path d="M0 0 C0 38.61 0 77.22 0 117 C-7.26 117 -14.52 117 -22 117 C-22.5 113.04 -22.5 113.04 -23 109 C-23.66 109 -24.32 109 -25 109 C-26.07 112.46 -26.1 115.64 -26.06 119.25 C-26.05 120.33 -26.04 121.41 -26.04 122.52 C-26.02 123.34 -26.01 124.16 -26 125 C-24.02 125 -22.04 125 -20 125 C-20 123.02 -20 121.04 -20 119 C-18 120 -18 120 -16 122 C-12.2 122.76 -8.55 123.04 -4.69 123 C-1 123 -1 123 1 124 C1.08 125.94 1.14 127.87 1.19 129.81 C1.24 131.43 1.24 131.43 1.29 133.08 C0.96 136.39 0.4 136.9 -2 139 C-2 139.99 -2 140.98 -2 142 C-2.66 142.99 -3.32 143.98 -4 145 C-4.49 144.54 -4.97 144.08 -5.48 143.6 C-12.66 136.99 -20.51 131.11 -28.76 125.88 C-30.2 124.97 -31.61 123.99 -33 123 C-33 122.34 -33 121.68 -33 121 C-33.54 120.75 -34.07 120.5 -34.62 120.25 C-40.72 117.04 -46.26 112.73 -51.88 108.75 C-52.66 108.2 -53.44 107.64 -54.25 107.07 C-56.17 105.71 -58.08 104.36 -60 103 C-57.41 98.25 -55.55 95.16 -51 92 C-51.66 94.31 -52.32 96.62 -53 99 C-51.68 99.33 -50.36 99.66 -49 100 C-49 99.34 -49 98.68 -49 98 C-48.34 98.33 -47.68 98.66 -47 99 C-47.5 99.99 -47.5 99.99 -48 101 C-47.34 101.33 -46.68 101.66 -46 102 C-46.21 102.74 -46.41 103.49 -46.62 104.25 C-47.05 107.35 -46.73 108.45 -45 111 C-44.34 111.33 -43.68 111.66 -43 112 C-42.67 111.34 -42.34 110.68 -42 110 C-42 110.66 -42 111.32 -42 112 C-39.03 111.5 -39.03 111.5 -36 111 C-36.12 111.91 -36.25 112.81 -36.38 113.75 C-36.25 114.82 -36.13 115.89 -36 117 C-33.11 119.42 -33.11 119.42 -30 121 C-29.9 120.25 -29.8 119.5 -29.7 118.73 C-28.47 110.64 -28.47 110.64 -26 107.31 C-24 106 -24 106 -22 106 C-22 107.32 -22 108.64 -22 110 C-21.34 110 -20.68 110 -20 110 C-20 111.65 -20 113.3 -20 115 C-14.06 115 -8.12 115 -2 115 C-2.33 78.04 -2.66 41.08 -3 3 C-11.79 3.68 -18.82 4.39 -27 7 C-26.67 6.01 -26.34 5.02 -26 4 C-23.67 3.09 -21.53 2.42 -19.12 1.81 C-17.87 1.47 -16.61 1.12 -15.32 0.77 C-11 0 -11 0 0 0 Z " fill="#D55A37" transform="translate(236,128)"/>
<path d="M0 0 C0.33 0 0.66 0 1 0 C1.1 0.97 1.2 1.93 1.3 2.93 C2.85 16.42 6.06 27.5 16.95 36.63 C23.27 40.91 30.59 42.58 38 44 C38.13 53.58 37.94 63.12 37.56 72.69 C37.52 73.73 37.48 74.77 37.44 75.84 C37.4 76.82 37.36 77.81 37.32 78.82 C37.28 79.7 37.24 80.58 37.21 81.48 C37 84.05 36.55 86.49 36 89 C35.67 89 35.34 89 35 89 C35 80.09 35 71.18 35 62 C34.01 62.5 34.01 62.5 33 63 C33 62.01 33 61.02 33 60 C31.35 60 29.7 60 28 60 C28 61.32 28 62.64 28 64 C26.68 64 25.36 64 24 64 C24 63.34 24 62.68 24 62 C24.66 62 25.32 62 26 62 C26.33 59.69 26.66 57.38 27 55 C20.07 54.5 20.07 54.5 13 54 C14.49 53.5 14.49 53.5 16 53 C15.67 50.03 15.34 47.06 15 44 C14.34 44 13.68 44 13 44 C11.38 42.5 11.38 42.5 10 41 C10 41.99 10 42.98 10 44 C9.01 44 8.02 44 7 44 C6.47 42.71 5.95 41.42 5.44 40.12 C5.15 39.41 4.86 38.69 4.56 37.95 C4 36 4 36 5 34 C4.34 34 3.68 34 3 34 C2.67 34.66 2.34 35.32 2 36 C1.08 33.25 0.96 30.8 1 27.94 C1.21 24.1 1.21 24.1 0 21 C-0.08 19.37 -0.11 17.74 -0.1 16.11 C-0.09 15.18 -0.09 14.24 -0.09 13.27 C-0.08 11.81 -0.08 11.81 -0.06 10.31 C-0.06 9.32 -0.05 8.34 -0.05 7.32 C-0.04 4.88 -0.02 2.44 0 0 Z " fill="#E75529" transform="translate(163,146)"/>
<path d="M0 0 C2.84 2.68 5.13 5.13 7.19 8.44 C10.92 13.74 16.53 16.15 22.14 19.14 C23.72 19.98 25.31 20.84 26.89 21.69 C28.47 22.55 30.07 23.39 31.67 24.22 C36.58 26.87 39.86 29.34 43 34 C43.31 37.88 43.31 37.88 43 41 C42.01 40.34 41.02 39.68 40 39 C40 38.34 40 37.68 40 37 C38.99 36.62 38.99 36.62 37.96 36.23 C31.47 33.54 25.26 30.19 19 27 C18.29 26.64 17.57 26.28 16.84 25.91 C14.78 24.87 12.73 23.81 10.69 22.75 C10.06 22.43 9.43 22.12 8.79 21.79 C4.59 19.59 1.95 17.62 0.32 13.11 C-0.08 10.47 -0.09 7.92 -0.06 5.25 C-0.05 4.27 -0.04 3.28 -0.04 2.27 C-0.02 1.52 -0.01 0.77 0 0 Z " fill="#F4EBE6" transform="translate(169,137)"/>
<path d="M0 0 C0.33 0 0.66 0 1 0 C1.06 1.5 1.09 3 1.12 4.5 C1.15 5.34 1.17 6.17 1.2 7.03 C0.57 16.61 0.57 16.61 -2.54 19.37 C-4.61 20.57 -6.7 21.57 -8.89 22.54 C-9.68 22.92 -10.46 23.3 -11.27 23.68 C-13.77 24.88 -16.29 26.03 -18.81 27.19 C-21.32 28.36 -23.82 29.53 -26.32 30.72 C-27.87 31.46 -29.43 32.18 -31 32.89 C-35.55 35.03 -38.66 37.22 -42 41 C-42.34 37.4 -42.14 35.29 -40.56 32 C-34.64 25.07 -26.14 21.36 -18.12 17.33 C-11.65 14.03 -6.58 10.51 -2.69 4.19 C-1.81 2.78 -0.92 1.38 0 0 Z " fill="#EEEEEE" transform="translate(303,137)"/>
<path d="M0 0 C5.78 1.72 10.59 4.51 15.78 7.54 C19.17 9.08 21.33 9.3 25 9 C25 10.65 25 12.3 25 14 C28.38 12.81 30.65 11.72 33 9 C33.66 9.99 34.32 10.98 35 12 C35.25 10.91 35.5 9.81 35.75 8.69 C37.02 4.94 37.66 3.89 41 2 C41.19 4.88 41.19 4.88 41 8 C40.01 8.66 39.02 9.32 38 10 C36.78 13.56 36.78 13.56 36 17 C35.34 17 34.68 17 34 17 C33.34 18.32 32.68 19.64 32 21 C31.67 21 31.34 21 31 21 C31 19.02 31 17.04 31 15 C30.01 15 29.02 15 28 15 C28 15.66 28 16.32 28 17 C26.35 17 24.7 17 23 17 C23 17.66 23 18.32 23 19 C20.69 19.69 20.69 19.69 18 20 C16.19 18.62 16.19 18.62 15 17 C15 16.67 15 16.34 15 16 C13.59 15.49 12.17 14.99 10.75 14.5 C9.96 14.22 9.17 13.94 8.36 13.66 C5.77 12.82 5.77 12.82 2 13 C3.32 13.66 4.64 14.32 6 15 C5.67 15.66 5.34 16.32 5 17 C5.99 17 6.98 17 8 17 C7.67 17.99 7.34 18.98 7 20 C1.45 16.24 -2.38 12.65 -6 7 C-2.25 5 -2.25 5 0 5 C0 3.35 0 1.7 0 0 Z " fill="#180B09" transform="translate(176,165)"/>
<path d="M0 0 C0.33 0 0.66 0 1 0 C1.33 3.3 1.66 6.6 2 10 C3.98 10 5.96 10 8 10 C8 8.02 8 6.04 8 4 C10 5 10 5 12 7 C15.8 7.76 19.45 8.04 23.31 8 C27 8 27 8 29 9 C29.08 10.94 29.14 12.87 29.19 14.81 C29.24 16.43 29.24 16.43 29.29 18.08 C28.96 21.39 28.4 21.9 26 24 C26 24.99 26 25.98 26 27 C25.34 27.99 24.68 28.98 24 30 C23.51 29.54 23.03 29.08 22.52 28.6 C16.64 23.19 10.38 18.57 3.84 14 C1 12 1 12 0 11 C-0.07 9.15 -0.08 7.29 -0.06 5.44 C-0.05 4.43 -0.04 3.41 -0.04 2.37 C-0.02 1.59 -0.01 0.81 0 0 Z " fill="#141110" transform="translate(208,243)"/>
<path d="M0 0 C-0.33 0.99 -0.66 1.98 -1 3 C-1.58 2.95 -2.16 2.91 -2.76 2.86 C-8.45 2.6 -11.54 3.13 -16 7 C-20.57 11.28 -20.57 11.28 -22 17 C-21.09 16.67 -20.19 16.34 -19.25 16 C-13.92 14.46 -6.06 13.47 -1 16 C-1.33 54.94 -1.66 93.88 -2 134 C-2.33 134 -2.66 134 -3 134 C-3 95.39 -3 56.78 -3 17 C-16.43 18.55 -16.43 18.55 -28.74 22.2 C-31 23 -31 23 -33 23 C-28.93 14.18 -20.82 7.47 -13 2 C-10.67 1.25 -10.67 1.25 -9 1 C-9 0.34 -9 -0.32 -9 -1 C-5.23 -2.26 -3.63 -1.37 0 0 Z " fill="#4C170C" transform="translate(239,111)"/>
<path d="M0 0 C0.33 0 0.66 0 1 0 C1.75 5.86 0.34 8.99 -3.11 13.74 C-8.61 20.32 -15.13 24.82 -22.41 29.26 C-25.61 31.41 -28.16 33.88 -30.76 36.71 C-31.37 37.35 -31.37 37.35 -32 38 C-32.33 38 -32.66 38 -33 38 C-33 33.05 -33 28.1 -33 23 C-30.9 22.46 -28.79 21.93 -26.62 21.38 C-15.64 18.32 -8.2 13.69 -2 4 C-1.31 2.68 -0.63 1.35 0 0 Z " fill="#E6E6E5" transform="translate(305,167)"/>
<path d="M0 0 C2.76 2.64 5.03 5.33 7.25 8.44 C14.2 17.42 23.21 19.84 34 22 C34 26.95 34 31.9 34 37 C33.09 36.18 32.19 35.35 31.25 34.5 C28.06 31.75 24.72 29.46 21.19 27.19 C12.56 21.5 3.52 15.16 0 5 C-0.12 2.23 -0.12 2.23 0 0 Z " fill="#F4EAE3" transform="translate(167,168)"/>
<path d="M0 0 C0.99 0.33 1.98 0.66 3 1 C13.05 21.1 12.7 44.17 12 66 C11.67 66 11.34 66 11 66 C10.67 55.44 10.34 44.88 10 34 C9.34 34 8.68 34 8 34 C7.87 33.16 7.73 32.31 7.6 31.45 C7.42 30.35 7.24 29.25 7.06 28.12 C6.89 27.03 6.71 25.94 6.54 24.82 C6.14 22.06 6.14 22.06 5 20 C4.34 20 3.68 20 3 20 C3 20.66 3 21.32 3 22 C-1.75 21.25 -1.75 21.25 -4 19 C-4.25 16.49 -4.37 14.14 -4.38 11.62 C-4.4 10.95 -4.42 10.28 -4.45 9.59 C-4.47 6.02 -4.26 4.32 -1.98 1.52 C-1.32 1.02 -0.67 0.52 0 0 Z " fill="#F5F5F5" transform="translate(356,149)"/>
<path d="M0 0 C14.63 12.5 14.63 12.5 20 18 C21.35 19.36 22.71 20.71 24.06 22.06 C28.03 26.03 28.03 26.03 32 30 C28.62 28.71 25.49 27.25 22.34 25.46 C21.03 24.72 21.03 24.72 19.7 23.96 C18.79 23.44 17.88 22.91 16.94 22.38 C16 21.84 15.07 21.31 14.11 20.76 C7.21 16.77 0.52 12.59 -6 8 C-5.34 7.34 -4.68 6.68 -4 6 C-1.88 6.38 -1.88 6.38 0 7 C0.66 6.01 1.32 5.02 2 4 C1.34 4 0.68 4 0 4 C0 2.68 0 1.36 0 0 Z " fill="#0F0F0F" transform="translate(114,211)"/>
<path d="M0 0 C0.33 0.66 0.66 1.32 1 2 C3.54 2.56 6.08 2.89 8.65 3.24 C11 4 11 4 12.32 6.07 C12.54 6.71 12.77 7.34 13 8 C14.65 8 16.3 8 18 8 C18 7.34 18 6.68 18 6 C19.65 6 21.3 6 23 6 C23 5.34 23 4.68 23 4 C23.99 4 24.98 4 26 4 C26.66 4.66 27.32 5.32 28 6 C29.32 5.34 30.64 4.68 32 4 C32.12 6.38 32.12 6.38 32 9 C31.34 9.66 30.68 10.32 30 11 C30.33 11 30.66 11 31 11 C31.3 16.02 30.99 18.9 28 23 C24 17 24 17 24.38 14.31 C24.68 13.17 24.68 13.17 25 12 C22.69 12 20.38 12 18 12 C18 11.67 18 11.34 18 11 C16.93 10.86 15.85 10.71 14.75 10.56 C11 10 11 10 8.81 9.44 C6.66 8.84 6.66 8.84 3 9 C3 8.01 3 7.02 3 6 C2.01 6 1.02 6 0 6 C0 5.34 0 4.68 0 4 C-0.99 4 -1.98 4 -3 4 C-3 3.34 -3 2.68 -3 2 C-2.01 1.34 -1.02 0.68 0 0 Z " fill="#030203" transform="translate(181,176)"/>
<path d="M0 0 C0.66 1.32 1.32 2.64 2 4 C2.66 3.34 3.32 2.68 4 2 C6 4 6 4 6 7 C4.5 8.69 4.5 8.69 3 10 C3 9.34 3 8.68 3 8 C2.27 8.5 1.54 8.99 0.79 9.5 C-5.68 13.71 -12.12 17.12 -19.31 19.94 C-20.05 20.23 -20.79 20.53 -21.55 20.83 C-26.39 22.65 -30.85 23.54 -36 24 C-34.55 21.09 -32.64 20.95 -29.62 19.81 C-18.22 15.18 -9.2 7.98 0 0 Z " fill="#0D0D0D" transform="translate(299,245)"/>
<path d="M0 0 C1.76 0.31 1.76 0.31 3.55 0.62 C4.44 0.78 5.33 0.95 6.25 1.12 C6.25 1.46 6.25 1.78 6.25 2.12 C8.72 2.62 8.72 2.62 11.25 3.12 C11.21 3.89 11.17 4.65 11.12 5.44 C11.03 8.35 11.03 8.35 13.25 11.12 C13.38 13.81 13.38 13.81 13.25 16.12 C11.6 15.47 9.95 14.81 8.25 14.12 C7.59 22.7 6.93 31.28 6.25 40.12 C6.91 40.12 7.57 40.12 8.25 40.12 C8.58 39.13 8.91 38.15 9.25 37.12 C8.74 41.12 8.11 45.06 7.31 49 C7.16 49.76 7.01 50.52 6.85 51.3 C6.65 51.91 6.45 52.51 6.25 53.12 C5.26 53.62 5.26 53.62 4.25 54.12 C4.37 49.72 4.49 45.31 4.62 40.9 C4.66 39.41 4.71 37.92 4.75 36.43 C5.03 25.98 5.53 15.56 6.25 5.12 C5.55 5.08 4.86 5.03 4.14 4.99 C-1.46 4.59 -5.73 3.63 -10.75 1.12 C-7.01 -1.38 -4.31 -0.78 0 0 Z " fill="#070408" transform="translate(194.75,184.875)"/>
<path d="M0 0 C0 0.99 0 1.98 0 3 C-0.66 3 -1.32 3 -2 3 C-2 3.66 -2 4.32 -2 5 C-2.99 5.66 -3.98 6.32 -5 7 C-2.36 6.67 0.28 6.34 3 6 C3 6.33 3 6.66 3 7 C7.29 7 11.58 7 16 7 C16.33 5.68 16.66 4.36 17 3 C17.99 3.33 18.98 3.66 20 4 C19.98 4.78 19.96 5.57 19.94 6.38 C19.81 8.98 19.81 8.98 21 11 C20.37 10.84 19.73 10.68 19.08 10.52 C14.94 9.82 10.88 9.74 6.69 9.69 C5.87 9.66 5.05 9.63 4.21 9.6 C-1.14 9.54 -4.76 10.43 -9.4 13.14 C-11 14 -11 14 -13 14 C-12.67 11.36 -12.34 8.72 -12 6 C-15.63 6 -19.26 6 -23 6 C-23 5.67 -23 5.34 -23 5 C-21.61 4.84 -21.61 4.84 -20.18 4.67 C-13.79 3.85 -6.01 0 0 0 Z " fill="#0E0E0E" transform="translate(229,288)"/>
<path d="M0 0 C-2.27 2.27 -4.18 3.05 -7.12 4.31 C-12.07 6.5 -16.49 9.02 -21 12 C-21 10.68 -21 9.36 -21 8 C-19.68 7.34 -18.36 6.68 -17 6 C-19.65 4.54 -20.89 4 -24 4 C-24 4.66 -24 5.32 -24 6 C-25.98 6 -27.96 6 -30 6 C-30 6.66 -30 7.32 -30 8 C-31.93 8.53 -33.87 9.05 -35.81 9.56 C-37.43 10 -37.43 10 -39.08 10.44 C-42 11 -42 11 -45 10 C-30.73 3.31 -15.86 -1.16 0 0 Z " fill="#CB5835" transform="translate(233,89)"/>
<path d="M0 0 C0.88 0.01 1.77 0.02 2.68 0.03 C3.67 0.04 3.67 0.04 4.69 0.06 C4.03 0.72 3.37 1.38 2.69 2.06 C1.7 2.06 0.71 2.06 -0.31 2.06 C-0.31 2.72 -0.31 3.38 -0.31 4.06 C-2.12 5.14 -3.93 6.22 -5.73 7.29 C-11.06 10.95 -15.64 15.61 -20.31 20.06 C-20.64 19.4 -20.97 18.74 -21.31 18.06 C-20.98 17.4 -20.65 16.74 -20.31 16.06 C-19.65 16.06 -18.99 16.06 -18.31 16.06 C-18.31 14.41 -18.31 12.76 -18.31 11.06 C-17.51 10.77 -16.7 10.48 -15.88 10.19 C-13.18 9.33 -13.18 9.33 -12.31 7.06 C-10 6.33 -7.66 5.66 -5.31 5.06 C-5.31 4.4 -5.31 3.74 -5.31 3.06 C-6.06 3.21 -6.81 3.35 -7.58 3.5 C-9.06 3.78 -9.06 3.78 -10.56 4.06 C-12.02 4.34 -12.02 4.34 -13.52 4.62 C-16.31 5.06 -16.31 5.06 -20.31 5.06 C-20.64 6.05 -20.97 7.04 -21.31 8.06 C-23.62 7.73 -25.93 7.4 -28.31 7.06 C-24.81 5.12 -21.22 4.08 -17.38 3 C-15.57 2.49 -15.57 2.49 -13.72 1.96 C-9.02 0.72 -4.87 -0.06 0 0 Z " fill="#C55538" transform="translate(230.3125,107.9375)"/>
<path d="M0 0 C-1.68 5.2 -4.5 9.43 -9.19 12.38 C-13.45 13.32 -17.65 13.15 -22 13 C-22 12.01 -22 11.02 -22 10 C-16.67 7.33 -11.33 4.67 -6 2 C-5.3 1.63 -4.6 1.26 -3.88 0.88 C-2 0 -2 0 0 0 Z " fill="#BD573B" transform="translate(297,165)"/>
<path d="M0 0 C0.71 0.29 1.41 0.58 2.14 0.88 C12.48 4.62 22.13 4.39 33 4 C32.67 4.66 32.34 5.32 32 6 C29.49 6.29 27.08 6.47 24.56 6.56 C19.63 6.6 19.63 6.6 15 8 C14.34 10.53 14.34 10.53 14 13 C14.66 13.33 15.32 13.66 16 14 C14.32 14.79 14.32 14.79 12 15 C9.49 13.09 9.49 13.09 6.88 10.38 C6.01 9.5 5.14 8.62 4.24 7.71 C2.12 5.15 1.01 3.14 0 0 Z " fill="#E0E0E0" transform="translate(177,273)"/>
<path d="M0 0 C0.66 0.16 1.32 0.33 2 0.5 C5.73 1.12 9.22 1.06 13 1 C12.67 2.65 12.34 4.3 12 6 C11.34 5.67 10.68 5.34 10 5 C9.34 9.29 8.68 13.58 8 18 C7.01 18 6.02 18 5 18 C4.67 18.99 4.34 19.98 4 21 C4.17 20.03 4.33 19.06 4.5 18.06 C5.13 13.71 5.09 9.39 5 5 C3.02 7.97 3.02 7.97 1 11 C0.01 10.34 -0.98 9.68 -2 9 C-1.12 2.25 -1.12 2.25 0 0 Z " fill="#141414" transform="translate(298,133)"/>
<path d="M0 0 C2.73 1.24 5.46 2.49 8.19 3.75 C9.34 4.27 9.34 4.27 10.52 4.8 C14.81 6.79 18.43 8.83 22 12 C20.29 13.71 18.14 13.25 15.81 13.31 C10.7 13.25 7.86 12.58 4 9 C0 3.84 0 3.84 0 0 Z " fill="#BF593F" transform="translate(177,165)"/>
<path d="M0 0 C0.71 0.85 1.41 1.7 2.14 2.57 C4.72 5.33 4.72 5.33 7.71 4.83 C8.73 4.5 9.76 4.16 10.81 3.81 C21.37 1.01 32.15 1.74 43 2 C43 2.33 43 2.66 43 3 C32.61 3.5 32.61 3.5 22 4 C22.33 4.66 22.66 5.32 23 6 C11.41 10.52 11.41 10.52 5 9 C4.01 9 3.02 9 2 9 C2 7.35 2 5.7 2 4 C1.34 4 0.68 4 0 4 C0 2.68 0 1.36 0 0 Z " fill="#1C1C1C" transform="translate(204,313)"/>
<path d="M0 0 C2.68 1.34 2.95 2.72 4.12 5.44 C4.48 6.24 4.83 7.04 5.2 7.87 C6 10 6 10 6 12 C6.99 12.33 7.98 12.66 9 13 C10.37 14.63 11.71 16.3 13 18 C17.25 23.06 22.63 25.2 29 26 C31.96 26.24 34.91 26.41 37.88 26.56 C38.66 26.61 39.44 26.65 40.25 26.69 C42.17 26.8 44.08 26.9 46 27 C40.57 30.34 34.13 29.55 28 29 C23.43 27.8 19.22 26.11 15 24 C15 23.34 15 22.68 15 22 C14.41 21.76 13.82 21.51 13.22 21.26 C6.8 17.62 2.83 9.57 0 3 C0 2.01 0 1.02 0 0 Z " fill="#C5563A" transform="translate(138,190)"/>
<path d="M0 0 C1.32 0.66 2.64 1.32 4 2 C-3.03 9.76 -12.29 15.32 -21 21 C-21.33 20.01 -21.66 19.02 -22 18 C-21.01 18 -20.02 18 -19 18 C-19.33 16.35 -19.66 14.7 -20 13 C-18.68 13 -17.36 13 -16 13 C-15.34 12.67 -14.68 12.34 -14 12 C-13.34 9.47 -13.34 9.47 -13 7 C-11.74 6.9 -10.48 6.79 -9.19 6.69 C-5.86 6.3 -5.86 6.3 -3.12 4.44 C-2.75 3.96 -2.38 3.49 -2 3 C-1.34 3 -0.68 3 0 3 C0 2.01 0 1.02 0 0 Z " fill="#131313" transform="translate(268,246)"/>
<path d="M0 0 C0.33 0 0.66 0 1 0 C0.99 0.94 0.98 1.87 0.97 2.84 C0.93 6.37 0.91 9.91 0.89 13.44 C0.88 14.96 0.87 16.48 0.85 18 C0.71 30.02 1.24 41.27 5.62 52.62 C8 58.84 8 58.84 8 61 C7.34 61 6.68 61 6 61 C6 60.34 6 59.68 6 59 C5.34 59 4.68 59 4 59 C3.58 57.52 3.58 57.52 3.16 56.01 C2.79 54.71 2.43 53.42 2.06 52.12 C1.88 51.47 1.7 50.82 1.51 50.15 C0.48 46.49 0.48 46.49 -1 43 C-1.1 39.96 -1.14 36.95 -1.13 33.91 C-1.13 33 -1.13 32.1 -1.14 31.17 C-1.14 29.26 -1.13 27.35 -1.13 25.44 C-1.13 22.51 -1.13 19.58 -1.14 16.65 C-1.14 14.8 -1.13 12.95 -1.13 11.09 C-1.13 10.21 -1.14 9.33 -1.14 8.43 C-1.11 2.23 -1.11 2.23 0 0 Z " fill="#441009" transform="translate(132,136)"/>
<path d="M0 0 C6.2 -0.67 11.36 1.75 17 4 C17 6.64 17 9.28 17 12 C9.82 10.21 4.21 6.02 0 0 Z " fill="#E8E9E8" transform="translate(219,251)"/>
<path d="M0 0 C0.33 0 0.66 0 1 0 C6.16 18.2 6.6 35.26 6 54 C5.67 54 5.34 54 5 54 C4.67 43.44 4.34 32.88 4 22 C3.34 22 2.68 22 2 22 C1.34 18.04 0.68 14.08 0 10 C-0.33 10 -0.66 10 -1 10 C-1.33 8.02 -1.66 6.04 -2 4 C-1.34 4 -0.68 4 0 4 C0 2.68 0 1.36 0 0 Z " fill="#D2D2D2" transform="translate(362,161)"/>
<path d="M0 0 C3.41 3.22 6.17 6.46 8.79 10.35 C10.06 12.08 11.45 13.52 13 15 C11.35 14.67 9.7 14.34 8 14 C8 13.01 8 12.02 8 11 C6.35 11.33 4.7 11.66 3 12 C3.71 15.09 3.71 15.09 6.06 16.5 C6.7 17 7.34 17.49 8 18 C8 18.99 8 19.98 8 21 C4.05 19.18 2.07 17.29 0.49 13.18 C-0.49 8.84 -0.22 4.42 0 0 Z " fill="#E5E5E5" transform="translate(169,137)"/>
<path d="M0 0 C0.66 0.66 1.32 1.32 2 2 C1.34 2.47 0.68 2.95 0 3.44 C-2.56 6.72 -2.41 8.74 -2.34 12.78 C-1.97 15.19 -1.2 16.89 0 19 C-0.78 19.1 -1.57 19.21 -2.38 19.31 C-5.33 19.78 -5.33 19.78 -7 23 C-7.33 22.34 -7.66 21.68 -8 21 C-9.65 21.33 -11.3 21.66 -13 22 C-13.33 21.34 -13.66 20.68 -14 20 C-13.22 18.27 -13.22 18.27 -12.06 16.38 C-11.04 14.7 -11.04 14.7 -10 13 C-9.01 14.32 -8.02 15.64 -7 17 C-6.67 15.35 -6.34 13.7 -6 12 C-5.34 12 -4.68 12 -4 12 C-4 9.36 -4 6.72 -4 4 C-2.68 3.34 -1.36 2.68 0 2 C0 1.34 0 0.68 0 0 Z " fill="#111111" transform="translate(243,267)"/>
<path d="M0 0 C0.66 0.33 1.32 0.66 2 1 C1.01 2.65 0.02 4.3 -1 6 C-0.34 6.33 0.32 6.66 1 7 C-1.83 8.16 -4.66 9.3 -7.5 10.44 C-8.29 10.76 -9.08 11.09 -9.9 11.42 C-14.99 13.45 -19.53 14.55 -25 15 C-23.55 12.09 -21.64 11.95 -18.62 10.81 C-12.19 8.23 -4.98 4.98 0 0 Z " fill="#181818" transform="translate(288,254)"/>
<path d="M0 0 C1.21 0.03 1.21 0.03 2.44 0.06 C2.11 0.72 1.78 1.38 1.44 2.06 C1.3 3.63 1.21 5.21 1.16 6.79 C1.12 7.74 1.08 8.69 1.04 9.67 C1.01 10.66 0.97 11.66 0.94 12.69 C0.7 19.21 0.36 25.6 -0.56 32.06 C-0.89 32.06 -1.22 32.06 -1.56 32.06 C-1.89 25.79 -2.22 19.52 -2.56 13.06 C-3.55 13.39 -4.54 13.72 -5.56 14.06 C-5.41 13.5 -5.25 12.94 -5.09 12.36 C-4.38 9.25 -4.13 6.15 -3.84 2.99 C-3.41 0.02 -3.05 0.07 0 0 Z " fill="#161616" transform="translate(351.5625,150.9375)"/>
<path d="M0 0 C-1.05 1.32 -2.11 2.63 -3.19 3.94 C-3.78 4.67 -4.37 5.4 -4.98 6.15 C-7.33 8.3 -8.88 8.66 -12 9 C-12 8.01 -12 7.02 -12 6 C-19.26 5.67 -26.52 5.34 -34 5 C-34.33 4.34 -34.66 3.68 -35 3 C-34.42 3.02 -33.84 3.04 -33.25 3.06 C-18.73 3.76 -18.73 3.76 -4.96 -0.22 C-3 -1 -3 -1 0 0 Z " fill="#F7F7F7" transform="translate(297,274)"/>
<path d="M0 0 C0.33 0 0.66 0 1 0 C1.03 3.96 1.05 7.92 1.06 11.88 C1.07 12.98 1.08 14.09 1.09 15.23 C1.11 21.89 0.83 28.39 0 35 C0.66 35 1.32 35 2 35 C2.33 34.01 2.66 33.02 3 32 C2.49 35.99 1.86 39.93 1.06 43.88 C0.91 44.64 0.76 45.4 0.6 46.18 C0.4 46.78 0.2 47.38 0 48 C-0.99 48.5 -0.99 48.5 -2 49 C-1.88 44.59 -1.76 40.19 -1.63 35.78 C-1.59 34.29 -1.54 32.8 -1.5 31.31 C-1.22 20.85 -0.72 10.43 0 0 Z " fill="#592017" transform="translate(201,190)"/>
<path d="M0 0 C1.88 0.31 1.88 0.31 4 1 C4.66 1.99 5.32 2.98 6 4 C7.95 4.79 7.95 4.79 10.12 5.19 C12.04 5.59 12.04 5.59 14 6 C14 6.99 14 7.98 14 9 C15.32 9 16.64 9 18 9 C18.66 9 19.32 9 20 9 C20.33 10.32 20.66 11.64 21 13 C22.32 13 23.64 13 25 13 C25 13.66 25 14.32 25 15 C26.65 15 28.3 15 30 15 C29.67 15.99 29.34 16.98 29 18 C23.55 16.43 18.86 13.93 13.94 11.19 C13.15 10.76 12.36 10.34 11.54 9.9 C7.01 7.38 3.41 4.93 0 1 C0 0.67 0 0.34 0 0 Z " fill="#D56645" transform="translate(177,146)"/>
<path d="M0 0 C0.66 0.33 1.32 0.66 2 1 C1.01 2.49 1.01 2.49 0 4 C0.33 4.66 0.66 5.32 1 6 C0.34 6.66 -0.32 7.32 -1 8 C-0.68 10.6 -0.68 10.6 0 13 C1.65 13 3.3 13 5 13 C5 13.66 5 14.32 5 15 C5.99 14.67 6.98 14.34 8 14 C8 17 8 17 6.5 18.69 C6 19.12 5.51 19.55 5 20 C1.12 18.42 -1.46 16.33 -4 13 C-4 7.69 -3.14 4.37 0 0 Z " fill="#E5E4E3" transform="translate(176,231)"/>
<path d="M0 0 C0.66 0.66 1.32 1.32 2 2 C-0.36 4.53 -1.66 5.89 -5 7 C-5.66 6.67 -6.32 6.34 -7 6 C-7.14 6.78 -7.29 7.57 -7.44 8.38 C-8 11 -8 11 -9 13 C-9.99 13 -10.98 13 -12 13 C-12 9.37 -12 5.74 -12 2 C-8.04 2 -4.08 2 0 2 C0 1.34 0 0.68 0 0 Z " fill="#FAFAFA" transform="translate(284,188)"/>
<path d="M0 0 C0.87 0.46 0.87 0.46 1.75 0.94 C3.9 2.09 3.9 2.09 6.06 2.31 C9.02 3.36 9.63 5.26 11 8 C11.69 9.66 12.36 11.32 13 13 C13.65 14.34 14.31 15.68 15 17 C15.66 17 16.32 17 17 17 C18.55 19.46 19.04 20.63 18.69 23.56 C18.17 25.39 17.6 27.2 17 29 C16.34 29 15.68 29 15 29 C15.58 26.61 16.22 24.33 17 22 C15.38 19.51 15.38 19.51 13.06 16.94 C12.24 15.97 11.42 15 10.57 14 C9.72 13.01 8.87 12.02 8 11 C6.47 9.13 4.95 7.26 3.44 5.38 C2.45 4.15 2.45 4.15 1.43 2.9 C0 1 0 1 0 0 Z " fill="#CC573A" transform="translate(124,87)"/>
<path d="M0 0 C0.33 0.99 0.66 1.98 1 3 C0.18 3.37 -0.65 3.74 -1.5 4.12 C-2.32 4.74 -3.15 5.36 -4 6 C-4.58 9.04 -4.58 9.04 -4 12 C-3.34 12.66 -2.68 13.32 -2 14 C-3.32 14 -4.64 14 -6 14 C-8.36 11.59 -8.36 11.59 -10.75 8.5 C-11.95 6.97 -11.95 6.97 -13.17 5.41 C-13.78 4.61 -14.38 3.82 -15 3 C-14.01 2.67 -13.02 2.34 -12 2 C-11.34 2.33 -10.68 2.66 -10 3 C-5.2 3.51 -5.2 3.51 -1.06 1.5 C-0.71 1 -0.36 0.51 0 0 Z " fill="#E4E4E4" transform="translate(214,304)"/>
<path d="M0 0 C0.66 0 1.32 0 2 0 C3.32 5.28 4.64 10.56 6 16 C-2.75 11.38 -2.75 11.38 -5 8 C-4.01 7.67 -3.02 7.34 -2 7 C-2 6.34 -2 5.68 -2 5 C-1.34 5 -0.68 5 0 5 C0 3.35 0 1.7 0 0 Z " fill="#E4E4E4" transform="translate(160,264)"/>
<path d="M0 0 C1.32 3.97 0.36 5.87 -0.87 9.86 C-1.07 10.52 -1.27 11.18 -1.48 11.86 C-2.12 13.97 -2.78 16.08 -3.44 18.19 C-3.88 19.62 -4.31 21.05 -4.75 22.48 C-5.83 25.99 -6.91 29.5 -8 33 C-8.33 33 -8.66 33 -9 33 C-8.81 24.2 -6.47 17.04 -3 9 C-3.99 8.67 -4.98 8.34 -6 8 C-4.02 5.36 -2.04 2.72 0 0 Z " fill="#420B05" transform="translate(223,158)"/>
<path d="M0 0 C0.33 0 0.66 0 1 0 C1.03 0.6 1.05 1.2 1.08 1.82 C1.19 4.57 1.32 7.31 1.44 10.06 C1.48 11.01 1.52 11.95 1.56 12.92 C1.79 18.01 2.17 22.97 3 28 C0.38 25.63 -1.33 23.1 -3 20 C-3 19.34 -3 18.68 -3 18 C-2.34 18 -1.68 18 -1 18 C-1.01 16.78 -1.02 15.57 -1.04 14.32 C-1.04 12.73 -1.05 11.15 -1.06 9.56 C-1.08 8.36 -1.08 8.36 -1.09 7.13 C-1.1 5.09 -1.05 3.04 -1 1 C-0.67 0.67 -0.34 0.34 0 0 Z " fill="#B2543D" transform="translate(117,83)"/>
<path d="M0 0 C3.39 1.26 5.51 3.3 8 5.88 C8.66 6.55 9.32 7.23 10 7.93 C10.66 8.61 11.32 9.3 12 10 C13.33 11.34 14.66 12.67 16 14 C11.96 12.51 8.39 10.57 4.69 8.38 C3.08 7.43 3.08 7.43 1.45 6.46 C0.24 5.74 0.24 5.74 -1 5 C-0.34 4.67 0.32 4.34 1 4 C1 3.34 1 2.68 1 2 C0.01 1.67 -0.98 1.34 -2 1 C-1.34 0.67 -0.68 0.34 0 0 Z " fill="#252525" transform="translate(130,227)"/>
<path d="M0 0 C3.3 1.65 6.6 3.3 10 5 C10 10.61 10 16.22 10 22 C9.01 22.33 8.02 22.66 7 23 C6.99 21.88 6.97 20.76 6.96 19.61 C6.91 18.13 6.86 16.66 6.81 15.19 C6.8 14.08 6.8 14.08 6.79 12.95 C6.75 10.5 6.75 10.5 6 7 C3.59 5.19 3.59 5.19 1 4 C0.67 2.68 0.34 1.36 0 0 Z " fill="#DADADA" transform="translate(150,231)"/>
<path d="M0 0 C0.99 0.33 1.98 0.66 3 1 C3 1.66 3 2.32 3 3 C3.66 3 4.32 3 5 3 C5 3.66 5 4.32 5 5 C6.98 4.67 8.96 4.34 11 4 C11 4.33 11 4.66 11 5 C13.48 5.5 13.48 5.5 16 6 C16 6.33 16 6.66 16 7 C0.07 7.55 0.07 7.55 -6 4 C-4.04 2.49 -2.22 1.11 0 0 Z " fill="#DFDFDF" transform="translate(253,286)"/>
<path d="M0 0 C2.28 0.77 4.51 1.61 6.73 2.53 C6.73 1.87 6.73 1.21 6.73 0.53 C8.67 0.84 8.67 0.84 10.73 1.53 C11.06 2.52 11.39 3.51 11.73 4.53 C4.78 5.74 0.23 5.25 -6.27 2.53 C-4.26 0.18 -3.09 -0.64 0 0 Z " fill="#E3E3E3" transform="translate(199.26953125,271.46875)"/>
<path d="M0 0 C3 1 3 1 4.19 3.06 C4.46 3.7 4.72 4.34 5 5 C4.01 5.33 3.02 5.66 2 6 C1.67 5.67 1.34 5.34 1 5 C-0.98 5.99 -0.98 5.99 -3 7 C-3 8.98 -3 10.96 -3 13 C-5.31 12.67 -7.62 12.34 -10 12 C-9.67 10.68 -9.34 9.36 -9 8 C-8.67 8.66 -8.34 9.32 -8 10 C-7.34 10 -6.68 10 -6 10 C-5.75 9.28 -5.5 8.56 -5.25 7.81 C-3.89 4.75 -2.17 2.53 0 0 Z " fill="#161616" transform="translate(122,239)"/>
<path d="M0 0 C3.89 3.25 3.89 3.25 4.38 6.58 C4.32 7.53 4.27 8.48 4.21 9.46 C4.15 10.51 4.1 11.56 4.04 12.64 C3.97 13.73 3.89 14.82 3.81 15.94 C3.76 17.02 3.7 18.11 3.64 19.22 C3.37 23.91 3.01 28.41 2 33 C1.67 33 1.34 33 1 33 C1.01 32.21 1.01 31.43 1.02 30.62 C1.04 27.04 1.05 23.46 1.06 19.88 C1.07 18.64 1.08 17.4 1.09 16.12 C1.09 14.93 1.09 13.73 1.1 12.49 C1.1 11.39 1.11 10.29 1.11 9.16 C1 6.02 0.59 3.08 0 0 Z " fill="#CC5C3C" transform="translate(197,202)"/>
<path d="M0 0 C1.32 0.66 2.64 1.32 4 2 C3.1 2.56 3.1 2.56 2.17 3.14 C-2.31 6.01 -5.97 8.52 -9 13 C-9.33 11.35 -9.66 9.7 -10 8 C-9.34 8 -8.68 8 -8 8 C-8.33 6.35 -8.66 4.7 -9 3 C-5.93 2.09 -3.2 1.91 0 2 C0 1.34 0 0.68 0 0 Z " fill="#131412" transform="translate(270,159)"/>
<path d="M0 0 C1.02 -0 2.04 -0.01 3.09 -0.01 C5.86 0.12 8.37 0.5 11.06 1.12 C10.73 2.11 10.4 3.11 10.06 4.12 C7.75 4.45 5.44 4.78 3.06 5.12 C4.05 4.47 5.04 3.81 6.06 3.12 C-0.71 3.02 -7.24 3.09 -13.94 4.12 C-9.36 0.36 -5.85 -0.01 0 0 Z " fill="#270200" transform="translate(224.9375,86.875)"/>
<path d="M0 0 C0.99 0 1.98 0 3 0 C3.33 4.62 3.66 9.24 4 14 C4.66 13.67 5.32 13.34 6 13 C5.67 13.99 5.34 14.98 5 16 C4.34 16 3.68 16 3 16 C2.67 17.32 2.34 18.64 2 20 C1.34 20 0.68 20 0 20 C0 13.4 0 6.8 0 0 Z " fill="#212121" transform="translate(269,190)"/>
<path d="M0 0 C1.65 0.14 3.29 0.29 4.94 0.44 C6.31 0.56 6.31 0.56 7.71 0.68 C10 1 10 1 11 2 C12.24 2.14 13.47 2.29 14.75 2.44 C18.12 2.83 20.98 3.35 24 5 C24.33 5.99 24.66 6.98 25 8 C16.33 6.63 8.25 3.88 0 1 C0 0.67 0 0.34 0 0 Z " fill="#3B0D08" transform="translate(140,68)"/>
<path d="M0 0 C-2.52 2.52 -4.73 3.04 -8.12 4.12 C-9.22 4.48 -10.32 4.83 -11.45 5.2 C-12.29 5.46 -13.13 5.73 -14 6 C-14 5.01 -14 4.02 -14 3 C-17.3 3 -20.6 3 -24 3 C-24 2.67 -24 2.34 -24 2 C-15.95 0.7 -8.16 -0.34 0 0 Z " fill="#B0543E" transform="translate(233,69)"/>
<path d="M0 0 C0.99 0 1.98 0 3 0 C3.33 1.65 3.66 3.3 4 5 C5.32 3.35 6.64 1.7 8 0 C8.66 0.33 9.32 0.66 10 1 C9.67 3.64 9.34 6.28 9 9 C5.23 10.26 2.75 10.03 -1 9 C-0.01 9 0.98 9 2 9 C2 6.36 2 3.72 2 1 C1.34 0.67 0.68 0.34 0 0 Z " fill="#161616" transform="translate(258,172)"/>
<path d="M0 0 C0.33 0 0.66 0 1 0 C1.12 1 1.24 2 1.37 3.04 C1.54 4.38 1.71 5.72 1.88 7.06 C1.95 7.72 2.03 8.38 2.11 9.05 C2.69 13.52 3.72 17.67 5 22 C5.65 25.65 6 29.28 6 33 C5.01 32.67 4.02 32.34 3 32 C2.95 31.31 2.9 30.62 2.85 29.91 C2.49 25.36 2.08 20.99 0.94 16.56 C-0.41 11.08 -0.17 5.61 0 0 Z " fill="#C76548" transform="translate(163,146)"/>
<path d="M0 0 C0 0.99 0 1.98 0 3 C-0.64 3.29 -1.28 3.58 -1.94 3.88 C-4.15 4.83 -4.15 4.83 -5 7 C-5.66 7 -6.32 7 -7 7 C-7.33 10.96 -7.66 14.92 -8 19 C-8.33 19 -8.66 19 -9 19 C-9.13 16.23 -9.23 13.46 -9.31 10.69 C-9.35 9.9 -9.4 9.12 -9.44 8.31 C-9.49 6.1 -9.47 4.16 -9 2 C-5.87 -0.72 -3.91 -1.59 0 0 Z " fill="#DEDEDE" transform="translate(322,234)"/>
<path d="M0 0 C2.12 0.38 2.12 0.38 4 1 C4 1.99 4 2.98 4 4 C5.65 4.33 7.3 4.66 9 5 C8.01 5.5 8.01 5.5 7 6 C7 6.99 7 7.98 7 9 C2.25 8.25 2.25 8.25 0 6 C0 5.01 0 4.02 0 3 C-0.66 2.67 -1.32 2.34 -2 2 C-1.34 1.34 -0.68 0.68 0 0 Z " fill="#F5F2EE" transform="translate(197,161)"/>
<path d="M0 0 C1.52 1.28 1.52 1.28 3 3 C2.69 6.5 2.69 6.5 2 10 C2 10.99 2 11.98 2 13 C-1.33 16 -1.33 16 -4 16 C-3.31 12.34 -2.43 8.78 -1.44 5.19 C-1.17 4.21 -0.9 3.24 -0.62 2.23 C-0.42 1.49 -0.21 0.76 0 0 Z " fill="#DADADA" transform="translate(311,264)"/>
<path d="M0 0 C1.76 0.31 1.76 0.31 3.55 0.62 C4.44 0.78 5.33 0.95 6.25 1.12 C5.26 1.62 5.26 1.62 4.25 2.12 C4.25 2.78 4.25 3.44 4.25 4.12 C4.91 4.46 5.57 4.78 6.25 5.12 C-0.05 4.76 -5.08 3.96 -10.75 1.12 C-7.01 -1.38 -4.31 -0.78 0 0 Z " fill="#1D1A19" transform="translate(194.75,184.875)"/>
<path d="M0 0 C5.34 -0.45 8.45 0.41 13.13 2.98 C15.35 4.19 17.64 5.11 20 6 C16.94 6.98 15.15 7.01 12.11 6 C11.4 5.78 10.69 5.55 9.96 5.31 C9.23 5.06 8.5 4.82 7.75 4.56 C7 4.32 6.26 4.08 5.49 3.83 C3.66 3.23 1.83 2.61 0 2 C0 1.34 0 0.68 0 0 Z " fill="#353535" transform="translate(190,262)"/>
<path d="M0 0 C0 3 0 3 -2 5.44 C-4.41 7.98 -4.41 7.98 -4 12 C-4.99 12.33 -5.98 12.66 -7 13 C-7 12.34 -7 11.68 -7 11 C-8.98 11 -10.96 11 -13 11 C-10.81 8.7 -8.5 6.81 -5.94 4.94 C-3.79 3.36 -1.89 1.89 0 0 Z " fill="#111111" transform="translate(299,183)"/>
<path d="M0 0 C1.35 2.7 0.8 4.15 0 7 C-0.99 7.5 -0.99 7.5 -2 8 C-2.66 10.53 -2.66 10.53 -3 13 C-4.65 13 -6.3 13 -8 13 C-8.62 11.12 -8.62 11.12 -9 9 C-8.34 8.34 -7.68 7.68 -7 7 C-6.01 8.49 -6.01 8.49 -5 10 C-4.6 8.36 -4.6 8.36 -4.19 6.69 C-3.12 3.38 -2.65 2.05 0 0 Z " fill="#280E0C" transform="translate(216,167)"/>
<path d="M0 0 C3.41 3.22 6.17 6.46 8.79 10.35 C10.06 12.08 11.45 13.52 13 15 C11.35 14.67 9.7 14.34 8 14 C8 13.01 8 12.02 8 11 C6.68 11 5.36 11 4 11 C0 4.5 0 4.5 0 0 Z " fill="#F9D9CA" transform="translate(169,137)"/>
<path d="M0 0 C0.66 0.33 1.32 0.66 2 1 C1.85 2.77 1.85 2.77 1 5 C-1.5 6.92 -1.5 6.92 -4.56 8.75 C-5.57 9.36 -6.59 9.98 -7.63 10.61 C-8.41 11.07 -9.19 11.53 -10 12 C-10.33 11.01 -10.66 10.02 -11 9 C-10.2 8.22 -9.39 7.43 -8.56 6.62 C-6.01 4.28 -6.01 4.28 -5 2 C-4.01 2.33 -3.02 2.66 -2 3 C-1.34 2.01 -0.68 1.02 0 0 Z " fill="#161616" transform="translate(296,226)"/>
<path d="M0 0 C0.99 0.33 1.98 0.66 3 1 C2 3 2 3 0 5 C-0.34 7.5 -0.44 9.97 -0.56 12.49 C-1.07 15.39 -2.09 16.81 -4 19 C-4.11 16.58 -4.19 14.17 -4.25 11.75 C-4.28 11.07 -4.32 10.39 -4.35 9.68 C-4.42 6.08 -4.29 4.36 -1.98 1.52 C-1.33 1.02 -0.67 0.52 0 0 Z " fill="#D5D5D5" transform="translate(356,149)"/>
<path d="M0 0 C0.66 0 1.32 0 2 0 C2.33 2.64 2.66 5.28 3 8 C10.26 8 17.52 8 25 8 C25 8.33 25 8.66 25 9 C17.08 9 9.16 9 1 9 C1 7.35 1 5.7 1 4 C0.34 4 -0.32 4 -1 4 C-0.67 2.68 -0.34 1.36 0 0 Z " fill="#4D1003" transform="translate(211,237)"/>
<path d="M0 0 C0 1.65 0 3.3 0 5 C-0.66 4.67 -1.32 4.34 -2 4 C-2.99 5.98 -3.98 7.96 -5 10 C-5.66 10 -6.32 10 -7 10 C-7.33 9.34 -7.66 8.68 -8 8 C-8.99 7.34 -9.98 6.68 -11 6 C-9.55 4.99 -8.09 4 -6.62 3 C-5.41 2.16 -5.41 2.16 -4.16 1.31 C-2 0 -2 0 0 0 Z " fill="#D6D6D6" transform="translate(302,253)"/>
<path d="M0 0 C7.75 -0.12 7.75 -0.12 10 1 C10 4.96 10 8.92 10 13 C9.34 12.67 8.68 12.34 8 12 C8.33 9.36 8.66 6.72 9 4 C4.54 3.01 4.54 3.01 0 2 C0 1.34 0 0.68 0 0 Z " fill="#353334" transform="translate(227,251)"/>
<path d="M0 0 C0.33 0 0.66 0 1 0 C1.66 3.3 2.32 6.6 3 10 C2.34 10 1.68 10 1 10 C0.67 12.31 0.34 14.62 0 17 C-2 15 -2 15 -2.01 12.79 C-1.9 11.93 -1.8 11.07 -1.69 10.19 C-1.58 9.3 -1.47 8.41 -1.36 7.49 C-1 4.97 -0.58 2.48 0 0 Z " fill="#161616" transform="translate(367,215)"/>
<path d="M0 0 C0.63 0.84 0.63 0.84 1.27 1.7 C3.05 4.07 4.87 6.41 6.69 8.75 C7.31 9.55 7.93 10.35 8.57 11.17 C9.04 11.78 9.52 12.38 10 13 C9.01 13.33 8.02 13.66 7 14 C6.01 13.34 5.02 12.68 4 12 C4 11.01 4 10.02 4 9 C3.01 9 2.02 9 1 9 C0.67 6.03 0.34 3.06 0 0 Z " fill="#310B05" transform="translate(140,197)"/>
<path d="M0 0 C-0.33 0.99 -0.66 1.98 -1 3 C-9.58 3 -18.16 3 -27 3 C-27.33 2.34 -27.66 1.68 -28 1 C-27.08 1.01 -27.08 1.01 -26.14 1.02 C-23.34 1.04 -20.55 1.05 -17.75 1.06 C-16.78 1.07 -15.81 1.08 -14.82 1.09 C-13.88 1.09 -12.95 1.09 -11.98 1.1 C-10.7 1.11 -10.7 1.11 -9.38 1.11 C-6.13 0.96 -3.27 0 0 0 Z " fill="#C3C3C3" transform="translate(290,276)"/>
<path d="M0 0 C4.98 1.51 8.24 4.56 12 8 C8.54 9.15 8.03 8.9 4.88 7.38 C1.16 5.43 1.16 5.43 0 2.25 C0 1.51 0 0.76 0 0 Z " fill="#D4603A" transform="translate(185,193)"/>
<path d="M0 0 C8.35 1.33 8.35 1.33 11.06 4.12 C11.37 4.74 11.68 5.36 12 6 C7.12 6.35 4.23 5.42 0 3 C0 2.01 0 1.02 0 0 Z " fill="#DF552C" transform="translate(183,171)"/>
<path d="M0 0 C3.3 1.98 6.6 3.96 10 6 C9.34 6.66 8.68 7.32 8 8 C6.68 8 5.36 8 4 8 C4 7.34 4 6.68 4 6 C3.34 6 2.68 6 2 6 C1.67 6.99 1.34 7.98 1 9 C0.67 6.03 0.34 3.06 0 0 Z " fill="#E0E0E0" transform="translate(106,217)"/>
<path d="M0 0 C0.66 0.33 1.32 0.66 2 1 C0.69 5.23 -0.94 9.07 -3 13 C-4.28 10.9 -5.04 9.55 -4.88 7.06 C-3.7 4.3 -1.95 2.26 0 0 Z " fill="#1D1D1D" transform="translate(344,198)"/>
<path d="M0 0 C0.99 0.33 1.98 0.66 3 1 C2.34 2.98 1.68 4.96 1 7 C-0.98 7.33 -2.96 7.66 -5 8 C-5.33 7.01 -5.66 6.02 -6 5 C-1.61 1 -1.61 1 0 0 Z " fill="#121212" transform="translate(284,194)"/>
<path d="M0 0 C1 3 1 3 0 5.12 C-2.9 7.84 -5.07 7.81 -9 8 C-11.71 7.79 -14.32 7.42 -17 7 C-17 6.67 -17 6.34 -17 6 C-15.79 5.85 -15.79 5.85 -14.55 5.7 C-6.46 4.7 -6.46 4.7 0 0 Z " fill="#360D07" transform="translate(293,172)"/>
<path d="M0 0 C0.99 0.33 1.98 0.66 3 1 C2.98 1.78 2.96 2.57 2.94 3.38 C2.81 5.98 2.81 5.98 4 8 C3.34 7.85 2.67 7.69 1.99 7.54 C-1.6 6.89 -5.18 6.65 -8.81 6.44 C-9.85 6.37 -9.85 6.37 -10.91 6.31 C-12.61 6.2 -14.3 6.1 -16 6 C-16 5.67 -16 5.34 -16 5 C-11.05 4.67 -6.1 4.34 -1 4 C-0.67 2.68 -0.34 1.36 0 0 Z " fill="#404040" transform="translate(246,291)"/>
<path d="M0 0 C0.33 0.99 0.66 1.98 1 3 C0.67 3.66 0.34 4.32 0 5 C-0.66 5 -1.32 5 -2 5 C-2 5.66 -2 6.32 -2 7 C-2.8 7.12 -3.61 7.25 -4.44 7.38 C-5.71 7.68 -5.71 7.68 -7 8 C-7.33 8.66 -7.66 9.32 -8 10 C-9.32 9.67 -10.64 9.34 -12 9 C-8.04 6.03 -4.08 3.06 0 0 Z " fill="#191919" transform="translate(327,265)"/>
<path d="M0 0 C0.99 0 1.98 0 3 0 C3 2.64 3 5.28 3 8 C0.06 7.19 0.06 7.19 -3 6 C-3.33 5.01 -3.66 4.02 -4 3 C-2.68 2.34 -1.36 1.68 0 1 C0 0.67 0 0.34 0 0 Z " fill="#EFEFEF" transform="translate(233,255)"/>
<path d="M0 0 C2.02 3.03 2.99 5.61 4.12 9.06 C4.48 10.13 4.83 11.19 5.2 12.29 C6 15 6 15 6 17 C3 16 3 16 1.81 14.25 C0.89 11.7 0.85 9.69 1 7 C0.34 7 -0.32 7 -1 7 C-0.67 4.69 -0.34 2.38 0 0 Z " fill="#DCDCDC" transform="translate(124,190)"/>
<path d="M0 0 C0.66 0 1.32 0 2 0 C1.36 5.14 0.32 9.99 -1 15 C-2.06 13.19 -2.06 13.19 -3 11 C-2.67 10.01 -2.34 9.02 -2 8 C-2.39 5.86 -2.39 5.86 -3 4 C-2.34 4 -1.68 4 -1 4 C-0.67 2.68 -0.34 1.36 0 0 Z " fill="#171717" transform="translate(348,183)"/>
<path d="M0 0 C1.98 0 3.96 0 6 0 C6.33 0.99 6.66 1.98 7 3 C7.99 2.67 8.98 2.34 10 2 C10.66 2.33 11.32 2.66 12 3 C12.62 5.06 12.62 5.06 13 7 C8.17 5.59 4.28 3.57 0 1 C0 0.67 0 0.34 0 0 Z " fill="#CFD0D1" transform="translate(185,161)"/>
<path d="M0 0 C0.99 0.66 1.98 1.32 3 2 C1.71 3.17 0.42 4.34 -0.88 5.5 C-1.59 6.15 -2.31 6.8 -3.05 7.47 C-5 9 -5 9 -7 9 C-6.82 6.62 -6.3 5.3 -4.6 3.62 C-3.09 2.38 -1.55 1.19 0 0 Z " fill="#181818" transform="translate(295,144)"/>
<path d="M0 0 C0 0.99 0 1.98 0 3 C0.99 3.33 1.98 3.66 3 4 C3 3.34 3 2.68 3 2 C5.31 2 7.62 2 10 2 C7.38 3.75 5.44 4.65 2.5 5.62 C1.73 5.89 0.95 6.15 0.16 6.41 C-2 7 -2 7 -5 7 C-3.71 4.12 -2.34 2.13 0 0 Z " fill="#4B0F07" transform="translate(202,109)"/>
<path d="M0 0 C1.32 0.99 2.64 1.98 4 3 C3.22 4.34 2.42 5.67 1.62 7 C1.18 7.74 0.74 8.49 0.29 9.25 C-0.14 9.83 -0.56 10.41 -1 11 C-1.66 11 -2.32 11 -3 11 C-3.33 9.35 -3.66 7.7 -4 6 C-3.01 6 -2.02 6 -1 6 C-0.67 4.02 -0.34 2.04 0 0 Z " fill="#E7E7E7" transform="translate(117,238)"/>
<path d="M0 0 C0 3 0 3 -0.56 5.5 C-1.22 8.12 -1.22 8.12 0 11 C0.66 11.33 1.32 11.66 2 12 C-1.91 12 -3.12 10.49 -6 8 C-4.02 5.36 -2.04 2.72 0 0 Z " fill="#BF613F" transform="translate(182,222)"/>
<path d="M0 0 C1.32 0.33 2.64 0.66 4 1 C4.33 3.31 4.66 5.62 5 8 C4.34 8 3.68 8 3 8 C2.67 7.01 2.34 6.02 2 5 C0.68 6.98 -0.64 8.96 -2 11 C-3 8 -3 8 -2 5 C-1.34 5 -0.68 5 0 5 C0 3.35 0 1.7 0 0 Z " fill="#1D1E1E" transform="translate(303,164)"/>
<path d="M0 0 C1.11 0.94 2.21 1.87 3.31 2.81 C3.93 3.33 4.54 3.86 5.18 4.39 C6.85 5.87 8.44 7.4 10 9 C9.36 9.12 8.72 9.25 8.06 9.38 C7.38 9.58 6.7 9.79 6 10 C5.67 10.66 5.34 11.32 5 12 C5 11.01 5 10.02 5 9 C4.69 7.66 4.37 6.32 4 5 C2.35 5 0.7 5 -1 5 C-0.67 3.35 -0.34 1.7 0 0 Z " fill="#E6E6E6" transform="translate(140,222)"/>
<path d="M0 0 C-1.37 3.16 -1.99 3.99 -5 6 C-5 4.68 -5 3.36 -5 2 C-8.96 2 -12.92 2 -17 2 C-17 1.67 -17 1.34 -17 1 C-15.1 0.83 -13.21 0.66 -11.31 0.5 C-10.26 0.41 -9.2 0.31 -8.11 0.22 C-5.39 0.03 -2.72 -0.04 0 0 Z " fill="#4C0E06" transform="translate(185,218)"/>
<path d="M0 0 C0.99 0.33 1.98 0.66 3 1 C-0.82 5.4 -3.47 6.81 -9 8 C-2.92 1.75 -2.92 1.75 0 0 Z " fill="#E4E4E4" transform="translate(277,244)"/>
<path d="M0 0 C8.45 6.15 8.45 6.15 12 10 C10.35 10 8.7 10 7 10 C7 9.34 7 8.68 7 8 C6.4 7.94 5.8 7.88 5.19 7.81 C2.1 6.66 1.41 4.89 0 2 C0 1.34 0 0.68 0 0 Z " fill="#D06443" transform="translate(173,183)"/>
<path d="M0 0 C2.93 2.85 5.64 5.65 8 9 C5 10 5 10 2 9 C0.29 5.68 0 3.82 0 0 Z " fill="#202020" transform="translate(178,276)"/>
<path d="M0 0 C0.66 0.66 1.32 1.32 2 2 C1.97 4.73 1.44 7.3 1 10 C0.67 8.68 0.34 7.36 0 6 C-1.32 6 -2.64 6 -4 6 C-4 4.68 -4 3.36 -4 2 C-3.01 2 -2.02 2 -1 2 C-0.67 1.34 -0.34 0.68 0 0 Z " fill="#E0E0E0" transform="translate(232,273)"/>
<path d="M0 0 C3.91 1.16 6.87 2.36 10 5 C9.34 6.32 8.68 7.64 8 9 C6.66 7.69 5.33 6.38 4 5.06 C2.89 3.97 2.89 3.97 1.75 2.85 C0 1 0 1 0 0 Z " fill="#DCDCDC" transform="translate(139,258)"/>
<path d="M0 0 C0 0.99 0 1.98 0 3 C-1.41 3.53 -2.83 4.05 -4.25 4.56 C-5.04 4.85 -5.83 5.14 -6.64 5.44 C-9.19 6.05 -10.55 5.85 -13 5 C-11.21 4.16 -9.42 3.33 -7.62 2.5 C-6.63 2.04 -5.63 1.57 -4.6 1.09 C-2 0 -2 0 0 0 Z " fill="#444444" transform="translate(276,263)"/>
<path d="M0 0 C1.48 0.99 1.48 0.99 3 2 C2.67 2.66 2.34 3.32 2 4 C1.67 4 1.34 4 1 4 C0.67 9.94 0.34 15.88 0 22 C-0.33 22 -0.66 22 -1 22 C-1.03 18.52 -1.05 15.04 -1.06 11.56 C-1.07 10.57 -1.08 9.58 -1.09 8.55 C-1.09 7.61 -1.09 6.66 -1.1 5.69 C-1.1 4.82 -1.11 3.94 -1.11 3.04 C-1 1 -1 1 0 0 Z " fill="#430904" transform="translate(119,82)"/>
<path d="M0 0 C-1.58 4.27 -4.51 6.27 -8 9 C-8 7.68 -8 6.36 -8 5 C-2.77 0 -2.77 0 0 0 Z " fill="#E2E2E2" transform="translate(333,258)"/>
<path d="M0 0 C0.66 0.66 1.32 1.32 2 2 C1.62 4.62 1.62 4.62 1 7 C1.99 7 2.98 7 4 7 C4 7.66 4 8.32 4 9 C2.68 9 1.36 9 0 9 C-1.77 10.92 -1.77 10.92 -3 13 C-2.52 8.29 -2.03 4.33 0 0 Z " fill="#1A1A1A" transform="translate(119,133)"/>
<path d="M0 0 C2.57 2.57 2.54 4.48 3 8 C0.62 8.62 0.62 8.62 -2 9 C-2.66 8.34 -3.32 7.68 -4 7 C-3.01 6.67 -2.02 6.34 -1 6 C-0.67 4.02 -0.34 2.04 0 0 Z " fill="#181818" transform="translate(301,258)"/>
<path d="M0 0 C2.57 3.85 2.55 6.43 3 11 C2.34 11 1.68 11 1 11 C1 10.34 1 9.68 1 9 C0.34 9 -0.32 9 -1 9 C-2.03 6.21 -2.05 5.13 -1.06 2.25 C-0.71 1.51 -0.36 0.76 0 0 Z " fill="#1B1B1B" transform="translate(107,226)"/>
<path d="M0 0 C-3.42 3.15 -6.44 3.56 -11 4 C-7 -0.14 -5.7 -1.35 0 0 Z " fill="#DD5328" transform="translate(290,173)"/>
<path d="M0 0 C0.33 0 0.66 0 1 0 C1 3.3 1 6.6 1 10 C0.01 10 -0.98 10 -2 10 C-2.25 3.38 -2.25 3.38 0 0 Z " fill="#1C1C1C" transform="translate(312,250)"/>
<path d="M0 0 C0.99 0.66 1.98 1.32 3 2 C2.38 4.38 2.38 4.38 1 7 C-2.12 8.31 -2.12 8.31 -5 9 C-3.35 6.03 -1.7 3.06 0 0 Z " fill="#1A1A1A" transform="translate(305,174)"/>
<path d="M0 0 C1.11 0.6 2.23 1.2 3.38 1.81 C4.31 2.32 4.31 2.32 5.27 2.83 C7 4 7 4 9 7 C7.35 7.33 5.7 7.66 4 8 C4 7.01 4 6.02 4 5 C3.34 5 2.68 5 2 5 C1.34 3.35 0.68 1.7 0 0 Z " fill="#FCE7D8" transform="translate(178,232)"/>
<path d="M0 0 C3.29 3.11 5.84 6.02 8 10 C7.34 10.66 6.68 11.32 6 12 C6 11.01 6 10.02 6 9 C5.34 9 4.68 9 4 9 C4 8.34 4 7.68 4 7 C3.34 7 2.68 7 2 7 C1.34 4.69 0.68 2.38 0 0 Z " fill="#3A0C05" transform="translate(134,100)"/>
<path d="M0 0 C3.69 0.88 3.69 0.88 7 2 C2.91 4.73 2.91 4.73 0 5 C-1.75 3.56 -1.75 3.56 -3 2 C-2.01 1.34 -1.02 0.68 0 0 Z " fill="#121212" transform="translate(192,289)"/>
<path d="M0 0 C3.88 4.75 3.88 4.75 5 7 C4.34 7 3.68 7 3 7 C2.67 7.99 2.34 8.98 2 10 C1.67 10 1.34 10 1 10 C0.64 8.71 0.29 7.42 -0.06 6.12 C-0.36 5.05 -0.36 5.05 -0.66 3.95 C-1 2 -1 2 0 0 Z " fill="#1B1B1B" transform="translate(354,243)"/>
<path d="M0 0 C1.32 0.66 2.64 1.32 4 2 C4 2.99 4 3.98 4 5 C1.69 5 -0.62 5 -3 5 C-2.01 3.35 -1.02 1.7 0 0 Z " fill="#171717" transform="translate(349,239)"/>
<path d="M0 0 C1.32 0.33 2.64 0.66 4 1 C4 3 4 3 2.12 5 C1.42 5.66 0.72 6.32 0 7 C-0.66 7.66 -1.32 8.32 -2 9 C-2.33 7.68 -2.66 6.36 -3 5 C-2.34 5 -1.68 5 -1 5 C-0.67 3.35 -0.34 1.7 0 0 Z " fill="#E5E5E5" transform="translate(347,236)"/>
<path d="M0 0 C0.76 0.21 1.53 0.41 2.31 0.62 C-0.54 2.95 -3.23 4.38 -6.69 5.62 C-6.38 3.75 -6.38 3.75 -5.69 1.62 C-2.69 -0.38 -2.69 -0.38 0 0 Z " fill="#111110" transform="translate(281.6875,154.375)"/>
<path d="M0 0 C-3.3 2.64 -6.6 5.28 -10 8 C-10 4.06 -8.57 2.87 -6 0 C-4 -1 -4 -1 0 0 Z " fill="#C45638" transform="translate(212,102)"/>
<path d="M0 0 C-1.98 2.31 -3.96 4.62 -6 7 C-6.66 6.67 -7.32 6.34 -8 6 C-8 5.34 -8 4.68 -8 4 C-7.34 4 -6.68 4 -6 4 C-6 2.68 -6 1.36 -6 0 C-3 -1 -3 -1 0 0 Z " fill="#D8D8D8" transform="translate(274,307)"/>
<path d="M0 0 C-0.33 0.99 -0.66 1.98 -1 3 C-3.31 3.33 -5.62 3.66 -8 4 C-8 3.01 -8 2.02 -8 1 C-2.25 -1.12 -2.25 -1.12 0 0 Z " fill="#E8E8E8" transform="translate(279,288)"/>
<path d="M0 0 C2.31 0.33 4.62 0.66 7 1 C7.33 1.99 7.66 2.98 8 4 C8.99 4.66 9.98 5.32 11 6 C10.67 6.66 10.34 7.32 10 8 C8.33 6.86 6.66 5.71 5 4.56 C4.07 3.92 3.14 3.29 2.19 2.63 C1.47 2.09 0.74 1.55 0 1 C0 0.67 0 0.34 0 0 Z " fill="#D1674B" transform="translate(183,235)"/>
<path d="M0 0 C0 0.99 0 1.98 0 3 C-1.98 3.66 -3.96 4.32 -6 5 C-6.66 3.68 -7.32 2.36 -8 1 C-5.11 0.17 -3.11 0 0 0 Z " fill="#1B1B1B" transform="translate(277,291)"/>
<path d="M0 0 C0 0.99 0 1.98 0 3 C-0.66 3 -1.32 3 -2 3 C-2 3.66 -2 4.32 -2 5 C-4.31 4.67 -6.62 4.34 -9 4 C-3 0 -3 0 0 0 Z " fill="#212121" transform="translate(229,288)"/>
<path d="M0 0 C1 2 1 2 0.06 5.12 C-0.29 6.07 -0.64 7.02 -1 8 C-1.99 7.67 -2.98 7.34 -4 7 C-4.33 5.35 -4.66 3.7 -5 2 C-3.35 1.34 -1.7 0.68 0 0 Z " fill="#1E1E1E" transform="translate(112,155)"/>
<path d="M0 0 C2.97 1.98 2.97 1.98 6 4 C5.01 4.5 5.01 4.5 4 5 C3.67 5.66 3.34 6.32 3 7 C1.35 5.35 -0.3 3.7 -2 2 C-1.34 2 -0.68 2 0 2 C0 1.34 0 0.68 0 0 Z " fill="#1F1F1F" transform="translate(257,299)"/>
<path d="M0 0 C2.47 0.99 2.47 0.99 5 2 C5 2.99 5 3.98 5 5 C-0.75 4.25 -0.75 4.25 -3 2 C-2.01 2 -1.02 2 0 2 C0 1.34 0 0.68 0 0 Z " fill="#E2E2E2" transform="translate(194,286)"/>
<path d="M0 0 C0.66 0.66 1.32 1.32 2 2 C1.04 2.77 1.04 2.77 0.06 3.56 C-2.56 6.66 -2.69 9.02 -3 13 C-3.33 13 -3.66 13 -4 13 C-4 10.03 -4 7.06 -4 4 C-2.68 3.34 -1.36 2.68 0 2 C0 1.34 0 0.68 0 0 Z " fill="#363636" transform="translate(243,267)"/>
<path d="M0 0 C3 2 3 2 3.51 4.38 C3.57 5.29 3.63 6.19 3.69 7.12 C3.75 8.04 3.82 8.95 3.89 9.88 C3.92 10.58 3.96 11.28 4 12 C1.49 9.49 0.95 7.39 0 4 C0 2.68 0 1.36 0 0 Z " fill="#CF5B3E" transform="translate(134,177)"/>
<path d="M0 0 C2.46 3.69 3.01 6.7 4 11 C2.68 10.34 1.36 9.68 0 9 C0 6.03 0 3.06 0 0 Z " fill="#441009" transform="translate(107,86)"/>
<path d="M0 0 C4.62 0 9.24 0 14 0 C11.64 2.36 10.22 2.49 7 3 C7 2.34 7 1.68 7 1 C4.69 1 2.38 1 0 1 C0 0.67 0 0.34 0 0 Z " fill="#A05740" transform="translate(219,89)"/>
<path d="M0 0 C-0.99 0 -1.98 0 -3 0 C-3.33 1.32 -3.66 2.64 -4 4 C-5.65 3.67 -7.3 3.34 -9 3 C-8.01 2.67 -7.02 2.34 -6 2 C-6 1.34 -6 0.68 -6 0 C-3.51 -1.25 -2.59 -0.78 0 0 Z " fill="#242424" transform="translate(217,318)"/>
<path d="M0 0 C2.97 0.99 5.94 1.98 9 3 C5 5 5 5 2 5 C0.31 3 0.31 3 -1 1 C-0.67 0.67 -0.34 0.34 0 0 Z " fill="#D8D8D8" transform="translate(258,305)"/>
<path d="M0 0 C2 1 2 1 4 4 C3.01 4.33 2.02 4.66 1 5 C-1.69 3.56 -1.69 3.56 -4 2 C-2.12 0.94 -2.12 0.94 0 0 Z " fill="#DEDEDE" transform="translate(182,265)"/>
<path d="M0 0 C2.88 -0.12 2.88 -0.12 6 0 C6.66 0.66 7.32 1.32 8 2 C6.68 2.99 5.36 3.98 4 5 C2.68 3.35 1.36 1.7 0 0 Z " fill="#C0C1C0" transform="translate(219,251)"/>
<path d="M0 0 C3.69 0.5 5.6 1.1 8 4 C6.68 4.33 5.36 4.66 4 5 C2.68 3.35 1.36 1.7 0 0 Z " fill="#DBDAD9" transform="translate(175,246)"/>
<path d="M0 0 C0.99 0 1.98 0 3 0 C2.25 5.75 2.25 5.75 0 8 C-0.8 4.71 -1.1 3.29 0 0 Z " fill="#DBDBDB" transform="translate(359,239)"/>
<path d="M0 0 C1.69 2 1.69 2 3 4 C1.25 4.75 1.25 4.75 -1 5 C-3.25 3.06 -3.25 3.06 -5 1 C-3 0 -3 0 0 0 Z " fill="#222222" transform="translate(113,217)"/>
<path d="M0 0 C3.88 2.62 3.88 2.62 5 6 C3.35 6 1.7 6 0 6 C-1.12 2.25 -1.12 2.25 0 0 Z " fill="#262626" transform="translate(208,174)"/>
<path d="M0 0 C0.33 0 0.66 0 1 0 C1 3.3 1 6.6 1 10 C0.67 8.68 0.34 7.36 0 6 C-0.99 6 -1.98 6 -3 6 C-1.12 1.12 -1.12 1.12 0 0 Z " fill="#E1E1E1" transform="translate(303,137)"/>
<path d="M0 0 C2.97 0 5.94 0 9 0 C8.67 0.99 8.34 1.98 8 3 C5.69 3.33 3.38 3.66 1 4 C1.99 3.34 2.98 2.68 4 2 C2.68 1.34 1.36 0.68 0 0 Z " fill="#451F14" transform="translate(227,88)"/>
<path d="M0 0 C2.38 0.25 2.38 0.25 5 1 C6.31 3.06 6.31 3.06 7 5 C6.01 5 5.02 5 4 5 C1.81 2.5 1.81 2.5 0 0 Z " fill="#DADADA" transform="translate(121,217)"/>
<path d="M0 0 C0.99 0.33 1.98 0.66 3 1 C2.67 2.32 2.34 3.64 2 5 C1.01 5 0.02 5 -1 5 C-1.33 5.99 -1.66 6.98 -2 8 C-1.12 1.12 -1.12 1.12 0 0 Z " fill="#262626" transform="translate(304,146)"/>
<path d="M0 0 C-2.55 2.35 -3.71 2.98 -7.25 3.19 C-8.16 3.13 -9.06 3.06 -10 3 C-9 1 -9 1 -6.69 -0.19 C-3.88 -1.04 -2.7 -1 0 0 Z " fill="#CFCFCF" transform="translate(230,298)"/>
<path d="M0 0 C0.33 1.32 0.66 2.64 1 4 C-1.49 5.25 -2.41 4.78 -5 4 C-4.67 3.01 -4.34 2.02 -4 1 C-2 0 -2 0 0 0 Z " fill="#1C1C1C" transform="translate(283,288)"/>
<path d="M0 0 C-0.33 0.66 -0.66 1.32 -1 2 C-3.06 2.62 -3.06 2.62 -5 3 C-5 2.01 -5 1.02 -5 0 C-5.99 -0.33 -6.98 -0.66 -8 -1 C-4.38 -2.21 -3.36 -1.54 0 0 Z " fill="#E4E4E4" transform="translate(190,263)"/>
<path d="M0 0 C2 1 2 1 3 2 C3.99 2 4.98 2 6 2 C5.67 2.66 5.34 3.32 5 4 C4.01 4 3.02 4 2 4 C2 4.99 2 5.98 2 7 C1.34 6.67 0.68 6.34 0 6 C0 4.02 0 2.04 0 0 Z " fill="#212121" transform="translate(311,232)"/>
<path d="M0 0 C-1.65 1.65 -3.3 3.3 -5 5 C-5 4.01 -5 3.02 -5 2 C-5.66 1.67 -6.32 1.34 -7 1 C-3.38 -1.12 -3.38 -1.12 0 0 Z " fill="#BCBCBC" transform="translate(297,274)"/>
<path d="M0 0 C-1.65 1.65 -3.3 3.3 -5 5 C-5.33 3.35 -5.66 1.7 -6 0 C-3 -1 -3 -1 0 0 Z " fill="#E7E7E7" transform="translate(345,246)"/>
<path d="M0 0 C0.99 0 1.98 0 3 0 C3.33 1.65 3.66 3.3 4 5 C2.68 4.67 1.36 4.34 0 4 C0 2.68 0 1.36 0 0 Z " fill="#DBDBDB" transform="translate(295,231)"/>
<path d="M0 0 C3.96 1.98 3.96 1.98 8 4 C7.01 4.66 6.02 5.32 5 6 C3.06 5.25 3.06 5.25 1 4 C0.67 2.68 0.34 1.36 0 0 Z " fill="#E5E5E5" transform="translate(150,231)"/>
<path d="M0 0 C0 3 0 3 -2.5 5.69 C-3.32 6.45 -4.15 7.21 -5 8 C-5.66 7.34 -6.32 6.68 -7 6 C-4.69 4.02 -2.38 2.04 0 0 Z " fill="#252626" transform="translate(299,183)"/>
<path d="M0 0 C1.98 0 3.96 0 6 0 C6.33 0.66 6.66 1.32 7 2 C4.29 3.35 1.99 3.07 -1 3 C-0.67 2.01 -0.34 1.02 0 0 Z " fill="#B9422A" transform="translate(196,115)"/>
</svg>
