<?xml version="1.0" encoding="UTF-8"?>
<!-- Generator: https://ezgif.com/png-to-svg -->
<svg version="1.1" xmlns="http://www.w3.org/2000/svg" width="512" height="512" viewBox="39.344 42.519 158.312 158.312" preserveAspectRatio="xMidYMid meet">
<path d="M0 0 C13.71 11.43 13.71 11.43 16 16 C16.82 16.01 17.65 16.02 18.5 16.03 C26.25 16.13 34.01 16.23 41.76 16.34 C45.75 16.39 49.74 16.45 53.73 16.5 C57.57 16.54 61.42 16.6 65.26 16.65 C66.73 16.67 68.2 16.69 69.67 16.71 C71.72 16.73 73.78 16.76 75.83 16.79 C77 16.81 78.17 16.83 79.37 16.84 C82 17 82 17 83 18 C83.09 20.18 83.12 22.36 83.11 24.54 C83.11 25.22 83.11 25.91 83.11 26.61 C83.11 28.88 83.11 31.14 83.1 33.41 C83.1 34.98 83.09 36.55 83.09 38.11 C83.09 42.25 83.08 46.38 83.07 50.52 C83.06 54.73 83.05 58.95 83.05 63.17 C83.04 71.44 83.02 79.72 83 88 C79.68 86.44 77.44 84.79 75 82 C75 81.34 75 80.68 75 80 C74.34 80 73.68 80 73 80 C72.09 78.7 71.2 77.38 70.32 76.06 C67.87 73.21 66.52 72.12 62.83 71.25 C58.84 71 54.9 70.97 50.91 71.04 C49.45 71.03 47.98 71.02 46.51 71.01 C42.67 70.99 38.83 71.01 34.98 71.05 C30.3 71.08 25.61 71.06 20.92 71.05 C17.28 71.04 13.64 71.04 10 71.06 C8.7 71.07 7.4 71.07 6.06 71.08 C4.91 71.09 3.76 71.1 2.58 71.1 C0 71 0 71 -1 70 C-1.1 67.86 -1.13 65.71 -1.13 63.57 C-1.13 62.9 -1.13 62.23 -1.13 61.53 C-1.14 59.3 -1.14 57.07 -1.13 54.84 C-1.13 53.3 -1.13 51.76 -1.14 50.21 C-1.14 46.98 -1.14 43.74 -1.13 40.5 C-1.12 36.34 -1.13 32.18 -1.13 28.02 C-1.14 24.83 -1.14 21.64 -1.13 18.46 C-1.13 16.92 -1.13 15.39 -1.14 13.85 C-1.14 11.71 -1.13 9.57 -1.13 7.43 C-1.13 6.21 -1.13 4.99 -1.13 3.73 C-1 1 -1 1 0 0 Z M17 20 C16.98 24.25 16.96 28.51 16.95 32.76 C16.94 34.21 16.93 35.66 16.92 37.11 C16.91 39.18 16.91 41.26 16.9 43.34 C16.9 44.59 16.89 45.84 16.89 47.13 C16.67 49.9 16.67 49.9 18 51 C20.21 51.07 22.42 51.08 24.63 51.07 C26.01 51.08 27.39 51.09 28.77 51.1 C30.94 51.12 33.11 51.13 35.28 51.1 C47.31 50.98 47.31 50.98 51.42 53.46 C53.18 55.21 54.59 56.96 56 59 C56.71 59.79 57.42 60.58 58.14 61.4 C59.27 62.73 60.39 64.07 61.52 65.4 C62.93 67.11 62.93 67.11 65 68 C66.07 64.52 66.11 61.33 66.1 57.7 C66.09 56.5 66.09 55.29 66.09 54.05 C66.08 52.8 66.07 51.54 66.06 50.25 C66.06 48.98 66.05 47.71 66.05 46.4 C66.04 43.27 66.02 40.13 66 37 C65.1 37.04 64.2 37.08 63.27 37.11 C34.35 38.05 34.35 38.05 27.2 31.43 C24.84 28.73 22.88 26.05 21 23 C20.34 22.01 19.68 21.02 19 20 C18.34 20 17.68 20 17 20 Z " fill="#0320F2" transform="translate(79,51)"/>
<path d="M0 0 C1.24 -0 2.48 -0.01 3.75 -0.01 C5.11 -0.01 6.46 -0.01 7.82 -0 C9.2 -0 10.59 -0.01 11.97 -0.01 C14.88 -0.01 17.78 -0.01 20.68 -0 C24.41 0 28.14 0 31.87 -0 C34.73 -0.01 37.59 -0.01 40.45 -0 C41.82 -0 43.2 -0 44.57 -0.01 C46.49 -0.01 48.41 -0 50.32 0 C51.42 0 52.51 0 53.64 0 C56.1 0.13 56.1 0.13 57.1 1.13 C57.19 3.31 57.21 5.49 57.21 7.67 C57.21 8.35 57.21 9.03 57.21 9.74 C57.21 12.01 57.2 14.27 57.2 16.54 C57.19 18.11 57.19 19.68 57.19 21.24 C57.19 25.38 57.18 29.51 57.17 33.65 C57.16 37.86 57.15 42.08 57.15 46.3 C57.14 54.57 57.12 62.85 57.1 71.13 C53.77 69.57 51.54 67.92 49.1 65.13 C49.1 64.47 49.1 63.81 49.1 63.13 C48.44 63.13 47.78 63.13 47.1 63.13 C45.41 61.41 45.41 61.41 43.53 59.19 C42.91 58.46 42.29 57.73 41.66 56.98 C41.14 56.37 40.63 55.76 40.1 55.13 C39.77 54.8 39.44 54.47 39.1 54.13 C39.08 51.61 39.13 49.11 39.22 46.59 C39.25 45.46 39.25 45.46 39.29 44.31 C39.37 41.9 39.45 39.48 39.53 37.07 C39.59 35.43 39.64 33.8 39.69 32.17 C39.82 28.15 39.96 24.14 40.1 20.13 C39.2 20.2 38.31 20.28 37.38 20.35 C10.1 22.29 10.1 22.29 2.93 17.19 C-2.02 12.66 -5.78 7.52 -7.9 1.13 C-5.18 -0.23 -3.04 0 0 0 Z " fill="#FEFEFE" transform="translate(104.902587890625,67.87060546875)"/>
<path d="M0 0 C2.3 1.87 3.68 3.36 5 6 C5.42 13.56 5.42 13.56 3 17 C-0.51 19.34 -1.86 19.5 -6 19 C-8.81 17.44 -8.81 17.44 -11 15 C-11.99 11.36 -12.23 8.92 -11.31 5.25 C-8.52 0.46 -5.5 -0.8 0 0 Z M-5 5 C-7.33 7.78 -7.33 7.78 -6.62 10.69 C-6.42 11.45 -6.21 12.21 -6 13 C-4.02 13.5 -4.02 13.5 -2 14 C0.37 11.15 0.37 11.15 -0.38 7.81 C-0.58 6.88 -0.79 5.96 -1 5 C-2.32 5 -3.64 5 -5 5 Z " fill="#081FE4" transform="translate(103,141)"/>
<path d="M0 0 C1.65 0 3.3 0 5 0 C6.32 2.31 7.64 4.62 9 7 C9.33 4.69 9.66 2.38 10 0 C11.32 0 12.64 0 14 0 C14 5.61 14 11.22 14 17 C12.35 17 10.7 17 9 17 C7.68 14.36 6.36 11.72 5 9 C4.67 11.64 4.34 14.28 4 17 C2.68 17 1.36 17 0 17 C0 11.39 0 5.78 0 0 Z " fill="#FDFDFD" transform="translate(131,174)"/>
<path d="M0 0 C1.59 -0.06 3.18 -0.12 4.81 -0.19 C6.15 -0.24 6.15 -0.24 7.52 -0.29 C10 0 10 0 11.85 1.35 C13 3 13 3 12.62 5.62 C12.42 6.41 12.21 7.19 12 8 C12.33 8.33 12.66 8.66 13 9 C13.19 11.94 13.19 11.94 13 15 C11 17 11 17 8.4 17.2 C5.6 17.13 2.8 17.07 0 17 C0 11.39 0 5.78 0 0 Z M4 3 C4 4.32 4 5.64 4 7 C5.32 6.67 6.64 6.34 8 6 C8 5.01 8 4.02 8 3 C6.68 3 5.36 3 4 3 Z M4 10 C4 11.32 4 12.64 4 14 C5.65 13.67 7.3 13.34 9 13 C9 12.01 9 11.02 9 10 C7.35 10 5.7 10 4 10 Z " fill="#FEFEFE" transform="translate(52,174)"/>
<path d="M0 0 C1.46 -0.03 2.92 -0.05 4.38 -0.06 C5.19 -0.07 6 -0.09 6.84 -0.1 C9 0 9 0 11 1 C10.67 2.32 10.34 3.64 10 5 C8.02 5 6.04 5 4 5 C4 5.66 4 6.32 4 7 C6.97 7.5 6.97 7.5 10 8 C9.67 9.32 9.34 10.64 9 12 C8.38 12.04 7.76 12.08 7.12 12.12 C6.42 12.41 5.72 12.7 5 13 C3.7 16 3.7 16 3 19 C1.68 19 0.36 19 -1 19 C-3.42 14.17 -2.36 7.35 -1 2.31 C-0.5 1.17 -0.5 1.17 0 0 Z " fill="#0820DD" transform="translate(116,141)"/>
<path d="M0 0 C1.98 0 3.96 0 6 0 C6.87 2.43 7.72 4.87 8.56 7.31 C8.81 8 9.06 8.69 9.31 9.4 C11.11 14.66 11.11 14.66 10 18 C8.06 17.69 8.06 17.69 6 17 C5.67 16.01 5.34 15.02 5 14 C3.68 14 2.36 14 1 14 C0.34 15.32 -0.32 16.64 -1 18 C-2.32 17.67 -3.64 17.34 -5 17 C-1.92 5.48 -1.92 5.48 0 0 Z M2 5 C1.67 6.65 1.34 8.3 1 10 C1.99 10 2.98 10 4 10 C4 8.35 4 6.7 4 5 C3.34 5 2.68 5 2 5 Z " fill="#FEFEFE" transform="translate(114,174)"/>
<path d="M0 0 C1.65 0 3.3 0 5 0 C7.45 5.67 9.46 10.82 10 17 C8.68 17 7.36 17 6 17 C5.67 15.68 5.34 14.36 5 13 C3.35 13 1.7 13 0 13 C-0.33 14.32 -0.66 15.64 -1 17 C-2.32 17 -3.64 17 -5 17 C-3.96 10.93 -2.66 5.56 0 0 Z M2 4 C1.67 5.98 1.34 7.96 1 10 C1.99 10 2.98 10 4 10 C3.67 8.02 3.34 6.04 3 4 C2.67 4 2.34 4 2 4 Z " fill="#FEFEFE" transform="translate(76,174)"/>
<path d="M0 0 C3.3 0 6.6 0 10 0 C10.33 0.99 10.66 1.98 11 3 C10.67 3.66 10.34 4.32 10 5 C8.02 5 6.04 5 4 5 C5.95 6.95 7.53 7.85 10 9 C9.67 9.99 9.34 10.98 9 12 C7.35 12 5.7 12 4 12 C3.67 14.31 3.34 16.62 3 19 C1.68 19 0.36 19 -1 19 C-2.68 12.28 -2.57 6.42 0 0 Z " fill="#0720E7" transform="translate(135,141)"/>
<path d="M0 0 C3.63 0 7.26 0 11 0 C11 1.32 11 2.64 11 4 C8.69 4 6.38 4 4 4 C4.33 4.66 4.66 5.32 5 6 C7.53 6.66 7.53 6.66 10 7 C10 7.99 10 8.98 10 10 C8.02 10 6.04 10 4 10 C4 11.32 4 12.64 4 14 C6.31 14 8.62 14 11 14 C11 14.99 11 15.98 11 17 C7.37 17 3.74 17 0 17 C0 11.39 0 5.78 0 0 Z " fill="#FEFEFE" transform="translate(174,174)"/>
<path d="M0 0 C0 1.32 0 2.64 0 4 C-0.78 3.94 -1.57 3.88 -2.38 3.81 C-3.67 3.91 -3.67 3.91 -5 4 C-7.29 7.44 -7.18 8.99 -7 13 C-6.24 13 -5.47 13 -4.69 13 C-2.79 13 -0.9 13 1 13 C1 14.32 1 15.64 1 17 C-5.24 18.35 -5.24 18.35 -8.88 16.69 C-11 15 -11 15 -12 13 C-12.37 8.52 -12.52 6.03 -10.5 2 C-6.88 -0.89 -4.55 -0.38 0 0 Z " fill="#FEFEFE" transform="translate(165,174)"/>
<path d="M0 0 C1.32 0 2.64 0 4 0 C4 4.62 4 9.24 4 14 C6.31 14 8.62 14 11 14 C11 14.99 11 15.98 11 17 C7.37 17 3.74 17 0 17 C0 11.39 0 5.78 0 0 Z " fill="#FEFEFE" transform="translate(93,174)"/>
<path d="M0 0 C0.66 1.32 1.32 2.64 2 4 C1.01 3.67 0.02 3.34 -1 3 C-3.36 2.85 -5.71 2.75 -8.07 2.68 C-8.76 2.66 -9.44 2.64 -10.15 2.62 C-12.33 2.56 -14.51 2.5 -16.69 2.44 C-18.17 2.39 -19.65 2.35 -21.13 2.31 C-24.75 2.2 -28.38 2.1 -32 2 C-32 1.67 -32 1.34 -32 1 C-21.32 -0.07 -10.73 -0.1 0 0 Z " fill="#0E23C0" transform="translate(128,102)"/>
<path d="M0 0 C0.33 0 0.66 0 1 0 C1 2.64 1 5.28 1 8 C-0.32 8 -1.64 8 -3 8 C-2.67 6.68 -2.34 5.36 -2 4 C-1.34 4.33 -0.68 4.66 0 5 C0 3.35 0 1.7 0 0 Z " fill="#1126CF" transform="translate(137,152)"/>
</svg>
