<?xml version="1.0" encoding="UTF-8"?>
<!-- Generator: https://ezgif.com/png-to-svg -->
<svg version="1.1" xmlns="http://www.w3.org/2000/svg" width="512" height="512" viewBox="-159.92 -49.32 920.64 920.64" preserveAspectRatio="xMidYMid meet">
<path d="M0 0 C3.63 0 7.26 0 11 0 C11.33 0.99 11.66 1.98 12 3 C13.65 3.33 15.3 3.66 17 4 C17 4.66 17 5.32 17 6 C18.13 6.27 19.27 6.54 20.44 6.81 C21.61 7.2 22.79 7.6 24 8 C24.33 8.99 24.66 9.98 25 11 C26.65 11.33 28.3 11.66 30 12 C30 12.66 30 13.32 30 14 C30.84 14.07 31.68 14.15 32.54 14.22 C36.82 15.19 39.76 17.03 43.38 19.44 C44.02 19.85 44.66 20.25 45.32 20.67 C46.92 21.72 48.47 22.85 50 24 C50 24.66 50 25.32 50 26 C51.09 26.27 52.19 26.54 53.31 26.81 C56.75 27.92 57.81 28.37 60 31 C62.82 33.04 62.82 33.04 65.56 34 C68 35 68 35 70 37 C70.99 37.33 71.98 37.66 73 38 C75.26 39.28 77.48 40.58 79.69 41.94 C80.29 42.3 80.9 42.66 81.53 43.03 C83.05 43.96 84.53 44.98 86 46 C86 46.66 86 47.32 86 48 C86.78 48.31 87.57 48.62 88.38 48.94 C91.25 50.1 93.4 51.27 96 53 C97.66 53.69 99.32 54.36 101 55 C101 55.66 101 56.32 101 57 C102.65 57.33 104.3 57.66 106 58 C106 58.66 106 59.32 106 60 C106.93 60.19 107.86 60.37 108.81 60.56 C114.41 62.14 119.42 65.49 124 69 C124 69.66 124 70.32 124 71 C125.65 71.33 127.3 71.66 129 72 C129 72.66 129 73.32 129 74 C131.65 75.08 134.28 76.09 137 77 C137 77.66 137 78.32 137 79 C137.93 79.1 138.86 79.21 139.81 79.31 C143.14 80.03 143.9 80.5 146 83 C146.99 83.66 147.98 84.32 149 85 C149.99 85.66 150.98 86.32 152 87 C152.74 87.29 153.49 87.58 154.25 87.88 C163.29 91.57 163.29 91.57 165 95 C165.66 95.33 166.32 95.66 167 96 C167.99 96.66 168.98 97.32 170 98 C171.18 98.46 171.18 98.46 172.38 98.94 C175.14 100.06 177.54 101.31 180 103 C180 103.66 180 104.32 180 105 C180.66 105.07 181.33 105.15 182.01 105.22 C186.07 106.28 189.26 108.26 192.81 110.44 C193.51 110.85 194.2 111.25 194.91 111.67 C196.65 112.72 198.33 113.85 200 115 C200 115.66 200 116.32 200 117 C201.65 117.33 203.3 117.66 205 118 C205 118.66 205 119.32 205 120 C206.13 120.27 207.27 120.54 208.44 120.81 C209.61 121.2 210.79 121.6 212 122 C212.33 122.99 212.66 123.98 213 125 C214.65 125.33 216.3 125.66 218 126 C218 126.66 218 127.32 218 128 C219.65 128.33 221.3 128.66 223 129 C223 129.66 223 130.32 223 131 C223.76 131.1 224.53 131.21 225.31 131.31 C228.27 132.07 228.96 132.87 231 135 C232.05 135.25 232.05 135.25 233.12 135.5 C233.74 135.66 234.36 135.83 235 136 C235.33 136.99 235.66 137.98 236 139 C237.65 139.33 239.3 139.66 241 140 C241 140.66 241 141.32 241 142 C241.56 142.16 242.11 142.32 242.69 142.48 C248.31 144.2 253.32 146.38 258 150 C258.33 150.66 258.66 151.32 259 152 C260.65 152.7 262.32 153.36 264 154 C265.79 154.96 267.56 155.96 269.31 157 C270.2 157.52 271.08 158.03 271.99 158.56 C272.65 159.04 273.32 159.51 274 160 C274 160.66 274 161.32 274 162 C274.68 162.08 275.37 162.17 276.07 162.25 C279.74 163.19 282.65 164.94 285.81 166.94 C286.41 167.3 287.01 167.66 287.62 168.03 C289.12 168.96 290.57 169.97 292 171 C292 171.66 292 172.32 292 173 C293.55 173.37 293.55 173.37 295.12 173.75 C299.03 174.69 301.92 176.43 305 179 C305.61 181.85 305.8 183.87 305.74 186.72 C305.75 187.5 305.76 188.29 305.76 189.1 C305.78 191.75 305.75 194.4 305.73 197.04 C305.73 198.96 305.74 200.87 305.75 202.78 C305.76 208.05 305.74 213.31 305.71 218.58 C305.69 224.25 305.7 229.93 305.7 235.6 C305.71 246.72 305.69 257.84 305.65 268.96 C305.61 281.9 305.61 294.84 305.6 307.78 C305.6 330.85 305.56 353.93 305.51 377.01 C305.46 399.42 305.42 421.84 305.41 444.25 C305.4 444.94 305.4 445.64 305.4 446.35 C305.4 451.9 305.4 457.46 305.39 463.01 C305.37 487.61 305.35 512.21 305.31 536.8 C305.31 540.68 305.3 544.56 305.3 548.44 C305.28 563.15 305.26 577.87 305.22 592.58 C305.21 597.05 305.21 601.52 305.2 605.99 C305.19 611.12 305.18 616.25 305.17 621.39 C305.16 623.25 305.16 625.11 305.16 626.98 C305.16 629.5 305.15 632.02 305.14 634.53 C305.14 635.27 305.14 636.01 305.14 636.77 C305.11 641.77 305.11 641.77 304 644 C301.44 644.62 301.44 644.62 299 645 C298.67 645.99 298.34 646.98 298 648 C297.4 648.14 296.8 648.29 296.19 648.44 C293.81 648.85 293.81 648.85 292 651 C289.87 653.13 288.85 653.41 286 654 C285.67 654.66 285.34 655.32 285 656 C283.67 656.33 282.33 656.67 281 657 C280.67 657.66 280.34 658.32 280 659 C278.67 659.35 277.34 659.69 276 660 C273.06 661.89 273.06 661.89 270.73 663.86 C267.73 666.21 264.62 668.2 261.38 670.19 C260.8 670.54 260.23 670.9 259.64 671.26 C257.11 672.82 254.83 674.06 252 675 C250.65 675.98 249.32 676.98 248 678 C244.64 680.38 242.01 682.11 238 683 C237.67 683.66 237.34 684.32 237 685 C236.38 685.14 235.76 685.29 235.12 685.44 C232.92 685.82 232.92 685.82 231.56 687.5 C229.51 689.47 227.76 689.63 225 690 C225 690.66 225 691.32 225 692 C223.35 692.33 221.7 692.66 220 693 C220 693.66 220 694.32 220 695 C218.35 695.33 216.7 695.66 215 696 C215 696.66 215 697.32 215 698 C213.35 698.33 211.7 698.66 210 699 C209.67 699.99 209.34 700.98 209 702 C205.44 703.19 205.44 703.19 202 704 C202 704.66 202 705.32 202 706 C201.01 706.33 200.02 706.66 199 707 C197.33 708.33 195.66 709.66 194 711 C192.02 712.27 190.02 713.5 188 714.69 C186.99 715.29 185.98 715.89 184.94 716.51 C182.21 717.9 180.01 718.58 177 719 C176.67 719.99 176.34 720.98 176 722 C174.82 722.19 174.82 722.19 173.62 722.38 C170.86 722.79 170.86 722.79 169 725 C165.71 727.93 163.42 729.5 159 730 C159 730.66 159 731.32 159 732 C157.35 732.33 155.7 732.66 154 733 C154 733.66 154 734.32 154 735 C153.01 735.33 152.02 735.66 151 736 C149.33 737.33 147.66 738.66 146 740 C143.98 741.27 141.94 742.5 139.88 743.69 C138.84 744.29 137.81 744.89 136.74 745.51 C134 747 134 747 131 748 C129.32 749.32 127.66 750.66 126 752 C123.42 753.74 121.57 754.9 118.5 755.44 C114.63 756.31 112.2 758.75 109.5 761.56 C106.1 764.82 102.62 766.34 98 767 C98 767.66 98 768.32 98 769 C97.01 769.33 96.02 769.66 95 770 C94.2 770.66 93.39 771.32 92.56 772 C90.09 773.93 88.92 774.32 86 775 C84.98 775.98 83.98 776.98 83 778 C79.69 780.26 76.97 781.43 73 782 C72.67 782.99 72.34 783.98 72 785 C68.02 787.6 64.78 789.42 60 790 C60 790.66 60 791.32 60 792 C58.35 792.33 56.7 792.66 55 793 C55 793.66 55 794.32 55 795 C54.01 795.33 53.02 795.66 52 796 C50.33 797.32 48.66 798.66 47 800 C44.83 801.43 42.65 802.82 40.44 804.19 C38.76 805.23 38.76 805.23 37.06 806.29 C34.53 807.7 32.74 808.36 30 809 C29.67 809.66 29.34 810.32 29 811 C28.38 811.14 27.76 811.29 27.12 811.44 C24.92 811.82 24.92 811.82 23.56 813.5 C21.51 815.47 19.76 815.63 17 816 C17 816.66 17 817.32 17 818 C15.35 818.33 13.7 818.66 12 819 C11.67 819.99 11.34 820.98 11 822 C7.37 822 3.74 822 0 822 C-0.33 821.01 -0.66 820.02 -1 819 C-2.65 818.67 -4.3 818.34 -6 818 C-6 817.34 -6 816.68 -6 816 C-6.99 815.76 -7.99 815.53 -9.01 815.28 C-13.39 814.03 -17.02 811.88 -20.88 809.5 C-21.55 809.1 -22.23 808.69 -22.92 808.28 C-27.87 805.27 -27.87 805.27 -29 803 C-29.66 802.67 -30.32 802.34 -31 802 C-31.99 801.34 -32.98 800.68 -34 800 C-34.66 799.67 -35.32 799.34 -36 799 C-36.99 798.34 -37.98 797.68 -39 797 C-39.85 796.67 -40.69 796.34 -41.56 796 C-44 795 -44 795 -46 793 C-46.99 792.67 -47.98 792.34 -49 792 C-50.54 791.15 -52.07 790.27 -53.58 789.38 C-54.49 788.84 -55.39 788.3 -56.33 787.75 C-57.29 787.17 -58.26 786.59 -59.25 786 C-60.23 785.42 -61.21 784.83 -62.23 784.23 C-64.21 783.05 -66.2 781.86 -68.18 780.68 C-70.7 779.18 -73.23 777.69 -75.75 776.21 C-77.11 775.41 -78.46 774.61 -79.81 773.81 C-80.74 773.27 -80.74 773.27 -81.69 772.72 C-85.89 770.23 -85.89 770.23 -87 768 C-87.66 767.67 -88.32 767.34 -89 767 C-89.99 766.34 -90.98 765.68 -92 765 C-92.74 764.71 -93.49 764.42 -94.25 764.12 C-97.71 762.71 -100.78 760.9 -104 759 C-104 758.34 -104 757.68 -104 757 C-106.65 755.92 -109.28 754.91 -112 754 C-112 753.34 -112 752.68 -112 752 C-113.65 751.67 -115.3 751.34 -117 751 C-117 750.34 -117 749.68 -117 749 C-117.76 748.9 -118.53 748.79 -119.31 748.69 C-122.27 747.93 -122.96 747.13 -125 745 C-125.7 744.84 -126.4 744.67 -127.12 744.5 C-127.74 744.34 -128.36 744.17 -129 744 C-129.33 743.01 -129.66 742.02 -130 741 C-131.98 740.67 -133.96 740.34 -136 740 C-136.33 739.01 -136.66 738.02 -137 737 C-138.65 736.67 -140.3 736.34 -142 736 C-142 735.34 -142 734.68 -142 734 C-143.65 733.67 -145.3 733.34 -147 733 C-147 732.34 -147 731.68 -147 731 C-148.13 730.73 -149.27 730.46 -150.44 730.19 C-152.2 729.6 -152.2 729.6 -154 729 C-154.33 728.01 -154.66 727.02 -155 726 C-157.07 725.09 -157.07 725.09 -159.5 724.5 C-161.97 723.84 -161.97 723.84 -164 723 C-164.33 722.01 -164.66 721.02 -165 720 C-166.09 719.83 -166.09 719.83 -167.2 719.67 C-170.18 718.96 -172.24 717.91 -174.86 716.35 C-175.75 715.82 -176.64 715.29 -177.55 714.74 C-178.46 714.19 -179.37 713.63 -180.31 713.06 C-181.24 712.51 -182.18 711.96 -183.13 711.39 C-184.01 710.86 -184.89 710.33 -185.8 709.79 C-186.61 709.3 -187.41 708.81 -188.24 708.31 C-188.82 707.88 -189.4 707.45 -190 707 C-190 706.34 -190 705.68 -190 705 C-191.65 704.67 -193.3 704.34 -195 704 C-195 703.34 -195 702.68 -195 702 C-196.65 701.67 -198.3 701.34 -200 701 C-200 700.34 -200 699.68 -200 699 C-200.93 698.81 -201.86 698.63 -202.81 698.44 C-208.41 696.86 -213.42 693.51 -218 690 C-218 689.34 -218 688.68 -218 688 C-219.65 687.67 -221.3 687.34 -223 687 C-223 686.34 -223 685.68 -223 685 C-224.65 684.67 -226.3 684.34 -228 684 C-228 683.34 -228 682.68 -228 682 C-229.13 681.73 -230.27 681.46 -231.44 681.19 C-232.61 680.8 -233.79 680.4 -235 680 C-235.5 678.51 -235.5 678.51 -236 677 C-236.87 676.91 -237.74 676.81 -238.63 676.71 C-242.35 675.92 -244.7 674.63 -247.88 672.56 C-249.33 671.64 -249.33 671.64 -250.8 670.69 C-251.53 670.13 -252.25 669.58 -253 669 C-253 668.34 -253 667.68 -253 667 C-254.09 666.73 -255.19 666.46 -256.31 666.19 C-259.76 665.08 -260.75 664.58 -263 662 C-263.99 661.67 -264.98 661.34 -266 661 C-267.75 660.06 -269.48 659.07 -271.19 658.06 C-272.09 657.54 -272.99 657.01 -273.92 656.47 C-274.95 655.74 -274.95 655.74 -276 655 C-276 654.34 -276 653.68 -276 653 C-277.65 652.67 -279.3 652.34 -281 652 C-285.62 649.36 -290.24 646.72 -295 644 C-295 490.55 -295 337.1 -295 179 C-294.01 178.67 -293.02 178.34 -292 178 C-291.5 177.01 -291.5 177.01 -291 176 C-289.67 175.67 -288.33 175.33 -287 175 C-286.5 174.01 -286.5 174.01 -286 173 C-285.4 172.88 -284.8 172.75 -284.19 172.62 C-281.81 172.14 -281.81 172.14 -280 170 C-277.87 167.87 -276.85 167.59 -274 167 C-273.67 166.34 -273.34 165.68 -273 165 C-271.67 164.67 -270.33 164.33 -269 164 C-268.67 163.34 -268.34 162.68 -268 162 C-267.07 161.78 -267.07 161.78 -266.12 161.56 C-263.95 161.18 -263.95 161.18 -262.68 159.66 C-260.64 157.64 -258.47 156.34 -256 154.88 C-255.13 154.36 -254.27 153.84 -253.38 153.3 C-251 152 -251 152 -248 151 C-246.32 149.68 -244.66 148.34 -243 147 C-240.61 145.42 -238.67 144.16 -235.88 143.5 C-233.5 142.87 -232.69 141.76 -231 140 C-227.69 137.74 -224.97 136.57 -221 136 C-220.67 135.01 -220.34 134.02 -220 133 C-216.44 131.81 -216.44 131.81 -213 131 C-213 130.34 -213 129.68 -213 129 C-210.99 127.53 -210.99 127.53 -208.31 125.94 C-207.44 125.41 -206.57 124.88 -205.68 124.34 C-203.07 123.03 -200.87 122.42 -198 122 C-198 121.34 -198 120.68 -198 120 C-197.01 119.67 -196.02 119.34 -195 119 C-193.33 117.68 -191.66 116.34 -190 115 C-187.83 113.57 -185.65 112.18 -183.44 110.81 C-182.32 110.12 -181.21 109.42 -180.06 108.71 C-177 107 -177 107 -174.79 106.45 C-172.47 105.87 -171.67 104.68 -170 103 C-167.62 101.33 -165.12 99.87 -162.62 98.38 C-161.97 97.97 -161.31 97.56 -160.62 97.14 C-157.1 95.02 -154.16 93.47 -150 93 C-150 92.34 -150 91.68 -150 91 C-149.01 90.67 -148.02 90.34 -147 90 C-145.32 88.68 -143.66 87.34 -142 86 C-138.61 83.71 -135.98 82.75 -132 82 C-131.34 81.34 -130.68 80.68 -130 80 C-127.29 77.71 -125.38 76.13 -122 75 C-120.32 73.68 -118.65 72.35 -117 71 C-115.16 69.74 -113.31 68.51 -111.44 67.31 C-110.51 66.71 -109.58 66.11 -108.62 65.49 C-106.3 64.17 -104.59 63.5 -102 63 C-98.93 62.22 -98.93 62.22 -97 60 C-96.01 59.67 -95.02 59.34 -94 59 C-92.06 57.12 -92.06 57.12 -90.69 55.44 C-88.54 53.61 -86.75 53.37 -84 53 C-84 52.34 -84 51.68 -84 51 C-81.52 50.51 -81.52 50.51 -79 50 C-79 49.34 -79 48.68 -79 48 C-77.87 47.73 -76.73 47.46 -75.56 47.19 C-74.39 46.8 -73.21 46.4 -72 46 C-71.67 45.01 -71.34 44.02 -71 43 C-68.92 41.51 -66.88 40.18 -64.69 38.88 C-64.11 38.52 -63.52 38.16 -62.92 37.79 C-59.98 36 -57.36 34.7 -54 34 C-53.57 33.53 -53.13 33.05 -52.69 32.56 C-51 31 -51 31 -47.38 30 C-46.26 29.67 -45.15 29.34 -44 29 C-43.67 28.01 -43.34 27.02 -43 26 C-39.02 23.4 -35.78 21.58 -31 21 C-31 20.34 -31 19.68 -31 19 C-30.01 18.67 -29.02 18.34 -28 18 C-26.33 16.68 -24.66 15.34 -23 14 C-20.83 12.57 -18.65 11.18 -16.44 9.81 C-15.32 9.12 -14.21 8.42 -13.06 7.71 C-10.53 6.3 -8.74 5.64 -6 5 C-5.67 4.34 -5.34 3.68 -5 3 C-3.67 2.67 -2.33 2.33 -1 2 C-0.67 1.34 -0.34 0.68 0 0 Z " fill="#01685F" transform="translate(295,0)"/>
<path d="M0 0 C0 206.25 0 412.5 0 625 C-6.19 621.9 -12.05 618.89 -17.88 615.25 C-19.45 614.28 -21.02 613.31 -22.6 612.34 C-23.46 611.81 -24.31 611.28 -25.2 610.73 C-30.56 607.42 -35.93 604.15 -41.31 600.88 C-41.9 600.52 -42.49 600.16 -43.1 599.79 C-52.86 593.85 -62.7 588.06 -72.57 582.32 C-82.16 576.73 -91.61 570.96 -100.98 565 C-106.25 561.65 -111.59 558.56 -117.1 555.6 C-122.04 552.88 -126.84 549.92 -131.65 546.97 C-134.12 545.46 -136.6 543.95 -139.07 542.44 C-140.32 541.68 -141.56 540.92 -142.81 540.16 C-147.78 537.13 -152.76 534.12 -157.75 531.12 C-158.51 530.67 -159.26 530.22 -160.04 529.75 C-165.34 526.58 -170.65 523.43 -175.96 520.29 C-176.66 519.87 -177.37 519.45 -178.1 519.02 C-181.62 516.93 -185.15 514.84 -188.67 512.76 C-209.64 500.36 -209.64 500.36 -212 498 C-212.12 496.05 -212.17 494.09 -212.19 492.14 C-212.21 490.86 -212.22 489.58 -212.24 488.26 C-212.25 486.82 -212.27 485.37 -212.28 483.93 C-212.3 482.42 -212.32 480.9 -212.34 479.39 C-212.38 475.2 -212.43 471.01 -212.47 466.82 C-212.49 464.15 -212.52 461.47 -212.55 458.79 C-212.93 423.85 -213.15 388.91 -213.33 353.97 C-213.35 349.54 -213.37 345.1 -213.39 340.67 C-213.4 339.57 -213.41 338.46 -213.41 337.33 C-213.51 319.5 -213.69 301.67 -213.91 283.84 C-214.13 265.53 -214.26 247.22 -214.3 228.91 C-214.33 217.62 -214.43 206.33 -214.62 195.04 C-214.74 187.3 -214.78 179.55 -214.74 171.8 C-214.73 167.33 -214.75 162.87 -214.87 158.4 C-215.58 132.41 -215.58 132.41 -209.69 125.15 C-204.08 120.3 -197.88 117.19 -191.08 114.35 C-186.17 112.2 -181.69 109.37 -177.12 106.56 C-175.32 105.5 -173.5 104.43 -171.69 103.38 C-163.2 98.36 -154.82 93.15 -146.43 87.97 C-136.65 81.93 -126.83 75.97 -117 70 C-115.89 69.33 -114.79 68.66 -113.65 67.96 C-108.9 65.08 -104.15 62.2 -99.4 59.32 C-92.1 54.88 -84.8 50.44 -77.5 46 C-69.11 40.89 -60.71 35.79 -52.31 30.69 C-51.73 30.34 -51.15 29.98 -50.56 29.62 C-44.44 25.91 -38.33 22.2 -32.22 18.49 C-29.67 16.95 -27.13 15.41 -24.58 13.86 C-23.38 13.13 -22.17 12.4 -20.97 11.67 C-19.29 10.65 -17.6 9.63 -15.92 8.61 C-14.39 7.68 -14.39 7.68 -12.83 6.73 C-10.31 5.19 -7.82 3.61 -5.33 2.02 C-2 0 -2 0 0 0 Z " fill="#FEFEFE" transform="translate(274,99)"/>
<path d="M0 0 C3.38 1.35 6.03 2.49 9.05 4.33 C9.82 4.79 10.59 5.25 11.38 5.73 C12.61 6.48 12.61 6.48 13.88 7.25 C14.75 7.78 15.63 8.31 16.54 8.86 C19.36 10.57 22.18 12.28 25 14 C26.82 15.1 28.63 16.21 30.45 17.31 C34.24 19.62 38.04 21.93 41.83 24.24 C48.45 28.27 55.07 32.29 61.69 36.31 C62.87 37.03 64.06 37.75 65.24 38.47 C67.64 39.92 70.03 41.37 72.42 42.83 C75.95 44.97 79.49 47.12 83.02 49.26 C83.88 49.79 83.88 49.79 84.77 50.32 C87.68 52.09 90.59 53.86 93.49 55.62 C98.76 58.82 104.03 62.02 109.3 65.21 C112.24 67 115.18 68.78 118.12 70.56 C118.7 70.91 119.28 71.27 119.88 71.63 C128.34 76.76 136.77 81.93 145.19 87.12 C154.6 92.93 164.06 98.65 173.56 104.33 C181.53 109.1 189.46 113.94 197.38 118.81 C198.49 119.5 199.61 120.19 200.76 120.9 C208.57 125.72 208.57 125.72 212 128 C212.37 130.49 212.37 130.49 212.36 133.71 C212.37 135.53 212.37 135.53 212.37 137.39 C212.36 138.74 212.35 140.09 212.34 141.45 C212.34 142.86 212.34 144.28 212.34 145.7 C212.34 149.56 212.33 153.42 212.3 157.28 C212.29 161.31 212.28 165.34 212.28 169.37 C212.27 177.01 212.25 184.64 212.22 192.28 C212.18 200.97 212.17 209.66 212.15 218.35 C212.12 236.24 212.06 254.12 212 272 C193.52 272 175.04 272 156 272 C156 234.71 156 197.42 156 159 C154.35 158.34 152.7 157.68 151 157 C149.46 156.17 147.94 155.31 146.44 154.42 C145.57 153.91 144.7 153.39 143.81 152.86 C142.42 152.03 142.42 152.03 141 151.19 C140.03 150.61 139.05 150.03 138.05 149.43 C130.68 145.04 123.38 140.55 116.11 136.02 C109.28 131.77 102.4 127.62 95.5 123.5 C84.97 117.21 74.51 110.79 64.1 104.3 C61.75 102.84 59.37 101.42 57 100 C56.67 240.25 56.34 380.5 56 525 C66.13 519.04 76.23 513.07 86.25 506.94 C97.41 500.12 108.66 493.46 119.97 486.88 C130.67 480.72 130.67 480.72 141.1 474.13 C143 473 143 473 145.8 471.87 C149.25 470.24 151.45 468.86 154 466 C155.63 459.66 155.42 453.45 155.29 446.94 C155.29 445.07 155.3 443.19 155.31 441.32 C155.33 436.41 155.28 431.49 155.22 426.58 C155.16 420.68 155.18 414.77 155.18 408.87 C155.19 399.91 155.08 390.96 155 382 C138.83 382 122.66 382 106 382 C106 363.85 106 345.7 106 327 C140.98 327 175.96 327 212 327 C212.36 369.64 212.36 369.64 212.44 387.49 C212.49 399.82 212.56 412.16 212.68 424.49 C212.77 433.47 212.83 442.45 212.85 451.43 C212.86 456.19 212.89 460.94 212.95 465.7 C213.01 470.17 213.03 474.65 213.02 479.13 C213.02 480.77 213.04 482.41 213.07 484.05 C213.32 496.47 213.32 496.47 210.05 500.26 C207.75 501.82 205.56 502.93 203 504 C201.8 504.71 200.61 505.44 199.44 506.19 C198.3 506.86 197.17 507.53 196 508.21 C195.37 508.59 194.74 508.96 194.09 509.34 C192.75 510.13 191.42 510.92 190.08 511.71 C186.5 513.82 182.93 515.94 179.36 518.05 C178.29 518.69 178.29 518.69 177.19 519.33 C170.86 523.08 164.55 526.84 158.25 530.62 C157.26 531.22 156.27 531.81 155.25 532.42 C146.71 537.56 138.2 542.74 129.69 547.92 C122.16 552.49 114.61 557.03 107.01 561.48 C99.23 566.03 91.51 570.68 83.79 575.33 C78.69 578.39 73.6 581.44 68.5 584.5 C66.37 585.78 64.24 587.05 62.11 588.33 C51.69 594.59 41.27 600.84 30.84 607.09 C29.99 607.61 29.13 608.12 28.25 608.65 C26.56 609.66 24.88 610.67 23.19 611.69 C19.27 614.03 15.35 616.39 11.45 618.75 C10.74 619.18 10.04 619.6 9.32 620.04 C8.01 620.83 6.71 621.62 5.4 622.41 C1.11 625 1.11 625 0 625 C0 418.75 0 212.5 0 0 Z " fill="#FEFEFE" transform="translate(325,99)"/>
<path d="M0 0 C3.63 0 7.26 0 11 0 C11.33 0.99 11.66 1.98 12 3 C13.65 3.33 15.3 3.66 17 4 C17 4.66 17 5.32 17 6 C18.13 6.27 19.27 6.54 20.44 6.81 C21.61 7.2 22.79 7.6 24 8 C24.33 8.99 24.66 9.98 25 11 C26.65 11.33 28.3 11.66 30 12 C30 12.66 30 13.32 30 14 C30.84 14.07 31.68 14.15 32.54 14.22 C36.82 15.19 39.76 17.03 43.38 19.44 C44.02 19.85 44.66 20.25 45.32 20.67 C46.92 21.72 48.47 22.85 50 24 C50 24.66 50 25.32 50 26 C51.09 26.27 52.19 26.54 53.31 26.81 C56.75 27.92 57.81 28.37 60 31 C62.82 33.04 62.82 33.04 65.56 34 C68 35 68 35 70 37 C70.99 37.33 71.98 37.66 73 38 C75.26 39.28 77.48 40.58 79.69 41.94 C80.29 42.3 80.9 42.66 81.53 43.03 C83.05 43.96 84.53 44.98 86 46 C86 46.66 86 47.32 86 48 C86.78 48.31 87.57 48.62 88.38 48.94 C91.25 50.1 93.4 51.27 96 53 C97.66 53.69 99.32 54.36 101 55 C101 55.66 101 56.32 101 57 C102.65 57.33 104.3 57.66 106 58 C106 58.66 106 59.32 106 60 C106.93 60.19 107.86 60.37 108.81 60.56 C114.41 62.14 119.42 65.49 124 69 C124 69.66 124 70.32 124 71 C125.65 71.33 127.3 71.66 129 72 C129 72.66 129 73.32 129 74 C131.65 75.08 134.28 76.09 137 77 C137 77.66 137 78.32 137 79 C137.93 79.1 138.86 79.21 139.81 79.31 C143.14 80.03 143.9 80.5 146 83 C146.99 83.66 147.98 84.32 149 85 C149.99 85.66 150.98 86.32 152 87 C152.74 87.29 153.49 87.58 154.25 87.88 C163.29 91.57 163.29 91.57 165 95 C165.66 95.33 166.32 95.66 167 96 C167.99 96.66 168.98 97.32 170 98 C171.18 98.46 171.18 98.46 172.38 98.94 C175.14 100.06 177.54 101.31 180 103 C180 103.66 180 104.32 180 105 C180.66 105.07 181.33 105.15 182.01 105.22 C186.07 106.28 189.26 108.26 192.81 110.44 C193.51 110.85 194.2 111.25 194.91 111.67 C196.65 112.72 198.33 113.85 200 115 C200 115.66 200 116.32 200 117 C201.65 117.33 203.3 117.66 205 118 C205 118.66 205 119.32 205 120 C206.13 120.27 207.27 120.54 208.44 120.81 C209.61 121.2 210.79 121.6 212 122 C212.33 122.99 212.66 123.98 213 125 C214.65 125.33 216.3 125.66 218 126 C218 126.66 218 127.32 218 128 C219.65 128.33 221.3 128.66 223 129 C223 129.66 223 130.32 223 131 C223.76 131.1 224.53 131.21 225.31 131.31 C228.27 132.07 228.96 132.87 231 135 C232.05 135.25 232.05 135.25 233.12 135.5 C233.74 135.66 234.36 135.83 235 136 C235.33 136.99 235.66 137.98 236 139 C237.65 139.33 239.3 139.66 241 140 C241 140.66 241 141.32 241 142 C241.56 142.16 242.11 142.32 242.69 142.48 C248.31 144.2 253.32 146.38 258 150 C258.33 150.66 258.66 151.32 259 152 C260.65 152.7 262.32 153.36 264 154 C265.79 154.96 267.56 155.96 269.31 157 C270.2 157.52 271.08 158.03 271.99 158.56 C272.65 159.04 273.32 159.51 274 160 C274 160.66 274 161.32 274 162 C274.68 162.08 275.37 162.17 276.07 162.25 C279.74 163.19 282.65 164.94 285.81 166.94 C286.41 167.3 287.01 167.66 287.62 168.03 C289.12 168.96 290.57 169.97 292 171 C292 171.66 292 172.32 292 173 C293.55 173.37 293.55 173.37 295.12 173.75 C299.03 174.69 301.92 176.43 305 179 C305.61 181.85 305.8 183.87 305.74 186.72 C305.75 187.5 305.76 188.29 305.76 189.1 C305.78 191.75 305.75 194.4 305.73 197.04 C305.73 198.96 305.74 200.87 305.75 202.78 C305.76 208.05 305.74 213.31 305.71 218.58 C305.69 224.25 305.7 229.93 305.7 235.6 C305.71 246.72 305.69 257.84 305.65 268.96 C305.61 281.9 305.61 294.84 305.6 307.78 C305.6 330.85 305.56 353.93 305.51 377.01 C305.46 399.42 305.42 421.84 305.41 444.25 C305.4 444.94 305.4 445.64 305.4 446.35 C305.4 451.9 305.4 457.46 305.39 463.01 C305.37 487.61 305.35 512.21 305.31 536.8 C305.31 540.68 305.3 544.56 305.3 548.44 C305.28 563.15 305.26 577.87 305.22 592.58 C305.21 597.05 305.21 601.52 305.2 605.99 C305.19 611.12 305.18 616.25 305.17 621.39 C305.16 623.25 305.16 625.11 305.16 626.98 C305.16 629.5 305.15 632.02 305.14 634.53 C305.14 635.27 305.14 636.01 305.14 636.77 C305.11 641.77 305.11 641.77 304 644 C301.44 644.62 301.44 644.62 299 645 C298.67 645.99 298.34 646.98 298 648 C297.4 648.14 296.8 648.29 296.19 648.44 C293.81 648.85 293.81 648.85 292 651 C289.87 653.13 288.85 653.41 286 654 C285.67 654.66 285.34 655.32 285 656 C283.67 656.33 282.33 656.67 281 657 C280.67 657.66 280.34 658.32 280 659 C278.67 659.35 277.34 659.69 276 660 C273.06 661.89 273.06 661.89 270.73 663.86 C267.73 666.21 264.62 668.2 261.38 670.19 C260.8 670.54 260.23 670.9 259.64 671.26 C257.11 672.82 254.83 674.06 252 675 C250.65 675.98 249.32 676.98 248 678 C244.64 680.38 242.01 682.11 238 683 C237.67 683.66 237.34 684.32 237 685 C236.38 685.14 235.76 685.29 235.12 685.44 C232.92 685.82 232.92 685.82 231.56 687.5 C229.51 689.47 227.76 689.63 225 690 C225 690.66 225 691.32 225 692 C223.35 692.33 221.7 692.66 220 693 C220 693.66 220 694.32 220 695 C218.35 695.33 216.7 695.66 215 696 C215 696.66 215 697.32 215 698 C213.35 698.33 211.7 698.66 210 699 C209.67 699.99 209.34 700.98 209 702 C205.44 703.19 205.44 703.19 202 704 C202 704.66 202 705.32 202 706 C201.01 706.33 200.02 706.66 199 707 C197.33 708.33 195.66 709.66 194 711 C192.02 712.27 190.02 713.5 188 714.69 C186.99 715.29 185.98 715.89 184.94 716.51 C182.21 717.9 180.01 718.58 177 719 C176.67 719.99 176.34 720.98 176 722 C174.82 722.19 174.82 722.19 173.62 722.38 C170.86 722.79 170.86 722.79 169 725 C165.71 727.93 163.42 729.5 159 730 C159 730.66 159 731.32 159 732 C157.35 732.33 155.7 732.66 154 733 C154 733.66 154 734.32 154 735 C153.01 735.33 152.02 735.66 151 736 C149.33 737.33 147.66 738.66 146 740 C143.98 741.27 141.94 742.5 139.88 743.69 C138.84 744.29 137.81 744.89 136.74 745.51 C134 747 134 747 131 748 C129.32 749.32 127.66 750.66 126 752 C123.42 753.74 121.57 754.9 118.5 755.44 C114.63 756.31 112.2 758.75 109.5 761.56 C106.1 764.82 102.62 766.34 98 767 C98 767.66 98 768.32 98 769 C97.01 769.33 96.02 769.66 95 770 C94.2 770.66 93.39 771.32 92.56 772 C90.09 773.93 88.92 774.32 86 775 C84.98 775.98 83.98 776.98 83 778 C79.69 780.26 76.97 781.43 73 782 C72.67 782.99 72.34 783.98 72 785 C68.02 787.6 64.78 789.42 60 790 C60 790.66 60 791.32 60 792 C58.35 792.33 56.7 792.66 55 793 C55 793.66 55 794.32 55 795 C54.01 795.33 53.02 795.66 52 796 C50.33 797.32 48.66 798.66 47 800 C44.83 801.43 42.65 802.82 40.44 804.19 C38.76 805.23 38.76 805.23 37.06 806.29 C34.53 807.7 32.74 808.36 30 809 C29.67 809.66 29.34 810.32 29 811 C28.38 811.14 27.76 811.29 27.12 811.44 C24.92 811.82 24.92 811.82 23.56 813.5 C21.51 815.47 19.76 815.63 17 816 C17 816.66 17 817.32 17 818 C15.35 818.33 13.7 818.66 12 819 C11.67 819.99 11.34 820.98 11 822 C7.37 822 3.74 822 0 822 C-0.33 821.01 -0.66 820.02 -1 819 C-2.65 818.67 -4.3 818.34 -6 818 C-6 817.34 -6 816.68 -6 816 C-6.99 815.76 -7.99 815.53 -9.01 815.28 C-13.39 814.03 -17.02 811.88 -20.88 809.5 C-21.55 809.1 -22.23 808.69 -22.92 808.28 C-27.87 805.27 -27.87 805.27 -29 803 C-29.66 802.67 -30.32 802.34 -31 802 C-31.99 801.34 -32.98 800.68 -34 800 C-34.66 799.67 -35.32 799.34 -36 799 C-36.99 798.34 -37.98 797.68 -39 797 C-39.85 796.67 -40.69 796.34 -41.56 796 C-44 795 -44 795 -46 793 C-46.99 792.67 -47.98 792.34 -49 792 C-50.54 791.15 -52.07 790.27 -53.58 789.38 C-54.49 788.84 -55.39 788.3 -56.33 787.75 C-57.29 787.17 -58.26 786.59 -59.25 786 C-60.23 785.42 -61.21 784.83 -62.23 784.23 C-64.21 783.05 -66.2 781.86 -68.18 780.68 C-70.7 779.18 -73.23 777.69 -75.75 776.21 C-77.11 775.41 -78.46 774.61 -79.81 773.81 C-80.74 773.27 -80.74 773.27 -81.69 772.72 C-85.89 770.23 -85.89 770.23 -87 768 C-87.66 767.67 -88.32 767.34 -89 767 C-89.99 766.34 -90.98 765.68 -92 765 C-92.74 764.71 -93.49 764.42 -94.25 764.12 C-97.71 762.71 -100.78 760.9 -104 759 C-104 758.34 -104 757.68 -104 757 C-106.65 755.92 -109.28 754.91 -112 754 C-112 753.34 -112 752.68 -112 752 C-113.65 751.67 -115.3 751.34 -117 751 C-117 750.34 -117 749.68 -117 749 C-117.76 748.9 -118.53 748.79 -119.31 748.69 C-122.27 747.93 -122.96 747.13 -125 745 C-125.7 744.84 -126.4 744.67 -127.12 744.5 C-127.74 744.34 -128.36 744.17 -129 744 C-129.33 743.01 -129.66 742.02 -130 741 C-131.98 740.67 -133.96 740.34 -136 740 C-136.33 739.01 -136.66 738.02 -137 737 C-138.65 736.67 -140.3 736.34 -142 736 C-142 735.34 -142 734.68 -142 734 C-143.65 733.67 -145.3 733.34 -147 733 C-147 732.34 -147 731.68 -147 731 C-148.13 730.73 -149.27 730.46 -150.44 730.19 C-152.2 729.6 -152.2 729.6 -154 729 C-154.33 728.01 -154.66 727.02 -155 726 C-157.07 725.09 -157.07 725.09 -159.5 724.5 C-161.97 723.84 -161.97 723.84 -164 723 C-164.33 722.01 -164.66 721.02 -165 720 C-166.09 719.83 -166.09 719.83 -167.2 719.67 C-170.18 718.96 -172.24 717.91 -174.86 716.35 C-175.75 715.82 -176.64 715.29 -177.55 714.74 C-178.46 714.19 -179.37 713.63 -180.31 713.06 C-181.24 712.51 -182.18 711.96 -183.13 711.39 C-184.01 710.86 -184.89 710.33 -185.8 709.79 C-186.61 709.3 -187.41 708.81 -188.24 708.31 C-188.82 707.88 -189.4 707.45 -190 707 C-190 706.34 -190 705.68 -190 705 C-191.65 704.67 -193.3 704.34 -195 704 C-195 703.34 -195 702.68 -195 702 C-196.65 701.67 -198.3 701.34 -200 701 C-200 700.34 -200 699.68 -200 699 C-200.93 698.81 -201.86 698.63 -202.81 698.44 C-208.41 696.86 -213.42 693.51 -218 690 C-218 689.34 -218 688.68 -218 688 C-219.65 687.67 -221.3 687.34 -223 687 C-223 686.34 -223 685.68 -223 685 C-224.65 684.67 -226.3 684.34 -228 684 C-228 683.34 -228 682.68 -228 682 C-229.13 681.73 -230.27 681.46 -231.44 681.19 C-232.61 680.8 -233.79 680.4 -235 680 C-235.5 678.51 -235.5 678.51 -236 677 C-236.87 676.91 -237.74 676.81 -238.63 676.71 C-242.35 675.92 -244.7 674.63 -247.88 672.56 C-249.33 671.64 -249.33 671.64 -250.8 670.69 C-251.53 670.13 -252.25 669.58 -253 669 C-253 668.34 -253 667.68 -253 667 C-254.09 666.73 -255.19 666.46 -256.31 666.19 C-259.76 665.08 -260.75 664.58 -263 662 C-263.99 661.67 -264.98 661.34 -266 661 C-267.75 660.06 -269.48 659.07 -271.19 658.06 C-272.09 657.54 -272.99 657.01 -273.92 656.47 C-274.95 655.74 -274.95 655.74 -276 655 C-276 654.34 -276 653.68 -276 653 C-277.65 652.67 -279.3 652.34 -281 652 C-285.62 649.36 -290.24 646.72 -295 644 C-295 490.55 -295 337.1 -295 179 C-294.01 178.67 -293.02 178.34 -292 178 C-291.5 177.01 -291.5 177.01 -291 176 C-289.67 175.67 -288.33 175.33 -287 175 C-286.5 174.01 -286.5 174.01 -286 173 C-285.4 172.88 -284.8 172.75 -284.19 172.62 C-281.81 172.14 -281.81 172.14 -280 170 C-277.87 167.87 -276.85 167.59 -274 167 C-273.67 166.34 -273.34 165.68 -273 165 C-271.67 164.67 -270.33 164.33 -269 164 C-268.67 163.34 -268.34 162.68 -268 162 C-267.07 161.78 -267.07 161.78 -266.12 161.56 C-263.95 161.18 -263.95 161.18 -262.68 159.66 C-260.64 157.64 -258.47 156.34 -256 154.88 C-255.13 154.36 -254.27 153.84 -253.38 153.3 C-251 152 -251 152 -248 151 C-246.32 149.68 -244.66 148.34 -243 147 C-240.61 145.42 -238.67 144.16 -235.88 143.5 C-233.5 142.87 -232.69 141.76 -231 140 C-227.69 137.74 -224.97 136.57 -221 136 C-220.67 135.01 -220.34 134.02 -220 133 C-216.44 131.81 -216.44 131.81 -213 131 C-213 130.34 -213 129.68 -213 129 C-210.99 127.53 -210.99 127.53 -208.31 125.94 C-207.44 125.41 -206.57 124.88 -205.68 124.34 C-203.07 123.03 -200.87 122.42 -198 122 C-198 121.34 -198 120.68 -198 120 C-197.01 119.67 -196.02 119.34 -195 119 C-193.33 117.68 -191.66 116.34 -190 115 C-187.83 113.57 -185.65 112.18 -183.44 110.81 C-182.32 110.12 -181.21 109.42 -180.06 108.71 C-177 107 -177 107 -174.79 106.45 C-172.47 105.87 -171.67 104.68 -170 103 C-167.62 101.33 -165.12 99.87 -162.62 98.38 C-161.97 97.97 -161.31 97.56 -160.62 97.14 C-157.1 95.02 -154.16 93.47 -150 93 C-150 92.34 -150 91.68 -150 91 C-149.01 90.67 -148.02 90.34 -147 90 C-145.32 88.68 -143.66 87.34 -142 86 C-138.61 83.71 -135.98 82.75 -132 82 C-131.34 81.34 -130.68 80.68 -130 80 C-127.29 77.71 -125.38 76.13 -122 75 C-120.32 73.68 -118.65 72.35 -117 71 C-115.16 69.74 -113.31 68.51 -111.44 67.31 C-110.51 66.71 -109.58 66.11 -108.62 65.49 C-106.3 64.17 -104.59 63.5 -102 63 C-98.93 62.22 -98.93 62.22 -97 60 C-96.01 59.67 -95.02 59.34 -94 59 C-92.06 57.12 -92.06 57.12 -90.69 55.44 C-88.54 53.61 -86.75 53.37 -84 53 C-84 52.34 -84 51.68 -84 51 C-81.52 50.51 -81.52 50.51 -79 50 C-79 49.34 -79 48.68 -79 48 C-77.87 47.73 -76.73 47.46 -75.56 47.19 C-74.39 46.8 -73.21 46.4 -72 46 C-71.67 45.01 -71.34 44.02 -71 43 C-68.92 41.51 -66.88 40.18 -64.69 38.88 C-64.11 38.52 -63.52 38.16 -62.92 37.79 C-59.98 36 -57.36 34.7 -54 34 C-53.57 33.53 -53.13 33.05 -52.69 32.56 C-51 31 -51 31 -47.38 30 C-46.26 29.67 -45.15 29.34 -44 29 C-43.67 28.01 -43.34 27.02 -43 26 C-39.02 23.4 -35.78 21.58 -31 21 C-31 20.34 -31 19.68 -31 19 C-30.01 18.67 -29.02 18.34 -28 18 C-26.33 16.68 -24.66 15.34 -23 14 C-20.83 12.57 -18.65 11.18 -16.44 9.81 C-15.32 9.12 -14.21 8.42 -13.06 7.71 C-10.53 6.3 -8.74 5.64 -6 5 C-5.67 4.34 -5.34 3.68 -5 3 C-3.67 2.67 -2.33 2.33 -1 2 C-0.67 1.34 -0.34 0.68 0 0 Z M0.41 22.03 C-0.34 22.48 -1.09 22.93 -1.86 23.4 C-2.69 23.91 -3.52 24.42 -4.38 24.94 C-5.25 25.47 -6.13 26 -7.04 26.55 C-8.98 27.73 -10.92 28.91 -12.87 30.09 C-16.1 32.06 -19.33 34.02 -22.57 35.98 C-29.72 40.32 -36.86 44.66 -44 49 C-48.83 51.94 -53.67 54.88 -58.5 57.81 C-59.09 58.17 -59.68 58.53 -60.29 58.9 C-68.29 63.76 -76.31 68.6 -84.35 73.4 C-91.58 77.74 -98.79 82.12 -106 86.5 C-114.76 91.83 -123.53 97.13 -132.33 102.4 C-140.3 107.17 -148.23 111.99 -156.17 116.82 C-162.6 120.73 -169.04 124.63 -175.5 128.5 C-182.48 132.67 -189.43 136.9 -196.38 141.12 C-205.4 146.61 -214.44 152.07 -223.5 157.5 C-231.97 162.58 -240.43 167.66 -248.88 172.78 C-250.61 173.83 -252.35 174.88 -254.09 175.93 C-256.22 177.22 -258.34 178.53 -260.44 179.86 C-262.79 181.32 -265.14 182.57 -267.64 183.74 C-273.11 186.47 -277.2 188.76 -279.32 194.7 C-280.03 199.35 -279.94 204.01 -279.88 208.71 C-279.91 210.52 -279.94 212.34 -279.98 214.15 C-280.06 219.13 -280.06 224.1 -280.05 229.08 C-280.05 234.45 -280.13 239.82 -280.2 245.19 C-280.32 255.71 -280.36 266.23 -280.37 276.74 C-280.38 285.3 -280.41 293.85 -280.46 302.4 C-280.59 326.67 -280.66 350.93 -280.65 375.2 C-280.65 376.51 -280.65 377.81 -280.65 379.16 C-280.65 381.12 -280.65 381.12 -280.65 383.13 C-280.65 404.34 -280.79 425.54 -281 446.75 C-281.21 468.54 -281.31 490.33 -281.3 512.12 C-281.29 524.35 -281.34 536.58 -281.49 548.81 C-281.63 559.22 -281.66 569.63 -281.56 580.05 C-281.52 585.36 -281.52 590.66 -281.65 595.97 C-282.96 615.72 -282.96 615.72 -276.67 633.75 C-269.99 640.61 -261.14 644.32 -252.33 647.67 C-248.1 649.36 -244.48 651.56 -240.75 654.12 C-239.53 654.9 -238.32 655.67 -237.09 656.44 C-236.46 656.84 -235.82 657.24 -235.16 657.66 C-229.5 661.17 -223.77 664.56 -218.05 667.98 C-210.54 672.47 -203.06 676.99 -195.6 681.54 C-185.78 687.52 -175.93 693.43 -166.02 699.26 C-158.45 703.71 -150.95 708.27 -143.45 712.85 C-137.42 716.53 -131.38 720.19 -125.31 723.81 C-117.08 728.74 -108.88 733.71 -100.69 738.69 C-90.11 745.12 -90.11 745.12 -79.5 751.5 C-72.42 755.74 -65.37 760.03 -58.31 764.31 C-49.46 769.7 -40.6 775.07 -31.69 780.37 C-27.31 782.99 -22.95 785.65 -18.61 788.35 C-16.05 789.95 -13.48 791.54 -10.91 793.13 C-9.64 793.91 -8.38 794.7 -7.12 795.5 C-5.36 796.61 -3.59 797.71 -1.81 798.8 C-0.79 799.44 0.24 800.08 1.29 800.74 C3.83 802.19 3.83 802.19 6.15 801.82 C9.42 800.37 12.45 798.53 15.5 796.69 C16.25 796.24 16.99 795.8 17.76 795.34 C20.18 793.9 22.59 792.45 25 791 C26.59 790.05 28.17 789.11 29.76 788.16 C39.8 782.16 49.8 776.09 59.79 770 C64.95 766.85 70.12 763.72 75.31 760.62 C82.04 756.61 88.71 752.49 95.38 748.38 C105.03 742.42 114.73 736.54 124.47 730.71 C132.27 726.05 140.05 721.35 147.81 716.62 C148.39 716.27 148.97 715.92 149.57 715.56 C153.11 713.4 156.66 711.25 160.2 709.09 C165.63 705.79 171.07 702.49 176.5 699.19 C177.09 698.83 177.68 698.47 178.28 698.1 C186.41 693.17 194.55 688.26 202.71 683.38 C209.86 679.1 216.97 674.76 224.09 670.42 C231.14 666.12 238.22 661.86 245.31 657.62 C253.76 652.57 262.18 647.47 270.58 642.32 C272.28 641.27 273.98 640.23 275.68 639.19 C276.71 638.55 277.74 637.92 278.8 637.27 C279.71 636.71 280.62 636.15 281.56 635.57 C282.77 634.79 282.77 634.79 284 634 C284.7 633.62 285.4 633.24 286.12 632.85 C288.41 630.6 288.5 629.05 288.58 625.91 C288.58 625.21 288.57 624.52 288.57 623.81 C288.58 623.07 288.6 622.32 288.61 621.56 C288.65 619.06 288.66 616.55 288.67 614.05 C288.69 612.24 288.71 610.44 288.74 608.63 C288.8 603.66 288.84 598.68 288.87 593.7 C288.91 589.44 288.95 585.17 289 580.91 C289.17 565.62 289.28 550.34 289.38 535.05 C289.38 533.85 289.39 532.64 289.4 531.4 C289.56 507.44 289.69 483.49 289.78 459.53 C289.8 454.26 289.82 448.99 289.84 443.72 C289.84 442.41 289.85 441.1 289.86 439.75 C289.94 418.55 290.14 397.35 290.38 376.15 C290.62 354.39 290.76 332.62 290.8 310.85 C290.82 298.63 290.89 286.41 291.08 274.19 C291.25 263.78 291.31 253.37 291.26 242.96 C291.23 237.64 291.25 232.34 291.39 227.03 C292.92 206.1 292.92 206.1 285.23 187.65 C278.84 181.89 271.15 178.42 263.22 175.31 C259.12 173.64 255.65 171.53 251.95 169.11 C250.89 168.47 249.84 167.83 248.75 167.17 C238.4 160.89 228.05 154.6 217.71 148.3 C206.67 141.58 195.63 134.88 184.58 128.17 C179.3 124.97 174.02 121.76 168.74 118.56 C165.83 116.79 162.91 115.02 160 113.25 C158.83 112.54 157.67 111.83 156.5 111.12 C155.63 110.6 155.63 110.6 154.75 110.06 C143.67 103.33 132.58 96.6 121.5 89.88 C120.92 89.52 120.35 89.17 119.75 88.81 C118.58 88.1 117.42 87.4 116.25 86.69 C113.34 84.92 110.44 83.16 107.53 81.39 C102.16 78.13 96.79 74.87 91.42 71.61 C88.34 69.74 85.26 67.87 82.19 66 C81.59 65.64 80.99 65.27 80.38 64.9 C74.05 61.06 67.73 57.23 61.38 53.44 C55.83 50.12 50.32 46.74 44.82 43.34 C35.08 37.33 25.33 31.35 15.5 25.5 C14.57 24.94 13.64 24.38 12.68 23.81 C11.82 23.31 10.97 22.8 10.09 22.28 C8.98 21.62 8.98 21.62 7.83 20.94 C4.66 19.31 3.29 20.28 0.41 22.03 Z " fill="#FDFDFD" transform="translate(295,0)"/>
<path d="M0 0 C0 140.58 0 281.16 0 426 C-4.03 424.39 -7.38 422.72 -11.09 420.54 C-11.67 420.2 -12.25 419.86 -12.85 419.52 C-14.74 418.41 -16.62 417.3 -18.5 416.19 C-19.81 415.41 -21.13 414.64 -22.44 413.87 C-30.85 408.91 -39.18 403.85 -47.46 398.67 C-52.59 395.47 -57.75 392.34 -62.97 389.28 C-64.8 388.2 -66.61 387.11 -68.42 386.01 C-73.19 383.12 -77.9 380.54 -83.01 378.34 C-97.98 371.43 -97.98 371.43 -101.33 364.08 C-103.35 356.05 -103.17 347.83 -102.99 339.61 C-102.94 335.88 -103.02 332.15 -103.08 328.42 C-103.18 321.13 -103.15 313.84 -103.08 306.55 C-103.03 300.62 -103.02 294.69 -103.04 288.76 C-103.04 287.91 -103.05 287.07 -103.05 286.19 C-103.06 284.47 -103.06 282.75 -103.07 281.03 C-103.13 264.94 -103.05 248.84 -102.92 232.75 C-102.81 218.95 -102.83 205.17 -102.92 191.38 C-103.04 175.33 -103.08 159.29 -103.01 143.25 C-103 141.53 -102.99 139.82 -102.98 138.11 C-102.98 136.84 -102.98 136.84 -102.97 135.55 C-102.95 129.64 -102.98 123.72 -103.03 117.8 C-103.09 110.58 -103.07 103.37 -102.95 96.15 C-102.89 92.47 -102.86 88.8 -102.93 85.12 C-103.31 63.73 -103.31 63.73 -97.88 57.6 C-92.68 53.45 -87 50.78 -80.87 48.27 C-76.08 46.15 -71.77 43.28 -67.38 40.44 C-65.63 39.34 -63.87 38.25 -62.12 37.17 C-61.27 36.64 -60.41 36.11 -59.53 35.56 C-54.73 32.6 -49.88 29.71 -45.04 26.82 C-37.42 22.26 -29.83 17.67 -22.25 13.06 C-21.65 12.7 -21.05 12.33 -20.43 11.96 C-12.3 7.03 -12.3 7.03 -4.23 2 C-1 0 -1 0 0 0 Z " fill="#01685F" transform="translate(218,198)"/>
<path d="M0 0 C-3.47 2.96 -6.87 5.08 -11 7 C-10.94 5.25 -10.94 5.25 -10 3 C-6.7 0.41 -4.2 -1.4 0 0 Z " fill="#E7F1F0" transform="translate(78,154)"/>
<path d="M0 0 C0.33 0.99 0.66 1.98 1 3 C-4.08 6.22 -4.08 6.22 -6 7 C-7.32 6.67 -8.64 6.34 -10 6 C-6.7 4.02 -3.4 2.04 0 0 Z " fill="#E7F0EF" transform="translate(244,116)"/>
<path d="M0 0 C4.31 0.48 6.17 1.75 9 5 C8.01 5.5 8.01 5.5 7 6 C4.52 4.89 2.32 3.42 0 2 C0 1.34 0 0.68 0 0 Z " fill="#E8F1F0" transform="translate(134,639)"/>
<path d="M0 0 C-2.69 2.25 -4.65 3.88 -8 5 C-8 4.01 -8 3.02 -8 2 C-3.72 -1.24 -3.72 -1.24 0 0 Z " fill="#E7F0F0" transform="translate(126,125)"/>
<path d="M0 0 C-0.62 1.94 -0.62 1.94 -2 4 C-5.12 4.75 -5.12 4.75 -8 5 C-3.23 0 -3.23 0 0 0 Z " fill="#E6F0EF" transform="translate(371,760)"/>
<path d="M0 0 C0.33 0.99 0.66 1.98 1 3 C-0.98 3.99 -2.96 4.98 -5 6 C-5.66 5.34 -6.32 4.68 -7 4 C-4.69 2.68 -2.38 1.36 0 0 Z " fill="#E6F0EF" transform="translate(523,667)"/>
<path d="M0 0 C3.38 1.19 5.65 2.28 8 5 C5.12 4.75 5.12 4.75 2 4 C0.62 1.94 0.62 1.94 0 0 Z " fill="#E7F1F0" transform="translate(498,204)"/>
<path d="M0 0 C0.99 0.33 1.98 0.66 3 1 C0.69 3.06 0.69 3.06 -2 5 C-2.99 4.67 -3.98 4.34 -5 4 C-2.69 1.94 -2.69 1.94 0 0 Z " fill="#E7F0F0" transform="translate(22,185)"/>
<path d="M0 0 C2 1 2 1 2 1 Z " fill="#FFFFFF" transform="translate(307,819)"/>
<path d="M0 0 C2 1 2 1 2 1 Z " fill="#FFFFFF" transform="translate(292,819)"/>
<path d="M0 0 C2 1 2 1 2 1 Z " fill="#FFFFFF" transform="translate(312,816)"/>
<path d="M0 0 C2 1 2 1 2 1 Z " fill="#FFFFFF" transform="translate(287,816)"/>
<path d="M0 0 C2 1 2 1 2 1 Z " fill="#FFFFFF" transform="translate(320,811)"/>
<path d="M0 0 C2 1 2 1 2 1 Z " fill="#FFFFFF" transform="translate(325,808)"/>
<path d="M0 0 C2 1 2 1 2 1 Z " fill="#FFFFFF" transform="translate(262,801)"/>
<path d="M0 0 C2 1 2 1 2 1 Z " fill="#FFFFFF" transform="translate(257,798)"/>
<path d="M0 0 C2 1 2 1 2 1 Z " fill="#FFFFFF" transform="translate(350,793)"/>
<path d="M0 0 C2 1 2 1 2 1 Z " fill="#FFFFFF" transform="translate(355,790)"/>
<path d="M0 0 C2 1 2 1 2 1 Z " fill="#FFFFFF" transform="translate(368,782)"/>
<path d="M0 0 C2 1 2 1 2 1 Z " fill="#FFFFFF" transform="translate(381,774)"/>
<path d="M0 0 C2 1 2 1 2 1 Z " fill="#FFFFFF" transform="translate(393,767)"/>
<path d="M0 0 C2 1 2 1 2 1 Z " fill="#FFFFFF" transform="translate(204,766)"/>
<path d="M0 0 C2 1 2 1 2 1 Z " fill="#FFFFFF" transform="translate(406,759)"/>
<path d="M0 0 C2 1 2 1 2 1 Z " fill="#FFFFFF" transform="translate(189,757)"/>
<path d="M0 0 C2 1 2 1 2 1 Z " fill="#FFFFFF" transform="translate(411,756)"/>
<path d="M0 0 C2 1 2 1 2 1 Z " fill="#FFFFFF" transform="translate(186,755)"/>
<path d="M0 0 C2 1 2 1 2 1 Z " fill="#FFFFFF" transform="translate(181,752)"/>
<path d="M0 0 C2 1 2 1 2 1 Z " fill="#FFFFFF" transform="translate(176,749)"/>
<path d="M0 0 C2 1 2 1 2 1 Z " fill="#FFFFFF" transform="translate(168,744)"/>
<path d="M0 0 C2 1 2 1 2 1 Z " fill="#FFFFFF" transform="translate(163,741)"/>
<path d="M0 0 C2 1 2 1 2 1 Z " fill="#FFFFFF" transform="translate(156,737)"/>
<path d="M0 0 C2 1 2 1 2 1 Z " fill="#FFFFFF" transform="translate(151,734)"/>
<path d="M0 0 C2 1 2 1 2 1 Z " fill="#FFFFFF" transform="translate(449,733)"/>
<path d="M0 0 C2 1 2 1 2 1 Z " fill="#FFFFFF" transform="translate(146,731)"/>
<path d="M0 0 C2 1 2 1 2 1 Z " fill="#FFFFFF" transform="translate(454,730)"/>
<path d="M0 0 C2 1 2 1 2 1 Z " fill="#FFFFFF" transform="translate(138,726)"/>
<path d="M0 0 C2 1 2 1 2 1 Z " fill="#FFFFFF" transform="translate(464,724)"/>
<path d="M0 0 C2 1 2 1 2 1 Z " fill="#FFFFFF" transform="translate(467,722)"/>
<path d="M0 0 C2 1 2 1 2 1 Z " fill="#FFFFFF" transform="translate(128,720)"/>
<path d="M0 0 C2 1 2 1 2 1 Z " fill="#FFFFFF" transform="translate(472,719)"/>
<path d="M0 0 C2 1 2 1 2 1 Z " fill="#FFFFFF" transform="translate(103,705)"/>
<path d="M0 0 C2 1 2 1 2 1 Z " fill="#FFFFFF" transform="translate(497,704)"/>
<path d="M0 0 C2 1 2 1 2 1 Z " fill="#FFFFFF" transform="translate(98,702)"/>
<path d="M0 0 C2 1 2 1 2 1 Z " fill="#FFFFFF" transform="translate(505,699)"/>
<path d="M0 0 C2 1 2 1 2 1 Z " fill="#FFFFFF" transform="translate(93,699)"/>
<path d="M0 0 C2 1 2 1 2 1 Z " fill="#FFFFFF" transform="translate(510,696)"/>
<path d="M0 0 C2 1 2 1 2 1 Z " fill="#FFFFFF" transform="translate(515,693)"/>
<path d="M0 0 C2 1 2 1 2 1 Z " fill="#FFFFFF" transform="translate(520,690)"/>
<path d="M0 0 C2 1 2 1 2 1 Z " fill="#FFFFFF" transform="translate(75,688)"/>
<path d="M0 0 C2 1 2 1 2 1 Z " fill="#FFFFFF" transform="translate(528,685)"/>
<path d="M0 0 C2 1 2 1 2 1 Z " fill="#FFFFFF" transform="translate(70,685)"/>
<path d="M0 0 C2 1 2 1 2 1 Z " fill="#FFFFFF" transform="translate(533,682)"/>
<path d="M0 0 C2 1 2 1 2 1 Z " fill="#FFFFFF" transform="translate(65,682)"/>
<path d="M0 0 C2 1 2 1 2 1 Z " fill="#FFFFFF" transform="translate(57,677)"/>
<path d="M0 0 C2 1 2 1 2 1 Z " fill="#FFFFFF" transform="translate(40,667)"/>
<path d="M0 0 C2 1 2 1 2 1 Z " fill="#FFFFFF" transform="translate(571,659)"/>
<path d="M0 0 C2 1 2 1 2 1 Z " fill="#FFFFFF" transform="translate(576,656)"/>
<path d="M0 0 C2 1 2 1 2 1 Z " fill="#FFFFFF" transform="translate(581,653)"/>
<path d="M0 0 C2 1 2 1 2 1 Z " fill="#FFFFFF" transform="translate(17,653)"/>
<path d="M0 0 C2 1 2 1 2 1 Z " fill="#FFFFFF" transform="translate(589,648)"/>
<path d="M0 0 C2 1 2 1 2 1 Z " fill="#FFFFFF" transform="translate(594,645)"/>
<path d="M0 0 C2 1 2 1 2 1 Z " fill="#FFFFFF" transform="translate(1,178)"/>
<path d="M0 0 C2 1 2 1 2 1 Z " fill="#FFFFFF" transform="translate(6,175)"/>
<path d="M0 0 C2 1 2 1 2 1 Z " fill="#FFFFFF" transform="translate(587,172)"/>
<path d="M0 0 C2 1 2 1 2 1 Z " fill="#FFFFFF" transform="translate(11,172)"/>
<path d="M0 0 C2 1 2 1 2 1 Z " fill="#FFFFFF" transform="translate(19,167)"/>
<path d="M0 0 C2 1 2 1 2 1 Z " fill="#FFFFFF" transform="translate(24,164)"/>
<path d="M0 0 C2 1 2 1 2 1 Z " fill="#FFFFFF" transform="translate(569,161)"/>
<path d="M0 0 C2 1 2 1 2 1 Z " fill="#FFFFFF" transform="translate(29,161)"/>
<path d="M0 0 C2 1 2 1 2 1 Z " fill="#FFFFFF" transform="translate(59,143)"/>
<path d="M0 0 C2 1 2 1 2 1 Z " fill="#FFFFFF" transform="translate(536,141)"/>
<path d="M0 0 C2 1 2 1 2 1 Z " fill="#FFFFFF" transform="translate(531,138)"/>
<path d="M0 0 C2 1 2 1 2 1 Z " fill="#FFFFFF" transform="translate(526,135)"/>
<path d="M0 0 C2 1 2 1 2 1 Z " fill="#FFFFFF" transform="translate(72,135)"/>
<path d="M0 0 C2 1 2 1 2 1 Z " fill="#FFFFFF" transform="translate(518,130)"/>
<path d="M0 0 C2 1 2 1 2 1 Z " fill="#FFFFFF" transform="translate(80,130)"/>
<path d="M0 0 C2 1 2 1 2 1 Z " fill="#FFFFFF" transform="translate(513,127)"/>
<path d="M0 0 C2 1 2 1 2 1 Z " fill="#FFFFFF" transform="translate(508,124)"/>
<path d="M0 0 C2 1 2 1 2 1 Z " fill="#FFFFFF" transform="translate(95,121)"/>
<path d="M0 0 C2 1 2 1 2 1 Z " fill="#FFFFFF" transform="translate(500,119)"/>
<path d="M0 0 C2 1 2 1 2 1 Z " fill="#FFFFFF" transform="translate(495,116)"/>
<path d="M0 0 C2 1 2 1 2 1 Z " fill="#FFFFFF" transform="translate(120,106)"/>
<path d="M0 0 C2 1 2 1 2 1 Z " fill="#FFFFFF" transform="translate(475,104)"/>
<path d="M0 0 C2 1 2 1 2 1 Z " fill="#FFFFFF" transform="translate(462,96)"/>
<path d="M0 0 C2 1 2 1 2 1 Z " fill="#FFFFFF" transform="translate(143,92)"/>
<path d="M0 0 C2 1 2 1 2 1 Z " fill="#FFFFFF" transform="translate(444,85)"/>
<path d="M0 0 C2 1 2 1 2 1 Z " fill="#FFFFFF" transform="translate(161,81)"/>
<path d="M0 0 C2 1 2 1 2 1 Z " fill="#FFFFFF" transform="translate(163,80)"/>
<path d="M0 0 C2 1 2 1 2 1 Z " fill="#FFFFFF" transform="translate(432,78)"/>
<path d="M0 0 C2 1 2 1 2 1 Z " fill="#FFFFFF" transform="translate(427,75)"/>
<path d="M0 0 C2 1 2 1 2 1 Z " fill="#FFFFFF" transform="translate(424,73)"/>
<path d="M0 0 C2 1 2 1 2 1 Z " fill="#FFFFFF" transform="translate(419,70)"/>
<path d="M0 0 C2 1 2 1 2 1 Z " fill="#FFFFFF" transform="translate(191,63)"/>
<path d="M0 0 C2 1 2 1 2 1 Z " fill="#FFFFFF" transform="translate(196,60)"/>
<path d="M0 0 C2 1 2 1 2 1 Z " fill="#FFFFFF" transform="translate(401,59)"/>
<path d="M0 0 C2 1 2 1 2 1 Z " fill="#FFFFFF" transform="translate(201,57)"/>
<path d="M0 0 C2 1 2 1 2 1 Z " fill="#FFFFFF" transform="translate(396,56)"/>
<path d="M0 0 C2 1 2 1 2 1 Z " fill="#FFFFFF" transform="translate(209,52)"/>
<path d="M0 0 C2 1 2 1 2 1 Z " fill="#FFFFFF" transform="translate(388,51)"/>
<path d="M0 0 C2 1 2 1 2 1 Z " fill="#FFFFFF" transform="translate(214,49)"/>
<path d="M0 0 C2 1 2 1 2 1 Z " fill="#FFFFFF" transform="translate(383,48)"/>
<path d="M0 0 C2 1 2 1 2 1 Z " fill="#FFFFFF" transform="translate(381,47)"/>
<path d="M0 0 C2 1 2 1 2 1 Z " fill="#FFFFFF" transform="translate(221,45)"/>
<path d="M0 0 C2 1 2 1 2 1 Z " fill="#FFFFFF" transform="translate(239,34)"/>
<path d="M0 0 C2 1 2 1 2 1 Z " fill="#FFFFFF" transform="translate(355,31)"/>
<path d="M0 0 C2 1 2 1 2 1 Z " fill="#FFFFFF" transform="translate(249,28)"/>
<path d="M0 0 C2 1 2 1 2 1 Z " fill="#FFFFFF" transform="translate(345,25)"/>
<path d="M0 0 C2 1 2 1 2 1 Z " fill="#FFFFFF" transform="translate(262,20)"/>
<path d="M0 0 C2 1 2 1 2 1 Z " fill="#FFFFFF" transform="translate(325,13)"/>
<path d="M0 0 C2 1 2 1 2 1 Z " fill="#FFFFFF" transform="translate(320,10)"/>
<path d="M0 0 C2 1 2 1 2 1 Z " fill="#FFFFFF" transform="translate(312,5)"/>
<path d="M0 0 C2 1 2 1 2 1 Z " fill="#FFFFFF" transform="translate(287,5)"/>
<path d="M0 0 C2 1 2 1 2 1 Z " fill="#FFFFFF" transform="translate(307,2)"/>
<path d="M0 0 C2 1 2 1 2 1 Z " fill="#FFFFFF" transform="translate(292,2)"/>
<path d="" fill="#FFFFFF" transform="translate(0,0)"/>
<path d="" fill="#FFFFFF" transform="translate(0,0)"/>
<path d="" fill="#FFFFFF" transform="translate(0,0)"/>
<path d="" fill="#FFFFFF" transform="translate(0,0)"/>
<path d="" fill="#FFFFFF" transform="translate(0,0)"/>
<path d="" fill="#FFFFFF" transform="translate(0,0)"/>
<path d="" fill="#FFFFFF" transform="translate(0,0)"/>
<path d="" fill="#FFFFFF" transform="translate(0,0)"/>
<path d="" fill="#FFFFFF" transform="translate(0,0)"/>
<path d="" fill="#FFFFFF" transform="translate(0,0)"/>
<path d="" fill="#FFFFFF" transform="translate(0,0)"/>
<path d="" fill="#FFFFFF" transform="translate(0,0)"/>
<path d="" fill="#FFFFFF" transform="translate(0,0)"/>
<path d="" fill="#FFFFFF" transform="translate(0,0)"/>
<path d="" fill="#FFFFFF" transform="translate(0,0)"/>
<path d="" fill="#FFFFFF" transform="translate(0,0)"/>
<path d="" fill="#FFFFFF" transform="translate(0,0)"/>
<path d="" fill="#FFFFFF" transform="translate(0,0)"/>
<path d="" fill="#FFFFFF" transform="translate(0,0)"/>
<path d="" fill="#FFFFFF" transform="translate(0,0)"/>
<path d="" fill="#FFFFFF" transform="translate(0,0)"/>
<path d="" fill="#FFFFFF" transform="translate(0,0)"/>
<path d="" fill="#FFFFFF" transform="translate(0,0)"/>
<path d="" fill="#FFFFFF" transform="translate(0,0)"/>
<path d="" fill="#FFFFFF" transform="translate(0,0)"/>
<path d="" fill="#FFFFFF" transform="translate(0,0)"/>
<path d="" fill="#FFFFFF" transform="translate(0,0)"/>
<path d="" fill="#FFFFFF" transform="translate(0,0)"/>
<path d="" fill="#FFFFFF" transform="translate(0,0)"/>
<path d="" fill="#FFFFFF" transform="translate(0,0)"/>
<path d="" fill="#FFFFFF" transform="translate(0,0)"/>
<path d="" fill="#FFFFFF" transform="translate(0,0)"/>
<path d="" fill="#FFFFFF" transform="translate(0,0)"/>
<path d="" fill="#FFFFFF" transform="translate(0,0)"/>
<path d="" fill="#FFFFFF" transform="translate(0,0)"/>
<path d="" fill="#FFFFFF" transform="translate(0,0)"/>
<path d="" fill="#FFFFFF" transform="translate(0,0)"/>
<path d="" fill="#FFFFFF" transform="translate(0,0)"/>
<path d="" fill="#FFFFFF" transform="translate(0,0)"/>
<path d="" fill="#FFFFFF" transform="translate(0,0)"/>
<path d="" fill="#FFFFFF" transform="translate(0,0)"/>
<path d="" fill="#FFFFFF" transform="translate(0,0)"/>
<path d="" fill="#FFFFFF" transform="translate(0,0)"/>
<path d="" fill="#FFFFFF" transform="translate(0,0)"/>
<path d="" fill="#FFFFFF" transform="translate(0,0)"/>
<path d="" fill="#FFFFFF" transform="translate(0,0)"/>
<path d="" fill="#FFFFFF" transform="translate(0,0)"/>
<path d="" fill="#FFFFFF" transform="translate(0,0)"/>
<path d="" fill="#FFFFFF" transform="translate(0,0)"/>
<path d="" fill="#FFFFFF" transform="translate(0,0)"/>
<path d="" fill="#FFFFFF" transform="translate(0,0)"/>
<path d="" fill="#FFFFFF" transform="translate(0,0)"/>
<path d="" fill="#FFFFFF" transform="translate(0,0)"/>
<path d="" fill="#FFFFFF" transform="translate(0,0)"/>
<path d="" fill="#FFFFFF" transform="translate(0,0)"/>
<path d="" fill="#FFFFFF" transform="translate(0,0)"/>
<path d="" fill="#FFFFFF" transform="translate(0,0)"/>
<path d="" fill="#FFFFFF" transform="translate(0,0)"/>
<path d="" fill="#FFFFFF" transform="translate(0,0)"/>
<path d="" fill="#FFFFFF" transform="translate(0,0)"/>
<path d="" fill="#FFFFFF" transform="translate(0,0)"/>
<path d="" fill="#FFFFFF" transform="translate(0,0)"/>
<path d="" fill="#FFFFFF" transform="translate(0,0)"/>
<path d="" fill="#FFFFFF" transform="translate(0,0)"/>
<path d="" fill="#FFFFFF" transform="translate(0,0)"/>
<path d="" fill="#FFFFFF" transform="translate(0,0)"/>
<path d="" fill="#FFFFFF" transform="translate(0,0)"/>
<path d="" fill="#FFFFFF" transform="translate(0,0)"/>
<path d="" fill="#FFFFFF" transform="translate(0,0)"/>
<path d="" fill="#FFFFFF" transform="translate(0,0)"/>
<path d="" fill="#FFFFFF" transform="translate(0,0)"/>
<path d="" fill="#FFFFFF" transform="translate(0,0)"/>
<path d="" fill="#FFFFFF" transform="translate(0,0)"/>
<path d="" fill="#FFFFFF" transform="translate(0,0)"/>
<path d="" fill="#FFFFFF" transform="translate(0,0)"/>
<path d="" fill="#FFFFFF" transform="translate(0,0)"/>
<path d="" fill="#FFFFFF" transform="translate(0,0)"/>
<path d="" fill="#FFFFFF" transform="translate(0,0)"/>
<path d="" fill="#FFFFFF" transform="translate(0,0)"/>
<path d="" fill="#FFFFFF" transform="translate(0,0)"/>
<path d="" fill="#FFFFFF" transform="translate(0,0)"/>
<path d="" fill="#FFFFFF" transform="translate(0,0)"/>
</svg>
