<?xml version="1.0" encoding="UTF-8"?>
<!-- Generator: https://ezgif.com/webp-to-svg -->
<svg version="1.1" xmlns="http://www.w3.org/2000/svg" width="50" height="50">
<path d="M0 0 C5.65 2.25 9.09 5.65 12 11 C13.6 15.79 13.91 20.58 12.11 25.37 C11.14 27.28 10.08 29.15 9 31 C10.65 31 12.3 31 14 31 C14 30.34 14 29.68 14 29 C14.66 29 15.32 29 16 29 C16 31.64 16 34.28 16 37 C11.05 37 6.1 37 1 37 C0.67 38.65 0.34 40.3 0 42 C-1.27 44.04 -2.59 46.05 -4 48 C-7.34 46.89 -7.58 46.54 -9.19 43.62 C-9.53 43.02 -9.88 42.41 -10.23 41.79 C-11 40 -11 40 -11 37 C-15.95 37 -20.9 37 -26 37 C-26 34.36 -26 31.72 -26 29 C-25.34 29 -24.68 29 -24 29 C-24 29.66 -24 30.32 -24 31 C-22.35 31 -20.7 31 -19 31 C-19.47 30.26 -19.95 29.52 -20.44 28.75 C-23.12 24.03 -23.71 19.41 -23 14 C-20.95 7.84 -17.78 4.18 -12.14 0.93 C-8.18 -0.79 -4.22 -0.61 0 0 Z M-8 8 C-8.99 9.48 -8.99 9.48 -10 11 C-6.99 11.93 -6.13 12.04 -3 11 C-2.34 11.66 -1.68 12.32 -1 13 C-0.67 12.01 -0.34 11.02 0 10 C-1.89 7.69 -1.89 7.69 -5 7.69 C-5.99 7.79 -6.98 7.89 -8 8 Z M-6 21 C-6 21.66 -6 22.32 -6 23 C-8.97 22.5 -8.97 22.5 -12 22 C-12.43 25.88 -12.43 25.88 -10.5 27.75 C-10 28.16 -9.51 28.57 -9 29 C-8.34 27.68 -7.68 26.36 -7 25 C-6.67 25.66 -6.34 26.32 -6 27 C-5.34 27 -4.68 27 -4 27 C-3.67 26.34 -3.34 25.68 -3 25 C-2.01 26.32 -1.02 27.64 0 29 C1.63 27.19 1.63 27.19 3 25 C2.67 24.01 2.34 23.02 2 22 C0.02 22.33 -1.96 22.66 -4 23 C-4 22.34 -4 21.68 -4 21 C-4.66 21 -5.32 21 -6 21 Z M-13 29 C-13 29.99 -13 30.98 -13 32 C-12.34 32 -11.68 32 -11 32 C-11.33 31.01 -11.66 30.02 -12 29 C-12.33 29 -12.66 29 -13 29 Z M2 29 C1.67 29.99 1.34 30.98 1 32 C1.66 32 2.32 32 3 32 C2.67 31.01 2.34 30.02 2 29 Z M-8 32 C-8.33 32.99 -8.66 33.98 -9 35 C-8.34 35 -7.68 35 -7 35 C-7.33 34.01 -7.66 33.02 -8 32 Z M-3 32 C-3 32.99 -3 33.98 -3 35 C-2.34 35 -1.68 35 -1 35 C-1.33 34.01 -1.66 33.02 -2 32 C-2.33 32 -2.66 32 -3 32 Z " fill="#FEFEFE" transform="translate(30,1)"/>
</svg>
