<?xml version="1.0" encoding="UTF-8"?>
<!-- Generator: https://ezgif.com/png-to-svg -->
<svg version="1.1" xmlns="http://www.w3.org/2000/svg" width="512" height="512" viewBox="-77.403 -41.486 754.929 754.929" preserveAspectRatio="xMidYMid meet">
<path d="M0 0 C0.83 -0.01 1.66 -0.03 2.51 -0.04 C62.32 -0.77 116.83 15.86 164.09 53.27 C164.96 53.93 165.82 54.58 166.71 55.26 C180.22 65.82 192.78 78.58 203.09 92.27 C203.79 93.15 204.48 94.03 205.2 94.93 C212.19 103.93 218.16 113.56 224.09 123.27 C224.48 123.9 224.87 124.53 225.26 125.17 C231.53 135.43 236.38 146.24 241.09 157.27 C241.41 157.99 241.72 158.7 242.04 159.44 C255.25 189.83 260.49 222.65 260.35 255.58 C260.34 258.77 260.35 261.96 260.37 265.15 C260.38 282.17 259.06 298.44 255.41 315.09 C255.02 316.87 255.02 316.87 254.62 318.69 C252.37 328.73 249.4 338.4 245.89 348.07 C245.16 350.09 244.47 352.11 243.79 354.15 C235.23 379.29 221.25 401.66 206.09 423.27 C205.27 424.46 205.27 424.46 204.43 425.68 C199.86 432.25 195.16 438.73 190.45 445.21 C189.9 445.96 189.35 446.71 188.79 447.49 C188.29 448.17 187.8 448.85 187.29 449.55 C186.04 451.27 186.04 451.27 185.09 453.27 C184.1 453.6 183.11 453.93 182.09 454.27 C190.42 454.21 198.75 454.13 207.08 454.04 C210.95 453.99 214.82 453.95 218.69 453.93 C222.44 453.9 226.18 453.86 229.93 453.81 C231.35 453.79 232.76 453.78 234.18 453.78 C251.51 453.69 270.9 451.74 284.09 439.27 C291.28 431.64 292.43 421.24 294.09 411.27 C298.71 411.27 303.33 411.27 308.09 411.27 C308.12 424.82 308.13 438.36 308.15 451.9 C308.15 458.19 308.16 464.48 308.17 470.76 C308.18 476.83 308.19 482.89 308.19 488.95 C308.19 491.27 308.19 493.59 308.2 495.91 C308.21 499.14 308.21 502.38 308.21 505.61 C308.21 506.58 308.21 507.55 308.22 508.55 C308.22 509.43 308.22 510.3 308.21 511.2 C308.21 511.97 308.22 512.74 308.22 513.53 C308.09 515.27 308.09 515.27 307.09 516.27 C304.63 516.36 302.2 516.38 299.74 516.36 C298.96 516.35 298.18 516.35 297.38 516.35 C294.75 516.34 292.12 516.32 289.49 516.3 C287.61 516.3 285.73 516.29 283.85 516.28 C280.84 516.27 277.83 516.26 274.82 516.24 C267.35 516.21 259.87 516.19 252.39 516.19 C251.31 516.19 250.22 516.19 249.11 516.18 C244.63 516.18 240.15 516.18 235.68 516.18 C222.97 516.17 210.26 516.15 197.55 516.07 C187.47 516.01 177.38 515.99 167.29 516.01 C161.96 516.02 156.62 516.01 151.29 515.96 C146.25 515.9 141.23 515.9 136.19 515.94 C134.36 515.95 132.52 515.93 130.68 515.9 C118.86 515.69 111.7 517.39 102.87 525.52 C101.18 527.19 99.52 528.89 97.9 530.63 C96.09 532.27 96.09 532.27 93.09 532.27 C93.35 531.38 93.61 530.48 93.87 529.55 C97.64 515.54 98.61 501.32 99.78 486.9 C100.1 483.12 100.42 479.34 100.74 475.56 C100.94 473.23 101.13 470.9 101.32 468.56 C101.41 467.52 101.49 466.47 101.58 465.39 C101.66 464.47 101.73 463.55 101.81 462.61 C102.09 460.27 102.09 460.27 103.09 457.27 C104.06 457.18 105.03 457.1 106.02 457 C115.03 455.76 119.73 453.98 125.65 446.65 C126.2 445.88 126.2 445.88 126.75 445.1 C128.09 443.27 128.09 443.27 130.05 441.02 C136.22 433.54 137.2 428.04 136.88 418.51 C136.86 416.6 136.86 416.6 136.84 414.66 C136.8 411.31 136.73 407.97 136.64 404.63 C136.56 401.21 136.52 397.78 136.48 394.35 C136.4 387.66 136.26 380.97 136.09 374.27 C133.86 376.32 131.62 378.37 129.39 380.42 C128.77 380.99 128.14 381.57 127.49 382.16 C122.1 387.14 117.6 392.47 113.09 398.27 C111.53 400.13 109.97 401.98 108.41 403.84 C101.14 412.71 101.14 412.71 97.09 423.27 C96.1 423.27 95.11 423.27 94.09 423.27 C93.85 422.75 93.61 422.23 93.36 421.7 C90.03 414.36 90.03 414.36 84.09 409.27 C84.7 406.13 85.71 404.11 87.61 401.54 C88.13 400.83 88.66 400.12 89.19 399.39 C89.76 398.63 90.32 397.87 90.91 397.09 C92.1 395.46 93.3 393.83 94.49 392.2 C95.09 391.38 95.7 390.55 96.32 389.7 C98.96 386.09 101.53 382.43 104.09 378.77 C109.37 371.27 114.72 363.82 120.12 356.39 C121.92 353.91 123.7 351.42 125.45 348.91 C128.33 344.8 130.94 341.2 134.91 338.09 C138.18 335.52 139.27 333.09 140.47 329.15 C141.09 327.27 141.09 327.27 142.84 324.65 C144.31 322.29 144.31 322.29 144.16 319.34 C142.9 315.71 141.21 314.06 138.37 311.57 C137.09 310.27 137.09 310.27 137.09 308.27 C136.21 308.18 135.33 308.09 134.43 308 C130.74 307.2 128.78 305.96 125.78 303.71 C123.19 301.41 123.19 301.41 120.09 300.27 C121.02 301.06 121.95 301.84 122.91 302.65 C123.43 303.09 123.95 303.53 124.49 303.98 C125.96 305.17 127.52 306.23 129.09 307.27 C129.09 307.93 129.09 308.59 129.09 309.27 C126.41 310.52 126.41 310.52 123.09 311.27 C117.21 308.54 115.35 301.96 113.09 296.27 C112.76 295.28 112.43 294.29 112.09 293.27 C111.25 293.87 110.4 294.46 109.52 295.07 C100 301.54 90.58 306.22 79.09 308.27 C79.09 307.28 79.09 306.29 79.09 305.27 C81.73 304.28 84.37 303.29 87.09 302.27 C86.19 302.48 85.28 302.68 84.35 302.89 C73.17 305.37 73.17 305.37 67.84 305.9 C64.28 306.03 64.28 306.03 62.09 307.27 C63.36 308.42 64.63 309.57 65.91 310.71 C66.61 311.35 67.32 311.99 68.05 312.64 C70.09 314.46 70.09 314.46 73.09 315.27 C73.09 316.26 73.09 317.25 73.09 318.27 C69.46 317.94 65.83 317.61 62.09 317.27 C63.08 317.6 64.07 317.93 65.09 318.27 C65.09 319.26 65.09 320.25 65.09 321.27 C57.85 319.14 51.63 316.05 45.09 312.27 C45.42 312.87 45.75 313.47 46.09 314.09 C47.09 316.27 47.09 316.27 47.09 319.27 C41.15 316.85 37.12 311.78 34.09 306.27 C33.26 302.62 33.09 299.01 33.09 295.27 C31.66 292.28 30.08 289.39 28.5 286.48 C26.99 283.03 26.46 280 26.09 276.27 C27.34 275.96 28.58 275.64 29.86 275.32 C38.11 273.21 46.23 271.1 54.16 267.97 C56.09 267.27 56.09 267.27 58.09 267.27 C58.42 266.28 58.75 265.29 59.09 264.27 C61.03 262.77 61.03 262.77 63.53 261.15 C82.38 248.25 95.17 229.1 100.21 206.75 C101.41 200.33 101.56 193.92 101.59 187.4 C101.6 186.29 101.61 185.19 101.61 184.05 C101.49 176.15 100.14 168.9 98.09 161.27 C96.01 172.1 94.21 182.92 93.3 193.91 C93.21 195.02 93.21 195.02 93.12 196.15 C92.82 199.79 92.55 203.43 92.31 207.08 C91.09 224.06 87.42 239.05 74.64 251.17 C65.17 259 54.14 263.97 41.71 263.57 C35.28 262.84 28.81 261.39 23.09 258.27 C23.42 258.93 23.75 259.59 24.09 260.27 C24.25 263.16 24.33 266.01 24.34 268.9 C24.37 270.07 24.37 270.07 24.41 271.27 C24.46 279.36 22.57 285.33 16.91 291.27 C16.19 292.04 15.48 292.8 14.74 293.59 C14.2 294.14 13.65 294.7 13.09 295.27 C6.61 292.31 3.28 286.91 0.81 280.41 C-0.6 274.24 -1.78 264.03 1.09 258.27 C0.12 258.69 0.12 258.69 -0.88 259.11 C-9.92 262.86 -9.92 262.86 -14.91 263.27 C-15.61 263.34 -16.31 263.4 -17.04 263.46 C-29.85 264.1 -41.72 258.72 -51.14 250.27 C-52.79 248.64 -54.37 247 -55.91 245.27 C-52.5 249.44 -49.13 252.92 -44.91 256.27 C-44.91 256.93 -44.91 257.59 -44.91 258.27 C-43.81 258.68 -43.81 258.68 -42.7 259.09 C-39.98 260.24 -37.72 261.56 -35.28 263.21 C-34.53 263.71 -33.77 264.22 -32.99 264.74 C-30.91 266.27 -30.91 266.27 -29.62 267.76 C-27.35 269.76 -25.27 270.28 -22.36 271.1 C-21.29 271.4 -20.22 271.71 -19.11 272.03 C-17.99 272.33 -16.87 272.64 -15.72 272.96 C-14.59 273.28 -13.46 273.6 -12.29 273.93 C-9.5 274.72 -6.7 275.5 -3.91 276.27 C-2.51 289.13 -3.77 300.49 -11.99 310.91 C-18.58 318.56 -18.58 318.56 -23.91 320.27 C-23.33 317.89 -22.68 315.61 -21.91 313.27 C-22.55 313.67 -23.19 314.07 -23.86 314.48 C-31.01 318.68 -37.76 320.8 -45.91 322.27 C-45.91 321.28 -45.91 320.29 -45.91 319.27 C-44.26 318.61 -42.61 317.95 -40.91 317.27 C-45.2 317.6 -49.49 317.93 -53.91 318.27 C-52.91 315.27 -52.91 315.27 -50.22 313.9 C-49.13 313.36 -48.03 312.83 -46.91 312.27 C-44.81 310.7 -42.88 309.01 -40.91 307.27 C-42.48 305.7 -44.25 305.85 -46.42 305.55 C-47.8 305.36 -47.8 305.36 -49.21 305.17 C-50.19 305.04 -51.16 304.91 -52.16 304.77 C-54.06 304.51 -55.96 304.25 -57.86 303.99 C-59.13 303.82 -59.13 303.82 -60.43 303.65 C-62.94 303.27 -65.42 302.79 -67.91 302.27 C-63.45 303.76 -63.45 303.76 -58.91 305.27 C-58.91 306.26 -58.91 307.25 -58.91 308.27 C-70.98 305.95 -81.62 301.44 -90.91 293.27 C-94.09 299.53 -97.03 305.87 -99.91 312.27 C-103.24 311.66 -105.93 310.93 -108.91 309.27 C-108.91 308.28 -108.91 307.29 -108.91 306.27 C-106.94 304.67 -106.94 304.67 -104.41 303.09 C-103.57 302.56 -102.74 302.03 -101.88 301.48 C-101.23 301.08 -100.58 300.68 -99.91 300.27 C-102.38 301.46 -104.46 302.67 -106.72 304.27 C-110.2 306.46 -112.94 307.32 -116.91 308.27 C-116.91 309.26 -116.91 310.25 -116.91 311.27 C-117.52 311.53 -118.13 311.78 -118.76 312.04 C-122.04 313.93 -122.96 315.9 -123.99 319.48 C-123.81 325.33 -119.04 329.89 -115.5 334.27 C-112.71 337.78 -110.14 341.44 -107.53 345.09 C-106.42 346.62 -105.31 348.16 -104.2 349.7 C-101.07 354.04 -97.98 358.4 -94.91 362.77 C-90.77 368.65 -86.61 374.51 -82.41 380.34 C-81.87 381.08 -81.34 381.82 -80.79 382.58 C-78.05 386.37 -75.27 390.12 -72.42 393.82 C-71.86 394.55 -71.3 395.28 -70.73 396.03 C-69.66 397.41 -68.59 398.78 -67.51 400.15 C-64.89 403.55 -63.91 404.85 -63.91 409.27 C-66.22 411.77 -66.22 411.77 -68.91 414.27 C-71.14 416.9 -72.3 418.87 -72.91 422.27 C-74.78 422.04 -74.78 422.04 -76.91 421.27 C-78 419.48 -78 419.48 -78.97 417.09 C-85.7 402.75 -99.22 387.64 -111.91 378.27 C-112.09 385.92 -112.23 393.57 -112.32 401.22 C-112.36 404.78 -112.42 408.33 -112.51 411.88 C-112.61 415.98 -112.65 420.07 -112.69 424.17 C-112.75 426.06 -112.75 426.06 -112.81 427.99 C-112.82 437.23 -110.32 441.77 -103.91 448.27 C-102.78 449.6 -101.65 450.94 -100.53 452.27 C-96.63 456.12 -92.21 456.75 -86.91 457.27 C-86.85 458.2 -86.85 458.2 -86.79 459.14 C-86.73 459.94 -86.66 460.75 -86.59 461.59 C-86.51 462.79 -86.51 462.79 -86.42 464.01 C-86.12 466.34 -86.12 466.34 -84.41 467.58 C-82.34 469.91 -82.44 471.56 -82.28 474.66 C-82.18 476.27 -82.18 476.27 -82.08 477.92 C-82 479.64 -82 479.64 -81.91 481.4 C-80.98 495.73 -78.91 509.24 -75.18 523.1 C-74.32 526.33 -73.91 528.89 -73.91 532.27 C-78.12 531.58 -79.23 529.6 -81.78 526.29 C-87.03 520.03 -92.06 516.98 -100.23 515.99 C-108.72 515.33 -117.25 515.51 -125.75 515.65 C-130.11 515.71 -134.47 515.69 -138.83 515.68 C-147.11 515.67 -155.38 515.73 -163.66 515.82 C-172.94 515.91 -182.22 515.93 -191.5 515.94 C-205.3 515.96 -219.11 516.01 -232.91 516.12 C-245.85 516.23 -258.8 516.32 -271.74 516.35 C-273.35 516.35 -274.95 516.36 -276.56 516.36 C-278.77 516.37 -280.97 516.38 -283.18 516.38 C-285.06 516.39 -285.06 516.39 -286.98 516.39 C-289.91 516.27 -289.91 516.27 -291.91 515.27 C-291.91 480.95 -291.91 446.63 -291.91 411.27 C-287.62 411.27 -283.33 411.27 -278.91 411.27 C-277.2 412.98 -277.37 415.26 -277.01 417.54 C-275.45 427.14 -273.58 435.54 -265.84 442.09 C-248.97 453.9 -227.68 454.45 -207.83 454.37 C-205.89 454.37 -205.89 454.37 -203.91 454.37 C-200.52 454.36 -197.13 454.35 -193.73 454.34 C-190.25 454.33 -186.77 454.33 -183.29 454.32 C-176.5 454.31 -169.7 454.29 -162.91 454.27 C-162.91 452.62 -162.91 450.97 -162.91 449.27 C-163.9 449.27 -164.89 449.27 -165.91 449.27 C-166.38 448.28 -166.85 447.29 -167.34 446.27 C-171.55 437.57 -176.2 429.38 -181.55 421.33 C-207.73 381.82 -228.55 339.14 -234.6 291.66 C-234.89 289.43 -235.2 287.22 -235.53 285 C-242.07 237.77 -231.37 191.54 -212.91 148.27 C-212.56 147.47 -212.22 146.67 -211.87 145.84 C-200.79 120.22 -184 94.01 -163.49 74.85 C-161.8 73.26 -161.8 73.26 -160.32 71.07 C-159.85 70.48 -159.39 69.88 -158.91 69.27 C-158.25 69.27 -157.59 69.27 -156.91 69.27 C-156.58 68.28 -156.25 67.29 -155.91 66.27 C-153.48 63.69 -150.63 61.53 -147.91 59.27 C-147.33 58.79 -146.75 58.31 -146.15 57.81 C-137.72 50.76 -129.25 44.09 -119.91 38.27 C-119.22 37.83 -118.53 37.39 -117.82 36.94 C-91.32 20 -60.89 8.1 -29.78 3.15 C-28.76 2.98 -27.74 2.81 -26.69 2.64 C-17.79 1.19 -9.03 0.13 0 0 Z M-50.91 123.27 C-51.59 123.89 -52.28 124.5 -52.98 125.13 C-57.31 129.12 -60.59 133.49 -63.78 138.4 C-64.16 138.98 -64.54 139.57 -64.94 140.17 C-67.18 143.76 -68.73 147.21 -69.91 151.27 C-68.85 152.18 -68.85 152.18 -67.78 153.11 C-54.09 165.2 -46.42 176.86 -43.16 195.09 C-42.95 196.18 -42.74 197.27 -42.53 198.4 C-41.59 203.35 -40.73 208.3 -39.91 213.27 C-38.27 212.28 -38.27 212.28 -36.59 211.27 C-31.4 208.71 -26.6 208.32 -20.91 209.27 C-15.23 211.5 -11.82 214.91 -8.91 220.27 C-7.16 225.52 -7.46 229.85 -9.09 235.02 C-10.98 238.41 -12.72 240.12 -15.91 242.27 C-16.02 241.66 -16.13 241.04 -16.24 240.41 C-16.4 239.6 -16.56 238.79 -16.72 237.96 C-16.87 237.16 -17.02 236.36 -17.18 235.54 C-18 232.99 -18.79 231.89 -20.91 230.27 C-25.11 229.75 -25.11 229.75 -28.72 231.65 C-31.12 234.94 -31.3 237.22 -30.91 241.27 C-29.14 244.73 -27.51 246.82 -24.41 249.15 C-18.01 251.2 -11.52 251.53 -5.41 248.59 C1.37 242.32 3.58 236.5 4.33 227.41 C4.99 200.84 -10.76 172.45 -24.94 150.9 C-25.91 149.27 -25.91 149.27 -26.91 146.27 C-8.56 159.32 2.19 173.83 11.09 194.27 C11.75 194.27 12.41 194.27 13.09 194.27 C13.32 193.76 13.54 193.25 13.78 192.72 C22.37 173.37 32.93 157.94 51.09 146.27 C48.59 151.5 45.93 156.61 43.03 161.63 C30.47 183.46 15.74 209.52 21.22 235.52 C22.88 241.59 25.55 246.04 30.93 249.43 C36.08 251.44 42.46 251.31 47.59 249.29 C51.28 247.1 53.47 245.33 55.09 241.27 C55.42 237.36 55.3 234.59 53.09 231.27 C50.3 229.87 48.19 230.02 45.09 230.27 C42.21 232.45 41.56 234.47 40.91 237.96 C40.75 238.77 40.59 239.58 40.43 240.41 C40.32 241.03 40.21 241.64 40.09 242.27 C35.56 239.21 33.74 236.48 32.09 231.27 C31.39 224.94 32.47 220.55 36.09 215.27 C40.47 211.12 44.29 208.98 50.34 208.9 C51.24 208.87 52.13 208.84 53.05 208.81 C57.2 209.44 60.45 211.25 64.09 213.27 C64.23 212.51 64.37 211.74 64.51 210.95 C65.13 207.43 65.77 203.92 66.41 200.4 C66.62 199.19 66.83 197.99 67.05 196.75 C70.55 177.53 78.26 163.45 94.09 151.27 C93.54 146.76 91.66 143.45 89.22 139.71 C88.82 139.1 88.42 138.49 88.01 137.86 C74.31 117.47 55.55 105.78 32.09 99.27 C31.24 99.02 30.39 98.78 29.52 98.52 C0.76 91.34 -30.36 103.32 -50.91 123.27 Z M-73.91 159.27 C-74.39 161.13 -74.87 162.98 -75.34 164.84 C-75.61 165.87 -75.88 166.9 -76.15 167.96 C-81.16 189.95 -77.49 214.25 -65.89 233.64 C-64.3 235.92 -62.68 238.13 -60.91 240.27 C-60.58 239.61 -60.25 238.95 -59.91 238.27 C-60.73 235.87 -61.77 233.59 -62.8 231.27 C-65.89 222.91 -66.44 214.36 -67.11 205.54 C-68.31 189.98 -70.24 174.66 -72.91 159.27 C-73.24 159.27 -73.57 159.27 -73.91 159.27 Z M-148.91 185.27 C-147.91 188.27 -147.91 188.27 -147.91 188.27 Z M-59.91 240.27 C-59.58 241.59 -59.25 242.91 -58.91 244.27 C-58.25 244.27 -57.59 244.27 -56.91 244.27 C-57.57 242.95 -58.23 241.63 -58.91 240.27 C-59.24 240.27 -59.57 240.27 -59.91 240.27 Z M169.09 254.27 C169.09 257.57 169.09 260.87 169.09 264.27 C169.42 264.27 169.75 264.27 170.09 264.27 C170.09 260.97 170.09 257.67 170.09 254.27 C169.76 254.27 169.43 254.27 169.09 254.27 Z M-149.91 266.27 C-148.91 270.27 -148.91 270.27 -148.91 270.27 Z M169.09 266.27 C169.09 266.93 169.09 267.59 169.09 268.27 C168.1 268.6 167.11 268.93 166.09 269.27 C167.08 269.27 168.07 269.27 169.09 269.27 C169.09 271.58 169.09 273.89 169.09 276.27 C169.42 276.27 169.75 276.27 170.09 276.27 C170.09 272.97 170.09 269.67 170.09 266.27 C169.76 266.27 169.43 266.27 169.09 266.27 Z M-150.91 271.27 C-150.91 275.56 -150.91 279.85 -150.91 284.27 C-150.58 284.27 -150.25 284.27 -149.91 284.27 C-149.91 279.98 -149.91 275.69 -149.91 271.27 C-150.24 271.27 -150.57 271.27 -150.91 271.27 Z M-131.91 271.27 C-127.91 272.27 -127.91 272.27 -127.91 272.27 Z M170.09 282.27 C170.09 284.91 170.09 287.55 170.09 290.27 C170.42 290.27 170.75 290.27 171.09 290.27 C171.09 287.63 171.09 284.99 171.09 282.27 C170.76 282.27 170.43 282.27 170.09 282.27 Z M-151.91 285.27 C-151.91 289.56 -151.91 293.85 -151.91 298.27 C-151.58 298.27 -151.25 298.27 -150.91 298.27 C-150.91 293.98 -150.91 289.69 -150.91 285.27 C-151.24 285.27 -151.57 285.27 -151.91 285.27 Z M-93.91 290.27 C-94.24 290.93 -94.57 291.59 -94.91 292.27 C-93.92 291.94 -92.93 291.61 -91.91 291.27 C-92.57 290.94 -93.23 290.61 -93.91 290.27 Z M-44.91 291.27 C-40.91 292.27 -40.91 292.27 -40.91 292.27 Z M-40.91 292.27 C-36.91 293.27 -36.91 293.27 -36.91 293.27 Z M-96.91 294.27 C-95.91 296.27 -95.91 296.27 -95.91 296.27 Z M171.09 295.27 C171.09 298.9 171.09 302.53 171.09 306.27 C171.42 306.27 171.75 306.27 172.09 306.27 C172.09 302.64 172.09 299.01 172.09 295.27 C171.76 295.27 171.43 295.27 171.09 295.27 Z M-22.91 296.27 C-18.91 297.27 -18.91 297.27 -18.91 297.27 Z M-152.91 298.27 C-152.91 302.56 -152.91 306.85 -152.91 311.27 C-152.58 311.27 -152.25 311.27 -151.91 311.27 C-151.91 306.98 -151.91 302.69 -151.91 298.27 C-152.24 298.27 -152.57 298.27 -152.91 298.27 Z M172.09 309.27 C172.09 312.9 172.09 316.53 172.09 320.27 C172.42 320.27 172.75 320.27 173.09 320.27 C173.09 316.64 173.09 313.01 173.09 309.27 C172.76 309.27 172.43 309.27 172.09 309.27 Z M-153.91 312.27 C-154.67 321.98 -155.04 331.54 -154.91 341.27 C-154.58 341.27 -154.25 341.27 -153.91 341.27 C-152.98 331.58 -152.79 322 -152.91 312.27 C-153.24 312.27 -153.57 312.27 -153.91 312.27 Z M173.09 325.27 C173.09 327.91 173.09 330.55 173.09 333.27 C173.42 333.27 173.75 333.27 174.09 333.27 C174.09 330.63 174.09 327.99 174.09 325.27 C173.76 325.27 173.43 325.27 173.09 325.27 Z M174.09 339.27 C174.09 342.57 174.09 345.87 174.09 349.27 C174.42 349.27 174.75 349.27 175.09 349.27 C175.09 345.97 175.09 342.67 175.09 339.27 C174.76 339.27 174.43 339.27 174.09 339.27 Z M-155.91 341.27 C-155.91 345.56 -155.91 349.85 -155.91 354.27 C-155.58 354.27 -155.25 354.27 -154.91 354.27 C-154.91 349.98 -154.91 345.69 -154.91 341.27 C-155.24 341.27 -155.57 341.27 -155.91 341.27 Z M175.09 352.27 C175.09 355.9 175.09 359.53 175.09 363.27 C175.42 363.27 175.75 363.27 176.09 363.27 C176.09 359.64 176.09 356.01 176.09 352.27 C175.76 352.27 175.43 352.27 175.09 352.27 Z M-156.91 355.27 C-156.91 359.56 -156.91 363.85 -156.91 368.27 C-156.58 368.27 -156.25 368.27 -155.91 368.27 C-155.91 363.98 -155.91 359.69 -155.91 355.27 C-156.24 355.27 -156.57 355.27 -156.91 355.27 Z M176.09 366.27 C176.09 369.9 176.09 373.53 176.09 377.27 C176.42 377.27 176.75 377.27 177.09 377.27 C177.09 373.64 177.09 370.01 177.09 366.27 C176.76 366.27 176.43 366.27 176.09 366.27 Z M-157.91 370.27 C-157.91 374.56 -157.91 378.85 -157.91 383.27 C-157.58 383.27 -157.25 383.27 -156.91 383.27 C-156.91 378.98 -156.91 374.69 -156.91 370.27 C-157.24 370.27 -157.57 370.27 -157.91 370.27 Z M177.09 382.27 C177.09 385.24 177.09 388.21 177.09 391.27 C177.42 391.27 177.75 391.27 178.09 391.27 C178.09 388.3 178.09 385.33 178.09 382.27 C177.76 382.27 177.43 382.27 177.09 382.27 Z M-158.91 385.27 C-158.91 389.23 -158.91 393.19 -158.91 397.27 C-158.58 397.27 -158.25 397.27 -157.91 397.27 C-157.91 393.31 -157.91 389.35 -157.91 385.27 C-158.24 385.27 -158.57 385.27 -158.91 385.27 Z M178.09 395.27 C178.09 398.24 178.09 401.21 178.09 404.27 C178.42 404.27 178.75 404.27 179.09 404.27 C179.09 401.3 179.09 398.33 179.09 395.27 C178.76 395.27 178.43 395.27 178.09 395.27 Z M-159.91 398.27 C-159.91 402.23 -159.91 406.19 -159.91 410.27 C-159.58 410.27 -159.25 410.27 -158.91 410.27 C-158.91 406.31 -158.91 402.35 -158.91 398.27 C-159.24 398.27 -159.57 398.27 -159.91 398.27 Z M179.09 409.27 C179.09 412.57 179.09 415.87 179.09 419.27 C179.42 419.27 179.75 419.27 180.09 419.27 C180.09 415.97 180.09 412.67 180.09 409.27 C179.76 409.27 179.43 409.27 179.09 409.27 Z M-160.91 412.27 C-160.91 416.23 -160.91 420.19 -160.91 424.27 C-160.58 424.27 -160.25 424.27 -159.91 424.27 C-159.91 420.31 -159.91 416.35 -159.91 412.27 C-160.24 412.27 -160.57 412.27 -160.91 412.27 Z M180.09 422.27 C180.09 425.9 180.09 429.53 180.09 433.27 C180.42 433.27 180.75 433.27 181.09 433.27 C181.09 429.64 181.09 426.01 181.09 422.27 C180.76 422.27 180.43 422.27 180.09 422.27 Z M-161.91 428.27 C-161.91 431.57 -161.91 434.87 -161.91 438.27 C-161.58 438.27 -161.25 438.27 -160.91 438.27 C-160.91 434.97 -160.91 431.67 -160.91 428.27 C-161.24 428.27 -161.57 428.27 -161.91 428.27 Z M181.09 438.27 C181.09 440.91 181.09 443.55 181.09 446.27 C181.42 446.27 181.75 446.27 182.09 446.27 C182.09 443.63 182.09 440.99 182.09 438.27 C181.76 438.27 181.43 438.27 181.09 438.27 Z " fill="#FFFFFF" transform="translate(291.90625,-0.2734375)"/>
<path d="M0 0 C3.93 1.93 4.56 1.89 8.56 0.75 C10.16 0.14 11.74 -0.51 13.31 -1.19 C23.4 -5.3 32.65 -6.38 43.31 -3.69 C44 -3.51 44.69 -3.34 45.4 -3.16 C61.58 1.26 72.97 12.77 81.4 26.81 C100.15 62.65 90.5 105.44 79.08 142.01 C69.32 171.99 54.25 200.12 37.56 226.75 C37.1 227.5 36.63 228.24 36.15 229.01 C29.84 239.02 22.66 248.33 15.28 257.56 C14.06 259.11 12.88 260.69 11.72 262.29 C11.12 263.11 10.51 263.94 9.89 264.79 C9.34 265.55 8.8 266.3 8.24 267.08 C6.56 268.75 6.56 268.75 2.56 268.75 C0.74 266.85 -0.76 265.05 -2.31 262.94 C-2.78 262.32 -3.25 261.69 -3.74 261.05 C-4.77 259.69 -5.79 258.32 -6.81 256.94 C-8.47 254.7 -10.16 252.48 -11.85 250.26 C-20 239.45 -27.42 228.32 -34.44 216.75 C-34.86 216.05 -35.29 215.35 -35.73 214.64 C-56.51 180.62 -73.57 143.25 -80.44 103.75 C-80.61 102.75 -80.79 101.75 -80.97 100.72 C-82.34 92.11 -82.81 83.69 -82.81 74.99 C-82.81 72.82 -82.85 70.64 -82.89 68.47 C-83.05 47.65 -75.64 27.13 -61.44 11.66 C-45 -4.01 -20.97 -11.35 0 0 Z M-53.44 50.75 C-53.77 51.74 -54.1 52.73 -54.44 53.75 C-53.78 53.75 -53.12 53.75 -52.44 53.75 C-53.95 57.19 -56.05 60 -58.32 62.97 C-61.24 67.62 -61.1 73.46 -60.44 78.75 C-58.48 84.83 -55.69 89.5 -50.19 92.86 C-44.31 95.86 -38.48 97 -32.1 95.03 C-24.3 91.83 -20.25 87.1 -16.44 79.75 C-14.14 72.86 -15.5 67.49 -18.29 61.02 C-19.68 58.28 -21.41 56.05 -23.44 53.75 C-23.93 52.26 -23.93 52.26 -24.44 50.75 C-4.64 50.75 15.16 50.75 35.56 50.75 C33.7 55.4 32.27 57.44 29 60.91 C24.48 66.71 24.74 73.74 25.56 80.75 C27.68 86.44 31.65 90.34 36.56 93.75 C42.07 96.26 47.34 96.78 53.09 94.95 C59.74 92.05 63.3 88.19 66.56 81.75 C68.73 75.25 67.84 69.88 64.89 63.86 C61.89 59.1 57.87 56.14 52.69 54.06 C51.14 53.41 51.14 53.41 49.56 52.75 C49.07 51.26 49.07 51.26 48.56 49.75 C51.86 49.75 55.16 49.75 58.56 49.75 C51.44 40.57 41.22 32.92 29.56 30.75 C26.98 30.6 24.45 30.51 21.88 30.5 C20.8 30.49 20.8 30.49 19.71 30.48 C14.72 30.53 10.97 31.44 6.41 33.28 C3.73 33.96 2.1 32.79 -0.25 31.54 C-19.34 24.69 -40.91 37.2 -53.44 50.75 Z " fill="#FFFFFF" transform="translate(297.4375,404.25)"/>
<path d="M0 0 C0.99 0 1.98 0 3 0 C3.11 0.71 3.22 1.43 3.33 2.16 C4.28 7.91 5.58 12.72 8 18 C8 18.99 8 19.98 8 21 C7.42 20.89 6.84 20.79 6.24 20.68 C0.88 19.85 -2.39 19.72 -7 23 C-9.15 25.23 -11.11 27.55 -13 30 C-12.41 29.87 -11.83 29.74 -11.23 29.61 C-1.05 28.44 6.24 34.43 14.3 39.88 C19.12 43.06 24.39 42.61 30 42 C33.34 40.78 36.09 39.03 39 37 C40.62 35.92 42.25 34.83 43.88 33.75 C44.59 33.25 45.31 32.75 46.05 32.23 C49.47 30.07 52.25 29.89 56.19 29.94 C57.09 29.95 57.99 29.96 58.92 29.96 C59.61 29.98 60.29 29.99 61 30 C58.47 25.36 56.08 22.83 51.24 20.61 C47.4 19.56 43.84 20.18 40 21 C40.46 17.93 41.19 15.59 42.5 12.75 C44.37 8.62 44.71 4.48 45 0 C45.99 0 46.98 0 48 0 C48.97 1.41 49.94 2.83 50.84 4.28 C52.85 7.25 55.47 9.6 58.06 12.06 C65.21 18.86 68.32 24.97 69.44 34.88 C69.34 40.15 66.57 44.52 64 49 C63.34 49 62.68 49 62 49 C61.71 48.03 61.42 47.06 61.12 46.06 C60.36 42.89 60.36 42.89 58 42 C48.55 41.35 42.76 44.37 35.09 49.63 C30.27 52.79 26.09 53.46 20.49 52.68 C15.58 51.34 11.34 48.59 7 46 C1.25 42.58 -3.24 41.14 -10 42 C-12.36 42.89 -12.36 42.89 -13.12 46.06 C-13.41 47.03 -13.7 48 -14 49 C-17 48 -17 48 -18.17 46.29 C-21.4 39.24 -22.24 32.63 -20.25 25.06 C-17.09 20.76 -13.84 20.86 -8.77 19.86 C-6 19.24 -6 19.24 -4.51 17.48 C-3.11 14.44 -2.96 12.2 -3.56 8.94 C-4 6 -4 6 -2.25 2.62 C-1.51 1.76 -0.76 0.89 0 0 Z " fill="#FFFFFF" transform="translate(278,344)"/>
</svg>
