<?xml version="1.0" encoding="UTF-8"?>
<!-- Generator: https://ezgif.com/png-to-svg -->
<svg version="1.1" xmlns="http://www.w3.org/2000/svg" width="512" height="512" viewBox="58.957 65.332 277.536 277.536" preserveAspectRatio="xMidYMid meet">
<path d="M0 0 C0.01 0.67 0.02 1.34 0.03 2.03 C0.47 27.07 3.89 47.97 20 68 C20.84 68.81 20.84 68.81 21.7 69.64 C23 71 23 71 23 73 C23.59 73.27 24.18 73.53 24.79 73.8 C27.06 75.03 28.53 76.33 30.38 78.12 C45.87 91.9 65.86 97.06 86.12 97.62 C87.27 97.66 88.42 97.7 89.6 97.74 C92.4 97.84 95.2 97.92 98 98 C98.33 98.66 98.66 99.32 99 100 C91.51 110.5 83.86 120.87 76.02 131.11 C71.61 136.86 67.28 142.66 63 148.5 C57.41 156.13 51.71 163.66 45.96 171.16 C41.58 176.9 37.26 182.68 33 188.5 C27.42 196.12 21.72 203.64 15.98 211.14 C10.83 217.87 5.78 224.67 0.78 231.52 C-0.81 233.69 -2.4 235.85 -4 238 C-4.62 238.84 -5.24 239.68 -5.89 240.54 C-6.51 241.37 -7.13 242.2 -7.78 243.05 C-8.35 243.8 -8.91 244.56 -9.5 245.34 C-9.99 245.89 -10.49 246.44 -11 247 C-11.66 247 -12.32 247 -13 247 C-13 198.49 -13 149.98 -13 100 C-38.08 100 -63.16 100 -89 100 C-89 95.49 -88.72 95.21 -85.75 92.17 C-85.06 91.45 -84.37 90.74 -83.65 90 C-82.92 89.25 -82.19 88.51 -81.44 87.75 C-80.02 86.29 -78.6 84.82 -77.18 83.36 C-76.48 82.64 -75.78 81.91 -75.06 81.17 C-72.49 78.46 -70.04 75.67 -67.61 72.85 C-65.29 70.18 -62.9 67.59 -60.5 65 C-57.48 61.72 -54.48 58.43 -51.56 55.06 C-47.94 50.88 -44.17 46.84 -40.4 42.78 C-37.73 39.89 -35.08 36.98 -32.5 34 C-29.41 30.43 -26.21 26.96 -23 23.5 C-17.84 17.93 -12.81 12.28 -7.87 6.52 C-7.15 5.69 -6.43 4.86 -5.69 4 C-5.03 3.24 -4.38 2.47 -3.7 1.69 C-2 0 -2 0 0 0 Z " fill="#020307" transform="translate(192,81)"/>
<path d="M0 0 C4.37 2.19 7.44 4.83 10 9 C11.45 15.01 11.21 18.5 8 24 C4.11 28 0.83 30.15 -4.75 30.31 C-9.61 30.26 -12.27 29.28 -16 26 C-19.5 22.02 -20.37 18.44 -20.28 13.12 C-19.62 8.11 -16.99 4.92 -13.38 1.56 C-8.8 -0.56 -4.96 -0.8 0 0 Z " fill="#020306" transform="translate(281,81)"/>
</svg>
