<?xml version="1.0" encoding="UTF-8"?>
<!-- Generator: https://ezgif.com/webp-to-svg -->
<svg version="1.1" xmlns="http://www.w3.org/2000/svg" width="50" height="50">
<path d="M0 0 C0.72 0.31 1.43 0.62 2.17 0.95 C4.94 1.98 7.4 2.46 10.31 2.88 C15.55 3.78 19.46 5.22 24 8 C24.96 10.88 25.11 12.7 25.06 15.69 C25.05 16.5 25.04 17.3 25.04 18.14 C25.02 18.75 25.01 19.37 25 20 C25.99 20.33 26.98 20.66 28 21 C28 23.64 28 26.28 28 29 C27.34 29 26.68 29 26 29 C26 30.65 26 32.3 26 34 C24.1 34.79 22.21 35.58 20.31 36.38 C19.26 36.82 18.2 37.26 17.11 37.71 C15.57 38.35 15.57 38.35 14 39 C12.67 39.58 12.67 39.58 11.32 40.18 C7.92 41.39 5.49 40.8 2 40 C1.05 39.51 0.1 39.01 -0.88 38.5 C-4.41 36.8 -7.27 36.48 -11.14 36.21 C-13 36 -13 36 -14 35 C-14.17 33 -14.17 33 -14.19 30.56 C-14.2 29.76 -14.22 28.96 -14.23 28.13 C-14 26 -14 26 -12 24 C-11.81 20.61 -11.73 17.25 -11.79 13.85 C-11.73 11.72 -11.73 11.72 -11 8 C-8.13 6.16 -8.13 6.16 -5 5 C-2.19 2.44 -2.19 2.44 0 0 Z " fill="#CC0025" transform="translate(18,4)"/>
<path d="M0 0 C1.05 0.46 1.05 0.46 2.12 0.94 C5.09 2.03 7.88 2.56 11 3 C11 3.33 11 3.66 11 4 C9.02 4 7.04 4 5 4 C5.33 5.98 5.66 7.96 6 10 C6.66 10 7.32 10 8 10 C8.33 11.32 8.66 12.64 9 14 C8.34 14 7.68 14 7 14 C7 14.99 7 15.98 7 17 C7.99 16.34 8.98 15.68 10 15 C9.34 17.97 8.68 20.94 8 24 C5.79 23.48 3.57 22.96 1.36 22.44 C-1.26 21.88 -1.26 21.88 -5 22 C-4.67 22.66 -4.34 23.32 -4 24 C-0.1 24.2 3.79 24.38 7.69 24.56 C8.79 24.62 9.89 24.67 11.03 24.73 C12.63 24.8 12.63 24.8 14.26 24.88 C15.24 24.93 16.22 24.97 17.23 25.02 C19.96 25 22.35 24.63 25 24 C24.34 26.64 23.68 29.28 23 32 C22.34 31.34 21.68 30.68 21 30 C20.01 30.33 19.02 30.66 18 31 C16.42 31.14 14.84 31.22 13.25 31.28 C11.87 31.34 11.87 31.34 10.47 31.39 C9.03 31.45 9.03 31.45 7.56 31.5 C5.67 31.57 3.77 31.64 1.88 31.72 C1.04 31.75 0.2 31.78 -0.67 31.81 C-2.91 31.99 -4.87 32.26 -7 33 C-7.33 33.66 -7.66 34.32 -8 35 C-9.65 34.67 -11.3 34.34 -13 34 C-13.03 32.52 -13.05 31.04 -13.06 29.56 C-13.07 28.74 -13.09 27.92 -13.1 27.07 C-13 25 -13 25 -12 24 C-11.9 20.63 -11.8 17.27 -11.83 13.9 C-11.77 11.76 -11.77 11.76 -11 8 C-8.13 6.16 -8.13 6.16 -5 5 C-2.19 2.44 -2.19 2.44 0 0 Z " fill="#AF0422" transform="translate(18,4)"/>
<path d="M0 0 C6.55 -0.57 11 1.37 17 4 C17.49 10.93 17.49 10.93 18 18 C18.99 18 19.98 18 21 18 C21 19.32 21 20.64 21 22 C20.34 21.67 19.68 21.34 19 21 C19.33 20.34 19.66 19.68 20 19 C17.53 19.34 17.53 19.34 15 20 C14.67 20.66 14.34 21.32 14 22 C14 21.34 14 20.68 14 20 C6.41 20 -1.18 20 -9 20 C-9.33 19.01 -9.66 18.02 -10 17 C-9.34 17 -8.68 17 -8 17 C-7.67 16.34 -7.34 15.68 -7 15 C-6.01 15.66 -5.02 16.32 -4 17 C-2.34 17.36 -0.67 17.7 1 18 C1.66 18.33 2.32 18.66 3 19 C3 17.02 3 15.04 3 13 C2.67 13.33 2.34 13.66 2 14 C1.67 13.01 1.34 12.02 1 11 C1.33 10.34 1.66 9.68 2 9 C2.66 9 3.32 9 4 9 C3.67 7.68 3.34 6.36 3 5 C2.34 5 1.68 5 1 5 C0.67 3.35 0.34 1.7 0 0 Z " fill="#670916" transform="translate(23,9)"/>
<path d="M0 0 C-0.66 2.64 -1.32 5.28 -2 8 C-2.66 7.34 -3.32 6.68 -4 6 C-4.99 6.33 -5.98 6.66 -7 7 C-8.58 7.14 -10.16 7.22 -11.75 7.28 C-12.67 7.32 -13.59 7.36 -14.53 7.39 C-15.97 7.45 -15.97 7.45 -17.44 7.5 C-19.33 7.57 -21.23 7.64 -23.12 7.72 C-23.96 7.75 -24.8 7.78 -25.67 7.81 C-27.89 7.99 -29.85 8.4 -32 9 C-33.33 9.33 -34.67 9.67 -36 10 C-36 7.36 -36 4.72 -36 2 C-34.55 2.03 -34.55 2.03 -33.06 2.06 C-30.13 2.36 -30.13 2.36 -29 1 C-27.24 0.92 -25.48 0.92 -23.72 0.94 C-22.12 0.95 -22.12 0.95 -20.48 0.96 C-18.21 0.99 -15.93 1.01 -13.66 1.04 C-12.59 1.05 -11.51 1.05 -10.41 1.06 C-9.42 1.07 -8.43 1.09 -7.41 1.1 C-4.57 0.98 -2.93 0 0 0 Z " fill="#B3B4B6" transform="translate(43,28)"/>
<path d="M0 0 C0.99 0 1.98 0 3 0 C3.33 1.98 3.66 3.96 4 6 C4.66 6 5.32 6 6 6 C6.33 7.32 6.66 8.64 7 10 C6.34 10 5.68 10 5 10 C5 10.99 5 11.98 5 13 C5.99 12.34 6.98 11.68 8 11 C7.34 13.97 6.68 16.94 6 20 C3.79 19.48 1.57 18.96 -0.64 18.44 C-3.26 17.88 -3.26 17.88 -7 18 C-6.67 17.01 -6.34 16.02 -6 15 C-4.02 15 -2.04 15 0 15 C-0.66 13.68 -1.32 12.36 -2 11 C-2.33 11.99 -2.66 12.98 -3 14 C-3.99 13.67 -4.98 13.34 -6 13 C-6 11.02 -6 9.04 -6 7 C-5.07 6.66 -5.07 6.66 -4.12 6.31 C-1.39 4.62 -0.95 3.01 0 0 Z " fill="#707275" transform="translate(20,8)"/>
<path d="M0 0 C2.31 0.33 4.62 0.66 7 1 C6.67 1.66 6.34 2.32 6 3 C6.99 3.66 7.98 4.32 9 5 C9 5.33 9 5.66 9 6 C9.99 6.33 10.98 6.66 12 7 C12.69 9.06 12.69 9.06 13 11 C12.34 11 11.68 11 11 11 C9.63 12.29 8.29 13.62 7 15 C6.34 14.34 5.68 13.68 5 13 C4.67 14.32 4.34 15.64 4 17 C-0.95 17 -5.9 17 -11 17 C-11.33 16.01 -11.66 15.02 -12 14 C-11.34 14 -10.68 14 -10 14 C-9.67 13.34 -9.34 12.68 -9 12 C-8.01 12.66 -7.02 13.32 -6 14 C-4.34 14.36 -2.67 14.7 -1 15 C-0.34 15.33 0.32 15.66 1 16 C1 14.02 1 12.04 1 10 C0.67 10.33 0.34 10.66 0 11 C-0.33 10.01 -0.66 9.02 -1 8 C-0.67 7.34 -0.34 6.68 0 6 C0.66 6 1.32 6 2 6 C1.34 4.02 0.68 2.04 0 0 Z " fill="#1D0D0F" transform="translate(25,12)"/>
<path d="M0 0 C3 3.62 3 3.62 3 7 C1.54 7.36 0.08 7.71 -1.38 8.06 C-2.59 8.36 -2.59 8.36 -3.84 8.66 C-6 9 -6 9 -8 8 C-10.34 8.64 -12.67 9.31 -15 10 C-15.99 10 -16.98 10 -18 10 C-18.99 10.33 -19.98 10.66 -21 11 C-21.99 10.34 -22.98 9.68 -24 9 C-25.66 8.62 -27.32 8.27 -29 8 C-28.67 6.35 -28.34 4.7 -28 3 C-27.67 3.99 -27.34 4.98 -27 6 C-26.34 6 -25.68 6 -25 6 C-24.67 5.01 -24.34 4.02 -24 3 C-24 3.99 -24 4.98 -24 6 C-22.76 5.84 -21.52 5.67 -20.25 5.5 C-14.5 4.85 -8.78 4.91 -3 5 C-2.67 4.34 -2.34 3.68 -2 3 C-1.67 3.33 -1.34 3.66 -1 4 C-0.67 2.68 -0.34 1.36 0 0 Z " fill="#64181B" transform="translate(39,30)"/>
<path d="M0 0 C1.65 0.33 3.3 0.66 5 1 C4.01 1.5 4.01 1.5 3 2 C2.34 5.03 2.34 5.03 2 8 C0.35 8.33 -1.3 8.66 -3 9 C-2.66 11.97 -2.66 11.97 -2 15 C-1.34 15.33 -0.68 15.66 0 16 C0.33 14.68 0.66 13.36 1 12 C3.14 14.14 3.43 15.13 4 18 C2.89 17.96 1.77 17.92 0.62 17.88 C-3.04 17.59 -3.04 17.59 -5 20 C-5 17.36 -5 14.72 -5 12 C-5.66 12.66 -6.32 13.32 -7 14 C-7.33 12.02 -7.66 10.04 -8 8 C-3.25 5 -3.25 5 -1 5 C-0.67 3.35 -0.34 1.7 0 0 Z " fill="#550914" transform="translate(17,6)"/>
<path d="M0 0 C-0.66 2.64 -1.32 5.28 -2 8 C-2.66 7.34 -3.32 6.68 -4 6 C-4.99 6.33 -5.98 6.66 -7 7 C-8.39 7.07 -9.79 7.09 -11.19 7.06 C-13.07 7.03 -13.07 7.03 -15 7 C-15.33 5.02 -15.66 3.04 -16 1 C-14.84 1.02 -14.84 1.02 -13.66 1.04 C-12.16 1.05 -12.16 1.05 -10.62 1.06 C-9.13 1.08 -9.13 1.08 -7.6 1.1 C-4.67 0.99 -2.98 0 0 0 Z " fill="#B8BBBC" transform="translate(43,28)"/>
<path d="M0 0 C-1.25 1.56 -1.25 1.56 -3 3 C-4.33 2.67 -5.67 2.33 -7 2 C-9.35 2.62 -11.68 3.28 -14 4 C-14.99 4 -15.98 4 -17 4 C-17.99 4.33 -18.98 4.66 -20 5 C-20.99 4.34 -21.98 3.68 -23 3 C-24.66 2.62 -26.32 2.27 -28 2 C-28 1.67 -28 1.34 -28 1 C-24.83 0.83 -21.67 0.66 -18.5 0.5 C-17.17 0.43 -17.17 0.43 -15.81 0.36 C-10.53 0.08 -5.29 -0.05 0 0 Z " fill="#150001" transform="translate(38,36)"/>
<path d="M0 0 C0.33 0.66 0.66 1.32 1 2 C-4.2 4.24 -7.34 5.56 -13 4 C-13 3.34 -13 2.68 -13 2 C-14.32 1.34 -15.64 0.68 -17 0 C-16.11 0.14 -16.11 0.14 -15.21 0.29 C-9.89 1.04 -4.53 -1.51 0 0 Z " fill="#7F0016" transform="translate(34,38)"/>
<path d="M0 0 C1.65 0 3.3 0 5 0 C5.33 1.98 5.66 3.96 6 6 C2.7 6.33 -0.6 6.66 -4 7 C-4.33 5.35 -4.66 3.7 -5 2 C-4.34 2 -3.68 2 -3 2 C-2.01 3.48 -2.01 3.48 -1 5 C-0.67 4.34 -0.34 3.68 0 3 C-0.66 2.67 -1.32 2.34 -2 2 C-1.34 2 -0.68 2 0 2 C0 1.34 0 0.68 0 0 Z " fill="#898889" transform="translate(22,29)"/>
<path d="M0 0 C0 3.11 -0.46 5.94 -1 9 C-1.6 8.86 -2.21 8.71 -2.83 8.56 C-3.63 8.38 -4.43 8.19 -5.25 8 C-6.04 7.81 -6.83 7.63 -7.64 7.44 C-10.26 6.88 -10.26 6.88 -14 7 C-13.67 6.01 -13.34 5.02 -13 4 C-12.31 4.05 -11.63 4.09 -10.92 4.14 C-10.02 4.18 -9.12 4.21 -8.19 4.25 C-6.85 4.32 -6.85 4.32 -5.48 4.39 C-2.83 4.24 -2.83 4.24 -1.18 1.98 C-0.79 1.33 -0.4 0.67 0 0 Z " fill="#583136" transform="translate(27,19)"/>
<path d="M0 0 C1.21 0.03 1.21 0.03 2.44 0.06 C2.11 2.37 1.78 4.68 1.44 7.06 C0.12 6.73 -1.2 6.4 -2.56 6.06 C-2.94 4.41 -3.28 2.74 -3.56 1.06 C-2.56 0.06 -2.56 0.06 0 0 Z " fill="#979DA2" transform="translate(22.5625,16.9375)"/>
<path d="M0 0 C0.66 1.32 1.32 2.64 2 4 C2.99 3.67 3.98 3.34 5 3 C5 3.66 5 4.32 5 5 C6.65 5.33 8.3 5.66 10 6 C9.01 6.5 9.01 6.5 8 7 C7.67 7.66 7.34 8.32 7 9 C7 8.34 7 7.68 7 7 C4.36 7 1.72 7 -1 7 C-1.33 6.34 -1.66 5.68 -2 5 C-1.06 2.38 -1.06 2.38 0 0 Z " fill="#443437" transform="translate(30,22)"/>
<path d="M0 0 C1.65 0 3.3 0 5 0 C4.42 2.39 3.78 4.67 3 7 C2.01 6.67 1.02 6.34 0 6 C0 4.02 0 2.04 0 0 Z " fill="#A3A7AA" transform="translate(14,15)"/>
<path d="M0 0 C2.14 2.14 2.43 3.13 3 6 C1.89 5.96 0.77 5.92 -0.38 5.88 C-4.04 5.59 -4.04 5.59 -6 8 C-6 6.02 -6 4.04 -6 2 C-5.67 2.66 -5.34 3.32 -5 4 C-3.68 4 -2.36 4 -1 4 C-0.67 2.68 -0.34 1.36 0 0 Z " fill="#181415" transform="translate(18,18)"/>
<path d="M0 0 C5.75 0.88 5.75 0.88 8 2 C8 2.66 8 3.32 8 4 C7.26 3.84 6.52 3.67 5.75 3.5 C2.81 2.88 2.81 2.88 -1 3 C-0.67 2.01 -0.34 1.02 0 0 Z " fill="#A3A7AB" transform="translate(14,23)"/>
<path d="M0 0 C1.68 0.29 3.34 0.62 5 1 C4.01 1.5 4.01 1.5 3 2 C2.35 4.02 2.35 4.02 2 6 C1.34 6 0.68 6 0 6 C-0.38 4.34 -0.71 2.68 -1 1 C-0.67 0.67 -0.34 0.34 0 0 Z " fill="#820417" transform="translate(17,6)"/>
<path d="M0 0 C0.33 1.32 0.66 2.64 1 4 C-1.31 4 -3.62 4 -6 4 C-5.34 3.67 -4.68 3.34 -4 3 C-4 2.34 -4 1.68 -4 1 C-2 0 -2 0 0 0 Z " fill="#0B1012" transform="translate(39,24)"/>
</svg>
