<?xml version="1.0" encoding="UTF-8"?>
<!-- Generator: https://ezgif.com/png-to-svg -->
<svg version="1.1" xmlns="http://www.w3.org/2000/svg" width="512" height="512" viewBox="-28.391 -36.658 452.637 452.637" preserveAspectRatio="xMidYMid meet">
<path d="M0 0 C3.62 2.14 6.73 4.66 9.89 7.41 C14.72 11.16 20.12 13.92 25.48 16.82 C28.72 18.61 28.72 18.61 29.72 19.61 C31.5 19.73 33.28 19.79 35.07 19.82 C36.2 19.85 37.33 19.87 38.49 19.9 C39.72 19.93 40.95 19.96 42.22 19.98 C92.17 21.53 168.45 35.34 205.72 72.61 C206.21 79.53 205.46 86.44 204.7 93.31 C204.59 94.31 204.49 95.31 204.38 96.34 C204.04 99.51 203.69 102.69 203.35 105.86 C202.9 110.01 202.46 114.16 202.01 118.31 C201.85 119.84 201.85 119.84 201.68 121.4 C200.66 131.07 199.76 140.75 198.91 150.43 C198.74 152.37 198.56 154.31 198.38 156.25 C197.6 165.78 202.31 174.61 206.93 182.73 C209.45 188.68 208.2 196.2 205.97 202.05 C204.3 205.97 202.54 208.08 199.72 211.61 C221.01 210.62 221.01 210.62 242.72 209.61 C242.72 223.1 242.72 223.1 242.07 227.6 C241.93 228.57 241.8 229.55 241.66 230.55 C241.51 231.52 241.37 232.49 241.22 233.48 C240.94 235.46 240.66 237.44 240.38 239.41 C240.19 240.7 240.19 240.7 240 242.01 C239.7 244.86 239.72 247.74 239.72 250.61 C235.1 250.94 230.48 251.27 225.72 251.61 C225.59 252.72 225.45 253.83 225.31 254.98 C224.79 259.21 224.27 263.43 223.75 267.66 C223.53 269.47 223.31 271.28 223.09 273.09 C221.55 285.64 219.78 298.13 217.72 310.61 C216.6 310.63 215.48 310.65 214.32 310.67 C210.1 310.75 205.88 310.88 201.66 311.02 C199.85 311.08 198.03 311.12 196.22 311.15 C184.17 311.35 177.01 312.37 167.72 320.61 C164.24 322.91 160.64 325.01 157.04 327.11 C156.07 327.67 155.11 328.24 154.11 328.82 C146.13 333.45 138.06 337.67 129.72 341.61 C128.66 342.12 127.6 342.62 126.5 343.14 C49.77 379.69 49.77 379.69 35.05 375.59 C33.82 375.12 32.59 374.65 31.33 374.16 C30.66 373.91 29.98 373.65 29.29 373.39 C27.16 372.58 25.03 371.75 22.91 370.92 C21.5 370.38 20.09 369.85 18.67 369.31 C11.77 366.68 4.97 363.91 -1.73 360.79 C-4.33 359.59 -6.94 358.45 -9.57 357.32 C-65.5 333.39 -65.5 333.39 -73.28 325.61 C-76.33 325.65 -79.37 325.76 -82.42 325.91 C-83.36 325.96 -84.3 326 -85.27 326.05 C-87.3 326.14 -89.33 326.24 -91.36 326.33 C-94.52 326.48 -97.68 326.62 -100.85 326.76 C-113.65 327.3 -113.65 327.3 -126.44 328.12 C-128.49 328.28 -130.54 328.42 -132.59 328.55 C-134.99 328.71 -137.38 328.91 -139.77 329.15 C-142.86 329.33 -145.29 329.42 -148.28 328.61 C-151.05 325.95 -152.57 323.01 -154.28 319.61 C-154.79 318.99 -155.31 318.37 -155.83 317.74 C-161.42 309.51 -155.98 291.1 -154.87 281.71 C-154.46 278.22 -154.08 274.74 -153.75 271.25 C-152.27 255.7 -150.94 242.62 -138.46 231.91 C-134.6 229.12 -132.02 228.49 -127.39 228.29 C-125.98 228.23 -125.98 228.23 -124.55 228.17 C-123.57 228.13 -122.6 228.09 -121.59 228.05 C-120.6 228 -119.61 227.96 -118.6 227.92 C-116.16 227.81 -113.72 227.71 -111.28 227.61 C-111.66 226.74 -112.05 225.86 -112.45 224.96 C-115.5 217.84 -117.93 210.81 -119.59 203.23 C-119.83 202.15 -119.83 202.15 -120.07 201.04 C-124.32 180.55 -124.2 158.24 -116.2 138.8 C-114.46 132.86 -115.65 126.67 -116.28 120.61 C-116.43 118.99 -116.59 117.37 -116.74 115.75 C-117.35 109.46 -117.98 103.17 -118.62 96.89 C-118.9 94.18 -119.17 91.48 -119.44 88.77 C-119.52 87.95 -119.61 87.14 -119.69 86.29 C-120.15 81.72 -120.56 77.21 -120.28 72.61 C-118.07 70.53 -118.07 70.53 -114.9 68.8 C-114.33 68.47 -113.75 68.15 -113.16 67.81 C-111.89 67.11 -110.61 66.41 -109.33 65.72 C-107.2 64.57 -105.1 63.37 -103 62.16 C-89.56 54.46 -75.76 47.92 -61.4 42.11 C-60.54 41.76 -59.68 41.41 -58.79 41.05 C-57.98 40.73 -57.18 40.41 -56.35 40.08 C-55.63 39.79 -54.92 39.51 -54.18 39.22 C-52.28 38.61 -52.28 38.61 -49.28 38.61 C-49.28 37.29 -49.28 35.97 -49.28 34.61 C-50.6 34.94 -51.92 35.27 -53.28 35.61 C-53.74 26.67 -53.52 19.58 -49.28 11.61 C-48.72 10.51 -48.72 10.51 -48.14 9.39 C-38.9 -7.05 -15.56 -7.15 0 0 Z " fill="#060405" transform="translate(157.27734375,3.390625)"/>
<path d="M0 0 C2.11 -0.14 2.11 -0.14 5.76 0.18 C8.44 2.75 9.69 4.26 9.98 8.01 C9.86 9.03 9.73 10.05 9.6 11.1 C9.41 12.82 9.41 12.82 9.21 14.57 C8.99 16.35 8.99 16.35 8.76 18.18 C8.53 20.52 8.3 22.87 8.08 25.22 C7.83 27.6 7.58 29.98 7.32 32.36 C7.2 33.56 7.08 34.75 6.95 35.98 C6.31 42.1 5.45 48.06 4.16 54.08 C3.51 57.52 3.57 60.95 3.59 64.44 C2.22 68.97 -0.17 71.75 -4.24 74.18 C-8.83 75.14 -13.25 75.07 -17.93 74.93 C-19.76 74.94 -19.76 74.94 -21.63 74.96 C-30.5 74.84 -30.5 74.84 -33.62 72.03 C-35.61 68.53 -35.56 66.82 -35.15 62.83 C-35.06 61.88 -35.06 61.88 -34.97 60.9 C-34.75 58.66 -34.49 56.42 -34.24 54.18 C-34.05 52.37 -33.87 50.56 -33.69 48.76 C-33.18 43.76 -32.59 38.77 -31.98 33.78 C-31.74 31.7 -31.5 29.62 -31.28 27.53 C-30.95 24.48 -30.58 21.44 -30.2 18.4 C-30.11 17.47 -30.02 16.55 -29.92 15.6 C-29.14 9.71 -27.47 6.52 -23.15 2.44 C-19.6 0.1 -15.93 0.18 -11.8 0.24 C-10.99 0.22 -10.19 0.21 -9.35 0.19 C-7.75 0.16 -6.15 0.16 -4.55 0.18 C-2.25 0.21 -2.25 0.21 0 0 Z " fill="#F5F5F5" transform="translate(48.23876953125,243.82373046875)"/>
<path d="M0 0 C15.47 -0.58 29.83 0.98 45 4 C45.72 4.13 46.44 4.27 47.18 4.4 C76.83 9.94 106.63 22.24 132.86 36.84 C134.91 37.95 136.98 38.97 139.07 39.99 C142.4 41.67 145.31 43.38 148 46 C149.29 50.18 148.67 53.73 148 58 C147.84 60.48 147.69 62.96 147.56 65.44 C147.34 68.48 147.12 71.42 146.49 74.4 C145.82 77.96 145.72 81.52 145.56 85.12 C145.23 91.88 144.47 98.39 143 105 C140.58 102.58 140.74 101.93 140.69 98.61 C140.67 97.73 140.64 96.86 140.62 95.96 C140.58 94.12 140.55 92.29 140.52 90.45 C140.37 85.36 139.99 82.28 137 78 C136.7 75.89 136.7 75.89 136.69 73.81 C136.21 68.09 133.73 63.33 130 59 C128.99 58.54 127.98 58.07 126.95 57.59 C123.13 55.53 122.8 53.96 121.56 49.88 C117.8 39.12 110.9 31.15 100.73 25.81 C100.16 25.54 99.59 25.27 99 25 C99.01 26.06 99.02 27.12 99.04 28.21 C99.04 29.6 99.05 30.99 99.06 32.38 C99.07 33.07 99.08 33.77 99.09 34.49 C99.11 39.77 99.11 39.77 98 42 C97.18 41.82 97.18 41.82 96.34 41.63 C88.61 40 80.84 38.98 73 38 C75 36 75 36 77.36 35.77 C82.66 35.85 87.77 36.07 93 37 C93 35.68 93 34.36 93 33 C92.46 32.85 91.93 32.71 91.38 32.55 C86.76 31.23 82.3 29.74 77.84 27.95 C66.25 23.32 54.17 20.67 42 18 C41.19 17.81 40.37 17.62 39.53 17.42 C32.21 15.8 24.85 15.34 17.38 14.88 C15.44 14.75 15.44 14.75 13.46 14.61 C10.31 14.4 7.16 14.2 4 14 C3.69 14.77 3.39 15.55 3.07 16.34 C2.37 18.08 1.62 19.8 0.81 21.5 C-0.18 24.57 0.01 25.94 1 29 C3.22 31.18 5.59 32.96 8.07 34.84 C10 37 10 37 10.28 40.25 C10.19 41.16 10.09 42.07 10 43 C9.92 42.38 9.84 41.76 9.75 41.12 C9.22 38.88 9.22 38.88 7.31 38.09 C6.55 37.73 5.79 37.37 5 37 C3.07 35.81 1.16 34.6 -0.75 33.38 C-1.73 32.74 -2.72 32.11 -3.73 31.46 C-4.48 30.98 -5.23 30.5 -6 30 C-5.7 23.21 -4.33 17.41 -1.94 11.05 C-0.8 7.35 -0.4 3.85 0 0 Z " fill="#CB0027" transform="translate(197,43)"/>
<path d="M0 0 C1.48 0.02 2.96 0.03 4.44 0.06 C0.86 3.97 -3.66 5.96 -8.31 8.38 C-9.31 8.89 -10.3 9.41 -11.33 9.94 C-20.02 14.39 -28.85 18.49 -37.75 22.5 C-38.4 22.79 -39.05 23.09 -39.72 23.39 C-52.17 28.98 -64.74 34.24 -77.47 39.14 C-78.75 39.63 -80.03 40.13 -81.3 40.64 C-83.18 41.38 -85.07 42.11 -86.96 42.83 C-88.06 43.26 -89.16 43.69 -90.3 44.13 C-96.79 45.98 -101.82 44.98 -107.96 42.53 C-108.66 42.26 -109.36 41.99 -110.08 41.71 C-112.37 40.82 -114.66 39.91 -116.94 39 C-117.72 38.69 -118.51 38.38 -119.32 38.06 C-139.79 30 -159.97 21.07 -179.56 11.06 C-179.56 10.4 -179.56 9.74 -179.56 9.06 C-160.89 7.42 -147.84 10.32 -131.21 18.77 C-126.79 20.93 -122.23 22.44 -117.57 24.01 C-113.42 25.46 -109.41 27.19 -105.38 28.95 C-103.98 29.5 -103.98 29.5 -102.56 30.06 C-101.47 30.5 -100.38 30.95 -99.25 31.4 C-94.27 32.29 -91.46 30.97 -86.94 28.94 C-85.16 28.18 -83.38 27.42 -81.61 26.67 C-80.64 26.25 -79.68 25.83 -78.69 25.4 C-75.34 23.97 -71.98 22.6 -68.61 21.24 C-57.97 16.92 -47.43 12.59 -37.2 7.35 C-23.96 0.59 -14.55 0.18 0 0 Z " fill="#CC0027" transform="translate(296.5625,315.9375)"/>
<path d="M0 0 C0.33 0.66 0.66 1.32 1 2 C0.67 2.66 0.34 3.32 0 4 C-0.04 5.94 -0.07 7.88 -0.09 9.81 C-0.23 19.01 -2.03 25.64 -6.28 33.73 C-14.56 49.49 -14.68 72.5 -10.31 89.44 C-9.59 91.64 -8.82 93.83 -8 96 C-7.63 97.06 -7.25 98.12 -6.87 99.21 C-4.5 105.43 -1.46 110.63 2.55 115.94 C4 118 4 118 5 121 C5.66 121 6.32 121 7 121 C7 121.66 7 122.32 7 123 C-0.92 123 -8.84 123 -17 123 C-30.15 97.46 -36.12 69.41 -27.69 41.12 C-22.58 25.43 -14.43 12.02 -2 1 C-1.34 0.67 -0.68 0.34 0 0 Z " fill="#CD0027" transform="translate(78,108)"/>
<path d="M0 0 C0.66 0 1.32 0 2 0 C2 0.66 2 1.32 2 2 C2.67 2.24 3.33 2.49 4.02 2.74 C6.34 3.72 8.47 4.75 10.67 5.95 C19.74 11.26 19.74 11.26 29.84 12.74 C33.83 11.37 37.19 9.05 40.62 6.63 C43 5 43 5 46 4 C45.43 7.63 44.08 9.26 41.44 11.75 C40.48 12.67 40.48 12.67 39.5 13.61 C39 14.07 38.51 14.53 38 15 C38.81 14.35 38.81 14.35 39.64 13.69 C40.36 13.13 41.08 12.57 41.81 12 C42.87 11.16 42.87 11.16 43.96 10.31 C46 9 46 9 49 9 C53.19 14.53 54.72 21.17 54 28 C51.56 35.51 45.89 42.33 39.43 46.76 C37 48 37 48 34 48 C33.34 40.74 32.68 33.48 32 26 C31.72 27.72 31.45 29.44 31.16 31.21 C30.79 33.46 30.43 35.7 30.06 37.94 C29.88 39.07 29.7 40.21 29.51 41.38 C29.33 42.46 29.16 43.54 28.97 44.65 C28.81 45.65 28.65 46.65 28.48 47.68 C28 50 28 50 27 51 C16.67 52.04 8.77 50.04 0.5 43.81 C-4.48 39.71 -9.25 35.37 -14 31 C-9 26 -9 26 -6.81 24 C-3.03 19.83 -2.27 14.34 -1 9 C3.05 10.57 6.98 12.36 10.91 14.2 C13.09 15.18 13.09 15.18 16 15 C15.26 14.61 14.53 14.23 13.77 13.83 C2.76 7.95 2.76 7.95 0 5 C-0.31 2.25 -0.31 2.25 0 0 Z " fill="#919FAC" transform="translate(144,101)"/>
<path d="M0 0 C1.23 2.8 1.23 2.8 2.19 6.31 C2.67 8.04 2.67 8.04 3.17 9.8 C3.44 10.86 3.72 11.91 4 13 C4.3 13.98 4.3 13.98 4.6 14.97 C6.3 23.55 5.86 34.07 2 42 C-0.93 46.35 -4.47 48.9 -8.94 51.5 C-9.93 52.08 -9.93 52.08 -10.94 52.68 C-19.83 57.78 -28.68 61.48 -39 62 C-39.87 60.23 -40.72 58.46 -41.56 56.69 C-42.04 55.7 -42.51 54.72 -43 53.7 C-44 51 -44 51 -43 48 C-42.34 48.66 -41.68 49.32 -41 50 C-41.5 49.01 -41.99 48.02 -42.5 47 C-44.72 41.62 -44.94 37.5 -42.9 32.07 C-37.86 21.27 -31.93 15.62 -21 11 C-17.53 9.84 -14.64 9.93 -11 10 C-7.45 18.6 -5.56 30.36 -8.86 39.33 C-13.38 45.28 -21.68 49.18 -28 53 C-14.29 49.24 -14.29 49.24 -3.88 40.22 C-2.13 35.82 -2.67 30.99 -2.69 26.31 C-2.67 25.26 -2.66 24.21 -2.64 23.13 C-2.63 16.43 -3.53 11.23 -6 5 C-8.97 5 -11.94 5 -15 5 C-12.37 2.37 -11.33 1.48 -8.06 0.25 C-7.06 -0.14 -7.06 -0.14 -6.04 -0.55 C-3.5 -1.11 -2.33 -1.2 0 0 Z " fill="#93A1AD" transform="translate(129,77)"/>
<path d="M0 0 C7.72 -0.32 7.72 -0.32 11.22 2.3 C13.66 8.03 12.36 13.97 11.22 19.93 C10.99 21.21 10.76 22.49 10.52 23.82 C9.4 27.49 8.2 28.68 5.47 31.24 C4.95 33.18 4.95 33.18 5.16 35.3 C5.21 36.59 5.21 36.59 5.27 37.89 C5.37 39.55 5.37 39.55 5.47 41.24 C5.55 42.87 5.63 44.49 5.71 46.12 C5.94 50.83 6.2 55.54 6.47 60.24 C3.17 60.24 -0.13 60.24 -3.53 60.24 C-3.86 52.98 -4.19 45.72 -4.53 38.24 C-7.5 38.24 -10.47 38.24 -13.53 38.24 C-13.58 39.14 -13.63 40.03 -13.68 40.95 C-14.13 48.23 -14.91 55.13 -16.53 62.24 C-19.5 62.24 -22.47 62.24 -25.53 62.24 C-25.07 48.05 -23.01 34.08 -21.05 20.03 C-20.19 13.77 -19.36 7.51 -18.53 1.24 C-14.2 0.92 -9.88 0.61 -5.55 0.36 C-3.7 0.25 -1.85 0.13 0 0 Z " fill="#F2F2F2" transform="translate(161.52734375,237.7578125)"/>
<path d="M0 0 C3.3 0 6.6 0 10 0 C8.93 11.7 7.78 23.38 6.5 35.06 C6.38 36.17 6.26 37.27 6.14 38.41 C5.34 45.65 4.27 52.82 3 60 C-0.3 60 -3.6 60 -7 60 C-8.93 54.49 -10.64 48.94 -12.19 43.31 C-12.53 42.07 -12.88 40.83 -13.23 39.55 C-13.95 36.23 -14.15 33.38 -14 30 C-14.66 30 -15.32 30 -16 30 C-16.05 31.22 -16.1 32.44 -16.15 33.7 C-16.57 43.27 -17.26 52.57 -19 62 C-22.3 62 -25.6 62 -29 62 C-28.12 54.06 -27.23 46.13 -26.33 38.19 C-26.15 36.66 -25.98 35.12 -25.8 33.59 C-24.9 25.56 -23.97 17.53 -22.93 9.51 C-22.78 8.3 -22.62 7.09 -22.46 5.85 C-22 3 -22 3 -21 1 C-17.7 1 -14.4 1 -11 1 C-8.22 10.28 -5.91 19.5 -4 29 C-3.52 25.85 -3.04 22.71 -2.56 19.56 C-2.43 18.68 -2.29 17.81 -2.15 16.9 C-1.3 11.28 -0.59 5.66 0 0 Z " fill="#F6F6F7" transform="translate(244,234)"/>
<path d="M0 0 C0 2.31 0 4.62 0 7 C-0.66 6.67 -1.32 6.34 -2 6 C-11.12 5.63 -20.29 6.08 -29.4 6.45 C-30.69 6.5 -31.99 6.55 -33.33 6.6 C-36.92 6.74 -40.51 6.88 -44.1 7.03 C-46.4 7.13 -48.69 7.22 -50.98 7.31 C-87.03 8.78 -123.04 10.75 -159.06 12.73 C-162.64 12.93 -166.21 13.12 -169.79 13.32 C-174.18 13.56 -178.57 13.8 -182.96 14.05 C-194.49 14.69 -206.02 15.24 -217.56 15.62 C-222.78 15.81 -227.93 16.15 -233.12 16.78 C-235.27 17.03 -237.41 17.18 -239.58 17.28 C-240.75 17.34 -240.75 17.34 -241.94 17.39 C-242.75 17.43 -243.56 17.46 -244.39 17.5 C-245.26 17.54 -246.12 17.58 -247.02 17.62 C-249.76 17.75 -252.51 17.88 -255.25 18 C-262.17 18.31 -269.08 18.64 -276 19 C-276.7 19.04 -277.4 19.07 -278.12 19.11 C-279.95 19.21 -281.78 19.32 -283.61 19.44 C-284.59 19.5 -285.58 19.56 -286.59 19.62 C-289.26 19.87 -289.26 19.87 -292 22 C-292.04 19.67 -292.04 17.33 -292 15 C-290.24 13.24 -287.69 13.7 -285.29 13.57 C-284.05 13.5 -282.81 13.43 -281.54 13.35 C-280.17 13.28 -278.79 13.21 -277.42 13.13 C-275.99 13.05 -274.57 12.97 -273.15 12.89 C-269.3 12.68 -265.45 12.47 -261.6 12.26 C-257.55 12.04 -253.5 11.81 -249.44 11.58 C-247.81 11.49 -246.18 11.4 -244.55 11.31 C-243.74 11.27 -242.93 11.22 -242.1 11.18 C-239.64 11.04 -237.18 10.9 -234.73 10.77 C-225.81 10.27 -216.89 9.76 -207.98 9.21 C-175.66 7.23 -143.32 5.82 -110.96 4.45 C-88.86 3.51 -66.77 2.45 -44.69 1.21 C-29.77 0.37 -14.95 -0.14 0 0 Z " fill="#C40025" transform="translate(346,295)"/>
<path d="M0 0 C1.39 -0.04 2.79 -0.07 4.18 -0.1 C4.88 -0.14 5.58 -0.18 6.31 -0.21 C10.01 -0.28 11.72 -0.01 14.56 2.43 C16.31 5.77 16.34 7.4 15.8 11.09 C15.68 12.06 15.55 13.04 15.41 14.04 C15.3 14.78 15.18 15.52 15.05 16.27 C11.75 16.27 8.45 16.27 5.05 16.27 C5.05 15.28 5.05 14.29 5.05 13.27 C0.43 13.6 -4.19 13.93 -8.95 14.27 C-8.29 14.93 -7.63 15.59 -6.95 16.27 C-6.57 21.56 -7.24 26.12 -8.37 31.27 C-9.57 37.55 -10.2 43.92 -10.95 50.27 C-6.99 50.27 -3.03 50.27 1.05 50.27 C1.03 49.06 1.01 47.84 0.99 46.59 C0.99 43.35 1.27 40.42 2.05 37.27 C0.07 37.27 -1.91 37.27 -3.95 37.27 C-3.8 35.65 -3.66 34.02 -3.51 32.4 C-3.43 31.49 -3.35 30.59 -3.26 29.66 C-2.95 27.27 -2.95 27.27 -1.95 25.27 C3 25.27 7.95 25.27 13.05 25.27 C12.81 29.24 12.54 33.2 12.22 37.17 C12.11 38.58 12.01 40 11.91 41.41 C11.76 43.53 11.57 45.65 11.37 47.77 C11.26 49.06 11.15 50.35 11.04 51.68 C9.98 55.54 9 57.52 6.05 60.16 C1.94 62.46 -2.55 62.01 -7.13 61.84 C-8.63 61.83 -8.63 61.83 -10.15 61.83 C-17.34 61.7 -17.34 61.7 -19.73 60.02 C-24.45 53.24 -20.08 37.58 -19.14 29.68 C-18.93 27.86 -18.72 26.04 -18.53 24.21 C-18.26 21.55 -17.94 18.88 -17.62 16.22 C-17.55 15.41 -17.47 14.6 -17.39 13.77 C-16.6 7.72 -14.69 5.12 -9.95 1.27 C-6.58 0.27 -3.5 0.24 0 0 Z " fill="#F4F4F4" transform="translate(289.9453125,230.7265625)"/>
<path d="M0 0 C11.28 7.08 24.11 12.54 37.59 11.88 C39.69 12 39.69 12 41.69 14 C41.13 14.33 40.58 14.65 40.01 14.99 C39.28 15.43 38.56 15.86 37.81 16.31 C37.09 16.74 36.37 17.17 35.63 17.61 C33.42 19.02 33.42 19.02 31.69 22 C31.23 24.51 31.23 24.51 31.06 27.19 C30.99 28.09 30.91 28.99 30.84 29.92 C30.76 30.95 30.76 30.95 30.69 32 C29.04 32 27.39 32 25.69 32 C25.69 27.67 25.69 23.33 25.69 19 C24.37 21.31 23.05 23.62 21.69 26 C18.83 25.86 15.98 25.71 13.12 25.56 C12.33 25.52 11.53 25.48 10.7 25.44 C5.98 25.19 1.33 24.92 -3.31 24 C-3.64 23.34 -3.97 22.68 -4.31 22 C-3.61 21.94 -2.92 21.88 -2.2 21.82 C-1.29 21.73 -0.38 21.65 0.56 21.56 C1.47 21.48 2.37 21.4 3.3 21.32 C5.7 21.13 5.7 21.13 7.69 20 C7.12 19.91 6.55 19.83 5.96 19.74 C-7.05 17.48 -17.62 12.86 -26.88 3.38 C-28.51 0.67 -28.67 -0.89 -28.31 -4 C-32.64 -4 -34.27 -1.83 -37.37 1 C-40.16 3.87 -41.74 6.3 -43.31 10 C-43.15 13.45 -41.98 16 -40.31 19 C-45.66 18.68 -48.6 15.5 -52.31 12 C-51.47 4.61 -45.5 -0.45 -39.93 -4.91 C-24.95 -15.26 -14.13 -9.03 0 0 Z " fill="#F1F1F2" transform="translate(132.3125,182)"/>
<path d="M0 0 C0.96 0.16 0.96 0.16 1.94 0.32 C0.65 3.87 -0.88 6.69 -3.13 9.71 C-3.72 10.52 -4.3 11.33 -4.9 12.17 C-6.13 13.85 -7.37 15.53 -8.62 17.19 C-12.1 21.95 -12.1 21.95 -13.18 27.59 C-12.81 28.82 -12.44 30.05 -12.06 31.32 C-11.51 33.4 -10.97 35.49 -10.43 37.58 C-9.79 39.91 -9.14 42.24 -8.5 44.57 C-7.85 46.9 -7.2 49.24 -6.55 51.58 C-6.12 53.13 -6.12 53.13 -5.69 54.7 C-5.06 57.32 -5.06 57.32 -5.06 60.32 C-8.36 60.32 -11.66 60.32 -15.06 60.32 C-15.67 58.31 -15.67 58.31 -16.3 56.27 C-16.84 54.51 -17.39 52.76 -17.93 51 C-18.2 50.12 -18.47 49.24 -18.75 48.33 C-19.01 47.49 -19.28 46.64 -19.55 45.77 C-19.79 44.99 -20.03 44.21 -20.28 43.4 C-21.06 41.06 -21.06 41.06 -23.06 38.32 C-27.5 42.75 -27.83 46.61 -28.25 52.57 C-28.97 61.23 -28.97 61.23 -30.06 62.32 C-31.58 62.39 -33.1 62.4 -34.62 62.38 C-35.45 62.37 -36.27 62.36 -37.12 62.35 C-37.76 62.34 -38.4 62.33 -39.06 62.32 C-39.27 56.15 -38.7 50.5 -37.7 44.43 C-36.84 39.12 -36.21 33.78 -35.56 28.44 C-34.44 19.39 -33.29 10.35 -32.06 1.32 C-28.76 1.32 -25.46 1.32 -22.06 1.32 C-22.2 2.72 -22.35 4.12 -22.5 5.57 C-23.09 11.48 -23.58 17.4 -24.06 23.32 C-23.21 21.96 -23.21 21.96 -22.34 20.57 C-20.33 17.4 -18.29 14.25 -16.23 11.12 C-15.21 9.55 -14.23 7.97 -13.25 6.38 C-9.44 0.69 -6.9 -0.65 0 0 Z " fill="#F0F0F1" transform="translate(214.05859375,235.68359375)"/>
<path d="M0 0 C2.97 0 5.94 0 9 0 C8.19 20.5 5.16 40.75 2 61 C-0.97 61 -3.94 61 -7 61 C-7.29 52.83 -6.16 45.07 -5 37 C-9.95 37 -14.9 37 -20 37 C-19.34 37.99 -18.68 38.98 -18 40 C-17.85 42.25 -17.85 42.25 -17.99 44.85 C-18.06 46.25 -18.06 46.25 -18.13 47.68 C-18.19 48.65 -18.25 49.62 -18.31 50.62 C-18.36 51.6 -18.41 52.58 -18.46 53.59 C-18.86 60.86 -18.86 60.86 -20 62 C-23 62.14 -26 62.04 -29 62 C-28.46 52.25 -27.58 42.6 -26.33 32.91 C-26.06 30.87 -25.8 28.83 -25.55 26.79 C-24.5 18.5 -23.32 10.25 -22 2 C-19.03 2 -16.06 2 -13 2 C-12.7 10.24 -13.6 17.88 -15 26 C-11.04 26 -7.08 26 -3 26 C-2.87 24.46 -2.73 22.92 -2.6 21.33 C-2.42 19.3 -2.24 17.28 -2.06 15.25 C-1.98 14.23 -1.89 13.22 -1.8 12.17 C-1.71 11.19 -1.62 10.21 -1.54 9.2 C-1.46 8.3 -1.38 7.4 -1.3 6.47 C-1 4 -1 4 0 0 Z " fill="#F3F4F4" transform="translate(334,229)"/>
<path d="M0 0 C0 3.63 0 7.26 0 11 C-8.7 11.85 -17.26 12.12 -26 12 C-25.25 12.84 -25.25 12.84 -24.48 13.7 C-22.02 17.52 -23.29 20.64 -24 25 C-21.03 25 -18.06 25 -15 25 C-15.33 28.96 -15.66 32.92 -16 37 C-19.3 37 -22.6 37 -26 37 C-25.98 38.05 -25.96 39.1 -25.94 40.19 C-26 44 -26 44 -27 49 C-20.07 49 -13.14 49 -6 49 C-6.33 52.96 -6.66 56.92 -7 61 C-22.34 61.5 -22.34 61.5 -38 62 C-38 56.36 -37.96 51.55 -37.23 46.08 C-37.07 44.81 -36.9 43.55 -36.73 42.25 C-36.55 40.92 -36.37 39.58 -36.19 38.25 C-36.01 36.87 -35.82 35.5 -35.64 34.12 C-34.17 23.07 -32.62 12.03 -31 1 C-20.67 -0.24 -10.38 -0.09 0 0 Z " fill="#F3F3F4" transform="translate(137,240)"/>
<path d="M0 0 C0.09 5 -0.16 8.98 -1 14 C-7.27 14 -13.54 14 -20 14 C-20 14.66 -20 15.32 -20 16 C-18.68 16.66 -17.36 17.32 -16 18 C-15.73 27.51 -16.52 36.59 -17.88 46 C-18.14 47.89 -18.14 47.89 -18.4 49.83 C-19.52 57.9 -20.74 65.95 -22 74 C-25.63 74 -29.26 74 -33 74 C-33.33 64.51 -32.22 55.38 -30.97 46 C-30.62 43.37 -30.29 40.75 -29.95 38.12 C-29.73 36.42 -29.51 34.72 -29.29 33.02 C-29.19 32.25 -29.09 31.48 -28.99 30.68 C-28.28 25.38 -27.22 20.22 -26 15 C-29.96 15 -33.92 15 -38 15 C-38.13 6.23 -38.13 6.23 -37 2 C-30.46 1.21 -23.96 0.73 -17.38 0.44 C-16.02 0.37 -16.02 0.37 -14.64 0.31 C-9.75 0.08 -4.89 -0.05 0 0 Z " fill="#ECEDEE" transform="translate(386,227)"/>
<path d="M0 0 C-0.2 2.33 -0.2 2.33 -1 5 C-3.18 6.55 -3.18 6.55 -5.88 7.75 C-6.76 8.16 -7.64 8.56 -8.55 8.98 C-10.34 9.73 -12.16 10.39 -14 11 C-6.16 11.61 -0.2 10.06 7 7 C7.99 8.98 8.98 10.96 10 13 C10.33 11.35 10.66 9.7 11 8 C11.66 8 12.32 8 13 8 C15.9 12.99 18.1 17.08 17 23 C15.43 25.74 13.76 27.46 11 29 C4.07 30.38 -1.84 26.15 -7.5 22.69 C-10 21 -10 21 -12 19 C-11.68 23.89 -11.68 23.89 -9.38 28.06 C-6.49 30.42 -3.75 31.49 -0.25 32.75 C0.92 33.18 2.09 33.61 3.3 34.05 C4.63 34.52 4.63 34.52 6 35 C5.36 40.55 4.5 46.01 3.44 51.5 C3.23 52.59 3.23 52.59 3.02 53.7 C2.68 55.47 2.34 57.23 2 59 C-2.29 58.43 -5.14 56.91 -8.75 54.56 C-9.71 53.95 -10.68 53.33 -11.67 52.69 C-14 51 -14 51 -15 49 C-11.51 50.11 -8.23 51.26 -5 53 C-4.67 50.69 -4.34 48.38 -4 46 C-3.67 46 -3.34 46 -3 46 C-3 48.64 -3 51.28 -3 54 C-1.51 54.5 -1.51 54.5 0 55 C-0.04 53.89 -0.08 52.77 -0.12 51.62 C-0.14 46.6 0.88 41.88 2 37 C1.01 37 0.02 37 -1 37 C-1.33 39.64 -1.66 42.28 -2 45 C-2.33 45 -2.66 45 -3 45 C-2.67 41.37 -2.34 37.74 -2 34 C-4.31 34 -6.62 34 -9 34 C-9 33.34 -9 32.68 -9 32 C-12.58 31 -12.58 31 -16 32 C-16.66 27.05 -17.32 22.1 -18 17 C-20.97 16.67 -23.94 16.34 -27 16 C-28.72 19.44 -28.65 23.25 -28 27 C-25.66 29.16 -25.66 29.16 -23 30 C-23 28.02 -23 26.04 -23 24 C-23.99 24 -24.98 24 -26 24 C-26 22.35 -26 20.7 -26 19 C-22.12 19.88 -22.12 19.88 -21 21 C-20.28 27.35 -21.47 32.2 -24 38 C-27.4 36.62 -28.73 35.4 -30.25 32.06 C-32.68 26.07 -33.19 20.02 -31.34 13.77 C-28.48 7.37 -23.63 1.84 -17.12 -0.94 C-11.23 -2.8 -5.45 -3.08 0 0 Z " fill="#909DA9" transform="translate(174,28)"/>
<path d="M0 0 C2.97 0 5.94 0 9 0 C8.23 4.63 6.76 8.94 5.25 13.38 C4.71 14.99 4.16 16.6 3.62 18.21 C3.34 19.01 3.07 19.82 2.79 20.65 C2.06 22.82 1.34 24.99 0.63 27.16 C-1.39 33.33 -3.48 39.43 -5.95 45.44 C-8.06 50.59 -10.01 55.8 -12 61 C-15.3 61 -18.6 61 -22 61 C-22.55 55.03 -23.11 49.05 -23.65 43.08 C-23.84 41.06 -24.03 39.03 -24.22 37.01 C-25.33 25.01 -26.35 13.03 -27 1 C-24.03 1 -21.06 1 -18 1 C-16.17 10.06 -15.4 19.14 -14.7 28.34 C-14.62 29.31 -14.54 30.29 -14.46 31.29 C-14.4 32.17 -14.33 33.06 -14.27 33.97 C-14.21 35.99 -14.21 35.99 -13 37 C-12.73 36.17 -12.46 35.34 -12.19 34.49 C-8.38 22.9 -4.21 11.45 0 0 Z " fill="#F0F1F2" transform="translate(92,242)"/>
<path d="M0 0 C3.22 1.25 6.36 2.62 9.5 4.06 C12.03 5.21 13.99 6 16.75 6.44 C20.13 7.28 21.71 9.47 24 12 C24.66 12.66 25.32 13.32 26 14 C27.26 22.51 25.15 32.06 20 39 C19.01 39.5 19.01 39.5 18 40 C18.66 40.66 19.32 41.32 20 42 C5.75 39.7 -2.66 31.52 -13 22 C-8 17 -8 17 -5.81 15 C-2.03 10.83 -1.27 5.34 0 0 Z " fill="#92A0AC" transform="translate(143,110)"/>
<path d="M0 0 C2.7 -0.38 2.7 -0.38 6 0 C8.07 2.05 9.37 3.64 10.88 6.06 C11.28 6.7 11.68 7.33 12.1 7.98 C14.76 12.57 15.37 15.8 14.94 21.19 C14.19 30.92 19.13 38.06 24.08 46.15 C25 48 25 48 25 51 C23.98 51.19 22.95 51.39 21.89 51.59 C20.53 51.85 19.17 52.11 17.81 52.38 C17.14 52.5 16.47 52.63 15.77 52.76 C12.79 53.34 10.06 53.97 7.26 55.16 C4.57 56.16 3.64 56.05 1 55 C-0.31 53.27 -0.31 53.27 -1.45 51.02 C-2.09 49.78 -2.09 49.78 -2.76 48.51 C-3.43 47.17 -3.43 47.17 -4.12 45.81 C-9.27 36.08 -14.67 25.92 -22.85 18.37 C-25 16 -25 16 -25.16 13.95 C-23.45 11.07 -21.18 9.64 -18.44 7.75 C-16.92 6.69 -16.92 6.69 -15.37 5.61 C-14.59 5.08 -13.81 4.55 -13 4 C-12.34 4.33 -11.68 4.66 -11 5 C-11.33 5.8 -11.66 6.61 -12 7.44 C-13.48 12.71 -13.96 18.77 -12 24 C-10.02 24.72 -8.02 25.38 -6 26 C-5.34 26.99 -4.68 27.98 -4 29 C-4.18 26.62 -4.7 25.3 -6.4 23.62 C-7.91 22.38 -9.45 21.19 -11 20 C-10.67 18.68 -10.34 17.36 -10 16 C-3.19 21.33 -3.19 21.33 -2 25 C-2 26.05 -2 27.1 -2 28.19 C-0.62 33.45 2.44 35.51 6.55 38.89 C9 41 9 41 12 45 C9.03 38.07 9.03 38.07 6 31 C6.99 30.34 7.98 29.68 9 29 C9.33 29.33 9.66 29.66 10 30 C10.94 21.86 11.53 15.1 6.42 8.27 C4.35 5.78 2.19 3.39 0 1 C0 0.67 0 0.34 0 0 Z " fill="#2C2B2E" transform="translate(316,117)"/>
<path d="M0 0 C1.94 1.42 3.82 2.82 5.59 4.43 C5.59 4.76 5.59 5.09 5.59 5.43 C0.78 5.77 -1.73 5 -5.78 2.43 C-10.73 -0.45 -13.74 -1.21 -19.41 -0.57 C-18.86 -0.4 -18.32 -0.23 -17.76 -0.05 C-10.66 2.36 -10.66 2.36 -8.41 6.43 C-9.58 6.37 -10.76 6.31 -11.97 6.25 C-17.89 6.28 -21.91 8 -26.22 12.12 C-31.25 19.75 -30.65 27.59 -30.41 36.43 C-30.38 35.77 -30.35 35.11 -30.33 34.42 C-30.06 30.2 -29.78 27.12 -27.72 23.37 C-24.94 21.04 -22.98 20.68 -19.41 20.43 C-19.08 21.09 -18.75 21.75 -18.41 22.43 C-20.39 23.42 -20.39 23.42 -22.41 24.43 C-22.27 25.91 -22.12 27.39 -21.97 28.87 C-21.89 29.69 -21.81 30.52 -21.72 31.37 C-21.62 33.42 -21.62 33.42 -20.41 34.43 C-19.75 33.44 -19.09 32.45 -18.41 31.43 C-17.65 48.82 -17.65 48.82 -22.41 55.43 C-24.55 56.63 -24.55 56.63 -26.41 57.43 C-26.08 56.46 -25.75 55.49 -25.41 54.49 C-24.17 50.13 -24.18 46 -24.28 41.5 C-24.29 40.72 -24.3 39.94 -24.31 39.13 C-24.33 37.23 -24.37 35.33 -24.41 33.43 C-25.07 33.43 -25.73 33.43 -26.41 33.43 C-26.41 34.05 -26.41 34.67 -26.41 35.3 C-26.78 43.42 -29.59 48.52 -35.22 54.29 C-38.21 57 -40.38 58.66 -44.41 59.43 C-43.4 56.84 -42.34 54.3 -41.14 51.79 C-37.52 44.04 -36.75 37.54 -36.84 29.06 C-36.94 15.43 -36.94 15.43 -32.41 10.43 C-30.02 8.03 -27.45 5.95 -24.41 4.43 C-30.55 4.71 -34.41 5.54 -39.41 9.43 C-40.4 9.93 -40.4 9.93 -41.41 10.43 C-39.23 3.86 -34.28 -0.3 -28.39 -3.75 C-18.56 -7.95 -8.7 -5.66 0 0 Z " fill="#BE0024" transform="translate(154.40625,10.56640625)"/>
<path d="M0 0 C-1.1 1.44 -2.21 2.88 -3.31 4.31 C-3.93 5.11 -4.54 5.91 -5.18 6.74 C-6.7 8.63 -8.24 10.33 -10 12 C-9.5 13.48 -9.5 13.48 -9 15 C-9.79 15.52 -10.58 16.04 -11.39 16.58 C-25.45 26.09 -38.2 36.84 -49 50 C-49.33 50 -49.66 50 -50 50 C-50.54 46.04 -51.06 42.09 -51.5 38.12 C-51.76 35.75 -52.1 33.58 -52.66 31.25 C-53.15 28.61 -53.19 27.43 -52 25 C-48.15 21.79 -43.96 19.56 -39.51 17.28 C-36.75 15.87 -34.03 14.41 -31.3 12.94 C-3.68 -1.84 -3.68 -1.84 0 0 Z " fill="#CC0027" transform="translate(107,64)"/>
<path d="M0 0 C3.99 4.54 4.52 7.8 4.25 13.6 C3.92 16.72 3.44 19.19 2 22 C-0.31 23.75 -0.31 23.75 -3 25 C-3.76 25.39 -4.53 25.78 -5.31 26.19 C-9.02 27.31 -12.22 27.88 -16 27 C-22.96 23.06 -26.97 16.2 -30 9 C-30 8.01 -30 7.02 -30 6 C-20.53 1.49 -10.67 -2.7 0 0 Z " fill="#2D2B2D" transform="translate(350,184)"/>
<path d="M0 0 C6.27 0 12.54 0 19 0 C19.39 9.55 17.92 18.71 16.5 28.12 C16.26 29.77 16.02 31.41 15.78 33.05 C15.19 37.03 14.6 41.02 14 45 C9.38 45 4.76 45 0 45 C0.31 40.96 0.62 36.92 0.94 32.88 C1.02 31.73 1.11 30.59 1.2 29.41 C1.29 28.31 1.38 27.2 1.46 26.05 C1.58 24.53 1.58 24.53 1.7 22.98 C2 19.95 2.49 16.99 3 14 C3.13 12.29 3.22 10.59 3.25 8.88 C3.29 7.63 3.29 7.63 3.33 6.37 C3.12 3.49 3.12 3.49 0 0 Z " fill="#090A0A" transform="translate(26,259)"/>
<path d="M0 0 C14.96 6.37 24 29.4 31 43 C31.77 42.66 32.55 42.32 33.34 41.98 C51.39 34.25 51.39 34.25 60 36 C62.53 38.83 63 40.22 63 44 C61.91 44.09 60.82 44.17 59.7 44.26 C47.17 45.4 37.19 48.29 26.84 55.77 C25 57 25 57 22 58 C20.68 55.83 19.97 54.5 20.12 51.94 C21.25 49.46 22.81 48.55 25 47 C23.36 43.32 21.68 39.66 20 36 C19.37 34.56 19.37 34.56 18.72 33.09 C15.92 27.04 12.59 21.8 8.5 16.56 C8.05 15.98 7.6 15.4 7.13 14.81 C4.08 11.02 0.82 8 -3 5 C-1.12 1.12 -1.12 1.12 0 0 Z " fill="#BD0427" transform="translate(286,135)"/>
<path d="M0 0 C2.34 1.8 3.7 3.1 5.44 5.38 C5.88 5.94 6.31 6.5 6.77 7.08 C11.8 14.41 10.86 22.52 10 31 C9.01 30.34 8.02 29.68 7 29 C6.67 29.66 6.34 30.32 6 31 C7.44 34.39 9.1 37.64 10.75 40.93 C12 44 12 44 11 47 C10.66 46.43 10.32 45.86 9.97 45.28 C7.27 40.98 4.78 37.62 0.75 34.5 C-3.14 31.34 -3.83 28.94 -4.51 24.09 C-5.29 20.76 -7.44 19.1 -10 17 C-10.33 16.67 -10.66 16.34 -11 16 C-10.87 17.87 -10.87 17.87 -10 20 C-9.18 20.64 -8.35 21.28 -7.5 21.94 C-5 24 -5 24 -4.19 26.75 C-4.13 27.49 -4.06 28.24 -4 29 C-4.56 28.35 -4.56 28.35 -5.12 27.69 C-7.04 25.8 -7.04 25.8 -10.06 24.56 C-13.28 22.85 -13.74 22.27 -15 19 C-15.9 12.81 -14.81 7.53 -12 2 C-8.24 -0.51 -4.42 -0.44 0 0 Z " fill="#2E2C2E" transform="translate(317,118)"/>
<path d="M0 0 C0.66 0 1.32 0 2 0 C-0.33 5.29 -3.84 10.01 -8 14 C-7.22 13.48 -6.43 12.97 -5.62 12.44 C-4.33 11.73 -4.33 11.73 -3 11 C-2.34 11.33 -1.68 11.66 -1 12 C-1.27 12.5 -1.53 12.99 -1.8 13.5 C-3.58 16.93 -4.96 19.83 -5.81 23.62 C-7.18 27.52 -8.65 29.49 -11.86 32.04 C-15.98 33.89 -19.9 32.37 -24 31 C-24.99 30.67 -25.98 30.34 -27 30 C-27.69 27.94 -27.69 27.94 -28 26 C-26.02 25.67 -24.04 25.34 -22 25 C-23 24.54 -24 24.08 -25.03 23.61 C-26.33 22.99 -27.63 22.37 -28.94 21.75 C-29.6 21.45 -30.26 21.15 -30.94 20.84 C-32.84 19.92 -32.84 19.92 -36 18 C-36.33 16.68 -36.66 15.36 -37 14 C-30.07 14.5 -30.07 14.5 -23 15 C-24.11 14.4 -25.22 13.79 -26.36 13.17 C-27.82 12.36 -29.29 11.56 -30.75 10.75 C-31.48 10.35 -32.21 9.96 -32.96 9.55 C-36.84 7.4 -40.05 5.39 -43 2 C-42.37 2.18 -41.74 2.36 -41.09 2.55 C-35.67 4.07 -30.23 5.48 -24.75 6.75 C-23.07 7.14 -23.07 7.14 -21.36 7.55 C-15.67 8.31 -11.12 7.47 -6.19 4.56 C-5.44 4.13 -4.69 3.7 -3.92 3.25 C-1.88 2.01 -1.88 2.01 0 0 Z " fill="#8C99A5" transform="translate(188,154)"/>
<path d="M0 0 C2.97 0 5.94 0 9 0 C7.91 20.57 5.43 40.69 2 61 C-1.3 61 -4.6 61 -8 61 C-7.28 50.95 -5.98 41.03 -4.56 31.06 C-4.34 29.49 -4.12 27.92 -3.9 26.35 C-2.67 17.56 -1.38 8.77 0 0 Z " fill="#E8E9EA" transform="translate(260,233)"/>
<path d="M0 0 C7.61 2.9 14.55 7 21.31 11.5 C31.46 18.02 42.2 21.77 54 24 C52.35 26.97 50.7 29.94 49 33 C46.15 32.86 43.29 32.71 40.44 32.56 C39.64 32.52 38.84 32.48 38.01 32.44 C33.29 32.19 28.64 31.92 24 31 C23.67 30.34 23.34 29.68 23 29 C23.7 28.94 24.4 28.88 25.12 28.82 C26.03 28.73 26.94 28.65 27.88 28.56 C28.78 28.48 29.68 28.4 30.62 28.32 C33.01 28.13 33.01 28.13 35 27 C34.43 26.91 33.86 26.83 33.27 26.74 C20.26 24.48 9.69 19.86 0.44 10.38 C-1.23 7.61 -1.42 6.17 -1 3 C-0.67 2.01 -0.34 1.02 0 0 Z " fill="#8E9CA8" transform="translate(105,175)"/>
<path d="M0 0 C0.09 5 -0.16 8.98 -1 14 C-7.27 14 -13.54 14 -20 14 C-20 14.66 -20 15.32 -20 16 C-18.68 16.66 -17.36 17.32 -16 18 C-16 19.65 -16 21.3 -16 23 C-16.62 22.2 -17.24 21.39 -17.88 20.56 C-19.74 17.96 -19.74 17.96 -22 17 C-22 16.34 -22 15.68 -22 15 C-22.66 15 -23.32 15 -24 15 C-24.66 16.32 -25.32 17.64 -26 19 C-26 17.68 -26 16.36 -26 15 C-29.96 15 -33.92 15 -38 15 C-38.13 6.23 -38.13 6.23 -37 2 C-30.46 1.21 -23.96 0.73 -17.38 0.44 C-16.02 0.37 -16.02 0.37 -14.64 0.31 C-9.75 0.08 -4.89 -0.05 0 0 Z " fill="#F9F9F9" transform="translate(386,227)"/>
<path d="M0 0 C1.23 2.8 1.23 2.8 2.19 6.31 C2.67 8.04 2.67 8.04 3.17 9.8 C3.44 10.86 3.72 11.91 4 13 C4.3 13.98 4.3 13.98 4.6 14.97 C6.3 23.55 5.86 34.07 2 42 C-0.93 46.35 -4.47 48.9 -8.94 51.5 C-9.93 52.08 -9.93 52.08 -10.93 52.67 C-19.42 57.54 -28.01 61.98 -38 61 C-38.04 59.33 -38.04 57.67 -38 56 C-36.47 54.47 -34.8 54.59 -32.69 54.25 C-22.98 52.37 -12.84 48.1 -5 42 C-1.97 37.16 -2.67 31.84 -2.69 26.31 C-2.67 25.26 -2.66 24.21 -2.64 23.13 C-2.63 16.43 -3.53 11.23 -6 5 C-8.97 5 -11.94 5 -15 5 C-12.37 2.37 -11.33 1.48 -8.06 0.25 C-7.39 -0.01 -6.72 -0.28 -6.04 -0.55 C-3.5 -1.11 -2.33 -1.2 0 0 Z " fill="#E8E8E8" transform="translate(129,77)"/>
<path d="M0 0 C-1.67 3.34 -5.27 4.15 -8.55 5.68 C-10.84 6.91 -12.3 8.07 -14 10 C-13.39 9.77 -12.77 9.54 -12.14 9.31 C-11.33 9.02 -10.52 8.73 -9.69 8.44 C-8.49 8 -8.49 8 -7.26 7.56 C-5 7 -5 7 -2 8 C-2.75 8.33 -3.5 8.66 -4.27 9 C-21.12 16.82 -29.49 29.21 -37.01 45.64 C-43.53 59.8 -52.98 75.1 -67 83 C-69.22 83.64 -69.22 83.64 -71 84 C-68.02 80.44 -65.06 77.01 -61.69 73.81 C-52.71 64.81 -47.04 54.63 -41.33 43.39 C-37.9 36.66 -34.32 30.22 -30 24 C-31.07 24.1 -32.15 24.21 -33.25 24.31 C-37 24 -37 24 -39.44 21.5 C-39.95 20.67 -40.47 19.85 -41 19 C-40.36 18.9 -39.72 18.8 -39.06 18.7 C-28.73 16.92 -22.74 12.13 -15.06 5.34 C-10.46 1.82 -5.97 -0.54 0 0 Z " fill="#BF0125" transform="translate(255,103)"/>
<path d="M0 0 C0.66 0 1.32 0 2 0 C2 0.66 2 1.32 2 2 C3 2.37 3 2.37 4.02 2.74 C6.34 3.72 8.47 4.75 10.67 5.95 C19.74 11.26 19.74 11.26 29.84 12.74 C33.83 11.37 37.19 9.05 40.62 6.63 C43 5 43 5 46 4 C45.05 9.65 40.63 12.96 36.27 16.34 C32.43 19 32.43 19 30 19 C30.02 20.23 30.05 21.46 30.07 22.73 C30.31 41.13 30.31 41.13 28 50 C26.12 51.88 23.5 51.18 21.01 51.23 C19 51 19 51 16 49 C16.6 48.48 17.2 47.97 17.81 47.44 C23.33 41.29 24.45 33.37 24.43 25.38 C23.92 22.56 23.19 21.68 21 19.88 C20.01 19.26 19.02 18.64 18 18 C18.33 17.34 18.66 16.68 19 16 C18.05 15.54 17.09 15.08 16.11 14.61 C14.85 13.99 13.58 13.37 12.31 12.75 C11.69 12.45 11.06 12.15 10.42 11.84 C6.56 9.94 3.16 7.97 0 5 C-0.31 2.25 -0.31 2.25 0 0 Z " fill="#EEEFEF" transform="translate(144,101)"/>
<path d="M0 0 C3.6 8.71 4.12 17.72 3 27 C1.61 30.29 -0.11 31.97 -3 34 C-3.79 34.57 -4.59 35.14 -5.4 35.73 C-7.57 37.23 -9.75 38.64 -12 40 C-12.66 39.67 -13.32 39.34 -14 39 C-13.46 38.49 -12.91 37.98 -12.36 37.46 C-11.64 36.77 -10.92 36.08 -10.19 35.38 C-9.48 34.7 -8.77 34.03 -8.04 33.34 C-3.75 28.43 -2.62 24.06 -2.31 17.62 C-2.25 16.38 -2.18 15.13 -2.11 13.85 C-2.08 12.91 -2.04 11.97 -2 11 C-2.66 11 -3.32 11 -4 11 C-4.27 11.62 -4.54 12.24 -4.81 12.88 C-6 15 -6 15 -9 17 C-12.58 17.56 -15.89 17.7 -19 15.75 C-20 14 -20 14 -20 10 C-21.65 10.66 -23.3 11.32 -25 12 C-19.08 3.51 -10.2 -0.19 0 0 Z " fill="#F3F3F3" transform="translate(118,87)"/>
<path d="M0 0 C0.66 0.33 1.32 0.66 2 1 C1.47 1.42 0.93 1.83 0.38 2.26 C-6.85 8.24 -11.81 15.28 -17 23 C-16.28 22.43 -15.57 21.86 -14.83 21.27 C-10.55 17.84 -6.28 14.42 -2 11 C-1.34 11.33 -0.68 11.66 0 12 C-0.68 12.62 -1.36 13.24 -2.05 13.88 C-9.21 20.68 -14.6 27.85 -19.85 36.18 C-38.61 65.91 -38.61 65.91 -52 69 C-49.61 66.6 -47.22 64.2 -44.75 61.88 C-34.25 51.35 -28.09 37.54 -21.75 24.25 C-16.82 14.24 -9.25 6.17 0 0 Z " fill="#30282C" transform="translate(244,114)"/>
<path d="M0 0 C0.37 8.03 -0.32 14.41 -3 22 C-7.62 22.66 -12.24 23.32 -17 24 C-17.39 18.14 -17.39 18.14 -17 16 C-15.68 14.68 -14.36 13.36 -13 12 C-17.62 12.33 -22.24 12.66 -27 13 C-30.38 7.38 -30.38 7.38 -30 3 C-29.53 3.68 -29.05 4.36 -28.56 5.06 C-25.77 7.17 -25.31 7.3 -22 7.06 C-14.43 5.87 -7.44 0 0 0 Z " fill="#E9E9E9" transform="translate(114,139)"/>
<path d="M0 0 C0.33 0 0.66 0 1 0 C1.33 2.31 1.66 4.62 2 7 C3.98 7.66 5.96 8.32 8 9 C8 9.66 8 10.32 8 11 C10.31 11 12.62 11 15 11 C15 13.64 15 16.28 15 19 C15.33 17.35 15.66 15.7 16 14 C16.99 14 17.98 14 19 14 C18.42 20.01 17.78 26.01 17 32 C15.68 31.67 14.36 31.34 13 31 C13 29.35 13 27.7 13 26 C12.67 27.32 12.34 28.64 12 30 C10.66 29.69 9.33 29.35 8 29 C7.05 28.75 6.1 28.5 5.12 28.25 C1.3 26.72 -0.96 24.75 -4 22 C-3.8 21.33 -3.59 20.67 -3.38 19.98 C-1.43 13.31 -0.39 6.94 0 0 Z " fill="#7E8B96" transform="translate(157,51)"/>
<path d="M0 0 C4.74 1.83 9.36 3.92 14 6 C14 6.33 14 6.66 14 7 C12.95 7 11.9 7 10.81 7 C6.66 8.09 6.28 8.4 4.12 11.81 C1.34 16.72 -0.31 22.36 1 28 C4.54 32.7 9.61 35.02 15 37 C14.34 37.99 13.68 38.98 13 40 C2.62 38.51 -5.66 28.94 -13 22 C-8.27 17.25 -8.27 17.25 -5.81 15 C-2.03 10.83 -1.27 5.34 0 0 Z " fill="#5A6974" transform="translate(143,110)"/>
<path d="M0 0 C0.33 0.66 0.66 1.32 1 2 C1.66 2 2.32 2 3 2 C2.97 3.21 2.97 3.21 2.93 4.45 C2.91 5.52 2.89 6.59 2.88 7.69 C2.84 9.27 2.84 9.27 2.8 10.89 C3.01 14.12 3.36 16.21 5 19 C7.16 20.03 7.16 20.03 9.62 20.31 C10.44 20.45 11.26 20.59 12.1 20.74 C12.73 20.82 13.35 20.91 14 21 C13.5 21.76 13.01 22.53 12.5 23.31 C10.76 25.92 10.76 25.92 11 29 C10.34 29 9.68 29 9 29 C9 29.66 9 30.32 9 31 C6.69 31.33 4.38 31.66 2 32 C1.67 33.65 1.34 35.3 1 37 C1.99 37.33 2.98 37.66 4 38 C2.68 38 1.36 38 0 38 C-0.87 36.23 -1.72 34.46 -2.56 32.69 C-3.28 31.21 -3.28 31.21 -4 29.7 C-5 27 -5 27 -4 24 C-3.34 24.66 -2.68 25.32 -2 26 C-2.5 25.01 -2.99 24.02 -3.5 23 C-5.72 17.67 -5.92 13.41 -3.88 8.05 C-2.65 5.33 -1.37 2.65 0 0 Z " fill="#5E6C78" transform="translate(90,101)"/>
<path d="M0 0 C1.31 -0.03 2.63 -0.05 3.98 -0.08 C5.6 0.08 5.6 0.08 7.25 0.25 C9.4 3.48 9.45 4.53 9.25 8.25 C8.59 8.25 7.93 8.25 7.25 8.25 C6.59 6.6 5.93 4.95 5.25 3.25 C4.92 3.25 4.59 3.25 4.25 3.25 C4.25 6.22 4.25 9.19 4.25 12.25 C5.24 12.25 6.23 12.25 7.25 12.25 C7.58 11.59 7.91 10.93 8.25 10.25 C8.25 11.57 8.25 12.89 8.25 14.25 C5.61 14.25 2.97 14.25 0.25 14.25 C0.25 13.26 0.25 12.27 0.25 11.25 C-5.36 11.25 -10.97 11.25 -16.75 11.25 C-16.75 11.91 -16.75 12.57 -16.75 13.25 C-17.74 13.25 -18.73 13.25 -19.75 13.25 C-20.08 14.24 -20.41 15.23 -20.75 16.25 C-22.4 12.94 -21.69 10.77 -20.75 7.25 C-15.08 0.22 -8.62 0.1 0 0 Z " fill="#FDFDFD" transform="translate(295.75,231.75)"/>
<path d="M0 0 C4.12 1.6 6.72 4.61 9.69 7.75 C13.32 11.55 16.58 14.55 21.25 17.06 C23.42 18.36 23.42 18.36 25 20 C25.74 23.78 25.55 27.2 25 31 C14.64 25.94 4.02 16.48 -1 6 C-0.7 2.67 -0.7 2.67 0 0 Z " fill="#8F9CA8" transform="translate(142,73)"/>
<path d="M0 0 C0.73 0.14 1.45 0.29 2.2 0.43 C3.97 0.78 5.74 1.14 7.5 1.5 C7.5 6.45 7.5 11.4 7.5 16.5 C2.51 17.75 2.51 17.75 -0.5 16.5 C-0.83 15.51 -1.16 14.52 -1.5 13.5 C-2.82 13.83 -4.14 14.16 -5.5 14.5 C-5.83 13.51 -6.16 12.52 -6.5 11.5 C-7.49 12 -7.49 12 -8.5 12.5 C-10.5 11.19 -10.5 11.19 -12.5 9.5 C-12.5 8.51 -12.5 7.52 -12.5 6.5 C-8.54 5.51 -4.58 4.52 -0.5 3.5 C-2.74 2.38 -4.15 2.31 -6.63 2.18 C-7.44 2.14 -8.24 2.1 -9.07 2.06 C-9.92 2.02 -10.76 1.98 -11.62 1.94 C-12.47 1.89 -13.32 1.85 -14.2 1.81 C-16.3 1.7 -18.4 1.6 -20.5 1.5 C-20.5 0.84 -20.5 0.18 -20.5 -0.5 C-13.81 -2.73 -6.72 -1.38 0 0 Z " fill="#58656F" transform="translate(197.5,201.5)"/>
<path d="M0 0 C0.78 2.65 0.78 2.65 1 6 C-1.53 9.88 -4.86 13.03 -8.15 16.28 C-9.74 17.86 -11.27 19.48 -12.81 21.12 C-20.11 28.59 -20.11 28.59 -25.22 29.69 C-27.91 29.69 -30.36 29.52 -33 29 C-30.29 26.21 -27.53 23.58 -24.56 21.06 C-19.76 16.93 -15.36 12.41 -10.92 7.89 C-3.15 0 -3.15 0 0 0 Z " fill="#C20428" transform="translate(300,192)"/>
<path d="M0 0 C0.66 0 1.32 0 2 0 C2.19 0.68 2.37 1.36 2.56 2.06 C4.25 5.51 6.37 7.47 9.12 10.1 C11.59 12.6 13.6 15.34 15.64 18.2 C16.97 19.97 18.4 21.48 20 23 C19.67 23.66 19.34 24.32 19 25 C20.44 28.39 22.1 31.64 23.75 34.93 C25 38 25 38 24 41 C23.66 40.43 23.32 39.86 22.97 39.28 C20.27 34.98 17.78 31.62 13.75 28.5 C9.86 25.34 9.17 22.94 8.49 18.09 C7.71 14.76 5.56 13.1 3 11 C2.67 10.67 2.34 10.34 2 10 C2.13 11.87 2.13 11.87 3 14 C3.82 14.64 4.65 15.28 5.5 15.94 C8 18 8 18 8.81 20.75 C8.87 21.49 8.94 22.24 9 23 C8.44 22.35 8.44 22.35 7.88 21.69 C5.96 19.8 5.96 19.8 2.94 18.56 C-0.28 16.85 -0.75 16.28 -2 13 C-2.27 10.78 -2.27 10.78 -2.25 8.5 C-2.26 7.75 -2.26 6.99 -2.27 6.22 C-1.97 3.77 -1.22 2.13 0 0 Z " fill="#080405" transform="translate(304,124)"/>
<path d="M0 0 C0.67 -0.02 1.34 -0.04 2.04 -0.06 C4.99 -0.09 6.95 -0.09 9.4 1.64 C10.44 3.25 10.44 3.25 10.44 5.25 C8.91 5.27 8.91 5.27 7.36 5.29 C-6.64 5.69 -16.52 9.03 -26.56 19.25 C-29.03 18.1 -30.61 17.2 -32.56 15.25 C-23.2 5.93 -13.31 0.16 0 0 Z " fill="#BC0427" transform="translate(315.5625,107.75)"/>
<path d="M0 0 C0.99 0.33 1.98 0.66 3 1 C3.33 2.65 3.66 4.3 4 6 C4.66 6 5.32 6 6 6 C6.33 4.68 6.66 3.36 7 2 C6.67 5.63 6.34 9.26 6 13 C2.7 13 -0.6 13 -4 13 C-4 12.01 -4 11.02 -4 10 C-8.62 10.33 -13.24 10.66 -18 11 C-17.34 11.66 -16.68 12.32 -16 13 C-15.61 18.41 -16.33 23.12 -17.49 28.39 C-18.31 32.56 -18.66 36.77 -19 41 C-19.66 40.34 -20.32 39.68 -21 39 C-21.33 41.64 -21.66 44.28 -22 47 C-22.99 47 -23.98 47 -25 47 C-24.86 44.46 -24.71 41.92 -24.56 39.38 C-24.52 38.66 -24.48 37.95 -24.44 37.21 C-24.26 34.07 -24.01 31.05 -23.47 27.94 C-22.91 24.46 -22.9 21.14 -22.94 17.62 C-22.95 15.76 -22.95 15.76 -22.96 13.85 C-22.98 12.91 -22.99 11.97 -23 11 C-22.01 11 -21.02 11 -20 11 C-20 10.34 -20 9.68 -20 9 C-14.39 9 -8.78 9 -3 9 C-3 9.99 -3 10.98 -3 12 C-0.36 12 2.28 12 5 12 C4.67 11.34 4.34 10.68 4 10 C3.01 10 2.02 10 1 10 C0.5 5.05 0.5 5.05 0 0 Z " fill="#D3D5D7" transform="translate(299,234)"/>
<path d="M0 0 C2.78 1.39 2.98 3.16 4 6 C4.33 4.35 4.66 2.7 5 1 C5.66 1 6.32 1 7 1 C9.9 5.99 12.1 10.08 11 16 C9.43 18.74 7.77 20.47 5 22 C-1.48 23.14 -6.72 19.81 -12.03 16.47 C-14 15 -14 15 -15 13 C-10.33 14.33 -5.67 15.67 -1 17 C-1 12.71 -1 8.42 -1 4 C-2.32 3.67 -3.64 3.34 -5 3 C-2.62 1.44 -2.62 1.44 0 0 Z " fill="#DFDFE0" transform="translate(180,35)"/>
<path d="M0 0 C3.45 4.01 2.6 7.57 2.31 12.69 C1.93 17.32 1.41 21.94 0.88 26.56 C0.74 27.77 0.61 28.98 0.47 30.23 C-0.64 39.9 -0.64 39.9 -1.69 43.69 C0.95 43.69 3.59 43.69 6.31 43.69 C6.31 44.02 6.31 44.35 6.31 44.69 C3.34 44.69 0.37 44.69 -2.69 44.69 C-3.02 43.04 -3.35 41.39 -3.69 39.69 C-4.02 41.34 -4.35 42.99 -4.69 44.69 C-5.35 44.69 -6.01 44.69 -6.69 44.69 C-7.19 35.81 -6.09 27.37 -4.75 18.61 C-3.95 13.23 -3.53 8.13 -3.69 2.69 C-4.35 2.36 -5.01 2.03 -5.69 1.69 C-5.69 1.03 -5.69 0.37 -5.69 -0.31 C-2.69 -1.31 -2.69 -1.31 0 0 Z " fill="#DADCDE" transform="translate(27.6875,260.3125)"/>
<path d="M0 0 C7.71 3.47 12.47 10.33 16.94 17.25 C17.33 17.85 17.72 18.45 18.12 19.08 C19.94 21.98 21.47 24.58 22 28 C21.5 27.62 21.01 27.25 20.5 26.86 C19.07 25.79 17.64 24.72 16.21 23.66 C14.87 22.65 13.53 21.62 12.23 20.56 C8.26 17.44 4.8 16.2 -0.18 15.36 C-2 15 -2 15 -3 14 C-3.52 8.63 -2.02 4.88 0 0 Z " fill="#292A2C" transform="translate(280,144)"/>
<path d="M0 0 C0.66 0 1.32 0 2 0 C-0.95 6.7 -5.31 12.73 -12 16 C-23.41 17.94 -34.06 9.03 -43 3 C-41 2 -41 2 -38.31 2.71 C-37.22 3.07 -36.13 3.44 -35 3.81 C-21.86 8.32 -21.86 8.32 -8.64 5.88 C-5.42 4.15 -2.59 2.59 0 0 Z " fill="#EDEDED" transform="translate(188,154)"/>
<path d="M0 0 C2.44 2.26 4.12 4.62 5.88 7.44 C8.22 11.04 10.51 13.45 14 16 C16.62 18.62 16.98 19.73 17.31 23.5 C17.03 26.65 16.68 28.38 15 31 C14.67 31 14.34 31 14 31 C13.66 29.14 13.66 29.14 13.31 27.25 C12.25 22.99 10.68 21.48 7 19 C5.31 17.35 3.64 15.69 2 14 C2 17.3 2 20.6 2 24 C-2.21 19.79 -3.29 16.4 -3.31 10.5 C-3.25 6.2 -2.83 3.41 0 0 Z " fill="#2C2327" transform="translate(263,82)"/>
<path d="M0 0 C5.32 4.22 6.64 10.08 7.44 16.56 C6.36 25 1.05 31.29 -5 37 C-7.57 38.82 -7.57 38.82 -10 40 C-10.99 39.67 -11.98 39.34 -13 39 C-12.39 38.49 -11.77 37.98 -11.14 37.46 C-4.69 32.21 -4.69 32.21 -1 25 C-0.51 18.79 -0.61 12.91 -2.19 6.88 C-2.59 4.96 -2.59 4.96 -3 3 C-1.55 1.26 -1.55 1.26 0 0 Z " fill="#EDEDEE" transform="translate(191,109)"/>
<path d="M0 0 C0.66 0 1.32 0 2 0 C2.18 8.38 1.62 16.65 1 25 C1.33 25 1.66 25 2 25 C2.18 31.33 1.51 37.26 0.5 43.5 C0.36 44.42 0.21 45.34 0.07 46.28 C-0.28 48.52 -0.64 50.76 -1 53 C-1.33 53 -1.66 53 -2 53 C-2.33 50.69 -2.66 48.38 -3 46 C-3.33 48.97 -3.66 51.94 -4 55 C-4.99 55 -5.98 55 -7 55 C-5.37 36.59 -3.1 18.22 0 0 Z " fill="#A5AFB8" transform="translate(264,236)"/>
<path d="M0 0 C-0.99 1.48 -0.99 1.48 -2 3 C-1.66 5.52 -1.66 5.52 -1 8 C-1 8.99 -1 9.98 -1 11 C-1.33 10.67 -1.66 10.34 -2 10 C-4 9.96 -6 9.96 -8 10 C-9.72 13.44 -9.65 17.25 -9 21 C-6.66 23.16 -6.66 23.16 -4 24 C-4 22.02 -4 20.04 -4 18 C-4.99 18 -5.98 18 -7 18 C-7 16.35 -7 14.7 -7 13 C-3.12 13.88 -3.12 13.88 -2 15 C-1.28 21.35 -2.47 26.2 -5 32 C-8.4 30.62 -9.73 29.4 -11.25 26.06 C-13.7 20.01 -14.21 13.91 -12.27 7.63 C-10.76 4.28 -9.35 2.29 -6.5 -0.06 C-3.77 -1.08 -2.66 -1.08 0 0 Z " fill="#515E69" transform="translate(155,34)"/>
<path d="M0 0 C2.23 2.75 3.61 5.24 4.81 8.56 C7.07 14.35 9.79 19.68 13 25 C13.81 26.44 13.81 26.44 14.64 27.92 C16.58 30.9 18.1 32.92 21 35 C26.15 35.83 30.84 35.6 36 35 C36 35.66 36 36.32 36 37 C28.08 37 20.16 37 12 37 C-0.26 13.19 -0.26 13.19 0 0 Z " fill="#730220" transform="translate(49,194)"/>
<path d="M0 0 C2.7 -0.38 2.7 -0.38 6 0 C8.07 2.05 9.37 3.64 10.88 6.06 C11.48 7.01 11.48 7.01 12.1 7.98 C14.76 12.57 15.37 15.8 14.94 21.19 C14.19 30.92 19.13 38.06 24.08 46.15 C25 48 25 48 25 51 C21.34 50.44 21.34 50.44 19.84 48.48 C19.54 47.84 19.24 47.2 18.93 46.54 C18.59 45.84 18.25 45.14 17.9 44.42 C17.56 43.68 17.22 42.95 16.88 42.19 C16.53 41.46 16.18 40.74 15.82 39.99 C15.18 38.63 14.53 37.27 13.9 35.91 C13.27 34.58 12.6 33.26 11.89 31.97 C10.77 29.49 10.92 27.31 10.98 24.62 C11.1 14 6.91 8.63 0 1 C0 0.67 0 0.34 0 0 Z " fill="#B90225" transform="translate(316,117)"/>
<path d="M0 0 C4.95 0 9.9 0 15 0 C14.67 4.95 14.34 9.9 14 15 C10.04 15 6.08 15 2 15 C2.07 12.27 2.13 9.53 2.2 6.8 C2.16 3.67 2.16 3.67 0 0 Z " fill="#0D0E0E" transform="translate(148,250)"/>
<path d="M0 0 C0.99 0 1.98 0 3 0 C2.94 0.59 2.89 1.18 2.83 1.78 C1.73 13.51 0.7 25.24 0 37 C0.33 34.69 0.66 32.38 1 30 C1.33 30 1.66 30 2 30 C2.17 36.18 1.54 41.92 0.5 48 C0.36 48.87 0.21 49.74 0.07 50.64 C-0.28 52.76 -0.64 54.88 -1 57 C-1.33 57 -1.66 57 -2 57 C-2 53.04 -2 49.08 -2 45 C-2.5 49.95 -2.5 49.95 -3 55 C-3.99 55 -4.98 55 -6 55 C-6.03 53.56 -6.05 52.13 -6.06 50.69 C-6.07 49.89 -6.09 49.09 -6.1 48.26 C-6 46 -6 46 -5 43 C-4.67 40.46 -4.39 37.92 -4.12 35.38 C-3.27 27.37 -2.34 19.37 -1.38 11.38 C-1.24 10.25 -1.1 9.13 -0.97 7.98 C-0.64 5.32 -0.32 2.66 0 0 Z " fill="#A4ADB6" transform="translate(248,237)"/>
<path d="M0 0 C0.66 0 1.32 0 2 0 C1.33 4.13 0.01 7.83 -1.48 11.72 C-2.18 14.03 -2.18 14.03 -1.47 16.48 C-0.89 19.6 -1.52 21.01 -2.81 23.88 C-4.55 27.89 -5.9 31.77 -7 36 C-7.5 34.51 -7.5 34.51 -8 33 C-8.66 33 -9.32 33 -10 33 C-10.23 34.2 -10.45 35.39 -10.69 36.62 C-12.15 43.29 -14.62 49.62 -17 56 C-17.66 56 -18.32 56 -19 56 C-18.43 51.02 -17.35 46.7 -15.62 42 C-15.09 40.53 -14.56 39.06 -14.03 37.59 C-13.72 36.74 -13.41 35.89 -13.09 35.02 C-11.77 31.36 -10.48 27.7 -9.19 24.03 C-8.44 21.9 -7.69 19.77 -6.94 17.64 C-6.44 16.21 -5.94 14.78 -5.44 13.36 C-4.72 11.33 -4.01 9.31 -3.29 7.28 C-2.88 6.1 -2.46 4.91 -2.03 3.69 C-1 1 -1 1 0 0 Z " fill="#AAB4BC" transform="translate(96,244)"/>
<path d="M0 0 C4.95 0 9.9 0 15 0 C14.52 7.6 13.96 15.18 13.12 22.75 C13.06 23.44 12.99 24.13 12.92 24.84 C12.7 26.8 12.7 26.8 12 30 C9.08 31.95 7.37 32.45 4 33 C4.66 32.01 5.32 31.02 6 30 C6.37 27.87 6.64 25.73 6.85 23.58 C6.98 22.33 7.11 21.07 7.24 19.78 C7.37 18.47 7.49 17.16 7.62 15.81 C7.76 14.48 7.9 13.14 8.03 11.81 C8.36 8.54 8.68 5.27 9 2 C6.03 1.67 3.06 1.34 0 1 C0 0.67 0 0.34 0 0 Z " fill="#E1E2E4" transform="translate(288,256)"/>
<path d="M0 0 C12.81 9.74 22.91 25.74 28 41 C28 42.32 28 43.64 28 45 C27.01 45 26.02 45 25 45 C24.73 44.21 24.46 43.42 24.19 42.61 C18.92 27.97 10.57 13.54 -2 4 C-1.34 2.68 -0.68 1.36 0 0 Z " fill="#5B5257" transform="translate(285,136)"/>
<path d="M0 0 C3 1 3 1 4 3 C4 4.99 3.94 6.98 3.84 8.96 C3.79 10.15 3.74 11.35 3.68 12.58 C3.56 15.1 3.44 17.63 3.32 20.15 C3.26 21.34 3.21 22.54 3.16 23.77 C3.1 24.87 3.05 25.97 2.99 27.1 C3 29.66 3.3 31.56 4 34 C3.88 36.36 3.88 36.36 3.56 38.75 C3.46 39.55 3.36 40.35 3.25 41.17 C3.17 41.78 3.09 42.38 3 43 C2.34 41.68 1.68 40.36 1 39 C0.92 39.58 0.84 40.16 0.76 40.76 C0.39 43.4 0.01 46.04 -0.38 48.69 C-0.5 49.6 -0.63 50.51 -0.76 51.45 C-1.4 55.89 -2.03 59.92 -4 64 C-4.33 64 -4.66 64 -5 64 C-4.4 57.8 -3.74 51.61 -3.06 45.42 C-2.89 43.83 -2.71 42.24 -2.54 40.65 C-2.27 38.21 -2 35.76 -1.73 33.31 C1.26 16.43 1.26 16.43 0 0 Z " fill="#A5AFB9" transform="translate(51,247)"/>
<path d="M0 0 C1.08 1.08 1.08 1.08 2.19 2.19 C6.99 6.26 13.13 7.95 19 10 C18.36 15.55 17.5 21.01 16.44 26.5 C16.3 27.23 16.16 27.95 16.02 28.7 C15.68 30.47 15.34 32.23 15 34 C10.71 33.43 7.86 31.91 4.25 29.56 C3.29 28.95 2.32 28.33 1.33 27.69 C-1 26 -1 26 -2 24 C1.49 25.11 4.77 26.26 8 28 C8.33 25.69 8.66 23.38 9 21 C9.33 21 9.66 21 10 21 C10 23.64 10 26.28 10 29 C10.99 29.33 11.98 29.66 13 30 C12.96 28.89 12.92 27.77 12.88 26.62 C12.86 21.6 13.88 16.88 15 12 C14.01 12 13.02 12 12 12 C11.67 14.64 11.34 17.28 11 20 C10.67 20 10.34 20 10 20 C10.33 16.37 10.66 12.74 11 9 C10.09 8.71 9.19 8.42 8.25 8.12 C2.72 6.21 2.72 6.21 1 5 C0.25 2.38 0.25 2.38 0 0 Z " fill="#D4D6D8" transform="translate(161,53)"/>
<path d="M0 0 C0.99 0 1.98 0 3 0 C2.86 1.15 2.71 2.3 2.56 3.49 C1.19 15.05 0.77 26.37 1 38 C0.34 37.01 -0.32 36.02 -1 35 C-1.99 41.6 -2.98 48.2 -4 55 C-4.66 55 -5.32 55 -6 55 C-6.66 43.43 -4.67 32.16 -3 20.75 C-2.71 18.73 -2.42 16.72 -2.13 14.7 C-1.43 9.8 -0.72 4.9 0 0 Z " fill="#A6B1BB" transform="translate(338,232)"/>
<path d="M0 0 C0 0.33 0 0.66 0 1 C-0.9 1.05 -1.8 1.1 -2.72 1.15 C-6.05 1.34 -9.38 1.54 -12.71 1.74 C-14.15 1.83 -15.59 1.91 -17.03 1.99 C-19.1 2.11 -21.17 2.24 -23.24 2.37 C-24.49 2.44 -25.73 2.51 -27.02 2.59 C-30.11 2.71 -30.11 2.71 -32 5 C-31.34 5.66 -30.68 6.32 -30 7 C-41.68 7.71 -53.29 8.15 -65 8 C-65 7.67 -65 7.34 -65 7 C-64 6.94 -63 6.88 -61.97 6.82 C-60.68 6.73 -59.39 6.65 -58.06 6.56 C-56.77 6.48 -55.49 6.4 -54.16 6.32 C-51.14 6.35 -51.14 6.35 -50 5 C-56.27 4.67 -62.54 4.34 -69 4 C-69 3.67 -69 3.34 -69 3 C-61.91 2.57 -54.81 2.14 -47.72 1.72 C-45.31 1.57 -42.91 1.43 -40.5 1.28 C-26.99 0.46 -13.54 -0.26 0 0 Z " fill="#A0001E" transform="translate(194,302)"/>
<path d="M0 0 C0.66 0 1.32 0 2 0 C4.64 11.31 3.98 20.58 2 32 C-1.3 32 -4.6 32 -8 32 C-8 30.02 -8 28.04 -8 26 C-7.67 26 -7.34 26 -7 26 C-7 27.65 -7 29.3 -7 31 C-5.68 30.67 -4.36 30.34 -3 30 C-3.04 28.91 -3.08 27.81 -3.12 26.69 C-3.13 22.29 -2.36 18.2 -1.51 13.9 C-0.7 9.29 -0.34 4.66 0 0 Z " fill="#D0D1D3" transform="translate(223,264)"/>
<path d="M0 0 C0.5 1.98 0.5 1.98 1 4 C0.27 4.09 -0.45 4.17 -1.2 4.26 C-12.09 5.78 -21.24 9.32 -30.16 15.77 C-32 17 -32 17 -35 18 C-35.33 16.68 -35.66 15.36 -36 14 C-25.6 6.42 -13.23 -0.66 0 0 Z " fill="#5A5459" transform="translate(343,175)"/>
<path d="M0 0 C3.3 0 6.6 0 10 0 C13.4 11.12 15.66 20.38 14 32 C13.34 32 12.68 32 12 32 C10.83 27.56 9.66 23.13 8.5 18.69 C8 16.79 8 16.79 7.49 14.86 C7.17 13.65 6.86 12.44 6.53 11.2 C6.24 10.08 5.94 8.97 5.64 7.82 C5 5 5 5 5 2 C3.35 1.67 1.7 1.34 0 1 C0 0.67 0 0.34 0 0 Z " fill="#DBDDDF" transform="translate(223,235)"/>
<path d="M0 0 C0.33 0.66 0.66 1.32 1 2 C-0.1 3.9 -0.1 3.9 -1.78 6.22 C-2.67 7.49 -2.67 7.49 -3.58 8.8 C-4.85 10.58 -6.12 12.35 -7.42 14.11 C-11.33 19.78 -12.7 23.31 -11.45 30.18 C-11.23 31.08 -11.23 31.08 -11 32 C-10.34 32 -9.68 32 -9 32 C-9.33 29.69 -9.66 27.38 -10 25 C-7.41 28.89 -7.37 31.36 -7 36 C-7.33 36.66 -7.66 37.32 -8 38 C-7.49 40.49 -7.49 40.49 -6.62 43.25 C-5.5 47.16 -4.55 50.96 -4 55 C-4.99 54.67 -5.98 54.34 -7 54 C-7.86 52.19 -7.86 52.19 -8.54 49.84 C-8.91 48.56 -8.91 48.56 -9.3 47.24 C-9.55 46.34 -9.8 45.43 -10.06 44.5 C-10.32 43.63 -10.57 42.75 -10.84 41.85 C-11.59 39.24 -12.31 36.63 -13 34 C-13.22 33.18 -13.44 32.36 -13.66 31.51 C-13.86 30.73 -14.05 29.96 -14.25 29.16 C-14.42 28.47 -14.59 27.79 -14.76 27.09 C-15.3 22.37 -13.75 19.19 -11.09 15.39 C-10.51 14.55 -9.94 13.72 -9.34 12.86 C-8.73 12 -8.13 11.14 -7.5 10.25 C-6.89 9.37 -6.29 8.5 -5.66 7.6 C-1.22 1.22 -1.22 1.22 0 0 Z " fill="#ABB4BE" transform="translate(210,239)"/>
<path d="M0 0 C-0.14 1.77 -0.29 3.54 -0.44 5.31 C-0.52 6.3 -0.6 7.28 -0.68 8.3 C-1 11 -1 11 -2 14 C-0.68 14.33 0.64 14.66 2 15 C-2.62 15.66 -7.24 16.32 -12 17 C-12.49 9.62 -12.49 9.62 -10 6.5 C-9.34 6 -8.68 5.51 -8 5 C-8.33 4.34 -8.66 3.68 -9 3 C-2.25 0 -2.25 0 0 0 Z " fill="#909CA8" transform="translate(109,146)"/>
<path d="M0 0 C0.99 0.66 1.98 1.32 3 2 C2.7 6.67 2.36 11.33 2 16 C1.95 16.76 1.9 17.53 1.85 18.31 C1.55 21.48 1.16 22.83 -1.06 25.19 C-5.25 31.26 -3.07 40.07 -2 47 C-1.92 49.67 -1.95 52.32 -2 55 C-2.99 55 -3.98 55 -5 55 C-5.06 54.05 -5.12 53.09 -5.18 52.11 C-5.27 50.86 -5.35 49.6 -5.44 48.31 C-5.52 47.07 -5.6 45.83 -5.68 44.55 C-5.95 41.61 -6.38 38.88 -7 36 C-7.52 30.21 -6.63 28.37 -3 24 C-0.25 16.34 -0.37 8.06 0 0 Z " fill="#A0ACB7" transform="translate(168,241)"/>
<path d="M0 0 C0.66 0 1.32 0 2 0 C1.6 8.81 1.08 17.47 -0.39 26.18 C-1.25 31.54 -1.93 36.92 -2.62 42.31 C-2.76 43.36 -2.9 44.4 -3.03 45.48 C-3.36 47.99 -3.68 50.49 -4 53 C-4.66 53 -5.32 53 -6 53 C-6.26 44.34 -5.51 36.17 -4.12 27.62 C-3.76 25.26 -3.39 22.89 -3.02 20.52 C-2.85 19.4 -2.67 18.28 -2.49 17.12 C-1.87 13.19 -1.31 9.25 -0.75 5.31 C-0.6 4.26 -0.45 3.2 -0.3 2.11 C-0.2 1.42 -0.1 0.72 0 0 Z " fill="#A1ADB8" transform="translate(366,246)"/>
<path d="M0 0 C2.67 1.17 5.2 2.61 7.69 4.12 C8.29 4.48 8.89 4.83 9.51 5.2 C13.38 9.89 12.12 18.67 12.06 24.5 C12.06 25.32 12.05 26.14 12.05 26.99 C12.04 28.99 12.02 31 12 33 C11.67 33 11.34 33 11 33 C10.77 32.07 10.54 31.14 10.3 30.18 C8.09 21.52 5.39 13.29 2 5 C1.33 3.33 0.67 1.67 0 0 Z " fill="#8E98A1" transform="translate(193,83)"/>
<path d="M0 0 C0.55 0.17 1.1 0.34 1.66 0.52 C16.31 4.99 30.94 8.29 46 11 C46 11.33 46 11.66 46 12 C27.99 12.84 15.72 10.34 0 1 C0 0.67 0 0.34 0 0 Z " fill="#C30025" transform="translate(110,215)"/>
<path d="M0 0 C3.95 1.58 6.29 4.19 9.19 7.25 C12.58 10.82 15.83 13.65 20.19 16 C22.38 17.32 22.38 17.32 24 19 C24.75 22.78 24.55 26.2 24 30 C22.02 29.01 20.04 28.02 18 27 C18 24.03 18 21.06 18 18 C16.68 17.34 15.36 16.68 14 16 C8.69 12.12 3.91 7.28 0 2 C0 1.34 0 0.68 0 0 Z " fill="#E1E2E3" transform="translate(143,74)"/>
<path d="M0 0 C0.99 0.01 1.99 0.02 3.01 0.03 C4.15 0.04 4.15 0.04 5.31 0.06 C5.81 1.55 5.81 1.55 6.31 3.06 C5.51 3.08 4.71 3.09 3.89 3.11 C-9.29 3.68 -18.44 7.65 -27.69 17.06 C-28.68 16.73 -29.67 16.4 -30.69 16.06 C-28.12 10 -22.63 6.37 -16.75 3.76 C-14.08 2.79 -11.41 1.89 -8.69 1.06 C-5.54 0.01 -3.3 -0.04 0 0 Z " fill="#5C4F55" transform="translate(316.6875,109.9375)"/>
<path d="M0 0 C0.99 0.66 1.98 1.32 3 2 C2.34 2.66 1.68 3.32 1 4 C0.77 6.46 0.77 6.46 0.91 9.3 C0.93 10.36 0.95 11.42 0.97 12.51 C1.03 14.75 1.1 16.98 1.17 19.21 C1.18 20.28 1.2 21.34 1.22 22.43 C1.25 23.4 1.28 24.37 1.31 25.37 C1 28 1 28 -2 32 C-2.66 25.07 -3.32 18.14 -4 11 C-4.33 12.98 -4.66 14.96 -5 17 C-5.33 17 -5.66 17 -6 17 C-6.92 5.21 -6.92 5.21 -4.66 2.25 C-3 1.19 -3 1.19 0 0 Z " fill="#5E6C78" transform="translate(180,116)"/>
<path d="M0 0 C-0.73 5.88 -6.11 9.7 -10.09 13.7 C-11.62 15.24 -13.11 16.81 -14.61 18.38 C-15.59 19.36 -16.56 20.35 -17.54 21.33 C-18.42 22.22 -19.3 23.12 -20.2 24.04 C-23.69 26.48 -25.84 26.38 -30 26 C-27.36 23.27 -24.66 20.91 -21.62 18.62 C-16.19 14.36 -11.43 9.54 -6.65 4.57 C-6.07 3.98 -5.5 3.39 -4.91 2.78 C-4.39 2.25 -3.88 1.71 -3.35 1.16 C-2 0 -2 0 0 0 Z " fill="#585055" transform="translate(301,195)"/>
<path d="M0 0 C0.76 -0.01 1.52 -0.01 2.31 -0.02 C4.78 0.28 6.42 1.02 8.56 2.25 C8.38 4.56 8.38 4.56 7.56 7.25 C3.97 10.22 1.15 10.67 -3.44 10.25 C-3.77 9.92 -4.1 9.59 -4.44 9.25 C-4.4 8.45 -4.35 7.64 -4.31 6.81 C-4.37 5.54 -4.37 5.54 -4.44 4.25 C-5.43 3.59 -6.42 2.93 -7.44 2.25 C-4.33 0.18 -3.55 -0.02 0 0 Z " fill="#F8F8F8" transform="translate(165.4375,25.75)"/>
<path d="M0 0 C3.3 0 6.6 0 10 0 C9.86 1.36 9.71 2.72 9.56 4.12 C8.9 10.74 8.45 17.37 8 24 C7.34 24 6.68 24 6 24 C6 23.01 6 22.02 6 21 C5.34 21 4.68 21 4 21 C3.67 21.99 3.34 22.98 3 24 C2.13 21.1 1.95 18.89 2.34 15.89 C2.43 15.14 2.53 14.38 2.62 13.61 C2.78 12.44 2.78 12.44 2.94 11.25 C3.04 10.46 3.14 9.66 3.24 8.85 C3.49 6.9 3.74 4.95 4 3 C5.65 2.34 7.3 1.68 9 1 C6.36 1 3.72 1 1 1 C0.67 1.99 0.34 2.98 0 4 C0 2.68 0 1.36 0 0 Z " fill="#D9DADB" transform="translate(182,237)"/>
<path d="M0 0 C3.3 0 6.6 0 10 0 C8.84 14.85 6.76 29.37 4 44 C3.67 44 3.34 44 3 44 C2.78 35.74 3.43 27.75 4.44 19.56 C4.57 18.41 4.71 17.25 4.85 16.06 C5.94 6.84 5.94 6.84 7 3 C5.02 2.34 3.04 1.68 1 1 C0.67 1.99 0.34 2.98 0 4 C0 2.68 0 1.36 0 0 Z " fill="#E0E1E2" transform="translate(244,234)"/>
<path d="M0 0 C0.33 0.66 0.66 1.32 1 2 C0.67 2.66 0.34 3.32 0 4 C-0.2 7.72 -0.35 11.44 -0.43 15.17 C-0.63 20.16 -1.36 23.62 -4 28 C-4.33 28 -4.66 28 -5 28 C-5.8 22.95 -6.3 17.99 -6.44 12.88 C-6.51 11.84 -6.51 11.84 -6.58 10.79 C-6.64 7.88 -6.56 5.66 -4.63 3.4 C-2.97 2.01 -2.97 2.01 0 0 Z " fill="#6E0220" transform="translate(78,108)"/>
<path d="M0 0 C0.66 0 1.32 0 2 0 C2.33 1.98 2.66 3.96 3 6 C3.33 4.02 3.66 2.04 4 0 C4.33 0 4.66 0 5 0 C5.33 5.61 5.66 11.22 6 17 C5.67 17 5.34 17 5 17 C5.02 18.13 5.05 19.26 5.07 20.43 C5.09 21.91 5.11 23.39 5.12 24.88 C5.14 25.62 5.16 26.37 5.18 27.14 C5.19 29.09 5.1 31.05 5 33 C4.34 33.66 3.68 34.32 3 35 C2.49 31.04 1.99 27.08 1.5 23.12 C1.36 22.02 1.21 20.91 1.07 19.77 C0.25 13.14 -0.2 6.68 0 0 Z " fill="#9DA9B5" transform="translate(70,246)"/>
<path d="M0 0 C1.25 0 2.49 0.01 3.78 0.01 C5.07 0.02 6.37 0.03 7.7 0.04 C9.67 0.04 9.67 0.04 11.68 0.05 C14.91 0.06 18.15 0.08 21.39 0.1 C21.39 1.75 21.39 3.4 21.39 5.1 C20.89 3.12 20.89 3.12 20.39 1.1 C5.04 1.59 5.04 1.59 -10.61 2.1 C-10.61 5.4 -10.61 8.7 -10.61 12.1 C-10.9 14.44 -11.21 16.78 -11.61 19.1 C-11.94 19.1 -12.27 19.1 -12.61 19.1 C-12.61 14.48 -12.61 9.86 -12.61 5.1 C-15.09 9.06 -15.09 9.06 -17.61 13.1 C-18.61 11.1 -18.61 11.1 -18.05 9.15 C-17.24 7.13 -16.43 5.12 -15.61 3.1 C-18.58 3.1 -21.55 3.1 -24.61 3.1 C-20.37 0.97 -18.25 0.93 -13.61 1.1 C-11.56 1.17 -11.56 1.17 -9.4 0.6 C-6.21 0.03 -3.24 -0.01 0 0 Z " fill="#393A3B" transform="translate(116.61328125,238.90234375)"/>
<path d="M0 0 C0.73 0.14 1.45 0.29 2.2 0.43 C3.97 0.78 5.74 1.14 7.5 1.5 C7.5 6.45 7.5 11.4 7.5 16.5 C6.51 16.83 5.52 17.16 4.5 17.5 C4 11.06 4 11.06 3.5 4.5 C-1.81 2.69 -1.81 2.69 -7.02 2.09 C-7.82 2.05 -8.61 2.01 -9.43 1.97 C-10.64 1.92 -10.64 1.92 -11.88 1.88 C-12.71 1.84 -13.54 1.8 -14.39 1.76 C-16.43 1.66 -18.46 1.58 -20.5 1.5 C-20.5 0.84 -20.5 0.18 -20.5 -0.5 C-13.81 -2.73 -6.72 -1.38 0 0 Z " fill="#BEBEBE" transform="translate(197.5,201.5)"/>
<path d="M0 0 C5.61 0 11.22 0 17 0 C17 1.65 17 3.3 17 5 C16.67 3.68 16.34 2.36 16 1 C11.05 1 6.1 1 1 1 C0.34 4.96 -0.32 8.92 -1 13 C0.98 13 2.96 13 5 13 C4.67 17.29 4.34 21.58 4 26 C0.04 26 -3.92 26 -8 26 C-7.67 20.72 -7.34 15.44 -7 10 C-6.67 10 -6.34 10 -6 10 C-6 14.62 -6 19.24 -6 24 C-3.03 24 -0.06 24 3 24 C2.98 22.72 2.96 21.44 2.94 20.12 C2.88 16.25 2.88 16.25 4 14 C2.02 14 0.04 14 -2 14 C-2.05 12.42 -2.09 10.83 -2.12 9.25 C-2.15 8.37 -2.17 7.49 -2.2 6.58 C-2 4 -2 4 0 0 Z " fill="#373738" transform="translate(287,255)"/>
<path d="M0 0 C0.33 0 0.66 0 1 0 C1.34 9.03 0.27 17.77 -1 26.69 C-1.19 28.08 -1.39 29.48 -1.58 30.87 C-2.05 34.25 -2.52 37.63 -3 41 C-3.66 41 -4.32 41 -5 41 C-5.28 32.1 -4.45 23.66 -3.06 14.88 C-2.79 13.05 -2.79 13.05 -2.51 11.19 C-1.15 2.3 -1.15 2.3 0 0 Z " fill="#A2AEB9" transform="translate(26,264)"/>
<path d="M0 0 C9.71 -0.74 17.08 1.29 24.62 7.56 C26.6 9.32 26.6 9.32 28 11 C28 11.99 28 12.98 28 14 C26.68 14 25.36 14 24 14 C22.66 12.34 21.32 10.67 20 9 C15.84 6.5 11.65 5.3 7 4 C4.63 3.07 2.32 2.04 0 1 C0 0.67 0 0.34 0 0 Z " fill="#B90225" transform="translate(275,89)"/>
<path d="M0 0 C0.33 0 0.66 0 1 0 C2.05 26.56 2.05 26.56 -3.88 33.62 C-8.58 37.33 -14.34 36.59 -20 36 C-20 35.67 -20 35.34 -20 35 C-15.55 34.5 -15.55 34.5 -11 34 C-11 33.34 -11 32.68 -11 32 C-10.05 31.45 -9.09 30.91 -8.11 30.34 C-4.79 27.84 -4.17 26.6 -3.51 22.57 C-3.42 21.88 -3.34 21.2 -3.25 20.5 C-3.14 19.8 -3.03 19.09 -2.92 18.37 C-2.7 16.94 -2.49 15.51 -2.29 14.07 C-1.86 11.04 -1.33 8.02 -0.81 5 C-0.54 3.33 -0.27 1.67 0 0 Z " fill="#E8E8E9" transform="translate(52,282)"/>
<path d="M0 0 C4.53 0.53 7.42 2.22 11 5 C12.38 7.25 12.38 7.25 13 9 C7.25 13 7.25 13 5 13 C3.62 11.04 2.29 9.03 1 7 C0.01 5.66 -0.98 4.32 -2 3 C0.97 3.5 0.97 3.5 4 4 C2.68 2.68 1.36 1.36 0 0 Z " fill="#2D292C" transform="translate(286,94)"/>
<path d="M0 0 C0.66 0.33 1.32 0.66 2 1 C2.2 4.15 2.38 7.29 2.56 10.44 C2.62 11.34 2.67 12.23 2.73 13.16 C2.78 14.01 2.83 14.87 2.88 15.75 C2.93 16.54 2.97 17.33 3.02 18.14 C3 20 3 20 2 21 C0.48 21.07 -1.04 21.08 -2.56 21.06 C-3.39 21.05 -4.22 21.04 -5.07 21.04 C-6.02 21.02 -6.02 21.02 -7 21 C-7 18.69 -7 16.38 -7 14 C-6.67 14 -6.34 14 -6 14 C-6 15.98 -6 17.96 -6 20 C-5.01 19.67 -4.02 19.34 -3 19 C-2.95 18.3 -2.9 17.6 -2.85 16.88 C-2.39 11.03 -1.6 5.64 0 0 Z " fill="#D4D6D7" transform="translate(312,270)"/>
<path d="M0 0 C2.97 0 5.94 0 9 0 C8.5 10.77 7.6 21.34 6 32 C5.34 32 4.68 32 4 32 C3.73 25.77 4.16 19.73 4.94 13.56 C5.02 12.86 5.11 12.17 5.2 11.45 C5.59 8.5 6.06 5.83 7 3 C6.01 3 5.02 3 4 3 C4 2.34 4 1.68 4 1 C2.68 0.67 1.36 0.34 0 0 Z " fill="#DBDCDD" transform="translate(334,229)"/>
<path d="M0 0 C0 4.17 -0.15 8.33 -0.31 12.5 C-0.35 13.8 -0.35 13.8 -0.38 15.13 C-0.42 15.96 -0.45 16.8 -0.49 17.66 C-0.51 18.42 -0.54 19.18 -0.57 19.96 C-1.1 22.46 -2.07 23.39 -4 25 C-4 22.36 -4 19.72 -4 17 C-4.66 17.99 -5.32 18.98 -6 20 C-6.99 20 -7.98 20 -9 20 C-8.56 18.95 -8.56 18.95 -8.12 17.88 C-6.57 13.9 -5.36 9.83 -4.1 5.74 C-3.04 3.1 -2.17 1.79 0 0 Z " fill="#A20422" transform="translate(214,181)"/>
<path d="M0 0 C2.36 -0.15 2.36 -0.15 5 0 C8.36 3.45 9.27 6.31 9.38 11 C9.2 14.96 8.8 18.4 7 22 C4.88 23.38 4.88 23.38 3 24 C3.33 23.38 3.66 22.76 4 22.12 C5.71 16.77 6.1 11.61 3.88 6.35 C2.66 4.17 1.4 2.07 0 0 Z " fill="#BF0125" transform="translate(345,184)"/>
<path d="M0 0 C0.66 0.33 1.32 0.66 2 1 C1.32 12.04 0.21 23.01 -1 34 C-1.99 34 -2.98 34 -4 34 C-3.54 22.47 -2.09 11.34 0 0 Z " fill="#A1ADB8" transform="translate(278,247)"/>
<path d="M0 0 C3.62 1.21 3.95 2.14 5.88 5.31 C8.21 8.98 10.47 11.41 14 14 C14 14.66 14 15.32 14 16 C10.57 15.93 7.95 15.81 5.27 13.52 C2.7 10.55 0.54 7.63 -1 4 C-0.62 1.75 -0.62 1.75 0 0 Z " fill="#27282A" transform="translate(312,195)"/>
<path d="M0 0 C-0.99 1.48 -0.99 1.48 -2 3 C-1.66 5.52 -1.66 5.52 -1 8 C-1 8.99 -1 9.98 -1 11 C-1.33 10.67 -1.66 10.34 -2 10 C-4 9.96 -6 9.96 -8 10 C-8.33 10.66 -8.66 11.32 -9 12 C-9.66 12 -10.32 12 -11 12 C-11.36 5.68 -11.36 5.68 -9.75 2.69 C-6.51 -0.44 -4.36 -1.56 0 0 Z " fill="#5A6873" transform="translate(155,34)"/>
<path d="M0 0 C1.65 0 3.3 0 5 0 C5.08 4.28 4.85 7.76 4 12 C9.28 12 14.56 12 20 12 C20 12.33 20 12.66 20 13 C13.07 13 6.14 13 -1 13 C-0.67 8.71 -0.34 4.42 0 0 Z " fill="#CBCCCE" transform="translate(106,277)"/>
<path d="M0 0 C3.48 0.3 5.02 1.01 7.81 3.19 C10.36 6.46 10.47 7.96 10 12 C8.35 12.33 6.7 12.66 5 13 C2.1 8.78 1.09 4.93 0 0 Z " fill="#030303" transform="translate(332,191)"/>
<path d="M0 0 C0.33 0 0.66 0 1 0 C1.1 7.75 1.06 15.31 0 23 C-0.33 23 -0.66 23 -1 23 C-1.33 20.69 -1.66 18.38 -2 16 C-2.33 18.97 -2.66 21.94 -3 25 C-3.99 25 -4.98 25 -6 25 C-5.34 18.4 -4.68 11.8 -4 5 C-3.01 6.49 -3.01 6.49 -2 8 C-1.34 5.36 -0.68 2.72 0 0 Z " fill="#C1C7CD" transform="translate(263,266)"/>
<path d="M0 0 C5.41 0.27 8.3 2.44 12.36 5.72 C13.79 7.1 13.79 7.1 15 7 C15.29 14.43 15.29 14.43 13 18 C12.67 18 12.34 18 12 18 C11.77 16.76 11.55 15.53 11.31 14.25 C10.25 9.99 8.68 8.48 5 6 C3.3 4.37 1.62 2.71 0 1 C0 0.67 0 0.34 0 0 Z " fill="#2B272A" transform="translate(265,95)"/>
<path d="M0 0 C0.56 0.19 1.11 0.39 1.69 0.59 C5.56 1.91 9.39 3.14 13.38 4.06 C17 5 17 5 20 7 C20 8.32 20 9.64 20 11 C15.52 10.37 11.76 8.64 7.75 6.62 C7.11 6.32 6.48 6.02 5.82 5.7 C4.17 4.88 2.58 3.95 1 3 C0.67 2.01 0.34 1.02 0 0 Z " fill="#596772" transform="translate(151,169)"/>
<path d="M0 0 C0.66 0 1.32 0 2 0 C2.13 6.29 1.73 12.17 0.69 18.38 C0.57 19.17 0.45 19.96 0.33 20.78 C0.14 21.92 0.14 21.92 -0.05 23.09 C-0.16 23.77 -0.27 24.45 -0.38 25.15 C-1.13 27.39 -2.24 28.46 -4 30 C-4.66 29.67 -5.32 29.34 -6 29 C-5.34 28.34 -4.68 27.68 -4 27 C-3.46 24.65 -3.46 24.65 -3.18 21.91 C-3.06 20.9 -2.93 19.89 -2.81 18.84 C-2.68 17.78 -2.56 16.72 -2.44 15.62 C-2.19 13.53 -1.94 11.44 -1.68 9.35 C-1.58 8.42 -1.47 7.49 -1.36 6.53 C-1.04 4.29 -0.6 2.18 0 0 Z " fill="#A2AEB9" transform="translate(298,259)"/>
<path d="M0 0 C0.66 0 1.32 0 2 0 C2.25 9.94 1.7 19.18 0 29 C-0.66 29 -1.32 29 -2 29 C-2.3 19.14 -1.4 9.73 0 0 Z " fill="#A5B0BB" transform="translate(223,264)"/>
<path d="M0 0 C0.39 0.47 0.78 0.95 1.19 1.44 C2.91 3.19 2.91 3.19 5.38 3.44 C8.72 4.15 10.41 5.82 13 8 C13.99 8.33 14.98 8.66 16 9 C16 9.66 16 10.32 16 11 C12.55 11.49 9.44 11.68 6 11 C3.29 8.73 1.5 6.19 0 3 C0 2.01 0 1.02 0 0 Z " fill="#161718" transform="translate(177,215)"/>
<path d="M0 0 C1.32 0.66 2.64 1.32 4 2 C3.72 2.63 3.45 3.26 3.16 3.91 C0.85 9.36 -0.56 14.09 -1 20 C-1.99 19.67 -2.98 19.34 -4 19 C-4.47 11.67 -3.1 6.63 0 0 Z " fill="#5B5257" transform="translate(274,140)"/>
<path d="M0 0 C2.44 2.26 4.12 4.62 5.88 7.44 C8.22 11.06 10.59 13.35 14 16 C15.31 18.75 15.31 18.75 16 21 C13.32 19.02 10.65 17.02 8 15 C7.42 14.56 6.84 14.12 6.24 13.66 C3.02 11.12 0.62 8.8 -1 5 C-0.69 2.19 -0.69 2.19 0 0 Z " fill="#B60225" transform="translate(263,82)"/>
<path d="M0 0 C0.33 0.66 0.66 1.32 1 2 C0.71 2.78 0.42 3.57 0.12 4.38 C-1.22 8.7 -1.33 12.69 -1.46 17.2 C-2.12 20.61 -3.37 21.81 -6 24 C-6.43 16.63 -6.56 7.03 -1.39 1.18 C-0.93 0.79 -0.47 0.4 0 0 Z " fill="#D9D9D9" transform="translate(188,59)"/>
<path d="M0 0 C4.63 4.26 7.83 7.92 8.19 14.38 C8.13 15.24 8.06 16.11 8 17 C2.12 13.12 2.12 13.12 1 12 C0.77 9.98 0.59 7.96 0.44 5.94 C0.35 4.83 0.27 3.73 0.18 2.59 C0.09 1.31 0.09 1.31 0 0 Z " fill="#B50022" transform="translate(303,79)"/>
<path d="M0 0 C1.32 0 2.64 0 4 0 C5.48 2.96 5.06 5.74 5 9 C4.67 9 4.34 9 4 9 C3.67 7.35 3.34 5.7 3 4 C2.34 9.94 1.68 15.88 1 22 C0.01 22 -0.98 22 -2 22 C-1.41 14.66 -0.76 7.33 0 0 Z " fill="#A9B3BC" transform="translate(316,233)"/>
<path d="M0 0 C2.21 3.31 2.78 5.82 3.62 9.69 C3.89 10.87 4.15 12.05 4.41 13.26 C4.61 14.17 4.8 15.07 5 16 C8.3 16.33 11.6 16.66 15 17 C15 14.69 15 12.38 15 10 C15.33 10 15.66 10 16 10 C16.1 16.15 16.1 16.15 16 18 C15 19 15 19 12.28 19.1 C11.18 19.09 10.07 19.07 8.94 19.06 C7.28 19.05 7.28 19.05 5.59 19.04 C4.74 19.02 3.88 19.01 3 19 C0.99 12.5 -0.39 6.82 0 0 Z " fill="#3F4041" transform="translate(232,277)"/>
<path d="M0 0 C0.66 0 1.32 0 2 0 C2.85 2.81 3.68 5.62 4.5 8.44 C4.74 9.22 4.98 10 5.22 10.81 C6.83 16.38 7.23 21.2 7 27 C4.75 24.75 4.47 23.64 3.71 20.61 C3.49 19.73 3.27 18.86 3.05 17.96 C2.83 17.04 2.6 16.13 2.38 15.19 C2.15 14.28 1.92 13.38 1.68 12.45 C0.63 8.18 -0.13 4.42 0 0 Z " fill="#A2AEB9" transform="translate(229,238)"/>
<path d="M0 0 C0.99 0.33 1.98 0.66 3 1 C3.33 2.65 3.66 4.3 4 6 C4.66 6 5.32 6 6 6 C6.33 4.68 6.66 3.36 7 2 C6.67 5.63 6.34 9.26 6 13 C2.7 13 -0.6 13 -4 13 C-4 12.01 -4 11.02 -4 10 C-7.3 10 -10.6 10 -14 10 C-14 9.67 -14 9.34 -14 9 C-10.37 9 -6.74 9 -3 9 C-3 9.99 -3 10.98 -3 12 C-0.36 12 2.28 12 5 12 C4.67 11.34 4.34 10.68 4 10 C3.01 10 2.02 10 1 10 C0.67 6.7 0.34 3.4 0 0 Z " fill="#9EA3A8" transform="translate(299,234)"/>
<path d="M0 0 C0.99 0 1.98 0 3 0 C2.46 5.69 1.86 11.35 1 17 C-0.32 16.67 -1.64 16.34 -3 16 C-2.88 14.27 -2.76 12.54 -2.62 10.81 C-2.56 9.85 -2.49 8.89 -2.41 7.89 C-2 4.98 -1.2 2.67 0 0 Z " fill="#282C33" transform="translate(167,63)"/>
<path d="M0 0 C-0.19 8.96 -0.19 8.96 -3.44 13.12 C-6 15 -6 15 -8 15 C-8.57 11.09 -8.74 9.08 -6.48 5.75 C-1.45 0 -1.45 0 0 0 Z " fill="#DBDBDB" transform="translate(188,88)"/>
<path d="M0 0 C10.97 -0.78 10.97 -0.78 14.75 2.06 C16.71 6.66 16.6 10.24 15 14.94 C14.5 15.96 14.5 15.96 14 17 C13.67 17 13.34 17 13 17 C12.67 13.04 12.34 9.08 12 5 C10.68 4.67 9.36 4.34 8 4 C8 3.01 8 2.02 8 1 C5.36 1 2.72 1 0 1 C0 0.67 0 0.34 0 0 Z " fill="#D9DADB" transform="translate(158,238)"/>
<path d="M0 0 C0.99 0 1.98 0 3 0 C3 4.29 3 8.58 3 13 C1.02 13.33 -0.96 13.66 -3 14 C-3.49 6.62 -3.49 6.62 -1 3.5 C-0.34 3 0.32 2.51 1 2 C0.67 1.34 0.34 0.68 0 0 Z " fill="#5A6772" transform="translate(100,149)"/>
<path d="M0 0 C3.05 6.1 2.12 14.35 2.06 21 C2.06 21.97 2.05 22.93 2.05 23.93 C2.04 26.28 2.02 28.64 2 31 C-1.3 31 -4.6 31 -8 31 C-8 30.67 -8 30.34 -8 30 C-5.03 30 -2.06 30 1 30 C0.86 28.74 0.71 27.49 0.56 26.2 C-1.38 8.86 -1.38 8.86 -1 1 C-0.67 0.67 -0.34 0.34 0 0 Z " fill="#5D5D5E" transform="translate(167,268)"/>
<path d="M0 0 C0.66 0 1.32 0 2 0 C1.71 0.54 1.42 1.07 1.12 1.62 C-2.04 8.31 -2.55 14.7 -3 22 C-3.99 22 -4.98 22 -6 22 C-6.3 7.27 -6.3 7.27 -2.56 2.56 C-1.72 1.72 -0.87 0.87 0 0 Z " fill="#A8B3BE" transform="translate(186,273)"/>
<path d="M0 0 C3.3 0 6.6 0 10 0 C10 0.33 10 0.66 10 1 C7.03 1 4.06 1 1 1 C0.67 5.29 0.34 9.58 0 14 C3.96 14 7.92 14 12 14 C12 15.65 12 17.3 12 19 C11.67 17.68 11.34 16.36 11 15 C10.34 15.16 9.68 15.33 9 15.5 C5.27 16.12 1.78 16.06 -2 16 C-2.24 10.22 -1.87 5.49 0 0 Z " fill="#5E5F60" transform="translate(348,228)"/>
<path d="M0 0 C0.99 0 1.98 0 3 0 C2.42 6.01 1.78 12.01 1 18 C-0.32 17.67 -1.64 17.34 -3 17 C-2.69 15.1 -2.38 13.21 -2.06 11.31 C-1.89 10.26 -1.71 9.2 -1.54 8.11 C-1.07 5.4 -0.56 2.7 0 0 Z " fill="#28282C" transform="translate(173,65)"/>
<path d="M0 0 C4.95 0 9.9 0 15 0 C15 2.31 15 4.62 15 7 C14.67 7 14.34 7 14 7 C14 5.02 14 3.04 14 1 C13.01 1.5 13.01 1.5 12 2 C9.36 2 6.72 2 4 2 C3.34 7.61 2.68 13.22 2 19 C1.67 19 1.34 19 1 19 C1.01 17.88 1.02 16.76 1.04 15.61 C1.04 14.13 1.05 12.66 1.06 11.19 C1.07 10.45 1.08 9.71 1.09 8.95 C1.1 5.7 1.04 3.11 0 0 Z " fill="#474849" transform="translate(314,266)"/>
<path d="M0 0 C0.33 0 0.66 0 1 0 C1.03 3.08 1.05 6.17 1.06 9.25 C1.07 10.12 1.08 11 1.09 11.89 C1.09 12.74 1.09 13.58 1.1 14.45 C1.1 15.23 1.11 16 1.11 16.8 C1 18.99 0.61 20.9 0 23 C2.64 23 5.28 23 8 23 C8 23.33 8 23.66 8 24 C5.03 24 2.06 24 -1 24 C-2.41 15.51 -2.16 8.32 0 0 Z " fill="#C6C7C8" transform="translate(26,281)"/>
<path d="M0 0 C1.5 2.36 2.09 3.49 1.58 6.29 C1.28 7.11 0.98 7.92 0.66 8.77 C0.34 9.66 0.02 10.54 -0.31 11.46 C-0.66 12.38 -1.01 13.3 -1.38 14.25 C-1.72 15.19 -2.06 16.12 -2.41 17.09 C-3.26 19.4 -4.12 21.7 -5 24 C-5.66 24 -6.32 24 -7 24 C-6.41 18.33 -4.91 13.4 -2.94 8.06 C-2.66 7.28 -2.37 6.5 -2.08 5.7 C-1.4 3.8 -0.7 1.9 0 0 Z " fill="#A2AEB9" transform="translate(84,276)"/>
<path d="M0 0 C0.74 0 1.47 0.01 2.23 0.01 C4.03 0.03 5.83 0.04 7.62 0.06 C7.62 0.39 7.62 0.72 7.62 1.06 C7.05 1.1 6.47 1.13 5.87 1.17 C3.22 1.34 0.58 1.54 -2.06 1.75 C-2.97 1.8 -3.89 1.86 -4.83 1.91 C-9.5 2.3 -11.73 2.51 -15.39 5.64 C-16.05 6.44 -16.7 7.24 -17.38 8.06 C-18.04 8.06 -18.69 8.06 -19.38 8.06 C-19.33 9.16 -19.29 10.25 -19.25 11.38 C-19.38 15.06 -19.38 15.06 -21.38 18.06 C-21.34 7.32 -21.34 7.32 -17.69 3.44 C-13.01 -0.93 -5.99 -0.07 0 0 Z " fill="#ABABAC" transform="translate(294.375,230.9375)"/>
<path d="M0 0 C8.88 0.75 8.88 0.75 13 4 C13.33 4.99 13.66 5.98 14 7 C12.4 6.69 10.79 6.38 9.19 6.06 C8.29 5.89 7.4 5.71 6.48 5.54 C4 5 4 5 1 4 C0.31 1.94 0.31 1.94 0 0 Z " fill="#63717C" transform="translate(160,180)"/>
<path d="M0 0 C0.33 0 0.66 0 1 0 C1 1.98 1 3.96 1 6 C1.99 6 2.98 6 4 6 C4 5.34 4 4.68 4 4 C4.66 4 5.32 4 6 4 C8.97 8.45 8.35 12.91 7.5 18 C7.33 18.66 7.17 19.32 7 20 C6.67 20 6.34 20 6 20 C5.67 16.37 5.34 12.74 5 9 C4.01 10.49 4.01 10.49 3 12 C2.34 10.68 1.68 9.36 1 8 C0.34 8.99 -0.32 9.98 -1 11 C-0.67 7.37 -0.34 3.74 0 0 Z " fill="#E1E2E4" transform="translate(308,262)"/>
<path d="M0 0 C0.99 0.66 1.98 1.32 3 2 C2.34 2.66 1.68 3.32 1 4 C0.6 5.99 0.26 7.99 0 10 C-0.66 9.67 -1.32 9.34 -2 9 C-4.57 11.57 -4.54 13.48 -5 17 C-5.33 17 -5.66 17 -6 17 C-6.92 5.21 -6.92 5.21 -4.66 2.25 C-3 1.19 -3 1.19 0 0 Z " fill="#747E86" transform="translate(180,116)"/>
<path d="M0 0 C0.66 0 1.32 0 2 0 C1.86 2.96 1.71 5.92 1.56 8.88 C1.5 10.14 1.5 10.14 1.44 11.43 C1.4 12.23 1.36 13.04 1.32 13.87 C1.28 14.61 1.24 15.35 1.21 16.12 C1 18 1 18 0 20 C-0.66 20 -1.32 20 -2 20 C-1.86 17.23 -1.71 14.46 -1.56 11.69 C-1.52 10.9 -1.48 10.12 -1.44 9.31 C-1.4 8.55 -1.36 7.79 -1.32 7.01 C-1.28 6.32 -1.24 5.62 -1.21 4.9 C-1 3 -1 3 0 0 Z " fill="#A2AEB9" transform="translate(143,277)"/>
<path d="M0 0 C1.35 0.62 2.68 1.31 4 2 C5.07 2.56 6.15 3.11 7.25 3.69 C10 6 10 6 10.38 9.75 C10.25 10.82 10.13 11.89 10 13 C5.04 9.82 2.15 7.69 0 2 C0 1.34 0 0.68 0 0 Z " fill="#E7E7E7" transform="translate(193,83)"/>
<path d="M0 0 C0.99 0 1.98 0 3 0 C2.86 1.92 2.71 3.83 2.56 5.75 C2.48 6.82 2.4 7.88 2.32 8.98 C2.06 11.44 1.68 13.64 1 16 C0.01 15.67 -0.98 15.34 -2 15 C-2.23 9.58 -1.47 5.23 0 0 Z " fill="#1F2127" transform="translate(161,60)"/>
<path d="M0 0 C0.99 0 1.98 0 3 0 C1.97 14.45 1.97 14.45 0 20 C-0.66 20.33 -1.32 20.66 -2 21 C-1.01 10.6 -1.01 10.6 0 0 Z " fill="#A4AFBA" transform="translate(186,240)"/>
<path d="M0 0 C2.05 0.03 4.1 0.07 6.15 0.1 C6.15 1.09 6.15 2.08 6.15 3.1 C8.46 3.43 10.77 3.76 13.15 4.1 C13.15 4.43 13.15 4.76 13.15 5.1 C12.25 5.15 11.35 5.2 10.41 5.25 C9.23 5.32 8.06 5.4 6.84 5.47 C5.08 5.58 5.08 5.58 3.29 5.68 C-0 5.88 -0 5.88 -2.85 8.1 C-2.89 5.76 -2.89 3.43 -2.85 1.1 C-1.85 0.1 -1.85 0.1 0 0 Z " fill="#A1001E" transform="translate(56.84765625,308.90234375)"/>
<path d="M0 0 C0.66 0.33 1.32 0.66 2 1 C1.86 3.46 1.71 5.92 1.56 8.38 C1.52 9.07 1.48 9.77 1.44 10.49 C1.11 15.77 1.11 15.77 0 18 C-0.66 18 -1.32 18 -2 18 C-2.24 11.6 -1.82 6.15 0 0 Z " fill="#A3AFB9" transform="translate(312,270)"/>
<path d="M0 0 C1.32 0.33 2.64 0.66 4 1 C4 5.29 4 9.58 4 14 C3.01 14.33 2.02 14.66 1 15 C0.67 10.05 0.34 5.1 0 0 Z " fill="#F5F5F5" transform="translate(201,204)"/>
<path d="M0 0 C0.99 0.33 1.98 0.66 3 1 C2.34 1.66 1.68 2.32 1 3 C0.54 4.93 0.54 4.93 0.37 7.13 C0.24 8.34 0.24 8.34 0.11 9.57 C0.03 10.42 -0.04 11.26 -0.12 12.12 C-0.21 12.97 -0.3 13.82 -0.39 14.7 C-0.6 16.8 -0.8 18.9 -1 21 C-1.33 21 -1.66 21 -2 21 C-3.42 13.92 -3.81 7.77 -1 1 C-0.67 0.67 -0.34 0.34 0 0 Z " fill="#E0E1E2" transform="translate(186,276)"/>
<path d="M0 0 C4.95 0 9.9 0 15 0 C15 2.31 15 4.62 15 7 C14.67 7 14.34 7 14 7 C14 5.35 14 3.7 14 2 C10.7 2 7.4 2 4 2 C3.67 3.32 3.34 4.64 3 6 C0 2.25 0 2.25 0 0 Z " fill="#393A3B" transform="translate(148,250)"/>
<path d="M0 0 C2.62 0.38 2.62 0.38 5 1 C4.12 5.88 4.12 5.88 3 7 C1.33 7.04 -0.33 7.04 -2 7 C-2.12 4.62 -2.12 4.62 -2 2 C-1.34 1.34 -0.68 0.68 0 0 Z " fill="#5D545A" transform="translate(279,130)"/>
<path d="M0 0 C0.33 0 0.66 0 1 0 C1 1.98 1 3.96 1 6 C4.63 6 8.26 6 12 6 C12.33 4.68 12.66 3.36 13 2 C13 3.98 13 5.96 13 8 C8.38 8 3.76 8 -1 8 C-0.67 5.36 -0.34 2.72 0 0 Z " fill="#434445" transform="translate(352,295)"/>
<path d="M0 0 C0.52 0.4 1.04 0.8 1.57 1.21 C4.66 3.55 7.65 5.8 11 7.75 C11.66 8.16 12.32 8.57 13 9 C13 9.66 13 10.32 13 11 C10.44 11.56 10.44 11.56 7 11 C4.25 8.28 2.01 5.3 0 2 C0 1.34 0 0.68 0 0 Z " fill="#AF0021" transform="translate(90,219)"/>
<path d="M0 0 C2 1 2 1 2.85 3.04 C4.4 8.22 5.35 12.59 5 18 C4.01 17.67 3.02 17.34 2 17 C1.34 11.39 0.68 5.78 0 0 Z " fill="#C9C9C9" transform="translate(207,94)"/>
<path d="M0 0 C0.99 0 1.98 0 3 0 C4.16 3.47 4.07 6.36 4 10 C0.7 10 -2.6 10 -6 10 C-6 9.67 -6 9.34 -6 9 C-3.03 9 -0.06 9 3 9 C2.67 8.34 2.34 7.68 2 7 C1.01 7 0.02 7 -1 7 C-1.04 5 -1.04 3 -1 1 C-0.67 0.67 -0.34 0.34 0 0 Z " fill="#B2B8BE" transform="translate(117,267)"/>
<path d="M0 0 C0.33 0 0.66 0 1 0 C1 1.65 1 3.3 1 5 C-6.19 5.89 -12.82 6.01 -20 5 C-18 3 -18 3 -15.64 2.77 C-10.34 2.85 -5.23 3.07 0 4 C0 2.68 0 1.36 0 0 Z " fill="#850018" transform="translate(290,76)"/>
<path d="M0 0 C0.66 0.66 1.32 1.32 2 2 C1.72 2.63 1.45 3.26 1.16 3.91 C-1.15 9.36 -2.56 14.09 -3 20 C-3.66 19.67 -4.32 19.34 -5 19 C-5.81 11.88 -2.93 6.38 0 0 Z " fill="#AC0625" transform="translate(273,138)"/>
<path d="M0 0 C0.99 0 1.98 0 3 0 C3.33 3.3 3.66 6.6 4 10 C-0.62 10 -5.24 10 -10 10 C-10 9.67 -10 9.34 -10 9 C-5.71 9 -1.42 9 3 9 C2.67 8.34 2.34 7.68 2 7 C1.34 7 0.68 7 0 7 C0 4.69 0 2.38 0 0 Z " fill="#AAAFB4" transform="translate(126,291)"/>
<path d="M0 0 C0.66 0.33 1.32 0.66 2 1 C1.41 2.3 0.8 3.59 0.19 4.88 C-0.15 5.59 -0.49 6.31 -0.83 7.05 C-2 9 -2 9 -5 11 C-5.44 5.67 -5.44 5.67 -5 3 C-2.62 0.94 -2.62 0.94 0 0 Z " fill="#DADCDD" transform="translate(185,165)"/>
<path d="M0 0 C3.22 0.03 5.44 0.36 8.19 2.19 C8.19 2.52 8.19 2.85 8.19 3.19 C6.94 3.28 6.94 3.28 5.67 3.37 C4.04 3.5 4.04 3.5 2.38 3.62 C0.76 3.75 0.76 3.75 -0.89 3.87 C-3.87 4.09 -3.87 4.09 -6.81 5.19 C-4.41 0.22 -4.41 0.22 0 0 Z " fill="#CBCBCB" transform="translate(160.8125,18.8125)"/>
<path d="M0 0 C0.33 0 0.66 0 1 0 C1.08 2.77 1.14 5.54 1.19 8.31 C1.21 9.1 1.24 9.88 1.26 10.69 C1.27 11.45 1.28 12.21 1.29 12.99 C1.31 13.68 1.32 14.38 1.34 15.1 C0.9 17.54 -0.13 18.43 -2 20 C-1.86 17.23 -1.71 14.46 -1.56 11.69 C-1.52 10.9 -1.48 10.12 -1.44 9.31 C-1.4 8.55 -1.36 7.79 -1.32 7.01 C-1.28 6.32 -1.24 5.62 -1.21 4.9 C-1 3 -1 3 0 0 Z " fill="#554C51" transform="translate(212,186)"/>
<path d="M0 0 C1.65 0 3.3 0 5 0 C4.67 2.97 4.34 5.94 4 9 C2.68 9 1.36 9 0 9 C0 6.03 0 3.06 0 0 Z " fill="#C0C6CC" transform="translate(109,256)"/>
<path d="M0 0 C0.63 0.19 1.26 0.39 1.91 0.59 C7.24 2.21 12.58 3.69 18 5 C17.01 6.49 17.01 6.49 16 8 C10.19 6.26 5.17 4.19 0 1 C0 0.67 0 0.34 0 0 Z " fill="#97001C" transform="translate(110,215)"/>
<path d="M0 0 C0.66 0.33 1.32 0.66 2 1 C0.52 2.48 0.52 2.48 -1 4 C-0.67 4.66 -0.34 5.32 0 6 C-1.77 6.7 -3.54 7.38 -5.31 8.06 C-6.3 8.45 -7.28 8.83 -8.3 9.22 C-11 10 -11 10 -14 9 C-13.16 8.52 -12.31 8.04 -11.45 7.54 C-10.35 6.91 -9.25 6.28 -8.12 5.62 C-7.03 5 -5.94 4.37 -4.82 3.73 C-1.99 2.14 -1.99 2.14 0 0 Z " fill="#242525" transform="translate(113,121)"/>
<path d="M0 0 C7.99 5.21 7.99 5.21 9 9 C8.67 9.99 8.34 10.98 8 12 C6.33 10.33 4.67 8.67 3 7 C2.1 6.23 2.1 6.23 1.19 5.44 C0 4 0 4 0 0 Z " fill="#AF0021" transform="translate(305,133)"/>
<path d="M0 0 C3.88 0.88 3.88 0.88 5 2 C5.07 3.52 5.08 5.04 5.06 6.56 C5.05 7.39 5.04 8.22 5.04 9.07 C5.02 10.02 5.02 10.02 5 11 C4.01 11.5 4.01 11.5 3 12 C3 9.69 3 7.38 3 5 C2.01 5 1.02 5 0 5 C0 3.35 0 1.7 0 0 Z " fill="#C1C4C6" transform="translate(148,47)"/>
<path d="M0 0 C0.66 0 1.32 0 2 0 C1.22 4.85 -0.4 9.38 -2 14 C-2.99 14 -3.98 14 -5 14 C-4.55 12.42 -4.09 10.83 -3.62 9.25 C-3.37 8.37 -3.11 7.49 -2.85 6.58 C-2.08 4.24 -1.16 2.17 0 0 Z " fill="#A6B1BC" transform="translate(96,244)"/>
<path d="M0 0 C0.6 0.76 1.2 1.53 1.81 2.31 C3.8 4.94 3.8 4.94 5.81 6.5 C6.2 7 6.6 7.49 7 8 C6.69 10.69 6.69 10.69 6 13 C6.99 13.33 7.98 13.66 9 14 C7.68 14 6.36 14 5 14 C4.16 12.23 3.33 10.46 2.5 8.69 C1.8 7.21 1.8 7.21 1.09 5.7 C0 3 0 3 0 0 Z " fill="#8B97A1" transform="translate(85,125)"/>
<path d="M0 0 C1 1 1 1 1.06 4.06 C1.04 5.03 1.02 6 1 7 C0.34 6.01 -0.32 5.02 -1 4 C-3.44 4.19 -3.44 4.19 -6 5 C-7.36 6.97 -7.36 6.97 -8 9 C-8.36 3.57 -8.36 3.57 -6.81 1.12 C-4.41 -0.36 -2.77 -0.29 0 0 Z " fill="#B10526" transform="translate(284,127)"/>
<path d="M0 0 C0.66 0 1.32 0 2 0 C4.28 8.04 4.28 8.04 3 12 C2.34 11.34 1.68 10.68 1 10 C0.34 11.32 -0.32 12.64 -1 14 C-1.08 9.17 -0.95 4.76 0 0 Z " fill="#646566" transform="translate(228,264)"/>
<path d="M0 0 C0.33 0.66 0.66 1.32 1 2 C0.71 2.78 0.42 3.57 0.12 4.38 C-1.47 9.51 -1.67 14.65 -2 20 C-2.33 20 -2.66 20 -3 20 C-3.28 17.6 -3.52 15.21 -3.75 12.81 C-3.87 11.8 -3.87 11.8 -4 10.77 C-4.33 6.95 -4.16 5.25 -2.02 2.01 C-1.35 1.35 -0.69 0.68 0 0 Z " fill="#A6A6A6" transform="translate(188,59)"/>
<path d="M0 0 C0.99 0.5 0.99 0.5 2 1 C2 2.32 2 3.64 2 5 C2.66 5 3.32 5 4 5 C4.33 4.34 4.66 3.68 5 3 C4.67 6.63 4.34 10.26 4 14 C1.86 11.86 1.55 10.98 0.88 8.12 C0.71 7.45 0.54 6.77 0.37 6.07 C0 4 0 4 0 0 Z " fill="#424244" transform="translate(237,251)"/>
<path d="M0 0 C4.29 0 8.58 0 13 0 C13 0.33 13 0.66 13 1 C10.36 1.33 7.72 1.66 5 2 C5 5.63 5 9.26 5 13 C4.67 13 4.34 13 4 13 C3.96 12.37 3.93 11.75 3.89 11.1 C3.82 10.28 3.76 9.47 3.69 8.62 C3.63 7.81 3.57 7 3.51 6.16 C3.17 3.62 3.17 3.62 0 2 C0 1.34 0 0.68 0 0 Z " fill="#717173" transform="translate(366,241)"/>
<path d="M0 0 C0.66 0 1.32 0 2 0 C2.03 1.6 2.05 3.21 2.06 4.81 C2.07 5.71 2.09 6.6 2.1 7.52 C2 10 2 10 1 13 C0.34 13 -0.32 13 -1 13 C-0.67 8.71 -0.34 4.42 0 0 Z " fill="#A0ACB8" transform="translate(106,277)"/>
<path d="M0 0 C2 3 2 3 2 7 C5.3 7 8.6 7 12 7 C12 7.33 12 7.66 12 8 C10.19 8.19 8.38 8.38 6.56 8.56 C5.05 8.72 5.05 8.72 3.5 8.88 C2.68 8.92 1.85 8.96 1 9 C0 8 0 8 -0.1 6.15 C-0.07 4.1 -0.03 2.05 0 0 Z " fill="#4D4D4E" transform="translate(197,289)"/>
<path d="M0 0 C2 1 2 1 3.11 3.87 C3.46 5.05 3.82 6.22 4.19 7.44 C4.55 8.61 4.92 9.79 5.29 11 C6 14 6 14 5 16 C4.52 14.73 4.04 13.46 3.56 12.19 C3.16 11.13 3.16 11.13 2.75 10.04 C2.14 8.37 1.56 6.69 1 5 C0.01 4.67 -0.98 4.34 -2 4 C-1.34 2.68 -0.68 1.36 0 0 Z " fill="#464748" transform="translate(191,273)"/>
<path d="M0 0 C0.33 0.66 0.66 1.32 1 2 C1.66 2 2.32 2 3 2 C2.67 5.3 2.34 8.6 2 12 C1.67 12 1.34 12 1 12 C0.67 10.02 0.34 8.04 0 6 C-0.99 7.32 -1.98 8.64 -3 10 C-2.49 6.28 -1.88 3.27 0 0 Z " fill="#778590" transform="translate(90,101)"/>
<path d="M0 0 C0.99 0 1.98 0 3 0 C2.67 3.3 2.34 6.6 2 10 C1.01 10 0.02 10 -1 10 C-0.67 6.7 -0.34 3.4 0 0 Z " fill="#17181E" transform="translate(167,63)"/>
<path d="M0 0 C0.33 1.32 0.66 2.64 1 4 C1.99 4 2.98 4 4 4 C4 5.98 4 7.96 4 10 C2.06 9.69 2.06 9.69 0 9 C-1.16 5.52 -0.71 3.54 0 0 Z " fill="#292E32" transform="translate(147,48)"/>
<path d="M0 0 C0.66 0 1.32 0 2 0 C1.5 4.97 0.45 8.64 -2 13 C-3.19 9.57 -2.8 7.62 -1.56 4.25 C-1.28 3.45 -0.99 2.65 -0.69 1.83 C-0.46 1.22 -0.24 0.62 0 0 Z " fill="#EAECED" transform="translate(91,263)"/>
<path d="M0 0 C0.66 0 1.32 0 2 0 C2 3.63 2 7.26 2 11 C1.01 11 0.02 11 -1 11 C-0.67 7.37 -0.34 3.74 0 0 Z " fill="#A3AFBA" transform="translate(146,254)"/>
<path d="M0 0 C0.33 0.66 0.66 1.32 1 2 C1.66 2 2.32 2 3 2 C1.76 4.47 0.32 5.46 -1.88 7.12 C-2.57 7.66 -3.27 8.2 -3.99 8.76 C-6 10 -6 10 -9 10 C-8.43 9.45 -7.87 8.89 -7.29 8.32 C-6.55 7.6 -5.82 6.87 -5.06 6.12 C-4.33 5.41 -3.6 4.69 -2.85 3.95 C-0.94 2.13 -0.94 2.13 0 0 Z " fill="#323435" transform="translate(190,106)"/>
<path d="M0 0 C2 1 2 1 2.85 2.96 C3.11 3.76 3.36 4.55 3.62 5.38 C3.89 6.17 4.15 6.96 4.41 7.77 C5 10 5 10 5 13 C4.01 12.67 3.02 12.34 2 12 C0.66 7.69 0 4.52 0 0 Z " fill="#A1ADB8" transform="translate(201,281)"/>
<path d="M0 0 C0.33 0 0.66 0 1 0 C1.33 5.61 1.66 11.22 2 17 C1.01 17 0.02 17 -1 17 C-0.67 11.39 -0.34 5.78 0 0 Z " fill="#C1C3C4" transform="translate(74,246)"/>
<path d="M0 0 C0.66 0.33 1.32 0.66 2 1 C1.67 1.66 1.34 2.32 1 3 C0.77 5.2 0.59 7.41 0.44 9.62 C0.35 10.81 0.27 12 0.18 13.23 C0.12 14.14 0.06 15.06 0 16 C-0.33 16 -0.66 16 -1 16 C-1 12.04 -1 8.08 -1 4 C-2.32 3.67 -3.64 3.34 -5 3 C-2.62 1.44 -2.62 1.44 0 0 Z " fill="#D0D5D8" transform="translate(180,35)"/>
<path d="M0 0 C0.33 2.31 0.66 4.62 1 7 C0.34 7 -0.32 7 -1 7 C-1.66 5.35 -2.32 3.7 -3 2 C-3.99 2 -4.98 2 -6 2 C-6 1.34 -6 0.68 -6 0 C-3.51 -1.25 -2.59 -0.78 0 0 Z " fill="#EAEBEC" transform="translate(304,233)"/>
<path d="M0 0 C0.66 0.33 1.32 0.66 2 1 C1.67 1.33 1.34 1.66 1 2 C1.66 2.66 2.32 3.32 3 4 C-2.44 5.48 -2.44 5.48 -8 7 C-5.42 4.35 -3.08 2.06 0 0 Z " fill="#2F0008" transform="translate(247,107)"/>
<path d="M0 0 C0.33 0 0.66 0 1 0 C1 3.3 1 6.6 1 10 C-0.65 9.67 -2.3 9.34 -4 9 C-4 8.34 -4 7.68 -4 7 C-3.01 7 -2.02 7 -1 7 C-0.67 4.69 -0.34 2.38 0 0 Z " fill="#EFEFEF" transform="translate(175,77)"/>
<path d="M0 0 C0.99 0.66 1.98 1.32 3 2 C2.69 3.88 2.69 3.88 2 6 C-1.48 8.32 -1.98 8 -6 8 C-4.79 7.13 -4.79 7.13 -3.56 6.25 C-1.02 4.02 -0.35 3.26 0 0 Z " fill="#BFC4C8" transform="translate(48,306)"/>
<path d="M0 0 C0.33 0 0.66 0 1 0 C1 1.98 1 3.96 1 6 C1.99 6.33 2.98 6.66 4 7 C2.7 9.02 1.36 11.02 0 13 C-0.33 13 -0.66 13 -1 13 C-0.67 8.71 -0.34 4.42 0 0 Z " fill="#505152" transform="translate(190,247)"/>
<path d="M0 0 C3.26 3.02 5.62 6.26 8 10 C6.25 9.88 6.25 9.88 4 9 C0 3.89 0 3.89 0 0 Z " fill="#414548" transform="translate(177,215)"/>
<path d="M0 0 C0.33 0.99 0.66 1.98 1 3 C-2.3 2.34 -5.6 1.68 -9 1 C-4.82 -1.09 -4.2 -1.17 0 0 Z " fill="#53606A" transform="translate(173,184)"/>
<path d="M0 0 C-0.33 0.33 -0.66 0.66 -1 1 C-0.01 1.66 0.98 2.32 2 3 C-1.3 3 -4.6 3 -8 3 C-8.33 2.34 -8.66 1.68 -9 1 C-2.25 -1.12 -2.25 -1.12 0 0 Z " fill="#1B1E20" transform="translate(168,37)"/>
<path d="M0 0 C0.66 0 1.32 0 2 0 C2 2.97 2 5.94 2 9 C1.01 9 0.02 9 -1 9 C-0.67 6.03 -0.34 3.06 0 0 Z " fill="#A4B0BA" transform="translate(381,230)"/>
<path d="M0 0 C0.66 1.32 1.32 2.64 2 4 C-3.27 7.22 -3.27 7.22 -5 8 C-5.66 7.67 -6.32 7.34 -7 7 C-5.62 5.5 -5.62 5.5 -4 4 C-3.34 4 -2.68 4 -2 4 C-1.34 2.68 -0.68 1.36 0 0 Z " fill="#2F2F2F" transform="translate(185,161)"/>
<path d="M0 0 C0.33 1.32 0.66 2.64 1 4 C-1.97 5.98 -1.97 5.98 -5 8 C-5.66 7.67 -6.32 7.34 -7 7 C-4.69 4.69 -2.38 2.38 0 0 Z " fill="#DCDEE0" transform="translate(111,119)"/>
<path d="M0 0 C0.33 0 0.66 0 1 0 C1.37 7.38 1.37 7.38 -0.5 10.5 C-1 11 -1.49 11.49 -2 12 C-3.16 8.52 -2.77 7.66 -1.56 4.31 C-1.13 3.1 -1.13 3.1 -0.69 1.86 C-0.46 1.25 -0.24 0.63 0 0 Z " fill="#737F89" transform="translate(156,62)"/>
<path d="M0 0 C0.66 0 1.32 0 2 0 C1.67 3.63 1.34 7.26 1 11 C-1 7.01 -1.29 5.31 -1 1 C-0.67 0.67 -0.34 0.34 0 0 Z " fill="#E1E2E3" transform="translate(149,254)"/>
<path d="M0 0 C1.19 1.69 1.19 1.69 2 4 C0.69 6.44 0.69 6.44 -1 9 C-1.71 11.69 -1.71 11.69 -2 14 C-2.33 14 -2.66 14 -3 14 C-3.69 11.19 -3.69 11.19 -4 8 C-2.62 6.44 -2.62 6.44 -1 5 C-0.28 2.39 -0.28 2.39 0 0 Z " fill="#BEC6CE" transform="translate(166,260)"/>
<path d="M0 0 C0.33 0 0.66 0 1 0 C1.18 4.55 1 7.88 -1 12 C-1.33 12 -1.66 12 -2 12 C-2 9.69 -2 7.38 -2 5 C-1.34 5 -0.68 5 0 5 C0 3.35 0 1.7 0 0 Z " fill="#C4C4C5" transform="translate(173,243)"/>
<path d="M0 0 C1.5 0.97 3 1.96 4.5 2.94 C5.34 3.48 6.17 4.03 7.03 4.59 C7.68 5.06 8.33 5.52 9 6 C9 6.33 9 6.66 9 7 C6.75 7.31 6.75 7.31 4 7 C0 2.89 0 2.89 0 0 Z " fill="#484C4E" transform="translate(183,218)"/>
<path d="M0 0 C-0.33 0.66 -0.66 1.32 -1 2 C-3.31 2.73 -5.65 3.4 -8 4 C-8.66 3.34 -9.32 2.68 -10 2 C-6.49 0.4 -3.86 -0.22 0 0 Z " fill="#8C001A" transform="translate(255,103)"/>
<path d="M0 0 C0.99 0 1.98 0 3 0 C2.67 2.31 2.34 4.62 2 7 C1.34 7 0.68 7 0 7 C0 4.69 0 2.38 0 0 Z " fill="#AAB5BF" transform="translate(132,242)"/>
<path d="M0 0 C1.32 0 2.64 0 4 0 C4 0.99 4 1.98 4 3 C5.32 3.66 6.64 4.32 8 5 C6.19 5.69 6.19 5.69 4 6 C2.25 4.56 2.25 4.56 1 3 C1.33 2.67 1.66 2.34 2 2 C1.34 1.34 0.68 0.68 0 0 Z " fill="#7D8790" transform="translate(155,146)"/>
<path d="M0 0 C3.3 0.99 6.6 1.98 10 3 C5.03 4.24 2.84 3.37 -2 2 C-1.34 1.34 -0.68 0.68 0 0 Z " fill="#323436" transform="translate(156,114)"/>
<path d="M0 0 C0.33 0.99 0.66 1.98 1 3 C1.66 3 2.32 3 3 3 C3 5.31 3 7.62 3 10 C-0.01 6.99 0.4 4.18 0 0 Z " fill="#EFEFF0" transform="translate(201,272)"/>
<path d="M0 0 C1.36 2.72 0.7 4.18 0.06 7.12 C-0.13 8.04 -0.33 8.95 -0.53 9.88 C-0.68 10.58 -0.84 11.28 -1 12 C-1.33 12 -1.66 12 -2 12 C-2.25 10.57 -2.47 9.13 -2.69 7.69 C-2.82 6.89 -2.94 6.09 -3.07 5.26 C-3 3 -3 3 -1.52 1.21 C-1.02 0.81 -0.52 0.41 0 0 Z " fill="#373839" transform="translate(159,199)"/>
<path d="M0 0 C5.44 1.49 5.44 1.49 11 3 C9.02 3.99 9.02 3.99 7 5 C4.35 4.06 2.37 2.55 0 1 C0 0.67 0 0.34 0 0 Z " fill="#D5D5D5" transform="translate(145,156)"/>
<path d="" fill="#000000" transform="translate(0,0)"/>
</svg>
