<?xml version="1.0" encoding="UTF-8"?>
<!-- Generator: https://ezgif.com/webp-to-svg -->
<svg version="1.1" xmlns="http://www.w3.org/2000/svg" width="50" height="50">
<path d="M0 0 C7.34 0.58 12.46 4.1 17.46 9.36 C19.82 12.47 20.83 15.59 21.94 19.31 C20.48 19.65 19.02 19.98 17.56 20.31 C16.75 20.5 15.94 20.68 15.1 20.88 C12.94 21.31 12.94 21.31 10.94 21.31 C10.4 20.22 9.87 19.13 9.31 18 C7.13 14.22 5.18 12.7 0.94 11.31 C-5.46 10.6 -8.89 11.46 -14.06 15.31 C-16.77 19.15 -17.61 22.57 -17.41 27.29 C-16.77 30.99 -15.28 33.26 -13.06 36.31 C-10.46 38.18 -10.46 38.18 -8.06 39.31 C-8.06 39.64 -8.06 39.97 -8.06 40.31 C-0.13 39.96 4.21 38.04 9.94 32.31 C2.35 32.31 -5.24 32.31 -13.06 32.31 C-13.06 31.65 -13.06 30.99 -13.06 30.31 C-9.29 29.18 -5.52 28.06 -1.75 26.94 C-0.7 26.62 0.36 26.3 1.44 25.98 C8.22 23.97 14.95 22.42 21.94 21.31 C22.33 28.54 22.48 34.38 17.94 40.31 C12.83 45.68 8.25 49.87 0.67 50.65 C-9.09 50.76 -14.7 49.61 -21.88 43 C-26.97 37.52 -28.43 32.38 -28.17 25.04 C-28.13 24.47 -28.1 23.9 -28.06 23.31 C-27.73 23.31 -27.4 23.31 -27.06 23.31 C-26.99 22.6 -26.91 21.89 -26.84 21.15 C-25.69 12.81 -23.18 8.74 -16.81 3.44 C-13.28 1.99 -9.96 1.76 -6.17 1.52 C-3.4 1.25 -3.05 0.31 0 0 Z M7.94 7.31 C8.94 9.31 8.94 9.31 8.94 9.31 Z M10.94 12.31 C11.94 14.31 11.94 14.31 11.94 14.31 Z M11.94 14.31 C12.94 17.31 12.94 17.31 12.94 17.31 Z M-26.06 27.31 C-25.06 29.31 -25.06 29.31 -25.06 29.31 Z M-25.06 29.31 C-24.06 31.31 -24.06 31.31 -24.06 31.31 Z M-23.06 32.31 C-22.06 34.31 -22.06 34.31 -22.06 34.31 Z " fill="#ED1F23" transform="translate(28.0625,-0.31250000000000006)"/>
<path d="M0 0 C7.34 0.58 12.46 4.1 17.46 9.36 C19.82 12.47 20.83 15.59 21.94 19.31 C20.48 19.65 19.02 19.98 17.56 20.31 C16.75 20.5 15.94 20.68 15.1 20.88 C12.94 21.31 12.94 21.31 10.94 21.31 C10.4 20.22 9.87 19.13 9.31 18 C7.13 14.22 5.18 12.7 0.94 11.31 C-5.46 10.6 -8.89 11.46 -14.06 15.31 C-16.77 19.15 -17.61 22.57 -17.41 27.29 C-16.77 30.99 -15.28 33.26 -13.06 36.31 C-10.46 38.18 -10.46 38.18 -8.06 39.31 C-8.06 39.64 -8.06 39.97 -8.06 40.31 C-14 39.95 -17.72 38.43 -22.06 34.31 C-26.2 29.11 -26.7 24.78 -26.44 18.18 C-25.65 12.15 -22.98 8.83 -18.44 4.94 C-14.43 2.09 -10.91 1.57 -6.07 1.42 C-3.4 1.28 -2.97 0.3 0 0 Z M7.94 7.31 C8.94 9.31 8.94 9.31 8.94 9.31 Z M10.94 12.31 C11.94 14.31 11.94 14.31 11.94 14.31 Z M11.94 14.31 C12.94 17.31 12.94 17.31 12.94 17.31 Z " fill="#FFFFFF" transform="translate(28.0625,-0.31250000000000006)"/>
<path d="M0 0 C6.92 -0.58 11.52 1.25 16.96 5.54 C21.36 9.59 23.3 13.29 25 19 C22.36 19.66 19.72 20.32 17 21 C16.77 20.26 16.54 19.53 16.3 18.77 C13.69 10.95 11.17 6.52 3.69 2.69 C2.46 2.11 1.24 1.55 0 1 C0 0.67 0 0.34 0 0 Z " fill="#ED1E22" transform="translate(25,0)"/>
</svg>
