<?xml version="1.0" encoding="UTF-8"?>
<!-- Generator: https://ezgif.com/png-to-svg -->
<svg version="1.1" xmlns="http://www.w3.org/2000/svg" width="512" height="512" viewBox="-36.895 -41.035 660.699 660.699" preserveAspectRatio="xMidYMid meet">
<path d="M0 0 C13.41 67.55 -7.43 142.89 -44.6 199.44 C-52.54 211.22 -61.31 222.17 -70.88 232.66 C-72.79 234.77 -74.65 236.91 -76.5 239.06 C-82.79 246.27 -89.67 252.85 -97 259 C-97.52 259.44 -98.04 259.89 -98.57 260.34 C-143.73 298.81 -199.2 321.63 -258 328 C-259.15 328.13 -260.3 328.26 -261.49 328.4 C-264.99 328.72 -268.48 328.9 -272 329 C-272.93 329.03 -273.86 329.05 -274.81 329.08 C-336.72 330.6 -396.49 314.7 -448 280 C-448.65 279.56 -449.3 279.13 -449.97 278.68 C-458.2 273.08 -465.9 266.96 -473.39 260.41 C-474.52 259.42 -475.65 258.44 -476.79 257.47 C-482.6 252.49 -488.03 247.16 -493.44 241.75 C-494.33 240.87 -495.22 239.99 -496.13 239.09 C-537 198.32 -561.93 144.37 -572 88 C-572.18 87.04 -572.36 86.08 -572.54 85.08 C-576.5 62.69 -575.28 39.65 -575 17 C-574.34 16.67 -573.68 16.34 -573 16 C-572.92 16.65 -572.83 17.3 -572.74 17.97 C-567.47 57.57 -555.06 97.52 -531 130 C-530.28 130.98 -529.57 131.97 -528.83 132.98 C-489.22 186.71 -432.37 222.84 -366.06 233.44 C-338.27 237.36 -308.45 236.86 -281 231 C-280.09 230.81 -279.18 230.61 -278.24 230.42 C-272.43 229.15 -266.71 227.66 -261 226 C-260.28 225.79 -259.55 225.58 -258.81 225.37 C-226.41 215.85 -196.51 199.03 -171 177 C-170.22 176.33 -169.44 175.66 -168.64 174.97 C-156.18 164.02 -144.85 152.35 -135 139 C-134.13 137.85 -133.26 136.69 -132.38 135.54 C-125.91 126.85 -119.45 117.35 -116 107 C-209.06 107 -302.12 107 -398 107 C-394.93 104.95 -392.73 104.25 -389.19 103.32 C-387.97 102.99 -386.75 102.67 -385.5 102.34 C-384.14 101.98 -382.79 101.63 -381.43 101.27 C-380 100.89 -378.57 100.52 -377.14 100.14 C-374.03 99.31 -370.93 98.49 -367.82 97.68 C-360.15 95.66 -352.49 93.63 -344.83 91.59 C-342.11 90.87 -339.39 90.15 -336.66 89.43 C-317.56 84.36 -298.47 79.22 -279.39 74.06 C-271.9 72.04 -264.41 70.01 -256.92 67.99 C-255.02 67.48 -253.11 66.97 -251.21 66.45 C-230.64 60.9 -210.05 55.37 -189.47 49.84 C-160.8 42.14 -132.14 34.43 -103.48 26.68 C-100.44 25.86 -97.39 25.04 -94.34 24.21 C-79.1 20.1 -63.87 15.97 -48.64 11.8 C-44.47 10.65 -40.29 9.51 -36.12 8.37 C-31.62 7.14 -27.14 5.91 -22.65 4.67 C-20.36 4.05 -18.08 3.42 -15.79 2.8 C-14.76 2.51 -13.73 2.22 -12.67 1.93 C-11.73 1.67 -10.78 1.42 -9.81 1.15 C-9 0.93 -8.18 0.7 -7.34 0.47 C-4.84 -0.03 -2.55 -0.08 0 0 Z " fill="#ED2023" transform="translate(575,249)"/>
<path d="M0 0 C0.81 0 1.61 0 2.44 0.01 C15.43 0.06 28.06 0.69 40.81 3.31 C41.81 3.52 42.81 3.72 43.84 3.93 C82.87 12.15 119.23 29.67 148.43 57.09 C150.53 59.05 152.68 60.9 154.88 62.75 C195.07 97.98 216.34 153.18 220.81 205.31 C221.04 209.65 221.04 213.97 220.81 218.31 C218.1 215.6 217.41 212.44 216.25 208.88 C200.88 163.86 167.99 127.07 125.81 105.31 C81.31 83.75 30.55 80.13 -16.37 96.03 C-39.61 104.29 -59.44 116.42 -78.19 132.31 C-79.28 133.22 -79.28 133.22 -80.4 134.15 C-85.15 138.17 -89.19 142.54 -93.19 147.31 C-93.95 148.19 -94.71 149.06 -95.5 149.96 C-128.8 188.72 -142.16 237.47 -138.95 287.92 C-136.42 312.58 -126.97 337.66 -115.19 359.31 C-114.87 359.91 -114.55 360.52 -114.22 361.14 C-106.54 375.6 -96.52 387.59 -85.19 399.31 C-84.65 399.88 -84.1 400.45 -83.55 401.03 C-79.39 405.3 -75 409.03 -70.25 412.62 C-69.51 413.18 -68.77 413.74 -68.01 414.32 C-54.86 424.14 -41.13 431.59 -26.19 438.31 C-26.19 438.97 -26.19 439.63 -26.19 440.31 C-82.73 432.98 -136.21 405.57 -171.92 360.33 C-191.42 334.39 -206.32 307.01 -214.44 275.44 C-214.67 274.54 -214.91 273.65 -215.15 272.73 C-219.32 255.7 -220.75 238.61 -220.62 221.12 C-220.62 220.19 -220.62 219.26 -220.61 218.3 C-220.53 203 -219.65 188.27 -216.19 173.31 C-215.95 172.29 -215.72 171.26 -215.47 170.2 C-209.11 143.57 -198.16 117.64 -182.19 95.31 C-181.5 94.35 -180.82 93.39 -180.11 92.4 C-167.21 74.79 -152.48 58.61 -134.91 45.59 C-133.24 44.35 -131.59 43.09 -129.93 41.83 C-104.65 22.86 -75.26 10.78 -44.5 4.06 C-43.81 3.91 -43.13 3.76 -42.42 3.6 C-28.38 0.74 -14.29 -0.07 0 0 Z " fill="#040608" transform="translate(245.1875,19.6875)"/>
<path d="M0 0 C59.5 -0.97 118.77 21.72 166 57 C166.61 57.45 167.21 57.9 167.84 58.37 C177.51 65.59 186.33 73.61 195 82 C195.62 82.6 196.24 83.2 196.88 83.81 C204.46 91.15 211.53 98.64 218 107 C218.8 108 219.6 109.01 220.42 110.04 C244.54 140.58 262.78 176.16 272 214 C256.08 218.72 240.12 223.21 224.08 227.51 C220.55 228.46 217.02 229.41 213.49 230.37 C211.23 230.97 208.98 231.58 206.73 232.18 C205.15 232.61 205.15 232.61 203.54 233.05 C202.58 233.3 201.61 233.56 200.62 233.83 C199.35 234.17 199.35 234.17 198.05 234.52 C196 235 196 235 194 235 C193.94 234.19 193.87 233.37 193.8 232.54 C189.48 179.71 174.17 129.51 140 88 C139.56 87.46 139.12 86.91 138.66 86.35 C127.48 72.67 115.12 59.67 101 49 C100.43 48.57 99.87 48.14 99.29 47.69 C90.83 41.26 82.18 35.37 73 30 C71.83 29.29 70.65 28.57 69.48 27.86 C50.02 16.25 28.67 9.22 7 3 C5.86 2.67 5.86 2.67 4.7 2.34 C3.14 1.89 1.57 1.44 0 1 C0 0.67 0 0.34 0 0 Z " fill="#ED2023" transform="translate(296,0)"/>
</svg>
