<?xml version="1.0" encoding="UTF-8"?>
<!-- Generator: https://ezgif.com/webp-to-svg -->
<svg version="1.1" xmlns="http://www.w3.org/2000/svg" width="100" height="100">
<path d="M0 0 C4.73 2.64 7.33 5.28 10 10 C10 10.66 10 11.32 10 12 C10.66 12 11.32 12 12 12 C12.36 11.19 12.36 11.19 12.72 10.36 C15.63 5 19.66 0.07 25 -3 C30.88 -4.71 37.09 -4.09 43.12 -3.75 C44.75 -3.7 46.38 -3.66 48.01 -3.62 C59.7 -3.3 59.7 -3.3 61 -2 C61.46 2.64 61.61 7.28 61.73 11.94 C61.79 13.5 61.86 15.06 61.96 16.62 C62.81 30.25 62.81 30.25 58.27 35.78 C55.4 38.82 52.3 41.45 49 44 C50.27 44.6 51.54 45.21 52.81 45.81 C55.73 47.2 57.91 48.51 60 51 C61.46 55.37 61.22 59.61 61.25 64.19 C61.27 65.11 61.29 66.03 61.31 66.98 C61.36 75.54 59.57 82.04 53.68 88.46 C48.1 93.57 41.93 95.4 34.5 95.27 C26.2 94.37 20.19 90.36 15 84 C14.34 83.01 13.68 82.02 13 81 C12.4 82.01 11.79 83.02 11.17 84.06 C7.5 89.2 3.53 94.05 -2.94 95.41 C-13.74 96.78 -25.2 96.17 -36 95 C-39.62 91.38 -37.96 78.1 -38.03 73.09 C-37.99 65.08 -37.8 58.83 -32.04 52.7 C-29.15 50.22 -26.19 48.08 -23 46 C-22.67 45.34 -22.34 44.68 -22 44 C-22.72 43.77 -23.44 43.55 -24.19 43.31 C-29.7 40.74 -33.71 35.86 -36.19 30.38 C-37.98 22.95 -37.73 15.77 -34 9 C-26.26 -2.79 -12.5 -6.16 0 0 Z " fill="#FCFAF9" transform="translate(38,4)"/>
<path d="M0 0 C1.8 0.03 1.8 0.03 3.63 0.06 C4.93 0.08 6.23 0.09 7.57 0.1 C8.94 0.14 10.31 0.17 11.68 0.2 C13.07 0.22 14.45 0.24 15.84 0.26 C19.22 0.31 22.61 0.37 26 0.45 C28.15 27.37 28.15 27.37 23.12 34.72 C18.44 39.77 13.74 40.7 6.97 41.14 C-0.05 41.32 -7.01 41.01 -14 40.45 C-14.2 36.45 -14.35 32.45 -14.44 28.45 C-14.48 27.09 -14.54 25.73 -14.61 24.37 C-15.17 13.06 -15.17 13.06 -12.29 9.1 C-10.16 7.27 -10.16 7.27 -8.03 5.85 C-5.87 4.56 -5.87 4.56 -4.66 2.3 C-3 0.45 -3 0.45 0 0 Z " fill="#060606" transform="translate(68.002685546875,5.5458984375)"/>
<path d="M0 0 C0.2 4 0.34 8 0.44 12.01 C0.48 13.36 0.53 14.72 0.6 16.08 C1.17 27.36 1.17 27.36 -1.68 31.35 C-3.7 33.11 -5.77 34.53 -8 36 C-8.61 36.71 -9.23 37.42 -9.86 38.15 C-12.8 40.69 -14.67 40.46 -18.52 40.39 C-19.77 40.38 -21.02 40.36 -22.3 40.35 C-24.26 40.3 -24.26 40.3 -26.25 40.25 C-27.57 40.23 -28.88 40.21 -30.24 40.2 C-33.5 40.15 -36.75 40.08 -40 40 C-42.15 13.08 -42.15 13.08 -37.13 5.74 C-28.1 -4.01 -11.98 -0.96 0 0 Z " fill="#050505" transform="translate(46,54)"/>
<path d="M0 0 C1.97 -0 1.97 -0 3.98 -0.01 C5 0.01 5 0.01 6.04 0.03 C8.12 0.07 10.19 0.05 12.27 0.03 C22.26 0.11 22.26 0.11 26.02 2.37 C28.42 4.94 28.76 5.88 28.75 9.33 C28.76 10.23 28.76 11.13 28.76 12.05 C28.74 12.99 28.71 13.92 28.69 14.88 C28.7 15.8 28.71 16.71 28.72 17.66 C28.65 24.4 27.4 30.09 22.71 35.15 C17.4 39.85 12.64 41.16 5.69 41.01 C0.05 40.17 -4.05 36.79 -7.75 32.63 C-11.85 26.84 -12.26 22.04 -12.31 15.13 C-12.35 14.29 -12.38 13.45 -12.41 12.58 C-12.42 11.35 -12.42 11.35 -12.43 10.1 C-12.45 9.36 -12.46 8.62 -12.47 7.86 C-10.75 1.43 -6.04 -0 0 0 Z " fill="#FF5F11" transform="translate(65.875,53.37109375)"/>
<path d="M0 0 C4.97 4.84 7.16 8.17 7.31 15.19 C7.25 21.94 6.38 25.63 1.5 30.49 C-4 35.35 -8.77 35.35 -15.83 35.28 C-21.39 34.79 -24.2 32.02 -27.75 28.06 C-31.58 22.85 -32.79 18.48 -32 12 C-29.83 5.27 -25.91 0.81 -20 -3 C-12.99 -5.75 -5.94 -4.23 0 0 Z " fill="#FE5E0D" transform="translate(38,10)"/>
</svg>
