<?xml version="1.0" encoding="UTF-8"?>
<!-- Generator: https://ezgif.com/webp-to-svg -->
<svg version="1.1" xmlns="http://www.w3.org/2000/svg" width="50" height="50">
<path d="M0 0 C10.89 0 21.78 0 33 0 C32.67 1.98 32.34 3.96 32 6 C34.45 5.89 34.45 5.89 37 5 C38.37 2.52 38.37 2.52 39 0 C42.3 0 45.6 0 49 0 C48.44 5.7 47.51 9.62 43.29 13.63 C40.29 15.43 38.22 15.3 34.75 15.19 C33.13 15.15 33.13 15.15 31.48 15.11 C30.66 15.07 29.84 15.04 29 15 C28.34 17.97 27.68 20.94 27 24 C23.37 24 19.74 24 16 24 C17.32 18.72 18.64 13.44 20 8 C17.63 8.12 15.26 8.25 12.81 8.38 C5.9 8.54 5.9 8.54 2.89 6.73 C1.13 4.6 0 2.82 0 0 Z " fill="#FEFFFF" transform="translate(0,19)"/>
<path d="M0 0 C6.35 -0.08 12.71 -0.13 19.06 -0.16 C21.22 -0.18 23.39 -0.2 25.55 -0.23 C28.65 -0.26 31.76 -0.28 34.86 -0.29 C35.83 -0.31 36.8 -0.32 37.8 -0.34 C39.15 -0.34 39.15 -0.34 40.53 -0.34 C41.32 -0.35 42.11 -0.35 42.93 -0.36 C45.54 0.09 46.43 0.9 48 3 C48.19 5.69 48.19 5.69 48 8 C41.97 8.15 35.94 8.26 29.9 8.33 C27.85 8.36 25.8 8.4 23.75 8.45 C20.8 8.53 17.85 8.56 14.89 8.59 C13.98 8.62 13.06 8.65 12.12 8.68 C5.9 8.68 5.9 8.68 3.28 6.69 C1.43 4.56 0 2.9 0 0 Z " fill="#FFFFFF" transform="translate(2,9)"/>
<path d="M0 0 C3.63 0 7.26 0 11 0 C9.73 6.93 9.73 6.93 9 9 C8.01 9.33 7.02 9.66 6 10 C4.99 8.71 4 7.42 3 6.12 C2.44 5.41 1.89 4.69 1.31 3.95 C0 2 0 2 0 0 Z " fill="#FE264A" transform="translate(7,29)"/>
</svg>
