<?xml version="1.0" encoding="UTF-8"?>
<!-- Generator: https://ezgif.com/png-to-svg -->
<svg version="1.1" xmlns="http://www.w3.org/2000/svg" width="512" height="512" viewBox="-36 -69.5 672 672" preserveAspectRatio="xMidYMid meet">
<path d="M0 0 C1.98 0 3.96 0 6 0 C6.5 0.99 6.5 0.99 7 2 C8.66 2.68 10.33 3.35 12 4 C12.99 4.99 12.99 4.99 14 6 C14.99 6.33 15.98 6.66 17 7 C18.02 7.98 19.02 8.98 20 10 C22.79 12.03 22.79 12.03 25.38 12.88 C28.38 14.16 30.48 15.94 33 18 C34.49 18.49 34.49 18.49 36 19 C37.02 19.98 38.02 20.98 39 22 C41.79 24.03 41.79 24.03 44.38 24.88 C47.38 26.16 49.48 27.94 52 30 C53.49 30.49 53.49 30.49 55 31 C56.02 31.98 57.02 32.98 58 34 C60.67 35.78 63.03 36.88 66 38 C66 38.66 66 39.32 66 40 C67.65 40.33 69.3 40.66 71 41 C71.99 45.42 71.95 48.28 70.53 52.58 C70.18 53.66 69.83 54.74 69.47 55.86 C69.08 57.02 68.69 58.19 68.29 59.39 C67.67 61.28 67.05 63.17 66.43 65.06 C65.77 67.08 65.11 69.09 64.44 71.1 C63.05 75.27 61.69 79.46 60.33 83.64 C56.36 95.82 52.35 107.99 48.27 120.13 C46.77 124.64 45.28 129.14 43.8 133.65 C42.78 136.73 41.73 139.8 40.68 142.87 C36.27 156.06 32.27 170.56 38.74 183.85 C42.7 190.59 45.53 194.37 53 197 C55.25 198.56 55.25 198.56 57 200 C65.43 205.62 77.25 204.31 87.03 204.32 C88.62 204.33 90.2 204.34 91.79 204.35 C96.07 204.38 100.35 204.39 104.63 204.4 C109.11 204.42 113.59 204.45 118.07 204.47 C126.55 204.52 135.02 204.56 143.5 204.59 C153.15 204.63 162.81 204.68 172.46 204.73 C192.31 204.83 212.15 204.92 232 205 C231.35 209.86 230.42 214.26 228.88 218.91 C228.67 219.56 228.46 220.22 228.24 220.89 C227.54 223.02 226.83 225.14 226.12 227.27 C225.64 228.76 225.15 230.24 224.66 231.73 C223.63 234.84 222.61 237.94 221.58 241.04 C220.26 245.02 218.95 249.01 217.64 252.99 C216.38 256.79 215.13 260.59 213.88 264.39 C213.64 265.12 213.4 265.85 213.15 266.59 C212.47 268.64 211.8 270.69 211.12 272.73 C210.73 273.9 210.35 275.06 209.95 276.26 C209 279 209 279 208 281 C131.44 281.33 54.88 281.66 -24 282 C-24.99 280.02 -25.98 278.04 -27 276 C-28.31 274.01 -29.67 272.05 -31.06 270.12 C-31.75 269.16 -32.45 268.19 -33.16 267.2 C-33.77 266.47 -34.37 265.75 -35 265 C-35.66 265 -36.32 265 -37 265 C-37.12 264.41 -37.24 263.82 -37.36 263.22 C-38.03 260.9 -38.86 259.47 -40.27 257.52 C-40.74 256.86 -41.21 256.2 -41.7 255.52 C-42.21 254.81 -42.72 254.1 -43.25 253.38 C-44.04 252.27 -44.04 252.27 -44.85 251.15 C-45.97 249.58 -47.1 248.02 -48.23 246.46 C-50.04 243.94 -51.83 241.41 -53.62 238.88 C-54.79 237.23 -55.96 235.58 -57.12 233.94 C-57.68 233.15 -58.24 232.35 -58.81 231.54 C-59.59 230.45 -59.59 230.45 -60.38 229.34 C-61.07 228.37 -61.07 228.37 -61.77 227.38 C-62.18 226.93 -62.58 226.47 -63 226 C-63.66 226 -64.32 226 -65 226 C-65.08 225.48 -65.17 224.97 -65.25 224.44 C-65.9 221.75 -65.9 221.75 -68.3 219.24 C-69.88 216.48 -70.03 215.2 -69.57 212.01 C-68.49 208.21 -67.24 204.49 -65.92 200.76 C-65.44 199.34 -64.97 197.92 -64.49 196.5 C-63.47 193.47 -62.44 190.44 -61.39 187.42 C-59.73 182.64 -58.11 177.85 -56.49 173.05 C-54.86 168.21 -53.23 163.37 -51.58 158.54 C-47.57 146.75 -43.71 134.92 -39.96 123.04 C-32.22 98.51 -24.16 74.08 -16.1 49.66 C-14.85 45.89 -13.61 42.12 -12.37 38.36 C-12.13 37.64 -11.9 36.92 -11.65 36.18 C-7.69 24.15 -3.8 12.09 0 0 Z " fill="#00C7B1" transform="translate(368,0)"/>
<path d="M0 0 C0.96 1.49 1.89 2.99 2.81 4.5 C7.62 12.13 12.96 19.35 18.27 26.63 C21.05 30.44 23.81 34.25 26.56 38.06 C27.27 39.03 27.27 39.03 27.98 40.02 C29 41.42 30 42.84 30.98 44.27 C32.65 46.53 34.39 48.62 36.23 50.74 C45.54 61.93 45.54 61.93 45.12 68.08 C44.4 71.81 43.1 75.29 41.67 78.8 C40.64 81.29 39.72 83.81 38.82 86.35 C37.41 90.3 35.96 94.23 34.49 98.15 C31.64 105.87 29.08 113.67 26.53 121.48 C26.3 122.21 26.06 122.93 25.82 123.67 C24.85 126.65 23.88 129.63 22.91 132.6 C21.17 137.95 19.42 143.3 17.66 148.64 C17.41 149.39 17.16 150.15 16.9 150.93 C16.66 151.68 16.41 152.44 16.15 153.21 C10.59 170.07 5.14 186.96 -0.25 203.88 C-8.34 229.3 -16.67 254.65 -25 280 C-25.59 279.85 -26.18 279.7 -26.79 279.55 C-28.65 279.09 -30.51 278.64 -32.38 278.19 C-36.16 276.95 -38.85 275.4 -42 273 C-42.33 272.34 -42.66 271.68 -43 271 C-44.64 270.28 -46.31 269.61 -48 269 C-48 268.34 -48 267.68 -48 267 C-49.55 266.63 -49.55 266.63 -51.12 266.25 C-54.93 265.17 -57.84 263.41 -61 261 C-61.33 260.34 -61.66 259.68 -62 259 C-63.64 258.28 -65.31 257.61 -67 257 C-67 256.34 -67 255.68 -67 255 C-68.13 254.73 -69.27 254.46 -70.44 254.19 C-71.61 253.8 -72.79 253.4 -74 253 C-74.33 252.01 -74.66 251.02 -75 250 C-76.21 249.81 -76.21 249.81 -77.44 249.62 C-78.28 249.42 -79.13 249.21 -80 249 C-80.33 248.34 -80.66 247.68 -81 247 C-82.66 246.32 -84.33 245.65 -86 245 C-86.66 244.34 -87.32 243.68 -88 243 C-88.99 242.67 -89.98 242.34 -91 242 C-92.5 240.62 -92.5 240.62 -94 239 C-94.54 238.56 -95.08 238.11 -95.63 237.65 C-97 236 -97 236 -96.96 234.09 C-96.77 233.38 -96.58 232.67 -96.38 231.94 C-96.17 231.14 -95.96 230.34 -95.74 229.51 C-95.5 228.68 -95.25 227.85 -95 227 C-94.77 226.22 -94.54 225.43 -94.31 224.62 C-93.53 222.08 -92.72 219.54 -91.9 217.01 C-91.6 216.05 -91.29 215.1 -90.97 214.11 C-89.97 210.97 -88.95 207.83 -87.94 204.69 C-87.23 202.49 -86.52 200.29 -85.82 198.09 C-79.72 179.14 -73.54 160.22 -67.32 141.31 C-66.97 140.24 -66.62 139.18 -66.26 138.08 C-65.61 136.09 -64.95 134.1 -64.3 132.1 C-64.01 131.22 -63.72 130.34 -63.42 129.43 C-63.17 128.67 -62.92 127.91 -62.66 127.12 C-59.67 117.48 -59.26 105.36 -63.74 96.15 C-67.7 89.41 -70.53 85.63 -78 83 C-80.25 81.44 -80.25 81.44 -82 80 C-90.29 74.47 -101.41 75.69 -111.01 75.68 C-112.6 75.67 -114.2 75.66 -115.8 75.65 C-120.11 75.62 -124.42 75.61 -128.73 75.6 C-133.24 75.58 -137.75 75.55 -142.27 75.53 C-150.8 75.48 -159.34 75.44 -167.87 75.41 C-177.59 75.37 -187.32 75.32 -197.04 75.27 C-217.03 75.17 -237.01 75.08 -257 75 C-256.35 70.14 -255.42 65.74 -253.88 61.09 C-253.67 60.44 -253.46 59.78 -253.24 59.11 C-252.54 56.98 -251.83 54.86 -251.12 52.73 C-250.64 51.24 -250.15 49.76 -249.66 48.27 C-248.63 45.16 -247.61 42.06 -246.58 38.96 C-245.26 34.98 -243.95 30.99 -242.64 27.01 C-241.38 23.21 -240.13 19.41 -238.88 15.61 C-238.64 14.88 -238.4 14.15 -238.15 13.41 C-237.47 11.36 -236.8 9.31 -236.12 7.27 C-235.73 6.1 -235.35 4.94 -234.95 3.74 C-234 1 -234 1 -233 -1 C-203.61 -1.17 -174.21 -1.34 -144.82 -1.48 C-141.35 -1.5 -137.88 -1.52 -134.42 -1.54 C-133.73 -1.54 -133.04 -1.54 -132.32 -1.55 C-121.14 -1.6 -109.95 -1.67 -98.76 -1.74 C-87.28 -1.8 -75.81 -1.87 -64.33 -1.92 C-57.89 -1.95 -51.44 -1.98 -44.99 -2.03 C-38.93 -2.07 -32.87 -2.1 -26.8 -2.12 C-24.57 -2.13 -22.34 -2.14 -20.11 -2.16 C-17.08 -2.18 -14.04 -2.19 -11.01 -2.2 C-10.12 -2.21 -9.22 -2.22 -8.3 -2.23 C-2.23 -2.23 -2.23 -2.23 0 0 Z " fill="#00C7B1" transform="translate(257,253)"/>
<path d="M0 0 C68.97 0 137.94 0 209 0 C209 0.33 209 0.66 209 1 C140.03 1 71.06 1 0 1 C0 0.67 0 0.34 0 0 Z " fill="#00FFFF" transform="translate(24,250)"/>
<path d="M0 0 C53.46 0 106.92 0 162 0 C162 0.33 162 0.66 162 1 C108.54 1 55.08 1 0 1 C0 0.67 0 0.34 0 0 Z " fill="#00ABAA" transform="translate(0,329)"/>
<path d="M0 0 C53.13 0 106.26 0 161 0 C161 0.33 161 0.66 161 1 C107.87 1 54.74 1 0 1 C0 0.67 0 0.34 0 0 Z " fill="#00E48D" transform="translate(439,203)"/>
<path d="M0 0 C34.98 0 69.96 0 106 0 C106 0.33 106 0.66 106 1 C71.02 1 36.04 1 0 1 C0 0.67 0 0.34 0 0 Z " fill="#00FFFF" transform="translate(470,282)"/>
<path d="M0 0 C0.33 0 0.66 0 1 0 C1 1.98 1 3.96 1 6 C0.67 6 0.34 6 0 6 C0 4.02 0 2.04 0 0 Z " fill="#00E2B8" transform="translate(195,368)"/>
<path d="M0 0 C0.33 0 0.66 0 1 0 C1 1.98 1 3.96 1 6 C0.67 6 0.34 6 0 6 C0 4.02 0 2.04 0 0 Z " fill="#00E2CD" transform="translate(404,159)"/>
<path d="M0 0 C0.33 0 0.66 0 1 0 C1 1.65 1 3.3 1 5 C0.67 5 0.34 5 0 5 C0 3.35 0 1.7 0 0 Z " fill="#00CCCC" transform="translate(195,357)"/>
<path d="M0 0 C1.65 0 3.3 0 5 0 C5 0.33 5 0.66 5 1 C3.35 1 1.7 1 0 1 C0 0.67 0 0.34 0 0 Z " fill="#00DDC3" transform="translate(164,330)"/>
<path d="M0 0 C1.65 0 3.3 0 5 0 C5 0.33 5 0.66 5 1 C3.35 1 1.7 1 0 1 C0 0.67 0 0.34 0 0 Z " fill="#00DDC3" transform="translate(432,202)"/>
<path d="M0 0 C0.33 0 0.66 0 1 0 C1 1.65 1 3.3 1 5 C0.67 5 0.34 5 0 5 C0 3.35 0 1.7 0 0 Z " fill="#00DDAA" transform="translate(404,171)"/>
<path d="M0 0 C1 4 1 4 1 4 Z " fill="#00E9CA" transform="translate(405,155)"/>
<path d="" fill="#00E2E2" transform="translate(0,0)"/>
<path d="" fill="#00E2E2" transform="translate(0,0)"/>
<path d="" fill="#00E2B8" transform="translate(0,0)"/>
<path d="" fill="#00E2B8" transform="translate(0,0)"/>
<path d="" fill="#00E2B8" transform="translate(0,0)"/>
<path d="" fill="#00C6C6" transform="translate(0,0)"/>
<path d="" fill="#00E2B8" transform="translate(0,0)"/>
<path d="" fill="#00E2E2" transform="translate(0,0)"/>
<path d="" fill="#00E2E2" transform="translate(0,0)"/>
<path d="" fill="#00E2E2" transform="translate(0,0)"/>
<path d="" fill="#00E2B8" transform="translate(0,0)"/>
<path d="" fill="#00E2B8" transform="translate(0,0)"/>
<path d="" fill="#00E2B8" transform="translate(0,0)"/>
<path d="" fill="#00E2B8" transform="translate(0,0)"/>
<path d="" fill="#00E2B8" transform="translate(0,0)"/>
<path d="" fill="#00E2B8" transform="translate(0,0)"/>
<path d="" fill="#00E2E2" transform="translate(0,0)"/>
<path d="" fill="#00FFAA" transform="translate(0,0)"/>
<path d="" fill="#00E2E2" transform="translate(0,0)"/>
<path d="" fill="#00E2E2" transform="translate(0,0)"/>
<path d="" fill="#00E2E2" transform="translate(0,0)"/>
<path d="" fill="#00FFAA" transform="translate(0,0)"/>
<path d="" fill="#00E2E2" transform="translate(0,0)"/>
<path d="" fill="#00E2B8" transform="translate(0,0)"/>
<path d="" fill="#00E2B8" transform="translate(0,0)"/>
<path d="" fill="#00E2B8" transform="translate(0,0)"/>
<path d="" fill="#00E2B8" transform="translate(0,0)"/>
<path d="" fill="#00E2E2" transform="translate(0,0)"/>
<path d="" fill="#00E2B8" transform="translate(0,0)"/>
<path d="" fill="#00E2E2" transform="translate(0,0)"/>
<path d="" fill="#00C6C6" transform="translate(0,0)"/>
<path d="" fill="#00C6C6" transform="translate(0,0)"/>
<path d="" fill="#00E2B8" transform="translate(0,0)"/>
<path d="" fill="#00E2B8" transform="translate(0,0)"/>
<path d="" fill="#00E2E2" transform="translate(0,0)"/>
<path d="" fill="#00E2E2" transform="translate(0,0)"/>
<path d="" fill="#00E2B8" transform="translate(0,0)"/>
<path d="" fill="#00E2E2" transform="translate(0,0)"/>
<path d="" fill="#00E2B8" transform="translate(0,0)"/>
<path d="" fill="#00E2B8" transform="translate(0,0)"/>
<path d="" fill="#00E2B8" transform="translate(0,0)"/>
<path d="" fill="#00E2B8" transform="translate(0,0)"/>
<path d="" fill="#00E2B8" transform="translate(0,0)"/>
<path d="" fill="#00E2E2" transform="translate(0,0)"/>
<path d="" fill="#00E2E2" transform="translate(0,0)"/>
<path d="" fill="#00E2E2" transform="translate(0,0)"/>
<path d="" fill="#00E2B8" transform="translate(0,0)"/>
<path d="" fill="#00E2B8" transform="translate(0,0)"/>
<path d="" fill="#00E2B8" transform="translate(0,0)"/>
<path d="M0 0 C3 1 3 1 3 1 Z " fill="#00E2B8" transform="translate(169,331)"/>
<path d="" fill="#00E2B8" transform="translate(0,0)"/>
<path d="" fill="#00E2B8" transform="translate(0,0)"/>
<path d="" fill="#00E2B8" transform="translate(0,0)"/>
<path d="" fill="#00E2B8" transform="translate(0,0)"/>
<path d="" fill="#00E2B8" transform="translate(0,0)"/>
<path d="" fill="#00E2E2" transform="translate(0,0)"/>
<path d="" fill="#00E2E2" transform="translate(0,0)"/>
<path d="" fill="#00E2E2" transform="translate(0,0)"/>
<path d="" fill="#00E2B8" transform="translate(0,0)"/>
<path d="" fill="#00E2B8" transform="translate(0,0)"/>
<path d="" fill="#00E2B8" transform="translate(0,0)"/>
<path d="" fill="#00C6C6" transform="translate(0,0)"/>
<path d="" fill="#00E2B8" transform="translate(0,0)"/>
<path d="" fill="#00E2B8" transform="translate(0,0)"/>
<path d="" fill="#00E2B8" transform="translate(0,0)"/>
<path d="" fill="#00E2B8" transform="translate(0,0)"/>
<path d="" fill="#00E2E2" transform="translate(0,0)"/>
<path d="" fill="#00E2E2" transform="translate(0,0)"/>
<path d="" fill="#00E2B8" transform="translate(0,0)"/>
<path d="" fill="#00E2B8" transform="translate(0,0)"/>
<path d="" fill="#00E2B8" transform="translate(0,0)"/>
<path d="" fill="#00C6C6" transform="translate(0,0)"/>
<path d="M0 0 C3 1 3 1 3 1 Z " fill="#00C6C6" transform="translate(428,201)"/>
<path d="" fill="#00E2B8" transform="translate(0,0)"/>
<path d="" fill="#00E2B8" transform="translate(0,0)"/>
<path d="" fill="#00E2B8" transform="translate(0,0)"/>
<path d="" fill="#00E2E2" transform="translate(0,0)"/>
<path d="" fill="#00E2E2" transform="translate(0,0)"/>
<path d="" fill="#00E2E2" transform="translate(0,0)"/>
<path d="" fill="#00E2B8" transform="translate(0,0)"/>
<path d="" fill="#00E2B8" transform="translate(0,0)"/>
<path d="" fill="#00E2B8" transform="translate(0,0)"/>
<path d="" fill="#00E2B8" transform="translate(0,0)"/>
<path d="" fill="#00E2E2" transform="translate(0,0)"/>
<path d="" fill="#00E2B8" transform="translate(0,0)"/>
<path d="" fill="#00E2E2" transform="translate(0,0)"/>
<path d="" fill="#00E2E2" transform="translate(0,0)"/>
<path d="" fill="#00E2B8" transform="translate(0,0)"/>
<path d="" fill="#00E2B8" transform="translate(0,0)"/>
<path d="" fill="#00E2E2" transform="translate(0,0)"/>
<path d="" fill="#00E2B8" transform="translate(0,0)"/>
<path d="" fill="#00FFAA" transform="translate(0,0)"/>
<path d="" fill="#00E2B8" transform="translate(0,0)"/>
<path d="" fill="#00E2E2" transform="translate(0,0)"/>
<path d="" fill="#00E2B8" transform="translate(0,0)"/>
<path d="" fill="#00E2E2" transform="translate(0,0)"/>
<path d="" fill="#00E2B8" transform="translate(0,0)"/>
<path d="" fill="#00E2B8" transform="translate(0,0)"/>
<path d="" fill="#00E2E2" transform="translate(0,0)"/>
<path d="" fill="#00E2B8" transform="translate(0,0)"/>
<path d="" fill="#00E2E2" transform="translate(0,0)"/>
<path d="" fill="#00C6C6" transform="translate(0,0)"/>
<path d="" fill="#00E2E2" transform="translate(0,0)"/>
<path d="" fill="#00E2E2" transform="translate(0,0)"/>
<path d="" fill="#00E2E2" transform="translate(0,0)"/>
<path d="" fill="#00E2B8" transform="translate(0,0)"/>
<path d="" fill="#00E2B8" transform="translate(0,0)"/>
<path d="" fill="#00E2B8" transform="translate(0,0)"/>
<path d="" fill="#00E2B8" transform="translate(0,0)"/>
<path d="" fill="#00E2B8" transform="translate(0,0)"/>
<path d="" fill="#00E2B8" transform="translate(0,0)"/>
<path d="" fill="#00E2E2" transform="translate(0,0)"/>
<path d="" fill="#00E2E2" transform="translate(0,0)"/>
<path d="" fill="#00E2E2" transform="translate(0,0)"/>
<path d="" fill="#00E2B8" transform="translate(0,0)"/>
<path d="" fill="#00C6C6" transform="translate(0,0)"/>
<path d="" fill="#00E2B8" transform="translate(0,0)"/>
<path d="" fill="#00E2B8" transform="translate(0,0)"/>
<path d="" fill="#00E2B8" transform="translate(0,0)"/>
<path d="" fill="#00E2E2" transform="translate(0,0)"/>
<path d="" fill="#00E2E2" transform="translate(0,0)"/>
<path d="M0 0 C2 1 2 1 2 1 Z " fill="#00D495" transform="translate(226,532)"/>
<path d="" fill="#00D495" transform="translate(0,0)"/>
<path d="" fill="#00D495" transform="translate(0,0)"/>
<path d="" fill="#00D495" transform="translate(0,0)"/>
<path d="" fill="#00D495" transform="translate(0,0)"/>
<path d="M0 0 C2 1 2 1 2 1 Z " fill="#00FFBF" transform="translate(207,520)"/>
<path d="" fill="#00D495" transform="translate(0,0)"/>
<path d="" fill="#00D495" transform="translate(0,0)"/>
<path d="" fill="#00D495" transform="translate(0,0)"/>
<path d="M0 0 C2 1 2 1 2 1 Z " fill="#00FF80" transform="translate(188,508)"/>
<path d="M0 0 C2 1 2 1 2 1 Z " fill="#00D4D4" transform="translate(180,503)"/>
<path d="" fill="#00FF80" transform="translate(0,0)"/>
<path d="M0 0 C2 1 2 1 2 1 Z " fill="#00D4D4" transform="translate(161,491)"/>
<path d="" fill="#00D495" transform="translate(0,0)"/>
<path d="" fill="#00D495" transform="translate(0,0)"/>
<path d="" fill="#00D495" transform="translate(0,0)"/>
<path d="" fill="#00D4D4" transform="translate(0,0)"/>
<path d="" fill="#00D495" transform="translate(0,0)"/>
<path d="" fill="#00D495" transform="translate(0,0)"/>
<path d="" fill="#00D495" transform="translate(0,0)"/>
<path d="" fill="#00D495" transform="translate(0,0)"/>
<path d="" fill="#00D4D4" transform="translate(0,0)"/>
<path d="" fill="#00D495" transform="translate(0,0)"/>
<path d="" fill="#00D4D4" transform="translate(0,0)"/>
<path d="" fill="#00D495" transform="translate(0,0)"/>
<path d="" fill="#00D495" transform="translate(0,0)"/>
<path d="" fill="#00D495" transform="translate(0,0)"/>
<path d="" fill="#00D495" transform="translate(0,0)"/>
<path d="" fill="#00D4D4" transform="translate(0,0)"/>
<path d="" fill="#00D495" transform="translate(0,0)"/>
<path d="" fill="#00D495" transform="translate(0,0)"/>
<path d="" fill="#00D495" transform="translate(0,0)"/>
<path d="" fill="#00D495" transform="translate(0,0)"/>
<path d="" fill="#00D495" transform="translate(0,0)"/>
<path d="" fill="#00D495" transform="translate(0,0)"/>
<path d="" fill="#00D495" transform="translate(0,0)"/>
<path d="" fill="#00D495" transform="translate(0,0)"/>
<path d="" fill="#00D4D4" transform="translate(0,0)"/>
<path d="" fill="#00AAAA" transform="translate(0,0)"/>
<path d="" fill="#00D495" transform="translate(0,0)"/>
<path d="" fill="#00FF80" transform="translate(0,0)"/>
<path d="" fill="#00D495" transform="translate(0,0)"/>
<path d="" fill="#00D495" transform="translate(0,0)"/>
<path d="" fill="#00D495" transform="translate(0,0)"/>
<path d="" fill="#00D495" transform="translate(0,0)"/>
<path d="" fill="#00D495" transform="translate(0,0)"/>
<path d="" fill="#00D495" transform="translate(0,0)"/>
<path d="" fill="#00D495" transform="translate(0,0)"/>
<path d="" fill="#00D495" transform="translate(0,0)"/>
<path d="" fill="#00FF80" transform="translate(0,0)"/>
<path d="" fill="#00D495" transform="translate(0,0)"/>
<path d="" fill="#00D4D4" transform="translate(0,0)"/>
<path d="" fill="#00D4D4" transform="translate(0,0)"/>
<path d="" fill="#00D495" transform="translate(0,0)"/>
<path d="" fill="#00D495" transform="translate(0,0)"/>
<path d="" fill="#00D495" transform="translate(0,0)"/>
<path d="" fill="#00D495" transform="translate(0,0)"/>
<path d="" fill="#00D495" transform="translate(0,0)"/>
<path d="" fill="#00D495" transform="translate(0,0)"/>
<path d="" fill="#00D4D4" transform="translate(0,0)"/>
<path d="" fill="#00D495" transform="translate(0,0)"/>
<path d="M0 0 C2 1 2 1 2 1 Z " fill="#00D495" transform="translate(173,332)"/>
<path d="" fill="#00AAAA" transform="translate(0,0)"/>
<path d="" fill="#00FF80" transform="translate(0,0)"/>
<path d="" fill="#00D495" transform="translate(0,0)"/>
<path d="" fill="#00D495" transform="translate(0,0)"/>
<path d="" fill="#00D495" transform="translate(0,0)"/>
<path d="" fill="#00D495" transform="translate(0,0)"/>
<path d="" fill="#00D495" transform="translate(0,0)"/>
<path d="" fill="#00FFBF" transform="translate(0,0)"/>
<path d="" fill="#00D495" transform="translate(0,0)"/>
<path d="" fill="#00FFBF" transform="translate(0,0)"/>
<path d="" fill="#00FFBF" transform="translate(0,0)"/>
<path d="" fill="#00FFBF" transform="translate(0,0)"/>
<path d="" fill="#00D4D4" transform="translate(0,0)"/>
<path d="" fill="#00FFFF" transform="translate(0,0)"/>
<path d="" fill="#00D4D4" transform="translate(0,0)"/>
<path d="" fill="#00D495" transform="translate(0,0)"/>
<path d="" fill="#00FFFF" transform="translate(0,0)"/>
<path d="" fill="#00D495" transform="translate(0,0)"/>
<path d="" fill="#00FFFF" transform="translate(0,0)"/>
<path d="" fill="#00D495" transform="translate(0,0)"/>
<path d="" fill="#00D495" transform="translate(0,0)"/>
<path d="" fill="#00FFBF" transform="translate(0,0)"/>
<path d="" fill="#00FFFF" transform="translate(0,0)"/>
<path d="" fill="#00D495" transform="translate(0,0)"/>
<path d="" fill="#00FF80" transform="translate(0,0)"/>
<path d="" fill="#00FFBF" transform="translate(0,0)"/>
<path d="" fill="#00D495" transform="translate(0,0)"/>
<path d="" fill="#00FFBF" transform="translate(0,0)"/>
<path d="" fill="#00D495" transform="translate(0,0)"/>
<path d="" fill="#00D495" transform="translate(0,0)"/>
<path d="" fill="#00FFBF" transform="translate(0,0)"/>
<path d="" fill="#00D495" transform="translate(0,0)"/>
<path d="" fill="#00D495" transform="translate(0,0)"/>
<path d="" fill="#00FFBF" transform="translate(0,0)"/>
<path d="" fill="#00D495" transform="translate(0,0)"/>
<path d="" fill="#00D4D4" transform="translate(0,0)"/>
<path d="" fill="#00FFFF" transform="translate(0,0)"/>
<path d="" fill="#00FFFF" transform="translate(0,0)"/>
<path d="" fill="#00FFBF" transform="translate(0,0)"/>
<path d="" fill="#00FF80" transform="translate(0,0)"/>
<path d="" fill="#00D495" transform="translate(0,0)"/>
<path d="" fill="#00D495" transform="translate(0,0)"/>
<path d="" fill="#00D495" transform="translate(0,0)"/>
<path d="" fill="#00D495" transform="translate(0,0)"/>
<path d="" fill="#00FF80" transform="translate(0,0)"/>
<path d="" fill="#00AAAA" transform="translate(0,0)"/>
<path d="M0 0 C2 1 2 1 2 1 Z " fill="#00FF80" transform="translate(425,200)"/>
<path d="" fill="#00D4D4" transform="translate(0,0)"/>
<path d="" fill="#00D495" transform="translate(0,0)"/>
<path d="" fill="#00D4D4" transform="translate(0,0)"/>
<path d="" fill="#00D495" transform="translate(0,0)"/>
<path d="" fill="#00D495" transform="translate(0,0)"/>
<path d="" fill="#00D495" transform="translate(0,0)"/>
<path d="" fill="#00D495" transform="translate(0,0)"/>
<path d="" fill="#00D495" transform="translate(0,0)"/>
<path d="" fill="#00D495" transform="translate(0,0)"/>
<path d="" fill="#00D4D4" transform="translate(0,0)"/>
<path d="" fill="#00D495" transform="translate(0,0)"/>
<path d="" fill="#00D495" transform="translate(0,0)"/>
<path d="" fill="#00D495" transform="translate(0,0)"/>
<path d="" fill="#00D495" transform="translate(0,0)"/>
<path d="" fill="#00D495" transform="translate(0,0)"/>
<path d="" fill="#00D495" transform="translate(0,0)"/>
<path d="" fill="#00D495" transform="translate(0,0)"/>
<path d="" fill="#00D495" transform="translate(0,0)"/>
<path d="" fill="#00D495" transform="translate(0,0)"/>
<path d="" fill="#00FF80" transform="translate(0,0)"/>
<path d="" fill="#00D495" transform="translate(0,0)"/>
<path d="" fill="#00AAAA" transform="translate(0,0)"/>
<path d="" fill="#00D4D4" transform="translate(0,0)"/>
<path d="" fill="#00FF80" transform="translate(0,0)"/>
<path d="" fill="#00D495" transform="translate(0,0)"/>
<path d="" fill="#00D495" transform="translate(0,0)"/>
<path d="" fill="#00D495" transform="translate(0,0)"/>
<path d="" fill="#00D495" transform="translate(0,0)"/>
<path d="" fill="#00D495" transform="translate(0,0)"/>
<path d="" fill="#00D495" transform="translate(0,0)"/>
<path d="" fill="#00D495" transform="translate(0,0)"/>
<path d="" fill="#00D495" transform="translate(0,0)"/>
<path d="" fill="#00D495" transform="translate(0,0)"/>
<path d="" fill="#00D495" transform="translate(0,0)"/>
<path d="" fill="#00D495" transform="translate(0,0)"/>
<path d="" fill="#00D495" transform="translate(0,0)"/>
<path d="" fill="#00AAAA" transform="translate(0,0)"/>
<path d="" fill="#00D495" transform="translate(0,0)"/>
<path d="" fill="#00D4D4" transform="translate(0,0)"/>
<path d="" fill="#00D495" transform="translate(0,0)"/>
<path d="" fill="#00D4D4" transform="translate(0,0)"/>
<path d="" fill="#00D495" transform="translate(0,0)"/>
<path d="" fill="#00D495" transform="translate(0,0)"/>
<path d="" fill="#00D495" transform="translate(0,0)"/>
<path d="" fill="#00D495" transform="translate(0,0)"/>
<path d="" fill="#00D495" transform="translate(0,0)"/>
<path d="" fill="#00D495" transform="translate(0,0)"/>
<path d="" fill="#00D495" transform="translate(0,0)"/>
<path d="" fill="#00D495" transform="translate(0,0)"/>
<path d="" fill="#00FF80" transform="translate(0,0)"/>
<path d="M0 0 C2 1 2 1 2 1 Z " fill="#00D4D4" transform="translate(434,39)"/>
<path d="M0 0 C2 1 2 1 2 1 Z " fill="#00FFBF" transform="translate(426,34)"/>
<path d="M0 0 C2 1 2 1 2 1 Z " fill="#00D4D4" transform="translate(407,22)"/>
<path d="" fill="#00D4D4" transform="translate(0,0)"/>
<path d="" fill="#00D495" transform="translate(0,0)"/>
<path d="" fill="#00D495" transform="translate(0,0)"/>
<path d="" fill="#00D495" transform="translate(0,0)"/>
<path d="M0 0 C2 1 2 1 2 1 Z " fill="#00FFBF" transform="translate(388,10)"/>
<path d="" fill="#00D495" transform="translate(0,0)"/>
<path d="" fill="#00D495" transform="translate(0,0)"/>
<path d="" fill="#00D495" transform="translate(0,0)"/>
<path d="" fill="#00AAAA" transform="translate(0,0)"/>
<path d="" fill="#00AAAA" transform="translate(0,0)"/>
<path d="" fill="#00AAAA" transform="translate(0,0)"/>
<path d="" fill="#00AAAA" transform="translate(0,0)"/>
<path d="" fill="#00AAAA" transform="translate(0,0)"/>
<path d="" fill="#00AAAA" transform="translate(0,0)"/>
<path d="" fill="#00AAAA" transform="translate(0,0)"/>
<path d="" fill="#00AAAA" transform="translate(0,0)"/>
<path d="" fill="#00FF80" transform="translate(0,0)"/>
<path d="" fill="#00FFFF" transform="translate(0,0)"/>
<path d="" fill="#00FF80" transform="translate(0,0)"/>
<path d="" fill="#00AAAA" transform="translate(0,0)"/>
<path d="" fill="#00AAAA" transform="translate(0,0)"/>
<path d="" fill="#00FF80" transform="translate(0,0)"/>
<path d="" fill="#00AAAA" transform="translate(0,0)"/>
<path d="" fill="#00BFBF" transform="translate(0,0)"/>
<path d="" fill="#00BFBF" transform="translate(0,0)"/>
<path d="" fill="#00BFBF" transform="translate(0,0)"/>
<path d="" fill="#00BFBF" transform="translate(0,0)"/>
<path d="" fill="#00FFFF" transform="translate(0,0)"/>
<path d="" fill="#00FF80" transform="translate(0,0)"/>
<path d="" fill="#00AAAA" transform="translate(0,0)"/>
<path d="" fill="#00AAAA" transform="translate(0,0)"/>
<path d="" fill="#00AAAA" transform="translate(0,0)"/>
<path d="" fill="#00FF80" transform="translate(0,0)"/>
<path d="" fill="#00AAAA" transform="translate(0,0)"/>
<path d="" fill="#00FF80" transform="translate(0,0)"/>
<path d="" fill="#00AAAA" transform="translate(0,0)"/>
<path d="" fill="#00FF80" transform="translate(0,0)"/>
<path d="" fill="#00AAAA" transform="translate(0,0)"/>
<path d="" fill="#00FF80" transform="translate(0,0)"/>
<path d="" fill="#00AAAA" transform="translate(0,0)"/>
<path d="" fill="#00FFFF" transform="translate(0,0)"/>
<path d="" fill="#00AAAA" transform="translate(0,0)"/>
<path d="" fill="#00FF80" transform="translate(0,0)"/>
<path d="" fill="#00AAAA" transform="translate(0,0)"/>
<path d="" fill="#00AAAA" transform="translate(0,0)"/>
<path d="" fill="#00AAAA" transform="translate(0,0)"/>
<path d="" fill="#00FF80" transform="translate(0,0)"/>
<path d="" fill="#00AAAA" transform="translate(0,0)"/>
<path d="" fill="#00AAAA" transform="translate(0,0)"/>
<path d="" fill="#00AAAA" transform="translate(0,0)"/>
<path d="" fill="#00AAAA" transform="translate(0,0)"/>
<path d="" fill="#00AAAA" transform="translate(0,0)"/>
<path d="" fill="#00FF80" transform="translate(0,0)"/>
<path d="" fill="#00FF80" transform="translate(0,0)"/>
<path d="" fill="#00AAAA" transform="translate(0,0)"/>
<path d="" fill="#00AAAA" transform="translate(0,0)"/>
<path d="" fill="#00AAAA" transform="translate(0,0)"/>
<path d="" fill="#00AAAA" transform="translate(0,0)"/>
<path d="" fill="#00AAAA" transform="translate(0,0)"/>
<path d="" fill="#00AAAA" transform="translate(0,0)"/>
<path d="" fill="#00FF80" transform="translate(0,0)"/>
<path d="" fill="#00FF80" transform="translate(0,0)"/>
<path d="" fill="#00AAAA" transform="translate(0,0)"/>
<path d="" fill="#00FF80" transform="translate(0,0)"/>
<path d="" fill="#00AAAA" transform="translate(0,0)"/>
<path d="" fill="#00AAAA" transform="translate(0,0)"/>
<path d="" fill="#00AAAA" transform="translate(0,0)"/>
<path d="" fill="#00AAAA" transform="translate(0,0)"/>
<path d="" fill="#00FF80" transform="translate(0,0)"/>
<path d="" fill="#00FF80" transform="translate(0,0)"/>
<path d="" fill="#00AAAA" transform="translate(0,0)"/>
<path d="" fill="#00AAAA" transform="translate(0,0)"/>
<path d="" fill="#00AAAA" transform="translate(0,0)"/>
<path d="" fill="#00FF80" transform="translate(0,0)"/>
<path d="" fill="#00FF80" transform="translate(0,0)"/>
<path d="" fill="#00AAAA" transform="translate(0,0)"/>
<path d="" fill="#00AAAA" transform="translate(0,0)"/>
<path d="" fill="#00FF80" transform="translate(0,0)"/>
<path d="" fill="#00FFFF" transform="translate(0,0)"/>
<path d="" fill="#00AAAA" transform="translate(0,0)"/>
<path d="" fill="#00FFFF" transform="translate(0,0)"/>
<path d="" fill="#00AAAA" transform="translate(0,0)"/>
<path d="" fill="#00FF80" transform="translate(0,0)"/>
<path d="" fill="#00AAAA" transform="translate(0,0)"/>
<path d="" fill="#00AAAA" transform="translate(0,0)"/>
<path d="" fill="#00AAAA" transform="translate(0,0)"/>
<path d="" fill="#00FF80" transform="translate(0,0)"/>
<path d="" fill="#00AAAA" transform="translate(0,0)"/>
<path d="" fill="#00AAAA" transform="translate(0,0)"/>
<path d="" fill="#00AAAA" transform="translate(0,0)"/>
<path d="" fill="#00FF80" transform="translate(0,0)"/>
<path d="" fill="#00AAAA" transform="translate(0,0)"/>
<path d="" fill="#00AAAA" transform="translate(0,0)"/>
<path d="" fill="#00AAAA" transform="translate(0,0)"/>
<path d="" fill="#00FF80" transform="translate(0,0)"/>
<path d="" fill="#00AAAA" transform="translate(0,0)"/>
<path d="" fill="#00AAAA" transform="translate(0,0)"/>
<path d="" fill="#00AAAA" transform="translate(0,0)"/>
<path d="" fill="#00FF80" transform="translate(0,0)"/>
<path d="" fill="#00AAAA" transform="translate(0,0)"/>
<path d="" fill="#00FFFF" transform="translate(0,0)"/>
<path d="" fill="#00FF80" transform="translate(0,0)"/>
<path d="" fill="#00BFBF" transform="translate(0,0)"/>
<path d="" fill="#00BFBF" transform="translate(0,0)"/>
<path d="" fill="#00BFBF" transform="translate(0,0)"/>
<path d="" fill="#00BFBF" transform="translate(0,0)"/>
<path d="" fill="#00FF80" transform="translate(0,0)"/>
<path d="" fill="#00AAAA" transform="translate(0,0)"/>
<path d="" fill="#00AAAA" transform="translate(0,0)"/>
<path d="" fill="#00AAAA" transform="translate(0,0)"/>
<path d="" fill="#00FFFF" transform="translate(0,0)"/>
<path d="" fill="#00FF80" transform="translate(0,0)"/>
<path d="" fill="#00AAAA" transform="translate(0,0)"/>
<path d="" fill="#00AAAA" transform="translate(0,0)"/>
<path d="" fill="#00AAAA" transform="translate(0,0)"/>
<path d="" fill="#00AAAA" transform="translate(0,0)"/>
<path d="" fill="#00AAAA" transform="translate(0,0)"/>
<path d="" fill="#00AAAA" transform="translate(0,0)"/>
<path d="" fill="#00AAAA" transform="translate(0,0)"/>
<path d="" fill="#00AAAA" transform="translate(0,0)"/>
</svg>
