<?xml version="1.0" encoding="UTF-8"?>
<svg version="1.1" xmlns="http://www.w3.org/2000/svg" width="50" height="50">
<path d="M0 0 C4.2968324 2.40784759 6.8767819 5.45441048 8.8359375 9.95703125 C9.86963948 13.69426149 9.76513374 17.32230139 9.4453125 21.16015625 C10.1053125 21.16015625 10.7653125 21.16015625 11.4453125 21.16015625 C11.01584362 23.565182 10.61049238 24.96624944 9.0078125 26.84765625 C7.31466158 29.35351961 7.26513463 30.42356822 6.9453125 33.34765625 C5.681673 40.16228356 -0.28312606 43.31224181 -5.5546875 47.16015625 C-6.2146875 47.82015625 -6.8746875 48.48015625 -7.5546875 49.16015625 C-12.40900178 49.03307996 -15.3468459 46.25092257 -18.7421875 43.09765625 C-19.28101563 42.60249512 -19.81984375 42.10733398 -20.375 41.59716797 C-24.61123464 37.51015231 -25.77000554 34.84910044 -26.5546875 29.16015625 C-27.84135922 27.45720838 -29.16565483 25.78069437 -30.5546875 24.16015625 C-30.5546875 23.17015625 -30.5546875 22.18015625 -30.5546875 21.16015625 C-29.8946875 21.16015625 -29.2346875 21.16015625 -28.5546875 21.16015625 C-28.6475 19.39671875 -28.6475 19.39671875 -28.7421875 17.59765625 C-28.72174336 11.81196343 -26.91211876 7.72642309 -23.1171875 3.34765625 C-16.66675306 -2.15881217 -8.01694533 -2.63554013 0 0 Z M-12.5546875 1.16015625 C-12.5546875 1.49015625 -12.5546875 1.82015625 -12.5546875 2.16015625 C-10.5746875 2.16015625 -8.5946875 2.16015625 -6.5546875 2.16015625 C-6.5546875 1.83015625 -6.5546875 1.50015625 -6.5546875 1.16015625 C-8.5346875 1.16015625 -10.5146875 1.16015625 -12.5546875 1.16015625 Z M-25.5546875 13.16015625 C-25.5546875 15.80015625 -25.5546875 18.44015625 -25.5546875 21.16015625 C-25.2246875 21.16015625 -24.8946875 21.16015625 -24.5546875 21.16015625 C-24.5546875 18.52015625 -24.5546875 15.88015625 -24.5546875 13.16015625 C-24.8846875 13.16015625 -25.2146875 13.16015625 -25.5546875 13.16015625 Z M5.4453125 13.16015625 C5.4453125 15.80015625 5.4453125 18.44015625 5.4453125 21.16015625 C5.7753125 21.16015625 6.1053125 21.16015625 6.4453125 21.16015625 C6.4453125 18.52015625 6.4453125 15.88015625 6.4453125 13.16015625 C6.1153125 13.16015625 5.7853125 13.16015625 5.4453125 13.16015625 Z M-21.5546875 19.16015625 C-21.1294983 21.18980823 -21.1294983 21.18980823 -19.5546875 23.16015625 C-15.5946875 24.15015625 -15.5946875 24.15015625 -11.5546875 25.16015625 C-11.2246875 30.77015625 -10.8946875 36.38015625 -10.5546875 42.16015625 C-9.8946875 42.16015625 -9.2346875 42.16015625 -8.5546875 42.16015625 C-8.2246875 36.55015625 -7.8946875 30.94015625 -7.5546875 25.16015625 C-4.9146875 24.50015625 -2.2746875 23.84015625 0.4453125 23.16015625 C2.0201233 21.18980823 2.0201233 21.18980823 2.4453125 19.16015625 C1.86523438 19.37671875 1.28515625 19.59328125 0.6875 19.81640625 C-7.81774753 22.84797963 -13.17887442 22.28712647 -21.5546875 19.16015625 Z M-22.5546875 29.16015625 C-21.5546875 31.16015625 -21.5546875 31.16015625 -21.5546875 31.16015625 Z M2.4453125 29.16015625 C3.4453125 31.16015625 3.4453125 31.16015625 3.4453125 31.16015625 Z M-21.5546875 33.16015625 C-20.5546875 36.16015625 -20.5546875 36.16015625 -20.5546875 36.16015625 Z M1.4453125 34.16015625 C2.4453125 36.16015625 2.4453125 36.16015625 2.4453125 36.16015625 Z M-11.5546875 44.16015625 C-10.0696875 45.15015625 -10.0696875 45.15015625 -8.5546875 46.16015625 C-8.2246875 45.50015625 -7.8946875 44.84015625 -7.5546875 44.16015625 C-8.8746875 44.16015625 -10.1946875 44.16015625 -11.5546875 44.16015625 Z " fill="#FCFCFC" transform="translate(34.5546875,0.83984375)"/>
</svg>
