<?xml version="1.0" encoding="UTF-8"?>
<!-- Generator: https://ezgif.com/png-to-svg -->
<svg version="1.1" xmlns="http://www.w3.org/2000/svg" width="512" height="512" viewBox="8.942 -25.378 387.117 387.117" preserveAspectRatio="xMidYMid meet">
<path d="M0 0 C0.83 0.74 1.67 1.48 2.52 2.24 C18.78 17.52 27.99 38.93 30 61 C30.05 63.71 30.05 66.38 29.99 69.09 C29.97 70.61 29.96 72.13 29.94 73.66 C29.91 76.01 29.88 78.37 29.83 80.73 C29.62 91.76 29.75 101.48 36 111 C36 111.66 36 112.32 36 113 C36.66 113 37.32 113 38 113 C36.57 116.23 34.82 118.4 32.38 120.94 C15.76 139.36 9.15 163.21 4.89 187.03 C4.75 187.84 4.6 188.66 4.44 189.5 C4.14 191.22 3.86 192.96 3.6 194.69 C2.73 200.01 1.96 203.08 -2.44 206.56 C-3.33 207.3 -4.23 208.03 -5.15 208.79 C-6.09 209.52 -7.03 210.25 -8 211 C-9.84 212.5 -11.67 214 -13.5 215.5 C-14.42 216.24 -15.34 216.99 -16.28 217.75 C-18.92 219.94 -21.47 222.19 -24 224.5 C-28.19 228.32 -32.52 231.9 -36.93 235.47 C-41.25 239.03 -45.48 242.71 -49.7 246.4 C-51.46 247.93 -53.23 249.47 -55 251 C-55.57 251.5 -56.13 251.99 -56.71 252.5 C-60.77 256 -60.77 256 -63 256 C-63 215.41 -63 174.82 -63 133 C-48 125 -48 125 -43.06 125.5 C-42.29 125.75 -41.52 126 -40.72 126.26 C-31.07 128.89 -19.75 127.71 -11 123 C4.61 113.16 12.66 97.56 17 80 C17 79.34 17 78.68 17 78 C16.21 78.39 15.42 78.77 14.6 79.17 C-0.97 86.75 -16.56 94.24 -32.29 101.48 C-39.87 104.97 -47.37 108.6 -54.76 112.46 C-59.69 115 -59.69 115 -63 115 C-65.31 77.38 -67.62 39.76 -70 1 C-71.16 3.32 -71.23 4.91 -71.39 7.49 C-71.45 8.44 -71.51 9.38 -71.57 10.36 C-71.63 11.4 -71.69 12.44 -71.76 13.51 C-71.86 15.15 -71.86 15.15 -71.96 16.82 C-72.19 20.44 -72.41 24.07 -72.63 27.7 C-72.78 30.2 -72.94 32.71 -73.1 35.22 C-73.46 41.16 -73.83 47.09 -74.19 53.03 C-74.64 60.45 -75.1 67.87 -75.56 75.29 C-76.38 88.52 -77.19 101.76 -78 115 C-79.42 114.54 -80.84 114.08 -82.25 113.61 C-83.04 113.35 -83.83 113.1 -84.64 112.83 C-88.23 111.57 -91.59 109.93 -94.99 108.23 C-95.72 107.87 -96.46 107.51 -97.21 107.13 C-98.77 106.37 -100.34 105.59 -101.9 104.82 C-106.01 102.79 -110.12 100.77 -114.24 98.75 C-115.07 98.35 -115.89 97.95 -116.74 97.53 C-126.62 92.7 -136.6 88.1 -146.59 83.5 C-150.43 81.74 -154.24 79.93 -158 78 C-156.35 85.4 -154.42 92.22 -151 99 C-150.65 99.73 -150.31 100.45 -149.95 101.2 C-144.29 112.33 -135.24 121.62 -123.38 125.88 C-115.18 128.03 -106.06 128.12 -98 125.5 C-93 125 -93 125 -78 133 C-78 173.59 -78 214.18 -78 256 C-81.03 254.48 -82.79 253.49 -85.21 251.35 C-85.81 250.82 -86.41 250.3 -87.02 249.76 C-87.66 249.2 -88.29 248.64 -88.94 248.06 C-90.29 246.88 -91.64 245.69 -92.99 244.51 C-93.67 243.92 -94.34 243.32 -95.04 242.71 C-97.85 240.26 -100.7 237.84 -103.56 235.44 C-108.04 231.66 -112.5 227.87 -116.94 224.06 C-117.51 223.57 -118.09 223.08 -118.68 222.57 C-121.73 219.95 -124.77 217.33 -127.82 214.71 C-128.45 214.18 -129.07 213.64 -129.72 213.08 C-130.91 212.06 -132.1 211.03 -133.29 210.01 C-133.84 209.54 -134.38 209.07 -134.94 208.59 C-135.46 208.14 -135.97 207.7 -136.51 207.23 C-138.17 205.82 -138.17 205.82 -140.81 204.11 C-143.85 201.18 -143.91 198.96 -144.44 194.81 C-148.63 166.39 -156.23 141.11 -175 119 C-176.34 117.34 -177.67 115.67 -179 114 C-178.67 113.53 -178.35 113.05 -178.01 112.57 C-177.57 111.91 -177.14 111.24 -176.69 110.56 C-176.04 109.61 -176.04 109.61 -175.39 108.63 C-170.09 98.58 -170.76 88.79 -171.06 77.74 C-171.69 52.46 -166.1 26.61 -148.5 7.5 C-146.7 5.63 -144.86 3.81 -143 2 C-142.27 1.26 -141.54 0.53 -140.79 -0.23 C-104.42 -35.06 -36.48 -32.62 0 0 Z " fill="#FFFFFF" transform="translate(273,47)"/>
<path d="M0 0 C1 0.27 1 0.27 2.01 0.55 C21.99 6.12 39.2 16.7 54 31 C54.76 31.7 55.51 32.41 56.29 33.13 C74.88 50.86 85.57 78.33 86.19 103.83 C86.22 108.64 86.12 113.44 86 118.25 C85.92 121.48 85.86 124.72 85.81 127.95 C85.78 129.04 85.78 129.04 85.74 130.14 C85.65 136.42 87.41 140.2 91.52 144.85 C92.46 145.77 93.41 146.68 94.38 147.62 C95.31 148.55 96.25 149.47 97.21 150.41 C99.94 153.02 99.94 153.02 102.85 155.21 C103.56 155.8 104.27 156.39 105 157 C105 157.66 105 158.32 105 159 C103.02 160.37 101.02 161.69 99 163 C77.19 180.52 65.69 205.16 60.75 232.25 C60.49 233.65 60.49 233.65 60.23 235.09 C59.54 239.09 58.93 242.99 58.84 247.05 C58.6 252.6 57.98 256.31 54.04 260.32 C50.85 263.22 47.48 265.84 44.04 268.43 C40.89 270.85 37.93 273.46 34.94 276.06 C33.78 277.05 32.63 278.04 31.48 279.02 C29.11 281.05 26.75 283.07 24.4 285.1 C19.06 289.69 13.72 294.26 8.25 298.69 C3.87 302.24 -0.32 305.97 -4.49 309.77 C-7.88 312.78 -11.4 315.61 -14.93 318.46 C-19.3 322.07 -23.55 325.81 -27.79 329.57 C-31.04 332.43 -34.18 334.92 -38 337 C-38.96 336.17 -39.91 335.33 -40.89 334.47 C-46.81 329.32 -52.72 324.18 -58.81 319.25 C-63.18 315.72 -67.34 312.01 -71.49 308.23 C-74 306 -76.57 303.87 -79.19 301.75 C-85.63 296.54 -91.85 291.09 -98.1 285.65 C-105.71 279.04 -113.38 272.51 -121.06 266 C-121.59 265.56 -122.11 265.11 -122.65 264.65 C-124.96 262.69 -127.09 260.95 -129.75 259.47 C-133.58 255.27 -133.4 249.94 -134 244.44 C-137.53 217.07 -145.32 192.85 -164 172 C-164.89 171 -164.89 171 -165.8 169.98 C-170.02 165.52 -174.79 162.22 -180 159 C-178.59 155.69 -176.94 153.85 -174.19 151.56 C-164.83 143.97 -164.83 143.97 -160.59 133.21 C-160.61 131.79 -160.66 130.37 -160.71 128.95 C-160.73 128.18 -160.74 127.41 -160.75 126.62 C-160.8 124.16 -160.86 121.71 -160.94 119.25 C-161.39 103.38 -160.68 87.94 -155.31 72.81 C-155.06 72.08 -154.8 71.34 -154.54 70.59 C-143.96 41.24 -121.8 19.88 -93.98 6.75 C-65.72 -6.01 -29.89 -8.64 0 0 Z M-69 11 C-70.09 11.3 -70.09 11.3 -71.2 11.6 C-98.97 19.49 -121.47 36.21 -135.95 61.38 C-140.46 69.96 -143.46 78.67 -146 88 C-146.24 88.85 -146.47 89.69 -146.71 90.57 C-149.57 102.56 -149.2 115.36 -148.31 127.56 C-147.73 136.63 -148.41 142.56 -154.27 149.81 C-156.45 152.28 -158.68 154.67 -161 157 C-159 159.54 -157.04 161.96 -154.75 164.25 C-137.41 181.59 -128.6 203.36 -123.81 227.12 C-123.64 227.97 -123.47 228.82 -123.29 229.69 C-122.56 233.49 -121.93 237.21 -121.7 241.07 C-121.27 247.77 -121.27 247.77 -117.96 253.4 C-115.61 255.32 -113.21 257.06 -110.71 258.77 C-107.45 261.12 -104.5 263.84 -101.5 266.5 C-97.12 270.33 -92.71 274.09 -88.19 277.75 C-83.82 281.28 -79.66 284.99 -75.51 288.77 C-72.12 291.78 -68.59 294.62 -65.06 297.48 C-61.44 300.46 -57.91 303.54 -54.38 306.62 C-49.05 311.27 -43.67 315.78 -38 320 C-35.27 318.73 -33.08 317.38 -30.82 315.38 C-30.23 314.86 -29.64 314.35 -29.03 313.81 C-28.4 313.25 -27.77 312.7 -27.12 312.12 C-25.78 310.94 -24.43 309.77 -23.09 308.59 C-22.4 307.99 -21.72 307.39 -21.02 306.77 C-17.95 304.08 -14.85 301.41 -11.75 298.75 C-11.17 298.25 -10.59 297.76 -10 297.25 C-6.46 294.22 -2.87 291.25 0.75 288.31 C5.13 284.76 9.32 281.03 13.49 277.23 C16.87 274.22 20.39 271.39 23.92 268.54 C28.34 264.89 32.65 261.12 36.96 257.34 C37.57 256.81 38.18 256.27 38.81 255.72 C39.36 255.25 39.9 254.77 40.46 254.28 C42 253 42 253 45 251 C45.82 248.26 45.82 248.26 46.25 244.99 C46.44 243.76 46.64 242.54 46.84 241.27 C46.98 240.3 46.98 240.3 47.13 239.31 C52.05 206.92 62.18 181.03 86 158 C85.13 157.05 84.27 156.1 83.38 155.12 C76.59 147.13 72.43 140.09 73.18 129.45 C73.36 127.6 73.54 125.76 73.73 123.91 C76.29 96.29 68.29 67.42 50.55 45.96 C31.38 23.76 6.09 11.27 -23 8 C-27.75 7.72 -32.49 7.67 -37.25 7.69 C-39.16 7.7 -39.16 7.7 -41.11 7.7 C-50.71 7.83 -59.72 8.46 -69 11 Z " fill="#FFFFFF" transform="translate(240,4)"/>
</svg>
