<?xml version="1.0" encoding="UTF-8"?>
<!-- Generator: https://ezgif.com/png-to-svg -->
<svg version="1.1" xmlns="http://www.w3.org/2000/svg" width="512" height="512" viewBox="-6 -6 112 112" preserveAspectRatio="xMidYMid meet">
<path d="M0 0 C40.97 0 40.97 0 49.31 8.05 C54.35 13.86 56.31 20.33 56 28 C54.42 36.06 50.66 42.17 43.98 46.92 C38.21 50.07 33.02 50.26 26.62 50.12 C23.78 50.08 20.93 50.04 18 50 C18 59.24 18 68.48 18 78 C12.06 78 6.12 78 0 78 C0 52.26 0 26.52 0 0 Z M18 19 C18 22.96 18 26.92 18 31 C20.44 31.05 22.87 31.09 25.31 31.12 C26.35 31.15 26.35 31.15 27.4 31.18 C31.17 31.21 32.78 31.14 36 29 C37.1 26.69 37.1 26.69 37 24 C35.57 21.21 35.57 21.21 33 19 C30.19 18.63 28.02 18.52 25.25 18.69 C24.2 18.72 24.2 18.72 23.14 18.76 C21.42 18.81 19.71 18.9 18 19 Z " fill="#FDFDFD" transform="translate(0,11)"/>
<path d="M0 0 C0.33 0 0.66 0 1 0 C1 25.41 1 50.82 1 77 C-3.95 77 -8.9 77 -14 77 C-14.33 67.1 -14.66 57.2 -15 47 C-19.97 52.59 -24.66 57.97 -29 64 C-32.75 62.5 -34.56 60.36 -37 57.19 C-37.66 56.34 -38.32 55.48 -39 54.61 C-39.66 53.75 -40.32 52.89 -41 52 C-42.32 50.35 -43.64 48.7 -45 47 C-45.33 56.9 -45.66 66.8 -46 77 C-51.28 77 -56.56 77 -62 77 C-62 67.76 -62 58.52 -62 49 C-58.7 47.68 -55.4 46.36 -52 45 C-46.47 39.97 -44.67 35.18 -43 28 C-42.67 26.67 -42.33 25.33 -42 24 C-41.34 24 -40.68 24 -40 24 C-38.42 25.95 -36.95 27.9 -35.5 29.94 C-32.8 34.06 -32.8 34.06 -29 37 C-28.59 36.12 -28.59 36.12 -28.18 35.23 C-27.01 33.02 -25.74 31.29 -24.13 29.38 C-23.56 28.7 -22.99 28.02 -22.4 27.31 C-21.8 26.59 -21.19 25.87 -20.56 25.12 C-15.4 18.93 -10.32 12.67 -5.38 6.29 C-3.66 4.08 -1.98 1.98 0 0 Z " fill="#FDFDFD" transform="translate(99,12)"/>
<path d="M0 0 C-1.88 1.88 -5.04 1.39 -7.56 1.56 C-8.76 1.65 -9.96 1.73 -11.19 1.82 C-12.58 1.91 -12.58 1.91 -14 2 C-14 2.66 -14 3.32 -14 4 C-13.01 4.33 -12.02 4.66 -11 5 C-11.5 12.5 -11.5 12.5 -16 17 C-10.39 17.33 -4.78 17.66 1 18 C1 18.33 1 18.66 1 19 C-10.88 19 -22.76 19 -35 19 C-35 18.34 -35 17.68 -35 17 C-33.6 15.62 -33.6 15.62 -31.62 14 C-29.09 11.9 -26.9 9.88 -24.77 7.35 C-20.58 2.45 -17.51 -0.47 -11.05 -1.09 C-2.93 -1.46 -2.93 -1.46 0 0 Z " fill="#EDECED" transform="translate(35,42)"/>
<path d="M0 0 C6.57 5.14 6.57 5.14 8 9 C3.25 13 3.25 13 1 13 C0.79 13.56 0.59 14.11 0.38 14.69 C-1.55 17.93 -4.04 19.68 -7 22 C-9 21 -9 21 -10.12 18.62 C-11 16 -11 16 -11 13 C-9.21 11.05 -7.43 9.24 -5.5 7.44 C-3.61 5.66 -1.8 3.87 0 2 C0 1.34 0 0.68 0 0 Z " fill="#E8E7E8" transform="translate(45,16)"/>
<path d="M0 0 C0 5.28 0 10.56 0 16 C-5.28 16 -10.56 16 -16 16 C-2.72 0 -2.72 0 0 0 Z " fill="#C5C4C5" transform="translate(17,44)"/>
<path d="M0 0 C0.66 0 1.32 0 2 0 C3.51 3.01 3.12 6.11 3.1 9.41 C3.1 10.14 3.09 10.87 3.09 11.63 C3.09 13.96 3.08 16.29 3.06 18.62 C3.06 20.21 3.05 21.79 3.05 23.37 C3.04 27.24 3.02 31.12 3 35 C-2.28 35 -7.56 35 -13 35 C-13 34.67 -13 34.34 -13 34 C-8.05 34 -3.1 34 2 34 C2 25.09 2 16.18 2 7 C0.02 7 -1.96 7 -4 7 C-3.67 7.99 -3.34 8.98 -3 10 C-3.99 9.67 -4.98 9.34 -6 9 C-6 8.34 -6 7.68 -6 7 C-8.31 7.33 -10.62 7.66 -13 8 C-12.43 7.72 -11.85 7.45 -11.26 7.16 C-9.03 6.02 -6.93 4.77 -4.81 3.44 C-4.12 3 -3.42 2.57 -2.71 2.12 C-1.04 1.11 -1.04 1.11 0 0 Z " fill="#D7D6D6" transform="translate(50,54)"/>
<path d="M0 0 C0.99 0.33 1.98 0.66 3 1 C0 4 -3 7 -6 10 C-6.66 9.67 -7.32 9.34 -8 9 C-8.62 6.44 -8.62 6.44 -9 4 C-5.53 3.5 -5.53 3.5 -2 3 C-2 2.34 -2 1.68 -2 1 C-1.34 0.67 -0.68 0.34 0 0 Z " fill="#D2D1D1" transform="translate(44,28)"/>
<path d="M0 0 C2 1 2 1 2 1 Z " fill="#7F7F7F" transform="translate(30,62)"/>
<path d="M0 0 C2 1 2 1 2 1 Z " fill="#000000" transform="translate(21,62)"/>
<path d="" fill="#000000" transform="translate(0,0)"/>
<path d="" fill="#000000" transform="translate(0,0)"/>
<path d="" fill="#000000" transform="translate(0,0)"/>
</svg>
