<?xml version="1.0" encoding="UTF-8"?>
<!-- Generator: https://ezgif.com/png-to-svg -->
<svg version="1.1" xmlns="http://www.w3.org/2000/svg" width="151" height="151">
<path d="M0 0 C0.66 0 1.32 0 2 0 C3.06 1.72 4.1 3.45 5.12 5.19 C5.71 6.15 6.29 7.11 6.88 8.11 C8 11 8 11 7.39 13.5 C6.93 14.33 6.47 15.15 6 16 C5.49 16.92 4.98 17.85 4.45 18.8 C3.87 19.77 3.29 20.75 2.69 21.75 C2.07 22.8 1.46 23.85 0.82 24.93 C-0.3 26.83 -1.45 28.72 -2.61 30.61 C-3.07 31.38 -3.53 32.14 -4 32.94 C-4.41 33.61 -4.83 34.28 -5.25 34.96 C-6.26 37.7 -5.75 39.19 -5 42 C-3.82 44.5 -3.82 44.5 -2.31 46.98 C-1.78 47.89 -1.25 48.81 -0.7 49.76 C-0.14 50.7 0.42 51.65 1 52.62 C2.11 54.51 3.21 56.4 4.31 58.29 C4.8 59.12 5.29 59.95 5.8 60.81 C7 63 7 63 8 66 C2.72 66 -2.56 66 -8 66 C-8.83 64.46 -9.66 62.92 -10.52 61.33 C-11.62 59.3 -12.71 57.28 -13.81 55.25 C-14.36 54.23 -14.91 53.22 -15.47 52.17 C-16 51.19 -16.53 50.21 -17.08 49.2 C-17.57 48.3 -18.06 47.4 -18.56 46.47 C-19.94 43.98 -19.94 43.98 -21.72 41.83 C-22.35 40.92 -22.35 40.92 -23 40 C-22.02 36.12 -19.82 32.92 -17.69 29.56 C-14.93 25.17 -12.25 20.74 -9.65 16.26 C-9.07 15.26 -8.49 14.26 -7.89 13.23 C-6.72 11.21 -5.55 9.19 -4.39 7.16 C-3.85 6.24 -3.31 5.31 -2.76 4.36 C-2.27 3.52 -1.79 2.68 -1.29 1.81 C-0.65 0.92 -0.65 0.92 0 0 Z " fill="#0F0F0F" transform="translate(75,43)"/>
<path d="M0 0 C1.82 0.07 1.82 0.07 3.67 0.15 C5.58 0.23 5.58 0.23 7.52 0.32 C9.44 0.39 9.44 0.39 11.4 0.47 C14.57 0.6 17.73 0.74 20.9 0.88 C19.61 4.27 18.14 7.4 16.35 10.55 C15.84 11.45 15.33 12.35 14.81 13.28 C14.26 14.24 13.71 15.2 13.15 16.19 C12.3 17.69 12.3 17.69 11.43 19.21 C10.22 21.33 9.01 23.45 7.8 25.57 C6.51 27.81 5.23 30.05 3.95 32.3 C2.04 35.64 0.13 38.98 -1.79 42.32 C-2.39 43.37 -2.99 44.42 -3.61 45.51 C-4.17 46.48 -4.72 47.44 -5.3 48.44 C-5.79 49.3 -6.29 50.16 -6.8 51.04 C-7.23 51.65 -7.66 52.25 -8.1 52.88 C-8.76 52.88 -9.42 52.88 -10.1 52.88 C-10.56 51.91 -11.01 50.94 -11.48 49.94 C-12.76 46.81 -12.76 46.81 -15.1 45.88 C-16.15 43.9 -17.15 41.9 -18.1 39.88 C-16.62 39.38 -16.62 39.38 -15.1 38.88 C-14.39 37.23 -13.74 35.56 -13.1 33.88 C-11.06 30.2 -8.83 26.62 -6.65 23.03 C-6.21 22.3 -5.77 21.57 -5.32 20.81 C-4.71 19.82 -4.71 19.82 -4.1 18.81 C-3.06 16.8 -2.44 15.12 -2.1 12.88 C-3.29 10.29 -3.29 10.29 -5.04 7.75 C-8.1 3.05 -8.1 3.05 -8.1 0.88 C-5.3 -0.52 -3.12 -0.13 0 0 Z " fill="#121212" transform="translate(100.1015625,41.12109375)"/>
<path d="M0 0 C-1.53 3.16 -3.25 6.18 -5.04 9.2 C-5.62 10.18 -6.2 11.16 -6.8 12.17 C-7.4 13.19 -8 14.2 -8.62 15.25 C-9.24 16.28 -9.85 17.31 -10.48 18.38 C-11.98 20.92 -13.49 23.46 -15 26 C-18.92 21.48 -21.78 16.48 -24.75 11.31 C-25.51 10.01 -25.51 10.01 -26.29 8.69 C-26.76 7.86 -27.24 7.03 -27.73 6.18 C-28.39 5.05 -28.39 5.05 -29.05 3.89 C-30 2 -30 2 -30 0 C-25.56 -0.2 -21.13 -0.38 -16.69 -0.56 C-14.79 -0.65 -14.79 -0.65 -12.86 -0.73 C-11.65 -0.78 -10.44 -0.83 -9.2 -0.88 C-8.08 -0.93 -6.97 -0.97 -5.82 -1.02 C-3 -1 -3 -1 0 0 Z " fill="#101010" transform="translate(60,42)"/>
<path d="M0 0 C7.26 0 14.52 0 22 0 C21.67 2.31 21.34 4.62 21 7 C20.34 7 19.68 7 19 7 C19 8.32 19 9.64 19 11 C18.34 11 17.68 11 17 11 C17 8.69 17 6.38 17 4 C15.24 4.03 15.24 4.03 13.44 4.06 C9.54 4.05 5.83 3.84 2 3 C1.34 2.01 0.68 1.02 0 0 Z " fill="#010101" transform="translate(95,43)"/>
<path d="M0 0 C2.31 2.16 4.02 4.38 5.69 7.06 C6.34 8.1 6.34 8.1 7.01 9.16 C8 11 8 11 8 13 C2.72 13 -2.56 13 -8 13 C-7.67 12.34 -7.34 11.68 -7 11 C-6.01 11 -5.02 11 -4 11 C-3.34 10.01 -2.68 9.02 -2 8 C-1.34 8 -0.68 8 0 8 C-0.19 7.05 -0.37 6.1 -0.56 5.12 C-1 2 -1 2 0 0 Z " fill="#2B2B2B" transform="translate(75,96)"/>
<path d="M0 0 C0.99 1.32 1.98 2.64 3 4 C3.66 3.67 4.32 3.34 5 3 C5.06 3.58 5.12 4.16 5.18 4.76 C5.66 9.2 6.21 13.6 7 18 C5.06 17.31 5.06 17.31 3 16 C2.25 13.38 2.25 13.38 2 11 C1.34 11 0.68 11 0 11 C-0.33 10.34 -0.66 9.68 -1 9 C-1.99 9.33 -2.98 9.66 -4 10 C-3.72 8.52 -3.42 7.04 -3.12 5.56 C-2.96 4.74 -2.8 3.92 -2.63 3.07 C-2.42 2.38 -2.22 1.7 -2 1 C-1.34 0.67 -0.68 0.34 0 0 Z " fill="#030303" transform="translate(61,71)"/>
<path d="M0 0 C0.66 0 1.32 0 2 0 C3.06 1.72 4.1 3.45 5.12 5.19 C5.71 6.15 6.29 7.11 6.88 8.11 C8 11 8 11 7.18 13.86 C6.79 14.57 6.4 15.27 6 16 C5.67 16 5.34 16 5 16 C5 14.35 5 12.7 5 11 C4.34 11 3.68 11 3 11 C2.34 10.34 1.68 9.68 1 9 C0.01 9 -0.98 9 -2 9 C-2.99 10.48 -2.99 10.48 -4 12 C-4.66 12 -5.32 12 -6 12 C-4.43 7.69 -2.32 3.94 0 0 Z " fill="#414141" transform="translate(75,43)"/>
<path d="M0 0 C1.5 1.38 1.5 1.38 3 3 C3 3.66 3 4.32 3 5 C3.66 5 4.32 5 5 5 C5 6.65 5 8.3 5 10 C4.01 10.5 4.01 10.5 3 11 C0.38 9.69 0.38 9.69 -2 8 C-2 7.34 -2 6.68 -2 6 C-2.99 6.33 -3.98 6.66 -5 7 C-4.75 4.62 -4.75 4.62 -4 2 C-1.94 0.69 -1.94 0.69 0 0 Z " fill="#020202" transform="translate(103,55)"/>
<path d="M0 0 C1.82 0.07 1.82 0.07 3.67 0.15 C5.58 0.23 5.58 0.23 7.52 0.32 C9.44 0.39 9.44 0.39 11.4 0.47 C14.57 0.6 17.73 0.74 20.9 0.88 C19.22 5.16 17.23 8.92 14.9 12.88 C14.57 11.56 14.24 10.24 13.9 8.88 C14.56 8.88 15.22 8.88 15.9 8.88 C16.23 6.57 16.56 4.26 16.9 1.88 C16.25 1.91 15.6 1.94 14.93 1.97 C11.98 2.11 9.03 2.24 6.09 2.38 C5.06 2.43 4.04 2.47 2.98 2.52 C1.51 2.59 1.51 2.59 0 2.66 C-1.36 2.72 -1.36 2.72 -2.74 2.79 C-4.53 2.86 -6.31 2.88 -8.1 2.88 C-8.1 2.22 -8.1 1.56 -8.1 0.88 C-5.3 -0.52 -3.12 -0.13 0 0 Z " fill="#737373" transform="translate(100.1015625,41.12109375)"/>
<path d="M0 0 C1.03 0 2.06 0.01 3.12 0.01 C4.75 0.02 4.75 0.02 6.4 0.04 C8.03 0.04 8.03 0.04 9.7 0.05 C12.39 0.06 15.08 0.08 17.77 0.1 C17.77 0.43 17.77 0.76 17.77 1.1 C11.5 1.1 5.23 1.1 -1.23 1.1 C-0.9 3.08 -0.57 5.06 -0.23 7.1 C-1.22 7.43 -2.21 7.76 -3.23 8.1 C-6.23 6.1 -6.23 6.1 -6.91 3.47 C-7.02 2.69 -7.12 1.91 -7.23 1.1 C-4.67 -0.18 -2.86 -0.02 0 0 Z " fill="#010101" transform="translate(40.2265625,42.90234375)"/>
<path d="M0 0 C1.32 0.33 2.64 0.66 4 1 C2.43 5.31 0.32 9.06 -2 13 C-2.66 13 -3.32 13 -4 13 C-4.66 11.35 -5.32 9.7 -6 8 C-5.34 7.34 -4.68 6.68 -4 6 C-3.67 5.34 -3.34 4.68 -3 4 C-1.68 4 -0.36 4 1 4 C0.67 2.68 0.34 1.36 0 0 Z " fill="#383838" transform="translate(94,81)"/>
<path d="M0 0 C-0.33 0.99 -0.66 1.98 -1 3 C-1.33 2.34 -1.66 1.68 -2 1 C-5.63 1.11 -9.25 1.24 -12.88 1.38 C-14.42 1.42 -14.42 1.42 -16 1.47 C-17.48 1.53 -17.48 1.53 -18.99 1.59 C-19.9 1.62 -20.81 1.65 -21.75 1.68 C-24.2 1.8 -24.2 1.8 -26 4 C-26.33 4.99 -26.66 5.98 -27 7 C-30 2.25 -30 2.25 -30 0 C-25.56 -0.2 -21.13 -0.38 -16.69 -0.56 C-14.79 -0.65 -14.79 -0.65 -12.86 -0.73 C-11.65 -0.78 -10.44 -0.83 -9.2 -0.88 C-8.08 -0.93 -6.97 -0.97 -5.82 -1.02 C-3 -1 -3 -1 0 0 Z " fill="#686868" transform="translate(60,42)"/>
<path d="M0 0 C0.66 0.99 1.32 1.98 2 3 C1.25 6.12 1.25 6.12 0 9 C-0.99 9.5 -0.99 9.5 -2 10 C-2 11.65 -2 13.3 -2 15 C-2.66 15 -3.32 15 -4 15 C-4.99 13.02 -5.98 11.04 -7 9 C-6.01 8.67 -5.02 8.34 -4 8 C-2.89 5.61 -2.89 5.61 -2 3 C-1.34 2.01 -0.68 1.02 0 0 Z " fill="#626262" transform="translate(89,72)"/>
<path d="M0 0 C0.66 0.33 1.32 0.66 2 1 C0.43 5.31 -1.68 9.06 -4 13 C-4.33 13 -4.66 13 -5 13 C-5.42 8.36 -4.06 5.12 -2 1 C-1.34 0.67 -0.68 0.34 0 0 Z " fill="#393939" transform="translate(78,58)"/>
<path d="M0 0 C4 2 4 2 5 4 C4.67 4.66 4.34 5.32 4 6 C4.99 6 5.98 6 7 6 C7.66 7.98 8.32 9.96 9 12 C8.34 12.66 7.68 13.32 7 14 C4.69 9.38 2.38 4.76 0 0 Z " fill="#3C3C3C" transform="translate(55,86)"/>
<path d="M0 0 C0.66 0 1.32 0 2 0 C1.92 0.87 1.83 1.73 1.75 2.62 C2.06 6.76 3.52 8.75 6 12 C5.67 12.66 5.34 13.32 5 14 C3.12 13.44 3.12 13.44 1 12 C-0.72 7.65 -1.37 4.51 0 0 Z " fill="#444444" transform="translate(67,78)"/>
<path d="M0 0 C0.99 0.33 1.98 0.66 3 1 C3 1.66 3 2.32 3 3 C3.66 3 4.32 3 5 3 C5 3.66 5 4.32 5 5 C5.66 5 6.32 5 7 5 C6.67 6.98 6.34 8.96 6 11 C0 3.29 0 3.29 0 0 Z " fill="#313131" transform="translate(37,54)"/>
<path d="M0 0 C0.66 0 1.32 0 2 0 C5 5.75 5 5.75 5 8 C0.25 6.12 0.25 6.12 -2 5 C-1.34 3.35 -0.68 1.7 0 0 Z " fill="#4C4C4C" transform="translate(75,43)"/>
<path d="M0 0 C0.99 0.33 1.98 0.66 3 1 C2.01 2.65 1.02 4.3 0 6 C-1.32 5.67 -2.64 5.34 -4 5 C-4 4.34 -4 3.68 -4 3 C-2.19 1.31 -2.19 1.31 0 0 Z " fill="#020202" transform="translate(71,102)"/>
<path d="M0 0 C1.65 0.33 3.3 0.66 5 1 C4.67 2.65 4.34 4.3 4 6 C2.35 5.01 0.7 4.02 -1 3 C-0.67 2.01 -0.34 1.02 0 0 Z " fill="#010101" transform="translate(56,83)"/>
<path d="M0 0 C1.32 0.33 2.64 0.66 4 1 C4 1.99 4 2.98 4 4 C3.01 4 2.02 4 1 4 C0.01 5.48 0.01 5.48 -1 7 C-1.66 7 -2.32 7 -3 7 C-1.12 2.25 -1.12 2.25 0 0 Z " fill="#282828" transform="translate(72,48)"/>
<path d="M0 0 C0.99 0 1.98 0 3 0 C2.33 4.19 0.14 7.4 -2 11 C-2.33 9.68 -2.66 8.36 -3 7 C-2.34 7 -1.68 7 -1 7 C-0.67 4.69 -0.34 2.38 0 0 Z " fill="#4A4A4A" transform="translate(117,43)"/>
<path d="M0 0 C0.66 0.99 1.32 1.98 2 3 C1.34 3 0.68 3 0 3 C0.33 3.99 0.66 4.98 1 6 C-0.98 6.99 -0.98 6.99 -3 8 C-2.45 4.63 -1.95 2.92 0 0 Z " fill="#333333" transform="translate(98,57)"/>
<path d="M0 0 C0.66 0.99 1.32 1.98 2 3 C1.25 4.94 1.25 4.94 0 7 C-2.12 7.75 -2.12 7.75 -4 8 C-2.88 5.03 -1.78 2.67 0 0 Z " fill="#454545" transform="translate(89,72)"/>
<path d="M0 0 C1 2 2 4 3 6 C2.01 7.48 2.01 7.48 1 9 C-0.62 6.75 -0.62 6.75 -2 4 C-1.19 1.69 -1.19 1.69 0 0 Z " fill="#3D3D3D" transform="translate(65,98)"/>
<path d="M0 0 C2.25 2.05 3 3.01 4 6 C2.35 5.67 0.7 5.34 -1 5 C-0.67 3.35 -0.34 1.7 0 0 Z " fill="#303030" transform="translate(75,96)"/>
<path d="" fill="#FFFFFF" transform="translate(0,0)"/>
<path d="" fill="#FFFFFF" transform="translate(0,0)"/>
<path d="" fill="#FFFFFF" transform="translate(0,0)"/>
<path d="" fill="#FFFFFF" transform="translate(0,0)"/>
<path d="" fill="#FFFFFF" transform="translate(0,0)"/>
</svg>
