<?xml version="1.0" encoding="UTF-8"?>
<!-- Generator: https://ezgif.com/png-to-svg -->
<svg version="1.1" xmlns="http://www.w3.org/2000/svg" width="512" height="512" viewBox="-18.557 -26.535 1685.074 1685.074" preserveAspectRatio="xMidYMid meet">
<path d="M0 0 C0.72 -0 1.44 -0 2.18 -0 C5.06 -0.01 7.95 -0.02 10.83 -0.02 C40.86 -0.08 70.89 -0.12 100.92 -0.14 C109.59 -0.15 118.26 -0.16 126.93 -0.18 C137.43 -0.19 147.92 -0.2 158.42 -0.2 C163.73 -0.2 169.04 -0.2 174.35 -0.21 C179.17 -0.22 184 -0.22 188.82 -0.21 C190.57 -0.21 192.31 -0.21 194.06 -0.22 C196.42 -0.23 198.77 -0.22 201.13 -0.21 C202.44 -0.21 203.75 -0.22 205.1 -0.22 C208.24 0.03 208.24 0.03 211.24 2.03 C212.55 6.97 212.38 12.02 212.35 17.09 C212.35 18 212.35 18.9 212.36 19.83 C212.35 22.85 212.35 25.86 212.34 28.88 C212.34 31.05 212.34 33.22 212.33 35.38 C212.33 40.05 212.32 44.72 212.32 49.39 C212.3 56.78 212.3 64.17 212.29 71.57 C212.28 88.62 212.26 105.67 212.24 122.72 C212.22 138.31 212.2 153.9 212.19 169.5 C212.18 176.83 212.17 184.16 212.16 191.5 C212.15 196.09 212.15 200.68 212.15 205.27 C212.14 207.38 212.14 209.49 212.14 211.59 C212.13 214.5 212.13 217.41 212.13 220.32 C212.12 221.13 212.12 221.94 212.12 222.77 C212.13 231.9 212.76 240.88 213.24 250.03 C294.75 250.36 376.26 250.69 460.24 251.03 C462.49 255.53 462.49 255.53 462.48 259.13 C462.49 259.94 462.49 260.76 462.49 261.59 C462.49 262.48 462.48 263.37 462.47 264.28 C462.48 265.23 462.48 266.17 462.48 267.15 C462.48 270.33 462.47 273.51 462.45 276.69 C462.45 278.96 462.45 281.24 462.45 283.52 C462.45 288.42 462.44 293.33 462.42 298.24 C462.4 306.01 462.39 313.77 462.39 321.54 C462.38 332.43 462.36 343.33 462.34 354.22 C462.34 354.92 462.33 355.61 462.33 356.32 C462.33 357.01 462.33 357.7 462.33 358.42 C462.31 368.21 462.29 378.01 462.28 387.8 C462.27 388.49 462.27 389.18 462.27 389.88 C462.25 401.38 462.24 412.88 462.23 424.38 C462.22 432.1 462.21 439.81 462.19 447.52 C462.18 452.34 462.17 457.15 462.16 461.96 C462.16 464.18 462.16 466.4 462.15 468.63 C462.1 484.36 462.1 484.36 463.24 500.03 C465.14 500.03 465.14 500.03 467.08 500.03 C497.1 499.98 527.13 499.95 557.16 499.93 C560.85 499.93 564.54 499.93 568.23 499.92 C568.97 499.92 569.7 499.92 570.46 499.92 C582.38 499.91 594.29 499.9 606.21 499.88 C618.43 499.86 630.65 499.85 642.87 499.85 C650.42 499.84 657.96 499.83 665.51 499.82 C671.28 499.81 677.06 499.8 682.84 499.81 C685.22 499.81 687.59 499.8 689.97 499.79 C693.2 499.78 696.43 499.79 699.66 499.79 C700.61 499.79 701.56 499.78 702.54 499.78 C703.84 499.78 703.84 499.78 705.15 499.79 C705.9 499.79 706.65 499.79 707.42 499.78 C709.24 500.03 709.24 500.03 711.24 502.03 C711.45 504.85 711.53 507.57 711.53 510.39 C711.53 511.27 711.54 512.15 711.55 513.05 C711.57 516.03 711.57 519 711.58 521.98 C711.59 524.12 711.6 526.26 711.61 528.4 C711.64 534.31 711.66 540.21 711.68 546.12 C711.69 551.17 711.72 556.22 711.74 561.27 C711.8 574.99 711.85 588.7 711.89 602.42 C711.92 611.77 711.95 621.13 711.98 630.48 C712.24 704.24 712.3 777.99 711.89 890.95 C711.87 895.7 711.85 900.45 711.83 905.2 C711.77 920.64 711.71 936.09 711.63 951.53 C711.6 956.21 711.58 960.88 711.56 965.56 C711.54 970.93 711.51 976.29 711.48 981.65 C711.47 983.6 711.46 985.55 711.45 987.5 C711.44 990.12 711.42 992.75 711.41 995.38 C711.4 996.54 711.4 996.54 711.4 997.72 C711.36 1002.92 711.36 1002.92 710.24 1004.03 C707.06 1004.14 703.89 1004.19 700.71 1004.19 C699.69 1004.2 698.68 1004.2 697.63 1004.21 C694.21 1004.22 690.79 1004.23 687.36 1004.24 C684.92 1004.25 682.48 1004.26 680.03 1004.27 C674.76 1004.29 669.48 1004.31 664.21 1004.32 C656.58 1004.35 648.95 1004.37 641.33 1004.4 C628.95 1004.45 616.58 1004.5 604.21 1004.54 C592.19 1004.58 580.17 1004.62 568.14 1004.66 C567.4 1004.66 566.66 1004.67 565.9 1004.67 C562.18 1004.68 558.47 1004.7 554.75 1004.71 C523.92 1004.82 493.08 1004.93 462.24 1005.03 C462.24 1006.31 462.23 1007.59 462.23 1008.9 C462.13 1039.19 462.02 1069.48 461.91 1099.76 C461.9 1103.49 461.88 1107.21 461.87 1110.94 C461.87 1111.68 461.86 1112.42 461.86 1113.18 C461.82 1125.2 461.78 1137.22 461.74 1149.24 C461.7 1161.57 461.65 1173.89 461.6 1186.22 C461.57 1193.83 461.55 1201.44 461.53 1209.05 C461.51 1214.88 461.49 1220.71 461.46 1226.53 C461.45 1228.93 461.44 1231.33 461.44 1233.72 C461.43 1236.98 461.42 1240.24 461.4 1243.5 C461.4 1244.46 461.4 1245.42 461.4 1246.41 C461.36 1252.92 461.36 1252.92 460.24 1254.03 C457.06 1254.14 453.89 1254.19 450.71 1254.19 C449.69 1254.2 448.68 1254.2 447.63 1254.21 C444.21 1254.22 440.79 1254.23 437.36 1254.24 C434.92 1254.25 432.48 1254.26 430.03 1254.27 C424.76 1254.29 419.48 1254.31 414.21 1254.32 C406.58 1254.35 398.95 1254.37 391.33 1254.4 C378.95 1254.45 366.58 1254.5 354.21 1254.54 C342.19 1254.58 330.17 1254.62 318.14 1254.66 C317.4 1254.66 316.66 1254.67 315.9 1254.67 C312.18 1254.68 308.47 1254.7 304.75 1254.71 C273.92 1254.82 243.08 1254.93 212.24 1255.03 C212.24 1256.3 212.23 1257.58 212.23 1258.89 C212.15 1289.03 212.06 1319.18 211.96 1349.33 C211.95 1353.04 211.94 1356.75 211.92 1360.45 C211.92 1361.19 211.92 1361.93 211.92 1362.69 C211.88 1374.65 211.84 1386.62 211.81 1398.58 C211.78 1410.85 211.74 1423.12 211.7 1435.39 C211.67 1442.97 211.65 1450.55 211.63 1458.12 C211.62 1463.92 211.6 1469.72 211.57 1475.53 C211.56 1477.91 211.56 1480.3 211.56 1482.68 C211.55 1485.93 211.54 1489.17 211.52 1492.42 C211.52 1493.37 211.52 1494.33 211.53 1495.31 C211.51 1496.61 211.51 1496.61 211.5 1497.93 C211.5 1499.05 211.5 1499.05 211.5 1500.2 C211.24 1502.03 211.24 1502.03 209.24 1504.03 C206.58 1504.23 204.02 1504.3 201.35 1504.28 C200.52 1504.28 199.69 1504.29 198.84 1504.29 C196.03 1504.3 193.22 1504.29 190.41 1504.28 C188.39 1504.28 186.37 1504.28 184.35 1504.29 C178.77 1504.29 173.19 1504.29 167.62 1504.28 C161.61 1504.27 155.6 1504.28 149.59 1504.28 C139.18 1504.29 128.76 1504.28 118.34 1504.28 C107.41 1504.27 96.48 1504.26 85.54 1504.26 C84.86 1504.26 84.18 1504.26 83.48 1504.26 C80.72 1504.26 77.97 1504.26 75.21 1504.26 C49.32 1504.26 23.42 1504.25 -2.47 1504.24 C-25.47 1504.22 -48.48 1504.22 -71.49 1504.22 C-72.96 1504.22 -74.44 1504.22 -75.92 1504.22 C-76.65 1504.22 -77.38 1504.22 -78.13 1504.22 C-81.8 1504.22 -85.48 1504.22 -89.15 1504.22 C-90.24 1504.22 -90.24 1504.22 -91.35 1504.22 C-110.56 1504.22 -129.78 1504.21 -148.99 1504.21 C-149.68 1504.21 -150.36 1504.21 -151.06 1504.21 C-153.81 1504.21 -156.56 1504.21 -159.31 1504.21 C-168.88 1504.2 -178.44 1504.2 -188.01 1504.2 C-200.34 1504.2 -212.67 1504.2 -225 1504.19 C-230.95 1504.18 -236.89 1504.18 -242.84 1504.18 C-248.28 1504.18 -253.73 1504.18 -259.17 1504.17 C-261.14 1504.17 -263.11 1504.17 -265.08 1504.17 C-267.76 1504.17 -270.44 1504.17 -273.11 1504.16 C-273.88 1504.16 -274.64 1504.17 -275.43 1504.17 C-280.29 1504.15 -284.99 1504.02 -289.76 1503.03 C-291.91 1500.44 -292.01 1498.01 -292 1494.71 C-292.01 1493.85 -292.01 1492.99 -292.02 1492.1 C-292.01 1490.69 -292.01 1490.69 -292 1489.25 C-292 1487.75 -292 1487.75 -292 1486.21 C-292.01 1482.84 -292 1479.46 -291.99 1476.09 C-291.99 1473.67 -291.99 1471.26 -291.99 1468.85 C-291.99 1463.64 -291.98 1458.44 -291.97 1453.24 C-291.95 1445.71 -291.95 1438.19 -291.95 1430.67 C-291.94 1418.47 -291.93 1406.26 -291.91 1394.06 C-291.89 1382.2 -291.88 1370.34 -291.87 1358.49 C-291.87 1357.76 -291.87 1357.03 -291.87 1356.27 C-291.86 1352.61 -291.86 1348.94 -291.86 1345.28 C-291.84 1314.86 -291.8 1284.45 -291.76 1254.03 C-293.65 1254.03 -293.65 1254.03 -295.58 1254.04 C-325.46 1254.06 -355.35 1254.07 -385.24 1254.08 C-388.92 1254.09 -392.59 1254.09 -396.27 1254.09 C-397.37 1254.09 -397.37 1254.09 -398.49 1254.09 C-410.35 1254.09 -422.21 1254.1 -434.07 1254.11 C-446.23 1254.12 -458.4 1254.13 -470.56 1254.13 C-478.07 1254.13 -485.58 1254.13 -493.09 1254.14 C-498.85 1254.15 -504.6 1254.15 -510.35 1254.15 C-512.72 1254.15 -515.08 1254.15 -517.44 1254.15 C-520.66 1254.16 -523.88 1254.16 -527.1 1254.15 C-528.04 1254.16 -528.99 1254.16 -529.96 1254.16 C-530.82 1254.16 -531.68 1254.16 -532.56 1254.16 C-533.31 1254.16 -534.05 1254.16 -534.82 1254.16 C-536.76 1254.03 -536.76 1254.03 -539.76 1253.03 C-540.9 1250.75 -540.89 1249.47 -540.9 1246.93 C-540.91 1245.63 -540.91 1245.63 -540.91 1244.31 C-540.92 1243.35 -540.92 1242.4 -540.92 1241.42 C-540.92 1239.9 -540.92 1239.9 -540.93 1238.36 C-540.95 1234.95 -540.96 1231.54 -540.96 1228.13 C-540.97 1225.66 -540.98 1223.19 -540.99 1220.71 C-541.02 1214.74 -541.04 1208.77 -541.06 1202.8 C-541.08 1195.9 -541.1 1189 -541.13 1182.1 C-541.2 1163.87 -541.26 1145.64 -541.32 1127.41 C-541.47 1086.69 -541.61 1045.98 -541.76 1004.03 C-623.6 1003.7 -705.44 1003.37 -789.76 1003.03 C-791.73 998.11 -792.04 994.53 -792.01 989.37 C-792.01 988.5 -792.01 987.62 -792.01 986.72 C-792.02 983.77 -792.01 980.83 -792 977.88 C-792 975.76 -792 973.63 -792.01 971.5 C-792.01 965.65 -792 959.8 -791.99 953.95 C-791.99 947.66 -791.99 941.36 -791.99 935.07 C-791.99 922.76 -791.98 910.45 -791.96 898.15 C-791.95 888.16 -791.94 878.18 -791.94 868.2 C-791.89 795.24 -791.75 722.27 -791.37 618.68 C-791.34 611.98 -791.32 605.29 -791.29 598.59 C-791.24 583.35 -791.18 568.1 -791.11 552.86 C-791.09 548.24 -791.07 543.63 -791.05 539.01 C-791.03 533.72 -791.01 528.42 -790.98 523.13 C-790.97 521.21 -790.96 519.29 -790.96 517.37 C-790.95 514.77 -790.93 512.18 -790.92 509.59 C-790.92 508.83 -790.92 508.07 -790.91 507.28 C-790.87 502.15 -790.87 502.15 -789.76 501.03 C-786.57 500.92 -783.41 500.88 -780.22 500.87 C-779.21 500.87 -778.2 500.87 -777.15 500.86 C-773.73 500.84 -770.3 500.84 -766.88 500.83 C-764.44 500.82 -761.99 500.81 -759.55 500.8 C-754.27 500.78 -749 500.76 -743.72 500.74 C-736.1 500.72 -728.47 500.69 -720.84 500.66 C-708.47 500.61 -696.1 500.57 -683.73 500.53 C-671.7 500.49 -659.68 500.45 -647.66 500.41 C-646.92 500.4 -646.18 500.4 -645.42 500.4 C-641.7 500.38 -637.99 500.37 -634.27 500.36 C-603.43 500.24 -572.6 500.14 -541.76 500.03 C-541.76 498.77 -541.76 497.52 -541.76 496.22 C-541.81 466.35 -541.84 436.47 -541.86 406.6 C-541.86 402.93 -541.87 399.25 -541.87 395.58 C-541.87 394.85 -541.87 394.11 -541.87 393.36 C-541.88 381.51 -541.89 369.65 -541.91 357.8 C-541.93 345.64 -541.94 333.48 -541.95 321.32 C-541.95 313.82 -541.96 306.31 -541.97 298.81 C-541.99 293.06 -541.99 287.3 -541.99 281.55 C-541.99 279.19 -541.99 276.83 -542 274.47 C-542.01 271.25 -542 268.03 -542 264.82 C-542.01 263.87 -542.01 262.93 -542.02 261.96 C-542.01 261.1 -542.01 260.24 -542 259.35 C-542.01 258.61 -542.01 257.87 -542.01 257.1 C-541.76 255.03 -541.76 255.03 -539.76 251.03 C-457.59 251.03 -375.42 251.03 -290.76 251.03 C-291.09 189.57 -291.09 189.57 -291.42 128.12 C-291.51 109.95 -291.6 91.79 -291.68 73.62 C-291.73 64.19 -291.77 54.76 -291.83 45.33 C-291.86 39.5 -291.88 33.67 -291.9 27.84 C-291.91 25.61 -291.92 23.39 -291.94 21.16 C-291.96 18.24 -291.97 15.32 -291.97 12.39 C-291.98 11.57 -291.99 10.74 -292 9.89 C-291.99 6.06 -291.94 4.3 -289.76 1.03 C-286.68 0.73 -283.8 0.62 -280.71 0.63 C-279.28 0.62 -279.28 0.62 -277.83 0.61 C-274.6 0.6 -271.38 0.6 -268.15 0.6 C-265.83 0.59 -263.51 0.58 -261.2 0.57 C-255.48 0.55 -249.77 0.53 -244.06 0.53 C-237.26 0.52 -230.46 0.5 -223.66 0.47 C-210.42 0.43 -197.18 0.4 -183.94 0.37 C-172.41 0.36 -160.89 0.33 -149.36 0.3 C-147.82 0.29 -146.28 0.29 -144.74 0.29 C-142.43 0.28 -140.11 0.27 -137.8 0.27 C-103.17 0.17 -68.53 0.11 -33.9 0.06 C-22.6 0.04 -11.3 0.02 0 0 Z " fill="#000000" transform="translate(863.7588500976563,63.966796875)"/>
<path d="M0 0 C82.5 0 165 0 250 0 C250 165.66 250 331.32 250 502 C167.5 502 85 502 0 502 C0 584.5 0 667 0 752 C-248 752.5 -248 752.5 -501 753 C-501.93 750.22 -502.12 748.61 -502.11 745.74 C-502.11 744.87 -502.11 744 -502.11 743.1 C-502.1 742.14 -502.1 741.18 -502.09 740.19 C-502.09 739.17 -502.08 738.16 -502.08 737.11 C-502.07 733.68 -502.05 730.25 -502.04 726.82 C-502.03 724.37 -502.02 721.91 -502.01 719.46 C-501.99 713.48 -501.97 707.51 -501.94 701.53 C-501.92 696.67 -501.9 691.82 -501.88 686.96 C-501.88 686.27 -501.88 685.58 -501.87 684.87 C-501.87 683.47 -501.86 682.06 -501.86 680.66 C-501.81 667.51 -501.75 654.35 -501.69 641.19 C-501.64 629.89 -501.6 618.59 -501.56 607.29 C-501.51 594.18 -501.46 581.07 -501.4 567.96 C-501.4 566.56 -501.39 565.17 -501.39 563.77 C-501.38 563.08 -501.38 562.4 -501.38 561.69 C-501.36 556.84 -501.34 551.98 -501.32 547.13 C-501.3 540.6 -501.27 534.08 -501.24 527.55 C-501.23 525.15 -501.22 522.75 -501.21 520.35 C-501.2 517.08 -501.18 513.82 -501.16 510.55 C-501.16 509.59 -501.16 508.63 -501.16 507.63 C-501.15 506.76 -501.15 505.9 -501.14 505 C-501.14 504.25 -501.14 503.49 -501.13 502.72 C-501 501 -501 501 -500 500 C-496.81 499.89 -493.65 499.85 -490.46 499.84 C-489.45 499.84 -488.44 499.83 -487.39 499.83 C-483.97 499.81 -480.55 499.8 -477.12 499.79 C-474.68 499.79 -472.23 499.78 -469.79 499.76 C-464.52 499.74 -459.24 499.72 -453.97 499.71 C-446.34 499.69 -438.71 499.66 -431.09 499.63 C-418.71 499.58 -406.34 499.54 -393.97 499.5 C-381.95 499.46 -369.92 499.42 -357.9 499.37 C-357.16 499.37 -356.42 499.37 -355.66 499.36 C-351.94 499.35 -348.23 499.34 -344.51 499.32 C-313.68 499.21 -282.84 499.1 -252 499 C-252 497.74 -252 496.48 -252.01 495.18 C-252.05 465.31 -252.08 435.44 -252.1 405.57 C-252.1 401.89 -252.11 398.22 -252.11 394.54 C-252.11 393.81 -252.11 393.08 -252.11 392.33 C-252.12 380.47 -252.14 368.62 -252.15 356.77 C-252.17 344.61 -252.18 332.45 -252.19 320.29 C-252.19 312.78 -252.2 305.28 -252.22 297.77 C-252.23 292.02 -252.23 286.27 -252.23 280.52 C-252.23 278.16 -252.23 275.8 -252.24 273.43 C-252.25 270.22 -252.25 267 -252.24 263.78 C-252.25 262.84 -252.25 261.9 -252.26 260.93 C-252.25 260.07 -252.25 259.21 -252.25 258.32 C-252.25 257.58 -252.25 256.83 -252.25 256.07 C-252 254 -252 254 -250 250 C-167.83 250 -85.66 250 -1 250 C-1.33 188.54 -1.33 188.54 -1.66 127.08 C-1.76 108.92 -1.84 90.75 -1.92 72.59 C-1.97 63.16 -2.01 53.73 -2.07 44.3 C-2.1 38.47 -2.12 32.63 -2.14 26.8 C-2.15 24.58 -2.16 22.35 -2.18 20.13 C-2.2 17.21 -2.21 14.28 -2.21 11.36 C-2.22 10.54 -2.23 9.71 -2.24 8.86 C-2.23 5.03 -2.18 3.27 0 0 Z " fill="#FEFEFE" transform="translate(574,65)"/>
<path d="M0 0 C125.42 -0.08 125.42 -0.08 175.58 -0.1 C187.46 -0.1 199.35 -0.1 211.23 -0.11 C212.75 -0.11 214.27 -0.11 215.79 -0.11 C240.02 -0.12 264.25 -0.13 288.49 -0.15 C313.39 -0.17 338.28 -0.18 363.18 -0.19 C366.69 -0.19 370.21 -0.19 373.72 -0.19 C374.76 -0.19 374.76 -0.19 375.81 -0.19 C386.96 -0.19 398.11 -0.2 409.27 -0.21 C420.46 -0.23 431.66 -0.23 442.86 -0.23 C448.93 -0.23 455 -0.23 461.07 -0.24 C466.62 -0.25 472.17 -0.25 477.72 -0.24 C479.74 -0.24 481.76 -0.24 483.77 -0.25 C486.5 -0.26 489.22 -0.25 491.95 -0.25 C493.14 -0.25 493.14 -0.25 494.36 -0.26 C499.77 -0.23 499.77 -0.23 502 2 C502.24 3.84 502.24 3.84 502.23 6.12 C502.23 6.98 502.24 7.85 502.24 8.74 C502.23 9.7 502.22 10.66 502.21 11.65 C502.21 12.66 502.21 13.68 502.2 14.72 C502.2 18.14 502.17 21.56 502.15 24.98 C502.14 27.42 502.13 29.86 502.13 32.3 C502.11 38.26 502.08 44.22 502.05 50.17 C502.01 57.1 501.98 64.04 501.95 70.97 C501.9 83.33 501.84 95.69 501.78 108.05 C501.72 120.06 501.66 132.07 501.61 144.08 C501.61 144.82 501.61 145.56 501.6 146.32 C501.6 147.06 501.6 147.8 501.59 148.56 C501.54 162.21 501.48 175.86 501.42 189.52 C501.39 194.35 501.37 199.19 501.35 204.03 C501.33 210.53 501.29 217.03 501.26 223.54 C501.24 225.93 501.23 228.32 501.22 230.72 C501.21 233.97 501.19 237.22 501.17 240.48 C501.17 241.44 501.17 242.4 501.16 243.39 C501.11 249.89 501.11 249.89 500 251 C496.81 251.11 493.65 251.15 490.46 251.16 C489.45 251.16 488.44 251.17 487.39 251.17 C483.97 251.19 480.55 251.2 477.12 251.21 C474.68 251.21 472.23 251.22 469.79 251.24 C464.52 251.26 459.24 251.28 453.97 251.29 C446.34 251.31 438.71 251.34 431.09 251.37 C418.71 251.42 406.34 251.46 393.97 251.5 C381.95 251.54 369.92 251.58 357.9 251.63 C357.16 251.63 356.42 251.63 355.66 251.64 C351.94 251.65 348.23 251.66 344.51 251.68 C313.68 251.79 282.84 251.9 252 252 C252 253.28 251.99 254.55 251.99 255.87 C251.89 286.16 251.78 316.44 251.67 346.73 C251.66 350.45 251.64 354.18 251.63 357.9 C251.62 358.64 251.62 359.38 251.62 360.15 C251.58 372.17 251.53 384.19 251.5 396.21 C251.45 408.54 251.41 420.86 251.36 433.19 C251.33 440.8 251.31 448.41 251.28 456.02 C251.27 461.85 251.24 467.67 251.22 473.5 C251.21 475.9 251.2 478.29 251.2 480.69 C251.19 483.95 251.17 487.21 251.16 490.46 C251.16 491.43 251.16 492.39 251.16 493.38 C251.11 499.89 251.11 499.89 250 501 C246.81 501.11 243.65 501.15 240.46 501.16 C239.45 501.16 238.44 501.17 237.39 501.17 C233.97 501.19 230.55 501.2 227.12 501.21 C224.68 501.21 222.23 501.22 219.79 501.24 C214.52 501.26 209.24 501.28 203.97 501.29 C196.34 501.31 188.71 501.34 181.09 501.37 C168.71 501.42 156.34 501.46 143.97 501.5 C131.95 501.54 119.92 501.58 107.9 501.63 C107.16 501.63 106.42 501.63 105.66 501.64 C101.94 501.65 98.23 501.66 94.51 501.68 C63.68 501.79 32.84 501.9 2 502 C2 503.27 1.99 504.54 1.99 505.85 C1.91 536 1.82 566.15 1.72 596.3 C1.71 600 1.69 603.71 1.68 607.42 C1.68 608.16 1.68 608.9 1.68 609.66 C1.64 621.62 1.6 633.59 1.57 645.55 C1.54 657.82 1.5 670.09 1.46 682.36 C1.43 689.94 1.41 697.51 1.39 705.09 C1.38 710.89 1.36 716.69 1.33 722.49 C1.32 724.88 1.32 727.26 1.32 729.65 C1.31 732.89 1.3 736.14 1.28 739.38 C1.28 740.34 1.28 741.29 1.28 742.28 C1.28 743.14 1.27 744.01 1.26 744.9 C1.26 746.02 1.26 746.02 1.25 747.17 C1 749 1 749 -1 751 C-83.17 751 -165.34 751 -250 751 C-250 585.67 -250 420.34 -250 250 C-167.5 250 -85 250 0 250 C0 167.5 0 85 0 0 Z " fill="#FEFEFE" transform="translate(1074,817)"/>
<path d="M0 0 C1.24 0.02 1.24 0.02 2.5 0.04 C3.32 0.04 4.15 0.05 5 0.06 C5.64 0.07 6.28 0.09 6.93 0.1 C5.61 0.43 4.29 0.76 2.93 1.1 C2.93 2.09 2.93 3.08 2.93 4.1 C3.59 4.43 4.25 4.76 4.93 5.1 C3.61 5.43 2.29 5.76 0.93 6.1 C0.93 5.44 0.93 4.78 0.93 4.1 C0.27 4.1 -0.39 4.1 -1.07 4.1 C-1.4 4.76 -1.73 5.42 -2.07 6.1 C-2.45 4.44 -2.78 2.77 -3.07 1.1 C-2.07 0.1 -2.07 0.1 0 0 Z " fill="#171717" transform="translate(77.06640625,816.90234375)"/>
<path d="" fill="#FFFFFF" transform="translate(0,0)"/>
<path d="" fill="#000000" transform="translate(0,0)"/>
<path d="" fill="#000000" transform="translate(0,0)"/>
<path d="" fill="#FFFFFF" transform="translate(0,0)"/>
</svg>
