<?xml version="1.0" encoding="UTF-8"?>
<!-- Generator: https://ezgif.com/webp-to-svg -->
<svg version="1.1" xmlns="http://www.w3.org/2000/svg" width="50" height="50">
<path d="M0 0 C1.18 0.02 2.36 0.04 3.57 0.05 C4.93 0.09 4.93 0.09 6.31 0.12 C7.32 3.33 7.44 4.8 6.2 7.98 C5.39 9.42 5.39 9.42 4.56 10.88 C4.03 11.84 3.5 12.8 2.95 13.8 C1.31 16.12 1.31 16.12 -1.69 17.12 C-3.09 17.27 -4.51 17.37 -5.92 17.44 C-6.64 17.48 -7.36 17.52 -8.11 17.56 C-9.02 17.6 -9.93 17.64 -10.88 17.69 C-15.24 17.9 -15.24 17.9 -19.69 18.12 C-13.75 18.45 -7.81 18.79 -1.69 19.12 C-3.69 24.12 -3.69 24.12 -5.45 25.43 C-8.24 26.3 -10.62 26.35 -13.55 26.32 C-14.66 26.31 -15.78 26.31 -16.93 26.3 C-18.08 26.28 -19.24 26.27 -20.44 26.25 C-21.61 26.24 -22.79 26.23 -24 26.22 C-26.89 26.2 -29.79 26.17 -32.69 26.12 C-31.29 22.55 -29.75 19.26 -27.81 15.94 C-27.32 15.08 -26.83 14.22 -26.32 13.33 C-24.46 10.82 -23.65 10.06 -20.69 9.12 C-17.77 8.76 -14.87 8.62 -11.94 8.5 C-11.14 8.46 -10.35 8.42 -9.54 8.38 C-7.59 8.29 -5.64 8.21 -3.69 8.12 C-6.33 7.8 -8.97 7.46 -11.69 7.12 C-9.44 0.55 -6.7 -0.13 0 0 Z " fill="#0430E4" transform="translate(42.6875,11.875)"/>
<path d="M0 0 C1.46 0.03 1.46 0.03 2.96 0.05 C3.69 0.08 4.43 0.1 5.19 0.12 C4.11 3.04 3.41 4.9 1.19 7.12 C-0.22 7.35 -1.64 7.54 -3.06 7.69 C-6.04 8.29 -7.46 8.75 -9.56 10.97 C-11.59 14.05 -13.34 17.22 -15.04 20.5 C-16.19 22.58 -17.19 24.39 -18.81 26.12 C-22.63 26.62 -22.63 26.62 -25.81 26.12 C-25.22 21.59 -23.37 18.03 -21.12 14.12 C-20.8 13.52 -20.47 12.92 -20.13 12.3 C-15.6 4.31 -9.42 -0.23 0 0 Z " fill="#0359FB" transform="translate(25.8125,11.875)"/>
<path d="M0 0 C-0.19 2.81 -0.19 2.81 -1 6 C-3.44 7.62 -3.44 7.62 -6 9 C-7.33 11.07 -7.33 11.07 -8 13 C-8.66 13 -9.32 13 -10 13 C-10.33 14.32 -10.66 15.64 -11 17 C-12.65 17 -14.3 17 -16 17 C-14.65 13.41 -13.06 10.13 -11.12 6.81 C-10.63 5.95 -10.14 5.09 -9.63 4.21 C-6.78 0.35 -4.75 0 0 0 Z " fill="#0344FB" transform="translate(26,21)"/>
<path d="M0 0 C2.06 0.44 2.06 0.44 4 1 C3.55 6.85 0.96 11.08 -2 16 C-4.31 16 -6.62 16 -9 16 C-8.6 13.65 -8.32 12.31 -6.59 10.62 C-4.82 8.82 -3.94 7.15 -2.88 4.88 C-1.08 1.08 -1.08 1.08 0 0 Z " fill="#0522C5" transform="translate(46,12)"/>
<path d="M0 0 C1.22 0.14 2.43 0.29 3.69 0.44 C2.25 5 2.25 5 0 6.75 C-3.15 7.69 -6.05 7.56 -9.31 7.44 C-5.33 -0.07 -5.33 -0.07 0 0 Z " fill="#061FBE" transform="translate(37.3125,30.5625)"/>
</svg>
