<?xml version="1.0" encoding="UTF-8"?>
<!-- Generator: https://ezgif.com/png-to-svg -->
<svg version="1.1" xmlns="http://www.w3.org/2000/svg" width="512" height="512" viewBox="-12.046 -12.572 224.81 224.81" preserveAspectRatio="xMidYMid meet">
<path d="M0 0 C0.98 -0.01 1.97 -0.03 2.98 -0.04 C4.58 -0.05 4.58 -0.05 6.2 -0.06 C7.84 -0.07 7.84 -0.07 9.52 -0.09 C11.83 -0.1 14.15 -0.11 16.46 -0.12 C20 -0.14 23.54 -0.18 27.08 -0.22 C29.33 -0.23 31.58 -0.24 33.83 -0.25 C35.42 -0.28 35.42 -0.28 37.04 -0.3 C41.53 -0.29 44.36 -0.27 48.32 1.98 C50.51 4.61 50.87 6.54 50.64 9.95 C49.67 14.34 47.31 17.94 44.96 21.74 C43.86 23.58 42.76 25.43 41.66 27.27 C41.09 28.23 40.51 29.19 39.92 30.17 C38.1 33.26 36.36 36.38 34.63 39.52 C34.06 40.56 33.49 41.6 32.9 42.67 C31.79 44.68 30.7 46.69 29.6 48.71 C26.54 54.22 23.95 58.28 18.15 61.18 C15.77 61.27 13.42 61.3 11.04 61.29 C9.94 61.29 9.94 61.29 8.82 61.29 C6.4 61.29 3.97 61.28 1.55 61.27 C-0.13 61.27 -1.81 61.27 -3.49 61.27 C-7.91 61.27 -12.33 61.26 -16.76 61.25 C-21.27 61.24 -25.78 61.23 -30.29 61.23 C-39.14 61.22 -48 61.2 -56.85 61.18 C-57.12 62.06 -57.39 62.95 -57.66 63.86 C-58.85 67.18 -58.85 67.18 -61.85 72.18 C-36.77 72.51 -11.69 72.84 14.15 73.18 C10.79 83.25 5.63 90.22 -3.85 95.18 C-10.4 98.16 -16.82 98.32 -23.89 98.29 C-25.22 98.29 -25.22 98.29 -26.58 98.29 C-29.5 98.29 -32.42 98.28 -35.34 98.27 C-37.37 98.27 -39.41 98.27 -41.44 98.27 C-46.77 98.27 -52.11 98.26 -57.45 98.25 C-62.9 98.24 -68.35 98.23 -73.8 98.23 C-84.48 98.22 -95.17 98.2 -105.85 98.18 C-105.17 94.47 -104.26 91.74 -102.37 88.47 C-101.85 87.56 -101.33 86.66 -100.8 85.73 C-100.24 84.76 -99.68 83.8 -99.1 82.8 C-97.92 80.74 -96.73 78.68 -95.55 76.62 C-94.94 75.56 -94.33 74.5 -93.7 73.41 C-91.88 70.22 -90.1 67.01 -88.34 63.79 C-87.78 62.77 -87.21 61.74 -86.63 60.69 C-85.56 58.73 -84.49 56.77 -83.43 54.8 C-79.24 47.25 -74.98 40.73 -66.5 37.76 C-60.38 36.41 -53.99 36.82 -47.76 36.88 C-46.2 36.89 -44.64 36.89 -43.08 36.9 C-39.01 36.91 -34.93 36.94 -30.85 36.97 C-26.68 37 -22.51 37.02 -18.34 37.03 C-10.18 37.06 -2.02 37.11 6.15 37.18 C6.42 36.48 6.69 35.77 6.96 35.05 C8.21 32.03 9.69 29.1 11.15 26.18 C-1.06 25.85 -13.27 25.52 -25.85 25.18 C-18.32 6.34 -18.32 6.34 -9.61 1.88 C-6.25 0.54 -3.59 0.04 0 0 Z " fill="#0531DD" transform="translate(149.85107421875,50.822998046875)"/>
<path d="M0 0 C1.67 0.02 3.33 0.03 5 0.04 C9.02 0.07 13.04 0.13 17.06 0.19 C15.43 4.4 13.46 8.32 11.25 12.25 C10.75 13.17 10.75 13.17 10.25 14.1 C7.43 19.11 4.58 22.06 -0.67 24.41 C-5.65 25.59 -10.59 25.58 -15.69 25.67 C-25.8 26 -33.73 28.97 -40.94 36.19 C-42.27 38.1 -43.53 40.07 -44.73 42.06 C-45.24 42.91 -45.24 42.91 -45.76 43.78 C-49.24 49.6 -52.51 55.53 -55.75 61.48 C-57.47 64.63 -59.2 67.78 -60.93 70.93 C-61.27 71.55 -61.61 72.17 -61.96 72.81 C-65.04 78.39 -68.18 83.93 -71.38 89.44 C-71.83 90.22 -72.28 91.01 -72.75 91.82 C-75.8 97.05 -75.8 97.05 -76.94 98.19 C-79.01 98.28 -81.09 98.29 -83.16 98.29 C-85.05 98.28 -85.05 98.28 -86.98 98.28 C-88.32 98.27 -89.66 98.26 -91 98.25 C-92.34 98.24 -93.69 98.24 -95.03 98.24 C-98.33 98.22 -101.64 98.21 -104.94 98.19 C-104.36 94.61 -103.43 91.86 -101.67 88.7 C-101.2 87.84 -100.73 86.98 -100.24 86.1 C-99.73 85.18 -99.22 84.26 -98.69 83.31 C-98.15 82.35 -97.62 81.38 -97.07 80.38 C-95.37 77.31 -93.65 74.25 -91.94 71.19 C-91.39 70.22 -90.85 69.25 -90.29 68.25 C-87.6 63.45 -84.89 58.66 -82.16 53.88 C-80.01 50.11 -77.91 46.31 -75.84 42.49 C-67.87 27.94 -59.99 16.21 -44.94 8.19 C-43.65 7.48 -43.65 7.48 -42.33 6.76 C-28.85 0 -14.72 -0.24 0 0 Z " fill="#035AFB" transform="translate(104.9375,50.8125)"/>
<path d="M0 0 C1.34 -0 2.69 -0.01 4.03 -0.01 C13.86 0.05 13.86 0.05 16.12 2.31 C15.26 2.29 14.4 2.26 13.51 2.23 C10.28 2.15 7.04 2.08 3.8 2.04 C2.41 2.01 1.01 1.98 -0.38 1.94 C-10.02 1.64 -17.08 2.15 -24.49 8.75 C-29.5 14.03 -32.69 20.77 -36.12 27.12 C-36.78 28.33 -37.44 29.53 -38.1 30.73 C-39.41 33.13 -40.72 35.52 -42.03 37.92 C-44.59 42.63 -47.2 47.32 -49.81 52 C-50.61 53.44 -51.41 54.88 -52.21 56.32 C-52.76 57.31 -53.31 58.3 -53.88 59.31 C-52.99 59.3 -52.11 59.29 -51.21 59.28 C-50.05 59.27 -48.88 59.26 -47.69 59.25 C-46.54 59.24 -45.39 59.23 -44.21 59.21 C-41.28 59.3 -38.71 59.63 -35.88 60.31 C-35.88 60.64 -35.88 60.97 -35.88 61.31 C-42.8 61.31 -49.73 61.31 -56.88 61.31 C-56.04 57.13 -55.42 55.12 -53.39 51.6 C-52.87 50.7 -52.36 49.79 -51.82 48.86 C-51.26 47.9 -50.7 46.93 -50.12 45.94 C-48.94 43.88 -47.75 41.82 -46.57 39.76 C-45.65 38.17 -45.65 38.17 -44.72 36.55 C-42.9 33.36 -41.13 30.15 -39.37 26.93 C-38.8 25.9 -38.24 24.88 -37.66 23.82 C-36.58 21.87 -35.51 19.91 -34.45 17.94 C-30.36 10.55 -25.83 3.43 -17.34 0.76 C-11.61 -0.27 -5.8 -0.07 0 0 Z " fill="#0246FA" transform="translate(100.875,87.6875)"/>
<path d="M0 0 C10.56 0 21.12 0 32 0 C30.36 4.93 28.93 7.89 26 12 C25.67 11.01 25.34 10.02 25 9 C26.38 6.5 26.38 6.5 28 4 C28.33 3.01 28.66 2.02 29 1 C28.34 1.08 27.67 1.17 26.99 1.25 C18.22 2.27 18.22 2.27 14 1 C13.67 1.66 13.34 2.32 13 3 C12.67 2.67 12.34 2.34 12 2 C9.98 1.77 7.96 1.59 5.94 1.44 C4.83 1.35 3.73 1.27 2.59 1.18 C1.74 1.12 0.88 1.06 0 1 C0 0.67 0 0.34 0 0 Z " fill="#0717B8" transform="translate(132,124)"/>
<path d="M0 0 C0.66 0 1.32 0 2 0 C2.55 6.78 1.21 10.39 -2.5 16 C-2.93 16.68 -3.36 17.36 -3.8 18.06 C-4.85 19.72 -5.92 21.36 -7 23 C-7.66 22.34 -8.32 21.68 -9 21 C-8.34 21 -7.68 21 -7 21 C-6.9 20.29 -6.8 19.58 -6.69 18.84 C-5.68 14.67 -3.46 11.38 -1.28 7.72 C0.06 4.86 0.26 3.11 0 0 Z " fill="#041CBE" transform="translate(198,55)"/>
<path d="M0 0 C0.66 0 1.32 0 2 0 C0.62 5.52 -2.14 9.87 -6 14 C-6.66 14 -7.32 14 -8 14 C-7.34 12.35 -6.68 10.7 -6 9 C-5.34 9 -4.68 9 -4 9 C-3.71 8.26 -3.42 7.52 -3.12 6.75 C-2.18 4.43 -1.15 2.22 0 0 Z " fill="#051AB9" transform="translate(178,96)"/>
<path d="M0 0 C0.66 0 1.32 0 2 0 C0.91 3.78 0.09 6.47 -3 9 C-3 7.68 -3 6.36 -3 5 C-2.34 4.67 -1.68 4.34 -1 4 C-0.35 1.98 -0.35 1.98 0 0 Z " fill="#051CB9" transform="translate(188,78)"/>
<path d="M0 0 C0.66 0.66 1.32 1.32 2 2 C0.68 4.31 -0.64 6.62 -2 9 C-2.66 8.34 -3.32 7.68 -4 7 C-2.68 4.69 -1.36 2.38 0 0 Z " fill="#051FBA" transform="translate(183,87)"/>
</svg>
