<?xml version="1.0" encoding="UTF-8"?>
<svg version="1.1" xmlns="http://www.w3.org/2000/svg" width="50" height="50">
<path d="M0 0 C8.91 0 17.82 0 27 0 C24 12 24 12 22 17 C26.29 17 30.58 17 35 17 C35.33 15.02 35.66 13.04 36 11 C36.33 10.34 36.66 9.68 37 9 C39 9 39 9 40.6875 10.4375 C43.49004394 15.9091334 40.93357727 22.58025836 39.15234375 28.12890625 C38.42331045 30.27659895 37.68485529 32.42111411 36.9375 34.5625 C36.56044922 35.66658203 36.18339844 36.77066406 35.79492188 37.90820312 C34.87147527 40.60840775 33.93970282 43.30541892 33 46 C29.14183129 44.23651095 27.26119193 42.16555113 24.625 38.8125 C23.84253906 37.83152344 23.06007813 36.85054687 22.25390625 35.83984375 C21.51011719 34.90269531 20.76632813 33.96554688 20 33 C15.73471982 27.22819972 15.73471982 27.22819972 9.3984375 24.68359375 C8.40070312 24.60238281 7.40296875 24.52117188 6.375 24.4375 C4.60125 24.293125 2.8275 24.14875 1 24 C0.01 27.96 -0.98 31.92 -2 36 C-6 34 -6 34 -8 31 C-7.72073573 23.73196824 -5.72967907 17.29848998 -3.4375 10.4375 C-1.7359375 5.2709375 -1.7359375 5.2709375 0 0 Z M6 7 C5.34 10.3 4.68 13.6 4 17 C7.3 17 10.6 17 14 17 C16.29045014 12.18790099 16.29045014 12.18790099 17 7 C13.37 7 9.74 7 6 7 Z M21 24 C21.928125 25.27875 22.85625 26.5575 23.8125 27.875 C24.59560547 28.95394531 24.59560547 28.95394531 25.39453125 30.0546875 C27.03272777 32.23028655 27.03272777 32.23028655 30 34 C30.66 30.7 31.32 27.4 32 24 C28.37 24 24.74 24 21 24 Z " fill="#B04DC4" transform="translate(8,2)"/>
</svg>
