<?xml version="1.0" encoding="UTF-8"?>
<!-- Generator: https://ezgif.com/png-to-svg -->
<svg version="1.1" xmlns="http://www.w3.org/2000/svg" width="512" height="512" viewBox="24.16 -95.94 463.68 463.68" preserveAspectRatio="xMidYMid meet">
<path d="M0 0 C4.67 -0.11 8.87 0.21 13.44 1.15 C14.69 1.41 15.94 1.67 17.23 1.93 C18.6 2.22 19.97 2.51 21.34 2.79 C22.8 3.1 24.26 3.4 25.72 3.7 C29.68 4.51 33.63 5.34 37.59 6.17 C41.78 7.04 45.97 7.9 50.16 8.77 C58.15 10.42 66.13 12.08 74.11 13.74 C83.02 15.6 91.93 17.44 100.84 19.29 C106.05 20.37 111.25 21.45 116.46 22.53 C120.72 23.41 124.98 24.29 129.24 25.18 C144.92 28.43 160.61 31.68 176.26 35.08 C178.3 35.52 180.34 35.96 182.38 36.4 C185.92 37.16 189.45 37.94 192.98 38.73 C194.49 39.06 196.01 39.39 197.52 39.71 C198.77 39.99 200.01 40.26 201.3 40.55 C209.98 41.6 218.56 39.18 227.03 37.4 C228.31 37.13 229.6 36.87 230.92 36.59 C234.42 35.87 237.93 35.14 241.44 34.4 C245.17 33.63 248.9 32.85 252.64 32.08 C259.76 30.6 266.88 29.12 274.01 27.63 C281.9 25.99 289.79 24.35 297.69 22.71 C302.33 21.75 306.97 20.78 311.61 19.82 C315.44 19.02 319.27 18.23 323.1 17.43 C327.63 16.49 332.15 15.55 336.67 14.61 C337.41 14.46 338.14 14.31 338.89 14.15 C348.01 12.25 357.12 10.35 366.23 8.42 C371.2 7.37 376.17 6.33 381.15 5.28 C383.43 4.8 385.71 4.32 387.99 3.83 C391.08 3.18 394.18 2.52 397.28 1.87 C398.17 1.68 399.06 1.49 399.98 1.29 C404.76 0.3 409.12 -0.2 414 0 C409.37 8.4 404.17 16.34 398.83 24.3 C393.91 31.62 389.07 38.99 384.25 46.38 C378.22 55.62 372.15 64.83 366 74 C375.9 76.47 375.9 76.47 386 79 C384.57 82.57 383.49 85.02 381.42 88.09 C380.91 88.86 380.39 89.64 379.86 90.43 C379.03 91.67 379.03 91.67 378.17 92.94 C377.59 93.81 377 94.69 376.4 95.59 C374.52 98.4 372.63 101.2 370.75 104 C369.53 105.82 368.31 107.65 367.09 109.47 C364.63 113.14 362.17 116.8 359.71 120.47 C352.05 131.88 344.45 143.32 336.84 154.76 C326.69 170.02 316.5 185.25 306.28 200.45 C304.97 202.39 303.67 204.34 302.36 206.28 C300.53 209.01 298.7 211.74 296.86 214.46 C296.31 215.28 295.77 216.1 295.2 216.95 C294.69 217.7 294.18 218.46 293.65 219.24 C293.21 219.89 292.77 220.55 292.31 221.23 C289.56 224.94 286.58 226.96 282.57 229.23 C281.46 229.86 280.35 230.49 279.2 231.14 C277.99 231.82 276.78 232.5 275.56 233.19 C274.3 233.9 273.04 234.62 271.78 235.33 C269.16 236.82 266.54 238.3 263.92 239.78 C258.43 242.88 252.96 246.01 247.49 249.13 C245.75 250.12 244.01 251.11 242.28 252.1 C236.5 255.39 230.76 258.73 225.08 262.19 C223.98 262.85 222.88 263.51 221.75 264.19 C219.68 265.45 217.61 266.72 215.55 268.01 C214.63 268.57 213.7 269.12 212.75 269.7 C211.95 270.19 211.15 270.69 210.33 271.2 C208 272 208 272 205.55 271.33 C204.71 270.89 203.87 270.45 203 270 C201.68 269.32 201.68 269.32 200.33 268.62 C199.38 268.09 198.43 267.56 197.45 267.02 C196.37 266.42 195.29 265.82 194.18 265.2 C193.02 264.55 191.85 263.9 190.69 263.25 C190.09 262.92 189.49 262.59 188.88 262.24 C179.51 257.02 170.21 251.67 160.96 246.22 C155.72 243.14 150.45 240.12 145.12 237.19 C143.98 236.56 142.85 235.93 141.67 235.29 C139.49 234.08 137.3 232.89 135.11 231.7 C134.12 231.16 133.13 230.62 132.11 230.06 C131.24 229.59 130.38 229.12 129.48 228.63 C123.3 224.57 119.71 218.86 115.77 212.77 C115.17 211.86 114.58 210.96 113.98 210.03 C112.71 208.11 111.46 206.18 110.2 204.25 C106.93 199.22 103.63 194.2 100.34 189.18 C99.37 187.7 99.37 187.7 98.39 186.19 C93.6 178.89 88.75 171.64 83.81 164.44 C77.67 155.47 71.62 146.45 65.61 137.4 C60.6 129.86 55.54 122.36 50.45 114.87 C49.12 112.9 47.78 110.94 46.45 108.97 C44.45 106.02 42.45 103.08 40.44 100.14 C38.56 97.38 36.68 94.61 34.81 91.85 C34.24 91.01 33.66 90.18 33.08 89.32 C32.55 88.55 32.03 87.77 31.49 86.97 C31.03 86.3 30.57 85.63 30.1 84.93 C29 83 29 83 28 79 C34.6 77.35 41.2 75.7 48 74 C46.7 72.06 45.4 70.12 44.06 68.12 C37.44 58.21 30.94 48.22 24.43 38.24 C22.1 34.69 19.78 31.14 17.45 27.59 C15.9 25.23 14.35 22.87 12.8 20.51 C11.72 18.85 10.62 17.2 9.53 15.54 C6.19 10.44 2.94 5.34 0 0 Z M33 23 C39.55 33.43 46.35 43.71 53.12 54 C53.75 54.95 54.37 55.89 55.02 56.87 C67.82 76.31 80.81 95.62 93.87 114.89 C94.35 115.61 94.84 116.33 95.34 117.07 C95.81 117.74 96.27 118.41 96.74 119.1 C98 121 98 121 99 122.86 C99.97 124.76 99.97 124.76 102 127 C107.3 127.78 112.56 126.5 117.78 125.47 C118.59 125.31 119.4 125.16 120.24 125 C122.8 124.5 125.37 124 127.94 123.5 C129.69 123.16 131.44 122.82 133.19 122.49 C137.46 121.67 141.73 120.83 146 120 C140.58 111.35 134.89 102.93 129.08 94.55 C128.44 93.61 127.79 92.68 127.13 91.72 C126.55 90.88 125.98 90.05 125.38 89.19 C124 87 124 87 123 84 C124.16 84.23 124.16 84.23 125.34 84.47 C144.11 88.21 162.88 91.95 181.65 95.68 C190.73 97.49 199.81 99.3 208.88 101.11 C216.8 102.69 224.71 104.26 232.62 105.83 C236.81 106.67 241 107.5 245.19 108.34 C249.14 109.13 253.08 109.91 257.03 110.69 C258.47 110.98 259.92 111.27 261.36 111.56 C268.23 112.93 275.04 114.27 282 115 C282 115.66 282 116.32 282 117 C281.41 117.04 280.81 117.08 280.2 117.12 C271.27 117.8 262.52 119.36 253.72 120.93 C252 121.23 250.27 121.53 248.55 121.83 C243.9 122.65 239.26 123.47 234.61 124.3 C230.73 124.98 226.85 125.67 222.97 126.35 C213.81 127.97 204.66 129.59 195.51 131.21 C186.07 132.89 176.62 134.55 167.17 136.21 C159.06 137.64 150.94 139.07 142.82 140.51 C137.98 141.37 133.13 142.23 128.28 143.08 C123.74 143.88 119.19 144.68 114.65 145.49 C112.97 145.79 111.3 146.08 109.63 146.38 C107.36 146.77 105.08 147.18 102.81 147.59 C101.54 147.81 100.26 148.04 98.95 148.27 C95.9 148.76 95.9 148.76 94 151 C94.45 151.68 94.9 152.35 95.37 153.05 C108.17 172.25 108.17 172.25 120.97 191.46 C121.45 192.12 121.94 192.78 122.43 193.47 C123.77 195.63 124.56 197.43 125.42 199.79 C127.41 204.51 129.59 208.22 134 211 C143.65 213.76 154.28 213.05 164.23 212.88 C168.27 212.83 172.31 212.85 176.35 212.87 C183.13 212.88 189.91 212.82 196.69 212.74 C204.52 212.63 212.34 212.63 220.17 212.67 C227.71 212.71 235.26 212.68 242.81 212.63 C246.02 212.61 249.22 212.61 252.42 212.62 C256.2 212.64 259.97 212.6 263.74 212.52 C265.12 212.5 266.5 212.5 267.88 212.51 C275.93 212.63 275.93 212.63 282.56 208.59 C284.6 205.81 286.33 203.02 288 200 C288.87 198.69 289.75 197.39 290.65 196.1 C291.42 194.94 292.18 193.78 292.94 192.62 C293.55 191.68 293.55 191.68 294.18 190.72 C295.03 189.43 295.88 188.13 296.72 186.83 C298.02 184.84 299.33 182.85 300.64 180.86 C301.47 179.59 302.3 178.32 303.12 177.05 C303.71 176.16 303.71 176.16 304.31 175.25 C306.19 172.82 306.19 172.82 307 170 C281.59 170 256.18 170 230 170 C230 169.34 230 168.68 230 168 C231.28 167.91 232.55 167.81 233.87 167.71 C242.03 166.89 250.05 165.17 258.08 163.58 C259.37 163.32 259.37 163.32 260.68 163.06 C265.2 162.17 269.71 161.27 274.23 160.36 C278.89 159.43 283.55 158.52 288.21 157.62 C291.8 156.91 295.4 156.19 298.99 155.47 C300.71 155.13 302.43 154.79 304.15 154.46 C306.55 154 308.94 153.51 311.34 153.02 C312.04 152.89 312.75 152.76 313.48 152.63 C320.23 151.19 323.47 147.15 327.1 141.58 C327.66 140.74 328.21 139.9 328.78 139.03 C329.37 138.13 329.95 137.23 330.55 136.31 C331.17 135.37 331.79 134.43 332.42 133.46 C334.39 130.45 336.35 127.45 338.31 124.44 C339.62 122.44 340.93 120.45 342.23 118.45 C344.13 115.56 346.02 112.67 347.91 109.78 C351.81 103.8 355.76 97.85 359.77 91.93 C361.09 90.24 361.09 90.24 361 89 C360.39 88.88 359.78 88.75 359.15 88.62 C229.56 62.35 229.56 62.35 168.56 49.92 C165.25 49.25 161.95 48.58 158.65 47.91 C137.11 43.52 115.56 39.12 94.03 34.68 C91.19 34.1 88.34 33.51 85.5 32.92 C83.67 32.55 81.84 32.17 80.01 31.79 C79.12 31.61 78.24 31.43 77.32 31.24 C72.21 30.18 67.09 29.13 61.98 28.07 C58.92 27.43 55.85 26.8 52.79 26.17 C51.38 25.88 49.98 25.59 48.58 25.29 C46.69 24.9 44.79 24.51 42.9 24.12 C41.85 23.9 40.8 23.68 39.72 23.46 C36.8 22.89 36.8 22.89 33 23 Z " fill="#FF0521" transform="translate(49,0)"/>
</svg>
