<?xml version="1.0" encoding="UTF-8"?>
<!-- Generator: https://ezgif.com/webp-to-svg -->
<svg version="1.1" xmlns="http://www.w3.org/2000/svg" width="50" height="50">
<path d="M0 0 C4.06 -0.1 8.11 -0.17 12.17 -0.22 C13.55 -0.24 14.93 -0.27 16.31 -0.3 C18.29 -0.35 20.28 -0.37 22.27 -0.39 C24.06 -0.42 24.06 -0.42 25.88 -0.45 C29 0 29 0 31.41 1.85 C33.33 4.44 33.35 5.84 33 9 C34.14 9.15 34.14 9.15 35.31 9.31 C38.38 10.1 39.2 10.43 41 13 C41.38 15.73 41.56 18.14 41.56 20.88 C41.6 21.58 41.64 22.29 41.67 23.02 C41.7 25.94 41.56 28.29 39.71 30.63 C38.11 32.02 38.11 32.02 35 34 C32.62 33.81 32.62 33.81 31 33 C30.65 34.14 30.65 34.14 30.29 35.29 C28.03 40.03 23.63 41.88 19 44 C13.32 45.12 9.09 43.15 4.11 40.51 C2 39 2 39 0.38 35.69 C0.25 34.8 0.13 33.91 0 33 C-0.74 33.06 -1.49 33.12 -2.25 33.19 C-5.67 32.95 -6.67 32.52 -9 30 C-9.41 27.03 -9.56 24.52 -9.5 21.56 C-9.52 20.8 -9.53 20.03 -9.55 19.25 C-9.52 15.48 -9.43 13.58 -7.14 10.48 C-4.56 8.69 -3.08 8.66 0 9 C0 6.03 0 3.06 0 0 Z " fill="#491C20" transform="translate(9,3)"/>
<path d="M0 0 C4.06 -0.1 8.11 -0.17 12.17 -0.22 C13.55 -0.24 14.93 -0.27 16.31 -0.3 C18.29 -0.35 20.28 -0.37 22.27 -0.39 C24.06 -0.42 24.06 -0.42 25.88 -0.45 C29 0 29 0 31.41 1.85 C33.33 4.44 33.35 5.84 33 9 C34.14 9.15 34.14 9.15 35.31 9.31 C38.38 10.1 39.2 10.43 41 13 C41.38 15.73 41.56 18.14 41.56 20.88 C41.6 21.58 41.64 22.29 41.67 23.02 C41.7 25.94 41.56 28.29 39.71 30.63 C38.11 32.02 38.11 32.02 35 34 C32.62 33.81 32.62 33.81 31 33 C30.65 34.14 30.65 34.14 30.29 35.29 C28.03 40.03 23.63 41.88 19 44 C13.32 45.12 9.09 43.15 4.11 40.51 C2 39 2 39 0.38 35.69 C0.25 34.8 0.13 33.91 0 33 C-0.74 33.06 -1.49 33.12 -2.25 33.19 C-5.67 32.95 -6.67 32.52 -9 30 C-9.41 27.03 -9.56 24.52 -9.5 21.56 C-9.52 20.8 -9.53 20.03 -9.55 19.25 C-9.52 15.48 -9.43 13.58 -7.14 10.48 C-4.56 8.69 -3.08 8.66 0 9 C0 6.03 0 3.06 0 0 Z M2 2 C2 4.97 2 7.94 2 11 C1.07 10.94 0.14 10.88 -0.81 10.81 C-3.87 10.74 -3.87 10.74 -5.69 12.03 C-7.71 15.06 -7.32 18.18 -7.19 21.69 C-7.17 22.39 -7.16 23.09 -7.15 23.81 C-7.11 25.54 -7.06 27.27 -7 29 C-5.93 29.39 -4.86 29.78 -3.75 30.19 C-0.11 31.72 1.77 33.7 4 37 C4 33.4 3.1 32.78 1 30 C0.63 28.68 0.29 27.34 0 26 C0.6 26.2 1.21 26.41 1.83 26.62 C2.63 26.89 3.43 27.16 4.25 27.44 C5.04 27.7 5.83 27.97 6.64 28.25 C8.75 28.92 10.85 29.49 13 30 C12.01 30.99 11.02 31.98 10 33 C11.98 33.99 13.96 34.98 16 36 C15.34 36.8 14.68 37.61 14 38.44 C11.9 40.59 11.9 40.59 12 42 C18.97 41.56 23.45 40.83 28.31 35.44 C30.19 33.22 30.19 33.22 30 31 C31.67 31.06 31.67 31.06 33.38 31.12 C37.04 31.41 37.04 31.41 39 29 C39.2 26.48 39.28 24.08 39.25 21.56 C39.26 20.88 39.27 20.2 39.27 19.5 C39.26 15.79 39.11 14.16 37 11 C33.92 10.75 33.92 10.75 31 11 C31.09 9.33 31.09 9.33 31.19 7.62 C31.13 6.43 31.06 5.23 31 4 C27.51 1.67 26.14 1.76 22.02 1.8 C20.86 1.81 19.69 1.82 18.49 1.82 C17.28 1.84 16.06 1.86 14.81 1.88 C12.97 1.89 12.97 1.89 11.1 1.9 C8.06 1.93 5.03 1.96 2 2 Z " fill="#DFDFDF" transform="translate(9,3)"/>
<path d="M0 0 C0.33 0 0.66 0 1 0 C1 1.98 1 3.96 1 6 C1.93 5.96 2.86 5.92 3.81 5.88 C7 6 7 6 10 8 C10.28 10.59 10.37 12.91 10.31 15.5 C10.32 16.19 10.32 16.88 10.32 17.59 C10.27 22.73 10.27 22.73 8 25 C4.37 25.12 4.37 25.12 1 25 C0.75 25.74 0.5 26.48 0.25 27.25 C-1.64 31.41 -3.67 33.42 -7.88 35.25 C-11.04 36.01 -13.76 36.15 -17 36 C-14.12 31.12 -14.12 31.12 -13 30 C-14.98 29.01 -16.96 28.02 -19 27 C-18.01 26.01 -17.02 25.02 -16 24 C-19.63 23.01 -23.26 22.02 -27 21 C-27 20.67 -27 20.34 -27 20 C-23.04 20 -19.08 20 -15 20 C-14.67 19.34 -14.34 18.68 -14 18 C-12.02 18.33 -10.04 18.66 -8 19 C-8 16.69 -8 14.38 -8 12 C-7.67 12 -7.34 12 -7 12 C-7 14.64 -7 17.28 -7 20 C-6.26 19.96 -5.52 19.92 -4.75 19.88 C-2 20 -2 20 0.06 21.06 C1.99 22.22 1.99 22.22 4.25 21.62 C4.83 21.42 5.41 21.21 6 21 C6.25 18.08 6.25 18.08 6 15 C5.01 14.34 4.02 13.68 3 13 C3.33 12.34 3.66 11.68 4 11 C5.48 11.5 5.48 11.5 7 12 C6.51 10.52 6.51 10.52 6 9 C2.99 7.77 2.99 7.77 0 7 C0 4.69 0 2.38 0 0 Z " fill="#401215" transform="translate(38,9)"/>
<path d="M0 0 C1.98 0 3.96 0 6 0 C6.33 1.65 6.66 3.3 7 5 C7.33 3.35 7.66 1.7 8 0 C9.98 0 11.96 0 14 0 C14 0.66 14 1.32 14 2 C13.01 2 12.02 2 11 2 C11 2.66 11 3.32 11 4 C11.99 4 12.98 4 14 4 C14 4.66 14 5.32 14 6 C13.01 6 12.02 6 11 6 C12.32 6.33 13.64 6.66 15 7 C15 7.66 15 8.32 15 9 C15.66 9 16.32 9 17 9 C17 6.36 17 3.72 17 1 C17.33 1 17.66 1 18 1 C18 3.64 18 6.28 18 9 C18.66 9 19.32 9 20 9 C20 6.36 20 3.72 20 1 C20.99 1 21.98 1 23 1 C23 3.97 23 6.94 23 10 C16.73 10 10.46 10 4 10 C4.33 10.66 4.66 11.32 5 12 C5.78 11.84 6.57 11.67 7.38 11.5 C10 11 10 11 12 11 C12 13.97 12 16.94 12 20 C8.71 21.1 6.26 21.1 2.81 21.06 C1.18 21.05 1.18 21.05 -0.48 21.04 C-1.31 21.02 -2.14 21.01 -3 21 C-3.33 19.68 -3.66 18.36 -4 17 C-3.01 17 -2.02 17 -1 17 C0.23 11.33 0.09 5.76 0 0 Z " fill="#B0B1B1" transform="translate(14,8)"/>
<path d="M0 0 C8.58 0 17.16 0 26 0 C26 0.33 26 0.66 26 1 C17.75 1 9.5 1 1 1 C2.01 2.23 2.01 2.23 4.07 2.1 C6.38 2.07 8.69 2.03 11 2 C11 5.3 11 8.6 11 12 C9 8 9 8 9 4 C6.03 3.5 6.03 3.5 3 3 C3.08 3.77 3.17 4.55 3.25 5.34 C3.85 11.46 4.05 16.94 3 23 C2.67 22.01 2.34 21.02 2 20 C1.01 20 0.02 20 -1 20 C-0.67 21.32 -0.34 22.64 0 24 C-0.66 24 -1.32 24 -2 24 C-1.55 25.09 -1.09 26.19 -0.62 27.31 C-0.37 27.93 -0.11 28.54 0.15 29.18 C1.07 31.27 1.07 31.27 3 34 C2.01 34.49 2.01 34.49 1 35 C0.47 33.86 0.47 33.86 -0.06 32.69 C-2.66 29.09 -4.87 28.48 -9 27 C-9.08 24.56 -9.14 22.13 -9.19 19.69 C-9.21 19 -9.24 18.31 -9.26 17.6 C-9.34 12.51 -9.34 12.51 -7.69 10.03 C-5.15 8.48 -2.9 8.81 0 9 C0 6.03 0 3.06 0 0 Z " fill="#2D1718" transform="translate(11,5)"/>
<path d="M0 0 C1.06 -0 2.13 -0.01 3.22 -0.01 C5.94 0.12 5.94 0.12 7.94 1.12 C7.64 4.58 6.97 6.08 4.75 8.81 C0.05 12.68 -4.07 13.41 -10.06 13.12 C-7.19 8.25 -7.19 8.25 -6.06 7.12 C-8.04 6.13 -10.02 5.14 -12.06 4.12 C-8.42 0.13 -5.26 -0.01 0 0 Z " fill="#861D26" transform="translate(31.0625,31.875)"/>
<path d="M0 0 C5.28 0.99 10.56 1.98 16 3 C15.01 3.66 14.02 4.32 13 5 C12.34 5.66 11.68 6.32 11 7 C12.98 7.99 14.96 8.98 17 10 C16.01 10.99 15.02 11.98 14 13 C14.66 13.66 15.32 14.32 16 15 C6.75 15.31 6.75 15.31 4 13 C3.61 11.35 3.28 9.68 3 8 C2.48 7.32 1.97 6.64 1.44 5.94 C0 4 0 4 0 0 Z " fill="#CFCACA" transform="translate(9,29)"/>
<path d="M0 0 C0.33 1.32 0.66 2.64 1 4 C6.94 4 12.88 4 19 4 C20.28 7.85 20.07 10.95 20 15 C16.17 15.09 12.73 14.88 9 14 C9 11.03 9 8.06 9 5 C8.34 5 7.68 5 7 5 C6.67 5.99 6.34 6.98 6 8 C5.01 7.01 4.02 6.02 3 5 C3 7.64 3 10.28 3 13 C2.67 13 2.34 13 2 13 C1.86 11.87 1.71 10.73 1.56 9.56 C1.39 6.19 1.39 6.19 0 5 C-0.04 3.33 -0.04 1.67 0 0 Z " fill="#727272" transform="translate(17,14)"/>
<path d="M0 0 C1.98 0 3.96 0 6 0 C6 0.66 6 1.32 6 2 C5.01 2 4.02 2 3 2 C3 2.66 3 3.32 3 4 C3.99 4 4.98 4 6 4 C6 4.66 6 5.32 6 6 C5.01 6 4.02 6 3 6 C4.32 6.33 5.64 6.66 7 7 C7 7.66 7 8.32 7 9 C7.66 9 8.32 9 9 9 C9 6.36 9 3.72 9 1 C9.33 1 9.66 1 10 1 C10 3.64 10 6.28 10 9 C10.66 9 11.32 9 12 9 C12 6.36 12 3.72 12 1 C12.99 1 13.98 1 15 1 C15 3.97 15 6.94 15 10 C10.38 10 5.76 10 1 10 C0.67 6.7 0.34 3.4 0 0 Z " fill="#E1E1E1" transform="translate(22,8)"/>
<path d="M0 0 C-1.68 3.74 -3.69 5.56 -7 8 C-7.66 7.67 -8.32 7.34 -9 7 C-8.67 6.67 -8.34 6.34 -8 6 C-9.09 6.06 -10.19 6.12 -11.31 6.19 C-15 6 -15 6 -16.94 4.5 C-17.29 4.01 -17.64 3.51 -18 3 C-12.28 -0.82 -6.7 -0.29 0 0 Z " fill="#DC2340" transform="translate(37,32)"/>
<path d="M0 0 C1.98 0 3.96 0 6 0 C6.33 1.32 6.66 2.64 7 4 C5.68 4.33 4.36 4.66 3 5 C4.32 5.66 5.64 6.32 7 7 C7 8.98 7 10.96 7 13 C5.19 13.62 5.19 13.62 3 14 C2.01 13.34 1.02 12.68 0 12 C0 11.01 0 10.02 0 9 C1.32 8.67 2.64 8.34 4 8 C2.68 7.67 1.36 7.34 0 7 C0 4.69 0 2.38 0 0 Z " fill="#E1E1E1" transform="translate(38,17)"/>
<path d="M0 0 C1.45 0.03 1.45 0.03 2.94 0.06 C3.27 1.38 3.6 2.7 3.94 4.06 C2.62 4.39 1.3 4.72 -0.06 5.06 C-0.39 8.03 -0.72 11 -1.06 14.06 C-2.05 13.73 -3.04 13.4 -4.06 13.06 C-4.09 11.08 -4.11 9.1 -4.12 7.12 C-4.14 6.02 -4.15 4.92 -4.16 3.79 C-4.02 -0.08 -3.91 0.08 0 0 Z " fill="#D4D4D4" transform="translate(9.0625,16.9375)"/>
<path d="M0 0 C2.64 0 5.28 0 8 0 C7.01 0.49 7.01 0.49 6 1 C6 3.64 6 6.28 6 9 C4.35 9 2.7 9 1 9 C1 8.34 1 7.68 1 7 C-0.32 7.33 -1.64 7.66 -3 8 C-3 7.34 -3 6.68 -3 6 C-2.01 6 -1.02 6 0 6 C0 5.34 0 4.68 0 4 C-0.99 4 -1.98 4 -3 4 C-3 3.34 -3 2.68 -3 2 C-2.01 2 -1.02 2 0 2 C0 1.34 0 0.68 0 0 Z " fill="#6D6D6D" transform="translate(28,8)"/>
<path d="M0 0 C1.67 -0.04 3.33 -0.04 5 0 C6 1 6 1 6.1 2.85 C6.07 4.9 6.03 6.95 6 9 C4.02 9 2.04 9 0 9 C0 6.03 0 3.06 0 0 Z " fill="#C1C2C2" transform="translate(31,20)"/>
<path d="M0 0 C0 2.97 0 5.94 0 9 C-1.65 9 -3.3 9 -5 9 C-5 6.36 -5 3.72 -5 1 C-2 0 -2 0 0 0 Z " fill="#E3E3E3" transform="translate(26,19)"/>
<path d="M0 0 C1.67 2.96 2.33 5.37 2.62 8.75 C2.7 9.55 2.77 10.35 2.85 11.17 C2.93 12.08 2.93 12.08 3 13 C2.01 13.66 1.02 14.32 0 15 C-0.79 12.44 -0.98 10.59 -0.88 7.88 C-0.94 6.45 -0.94 6.45 -1 5 C-1.99 4.34 -2.98 3.68 -4 3 C-3.67 2.34 -3.34 1.68 -3 1 C-2.01 1.33 -1.02 1.66 0 2 C0 1.34 0 0.68 0 0 Z " fill="#542B2F" transform="translate(45,19)"/>
<path d="M0 0 C1.98 0 3.96 0 6 0 C5.67 0.66 5.34 1.32 5 2 C4.34 2 3.68 2 3 2 C3 4.64 3 7.28 3 10 C2.01 10 1.02 10 0 10 C0 6.7 0 3.4 0 0 Z " fill="#E2E2E2" transform="translate(14,8)"/>
<path d="M0 0 C0.33 0 0.66 0 1 0 C1.12 1 1.24 2 1.37 3.03 C1.53 4.32 1.7 5.61 1.88 6.94 C2.04 8.23 2.2 9.51 2.37 10.84 C2.58 11.88 2.78 12.93 3 14 C3.66 14.33 4.32 14.66 5 15 C1.13 14.12 1.13 14.12 0 13 C-0.07 10.81 -0.08 8.62 -0.06 6.44 C-0.05 5.24 -0.04 4.04 -0.04 2.81 C-0.02 1.88 -0.01 0.95 0 0 Z " fill="#69171E" transform="translate(3,18)"/>
<path d="M0 0 C0.66 0.66 1.32 1.32 2 2 C3.95 2.59 3.95 2.59 6 3 C9 4 9 4 11 6 C2.43 6.29 2.43 6.29 -1 4 C-0.67 2.68 -0.34 1.36 0 0 Z " fill="#9C8E8E" transform="translate(14,38)"/>
<path d="M0 0 C1.32 1.65 2.64 3.3 4 5 C0.8 6.07 -0.89 5.95 -4.19 5.56 C-5.09 5.46 -5.99 5.36 -6.92 5.25 C-7.61 5.17 -8.29 5.09 -9 5 C-9 4.67 -9 4.34 -9 4 C-6.36 3.67 -3.72 3.34 -1 3 C-0.67 2.01 -0.34 1.02 0 0 Z " fill="#641E24" transform="translate(37,26)"/>
<path d="M0 0 C0.33 0.66 0.66 1.32 1 2 C2.32 1.67 3.64 1.34 5 1 C4.6 3.89 4.21 4.82 1.94 6.75 C1.3 7.16 0.66 7.57 0 8 C0 5.36 0 2.72 0 0 Z " fill="#050505" transform="translate(8,20)"/>
<path d="M0 0 C1.98 0 3.96 0 6 0 C6.33 1.32 6.66 2.64 7 4 C5.35 4.33 3.7 4.66 2 5 C2 3.68 2 2.36 2 1 C1.34 0.67 0.68 0.34 0 0 Z " fill="#D5D5D5" transform="translate(38,17)"/>
<path d="M0 0 C0.99 0 1.98 0 3 0 C3 2.64 3 5.28 3 8 C2.34 8 1.68 8 1 8 C0 1.12 0 1.12 0 0 Z " fill="#EBEBEB" transform="translate(16,20)"/>
</svg>
