<?xml version="1.0" encoding="UTF-8"?>
<!-- Generator: https://ezgif.com/png-to-svg -->
<svg version="1.1" xmlns="http://www.w3.org/2000/svg" width="512" height="512" viewBox="-38.079 -75.599 675.528 675.528" preserveAspectRatio="xMidYMid meet">
<path d="M0 0 C43.13 -0.23 86.25 -0.41 129.38 -0.51 C134.47 -0.52 139.57 -0.54 144.66 -0.55 C145.67 -0.55 146.69 -0.55 147.73 -0.56 C164.14 -0.6 180.55 -0.68 196.97 -0.77 C213.81 -0.87 230.65 -0.92 247.49 -0.94 C257.88 -0.95 268.27 -1 278.67 -1.08 C285.79 -1.13 292.92 -1.15 300.05 -1.14 C304.16 -1.13 308.27 -1.14 312.38 -1.19 C316.15 -1.24 319.92 -1.24 323.69 -1.21 C325.69 -1.2 327.68 -1.25 329.68 -1.29 C336.9 -1.17 340.71 -0.05 346.14 4.85 C347.77 6.55 349.4 8.27 351 10 C352.34 11.21 353.69 12.4 355.06 13.56 C359.76 17.65 364.38 21.83 369 26 C370.65 27.48 372.29 28.96 373.94 30.44 C374.71 31.15 375.47 31.86 376.26 32.59 C378.95 35.03 378.95 35.03 381.86 37.1 C386.15 40.42 389.45 43.06 390.96 48.4 C391.27 52.36 391.24 56.23 391.07 60.2 C391.05 61.64 391.04 63.08 391.03 64.52 C390.99 68.29 390.88 72.05 390.76 75.82 C390.64 79.67 390.59 83.53 390.54 87.38 C390.42 94.92 390.23 102.46 390 110 C391.45 110.09 391.45 110.09 392.93 110.18 C400.32 110.65 407.68 111.2 415.04 112.12 C415.89 112.23 416.75 112.33 417.63 112.44 C419.4 112.66 421.17 112.88 422.95 113.1 C425.65 113.44 428.36 113.77 431.07 114.1 C432.81 114.31 434.55 114.53 436.29 114.75 C437.09 114.84 437.89 114.94 438.72 115.04 C446.4 116.02 450.55 118.06 455.75 123.94 C456.54 124.81 456.54 124.81 457.34 125.7 C461.31 130.12 465.07 134.69 468.79 139.32 C471.11 142.13 473.53 144.82 476 147.5 C480.14 152 484.06 156.64 487.89 161.39 C489.97 164.08 489.97 164.08 492.6 166.45 C496.26 170.89 495.66 175.86 495.56 181.37 C495.56 182.54 495.56 183.72 495.55 184.93 C495.54 188.21 495.51 191.5 495.46 194.79 C495.43 197.59 495.41 200.4 495.39 203.21 C495.33 210.38 495.24 217.55 495.14 224.73 C495.03 232.88 494.95 241.03 494.89 249.18 C494.82 259.78 494.71 270.39 494.57 280.99 C494.49 286.89 494.43 292.8 494.38 298.71 C494.34 304.34 494.27 309.98 494.17 315.61 C494.14 317.71 494.12 319.81 494.11 321.9 C494.04 339.99 494.04 339.99 490.15 344.58 C488.79 345.74 487.4 346.88 486 348 C484.69 349.35 483.38 350.71 482.09 352.08 C476.82 357.71 471.36 363.17 465.94 368.66 C462.98 371.67 460.02 374.68 457.08 377.73 C454.23 380.69 451.34 383.62 448.44 386.55 C447.35 387.66 446.26 388.78 445.18 389.91 C436.82 398.64 436.82 398.64 432.47 399.5 C430.12 399.28 428.21 398.8 426 398 C425.01 397.75 424.01 397.5 422.98 397.25 C422.11 396.96 421.23 396.66 420.32 396.36 C419.32 396.04 418.31 395.71 417.28 395.37 C416.24 395.02 415.2 394.67 414.12 394.31 C411.92 393.59 409.72 392.87 407.51 392.14 C406.42 391.78 405.33 391.42 404.21 391.05 C399.46 389.5 394.7 388 389.94 386.5 C388.38 386.01 386.83 385.52 385.28 385.03 C384.2 384.69 383.11 384.35 382 384 C381.92 384.64 381.83 385.29 381.75 385.95 C380.71 390.17 378.93 393.9 377.06 397.81 C376.66 398.65 376.26 399.49 375.85 400.35 C371.82 408.63 367.14 416.37 362 424 C361.6 424.6 361.2 425.19 360.79 425.81 C342.3 453.29 317.39 476.31 288.78 492.96 C287.54 493.69 286.3 494.42 285.07 495.15 C258.55 510.92 225.24 524.92 193.92 525.24 C193.15 525.25 192.37 525.25 191.58 525.26 C189.94 525.28 188.31 525.29 186.67 525.3 C185.04 525.31 183.4 525.33 181.76 525.36 C167.04 525.62 152.99 523.98 139.5 517.62 C138.89 517.36 138.28 517.09 137.65 516.82 C134.06 515.2 131.01 513.3 127.83 510.97 C122.36 507.24 116.66 506.14 110.25 504.88 C107.92 504.37 105.6 503.87 103.27 503.36 C101.63 503.01 101.63 503.01 99.95 502.65 C77.23 497.64 57.1 486.61 40 471 C39.25 470.33 38.5 469.67 37.73 468.98 C25.84 457.84 17.59 442.32 12.62 426.94 C10.55 420.78 7.59 415.98 3.89 410.71 C-0.71 404.13 -4.37 397.14 -8 390 C-13 390.81 -17.72 391.86 -22.5 393.54 C-23.68 393.96 -23.68 393.96 -24.9 394.38 C-26.49 394.96 -28.08 395.54 -29.67 396.14 C-30.78 396.54 -30.78 396.54 -31.93 396.95 C-32.59 397.2 -33.25 397.45 -33.94 397.71 C-38.58 398.37 -42.33 395.25 -45.96 392.69 C-46.9 392.03 -47.84 391.37 -48.8 390.69 C-50.29 389.64 -50.29 389.64 -51.81 388.56 C-53.89 387.1 -55.98 385.64 -58.06 384.18 C-59.08 383.46 -60.09 382.74 -61.14 382.01 C-64.87 379.39 -68.62 376.82 -72.38 374.25 C-77.98 370.41 -83.56 366.53 -89.12 362.62 C-89.82 362.14 -90.52 361.65 -91.24 361.15 C-91.91 360.68 -92.57 360.21 -93.26 359.73 C-93.84 359.32 -94.42 358.91 -95.01 358.49 C-96 357.75 -96 357.75 -97 357 C-98.01 356.34 -99.03 355.67 -100.07 354.99 C-102.72 352.75 -103.46 351.24 -103.8 347.8 C-103.85 346.1 -103.87 344.39 -103.86 342.69 C-103.89 341.76 -103.91 340.82 -103.93 339.85 C-103.99 336.73 -104.01 333.61 -104.02 330.49 C-104.06 328.27 -104.09 326.06 -104.13 323.85 C-104.23 317.9 -104.29 311.95 -104.34 306.01 C-104.4 299.86 -104.48 293.71 -104.55 287.56 C-104.64 280.14 -104.72 272.71 -104.78 265.29 C-104.9 252.27 -105.08 239.26 -105.4 226.25 C-105.55 220.23 -105.66 214.22 -105.75 208.2 C-105.81 204.3 -105.89 200.41 -106.02 196.52 C-106.89 169.67 -106.89 169.67 -99.23 161.41 C-97.22 159.5 -95.14 157.77 -93 156 C-91.44 154.16 -89.91 152.29 -88.44 150.38 C-84.82 145.92 -81.01 141.69 -77.1 137.5 C-73.22 133.31 -69.62 128.94 -66.07 124.47 C-61.44 118.95 -58.41 116.26 -51.15 115.36 C-49.99 115.19 -49.99 115.19 -48.79 115.01 C-46.2 114.65 -43.6 114.32 -41 114 C-40.08 113.89 -39.16 113.77 -38.22 113.65 C-32.34 112.93 -26.46 112.27 -20.58 111.64 C-17.51 111.31 -14.45 110.97 -11.38 110.63 C-9.42 110.42 -7.46 110.2 -5.5 109.99 C-4.14 109.84 -4.14 109.84 -2.74 109.69 C-1.9 109.59 -1.05 109.5 -0.19 109.41 C0.55 109.33 1.29 109.25 2.05 109.17 C4 109 4 109 7 109 C7 105.7 7 102.4 7 99 C5.02 98.01 5.02 98.01 3 97 C1.27 95.62 1.27 95.62 0 94 C-0.28 90.94 -0.38 88.09 -0.34 85.03 C-0.34 83.65 -0.34 83.65 -0.34 82.25 C-0.34 79.22 -0.32 76.18 -0.29 73.14 C-0.29 71.04 -0.28 68.94 -0.28 66.83 C-0.27 61.3 -0.24 55.76 -0.21 50.22 C-0.18 44.57 -0.16 38.92 -0.15 33.27 C-0.11 22.18 -0.06 11.09 0 0 Z " fill="#030303" transform="translate(105,0)"/>
<path d="M0 0 C1.12 0.18 2.25 0.35 3.41 0.54 C8.59 1.36 13.74 2.24 18.89 3.26 C19.71 3.42 20.53 3.58 21.37 3.74 C22.87 4.03 24.37 4.34 25.86 4.68 C29.65 5.41 31.05 5.4 34.36 3.25 C35.36 2.23 35.36 2.23 36.38 1.19 C39.18 2.29 40.28 3.04 41.94 5.62 C45.39 9.26 48.81 9.63 53.62 10.5 C54.47 10.67 55.31 10.84 56.17 11.01 C58.24 11.42 60.31 11.81 62.38 12.19 C59.38 31.2 46.59 51.9 35.38 67.19 C34.8 67.97 34.8 67.97 34.21 68.78 C28.67 76.28 22.8 83.42 16.38 90.19 C15.91 90.68 15.45 91.18 14.97 91.69 C-1.21 108.92 -20.41 121.01 -41.62 131.19 C-42.59 131.66 -43.56 132.14 -44.56 132.62 C-55.28 137.72 -66.53 141.02 -78 143.94 C-78.82 144.15 -79.64 144.36 -80.48 144.58 C-102.91 150.11 -124.76 146.73 -144.62 135.19 C-152.25 130.32 -160.78 124.66 -164.62 116.19 C-163.42 115.99 -162.22 115.8 -160.99 115.59 C-137.03 111.41 -115.04 101.92 -95.62 87.19 C-97.29 85.52 -99.45 85.72 -101.69 85.39 C-109.59 84.21 -117.05 82.3 -124.62 79.75 C-125.48 79.46 -126.34 79.17 -127.23 78.88 C-132.84 76.94 -138.25 74.7 -143.62 72.19 C-144.8 71.64 -144.8 71.64 -146 71.08 C-162.93 63.1 -180.1 54.09 -194.62 42.19 C-192.48 35.77 -182.54 32.12 -176.65 29.13 C-151.04 16.54 -123.61 10.26 -95.94 3.96 C-94.19 3.55 -92.44 3.14 -90.71 2.65 C-86.01 1.37 -81.81 0.96 -76.9 1.03 C-76.19 1.03 -75.48 1.04 -74.75 1.04 C-72.5 1.06 -70.25 1.09 -68 1.12 C-55.42 1.28 -42.93 1.39 -30.5 -0.88 C-20.15 -2.7 -10.29 -1.72 0 0 Z " fill="#9B202C" transform="translate(405.625,349.8125)"/>
<path d="M0 0 C43.13 -0.23 86.25 -0.41 129.38 -0.51 C134.47 -0.52 139.57 -0.54 144.66 -0.55 C145.67 -0.55 146.69 -0.55 147.73 -0.56 C164.14 -0.6 180.55 -0.68 196.97 -0.77 C213.81 -0.87 230.65 -0.92 247.49 -0.94 C257.88 -0.95 268.27 -1 278.67 -1.08 C285.79 -1.13 292.92 -1.15 300.05 -1.14 C304.16 -1.13 308.27 -1.14 312.38 -1.19 C316.15 -1.24 319.92 -1.24 323.69 -1.21 C325.69 -1.2 327.68 -1.25 329.68 -1.29 C336.9 -1.17 340.71 -0.05 346.14 4.85 C347.77 6.55 349.4 8.27 351 10 C352.34 11.21 353.69 12.4 355.06 13.56 C359.76 17.65 364.38 21.83 369 26 C370.65 27.48 372.29 28.96 373.94 30.44 C374.71 31.15 375.47 31.86 376.26 32.59 C378.95 35.03 378.95 35.03 381.86 37.1 C386.15 40.42 389.45 43.06 390.96 48.4 C391.27 52.36 391.24 56.23 391.07 60.2 C391.05 61.64 391.04 63.08 391.03 64.52 C390.99 68.29 390.88 72.05 390.76 75.82 C390.64 79.67 390.59 83.53 390.54 87.38 C390.42 94.92 390.23 102.46 390 110 C391.45 110.09 391.45 110.09 392.93 110.18 C400.32 110.65 407.68 111.2 415.04 112.12 C415.89 112.23 416.75 112.33 417.63 112.44 C419.4 112.66 421.17 112.88 422.95 113.1 C425.65 113.44 428.36 113.77 431.07 114.1 C432.81 114.31 434.55 114.53 436.29 114.75 C437.09 114.84 437.89 114.94 438.72 115.04 C446.4 116.02 450.55 118.06 455.75 123.94 C456.54 124.81 456.54 124.81 457.34 125.7 C461.31 130.12 465.07 134.69 468.79 139.32 C471.11 142.13 473.53 144.82 476 147.5 C480.14 152 484.06 156.64 487.89 161.39 C489.97 164.08 489.97 164.08 492.6 166.45 C496.26 170.89 495.66 175.86 495.56 181.37 C495.56 182.54 495.56 183.72 495.55 184.93 C495.54 188.21 495.51 191.5 495.46 194.79 C495.43 197.59 495.41 200.4 495.39 203.21 C495.33 210.38 495.24 217.55 495.14 224.73 C495.03 232.88 494.95 241.03 494.89 249.18 C494.82 259.78 494.71 270.39 494.57 280.99 C494.49 286.89 494.43 292.8 494.38 298.71 C494.34 304.34 494.27 309.98 494.17 315.61 C494.14 317.71 494.12 319.81 494.11 321.9 C494.04 339.99 494.04 339.99 490.15 344.58 C488.79 345.74 487.4 346.88 486 348 C484.69 349.35 483.38 350.71 482.09 352.08 C476.82 357.71 471.36 363.17 465.94 368.66 C462.98 371.67 460.02 374.68 457.08 377.73 C454.23 380.69 451.34 383.62 448.44 386.55 C447.35 387.66 446.26 388.78 445.18 389.91 C436.82 398.64 436.82 398.64 432.47 399.5 C430.12 399.28 428.21 398.8 426 398 C425.01 397.75 424.01 397.5 422.98 397.25 C422.11 396.96 421.23 396.66 420.32 396.36 C419.32 396.04 418.31 395.71 417.28 395.37 C416.24 395.02 415.2 394.67 414.12 394.31 C411.92 393.59 409.72 392.87 407.51 392.14 C406.42 391.78 405.33 391.42 404.21 391.05 C399.46 389.5 394.7 388 389.94 386.5 C388.38 386.01 386.83 385.52 385.28 385.03 C384.2 384.69 383.11 384.35 382 384 C381.92 384.64 381.83 385.29 381.75 385.95 C380.71 390.17 378.93 393.9 377.06 397.81 C376.66 398.65 376.26 399.49 375.85 400.35 C371.82 408.63 367.14 416.37 362 424 C361.6 424.6 361.2 425.19 360.79 425.81 C342.3 453.29 317.39 476.31 288.78 492.96 C287.54 493.69 286.3 494.42 285.07 495.15 C258.55 510.92 225.24 524.92 193.92 525.24 C193.15 525.25 192.37 525.25 191.58 525.26 C189.94 525.28 188.31 525.29 186.67 525.3 C185.04 525.31 183.4 525.33 181.76 525.36 C167.04 525.62 152.99 523.98 139.5 517.62 C138.89 517.36 138.28 517.09 137.65 516.82 C134.06 515.2 131.01 513.3 127.83 510.97 C122.36 507.24 116.66 506.14 110.25 504.88 C107.92 504.37 105.6 503.87 103.27 503.36 C101.63 503.01 101.63 503.01 99.95 502.65 C77.23 497.64 57.1 486.61 40 471 C39.25 470.33 38.5 469.67 37.73 468.98 C25.84 457.84 17.59 442.32 12.62 426.94 C10.55 420.78 7.59 415.98 3.89 410.71 C-0.71 404.13 -4.37 397.14 -8 390 C-13 390.81 -17.72 391.86 -22.5 393.54 C-23.68 393.96 -23.68 393.96 -24.9 394.38 C-26.49 394.96 -28.08 395.54 -29.67 396.14 C-30.78 396.54 -30.78 396.54 -31.93 396.95 C-32.59 397.2 -33.25 397.45 -33.94 397.71 C-38.58 398.37 -42.33 395.25 -45.96 392.69 C-46.9 392.03 -47.84 391.37 -48.8 390.69 C-50.29 389.64 -50.29 389.64 -51.81 388.56 C-53.89 387.1 -55.98 385.64 -58.06 384.18 C-59.08 383.46 -60.09 382.74 -61.14 382.01 C-64.87 379.39 -68.62 376.82 -72.38 374.25 C-77.98 370.41 -83.56 366.53 -89.12 362.62 C-89.82 362.14 -90.52 361.65 -91.24 361.15 C-91.91 360.68 -92.57 360.21 -93.26 359.73 C-93.84 359.32 -94.42 358.91 -95.01 358.49 C-96 357.75 -96 357.75 -97 357 C-98.01 356.34 -99.03 355.67 -100.07 354.99 C-102.72 352.75 -103.46 351.24 -103.8 347.8 C-103.85 346.1 -103.87 344.39 -103.86 342.69 C-103.89 341.76 -103.91 340.82 -103.93 339.85 C-103.99 336.73 -104.01 333.61 -104.02 330.49 C-104.06 328.27 -104.09 326.06 -104.13 323.85 C-104.23 317.9 -104.29 311.95 -104.34 306.01 C-104.4 299.86 -104.48 293.71 -104.55 287.56 C-104.64 280.14 -104.72 272.71 -104.78 265.29 C-104.9 252.27 -105.08 239.26 -105.4 226.25 C-105.55 220.23 -105.66 214.22 -105.75 208.2 C-105.81 204.3 -105.89 200.41 -106.02 196.52 C-106.89 169.67 -106.89 169.67 -99.23 161.41 C-97.22 159.5 -95.14 157.77 -93 156 C-91.44 154.16 -89.91 152.29 -88.44 150.38 C-84.82 145.92 -81.01 141.69 -77.1 137.5 C-73.22 133.31 -69.62 128.94 -66.07 124.47 C-61.44 118.95 -58.41 116.26 -51.15 115.36 C-49.99 115.19 -49.99 115.19 -48.79 115.01 C-46.2 114.65 -43.6 114.32 -41 114 C-40.08 113.89 -39.16 113.77 -38.22 113.65 C-32.34 112.93 -26.46 112.27 -20.58 111.64 C-17.51 111.31 -14.45 110.97 -11.38 110.63 C-9.42 110.42 -7.46 110.2 -5.5 109.99 C-4.14 109.84 -4.14 109.84 -2.74 109.69 C-1.9 109.59 -1.05 109.5 -0.19 109.41 C0.55 109.33 1.29 109.25 2.05 109.17 C4 109 4 109 7 109 C7 105.7 7 102.4 7 99 C5.02 98.01 5.02 98.01 3 97 C1.27 95.62 1.27 95.62 0 94 C-0.28 90.94 -0.38 88.09 -0.34 85.03 C-0.34 83.65 -0.34 83.65 -0.34 82.25 C-0.34 79.22 -0.32 76.18 -0.29 73.14 C-0.29 71.04 -0.28 68.94 -0.28 66.83 C-0.27 61.3 -0.24 55.76 -0.21 50.22 C-0.18 44.57 -0.16 38.92 -0.15 33.27 C-0.11 22.18 -0.06 11.09 0 0 Z M11 11 C10.86 21.08 10.75 31.17 10.69 41.25 C10.66 45.93 10.62 50.62 10.55 55.3 C10.48 59.82 10.45 64.34 10.43 68.86 C10.42 70.58 10.4 72.3 10.37 74.03 C10.32 76.44 10.32 78.86 10.32 81.27 C10.3 81.98 10.28 82.69 10.25 83.43 C10.29 86.23 10.42 88.37 12.35 90.48 C13.87 91.7 15.43 92.85 17 94 C17.77 96.95 17.77 96.95 17.8 100.18 C17.83 101.33 17.86 102.49 17.88 103.68 C17.88 104.88 17.88 106.08 17.88 107.31 C17.9 108.53 17.92 109.75 17.94 111 C17.98 114 18 117 18 120 C16.74 119.96 15.47 119.93 14.17 119.89 C1.49 119.89 -11.25 121.85 -23.84 123.25 C-28.56 123.77 -33.28 124.18 -38.03 124.48 C-47.1 125.14 -53.56 125.96 -59.81 133 C-61.2 134.73 -62.51 136.48 -63.79 138.3 C-65.62 140.87 -67.66 143.26 -69.69 145.69 C-70.76 147.02 -70.76 147.02 -71.86 148.39 C-74 151 -76.22 153.5 -78.5 156 C-90.21 167.88 -90.21 167.88 -94.21 183.07 C-94.21 183.91 -94.21 184.75 -94.2 185.62 C-94.19 188.46 -94.17 191.29 -94.15 194.13 C-94.14 196.18 -94.13 198.22 -94.12 200.26 C-94.1 204.75 -94.07 209.24 -94.04 213.73 C-93.99 221.27 -93.98 228.82 -93.97 236.37 C-93.94 248.67 -93.86 260.96 -93.74 273.25 C-93.67 280.34 -93.62 287.43 -93.61 294.52 C-93.6 300.84 -93.56 307.17 -93.48 313.49 C-93.44 316.8 -93.42 320.1 -93.43 323.41 C-93.44 327.06 -93.39 330.7 -93.32 334.35 C-93.34 335.95 -93.34 335.95 -93.37 337.58 C-93.23 342.16 -92.98 344.91 -89.85 348.38 C-87.31 350.44 -84.75 352.24 -82 354 C-80.47 355.08 -78.95 356.15 -77.43 357.24 C-75.91 358.27 -74.4 359.29 -72.88 360.31 C-71.22 361.44 -69.56 362.56 -67.9 363.68 C-67.08 364.24 -66.26 364.79 -65.42 365.36 C-62.43 367.39 -59.45 369.43 -56.47 371.48 C-55.13 372.4 -53.79 373.32 -52.45 374.23 C-49.58 376.19 -46.77 378.18 -44 380.27 C-43.13 380.93 -42.27 381.58 -41.38 382.25 C-40.66 382.81 -39.95 383.37 -39.21 383.95 C-33.45 386.68 -25.07 382.17 -19.34 380.26 C-13.62 378.4 -7.92 377.06 -2 376 C-1.73 376.55 -1.47 377.1 -1.19 377.66 C6.68 393.95 6.68 393.95 16.55 409.06 C20.08 413.88 22.06 418.63 23.94 424.25 C33.95 454.1 54.71 471.35 82.08 485.06 C94.5 491.13 109.15 494.22 122.81 495.94 C127.6 496.66 130.23 498.24 133.88 501.35 C152.64 515.96 179.37 516.17 201.88 513.55 C240.05 507.7 279.33 489.76 309 465 C309.57 464.53 310.15 464.05 310.74 463.56 C322.29 453.99 332.79 443.89 342 432 C342.64 431.17 342.64 431.17 343.3 430.32 C353.02 417.72 361.04 404.4 367.94 390.06 C368.49 388.93 368.49 388.93 369.05 387.77 C371.59 382.32 373.41 376.8 375 371 C379.07 372.06 383.14 373.13 387.21 374.2 C388.59 374.56 389.97 374.92 391.35 375.28 C398.9 377.24 406.33 379.31 413.63 382.1 C422.57 385.5 422.57 385.5 432 386 C434.61 384.25 434.61 384.25 436.95 381.72 C437.88 380.78 438.81 379.85 439.77 378.89 C440.77 377.85 441.76 376.82 442.76 375.79 C443.8 374.74 444.84 373.69 445.88 372.64 C448.61 369.88 451.32 367.11 454.02 364.33 C457.32 360.96 460.63 357.6 463.94 354.24 C466.51 351.63 469.09 349.02 471.65 346.39 C472.57 345.45 473.49 344.51 474.44 343.54 C475.25 342.71 476.06 341.88 476.9 341.02 C479 339 479 339 482 337 C482.48 335.01 482.48 335.01 482.44 332.67 C482.46 331.75 482.48 330.84 482.5 329.9 C482.51 328.9 482.52 327.89 482.52 326.85 C482.54 325.8 482.56 324.74 482.58 323.65 C482.65 320.12 482.69 316.58 482.73 313.05 C482.77 310.56 482.81 308.07 482.85 305.58 C482.94 300.33 483.01 295.07 483.08 289.82 C483.18 281.94 483.31 274.06 483.44 266.18 C483.62 254.75 483.75 243.31 483.86 231.88 C483.94 224.8 484.07 217.72 484.28 210.64 C484.39 206.38 484.47 202.13 484.55 197.87 C484.59 195.91 484.65 193.96 484.73 192.01 C485.33 179.37 485.33 179.37 479.66 168.49 C478.14 166.96 476.59 165.46 475 164 C473.93 162.77 472.87 161.52 471.85 160.25 C470.92 159.17 469.99 158.08 469.06 157 C468.56 156.41 468.05 155.82 467.54 155.22 C464.36 151.53 461.11 147.9 457.81 144.31 C453.59 139.72 449.63 134.97 445.71 130.12 C443.12 126.92 442.33 126.81 438.21 126.34 C437.19 126.22 436.17 126.1 435.11 125.97 C434 125.85 432.88 125.72 431.73 125.59 C430.58 125.46 429.44 125.33 428.26 125.19 C425.82 124.91 423.38 124.64 420.94 124.36 C417.24 123.94 413.54 123.51 409.85 123.08 C407.47 122.81 405.1 122.55 402.73 122.28 C401.64 122.15 400.54 122.02 399.41 121.89 C392.25 121.1 385.21 120.85 378 121 C378.02 120.13 378.04 119.26 378.06 118.37 C378.24 110.14 378.38 101.92 378.47 93.69 C378.51 89.47 378.58 85.24 378.68 81.01 C378.78 76.93 378.83 72.84 378.85 68.76 C378.87 67.21 378.9 65.65 378.95 64.1 C379.34 55.18 379.34 55.18 376.07 47.1 C373.82 44.83 371.56 42.91 369 41 C367.74 39.9 366.49 38.8 365.25 37.69 C364.61 37.13 363.96 36.58 363.3 36.01 C360.31 33.4 357.41 30.7 354.5 28 C349.74 23.59 344.97 19.18 340 15 C339.26 14.32 338.51 13.64 337.74 12.94 C334.59 10.71 333.14 10.5 329.32 10.51 C328.19 10.5 327.05 10.49 325.87 10.48 C324.63 10.5 323.38 10.51 322.1 10.52 C320.76 10.52 319.42 10.51 318.08 10.51 C314.39 10.5 310.71 10.52 307.03 10.54 C303.06 10.55 299.08 10.55 295.11 10.54 C288.23 10.54 281.35 10.55 274.47 10.58 C264.52 10.61 254.57 10.62 244.62 10.63 C228.48 10.63 212.34 10.66 196.2 10.7 C180.51 10.73 164.83 10.76 149.15 10.78 C148.19 10.78 147.22 10.78 146.22 10.78 C141.38 10.79 136.53 10.79 131.68 10.8 C91.45 10.84 51.23 10.91 11 11 Z " fill="#FAFAFA" transform="translate(105,0)"/>
<path d="M0 0 C37.74 -0.27 75.48 -0.49 113.23 -0.61 C117.69 -0.63 122.15 -0.64 126.61 -0.66 C127.49 -0.66 128.38 -0.67 129.3 -0.67 C143.66 -0.72 158.02 -0.82 172.38 -0.93 C187.12 -1.04 201.86 -1.1 216.61 -1.13 C225.7 -1.15 234.79 -1.2 243.88 -1.29 C250.12 -1.36 256.36 -1.38 262.6 -1.36 C266.2 -1.35 269.8 -1.37 273.39 -1.43 C297.19 -1.84 297.19 -1.84 304.39 4.21 C306.84 6.65 308.9 9.25 311 12 C312.36 13.27 313.75 14.51 315.19 15.69 C315.8 16.24 316.41 16.79 317.03 17.35 C319.03 19.09 319.03 19.09 321.52 20.64 C325.83 23.75 329.02 26.55 329.92 31.94 C330.38 36.82 330.28 41.7 330.2 46.6 C330.2 48.4 330.21 50.2 330.22 52.01 C330.24 56.73 330.2 61.45 330.15 66.17 C330.11 70.99 330.12 75.82 330.13 80.65 C330.14 90.1 330.09 99.55 330 109 C330.33 108.67 330.66 108.34 331 108 C334.19 107.9 337.38 108.15 340.56 108.31 C341.86 108.37 341.86 108.37 343.18 108.42 C350.09 108.75 356.9 109.56 363.76 110.46 C368.04 111.01 372.32 111.49 376.61 111.96 C378.75 112.21 380.89 112.45 383.03 112.7 C384.49 112.86 385.95 113.02 387.4 113.17 C389.55 113.41 391.71 113.65 393.86 113.9 C395.11 114.04 396.36 114.18 397.66 114.32 C408.71 116.56 416.05 128.97 422.75 137.28 C425.8 140.97 429.01 144.49 432.25 148 C435.48 151.68 435.15 154.89 435.13 159.57 C435.13 160.72 435.13 160.72 435.14 161.9 C435.14 164.46 435.13 167.01 435.12 169.56 C435.12 170.45 435.12 171.34 435.12 172.25 C435.1 184.7 434.88 197.11 434.43 209.55 C434.07 219.84 433.89 230.13 433.75 240.42 C433.74 241.15 433.73 241.89 433.71 242.65 C433.61 250.17 433.51 257.7 433.42 265.22 C433.38 268.08 433.35 270.94 433.31 273.8 C433.28 275.79 433.26 277.77 433.24 279.76 C433.19 283.18 433.1 286.59 433 290 C433.02 291.27 433.02 291.27 433.03 292.57 C432.83 299.56 429.1 303.07 424.27 307.79 C423.49 308.58 422.71 309.37 421.91 310.18 C420.26 311.83 418.6 313.48 416.93 315.11 C414.38 317.62 411.87 320.17 409.36 322.73 C407.75 324.34 406.14 325.94 404.52 327.54 C403.78 328.3 403.03 329.07 402.26 329.86 C396.95 334.97 396.95 334.97 392.4 335.11 C390.72 334.56 390.72 334.56 389 334 C387.88 333.66 386.75 333.32 385.59 332.97 C384.43 332.56 383.26 332.15 382.05 331.72 C374.82 329.23 367.53 327.06 360.16 325.01 C358.07 324.42 355.97 323.82 353.88 323.22 C345.33 320.79 345.33 320.79 336.61 319.06 C325.67 317.35 320.76 312.73 314.25 304.14 C313.5 303.1 312.76 302.07 312 301 C308.47 302.25 306.08 303.64 303.31 306.12 C298.48 309.79 294.89 309.78 289 309 C284.97 308.36 280.96 307.65 276.94 306.89 C261.16 303.99 245.23 302.27 229.25 300.88 C228.28 300.79 227.32 300.7 226.33 300.62 C198.02 298.13 169.71 297.5 141.31 298.38 C140.26 298.41 140.26 298.41 139.19 298.44 C121.57 298.99 103.84 299.64 86.38 302.12 C73.56 303.94 58.19 303.46 47 296 C72.24 290 98.49 288.89 124.29 287.3 C128.39 287.04 132.49 286.74 136.59 286.43 C145.41 285.85 154.23 285.76 163.06 285.75 C164.41 285.75 164.41 285.75 165.78 285.75 C195.57 285.78 225.24 287.98 254.81 291.5 C255.67 291.6 256.52 291.7 257.4 291.81 C266.83 292.94 276.18 294.25 285.49 296.15 C290.09 297.04 293.64 297.34 297.79 294.98 C298.32 294.58 298.86 294.17 299.41 293.75 C300.01 293.31 300.61 292.86 301.22 292.41 C301.83 291.94 302.44 291.48 303.06 291 C309.89 285.82 309.89 285.82 314 285 C316.08 287.39 318.17 289.79 320.25 292.19 C320.84 292.86 321.42 293.53 322.03 294.23 C322.6 294.89 323.17 295.55 323.77 296.23 C324.29 296.83 324.81 297.43 325.35 298.06 C327 300 327 300 328.85 302.62 C331.43 305.47 332.99 305.95 336.71 306.77 C337.84 307.04 338.97 307.3 340.14 307.57 C341.35 307.84 342.56 308.1 343.81 308.38 C346.34 308.97 348.88 309.56 351.41 310.16 C352.68 310.46 353.95 310.76 355.26 311.07 C362.69 312.92 369.97 315.23 377.27 317.52 C378.08 317.77 378.9 318.03 379.74 318.29 C381.17 318.74 382.59 319.2 384.01 319.68 C387.82 320.91 390.17 321.11 394 320 C405.16 314.08 415.96 304.78 421 293 C423.59 283.44 423.97 273.61 424.09 263.76 C424.12 261.71 424.18 259.67 424.25 257.62 C424.75 238.3 421.02 225.51 408.34 210.76 C407 209 407 209 407 207 C408.35 207.14 409.71 207.29 411.06 207.44 C411.82 207.52 412.57 207.6 413.35 207.68 C416.57 208.07 419.78 208.54 423 209 C423.23 201.65 423.39 194.31 423.49 186.96 C423.54 184.46 423.6 181.97 423.68 179.47 C424.87 163.34 424.87 163.34 418.75 149.12 C417.21 147.7 415.63 146.33 414 145 C412.44 143.29 410.89 141.56 409.38 139.81 C408.62 139 407.87 138.2 407.1 137.36 C405 135 405 135 403.34 132.67 C401.03 129.51 399.28 127.35 395.42 126.29 C394.42 126.17 393.42 126.04 392.39 125.91 C391.23 125.76 390.07 125.61 388.88 125.45 C386.96 125.23 386.96 125.23 385 125 C383.6 124.83 382.19 124.66 380.79 124.49 C377 124.04 373.2 123.61 369.41 123.2 C367.07 122.94 364.73 122.68 362.39 122.41 C358.64 121.99 354.88 121.61 351.11 121.23 C349.08 121.01 347.05 120.74 345.02 120.45 C337.41 119.43 337.41 119.43 330.68 122.49 C329.52 123.58 328.4 124.71 327.31 125.88 C321.11 131.96 321.11 131.96 318 133 C318.04 131.8 318.08 130.59 318.11 129.35 C318.46 117.94 318.71 106.52 318.88 95.11 C318.97 89.24 319.09 83.37 319.28 77.5 C319.47 71.83 319.57 66.16 319.61 60.48 C319.64 58.33 319.7 56.18 319.8 54.03 C320.4 40.67 320.4 40.67 314.35 29.21 C310.84 25.69 307.1 22.55 303.08 19.62 C301 18 301 18 299.5 16.27 C296.23 12.58 293.38 11.66 288.46 11.32 C284.5 11.18 280.55 11.2 276.59 11.23 C274.81 11.22 273.02 11.21 271.24 11.19 C266.41 11.17 261.57 11.17 256.74 11.19 C251.69 11.2 246.63 11.17 241.58 11.15 C232.01 11.12 222.45 11.12 212.88 11.12 C201.99 11.13 191.1 11.1 180.2 11.07 C157.8 11.01 135.4 10.99 113 11 C113 14.63 113 18.26 113 22 C110.53 20.69 108.42 19.52 106.66 17.31 C103.55 13.66 100.63 11.88 95.88 11.34 C90.58 11 85.28 11.06 79.97 11.1 C78.01 11.09 76.05 11.08 74.08 11.06 C68.94 11.03 63.8 11.04 58.66 11.06 C53.4 11.07 48.15 11.04 42.89 11.01 C32.59 10.97 22.3 10.97 12 11 C12.02 15.89 12.07 20.79 12.15 25.68 C12.18 27.34 12.19 29.01 12.2 30.67 C12.2 33.07 12.25 35.46 12.29 37.86 C12.29 38.6 12.29 39.34 12.28 40.1 C12.39 44.1 12.76 45.74 15.5 48.73 C16.33 49.48 17.15 50.23 18 51 C18.64 53.18 18.64 53.18 18.66 55.39 C18.68 56.23 18.7 57.07 18.72 57.94 C18.71 59.3 18.71 59.3 18.71 60.68 C18.73 62.11 18.73 62.11 18.75 63.57 C18.8 66.67 18.81 69.77 18.81 72.88 C18.83 75 18.85 77.13 18.88 79.26 C18.92 83.51 18.95 87.76 18.96 92.01 C18.99 96.54 19.05 101.07 19.14 105.6 C19.2 108.49 19.24 111.38 19.28 114.27 C19.31 116.21 19.36 118.16 19.4 120.1 C19.41 121.25 19.42 122.39 19.43 123.58 C19.44 124.56 19.45 125.55 19.47 126.56 C19 129 19 129 17.13 130.84 C15 132 15 132 12.57 131.96 C9.29 130.73 7.4 128.98 4.88 126.56 C0.06 121.56 0.06 121.56 -6.36 120 C-7.75 120.11 -9.15 120.23 -10.54 120.36 C-11.3 120.42 -12.05 120.48 -12.82 120.54 C-15.28 120.74 -17.73 120.97 -20.19 121.19 C-21.87 121.33 -23.55 121.48 -25.24 121.62 C-34.84 122.46 -44.43 123.4 -54 124.56 C-54.96 124.68 -55.92 124.79 -56.9 124.91 C-65.41 126.01 -69.55 128.06 -75.25 134.44 C-76.1 135.37 -76.1 135.37 -76.97 136.32 C-81.24 141.05 -85.32 145.91 -89.29 150.89 C-91 153 -91 153 -93 155 C-93.29 157.49 -93.29 157.49 -93.21 160.43 C-93.21 161.57 -93.21 162.7 -93.2 163.88 C-93.19 165.12 -93.17 166.37 -93.16 167.65 C-93.15 168.94 -93.14 170.24 -93.13 171.58 C-93.1 175.72 -93.05 179.86 -93 184 C-92.98 185.29 -92.97 186.58 -92.95 187.91 C-92.84 195.77 -92.71 203.63 -92.57 211.49 C-92.05 241.33 -91.87 271.16 -92 301 C-91.14 301.41 -91.14 301.41 -90.27 301.82 C-87.95 303.03 -85.85 304.38 -83.7 305.86 C-82.89 306.42 -82.07 306.98 -81.24 307.55 C-80.4 308.13 -79.55 308.71 -78.69 309.31 C-77.86 309.88 -77.03 310.45 -76.17 311.04 C-75.36 311.6 -74.54 312.16 -73.7 312.74 C-72.9 313.29 -72.1 313.83 -71.28 314.4 C-69.83 315.42 -68.4 316.46 -67.01 317.55 C-63.59 320.24 -63.59 320.24 -59.45 321.16 C-58.68 320.94 -57.91 320.72 -57.12 320.5 C-55.86 320.17 -55.86 320.17 -54.57 319.82 C-51.32 318.78 -48.09 317.71 -44.91 316.49 C-43 316 -43 316 -40 317 C-38.48 320.6 -38 323.05 -38 327 C-41.02 327.99 -44.04 328.96 -47.06 329.94 C-47.91 330.22 -48.76 330.49 -49.63 330.78 C-62.22 334.81 -62.22 334.81 -65.81 333.17 C-67.86 331.86 -69.77 330.44 -71.69 328.94 C-73.17 327.83 -74.65 326.73 -76.14 325.63 C-76.92 325.05 -77.7 324.46 -78.5 323.85 C-82.93 320.57 -87.47 317.45 -92 314.31 C-93.71 313.12 -95.42 311.93 -97.12 310.74 C-97.85 310.23 -98.57 309.73 -99.32 309.21 C-101 308 -101 308 -102 307 C-103.14 299.3 -103.2 291.62 -103.28 283.84 C-103.3 282.47 -103.32 281.09 -103.34 279.71 C-103.37 276.81 -103.41 273.91 -103.45 271 C-103.54 263.46 -103.64 255.92 -103.75 248.38 C-103.76 247.65 -103.77 246.91 -103.78 246.15 C-103.93 235.56 -104.17 224.97 -104.56 214.38 C-104.67 210.72 -104.77 207.06 -104.87 203.4 C-104.96 200 -105.09 196.6 -105.22 193.21 C-105.42 187.79 -105.56 182.37 -105.67 176.95 C-105.72 174.8 -105.79 172.66 -105.89 170.52 C-106.68 151.84 -106.68 151.84 -101.23 145.44 C-98.95 143.14 -96.48 141.08 -94 139 C-92.46 137.2 -90.95 135.37 -89.5 133.5 C-88.77 132.61 -88.04 131.73 -87.29 130.81 C-86.1 129.36 -84.93 127.9 -83.8 126.4 C-83.19 125.58 -83.19 125.58 -82.56 124.75 C-82.2 124.26 -81.84 123.77 -81.47 123.27 C-76.82 117.9 -73.92 115.41 -66.77 114.29 C-66.08 114.18 -65.39 114.07 -64.68 113.95 C-62.46 113.6 -60.23 113.29 -58 113 C-57.26 112.9 -56.52 112.8 -55.76 112.7 C-50.41 112.02 -45.05 111.44 -39.69 110.88 C-38.12 110.7 -36.55 110.53 -34.98 110.36 C-12.23 107.9 -12.23 107.9 -4.75 107.62 C-3.82 107.58 -2.88 107.53 -1.92 107.48 C1 108 1 108 8 113 C8 94.19 8 75.38 8 56 C6.68 55.34 5.36 54.68 4 54 C1.49 51.96 0.17 50.83 -0.48 47.62 C-0.47 46.3 -0.47 46.3 -0.45 44.96 C-0.45 43.96 -0.45 42.95 -0.45 41.92 C-0.43 40.85 -0.41 39.78 -0.39 38.67 C-0.38 37.57 -0.38 36.46 -0.37 35.33 C-0.35 31.8 -0.3 28.28 -0.25 24.75 C-0.23 22.36 -0.21 19.97 -0.2 17.58 C-0.15 11.72 -0.08 5.86 0 0 Z " fill="#941F2A" transform="translate(135,31)"/>
<path d="M0 0 C0.5 0.38 1 0.76 1.52 1.15 C2.86 2.16 4.2 3.16 5.54 4.16 C7.2 5.4 8.85 6.65 10.49 7.9 C40.33 30.27 77.12 41.17 114 44 C114 44.66 114 45.32 114 46 C113.18 46.3 112.36 46.61 111.51 46.92 C110.39 47.34 109.28 47.76 108.12 48.19 C107.03 48.59 105.94 49 104.82 49.42 C100.06 51.29 95.54 53.67 91 56 C93.44 55.58 95.87 55.15 98.31 54.73 C100.42 54.36 102.53 54 104.63 53.64 C109.24 52.84 113.84 52.04 118.43 51.17 C141.29 46.87 163.73 45.57 186.92 45.79 C190.56 45.83 194.19 45.84 197.83 45.85 C204.88 45.89 211.94 45.94 219 46 C215.96 48.03 214.13 48.56 210.61 49.3 C209.52 49.53 208.43 49.76 207.31 50 C206.13 50.25 204.96 50.5 203.75 50.75 C171.03 57.84 138.19 66.21 110 85 C111.17 88.52 111.93 88.9 114.96 90.86 C116.24 91.69 116.24 91.69 117.54 92.53 C118.48 93.12 119.41 93.71 120.38 94.31 C121.34 94.92 122.31 95.54 123.31 96.17 C141.36 107.37 160.52 117.34 180.69 124.12 C181.44 124.38 182.19 124.63 182.96 124.89 C189.12 126.89 195.29 128.15 201.69 129.06 C206.81 129.81 206.81 129.81 209 132 C188.67 148.03 165.4 157.59 140 162 C151.72 176.51 168.39 187.07 187 190 C190.52 190.34 194.03 190.5 197.56 190.62 C198.93 190.68 198.93 190.68 200.33 190.74 C202.55 190.84 204.78 190.92 207 191 C207 191.33 207 191.66 207 192 C200.97 193.42 194.88 193.22 188.72 193.24 C186.6 193.25 184.48 193.28 182.36 193.31 C170.52 193.41 159.06 192.2 148.44 186.56 C147.32 185.99 146.21 185.41 145.06 184.82 C142 183 142 183 139.71 180.87 C135.76 178.15 131.94 178.04 127.25 177.56 C95.45 173.63 65.21 158.25 45 133 C43.99 131.67 42.99 130.34 42 129 C42.33 128.34 42.66 127.68 43 127 C43.83 127.34 44.67 127.68 45.53 128.02 C47.22 128.69 47.22 128.69 48.94 129.38 C50.59 130.04 50.59 130.04 52.28 130.71 C60.5 133.56 67.88 134.27 76.56 134.12 C78.08 134.11 78.08 134.11 79.62 134.1 C82.08 134.07 84.54 134.04 87 134 C86.32 133.79 85.64 133.57 84.94 133.35 C71.52 129.02 59.34 121.52 49 112 C48.46 111.5 47.91 111.01 47.35 110.5 C30.92 95.34 18.39 76.15 11 55 C10.54 53.77 10.08 52.54 9.61 51.27 C6.38 42.37 4.03 33.4 2.12 24.12 C1.91 23.1 1.69 22.08 1.47 21.03 C0.09 13.96 -0.24 7.2 0 0 Z " fill="#D8D7D7" transform="translate(102,305)"/>
<path d="M0 0 C1.12 0.18 2.25 0.35 3.41 0.54 C8.59 1.36 13.74 2.24 18.89 3.26 C19.71 3.42 20.53 3.58 21.37 3.74 C22.87 4.03 24.37 4.34 25.86 4.68 C28.1 5.16 28.1 5.16 31.38 5.19 C34.23 3.37 34.23 3.37 36.38 1.19 C37.03 1.19 37.69 1.19 38.38 1.19 C38.04 7.68 35.65 11.37 31.81 16.5 C31.27 17.25 30.72 18 30.15 18.78 C26.05 24.38 21.84 29.87 17.38 35.19 C16.92 35.73 16.47 36.27 16 36.83 C6.87 47.72 -2.45 57.35 -13.62 66.19 C-14.64 67 -15.65 67.82 -16.69 68.66 C-28.75 78.29 -41.87 85.57 -55.73 92.26 C-57.74 93.24 -59.72 94.26 -61.71 95.27 C-65.03 96.93 -68.36 98.31 -71.88 99.5 C-72.87 99.85 -73.87 100.19 -74.89 100.55 C-77.65 101.19 -79.01 101.15 -81.62 100.19 C-80.67 99.57 -79.71 98.95 -78.73 98.32 C-60.34 86.32 -42.3 71.51 -28.62 54.19 C-29.17 54.36 -29.72 54.53 -30.29 54.7 C-42.65 58.48 -54.75 61.77 -67.62 63.19 C-69.11 63.36 -69.11 63.36 -70.62 63.53 C-94.04 65.75 -117.64 63.97 -140.62 59.19 C-141.78 58.99 -142.94 58.78 -144.13 58.57 C-155.93 56.46 -167.23 52.85 -178.62 49.19 C-179.41 48.94 -180.19 48.7 -180.99 48.44 C-182.98 47.81 -184.96 47.16 -186.94 46.5 C-188.01 46.15 -189.07 45.79 -190.18 45.43 C-192.94 44.03 -193.62 43.07 -194.62 40.19 C-167.59 18.18 -128.99 11.48 -95.94 3.96 C-94.19 3.55 -92.44 3.14 -90.71 2.65 C-86.01 1.37 -81.81 0.96 -76.9 1.03 C-76.19 1.03 -75.48 1.04 -74.75 1.04 C-72.5 1.06 -70.25 1.09 -68 1.12 C-55.42 1.28 -42.93 1.39 -30.5 -0.88 C-20.15 -2.7 -10.29 -1.72 0 0 Z " fill="#E42242" transform="translate(405.625,349.8125)"/>
<path d="M0 0 C2.44 0.27 4.87 0.52 7.31 0.77 C8.88 0.94 10.44 1.11 12.01 1.29 C13.09 1.4 13.09 1.4 14.19 1.51 C20.06 2.2 23.94 4.07 27.89 8.42 C28.65 9.25 28.65 9.25 29.42 10.1 C30.19 10.95 30.19 10.95 30.98 11.83 C31.49 12.4 32.01 12.96 32.54 13.54 C34.02 15.17 35.48 16.79 36.91 18.46 C37.62 19.2 38.33 19.95 39.07 20.72 C41.42 24.21 41.37 26.32 41.3 30.51 C41.3 31.17 41.29 31.82 41.29 32.5 C41.26 34.59 41.21 36.68 41.16 38.77 C41.14 40.19 41.12 41.61 41.11 43.04 C41.06 46.51 41 49.98 40.91 53.46 C32.71 52.96 24.64 52.28 16.54 50.89 C13.69 50.42 10.85 49.94 7.91 49.46 C7.91 42.86 7.91 36.26 7.91 29.46 C2.17 28.84 2.17 28.84 -3.57 28.23 C-4.66 28.11 -4.66 28.11 -5.76 27.99 C-6.49 27.91 -7.23 27.83 -7.98 27.75 C-10.09 27.46 -10.09 27.46 -14.09 26.46 C-14.09 39.33 -14.09 52.2 -14.09 65.46 C-10.46 65.79 -6.83 66.12 -3.09 66.46 C18.49 68.97 18.49 68.97 24.96 73.67 C27.01 76.49 28.41 79.31 29.91 82.46 C30.77 83.7 31.64 84.92 32.54 86.13 C38.24 94.01 40.73 99.86 40.65 109.63 C40.65 115.14 41.73 118.08 45.54 122.01 C46.91 123.46 46.91 123.46 47.91 126.46 C47.42 126.87 46.93 127.28 46.42 127.7 C45.78 128.24 45.14 128.78 44.48 129.33 C43.84 129.86 43.2 130.4 42.54 130.95 C40.81 132.38 40.81 132.38 39.91 134.46 C40.07 136.08 40.07 136.08 40.23 137.74 C40.81 145.34 40.06 150.58 35.09 156.62 C33.52 158.3 31.92 159.96 30.29 161.58 C29.49 162.38 28.7 163.18 27.88 164 C22.06 169.4 22.06 169.4 17.46 169.62 C16.29 169.23 15.12 168.85 13.91 168.46 C12.33 168.05 10.74 167.65 9.16 167.26 C6.4 166.5 3.64 165.73 0.89 164.95 C-3.99 163.57 -8.86 162.26 -13.81 161.15 C-26.24 158.24 -32.52 154.86 -40.09 144.46 C-41.45 142.88 -42.82 141.31 -44.21 139.77 C-44.75 139.15 -45.29 138.52 -45.84 137.88 C-46.57 137.05 -47.31 136.23 -48.09 135.46 C-48.17 133.89 -48.19 132.33 -48.18 130.76 C-48.18 129.82 -48.18 128.88 -48.17 127.9 C-48.17 126.91 -48.16 125.92 -48.15 124.89 C-48.14 123.9 -48.14 122.9 -48.14 121.87 C-48.12 119.4 -48.11 116.93 -48.09 114.46 C-37.11 113.1 -26.12 113.37 -15.09 113.46 C-15.09 119.73 -15.09 126 -15.09 132.46 C-13.68 132.72 -12.28 132.99 -10.84 133.27 C-4.88 134.5 1.02 135.98 6.91 137.46 C6.58 125.58 6.25 113.7 5.91 101.46 C2.28 100.8 -1.35 100.14 -5.09 99.46 C-5.42 99.13 -5.75 98.8 -6.09 98.46 C-7.44 98.2 -8.8 97.99 -10.17 97.81 C-11.41 97.63 -11.41 97.63 -12.68 97.45 C-14.44 97.21 -16.19 96.97 -17.94 96.74 C-26.21 95.54 -29.95 93.05 -34.95 86.39 C-35.51 85.63 -36.07 84.87 -36.65 84.08 C-37.78 82.57 -38.9 81.06 -40.03 79.56 C-40.52 78.89 -41.01 78.22 -41.52 77.54 C-43.06 75.36 -43.06 75.36 -45.23 73.49 C-48.24 68.58 -47.78 63.47 -47.83 57.82 C-47.85 56.58 -47.87 55.34 -47.88 54.07 C-47.91 51.45 -47.93 48.84 -47.94 46.22 C-47.95 42.23 -48.06 38.25 -48.16 34.26 C-48.18 31.72 -48.19 29.17 -48.2 26.63 C-48.24 25.44 -48.28 24.26 -48.32 23.04 C-48.27 18.02 -48.13 14.75 -44.92 10.76 C-42.4 8.49 -39.82 6.46 -37.09 4.46 C-35.81 3.28 -34.53 2.09 -33.27 0.89 C-24.89 -5.13 -9.8 -1.1 0 0 Z " fill="#FEFEFE" transform="translate(503.0869140625,166.544189453125)"/>
<path d="M0 0 C8.72 -0.35 17.44 -0.62 26.16 -0.78 C30.21 -0.85 34.26 -0.96 38.31 -1.13 C69.68 -2.42 69.68 -2.42 79.14 6.15 C86.07 13.57 86.82 21.88 86.52 31.67 C86.41 33.63 86.3 35.6 86.19 37.56 C86.08 40.54 85.99 43.51 85.92 46.49 C85.88 48.33 85.8 50.16 85.69 52 C85.52 56.43 85.61 59.11 88.51 62.61 C89.74 63.79 89.74 63.79 91 65 C90.18 65.78 89.37 66.56 88.52 67.36 C84.98 71.65 85.42 75.84 85.61 81.18 C85.62 83.18 85.63 85.18 85.64 87.18 C85.69 90.31 85.75 93.44 85.83 96.58 C86.23 114.12 86.23 114.12 83.19 118.76 C80.89 120.54 78.61 121.72 76 123 C74.96 124.14 73.95 125.29 72.96 126.47 C68.94 129.93 64.46 129.39 59.47 129.09 C57.18 128.91 54.91 128.71 52.62 128.5 C51.04 128.38 49.44 128.26 47.85 128.15 C44.56 127.91 41.27 127.65 37.98 127.39 C30.81 126.82 23.63 126.42 16.45 126 C12.95 125.8 9.45 125.58 5.95 125.37 C4.8 125.3 3.65 125.23 2.46 125.15 C1.65 125.1 0.84 125.05 0 125 C-0.16 122.75 -0.28 120.5 -0.38 118.25 C-0.44 117 -0.51 115.74 -0.59 114.45 C-0.39 113.31 -0.2 112.17 0 111 C0.99 110.45 1.97 109.89 2.99 109.32 C6.4 107.22 6.4 107.22 6.76 103.14 C6.79 101.55 6.8 99.96 6.77 98.38 C6.79 97.07 6.79 97.07 6.81 95.74 C6.83 92.88 6.82 90.01 6.8 87.14 C6.82 85.15 6.83 83.16 6.85 81.17 C6.88 75.94 6.88 70.7 6.88 65.47 C6.87 60.13 6.91 54.78 6.94 49.44 C6.99 38.96 7.01 28.48 7 18 C5.82 17.57 5.82 17.57 4.62 17.12 C2 16 2 16 0 14 C-0.2 10.74 -0.2 10.74 -0.12 6.88 C-0.11 5.59 -0.09 4.31 -0.07 2.99 C-0.05 2 -0.02 1.02 0 0 Z " fill="#F2F2F2" transform="translate(354,55)"/>
<path d="M0 0 C8.91 -0.12 17.82 -0.2 26.73 -0.26 C30.87 -0.29 35.01 -0.32 39.14 -0.38 C43.14 -0.43 47.13 -0.46 51.13 -0.47 C52.65 -0.48 54.17 -0.5 55.69 -0.53 C57.83 -0.57 59.96 -0.57 62.1 -0.57 C63.31 -0.58 64.53 -0.59 65.78 -0.6 C69.91 0.17 71.28 1.88 74 5 C74.94 5.58 75.88 6.16 76.84 6.76 C80.72 9.2 84.18 11.51 85.67 16.04 C86.62 21.08 86.65 26.1 86.54 31.22 C86.5 33.94 86.58 36.63 86.68 39.34 C86.79 51.56 86.79 51.56 83.65 55.84 C80.19 59.28 76.29 61.72 72 64 C75.37 67.51 75.37 67.51 79.22 70.46 C81.73 72.11 83.29 73.51 85 76 C85.99 81.35 85.76 86.53 85.5 91.94 C85.46 93.4 85.42 94.86 85.39 96.32 C85.3 99.88 85.17 103.44 85 107 C85.78 107.29 86.57 107.58 87.38 107.88 C90 109 90 109 92 111 C92.2 114.04 92.2 114.04 92.12 117.62 C92.11 118.81 92.09 120 92.07 121.23 C92.05 122.14 92.02 123.06 92 124 C85.06 125.23 78.09 125.34 71.06 125.56 C64.6 125.78 64.6 125.78 58 126 C58 109.17 58 92.34 58 75 C50.41 75 42.82 75 35 75 C35.03 79.77 35.07 84.54 35.15 89.31 C35.18 90.93 35.19 92.55 35.2 94.17 C35.2 96.51 35.25 98.84 35.29 101.17 C35.29 101.89 35.29 102.62 35.28 103.36 C35.3 105.69 35.3 105.69 36 109 C38.42 111.29 38.42 111.29 41 113 C41.49 116.45 41.49 116.45 41.31 120.25 C41.27 121.51 41.22 122.78 41.18 124.08 C41.09 125.52 41.09 125.52 41 127 C38.14 127.8 35.51 128.16 32.54 128.28 C31.68 128.32 30.83 128.35 29.94 128.39 C28.58 128.45 28.58 128.45 27.19 128.5 C25.3 128.58 23.42 128.66 21.53 128.75 C20.6 128.79 19.67 128.83 18.71 128.87 C12.8 129.15 6.9 129.57 1 130 C0.86 127.75 0.77 125.5 0.69 123.25 C0.63 122 0.57 120.74 0.51 119.45 C0.67 118.31 0.83 117.17 1 116 C1.82 115.45 2.64 114.9 3.49 114.33 C6.21 111.81 6.37 111.5 6.63 108.05 C6.66 106.45 6.65 104.85 6.63 103.25 C6.63 102.41 6.63 101.56 6.64 100.68 C6.64 98.89 6.62 97.1 6.6 95.31 C6.56 92.57 6.58 89.84 6.6 87.11 C6.59 85.36 6.58 83.62 6.57 81.88 C6.57 81.06 6.58 80.25 6.58 79.41 C6.48 74.35 5.76 71.72 2 68 C3.2 65.51 4.45 63.32 6 61 C6.33 59.08 6.33 59.08 6.32 56.98 C6.34 56.17 6.36 55.37 6.38 54.54 C6.39 53.67 6.4 52.81 6.41 51.91 C6.42 51.02 6.43 50.13 6.44 49.21 C6.46 47.31 6.47 45.42 6.48 43.53 C6.5 40.64 6.56 37.76 6.62 34.87 C6.64 33.03 6.65 31.19 6.66 29.35 C6.68 28.49 6.71 27.63 6.73 26.74 C6.71 24.35 6.65 22.31 6 20 C4.45 18.91 2.9 17.82 1.31 16.78 C-1.81 12.55 -0.34 5.06 0 0 Z " fill="#EFEFEF" transform="translate(161,55)"/>
<path d="M0 0 C3.6 0.44 4.95 1.92 7.49 4.45 C10.8 7.81 10.8 7.81 14.7 10.39 C17.3 11.82 18.83 12.93 20.62 15.32 C21.63 20.81 21.37 26.15 21.12 31.7 C21.08 33.21 21.04 34.72 21.01 36.24 C20.92 39.93 20.78 43.63 20.62 47.32 C13.64 50.13 6.64 52.88 -0.38 55.57 C-1.32 55.93 -2.26 56.3 -3.23 56.67 C-4.13 57.01 -5.02 57.36 -5.95 57.71 C-6.75 58.02 -7.56 58.33 -8.39 58.65 C-10.38 59.32 -10.38 59.32 -12.38 59.32 C-12.38 49.42 -12.38 39.52 -12.38 29.32 C-20.3 30.31 -28.22 31.3 -36.38 32.32 C-36.38 58.39 -36.38 84.46 -36.38 111.32 C-37.7 110.99 -39.02 110.66 -40.38 110.32 C-40.04 125.97 -39 141.27 -36.73 156.76 C-36.16 160.93 -35.77 165.12 -35.38 169.32 C-37.11 169.86 -38.84 170.37 -40.57 170.88 C-42.01 171.32 -42.01 171.32 -43.49 171.76 C-50.21 173.06 -56.27 169.71 -61.83 166.17 C-66.21 162.73 -67.89 159.9 -68.65 154.37 C-69.03 148.12 -68.82 141.89 -68.54 135.65 C-68.35 130.98 -68.35 126.32 -68.39 121.64 C-68.39 120.84 -68.4 120.04 -68.4 119.21 C-68.41 117.6 -68.42 115.99 -68.43 114.39 C-68.46 108.37 -68.42 102.34 -68.38 96.32 C-69.3 95.86 -69.3 95.86 -70.24 95.39 C-72.29 94.37 -74.34 93.34 -76.38 92.32 C-76.38 91.66 -76.38 91 -76.38 90.32 C-75.4 89.72 -74.42 89.12 -73.41 88.51 C-71.07 86.62 -70.45 85.66 -69.88 82.67 C-69.76 79.2 -69.82 75.78 -69.93 72.31 C-69.95 69.69 -69.97 67.07 -69.99 64.45 C-70.05 60.32 -70.13 56.2 -70.23 52.08 C-70.3 49.39 -70.34 46.7 -70.35 44.01 C-70.36 41.48 -70.41 38.96 -70.51 36.43 C-70.51 29.3 -69.42 25.59 -64.57 20.24 C-62.85 18.59 -61.13 16.95 -59.38 15.32 C-58.05 13.82 -56.73 12.3 -55.45 10.76 C-51.4 5.98 -47.91 4.91 -41.82 4.29 C-41.07 4.2 -40.33 4.12 -39.56 4.03 C-37.17 3.77 -34.78 3.51 -32.38 3.26 C-30.8 3.08 -29.22 2.91 -27.64 2.73 C-18.44 1.71 -9.22 0.87 0 0 Z " fill="#FDFDFD" transform="translate(125.3828125,163.6796875)"/>
<path d="M0 0 C11.97 0.49 23.92 1.16 35.88 2 C37.07 2.08 38.26 2.17 39.49 2.25 C40.63 2.33 41.76 2.42 42.93 2.5 C43.93 2.57 44.94 2.64 45.97 2.72 C46.97 2.81 47.97 2.9 49 3 C50.62 3.09 50.62 3.09 52.26 3.19 C59.08 4.67 63.61 9.42 67.75 14.88 C71.67 21.55 70.85 29.92 70.73 37.39 C70.74 39.34 70.75 41.29 70.76 43.25 C70.78 47.32 70.76 51.39 70.69 55.46 C70.62 60.65 70.66 65.84 70.74 71.04 C70.79 75.06 70.77 79.09 70.74 83.11 C70.73 85.03 70.74 86.94 70.77 88.86 C70.97 104.44 70.97 104.44 66.15 109.44 C61.92 113.07 57.29 116.45 51.53 116.64 C49.53 116.32 49.53 116.32 47.5 115.81 C46.75 115.68 46.01 115.55 45.24 115.41 C43.65 115.13 42.06 114.82 40.47 114.49 C36.18 113.64 31.84 113.1 27.5 112.5 C25.75 112.24 23.99 111.99 22.24 111.73 C14.51 110.63 6.76 109.81 -1 109 C-1.11 107.23 -1.19 105.46 -1.25 103.69 C-1.3 102.7 -1.34 101.72 -1.39 100.7 C-1 98 -1 98 0.89 96.14 C3 95 3 95 5 95 C4.96 84.62 4.9 74.24 4.82 63.86 C4.78 59.04 4.74 54.23 4.73 49.41 C4.71 44.76 4.68 40.11 4.63 35.46 C4.62 33.68 4.61 31.91 4.61 30.13 C4.61 27.65 4.58 25.17 4.55 22.68 C4.55 21.95 4.56 21.21 4.56 20.45 C4.56 18.16 4.56 18.16 4 15 C2.09 13.18 2.09 13.18 0 12 C-0.39 9.08 -0.39 9.08 -0.25 5.81 C-0.21 4.73 -0.18 3.64 -0.14 2.52 C-0.09 1.69 -0.05 0.86 0 0 Z " fill="#FDFDFD" transform="translate(371,197)"/>
<path d="M0 0 C26.4 0 52.8 0 80 0 C80 9.9 80 19.8 80 30 C74.4 31.24 74.4 31.24 68.69 32.5 C67.51 32.76 66.34 33.02 65.13 33.29 C64.21 33.49 63.28 33.7 62.32 33.91 C61.38 34.12 60.43 34.33 59.45 34.54 C57 35 57 35 54 35 C54 29.72 54 24.44 54 19 C47.4 19 40.8 19 34 19 C34 29.23 34 39.46 34 50 C45.88 50 57.76 50 70 50 C70 56.6 70 63.2 70 70 C58.12 70 46.24 70 34 70 C34 80.89 34 91.78 34 103 C40.27 103 46.54 103 53 103 C53 99.04 53 95.08 53 91 C57.1 90 61.21 89 65.31 88 C66.48 87.71 67.65 87.43 68.85 87.13 C69.97 86.86 71.09 86.59 72.24 86.31 C73.27 86.06 74.3 85.81 75.36 85.55 C78 85 78 85 81 85 C81 97.54 81 110.08 81 123 C54.27 123 27.54 123 0 123 C0 118.71 0 114.42 0 110 C5 107 5 107 7 107 C7.01 95.63 6.98 84.26 6.92 72.89 C6.89 67.61 6.87 62.33 6.88 57.05 C6.89 51.95 6.86 46.86 6.82 41.76 C6.81 39.82 6.81 37.87 6.82 35.93 C6.83 33.21 6.81 30.48 6.77 27.76 C6.79 26.96 6.8 26.16 6.81 25.33 C6.81 21.05 6.81 21.05 4.61 17.58 C4.06 17.15 3.52 16.71 2.95 16.27 C0 13 0 13 0 0 Z " fill="#FDFDFD" transform="translate(263,56)"/>
<path d="M0 0 C5.85 0.6 10.67 5.14 14.47 9.4 C18.45 15.34 17.28 23.38 17.04 30.19 C17.02 32 17.01 33.82 17.01 35.63 C16.99 40.38 16.9 45.12 16.79 49.87 C16.62 57.49 16.55 65.12 16.5 72.74 C16.47 75.4 16.41 78.06 16.34 80.72 C16.32 82.34 16.29 83.96 16.27 85.59 C16.24 86.32 16.21 87.06 16.18 87.82 C16.12 90.12 16.12 90.12 16.72 93.28 C18.37 94.27 20.02 95.26 21.72 96.28 C21.72 100.24 21.72 104.2 21.72 108.28 C10.5 109.27 -0.72 110.26 -12.28 111.28 C-12.28 107.32 -12.28 103.36 -12.28 99.28 C-11.29 98.29 -10.3 97.3 -9.28 96.28 C-8.77 94.06 -8.77 94.06 -8.76 91.61 C-8.73 90.72 -8.69 89.83 -8.66 88.91 C-8.63 87.98 -8.61 87.05 -8.59 86.09 C-8.55 85.15 -8.52 84.21 -8.48 83.24 C-8.4 80.92 -8.33 78.6 -8.28 76.28 C-8.87 76.44 -9.47 76.61 -10.09 76.77 C-14.68 77.84 -19.6 77.33 -24.28 77.28 C-23.78 87.67 -23.78 87.67 -23.28 98.28 C-21.96 98.94 -20.64 99.6 -19.28 100.28 C-19.28 104.57 -19.28 108.86 -19.28 113.28 C-23.63 113.93 -27.98 114.57 -32.34 115.22 C-33.57 115.4 -34.8 115.58 -36.06 115.77 C-41.8 116.62 -47.53 117.47 -53.28 118.28 C-53.41 116.36 -53.51 114.45 -53.59 112.53 C-53.67 110.93 -53.67 110.93 -53.76 109.29 C-53.6 108.3 -53.44 107.3 -53.28 106.28 C-52.45 105.73 -51.62 105.18 -50.77 104.61 C-47.9 102.42 -47.9 102.42 -47.72 98.58 C-47.72 97.06 -47.75 95.54 -47.81 94.03 C-47.82 93.2 -47.82 92.37 -47.83 91.51 C-47.85 89.71 -47.89 87.91 -47.93 86.11 C-47.99 83.25 -48.02 80.39 -48.03 77.53 C-48.08 69.4 -48.17 61.27 -48.33 53.14 C-48.43 48.16 -48.47 43.18 -48.47 38.2 C-48.48 36.31 -48.52 34.43 -48.58 32.54 C-49.07 16.25 -49.07 16.25 -43.12 9.71 C-38.13 4.88 -33.63 1.5 -26.46 1.59 C-25.71 1.55 -24.95 1.52 -24.17 1.48 C-22.63 1.41 -21.08 1.36 -19.54 1.33 C-16.65 1.27 -13.79 1.04 -10.92 0.81 C-7.28 0.52 -3.62 0.44 0 0 Z " fill="#EEEEEE" transform="translate(210.275390625,197.7208251953125)"/>
<path d="M0 0 C11.55 0 23.1 0 35 0 C35 3.63 35 7.26 35 11 C31 14 31 14 29 14 C29.04 24.25 29.1 34.5 29.18 44.75 C29.22 49.5 29.26 54.26 29.27 59.02 C29.29 63.61 29.32 68.2 29.37 72.79 C29.38 74.55 29.39 76.3 29.39 78.05 C29.39 80.5 29.42 82.96 29.45 85.41 C29.45 86.14 29.44 86.86 29.44 87.61 C29.44 89.87 29.44 89.87 30 93 C31.32 93.99 32.64 94.98 34 96 C34 99.63 34 103.26 34 107 C25.75 107 17.5 107 9 107 C7.93 104.97 6.85 102.95 5.75 100.86 C4.68 98.85 3.61 96.85 2.55 94.84 C1.82 93.47 1.09 92.1 0.36 90.72 C-4.24 82.03 -8.96 73.45 -14 65 C-14.15 69.58 -14.23 74.17 -14.31 78.75 C-14.35 80.05 -14.4 81.35 -14.44 82.7 C-14.46 84.57 -14.46 84.57 -14.49 86.48 C-14.51 87.64 -14.54 88.79 -14.57 89.98 C-13.82 93.94 -12.09 94.58 -9 97 C-8.51 99.8 -8.51 99.8 -8.69 102.75 C-8.73 103.73 -8.78 104.72 -8.82 105.73 C-8.91 106.86 -8.91 106.86 -9 108 C-13.54 108.34 -18.08 108.67 -22.62 109 C-23.91 109.1 -25.2 109.19 -26.52 109.29 C-27.76 109.38 -29.01 109.47 -30.29 109.56 C-31.43 109.65 -32.57 109.73 -33.75 109.82 C-36.84 109.99 -39.9 110.03 -43 110 C-43.11 108.06 -43.19 106.13 -43.25 104.19 C-43.3 103.11 -43.34 102.03 -43.39 100.92 C-43 98 -43 98 -41.11 96.11 C-39 95 -39 95 -37 95 C-37.01 84.75 -37.06 74.5 -37.13 64.25 C-37.17 59.5 -37.19 54.74 -37.2 49.98 C-37.2 45.39 -37.23 40.8 -37.27 36.21 C-37.29 34.45 -37.29 32.7 -37.29 30.95 C-37.28 28.5 -37.31 26.04 -37.34 23.59 C-37.33 22.86 -37.32 22.14 -37.31 21.39 C-37.31 19.12 -37.31 19.12 -38 16 C-39.65 15.01 -41.3 14.02 -43 13 C-43 9.04 -43 5.08 -43 1 C-34.42 1 -25.84 1 -17 1 C-12.49 11.14 -12.49 11.14 -10.62 16.06 C-10.2 17.16 -9.78 18.27 -9.35 19.4 C-8.4 21.93 -7.46 24.47 -6.52 27 C-3.95 33.99 -1.3 40.85 1.92 47.57 C3.15 50.33 4.06 53.13 5 56 C5.12 50.23 5.21 44.47 5.27 38.7 C5.3 36.74 5.33 34.78 5.38 32.82 C5.44 30 5.47 27.18 5.49 24.36 C5.51 23.48 5.54 22.61 5.57 21.7 C5.57 19.36 5.53 17.28 5 15 C4.16 14.37 3.33 13.75 2.47 13.1 C1.65 12.41 0.84 11.71 0 11 C0 7.37 0 3.74 0 0 Z " fill="#FDFDFD" transform="translate(283,195)"/>
<path d="M0 0 C2.44 0.27 4.87 0.52 7.31 0.77 C8.88 0.94 10.44 1.11 12.01 1.29 C13.09 1.4 13.09 1.4 14.19 1.51 C20.06 2.2 23.94 4.07 27.89 8.42 C28.65 9.25 28.65 9.25 29.42 10.1 C30.19 10.95 30.19 10.95 30.98 11.83 C31.49 12.4 32.01 12.96 32.54 13.54 C34.02 15.17 35.48 16.79 36.91 18.46 C37.62 19.2 38.33 19.95 39.07 20.72 C41.42 24.21 41.37 26.32 41.3 30.51 C41.3 31.17 41.29 31.82 41.29 32.5 C41.26 34.59 41.21 36.68 41.16 38.77 C41.14 40.19 41.12 41.61 41.11 43.04 C41.06 46.51 41 49.98 40.91 53.46 C32.71 52.96 24.64 52.28 16.54 50.89 C13.69 50.42 10.85 49.94 7.91 49.46 C7.91 42.86 7.91 36.26 7.91 29.46 C2.17 28.84 2.17 28.84 -3.57 28.23 C-4.66 28.11 -4.66 28.11 -5.76 27.99 C-6.49 27.91 -7.23 27.83 -7.98 27.75 C-10.09 27.46 -10.09 27.46 -14.09 26.46 C-14.09 39.33 -14.09 52.2 -14.09 65.46 C-10.46 65.79 -6.83 66.12 -3.09 66.46 C18.49 68.97 18.49 68.97 24.96 73.67 C27.01 76.49 28.41 79.31 29.91 82.46 C30.77 83.7 31.64 84.92 32.54 86.13 C38.24 94.01 40.73 99.86 40.65 109.63 C40.65 115.14 41.73 118.08 45.54 122.01 C46.91 123.46 46.91 123.46 47.91 126.46 C47.42 126.87 46.93 127.28 46.42 127.7 C45.78 128.24 45.14 128.78 44.48 129.33 C43.84 129.86 43.2 130.4 42.54 130.95 C40.81 132.38 40.81 132.38 39.91 134.46 C40.07 136.08 40.07 136.08 40.23 137.74 C40.81 145.34 40.06 150.58 35.09 156.62 C33.52 158.3 31.92 159.96 30.29 161.58 C29.49 162.38 28.7 163.18 27.88 164 C22.06 169.4 22.06 169.4 17.46 169.62 C16.29 169.23 15.12 168.85 13.91 168.46 C12.33 168.05 10.74 167.65 9.16 167.26 C6.4 166.5 3.64 165.73 0.89 164.95 C-3.99 163.57 -8.86 162.26 -13.81 161.15 C-26.24 158.24 -32.52 154.86 -40.09 144.46 C-41.45 142.88 -42.82 141.31 -44.21 139.77 C-44.75 139.15 -45.29 138.52 -45.84 137.88 C-46.57 137.05 -47.31 136.23 -48.09 135.46 C-48.17 133.89 -48.19 132.33 -48.18 130.76 C-48.18 129.82 -48.18 128.88 -48.17 127.9 C-48.17 126.91 -48.16 125.92 -48.15 124.89 C-48.14 123.9 -48.14 122.9 -48.14 121.87 C-48.12 119.4 -48.11 116.93 -48.09 114.46 C-37.11 113.1 -26.12 113.37 -15.09 113.46 C-15.09 119.73 -15.09 126 -15.09 132.46 C-13.68 132.72 -12.28 132.99 -10.84 133.27 C-4.88 134.5 1.02 135.98 6.91 137.46 C6.58 125.58 6.25 113.7 5.91 101.46 C2.28 100.8 -1.35 100.14 -5.09 99.46 C-5.42 99.13 -5.75 98.8 -6.09 98.46 C-7.44 98.2 -8.8 97.99 -10.17 97.81 C-11.41 97.63 -11.41 97.63 -12.68 97.45 C-14.44 97.21 -16.19 96.97 -17.94 96.74 C-26.21 95.54 -29.95 93.05 -34.95 86.39 C-35.51 85.63 -36.07 84.87 -36.65 84.08 C-37.78 82.57 -38.9 81.06 -40.03 79.56 C-40.52 78.89 -41.01 78.22 -41.52 77.54 C-43.06 75.36 -43.06 75.36 -45.23 73.49 C-48.24 68.58 -47.78 63.47 -47.83 57.82 C-47.85 56.58 -47.87 55.34 -47.88 54.07 C-47.91 51.45 -47.93 48.84 -47.94 46.22 C-47.95 42.23 -48.06 38.25 -48.16 34.26 C-48.18 31.72 -48.19 29.17 -48.2 26.63 C-48.24 25.44 -48.28 24.26 -48.32 23.04 C-48.27 18.02 -48.13 14.75 -44.92 10.76 C-42.4 8.49 -39.82 6.46 -37.09 4.46 C-35.81 3.28 -34.53 2.09 -33.27 0.89 C-24.89 -5.13 -9.8 -1.1 0 0 Z M-30.86 5.05 C-31.76 5.85 -31.76 5.85 -32.67 6.67 C-33.26 7.24 -33.85 7.81 -34.46 8.39 C-35.68 9.51 -36.89 10.62 -38.11 11.73 C-38.64 12.23 -39.16 12.73 -39.7 13.24 C-41.09 14.46 -41.09 14.46 -43.09 15.46 C-43.34 22.62 -43.52 29.79 -43.64 36.96 C-43.69 39.39 -43.75 41.83 -43.84 44.26 C-44.97 60.81 -44.97 60.81 -38.28 75.31 C-36.58 77.06 -34.85 78.78 -33.09 80.46 C-31.8 82.16 -30.54 83.88 -29.34 85.64 C-25.48 91.11 -19.52 91.67 -13.26 92.96 C-11.99 93.23 -10.71 93.49 -9.4 93.76 C-8.74 93.9 -8.09 94.03 -7.41 94.17 C-5.39 94.58 -3.38 95 -1.37 95.42 C5.22 96.9 5.22 96.9 11.91 97.46 C11.91 112.64 11.91 127.82 11.91 143.46 C2.01 140.82 -7.89 138.18 -18.09 135.46 C-18.42 129.52 -18.75 123.58 -19.09 117.46 C-27.17 117.37 -35.05 117.55 -43.09 118.46 C-44.22 127.79 -44.22 127.79 -41.33 136.4 C-39.02 138.9 -36.61 141.18 -34.09 143.46 C-32.77 144.94 -31.48 146.44 -30.21 147.96 C-26.06 152.85 -21.81 154.2 -15.71 155.71 C-10.22 157.09 -4.76 158.53 0.66 160.15 C1.6 160.43 2.54 160.71 3.51 161 C5.33 161.54 7.15 162.1 8.97 162.66 C14.95 164.61 14.95 164.61 20.91 163.46 C26.68 159.61 33.63 153.99 35.57 147.13 C35.97 143.94 36.03 140.88 35.83 137.67 C35.58 133.47 35.64 131.25 38.41 127.92 C39.24 127.11 40.06 126.3 40.91 125.46 C40.62 124.88 40.34 124.3 40.04 123.71 C39.48 122.59 39.48 122.59 38.91 121.46 C38.55 120.9 38.19 120.34 37.82 119.77 C36.54 116.5 37.09 113.7 37.29 110.21 C37.28 101.18 33.1 94.83 28.16 87.52 C27.45 86.46 26.73 85.4 25.99 84.3 C21.81 78.4 19.33 75.33 12.08 73.89 C11.1 73.75 10.11 73.6 9.1 73.46 C5.67 72.93 2.37 72.36 -0.96 71.39 C-6.89 70.05 -13.03 69.89 -19.09 69.46 C-19.09 53.62 -19.09 37.78 -19.09 21.46 C-9.68 22.94 -9.68 22.94 -0.09 24.46 C4.24 24.84 8.57 25.2 12.91 25.46 C12.91 32.06 12.91 38.66 12.91 45.46 C15.57 45.95 18.23 46.45 20.98 46.96 C21.8 47.11 22.62 47.27 23.47 47.43 C28.03 48.26 32.28 48.6 36.91 48.46 C38.69 34.7 38.69 34.7 34.38 22.05 C31.97 19.12 29.33 16.46 26.47 13.96 C24.91 12.46 24.91 12.46 23.28 9.88 C19.88 6.39 16.77 6.35 12.05 5.87 C11.19 5.77 10.33 5.67 9.44 5.56 C6.68 5.23 3.92 4.94 1.16 4.64 C-0.68 4.43 -2.52 4.21 -4.36 3.99 C-18.36 1.25 -18.36 1.25 -30.86 5.05 Z " fill="#D3D3D3" transform="translate(503.0869140625,166.544189453125)"/>
<path d="M0 0 C11.55 0 23.1 0 35 0 C35 3.96 35 7.92 35 12 C33.35 12.99 31.7 13.98 30 15 C29.48 17.71 29.31 19.81 29.35 22.53 C29.34 23.29 29.34 24.06 29.33 24.85 C29.3 27.38 29.32 29.9 29.34 32.43 C29.33 34.19 29.33 35.95 29.32 37.71 C29.31 41.39 29.32 45.07 29.35 48.76 C29.38 53.48 29.36 58.2 29.33 62.93 C29.31 66.56 29.32 70.19 29.33 73.81 C29.33 75.56 29.33 77.3 29.32 79.04 C29.31 81.47 29.33 83.91 29.35 86.34 C29.34 87.42 29.34 87.42 29.32 88.52 C29.32 90.8 29.32 90.8 30 94 C30.84 94.59 31.68 95.18 32.54 95.79 C33.35 96.52 34.16 97.25 35 98 C35 101.63 35 105.26 35 109 C23.12 108.34 11.24 107.68 -1 107 C-1 103.37 -1 99.74 -1 96 C1.46 93.79 1.46 93.79 4 92 C4.5 89.27 4.68 87.16 4.63 84.43 C4.64 83.68 4.65 82.92 4.65 82.14 C4.67 79.64 4.65 77.15 4.63 74.65 C4.63 72.92 4.63 71.18 4.64 69.44 C4.64 65.81 4.62 62.17 4.6 58.54 C4.56 53.87 4.57 49.21 4.59 44.55 C4.6 40.97 4.59 37.38 4.57 33.8 C4.57 32.08 4.57 30.36 4.58 28.64 C4.58 26.24 4.56 23.84 4.53 21.44 C4.54 20.72 4.55 20.01 4.55 19.28 C4.55 17.07 4.55 17.07 4 14 C2.68 13.01 1.36 12.02 0 11 C0 7.37 0 3.74 0 0 Z " fill="#FEFEFE" transform="translate(327,196)"/>
<path d="M0 0 C11.55 0 23.1 0 35 0 C35 3.63 35 7.26 35 11 C31 14 31 14 29 14 C29.04 24.25 29.1 34.5 29.18 44.75 C29.22 49.5 29.26 54.26 29.27 59.02 C29.29 63.61 29.32 68.2 29.37 72.79 C29.38 74.55 29.39 76.3 29.39 78.05 C29.39 80.5 29.42 82.96 29.45 85.41 C29.45 86.14 29.44 86.86 29.44 87.61 C29.44 89.87 29.44 89.87 30 93 C31.32 93.99 32.64 94.98 34 96 C34 99.63 34 103.26 34 107 C25.75 107 17.5 107 9 107 C7.93 104.97 6.85 102.95 5.75 100.86 C4.68 98.85 3.61 96.85 2.55 94.84 C1.82 93.47 1.09 92.1 0.36 90.72 C-4.24 82.03 -8.96 73.45 -14 65 C-14.15 69.58 -14.23 74.17 -14.31 78.75 C-14.35 80.05 -14.4 81.35 -14.44 82.7 C-14.46 84.57 -14.46 84.57 -14.49 86.48 C-14.51 87.64 -14.54 88.79 -14.57 89.98 C-13.82 93.94 -12.09 94.58 -9 97 C-8.51 99.8 -8.51 99.8 -8.69 102.75 C-8.73 103.73 -8.78 104.72 -8.82 105.73 C-8.91 106.86 -8.91 106.86 -9 108 C-13.54 108.34 -18.08 108.67 -22.62 109 C-23.91 109.1 -25.2 109.19 -26.52 109.29 C-27.76 109.38 -29.01 109.47 -30.29 109.56 C-31.43 109.65 -32.57 109.73 -33.75 109.82 C-36.84 109.99 -39.9 110.03 -43 110 C-43.11 108.06 -43.19 106.13 -43.25 104.19 C-43.3 103.11 -43.34 102.03 -43.39 100.92 C-43 98 -43 98 -41.11 96.11 C-39 95 -39 95 -37 95 C-37.01 84.75 -37.06 74.5 -37.13 64.25 C-37.17 59.5 -37.19 54.74 -37.2 49.98 C-37.2 45.39 -37.23 40.8 -37.27 36.21 C-37.29 34.45 -37.29 32.7 -37.29 30.95 C-37.28 28.5 -37.31 26.04 -37.34 23.59 C-37.33 22.86 -37.32 22.14 -37.31 21.39 C-37.31 19.12 -37.31 19.12 -38 16 C-39.65 15.01 -41.3 14.02 -43 13 C-43 9.04 -43 5.08 -43 1 C-34.42 1 -25.84 1 -17 1 C-12.49 11.14 -12.49 11.14 -10.62 16.06 C-10.2 17.16 -9.78 18.27 -9.35 19.4 C-8.4 21.93 -7.46 24.47 -6.52 27 C-3.95 33.99 -1.3 40.85 1.92 47.57 C3.15 50.33 4.06 53.13 5 56 C5.12 50.23 5.21 44.47 5.27 38.7 C5.3 36.74 5.33 34.78 5.38 32.82 C5.44 30 5.47 27.18 5.49 24.36 C5.51 23.48 5.54 22.61 5.57 21.7 C5.57 19.36 5.53 17.28 5 15 C4.16 14.37 3.33 13.75 2.47 13.1 C1.65 12.41 0.84 11.71 0 11 C0 7.37 0 3.74 0 0 Z M5 5 C5.5 7.47 5.5 7.47 6 10 C8.48 10.99 8.48 10.99 11 12 C10.67 34.77 10.34 57.54 10 81 C8.35 76.71 6.7 72.42 5 68 C4.06 65.65 3.12 63.3 2.18 60.95 C0.61 57.02 -0.94 53.07 -2.5 49.13 C-3.14 47.49 -3.79 45.84 -4.44 44.2 C-5.44 41.66 -6.44 39.13 -7.43 36.59 C-13.27 21.1 -13.27 21.1 -20 6 C-25.94 6 -31.88 6 -38 6 C-37.67 7.65 -37.34 9.3 -37 11 C-35.51 11.99 -35.51 11.99 -34 13 C-33.69 15.7 -33.58 18.18 -33.6 20.89 C-33.59 21.71 -33.58 22.52 -33.58 23.36 C-33.56 26.06 -33.56 28.76 -33.57 31.46 C-33.56 33.34 -33.56 35.21 -33.55 37.08 C-33.54 41.01 -33.54 44.94 -33.55 48.87 C-33.57 53.92 -33.55 58.96 -33.52 64 C-33.5 67.87 -33.5 71.74 -33.5 75.61 C-33.5 77.47 -33.5 79.33 -33.49 81.19 C-33.47 83.79 -33.48 86.38 -33.5 88.98 C-33.49 89.75 -33.48 90.52 -33.47 91.32 C-33.5 93.46 -33.5 93.46 -34 97 C-36.03 98.75 -36.03 98.75 -38 100 C-38 101.32 -38 102.64 -38 104 C-30.08 104 -22.16 104 -14 104 C-14 102.35 -14 100.7 -14 99 C-15.32 97.98 -16.65 96.98 -18 96 C-18.48 93.82 -18.48 93.82 -18.45 91.25 C-18.45 89.81 -18.45 89.81 -18.45 88.34 C-18.43 87.31 -18.41 86.27 -18.39 85.21 C-18.38 84.15 -18.38 83.08 -18.37 81.99 C-18.35 78.6 -18.3 75.21 -18.25 71.81 C-18.23 69.51 -18.21 67.21 -18.2 64.92 C-18.15 59.28 -18.08 53.64 -18 48 C7.91 94.81 7.91 94.81 12 103 C17.94 103 23.88 103 30 103 C29.67 101.35 29.34 99.7 29 98 C28.33 97.57 27.66 97.13 26.97 96.68 C25 95 25 95 24.48 91.49 C24.45 90.01 24.44 88.52 24.45 87.04 C24.44 86.23 24.43 85.42 24.42 84.59 C24.39 81.91 24.39 79.23 24.39 76.55 C24.38 74.69 24.36 72.84 24.34 70.98 C24.3 66.09 24.28 61.21 24.26 56.32 C24.24 51.33 24.2 46.34 24.16 41.36 C24.08 31.57 24.03 21.79 24 12 C26 11 28 10 30 9 C30 7.68 30 6.36 30 5 C21.75 5 13.5 5 5 5 Z " fill="#D2D2D1" transform="translate(283,195)"/>
<path d="M0 0 C26.4 0 52.8 0 80 0 C80 9.9 80 19.8 80 30 C74.4 31.24 74.4 31.24 68.69 32.5 C67.51 32.76 66.34 33.02 65.13 33.29 C64.21 33.49 63.28 33.7 62.32 33.91 C61.38 34.12 60.43 34.33 59.45 34.54 C57 35 57 35 54 35 C54 29.72 54 24.44 54 19 C47.4 19 40.8 19 34 19 C34 29.23 34 39.46 34 50 C45.88 50 57.76 50 70 50 C70 56.6 70 63.2 70 70 C58.12 70 46.24 70 34 70 C34 80.89 34 91.78 34 103 C40.27 103 46.54 103 53 103 C53 99.04 53 95.08 53 91 C57.1 90 61.21 89 65.31 88 C66.48 87.71 67.65 87.43 68.85 87.13 C69.97 86.86 71.09 86.59 72.24 86.31 C73.27 86.06 74.3 85.81 75.36 85.55 C78 85 78 85 81 85 C81 97.54 81 110.08 81 123 C54.27 123 27.54 123 0 123 C0 118.71 0 114.42 0 110 C5 107 5 107 7 107 C7.01 95.63 6.98 84.26 6.92 72.89 C6.89 67.61 6.87 62.33 6.88 57.05 C6.89 51.95 6.86 46.86 6.82 41.76 C6.81 39.82 6.81 37.87 6.82 35.93 C6.83 33.21 6.81 30.48 6.77 27.76 C6.79 26.96 6.8 26.16 6.81 25.33 C6.81 21.05 6.81 21.05 4.61 17.58 C4.06 17.15 3.52 16.71 2.95 16.27 C0 13 0 13 0 0 Z M4 4 C4 6.31 4 8.62 4 11 C5.52 12.21 7.04 13.43 8.61 14.57 C11.41 17.46 10.83 21.39 10.77 25.2 C10.78 26.11 10.79 27.03 10.81 27.98 C10.83 31 10.82 34.03 10.8 37.05 C10.82 39.15 10.83 41.25 10.85 43.35 C10.88 48.87 10.88 54.4 10.88 59.92 C10.87 65.56 10.91 71.19 10.94 76.83 C10.99 87.89 11.01 98.94 11 110 C8.03 110.99 8.03 110.99 5 112 C5 113.98 5 115.96 5 118 C28.43 118 51.86 118 76 118 C76 109.09 76 100.18 76 91 C73.22 91.47 70.43 91.95 67.56 92.44 C66.68 92.59 65.81 92.73 64.9 92.88 C61.14 93.24 61.14 93.24 58 95 C58 99.29 58 103.58 58 108 C48.76 108 39.52 108 30 108 C30 94.14 30 80.28 30 66 C41.88 66 53.76 66 66 66 C66 62.04 66 58.08 66 54 C54.12 54 42.24 54 30 54 C30 41.13 30 28.26 30 15 C39.24 15 48.48 15 58 15 C58 19.62 58 24.24 58 29 C59.3 28.88 60.6 28.75 61.94 28.62 C63.03 28.52 63.03 28.52 64.15 28.41 C68.14 27.83 72.07 26.87 76 26 C76 18.74 76 11.48 76 4 C52.24 4 28.48 4 4 4 Z " fill="#D8D8D8" transform="translate(263,56)"/>
<path d="M0 0 C3.6 0.44 4.95 1.92 7.49 4.45 C10.8 7.81 10.8 7.81 14.7 10.39 C17.3 11.82 18.83 12.93 20.62 15.32 C21.63 20.81 21.37 26.15 21.12 31.7 C21.08 33.21 21.04 34.72 21.01 36.24 C20.92 39.93 20.78 43.63 20.62 47.32 C13.64 50.13 6.64 52.88 -0.38 55.57 C-1.32 55.93 -2.26 56.3 -3.23 56.67 C-4.13 57.01 -5.02 57.36 -5.95 57.71 C-6.75 58.02 -7.56 58.33 -8.39 58.65 C-10.38 59.32 -10.38 59.32 -12.38 59.32 C-12.38 49.42 -12.38 39.52 -12.38 29.32 C-20.3 30.31 -28.22 31.3 -36.38 32.32 C-36.38 58.39 -36.38 84.46 -36.38 111.32 C-37.7 110.99 -39.02 110.66 -40.38 110.32 C-40.38 115.6 -40.38 120.88 -40.38 126.32 C-40.71 126.32 -41.04 126.32 -41.38 126.32 C-41.38 93.98 -41.38 61.64 -41.38 28.32 C-29.72 26.48 -19.03 24.9 -7.38 24.32 C-7.38 33.56 -7.38 42.8 -7.38 52.32 C-1.73 50.07 -1.73 50.07 3.92 47.8 C4.64 47.52 5.36 47.24 6.09 46.95 C6.82 46.66 7.54 46.37 8.28 46.08 C11.03 45.19 13.76 44.74 16.62 44.32 C16.74 40.15 16.75 35.99 16.74 31.82 C16.78 30.65 16.81 29.47 16.85 28.27 C16.81 21.5 16.81 21.5 13.49 15.83 C10.95 13.8 8.36 12.06 5.62 10.32 C4.75 9.6 3.89 8.87 2.99 8.12 C-0.34 5.59 -2.37 6.02 -6.51 6.38 C-7.22 6.44 -7.93 6.5 -8.66 6.56 C-17.16 7.29 -25.64 8.3 -34.12 9.3 C-35.23 9.43 -36.34 9.56 -37.49 9.7 C-38.48 9.82 -39.47 9.94 -40.49 10.06 C-43.47 10.33 -46.39 10.36 -49.38 10.32 C-49.6 10.85 -49.81 11.39 -50.04 11.94 C-51.88 15.2 -54.38 17.75 -56.95 20.45 C-62.38 26.15 -62.38 26.15 -63.54 33.72 C-63.55 34.84 -63.56 35.97 -63.57 37.13 C-63.58 38.36 -63.59 39.58 -63.59 40.84 C-63.62 43.42 -63.65 45.99 -63.68 48.56 C-63.72 52.63 -63.76 56.7 -63.78 60.78 C-63.81 64.69 -63.86 68.61 -63.91 72.53 C-63.91 73.75 -63.91 74.97 -63.92 76.23 C-63.93 77.36 -63.95 78.5 -63.97 79.67 C-63.97 80.66 -63.98 81.66 -63.99 82.69 C-64.44 85.69 -65.38 87.08 -67.38 89.32 C-66.16 92.01 -66.16 92.01 -64.38 94.32 C-64.23 97.01 -64.15 99.67 -64.1 102.36 C-64.07 104.06 -64.03 105.76 -63.99 107.47 C-63.98 108.36 -63.96 109.26 -63.94 110.18 C-63.88 112.94 -63.81 115.7 -63.73 118.47 C-63.52 126.24 -63.32 134 -63.55 141.78 C-64.15 152.02 -64.15 152.02 -59.67 160.73 C-55.35 164.33 -51.43 166.46 -45.7 166.07 C-42.19 165.28 -38.82 164.37 -35.38 163.32 C-35.38 165.3 -35.38 167.28 -35.38 169.32 C-37.11 169.86 -38.84 170.37 -40.57 170.88 C-42.01 171.32 -42.01 171.32 -43.49 171.76 C-50.21 173.06 -56.27 169.71 -61.83 166.17 C-66.21 162.73 -67.89 159.9 -68.65 154.37 C-69.03 148.12 -68.82 141.89 -68.54 135.65 C-68.35 130.98 -68.35 126.32 -68.39 121.64 C-68.39 120.84 -68.4 120.04 -68.4 119.21 C-68.41 117.6 -68.42 115.99 -68.43 114.39 C-68.46 108.37 -68.42 102.34 -68.38 96.32 C-69.3 95.86 -69.3 95.86 -70.24 95.39 C-72.29 94.37 -74.34 93.34 -76.38 92.32 C-76.38 91.66 -76.38 91 -76.38 90.32 C-75.4 89.72 -74.42 89.12 -73.41 88.51 C-71.07 86.62 -70.45 85.66 -69.88 82.67 C-69.76 79.2 -69.82 75.78 -69.93 72.31 C-69.95 69.69 -69.97 67.07 -69.99 64.45 C-70.05 60.32 -70.13 56.2 -70.23 52.08 C-70.3 49.39 -70.34 46.7 -70.35 44.01 C-70.36 41.48 -70.41 38.96 -70.51 36.43 C-70.51 29.3 -69.42 25.59 -64.57 20.24 C-62.85 18.59 -61.13 16.95 -59.38 15.32 C-58.05 13.82 -56.73 12.3 -55.45 10.76 C-51.4 5.98 -47.91 4.91 -41.82 4.29 C-41.07 4.2 -40.33 4.12 -39.56 4.03 C-37.17 3.77 -34.78 3.51 -32.38 3.26 C-30.8 3.08 -29.22 2.91 -27.64 2.73 C-18.44 1.71 -9.22 0.87 0 0 Z " fill="#D3D3D3" transform="translate(125.3828125,163.6796875)"/>
<path d="M0 0 C7.26 0 14.52 0 22 0 C22 27.72 22 55.44 22 84 C12 84 12 84 0 83 C0 55.61 0 28.22 0 0 Z " fill="#060606" transform="translate(388,77)"/>
<path d="M0 0 C11.97 0.49 23.92 1.16 35.88 2 C37.07 2.08 38.26 2.17 39.49 2.25 C40.63 2.33 41.76 2.42 42.93 2.5 C43.93 2.57 44.94 2.64 45.97 2.72 C46.97 2.81 47.97 2.9 49 3 C50.62 3.09 50.62 3.09 52.26 3.19 C59.08 4.67 63.61 9.42 67.75 14.88 C71.67 21.55 70.85 29.92 70.73 37.39 C70.74 39.34 70.75 41.29 70.76 43.25 C70.78 47.32 70.76 51.39 70.69 55.46 C70.62 60.65 70.66 65.84 70.74 71.04 C70.79 75.06 70.77 79.09 70.74 83.11 C70.73 85.03 70.74 86.94 70.77 88.86 C70.97 104.44 70.97 104.44 66.15 109.44 C61.92 113.07 57.29 116.45 51.53 116.64 C49.53 116.32 49.53 116.32 47.5 115.81 C46.75 115.68 46.01 115.55 45.24 115.41 C43.65 115.13 42.06 114.82 40.47 114.49 C36.18 113.64 31.84 113.1 27.5 112.5 C25.75 112.24 23.99 111.99 22.24 111.73 C14.51 110.63 6.76 109.81 -1 109 C-1.11 107.23 -1.19 105.46 -1.25 103.69 C-1.3 102.7 -1.34 101.72 -1.39 100.7 C-1 98 -1 98 0.89 96.14 C3 95 3 95 5 95 C4.96 84.62 4.9 74.24 4.82 63.86 C4.78 59.04 4.74 54.23 4.73 49.41 C4.71 44.76 4.68 40.11 4.63 35.46 C4.62 33.68 4.61 31.91 4.61 30.13 C4.61 27.65 4.58 25.17 4.55 22.68 C4.55 21.95 4.56 21.21 4.56 20.45 C4.56 18.16 4.56 18.16 4 15 C2.09 13.18 2.09 13.18 0 12 C-0.39 9.08 -0.39 9.08 -0.25 5.81 C-0.21 4.73 -0.18 3.64 -0.14 2.52 C-0.09 1.69 -0.05 0.86 0 0 Z M4 5 C4.2 7.4 4.2 7.4 5 10 C6 10.58 6 10.58 7.01 11.16 C9 13 9 13 9.52 16.55 C9.55 18.05 9.56 19.55 9.55 21.05 C9.56 21.87 9.57 22.69 9.58 23.54 C9.61 26.25 9.61 28.96 9.61 31.67 C9.62 33.55 9.64 35.43 9.66 37.31 C9.7 42.25 9.72 47.2 9.74 52.15 C9.76 57.19 9.8 62.24 9.84 67.29 C9.92 77.19 9.97 87.1 10 97 C9.2 97.31 8.39 97.62 7.56 97.94 C5.11 98.76 5.11 98.76 4 100 C3.96 101.67 3.96 103.33 4 105 C5.9 105.18 5.9 105.18 7.84 105.37 C9.54 105.54 11.24 105.71 12.94 105.88 C13.77 105.95 14.6 106.03 15.46 106.11 C20.3 106.6 24.93 107.38 29.67 108.49 C34.06 109.45 38.48 110.03 42.94 110.56 C44.32 110.78 44.32 110.78 45.74 111 C52.25 111.74 56.61 110.64 61.88 106.72 C66.55 100.74 65.4 92.28 65.29 85.04 C65.3 83.16 65.3 81.29 65.31 79.42 C65.32 75.49 65.3 71.57 65.25 67.65 C65.19 62.64 65.21 57.63 65.26 52.62 C65.29 48.75 65.27 44.89 65.24 41.02 C65.23 39.17 65.24 37.33 65.26 35.48 C65.58 25.19 65.58 25.19 61.95 15.88 C59.74 13.68 57.51 11.84 55 10 C54.5 9.01 54.5 9.01 54 8 C52.12 7.55 52.12 7.55 49.82 7.4 C48.47 7.28 48.47 7.28 47.1 7.16 C46.12 7.09 45.14 7.01 44.12 6.94 C43.12 6.86 42.11 6.77 41.08 6.69 C28.74 5.74 16.37 5.35 4 5 Z " fill="#CECECE" transform="translate(371,197)"/>
<path d="M0 0 C11.55 0 23.1 0 35 0 C35 3.96 35 7.92 35 12 C33.35 12.99 31.7 13.98 30 15 C29.48 17.71 29.31 19.81 29.35 22.53 C29.34 23.29 29.34 24.06 29.33 24.85 C29.3 27.38 29.32 29.9 29.34 32.43 C29.33 34.19 29.33 35.95 29.32 37.71 C29.31 41.39 29.32 45.07 29.35 48.76 C29.38 53.48 29.36 58.2 29.33 62.93 C29.31 66.56 29.32 70.19 29.33 73.81 C29.33 75.56 29.33 77.3 29.32 79.04 C29.31 81.47 29.33 83.91 29.35 86.34 C29.34 87.42 29.34 87.42 29.32 88.52 C29.32 90.8 29.32 90.8 30 94 C30.84 94.59 31.68 95.18 32.54 95.79 C33.35 96.52 34.16 97.25 35 98 C35 101.63 35 105.26 35 109 C23.12 108.34 11.24 107.68 -1 107 C-1 103.37 -1 99.74 -1 96 C1.46 93.79 1.46 93.79 4 92 C4.5 89.27 4.68 87.16 4.63 84.43 C4.64 83.68 4.65 82.92 4.65 82.14 C4.67 79.64 4.65 77.15 4.63 74.65 C4.63 72.92 4.63 71.18 4.64 69.44 C4.64 65.81 4.62 62.17 4.6 58.54 C4.56 53.87 4.57 49.21 4.59 44.55 C4.6 40.97 4.59 37.38 4.57 33.8 C4.57 32.08 4.57 30.36 4.58 28.64 C4.58 26.24 4.56 23.84 4.53 21.44 C4.54 20.72 4.55 20.01 4.55 19.28 C4.55 17.07 4.55 17.07 4 14 C2.68 13.01 1.36 12.02 0 11 C0 7.37 0 3.74 0 0 Z M4 4 C4.33 5.65 4.66 7.3 5 9 C5.67 9.43 6.34 9.87 7.03 10.32 C9 12 9 12 9.52 15.51 C9.55 16.99 9.56 18.48 9.55 19.96 C9.56 20.77 9.57 21.58 9.58 22.41 C9.61 25.09 9.61 27.77 9.61 30.45 C9.62 32.31 9.64 34.16 9.66 36.02 C9.7 40.91 9.72 45.79 9.74 50.68 C9.76 55.67 9.8 60.66 9.84 65.64 C9.92 75.43 9.97 85.21 10 95 C9.19 95.28 8.38 95.55 7.55 95.84 C6.71 96.22 5.87 96.6 5 97 C4.11 99.55 4.11 99.55 4 102 C12.66 103.26 21.27 103.09 30 103 C29.8 101.09 29.8 101.09 29 99 C28.34 98.62 27.67 98.25 26.99 97.86 C25 96 25 96 24.49 92.52 C24.46 91.04 24.45 89.57 24.47 88.1 C24.46 87.3 24.45 86.5 24.44 85.67 C24.42 83.01 24.42 80.35 24.43 77.69 C24.43 75.84 24.42 74 24.41 72.15 C24.4 68.28 24.41 64.4 24.42 60.53 C24.44 55.57 24.42 50.6 24.38 45.64 C24.36 41.82 24.36 38.01 24.37 34.19 C24.37 32.36 24.36 30.53 24.35 28.7 C24.33 26.14 24.35 23.59 24.37 21.03 C24.36 20.27 24.35 19.51 24.33 18.73 C24.37 16.61 24.37 16.61 25 13 C27.54 10.75 27.54 10.75 30 9 C30 7.68 30 6.36 30 5 C17.13 4.5 17.13 4.5 4 4 Z " fill="#D3D3D3" transform="translate(327,196)"/>
<path d="M0 0 C5.61 0.33 11.22 0.66 17 1 C17 25.75 17 50.5 17 76 C4 75 4 75 0 74 C0 49.58 0 25.16 0 0 Z " fill="#010101" transform="translate(399,217)"/>
<path d="M0 0 C0.2 5.39 0.34 10.78 0.44 16.17 C0.48 18 0.53 19.83 0.6 21.66 C1.24 38.8 1.24 38.8 -3.66 44.82 C-6.28 47.1 -7.4 47.93 -10.88 48.32 C-11.91 47.88 -12.94 47.45 -14 47 C-14.74 46.74 -15.48 46.49 -16.25 46.22 C-22.41 43.96 -28.77 41.15 -33 36 C-35.33 28.6 -34.17 20.55 -33 13 C-5.88 0 -5.88 0 0 0 Z " fill="#FCFCFC" transform="translate(147,262)"/>
<path d="M0 0 C10.23 0 20.46 0 31 0 C31 30.69 31 61.38 31 93 C7 92 7 92 0 91 C0 60.97 0 30.94 0 0 Z M4 4 C4 31.39 4 58.78 4 87 C15.65 88.14 15.65 88.14 26 88 C26 60.28 26 32.56 26 4 C18.74 4 11.48 4 4 4 Z " fill="#D7D7D7" transform="translate(384,73)"/>
<path d="M0 0 C9 0 9 0 27 2 C27 29.72 27 57.44 27 86 C20.99 86 15.45 85.85 9.56 85.06 C8.86 84.98 8.15 84.89 7.42 84.8 C2.27 84.13 2.27 84.13 0 83 C0 55.61 0 28.22 0 0 Z M5 5 C5 29.42 5 53.84 5 79 C15.79 81.14 15.79 81.14 22 81 C22 56.25 22 31.5 22 6 C16.39 5.67 10.78 5.34 5 5 Z " fill="#CFCFCF" transform="translate(394,212)"/>
<path d="M0 0 C0 10.89 0 21.78 0 33 C-6.93 33 -13.86 33 -21 33 C-21 22.44 -21 11.88 -21 1 C-10 0 -10 0 0 0 Z " fill="#030303" transform="translate(217,77)"/>
<path d="M0 0 C0 13.53 0 27.06 0 41 C-5 42 -5 42 -16 42 C-16 28.47 -16 14.94 -16 1 C-5 0 -5 0 0 0 Z " fill="#030303" transform="translate(202,217)"/>
<path d="M0 0 C0 16.5 0 33 0 50 C-19 52 -19 52 -26 52 C-26 35.5 -26 19 -26 2 C-14 0 -14 0 0 0 Z M-21 6 C-21 19.53 -21 33.06 -21 47 C-10.95 47.36 -10.95 47.36 -5 46 C-5 32.47 -5 18.94 -5 5 C-10.34 5 -15.68 5.52 -21 6 Z " fill="#D1D1D1" transform="translate(207,212)"/>
<path d="M0 0 C10.23 0 20.46 0 31 0 C31 13.86 31 27.72 31 42 C20.77 42 10.54 42 0 42 C0 28.14 0 14.28 0 0 Z M5 5 C5 15.56 5 26.12 5 37 C11.93 37 18.86 37 26 37 C26 26.11 26 15.22 26 4 C15.82 3.85 15.82 3.85 5 5 Z " fill="#D2D2D2" transform="translate(191,73)"/>
<path d="M0 0 C0.2 5.39 0.34 10.78 0.44 16.17 C0.48 18 0.53 19.83 0.6 21.66 C1.24 38.81 1.24 38.81 -3.82 44.74 C-6.64 47.38 -7.44 47.97 -11.38 48.19 C-14 47 -14 47 -16 45 C-14.35 45 -12.7 45 -11 45 C-10.75 44.42 -10.5 43.85 -10.25 43.25 C-9 41 -9 41 -6.96 39.31 C-4.26 36.13 -4.46 33.96 -4.39 29.83 C-4.37 29.15 -4.36 28.46 -4.34 27.76 C-4.29 25.59 -4.27 23.42 -4.25 21.25 C-4.22 19.77 -4.19 18.3 -4.16 16.82 C-4.09 13.22 -4.04 9.61 -4 6 C-5.03 6.45 -5.03 6.45 -6.08 6.92 C-9.18 8.28 -12.28 9.64 -15.38 11 C-16.46 11.48 -17.54 11.95 -18.65 12.45 C-19.68 12.9 -20.71 13.35 -21.77 13.81 C-22.73 14.23 -23.68 14.65 -24.66 15.08 C-27 16 -27 16 -29 16 C-28.67 23.26 -28.34 30.52 -28 38 C-29.65 37.34 -31.3 36.68 -33 36 C-33 28.41 -33 20.82 -33 13 C-5.7 0 -5.7 0 0 0 Z " fill="#D0D0D0" transform="translate(147,262)"/>
<path d="M0 0 C0 12.54 0 25.08 0 38 C-19.8 38 -39.6 38 -60 38 C-60 37.67 -60 37.34 -60 37 C-40.86 37 -21.72 37 -2 37 C-2 25.45 -2 13.9 -2 2 C-3.32 1.67 -4.64 1.34 -6 1 C-3 0 -3 0 0 0 Z " fill="#A1A1A1" transform="translate(344,141)"/>
<path d="M0 0 C0.66 0.33 1.32 0.66 2 1 C2 1.99 2 2.98 2 4 C-3.44 4.99 -3.44 4.99 -9 6 C-6.05 3.05 -3.79 1.61 0 0 Z " fill="#1D1D1D" transform="translate(201,356)"/>
</svg>
