<?xml version="1.0" encoding="UTF-8"?>
<!-- Generator: https://ezgif.com/png-to-svg -->
<svg version="1.1" xmlns="http://www.w3.org/2000/svg" width="512" height="512" viewBox="-133.975 -49.175 869.77 869.77" preserveAspectRatio="xMidYMid meet">
<path d="M0 0 C1.13 0.17 2.26 0.34 3.42 0.52 C20.04 3.08 36 6.84 52 12 C52.93 12.3 53.86 12.59 54.82 12.9 C65.2 16.24 75.47 19.83 85.65 23.74 C87.86 24.57 90.08 25.36 92.32 26.11 C95.77 27.26 98.9 28.95 102.16 30.58 C103.57 31.29 104.99 31.99 106.4 32.7 C109.94 34.47 113.47 36.23 117 38.02 C117.62 38.33 118.24 38.64 118.88 38.97 C120.59 39.83 122.3 40.69 124.01 41.55 C126.64 42.83 129.27 43.96 132 45 C132 45.66 132 46.32 132 47 C133.22 47.23 134.43 47.45 135.69 47.69 C140.07 48.51 141.92 50.88 145 54 C147.43 55.8 149.96 57.43 152.5 59.06 C158.07 62.67 163.28 66.48 168.31 70.81 C168.9 71.32 169.5 71.83 170.11 72.36 C172.8 74.69 175.48 77.05 178.15 79.41 C179.62 80.68 181.15 81.88 182.69 83.06 C185.52 85.43 187.67 88.14 190 91 C192.42 93.54 194.76 95.82 197.56 97.94 C200.38 100.32 202.02 102.9 204 106 C205.5 107.67 205.5 107.67 207 109 C209.88 111.76 211.85 114.76 214 118.12 C215.69 121.04 215.69 121.04 218 122 C219.36 124.27 220.56 126.61 221.78 128.97 C222.84 131.14 222.84 131.14 225 132 C225.9 133.8 226.79 135.6 227.66 137.41 C231.04 143.94 235.1 150.16 239.18 156.26 C241.31 159.47 242.78 162.35 244 166 C245.5 168.79 247.06 171.55 248.62 174.31 C249.82 176.65 250.4 178.48 251 181 C252.26 183.84 253.6 186.64 254.94 189.44 C256 192 256 192 256 195 C256.66 195.33 257.32 195.66 258 196 C258.9 198.21 258.9 198.21 259.8 201.15 C260.14 202.23 260.47 203.31 260.82 204.42 C261.17 205.58 261.52 206.74 261.88 207.94 C262.23 209.11 262.59 210.28 262.96 211.48 C265.78 220.9 268.11 230.36 270 240 C272.18 233.72 272.47 227.68 272.69 221.06 C272.73 219.95 272.76 218.84 272.8 217.69 C273.34 199.28 270.8 183.08 265.06 165.62 C264.56 164.09 264.56 164.09 264.04 162.53 C262.09 156.74 259.84 151.4 257 146 C256.32 144.33 256.32 144.33 255.62 142.62 C253.84 138.64 251.7 135.04 249.4 131.33 C248.15 129.26 247.07 127.17 246 125 C245.19 123.59 244.35 122.2 243.5 120.81 C243.08 120.12 242.65 119.42 242.22 118.71 C241.1 116.85 241.1 116.85 239 116 C235 110 235 110 235 108 C234.01 107.67 233.02 107.34 232 107 C229.81 104.03 228.17 101.51 227 98 C226.01 97.67 225.02 97.34 224 97 C222 95 222 95 220.19 92.69 C218.01 89.91 218.01 89.91 215.25 87.31 C213 85 213 85 213 83 C211.68 82.34 210.36 81.68 209 81 C209 80.34 209 79.68 209 79 C208.13 78.63 208.13 78.63 207.25 78.25 C204.7 76.83 203.05 75.05 201 73 C200.01 72.67 199.02 72.34 198 72 C196.98 71.02 195.98 70.02 195 69 C194.01 68.34 193.02 67.68 192 67 C192 66.34 192 65.68 192 65 C191.24 64.9 190.47 64.79 189.69 64.69 C186.73 63.93 186.04 63.13 184 61 C181.9 60.29 181.9 60.29 180 60 C180 59.34 180 58.68 180 58 C179.01 57.67 178.02 57.34 177 57 C177.33 56.01 177.66 55.02 178 54 C189.62 56.61 200.71 60.19 211.9 64.25 C213.74 64.91 215.6 65.53 217.46 66.15 C220 67 220 67 222 68 C224.33 69 226.66 70.01 229 71 C229 71.66 229 72.32 229 73 C229.87 73.27 230.73 73.54 231.62 73.81 C234.92 74.97 237.91 76.38 241 78 C241 78.66 241 79.32 241 80 C241.82 80.21 242.64 80.42 243.49 80.63 C247.99 82.39 251.34 84.98 255.12 87.94 C255.83 88.48 256.53 89.01 257.25 89.57 C258.6 90.6 259.93 91.63 261.27 92.67 C262.65 93.73 264.07 94.75 265.49 95.75 C265.99 96.17 266.49 96.58 267 97 C267 97.66 267 98.32 267 99 C267.6 99.27 268.2 99.54 268.81 99.81 C271 101 272.41 102.1 274 104 C274 104.66 274 105.32 274 106 C275.32 106.66 276.64 107.32 278 108 C278 108.66 278 109.32 278 110 C278.99 110.33 279.98 110.66 281 111 C283.2 113.2 285.06 115.56 287 118 C288.21 119.39 288.21 119.39 289.44 120.81 C297 129.85 297 129.85 297 134 C297.66 134 298.32 134 299 134 C304.86 145.72 304.86 145.72 305.93 147.87 C306.64 149.27 307.34 150.68 308.05 152.08 C324.91 185.46 329.38 217.31 325.18 254.18 C324.97 256.03 324.97 256.03 325 258 C324.34 258 323.68 258 323 258 C322.95 258.64 322.9 259.28 322.85 259.94 C322.49 264.09 322.06 267.81 320.88 271.81 C319.96 275.15 320.03 276.73 321 280 C321.19 280.76 321.37 281.53 321.56 282.31 C321.71 282.87 321.85 283.43 322 284 C322.66 284 323.32 284 324 284 C325.16 285.77 326.23 287.59 327.25 289.44 C331.83 298.91 331.83 298.91 339 306 C339.94 307.65 340.8 309.35 341.62 311.06 C342.15 312.14 342.67 313.23 343.21 314.34 C343.64 315.22 343.64 315.22 344.08 316.12 C345.05 318.1 346.05 320.05 347.07 322 C350.49 328.64 353.69 334.95 355.43 342.28 C355.62 342.85 355.81 343.41 356 344 C356.66 344.33 357.32 344.66 358 345 C360.41 351.06 361.66 357.63 363 364 C363.66 364 364.32 364 365 364 C365.11 364.57 365.22 365.14 365.33 365.72 C366.13 369.61 366.98 373.25 368.62 376.88 C370 380 370 380 370 383 C370.66 383.33 371.32 383.66 372 384 C372.64 385.83 372.64 385.83 373.25 388.25 C374.75 393.54 376.88 398.31 379.25 403.27 C380.59 406.09 381.85 408.93 383.1 411.8 C383.45 412.62 383.81 413.44 384.18 414.28 C384.89 415.91 385.59 417.54 386.28 419.17 C387.8 423.3 387.8 423.3 391 426 C391.69 427.77 391.69 427.77 392.34 430.04 C393.86 434.85 395.98 438.97 398.5 443.31 C399.39 444.87 400.27 446.44 401.16 448 C401.62 448.81 402.08 449.62 402.56 450.45 C405.06 454.88 407.5 459.35 409.94 463.81 C413.83 472.53 413.83 472.53 420 479 C420.68 480.39 420.68 480.39 421.38 481.81 C422.79 485.01 422.79 485.01 425.06 487 C427.45 489.47 428.01 491.75 429 495 C429.66 495.66 430.32 496.32 431 497 C432.05 498.57 433.06 500.15 434.06 501.75 C436.11 505.02 438.17 508.28 440.32 511.49 C448.22 523.34 452.39 532.49 451 547 C449.59 552.61 449.59 552.61 446 555 C440.63 554.49 436.55 551.66 432 549 C431.01 548.48 430.02 547.97 429 547.44 C427 546 427 546 426.19 543.81 C426.09 542.92 426.09 542.92 426 542 C424.35 542 422.7 542 421 542 C421.66 543.65 422.32 545.3 423 547 C423.33 547 423.66 547 424 547 C424.66 549.64 425.32 552.28 426 555 C426.66 555 427.32 555 428 555 C432.55 559.7 434.54 564.94 435.5 571.31 C434.62 577.83 432.17 583.98 427.31 588.5 C426.55 589 425.79 589.49 425 590 C424.34 590.99 423.68 591.98 423 593 C415.42 597.9 407.87 599.27 399 598 C390.41 595.75 382.64 591.39 374.91 587.12 C371.01 584.98 367.3 583.26 363 582 C365.68 584.84 368.28 587.28 371.5 589.5 C374.7 591.71 377.25 594.25 380 597 C383.29 599.72 386.64 602.37 390 605 C389.69 606.94 389.69 606.94 389 609 C388.01 609.33 387.02 609.66 386 610 C386 610.66 386 611.32 386 612 C378.78 614.42 371.88 615.32 364.31 615.38 C363.14 615.4 363.14 615.4 361.94 615.42 C354.97 615.36 348.62 614.31 343.28 609.59 C342.53 608.74 341.77 607.88 341 607 C339.21 605.48 337.39 603.98 335.56 602.5 C334.6 601.72 333.64 600.94 332.65 600.14 C331.15 598.93 329.64 597.72 328.13 596.52 C325.15 594.13 322.78 591.56 320.39 588.59 C314.53 581.89 305.91 573.96 298 570 C297.34 569.34 296.68 568.68 296 568 C291 563.9 291 563.9 285.31 560.94 C282.15 559.66 280.4 557.4 278 555 C276.35 554.29 274.69 553.61 273 553 C272.67 552.34 272.34 551.68 272 551 C270.34 550.02 268.69 549.05 267 548.12 C265.04 547.02 263.14 545.85 261.24 544.63 C254.17 540.12 247.17 535.91 239.58 532.3 C237.27 531.14 235.29 529.86 233.19 528.38 C225.62 523.48 213.93 520.61 205 522 C201.58 522.77 198.23 523.6 195 525 C194.67 525.66 194.34 526.32 194 527 C192.15 527.63 192.15 527.63 189.94 528.12 C189.2 528.29 188.47 528.46 187.71 528.63 C187.15 528.75 186.58 528.88 186 529 C186 529.66 186 530.32 186 531 C185.13 531.68 184.27 532.36 183.38 533.06 C170.97 543.08 164.66 562.73 162 578 C160.21 605.61 165.49 639.98 178 665 C178.27 666.26 178.54 667.52 178.81 668.81 C180.36 676.02 182.67 683.02 185 690 C185.38 691.38 185.75 692.77 186.12 694.16 C186.33 694.95 186.55 695.75 186.77 696.56 C187.21 698.23 187.66 699.9 188.1 701.57 C188.31 702.36 188.52 703.16 188.75 703.97 C188.94 704.7 189.13 705.42 189.33 706.17 C189.93 708.21 189.93 708.21 192 710 C192.56 712.51 193.03 714.97 193.44 717.5 C194.41 723.15 195.6 728.55 197.45 733.98 C198 736 198 736 198 740 C198.66 740.33 199.32 740.66 200 741 C200.67 743.13 200.67 743.13 201.25 745.92 C201.47 746.93 201.68 747.93 201.9 748.97 C202.12 750.03 202.34 751.09 202.56 752.19 C202.78 753.23 203 754.27 203.23 755.35 C205.56 766.4 205.56 766.4 206 770 C205.67 770.33 205.34 770.66 205 771 C199.03 770.69 195.34 768.75 190.5 765.56 C185.69 762.42 181.59 760.57 176 759 C174.99 758.01 173.99 757.01 173 756 C169.8 753.96 166.45 752.19 163.12 750.38 C162.23 749.87 161.33 749.37 160.4 748.85 C159.53 748.37 158.66 747.89 157.76 747.4 C156.97 746.96 156.17 746.53 155.36 746.08 C153 744.89 153 744.89 150.27 744.48 C149.52 744.32 148.77 744.16 148 744 C147.67 743.34 147.34 742.68 147 742 C145.37 741.08 143.69 740.24 142 739.44 C136.87 736.94 131.83 734.33 126.81 731.62 C118.35 727.1 109.71 723.02 101 719 C99.27 718.13 97.57 717.2 95.88 716.26 C89.41 712.68 83.32 709.34 76.05 707.67 C74 707 74 707 72.14 705.58 C70.05 704.04 68.16 703.06 65.77 702.06 C64.97 701.72 64.16 701.39 63.33 701.04 C62.5 700.7 61.67 700.35 60.81 700 C60 699.66 59.19 699.31 58.35 698.96 C53.54 696.95 48.72 695.2 43.72 693.71 C42 693 42 693 41 691 C39.31 690.18 39.31 690.18 37.25 689.53 C36.12 689.14 36.12 689.14 34.97 688.74 C34.17 688.48 33.38 688.21 32.56 687.94 C31 687.41 29.44 686.87 27.88 686.34 C27.18 686.11 26.49 685.87 25.77 685.63 C24 685 24 685 22 684 C-0.46 673.77 -0.46 673.77 -24 667 C-24 666.34 -24 665.68 -24 665 C-24.59 664.88 -25.18 664.76 -25.79 664.63 C-30.07 663.73 -33.95 662.64 -38 661 C-39.05 660.84 -40.1 660.67 -41.19 660.5 C-44 660 -44 660 -46 658 C-48.56 657.07 -51.09 656.23 -53.69 655.44 C-54.73 655.11 -54.73 655.11 -55.79 654.77 C-59.2 653.71 -62.34 652.95 -65.89 652.47 C-69 652 -69 652 -71 650 C-73.62 649.08 -76.22 648.23 -78.88 647.44 C-79.96 647.11 -79.96 647.11 -81.06 646.77 C-83.72 645.96 -86.38 645.15 -89.08 644.48 C-91 644 -91 644 -93.55 643.14 C-98.38 641.54 -103.25 640.12 -108.12 638.69 C-109.18 638.38 -110.23 638.07 -111.32 637.75 C-119.02 635.51 -126.76 633.48 -134.58 631.69 C-144.71 629.29 -144.71 629.29 -148 626 C-148.57 618.42 -146.9 612.54 -144.38 605.44 C-144.01 604.39 -143.65 603.33 -143.28 602.25 C-140.94 595.5 -138.46 588.8 -135.88 582.13 C-134.55 578.66 -133.5 575.27 -132.75 571.62 C-132 568 -132 568 -130 566 C-129.39 563.68 -128.99 561.36 -128.56 559 C-128.28 558.01 -128.28 558.01 -128 557 C-127.34 556.67 -126.68 556.34 -126 556 C-125.84 555.01 -125.67 554.02 -125.5 553 C-125.34 552.01 -125.17 551.02 -125 550 C-124.34 549.67 -123.68 549.34 -123 549 C-122.07 547.12 -121.23 545.19 -120.44 543.25 C-120 542.2 -119.57 541.16 -119.12 540.08 C-117.94 537.09 -117.94 537.09 -117.47 534.17 C-117.32 533.46 -117.16 532.74 -117 532 C-116.34 531.67 -115.68 531.34 -115 531 C-113.57 528.41 -112.23 525.84 -110.94 523.19 C-110.39 522.1 -110.39 522.1 -109.83 520.99 C-108.19 517.67 -106.8 514.63 -106 511 C-105.34 511 -104.68 511 -104 511 C-103.66 509.8 -103.66 509.8 -103.32 508.57 C-101.64 504.03 -99.34 500.01 -96.94 495.81 C-96.03 494.22 -95.12 492.62 -94.21 491.02 C-93.81 490.32 -93.41 489.62 -93 488.9 C-91.87 486.87 -91.87 486.87 -91 484 C-90.02 482.98 -89.01 481.99 -88 481 C-87.16 479.79 -86.36 478.56 -85.59 477.31 C-85.16 476.61 -84.72 475.92 -84.28 475.2 C-83.84 474.47 -83.39 473.75 -82.94 473 C-82.05 471.56 -81.16 470.12 -80.28 468.69 C-79.89 468.05 -79.5 467.42 -79.1 466.76 C-78.1 465.15 -77.05 463.58 -76 462 C-75.57 461.22 -75.13 460.43 -74.69 459.62 C-73 457 -73 457 -70.44 454.5 C-67.9 452.22 -67.9 452.22 -67 449.5 C-65.68 446.21 -63.52 444.46 -61 442 C-60.5 441.15 -60.01 440.31 -59.5 439.44 C-58 437 -58 437 -55.69 435.25 C-53.12 433.1 -51.88 431.42 -50.12 428.62 C-47.68 424.79 -45.12 422.14 -41.58 419.32 C-39.82 417.94 -39.82 417.94 -38.06 415.56 C-35.64 412.55 -32.89 410.21 -29.96 407.7 C-26.79 404.95 -23.91 401.94 -21 398.94 C-14.87 393 -14.87 393 -12 393 C-11.67 392.01 -11.34 391.02 -11 390 C-9.51 388.79 -9.51 388.79 -7.69 387.62 C-5.22 385.96 -3.82 384.77 -1.94 382.38 C0.39 379.53 2.69 378.51 6 377 C6.66 376.34 7.32 375.68 8 375 C10.12 374.38 10.12 374.38 12 374 C12 373.34 12 372.68 12 372 C13.32 371.67 14.64 371.34 16 371 C16 370.34 16 369.68 16 369 C17.98 367.55 17.98 367.55 20.75 365.88 C24.76 363.4 28.72 360.88 32.62 358.25 C36.8 355.45 41.01 352.7 45.24 349.97 C64.6 338.21 64.6 338.21 82 324 C83.16 323.13 84.33 322.28 85.5 321.44 C91.45 317.02 97.05 312.08 102.17 306.73 C104 305 104 305 106 305 C106.37 304.16 106.37 304.16 106.75 303.31 C108.9 299.33 111.82 296.18 115 293 C115.66 292.15 116.32 291.31 117 290.44 C119 288 119 288 122 286 C122.35 283.48 122.35 283.48 122.15 280.52 C122.12 279.39 122.09 278.26 122.06 277.09 C122.02 275.86 121.98 274.64 121.94 273.38 C121.53 246.16 126.78 214.71 143 192 C146 190 146 190 148.06 190.31 C151.81 191.64 151.81 191.64 153.22 194.25 C154.07 196.08 154.93 197.92 155.78 199.75 C156.8 202.14 156.8 202.14 159 203 C159.78 204.86 159.78 204.86 160.5 207.19 C160.76 208 161.01 208.8 161.28 209.64 C161.87 211.59 162.47 213.55 163.06 215.5 C163.73 218.15 163.73 218.15 166 219 C167.08 221.87 168.04 224.7 168.94 227.62 C169.2 228.48 169.47 229.33 169.74 230.21 C172.62 239.69 174.39 249.23 176 259 C176.48 257.31 176.96 255.63 177.44 253.94 C177.7 253 177.97 252.06 178.25 251.09 C183.33 230.24 178.07 210.6 170.77 191.1 C169.79 188.42 168.88 185.71 168 183 C167.34 183 166.68 183 166 183 C165.88 182.03 165.75 181.06 165.62 180.06 C165.42 179.05 165.21 178.04 165 177 C164.34 176.67 163.68 176.34 163 176 C162.07 174.29 162.07 174.29 161.12 172.19 C159.51 168.79 157.72 166.62 155 164 C154.88 163.43 154.76 162.85 154.63 162.26 C151.62 151.5 138.81 137.62 131 130 C129.8 128.66 128.61 127.3 127.44 125.94 C125.37 123.53 123.27 121.22 121 119 C117 115 113 111 109 107 C108.22 106.4 107.43 105.8 106.62 105.19 C104 103 104 103 101.94 100.38 C99.98 97.98 98.75 97.24 96 96 C94.25 94.5 94.25 94.5 93 93 C93 92.34 93 91.68 93 91 C92.28 90.94 91.56 90.88 90.81 90.81 C87.12 89.75 85.69 87.73 83 85 C74.68 78.29 65.58 72.83 56.38 67.44 C55.32 66.82 54.26 66.2 53.18 65.56 C52.18 64.98 51.18 64.4 50.15 63.81 C48.81 63.03 48.81 63.03 47.44 62.24 C45.25 61.13 43.39 60.46 41 60 C41 59.34 41 58.68 41 58 C40.33 57.74 39.66 57.49 38.98 57.22 C34.69 55.46 30.53 53.46 26.35 51.48 C23.59 50.18 20.9 48.97 18 48 C15.41 46.84 12.85 45.65 10.28 44.45 C2.47 41 -5.48 38.04 -13.56 35.31 C-14.44 35.01 -15.32 34.7 -16.23 34.38 C-20.55 32.93 -24.55 31.83 -29.09 31.42 C-30.38 31.28 -31.67 31.14 -33 31 C-33.33 30.34 -33.66 29.68 -34 29 C-36.85 28.08 -36.85 28.08 -40.36 27.34 C-41.01 27.2 -41.66 27.05 -42.33 26.9 C-44.47 26.42 -46.61 25.96 -48.75 25.5 C-49.85 25.26 -49.85 25.26 -50.96 25.02 C-78.46 19.14 -106 18.9 -134 21 C-133.24 17.22 -133.24 17.22 -131.06 15.25 C-129 14 -129 14 -127 14 C-126.67 13.34 -126.34 12.68 -126 12 C-114.8 5.42 -102.67 2.37 -90 0 C-89.13 -0.17 -88.26 -0.33 -87.36 -0.5 C-59.05 -5.58 -28.3 -4.53 0 0 Z M235 334 C240.89 339.46 240.89 339.46 248 342 C248.21 342.8 248.41 343.61 248.62 344.44 C250.41 349.05 252.86 353.16 256 357 C256.66 357 257.32 357 258 357 C258.11 357.6 258.21 358.2 258.32 358.81 C259.56 362.81 262.58 364.8 266 367 C272.51 370.05 278.96 371.18 286.06 371.81 C292.8 372.41 297.31 374.4 302.67 378.54 C305.36 380.22 306.88 380.3 310 380 C307.92 374.15 304.72 369.62 301 364.67 C299.31 362.42 297.71 360.14 296.12 357.81 C295.07 356.42 295.07 356.42 294 355 C293.34 355 292.68 355 292 355 C291.34 353.68 290.68 352.36 290 351 C289.01 351 288.02 351 287 351 C286.34 349.68 285.68 348.36 285 347 C284.34 347 283.68 347 283 347 C282.5 345.51 282.5 345.51 282 344 C275.36 337.57 266.48 333.86 257.36 333.9 C256.06 333.91 254.77 333.91 253.43 333.91 C252.06 333.92 250.68 333.93 249.31 333.94 C247.93 333.94 246.55 333.95 245.16 333.95 C241.77 333.96 238.39 333.98 235 334 Z M420 539 C421 542 421 542 421 542 Z " fill="#FDFDFD" transform="translate(149,3)"/>
<path d="M0 0 C4.55 2.64 9.03 5.62 12.68 9.44 C14.19 11.07 14.19 11.07 17.12 11.81 C19.38 14.62 19.38 14.62 21.12 17.81 C20.73 20.01 20.73 20.01 20.12 21.81 C17.77 22.11 15.42 22.4 13.06 22.69 C12.3 22.78 11.55 22.87 10.77 22.97 C6.44 23.48 2.13 23.91 -2.21 24.21 C-17.04 25.28 -31.35 27.7 -45.88 30.81 C-46.72 30.99 -47.56 31.17 -48.43 31.35 C-57.47 33.28 -66.19 35.76 -74.9 38.86 C-77.88 39.81 -77.88 39.81 -80.88 39.81 C-80.52 37.22 -80.13 36.05 -78.19 34.24 C-72.62 30.5 -66.94 26.95 -61.19 23.5 C-60.48 23.07 -59.76 22.63 -59.03 22.19 C-54.71 19.64 -50.76 17.97 -45.88 16.81 C-45.88 16.15 -45.88 15.49 -45.88 14.81 C-43.54 13.61 -41.38 12.65 -38.88 11.81 C-37.34 11.12 -35.82 10.4 -34.3 9.67 C-33.41 9.24 -32.51 8.81 -31.59 8.37 C-30.65 7.91 -29.71 7.46 -28.75 7 C-25.13 5.26 -21.51 3.53 -17.88 1.81 C-16.6 1.21 -16.6 1.21 -15.3 0.59 C-14.51 0.23 -13.71 -0.14 -12.89 -0.52 C-12.19 -0.84 -11.49 -1.17 -10.77 -1.5 C-6.75 -2.95 -3.76 -1.55 0 0 Z " fill="#FCFCFC" transform="translate(209.875,91.1875)"/>
<path d="M0 0 C0.66 0.99 1.32 1.98 2 3 C4.06 3.72 4.06 3.72 6 4 C5.67 4.66 5.34 5.32 5 6 C4.01 6 3.02 6 2 6 C2.33 6.99 2.66 7.98 3 9 C2.01 8.67 1.02 8.34 0 8 C0 7.34 0 6.68 0 6 C-1.32 5.67 -2.64 5.34 -4 5 C-3 2 -3 2 0 0 Z " fill="#E6E6E6" transform="translate(341,62)"/>
<path d="M0 0 C7.81 6.12 7.81 6.12 10 11 C9.34 11 8.68 11 8 11 C8 10.34 8 9.68 8 9 C7.13 8.88 7.13 8.88 6.25 8.75 C3.29 7.76 1.94 6.42 0 4 C0 2.68 0 1.36 0 0 Z " fill="#EAEAEA" transform="translate(439,352)"/>
<path d="M0 0 C0.33 0 0.66 0 1 0 C1 7.59 1 15.18 1 23 C0.67 23 0.34 23 0 23 C0 15.41 0 7.82 0 0 Z " fill="#FFFFFF" transform="translate(311,581)"/>
<path d="M0 0 C0.66 1.32 1.32 2.64 2 4 C1.34 4 0.68 4 0 4 C-0.33 4.99 -0.66 5.98 -1 7 C-1.99 6.67 -2.98 6.34 -4 6 C-1.12 1.12 -1.12 1.12 0 0 Z " fill="#ECECEC" transform="translate(316,173)"/>
<path d="M0 0 C2.64 0 5.28 0 8 0 C8 0.33 8 0.66 8 1 C5.36 1 2.72 1 0 1 C0 0.67 0 0.34 0 0 Z " fill="#FFFFFF" transform="translate(355,525)"/>
<path d="M0 0 C2.31 0 4.62 0 7 0 C7 0.33 7 0.66 7 1 C4.69 1 2.38 1 0 1 C0 0.67 0 0.34 0 0 Z " fill="#FFFFFF" transform="translate(434,373)"/>
<path d="M0 0 C0.33 0 0.66 0 1 0 C1 2.31 1 4.62 1 7 C0.67 7 0.34 7 0 7 C0 4.69 0 2.38 0 0 Z " fill="#FFFFFF" transform="translate(476,238)"/>
<path d="M0 0 C0.33 0 0.66 0 1 0 C1 2.31 1 4.62 1 7 C0.67 7 0.34 7 0 7 C0 4.69 0 2.38 0 0 Z " fill="#FFFFFF" transform="translate(476,210)"/>
<path d="M0 0 C2.31 0 4.62 0 7 0 C7 0.33 7 0.66 7 1 C4.69 1 2.38 1 0 1 C0 0.67 0 0.34 0 0 Z " fill="#FFFFFF" transform="translate(190,117)"/>
<path d="M0 0 C1.98 0 3.96 0 6 0 C6 0.33 6 0.66 6 1 C4.02 1 2.04 1 0 1 C0 0.67 0 0.34 0 0 Z " fill="#FFFFFF" transform="translate(159,4)"/>
<path d="M0 0 C0.33 0 0.66 0 1 0 C1 1.65 1 3.3 1 5 C0.67 5 0.34 5 0 5 C0 3.35 0 1.7 0 0 Z " fill="#FFFFFF" transform="translate(271,249)"/>
<path d="M0 0 C1 4 1 4 1 4 Z " fill="#FFFFFF" transform="translate(351,751)"/>
<path d="M0 0 C4 1 4 1 4 1 Z " fill="#FFFFFF" transform="translate(552,602)"/>
<path d="M0 0 C1 4 1 4 1 4 Z " fill="#FFFFFF" transform="translate(585,572)"/>
<path d="M0 0 C1 4 1 4 1 4 Z " fill="#BFBFBF" transform="translate(469,278)"/>
<path d="M0 0 C1 4 1 4 1 4 Z " fill="#FFFFFF" transform="translate(327,246)"/>
<path d="M0 0 C1 4 1 4 1 4 Z " fill="#FFFFFF" transform="translate(419,238)"/>
<path d="M0 0 C1 4 1 4 1 4 Z " fill="#FFFFFF" transform="translate(327,222)"/>
<path d="M0 0 C4 1 4 1 4 1 Z " fill="#FFFFFF" transform="translate(174,120)"/>
<path d="M0 0 C4 1 4 1 4 1 Z " fill="#FFFFFF" transform="translate(79,25)"/>
<path d="M0 0 C4 1 4 1 4 1 Z " fill="#FFFFFF" transform="translate(47,4)"/>
<path d="M0 0 C4 1 4 1 4 1 Z " fill="#FFFFFF" transform="translate(143,1)"/>
<path d="M0 0 C4 1 4 1 4 1 Z " fill="#FFFFFF" transform="translate(61,1)"/>
<path d="" fill="#FFFFFF" transform="translate(0,0)"/>
<path d="" fill="#FFFFFF" transform="translate(0,0)"/>
<path d="" fill="#FFFFFF" transform="translate(0,0)"/>
<path d="" fill="#FFFFFF" transform="translate(0,0)"/>
<path d="" fill="#FFFFFF" transform="translate(0,0)"/>
<path d="" fill="#FFFFFF" transform="translate(0,0)"/>
<path d="" fill="#FFFFFF" transform="translate(0,0)"/>
<path d="M0 0 C3 1 3 1 3 1 Z " fill="#FFFFFF" transform="translate(185,118)"/>
<path d="M0 0 C3 1 3 1 3 1 Z " fill="#FFFFFF" transform="translate(98,29)"/>
<path d="M0 0 C3 1 3 1 3 1 Z " fill="#FFFFFF" transform="translate(85,26)"/>
<path d="M0 0 C3 1 3 1 3 1 Z " fill="#FFFFFF" transform="translate(191,11)"/>
<path d="M0 0 C2 1 2 1 2 1 Z " fill="#FFFFFF" transform="translate(330,764)"/>
<path d="" fill="#FFFFFF" transform="translate(0,0)"/>
<path d="" fill="#FFFFFF" transform="translate(0,0)"/>
<path d="M0 0 C2 1 2 1 2 1 Z " fill="#FFFFFF" transform="translate(231,713)"/>
<path d="" fill="#FFFFFF" transform="translate(0,0)"/>
<path d="M0 0 C2 1 2 1 2 1 Z " fill="#FFFFFF" transform="translate(197,698)"/>
<path d="M0 0 C2 1 2 1 2 1 Z " fill="#FFFFFF" transform="translate(160,683)"/>
<path d="M0 0 C2 1 2 1 2 1 Z " fill="#FFFFFF" transform="translate(153,680)"/>
<path d="M0 0 C2 1 2 1 2 1 Z " fill="#FFFFFF" transform="translate(112,665)"/>
<path d="M0 0 C2 1 2 1 2 1 Z " fill="#FFFFFF" transform="translate(89,657)"/>
<path d="M0 0 C2 1 2 1 2 1 Z " fill="#FFFFFF" transform="translate(67,650)"/>
<path d="M0 0 C2 1 2 1 2 1 Z " fill="#FFFFFF" transform="translate(64,649)"/>
<path d="M0 0 C2 1 2 1 2 1 Z " fill="#FFFFFF" transform="translate(30,639)"/>
<path d="M0 0 C2 1 2 1 2 1 Z " fill="#FFFFFF" transform="translate(4,632)"/>
<path d="M0 0 C2 1 2 1 2 1 Z " fill="#FFFFFF" transform="translate(528,617)"/>
<path d="M0 0 C2 1 2 1 2 1 Z " fill="#FFFFFF" transform="translate(546,601)"/>
<path d="" fill="#FFFFFF" transform="translate(0,0)"/>
<path d="" fill="#FFFFFF" transform="translate(0,0)"/>
<path d="" fill="#FFFFFF" transform="translate(0,0)"/>
<path d="M0 0 C2 1 2 1 2 1 Z " fill="#FFFFFF" transform="translate(376,529)"/>
<path d="" fill="#FFFFFF" transform="translate(0,0)"/>
<path d="" fill="#FFFFFF" transform="translate(0,0)"/>
<path d="" fill="#FFFFFF" transform="translate(0,0)"/>
<path d="" fill="#FFFFFF" transform="translate(0,0)"/>
<path d="" fill="#FFFFFF" transform="translate(0,0)"/>
<path d="" fill="#FFFFFF" transform="translate(0,0)"/>
<path d="" fill="#FFFFFF" transform="translate(0,0)"/>
<path d="" fill="#FFFFFF" transform="translate(0,0)"/>
<path d="" fill="#FFFFFF" transform="translate(0,0)"/>
<path d="" fill="#FFFFFF" transform="translate(0,0)"/>
<path d="M0 0 C2 1 2 1 2 1 Z " fill="#FFFFFF" transform="translate(150,125)"/>
<path d="M0 0 C2 1 2 1 2 1 Z " fill="#FFFFFF" transform="translate(182,96)"/>
<path d="M0 0 C2 1 2 1 2 1 Z " fill="#FFFFFF" transform="translate(351,63)"/>
<path d="M0 0 C2 1 2 1 2 1 Z " fill="#FFFFFF" transform="translate(343,60)"/>
<path d="M0 0 C2 1 2 1 2 1 Z " fill="#FFFFFF" transform="translate(150,44)"/>
<path d="M0 0 C2 1 2 1 2 1 Z " fill="#FFFFFF" transform="translate(147,43)"/>
<path d="M0 0 C2 1 2 1 2 1 Z " fill="#FFFFFF" transform="translate(126,36)"/>
<path d="M0 0 C2 1 2 1 2 1 Z " fill="#FFFFFF" transform="translate(123,35)"/>
<path d="M0 0 C2 1 2 1 2 1 Z " fill="#FFFFFF" transform="translate(94,28)"/>
<path d="M0 0 C2 1 2 1 2 1 Z " fill="#FFFFFF" transform="translate(224,22)"/>
<path d="M0 0 C2 1 2 1 2 1 Z " fill="#FFFFFF" transform="translate(216,19)"/>
<path d="M0 0 C2 1 2 1 2 1 Z " fill="#FFFFFF" transform="translate(203,15)"/>
<path d="M0 0 C2 1 2 1 2 1 Z " fill="#FFFFFF" transform="translate(195,12)"/>
<path d="M0 0 C2 1 2 1 2 1 Z " fill="#FFFFFF" transform="translate(185,9)"/>
<path d="M0 0 C2 1 2 1 2 1 Z " fill="#FFFFFF" transform="translate(155,3)"/>
<path d="" fill="#FFFFFF" transform="translate(0,0)"/>
<path d="" fill="#FFFFFF" transform="translate(0,0)"/>
<path d="" fill="#FFFFFF" transform="translate(0,0)"/>
<path d="" fill="#FFFFFF" transform="translate(0,0)"/>
<path d="" fill="#FFFFFF" transform="translate(0,0)"/>
<path d="" fill="#FFFFFF" transform="translate(0,0)"/>
<path d="" fill="#FFFFFF" transform="translate(0,0)"/>
<path d="" fill="#FFFFFF" transform="translate(0,0)"/>
<path d="" fill="#FFFFFF" transform="translate(0,0)"/>
<path d="" fill="#FFFFFF" transform="translate(0,0)"/>
<path d="" fill="#FFFFFF" transform="translate(0,0)"/>
<path d="" fill="#FFFFFF" transform="translate(0,0)"/>
<path d="" fill="#FFFFFF" transform="translate(0,0)"/>
<path d="" fill="#FFFFFF" transform="translate(0,0)"/>
<path d="" fill="#FFFFFF" transform="translate(0,0)"/>
<path d="" fill="#FFFFFF" transform="translate(0,0)"/>
<path d="" fill="#FFFFFF" transform="translate(0,0)"/>
<path d="" fill="#FFFFFF" transform="translate(0,0)"/>
<path d="" fill="#FFFFFF" transform="translate(0,0)"/>
<path d="" fill="#FFFFFF" transform="translate(0,0)"/>
<path d="" fill="#FFFFFF" transform="translate(0,0)"/>
<path d="" fill="#FFFFFF" transform="translate(0,0)"/>
<path d="" fill="#FFFFFF" transform="translate(0,0)"/>
<path d="" fill="#FFFFFF" transform="translate(0,0)"/>
<path d="" fill="#FFFFFF" transform="translate(0,0)"/>
<path d="" fill="#FFFFFF" transform="translate(0,0)"/>
<path d="" fill="#FFFFFF" transform="translate(0,0)"/>
<path d="" fill="#FFFFFF" transform="translate(0,0)"/>
<path d="" fill="#FFFFFF" transform="translate(0,0)"/>
<path d="" fill="#FFFFFF" transform="translate(0,0)"/>
<path d="" fill="#FFFFFF" transform="translate(0,0)"/>
<path d="" fill="#FFFFFF" transform="translate(0,0)"/>
<path d="" fill="#FFFFFF" transform="translate(0,0)"/>
<path d="" fill="#FFFFFF" transform="translate(0,0)"/>
<path d="" fill="#FFFFFF" transform="translate(0,0)"/>
<path d="" fill="#FFFFFF" transform="translate(0,0)"/>
<path d="" fill="#FFFFFF" transform="translate(0,0)"/>
<path d="" fill="#FFFFFF" transform="translate(0,0)"/>
<path d="" fill="#FFFFFF" transform="translate(0,0)"/>
<path d="" fill="#FFFFFF" transform="translate(0,0)"/>
<path d="" fill="#FFFFFF" transform="translate(0,0)"/>
<path d="" fill="#FFFFFF" transform="translate(0,0)"/>
<path d="" fill="#FFFFFF" transform="translate(0,0)"/>
<path d="" fill="#FFFFFF" transform="translate(0,0)"/>
<path d="" fill="#FFFFFF" transform="translate(0,0)"/>
<path d="" fill="#FFFFFF" transform="translate(0,0)"/>
<path d="" fill="#FFFFFF" transform="translate(0,0)"/>
<path d="" fill="#FFFFFF" transform="translate(0,0)"/>
<path d="" fill="#FFFFFF" transform="translate(0,0)"/>
<path d="" fill="#FFFFFF" transform="translate(0,0)"/>
<path d="" fill="#FFFFFF" transform="translate(0,0)"/>
<path d="" fill="#FFFFFF" transform="translate(0,0)"/>
<path d="" fill="#FFFFFF" transform="translate(0,0)"/>
<path d="" fill="#FFFFFF" transform="translate(0,0)"/>
<path d="" fill="#FFFFFF" transform="translate(0,0)"/>
<path d="" fill="#FFFFFF" transform="translate(0,0)"/>
<path d="" fill="#000000" transform="translate(0,0)"/>
<path d="" fill="#FFFFFF" transform="translate(0,0)"/>
<path d="" fill="#FFFFFF" transform="translate(0,0)"/>
<path d="" fill="#FFFFFF" transform="translate(0,0)"/>
<path d="" fill="#FFFFFF" transform="translate(0,0)"/>
<path d="" fill="#FFFFFF" transform="translate(0,0)"/>
<path d="" fill="#FFFFFF" transform="translate(0,0)"/>
<path d="" fill="#FFFFFF" transform="translate(0,0)"/>
<path d="" fill="#FFFFFF" transform="translate(0,0)"/>
<path d="" fill="#FFFFFF" transform="translate(0,0)"/>
<path d="" fill="#FFFFFF" transform="translate(0,0)"/>
<path d="" fill="#FFFFFF" transform="translate(0,0)"/>
<path d="" fill="#FFFFFF" transform="translate(0,0)"/>
<path d="" fill="#FFFFFF" transform="translate(0,0)"/>
<path d="" fill="#FFFFFF" transform="translate(0,0)"/>
<path d="" fill="#FFFFFF" transform="translate(0,0)"/>
<path d="" fill="#FFFFFF" transform="translate(0,0)"/>
<path d="" fill="#FFFFFF" transform="translate(0,0)"/>
<path d="" fill="#FFFFFF" transform="translate(0,0)"/>
<path d="" fill="#FFFFFF" transform="translate(0,0)"/>
<path d="" fill="#FFFFFF" transform="translate(0,0)"/>
<path d="" fill="#FFFFFF" transform="translate(0,0)"/>
<path d="" fill="#FFFFFF" transform="translate(0,0)"/>
<path d="" fill="#FFFFFF" transform="translate(0,0)"/>
<path d="" fill="#FFFFFF" transform="translate(0,0)"/>
<path d="" fill="#FFFFFF" transform="translate(0,0)"/>
<path d="" fill="#FFFFFF" transform="translate(0,0)"/>
<path d="" fill="#FFFFFF" transform="translate(0,0)"/>
<path d="" fill="#FFFFFF" transform="translate(0,0)"/>
<path d="" fill="#FFFFFF" transform="translate(0,0)"/>
<path d="" fill="#FFFFFF" transform="translate(0,0)"/>
<path d="" fill="#FFFFFF" transform="translate(0,0)"/>
<path d="" fill="#FFFFFF" transform="translate(0,0)"/>
<path d="" fill="#FFFFFF" transform="translate(0,0)"/>
<path d="" fill="#FFFFFF" transform="translate(0,0)"/>
<path d="" fill="#FFFFFF" transform="translate(0,0)"/>
<path d="" fill="#FFFFFF" transform="translate(0,0)"/>
<path d="" fill="#FFFFFF" transform="translate(0,0)"/>
<path d="" fill="#FFFFFF" transform="translate(0,0)"/>
<path d="" fill="#FFFFFF" transform="translate(0,0)"/>
<path d="" fill="#FFFFFF" transform="translate(0,0)"/>
<path d="" fill="#FFFFFF" transform="translate(0,0)"/>
<path d="" fill="#FFFFFF" transform="translate(0,0)"/>
<path d="" fill="#FFFFFF" transform="translate(0,0)"/>
<path d="" fill="#FFFFFF" transform="translate(0,0)"/>
<path d="" fill="#FFFFFF" transform="translate(0,0)"/>
<path d="" fill="#FFFFFF" transform="translate(0,0)"/>
<path d="" fill="#FFFFFF" transform="translate(0,0)"/>
<path d="" fill="#FFFFFF" transform="translate(0,0)"/>
<path d="" fill="#000000" transform="translate(0,0)"/>
<path d="" fill="#FFFFFF" transform="translate(0,0)"/>
<path d="" fill="#FFFFFF" transform="translate(0,0)"/>
<path d="" fill="#FFFFFF" transform="translate(0,0)"/>
<path d="" fill="#FFFFFF" transform="translate(0,0)"/>
<path d="" fill="#FFFFFF" transform="translate(0,0)"/>
<path d="" fill="#FFFFFF" transform="translate(0,0)"/>
<path d="" fill="#FFFFFF" transform="translate(0,0)"/>
<path d="" fill="#FFFFFF" transform="translate(0,0)"/>
<path d="" fill="#FFFFFF" transform="translate(0,0)"/>
<path d="" fill="#FFFFFF" transform="translate(0,0)"/>
<path d="" fill="#FFFFFF" transform="translate(0,0)"/>
<path d="" fill="#FFFFFF" transform="translate(0,0)"/>
<path d="" fill="#FFFFFF" transform="translate(0,0)"/>
<path d="" fill="#FFFFFF" transform="translate(0,0)"/>
<path d="" fill="#FFFFFF" transform="translate(0,0)"/>
<path d="" fill="#FFFFFF" transform="translate(0,0)"/>
<path d="" fill="#FFFFFF" transform="translate(0,0)"/>
<path d="" fill="#FFFFFF" transform="translate(0,0)"/>
<path d="" fill="#FFFFFF" transform="translate(0,0)"/>
<path d="" fill="#FFFFFF" transform="translate(0,0)"/>
<path d="" fill="#FFFFFF" transform="translate(0,0)"/>
<path d="" fill="#FFFFFF" transform="translate(0,0)"/>
<path d="" fill="#FFFFFF" transform="translate(0,0)"/>
<path d="" fill="#FFFFFF" transform="translate(0,0)"/>
<path d="" fill="#FFFFFF" transform="translate(0,0)"/>
<path d="" fill="#FFFFFF" transform="translate(0,0)"/>
<path d="" fill="#FFFFFF" transform="translate(0,0)"/>
<path d="" fill="#FFFFFF" transform="translate(0,0)"/>
<path d="" fill="#FFFFFF" transform="translate(0,0)"/>
<path d="" fill="#FFFFFF" transform="translate(0,0)"/>
<path d="" fill="#FFFFFF" transform="translate(0,0)"/>
<path d="" fill="#FFFFFF" transform="translate(0,0)"/>
<path d="" fill="#FFFFFF" transform="translate(0,0)"/>
<path d="" fill="#FFFFFF" transform="translate(0,0)"/>
<path d="" fill="#FFFFFF" transform="translate(0,0)"/>
<path d="" fill="#FFFFFF" transform="translate(0,0)"/>
<path d="" fill="#FFFFFF" transform="translate(0,0)"/>
<path d="" fill="#FFFFFF" transform="translate(0,0)"/>
<path d="" fill="#FFFFFF" transform="translate(0,0)"/>
<path d="" fill="#FFFFFF" transform="translate(0,0)"/>
<path d="" fill="#FFFFFF" transform="translate(0,0)"/>
<path d="" fill="#FFFFFF" transform="translate(0,0)"/>
<path d="" fill="#FFFFFF" transform="translate(0,0)"/>
<path d="" fill="#FFFFFF" transform="translate(0,0)"/>
<path d="" fill="#FFFFFF" transform="translate(0,0)"/>
<path d="" fill="#FFFFFF" transform="translate(0,0)"/>
<path d="" fill="#FFFFFF" transform="translate(0,0)"/>
<path d="" fill="#FFFFFF" transform="translate(0,0)"/>
<path d="" fill="#FFFFFF" transform="translate(0,0)"/>
<path d="" fill="#FFFFFF" transform="translate(0,0)"/>
<path d="" fill="#FFFFFF" transform="translate(0,0)"/>
<path d="" fill="#FFFFFF" transform="translate(0,0)"/>
<path d="" fill="#FFFFFF" transform="translate(0,0)"/>
<path d="" fill="#FFFFFF" transform="translate(0,0)"/>
<path d="" fill="#FFFFFF" transform="translate(0,0)"/>
<path d="" fill="#FFFFFF" transform="translate(0,0)"/>
<path d="" fill="#FFFFFF" transform="translate(0,0)"/>
<path d="" fill="#FFFFFF" transform="translate(0,0)"/>
<path d="" fill="#FFFFFF" transform="translate(0,0)"/>
<path d="" fill="#FFFFFF" transform="translate(0,0)"/>
<path d="" fill="#FFFFFF" transform="translate(0,0)"/>
<path d="" fill="#FFFFFF" transform="translate(0,0)"/>
<path d="" fill="#FFFFFF" transform="translate(0,0)"/>
<path d="" fill="#FFFFFF" transform="translate(0,0)"/>
<path d="" fill="#FFFFFF" transform="translate(0,0)"/>
<path d="" fill="#FFFFFF" transform="translate(0,0)"/>
<path d="" fill="#FFFFFF" transform="translate(0,0)"/>
<path d="" fill="#FFFFFF" transform="translate(0,0)"/>
<path d="" fill="#FFFFFF" transform="translate(0,0)"/>
<path d="" fill="#FFFFFF" transform="translate(0,0)"/>
<path d="" fill="#FFFFFF" transform="translate(0,0)"/>
<path d="" fill="#FFFFFF" transform="translate(0,0)"/>
<path d="" fill="#FFFFFF" transform="translate(0,0)"/>
<path d="" fill="#FFFFFF" transform="translate(0,0)"/>
<path d="" fill="#FFFFFF" transform="translate(0,0)"/>
<path d="" fill="#FFFFFF" transform="translate(0,0)"/>
<path d="" fill="#FFFFFF" transform="translate(0,0)"/>
<path d="" fill="#FFFFFF" transform="translate(0,0)"/>
<path d="" fill="#FFFFFF" transform="translate(0,0)"/>
<path d="" fill="#FFFFFF" transform="translate(0,0)"/>
<path d="" fill="#FFFFFF" transform="translate(0,0)"/>
<path d="" fill="#FFFFFF" transform="translate(0,0)"/>
<path d="" fill="#FFFFFF" transform="translate(0,0)"/>
<path d="" fill="#FFFFFF" transform="translate(0,0)"/>
<path d="" fill="#FFFFFF" transform="translate(0,0)"/>
<path d="" fill="#FFFFFF" transform="translate(0,0)"/>
<path d="" fill="#FFFFFF" transform="translate(0,0)"/>
<path d="" fill="#FFFFFF" transform="translate(0,0)"/>
<path d="" fill="#FFFFFF" transform="translate(0,0)"/>
<path d="" fill="#FFFFFF" transform="translate(0,0)"/>
<path d="" fill="#FFFFFF" transform="translate(0,0)"/>
<path d="" fill="#FFFFFF" transform="translate(0,0)"/>
<path d="" fill="#FFFFFF" transform="translate(0,0)"/>
<path d="" fill="#FFFFFF" transform="translate(0,0)"/>
<path d="" fill="#FFFFFF" transform="translate(0,0)"/>
<path d="" fill="#FFFFFF" transform="translate(0,0)"/>
<path d="" fill="#FFFFFF" transform="translate(0,0)"/>
<path d="" fill="#FFFFFF" transform="translate(0,0)"/>
</svg>
