<?xml version="1.0" encoding="UTF-8"?>
<!-- Generator: https://ezgif.com/png-to-svg -->
<svg version="1.1" xmlns="http://www.w3.org/2000/svg" width="512" height="512" viewBox="-10.82 -10.32 220.64 220.64" preserveAspectRatio="xMidYMid meet">
<path d="M0 0 C0.99 0.33 1.98 0.66 3 1 C3 14.2 3 27.4 3 41 C7.29 38.69 11.58 36.38 16 34 C16.66 34 17.32 34 18 34 C16.76 38.01 15.29 41.59 13.28 45.27 C12.74 46.26 12.21 47.24 11.66 48.25 C11.09 49.28 10.52 50.31 9.94 51.38 C9.36 52.43 8.78 53.49 8.18 54.58 C3.53 63.1 -1.2 71.57 -6 80 C-1.55 79.01 -1.55 79.01 3 78 C2.98 82.09 2.93 86.18 2.85 90.27 C2.82 91.65 2.81 93.04 2.8 94.43 C2.76 103.12 2.29 110.75 -3 118 C-5.49 120.39 -8.04 122.22 -11 124 C-12.19 124.73 -12.19 124.73 -13.41 125.47 C-19.45 129 -19.45 129 -23 129 C-23.33 112.5 -23.66 96 -24 79 C-32.15 83.71 -32.15 83.71 -40.3 88.42 C-46.51 92 -52.72 95.55 -59 99 C-59 99.33 -59 99.66 -59 100 C-56.36 100.33 -53.72 100.66 -51 101 C-51 115.85 -51 130.7 -51 146 C-56.28 148.64 -61.56 151.28 -67 154 C-70.47 155.98 -70.47 155.98 -74 158 C-74.99 157.67 -75.98 157.34 -77 157 C-76.96 143.6 -76.9 130.19 -76.82 116.79 C-76.78 110.56 -76.74 104.34 -76.73 98.11 C-76.71 92.1 -76.68 86.09 -76.63 80.08 C-76.62 77.79 -76.61 75.5 -76.61 73.21 C-76.61 70 -76.58 66.78 -76.55 63.57 C-76.55 62.63 -76.56 61.69 -76.56 60.72 C-76.42 51.7 -73.35 44.51 -67.12 37.97 C-60.38 31.71 -51.06 27.8 -43 23.5 C-40.72 22.28 -38.43 21.05 -36.15 19.83 C-34.97 19.2 -33.79 18.56 -32.61 17.93 C-27.75 15.33 -22.89 12.73 -18.04 10.12 C-15.76 8.89 -13.47 7.67 -11.19 6.44 C-10.16 5.89 -9.13 5.34 -8.07 4.77 C-7.16 4.28 -6.25 3.79 -5.31 3.29 C-2.84 1.95 -2.84 1.95 0 0 Z M-35.88 41.62 C-36.88 42.15 -37.89 42.67 -38.93 43.21 C-46.4 47.14 -46.4 47.14 -51 54 C-51.41 56.99 -51.38 59.87 -51.25 62.88 C-51.23 63.66 -51.21 64.44 -51.2 65.25 C-51.15 67.17 -51.08 69.08 -51 71 C-47.1 69.09 -43.22 67.16 -39.36 65.17 C-36.67 63.79 -34.12 62.67 -31.27 61.61 C-27.6 60.08 -25.51 59.1 -23 56 C-21.56 49.46 -22.27 42.6 -23 36 C-27.49 36 -32 39.54 -35.88 41.62 Z " fill="#B08C39" transform="translate(180,38)"/>
<path d="M0 0 C4.76 1.59 8.88 3.36 13.25 5.71 C13.94 6.08 14.62 6.44 15.33 6.82 C17.56 8 19.78 9.19 22 10.38 C23.53 11.19 25.07 12.01 26.6 12.83 C30.38 14.85 34.16 16.87 37.93 18.89 C39.83 19.91 41.72 20.92 43.61 21.92 C46.62 23.53 49.62 25.14 52.62 26.75 C53.47 27.2 54.32 27.65 55.2 28.12 C65.5 33.71 73.79 39.77 78.17 51 C79.73 56.64 79.41 62.32 79.25 68.12 C79.23 69.37 79.21 70.61 79.2 71.89 C79.15 74.93 79.08 77.96 79 81 C75.7 82.32 72.4 83.64 69 85 C70.63 85.68 72.26 86.35 73.94 87.05 C77.42 89.16 78.77 90.18 79.89 94.14 C80.16 98.21 80.13 102.17 79.98 106.24 C79.96 107.74 79.94 109.23 79.93 110.72 C79.9 114.64 79.8 118.55 79.69 122.47 C79.58 126.47 79.54 130.47 79.49 134.48 C79.38 142.32 79.21 150.16 79 158 C75.48 156.85 72.23 155.74 69.02 153.87 C68.33 153.48 67.64 153.08 66.93 152.67 C66.23 152.27 65.53 151.86 64.81 151.44 C63.4 150.62 61.99 149.81 60.58 149 C59.97 148.64 59.35 148.28 58.71 147.91 C56.84 146.86 56.84 146.86 54 146 C54 130.49 54 114.98 54 99 C52.02 98.34 50.04 97.68 48 97 C46.62 96.32 45.25 95.6 43.91 94.84 C43.21 94.44 42.51 94.04 41.79 93.62 C41.07 93.21 40.36 92.8 39.62 92.38 C38.89 91.95 38.15 91.53 37.39 91.1 C35.59 90.07 33.8 89.04 32 88 C32 83.71 32 79.42 32 75 C38.93 72.69 45.86 70.38 53 68 C53.06 65.79 53.12 63.59 53.19 61.31 C53.22 60.07 53.26 58.83 53.29 57.55 C53.23 53.54 53.23 53.54 50 49 C42.08 44.71 34.16 40.42 26 36 C26 66.69 26 97.38 26 129 C17 127.2 8.52 121.78 3.05 114.35 C-0.45 106.52 -0.25 98.37 -0.12 89.94 C-0.12 88.79 -0.11 87.63 -0.1 86.45 C-0.07 83.63 -0.04 80.82 0 78 C4.45 78.99 4.45 78.99 9 80 C8.66 79.4 8.32 78.81 7.97 78.19 C-0.35 63.63 -8.52 49.01 -16 34 C-11 35 -11 35 0 41 C0 27.47 0 13.94 0 0 Z " fill="#B08D39" transform="translate(17,38)"/>
<path d="M0 0 C4.33 1.58 6.78 4.93 9.62 8.38 C10.14 8.99 10.66 9.61 11.2 10.25 C12.81 12.16 14.4 14.08 16 16 C17 17.2 18 18.4 19.01 19.59 C21.35 22.39 23.68 25.19 26 28 C29.92 27.38 33.11 26.15 36.69 24.44 C41.79 22 41.79 22 44 22 C43.84 21.13 43.84 21.13 43.68 20.24 C43.41 17.6 43.37 15.59 44 13 C46.65 10.35 49.7 8.73 53 7 C53.97 6.38 54.94 5.76 55.94 5.12 C58 4 58 4 60 4 C60.12 8.17 60.19 12.33 60.25 16.5 C60.28 17.67 60.32 18.85 60.35 20.05 C60.43 26.84 60.4 32.55 56 38 C49.61 44.5 40.39 48.22 32.38 52.38 C30.3 53.46 28.22 54.54 26.15 55.63 C24.78 56.35 23.41 57.06 22.04 57.77 C18.64 59.55 15.31 61.39 12.03 63.39 C11.09 63.96 11.09 63.96 10.12 64.55 C8.4 65.6 6.68 66.67 4.98 67.75 C2 69 2 69 -0.57 68.37 C-1.77 67.69 -1.77 67.69 -3 67 C-3.82 66.6 -4.65 66.2 -5.5 65.79 C-13.02 61.9 -20.52 57.97 -28 54 C-29.1 53.42 -30.19 52.84 -31.32 52.25 C-34.46 50.58 -37.57 48.89 -40.69 47.19 C-42.11 46.43 -42.11 46.43 -43.56 45.67 C-50.37 41.89 -55.48 37.56 -58 30 C-58.15 28.01 -58.25 26.01 -58.32 24.02 C-58.36 22.86 -58.4 21.69 -58.44 20.49 C-58.48 19.28 -58.52 18.06 -58.56 16.81 C-58.61 15.59 -58.65 14.36 -58.69 13.1 C-58.8 10.06 -58.9 7.03 -59 4 C-52.63 5.43 -46.94 8.8 -42 13 C-40.91 16.25 -41.11 18.72 -42 22 C-41.42 22.18 -40.84 22.36 -40.24 22.55 C-36.53 23.74 -33.14 24.92 -29.69 26.75 C-27.2 28.16 -27.2 28.16 -25.09 27.88 C-22.1 26.62 -20.84 24.69 -18.88 22.12 C-14.87 17.04 -10.67 12.26 -6.26 7.51 C-4.07 5.08 -2.02 2.58 0 0 Z M0 29 C-2.14 32.21 -3.93 35.27 -5 39 C-4.05 42.27 -2.46 44.65 0 47 C0.66 47 1.32 47 2 47 C5.22 42.32 5.22 42.32 5.94 36.88 C4.96 33.88 3.87 31.54 2 29 C1.34 29 0.68 29 0 29 Z " fill="#B18C39" transform="translate(99,4)"/>
</svg>
