<?xml version="1.0" encoding="UTF-8"?>
<!-- Generator: https://ezgif.com/png-to-svg -->
<svg version="1.1" xmlns="http://www.w3.org/2000/svg" width="512" height="512" viewBox="-3.76 -3.76 107.52 107.52" preserveAspectRatio="xMidYMid meet">
<path d="M0 0 C35.91 0 35.91 0 42.94 6.88 C47.68 14.06 48.2 21.96 46.54 30.34 C44.87 35.47 41.99 38.45 38 42 C40.24 49.2 43.13 55.94 46.3 62.78 C46.65 63.54 47 64.3 47.36 65.09 C47.83 66.11 47.83 66.11 48.31 67.15 C49 69 49 69 49 72 C43.39 72 37.78 72 32 72 C30.34 68.05 28.69 64.11 27.04 60.16 C26.48 58.82 25.92 57.48 25.35 56.14 C22.15 48.54 19.12 40.99 17 33 C17.65 32.96 18.3 32.93 18.97 32.89 C22.6 32.66 25.36 32.36 28.56 30.56 C30.85 26.48 30.71 22.56 30 18 C28.81 15.23 28.81 15.23 26 14 C22.7 13.67 19.4 13.34 16 13 C16 32.47 16 51.94 16 72 C10.72 72 5.44 72 0 72 C0 48.24 0 24.48 0 0 Z " fill="#FEFFFF" transform="translate(2,14)"/>
<path d="M0 0 C13.86 0 27.72 0 42 0 C42 23.76 42 47.52 42 72 C28.14 72 14.28 72 0 72 C0 67.71 0 63.42 0 59 C8.58 59 17.16 59 26 59 C26 53.39 26 47.78 26 42 C18.74 42 11.48 42 4 42 C4 37.71 4 33.42 4 29 C11.26 29 18.52 29 26 29 C26 23.72 26 18.44 26 13 C17.42 13 8.84 13 0 13 C0 8.71 0 4.42 0 0 Z " fill="#FFFFFF" transform="translate(56,14)"/>
</svg>
