<?xml version="1.0" encoding="UTF-8"?>
<!-- Generator: https://ezgif.com/png-to-svg -->
<svg version="1.1" xmlns="http://www.w3.org/2000/svg" width="800" height="800">
<path d="M0 0 C1.19 0.42 2.38 0.83 3.61 1.26 C12.71 4.57 12.71 4.57 15 8 C11.55 13.18 8.1 18.35 4.65 23.53 C4.04 24.45 3.43 25.38 2.8 26.34 C1.67 28.01 0.5 29.66 -0.71 31.28 C-5.1 37.24 -6.36 42.76 -7.5 50 C-10.51 66.73 -15.97 81.08 -24 96 C-24.62 97.16 -25.23 98.32 -25.87 99.52 C-36.16 118.23 -49.57 135.31 -64 151 C-65.21 152.37 -66.42 153.75 -67.62 155.12 C-68.18 155.76 -68.73 156.39 -69.3 157.04 C-70.52 158.44 -71.72 159.85 -72.92 161.27 C-73.86 162.38 -73.86 162.38 -74.81 163.5 C-75.38 164.17 -75.94 164.84 -76.52 165.53 C-78 167 -78 167 -80 167 C-80 167.66 -80 168.32 -80 169 C-80.66 169 -81.32 169 -82 169 C-82.21 169.55 -82.42 170.1 -82.64 170.66 C-84.49 173.83 -87.08 175.99 -89.81 178.38 C-93.95 182 -97.56 185.69 -101 190 C-94 190.45 -87.01 190.75 -80 191 C-78.85 191.04 -77.71 191.08 -76.52 191.13 C-56 191.78 -36.04 190.16 -15.65 187.78 C-14.67 187.66 -13.68 187.55 -12.67 187.43 C-10.82 187.21 -8.97 186.99 -7.12 186.76 C-2.37 186.19 2.22 185.89 7 186 C8.32 189.97 7.16 192.7 6 196.56 C5.53 198.18 5.06 199.8 4.6 201.42 C4.34 202.3 4.08 203.19 3.82 204.1 C1.99 210.58 0.3 217.1 -1.41 223.61 C-4.16 233.95 -7.06 244.07 -12.19 253.5 C-12.58 254.22 -12.96 254.94 -13.36 255.69 C-17 262.28 -21.25 268.15 -26 274 C-26.83 275.06 -27.67 276.12 -28.5 277.18 C-33.04 282.9 -33.04 282.9 -35 285 C-35.66 285 -36.32 285 -37 285 C-37 285.66 -37 286.32 -37 287 C-46.21 296.78 -58.48 304.32 -70 311 C-71.14 311.67 -71.14 311.67 -72.3 312.36 C-92.17 323.21 -116.73 327.54 -139 330 C-139.94 330.11 -140.88 330.22 -141.85 330.34 C-173.95 333.47 -207.34 330.07 -238.2 320.84 C-255.15 316.01 -273.22 326 -288 334 C-309.02 346.31 -326.06 362.34 -335.7 385.07 C-337.53 387.79 -338.82 388.15 -342 389 C-350.59 390.43 -359.38 390.24 -368.06 390.25 C-369.18 390.25 -369.18 390.25 -370.32 390.25 C-384.05 390.24 -397.45 389.26 -411 387 C-411.85 386.86 -412.69 386.72 -413.56 386.58 C-443.56 381.43 -471.33 369.38 -494 349 C-494.88 348.22 -495.76 347.44 -496.66 346.63 C-522.13 322.66 -532.76 286.53 -534.23 252.51 C-534.79 231.48 -531.35 210.99 -525 191 C-524.73 190.13 -524.45 189.26 -524.17 188.36 C-520.44 176.68 -515.86 165.77 -510 155 C-509.63 154.31 -509.26 153.63 -508.88 152.92 C-504.38 144.59 -499.64 136.62 -494 129 C-492.58 127.04 -491.17 125.08 -489.75 123.12 C-486.07 118.08 -486.07 118.08 -484.41 116.25 C-482.2 112.72 -481.6 108.84 -480.69 104.81 C-478.9 97.57 -477.06 91.67 -472 86 C-471.45 85.34 -470.9 84.69 -470.33 84.01 C-461.45 74.26 -449.04 67.96 -437 63 C-436.4 62.75 -435.8 62.5 -435.18 62.25 C-424.39 57.84 -413.38 54.52 -402 52 C-401.26 51.83 -400.53 51.67 -399.77 51.5 C-386.79 48.72 -373.65 48.69 -360.44 48.62 C-359.15 48.61 -359.15 48.61 -357.83 48.6 C-340.26 48.48 -323.34 50.43 -306.5 55.62 C-305.37 55.97 -304.23 56.31 -303.07 56.66 C-290.07 60.73 -277.65 66 -266.05 73.16 C-263.55 74.19 -262.48 73.98 -260 73 C-258.17 71.46 -258.17 71.46 -256.44 69.5 C-252.44 65.34 -248.14 61.75 -243.64 58.15 C-241.42 56.34 -239.3 54.49 -237.19 52.56 C-226.23 42.93 -213.57 35.31 -201 28 C-200.32 27.6 -199.64 27.21 -198.94 26.8 C-186.22 19.48 -172.71 14.16 -159 9 C-158.28 8.73 -157.55 8.45 -156.81 8.17 C-111 -8.82 -46.88 -17.21 0 0 Z " fill="#43263B" transform="translate(664,209)"/>
<path d="M0 0 C1.19 0.42 2.38 0.83 3.61 1.26 C12.71 4.57 12.71 4.57 15 8 C11.55 13.18 8.1 18.35 4.65 23.53 C4.04 24.45 3.43 25.38 2.8 26.34 C1.67 28.01 0.5 29.66 -0.71 31.28 C-5.1 37.24 -6.36 42.76 -7.5 50 C-10.51 66.73 -15.97 81.08 -24 96 C-24.62 97.16 -25.23 98.32 -25.87 99.52 C-36.16 118.23 -49.57 135.31 -64 151 C-65.21 152.37 -66.42 153.75 -67.62 155.12 C-68.18 155.76 -68.73 156.39 -69.3 157.04 C-70.52 158.44 -71.72 159.85 -72.92 161.27 C-73.86 162.38 -73.86 162.38 -74.81 163.5 C-75.38 164.17 -75.94 164.84 -76.52 165.53 C-78 167 -78 167 -80 167 C-80 167.66 -80 168.32 -80 169 C-80.66 169 -81.32 169 -82 169 C-82.21 169.55 -82.42 170.1 -82.64 170.66 C-84.49 173.83 -87.08 175.99 -89.81 178.38 C-93.95 182 -97.56 185.69 -101 190 C-94 190.45 -87.01 190.75 -80 191 C-78.85 191.04 -77.71 191.08 -76.52 191.13 C-56 191.78 -36.04 190.16 -15.65 187.78 C-14.67 187.66 -13.68 187.55 -12.67 187.43 C-10.82 187.21 -8.97 186.99 -7.12 186.76 C-2.37 186.19 2.22 185.89 7 186 C8.32 189.97 7.16 192.7 6 196.56 C5.53 198.18 5.06 199.8 4.6 201.42 C4.34 202.3 4.08 203.19 3.82 204.1 C1.99 210.58 0.3 217.1 -1.41 223.61 C-4.16 233.95 -7.06 244.07 -12.19 253.5 C-12.58 254.22 -12.96 254.94 -13.36 255.69 C-17 262.28 -21.25 268.15 -26 274 C-26.83 275.06 -27.67 276.12 -28.5 277.18 C-33.04 282.9 -33.04 282.9 -35 285 C-35.66 285 -36.32 285 -37 285 C-37 285.66 -37 286.32 -37 287 C-46.21 296.78 -58.48 304.32 -70 311 C-71.14 311.67 -71.14 311.67 -72.3 312.36 C-92.17 323.21 -116.73 327.54 -139 330 C-139.94 330.11 -140.88 330.22 -141.85 330.34 C-173.95 333.47 -207.34 330.07 -238.2 320.84 C-255.15 316.01 -273.22 326 -288 334 C-309.02 346.31 -326.06 362.34 -335.7 385.07 C-337.53 387.79 -338.82 388.15 -342 389 C-350.59 390.43 -359.38 390.24 -368.06 390.25 C-369.18 390.25 -369.18 390.25 -370.32 390.25 C-384.05 390.24 -397.45 389.26 -411 387 C-411.85 386.86 -412.69 386.72 -413.56 386.58 C-443.56 381.43 -471.33 369.38 -494 349 C-494.88 348.22 -495.76 347.44 -496.66 346.63 C-522.13 322.66 -532.76 286.53 -534.23 252.51 C-534.79 231.48 -531.35 210.99 -525 191 C-524.73 190.13 -524.45 189.26 -524.17 188.36 C-520.44 176.68 -515.86 165.77 -510 155 C-509.63 154.31 -509.26 153.63 -508.88 152.92 C-504.38 144.59 -499.64 136.62 -494 129 C-492.58 127.04 -491.17 125.08 -489.75 123.12 C-486.07 118.08 -486.07 118.08 -484.41 116.25 C-482.2 112.72 -481.6 108.84 -480.69 104.81 C-478.9 97.57 -477.06 91.67 -472 86 C-471.45 85.34 -470.9 84.69 -470.33 84.01 C-461.45 74.26 -449.04 67.96 -437 63 C-436.4 62.75 -435.8 62.5 -435.18 62.25 C-424.39 57.84 -413.38 54.52 -402 52 C-401.26 51.83 -400.53 51.67 -399.77 51.5 C-386.79 48.72 -373.65 48.69 -360.44 48.62 C-359.15 48.61 -359.15 48.61 -357.83 48.6 C-340.26 48.48 -323.34 50.43 -306.5 55.62 C-305.37 55.97 -304.23 56.31 -303.07 56.66 C-290.07 60.73 -277.65 66 -266.05 73.16 C-263.55 74.19 -262.48 73.98 -260 73 C-258.17 71.46 -258.17 71.46 -256.44 69.5 C-252.44 65.34 -248.14 61.75 -243.64 58.15 C-241.42 56.34 -239.3 54.49 -237.19 52.56 C-226.23 42.93 -213.57 35.31 -201 28 C-200.32 27.6 -199.64 27.21 -198.94 26.8 C-186.22 19.48 -172.71 14.16 -159 9 C-158.28 8.73 -157.55 8.45 -156.81 8.17 C-111 -8.82 -46.88 -17.21 0 0 Z M-229 69 C-229.95 69.72 -230.91 70.44 -231.89 71.18 C-232.58 71.78 -233.28 72.38 -234 73 C-234 73.66 -234 74.32 -234 75 C-234.87 75.4 -234.87 75.4 -235.77 75.81 C-238.03 77.01 -239.81 78.34 -241.75 80 C-242.67 80.77 -242.67 80.77 -243.61 81.56 C-245.23 82.91 -245.23 82.91 -245 85 C-246.49 85.5 -246.49 85.5 -248 86 C-249.78 87.76 -249.78 87.76 -251.5 89.88 C-254.85 93.86 -254.85 93.86 -256.72 95.63 C-258.23 96.93 -258.23 96.93 -258 99 C-262 97.15 -265.42 94.98 -268.97 92.38 C-273.11 89.57 -277.57 87.32 -282 85 C-282.93 84.5 -283.86 84.01 -284.81 83.5 C-326.67 61.71 -374.63 61.79 -419 75 C-424.16 76.66 -429.1 78.68 -434 81 C-434.62 81.29 -435.25 81.58 -435.89 81.88 C-444.97 86.16 -453.52 91.15 -460 99 C-460.84 101.67 -460.84 101.67 -461 104 C-460.01 104 -459.02 104 -458 104 C-458 104.66 -458 105.32 -458 106 C-455.03 106.99 -455.03 106.99 -452 108 C-454.77 111.55 -457.57 114.58 -461 117.5 C-464.44 120.43 -467.3 123.37 -470 127 C-470 127.66 -470 128.32 -470 129 C-470.87 129.31 -470.87 129.31 -471.75 129.62 C-474.81 131.49 -476.18 134.01 -478 137 C-479.1 138.73 -480.21 140.46 -481.31 142.19 C-482.11 143.45 -482.11 143.45 -482.93 144.73 C-484.13 146.62 -485.34 148.51 -486.57 150.38 C-491 157.15 -494.71 164.08 -498.19 171.38 C-498.69 172.41 -499.2 173.44 -499.72 174.51 C-503.24 181.83 -505.76 189.2 -508 197 C-508.49 198.54 -508.99 200.09 -509.5 201.62 C-510.98 206.57 -512.05 211.58 -513.12 216.62 C-513.3 217.43 -513.47 218.23 -513.64 219.05 C-520.41 251.71 -515.14 288.37 -497.5 316.94 C-496.35 318.64 -495.19 320.33 -494 322 C-493.43 322.8 -492.87 323.6 -492.29 324.43 C-488.38 329.69 -484.03 333.83 -479 338 C-477.73 339.17 -476.46 340.33 -475.19 341.5 C-458.91 355.61 -437.7 362.86 -417.06 367.69 C-416.21 367.89 -415.35 368.09 -414.47 368.3 C-399.27 371.7 -384.5 372.27 -369 372.12 C-367.15 372.11 -365.29 372.11 -363.44 372.1 C-358.96 372.08 -354.48 372.04 -350 372 C-349.49 371.08 -348.97 370.15 -348.44 369.2 C-344.81 362.71 -341.22 356.35 -336.5 350.56 C-336.03 349.98 -335.56 349.39 -335.08 348.79 C-331.42 344.33 -327.56 340.54 -323 337 C-321.98 336.16 -320.97 335.32 -319.92 334.46 C-301.46 319.34 -280.5 309.63 -258 302 C-256.83 301.58 -255.65 301.17 -254.45 300.74 C-246.59 299.05 -239.39 301.98 -231.94 304.31 C-223.61 306.83 -215.33 308.91 -206.75 310.38 C-205.85 310.53 -204.95 310.69 -204.02 310.84 C-192.08 312.77 -180.23 313.19 -168.17 313.19 C-165.77 313.19 -163.37 313.21 -160.97 313.22 C-118.56 313.38 -77.85 301.44 -47.33 271.37 C-31.92 255.39 -16 230.01 -16 207 C-21.82 206.75 -27.48 207.02 -33.25 207.72 C-66.65 211.59 -101.19 209.61 -134.01 202.36 C-137.05 201.81 -139.93 201.87 -143 202 C-143 201.34 -143 200.68 -143 200 C-142.48 199.78 -141.95 199.57 -141.41 199.35 C-138.04 197.47 -135.27 194.97 -132.38 192.44 C-131.76 191.9 -131.14 191.36 -130.5 190.81 C-126.11 187 -121.77 183.14 -117.48 179.23 C-116.14 178.02 -114.79 176.82 -113.41 175.66 C-107.01 170.2 -101.08 164.27 -95.14 158.32 C-93.31 156.5 -91.48 154.68 -89.65 152.87 C-88.47 151.7 -87.29 150.52 -86.11 149.34 C-85.3 148.54 -85.3 148.54 -84.48 147.73 C-80.85 144.08 -77.95 140.22 -75 136 C-74.24 135.26 -73.47 134.51 -72.69 133.75 C-69.31 130.29 -66.65 126.47 -63.87 122.52 C-62.33 120.45 -60.82 118.8 -59 117 C-54.17 110.79 -49.81 104.29 -45.66 97.62 C-44.11 95.17 -42.48 92.81 -40.81 90.44 C-37.75 85.84 -35.88 81.17 -34 76 C-33.44 74.57 -32.87 73.13 -32.3 71.7 C-28.17 61.1 -24.41 50.33 -23.91 38.84 C-23.54 32.39 -21.27 28.54 -17.44 23.44 C-16.92 22.71 -16.4 21.99 -15.86 21.25 C-14.59 19.49 -13.3 17.74 -12 16 C-21.03 6.97 -49.23 9.79 -61.12 9.75 C-123.17 10.05 -180.38 30.96 -229 69 Z " fill="#07B7CE" transform="translate(664,209)"/>
<path d="M0 0 C0.33 0.66 0.66 1.32 1 2 C-0.31 4.61 -1.68 7.07 -3.19 9.56 C-3.59 10.26 -3.99 10.96 -4.4 11.68 C-5 12.67 -5 12.67 -5.61 13.69 C-5.97 14.3 -6.33 14.91 -6.7 15.54 C-8.37 17.42 -9.52 17.72 -12 18 C-14.74 16.93 -14.74 16.93 -17.88 15.31 C-38 5.55 -63.62 3.01 -85.04 10.26 C-99.66 15.77 -111.67 24.34 -123 35 C-123.62 35.54 -124.23 36.08 -124.87 36.64 C-136.62 47.39 -145.86 65.34 -147.29 81.16 C-147.63 93.78 -144.74 106.49 -136.11 116.1 C-126.81 124.69 -116.37 127.15 -104 128 C-103.99 127.41 -103.97 126.81 -103.96 126.2 C-103.05 110.51 -92.92 97.5 -81.57 87.32 C-69.14 76.9 -50.44 66.36 -34 67 C-35.89 68.97 -37.8 70.84 -39.91 72.58 C-45.45 77.17 -49.67 81.66 -51 89 C-51.07 91.42 -51.08 93.83 -51.06 96.25 C-51.05 97.51 -51.04 98.78 -51.04 100.08 C-51.02 101.04 -51.01 102.01 -51 103 C-49.48 102.95 -49.48 102.95 -47.92 102.89 C-39.14 102.68 -31.43 103.24 -23 106 C-22.21 106.22 -21.42 106.44 -20.6 106.67 C-4.56 111.92 7.99 125.61 16 140 C16 140.66 16 141.32 16 142 C14.34 142.11 14.34 142.11 12.65 142.23 C-27.34 145.41 -62.54 164.04 -90 193 C-90.33 193.66 -90.66 194.32 -91 195 C-91.66 195 -92.32 195 -93 195 C-93.29 195.62 -93.58 196.24 -93.88 196.88 C-95 199 -95 199 -97 201 C-103.94 201.41 -110.43 200.48 -117.25 199.25 C-118.27 199.07 -119.28 198.88 -120.33 198.7 C-140.17 195.01 -160.34 187.36 -173.48 171.21 C-187.98 150.08 -191.23 120.3 -187.12 95.45 C-186.51 92.27 -185.76 89.14 -185 86 C-184.74 84.74 -184.49 83.47 -184.23 82.17 C-179.34 58.9 -166.68 39.43 -151 22 C-150.41 21.34 -149.82 20.67 -149.21 19.99 C-143.8 14.26 -137.35 9.62 -131 5 C-129.7 4.05 -129.7 4.05 -128.38 3.09 C-91.08 -22.37 -39.15 -20.48 0 0 Z " fill="#FDFCFD" transform="translate(381,338)"/>
<path d="M0 0 C-1.45 4.74 -3.39 9.09 -5.62 13.5 C-5.98 14.2 -6.33 14.89 -6.69 15.61 C-11.8 25.63 -17.19 35.31 -23.98 44.31 C-26.86 48.14 -29.59 52.06 -32.34 55.98 C-32.89 56.65 -33.43 57.31 -34 58 C-34.66 58 -35.32 58 -36 58 C-36.33 59.05 -36.33 59.05 -36.66 60.12 C-38.33 63.71 -40.72 66.25 -43.44 69.06 C-44.53 70.21 -45.61 71.36 -46.7 72.52 C-47.25 73.1 -47.8 73.67 -48.37 74.27 C-50.4 76.42 -52.38 78.6 -54.37 80.79 C-60.89 87.98 -67.57 94.88 -74.93 101.21 C-77.16 103.14 -79.36 105.1 -81.56 107.06 C-88.28 113.04 -88.28 113.04 -91.13 115.41 C-92.57 116.63 -93.96 117.9 -95.34 119.18 C-96.59 120.3 -96.59 120.3 -97.88 121.44 C-98.64 122.14 -99.4 122.84 -100.18 123.56 C-104.34 125.68 -107.52 124.85 -112 124 C-112.81 123.86 -113.61 123.71 -114.45 123.56 C-117.05 123.08 -119.65 122.57 -122.25 122.06 C-133.12 120 -143.98 118.86 -155 118 C-155 115 -155 115 -153.49 113.28 C-152.81 112.66 -152.13 112.03 -151.43 111.39 C-147.09 107.21 -143.66 102.72 -140.19 97.81 C-135.11 90.76 -129.82 84.02 -124.11 77.47 C-121.91 74.99 -121.91 74.99 -120 72 C-119.34 72 -118.68 72 -118 72 C-117.5 70.51 -117.5 70.51 -117 69 C-92.53 42.88 -37.6 0 0 0 Z " fill="#BD887F" transform="translate(586,276)"/>
<path d="M0 0 C13.11 4.63 26.73 7.52 40.27 10.61 C40.98 10.78 41.69 10.94 42.42 11.11 C76.44 18.92 110.45 24.84 145.27 27.61 C141.83 31.22 138.27 33.44 133.83 35.61 C132.77 36.14 132.77 36.14 131.69 36.67 C97.03 53.33 51.61 49.16 16.07 37.24 C12.07 35.83 8.16 34.26 4.27 32.61 C3.59 32.33 2.92 32.05 2.23 31.76 C-11.35 25.95 -23.75 18.26 -35.81 9.76 C-46.18 2.5 -55.92 -1.52 -68.73 -2.39 C-53.92 -24.86 -18.93 -7.03 0 0 Z " fill="#F5AB7A" transform="translate(431.734375,424.38671875)"/>
<path d="M0 0 C4.71 0.71 4.71 0.71 6 2 C6.09 3.78 6.11 5.56 6.1 7.35 C6.09 8.43 6.09 9.51 6.09 10.62 C6.08 12.32 6.08 12.32 6.06 14.06 C6.06 15.2 6.05 16.34 6.05 17.52 C6.04 20.35 6.02 23.17 6 26 C5.34 26 4.68 26 4 26 C4.66 27.32 5.32 28.64 6 30 C6.33 30 6.66 30 7 30 C8.33 34.67 9.67 39.33 11 44 C14.35 45.12 16.59 44.76 20 44 C19.55 44.67 19.11 45.33 18.64 46.02 C12.37 55.58 7.66 64.6 6 76 C-5.41 76.81 -15.22 74.43 -24.04 66.9 C-32.08 59.11 -37.79 48.36 -38 37 C-37.34 36.34 -36.68 35.68 -36 35 C-36 35.99 -36 36.98 -36 38 C-35.01 38 -34.02 38 -33 38 C-32.67 38.66 -32.34 39.32 -32 40 C-32 36.7 -32 33.4 -32 30 C-31.34 31.32 -30.68 32.64 -30 34 C-29.34 34.33 -28.68 34.66 -28 35 C-28.02 33.89 -28.04 32.77 -28.06 31.62 C-28 28 -28 28 -27 26 C-25.68 26 -24.36 26 -23 26 C-23 28.31 -23 30.62 -23 33 C-22.01 33 -21.02 33 -20 33 C-20 31.35 -20 29.7 -20 28 C-20.66 28.99 -21.32 29.98 -22 31 C-22.33 28.36 -22.66 25.72 -23 23 C-22.34 23 -21.68 23 -21 23 C-21 21.68 -21 20.36 -21 19 C-20.34 19 -19.68 19 -19 19 C-18.67 17.68 -18.34 16.36 -18 15 C-17.34 15.33 -16.68 15.66 -16 16 C-15.67 15.34 -15.34 14.68 -15 14 C-16.32 14 -17.64 14 -19 14 C-19 12.68 -19 11.36 -19 10 C-17.02 9.67 -15.04 9.34 -13 9 C-13 9.66 -13 10.32 -13 11 C-12.22 10.5 -11.43 10.01 -10.62 9.5 C-8 8 -8 8 -6 8 C-6 6.68 -6 5.36 -6 4 C-3.56 2.31 -3.56 2.31 -1 1 C-0.67 0.67 -0.34 0.34 0 0 Z " fill="#43273C" transform="translate(271,390)"/>
<path d="M0 0 C1.66 0.49 1.66 0.49 3.36 1 C6.07 1.81 8.79 2.62 11.5 3.44 C11.5 3.77 11.5 4.1 11.5 4.44 C-9.29 2.65 -9.29 2.65 -13.5 -1.56 C-17.94 -1.78 -22.21 -1.86 -26.5 -0.56 C-26.83 0.1 -27.16 0.76 -27.5 1.44 C-22.55 2.43 -22.55 2.43 -17.5 3.44 C-17.5 4.76 -17.5 6.08 -17.5 7.44 C-16.53 7.73 -15.56 8.01 -14.56 8.31 C-11.5 9.44 -11.5 9.44 -10.5 11.44 C-8.38 12.12 -8.38 12.12 -5.94 12.56 C-4.7 12.81 -4.7 12.81 -3.43 13.07 C-2.8 13.19 -2.16 13.31 -1.5 13.44 C-1.5 14.1 -1.5 14.76 -1.5 15.44 C1.14 16.1 3.78 16.76 6.5 17.44 C6.5 18.1 6.5 18.76 6.5 19.44 C8.06 19.53 8.06 19.53 9.66 19.62 C12.66 19.8 15.66 19.97 18.66 20.15 C21.82 20.34 24.99 20.52 28.16 20.69 C29.6 20.77 31.05 20.86 32.5 20.94 C33.19 20.97 33.88 21.01 34.58 21.04 C39.39 21.32 39.39 21.32 40.5 22.44 C43.54 22.54 46.56 22.58 49.61 22.57 C50.55 22.57 51.48 22.57 52.45 22.57 C55.53 22.58 58.61 22.57 61.69 22.56 C62.73 22.56 63.76 22.56 64.83 22.56 C82.07 22.54 99.28 22.22 116.5 21.44 C116.5 21.77 116.5 22.1 116.5 22.44 C74.67 29.47 33.26 29.52 -7.7 17.28 C-24.65 12.45 -42.72 22.44 -57.5 30.44 C-66.84 35.91 -75.26 42.45 -83.5 49.44 C-85.16 50.78 -86.83 52.11 -88.5 53.44 C-89 51.95 -89 51.95 -89.5 50.44 C-87.52 49.94 -87.52 49.94 -85.5 49.44 C-85 46.47 -85 46.47 -84.5 43.44 C-81.53 42.94 -81.53 42.94 -78.5 42.44 C-78.5 41.78 -78.5 41.12 -78.5 40.44 C-77.51 40.44 -76.52 40.44 -75.5 40.44 C-75.5 39.78 -75.5 39.12 -75.5 38.44 C-74.51 38.44 -73.52 38.44 -72.5 38.44 C-72.5 37.78 -72.5 37.12 -72.5 36.44 C-71.51 36.44 -70.52 36.44 -69.5 36.44 C-69.5 35.78 -69.5 35.12 -69.5 34.44 C-68.86 34.33 -68.22 34.23 -67.56 34.12 C-66.88 33.9 -66.2 33.67 -65.5 33.44 C-65.17 32.45 -64.84 31.46 -64.5 30.44 C-62.44 29.75 -62.44 29.75 -60.5 29.44 C-60.5 28.45 -60.5 27.46 -60.5 26.44 C-56.62 25.24 -53.58 24.44 -49.5 24.44 C-49.5 22.13 -49.5 19.82 -49.5 17.44 C-50.12 17.31 -50.74 17.19 -51.38 17.06 C-53.5 16.44 -53.5 16.44 -55.5 14.44 C-58.08 14.27 -58.08 14.27 -60.5 14.44 C-61.16 16.42 -61.82 18.4 -62.5 20.44 C-63.65 20.33 -64.81 20.23 -66 20.12 C-70.53 20.09 -73.03 21.72 -76.67 24.26 C-78.89 25.69 -80.88 26.19 -83.5 26.44 C-79.94 22.62 -76.27 19.77 -71.75 17.12 C-71.1 16.74 -70.45 16.36 -69.77 15.96 C-56.36 8.2 -42.15 2.41 -27.5 -2.56 C-26.33 -2.98 -25.15 -3.39 -23.95 -3.82 C-15.74 -5.59 -7.82 -2.36 0 0 Z " fill="#15ACC2" transform="translate(433.5,512.5625)"/>
<path d="M0 0 C0 0.33 0 0.66 0 1 C-4.09 2.05 -8.05 2.14 -12.25 2.24 C-22.39 2.5 -32.33 3.4 -42.38 4.88 C-44.06 5.12 -44.06 5.12 -45.77 5.36 C-51.43 6.24 -56.63 7.43 -62 9.37 C-64.96 10.31 -67.85 10.49 -70.94 10.62 C-75.13 10.71 -75.13 10.71 -79 12 C-81 12.04 -83 12.04 -85 12 C-85 12.66 -85 13.32 -85 14 C-86.98 14.33 -88.96 14.66 -91 15 C-90.5 17.47 -90.5 17.47 -90 20 C-92.08 20.17 -94.17 20.33 -96.25 20.5 C-97.41 20.59 -98.57 20.69 -99.77 20.78 C-102.17 20.94 -104.59 21 -107 21 C-107.66 21.66 -108.32 22.32 -109 23 C-111.03 23.46 -111.03 23.46 -113.5 23.81 C-118.4 24.7 -122.31 26.42 -126.68 28.78 C-129.78 30.41 -132.81 31.77 -136.25 32.44 C-136.83 32.62 -137.4 32.81 -138 33 C-138.33 33.99 -138.66 34.98 -139 36 C-145 40.31 -152.06 42.69 -159 45 C-159.73 47.02 -159.73 47.02 -160 49 C-159.34 49 -158.68 49 -158 49 C-157.34 49.99 -156.68 50.98 -156 52 C-153.79 52.36 -153.79 52.36 -151.38 52.19 C-150.56 52.16 -149.74 52.13 -148.9 52.11 C-147.96 52.05 -147.96 52.05 -147 52 C-147 51.34 -147 50.68 -147 50 C-145.39 49.85 -145.39 49.85 -143.75 49.69 C-139.87 48.98 -138.99 48.29 -136 46 C-128.04 42.65 -128.04 42.65 -124 44 C-124.79 44.36 -124.79 44.36 -125.6 44.73 C-140.83 51.71 -140.83 51.71 -154.62 61.12 C-157 63 -157 63 -160.21 64.79 C-164.06 66.96 -167.48 69.52 -170.94 72.25 C-171.82 72.94 -171.82 72.94 -172.72 73.64 C-174.15 74.76 -175.58 75.88 -177 77 C-177.99 76.34 -178.98 75.68 -180 75 C-179.34 75 -178.68 75 -178 75 C-178 74.34 -178 73.68 -178 73 C-177.01 73 -176.02 73 -175 73 C-175 71.68 -175 70.36 -175 69 C-173.35 69 -171.7 69 -170 69 C-170 68.34 -170 67.68 -170 67 C-169.01 67 -168.02 67 -167 67 C-166.9 66.22 -166.79 65.43 -166.69 64.62 C-166 62 -166 62 -163 60 C-160.67 59.92 -158.33 59.91 -156 60 C-155.67 59.01 -155.34 58.02 -155 57 C-158.96 54.24 -162.22 53.47 -167 53 C-167 53.66 -167 54.32 -167 55 C-167.66 55 -168.32 55 -169 55 C-169.33 56.32 -169.66 57.64 -170 59 C-170.89 58.75 -171.77 58.5 -172.69 58.25 C-176.08 57.68 -176.08 57.68 -178.88 59.69 C-181.45 61.97 -181.45 61.97 -181 66 C-183.46 68.37 -185.66 69.4 -189 70 C-188.5 70.99 -188.5 70.99 -188 72 C-189.75 74.18 -190.6 74.94 -193.41 75.37 C-195.18 75.42 -196.95 75.46 -198.72 75.5 C-201.18 75.76 -201.18 75.76 -202.31 78.04 C-202.54 78.68 -202.76 79.33 -203 80 C-203.66 80 -204.32 80 -205 80 C-205.33 81.32 -205.66 82.64 -206 84 C-209.46 84.5 -209.46 84.5 -213 85 C-213 84.34 -213 83.68 -213 83 C-211.98 82.41 -211.98 82.41 -210.94 81.81 C-208.41 80.25 -206.89 78.98 -204.88 76.88 C-201.08 72.96 -196.93 69.6 -192.68 66.18 C-190.45 64.37 -188.31 62.5 -186.19 60.56 C-175.23 50.93 -162.57 43.31 -150 36 C-149.32 35.6 -148.64 35.21 -147.94 34.8 C-135.22 27.48 -121.71 22.16 -108 17 C-106.91 16.59 -106.91 16.59 -105.81 16.17 C-78.47 6.03 -48.91 1.55 -19.88 0.44 C-18.84 0.39 -17.81 0.35 -16.75 0.31 C-11.16 0.08 -5.59 -0.05 0 0 Z " fill="#12B2C9" transform="translate(613,201)"/>
<path d="M0 0 C3.63 2.09 6.34 4.1 8.44 7.81 C8.44 9.13 8.44 10.45 8.44 11.81 C7.24 11.97 6.04 12.13 4.81 12.29 C-10.78 14.48 -24.41 18.87 -38.56 25.81 C-39.3 18.11 -38.26 12.11 -33.56 5.81 C-24.33 -2.4 -11.44 -5.39 0 0 Z " fill="#FAF7FA" transform="translate(333.5625,366.1875)"/>
<path d="M0 0 C0.48 10.05 0.48 10.05 -1.5 13.94 C-3.49 18 -3.1 21.25 -2.98 25.71 C-3.03 33.94 -4.83 42.09 -7 50 C-7.66 50 -8.32 50 -9 50 C-9 48.68 -9 47.36 -9 46 C-9.66 46 -10.32 46 -11 46 C-10.67 49.3 -10.34 52.6 -10 56 C-11.49 56.5 -11.49 56.5 -13 57 C-14.34 57.65 -15.68 58.32 -17 59 C-17 61.64 -17 64.28 -17 67 C-18.32 66.67 -19.64 66.34 -21 66 C-21 65.34 -21 64.68 -21 64 C-21.66 64 -22.32 64 -23 64 C-24.94 60.74 -25.3 58.21 -25.31 54.44 C-25.33 53.49 -25.35 52.54 -25.36 51.56 C-25 49 -25 49 -23.61 47.16 C-22 46 -22 46 -20 46 C-20 45.01 -20 44.02 -20 43 C-19.34 43 -18.68 43 -18 43 C-17.97 42.32 -17.95 41.64 -17.92 40.95 C-17.49 33.91 -15.86 28.4 -13 22 C-12.67 21.01 -12.34 20.02 -12 19 C-11.34 19 -10.68 19 -10 19 C-10.01 18.37 -10.02 17.75 -10.04 17.1 C-10.04 16.28 -10.05 15.47 -10.06 14.62 C-10.07 13.81 -10.09 13 -10.1 12.16 C-10 10 -10 10 -9 8 C-8.34 8 -7.68 8 -7 8 C-7 5.69 -7 3.38 -7 1 C-4 0 -4 0 0 0 Z " fill="#04B9D0" transform="translate(653,238)"/>
<path d="M0 0 C2.37 9.87 2.15 21.65 -2 31 C-4 34 -4 34 -5.62 34.69 C-12.58 35.6 -12.58 35.6 -16 35 C-19.43 32.25 -19.93 30.54 -20.5 26.19 C-19.92 16.84 -13.35 10.3 -7 4 C-2.37 0 -2.37 0 0 0 Z " fill="#17ADC0" transform="translate(274,392)"/>
<path d="M0 0 C1.22 4.01 0.42 6.06 -1 10 C-1.37 11.99 -1.71 13.99 -2 16 C-3.32 16.33 -4.64 16.66 -6 17 C-6.09 17.89 -6.09 17.89 -6.18 18.79 C-6.62 22.91 -7.09 26.96 -8 31 C-8.66 31 -9.32 31 -10 31 C-10.66 33.31 -11.32 35.62 -12 38 C-12.66 38 -13.32 38 -14 38 C-13.84 38.93 -13.67 39.86 -13.5 40.81 C-12.78 45.83 -12.7 50.94 -13 56 C-13.5 56.5 -13.5 56.5 -14 57 C-14.37 59.33 -14.7 61.66 -15 64 C-16.49 64.5 -16.49 64.5 -18 65 C-18.2 79.24 -18.28 93.42 -17.19 107.62 C-17.12 108.61 -17.05 109.6 -16.98 110.61 C-16.47 116.52 -15.35 121.96 -13.63 127.63 C-12.87 130.48 -12.76 133.07 -13 136 C-15.26 133.74 -15.6 132.51 -16.44 129.48 C-16.69 128.57 -16.95 127.66 -17.21 126.72 C-24.17 100.63 -24.74 76.42 -19 50 C-18.74 48.76 -18.48 47.52 -18.21 46.25 C-16.96 40.83 -15.27 35.75 -13.06 30.64 C-12.15 28.38 -11.4 26.15 -10.67 23.83 C-8.97 18.65 -6.69 13.83 -4.31 8.94 C-3.69 7.64 -3.69 7.64 -3.05 6.31 C-2.04 4.21 -1.02 2.1 0 0 Z " fill="#2A3348" transform="translate(171,370)"/>
<path d="M0 0 C1.98 0.5 1.98 0.5 4 1 C3.45 1.67 2.91 2.34 2.35 3.03 C-2.96 9.79 -7.14 16.6 -10.82 24.39 C-13.37 29.58 -13.37 29.58 -16.14 31.43 C-25.68 33.33 -35.37 33.24 -45.06 33.25 C-46.18 33.25 -46.18 33.25 -47.32 33.25 C-61.05 33.24 -74.45 32.26 -88 30 C-88.85 29.86 -89.69 29.72 -90.56 29.58 C-105.12 27.08 -119.36 22.67 -133 17 C-133 16.67 -133 16.34 -133 16 C-128.05 16 -123.1 16 -118 16 C-118 16.99 -118 17.98 -118 19 C-117.08 19.29 -117.08 19.29 -116.14 19.59 C-115.33 19.85 -114.52 20.11 -113.69 20.38 C-112.89 20.63 -112.09 20.89 -111.26 21.15 C-109 22 -109 22 -106 24 C-102.84 24.34 -99.7 24.44 -96.52 24.56 C-93.58 24.93 -91.91 25.37 -89.28 26.49 C-84.17 28.52 -79.19 28.57 -73.75 28.69 C-72.1 28.74 -72.1 28.74 -70.42 28.79 C-60.22 29.05 -50.02 29.1 -39.81 29.12 C-39.03 29.13 -38.24 29.13 -37.43 29.13 C-35.17 29.14 -32.91 29.14 -30.64 29.13 C-29.34 29.13 -28.03 29.13 -26.69 29.13 C-23.03 29 -19.61 28.59 -16 28 C-14.53 23.7 -13.23 19.38 -12 15 C-12.99 14.67 -13.98 14.34 -15 14 C-15 13.34 -15 12.68 -15 12 C-14.01 11.34 -13.02 10.68 -12 10 C-11.42 8.04 -11.42 8.04 -11.31 5.88 C-11.21 4.6 -11.11 3.32 -11 2 C-10.01 2 -9.02 2 -8 2 C-8 3.32 -8 4.64 -8 6 C-5.69 5.34 -3.38 4.68 -1 4 C-0.67 2.68 -0.34 1.36 0 0 Z " fill="#1E9BB1" transform="translate(341,566)"/>
<path d="M0 0 C1.6 -0 1.6 -0 3.23 -0.01 C4.94 0 4.94 0 6.7 0.01 C7.86 0.01 9.03 0.01 10.23 0.02 C23.14 0.09 36.02 0.41 48.82 2.13 C48.82 2.79 48.82 3.45 48.82 4.13 C51.46 4.13 54.1 4.13 56.82 4.13 C56.82 4.79 56.82 5.45 56.82 6.13 C58.8 6.63 58.8 6.63 60.82 7.13 C58.22 8.43 57.19 7.92 54.38 7.27 C3.57 -3.56 -54.33 7.43 -101.18 28.13 C-99.57 23.3 -95.09 21.93 -90.76 19.71 C-86.63 17.89 -82.89 17.07 -78.42 16.62 C-76.12 16.34 -76.12 16.34 -74.82 14.69 C-72.27 12.27 -69.46 12.14 -66.05 11.51 C-61.79 11.04 -61.79 11.04 -58.18 9.13 C-56.33 9.06 -54.47 9.05 -52.62 9.07 C-51.61 9.08 -50.59 9.09 -49.55 9.1 C-48.77 9.11 -47.99 9.12 -47.18 9.13 C-47.18 8.47 -47.18 7.81 -47.18 7.13 C-46.47 7 -45.76 6.87 -45.03 6.73 C-44.11 6.55 -43.19 6.38 -42.24 6.2 C-41.33 6.02 -40.41 5.85 -39.46 5.67 C-37.23 5.36 -37.23 5.36 -36.18 4.13 C-34.06 3.84 -31.94 3.62 -29.81 3.41 C-28.51 3.29 -27.22 3.16 -25.88 3.03 C-24.5 2.9 -23.12 2.76 -21.74 2.63 C-19.06 2.38 -16.37 2.12 -13.68 1.85 C-12.49 1.74 -11.29 1.62 -10.05 1.51 C-6.41 1.03 -3.79 0 0 0 Z " fill="#1DA9BF" transform="translate(591.1796875,215.8671875)"/>
<path d="M0 0 C0.33 0 0.66 0 1 0 C1.41 8.37 -0.31 14.91 -3.5 22.62 C-8.36 35.5 -8.57 49.31 -8.5 62.88 C-8.5 63.77 -8.5 64.66 -8.5 65.58 C-8.44 83.53 -7.08 101.2 0.2 117.85 C1.23 120.63 1.31 123.06 1 126 C1.66 126 2.32 126 3 126 C3 127.32 3 128.64 3 130 C3.66 130 4.32 130 5 130 C5.85 131.39 6.68 132.79 7.5 134.19 C7.96 134.96 8.43 135.74 8.91 136.54 C10.11 139.24 10.21 141.08 10 144 C-5.57 130.94 -9.9 98.4 -11.65 79.68 C-13.88 52.16 -8.85 25.98 0 0 Z " fill="#1F7D93" transform="translate(142,391)"/>
<path d="M0 0 C2.66 -0.01 5.32 -0.04 7.98 -0.07 C25.12 -0.18 41.5 1.92 57.83 7.24 C57.83 7.57 57.83 7.9 57.83 8.24 C55.68 8.27 53.54 8.29 51.39 8.3 C50.19 8.31 49 8.33 47.77 8.34 C44.83 8.24 44.83 8.24 43.83 7.24 C42.5 7.03 41.16 6.87 39.83 6.74 C39.02 6.66 38.22 6.58 37.39 6.49 C36.54 6.41 35.7 6.33 34.83 6.24 C33.16 6.08 31.49 5.91 29.83 5.74 C29.08 5.67 28.34 5.6 27.58 5.52 C25.83 5.24 25.83 5.24 24.83 4.24 C23.49 4.14 22.15 4.1 20.82 4.09 C19.97 4.09 19.11 4.08 18.24 4.08 C16.84 4.07 16.84 4.07 15.42 4.07 C14.47 4.07 13.51 4.07 12.53 4.06 C10.5 4.06 8.47 4.05 6.45 4.05 C3.37 4.05 0.29 4.03 -2.79 4.02 C-4.76 4.01 -6.73 4.01 -8.7 4.01 C-9.62 4 -10.53 4 -11.47 3.99 C-16.62 4.01 -21.24 4.55 -26.24 5.79 C-28.52 6.32 -30.65 6.47 -32.99 6.44 C-34.16 6.43 -34.16 6.43 -35.36 6.42 C-36.15 6.4 -36.93 6.38 -37.74 6.37 C-38.55 6.36 -39.37 6.35 -40.21 6.34 C-42.2 6.31 -44.19 6.28 -46.17 6.24 C-42.72 3.94 -39.61 3.38 -35.61 2.68 C-34.61 2.49 -34.61 2.49 -33.59 2.3 C-22.41 0.26 -11.33 0.02 0 0 Z " fill="#1C9CB4" transform="translate(300.1728515625,257.759765625)"/>
<path d="M0 0 C16.33 -0.34 32.81 1 48.42 6.16 C48.42 6.49 48.42 6.82 48.42 7.16 C35.99 6.43 35.99 6.43 30.92 5.16 C20.37 2.56 9.07 2.94 -1.75 2.92 C-4.01 2.91 -6.28 2.88 -8.54 2.84 C-17.91 2.78 -26.53 3.5 -35.58 6.16 C-35.91 6.49 -36.24 6.82 -36.58 7.16 C-31.63 7.49 -26.68 7.82 -21.58 8.16 C-21.58 8.82 -21.58 9.48 -21.58 10.16 C-26.86 10.16 -32.14 10.16 -37.58 10.16 C-37.58 9.5 -37.58 8.84 -37.58 8.16 C-42.86 8.16 -48.14 8.16 -53.58 8.16 C-53.58 8.82 -53.58 9.48 -53.58 10.16 C-54.84 10.2 -56.1 10.24 -57.39 10.28 C-58.1 10.3 -58.81 10.33 -59.54 10.35 C-61.58 10.16 -61.58 10.16 -64.58 8.16 C-57.44 5.52 -50.48 4.11 -42.96 3.03 C-41.77 2.86 -40.59 2.69 -39.37 2.51 C-29.03 1.09 -18.78 0.38 -8.35 0.2 C-5.57 0.16 -2.78 0.08 0 0 Z " fill="#0EB5CA" transform="translate(613.58203125,201.84375)"/>
<path d="M0 0 C2.82 -0.29 2.82 -0.29 6.12 -0.19 C7.77 -0.15 7.77 -0.15 9.45 -0.11 C10.71 -0.05 10.71 -0.05 12 0 C9.7 2.3 7.96 2.9 4.94 4.06 C-14.12 11.87 -30.26 22.7 -45 37 C-46.29 38.25 -46.29 38.25 -47.6 39.52 C-49.86 41.85 -51.85 44.23 -53.81 46.81 C-54.42 47.6 -55.02 48.39 -55.64 49.21 C-56.09 49.8 -56.54 50.39 -57 51 C-57.33 50.34 -57.66 49.68 -58 49 C-57.08 47.12 -55.95 45.42 -54.81 43.66 C-54.54 43.11 -54.28 42.56 -54 42 C-54.33 41.34 -54.66 40.68 -55 40 C-53.68 40 -52.36 40 -51 40 C-50.34 38.02 -49.68 36.04 -49 34 C-46.52 33.5 -46.52 33.5 -44 33 C-44.33 31.68 -44.66 30.36 -45 29 C-44.34 29 -43.68 29 -43 29 C-42.9 28.4 -42.79 27.8 -42.69 27.19 C-41.87 24.58 -41.26 23.56 -39 22 C-35.81 21.81 -35.81 21.81 -33 22 C-33 21.34 -33 20.68 -33 20 C-30.36 19.34 -27.72 18.68 -25 18 C-25 17.34 -25 16.68 -25 16 C-24.34 16 -23.68 16 -23 16 C-23.5 14.51 -23.5 14.51 -24 13 C-22.59 12.16 -21.17 11.33 -19.75 10.5 C-18.96 10.04 -18.17 9.57 -17.36 9.09 C-15 8 -15 8 -11 8 C-11 6.68 -11 5.36 -11 4 C-10.37 3.96 -9.75 3.93 -9.1 3.89 C-8.28 3.82 -7.47 3.76 -6.62 3.69 C-5.81 3.63 -5 3.57 -4.16 3.51 C-1.62 3.17 -1.62 3.17 0 0 Z " fill="#2A3349" transform="translate(380,515)"/>
<path d="M0 0 C1.32 3.97 0.16 6.7 -1 10.56 C-1.47 12.18 -1.94 13.8 -2.4 15.42 C-2.66 16.3 -2.92 17.19 -3.18 18.1 C-5.01 24.58 -6.7 31.1 -8.41 37.61 C-11.12 47.79 -13.99 57.7 -19 67 C-19.33 67 -19.66 67 -20 67 C-20.31 63.66 -19.82 61.3 -18.56 58.25 C-16.8 53.89 -16.31 49.67 -16 45 C-15.34 45 -14.68 45 -14 45 C-13.67 39.72 -13.34 34.44 -13 29 C-12.67 29.66 -12.34 30.32 -12 31 C-11.34 31 -10.68 31 -10 31 C-9.67 29.02 -9.34 27.04 -9 25 C-9.66 25 -10.32 25 -11 25 C-11.04 23.33 -11.04 21.67 -11 20 C-10.67 19.67 -10.34 19.34 -10 19 C-9.77 17.65 -9.59 16.3 -9.44 14.94 C-9.29 13.64 -9.15 12.34 -9 11 C-8.01 11.33 -7.02 11.66 -6 12 C-5.22 9.01 -4.61 6.04 -4 3 C-10.6 3 -17.2 3 -24 3 C-24 2.67 -24 2.34 -24 2 C-21.31 1.66 -18.63 1.33 -15.94 1 C-14.81 0.86 -14.81 0.86 -13.66 0.71 C-9.07 0.15 -4.63 -0.1 0 0 Z " fill="#0CB5D0" transform="translate(671,395)"/>
<path d="M0 0 C0.83 0.15 1.65 0.3 2.5 0.45 C12.19 2.28 21.07 4.73 30 9 C25.97 10.21 23.97 9.45 20 8 C17.34 7.29 14.67 6.65 12 6 C12 5.34 12 4.68 12 4 C-2.19 4 -16.38 4 -31 4 C-31 3.67 -31 3.34 -31 3 C-28.69 2.34 -26.38 1.68 -24 1 C-29.14 0.95 -34.28 0.91 -39.42 0.89 C-41.17 0.88 -42.92 0.87 -44.66 0.85 C-47.18 0.82 -49.7 0.81 -52.22 0.8 C-53 0.79 -53.77 0.78 -54.57 0.77 C-59.44 0.77 -63.36 1.51 -68 3 C-70.72 3.22 -73.27 3.1 -76 3 C-72.32 0.81 -68.41 0.17 -64.25 -0.56 C-63.57 -0.69 -62.89 -0.81 -62.2 -0.94 C-41.55 -4.69 -20.58 -3.74 0 0 Z " fill="#283750" transform="translate(336,278)"/>
<path d="M0 0 C-0.37 7.62 -2.1 14.78 -4.01 22.12 C-5.18 26.72 -6.15 31.33 -7 36 C-7.66 36 -8.32 36 -9 36 C-10.06 37.63 -11.04 39.31 -12 41 C-15.61 46.87 -15.61 46.87 -19 48 C-17.6 44.32 -15.94 40.87 -14.12 37.38 C-9.25 27.65 -6.33 17.84 -3.83 7.31 C-3 4 -3 4 -2 2 C-3.14 2.14 -3.14 2.14 -4.3 2.28 C-21.39 4.25 -38.29 5.3 -55.5 5.25 C-56.8 5.25 -56.8 5.25 -58.12 5.25 C-60.61 5.24 -63.1 5.22 -65.59 5.2 C-66.33 5.2 -67.06 5.19 -67.81 5.19 C-72.61 5.12 -77.25 4.67 -82 4 C-82 3.67 -82 3.34 -82 3 C-81.3 2.99 -80.61 2.98 -79.89 2.97 C-73.32 2.87 -66.76 2.77 -60.2 2.66 C-56.83 2.61 -53.45 2.55 -50.08 2.5 C-46.2 2.45 -42.32 2.38 -38.45 2.32 C-37.23 2.3 -36.02 2.28 -34.76 2.27 C-33.64 2.25 -32.52 2.23 -31.37 2.21 C-30.38 2.19 -29.39 2.17 -28.37 2.16 C-25.98 2.15 -25.98 2.15 -24 1 C-16.02 0.13 -8.02 -0.17 0 0 Z " fill="#24A1B8" transform="translate(650,414)"/>
<path d="M0 0 C3.53 0.54 6.97 1.23 10.44 2.06 C14.4 2.97 17.94 3.17 22 3 C22 3.66 22 4.32 22 5 C24.02 5.16 26.04 5.33 28.05 5.49 C30 6 30 6 32 9 C34.61 9.71 37.02 10.21 39.68 10.61 C40.87 10.8 40.87 10.8 42.08 10.99 C52.37 12.5 62.74 12.81 73.12 13.19 C75.16 13.27 77.2 13.35 79.24 13.44 C84.16 13.64 89.08 13.82 94 14 C94 13.01 94 12.02 94 11 C94.99 11 95.98 11 97 11 C97.33 10.34 97.66 9.68 98 9 C98.99 9 99.98 9 101 9 C102.47 7.23 102.47 7.23 103.69 5 C104.12 4.26 104.56 3.51 105.01 2.75 C105.34 2.17 105.66 1.6 106 1 C106.99 1.5 106.99 1.5 108 2 C105.36 6.62 102.72 11.24 100 16 C64.99 16.46 32.65 15.41 0 1 C0 0.67 0 0.34 0 0 Z " fill="#21374F" transform="translate(214,565)"/>
<path d="M0 0 C1.65 0.33 3.3 0.66 5 1 C5 5.62 5 10.24 5 15 C2.51 16.25 1.59 15.78 -1 15 C-1 16.98 -1 18.96 -1 21 C-1.66 21 -2.32 21 -3 21 C-3 21.66 -3 22.32 -3 23 C-2.01 23.33 -1.02 23.66 0 24 C-0.66 24.66 -1.32 25.32 -2 26 C-5.48 25.85 -7.36 25.6 -9.94 23.19 C-11 21 -11 21 -10.75 18.94 C-10.5 18.3 -10.25 17.66 -10 17 C-9.67 16.01 -9.34 15.02 -9 14 C-8.34 14 -7.68 14 -7 14 C-6.88 12.76 -6.75 11.52 -6.62 10.25 C-6.24 7.12 -5.69 4.71 -4 2 C-2.68 2 -1.36 2 0 2 C0 1.34 0 0.68 0 0 Z " fill="#05B9CF" transform="translate(267,399)"/>
<path d="M0 0 C2.49 1.2 4.68 2.45 7 4 C7 3.01 7 2.02 7 1 C7.66 1 8.32 1 9 1 C8.92 1.93 8.84 2.86 8.75 3.81 C8.87 5.39 8.87 5.39 9 7 C10.31 8.03 11.65 9.03 13 10 C13.25 12.69 13.25 12.69 13 15 C13.99 15 14.98 15 16 15 C18 18 18 18 18 21 C18.76 20.9 19.53 20.79 20.31 20.69 C21.2 20.79 22.09 20.89 23 21 C24.56 23.38 24.56 23.38 26 26 C28.07 27.33 28.07 27.33 30 28 C30 28.99 30 29.98 30 31 C33.3 31.33 36.6 31.66 40 32 C39.67 32.99 39.34 33.98 39 35 C39.97 35.27 40.94 35.54 41.94 35.81 C43.45 36.4 43.45 36.4 45 37 C45.33 37.99 45.66 38.98 46 40 C47.81 40.87 47.81 40.87 49.94 41.44 C53.83 42.74 53.83 42.74 55.5 45.19 C55.66 45.79 55.83 46.38 56 47 C50.99 45.53 46.7 43.38 42.19 40.81 C41.48 40.41 40.77 40.01 40.04 39.59 C34.64 36.48 29.7 33.1 25 29 C24.17 28.28 23.34 27.56 22.48 26.81 C19.96 24.57 17.47 22.3 15 20 C14.37 19.43 13.74 18.85 13.09 18.26 C8.02 13.43 3.77 7.9 0 2 C0 1.34 0 0.68 0 0 Z " fill="#1D98AE" transform="translate(152,535)"/>
<path d="M0 0 C5.53 -0.05 11.06 -0.09 16.58 -0.11 C18.46 -0.12 20.33 -0.13 22.2 -0.15 C31.78 -0.24 41.26 -0.19 50.79 0.88 C51.86 1 51.86 1 52.96 1.12 C54.65 1.33 56.33 1.66 58 2 C58.5 2.99 58.5 2.99 59 4 C58.07 3.93 57.15 3.86 56.2 3.78 C27.12 1.7 -3.97 1.59 -31.16 13.74 C-34 15 -34 15 -36.44 14.69 C-36.95 14.46 -37.47 14.23 -38 14 C-36.86 13.32 -36.86 13.32 -35.69 12.62 C-33.76 11.46 -31.87 10.25 -30 9 C-26.59 8.42 -23.18 8.02 -19.75 7.62 C-16.78 6.95 -15.94 6.24 -14 4 C-13.34 4 -12.68 4 -12 4 C-12 3.34 -12 2.68 -12 2 C-8.7 0.9 -7.6 1.13 -4.31 1.94 C-3.1 2.23 -3.1 2.23 -1.86 2.53 C-0.94 2.76 -0.94 2.76 0 3 C0 2.01 0 1.02 0 0 Z " fill="#20A8BE" transform="translate(272,273)"/>
<path d="M0 0 C4.68 1.41 8.9 3.36 13.19 5.69 C13.84 6.04 14.49 6.39 15.17 6.75 C20.15 9.46 24.93 12.42 29.68 15.52 C32.38 17.24 35.1 18.67 38 20 C38.26 19.41 38.52 18.83 38.78 18.22 C40.1 15.83 41.52 14.31 43.5 12.44 C45.72 10.32 47.28 8.58 49 6 C49.66 6 50.32 6 51 6 C51 5.34 51 4.68 51 4 C51.99 3.67 52.98 3.34 54 3 C54 3.66 54 4.32 54 5 C53.34 5 52.68 5 52 5 C52 5.66 52 6.32 52 7 C51.34 7 50.68 7 50 7 C50 8.32 50 9.64 50 11 C49.34 11 48.68 11 48 11 C47.67 12.32 47.34 13.64 47 15 C45.68 15.33 44.36 15.66 43 16 C43 16.66 43 17.32 43 18 C42.34 18 41.68 18 41 18 C40.01 20.97 39.02 23.94 38 27 C36.35 26.67 34.7 26.34 33 26 C32.5 24.51 32.5 24.51 32 23 C31.34 23.33 30.68 23.66 30 24 C30 23.34 30 22.68 30 22 C29.2 21.77 28.39 21.55 27.56 21.31 C26.72 20.88 25.87 20.45 25 20 C24.19 17.38 24.19 17.38 24 15 C22.68 15 21.36 15 20 15 C19.67 14.01 19.34 13.02 19 12 C17.32 11.21 15.63 10.43 13.9 9.76 C12 9 12 9 8.94 7.38 C5.91 5.96 3.3 5.39 0 5 C0 3.35 0 1.7 0 0 Z " fill="#2E3046" transform="translate(368,288)"/>
<path d="M0 0 C0.99 0.5 0.99 0.5 2 1 C-1.83 11.32 -8.99 19.68 -16 28 C-16.71 28.93 -17.42 29.86 -18.14 30.82 C-18.76 31.54 -19.37 32.26 -20 33 C-20.66 33 -21.32 33 -22 33 C-22 33.66 -22 34.32 -22 35 C-33.28 46.97 -49.76 57.88 -65 64 C-65.99 64 -66.98 64 -68 64 C-68 63.34 -68 62.68 -68 62 C-66.02 61.5 -66.02 61.5 -64 61 C-64.5 59.51 -64.5 59.51 -65 58 C-62.36 58 -59.72 58 -57 58 C-57 57.34 -57 56.68 -57 56 C-54.52 55.5 -54.52 55.5 -52 55 C-51.67 54.01 -51.34 53.02 -51 52 C-47.62 49.53 -46.29 49 -42 49 C-42 48.34 -42 47.68 -42 47 C-41.01 47 -40.02 47 -39 47 C-38.67 46.01 -38.34 45.02 -38 44 C-37.01 44 -36.02 44 -35 44 C-34.71 43.4 -34.42 42.8 -34.12 42.19 C-31.57 37.22 -31.57 37.22 -27.88 35.81 C-26.93 35.54 -25.98 35.28 -25 35 C-24.67 32.69 -24.34 30.38 -24 28 C-22.35 28.33 -20.7 28.66 -19 29 C-19 28.34 -19 27.68 -19 27 C-18.34 27 -17.68 27 -17 27 C-17 26.34 -17 25.68 -17 25 C-16.34 24.67 -15.68 24.34 -15 24 C-14.28 22.36 -13.61 20.69 -13 19 C-12.01 19 -11.02 19 -10 19 C-9.67 17.02 -9.34 15.04 -9 13 C-8.01 13 -7.02 13 -6 13 C-6 11.68 -6 10.36 -6 9 C-5.01 9 -4.02 9 -3 9 C-3 7.02 -3 5.04 -3 3 C-2.01 3 -1.02 3 0 3 C0 2.01 0 1.02 0 0 Z " fill="#218EA4" transform="translate(649,461)"/>
<path d="M0 0 C8.15 -0.43 15.18 0.71 23 3 C19.56 9.33 19.56 9.33 17.25 12.09 C12.51 17.87 11.33 22.78 10.77 30.04 C9.64 43.16 5.04 56.34 -1 68 C-2.61 62.88 -1.44 57.85 0.96 53.11 C1.3 52.53 1.65 51.96 2 51.38 C6.77 43.32 6.63 34.59 7.21 25.45 C7.29 24.41 7.36 23.37 7.44 22.3 C7.5 21.35 7.56 20.41 7.62 19.43 C8 17 8 17 10 14 C12.62 13.31 12.62 13.31 15 13 C15.33 11.68 15.66 10.36 16 9 C16.66 9 17.32 9 18 9 C18 7.35 18 5.7 18 4 C12.06 3.01 6.12 2.02 0 1 C0 0.67 0 0.34 0 0 Z " fill="#20384E" transform="translate(629,221)"/>
<path d="M0 0 C0.99 0.33 1.98 0.66 3 1 C-0.64 4.69 -4.28 8.37 -7.93 12.04 C-9.17 13.29 -10.4 14.54 -11.63 15.79 C-18.38 22.63 -25.12 29.21 -32.7 35.14 C-34.96 36.97 -36.98 38.91 -39 41 C-39.99 40.67 -40.98 40.34 -42 40 C-41.67 38.68 -41.34 37.36 -41 36 C-39.68 36 -38.36 36 -37 36 C-37 34.68 -37 33.36 -37 32 C-33.91 30.24 -32.77 30 -29 30 C-28.66 28.4 -28.33 26.79 -28 25.19 C-27.72 23.85 -27.72 23.85 -27.44 22.48 C-26.91 19.93 -26.91 19.93 -27 17 C-26.15 16.81 -25.29 16.61 -24.41 16.41 C-23.31 16.15 -22.2 15.89 -21.06 15.62 C-19.96 15.37 -18.86 15.11 -17.72 14.85 C-16.82 14.57 -15.93 14.29 -15 14 C-14.67 13.34 -14.34 12.68 -14 12 C-12.68 12 -11.36 12 -10 12 C-9.73 11.4 -9.46 10.8 -9.19 10.19 C-7.97 7.95 -6.86 6.72 -5 5 C-4.11 4.11 -3.23 3.23 -2.31 2.31 C-1.55 1.55 -0.79 0.79 0 0 Z " fill="#2C324A" transform="translate(575,357)"/>
<path d="M0 0 C0 0.33 0 0.66 0 1 C-0.55 1.01 -1.1 1.02 -1.66 1.03 C-7.36 1.14 -13.05 1.25 -18.74 1.37 C-20.87 1.42 -23 1.46 -25.13 1.5 C-28.18 1.55 -31.23 1.62 -34.28 1.68 C-35.23 1.7 -36.19 1.72 -37.18 1.73 C-38.06 1.75 -38.94 1.77 -39.85 1.79 C-40.63 1.81 -41.41 1.83 -42.21 1.84 C-44.02 1.81 -44.02 1.81 -45 3 C-46.56 3.28 -48.14 3.49 -49.71 3.68 C-51.2 3.87 -51.2 3.87 -52.71 4.05 C-53.77 4.18 -54.84 4.31 -55.94 4.44 C-57.56 4.64 -57.56 4.64 -59.22 4.84 C-64.24 5.45 -69.25 6.04 -74.28 6.54 C-84.28 7.51 -84.28 7.51 -93.9 10.34 C-98.12 11.67 -102.6 11.76 -107 12 C-103.75 9.84 -101.38 9.23 -97.6 8.34 C-96.32 8.04 -95.03 7.74 -93.71 7.43 C-93.03 7.28 -92.36 7.13 -91.67 6.97 C-89.66 6.51 -87.66 6.04 -85.66 5.57 C-57.85 -0.92 -28.44 -3.22 0 0 Z " fill="#1D3E55" transform="translate(629,220)"/>
<path d="M0 0 C-0.66 0 -1.32 0 -2 0 C-2 0.66 -2 1.32 -2 2 C-7 3.67 -12 5.33 -17 7 C-17.73 9.02 -17.73 9.02 -18 11 C-20.31 11 -22.62 11 -25 11 C-25 11.66 -25 12.32 -25 13 C-24.34 13.33 -23.68 13.66 -23 14 C-24.38 15.5 -24.38 15.5 -26 17 C-26.66 17 -27.32 17 -28 17 C-28 18.65 -28 20.3 -28 22 C-29.32 22 -30.64 22 -32 22 C-31.12 15.12 -31.12 15.12 -30 14 C-31.32 13.67 -32.64 13.34 -34 13 C-34 13.66 -34 14.32 -34 15 C-35.88 17.12 -35.88 17.12 -38 19 C-38.66 19 -39.32 19 -40 19 C-40.33 19.66 -40.66 20.32 -41 21 C-41 20.34 -41 19.68 -41 19 C-41.91 19.35 -42.81 19.7 -43.75 20.06 C-47.01 21 -47.93 20.96 -51 20 C-39.36 13.44 -27.36 8.05 -15 3 C-13.8 2.51 -12.59 2.02 -11.36 1.51 C-3.98 -1.35 -3.98 -1.35 0 0 Z " fill="#2F3145" transform="translate(520,234)"/>
<path d="M0 0 C0.87 0.47 1.73 0.95 2.62 1.44 C2.62 2.1 2.62 2.76 2.62 3.44 C5.26 3.77 7.9 4.1 10.62 4.44 C10.62 4.77 10.62 5.1 10.62 5.44 C3.69 6.92 3.69 6.92 -3.38 8.44 C-3.38 6.13 -3.38 3.82 -3.38 1.44 C-6.01 1.44 -8.65 1.44 -11.38 1.44 C-11.38 2.43 -11.38 3.42 -11.38 4.44 C-10.06 4.44 -8.74 4.44 -7.38 4.44 C-7.38 6.42 -7.38 8.4 -7.38 10.44 C-8.62 10.97 -9.87 11.49 -11.12 12 C-11.82 12.29 -12.52 12.58 -13.23 12.88 C-15.74 13.53 -16.96 13.33 -19.38 12.44 C-20.37 11.78 -21.36 11.12 -22.38 10.44 C-20.39 9.78 -18.42 9.12 -16.38 8.44 C-16.38 7.78 -16.38 7.12 -16.38 6.44 C-18.85 5.45 -18.85 5.45 -21.38 4.44 C-20.71 4.11 -20.06 3.78 -19.38 3.44 C-19.38 2.78 -19.38 2.12 -19.38 1.44 C-11.96 -1.98 -7.7 -3.56 0 0 Z " fill="#04B9D4" transform="translate(407.375,517.5625)"/>
<path d="M0 0 C2.31 0.33 4.62 0.66 7 1 C6.58 1.48 6.16 1.96 5.72 2.46 C5.17 3.09 4.63 3.72 4.06 4.38 C3.52 5 2.97 5.63 2.41 6.27 C0.93 7.96 0.93 7.96 0 10 C23.49 11.5 47.38 12.26 70.79 9.44 C74.88 8.95 78.88 8.93 83 9 C83 9.33 83 9.66 83 10 C71.26 13.17 60.56 14.51 48.43 14.1 C45 14 41.57 13.93 38.14 13.88 C34.74 13.82 31.34 13.75 27.95 13.68 C26.25 13.64 24.55 13.61 22.85 13.58 C14.01 13.41 5.62 13.15 -3 11 C-3 9.68 -3 8.36 -3 7 C-2.34 7 -1.68 7 -1 7 C-0.67 6.01 -0.34 5.02 0 4 C0.66 3.67 1.32 3.34 2 3 C1.34 2.67 0.68 2.34 0 2 C0 1.34 0 0.68 0 0 Z " fill="#1D768D" transform="translate(563,389)"/>
<path d="M0 0 C1.32 0 2.64 0 4 0 C4.66 1.32 5.32 2.64 6 4 C6.66 4 7.32 4 8 4 C8.33 2.68 8.66 1.36 9 0 C10.26 3.77 9.71 4.47 8 8 C6.53 10.59 4.97 13.11 3.38 15.62 C2.93 16.33 2.49 17.03 2.03 17.76 C-1.22 22.89 -4.65 27.82 -8.31 32.67 C-10.06 35 -10.06 35 -11.57 37.64 C-13.34 40.57 -15.53 42.65 -18 45 C-18.76 45.76 -19.53 46.53 -20.31 47.31 C-20.87 47.87 -21.43 48.43 -22 49 C-21.5 46.03 -21.5 46.03 -21 43 C-20.01 43 -19.02 43 -18 43 C-17.57 41.55 -17.57 41.55 -17.12 40.06 C-16 37 -16 37 -14 36 C-13.35 33.98 -13.35 33.98 -13 32 C-12.34 32 -11.68 32 -11 32 C-10.57 31.1 -10.57 31.1 -10.12 30.19 C-9 28 -9 28 -7 25 C-6.34 25 -5.68 25 -5 25 C-3 20.88 -2.82 17.55 -3 13 C-2.34 13 -1.68 13 -1 13 C1.02 10.09 2.35 7.48 3 4 C2.34 4 1.68 4 1 4 C0.67 2.68 0.34 1.36 0 0 Z " fill="#2A324A" transform="translate(617,288)"/>
<path d="M0 0 C5.61 1.56 10.87 3.16 16 6 C16 10.24 13.78 12.92 11.56 16.38 C11.11 17.09 10.67 17.81 10.2 18.55 C8.07 21.92 5.9 25.2 3.44 28.35 C-3.17 36.94 -4.9 44.46 -6 55 C-6.33 55 -6.66 55 -7 55 C-7 49.39 -7 43.78 -7 38 C-6.34 38 -5.68 38 -5 38 C-4.87 36.97 -4.87 36.97 -4.74 35.92 C-4.31 33.19 -3.84 30.63 -3 28 C-0.56 26.31 -0.56 26.31 2 25 C3 22.67 4.01 20.34 5 18 C7.19 17.06 7.19 17.06 9 17 C9 16.01 9 15.02 9 14 C9.66 14 10.32 14 11 14 C11 12.68 11 11.36 11 10 C11.66 10 12.32 10 13 10 C13 9.01 13 8.02 13 7 C12.44 6.88 11.88 6.76 11.3 6.63 C8.81 5.95 6.59 5.01 4.25 3.94 C3.45 3.58 2.65 3.21 1.83 2.84 C0.92 2.42 0.92 2.42 0 2 C0 1.34 0 0.68 0 0 Z " fill="#21899B" transform="translate(662,209)"/>
<path d="M0 0 C4.71 0.71 4.71 0.71 6 2 C6.09 3.78 6.11 5.56 6.1 7.35 C6.09 8.43 6.09 9.51 6.09 10.62 C6.08 11.76 6.07 12.89 6.06 14.06 C6.06 15.2 6.05 16.34 6.05 17.52 C6.04 20.35 6.02 23.17 6 26 C5.34 26 4.68 26 4 26 C4.04 26.89 4.08 27.77 4.12 28.69 C4 32.08 3.7 34.08 2 37 C0.36 37.72 -1.31 38.39 -3 39 C-3.33 39.99 -3.66 40.98 -4 42 C-3.26 41.79 -2.51 41.59 -1.75 41.38 C1 41 1 41 5 43 C1.04 43 -2.92 43 -7 43 C-7.33 42.34 -7.66 41.68 -8 41 C-10.31 39.95 -12.64 38.94 -15 38 C-15 37.34 -15 36.68 -15 36 C-15.66 36 -16.32 36 -17 36 C-16.67 34.68 -16.34 33.36 -16 32 C-15.67 32.66 -15.34 33.32 -15 34 C-13 36.43 -13 36.43 -9.06 36.31 C-7.71 36.23 -6.35 36.13 -5 36 C-4.24 35.98 -3.47 35.96 -2.69 35.94 C0.36 34.24 0.9 31.15 2 28 C2.82 24.58 3.12 21.43 3.1 17.92 C3.09 16.52 3.09 16.52 3.09 15.1 C3.08 14.14 3.07 13.18 3.06 12.19 C3.06 11.21 3.05 10.23 3.05 9.22 C3.04 6.81 3.02 4.41 3 2 C0.03 3.98 -2.94 5.96 -6 8 C-6 6.68 -6 5.36 -6 4 C-3.56 2.31 -3.56 2.31 -1 1 C-0.67 0.67 -0.34 0.34 0 0 Z " fill="#26364E" transform="translate(271,390)"/>
<path d="M0 0 C4.22 -0.15 7.43 -0.15 11.55 0.94 C16.25 2.14 20.93 2.69 25.76 3.12 C26.7 3.2 27.65 3.29 28.62 3.37 C41.02 4.37 53.44 4.22 65.88 4.12 C68.33 4.11 70.78 4.11 73.23 4.1 C79.16 4.08 85.08 4.04 91 4 C91 4.33 91 4.66 91 5 C80.27 6.61 69.77 7.32 58.92 7.26 C56.57 7.25 54.22 7.26 51.87 7.27 C37.48 7.29 23.54 5.73 9.44 2.88 C8.05 2.6 8.05 2.6 6.63 2.32 C4.42 1.89 2.21 1.45 0 1 C0 0.67 0 0.34 0 0 Z " fill="#1B4056" transform="translate(442,515)"/>
<path d="M0 0 C0.33 0 0.66 0 1 0 C1.41 8.37 -0.31 14.91 -3.5 22.62 C-8.38 35.53 -8.51 49.41 -8.69 63 C-8.72 64.76 -8.76 66.52 -8.79 68.27 C-8.87 72.52 -8.94 76.76 -9 81 C-9.33 81 -9.66 81 -10 81 C-13.38 52.67 -9.2 26.79 0 0 Z " fill="#2594AB" transform="translate(142,391)"/>
<path d="M0 0 C0.33 0.99 0.66 1.98 1 3 C0.67 3.66 0.34 4.32 0 5 C-0.07 6.54 -0.08 8.08 -0.06 9.62 C-0.05 10.44 -0.04 11.26 -0.04 12.1 C-0.02 12.73 -0.01 13.35 0 14 C-2.31 14.33 -4.62 14.66 -7 15 C-6.96 15.87 -6.92 16.73 -6.88 17.62 C-7.03 21.82 -7.58 25.46 -10.5 28.62 C-11 29.08 -11.49 29.53 -12 30 C-13.18 32.1 -13.18 32.1 -14 34 C-14.66 34 -15.32 34 -16 34 C-16.06 35.09 -16.12 36.19 -16.19 37.31 C-17 41 -17 41 -19.56 42.94 C-20.37 43.29 -21.17 43.64 -22 44 C-19.11 31.47 -12.34 20.26 -6.12 9.12 C-5.74 8.44 -5.36 7.76 -4.97 7.05 C-3.48 4.42 -2.15 2.15 0 0 Z " fill="#17A2B7" transform="translate(165,346)"/>
<path d="M0 0 C-0.62 2.94 -1.24 5.88 -1.88 8.81 C-2.14 10.06 -2.14 10.06 -2.4 11.34 C-2.58 12.14 -2.75 12.94 -2.93 13.77 C-3.17 14.88 -3.17 14.88 -3.41 16.01 C-4 18 -4 18 -6 21 C-5.5 14.56 -5.5 14.56 -5 8 C-4.34 8 -3.68 8 -3 8 C-2.67 5.69 -2.34 3.38 -2 1 C-2.92 1.14 -3.84 1.29 -4.78 1.44 C-11.25 2.42 -17.45 3.26 -24 3 C-24 3.66 -24 4.32 -24 5 C-29.55 5.02 -35.1 5.04 -40.65 5.05 C-42.54 5.06 -44.42 5.07 -46.31 5.08 C-49.03 5.09 -51.75 5.09 -54.47 5.1 C-55.72 5.11 -55.72 5.11 -56.99 5.11 C-62.09 5.11 -66.96 4.73 -72 4 C-72 3.67 -72 3.34 -72 3 C-70.35 2.97 -70.35 2.97 -68.66 2.94 C-41.78 2.52 -41.78 2.52 -15 0.41 C-9.99 -0.15 -5.03 -0.16 0 0 Z " fill="#193C53" transform="translate(648,416)"/>
<path d="M0 0 C1 2 1 2 0.38 4.19 C-1.35 7.72 -3.36 11.07 -6 14 C-6.66 14 -7.32 14 -8 14 C-7.98 14.85 -7.96 15.69 -7.94 16.56 C-8 20.12 -8.5 23.48 -9 27 C-9.04 29 -9.05 31 -9 33 C-9.66 33 -10.32 33 -11 33 C-11.12 33.6 -11.24 34.21 -11.37 34.83 C-11.53 35.63 -11.7 36.43 -11.88 37.25 C-12.04 38.04 -12.2 38.83 -12.37 39.64 C-13 42 -13 42 -14 43.94 C-15.25 46.51 -15.66 48.93 -16.12 51.75 C-16.29 52.73 -16.46 53.72 -16.63 54.73 C-16.81 55.86 -16.81 55.86 -17 57 C-17.66 57 -18.32 57 -19 57 C-19 57.99 -19 58.98 -19 60 C-20.49 60.5 -20.49 60.5 -22 61 C-21.84 60.48 -21.68 59.95 -21.52 59.41 C-21.01 57.7 -20.5 56 -19.99 54.29 C-19.27 51.9 -18.53 49.52 -17.76 47.15 C-17.31 45.75 -16.87 44.34 -16.44 42.94 C-16.21 42.21 -15.98 41.48 -15.75 40.73 C-14.45 36.3 -13.78 32.21 -13.55 27.61 C-12.94 16.08 -7.21 8.7 0 0 Z " fill="#20A3B9" transform="translate(652,224)"/>
<path d="M0 0 C1.36 4.08 0.07 7.03 -1.12 11 C-1.59 12.61 -2.06 14.22 -2.52 15.84 C-2.76 16.68 -3.01 17.52 -3.26 18.38 C-4.51 22.78 -5.66 27.2 -6.81 31.62 C-7.03 32.46 -7.25 33.3 -7.48 34.16 C-7.98 36.1 -8.49 38.05 -9 40 C-11 37 -11 37 -10.75 34.89 C-10.5 33.93 -10.25 32.98 -10 32 C-9.69 30.57 -9.39 29.14 -9.1 27.71 C-8.75 26.08 -8.41 24.44 -8.06 22.81 C-6.67 16.22 -5.3 9.62 -4 3 C-10.6 3 -17.2 3 -24 3 C-24 2.67 -24 2.34 -24 2 C-21.31 1.66 -18.63 1.33 -15.94 1 C-14.81 0.86 -14.81 0.86 -13.66 0.71 C-9.07 0.15 -4.63 -0.1 0 0 Z " fill="#2391A7" transform="translate(671,395)"/>
<path d="M0 0 C2.64 0 5.28 0 8 0 C5.32 2.68 2.13 3.95 -1.25 5.56 C-13.66 11.64 -24.46 19.03 -35 28 C-36.66 29.34 -38.33 30.67 -40 32 C-40.33 31.01 -40.66 30.02 -41 29 C-39.68 28.67 -38.36 28.34 -37 28 C-36.67 26.02 -36.34 24.04 -36 22 C-34.02 21.67 -32.04 21.34 -30 21 C-30 20.34 -30 19.68 -30 19 C-29.01 19 -28.02 19 -27 19 C-27 18.34 -27 17.68 -27 17 C-26.01 17 -25.02 17 -24 17 C-24 16.34 -24 15.68 -24 15 C-23.01 15 -22.02 15 -21 15 C-21 14.34 -21 13.68 -21 13 C-20.36 12.9 -19.72 12.79 -19.06 12.69 C-18.38 12.46 -17.7 12.23 -17 12 C-16.67 11.01 -16.34 10.02 -16 9 C-13.94 8.31 -13.94 8.31 -12 8 C-12 7.01 -12 6.02 -12 5 C-8.12 3.81 -5.08 3 -1 3 C-0.67 2.01 -0.34 1.02 0 0 Z " fill="#20889B" transform="translate(385,534)"/>
<path d="M0 0 C-4.73 2.6 -9.18 4.41 -14.38 5.88 C-19.81 7.45 -23.98 9.67 -28.7 12.74 C-32.16 14.63 -35.09 14.86 -39 15 C-39 15.99 -39 16.98 -39 18 C-45.62 19 -45.62 19 -49 19 C-39.73 12.24 -12.02 -4.81 0 0 Z " fill="#1F9EB4" transform="translate(254,265)"/>
<path d="M0 0 C0 3.26 -0.32 4.28 -2 7 C-3.24 8.18 -3.24 8.18 -4.5 9.38 C-7.2 12.21 -7.91 14.3 -9 18 C-9.99 18.5 -9.99 18.5 -11 19 C-11.86 20.79 -12.72 22.58 -13.51 24.41 C-16.34 27.44 -20.65 26.95 -24.56 27.1 C-27.56 27.17 -30.56 27.19 -33.56 27.19 C-34.65 27.19 -35.74 27.19 -36.86 27.19 C-44.43 27.13 -51.95 26.78 -59.5 26.12 C-60.91 26.01 -60.91 26.01 -62.36 25.89 C-63.65 25.76 -63.65 25.76 -64.97 25.63 C-65.73 25.56 -66.48 25.49 -67.26 25.41 C-67.84 25.28 -68.41 25.14 -69 25 C-69.33 24.34 -69.66 23.68 -70 23 C-69.23 23.07 -68.46 23.14 -67.67 23.22 C-56.81 24.12 -46.01 24.11 -35.12 24.06 C-33.26 24.06 -31.4 24.05 -29.54 24.05 C-25.02 24.04 -20.51 24.02 -16 24 C-15.55 23.13 -15.1 22.27 -14.64 21.38 C-11.51 15.43 -8.49 9.79 -4.06 4.69 C-3.29 3.78 -2.52 2.88 -1.72 1.95 C-1.15 1.31 -0.59 0.66 0 0 Z " fill="#299AB0" transform="translate(330,556)"/>
<path d="M0 0 C5.96 0.57 10.98 2.3 16.5 4.56 C17.37 4.91 18.24 5.26 19.13 5.62 C27.06 8.89 34.56 12.76 42 17 C41.67 17.66 41.34 18.32 41 19 C39.68 18.67 38.36 18.34 37 18 C37 17.34 37 16.68 37 16 C35.95 15.9 34.9 15.79 33.81 15.69 C30 15 30 15 27.75 13.62 C23.49 11.11 18.78 10.18 14 9 C14 8.34 14 7.68 14 7 C13.41 6.91 12.82 6.83 12.21 6.74 C6.5 5.72 3.68 4.51 0 0 Z " fill="#1A90A2" transform="translate(358,266)"/>
<path d="M0 0 C1.42 -0.03 2.83 -0.05 4.25 -0.06 C5.43 -0.08 5.43 -0.08 6.64 -0.1 C9 0 9 0 10.85 0.48 C15.08 1.5 19.55 1.3 23.88 1.43 C24.91 1.62 25.94 1.8 27 2 C28.17 3.96 28.17 3.96 29 6 C30.94 6.91 30.94 6.91 33.12 7.25 C34.4 7.5 35.68 7.75 37 8 C37 8.66 37 9.32 37 10 C38.21 10.15 38.21 10.15 39.44 10.31 C45.02 11.39 50.25 12.83 55 16 C55 16.99 55 17.98 55 19 C51.31 17.93 48.01 16.53 44.62 14.75 C30.33 7.55 15.64 4.06 0 1 C0 0.67 0 0.34 0 0 Z " fill="#23A4B9" transform="translate(331,277)"/>
<path d="M0 0 C10 10 10 10 12.31 12.38 C18.29 18.22 24.33 23.05 31.48 27.42 C33.76 28.85 35.88 30.36 38 32 C33.55 31.01 33.55 31.01 29 30 C29 29.34 29 28.68 29 28 C27.68 28 26.36 28 25 28 C24.34 27.01 23.68 26.02 23 25 C21 24.32 19 23.65 17 23 C15.98 22.02 14.98 21.02 14 20 C11.4 18.81 11.4 18.81 9 18 C8.94 16.95 8.88 15.9 8.81 14.81 C7.85 10.29 6.41 9 3 6 C0 2.38 0 2.38 0 0 Z " fill="#20A6B9" transform="translate(170,531)"/>
<path d="M0 0 C0.66 0.33 1.32 0.66 2 1 C1.34 2.32 0.68 3.64 0 5 C-0.66 5 -1.32 5 -2 5 C-2 5.66 -2 6.32 -2 7 C-2.66 7 -3.32 7 -4 7 C-4.33 7.99 -4.66 8.98 -5 10 C-6.32 10 -7.64 10 -9 10 C-8.97 11.97 -8.97 11.97 -8 14 C-5 15.3 -5 15.3 -2 16 C-1 19.06 -1 19.06 -1 23 C-3.3 25.83 -5.95 28.02 -9 30 C-9.66 30 -10.32 30 -11 30 C-11 30.66 -11 31.32 -11 32 C-12.32 31.67 -13.64 31.34 -15 31 C-14.55 30.64 -14.11 30.27 -13.64 29.9 C-9.61 26.55 -6.24 23.12 -3 19 C-4.98 18.34 -6.96 17.68 -9 17 C-9 16.34 -9 15.68 -9 15 C-9.99 15 -10.98 15 -12 15 C-11.7 10.72 -10.18 8.81 -7 6.01 C-6.49 5.57 -5.97 5.14 -5.44 4.69 C-4.92 4.23 -4.4 3.78 -3.86 3.31 C-2.58 2.2 -1.29 1.1 0 0 Z " fill="#1E3F55" transform="translate(215,298)"/>
<path d="M0 0 C0 0.33 0 0.66 0 1 C-3.33 1.74 -6.45 2.14 -9.85 2.21 C-11.24 2.25 -11.24 2.25 -12.65 2.29 C-13.63 2.32 -14.61 2.35 -15.62 2.38 C-23.9 2.67 -31.89 3.42 -40.05 4.84 C-45.75 5.82 -51.44 6.58 -57.19 7.19 C-57.95 7.27 -58.72 7.35 -59.51 7.44 C-64.36 7.94 -69.12 8.07 -74 8 C-74 7.67 -74 7.34 -74 7 C-49.32 2.68 -25.11 -0.18 0 0 Z " fill="#217D90" transform="translate(613,201)"/>
<path d="M0 0 C-14.85 7.54 -34.11 14.58 -51 14 C-50.34 13.01 -49.68 12.02 -49 11 C-47.1 10.71 -45.19 10.43 -43.27 10.31 C-40.88 10.06 -40.88 10.06 -38.24 9.05 C-34.5 7.84 -30.76 7.27 -26.88 6.69 C-18.59 5.35 -7.55 -2.26 0 0 Z " fill="#1E3A51" transform="translate(584,505)"/>
<path d="M0 0 C0 0.66 0 1.32 0 2 C-0.99 2 -1.98 2 -3 2 C-3 2.66 -3 3.32 -3 4 C-6.78 6.59 -10.74 8.56 -15.25 9.44 C-16.12 9.72 -16.12 9.72 -17 10 C-17.33 10.99 -17.66 11.98 -18 13 C-19.61 13.22 -19.61 13.22 -21.25 13.44 C-23.92 13.84 -26.41 14.28 -29 15 C-29 15.66 -29 16.32 -29 17 C-33.95 18.49 -33.95 18.49 -39 20 C-31.58 12.58 -10.9 0 0 0 Z " fill="#1E92A1" transform="translate(492,224)"/>
<path d="M0 0 C0 0.66 0 1.32 0 2 C-0.64 2.1 -1.28 2.21 -1.94 2.31 C-2.62 2.54 -3.3 2.77 -4 3 C-4.33 3.99 -4.66 4.98 -5 6 C-5.66 6 -6.32 6 -7 6 C-7.66 7.98 -8.32 9.96 -9 12 C-10.73 11.85 -10.73 11.85 -12.5 11.69 C-17.03 11.66 -19.53 13.28 -23.17 15.82 C-25.39 17.25 -27.38 17.75 -30 18 C-26.27 13.95 -22.44 11.19 -17.69 8.44 C-17.02 8.05 -16.36 7.66 -15.68 7.26 C-3.25 0 -3.25 0 0 0 Z " fill="#1DA8BD" transform="translate(380,521)"/>
<path d="M0 0 C3.63 0 7.26 0 11 0 C11 0.66 11 1.32 11 2 C11.66 2 12.32 2 13 2 C13 2.66 13 3.32 13 4 C13.9 4.18 14.81 4.36 15.74 4.55 C16.92 4.8 18.1 5.05 19.31 5.31 C20.48 5.56 21.66 5.8 22.86 6.05 C25.88 6.96 27.11 7.56 29 10 C17.58 7.28 17.58 7.28 12.25 5.25 C7.96 3.78 4.38 4.05 0 5 C-1.35 5.26 -1.35 5.26 -2.72 5.52 C-5.15 6 -7.58 6.49 -10 7 C-10 6.34 -10 5.68 -10 5 C-6.58 2.46 -4.24 1.64 0 2 C0 1.34 0 0.68 0 0 Z " fill="#26374F" transform="translate(410,505)"/>
<path d="M0 0 C0 0.33 0 0.66 0 1 C-21.27 4.58 -41.43 6.16 -63 6 C-63 5.67 -63 5.34 -63 5 C-62.04 4.95 -61.07 4.9 -60.08 4.85 C-56.48 4.66 -52.88 4.46 -49.29 4.26 C-47.73 4.17 -46.18 4.09 -44.63 4.01 C-42.39 3.89 -40.14 3.76 -37.9 3.63 C-37.22 3.6 -36.53 3.57 -35.82 3.53 C-31.31 3.26 -27.32 2.32 -23 1 C-15.37 0.08 -7.68 -0.13 0 0 Z " fill="#1C7E91" transform="translate(550,534)"/>
<path d="M0 0 C0.66 0 1.32 0 2 0 C0.63 3.02 -0.97 5.29 -3.19 7.75 C-3.8 8.44 -4.41 9.12 -5.05 9.83 C-5.69 10.54 -6.34 11.26 -7 12 C-8.31 13.5 -9.63 15 -10.94 16.5 C-11.96 17.67 -12.98 18.83 -14 20 C-14.62 18.14 -14.62 18.14 -15 16 C-13.06 13.75 -13.06 13.75 -11 12 C-11.33 11.34 -11.66 10.68 -12 10 C-10.94 6.44 -10.94 6.44 -9 3 C-5.79 1.95 -4.06 1.47 -1 3 C-0.67 2.01 -0.34 1.02 0 0 Z " fill="#2C3448" transform="translate(593,337)"/>
<path d="M0 0 C19.44 -0.23 38.64 -0.14 58 2 C58 2.66 58 3.32 58 4 C59.32 4.33 60.64 4.66 62 5 C59.4 6.3 58.37 5.78 55.56 5.13 C50.05 3.95 44.61 3.37 39 2.94 C37.98 2.86 36.97 2.77 35.92 2.69 C23.97 1.77 11.99 1.36 0 1 C0 0.67 0 0.34 0 0 Z " fill="#28A0B4" transform="translate(590,218)"/>
<path d="M0 0 C0.66 0.33 1.32 0.66 2 1 C0.31 4.38 -0.92 5.95 -4.12 8.06 C-7.11 9.67 -7.11 9.67 -7.81 12.12 C-7.91 13.05 -7.91 13.05 -8 14 C-8.33 14.66 -8.66 15.32 -9 16 C-11.97 15.5 -11.97 15.5 -15 15 C-15.33 15.99 -15.66 16.98 -16 18 C-16.66 18 -17.32 18 -18 18 C-18.66 19.32 -19.32 20.64 -20 22 C-21.32 21.67 -22.64 21.34 -24 21 C-23.05 19.99 -22.09 19 -21.12 18 C-20.59 17.44 -20.06 16.89 -19.51 16.31 C-18 15 -18 15 -16 15 C-16 14.34 -16 13.68 -16 13 C-13.74 11.09 -11.48 9.28 -9.12 7.5 C-7.84 6.51 -6.55 5.52 -5.26 4.53 C-4.68 4.09 -4.11 3.66 -3.51 3.21 C-1.86 1.93 -1.86 1.93 0 0 Z " fill="#23394F" transform="translate(446,269)"/>
<path d="M0 0 C1.32 0.33 2.64 0.66 4 1 C1.63 4.81 -0.43 7.35 -4 10 C-5.03 11.65 -6.03 13.32 -7 15 C-10.59 20.72 -14.22 26.41 -18 32 C-18.33 31.01 -18.66 30.02 -19 29 C-18.07 27.29 -17.05 25.63 -16 24 C-14.62 21.36 -13.31 18.68 -12 16 C-11 14 -10 12 -9 10 C-8.34 10 -7.68 10 -7 10 C-7 9.34 -7 8.68 -7 8 C-6.34 8 -5.68 8 -5 8 C-5 7.34 -5 6.68 -5 6 C-4.01 6 -3.02 6 -2 6 C-2 5.34 -2 4.68 -2 4 C-1.34 4 -0.68 4 0 4 C0 2.68 0 1.36 0 0 Z " fill="#23A5BA" transform="translate(194,331)"/>
<path d="M0 0 C0.66 0.33 1.32 0.66 2 1 C0.53 6.5 -2.14 10.54 -5.38 15.12 C-6.1 16.18 -6.1 16.18 -6.84 17.25 C-9.32 20.82 -11.78 24.05 -15 27 C-15.25 24.19 -15.25 24.19 -15 21 C-13.7 19.96 -12.36 18.96 -11 18 C-9.72 14.91 -9.72 14.91 -9 12 C-8.34 12 -7.68 12 -7 12 C-7 10.35 -7 8.7 -7 7 C-5.68 7 -4.36 7 -3 7 C-3 6.34 -3 5.68 -3 5 C-2.34 5 -1.68 5 -1 5 C-0.67 3.35 -0.34 1.7 0 0 Z " fill="#1D92A6" transform="translate(634,309)"/>
<path d="M0 0 C2.97 0 5.94 0 9 0 C5.16 2.56 1.26 3.68 -3.12 5.06 C-4.35 5.47 -4.35 5.47 -5.6 5.88 C-11.09 7.62 -16.26 8.53 -22 9 C-22 8.34 -22 7.68 -22 7 C-17.19 4.23 -13.41 3.55 -8 3 C-7.67 2.67 -7.34 2.34 -7 2 C-4.67 1.96 -2.33 1.96 0 2 C0 1.34 0 0.68 0 0 Z " fill="#1E93A4" transform="translate(572,525)"/>
<path d="M0 0 C2 0 2 0 3.75 1.69 C4.49 2.45 5.24 3.21 6 4 C9.15 6.92 11.74 9.05 16 10 C16.33 10.99 16.66 11.98 17 13 C19.68 14.37 19.68 14.37 22.88 15.5 C26.65 16.92 29.32 17.97 32 21 C32.66 21.33 33.32 21.66 34 22 C34 22.66 34 23.32 34 24 C23.59 21.07 15.4 14.56 7 8 C6.32 7.48 5.64 6.95 4.94 6.41 C2.3 4.32 1.09 3.27 0 0 Z " fill="#1D3C54" transform="translate(180,541)"/>
<path d="M0 0 C0.33 0.66 0.66 1.32 1 2 C1.66 2 2.32 2 3 2 C3.99 5.3 4.98 8.6 6 12 C6.66 12 7.32 12 8 12 C8.23 12.58 8.46 13.16 8.7 13.76 C11.81 21.22 15.42 26.11 22 31 C21.67 32.32 21.34 33.64 21 35 C13.4 28.11 8.07 19.59 3.5 10.5 C3.15 9.81 2.8 9.11 2.44 8.4 C0.99 5.42 0 3.35 0 0 Z " fill="#1C3D56" transform="translate(158,506)"/>
<path d="M0 0 C0 0.33 0 0.66 0 1 C-12.88 4.48 -24.68 5.5 -38 5 C-38 4.67 -38 4.34 -38 4 C-35.95 3.77 -33.9 3.54 -31.85 3.32 C-29.99 3.18 -29.99 3.18 -29 2 C-27.54 1.77 -26.06 1.61 -24.59 1.46 C-23.68 1.38 -22.77 1.29 -21.84 1.2 C-20.88 1.11 -19.92 1.03 -18.94 0.94 C-17.54 0.8 -17.54 0.8 -16.12 0.66 C-10.72 0.16 -5.42 -0.1 0 0 Z " fill="#238CA2" transform="translate(646,398)"/>
<path d="M0 0 C1.65 0.33 3.3 0.66 5 1 C4.67 1.66 4.34 2.32 4 3 C3.34 3 2.68 3 2 3 C2 3.66 2 4.32 2 5 C2.99 5.33 3.98 5.66 5 6 C5.33 6.66 5.66 7.32 6 8 C8.02 8.65 8.02 8.65 10 9 C10 9.66 10 10.32 10 11 C10.99 11.33 11.98 11.66 13 12 C13 12.66 13 13.32 13 14 C8.28 13.71 5.64 11.38 2.07 8.57 C-0.81 6.39 -3.83 4.72 -7 3 C-7 2.67 -7 2.34 -7 2 C-4.69 2 -2.38 2 0 2 C0 1.34 0 0.68 0 0 Z " fill="#1DA3B8" transform="translate(393,294)"/>
<path d="M0 0 C15.37 -0.7 31.36 1.16 46 6 C46 6.33 46 6.66 46 7 C37.22 6.68 28.99 5.27 20.41 3.45 C13.6 2.04 6.96 1.25 0 1 C0 0.67 0 0.34 0 0 Z " fill="#218094" transform="translate(616,202)"/>
<path d="M0 0 C0.66 0.33 1.32 0.66 2 1 C1.17 2 1.17 2 0.32 3.01 C-0.77 4.34 -0.77 4.34 -1.88 5.69 C-2.59 6.56 -3.31 7.43 -4.05 8.32 C-6.84 12.15 -8.15 15.63 -8.62 20.31 C-8.75 21.53 -8.87 22.75 -9 24 C-9.33 24 -9.66 24 -10 24 C-10.32 17.28 -9.48 12.24 -7 6 C-8.32 6 -9.64 6 -11 6 C-11 4.68 -11 3.36 -11 2 C-9.02 1.67 -7.04 1.34 -5 1 C-5 1.66 -5 2.32 -5 3 C-3.82 2.23 -3.82 2.23 -2.62 1.44 C-1.76 0.96 -0.89 0.49 0 0 Z " fill="#2E2F45" transform="translate(263,398)"/>
<path d="M0 0 C-0.31 1.94 -0.31 1.94 -1 4 C-1.99 4.33 -2.98 4.66 -4 5 C-4 5.66 -4 6.32 -4 7 C-5.98 7.66 -7.96 8.32 -10 9 C-10 9.66 -10 10.32 -10 11 C-15.32 12.24 -20.58 13.31 -26 14 C-22.87 11.91 -19.62 10.32 -16.25 8.69 C-11.75 6.49 -4.67 0 0 0 Z " fill="#1FA8BD" transform="translate(599,496)"/>
<path d="M0 0 C1.38 4.14 -0.23 6.65 -1.94 10.44 C-2.41 11.5 -2.41 11.5 -2.9 12.59 C-7.01 21.56 -12.44 29.62 -19 37 C-19.5 35.51 -19.5 35.51 -20 34 C-19.01 33.5 -19.01 33.5 -18 33 C-17.67 32.01 -17.34 31.02 -17 30 C-16.34 30 -15.68 30 -15 30 C-15 29.01 -15 28.02 -15 27 C-14.34 27 -13.68 27 -13 27 C-12.75 26.11 -12.5 25.23 -12.25 24.31 C-11 21 -11 21 -9.06 18.62 C-6.86 15.83 -5.94 13.46 -4.79 10.14 C-3.48 6.61 -1.73 3.34 0 0 Z " fill="#163D50" transform="translate(641,437)"/>
<path d="M0 0 C1.04 4.27 1.19 8.44 1.19 12.81 C1.19 13.52 1.19 14.23 1.19 14.96 C1.14 19.98 0.58 24.26 -1 29 C-1.33 29 -1.66 29 -2 29 C-1.67 20.42 -1.34 11.84 -1 3 C-5.81 6.28 -5.81 6.28 -7 9 C-8.32 8.67 -9.64 8.34 -11 8 C-9.55 6.66 -8.09 5.33 -6.62 4 C-5.81 3.26 -5 2.51 -4.16 1.75 C-2 0 -2 0 0 0 Z " fill="#2C9EB2" transform="translate(274,392)"/>
<path d="M0 0 C0.66 0.33 1.32 0.66 2 1 C1.36 1.76 0.72 2.53 0.06 3.31 C-2.14 5.88 -2.14 5.88 -3 9 C-3.78 9.08 -4.57 9.17 -5.38 9.25 C-8.15 9.73 -8.15 9.73 -9.31 12.06 C-9.65 13.02 -9.65 13.02 -10 14 C-10.66 14 -11.32 14 -12 14 C-12.33 15.32 -12.66 16.64 -13 18 C-15.31 18.33 -17.62 18.66 -20 19 C-20 18.34 -20 17.68 -20 17 C-19.32 16.61 -18.64 16.22 -17.94 15.81 C-14.74 13.84 -12.51 11.6 -9.91 8.92 C-6.77 5.77 -3.38 2.89 0 0 Z " fill="#1E8799" transform="translate(420,267)"/>
<path d="M0 0 C1.49 0.5 1.49 0.5 3 1 C3 1.66 3 2.32 3 3 C1.78 2.79 1.78 2.79 0.54 2.57 C-8.28 1.44 -14.26 2.58 -22.4 5.9 C-27.75 8.08 -27.75 8.08 -31 7 C-29.68 6.67 -28.36 6.34 -27 6 C-27 5.34 -27 4.68 -27 4 C-23.44 2.93 -19.88 1.9 -16.31 0.88 C-15.31 0.57 -14.3 0.27 -13.26 -0.04 C-11.8 -0.46 -11.8 -0.46 -10.3 -0.88 C-9.41 -1.14 -8.51 -1.41 -7.59 -1.68 C-4.44 -2.07 -2.83 -1.36 0 0 Z " fill="#238A9E" transform="translate(423,526)"/>
<path d="M0 0 C0 0.99 0 1.98 0 3 C-1.45 3.4 -1.45 3.4 -2.94 3.81 C-3.95 4.2 -4.96 4.6 -6 5 C-6.33 5.99 -6.66 6.98 -7 8 C-11.38 9.69 -16.33 10.3 -21 10 C-17.5 7.04 -14.04 4.8 -9.94 2.75 C-8.92 2.23 -7.89 1.71 -6.84 1.17 C-4 0 -4 0 0 0 Z " fill="#243851" transform="translate(238,288)"/>
<path d="M0 0 C1.31 3.93 0.13 6.44 -1.19 10.19 C-1.42 10.86 -1.65 11.53 -1.88 12.22 C-3.56 17.03 -5.54 21.53 -8 26 C-8.33 26 -8.66 26 -9 26 C-9.31 22.66 -8.82 20.3 -7.56 17.25 C-5.99 13.43 -5.61 10 -5.5 5.88 C-5.25 4.95 -5.25 4.95 -5 4 C-3.03 2.87 -3.03 2.87 -1 2 C-0.67 1.34 -0.34 0.68 0 0 Z " fill="#1F98B1" transform="translate(660,436)"/>
<path d="M0 0 C0.33 0.66 0.66 1.32 1 2 C0.11 3.84 0.11 3.84 -1.25 5.94 C-1.69 6.63 -2.13 7.32 -2.58 8.03 C-3.92 9.89 -5.38 11.39 -7 13 C-7.31 13.7 -7.62 14.4 -7.94 15.12 C-8.29 15.74 -8.64 16.36 -9 17 C-9.66 17.14 -10.32 17.29 -11 17.44 C-11.66 17.62 -12.32 17.81 -13 18 C-13.71 19.65 -14.37 21.32 -15 23 C-17.12 25.31 -17.12 25.31 -19 27 C-17.63 22.62 -15.23 19.5 -12.45 15.93 C-10.86 13.9 -10.86 13.9 -9.31 11.06 C-8 9 -8 9 -5 8 C-3.95 6.15 -3.95 6.15 -3 4 C-2.02 2.65 -1.03 1.31 0 0 Z " fill="#1E4157" transform="translate(199,330)"/>
<path d="M0 0 C0.33 0.66 0.66 1.32 1 2 C0.34 2 -0.32 2 -1 2 C-1 2.66 -1 3.32 -1 4 C-1.66 4 -2.32 4 -3 4 C-3 5.32 -3 6.64 -3 8 C-3.66 8 -4.32 8 -5 8 C-5.33 9.32 -5.66 10.64 -6 12 C-7.32 12.33 -8.64 12.66 -10 13 C-10 13.66 -10 14.32 -10 15 C-10.66 15 -11.32 15 -12 15 C-12.29 15.64 -12.58 16.28 -12.88 16.94 C-14 19 -14 19 -16 20 C-16.99 19.34 -17.98 18.68 -19 18 C-18.67 17.34 -18.34 16.68 -18 16 C-17.01 16.33 -16.02 16.66 -15 17 C-14.74 16.41 -14.48 15.83 -14.22 15.22 C-12.9 12.83 -11.48 11.31 -9.5 9.44 C-7.28 7.32 -5.72 5.58 -4 3 C-3.34 3 -2.68 3 -2 3 C-2 2.34 -2 1.68 -2 1 C-1.34 0.67 -0.68 0.34 0 0 Z " fill="#253954" transform="translate(421,291)"/>
<path d="M0 0 C0.33 0 0.66 0 1 0 C1 1.65 1 3.3 1 5 C0.01 5.33 -0.98 5.66 -2 6 C-3.71 8.82 -4.81 11.93 -6 15 C-6.99 15 -7.98 15 -9 15 C-9.1 15.64 -9.21 16.28 -9.31 16.94 C-9.54 17.62 -9.77 18.3 -10 19 C-10.99 19.33 -11.98 19.66 -13 20 C-11.49 15.63 -9.15 12.06 -6.5 8.31 C-6.1 7.73 -5.69 7.15 -5.28 6.55 C-3.63 4.2 -2.03 2.03 0 0 Z " fill="#208EA0" transform="translate(179,326)"/>
<path d="M0 0 C0 0.66 0 1.32 0 2 C-2.31 2.66 -4.62 3.32 -7 4 C-7 4.66 -7 5.32 -7 6 C-8.88 8.12 -8.88 8.12 -11 10 C-11.66 10 -12.32 10 -13 10 C-13.33 10.66 -13.66 11.32 -14 12 C-14 11.34 -14 10.68 -14 10 C-14.91 10.35 -15.81 10.7 -16.75 11.06 C-20.01 12 -20.93 11.96 -24 11 C-21.65 9.73 -19.29 8.46 -16.94 7.19 C-16.28 6.83 -15.62 6.47 -14.95 6.11 C-3.57 0 -3.57 0 0 0 Z " fill="#203C54" transform="translate(493,243)"/>
<path d="M0 0 C-0.83 0.39 -0.83 0.39 -1.68 0.78 C-4.21 1.95 -6.73 3.13 -9.25 4.31 C-10.56 4.92 -10.56 4.92 -11.89 5.54 C-12.74 5.93 -13.58 6.33 -14.45 6.74 C-15.23 7.1 -16 7.46 -16.8 7.83 C-19.07 8.96 -19.07 8.96 -21.16 10.64 C-23 12 -23 12 -25 12 C-25 10.68 -25 9.36 -25 8 C-24.34 8 -23.68 8 -23 8 C-23 7.34 -23 6.68 -23 6 C-21.93 5.9 -20.86 5.79 -19.75 5.69 C-15.87 4.98 -14.99 4.29 -12 2 C-4.04 -1.35 -4.04 -1.35 0 0 Z " fill="#23A5BE" transform="translate(489,245)"/>
<path d="M0 0 C0.69 1.75 0.69 1.75 1 4 C0.55 4.53 0.1 5.06 -0.36 5.61 C-3.08 9.57 -3.5 14.22 -4.37 18.89 C-5.56 24.58 -5.56 24.58 -8.13 27.03 C-8.75 27.35 -9.36 27.67 -10 28 C-4.52 4.52 -4.52 4.52 0 0 Z " fill="#1F7889" transform="translate(190,298)"/>
<path d="M0 0 C-1.98 0.33 -3.96 0.66 -6 1 C-6 1.66 -6 2.32 -6 3 C-22.11 9.8 -22.11 9.8 -28 8 C-24.09 6.46 -20.17 4.95 -16.25 3.44 C-15.14 3 -14.03 2.56 -12.88 2.11 C-11.81 1.7 -10.74 1.29 -9.64 0.87 C-8.66 0.49 -7.67 0.11 -6.66 -0.29 C-3.91 -1.02 -2.62 -0.98 0 0 Z " fill="#1E8196" transform="translate(520,215)"/>
<path d="M0 0 C10.81 0.67 20.07 3.84 30 8 C25.97 9.21 23.97 8.45 20 7 C17.34 6.29 14.67 5.65 12 5 C12 4.34 12 3.68 12 3 C8.04 2.67 4.08 2.34 0 2 C0 1.34 0 0.68 0 0 Z " fill="#1C3C53" transform="translate(336,279)"/>
<path d="M0 0 C0 0.99 0 1.98 0 3 C-1.66 4.02 -3.32 5.02 -5 6 C-5.33 6.99 -5.66 7.98 -6 9 C-8.07 9.73 -8.07 9.73 -10.56 10.19 C-11.39 10.35 -12.22 10.5 -13.07 10.67 C-13.7 10.78 -14.34 10.89 -15 11 C-15 11.99 -15 12.98 -15 14 C-16.65 14 -18.3 14 -20 14 C-16.86 10.68 -13.94 8.27 -10 6 C-9.12 5.47 -8.23 4.94 -7.32 4.39 C-4.88 2.93 -2.44 1.46 0 0 Z " fill="#203E52" transform="translate(468,255)"/>
<path d="M0 0 C1.32 0.33 2.64 0.66 4 1 C2.11 2.49 0.22 3.97 -1.69 5.44 C-2.48 6.07 -2.48 6.07 -3.29 6.71 C-6.49 9.16 -8.98 10.59 -13 11 C-13 10.34 -13 9.68 -13 9 C-12.34 9 -11.68 9 -11 9 C-11 8.34 -11 7.68 -11 7 C-10.34 7 -9.68 7 -9 7 C-9 6.34 -9 5.68 -9 5 C-9.99 4.67 -10.98 4.34 -12 4 C-8.42 2.76 -5.66 3.25 -2 4 C-2 3.34 -2 2.68 -2 2 C-1.34 2 -0.68 2 0 2 C0 1.34 0 0.68 0 0 Z " fill="#243A52" transform="translate(597,493)"/>
<path d="M0 0 C0.66 0.99 1.32 1.98 2 3 C0 5 0 5 -2 5.69 C-5.11 7.73 -5.22 10.5 -6 14 C-7.32 14 -8.64 14 -10 14 C-10.33 13.01 -10.66 12.02 -11 11 C-7.37 7.37 -3.74 3.74 0 0 Z " fill="#EEE8ED" transform="translate(237,353)"/>
<path d="M0 0 C0.66 0.33 1.32 0.66 2 1 C1.67 2.32 1.34 3.64 1 5 C-1.31 5.66 -3.62 6.32 -6 7 C-6 7.66 -6 8.32 -6 9 C-6.64 9.12 -7.28 9.25 -7.94 9.38 C-8.62 9.58 -9.3 9.79 -10 10 C-10.33 10.66 -10.66 11.32 -11 12 C-13.9 13.88 -16.89 15.5 -20 17 C-15.64 10.99 -10.04 7.22 -4 3 C-2.66 2.01 -1.33 1.01 0 0 Z " fill="#22758A" transform="translate(442,250)"/>
<path d="M0 0 C8.76 0.36 16.65 2.38 25 5 C25 5.33 25 5.66 25 6 C23.21 6.05 21.42 6.09 19.62 6.12 C18.63 6.15 17.63 6.17 16.6 6.2 C14 6 14 6 12 4 C9.16 3.38 6.31 2.98 3.43 2.56 C2.63 2.38 1.83 2.19 1 2 C0.67 1.34 0.34 0.68 0 0 Z " fill="#217A90" transform="translate(333,260)"/>
<path d="M0 0 C0.99 0.66 1.98 1.32 3 2 C1.62 4.5 1.62 4.5 0 7 C-0.66 7 -1.32 7 -2 7 C-2.43 8.18 -2.43 8.18 -2.88 9.38 C-4 12 -4 12 -6 14 C-6.99 14 -7.98 14 -9 14 C-9 14.66 -9 15.32 -9 16 C-9.66 15.67 -10.32 15.34 -11 15 C-10.06 13.75 -10.06 13.75 -9.1 12.48 C-8.28 11.38 -7.45 10.29 -6.62 9.19 C-6.21 8.64 -5.8 8.09 -5.38 7.53 C-3.52 5.06 -1.72 2.58 0 0 Z " fill="#1FA2B3" transform="translate(630,462)"/>
<path d="M0 0 C0.33 0 0.66 0 1 0 C1 5.61 1 11.22 1 17 C1.99 17.33 2.98 17.66 4 18 C3.34 18 2.68 18 2 18 C2 19.32 2 20.64 2 22 C2.66 22 3.32 22 4 22 C4.33 21.01 4.66 20.02 5 19 C5 21.64 5 24.28 5 27 C4.34 26.34 3.68 25.68 3 25 C2.34 25.99 1.68 26.98 1 28 C0.67 25.03 0.34 22.06 0 19 C-0.33 19 -0.66 19 -1 19 C-1.11 12.56 -0.96 6.37 0 0 Z " fill="#E6E1E6" transform="translate(194,432)"/>
<path d="M0 0 C1.98 0.5 1.98 0.5 4 1 C2.02 1.99 2.02 1.99 0 3 C0 3.66 0 4.32 0 5 C0.98 4.97 1.96 4.94 2.97 4.91 C7.25 4.91 11.26 5.65 15.44 6.5 C16.17 6.64 16.9 6.79 17.65 6.93 C19.44 7.28 21.22 7.64 23 8 C23 8.33 23 8.66 23 9 C20.85 9.03 18.71 9.05 16.56 9.06 C15.37 9.07 14.17 9.09 12.94 9.1 C10 9 10 9 9 8 C7.32 7.61 5.63 7.26 3.94 6.94 C3.02 6.76 2.1 6.58 1.15 6.4 C0.44 6.27 -0.27 6.14 -1 6 C-0.67 4.02 -0.34 2.04 0 0 Z " fill="#1F415C" transform="translate(521,406)"/>
<path d="M0 0 C0.77 0.22 0.77 0.22 1.56 0.44 C4.69 1.16 7.83 1.57 11 2 C7.35 4.08 3.47 5.04 -0.56 6.06 C-5.82 7.41 -5.82 7.41 -11 9 C-10.5 7.06 -10.5 7.06 -9 5 C-6.3 4.31 -3.8 4.18 -1 4 C-0.67 2.68 -0.34 1.36 0 0 Z " fill="#EFE9EE" transform="translate(363,480)"/>
<path d="M0 0 C1 0.31 1 0.31 2.02 0.62 C8.69 2.57 15.06 3.61 22 4 C22 4.33 22 4.66 22 5 C14.9 6.34 8.23 7.24 1 7 C1 6.67 1 6.34 1 6 C2.65 6 4.3 6 6 6 C6 5.01 6 4.02 6 3 C4.35 3 2.7 3 1 3 C0.67 2.01 0.34 1.02 0 0 Z " fill="#F6F1F5" transform="translate(255,462)"/>
<path d="M0 0 C1.37 0.08 1.37 0.08 2.77 0.16 C4.99 0.29 7.21 0.42 9.44 0.56 C9.44 0.89 9.44 1.22 9.44 1.56 C8.81 1.59 8.19 1.61 7.54 1.64 C4.68 1.76 1.81 1.88 -1.06 2 C-2.04 2.04 -3.03 2.08 -4.04 2.12 C-9.6 2.36 -15.05 2.78 -20.56 3.56 C-20.23 2.57 -19.9 1.58 -19.56 0.56 C-12.91 -0.35 -6.69 -0.43 0 0 Z " fill="#DBD1D9" transform="translate(323.5625,342.4375)"/>
<path d="M0 0 C-0.64 0.29 -1.28 0.58 -1.94 0.88 C-4.15 1.83 -4.15 1.83 -5 4 C-6.07 3.98 -7.14 3.96 -8.25 3.94 C-11.76 3.85 -11.76 3.85 -14.12 4.56 C-16.62 5.15 -18.54 4.61 -21 4 C-14.83 -0.11 -7.23 -0.27 0 0 Z " fill="#E5DDE3" transform="translate(309,323)"/>
<path d="M0 0 C1.32 0.33 2.64 0.66 4 1 C2.54 2.96 1.08 4.92 -0.38 6.88 C-0.79 7.43 -1.2 7.99 -1.62 8.56 C-3.33 10.84 -4.99 12.99 -7 15 C-7.36 11.15 -7.28 9.42 -5.12 6.12 C-4.42 5.42 -3.72 4.72 -3 4 C-2.34 4 -1.68 4 -1 4 C-0.67 2.68 -0.34 1.36 0 0 Z " fill="#1F869F" transform="translate(341,566)"/>
<path d="M0 0 C0.66 0.66 1.32 1.32 2 2 C1.59 8.87 -0.62 15.59 -3 22 C-3.33 22 -3.66 22 -4 22 C-3.67 18.04 -3.34 14.08 -3 10 C-2.34 10 -1.68 10 -1 10 C-1.01 9.36 -1.02 8.72 -1.04 8.07 C-1.05 6.83 -1.05 6.83 -1.06 5.56 C-1.07 4.74 -1.09 3.92 -1.1 3.07 C-1 1 -1 1 0 0 Z " fill="#208E9E" transform="translate(653,262)"/>
<path d="M0 0 C3.27 1.29 6.54 2.58 9.81 3.88 C10.74 4.24 11.67 4.6 12.63 4.98 C13.52 5.33 14.41 5.69 15.33 6.05 C16.15 6.38 16.98 6.7 17.82 7.04 C20 8 20 8 23 10 C18.4 9.45 14.38 8.46 10 7 C8.17 6.81 8.17 6.81 6.31 6.62 C3 6 3 6 1.06 4.06 C0 2 0 2 0 0 Z " fill="#26A3B9" transform="translate(209,563)"/>
<path d="M0 0 C1.78 5.17 0.02 10.11 -2 15 C-4.69 17.19 -4.69 17.19 -7 18 C-5.26 11.58 -3.15 5.86 0 0 Z " fill="#218496" transform="translate(150,372)"/>
<path d="M0 0 C0.33 0 0.66 0 1 0 C1 2.64 1 5.28 1 8 C0.34 8 -0.32 8 -1 8 C-1 8.99 -1 9.98 -1 11 C-2.32 11 -3.64 11 -5 11 C-5 11.66 -5 12.32 -5 13 C-5.66 13 -6.32 13 -7 13 C-5.59 7.74 -3.31 4.24 0 0 Z " fill="#28364F" transform="translate(179,357)"/>
<path d="M0 0 C4.95 0 9.9 0 15 0 C15 0.99 15 1.98 15 3 C15.99 3.66 16.98 4.32 18 5 C11.37 4.65 5.95 4.04 0 1 C0 0.67 0 0.34 0 0 Z " fill="#17AEC8" transform="translate(208,582)"/>
<path d="M0 0 C0 1.32 0 2.64 0 4 C-0.99 4 -1.98 4 -3 4 C-3 4.66 -3 5.32 -3 6 C-3.99 6 -4.98 6 -6 6 C-6 6.66 -6 7.32 -6 8 C-8.31 10.19 -8.31 10.19 -11 12 C-11.99 11.67 -12.98 11.34 -14 11 C-3.28 0 -3.28 0 0 0 Z " fill="#22A6BA" transform="translate(350,539)"/>
<path d="M0 0 C0.33 0 0.66 0 1 0 C1.34 3.67 1.43 5.43 -0.81 8.44 C-1.53 9.28 -2.26 10.13 -3 11 C-3.5 12.22 -3.99 13.43 -4.5 14.69 C-6 18 -6 18 -8.19 19.44 C-8.79 19.62 -9.38 19.81 -10 20 C-8.71 16.47 -7.18 13.61 -5 10.56 C-2.65 7.14 -1.04 4.06 0 0 Z " fill="#28A2B8" transform="translate(627,289)"/>
<path d="M0 0 C0.66 0.33 1.32 0.66 2 1 C0.67 6.79 -1.67 11.1 -5 16 C-6.32 11.84 -5.34 9.11 -4 5 C-2.68 4.67 -1.36 4.34 0 4 C0 2.68 0 1.36 0 0 Z " fill="#223D55" transform="translate(625,288)"/>
<path d="M0 0 C1.73 4.68 -0.43 7.75 -2.4 12.08 C-2.91 13.12 -3.42 14.17 -3.94 15.25 C-4.44 16.31 -4.95 17.36 -5.46 18.45 C-7 21 -7 21 -10 22 C-8.14 17.14 -5.8 12.57 -3.44 7.94 C-2.16 5.33 -1.04 2.71 0 0 Z " fill="#289BB0" transform="translate(641,440)"/>
<path d="M0 0 C4 0 4 0 7 1 C4.03 3.97 1.06 6.94 -2 10 C-3.39 5.82 -1.82 3.87 0 0 Z " fill="#223C53" transform="translate(555,373)"/>
<path d="M0 0 C5.56 2.45 7.96 7.01 11 12 C8 12 8 12 6.39 10.54 C5.87 9.91 5.35 9.28 4.81 8.62 C4.28 8 3.75 7.37 3.21 6.73 C2 5 2 5 2 3 C1.34 3 0.68 3 0 3 C0 2.01 0 1.02 0 0 Z " fill="#EDE5EB" transform="translate(379,457)"/>
<path d="M0 0 C-2.97 3.3 -5.94 6.6 -9 10 C-9.66 9.01 -10.32 8.02 -11 7 C-9.68 6.67 -8.36 6.34 -7 6 C-6.67 4.02 -6.34 2.04 -6 0 C-3 -1 -3 -1 0 0 Z " fill="#2197AB" transform="translate(355,556)"/>
<path d="M0 0 C0.66 0.33 1.32 0.66 2 1 C-2.18 4.92 -5.48 6.04 -11 7 C-13.25 6.54 -13.25 6.54 -15 6 C-12.55 4.97 -10.09 3.95 -7.62 2.94 C-6.58 2.5 -6.58 2.5 -5.51 2.04 C-3.69 1.3 -1.85 0.65 0 0 Z " fill="#259FB5" transform="translate(395,514)"/>
<path d="M0 0 C0.99 0 1.98 0 3 0 C2.5 3.73 2.13 5.81 0 9 C-0.99 9 -1.98 9 -3 9 C-2.25 2.25 -2.25 2.25 0 0 Z " fill="#1BA2B7" transform="translate(661,235)"/>
<path d="M0 0 C-0.99 0 -1.98 0 -3 0 C-3 0.66 -3 1.32 -3 2 C-8.57 3.59 -13.21 4.21 -19 4 C-15.91 2.33 -12.87 1.26 -9.5 0.31 C-8.56 0.04 -7.62 -0.23 -6.66 -0.51 C-3.99 -1 -2.52 -0.89 0 0 Z " fill="#22829A" transform="translate(539,210)"/>
<path d="M0 0 C0.33 0 0.66 0 1 0 C2.33 5.33 3.67 10.67 5 16 C2 15 2 15 0.25 11.94 C-1.45 7.69 -0.85 4.42 0 0 Z " fill="#E7E0E7" transform="translate(233,429)"/>
<path d="M0 0 C0.66 0.99 1.32 1.98 2 3 C0.35 5.97 -1.3 8.94 -3 12 C-3.33 12 -3.66 12 -4 12 C-3.91 10.37 -3.8 8.75 -3.69 7.12 C-3.63 6.22 -3.57 5.32 -3.51 4.38 C-3 2 -3 2 0 0 Z " fill="#1D9AAD" transform="translate(640,298)"/>
<path d="M0 0 C0.66 0 1.32 0 2 0 C1.47 5.35 -0.47 9.36 -3 14 C-3.33 14 -3.66 14 -4 14 C-4.45 9.2 -2.94 5.31 -1 1 C-0.67 0.67 -0.34 0.34 0 0 Z " fill="#258697" transform="translate(655,448)"/>
<path d="M0 0 C0.66 0.33 1.32 0.66 2 1 C1.01 2.32 0.02 3.64 -1 5 C0.61 4.91 0.61 4.91 2.25 4.81 C6.11 5.01 7.29 5.4 10 8 C4.99 7.38 -0.01 6.73 -5 6 C-5 5.34 -5 4.68 -5 4 C-3.37 2.62 -1.71 1.28 0 0 Z " fill="#349DB6" transform="translate(526,405)"/>
<path d="M0 0 C1.18 0.02 2.36 0.04 3.57 0.05 C4.93 0.09 4.93 0.09 6.31 0.12 C3.45 3.25 1.62 3.88 -2.69 4.12 C-6.56 3.19 -6.56 3.19 -9.69 2.12 C-6.06 -0.3 -4.3 -0.09 0 0 Z " fill="#E5E0E3" transform="translate(321.6875,363.875)"/>
<path d="M0 0 C0.66 0.33 1.32 0.66 2 1 C0.62 2.5 0.62 2.5 -1 4 C-1.66 4 -2.32 4 -3 4 C-3 4.66 -3 5.32 -3 6 C-7.95 7.49 -7.95 7.49 -13 9 C-10.35 6.35 -8.11 4.67 -4.94 2.75 C-4.06 2.21 -3.18 1.67 -2.28 1.11 C-1.53 0.74 -0.77 0.38 0 0 Z " fill="#217C8A" transform="translate(466,235)"/>
<path d="M0 0 C-5.29 3.06 -12.1 5.77 -18.3 4.55 C-18.86 4.37 -19.42 4.19 -20 4 C-17.42 3.13 -14.84 2.28 -12.25 1.44 C-11.52 1.19 -10.79 0.94 -10.04 0.69 C-9.33 0.46 -8.62 0.23 -7.89 -0 C-6.92 -0.33 -6.92 -0.33 -5.92 -0.65 C-3.67 -1.06 -2.17 -0.69 0 0 Z " fill="#258299" transform="translate(254,265)"/>
<path d="M0 0 C-1.25 0.96 -2.5 1.92 -3.75 2.88 C-4.45 3.41 -5.14 3.94 -5.86 4.49 C-7.85 5.89 -9.8 6.98 -12 8 C-12 5.75 -12 5.75 -11 3 C-7.33 0.35 -4.41 -1.47 0 0 Z " fill="#24A3B9" transform="translate(220,296)"/>
<path d="M0 0 C0.99 0.66 1.98 1.32 3 2 C0.36 4.31 -2.28 6.62 -5 9 C-5.33 7.68 -5.66 6.36 -6 5 C-5.38 4.92 -4.76 4.83 -4.12 4.75 C-1.82 4.19 -1.82 4.19 -0.75 1.94 C-0.5 1.3 -0.25 0.66 0 0 Z " fill="#24394F" transform="translate(531,397)"/>
<path d="M0 0 C1.32 0 2.64 0 4 0 C4.33 0.99 4.66 1.98 5 3 C4.34 3 3.68 3 3 3 C2.73 3.62 2.46 4.24 2.19 4.88 C1 7 1 7 -2 9 C-2 7.02 -2 5.04 -2 3 C-1.01 3.33 -0.02 3.66 1 4 C0.67 2.68 0.34 1.36 0 0 Z " fill="#188497" transform="translate(579,375)"/>
<path d="M0 0 C0.66 0.33 1.32 0.66 2 1 C-5.77 8.97 -5.77 8.97 -9 11 C-9.66 11 -10.32 11 -11 11 C-11 10.34 -11 9.68 -11 9 C-10.34 9 -9.68 9 -9 9 C-9 8.34 -9 7.68 -9 7 C-8.34 7 -7.68 7 -7 7 C-7 6.34 -7 5.68 -7 5 C-5.36 3.96 -3.69 2.96 -2 2 C-1.34 1.34 -0.68 0.68 0 0 Z " fill="#184159" transform="translate(612,482)"/>
<path d="M0 0 C0.33 0 0.66 0 1 0 C1 2.64 1 5.28 1 8 C0.34 8 -0.32 8 -1 8 C-1.66 10.31 -2.32 12.62 -3 15 C-4.43 11.21 -3.51 8.93 -2.06 5.25 C-1.68 4.27 -1.3 3.28 -0.91 2.27 C-0.61 1.52 -0.31 0.77 0 0 Z " fill="#183D56" transform="translate(158,400)"/>
<path d="M0 0 C-3.96 1.98 -7.92 3.96 -12 6 C-10 1 -10 1 -7.12 -0.38 C-4 -1 -4 -1 0 0 Z " fill="#1E394C" transform="translate(372,525)"/>
<path d="M0 0 C0 0.66 0 1.32 0 2 C-0.96 2.15 -0.96 2.15 -1.94 2.31 C-2.62 2.54 -3.3 2.77 -4 3 C-4.33 3.99 -4.66 4.98 -5 6 C-7.31 6 -9.62 6 -12 6 C-8.6 3.25 -4.52 0 0 0 Z " fill="#26A0B4" transform="translate(380,521)"/>
<path d="M0 0 C0 0.66 0 1.32 0 2 C0.66 2.33 1.32 2.66 2 3 C-1.96 2.67 -5.92 2.34 -10 2 C-10 1.34 -10 0.68 -10 0 C-6.31 -1.23 -3.79 -0.64 0 0 Z " fill="#554351" transform="translate(338,322)"/>
<path d="M0 0 C5.45 0.57 9.91 1.95 15 4 C11.8 5.07 10.7 4.95 7.5 4.25 C6.34 4.01 6.34 4.01 5.16 3.77 C2.76 2.92 1.64 1.91 0 0 Z " fill="#1D6F81" transform="translate(358,266)"/>
<path d="M0 0 C3.28 1.05 4.6 2.64 6.31 5.5 C7.15 7.23 7.15 7.23 8 9 C7.67 9.66 7.34 10.32 7 11 C5.83 9.55 4.66 8.09 3.5 6.62 C2.53 5.41 2.53 5.41 1.53 4.16 C0 2 0 2 0 0 Z " fill="#207A93" transform="translate(152,535)"/>
<path d="M0 0 C0.99 0.33 1.98 0.66 3 1 C2.02 2.34 1.04 3.67 0.06 5 C-0.48 5.74 -1.03 6.49 -1.59 7.25 C-2.29 8.12 -2.29 8.12 -3 9 C-3.33 9 -3.66 9 -4 9 C-4 7.02 -4 5.04 -4 3 C-3.01 2.67 -2.02 2.34 -1 2 C-0.67 1.34 -0.34 0.68 0 0 Z " fill="#1F8597" transform="translate(616,336)"/>
<path d="M0 0 C0.33 0 0.66 0 1 0 C0.67 2.97 0.34 5.94 0 9 C-1.32 9.33 -2.64 9.66 -4 10 C-2.89 6.51 -1.74 3.23 0 0 Z " fill="#1F8C9A" transform="translate(155,362)"/>
<path d="M0 0 C0.66 0 1.32 0 2 0 C2 0.66 2 1.32 2 2 C2.66 2.33 3.32 2.66 4 3 C4.72 4.64 5.39 6.31 6 8 C3.03 7.5 3.03 7.5 0 7 C-0.38 5.01 -0.71 3.01 -1 1 C-0.67 0.67 -0.34 0.34 0 0 Z " fill="#503A4A" transform="translate(347,320)"/>
<path d="M0 0 C0 3 0 3 -1.62 5.06 C-4.31 7.26 -6.67 8.09 -10 9 C-6.83 5.74 -3.6 2.78 0 0 Z " fill="#299FB3" transform="translate(609,487)"/>
<path d="M0 0 C-0.99 0.5 -0.99 0.5 -2 1 C-2.33 1.66 -2.66 2.32 -3 3 C-5.65 3.59 -8.29 3.74 -11 4 C-7.84 0.35 -4.73 -1.58 0 0 Z " fill="#EEE7ED" transform="translate(275,332)"/>
<path d="M0 0 C1.98 0 3.96 0 6 0 C3.42 2.65 1.08 4.94 -2 7 C-2 6.01 -2 5.02 -2 4 C-1.34 4 -0.68 4 0 4 C0 2.68 0 1.36 0 0 Z " fill="#203C57" transform="translate(341,540)"/>
<path d="M0 0 C0.66 1.32 1.32 2.64 2 4 C2.99 5.49 2.99 5.49 4 7 C3.62 9.19 3.62 9.19 3 11 C2.01 11 1.02 11 0 11 C0 7.37 0 3.74 0 0 Z " fill="#51404D" transform="translate(329,427)"/>
<path d="M0 0 C1.42 4.25 0.19 6.72 -1 11 C-3 8 -3 8 -2.75 5.5 C-2 3 -2 3 0 0 Z " fill="#1F87A2" transform="translate(663,424)"/>
<path d="M0 0 C0.99 0 1.98 0 3 0 C3 0.66 3 1.32 3 2 C4.98 2.66 6.96 3.32 9 4 C8.34 5.32 7.68 6.64 7 8 C6.94 7.07 6.94 7.07 6.88 6.12 C6.59 5.42 6.3 4.72 6 4 C3 2.7 3 2.7 0 2 C0 1.34 0 0.68 0 0 Z " fill="#2C9DB3" transform="translate(203,313)"/>
<path d="M0 0 C0.66 0.33 1.32 0.66 2 1 C0.79 5.43 -0.52 7.98 -4 11 C-3.67 9.02 -3.34 7.04 -3 5 C-2.34 5 -1.68 5 -1 5 C-0.67 3.35 -0.34 1.7 0 0 Z " fill="#218092" transform="translate(634,309)"/>
<path d="M0 0 C0.66 0 1.32 0 2 0 C1.45 4.57 0.58 8.67 -1 13 C-2.07 9.73 -1.89 7.57 -1.06 4.25 C-0.87 3.45 -0.67 2.65 -0.47 1.83 C-0.32 1.22 -0.16 0.62 0 0 Z " fill="#193B51" transform="translate(635,262)"/>
<path d="M0 0 C4.29 0.33 8.58 0.66 13 1 C13 1.33 13 1.66 13 2 C9.04 2.66 5.08 3.32 1 4 C0.67 2.68 0.34 1.36 0 0 Z " fill="#D9D0D5" transform="translate(264,465)"/>
<path d="M0 0 C3.63 0.33 7.26 0.66 11 1 C10.01 1.5 10.01 1.5 9 2 C9 2.66 9 3.32 9 4 C6.03 3.01 3.06 2.02 0 1 C0 0.67 0 0.34 0 0 Z " fill="#218C9D" transform="translate(208,582)"/>
<path d="M0 0 C-1.39 3.37 -2.98 4.99 -6 7 C-5.62 4.06 -5.62 4.06 -5 1 C-3 0 -3 0 0 0 Z " fill="#1D3856" transform="translate(620,475)"/>
<path d="M0 0 C1.56 1.19 1.56 1.19 3 3 C2.69 5.69 2.69 5.69 2 8 C1.01 7.67 0.02 7.34 -1 7 C-0.67 4.69 -0.34 2.38 0 0 Z " fill="#EEE6ED" transform="translate(196,424)"/>
<path d="M0 0 C0.66 0 1.32 0 2 0 C0.8 2.49 -0.45 4.68 -2 7 C-2.66 7 -3.32 7 -4 7 C-4 5.35 -4 3.7 -4 2 C-3.01 2.33 -2.02 2.66 -1 3 C-0.67 2.01 -0.34 1.02 0 0 Z " fill="#223E58" transform="translate(593,337)"/>
<path d="M0 0 C0.66 0.33 1.32 0.66 2 1 C1.67 2.32 1.34 3.64 1 5 C-1.31 5.66 -3.62 6.32 -6 7 C-4.61 3.63 -3.02 2.01 0 0 Z " fill="#2198AD" transform="translate(442,250)"/>
<path d="M0 0 C0.66 0.33 1.32 0.66 2 1 C1.01 2.49 1.01 2.49 0 4 C-0.66 4 -1.32 4 -2 4 C-2 4.66 -2 5.32 -2 6 C-3.65 6 -5.3 6 -7 6 C-4.74 3.66 -2.72 1.81 0 0 Z " fill="#1E8294" transform="translate(451,244)"/>
<path d="M0 0 C2.64 0.66 5.28 1.32 8 2 C8.33 3.32 8.66 4.64 9 6 C5.06 4.69 2.77 3.08 0 0 Z " fill="#1D778B" transform="translate(182,567)"/>
<path d="M0 0 C1.32 0.99 2.64 1.98 4 3 C2.35 4.32 0.7 5.64 -1 7 C-1.62 5.19 -1.62 5.19 -2 3 C-1.34 2.01 -0.68 1.02 0 0 Z " fill="#533E4D" transform="translate(292,427)"/>
<path d="M0 0 C0.33 0.99 0.66 1.98 1 3 C-0.21 4.82 -0.21 4.82 -1.94 6.69 C-2.5 7.31 -3.07 7.93 -3.65 8.57 C-4.1 9.04 -4.54 9.52 -5 10 C-5 6.6 -4.48 5.93 -2.5 3.31 C-2.04 2.69 -1.57 2.07 -1.09 1.43 C-0.73 0.96 -0.37 0.48 0 0 Z " fill="#2D98AA" transform="translate(262,401)"/>
<path d="M0 0 C0.66 0.33 1.32 0.66 2 1 C0.02 3.31 -1.96 5.62 -4 8 C-4.33 6.68 -4.66 5.36 -5 4 C-3.35 2.68 -1.7 1.36 0 0 Z " fill="#1C3951" transform="translate(263,398)"/>
<path d="M0 0 C1.32 0.33 2.64 0.66 4 1 C2.73 3.04 1.39 5.04 0 7 C-0.66 7 -1.32 7 -2 7 C-2 6.01 -2 5.02 -2 4 C-1.34 4 -0.68 4 0 4 C0 2.68 0 1.36 0 0 Z " fill="#259EB3" transform="translate(194,331)"/>
<path d="M0 0 C1.32 0.33 2.64 0.66 4 1 C1.69 2.65 -0.62 4.3 -3 6 C-3.33 5.01 -3.66 4.02 -4 3 C-2.68 2.67 -1.36 2.34 0 2 C0 1.34 0 0.68 0 0 Z " fill="#EEE7EC" transform="translate(300,518)"/>
<path d="M0 0 C1.8 3.61 2.47 6.08 3 10 C2.01 9.67 1.02 9.34 0 9 C0 6.03 0 3.06 0 0 Z " fill="#2191A3" transform="translate(151,486)"/>
<path d="M0 0 C2 2 2 2 2.12 5.12 C2.08 6.07 2.04 7.02 2 8 C1.01 8.33 0.02 8.66 -1 9 C-0.67 6.03 -0.34 3.06 0 0 Z " fill="#503E4D" transform="translate(234,411)"/>
<path d="M0 0 C0.33 0.66 0.66 1.32 1 2 C1.66 2.33 2.32 2.66 3 3 C1.36 5.02 -0.31 7.02 -2 9 C-2.33 9 -2.66 9 -3 9 C-3 7.35 -3 5.7 -3 4 C-2.01 4 -1.02 4 0 4 C0 2.68 0 1.36 0 0 Z " fill="#207F8D" transform="translate(608,345)"/>
<path d="M0 0 C0.99 0.33 1.98 0.66 3 1 C2.07 2.14 2.07 2.14 1.12 3.31 C-1.06 6 -1.06 6 -3 9 C-2.25 2.25 -2.25 2.25 0 0 Z " fill="#2AA4BC" transform="translate(205,304)"/>
<path d="M0 0 C0.66 0.33 1.32 0.66 2 1 C1.67 1.99 1.34 2.98 1 4 C-0.85 4.73 -0.85 4.73 -3.06 5.19 C-3.8 5.35 -4.53 5.5 -5.29 5.67 C-6.13 5.83 -6.13 5.83 -7 6 C-4.74 3.66 -2.72 1.81 0 0 Z " fill="#258094" transform="translate(212,279)"/>
<path d="M0 0 C3.3 0.99 6.6 1.98 10 3 C10 3.33 10 3.66 10 4 C6.05 4.18 3.4 4.09 0 2 C0 1.34 0 0.68 0 0 Z " fill="#217486" transform="translate(662,209)"/>
<path d="M0 0 C-3.27 1.88 -6.28 2.49 -10 3 C-10 2.34 -10 1.68 -10 1 C-6.79 -0.61 -3.56 -0.06 0 0 Z " fill="#1E3852" transform="translate(410,509)"/>
<path d="M0 0 C0.66 0.33 1.32 0.66 2 1 C1.67 1.99 1.34 2.98 1 4 C-2.56 5.19 -2.56 5.19 -6 6 C-4 4 -2 2 0 0 Z " fill="#22869C" transform="translate(203,285)"/>
</svg>
