<?xml version="1.0" encoding="UTF-8"?>
<!-- Generator: https://ezgif.com/webp-to-svg -->
<svg version="1.1" xmlns="http://www.w3.org/2000/svg" width="50" height="50">
<path d="M0 0 C3.34 1.11 4.64 2.47 7 5 C7.56 4.46 8.11 3.93 8.69 3.38 C9.45 2.92 10.21 2.47 11 2 C13.63 2.81 13.63 2.81 16 4 C16.66 4 17.32 4 18 4 C18.66 3.34 19.32 2.68 20 2 C20.66 1.34 21.32 0.68 22 0 C22.66 0 23.32 0 24 0 C23.34 3.3 22.68 6.6 22 10 C24.31 10 26.62 10 29 10 C29.12 13.71 29.19 17.42 29.25 21.12 C29.28 22.17 29.32 23.22 29.35 24.3 C29.45 32.35 27.93 35.9 22.34 41.81 C21.41 42.68 20.47 43.54 19.5 44.44 C18.56 45.32 17.62 46.21 16.66 47.12 C14 49 14 49 11.97 49.02 C9.39 47.68 7.26 46.08 5 44.25 C4.15 43.57 3.31 42.9 2.44 42.2 C-0.96 39.13 -3.54 36.38 -5 32 C-5.08 30.3 -5.11 28.6 -5.1 26.89 C-5.09 25.91 -5.09 24.93 -5.09 23.92 C-5.08 22.89 -5.07 21.87 -5.06 20.81 C-5.06 19.78 -5.05 18.74 -5.05 17.67 C-5.04 15.12 -5.02 12.56 -5 10 C-2.69 10 -0.38 10 2 10 C1.34 6.7 0.68 3.4 0 0 Z " fill="#B9A0A0" transform="translate(13,0)"/>
<path d="M0 0 C3.34 1.11 4.64 2.47 7 5 C7.56 4.46 8.11 3.93 8.69 3.38 C9.45 2.92 10.21 2.47 11 2 C13.63 2.81 13.63 2.81 16 4 C16.66 4 17.32 4 18 4 C18.66 3.34 19.32 2.68 20 2 C20.66 1.34 21.32 0.68 22 0 C22.66 0 23.32 0 24 0 C23.34 3.3 22.68 6.6 22 10 C24.31 10 26.62 10 29 10 C29 17.59 29 25.18 29 33 C28.67 33 28.34 33 28 33 C27.95 32.32 27.9 31.65 27.85 30.95 C27.78 30.06 27.7 29.17 27.62 28.25 C27.52 26.93 27.52 26.93 27.41 25.58 C27 23.01 26.29 21.24 25 19 C24.67 19.66 24.34 20.32 24 21 C23.34 21 22.68 21 22 21 C22 20.01 22 19.02 22 18 C23.65 17.67 25.3 17.34 27 17 C27.33 15.02 27.66 13.04 28 11 C24.04 11 20.08 11 16 11 C16 11.66 16 12.32 16 13 C17.65 13 19.3 13 21 13 C22.42 17.25 21.19 19.72 20 24 C19.34 24 18.68 24 18 24 C17.01 26.97 16.02 29.94 15 33 C13.68 33 12.36 33 11 33 C10.67 33.99 10.34 34.98 10 36 C8.68 35.67 7.36 35.34 6 35 C7 32 7 32 8 30 C7.72 27.99 7.39 25.99 7 24 C6.34 24 5.68 24 5 24 C5.33 21.36 5.66 18.72 6 16 C7.98 16.66 9.96 17.32 12 18 C11.34 17.01 10.68 16.02 10 15 C10.06 12.94 10.06 12.94 11 11 C13.56 9.75 13.56 9.75 16 9 C15.01 9 14.02 9 13 9 C12.67 7.68 12.34 6.36 12 5 C11.67 6.32 11.34 7.64 11 9 C8.69 9 6.38 9 4 9 C3.67 9.66 3.34 10.32 3 11 C0.69 11 -1.62 11 -4 11 C-4 17.93 -4 24.86 -4 32 C-4.33 32 -4.66 32 -5 32 C-5 24.74 -5 17.48 -5 10 C-2.69 10 -0.38 10 2 10 C1.34 6.7 0.68 3.4 0 0 Z " fill="#DFDFDF" transform="translate(13,0)"/>
<path d="M0 0 C1.32 0.33 2.64 0.66 4 1 C4.33 2.32 4.66 3.64 5 5 C5.66 5 6.32 5 7 5 C7.66 7.64 8.32 10.28 9 13 C8.34 13 7.68 13 7 13 C6.01 15.97 5.02 18.94 4 22 C2.68 22 1.36 22 0 22 C-0.33 22.99 -0.66 23.98 -1 25 C-2.32 24.67 -3.64 24.34 -5 24 C-4 21 -4 21 -3 19 C-3.28 16.99 -3.61 14.99 -4 13 C-4.66 13 -5.32 13 -6 13 C-5.67 10.36 -5.34 7.72 -5 5 C-3.02 5.66 -1.04 6.32 1 7 C0.34 6.01 -0.32 5.02 -1 4 C-0.62 1.81 -0.62 1.81 0 0 Z " fill="#F6F6F6" transform="translate(24,11)"/>
<path d="M0 0 C3.96 0 7.92 0 12 0 C12 2.64 12 5.28 12 8 C9.03 7.5 9.03 7.5 6 7 C6 7.99 6 8.98 6 10 C6.33 9.34 6.66 8.68 7 8 C8.94 8.31 8.94 8.31 11 9 C12.75 14.24 13.42 20.97 11.02 26.09 C9.19 28.39 7.45 29.83 4.69 30.88 C4.13 30.92 3.57 30.96 3 31 C3 30.34 3 29.68 3 29 C3.8 28.22 4.61 27.43 5.44 26.62 C7.98 24.27 7.98 24.27 9.06 22 C8.94 18.09 5.62 15.62 3 13 C3.24 10.62 3.24 10.62 3.88 7.88 C4.18 6.51 4.18 6.51 4.49 5.12 C4.66 4.42 4.83 3.72 5 3 C3.35 2.67 1.7 2.34 0 2 C0 1.34 0 0.68 0 0 Z " fill="#907878" transform="translate(29,11)"/>
<path d="M0 0 C0.99 0.66 1.98 1.32 3 2 C2.34 2 1.68 2 1 2 C1 2.99 1 3.98 1 5 C2.18 4.69 2.18 4.69 3.38 4.38 C4.67 4.19 4.67 4.19 6 4 C6.66 4.66 7.32 5.32 8 6 C5.03 6.66 2.06 7.32 -1 8 C-0.34 11.61 -0.34 11.61 1 15 C-3.75 13.12 -3.75 13.12 -6 12 C-6 11.34 -6 10.68 -6 10 C-7.98 10 -9.96 10 -12 10 C-12.33 10.99 -12.66 11.98 -13 13 C-12.34 13.33 -11.68 13.66 -11 14 C-12.65 14.33 -14.3 14.66 -16 15 C-16 12.36 -16 9.72 -16 7 C-13.69 7 -11.38 7 -9 7 C-8.67 6.01 -8.34 5.02 -8 4 C-5.69 4.33 -3.38 4.66 -1 5 C-1.33 3.68 -1.66 2.36 -2 1 C-1.34 0.67 -0.68 0.34 0 0 Z " fill="#948686" transform="translate(25,4)"/>
<path d="M0 0 C0 1.98 0 3.96 0 6 C2.31 6 4.62 6 7 6 C7 13.59 7 21.18 7 29 C6.67 29 6.34 29 6 29 C5.95 28.32 5.9 27.65 5.85 26.95 C5.78 26.06 5.7 25.17 5.62 24.25 C5.56 23.37 5.49 22.49 5.41 21.58 C5 19.01 4.29 17.24 3 15 C2.67 15.66 2.34 16.32 2 17 C1.34 17 0.68 17 0 17 C0 16.01 0 15.02 0 14 C1.65 13.67 3.3 13.34 5 13 C5.33 11.02 5.66 9.04 6 7 C2.04 7 -1.92 7 -6 7 C-6 7.66 -6 8.32 -6 9 C-4.35 9 -2.7 9 -1 9 C0.16 12.48 -0.29 14.46 -1 18 C-1.66 18 -2.32 18 -3 18 C-3.33 16.02 -3.66 14.04 -4 12 C-5.32 12.33 -6.64 12.66 -8 13 C-8 10.69 -8 8.38 -8 6 C-7.36 5.73 -6.72 5.46 -6.06 5.19 C-3.67 4.11 -3.67 4.11 -3 1 C-1 0 -1 0 0 0 Z " fill="#BCB8B8" transform="translate(35,4)"/>
<path d="M0 0 C-0.66 1.98 -1.32 3.96 -2 6 C-1.34 6 -0.68 6 0 6 C0 6.66 0 7.32 0 8 C-0.66 8 -1.32 8 -2 8 C-2.33 9.65 -2.66 11.3 -3 13 C-6.91 12.42 -9.13 10.66 -12 8 C-13.39 6.04 -14.74 4.05 -16 2 C-13.33 3.33 -10.67 4.67 -8 6 C-8.66 4.02 -9.32 2.04 -10 0 C-6.31 -1.23 -3.79 -0.64 0 0 Z " fill="#927979" transform="translate(30,36)"/>
<path d="M0 0 C2.97 0.49 2.97 0.49 6 1 C5.67 4.3 5.34 7.6 5 11 C5.99 10.67 6.98 10.34 8 10 C7.67 10.99 7.34 11.98 7 13 C4.94 13.69 4.94 13.69 3 14 C3 12.68 3 11.36 3 10 C2.01 10.99 1.02 11.98 0 13 C0 12.01 0 11.02 0 10 C-0.66 10.66 -1.32 11.32 -2 12 C-2 10.68 -2 9.36 -2 8 C-2.66 8.66 -3.32 9.32 -4 10 C-3.67 7.03 -3.34 4.06 -3 1 C-2.67 2.32 -2.34 3.64 -2 5 C-1.34 3.35 -0.68 1.7 0 0 Z " fill="#BCAAAA" transform="translate(13,13)"/>
<path d="M0 0 C0.33 0.99 0.66 1.98 1 3 C1.99 2.01 2.98 1.02 4 0 C3.67 1.65 3.34 3.3 3 5 C4.32 4.34 5.64 3.68 7 3 C9.12 7.62 9.12 7.62 8 11 C7.01 11.66 6.02 12.32 5 13 C5 12.01 5 11.02 5 10 C2.03 9.5 2.03 9.5 -1 9 C-1.66 9.99 -2.32 10.98 -3 12 C-3.08 10.38 -3.14 8.75 -3.19 7.12 C-3.22 6.22 -3.26 5.32 -3.29 4.38 C-3.2 3.6 -3.1 2.81 -3 2 C-2.01 1.34 -1.02 0.68 0 0 Z " fill="#B4A1A1" transform="translate(13,22)"/>
<path d="M0 0 C2.31 1.98 4.62 3.96 7 6 C7.66 5.67 8.32 5.34 9 5 C9 7.31 9 9.62 9 12 C8.4 12.12 7.8 12.25 7.19 12.38 C4.74 12.95 4.74 12.95 2 15 C1.75 9.38 1.75 9.38 4 6 C3.01 5.35 3.01 5.35 2 4.69 C1.34 4.13 0.68 3.57 0 3 C0 2.01 0 1.02 0 0 Z " fill="#C6B5B5" transform="translate(30,22)"/>
<path d="M0 0 C1.65 0 3.3 0 5 0 C4.34 1.32 3.68 2.64 3 4 C3.99 4.33 4.98 4.66 6 5 C5.67 5.66 5.34 6.32 5 7 C3.68 7 2.36 7 1 7 C0.67 7.99 0.34 8.98 0 10 C-1.32 9.67 -2.64 9.34 -4 9 C-3 6 -3 6 -0.94 4.81 C-0.3 4.54 0.34 4.28 1 4 C0.67 2.68 0.34 1.36 0 0 Z " fill="#DEDADA" transform="translate(23,26)"/>
<path d="M0 0 C1.65 0.99 3.3 1.98 5 3 C4.67 3.66 4.34 4.32 4 5 C3.32 7 2.65 9 2 11 C1.34 10.01 0.68 9.02 0 8 C-1.98 8.66 -3.96 9.32 -6 10 C-6 9.34 -6 8.68 -6 8 C-4.68 8 -3.36 8 -2 8 C-1.86 6.87 -1.71 5.73 -1.56 4.56 C-1 1 -1 1 0 0 Z " fill="#9A7979" transform="translate(30,25)"/>
<path d="M0 0 C1.32 0.33 2.64 0.66 4 1 C4 4.33 4 7.67 4 11 C1.27 10.63 0.19 10.21 -1.7 8.15 C-2.21 7.42 -2.72 6.69 -3.25 5.94 C-3.77 5.2 -4.29 4.47 -4.83 3.71 C-5.21 3.15 -5.6 2.58 -6 2 C-3.33 3.33 -0.67 4.67 2 6 C1.34 4.02 0.68 2.04 0 0 Z " fill="#7F6B6B" transform="translate(20,36)"/>
<path d="M0 0 C0.33 0.99 0.66 1.98 1 3 C1.99 2.01 2.98 1.02 4 0 C3.01 2.97 2.02 5.94 1 9 C0.34 9 -0.32 9 -1 9 C-1.66 9.99 -2.32 10.98 -3 12 C-3.08 10.38 -3.14 8.75 -3.19 7.12 C-3.22 6.22 -3.26 5.32 -3.29 4.38 C-3.2 3.6 -3.1 2.81 -3 2 C-2.01 1.34 -1.02 0.68 0 0 Z " fill="#7E5D5D" transform="translate(13,22)"/>
<path d="M0 0 C0.99 0.66 1.98 1.32 3 2 C2.34 2 1.68 2 1 2 C1 2.99 1 3.98 1 5 C1.78 4.79 2.57 4.59 3.38 4.38 C4.67 4.19 4.67 4.19 6 4 C6.66 4.66 7.32 5.32 8 6 C2.39 6 -3.22 6 -9 6 C-8.67 5.34 -8.34 4.68 -8 4 C-5.69 4.33 -3.38 4.66 -1 5 C-1.33 3.68 -1.66 2.36 -2 1 C-1.34 0.67 -0.68 0.34 0 0 Z " fill="#434343" transform="translate(25,4)"/>
<path d="M0 0 C0 0.99 0 1.98 0 3 C-1.98 3.99 -1.98 3.99 -4 5 C-3.01 5.66 -2.02 6.32 -1 7 C-3.64 8.98 -6.28 10.96 -9 13 C-8.67 11.68 -8.34 10.36 -8 9 C-7.34 9 -6.68 9 -6 9 C-6.12 8.26 -6.25 7.52 -6.38 6.75 C-6 4 -6 4 -3 1.69 C-2.01 1.13 -1.02 0.57 0 0 Z " fill="#CBC8C8" transform="translate(36,35)"/>
<path d="M0 0 C2.06 0.44 2.06 0.44 4 1 C4 2.98 4 4.96 4 7 C2.68 6.67 1.36 6.34 0 6 C-0.38 4.34 -0.71 2.68 -1 1 C-0.67 0.67 -0.34 0.34 0 0 Z " fill="#D4D1D1" transform="translate(24,11)"/>
<path d="M0 0 C0.66 0.33 1.32 0.66 2 1 C1.67 1.66 1.34 2.32 1 3 C2.32 3.66 3.64 4.32 5 5 C5 5.66 5 6.32 5 7 C3.02 7.33 1.04 7.66 -1 8 C-0.67 5.36 -0.34 2.72 0 0 Z " fill="#D8D8D8" transform="translate(19,16)"/>
<path d="M0 0 C0.66 0 1.32 0 2 0 C3.12 6.75 3.12 6.75 2 9 C1.34 9 0.68 9 0 9 C-1.12 7.31 -1.12 7.31 -2 5 C-1.12 2.25 -1.12 2.25 0 0 Z " fill="#C3B4B4" transform="translate(24,38)"/>
<path d="M0 0 C0.66 0 1.32 0 2 0 C2.66 2.64 3.32 5.28 4 8 C3.34 8 2.68 8 2 8 C2 7.34 2 6.68 2 6 C0.35 6.33 -1.3 6.66 -3 7 C-2.67 6.01 -2.34 5.02 -2 4 C-1.01 4 -0.02 4 1 4 C0.67 2.68 0.34 1.36 0 0 Z " fill="#D9D9D9" transform="translate(29,16)"/>
<path d="M0 0 C1.65 0 3.3 0 5 0 C4.34 1.32 3.68 2.64 3 4 C3.99 4.33 4.98 4.66 6 5 C4.02 5 2.04 5 0 5 C-0.33 5.66 -0.66 6.32 -1 7 C-1 6.01 -1 5.02 -1 4 C-0.34 4 0.32 4 1 4 C0.67 2.68 0.34 1.36 0 0 Z " fill="#C8C8C8" transform="translate(23,26)"/>
<path d="M0 0 C3.69 1.23 4.72 2.94 7 6 C6.01 6.5 6.01 6.5 5 7 C5 6.34 5 5.68 5 5 C3.68 5.33 2.36 5.66 1 6 C0.67 4.02 0.34 2.04 0 0 Z " fill="#EDEDED" transform="translate(13,0)"/>
<path d="M0 0 C0.33 0.99 0.66 1.98 1 3 C1.66 3 2.32 3 3 3 C2 6 2 6 -1 8 C-1.62 5.69 -1.62 5.69 -2 3 C-1.34 2.01 -0.68 1.02 0 0 Z " fill="#8C5656" transform="translate(19,27)"/>
</svg>
