<?xml version="1.0" encoding="UTF-8"?>
<!-- Generator: https://ezgif.com/png-to-svg -->
<svg version="1.1" xmlns="http://www.w3.org/2000/svg" width="512" height="512" viewBox="-69.933 -26.893 502.006 502.006" preserveAspectRatio="xMidYMid meet">
<path d="M0 0 C0.66 0 1.32 0 2 0 C18.04 27.32 29.25 63.59 21.51 95.31 C20.98 97.23 20.38 99.13 19.78 101.02 C18.83 104.63 18.83 104.63 20 108 C21.48 109.97 22.99 111.86 24.56 113.75 C31.53 122.43 36.71 132.35 40 143 C40.58 141.27 41.13 139.53 41.61 137.77 C42.9 133.14 44.3 129.17 46.82 125.04 C48.43 122.26 49.85 119.4 51.25 116.5 C51.77 115.44 52.29 114.38 52.83 113.28 C54.13 109.62 54.03 106.86 54 103 C54.99 99.58 54.99 99.58 56.31 96.25 C56.74 95.14 57.17 94.03 57.61 92.89 C58.86 90.3 59.73 88.73 62 87 C62.66 87 63.32 87 64 87 C64.4 85.61 64.4 85.61 64.81 84.19 C65.96 81.12 66.5 79.96 69 78 C73.63 77 77.87 77.6 82 79.88 C85 82 85 82 86 84 C85.94 86.25 85.85 88.5 85.75 90.75 C85.53 95.55 85.53 95.55 87.14 99.91 C87.61 100.35 88.08 100.79 88.56 101.25 C91 104 91 104 91.18 106.39 C90.77 110.86 90.02 114.95 88 119 C83.28 119.92 80.33 120.23 76 118 C73.84 124.27 72.79 129.38 73 136 C72.86 137.36 72.69 138.71 72.5 140.06 C71.52 147.75 72.12 151.99 75.81 158.77 C78.52 163.85 78.76 168.26 77.25 173.72 C75.84 177.97 74.36 182.19 72.84 186.4 C70.19 194.19 67.9 202.32 70.87 210.36 C72.03 212.53 73.3 214.53 74.69 216.56 C75.61 218.03 76.53 219.49 77.45 220.96 C77.89 221.65 78.33 222.35 78.79 223.06 C82.64 229.22 85 234.91 85.81 242.12 C86.72 249.65 89.86 255.76 93.22 262.45 C98.39 272.77 96.83 286.31 93.85 297.18 C92.67 302.49 92.15 307.84 91.56 313.25 C87.94 345.42 87.94 345.42 78.46 355.78 C75.62 359.12 74.87 362.63 74.12 366.88 C70.71 383.29 63.38 398.59 50.69 409.81 C45.23 414.97 44.27 420.04 42.87 427.12 C41.72 432.24 39.64 436.5 37 441 C29.65 440.03 23.5 438.16 16.82 434.93 C12.1 433.38 8.63 434.6 4.3 436.67 C2.97 437.36 1.64 438.05 0.31 438.75 C-1.1 439.47 -2.52 440.2 -3.94 440.92 C-4.97 441.45 -4.97 441.45 -6.03 441.99 C-8.73 443.38 -11.45 444.74 -14.19 446.06 C-15.01 446.47 -15.82 446.87 -16.67 447.29 C-19.72 448.22 -20.98 448.12 -24 447 C-26.67 445.22 -29.11 443.19 -31.56 441.12 C-32.27 440.54 -32.97 439.96 -33.7 439.36 C-39.07 434.87 -44.27 430.21 -49.39 425.43 C-51.66 423.32 -53.96 421.27 -56.31 419.25 C-71.48 406.06 -83.88 389.65 -95 373 C-104.62 375.28 -114.17 377.81 -123.69 380.5 C-124.73 380.78 -125.77 381.07 -126.84 381.36 C-127.82 381.64 -128.81 381.93 -129.82 382.22 C-130.7 382.47 -131.58 382.71 -132.48 382.97 C-137.78 385.14 -140.36 388.52 -143.28 393.26 C-150.65 402.37 -162.66 403.95 -173.5 406.86 C-175.91 407.53 -178.32 408.21 -180.73 408.89 C-186.4 410.49 -192.07 412.05 -197.75 413.6 C-204.86 415.54 -211.95 417.53 -219.05 419.52 C-231.69 423.06 -244.34 426.54 -257 430 C-263.85 423.33 -263.85 423.33 -264.25 419.8 C-264.24 418.94 -264.24 418.08 -264.24 417.2 C-264.24 416.21 -264.25 415.22 -264.25 414.2 C-264.24 413.12 -264.23 412.04 -264.23 410.92 C-264.23 409.78 -264.23 408.64 -264.23 407.46 C-264.23 403.68 -264.21 399.9 -264.2 396.11 C-264.19 393.49 -264.19 390.88 -264.19 388.26 C-264.18 382.06 -264.16 375.87 -264.14 369.67 C-264.12 362.62 -264.11 355.57 -264.1 348.52 C-264.08 334.01 -264.04 319.51 -264 305 C-257.38 302.39 -250.67 300.38 -243.83 298.45 C-242.63 298.1 -241.44 297.76 -240.2 297.41 C-236.94 296.48 -233.68 295.55 -230.42 294.63 C-227 293.66 -223.58 292.68 -220.16 291.71 C-214.42 290.08 -208.69 288.45 -202.96 286.82 C-196.32 284.94 -189.69 283.05 -183.06 281.16 C-176.67 279.34 -170.28 277.52 -163.9 275.71 C-161.18 274.94 -158.46 274.16 -155.75 273.39 C-151.96 272.31 -148.18 271.24 -144.39 270.17 C-143.26 269.84 -142.13 269.52 -140.97 269.19 C-139.94 268.9 -138.91 268.61 -137.86 268.31 C-136.96 268.05 -136.07 267.8 -135.14 267.54 C-133 267 -133 267 -131 267 C-130.79 266.03 -130.58 265.06 -130.37 264.06 C-127.93 253.24 -124.51 242.67 -118.85 233.04 C-117.81 230.54 -118.05 229.55 -118.83 226.98 C-119.05 226.21 -119.27 225.45 -119.5 224.65 C-119.87 223.43 -119.87 223.43 -120.25 222.19 C-126.64 199.62 -127.23 178.17 -115.94 157.2 C-114 154 -114 154 -112.28 152.47 C-110.17 150.04 -110.58 147.45 -110.5 144.31 C-110.22 138.53 -109.41 134.24 -107 129 C-107.47 128.5 -107.94 128.01 -108.43 127.5 C-115.63 119.64 -118.39 112.37 -118.2 101.67 C-117.42 91.31 -112.39 82.81 -104.68 75.93 C-100.26 72.65 -95.87 70.47 -90.75 68.5 C-85.92 66.63 -83.47 64.81 -80.41 60.7 C-74.59 53.67 -64.75 51.14 -56.06 50.25 C-52.17 49.97 -48.78 50.14 -44.94 50.81 C-36.67 51.82 -30.05 45.95 -23.81 41.19 C-10.71 30.17 -2.74 16.92 0 0 Z " fill="#1C2229" transform="translate(264,0)"/>
<path d="M0 0 C2.91 0.45 4.13 1.11 6.11 3.33 C6.35 7.16 6.03 10.83 5.76 14.66 C6.2 19.27 7.78 20.29 11.11 23.33 C11.76 27.45 10.39 30.9 8.11 34.33 C7.48 34.24 6.85 34.16 6.21 34.07 C5.39 33.97 4.57 33.87 3.73 33.77 C2.92 33.66 2.11 33.56 1.27 33.45 C-0.94 33.15 -0.94 33.15 -2.89 34.33 C-4.3 37.15 -4.3 37.15 -5.58 40.52 C-6.27 42.21 -6.27 42.21 -6.97 43.93 C-7.96 47.58 -7.68 49.69 -6.89 53.33 C-7.22 54.07 -7.55 54.81 -7.89 55.58 C-9.69 60.52 -8.65 65.95 -7.08 70.89 C-6.35 72.39 -5.62 73.89 -4.88 75.38 C-4.51 76.15 -4.15 76.91 -3.77 77.7 C-3.24 78.77 -3.24 78.77 -2.7 79.85 C-0.56 86.43 -2.48 91.92 -4.83 98.08 C-5.11 98.83 -5.39 99.59 -5.67 100.36 C-6.19 101.76 -6.71 103.15 -7.23 104.54 C-8.64 108.34 -9.07 111.47 -9.27 115.52 C-9.54 119.6 -9.93 123.05 -11.52 126.83 C-13.01 130.61 -12.97 131.56 -11.89 135.33 C-10.9 137.54 -10.9 137.54 -9.64 139.68 C-9.2 140.47 -8.76 141.26 -8.3 142.07 C-7.84 142.88 -7.37 143.68 -6.89 144.52 C-5.98 146.13 -5.06 147.75 -4.14 149.37 C-3.74 150.08 -3.33 150.79 -2.91 151.53 C-0.95 155 -0.81 157.19 -0.71 161.2 C-0.2 168.67 2.53 173.88 6.11 180.33 C12.15 192.17 10.4 203.04 7.81 215.6 C6.04 224.26 4.8 232.97 3.68 241.74 C2.36 251.36 0.66 261.23 -5.96 268.7 C-10.71 274.81 -11.65 280.83 -12.89 288.33 C-16.08 303.36 -26.34 319.45 -38.89 328.33 C-39.55 328.33 -40.21 328.33 -40.89 328.33 C-40.83 329.44 -40.77 330.56 -40.71 331.7 C-40.71 337.28 -41.69 343.86 -45.5 348.12 C-45.96 348.52 -46.42 348.92 -46.89 349.33 C-51.42 347.97 -55.6 346.65 -59.58 344.08 C-63.56 341.97 -64.62 342.21 -68.89 343.33 C-71.34 344.52 -73.66 345.73 -76.02 347.08 C-93.22 356.55 -93.22 356.55 -97.95 356.16 C-102.51 354.21 -106.14 350.48 -109.89 347.33 C-110.96 346.45 -112.03 345.57 -113.1 344.69 C-126.23 333.77 -138.43 321.85 -148.89 308.33 C-149.78 307.23 -150.67 306.13 -151.56 305.04 C-156.38 299.07 -160.95 293 -165.14 286.58 C-165.54 285.98 -165.93 285.38 -166.34 284.77 C-167.26 283.33 -168.09 281.83 -168.89 280.33 C-168.56 279.67 -168.23 279.01 -167.89 278.33 C-165.86 277.68 -165.86 277.68 -163.2 277.1 C-162.23 276.87 -161.27 276.65 -160.28 276.41 C-158.25 275.94 -156.23 275.5 -154.19 275.07 C-148.83 273.76 -145.65 272.71 -142.38 268.12 C-141.96 267.41 -141.54 266.69 -141.1 265.96 C-140.7 265.42 -140.31 264.88 -139.89 264.33 C-138.9 264.33 -137.91 264.33 -136.89 264.33 C-136.4 265.81 -136.4 265.81 -135.89 267.33 C-134.24 267 -132.59 266.67 -130.89 266.33 C-131.26 272.48 -132.8 275.02 -136.89 279.33 C-135.82 280.61 -135.82 280.61 -133.31 280.55 C-128.71 281.6 -125.92 283.93 -122.27 286.83 C-121.57 287.36 -120.87 287.9 -120.15 288.45 C-116.89 290.96 -113.67 293.51 -110.46 296.09 C-104.79 300.57 -101.21 303.33 -93.89 303.33 C-91.02 303.81 -88.58 304.44 -85.83 305.45 C-82.78 306.36 -81.82 306.22 -78.89 305.33 C-78.57 305.92 -78.24 306.52 -77.9 307.13 C-71.11 318.95 -62.04 330.32 -50.89 338.33 C-51.88 329.06 -53.16 320.27 -55.89 311.33 C-56.24 310 -56.57 308.66 -56.89 307.33 C-54.17 309.74 -52.77 312.25 -51.21 315.52 C-50.77 316.42 -50.33 317.32 -49.88 318.25 C-49.56 318.93 -49.23 319.62 -48.89 320.33 C-45.17 314.64 -45.51 309.28 -45.64 302.64 C-45.65 301.1 -45.65 301.1 -45.66 299.53 C-45.73 292.76 -46.18 286.07 -46.89 279.33 C-42.76 281.12 -41.23 283.49 -38.89 287.33 C-34.23 280.22 -32.84 271.68 -31.89 263.33 C-30.57 264.65 -29.25 265.97 -27.89 267.33 C-24.47 261.4 -22.12 255.37 -20.21 248.83 C-20.01 248.14 -19.8 247.45 -19.59 246.75 C-18.99 244.61 -18.43 242.48 -17.89 240.33 C-17.61 239.23 -17.61 239.23 -17.31 238.12 C-15.66 231.05 -15.62 224.1 -15.69 216.87 C-15.71 214.8 -15.71 212.74 -15.71 210.68 C-15.38 204.32 -15.38 204.32 -16.89 198.33 C-21.92 206.48 -23.06 213.95 -23.89 223.33 C-24.22 223.33 -24.55 223.33 -24.89 223.33 C-24.94 222.36 -24.99 221.4 -25.04 220.41 C-25.16 218.51 -25.16 218.51 -25.27 216.58 C-25.34 215.33 -25.41 214.07 -25.48 212.78 C-25.85 209.72 -26.29 207.91 -27.89 205.33 C-32.15 208.41 -34.98 211.76 -37.96 216.02 C-38.39 216.64 -38.83 217.26 -39.28 217.9 C-43.7 224.3 -47.09 230.46 -47.89 238.33 C-44.92 238 -41.95 237.67 -38.89 237.33 C-39.78 239.7 -40.69 241.97 -41.95 244.16 C-44.84 249.22 -45.12 252.63 -43.89 258.33 C-43.53 260.49 -43.18 262.66 -42.83 264.83 C-42.52 266.66 -42.21 268.5 -41.89 270.33 C-44.65 268.95 -45.03 267.28 -46.33 264.52 C-49.08 258.32 -49.08 258.32 -54.16 254.2 C-55 253.91 -55.84 253.63 -56.71 253.33 C-60.93 251.77 -64.28 249.99 -67.89 247.33 C-64.69 245.73 -62.17 247.3 -58.89 248.33 C-62.1 239.84 -66.49 231.76 -73.89 226.33 C-73.4 231.77 -73.4 231.77 -72.89 237.33 C-75.19 235.04 -75.57 233.6 -76.46 230.52 C-76.71 229.66 -76.95 228.81 -77.21 227.93 C-78.42 223.32 -79.02 219.15 -78.99 214.37 C-78.99 212.7 -78.99 212.7 -78.98 211 C-78.97 209.28 -78.97 209.28 -78.96 207.52 C-78.95 206.35 -78.95 205.18 -78.94 203.97 C-78.93 201.09 -78.92 198.21 -78.89 195.33 C-78.56 195.33 -78.23 195.33 -77.89 195.33 C-77.4 197.8 -77.4 197.8 -76.89 200.33 C-75.9 197.69 -74.91 195.05 -73.89 192.33 C-69.85 194.11 -66.43 196.72 -62.89 199.33 C-62.56 198.34 -62.23 197.35 -61.89 196.33 C-61.33 196.46 -60.76 196.59 -60.17 196.73 C-55.42 197.82 -50.73 198.71 -45.89 199.33 C-42.66 195.68 -41.45 191.63 -39.96 187.08 C-38.26 181.93 -36.37 177.16 -33.87 172.35 C-32.2 168.89 -31 165.28 -29.77 161.64 C-29.27 160.18 -28.77 158.72 -28.26 157.25 C-27.91 156.24 -27.91 156.24 -27.56 155.21 C-26.74 152.88 -25.84 150.6 -24.89 148.33 C-30.74 159.26 -35.54 170.5 -40.12 182.01 C-40.57 183.13 -41.02 184.25 -41.48 185.4 C-42.07 186.9 -42.07 186.9 -42.67 188.42 C-43.95 191.46 -45.39 194.39 -46.89 197.33 C-50.63 196.83 -52.71 196.45 -55.89 194.33 C-54.36 188.66 -52.61 183.5 -49.86 178.32 C-48.52 175.55 -47.63 172.7 -46.71 169.77 C-45.94 167.46 -45.09 165.22 -44.17 162.97 C-43.82 162.09 -43.47 161.22 -43.1 160.32 C-42.7 159.33 -42.31 158.35 -41.89 157.33 C-40.95 154.96 -40 152.58 -39.05 150.21 C-38.28 148.28 -37.51 146.35 -36.74 144.42 C-36.22 143.11 -35.7 141.81 -35.18 140.5 C-33.43 136.11 -31.66 131.72 -29.89 127.33 C-29.44 126.18 -28.98 125.03 -28.51 123.85 C-28.08 122.79 -27.65 121.73 -27.2 120.63 C-26.83 119.7 -26.45 118.77 -26.07 117.81 C-24.91 115.37 -23.59 113.42 -21.89 111.33 C-23.84 111.44 -23.84 111.44 -25.89 112.33 C-27.3 114.58 -27.3 114.58 -28.3 117.44 C-28.71 118.5 -29.13 119.57 -29.56 120.67 C-29.98 121.79 -30.4 122.92 -30.83 124.08 C-31.25 125.16 -31.67 126.24 -32.1 127.35 C-33.38 130.67 -34.64 134 -35.89 137.33 C-39.26 146.17 -42.74 154.95 -46.33 163.7 C-47.3 166.06 -48.26 168.42 -49.22 170.78 C-49.68 171.9 -50.14 173.02 -50.61 174.18 C-53.07 180.22 -55.49 186.27 -57.89 192.33 C-61.42 191.73 -63.44 190.38 -66.14 188.08 C-66.85 187.5 -67.56 186.91 -68.29 186.31 C-69.89 184.33 -69.89 184.33 -70.27 181.9 C-69.85 179.02 -69.01 176.99 -67.71 174.39 C-65.66 170.1 -63.95 165.82 -62.39 161.33 C-60.91 157.05 -59.32 152.93 -57.39 148.83 C-55.5 144.79 -53.92 140.73 -52.46 136.52 C-45.71 117.14 -45.71 117.14 -42.89 114.33 C-41.21 114.26 -39.52 114.24 -37.83 114.27 C-36.45 114.28 -36.45 114.28 -35.05 114.29 C-33.98 114.31 -33.98 114.31 -32.89 114.33 C-32.89 113.67 -32.89 113.01 -32.89 112.33 C-35.19 112.47 -37.48 112.62 -39.77 112.77 C-41.05 112.85 -42.32 112.93 -43.64 113.01 C-46.78 113.12 -46.78 113.12 -48.89 114.33 C-48.23 114.66 -47.57 114.99 -46.89 115.33 C-49.98 124.89 -53.28 134.38 -57.89 143.33 C-58.22 142.67 -58.55 142.01 -58.89 141.33 C-60.23 140.66 -61.56 139.99 -62.89 139.33 C-64.28 138.22 -65.64 137.07 -66.96 135.89 C-67.96 135 -67.96 135 -68.99 134.08 C-70.67 132.54 -72.3 130.96 -73.89 129.33 C-73.56 128.67 -73.23 128.01 -72.89 127.33 C-72.28 127.97 -71.66 128.6 -71.03 129.26 C-70.22 130.09 -69.41 130.91 -68.58 131.77 C-67.78 132.59 -66.98 133.41 -66.16 134.26 C-63.99 136.52 -63.99 136.52 -60.89 137.33 C-61.38 136.94 -61.86 136.55 -62.36 136.15 C-76.14 124.65 -86.03 107.91 -89.89 90.33 C-90.02 86.89 -90.02 86.89 -89.89 84.33 C-88.24 84 -86.59 83.67 -84.89 83.33 C-84.66 84.27 -84.43 85.22 -84.2 86.19 C-79.68 104.18 -72.89 119.6 -57.89 131.33 C-58.88 130.37 -58.88 130.37 -59.89 129.39 C-60.9 128.37 -61.9 127.35 -62.89 126.33 C-63.8 125.43 -63.8 125.43 -64.73 124.52 C-74.5 114.33 -82.59 99.27 -82.99 84.93 C-82.96 84.07 -82.93 83.21 -82.89 82.33 C-81.9 82.33 -80.91 82.33 -79.89 82.33 C-79.62 83.2 -79.62 83.2 -79.35 84.1 C-74.57 99.39 -69.86 112.08 -57.89 123.33 C-57.23 123.33 -56.57 123.33 -55.89 123.33 C-56.64 122.74 -56.64 122.74 -57.4 122.15 C-69.02 112.58 -74.97 99.95 -77.89 85.33 C-77.89 84.01 -77.89 82.69 -77.89 81.33 C-76.9 81.33 -75.91 81.33 -74.89 81.33 C-74.6 82.36 -74.31 83.38 -74.01 84.44 C-69.95 98.37 -64.5 111.92 -51.89 120.33 C-51.89 119.67 -51.89 119.01 -51.89 118.33 C-52.76 117.95 -52.76 117.95 -53.65 117.57 C-63.54 112.09 -68.78 99.72 -71.77 89.39 C-72.67 85.94 -73.01 82.89 -72.89 79.33 C-75.2 79.33 -77.51 79.33 -79.89 79.33 C-79.89 78.67 -79.89 78.01 -79.89 77.33 C-77.25 77.33 -74.61 77.33 -71.89 77.33 C-71.61 78.49 -71.34 79.65 -71.05 80.84 C-66.86 97.55 -66.86 97.55 -55.89 110.33 C-55.56 106.04 -55.23 101.75 -54.89 97.33 C-54.23 98.65 -53.57 99.97 -52.89 101.33 C-51.41 101.82 -51.41 101.82 -49.89 102.33 C-50.55 105.3 -51.21 108.27 -51.89 111.33 C-51.06 111.01 -50.23 110.69 -49.37 110.36 C-44.42 108.89 -39.59 108.88 -34.45 108.67 C-31.12 108.35 -28.95 107.59 -25.89 106.33 C-24.04 106.22 -22.19 106.15 -20.33 106.14 C-16.49 105.93 -16.49 105.93 -13.36 103.96 C-12.28 102.11 -11.56 100.36 -10.89 98.33 C-10.28 96.66 -10.28 96.66 -9.64 94.95 C-8.5 89.43 -7.66 84.72 -10.3 79.59 C-14.2 76.19 -17.71 76.67 -22.71 76.83 C-23.58 76.83 -24.46 76.82 -25.37 76.82 C-30.99 76.9 -34.83 77.95 -39.89 80.33 C-40.55 80 -41.21 79.67 -41.89 79.33 C-41.21 77.39 -41.21 77.39 -39.89 75.33 C-37.31 74.7 -37.31 74.7 -34.89 74.33 C-33.43 69.7 -32.04 65.08 -30.98 60.35 C-28.14 47.8 -28.14 47.8 -24.2 43.16 C-20.52 37.99 -17.89 31.03 -17.89 24.7 C-17.89 19.43 -15.69 14.76 -12.89 10.33 C-11.57 9.64 -10.24 8.96 -8.89 8.33 C-7.66 4.82 -7.66 4.82 -6.89 1.33 C-5.04 -0.53 -2.47 0.09 0 0 Z " fill="#1F262E" transform="translate(339.89453125,81.671875)"/>
<path d="M0 0 C0.66 0 1.32 0 2 0 C18.04 27.32 29.25 63.59 21.51 95.31 C20.98 97.23 20.38 99.13 19.78 101.02 C18.83 104.63 18.83 104.63 20 108 C21.48 109.97 22.99 111.86 24.56 113.75 C31.53 122.43 36.71 132.35 40 143 C40.58 141.27 41.13 139.53 41.61 137.77 C42.9 133.14 44.3 129.17 46.82 125.04 C48.43 122.26 49.85 119.4 51.25 116.5 C51.77 115.44 52.29 114.38 52.83 113.28 C54.13 109.62 54.03 106.86 54 103 C54.99 99.58 54.99 99.58 56.31 96.25 C56.74 95.14 57.17 94.03 57.61 92.89 C58.86 90.3 59.73 88.73 62 87 C62.66 87 63.32 87 64 87 C64.4 85.61 64.4 85.61 64.81 84.19 C65.96 81.12 66.5 79.96 69 78 C73.63 77 77.87 77.6 82 79.88 C85 82 85 82 86 84 C85.94 86.25 85.85 88.5 85.75 90.75 C85.53 95.55 85.53 95.55 87.14 99.91 C87.61 100.35 88.08 100.79 88.56 101.25 C91 104 91 104 91.18 106.39 C90.77 110.86 90.02 114.95 88 119 C83.28 119.92 80.33 120.23 76 118 C73.84 124.27 72.79 129.38 73 136 C72.86 137.36 72.69 138.71 72.5 140.06 C71.52 147.75 72.12 151.99 75.81 158.77 C78.52 163.85 78.76 168.26 77.25 173.72 C75.84 177.97 74.36 182.19 72.84 186.4 C70.19 194.19 67.9 202.32 70.87 210.36 C72.03 212.53 73.3 214.53 74.69 216.56 C75.61 218.03 76.53 219.49 77.45 220.96 C77.89 221.65 78.33 222.35 78.79 223.06 C82.64 229.22 85 234.91 85.81 242.12 C86.72 249.65 89.86 255.76 93.22 262.45 C98.39 272.77 96.83 286.31 93.85 297.18 C92.67 302.49 92.15 307.84 91.56 313.25 C87.94 345.42 87.94 345.42 78.46 355.78 C75.62 359.12 74.87 362.63 74.12 366.88 C70.71 383.29 63.38 398.59 50.69 409.81 C45.23 414.97 44.27 420.04 42.87 427.12 C41.72 432.24 39.64 436.5 37 441 C29.65 440.03 23.5 438.16 16.82 434.93 C12.1 433.38 8.63 434.6 4.3 436.67 C2.97 437.36 1.64 438.05 0.31 438.75 C-1.1 439.47 -2.52 440.2 -3.94 440.92 C-4.97 441.45 -4.97 441.45 -6.03 441.99 C-8.73 443.38 -11.45 444.74 -14.19 446.06 C-15.01 446.47 -15.82 446.87 -16.67 447.29 C-19.72 448.22 -20.98 448.12 -24 447 C-26.67 445.22 -29.11 443.19 -31.56 441.12 C-32.27 440.54 -32.97 439.96 -33.7 439.36 C-39.07 434.87 -44.27 430.21 -49.39 425.43 C-51.66 423.32 -53.96 421.27 -56.31 419.25 C-71.48 406.06 -83.88 389.65 -95 373 C-104.62 375.28 -114.17 377.81 -123.69 380.5 C-124.73 380.78 -125.77 381.07 -126.84 381.36 C-127.82 381.64 -128.81 381.93 -129.82 382.22 C-130.7 382.47 -131.58 382.71 -132.48 382.97 C-137.78 385.14 -140.36 388.52 -143.28 393.26 C-150.65 402.37 -162.66 403.95 -173.5 406.86 C-175.91 407.53 -178.32 408.21 -180.73 408.89 C-186.4 410.49 -192.07 412.05 -197.75 413.6 C-204.86 415.54 -211.95 417.53 -219.05 419.52 C-231.69 423.06 -244.34 426.54 -257 430 C-263.85 423.33 -263.85 423.33 -264.25 419.8 C-264.24 418.94 -264.24 418.08 -264.24 417.2 C-264.24 416.21 -264.25 415.22 -264.25 414.2 C-264.24 413.12 -264.23 412.04 -264.23 410.92 C-264.23 409.78 -264.23 408.64 -264.23 407.46 C-264.23 403.68 -264.21 399.9 -264.2 396.11 C-264.19 393.49 -264.19 390.88 -264.19 388.26 C-264.18 382.06 -264.16 375.87 -264.14 369.67 C-264.12 362.62 -264.11 355.57 -264.1 348.52 C-264.08 334.01 -264.04 319.51 -264 305 C-257.38 302.39 -250.67 300.38 -243.83 298.45 C-242.63 298.1 -241.44 297.76 -240.2 297.41 C-236.94 296.48 -233.68 295.55 -230.42 294.63 C-227 293.66 -223.58 292.68 -220.16 291.71 C-214.42 290.08 -208.69 288.45 -202.96 286.82 C-196.32 284.94 -189.69 283.05 -183.06 281.16 C-176.67 279.34 -170.28 277.52 -163.9 275.71 C-161.18 274.94 -158.46 274.16 -155.75 273.39 C-151.96 272.31 -148.18 271.24 -144.39 270.17 C-143.26 269.84 -142.13 269.52 -140.97 269.19 C-139.94 268.9 -138.91 268.61 -137.86 268.31 C-136.96 268.05 -136.07 267.8 -135.14 267.54 C-133 267 -133 267 -131 267 C-130.79 266.03 -130.58 265.06 -130.37 264.06 C-127.93 253.24 -124.51 242.67 -118.85 233.04 C-117.81 230.54 -118.05 229.55 -118.83 226.98 C-119.05 226.21 -119.27 225.45 -119.5 224.65 C-119.87 223.43 -119.87 223.43 -120.25 222.19 C-126.64 199.62 -127.23 178.17 -115.94 157.2 C-114 154 -114 154 -112.28 152.47 C-110.17 150.04 -110.58 147.45 -110.5 144.31 C-110.22 138.53 -109.41 134.24 -107 129 C-107.47 128.5 -107.94 128.01 -108.43 127.5 C-115.63 119.64 -118.39 112.37 -118.2 101.67 C-117.42 91.31 -112.39 82.81 -104.68 75.93 C-100.26 72.65 -95.87 70.47 -90.75 68.5 C-85.92 66.63 -83.47 64.81 -80.41 60.7 C-74.59 53.67 -64.75 51.14 -56.06 50.25 C-52.17 49.97 -48.78 50.14 -44.94 50.81 C-36.67 51.82 -30.05 45.95 -23.81 41.19 C-10.71 30.17 -2.74 16.92 0 0 Z M2 20 C1.55 20.87 1.1 21.74 0.64 22.64 C-6.9 36.78 -16.31 46.65 -30 55 C-30.66 55.45 -31.32 55.9 -31.99 56.36 C-38.25 60.34 -43.28 60.53 -50.56 60.12 C-59.76 59.68 -66.74 60.03 -74.31 65.94 C-74.95 66.42 -75.58 66.9 -76.24 67.4 C-78.14 69.13 -79.59 70.85 -81 73 C-81 73.66 -81 74.32 -81 75 C-82.11 75.04 -83.23 75.08 -84.38 75.12 C-93.49 76.3 -101.42 82.99 -107 90 C-109.82 94.59 -110.55 98.57 -110.5 103.88 C-110.5 104.58 -110.49 105.29 -110.49 106.01 C-110.31 111.87 -108.98 115.75 -105 120 C-104.24 120.84 -104.24 120.84 -103.46 121.7 C-102.08 123.22 -102.08 123.22 -100 123 C-98.69 125.38 -98.69 125.38 -98 129 C-98.95 131.06 -98.95 131.06 -100.31 133.38 C-102.94 138 -103.37 141.97 -103.44 147.19 C-103.62 155.54 -103.62 155.54 -106.75 158.88 C-107.29 159.37 -107.82 159.86 -108.38 160.37 C-115.15 167.17 -117.24 177.72 -117.33 186.93 C-117.32 188.39 -117.32 188.39 -117.31 189.88 C-117.31 190.88 -117.31 191.89 -117.3 192.93 C-117.21 199.27 -116.77 205.44 -115.69 211.69 C-115.51 212.72 -115.51 212.72 -115.33 213.77 C-114.52 217.85 -113.61 219.53 -111 223 C-105.39 217.39 -99.78 211.78 -94 206 C-93.67 208.97 -93.34 211.94 -93 215 C-92.34 215.33 -91.68 215.66 -91 216 C-91.83 216.75 -92.67 217.5 -93.53 218.27 C-108.17 231.54 -118.02 243.38 -123 263 C-123 263.66 -123 264.32 -123 265 C-113.14 262.8 -103.51 260.45 -94 257 C-93.67 258.65 -93.34 260.3 -93 262 C-106.43 266.45 -119.88 270.61 -133.56 274.21 C-142.95 276.69 -152.29 279.32 -161.62 282 C-162.75 282.32 -162.75 282.32 -163.9 282.65 C-174.11 285.58 -184.3 288.54 -194.49 291.53 C-201.5 293.58 -208.53 295.55 -215.56 297.5 C-224.88 300.09 -234.15 302.82 -243.39 305.69 C-244.27 305.96 -245.16 306.24 -246.07 306.52 C-246.83 306.76 -247.59 307 -248.38 307.24 C-251.89 308.26 -255.45 309.11 -259 310 C-259 343.99 -259 377.98 -259 413 C-250.59 410.71 -242.22 408.32 -233.86 405.84 C-228.22 404.18 -222.57 402.61 -216.87 401.16 C-215.7 400.86 -214.53 400.56 -213.33 400.25 C-211.08 399.68 -208.82 399.12 -206.55 398.57 C-197.95 396.37 -193.55 393.77 -188.81 386.06 C-183.37 379.14 -175.98 377.83 -167.8 375.72 C-164.91 374.98 -162.05 374.18 -159.19 373.36 C-155.02 372.18 -150.84 371.01 -146.66 369.85 C-139.75 367.93 -132.84 365.97 -125.94 364 C-124.18 363.5 -124.18 363.5 -122.39 362.99 C-114.77 360.8 -107.17 358.6 -99.56 356.38 C-96.67 355.53 -93.78 354.69 -90.89 353.84 C-88.91 353.27 -86.94 352.69 -84.97 352.11 C-82.05 351.26 -79.12 350.41 -76.19 349.56 C-74.86 349.17 -74.86 349.17 -73.51 348.78 C-72.69 348.54 -71.88 348.31 -71.04 348.07 C-70.33 347.86 -69.62 347.65 -68.89 347.44 C-67 347 -67 347 -64 347 C-68.51 353.97 -73.43 355.58 -81.31 357.31 C-83.31 357.78 -85.31 358.26 -87.3 358.74 C-88.62 359.03 -88.62 359.03 -89.96 359.33 C-90.97 359.66 -90.97 359.66 -92 360 C-92.33 360.66 -92.66 361.32 -93 362 C-82.11 379.01 -69.99 394.44 -56 409 C-55.53 409.49 -55.07 409.98 -54.59 410.48 C-48.96 416.34 -43.14 421.75 -36.77 426.78 C-34.83 428.34 -32.93 429.94 -31.07 431.59 C-30.12 432.43 -29.17 433.26 -28.19 434.12 C-27.34 434.89 -26.48 435.66 -25.61 436.45 C-23.12 438.22 -23.12 438.22 -20.34 438.05 C-15.48 436.52 -11 434.36 -6.44 432.12 C-5.5 431.68 -4.57 431.23 -3.61 430.77 C1.75 428.18 1.75 428.18 6.84 425.12 C9 424 9 424 11.5 424.16 C14.15 425.05 16.48 426.16 18.94 427.5 C22.65 429.42 25.78 430.67 30 431 C33.91 423.68 35.14 418.28 35 410 C35.54 409.77 36.07 409.55 36.62 409.31 C50.52 401.63 58.92 384.87 63.22 370.2 C63.94 367.24 64.37 364.39 64.75 361.38 C65.64 355.8 68.28 352.4 71.93 348.19 C77.39 339.77 78.75 329.84 80 320.06 C81.17 311.52 82.51 303.07 84.25 294.62 C87.23 279.47 86.66 267.94 78.25 254.5 C76.07 250.83 75.77 248.12 75.69 243.88 C75.33 234.31 70.12 226.43 64.73 218.78 C63 216 63 216 63.12 212.44 C64 209 64 209 65.04 206.64 C66.11 203.7 66.2 201.43 66.25 198.31 C66.8 189.07 69.85 179.29 74 171 C74.81 165.69 73.54 162.79 71 158.06 C68.22 152.86 67.48 149.81 68 144 C67.79 143.28 67.59 142.56 67.38 141.81 C67 140 67 140 68 137.62 C69.26 135.02 69.26 135.02 68.43 132.26 C67.9 128.28 68.66 125.93 70.06 122.19 C70.47 121.05 70.87 119.91 71.29 118.73 C73 116 73 116 76 115.09 C78.87 115 81.23 115.27 84 116 C86.35 111.36 86.35 111.36 86.94 106.31 C86.16 103.85 86.16 103.85 83.94 102.33 C81.27 99.12 81.7 96.38 82 92.44 C82.2 89.85 82.19 87.61 82 85 C80.01 82.76 78.81 82.11 75.86 81.71 C73.91 81.8 71.95 81.9 70 82 C67.8 85.8 67.8 85.8 67 90 C66.1 90.33 66.1 90.33 65.17 90.68 C60.93 93.26 59.55 98.46 58 103 C58 104.11 58 105.23 58 106.38 C58 115.24 53.19 123.12 48 130 C46.18 134.3 45.44 138.75 44.57 143.32 C43.65 147.63 42.34 151.81 41 156 C40.24 156.1 39.47 156.21 38.69 156.31 C35.83 157.04 34.84 157.77 33 160 C32.91 159.3 32.83 158.59 32.74 157.87 C30.29 140.68 23.6 126.33 11.25 114.25 C7.02 109.79 7.02 109.79 6.93 106.41 C7.72 103.77 8.76 101.46 10 99 C10.57 97.45 11.11 95.88 11.62 94.31 C11.86 93.65 12.1 92.98 12.35 92.3 C18.59 70.15 13.36 41.58 4 21 C3.34 20.67 2.68 20.34 2 20 Z " fill="#C20939" transform="translate(264,0)"/>
<path d="M0 0 C-0.88 8.01 -2.31 15.61 -4.44 23.38 C-7.91 36.28 -10.26 48.33 -10.38 61.75 C-10.39 62.78 -10.4 63.81 -10.42 64.87 C-10.37 73.34 -8.67 80.99 -6 89 C-6 86.03 -6 83.06 -6 80 C-1.76 82.12 -0.6 83.52 2.06 87.31 C2.73 88.26 3.41 89.2 4.1 90.18 C9 97.45 9 97.45 9 102 C6.36 101.67 3.72 101.34 1 101 C7.14 104.55 7.14 104.55 13.69 107.25 C19.83 110.5 22.62 116.68 25 123 C24.77 121.99 24.54 120.97 24.31 119.93 C24.02 118.58 23.73 117.23 23.44 115.88 C23.29 115.21 23.13 114.54 22.98 113.86 C21.48 106.77 22.5 102.33 26.06 96.12 C26.61 95.16 27.16 94.19 27.72 93.2 C28.35 92.11 28.35 92.11 29 91 C28.01 91.5 28.01 91.5 27 92 C24.67 92.04 22.33 92.04 20 92 C19.24 80.79 27.3 71.12 34.18 63 C36.41 60.47 37.74 59.09 41 58 C43.4 62.8 43.61 67.73 44 73 C44 72.33 44.01 71.67 44.01 70.98 C44.34 63.06 46.79 57.65 51 51 C54.38 56.07 53.39 62.12 53.38 68.06 C53.37 68.74 53.37 69.42 53.37 70.12 C53.33 81.17 52.44 91.45 49 102 C48.76 102.73 48.53 103.47 48.29 104.23 C43.8 117.88 43.8 117.88 39 122 C38.34 120.68 37.68 119.36 37 118 C36.83 119.06 36.66 120.12 36.48 121.22 C35.21 128.77 34.01 135.36 30 142 C28.29 140.38 26.63 138.71 25 137 C25 136.34 25 135.68 25 135 C24.01 134.67 23.02 134.34 22 134 C22.1 134.87 22.1 134.87 22.21 135.76 C22.96 142.56 23.22 149.29 23.25 156.12 C23.27 157.16 23.29 158.19 23.31 159.25 C23.34 165.57 22.63 170.24 20 176 C17.53 173.53 16.41 171.01 14.88 167.88 C14.34 166.78 13.8 165.68 13.24 164.55 C12.83 163.71 12.42 162.87 12 162 C12.43 163.11 12.87 164.23 13.31 165.38 C14.95 170.28 15.88 175.23 16.75 180.31 C16.89 181.1 17.03 181.89 17.17 182.7 C17.3 183.46 17.42 184.21 17.55 184.99 C17.66 185.66 17.77 186.34 17.89 187.04 C18.01 189.22 17.63 190.91 17 193 C3.79 181.24 -10.01 168.61 -15 151 C-14.67 150.34 -14.34 149.68 -14 149 C-13.34 149.66 -12.68 150.32 -12 151 C-10.68 150.67 -9.36 150.34 -8 150 C-7.01 146.37 -6.02 142.74 -5 139 C-6.65 141.64 -8.3 144.28 -10 147 C-14.31 143.43 -16 139.09 -18.12 134.06 C-18.47 133.26 -18.82 132.47 -19.18 131.64 C-20.13 129.43 -21.07 127.22 -22 125 C-22.4 124.09 -22.79 123.17 -23.2 122.23 C-24.06 119.85 -24.4 117.71 -24.62 115.19 C-24.7 114.4 -24.77 113.61 -24.85 112.79 C-24.9 112.2 -24.95 111.61 -25 111 C-24.34 111 -23.68 111 -23 111 C-23 106.38 -23 101.76 -23 97 C-23.66 98.65 -24.32 100.3 -25 102 C-31.38 96.99 -33.58 87.67 -35 80 C-35.35 76.5 -35.5 73.01 -35.62 69.5 C-35.66 68.58 -35.7 67.66 -35.74 66.72 C-35.84 64.48 -35.92 62.24 -36 60 C-36.45 60.82 -36.91 61.65 -37.38 62.5 C-37.91 63.32 -38.45 64.15 -39 65 C-39.66 65 -40.32 65 -41 65 C-42.94 59.3 -43.35 54.19 -43.31 48.19 C-43.31 47.3 -43.31 46.42 -43.3 45.5 C-43.18 38.03 -42.32 31.64 -38.25 25.25 C-36.53 22.16 -37.13 20.35 -38 17 C-38.33 16.01 -38.66 15.02 -39 14 C-41.97 13.5 -41.97 13.5 -45 13 C-41.59 9.35 -39.63 8.15 -34.56 7.69 C-31 8 -31 8 -28.89 9.66 C-26.72 12.34 -26.04 14.41 -25.25 17.75 C-25.01 18.73 -24.77 19.72 -24.52 20.73 C-24.35 21.48 -24.18 22.23 -24 23 C-25.32 23.33 -26.64 23.66 -28 24 C-27.67 24.66 -27.34 25.32 -27 26 C-27.28 28.01 -27.61 30.01 -28 32 C-27.01 30.02 -26.02 28.04 -25 26 C-23.35 26 -21.7 26 -20 26 C-22.39 19.19 -24.96 12.54 -28 6 C-25 4 -25 4 -21.56 4 C-18 5 -18 5 -15.62 7.44 C-13.56 11.97 -13.19 16.07 -13 21 C-14.65 20.67 -16.3 20.34 -18 20 C-17.63 20.59 -17.25 21.18 -16.87 21.78 C-16.58 22.51 -16.29 23.25 -16 24 C-16.76 25.72 -16.76 25.72 -18.12 27.5 C-21.64 32.58 -23.25 38.12 -25 44 C-23.85 41.71 -22.72 39.42 -21.6 37.12 C-21.09 36.09 -20.58 35.06 -20.06 34 C-19.56 32.97 -19.05 31.94 -18.54 30.88 C-17.18 28.34 -15.92 26.14 -14 24 C-11.31 23.75 -11.31 23.75 -9 24 C-9.14 23.43 -9.29 22.86 -9.44 22.28 C-12.32 10.28 -12.32 10.28 -10.02 6.3 C-7.3 2.84 -4.55 0 0 0 Z " fill="#4A5B6D" transform="translate(272,228)"/>
<path d="M0 0 C0.66 0 1.32 0 2 0 C4.25 8.64 4.44 17.26 4.44 26.12 C4.44 27.23 4.44 27.23 4.44 28.35 C4.42 39.28 3.86 49.02 -1 59 C-1.46 59.96 -1.92 60.92 -2.39 61.91 C-5.41 67.54 -9.32 72.86 -15 76 C-18.87 75.94 -18.87 75.94 -20.88 75.48 C-30.02 73.41 -40.19 75.24 -48.23 79.85 C-55 84.43 -61.27 89.58 -67.44 94.93 C-71.6 98.29 -74.56 99.53 -80.04 99.38 C-83.47 98.71 -84.96 96.71 -87 94 C-88.31 91.19 -88.31 91.19 -89 89 C-87.02 88.5 -87.02 88.5 -85 88 C-85.65 87.59 -86.3 87.17 -86.98 86.75 C-92.73 82.95 -97.82 79.26 -101 73 C-101.88 68.05 -100.83 64.38 -98.47 60.06 C-94.62 54.67 -89.41 49.92 -83 48 C-73.65 47.14 -65.51 47.26 -58.06 53.44 C-55.08 57.14 -54.87 60.08 -54.94 64.75 C-54.95 65.55 -54.96 66.35 -54.96 67.17 C-54.98 67.78 -54.99 68.38 -55 69 C-51.85 64.81 -51.31 61.1 -52 56 C-53.53 50.69 -55.56 47.93 -60.08 45 C-62.99 43.48 -65.81 42.72 -69 42 C-67.49 37.78 -64.76 36.23 -61 34 C-54.86 31.95 -47.84 32.23 -41.89 34.84 C-38.02 37.21 -35.14 39.97 -33 44 C-32.45 47.75 -32.57 51.24 -33 55 C-30.96 51.61 -30.7 48.92 -30.69 45 C-30.66 43.45 -30.66 43.45 -30.64 41.88 C-31.04 38.65 -32.04 37.5 -34 35 C-32.77 31.31 -31.89 31.12 -28.56 29.31 C-16.18 22.14 -6.35 12.91 0 0 Z " fill="#C70436" transform="translate(264,35)"/>
<path d="M0 0 C3.82 2.29 7.51 4.66 11.12 7.27 C12.15 8.01 13.18 8.75 14.25 9.52 C19.65 14.69 24.37 20.89 26.12 28.27 C25.17 27.44 24.22 26.62 23.25 25.77 C18.64 21.81 13.88 18.04 9.12 14.27 C10.21 15.34 10.21 15.34 11.32 16.43 C20.08 25.3 26.05 33.92 31.12 45.27 C29.64 44.77 29.64 44.77 28.12 44.27 C28.12 43.61 28.12 42.95 28.12 42.27 C25.28 40.7 25.28 40.7 22.12 40.27 C22.51 40.79 22.89 41.31 23.29 41.85 C30.36 51.84 33.52 62.08 33.12 74.27 C32.63 75.75 32.63 75.75 32.12 77.27 C26.43 74.93 23.85 69.7 21.18 64.39 C18.55 57.98 17.46 51.03 16.12 44.27 C13.26 44.7 10.41 45.14 7.56 45.58 C6.36 45.76 6.36 45.76 5.13 45.94 C0.02 46.75 -4.2 48.05 -8.88 50.27 C-10.33 50.86 -10.33 50.86 -11.82 51.46 C-14.3 53.21 -14.3 53.21 -14.13 56.89 C-13.58 76.38 -1.69 94.5 11.12 108.27 C6.25 113.14 0.75 114.51 -5.95 114.93 C-9.7 115.37 -13.24 116.28 -16.88 117.27 C-17.54 117.45 -18.2 117.63 -18.88 117.81 C-21.31 118.49 -23.61 119.14 -25.88 120.27 C-29.95 109.36 -31.14 103.04 -26.9 92.04 C-22.99 81.47 -22.82 69.48 -24.45 58.4 C-24.9 55.09 -24.66 54 -22.88 51.27 C-22.88 50.94 -22.88 50.61 -22.88 50.27 C-24.52 50.08 -24.52 50.08 -26.19 49.89 C-29.88 49.27 -29.88 49.27 -32.88 47.27 C-32.88 46.61 -32.88 45.95 -32.88 45.27 C-32.08 44.93 -31.29 44.59 -30.46 44.24 C-22.04 40.38 -17.37 36.69 -13.5 28.27 C-13.3 27.61 -13.09 26.95 -12.88 26.27 C-13.68 26.43 -14.49 26.6 -15.32 26.77 C-19.54 27.36 -23.63 27.35 -27.88 27.27 C-26.03 23.51 -23.97 19.9 -21.88 16.27 C-22.31 16.61 -22.73 16.95 -23.17 17.3 C-46.36 35.28 -46.36 35.28 -58.63 36.71 C-59.7 36.56 -60.77 36.42 -61.88 36.27 C-62.56 36.2 -63.24 36.13 -63.94 36.06 C-65.92 35.85 -67.9 35.56 -69.88 35.27 C-70.6 35.17 -71.32 35.06 -72.07 34.96 C-74.94 33.87 -76.74 32.47 -78.88 30.27 C-79.47 26.16 -79.21 24.77 -76.88 21.27 C-74.88 22.27 -72.88 23.27 -70.88 24.27 C-64.62 25.16 -61.5 24.46 -56.32 20.77 C-52.19 17.52 -48.54 14 -44.91 10.23 C-39.35 4.87 -33.49 0.88 -25.88 -0.73 C-24.49 -1.24 -24.49 -1.24 -23.07 -1.75 C-15.38 -4.11 -7.15 -3.71 0 0 Z " fill="#48586A" transform="translate(251.87890625,114.73046875)"/>
<path d="M0 0 C4.25 4.61 5.55 9.16 5.47 15.31 C5 18 5 18 3.54 21.69 C1.7 26.39 1.23 31 0.81 36 C0.73 36.87 0.65 37.74 0.56 38.64 C0.37 40.76 0.18 42.88 0 45 C0.66 45 1.32 45 2 45 C2.66 43.35 3.32 41.7 4 40 C5.17 42.34 5.01 43.46 4.86 46.04 C4.81 51.32 6.24 55.46 8.19 60.31 C8.51 61.15 8.83 61.98 9.16 62.84 C10.88 67.29 12.71 71.69 14.62 76.06 C19.1 86.55 21.59 97.88 24 109 C24.99 105.7 25.98 102.4 27 99 C29 100 29 100 30.03 102.89 C30.41 104.18 30.78 105.46 31.14 106.75 C31.55 108.17 31.96 109.59 32.38 111.01 C32.59 111.76 32.81 112.5 33.03 113.27 C36.81 126.38 40.82 138.95 47.1 151.13 C50.31 157.78 51.5 165.15 52.75 172.38 C52.89 173.16 53.03 173.95 53.17 174.75 C53.3 175.5 53.42 176.25 53.55 177.02 C53.66 177.69 53.77 178.36 53.89 179.05 C54.01 181.23 53.63 182.92 53 185 C39.79 173.24 25.99 160.61 21 143 C21.33 142.34 21.66 141.68 22 141 C22.66 141.66 23.32 142.32 24 143 C25.32 142.67 26.64 142.34 28 142 C28.99 138.37 29.98 134.74 31 131 C29.35 133.64 27.7 136.28 26 139 C21.69 135.43 20 131.09 17.88 126.06 C17.53 125.26 17.18 124.47 16.82 123.64 C15.87 121.43 14.93 119.22 14 117 C13.6 116.09 13.21 115.17 12.8 114.23 C11.94 111.85 11.6 109.71 11.38 107.19 C11.3 106.4 11.23 105.61 11.15 104.79 C11.1 104.2 11.05 103.61 11 103 C11.66 103 12.32 103 13 103 C13 98.38 13 93.76 13 89 C12.34 90.65 11.68 92.3 11 94 C4.62 88.99 2.42 79.67 1 72 C0.65 68.5 0.5 65.01 0.38 61.5 C0.34 60.58 0.3 59.66 0.26 58.72 C0.16 56.48 0.08 54.24 0 52 C-0.45 52.82 -0.91 53.65 -1.38 54.5 C-1.91 55.32 -2.45 56.15 -3 57 C-3.66 57 -4.32 57 -5 57 C-6.94 51.3 -7.35 46.19 -7.31 40.19 C-7.31 39.3 -7.31 38.42 -7.3 37.5 C-7.18 30.03 -6.32 23.64 -2.25 17.25 C-0.53 14.16 -1.13 12.35 -2 9 C-2.33 8.01 -2.66 7.02 -3 6 C-5.97 5.5 -5.97 5.5 -9 5 C-4.32 0 -4.32 0 0 0 Z " fill="#384759" transform="translate(236,236)"/>
<path d="M0 0 C2.56 1.19 4.89 2.39 7.31 3.81 C8.65 4.55 10 5.29 11.34 6.02 C11.98 6.37 12.62 6.72 13.28 7.08 C22.32 11.92 31.96 11.69 42 12 C42 15.5 41.62 15.72 39.31 18.12 C35.78 22.09 33.44 26.31 31 31 C29.82 33.25 28.63 35.5 27.44 37.75 C26.88 38.82 26.32 39.88 25.75 40.98 C20.98 49.21 20.98 49.21 16.06 50.62 C15.29 50.85 14.51 51.08 13.71 51.31 C-0.76 55 -0.76 55 -6 55 C-6 51.37 -6 47.74 -6 44 C-5.01 43.5 -5.01 43.5 -4 43 C-4 45.64 -4 48.28 -4 51 C2.28 47.28 7.75 44.01 12 38 C12.33 38.66 12.66 39.32 13 40 C11.56 42.63 11.56 42.63 10 45 C12.32 42.85 14.05 40.91 15.69 38.19 C18.81 33.89 22.72 31.09 27 28 C26.31 28.31 25.61 28.63 24.89 28.95 C17.82 31.93 11.24 33.59 3.69 34.81 C-8.26 36.82 -18.68 41.1 -28 49 C-28.09 45.71 -28.14 42.42 -28.19 39.12 C-28.21 38.21 -28.24 37.29 -28.26 36.34 C-28.38 25.17 -25.36 16.48 -18 8 C-15.48 5.73 -12.89 3.77 -10 2 C-9.39 1.62 -8.77 1.24 -8.14 0.84 C-5.17 -0.33 -3.18 -0.36 0 0 Z " fill="#FBBE33" transform="translate(187,152)"/>
<path d="M0 0 C0.66 0 1.32 0 2 0 C2.3 12.28 2.2 23.05 -4 34 C-4.99 33.5 -4.99 33.5 -6 33 C-6 31.68 -6 30.36 -6 29 C-6.66 29 -7.32 29 -8 29 C-6.8 38.64 -5.07 47.78 -2 57 C-1.1 65.57 -2.36 70.87 -7 78 C-7.69 79.66 -8.37 81.32 -9 83 C-9.33 83.33 -9.66 83.66 -10 84 C-16.9 84 -20.82 82.53 -26.05 78 C-31.26 72.66 -32.22 68.25 -32.31 60.81 C-32.23 56.75 -31.92 52.96 -31 49 C-31.65 50.27 -32.29 51.54 -32.94 52.81 C-33.3 53.52 -33.66 54.23 -34.03 54.96 C-35.84 58.77 -36.14 61.76 -36.12 65.94 C-36.13 66.98 -36.13 68.02 -36.13 69.09 C-36.02 71.58 -35.72 73.63 -35 76 C-41.25 79.06 -41.25 79.06 -44.88 78.75 C-47 78 -47 78 -48 77 C-48.8 69.03 -49.25 61.96 -44.06 55.46 C-43.04 54.24 -43.04 54.24 -42 53 C-40.55 51.06 -39.12 49.1 -37.69 47.13 C-36.24 45.13 -34.77 43.15 -33.29 41.16 C-31.07 38.28 -31.07 38.28 -30 36 C-30.66 36 -31.32 36 -32 36 C-31.67 35.01 -31.34 34.02 -31 33 C-27.69 31.84 -24.39 30.93 -20.99 30.07 C-14.56 28.28 -12.23 25.22 -8.96 19.51 C-8.28 18.24 -7.61 16.97 -6.94 15.69 C-6.59 15.03 -6.24 14.36 -5.88 13.68 C-3.55 9.22 -1.56 4.79 0 0 Z " fill="#850A29" transform="translate(223,177)"/>
<path d="M0 0 C0.99 0.66 1.98 1.32 3 2 C3.37 4.77 3.37 4.77 3.36 8.25 C3.36 9.5 3.36 10.75 3.36 12.03 C3.35 13.34 3.33 14.65 3.31 16 C3.32 17.96 3.32 17.96 3.32 19.97 C3.27 29.73 3.27 29.73 1 32 C1.34 38.59 2.7 45.04 3.98 51.5 C4.55 54.39 5 57.05 5 60 C2.36 60.66 -0.28 61.32 -3 62 C-5.48 49.62 -5.48 49.62 -8 37 C-10.48 37.5 -10.48 37.5 -13 38 C-13.33 47.24 -13.66 56.48 -14 66 C-16.64 66.33 -19.28 66.66 -22 67 C-22 46.54 -22 26.08 -22 5 C-5 0 -5 0 0 0 Z " fill="#F5F6F7" transform="translate(46,315)"/>
<path d="M0 0 C0.66 0.33 1.32 0.66 2 1 C2.18 7.58 2.3 14.17 2.38 20.75 C2.42 22.99 2.47 25.23 2.53 27.47 C2.61 30.69 2.65 33.91 2.68 37.13 C2.72 38.13 2.76 39.13 2.79 40.15 C2.8 46.96 2.8 46.96 0.5 49.96 C-2.9 52.95 -6.19 54.88 -10.62 56 C-11.52 56.25 -12.42 56.5 -13.35 56.75 C-16.48 57.05 -18.22 56.41 -21 55 C-22.57 53.43 -22.17 51.85 -22.22 49.67 C-22.25 48.75 -22.27 47.82 -22.29 46.87 C-22.36 42.64 -22.42 38.41 -22.46 34.17 C-22.49 31.94 -22.53 29.71 -22.58 27.48 C-22.66 24.26 -22.7 21.05 -22.72 17.83 C-22.75 16.84 -22.78 15.84 -22.82 14.82 C-22.8 8.03 -22.8 8.03 -20.49 5.04 C-15.02 0.24 -6.9 -4.31 0 0 Z " fill="#F2F1EF" transform="translate(109,299)"/>
<path d="M0 0 C0.39 1.99 0.39 1.99 0.42 4.46 C0.44 5.39 0.45 6.31 0.47 7.26 C0.47 8.77 0.47 8.77 0.47 10.3 C0.48 11.84 0.48 11.84 0.49 13.42 C0.5 15.6 0.51 17.78 0.5 19.96 C0.5 23.29 0.54 26.62 0.59 29.95 C0.59 32.07 0.59 34.18 0.59 36.3 C0.61 37.3 0.63 38.29 0.64 39.32 C0.6 44.04 0.57 46.26 -2.38 50.1 C-7.66 53.93 -14.48 55.79 -21 55 C-24 53 -24 53 -24.4 51.02 C-24.42 49.8 -24.42 49.8 -24.44 48.55 C-24.45 47.63 -24.47 46.71 -24.49 45.76 C-24.5 44.76 -24.5 43.76 -24.5 42.73 C-24.51 41.71 -24.52 40.68 -24.53 39.62 C-24.55 37.45 -24.56 35.27 -24.56 33.1 C-24.56 29.78 -24.62 26.46 -24.67 23.14 C-24.68 21.02 -24.69 18.91 -24.69 16.8 C-24.71 15.81 -24.73 14.82 -24.76 13.79 C-24.71 9.01 -24.55 5.94 -21.14 2.41 C-18.11 0.08 -16.05 -1.06 -12.38 -1.94 C-11.45 -2.17 -10.53 -2.41 -9.59 -2.65 C-5.38 -3.22 -3.52 -2.35 0 0 Z " fill="#F5F5F4" transform="translate(80,309)"/>
<path d="M0 0 C0.9 -0.05 1.8 -0.09 2.72 -0.14 C9.15 -0.25 9.15 -0.25 11.85 1.66 C15.16 5.39 15.83 8.18 15.55 12.93 C14.52 18.99 12.54 25.98 8.12 30.44 C5.6 30.98 5.6 30.98 2.75 31.06 C-0.24 31.17 -2.49 31.28 -5.26 32.43 C-8.65 33.74 -11.69 33.83 -15.31 34 C-19.91 34.23 -24.34 34.59 -28.88 35.44 C-27.97 28.66 -25.31 22.97 -22.56 16.75 C-22.08 15.61 -21.59 14.47 -21.09 13.29 C-20.61 12.2 -20.13 11.11 -19.64 9.99 C-19.2 8.99 -18.77 8 -18.32 6.98 C-14.21 -0.23 -7.42 0.15 0 0 Z " fill="#D48327" transform="translate(316.875,157.5625)"/>
<path d="M0 0 C0.99 0.66 1.98 1.32 3 2 C3.39 4.37 3.39 4.37 3.4 7.3 C3.4 8.89 3.4 8.89 3.41 10.51 C3.4 11.62 3.39 12.73 3.38 13.88 C3.39 14.98 3.4 16.08 3.41 17.21 C3.41 18.28 3.4 19.34 3.4 20.43 C3.4 21.4 3.39 22.37 3.39 23.37 C2.94 26.41 1.84 27.62 0 30 C0.25 32.76 0.62 35.14 1.25 37.81 C1.55 39.19 1.85 40.58 2.14 41.96 C2.36 42.96 2.36 42.96 2.59 43.99 C3.2 46.98 3.6 49.98 4 53 C1.36 53.66 -1.28 54.32 -4 55 C-4.14 54.4 -4.27 53.8 -4.41 53.18 C-5.03 50.47 -5.67 47.77 -6.31 45.06 C-6.53 44.12 -6.74 43.17 -6.96 42.2 C-7.17 41.3 -7.39 40.4 -7.61 39.47 C-7.81 38.64 -8 37.81 -8.2 36.95 C-8.46 36.31 -8.73 35.66 -9 35 C-9.99 34.67 -10.98 34.34 -12 34 C-12 41.92 -12 49.84 -12 58 C-14.64 58.33 -17.28 58.66 -20 59 C-20 41.18 -20 23.36 -20 5 C-5.14 -0.57 -5.14 -0.57 0 0 Z " fill="#F2EDE0" transform="translate(218,266)"/>
<path d="M0 0 C0.33 0 0.66 0 1 0 C1.03 0.83 1.05 1.67 1.08 2.53 C1.4 8.98 2.08 13.82 5.02 19.55 C6.71 23.79 6.96 28.28 7.5 32.79 C7.88 36.14 7.88 36.14 9.56 39.5 C11.87 45.11 11.76 50.99 12 57 C9.12 55.64 6.6 54.09 4.02 52.21 C3.27 51.66 2.53 51.12 1.75 50.56 C0.97 49.98 0.18 49.41 -0.62 48.81 C-1.43 48.23 -2.24 47.65 -3.07 47.05 C-6.47 44.58 -9.87 42.12 -13.2 39.55 C-14.04 38.92 -14.88 38.28 -15.75 37.62 C-16.45 37.08 -17.14 36.54 -17.86 35.98 C-20.84 34.62 -22.89 35.24 -26 36 C-25.39 32.7 -24.27 30.74 -22.19 28.13 C-21.61 27.4 -21.04 26.66 -20.44 25.91 C-19.82 25.13 -19.2 24.36 -18.56 23.56 C-17.29 21.95 -16.02 20.34 -14.74 18.73 C-14.11 17.93 -13.48 17.13 -12.83 16.31 C-10.25 13.05 -7.71 9.75 -5.19 6.44 C-1.11 1.11 -1.11 1.11 0 0 Z " fill="#D5872F" transform="translate(228,328)"/>
<path d="M0 0 C0.29 2.82 0.29 2.82 0.19 6.12 C0.16 7.22 0.13 8.32 0.11 9.45 C0.07 10.29 0.04 11.13 0 12 C-2.64 12.66 -5.28 13.32 -8 14 C-8 11.03 -8 8.06 -8 5 C-9.65 5.33 -11.3 5.66 -13 6 C-13.33 11.61 -13.66 17.22 -14 23 C-12.43 22.61 -10.87 22.22 -9.25 21.81 C-4.63 20.66 -4.63 20.66 -1.87 22.17 C0 24 0 24 0.52 26.37 C0.52 27.29 0.53 28.2 0.53 29.15 C0.54 30.15 0.54 31.16 0.55 32.2 C0.53 33.24 0.52 34.29 0.5 35.38 C0.52 36.42 0.53 37.46 0.55 38.53 C0.52 43.06 0.49 46.13 -1.76 50.11 C-6.04 53.72 -10.87 54.8 -16.38 55.31 C-19 55 -19 55 -22 53 C-22.29 50.18 -22.29 50.18 -22.19 46.88 C-22.16 45.78 -22.13 44.68 -22.11 43.55 C-22.07 42.71 -22.04 41.87 -22 41 C-19.09 39.74 -17.2 39 -14 39 C-14 41.97 -14 44.94 -14 48 C-11.53 47.5 -11.53 47.5 -9 47 C-8.5 38.09 -8.5 38.09 -8 29 C-9.98 29.5 -9.98 29.5 -12 30 C-18.49 30.34 -18.49 30.34 -22 28 C-22.69 24.46 -22.51 20.85 -22.5 17.25 C-22.53 16.26 -22.56 15.27 -22.59 14.25 C-22.61 6.07 -22.61 6.07 -19.79 2.42 C-17.08 0.07 -15.37 -1.04 -11.94 -1.94 C-11.1 -2.17 -10.26 -2.41 -9.4 -2.65 C-5.32 -3.24 -3.42 -2.28 0 0 Z " fill="#F6F5F2" transform="translate(139,292)"/>
<path d="M0 0 C0.78 0.04 1.57 0.08 2.38 0.12 C1.76 0.84 1.15 1.56 0.52 2.3 C-1.52 4.99 -2.7 7.23 -3.93 10.35 C-4.35 11.4 -4.77 12.46 -5.2 13.54 C-5.67 14.72 -6.14 15.91 -6.62 17.12 C-7.48 19.2 -8.33 21.26 -9.19 23.33 C-10.43 26.29 -11.65 29.26 -12.87 32.23 C-13.5 33.75 -14.14 35.28 -14.77 36.81 C-15.69 39.04 -16.62 41.28 -17.54 43.52 C-17.96 44.54 -17.96 44.54 -18.39 45.57 C-19.96 49.38 -21.36 53.21 -22.62 57.12 C-23.19 58.61 -23.78 60.09 -24.38 61.56 C-24.72 62.41 -25.06 63.25 -25.41 64.12 C-26.07 65.75 -26.73 67.38 -27.39 69.01 C-28.22 71.05 -29.05 73.09 -29.88 75.12 C-30.15 75.78 -30.42 76.44 -30.69 77.12 C-32.14 80.51 -32.14 80.51 -32.62 84.12 C-29.54 85.89 -28.39 86.12 -24.62 86.12 C-24.21 85.08 -23.8 84.04 -23.38 82.97 C-21.81 79.02 -20.23 75.08 -18.66 71.14 C-17.98 69.45 -17.31 67.76 -16.64 66.06 C-13.19 57.35 -9.64 48.76 -5.25 40.47 C-4.92 39.84 -4.58 39.21 -4.24 38.56 C-1.89 34.26 -1.89 34.26 0.38 33.12 C-3.21 44.06 -7.3 54.63 -12.25 65.03 C-14.04 69.06 -15.35 73.19 -16.69 77.39 C-18.28 82.04 -20.11 86.61 -23.62 90.12 C-33.7 89.92 -41.44 83.82 -48.79 77.5 C-51.17 74.42 -50.92 72.96 -50.62 69.12 C-49.73 66.25 -49.73 66.25 -48.46 63.27 C-48 62.16 -47.54 61.05 -47.07 59.91 C-46.57 58.74 -46.07 57.58 -45.56 56.38 C-44.55 53.94 -43.53 51.51 -42.52 49.07 C-42.02 47.89 -41.53 46.7 -41.01 45.48 C-39.19 41.07 -37.46 36.64 -35.75 32.19 C-33.16 25.45 -30.45 18.77 -27.62 12.12 C-27.3 11.37 -26.98 10.62 -26.65 9.84 C-25.98 8.27 -25.3 6.7 -24.62 5.12 C-25.94 4.79 -27.26 4.47 -28.62 4.12 C-24.92 1.75 -21.7 1.92 -17.38 2 C-16.11 2.02 -14.85 2.04 -13.55 2.05 C-12.58 2.08 -11.62 2.1 -10.62 2.12 C-10.62 2.78 -10.62 3.44 -10.62 4.12 C-13.93 4.46 -17.23 4.78 -20.62 5.12 C-27.25 20.1 -27.25 20.1 -32.74 35.52 C-33.99 39.21 -35.67 42.67 -37.33 46.19 C-39.3 50.65 -40.85 55.25 -42.41 59.86 C-43.62 63.12 -43.62 63.12 -45.27 66.23 C-46.69 69.26 -47.22 70.85 -46.62 74.12 C-45.02 76.2 -45.02 76.2 -42.81 77.88 C-42.1 78.47 -41.4 79.06 -40.67 79.67 C-38.59 81.3 -38.59 81.3 -35.62 82.12 C-35.51 81.44 -35.4 80.75 -35.28 80.04 C-34.52 76.68 -33.36 73.66 -32.08 70.46 C-31.83 69.83 -31.57 69.2 -31.31 68.54 C-30.78 67.21 -30.24 65.87 -29.7 64.53 C-28.89 62.53 -28.08 60.52 -27.28 58.51 C-24.58 51.77 -21.75 45.1 -18.7 38.5 C-17.22 35.24 -15.98 31.93 -14.75 28.56 C-14.25 27.2 -13.75 25.85 -13.24 24.49 C-12.85 23.44 -12.85 23.44 -12.46 22.36 C-10.95 18.32 -9.42 14.28 -7.88 10.25 C-7.58 9.47 -7.29 8.69 -6.98 7.89 C-4.02 0.19 -4.02 0.19 0 0 Z " fill="#757A81" transform="translate(317.625,191.875)"/>
<path d="M0 0 C0 1.98 0 3.96 0 6 C-1.44 6.51 -2.87 7 -4.31 7.5 C-5.51 7.92 -5.51 7.92 -6.74 8.34 C-9 9 -9 9 -12 9 C-12 14.94 -12 20.88 -12 27 C-10.35 26.34 -8.7 25.68 -7 25 C-4.19 24.88 -4.19 24.88 -2 25 C-2 26.98 -2 28.96 -2 31 C-5.3 31.66 -8.6 32.32 -12 33 C-12 39.27 -12 45.54 -12 52 C-9.36 51.01 -6.72 50.02 -4 49 C-2.68 49 -1.36 49 0 49 C0 50.98 0 52.96 0 55 C-2.96 55.84 -5.92 56.67 -8.88 57.5 C-9.72 57.74 -10.56 57.98 -11.43 58.22 C-12.63 58.56 -12.63 58.56 -13.87 58.91 C-14.61 59.12 -15.35 59.33 -16.12 59.54 C-18 60 -18 60 -20 60 C-20 41.85 -20 23.7 -20 5 C-4 0 -4 0 0 0 Z " fill="#F5F2E5" transform="translate(192,273)"/>
<path d="M0 0 C5.38 4.42 6.57 12.64 7.22 19.29 C7.36 21.65 7.42 24.01 7.44 26.38 C7.45 27.11 7.46 27.85 7.47 28.61 C7.37 34.57 6.37 40.63 2 45 C-3.43 44.88 -6.19 42.72 -10 39 C-13.56 34.97 -13.45 30.91 -13.27 25.75 C-12.42 17.04 -6.22 6.22 0 0 Z " fill="#C70536" transform="translate(207,210)"/>
<path d="M0 0 C0.99 0.66 1.98 1.32 3 2 C3.28 4.86 3.37 7.46 3.31 10.31 C3.32 11.45 3.32 11.45 3.32 12.62 C3.28 16.85 2.93 20.14 1 24 C-0.65 24 -2.3 24 -4 24 C-4.31 25.42 -4.31 25.42 -4.62 26.88 C-6 30 -6 30 -9 31.38 C-12 32 -12 32 -14 32 C-14.33 29.69 -14.66 27.38 -15 25 C-15.33 25.33 -15.66 25.66 -16 26 C-17.65 26 -19.3 26 -21 26 C-21.33 19.07 -21.66 12.14 -22 5 C-17.95 3.76 -17.95 3.76 -13.81 2.5 C-12.97 2.24 -12.13 1.98 -11.26 1.71 C-3.86 -0.51 -3.86 -0.51 0 0 Z " fill="#FEFBF2" transform="translate(46,315)"/>
<path d="M0 0 C0 1.98 0 3.96 0 6 C-2.31 6.66 -4.62 7.32 -7 8 C-7.33 24.17 -7.66 40.34 -8 57 C-10.64 57.66 -13.28 58.32 -16 59 C-16 43.16 -16 27.32 -16 11 C-18.31 11.33 -20.62 11.66 -23 12 C-23 10.02 -23 8.04 -23 6 C-19.73 4.99 -16.46 4 -13.19 3 C-12.26 2.71 -11.33 2.43 -10.37 2.13 C-9.48 1.86 -8.59 1.59 -7.67 1.31 C-6.85 1.06 -6.02 0.81 -5.18 0.55 C-3 0 -3 0 0 0 Z " fill="#FFF7E1" transform="translate(167,280)"/>
<path d="M0 0 C0.33 0 0.66 0 1 0 C1.01 0.94 1.03 1.88 1.04 2.85 C1.04 10.78 1.04 10.78 4.25 17.75 C9.47 22.02 14.22 22.5 20.8 22.38 C29.46 21.36 37.34 16.56 43 10 C44.35 7.66 45.16 5.58 46 3 C46.89 3.05 46.89 3.05 47.79 3.11 C52.88 3.28 55.71 2.99 60 0 C60.99 0.5 60.99 0.5 62 1 C58.33 4.28 54.71 7.27 50.56 9.94 C47.55 11.88 44.97 13.9 42.38 16.38 C36.73 21.49 29.76 24.62 23 28 C21.86 28.57 20.72 29.14 19.54 29.73 C18.7 30.15 17.86 30.57 17 31 C17.51 34.72 18.12 37.73 20 41 C16.81 41 16.81 41 13 40 C10.9 37.54 9.43 34.89 8 32 C9.32 31.34 10.64 30.68 12 30 C11.35 29.59 10.7 29.17 10.02 28.75 C4.27 24.95 -0.82 21.26 -4 15 C-5.06 9.06 -2.92 5.02 0 0 Z " fill="#840A29" transform="translate(167,93)"/>
<path d="M0 0 C0.22 1.02 0.44 2.03 0.66 3.08 C3.8 16.97 8.48 27.96 19 38 C19.99 38.5 19.99 38.5 21 39 C21 39.66 21 40.32 21 41 C9.79 35.91 4.33 23.67 -0.03 12.85 C-1.28 9.17 -1.78 5.87 -2 2 C-2.99 2 -3.98 2 -5 2 C-0.55 19.39 4.5 33.46 19 45 C18.01 45.5 18.01 45.5 17 46 C4.45 35.81 -2.98 22.69 -7 7 C-7 5.68 -7 4.36 -7 3 C-7.99 3 -8.98 3 -10 3 C-6.43 22 0.52 38.68 16 51 C15.5 51.99 15.5 51.99 15 53 C1.46 41.72 -9.72 25.82 -11.75 7.81 C-11.83 6.55 -11.91 5.3 -12 4 C-13.32 4.33 -14.64 4.66 -16 5 C-15.09 22.55 -5.84 40.32 6.58 52.54 C8.68 54.41 10.81 56.24 13 58 C12.5 58.99 12.5 58.99 12 60 C-4.48 46.02 -13.76 29.83 -19 9 C-19 8.01 -19 7.02 -19 6 C-20.65 6.33 -22.3 6.66 -24 7 C-21.28 3.32 -17.34 2.79 -13.12 1.81 C-12.42 1.64 -11.71 1.46 -10.98 1.28 C-7.26 0.38 -3.83 -0.22 0 0 Z " fill="#747980" transform="translate(267,161)"/>
<path d="M0 0 C0.33 0 0.66 0 1 0 C2.14 13.36 -1.7 27.34 -10 38 C-12.42 40.83 -14.73 43.19 -18 45 C-21.88 44.94 -21.88 44.94 -23.88 44.48 C-31.55 42.75 -39.46 44.39 -47 46 C-41.86 40.25 -34.19 38.98 -26.88 37.81 C-20.54 36.54 -17.49 34.58 -13.61 29.46 C-11.18 25.73 -8.99 21.98 -7 18 C-6.64 17.34 -6.28 16.69 -5.91 16.01 C-3.17 10.88 -1.52 5.6 0 0 Z " fill="#870929" transform="translate(267,66)"/>
<path d="M0 0 C0.8 0.03 1.6 0.05 2.42 0.08 C3.33 0.13 3.33 0.13 4.25 0.19 C3.96 0.86 3.67 1.53 3.36 2.22 C2.03 5.27 0.7 8.32 -0.62 11.38 C-1.09 12.43 -1.55 13.49 -2.02 14.57 C-2.46 15.59 -2.91 16.62 -3.37 17.67 C-3.78 18.61 -4.18 19.54 -4.6 20.51 C-4.98 21.39 -5.36 22.28 -5.75 23.19 C-6.15 24.06 -6.55 24.94 -6.96 25.84 C-8.05 28.3 -8.05 28.3 -6.75 31.19 C-13.68 32.67 -13.68 32.67 -20.75 34.19 C-19.61 27.32 -17.23 21.83 -14.44 15.5 C-13.95 14.36 -13.46 13.22 -12.96 12.04 C-12.48 10.95 -12.01 9.86 -11.51 8.74 C-11.08 7.74 -10.64 6.75 -10.2 5.73 C-7.63 1.22 -5.16 -0.23 0 0 Z " fill="#F8BE33" transform="translate(308.75,158.8125)"/>
<path d="M0 0 C0.95 0.04 1.9 0.08 2.88 0.12 C2.92 5.93 2.96 11.73 2.98 17.53 C2.99 19.51 3.01 21.48 3.03 23.46 C3.05 26.29 3.06 29.13 3.07 31.96 C3.08 32.85 3.09 33.73 3.1 34.65 C3.1 36.81 3 38.97 2.88 41.12 C0.88 43.12 0.88 43.12 -2.25 43.25 C-3.2 43.21 -4.15 43.17 -5.12 43.12 C-5.17 37.32 -5.21 31.52 -5.23 25.72 C-5.24 23.74 -5.26 21.77 -5.28 19.79 C-5.3 16.96 -5.31 14.12 -5.32 11.29 C-5.33 10.4 -5.34 9.52 -5.35 8.6 C-5.35 6.44 -5.25 4.28 -5.12 2.12 C-3.12 0.12 -3.12 0.12 0 0 Z " fill="#1E242B" transform="translate(69.125,313.875)"/>
<path d="M0 0 C0.29 2.82 0.29 2.82 0.19 6.12 C0.16 7.22 0.13 8.32 0.11 9.45 C0.07 10.29 0.04 11.13 0 12 C-2.64 12.66 -5.28 13.32 -8 14 C-8 11.03 -8 8.06 -8 5 C-10 4.96 -12 4.96 -14 5 C-15.88 6.88 -15.13 9.54 -15.14 12.03 C-15.13 12.83 -15.13 13.62 -15.12 14.44 C-15.13 15.23 -15.13 16.02 -15.14 16.83 C-15.24 21.05 -15.24 21.05 -14 25 C-15.65 25 -17.3 25 -19 25 C-18.67 26.65 -18.34 28.3 -18 30 C-19.32 29.34 -20.64 28.68 -22 28 C-22.15 24.46 -22.23 20.92 -22.31 17.38 C-22.35 16.38 -22.4 15.38 -22.44 14.35 C-22.58 6 -22.58 6 -19.8 2.41 C-17.09 0.07 -15.36 -1.04 -11.94 -1.94 C-11.1 -2.17 -10.26 -2.41 -9.4 -2.65 C-5.32 -3.24 -3.42 -2.28 0 0 Z " fill="#F4F1E7" transform="translate(139,292)"/>
<path d="M0 0 C-1.98 0.33 -3.96 0.66 -6 1 C-5.67 12.22 -5.34 23.44 -5 35 C-4.01 34.5 -4.01 34.5 -3 34 C-2.59 31.68 -2.26 29.34 -2 27 C0 29 0 29 0.23 30.88 C0.21 31.99 0.21 31.99 0.2 33.13 C0.19 34.34 0.19 34.34 0.18 35.57 C0.16 36.42 0.14 37.26 0.12 38.12 C0.11 39.4 0.11 39.4 0.1 40.7 C0.07 42.8 0.04 44.9 0 47 C0.53 46.78 1.06 46.57 1.61 46.34 C2.32 46.07 3.02 45.79 3.75 45.5 C4.45 45.22 5.14 44.94 5.86 44.66 C8 44 8 44 12 44 C12 45.98 12 47.96 12 50 C9.04 50.84 6.08 51.67 3.12 52.5 C2.28 52.74 1.44 52.98 0.57 53.22 C-0.63 53.56 -0.63 53.56 -1.87 53.91 C-2.61 54.12 -3.35 54.33 -4.12 54.54 C-6 55 -6 55 -8 55 C-8 36.85 -8 18.7 -8 0 C-4.3 -0.93 -3.37 -1.08 0 0 Z " fill="#F5F5F4" transform="translate(180,278)"/>
<path d="M0 0 C1.65 0 3.3 0 5 0 C5 13.86 5 27.72 5 42 C3.02 42.66 1.04 43.32 -1 44 C-3.14 41.86 -2.16 36.97 -2.17 34 C-2.17 33.1 -2.17 32.2 -2.18 31.26 C-2.18 29.35 -2.19 27.43 -2.19 25.52 C-2.19 22.58 -2.21 19.64 -2.22 16.7 C-2.23 14.84 -2.23 12.99 -2.23 11.13 C-2.24 10.25 -2.24 9.36 -2.25 8.45 C-2.23 2.23 -2.23 2.23 0 0 Z " fill="#161B22" transform="translate(97,305)"/>
<path d="M0 0 C1.52 3.05 1.24 5.64 1 9 C-0.5 10.94 -0.5 10.94 -2 12 C-2.66 11.34 -3.32 10.68 -4 10 C-4.33 22.21 -4.66 34.42 -5 47 C-5.33 47 -5.66 47 -6 47 C-6 33.47 -6 19.94 -6 6 C-9.79 4.59 -9.79 4.59 -12.21 6.13 C-14.47 8.49 -14.53 9.66 -14.61 12.89 C-14.64 13.82 -14.67 14.76 -14.71 15.73 C-14.73 17.19 -14.73 17.19 -14.75 18.69 C-14.78 19.68 -14.81 20.66 -14.84 21.68 C-14.91 24.12 -14.96 26.56 -15 29 C-16.32 29.33 -17.64 29.66 -19 30 C-19 28.68 -19 27.36 -19 26 C-19.66 26 -20.32 26 -21 26 C-21.19 22.96 -21.33 19.92 -21.44 16.88 C-21.5 16.02 -21.55 15.16 -21.62 14.28 C-21.78 8.05 -21.78 8.05 -19.59 5.11 C-16.35 2.21 -13.03 0.18 -8.81 -1 C-7.99 -1.25 -7.18 -1.5 -6.33 -1.75 C-3.53 -2.05 -2.32 -1.56 0 0 Z " fill="#FDF8E9" transform="translate(108,299)"/>
<path d="M0 0 C1.79 3.59 0.98 7.22 0 11 C-1.83 14.52 -4.08 17.64 -6.44 20.81 C-7.63 22.46 -8.81 24.12 -10 25.77 C-10.79 26.85 -10.79 26.85 -11.6 27.94 C-12.93 29.9 -14 31.85 -15 34 C-14.53 34.47 -14.06 34.94 -13.57 35.43 C-9.29 39.71 -9.29 39.71 -5 44 C-9.88 42.29 -13.38 39.55 -17.4 36.36 C-20.7 34.63 -22.47 35.07 -26 36 C-25.39 32.7 -24.27 30.74 -22.19 28.13 C-21.61 27.4 -21.04 26.66 -20.44 25.91 C-19.82 25.13 -19.2 24.36 -18.56 23.56 C-17.29 21.95 -16.02 20.34 -14.74 18.73 C-14.11 17.93 -13.48 17.13 -12.83 16.31 C-10.25 13.05 -7.71 9.75 -5.19 6.44 C-1.11 1.11 -1.11 1.11 0 0 Z " fill="#F9C33A" transform="translate(228,328)"/>
<path d="M0 0 C-1.45 0.43 -1.45 0.43 -2.94 0.88 C-6.11 1.64 -6.11 1.64 -7 4 C-6.24 3.67 -5.47 3.34 -4.69 3 C-2 2 -2 2 1 2 C1 13.55 1 25.1 1 37 C2.49 36.5 2.49 36.5 4 36 C5.23 32.99 5.23 32.99 6 30 C6.33 30 6.66 30 7 30 C7 36.93 7 43.86 7 51 C4.36 51.66 1.72 52.32 -1 53 C-1 37.16 -1 21.32 -1 5 C-3.31 5.33 -5.62 5.66 -8 6 C-8 4.02 -8 2.04 -8 0 C-4.95 -0.98 -3.05 -0.98 0 0 Z " fill="#E4E5E6" transform="translate(152,286)"/>
<path d="M0 0 C3.59 1.62 6.59 3.79 9.75 6.12 C10.73 6.85 11.72 7.57 12.73 8.32 C13.48 8.87 14.23 9.43 15 10 C14.61 10.45 14.23 10.89 13.83 11.36 C12.75 12.61 11.67 13.87 10.59 15.14 C9.34 16.6 8.08 18.05 6.81 19.5 C4.6 22.55 3.37 25.5 2 29 C-1.84 25.16 -1.13 19.38 -1.14 14.22 C-1.13 13.43 -1.13 12.63 -1.12 11.81 C-1.13 11.01 -1.13 10.2 -1.14 9.37 C-1.14 8.59 -1.13 7.82 -1.13 7.02 C-1.13 6.32 -1.13 5.62 -1.13 4.9 C-1 3 -1 3 0 0 Z " fill="#D78529" transform="translate(266,274)"/>
<path d="M0 0 C0.06 3.62 0.09 7.25 0.12 10.88 C0.14 11.91 0.16 12.94 0.18 14 C0.18 14.99 0.19 15.98 0.2 16.99 C0.21 17.9 0.22 18.81 0.23 19.75 C0 22 0 22 -2 24 C-4.31 24.33 -6.62 24.66 -9 25 C-9 17.41 -9 9.82 -9 2 C-4 0 -4 0 0 0 Z " fill="#191E25" transform="translate(41,322)"/>
<path d="M0 0 C0.66 0.33 1.32 0.66 2 1 C-0.51 3.6 -2.99 5.99 -6 8 C-6.66 8 -7.32 8 -8 8 C-8.33 8.99 -8.66 9.98 -9 11 C-11.47 13.55 -14.25 15.75 -17 18 C-17.65 18.53 -18.29 19.06 -18.96 19.61 C-23.33 23.06 -27.82 25.54 -32.9 27.82 C-35.3 28.96 -35.3 28.96 -37 32 C-36.01 32.33 -35.02 32.66 -34 33 C-36.62 33.81 -36.62 33.81 -40 34 C-43.38 31.94 -43.38 31.94 -46 29 C-46.66 24.85 -46.35 23.53 -44 20 C-42 21 -40 22 -38 23 C-31.74 23.89 -28.62 23.19 -23.44 19.5 C-19.32 16.26 -15.67 12.75 -12.06 8.96 C-8.41 5.48 -4.21 2.76 0 0 Z " fill="#334152" transform="translate(219,116)"/>
<path d="M0 0 C0.99 0.33 1.98 0.66 3 1 C3 12.55 3 24.1 3 36 C3.66 36 4.32 36 5 36 C5.33 33.69 5.66 31.38 6 29 C6.33 29 6.66 29 7 29 C7.33 36.92 7.66 44.84 8 53 C5.36 53.33 2.72 53.66 0 54 C0 36.18 0 18.36 0 0 Z " fill="#FBFAF4" transform="translate(198,271)"/>
<path d="M0 0 C1.86 2.8 3.33 5.65 4.82 8.65 C9.47 17.89 14.97 25.44 22 33 C19.9 35.1 18.62 35.65 15.88 36.62 C14.79 37.02 14.79 37.02 13.68 37.41 C12.85 37.7 12.85 37.7 12 38 C8.1 30.66 5.61 22.99 3.19 15.06 C2.87 14.04 2.56 13.02 2.24 11.97 C0.97 7.76 0 4.43 0 0 Z " fill="#334152" transform="translate(241,190)"/>
<path d="M0 0 C0.66 0 1.32 0 2 0 C1.4 4.19 0.43 8.01 -1 12 C-0.26 12.06 0.49 12.12 1.25 12.19 C4.82 13.24 5.92 15 8 18 C3.25 17.12 3.25 17.12 1 16 C0.34 16.66 -0.32 17.32 -1 18 C-1 18.66 -1 19.32 -1 20 C-1.99 20 -2.98 20 -4 20 C-4.1 20.68 -4.21 21.36 -4.31 22.06 C-5.15 25.63 -6.49 28.66 -8 32 C-8.99 31.67 -9.98 31.34 -11 31 C-11.09 25.85 -10.83 21.1 -10 16 C-9.81 14.7 -9.63 13.4 -9.44 12.06 C-9.29 11.05 -9.15 10.04 -9 9 C-8.67 9.66 -8.34 10.32 -8 11 C-6.68 11 -5.36 11 -4 11 C-3.9 10.3 -3.79 9.6 -3.69 8.88 C-2.91 5.61 -1.58 2.95 0 0 Z " fill="#1F2028" transform="translate(332,91)"/>
<path d="M0 0 C0.33 0 0.66 0 1 0 C1.33 6.6 1.66 13.2 2 20 C-7 23.38 -7 23.38 -12 24 C-9 15.31 -5.52 7.41 0 0 Z " fill="#364051" transform="translate(167,237)"/>
<path d="M0 0 C1 1 1 1 1.1 4.16 C1.09 5.45 1.07 6.74 1.06 8.06 C1.05 9.35 1.04 10.64 1.04 11.97 C1.02 12.97 1.01 13.97 1 15 C0.34 14.01 -0.32 13.02 -1 12 C-1.66 12.66 -2.32 13.32 -3 14 C-3.33 11.03 -3.66 8.06 -4 5 C-8.23 3.53 -8.23 3.53 -13 6 C-13.33 11.94 -13.66 17.88 -14 24 C-14.33 23.01 -14.66 22.02 -15 21 C-15.66 21 -16.32 21 -17 21 C-17.33 22.32 -17.66 23.64 -18 25 C-18 18.07 -18 11.14 -18 4 C-5.63 -0.4 -5.63 -0.4 0 0 Z " fill="#FFCB5B" transform="translate(218,268)"/>
<path d="M0 0 C0 4.62 0 9.24 0 14 C-0.99 13.67 -1.98 13.34 -3 13 C-3.33 13.66 -3.66 14.32 -4 15 C-4.33 11.7 -4.66 8.4 -5 5 C-5.66 5 -6.32 5 -7 5 C-7.99 4.96 -8.98 4.92 -10 4.88 C-13.12 4.67 -13.12 4.67 -15 7 C-15.46 9.89 -15.46 9.89 -15.62 13.12 C-15.7 14.22 -15.77 15.32 -15.85 16.45 C-15.9 17.29 -15.95 18.13 -16 19 C-17.32 19 -18.64 19 -20 19 C-20.61 8.36 -20.61 8.36 -18.62 3.94 C-12.62 -0.49 -7.27 -1.21 0 0 Z " fill="#FDEDC7" transform="translate(78,309)"/>
<path d="M0 0 C0 0.99 0 1.98 0 3 C-3.96 3.99 -7.92 4.98 -12 6 C-12 12.93 -12 19.86 -12 27 C-8.7 26.34 -5.4 25.68 -2 25 C-2.33 25.99 -2.66 26.98 -3 28 C-4.42 28.17 -5.83 28.34 -7.25 28.5 C-8.04 28.59 -8.83 28.69 -9.64 28.78 C-12 29 -12 29 -16 29 C-16 20.75 -16 12.5 -16 4 C-13.73 3.34 -11.46 2.68 -9.12 2 C-8.06 1.69 -8.06 1.69 -6.97 1.37 C-2.22 0 -2.22 0 0 0 Z " fill="#FFE7B3" transform="translate(190,275)"/>
<path d="M0 0 C0.33 0.66 0.66 1.32 1 2 C0.67 2.66 0.34 3.32 0 4 C0.66 4 1.32 4 2 4 C-0.34 11.69 -3.95 19.15 -9.88 24.69 C-13.9 26.38 -17.66 26.81 -22 27 C-21.34 26.36 -20.68 25.72 -20 25.06 C-17.57 22.64 -15.32 20.09 -13.06 17.5 C-9.93 13.93 -6.69 10.97 -3 8 C-2.67 7.34 -2.34 6.68 -2 6 C-2.66 5.67 -3.32 5.34 -4 5 C-2.68 3.35 -1.36 1.7 0 0 Z " fill="#D48629" transform="translate(216,177)"/>
<path d="M0 0 C0.09 3.12 0.14 6.25 0.19 9.38 C0.23 10.71 0.23 10.71 0.26 12.07 C0.28 13.35 0.28 13.35 0.29 14.65 C0.31 15.43 0.32 16.22 0.34 17.03 C0.23 17.68 0.12 18.33 0 19 C-3 21 -3 21 -7 21 C-7 14.4 -7 7.8 -7 1 C-4 0 -4 0 0 0 Z " fill="#191F26" transform="translate(213,273)"/>
<path d="M0 0 C2.69 0.31 2.69 0.31 5 1 C4.45 5.45 3.35 8.86 1.25 12.81 C0.76 13.77 0.27 14.72 -0.23 15.71 C-2 18 -2 18 -4.64 18.89 C-5.42 18.92 -6.2 18.96 -7 19 C-8 18 -8 18 -8.38 15.5 C-7.75 9.71 -4.6 3.72 0 0 Z " fill="#D3872A" transform="translate(227,245)"/>
<path d="M0 0 C1 3 1 3 0.29 4.77 C-0.07 5.44 -0.44 6.12 -0.81 6.81 C-3.73 12.92 -4.28 19.34 -5 26 C-6.88 26.62 -6.88 26.62 -9 27 C-11.59 24.41 -11.45 23.11 -11.62 19.5 C-11.54 12.05 -8.08 8.12 -3 3 C-2.13 2.12 -2.13 2.12 -1.24 1.22 C-0.83 0.82 -0.42 0.42 0 0 Z " fill="#C90536" transform="translate(190,225)"/>
<path d="M0 0 C0 3.63 0 7.26 0 11 C-1.32 11 -2.64 11 -4 11 C-4 8.69 -4 6.38 -4 4 C-5.3 4.14 -6.6 4.29 -7.94 4.44 C-8.67 4.52 -9.4 4.6 -10.15 4.68 C-12.01 4.82 -12.01 4.82 -13 6 C-13.23 8.02 -13.41 10.04 -13.56 12.06 C-13.65 13.17 -13.73 14.27 -13.82 15.41 C-13.88 16.26 -13.94 17.12 -14 18 C-14.33 17.34 -14.66 16.68 -15 16 C-15.66 16 -16.32 16 -17 16 C-17.33 16.66 -17.66 17.32 -18 18 C-18.91 7.48 -18.91 7.48 -16.88 4.16 C-11.68 -0.29 -6.54 -1.56 0 0 Z " fill="#FCDF9F" transform="translate(137,292)"/>
<path d="M0 0 C-0.57 0.27 -1.14 0.53 -1.73 0.81 C-15.66 8.12 -21.23 19.68 -26 34 C-26.66 34 -27.32 34 -28 34 C-27.77 23.03 -24.46 14.82 -16.96 6.76 C-12.02 2.32 -6.82 -0.87 0 0 Z " fill="#D48228" transform="translate(187,152)"/>
<path d="M0 0 C0.66 0.33 1.32 0.66 2 1 C1.92 3.7 1.48 5.48 -0.38 7.49 C-1.24 8.28 -1.24 8.28 -2.12 9.09 C-6.31 13.16 -9.59 17.67 -12.94 22.44 C-13.53 23.26 -14.11 24.09 -14.72 24.94 C-16.15 26.96 -17.58 28.98 -19 31 C-20.37 26.88 -19.14 25.49 -17.25 21.62 C-13.58 14.3 -7.55 3.77 0 0 Z " fill="#344252" transform="translate(312,286)"/>
<path d="M0 0 C1.73 1.21 1.73 1.21 2.73 3.21 C3.2 9.61 3.2 9.61 1.23 12.15 C0.74 12.5 0.24 12.85 -0.27 13.21 C-0.93 12.55 -1.59 11.89 -2.27 11.21 C-2.6 23.42 -2.93 35.63 -3.27 48.21 C-3.6 48.21 -3.93 48.21 -4.27 48.21 C-4.27 34.68 -4.27 21.15 -4.27 7.21 C-4.93 6.88 -5.59 6.55 -6.27 6.21 C-4.95 6.21 -3.63 6.21 -2.27 6.21 C-2.27 5.55 -2.27 4.89 -2.27 4.21 C-4.18 4.27 -4.18 4.27 -6.14 4.34 C-8.32 4.41 -8.32 4.41 -10.27 4.21 C-10.93 3.55 -11.59 2.89 -12.27 2.21 C-10.69 1.65 -9.1 1.11 -7.52 0.59 C-6.63 0.28 -5.75 -0.02 -4.84 -0.33 C-2.27 -0.79 -2.27 -0.79 0 0 Z " fill="#C9C1AC" transform="translate(106.265625,297.7890625)"/>
<path d="M0 0 C0.96 2.88 1.11 4.7 1.06 7.69 C1.05 8.5 1.04 9.3 1.04 10.14 C1.02 10.75 1.01 11.37 1 12 C-0.32 12 -1.64 12 -3 12 C-3.66 10.02 -4.32 8.04 -5 6 C-7.13 6.28 -9.25 6.58 -11.38 6.88 C-13.15 7.12 -13.15 7.12 -14.96 7.37 C-18.1 7.73 -18.1 7.73 -20 10 C-20 8.68 -20 7.36 -20 6 C-20.66 5.67 -21.32 5.34 -22 5 C-19.27 4.16 -16.54 3.33 -13.81 2.5 C-12.66 2.14 -12.66 2.14 -11.48 1.78 C-7.56 0.6 -4.15 -0.33 0 0 Z " fill="#F3EAD2" transform="translate(46,315)"/>
<path d="M0 0 C0.33 0 0.66 0 1 0 C1 6.93 1 13.86 1 21 C-1.31 21.33 -3.62 21.66 -6 22 C-6.03 20.06 -6.05 18.13 -6.06 16.19 C-6.07 15.11 -6.09 14.03 -6.1 12.92 C-6 10 -6 10 -5 7 C-4.01 6.67 -3.02 6.34 -2 6 C-0.77 2.99 -0.77 2.99 0 0 Z " fill="#FEFEFE" transform="translate(158,316)"/>
<path d="M0 0 C0 0.99 0 1.98 0 3 C-2.31 3.66 -4.62 4.32 -7 5 C-7.33 9.62 -7.66 14.24 -8 19 C-9.32 18.67 -10.64 18.34 -12 18 C-12 14.04 -12 10.08 -12 6 C-13.65 6.66 -15.3 7.32 -17 8 C-17.99 8 -18.98 8 -20 8 C-19.67 7.01 -19.34 6.02 -19 5 C-16.17 3.95 -13.46 3.09 -10.56 2.31 C-9.77 2.09 -8.98 1.86 -8.17 1.63 C-2.36 0 -2.36 0 0 0 Z " fill="#FFD67E" transform="translate(165,282)"/>
<path d="M0 0 C0.33 0 0.66 0 1 0 C1.48 7.74 0.91 14.61 -0.88 22.12 C-1.05 22.86 -1.22 23.59 -1.4 24.35 C-2.24 27.69 -3.07 30.11 -5 33 C-7.46 25.61 -5.76 19.77 -3.02 12.83 C-1.51 8.65 -0.72 4.38 0 0 Z " fill="#334151" transform="translate(228,194)"/>
<path d="M0 0 C0.66 0 1.32 0 2 0 C1.4 4.19 0.43 8.01 -1 12 C-0.26 12.06 0.49 12.12 1.25 12.19 C4.82 13.24 5.92 15 8 18 C4.63 17.45 2.92 16.95 0 15 C-2.32 14.61 -4.66 14.27 -7 14 C-6.67 13.01 -6.34 12.02 -6 11 C-5.34 11 -4.68 11 -4 11 C-3.9 10.3 -3.79 9.6 -3.69 8.88 C-2.91 5.61 -1.58 2.95 0 0 Z " fill="#777C83" transform="translate(332,91)"/>
<path d="M0 0 C0 0.99 0 1.98 0 3 C-3.96 3.99 -7.92 4.98 -12 6 C-12 9.3 -12 12.6 -12 16 C-12.33 14.68 -12.66 13.36 -13 12 C-13.66 12 -14.32 12 -15 12 C-15.33 13.32 -15.66 14.64 -16 16 C-16 12.04 -16 8.08 -16 4 C-13.71 3.33 -11.42 2.66 -9.12 2 C-8.47 1.81 -7.82 1.62 -7.15 1.42 C-2.23 0 -2.23 0 0 0 Z " fill="#FFD06B" transform="translate(190,275)"/>
<path d="M0 0 C0.66 0 1.32 0 2 0 C1.01 3.3 0.02 6.6 -1 10 C-0.07 10.27 0.86 10.54 1.81 10.81 C4.76 11.91 6.15 12.53 8 15 C8 15.66 8 16.32 8 17 C5.04 16.39 3.62 15.75 1 14 C-1.32 13.61 -3.66 13.27 -6 13 C-6 12.01 -6 11.02 -6 10 C-5.34 10 -4.68 10 -4 10 C-3.8 9.36 -3.59 8.72 -3.38 8.07 C-3.11 7.24 -2.84 6.41 -2.56 5.56 C-2.3 4.74 -2.03 3.92 -1.75 3.07 C-1 1 -1 1 0 0 Z " fill="#767C82" transform="translate(318,127)"/>
<path d="M0 0 C0.99 0 1.98 0 3 0 C2.57 1.44 2.13 2.88 1.69 4.31 C1.44 5.11 1.2 5.91 0.95 6.74 C-0.04 9.1 -1.08 10.34 -3 12 C-2.67 12.66 -2.34 13.32 -2 14 C-5.38 14.62 -5.38 14.62 -9 15 C-9.66 14.34 -10.32 13.68 -11 13 C-10.01 13 -9.02 13 -8 13 C-7.01 9.7 -6.02 6.4 -5 3 C-4.67 3 -4.34 3 -4 3 C-4 4.98 -4 6.96 -4 9 C-2.68 6.03 -1.36 3.06 0 0 Z " fill="#212028" transform="translate(313,143)"/>
<path d="M0 0 C0.89 0.01 1.78 0.02 2.7 0.03 C3.38 0.04 4.05 0.05 4.75 0.06 C3.76 0.39 2.77 0.72 1.75 1.06 C1.75 1.72 1.75 2.38 1.75 3.06 C0.39 2.97 0.39 2.97 -1 2.88 C-4.62 3.08 -5.84 3.38 -8.25 6.06 C-9.06 9.16 -9.06 9.16 -9.25 12.06 C-10.24 11.73 -11.23 11.4 -12.25 11.06 C-12.58 11.72 -12.91 12.38 -13.25 13.06 C-13.74 5.74 -13.74 5.74 -11.5 2.62 C-7.77 0.04 -4.46 -0.06 0 0 Z " fill="#FFE5AB" transform="translate(102.25,300.9375)"/>
<path d="M0 0 C2.12 0.38 2.12 0.38 4 1 C3.39 1.98 3.39 1.98 2.76 2.98 C-0.06 7.55 -2.62 11.76 -4 17 C-4.99 17 -5.98 17 -7 17 C-7.78 10.95 -5.23 6.89 -2 2 C-1.34 1.34 -0.68 0.68 0 0 Z " fill="#F6C033" transform="translate(226,246)"/>
<path d="M0 0 C0.33 0 0.66 0 1 0 C1.09 3.46 1.14 6.92 1.19 10.38 C1.23 11.85 1.23 11.85 1.26 13.36 C1.27 14.3 1.28 15.24 1.29 16.21 C1.31 17.08 1.32 17.95 1.34 18.85 C1.23 19.56 1.12 20.27 1 21 C-0.49 21.99 -0.49 21.99 -2 23 C-2.66 22.67 -3.32 22.34 -4 22 C-4.08 20.4 -4.14 18.79 -4.19 17.19 C-4.22 16.29 -4.26 15.4 -4.29 14.48 C-3.94 11.48 -3.11 11.02 -1 9 C-0.43 6.73 -0.43 6.73 -0.31 4.31 C-0.21 3.1 -0.21 3.1 -0.11 1.86 C-0.08 1.25 -0.04 0.63 0 0 Z " fill="#FFE1A1" transform="translate(219,270)"/>
<path d="M0 0 C0.66 0.33 1.32 0.66 2 1 C0.21 4.19 -1.6 7.23 -4 10 C-7.38 10.56 -7.38 10.56 -10 10 C-10.33 9.01 -10.66 8.02 -11 7 C-10.37 6.66 -9.75 6.32 -9.1 5.98 C-8.28 5.53 -7.47 5.08 -6.62 4.62 C-5.41 3.96 -5.41 3.96 -4.16 3.29 C-1.89 2.06 -1.89 2.06 0 0 Z " fill="#E5E6E8" transform="translate(215,144)"/>
<path d="M0 0 C0.66 0 1.32 0 2 0 C-0.03 5.14 -2.25 10.2 -4.5 15.25 C-4.9 16.17 -5.31 17.1 -5.72 18.05 C-6.11 18.92 -6.5 19.8 -6.91 20.7 C-7.44 21.9 -7.44 21.9 -7.98 23.13 C-9 25 -9 25 -11 26 C-9.17 19.98 -6.89 14.26 -4.38 8.5 C-4.06 7.78 -3.75 7.06 -3.43 6.32 C-1.13 1.13 -1.13 1.13 0 0 Z " fill="#262228" transform="translate(312,160)"/>
<path d="M0 0 C0 1.98 0 3.96 0 6 C-2.64 6.66 -5.28 7.32 -8 8 C-8.33 7.34 -8.66 6.68 -9 6 C-5.53 5.5 -5.53 5.5 -2 5 C-2 4.01 -2 3.02 -2 2 C-2.58 2.22 -3.16 2.43 -3.76 2.66 C-8.33 4.28 -12.08 5.38 -17 5 C-14.04 3.03 -11.9 2.28 -8.5 1.38 C-7.54 1.11 -6.58 0.85 -5.59 0.59 C-3 0 -3 0 0 0 Z " fill="#D9DBDA" transform="translate(167,280)"/>
<path d="M0 0 C4.03 3.47 4.88 7.96 6 13 C6.19 16.62 6.19 16.62 6 19 C3.7 16.7 3.39 15.35 2.56 12.25 C1.42 8.23 0.03 4.67 -2 1 C-1.34 0.67 -0.68 0.34 0 0 Z " fill="#354354" transform="translate(246,233)"/>
<path d="M0 0 C0.66 0 1.32 0 2 0 C3.11 5.83 3.27 8.77 0 14 C-0.33 14 -0.66 14 -1 14 C-1.03 11.85 -1.05 9.71 -1.06 7.56 C-1.07 6.37 -1.09 5.17 -1.1 3.94 C-1 1 -1 1 0 0 Z " fill="#F8C333" transform="translate(266,276)"/>
<path d="M0 0 C0.66 0 1.32 0 2 0 C0.7 4.9 -0.92 9.38 -3 14 C-3.99 13.67 -4.98 13.34 -6 13 C-5.19 11.02 -4.38 9.04 -3.56 7.06 C-3.11 5.96 -2.66 4.86 -2.19 3.72 C-1 1 -1 1 0 0 Z " fill="#767C82" transform="translate(327,109)"/>
<path d="M0 0 C-0.33 1.98 -0.66 3.96 -1 6 C-3.31 6.66 -5.62 7.32 -8 8 C-8.66 7.34 -9.32 6.68 -10 6 C-9.34 6 -8.68 6 -8 6 C-7.67 4.35 -7.34 2.7 -7 1 C-6.67 1.66 -6.34 2.32 -6 3 C-5.57 2.5 -5.13 2.01 -4.69 1.5 C-3 0 -3 0 0 0 Z " fill="#49474F" transform="translate(339,84)"/>
<path d="M0 0 C0.99 0.33 1.98 0.66 3 1 C3 4.3 3 7.6 3 11 C2.67 10.01 2.34 9.02 2 8 C1.34 8 0.68 8 0 8 C-0.33 9.32 -0.66 10.64 -1 12 C-1.03 10.38 -1.05 8.75 -1.06 7.12 C-1.07 6.22 -1.09 5.32 -1.1 4.38 C-1 2 -1 2 0 0 Z " fill="#FFDA8D" transform="translate(201,281)"/>
<path d="M0 0 C0.99 0 1.98 0 3 0 C2.52 1.46 2.04 2.92 1.56 4.38 C1.3 5.19 1.03 6 0.75 6.84 C0 9 0 9 -1 11 C-1.99 11 -2.98 11 -4 11 C-3.52 9.35 -3.04 7.71 -2.56 6.06 C-2.3 5.15 -2.03 4.23 -1.75 3.29 C-1 1 -1 1 0 0 Z " fill="#73787F" transform="translate(313,143)"/>
<path d="M0 0 C0.66 0.33 1.32 0.66 2 1 C2 3.64 2 6.28 2 9 C0.68 8.67 -0.64 8.34 -2 8 C-2 5.69 -2 3.38 -2 1 C-1.34 0.67 -0.68 0.34 0 0 Z " fill="#FFE2A3" transform="translate(155,292)"/>
<path d="M0 0 C0 1.98 0 3.96 0 6 C-0.66 5.01 -1.32 4.02 -2 3 C-3.05 3.25 -3.05 3.25 -4.12 3.51 C-5.48 3.81 -5.48 3.81 -6.88 4.12 C-7.78 4.33 -8.68 4.54 -9.62 4.76 C-10.4 4.84 -11.19 4.92 -12 5 C-12.66 4.34 -13.32 3.68 -14 3 C-12.42 2.49 -10.83 1.99 -9.25 1.5 C-7.93 1.08 -7.93 1.08 -6.58 0.66 C-4 0 -4 0 0 0 Z " fill="#CFD0CF" transform="translate(192,273)"/>
<path d="M0 0 C0 0.33 0 0.66 0 1 C-2.1 1.7 -4.21 2.38 -6.31 3.06 C-7.48 3.45 -8.66 3.83 -9.86 4.22 C-13 5 -13 5 -16 4 C-11.26 0.84 -5.69 -2.28 0 0 Z " fill="#D9DAD9" transform="translate(136,290)"/>
<path d="M0 0 C2.62 0.38 2.62 0.38 5 1 C5 1.66 5 2.32 5 3 C4.24 3.29 3.47 3.58 2.69 3.88 C-0.15 4.96 -0.15 4.96 -3 7 C-2.25 2.25 -2.25 2.25 0 0 Z " fill="#191C28" transform="translate(184,159)"/>
<path d="M0 0 C-0.54 0.25 -1.07 0.5 -1.62 0.75 C-4.56 2.3 -7.26 4.13 -10 6 C-10.66 5.67 -11.32 5.34 -12 5 C-12 4.34 -12 3.68 -12 3 C-7.77 0.58 -4.88 -0.35 0 0 Z " fill="#B97729" transform="translate(187,152)"/>
<path d="M0 0 C0 0.66 0 1.32 0 2 C-3.3 2.66 -6.6 3.32 -10 4 C-7 0 -7 0 -5 -0.81 C-3 -1 -3 -1 0 0 Z " fill="#D48429" transform="translate(192,162)"/>
<path d="M0 0 C0.33 0.99 0.66 1.98 1 3 C-0.27 3.51 -1.54 4 -2.81 4.5 C-3.87 4.92 -3.87 4.92 -4.96 5.34 C-7 6 -7 6 -10 6 C-10 5.34 -10 4.68 -10 4 C-6.7 3.34 -3.4 2.68 0 2 C0 1.34 0 0.68 0 0 Z " fill="#EBEAE5" transform="translate(190,276)"/>
<path d="M0 0 C0.99 0 1.98 0 3 0 C3 2 3 2 1.12 4.12 C-1 6 -1 6 -3 6 C-2.43 3.13 -2.14 2.14 0 0 Z " fill="#880A2B" transform="translate(190,190)"/>
</svg>
