<?xml version="1.0" encoding="UTF-8"?>
<svg version="1.1" xmlns="http://www.w3.org/2000/svg" width="50" height="50">
<path d="M0 0 C0.66 0 1.32 0 2 0 C2.19916016 1.03060547 2.19916016 1.03060547 2.40234375 2.08203125 C2.57894531 2.98308594 2.75554688 3.88414063 2.9375 4.8125 C3.11152344 5.70582031 3.28554688 6.59914063 3.46484375 7.51953125 C3.97741153 10.11397171 3.97741153 10.11397171 5 13 C5.66 11.35 6.32 9.7 7 8 C8.32 8.33 9.64 8.66 11 9 C11 10.65 11 12.3 11 14 C10.34 14 9.68 14 9 14 C9.31201674 16.04174058 9.62463569 18.08338913 9.9375 20.125 C10.11152344 21.26195313 10.28554688 22.39890625 10.46484375 23.5703125 C10.80687004 25.76227658 11.19456516 27.94791195 11.640625 30.12109375 C12.53576639 37.29195466 8.72215307 44.09589512 5 50 C-2.6056338 50.91267606 -2.6056338 50.91267606 -5.93359375 48.734375 C-7.5625 47.125 -7.5625 47.125 -10 44 C-10 43.34 -10 42.68 -10 42 C-10.68964844 42.34933594 -11.37929688 42.69867188 -12.08984375 43.05859375 C-18.22120059 46.0275498 -23.19154148 47.66515778 -30 48 C-30 43.38 -30 38.76 -30 34 C-25.03739743 32.08460953 -20.13373162 30.39038565 -15 29 C-14.15465805 26.3583064 -14 24.31517226 -14 21.5 C-14 18.61424448 -13.72412113 16.71545422 -13 14 C-13.0825 13.175 -13.165 12.35 -13.25 11.5 C-13 9 -13 9 -10.875 6.8125 C-7.96067269 4.9752067 -5.24958304 4.08319435 -2 3 C-1.34 2.01 -0.68 1.02 0 0 Z " fill="#C70937" transform="translate(34,0)"/>
<path d="M0 0 C0.33 0 0.66 0 1 0 C0.93489583 1.98567708 0.86979167 3.97135417 0.8046875 5.95703125 C0.86745538 8.31359719 0.86745538 8.31359719 3 11 C2.625 14.1875 2.625 14.1875 2 17 C3.32 16.67 4.64 16.34 6 16 C8.59065498 21.62512735 8.55351641 26.90305805 8 33 C6.65921112 36.47386209 5.05714238 38.91428643 3 42 C-0.1875 43.0625 -0.1875 43.0625 -4 43 C-6.72135147 41.36507954 -8.96743848 39.44030942 -11 37 C-11 36.34 -11 35.68 -11 35 C-14.63 35.66 -18.26 36.32 -22 37 C-22 37.66 -22 38.32 -22 39 C-25.465 39.495 -25.465 39.495 -29 40 C-29 36.7 -29 33.4 -29 30 C-28.67 30 -28.34 30 -28 30 C-28 32.64 -28 35.28 -28 38 C-26.64455078 37.45859375 -26.64455078 37.45859375 -25.26171875 36.90625 C-24.08222656 36.4421875 -22.90273438 35.978125 -21.6875 35.5 C-20.51574219 35.0359375 -19.34398437 34.571875 -18.13671875 34.09375 C-15 33 -15 33 -12 33 C-12 31.02 -12 29.04 -12 27 C-11.67 27 -11.34 27 -11 27 C-11 28.65 -11 30.3 -11 32 C-9.02 31.67 -7.04 31.34 -5 31 C-5.020625 29.88625 -5.04125 28.7725 -5.0625 27.625 C-5 24 -5 24 -4 22 C-4.66 22 -5.32 22 -6 22 C-5.67 19.03 -5.34 16.06 -5 13 C-7.475 12.505 -7.475 12.505 -10 12 C-5.375 7.125 -5.375 7.125 -2 6 C-0.77479736 2.99152582 -0.77479736 2.99152582 0 0 Z " fill="#3E3B46" transform="translate(35,5)"/>
<path d="M0 0 C1.04449911 3.13349732 0.93423645 3.98968256 0 7 C0.66 7 1.32 7 2 7 C1.67 9.97 1.34 12.94 1 16 C-0.00417969 16.27585937 -1.00835938 16.55171875 -2.04296875 16.8359375 C-7.11895315 18.28548832 -12.03598022 20.15563141 -16.98828125 21.9765625 C-20 23 -20 23 -22 23 C-22.33 23.66 -22.66 24.32 -23 25 C-19.535 24.505 -19.535 24.505 -16 24 C-16 23.34 -16 22.68 -16 22 C-12.17679443 20.57741188 -9.08718695 19.75957724 -5 20 C-5 20.66 -5 21.32 -5 22 C-11.7597743 25.42410997 -17.40047112 27.62625268 -25 28 C-25 23.38 -25 18.76 -25 14 C-19.26689311 11.60251894 -14.19518473 10.41588046 -8 10 C-7.4465236 7.92446352 -7 6.15634036 -7 4 C-7 3.34 -7 2.68 -7 2 C-5.34385343 1.61781233 -3.67542976 1.28604898 -2 1 C-1.67 1.33 -1.34 1.66 -1 2 C-0.67 1.34 -0.34 0.68 0 0 Z " fill="#531B2C" transform="translate(29,20)"/>
<path d="M0 0 C2.54141489 2.54141489 2.75651667 4.45615838 3.5625 7.9375 C4.28469543 11.01712092 4.9994349 13.9983047 6 17 C3.9375 17.875 3.9375 17.875 1 18 C-1.64788687 16.32045192 -3.9302727 14.35602963 -6 12 C-6 11.34 -6 10.68 -6 10 C-9.63 10.66 -13.26 11.32 -17 12 C-17 12.66 -17 13.32 -17 14 C-19.31 14.33 -21.62 14.66 -24 15 C-24 11.7 -24 8.4 -24 5 C-23.67 5 -23.34 5 -23 5 C-23 7.64 -23 10.28 -23 13 C-22.09636719 12.6390625 -21.19273438 12.278125 -20.26171875 11.90625 C-19.08222656 11.4421875 -17.90273438 10.978125 -16.6875 10.5 C-15.51574219 10.0359375 -14.34398437 9.571875 -13.13671875 9.09375 C-10 8 -10 8 -7 8 C-7 6.02 -7 4.04 -7 2 C-6.67 2 -6.34 2 -6 2 C-6 3.65 -6 5.3 -6 7 C-4.02 6.67 -2.04 6.34 0 6 C0 4.02 0 2.04 0 0 Z " fill="#2A2935" transform="translate(30,30)"/>
<path d="M0 0 C0 1.98 0 3.96 0 6 C-1.00417969 6.27585937 -2.00835938 6.55171875 -3.04296875 6.8359375 C-8.11895315 8.28548832 -13.03598022 10.15563141 -17.98828125 11.9765625 C-21 13 -21 13 -23 13 C-23 10.69 -23 8.38 -23 6 C-18.64125108 4.30493098 -14.27403441 2.717181 -9.8125 1.3125 C-8.61560547 0.93544922 -8.61560547 0.93544922 -7.39453125 0.55078125 C-4.85444072 -0.03348101 -2.59747104 -0.09688613 0 0 Z " fill="#9C988F" transform="translate(30,30)"/>
<path d="M0 0 C1.32 0.33 2.64 0.66 4 1 C4 2.65 4 4.3 4 6 C3.34 6 2.68 6 2 6 C2.31201674 8.04174058 2.62463569 10.08338913 2.9375 12.125 C3.11152344 13.26195312 3.28554688 14.39890625 3.46484375 15.5703125 C3.80687004 17.76227658 4.19456516 19.94791195 4.640625 22.12109375 C5.53576639 29.29195466 1.72215307 36.09589512 -2 42 C-9.6056338 42.91267606 -9.6056338 42.91267606 -12.93359375 40.734375 C-14.5625 39.125 -14.5625 39.125 -17 36 C-17 35.34 -17 34.68 -17 34 C-14 35 -14 35 -12.25 37.0625 C-10.01912104 39.37581372 -10.01912104 39.37581372 -6.25 39.25 C-5.1775 39.1675 -4.105 39.085 -3 39 C-0.34275174 33.87530693 1.26966588 29.85618634 1.1875 24 C1.18105469 22.989375 1.17460938 21.97875 1.16796875 20.9375 C1.01110381 18.19418757 0.54547886 15.68579 0 13 C0.4375 10.6875 0.4375 10.6875 1 9 C0.01 9 -0.98 9 -2 9 C-1.34 6.03 -0.68 3.06 0 0 Z " fill="#B50E37" transform="translate(41,8)"/>
<path d="M0 0 C0.33 0 0.66 0 1 0 C1.25 5.625 1.25 5.625 -1 9 C-2.98246398 10.03432904 -4.98413316 11.03238392 -7 12 C-8.35863401 12.96534522 -9.70343137 13.95277149 -11 15 C-12.11941772 9.8334567 -12.11941772 9.8334567 -12 7 C-8.90443195 3.43540649 -5.44809454 2.31420975 -1 1 C-0.67 0.67 -0.34 0.34 0 0 Z " fill="#BC0633" transform="translate(34,3)"/>
<path d="M0 0 C1.1548611 2.30972221 1.49503467 4.47517333 2 7 C2.33 7.66 2.66 8.32 3 9 C3.66 7.35 4.32 5.7 5 4 C5.66 4 6.32 4 7 4 C7.25 9.625 7.25 9.625 5 13 C4.60986284 14.9896995 4.26797351 16.99019869 4 19 C3.01 18.67 2.02 18.34 1 18 C0.0859375 15.92578125 0.0859375 15.92578125 -0.625 13.3125 C-0.87121094 12.41402344 -1.11742187 11.51554687 -1.37109375 10.58984375 C-2.06280686 7.74136055 -2.61753774 4.90671321 -3 2 C-2.01 1.34 -1.02 0.68 0 0 Z " fill="#405264" transform="translate(34,28)"/>
<path d="M0 0 C0.66 0 1.32 0 2 0 C4.59097588 5.62582412 4.55206062 10.90261403 4 17 C1.9375 22.53125 1.9375 22.53125 -1 24 C-0.343621 19.51474352 0.70074209 15.33085971 2 11 C1.01 11.495 1.01 11.495 0 12 C-0.65555119 14.52733235 -0.65555119 14.52733235 -1 17 C-2.32 15.68 -3.64 14.36 -5 13 C-4.175 12.236875 -3.35 11.47375 -2.5 10.6875 C0.34055197 8.24565858 0.34055197 8.24565858 0 5 C-0.99 5.495 -0.99 5.495 -2 6 C-1.125 1.125 -1.125 1.125 0 0 Z " fill="#1E262F" transform="translate(39,21)"/>
<path d="M0 0 C0 2.31 0 4.62 0 7 C-4.95 8.485 -4.95 8.485 -10 10 C-10 7.69 -10 5.38 -10 3 C-8.70990357 2.49596232 -7.41786211 1.99690074 -6.125 1.5 C-5.04605469 1.08234375 -5.04605469 1.08234375 -3.9453125 0.65625 C-2 0 -2 0 0 0 Z " fill="#A1A19F" transform="translate(17,33)"/>
<path d="M0 0 C0.33 0 0.66 0 1 0 C1 3.96 1 7.92 1 12 C3.64 11.34 6.28 10.68 9 10 C9 9.34 9 8.68 9 8 C12.82320557 6.57741188 15.91281305 5.75957724 20 6 C20 6.66 20 7.32 20 8 C13.2402257 11.42410997 7.59952888 13.62625268 0 14 C0 9.38 0 4.76 0 0 Z " fill="#D10438" transform="translate(4,34)"/>
<path d="M0 0 C2.1385485 2.1385485 2.42655063 3.13275314 3 6 C5.97 6.495 5.97 6.495 9 7 C8.34 8.65 7.68 10.3 7 12 C4.03 11.505 4.03 11.505 1 11 C1.66 11.33 2.32 11.66 3 12 C2.5359375 12.8971875 2.5359375 12.8971875 2.0625 13.8125 C0.89790296 16.08956772 0.89790296 16.08956772 0 19 C-0.66 18.67 -1.32 18.34 -2 18 C-1.835 17.484375 -1.67 16.96875 -1.5 16.4375 C-0.88906209 13.87388662 -0.88906209 13.87388662 -1 10.6875 C-1 7.02293326 -0.58964433 3.61157152 0 0 Z " fill="#B10E32" transform="translate(21,11)"/>
<path d="M0 0 C1.8125 0.9375 1.8125 0.9375 3.8125 2.9375 C3.9375 6.0625 3.9375 6.0625 3.8125 8.9375 C3.4825 7.9475 3.1525 6.9575 2.8125 5.9375 C1.4925 5.9375 0.1725 5.9375 -1.1875 5.9375 C-1.5175 6.5975 -1.8475 7.2575 -2.1875 7.9375 C-2.1875 7.2775 -2.1875 6.6175 -2.1875 5.9375 C-3.8375 5.6075 -5.4875 5.2775 -7.1875 4.9375 C-2.78233345 -0.07949524 -2.78233345 -0.07949524 0 0 Z " fill="#47505E" transform="translate(32.1875,12.0625)"/>
<path d="M0 0 C0.33 0 0.66 0 1 0 C1.33 2.31 1.66 4.62 2 7 C0.56445975 7.50559908 -0.8735202 8.0042749 -2.3125 8.5 C-3.11300781 8.7784375 -3.91351563 9.056875 -4.73828125 9.34375 C-7 10 -7 10 -10 10 C-10 10.66 -10 11.32 -10 12 C-12.31 12.33 -14.62 12.66 -17 13 C-17 9.7 -17 6.4 -17 3 C-16.67 3 -16.34 3 -16 3 C-16 5.64 -16 8.28 -16 11 C-15.09636719 10.6390625 -14.19273438 10.278125 -13.26171875 9.90625 C-12.08222656 9.4421875 -10.90273437 8.978125 -9.6875 8.5 C-8.51574219 8.0359375 -7.34398437 7.571875 -6.13671875 7.09375 C-3 6 -3 6 0 6 C0 4.02 0 2.04 0 0 Z " fill="#12171F" transform="translate(23,32)"/>
<path d="M0 0 C1.32 0.33 2.64 0.66 4 1 C4 2.65 4 4.3 4 6 C3.34 6 2.68 6 2 6 C2.33 9.3 2.66 12.6 3 16 C2.01 16.33 1.02 16.66 0 17 C0.33 14.36 0.66 11.72 1 9 C0.01 9 -0.98 9 -2 9 C-1.34 6.03 -0.68 3.06 0 0 Z " fill="#941B39" transform="translate(41,8)"/>
<path d="M0 0 C0 0.99 0 1.98 0 3 C-1.65532623 4.01866229 -3.32260138 5.01810813 -5 6 C-5.33 6.99 -5.66 7.98 -6 9 C-6 8.34 -6 7.68 -6 7 C-7.32 7 -8.64 7 -10 7 C-9.34 8.98 -8.68 10.96 -8 13 C-8.99 13.66 -9.98 14.32 -11 15 C-12.11941772 9.8334567 -12.11941772 9.8334567 -12 7 C-8.90443195 3.43540649 -5.44809454 2.31420975 -1 1 C-0.67 0.67 -0.34 0.34 0 0 Z " fill="#6E1B2E" transform="translate(34,3)"/>
<path d="M0 0 C0.66 0 1.32 0 2 0 C2.34833144 4.87664009 1.41685712 7.77050005 -1 12 C-1.66 12 -2.32 12 -3 12 C-3.66 9.36 -4.32 6.72 -5 4 C-4.01 4.33 -3.02 4.66 -2 5 C-1.34 3.35 -0.68 1.7 0 0 Z " fill="#465668" transform="translate(39,32)"/>
<path d="M0 0 C1.04449911 3.13349732 0.93423645 3.98968256 0 7 C0.66 7 1.32 7 2 7 C1.67 7.99 1.34 8.98 1 10 C-0.98 9.34 -2.96 8.68 -5 8 C-4.67 6.35 -4.34 4.7 -4 3 C-3.01 2.67 -2.02 2.34 -1 2 C-0.67 1.34 -0.34 0.68 0 0 Z " fill="#952130" transform="translate(29,20)"/>
<path d="M0 0 C2 3 2 3 2 5 C2.66 5 3.32 5 4 5 C3.25 7.4375 3.25 7.4375 2 10 C-0.125 10.8125 -0.125 10.8125 -2 11 C-1.67 10.01 -1.34 9.02 -1 8 C-1.66 8 -2.32 8 -3 8 C-2.67 6.68 -2.34 5.36 -2 4 C-2 4.99 -2 5.98 -2 7 C-1.34 6.67 -0.68 6.34 0 6 C0 4.02 0 2.04 0 0 Z " fill="#323743" transform="translate(32,19)"/>
<path d="M0 0 C3 1 3 1 4.75 3 C7.70902681 5.63024605 10.14192506 5.5632368 14 6 C14.33 6.66 14.66 7.32 15 8 C7.3943662 8.91267606 7.3943662 8.91267606 4.06640625 6.734375 C2.4375 5.125 2.4375 5.125 0 2 C0 1.34 0 0.68 0 0 Z " fill="#C41542" transform="translate(24,42)"/>
<path d="M0 0 C-0.33 0.66 -0.66 1.32 -1 2 C-2.32 2.33 -3.64 2.66 -5 3 C-5.33 5.97 -5.66 8.94 -6 12 C-5.34 12.33 -4.68 12.66 -4 13 C-4.99 13 -5.98 13 -7 13 C-7 8.71 -7 4.42 -7 0 C-3.86650268 -1.04449911 -3.01031744 -0.93423645 0 0 Z " fill="#8D122F" transform="translate(12,33)"/>
<path d="M0 0 C0 0.66 0 1.32 0 2 C-5.625 5 -5.625 5 -9 5 C-9 4.34 -9 3.68 -9 3 C-9.66 2.67 -10.32 2.34 -11 2 C-7.17679443 0.57741188 -4.08718695 -0.24042276 0 0 Z " fill="#BC0C38" transform="translate(24,40)"/>
<path d="M0 0 C2.97 0.495 2.97 0.495 6 1 C5.34 2.65 4.68 4.3 4 6 C2.35 5.67 0.7 5.34 -1 5 C-0.67 3.35 -0.34 1.7 0 0 Z " fill="#E0A72F" transform="translate(24,17)"/>
<path d="M0 0 C0 2.31 0 4.62 0 7 C-1.32 7 -2.64 7 -4 7 C-4 5.02 -4 3.04 -4 1 C-2 0 -2 0 0 0 Z " fill="#C0BDB6" transform="translate(17,33)"/>
<path d="M0 0 C0.66 0.33 1.32 0.66 2 1 C1.8125 3.375 1.8125 3.375 1 6 C-1.5625 7.3125 -1.5625 7.3125 -4 8 C-3.49396008 5.83125748 -3.00016187 4.00032373 -2 2 C-1.34 2 -0.68 2 0 2 C0 1.34 0 0.68 0 0 Z " fill="#544C44" transform="translate(38,25)"/>
<path d="M0 0 C1.32 0 2.64 0 4 0 C4 1.65 4 3.3 4 5 C2.35 5 0.7 5 -1 5 C-0.67 3.35 -0.34 1.7 0 0 Z " fill="#C2C1BD" transform="translate(8,35)"/>
<path d="M0 0 C0.99 0.33 1.98 0.66 3 1 C3.6875 3.0625 3.6875 3.0625 4 5 C2.68 5.33 1.36 5.66 0 6 C0 4.02 0 2.04 0 0 Z " fill="#B1AFA9" transform="translate(17,33)"/>
<path d="M0 0 C1.32 0 2.64 0 4 0 C4 1.32 4 2.64 4 4 C2.35 4.33 0.7 4.66 -1 5 C-0.67 3.35 -0.34 1.7 0 0 Z " fill="#BA7E2F" transform="translate(38,17)"/>
<path d="M0 0 C0.66 0 1.32 0 2 0 C2.33 1.98 2.66 3.96 3 6 C1.68 5.34 0.36 4.68 -1 4 C-0.67 2.68 -0.34 1.36 0 0 Z " fill="#B37B2F" transform="translate(29,37)"/>
<path d="M0 0 C0.66 0 1.32 0 2 0 C2.33 1.65 2.66 3.3 3 5 C3.66 5 4.32 5 5 5 C5 5.99 5 6.98 5 8 C4.01 7.67 3.02 7.34 2 7 C0.8125 3.4375 0.8125 3.4375 0 0 Z " fill="#334554" transform="translate(33,39)"/>
<path d="M0 0 C0.99 0 1.98 0 3 0 C3 1.98 3 3.96 3 6 C2.01 6 1.02 6 0 6 C0 4.02 0 2.04 0 0 Z " fill="#C4BAA8" transform="translate(27,30)"/>
<path d="M0 0 C0.66 0 1.32 0 2 0 C2.33 1.65 2.66 3.3 3 5 C1.35 5.33 -0.3 5.66 -2 6 C-1.125 1.125 -1.125 1.125 0 0 Z " fill="#2A3238" transform="translate(39,21)"/>
</svg>
