<?xml version="1.0" encoding="UTF-8"?>
<!-- Generator: https://ezgif.com/webp-to-svg -->
<svg version="1.1" xmlns="http://www.w3.org/2000/svg" width="100" height="100">
<path d="M0 0 C29.04 0 58.08 0 88 0 C86.4 3.2 85.39 4.89 83.06 7.38 C82.16 8.33 82.16 8.33 81.25 9.31 C78.5 12.19 75.73 15.06 72.95 17.92 C71.49 19.42 70.05 20.94 68.62 22.47 C55.22 36.82 55.22 36.82 45.95 37.49 C43.99 37.33 42.02 37.17 40 37 C43.96 40.96 47.92 44.92 52 49 C55.55 47.23 57.22 46.02 59.91 43.28 C60.66 42.52 61.42 41.76 62.2 40.98 C63 40.16 63.8 39.34 64.63 38.49 C65.47 37.65 66.3 36.81 67.16 35.94 C69.82 33.26 72.47 30.57 75.12 27.88 C78.62 24.33 82.13 20.78 85.63 17.24 C86.44 16.42 87.25 15.59 88.08 14.74 C88.83 13.99 89.58 13.23 90.35 12.46 C91.01 11.79 91.67 11.12 92.34 10.43 C94 9 94 9 96 9 C97.89 23.8 97.89 23.8 93.9 29.62 C90.96 33.21 87.59 36.33 84.19 39.47 C82.97 40.66 81.76 41.84 80.56 43.03 C77.4 46.13 74.19 49.17 70.97 52.2 C67.1 55.86 63.29 59.59 59.48 63.31 C53.7 68.92 47.85 74.45 42 80 C62.3 80.5 62.3 80.5 83 81 C82.5 77.53 82.5 77.53 82 74 C81.01 74.99 80.02 75.98 79 77 C74.71 75.35 72.12 72.26 69 69 C70.58 65.12 73.23 62.48 76.16 59.58 C76.66 59.07 77.16 58.57 77.68 58.05 C78.74 56.99 79.8 55.93 80.87 54.87 C82.5 53.25 84.12 51.62 85.75 49.98 C86.78 48.95 87.81 47.92 88.84 46.89 C89.33 46.4 89.82 45.91 90.32 45.4 C93.77 42 93.77 42 96 42 C96 59.82 96 77.64 96 96 C67.29 96 38.58 96 9 96 C10.65 92.7 11.59 91.17 14.07 88.7 C14.69 88.08 15.31 87.46 15.95 86.82 C16.95 85.83 16.95 85.83 17.98 84.83 C18.66 84.15 19.35 83.46 20.05 82.76 C22.24 80.59 24.43 78.42 26.62 76.25 C28.11 74.78 29.59 73.3 31.08 71.82 C34.71 68.21 38.36 64.6 42 61 C39.29 55.25 34.69 51.28 30.25 46.81 C29.36 45.89 28.46 44.96 27.54 44 C26.23 42.68 26.23 42.68 24.89 41.33 C24.1 40.52 23.3 39.72 22.49 38.89 C19.61 36.7 17.56 36.3 14 36 C14.06 37.15 14.13 38.3 14.19 39.48 C14.41 43.8 14.55 48.11 14.66 52.43 C14.72 54.29 14.8 56.15 14.91 58 C15.8 74.23 15.8 74.23 11.35 79.97 C8.5 83.07 5.48 85.64 2 88 C1.34 88 0.68 88 0 88 C0 58.96 0 29.92 0 0 Z M14 12 C14 15.63 14 19.26 14 23 C18.66 23.25 23.31 23.43 27.98 23.55 C29.56 23.6 31.14 23.67 32.72 23.75 C42.57 24.52 42.57 24.52 51.33 20.76 C53.83 18.29 56 15.88 58 13 C58 12.67 58 12.34 58 12 C43.48 12 28.96 12 14 12 Z " fill="#B6FE00" transform="translate(2,2)"/>
</svg>
