<?xml version="1.0" encoding="UTF-8"?>
<!-- Generator: https://ezgif.com/webp-to-svg -->
<svg version="1.1" xmlns="http://www.w3.org/2000/svg" width="100" height="100">
<path d="M0 0 C0 1.32 0 2.64 0 4 C0.66 3.01 1.32 2.02 2 1 C2.66 1 3.32 1 4 1 C3.98 1.6 3.95 2.21 3.93 2.83 C3.91 3.63 3.89 4.43 3.88 5.25 C3.85 6.04 3.83 6.83 3.8 7.64 C3.89 10.39 3.89 10.39 6 14 C7.32 11.03 8.64 8.06 10 5 C13.11 8.11 13.81 9.89 15 14 C15.99 13.67 16.98 13.34 18 13 C18.49 14.48 18.49 14.48 19 16 C19.33 14.02 19.66 12.04 20 10 C22.77 11.5 24.71 12.6 26.56 15.19 C27.04 15.79 27.51 16.38 28 17 C29.32 17 30.64 17 32 17 C34.48 19.62 35.86 21.57 37 25 C37.48 24.21 37.96 23.41 38.46 22.59 C39.09 21.57 39.72 20.55 40.38 19.5 C41 18.48 41.63 17.46 42.27 16.41 C43.13 15.22 43.13 15.22 44 14 C44.66 14 45.32 14 46 14 C43.75 22.81 40.94 31.4 38 40 C38.6 39.67 39.2 39.34 39.81 39 C42 38 42 38 45 38 C45 38.66 45 39.32 45 40 C43.3 41.38 41.54 42.68 39.75 43.94 C38.78 44.63 37.8 45.32 36.8 46.03 C35.12 47.21 33.42 48.38 31.7 49.5 C29.7 51.26 29.36 52.4 29 55 C29.83 54.46 29.83 54.46 30.68 53.91 C31.4 53.44 32.13 52.98 32.88 52.5 C33.59 52.04 34.31 51.57 35.05 51.09 C37 50 37 50 39 50 C38 52 37 54 36 56 C36.8 55.53 37.61 55.05 38.44 54.56 C42.67 52.71 46.43 52.29 51 52 C51 52.66 51 53.32 51 54 C49.43 55.08 49.43 55.08 47.31 56.25 C41.27 59.93 38.4 63.64 36 70.19 C34.78 73.44 34.23 74.8 31.56 77.12 C28.86 78.05 26.83 78.24 24 78 C24.02 78.95 24.04 79.9 24.06 80.88 C23.26 86.86 18.16 91 14 95 C13.35 95.63 12.69 96.27 12.02 96.92 C10 98 10 98 7.51 97.43 C2 94.29 -3.47 88.85 -6 83 C-6.19 80.19 -6.19 80.19 -6 78 C-7.07 77.92 -8.14 77.83 -9.25 77.75 C-13.52 76.9 -14.52 76.5 -17 73 C-17.6 71.4 -18.18 69.8 -18.75 68.19 C-21.34 61.22 -26.35 57.09 -33 54 C-33 53.34 -33 52.68 -33 52 C-27.34 52.37 -22.99 53.06 -18 56 C-18.66 55.01 -19.32 54.02 -20 53 C-19.67 52.01 -19.34 51.02 -19 50 C-16.36 51.65 -13.72 53.3 -11 55 C-12.23 50.09 -14.55 48.64 -18.44 45.81 C-19.04 45.36 -19.64 44.91 -20.25 44.45 C-23.5 42.02 -23.5 42.02 -27 40 C-27 39.34 -27 38.68 -27 38 C-22.25 38.88 -22.25 38.88 -20 40 C-20.24 39.28 -20.48 38.57 -20.73 37.83 C-21.83 34.6 -22.91 31.36 -24 28.12 C-24.38 27 -24.76 25.87 -25.16 24.71 C-25.52 23.63 -25.88 22.55 -26.25 21.45 C-26.59 20.45 -26.92 19.46 -27.27 18.43 C-28 16 -28 16 -28 14 C-25 15 -25 15 -23.31 18.06 C-22.88 19.03 -22.45 20 -22 21 C-19.72 17.58 -18.12 14.02 -16.41 10.28 C-14.85 7.76 -13.74 7.03 -11 6 C-10.67 7.98 -10.34 9.96 -10 12 C-9.76 11.47 -9.52 10.94 -9.27 10.39 C-4.34 -0 -4.34 -0 0 0 Z M-13 65 C-12.66 67.47 -12.66 67.47 -12 70 C-11.34 70.33 -10.68 70.66 -10 71 C-10.66 69.02 -11.32 67.04 -12 65 C-12.33 65 -12.66 65 -13 65 Z M30 65 C29.01 66.98 28.02 68.96 27 71 C27.99 70.67 28.98 70.34 30 70 C30.33 68.35 30.66 66.7 31 65 C30.67 65 30.34 65 30 65 Z " fill="#221B19" transform="translate(41,1)"/>
<path d="M0 0 C3.46 1.98 3.46 1.98 7 4 C6.01 4.33 5.02 4.66 4 5 C4.57 5.88 5.13 6.76 5.71 7.67 C6.46 8.84 7.2 10.01 7.94 11.19 C8.5 12.05 8.5 12.05 9.07 12.94 C11.16 16.27 12.53 19.08 13 23 C14.32 23 15.64 23 17 23 C16.48 22.05 15.97 21.1 15.44 20.12 C14.96 19.09 14.49 18.06 14 17 C14.33 16.34 14.66 15.68 15 15 C19 19.75 19 19.75 19 22 C20.98 22 22.96 22 25 22 C25 22.66 25 23.32 25 24 C25.76 23.81 26.53 23.63 27.31 23.44 C30 23 30 23 33 24 C33 23.34 33 22.68 33 22 C33.89 22.1 34.78 22.19 35.7 22.29 C36.87 22.4 38.04 22.51 39.25 22.62 C40.41 22.74 41.57 22.86 42.77 22.98 C46 23 47.47 22.97 50 21 C51.13 18.81 51.13 18.81 51.88 16.25 C53.77 11.13 55.72 8.41 60 5 C62.88 4.12 62.88 4.12 65 4 C64.42 7.24 63.49 8.81 61.19 11.12 C58.57 14.01 57.24 16.59 55.94 20.25 C54.74 23.5 54.23 24.8 51.56 27.12 C48.86 28.05 46.83 28.24 44 28 C44.02 28.95 44.04 29.9 44.06 30.88 C43.26 36.86 38.16 41 34 45 C33.35 45.63 32.69 46.27 32.02 46.92 C30 48 30 48 27.51 47.43 C22 44.29 16.53 38.85 14 33 C13.81 30.19 13.81 30.19 14 28 C12.93 27.92 11.86 27.84 10.75 27.75 C6.48 26.9 5.48 26.5 3 23 C2.4 21.4 1.82 19.8 1.25 18.19 C-1.34 11.22 -6.35 7.09 -13 4 C-13 3.34 -13 2.68 -13 2 C-7.34 2.37 -2.99 3.06 2 6 C1.34 5.01 0.68 4.02 0 3 C0 2.01 0 1.02 0 0 Z M7 15 C7.34 17.47 7.34 17.47 8 20 C8.66 20.33 9.32 20.66 10 21 C9.34 19.02 8.68 17.04 8 15 C7.67 15 7.34 15 7 15 Z " fill="#241917" transform="translate(21,51)"/>
<path d="M0 0 C0.66 0 1.32 0 2 0 C2.33 1.32 2.66 2.64 3 4 C3.66 4 4.32 4 5 4 C6.22 5.5 6.22 5.5 7.5 7.44 C9.29 10.23 9.29 10.23 12 12 C12.66 9.69 13.32 7.38 14 5 C14.66 5 15.32 5 16 5 C16.66 7.31 17.32 9.62 18 12 C18.99 11.67 19.98 11.34 21 11 C22.32 13.97 23.64 16.94 25 20 C25.33 16.37 25.66 12.74 26 9 C26.89 9.8 27.77 10.61 28.69 11.44 C31.44 13.76 33.44 14.41 37 15 C39.3 18.44 39.54 20.94 40 25 C40.99 23.35 41.98 21.7 43 20 C44.32 23.96 43.36 25.67 41.94 29.56 C41.53 30.72 41.13 31.88 40.71 33.07 C39 36 39 36 35.82 37.4 C34.42 37.7 34.42 37.7 33 38 C30.95 35.95 31.3 31.7 31 29 C30.34 29.66 29.68 30.32 29 31 C29 29.68 29 28.36 29 27 C28.28 27.1 27.56 27.21 26.81 27.31 C22.8 26.87 21.5 25.06 19 22 C18.19 19.69 18.19 19.69 18 18 C17.34 19.32 16.68 20.64 16 22 C15.34 22 14.68 22 14 22 C13.75 21.43 13.49 20.87 13.23 20.29 C12.89 19.55 12.54 18.82 12.19 18.06 C11.85 17.33 11.51 16.6 11.17 15.85 C10.06 13.67 10.06 13.67 7 13 C7.33 15.31 7.66 17.62 8 20 C7.01 20 6.02 20 5 20 C4.34 19.01 3.68 18.02 3 17 C2.34 17.66 1.68 18.32 1 19 C0.34 17.35 -0.32 15.7 -1 14 C-1.33 17.3 -1.66 20.6 -2 24 C-2.66 23.67 -3.32 23.34 -4 23 C-4 22.01 -4 21.02 -4 20 C-4.66 20 -5.32 20 -6 20 C-6.27 20.7 -6.54 21.4 -6.81 22.12 C-8 25 -8 25 -9.81 28 C-10.4 29.48 -10.4 29.48 -11 31 C-9.79 33.77 -9.79 33.77 -8 36 C-8 36.66 -8 37.32 -8 38 C-11.34 37.1 -12.73 36.4 -14.69 33.5 C-16.35 29.07 -17.22 24.65 -18 20 C-16.26 22.3 -14.6 24.6 -13 27 C-13.31 26.48 -13.62 25.97 -13.94 25.44 C-15.4 22.08 -15.94 19.69 -16 16 C-14.63 12.8 -12.91 9.91 -11 7 C-9.68 7 -8.36 7 -7 7 C-6.01 8.48 -6.01 8.48 -5 10 C-4.72 9.36 -4.45 8.72 -4.16 8.07 C-3.8 7.24 -3.44 6.41 -3.06 5.56 C-2.7 4.74 -2.34 3.92 -1.97 3.07 C-1 1 -1 1 0 0 Z " fill="#87100C" transform="translate(37,7)"/>
<path d="M0 0 C0.33 0 0.66 0 1 0 C1.33 1.65 1.66 3.3 2 5 C2.99 4.67 3.98 4.34 5 4 C5.99 5.32 6.98 6.64 8 8 C7.67 5.36 7.34 2.72 7 0 C10.27 0.97 11.75 1.66 13.81 4.44 C15 7 15 7 15 10 C15.66 10 16.32 10 17 10 C17.66 8.35 18.32 6.7 19 5 C21.26 6.94 22.15 8.33 23.38 11.12 C24.71 14.24 24.71 14.24 27.69 14.88 C28.45 14.92 29.21 14.96 30 15 C30 17.64 30 20.28 30 23 C27.53 22.01 27.53 22.01 25 21 C25 22.32 25 23.64 25 25 C22 24 22 24 20.56 21.25 C20.05 20.18 19.53 19.11 19 18 C16.49 14.43 16.49 14.43 13 12 C13 14.31 13 16.62 13 19 C10.33 19 7.67 19 5 19 C3.25 16.5 3.25 16.5 2 14 C1.34 15.32 0.68 16.64 0 18 C0 17.34 0 16.68 0 16 C-0.66 16 -1.32 16 -2 16 C-2.33 18.31 -2.66 20.62 -3 23 C-5.48 22.01 -5.48 22.01 -8 21 C-8 20.34 -8 19.68 -8 19 C-8.99 18.67 -9.98 18.34 -11 18 C-10.34 18 -9.68 18 -9 18 C-8.71 16.91 -8.42 15.81 -8.12 14.69 C-7 11 -7 11 -5 8 C-4.34 8 -3.68 8 -3 8 C-2.67 8.99 -2.34 9.98 -2 11 C-1.94 10.37 -1.88 9.75 -1.82 9.1 C-1.73 8.28 -1.65 7.47 -1.56 6.62 C-1.48 5.81 -1.4 5 -1.32 4.16 C-1 2 -1 2 0 0 Z " fill="#620101" transform="translate(36,19)"/>
<path d="M0 0 C3.46 1.98 3.46 1.98 7 4 C6.01 4.33 5.02 4.66 4 5 C4.57 5.88 5.13 6.76 5.71 7.67 C6.46 8.84 7.2 10.01 7.94 11.19 C8.5 12.05 8.5 12.05 9.07 12.94 C11.16 16.27 12.53 19.08 13 23 C14.32 23 15.64 23 17 23 C16.48 22.05 15.97 21.1 15.44 20.12 C14.96 19.09 14.49 18.06 14 17 C14.33 16.34 14.66 15.68 15 15 C19 19.75 19 19.75 19 22 C20.98 22 22.96 22 25 22 C25 22.66 25 23.32 25 24 C25.76 23.81 26.53 23.63 27.31 23.44 C30 23 30 23 33 24 C33 23.34 33 22.68 33 22 C33.89 22.1 34.78 22.19 35.7 22.29 C36.87 22.4 38.04 22.51 39.25 22.62 C40.41 22.74 41.57 22.86 42.77 22.98 C46 23 47.47 22.97 50 21 C51.13 18.81 51.13 18.81 51.88 16.25 C53.77 11.13 55.72 8.41 60 5 C62.88 4.12 62.88 4.12 65 4 C65 4.66 65 5.32 65 6 C64.09 6.52 63.19 7.03 62.25 7.56 C58.54 9.89 57.51 12.77 55.94 16.74 C54.53 20.13 52.62 23.38 50 26 C44.09 26.32 38.17 26.36 32.25 26.41 C30.26 26.43 28.26 26.46 26.27 26.51 C23.39 26.57 20.52 26.6 17.64 26.62 C16.31 26.66 16.31 26.66 14.94 26.71 C8.89 26.69 8.89 26.69 6.33 24.72 C3.11 20.96 1.63 16.88 0.09 12.27 C-1.54 8.87 -3.76 7.55 -7.14 6.05 C-7.84 5.81 -8.53 5.56 -9.25 5.31 C-10.49 4.88 -11.72 4.45 -13 4 C-13 3.34 -13 2.68 -13 2 C-7.34 2.37 -2.99 3.06 2 6 C1.34 5.01 0.68 4.02 0 3 C0 2.01 0 1.02 0 0 Z M7 15 C7.34 17.47 7.34 17.47 8 20 C8.66 20.33 9.32 20.66 10 21 C9.34 19.02 8.68 17.04 8 15 C7.67 15 7.34 15 7 15 Z " fill="#27201E" transform="translate(21,51)"/>
<path d="M0 0 C0 1.32 0 2.64 0 4 C0.66 3.01 1.32 2.02 2 1 C2.66 1 3.32 1 4 1 C3.98 1.6 3.95 2.21 3.93 2.83 C3.91 3.63 3.89 4.43 3.88 5.25 C3.85 6.04 3.83 6.83 3.8 7.64 C3.89 10.39 3.89 10.39 6 14 C7.32 11.03 8.64 8.06 10 5 C13.11 8.11 13.81 9.89 15 14 C15.99 13.67 16.98 13.34 18 13 C18.49 14.48 18.49 14.48 19 16 C19.33 14.02 19.66 12.04 20 10 C22.77 11.5 24.71 12.6 26.56 15.19 C27.04 15.79 27.51 16.38 28 17 C29.32 17 30.64 17 32 17 C34.48 19.62 35.86 21.57 37 25 C37.48 24.21 37.96 23.41 38.46 22.59 C39.09 21.57 39.72 20.55 40.38 19.5 C41 18.48 41.63 17.46 42.27 16.41 C42.84 15.61 43.41 14.82 44 14 C44.66 14 45.32 14 46 14 C44.46 19.92 42.8 25.8 40.94 31.62 C40.46 33.13 40.46 33.13 39.96 34.66 C39 37 39 37 37 38 C37.66 34.37 38.32 30.74 39 27 C38.01 28.98 37.02 30.96 36 33 C35.67 33 35.34 33 35 33 C34.95 32.39 34.9 31.77 34.85 31.14 C34.78 30.33 34.7 29.52 34.62 28.69 C34.52 27.49 34.52 27.49 34.41 26.26 C34.1 23.73 34.1 23.73 32 21 C31.22 20.86 30.43 20.71 29.62 20.56 C27 20 27 20 23 16 C22.67 19.96 22.34 23.92 22 28 C19.1 24.13 18.15 21.6 17 17 C15.02 17.99 15.02 17.99 13 19 C12.67 16.36 12.34 13.72 12 11 C11.34 11 10.68 11 10 11 C9.34 13.31 8.68 15.62 8 18 C4.29 16.76 3.23 15.15 1 12 C1 11.34 1 10.68 1 10 C0.34 10 -0.32 10 -1 10 C-1.33 11.32 -1.66 12.64 -2 14 C-2 11.36 -2 8.72 -2 6 C-5.87 9.22 -6.88 12.15 -8 17 C-9.38 15.71 -10.71 14.37 -12 13 C-12 12.34 -12 11.68 -12 11 C-13.32 10.34 -14.64 9.68 -16 9 C-15.01 8.01 -14.02 7.02 -13 6 C-12.34 6.33 -11.68 6.66 -11 7 C-10.38 9.56 -10.38 9.56 -10 12 C-9.76 11.47 -9.52 10.94 -9.27 10.39 C-4.34 0 -4.34 0 0 0 Z " fill="#181919" transform="translate(41,1)"/>
<path d="M0 0 C0.69 1.62 0.69 1.62 1 4 C0 6 -1 8 -2 10 C-1.69 11.34 -1.35 12.67 -1 14 C-1.08 15.75 -1.23 17.51 -1.44 19.25 C-1.54 20.14 -1.64 21.03 -1.75 21.95 C-1.83 22.63 -1.91 23.3 -2 24 C-2.66 23.67 -3.32 23.34 -4 23 C-4 22.01 -4 21.02 -4 20 C-4.66 20 -5.32 20 -6 20 C-6.27 20.7 -6.54 21.4 -6.81 22.12 C-8 25 -8 25 -9.81 28 C-10.4 29.48 -10.4 29.48 -11 31 C-9.79 33.77 -9.79 33.77 -8 36 C-8 36.66 -8 37.32 -8 38 C-11.34 37.1 -12.73 36.4 -14.69 33.5 C-16.35 29.07 -17.22 24.65 -18 20 C-16.26 22.3 -14.6 24.6 -13 27 C-13.31 26.48 -13.62 25.97 -13.94 25.44 C-15.4 22.08 -15.94 19.69 -16 16 C-14.63 12.8 -12.91 9.91 -11 7 C-9.68 7 -8.36 7 -7 7 C-6.01 8.48 -6.01 8.48 -5 10 C-4.72 9.36 -4.45 8.72 -4.16 8.07 C-3.8 7.24 -3.44 6.41 -3.06 5.56 C-2.7 4.74 -2.34 3.92 -1.97 3.07 C-1 1 -1 1 0 0 Z " fill="#8E150C" transform="translate(37,7)"/>
<path d="M0 0 C3 1 3 1 4 3 C4.33 2.34 4.66 1.68 5 1 C6.32 1 7.64 1 9 1 C9 2.32 9 3.64 9 5 C12.05 6.01 12.05 6.01 15 5 C15 3.68 15 2.36 15 1 C16.32 1 17.64 1 19 1 C19.33 1.66 19.66 2.32 20 3 C20.66 2.01 21.32 1.02 22 0 C22.99 0 23.98 0 25 0 C25 5.54 24.21 8.34 20.38 12.44 C17.77 14.76 15.78 16.1 12.56 17.56 C7.51 16.77 5.17 14.26 1.76 10.57 C-0.86 6.74 -0.74 4.5 0 0 Z " fill="#7B0E0D" transform="translate(38,78)"/>
<path d="M0 0 C-1.76 4.97 -4.39 9.43 -7 14 C-7.66 14 -8.32 14 -9 14 C-8.34 17.3 -7.68 20.6 -7 24 C-8.98 24 -10.96 24 -13 24 C-12.54 20.53 -12.11 17.33 -11 14 C-11.66 14 -12.32 14 -13 14 C-14.73 11.45 -14.73 11.45 -16.62 8.12 C-17.26 7.03 -17.89 5.94 -18.54 4.82 C-20 2 -20 2 -20 0 C-6 -2 -6 -2 0 0 Z " fill="#7C0808" transform="translate(60,50)"/>
<path d="M0 0 C1.65 1.65 3.3 3.3 5 5 C5.66 4.01 6.32 3.02 7 2 C7.99 2 8.98 2 10 2 C10.66 3.98 11.32 5.96 12 8 C12.99 6.35 13.98 4.7 15 3 C16.32 6.96 15.36 8.67 13.94 12.56 C13.53 13.72 13.13 14.88 12.71 16.07 C11 19 11 19 7.82 20.4 C6.42 20.7 6.42 20.7 5 21 C2.95 18.95 3.3 14.7 3 12 C2.34 12.66 1.68 13.32 1 14 C1 12.68 1 11.36 1 10 C0.34 10 -0.32 10 -1 10 C-0.67 6.7 -0.34 3.4 0 0 Z " fill="#5E0404" transform="translate(65,24)"/>
<path d="M0 0 C-1 2 -2 4 -3 6 C-1.79 5.29 -1.79 5.29 -0.56 4.56 C3.67 2.71 7.43 2.29 12 2 C12 2.66 12 3.32 12 4 C10.02 4.66 8.04 5.32 6 6 C6 5.34 6 4.68 6 4 C-0.99 6.93 -4.26 10.96 -7.06 17.75 C-7.34 18.51 -7.62 19.27 -7.91 20.05 C-9.28 22.5 -10.38 23.07 -13 24 C-16.62 24.25 -16.62 24.25 -20 24 C-20.66 23.34 -21.32 22.68 -22 22 C-20.02 19.69 -18.04 17.38 -16 15 C-15.67 15.66 -15.34 16.32 -15 17 C-15.93 19.03 -16.93 21.04 -18 23 C-17.01 23 -16.02 23 -15 23 C-14.74 22.31 -14.49 21.61 -14.23 20.89 C-12.85 17.65 -11.17 14.72 -9.38 11.69 C-8.74 10.62 -8.11 9.55 -7.46 8.45 C-6.98 7.64 -6.5 6.83 -6 6 C-6.99 5.67 -7.98 5.34 -9 5 C-7.88 4.16 -6.75 3.33 -5.62 2.5 C-5 2.04 -4.37 1.57 -3.73 1.09 C-2 0 -2 0 0 0 Z M-9 15 C-9.99 16.98 -10.98 18.96 -12 21 C-11.01 20.67 -10.02 20.34 -9 20 C-8.67 18.35 -8.34 16.7 -8 15 C-8.33 15 -8.66 15 -9 15 Z " fill="#191918" transform="translate(80,51)"/>
<path d="M0 0 C0.66 0 1.32 0 2 0 C2.66 2.31 3.32 4.62 4 7 C4.99 6.67 5.98 6.34 7 6 C8.32 8.97 9.64 11.94 11 15 C11.33 11.37 11.66 7.74 12 4 C12.89 4.8 13.77 5.61 14.69 6.44 C17.44 8.76 19.44 9.41 23 10 C25 13 25 13 24.62 15.19 C24.32 16.08 24.32 16.08 24 17 C24 16.01 24 15.02 24 14 C23.01 14 22.02 14 21 14 C20.34 15.32 19.68 16.64 19 18 C17.68 16.35 16.36 14.7 15 13 C14.34 15.97 13.68 18.94 13 22 C10.21 19.21 8.99 17.3 7.31 13.81 C6.88 12.91 6.44 12.01 5.99 11.08 C5.66 10.39 5.34 9.71 5 9 C4.01 9.33 3.02 9.66 2 10 C1.34 6.7 0.68 3.4 0 0 Z " fill="#830F0C" transform="translate(51,12)"/>
<path d="M0 0 C-3.75 3 -3.75 3 -6 3 C-6 3.66 -6 4.32 -6 5 C-7.33 6.33 -8.67 7.67 -10 9 C-10.7 10.32 -11.37 11.65 -12 13 C-14 16.25 -14 16.25 -16 19 C-16.66 19 -17.32 19 -18 19 C-18 19.99 -18 20.98 -18 22 C-19.65 21.67 -21.3 21.34 -23 21 C-21.85 18.53 -20.95 16.95 -19 15 C-19 14.01 -19 13.02 -19 12 C-15.61 5.51 -10.59 2.72 -4.12 -0.38 C-2 -1 -2 -1 0 0 Z " fill="#6C0E0D" transform="translate(76,46)"/>
<path d="M0 0 C6.61 1.77 11.91 4.71 15.44 10.69 C17 14 17 14 17 16 C16.01 16 15.02 16 14 16 C11.81 13.5 11.81 13.5 10 11 C10.66 12.98 11.32 14.96 12 17 C10.68 17 9.36 17 8 17 C7.67 16.34 7.35 15.67 7.01 14.99 C4.25 9.41 4.25 9.41 1.19 4 C0 2 0 2 0 0 Z " fill="#82120C" transform="translate(26,57)"/>
<path d="M0 0 C6.12 1.3 12.07 4.07 16.5 8.5 C17.97 10.95 19.08 13.3 20 16 C18.68 15.34 17.36 14.68 16 14 C16.51 14.41 17.01 14.82 17.53 15.24 C18.18 15.78 18.83 16.32 19.5 16.88 C20.47 17.68 20.47 17.68 21.47 18.49 C21.97 18.99 22.48 19.49 23 20 C23 20.66 23 21.32 23 22 C21.35 22.33 19.7 22.66 18 23 C16.87 21.44 15.75 19.88 14.62 18.31 C14 17.44 13.37 16.57 12.73 15.68 C11 13 11 13 9.96 10.29 C9.11 7.68 9.11 7.68 6 6 C6 5.34 6 4.68 6 4 C5.2 3.71 4.39 3.42 3.56 3.12 C1 2 1 2 0 0 Z " fill="#8C2C12" transform="translate(24,45)"/>
<path d="M0 0 C-1.49 3.98 -3.34 7.62 -5.44 11.31 C-6.03 12.38 -6.63 13.45 -7.25 14.55 C-8.11 15.76 -8.11 15.76 -9 17 C-9.99 17 -10.98 17 -12 17 C-11.67 15.35 -11.34 13.7 -11 12 C-13.97 14.47 -13.97 14.47 -17 17 C-16.66 11.62 -13.65 7.74 -10 4 C-6.92 1.95 -3.77 0 0 0 Z " fill="#82130D" transform="translate(74,57)"/>
<path d="M0 0 C0 0.66 0 1.32 0 2 C-0.91 2.52 -1.81 3.03 -2.75 3.56 C-6.46 5.89 -7.49 8.77 -9.06 12.74 C-10.47 16.13 -12.38 19.38 -15 22 C-16.93 22.13 -18.87 22.18 -20.81 22.19 C-21.87 22.2 -22.93 22.22 -24.02 22.23 C-26.92 22.01 -28.55 21.5 -31 20 C-31 19.34 -31 18.68 -31 18 C-30.32 18.16 -29.64 18.33 -28.94 18.5 C-23.96 19.35 -19.32 19.92 -15 17 C-13.87 14.81 -13.87 14.81 -13.12 12.25 C-11.26 7.14 -9.17 4.46 -5 1 C-2 0 -2 0 0 0 Z " fill="#B6AB9E" transform="translate(86,55)"/>
<path d="M0 0 C0.99 0.33 1.98 0.66 3 1 C4.28 3.65 4.28 3.65 5.5 6.94 C7.18 11.77 7.18 11.77 11 15 C13.97 15.24 13.97 15.24 17.19 15.12 C18.27 15.11 19.36 15.09 20.48 15.07 C21.31 15.05 22.14 15.02 23 15 C22.67 15.66 22.34 16.32 22 17 C17.35 18.55 12.84 18.73 8 18 C3.58 14.31 1.39 9.57 0 4 C0 2.68 0 1.36 0 0 Z " fill="#B8ADA0" transform="translate(21,59)"/>
<path d="M0 0 C1.32 0 2.64 0 4 0 C4 1.32 4 2.64 4 4 C7.05 5.01 7.05 5.01 10 4 C10 2.68 10 1.36 10 0 C11.32 0 12.64 0 14 0 C13.34 2.31 12.68 4.62 12 7 C8.18 7.82 5.76 8.29 2.06 6.88 C0 5 0 5 -0.31 2.31 C-0.21 1.55 -0.11 0.79 0 0 Z " fill="#867E75" transform="translate(43,79)"/>
<path d="M0 0 C1.02 0.53 1.02 0.53 2.06 1.06 C6.23 2.39 10.07 1.97 14 0 C13.65 3.26 12.98 4.02 10.44 6.25 C9.63 6.83 8.83 7.41 8 8 C4.68 6.83 2.17 5.85 0 3 C0 2.01 0 1.02 0 0 Z " fill="#151917" transform="translate(43,84)"/>
<path d="M0 0 C1.32 3.96 0.36 5.67 -1.06 9.56 C-1.47 10.72 -1.87 11.88 -2.29 13.07 C-4 16 -4 16 -7.18 17.4 C-8.58 17.7 -8.58 17.7 -10 18 C-6.73 11.96 -3.44 5.95 0 0 Z " fill="#AFA495" transform="translate(80,27)"/>
<path d="M0 0 C2.53 3.22 4.62 6.6 6.69 10.12 C7.31 11.18 7.93 12.23 8.57 13.32 C10 16 10 16 10 18 C6.66 17.1 5.27 16.4 3.31 13.5 C1.65 9.07 0.78 4.65 0 0 Z " fill="#968C7E" transform="translate(19,27)"/>
<path d="M0 0 C0 4.03 -1.61 5.84 -4 9 C-4.66 9 -5.32 9 -6 9 C-6 9.99 -6 10.98 -6 12 C-7.65 11.67 -9.3 11.34 -11 11 C-9.52 7.33 -7.52 5.59 -4.38 3.25 C-3.56 2.64 -2.74 2.02 -1.9 1.39 C-0.96 0.7 -0.96 0.7 0 0 Z " fill="#E2711E" transform="translate(64,56)"/>
<path d="M0 0 C3.19 1.44 5.62 3.2 8.25 5.5 C8.96 6.11 9.66 6.72 10.39 7.34 C12 9 12 9 12 11 C10.35 11.33 8.7 11.66 7 12 C5.83 10.38 4.66 8.75 3.5 7.12 C2.85 6.22 2.2 5.32 1.53 4.38 C0 2 0 2 0 0 Z " fill="#E3711E" transform="translate(35,56)"/>
<path d="M0 0 C0.66 0 1.32 0 2 0 C2.66 2.31 3.32 4.62 4 7 C4.99 6.67 5.98 6.34 7 6 C8.03 8.29 9.05 10.58 10.06 12.88 C10.36 13.53 10.65 14.18 10.96 14.85 C11.7 16.54 12.35 18.27 13 20 C12.67 20.66 12.34 21.32 12 22 C9.69 17.71 7.38 13.42 5 9 C4.01 9.33 3.02 9.66 2 10 C1.34 6.7 0.68 3.4 0 0 Z " fill="#B15218" transform="translate(51,12)"/>
<path d="M0 0 C2.97 0.33 5.94 0.66 9 1 C9 1.66 9 2.32 9 3 C10.32 3.66 11.64 4.32 13 5 C12.67 5.99 12.34 6.98 12 8 C11.51 7.57 11.01 7.13 10.5 6.69 C7.16 4.44 3.8 3.33 0 2 C0 1.34 0 0.68 0 0 Z " fill="#938A7E" transform="translate(8,53)"/>
<path d="M0 0 C0.89 0.8 1.77 1.61 2.69 2.44 C5.38 4.7 7.42 5.68 11 6 C10 8 10 8 7 10 C6.34 9.01 5.68 8.02 5 7 C3.35 7.33 1.7 7.66 0 8 C0 5.36 0 2.72 0 0 Z " fill="#A64215" transform="translate(63,16)"/>
<path d="M0 0 C1.98 0 3.96 0 6 0 C6.33 1.32 6.66 2.64 7 4 C4.69 5.12 4.69 5.12 2 6 C1.01 5.34 0.02 4.68 -1 4 C-0.67 2.68 -0.34 1.36 0 0 Z " fill="#450F0F" transform="translate(47,79)"/>
<path d="M0 0 C0.66 0.33 1.32 0.66 2 1 C-2.48 4.14 -7.07 6.64 -12 9 C-12.99 9.5 -12.99 9.5 -14 10 C-12.51 5.72 -9.96 4.61 -6 2.69 C-4.39 1.89 -4.39 1.89 -2.75 1.07 C-1.84 0.72 -0.94 0.37 0 0 Z " fill="#C05C1A" transform="translate(74,45)"/>
<path d="M0 0 C0.93 2.55 1.09 3.74 0.22 6.36 C-0.16 7.15 -0.54 7.94 -0.94 8.75 C-1.51 9.95 -1.51 9.95 -2.09 11.17 C-2.39 11.78 -2.69 12.38 -3 13 C-3.33 13 -3.66 13 -4 13 C-3.41 3.41 -3.41 3.41 0 0 Z " fill="#C4601B" transform="translate(37,7)"/>
<path d="M0 0 C2.77 3.47 4.96 7.06 7 11 C6.67 11.66 6.34 12.32 6 13 C3.34 11.67 3.05 10.32 1.88 7.62 C1.52 6.83 1.17 6.04 0.8 5.23 C0 3 0 3 0 0 Z " fill="#B3A89C" transform="translate(19,27)"/>
<path d="M0 0 C2.97 0.33 5.94 0.66 9 1 C8.01 1.33 7.02 1.66 6 2 C6 2.66 6 3.32 6 4 C4.02 3.34 2.04 2.68 0 2 C0 1.34 0 0.68 0 0 Z " fill="#181817" transform="translate(8,53)"/>
<path d="M0 0 C1.14 3.41 0.87 4 -0.44 7.19 C-0.72 7.9 -1.01 8.62 -1.31 9.36 C-1.65 10.17 -1.65 10.17 -2 11 C-3.25 9.44 -3.25 9.44 -4 7 C-2.93 4.43 -1.53 2.35 0 0 Z " fill="#968C80" transform="translate(80,27)"/>
<path d="M0 0 C1.32 0 2.64 0 4 0 C3.67 1.98 3.34 3.96 3 6 C2.01 5.67 1.02 5.34 0 5 C0 3.35 0 1.7 0 0 Z " fill="#9A9186" transform="translate(43,79)"/>
<path d="M0 0 C2.31 0.33 4.62 0.66 7 1 C5.35 2.65 3.7 4.3 2 6 C1.34 4.02 0.68 2.04 0 0 Z " fill="#302B24" transform="translate(73,56)"/>
<path d="M0 0 C0.33 0.66 0.66 1.32 1 2 C0.07 4.03 -0.93 6.04 -2 8 C-3.32 7.67 -4.64 7.34 -6 7 C-4.02 4.69 -2.04 2.38 0 0 Z " fill="#211413" transform="translate(64,66)"/>
<path d="M0 0 C8.57 -0.14 8.57 -0.14 12 1 C11.67 1.66 11.34 2.32 11 3 C6.91 3.24 3.82 2.42 0 1 C0 0.67 0 0.34 0 0 Z " fill="#4A100F" transform="translate(48,49)"/>
<path d="M0 0 C0.66 0 1.32 0 2 0 C2.66 3.3 3.32 6.6 4 10 C3.34 10 2.68 10 2 10 C1.34 6.7 0.68 3.4 0 0 Z " fill="#8D4319" transform="translate(51,12)"/>
</svg>
