<?xml version="1.0" encoding="UTF-8"?>
<!-- Generator: https://ezgif.com/png-to-svg -->
<svg version="1.1" xmlns="http://www.w3.org/2000/svg" width="512" height="512" viewBox="-147.105 -46.75 872.67 872.67" preserveAspectRatio="xMidYMid meet">
<path d="M0 0 C0.33 1.32 0.66 2.64 1 4 C-0.96 5.51 -2.78 6.89 -5 8 C-6.13 10.02 -6.13 10.02 -7 12 C-7.66 12 -8.32 12 -9 12 C-9.33 12.99 -9.66 13.98 -10 15 C-11.43 16.2 -12.86 17.39 -14.32 18.55 C-16.68 20.59 -18.58 22.92 -20.57 25.32 C-22.58 27.68 -24.81 29.81 -27 32 C-32.55 37.82 -36.85 44.12 -41 51 C-41.54 51.88 -42.08 52.77 -42.64 53.68 C-44.04 56.08 -45.05 58.39 -46 61 C-46.39 61.95 -46.78 62.9 -47.19 63.88 C-48.48 68.84 -47.84 72.43 -45.44 76.94 C-40.99 82.53 -36.88 87.6 -30 90 C-28.08 90.93 -26.19 91.9 -24.3 92.91 C-21.33 94.32 -18.29 95.4 -15.19 96.5 C-14.01 96.92 -12.82 97.35 -11.61 97.78 C-5.46 99.86 0.58 101.36 6.96 102.44 C7.63 102.62 8.31 102.81 9 103 C9.33 103.66 9.66 104.32 10 105 C10.63 104.99 11.25 104.98 11.9 104.96 C12.72 104.96 13.53 104.95 14.38 104.94 C15.19 104.93 16 104.91 16.84 104.9 C19 105 19 105 21 106 C23.88 106.23 26.74 106.42 29.62 106.56 C30.83 106.63 30.83 106.63 32.05 106.69 C34.04 106.8 36.02 106.9 38 107 C38 107.66 38 108.32 38 109 C39.3 108.81 40.6 108.63 41.94 108.44 C44.15 108.12 44.15 108.12 46 108 C46.33 108.33 46.66 108.66 47 109 C49.14 109.21 51.29 109.37 53.44 109.5 C59.78 109.89 59.78 109.89 62 111 C63.87 111.07 65.75 111.08 67.62 111.06 C68.63 111.05 69.63 111.04 70.66 111.04 C71.43 111.02 72.21 111.01 73 111 C73.33 111.66 73.66 112.32 74 113 C74.79 112.98 75.58 112.95 76.39 112.93 C83.55 112.81 90.27 113.32 97.32 114.56 C100.04 115.08 100.04 115.08 103 115 C103.99 115 104.98 115 106 115 C106 115.66 106 116.32 106 117 C107.98 117.33 109.96 117.66 112 118 C110.33 124.17 107.09 129.46 104 135 C100.22 142.01 97 149.94 97 158 C101.25 159.86 105.5 160.93 110 162 C110 162.66 110 163.32 110 164 C111.3 163.96 112.6 163.92 113.94 163.88 C118.84 163.86 123.28 164.75 128 166 C128 166.99 128 167.98 128 169 C128.72 168.8 129.43 168.6 130.17 168.39 C138.64 167.21 149.47 174.04 156.19 178.94 C161.14 182.8 164.77 186.62 168 192 C168.89 192.89 169.77 193.77 170.69 194.69 C173 197 173 197 173 199 C173.5 199.5 173.99 199.99 174.5 200.5 C175 201 175.49 201.49 176 202 C176 202.66 176 203.32 176 204 C176.72 204.68 177.44 205.36 178.19 206.06 C181.18 208.91 182.91 212.17 184.79 215.82 C186.05 218.09 187.26 220.06 189 222 C190.33 222.36 191.66 222.69 193 223 C203.45 227.67 214.12 232.87 222.14 241.23 C223.87 243.29 223.87 243.29 226.5 243 C229.09 242.17 229.09 242.17 230.75 240.11 C233.47 237.56 235.96 236.55 239.44 235.25 C241.11 234.61 241.11 234.61 242.81 233.95 C245.77 233.07 247.95 232.89 251 233 C251.33 232.67 251.66 232.34 252 232 C261.05 230.97 267.93 233.62 274.97 239.18 C278.64 242.47 282.04 246.06 285 250 C285 250.66 285 251.32 285 252 C288.92 253 292.4 253.75 296.17 251.98 C300.8 248.59 304.48 244.49 308 240 C308.6 239.26 309.2 238.53 309.82 237.77 C313.12 233.65 315.68 229.75 318 225 C320.19 222.62 320.19 222.62 322 221 C322.99 221.33 323.98 221.66 325 222 C325 223.65 325 225.3 325 227 C325.33 227 325.66 227 326 227 C326.11 232.46 325.92 237.62 325 243 C325.66 243 326.32 243 327 243 C327 258.51 327 274.02 327 290 C326.34 290 325.68 290 325 290 C325.19 290.91 325.37 291.81 325.56 292.75 C326.36 298.67 323.77 303.84 321 309 C318.33 312.12 316.88 313.71 313 315 C312.32 317.33 311.65 319.66 311 322 C309.19 325.01 307.48 327.52 305 330 C304.34 330.99 303.68 331.98 303 333 C302.01 333 301.02 333 300 333 C299.83 333.72 299.67 334.44 299.5 335.19 C296.75 340.34 291.71 342.38 286.38 344.31 C283.14 344.97 280.29 345.08 277 345 C276.67 345.33 276.34 345.66 276 346 C273.14 346.07 270.3 346.09 267.44 346.06 C266.63 346.06 265.82 346.05 264.99 346.05 C263 346.04 261 346.02 259 346 C259 346.33 259 346.66 259 347 C257.28 346.93 257.28 346.93 255.52 346.87 C243.06 346.75 236.99 349.66 228 358 C226.56 359.11 225.1 360.19 223.62 361.25 C220.41 363.63 217.41 366.21 214.45 368.9 C213 370 213 370 211 370 C209.31 371.64 207.65 373.31 206 375 C204.67 376 203.33 377 202 378 C201.2 378.8 200.39 379.61 199.56 380.44 C197.15 382.85 194.75 384.99 192 387 C191.34 387 190.68 387 190 387 C189.79 387.55 189.57 388.1 189.35 388.67 C187.54 391.79 185.05 393.95 182.38 396.31 C181.84 396.8 181.3 397.28 180.74 397.78 C179.66 398.74 178.58 399.71 177.5 400.67 C176.21 401.82 174.92 402.97 173.64 404.13 C170.82 406.66 168.15 408.91 164.94 410.94 C160.03 414.38 156.47 419.05 152.88 423.81 C150.82 426.21 148.7 427.4 146 429 C145.67 429.99 145.34 430.98 145 432 C145.87 432.03 146.75 432.05 147.65 432.08 C150.88 432.17 154.11 432.27 157.34 432.37 C158.73 432.42 160.13 432.46 161.53 432.5 C163.54 432.55 165.55 432.62 167.56 432.68 C168.77 432.72 169.98 432.76 171.22 432.79 C174 433 174 433 175 434 C177.33 434.35 179.66 434.68 182 435 C185.05 435.58 185.75 435.75 188 438 C188.84 438.4 188.84 438.4 189.69 438.81 C193.03 440.53 195.97 442.77 199 445 C199.8 444.17 199.8 444.17 200.62 443.32 C201.36 442.6 202.11 441.87 202.88 441.12 C203.59 440.41 204.31 439.69 205.05 438.95 C213.09 433.64 223.61 434.66 232.9 434.68 C235.19 434.69 237.49 434.66 239.79 434.64 C241.27 434.64 242.75 434.64 244.23 434.64 C244.91 434.63 245.58 434.62 246.28 434.61 C252.74 434.67 257.98 436.66 262.81 441 C263.38 441.5 263.94 441.99 264.52 442.5 C266 444 266 444 268 447 C268.54 446.26 269.07 445.51 269.62 444.75 C272.18 441.79 274.62 439.94 278 438 C278.99 438 279.98 438 281 438 C281.33 437.34 281.66 436.68 282 436 C287.59 435.93 293.17 435.87 298.76 435.84 C300.66 435.82 302.56 435.8 304.46 435.77 C307.19 435.74 309.93 435.72 312.66 435.71 C313.51 435.69 314.35 435.68 315.22 435.66 C320.31 435.66 323.49 436.41 328 439 C331.21 438.84 333.22 437.89 336.11 436.47 C340.34 434.65 344.2 434.57 348.75 434.6 C349.57 434.6 350.38 434.6 351.23 434.59 C352.94 434.59 354.66 434.6 356.38 434.61 C358.99 434.62 361.6 434.61 364.22 434.59 C365.9 434.59 367.57 434.6 369.25 434.6 C370.02 434.6 370.8 434.59 371.59 434.58 C377.61 434.66 382.48 435.77 387.12 439.88 C387.74 440.58 388.36 441.28 389 442 C389.89 442.78 390.77 443.57 391.69 444.38 C395.92 449.18 395.19 455.62 395.19 461.75 C395.19 462.54 395.19 463.34 395.19 464.15 C395.13 469.81 395.05 475.65 393 481 C392.01 481.5 392.01 481.5 391 482 C391.04 482.95 391.08 483.9 391.12 484.88 C391.12 489.65 390.41 494.44 389 499 C388.01 499.5 388.01 499.5 387 500 C387.06 501.55 387.06 501.55 387.12 503.12 C387 506.91 386.33 509.49 385 513 C384.65 514.33 384.31 515.66 384 517 C383.85 517.56 383.69 518.12 383.53 518.7 C382.58 522.81 382.15 527.02 381.6 531.2 C381.4 532.12 381.2 533.05 381 534 C380.34 534.33 379.68 534.66 379 535 C379.06 536.61 379.06 536.61 379.12 538.25 C379.01 541.77 378.67 543.08 377 546 C377 546.99 377 547.98 377 549 C376.67 549.99 376.34 550.98 376 552 C375.19 554.91 374.75 557.74 374.44 560.75 C374.35 561.55 374.27 562.35 374.18 563.17 C374.12 563.78 374.06 564.38 374 565 C373.34 565 372.68 565 372 565 C372.21 565.52 372.41 566.03 372.62 566.56 C373.05 569.35 372.46 571.26 371.61 573.92 C370.45 577.88 369.77 581.95 369 586 C368.34 586 367.68 586 367 586 C367.2 586.57 367.39 587.15 367.59 587.74 C368.08 590.45 367.6 591.64 366.5 594.12 C365.58 596.13 365.58 596.13 365 598 C365.33 598.66 365.66 599.32 366 600 C362.59 606.71 362.59 606.71 360 608 C359.67 608.99 359.34 609.98 359 611 C353.79 614.55 349.41 616 343 616 C343 616.66 343 617.32 343 618 C332 618 321 618 310 618 C310.03 619.86 310.03 619.86 310.06 621.75 C310.11 624.71 309.77 627.15 309 630 C308.52 632.62 308.05 635.23 307.6 637.86 C307.4 638.56 307.2 639.27 307 640 C306.34 640.33 305.68 640.66 305 641 C305.06 642.61 305.06 642.61 305.12 644.25 C305.01 647.76 304.63 649.07 303 652 C303.33 652.66 303.66 653.32 304 654 C303.37 655.35 302.7 656.68 302 658 C301.31 660.3 300.94 662.48 300.62 664.88 C299.13 672.36 294.61 678.01 289 683 C279.2 689 279.2 689 275 689 C275 688.34 275 687.68 275 687 C274.34 687.33 273.68 687.66 273 688 C270.2 688.1 267.43 688.13 264.64 688.12 C263.76 688.12 262.88 688.12 261.98 688.12 C259.03 688.12 256.08 688.12 253.13 688.11 C251.02 688.11 248.91 688.11 246.8 688.11 C241.06 688.11 235.32 688.11 229.58 688.1 C223.59 688.1 217.6 688.09 211.61 688.09 C200.25 688.09 188.9 688.08 177.54 688.07 C164.62 688.06 151.7 688.06 138.77 688.05 C112.18 688.04 85.59 688.02 59 688 C58.8 691.72 58.85 692.77 61 696 C61.29 698 61.58 700 61.78 702.01 C61.98 704.13 61.98 704.13 62.56 706.69 C63.03 709.17 63.07 711.48 63 714 C63.66 714 64.32 714 65 714 C65.82 716.87 66.63 719.75 67.44 722.62 C67.78 723.84 67.78 723.84 68.13 725.07 C69.1 728.5 69.97 731.82 70.54 735.34 C70.99 737.96 71.76 739.67 73 742 C73.49 743.53 73.95 745.07 74.38 746.62 C75.4 750.16 76.58 753.54 78 756.94 C80.16 762.17 81.62 767.51 83 773 C83.19 773.77 83.38 774.53 83.58 775.32 C83.79 776.15 83.79 776.15 84 777 C77.5 779.17 71.81 775.81 66 773 C64.9 772.47 63.8 771.94 62.66 771.39 C42.87 761.73 42.87 761.73 41 758 C39.68 757.31 38.34 756.64 37 756 C29.57 751.22 22.75 745.69 16 740 C14.78 738.98 14.78 738.98 13.53 737.94 C12.8 737.32 12.07 736.7 11.31 736.06 C10.67 735.52 10.03 734.97 9.36 734.41 C8 733 8 733 8 731 C7.44 730.77 6.89 730.55 6.31 730.31 C3.33 728.62 1.37 726.48 -1 724 C-1.52 723.5 -2.03 723 -2.56 722.49 C-7.02 718.17 -10.84 713.58 -14.56 708.62 C-15.13 707.88 -15.69 707.13 -16.27 706.36 C-27 692.08 -27 692.08 -27 688 C-35.31 687.98 -43.62 687.96 -51.93 687.95 C-55.79 687.94 -59.65 687.94 -63.51 687.92 C-67.23 687.91 -70.95 687.91 -74.67 687.91 C-76.09 687.9 -77.51 687.9 -78.94 687.89 C-80.92 687.89 -82.91 687.89 -84.9 687.89 C-86.6 687.88 -86.6 687.88 -88.33 687.88 C-90.97 687.82 -90.97 687.82 -93 689 C-99.58 685.9 -104.1 681.84 -107 675 C-107.77 669.09 -107.03 662.61 -105 657 C-104.34 656.67 -103.68 656.34 -103 656 C-102.59 653.68 -102.27 651.34 -102 649 C-101.56 645.62 -101.56 645.62 -101 643 C-100.34 642.67 -99.68 642.34 -99 642 C-98.73 640.09 -98.47 638.18 -98.28 636.26 C-97.66 631.22 -96.42 626.49 -94 622 C-94 621.34 -94 620.68 -94 620 C-94.68 619.99 -95.36 619.98 -96.05 619.97 C-103.11 619.86 -110.17 619.75 -117.22 619.63 C-119.86 619.58 -122.49 619.54 -125.12 619.5 C-128.91 619.44 -132.7 619.38 -136.48 619.32 C-137.66 619.3 -138.83 619.28 -140.05 619.27 C-141.15 619.25 -142.25 619.23 -143.38 619.21 C-144.83 619.18 -144.83 619.18 -146.31 619.16 C-148.99 619 -151.42 618.72 -154 618 C-154.33 617.34 -154.66 616.68 -155 616 C-155.93 615.86 -156.86 615.71 -157.81 615.56 C-161.17 614.97 -162.43 614.12 -165 612 C-165.99 611.67 -166.98 611.34 -168 611 C-168.33 610.34 -168.66 609.68 -169 609 C-169.62 608.71 -170.23 608.41 -170.87 608.11 C-175.42 605.74 -178.2 600.61 -180.44 596.12 C-181 594 -181 594 -180 592 C-180.99 591.67 -181.98 591.34 -183 591 C-184.68 580.71 -185.46 568.22 -183 558 C-182.34 557.67 -181.68 557.34 -181 557 C-180.57 554.58 -180.57 554.58 -180.44 551.75 C-180.19 548.08 -179.79 544.6 -179 541 C-178.34 541 -177.68 541 -177 541 C-176.92 539.95 -176.84 538.9 -176.75 537.81 C-175.45 531.19 -171.21 528.05 -165.97 524.23 C-163.68 522.8 -161.7 522.17 -159 522 C-159.86 517.53 -160.73 513.31 -162.69 509.19 C-164.03 505.94 -164.16 505.15 -163 502 C-163.33 501.34 -163.66 500.68 -164 500 C-164.23 492.7 -164.23 492.7 -163 489 C-163 487.68 -163 486.36 -163 485 C-160.93 469.47 -154.2 456.01 -142 446 C-141.34 446 -140.68 446 -140 446 C-139.28 445.26 -138.56 444.51 -137.81 443.75 C-130.59 436.69 -121.15 433.84 -111.16 433.75 C-109.1 433.79 -107.05 433.85 -104.99 433.93 C-103.89 433.95 -102.8 433.98 -101.67 434.01 C-98.22 434.09 -94.77 434.2 -91.31 434.31 C-88.95 434.38 -86.6 434.44 -84.24 434.5 C-78.49 434.65 -72.75 434.82 -67 435 C-67.98 433.8 -67.98 433.8 -69.79 433.88 C-70.57 433.88 -71.35 433.88 -72.15 433.89 C-73.47 433.89 -73.47 433.89 -74.82 433.89 C-76.26 433.89 -76.26 433.89 -77.72 433.9 C-79.19 433.9 -79.19 433.9 -80.68 433.91 C-83.81 433.91 -86.93 433.92 -90.06 433.94 C-92.18 433.94 -94.29 433.95 -96.41 433.95 C-101.61 433.96 -106.8 433.98 -112 434 C-112 433.67 -112 433.34 -112 433 C-97.81 433 -83.62 433 -69 433 C-69 429.7 -69 426.4 -69 423 C-68.67 422.34 -68.34 421.68 -68 421 C-67.98 419.56 -68.01 418.12 -68.06 416.69 C-68.13 411.26 -67.35 406.12 -66.44 400.79 C-65.92 397.98 -65.92 397.98 -66 395 C-65.87 393.48 -65.73 391.96 -65.56 390.44 C-65.44 389.26 -65.44 389.26 -65.32 388.06 C-65 386 -65 386 -64 384 C-63.61 381.69 -63.26 379.38 -62.94 377.06 C-62.76 375.82 -62.58 374.57 -62.4 373.29 C-61.94 370.06 -61.94 370.06 -62 367 C-61.34 366.67 -60.68 366.34 -60 366 C-60.04 365.05 -60.08 364.1 -60.12 363.12 C-60.14 358.29 -59.06 353.69 -58 349 C-57.34 349 -56.68 349 -56 349 C-56.04 347.87 -56.08 346.73 -56.12 345.56 C-56.12 340.94 -55.55 336.37 -54 332 C-53.34 331.67 -52.68 331.34 -52 331 C-52.03 329.92 -52.03 329.92 -52.06 328.81 C-52 326.08 -51.61 323.66 -51 321 C-50.34 321 -49.68 321 -49 321 C-49.33 320.01 -49.66 319.02 -50 318 C-49.34 317.67 -48.68 317.34 -48 317 C-47.73 315.07 -47.48 313.14 -47.28 311.2 C-46.74 306.99 -45.34 303.01 -44 299 C-43.52 297.51 -43.03 296.02 -42.55 294.54 C-39.7 285.82 -36.85 277.18 -33.19 268.77 C-31.39 264.57 -29.81 260.29 -28.21 256.01 C-27 253 -27 253 -25.35 249.8 C-23.78 247.07 -23.78 247.07 -24 244 C-24.64 243.88 -25.28 243.76 -25.93 243.63 C-27.17 243.38 -27.17 243.38 -28.44 243.12 C-29.67 242.88 -29.67 242.88 -30.93 242.63 C-31.62 242.42 -32.3 242.22 -33 242 C-33.33 241.34 -33.66 240.68 -34 240 C-36.33 239.64 -38.66 239.31 -41 239 C-43.44 238.13 -45.69 237.16 -48 236 C-49.16 235.48 -50.31 234.97 -51.5 234.44 C-56.06 232.18 -59.8 229.14 -63.7 225.9 C-65.95 223.99 -65.95 223.99 -68.3 222.38 C-68.86 221.92 -69.42 221.47 -70 221 C-70 220.34 -70 219.68 -70 219 C-70.9 218.57 -70.9 218.57 -71.81 218.12 C-74 217 -74 217 -77 215 C-77 214.34 -77 213.68 -77 213 C-77.62 212.73 -78.24 212.46 -78.88 212.19 C-81 211 -81 211 -83 208 C-82.89 204.78 -81.79 203.78 -79.56 201.38 C-78.29 200.2 -78.29 200.2 -77 199 C-76.34 198.34 -75.68 197.68 -75 197 C-74.01 197 -73.02 197 -72 197 C-71.77 196.43 -71.54 195.87 -71.3 195.28 C-67.63 188.84 -60.28 183.8 -54 180 C-54.81 179.53 -55.62 179.06 -56.45 178.57 C-57.52 177.95 -58.59 177.33 -59.69 176.69 C-60.74 176.07 -61.8 175.46 -62.89 174.82 C-63.91 174.22 -64.94 173.62 -66 173 C-66.84 172.51 -67.68 172.02 -68.55 171.51 C-76.48 166.62 -83.67 161.17 -89.5 153.88 C-91.75 150.96 -91.75 150.96 -94.44 149.61 C-97.31 147.81 -98.63 146.12 -100.5 143.31 C-101.09 142.42 -101.69 141.53 -102.3 140.62 C-102.86 139.75 -103.42 138.89 -104 138 C-104.47 137.3 -104.94 136.6 -105.42 135.88 C-110.55 128.03 -114.43 119.3 -116 110 C-115.82 109.29 -115.64 108.59 -115.45 107.86 C-115.23 106.94 -115.23 106.94 -115 106 C-115.66 105.01 -116.32 104.02 -117 103 C-117.01 100.84 -117.01 100.84 -116.69 98.5 C-116.59 97.73 -116.49 96.95 -116.39 96.16 C-116 94 -116 94 -115 91 C-115.66 91 -116.32 91 -117 91 C-117 89.68 -117 88.36 -117 87 C-116.34 87 -115.68 87 -115 87 C-115.2 86.14 -115.4 85.29 -115.61 84.41 C-116.53 76.42 -112.72 68.29 -108 62 C-107.31 60.34 -106.64 58.68 -106 57 C-104.5 54.19 -104.5 54.19 -103 52 C-102.34 52 -101.68 52 -101 52 C-100.92 51.4 -100.83 50.8 -100.75 50.19 C-99.77 47.33 -98.46 46.71 -96 45 C-95.13 44.13 -94.27 43.27 -93.38 42.38 C-91 40 -91 40 -89 39 C-89 38.34 -89 37.68 -89 37 C-82.52 30.94 -73.71 24.04 -65 22 C-63.76 21.01 -63.76 21.01 -62.5 20 C-59.99 17.99 -58.99 17.7 -56 17 C-54.97 16.38 -53.94 15.76 -52.88 15.12 C-49.26 12.98 -45.63 11.9 -41.6 10.79 C-38.99 10 -36.57 9.01 -34.06 7.94 C-29.62 6.1 -25.34 5.25 -20.61 4.5 C-18.11 4.02 -15.93 3.32 -13.56 2.38 C-10 1 -10 1 -6 1 C-1.75 0 -1.75 0 0 0 Z M97 145 C98 147 98 147 98 147 Z M324 234 C325 236 325 236 325 236 Z M-29 260 C-28 262 -28 262 -28 262 Z M-162 507 C-161 510 -161 510 -161 510 Z M308 615 C308.33 615.99 308.66 616.98 309 618 C309 617.34 309 616.68 309 616 C309.99 615.67 310.98 615.34 312 615 C310.68 615 309.36 615 308 615 Z M66 724 C67 726 67 726 67 726 Z M78 762 C79 764 79 764 79 764 Z " fill="#FDFCFC" transform="translate(184,0)"/>
<path d="M0 0 C0.66 0.33 1.32 0.66 2 1 C1.47 1.68 0.94 2.36 0.39 3.05 C-5.5 10.81 -10.93 18.58 -10.38 28.72 C-8.41 40.59 -0.42 49.98 9 57 C29.88 71.12 51.06 77.61 75.68 81.62 C77.58 81.93 79.46 82.27 81.35 82.62 C89.78 84.16 98.29 84.89 106.81 85.69 C112.6 86.25 118.39 86.84 124.18 87.42 C127.5 87.75 130.82 88.08 134.14 88.41 C136.09 88.61 138.05 88.8 140 89 C139.61 92.84 139.06 95.87 137.46 99.4 C135.73 103.66 135.52 107.02 135.56 111.56 C135.54 112.29 135.52 113.02 135.5 113.77 C135.51 118.97 136.63 121.86 140 126 C146.51 132.22 153.67 135.28 162.44 137 C164.02 137.34 165.61 137.67 167.19 138.01 C169.56 138.5 171.92 138.98 174.29 139.47 C190.74 142.87 203.58 148.17 213.62 162.5 C215 165 215 165 215 167 C204.43 171.25 193.16 170.29 182 170 C182.25 171.59 182.51 173.18 182.79 174.76 C182.94 175.65 183.08 176.53 183.23 177.44 C184.64 182.13 187.96 184.51 192 187 C199.68 190.83 206.45 192.99 215.03 193.24 C237.38 193.95 257.45 201.13 273.07 217.59 C276.74 221.68 279.71 226.22 282.53 230.92 C285.1 235.12 287.53 237.65 292 240 C295.23 240.79 295.23 240.79 298 241 C297.98 240.39 297.97 239.78 297.95 239.15 C297.89 236.37 297.85 233.59 297.81 230.81 C297.77 229.37 297.77 229.37 297.74 227.9 C297.67 221.69 298.19 218.17 302.4 213.42 C307.02 209.71 311.29 209.18 317.14 209.46 C324.5 210.85 328.07 217.3 332.3 222.95 C335.7 227.05 339.83 229.61 345.2 230.27 C351.08 230.51 354.54 229.69 359.31 226.19 C361 225 361 225 364 224 C364.09 227.37 364.14 230.75 364.19 234.12 C364.23 235.55 364.23 235.55 364.26 237.01 C364.32 242.42 364.16 246.37 361 251 C359.39 252.44 359.39 252.44 357.69 253.56 C353.23 257.09 351.62 261.7 349.55 266.88 C347.84 270.33 345.84 272.43 343 275 C342.67 275.33 342.34 275.66 342 276 C331.05 277.2 319.93 277.15 308.93 277.23 C307.44 277.24 305.95 277.26 304.46 277.28 C302.33 277.31 300.2 277.32 298.07 277.33 C296.83 277.34 295.59 277.35 294.31 277.36 C288.29 276.71 285.34 273.54 281.56 269.06 C277.23 264.11 272.98 259.46 266.04 258.82 C259.65 258.73 254.4 260.09 248.37 262.05 C235.32 266.02 221.79 266.33 208.27 266.26 C205.8 266.25 203.34 266.26 200.87 266.27 C179.3 266.29 161.69 262.63 145.77 247.09 C133 234.3 133 234.3 133 231 C132.34 231 131.68 231 131 231 C131.45 244.82 133.62 257.14 144 267 C159.15 278.66 176.96 280.3 195.43 281.17 C197.05 281.25 198.66 281.34 200.28 281.42 C204.48 281.65 208.67 281.85 212.87 282.06 C217.17 282.27 221.48 282.5 225.78 282.72 C234.19 283.16 242.59 283.59 251 284 C247.7 287.42 244.25 289.83 240.19 292.25 C217.81 305.95 196.78 321.78 177 339 C176.08 339.79 175.17 340.58 174.23 341.4 C169.73 345.36 165.56 349.4 161.7 353.99 C160.54 355.36 159.34 356.7 158.11 358.01 C150.64 365.97 144.73 375.17 140 385 C140.33 385.33 140.66 385.66 141 386 C141.81 385.27 142.63 384.55 143.46 383.8 C163.58 366.06 188.5 347.55 215 341 C217.39 341.38 217.39 341.38 219 342 C217.5 343.35 216 344.71 214.5 346.06 C213.66 346.82 212.83 347.57 211.97 348.35 C210.42 349.73 208.87 351.11 207.29 352.46 C201.48 357.43 196.04 362.77 190.64 368.18 C189.07 369.74 187.5 371.29 185.93 372.84 C179.49 379.25 173.65 385.88 168 393 C163.65 398.21 159.46 402.61 153.89 406.52 C151.25 408.59 149.27 411.04 147.23 413.68 C146.82 414.12 146.42 414.55 146 415 C145.34 415 144.68 415 144 415 C143.65 414.11 143.65 414.11 143.3 413.21 C139.86 404.86 134.96 399.88 126.73 395.9 C123.45 394.82 120.71 394.73 117.26 394.71 C116.6 394.7 115.94 394.7 115.26 394.69 C113.1 394.67 110.93 394.67 108.77 394.66 C107.25 394.66 105.74 394.65 104.22 394.64 C101.05 394.63 97.87 394.63 94.69 394.63 C90.65 394.63 86.6 394.6 82.55 394.57 C79.42 394.55 76.29 394.54 73.15 394.54 C71.66 394.54 70.17 394.53 68.68 394.52 C57.25 394.41 48 395.91 38.83 403.14 C35.44 406.58 33.22 410.74 31 415 C28.4 412.5 26.22 410.03 24.19 407.06 C22.05 404.06 20.4 402.57 17.12 400.94 C14.59 399.2 14.07 398.38 13.49 395.31 C13.44 392.02 13.56 388.83 13.81 385.56 C14.02 382.68 14.18 379.8 14.33 376.93 C15.27 361.11 17.34 345.61 20 330 C20.27 328.34 20.55 326.68 20.82 325.02 C21.99 318.03 23.33 311.13 25.14 304.29 C25.79 301.82 26.38 299.36 26.95 296.87 C30.58 281.24 35.78 266.16 41 251 C41.68 249.02 42.35 247.04 43.03 245.05 C46.06 236.23 49.28 227.56 53 219 C53.68 217.39 54.35 215.78 55.03 214.17 C59.63 203.22 64.56 192.55 70 182 C71 180 72 178 73 176 C73.67 174.67 74.33 173.33 75 172 C74.46 172.12 73.92 172.24 73.37 172.37 C52.12 177.08 35.34 177.01 16 166 C13.8 164.45 11.96 162.87 10 161 C10 160.34 10 159.68 10 159 C11.89 157.48 13.75 156.11 15.75 154.75 C16.34 154.35 16.93 153.95 17.54 153.53 C28.38 146.31 39.48 142.22 52 139 C53.8 138.53 53.8 138.53 55.64 138.06 C64.4 135.99 73.03 135.34 82 135 C81.67 134.01 81.34 133.02 81 132 C80.14 131.84 79.28 131.68 78.39 131.52 C43.36 124.83 8.66 114.94 -17 89 C-17.77 88.25 -18.54 87.5 -19.34 86.73 C-31.59 74.08 -33.67 59.69 -33.41 42.8 C-32.79 29.25 -25.27 18.72 -15.56 9.75 C-10.83 5.7 -5.95 1.98 0 0 Z " fill="#7B2E2F" transform="translate(124,43)"/>
<path d="M0 0 C2.43 0.11 4.4 0.31 6.69 1.12 C7.18 2.11 7.18 2.11 7.69 3.12 C9.61 3.52 9.61 3.52 11.88 3.62 C17.33 4.12 21.83 5.62 26.69 8.12 C27.76 8.58 28.83 9.03 29.94 9.5 C47.18 16.82 65.13 27.49 72.76 45.3 C73.96 48.95 74.33 52.4 74.45 56.23 C74.53 56.85 74.61 57.48 74.69 58.12 C75.35 58.45 76.01 58.78 76.69 59.12 C76.69 60.44 76.69 61.76 76.69 63.12 C76.03 63.12 75.37 63.12 74.69 63.12 C74.69 66.43 74.69 69.72 74.69 73.12 C75.35 73.12 76.01 73.12 76.69 73.12 C76.69 74.78 76.69 76.43 76.69 78.12 C75.7 78.62 75.7 78.62 74.69 79.12 C74.75 80.26 74.81 81.39 74.88 82.56 C74.84 93.31 68.81 103.42 61.69 111.12 C60.35 111.79 59.02 112.46 57.69 113.12 C57.36 114.12 57.03 115.11 56.69 116.12 C54.65 117.6 52.66 118.91 50.5 120.19 C49.65 120.71 49.65 120.71 48.79 121.25 C44.75 123.7 40.51 126.12 35.69 126.12 C35.36 126.78 35.03 127.44 34.69 128.12 C32.91 128.76 32.91 128.76 30.75 129.25 C30.04 129.42 29.33 129.59 28.6 129.76 C26.69 130.12 26.69 130.12 24.69 130.12 C24.36 130.78 24.03 131.44 23.69 132.12 C21.14 132.76 21.14 132.76 17.94 133.25 C16.89 133.42 15.84 133.59 14.77 133.76 C12.03 134.08 9.44 134.2 6.69 134.12 C6.36 134.78 6.03 135.44 5.69 136.12 C4.53 136.11 4.53 136.11 3.35 136.09 C2.35 136.08 1.35 136.07 0.31 136.06 C-1.18 136.05 -1.18 136.05 -2.71 136.03 C-5.3 135.94 -5.3 135.94 -7.31 137.12 C-9.65 137.12 -11.98 137.12 -14.31 137.12 C-14.64 137.46 -14.97 137.78 -15.31 138.12 C-17.53 138.21 -19.75 138.23 -21.97 138.22 C-22.97 138.22 -22.97 138.22 -23.99 138.22 C-26.12 138.21 -28.25 138.2 -30.38 138.19 C-31.82 138.18 -33.26 138.18 -34.7 138.17 C-38.24 138.16 -41.77 138.15 -45.31 138.12 C-45.31 137.47 -45.31 136.81 -45.31 136.12 C-45.97 136.12 -46.63 136.12 -47.31 136.12 C-48.44 131.38 -48.44 131.38 -47.31 129.12 C-48.3 129.12 -49.29 129.12 -50.31 129.12 C-50.57 128.38 -50.83 127.64 -51.09 126.88 C-56.2 112.82 -63.06 99.91 -72.31 88.12 C-73.14 87.01 -73.14 87.01 -73.98 85.88 C-77.89 80.67 -82.18 75.9 -86.67 71.2 C-88.89 68.83 -90.27 67.25 -91.31 64.12 C-92.94 62.51 -92.94 62.51 -94.94 60.94 C-99.11 57.39 -103.17 53.64 -106.31 49.12 C-106.31 46.12 -106.31 46.12 -105.31 44.12 C-104.65 44.12 -103.99 44.12 -103.31 44.12 C-103.31 44.78 -103.31 45.44 -103.31 46.12 C-102.63 46.12 -101.95 46.11 -101.25 46.11 C-98.17 46.09 -95.08 46.08 -92 46.06 C-90.93 46.05 -89.86 46.05 -88.75 46.04 C-87.72 46.03 -86.7 46.03 -85.64 46.03 C-84.69 46.02 -83.74 46.02 -82.76 46.01 C-80.31 46.12 -80.31 46.12 -77.31 47.12 C-75.72 47.25 -74.13 47.33 -72.53 47.37 C-71.61 47.4 -70.68 47.44 -69.73 47.47 C-67.79 47.53 -65.84 47.59 -63.89 47.64 C-62.51 47.69 -62.51 47.69 -61.09 47.75 C-59.83 47.78 -59.83 47.78 -58.53 47.82 C-56.31 48.12 -56.31 48.12 -53.31 50.12 C-50.8 50.29 -50.8 50.29 -48.06 50.12 C-43.32 50.02 -39.8 50.69 -35.31 52.12 C-34.65 51.8 -33.99 51.47 -33.31 51.12 C-31.83 51.62 -31.83 51.62 -30.31 52.12 C-28.92 52.19 -27.52 52.21 -26.12 52.19 C-24.87 52.17 -23.61 52.15 -22.31 52.12 C-22.31 52.78 -22.31 53.44 -22.31 54.12 C-14.06 54.12 -5.81 54.12 2.69 54.12 C3.18 53.14 3.18 53.14 3.69 52.12 C4.68 51.82 5.67 51.51 6.69 51.19 C7.68 50.84 8.67 50.49 9.69 50.12 C10.02 49.13 10.35 48.15 10.69 47.12 C11.35 47.12 12.01 47.12 12.69 47.12 C12.2 42.34 11.56 38.57 9.69 34.12 C9.49 32.75 9.49 32.75 9.28 31.36 C8.66 27.96 7.59 25.22 6.19 22.06 C4.89 19.14 3.77 16.56 3.19 13.41 C2.84 10.83 2.84 10.83 0.19 8.62 C-2.45 5.99 -3.11 4.79 -3.31 1.12 C-2.31 0.12 -2.31 0.12 0 0 Z " fill="#FEFDFD" transform="translate(430.3125,70.875)"/>
<path d="M0 0 C1.3 -0.01 2.6 -0.03 3.94 -0.04 C5.36 -0.05 6.79 -0.05 8.21 -0.06 C9.29 -0.07 9.29 -0.07 10.39 -0.07 C14.19 -0.09 17.99 -0.11 21.79 -0.12 C25.71 -0.13 29.62 -0.16 33.54 -0.2 C36.56 -0.23 39.58 -0.24 42.6 -0.24 C44.04 -0.25 45.48 -0.26 46.92 -0.28 C61.24 -0.45 61.24 -0.45 66.83 4.18 C72.77 11.87 68.39 31.3 67.72 40.57 C67.36 45.49 67.02 50.42 66.68 55.34 C66.57 56.89 66.57 56.89 66.46 58.48 C65.94 66.22 65.49 73.96 65.06 81.7 C65 82.82 64.94 83.95 64.88 85.1 C64.76 87.36 64.63 89.62 64.51 91.88 C63.48 110.74 62.12 129.42 59.83 148.18 C46.63 148.18 33.43 148.18 19.83 148.18 C19.83 136.89 19.95 125.98 20.85 114.79 C20.96 113.39 21.06 111.99 21.17 110.59 C21.45 106.96 21.74 103.32 22.03 99.69 C22.26 96.77 22.48 93.86 22.71 90.95 C23.98 74.35 25.34 57.76 26.83 41.18 C22.21 41.51 17.59 41.84 12.83 42.18 C8.01 55.13 3.36 68.13 -1.17 81.18 C5.1 81.18 11.37 81.18 17.83 81.18 C17.83 86.36 17.73 91.07 17.2 96.16 C17.07 97.43 16.94 98.69 16.81 99.99 C16.67 101.29 16.53 102.59 16.39 103.93 C16.25 105.25 16.12 106.58 15.98 107.91 C14.96 117.65 14.96 117.65 13.83 122.18 C3.27 122.18 -7.29 122.18 -18.17 122.18 C-18.5 124.49 -18.83 126.8 -19.17 129.18 C-20.26 132.24 -20.26 132.24 -21.55 135.18 C-21.97 136.15 -22.39 137.12 -22.82 138.11 C-23.27 139.13 -23.72 140.14 -24.17 141.18 C-25.16 143.49 -26.15 145.8 -27.17 148.18 C-41.03 148.18 -54.89 148.18 -69.17 148.18 C-67.37 142.16 -65.87 137.33 -63.33 131.82 C-60.05 124.32 -57.4 116.52 -54.58 108.83 C-48.66 92.65 -42.57 76.53 -36.11 60.55 C-33.07 53.03 -30.25 45.43 -27.42 37.82 C-25.37 32.31 -23.26 26.84 -21.05 21.39 C-20.32 19.53 -19.62 17.66 -18.94 15.79 C-15.31 6.12 -10.73 0.09 0 0 Z " fill="#87888B" transform="translate(185.174560546875,451.822998046875)"/>
<path d="M0 0 C13.53 0 27.06 0 41 0 C40.36 4.49 39.68 8.73 38.7 13.13 C38.44 14.27 38.19 15.41 37.93 16.58 C37.66 17.75 37.4 18.92 37.12 20.12 C36.87 21.27 36.61 22.42 36.35 23.6 C34.6 31.41 32.8 39.2 31 47 C40.24 47 49.48 47 59 47 C59.33 44.03 59.66 41.06 60 38 C60.66 34.25 61.49 30.53 62.31 26.81 C62.51 25.87 62.71 24.93 62.92 23.97 C64.62 16.17 66.8 8.71 69 1 C82.53 1 96.06 1 110 1 C107.75 14.5 107.75 14.5 106.48 20.18 C106.26 21.14 106.26 21.14 106.05 22.11 C105.58 24.22 105.1 26.33 104.62 28.44 C104.28 29.98 103.93 31.53 103.59 33.07 C102.61 37.41 101.63 41.76 100.65 46.1 C99.97 49.14 99.28 52.18 98.6 55.23 C93.4 78.27 88.18 101.3 82.88 124.31 C82.6 125.52 82.6 125.52 82.31 126.76 C81.79 129.02 81.27 131.29 80.74 133.55 C80.45 134.81 80.16 136.06 79.86 137.35 C78.94 141.24 77.97 145.12 77 149 C63.47 149 49.94 149 36 149 C37.13 138.87 37.13 138.87 37.89 135.41 C38.06 134.62 38.23 133.84 38.41 133.04 C38.68 131.82 38.68 131.82 38.96 130.57 C39.25 129.27 39.25 129.27 39.54 127.94 C39.94 126.11 40.35 124.29 40.76 122.46 C41.37 119.71 41.98 116.95 42.59 114.19 C42.98 112.4 43.38 110.61 43.77 108.82 C43.95 108.02 44.13 107.21 44.31 106.38 C45.76 99.89 47.38 93.46 49 87 C39.76 87 30.52 87 21 87 C20.67 89.64 20.34 92.28 20 95 C19.63 96.93 19.23 98.86 18.8 100.77 C18.56 101.83 18.33 102.89 18.08 103.99 C17.83 105.11 17.57 106.22 17.31 107.38 C17.05 108.54 16.79 109.71 16.52 110.91 C13.73 123.28 10.87 135.64 8 148 C-5.53 148 -19.06 148 -33 148 C-32.36 140.93 -31.74 135.43 -29.96 128.79 C-28.39 122.57 -27.11 116.29 -25.8 110.01 C-25.6 109.05 -25.39 108.09 -25.18 107.1 C-25 106.24 -24.82 105.38 -24.64 104.49 C-24 102 -24 102 -23 99.51 C-21.96 96.91 -21.38 94.46 -20.85 91.71 C-20.65 90.7 -20.45 89.68 -20.25 88.64 C-20.04 87.56 -19.84 86.48 -19.62 85.38 C-19.18 83.12 -18.74 80.86 -18.3 78.61 C-18.08 77.49 -17.86 76.37 -17.63 75.22 C-15.6 64.91 -13.48 54.63 -10.84 44.46 C-10.14 41.58 -9.5 38.69 -8.88 35.79 C-8.67 34.82 -8.47 33.85 -8.25 32.85 C-7.85 30.95 -7.46 29.05 -7.06 27.15 C-5.12 17.93 -2.54 9.15 0 0 Z " fill="#6B6C70" transform="translate(398,452)"/>
<path d="M0 0 C1.13 -0.01 2.27 -0.03 3.44 -0.04 C4.65 -0.04 5.86 -0.04 7.11 -0.05 C8.37 -0.05 9.63 -0.06 10.93 -0.07 C13.59 -0.08 16.25 -0.08 18.92 -0.08 C22.31 -0.08 25.7 -0.11 29.09 -0.14 C32.35 -0.17 35.61 -0.17 38.86 -0.17 C40.68 -0.19 40.68 -0.19 42.53 -0.21 C50.59 -0.17 56.01 0.82 62.33 6.15 C62.86 6.77 63.39 7.4 63.93 8.04 C64.48 8.65 65.02 9.27 65.58 9.9 C69.7 16.29 70.58 22.29 70.43 29.79 C70.44 30.59 70.44 31.4 70.44 32.22 C70.39 37.79 69.55 41.58 68.12 47.29 C54.59 47.29 41.06 47.29 27.12 47.29 C27.12 45.31 27.12 43.33 27.12 41.29 C20.19 41.29 13.26 41.29 6.12 41.29 C9.27 44.44 11.04 46 14.75 47.99 C15.64 48.47 16.52 48.95 17.43 49.45 C18.36 49.96 19.29 50.46 20.25 50.98 C28.15 55.38 34.91 59.65 41.12 66.29 C41.68 66.82 42.25 67.36 42.83 67.91 C49.94 75.15 53.48 85.1 53.62 95.1 C53.37 100.75 52.61 105.86 51.12 111.29 C50.85 112.53 50.59 113.77 50.31 115.04 C47.52 127.76 43.16 137.56 32.12 145.29 C25.83 148.68 19.89 151.39 12.69 151.48 C11.58 151.5 10.47 151.52 9.32 151.53 C4.23 151.58 -0.87 151.62 -5.96 151.64 C-8.65 151.65 -11.33 151.68 -14.01 151.72 C-17.89 151.78 -21.76 151.8 -25.64 151.81 C-26.83 151.84 -28.02 151.86 -29.25 151.88 C-37.93 151.86 -43.57 149.95 -50.18 144.33 C-57 136.28 -58.5 129.76 -57.88 119.29 C-57.3 115.34 -56.47 111.49 -55.57 107.6 C-55.35 106.62 -55.14 105.64 -54.92 104.63 C-53.63 98.87 -51.99 93.92 -49.88 88.29 C-36.35 88.29 -22.82 88.29 -8.88 88.29 C-10.88 100.29 -10.88 100.29 -13.88 110.29 C-5.96 110.29 1.96 110.29 10.12 110.29 C10.58 101.4 10.58 101.4 6.12 95.29 C1.33 91.29 -3.89 88.23 -9.43 85.41 C-21.02 79.5 -30.94 71.92 -36.01 59.52 C-39.57 46.29 -36.68 30.54 -30.07 18.79 C-23.11 8.28 -13.06 0.1 0 0 Z " fill="#68696D" transform="translate(308.87841796875,450.70947265625)"/>
<path d="M0 0 C1.22 -0 2.43 -0.01 3.68 -0.01 C6.25 -0.02 8.82 -0.02 11.38 -0.01 C15.3 -0.01 19.21 -0.04 23.13 -0.06 C25.63 -0.06 28.13 -0.06 30.62 -0.06 C31.79 -0.07 32.95 -0.08 34.15 -0.09 C43.16 -0.04 50.1 1.32 56.91 7.56 C62.85 14.28 63.63 21.95 63.63 30.61 C63.65 31.33 63.66 32.06 63.67 32.8 C63.67 33.52 63.67 34.24 63.68 34.98 C63.68 35.62 63.68 36.25 63.69 36.91 C63.33 40.44 62.3 43.86 61.45 47.3 C47.59 47.3 33.73 47.3 19.45 47.3 C19.78 45.32 20.11 43.34 20.45 41.3 C10.05 41.8 10.05 41.8 -0.55 42.3 C4.45 46 9.35 49.33 14.91 52.09 C28.07 58.67 39.53 68.25 44.6 82.55 C48.41 99.42 45.04 119.36 36.45 134.3 C30.31 143.36 20.95 148.76 10.45 151.3 C6.23 151.72 2.05 151.72 -2.18 151.7 C-3.37 151.7 -4.56 151.7 -5.79 151.71 C-8.29 151.71 -10.79 151.7 -13.29 151.69 C-17.11 151.68 -20.92 151.69 -24.74 151.71 C-27.18 151.71 -29.62 151.71 -32.06 151.7 C-33.19 151.71 -34.33 151.71 -35.49 151.72 C-44.91 151.63 -51.58 150.11 -58.55 143.3 C-64.14 136.16 -65.17 129.09 -64.55 120.3 C-63.77 115.46 -62.71 110.7 -61.62 105.93 C-61.34 104.67 -61.06 103.41 -60.78 102.12 C-59.75 97.5 -58.7 92.89 -57.55 88.3 C-44.02 88.3 -30.49 88.3 -16.55 88.3 C-17.55 99.3 -17.55 99.3 -20.55 110.3 C-12.63 110.3 -4.71 110.3 3.45 110.3 C3.26 100.35 3.26 100.35 -2.01 94.04 C-7.31 90.42 -12.97 87.43 -18.61 84.37 C-26.52 80.03 -33.3 75.75 -38.55 68.3 C-39.06 67.6 -39.57 66.89 -40.09 66.17 C-46.12 56.26 -44.39 42.87 -42.24 31.94 C-39.33 20.75 -33.27 11.56 -23.55 5.3 C-22.69 4.72 -21.82 4.15 -20.93 3.55 C-14.02 -0.08 -7.65 -0.01 0 0 Z " fill="#696A6D" transform="translate(80.5546875,450.69921875)"/>
<path d="M0 0 C1.13 -0.01 2.27 -0.03 3.44 -0.04 C4.65 -0.04 5.86 -0.04 7.11 -0.05 C8.37 -0.05 9.63 -0.06 10.93 -0.07 C13.59 -0.08 16.25 -0.08 18.92 -0.08 C22.31 -0.08 25.7 -0.11 29.09 -0.14 C32.35 -0.17 35.61 -0.17 38.86 -0.17 C40.68 -0.19 40.68 -0.19 42.53 -0.21 C50.59 -0.17 56.01 0.82 62.33 6.15 C62.86 6.77 63.39 7.4 63.93 8.04 C64.48 8.65 65.02 9.27 65.58 9.9 C69.7 16.29 70.58 22.29 70.43 29.79 C70.44 30.59 70.44 31.4 70.44 32.22 C70.39 37.79 69.55 41.58 68.12 47.29 C54.59 47.29 41.06 47.29 27.12 47.29 C27.12 45.31 27.12 43.33 27.12 41.29 C20.19 41.29 13.26 41.29 6.12 41.29 C9.27 44.44 11.04 46 14.75 47.99 C15.64 48.47 16.52 48.95 17.43 49.45 C18.36 49.96 19.29 50.46 20.25 50.98 C28.15 55.38 34.91 59.65 41.12 66.29 C41.68 66.82 42.25 67.36 42.83 67.91 C49.94 75.15 53.48 85.1 53.62 95.1 C53.37 100.75 52.61 105.86 51.12 111.29 C50.85 112.53 50.59 113.77 50.31 115.04 C47.52 127.76 43.16 137.56 32.12 145.29 C25.83 148.68 19.89 151.39 12.69 151.48 C11.58 151.5 10.47 151.52 9.32 151.53 C4.23 151.58 -0.87 151.62 -5.96 151.64 C-8.65 151.65 -11.33 151.68 -14.01 151.72 C-17.89 151.78 -21.76 151.8 -25.64 151.81 C-26.83 151.84 -28.02 151.86 -29.25 151.88 C-37.93 151.86 -43.57 149.95 -50.18 144.33 C-57 136.28 -58.5 129.76 -57.88 119.29 C-57.3 115.34 -56.47 111.49 -55.57 107.6 C-55.35 106.62 -55.14 105.64 -54.92 104.63 C-53.63 98.87 -51.99 93.92 -49.88 88.29 C-36.35 88.29 -22.82 88.29 -8.88 88.29 C-10.88 100.29 -10.88 100.29 -13.88 110.29 C-5.96 110.29 1.96 110.29 10.12 110.29 C10.58 101.4 10.58 101.4 6.12 95.29 C1.33 91.29 -3.89 88.23 -9.43 85.41 C-21.02 79.5 -30.94 71.92 -36.01 59.52 C-39.57 46.29 -36.68 30.54 -30.07 18.79 C-23.11 8.28 -13.06 0.1 0 0 Z M-30.88 38.29 C-30.88 39.36 -30.88 40.44 -30.88 41.54 C-30.88 45.29 -30.88 45.29 -31.44 48.04 C-32.1 50.45 -32.1 50.45 -30.88 53.29 C-30.82 54.16 -30.75 55.02 -30.69 55.92 C-29.54 60.69 -27.03 64.53 -23.88 68.29 C-23.22 68.29 -22.56 68.29 -21.88 68.29 C-21.61 68.89 -21.34 69.49 -21.07 70.1 C-18.53 74.78 -15.07 76.31 -10.32 78.54 C-4.05 81.57 1.57 85.08 7.12 89.29 C8.58 90.34 8.58 90.34 10.06 91.42 C12.99 94.08 14.91 96.27 15.34 100.33 C15.42 105.44 14.76 110.16 14.12 115.29 C2.9 115.29 -8.32 115.29 -19.88 115.29 C-18.56 110.01 -17.24 104.73 -15.88 99.29 C-15.55 97.31 -15.22 95.33 -14.88 93.29 C-25.11 93.29 -35.34 93.29 -45.88 93.29 C-47.08 98.15 -47.08 98.15 -48.28 103.01 C-49.31 107.13 -50.43 111.21 -51.63 115.29 C-53.9 123.71 -53.27 130.61 -48.88 138.29 C-44.96 142.8 -40.4 145.92 -34.35 146.56 C-33.45 146.57 -32.56 146.57 -31.64 146.58 C-30.61 146.59 -29.59 146.61 -28.54 146.62 C-27.44 146.62 -26.35 146.62 -25.22 146.63 C-24.08 146.63 -22.94 146.64 -21.76 146.65 C-19.35 146.66 -16.93 146.66 -14.52 146.66 C-10.85 146.67 -7.19 146.7 -3.53 146.74 C-1.18 146.75 1.18 146.75 3.53 146.75 C5.15 146.77 5.15 146.77 6.81 146.8 C16.45 146.74 26.38 144.95 33.56 138.04 C34.32 137.33 35.08 136.63 35.87 135.9 C41.16 129.78 44.06 123.7 45.93 115.85 C46.14 114.99 46.35 114.12 46.57 113.23 C49.16 101.69 50.58 88.81 44.12 78.29 C41.68 74.72 39.04 71.48 36.12 68.29 C35.28 67.37 35.28 67.37 34.42 66.42 C29.47 61.59 23.53 58.75 17.43 55.64 C11.44 52.57 5.91 49.08 1.12 44.29 C0.75 41.96 0.42 39.63 0.12 37.29 C-4.13 37.27 -8.39 37.25 -12.64 37.24 C-14.09 37.23 -15.54 37.22 -16.99 37.22 C-19.06 37.2 -21.14 37.2 -23.22 37.19 C-24.47 37.19 -25.72 37.18 -27.01 37.18 C-29.78 36.96 -29.78 36.96 -30.88 38.29 Z " fill="#898A8D" transform="translate(308.87841796875,450.70947265625)"/>
<path d="M0 0 C13.53 0 27.06 0 41 0 C40.36 4.49 39.68 8.73 38.7 13.13 C38.44 14.27 38.19 15.41 37.93 16.58 C37.66 17.75 37.4 18.92 37.12 20.12 C36.87 21.27 36.61 22.42 36.35 23.6 C34.6 31.41 32.8 39.2 31 47 C40.24 47 49.48 47 59 47 C59.33 44.03 59.66 41.06 60 38 C60.66 34.25 61.49 30.53 62.31 26.81 C62.51 25.87 62.71 24.93 62.92 23.97 C64.62 16.17 66.8 8.71 69 1 C82.53 1 96.06 1 110 1 C107.75 14.5 107.75 14.5 106.48 20.18 C106.26 21.14 106.26 21.14 106.05 22.11 C105.58 24.22 105.1 26.33 104.62 28.44 C104.28 29.98 103.93 31.53 103.59 33.07 C102.61 37.41 101.63 41.76 100.65 46.1 C99.97 49.14 99.28 52.18 98.6 55.23 C93.4 78.27 88.18 101.3 82.88 124.31 C82.6 125.52 82.6 125.52 82.31 126.76 C81.79 129.02 81.27 131.29 80.74 133.55 C80.45 134.81 80.16 136.06 79.86 137.35 C78.94 141.24 77.97 145.12 77 149 C63.47 149 49.94 149 36 149 C37.13 138.87 37.13 138.87 37.89 135.41 C38.06 134.62 38.23 133.84 38.41 133.04 C38.68 131.82 38.68 131.82 38.96 130.57 C39.25 129.27 39.25 129.27 39.54 127.94 C39.94 126.11 40.35 124.29 40.76 122.46 C41.37 119.71 41.98 116.95 42.59 114.19 C42.98 112.4 43.38 110.61 43.77 108.82 C43.95 108.02 44.13 107.21 44.31 106.38 C45.76 99.89 47.38 93.46 49 87 C39.76 87 30.52 87 21 87 C20.67 89.64 20.34 92.28 20 95 C19.63 96.93 19.23 98.86 18.8 100.77 C18.56 101.83 18.33 102.89 18.08 103.99 C17.83 105.11 17.57 106.22 17.31 107.38 C17.05 108.54 16.79 109.71 16.52 110.91 C13.73 123.28 10.87 135.64 8 148 C-5.53 148 -19.06 148 -33 148 C-32.36 140.93 -31.74 135.43 -29.96 128.79 C-28.39 122.57 -27.11 116.29 -25.8 110.01 C-25.6 109.05 -25.39 108.09 -25.18 107.1 C-25 106.24 -24.82 105.38 -24.64 104.49 C-24 102 -24 102 -23 99.51 C-21.96 96.91 -21.38 94.46 -20.85 91.71 C-20.65 90.7 -20.45 89.68 -20.25 88.64 C-20.04 87.56 -19.84 86.48 -19.62 85.38 C-19.18 83.12 -18.74 80.86 -18.3 78.61 C-18.08 77.49 -17.86 76.37 -17.63 75.22 C-15.6 64.91 -13.48 54.63 -10.84 44.46 C-10.14 41.58 -9.5 38.69 -8.88 35.79 C-8.67 34.82 -8.47 33.85 -8.25 32.85 C-7.85 30.95 -7.46 29.05 -7.06 27.15 C-5.12 17.93 -2.54 9.15 0 0 Z M-4 48 C-6.18 50.68 -6.18 50.68 -6 53 C-6.56 55.24 -7.15 57.46 -7.75 59.69 C-8.12 61.06 -8.49 62.43 -8.86 63.8 C-9.05 64.5 -9.24 65.2 -9.44 65.92 C-13.36 80.38 -17.24 94.79 -20.07 109.51 C-21.53 116.8 -23.3 124.02 -25.02 131.25 C-25.27 132.34 -25.53 133.43 -25.79 134.55 C-26.03 135.52 -26.26 136.5 -26.5 137.51 C-27.1 140.07 -27.1 140.07 -27 143 C-16.77 143 -6.54 143 4 143 C6.98 131.28 9.74 119.53 12.38 107.73 C12.98 105.08 13.59 102.42 14.21 99.77 C14.58 98.16 14.94 96.55 15.31 94.94 C15.48 94.21 15.66 93.47 15.83 92.72 C16.68 88.97 17 85.9 17 82 C29.87 82 42.74 82 56 82 C54.68 87.28 53.36 92.56 52 98 C50.98 102.5 49.98 106.99 49 111.5 C47.04 120.43 44.99 129.31 42.66 138.16 C41.89 141 41.89 141 42 144 C52.23 144 62.46 144 73 144 C74.55 138.57 76.01 133.16 77.38 127.69 C77.59 126.81 77.81 125.94 78.04 125.04 C79.64 118.58 81.13 112.09 82.55 105.59 C83.5 101.21 84.5 96.86 85.55 92.51 C87.21 85.62 88.67 78.73 89.92 71.76 C90.9 66.38 92.12 61.08 93.45 55.77 C94.16 52.65 94.16 52.65 94 48 C84.43 48 74.86 48 65 48 C64.67 48.99 64.34 49.98 64 51 C51.13 51.33 38.26 51.66 25 52 C25 50.68 25 49.36 25 48 C20.91 47.93 16.81 47.87 12.72 47.84 C11.33 47.82 9.93 47.8 8.54 47.77 C6.54 47.74 4.54 47.72 2.54 47.71 C1.33 47.69 0.13 47.68 -1.11 47.66 C-2.06 47.77 -3.02 47.88 -4 48 Z " fill="#88898C" transform="translate(398,452)"/>
<path d="M0 0 C1.22 -0 2.43 -0.01 3.68 -0.01 C6.25 -0.02 8.82 -0.02 11.38 -0.01 C15.3 -0.01 19.21 -0.04 23.13 -0.06 C25.63 -0.06 28.13 -0.06 30.62 -0.06 C31.79 -0.07 32.95 -0.08 34.15 -0.09 C43.16 -0.04 50.1 1.32 56.91 7.56 C62.85 14.28 63.63 21.95 63.63 30.61 C63.65 31.33 63.66 32.06 63.67 32.8 C63.67 33.52 63.67 34.24 63.68 34.98 C63.68 35.62 63.68 36.25 63.69 36.91 C63.33 40.44 62.3 43.86 61.45 47.3 C47.59 47.3 33.73 47.3 19.45 47.3 C19.78 45.32 20.11 43.34 20.45 41.3 C10.05 41.8 10.05 41.8 -0.55 42.3 C4.45 46 9.35 49.33 14.91 52.09 C28.07 58.67 39.53 68.25 44.6 82.55 C48.41 99.42 45.04 119.36 36.45 134.3 C30.31 143.36 20.95 148.76 10.45 151.3 C6.23 151.72 2.05 151.72 -2.18 151.7 C-3.37 151.7 -4.56 151.7 -5.79 151.71 C-8.29 151.71 -10.79 151.7 -13.29 151.69 C-17.11 151.68 -20.92 151.69 -24.74 151.71 C-27.18 151.71 -29.62 151.71 -32.06 151.7 C-33.19 151.71 -34.33 151.71 -35.49 151.72 C-44.91 151.63 -51.58 150.11 -58.55 143.3 C-64.14 136.16 -65.17 129.09 -64.55 120.3 C-63.77 115.46 -62.71 110.7 -61.62 105.93 C-61.34 104.67 -61.06 103.41 -60.78 102.12 C-59.75 97.5 -58.7 92.89 -57.55 88.3 C-44.02 88.3 -30.49 88.3 -16.55 88.3 C-17.55 99.3 -17.55 99.3 -20.55 110.3 C-12.63 110.3 -4.71 110.3 3.45 110.3 C3.26 100.35 3.26 100.35 -2.01 94.04 C-7.31 90.42 -12.97 87.43 -18.61 84.37 C-26.52 80.03 -33.3 75.75 -38.55 68.3 C-39.06 67.6 -39.57 66.89 -40.09 66.17 C-46.12 56.26 -44.39 42.87 -42.24 31.94 C-39.33 20.75 -33.27 11.56 -23.55 5.3 C-22.69 4.72 -21.82 4.15 -20.93 3.55 C-14.02 -0.08 -7.65 -0.01 0 0 Z M-35.55 34.3 C-37.74 36.98 -37.74 36.98 -37.55 39.3 C-37.74 40.84 -37.93 42.38 -38.12 43.93 C-38.61 48.61 -38.33 52.67 -37.55 57.3 C-36.89 57.3 -36.23 57.3 -35.55 57.3 C-35.49 58.15 -35.43 58.99 -35.37 59.86 C-33.23 68.92 -26.04 73.55 -18.55 78.3 C-16.1 79.59 -13.61 80.77 -11.11 81.96 C-3.47 85.97 4.5 91.4 8.45 99.3 C8.67 104.81 8.06 109.73 7.45 115.3 C-3.77 115.3 -14.99 115.3 -26.55 115.3 C-24.9 108.04 -23.25 100.78 -21.55 93.3 C-31.78 93.3 -42.01 93.3 -52.55 93.3 C-53.73 97.48 -53.73 97.48 -54.93 101.74 C-55.17 102.6 -55.42 103.45 -55.67 104.34 C-60.27 119.81 -60.27 119.81 -57.73 135.38 C-54.44 140.74 -49.43 144.28 -43.55 146.3 C-41 146.61 -41 146.61 -38.31 146.59 C-37.29 146.6 -36.27 146.62 -35.22 146.63 C-34.12 146.63 -33.02 146.63 -31.89 146.64 C-30.75 146.64 -29.61 146.65 -28.44 146.66 C-26.02 146.67 -23.61 146.67 -21.19 146.67 C-17.53 146.68 -13.87 146.71 -10.21 146.75 C-7.85 146.76 -5.5 146.76 -3.14 146.76 C-1.52 146.78 -1.52 146.78 0.13 146.81 C9.75 146.75 19.69 144.96 26.88 138.11 C28.03 137.07 28.03 137.07 29.19 136.01 C34.87 129.18 37.43 122.02 39.26 113.43 C39.47 112.51 39.69 111.59 39.91 110.65 C42.31 99.82 42.94 88.18 37.32 78.24 C36.7 77.27 36.08 76.3 35.45 75.3 C34.79 75.3 34.13 75.3 33.45 75.3 C33.2 74.56 32.95 73.82 32.7 73.05 C29.62 66.3 22.5 62.05 16.11 58.71 C12.58 56.85 9.14 54.87 5.7 52.86 C5.06 52.5 4.42 52.14 3.76 51.77 C-0.67 49.17 -3.83 46.71 -6.55 42.3 C-6.66 39.4 -6.2 37.17 -5.55 34.3 C-9.79 34.23 -14.03 34.17 -18.26 34.14 C-19.7 34.12 -21.15 34.1 -22.59 34.07 C-24.66 34.04 -26.73 34.02 -28.8 34.01 C-30.04 33.99 -31.29 33.98 -32.57 33.96 C-33.56 34.07 -34.54 34.18 -35.55 34.3 Z " fill="#898A8D" transform="translate(80.5546875,450.69921875)"/>
<path d="M0 0 C13.53 0 27.06 0 41 0 C40.39 4.24 39.78 8.31 38.91 12.48 C38.6 13.98 38.6 13.98 38.28 15.51 C38.06 16.54 37.85 17.57 37.62 18.62 C37.31 20.13 37.31 20.13 36.99 21.67 C35.43 29.14 33.74 36.57 32 44 C31.75 45.08 31.5 46.16 31.24 47.27 C30.71 49.53 30.18 51.78 29.65 54.03 C24.68 75.27 19.8 96.54 15.01 117.83 C14.85 118.54 14.69 119.25 14.52 119.98 C13.77 123.34 13.01 126.7 12.26 130.05 C11.99 131.25 11.72 132.44 11.45 133.67 C11.21 134.7 10.98 135.74 10.74 136.8 C9.87 140.55 8.93 144.27 8 148 C-5.53 148 -19.06 148 -33 148 C-30.75 132.25 -30.75 132.25 -29.56 127.01 C-29.31 125.87 -29.05 124.73 -28.79 123.56 C-28.53 122.43 -28.27 121.29 -28 120.12 C-27.74 118.97 -27.48 117.81 -27.21 116.62 C-26.19 112.1 -25.15 107.58 -24.02 103.09 C-23.04 99.21 -22.16 95.31 -21.3 91.4 C-20.98 89.94 -20.66 88.48 -20.33 87.02 C-20.17 86.26 -20 85.5 -19.83 84.72 C-15.36 64.45 -10.89 44.17 -5.75 24.06 C-4.13 17.72 -2.83 11.35 -1.61 4.91 C-1 2 -1 2 0 0 Z " fill="#86878A" transform="translate(524,452)"/>
<path d="M0 0 C9.44 2.95 16.91 10.85 21.88 19.12 C25.59 28.62 25.64 41.02 21.88 50.5 C16.22 62.19 8.63 69.09 -3.46 73.84 C-7.6 75.2 -11.75 76.28 -16 77.25 C-16.71 77.41 -17.42 77.58 -18.15 77.74 C-28.75 80 -39.45 80.15 -50.25 80.06 C-51.39 80.06 -52.53 80.05 -53.7 80.05 C-56.47 80.04 -59.23 80.02 -62 80 C-62.36 79.04 -62.73 78.09 -63.1 77.11 C-68.75 62.46 -75.32 51.08 -86.83 40.28 C-88 39 -88 39 -88 37 C-83.25 37.41 -78.5 37.81 -73.75 38.23 C-72.13 38.37 -70.52 38.51 -68.9 38.64 C-66.58 38.84 -64.25 39.04 -61.93 39.25 C-60.85 39.34 -60.85 39.34 -59.75 39.43 C-56.95 39.68 -54.21 39.95 -51.46 40.53 C-46.11 41.55 -40.56 41.23 -35.13 41.24 C-32.9 41.25 -30.68 41.28 -28.45 41.31 C-19.13 41.38 -10.1 41.12 -1.94 36.12 C2.5 31.25 2.32 26.07 2.25 19.81 C2.25 18.97 2.24 18.12 2.24 17.25 C2.16 11.28 1.52 5.8 0 0 Z " fill="#7C2F30" transform="translate(458,100)"/>
<path d="M0 0 C1.15 0.03 2.3 0.05 3.49 0.08 C4.74 0.1 5.99 0.11 7.28 0.13 C8.58 0.17 9.88 0.21 11.23 0.26 C13.2 0.29 13.2 0.29 15.22 0.32 C18.47 0.38 21.72 0.46 24.98 0.57 C24.25 4.36 23.27 7.91 22.04 11.57 C21.7 12.58 21.36 13.59 21.01 14.63 C20.07 17.3 19.03 19.94 17.98 22.57 C24.91 22.57 31.84 22.57 38.98 22.57 C38.98 33.82 38.98 33.82 38.32 38.14 C38.2 38.97 38.08 39.79 37.95 40.65 C37.79 41.65 37.64 42.66 37.48 43.69 C36.98 46.95 36.49 50.21 35.98 53.57 C26.08 53.9 16.18 54.23 5.98 54.57 C3.06 62.75 3.06 62.75 0.14 70.93 C-0.22 71.95 -0.58 72.96 -0.96 74 C-1.33 75.04 -1.7 76.09 -2.08 77.16 C-3.02 79.57 -3.02 79.57 -4.02 80.57 C-6.32 80.66 -8.61 80.67 -10.9 80.67 C-11.93 80.66 -11.93 80.66 -12.98 80.66 C-15.19 80.66 -17.39 80.64 -19.59 80.63 C-21.08 80.63 -22.56 80.62 -24.05 80.62 C-27.71 80.61 -31.37 80.59 -35.02 80.57 C-33.84 74.37 -32.09 68.75 -29.65 62.94 C-27.02 56.54 -24.45 50.12 -21.97 43.65 C-21.71 42.97 -21.44 42.28 -21.17 41.57 C-20.11 38.81 -19.05 36.05 -18 33.28 C-15.3 26.2 -12.49 19.31 -9.02 12.57 C-8.69 11.35 -8.36 10.13 -8.02 8.88 C-6.6 4.17 -5.08 0.95 0 0 Z " fill="#66676B" transform="translate(159.0244140625,514.432373046875)"/>
<path d="M0 0 C9.57 0 19.14 0 29 0 C27.97 12.35 25.67 23.55 22.71 35.49 C19.71 47.63 16.88 59.78 14.46 72.05 C14.28 72.96 14.1 73.87 13.91 74.81 C13.76 75.6 13.6 76.39 13.45 77.21 C13 79 13 79 12 80 C9.71 80.09 7.41 80.11 5.12 80.1 C4.09 80.1 4.09 80.1 3.04 80.09 C0.84 80.09 -1.36 80.08 -3.56 80.06 C-5.05 80.06 -6.54 80.05 -8.03 80.05 C-11.69 80.04 -15.34 80.02 -19 80 C-17.29 70.35 -15.3 60.83 -12.98 51.3 C-10.88 42.62 -8.99 33.9 -7.11 25.17 C-6.74 23.45 -6.37 21.72 -6 20 C-5.82 19.18 -5.65 18.35 -5.47 17.5 C-4.62 13.62 -3.74 9.82 -2.44 6.06 C-2.19 5.33 -1.94 4.6 -1.68 3.85 C-1 2 -1 2 0 0 Z " fill="#66676B" transform="translate(516,515)"/>
<path d="M0 0 C9.57 0 19.14 0 29 0 C28.08 26.79 26.95 53.35 24 80 C13.77 80 3.54 80 -7 80 C-7 72.78 -6.97 66.17 -6.09 59.11 C-5.3 52.15 -4.68 45.19 -4.22 38.2 C-4.16 37.3 -4.1 36.4 -4.04 35.48 C-3.79 31.79 -3.55 28.11 -3.32 24.43 C-3.15 21.69 -2.97 18.94 -2.78 16.2 C-2.71 14.97 -2.71 14.97 -2.63 13.71 C-2.55 12.54 -2.55 12.54 -2.47 11.35 C-2.43 10.68 -2.39 10 -2.34 9.31 C-1.87 6.14 -0.88 3.08 0 0 Z " fill="#66676B" transform="translate(217,515)"/>
<path d="M0 0 C1.5 -0.01 1.5 -0.01 3.04 -0.01 C4.6 0.01 4.6 0.01 6.19 0.02 C7.23 0.01 8.27 0 9.33 -0.01 C18.81 0.02 18.81 0.02 22.75 3.4 C25.09 6.63 25.07 9.49 24.75 13.4 C24.1 15.4 23.43 17.4 22.75 19.4 C22.46 21 22.2 22.6 21.94 24.21 C21.05 29.33 19.79 34.28 18.38 39.27 C18.08 40.36 18.08 40.36 17.78 41.47 C16.14 47.09 14.1 50.8 9.13 54.18 C4.6 55.82 0.54 55.91 -4.25 55.9 C-5.12 55.93 -6 55.96 -6.9 55.98 C-11.3 56 -14.31 55.83 -17.81 52.99 C-21.21 49.37 -21.45 47.53 -21.38 42.58 C-21.04 37.08 -19.4 31.72 -18.05 26.4 C-17.5 24.21 -16.97 22.02 -16.44 19.82 C-16.09 18.42 -15.74 17.01 -15.39 15.61 C-15.07 14.34 -14.76 13.08 -14.43 11.78 C-11.97 4.76 -7.6 0.03 0 0 Z " fill="#7F3334" transform="translate(312.24609375,616.6015625)"/>
<path d="M0 0 C4.18 -0.15 8.36 -0.26 12.54 -0.33 C13.96 -0.36 15.38 -0.4 16.81 -0.45 C28.55 -0.87 28.55 -0.87 32.05 1.23 C34.8 4.37 35.69 7.57 35.44 11.71 C34.55 16.34 32.75 20.64 31 25 C29.83 27.96 29.83 27.96 30.06 31.1 C29.99 35.74 29.12 39.88 28.06 44.38 C27.79 45.6 27.79 45.6 27.51 46.86 C26.14 52.86 26.14 52.86 25 54 C23.31 54.07 21.62 54.08 19.94 54.06 C19.02 54.05 18.1 54.04 17.15 54.04 C16.44 54.02 15.73 54.01 15 54 C15.41 45.93 16.66 38.74 19 31 C14.05 31.33 9.1 31.66 4 32 C3.65 33.5 3.3 35.01 2.94 36.56 C2.48 38.52 2.02 40.48 1.56 42.44 C1.33 43.43 1.1 44.42 0.87 45.45 C0.64 46.39 0.42 47.34 0.19 48.31 C-0.01 49.18 -0.22 50.06 -0.43 50.96 C-1 53 -1 53 -2 54 C-3.69 54.07 -5.38 54.08 -7.06 54.06 C-7.98 54.05 -8.9 54.04 -9.85 54.04 C-10.56 54.02 -11.27 54.01 -12 54 C-12.19 48.76 -11.53 44.11 -10.25 39.06 C-10.07 38.33 -9.89 37.59 -9.7 36.83 C-9.33 35.3 -8.95 33.78 -8.56 32.25 C-8.03 30.11 -7.5 27.97 -6.98 25.83 C-4.86 17.15 -2.48 8.58 0 0 Z " fill="#7E3233" transform="translate(361,617)"/>
<path d="M0 0 C4.04 -0.1 8.08 -0.17 12.12 -0.22 C13.49 -0.24 14.86 -0.27 16.23 -0.3 C18.21 -0.35 20.19 -0.37 22.17 -0.39 C23.36 -0.41 24.55 -0.43 25.77 -0.45 C29.65 0.09 31.27 1.23 34 4 C36.33 10.98 35.25 19.45 32 26.02 C29.19 30.41 26.08 32.59 21 34 C17.84 34.33 14.74 34.29 11.56 34.19 C10.32 34.17 10.32 34.17 9.06 34.15 C7.04 34.11 5.02 34.06 3 34 C2.88 34.69 2.76 35.38 2.63 36.09 C1.56 42.1 0.37 48.05 -1 54 C-4.63 54 -8.26 54 -12 54 C-11.4 47.51 -10.29 41.37 -8.75 35.04 C-8.53 34.13 -8.31 33.21 -8.09 32.27 C-7.4 29.39 -6.7 26.51 -6 23.62 C-5.53 21.67 -5.06 19.71 -4.59 17.75 C-4.15 15.89 -3.7 14.03 -3.25 12.16 C-3.04 11.29 -2.83 10.41 -2.61 9.51 C-2.42 8.7 -2.22 7.89 -2.02 7.05 C-1.84 6.34 -1.67 5.63 -1.49 4.89 C-1.06 3.24 -0.54 1.62 0 0 Z " fill="#7E3233" transform="translate(245,617)"/>
<path d="M0 0 C11.22 0 22.44 0 34 0 C33.34 3.63 32.68 7.26 32 11 C24.08 11 16.16 11 8 11 C7.67 13.64 7.34 16.28 7 19 C13.93 19 20.86 19 28 19 C27 26 27 26 26 30 C18.74 30.33 11.48 30.66 4 31 C3.34 34.96 2.68 38.92 2 43 C9.26 43 16.52 43 24 43 C23 51 23 51 22 54 C10.78 54 -0.44 54 -12 54 C-10.88 41.67 -10.88 41.67 -9.66 37.26 C-9.27 35.76 -9.27 35.76 -8.86 34.24 C-8.58 33.17 -8.29 32.1 -8 31 C-7.4 28.52 -6.8 26.04 -6.21 23.55 C-5.91 22.29 -5.61 21.03 -5.3 19.73 C-4.83 17.78 -4.37 15.83 -3.9 13.88 C-3.44 11.96 -2.98 10.04 -2.52 8.12 C-2.12 6.43 -2.12 6.43 -1.71 4.7 C-1 2 -1 2 0 0 Z " fill="#7F3435" transform="translate(134,617)"/>
<path d="M0 0 C0.95 -0.02 1.9 -0.04 2.88 -0.06 C11.89 -0.11 11.89 -0.11 15.69 3.25 C18.69 7.5 17.41 11.35 16.69 16.25 C13.06 16.25 9.43 16.25 5.69 16.25 C6.02 14.27 6.35 12.29 6.69 10.25 C4.56 10.36 2.44 10.49 0.31 10.62 C-1.46 10.73 -1.46 10.73 -3.27 10.84 C-6.42 10.95 -6.42 10.95 -8.31 13.25 C-8.51 15.22 -8.51 15.22 -7.31 17.25 C-5.04 18.9 -2.85 20.34 -0.44 21.75 C7.77 26.61 7.77 26.61 9.69 30.25 C10.71 36.69 10.14 43.61 6.69 49.25 C3.6 52.63 0.37 54.99 -4.3 55.44 C-6.74 55.53 -9.18 55.58 -11.62 55.62 C-12.89 55.68 -12.89 55.68 -14.18 55.74 C-18.4 55.8 -21.44 55.65 -24.89 53.05 C-27.55 49.98 -28.04 48.97 -27.81 45 C-27.74 43.57 -27.74 43.57 -27.66 42.12 C-27.17 38.05 -26.35 34.21 -25.31 30.25 C-21.68 30.25 -18.05 30.25 -14.31 30.25 C-14.81 34.98 -15.33 39.59 -16.31 44.25 C-14.19 44.19 -12.06 44.1 -9.94 44 C-8.75 43.95 -7.57 43.91 -6.35 43.86 C-3.28 43.57 -3.28 43.57 -1.84 41.52 C-1.14 38.52 -1.12 37.12 -2.31 34.25 C-4.58 32.56 -6.68 31.18 -9.12 29.81 C-14.18 26.95 -17.55 24.59 -20.31 19.25 C-21.08 14.7 -20.28 10.72 -17.74 6.86 C-12.02 0.19 -8.53 0.05 0 0 Z " fill="#7E3333" transform="translate(204.3125,616.75)"/>
<path d="M0 0 C11.22 0 22.44 0 34 0 C36.01 6.89 38.03 13.78 40.03 20.68 C40.66 22.82 41.28 24.96 41.9 27.1 C42.73 29.94 43.55 32.78 44.38 35.62 C44.63 36.48 44.88 37.34 45.13 38.22 C46.35 42.47 47.39 46.61 48 51 C29.1 44.18 13.9 25.8 4 9 C2.68 6.03 1.36 3.06 0 0 Z " fill="#7D3031" transform="translate(186,687)"/>
<path d="M0 0 C12.87 0 25.74 0 39 0 C38.34 3.63 37.68 7.26 37 11 C32.05 11 27.1 11 22 11 C21.92 12.12 21.84 13.25 21.75 14.4 C20.88 22.25 18.79 29.9 16.94 37.56 C16.56 39.16 16.18 40.76 15.79 42.35 C14.87 46.24 13.94 50.12 13 54 C9.37 54 5.74 54 2 54 C3.95 39.45 7.4 25.22 11 11 C6.71 11 2.42 11 -2 11 C-1.12 2.25 -1.12 2.25 0 0 Z " fill="#7E3333" transform="translate(416,617)"/>
<path d="M0 0 C1.38 0.01 2.77 0.04 4.15 0.07 C4.85 0.08 5.56 0.09 6.29 0.1 C8.03 0.12 9.78 0.16 11.52 0.2 C10.87 3.2 10.2 6.2 9.52 9.2 C9.38 9.84 9.23 10.49 9.08 11.16 C8.59 13.36 8.09 15.56 7.59 17.76 C7.43 18.47 7.27 19.17 7.11 19.9 C5.96 24.85 4.39 29.47 2.52 34.2 C-2.1 34.2 -6.72 34.2 -11.48 34.2 C-11.14 26.62 -9.77 19.5 -8.04 12.13 C-7.82 11.19 -7.6 10.25 -7.38 9.28 C-7.17 8.4 -6.95 7.51 -6.73 6.6 C-6.54 5.8 -6.35 5 -6.15 4.18 C-4.91 0.52 -3.82 0.21 0 0 Z " fill="#F9F6F6" transform="translate(314.4765625,626.8046875)"/>
<path d="M0 0 C5.28 0 10.56 0 16 0 C14.12 10.88 14.12 10.88 13 12 C10.47 12.07 7.97 12.09 5.44 12.06 C4.37 12.06 4.37 12.06 3.28 12.05 C1.52 12.04 -0.24 12.02 -2 12 C-1.34 8.04 -0.68 4.08 0 0 Z " fill="#F9F6F6" transform="translate(253,628)"/>
<path d="M0 0 C4.95 0 9.9 0 15 0 C14.12 8.88 14.12 8.88 13 10 C10.47 10.07 7.97 10.09 5.44 10.06 C4.37 10.06 4.37 10.06 3.28 10.05 C1.52 10.04 -0.24 10.02 -2 10 C-1.34 6.7 -0.68 3.4 0 0 Z " fill="#F5EFEF" transform="translate(369,628)"/>
<path d="M0 0 C1.01 -0 1.01 -0 2.04 -0 C4.26 0 6.48 0.01 8.7 0.02 C10.24 0.02 11.78 0.02 13.32 0.02 C17.37 0.02 21.42 0.03 25.47 0.04 C29.61 0.06 33.74 0.06 37.88 0.06 C45.99 0.08 54.1 0.09 62.21 0.11 C58.62 2.51 56.93 2.39 52.66 2.46 C51.67 2.48 51.67 2.48 50.66 2.5 C48.48 2.55 46.3 2.57 44.11 2.6 C42.6 2.62 41.08 2.65 39.57 2.67 C36.39 2.72 33.22 2.76 30.04 2.8 C25.97 2.85 21.89 2.92 17.82 2.99 C14.69 3.04 11.56 3.09 8.43 3.13 C6.93 3.15 5.43 3.17 3.93 3.2 C1.83 3.24 -0.27 3.26 -2.37 3.28 C-3.56 3.3 -4.76 3.31 -5.99 3.33 C-8.79 3.11 -8.79 3.11 -10.79 1.11 C-7.17 -0.02 -3.78 -0.01 0 0 Z " fill="#F0E8E8" transform="translate(185.7880859375,436.886474609375)"/>
<path d="M0 0 C1.12 3.75 1.12 3.75 0 6 C9.24 6 18.48 6 28 6 C28.33 4.02 28.66 2.04 29 0 C29.66 0.33 30.32 0.66 31 1 C30.34 3.31 29.68 5.62 29 8 C18.77 8 8.54 8 -2 8 C-1 1 -1 1 0 0 Z " fill="#595A5E" transform="translate(442,588)"/>
<path d="M0 0 C0 0.66 0 1.32 0 2 C4.95 2 9.9 2 15 2 C15 2.33 15 2.66 15 3 C1.97 3.16 -10.99 2.68 -24 2 C-24 1.67 -24 1.34 -24 1 C-15.98 0.1 -8.07 -0.12 0 0 Z " fill="#F0E8E7" transform="translate(360,324)"/>
<path d="M0 0 C0 3 0 3 -2.05 5.16 C-3.38 6.32 -3.38 6.32 -4.75 7.5 C-5.63 8.27 -6.51 9.05 -7.42 9.84 C-9.57 11.64 -11.74 13.35 -14 15 C-14.66 14.67 -15.32 14.34 -16 14 C-13.9 12.04 -11.79 10.08 -9.69 8.12 C-8.8 7.29 -8.8 7.29 -7.88 6.44 C-7.31 5.91 -6.73 5.37 -6.14 4.82 C-5.61 4.33 -5.08 3.84 -4.53 3.33 C-3 2 -3 2 0 0 Z " fill="#EEE5E4" transform="translate(308,375)"/>
<path d="M0 0 C3.63 0.33 7.26 0.66 11 1 C11 1.33 11 1.66 11 2 C9.35 2 7.7 2 6 2 C5.67 3.32 5.34 4.64 5 6 C3.29 4.72 1.63 3.38 0 2 C0 1.34 0 0.68 0 0 Z " fill="#91504F" transform="translate(370,137)"/>
<path d="M0 0 C0.33 0.66 0.66 1.32 1 2 C1.99 2.33 2.98 2.66 4 3 C3.34 5.31 2.68 7.62 2 10 C1.34 9.01 0.68 8.02 0 7 C-0.66 7 -1.32 7 -2 7 C-1.34 4.69 -0.68 2.38 0 0 Z " fill="#E9E9E9" transform="translate(121,574)"/>
<path d="M0 0 C1.12 1.56 1.12 1.56 2 4 C0.7 10.3 0.7 10.3 -2 13 C-1.86 11.58 -1.71 10.17 -1.56 8.75 C-1.48 7.96 -1.4 7.17 -1.32 6.36 C-1.02 4.18 -0.58 2.12 0 0 Z " fill="#E4D5D4" transform="translate(331,649)"/>
<path d="M0 0 C-1.56 1.56 -1.56 1.56 -4 3 C-7.75 2.69 -7.75 2.69 -11 2 C-6.99 -0.67 -4.63 -1.49 0 0 Z " fill="#915150" transform="translate(343,385)"/>
<path d="M0 0 C6.93 0 13.86 0 21 0 C21 0.33 21 0.66 21 1 C14.07 1 7.14 1 0 1 C0 0.67 0 0.34 0 0 Z " fill="#FFFFFF" transform="translate(411,124)"/>
<path d="M0 0 C1.65 0.33 3.3 0.66 5 1 C5 1.99 5 2.98 5 4 C3.02 4 1.04 4 -1 4 C-0.67 2.68 -0.34 1.36 0 0 Z " fill="#DFCDCC" transform="translate(201,174)"/>
<path d="M0 0 C0.33 0.99 0.66 1.98 1 3 C0.01 3.33 -0.98 3.66 -2 4 C-3.21 6 -3.21 6 -4 8 C-4.99 8 -5.98 8 -7 8 C-4.69 5.36 -2.38 2.72 0 0 Z " fill="#EBE0DF" transform="translate(303,422)"/>
<path d="M0 0 C0.99 0.33 1.98 0.66 3 1 C2.34 1 1.68 1 1 1 C1.35 1.74 1.7 2.48 2.06 3.25 C3.05 6.13 3.03 7.21 2 10 C-1.08 5.69 -1.08 5.69 -0.69 2.19 C-0.46 1.47 -0.23 0.74 0 0 Z " fill="#E0CFCE" transform="translate(457,99)"/>
<path d="M0 0 C0.33 0.66 0.66 1.32 1 2 C1.99 2.33 2.98 2.66 4 3 C1.03 4.98 1.03 4.98 -2 7 C-1.12 2.25 -1.12 2.25 0 0 Z " fill="#E2D2D1" transform="translate(265,424)"/>
<path d="M0 0 C3.63 0 7.26 0 11 0 C11 0.33 11 0.66 11 1 C7.37 1 3.74 1 0 1 C0 0.67 0 0.34 0 0 Z " fill="#FFFFFF" transform="translate(330,116)"/>
<path d="M0 0 C1 4 1 4 1 4 Z " fill="#FFFFFF" transform="translate(567,517)"/>
<path d="M0 0 C1 4 1 4 1 4 Z " fill="#FFFFFF" transform="translate(123,362)"/>
<path d="M0 0 C1 4 1 4 1 4 Z " fill="#FFFFFF" transform="translate(505,150)"/>
<path d="M0 0 C1 4 1 4 1 4 Z " fill="#FFFFFF" transform="translate(505,125)"/>
<path d="M0 0 C4 1 4 1 4 1 Z " fill="#FFFFFF" transform="translate(378,120)"/>
<path d="M0 0 C4 1 4 1 4 1 Z " fill="#FFFFFF" transform="translate(259,112)"/>
<path d="M0 0 C4 1 4 1 4 1 Z " fill="#FFFFFF" transform="translate(194,104)"/>
<path d="" fill="#FFFFFF" transform="translate(0,0)"/>
<path d="" fill="#FFFFFF" transform="translate(0,0)"/>
<path d="" fill="#FFFFFF" transform="translate(0,0)"/>
<path d="" fill="#FFFFFF" transform="translate(0,0)"/>
<path d="" fill="#FFFFFF" transform="translate(0,0)"/>
<path d="" fill="#FFFFFF" transform="translate(0,0)"/>
<path d="M0 0 C3 1 3 1 3 1 Z " fill="#FFFFFF" transform="translate(437,205)"/>
<path d="M0 0 C3 1 3 1 3 1 Z " fill="#FFFFFF" transform="translate(296,163)"/>
<path d="" fill="#FFFFFF" transform="translate(0,0)"/>
<path d="" fill="#FFFFFF" transform="translate(0,0)"/>
<path d="" fill="#FFFFFF" transform="translate(0,0)"/>
<path d="" fill="#FFFFFF" transform="translate(0,0)"/>
<path d="M0 0 C2 1 2 1 2 1 Z " fill="#FFFFFF" transform="translate(530,616)"/>
<path d="M0 0 C2 1 2 1 2 1 Z " fill="#FFFFFF" transform="translate(27,616)"/>
<path d="" fill="#FFFFFF" transform="translate(0,0)"/>
<path d="" fill="#FFFFFF" transform="translate(0,0)"/>
<path d="" fill="#FFFFFF" transform="translate(0,0)"/>
<path d="M0 0 C2 1 2 1 2 1 Z " fill="#FFFFFF" transform="translate(148,240)"/>
<path d="M0 0 C2 1 2 1 2 1 Z " fill="#FFFFFF" transform="translate(455,201)"/>
<path d="M0 0 C2 1 2 1 2 1 Z " fill="#FFFFFF" transform="translate(466,197)"/>
<path d="M0 0 C2 1 2 1 2 1 Z " fill="#FFFFFF" transform="translate(313,167)"/>
<path d="M0 0 C2 1 2 1 2 1 Z " fill="#FFFFFF" transform="translate(292,116)"/>
<path d="M0 0 C2 1 2 1 2 1 Z " fill="#FFFFFF" transform="translate(439,73)"/>
<path d="" fill="#FFFFFF" transform="translate(0,0)"/>
<path d="" fill="#FFFFFF" transform="translate(0,0)"/>
<path d="" fill="#FFFFFF" transform="translate(0,0)"/>
<path d="" fill="#FFFFFF" transform="translate(0,0)"/>
<path d="" fill="#FFFFFF" transform="translate(0,0)"/>
<path d="" fill="#FFFFFF" transform="translate(0,0)"/>
<path d="" fill="#FFFFFF" transform="translate(0,0)"/>
<path d="" fill="#FFFFFF" transform="translate(0,0)"/>
<path d="" fill="#FFFFFF" transform="translate(0,0)"/>
<path d="" fill="#FFFFFF" transform="translate(0,0)"/>
<path d="" fill="#FFFFFF" transform="translate(0,0)"/>
<path d="" fill="#FFFFFF" transform="translate(0,0)"/>
<path d="" fill="#FFFFFF" transform="translate(0,0)"/>
<path d="" fill="#FFFFFF" transform="translate(0,0)"/>
<path d="" fill="#FFFFFF" transform="translate(0,0)"/>
<path d="" fill="#FFFFFF" transform="translate(0,0)"/>
<path d="" fill="#FFFFFF" transform="translate(0,0)"/>
<path d="" fill="#FFFFFF" transform="translate(0,0)"/>
<path d="" fill="#FFFFFF" transform="translate(0,0)"/>
<path d="" fill="#FFFFFF" transform="translate(0,0)"/>
<path d="" fill="#FFFFFF" transform="translate(0,0)"/>
<path d="" fill="#FFFFFF" transform="translate(0,0)"/>
<path d="" fill="#FFFFFF" transform="translate(0,0)"/>
<path d="" fill="#FFFFFF" transform="translate(0,0)"/>
<path d="" fill="#FFFFFF" transform="translate(0,0)"/>
<path d="" fill="#FFFFFF" transform="translate(0,0)"/>
<path d="" fill="#FFFFFF" transform="translate(0,0)"/>
<path d="" fill="#FFFFFF" transform="translate(0,0)"/>
<path d="" fill="#FFFFFF" transform="translate(0,0)"/>
<path d="" fill="#FFFFFF" transform="translate(0,0)"/>
<path d="" fill="#FFFFFF" transform="translate(0,0)"/>
</svg>
