<?xml version="1.0" encoding="UTF-8"?>
<!-- Generator: https://ezgif.com/webp-to-svg -->
<svg version="1.1" xmlns="http://www.w3.org/2000/svg" width="50" height="50">
<path d="M0 0 C-1 2 -2 4 -3 6 C0.3 6.33 3.6 6.66 7 7 C7.33 7.99 7.66 8.98 8 10 C8.33 9.01 8.66 8.02 9 7 C10.65 7 12.3 7 14 7 C14 6.34 14 5.68 14 5 C18.88 5.88 18.88 5.88 20 7 C20.25 9.37 20.25 9.37 20 12 C18.5 13.81 18.5 13.81 17 15 C17.99 14.67 18.98 14.34 20 14 C20.12 17.37 20.12 17.37 20 21 C17.76 23.24 15.9 23.84 13 25 C12.34 25.66 11.68 26.32 11 27 C11.84 26.99 12.69 26.98 13.55 26.96 C14.65 26.96 15.75 26.95 16.88 26.94 C18.51 26.92 18.51 26.92 20.18 26.9 C23 27 23 27 25 28 C24.34 31.63 23.68 35.26 23 39 C21.02 39.49 21.02 39.49 19 40 C18.67 41.32 18.34 42.64 18 44 C13.38 44 8.76 44 4 44 C4.33 45.98 4.66 47.96 5 50 C0.35 48.37 0.35 48.37 -1.5 46.44 C-3.51 44.51 -5.3 44.37 -8 44 C-8 43.01 -8 42.02 -8 41 C-10.44 39.28 -10.44 39.28 -13 38 C-12.74 36.54 -12.47 35.08 -12.19 33.62 C-11.96 32.41 -11.96 32.41 -11.73 31.16 C-11 29 -11 29 -8 27 C-7.01 27 -6.02 27 -5 27 C-4.94 26.37 -4.88 25.75 -4.82 25.1 C-4.73 24.28 -4.65 23.47 -4.56 22.62 C-4.44 21.41 -4.44 21.41 -4.32 20.16 C-4 18 -4 18 -3 16 C-3.99 15.67 -4.98 15.34 -6 15 C-6.62 13 -6.62 13 -7 11 C-7.33 10.67 -7.66 10.34 -8 10 C-8.47 4.64 -8.47 4.64 -6.69 2.19 C-4.52 0.66 -2.66 0 0 0 Z " fill="#F1EEEE" transform="translate(19,0)"/>
<path d="M0 0 C0.54 0.47 1.07 0.95 1.62 1.44 C4.43 3.28 6.7 3.62 10 4 C10 4.99 10 5.98 10 7 C10.87 7.43 10.87 7.43 11.75 7.88 C13.13 8.57 14.51 9.27 15.88 10 C18.51 11.24 21.22 12.12 24 13 C23.67 13.66 23.34 14.32 23 15 C19.37 15 15.74 15 12 15 C13.32 15.66 14.64 16.32 16 17 C14.68 18.32 13.36 19.64 12 21 C12.33 21.66 12.66 22.32 13 23 C12.67 23.33 12.34 23.66 12 24 C13.65 24 15.3 24 17 24 C16.34 28.29 15.68 32.58 15 37 C12 38 12 38 9 38 C9 39.32 9 40.64 9 42 C8.34 42 7.68 42 7 42 C7 41.34 7 40.68 7 40 C6.34 40 5.68 40 5 40 C5 39.34 5 38.68 5 38 C4.01 38 3.02 38 2 38 C2 36.68 2 35.36 2 34 C3.65 34 5.3 34 7 34 C6.5 32.52 6.5 32.52 6 31 C5.34 31 4.68 31 4 31 C4 31.66 4 32.32 4 33 C1.03 33 -1.94 33 -5 33 C-6.16 28.95 -5.84 26.78 -4 23 C-2.02 23 -0.04 23 2 23 C2.2 22.24 2.41 21.48 2.62 20.7 C2.89 19.71 3.16 18.71 3.44 17.69 C3.7 16.7 3.97 15.72 4.25 14.7 C4.78 12.78 5.37 10.89 6 9 C5.01 8.67 4.02 8.34 3 8 C3 7.34 3 6.68 3 6 C2.51 5.53 2.01 5.05 1.5 4.56 C0 3 0 3 0 0 Z " fill="#D7CFCF" transform="translate(13,5)"/>
<path d="M0 0 C0.54 0.47 1.07 0.95 1.62 1.44 C4.43 3.28 6.7 3.62 10 4 C10 4.99 10 5.98 10 7 C10.58 7.29 11.16 7.58 11.75 7.88 C13.13 8.57 14.51 9.27 15.88 10 C18.51 11.24 21.22 12.12 24 13 C23.67 13.66 23.34 14.32 23 15 C19.37 15 15.74 15 12 15 C13.32 15.66 14.64 16.32 16 17 C14.68 18.32 13.36 19.64 12 21 C12.33 21.66 12.66 22.32 13 23 C9.53 24.16 6.64 24.07 3 24 C3.78 13.44 3.78 13.44 6 9 C5.01 8.67 4.02 8.34 3 8 C3 7.34 3 6.68 3 6 C2.5 5.53 2.01 5.05 1.5 4.56 C0 3 0 3 0 0 Z " fill="#7D2D2E" transform="translate(13,5)"/>
<path d="M0 0 C0.33 0 0.66 0 1 0 C1 2.31 1 4.62 1 7 C-0.65 7 -2.3 7 -4 7 C-4 8.32 -4 9.64 -4 11 C-3.01 11 -2.02 11 -1 11 C-1 11.66 -1 12.32 -1 13 C-0.34 13 0.32 13 1 13 C1 13.66 1 14.32 1 15 C1.66 15 2.32 15 3 15 C2.67 13.68 2.34 12.36 2 11 C4.08 10.45 5.84 10 8 10 C8.33 8.68 8.66 7.36 9 6 C9.66 6.33 10.32 6.66 11 7 C10.67 7.99 10.34 8.98 10 10 C10.99 10 11.98 10 13 10 C13.33 9.01 13.66 8.02 14 7 C14.33 7.66 14.66 8.32 15 9 C15.66 9 16.32 9 17 9 C17 8.34 17 7.68 17 7 C18.65 7 20.3 7 22 7 C21.01 7.33 20.02 7.66 19 8 C18.67 9.32 18.34 10.64 18 12 C13.38 12 8.76 12 4 12 C4.33 13.98 4.66 15.96 5 18 C0.35 16.37 0.35 16.37 -1.5 14.44 C-3.51 12.51 -5.3 12.37 -8 12 C-8 11.01 -8 10.02 -8 9 C-10.44 7.28 -10.44 7.28 -13 6 C-12.67 4.68 -12.34 3.36 -12 2 C-11.67 3.32 -11.34 4.64 -11 6 C-8.03 6 -5.06 6 -2 6 C-2 5.34 -2 4.68 -2 4 C-1.34 4 -0.68 4 0 4 C-0.33 3.01 -0.66 2.02 -1 1 C-0.67 0.67 -0.34 0.34 0 0 Z " fill="#F7F7F7" transform="translate(19,32)"/>
<path d="M0 0 C0.66 0 1.32 0 2 0 C2 0.99 2 1.98 2 3 C2.66 3 3.32 3 4 3 C4 2.01 4 1.02 4 0 C5.98 0 7.96 0 10 0 C9.67 3.3 9.34 6.6 9 10 C7.35 10 5.7 10 4 10 C4 10.66 4 11.32 4 12 C3.34 12 2.68 12 2 12 C1.67 12.66 1.34 13.32 1 14 C-0.32 13.67 -1.64 13.34 -3 13 C-2.69 11.4 -2.38 9.79 -2.06 8.19 C-1.89 7.29 -1.71 6.4 -1.54 5.48 C-1 3 -1 3 0 0 Z " fill="#AEAEB0" transform="translate(32,29)"/>
<path d="M0 0 C0.66 0 1.32 0 2 0 C2 0.99 2 1.98 2 3 C2.66 3 3.32 3 4 3 C4 2.01 4 1.02 4 0 C4.66 0 5.32 0 6 0 C5.67 2.97 5.34 5.94 5 9 C4.34 9 3.68 9 3 9 C3 7.68 3 6.36 3 5 C2.34 5 1.68 5 1 5 C0.67 6.32 0.34 7.64 0 9 C-0.66 9 -1.32 9 -2 9 C-1.34 6.03 -0.68 3.06 0 0 Z " fill="#7B7C7F" transform="translate(32,29)"/>
<path d="M0 0 C1.65 0 3.3 0 5 0 C4.12 7.88 4.12 7.88 3 9 C1.33 9.04 -0.33 9.04 -2 9 C-2 8.01 -2 7.02 -2 6 C-0.68 6.33 0.64 6.66 2 7 C2 6.34 2 5.68 2 5 C1.01 4.67 0.02 4.34 -1 4 C-0.67 2.68 -0.34 1.36 0 0 Z " fill="#65666A" transform="translate(25,29)"/>
<path d="M0 0 C1.32 0 2.64 0 4 0 C4 2.97 4 5.94 4 9 C3.34 9 2.68 9 2 9 C1.67 7.68 1.34 6.36 1 5 C1 5.66 1 6.32 1 7 C0.34 7 -0.32 7 -1 7 C-1 7.66 -1 8.32 -1 9 C-1.66 9 -2.32 9 -3 9 C-2.69 7.69 -2.38 6.37 -2.06 5.06 C-1.89 4.33 -1.71 3.6 -1.54 2.85 C-1 1 -1 1 0 0 Z " fill="#797A7E" transform="translate(18,29)"/>
<path d="M0 0 C1.65 0 3.3 0 5 0 C5 0.66 5 1.32 5 2 C4.01 2.5 4.01 2.5 3 3 C3.19 3.8 3.37 4.61 3.56 5.44 C3.71 6.28 3.85 7.13 4 8 C3 9 3 9 0.44 9.06 C-0.37 9.04 -1.17 9.02 -2 9 C-2 8.01 -2 7.02 -2 6 C-0.68 6.33 0.64 6.66 2 7 C2 6.34 2 5.68 2 5 C1.01 4.67 0.02 4.34 -1 4 C-0.67 2.68 -0.34 1.36 0 0 Z " fill="#646569" transform="translate(10,29)"/>
<path d="M0 0 C0.66 0 1.32 0 2 0 C2.33 2.31 2.66 4.62 3 7 C2.34 7 1.68 7 1 7 C0.67 7.66 0.34 8.32 0 9 C-1.32 8.67 -2.64 8.34 -4 8 C-3.62 6.06 -3.62 6.06 -3 4 C-2.34 3.67 -1.68 3.34 -1 3 C-0.67 2.01 -0.34 1.02 0 0 Z " fill="#D3CBCB" transform="translate(33,34)"/>
<path d="M0 0 C0.99 0 1.98 0 3 0 C3.33 1.98 3.66 3.96 4 6 C2.35 6.33 0.7 6.66 -1 7 C-1.66 6.01 -2.32 5.02 -3 4 C-2.01 3.34 -1.02 2.68 0 2 C0 1.34 0 0.68 0 0 Z " fill="#C2A4A4" transform="translate(33,5)"/>
<path d="M0 0 C-0.75 1.94 -0.75 1.94 -2 4 C-3.32 4.37 -4.66 4.71 -6 5 C-6.66 5.99 -7.32 6.98 -8 8 C-7.81 5.69 -7.81 5.69 -7 3 C-2.97 0 -2.97 0 0 0 Z " fill="#FEFEFE" transform="translate(19,0)"/>
<path d="M0 0 C1.21 0.03 1.21 0.03 2.44 0.06 C2.44 0.72 2.44 1.38 2.44 2.06 C-0.06 3.69 -0.06 3.69 -2.56 5.06 C-3.12 3.12 -3.12 3.12 -3.56 1.06 C-2.56 0.06 -2.56 0.06 0 0 Z " fill="#919294" transform="translate(12.5625,28.9375)"/>
<path d="M0 0 C1.65 0 3.3 0 5 0 C5 0.99 5 1.98 5 3 C2 4 2 4 -1 3 C-0.67 2.01 -0.34 1.02 0 0 Z " fill="#949497" transform="translate(25,29)"/>
<path d="M0 0 C0.12 5.75 0.12 5.75 -1 8 C-1.66 7.67 -2.32 7.34 -3 7 C-3.62 3.94 -3.62 3.94 -4 1 C-1 0 -1 0 0 0 Z " fill="#C1C2C3" transform="translate(16,30)"/>
<path d="M0 0 C0.66 0.33 1.32 0.66 2 1 C2 1.66 2 2.32 2 3 C2.66 3 3.32 3 4 3 C4 3.66 4 4.32 4 5 C4.99 5.33 5.98 5.66 7 6 C4.12 5.75 4.12 5.75 1 5 C-0.38 2.94 -0.38 2.94 -1 1 C-0.67 0.67 -0.34 0.34 0 0 Z " fill="#E1D8D8" transform="translate(14,3)"/>
</svg>
