<?xml version="1.0" encoding="UTF-8"?>
<!-- Generator: https://ezgif.com/png-to-svg -->
<svg version="1.1" xmlns="http://www.w3.org/2000/svg" width="512" height="512" viewBox="-36.002 -85.026 672 672" preserveAspectRatio="xMidYMid meet">
<path d="M0 0 C2.12 0.03 4.23 0.05 6.35 0.07 C11.89 0.13 17.43 0.29 22.97 0.46 C28.63 0.63 34.3 0.7 39.96 0.78 C51.06 0.95 62.15 1.23 73.24 1.56 C72.47 6.04 70.85 9.13 68.37 12.88 C62.35 22.21 56.74 31.78 51.1 41.34 C50.27 42.74 49.44 44.14 48.62 45.54 C47.86 46.83 47.1 48.12 46.34 49.41 C44.09 53.22 41.7 56.9 39.24 60.56 C40.33 60.55 41.42 60.54 42.54 60.53 C69 60.23 95.47 60.04 121.94 59.97 C134.74 59.93 147.53 59.86 160.33 59.7 C171.49 59.57 182.65 59.5 193.81 59.51 C199.72 59.51 205.62 59.48 211.53 59.37 C217.09 59.27 222.65 59.25 228.22 59.31 C230.26 59.31 232.3 59.28 234.33 59.22 C249.27 58.78 249.27 58.78 254.22 63.41 C257.88 67.98 260.57 72.96 263.09 78.22 C264.76 81.62 266.74 84.78 268.75 88 C269.45 89.15 270.14 90.31 270.83 91.48 C273.08 95.25 275.33 99.02 277.59 102.79 C277.97 103.44 278.36 104.09 278.76 104.75 C282.78 111.48 286.85 118.18 290.93 124.88 C296.23 133.59 301.5 142.31 306.74 151.06 C312.01 159.85 317.3 168.62 322.62 177.38 C322.97 177.96 323.33 178.54 323.69 179.15 C327.25 185.01 330.82 190.87 334.39 196.72 C336.13 199.59 337.87 202.45 339.62 205.31 C340.14 206.17 340.14 206.17 340.67 207.04 C346.93 217.33 353.08 227.69 359.22 238.07 C364.55 247.08 369.96 256.04 375.51 264.93 C380.57 273.05 385.49 281.26 390.4 289.48 C391 290.49 391.6 291.5 392.22 292.54 C393.03 293.89 393.03 293.89 393.84 295.26 C394.93 297.05 396.08 298.82 397.24 300.56 C396.91 301.88 396.58 303.2 396.24 304.56 C244.77 304.56 93.3 304.56 -62.76 304.56 C-61.93 300.42 -61.56 298.83 -59.45 295.54 C-58.96 294.76 -58.47 293.98 -57.96 293.18 C-57.42 292.34 -56.88 291.49 -56.32 290.62 C-55.13 288.74 -53.94 286.84 -52.75 284.95 C-52.11 283.93 -51.46 282.9 -50.8 281.85 C-47.5 276.53 -44.29 271.16 -41.08 265.78 C-34.69 255.06 -28.23 244.38 -21.7 233.75 C-21.01 232.63 -20.33 231.52 -19.62 230.37 C-18.99 229.35 -18.37 228.34 -17.72 227.29 C-17.17 226.4 -16.62 225.51 -16.05 224.59 C-14.76 222.56 -14.76 222.56 -13.76 221.56 C-12.33 221.47 -10.91 221.44 -9.48 221.44 C-8.55 221.44 -7.62 221.44 -6.67 221.43 C-5.63 221.44 -4.6 221.44 -3.54 221.44 C-1.91 221.44 -1.91 221.44 -0.24 221.44 C3.43 221.44 7.1 221.44 10.77 221.45 C13.39 221.45 16.02 221.45 18.64 221.45 C24.29 221.45 29.95 221.45 35.61 221.46 C43.79 221.46 51.97 221.47 60.15 221.47 C73.42 221.47 86.69 221.48 99.97 221.49 C112.86 221.5 125.75 221.5 138.65 221.51 C139.44 221.51 140.24 221.51 141.06 221.51 C145.04 221.51 149.03 221.51 153.01 221.51 C186.09 221.52 219.16 221.54 252.24 221.56 C249.63 217.16 247.02 212.75 244.41 208.34 C243.52 206.85 242.63 205.35 241.75 203.86 C236.57 195.12 231.35 186.43 225.93 177.85 C222.34 172.15 218.82 166.39 215.31 160.64 C214.52 159.34 213.73 158.05 212.93 156.76 C211.82 154.95 210.71 153.14 209.61 151.32 C208.64 149.73 208.64 149.73 207.64 148.11 C206.24 145.56 206.24 145.56 206.24 143.56 C134.3 143.56 62.36 143.56 -11.76 143.56 C-12.42 145.21 -13.08 146.86 -13.76 148.56 C-14.89 150.55 -16.05 152.52 -17.25 154.47 C-17.59 155.03 -17.93 155.59 -18.29 156.17 C-19.4 157.99 -20.52 159.81 -21.63 161.62 C-22.8 163.54 -23.97 165.45 -25.14 167.37 C-25.92 168.65 -26.7 169.92 -27.48 171.2 C-30.6 176.3 -33.69 181.43 -36.76 186.56 C-41.49 194.48 -46.28 202.37 -51.07 210.25 C-56.49 219.17 -61.89 228.11 -67.26 237.06 C-72.55 245.89 -77.86 254.7 -83.2 263.5 C-83.81 264.52 -84.43 265.54 -85.07 266.59 C-86.06 268.22 -87.05 269.84 -88.11 271.42 C-90.79 275.52 -92.5 279.53 -94.15 284.16 C-97.2 291.69 -100.52 299.28 -107.76 303.56 C-121.62 308.51 -138.47 306.41 -152.89 305.81 C-158.52 305.6 -164.14 305.55 -169.77 305.48 C-180.77 305.32 -191.76 304.99 -202.76 304.56 C-202.08 299.9 -201.04 296.85 -198.54 292.84 C-197.52 291.19 -197.52 291.19 -196.49 289.5 C-195.75 288.31 -195 287.13 -194.26 285.94 C-193.49 284.7 -192.72 283.45 -191.96 282.21 C-190.36 279.62 -188.76 277.04 -187.16 274.45 C-183.75 268.93 -180.38 263.38 -177.02 257.83 C-175.94 256.06 -174.86 254.28 -173.79 252.51 C-169.28 245.09 -164.8 237.65 -160.35 230.21 C-156.08 223.08 -151.76 215.98 -147.45 208.88 C-142.02 199.95 -136.62 191.02 -131.26 182.06 C-125.53 172.5 -119.76 162.97 -113.97 153.44 C-109.55 146.16 -105.13 138.87 -100.76 131.56 C-96.06 123.71 -91.32 115.88 -86.57 108.06 C-86.21 107.47 -85.85 106.88 -85.48 106.27 C-81.86 100.3 -78.23 94.34 -74.6 88.38 C-72.86 85.52 -71.12 82.67 -69.38 79.81 C-69.04 79.25 -68.69 78.68 -68.34 78.1 C-62.43 68.38 -56.61 58.6 -50.82 48.81 C-38.78 28.48 -38.78 28.48 -34.14 21.45 C-32.47 18.85 -31.13 16.26 -29.9 13.43 C-23.23 -0.86 -14.64 -0.61 0 0 Z " fill="#DCC693" transform="translate(202.7578125,193.4375)"/>
<path d="M0 0 C3.72 1.24 4.04 2.26 5.98 5.58 C6.85 7.05 6.85 7.05 7.73 8.55 C8.36 9.63 8.98 10.7 9.62 11.81 C10.63 13.52 11.64 15.23 12.65 16.93 C13.35 18.13 14.06 19.32 14.76 20.52 C18.26 26.46 21.84 32.36 25.43 38.25 C31.16 47.64 36.85 57.06 42.5 66.5 C47.76 75.29 53.06 84.06 58.38 92.81 C58.73 93.4 59.08 93.98 59.45 94.58 C63.01 100.44 66.58 106.3 70.15 112.16 C71.89 115.02 73.63 117.89 75.38 120.75 C75.89 121.6 75.89 121.6 76.42 122.47 C82.75 132.88 88.97 143.36 95.18 153.85 C101.51 164.55 101.51 164.55 108.06 175.12 C112.57 182.25 116.95 189.45 121.31 196.67 C122.14 198.05 122.97 199.42 123.81 200.8 C124.98 202.73 126.15 204.67 127.32 206.61 C127.67 207.19 128.03 207.78 128.4 208.38 C130.11 211.24 131.29 213.75 132 217 C119.73 217.4 107.46 217.68 95.17 217.8 C89.47 217.86 83.77 217.96 78.07 218.16 C41.39 219.41 41.39 219.41 32.66 213.89 C27.63 208.67 25.15 202.71 22.98 195.88 C21.59 191.81 19.46 188.47 17.09 184.91 C16.38 183.75 15.67 182.58 14.97 181.42 C13.96 179.76 13.96 179.76 12.94 178.06 C12.59 177.48 12.23 176.9 11.87 176.3 C10.82 174.57 9.77 172.83 8.71 171.1 C7.82 169.62 7.82 169.62 6.91 168.11 C6.28 167.09 5.65 166.06 5 165 C4.68 164.33 4.37 163.67 4.04 162.98 C1.91 158.73 1.91 158.73 -1.96 156.27 C-4.4 156.01 -6.74 156.01 -9.2 156.09 C-10.11 156.09 -11.03 156.09 -11.98 156.09 C-15 156.09 -18.03 156.16 -21.05 156.22 C-23.15 156.23 -25.25 156.25 -27.35 156.25 C-32.87 156.28 -38.4 156.36 -43.92 156.45 C-49.56 156.53 -55.19 156.57 -60.83 156.61 C-71.89 156.7 -82.94 156.83 -94 157 C-93.22 153.6 -92.04 151.12 -90.22 148.12 C-89.34 146.67 -89.34 146.67 -88.44 145.18 C-87.8 144.13 -87.16 143.08 -86.5 142 C-85.84 140.9 -85.17 139.8 -84.49 138.67 C-82.7 135.72 -80.9 132.76 -79.1 129.81 C-77.28 126.82 -75.46 123.82 -73.64 120.82 C-71.47 117.25 -69.3 113.67 -67.13 110.1 C-62.59 102.63 -58.08 95.15 -53.6 87.66 C-48.89 79.81 -44.14 71.99 -39.39 64.17 C-34.9 56.79 -30.43 49.41 -26 42 C-21.38 34.29 -16.75 26.6 -12.09 18.91 C-11.33 17.65 -10.57 16.38 -9.8 15.12 C-8.73 13.35 -7.66 11.58 -6.59 9.81 C-5.66 8.28 -5.66 8.28 -4.71 6.71 C-3.24 4.37 -1.7 2.18 0 0 Z " fill="#DCC693" transform="translate(299,0)"/>
</svg>
