<?xml version="1.0" encoding="UTF-8"?>
<!-- Generator: https://ezgif.com/webp-to-svg -->
<svg version="1.1" xmlns="http://www.w3.org/2000/svg" width="50" height="50">
<path d="M0 0 C2 0.04 4 0.05 6 0 C6 0.66 6 1.32 6 2 C2.37 3.32 -1.26 4.64 -5 6 C-5 6.33 -5 6.66 -5 7 C-4.01 6.38 -4.01 6.38 -3 5.75 C0.93 4.77 2.61 5.73 6.06 7.64 C9.01 9.71 10.88 12.09 13 15 C12.3 14.86 11.6 14.71 10.88 14.56 C3.38 13.1 -3.46 12.12 -11 14 C-10.67 15.32 -10.34 16.64 -10 18 C-9.05 18.01 -8.09 18.03 -7.11 18.04 C3.14 18.43 3.14 18.43 7.31 21.19 C9 24 9 24 10 30 C10.66 26.04 11.32 22.08 12 18 C12.66 18 13.32 18 14 18 C15.38 23.39 15 27.86 13 33 C7.88 41.34 2.12 44.96 -7 48 C-7 47.34 -7 46.68 -7 46 C-10.63 46 -14.26 46 -18 46 C-17 44 -17 44 -14.97 43.18 C-14.15 42.94 -13.34 42.69 -12.5 42.44 C-9.49 41.67 -9.49 41.67 -7 40 C-7.85 40.25 -8.69 40.49 -9.56 40.75 C-13.98 41.07 -16.55 39.53 -20 37 C-22.44 34.87 -22.44 34.87 -24 33 C-24 32.34 -24 31.68 -24 31 C-23.02 31.33 -22.04 31.65 -21.03 31.99 C-16.83 33.19 -12.9 33.23 -8.56 33.12 C-7.83 33.12 -7.1 33.11 -6.35 33.1 C-4.56 33.07 -2.78 33.04 -1 33 C-0.67 31.35 -0.34 29.7 0 28 C-1.32 28.03 -1.32 28.03 -2.67 28.07 C-4.41 28.1 -4.41 28.1 -6.19 28.12 C-7.34 28.15 -8.48 28.17 -9.67 28.2 C-12.96 28 -15.12 27.59 -18 26 C-18.33 25.01 -18.66 24.02 -19 23 C-19.66 23 -20.32 23 -21 23 C-21.33 21.35 -21.66 19.7 -22 18 C-22.66 21.63 -23.32 25.26 -24 29 C-24.66 29 -25.32 29 -26 29 C-26.44 19.96 -25.57 13.96 -19.75 6.75 C-16.45 3.12 -13.62 1.54 -9 0 C-5.94 -1.53 -3.33 -0.5 0 0 Z M-21 13 C-20 15 -20 15 -20 15 Z M8 33 C9 35 9 35 9 35 Z " fill="#A41A1A" transform="translate(31,2)"/>
<path d="M0 0 C0.66 0 1.32 0 2 0 C3.55 6.03 2.91 11.74 -0.25 17.13 C-1.44 18.8 -2.71 20.41 -4 22 C-4.94 18.33 -5.72 14.79 -6 11 C-4.56 9.06 -4.56 9.06 -3 8 C-2.67 9.32 -2.34 10.64 -2 12 C-1.34 8.04 -0.68 4.08 0 0 Z M-4 15 C-3 17 -3 17 -3 17 Z " fill="#840D0D" transform="translate(43,20)"/>
<path d="M0 0 C2 0.04 4 0.05 6 0 C6 0.66 6 1.32 6 2 C5.38 2.12 4.77 2.24 4.13 2.37 C-0.2 3.22 -4.51 4.11 -8.81 5.12 C-11.94 5.83 -14.78 6.21 -18 6 C-15.21 2.9 -12.93 1.35 -9 0 C-5.94 -1.53 -3.33 -0.5 0 0 Z " fill="#AA4242" transform="translate(31,2)"/>
<path d="M0 0 C-0.52 0.24 -1.04 0.48 -1.57 0.73 C-5.81 2.77 -9.43 4.88 -13 8 C-13.66 7.34 -14.32 6.68 -15 6 C-16.32 6.99 -17.64 7.98 -19 9 C-17.75 5.35 -17.33 4.22 -14 2 C-12.37 1.38 -10.72 0.82 -9.06 0.31 C-7.78 -0.1 -7.78 -0.1 -6.47 -0.51 C-3.89 -1.02 -2.46 -0.85 0 0 Z " fill="#A80A0A" transform="translate(33,5)"/>
<path d="M0 0 C2.77 1.02 5.1 2.32 7.56 3.94 C4.25 5.04 2.32 4.86 -1.12 4.5 C-2.12 4.4 -3.11 4.3 -4.14 4.19 C-4.9 4.11 -5.66 4.02 -6.44 3.94 C-3.15 -0.08 -3.15 -0.08 0 0 Z " fill="#BA0909" transform="translate(31.4375,9.0625)"/>
<path d="M0 0 C0 0.66 0 1.32 0 2 C-5.65 3.17 -11.28 4.25 -17 5 C-12.06 0.65 -6.43 -0.31 0 0 Z " fill="#C45555" transform="translate(37,2)"/>
<path d="M0 0 C1.16 3.48 0.77 5.14 0.06 8.69 C-0.13 9.68 -0.33 10.68 -0.53 11.7 C-0.68 12.46 -0.84 13.22 -1 14 C-1.66 14 -2.32 14 -3 14 C-3.08 12.23 -3.14 10.46 -3.19 8.69 C-3.22 7.7 -3.26 6.72 -3.29 5.7 C-3 3 -3 3 -1.49 1.14 C-1 0.77 -0.51 0.39 0 0 Z " fill="#660404" transform="translate(8,17)"/>
<path d="M0 0 C-0.54 0.27 -1.09 0.53 -1.64 0.8 C-2.72 1.33 -2.72 1.33 -3.81 1.88 C-4.52 2.22 -5.23 2.57 -5.96 2.93 C-8.21 4.07 -8.21 4.07 -11 6 C-10.67 4.35 -10.34 2.7 -10 1 C-6.16 -0.48 -3.94 -1.22 0 0 Z " fill="#610505" transform="translate(33,5)"/>
<path d="M0 0 C1.65 0 3.3 0 5 0 C4.01 1.65 3.02 3.3 2 5 C0.68 4.67 -0.64 4.34 -2 4 C-1.34 2.68 -0.68 1.36 0 0 Z " fill="#AF2525" transform="translate(12,8)"/>
</svg>
