<?xml version="1.0" encoding="UTF-8"?>
<!-- Generator: https://ezgif.com/png-to-svg -->
<svg version="1.1" xmlns="http://www.w3.org/2000/svg" width="512" height="512" viewBox="-3.91 -3.82 108.64 108.64" preserveAspectRatio="xMidYMid meet">
<path d="M0 0 C0 0.99 0 1.98 0 3 C-1.97 4.61 -1.97 4.61 -4.5 6.19 C-5.34 6.72 -6.17 7.25 -7.03 7.79 C-7.68 8.19 -8.33 8.59 -9 9 C-8.05 8.65 -7.09 8.3 -6.11 7.94 C-4.85 7.48 -3.58 7.02 -2.31 6.56 C-1.69 6.33 -1.06 6.1 -0.42 5.87 C5.36 3.78 10.17 2.87 16.31 2.94 C17.92 2.95 17.92 2.95 19.55 2.96 C20.36 2.98 21.17 2.99 22 3 C22 3.66 22 4.32 22 5 C20.87 5.24 20.87 5.24 19.73 5.48 C7.35 8.3 -3.6 13.17 -11.29 23.79 C-13.69 28.54 -13.28 33.83 -13 39 C-6.7 39.91 -0.7 40.06 5.64 39.87 C11.94 39.78 17.55 40.47 23 43.88 C25 46 25 46 25 50 C25.99 50.33 26.98 50.66 28 51 C28.78 63.48 25.98 72.48 18.34 82.42 C12.17 89.23 4.54 93.79 -4 97 C-2.78 93.34 -1.63 92.84 1.56 90.81 C2.39 90.28 3.22 89.75 4.07 89.21 C4.7 88.81 5.34 88.41 6 88 C5.06 88.35 4.12 88.7 3.15 89.06 C1.89 89.52 0.63 89.98 -0.62 90.44 C-1.85 90.89 -3.08 91.34 -4.35 91.81 C-9.61 93.53 -14.36 94.13 -19.88 94.06 C-21.33 94.05 -21.33 94.05 -22.8 94.04 C-23.53 94.02 -24.25 94.01 -25 94 C-25 93.34 -25 92.68 -25 92 C-24.35 91.85 -23.69 91.71 -23.02 91.55 C-11.66 88.76 0.76 84.04 7.41 73.84 C10.11 68.51 10.26 64.8 9 59 C4.16 56.45 -0.44 56.81 -5.75 56.94 C-7.47 56.97 -9.2 57 -10.92 57.03 C-11.68 57.05 -12.44 57.06 -13.22 57.08 C-15 57 -15 57 -16 56 C-17.07 55.9 -18.14 55.79 -19.25 55.69 C-23.4 54.93 -25.05 53.95 -28 51 C-29.19 49.06 -29.19 49.06 -30 47 C-30.39 46.28 -30.78 45.56 -31.19 44.81 C-33.57 36.55 -29.75 28.29 -26 21 C-19.87 11.09 -10.9 4 0 0 Z " fill="#B20B0B" transform="translate(52,2)"/>
<path d="M0 0 C7.65 2.67 14.39 7.82 19.64 13.92 C19.64 14.58 19.64 15.24 19.64 15.92 C20.3 15.92 20.96 15.92 21.64 15.92 C21.64 16.58 21.64 17.24 21.64 17.92 C20.71 17.63 20.71 17.63 19.77 17.34 C18.5 16.95 18.5 16.95 17.2 16.55 C16.38 16.29 15.56 16.04 14.71 15.77 C7.37 13.74 0.71 12.62 -6.92 12.73 C-7.72 12.74 -8.52 12.74 -9.34 12.74 C-14.43 12.77 -19.33 13.2 -24.36 13.92 C-22.82 9.34 -19.17 7.34 -15.36 4.73 C-14.72 4.28 -14.08 3.83 -13.41 3.37 C-8.23 -0.25 -6.34 -1.51 0 0 Z " fill="#9D0808" transform="translate(65.359375,16.078125)"/>
<path d="M0 0 C0.62 0.19 1.23 0.39 1.87 0.59 C4.57 1.42 7.29 2.21 10 3 C10.67 3.21 11.34 3.43 12.04 3.64 C22.64 6.58 35.22 5.6 46 4 C44.61 8.17 41.61 9.67 38.12 12.06 C37.49 12.51 36.85 12.96 36.19 13.42 C28.2 19 28.2 19 26.12 19 C15.73 16.84 6.6 10.23 0 2 C0 1.34 0 0.68 0 0 Z " fill="#B50909" transform="translate(14,67)"/>
<path d="M0 0 C0.66 0 1.32 0 2 0 C2.65 18.48 0.64 29.74 -11.83 44.11 C-15.51 47.99 -19.24 50.57 -24 53 C-22.93 50.29 -22.04 49.03 -19.7 47.23 C-5.54 35.53 -2.23 17.19 0 0 Z " fill="#890E0E" transform="translate(88,40)"/>
<path d="M0 0 C-1.13 3.38 -1.89 3.89 -4.62 6 C-18.22 17.68 -22.68 35.86 -24 53 C-24.66 53 -25.32 53 -26 53 C-26.83 29.91 -26.83 29.91 -22 22 C-21.59 21.26 -21.18 20.53 -20.75 19.77 C-17.08 13.71 -7.74 0 0 0 Z " fill="#AC2323" transform="translate(37,8)"/>
<path d="M0 0 C0.62 0.19 1.23 0.39 1.87 0.59 C4.57 1.42 7.29 2.21 10 3 C10.67 3.21 11.34 3.43 12.04 3.64 C22.64 6.58 35.22 5.6 46 4 C45.67 4.99 45.34 5.98 45 7 C30.03 10.33 13.62 9.08 0 2 C0 1.34 0 0.68 0 0 Z " fill="#CA5E5E" transform="translate(14,67)"/>
<path d="M0 0 C0 3.53 -0.76 4.43 -2.69 7.31 C-9.56 18.53 -11.88 30.12 -13 43 C-13.66 43 -14.32 43 -15 43 C-15 36.07 -15 29.14 -15 22 C-14.34 22.99 -13.68 23.98 -13 25 C-12.79 24.26 -12.58 23.52 -12.37 22.76 C-9.81 14.34 -6.31 6.31 0 0 Z " fill="#5C0303" transform="translate(26,18)"/>
<path d="M0 0 C0 0.66 0 1.32 0 2 C-0.75 2.16 -1.5 2.32 -2.27 2.48 C-14.33 5.23 -26.26 10.06 -33.26 20.96 C-34.7 24.16 -35.48 27.54 -36 31 C-36.33 31 -36.66 31 -37 31 C-37.68 24.8 -36.72 21.3 -33.05 16.25 C-28.61 11.37 -22.69 6.13 -16 5 C-16 4.34 -16 3.68 -16 3 C-13.71 2.5 -11.42 2 -9.12 1.5 C-7.21 1.08 -7.21 1.08 -5.26 0.66 C-2 0 -2 0 0 0 Z " fill="#5F0808" transform="translate(74,5)"/>
<path d="M0 0 C4.93 1.96 9.23 4.99 13.56 8.02 C13.23 9.01 12.9 10 12.56 11.02 C11.99 10.62 11.42 10.22 10.84 9.81 C3.44 4.22 3.44 4.22 -5.23 2.16 C-9.16 3.68 -12.4 6.44 -15.75 8.95 C-17.26 10.05 -18.85 11.04 -20.44 12.02 C-21.43 11.69 -22.42 11.36 -23.44 11.02 C-21.55 9.58 -19.65 8.14 -17.75 6.7 C-17.22 6.3 -16.69 5.89 -16.15 5.48 C-6.59 -1.73 -6.59 -1.73 0 0 Z " fill="#CB4E4E" transform="translate(65.44140625,15.984375)"/>
<path d="M0 0 C-4.22 9.5 -14.78 14.37 -24 18 C-27.37 18.71 -30.56 19.06 -34 19 C-34 18.34 -34 17.68 -34 17 C-33.35 16.85 -32.69 16.71 -32.02 16.55 C-20.97 13.84 -11.92 9.53 -3.74 1.54 C-2 0 -2 0 0 0 Z " fill="#C24C4C" transform="translate(61,77)"/>
<path d="M0 0 C3.18 0.97 4.74 1.65 6.77 4.34 C9.38 7.45 11.87 8.92 15.44 10.81 C17.11 11.72 17.11 11.72 18.81 12.64 C21.99 14 23.62 14.58 27 14 C29.67 12.5 29.67 12.5 32.19 10.5 C36.82 7 36.82 7 39 7 C39 6.34 39 5.68 39 5 C39.99 5.33 40.98 5.66 42 6 C40.44 7.27 38.88 8.54 37.31 9.81 C36.44 10.52 35.57 11.23 34.68 11.96 C28.14 16.94 28.14 16.94 24.93 17.1 C15.07 14.82 6.43 8.76 0 1 C0 0.67 0 0.34 0 0 Z " fill="#590303" transform="translate(15,69)"/>
<path d="M0 0 C3.83 -0.06 7.67 -0.09 11.5 -0.12 C12.58 -0.14 13.66 -0.16 14.77 -0.18 C20.86 -0.21 26.2 0.03 32 2 C33.5 4.12 33.5 4.12 34 6 C33.28 5.65 32.56 5.3 31.81 4.94 C27.84 3.61 25.42 4.35 21.69 6.06 C21.13 6.37 20.57 6.68 20 7 C20.66 5.68 21.32 4.36 22 3 C14.74 2.67 7.48 2.34 0 2 C0 1.34 0 0.68 0 0 Z " fill="#D46B6B" transform="translate(40,42)"/>
<path d="M0 0 C0.33 0 0.66 0 1 0 C1.87 13.9 -1.99 23.42 -11 34 C-12.93 35.88 -14.82 37.42 -17 39 C-17.66 38.67 -18.32 38.34 -19 38 C-18.42 37.47 -17.84 36.93 -17.24 36.38 C-6.28 25.93 -0.91 15.08 0 0 Z " fill="#5D0303" transform="translate(79,53)"/>
<path d="M0 0 C0 0.33 0 0.66 0 1 C-1.23 1.22 -2.46 1.44 -3.73 1.66 C-12.81 3.37 -20.68 5.2 -28.75 9.83 C-31 11 -31 11 -34 11 C-34 10.34 -34 9.68 -34 9 C-22.41 3.29 -13.14 -0.49 0 0 Z " fill="#CE5D5E" transform="translate(72,5)"/>
<path d="M0 0 C0 0.99 0 1.98 0 3 C-0.71 3.36 -1.43 3.73 -2.16 4.1 C-10.37 8.41 -16.58 13.39 -23 20 C-22.39 14.16 -19.25 11.92 -14.99 8.23 C-10.33 4.76 -5.3 2.32 0 0 Z " fill="#AF4141" transform="translate(52,2)"/>
<path d="M0 0 C3.75 -0.12 7.5 -0.19 11.25 -0.25 C12.31 -0.28 13.38 -0.32 14.47 -0.35 C15.5 -0.36 16.52 -0.38 17.58 -0.39 C18.99 -0.42 18.99 -0.42 20.43 -0.45 C23.76 0.14 24.93 1.39 27 4 C27.5 6.47 27.5 6.47 27.44 9.06 C27.44 9.92 27.43 10.78 27.43 11.66 C26.93 14.38 26.12 15.28 24 17 C24.1 16.32 24.19 15.65 24.29 14.95 C24.4 14.06 24.51 13.17 24.62 12.25 C24.74 11.37 24.86 10.49 24.98 9.58 C25 6.71 24.69 5.31 23 3 C15.45 1.49 7.68 1.9 0 2 C0 1.34 0 0.68 0 0 Z " fill="#5E0404" transform="translate(37,57)"/>
<path d="M0 0 C0 3 0 3 -1.12 5.38 C-2.26 7.98 -2.26 7.98 -1.31 10.62 C0.38 13.74 0.38 13.74 3 16 C6 16.5 6 16.5 9 16 C10.75 14.58 10.75 14.58 12 13 C12.66 13 13.32 13 14 13 C14 13.66 14 14.32 14 15 C13.34 15 12.68 15 12 15 C12 15.66 12 16.32 12 17 C9 19 9 19 5.62 18.88 C1.06 17.77 -1.71 16.1 -4.19 12.06 C-4.46 11.38 -4.72 10.7 -5 10 C-5.39 9.17 -5.78 8.35 -6.19 7.5 C-7.07 4.8 -6.97 3.62 -6 1 C-5.34 2.65 -4.68 4.3 -4 6 C-2.68 4.02 -1.36 2.04 0 0 Z " fill="#5F0404" transform="translate(27,39)"/>
<path d="M0 0 C0.66 0.99 1.32 1.98 2 3 C1.33 5.68 0.58 8.11 -0.38 10.69 C-0.62 11.39 -0.87 12.09 -1.12 12.81 C-1.74 14.55 -2.37 16.27 -3 18 C-3.33 18 -3.66 18 -4 18 C-4.53 10.75 -3.72 6.27 0 0 Z " fill="#A80B0B" transform="translate(16,28)"/>
<path d="M0 0 C2 0.2 2 0.2 4.44 0.69 C5.24 0.84 6.04 0.98 6.87 1.14 C9 2 9 2 10.29 4.08 C10.52 4.71 10.76 5.35 11 6 C10.28 5.65 9.56 5.3 8.81 4.94 C4.84 3.61 2.42 4.35 -1.31 6.06 C-1.87 6.37 -2.43 6.68 -3 7 C-1.12 1.12 -1.12 1.12 0 0 Z " fill="#BF3F3F" transform="translate(63,42)"/>
<path d="M0 0 C0.33 0.99 0.66 1.98 1 3 C-0.43 5.04 -0.43 5.04 -2.44 7.19 C-3.1 7.9 -3.75 8.62 -4.43 9.36 C-4.95 9.9 -5.47 10.44 -6 11 C-6.33 10.01 -6.66 9.02 -7 8 C-5.57 5.96 -5.57 5.96 -3.56 3.81 C-2.9 3.1 -2.25 2.38 -1.57 1.64 C-1.05 1.1 -0.53 0.56 0 0 Z " fill="#C32B2B" transform="translate(36,11)"/>
<path d="M0 0 C-1.58 4.27 -4.51 6.27 -8 9 C-8.66 8.34 -9.32 7.68 -10 7 C-8.71 5.83 -7.42 4.66 -6.12 3.5 C-5.05 2.53 -5.05 2.53 -3.95 1.53 C-2 0 -2 0 0 0 Z " fill="#C23232" transform="translate(61,77)"/>
<path d="M0 0 C-3.96 1.98 -7.92 3.96 -12 6 C-10.74 2.21 -9.48 1.78 -6 0 C-2.44 -1.22 -2.44 -1.22 0 0 Z " fill="#7B1A1A" transform="translate(60,93)"/>
<path d="M0 0 C0.66 0 1.32 0 2 0 C1.5 4.4 -0.09 6.71 -3 10 C-3.66 9.67 -4.32 9.34 -5 9 C-3.35 6.03 -1.7 3.06 0 0 Z " fill="#C02B2B" transform="translate(77,52)"/>
<path d="M0 0 C2.04 1.62 4.04 3.29 6 5 C6 5.66 6 6.32 6 7 C6.66 7 7.32 7 8 7 C8 7.66 8 8.32 8 9 C4.86 8.66 3.97 7.97 1.75 5.62 C0 3 0 3 0 0 Z " fill="#A12121" transform="translate(79,25)"/>
<path d="M0 0 C3.38 0.25 3.38 0.25 7 1 C7.66 2.32 8.32 3.64 9 5 C4.55 3.02 4.55 3.02 0 1 C0 0.67 0 0.34 0 0 Z " fill="#CF5959" transform="translate(65,43)"/>
<path d="M0 0 C-1.13 3.4 -1.97 4.22 -5 6 C-5.99 5.67 -6.98 5.34 -8 5 C-2.25 0 -2.25 0 0 0 Z " fill="#AD3F3F" transform="translate(37,8)"/>
</svg>
