<?xml version="1.0" encoding="UTF-8"?>
<!-- Generator: https://ezgif.com/png-to-svg -->
<svg version="1.1" xmlns="http://www.w3.org/2000/svg" width="512" height="512" viewBox="-235.195 -57.36 1070.72 1070.72" preserveAspectRatio="xMidYMid meet">
<path d="M0 0 C9.32 1.22 17.05 9.31 22.93 16.18 C34.29 31.7 37.76 50.79 39.68 69.47 C40.65 77.72 42.78 86.11 49 92 C55.68 96.51 61.98 98.32 70 97 C76.23 94.9 80.15 90.26 83.31 84.69 C85.7 75.34 82.76 69.12 78 61 C75.79 57.39 73.55 53.81 71.25 50.26 C68 45.2 68 45.2 68 43 C68.99 43 69.98 43 71 43 C72.29 44.32 72.29 44.32 73.63 46.12 C77.15 50.44 81.25 53.13 85.94 56.06 C88.99 58 92.01 59.97 95 62 C95.9 62.6 95.9 62.6 96.81 63.21 C108.68 72.19 113.69 87.8 118.62 101.19 C123.9 115.6 123.9 115.6 131.53 128.86 C133 131 133 131 134.09 133.22 C135.31 135.61 136.56 135.92 139 137 C139.89 137.66 140.77 138.32 141.69 139 C145.7 141.42 149.3 142.74 154 143 C158.2 141.6 160.87 139.92 163 136 C163.72 132.85 163.72 132.85 164 130 C177.93 136.38 186.62 151.27 194 164 C194.52 164.88 194.52 164.88 195.05 165.77 C201.4 176.73 205.18 188.73 209.06 200.73 C212.7 212.82 212.7 212.82 220.88 222 C226.19 223.7 230.19 223.59 235.25 221.31 C238.73 219.36 240.65 217.89 242 214 C243.21 206.31 241.4 200.34 237 194 C232.76 189.08 228.19 184.73 222.88 181 C215.57 175.75 210.46 168.61 208 160 C208 159.34 208 158.68 208 158 C208.99 158 209.98 158 211 158 C211.73 158.75 212.46 159.49 213.21 160.26 C216.46 163.45 219.59 165 223.69 166.88 C240.82 175.11 252.82 186.01 259.27 204.3 C261.19 211.44 261.22 218.66 261.44 226 C261.61 230.33 261.8 234.67 262 239 C262.03 239.73 262.06 240.46 262.09 241.21 C262.63 251.47 266.06 260.65 269.64 270.2 C274.91 284.48 276.58 297.93 276.5 313 C276.5 313.81 276.5 314.61 276.5 315.44 C276.45 328.3 275.18 340.24 271.65 352.65 C271.03 354.89 270.51 357.12 270.02 359.38 C265.85 378.58 256.55 395.72 243 410 C242.34 410 241.68 410 241 410 C241 410.66 241 411.32 241 412 C221.8 430.47 196.76 438.71 170.67 438.47 C147.99 437.84 128.74 429.96 111 416 C110.05 415.28 109.09 414.57 108.11 413.83 C107.07 412.92 107.07 412.92 106 412 C106 411.34 106 410.68 106 410 C105.44 409.78 104.87 409.57 104.29 409.35 C92.13 402.2 83.76 381.75 79.75 368.91 C79.38 367.47 79.38 367.47 79 366 C78.5 364.13 78.5 364.13 77.99 362.21 C76.57 355.7 76.28 349.03 75.8 342.39 C73.55 312 66.63 285.03 47 261 C46.35 260.2 45.71 259.4 45.04 258.57 C39.97 252.59 34.21 247.76 28 243 C27.49 242.6 26.97 242.19 26.45 241.78 C12.12 230.55 -4.27 223.05 -22 219 C-22.79 218.82 -23.58 218.63 -24.4 218.44 C-32.41 216.78 -40.34 216.6 -48.5 216.62 C-49.2 216.63 -49.91 216.63 -50.64 216.63 C-62.13 216.67 -72.98 217.53 -84 221 C-84.68 221.21 -85.37 221.43 -86.07 221.65 C-101.42 226.64 -119.25 234.08 -130.73 245.76 C-132 247 -132 247 -134 247 C-134 247.66 -134 248.32 -134 249 C-136.38 251.62 -136.38 251.62 -139 254 C-139.66 254 -140.32 254 -141 254 C-141.26 254.57 -141.52 255.15 -141.78 255.74 C-143.11 258.2 -144.66 260.02 -146.5 262.12 C-167.17 287.75 -174.89 321.71 -173 354 C-172.28 360.16 -170.82 366.08 -169 372 C-168.65 373.14 -168.3 374.29 -167.94 375.46 C-162.76 390.29 -154.05 402.06 -143 413 C-141.89 414.15 -141.89 414.15 -140.75 415.32 C-132.94 422.89 -123.54 428.56 -114.44 434.43 C-112.41 435.74 -110.39 437.06 -108.38 438.39 C-81.92 455.47 -53.05 460.37 -22.07 460.01 C-19.84 459.98 -17.61 459.96 -15.38 459.95 C-12.97 459.93 -10.56 459.91 -8.15 459.88 C-2.19 459.83 3.77 459.8 9.73 459.79 C10.6 459.78 11.47 459.78 12.37 459.78 C15.96 459.77 19.55 459.76 23.14 459.75 C33.26 459.73 43.38 459.69 53.5 459.57 C61.59 459.48 69.67 459.44 77.76 459.45 C82.02 459.46 86.28 459.44 90.54 459.37 C122.06 458.81 122.06 458.81 133.71 469.46 C134.91 470.66 136.09 471.88 137.24 473.13 C139.73 475.78 142.44 478.16 145.15 480.58 C147.62 482.81 150.01 485.12 152.39 487.44 C153.84 488.84 155.3 490.23 156.77 491.61 C163.59 498.18 169.39 505.39 175 513 C175.42 513.57 175.85 514.14 176.28 514.72 C191.73 535.74 201.04 560.34 205 586 C205.26 587.57 205.26 587.57 205.52 589.17 C206.05 593.4 206.2 597.52 206.24 601.77 C206.25 602.61 206.26 603.44 206.27 604.3 C206.84 664.95 187.66 716.72 146 761 C145.35 761.71 144.69 762.42 144.02 763.15 C138.44 768.99 132.09 773.85 125.67 778.72 C124.24 779.82 122.81 780.94 121.39 782.06 C80.86 813.1 27 826.11 -23.32 819.69 C-56.72 814.97 -89.69 803.16 -117 783 C-117.53 782.61 -118.06 782.22 -118.61 781.82 C-132.54 771.46 -146.08 759.54 -157 746 C-157 745.34 -157 744.68 -157 744 C-157.66 744 -158.32 744 -159 744 C-160.91 741.6 -162.69 739.2 -164.44 736.69 C-164.97 735.92 -165.5 735.16 -166.05 734.38 C-179.38 714.98 -189.2 694.5 -196 672 C-196.31 671 -196.61 670 -196.93 668.98 C-201.19 653.66 -202.28 637.28 -203.18 621.48 C-203.63 614.65 -204.3 608.49 -208.62 602.91 C-213.68 598.99 -217.85 598.2 -224.23 598.54 C-229.18 599.36 -231.72 601.79 -235.25 605.12 C-239.8 612.61 -239.19 621.33 -238.44 629.75 C-238.34 630.86 -238.25 631.98 -238.15 633.13 C-233.2 686.46 -215.28 737.11 -175 774 C-174.34 774.33 -173.68 774.66 -173 775 C-173 775.66 -173 776.32 -173 777 C-172.47 777.23 -171.94 777.45 -171.39 777.69 C-168.2 779.44 -165.5 781.71 -162.69 784 C-147.62 796 -131.48 806.09 -113.32 812.7 C-103.35 816.61 -93.63 821.64 -85 828 C-83.89 828.76 -83.89 828.76 -82.77 829.54 C-82.18 830.02 -81.6 830.5 -81 831 C-81 831.66 -81 832.32 -81 833 C-80.34 833 -79.68 833 -79 833 C-64.23 849.82 -63.91 871 -64.06 892.12 C-64.16 911.22 -64.09 930.48 -53.27 946.98 C-52 949 -52 949 -51 952 C-50.34 952 -49.68 952 -49 952 C-49 952.66 -49 953.32 -49 954 C-48.34 954 -47.68 954 -47 954 C-47 954.66 -47 955.32 -47 956 C-56.55 954.53 -63.92 947.1 -70 940 C-81.83 923.67 -85.05 903.93 -87.43 884.4 C-88.28 877.95 -89.39 873.43 -93 868 C-93 867.34 -93 866.68 -93 866 C-93.66 866 -94.32 866 -95 866 C-95 865.34 -95 864.68 -95 864 C-102.28 860.06 -108.71 857.98 -117 859 C-122.81 861.08 -126.56 864.63 -129.75 869.88 C-132.49 876.73 -132.03 880.64 -129.29 887.25 C-127.13 891.86 -124.46 896.13 -121.75 900.44 C-120.66 902.18 -119.57 903.93 -118.48 905.68 C-118.01 906.44 -117.53 907.2 -117.04 907.98 C-116 910 -116 910 -116 913 C-116.66 913 -117.32 913 -118 913 C-119.14 911.86 -120.29 910.71 -121.41 909.54 C-126.07 905.02 -131.47 901.33 -136.87 897.76 C-154.54 885.95 -161.02 868.82 -167.97 849.52 C-172.62 836.75 -178.5 822.18 -191.19 815.44 C-196.16 813.37 -199.49 812.5 -204.75 814.25 C-208.19 815.77 -208.19 815.77 -210 819 C-210.39 821.32 -210.73 823.66 -211 826 C-215.8 824.55 -218.82 821.68 -222.25 818.19 C-222.82 817.61 -223.39 817.02 -223.98 816.42 C-240.31 799.42 -249.64 777.27 -256.55 755.05 C-256.81 754.25 -257.06 753.44 -257.32 752.61 C-257.8 751.09 -258.26 749.57 -258.7 748.05 C-260.59 741.94 -263.87 737.08 -269.25 733.5 C-274.19 732.6 -279.39 732.62 -283.91 735.01 C-287.15 737.54 -289.18 739.99 -290 744 C-290.22 751.14 -287.65 756.05 -284 762 C-283.32 763.33 -282.65 764.66 -282 766 C-281.34 766 -280.68 766 -280 766 C-280 766.66 -280 767.32 -280 768 C-279.47 768.22 -278.94 768.43 -278.4 768.65 C-268.81 774.04 -258.79 784.43 -255.62 795.06 C-255.32 796.52 -255.32 796.52 -255 798 C-258.11 797.64 -259.25 796.79 -261.67 794.69 C-265.06 791.8 -268.67 790.04 -272.69 788.19 C-288.68 780.42 -299.78 770.06 -306 753 C-306.36 752.02 -306.72 751.03 -307.1 750.02 C-308.67 744.34 -308.39 738.35 -308.5 732.5 C-308.95 717.61 -310.08 704.76 -315.25 690.71 C-317.42 684.79 -319.28 678.85 -320.88 672.75 C-321.08 671.99 -321.28 671.23 -321.49 670.44 C-323.81 661.37 -324.18 652.65 -324.19 643.31 C-324.2 642.22 -324.21 641.12 -324.22 639.99 C-324.25 626.96 -321.64 614.65 -318.69 602 C-318.26 600.11 -318.26 600.11 -317.83 598.17 C-311.34 570.19 -295.92 546.61 -271.45 531.17 C-249.6 517.93 -223.22 514.13 -198.25 519.62 C-179.19 524.35 -163.73 534.29 -150 548 C-149.36 548.63 -148.71 549.26 -148.05 549.91 C-130.66 568.32 -124.4 592.33 -122.78 616.93 C-121.86 630.38 -120.56 643.23 -116 656 C-115.76 656.67 -115.53 657.35 -115.28 658.04 C-104.13 689.2 -81.18 712.92 -52 728 C-22.81 741.6 12.96 743.66 43.31 732.94 C75 721.01 99.42 700.18 113.96 669.38 C126.47 640.82 130.68 608.78 120 579 C114.45 565.73 104.46 545.73 91 539 C91 538.34 91 537.68 91 537 C90.18 536.62 90.18 536.62 89.34 536.24 C86.56 534.77 84.12 533.02 81.56 531.19 C56.46 513.56 29.42 498.13 -1.92 496.43 C-3.03 496.37 -3.03 496.37 -4.16 496.3 C-11.83 495.91 -19.48 495.89 -27.15 495.94 C-28.68 495.94 -30.21 495.95 -31.74 495.95 C-35 495.96 -38.25 495.97 -41.51 495.98 C-46.67 496 -51.82 496 -56.98 496 C-57.86 496 -58.74 496 -59.64 496 C-63.24 496 -66.84 496 -70.44 495.99 C-80.61 495.99 -90.78 496 -100.95 496.05 C-109.08 496.09 -117.2 496.1 -125.32 496.08 C-129.61 496.06 -133.89 496.06 -138.18 496.11 C-142.2 496.15 -146.22 496.14 -150.25 496.11 C-151.72 496.1 -153.18 496.11 -154.65 496.14 C-166.17 496.33 -171.72 493.54 -180 486 C-181.23 484.99 -182.46 483.99 -183.7 483 C-189.39 478.12 -189.39 478.12 -191.52 476.28 C-192.87 475.11 -194.22 473.96 -195.57 472.8 C-199.8 469.15 -203.61 465.37 -207.21 461.1 C-208.44 459.66 -209.71 458.25 -211.01 456.87 C-232.73 433.83 -246.7 404.11 -252 373 C-252.12 372.34 -252.23 371.68 -252.35 370.99 C-260.93 319.48 -245.72 263.38 -215.62 221.24 C-202.62 203.37 -187.18 186.68 -169 174 C-168.45 173.6 -167.9 173.21 -167.33 172.8 C-151.27 161.3 -133.63 152.48 -115 146 C-114.25 145.73 -113.5 145.47 -112.73 145.19 C-62.42 127.48 -7.13 133.04 40.57 155.77 C55.27 162.97 68.24 171.79 81 182 C82.17 182.92 83.34 183.84 84.51 184.76 C90.11 189.22 90.11 189.22 92 191 C92 191.66 92 192.32 92 193 C92.66 193 93.32 193 94 193 C94 193.66 94 194.32 94 195 C94.66 195 95.32 195 96 195 C96 195.66 96 196.32 96 197 C96.66 197 97.32 197 98 197 C98 197.66 98 198.32 98 199 C98.66 199 99.32 199 100 199 C102.58 201.42 104.75 204.28 107 207 C107.43 207.51 107.86 208.02 108.31 208.54 C136.69 242.17 153.65 283.66 155.34 327.73 C155.29 340.66 155.29 340.66 160.68 351.89 C165.81 356.46 169.32 357.36 176.17 357.28 C180.51 356.85 182.55 355.68 186 353 C194.99 341.4 191.13 323.32 189.41 309.63 C183.73 267.62 169.79 226.82 140.3 195.45 C138.29 193.31 136.39 191.12 134.5 188.88 C121.37 173.89 104.07 162.94 87 153 C85.97 152.39 84.94 151.78 83.88 151.16 C78.17 147.91 72.34 145.49 66.2 143.21 C61.35 141.37 56.67 139.26 52 137 C51.1 136.57 50.19 136.14 49.26 135.7 C35.7 128.87 25.81 118.41 20.69 104.06 C15.99 89.62 16.63 74.55 16.54 59.55 C16.37 30.9 16.37 30.9 3.59 5.97 C2.05 4.06 1.01 2.23 0 0 Z " fill="#006736" transform="translate(324,0)"/>
<path d="M0 0 C0.43 0.42 0.85 0.83 1.29 1.26 C1.29 1.92 1.29 2.58 1.29 3.26 C-3.42 2.81 -8.01 2.25 -12.64 1.26 C-35.07 -3.33 -57.99 -1.97 -77.71 10.26 C-84.32 15.41 -88.12 24.49 -90.71 32.26 C-92.07 49.94 -87.03 62.78 -75.71 76.26 C-67.65 85.4 -58.46 93.02 -48.71 100.26 C-48.03 100.77 -47.35 101.28 -46.66 101.81 C-35.14 110.48 -23.17 118.03 -10.71 125.26 C-8.65 126.47 -6.59 127.67 -4.53 128.88 C0.44 131.79 5.42 134.69 10.4 137.58 C12.43 138.76 14.46 139.94 16.48 141.13 C17.53 141.74 18.58 142.36 19.66 142.99 C20.6 143.54 21.55 144.1 22.52 144.67 C25.3 146.26 28.1 147.8 30.92 149.32 C35.28 151.68 39.53 154.19 43.77 156.77 C46.39 158.32 49.05 159.76 51.73 161.2 C57.44 164.28 62.88 167.69 68.29 171.26 C69.4 171.98 69.4 171.98 70.54 172.71 C72.48 174.01 72.48 174.01 75.29 176.26 C75.29 177.25 75.29 178.24 75.29 179.26 C59.19 179.31 43.09 179.34 26.99 179.37 C19.51 179.38 12.04 179.39 4.56 179.41 C-1.97 179.43 -8.49 179.45 -15.02 179.45 C-18.47 179.45 -21.92 179.46 -25.36 179.47 C-74.39 179.66 -74.39 179.66 -94.71 168.26 C-95.42 167.87 -96.14 167.48 -96.87 167.07 C-125.75 151.18 -151.26 129.74 -161.78 97.47 C-168.35 74.79 -164.67 51.81 -154.04 31 C-140.92 7.57 -119.47 -9.84 -93.96 -18.11 C-91.88 -18.68 -89.8 -19.23 -87.71 -19.74 C-86.82 -19.96 -85.93 -20.19 -85.01 -20.42 C-55.46 -26.57 -23.87 -17.96 0 0 Z " fill="#006736" transform="translate(346.70703125,261.73828125)"/>
<path d="M0 0 C16.12 -0.05 32.23 -0.08 48.35 -0.1 C55.84 -0.11 63.32 -0.13 70.81 -0.15 C77.34 -0.17 83.88 -0.18 90.41 -0.19 C93.86 -0.19 97.31 -0.2 100.76 -0.21 C138.56 -0.35 166.2 5.02 197 28 C197.54 28.4 198.09 28.81 198.65 29.23 C204.61 33.71 204.61 33.71 207 36 C207 36.66 207 37.32 207 38 C207.57 38.24 208.15 38.48 208.74 38.73 C222.27 46.31 232.84 68.23 237.06 82.62 C237.8 85.74 238.45 88.84 239 92 C239.27 93.46 239.27 93.46 239.55 94.94 C242.92 118.05 235.04 141.61 221.35 160.13 C204.71 181.89 180.8 196.84 153.45 200.72 C139.97 201.82 127.11 201.45 114 198 C112.48 197.65 112.48 197.65 110.93 197.3 C97.6 193.82 83.77 186.56 73 178 C73 177.34 73 176.68 73 176 C77.56 176.47 82.07 176.98 86.59 177.75 C107.43 181.32 128.72 182.28 148 172 C149.67 170.67 151.34 169.34 153 168 C153.66 168 154.32 168 155 168 C155.27 167.43 155.54 166.86 155.82 166.27 C157.03 163.94 158.42 161.89 159.94 159.75 C165.35 151.65 168.05 143.11 166.6 133.27 C163.8 121.77 157.92 110.57 149.29 102.38 C148 101 148 101 148 99 C147.34 99 146.68 99 146 99 C146 98.34 146 97.68 146 97 C145.41 96.74 144.82 96.47 144.2 96.2 C141.9 94.95 140.51 93.66 138.73 91.75 C135.18 88.11 131.42 85 127.38 81.94 C126.29 81.11 126.29 81.11 125.19 80.27 C112.01 70.39 98.1 61.51 84 53 C82.53 52.1 81.06 51.19 79.6 50.29 C78.02 49.32 76.45 48.35 74.88 47.38 C74.16 46.93 73.44 46.49 72.7 46.03 C66.91 42.48 60.99 39.21 55 36 C7.83 10.6 7.83 10.6 0 3 C0 2.01 0 1.02 0 0 Z " fill="#006736" transform="translate(179,515)"/>
</svg>
