<?xml version="1.0" encoding="UTF-8"?>
<!-- Generator: https://ezgif.com/webp-to-svg -->
<svg version="1.1" xmlns="http://www.w3.org/2000/svg" width="50" height="50">
<path d="M0 0 C4.48 1.41 6.76 3.68 10 7 C11.32 7.7 12.65 8.37 14 9 C15.17 11.34 15.17 12.83 15.19 15.44 C15.2 16.22 15.22 17 15.23 17.81 C15 20 15 20 13 23 C10.38 23.69 10.38 23.69 8 24 C8.47 24.35 8.95 24.7 9.44 25.06 C11.78 27.97 11.87 30.31 12 34 C10.48 38.15 8.89 40.83 5 43 C1.64 43.98 0.37 44.12 -3 43 C-2.67 45.31 -2.34 47.62 -2 50 C-6.48 48.59 -8.76 46.32 -12 43 C-13.11 42.47 -13.11 42.47 -14.25 41.94 C-16 41 -16 41 -16.75 39.31 C-17.65 30.98 -17.65 30.98 -15 27 C-12.37 26.31 -12.37 26.31 -10 26 C-10.71 25.47 -10.71 25.47 -11.44 24.94 C-13.78 22.03 -13.87 19.69 -14 16 C-12.49 11.86 -10.91 9.12 -7 7 C-1.59 5.7 -1.59 5.7 1 7 C0.67 4.69 0.34 2.38 0 0 Z M-2 14 C-2 15.32 -2 16.64 -2 18 C0.6 20.46 0.6 20.46 4 21 C3.67 18.69 3.34 16.38 3 14 C1.35 14 -0.3 14 -2 14 Z M9 16 C10 18 10 18 10 18 Z M-6 29 C-5.67 31.31 -5.34 33.62 -5 36 C-3.35 36 -1.7 36 0 36 C0 34.68 0 33.36 0 32 C-2.6 29.54 -2.6 29.54 -6 29 Z M-12 32 C-11 34 -11 34 -11 34 Z M-11 35 C-10 37 -10 37 -10 37 Z " fill="#006736" transform="translate(26,0)"/>
</svg>
