<?xml version="1.0" encoding="UTF-8"?>
<!-- Generator: https://ezgif.com/png-to-svg -->
<svg version="1.1" xmlns="http://www.w3.org/2000/svg" width="512" height="512" viewBox="-36.399 -197.539 672.549 672.549" preserveAspectRatio="xMidYMid meet">
<path d="M0 0 C6.27 0.64 12.43 1.53 18.63 2.66 C20.01 2.9 20.01 2.9 21.41 3.16 C24.41 3.69 27.41 4.24 30.41 4.78 C32.5 5.16 34.59 5.54 36.68 5.91 C41.05 6.7 45.42 7.49 49.79 8.28 C55.39 9.3 61.01 10.31 66.62 11.32 C70.93 12.1 75.24 12.88 79.55 13.66 C81.62 14.03 83.69 14.4 85.76 14.78 C88.64 15.29 91.52 15.82 94.4 16.34 C95.26 16.5 96.12 16.65 97.01 16.81 C102.89 17.89 102.89 17.89 104 19 C104.09 21.15 104.12 23.3 104.11 25.45 C104.11 26.12 104.11 26.79 104.11 27.49 C104.11 29.72 104.11 31.96 104.1 34.19 C104.1 35.74 104.09 37.28 104.09 38.83 C104.09 42.9 104.08 46.98 104.07 51.05 C104.06 55.21 104.05 59.37 104.05 63.52 C104.04 71.68 104.02 79.84 104 88 C91.45 88.07 91.45 88.07 85.21 87.6 C84.09 87.51 82.96 87.43 81.8 87.34 C80.67 87.25 79.54 87.16 78.38 87.06 C77.21 86.98 76.04 86.89 74.83 86.8 C66.26 86.13 66.26 86.13 64 85 C63.97 83.88 63.95 82.77 63.92 81.62 C63.83 77.5 63.73 73.37 63.63 69.25 C63.58 67.46 63.54 65.67 63.5 63.88 C63.45 61.32 63.38 58.76 63.32 56.19 C63.3 55.39 63.28 54.58 63.27 53.75 C63.51 50.07 63.51 50.07 62 47 C58.92 46.46 55.8 46.2 52.69 45.88 C51.82 45.78 50.95 45.68 50.06 45.57 C48.8 45.44 48.8 45.44 47.51 45.3 C46.74 45.22 45.97 45.14 45.18 45.05 C42.92 45 41.17 45.41 39 46 C38.97 52.34 38.99 58.67 39.04 65.01 C39.06 67.16 39.06 69.32 39.04 71.47 C39.03 74.57 39.06 77.67 39.1 80.77 C39.08 81.73 39.07 82.69 39.05 83.69 C39.11 86.31 39.21 88.49 40 91 C42.25 93.11 44.07 93.84 47 95 C47 95.66 47 96.32 47 97 C48.65 97.33 50.3 97.66 52 98 C52 98.66 52 99.32 52 100 C52.69 100.09 53.39 100.19 54.11 100.29 C57.59 101.15 60.22 102.62 63.31 104.44 C64.38 105.05 65.45 105.67 66.55 106.31 C67.36 106.87 68.17 107.42 69 108 C69 108.66 69 109.32 69 110 C70.18 110.19 70.18 110.19 71.38 110.38 C74 111 74 111 76 113 C76.6 113.12 77.2 113.25 77.81 113.38 C80.81 114.23 82.61 116.03 85 118 C86.33 118.68 87.66 119.35 89 120 C90.32 120.99 91.64 121.98 93 123 C96.63 124.98 100.26 126.96 104 129 C104 165.3 104 201.6 104 239 C6.8 257 6.8 257 0 257 C0 223.34 0 189.68 0 155 C38 154 38 154 39 154 C39 173.47 39 192.94 39 213 C51.38 211.51 51.38 211.51 64 210 C64 191.19 64 172.38 64 153 C67.47 152.01 67.47 152.01 71 151 C69.35 150.67 67.7 150.34 66 150 C66 149.34 66 148.68 66 148 C65.43 147.88 64.87 147.76 64.29 147.63 C63.18 147.38 63.18 147.38 62.06 147.12 C60.97 146.88 60.97 146.88 59.85 146.63 C58 146 58 146 57 144 C55.15 142.95 55.15 142.95 53 142 C52.36 141.67 51.72 141.34 51.06 141 C48.94 139.93 48.94 139.93 46.38 139 C44 138 44 138 42 136 C41.32 135.86 40.64 135.71 39.94 135.56 C39.3 135.38 38.66 135.19 38 135 C37.67 134.01 37.34 133.02 37 132 C36.22 131.88 35.43 131.75 34.62 131.62 C32 131 32 131 30 129 C29.11 128.78 29.11 128.78 28.2 128.56 C25.39 127.84 23.24 126.55 20.75 125.06 C19.86 124.54 18.97 124.01 18.05 123.47 C17.37 122.99 16.7 122.5 16 122 C16 121.34 16 120.68 16 120 C14.87 119.73 13.73 119.46 12.56 119.19 C11.39 118.8 10.21 118.4 9 118 C8.67 117.01 8.34 116.02 8 115 C6.35 114.67 4.7 114.34 3 114 C3 113.34 3 112.68 3 112 C2.01 111.34 1.02 110.68 0 110 C-0.37 108.04 -0.37 108.04 -0.36 105.58 C-0.36 104.66 -0.37 103.73 -0.37 102.77 C-0.36 101.75 -0.35 100.73 -0.34 99.68 C-0.34 98.6 -0.34 97.53 -0.34 96.42 C-0.34 92.86 -0.32 89.3 -0.29 85.74 C-0.29 83.28 -0.28 80.82 -0.28 78.35 C-0.27 71.86 -0.24 65.36 -0.21 58.87 C-0.18 52.25 -0.16 45.63 -0.15 39 C-0.11 26 -0.06 13 0 0 Z M37 44 C37 59.84 37 75.68 37 92 C37.33 92 37.66 92 38 92 C38 76.16 38 60.32 38 44 C37.67 44 37.34 44 37 44 Z " fill="#2B5CFC" transform="translate(0,19)"/>
<path d="M0 0 C0 26.73 0 53.46 0 81 C-3.89 81.97 -7.56 82.33 -11.54 82.57 C-12.26 82.62 -12.98 82.66 -13.73 82.71 C-15.25 82.8 -16.77 82.89 -18.29 82.98 C-20.62 83.12 -22.96 83.28 -25.29 83.43 C-26.77 83.52 -28.25 83.61 -29.73 83.7 C-30.43 83.74 -31.12 83.79 -31.84 83.83 C-36.77 84.11 -36.77 84.11 -39 83 C-39 70.79 -39 58.58 -39 46 C-44.22 44.96 -48.05 45.21 -53.25 45.81 C-54.08 45.9 -54.91 45.98 -55.76 46.06 C-57.85 46.3 -59.93 46.64 -62 47 C-63.18 49.35 -63.12 50.74 -63.11 53.36 C-63.11 54.26 -63.11 55.16 -63.11 56.09 C-63.11 57.06 -63.1 58.04 -63.1 59.04 C-63.1 60.04 -63.09 61.03 -63.09 62.06 C-63.09 65.25 -63.08 68.44 -63.06 71.62 C-63.06 73.78 -63.05 75.94 -63.05 78.1 C-63.04 83.4 -63.02 88.7 -63 94 C-60.77 95.15 -58.55 96.3 -56.31 97.44 C-55.37 97.93 -55.37 97.93 -54.42 98.42 C-50.94 100.19 -47.84 101.36 -44 102 C-41.88 103.41 -40.01 104.99 -38.06 106.62 C-35.71 108.2 -33.78 108.61 -31 109 C-31 109.66 -31 110.32 -31 111 C-30.26 111.1 -29.51 111.21 -28.75 111.31 C-25.79 112.05 -24.38 113.16 -22 115 C-21.04 115.19 -21.04 115.19 -20.06 115.38 C-18 116 -18 116 -15.56 118.5 C-12.72 121.28 -11.77 121.37 -8 122 C-5.47 123.15 -3.35 124.47 -1 126 C0.01 129.03 0.12 131.05 0.12 134.22 C0.12 135.84 0.12 135.84 0.12 137.5 C0.12 139.28 0.12 139.28 0.11 141.09 C0.11 142.34 0.11 143.59 0.11 144.88 C0.11 148.3 0.11 151.73 0.1 155.15 C0.1 158.73 0.09 162.31 0.09 165.89 C0.09 172.67 0.08 179.45 0.07 186.23 C0.06 193.94 0.06 201.66 0.05 209.38 C0.04 225.25 0.02 241.13 0 257 C-6.48 256.43 -12.83 255.6 -19.23 254.43 C-20.52 254.2 -20.52 254.2 -21.84 253.97 C-24.65 253.46 -27.46 252.95 -30.27 252.44 C-32.24 252.08 -34.21 251.73 -36.18 251.37 C-41.34 250.44 -46.49 249.51 -51.65 248.57 C-55.87 247.81 -60.08 247.05 -64.29 246.29 C-73 244.72 -81.71 243.15 -90.42 241.57 C-91.22 241.42 -92.02 241.28 -92.84 241.13 C-96.57 240.45 -100.28 239.74 -104 239 C-104 210.29 -104 181.58 -104 152 C-101.41 150.7 -99.69 150.96 -96.79 151.09 C-95.2 151.15 -95.2 151.15 -93.57 151.22 C-92.46 151.27 -91.34 151.32 -90.19 151.38 C-89.11 151.42 -88.04 151.46 -86.93 151.51 C-79.26 151.84 -71.67 152.41 -64 153 C-64 171.81 -64 190.62 -64 210 C-51.62 211.49 -51.62 211.49 -39 213 C-39 193.53 -39 174.06 -39 154 C-35 153 -35 153 -33 153 C-33 152.34 -33 151.68 -33 151 C-34.65 150.67 -36.3 150.34 -38 150 C-38 149.34 -38 148.68 -38 148 C-39.67 147.57 -39.67 147.57 -41.38 147.12 C-45 146 -45 146 -47 144 C-47.64 143.86 -48.28 143.71 -48.94 143.56 C-51.41 142.89 -52.21 141.79 -54 140 C-54.56 139.87 -55.12 139.75 -55.7 139.62 C-58.87 138.76 -61.42 137.21 -64.25 135.56 C-65.33 134.95 -66.41 134.33 -67.52 133.69 C-68.75 132.85 -68.75 132.85 -70 132 C-70 131.34 -70 130.68 -70 130 C-71.03 129.73 -72.06 129.46 -73.12 129.19 C-76.65 128.19 -79.77 126.73 -83 125 C-83 124.34 -83 123.68 -83 123 C-83.91 122.71 -84.82 122.42 -85.75 122.12 C-89 121 -91.85 119.61 -94.88 118 C-97.13 116.88 -97.13 116.88 -100.19 116 C-103 115 -103 115 -104 113 C-104.09 110.04 -104.13 107.1 -104.11 104.14 C-104.11 103.23 -104.11 102.31 -104.11 101.36 C-104.11 98.32 -104.11 95.28 -104.1 92.24 C-104.1 90.14 -104.09 88.03 -104.09 85.93 C-104.09 80.38 -104.08 74.83 -104.07 69.29 C-104.06 63.63 -104.05 57.97 -104.05 52.32 C-104.04 41.21 -104.02 30.11 -104 19 C-98.98 17.16 -94 16.15 -88.75 15.21 C-87.84 15.05 -86.93 14.88 -85.99 14.71 C-82.99 14.16 -79.99 13.62 -76.99 13.09 C-74.9 12.71 -72.81 12.33 -70.72 11.95 C-66.35 11.16 -61.98 10.37 -57.61 9.59 C-52 8.58 -46.39 7.56 -40.79 6.55 C-36.47 5.76 -32.16 4.99 -27.85 4.21 C-25.78 3.84 -23.72 3.46 -21.65 3.09 C-18.76 2.56 -15.87 2.05 -12.99 1.53 C-12.13 1.37 -11.28 1.22 -10.4 1.06 C-9.61 0.92 -8.82 0.78 -8.01 0.63 C-7.33 0.51 -6.65 0.39 -5.94 0.26 C-4 0 -4 0 0 0 Z M-66 47 C-66 62.18 -66 77.36 -66 93 C-65.67 93 -65.34 93 -65 93 C-65 77.82 -65 62.64 -65 47 C-65.33 47 -65.66 47 -66 47 Z " fill="#2B5DFD" transform="translate(600,19)"/>
<path d="M0 0 C0 23.76 0 47.52 0 72 C-3.96 72.99 -3.96 72.99 -8 74 C-8 74.99 -8 75.98 -8 77 C-7.42 77.29 -6.85 77.58 -6.25 77.88 C-4.17 78.92 -2.08 79.96 0 81 C0 109.05 0 137.1 0 166 C-24 163 -24 163 -29 162 C-29 141.21 -29 120.42 -29 99 C-28.34 98.67 -27.68 98.34 -27 98 C-27.99 97.67 -28.98 97.34 -30 97 C-30.6 96.55 -31.19 96.1 -31.8 95.64 C-34.44 93.67 -37.18 92.28 -40.12 90.81 C-41.18 90.28 -42.23 89.75 -43.32 89.21 C-45.81 87.86 -45.81 87.86 -48 88 C-48.33 111.1 -48.66 134.2 -49 158 C-59 158 -59 158 -80 155 C-80 107.48 -80 59.96 -80 11 C-73.11 9.75 -66.37 8.57 -59.44 7.81 C-58.65 7.72 -57.85 7.62 -57.04 7.53 C-51.24 6.88 -51.24 6.88 -49 8 C-49 24.83 -49 41.66 -49 59 C-48.34 59.33 -47.68 59.66 -47 60 C-46.34 60.66 -45.68 61.32 -45 62 C-43.56 62.73 -42.1 63.42 -40.62 64.06 C-39.47 64.57 -39.47 64.57 -38.29 65.1 C-36.2 65.92 -34.17 66.46 -32 67 C-31.67 67.33 -31.34 67.66 -31 68 C-31 46.88 -31 25.76 -31 4 C-2 0 -2 0 0 0 Z M-12 75 C-12 75.66 -12 76.32 -12 77 C-11.34 77 -10.68 77 -10 77 C-10 76.34 -10 75.68 -10 75 C-10.66 75 -11.32 75 -12 75 Z " fill="#2B5BFD" transform="translate(483,67)"/>
<path d="M0 0 C14.8 1.14 14.8 1.14 21.19 2 C22.44 2.17 23.69 2.33 24.98 2.5 C28 3 28 3 30 4 C30.33 21.82 30.66 39.64 31 58 C32.65 58.33 34.3 58.66 36 59 C38.02 59.95 40.03 60.95 42 62 C42 62.66 42 63.32 42 64 C42.93 64.14 43.86 64.29 44.81 64.44 C48 65 48 65 51 66 C51.33 46.53 51.66 27.06 52 7 C67.91 8.14 67.91 8.14 73.81 9 C74.97 9.16 76.14 9.33 77.33 9.5 C80 10 80 10 81 11 C81.1 12.83 81.12 14.67 81.12 16.51 C81.12 18.31 81.12 18.31 81.12 20.14 C81.12 21.47 81.12 22.81 81.11 24.15 C81.11 25.55 81.11 26.95 81.11 28.35 C81.11 32.16 81.11 35.97 81.1 39.78 C81.1 43.75 81.09 47.73 81.09 51.71 C81.09 59.24 81.08 66.78 81.07 74.32 C81.06 82.89 81.06 91.47 81.05 100.05 C81.04 117.7 81.02 135.35 81 153 C76.73 153.67 72.46 154.34 68.19 155 C66.97 155.19 65.76 155.38 64.51 155.58 C63.34 155.76 62.18 155.94 60.98 156.12 C59.91 156.29 58.83 156.46 57.73 156.63 C55 157 55 157 52 157 C52 137.2 52 117.4 52 97 C52.66 96.67 53.32 96.34 54 96 C53.05 95.69 52.1 95.38 51.12 95.06 C47.88 93.96 45.59 92.76 42.62 91 C40.06 89.52 37.88 88.67 35 88 C33.35 87.01 31.7 86.02 30 85 C30 109.75 30 134.5 30 160 C13 163 13 163 0 164 C0 109.88 0 55.76 0 0 Z " fill="#2B5DFD" transform="translate(121,68)"/>
<path d="M0 0 C0 19.47 0 38.94 0 59 C-2.31 59.99 -4.62 60.98 -7 62 C-5.89 64.92 -5.34 65.84 -2.45 67.21 C0 69 0 69 0.6 72.02 C0.59 73.26 0.58 74.49 0.57 75.77 C0.57 76.45 0.57 77.13 0.57 77.84 C0.57 80.09 0.53 82.35 0.49 84.61 C0.48 86.17 0.47 87.74 0.47 89.3 C0.45 93.42 0.4 97.54 0.34 101.66 C0.29 105.86 0.27 110.06 0.24 114.26 C0.19 122.51 0.11 130.75 0 139 C-2.02 138.88 -4.04 138.75 -6.06 138.62 C-7.19 138.56 -8.31 138.49 -9.47 138.41 C-16 137.82 -22.5 136.87 -29 136 C-29 118.51 -29 101.02 -29 83 C-28.34 82.67 -27.68 82.34 -27 82 C-34.26 79.03 -41.52 76.06 -49 73 C-49 92.47 -49 111.94 -49 132 C-59.14 132 -59.14 132 -63.44 131.38 C-64.35 131.25 -65.27 131.12 -66.21 130.98 C-67.13 130.84 -68.05 130.71 -69 130.56 C-70.43 130.36 -70.43 130.36 -71.89 130.15 C-78.87 129.13 -78.87 129.13 -80 128 C-80.1 126.47 -80.12 124.93 -80.12 123.4 C-80.12 122.41 -80.12 121.41 -80.12 120.39 C-80.12 119.29 -80.12 118.19 -80.11 117.05 C-80.11 115.9 -80.11 114.75 -80.11 113.57 C-80.11 109.74 -80.11 105.92 -80.1 102.09 C-80.1 99.45 -80.09 96.8 -80.09 94.16 C-80.09 87.9 -80.08 81.63 -80.07 75.37 C-80.06 68.25 -80.06 61.12 -80.05 53.99 C-80.04 39.33 -80.02 24.66 -80 10 C-70.31 8.69 -60.62 7.39 -50.92 6.09 C-46.42 5.48 -41.92 4.88 -37.42 4.27 C-33.08 3.69 -28.73 3.1 -24.39 2.52 C-22.73 2.3 -21.07 2.08 -19.42 1.85 C-17.1 1.54 -14.77 1.23 -12.45 0.92 C-11.77 0.82 -11.09 0.73 -10.38 0.63 C-6.85 0.17 -3.59 0 0 0 Z M-30 24 C-30 35.22 -30 46.44 -30 58 C-29.67 58 -29.34 58 -29 58 C-29 46.78 -29 35.56 -29 24 C-29.33 24 -29.66 24 -30 24 Z M-41.12 25 C-41.88 25.1 -42.63 25.19 -43.41 25.29 C-45.27 25.52 -47.14 25.76 -49 26 C-48.99 26.69 -48.99 27.37 -48.98 28.08 C-48.96 31.18 -48.95 34.28 -48.94 37.38 C-48.93 38.46 -48.92 39.54 -48.91 40.65 C-48.91 41.68 -48.91 42.71 -48.9 43.77 C-48.9 44.73 -48.89 45.68 -48.89 46.66 C-49 49 -49 49 -50 51 C-47.78 51.87 -45.55 52.72 -43.31 53.56 C-42.69 53.81 -42.06 54.06 -41.42 54.31 C-37.15 55.9 -35.7 55.94 -31 55 C-31 44.77 -31 34.54 -31 24 C-34.4 24 -37.76 24.57 -41.12 25 Z M-51 26 C-51 33.92 -51 41.84 -51 50 C-50.67 50 -50.34 50 -50 50 C-50 42.08 -50 34.16 -50 26 C-50.33 26 -50.66 26 -51 26 Z " fill="#2A5CFC" transform="translate(389,80)"/>
<path d="M0 0 C5.73 0 10.64 0.07 16.2 0.79 C17.19 0.92 17.19 0.92 18.19 1.05 C20.34 1.33 22.47 1.61 24.61 1.9 C26.12 2.1 27.62 2.29 29.12 2.49 C32.25 2.9 35.38 3.32 38.51 3.74 C42.52 4.27 46.53 4.79 50.54 5.32 C53.63 5.72 56.73 6.13 59.82 6.54 C61.3 6.74 62.78 6.93 64.26 7.12 C66.32 7.39 68.38 7.67 70.45 7.95 C71.62 8.1 72.79 8.26 74 8.42 C77 9 77 9 81 11 C80.67 49.28 80.34 87.56 80 127 C54 131 54 131 51 131 C51 114.5 51 98 51 81 C51.66 80.67 52.32 80.34 53 80 C45.74 77.36 38.48 74.72 31 72 C31 92.46 31 112.92 31 134 C3 138 3 138 0 138 C0 92.46 0 46.92 0 0 Z M29 23 C29 31.58 29 40.16 29 49 C29.33 49 29.66 49 30 49 C30 40.42 30 31.84 30 23 C29.67 23 29.34 23 29 23 Z M31 24 C31 32.25 31 40.5 31 49 C39.41 53.3 39.41 53.3 48 56 C49.33 54.9 49.33 54.9 49.11 52.13 C49.11 50.88 49.1 49.63 49.1 48.34 C49.1 47.68 49.09 47.01 49.09 46.33 C49.09 44.2 49.08 42.07 49.06 39.94 C49.06 38.5 49.05 37.06 49.05 35.62 C49.04 32.08 49.02 28.54 49 25 C43.06 24.67 37.12 24.34 31 24 Z M50 25 C50 35.56 50 46.12 50 57 C50.33 57 50.66 57 51 57 C51 46.44 51 35.88 51 25 C50.67 25 50.34 25 50 25 Z " fill="#2A5DFD" transform="translate(215,81)"/>
<path d="M0 0 C9.87 -0.53 17.72 0.71 27 4 C28.33 4.34 29.67 4.67 31 5 C32.34 5.65 33.67 6.32 35 7 C35.78 7.29 36.57 7.58 37.38 7.88 C42.39 10.02 45.63 12.09 48 17 C48.99 17.25 48.99 17.25 50 17.5 C50.99 17.75 50.99 17.75 52 18 C52.28 18.56 52.55 19.12 52.84 19.69 C54.35 22.7 56.41 24.91 58.62 27.44 C66.27 36.44 71.8 46.27 76.88 56.88 C77.26 57.67 77.64 58.47 78.03 59.29 C80.77 65.15 83 70.43 83 77 C80.36 77.33 77.72 77.66 75 78 C73.35 74.7 71.7 71.4 70 68 C70.99 72.95 70.99 72.95 72 78 C69.4 78.49 66.79 78.96 64.19 79.44 C63.47 79.57 62.75 79.71 62.01 79.85 C59.68 80.27 57.34 80.64 55 81 C53.83 81.2 53.83 81.2 52.63 81.41 C43.39 82.66 34.44 80.95 25.31 79.56 C23.63 79.32 21.94 79.07 20.26 78.83 C16.17 78.23 12.09 77.62 8 77 C8.28 75.77 8.55 74.54 8.84 73.27 C9.21 71.64 9.57 70.01 9.94 68.38 C10.21 67.16 10.21 67.16 10.49 65.93 C15.56 43.24 13.27 24.44 1.83 4.25 C0 1 0 1 0 0 Z M53 36 C54 38 54 38 54 38 Z M55 39 C56 41 56 41 56 41 Z M56 41 C56.33 41.99 56.66 42.98 57 44 C57 43.01 57 42.02 57 41 C56.67 41 56.34 41 56 41 Z M58 44 C59.58 49.21 61.78 53.98 64.12 58.88 C64.68 60.05 64.68 60.05 65.25 61.25 C66.17 63.17 67.08 65.08 68 67 C68.66 66.67 69.32 66.34 70 66 C68.49 60.74 66.1 56.33 63.38 51.62 C62.95 50.89 62.53 50.15 62.1 49.39 C61.07 47.59 60.04 45.8 59 44 C58.67 44 58.34 44 58 44 Z " fill="#2B5CFC" transform="translate(257,0)"/>
<path d="M0 0 C0.33 0 0.66 0 1 0 C1 46.53 1 93.06 1 141 C0.67 141 0.34 141 0 141 C0 94.47 0 47.94 0 0 Z " fill="#0000FF" transform="translate(203,79)"/>
<path d="M0 0 C0.33 0 0.66 0 1 0 C1 45.21 1 90.42 1 137 C0.67 137 0.34 137 0 137 C0 91.79 0 46.58 0 0 Z " fill="#007FFF" transform="translate(213,81)"/>
<path d="M0 0 C0.33 0 0.66 0 1 0 C1 38.61 1 77.22 1 117 C0.67 117 0.34 117 0 117 C0 78.39 0 39.78 0 0 Z " fill="#0055FF" transform="translate(307,91)"/>
<path d="M0 0 C0.33 0 0.66 0 1 0 C1 35.64 1 71.28 1 108 C0.67 108 0.34 108 0 108 C0 72.36 0 36.72 0 0 Z " fill="#0000FF" transform="translate(105,149)"/>
<path d="M0 0 C0.33 0 0.66 0 1 0 C1 30.69 1 61.38 1 93 C0.67 93 0.34 93 0 93 C0 62.31 0 31.62 0 0 Z " fill="#0000FF" transform="translate(494,38)"/>
<path d="M0 0 C0.33 0 0.66 0 1 0 C1 28.38 1 56.76 1 86 C0.67 86 0.34 86 0 86 C0 57.62 0 29.24 0 0 Z " fill="#0000FF" transform="translate(494,171)"/>
<path d="M0 0 C0.33 0 0.66 0 1 0 C1 27.39 1 54.78 1 83 C0.67 83 0.34 83 0 83 C0 55.61 0 28.22 0 0 Z " fill="#0053FF" transform="translate(484,149)"/>
<path d="M0 0 C0.33 0 0.66 0 1 0 C1 23.1 1 46.2 1 70 C0.67 70 0.34 70 0 70 C0 46.9 0 23.8 0 0 Z " fill="#5155FF" transform="translate(390,149)"/>
<path d="M0 0 C0.33 0 0.66 0 1 0 C1 22.77 1 45.54 1 69 C0.67 69 0.34 69 0 69 C0 46.23 0 23.46 0 0 Z " fill="#0053FF" transform="translate(484,68)"/>
<path d="M0 0 C0.33 0 0.66 0 1 0 C1 22.11 1 44.22 1 67 C0.67 67 0.34 67 0 67 C0 44.89 0 22.78 0 0 Z " fill="#0000FF" transform="translate(105,39)"/>
<path d="M0 0 C0.33 0 0.66 0 1 0 C1 20.46 1 40.92 1 62 C0.67 62 0.34 62 0 62 C0 41.54 0 21.08 0 0 Z " fill="#5353FF" transform="translate(452,166)"/>
<path d="M0 0 C0.33 0 0.66 0 1 0 C1 19.47 1 38.94 1 59 C0.67 59 0.34 59 0 59 C0 39.53 0 20.06 0 0 Z " fill="#5151FF" transform="translate(390,80)"/>
<path d="M0 0 C0.33 0 0.66 0 1 0 C1 17.16 1 34.32 1 52 C0.67 52 0.34 52 0 52 C0 34.84 0 17.68 0 0 Z " fill="#0055FF" transform="translate(358,163)"/>
<path d="M0 0 C0.33 0 0.66 0 1 0 C1 15.84 1 31.68 1 48 C0.67 48 0.34 48 0 48 C0 32.16 0 16.32 0 0 Z " fill="#0000FF" transform="translate(264,163)"/>
<path d="M0 0 C6.27 0 12.54 0 19 0 C19 0.33 19 0.66 19 1 C12.73 1 6.46 1 0 1 C0 0.67 0 0.34 0 0 Z " fill="#1743FF" transform="translate(499,169)"/>
<path d="M0 0 C5.94 0 11.88 0 18 0 C18 0.33 18 0.66 18 1 C12.06 1 6.12 1 0 1 C0 0.67 0 0.34 0 0 Z " fill="#114AFF" transform="translate(5,172)"/>
<path d="M0 0 C0.33 0 0.66 0 1 0 C1 5.94 1 11.88 1 18 C0.67 18 0.34 18 0 18 C0 12.06 0 6.12 0 0 Z " fill="#1549FF" transform="translate(269,35)"/>
<path d="M0 0 C3.63 0 7.26 0 11 0 C11 0.33 11 0.66 11 1 C7.37 1 3.74 1 0 1 C0 0.67 0 0.34 0 0 Z " fill="#153FFF" transform="translate(80,107)"/>
<path d="M0 0 C3.63 0 7.26 0 11 0 C11 0.33 11 0.66 11 1 C7.37 1 3.74 1 0 1 C0 0.67 0 0.34 0 0 Z " fill="#133EFF" transform="translate(568,103)"/>
<path d="M0 0 C3.3 0 6.6 0 10 0 C10 0.33 10 0.66 10 1 C6.7 1 3.4 1 0 1 C0 0.67 0 0.34 0 0 Z " fill="#1148FF" transform="translate(583,102)"/>
<path d="M0 0 C2.97 0 5.94 0 9 0 C9 0.33 9 0.66 9 1 C6.03 1 3.06 1 0 1 C0 0.67 0 0.34 0 0 Z " fill="#1A50FF" transform="translate(67,106)"/>
<path d="M0 0 C2.64 0 5.28 0 8 0 C8 0.33 8 0.66 8 1 C5.36 1 2.72 1 0 1 C0 0.67 0 0.34 0 0 Z " fill="#2747FF" transform="translate(526,170)"/>
<path d="M0 0 C2.64 0 5.28 0 8 0 C8 0.33 8 0.66 8 1 C5.36 1 2.72 1 0 1 C0 0.67 0 0.34 0 0 Z " fill="#1A55FF" transform="translate(95,108)"/>
<path d="M0 0 C2.31 0 4.62 0 7 0 C7 0.33 7 0.66 7 1 C4.69 1 2.38 1 0 1 C0 0.67 0 0.34 0 0 Z " fill="#1549FF" transform="translate(347,106)"/>
<path d="M0 0 C2.31 0 4.62 0 7 0 C7 0.33 7 0.66 7 1 C4.69 1 2.38 1 0 1 C0 0.67 0 0.34 0 0 Z " fill="#1240FF" transform="translate(316,87)"/>
<path d="M0 0 C1.98 0 3.96 0 6 0 C6 0.33 6 0.66 6 1 C4.02 1 2.04 1 0 1 C0 0.67 0 0.34 0 0 Z " fill="#183CFF" transform="translate(554,230)"/>
<path d="M0 0 C1.98 0 3.96 0 6 0 C6 0.33 6 0.66 6 1 C4.02 1 2.04 1 0 1 C0 0.67 0 0.34 0 0 Z " fill="#183CFF" transform="translate(40,230)"/>
<path d="M0 0 C1.98 0 3.96 0 6 0 C6 0.33 6 0.66 6 1 C4.02 1 2.04 1 0 1 C0 0.67 0 0.34 0 0 Z " fill="#1C3FFF" transform="translate(546,229)"/>
<path d="M0 0 C1.98 0 3.96 0 6 0 C6 0.33 6 0.66 6 1 C4.02 1 2.04 1 0 1 C0 0.67 0 0.34 0 0 Z " fill="#1C3FFF" transform="translate(48,229)"/>
<path d="M0 0 C1.98 0 3.96 0 6 0 C6 0.33 6 0.66 6 1 C4.02 1 2.04 1 0 1 C0 0.67 0 0.34 0 0 Z " fill="#0A43FF" transform="translate(538,228)"/>
<path d="M0 0 C1.98 0 3.96 0 6 0 C6 0.33 6 0.66 6 1 C4.02 1 2.04 1 0 1 C0 0.67 0 0.34 0 0 Z " fill="#0A6EFF" transform="translate(56,228)"/>
<path d="M0 0 C1.98 0 3.96 0 6 0 C6 0.33 6 0.66 6 1 C4.02 1 2.04 1 0 1 C0 0.67 0 0.34 0 0 Z " fill="#183CFF" transform="translate(404,223)"/>
<path d="M0 0 C1.98 0 3.96 0 6 0 C6 0.33 6 0.66 6 1 C4.02 1 2.04 1 0 1 C0 0.67 0 0.34 0 0 Z " fill="#1C55FF" transform="translate(368,218)"/>
<path d="M0 0 C1.98 0 3.96 0 6 0 C6 0.33 6 0.66 6 1 C4.02 1 2.04 1 0 1 C0 0.67 0 0.34 0 0 Z " fill="#1C55FF" transform="translate(226,218)"/>
<path d="M0 0 C1.98 0 3.96 0 6 0 C6 0.33 6 0.66 6 1 C4.02 1 2.04 1 0 1 C0 0.67 0 0.34 0 0 Z " fill="#0015FF" transform="translate(31,171)"/>
<path d="M0 0 C1.98 0 3.96 0 6 0 C6 0.33 6 0.66 6 1 C4.02 1 2.04 1 0 1 C0 0.67 0 0.34 0 0 Z " fill="#154AFF" transform="translate(277,87)"/>
<path d="M0 0 C1.98 0 3.96 0 6 0 C6 0.33 6 0.66 6 1 C4.02 1 2.04 1 0 1 C0 0.67 0 0.34 0 0 Z " fill="#1C3FFF" transform="translate(246,83)"/>
<path d="M0 0 C1.98 0 3.96 0 6 0 C6 0.33 6 0.66 6 1 C4.02 1 2.04 1 0 1 C0 0.67 0 0.34 0 0 Z " fill="#1C3FFF" transform="translate(287,81)"/>
<path d="M0 0 C1.98 0 3.96 0 6 0 C6 0.33 6 0.66 6 1 C4.02 1 2.04 1 0 1 C0 0.67 0 0.34 0 0 Z " fill="#1827FF" transform="translate(370,80)"/>
<path d="M0 0 C1.98 0 3.96 0 6 0 C6 0.33 6 0.66 6 1 C4.02 1 2.04 1 0 1 C0 0.67 0 0.34 0 0 Z " fill="#182EFF" transform="translate(224,80)"/>
<path d="M0 0 C1.98 0 3.96 0 6 0 C6 0.33 6 0.66 6 1 C4.02 1 2.04 1 0 1 C0 0.67 0 0.34 0 0 Z " fill="#1827FF" transform="translate(272,79)"/>
<path d="M0 0 C1.98 0 3.96 0 6 0 C6 0.33 6 0.66 6 1 C4.02 1 2.04 1 0 1 C0 0.67 0 0.34 0 0 Z " fill="#1866FF" transform="translate(194,76)"/>
<path d="M0 0 C1.98 0 3.96 0 6 0 C6 0.33 6 0.66 6 1 C4.02 1 2.04 1 0 1 C0 0.67 0 0.34 0 0 Z " fill="#183CFF" transform="translate(415,74)"/>
<path d="M0 0 C1.98 0 3.96 0 6 0 C6 0.33 6 0.66 6 1 C4.02 1 2.04 1 0 1 C0 0.67 0 0.34 0 0 Z " fill="#1847FF" transform="translate(142,69)"/>
<path d="M0 0 C1.98 0 3.96 0 6 0 C6 0.33 6 0.66 6 1 C4.02 1 2.04 1 0 1 C0 0.67 0 0.34 0 0 Z " fill="#1847FF" transform="translate(467,67)"/>
<path d="M0 0 C1.98 0 3.96 0 6 0 C6 0.33 6 0.66 6 1 C4.02 1 2.04 1 0 1 C0 0.67 0 0.34 0 0 Z " fill="#0E3FFF" transform="translate(539,66)"/>
<path d="M0 0 C1.98 0 3.96 0 6 0 C6 0.33 6 0.66 6 1 C4.02 1 2.04 1 0 1 C0 0.67 0 0.34 0 0 Z " fill="#0E3FFF" transform="translate(55,66)"/>
<path d="M0 0 C1.98 0 3.96 0 6 0 C6 0.33 6 0.66 6 1 C4.02 1 2.04 1 0 1 C0 0.67 0 0.34 0 0 Z " fill="#1C3FFF" transform="translate(548,65)"/>
<path d="M0 0 C1.98 0 3.96 0 6 0 C6 0.33 6 0.66 6 1 C4.02 1 2.04 1 0 1 C0 0.67 0 0.34 0 0 Z " fill="#0E3FFF" transform="translate(46,65)"/>
<path d="M0 0 C1.65 0 3.3 0 5 0 C5 0.33 5 0.66 5 1 C3.35 1 1.7 1 0 1 C0 0.67 0 0.34 0 0 Z " fill="#0C44FF" transform="translate(552,269)"/>
<path d="M0 0 C1.65 0 3.3 0 5 0 C5 0.33 5 0.66 5 1 C3.35 1 1.7 1 0 1 C0 0.67 0 0.34 0 0 Z " fill="#0C5DFF" transform="translate(43,269)"/>
<path d="M0 0 C1.65 0 3.3 0 5 0 C5 0.33 5 0.66 5 1 C3.35 1 1.7 1 0 1 C0 0.67 0 0.34 0 0 Z " fill="#0C51FF" transform="translate(474,233)"/>
<path d="M0 0 C1.65 0 3.3 0 5 0 C5 0.33 5 0.66 5 1 C3.35 1 1.7 1 0 1 C0 0.67 0 0.34 0 0 Z " fill="#0C5DFF" transform="translate(128,232)"/>
<path d="M0 0 C1.65 0 3.3 0 5 0 C5 0.33 5 0.66 5 1 C3.35 1 1.7 1 0 1 C0 0.67 0 0.34 0 0 Z " fill="#0C44FF" transform="translate(460,231)"/>
<path d="M0 0 C1.65 0 3.3 0 5 0 C5 0.33 5 0.66 5 1 C3.35 1 1.7 1 0 1 C0 0.67 0 0.34 0 0 Z " fill="#1155FF" transform="translate(135,231)"/>
<path d="M0 0 C1.65 0 3.3 0 5 0 C5 0.33 5 0.66 5 1 C3.35 1 1.7 1 0 1 C0 0.67 0 0.34 0 0 Z " fill="#1155FF" transform="translate(142,230)"/>
<path d="M0 0 C1.65 0 3.3 0 5 0 C5 0.33 5 0.66 5 1 C3.35 1 1.7 1 0 1 C0 0.67 0 0.34 0 0 Z " fill="#0C51FF" transform="translate(418,225)"/>
<path d="M0 0 C1.65 0 3.3 0 5 0 C5 0.33 5 0.66 5 1 C3.35 1 1.7 1 0 1 C0 0.67 0 0.34 0 0 Z " fill="#0C51FF" transform="translate(177,225)"/>
<path d="M0 0 C1.65 0 3.3 0 5 0 C5 0.33 5 0.66 5 1 C3.35 1 1.7 1 0 1 C0 0.67 0 0.34 0 0 Z " fill="#1155FF" transform="translate(184,224)"/>
<path d="M0 0 C1.65 0 3.3 0 5 0 C5 0.33 5 0.66 5 1 C3.35 1 1.7 1 0 1 C0 0.67 0 0.34 0 0 Z " fill="#0C51FF" transform="translate(191,223)"/>
<path d="M0 0 C1.65 0 3.3 0 5 0 C5 0.33 5 0.66 5 1 C3.35 1 1.7 1 0 1 C0 0.67 0 0.34 0 0 Z " fill="#1155FF" transform="translate(383,220)"/>
<path d="M0 0 C1.65 0 3.3 0 5 0 C5 0.33 5 0.66 5 1 C3.35 1 1.7 1 0 1 C0 0.67 0 0.34 0 0 Z " fill="#0C5DFF" transform="translate(376,219)"/>
<path d="M0 0 C1.65 0 3.3 0 5 0 C5 0.33 5 0.66 5 1 C3.35 1 1.7 1 0 1 C0 0.67 0 0.34 0 0 Z " fill="#0C51FF" transform="translate(219,219)"/>
<path d="M0 0 C1.65 0 3.3 0 5 0 C5 0.33 5 0.66 5 1 C3.35 1 1.7 1 0 1 C0 0.67 0 0.34 0 0 Z " fill="#1D6EFF" transform="translate(326,212)"/>
<path d="M0 0 C1.65 0 3.3 0 5 0 C5 0.33 5 0.66 5 1 C3.35 1 1.7 1 0 1 C0 0.67 0 0.34 0 0 Z " fill="#1D6AFF" transform="translate(269,212)"/>
<path d="M0 0 C1.65 0 3.3 0 5 0 C5 0.33 5 0.66 5 1 C3.35 1 1.7 1 0 1 C0 0.67 0 0.34 0 0 Z " fill="#1155FF" transform="translate(318,211)"/>
<path d="M0 0 C1.65 0 3.3 0 5 0 C5 0.33 5 0.66 5 1 C3.35 1 1.7 1 0 1 C0 0.67 0 0.34 0 0 Z " fill="#2233FF" transform="translate(276,211)"/>
<path d="M0 0 C1.65 0 3.3 0 5 0 C5 0.33 5 0.66 5 1 C3.35 1 1.7 1 0 1 C0 0.67 0 0.34 0 0 Z " fill="#1133FF" transform="translate(290,209)"/>
<path d="M0 0 C1.65 0 3.3 0 5 0 C5 0.33 5 0.66 5 1 C3.35 1 1.7 1 0 1 C0 0.67 0 0.34 0 0 Z " fill="#1155FF" transform="translate(286,88)"/>
<path d="M0 0 C1.65 0 3.3 0 5 0 C5 0.33 5 0.66 5 1 C3.35 1 1.7 1 0 1 C0 0.67 0 0.34 0 0 Z " fill="#1D5DFF" transform="translate(326,86)"/>
<path d="M0 0 C1.65 0 3.3 0 5 0 C5 0.33 5 0.66 5 1 C3.35 1 1.7 1 0 1 C0 0.67 0 0.34 0 0 Z " fill="#0C5DFF" transform="translate(269,86)"/>
<path d="M0 0 C1.65 0 3.3 0 5 0 C5 0.33 5 0.66 5 1 C3.35 1 1.7 1 0 1 C0 0.67 0 0.34 0 0 Z " fill="#224CFF" transform="translate(333,85)"/>
<path d="M0 0 C1.65 0 3.3 0 5 0 C5 0.33 5 0.66 5 1 C3.35 1 1.7 1 0 1 C0 0.67 0 0.34 0 0 Z " fill="#2233FF" transform="translate(261,85)"/>
<path d="M0 0 C1.65 0 3.3 0 5 0 C5 0.33 5 0.66 5 1 C3.35 1 1.7 1 0 1 C0 0.67 0 0.34 0 0 Z " fill="#1940FF" transform="translate(341,84)"/>
<path d="M0 0 C1.65 0 3.3 0 5 0 C5 0.33 5 0.66 5 1 C3.35 1 1.7 1 0 1 C0 0.67 0 0.34 0 0 Z " fill="#1D5DFF" transform="translate(254,84)"/>
<path d="M0 0 C1.65 0 3.3 0 5 0 C5 0.33 5 0.66 5 1 C3.35 1 1.7 1 0 1 C0 0.67 0 0.34 0 0 Z " fill="#224CFF" transform="translate(348,83)"/>
<path d="M0 0 C1.65 0 3.3 0 5 0 C5 0.33 5 0.66 5 1 C3.35 1 1.7 1 0 1 C0 0.67 0 0.34 0 0 Z " fill="#1D37FF" transform="translate(356,82)"/>
<path d="M0 0 C1.65 0 3.3 0 5 0 C5 0.33 5 0.66 5 1 C3.35 1 1.7 1 0 1 C0 0.67 0 0.34 0 0 Z " fill="#1D5DFF" transform="translate(305,82)"/>
<path d="M0 0 C1.65 0 3.3 0 5 0 C5 0.33 5 0.66 5 1 C3.35 1 1.7 1 0 1 C0 0.67 0 0.34 0 0 Z " fill="#1D5DFF" transform="translate(295,82)"/>
<path d="M0 0 C1.65 0 3.3 0 5 0 C5 0.33 5 0.66 5 1 C3.35 1 1.7 1 0 1 C0 0.67 0 0.34 0 0 Z " fill="#0C5DFF" transform="translate(239,82)"/>
<path d="M0 0 C1.65 0 3.3 0 5 0 C5 0.33 5 0.66 5 1 C3.35 1 1.7 1 0 1 C0 0.67 0 0.34 0 0 Z " fill="#1155FF" transform="translate(363,81)"/>
<path d="M0 0 C1.65 0 3.3 0 5 0 C5 0.33 5 0.66 5 1 C3.35 1 1.7 1 0 1 C0 0.67 0 0.34 0 0 Z " fill="#113BFF" transform="translate(312,81)"/>
<path d="M0 0 C1.65 0 3.3 0 5 0 C5 0.33 5 0.66 5 1 C3.35 1 1.7 1 0 1 C0 0.67 0 0.34 0 0 Z " fill="#1155FF" transform="translate(232,81)"/>
<path d="M0 0 C1.65 0 3.3 0 5 0 C5 0.33 5 0.66 5 1 C3.35 1 1.7 1 0 1 C0 0.67 0 0.34 0 0 Z " fill="#224CFF" transform="translate(320,80)"/>
<path d="M0 0 C1.65 0 3.3 0 5 0 C5 0.33 5 0.66 5 1 C3.35 1 1.7 1 0 1 C0 0.67 0 0.34 0 0 Z " fill="#0C5DFF" transform="translate(280,80)"/>
<path d="M0 0 C1.65 0 3.3 0 5 0 C5 0.33 5 0.66 5 1 C3.35 1 1.7 1 0 1 C0 0.67 0 0.34 0 0 Z " fill="#1155FF" transform="translate(378,79)"/>
<path d="M0 0 C1.65 0 3.3 0 5 0 C5 0.33 5 0.66 5 1 C3.35 1 1.7 1 0 1 C0 0.67 0 0.34 0 0 Z " fill="#1155FF" transform="translate(217,79)"/>
<path d="M0 0 C1.65 0 3.3 0 5 0 C5 0.33 5 0.66 5 1 C3.35 1 1.7 1 0 1 C0 0.67 0 0.34 0 0 Z " fill="#1155FF" transform="translate(408,75)"/>
<path d="M0 0 C1.65 0 3.3 0 5 0 C5 0.33 5 0.66 5 1 C3.35 1 1.7 1 0 1 C0 0.67 0 0.34 0 0 Z " fill="#1155FF" transform="translate(187,75)"/>
<path d="M0 0 C1.65 0 3.3 0 5 0 C5 0.33 5 0.66 5 1 C3.35 1 1.7 1 0 1 C0 0.67 0 0.34 0 0 Z " fill="#0C5DFF" transform="translate(180,74)"/>
<path d="M0 0 C1.65 0 3.3 0 5 0 C5 0.33 5 0.66 5 1 C3.35 1 1.7 1 0 1 C0 0.67 0 0.34 0 0 Z " fill="#2255FF" transform="translate(423,73)"/>
<path d="M0 0 C1.65 0 3.3 0 5 0 C5 0.33 5 0.66 5 1 C3.35 1 1.7 1 0 1 C0 0.67 0 0.34 0 0 Z " fill="#1155FF" transform="translate(460,68)"/>
<path d="M0 0 C1.65 0 3.3 0 5 0 C5 0.33 5 0.66 5 1 C3.35 1 1.7 1 0 1 C0 0.67 0 0.34 0 0 Z " fill="#113BFF" transform="translate(135,68)"/>
<path d="M0 0 C1.65 0 3.3 0 5 0 C5 0.33 5 0.66 5 1 C3.35 1 1.7 1 0 1 C0 0.67 0 0.34 0 0 Z " fill="#1D55FF" transform="translate(128,67)"/>
<path d="M0 0 C1.65 0 3.3 0 5 0 C5 0.33 5 0.66 5 1 C3.35 1 1.7 1 0 1 C0 0.67 0 0.34 0 0 Z " fill="#1155FF" transform="translate(475,66)"/>
<path d="M0 0 C4 1 4 1 4 1 Z " fill="#154AFF" transform="translate(4,276)"/>
<path d="M0 0 C4 1 4 1 4 1 Z " fill="#1035FF" transform="translate(586,275)"/>
<path d="M0 0 C4 1 4 1 4 1 Z " fill="#1050FF" transform="translate(10,275)"/>
<path d="M0 0 C4 1 4 1 4 1 Z " fill="#154AFF" transform="translate(581,274)"/>
<path d="M0 0 C4 1 4 1 4 1 Z " fill="#154AFF" transform="translate(15,274)"/>
<path d="M0 0 C4 1 4 1 4 1 Z " fill="#1045FF" transform="translate(575,273)"/>
<path d="M0 0 C4 1 4 1 4 1 Z " fill="#1045FF" transform="translate(21,273)"/>
<path d="M0 0 C4 1 4 1 4 1 Z " fill="#154AFF" transform="translate(569,272)"/>
<path d="M0 0 C4 1 4 1 4 1 Z " fill="#154AFF" transform="translate(27,272)"/>
<path d="M0 0 C4 1 4 1 4 1 Z " fill="#1035FF" transform="translate(564,271)"/>
<path d="M0 0 C4 1 4 1 4 1 Z " fill="#1035FF" transform="translate(32,271)"/>
<path d="M0 0 C4 1 4 1 4 1 Z " fill="#154AFF" transform="translate(558,270)"/>
<path d="M0 0 C4 1 4 1 4 1 Z " fill="#1035FF" transform="translate(546,268)"/>
<path d="M0 0 C4 1 4 1 4 1 Z " fill="#1045FF" transform="translate(50,268)"/>
<path d="M0 0 C4 1 4 1 4 1 Z " fill="#1555FF" transform="translate(540,267)"/>
<path d="M0 0 C4 1 4 1 4 1 Z " fill="#2A4AFF" transform="translate(56,267)"/>
<path d="M0 0 C4 1 4 1 4 1 Z " fill="#152AFF" transform="translate(535,266)"/>
<path d="M0 0 C4 1 4 1 4 1 Z " fill="#1035FF" transform="translate(61,266)"/>
<path d="M0 0 C4 1 4 1 4 1 Z " fill="#154AFF" transform="translate(529,265)"/>
<path d="M0 0 C4 1 4 1 4 1 Z " fill="#2A4AFF" transform="translate(67,265)"/>
<path d="M0 0 C4 1 4 1 4 1 Z " fill="#1035FF" transform="translate(524,264)"/>
<path d="M0 0 C4 1 4 1 4 1 Z " fill="#1035FF" transform="translate(72,264)"/>
<path d="M0 0 C4 1 4 1 4 1 Z " fill="#1555FF" transform="translate(518,263)"/>
<path d="M0 0 C4 1 4 1 4 1 Z " fill="#1555FF" transform="translate(78,263)"/>
<path d="M0 0 C4 1 4 1 4 1 Z " fill="#154AFF" transform="translate(513,262)"/>
<path d="M0 0 C4 1 4 1 4 1 Z " fill="#2A4AFF" transform="translate(83,262)"/>
<path d="M0 0 C4 1 4 1 4 1 Z " fill="#0055FF" transform="translate(507,261)"/>
<path d="M0 0 C4 1 4 1 4 1 Z " fill="#2A4AFF" transform="translate(89,261)"/>
<path d="M0 0 C4 1 4 1 4 1 Z " fill="#154AFF" transform="translate(502,260)"/>
<path d="M0 0 C4 1 4 1 4 1 Z " fill="#152AFF" transform="translate(94,260)"/>
<path d="M0 0 C4 1 4 1 4 1 Z " fill="#154AFF" transform="translate(122,233)"/>
<path d="M0 0 C4 1 4 1 4 1 Z " fill="#156AFF" transform="translate(468,232)"/>
<path d="M0 0 C4 1 4 1 4 1 Z " fill="#2A3FFF" transform="translate(454,230)"/>
<path d="M0 0 C4 1 4 1 4 1 Z " fill="#2A5FFF" transform="translate(426,226)"/>
<path d="M0 0 C4 1 4 1 4 1 Z " fill="#156AFF" transform="translate(412,224)"/>
<path d="M0 0 C4 1 4 1 4 1 Z " fill="#154AFF" transform="translate(361,217)"/>
<path d="M0 0 C4 1 4 1 4 1 Z " fill="#2A3FFF" transform="translate(235,217)"/>
<path d="M0 0 C4 1 4 1 4 1 Z " fill="#2A3FFF" transform="translate(333,213)"/>
<path d="M0 0 C4 1 4 1 4 1 Z " fill="#256AFF" transform="translate(312,210)"/>
<path d="M0 0 C4 1 4 1 4 1 Z " fill="#254AFF" transform="translate(284,210)"/>
<path d="M0 0 C4 1 4 1 4 1 Z " fill="#156AFF" transform="translate(310,88)"/>
<path d="M0 0 C4 1 4 1 4 1 Z " fill="#0015FF" transform="translate(385,78)"/>
<path d="M0 0 C4 1 4 1 4 1 Z " fill="#2A5FFF" transform="translate(335,78)"/>
<path d="M0 0 C4 1 4 1 4 1 Z " fill="#156AFF" transform="translate(266,78)"/>
<path d="M0 0 C4 1 4 1 4 1 Z " fill="#1555FF" transform="translate(173,73)"/>
<path d="M0 0 C4 1 4 1 4 1 Z " fill="#2535FF" transform="translate(454,69)"/>
<path d="M0 0 C4 1 4 1 4 1 Z " fill="#154AFF" transform="translate(498,35)"/>
<path d="M0 0 C4 1 4 1 4 1 Z " fill="#154AFF" transform="translate(98,35)"/>
<path d="M0 0 C4 1 4 1 4 1 Z " fill="#158AFF" transform="translate(504,34)"/>
<path d="M0 0 C4 1 4 1 4 1 Z " fill="#158AFF" transform="translate(92,34)"/>
<path d="M0 0 C4 1 4 1 4 1 Z " fill="#1555FF" transform="translate(509,33)"/>
<path d="M0 0 C4 1 4 1 4 1 Z " fill="#1555FF" transform="translate(87,33)"/>
<path d="M0 0 C4 1 4 1 4 1 Z " fill="#154AFF" transform="translate(514,32)"/>
<path d="M0 0 C4 1 4 1 4 1 Z " fill="#158AFF" transform="translate(81,32)"/>
<path d="M0 0 C4 1 4 1 4 1 Z " fill="#1555FF" transform="translate(520,31)"/>
<path d="M0 0 C4 1 4 1 4 1 Z " fill="#1555FF" transform="translate(76,31)"/>
<path d="M0 0 C4 1 4 1 4 1 Z " fill="#158AFF" transform="translate(526,30)"/>
<path d="M0 0 C1 4 1 4 1 4 Z " fill="#1555FF" transform="translate(268,29)"/>
<path d="M0 0 C4 1 4 1 4 1 Z " fill="#156AFF" transform="translate(70,30)"/>
<path d="M0 0 C4 1 4 1 4 1 Z " fill="#1555FF" transform="translate(531,29)"/>
<path d="M0 0 C4 1 4 1 4 1 Z " fill="#2A4AFF" transform="translate(65,29)"/>
<path d="M0 0 C4 1 4 1 4 1 Z " fill="#158AFF" transform="translate(537,28)"/>
<path d="M0 0 C4 1 4 1 4 1 Z " fill="#156AFF" transform="translate(59,28)"/>
<path d="M0 0 C4 1 4 1 4 1 Z " fill="#1555FF" transform="translate(542,27)"/>
<path d="M0 0 C4 1 4 1 4 1 Z " fill="#1555FF" transform="translate(54,27)"/>
<path d="M0 0 C4 1 4 1 4 1 Z " fill="#152AFF" transform="translate(548,26)"/>
<path d="M0 0 C4 1 4 1 4 1 Z " fill="#152AFF" transform="translate(48,26)"/>
<path d="M0 0 C4 1 4 1 4 1 Z " fill="#2A4AFF" transform="translate(553,25)"/>
<path d="M0 0 C4 1 4 1 4 1 Z " fill="#1075FF" transform="translate(559,24)"/>
<path d="M0 0 C4 1 4 1 4 1 Z " fill="#1035FF" transform="translate(37,24)"/>
<path d="M0 0 C4 1 4 1 4 1 Z " fill="#2A4AFF" transform="translate(564,23)"/>
<path d="M0 0 C4 1 4 1 4 1 Z " fill="#2A4AFF" transform="translate(32,23)"/>
<path d="M0 0 C4 1 4 1 4 1 Z " fill="#152AFF" transform="translate(570,22)"/>
<path d="M0 0 C4 1 4 1 4 1 Z " fill="#152AFF" transform="translate(26,22)"/>
<path d="M0 0 C4 1 4 1 4 1 Z " fill="#154AFF" transform="translate(581,20)"/>
<path d="M0 0 C4 1 4 1 4 1 Z " fill="#1555FF" transform="translate(15,20)"/>
<path d="M0 0 C4 1 4 1 4 1 Z " fill="#154AFF" transform="translate(592,18)"/>
<path d="M0 0 C4 1 4 1 4 1 Z " fill="#154AFF" transform="translate(4,18)"/>
<path d="M0 0 C3 1 3 1 3 1 Z " fill="#1C38FF" transform="translate(597,277)"/>
<path d="M0 0 C3 1 3 1 3 1 Z " fill="#1540FF" transform="translate(0,277)"/>
<path d="M0 0 C3 1 3 1 3 1 Z " fill="#3863FF" transform="translate(592,276)"/>
<path d="M0 0 C3 1 3 1 3 1 Z " fill="#1C63FF" transform="translate(38,270)"/>
<path d="M0 0 C3 1 3 1 3 1 Z " fill="#1C71FF" transform="translate(497,259)"/>
<path d="M0 0 C3 1 3 1 3 1 Z " fill="#1C71FF" transform="translate(100,259)"/>
<path d="M0 0 C3 1 3 1 3 1 Z " fill="#1C63FF" transform="translate(198,222)"/>
<path d="M0 0 C3 1 3 1 3 1 Z " fill="#1C9CFF" transform="translate(241,216)"/>
<path d="M0 0 C3 1 3 1 3 1 Z " fill="#1C1CFF" transform="translate(350,133)"/>
<path d="M0 0 C3 1 3 1 3 1 Z " fill="#0055FF" transform="translate(597,101)"/>
<path d="M0 0 C3 1 3 1 3 1 Z " fill="#1C38FF" transform="translate(403,76)"/>
<path d="" fill="#1C1CFF" transform="translate(0,0)"/>
<path d="" fill="#1C47FF" transform="translate(0,0)"/>
<path d="" fill="#001CFF" transform="translate(0,0)"/>
<path d="M0 0 C3 1 3 1 3 1 Z " fill="#0047FF" transform="translate(122,66)"/>
<path d="" fill="#1C47FF" transform="translate(0,0)"/>
<path d="" fill="#1C47FF" transform="translate(0,0)"/>
<path d="" fill="#1C38FF" transform="translate(0,0)"/>
<path d="" fill="#1C38FF" transform="translate(0,0)"/>
<path d="M0 0 C3 1 3 1 3 1 Z " fill="#3863FF" transform="translate(43,25)"/>
<path d="M0 0 C3 1 3 1 3 1 Z " fill="#3863FF" transform="translate(576,21)"/>
<path d="M0 0 C3 1 3 1 3 1 Z " fill="#1C63FF" transform="translate(21,21)"/>
<path d="M0 0 C3 1 3 1 3 1 Z " fill="#3863FF" transform="translate(587,19)"/>
<path d="M0 0 C3 1 3 1 3 1 Z " fill="#3863FF" transform="translate(10,19)"/>
<path d="M0 0 C3 1 3 1 3 1 Z " fill="#1515FF" transform="translate(275,0)"/>
<path d="M0 0 C2 1 2 1 2 1 Z " fill="#0000FF" transform="translate(173,226)"/>
<path d="M0 0 C2 1 2 1 2 1 Z " fill="#0080FF" transform="translate(565,170)"/>
<path d="M0 0 C2 1 2 1 2 1 Z " fill="#2A6AFF" transform="translate(560,167)"/>
<path d="M0 0 C2 1 2 1 2 1 Z " fill="#2A2AFF" transform="translate(64,167)"/>
<path d="M0 0 C2 1 2 1 2 1 Z " fill="#0040FF" transform="translate(558,166)"/>
<path d="M0 0 C2 1 2 1 2 1 Z " fill="#0040FF" transform="translate(62,166)"/>
<path d="M0 0 C2 1 2 1 2 1 Z " fill="#0040FF" transform="translate(451,163)"/>
<path d="M0 0 C2 1 2 1 2 1 Z " fill="#2A2AFF" transform="translate(171,163)"/>
<path d="M0 0 C2 1 2 1 2 1 Z " fill="#0080FF" transform="translate(551,162)"/>
<path d="M0 0 C2 1 2 1 2 1 Z " fill="#0040FF" transform="translate(449,162)"/>
<path d="M0 0 C2 1 2 1 2 1 Z " fill="#0080FF" transform="translate(169,162)"/>
<path d="M0 0 C2 1 2 1 2 1 Z " fill="#0040FF" transform="translate(447,161)"/>
<path d="M0 0 C2 1 2 1 2 1 Z " fill="#0080FF" transform="translate(358,161)"/>
<path d="M0 0 C2 1 2 1 2 1 Z " fill="#0040FF" transform="translate(445,160)"/>
<path d="M0 0 C2 1 2 1 2 1 Z " fill="#2A2AFF" transform="translate(356,160)"/>
<path d="M0 0 C2 1 2 1 2 1 Z " fill="#2A6AFF" transform="translate(263,160)"/>
<path d="M0 0 C2 1 2 1 2 1 Z " fill="#2A2AFF" transform="translate(164,160)"/>
<path d="M0 0 C2 1 2 1 2 1 Z " fill="#0080FF" transform="translate(51,160)"/>
<path d="M0 0 C2 1 2 1 2 1 Z " fill="#0080FF" transform="translate(443,159)"/>
<path d="M0 0 C2 1 2 1 2 1 Z " fill="#2A2AFF" transform="translate(353,159)"/>
<path d="M0 0 C2 1 2 1 2 1 Z " fill="#2A2AFF" transform="translate(260,159)"/>
<path d="M0 0 C2 1 2 1 2 1 Z " fill="#0080FF" transform="translate(162,159)"/>
<path d="M0 0 C2 1 2 1 2 1 Z " fill="#0080FF" transform="translate(49,159)"/>
<path d="M0 0 C2 1 2 1 2 1 Z " fill="#0080FF" transform="translate(544,158)"/>
<path d="M0 0 C2 1 2 1 2 1 Z " fill="#0080FF" transform="translate(441,158)"/>
<path d="M0 0 C2 1 2 1 2 1 Z " fill="#0080FF" transform="translate(351,158)"/>
<path d="M0 0 C2 1 2 1 2 1 Z " fill="#2A2AFF" transform="translate(258,158)"/>
<path d="M0 0 C2 1 2 1 2 1 Z " fill="#0080FF" transform="translate(160,158)"/>
<path d="M0 0 C2 1 2 1 2 1 Z " fill="#0040FF" transform="translate(439,157)"/>
<path d="M0 0 C2 1 2 1 2 1 Z " fill="#2A2AFF" transform="translate(348,157)"/>
<path d="M0 0 C2 1 2 1 2 1 Z " fill="#0080FF" transform="translate(255,157)"/>
<path d="M0 0 C2 1 2 1 2 1 Z " fill="#0040FF" transform="translate(158,157)"/>
<path d="M0 0 C2 1 2 1 2 1 Z " fill="#0040FF" transform="translate(437,156)"/>
<path d="M0 0 C2 1 2 1 2 1 Z " fill="#0080FF" transform="translate(346,156)"/>
<path d="M0 0 C2 1 2 1 2 1 Z " fill="#2A2AFF" transform="translate(252,156)"/>
<path d="M0 0 C2 1 2 1 2 1 Z " fill="#0040FF" transform="translate(435,155)"/>
<path d="M0 0 C2 1 2 1 2 1 Z " fill="#2A2AFF" transform="translate(343,155)"/>
<path d="M0 0 C2 1 2 1 2 1 Z " fill="#2A2AFF" transform="translate(250,155)"/>
<path d="M0 0 C2 1 2 1 2 1 Z " fill="#2A2AFF" transform="translate(153,155)"/>
<path d="M0 0 C2 1 2 1 2 1 Z " fill="#0080FF" transform="translate(341,154)"/>
<path d="M0 0 C2 1 2 1 2 1 Z " fill="#0080FF" transform="translate(247,154)"/>
<path d="M0 0 C2 1 2 1 2 1 Z " fill="#0080FF" transform="translate(40,154)"/>
<path d="M0 0 C2 1 2 1 2 1 Z " fill="#0080FF" transform="translate(35,151)"/>
<path d="M0 0 C2 1 2 1 2 1 Z " fill="#0080FF" transform="translate(528,149)"/>
<path d="M0 0 C2 1 2 1 2 1 Z " fill="#0040FF" transform="translate(526,148)"/>
<path d="M0 0 C2 1 2 1 2 1 Z " fill="#0080FF" transform="translate(28,147)"/>
<path d="M0 0 C2 1 2 1 2 1 Z " fill="#0040FF" transform="translate(479,146)"/>
<path d="M0 0 C2 1 2 1 2 1 Z " fill="#0080FF" transform="translate(386,146)"/>
<path d="M0 0 C2 1 2 1 2 1 Z " fill="#2A2AFF" transform="translate(384,145)"/>
<path d="M0 0 C2 1 2 1 2 1 Z " fill="#2A2AFF" transform="translate(97,143)"/>
<path d="M0 0 C2 1 2 1 2 1 Z " fill="#0040FF" transform="translate(515,142)"/>
<path d="M0 0 C2 1 2 1 2 1 Z " fill="#0080FF" transform="translate(382,142)"/>
<path d="M0 0 C2 1 2 1 2 1 Z " fill="#0040FF" transform="translate(95,142)"/>
<path d="M0 0 C2 1 2 1 2 1 Z " fill="#2A2AFF" transform="translate(475,141)"/>
<path d="M0 0 C2 1 2 1 2 1 Z " fill="#0080FF" transform="translate(385,141)"/>
<path d="M0 0 C2 1 2 1 2 1 Z " fill="#0040FF" transform="translate(93,141)"/>
<path d="M0 0 C2 1 2 1 2 1 Z " fill="#0000FF" transform="translate(387,140)"/>
<path d="M0 0 C2 1 2 1 2 1 Z " fill="#0040FF" transform="translate(91,140)"/>
<path d="M0 0 C2 1 2 1 2 1 Z " fill="#0040FF" transform="translate(587,139)"/>
<path d="M0 0 C2 1 2 1 2 1 Z " fill="#0080FF" transform="translate(89,139)"/>
<path d="M0 0 C2 1 2 1 2 1 Z " fill="#0040FF" transform="translate(14,139)"/>
<path d="M0 0 C2 1 2 1 2 1 Z " fill="#0040FF" transform="translate(505,137)"/>
<path d="M0 0 C2 1 2 1 2 1 Z " fill="#2A2AFF" transform="translate(85,137)"/>
<path d="M0 0 C2 1 2 1 2 1 Z " fill="#0040FF" transform="translate(503,136)"/>
<path d="M0 0 C2 1 2 1 2 1 Z " fill="#0080FF" transform="translate(261,135)"/>
<path d="M0 0 C2 1 2 1 2 1 Z " fill="#0040FF" transform="translate(578,134)"/>
<path d="M0 0 C2 1 2 1 2 1 Z " fill="#006AFF" transform="translate(353,134)"/>
<path d="M0 0 C2 1 2 1 2 1 Z " fill="#2A2AFF" transform="translate(259,134)"/>
<path d="M0 0 C2 1 2 1 2 1 Z " fill="#0080FF" transform="translate(6,134)"/>
<path d="M0 0 C2 1 2 1 2 1 Z " fill="#0080FF" transform="translate(256,133)"/>
<path d="M0 0 C2 1 2 1 2 1 Z " fill="#2A2AFF" transform="translate(447,132)"/>
<path d="M0 0 C2 1 2 1 2 1 Z " fill="#2A2AFF" transform="translate(348,132)"/>
<path d="M0 0 C2 1 2 1 2 1 Z " fill="#2A2AFF" transform="translate(254,132)"/>
<path d="M0 0 C2 1 2 1 2 1 Z " fill="#0080FF" transform="translate(76,132)"/>
<path d="M0 0 C2 1 2 1 2 1 Z " fill="#0080FF" transform="translate(445,131)"/>
<path d="M0 0 C2 1 2 1 2 1 Z " fill="#2A6AFF" transform="translate(345,131)"/>
<path d="M0 0 C2 1 2 1 2 1 Z " fill="#2A2AFF" transform="translate(251,131)"/>
<path d="M0 0 C2 1 2 1 2 1 Z " fill="#0040FF" transform="translate(163,131)"/>
<path d="M0 0 C2 1 2 1 2 1 Z " fill="#0080FF" transform="translate(1,131)"/>
<path d="M0 0 C2 1 2 1 2 1 Z " fill="#2A2AFF" transform="translate(443,130)"/>
<path d="M0 0 C2 1 2 1 2 1 Z " fill="#2A6AFF" transform="translate(342,130)"/>
<path d="M0 0 C2 1 2 1 2 1 Z " fill="#0080FF" transform="translate(249,130)"/>
<path d="M0 0 C2 1 2 1 2 1 Z " fill="#0080FF" transform="translate(569,129)"/>
<path d="M0 0 C2 1 2 1 2 1 Z " fill="#2A2AFF" transform="translate(247,129)"/>
<path d="M0 0 C2 1 2 1 2 1 Z " fill="#0040FF" transform="translate(438,128)"/>
<path d="M0 0 C2 1 2 1 2 1 Z " fill="#0080FF" transform="translate(69,128)"/>
<path d="M0 0 C2 1 2 1 2 1 Z " fill="#0080FF" transform="translate(436,127)"/>
<path d="M0 0 C2 1 2 1 2 1 Z " fill="#0040FF" transform="translate(562,125)"/>
<path d="M0 0 C2 1 2 1 2 1 Z " fill="#0040FF" transform="translate(560,124)"/>
<path d="M0 0 C2 1 2 1 2 1 Z " fill="#0040FF" transform="translate(551,119)"/>
<path d="M0 0 C2 1 2 1 2 1 Z " fill="#0040FF" transform="translate(549,118)"/>
<path d="M0 0 C2 1 2 1 2 1 Z " fill="#0080FF" transform="translate(52,118)"/>
<path d="M0 0 C2 1 2 1 2 1 Z " fill="#0040FF" transform="translate(547,117)"/>
<path d="M0 0 C2 1 2 1 2 1 Z " fill="#0080FF" transform="translate(545,116)"/>
<path d="M0 0 C2 1 2 1 2 1 Z " fill="#0080FF" transform="translate(543,115)"/>
<path d="M0 0 C2 1 2 1 2 1 Z " fill="#0080FF" transform="translate(47,115)"/>
<path d="M0 0 C2 1 2 1 2 1 Z " fill="#0080FF" transform="translate(541,114)"/>
<path d="M0 0 C2 1 2 1 2 1 Z " fill="#0080FF" transform="translate(539,113)"/>
<path d="M0 0 C2 1 2 1 2 1 Z " fill="#2A2AFF" transform="translate(537,112)"/>
<path d="M0 0 C2 1 2 1 2 1 Z " fill="#2A6AFF" transform="translate(293,89)"/>
<path d="M0 0 C2 1 2 1 2 1 Z " fill="#0040FF" transform="translate(327,79)"/>
<path d="" fill="#2A6AFF" transform="translate(0,0)"/>
<path d="" fill="#2A6AFF" transform="translate(0,0)"/>
<path d="" fill="#445DFF" transform="translate(0,0)"/>
<path d="" fill="#2A2AFF" transform="translate(0,0)"/>
<path d="" fill="#2A2AFF" transform="translate(0,0)"/>
<path d="" fill="#0080FF" transform="translate(0,0)"/>
<path d="" fill="#0040FF" transform="translate(0,0)"/>
<path d="" fill="#0080FF" transform="translate(0,0)"/>
<path d="" fill="#0040FF" transform="translate(0,0)"/>
<path d="" fill="#0040FF" transform="translate(0,0)"/>
<path d="" fill="#0040FF" transform="translate(0,0)"/>
<path d="" fill="#0000FF" transform="translate(0,0)"/>
<path d="" fill="#2A2AFF" transform="translate(0,0)"/>
<path d="" fill="#2A2AFF" transform="translate(0,0)"/>
<path d="M0 0 C2 1 2 1 2 1 Z " fill="#006AFF" transform="translate(598,17)"/>
<path d="" fill="#0080FF" transform="translate(0,0)"/>
<path d="M0 0 C2 1 2 1 2 1 Z " fill="#006AFF" transform="translate(0,17)"/>
<path d="M0 0 C2 1 2 1 2 1 Z " fill="#0040FF" transform="translate(290,6)"/>
<path d="M0 0 C2 1 2 1 2 1 Z " fill="#0040FF" transform="translate(288,5)"/>
<path d="M0 0 C2 1 2 1 2 1 Z " fill="#0080FF" transform="translate(284,3)"/>
<path d="M0 0 C2 1 2 1 2 1 Z " fill="#2A2AFF" transform="translate(282,2)"/>
<path d="M0 0 C2 1 2 1 2 1 Z " fill="#2A6AFF" transform="translate(279,1)"/>
<path d="" fill="#0000FF" transform="translate(0,0)"/>
<path d="" fill="#0080FF" transform="translate(0,0)"/>
<path d="" fill="#0000FF" transform="translate(0,0)"/>
<path d="" fill="#0080FF" transform="translate(0,0)"/>
<path d="" fill="#5555FF" transform="translate(0,0)"/>
<path d="" fill="#0000FF" transform="translate(0,0)"/>
<path d="" fill="#5555FF" transform="translate(0,0)"/>
<path d="" fill="#0080FF" transform="translate(0,0)"/>
<path d="" fill="#5555FF" transform="translate(0,0)"/>
<path d="" fill="#0080FF" transform="translate(0,0)"/>
<path d="" fill="#5555FF" transform="translate(0,0)"/>
<path d="" fill="#0080FF" transform="translate(0,0)"/>
<path d="" fill="#0080FF" transform="translate(0,0)"/>
<path d="" fill="#0080FF" transform="translate(0,0)"/>
<path d="" fill="#5555FF" transform="translate(0,0)"/>
<path d="" fill="#0080FF" transform="translate(0,0)"/>
<path d="" fill="#5555FF" transform="translate(0,0)"/>
<path d="" fill="#0000FF" transform="translate(0,0)"/>
<path d="" fill="#2A55FF" transform="translate(0,0)"/>
<path d="" fill="#0000FF" transform="translate(0,0)"/>
<path d="" fill="#3366FF" transform="translate(0,0)"/>
<path d="" fill="#5555FF" transform="translate(0,0)"/>
<path d="" fill="#0000FF" transform="translate(0,0)"/>
<path d="" fill="#5555FF" transform="translate(0,0)"/>
<path d="" fill="#0080FF" transform="translate(0,0)"/>
<path d="" fill="#0080FF" transform="translate(0,0)"/>
<path d="" fill="#0080FF" transform="translate(0,0)"/>
<path d="" fill="#5555FF" transform="translate(0,0)"/>
<path d="" fill="#0080FF" transform="translate(0,0)"/>
<path d="" fill="#0000FF" transform="translate(0,0)"/>
<path d="" fill="#5555FF" transform="translate(0,0)"/>
<path d="" fill="#0080FF" transform="translate(0,0)"/>
<path d="" fill="#0080FF" transform="translate(0,0)"/>
<path d="" fill="#5555FF" transform="translate(0,0)"/>
<path d="" fill="#0080FF" transform="translate(0,0)"/>
<path d="" fill="#0000FF" transform="translate(0,0)"/>
<path d="" fill="#5555FF" transform="translate(0,0)"/>
<path d="" fill="#5555FF" transform="translate(0,0)"/>
<path d="" fill="#5555FF" transform="translate(0,0)"/>
<path d="" fill="#5555FF" transform="translate(0,0)"/>
<path d="" fill="#0000FF" transform="translate(0,0)"/>
<path d="" fill="#0080FF" transform="translate(0,0)"/>
<path d="" fill="#0080FF" transform="translate(0,0)"/>
<path d="" fill="#0080FF" transform="translate(0,0)"/>
<path d="" fill="#0080FF" transform="translate(0,0)"/>
<path d="" fill="#5555FF" transform="translate(0,0)"/>
<path d="" fill="#5555FF" transform="translate(0,0)"/>
<path d="" fill="#0080FF" transform="translate(0,0)"/>
<path d="" fill="#5555FF" transform="translate(0,0)"/>
<path d="" fill="#5555FF" transform="translate(0,0)"/>
<path d="" fill="#5555FF" transform="translate(0,0)"/>
<path d="" fill="#5555FF" transform="translate(0,0)"/>
<path d="" fill="#5555FF" transform="translate(0,0)"/>
<path d="" fill="#5555FF" transform="translate(0,0)"/>
<path d="" fill="#0080FF" transform="translate(0,0)"/>
<path d="" fill="#0080FF" transform="translate(0,0)"/>
<path d="" fill="#0000FF" transform="translate(0,0)"/>
</svg>
