<?xml version="1.0" encoding="UTF-8"?>
<!-- Generator: https://ezgif.com/png-to-svg -->
<svg version="1.1" xmlns="http://www.w3.org/2000/svg" width="512" height="512" viewBox="-36.395 -58.495 673.019 673.019" preserveAspectRatio="xMidYMid meet">
<path d="M0 0 C12.71 -0.14 25.31 0.27 37.99 1.02 C39.87 1.13 41.74 1.24 43.62 1.35 C47.54 1.57 51.45 1.8 55.36 2.03 C60.29 2.32 65.21 2.6 70.13 2.88 C89.74 4 109.34 5.19 128.92 6.58 C137.22 7.16 145.51 7.65 153.81 8.12 C155.32 8.21 156.82 8.3 158.33 8.39 C161.89 8.59 165.44 8.8 169 9 C169.12 10.79 169.12 10.79 169.23 12.62 C169.81 33.62 169.81 33.62 176.92 52.68 C181.48 56.22 186.67 57.34 192.25 58.38 C196.91 59.43 201.03 61.56 205.31 63.62 C206.99 64.38 208.66 65.14 210.34 65.89 C224.67 72.37 238.83 79.2 253 86 C253.57 102.79 251.92 119.39 250.34 136.08 C250.05 139.06 249.78 142.04 249.51 145.02 C249.24 147.94 248.97 150.85 248.7 153.77 C248.51 155.79 248.33 157.81 248.14 159.84 C247.9 162.34 247.65 164.85 247.39 167.35 C247.12 169.82 246.89 172.3 246.69 174.78 C245.87 182.77 244.49 187.28 238.49 192.65 C237.84 193.28 237.2 193.9 236.53 194.55 C234.48 196.52 232.4 198.45 230.31 200.38 C228.93 201.69 227.56 203 226.18 204.32 C224.19 206.22 222.2 208.12 220.2 210.01 C216.47 213.54 213.01 217.15 209.72 221.09 C207.5 223.55 205.1 225.73 202.65 227.95 C201.72 228.82 200.78 229.69 199.82 230.58 C197.89 232.37 195.93 234.13 193.95 235.87 C188.71 240.61 188.71 240.61 186.78 247.1 C187.28 250.19 188.03 253.03 189 256 C189.39 257.79 189.39 257.79 189.78 259.62 C190.02 260.69 190.26 261.77 190.5 262.88 C198.62 304.36 193.53 349.25 173.7 386.71 C173.14 387.8 172.58 388.88 172 390 C171.49 390.78 170.97 391.56 170.45 392.36 C169.66 397.03 172.72 400.43 175.19 404.25 C175.74 405.14 176.3 406.03 176.87 406.95 C178.56 409.65 180.27 412.32 182 415 C182.47 415.73 182.93 416.46 183.42 417.21 C185.15 419.91 186.89 422.6 188.64 425.29 C193.32 432.44 197.83 439.7 202.36 446.95 C206.95 454.33 211.58 461.69 216.23 469.02 C217.49 471.01 218.75 473.01 220 475 C220.6 475.96 221.21 476.91 221.83 477.89 C223 480 223 480 223 482 C210.21 482.9 197.42 483.8 184.62 484.69 C183.66 484.75 182.69 484.82 181.69 484.89 C147.36 487.28 113.02 489.47 78.67 491.49 C74.76 491.73 70.84 491.96 66.93 492.21 C65.45 492.31 63.96 492.4 62.48 492.5 C61.77 492.54 61.05 492.59 60.31 492.64 C55.53 492.93 50.76 493.12 45.97 493.27 C44.73 493.32 43.49 493.37 42.21 493.42 C39.94 493.52 37.67 493.58 35.4 493.61 C31 493.82 28.11 494.1 24.63 496.92 C21.16 500.76 18.25 504.89 15.94 509.53 C13.2 514.73 10.04 519.4 6.56 524.12 C3.95 527.74 1.41 531.26 -0.74 535.17 C-2.86 538.97 -4.47 541.51 -8.74 542.88 C-10.47 543.15 -10.47 543.15 -12.23 543.43 C-12.91 543.55 -13.58 543.66 -14.28 543.77 C-15.89 544.04 -17.5 544.3 -19.11 544.55 C-22.44 545.07 -25.76 545.62 -29.08 546.17 C-35.95 547.3 -42.81 548.41 -49.68 549.5 C-53.3 550.07 -56.91 550.66 -60.53 551.24 C-63.34 551.7 -66.16 552.15 -68.98 552.59 C-70.95 552.91 -72.92 553.23 -74.9 553.55 C-91.49 556.17 -91.49 556.17 -99.5 552.38 C-104.37 550.13 -109.25 548.1 -114.29 546.24 C-115.7 545.72 -117.11 545.19 -118.52 544.67 C-119.25 544.4 -119.99 544.12 -120.74 543.84 C-127.83 541.2 -134.88 538.46 -141.94 535.75 C-143.21 535.26 -143.21 535.26 -144.51 534.76 C-156.03 530.33 -167.52 525.83 -178.97 521.22 C-184.9 518.83 -190.84 516.52 -196.83 514.3 C-205.39 511.12 -213.9 507.83 -222.42 504.54 C-226.56 502.94 -230.7 501.35 -234.84 499.75 C-240.32 497.64 -245.8 495.53 -251.28 493.42 C-253.5 492.56 -255.72 491.7 -257.94 490.85 C-261.1 489.64 -264.26 488.42 -267.41 487.2 C-268.36 486.83 -269.31 486.47 -270.29 486.09 C-275.69 484 -280.86 481.68 -286 479 C-283.33 474.09 -279.82 470.01 -276.25 465.75 C-274.99 464.24 -273.73 462.72 -272.48 461.21 C-271.88 460.48 -271.28 459.76 -270.66 459.01 C-267.69 455.41 -264.82 451.72 -262 448 C-263.08 447.85 -264.15 447.71 -265.26 447.55 C-288.84 444.28 -312.46 440.85 -335.81 436.19 C-337.37 435.88 -337.37 435.88 -338.95 435.56 C-345.86 434.14 -345.86 434.14 -347 433 C-347.34 426.9 -346.45 421.7 -344.91 415.81 C-344.69 414.92 -344.47 414.03 -344.24 413.12 C-343.49 410.17 -342.74 407.23 -341.98 404.29 C-341.45 402.19 -340.92 400.1 -340.39 398 C-338.96 392.37 -337.52 386.75 -336.08 381.12 C-334.59 375.27 -333.1 369.42 -331.61 363.56 C-328.09 349.71 -324.55 335.85 -321 322 C-320.5 320.03 -319.99 318.06 -319.49 316.09 C-315.73 301.41 -311.96 286.73 -308.18 272.06 C-303.6 254.27 -299.06 236.46 -294.67 218.62 C-294.49 217.89 -294.31 217.16 -294.13 216.4 C-293.66 214.51 -293.19 212.62 -292.73 210.72 C-292 208 -292 208 -291 206 C-283.05 207.54 -275.14 209.25 -267.23 210.98 C-265.14 211.44 -263.04 211.89 -260.94 212.35 C-253.74 213.92 -246.57 215.57 -239.45 217.47 C-236.77 218.14 -236.77 218.14 -233 218 C-231.29 215.9 -229.91 213.92 -228.5 211.62 C-224.93 205.98 -221.29 200.39 -217.58 194.84 C-217.07 194.07 -216.56 193.31 -216.03 192.52 C-210.07 183.6 -204.08 174.71 -198.09 165.82 C-196.17 162.98 -194.25 160.13 -192.34 157.29 C-191.09 155.44 -189.85 153.59 -188.61 151.75 C-188.04 150.92 -187.48 150.09 -186.91 149.23 C-185.82 147.62 -184.74 146.02 -183.64 144.43 C-182.49 142.73 -181.38 141.02 -180.29 139.29 C-176.57 133.53 -174.17 130.77 -167.59 128.72 C-166.9 128.49 -166.21 128.26 -165.49 128.03 C-164.05 127.56 -162.6 127.1 -161.15 126.66 C-159.08 126.03 -157.04 125.35 -154.99 124.64 C-151.59 123.48 -148.17 122.34 -144.76 121.22 C-140.84 119.93 -136.93 118.63 -133.02 117.34 C-132.2 117.06 -131.38 116.79 -130.54 116.51 C-121.28 113.44 -112.04 110.28 -102.81 107.12 C-101.55 106.69 -101.55 106.69 -100.26 106.25 C-95.94 104.78 -91.63 103.3 -87.32 101.82 C-79.06 98.99 -70.8 96.17 -62.54 93.35 C-59.15 92.19 -55.76 91.03 -52.37 89.87 C-50.05 89.08 -47.72 88.29 -45.39 87.5 C-42.51 86.52 -39.64 85.52 -36.77 84.49 C-35.77 84.14 -35.77 84.14 -34.75 83.78 C-32.96 83.15 -31.18 82.51 -29.4 81.87 C-21.46 79.84 -14.25 81.54 -6.39 83.19 C-5.3 83.41 -4.2 83.63 -3.08 83.86 C0.39 84.57 3.85 85.28 7.31 86 C10.79 86.72 14.28 87.43 17.76 88.14 C19.92 88.58 22.08 89.03 24.24 89.48 C25.22 89.68 26.19 89.88 27.2 90.08 C28.05 90.26 28.91 90.44 29.79 90.62 C32.12 91.08 32.12 91.08 35 91 C32.69 85.06 30.38 79.12 28.06 73.19 C27.71 72.28 27.36 71.38 27 70.45 C22.77 59.6 18.52 48.77 14.22 37.95 C13.84 36.97 13.45 36 13.05 35 C11.17 30.27 9.3 25.55 7.41 20.83 C6.72 19.1 6.04 17.38 5.35 15.65 C4.89 14.49 4.89 14.49 4.41 13.3 C3.98 12.21 3.98 12.21 3.53 11.09 C3.28 10.47 3.04 9.84 2.78 9.2 C1.71 6.17 0.86 3.09 0 0 Z " fill="#FDFDFD" transform="translate(347,0)"/>
<path d="M0 0 C1.33 0.2 1.33 0.2 2.68 0.4 C5.48 0.81 8.28 1.24 11.08 1.66 C12.97 1.94 14.86 2.22 16.75 2.5 C31.59 4.71 31.59 4.71 36.33 5.72 C33.53 8.7 30.71 10.91 27.27 13.1 C9.79 24.57 -6.54 37.64 -22.36 51.29 C-22.9 51.75 -23.45 52.22 -24.01 52.71 C-35.58 62.78 -46.54 73.43 -57.37 84.29 C-59.56 86.49 -61.76 88.68 -63.96 90.88 C-65.38 92.3 -66.81 93.72 -68.23 95.14 C-69.19 96.11 -69.19 96.11 -70.18 97.09 C-74.54 101.48 -78.65 106.03 -82.67 110.72 C-83.65 111.84 -84.62 112.96 -85.59 114.07 C-91.56 120.96 -97.31 127.97 -102.9 135.18 C-104.76 137.57 -106.65 139.93 -108.57 142.27 C-116.56 152.02 -123.69 162.24 -130.67 172.72 C-131.09 173.35 -131.5 173.97 -131.93 174.61 C-132.85 175.98 -133.76 177.35 -134.67 178.72 C-130.12 180.12 -126.38 180.55 -121.67 179.72 C-116.54 176.55 -112.52 171.84 -108.41 167.5 C-106.07 165.11 -103.54 163.04 -100.92 160.97 C-97.21 158.01 -93.67 154.94 -90.17 151.72 C-85.36 147.31 -80.4 143.16 -75.32 139.06 C-72.71 136.95 -70.14 134.8 -67.55 132.66 C-59.97 126.39 -52.32 120.22 -44.55 114.18 C-42.5 112.59 -40.47 110.99 -38.43 109.39 C-28.75 101.77 -18.89 94.45 -8.86 87.3 C-6.78 85.8 -4.72 84.28 -2.66 82.76 C97.44 8.72 97.44 8.72 125.33 8.72 C123.34 21.08 121.04 33.37 118.5 45.62 C118.19 47.13 117.89 48.63 117.58 50.13 C117.11 52.41 116.63 54.69 116.15 56.97 C112.54 73.24 112.54 73.24 116.89 88.91 C132.6 122.11 138.24 163.06 128.33 198.72 C127.89 200.33 127.89 200.33 127.45 201.97 C121.72 220.82 112.17 239.59 99.61 254.76 C98.03 256.68 98.03 256.68 96.33 259.72 C97.53 264.45 100.61 268.36 103.34 272.33 C103.84 273.06 104.33 273.78 104.84 274.53 C106.41 276.85 108 279.16 109.58 281.47 C110.63 283.01 111.67 284.55 112.72 286.09 C113.23 286.84 113.74 287.59 114.27 288.36 C114.77 289.09 115.27 289.83 115.78 290.58 C116.76 292.02 117.73 293.45 118.71 294.88 C119.16 295.54 119.61 296.2 120.07 296.88 C121.18 298.5 122.29 300.12 123.4 301.74 C123.95 302.54 124.5 303.35 125.06 304.18 C125.51 304.83 125.96 305.49 126.43 306.17 C127.33 307.72 127.33 307.72 127.33 309.72 C112.26 312.1 97.17 313.99 82.02 315.72 C68.74 317.25 55.48 318.8 42.23 320.56 C34.51 321.58 26.78 322.53 19.04 323.48 C16.59 323.78 14.14 324.08 11.69 324.38 C7.94 324.84 4.19 325.29 0.44 325.75 C-3.25 326.19 -6.95 326.65 -10.64 327.1 C-11.77 327.23 -12.89 327.37 -14.04 327.51 C-24.21 328.77 -29.28 330.73 -36.41 338.11 C-37.5 339.21 -37.5 339.21 -38.62 340.34 C-40.94 342.69 -43.24 345.05 -45.55 347.41 C-47.85 349.75 -50.15 352.09 -52.45 354.43 C-53.89 355.88 -55.31 357.34 -56.74 358.8 C-60.63 362.77 -64.64 366.54 -68.87 370.15 C-71.77 372.68 -74.47 375.41 -77.17 378.16 C-77.98 378.97 -77.98 378.97 -78.8 379.8 C-80.09 381.1 -81.38 382.41 -82.67 383.72 C-89.57 381.76 -96.25 379.46 -102.92 376.85 C-103.86 376.49 -104.8 376.12 -105.77 375.75 C-108.74 374.6 -111.7 373.44 -114.67 372.29 C-116.66 371.51 -118.65 370.74 -120.64 369.97 C-128.61 366.88 -136.57 363.77 -144.51 360.59 C-147.38 359.44 -150.28 358.33 -153.17 357.22 C-156.79 355.84 -160.39 354.44 -163.98 352.99 C-171.71 349.89 -179.51 346.94 -187.3 343.97 C-188.89 343.36 -190.48 342.76 -192.07 342.15 C-195.94 340.67 -199.81 339.2 -203.67 337.72 C-203.67 336.73 -203.67 335.74 -203.67 334.72 C-201.95 333.29 -201.95 333.29 -199.53 331.79 C-198.63 331.23 -197.74 330.67 -196.81 330.09 C-195.84 329.49 -194.86 328.9 -193.86 328.29 C-192.87 327.67 -191.89 327.06 -190.87 326.42 C-188.82 325.15 -186.77 323.88 -184.72 322.61 C-180.12 319.76 -175.55 316.87 -170.98 313.97 C-168.79 312.59 -166.6 311.21 -164.41 309.83 C-162.82 308.81 -161.24 307.77 -159.67 306.72 C-157.36 306.68 -157.36 306.68 -154.61 306.96 C-153.58 307.06 -152.55 307.16 -151.49 307.26 C-150.37 307.37 -149.26 307.48 -148.11 307.6 C-129.57 309.21 -111.39 309.33 -92.86 307.47 C-91.73 307.36 -90.61 307.25 -89.45 307.14 C-81.49 306.24 -74.25 304.23 -66.67 301.72 C-64.57 301.11 -62.47 300.51 -60.36 299.91 C-18.92 287.1 19.11 255.91 39.39 217.59 C42.36 211.76 44.91 205.8 47.33 199.72 C47.63 199.01 47.94 198.3 48.25 197.57 C52.9 186.31 53.88 174.34 53.83 162.29 C53.83 161.61 53.83 160.93 53.83 160.24 C53.8 148.94 52.4 139.86 47.33 129.72 C43.41 130.3 40.78 131.44 37.46 133.58 C36.51 134.19 35.56 134.8 34.57 135.43 C33.54 136.11 32.51 136.78 31.45 137.47 C30.37 138.18 29.28 138.88 28.16 139.6 C7.25 153.18 -13.34 167.3 -33.67 181.72 C-34.3 182.17 -34.92 182.61 -35.57 183.07 C-39.01 185.51 -42.44 187.96 -45.86 190.42 C-47.83 191.84 -49.81 193.25 -51.79 194.66 C-63.6 203.11 -75.16 211.88 -86.67 220.72 C-87.91 221.67 -89.16 222.62 -90.4 223.57 C-93.5 225.95 -96.59 228.33 -99.67 230.72 C-100.23 231.15 -100.79 231.58 -101.36 232.03 C-108.92 237.88 -116.31 243.89 -123.58 250.1 C-127.34 253.31 -131.2 256.41 -135.05 259.52 C-137.74 261.78 -140.22 264.2 -142.73 266.66 C-146.66 270.21 -149.55 271.85 -154.81 272.41 C-157.83 272.74 -160.81 273.19 -163.81 273.66 C-172.74 274.94 -181.68 275.69 -190.67 276.35 C-191.56 276.41 -192.44 276.48 -193.35 276.54 C-225.6 278.86 -258.91 279.74 -290.67 272.72 C-289.49 265.22 -287.71 258.17 -285.3 250.97 C-282.81 243.38 -280.55 235.8 -278.55 228.06 C-277.45 223.87 -276.16 219.76 -274.87 215.62 C-273.24 210.39 -271.75 205.11 -270.23 199.85 C-267.98 192.04 -265.57 184.34 -262.93 176.66 C-260.92 170.58 -259.38 164.34 -257.81 158.13 C-257.46 156.78 -257.46 156.78 -257.1 155.4 C-256.9 154.59 -256.69 153.79 -256.48 152.96 C-255.58 150.47 -254.35 148.75 -252.67 146.72 C-246.41 156.47 -240.47 166.39 -234.67 176.41 C-234.01 177.54 -233.35 178.68 -232.68 179.85 C-232.06 180.92 -231.44 182 -230.8 183.11 C-230.24 184.07 -229.69 185.03 -229.12 186.02 C-227.77 188.54 -226.67 191.05 -225.67 193.72 C-223.2 191.46 -221.65 189.17 -220.03 186.24 C-219.52 185.34 -219.02 184.43 -218.5 183.5 C-217.96 182.52 -217.42 181.54 -216.86 180.54 C-215.68 178.43 -214.51 176.33 -213.33 174.22 C-212.72 173.14 -212.12 172.06 -211.49 170.95 C-208.67 165.94 -205.77 160.99 -202.86 156.04 C-197.76 147.34 -192.73 138.61 -187.73 129.85 C-180.71 117.52 -173.63 105.23 -166.53 92.94 C-164.03 88.62 -161.54 84.3 -159.05 79.97 C-157.81 77.82 -156.57 75.67 -155.33 73.52 C-152.39 68.44 -149.46 63.35 -146.53 58.26 C-145.14 55.85 -143.75 53.44 -142.36 51.03 C-141.38 49.32 -140.4 47.61 -139.42 45.91 C-138.82 44.88 -138.23 43.85 -137.62 42.79 C-137.1 41.88 -136.58 40.97 -136.04 40.04 C-133.21 35.25 -131.62 34.07 -126.36 32.29 C-125.42 31.96 -125.42 31.96 -124.46 31.63 C-119.36 29.91 -114.23 28.31 -109.07 26.75 C-105.33 25.62 -101.59 24.46 -97.86 23.29 C-97.19 23.08 -96.52 22.86 -95.82 22.65 C-92.45 21.59 -89.07 20.53 -85.7 19.47 C-78.92 17.33 -72.12 15.26 -65.3 13.29 C-58.52 11.32 -51.83 9.15 -45.15 6.89 C-39.58 5.01 -33.99 3.23 -28.36 1.54 C-26.2 0.88 -24.06 0.19 -21.92 -0.53 C-14.63 -2.21 -7.31 -1.12 0 0 Z " fill="#010101" transform="translate(330.671875,132.27734375)"/>
<path d="M0 0 C9.77 -0.25 19.26 0.2 28.98 1.22 C35.88 1.93 42.76 2.37 49.7 2.66 C54.19 2.85 58.55 3.29 63 4 C62.51 14.45 61.02 24.43 59.06 34.69 C58.66 36.83 58.26 38.97 57.86 41.11 C57.61 42.49 57.34 43.87 57.08 45.25 C56.49 48.28 55.96 51.3 55.55 54.36 C54.57 61.52 54.57 61.52 51.6 64.03 C50.13 64.48 50.13 64.48 48.62 64.94 C47.56 65.29 46.49 65.64 45.38 66.01 C43.71 66.5 43.71 66.5 42 67 C39.83 67.77 37.67 68.54 35.5 69.31 C31.97 70.51 29.8 71 26 71 C25.61 69.89 25.23 68.78 24.83 67.63 C22.39 60.65 19.94 53.7 17.13 46.85 C15.51 42.76 14.01 38.63 12.5 34.5 C10.4 28.77 8.27 23.07 5.98 17.41 C4.71 14.29 3.48 11.14 2.25 8 C1.82 6.91 1.39 5.81 0.95 4.69 C0 2 0 2 0 0 Z " fill="#030303" transform="translate(408,39)"/>
<path d="M0 0 C4.08 0.64 7.42 1.96 11.16 3.7 C12.34 4.25 13.53 4.8 14.76 5.37 C15.37 5.66 15.99 5.95 16.63 6.25 C18.46 7.11 20.31 7.96 22.15 8.81 C30.27 12.59 38.16 16.67 46 21 C44.93 24.41 43.92 27.49 41.93 30.46 C41.51 31.09 41.1 31.71 40.68 32.35 C40.23 33.02 39.78 33.69 39.31 34.38 C38.32 35.88 37.33 37.38 36.34 38.88 C35.81 39.7 35.27 40.51 34.72 41.35 C31.52 46.28 28.42 51.26 25.31 56.25 C24.67 57.28 24.03 58.3 23.37 59.36 C18.89 66.56 14.42 73.77 10 81 C6.64 79.73 3.63 78.29 0.57 76.4 C-0.22 75.91 -1.02 75.42 -1.84 74.91 C-2.65 74.41 -3.47 73.9 -4.31 73.38 C-5.15 72.86 -5.98 72.34 -6.85 71.81 C-8.9 70.55 -10.95 69.27 -13 68 C-12.63 59.93 -11.24 52.7 -9.04 44.92 C-7.42 39.03 -6.43 33.01 -5.36 27 C-4.33 21.31 -3.14 15.66 -2 10 C-1.6 8.02 -1.21 6.04 -0.81 4.06 C-0.54 2.71 -0.27 1.35 0 0 Z " fill="#030303" transform="translate(499,76)"/>
</svg>
