<?xml version="1.0" encoding="UTF-8"?>
<!-- Generator: https://ezgif.com/png-to-svg -->
<svg version="1.1" xmlns="http://www.w3.org/2000/svg" width="512" height="512" viewBox="2.75 10.72 378.56 378.56" preserveAspectRatio="xMidYMid meet">
<path d="M0 0 C4.2 1.3 7.93 2.89 11.8 4.98 C13.46 5.88 13.46 5.88 15.16 6.8 C16.36 7.45 17.55 8.1 18.75 8.75 C20 9.43 21.25 10.1 22.5 10.78 C25.08 12.17 27.65 13.56 30.22 14.95 C34.82 17.45 39.43 19.92 44.04 22.4 C54.34 27.94 64.63 33.5 74.91 39.08 C82.73 43.31 90.55 47.54 98.38 51.75 C99.51 52.36 100.64 52.97 101.8 53.6 C102.84 54.16 103.89 54.72 104.96 55.3 C106.35 56.04 106.35 56.04 107.77 56.81 C109.17 57.56 110.58 58.29 112 59 C112 59.66 112 60.32 112 61 C105.4 62.32 98.8 63.64 92 65 C99.87 71.34 107.77 77.63 115.81 83.75 C126.25 91.71 126.25 91.71 130.06 94.69 C130.84 95.29 131.61 95.89 132.41 96.51 C132.93 97 133.46 97.49 134 98 C134 98.66 134 99.32 134 100 C123.61 100.5 123.61 100.5 113 101 C114.13 102.03 115.27 103.06 116.44 104.12 C137.4 125.27 145.02 157.91 145.06 186.75 C145.05 188.17 145.03 189.58 145 191 C142 191 142 191 139.81 189 C139.21 188.34 138.62 187.68 138 187 C138.23 188.3 138.45 189.6 138.69 190.94 C139.32 197 138.21 202.07 134.5 206.99 C133.64 208.01 133.64 208.01 132.77 209.04 C128.62 214.26 125.67 219.88 122.69 225.81 C122.16 226.84 121.64 227.86 121.1 228.91 C119.04 232.93 117.02 236.96 115 241 C114.34 241 113.68 241 113 241 C112.34 238.36 111.68 235.72 111 233 C103.81 248.92 96.66 264.85 90 281 C89.01 280.67 88.02 280.34 87 280 C86.34 276.04 85.68 272.08 85 268 C84.42 268.79 83.83 269.58 83.23 270.39 C77.43 278.14 71.21 285.32 64.56 292.35 C61.89 295.17 59.26 298.02 56.62 300.88 C55.87 301.69 55.87 301.69 55.1 302.52 C52.45 305.39 49.87 308.3 47.38 311.31 C46.59 312.2 45.81 313.09 45 314 C44.34 314 43.68 314 43 314 C45.4 306.56 48.15 299.28 51 292 C46.31 297.11 41.73 302.28 37.38 307.69 C34.32 311.47 31.16 314.96 27.67 318.34 C23.76 322.23 20.25 326.54 16.66 330.73 C15.87 331.64 15.07 332.56 14.25 333.5 C13.51 334.36 12.78 335.21 12.02 336.09 C10 338 10 338 7 338 C-7.78 325.22 -21.05 304.27 -30 287 C-30.43 287.82 -30.87 288.65 -31.31 289.5 C-31.87 290.32 -32.43 291.15 -33 292 C-33.99 292 -34.98 292 -36 292 C-37.16 282.43 -37.12 272.93 -37.06 263.31 C-37.06 261.72 -37.05 260.14 -37.05 258.55 C-37.04 254.7 -37.02 250.85 -37 247 C-37.99 247.58 -38.97 248.15 -39.99 248.75 C-41.29 249.5 -42.58 250.25 -43.88 251 C-44.53 251.38 -45.18 251.76 -45.85 252.16 C-50.77 255 -50.77 255 -53 255 C-51 248.56 -48.55 242.44 -45.75 236.31 C-45.35 235.43 -44.96 234.55 -44.55 233.65 C-42.83 229.85 -41.1 226.09 -39.1 222.43 C-32.5 210.27 -28.59 196.58 -26 183 C-26.57 183.09 -27.14 183.17 -27.72 183.26 C-30.34 183.65 -32.95 184.04 -35.56 184.44 C-36.91 184.64 -36.91 184.64 -38.28 184.85 C-40.04 185.11 -41.81 185.37 -43.57 185.64 C-45.63 185.95 -47.69 186.26 -49.75 186.58 C-60.07 187.91 -70.28 186.91 -80.56 185.69 C-81.6 185.57 -82.63 185.45 -83.7 185.33 C-97.04 183.63 -102.85 176.89 -110.75 166.75 C-111.22 166.14 -111.69 165.52 -112.18 164.89 C-114.72 161.51 -114.72 161.51 -117.72 158.56 C-119 157 -119 157 -118.94 154.98 C-117.71 152.38 -116.43 151.68 -113.93 150.26 C-113.07 149.76 -112.2 149.25 -111.31 148.74 C-110.36 148.2 -109.41 147.67 -108.44 147.12 C-107.46 146.56 -106.49 146 -105.49 145.43 C-103.41 144.23 -101.33 143.04 -99.24 141.85 C-94.9 139.37 -90.58 136.85 -86.26 134.33 C-84.22 133.14 -82.17 131.95 -80.12 130.76 C-74.69 127.6 -69.31 124.37 -64 121 C-64.12 120.33 -64.24 119.67 -64.37 118.98 C-64.72 117.04 -65.06 115.09 -65.39 113.15 C-65.95 110.02 -65.95 110.02 -66.82 107.1 C-68.63 100.26 -68.63 100.26 -66.99 96.99 C-65.12 94.83 -63.1 92.94 -61 91 C-58.92 88.84 -56.9 86.64 -54.88 84.44 C-54.37 83.91 -53.87 83.38 -53.35 82.83 C-51.87 81.25 -50.43 79.64 -49 78 C-48.51 77.46 -48.02 76.91 -47.52 76.36 C-42.7 70.47 -43.73 64.64 -44.37 57.4 C-44.53 55.79 -44.7 54.19 -44.88 52.58 C-44.96 51.72 -45.05 50.86 -45.14 49.97 C-45.43 47.25 -45.71 44.53 -46 41.81 C-46.29 39.08 -46.57 36.35 -46.86 33.62 C-47.03 31.93 -47.21 30.24 -47.39 28.55 C-47.83 24.34 -48.1 20.24 -48 16 C-43.22 17.67 -39.15 20.22 -34.88 22.88 C-33.71 23.59 -33.71 23.59 -32.52 24.32 C-28.24 26.95 -24 29.64 -19.8 32.39 C-18.96 32.94 -18.11 33.49 -17.24 34.06 C-15.61 35.13 -13.99 36.2 -12.37 37.29 C-8.14 40.04 -5.24 41.82 0 41 C1.44 39.79 1.44 39.79 1.02 36.21 C0.98 34.53 0.93 32.84 0.88 31.15 C0.86 30.27 0.83 29.38 0.81 28.47 C0.73 25.62 0.65 22.78 0.56 19.94 C0.51 18.01 0.46 16.09 0.4 14.17 C0.27 9.45 0.14 4.72 0 0 Z M-32 88 C-31 90 -31 90 -31 90 Z M-31 90 C-28.6 97.44 -25.85 104.72 -23 112 C-23.6 112.28 -24.21 112.56 -24.83 112.84 C-27.79 114.42 -29.77 116.52 -32 119 C-32 119.66 -32 120.32 -32 121 C-30.99 120.88 -29.97 120.76 -28.93 120.64 C-27.58 120.51 -26.23 120.38 -24.88 120.25 C-24.21 120.17 -23.54 120.09 -22.86 120 C-17.57 119.54 -15.16 120.89 -11 124 C-10.01 124 -9.02 124 -8 124 C-8.36 123.52 -8.72 123.04 -9.09 122.54 C-9.56 121.91 -10.02 121.28 -10.5 120.62 C-10.96 120 -11.43 119.37 -11.91 118.73 C-13 117 -13 117 -13 115 C-11.5 113.38 -11.5 113.38 -10 112 C-11.09 111.88 -12.19 111.75 -13.31 111.62 C-15.27 111.09 -15.27 111.09 -17 110 C-18.04 107.53 -18.59 105.08 -19.2 102.47 C-20.48 98.53 -22.64 97.35 -26 95 C-27.72 93.38 -29.35 91.7 -31 90 Z " fill="#FEFEFE" transform="translate(179,31)"/>
</svg>
