<?xml version="1.0" encoding="UTF-8"?>
<!-- Generator: https://ezgif.com/png-to-svg -->
<svg version="1.1" xmlns="http://www.w3.org/2000/svg" width="512" height="512" viewBox="47.653 46.138 306.757 306.757" preserveAspectRatio="xMidYMid meet">
<path d="M0 0 C0.95 -0.01 1.9 -0.02 2.88 -0.03 C5.93 -0.05 8.99 -0.07 12.04 -0.07 C13.08 -0.08 14.13 -0.08 15.21 -0.08 C32.39 -0.09 48.75 1.02 65.66 4.24 C67.41 4.54 69.15 4.85 70.9 5.15 C79.41 6.71 87.62 9.01 95.85 11.68 C96.71 11.95 97.58 12.23 98.46 12.51 C105.04 14.74 112.2 17.42 116.1 23.49 C120.23 31.96 119.03 43.23 119.29 52.49 C119.31 53.26 119.33 54.03 119.36 54.82 C121.06 117.78 112.82 188.55 71.66 239.24 C70.02 240.92 68.35 242.59 66.66 244.24 C65.91 245.03 65.15 245.82 64.38 246.63 C52.27 259.16 36.34 271.78 18.26 272.67 C16.42 272.7 14.57 272.7 12.73 272.68 C11.27 272.66 11.27 272.66 9.79 272.65 C2.75 272.48 -3.08 271.66 -9.34 268.24 C-10.93 267.37 -10.93 267.37 -12.55 266.48 C-16.57 264.2 -20.49 261.81 -24.34 259.24 C-24.34 258.58 -24.34 257.92 -24.34 257.24 C-24.87 256.99 -25.41 256.74 -25.96 256.49 C-28.92 254.93 -31.63 253.2 -34.34 251.24 C-34.34 250.58 -34.34 249.92 -34.34 249.24 C-35 249.24 -35.66 249.24 -36.34 249.24 C-36.34 248.58 -36.34 247.92 -36.34 247.24 C-37 247.24 -37.66 247.24 -38.34 247.24 C-38.34 246.58 -38.34 245.92 -38.34 245.24 C-39 245.24 -39.66 245.24 -40.34 245.24 C-40.34 244.58 -40.34 243.92 -40.34 243.24 C-41 243.24 -41.66 243.24 -42.34 243.24 C-44.56 240.96 -46.41 238.34 -48.34 235.8 C-49.21 234.65 -49.21 234.65 -50.1 233.48 C-55.85 225.76 -60.8 217.72 -65.34 209.24 C-65.86 208.27 -65.86 208.27 -66.39 207.27 C-77.42 186.38 -83.34 163.32 -87.76 140.25 C-88.25 137.69 -88.77 135.13 -89.3 132.58 C-93.38 112.24 -93.67 91.3 -93.6 70.62 C-93.59 67.01 -93.6 63.41 -93.61 59.8 C-93.63 27.27 -93.63 27.27 -87.34 20.24 C-86.79 19.59 -86.25 18.94 -85.68 18.27 C-82.64 15.63 -79.43 14.55 -75.65 13.36 C-74.87 13.11 -74.09 12.86 -73.29 12.6 C-49.59 5.19 -24.89 0.21 0 0 Z " fill="#090707" transform="translate(187.3359375,63.76171875)"/>
<path d="M0 0 C19.15 0 19.15 0 25.72 0.95 C26.43 1.05 27.14 1.16 27.88 1.26 C29.35 1.47 30.83 1.69 32.3 1.92 C34.5 2.25 36.7 2.56 38.89 2.87 C64.01 6.5 64.01 6.5 71 10 C72 14.41 72.26 18.86 72.54 23.37 C72.61 24.61 72.69 25.85 72.77 27.14 C72.87 28.7 72.96 30.26 73.06 31.88 C73.37 36.87 73.68 41.86 74 47 C74.66 35.45 75.32 23.9 76 12 C79.78 12.76 82.35 13.45 85.75 15 C86.53 15.35 87.31 15.7 88.11 16.06 C90 17 90 17 91 18 C92.01 25.03 92.19 31.99 92.24 39.08 C92.25 40.24 92.26 41.39 92.27 42.58 C92.51 77.96 91.41 111.7 82 146 C81.74 146.98 81.48 147.95 81.21 148.96 C73.22 178.38 60.35 208.42 37 229 C36.67 229 36.34 229 36 229 C36.56 221.29 37.21 213.59 37.9 205.9 C39.53 187.84 41.15 169.79 42.19 151.69 C42.23 150.99 42.27 150.3 42.31 149.58 C42.77 141.65 43.05 133.73 43.13 125.79 C43.15 124.27 43.17 122.75 43.2 121.23 C43.24 118.37 43.24 115.51 43.22 112.65 C43.3 105.74 43.53 100.9 48.28 95.65 C48.85 95.1 49.42 94.56 50 94 C50.54 93.46 51.08 92.91 51.63 92.35 C53.74 90.28 55.91 88.28 58.12 86.31 C61.15 83.46 61.15 83.46 62.27 79.57 C60.33 75.65 57.36 73.03 54.19 70.06 C42.67 59.18 42.67 59.18 42.29 50.43 C42.28 49.67 42.26 48.91 42.25 48.12 C42.22 47.34 42.19 46.56 42.16 45.75 C42.09 43.83 42.04 41.92 42 40 C40.63 44.1 40.83 48.08 40.77 52.38 C38.57 62.73 29.41 69.95 22.12 77.06 C21.04 78.13 19.96 79.2 18.88 80.26 C16.26 82.85 13.63 85.43 11 88 C11.6 87.62 12.21 87.23 12.83 86.84 C13.63 86.35 14.43 85.87 15.25 85.38 C16.04 84.89 16.83 84.4 17.64 83.9 C20 83 20 83 22.11 83.68 C25.09 85.76 27.59 88.3 30.12 90.88 C30.66 91.4 31.2 91.93 31.75 92.48 C36.68 97.43 38.25 100.29 38.3 107.27 C38.31 107.91 38.31 108.56 38.32 109.22 C38.33 111.42 38.32 113.61 38.31 115.81 C38.31 116.97 38.31 116.97 38.31 118.16 C38.27 135.52 37.45 152.85 36.62 170.19 C36.59 170.86 36.56 171.53 36.53 172.21 C36.13 180.58 35.7 188.94 35.21 197.3 C35.07 199.78 34.93 202.26 34.8 204.74 C34.6 208.3 34.38 211.86 34.15 215.43 C34.09 216.48 34.04 217.53 33.98 218.62 C33.43 226.45 31.74 232.56 26 238.12 C18.14 244.28 10.93 246.9 1 248 C0.67 166.16 0.34 84.32 0 0 Z " fill="#C6C5C3" transform="translate(202,76)"/>
<path d="M0 0 C-0.33 81.84 -0.66 163.68 -1 248 C-11.72 246.81 -19.45 243.58 -27.7 236.69 C-31.22 232.12 -31.49 226.16 -32 220.6 C-32.12 219.34 -32.12 219.34 -32.24 218.06 C-32.51 215.25 -32.76 212.44 -33 209.62 C-33.09 208.65 -33.17 207.67 -33.26 206.66 C-34.92 187.57 -35.68 168.46 -36.25 149.31 C-36.27 148.62 -36.29 147.94 -36.31 147.23 C-36.56 138.92 -36.77 130.61 -36.93 122.31 C-36.99 119.24 -37.09 116.17 -37.19 113.1 C-37.22 111.39 -37.26 109.69 -37.3 107.98 C-37.33 107.24 -37.36 106.5 -37.39 105.74 C-37.47 99.82 -35.3 96.66 -31.54 92.31 C-31.1 91.88 -30.66 91.45 -30.2 91.01 C-29.72 90.53 -29.24 90.05 -28.74 89.56 C-28.25 89.09 -27.76 88.61 -27.25 88.12 C-26.74 87.63 -26.24 87.13 -25.71 86.62 C-24.48 85.41 -23.24 84.2 -22 83 C-20.89 83.46 -20.89 83.46 -19.75 83.94 C-17.49 84.81 -15.35 85.44 -13 86 C-13.82 85.18 -13.82 85.18 -14.66 84.35 C-17.18 81.86 -19.68 79.37 -22.19 76.88 C-23.05 76.02 -23.92 75.16 -24.81 74.28 C-37.79 61.34 -37.79 61.34 -38.12 54.47 C-38.12 53.52 -38.12 52.57 -38.11 51.59 C-38.11 50.51 -38.11 49.43 -38.11 48.31 C-38.11 47.15 -38.1 45.99 -38.1 44.8 C-38.1 43.6 -38.09 42.41 -38.09 41.18 C-38.09 37.37 -38.08 33.56 -38.06 29.75 C-38.06 27.17 -38.05 24.58 -38.05 22 C-38.04 15.67 -38.02 9.33 -38 3 C-36.56 2.67 -35.12 2.35 -33.68 2.03 C-32.88 1.85 -32.08 1.66 -31.25 1.48 C-21.05 -0.69 -10.3 0 0 0 Z " fill="#C5C4C2" transform="translate(198,76)"/>
<path d="M0 0 C0.13 7.54 0.21 15.09 0.27 22.63 C0.3 25.2 0.33 27.76 0.38 30.33 C0.44 34.02 0.47 37.71 0.49 41.41 C0.51 42.55 0.54 43.69 0.57 44.86 C0.57 53.85 -1.86 58.73 -7.89 65.19 C-8.86 66.13 -9.83 67.07 -10.81 68 C-11.57 68.73 -11.57 68.73 -12.33 69.48 C-13.55 70.66 -14.77 71.83 -16 73 C-19.61 70.94 -22.8 68.65 -26 66 C-19.41 74.81 -12.48 82.81 -4.55 90.45 C-1.21 93.79 -0.88 95.24 -0.75 99.81 C-0.7 101.32 -0.7 101.32 -0.66 102.87 C-0.63 103.98 -0.6 105.08 -0.57 106.22 C-0.5 108.6 -0.43 110.98 -0.35 113.36 C-0.32 114.62 -0.28 115.88 -0.24 117.17 C0.69 148.1 1.71 179.18 6.09 209.86 C6.81 214.97 7.13 219.83 7 225 C-23.61 201.04 -37.14 156.63 -44 120 C-44 118.68 -44 117.36 -44 116 C-36.08 117.34 -29.05 120.14 -22 124 C-20.79 126.41 -20.54 128.5 -20.13 131.17 C-18.94 138.58 -17.42 145.91 -15.88 153.25 C-15.59 154.59 -15.31 155.93 -15.04 157.28 C-14.36 160.52 -13.68 163.76 -13 167 C-13.14 164.23 -13.29 161.46 -13.44 158.69 C-13.48 157.86 -13.53 157.03 -13.57 156.17 C-13.81 151.95 -14.1 147.76 -14.56 143.56 C-15.38 135.42 -15.08 127.18 -15 119 C-15.61 118.83 -16.21 118.66 -16.84 118.48 C-22.21 116.93 -27.37 115.13 -32.54 112.96 C-35.69 111.73 -38.91 110.84 -42.19 110 C-44.82 108.54 -45.05 106.82 -46 104 C-49.43 86.31 -49.28 67.87 -49.25 49.94 C-49.25 48.95 -49.25 47.95 -49.25 46.93 C-49.18 15.48 -49.18 15.48 -45 11 C-36.25 6.87 -26.22 4.97 -16.88 2.69 C-15.78 2.42 -14.69 2.15 -13.57 1.88 C-12.53 1.63 -11.5 1.39 -10.43 1.14 C-9.5 0.92 -8.58 0.7 -7.62 0.47 C-5.02 0 -2.64 -0.03 0 0 Z " fill="#C5C4C2" transform="translate(155,80)"/>
<path d="M0 0 C0.95 -0.01 1.9 -0.02 2.88 -0.03 C5.93 -0.05 8.99 -0.07 12.04 -0.07 C13.08 -0.08 14.13 -0.08 15.21 -0.08 C32.39 -0.09 48.75 1.02 65.66 4.24 C67.41 4.54 69.15 4.85 70.9 5.15 C79.41 6.71 87.62 9.01 95.85 11.68 C96.71 11.95 97.58 12.23 98.46 12.51 C105.04 14.74 112.2 17.42 116.1 23.49 C120.23 31.96 119.03 43.23 119.29 52.49 C119.31 53.26 119.33 54.03 119.36 54.82 C121.06 117.78 112.82 188.55 71.66 239.24 C70.02 240.92 68.35 242.59 66.66 244.24 C65.91 245.03 65.15 245.82 64.38 246.63 C52.27 259.16 36.34 271.78 18.26 272.67 C16.42 272.7 14.57 272.7 12.73 272.68 C11.27 272.66 11.27 272.66 9.79 272.65 C2.75 272.48 -3.08 271.66 -9.34 268.24 C-10.93 267.37 -10.93 267.37 -12.55 266.48 C-16.57 264.2 -20.49 261.81 -24.34 259.24 C-24.34 258.58 -24.34 257.92 -24.34 257.24 C-24.87 256.99 -25.41 256.74 -25.96 256.49 C-28.92 254.93 -31.63 253.2 -34.34 251.24 C-34.34 250.58 -34.34 249.92 -34.34 249.24 C-35 249.24 -35.66 249.24 -36.34 249.24 C-36.34 248.58 -36.34 247.92 -36.34 247.24 C-37 247.24 -37.66 247.24 -38.34 247.24 C-38.34 246.58 -38.34 245.92 -38.34 245.24 C-39 245.24 -39.66 245.24 -40.34 245.24 C-40.34 244.58 -40.34 243.92 -40.34 243.24 C-41 243.24 -41.66 243.24 -42.34 243.24 C-44.56 240.96 -46.41 238.34 -48.34 235.8 C-49.21 234.65 -49.21 234.65 -50.1 233.48 C-55.85 225.76 -60.8 217.72 -65.34 209.24 C-65.86 208.27 -65.86 208.27 -66.39 207.27 C-77.42 186.38 -83.34 163.32 -87.76 140.25 C-88.25 137.69 -88.77 135.13 -89.3 132.58 C-93.38 112.24 -93.67 91.3 -93.6 70.62 C-93.59 67.01 -93.6 63.41 -93.61 59.8 C-93.63 27.27 -93.63 27.27 -87.34 20.24 C-86.79 19.59 -86.25 18.94 -85.68 18.27 C-82.64 15.63 -79.43 14.55 -75.65 13.36 C-74.87 13.11 -74.09 12.86 -73.29 12.6 C-49.59 5.19 -24.89 0.21 0 0 Z M-68.52 17.11 C-70.16 17.57 -70.16 17.57 -71.84 18.03 C-77.51 19.77 -81.8 21.43 -85.35 26.35 C-87.05 29.61 -87.26 32.66 -87.34 36.24 C-87.39 37.34 -87.45 38.45 -87.5 39.59 C-87.7 43.7 -87.84 47.81 -87.96 51.93 C-87.98 52.67 -88 53.42 -88.03 54.19 C-89.16 95.05 -85.52 135.57 -73.14 174.68 C-72.43 176.95 -71.74 179.22 -71.06 181.5 C-61.09 213.61 -39.06 245.29 -9.45 261.86 C1.39 267.46 15.25 268.76 27.13 265.58 C32 263.73 36.35 261.13 40.66 258.24 C41.65 257.6 42.64 256.97 43.66 256.31 C83.43 229.03 100.15 180.65 108.66 135.24 C110.03 127.6 110.96 119.96 111.66 112.24 C111.76 111.24 111.86 110.24 111.97 109.22 C113.48 93.81 113.87 78.45 113.91 62.99 C113.92 62.12 113.92 61.26 113.93 60.37 C113.97 51.66 113.84 42.98 112.96 34.32 C112.77 32.44 112.77 32.44 112.58 30.53 C111.45 26.47 109.92 24.86 106.66 22.24 C104.5 21.05 104.5 21.05 102.21 20.39 C101.38 20.12 100.54 19.85 99.68 19.56 C98.79 19.29 97.89 19.02 96.98 18.74 C96.04 18.44 95.1 18.15 94.13 17.84 C92.21 17.24 90.29 16.65 88.37 16.06 C86 15.34 83.65 14.59 81.3 13.82 C33.46 -1.19 -21.07 3.34 -68.52 17.11 Z " fill="#E34647" transform="translate(187.3359375,63.76171875)"/>
<path d="M0 0 C0.03 2.31 0.05 4.62 0.06 6.94 C0.07 8.23 0.09 9.51 0.1 10.84 C0.07 14.91 -0.19 18.94 -0.47 23 C-1.35 36.59 -1.35 50.22 -1.53 63.84 C-1.58 67.58 -1.64 71.33 -1.69 75.08 C-1.8 82.39 -1.9 89.69 -2 97 C-3.32 97 -4.64 97 -6 97 C-8.83 78.83 -10.32 60.94 -10.21 42.55 C-10.19 39.54 -10.19 36.53 -10.19 33.52 C-10.14 6.27 -10.14 6.27 -8 2 C-2.78 0 -2.78 0 0 0 Z " fill="#F4F3F3" transform="translate(116,91)"/>
<path d="M0 0 C0.66 0 1.32 0 2 0 C3.69 9.94 4.36 19.54 4.31 29.62 C4.31 30.33 4.31 31.04 4.31 31.77 C4.26 46.31 2.95 60.59 1 75 C0.89 75.88 0.78 76.76 0.66 77.66 C-6.43 132.99 -6.43 132.99 -16 147 C-16.99 147 -17.98 147 -19 147 C-18.46 141.88 -17.25 137.24 -15.73 132.33 C-2.27 88.87 -0.33 45.17 0 0 Z " fill="#F8F8F8" transform="translate(288,104)"/>
<path d="M0 0 C0.33 0 0.66 0 1 0 C1.99 9.94 2.32 19.87 2.56 29.84 C2.59 31.13 2.59 31.13 2.62 32.44 C3.13 53.47 3.12 74.5 3.07 95.54 C3.06 100.58 3.05 105.63 3.05 110.67 C3.04 120.45 3.02 130.22 3 140 C2.34 140 1.68 140 1 140 C0.24 133.68 -0.27 127.4 -0.55 121.05 C-0.6 120.1 -0.64 119.15 -0.68 118.17 C-1.15 106.54 -1.14 94.9 -1.13 83.26 C-1.13 80.87 -1.13 78.49 -1.14 76.1 C-1.14 71.15 -1.14 66.2 -1.13 61.25 C-1.12 54.9 -1.13 48.54 -1.13 42.19 C-1.14 37.28 -1.14 32.38 -1.13 27.47 C-1.13 25.13 -1.13 22.78 -1.14 20.43 C-1.14 17.18 -1.13 13.93 -1.13 10.68 C-1.13 9.71 -1.13 8.74 -1.14 7.73 C-1.13 6.86 -1.13 5.98 -1.13 5.07 C-1.13 4.31 -1.13 3.54 -1.13 2.75 C-1 1 -1 1 0 0 Z " fill="#F3F2F2" transform="translate(192,175)"/>
<path d="M0 0 C0.33 0 0.66 0 1 0 C1.96 18.12 2.15 36.21 2.13 54.35 C2.13 58.21 2.13 62.06 2.14 65.91 C2.14 72.38 2.14 78.85 2.13 85.31 C2.12 92.7 2.13 100.09 2.13 107.48 C2.14 113.91 2.14 120.35 2.13 126.78 C2.13 130.58 2.13 134.38 2.14 138.18 C2.15 157.48 1.81 176.72 1 196 C0.34 196 -0.32 196 -1 196 C-1.03 172.01 -0.96 148.03 -0.8 124.04 C-0.77 119.65 -0.74 115.27 -0.71 110.88 C-0.66 102.63 -0.61 94.39 -0.55 86.15 C-0.49 76.73 -0.43 67.32 -0.37 57.91 C-0.25 38.6 -0.13 19.3 0 0 Z " fill="#F3F3F3" transform="translate(204,127)"/>
<path d="M0 0 C0.33 0 0.66 0 1 0 C1.19 43.6 1.19 43.6 0.56 58.88 C0.52 59.84 0.48 60.81 0.44 61.81 C0.28 65.24 0.08 68.54 -0.5 71.92 C-1.28 76.71 -1.33 81.53 -1.5 86.38 C-1.73 92.98 -2.06 99.46 -3 106 C-3.66 106 -4.32 106 -5 106 C-5.24 84.69 -5.02 63.42 -4.12 42.12 C-4.09 41.14 -4.05 40.16 -4.01 39.15 C-2.75 8.24 -2.75 8.24 0 0 Z " fill="#F6F6F6" transform="translate(236,181)"/>
<path d="M0 0 C1.32 0 2.64 0 4 0 C4.47 23.84 3.2 47.27 1 71 C0.34 71 -0.32 71 -1 71 C-1.73 55.55 -2.12 40.1 -2.18 24.63 C-2.18 22.88 -2.19 21.13 -2.21 19.38 C-2.23 16.9 -2.23 14.42 -2.23 11.94 C-2.24 11.19 -2.24 10.45 -2.25 9.68 C-2.24 5.96 -2.07 3.16 0 0 Z " fill="#F8F7F7" transform="translate(192,81)"/>
<path d="M0 0 C2.35 0.6 4.69 1.27 7 2 C7.33 2.66 7.66 3.32 8 4 C7.01 4 6.02 4 5 4 C10.88 27.33 17.78 50.06 26.17 72.62 C26.91 74.73 27.5 76.82 28 79 C23.91 75.51 21.98 71.47 19.75 66.69 C19.36 65.85 18.97 65.02 18.57 64.15 C10.07 45.44 0 20.88 0 0 Z " fill="#F0F0F0" transform="translate(111,196)"/>
<path d="M0 0 C1.32 0 2.64 0 4 0 C5.22 19.66 5.1 39.31 5 59 C3.35 58.34 1.7 57.68 0 57 C0 38.19 0 19.38 0 0 Z " fill="#F6F6F6" transform="translate(161,80)"/>
<path d="M0 0 C0.66 0 1.32 0 2 0 C3.53 5.45 4.3 10.4 4.27 16.08 C4.27 16.81 4.27 17.55 4.27 18.3 C4.27 19.84 4.27 21.37 4.26 22.91 C4.25 25.26 4.26 27.61 4.27 29.95 C4.27 31.45 4.27 32.95 4.27 34.45 C4.27 35.15 4.27 35.85 4.28 36.57 C4.24 40.21 3.99 42.9 2 46 C1.34 46 0.68 46 0 46 C-1.25 42.24 -1.14 38.74 -1.13 34.82 C-1.13 34.02 -1.13 33.22 -1.14 32.39 C-1.14 30.69 -1.13 28.99 -1.13 27.3 C-1.13 24.71 -1.13 22.12 -1.14 19.53 C-1.14 17.88 -1.13 16.23 -1.13 14.57 C-1.14 13.42 -1.14 13.42 -1.14 12.24 C-1.12 8.05 -0.82 4.13 0 0 Z " fill="#F6F6F5" transform="translate(149,91)"/>
<path d="M0 0 C0.66 0 1.32 0 2 0 C3.26 23.35 4.39 46.61 4 70 C1.3 67.3 1.29 64.68 0.88 61.04 C0.76 59.93 0.76 59.93 0.63 58.8 C-0.52 47.38 -0.21 35.89 -0.12 24.44 C-0.11 22.06 -0.11 19.68 -0.1 17.3 C-0.08 11.53 -0.04 5.77 0 0 Z " fill="#F6F5F5" transform="translate(151,193)"/>
<path d="M0 0 C0.33 0 0.66 0 1 0 C1.79 56.05 1.79 56.05 -0.88 78.38 C-0.96 79.12 -1.05 79.87 -1.14 80.64 C-2.54 92.31 -2.54 92.31 -5 96 C-7.31 87.73 -5.66 78.98 -4.56 70.62 C-4.36 69.01 -4.36 69.01 -4.15 67.36 C-3.14 59.41 -3.14 59.41 -2 56 C-1.34 56 -0.68 56 0 56 C0 37.52 0 19.04 0 0 Z " fill="#B1B0AF" transform="translate(293,103)"/>
<path d="M0 0 C0.33 0 0.66 0 1 0 C1.14 8.93 0.68 17.8 0.2 26.72 C0.06 29.32 -0.07 31.93 -0.2 34.54 C-0.29 36.21 -0.38 37.88 -0.46 39.55 C-0.5 40.32 -0.54 41.1 -0.58 41.9 C-0.79 45.68 -1.13 49.31 -2 53 C-2.33 53 -2.66 53 -3 53 C-3.08 46.09 -3.13 39.19 -3.16 32.28 C-3.18 29.94 -3.2 27.59 -3.23 25.24 C-3.26 21.86 -3.28 18.49 -3.29 15.11 C-3.31 14.06 -3.32 13.01 -3.34 11.92 C-3.34 10.94 -3.34 9.96 -3.34 8.95 C-3.35 8.09 -3.35 7.23 -3.36 6.34 C-2.92 3.5 -1.92 2.11 0 0 Z " fill="#E9E9E9" transform="translate(249,174)"/>
<path d="M0 0 C2.34 3.51 2.68 6.48 3.12 10.56 C3.21 11.3 3.29 12.04 3.38 12.8 C4.26 21.2 4.18 29.57 4 38 C3.01 38 2.02 38 1 38 C-0.23 34.3 -0.12 30.9 -0.1 27.05 C-0.1 26.28 -0.09 25.51 -0.09 24.71 C-0.09 22.24 -0.08 19.78 -0.06 17.31 C-0.06 15.64 -0.05 13.97 -0.05 12.29 C-0.04 8.2 -0.02 4.1 0 0 Z " fill="#F7F7F7" transform="translate(269,89)"/>
<path d="M0 0 C0.33 0 0.66 0 1 0 C3.4 10.67 2.4 21.43 -3 31 C-3.33 31 -3.66 31 -4 31 C-4.31 20.51 -4.27 9.76 0 0 Z " fill="#F8F8F8" transform="translate(239,106)"/>
<path d="M0 0 C0.33 0 0.66 0 1 0 C1.03 3.93 1.04 7.86 1.05 11.79 C1.06 13.77 1.08 15.75 1.09 17.72 C1.11 25.21 0.86 32.56 0 40 C-2 38 -2 38 -2.24 35.91 C-2.24 35.06 -2.23 34.22 -2.23 33.35 C-2.23 32.43 -2.23 31.51 -2.22 30.55 C-2.21 29.59 -2.2 28.62 -2.19 27.62 C-2.19 26.67 -2.19 25.71 -2.19 24.72 C-2.16 20.62 -2.07 16.97 -1 13 C-0.78 10.75 -0.6 8.5 -0.44 6.25 C-0.35 5.08 -0.27 3.91 -0.18 2.7 C-0.12 1.81 -0.06 0.92 0 0 Z " fill="#EBEBEB" transform="translate(245,229)"/>
<path d="M0 0 C0.99 0 1.98 0 3 0 C3.34 8.16 2.3 15.95 1 24 C0.67 24 0.34 24 0 24 C0 16.08 0 8.16 0 0 Z " fill="#E4E4E4" transform="translate(278,88)"/>
<path d="M0 0 C0.33 0 0.66 0 1 0 C1.85 4.45 2.19 8.72 2.25 13.25 C2.28 14.47 2.3 15.69 2.33 16.95 C2.22 17.96 2.11 18.96 2 20 C0.51 20.99 0.51 20.99 -1 22 C-1.1 14.57 -1 7.36 0 0 Z " fill="#212121" transform="translate(243,110)"/>
<path d="M0 0 C0.66 0.33 1.32 0.66 2 1 C-1.86 5.49 -5.75 9.88 -10 14 C-10.99 13.67 -11.98 13.34 -13 13 C-8.71 8.71 -4.42 4.42 0 0 Z " fill="#A5A5A3" transform="translate(176,159)"/>
<path d="M0 0 C0.33 0 0.66 0 1 0 C1.71 7.36 2.15 14.61 2 22 C-1.84 14.89 -1.03 7.74 0 0 Z " fill="#414141" transform="translate(141,229)"/>
<path d="M0 0 C-1.56 0.65 -3.12 1.3 -4.69 1.94 C-5.56 2.3 -6.43 2.66 -7.32 3.03 C-9.89 3.96 -12.31 4.53 -15 5 C-15.93 5.19 -16.86 5.37 -17.81 5.56 C-18.53 5.71 -19.26 5.85 -20 6 C-18.6 3.19 -16.62 2.97 -13.78 2 C-12.74 1.66 -12.74 1.66 -11.69 1.31 C-10.67 0.96 -10.67 0.96 -9.63 0.59 C-3.46 -1.47 -3.46 -1.47 0 0 Z " fill="#9E9D9C" transform="translate(129,87)"/>
<path d="M0 0 C4.31 8.01 4.31 8.01 3.62 12.38 C3.42 12.91 3.21 13.45 3 14 C2.34 12.02 1.68 10.04 1 8 C0.01 8 -0.98 8 -2 8 C-1.33 5.33 -0.67 2.67 0 0 Z " fill="#C03F3F" transform="translate(108,217)"/>
<path d="M0 0 C0.66 0.33 1.32 0.66 2 1 C2.25 8.62 2.25 8.62 0 12 C-0.2 10.56 -0.38 9.13 -0.56 7.69 C-0.67 6.89 -0.77 6.09 -0.88 5.26 C-1 3 -1 3 0 0 Z " fill="#AEADAC" transform="translate(288,187)"/>
<path d="M0 0 C0.33 0 0.66 0 1 0 C1 3.3 1 6.6 1 10 C-2 7 -2 7 -2.31 4.44 C-2 2 -2 2 0 0 Z " fill="#E4E4E4" transform="translate(249,174)"/>
<path d="M0 0 C2.36 2.36 2.49 3.78 3 7 C1.68 7 0.36 7 -1 7 C-1.33 5.68 -1.66 4.36 -2 3 C-1.34 3 -0.68 3 0 3 C0 2.01 0 1.02 0 0 Z " fill="#CA4041" transform="translate(117,247)"/>
</svg>
