<?xml version="1.0" encoding="UTF-8"?>
<!-- Generator: https://ezgif.com/png-to-svg -->
<svg version="1.1" xmlns="http://www.w3.org/2000/svg" width="747" height="775">
<path d="M0 0 C3.93 1.31 4.55 2.93 6.81 6.38 C10.72 12.19 14.78 17.87 18.94 23.5 C19.54 24.32 20.15 25.14 20.77 25.99 C24.91 31.57 29.13 37.08 33.38 42.57 C37.23 47.58 40.95 52.69 44.69 57.78 C48.43 62.88 52.2 67.95 56 73 C61.05 79.7 66.03 86.45 71 93.21 C74.84 98.43 78.7 103.62 82.6 108.79 C85.74 112.98 88.83 117.21 91.94 121.44 C96.03 127 100.14 132.54 104.38 138 C107.9 142.55 111.32 147.15 114.69 151.81 C123.59 164.09 132.65 176.26 141.78 188.38 C143.19 190.25 144.59 192.13 146 194 C144.54 185.69 142.29 177.66 139.94 169.56 C139.51 168.08 139.08 166.59 138.65 165.1 C137.67 161.71 136.69 158.31 135.71 154.91 C133.77 148.21 131.84 141.51 129.91 134.81 C129.55 133.56 129.19 132.32 128.82 131.04 C127.16 125.26 125.5 119.48 123.83 113.71 C122.92 110.54 122.01 107.38 121.1 104.21 C120.74 102.98 120.39 101.76 120.03 100.49 C118.18 94.07 116.32 87.65 114.45 81.24 C113.49 77.94 112.54 74.64 111.58 71.35 C111.16 69.88 110.73 68.42 110.3 66.96 C109.72 65 109.16 63.03 108.59 61.07 C108.28 60.01 107.97 58.94 107.65 57.84 C107.03 55.12 106.87 52.78 107 50 C110.15 51.35 111.75 52.63 113.66 55.46 C114.14 56.15 114.62 56.84 115.11 57.56 C115.61 58.3 116.11 59.05 116.62 59.81 C117.7 61.37 118.77 62.93 119.85 64.48 C120.65 65.64 120.65 65.64 121.47 66.82 C124.33 70.89 127.4 74.79 130.45 78.71 C138.36 88.87 145.95 99.28 153.58 109.65 C157.85 115.46 162.17 121.24 166.5 127 C171.37 133.47 176.2 139.97 181 146.5 C188.79 157.1 196.69 167.62 204.6 178.13 C214.04 190.68 223.36 203.31 232.65 215.97 C238.47 223.9 244.34 231.78 250.37 239.56 C254.91 245.46 259.28 251.49 263.68 257.49 C268.19 263.62 272.75 269.7 277.33 275.77 C283.18 283.51 288.96 291.3 294.62 299.19 C299.29 305.69 304.06 312.08 308.98 318.4 C309.64 319.26 310.31 320.12 311 321 C311.61 321.65 312.21 322.3 312.84 322.98 C314.52 325.91 313.7 327.74 313 331 C312.43 332.86 311.81 334.71 311.16 336.54 C310.78 337.6 310.4 338.67 310.02 339.76 C309.61 340.89 309.2 342.02 308.78 343.19 C308.36 344.36 307.95 345.54 307.51 346.75 C305.96 351.14 304.39 355.52 302.82 359.91 C301.28 364.21 299.75 368.51 298.22 372.81 C297.81 373.94 297.4 375.08 296.98 376.24 C296.61 377.3 296.23 378.36 295.84 379.46 C295.51 380.38 295.18 381.31 294.83 382.27 C293.94 385.2 293.3 387.94 293 391 C294.34 393.47 295.6 395.39 297.31 397.56 C297.77 398.17 298.22 398.77 298.69 399.4 C300.11 401.28 301.55 403.14 303 405 C303.87 406.14 304.74 407.28 305.61 408.41 C307.59 411 309.59 413.57 311.61 416.13 C312.69 417.58 313.68 419.08 314.65 420.61 C319.76 428.41 325.01 431.9 333.44 435.69 C334.58 436.23 335.72 436.77 336.9 437.33 C340.25 438.91 343.62 440.46 347 442 C349.6 443.21 352.2 444.43 354.79 445.65 C356.22 446.32 357.66 446.99 359.1 447.64 C361.81 448.88 363.87 449.87 366 452 C366.4 459.71 363.67 467.4 361.46 474.68 C360.93 476.49 360.93 476.49 360.38 478.34 C359.43 481.54 358.48 484.74 357.52 487.94 C356.2 492.35 354.89 496.76 353.58 501.17 C352.84 503.67 352.09 506.18 351.34 508.68 C349.42 515.09 347.57 521.52 345.83 527.99 C345.48 529.28 345.13 530.58 344.77 531.88 C344.11 534.32 343.46 536.77 342.83 539.23 C342.53 540.32 342.23 541.42 341.92 542.54 C341.55 543.98 341.55 543.98 341.16 545.45 C338.96 550.29 334.18 552.62 329.76 555.28 C328.28 556.17 328.28 556.17 326.78 557.08 C325.76 557.7 324.74 558.31 323.69 558.94 C321.67 560.15 319.65 561.37 317.64 562.59 C316.68 563.17 315.72 563.74 314.73 564.34 C312.26 565.84 309.83 567.38 307.39 568.94 C304 571 304 571 302 571 C301.83 571.53 301.66 572.05 301.48 572.6 C299.5 578.65 297.32 584.61 295.06 590.56 C294.73 591.46 294.39 592.35 294.05 593.27 C288.33 608.34 288.33 608.34 285 610 C278.57 608.12 272.19 605.47 268.61 599.57 C266.86 596.19 265.39 592.7 263.93 589.19 C256.96 572.84 246.9 557.55 234.55 544.79 C233 543 233 543 233 541 C232.01 540.67 231.02 540.34 230 540 C228.56 538.47 228.56 538.47 227 536.5 C222.56 531.28 217.4 527.2 212 523 C211.08 522.27 210.17 521.54 209.22 520.78 C173.05 492.6 124.62 477.74 78.87 482.8 C77.84 482.91 77.84 482.91 76.78 483.03 C73.94 483.34 71.1 483.67 68.26 484.02 C66.15 484.28 64.04 484.51 61.93 484.73 C60.7 484.88 59.46 485.03 58.19 485.18 C55 485 55 485 52.66 483.13 C51.84 482.07 51.84 482.07 51 481 C50.5 480.42 50 479.85 49.48 479.25 C49.05 478.7 48.63 478.14 48.19 477.56 C47.75 477.01 47.31 476.45 46.86 475.88 C46 474 46 474 45.87 471.64 C47.67 467.43 51.14 465.65 54.88 463.19 C56.42 462.13 57.97 461.08 59.52 460.03 C60.28 459.52 61.04 459 61.83 458.48 C64.79 456.46 67.68 454.37 70.56 452.25 C71.43 451.62 72.3 450.98 73.19 450.33 C73.79 449.89 74.39 449.45 75 449 C69.37 443.37 47.75 445.17 40 445 C36.29 445.05 32.59 445.16 28.88 445.36 C25.14 444.89 23.67 443.62 21 441 C19.2 438.64 19.2 438.64 17.69 436.25 C17.18 435.45 16.66 434.65 16.14 433.83 C15.57 432.92 15.57 432.92 15 432 C16.53 427.75 19.3 426.21 23 423.81 C34.21 416.33 43.84 409.12 46.81 395.56 C47.22 393.38 47.63 391.19 48 389 C35.11 389.41 25.33 392.2 15 400 C14.18 400.61 13.36 401.22 12.52 401.86 C0.32 412.25 -6.17 428.86 -10 444 C-10.34 445.32 -10.34 445.32 -10.68 446.67 C-16.73 475.58 -8.81 504.19 6 529 C8.2 532.13 10.53 535.08 13 538 C13.58 537.78 14.16 537.57 14.76 537.34 C17.4 536.36 20.04 535.4 22.69 534.44 C23.6 534.1 24.51 533.75 25.45 533.4 C26.34 533.08 27.22 532.76 28.14 532.43 C29.35 531.99 29.35 531.99 30.6 531.53 C34.09 530.76 36.69 531.18 39.73 533.09 C40.24 533.53 40.74 533.98 41.27 534.44 C41.84 534.94 42.42 535.44 43.01 535.95 C43.61 536.48 44.2 537.01 44.81 537.56 C45.43 538.11 46.05 538.65 46.69 539.21 C50.68 542.73 54.51 546.38 58.21 550.21 C60.08 552.08 62.04 553.79 64.06 555.5 C72.13 562.49 78.51 571.22 85.21 579.49 C85.7 580.09 86.19 580.7 86.69 581.32 C87.86 582.83 88.94 584.41 90 586 C95.89 585.33 99.91 581.84 104.65 578.52 C108.09 576.96 109.49 576.74 113 578.06 C117.39 580.13 121.61 582.46 125.81 584.88 C126.82 585.45 127.84 586.03 128.88 586.63 C142.96 594.76 156.36 603.77 169 614 C170.02 614.82 171.05 615.64 172.1 616.48 C188.66 630.03 204.41 645.7 217 663 C217.86 664.11 218.72 665.21 219.59 666.31 C223.77 671.62 227.82 677.02 231.69 682.56 C232.35 683.51 233.02 684.46 233.7 685.44 C235 688 235 688 234.92 690.11 C231.13 697.91 221.63 703.76 215 709 C213.52 710.19 213.52 710.19 212 711.41 C205.87 716.24 199.58 720.76 193.06 725.06 C192.35 725.54 191.64 726.02 190.91 726.51 C186.94 729.08 183.83 730.63 179 731 C178.28 729.91 177.57 728.82 176.83 727.7 C164.43 708.88 151.59 690.07 136.27 673.48 C134.42 671.46 132.64 669.42 130.87 667.35 C126.43 662.26 121.66 657.51 116.88 652.75 C115.55 651.42 115.55 651.42 114.21 650.07 C113.35 649.22 112.5 648.36 111.62 647.48 C110.85 646.72 110.08 645.95 109.29 645.16 C108.54 644.45 107.78 643.74 107 643 C106.27 642.23 105.53 641.45 104.77 640.66 C99.48 637.49 93.72 639.77 88.03 641.18 C86.23 641.67 84.44 642.16 82.64 642.66 C81.67 642.93 80.69 643.19 79.69 643.47 C76.54 644.32 73.39 645.19 70.25 646.06 C68.08 646.66 65.91 647.25 63.73 647.85 C58.44 649.3 53.14 650.75 47.84 652.22 C45.28 652.92 42.72 653.63 40.16 654.33 C36.25 655.41 32.35 656.48 28.44 657.56 C27.3 657.88 26.16 658.19 24.99 658.51 C20.34 659.8 15.7 661.08 11.06 662.41 C9.69 662.79 8.31 663.18 6.94 663.56 C5.31 664.03 5.31 664.03 3.65 664.5 C0.88 665.02 -0.45 665.17 -3 664 C-4.96 662.07 -4.96 662.07 -6.81 659.69 C-7.44 658.91 -8.06 658.13 -8.71 657.32 C-10 655 -10 655 -9.78 653.01 C-8.83 650.56 -7.96 649.93 -5.75 648.55 C-4.72 647.91 -4.72 647.91 -3.68 647.25 C-2.94 646.79 -2.2 646.34 -1.44 645.88 C-0.67 645.39 0.09 644.91 0.88 644.42 C3.25 642.94 5.62 641.47 8 640 C9.38 639.14 10.75 638.27 12.12 637.41 C15.39 635.36 18.67 633.31 21.95 631.28 C25.63 628.98 29.32 626.68 33 624.38 C34.35 623.53 35.71 622.68 37.06 621.84 C38.03 621.23 39 620.62 40 620 C34.03 607.47 27.13 596.48 18 586 C17.57 585.46 17.14 584.92 16.7 584.37 C14.33 582.46 12.8 582.68 9.78 582.77 C8.71 582.8 7.63 582.83 6.52 582.85 C5.36 582.9 4.2 582.95 3 583 C1.81 583.04 0.63 583.08 -0.59 583.13 C-3.85 583.26 -7.11 583.4 -10.37 583.56 C-12.53 583.66 -14.7 583.76 -16.86 583.86 C-21.45 584.07 -26.04 584.28 -30.62 584.5 C-35.96 584.75 -41.29 585 -46.62 585.24 C-48.73 585.34 -50.85 585.44 -52.96 585.54 C-59.98 585.87 -66.97 586.1 -74 586 C-76.77 580.93 -78.52 576.79 -79 571 C-71.74 568.02 -64.41 565.32 -57 562.75 C-55.45 562.2 -55.45 562.2 -53.86 561.65 C-52.38 561.13 -52.38 561.13 -50.88 560.61 C-49.99 560.3 -49.1 559.99 -48.18 559.67 C-46 559 -46 559 -44 559 C-44.41 558.18 -44.82 557.37 -45.25 556.53 C-64.09 517.87 -70.76 475.23 -56.88 433.88 C-53.52 424.41 -48.95 415.62 -44.03 406.88 C-42.97 404.94 -41.98 402.98 -41 401 C-75.12 421.03 -96.48 454.44 -107 492 C-119.85 541.47 -111.96 595.75 -86.28 639.9 C-73.28 661.21 -56.53 680.49 -37 696 C-36.02 696.8 -35.04 697.59 -34.04 698.41 C-25.19 705.45 -15.8 711.37 -6 717 C-5.26 717.43 -4.51 717.86 -3.74 718.3 C8.87 725.44 22.02 730.86 35.55 736.01 C41.76 738.51 41.76 738.51 43 741 C43.1 743.53 43.14 746.03 43.12 748.56 C43.13 749.26 43.13 749.96 43.14 750.68 C43.13 755.87 43.13 755.87 42 757 C-7.2 760.55 -65.32 740.02 -104 710 C-105.79 708.73 -107.58 707.46 -109.38 706.19 C-115.33 701.86 -120.92 697.14 -126.48 692.32 C-127.92 691.07 -129.37 689.83 -130.82 688.59 C-131.65 687.88 -132.47 687.17 -133.31 686.44 C-134.03 685.82 -134.75 685.2 -135.49 684.56 C-137 683 -137 683 -137 681 C-137.6 680.74 -138.19 680.48 -138.81 680.21 C-141.14 678.92 -142.36 677.72 -144.06 675.69 C-144.67 674.97 -145.27 674.25 -145.9 673.51 C-146.59 672.68 -147.29 671.85 -148 671 C-148.82 670.07 -149.63 669.14 -150.48 668.18 C-185.6 628.02 -204.8 578.43 -212 526 C-223.77 536.09 -233.25 546.88 -240 561 C-240.43 561.89 -240.86 562.77 -241.3 563.68 C-246.68 575.67 -249.9 588.93 -251.54 601.95 C-251.69 602.62 -251.84 603.3 -252 604 C-254.96 605.48 -257.74 605.06 -261 605 C-290.05 549.74 -290.05 480.14 -271.93 421.64 C-261 387.93 -243.96 357.89 -221 331 C-220.23 330.1 -219.47 329.2 -218.68 328.28 C-216.5 325.8 -214.27 323.39 -212 321 C-211.5 320.47 -211 319.94 -210.48 319.4 C-202.72 311.28 -194.66 304.01 -185.68 297.27 C-184.07 296.05 -182.5 294.79 -180.93 293.52 C-163.7 279.67 -143.94 270.25 -124 261 C-150.69 255.26 -177.58 260.1 -203 269 C-205.56 266.75 -205.56 266.75 -208 264 C-208.1 261.07 -207 260 -205.18 257.7 C-204.42 256.89 -203.66 256.08 -202.88 255.25 C-200.07 252.24 -197.32 249.22 -194.69 246.06 C-178.81 227.88 -157.95 212.78 -137 201 C-136.34 200.63 -135.68 200.25 -134.99 199.87 C-110.12 185.96 -83.01 176.21 -55 171 C-54.15 170.84 -53.31 170.67 -52.43 170.5 C-21.69 164.83 12.73 165.91 43.29 172.05 C44.18 172.23 45.06 172.41 45.98 172.59 C46.64 172.73 47.31 172.86 48 173 C46.14 166.32 44.27 159.64 42.4 152.96 C41.77 150.7 41.14 148.43 40.51 146.17 C36.4 131.44 32.2 116.73 27.89 102.06 C26.33 96.73 24.79 91.4 23.24 86.07 C22.59 83.85 21.95 81.63 21.3 79.41 C19.94 74.73 18.58 70.05 17.23 65.38 C13.94 54.05 10.63 42.72 7.26 31.42 C6.42 28.59 5.58 25.76 4.73 22.92 C3.95 20.3 3.16 17.67 2.37 15.05 C1.9 13.48 1.43 11.9 0.96 10.33 C0.75 9.62 0.53 8.91 0.31 8.19 C-1.11 3.34 -1.11 3.34 0 0 Z M147 195 C148 197 148 197 148 197 Z M194 308 C188.17 319.67 187.26 345.84 191.44 358.44 C199.57 375.1 220.71 381.42 236.43 388.6 C245.06 392.54 253.57 396.67 262 401 C262 396.66 259.44 394.29 256.88 391 C255.77 389.55 254.66 388.1 253.55 386.65 C252.97 385.89 252.38 385.13 251.78 384.35 C248.83 380.46 245.95 376.51 243.06 372.56 C238 365.66 232.84 358.85 227.62 352.07 C223.83 347.14 220.19 342.12 216.6 337.03 C213.39 332.5 210.04 328.09 206.63 323.71 C203.13 319.21 199.8 314.6 196.5 309.95 C196 309.31 195.51 308.66 195 308 C194.67 308 194.34 308 194 308 Z " fill="#FEFEFE" transform="translate(333,8)"/>
</svg>
