<?xml version="1.0" encoding="UTF-8"?>
<!-- Generator: https://ezgif.com/png-to-svg -->
<svg version="1.1" xmlns="http://www.w3.org/2000/svg" width="512" height="512" viewBox="-2.694 -3.019 56.347 56.347" preserveAspectRatio="xMidYMid meet">
<path d="M0 0 C2.27 0.76 4.54 1.53 6.81 2.31 C7.46 2.53 8.1 2.74 8.76 2.96 C12.16 4.14 14.74 5.13 17 8 C17.66 7.01 18.32 6.02 19 5 C19.66 5 20.32 5 21 5 C21.12 7.37 21.12 7.37 21 10 C20.34 10.66 19.68 11.32 19 12 C19.6 12.09 20.21 12.17 20.83 12.26 C27.4 13.42 27.4 13.42 30.5 16.44 C34.15 22.67 33.66 29.23 31.94 36.06 C30.17 41.39 27.35 45.45 23 49 C19.9 50.03 18.19 50.31 15.06 49.5 C12.8 48.78 12.8 48.78 9.75 49.88 C5.56 50.01 4.93 49.66 1.81 47.12 C-4.08 41.43 -6.8 34.15 -7.19 26.06 C-7.12 21.85 -6.26 18.79 -3.81 15.31 C-1.11 13.36 1.8 12.79 5 12 C4.36 11.32 3.72 10.64 3.06 9.94 C0.66 6.52 0.46 4.09 0 0 Z " fill="#45BD3B" transform="translate(12,0)"/>
</svg>
