<?xml version="1.0" encoding="UTF-8"?>
<!-- Generator: https://ezgif.com/webp-to-svg -->
<svg version="1.1" xmlns="http://www.w3.org/2000/svg" width="50" height="50">
<path d="M0 0 C2.5 1.25 2.5 1.25 5 3 C6.34 3.78 7.69 4.52 9.06 5.25 C10.04 5.78 10.04 5.78 11.04 6.33 C13.43 7.15 14.61 6.69 17 6 C17.66 6.33 18.32 6.66 19 7 C19 8.32 19 9.64 19 11 C17.35 11.66 15.7 12.32 14 13 C14 15.97 14 18.94 14 22 C16.31 22 18.62 22 21 22 C20.25 26.75 20.25 26.75 18 29 C16.68 29 15.36 29 14 29 C13.14 30.78 13.14 30.78 13 33 C13.66 33.66 14.32 34.32 15 35 C15.66 35.66 16.32 36.32 17 37 C16.92 39.58 16.19 40.73 14.69 42.81 C13 44 13 44 10.94 44 C8.22 42.6 8.01 40.79 7 38 C6.41 38.44 5.82 38.89 5.21 39.35 C4.42 39.91 3.63 40.48 2.81 41.06 C2.04 41.63 1.26 42.2 0.46 42.79 C-2.59 44.29 -3.82 44.06 -7 43 C-9.45 41.82 -11.67 40.42 -14 39 C-15.98 41.47 -15.98 41.47 -18 44 C-21.23 43.44 -22.98 42.63 -25 40 C-25 39.01 -25 38.02 -25 37 C-24.15 36.2 -23.31 35.39 -22.44 34.56 C-21.23 33.29 -21.23 33.29 -20 32 C-20.04 29.72 -20.04 29.72 -21 28 C-23.64 28 -26.28 28 -29 28 C-29 25.69 -29 23.38 -29 21 C-26.69 21.33 -24.38 21.66 -22 22 C-21.65 17.97 -21.65 17.97 -22 14 C-24.35 11.92 -24.35 11.92 -27 11 C-26.67 9.68 -26.34 8.36 -26 7 C-24.35 6.67 -22.7 6.34 -21 6 C-20.67 6.66 -20.34 7.32 -20 8 C-19.4 7.5 -18.8 7.01 -18.19 6.5 C-16 5 -16 5 -13 5 C-12.67 4.01 -12.34 3.02 -12 2 C-8.48 -0.67 -4.23 -0.55 0 0 Z " fill="#746B68" transform="translate(29,3)"/>
<path d="M0 0 C2.5 1.25 2.5 1.25 5 3 C6.39 3.73 7.78 4.43 9.19 5.12 C9.86 5.46 10.54 5.79 11.23 6.13 C12.11 6.56 12.11 6.56 13 7 C13.66 7.33 14.32 7.66 15 8 C14.67 8.99 14.34 9.98 14 11 C10.64 10.4 8.62 9.15 6 7 C6.99 8.48 6.99 8.48 8 10 C8 10.99 8 11.98 8 13 C5.73 14.89 5.73 14.89 2.75 16.81 C1.78 17.46 0.8 18.1 -0.2 18.77 C-3 20 -3 20 -5.03 19.39 C-5.68 18.93 -6.33 18.47 -7 18 C-7.85 17.5 -8.7 17 -9.58 16.49 C-10.46 15.96 -11.34 15.42 -12.25 14.88 C-13.14 14.34 -14.03 13.8 -14.95 13.24 C-15.63 12.83 -16.3 12.42 -17 12 C-16.01 10.35 -15.02 8.7 -14 7 C-17.12 8.31 -17.12 8.31 -19 11 C-19.66 10.67 -20.32 10.34 -21 10 C-18.69 7.5 -18.69 7.5 -16 5 C-15.01 5 -14.02 5 -13 5 C-12.67 4.01 -12.34 3.02 -12 2 C-8.48 -0.67 -4.23 -0.55 0 0 Z " fill="#0C0C0C" transform="translate(29,3)"/>
<path d="M0 0 C0 2.64 0 5.28 0 8 C2.31 8 4.62 8 7 8 C6.67 9.32 6.34 10.64 6 12 C2.37 12.33 -1.26 12.66 -5 13 C-5 13.99 -5 14.98 -5 16 C-4.44 16.23 -3.89 16.45 -3.31 16.69 C-0.34 18.38 1.72 20.47 4 23 C4 23.66 4 24.32 4 25 C2.68 25.33 1.36 25.66 0 26 C-2.39 23.04 -4.74 20.06 -7 17 C-7.99 17.33 -8.98 17.66 -10 18 C-9.01 18 -8.02 18 -7 18 C-7 19.32 -7 20.64 -7 22 C-9.32 24.29 -11.99 25.77 -15 27 C-19.11 26.33 -21.96 23.78 -25 21 C-25 20.34 -25 19.68 -25 19 C-24.46 19.31 -23.93 19.62 -23.38 19.94 C-20.6 21.18 -18 21.59 -15 22 C-14.01 18.53 -14.01 18.53 -13 15 C-13.66 14.67 -14.32 14.34 -15 14 C-15 13.34 -15 12.68 -15 12 C-15.66 12 -16.32 12 -17 12 C-17 10.68 -17 9.36 -17 8 C-13.7 8.33 -10.4 8.66 -7 9 C-7 8.34 -7 7.68 -7 7 C-5.68 7.33 -4.36 7.66 -3 8 C-3 5.69 -3 3.38 -3 1 C-1 0 -1 0 0 0 Z " fill="#877C79" transform="translate(41,18)"/>
<path d="M0 0 C0.99 0.5 0.99 0.5 2 1 C1.67 2.65 1.34 4.3 1 6 C1.63 5.97 2.25 5.93 2.9 5.89 C3.72 5.87 4.53 5.84 5.38 5.81 C6.19 5.78 7 5.74 7.84 5.71 C8.55 5.8 9.26 5.9 10 6 C12 9 12 9 11.88 10.94 C10.76 13.57 9.04 15.03 7 17 C7 17.66 7 18.32 7 19 C8.32 19 9.64 19 11 19 C11.29 18.24 11.58 17.47 11.88 16.69 C13 14 13 14 15 11 C14.69 8.85 14.69 8.85 14 7 C16.31 7.33 18.62 7.66 21 8 C21 10.64 21 13.28 21 16 C18.52 14.52 18.52 14.52 16 13 C20.25 17.76 20.25 17.76 26 20 C29.2 18.2 29.2 18.2 32 16 C32.66 16 33.32 16 34 16 C34 14.68 34 13.36 34 12 C33.01 12.33 32.02 12.66 31 13 C31 12.01 31 11.02 31 10 C33.69 10.37 34.76 10.72 36.56 12.81 C37.52 14.27 38.48 15.73 39.44 17.19 C41.24 19.28 42.31 19.63 45 20 C43.75 21.56 43.75 21.56 42 23 C39.94 23 39.94 23 38 22 C37.28 20.36 36.61 18.69 36 17 C35.41 17.44 34.82 17.89 34.21 18.35 C33.42 18.91 32.63 19.48 31.81 20.06 C30.65 20.92 30.65 20.92 29.46 21.79 C26.41 23.29 25.18 23.06 22 22 C19.55 20.82 17.33 19.42 15 18 C13.68 19.65 12.36 21.3 11 23 C7.77 22.44 6.02 21.63 4 19 C4 18.01 4 17.02 4 16 C4.85 15.2 5.69 14.39 6.56 13.56 C7.37 12.72 8.17 11.87 9 11 C8.96 8.72 8.96 8.72 8 7 C5.36 7 2.72 7 0 7 C0 4.69 0 2.38 0 0 Z " fill="#1F1918" transform="translate(0,24)"/>
<path d="M0 0 C0.99 0.33 1.98 0.66 3 1 C3 3.31 3 5.62 3 8 C5.64 7.67 8.28 7.34 11 7 C11 7.66 11 8.32 11 9 C11.99 9 12.98 9 14 9 C14 9.66 14 10.32 14 11 C13.01 11 12.02 11 11 11 C11 11.66 11 12.32 11 13 C9.02 13 7.04 13 5 13 C5 13.99 5 14.98 5 16 C5.66 16.33 6.32 16.66 7 17 C6.27 18.32 5.51 19.63 4.75 20.94 C4.33 21.67 3.91 22.4 3.48 23.15 C1.74 25.32 0.7 25.64 -2 26 C-2 24.68 -2 23.36 -2 22 C-1.32 21.38 -0.64 20.76 0.06 20.12 C0.7 19.42 1.34 18.72 2 18 C1.86 14.8 1.86 14.8 1 12 C-1.97 12 -4.94 12 -8 12 C-7.67 10.35 -7.34 8.7 -7 7 C-4.69 7.33 -2.38 7.66 0 8 C0 5.36 0 2.72 0 0 Z " fill="#BDBDBD" transform="translate(9,18)"/>
<path d="M0 0 C0.99 0.33 1.98 0.66 3 1 C3 2.32 3 3.64 3 5 C1.35 5.66 -0.3 6.32 -2 7 C-2 9.97 -2 12.94 -2 16 C0.31 16 2.62 16 5 16 C4.25 20.75 4.25 20.75 2 23 C0.68 23 -0.64 23 -2 23 C-2.86 24.78 -2.86 24.78 -3 27 C-1.15 29.27 -1.15 29.27 1 31 C0.5 32.48 0.5 32.48 0 34 C-1.71 32.38 -3.37 30.71 -5 29 C-5 28.34 -5 27.68 -5 27 C-5.62 26.92 -6.24 26.84 -6.88 26.75 C-9 26 -9 26 -10.25 23.94 C-10.5 23.3 -10.74 22.66 -11 22 C-8.36 20.68 -6.32 20.9 -3.38 20.94 C-1.87 20.95 -1.87 20.95 -0.34 20.96 C0.43 20.98 1.21 20.99 2 21 C2.33 19.68 2.66 18.36 3 17 C0.69 17 -1.62 17 -4 17 C-4.12 15.87 -4.25 14.73 -4.38 13.56 C-4.58 12.39 -4.79 11.21 -5 10 C-5.66 9.67 -6.32 9.34 -7 9 C-5.88 8.16 -4.75 7.33 -3.62 6.5 C-2.69 5.8 -2.69 5.8 -1.73 5.09 C0 4 0 4 2 4 C2 3.34 2 2.68 2 2 C1.34 2 0.68 2 0 2 C0 1.34 0 0.68 0 0 Z " fill="#5E5B5B" transform="translate(45,9)"/>
<path d="M0 0 C0 2.64 0 5.28 0 8 C2.31 8 4.62 8 7 8 C6.67 9.32 6.34 10.64 6 12 C-1.59 12 -9.18 12 -17 12 C-17 10.68 -17 9.36 -17 8 C-13.7 8.33 -10.4 8.66 -7 9 C-7 8.34 -7 7.68 -7 7 C-5.68 7.33 -4.36 7.66 -3 8 C-3 5.69 -3 3.38 -3 1 C-1 0 -1 0 0 0 Z " fill="#D3D3D3" transform="translate(41,18)"/>
<path d="M0 0 C6.37 -0.01 6.37 -0.01 8.94 2 C9.94 4.43 9.94 4.43 10.94 11.43 C3.52 10.44 3.52 10.44 -4.06 9.43 C-3.07 9.1 -2.08 8.77 -1.06 8.43 C-2.05 6.78 -3.04 5.13 -4.06 3.43 C-2.06 0.43 -2.06 0.43 0 0 Z " fill="#4E4E4E" transform="translate(24.05859375,4.56640625)"/>
<path d="M0 0 C0.33 0.66 0.66 1.32 1 2 C-1.97 3.98 -4.94 5.96 -8 8 C-11.57 6.22 -14.71 4.24 -18 2 C-13.83 -2.17 -5.38 -1.52 0 0 Z " fill="#020303" transform="translate(34,15)"/>
<path d="M0 0 C0.66 0 1.32 0 2 0 C2 0.66 2 1.32 2 2 C2.66 2 3.32 2 4 2 C4 2.66 4 3.32 4 4 C2.13 5.38 0.2 6.68 -1.75 7.94 C-6.06 10.69 -6.06 10.69 -10.14 13.75 C-12 15 -12 15 -16 15 C-16 14.01 -16 13.02 -16 12 C-14.32 10.61 -14.32 10.61 -12.12 9.31 C-11.41 8.88 -10.69 8.44 -9.95 7.99 C-8 7 -8 7 -6 7 C-6.66 5.02 -7.32 3.04 -8 1 C-7.24 1.31 -6.47 1.62 -5.69 1.94 C-3.81 2.68 -1.91 3.36 0 4 C0 2.68 0 1.36 0 0 Z " fill="#79726F" transform="translate(43,9)"/>
<path d="M0 0 C0.66 0 1.32 0 2 0 C2 0.66 2 1.32 2 2 C2.99 2 3.98 2 5 2 C5 2.66 5 3.32 5 4 C4.01 4 3.02 4 2 4 C2 4.66 2 5.32 2 6 C0.02 6 -1.96 6 -4 6 C-4 6.99 -4 7.98 -4 9 C-3.34 9.33 -2.68 9.66 -2 10 C-2.73 11.32 -3.49 12.63 -4.25 13.94 C-4.67 14.67 -5.09 15.4 -5.52 16.15 C-7.26 18.32 -8.3 18.64 -11 19 C-11 17.68 -11 16.36 -11 15 C-10.32 14.38 -9.64 13.76 -8.94 13.12 C-8.3 12.42 -7.66 11.72 -7 11 C-7.14 7.8 -7.14 7.8 -8 5 C-5.03 5 -2.06 5 1 5 C0.67 3.35 0.34 1.7 0 0 Z " fill="#948A87" transform="translate(18,25)"/>
<path d="M0 0 C4 4.75 4 4.75 4 7 C5.65 7.33 7.3 7.66 9 8 C9 8.33 9 8.66 9 9 C8.31 9.06 7.63 9.12 6.92 9.18 C6.02 9.27 5.12 9.35 4.19 9.44 C2.85 9.56 2.85 9.56 1.48 9.68 C-1.13 9.93 -1.13 9.93 -4 11 C-4.99 10.01 -5.98 9.02 -7 8 C-4.69 5.36 -2.38 2.72 0 0 Z " fill="#262727" transform="translate(19,6)"/>
<path d="M0 0 C0.99 0.33 1.98 0.66 3 1 C3 2.32 3 3.64 3 5 C1.35 5.66 -0.3 6.32 -2 7 C-2 9.97 -2 12.94 -2 16 C0.31 16 2.62 16 5 16 C4.67 17.65 4.34 19.3 4 21 C3.34 20.34 2.68 19.68 2 19 C2.33 18.34 2.66 17.68 3 17 C0.69 17 -1.62 17 -4 17 C-4.12 15.87 -4.25 14.73 -4.38 13.56 C-4.58 12.39 -4.79 11.21 -5 10 C-5.66 9.67 -6.32 9.34 -7 9 C-5.88 8.16 -4.75 7.33 -3.62 6.5 C-3 6.04 -2.37 5.57 -1.73 5.09 C0 4 0 4 2 4 C2 3.34 2 2.68 2 2 C1.34 2 0.68 2 0 2 C0 1.34 0 0.68 0 0 Z " fill="#0D0D0D" transform="translate(45,9)"/>
<path d="M0 0 C1.32 0 2.64 0 4 0 C4 1.32 4 2.64 4 4 C3.01 4 2.02 4 1 4 C2.98 5.32 4.96 6.64 7 8 C6.01 8.5 6.01 8.5 5 9 C5 11.64 5 14.28 5 17 C4.01 16.67 3.02 16.34 2 16 C2.33 13.36 2.66 10.72 3 8 C1.35 7.01 -0.3 6.02 -2 5 C-1.12 1.12 -1.12 1.12 0 0 Z " fill="#0D0D0D" transform="translate(4,9)"/>
<path d="M0 0 C2.09 3.4 2.18 6.05 2 10 C0.02 10.99 0.02 10.99 -2 12 C-4.57 8.15 -3.83 6.41 -3 2 C-2.01 2 -1.02 2 0 2 C0 1.34 0 0.68 0 0 Z " fill="#090707" transform="translate(26,29)"/>
<path d="M0 0 C2.83 1.38 5.56 2.86 8.25 4.5 C8.96 4.92 9.66 5.35 10.39 5.78 C10.92 6.18 11.45 6.59 12 7 C12 7.66 12 8.32 12 9 C11.01 9 10.02 9 9 9 C9 8.34 9 7.68 9 7 C8.01 7.5 8.01 7.5 7 8 C5 8.04 3 8.04 1 8 C0.67 5.36 0.34 2.72 0 0 Z " fill="#1A1210" transform="translate(11,18)"/>
<path d="M0 0 C0 2.31 0 4.62 0 7 C-2.64 7 -5.28 7 -8 7 C-6.48 3.32 -4.32 0 0 0 Z " fill="#1F1512" transform="translate(38,19)"/>
<path d="M0 0 C0.56 0.32 1.12 0.63 1.7 0.96 C4.15 2.07 6.08 2.39 8.75 2.62 C9.55 2.7 10.35 2.77 11.17 2.85 C11.78 2.9 12.38 2.95 13 3 C11.25 5.06 11.25 5.06 9 7 C5.2 7 2.69 4.47 0 2 C0 1.34 0 0.68 0 0 Z " fill="#A4A4A2" transform="translate(16,37)"/>
<path d="M0 0 C0 2.64 0 5.28 0 8 C1.32 8.33 2.64 8.66 4 9 C0.7 9 -2.6 9 -6 9 C-5.67 8.34 -5.34 7.68 -5 7 C-4.34 7.33 -3.68 7.66 -3 8 C-3 5.69 -3 3.38 -3 1 C-1 0 -1 0 0 0 Z " fill="#7B7A7A" transform="translate(41,18)"/>
<path d="M0 0 C0.99 0.33 1.98 0.66 3 1 C3 3.31 3 5.62 3 8 C4.98 8 6.96 8 9 8 C9 8.33 9 8.66 9 9 C6.03 9 3.06 9 0 9 C0 6.03 0 3.06 0 0 Z " fill="#808080" transform="translate(9,18)"/>
<path d="M0 0 C2.62 0.94 2.62 0.94 5 2 C4.01 3.48 4.01 3.48 3 5 C3 5.99 3 6.98 3 8 C1.68 7.67 0.36 7.34 -1 7 C-0.67 5.35 -0.34 3.7 0 2 C-0.66 1.67 -1.32 1.34 -2 1 C-1.34 0.67 -0.68 0.34 0 0 Z " fill="#644A41" transform="translate(28,31)"/>
<path d="M0 0 C0.33 1.32 0.66 2.64 1 4 C-1.97 4 -4.94 4 -8 4 C-8 3.01 -8 2.02 -8 1 C-5.36 0.67 -2.72 0.34 0 0 Z " fill="#D9D9D9" transform="translate(18,26)"/>
<path d="M0 0 C0.99 0.33 1.98 0.66 3 1 C3.73 3.07 3.73 3.07 4.19 5.56 C4.35 6.39 4.5 7.22 4.67 8.07 C4.78 8.7 4.89 9.34 5 10 C2.69 9.34 0.38 8.68 -2 8 C-2 7.34 -2 6.68 -2 6 C-1.01 6 -0.02 6 1 6 C0.67 4.02 0.34 2.04 0 0 Z " fill="#B7B7B7" transform="translate(30,6)"/>
<path d="M0 0 C0.99 0.33 1.98 0.66 3 1 C2.75 1.58 2.51 2.16 2.25 2.75 C2.17 3.49 2.09 4.23 2 5 C3.85 7.27 3.85 7.27 6 9 C5.67 9.99 5.34 10.98 5 12 C3.29 10.38 1.63 8.71 0 7 C0 6.34 0 5.68 0 5 C-0.66 4.67 -1.32 4.34 -2 4 C-1.34 2.68 -0.68 1.36 0 0 Z " fill="#111212" transform="translate(40,31)"/>
<path d="M0 0 C2.31 0.33 4.62 0.66 7 1 C6.67 2.32 6.34 3.64 6 5 C5.01 5 4.02 5 3 5 C3 4.34 3 3.68 3 3 C2.01 3 1.02 3 0 3 C0 2.01 0 1.02 0 0 Z " fill="#080302" transform="translate(14,31)"/>
<path d="M0 0 C0.33 0.66 0.66 1.32 1 2 C0.31 4.06 0.31 4.06 -1 6 C-3.12 6.75 -3.12 6.75 -5 7 C-5.33 6.01 -5.66 5.02 -6 4 C-5.2 3.53 -4.39 3.05 -3.56 2.56 C-1.15 1.23 -1.15 1.23 0 0 Z " fill="#A85436" transform="translate(12,37)"/>
<path d="M0 0 C0.66 0.33 1.32 0.66 2 1 C-2.5 5 -2.5 5 -7 5 C-7 4.01 -7 3.02 -7 2 C-4 1 -4 1 -1 1 C-0.67 0.67 -0.34 0.34 0 0 Z " fill="#9F857B" transform="translate(34,19)"/>
<path d="M0 0 C0.76 0.66 1.53 1.32 2.31 2 C4.84 4.3 4.84 4.3 8 4 C8 4.66 8 5.32 8 6 C6.68 6.33 5.36 6.66 4 7 C0 2.25 0 2.25 0 0 Z " fill="#9C4A29" transform="translate(37,37)"/>
<path d="M0 0 C1.98 0.99 3.96 1.98 6 3 C5.67 4.32 5.34 5.64 5 7 C2.22 5.61 0.88 3.44 -1 1 C-0.67 0.67 -0.34 0.34 0 0 Z " fill="#7C5F56" transform="translate(16,17)"/>
<path d="M0 0 C1.32 0 2.64 0 4 0 C4 1.32 4 2.64 4 4 C2.35 4 0.7 4 -1 4 C-0.67 2.68 -0.34 1.36 0 0 Z " fill="#1F1F1F" transform="translate(4,9)"/>
<path d="M0 0 C2 1.38 2 1.38 4 3 C4 3.66 4 4.32 4 5 C2.35 5 0.7 5 -1 5 C-0.67 3.35 -0.34 1.7 0 0 Z " fill="#040404" transform="translate(19,8)"/>
</svg>
