<?xml version="1.0" encoding="UTF-8"?>
<!-- Generator: https://ezgif.com/png-to-svg -->
<svg version="1.1" xmlns="http://www.w3.org/2000/svg" width="1209" height="1209">
<path d="M0 0 C2.14 0.01 4.29 0.01 6.43 0.01 C27.08 0.05 47.57 0.43 68.07 3.06 C70.25 3.34 72.42 3.6 74.59 3.87 C141.69 12.19 206.17 30.92 267.11 60.32 C268.15 60.82 269.2 61.32 270.28 61.84 C311.8 81.81 350.91 107.51 386.38 136.89 C387.94 138.18 389.51 139.44 391.09 140.71 C396.72 145.23 402.08 149.96 407.34 154.89 C410.06 157.45 412.81 159.93 415.65 162.35 C421.31 167.27 426.56 172.63 431.86 177.94 C433.66 179.75 435.47 181.56 437.28 183.36 C443.1 189.18 448.8 195.02 454.11 201.32 C455.13 202.49 456.15 203.65 457.18 204.82 C479.06 229.84 498.19 256.34 516.11 284.32 C516.8 285.4 517.5 286.48 518.21 287.6 C570.66 370.97 600.95 469.32 607.42 602.14 C607.42 604.36 607.41 606.57 607.41 608.79 C607.38 630.43 606.91 651.83 604.11 673.32 C603.92 674.78 603.74 676.25 603.55 677.71 C601.18 696.4 598.15 714.91 594.11 733.32 C593.77 734.88 593.77 734.88 593.43 736.47 C589.8 753.34 585.29 769.86 580.11 786.32 C579.76 787.43 579.41 788.54 579.05 789.68 C570.34 817.09 559.6 843.42 547.11 869.32 C546.35 870.89 546.35 870.89 545.59 872.49 C522.91 919.63 492.91 964.26 458.11 1003.32 C457.3 1004.22 456.5 1005.12 455.68 1006.05 C453.5 1008.48 451.3 1010.9 449.11 1013.32 C448.31 1014.2 447.52 1015.08 446.7 1015.98 C440.45 1022.86 434.04 1029.54 427.46 1036.09 C425.9 1037.64 424.35 1039.2 422.8 1040.76 C417.41 1046.16 411.93 1051.38 406.11 1056.32 C404.94 1057.34 403.77 1058.36 402.61 1059.39 C373.29 1085.02 341.8 1107.76 308.11 1127.32 C307.3 1127.79 306.5 1128.25 305.68 1128.74 C245.63 1163.72 180.31 1187.3 112.11 1200.32 C111.09 1200.51 110.08 1200.71 109.04 1200.91 C74.82 1207.47 39.98 1209.73 5.19 1209.64 C3.13 1209.63 1.07 1209.63 -0.98 1209.63 C-22.75 1209.6 -44.26 1208.77 -65.89 1206.32 C-68.04 1206.1 -70.18 1205.88 -72.32 1205.66 C-108.39 1201.78 -144.37 1193.23 -178.89 1182.32 C-180 1181.97 -181.1 1181.62 -182.24 1181.26 C-209.66 1172.55 -235.99 1161.81 -261.89 1149.32 C-262.94 1148.82 -263.99 1148.32 -265.07 1147.8 C-294.16 1133.81 -321.44 1116.77 -347.89 1098.32 C-348.54 1097.87 -349.18 1097.43 -349.84 1096.97 C-358.58 1090.9 -366.94 1084.43 -375.19 1077.7 C-376.71 1076.47 -378.23 1075.24 -379.76 1074.01 C-397.37 1059.77 -413.86 1044.43 -429.89 1028.44 C-430.39 1027.95 -430.88 1027.46 -431.39 1026.95 C-437.12 1021.25 -442.65 1015.46 -447.89 1009.32 C-449.35 1007.71 -450.81 1006.11 -452.27 1004.51 C-457 999.26 -461.47 993.82 -465.89 988.32 C-466.84 987.15 -467.79 985.98 -468.74 984.81 C-475.74 976.18 -482.45 967.37 -488.89 958.32 C-489.51 957.46 -490.12 956.59 -490.76 955.71 C-499.64 943.19 -508.15 930.57 -515.89 917.32 C-516.37 916.51 -516.84 915.71 -517.33 914.88 C-533.05 888.04 -547.4 860.24 -558.89 831.32 C-559.31 830.27 -559.73 829.22 -560.16 828.14 C-587.95 757.81 -602.41 683.11 -602.21 607.5 C-602.21 605.28 -602.2 603.07 -602.2 600.85 C-602.16 579.21 -601.7 557.81 -598.89 536.32 C-598.71 534.86 -598.53 533.4 -598.34 531.94 C-593.37 492.9 -585.19 454.72 -572.89 417.32 C-572.51 416.15 -572.13 414.97 -571.73 413.77 C-566.18 396.96 -559.98 380.54 -552.89 364.32 C-552.54 363.49 -552.18 362.65 -551.81 361.8 C-535.34 323.7 -514.63 288.32 -490.89 254.32 C-490.45 253.68 -490.01 253.04 -489.55 252.38 C-483.48 243.64 -477.01 235.27 -470.28 227.02 C-469.04 225.5 -467.82 223.98 -466.59 222.45 C-462.34 217.21 -457.99 212.05 -453.58 206.94 C-453.1 206.38 -452.61 205.82 -452.11 205.23 C-442.92 194.64 -433.26 184.51 -423.32 174.61 C-421.63 172.93 -419.94 171.23 -418.25 169.54 C-412.64 163.92 -406.96 158.46 -400.89 153.32 C-399.71 152.28 -398.54 151.25 -397.36 150.21 C-329.53 90.82 -249.42 47.41 -80.89 5.32 C-79.4 5.11 -79.4 5.11 -77.87 4.89 C-51.97 1.29 -26.13 -0.07 0 0 Z " fill="#1C1D1C" transform="translate(601.8946266174316,-0.3180580139160156)"/>
<path d="M0 0 C353.43 0 706.86 0 1071 0 C1071 110.55 1071 221.1 1071 335 C1042.29 335 1013.58 335 984 335 C984 332.36 984 329.72 984 327 C1010.07 327 1036.14 327 1063 327 C1063 221.73 1063 116.46 1063 8 C714.85 8 366.7 8 8 8 C8 113.27 8 218.54 8 327 C252.86 327 497.72 327 750 327 C750 329.64 750 332.28 750 335 C502.5 335 255 335 0 335 C0 224.45 0 113.9 0 0 Z " fill="#FEFEFE" transform="translate(70,424)"/>
<path d="M0 0 C11.22 0 22.44 0 34 0 C38.07 8.73 42.13 17.41 45.94 26.25 C46.36 27.22 46.78 28.19 47.21 29.19 C50.63 37.09 53.98 45.02 57.31 52.97 C58.85 56.66 60.42 60.33 62 64 C64.26 61.74 64.99 59.95 66.21 57 C66.65 55.96 67.08 54.92 67.53 53.85 C67.99 52.72 68.46 51.6 68.94 50.44 C72.84 41.11 76.79 31.81 80.88 22.56 C81.31 21.56 81.75 20.57 82.21 19.54 C85.09 13 88.04 6.5 91 0 C102.22 0 113.44 0 125 0 C125 44.88 125 89.76 125 136 C113.78 136 102.56 136 91 136 C90.98 130.26 90.96 124.52 90.95 118.78 C90.94 116.84 90.93 114.9 90.92 112.96 C90.86 99.27 91.22 85.66 92 72 C87.13 82.92 82.99 94.03 78.98 105.29 C77.68 108.87 76.34 112.44 75 116 C66.75 116 58.5 116 50 116 C49.17 113.59 48.35 111.17 47.5 108.69 C44.89 101.19 41.94 93.88 38.8 86.6 C38.48 85.85 38.16 85.11 37.83 84.34 C37.55 83.69 37.27 83.05 36.98 82.38 C35.57 78.95 34.29 75.48 33 72 C33.07 73.02 33.14 74.04 33.22 75.09 C34.07 88.11 34.12 101.08 34.06 114.12 C34.06 116.26 34.05 118.39 34.05 120.53 C34.04 125.68 34.02 130.84 34 136 C22.78 136 11.56 136 0 136 C0 91.12 0 46.24 0 0 Z " fill="#3CA35E" transform="translate(477,529)"/>
<path d="M0 0 C76.26 0 76.26 0 90.37 13.22 C100.29 23.5 104.42 35.46 104.44 49.58 C104.08 61.87 99.73 74 91.16 82.92 C78.77 94.44 65.73 96.47 49.38 96.19 C44.3 96.13 39.23 96.06 34 96 C34 109.2 34 122.4 34 136 C22.78 136 11.56 136 0 136 C0 91.12 0 46.24 0 0 Z " fill="#3CA35D" transform="translate(651,529)"/>
<path d="M0 0 C31.02 0 62.04 0 94 0 C94 10.56 94 21.12 94 32 C74.53 32 55.06 32 35 32 C35 38.93 35 45.86 35 53 C53.15 53 71.3 53 90 53 C90 62.9 90 72.8 90 83 C71.85 83 53.7 83 35 83 C35 89.93 35 96.86 35 104 C54.47 104 73.94 104 94 104 C94 114.56 94 125.12 94 136 C62.98 136 31.96 136 0 136 C0 91.12 0 46.24 0 0 Z " fill="#3CA35E" transform="translate(926,529)"/>
<path d="M0 0 C2.8 2.62 5.22 5.24 7.44 8.38 C6.63 8.64 5.83 8.91 5 9.19 C4.15 9.58 3.31 9.97 2.44 10.38 C1.94 11.86 1.94 11.86 1.44 13.38 C-0.01 14.73 -0.01 14.73 -1.84 16.07 C-2.5 16.56 -3.16 17.05 -3.84 17.55 C-4.88 18.3 -4.88 18.3 -5.94 19.06 C-6.62 19.57 -7.31 20.08 -8.02 20.61 C-13.18 24.38 -13.18 24.38 -16.56 24.38 C-18.54 23.17 -18.54 23.17 -20.75 21.56 C-28.5 16.28 -35.09 14.3 -44.56 15.38 C-48.71 16.86 -51.52 18.4 -53.56 22.38 C-54.16 27.07 -53.31 29.58 -50.56 33.38 C-44.13 37.5 -36.58 38.86 -29.19 40.25 C-15.92 42.8 -3.01 48.18 5.02 59.64 C11.42 70.53 11.91 82.53 9.38 94.75 C6.19 105.83 -2.93 113.8 -12.56 119.56 C-26.66 126.8 -43.48 129.06 -58.75 124.56 C-70 120.71 -81.04 113.72 -88.56 104.38 C-88.89 103.38 -89.22 102.39 -89.56 101.38 C-88.11 99.87 -86.65 98.37 -85.19 96.88 C-84.38 96.04 -83.56 95.2 -82.73 94.34 C-80.56 92.38 -80.56 92.38 -78.56 92.38 C-78.23 91.38 -77.9 90.39 -77.56 89.38 C-76.9 89.38 -76.24 89.38 -75.56 89.38 C-75.56 88.72 -75.56 88.06 -75.56 87.38 C-73.6 85.66 -71.6 83.99 -69.56 82.38 C-66.08 83.65 -63.3 85.14 -60.31 87.31 C-51.77 93.06 -43.82 94.35 -33.56 93.38 C-30.04 92.56 -27.44 91.48 -25.12 88.56 C-24.36 85.59 -24.12 83.43 -24.56 80.38 C-30.4 73.76 -40.05 72.21 -48.31 70.56 C-59.68 68.23 -70.39 63.92 -78.56 55.38 C-80 52.5 -80 52.5 -80.56 50.38 C-81.22 50.38 -81.88 50.38 -82.56 50.38 C-83.38 48.48 -84.19 46.59 -85 44.69 C-85.45 43.63 -85.9 42.58 -86.37 41.49 C-90.15 31.63 -89.84 20.03 -85.56 10.38 C-79.49 -0.96 -69.92 -7.6 -57.94 -11.94 C-37.42 -16.12 -16.2 -14.28 0 0 Z " fill="#3CA25D" transform="translate(276.5625,540.625)"/>
<path d="M0 0 C13.2 0 26.4 0 40 0 C42.64 5.28 45.28 10.56 48 16 C49.67 19.32 49.67 19.32 51.34 22.64 C54.04 28 56.72 33.36 59.02 38.91 C59.95 40.88 60.97 42.74 62.06 44.63 C62.7 45.74 63.34 46.85 64 48 C64.51 46.97 65.03 45.94 65.56 44.89 C76.78 22.44 76.78 22.44 88 0 C101.2 0 114.4 0 128 0 C123.47 9.05 119.41 17.17 114.11 25.56 C111.71 29.42 109.51 33.39 107.31 37.38 C103.35 44.56 99.35 51.73 95.31 58.88 C94.79 59.8 94.27 60.73 93.73 61.68 C92.96 63.04 92.96 63.04 92.18 64.43 C91.41 65.83 91.41 65.83 90.63 67.25 C89 70 89 70 87.08 72.39 C79.06 83.15 81 96.96 81.06 109.75 C81.05 112.3 81.03 114.84 81.01 117.39 C80.97 123.59 80.99 129.79 81 136 C69.78 136 58.56 136 47 136 C47.1 132.4 47.2 128.81 47.31 125.1 C48.47 89.48 48.47 89.48 32.96 58.56 C29.83 54.47 27.46 50.01 25 45.5 C24.05 43.82 23.09 42.14 22.12 40.46 C21.38 39.16 21.38 39.16 20.63 37.84 C16.79 31.15 12.93 24.47 9.07 17.79 C7.9 15.75 6.72 13.71 5.54 11.67 C4.59 10.03 3.64 8.39 2.68 6.76 C0 2.21 0 2.21 0 0 Z " fill="#3CA25E" transform="translate(312,529)"/>
<path d="M0 0 C11.22 0 22.44 0 34 0 C34 33.66 34 67.32 34 102 C52.15 102 70.3 102 89 102 C89 113.22 89 124.44 89 136 C59.63 136 30.26 136 0 136 C0 91.12 0 46.24 0 0 Z " fill="#3CA35E" transform="translate(796,529)"/>
<path d="M0 0 C3.71 2.57 6.4 4.76 8 9 C9.48 24.3 4.88 36.03 -4.06 48.23 C-4.6 48.98 -5.15 49.72 -5.71 50.49 C-6.8 51.97 -7.91 53.44 -9.04 54.9 C-12.46 59.51 -13.68 62.23 -13 68 C-12.58 67.06 -12.58 67.06 -12.15 66.09 C-8.74 58.81 -4.7 53.22 1.38 47.94 C5.26 46.55 9.03 46.91 13 48 C14.34 50.68 14.11 52.71 14.08 55.71 C14.07 57.47 14.07 57.47 14.05 59.26 C14.03 61.11 14.03 61.11 14 63 C13.98 64.2 13.97 65.4 13.95 66.64 C13.89 70.3 13.79 73.96 13.69 77.62 C13.66 78.88 13.64 80.13 13.62 81.42 C13.57 83.21 13.57 83.21 13.51 85.04 C13.47 86.65 13.47 86.65 13.43 88.3 C13 91 13 91 11.6 92.85 C8.65 94.97 5.51 94.17 2 94 C-0.53 90.18 -0.26 86.28 -0.19 81.88 C-0.18 81.12 -0.17 80.37 -0.17 79.59 C-0.09 74.01 0.3 68.54 1 63 C-7.2 69.32 -9.25 80.85 -11.13 90.54 C-12.19 93.53 -13.25 94.48 -16 96 C-19.06 95.94 -19.06 95.94 -22 95 C-23.88 92.94 -23.88 92.94 -25 91 C-25.74 91.51 -25.74 91.51 -26.5 92.02 C-34.56 97.32 -42.34 99.29 -52 98 C-55.03 96.75 -57.64 95.29 -60 93 C-60 92.34 -60 91.68 -60 91 C-60.56 91.4 -61.11 91.8 -61.69 92.21 C-70.35 98.22 -77.27 101.19 -88 100 C-92.68 98.79 -96.55 96.36 -100 93 C-104.17 85.85 -105.1 78.72 -103.54 70.59 C-101.53 63.7 -97.71 58.58 -91.75 54.56 C-87.35 52.3 -82.82 52.32 -78 53 C-74.21 54.61 -72.15 56.52 -70 60 C-69.16 65.43 -69.28 70.42 -71.56 75.44 C-76.72 80.86 -81.93 83.64 -89 86 C-86.61 88.79 -86.19 88.98 -82.25 89.38 C-78.01 89.21 -74.79 87.93 -71 86 C-70.12 85.6 -69.24 85.19 -68.33 84.78 C-65.72 83.19 -65.72 83.19 -65.43 80.18 C-65.44 78.54 -65.44 78.54 -65.44 76.88 C-65.07 68.28 -62.58 61.79 -56.69 55.45 C-52.41 51.79 -47.87 50.7 -42.31 51 C-37.91 51.68 -35.76 53.46 -33 57 C-31.47 60.06 -31.77 62.62 -32 66 C-33.16 68.31 -34.17 70.17 -36 72 C-38.44 72.19 -38.44 72.19 -41 72 C-43 70 -43 70 -43.2 68.05 C-43.13 66.04 -43.07 64.02 -43 62 C-45.42 62.03 -45.42 62.03 -48 63 C-51.6 67.6 -51.36 72.51 -51.4 78.1 C-50.93 81.49 -50.19 83.36 -48 86 C-43.33 87.37 -38.67 86.8 -34.31 84.71 C-29.98 82 -29.98 82 -27 78 C-26.87 76.1 -26.8 74.19 -26.75 72.28 C-26.72 71.11 -26.69 69.94 -26.66 68.73 C-26.63 67.48 -26.6 66.23 -26.56 64.94 C-25.09 18.22 -25.09 18.22 -12.35 4.18 C-8.27 0.69 -5.36 -0.62 0 0 Z " fill="#E0E0E0" transform="translate(1011,682)"/>
<path d="M0 0 C1.15 -0.01 1.15 -0.01 2.31 -0.03 C4.51 -0.05 6.71 -0.06 8.9 -0.05 C10.18 -0.05 11.47 -0.06 12.79 -0.06 C16.25 0.33 17.68 0.81 20.06 3.31 C20.51 6.37 20.69 8.33 18.99 10.98 C16.08 12.99 13.17 12.68 9.77 12.61 C8.71 12.6 8.71 12.6 7.63 12.59 C5.38 12.58 3.13 12.54 0.88 12.5 C-0.65 12.48 -2.18 12.47 -3.71 12.46 C-7.45 12.43 -11.19 12.37 -14.94 12.31 C-14.88 14.07 -14.88 14.07 -14.82 15.86 C-14.82 22.11 -15.71 28.25 -16.53 34.44 C-17.78 43.89 -18.96 53.31 -19.51 62.82 C-19.55 63.49 -19.59 64.16 -19.63 64.85 C-19.81 68.04 -19.96 71.22 -20.08 74.41 C-20.13 75.54 -20.19 76.67 -20.25 77.84 C-20.29 78.83 -20.32 79.81 -20.36 80.83 C-20.94 83.31 -20.94 83.31 -22.76 85.14 C-25.92 86.84 -28.41 86.63 -31.94 86.31 C-32.93 85.65 -33.92 84.99 -34.94 84.31 C-35.22 81.75 -35.31 79.47 -35.24 76.91 C-35.23 76.16 -35.22 75.41 -35.21 74.63 C-35.01 65.6 -34.05 56.66 -33.06 47.69 C-32.89 46.01 -32.71 44.34 -32.54 42.66 C-31.5 32.86 -30.3 23.08 -28.94 13.31 C-31.84 13.88 -34.73 14.46 -37.62 15.06 C-38.44 15.22 -39.26 15.38 -40.1 15.54 C-44.91 16.55 -48.52 17.52 -51.94 21.31 C-52.57 23.63 -52.57 23.63 -52.31 26 C-52.26 27.18 -52.26 27.18 -52.21 28.39 C-52.13 30.32 -52.13 30.32 -50.94 31.31 C-50.65 34.08 -50.57 35.73 -52.06 38.12 C-54.88 39.91 -56.67 39.85 -59.94 39.31 C-64.2 35.05 -65.11 31.39 -65.25 25.5 C-65.17 19.2 -63.88 16.31 -59.45 11.8 C-44.25 -1.55 -18.84 0.15 0 0 Z " fill="#E1E1E1" transform="translate(908.9375,698.6875)"/>
<path d="M0 0 C3.71 2.57 6.4 4.76 8 9 C9.81 27.66 1.8 40.62 -8.95 55.07 C-12.62 60.04 -12.62 60.04 -14 66 C-14.33 65.01 -14.66 64.02 -15 63 C-15.66 62.67 -16.32 62.34 -17 62 C-16.67 61.34 -16.34 60.68 -16 60 C-15.34 60 -14.68 60 -14 60 C-14 59.01 -14 58.02 -14 57 C-14.66 57 -15.32 57 -16 57 C-16 55.35 -16 53.7 -16 52 C-13.03 51.5 -13.03 51.5 -10 51 C-9.67 50.01 -9.34 49.02 -9 48 C-11.48 48.5 -11.48 48.5 -14 49 C-15.32 46.36 -16.64 43.72 -18 41 C-18.66 43.31 -19.32 45.62 -20 48 C-19.34 48 -18.68 48 -18 48 C-17.31 49.81 -17.31 49.81 -17 52 C-18.44 53.75 -18.44 53.75 -20 55 C-20 53.68 -20 52.36 -20 51 C-21.49 51.5 -21.49 51.5 -23 52 C-22.34 52.33 -21.68 52.66 -21 53 C-21 53.66 -21 54.32 -21 55 C-22.65 54.67 -24.3 54.34 -26 54 C-23.32 16.27 -23.32 16.27 -12.35 4.18 C-8.27 0.69 -5.36 -0.62 0 0 Z " fill="#DFDFDF" transform="translate(1011,682)"/>
<path d="M0 0 C5.79 -0.06 5.79 -0.06 11.69 -0.12 C13.5 -0.15 13.5 -0.15 15.35 -0.18 C16.31 -0.19 17.27 -0.19 18.26 -0.2 C19.73 -0.21 19.73 -0.21 21.23 -0.23 C27.04 0.25 30.25 2.64 34 7 C36.72 11.54 36.78 16.87 36 22 C34.15 26.22 31.53 30.01 28 33 C24.76 34.07 21.75 34.12 18.36 34.1 C17.39 34.1 16.43 34.09 15.44 34.09 C13.61 34.08 13.61 34.08 11.75 34.06 C7.87 34.04 4 34.02 0 34 C0 22.78 0 11.56 0 0 Z " fill="#1A1F1B" transform="translate(685,561)"/>
<path d="M0 0 C0.66 0 1.32 0 2 0 C3.72 3.79 4.35 7.04 4.62 11.19 C4.7 12.23 4.77 13.28 4.85 14.36 C4.94 15.9 5 17.45 5 19 C5.33 19.99 5.66 20.98 6 22 C6.66 22 7.32 22 8 22 C8 21.34 8 20.68 8 20 C8.99 19.67 9.98 19.34 11 19 C7.89 29.18 1.68 37.8 -4.71 46.19 C-7.12 49.42 -8.59 51.96 -9 56 C-9.5 54.51 -9.5 54.51 -10 53 C-10.66 52.67 -11.32 52.34 -12 52 C-11.67 51.34 -11.34 50.68 -11 50 C-10.34 50 -9.68 50 -9 50 C-9 49.01 -9 48.02 -9 47 C-9.66 47 -10.32 47 -11 47 C-11 45.35 -11 43.7 -11 42 C-8.03 41.5 -8.03 41.5 -5 41 C-4.67 40.01 -4.34 39.02 -4 38 C-6.48 38.5 -6.48 38.5 -9 39 C-6.76 6.76 -6.76 6.76 0 0 Z " fill="#DCDCDC" transform="translate(1006,692)"/>
<path d="M0 0 C10.8 -0.57 10.8 -0.57 15 3 C18.78 7.11 18.5 10.71 18.34 16.09 C17.68 21.68 14.76 24.56 10.56 27.94 C7.96 29.7 7.32 30.02 4.06 29.81 C3.38 29.54 2.7 29.28 2 29 C2 28.67 2 28.34 2 28 C3.65 28 5.3 28 7 28 C7 26.68 7 25.36 7 24 C6.01 24.33 5.02 24.66 4 25 C3.01 24.67 2.02 24.34 1 24 C-1.64 24.39 -1.64 24.39 -4 25 C-4.31 19.78 -3.88 16.42 -1 12 C0.32 11.3 1.65 10.63 3 10 C3.81 7.95 3.81 7.95 4 6 C5.65 6.33 7.3 6.66 9 7 C8.34 6.34 7.68 5.68 7 5 C7 4.01 7 3.02 7 2 C4.69 1.67 2.38 1.34 0 1 C0 0.67 0 0.34 0 0 Z " fill="#DEDEDE" transform="translate(923,735)"/>
<path d="M0 0 C0.66 0 1.32 0 2 0 C4.78 5.57 3.6 13.69 2.09 19.5 C-0.37 26.19 -3.47 32.46 -8 38 C-8.33 38 -8.66 38 -9 38 C-6.56 6.56 -6.56 6.56 0 0 Z " fill="#252525" transform="translate(1006,692)"/>
<path d="M0 0 C2.94 0.19 2.94 0.19 3.94 1.19 C4.44 4.38 4.44 4.38 3.94 8.19 C1.22 11.64 -1.79 13.81 -6 15.06 C-7.02 15.12 -7.02 15.12 -8.06 15.19 C-8.38 9.93 -7.8 6.71 -5.06 2.19 C-3.06 0.19 -3.06 0.19 0 0 Z " fill="#262626" transform="translate(927.0625,744.8125)"/>
<path d="M0 0 C0 0.99 0 1.98 0 3 C0.66 3.33 1.32 3.66 2 4 C-0.66 5.33 -2.69 5.11 -5.66 5.1 C-6.79 5.09 -7.91 5.09 -9.06 5.09 C-10.24 5.08 -11.41 5.07 -12.62 5.06 C-13.81 5.06 -14.99 5.05 -16.21 5.05 C-19.14 5.04 -22.07 5.02 -25 5 C-23 2 -23 2 -21.06 1.58 C-19.9 1.55 -19.9 1.55 -18.72 1.52 C-17.88 1.49 -17.04 1.46 -16.17 1.43 C-14.85 1.4 -14.85 1.4 -13.5 1.38 C-11.76 1.32 -10.02 1.27 -8.28 1.21 C-7.51 1.19 -6.74 1.18 -5.94 1.16 C-3.68 0.97 -2.28 0 0 0 Z " fill="#C9C9C9" transform="translate(926,706)"/>
<path d="M0 0 C0.33 0 0.66 0 1 0 C2.45 12.1 2.45 12.1 0 18 C0 18.91 0 19.82 0 20.75 C0 21.49 0 22.24 0 23 C-1.33 24.33 -2.67 25.67 -4 27 C-4.99 27 -5.98 27 -7 27 C-6 24.49 -4.99 21.99 -3.96 19.49 C-1.4 12.96 -0.27 7 0 0 Z " fill="#D7D7D7" transform="translate(1009,697)"/>
<path d="M0 0 C0.27 0.64 0.54 1.28 0.81 1.94 C1.89 4.33 1.89 4.33 5 5 C0.88 17.38 0.88 17.38 -1 22 C-1.33 22 -1.66 22 -2 22 C-1.47 14.65 -0.87 7.32 0 0 Z " fill="#363636" transform="translate(891,736)"/>
<path d="M0 0 C0.66 0.33 1.32 0.66 2 1 C2.14 1.64 2.29 2.28 2.44 2.94 C2.86 5.38 2.86 5.38 6 7 C-1.38 7.49 -1.38 7.49 -4.5 5 C-5 4.34 -5.49 3.68 -6 3 C-4.04 1.93 -2.03 0.93 0 0 Z " fill="#323232" transform="translate(927,765)"/>
<path d="M0 0 C1.98 0 3.96 0 6 0 C6.25 6.07 5.7 11.16 4 17 C3.34 17 2.68 17 2 17 C2 14.36 2 11.72 2 9 C2.66 8.67 3.32 8.34 4 8 C4.41 5.68 4.74 3.34 5 1 C3.35 1 1.7 1 0 1 C0 0.67 0 0.34 0 0 Z " fill="#393939" transform="translate(874,712)"/>
<path d="M0 0 C-0.33 1.65 -0.66 3.3 -1 5 C-2.07 4.69 -3.14 4.38 -4.25 4.06 C-6.83 3.33 -9.4 2.63 -12 2 C-7.88 0.71 -4.33 -0.26 0 0 Z M-5 5 C-4.01 5.33 -3.02 5.66 -2 6 C-2.99 6 -3.98 6 -5 6 C-5 5.67 -5 5.34 -5 5 Z " fill="#2E2E2E" transform="translate(874,713)"/>
<path d="M0 0 C0.33 0 0.66 0 1 0 C1.03 2.96 1.05 5.92 1.06 8.88 C1.07 9.72 1.08 10.56 1.09 11.43 C1.09 12.23 1.09 13.04 1.1 13.87 C1.1 14.61 1.11 15.35 1.11 16.12 C1 18 1 18 0 20 C-0.66 20 -1.32 20 -2 20 C-2.04 18.33 -2.04 16.67 -2 15 C-1.67 14.67 -1.34 14.34 -1 14 C-0.76 11.65 -0.59 9.29 -0.44 6.94 C-0.35 5.65 -0.27 4.36 -0.18 3.03 C-0.12 2.03 -0.06 1.03 0 0 Z " fill="#C3C3C3" transform="translate(1023,755)"/>
<path d="M0 0 C2.97 -0.35 5.16 -0.54 7.73 1.11 C9.2 2.36 10.61 3.67 12 5 C10.68 5.33 9.36 5.66 8 6 C8 5.34 8 4.68 8 4 C7.24 3.71 6.47 3.42 5.69 3.12 C3 2 3 2 0 0 Z " fill="#CBCBCB" transform="translate(1005,682)"/>
<path d="M0 0 C0 0.66 0 1.32 0 2 C-1.63 3.38 -3.29 4.72 -5 6 C-5.33 5.34 -5.66 4.68 -6 4 C-8.02 3.35 -8.02 3.35 -10 3 C-8.71 2.5 -7.42 2 -6.12 1.5 C-5.05 1.08 -5.05 1.08 -3.95 0.66 C-2 0 -2 0 0 0 Z " fill="#373737" transform="translate(944,778)"/>
<path d="M0 0 C0.33 0 0.66 0 1 0 C1.22 1.92 1.43 3.83 1.62 5.75 C1.74 6.82 1.86 7.88 1.98 8.98 C2 12.04 1.61 13.46 0 16 C-0.66 16 -1.32 16 -2 16 C-1.34 10.72 -0.68 5.44 0 0 Z " fill="#B3B3B3" transform="translate(1009,697)"/>
<path d="M0 0 C1.23 0.15 1.23 0.15 2.48 0.31 C3.42 0.43 3.42 0.43 4.38 0.56 C4.04 1.22 3.72 1.88 3.38 2.56 C-2.68 2.76 -2.68 2.76 -4.62 2.56 C-5.28 1.9 -5.95 1.24 -6.62 0.56 C-4.1 -0.7 -2.77 -0.36 0 0 Z " fill="#C4C4C4" transform="translate(1019.625,729.4375)"/>
<path d="M0 0 C2.76 2.76 2.58 5.21 3 9 C2.01 9 1.02 9 0 9 C0 6.03 0 3.06 0 0 Z " fill="#D3D3D3" transform="translate(986,721)"/>
<path d="M0 0 C2.02 1.93 3.42 3.63 5 6 C3.35 6.33 1.7 6.66 0 7 C0 4.69 0 2.38 0 0 Z " fill="#313131" transform="translate(919,753)"/>
</svg>
