<?xml version="1.0" encoding="UTF-8"?>
<!-- Generator: https://ezgif.com/png-to-svg -->
<svg version="1.1" xmlns="http://www.w3.org/2000/svg" width="512" height="512" viewBox="-20.561 -22.199 279.048 279.048" preserveAspectRatio="xMidYMid meet">
<path d="M0 0 C1 -0.06 1 -0.06 2.02 -0.13 C19.48 -1.1 33.05 1.16 46.49 12.91 C59.6 24.82 71.26 38.36 82.29 52.19 C83.9 54.33 83.9 54.33 86.06 55.25 C86.06 55.91 86.06 56.57 86.06 57.25 C86.65 57.53 87.24 57.81 87.85 58.1 C100.81 64.83 115.59 78.17 122.06 91.25 C126.6 106.7 124.12 124.52 122.06 140.25 C118.65 138.78 116.44 136.87 113.82 134.25 C112.99 133.42 112.15 132.58 111.29 131.72 C109.92 130.34 109.92 130.34 108.52 128.94 C107.53 127.94 106.54 126.95 105.55 125.96 C102.89 123.31 100.24 120.65 97.6 117.99 C95.11 115.49 92.62 113 90.13 110.51 C82.85 103.22 75.58 95.92 68.31 88.62 C52.06 72.33 35.81 56.04 19.06 39.25 C18.73 106.24 18.4 173.23 18.06 242.25 C7.17 242.25 -3.72 242.25 -14.94 242.25 C-15.27 175.92 -15.6 109.59 -15.94 41.25 C-48.43 73.83 -48.43 73.83 -80.92 106.41 C-87.19 112.7 -87.19 112.7 -90.13 115.63 C-92.19 117.69 -94.24 119.76 -96.3 121.82 C-98.91 124.45 -101.53 127.07 -104.16 129.69 C-105.58 131.12 -106.99 132.54 -108.41 133.97 C-109.66 135.22 -109.66 135.22 -110.94 136.49 C-112.03 137.59 -112.03 137.59 -113.15 138.7 C-114.94 140.25 -114.94 140.25 -116.94 140.25 C-122.55 99.1 -122.55 99.1 -113.63 85.59 C-105.46 74.92 -94.37 64.42 -82.94 57.25 C-82.28 57.25 -81.62 57.25 -80.94 57.25 C-80.94 56.59 -80.94 55.93 -80.94 55.25 C-79.55 53.88 -79.55 53.88 -77.58 52.27 C-72.31 47.78 -67.48 42.89 -62.6 37.98 C-61.63 37 -60.66 36.03 -59.69 35.05 C-56.65 32 -53.6 28.94 -50.56 25.88 C-47.01 22.3 -43.47 18.73 -39.91 15.17 C-38.49 13.74 -37.08 12.32 -35.67 10.89 C-34.81 10.03 -33.96 9.18 -33.08 8.29 C-32.32 7.53 -31.57 6.77 -30.79 5.99 C-23.87 -0.51 -8.96 0.56 0 0 Z " fill="#FDF7B0" transform="translate(116.9375,-3.25)"/>
<path d="M0 0 C0 62.37 0 124.74 0 189 C-5 189 -5 189 -7.14 187.2 C-7.84 186.37 -8.53 185.54 -9.25 184.69 C-10.02 183.78 -10.79 182.88 -11.58 181.95 C-12.78 180.49 -12.78 180.49 -14 179 C-14.83 178 -15.66 176.99 -16.51 175.96 C-18.07 174.06 -19.61 172.16 -21.15 170.25 C-22.96 167.98 -22.96 167.98 -25 166 C-25.26 164.08 -25.26 164.08 -25.28 161.7 C-25.29 160.79 -25.3 159.89 -25.31 158.96 C-25.31 157.97 -25.32 156.97 -25.32 155.95 C-25.33 154.91 -25.34 153.86 -25.35 152.79 C-25.38 149.32 -25.4 145.86 -25.41 142.4 C-25.43 140 -25.45 137.61 -25.47 135.21 C-25.52 128.89 -25.56 122.58 -25.6 116.26 C-25.64 109.82 -25.69 103.38 -25.74 96.94 C-25.84 84.29 -25.92 71.65 -26 59 C-28.37 61.37 -28.25 61.83 -28.28 65.04 C-28.29 65.88 -28.3 66.73 -28.31 67.59 C-28.31 68.52 -28.32 69.45 -28.32 70.41 C-28.33 71.87 -28.33 71.87 -28.35 73.36 C-28.38 76.6 -28.4 79.83 -28.41 83.07 C-28.43 85.31 -28.45 87.55 -28.47 89.79 C-28.52 95.69 -28.56 101.59 -28.6 107.49 C-28.64 113.51 -28.69 119.53 -28.74 125.55 C-28.84 137.37 -28.92 149.18 -29 161 C-30.12 160.06 -31.23 159.12 -32.35 158.17 C-32.97 157.65 -33.59 157.12 -34.23 156.58 C-36.64 154.43 -38.62 152.04 -40.62 149.5 C-41.7 148.15 -41.7 148.15 -42.79 146.78 C-43.52 145.86 -44.25 144.95 -45 144 C-45.86 143.21 -46.71 142.42 -47.59 141.6 C-51.43 136.98 -50.73 131.33 -50.71 125.6 C-50.72 124.41 -50.74 123.22 -50.75 122 C-50.8 118.2 -50.8 114.42 -50.81 110.62 C-50.84 108.05 -50.86 105.48 -50.89 102.9 C-50.95 96.6 -50.99 90.3 -51 84 C-53.47 86.47 -53.27 87.23 -53.32 90.63 C-53.34 91.59 -53.36 92.55 -53.38 93.54 C-53.4 95.1 -53.4 95.1 -53.41 96.7 C-53.43 97.76 -53.45 98.82 -53.47 99.92 C-53.53 103.32 -53.58 106.72 -53.62 110.12 C-53.66 112.43 -53.7 114.73 -53.74 117.04 C-53.84 122.69 -53.92 128.34 -54 134 C-58.56 132.48 -60.37 128.97 -63.24 125.22 C-65.13 122.87 -67.07 121.09 -69.48 119.28 C-76.74 113.56 -80.1 107.08 -81.45 97.93 C-82.38 85.04 -80.37 76.32 -71.9 66.27 C-63.21 56.42 -53.58 47.48 -43.94 38.57 C-39.33 34.26 -34.81 29.85 -30.28 25.45 C-23.67 19.07 -17.04 12.72 -10.32 6.47 C-9.27 5.48 -9.27 5.48 -8.2 4.47 C-7.23 3.58 -7.23 3.58 -6.25 2.67 C-5.69 2.15 -5.13 1.63 -4.56 1.1 C-3 0 -3 0 0 0 Z " fill="#EDCE7A" transform="translate(97,50)"/>
<path d="M0 0 C3.31 1.57 5.5 3.26 8.09 5.88 C8.89 6.68 9.68 7.48 10.5 8.3 C11.35 9.16 12.2 10.02 13.07 10.91 C13.95 11.79 14.83 12.68 15.73 13.58 C18.06 15.93 20.38 18.27 22.7 20.62 C25.98 23.94 29.26 27.24 32.54 30.55 C34.29 32.31 36.04 34.07 37.78 35.84 C38.57 36.63 39.35 37.43 40.16 38.25 C40.86 38.95 41.55 39.65 42.27 40.37 C43.92 42.08 43.92 42.08 46 43 C46 43.66 46 44.32 46 45 C46.66 45 47.32 45 48 45 C49.62 46.38 49.62 46.38 51 48 C51 48.66 51 49.32 51 50 C51.57 50.25 52.14 50.49 52.73 50.74 C55.38 52.21 57.14 53.93 59.26 56.1 C60.05 56.9 60.84 57.7 61.65 58.53 C62.47 59.36 63.28 60.2 64.12 61.06 C65.75 62.72 67.38 64.38 69.01 66.04 C69.73 66.77 70.44 67.51 71.18 68.27 C72.9 70.07 72.9 70.07 75 71 C75 71.66 75 72.32 75 73 C75.9 73.4 75.9 73.4 76.81 73.81 C79.21 75.11 80.4 75.78 82 78 C82.37 80.82 82.56 83.42 82.61 86.25 C82.63 87.07 82.64 87.88 82.66 88.73 C82.69 90.45 82.71 92.18 82.72 93.91 C82.75 96.53 82.84 99.14 82.94 101.76 C83.2 115.82 83.2 115.82 77.68 121.96 C76.14 123.33 74.59 124.68 73 126 C71.77 127.35 70.55 128.72 69.38 130.12 C68.82 130.76 68.27 131.39 67.7 132.04 C66.48 133.44 65.28 134.85 64.08 136.27 C63.14 137.38 63.14 137.38 62.19 138.5 C61.34 139.51 61.34 139.51 60.48 140.53 C59 142 59 142 57 142 C56.67 134.41 56.34 126.82 56 119 C52.14 122.94 52.14 122.94 48.28 126.9 C46.89 128.3 45.45 129.65 44 131 C43.34 131 42.68 131 42 131 C42 131.66 42 132.32 42 133 C41.34 133 40.68 133 40 133 C40 133.66 40 134.32 40 135 C38.43 136.55 38.43 136.55 36.31 138.31 C34.86 139.53 33.43 140.76 32 142 C31.1 142.65 30.21 143.29 29.28 143.96 C25.72 148.71 26.22 153.53 26.19 159.31 C26.16 160.43 26.14 161.56 26.11 162.71 C26.05 165.48 26.02 168.24 26 171 C25.34 171 24.68 171 24 171 C23.78 171.54 23.56 172.08 23.33 172.64 C21.57 175.77 19.21 178.22 16.75 180.81 C13.56 184.21 10.46 187.6 7.56 191.25 C6.29 192.61 6.29 192.61 5 194 C3.68 194 2.36 194 1 194 C0.87 173.73 0.74 153.45 0.61 133.18 C0.55 123.76 0.49 114.34 0.43 104.92 C0.37 96.7 0.32 88.47 0.27 80.24 C0.24 75.9 0.21 71.57 0.19 67.23 C0.04 44.82 -0.03 22.41 0 0 Z M26 60 C26 77.16 26 94.32 26 112 C30.14 108.45 34.03 105.09 37.84 101.26 C39.09 100 39.09 100 40.37 98.72 C41.22 97.86 42.06 97.01 42.94 96.12 C43.81 95.25 44.69 94.37 45.59 93.46 C47.73 91.31 49.86 89.16 52 87 C50.42 83.1 47.75 80.48 44.81 77.58 C44.3 77.07 43.8 76.57 43.28 76.05 C42.21 74.99 41.15 73.93 40.08 72.87 C38.43 71.25 36.8 69.61 35.17 67.98 C34.13 66.95 33.09 65.92 32.06 64.89 C31.57 64.4 31.08 63.91 30.57 63.4 C28.62 61.03 28.62 61.03 26 60 Z " fill="#F9E895" transform="translate(138,45)"/>
<path d="M0 0 C7.87 6.75 7.87 6.75 11.16 10.06 C11.89 10.8 12.63 11.54 13.38 12.3 C14.15 13.07 14.92 13.85 15.71 14.64 C16.92 15.86 16.92 15.86 18.15 17.1 C20.71 19.67 23.26 22.24 25.81 24.81 C29.19 28.22 32.57 31.62 35.96 35.02 C36.73 35.8 37.51 36.59 38.31 37.4 C39.03 38.12 39.75 38.84 40.49 39.59 C41.44 40.54 41.44 40.54 42.4 41.52 C43.95 43.09 43.95 43.09 46 44 C46 44.66 46 45.32 46 46 C46.89 46.42 46.89 46.42 47.79 46.85 C60.74 53.58 75.53 66.92 82 80 C86.53 95.45 84.06 113.27 82 129 C78.59 127.53 76.37 125.62 73.76 123 C72.92 122.17 72.09 121.33 71.22 120.47 C69.86 119.09 69.86 119.09 68.46 117.69 C67.47 116.69 66.48 115.7 65.48 114.71 C62.83 112.06 60.18 109.4 57.53 106.74 C55.05 104.24 52.56 101.75 50.07 99.26 C42.79 91.97 35.52 84.67 28.25 77.38 C12 61.08 -4.25 44.79 -21 28 C-21.33 94.99 -21.66 161.98 -22 231 C-22.66 231 -23.32 231 -24 231 C-24 162.69 -24 94.38 -24 24 C-20.39 25.81 -18.72 27.07 -16 29.88 C-14.89 31.01 -14.89 31.01 -13.75 32.17 C-12.99 32.96 -12.22 33.75 -11.44 34.56 C-9.92 36.13 -8.4 37.69 -6.87 39.25 C-6.2 39.95 -5.53 40.64 -4.84 41.36 C-3 43.22 -3 43.22 0 44 C0 29.48 0 14.96 0 0 Z " fill="#D29138" transform="translate(157,8)"/>
<path d="M0 0 C0 13.53 0 27.06 0 41 C0.66 41 1.32 41 2 41 C2.33 40.01 2.66 39.02 3 38 C4.67 36.35 4.67 36.35 6.75 34.62 C9.22 32.53 11.62 30.45 13.88 28.12 C16 26 16 26 18 25 C16.53 28.39 14.65 30.6 12.05 33.2 C11.23 34.03 10.4 34.86 9.55 35.72 C8.65 36.62 7.74 37.52 6.81 38.45 C5.85 39.42 4.88 40.38 3.92 41.35 C1.31 43.97 -1.31 46.58 -3.93 49.19 C-6.66 51.93 -9.4 54.67 -12.13 57.4 C-16.72 62 -21.31 66.59 -25.91 71.17 C-31.23 76.48 -36.54 81.8 -41.85 87.12 C-46.41 91.68 -50.97 96.24 -55.53 100.8 C-58.25 103.52 -60.98 106.25 -63.7 108.97 C-66.26 111.54 -68.82 114.09 -71.38 116.65 C-72.78 118.04 -74.17 119.43 -75.55 120.83 C-76.79 122.05 -76.79 122.05 -78.05 123.31 C-78.77 124.02 -79.49 124.74 -80.23 125.48 C-82 127 -82 127 -84 127 C-89.61 85.85 -89.61 85.85 -80.7 72.34 C-72.53 61.67 -61.43 51.17 -50 44 C-49.34 44 -48.68 44 -48 44 C-48 43.34 -48 42.68 -48 42 C-46.77 40.79 -46.77 40.79 -44.92 39.3 C-40.75 35.75 -36.89 31.97 -33.05 28.08 C-32.43 27.45 -31.8 26.82 -31.16 26.17 C-28.54 23.53 -25.93 20.88 -23.33 18.23 C-21.41 16.28 -19.48 14.34 -17.55 12.39 C-16.97 11.79 -16.38 11.2 -15.78 10.58 C-12.72 7.5 -9.86 5.09 -6 3 C-5.28 2.44 -4.56 1.89 -3.81 1.31 C-2 0 -2 0 0 0 Z " fill="#E5AE51" transform="translate(84,10)"/>
<path d="M0 0 C0 8.91 0 17.82 0 27 C0.99 26.67 1.98 26.34 3 26 C1.12 29.88 1.12 29.88 0 31 C-0.13 34.1 -0.19 37.19 -0.21 40.29 C-0.22 41.27 -0.23 42.24 -0.24 43.25 C-0.27 46.49 -0.29 49.73 -0.32 52.97 C-0.34 55.21 -0.36 57.45 -0.38 59.69 C-0.43 65.6 -0.48 71.51 -0.53 77.42 C-0.58 83.45 -0.64 89.48 -0.69 95.5 C-0.8 107.33 -0.9 119.17 -1 131 C-2.12 130.06 -3.23 129.12 -4.35 128.17 C-4.97 127.65 -5.59 127.12 -6.23 126.58 C-8.64 124.43 -10.62 122.04 -12.62 119.5 C-13.7 118.15 -13.7 118.15 -14.79 116.78 C-15.52 115.86 -16.25 114.95 -17 114 C-17.86 113.21 -18.71 112.42 -19.59 111.6 C-23.43 106.98 -22.73 101.33 -22.71 95.6 C-22.72 94.41 -22.74 93.22 -22.75 92 C-22.8 88.2 -22.8 84.42 -22.81 80.62 C-22.84 78.05 -22.86 75.48 -22.89 72.9 C-22.95 66.6 -22.99 60.3 -23 54 C-25.47 56.47 -25.27 57.23 -25.32 60.63 C-25.34 61.59 -25.36 62.55 -25.38 63.54 C-25.4 65.1 -25.4 65.1 -25.41 66.7 C-25.43 67.76 -25.45 68.82 -25.47 69.92 C-25.53 73.32 -25.58 76.72 -25.62 80.12 C-25.66 82.43 -25.7 84.73 -25.74 87.04 C-25.84 92.69 -25.92 98.34 -26 104 C-30.56 102.48 -32.37 98.97 -35.24 95.22 C-37.13 92.87 -39.08 91.07 -41.48 89.25 C-47.4 84.48 -51 80.3 -51.94 72.49 C-52.23 69.02 -52.3 65.55 -52.31 62.06 C-52.32 61.37 -52.34 60.69 -52.35 59.98 C-52.44 48.56 -52.44 48.56 -49.47 45.34 C-48.11 44.17 -46.72 43.02 -45.32 41.9 C-41.1 38.45 -37.39 34.45 -33.57 30.57 C-31.79 28.77 -30.01 26.97 -28.22 25.17 C-25.44 22.35 -22.65 19.53 -19.88 16.71 C-17.18 13.96 -14.47 11.23 -11.76 8.5 C-10.93 7.65 -10.09 6.8 -9.23 5.92 C-8.46 5.14 -7.68 4.36 -6.89 3.56 C-6.21 2.87 -5.53 2.18 -4.83 1.47 C-3 0 -3 0 0 0 Z " fill="#EEB956" transform="translate(69,80)"/>
<path d="M0 0 C0.66 0 1.32 0 2 0 C2 0.66 2 1.32 2 2 C2.66 2 3.32 2 4 2 C5.62 3.38 5.62 3.38 7 5 C7 5.66 7 6.32 7 7 C7.57 7.25 8.14 7.49 8.73 7.74 C11.38 9.21 13.14 10.93 15.26 13.1 C16.05 13.9 16.84 14.7 17.65 15.53 C18.47 16.36 19.28 17.2 20.12 18.06 C21.75 19.72 23.38 21.38 25.01 23.04 C25.73 23.77 26.44 24.51 27.18 25.27 C28.9 27.07 28.9 27.07 31 28 C31 28.66 31 29.32 31 30 C31.6 30.27 32.2 30.54 32.81 30.81 C35.21 32.11 36.4 32.78 38 35 C38.37 37.82 38.56 40.42 38.61 43.25 C38.63 44.07 38.64 44.88 38.66 45.73 C38.69 47.45 38.71 49.18 38.72 50.91 C38.75 53.53 38.84 56.14 38.94 58.76 C39.2 72.82 39.2 72.82 33.68 78.96 C32.14 80.33 30.59 81.68 29 83 C27.77 84.35 26.55 85.72 25.38 87.12 C24.82 87.76 24.27 88.39 23.7 89.04 C22.48 90.44 21.28 91.85 20.08 93.27 C19.46 94.01 18.83 94.74 18.19 95.5 C17.62 96.17 17.06 96.84 16.48 97.53 C15 99 15 99 13 99 C12.67 91.41 12.34 83.82 12 76 C8.14 79.94 8.14 79.94 4.28 83.9 C2.89 85.3 1.45 86.65 0 88 C-0.66 88 -1.32 88 -2 88 C-2 88.66 -2 89.32 -2 90 C-2.66 90 -3.32 90 -4 90 C-4 90.66 -4 91.32 -4 92 C-5.57 93.55 -5.57 93.55 -7.69 95.31 C-9.14 96.53 -10.57 97.76 -12 99 C-13.35 99.97 -13.35 99.97 -14.72 100.96 C-18.28 105.71 -17.78 110.53 -17.81 116.31 C-17.84 117.43 -17.86 118.56 -17.89 119.71 C-17.95 122.48 -17.98 125.24 -18 128 C-18.66 128 -19.32 128 -20 128 C-20.99 129.98 -20.99 129.98 -22 132 C-22.33 131.01 -22.66 130.02 -23 129 C-22.26 128.41 -22.26 128.41 -21.51 127.81 C-19.51 125.41 -19.73 124.17 -19.91 121.1 C-20.35 105 -20.35 105 -17.8 101.23 C-16.27 99.83 -14.7 98.63 -13 97.44 C-9.12 94.66 -7.27 92.46 -6.39 87.67 C-5.97 82.26 -5.9 76.91 -6.01 71.5 C-6.04 70.22 -6.06 68.94 -6.09 67.63 C-6.14 66.47 -6.19 65.32 -6.24 64.13 C-5.86 59.25 -3.5 56.23 -0.08 52.89 C0.4 52.41 0.88 51.94 1.37 51.45 C1.97 50.87 2.57 50.29 3.19 49.69 C6.06 46.87 6.06 46.87 9 44 C2.73 37.73 -3.54 31.46 -10 25 C-7 25 -7 25 -5 26.94 C-4.34 27.62 -3.68 28.3 -3 29 C-2.01 29.33 -1.02 29.66 0 30 C0 20.1 0 10.2 0 0 Z " fill="#D9A74F" transform="translate(182,88)"/>
<path d="M0 0 C7.88 6.75 7.88 6.75 10.82 9.71 C11.48 10.37 12.14 11.03 12.82 11.71 C13.51 12.4 14.2 13.09 14.9 13.8 C15.62 14.53 16.35 15.25 17.09 16 C19.38 18.29 21.66 20.58 23.94 22.88 C25.5 24.44 27.05 26 28.61 27.56 C32.41 31.37 36.21 35.19 40 39 C39.01 39.49 39.01 39.49 38 40 C37.01 39.51 37.01 39.51 36 39 C36 52.86 36 66.72 36 81 C31.43 78.72 28.6 75.71 25.15 72.08 C22.19 69.01 19.77 67.26 16 65 C3.79 52.79 -8.42 40.58 -21 28 C-21.33 94.99 -21.66 161.98 -22 231 C-22.66 231 -23.32 231 -24 231 C-24 162.69 -24 94.38 -24 24 C-20.39 25.81 -18.72 27.07 -16 29.88 C-14.89 31.01 -14.89 31.01 -13.75 32.17 C-12.99 32.96 -12.22 33.75 -11.44 34.56 C-9.92 36.13 -8.4 37.69 -6.87 39.25 C-6.2 39.95 -5.53 40.64 -4.84 41.36 C-3 43.22 -3 43.22 0 44 C0 29.48 0 14.96 0 0 Z " fill="#D7C27D" transform="translate(157,8)"/>
<path d="M0 0 C0 62.37 0 124.74 0 189 C-1.65 189 -3.3 189 -5 189 C-7 186 -7 186 -7.94 184.06 C-8.92 181.95 -8.92 181.95 -10.54 180.29 C-12.52 177.18 -12.37 174.97 -12.36 171.29 C-12.36 170.28 -12.36 170.28 -12.37 169.25 C-12.37 167 -12.36 164.75 -12.34 162.49 C-12.34 160.87 -12.34 159.26 -12.34 157.64 C-12.34 153.25 -12.33 148.87 -12.3 144.48 C-12.29 139.89 -12.28 135.31 -12.28 130.72 C-12.27 122.04 -12.25 113.35 -12.22 104.67 C-12.18 94.78 -12.17 84.9 -12.15 75.01 C-12.12 54.67 -12.07 34.34 -12 14 C-12.78 14.52 -13.57 15.03 -14.38 15.56 C-15.24 16.04 -16.11 16.51 -17 17 C-17.66 16.67 -18.32 16.34 -19 16 C-16.41 13.32 -13.8 10.66 -11.19 8 C-10.45 7.24 -9.71 6.47 -8.95 5.69 C-8.24 4.97 -7.53 4.24 -6.79 3.5 C-6.14 2.83 -5.48 2.16 -4.81 1.47 C-3 0 -3 0 0 0 Z " fill="#F4E695" transform="translate(97,50)"/>
<path d="M0 0 C5.18 4.34 10.08 8.87 14.88 13.62 C15.55 14.28 16.23 14.93 16.92 15.61 C17.56 16.25 18.21 16.88 18.87 17.54 C19.74 18.39 19.74 18.39 20.62 19.26 C23.55 22.95 23.07 26.76 22.88 31.3 C22.83 32.5 22.78 33.71 22.73 34.95 C22.68 36.2 22.62 37.46 22.56 38.75 C22.51 40.02 22.46 41.29 22.4 42.6 C22.27 45.73 22.14 48.87 22 52 C18.15 51.21 16.74 49.82 14 47 C13.18 46.5 12.35 46.01 11.5 45.5 C9 44 9 44 5 40 C5 56.5 5 73 5 90 C13.25 81.75 21.5 73.5 30 65 C30.99 65.5 30.99 65.5 32 66 C31.58 66.41 31.16 66.82 30.73 67.24 C28.84 69.09 26.95 70.95 25.06 72.81 C24.4 73.46 23.74 74.1 23.06 74.76 C22.44 75.38 21.81 76 21.16 76.64 C20.58 77.22 20 77.79 19.4 78.37 C16.47 81.78 16.96 85.18 17.11 89.43 C17.46 112.31 17.46 112.31 13.3 116.84 C11.7 118.22 10.04 119.41 8.31 120.62 C5.52 122.77 4.2 124.14 3.39 127.65 C2.8 133.68 2.89 139.69 3.24 145.74 C2.94 148.54 2.08 149.2 0 151 C-0.3 151.79 -0.61 152.57 -0.92 153.38 C-2.22 156.52 -3.93 158.4 -6.25 160.88 C-7.05 161.74 -7.85 162.6 -8.67 163.48 C-9.44 164.31 -10.21 165.14 -11 166 C-13.02 168.31 -15.01 170.65 -17 173 C-17.66 172.67 -18.32 172.34 -19 172 C-18.15 171.07 -18.15 171.07 -17.28 170.13 C-16.51 169.28 -15.73 168.44 -14.94 167.56 C-14.18 166.74 -13.43 165.92 -12.65 165.07 C-12.24 164.59 -11.83 164.11 -11.41 163.61 C-10.4 162.45 -9.33 161.34 -8.24 160.26 C-1.96 153.42 -2.01 146.95 -2.11 138.03 C-2.11 136.53 -2.09 135.03 -2.08 133.53 C-2.05 129.48 -2.07 125.44 -2.09 121.39 C-2.1 117.16 -2.08 112.92 -2.06 108.69 C-2.03 100.68 -2.03 92.66 -2.05 84.65 C-2.07 75.53 -2.05 66.4 -2.02 57.28 C-1.97 38.52 -1.97 19.76 -2 1 C-1.34 0.67 -0.68 0.34 0 0 Z " fill="#ECCE78" transform="translate(160,66)"/>
<path d="M0 0 C0.99 0.33 1.98 0.66 3 1 C2.34 14.53 1.68 28.06 1 42 C5.17 39.5 7.04 38.1 10 34.56 C12.8 31.31 15.56 28.6 19 26 C21.8 23.34 24.36 20.59 26.81 17.62 C29.62 14.3 32.72 11.52 36.03 8.71 C38.83 6.28 41.41 3.66 44 1 C44.99 1.49 44.99 1.49 46 2 C35.61 12.44 25.21 22.87 14.81 33.29 C9.98 38.13 5.15 42.97 0.33 47.82 C-4.32 52.49 -8.98 57.16 -13.64 61.83 C-15.42 63.61 -17.2 65.4 -18.97 67.18 C-21.45 69.68 -23.94 72.17 -26.43 74.66 C-27.17 75.4 -27.91 76.15 -28.67 76.92 C-29.35 77.6 -30.03 78.27 -30.72 78.96 C-31.6 79.85 -31.6 79.85 -32.5 80.75 C-34 82 -34 82 -36 82 C-39.2 38.04 -39.2 38.04 -32.17 28.01 C-28 23.49 -23.26 20.14 -18 17 C-14.77 14.58 -12.13 12.17 -9.56 9.06 C-6.59 5.61 -3.73 2.63 0 0 Z " fill="#D08F36" transform="translate(36,55)"/>
<path d="M0 0 C3 1 3 1 4 3 C4.9 3.22 4.9 3.22 5.81 3.44 C8.45 4.12 9.98 5.2 12 7 C12 7.66 12 8.32 12 9 C12.6 9.27 13.2 9.54 13.81 9.81 C16.21 11.11 17.4 11.78 19 14 C19.37 16.82 19.56 19.42 19.61 22.25 C19.63 23.07 19.64 23.88 19.66 24.73 C19.69 26.45 19.71 28.18 19.72 29.91 C19.75 32.53 19.84 35.14 19.94 37.76 C20.2 51.82 20.2 51.82 14.68 57.96 C13.14 59.33 11.59 60.68 10 62 C8.77 63.35 7.55 64.72 6.38 66.12 C5.55 67.07 5.55 67.07 4.7 68.04 C3.48 69.44 2.28 70.85 1.08 72.27 C0.46 73.01 -0.17 73.74 -0.81 74.5 C-1.38 75.17 -1.94 75.84 -2.52 76.53 C-4 78 -4 78 -6 78 C-6 77.34 -6 76.68 -6 76 C-4.78 74.92 -4.78 74.92 -3.54 73.82 C-0.35 70.28 -0.37 68.61 -0.34 63.91 C-0.32 62.87 -0.32 62.87 -0.31 61.81 C-0.28 59.54 -0.29 57.26 -0.29 54.98 C-0.28 53.4 -0.26 51.81 -0.25 50.23 C-0.21 46.07 -0.2 41.9 -0.19 37.74 C-0.18 33.49 -0.15 29.24 -0.11 24.99 C-0.05 16.66 -0.01 8.33 0 0 Z " fill="#CD8E36" transform="translate(201,109)"/>
<path d="M0 0 C5 0 5 0 7.31 1.74 C8.08 2.54 8.85 3.34 9.64 4.16 C10.91 5.44 10.91 5.44 12.19 6.75 C13.06 7.66 13.92 8.57 14.81 9.5 C15.7 10.41 16.58 11.31 17.49 12.25 C19.67 14.49 21.84 16.74 24 19 C23.34 19.33 22.68 19.66 22 20 C21.34 19.67 20.68 19.34 20 19 C20 32.86 20 46.72 20 61 C15.43 58.72 12.6 55.71 9.15 52.08 C6.3 49.13 3.53 47.06 0 45 C-1.48 43.65 -2.92 42.25 -4.31 40.81 C-5.01 40.1 -5.71 39.38 -6.43 38.64 C-7.21 37.83 -7.21 37.83 -8 37 C-5 37 -5 37 0 41 C0 27.47 0 13.94 0 0 Z " fill="#DDB057" transform="translate(173,28)"/>
<path d="M0 0 C0.03 2.04 0.05 4.08 0.06 6.12 C0.07 7.26 0.09 8.4 0.1 9.57 C0.07 13.14 -0.21 16.66 -0.5 20.22 C-1.21 29.6 -1.11 38.97 -1.06 48.38 C-1.06 50.19 -1.05 52.01 -1.05 53.82 C-1.04 58.21 -1.02 62.61 -1 67 C-1.75 66.23 -2.5 65.46 -3.28 64.67 C-5.33 62.66 -7.24 60.99 -9.55 59.32 C-15.73 54.3 -19.99 49.58 -21.02 41.41 C-21.31 37.94 -21.38 34.48 -21.38 31 C-21.38 30.31 -21.39 29.63 -21.4 28.92 C-21.46 17.98 -21.46 17.98 -18.29 13.68 C-16.28 11.93 -14.22 10.47 -12 9 C-9.62 6.61 -7.3 4.18 -4.98 1.72 C-3 0 -3 0 0 0 Z " fill="#D99536" transform="translate(38,111)"/>
<path d="M0 0 C0 13.53 0 27.06 0 41 C0.66 41 1.32 41 2 41 C2.33 40.01 2.66 39.02 3 38 C4.67 36.35 4.67 36.35 6.75 34.62 C9.22 32.53 11.62 30.45 13.88 28.12 C16 26 16 26 18 25 C16.56 28.28 14.78 30.47 12.26 33 C11.52 33.74 10.79 34.49 10.03 35.25 C9.25 36.01 8.48 36.78 7.69 37.56 C6.93 38.33 6.17 39.1 5.38 39.89 C4.64 40.63 3.9 41.37 3.14 42.13 C2.46 42.8 1.79 43.47 1.1 44.16 C-2.88 47.65 -5.74 48.95 -11 50 C-11.33 37.46 -11.66 24.92 -12 12 C-15.54 14.12 -17.65 15.4 -20.38 18.17 C-20.99 18.78 -21.61 19.4 -22.24 20.04 C-22.89 20.7 -23.54 21.36 -24.21 22.05 C-24.89 22.74 -25.58 23.43 -26.28 24.14 C-28.46 26.34 -30.64 28.54 -32.81 30.75 C-34.98 32.94 -37.14 35.13 -39.31 37.32 C-40.66 38.68 -42 40.04 -43.34 41.4 C-47.14 45.24 -51.05 48.86 -55.18 52.34 C-57.12 54.11 -58.8 55.99 -60.5 58 C-63.34 61.35 -66.39 64.16 -69.73 66.99 C-74.37 71.1 -78.66 75.59 -83 80 C-83 77 -83 77 -81.76 75.39 C-80.89 74.52 -80.89 74.52 -80 73.63 C-79.35 72.97 -78.69 72.31 -78.02 71.63 C-77.3 70.92 -76.59 70.22 -75.85 69.49 C-75.12 68.76 -74.4 68.03 -73.65 67.28 C-72.1 65.74 -70.56 64.21 -69.01 62.67 C-66.63 60.32 -64.27 57.95 -61.91 55.58 C-60.41 54.09 -58.91 52.6 -57.41 51.11 C-56.7 50.4 -55.99 49.69 -55.26 48.95 C-54.6 48.3 -53.94 47.65 -53.26 46.98 C-52.67 46.4 -52.09 45.83 -51.49 45.23 C-50 44 -50 44 -48 44 C-48 43.34 -48 42.68 -48 42 C-46.77 40.79 -46.77 40.79 -44.92 39.3 C-40.75 35.75 -36.89 31.97 -33.05 28.08 C-32.43 27.45 -31.8 26.82 -31.16 26.17 C-28.54 23.53 -25.93 20.88 -23.33 18.23 C-21.41 16.28 -19.48 14.34 -17.55 12.39 C-16.97 11.79 -16.38 11.2 -15.78 10.58 C-12.72 7.5 -9.86 5.09 -6 3 C-5.28 2.44 -4.56 1.89 -3.81 1.31 C-2 0 -2 0 0 0 Z " fill="#EBCB7A" transform="translate(84,10)"/>
<path d="M0 0 C13.27 11.07 13.27 11.07 14 16 C14.02 18.1 13.97 20.2 13.88 22.3 C13.83 23.5 13.78 24.71 13.73 25.95 C13.68 27.2 13.62 28.46 13.56 29.75 C13.51 31.02 13.46 32.29 13.4 33.6 C13.27 36.73 13.14 39.87 13 43 C9.15 42.21 7.74 40.82 5 38 C4.18 37.5 3.35 37.01 2.5 36.5 C0 35 0 35 -4 31 C-4.33 48.16 -4.66 65.32 -5 83 C-5.99 83.5 -5.99 83.5 -7 84 C-7 65.19 -7 46.38 -7 27 C-5.68 27.33 -4.36 27.66 -3 28 C-2.67 19.09 -2.34 10.18 -2 1 C-1.34 0.67 -0.68 0.34 0 0 Z " fill="#E3BD64" transform="translate(169,75)"/>
<path d="M0 0 C1.15 0.98 2.29 1.96 3.44 2.94 C4.08 3.48 4.71 4.03 5.37 4.59 C6.27 5.37 7.16 6.16 8 7 C8.09 8.53 8.12 10.07 8.11 11.61 C8.11 12.59 8.11 13.57 8.11 14.58 C8.11 15.65 8.1 16.72 8.1 17.82 C8.1 18.9 8.09 19.99 8.09 21.11 C8.09 24.59 8.08 28.08 8.06 31.56 C8.06 33.92 8.05 36.27 8.05 38.63 C8.04 44.42 8.02 50.21 8 56 C6.08 55.2 6.08 55.2 4 54 C2.75 50.88 2.75 50.88 2 48 C1.67 48 1.34 48 1 48 C-0.3 38.14 -0.11 28.3 -0.06 18.38 C-0.06 16.59 -0.05 14.8 -0.05 13.02 C-0.04 8.68 -0.02 4.34 0 0 Z " fill="#F5A73A" transform="translate(231,81)"/>
<path d="M0 0 C0.66 0 1.32 0 2 0 C3.02 3.06 3.09 5.01 3.02 8.21 C3 9.27 2.98 10.33 2.96 11.42 C2.93 12.56 2.91 13.71 2.88 14.89 C2.86 16.06 2.83 17.23 2.81 18.44 C2.73 22.19 2.65 25.94 2.56 29.69 C2.51 32.23 2.46 34.77 2.4 37.31 C2.28 43.54 2.14 49.77 2 56 C1.01 56.5 1.01 56.5 0 57 C0 38.19 0 19.38 0 0 Z " fill="#CBB26A" transform="translate(162,102)"/>
<path d="M0 0 C0.99 0.33 1.98 0.66 3 1 C-1.94 5.99 -6.89 10.98 -11.84 15.95 C-13.53 17.65 -15.21 19.35 -16.9 21.05 C-19.31 23.48 -21.73 25.91 -24.15 28.34 C-24.9 29.11 -25.66 29.87 -26.44 30.66 C-27.14 31.36 -27.84 32.07 -28.56 32.79 C-29.18 33.41 -29.79 34.03 -30.43 34.67 C-32 36 -32 36 -34 36 C-32.36 31.78 -29.24 28.98 -26.07 25.88 C-25.49 25.3 -24.91 24.72 -24.3 24.12 C-22.44 22.26 -20.56 20.41 -18.69 18.56 C-17.44 17.32 -16.19 16.08 -14.94 14.84 C-12.63 12.55 -10.33 10.27 -8.01 7.98 C-5.33 5.33 -2.66 2.67 0 0 Z " fill="#AE772A" transform="translate(34,101)"/>
<path d="M0 0 C0 0.99 0 1.98 0 3 C-1.8 4.41 -3.62 5.8 -5.44 7.19 C-9.84 10.97 -11.35 14.28 -11.95 20.06 C-12.28 26.04 -12.24 32.02 -12 38 C-12.66 38 -13.32 38 -14 38 C-14.66 39.32 -15.32 40.64 -16 42 C-16.5 40.51 -16.5 40.51 -17 39 C-16.26 38.41 -16.26 38.41 -15.5 37.8 C-13.51 35.41 -13.74 34.2 -13.95 31.13 C-14.5 14.18 -14.5 14.18 -10.05 8.59 C-6.97 5.36 -3.61 2.62 0 0 Z " fill="#BFA661" transform="translate(176,178)"/>
<path d="M0 0 C0.66 0.33 1.32 0.66 2 1 C-7.76 12.42 -7.76 12.42 -12 16 C-12.66 16 -13.32 16 -14 16 C-14 16.66 -14 17.32 -14 18 C-14.66 18 -15.32 18 -16 18 C-16.33 18.66 -16.66 19.32 -17 20 C-16.43 16.34 -15.03 14.67 -12.4 12.11 C-11.68 11.4 -10.97 10.69 -10.22 9.96 C-9.47 9.23 -8.72 8.5 -7.94 7.75 C-7.18 7 -6.42 6.26 -5.64 5.49 C-3.77 3.65 -1.89 1.82 0 0 Z " fill="#B38D45" transform="translate(194,160)"/>
<path d="M0 0 C0.33 0.99 0.66 1.98 1 3 C0.35 3.71 -0.3 4.43 -0.98 5.16 C-5.73 10.37 -10.45 15.61 -15 21 C-15.66 20.67 -16.32 20.34 -17 20 C-16.44 19.39 -15.89 18.79 -15.31 18.16 C-9.96 12.29 -4.89 6.26 0 0 Z " fill="#CFC07A" transform="translate(158,218)"/>
<path d="M0 0 C0 3 0 3 -1.65 4.99 C-2.78 6.1 -2.78 6.1 -3.94 7.23 C-4.75 8.03 -5.56 8.84 -6.4 9.66 C-7.26 10.5 -8.12 11.33 -9 12.19 C-10.29 13.45 -10.29 13.45 -11.6 14.75 C-13.73 16.84 -15.86 18.92 -18 21 C-18.66 20.67 -19.32 20.34 -20 20 C-16.26 15.42 -12.4 11.47 -7.9 7.64 C-5.47 5.54 -3.24 3.3 -1 1 C-0.67 0.67 -0.34 0.34 0 0 Z " fill="#C9BE7B" transform="translate(101,35)"/>
</svg>
