<?xml version="1.0" encoding="UTF-8"?>
<!-- Generator: https://ezgif.com/png-to-svg -->
<svg version="1.1" xmlns="http://www.w3.org/2000/svg" width="512" height="512" viewBox="-42.094 -36.658 684.197 684.197" preserveAspectRatio="xMidYMid meet">
<path d="M0 0 C2.41 0.87 3.65 1.9 5.49 3.67 C6.11 4.26 6.73 4.85 7.38 5.47 C8.03 6.1 8.68 6.73 9.35 7.38 C10.69 8.66 12.03 9.94 13.37 11.22 C14.01 11.83 14.66 12.44 15.32 13.07 C18.03 15.64 20.84 18.09 23.68 20.52 C24.86 21.55 25.99 22.65 27.1 23.75 C28.33 24.19 28.33 24.19 29.6 24.63 C32.64 26 32.66 26.85 34.1 29.75 C36.55 32.49 39.28 34.94 41.97 37.44 C42.69 38.13 43.41 38.82 44.15 39.53 C44.85 40.19 45.55 40.84 46.28 41.52 C46.91 42.11 47.55 42.71 48.2 43.33 C50.21 44.84 51.68 45.21 54.1 45.75 C55.1 47.57 55.1 47.57 56.1 49.75 C59.06 53.27 61.48 54.49 65.89 55.64 C67.02 55.94 68.14 56.24 69.3 56.55 C70.47 56.84 71.64 57.14 72.85 57.44 C74 57.75 75.16 58.06 76.35 58.37 C82.26 59.92 88.01 61.19 94.1 61.75 C94.1 62.41 94.1 63.07 94.1 63.75 C94.62 63.95 95.14 64.16 95.68 64.36 C107.48 68.92 118.92 73.81 130.1 79.75 C130.91 80.18 131.72 80.61 132.55 81.05 C142.57 86.35 152.13 91.77 161.1 98.75 C163.07 100.22 165.05 101.68 167.03 103.13 C167.91 103.78 168.78 104.42 169.69 105.09 C171.78 106.53 173.82 107.64 176.1 108.75 C177.1 109.75 178.1 110.75 179.1 111.75 C179.76 111.75 180.42 111.75 181.1 111.75 C182.1 113.42 183.1 115.08 184.1 116.75 C186.77 118.94 186.77 118.94 189.1 118.75 C189.51 119.45 189.92 120.14 190.34 120.86 C192.52 124.45 195.18 127.13 198.16 130.07 C198.7 130.62 199.24 131.17 199.8 131.73 C202.45 134.77 202.45 134.77 206.1 135.75 C206.16 136.59 206.16 136.59 206.22 137.44 C207.53 140.91 210.26 142.44 213.1 144.75 C213.78 146.08 214.45 147.41 215.1 148.75 C215.78 149.08 216.46 149.41 217.16 149.75 C217.8 150.08 218.44 150.41 219.1 150.75 C219.46 152.08 219.79 153.41 220.1 154.75 C221.09 155.08 222.08 155.41 223.1 155.75 C223.78 157.82 223.78 157.82 224.1 159.75 C224.76 159.75 225.42 159.75 226.1 159.75 C226.43 161.07 226.76 162.39 227.1 163.75 C227.76 163.75 228.42 163.75 229.1 163.75 C229.43 164.74 229.76 165.73 230.1 166.75 C231.76 169.8 231.76 169.8 234.1 170.75 C234.72 173.32 234.72 173.32 235.1 175.75 C236.09 176.08 237.08 176.41 238.1 176.75 C239.28 180.32 239.28 180.32 240.1 183.75 C240.76 183.75 241.42 183.75 242.1 183.75 C242.1 185.4 242.1 187.05 242.1 188.75 C242.76 189.08 243.42 189.41 244.1 189.75 C245.1 191.51 246.11 193.27 247.08 195.05 C248.06 196.86 248.06 196.86 249.78 198.38 C251.61 200.29 251.58 202.2 252.1 204.75 C252.59 205.23 253.09 205.7 253.6 206.19 C255.75 208.43 255.59 210.74 256.1 213.75 C256.87 214.5 256.87 214.5 257.66 215.25 C259.1 216.75 259.1 216.75 259.28 219.94 C259.22 220.87 259.16 221.8 259.1 222.75 C259.76 223.08 260.42 223.41 261.1 223.75 C261.1 224.74 261.1 225.73 261.1 226.75 C261.76 226.75 262.42 226.75 263.1 226.75 C263.28 227.71 263.28 227.71 263.47 228.69 C265 236.18 266.81 243.46 269.1 250.75 C269.76 250.75 270.42 250.75 271.1 250.75 C271.65 254.47 272.14 258.17 272.5 261.91 C273.04 266.8 274.04 271.53 275.16 276.32 C275.44 277.54 275.44 277.54 275.72 278.8 C276.18 280.78 276.64 282.77 277.1 284.75 C277.43 284.75 277.76 284.75 278.1 284.75 C278.08 285.88 278.08 285.88 278.06 287.03 C278.05 288.05 278.04 289.07 278.03 290.13 C278.02 291.63 278.02 291.63 278 293.15 C278.07 295.84 278.27 298.35 278.58 301.01 C282.29 336.21 278.6 374.1 267.65 407.69 C266.95 409.95 266.95 409.95 267.1 413.19 C267.1 414.04 267.1 414.88 267.1 415.75 C266.1 416.75 265.1 417.75 264.1 418.75 C263.44 420.76 262.97 422.76 262.53 424.82 C261.92 427.53 260.97 430.12 260.1 432.75 C259.79 433.79 259.48 434.82 259.16 435.88 C258.1 438.75 258.1 438.75 256.1 439.75 C257.36 443.54 258.59 443.93 261.97 445.94 C265.8 448.29 269.49 450.71 273.1 453.38 C278.37 457.27 283.75 460.99 289.16 464.69 C290 465.27 290.85 465.85 291.72 466.45 C292.52 466.99 293.31 467.54 294.13 468.09 C295.2 468.83 295.2 468.83 296.3 469.57 C298.09 470.8 298.09 470.8 300.1 471.75 C300.1 472.74 300.1 473.73 300.1 474.75 C299.53 475.02 298.96 475.29 298.38 475.56 C297.65 475.91 296.91 476.27 296.16 476.63 C295.43 476.98 294.7 477.33 293.94 477.68 C291.93 478.62 291.93 478.62 291.1 480.75 C289.43 481.09 287.76 481.42 286.1 481.75 C283.55 482.95 283.55 482.95 281 484.48 C280.04 485.04 279.08 485.59 278.09 486.16 C277.08 486.75 276.07 487.34 275.03 487.94 C268.15 491.9 261.29 495.76 254.15 499.22 C249.86 501.37 245.67 503.68 241.47 506 C240.67 506.44 239.88 506.88 239.06 507.33 C238.32 507.74 237.57 508.16 236.81 508.58 C236.14 508.95 235.47 509.32 234.78 509.7 C232.93 510.77 232.93 510.77 231.1 512.75 C230.11 513.08 229.12 513.41 228.1 513.75 C226.7 514.49 225.31 515.26 223.94 516.04 C223.14 516.49 222.35 516.94 221.53 517.4 C219.86 518.35 218.19 519.3 216.52 520.25 C215.34 520.92 215.34 520.92 214.12 521.6 C213.4 522.01 212.67 522.43 211.93 522.85 C210.1 523.75 210.1 523.75 208.1 523.75 C207.77 524.41 207.44 525.07 207.1 525.75 C204.7 527.03 202.3 528.22 199.85 529.38 C186.27 536.02 172.86 543.99 162.1 554.75 C158.5 557.2 154.79 559.46 151.1 561.75 C150.53 562.1 149.97 562.45 149.39 562.82 C139.52 568.91 129.41 574.46 119.1 579.75 C118.39 580.12 117.68 580.49 116.95 580.87 C116.26 581.23 115.56 581.58 114.84 581.95 C114.22 582.28 113.6 582.6 112.95 582.93 C111.02 583.79 109.16 584.27 107.1 584.75 C104.67 585.65 102.26 586.57 99.85 587.5 C81.45 594.49 62.54 599.66 43.1 602.75 C42.26 602.89 41.42 603.03 40.55 603.17 C-6.42 610.64 -55.66 605.02 -99.9 587.75 C-100.64 587.47 -101.38 587.19 -102.13 586.9 C-123.41 578.64 -143.91 567.93 -162.34 554.43 C-164.72 552.66 -164.72 552.66 -167.13 552.26 C-167.71 552.09 -168.3 551.93 -168.9 551.75 C-169.18 551.18 -169.45 550.61 -169.72 550.03 C-171.56 546.49 -174.59 544.67 -177.78 542.38 C-178.79 541.65 -178.79 541.65 -179.82 540.9 C-184.7 537.43 -189.7 534.61 -195.14 532.08 C-197.85 530.78 -200.35 529.33 -202.9 527.75 C-206.27 525.69 -209.66 523.85 -213.22 522.13 C-218.79 519.39 -224.15 516.36 -229.53 513.25 C-238.62 508.01 -247.82 503 -257.07 498.06 C-265.51 493.54 -273.87 488.87 -282.17 484.1 C-287.99 480.78 -293.88 477.69 -299.9 474.75 C-299.17 470.97 -299.17 470.97 -296.78 469.04 C-295.83 468.45 -294.88 467.86 -293.9 467.25 C-288.66 463.9 -283.54 460.43 -278.47 456.82 C-271.32 451.74 -264.13 446.73 -256.9 441.75 C-257.89 438.12 -258.88 434.49 -259.9 430.75 C-260.56 430.75 -261.22 430.75 -261.9 430.75 C-262.01 430.07 -262.12 429.38 -262.24 428.67 C-262.39 427.77 -262.55 426.87 -262.72 425.94 C-262.87 425.05 -263.02 424.16 -263.17 423.23 C-263.7 420.71 -263.7 420.71 -265.44 419.22 C-267.42 417.24 -267.33 415.87 -267.47 413.13 C-267.55 410.78 -267.55 410.78 -267.9 408.75 C-268.56 408.42 -269.22 408.09 -269.9 407.75 C-270.52 404.53 -270.86 401.31 -271.24 398.05 C-271.69 394.75 -271.69 394.75 -273.47 392.33 C-275.1 389.41 -275.02 387.47 -274.89 384.18 C-274.92 378.93 -276.01 373.74 -276.84 368.57 C-279.02 354.91 -280.08 341.58 -280.03 327.75 C-280.03 326.5 -280.02 325.24 -280.02 323.94 C-279.97 313.19 -279.6 302.48 -278.9 291.75 C-278.83 290.57 -278.76 289.38 -278.69 288.16 C-278.18 281.28 -278.18 281.28 -276.96 278.96 C-275.77 276.47 -275.18 274.14 -274.57 271.46 C-274.33 270.42 -274.09 269.39 -273.85 268.32 C-273.6 267.23 -273.35 266.13 -273.09 265 C-271.05 256.26 -268.81 247.68 -265.98 239.16 C-264.28 233.77 -262.95 228.31 -261.9 222.75 C-261.24 222.75 -260.58 222.75 -259.9 222.75 C-259.59 221.64 -259.29 220.53 -258.97 219.38 C-257.9 215.75 -257.9 215.75 -256.9 213.75 C-256.53 212.98 -256.16 212.2 -255.78 211.41 C-255.35 210.51 -254.91 209.61 -254.47 208.69 C-254.03 207.79 -253.6 206.89 -253.16 205.97 C-251.9 203.75 -251.9 203.75 -249.9 202.75 C-250.11 202.14 -250.32 201.52 -250.53 200.88 C-250.65 200.18 -250.78 199.48 -250.9 198.75 C-250.24 198.09 -249.58 197.43 -248.9 196.75 C-248.76 196.11 -248.62 195.48 -248.47 194.82 C-247.79 192.34 -246.81 191.43 -244.9 189.75 C-244.24 189.09 -243.58 188.43 -242.9 187.75 C-243.23 187.09 -243.56 186.43 -243.9 185.75 C-243.45 185.32 -243 184.89 -242.53 184.44 C-240.57 182.41 -239.16 180.27 -237.9 177.75 C-237.41 177.32 -236.91 176.89 -236.4 176.44 C-234.68 174.8 -234.68 174.8 -234.47 172.19 C-234.19 170.99 -234.19 170.99 -233.9 169.75 C-233.01 169.32 -233.01 169.32 -232.09 168.88 C-227.93 166.74 -226.34 162.06 -224.9 157.75 C-224.24 157.42 -223.58 157.09 -222.9 156.75 C-222.57 155.76 -222.24 154.77 -221.9 153.75 C-220.91 153.42 -219.92 153.09 -218.9 152.75 C-218.76 152.11 -218.62 151.48 -218.47 150.82 C-218.28 150.14 -218.1 149.46 -217.9 148.75 C-216.57 148.09 -215.24 147.42 -213.9 146.75 C-213.1 144.7 -213.1 144.7 -212.9 142.75 C-211.91 143.08 -210.92 143.41 -209.9 143.75 C-209.5 142.87 -209.5 142.87 -209.08 141.97 C-207.93 139.8 -206.7 138.12 -205.09 136.25 C-204.61 135.69 -204.13 135.12 -203.63 134.54 C-201.9 132.75 -201.9 132.75 -199.56 130.88 C-196.58 128.49 -193.86 125.89 -191.15 123.19 C-190.66 122.71 -190.17 122.23 -189.66 121.73 C-187.33 119.42 -185.96 117.92 -184.9 114.75 C-184.35 114.63 -183.79 114.5 -183.22 114.37 C-179.78 113.45 -177.48 111.17 -174.84 108.88 C-174.31 108.43 -173.78 107.98 -173.24 107.52 C-171.18 105.77 -169.16 104.02 -167.28 102.06 C-165.9 100.75 -165.9 100.75 -164.06 99.83 C-161.91 98.75 -160 97.54 -158.02 96.17 C-138.36 82.9 -115.23 68.36 -91.9 62.75 C-90.53 62.33 -89.15 61.9 -87.78 61.45 C-87 61.2 -86.21 60.95 -85.41 60.69 C-83.71 60.14 -82.02 59.59 -80.33 59.04 C-75.63 57.54 -71.01 56.32 -66.15 55.38 C-60.92 54.17 -58.5 51.92 -55.4 47.59 C-53.72 45.53 -52.28 44.89 -49.9 43.75 C-48.19 41.79 -46.52 39.8 -44.9 37.75 C-43.91 36.76 -43.91 36.76 -42.9 35.75 C-42.24 35.75 -41.58 35.75 -40.9 35.75 C-39.15 34.2 -39.15 34.2 -37.28 32.19 C-34.49 29.32 -31.66 26.64 -28.59 24.07 C-25.62 21.54 -23.89 19.12 -21.9 15.75 C-21.3 15.62 -20.69 15.49 -20.06 15.35 C-17.25 14.57 -16.14 13.25 -14.15 11.13 C-11.37 8.26 -8.59 5.41 -5.65 2.69 C-5.03 2.1 -4.41 1.51 -3.76 0.91 C-1.9 -0.25 -1.9 -0.25 0 0 Z M-58.9 54.75 C-58.57 55.41 -58.24 56.07 -57.9 56.75 C-58.56 57.08 -59.22 57.41 -59.9 57.75 C-59.9 139.92 -59.9 222.09 -59.9 306.75 C-61.55 307.41 -63.2 308.07 -64.9 308.75 C-65.23 309.43 -65.56 310.12 -65.9 310.82 C-66.23 311.46 -66.56 312.1 -66.9 312.75 C-67.58 312.84 -68.26 312.93 -68.96 313.02 C-73.38 314.12 -76.43 316.79 -80.03 319.5 C-81.64 320.7 -83.26 321.89 -84.88 323.08 C-86.12 324 -86.12 324 -87.39 324.93 C-91.36 327.81 -95.41 330.57 -99.47 333.32 C-106.19 337.89 -112.86 342.53 -119.49 347.23 C-124.79 350.99 -130.15 354.66 -135.53 358.32 C-142.8 363.26 -149.94 368.36 -157 373.61 C-158.93 375.04 -160.9 376.42 -162.9 377.75 C-165.43 379.48 -167.95 381.21 -170.47 382.94 C-171.13 383.4 -171.8 383.86 -172.48 384.33 C-177.12 387.51 -181.73 390.73 -186.34 393.96 C-188.88 395.74 -191.43 397.51 -193.97 399.29 C-194.81 399.87 -195.64 400.45 -196.5 401.05 C-198.19 402.23 -199.89 403.41 -201.58 404.59 C-210.45 410.44 -210.45 410.44 -218.44 417.36 C-219.9 418.75 -219.9 418.75 -222.9 419.75 C-225.39 421.39 -227.84 423.05 -230.28 424.75 C-231.34 425.49 -231.34 425.49 -232.41 426.24 C-233.87 427.24 -235.32 428.25 -236.77 429.26 C-239.4 431.1 -242.03 432.92 -244.67 434.74 C-247.08 436.41 -249.49 438.08 -251.9 439.75 C-251.75 440.7 -251.59 441.64 -251.43 442.61 C-251.13 444.41 -250.83 446.21 -250.53 448 C-249.96 450.15 -249.96 450.15 -246.9 451.75 C-246.57 453.75 -246.24 455.75 -245.9 457.75 C-244.91 458.41 -243.92 459.07 -242.9 459.75 C-242.76 460.54 -242.62 461.32 -242.47 462.13 C-242.12 464.9 -242.12 464.9 -239.9 466.75 C-237.58 469.08 -237.26 470.54 -236.9 473.75 C-235.91 474.08 -234.92 474.41 -233.9 474.75 C-232.72 477.82 -232.72 477.82 -231.9 480.75 C-231.24 480.75 -230.58 480.75 -229.9 480.75 C-229.57 482.4 -229.24 484.05 -228.9 485.75 C-227.91 486.08 -226.92 486.41 -225.9 486.75 C-225.55 488.08 -225.22 489.42 -224.9 490.75 C-223.93 491.78 -222.92 492.77 -221.9 493.75 C-221.24 495.09 -220.57 496.42 -219.9 497.75 C-218.49 499.34 -218.49 499.34 -216.9 500.75 C-215.15 502.37 -214.02 503.51 -213.03 505.69 C-211.51 508.47 -209.41 509.87 -206.9 511.75 C-204.9 513.75 -204.9 513.75 -204.9 515.75 C-203.28 517.46 -201.61 519.12 -199.9 520.75 C-199.11 521.57 -198.32 522.38 -197.51 523.22 C-190.42 530.88 -190.42 530.88 -181.9 536.75 C-178.93 536.55 -178.93 536.55 -176.9 534.75 C-176.57 533.76 -176.24 532.77 -175.9 531.75 C-174.82 531.62 -174.82 531.62 -173.72 531.48 C-170.4 530.62 -168.52 529.27 -165.8 527.18 C-162 524.33 -158.2 521.53 -154.29 518.82 C-153.36 518.18 -152.43 517.53 -151.47 516.87 C-150.52 516.21 -149.57 515.56 -148.59 514.88 C-146.58 513.48 -144.58 512.09 -142.57 510.69 C-139.88 508.82 -137.18 506.95 -134.49 505.08 C-132.48 503.69 -130.47 502.28 -128.47 500.88 C-127.89 500.48 -127.31 500.08 -126.71 499.67 C-125.41 498.75 -124.15 497.76 -122.9 496.75 C-122.9 496.09 -122.9 495.43 -122.9 494.75 C-121.82 494.61 -121.82 494.61 -120.71 494.47 C-117.44 493.64 -115.64 492.36 -112.97 490.32 C-112.02 489.6 -111.08 488.89 -110.11 488.16 C-109.6 487.77 -109.09 487.39 -108.57 486.99 C-106.76 485.65 -104.92 484.36 -103.08 483.07 C-102.12 482.4 -102.12 482.4 -101.13 481.71 C-99.87 480.83 -98.6 479.95 -97.32 479.08 C-95.82 478.02 -94.35 476.89 -92.9 475.75 C-92.9 475.09 -92.9 474.43 -92.9 473.75 C-91.82 473.61 -91.82 473.61 -90.71 473.47 C-87.47 472.64 -85.73 471.41 -83.09 469.38 C-78.62 466.02 -74.09 462.78 -69.47 459.63 C-60.7 453.63 -52 447.54 -43.31 441.44 C-37.49 437.36 -31.66 433.28 -25.83 429.22 C-25 428.64 -24.17 428.05 -23.31 427.46 C-21.61 426.27 -19.92 425.09 -18.23 423.92 C-17.4 423.34 -16.57 422.75 -15.71 422.16 C-14.9 421.59 -14.09 421.03 -13.26 420.45 C-10.35 418.35 -7.56 416.12 -4.8 413.82 C-2.28 412.4 -0.75 412.36 2.1 412.75 C4.17 414.08 4.17 414.08 6.1 415.75 C15.85 422.91 25.71 429.92 35.71 436.75 C41 440.37 46.27 444.03 51.53 447.69 C52.52 448.38 53.51 449.07 54.53 449.77 C61 454.28 67.44 458.82 73.88 463.38 C79.14 467.1 84.46 470.75 89.78 474.38 C95.8 478.48 101.78 482.63 107.69 486.88 C120.19 495.86 132.86 504.61 145.58 513.28 C149.69 516.09 153.77 518.93 157.78 521.88 C159.55 523.17 161.32 524.46 163.1 525.75 C163.74 526.22 164.38 526.69 165.04 527.17 C167.19 528.73 169.36 530.28 171.53 531.82 C172.22 532.32 172.91 532.82 173.62 533.34 C174.27 533.8 174.92 534.25 175.59 534.73 C176.17 535.14 176.75 535.56 177.35 535.98 C179.11 536.93 179.11 536.93 181.24 536.51 C183.29 535.89 183.29 535.89 184.35 533.69 C184.59 533.05 184.84 532.41 185.1 531.75 C186.09 531.75 187.08 531.75 188.1 531.75 C190.08 530.23 190.08 530.23 192.07 528.18 C192.83 527.43 193.58 526.68 194.35 525.91 C195.13 525.11 195.92 524.32 196.72 523.5 C197.9 522.34 197.9 522.34 199.11 521.15 C199.86 520.39 200.61 519.64 201.38 518.86 C202.07 518.17 202.76 517.48 203.47 516.77 C205.16 514.68 205.55 513.33 206.1 510.75 C207.41 510.05 208.75 509.39 210.1 508.75 C211.66 506.92 211.66 506.92 213.1 504.75 C213.8 503.89 214.5 503.02 215.22 502.13 C217.1 499.91 217.1 499.91 218.1 497.75 C219.09 496.75 220.09 495.75 221.1 494.75 C222 493.59 222.87 492.4 223.72 491.19 C224.15 490.59 224.57 489.99 225.01 489.38 C226.16 487.74 226.16 487.74 227.1 485.75 C227.76 485.09 228.42 484.43 229.1 483.75 C229.43 483.09 229.76 482.43 230.1 481.75 C231.1 479.75 231.1 479.75 233.1 477.75 C233.43 476.76 233.76 475.77 234.1 474.75 C234.76 474.09 235.42 473.43 236.1 472.75 C235.77 472.09 235.44 471.43 235.1 470.75 C236.09 470.42 237.08 470.09 238.1 469.75 C238.43 468.76 238.76 467.77 239.1 466.75 C239.57 466.32 240.04 465.89 240.53 465.44 C242.65 463.16 243.14 460.68 244.1 457.75 C244.76 457.42 245.42 457.09 246.1 456.75 C246.56 454.86 246.56 454.86 246.72 452.69 C246.84 451.39 246.97 450.09 247.1 448.75 C248.09 448.75 249.08 448.75 250.1 448.75 C250.99 446.08 251.57 443.52 252.1 440.75 C240.17 431.37 240.17 431.37 227.1 423.75 C225.1 422.75 225.1 422.75 222.95 420.53 C219.67 417.34 216.2 414.91 212.41 412.38 C211.07 411.48 209.73 410.57 208.4 409.67 C207.71 409.2 207.01 408.74 206.3 408.26 C202.2 405.47 198.15 402.61 194.1 399.75 C192.5 398.63 190.9 397.51 189.31 396.39 C188.12 395.56 188.12 395.56 186.92 394.72 C182.65 391.73 178.37 388.74 174.1 385.75 C173.3 385.19 172.5 384.63 171.67 384.06 C169.46 382.52 167.25 380.98 165.03 379.44 C164.04 378.75 164.04 378.75 163.03 378.04 C160.4 376.22 158.15 374.77 155.1 373.75 C154.54 373.18 153.98 372.6 153.41 372 C150.9 369.56 148.32 367.96 145.33 366.16 C143.25 364.85 141.31 363.47 139.36 361.98 C128.81 353.99 118.01 346.32 107.08 338.86 C102.1 335.46 97.19 331.99 92.28 328.5 C86.77 324.59 81.2 320.85 75.46 317.28 C71.86 314.96 68.48 312.38 65.1 309.75 C64.41 309.44 63.72 309.12 63.02 308.79 C59.8 305.39 60.54 301.37 60.58 296.86 C60.57 295.32 60.57 295.32 60.55 293.75 C60.53 290.29 60.54 286.83 60.55 283.37 C60.54 280.9 60.53 278.43 60.52 275.95 C60.5 270.62 60.49 265.29 60.49 259.95 C60.49 252.24 60.47 244.53 60.44 236.82 C60.4 224.31 60.38 211.8 60.37 199.29 C60.35 187.14 60.33 174.98 60.3 162.83 C60.3 162.08 60.3 161.33 60.3 160.56 C60.29 156.8 60.28 153.04 60.27 149.29 C60.18 118.11 60.13 86.93 60.1 55.75 C58.03 55.27 55.97 54.79 53.91 54.31 C52.18 53.91 52.18 53.91 50.42 53.5 C33.83 49.77 17.23 49.19 0.28 49.25 C-0.87 49.25 -2.02 49.25 -3.2 49.25 C-22.17 49.27 -40.37 50.7 -58.9 54.75 Z M-261.9 225.75 C-260.9 227.75 -260.9 227.75 -260.9 227.75 Z M270.1 254.75 C271.1 257.75 271.1 257.75 271.1 257.75 Z M-277.9 285.75 C-277.9 287.4 -277.9 289.05 -277.9 290.75 C-277.57 290.75 -277.24 290.75 -276.9 290.75 C-276.9 289.1 -276.9 287.45 -276.9 285.75 C-277.23 285.75 -277.56 285.75 -277.9 285.75 Z M-273.9 386.75 C-272.9 389.75 -272.9 389.75 -272.9 389.75 Z M-269.9 402.75 C-268.9 404.75 -268.9 404.75 -268.9 404.75 Z M265.1 412.75 C266.1 414.75 266.1 414.75 266.1 414.75 Z " fill="#C32C33" transform="translate(299.904296875,0.245849609375)"/>
<path d="M0 0 C0.33 0 0.66 0 1 0 C1 11.55 1 23.1 1 35 C0.67 35 0.34 35 0 35 C0 23.45 0 11.9 0 0 Z " fill="#FF0000" transform="translate(580,310)"/>
<path d="M0 0 C0.33 0 0.66 0 1 0 C1 3.3 1 6.6 1 10 C0.67 10 0.34 10 0 10 C0 6.7 0 3.4 0 0 Z " fill="#DA2424" transform="translate(579,347)"/>
<path d="M0 0 C0.33 0 0.66 0 1 0 C1 3.3 1 6.6 1 10 C0.67 10 0.34 10 0 10 C0 6.7 0 3.4 0 0 Z " fill="#CE2424" transform="translate(579,297)"/>
<path d="M0 0 C0.33 0 0.66 0 1 0 C1 2.64 1 5.28 1 8 C0.67 8 0.34 8 0 8 C0 5.36 0 2.72 0 0 Z " fill="#FF0000" transform="translate(19,346)"/>
<path d="M0 0 C2.64 0 5.28 0 8 0 C8 0.33 8 0.66 8 1 C5.36 1 2.72 1 0 1 C0 0.67 0 0.34 0 0 Z " fill="#D62929" transform="translate(326,52)"/>
<path d="M0 0 C2.31 0 4.62 0 7 0 C7 0.33 7 0.66 7 1 C4.69 1 2.38 1 0 1 C0 0.67 0 0.34 0 0 Z " fill="#D02E2E" transform="translate(329,605)"/>
<path d="M0 0 C2.31 0 4.62 0 7 0 C7 0.33 7 0.66 7 1 C4.69 1 2.38 1 0 1 C0 0.67 0 0.34 0 0 Z " fill="#D32B2B" transform="translate(263,605)"/>
<path d="M0 0 C0.33 0 0.66 0 1 0 C1 2.31 1 4.62 1 7 C0.67 7 0.34 7 0 7 C0 4.69 0 2.38 0 0 Z " fill="#D52929" transform="translate(578,357)"/>
<path d="M0 0 C0.33 0 0.66 0 1 0 C1 2.31 1 4.62 1 7 C0.67 7 0.34 7 0 7 C0 4.69 0 2.38 0 0 Z " fill="#D42A2A" transform="translate(20,356)"/>
<path d="M0 0 C0.33 0 0.66 0 1 0 C1 2.31 1 4.62 1 7 C0.67 7 0.34 7 0 7 C0 4.69 0 2.38 0 0 Z " fill="#FF0000" transform="translate(19,301)"/>
<path d="M0 0 C0.33 0 0.66 0 1 0 C1 2.31 1 4.62 1 7 C0.67 7 0.34 7 0 7 C0 4.69 0 2.38 0 0 Z " fill="#D72727" transform="translate(20,292)"/>
<path d="M0 0 C2.31 0 4.62 0 7 0 C7 0.33 7 0.66 7 1 C4.69 1 2.38 1 0 1 C0 0.67 0 0.34 0 0 Z " fill="#CD3131" transform="translate(265,52)"/>
<path d="M0 0 C2.31 0 4.62 0 7 0 C7 0.33 7 0.66 7 1 C4.69 1 2.38 1 0 1 C0 0.67 0 0.34 0 0 Z " fill="#FF0000" transform="translate(319,51)"/>
<path d="M0 0 C2.31 0 4.62 0 7 0 C7 0.33 7 0.66 7 1 C4.69 1 2.38 1 0 1 C0 0.67 0 0.34 0 0 Z " fill="#FF0000" transform="translate(274,51)"/>
<path d="M0 0 C1.98 0 3.96 0 6 0 C6 0.33 6 0.66 6 1 C4.02 1 2.04 1 0 1 C0 0.67 0 0.34 0 0 Z " fill="#D11818" transform="translate(336,604)"/>
<path d="M0 0 C1.98 0 3.96 0 6 0 C6 0.33 6 0.66 6 1 C4.02 1 2.04 1 0 1 C0 0.67 0 0.34 0 0 Z " fill="#D82727" transform="translate(257,604)"/>
<path d="M0 0 C0.33 0 0.66 0 1 0 C1 1.98 1 3.96 1 6 C0.67 6 0.34 6 0 6 C0 4.02 0 2.04 0 0 Z " fill="#D01F2E" transform="translate(21,363)"/>
<path d="M0 0 C0.33 0 0.66 0 1 0 C1 1.98 1 3.96 1 6 C0.67 6 0.34 6 0 6 C0 4.02 0 2.04 0 0 Z " fill="#CB3333" transform="translate(578,291)"/>
<path d="M0 0 C1.98 0 3.96 0 6 0 C6 0.33 6 0.66 6 1 C4.02 1 2.04 1 0 1 C0 0.67 0 0.34 0 0 Z " fill="#D12D2D" transform="translate(334,53)"/>
<path d="M0 0 C1.98 0 3.96 0 6 0 C6 0.33 6 0.66 6 1 C4.02 1 2.04 1 0 1 C0 0.67 0 0.34 0 0 Z " fill="#D12D2D" transform="translate(259,53)"/>
<path d="M0 0 C0.33 0 0.66 0 1 0 C1 1.65 1 3.3 1 5 C0.67 5 0.34 5 0 5 C0 3.35 0 1.7 0 0 Z " fill="#E11D1D" transform="translate(575,378)"/>
<path d="M0 0 C0.33 0 0.66 0 1 0 C1 1.65 1 3.3 1 5 C0.67 5 0.34 5 0 5 C0 3.35 0 1.7 0 0 Z " fill="#EE1111" transform="translate(577,364)"/>
<path d="M0 0 C0.33 0 0.66 0 1 0 C1 1.65 1 3.3 1 5 C0.67 5 0.34 5 0 5 C0 3.35 0 1.7 0 0 Z " fill="#E11D1D" transform="translate(575,271)"/>
<path d="M0 0 C1.65 0 3.3 0 5 0 C5 0.33 5 0.66 5 1 C3.35 1 1.7 1 0 1 C0 0.67 0 0.34 0 0 Z " fill="#FF0000" transform="translate(341,54)"/>
<path d="M0 0 C1.65 0 3.3 0 5 0 C5 0.33 5 0.66 5 1 C3.35 1 1.7 1 0 1 C0 0.67 0 0.34 0 0 Z " fill="#FF0000" transform="translate(253,54)"/>
<path d="M0 0 C4 1 4 1 4 1 Z " fill="#E91515" transform="translate(351,602)"/>
<path d="M0 0 C4 1 4 1 4 1 Z " fill="#D42A2A" transform="translate(244,602)"/>
<path d="M0 0 C4 1 4 1 4 1 Z " fill="#DD2222" transform="translate(355,601)"/>
<path d="M0 0 C4 1 4 1 4 1 Z " fill="#C73737" transform="translate(240,601)"/>
<path d="M0 0 C4 1 4 1 4 1 Z " fill="#EF1010" transform="translate(359,600)"/>
<path d="M0 0 C4 1 4 1 4 1 Z " fill="#D92525" transform="translate(236,600)"/>
<path d="M0 0 C1 4 1 4 1 4 Z " fill="#EF1010" transform="translate(571,396)"/>
<path d="M0 0 C1 4 1 4 1 4 Z " fill="#E21C1C" transform="translate(574,383)"/>
<path d="M0 0 C1 4 1 4 1 4 Z " fill="#EF1010" transform="translate(24,382)"/>
<path d="M0 0 C1 4 1 4 1 4 Z " fill="#E91515" transform="translate(22,369)"/>
<path d="M0 0 C1 4 1 4 1 4 Z " fill="#D42A2A" transform="translate(24,268)"/>
<path d="M0 0 C1 4 1 4 1 4 Z " fill="#E21C1C" transform="translate(574,267)"/>
<path d="M0 0 C1 4 1 4 1 4 Z " fill="#CD3232" transform="translate(25,264)"/>
<path d="M0 0 C4 1 4 1 4 1 Z " fill="#C93535" transform="translate(354,56)"/>
<path d="M0 0 C4 1 4 1 4 1 Z " fill="#DD2222" transform="translate(360,53)"/>
<path d="M0 0 C3 1 3 1 3 1 Z " fill="#FF0000" transform="translate(369,598)"/>
<path d="M0 0 C3 1 3 1 3 1 Z " fill="#FF0000" transform="translate(227,598)"/>
<path d="M0 0 C3 1 3 1 3 1 Z " fill="#CD3131" transform="translate(372,597)"/>
<path d="M0 0 C3 1 3 1 3 1 Z " fill="#D42A2A" transform="translate(224,597)"/>
<path d="M0 0 C3 1 3 1 3 1 Z " fill="#E91515" transform="translate(375,596)"/>
<path d="M0 0 C3 1 3 1 3 1 Z " fill="#CD3131" transform="translate(221,596)"/>
<path d="M0 0 C3 1 3 1 3 1 Z " fill="#FF0000" transform="translate(383,594)"/>
<path d="M0 0 C3 1 3 1 3 1 Z " fill="#CD1531" transform="translate(388,592)"/>
<path d="M0 0 C3 1 3 1 3 1 Z " fill="#C61C38" transform="translate(208,592)"/>
<path d="M0 0 C3 1 3 1 3 1 Z " fill="#E21C1C" transform="translate(397,589)"/>
<path d="" fill="#E21C1C" transform="translate(0,0)"/>
<path d="" fill="#D12D2D" transform="translate(0,0)"/>
<path d="" fill="#E21C1C" transform="translate(0,0)"/>
<path d="" fill="#E21C1C" transform="translate(0,0)"/>
<path d="" fill="#FF0000" transform="translate(0,0)"/>
<path d="" fill="#FF0000" transform="translate(0,0)"/>
<path d="" fill="#FF0000" transform="translate(0,0)"/>
<path d="" fill="#FF0000" transform="translate(0,0)"/>
<path d="" fill="#E21C1C" transform="translate(0,0)"/>
<path d="" fill="#E21C1C" transform="translate(0,0)"/>
<path d="" fill="#E21C1C" transform="translate(0,0)"/>
<path d="" fill="#D42A2A" transform="translate(0,0)"/>
<path d="" fill="#C63838" transform="translate(0,0)"/>
<path d="" fill="#E91515" transform="translate(0,0)"/>
<path d="" fill="#CD1531" transform="translate(0,0)"/>
<path d="M0 0 C3 1 3 1 3 1 Z " fill="#E21C1C" transform="translate(208,61)"/>
<path d="M0 0 C3 1 3 1 3 1 Z " fill="#D40000" transform="translate(215,59)"/>
<path d="M0 0 C3 1 3 1 3 1 Z " fill="#D42A2A" transform="translate(379,58)"/>
<path d="M0 0 C3 1 3 1 3 1 Z " fill="#BF1515" transform="translate(218,58)"/>
<path d="M0 0 C3 1 3 1 3 1 Z " fill="#E21C1C" transform="translate(376,57)"/>
<path d="M0 0 C3 1 3 1 3 1 Z " fill="#E91515" transform="translate(221,57)"/>
<path d="M0 0 C3 1 3 1 3 1 Z " fill="#FF0000" transform="translate(224,56)"/>
<path d="M0 0 C3 1 3 1 3 1 Z " fill="#DB2323" transform="translate(364,54)"/>
<path d="M0 0 C3 1 3 1 3 1 Z " fill="#D42A2A" transform="translate(233,54)"/>
<path d="M0 0 C3 1 3 1 3 1 Z " fill="#C61C38" transform="translate(236,53)"/>
<path d="M0 0 C0.99 0.5 0.99 0.5 2 1 C1.01 1.5 1.01 1.5 0 2 C0 1.34 0 0.68 0 0 Z " fill="#C31111" transform="translate(268,25)"/>
<path d="M0 0 C2 1 2 1 2 1 Z " fill="#FF0000" transform="translate(214,594)"/>
<path d="M0 0 C2 1 2 1 2 1 Z " fill="#BB4444" transform="translate(386,593)"/>
<path d="M0 0 C2 1 2 1 2 1 Z " fill="#DF2020" transform="translate(211,593)"/>
<path d="M0 0 C2 1 2 1 2 1 Z " fill="#FF0000" transform="translate(391,591)"/>
<path d="M0 0 C2 1 2 1 2 1 Z " fill="#FF0000" transform="translate(206,591)"/>
<path d="M0 0 C2 1 2 1 2 1 Z " fill="#FF0000" transform="translate(395,590)"/>
<path d="M0 0 C2 1 2 1 2 1 Z " fill="#FF0000" transform="translate(202,590)"/>
<path d="M0 0 C2 1 2 1 2 1 Z " fill="#AA5555" transform="translate(200,589)"/>
<path d="M0 0 C2 1 2 1 2 1 Z " fill="#DF2020" transform="translate(400,588)"/>
<path d="M0 0 C2 1 2 1 2 1 Z " fill="#D42A2A" transform="translate(198,588)"/>
<path d="M0 0 C2 1 2 1 2 1 Z " fill="#FF0000" transform="translate(192,586)"/>
<path d="M0 0 C2 1 2 1 2 1 Z " fill="#D42A2A" transform="translate(190,585)"/>
<path d="M0 0 C2 1 2 1 2 1 Z " fill="#B44A4A" transform="translate(188,584)"/>
<path d="M0 0 C2 1 2 1 2 1 Z " fill="#FF0000" transform="translate(186,583)"/>
<path d="M0 0 C2 1 2 1 2 1 Z " fill="#FF0000" transform="translate(181,581)"/>
<path d="M0 0 C2 1 2 1 2 1 Z " fill="#E51919" transform="translate(179,580)"/>
<path d="M0 0 C2 1 2 1 2 1 Z " fill="#FF0000" transform="translate(420,579)"/>
<path d="M0 0 C2 1 2 1 2 1 Z " fill="#D42A2A" transform="translate(177,579)"/>
<path d="M0 0 C2 1 2 1 2 1 Z " fill="#D42A2A" transform="translate(425,577)"/>
<path d="M0 0 C2 1 2 1 2 1 Z " fill="#DF2020" transform="translate(172,577)"/>
<path d="M0 0 C2 1 2 1 2 1 Z " fill="#FF0000" transform="translate(428,575)"/>
<path d="M0 0 C2 1 2 1 2 1 Z " fill="#DF2020" transform="translate(434,572)"/>
<path d="M0 0 C2 1 2 1 2 1 Z " fill="#D42A2A" transform="translate(441,568)"/>
<path d="M0 0 C2 1 2 1 2 1 Z " fill="#FF0000" transform="translate(155,567)"/>
<path d="M0 0 C2 1 2 1 2 1 Z " fill="#FF0000" transform="translate(446,565)"/>
<path d="M0 0 C2 1 2 1 2 1 Z " fill="#D42A2A" transform="translate(455,559)"/>
<path d="M0 0 C2 1 2 1 2 1 Z " fill="#FF0000" transform="translate(465,552)"/>
<path d="M0 0 C2 1 2 1 2 1 Z " fill="#D4002A" transform="translate(127,548)"/>
<path d="M0 0 C2 1 2 1 2 1 Z " fill="#FF0000" transform="translate(482,539)"/>
<path d="M0 0 C2 1 2 1 2 1 Z " fill="#D42A2A" transform="translate(108,535)"/>
<path d="M0 0 C2 1 2 1 2 1 Z " fill="#DF2020" transform="translate(491,534)"/>
<path d="M0 0 C2 1 2 1 2 1 Z " fill="#FF0000" transform="translate(495,532)"/>
<path d="M0 0 C2 1 2 1 2 1 Z " fill="#FF0000" transform="translate(473,531)"/>
<path d="M0 0 C2 1 2 1 2 1 Z " fill="#D42A2A" transform="translate(498,530)"/>
<path d="M0 0 C2 1 2 1 2 1 Z " fill="#FF0000" transform="translate(110,529)"/>
<path d="M0 0 C2 1 2 1 2 1 Z " fill="#D42A2A" transform="translate(504,527)"/>
<path d="M0 0 C2 1 2 1 2 1 Z " fill="#DF2020" transform="translate(93,527)"/>
<path d="M0 0 C2 1 2 1 2 1 Z " fill="#D42A2A" transform="translate(511,523)"/>
<path d="M0 0 C2 1 2 1 2 1 Z " fill="#D42A2A" transform="translate(86,523)"/>
<path d="M0 0 C2 1 2 1 2 1 Z " fill="#E51919" transform="translate(513,522)"/>
<path d="M0 0 C2 1 2 1 2 1 Z " fill="#FF0000" transform="translate(140,520)"/>
<path d="M0 0 C2 1 2 1 2 1 Z " fill="#FF0000" transform="translate(520,518)"/>
<path d="M0 0 C2 1 2 1 2 1 Z " fill="#E51919" transform="translate(77,518)"/>
<path d="M0 0 C2 1 2 1 2 1 Z " fill="#FF0000" transform="translate(73,516)"/>
<path d="M0 0 C2 1 2 1 2 1 Z " fill="#D42A2A" transform="translate(526,515)"/>
<path d="M0 0 C2 1 2 1 2 1 Z " fill="#FF0000" transform="translate(450,515)"/>
<path d="M0 0 C2 1 2 1 2 1 Z " fill="#D42A2A" transform="translate(147,515)"/>
<path d="M0 0 C2 1 2 1 2 1 Z " fill="#FF0000" transform="translate(70,514)"/>
<path d="M0 0 C2 1 2 1 2 1 Z " fill="#D42A2A" transform="translate(64,511)"/>
<path d="M0 0 C2 1 2 1 2 1 Z " fill="#E51919" transform="translate(535,510)"/>
<path d="M0 0 C2 1 2 1 2 1 Z " fill="#FF0000" transform="translate(154,510)"/>
<path d="M0 0 C2 1 2 1 2 1 Z " fill="#FF0000" transform="translate(61,509)"/>
<path d="M0 0 C2 1 2 1 2 1 Z " fill="#FF0000" transform="translate(57,507)"/>
<path d="M0 0 C2 1 2 1 2 1 Z " fill="#D4002A" transform="translate(542,506)"/>
<path d="M0 0 C2 1 2 1 2 1 Z " fill="#FF0000" transform="translate(160,506)"/>
<path d="M0 0 C2 1 2 1 2 1 Z " fill="#DF2020" transform="translate(55,506)"/>
<path d="M0 0 C2 1 2 1 2 1 Z " fill="#FF0000" transform="translate(434,504)"/>
<path d="M0 0 C2 1 2 1 2 1 Z " fill="#FF0000" transform="translate(548,503)"/>
<path d="M0 0 C2 1 2 1 2 1 Z " fill="#AA2A55" transform="translate(48,502)"/>
<path d="M0 0 C2 1 2 1 2 1 Z " fill="#FF0000" transform="translate(551,501)"/>
<path d="M0 0 C2 1 2 1 2 1 Z " fill="#FF0000" transform="translate(555,499)"/>
<path d="M0 0 C2 1 2 1 2 1 Z " fill="#E51919" transform="translate(427,499)"/>
<path d="M0 0 C2 1 2 1 2 1 Z " fill="#FF0000" transform="translate(170,499)"/>
<path d="M0 0 C2 1 2 1 2 1 Z " fill="#DF2020" transform="translate(557,498)"/>
<path d="M0 0 C2 1 2 1 2 1 Z " fill="#D4002A" transform="translate(39,497)"/>
<path d="M0 0 C2 1 2 1 2 1 Z " fill="#D42A2A" transform="translate(564,494)"/>
<path d="M0 0 C2 1 2 1 2 1 Z " fill="#FF0000" transform="translate(420,494)"/>
<path d="M0 0 C2 1 2 1 2 1 Z " fill="#DF2020" transform="translate(33,494)"/>
<path d="M0 0 C2 1 2 1 2 1 Z " fill="#FF0000" transform="translate(26,490)"/>
<path d="M0 0 C2 1 2 1 2 1 Z " fill="#DF2020" transform="translate(573,489)"/>
<path d="M0 0 C2 1 2 1 2 1 Z " fill="#D42A2A" transform="translate(580,485)"/>
<path d="M0 0 C2 1 2 1 2 1 Z " fill="#DF2020" transform="translate(17,485)"/>
<path d="M0 0 C2 1 2 1 2 1 Z " fill="#D4002A" transform="translate(404,483)"/>
<path d="M0 0 C2 1 2 1 2 1 Z " fill="#D42A2A" transform="translate(193,483)"/>
<path d="M0 0 C2 1 2 1 2 1 Z " fill="#FF0000" transform="translate(586,482)"/>
<path d="M0 0 C2 1 2 1 2 1 Z " fill="#DF2020" transform="translate(11,482)"/>
<path d="M0 0 C2 1 2 1 2 1 Z " fill="#BF0000" transform="translate(397,478)"/>
<path d="M0 0 C2 1 2 1 2 1 Z " fill="#FF0000" transform="translate(200,478)"/>
<path d="M0 0 C2 1 2 1 2 1 Z " fill="#FF0000" transform="translate(4,478)"/>
<path d="M0 0 C2 1 2 1 2 1 Z " fill="#D42A2A" transform="translate(595,477)"/>
<path d="M0 0 C2 1 2 1 2 1 Z " fill="#FF0000" transform="translate(390,473)"/>
<path d="M0 0 C2 1 2 1 2 1 Z " fill="#FF0000" transform="translate(596,469)"/>
<path d="M0 0 C2 1 2 1 2 1 Z " fill="#FF0000" transform="translate(7,465)"/>
<path d="M0 0 C2 1 2 1 2 1 Z " fill="#D4002A" transform="translate(586,462)"/>
<path d="M0 0 C2 1 2 1 2 1 Z " fill="#FF0000" transform="translate(374,462)"/>
<path d="M0 0 C2 1 2 1 2 1 Z " fill="#D42A2A" transform="translate(223,462)"/>
<path d="M0 0 C2 1 2 1 2 1 Z " fill="#D4002A" transform="translate(17,458)"/>
<path d="M0 0 C2 1 2 1 2 1 Z " fill="#FF0000" transform="translate(579,457)"/>
<path d="M0 0 C2 1 2 1 2 1 Z " fill="#FF0000" transform="translate(367,457)"/>
<path d="M0 0 C2 1 2 1 2 1 Z " fill="#D42A2A" transform="translate(230,457)"/>
<path d="" fill="#FF0000" transform="translate(0,0)"/>
<path d="M0 0 C2 1 2 1 2 1 Z " fill="#FF0000" transform="translate(573,453)"/>
<path d="M0 0 C2 1 2 1 2 1 Z " fill="#FF0000" transform="translate(24,453)"/>
<path d="M0 0 C2 1 2 1 2 1 Z " fill="#FF0000" transform="translate(239,451)"/>
<path d="M0 0 C2 1 2 1 2 1 Z " fill="#BF0000" transform="translate(566,448)"/>
<path d="M0 0 C2 1 2 1 2 1 Z " fill="#FF0000" transform="translate(243,448)"/>
<path d="" fill="#FF0000" transform="translate(0,0)"/>
<path d="M0 0 C2 1 2 1 2 1 Z " fill="#BF0000" transform="translate(246,446)"/>
<path d="M0 0 C2 1 2 1 2 1 Z " fill="#D42A2A" transform="translate(350,445)"/>
<path d="" fill="#DF2020" transform="translate(0,0)"/>
<path d="M0 0 C2 1 2 1 2 1 Z " fill="#FF0000" transform="translate(37,444)"/>
<path d="M0 0 C2 1 2 1 2 1 Z " fill="#D4002A" transform="translate(557,442)"/>
<path d="M0 0 C2 1 2 1 2 1 Z " fill="#BF0000" transform="translate(40,442)"/>
<path d="M0 0 C2 1 2 1 2 1 Z " fill="#FF0000" transform="translate(344,441)"/>
<path d="M0 0 C2 1 2 1 2 1 Z " fill="#D42A2A" transform="translate(253,441)"/>
<path d="M0 0 C2 1 2 1 2 1 Z " fill="#DF2020" transform="translate(548,440)"/>
<path d="M0 0 C2 1 2 1 2 1 Z " fill="#FF0000" transform="translate(337,436)"/>
<path d="M0 0 C2 1 2 1 2 1 Z " fill="#FF0000" transform="translate(260,436)"/>
<path d="M0 0 C2 1 2 1 2 1 Z " fill="#D42A2A" transform="translate(55,436)"/>
<path d="M0 0 C2 1 2 1 2 1 Z " fill="#FF0000" transform="translate(65,429)"/>
<path d="" fill="#E51919" transform="translate(0,0)"/>
<path d="M0 0 C2 1 2 1 2 1 Z " fill="#FF0000" transform="translate(69,426)"/>
<path d="M0 0 C2 1 2 1 2 1 Z " fill="#D4002A" transform="translate(321,425)"/>
<path d="M0 0 C2 1 2 1 2 1 Z " fill="#D4002A" transform="translate(276,425)"/>
<path d="" fill="#FF0000" transform="translate(0,0)"/>
<path d="M0 0 C2 1 2 1 2 1 Z " fill="#BF0000" transform="translate(314,420)"/>
<path d="M0 0 C2 1 2 1 2 1 Z " fill="#FF0000" transform="translate(283,420)"/>
<path d="" fill="#FF0000" transform="translate(0,0)"/>
<path d="M0 0 C2 1 2 1 2 1 Z " fill="#FF0000" transform="translate(95,408)"/>
<path d="M0 0 C2 1 2 1 2 1 Z " fill="#FF0000" transform="translate(501,407)"/>
<path d="" fill="#D42A2A" transform="translate(0,0)"/>
<path d="M0 0 C2 1 2 1 2 1 Z " fill="#FF0000" transform="translate(102,403)"/>
<path d="M0 0 C2 1 2 1 2 1 Z " fill="#D4002A" transform="translate(494,402)"/>
<path d="M0 0 C2 1 2 1 2 1 Z " fill="#FF0000" transform="translate(109,398)"/>
<path d="M0 0 C2 1 2 1 2 1 Z " fill="#FF0000" transform="translate(485,396)"/>
<path d="" fill="#FF0000" transform="translate(0,0)"/>
<path d="M0 0 C2 1 2 1 2 1 Z " fill="#FF0000" transform="translate(118,392)"/>
<path d="M0 0 C2 1 2 1 2 1 Z " fill="#DF2020" transform="translate(478,391)"/>
<path d="M0 0 C2 1 2 1 2 1 Z " fill="#FF0000" transform="translate(125,387)"/>
<path d="M0 0 C2 1 2 1 2 1 Z " fill="#FF0000" transform="translate(471,386)"/>
<path d="M0 0 C2 1 2 1 2 1 Z " fill="#FF0000" transform="translate(132,382)"/>
<path d="M0 0 C2 1 2 1 2 1 Z " fill="#FF0000" transform="translate(135,380)"/>
<path d="M0 0 C2 1 2 1 2 1 Z " fill="#FF0000" transform="translate(148,371)"/>
<path d="M0 0 C2 1 2 1 2 1 Z " fill="#FF0000" transform="translate(152,368)"/>
<path d="M0 0 C2 1 2 1 2 1 Z " fill="#FF0000" transform="translate(155,366)"/>
<path d="M0 0 C2 1 2 1 2 1 Z " fill="#FF0000" transform="translate(438,363)"/>
<path d="M0 0 C2 1 2 1 2 1 Z " fill="#D42A2A" transform="translate(162,361)"/>
<path d="M0 0 C2 1 2 1 2 1 Z " fill="#FF0000" transform="translate(165,359)"/>
<path d="M0 0 C2 1 2 1 2 1 Z " fill="#FF0000" transform="translate(425,354)"/>
<path d="M0 0 C2 1 2 1 2 1 Z " fill="#D42A2A" transform="translate(178,350)"/>
<path d="M0 0 C2 1 2 1 2 1 Z " fill="#FF0000" transform="translate(418,349)"/>
<path d="M0 0 C2 1 2 1 2 1 Z " fill="#D42A2A" transform="translate(185,345)"/>
<path d="M0 0 C2 1 2 1 2 1 Z " fill="#FF0000" transform="translate(408,342)"/>
<path d="M0 0 C2 1 2 1 2 1 Z " fill="#FF0000" transform="translate(402,338)"/>
<path d="M0 0 C2 1 2 1 2 1 Z " fill="#D42A2A" transform="translate(395,333)"/>
<path d="M0 0 C2 1 2 1 2 1 Z " fill="#FF0000" transform="translate(202,333)"/>
<path d="M0 0 C2 1 2 1 2 1 Z " fill="#D42A2A" transform="translate(208,329)"/>
<path d="M0 0 C2 1 2 1 2 1 Z " fill="#D42A2A" transform="translate(215,324)"/>
<path d="M0 0 C2 1 2 1 2 1 Z " fill="#FF0000" transform="translate(218,322)"/>
<path d="M0 0 C2 1 2 1 2 1 Z " fill="#FF0000" transform="translate(378,321)"/>
<path d="M0 0 C2 1 2 1 2 1 Z " fill="#FF0000" transform="translate(368,314)"/>
<path d="" fill="#FF0000" transform="translate(0,0)"/>
<path d="" fill="#DF2020" transform="translate(0,0)"/>
<path d="" fill="#D42A2A" transform="translate(0,0)"/>
<path d="" fill="#D42A2A" transform="translate(0,0)"/>
<path d="" fill="#D42A2A" transform="translate(0,0)"/>
<path d="" fill="#D42A2A" transform="translate(0,0)"/>
<path d="" fill="#FF0000" transform="translate(0,0)"/>
<path d="" fill="#E51919" transform="translate(0,0)"/>
<path d="" fill="#FF0000" transform="translate(0,0)"/>
<path d="" fill="#FF0000" transform="translate(0,0)"/>
<path d="" fill="#D42A2A" transform="translate(0,0)"/>
<path d="" fill="#FF0000" transform="translate(0,0)"/>
<path d="" fill="#FF0000" transform="translate(0,0)"/>
<path d="" fill="#D42A2A" transform="translate(0,0)"/>
<path d="" fill="#DF2020" transform="translate(0,0)"/>
<path d="" fill="#FF0000" transform="translate(0,0)"/>
<path d="" fill="#FF0000" transform="translate(0,0)"/>
<path d="" fill="#D42A2A" transform="translate(0,0)"/>
<path d="" fill="#BF0000" transform="translate(0,0)"/>
<path d="" fill="#FF0000" transform="translate(0,0)"/>
<path d="" fill="#BF0000" transform="translate(0,0)"/>
<path d="M0 0 C2 1 2 1 2 1 Z " fill="#FF0000" transform="translate(131,102)"/>
<path d="M0 0 C2 1 2 1 2 1 Z " fill="#FF0000" transform="translate(461,98)"/>
<path d="M0 0 C2 1 2 1 2 1 Z " fill="#FF0000" transform="translate(142,94)"/>
<path d="M0 0 C2 1 2 1 2 1 Z " fill="#FF0000" transform="translate(147,91)"/>
<path d="M0 0 C2 1 2 1 2 1 Z " fill="#FF0000" transform="translate(444,87)"/>
<path d="M0 0 C2 1 2 1 2 1 Z " fill="#D42A2A" transform="translate(160,83)"/>
<path d="M0 0 C2 1 2 1 2 1 Z " fill="#DF2020" transform="translate(436,82)"/>
<path d="M0 0 C2 1 2 1 2 1 Z " fill="#BF0000" transform="translate(430,79)"/>
<path d="M0 0 C2 1 2 1 2 1 Z " fill="#BF0000" transform="translate(169,78)"/>
<path d="M0 0 C2 1 2 1 2 1 Z " fill="#FF0000" transform="translate(427,77)"/>
<path d="M0 0 C2 1 2 1 2 1 Z " fill="#BF0000" transform="translate(422,75)"/>
<path d="M0 0 C2 1 2 1 2 1 Z " fill="#DF2020" transform="translate(175,75)"/>
<path d="M0 0 C2 1 2 1 2 1 Z " fill="#D42A2A" transform="translate(177,74)"/>
<path d="M0 0 C2 1 2 1 2 1 Z " fill="#FF0000" transform="translate(419,73)"/>
<path d="M0 0 C2 1 2 1 2 1 Z " fill="#FF0000" transform="translate(179,73)"/>
<path d="M0 0 C2 1 2 1 2 1 Z " fill="#D4002A" transform="translate(184,71)"/>
<path d="M0 0 C2 1 2 1 2 1 Z " fill="#DF2020" transform="translate(412,70)"/>
<path d="M0 0 C2 1 2 1 2 1 Z " fill="#952A2A" transform="translate(186,70)"/>
<path d="M0 0 C2 1 2 1 2 1 Z " fill="#FF0000" transform="translate(410,69)"/>
<path d="M0 0 C2 1 2 1 2 1 Z " fill="#D42A2A" transform="translate(188,69)"/>
<path d="M0 0 C2 1 2 1 2 1 Z " fill="#D42A2A" transform="translate(193,67)"/>
<path d="M0 0 C2 1 2 1 2 1 Z " fill="#DF2020" transform="translate(402,66)"/>
<path d="M0 0 C2 1 2 1 2 1 Z " fill="#DF2020" transform="translate(195,66)"/>
<path d="M0 0 C2 1 2 1 2 1 Z " fill="#FF0000" transform="translate(400,65)"/>
<path d="M0 0 C2 1 2 1 2 1 Z " fill="#D42A2A" transform="translate(197,65)"/>
<path d="M0 0 C2 1 2 1 2 1 Z " fill="#D42A2A" transform="translate(394,63)"/>
<path d="M0 0 C2 1 2 1 2 1 Z " fill="#B44A4A" transform="translate(206,62)"/>
<path d="M0 0 C2 1 2 1 2 1 Z " fill="#D42A2A" transform="translate(389,61)"/>
<path d="M0 0 C2 1 2 1 2 1 Z " fill="#FF0000" transform="translate(211,60)"/>
<path d="M0 0 C2 1 2 1 2 1 Z " fill="#D42A2A" transform="translate(382,59)"/>
<path d="M0 0 C2 1 2 1 2 1 Z " fill="#FF0000" transform="translate(373,56)"/>
<path d="M0 0 C2 1 2 1 2 1 Z " fill="#FF0000" transform="translate(368,55)"/>
<path d="M0 0 C2 1 2 1 2 1 Z " fill="#FF0000" transform="translate(246,55)"/>
<path d="M0 0 C2 1 2 1 2 1 Z " fill="#FF0000" transform="translate(230,55)"/>
<path d="" fill="#FF0000" transform="translate(0,0)"/>
<path d="" fill="#FF0000" transform="translate(0,0)"/>
<path d="" fill="#FF0000" transform="translate(0,0)"/>
<path d="" fill="#FF0000" transform="translate(0,0)"/>
<path d="" fill="#FF0000" transform="translate(0,0)"/>
<path d="" fill="#FF0000" transform="translate(0,0)"/>
<path d="" fill="#FF0000" transform="translate(0,0)"/>
<path d="" fill="#AA5555" transform="translate(0,0)"/>
<path d="" fill="#FF0000" transform="translate(0,0)"/>
<path d="" fill="#FF0000" transform="translate(0,0)"/>
<path d="" fill="#FF0000" transform="translate(0,0)"/>
<path d="" fill="#AA5555" transform="translate(0,0)"/>
<path d="" fill="#AA5555" transform="translate(0,0)"/>
<path d="" fill="#FF0000" transform="translate(0,0)"/>
<path d="" fill="#FF0000" transform="translate(0,0)"/>
<path d="" fill="#BF4040" transform="translate(0,0)"/>
<path d="" fill="#AA5555" transform="translate(0,0)"/>
<path d="" fill="#BF4040" transform="translate(0,0)"/>
<path d="" fill="#FF0000" transform="translate(0,0)"/>
<path d="" fill="#FF0000" transform="translate(0,0)"/>
<path d="" fill="#FF0000" transform="translate(0,0)"/>
<path d="" fill="#FF0000" transform="translate(0,0)"/>
<path d="" fill="#BF4040" transform="translate(0,0)"/>
<path d="" fill="#FF0000" transform="translate(0,0)"/>
<path d="" fill="#FF0000" transform="translate(0,0)"/>
<path d="" fill="#FF0000" transform="translate(0,0)"/>
<path d="" fill="#FF0000" transform="translate(0,0)"/>
<path d="" fill="#FF0000" transform="translate(0,0)"/>
<path d="" fill="#CC3333" transform="translate(0,0)"/>
<path d="" fill="#AA5555" transform="translate(0,0)"/>
<path d="" fill="#FF0000" transform="translate(0,0)"/>
<path d="" fill="#BF4040" transform="translate(0,0)"/>
<path d="" fill="#AA5555" transform="translate(0,0)"/>
<path d="" fill="#BF4040" transform="translate(0,0)"/>
<path d="" fill="#CC3333" transform="translate(0,0)"/>
<path d="" fill="#FF0000" transform="translate(0,0)"/>
<path d="" fill="#FF0000" transform="translate(0,0)"/>
<path d="" fill="#FF0000" transform="translate(0,0)"/>
<path d="" fill="#BF4040" transform="translate(0,0)"/>
<path d="" fill="#AA5555" transform="translate(0,0)"/>
<path d="" fill="#AA5555" transform="translate(0,0)"/>
<path d="" fill="#FF0000" transform="translate(0,0)"/>
<path d="" fill="#FF0000" transform="translate(0,0)"/>
<path d="" fill="#FF0000" transform="translate(0,0)"/>
<path d="" fill="#FF0000" transform="translate(0,0)"/>
<path d="" fill="#AA5555" transform="translate(0,0)"/>
<path d="" fill="#FF0000" transform="translate(0,0)"/>
<path d="" fill="#CC3333" transform="translate(0,0)"/>
<path d="" fill="#BF4040" transform="translate(0,0)"/>
<path d="" fill="#FF0000" transform="translate(0,0)"/>
<path d="" fill="#FF0000" transform="translate(0,0)"/>
<path d="" fill="#FF0000" transform="translate(0,0)"/>
<path d="" fill="#FF0000" transform="translate(0,0)"/>
<path d="" fill="#FF0000" transform="translate(0,0)"/>
<path d="" fill="#FF0000" transform="translate(0,0)"/>
<path d="" fill="#FF0000" transform="translate(0,0)"/>
<path d="" fill="#FF0000" transform="translate(0,0)"/>
<path d="" fill="#AA5555" transform="translate(0,0)"/>
<path d="" fill="#FF0000" transform="translate(0,0)"/>
<path d="" fill="#FF0000" transform="translate(0,0)"/>
<path d="" fill="#FF0000" transform="translate(0,0)"/>
<path d="" fill="#FF0000" transform="translate(0,0)"/>
<path d="" fill="#AA5555" transform="translate(0,0)"/>
<path d="" fill="#FF0000" transform="translate(0,0)"/>
<path d="" fill="#FF0000" transform="translate(0,0)"/>
<path d="" fill="#AA5555" transform="translate(0,0)"/>
<path d="" fill="#FF0000" transform="translate(0,0)"/>
<path d="" fill="#AA5555" transform="translate(0,0)"/>
<path d="" fill="#FF0000" transform="translate(0,0)"/>
<path d="" fill="#FF0000" transform="translate(0,0)"/>
<path d="" fill="#FF0000" transform="translate(0,0)"/>
<path d="" fill="#FF0000" transform="translate(0,0)"/>
<path d="" fill="#FF0000" transform="translate(0,0)"/>
<path d="" fill="#AA5555" transform="translate(0,0)"/>
<path d="" fill="#AA5555" transform="translate(0,0)"/>
<path d="" fill="#FF0000" transform="translate(0,0)"/>
<path d="" fill="#FF0000" transform="translate(0,0)"/>
<path d="" fill="#FF0000" transform="translate(0,0)"/>
<path d="" fill="#AA5555" transform="translate(0,0)"/>
<path d="" fill="#AA5555" transform="translate(0,0)"/>
<path d="" fill="#AA5555" transform="translate(0,0)"/>
<path d="" fill="#FF0000" transform="translate(0,0)"/>
<path d="" fill="#FF0000" transform="translate(0,0)"/>
<path d="" fill="#FF0000" transform="translate(0,0)"/>
<path d="" fill="#FF0000" transform="translate(0,0)"/>
<path d="" fill="#BF4040" transform="translate(0,0)"/>
<path d="" fill="#FF0000" transform="translate(0,0)"/>
<path d="" fill="#FF0000" transform="translate(0,0)"/>
<path d="" fill="#FF0000" transform="translate(0,0)"/>
<path d="" fill="#FF0000" transform="translate(0,0)"/>
<path d="" fill="#AA5555" transform="translate(0,0)"/>
<path d="" fill="#AA5555" transform="translate(0,0)"/>
<path d="" fill="#FF0000" transform="translate(0,0)"/>
<path d="" fill="#BF4040" transform="translate(0,0)"/>
<path d="" fill="#FF0000" transform="translate(0,0)"/>
<path d="" fill="#AA5555" transform="translate(0,0)"/>
<path d="" fill="#FF0000" transform="translate(0,0)"/>
<path d="" fill="#FF0000" transform="translate(0,0)"/>
<path d="" fill="#FF0000" transform="translate(0,0)"/>
<path d="" fill="#BF4040" transform="translate(0,0)"/>
<path d="" fill="#FF0000" transform="translate(0,0)"/>
<path d="" fill="#FF0000" transform="translate(0,0)"/>
<path d="" fill="#FF0000" transform="translate(0,0)"/>
<path d="" fill="#AA5555" transform="translate(0,0)"/>
<path d="" fill="#FF0000" transform="translate(0,0)"/>
<path d="" fill="#FF0000" transform="translate(0,0)"/>
<path d="" fill="#BF4040" transform="translate(0,0)"/>
<path d="" fill="#AA0055" transform="translate(0,0)"/>
<path d="" fill="#AA5555" transform="translate(0,0)"/>
<path d="" fill="#FF0000" transform="translate(0,0)"/>
<path d="" fill="#FF0000" transform="translate(0,0)"/>
<path d="" fill="#AA5555" transform="translate(0,0)"/>
<path d="" fill="#FF0000" transform="translate(0,0)"/>
<path d="" fill="#FF0000" transform="translate(0,0)"/>
<path d="" fill="#AA5555" transform="translate(0,0)"/>
<path d="" fill="#AA5555" transform="translate(0,0)"/>
<path d="" fill="#FF0000" transform="translate(0,0)"/>
<path d="" fill="#FF0000" transform="translate(0,0)"/>
<path d="" fill="#FF0000" transform="translate(0,0)"/>
<path d="" fill="#FF0000" transform="translate(0,0)"/>
<path d="" fill="#FF0000" transform="translate(0,0)"/>
<path d="" fill="#FF0000" transform="translate(0,0)"/>
<path d="" fill="#FF0000" transform="translate(0,0)"/>
<path d="" fill="#FF0000" transform="translate(0,0)"/>
<path d="" fill="#FF0000" transform="translate(0,0)"/>
<path d="" fill="#FF0000" transform="translate(0,0)"/>
<path d="" fill="#AA5555" transform="translate(0,0)"/>
<path d="" fill="#CC3333" transform="translate(0,0)"/>
<path d="" fill="#BF4040" transform="translate(0,0)"/>
<path d="" fill="#AA5555" transform="translate(0,0)"/>
<path d="" fill="#FF0000" transform="translate(0,0)"/>
<path d="" fill="#AA5555" transform="translate(0,0)"/>
<path d="" fill="#AA5555" transform="translate(0,0)"/>
<path d="" fill="#AA5555" transform="translate(0,0)"/>
<path d="" fill="#AA0055" transform="translate(0,0)"/>
<path d="" fill="#FF0000" transform="translate(0,0)"/>
<path d="" fill="#FF0000" transform="translate(0,0)"/>
<path d="" fill="#FF0000" transform="translate(0,0)"/>
<path d="" fill="#FF0000" transform="translate(0,0)"/>
<path d="" fill="#BF4040" transform="translate(0,0)"/>
<path d="" fill="#FF0000" transform="translate(0,0)"/>
<path d="" fill="#FF0000" transform="translate(0,0)"/>
<path d="" fill="#FF0000" transform="translate(0,0)"/>
<path d="" fill="#FF0000" transform="translate(0,0)"/>
<path d="" fill="#FF0000" transform="translate(0,0)"/>
<path d="" fill="#FF0000" transform="translate(0,0)"/>
<path d="" fill="#AA5555" transform="translate(0,0)"/>
<path d="" fill="#FF0000" transform="translate(0,0)"/>
<path d="" fill="#AA5555" transform="translate(0,0)"/>
<path d="" fill="#FF0000" transform="translate(0,0)"/>
<path d="" fill="#BF4040" transform="translate(0,0)"/>
<path d="" fill="#AA5555" transform="translate(0,0)"/>
<path d="" fill="#BF4040" transform="translate(0,0)"/>
<path d="" fill="#AA0055" transform="translate(0,0)"/>
<path d="" fill="#AA5555" transform="translate(0,0)"/>
<path d="" fill="#FF0000" transform="translate(0,0)"/>
<path d="" fill="#FF0000" transform="translate(0,0)"/>
<path d="" fill="#FF0000" transform="translate(0,0)"/>
<path d="" fill="#FF0000" transform="translate(0,0)"/>
<path d="" fill="#800000" transform="translate(0,0)"/>
<path d="" fill="#FF0000" transform="translate(0,0)"/>
<path d="" fill="#FF0000" transform="translate(0,0)"/>
<path d="" fill="#FF0000" transform="translate(0,0)"/>
<path d="" fill="#FF0000" transform="translate(0,0)"/>
<path d="" fill="#FF0000" transform="translate(0,0)"/>
<path d="" fill="#FF0000" transform="translate(0,0)"/>
<path d="" fill="#FF0000" transform="translate(0,0)"/>
<path d="" fill="#AA5555" transform="translate(0,0)"/>
<path d="" fill="#FF0000" transform="translate(0,0)"/>
<path d="" fill="#FF0000" transform="translate(0,0)"/>
<path d="" fill="#BF4040" transform="translate(0,0)"/>
<path d="" fill="#AA5555" transform="translate(0,0)"/>
<path d="" fill="#BF4040" transform="translate(0,0)"/>
<path d="" fill="#FF0000" transform="translate(0,0)"/>
<path d="" fill="#FF0000" transform="translate(0,0)"/>
<path d="" fill="#FF0000" transform="translate(0,0)"/>
<path d="" fill="#FF0000" transform="translate(0,0)"/>
<path d="" fill="#FF0000" transform="translate(0,0)"/>
<path d="" fill="#AA5555" transform="translate(0,0)"/>
<path d="" fill="#FF0000" transform="translate(0,0)"/>
<path d="" fill="#BF4040" transform="translate(0,0)"/>
<path d="" fill="#AA5555" transform="translate(0,0)"/>
<path d="" fill="#FF0000" transform="translate(0,0)"/>
<path d="" fill="#FF0000" transform="translate(0,0)"/>
<path d="" fill="#FF0000" transform="translate(0,0)"/>
<path d="" fill="#AA5555" transform="translate(0,0)"/>
<path d="" fill="#FF0000" transform="translate(0,0)"/>
<path d="" fill="#FF0000" transform="translate(0,0)"/>
<path d="" fill="#BF4040" transform="translate(0,0)"/>
<path d="" fill="#FF0000" transform="translate(0,0)"/>
<path d="" fill="#FF0000" transform="translate(0,0)"/>
<path d="" fill="#FF0000" transform="translate(0,0)"/>
<path d="" fill="#FF0000" transform="translate(0,0)"/>
<path d="" fill="#FF0000" transform="translate(0,0)"/>
<path d="" fill="#FF0000" transform="translate(0,0)"/>
<path d="" fill="#FF0000" transform="translate(0,0)"/>
<path d="" fill="#AA0055" transform="translate(0,0)"/>
<path d="" fill="#AA0055" transform="translate(0,0)"/>
<path d="" fill="#AA5555" transform="translate(0,0)"/>
<path d="" fill="#FF0000" transform="translate(0,0)"/>
<path d="" fill="#AA5555" transform="translate(0,0)"/>
<path d="" fill="#BF4040" transform="translate(0,0)"/>
<path d="" fill="#AA5555" transform="translate(0,0)"/>
<path d="" fill="#BF4040" transform="translate(0,0)"/>
<path d="" fill="#BF4040" transform="translate(0,0)"/>
<path d="" fill="#FF0000" transform="translate(0,0)"/>
<path d="" fill="#FF0000" transform="translate(0,0)"/>
<path d="" fill="#AA5555" transform="translate(0,0)"/>
<path d="" fill="#FF0000" transform="translate(0,0)"/>
<path d="" fill="#FF0000" transform="translate(0,0)"/>
<path d="" fill="#FF0000" transform="translate(0,0)"/>
<path d="" fill="#800000" transform="translate(0,0)"/>
<path d="" fill="#AA5555" transform="translate(0,0)"/>
<path d="" fill="#CC3333" transform="translate(0,0)"/>
<path d="" fill="#AA5555" transform="translate(0,0)"/>
<path d="" fill="#BF4040" transform="translate(0,0)"/>
<path d="" fill="#AA5555" transform="translate(0,0)"/>
<path d="" fill="#FF0000" transform="translate(0,0)"/>
<path d="" fill="#FF0000" transform="translate(0,0)"/>
<path d="" fill="#AA5555" transform="translate(0,0)"/>
<path d="" fill="#FF0000" transform="translate(0,0)"/>
<path d="" fill="#FF0000" transform="translate(0,0)"/>
<path d="" fill="#FF0000" transform="translate(0,0)"/>
<path d="" fill="#FF0000" transform="translate(0,0)"/>
<path d="" fill="#AA5555" transform="translate(0,0)"/>
<path d="" fill="#FF0000" transform="translate(0,0)"/>
<path d="" fill="#FF0000" transform="translate(0,0)"/>
<path d="" fill="#FF0000" transform="translate(0,0)"/>
<path d="" fill="#FF0000" transform="translate(0,0)"/>
<path d="" fill="#FF0000" transform="translate(0,0)"/>
<path d="" fill="#AA5555" transform="translate(0,0)"/>
<path d="" fill="#AA5555" transform="translate(0,0)"/>
<path d="" fill="#FF0000" transform="translate(0,0)"/>
<path d="" fill="#BF4040" transform="translate(0,0)"/>
<path d="" fill="#FF0000" transform="translate(0,0)"/>
<path d="" fill="#FF0000" transform="translate(0,0)"/>
<path d="" fill="#FF0000" transform="translate(0,0)"/>
<path d="" fill="#AA5555" transform="translate(0,0)"/>
<path d="" fill="#FF0000" transform="translate(0,0)"/>
<path d="" fill="#FF0000" transform="translate(0,0)"/>
<path d="" fill="#FF0000" transform="translate(0,0)"/>
<path d="" fill="#FF0000" transform="translate(0,0)"/>
<path d="" fill="#FF0000" transform="translate(0,0)"/>
<path d="" fill="#FF0000" transform="translate(0,0)"/>
<path d="" fill="#FF0000" transform="translate(0,0)"/>
<path d="" fill="#AA5555" transform="translate(0,0)"/>
<path d="" fill="#FF0000" transform="translate(0,0)"/>
<path d="" fill="#BF4040" transform="translate(0,0)"/>
<path d="" fill="#FF0000" transform="translate(0,0)"/>
<path d="" fill="#FF0000" transform="translate(0,0)"/>
<path d="" fill="#AA5555" transform="translate(0,0)"/>
<path d="" fill="#FF0000" transform="translate(0,0)"/>
<path d="" fill="#AA5555" transform="translate(0,0)"/>
<path d="" fill="#FF0000" transform="translate(0,0)"/>
<path d="" fill="#FF0000" transform="translate(0,0)"/>
<path d="" fill="#AA5555" transform="translate(0,0)"/>
<path d="" fill="#FF0000" transform="translate(0,0)"/>
<path d="" fill="#BF4040" transform="translate(0,0)"/>
<path d="" fill="#AA5555" transform="translate(0,0)"/>
<path d="" fill="#FF0000" transform="translate(0,0)"/>
<path d="" fill="#AA5555" transform="translate(0,0)"/>
<path d="" fill="#FF0000" transform="translate(0,0)"/>
<path d="" fill="#FF0000" transform="translate(0,0)"/>
<path d="" fill="#FF0000" transform="translate(0,0)"/>
<path d="" fill="#FF0000" transform="translate(0,0)"/>
<path d="" fill="#FF0000" transform="translate(0,0)"/>
<path d="" fill="#CC3333" transform="translate(0,0)"/>
<path d="" fill="#FF0000" transform="translate(0,0)"/>
<path d="" fill="#FF0000" transform="translate(0,0)"/>
<path d="" fill="#FF0000" transform="translate(0,0)"/>
<path d="" fill="#FF0000" transform="translate(0,0)"/>
<path d="" fill="#FF0000" transform="translate(0,0)"/>
<path d="" fill="#FF0000" transform="translate(0,0)"/>
<path d="" fill="#AA5555" transform="translate(0,0)"/>
<path d="" fill="#BF4040" transform="translate(0,0)"/>
<path d="" fill="#FF0000" transform="translate(0,0)"/>
<path d="" fill="#BF4040" transform="translate(0,0)"/>
<path d="" fill="#AA5555" transform="translate(0,0)"/>
<path d="" fill="#AA5555" transform="translate(0,0)"/>
<path d="" fill="#AA5555" transform="translate(0,0)"/>
<path d="" fill="#FF0000" transform="translate(0,0)"/>
<path d="" fill="#FF0000" transform="translate(0,0)"/>
<path d="" fill="#FF0000" transform="translate(0,0)"/>
<path d="" fill="#FF0000" transform="translate(0,0)"/>
<path d="" fill="#FF0000" transform="translate(0,0)"/>
<path d="" fill="#FF0000" transform="translate(0,0)"/>
<path d="" fill="#FF0000" transform="translate(0,0)"/>
<path d="" fill="#FF0000" transform="translate(0,0)"/>
<path d="" fill="#FF0000" transform="translate(0,0)"/>
<path d="" fill="#FF0000" transform="translate(0,0)"/>
<path d="" fill="#FF0000" transform="translate(0,0)"/>
<path d="" fill="#BF4040" transform="translate(0,0)"/>
<path d="" fill="#AA5555" transform="translate(0,0)"/>
<path d="" fill="#BF4040" transform="translate(0,0)"/>
<path d="" fill="#FF0000" transform="translate(0,0)"/>
<path d="" fill="#FF0000" transform="translate(0,0)"/>
<path d="" fill="#FF0000" transform="translate(0,0)"/>
<path d="" fill="#FF0000" transform="translate(0,0)"/>
<path d="" fill="#FF0000" transform="translate(0,0)"/>
<path d="" fill="#BF4040" transform="translate(0,0)"/>
<path d="" fill="#FF0000" transform="translate(0,0)"/>
<path d="" fill="#FF0000" transform="translate(0,0)"/>
<path d="" fill="#FF0000" transform="translate(0,0)"/>
<path d="" fill="#FF0000" transform="translate(0,0)"/>
<path d="" fill="#FF0000" transform="translate(0,0)"/>
<path d="" fill="#AA5555" transform="translate(0,0)"/>
<path d="" fill="#FF0000" transform="translate(0,0)"/>
<path d="" fill="#FF0000" transform="translate(0,0)"/>
<path d="" fill="#FF0000" transform="translate(0,0)"/>
<path d="" fill="#CC3333" transform="translate(0,0)"/>
<path d="" fill="#FF0000" transform="translate(0,0)"/>
<path d="" fill="#FF0000" transform="translate(0,0)"/>
<path d="" fill="#FF0000" transform="translate(0,0)"/>
<path d="" fill="#AA5555" transform="translate(0,0)"/>
<path d="" fill="#AA5555" transform="translate(0,0)"/>
<path d="" fill="#AA5555" transform="translate(0,0)"/>
<path d="" fill="#AA5555" transform="translate(0,0)"/>
<path d="" fill="#BF4040" transform="translate(0,0)"/>
<path d="" fill="#FF0000" transform="translate(0,0)"/>
<path d="" fill="#FF0000" transform="translate(0,0)"/>
<path d="" fill="#CC3333" transform="translate(0,0)"/>
<path d="" fill="#AA5555" transform="translate(0,0)"/>
<path d="" fill="#BF4040" transform="translate(0,0)"/>
<path d="" fill="#AA5555" transform="translate(0,0)"/>
<path d="" fill="#BF4040" transform="translate(0,0)"/>
<path d="" fill="#FF0000" transform="translate(0,0)"/>
<path d="" fill="#FF0000" transform="translate(0,0)"/>
<path d="" fill="#FF0000" transform="translate(0,0)"/>
<path d="" fill="#FF0000" transform="translate(0,0)"/>
<path d="" fill="#FF0000" transform="translate(0,0)"/>
<path d="" fill="#FF0000" transform="translate(0,0)"/>
<path d="" fill="#FF0000" transform="translate(0,0)"/>
<path d="" fill="#FF0000" transform="translate(0,0)"/>
<path d="" fill="#BF4040" transform="translate(0,0)"/>
<path d="" fill="#FF0000" transform="translate(0,0)"/>
<path d="" fill="#FF0000" transform="translate(0,0)"/>
<path d="" fill="#BF4040" transform="translate(0,0)"/>
<path d="" fill="#CC3333" transform="translate(0,0)"/>
<path d="" fill="#CC3333" transform="translate(0,0)"/>
<path d="" fill="#BF4040" transform="translate(0,0)"/>
<path d="" fill="#AA5555" transform="translate(0,0)"/>
<path d="" fill="#FF0000" transform="translate(0,0)"/>
<path d="" fill="#AA5555" transform="translate(0,0)"/>
<path d="" fill="#AA5555" transform="translate(0,0)"/>
<path d="" fill="#AA5555" transform="translate(0,0)"/>
<path d="" fill="#FF0000" transform="translate(0,0)"/>
<path d="" fill="#FF0000" transform="translate(0,0)"/>
<path d="" fill="#FF0000" transform="translate(0,0)"/>
<path d="" fill="#FF0000" transform="translate(0,0)"/>
<path d="" fill="#800000" transform="translate(0,0)"/>
<path d="" fill="#FF0000" transform="translate(0,0)"/>
<path d="" fill="#BF4040" transform="translate(0,0)"/>
<path d="" fill="#BF4040" transform="translate(0,0)"/>
<path d="" fill="#AA5555" transform="translate(0,0)"/>
<path d="" fill="#AA5555" transform="translate(0,0)"/>
<path d="" fill="#AA5555" transform="translate(0,0)"/>
<path d="" fill="#AA5555" transform="translate(0,0)"/>
<path d="" fill="#FF0000" transform="translate(0,0)"/>
<path d="" fill="#FF0000" transform="translate(0,0)"/>
<path d="" fill="#FF0000" transform="translate(0,0)"/>
<path d="" fill="#FF0000" transform="translate(0,0)"/>
<path d="" fill="#FF0000" transform="translate(0,0)"/>
<path d="" fill="#FF0000" transform="translate(0,0)"/>
<path d="" fill="#AA5555" transform="translate(0,0)"/>
<path d="" fill="#FF0000" transform="translate(0,0)"/>
<path d="" fill="#FF0000" transform="translate(0,0)"/>
<path d="" fill="#FF0000" transform="translate(0,0)"/>
<path d="" fill="#FF0000" transform="translate(0,0)"/>
<path d="" fill="#AA5555" transform="translate(0,0)"/>
<path d="" fill="#FF0000" transform="translate(0,0)"/>
<path d="" fill="#FF0000" transform="translate(0,0)"/>
<path d="" fill="#FF0000" transform="translate(0,0)"/>
<path d="" fill="#FF0000" transform="translate(0,0)"/>
<path d="" fill="#FF0000" transform="translate(0,0)"/>
<path d="" fill="#AA5555" transform="translate(0,0)"/>
<path d="" fill="#FF0000" transform="translate(0,0)"/>
<path d="" fill="#FF0000" transform="translate(0,0)"/>
<path d="" fill="#AA5555" transform="translate(0,0)"/>
<path d="" fill="#BF4040" transform="translate(0,0)"/>
<path d="" fill="#BF4040" transform="translate(0,0)"/>
<path d="" fill="#FF0000" transform="translate(0,0)"/>
<path d="" fill="#FF0000" transform="translate(0,0)"/>
<path d="" fill="#FF0000" transform="translate(0,0)"/>
<path d="" fill="#FF0000" transform="translate(0,0)"/>
<path d="" fill="#FF0000" transform="translate(0,0)"/>
<path d="" fill="#FF0000" transform="translate(0,0)"/>
<path d="" fill="#FF0000" transform="translate(0,0)"/>
<path d="" fill="#FF0000" transform="translate(0,0)"/>
<path d="" fill="#FF0000" transform="translate(0,0)"/>
<path d="" fill="#FF0000" transform="translate(0,0)"/>
<path d="" fill="#BF4040" transform="translate(0,0)"/>
<path d="" fill="#AA0055" transform="translate(0,0)"/>
<path d="" fill="#BF4040" transform="translate(0,0)"/>
<path d="" fill="#BF4040" transform="translate(0,0)"/>
<path d="" fill="#AA5555" transform="translate(0,0)"/>
<path d="" fill="#BF4040" transform="translate(0,0)"/>
<path d="" fill="#AA5555" transform="translate(0,0)"/>
<path d="" fill="#FF0000" transform="translate(0,0)"/>
<path d="" fill="#FF0000" transform="translate(0,0)"/>
<path d="" fill="#FF0000" transform="translate(0,0)"/>
<path d="" fill="#FF0000" transform="translate(0,0)"/>
<path d="" fill="#FF0000" transform="translate(0,0)"/>
<path d="" fill="#FF0000" transform="translate(0,0)"/>
<path d="" fill="#FF0000" transform="translate(0,0)"/>
<path d="" fill="#800000" transform="translate(0,0)"/>
<path d="" fill="#FF0000" transform="translate(0,0)"/>
<path d="" fill="#BF4040" transform="translate(0,0)"/>
<path d="" fill="#AA5555" transform="translate(0,0)"/>
<path d="" fill="#BF4040" transform="translate(0,0)"/>
<path d="" fill="#AA5555" transform="translate(0,0)"/>
<path d="" fill="#FF0000" transform="translate(0,0)"/>
<path d="" fill="#FF0000" transform="translate(0,0)"/>
<path d="" fill="#FF0000" transform="translate(0,0)"/>
<path d="" fill="#FF0000" transform="translate(0,0)"/>
<path d="" fill="#FF0000" transform="translate(0,0)"/>
<path d="" fill="#FF0000" transform="translate(0,0)"/>
<path d="" fill="#FF0000" transform="translate(0,0)"/>
<path d="" fill="#FF0000" transform="translate(0,0)"/>
<path d="" fill="#FF0000" transform="translate(0,0)"/>
<path d="" fill="#CC3333" transform="translate(0,0)"/>
<path d="" fill="#AA5555" transform="translate(0,0)"/>
<path d="" fill="#BF4040" transform="translate(0,0)"/>
<path d="" fill="#FF0000" transform="translate(0,0)"/>
<path d="" fill="#FF0000" transform="translate(0,0)"/>
<path d="" fill="#FF0000" transform="translate(0,0)"/>
<path d="" fill="#FF0000" transform="translate(0,0)"/>
<path d="" fill="#FF0000" transform="translate(0,0)"/>
<path d="" fill="#FF0000" transform="translate(0,0)"/>
<path d="" fill="#FF0000" transform="translate(0,0)"/>
<path d="" fill="#FF0000" transform="translate(0,0)"/>
<path d="" fill="#FF0000" transform="translate(0,0)"/>
<path d="" fill="#AA5555" transform="translate(0,0)"/>
<path d="" fill="#FF0000" transform="translate(0,0)"/>
<path d="" fill="#FF0000" transform="translate(0,0)"/>
<path d="" fill="#FF0000" transform="translate(0,0)"/>
<path d="" fill="#AA5555" transform="translate(0,0)"/>
<path d="" fill="#FF0000" transform="translate(0,0)"/>
<path d="" fill="#AA5555" transform="translate(0,0)"/>
<path d="" fill="#AA5555" transform="translate(0,0)"/>
<path d="" fill="#BF4040" transform="translate(0,0)"/>
<path d="" fill="#AA5555" transform="translate(0,0)"/>
<path d="" fill="#FF0000" transform="translate(0,0)"/>
<path d="" fill="#FF0000" transform="translate(0,0)"/>
<path d="" fill="#FF0000" transform="translate(0,0)"/>
<path d="" fill="#FF0000" transform="translate(0,0)"/>
<path d="" fill="#FF0000" transform="translate(0,0)"/>
<path d="" fill="#AA5555" transform="translate(0,0)"/>
<path d="" fill="#FF0000" transform="translate(0,0)"/>
<path d="" fill="#FF0000" transform="translate(0,0)"/>
<path d="" fill="#BF4040" transform="translate(0,0)"/>
<path d="" fill="#BF4040" transform="translate(0,0)"/>
<path d="" fill="#FF0000" transform="translate(0,0)"/>
<path d="" fill="#AA5555" transform="translate(0,0)"/>
<path d="" fill="#FF0000" transform="translate(0,0)"/>
<path d="" fill="#FF0000" transform="translate(0,0)"/>
<path d="" fill="#BF4040" transform="translate(0,0)"/>
<path d="" fill="#AA5555" transform="translate(0,0)"/>
<path d="" fill="#FF0000" transform="translate(0,0)"/>
<path d="" fill="#FF0000" transform="translate(0,0)"/>
<path d="" fill="#AA5555" transform="translate(0,0)"/>
<path d="" fill="#FF0000" transform="translate(0,0)"/>
<path d="" fill="#FF0000" transform="translate(0,0)"/>
<path d="" fill="#FF0000" transform="translate(0,0)"/>
<path d="" fill="#FF0000" transform="translate(0,0)"/>
<path d="" fill="#BF4040" transform="translate(0,0)"/>
<path d="" fill="#BF4040" transform="translate(0,0)"/>
<path d="" fill="#FF0000" transform="translate(0,0)"/>
<path d="" fill="#FF0000" transform="translate(0,0)"/>
<path d="" fill="#AA5555" transform="translate(0,0)"/>
<path d="" fill="#AA5555" transform="translate(0,0)"/>
<path d="" fill="#BF4040" transform="translate(0,0)"/>
<path d="" fill="#FF0000" transform="translate(0,0)"/>
<path d="" fill="#FF0000" transform="translate(0,0)"/>
<path d="" fill="#BF4040" transform="translate(0,0)"/>
<path d="" fill="#FF0000" transform="translate(0,0)"/>
<path d="" fill="#FF0000" transform="translate(0,0)"/>
<path d="" fill="#FF0000" transform="translate(0,0)"/>
<path d="" fill="#FF0000" transform="translate(0,0)"/>
<path d="" fill="#FF0000" transform="translate(0,0)"/>
<path d="" fill="#FF0000" transform="translate(0,0)"/>
<path d="" fill="#BF4040" transform="translate(0,0)"/>
<path d="" fill="#AA5555" transform="translate(0,0)"/>
<path d="" fill="#FF0000" transform="translate(0,0)"/>
<path d="" fill="#FF0000" transform="translate(0,0)"/>
<path d="" fill="#FF0000" transform="translate(0,0)"/>
<path d="" fill="#AA5555" transform="translate(0,0)"/>
<path d="" fill="#FF0000" transform="translate(0,0)"/>
<path d="" fill="#AA5555" transform="translate(0,0)"/>
<path d="" fill="#AA5555" transform="translate(0,0)"/>
<path d="" fill="#FF0000" transform="translate(0,0)"/>
<path d="" fill="#FF0000" transform="translate(0,0)"/>
<path d="" fill="#FF0000" transform="translate(0,0)"/>
<path d="" fill="#FF0000" transform="translate(0,0)"/>
<path d="" fill="#FF0000" transform="translate(0,0)"/>
<path d="" fill="#AA5555" transform="translate(0,0)"/>
<path d="" fill="#CC3333" transform="translate(0,0)"/>
<path d="" fill="#FF0000" transform="translate(0,0)"/>
<path d="" fill="#FF0000" transform="translate(0,0)"/>
<path d="" fill="#FF0000" transform="translate(0,0)"/>
<path d="" fill="#FF0000" transform="translate(0,0)"/>
<path d="" fill="#FF0000" transform="translate(0,0)"/>
<path d="" fill="#FF0000" transform="translate(0,0)"/>
<path d="" fill="#FF0000" transform="translate(0,0)"/>
<path d="" fill="#AA5555" transform="translate(0,0)"/>
<path d="" fill="#AA5555" transform="translate(0,0)"/>
<path d="" fill="#AA5555" transform="translate(0,0)"/>
<path d="" fill="#AA5555" transform="translate(0,0)"/>
<path d="" fill="#FF0000" transform="translate(0,0)"/>
<path d="" fill="#AA5555" transform="translate(0,0)"/>
<path d="" fill="#AA5555" transform="translate(0,0)"/>
<path d="" fill="#FF0000" transform="translate(0,0)"/>
<path d="" fill="#FF0000" transform="translate(0,0)"/>
<path d="" fill="#AA5555" transform="translate(0,0)"/>
<path d="" fill="#FF0000" transform="translate(0,0)"/>
<path d="" fill="#FF0000" transform="translate(0,0)"/>
<path d="" fill="#FF0000" transform="translate(0,0)"/>
<path d="" fill="#BF4040" transform="translate(0,0)"/>
<path d="" fill="#BF4040" transform="translate(0,0)"/>
<path d="" fill="#FF0000" transform="translate(0,0)"/>
<path d="" fill="#AA5555" transform="translate(0,0)"/>
<path d="" fill="#AA5555" transform="translate(0,0)"/>
<path d="" fill="#FF0000" transform="translate(0,0)"/>
<path d="" fill="#AA5555" transform="translate(0,0)"/>
<path d="" fill="#FF0000" transform="translate(0,0)"/>
<path d="" fill="#FF0000" transform="translate(0,0)"/>
<path d="" fill="#BF4040" transform="translate(0,0)"/>
<path d="" fill="#FF0000" transform="translate(0,0)"/>
<path d="" fill="#AA5555" transform="translate(0,0)"/>
<path d="" fill="#FF0000" transform="translate(0,0)"/>
<path d="" fill="#FF0000" transform="translate(0,0)"/>
<path d="" fill="#FF0000" transform="translate(0,0)"/>
<path d="" fill="#FF0000" transform="translate(0,0)"/>
<path d="" fill="#BF4040" transform="translate(0,0)"/>
<path d="" fill="#AA5555" transform="translate(0,0)"/>
<path d="" fill="#AA5555" transform="translate(0,0)"/>
<path d="" fill="#BF4040" transform="translate(0,0)"/>
<path d="" fill="#FF0000" transform="translate(0,0)"/>
<path d="" fill="#FF0000" transform="translate(0,0)"/>
<path d="" fill="#FF0000" transform="translate(0,0)"/>
<path d="" fill="#AA5555" transform="translate(0,0)"/>
<path d="" fill="#FF0000" transform="translate(0,0)"/>
<path d="" fill="#FF0000" transform="translate(0,0)"/>
<path d="" fill="#FF0000" transform="translate(0,0)"/>
<path d="" fill="#FF0000" transform="translate(0,0)"/>
<path d="" fill="#AA5555" transform="translate(0,0)"/>
<path d="" fill="#AA5555" transform="translate(0,0)"/>
<path d="" fill="#FF0000" transform="translate(0,0)"/>
<path d="" fill="#FF0000" transform="translate(0,0)"/>
<path d="" fill="#FF0000" transform="translate(0,0)"/>
<path d="" fill="#FF0000" transform="translate(0,0)"/>
<path d="" fill="#FF0000" transform="translate(0,0)"/>
<path d="" fill="#AA5555" transform="translate(0,0)"/>
<path d="" fill="#BF4040" transform="translate(0,0)"/>
<path d="" fill="#AA5555" transform="translate(0,0)"/>
<path d="" fill="#BF4040" transform="translate(0,0)"/>
<path d="" fill="#FF0000" transform="translate(0,0)"/>
<path d="" fill="#AA5555" transform="translate(0,0)"/>
<path d="" fill="#FF0000" transform="translate(0,0)"/>
<path d="" fill="#AA5555" transform="translate(0,0)"/>
<path d="" fill="#AA5555" transform="translate(0,0)"/>
<path d="" fill="#AA5555" transform="translate(0,0)"/>
<path d="" fill="#FF0000" transform="translate(0,0)"/>
<path d="" fill="#FF0000" transform="translate(0,0)"/>
<path d="" fill="#FF0000" transform="translate(0,0)"/>
<path d="" fill="#AA5555" transform="translate(0,0)"/>
<path d="" fill="#FF0000" transform="translate(0,0)"/>
<path d="" fill="#FF0000" transform="translate(0,0)"/>
<path d="" fill="#FF0000" transform="translate(0,0)"/>
<path d="" fill="#FF0000" transform="translate(0,0)"/>
<path d="" fill="#AA5555" transform="translate(0,0)"/>
<path d="" fill="#AA5555" transform="translate(0,0)"/>
<path d="" fill="#AA5555" transform="translate(0,0)"/>
<path d="" fill="#FF0000" transform="translate(0,0)"/>
<path d="" fill="#FF0000" transform="translate(0,0)"/>
<path d="" fill="#FF0000" transform="translate(0,0)"/>
<path d="" fill="#FF0000" transform="translate(0,0)"/>
<path d="" fill="#AA5555" transform="translate(0,0)"/>
<path d="" fill="#BF4040" transform="translate(0,0)"/>
<path d="" fill="#CC3333" transform="translate(0,0)"/>
<path d="" fill="#AA5555" transform="translate(0,0)"/>
<path d="" fill="#FF0000" transform="translate(0,0)"/>
<path d="" fill="#FF0000" transform="translate(0,0)"/>
<path d="" fill="#FF0000" transform="translate(0,0)"/>
<path d="" fill="#BF4040" transform="translate(0,0)"/>
<path d="" fill="#AA5555" transform="translate(0,0)"/>
<path d="" fill="#AA5555" transform="translate(0,0)"/>
<path d="" fill="#FF0000" transform="translate(0,0)"/>
<path d="" fill="#FF0000" transform="translate(0,0)"/>
<path d="" fill="#FF0000" transform="translate(0,0)"/>
<path d="" fill="#FF0000" transform="translate(0,0)"/>
<path d="" fill="#FF0000" transform="translate(0,0)"/>
<path d="" fill="#AA5555" transform="translate(0,0)"/>
<path d="" fill="#FF0000" transform="translate(0,0)"/>
<path d="" fill="#FF0000" transform="translate(0,0)"/>
<path d="" fill="#AA5555" transform="translate(0,0)"/>
<path d="" fill="#BF4040" transform="translate(0,0)"/>
<path d="" fill="#FF0000" transform="translate(0,0)"/>
<path d="" fill="#FF0000" transform="translate(0,0)"/>
<path d="" fill="#FF0000" transform="translate(0,0)"/>
<path d="" fill="#FF0000" transform="translate(0,0)"/>
<path d="" fill="#BF4040" transform="translate(0,0)"/>
<path d="" fill="#BF4040" transform="translate(0,0)"/>
<path d="" fill="#BF4040" transform="translate(0,0)"/>
<path d="" fill="#FF0000" transform="translate(0,0)"/>
<path d="" fill="#FF0000" transform="translate(0,0)"/>
<path d="" fill="#FF0000" transform="translate(0,0)"/>
<path d="" fill="#FF0000" transform="translate(0,0)"/>
<path d="" fill="#AA5555" transform="translate(0,0)"/>
<path d="" fill="#BF4040" transform="translate(0,0)"/>
<path d="" fill="#BF4040" transform="translate(0,0)"/>
<path d="" fill="#FF0000" transform="translate(0,0)"/>
<path d="" fill="#FF0000" transform="translate(0,0)"/>
<path d="" fill="#FF0000" transform="translate(0,0)"/>
<path d="" fill="#FF0000" transform="translate(0,0)"/>
<path d="" fill="#FF0000" transform="translate(0,0)"/>
<path d="" fill="#FF0000" transform="translate(0,0)"/>
<path d="" fill="#AA5555" transform="translate(0,0)"/>
<path d="" fill="#FF0000" transform="translate(0,0)"/>
<path d="" fill="#FF0000" transform="translate(0,0)"/>
<path d="" fill="#FF0000" transform="translate(0,0)"/>
<path d="" fill="#FF0000" transform="translate(0,0)"/>
<path d="" fill="#AA5555" transform="translate(0,0)"/>
<path d="" fill="#FF0000" transform="translate(0,0)"/>
<path d="" fill="#FF0000" transform="translate(0,0)"/>
<path d="" fill="#AA5555" transform="translate(0,0)"/>
<path d="" fill="#FF0000" transform="translate(0,0)"/>
<path d="" fill="#AA5555" transform="translate(0,0)"/>
<path d="" fill="#AA5555" transform="translate(0,0)"/>
<path d="" fill="#CC3333" transform="translate(0,0)"/>
<path d="" fill="#FF0000" transform="translate(0,0)"/>
<path d="" fill="#FF0000" transform="translate(0,0)"/>
<path d="" fill="#FF0000" transform="translate(0,0)"/>
<path d="" fill="#FF0000" transform="translate(0,0)"/>
<path d="" fill="#AA5555" transform="translate(0,0)"/>
<path d="" fill="#BF4040" transform="translate(0,0)"/>
<path d="" fill="#BF4040" transform="translate(0,0)"/>
<path d="" fill="#FF0000" transform="translate(0,0)"/>
<path d="" fill="#FF0000" transform="translate(0,0)"/>
<path d="" fill="#FF0000" transform="translate(0,0)"/>
<path d="" fill="#FF0000" transform="translate(0,0)"/>
<path d="" fill="#FF0000" transform="translate(0,0)"/>
<path d="" fill="#AA5555" transform="translate(0,0)"/>
<path d="" fill="#FF0000" transform="translate(0,0)"/>
<path d="" fill="#AA5555" transform="translate(0,0)"/>
<path d="" fill="#FF0000" transform="translate(0,0)"/>
<path d="" fill="#FF0000" transform="translate(0,0)"/>
<path d="" fill="#FF0000" transform="translate(0,0)"/>
<path d="" fill="#FF0000" transform="translate(0,0)"/>
<path d="" fill="#FF0000" transform="translate(0,0)"/>
<path d="" fill="#FF0000" transform="translate(0,0)"/>
<path d="" fill="#FF0000" transform="translate(0,0)"/>
<path d="" fill="#FF0000" transform="translate(0,0)"/>
<path d="" fill="#FF0000" transform="translate(0,0)"/>
<path d="" fill="#CC3333" transform="translate(0,0)"/>
<path d="" fill="#AA5555" transform="translate(0,0)"/>
<path d="" fill="#FF0000" transform="translate(0,0)"/>
<path d="" fill="#FF0000" transform="translate(0,0)"/>
<path d="" fill="#FF0000" transform="translate(0,0)"/>
<path d="" fill="#FF0000" transform="translate(0,0)"/>
<path d="" fill="#FF0000" transform="translate(0,0)"/>
<path d="" fill="#FF0000" transform="translate(0,0)"/>
<path d="" fill="#AA5555" transform="translate(0,0)"/>
<path d="" fill="#BF4040" transform="translate(0,0)"/>
<path d="" fill="#FF0000" transform="translate(0,0)"/>
<path d="" fill="#FF0000" transform="translate(0,0)"/>
<path d="" fill="#AA5555" transform="translate(0,0)"/>
<path d="" fill="#AA5555" transform="translate(0,0)"/>
<path d="" fill="#BF4040" transform="translate(0,0)"/>
<path d="" fill="#FF0000" transform="translate(0,0)"/>
<path d="" fill="#FF0000" transform="translate(0,0)"/>
<path d="" fill="#FF0000" transform="translate(0,0)"/>
<path d="" fill="#FF0000" transform="translate(0,0)"/>
<path d="" fill="#FF0000" transform="translate(0,0)"/>
<path d="" fill="#FF0000" transform="translate(0,0)"/>
<path d="" fill="#BF4040" transform="translate(0,0)"/>
<path d="" fill="#FF0000" transform="translate(0,0)"/>
<path d="" fill="#FF0000" transform="translate(0,0)"/>
<path d="" fill="#FF0000" transform="translate(0,0)"/>
<path d="" fill="#BF4040" transform="translate(0,0)"/>
<path d="" fill="#CC3333" transform="translate(0,0)"/>
<path d="" fill="#FF0000" transform="translate(0,0)"/>
<path d="" fill="#FF0000" transform="translate(0,0)"/>
<path d="" fill="#FF0000" transform="translate(0,0)"/>
<path d="" fill="#FF0000" transform="translate(0,0)"/>
<path d="" fill="#FF0000" transform="translate(0,0)"/>
<path d="" fill="#AA5555" transform="translate(0,0)"/>
<path d="" fill="#AA5555" transform="translate(0,0)"/>
<path d="" fill="#800000" transform="translate(0,0)"/>
<path d="" fill="#FF0000" transform="translate(0,0)"/>
<path d="" fill="#FF0000" transform="translate(0,0)"/>
<path d="" fill="#FF0000" transform="translate(0,0)"/>
<path d="" fill="#FF0000" transform="translate(0,0)"/>
<path d="" fill="#FF0000" transform="translate(0,0)"/>
<path d="" fill="#FF0000" transform="translate(0,0)"/>
<path d="" fill="#FF0000" transform="translate(0,0)"/>
<path d="" fill="#AA5555" transform="translate(0,0)"/>
<path d="" fill="#FF0000" transform="translate(0,0)"/>
<path d="" fill="#BF4040" transform="translate(0,0)"/>
<path d="" fill="#FF0000" transform="translate(0,0)"/>
<path d="" fill="#FF0000" transform="translate(0,0)"/>
<path d="" fill="#FF0000" transform="translate(0,0)"/>
<path d="" fill="#FF0000" transform="translate(0,0)"/>
<path d="" fill="#BF4040" transform="translate(0,0)"/>
<path d="" fill="#FF0000" transform="translate(0,0)"/>
<path d="" fill="#FF0000" transform="translate(0,0)"/>
<path d="" fill="#FF0000" transform="translate(0,0)"/>
<path d="" fill="#FF0000" transform="translate(0,0)"/>
<path d="" fill="#FF0000" transform="translate(0,0)"/>
<path d="" fill="#CC3333" transform="translate(0,0)"/>
<path d="" fill="#FF0000" transform="translate(0,0)"/>
<path d="" fill="#FF0000" transform="translate(0,0)"/>
<path d="" fill="#FF0000" transform="translate(0,0)"/>
<path d="" fill="#AA5555" transform="translate(0,0)"/>
<path d="" fill="#FF0000" transform="translate(0,0)"/>
<path d="" fill="#FF0000" transform="translate(0,0)"/>
<path d="" fill="#AA5555" transform="translate(0,0)"/>
<path d="" fill="#FF0000" transform="translate(0,0)"/>
<path d="" fill="#AA5555" transform="translate(0,0)"/>
<path d="" fill="#FF0000" transform="translate(0,0)"/>
<path d="" fill="#AA5555" transform="translate(0,0)"/>
<path d="" fill="#FF0000" transform="translate(0,0)"/>
<path d="" fill="#AA5555" transform="translate(0,0)"/>
<path d="" fill="#BF4040" transform="translate(0,0)"/>
<path d="" fill="#AA5555" transform="translate(0,0)"/>
<path d="" fill="#FF0000" transform="translate(0,0)"/>
<path d="" fill="#AA5555" transform="translate(0,0)"/>
<path d="" fill="#AA5555" transform="translate(0,0)"/>
<path d="" fill="#FF0000" transform="translate(0,0)"/>
<path d="" fill="#BF4040" transform="translate(0,0)"/>
<path d="" fill="#CC3333" transform="translate(0,0)"/>
<path d="" fill="#AA5555" transform="translate(0,0)"/>
<path d="" fill="#BF4040" transform="translate(0,0)"/>
<path d="" fill="#AA5555" transform="translate(0,0)"/>
<path d="" fill="#FF0000" transform="translate(0,0)"/>
<path d="" fill="#BF4040" transform="translate(0,0)"/>
<path d="" fill="#FF0000" transform="translate(0,0)"/>
<path d="" fill="#800000" transform="translate(0,0)"/>
<path d="" fill="#FF0000" transform="translate(0,0)"/>
<path d="" fill="#FF0000" transform="translate(0,0)"/>
<path d="" fill="#FF0000" transform="translate(0,0)"/>
<path d="" fill="#FF0000" transform="translate(0,0)"/>
<path d="" fill="#AA5555" transform="translate(0,0)"/>
<path d="" fill="#BF4040" transform="translate(0,0)"/>
<path d="" fill="#FF0000" transform="translate(0,0)"/>
<path d="" fill="#FF0000" transform="translate(0,0)"/>
<path d="" fill="#FF0000" transform="translate(0,0)"/>
<path d="" fill="#FF0000" transform="translate(0,0)"/>
<path d="" fill="#AA5555" transform="translate(0,0)"/>
<path d="" fill="#BF4040" transform="translate(0,0)"/>
<path d="" fill="#FF0000" transform="translate(0,0)"/>
<path d="" fill="#FF0000" transform="translate(0,0)"/>
<path d="" fill="#FF0000" transform="translate(0,0)"/>
<path d="" fill="#FF0000" transform="translate(0,0)"/>
<path d="" fill="#FF0000" transform="translate(0,0)"/>
<path d="" fill="#AA0055" transform="translate(0,0)"/>
<path d="" fill="#FF0000" transform="translate(0,0)"/>
<path d="" fill="#800000" transform="translate(0,0)"/>
<path d="" fill="#FF0000" transform="translate(0,0)"/>
<path d="" fill="#800000" transform="translate(0,0)"/>
<path d="" fill="#FF0000" transform="translate(0,0)"/>
<path d="" fill="#BF4040" transform="translate(0,0)"/>
<path d="" fill="#BF4040" transform="translate(0,0)"/>
<path d="" fill="#FF0000" transform="translate(0,0)"/>
<path d="" fill="#AA5555" transform="translate(0,0)"/>
<path d="" fill="#FF0000" transform="translate(0,0)"/>
<path d="" fill="#FF0000" transform="translate(0,0)"/>
<path d="" fill="#AA5555" transform="translate(0,0)"/>
<path d="" fill="#BF4040" transform="translate(0,0)"/>
<path d="" fill="#FF0000" transform="translate(0,0)"/>
<path d="" fill="#FF0000" transform="translate(0,0)"/>
<path d="" fill="#FF0000" transform="translate(0,0)"/>
<path d="" fill="#AA5555" transform="translate(0,0)"/>
<path d="" fill="#FF0000" transform="translate(0,0)"/>
<path d="" fill="#AA5555" transform="translate(0,0)"/>
<path d="" fill="#FF0000" transform="translate(0,0)"/>
<path d="" fill="#FF0000" transform="translate(0,0)"/>
<path d="" fill="#FF0000" transform="translate(0,0)"/>
<path d="" fill="#FF0000" transform="translate(0,0)"/>
<path d="" fill="#BF4040" transform="translate(0,0)"/>
<path d="" fill="#FF0000" transform="translate(0,0)"/>
<path d="" fill="#AA5555" transform="translate(0,0)"/>
<path d="" fill="#AA5555" transform="translate(0,0)"/>
<path d="" fill="#FF0000" transform="translate(0,0)"/>
<path d="" fill="#FF0000" transform="translate(0,0)"/>
<path d="" fill="#800000" transform="translate(0,0)"/>
<path d="" fill="#BF4040" transform="translate(0,0)"/>
<path d="" fill="#AA5555" transform="translate(0,0)"/>
<path d="" fill="#AA0055" transform="translate(0,0)"/>
<path d="" fill="#FF0000" transform="translate(0,0)"/>
<path d="" fill="#AA5555" transform="translate(0,0)"/>
<path d="" fill="#FF0000" transform="translate(0,0)"/>
<path d="" fill="#FF0000" transform="translate(0,0)"/>
<path d="" fill="#AA5555" transform="translate(0,0)"/>
<path d="" fill="#AA5555" transform="translate(0,0)"/>
<path d="" fill="#FF0000" transform="translate(0,0)"/>
<path d="" fill="#FF0000" transform="translate(0,0)"/>
<path d="" fill="#FF0000" transform="translate(0,0)"/>
<path d="" fill="#AA5555" transform="translate(0,0)"/>
<path d="" fill="#BF4040" transform="translate(0,0)"/>
<path d="" fill="#FF0000" transform="translate(0,0)"/>
<path d="" fill="#FF0000" transform="translate(0,0)"/>
<path d="" fill="#FF0000" transform="translate(0,0)"/>
<path d="" fill="#FF0000" transform="translate(0,0)"/>
<path d="" fill="#800000" transform="translate(0,0)"/>
<path d="" fill="#FF0000" transform="translate(0,0)"/>
<path d="" fill="#BF4040" transform="translate(0,0)"/>
<path d="" fill="#FF0000" transform="translate(0,0)"/>
<path d="" fill="#AA5555" transform="translate(0,0)"/>
<path d="" fill="#FF0000" transform="translate(0,0)"/>
<path d="" fill="#AA5555" transform="translate(0,0)"/>
<path d="" fill="#FF0000" transform="translate(0,0)"/>
<path d="" fill="#CC3333" transform="translate(0,0)"/>
<path d="" fill="#FF0000" transform="translate(0,0)"/>
<path d="" fill="#FF0000" transform="translate(0,0)"/>
<path d="" fill="#FF0000" transform="translate(0,0)"/>
<path d="" fill="#FF0000" transform="translate(0,0)"/>
<path d="" fill="#FF0000" transform="translate(0,0)"/>
<path d="" fill="#FF0000" transform="translate(0,0)"/>
<path d="" fill="#AA5555" transform="translate(0,0)"/>
<path d="" fill="#AA5555" transform="translate(0,0)"/>
<path d="" fill="#FF0000" transform="translate(0,0)"/>
<path d="" fill="#FF0000" transform="translate(0,0)"/>
<path d="" fill="#FF0000" transform="translate(0,0)"/>
<path d="" fill="#BF4040" transform="translate(0,0)"/>
<path d="" fill="#BF4040" transform="translate(0,0)"/>
<path d="" fill="#FF0000" transform="translate(0,0)"/>
<path d="" fill="#FF0000" transform="translate(0,0)"/>
<path d="" fill="#FF0000" transform="translate(0,0)"/>
<path d="" fill="#BF4040" transform="translate(0,0)"/>
<path d="" fill="#BF4040" transform="translate(0,0)"/>
<path d="" fill="#FF0000" transform="translate(0,0)"/>
<path d="" fill="#FF0000" transform="translate(0,0)"/>
<path d="" fill="#FF0000" transform="translate(0,0)"/>
<path d="" fill="#FF0000" transform="translate(0,0)"/>
<path d="" fill="#FF0000" transform="translate(0,0)"/>
<path d="" fill="#FF0000" transform="translate(0,0)"/>
<path d="" fill="#800000" transform="translate(0,0)"/>
<path d="" fill="#FF0000" transform="translate(0,0)"/>
<path d="" fill="#800000" transform="translate(0,0)"/>
<path d="" fill="#AA5555" transform="translate(0,0)"/>
<path d="" fill="#AA5555" transform="translate(0,0)"/>
<path d="" fill="#AA5555" transform="translate(0,0)"/>
<path d="" fill="#FF0000" transform="translate(0,0)"/>
<path d="" fill="#FF0000" transform="translate(0,0)"/>
<path d="" fill="#FF0000" transform="translate(0,0)"/>
<path d="" fill="#FF0000" transform="translate(0,0)"/>
<path d="" fill="#FF0000" transform="translate(0,0)"/>
<path d="" fill="#AA0055" transform="translate(0,0)"/>
<path d="" fill="#FF0000" transform="translate(0,0)"/>
<path d="" fill="#800000" transform="translate(0,0)"/>
<path d="" fill="#FF0000" transform="translate(0,0)"/>
<path d="" fill="#800000" transform="translate(0,0)"/>
<path d="" fill="#BF4040" transform="translate(0,0)"/>
<path d="" fill="#AA5555" transform="translate(0,0)"/>
<path d="" fill="#CC3333" transform="translate(0,0)"/>
<path d="" fill="#BF4040" transform="translate(0,0)"/>
<path d="" fill="#FF0000" transform="translate(0,0)"/>
<path d="" fill="#AA5555" transform="translate(0,0)"/>
<path d="" fill="#FF0000" transform="translate(0,0)"/>
<path d="" fill="#FF0000" transform="translate(0,0)"/>
<path d="" fill="#FF0000" transform="translate(0,0)"/>
<path d="" fill="#FF0000" transform="translate(0,0)"/>
<path d="" fill="#FF0000" transform="translate(0,0)"/>
<path d="" fill="#FF0000" transform="translate(0,0)"/>
<path d="" fill="#BF4040" transform="translate(0,0)"/>
<path d="" fill="#AA5555" transform="translate(0,0)"/>
<path d="" fill="#CC3333" transform="translate(0,0)"/>
<path d="" fill="#CC3333" transform="translate(0,0)"/>
<path d="" fill="#FF0000" transform="translate(0,0)"/>
<path d="" fill="#BF4040" transform="translate(0,0)"/>
<path d="" fill="#FF0000" transform="translate(0,0)"/>
<path d="" fill="#FF0000" transform="translate(0,0)"/>
<path d="" fill="#FF0000" transform="translate(0,0)"/>
<path d="" fill="#FF0000" transform="translate(0,0)"/>
<path d="" fill="#AA5555" transform="translate(0,0)"/>
<path d="" fill="#AA5555" transform="translate(0,0)"/>
<path d="" fill="#FF0000" transform="translate(0,0)"/>
<path d="" fill="#FF0000" transform="translate(0,0)"/>
<path d="" fill="#FF0000" transform="translate(0,0)"/>
<path d="" fill="#FF0000" transform="translate(0,0)"/>
<path d="" fill="#AA5555" transform="translate(0,0)"/>
<path d="" fill="#AA5555" transform="translate(0,0)"/>
<path d="" fill="#FF0000" transform="translate(0,0)"/>
<path d="" fill="#AA5555" transform="translate(0,0)"/>
<path d="" fill="#AA5555" transform="translate(0,0)"/>
<path d="" fill="#AA5555" transform="translate(0,0)"/>
<path d="" fill="#AA5555" transform="translate(0,0)"/>
<path d="" fill="#FF0000" transform="translate(0,0)"/>
<path d="" fill="#FF0000" transform="translate(0,0)"/>
<path d="" fill="#FF0000" transform="translate(0,0)"/>
<path d="" fill="#FF0000" transform="translate(0,0)"/>
<path d="" fill="#FF0000" transform="translate(0,0)"/>
<path d="" fill="#FF0000" transform="translate(0,0)"/>
<path d="" fill="#FF0000" transform="translate(0,0)"/>
<path d="" fill="#FF0000" transform="translate(0,0)"/>
<path d="" fill="#FF0000" transform="translate(0,0)"/>
<path d="" fill="#BF4040" transform="translate(0,0)"/>
<path d="" fill="#AA5555" transform="translate(0,0)"/>
<path d="" fill="#AA5555" transform="translate(0,0)"/>
<path d="" fill="#AA5555" transform="translate(0,0)"/>
<path d="" fill="#AA5555" transform="translate(0,0)"/>
<path d="" fill="#FF0000" transform="translate(0,0)"/>
<path d="" fill="#FF0000" transform="translate(0,0)"/>
<path d="" fill="#800000" transform="translate(0,0)"/>
<path d="" fill="#FF0000" transform="translate(0,0)"/>
<path d="" fill="#FF0000" transform="translate(0,0)"/>
<path d="" fill="#FF0000" transform="translate(0,0)"/>
<path d="" fill="#FF0000" transform="translate(0,0)"/>
<path d="" fill="#FF0000" transform="translate(0,0)"/>
<path d="" fill="#FF0000" transform="translate(0,0)"/>
<path d="" fill="#FF0000" transform="translate(0,0)"/>
<path d="" fill="#FF0000" transform="translate(0,0)"/>
<path d="" fill="#AA0055" transform="translate(0,0)"/>
<path d="" fill="#FF0000" transform="translate(0,0)"/>
<path d="" fill="#AA5555" transform="translate(0,0)"/>
<path d="" fill="#AA0055" transform="translate(0,0)"/>
<path d="" fill="#FF0000" transform="translate(0,0)"/>
<path d="" fill="#AA0055" transform="translate(0,0)"/>
<path d="" fill="#FF0000" transform="translate(0,0)"/>
<path d="" fill="#800000" transform="translate(0,0)"/>
<path d="" fill="#FF0000" transform="translate(0,0)"/>
<path d="" fill="#AA5555" transform="translate(0,0)"/>
<path d="" fill="#BF4040" transform="translate(0,0)"/>
<path d="" fill="#AA5555" transform="translate(0,0)"/>
</svg>
