<?xml version="1.0" encoding="UTF-8"?>
<!-- Generator: https://ezgif.com/png-to-svg -->
<svg version="1.1" xmlns="http://www.w3.org/2000/svg" width="500" height="500">
<path d="M0 0 C0.9 -0.01 1.8 -0.01 2.73 -0.02 C40.56 -0.25 40.56 -0.25 57.21 3.2 C58.7 3.51 58.7 3.51 60.22 3.82 C82.21 8.47 103 15.37 123.21 25.2 C123.94 25.56 124.68 25.92 125.44 26.29 C144.9 35.88 162.98 48.42 178.93 63.11 C181.05 65.06 183.21 66.95 185.39 68.83 C191.89 74.52 197.49 80.6 202.9 87.34 C204.36 89.15 205.85 90.95 207.36 92.72 C240.62 131.88 262.14 186.51 262.41 238 C262.42 238.9 262.42 239.8 262.43 240.72 C262.66 278.56 262.66 278.56 259.21 295.2 C258.9 296.69 258.9 296.69 258.59 298.21 C253.94 320.21 247.04 340.99 237.21 361.2 C236.85 361.94 236.49 362.68 236.12 363.44 C226.53 382.9 213.99 400.98 199.3 416.93 C197.35 419.05 195.46 421.21 193.58 423.39 C187.89 429.89 181.81 435.49 175.07 440.89 C173.26 442.36 171.46 443.84 169.69 445.36 C130.53 478.62 75.9 500.14 24.41 500.41 C23.06 500.42 23.06 500.42 21.69 500.43 C-16.15 500.66 -16.15 500.66 -32.79 497.2 C-34.28 496.9 -34.28 496.9 -35.8 496.58 C-57.8 491.93 -78.58 485.04 -98.79 475.2 C-99.53 474.84 -100.27 474.49 -101.03 474.12 C-120.48 464.53 -138.57 451.98 -154.52 437.29 C-156.64 435.34 -158.8 433.46 -160.98 431.58 C-167.48 425.89 -173.08 419.81 -178.48 413.07 C-179.95 411.25 -181.43 409.46 -182.95 407.68 C-216.21 368.53 -237.73 313.89 -238 262.41 C-238 261.51 -238.01 260.61 -238.02 259.68 C-238.25 221.85 -238.25 221.85 -234.79 205.2 C-234.49 203.71 -234.49 203.71 -234.17 202.19 C-229.52 180.2 -222.63 159.42 -212.79 139.2 C-212.43 138.47 -212.08 137.73 -211.71 136.97 C-202.12 117.51 -189.57 99.43 -174.88 83.48 C-172.93 81.36 -171.05 79.2 -169.17 77.02 C-163.48 70.52 -157.4 64.92 -150.66 59.51 C-148.84 58.05 -147.05 56.56 -145.27 55.05 C-106.12 21.79 -51.48 0.27 0 0 Z " fill="#0D0E0F" transform="translate(237.79296875,-0.203125)"/>
<path d="M0 0 C2.52 -0.05 5.04 -0.09 7.56 -0.12 C8.27 -0.14 8.97 -0.16 9.7 -0.18 C14.52 -0.22 18.42 0.47 23 2 C23 2.33 23 2.66 23 3 C20.69 3 18.38 3 16 3 C17.64 6.12 17.64 6.12 20.16 6.73 C20.98 6.88 21.79 7.03 22.62 7.19 C23.44 7.35 24.26 7.5 25.1 7.67 C25.73 7.78 26.35 7.89 27 8 C27 7.34 27 6.68 27 6 C28.65 5.67 30.3 5.34 32 5 C32 5.99 32 6.98 32 8 C31.01 8 30.02 8 29 8 C29 8.99 29 9.98 29 11 C27.68 11 26.36 11 25 11 C25 11.66 25 12.32 25 13 C26.65 13 28.3 13 30 13 C29.67 13.66 29.34 14.32 29 15 C27.35 15 25.7 15 24 15 C24 15.66 24 16.32 24 17 C24.95 17.14 25.9 17.29 26.88 17.44 C30 18 30 18 32 19 C32 20.32 32 21.64 32 23 C29.33 23 26.67 23 24 23 C24 23.66 24 24.32 24 25 C26.64 25 29.28 25 32 25 C31.44 26.11 31.44 26.11 30.88 27.25 C29.8 30.63 30.45 30.99 32 34 C31.62 37.25 31.62 37.25 31 40 C32.32 40 33.64 40 35 40 C35 39.01 35 38.02 35 37 C40.05 36.13 43.41 35.71 48 38 C48 40 48 42 48 44 C48.66 44.33 49.32 44.66 50 45 C49.34 45.99 48.68 46.98 48 48 C48 48.99 48 49.98 48 51 C49.32 48.69 50.64 46.38 52 44 C53.32 44 54.64 44 56 44 C56 43.01 56 42.02 56 41 C56.66 41 57.32 41 58 41 C57.67 42.65 57.34 44.3 57 46 C59.47 45.66 59.47 45.66 62 45 C62.33 44.34 62.66 43.68 63 43 C63.33 43 63.66 43 64 43 C64 41.68 64 40.36 64 39 C62.68 39 61.36 39 60 39 C58.08 38.7 56.16 38.36 54.25 38 C53.27 37.81 52.28 37.63 51.27 37.44 C50.52 37.29 49.77 37.15 49 37 C49 36.01 49 35.02 49 34 C48.34 34 47.68 34 47 34 C47 33.34 47 32.68 47 32 C47.66 32 48.32 32 49 32 C48.77 30.54 48.52 29.08 48.25 27.62 C48.04 26.41 48.04 26.41 47.83 25.16 C47.18 22.82 47.18 22.82 44.92 21.71 C44.29 21.48 43.65 21.24 43 21 C45.93 20.15 48.51 19.89 51.56 19.94 C52.71 19.95 52.71 19.95 53.88 19.96 C54.58 19.98 55.28 19.99 56 20 C59.52 20 60.37 19.18 63 17 C63 17.66 63 18.32 63 19 C68.61 19 74.22 19 80 19 C80 18.01 80 17.02 80 16 C88.45 13.67 95.21 15.15 103 19 C104.97 20.97 104.66 24.35 105 27 C107.31 27.33 109.62 27.66 112 28 C112 29.32 112 30.64 112 32 C113.08 31.26 113.08 31.26 114.19 30.5 C117.15 28.92 118.71 28.72 122 29 C121.67 29.99 121.34 30.98 121 32 C119.35 32.33 117.7 32.66 116 33 C116 33.66 116 34.32 116 35 C117.12 34.98 117.12 34.98 118.27 34.96 C119.25 34.96 120.24 34.95 121.25 34.94 C122.71 34.92 122.71 34.92 124.2 34.9 C127.79 35.03 130.61 35.87 134 37 C133.01 37.66 132.02 38.32 131 39 C130.64 41.21 130.64 41.21 130.81 43.62 C130.84 44.44 130.87 45.26 130.89 46.1 C130.93 46.73 130.96 47.35 131 48 C131.66 48 132.32 48 133 48 C133 48.66 133 49.32 133 50 C133.99 50.33 134.98 50.66 136 51 C136 51.99 136 52.98 136 54 C134.35 54 132.7 54 131 54 C131 52.68 131 51.36 131 50 C130.01 50 129.02 50 128 50 C128 50.99 128 51.98 128 53 C126.51 53.5 126.51 53.5 125 54 C126.5 57.13 126.5 57.13 129 60 C132.54 60.42 132.54 60.42 136 60 C136.99 60.33 137.98 60.66 139 61 C138.25 65.75 138.25 65.75 136 68 C132.87 67.62 132.87 67.62 130 67 C130 67.66 130 68.32 130 69 C129.34 69 128.68 69 128 69 C128 69.99 128 70.98 128 72 C127.34 72 126.68 72 126 72 C125.67 73.65 125.34 75.3 125 77 C120.38 77.33 115.76 77.66 111 78 C110.67 76.68 110.34 75.36 110 74 C105.59 72.53 102.52 71.63 98 73 C98.33 72.01 98.66 71.02 99 70 C98.01 69.34 97.02 68.68 96 68 C94.51 68.5 94.51 68.5 93 69 C92.67 66.69 92.34 64.38 92 62 C91.67 64.31 91.34 66.62 91 69 C90.34 69 89.68 69 89 69 C89.33 73.29 89.66 77.58 90 82 C89.34 82 88.68 82 88 82 C88.33 85.3 88.66 88.6 89 92 C90.65 92.33 92.3 92.66 94 93 C92.13 89.37 92.13 89.37 89 87 C89.33 86.44 89.65 85.88 89.99 85.3 C91.12 82.73 91.21 81.03 91.12 78.25 C91.11 77.45 91.09 76.65 91.07 75.83 C91.05 75.22 91.02 74.62 91 74 C92.32 74 93.64 74 95 74 C95.33 72.68 95.66 71.36 96 70 C96 72.64 96 75.28 96 78 C97.49 77.01 97.49 77.01 99 76 C101.74 76.03 104.28 76.55 107 77 C106.67 77.99 106.34 78.98 106 80 C105.34 80 104.68 80 104 80 C103.83 80.63 103.66 81.25 103.48 81.9 C103.24 82.72 103 83.53 102.75 84.38 C102.52 85.19 102.29 86 102.05 86.84 C100.76 89.49 99.66 89.89 97 91 C94.69 94.23 94.82 97.12 95 101 C95.33 100.34 95.66 99.68 96 99 C96.99 99 97.98 99 99 99 C98.67 97.68 98.34 96.36 98 95 C99.32 95.66 100.64 96.32 102 97 C102 97.99 102 98.98 102 100 C102.99 100.66 103.98 101.32 105 102 C104.38 102.1 103.76 102.21 103.12 102.31 C100.63 102.88 100.63 102.88 99 106 C98.01 106 97.02 106 96 106 C95.67 105.01 95.34 104.02 95 103 C90.05 102.67 85.1 102.34 80 102 C80 102.66 80 103.32 80 104 C81.65 104 83.3 104 85 104 C85 104.99 85 105.98 85 107 C87.97 107 90.94 107 94 107 C94 107.99 94 108.98 94 110 C94.99 110.33 95.98 110.66 97 111 C97.33 110.34 97.66 109.68 98 109 C98.66 109 99.32 109 100 109 C100 109.66 100 110.32 100 111 C101.32 111 102.64 111 104 111 C104 114 104 117 104 120 C104.99 120 105.98 120 107 120 C106 123 106 123 103 125 C103 125.99 103 126.98 103 128 C101.02 128 99.04 128 97 128 C95.81 125.31 95.81 125.31 95 122 C96.38 119.12 96.38 119.12 98 117 C96.35 117 94.7 117 93 117 C90.45 121.59 89.85 125.78 90 131 C91.32 130.67 92.64 130.34 94 130 C93.67 130.99 93.34 131.98 93 133 C94.32 133 95.64 133 97 133 C97.66 132.01 98.32 131.02 99 130 C99.66 130 100.32 130 101 130 C101 130.99 101 131.98 101 133 C101.66 133 102.32 133 103 133 C102.45 136.37 101.95 138.08 100 141 C101.32 140.67 102.64 140.34 104 140 C104 141.65 104 143.3 104 145 C104.66 145 105.32 145 106 145 C106.33 144.34 106.66 143.68 107 143 C106.69 144.18 106.69 144.18 106.38 145.38 C106.25 146.24 106.13 147.11 106 148 C106.66 148.66 107.32 149.32 108 150 C106.68 150.33 105.36 150.66 104 151 C103.34 150.01 102.68 149.02 102 148 C99.84 148 98.08 148.45 96 149 C95.67 150.32 95.34 151.64 95 153 C94.01 152.67 93.02 152.34 92 152 C91.31 149.94 91.31 149.94 91 148 C91.66 148 92.32 148 93 148 C92.67 146.68 92.34 145.36 92 144 C93.32 143.67 94.64 143.34 96 143 C96 142.01 96 141.02 96 140 C95.44 140.31 94.89 140.62 94.31 140.94 C91.77 142.1 89.79 142.79 87 143 C84.69 141.75 84.69 141.75 83 140 C83 139.01 83 138.02 83 137 C82.01 136.67 81.02 136.34 80 136 C80 135.34 80 134.68 80 134 C78.02 133.67 76.04 133.34 74 133 C73.86 133.58 73.71 134.16 73.56 134.75 C73.04 136.83 72.52 138.92 72 141 C74.64 141 77.28 141 80 141 C80 142.65 80 144.3 80 146 C78.02 146 76.04 146 74 146 C74 145.34 74 144.68 74 144 C73.01 143.67 72.02 143.34 71 143 C71 142.34 71 141.68 71 141 C69.02 140.67 67.04 140.34 65 140 C65 138.35 65 136.7 65 135 C64.01 135 63.02 135 62 135 C61.67 134.01 61.34 133.02 61 132 C59.74 132.23 58.48 132.45 57.19 132.69 C52.36 133.24 48.63 132.32 44.07 130.79 C39.76 129.68 35.43 129.36 31 129 C31.01 127.99 31.01 126.98 31.02 125.94 C31.03 122.19 31.05 118.44 31.05 114.69 C31.06 113.07 31.07 111.45 31.08 109.83 C31.09 107.49 31.09 105.16 31.1 102.83 C31.1 102.11 31.11 101.38 31.11 100.64 C31.11 97.28 31.05 94.21 30 91 C28.02 91 26.04 91 24 91 C24 90.34 24 89.68 24 89 C26.64 89 29.28 89 32 89 C32 88.01 32 87.02 32 86 C25.92 85.8 25.92 85.8 20 87 C20 87.66 20 88.32 20 89 C19.34 89 18.68 89 18 89 C18.66 87.02 19.32 85.04 20 83 C19.34 83 18.68 83 18 83 C18 86.63 18 90.26 18 94 C17.01 94 16.02 94 15 94 C15 93.34 15 92.68 15 92 C-55.29 92.5 -55.29 92.5 -127 93 C-127.33 92.01 -127.66 91.02 -128 90 C-128.99 90 -129.98 90 -131 90 C-131.5 91.98 -131.5 91.98 -132 94 C-132.66 94 -133.32 94 -134 94 C-134 92.35 -134 90.7 -134 89 C-136.31 89 -138.62 89 -141 89 C-141.33 87.68 -141.66 86.36 -142 85 C-142.66 85 -143.32 85 -144 85 C-144.33 84.67 -144.66 84.34 -145 84 C-145 85.65 -145 87.3 -145 89 C-144.01 89 -143.02 89 -142 89 C-142 91.64 -142 94.28 -142 97 C-140.35 97.33 -138.7 97.66 -137 98 C-137 116.81 -137 135.62 -137 155 C-119.18 155 -101.36 155 -83 155 C-83 192.62 -83 230.24 -83 269 C-82.01 268.67 -81.02 268.34 -80 268 C-77.64 267.92 -75.28 267.89 -72.93 267.9 C-71.67 267.9 -70.42 267.91 -69.13 267.91 C-66.75 267.92 -66.75 267.92 -64.31 267.94 C-59.26 267.96 -54.21 267.98 -49 268 C-48.67 279.55 -48.34 291.1 -48 303 C-24.9 303.33 -1.8 303.66 22 304 C22 305.65 22 307.3 22 309 C22.66 309 23.32 309 24 309 C24.33 307.35 24.66 305.7 25 304 C25.66 304 26.32 304 27 304 C27 308.29 27 312.58 27 317 C26.34 317 25.68 317 25 317 C25.07 317.65 25.14 318.31 25.22 318.98 C25.93 325.97 26.4 332.97 26 340 C25.67 340.33 25.34 340.66 25 341 C24.85 342.9 24.77 344.81 24.72 346.71 C24.66 348.46 24.66 348.46 24.61 350.23 C24.57 351.46 24.54 352.68 24.5 353.94 C24.43 356.34 24.36 358.75 24.28 361.15 C24.25 362.22 24.22 363.3 24.19 364.4 C24 367 24 367 23 369 C21.35 368.67 19.7 368.34 18 368 C18 368.66 18 369.32 18 370 C17.34 370 16.68 370 16 370 C15.67 369.34 15.34 368.68 15 368 C14.01 367.67 13.02 367.34 12 367 C12.66 367.66 13.32 368.32 14 369 C14.33 369.99 14.66 370.98 15 372 C15.99 372.66 16.98 373.32 18 374 C17 375 17 375 14.44 375.06 C13.63 375.04 12.83 375.02 12 375 C12 374.34 12 373.68 12 373 C9.36 372.67 6.72 372.34 4 372 C4 370.68 4 369.36 4 368 C1.66 370.13 0.29 372.12 -1 375 C-1.33 374.34 -1.66 373.68 -2 373 C-2.66 373 -3.32 373 -4 373 C-4 373.66 -4 374.32 -4 375 C-4.66 375 -5.32 375 -6 375 C-6.96 378.59 -7.21 380.38 -6 384 C-6.33 384.66 -6.66 385.32 -7 386 C-6.34 386.33 -5.68 386.66 -5 387 C-5 387.66 -5 388.32 -5 389 C-5.66 389 -6.32 389 -7 389 C-7 389.99 -7 390.98 -7 392 C-5.02 392 -3.04 392 -1 392 C-0.67 390.68 -0.34 389.36 0 388 C0.8 388.02 1.61 388.04 2.44 388.06 C4.93 388.3 4.93 388.3 6 387 C4.02 387 2.04 387 0 387 C0.33 385.68 0.66 384.36 1 383 C3.31 383 5.62 383 8 383 C8.33 382.01 8.66 381.02 9 380 C14.42 379.07 17.8 378.79 23 381 C23 380.34 23 379.68 23 379 C24.32 379 25.64 379 27 379 C29.75 376.58 29.75 376.58 32 374 C32 374.99 32 375.98 32 377 C39.26 377 46.52 377 54 377 C54 376.01 54 375.02 54 374 C55.55 373.98 55.55 373.98 57.13 373.96 C61.01 373.9 64.89 373.82 68.78 373.74 C70.45 373.7 72.12 373.68 73.79 373.65 C86.5 373.48 86.5 373.48 98.84 370.65 C101.99 369.7 104.74 369.78 108 370 C107.36 370.31 106.72 370.62 106.06 370.94 C104.06 371.83 104.06 371.83 103 373 C104.67 372.97 104.67 372.97 106.38 372.94 C110 373 110 373 112 374 C112 375.32 112 376.64 112 378 C113.32 378.33 114.64 378.66 116 379 C116.33 377.02 116.66 375.04 117 373 C117.99 373 118.98 373 120 373 C120.98 376.05 120.98 377.95 120 381 C121.14 379.76 121.14 379.76 122.31 378.5 C125 376 125 376 128 376 C128 375.01 128 374.02 128 373 C126.68 373 125.36 373 124 373 C124.33 372.01 124.66 371.02 125 370 C126.98 370 128.96 370 131 370 C131 368.68 131 367.36 131 366 C131.99 366 132.98 366 134 366 C133.67 367.65 133.34 369.3 133 371 C133.99 371 134.98 371 136 371 C136 371.66 136 372.32 136 373 C135.23 373.06 134.46 373.13 133.67 373.2 C130.84 373.75 130.84 373.75 129.45 376.18 C128.86 377.51 128.86 377.51 128.25 378.88 C127.84 379.76 127.44 380.64 127.02 381.55 C126.27 383.34 125.61 385.16 125 387 C125.99 387 126.98 387 128 387 C128 389.31 128 391.62 128 394 C128.99 394 129.98 394 131 394 C131.25 394.62 131.5 395.24 131.75 395.88 C133.21 398.35 134.38 398.95 137 400 C136.67 401.32 136.34 402.64 136 404 C138.31 403.34 140.62 402.68 143 402 C142.19 403.94 142.19 403.94 141 406 C140.01 406.33 139.02 406.66 138 407 C138 407.66 138 408.32 138 409 C137.01 409 136.02 409 135 409 C135 408.34 135 407.68 135 407 C133.35 406.67 131.7 406.34 130 406 C130 406.99 130 407.98 130 409 C131.65 409.33 133.3 409.66 135 410 C135.33 410.99 135.66 411.98 136 413 C134.73 413.51 133.46 414 132.19 414.5 C131.13 414.92 131.13 414.92 130.04 415.34 C128 416 128 416 125 416 C125 416.99 125 417.98 125 419 C122.17 422.78 117.61 424.24 113.46 426.2 C112.56 426.63 111.67 427.06 110.75 427.5 C109.9 427.9 109.05 428.3 108.17 428.72 C105.72 429.96 105.72 429.96 104 433 C101.86 434.09 101.86 434.09 99.19 435.09 C98.2 435.46 97.22 435.83 96.21 436.21 C95.15 436.59 94.09 436.98 93 437.38 C91.91 437.77 90.83 438.17 89.71 438.58 C80.58 441.89 71.44 444.76 62 447 C60.85 447.28 60.85 447.28 59.68 447.56 C2.12 461.05 -59.8 449.76 -110 419 C-115.86 415.25 -121.46 411.2 -127 407 C-127.66 406.5 -128.32 406.01 -129 405.49 C-144.71 393.53 -159.13 379.64 -170.79 363.65 C-171.99 362.01 -173.23 360.38 -174.46 358.76 C-190.93 336.85 -202.86 311.41 -210 285 C-210.23 284.18 -210.45 283.36 -210.68 282.51 C-225.88 225.67 -217.39 163.3 -188.34 112.24 C-182.66 102.58 -176.26 93.53 -169.35 84.72 C-168.17 83.22 -167.02 81.71 -165.88 80.19 C-155.31 66.63 -142.54 54.33 -128.65 44.21 C-127.01 43.01 -125.38 41.77 -123.76 40.54 C-94.27 18.4 -94.27 18.4 -83.69 19 C-79.46 19.11 -76.05 18.27 -72 17 C-70.68 17 -69.36 17 -68 17 C-68 17.66 -68 18.32 -68 19 C-66.68 19 -65.36 19 -64 19 C-66.01 15.99 -66.84 15.37 -70 14 C-69.11 14.01 -68.22 14.02 -67.3 14.04 C-65.54 14.05 -65.54 14.05 -63.75 14.06 C-62.01 14.08 -62.01 14.08 -60.23 14.1 C-57.59 14.02 -55.5 13.79 -53 13 C-53 14.32 -53 15.64 -53 17 C-51.35 17 -49.7 17 -48 17 C-48 16.34 -48 15.68 -48 15 C-48.99 15 -49.98 15 -51 15 C-51.33 14.01 -51.66 13.02 -52 12 C-49.69 12 -47.38 12 -45 12 C-45.33 11.01 -45.66 10.02 -46 9 C-43.36 8.01 -40.72 7.02 -38 6 C-38.99 5.34 -39.98 4.68 -41 4 C-36.71 4 -32.42 4 -28 4 C-28 4.66 -28 5.32 -28 6 C-27.05 5.81 -26.1 5.63 -25.12 5.44 C-22 5 -22 5 -20 6 C-20 6.66 -20 7.32 -20 8 C-19.01 8.5 -19.01 8.5 -18 9 C-18 9.66 -18 10.32 -18 11 C-17.01 11 -16.02 11 -15 11 C-13.31 12.5 -13.31 12.5 -12 14 C-11.01 13.67 -10.02 13.34 -9 13 C-8.27 10.98 -8.27 10.98 -8 9 C-7.34 9 -6.68 9 -6 9 C-6 9.66 -6 10.32 -6 11 C-4.02 11.33 -2.04 11.66 0 12 C0.33 11.01 0.66 10.02 1 9 C1.99 9.33 2.98 9.66 4 10 C4 8.02 4 6.04 4 4 C2.84 5.05 2.84 5.05 2 7 C1.34 7 0.68 7 0 7 C0 7.99 0 8.98 0 10 C-1.98 9.5 -1.98 9.5 -4 9 C-3.01 8.01 -2.02 7.02 -1 6 C-3.31 5.34 -5.62 4.68 -8 4 C-8 3.34 -8 2.68 -8 2 C-1.07 2 5.86 2 13 2 C13 2.99 13 3.98 13 5 C13.66 5 14.32 5 15 5 C15 3.68 15 2.36 15 1 C10.05 1 5.1 1 0 1 C0 0.67 0 0.34 0 0 Z " fill="#0B0F11" transform="translate(240,27)"/>
<path d="M0 0 C54.12 0 108.24 0 164 0 C164 11.55 164 23.1 164 35 C166.31 35 168.62 35 171 35 C185.92 37.72 199.5 45.03 209 57 C216.65 68.1 221.15 79.41 221.12 93 C221.13 94.18 221.13 95.35 221.13 96.56 C221.01 99.8 220.61 102.82 220 106 C221.01 105.92 222.02 105.83 223.06 105.75 C238.49 105.86 255.51 113.99 267 124 C267.8 124.67 268.59 125.33 269.41 126.02 C286.98 141.17 296.79 160.91 299 184 C300.53 207.14 293.27 229.84 278.22 247.5 C263.22 264.4 242.64 275.13 220 277 C215.58 277.13 211.17 277.12 206.75 277.1 C205.64 277.1 204.53 277.1 203.38 277.09 C199.25 277.09 195.13 277.08 191 277.06 C181.76 277.04 172.52 277.02 163 277 C163 253.9 163 230.8 163 207 C137.92 207 112.84 207 87 207 C87 195.45 87 183.9 87 172 C75.78 172 64.56 172 53 172 C53 134.71 53 97.42 53 59 C35.51 59 18.02 59 0 59 C0 39.53 0 20.06 0 0 Z " fill="#130F0C" transform="translate(105,122)"/>
<path d="M0 0 C0.9 -0.01 1.8 -0.01 2.73 -0.02 C40.56 -0.25 40.56 -0.25 57.21 3.2 C58.7 3.51 58.7 3.51 60.22 3.82 C82.21 8.47 103 15.37 123.21 25.2 C123.94 25.56 124.68 25.92 125.44 26.29 C144.9 35.88 162.98 48.42 178.93 63.11 C181.05 65.06 183.21 66.95 185.39 68.83 C191.89 74.52 197.49 80.6 202.9 87.34 C204.36 89.15 205.85 90.95 207.36 92.72 C240.62 131.88 262.14 186.51 262.41 238 C262.42 238.9 262.42 239.8 262.43 240.72 C262.66 278.56 262.66 278.56 259.21 295.2 C258.9 296.69 258.9 296.69 258.59 298.21 C253.94 320.21 247.04 340.99 237.21 361.2 C236.85 361.94 236.49 362.68 236.12 363.44 C226.53 382.9 213.99 400.98 199.3 416.93 C197.35 419.05 195.46 421.21 193.58 423.39 C187.89 429.89 181.81 435.49 175.07 440.89 C173.26 442.36 171.46 443.84 169.69 445.36 C130.53 478.62 75.9 500.14 24.41 500.41 C23.06 500.42 23.06 500.42 21.69 500.43 C-16.15 500.66 -16.15 500.66 -32.79 497.2 C-34.28 496.9 -34.28 496.9 -35.8 496.58 C-57.8 491.93 -78.58 485.04 -98.79 475.2 C-99.53 474.84 -100.27 474.49 -101.03 474.12 C-120.48 464.53 -138.57 451.98 -154.52 437.29 C-156.64 435.34 -158.8 433.46 -160.98 431.58 C-167.48 425.89 -173.08 419.81 -178.48 413.07 C-179.95 411.25 -181.43 409.46 -182.95 407.68 C-216.21 368.53 -237.73 313.89 -238 262.41 C-238 261.51 -238.01 260.61 -238.02 259.68 C-238.25 221.85 -238.25 221.85 -234.79 205.2 C-234.49 203.71 -234.49 203.71 -234.17 202.19 C-229.52 180.2 -222.63 159.42 -212.79 139.2 C-212.43 138.47 -212.08 137.73 -211.71 136.97 C-202.12 117.51 -189.57 99.43 -174.88 83.48 C-172.93 81.36 -171.05 79.2 -169.17 77.02 C-163.48 70.52 -157.4 64.92 -150.66 59.51 C-148.84 58.05 -147.05 56.56 -145.27 55.05 C-106.12 21.79 -51.48 0.27 0 0 Z M-36.79 23.2 C-38.23 23.51 -38.23 23.51 -39.69 23.82 C-71.11 30.67 -99.61 44.86 -125.79 63.2 C-126.45 63.66 -127.1 64.11 -127.78 64.58 C-132.41 67.72 -132.41 67.72 -136.79 71.2 C-136.79 71.86 -136.79 72.52 -136.79 73.2 C-137.39 73.48 -137.98 73.75 -138.59 74.03 C-140.74 75.18 -142.26 76.35 -144.04 78 C-144.65 78.56 -145.25 79.12 -145.87 79.7 C-146.82 80.6 -146.82 80.6 -147.79 81.52 C-148.46 82.14 -149.12 82.76 -149.8 83.41 C-183.63 115.6 -206.93 157.55 -216.79 203.2 C-217.11 204.66 -217.11 204.66 -217.43 206.14 C-225.59 245.49 -222.48 288.28 -209.79 326.2 C-209.56 326.92 -209.32 327.64 -209.08 328.38 C-199.54 357.38 -183.53 384.5 -162.88 406.93 C-160.93 409.05 -159.05 411.21 -157.17 413.39 C-140 433.05 -117.76 448.11 -94.79 460.2 C-94.11 460.57 -93.42 460.93 -92.72 461.31 C-59.62 478.7 -23.76 485.66 13.33 485.58 C14.32 485.58 15.31 485.58 16.33 485.58 C31.35 485.54 45.56 484.79 60.21 481.2 C61.16 480.98 62.11 480.76 63.1 480.54 C102.81 471.35 139.32 453.04 169.21 425.2 C170.58 424.01 171.95 422.82 173.33 421.64 C181.13 414.81 187.78 407.33 194.21 399.2 C195.01 398.2 195.82 397.2 196.65 396.17 C220.7 365.98 236.04 329.67 242.75 291.79 C243.06 290.02 243.4 288.27 243.75 286.51 C245.6 276.46 245.54 266.43 245.52 256.24 C245.52 253.17 245.54 250.1 245.57 247.03 C245.61 234.16 244.55 221.86 242.21 209.2 C242.06 208.38 241.91 207.56 241.75 206.71 C238.05 186.48 231.19 167.67 222.21 149.2 C221.85 148.47 221.49 147.73 221.12 146.97 C199.68 103.45 164.04 67.77 121.21 45.2 C120.11 44.62 120.11 44.62 118.98 44.03 C100.67 34.54 81.28 27.74 61.14 23.27 C60.3 23.08 59.46 22.89 58.59 22.7 C42.92 19.48 27.16 18.79 11.21 18.83 C9.8 18.83 9.8 18.83 8.36 18.83 C-7.03 18.87 -21.72 19.84 -36.79 23.2 Z " fill="#0D0D0D" transform="translate(237.79296875,-0.203125)"/>
<path d="M0 0 C78.01 0 78.01 0 91.16 11.96 C99.51 20.6 103.4 31.5 103.21 43.45 C102.55 51.34 100.28 58.36 96.09 65.06 C94.91 67.15 94.21 68.61 94 71 C95.1 73.25 95.1 73.25 96.75 75.5 C103.28 85.83 104.38 97.15 101.94 108.94 C98.91 119.93 92.29 128.58 82.59 134.46 C58.29 147.44 23.16 140 0 140 C0 93.8 0 47.6 0 0 Z " fill="#F2740E" transform="translate(208,173)"/>
<path d="M0 0 C0 1.98 0 3.96 0 6 C0.23 5.36 0.45 4.72 0.69 4.06 C2 2 2 2 4.62 1.25 C5.41 1.17 6.19 1.09 7 1 C7 1.99 7 2.98 7 4 C6.34 4 5.68 4 5 4 C5.5 6.47 5.5 6.47 6 9 C4.68 9.33 3.36 9.66 2 10 C2.99 10.5 2.99 10.5 4 11 C2.68 11.66 1.36 12.32 0 13 C0.1 13.63 0.19 14.25 0.29 14.9 C0.4 15.72 0.51 16.53 0.62 17.38 C0.74 18.19 0.86 19 0.98 19.84 C0.99 20.91 0.99 20.91 1 22 C0.34 22.66 -0.32 23.32 -1 24 C-1.66 23.67 -2.32 23.34 -3 23 C-3 23.66 -3 24.32 -3 25 C-0.03 24.67 2.94 24.34 6 24 C6.72 26.02 7.43 28.04 8.15 30.05 C8.94 32.18 8.94 32.18 11 34 C9.68 34.33 8.36 34.66 7 35 C7 33.68 7 32.36 7 31 C6.34 31.33 5.68 31.66 5 32 C5.66 34.31 6.32 36.62 7 39 C4.35 40.46 3.11 41 0 41 C0.5 44.47 0.5 44.47 1 48 C1.99 45.69 2.98 43.38 4 41 C5.65 41.33 7.3 41.66 9 42 C9 41.34 9 40.68 9 40 C10.65 40 12.3 40 14 40 C16.48 45.55 15.85 50.17 15 56 C15.99 56 16.98 56 18 56 C18.66 54.68 19.32 53.36 20 52 C21.65 52 23.3 52 25 52 C24.34 51.34 23.68 50.68 23 50 C23.99 49.67 24.98 49.34 26 49 C25.34 48.67 24.68 48.34 24 48 C24.98 46.85 25.96 45.71 26.94 44.56 C27.48 43.92 28.03 43.29 28.59 42.63 C29.37 41.73 30.16 40.84 31 40 C31.04 38 31.04 36 31 34 C31.7 34.31 32.4 34.62 33.12 34.94 C36.09 36.03 38.88 36.56 42 37 C41.67 38.32 41.34 39.64 41 41 C41.66 41.33 42.32 41.66 43 42 C42.34 42 41.68 42 41 42 C41 42.99 41 43.98 41 45 C41.99 44.34 42.98 43.68 44 43 C44.99 43 45.98 43 47 43 C46.67 43.99 46.34 44.98 46 46 C45.34 45.67 44.68 45.34 44 45 C44.99 47.97 44.99 47.97 46 51 C47.08 48.84 47.29 47.26 47.56 44.88 C47.71 43.6 47.85 42.32 48 41 C51.47 40.5 51.47 40.5 55 40 C55.99 43.09 55.88 44.9 55 48 C56.2 47.97 57.41 47.93 58.65 47.89 C60.22 47.87 61.8 47.84 63.38 47.81 C64.57 47.77 64.57 47.77 65.78 47.74 C67.86 47.71 69.93 47.85 72 48 C72.66 48.99 73.32 49.98 74 51 C74.66 50.67 75.32 50.34 76 50 C76.13 58.06 75.8 65.97 75 74 C74.34 74 73.68 74 73 74 C73.48 75.29 73.96 76.58 74.44 77.88 C74.7 78.59 74.97 79.31 75.25 80.05 C75.98 82.04 75.98 82.04 77 84 C77.66 84 78.32 84 79 84 C79 83.01 79 82.02 79 81 C78.34 81 77.68 81 77 81 C77 79.02 77 77.04 77 75 C77.66 75 78.32 75 79 75 C80.84 82.41 81.24 89.38 81 97 C80.34 97 79.68 97 79 97 C79 101.29 79 105.58 79 110 C79.66 110 80.32 110 81 110 C81.33 109.01 81.66 108.02 82 107 C82.03 108.92 82.05 110.83 82.06 112.75 C82.07 113.82 82.09 114.88 82.1 115.98 C82.02 118.53 81.75 120.58 81 123 C80.34 123 79.68 123 79 123 C79 122.34 79 121.68 79 121 C78.34 121 77.68 121 77 121 C77 126.61 77 132.22 77 138 C76.01 137.34 75.02 136.68 74 136 C73.81 132.88 73.81 132.88 74 130 C73.01 130 72.02 130 71 130 C71.26 132.34 71.59 134.68 72 137 C72.66 137.33 73.32 137.66 74 138 C73.67 141.63 73.34 145.26 73 149 C72.01 148.67 71.02 148.34 70 148 C70 147.01 70 146.02 70 145 C69.01 145 68.02 145 67 145 C67 145.66 67 146.32 67 147 C66.34 147 65.68 147 65 147 C65 148.32 65 149.64 65 151 C65.66 151 66.32 151 67 151 C67.33 152.32 67.66 153.64 68 155 C67.01 154.67 66.02 154.34 65 154 C65 155.98 65 157.96 65 160 C65.99 160 66.98 160 68 160 C68 158.68 68 157.36 68 156 C68.66 156 69.32 156 70 156 C70.33 158.97 70.66 161.94 71 165 C71.66 165 72.32 165 73 165 C73 166.32 73 167.64 73 169 C69.7 168.67 66.4 168.34 63 168 C63 168.66 63 169.32 63 170 C62.01 170 61.02 170 60 170 C60 170.99 60 171.98 60 173 C58.35 173 56.7 173 55 173 C55 171.35 55 169.7 55 168 C54.38 167.69 53.76 167.38 53.12 167.06 C51.75 166.38 50.38 165.69 49 165 C49 164.01 49 163.02 49 162 C49.99 162 50.98 162 52 162 C52 160.68 52 159.36 52 158 C51.34 158 50.68 158 50 158 C50 158.99 50 159.98 50 161 C49.01 161 48.02 161 47 161 C47 163.64 47 166.28 47 169 C46.34 169 45.68 169 45 169 C44.67 168.34 44.34 167.68 44 167 C41.47 166.34 41.47 166.34 39 166 C38.67 166.66 38.34 167.32 38 168 C37.01 165.52 37.01 165.52 36 163 C36.66 162.34 37.32 161.68 38 161 C37.67 160.67 37.34 160.34 37 160 C36.01 160.33 35.02 160.66 34 161 C34 160.01 34 159.02 34 158 C33.15 158.01 32.29 158.02 31.41 158.04 C30.31 158.04 29.2 158.05 28.06 158.06 C26.96 158.07 25.86 158.09 24.72 158.1 C22 158 22 158 21 157 C20.93 155.48 20.92 153.96 20.94 152.44 C20.95 151.61 20.96 150.78 20.96 149.93 C20.98 149.3 20.99 148.66 21 148 C20.34 148 19.68 148 19 148 C19 149.65 19 151.3 19 153 C17.68 153 16.36 153 15 153 C15 156.96 15 160.92 15 165 C16.32 165.33 17.64 165.66 19 166 C17.68 166.33 16.36 166.66 15 167 C15 168.32 15 169.64 15 171 C15.66 171 16.32 171 17 171 C17 170.34 17 169.68 17 169 C17.66 169 18.32 169 19 169 C19.04 171.33 19.04 173.67 19 176 C18.67 176.33 18.34 176.66 18 177 C17.72 179.06 17.55 181.12 17.38 183.19 C17.25 183.79 17.13 184.38 17 185 C16.34 185.33 15.68 185.66 15 186 C11.6 182.6 11.83 180.17 11.68 175.46 C11.64 174.16 11.6 172.86 11.56 171.52 C11.52 170.14 11.48 168.76 11.44 167.38 C11.39 165.99 11.35 164.6 11.31 163.21 C11.2 159.81 11.1 156.4 11 153 C11.99 152.67 12.98 152.34 14 152 C13.69 150.89 13.69 150.89 13.38 149.75 C12.96 146.68 13.38 145.57 15 143 C15.99 143 16.98 143 18 143 C18 142.34 18 141.68 18 141 C17.01 140.67 16.02 140.34 15 140 C15 139.34 15 138.68 15 138 C13.21 138.03 13.21 138.03 11.38 138.06 C8.37 137.71 7.26 137.27 5.13 135.07 C2.4 131.08 1 128.95 1 124 C-0.49 123.5 -0.49 123.5 -2 123 C-2.7 121.68 -3.37 120.35 -4 119 C-4.99 118.5 -4.99 118.5 -6 118 C-6.73 116.02 -7.4 114.02 -8 112 C-7.01 111.34 -6.02 110.68 -5 110 C-5.99 109.5 -5.99 109.5 -7 109 C-7.33 108.01 -7.66 107.02 -8 106 C-8 106.99 -8 107.98 -8 109 C-10 108 -10 108 -11 107 C-12.99 106.31 -14.99 105.64 -17 105 C-17 104.01 -17 103.02 -17 102 C-18.65 101.67 -20.3 101.34 -22 101 C-22 100.34 -22 99.68 -22 99 C-22.99 99 -23.98 99 -25 99 C-25 98.34 -25 97.68 -25 97 C-25.99 96.5 -25.99 96.5 -27 96 C-26.34 95.67 -25.68 95.34 -25 95 C-24.35 92.98 -24.35 92.98 -24 91 C-24.85 91.06 -25.69 91.12 -26.56 91.19 C-30.74 90.96 -33.25 89.8 -37 88 C-37 87.34 -37 86.68 -37 86 C-40.33 85.03 -42.94 85.06 -46.31 85.56 C-51.02 86.19 -54.48 85.4 -59 84 C-58.34 81.69 -57.68 79.38 -57 77 C-57.66 77 -58.32 77 -59 77 C-59 74.69 -59 72.38 -59 70 C-60.98 69.34 -62.96 68.68 -65 68 C-65 67.01 -65 66.02 -65 65 C-64.01 65 -63.02 65 -62 65 C-62.33 61.37 -62.66 57.74 -63 54 C-62.34 54 -61.68 54 -61 54 C-61 52.35 -61 50.7 -61 49 C-61.99 49 -62.98 49 -64 49 C-64 47.68 -64 46.36 -64 45 C-62.35 45 -60.7 45 -59 45 C-59 45.99 -59 46.98 -59 48 C-58.34 48 -57.68 48 -57 48 C-57 49.65 -57 51.3 -57 53 C-57.66 53 -58.32 53 -59 53 C-59 57.95 -59 62.9 -59 68 C-58.34 68 -57.68 68 -57 68 C-56.94 67.37 -56.88 66.75 -56.82 66.1 C-56.73 65.28 -56.65 64.47 -56.56 63.62 C-56.48 62.81 -56.4 62 -56.32 61.16 C-56 59 -56 59 -55 57 C-52.03 57 -49.06 57 -46 57 C-46.26 54.66 -46.59 52.32 -47 50 C-47.66 49.67 -48.32 49.34 -49 49 C-48.67 47.35 -48.34 45.7 -48 44 C-41.25 43.88 -41.25 43.88 -39 45 C-38.88 44.42 -38.75 43.84 -38.62 43.25 C-38 41 -38 41 -37 39.06 C-35.39 35.74 -35 32.66 -35 29 C-34.34 28.67 -33.68 28.34 -33 28 C-33 27.34 -33 26.68 -33 26 C-30.21 24.97 -29.13 24.95 -26.25 25.94 C-25.14 26.46 -25.14 26.46 -24 27 C-24.33 27.66 -24.66 28.32 -25 29 C-25.99 29 -26.98 29 -28 29 C-28 29.66 -28 30.32 -28 31 C-27.01 31 -26.02 31 -25 31 C-24.5 31.99 -24.5 31.99 -24 33 C-21.68 33.41 -19.34 33.74 -17 34 C-17 32.68 -17 31.36 -17 30 C-17.99 30 -18.98 30 -20 30 C-20 29.34 -20 28.68 -20 28 C-18.68 27.67 -17.36 27.34 -16 27 C-16.5 25.51 -16.5 25.51 -17 24 C-16 22.18 -16 22.18 -14.56 20.31 C-14.09 19.69 -13.62 19.07 -13.13 18.43 C-12.76 17.96 -12.38 17.48 -12 17 C-14.31 16.34 -16.62 15.68 -19 15 C-19 14.34 -19 13.68 -19 13 C-18.22 13.06 -17.43 13.12 -16.62 13.19 C-15.76 13.13 -14.89 13.06 -14 13 C-13.34 12.01 -12.68 11.02 -12 10 C-12.99 9.67 -13.98 9.34 -15 9 C-15 9.66 -15 10.32 -15 11 C-15.66 11 -16.32 11 -17 11 C-16.67 10.01 -16.34 9.02 -16 8 C-13.69 8 -11.38 8 -9 8 C-9 6.02 -9 4.04 -9 2 C-5.87 0.14 -3.63 -0.2 0 0 Z " fill="#090E11" transform="translate(393,143)"/>
<path d="M0 0 C2.73 0.02 5.46 0.02 8.19 0.01 C53.13 0.08 99.58 13.52 136.03 40.34 C137.23 41.17 138.44 42 139.65 42.82 C146.32 47.41 152.44 52.25 158.34 57.82 C160.49 59.83 162.67 61.75 164.9 63.67 C204.63 98.32 228.95 150.68 236.03 202.34 C236.2 203.53 236.38 204.72 236.55 205.95 C237.15 210.82 237.23 215.66 237.27 220.55 C237.28 221.52 237.29 222.49 237.3 223.49 C237.61 262.53 237.61 262.53 233.03 281.34 C232.65 283.06 232.28 284.78 231.9 286.5 C221.03 334.54 193.58 381.32 154.76 412.16 C152.98 413.58 151.22 415.03 149.49 416.51 C117.77 443.53 77.22 458.62 36.49 464.95 C34.77 465.22 33.04 465.53 31.33 465.87 C27.01 466.48 22.77 466.52 18.41 466.54 C17.48 466.55 16.55 466.55 15.6 466.56 C12.6 466.58 9.6 466.58 6.6 466.59 C5.58 466.59 4.55 466.59 3.5 466.59 C-11.2 466.57 -25.51 466.29 -39.97 463.34 C-40.82 463.17 -41.67 463 -42.55 462.83 C-83.68 454.61 -122.29 434.91 -152.97 406.34 C-154.36 405.12 -155.75 403.91 -157.15 402.71 C-193.12 371.3 -217.26 323.85 -225.97 277.34 C-226.11 276.63 -226.26 275.93 -226.41 275.2 C-232.26 246.35 -231.18 213.01 -224.97 184.34 C-224.76 183.37 -224.56 182.4 -224.35 181.4 C-216.22 143.83 -197.67 107.86 -171.97 79.34 C-171.49 78.8 -171.02 78.27 -170.53 77.72 C-164.9 71.37 -159.05 65.31 -152.84 59.52 C-152.29 59 -151.73 58.48 -151.16 57.94 C-147.21 54.34 -147.21 54.34 -144.97 54.34 C-144.97 53.68 -144.97 53.02 -144.97 52.34 C-143.6 51.09 -143.6 51.09 -141.66 49.68 C-140.94 49.16 -140.22 48.64 -139.48 48.1 C-138.69 47.54 -137.91 46.98 -137.09 46.4 C-135.87 45.53 -135.87 45.53 -134.62 44.64 C-109.31 26.81 -82 13.85 -52.03 6.09 C-51.14 5.85 -50.25 5.62 -49.33 5.38 C-33.05 1.37 -16.72 -0.15 0 0 Z M-153.97 69.34 C-154.49 69.83 -155.02 70.32 -155.56 70.82 C-165.15 79.87 -173.31 89.61 -180.97 100.34 C-181.42 100.97 -181.87 101.61 -182.34 102.26 C-207.97 138.58 -222.07 180.99 -223.97 225.34 C-224.02 226.56 -224.08 227.78 -224.13 229.04 C-225.3 282.29 -206.92 333.85 -173.97 375.34 C-173.53 375.89 -173.09 376.45 -172.64 377.02 C-161.14 391.47 -148 404.6 -132.97 415.34 C-131.92 416.13 -130.87 416.92 -129.79 417.74 C-82.37 453.32 -22.29 466.59 36.03 459.34 C84.56 452.41 127.69 429.8 163.03 396.34 C163.82 395.6 163.82 395.6 164.62 394.85 C207.87 354.19 230.12 295.16 232.16 236.65 C232.66 204.32 226.06 171.93 213.03 142.34 C212.72 141.62 212.41 140.9 212.09 140.16 C204.52 122.93 194.81 107.02 183.03 92.34 C181.84 90.84 181.84 90.84 180.63 89.32 C169.52 75.63 156.94 62.99 142.7 52.56 C141.05 51.35 139.42 50.11 137.79 48.87 C100.75 21.05 55.92 7.55 10.03 5.34 C9.31 5.3 8.58 5.26 7.83 5.22 C-52.14 2.24 -110.94 28.96 -153.97 69.34 Z " fill="#DA721C" transform="translate(245.967041015625,18.663818359375)"/>
<path d="M0 0 C19.67 -0.88 38.69 2.8 54.03 16.03 C67.82 28.68 77.33 44.55 78.35 63.49 C79.04 83.84 74.99 101.5 61.36 117.13 C55.55 123.23 49.32 127.88 42 132 C41.38 132.39 40.77 132.77 40.13 133.17 C26.73 140.93 10.36 140.52 -4.56 140.25 C-14.18 140.13 -14.18 140.13 -24 140 C-24 117.56 -24 95.12 -24 72 C-20.37 70.68 -16.74 69.36 -13 68 C-6.86 64.21 -3.37 60.2 0.55 54.17 C2 52 2 52 4 50 C4 70.46 4 90.92 4 112 C21.97 110.05 21.97 110.05 36 101 C36.66 101 37.32 101 38 101 C38.27 100.43 38.54 99.85 38.82 99.26 C40.42 96.2 42.44 93.5 44.46 90.71 C48.27 83.99 49.56 77.34 49.5 69.69 C49.5 68.86 49.49 68.03 49.48 67.18 C49.28 60 47.66 54.24 44 48 C43.35 46.88 43.35 46.88 42.68 45.74 C36.43 36.37 26.68 31.63 16 29 C13.67 28.64 11.34 28.3 9 28 C8.84 27.03 8.68 26.07 8.52 25.07 C7.24 17.78 5.75 11.48 2.09 4.95 C1 3 1 3 0 0 Z " fill="#F0730C" transform="translate(308,243)"/>
<path d="M0 0 C43.89 0 87.78 0 133 0 C133 9.24 133 18.48 133 28 C115.51 28 98.02 28 80 28 C80 64.96 80 101.92 80 140 C70.76 140 61.52 140 52 140 C52 103.04 52 66.08 52 28 C34.84 28 17.68 28 0 28 C0 18.76 0 9.52 0 0 Z " fill="#F2730D" transform="translate(121,138)"/>
<path d="M0 0 C1.68 0.29 3.34 0.62 5 1 C6.29 9.43 6.29 9.43 5 14 C9.06 13.53 12.47 13.12 16 11 C16 11.66 16 12.32 16 13 C15.34 13 14.68 13 14 13 C14 13.66 14 14.32 14 15 C13.01 15.5 13.01 15.5 12 16 C12 16.66 12 17.32 12 18 C12.66 18.33 13.32 18.66 14 19 C13.34 19 12.68 19 12 19 C12.33 19.56 12.65 20.12 12.99 20.7 C14.12 23.27 14.21 24.97 14.12 27.75 C14.11 28.55 14.09 29.35 14.07 30.17 C14.04 31.08 14.04 31.08 14 32 C14.66 32 15.32 32 16 32 C16 29.36 16 26.72 16 24 C16.66 24 17.32 24 18 24 C18 29.28 18 34.56 18 40 C18.66 37.69 19.32 35.38 20 33 C20.66 33 21.32 33 22 33 C22 34.04 22 34.04 21.99 35.11 C21.97 41.65 21.96 48.2 21.95 54.75 C21.94 58.12 21.94 61.48 21.92 64.85 C21.91 68.72 21.91 72.59 21.9 76.46 C21.9 77.67 21.89 78.88 21.89 80.12 C21.89 81.24 21.89 82.36 21.89 83.52 C21.88 85 21.88 85 21.88 86.51 C21.89 89.13 21.89 89.13 23 92 C23.05 94.55 23.05 97.08 23 99.62 C22.95 102.09 22.95 104.53 23 107 C23.5 107.5 23.5 107.5 24 108 C24 80.61 24 53.22 24 25 C62 25 62 25 70 32 C71.24 35.73 71.54 39.13 71 43 C68.3 48.1 65.48 51.17 60 53 C57.79 53.08 55.58 53.11 53.36 53.1 C51.42 53.09 51.42 53.09 49.43 53.09 C48.06 53.08 46.68 53.07 45.31 53.06 C43.93 53.06 42.55 53.05 41.16 53.05 C37.77 53.04 34.39 53.02 31 53 C31 62.24 31 71.48 31 81 C33.11 80.97 35.22 80.93 37.39 80.89 C39.44 80.87 41.49 80.85 43.54 80.84 C44.96 80.82 46.38 80.8 47.81 80.77 C49.85 80.74 51.9 80.72 53.95 80.71 C55.18 80.69 56.41 80.68 57.68 80.66 C62.58 81.16 65.05 82.91 68.25 86.56 C71.18 90.64 71.66 94.04 71 99 C68.56 103.87 65.74 106.39 61 109 C58.1 109.57 55.27 109.61 52.32 109.61 C51.6 109.63 50.88 109.64 50.13 109.66 C47.47 109.71 44.79 109.73 42.12 109.75 C36.14 109.83 30.16 109.92 24 110 C36.21 110 48.42 110 61 110 C61.33 111.32 61.66 112.64 62 114 C61.34 114 60.68 114 60 114 C60 114.99 60 115.98 60 117 C60.99 117.5 60.99 117.5 62 118 C61.34 118 60.68 118 60 118 C60 118.66 60 119.32 60 120 C60.99 120.5 60.99 120.5 62 121 C61.34 121 60.68 121 60 121 C60 121.66 60 122.32 60 123 C59.34 123 58.68 123 58 123 C58 123.66 58 124.32 58 125 C57.34 125 56.68 125 56 125 C55.5 126.98 55.5 126.98 55 129 C57.97 129.99 57.97 129.99 61 131 C61 131.66 61 132.32 61 133 C63.47 131.85 65.05 130.95 67 129 C67.5 131.48 67.5 131.48 68 134 C65.03 134 62.06 134 59 134 C58.67 133.34 58.34 132.68 58 132 C54.97 131.34 54.97 131.34 52 131 C52 130.34 52 129.68 52 129 C50.68 129.33 49.36 129.66 48 130 C47.67 129.01 47.34 128.02 47 127 C49.48 126.5 49.48 126.5 52 126 C52 124.68 52 123.36 52 122 C52.99 122 53.98 122 55 122 C54.5 118.53 54.5 118.53 54 115 C53.67 116.65 53.34 118.3 53 120 C52.67 119.34 52.34 118.68 52 118 C48.58 117.83 48.58 117.83 45 118 C44.34 118.66 43.68 119.32 43 120 C42.34 120 41.68 120 41 120 C40.5 121.98 40.5 121.98 40 124 C38.68 124 37.36 124 36 124 C35.5 125.49 35.5 125.49 35 127 C35 125.68 35 124.36 35 123 C34.34 123 33.68 123 33 123 C33 124.65 33 126.3 33 128 C34.33 127.72 34.33 127.72 35.69 127.44 C38.85 127.02 40.95 127.19 44 128 C44.33 128.99 44.66 129.98 45 131 C39.39 131.33 33.78 131.66 28 132 C28 131.34 28 130.68 28 130 C27.18 130.08 26.36 130.17 25.52 130.25 C23.9 130.41 23.9 130.41 22.25 130.56 C21.18 130.67 20.12 130.77 19.02 130.88 C16 131 16 131 14.2 130.51 C11.35 129.85 8.68 129.91 5.75 129.94 C4.67 129.95 3.59 129.96 2.48 129.96 C1.25 129.98 1.25 129.98 0 130 C-0.16 120.18 -0.3 110.35 -0.44 100.53 C-0.51 95.96 -0.58 91.4 -0.65 86.83 C-0.72 82.41 -0.78 77.99 -0.84 73.57 C-0.87 71.9 -0.89 70.23 -0.92 68.56 C-1.09 58.64 -0.95 48.81 -0.35 38.91 C0.12 31.01 -0.13 23.21 -0.5 15.31 C-0.62 12.6 -0.73 9.89 -0.84 7.18 C-0.9 6.01 -0.95 4.84 -1.01 3.64 C-1 1 -1 1 0 0 Z M47 118 C47.99 118 48.98 118 50 118 C49.67 118.99 49.34 119.98 49 121 C48.34 121 47.68 121 47 121 C47 120.01 47 119.02 47 118 Z " fill="#F4730B" transform="translate(212,176)"/>
<path d="M0 0 C54.12 0 108.24 0 164 0 C164 11.55 164 23.1 164 35 C166.31 35 168.62 35 171 35 C185.92 37.72 199.5 45.03 209 57 C216.65 68.1 221.15 79.41 221.12 93 C221.13 94.18 221.13 95.35 221.13 96.56 C221.01 99.8 220.61 102.82 220 106 C221.01 105.92 222.02 105.83 223.06 105.75 C238.49 105.86 255.51 113.99 267 124 C267.8 124.67 268.59 125.33 269.41 126.02 C286.98 141.17 296.79 160.91 299 184 C300.53 207.14 293.27 229.84 278.22 247.5 C263.22 264.4 242.64 275.13 220 277 C215.58 277.13 211.17 277.12 206.75 277.1 C205.64 277.1 204.53 277.1 203.38 277.09 C199.25 277.09 195.13 277.08 191 277.06 C181.76 277.04 172.52 277.02 163 277 C163 253.9 163 230.8 163 207 C137.92 207 112.84 207 87 207 C87 195.45 87 183.9 87 172 C75.78 172 64.56 172 53 172 C53 134.71 53 97.42 53 59 C35.51 59 18.02 59 0 59 C0 39.53 0 20.06 0 0 Z M4 4 C4 20.83 4 37.66 4 55 C21.49 55 38.98 55 57 55 C57 92.29 57 129.58 57 168 C68.22 168 79.44 168 91 168 C91 179.55 91 191.1 91 203 C116.08 203 141.16 203 167 203 C167 226.1 167 249.2 167 273 C175.41 273.06 183.83 273.12 192.5 273.19 C195.12 273.21 197.74 273.24 200.44 273.27 C228.49 273.44 251.39 268.26 272 248 C273.05 246.97 273.05 246.97 274.12 245.92 C288.89 230.4 295.62 208.86 295.25 187.71 C293.84 166.75 285.91 147.96 271 133 C270.26 132.24 269.53 131.48 268.77 130.7 C255.16 117.51 236.26 109.52 217.31 108.88 C216.55 108.92 215.79 108.96 215 109 C215.33 107.8 215.66 106.61 216 105.38 C219.19 90.77 216.47 77.03 209.14 64.18 C200.15 50.85 187.32 42.96 171.88 39.25 C167.93 38.91 163.96 39 160 39 C160 27.45 160 15.9 160 4 C108.52 4 57.04 4 4 4 Z " fill="#E3883E" transform="translate(105,122)"/>
<path d="M0 0 C38 0 38 0 46 7 C47.24 10.73 47.54 14.13 47 18 C44.3 23.1 41.48 26.17 36 28 C33.79 28.08 31.58 28.11 29.36 28.1 C28.06 28.09 26.77 28.09 25.43 28.09 C24.06 28.08 22.68 28.07 21.31 28.06 C19.93 28.06 18.55 28.05 17.16 28.05 C13.77 28.04 10.39 28.02 7 28 C7 37.24 7 46.48 7 56 C9.11 55.97 11.22 55.93 13.39 55.89 C15.44 55.87 17.49 55.85 19.54 55.84 C20.96 55.82 22.38 55.8 23.81 55.77 C25.85 55.74 27.9 55.72 29.95 55.71 C31.8 55.68 31.8 55.68 33.68 55.66 C38.58 56.16 41.05 57.91 44.25 61.56 C47.18 65.64 47.66 69.04 47 74 C44.35 79.31 42.22 80.52 37 84 C24.79 84 12.58 84 0 84 C0 56.28 0 28.56 0 0 Z " fill="#110F0D" transform="translate(236,201)"/>
<path d="M0 0 C43.89 0 87.78 0 133 0 C133 9.24 133 18.48 133 28 C115.51 28 98.02 28 80 28 C80 64.96 80 101.92 80 140 C70.76 140 61.52 140 52 140 C52 103.04 52 66.08 52 28 C52.66 28 53.32 28 54 28 C54.33 63.64 54.66 99.28 55 136 C60.28 136 65.56 136 71 136 C71 136.66 71 137.32 71 138 C72.98 138 74.96 138 77 138 C77 137.44 77.01 136.88 77.01 136.3 C77.12 122.61 77.22 108.92 77.34 95.23 C77.39 88.61 77.45 81.99 77.5 75.37 C77.55 68.99 77.6 62.6 77.65 56.21 C77.67 53.78 77.69 51.34 77.71 48.9 C77.73 45.49 77.76 42.08 77.79 38.67 C77.8 37.65 77.81 36.64 77.81 35.6 C77.82 34.67 77.83 33.74 77.84 32.78 C77.85 31.97 77.85 31.16 77.86 30.33 C78.01 27.81 78.48 25.47 79 23 C79.06 21.4 79.09 19.79 79.06 18.19 C79.05 17.4 79.04 16.61 79.04 15.79 C79.02 15.2 79.01 14.61 79 14 C81.64 13.34 84.28 12.68 87 12 C87 12.66 87 13.32 87 14 C87.99 14.33 88.98 14.66 90 15 C90 16.32 90 17.64 90 19 C88.35 18.67 86.7 18.34 85 18 C85 18.66 85 19.32 85 20 C85.66 20 86.32 20 87 20 C87 20.66 87 21.32 87 22 C86.34 22 85.68 22 85 22 C85.5 22.99 85.5 22.99 86 24 C87.65 23.34 89.3 22.68 91 22 C91 22.66 91 23.32 91 24 C91.99 24 92.98 24 94 24 C94 23.34 94 22.68 94 22 C94.66 22 95.32 22 96 22 C96.5 23.49 96.5 23.49 97 25 C97.5 23.51 97.5 23.51 98 22 C98.66 22 99.32 22 100 22 C100 22.99 100 23.98 100 25 C105.94 25 111.88 25 118 25 C118.33 22.03 118.66 19.06 119 16 C119.33 16 119.66 16 120 16 C120.5 20.95 120.5 20.95 121 26 C123.31 26 125.62 26 128 26 C128.33 25.34 128.66 24.68 129 24 C129.33 24 129.66 24 130 24 C130.2 20.52 130.38 17.04 130.56 13.56 C130.62 12.57 130.67 11.58 130.73 10.55 C130.8 9.14 130.8 9.14 130.88 7.69 C130.93 6.82 130.97 5.94 131.02 5.04 C131.24 3 131.24 3 130 2 C128.33 1.89 126.66 1.85 124.98 1.84 C123.9 1.83 122.81 1.82 121.69 1.81 C120.49 1.81 119.28 1.8 118.04 1.79 C116.79 1.78 115.53 1.77 114.23 1.76 C110.77 1.74 107.31 1.72 103.85 1.7 C100.24 1.67 96.62 1.65 93.01 1.62 C86.17 1.57 79.32 1.53 72.47 1.48 C64.68 1.43 56.89 1.38 49.1 1.32 C33.07 1.21 17.03 1.1 1 1 C1 9.58 1 18.16 1 27 C17.5 27 34 27 51 27 C51 27.33 51 27.66 51 28 C34.17 28 17.34 28 0 28 C0 18.76 0 9.52 0 0 Z " fill="#E48232" transform="translate(121,138)"/>
<path d="M0 0 C73.33 0 73.33 0 85 7 C85 7.33 85 7.66 85 8 C79.59 8.37 79.59 8.37 76.81 6.62 C76.21 6.09 75.62 5.55 75 5 C71.65 2.77 70.7 2.77 66.8 2.84 C65.72 2.85 64.63 2.86 63.5 2.88 C62.31 2.9 61.11 2.92 59.88 2.94 C57.27 2.96 54.67 2.98 52.07 3 C51.37 3 50.67 3 49.95 3.01 C40.19 3.04 30.44 2.76 20.69 2.5 C19.29 2.46 19.29 2.46 17.87 2.43 C12.58 2.29 7.29 2.15 2 2 C2.03 3.03 2.06 4.07 2.09 5.13 C2.96 35.78 3.09 66.41 3.06 97.06 C3.06 98.05 3.06 99.04 3.06 100.05 C3.05 112.37 3.03 124.68 3 137 C36.66 137.5 36.66 137.5 71 138 C71 138.33 71 138.66 71 139 C47.79 143.64 23.67 140 0 140 C0 93.8 0 47.6 0 0 Z " fill="#E78333" transform="translate(208,173)"/>
<path d="M0 0 C17.49 0 34.98 0 53 0 C53 37.29 53 74.58 53 113 C64.22 113 75.44 113 87 113 C87 124.55 87 136.1 87 148 C112.08 148 137.16 148 163 148 C163 171.1 163 194.2 163 218 C162.67 218 162.34 218 162 218 C162 195.56 162 173.12 162 150 C161.34 150 160.68 150 160 150 C159.67 151.65 159.34 153.3 159 155 C158.34 155 157.68 155 157 155 C157 153.35 157 151.7 157 150 C155.69 150 155.69 150 154.35 150.01 C146.12 150.03 137.9 150.04 129.67 150.05 C125.44 150.06 121.21 150.06 116.98 150.08 C112.9 150.09 108.83 150.09 104.75 150.09 C103.19 150.1 101.63 150.1 100.07 150.11 C97.89 150.11 95.72 150.11 93.54 150.11 C92.3 150.12 91.06 150.12 89.78 150.12 C87 150 87 150 86 149 C85.91 146.41 85.88 143.84 85.9 141.25 C85.9 140.47 85.91 139.7 85.91 138.9 C85.91 136.41 85.92 133.92 85.94 131.44 C85.94 129.76 85.95 128.07 85.95 126.39 C85.96 122.26 85.98 118.13 86 114 C74.78 114.33 63.56 114.66 52 115 C52 77.38 52 39.76 52 1 C34.84 1 17.68 1 0 1 C0 0.67 0 0.34 0 0 Z " fill="#431C06" transform="translate(105,181)"/>
<path d="M0 0 C0.99 0.5 0.99 0.5 2 1 C2.03 1.87 2.05 2.74 2.08 3.63 C2.17 6.85 2.27 10.06 2.37 13.28 C2.42 14.67 2.46 16.07 2.5 17.46 C2.56 19.46 2.62 21.46 2.68 23.46 C2.72 24.67 2.76 25.87 2.79 27.11 C2.81 29.94 2.81 29.94 4 32 C28.09 32.33 52.18 32.66 77 33 C77 56.43 77 79.86 77 104 C94.16 104 111.32 104 129 104 C129 104.33 129 104.66 129 105 C111.51 105 94.02 105 76 105 C76 81.9 76 58.8 76 35 C50.92 35 25.84 35 0 35 C0 23.45 0 11.9 0 0 Z " fill="#481F02" transform="translate(196,290)"/>
<path d="M0 0 C1.48 0 1.48 0 2.99 0.01 C4.68 0 4.68 0 6.41 -0 C7.66 0 8.91 0.01 10.19 0.02 C12.15 0.02 12.15 0.02 14.15 0.02 C17.74 0.02 21.33 0.03 24.92 0.04 C28.67 0.06 32.42 0.06 36.17 0.06 C43.28 0.07 50.38 0.08 57.49 0.1 C65.57 0.12 73.66 0.14 81.75 0.15 C98.39 0.17 115.02 0.2 131.66 0.25 C131.66 0.91 131.66 1.57 131.66 2.25 C87.77 2.25 43.88 2.25 -1.34 2.25 C-1.34 11.49 -1.34 20.73 -1.34 30.25 C-2 30.25 -2.66 30.25 -3.34 30.25 C-3.53 26.3 -3.71 22.34 -3.88 18.39 C-3.93 17.05 -4 15.7 -4.06 14.36 C-4.16 12.43 -4.24 10.5 -4.32 8.57 C-4.39 6.82 -4.39 6.82 -4.47 5.04 C-4.3 1.48 -3.62 0.38 0 0 Z " fill="#311400" transform="translate(122.33882331848145,135.75390434265137)"/>
<path d="M0 0 C0.33 0 0.66 0 1 0 C1 20.46 1 40.92 1 62 C14.79 60.44 14.79 60.44 27 56 C27.99 55.67 28.98 55.34 30 55 C29 58 29 58 26.3 59.35 C17.6 62.58 10.25 64.16 1 64 C0.67 63.01 0.34 62.02 0 61 C-0.66 61 -1.32 61 -2 61 C-3.89 57.23 -3.44 52.66 -3.62 48.5 C-3.7 47.04 -3.7 47.04 -3.78 45.54 C-3.83 44.61 -3.87 43.68 -3.91 42.72 C-3.95 41.86 -4 41.01 -4.04 40.12 C-4 38 -4 38 -3 36 C-2.9 33.26 -2.86 30.55 -2.88 27.81 C-2.87 27.07 -2.87 26.33 -2.86 25.56 C-2.87 20.94 -3.24 16.56 -4 12 C-4.66 12 -5.32 12 -6 12 C-6.19 12.58 -6.37 13.15 -6.56 13.75 C-8.76 17.19 -11.32 18.26 -15 20 C-15.99 19.67 -16.98 19.34 -18 19 C-17.36 18.61 -16.72 18.22 -16.06 17.82 C-8.79 13.12 -3.88 7.77 0 0 Z " fill="#F07819" transform="translate(311,293)"/>
<path d="M0 0 C-0.33 0.66 -0.66 1.32 -1 2 C-4.39 1.59 -7.52 1.17 -10.75 0.03 C-14.43 -1.14 -18.06 -1.67 -21.88 -2.12 C-22.91 -2.25 -22.91 -2.25 -23.96 -2.39 C-25.64 -2.6 -27.32 -2.8 -29 -3 C-29.5 -4.48 -29.5 -4.48 -30 -6 C-30.69 -5.93 -31.37 -5.86 -32.08 -5.78 C-33.43 -5.64 -33.43 -5.64 -34.81 -5.5 C-36.15 -5.36 -36.15 -5.36 -37.52 -5.22 C-40.76 -4.93 -42.89 -4.96 -46 -6 C-46 -6.66 -46 -7.32 -46 -8 C-62.17 -8.66 -78.34 -9.32 -95 -10 C-95 -10.33 -95 -10.66 -95 -11 C-63.32 -14.36 -30.03 -10.66 0 0 Z " fill="#301203" transform="translate(323,36)"/>
<path d="M0 0 C0 0.99 0 1.98 0 3 C-6.27 3 -12.54 3 -19 3 C-19 3.99 -19 4.98 -19 6 C-16.36 5.67 -13.72 5.34 -11 5 C-10.01 6.49 -10.01 6.49 -9 8 C-12.96 8 -16.92 8 -21 8 C-21 6.35 -21 4.7 -21 3 C-23.97 3 -26.94 3 -30 3 C-30 10.92 -30 18.84 -30 27 C-28.1 26.97 -26.19 26.93 -24.23 26.89 C-21.74 26.87 -19.24 26.84 -16.75 26.81 C-15.5 26.79 -14.24 26.76 -12.95 26.74 C-11.14 26.72 -11.14 26.72 -9.3 26.71 C-7.63 26.68 -7.63 26.68 -5.93 26.66 C-3 27 -3 27 1 30 C-9.89 29.67 -20.78 29.34 -32 29 C-32 19.76 -32 10.52 -32 1 C-27.92 0.86 -23.85 0.71 -19.77 0.57 C-18.39 0.52 -17 0.48 -15.62 0.43 C-13.62 0.36 -11.63 0.29 -9.64 0.22 C-8.44 0.18 -7.24 0.13 -6 0.09 C-4 0.03 -2 0 0 0 Z " fill="#E48336" transform="translate(275,228)"/>
<path d="M0 0 C5.16 0.09 10.32 0.2 15.48 0.32 C17.23 0.36 18.99 0.39 20.74 0.42 C23.27 0.47 25.79 0.53 28.32 0.59 C29.1 0.6 29.88 0.61 30.68 0.62 C35.15 0.74 38.79 1.33 43 3 C43 3.66 43 4.32 43 5 C43.82 5.62 44.65 6.24 45.5 6.88 C47.71 8.93 47.99 9.92 48.33 13 C48.31 16.01 48.22 18.99 48 22 C47.01 22.5 47.01 22.5 46 23 C46.03 22.34 46.07 21.67 46.11 20.99 C46.38 13.97 46.38 13.97 43 8 C34.12 0.07 34.12 0.07 0 3 C0 30.39 0 57.78 0 86 C-0.66 85.67 -1.32 85.34 -2 85 C-1.89 74.21 -1.78 63.43 -1.66 52.64 C-1.61 47.63 -1.55 42.62 -1.5 37.61 C-1.46 32.78 -1.4 27.95 -1.35 23.12 C-1.33 21.27 -1.31 19.43 -1.29 17.58 C-1.27 15 -1.24 12.43 -1.21 9.85 C-1.2 9.08 -1.19 8.31 -1.19 7.52 C-1.11 2.23 -1.11 2.23 0 0 Z " fill="#DE8239" transform="translate(236,198)"/>
<path d="M0 0 C-0.66 0.66 -1.32 1.32 -2 2 C-3.32 2 -4.64 2 -6 2 C-7.25 15.43 -7.33 28.9 -7.56 42.38 C-7.61 44.77 -7.65 47.16 -7.69 49.55 C-7.8 55.37 -7.9 61.18 -8 67 C-2.22 66.88 3.56 66.76 9.34 66.63 C11.3 66.58 13.26 66.54 15.23 66.5 C30.14 66.25 30.14 66.25 45 65 C38.32 69.45 29.86 69.29 22.05 69.2 C21.26 69.19 20.46 69.19 19.64 69.19 C16.72 69.18 13.8 69.15 10.88 69.12 C4.32 69.08 -2.24 69.04 -9 69 C-9 46.56 -9 24.12 -9 1 C-2 -1 -2 -1 0 0 Z " fill="#E48636" transform="translate(293,314)"/>
<path d="M0 0 C14.4 1.66 28.7 2.26 43.19 2.56 C43.19 2.89 43.19 3.22 43.19 3.56 C41.54 3.56 39.89 3.56 38.19 3.56 C38.19 4.22 38.19 4.88 38.19 5.56 C24.33 5.56 10.47 5.56 -3.81 5.56 C-3.81 4.57 -3.81 3.58 -3.81 2.56 C-7.44 2.56 -11.07 2.56 -14.81 2.56 C-14.81 1.9 -14.81 1.24 -14.81 0.56 C-18.11 0.56 -21.41 0.56 -24.81 0.56 C-18.13 -3.89 -7.62 -0.92 0 0 Z " fill="#E06909" transform="translate(222.8125,478.4375)"/>
<path d="M0 0 C0.33 0 0.66 0 1 0 C1 20.46 1 40.92 1 62 C14.79 60.44 14.79 60.44 27 56 C27.99 55.67 28.98 55.34 30 55 C29 58 29 58 26.3 59.35 C17.65 62.56 10.22 64.32 1 64 C-0.71 62.29 -0.17 60.08 -0.21 57.75 C-0.23 56.62 -0.25 55.5 -0.27 54.35 C-0.28 53.13 -0.3 51.91 -0.32 50.65 C-0.34 49.41 -0.36 48.17 -0.38 46.89 C-0.43 43.58 -0.48 40.28 -0.53 36.97 C-0.58 33.6 -0.64 30.23 -0.69 26.86 C-0.8 20.24 -0.9 13.62 -1 7 C-1.61 7.77 -2.22 8.54 -2.85 9.34 C-6.36 13.69 -9.88 17.58 -15 20 C-15.99 19.67 -16.98 19.34 -18 19 C-17.36 18.61 -16.72 18.22 -16.06 17.82 C-8.79 13.12 -3.88 7.77 0 0 Z " fill="#DA833B" transform="translate(311,293)"/>
<path d="M0 0 C0.99 0 1.98 0 3 0 C3 23.1 3 46.2 3 70 C2.34 70 1.68 70 1 70 C0.67 46.9 0.34 23.8 0 0 Z " fill="#ED7B16" transform="translate(268,326)"/>
<path d="M0 0 C0.83 0.02 1.66 0.04 2.52 0.06 C5.22 0.12 7.92 0.19 10.62 0.26 C11.53 0.28 12.45 0.31 13.39 0.33 C28.8 0.72 44.13 1.54 59.49 2.95 C59.49 3.28 59.49 3.61 59.49 3.95 C52.98 5.01 46.93 4.87 40.41 3.99 C30.9 2.83 21.49 2.61 11.92 2.63 C9.19 2.64 6.47 2.61 3.74 2.59 C-6.61 2.55 -16.57 3.25 -26.79 4.99 C-28.03 5.19 -28.03 5.19 -29.29 5.4 C-30.01 5.53 -30.73 5.66 -31.47 5.79 C-33.71 5.96 -35.38 5.61 -37.51 4.95 C-35.05 2.49 -34.08 2.61 -30.68 2.35 C-29.23 2.23 -29.23 2.23 -27.76 2.11 C-26.75 2.04 -25.74 1.96 -24.7 1.89 C-22.71 1.73 -20.72 1.57 -18.74 1.41 C-17.86 1.35 -16.97 1.28 -16.06 1.21 C-13.53 1.01 -13.53 1.01 -11.21 0.42 C-7.47 -0.23 -3.78 -0.1 0 0 Z " fill="#451A03" transform="translate(239.5078125,17.05078125)"/>
<path d="M0 0 C10.15 -0.32 19.21 -0.17 29 3 C25.71 4.1 24.82 3.88 21.56 3.06 C15.68 1.77 9.99 1.81 4 2 C4.33 2.99 4.66 3.98 5 5 C5.66 5.33 6.32 5.66 7 6 C9.06 12.52 10.48 19.15 10 26 C11.89 26.09 11.89 26.09 13.81 26.19 C22.04 27.1 29.38 31.2 36 36 C36.99 36.66 37.98 37.32 39 38 C38.5 38.99 38.5 38.99 38 40 C37.42 39.54 36.83 39.08 36.23 38.61 C27.77 32.27 19.45 29.33 9 28 C8.84 27.03 8.68 26.07 8.52 25.07 C7.24 17.78 5.75 11.48 2.09 4.95 C1 3 1 3 0 0 Z " fill="#DE8640" transform="translate(308,243)"/>
<path d="M0 0 C0.99 1.49 0.99 1.49 2 3 C2.53 3.48 3.06 3.95 3.61 4.44 C6.09 7.22 5.26 11.03 5.12 14.56 C4.7 19.94 4.7 19.94 6 25 C6.1 27.56 6.14 30.08 6.13 32.64 C6.13 33.4 6.13 34.16 6.14 34.94 C6.14 36.55 6.13 38.16 6.13 39.77 C6.13 42.23 6.13 44.68 6.14 47.13 C6.14 48.7 6.13 50.26 6.13 51.83 C6.13 52.56 6.14 53.28 6.14 54.04 C6.12 58.13 5.79 61.99 5 66 C4.67 66 4.34 66 4 66 C3.98 64.29 3.98 64.29 3.96 62.55 C3.9 58.23 3.82 53.91 3.74 49.58 C3.7 47.73 3.68 45.88 3.65 44.03 C3.5 32.18 2.62 20.78 0.63 9.1 C0.12 6.03 -0.15 3.12 0 0 Z " fill="#3E1601" transform="translate(479,204)"/>
<path d="M0 0 C-0.33 1.32 -0.66 2.64 -1 4 C-2.09 4.08 -3.19 4.17 -4.31 4.25 C-9.87 4.92 -14.8 6.99 -20 9 C-13.56 8.5 -13.56 8.5 -7 8 C-9.82 10.82 -13.21 11.54 -16.94 12.69 C-17.67 12.93 -18.4 13.16 -19.15 13.41 C-24.63 15.12 -24.63 15.12 -28 14 C-26.02 13.01 -24.04 12.02 -22 11 C-24 10.96 -26 10.96 -28 11 C-28.33 11.33 -28.66 11.66 -29 12 C-31.05 12.4 -33.12 12.75 -35.19 13.06 C-36.32 13.24 -37.44 13.42 -38.61 13.6 C-41.78 13.97 -44.81 14.07 -48 14 C-48 13.67 -48 13.34 -48 13 C-47.32 12.85 -46.63 12.71 -45.93 12.56 C-32.17 9.6 -18.85 6.25 -5.66 1.32 C-2 0 -2 0 0 0 Z " fill="#D57B2D" transform="translate(336,463)"/>
<path d="M0 0 C14.48 4.4 25.4 15.2 33 28 C32.67 28.66 32.34 29.32 32 30 C30.68 30 29.36 30 28 30 C27 27 27 27 27 23 C25.89 23.02 24.77 23.04 23.62 23.06 C20 23 20 23 18 22 C18 22.66 18 23.32 18 24 C17.01 23.67 16.02 23.34 15 23 C15 22.34 15 21.68 15 21 C18.3 21 21.6 21 25 21 C19.72 14.66 19.72 14.66 13 10 C13 9.34 13 8.68 13 8 C10.16 6.75 7.92 5.99 4.81 5.69 C3.88 5.46 2.96 5.23 2 5 C0.62 2.44 0.62 2.44 0 0 Z " fill="#E4802F" transform="translate(344,249)"/>
<path d="M0 0 C5.78 4.81 7.95 10.81 9.75 18 C10.64 28.62 9.96 38.83 4 48 C2.67 45.33 3.33 43.83 4 41 C4.66 41 5.32 41 6 41 C7.81 29.88 8.43 18.52 4 8 C4 7.34 4 6.68 4 6 C3.01 5.67 2.02 5.34 1 5 C0.67 3.35 0.34 1.7 0 0 Z " fill="#DE823D" transform="translate(301,245)"/>
<path d="M0 0 C0.33 0 0.66 0 1 0 C1.33 11.22 1.66 22.44 2 34 C5.3 34 8.6 34 12 34 C14.88 34.55 14.88 34.55 17 35.31 C17.72 35.56 18.44 35.8 19.19 36.05 C21 37 21 37 23 40 C21.93 39.72 20.85 39.45 19.75 39.16 C18.31 38.79 16.87 38.43 15.44 38.06 C14.38 37.79 14.38 37.79 13.3 37.51 C12.6 37.33 11.9 37.16 11.18 36.97 C10.55 36.81 9.92 36.65 9.26 36.48 C6.2 35.83 3.1 35.44 0 35 C0 23.45 0 11.9 0 0 Z " fill="#4C2104" transform="translate(269,122)"/>
<path d="M0 0 C0.33 0.99 0.66 1.98 1 3 C-0.18 4.53 -1.37 6.07 -2.68 7.5 C-4.21 9.17 -4.21 9.17 -6 12 C-6.66 11.67 -7.32 11.34 -8 11 C-7.67 12.32 -7.34 13.64 -7 15 C-8.65 15.33 -10.3 15.66 -12 16 C-12 17.65 -12 19.3 -12 21 C-12.64 21.27 -13.28 21.54 -13.94 21.81 C-16.33 22.89 -16.33 22.89 -17 26 C-17.99 26 -18.98 26 -20 26 C-18.33 22.21 -15.9 19.06 -13.38 15.81 C-12.93 15.24 -12.49 14.67 -12.04 14.09 C-8.23 9.21 -4.21 4.55 0 0 Z " fill="#260E04" transform="translate(84,96)"/>
<path d="M0 0 C2.19 0.31 2.19 0.31 4 1 C4 1.99 4 2.98 4 4 C4.87 4.11 5.74 4.22 6.64 4.33 C16.69 5.67 26.44 7.55 36 11 C32.74 12.06 30.57 11.91 27.25 11.14 C26.34 10.94 25.43 10.73 24.48 10.51 C23.52 10.28 22.56 10.05 21.56 9.81 C20.58 9.58 19.6 9.35 18.59 9.12 C11.29 7.38 4.11 5.4 -3 3 C-1.64 1.48 -1.64 1.48 0 0 Z " fill="#361402" transform="translate(180,465)"/>
<path d="M0 0 C3.34 2.68 4.26 5.91 5.62 9.88 C6.05 11.09 6.48 12.3 6.91 13.55 C8.42 18.32 9.13 22.52 9.1 27.52 C9.09 28.54 9.09 29.56 9.09 30.62 C9.08 31.67 9.07 32.73 9.06 33.81 C9.06 34.89 9.05 35.96 9.05 37.07 C9.04 39.71 9.02 42.36 9 45 C8.67 45 8.34 45 8 45 C7.97 44.34 7.95 43.69 7.92 43.01 C7.81 40.05 7.69 37.09 7.56 34.12 C7.52 33.09 7.48 32.06 7.44 31 C7.38 29.52 7.38 29.52 7.32 28.01 C7.28 27.1 7.24 26.19 7.21 25.25 C7.13 22.97 7.13 22.97 6 21 C5.96 19 5.96 17 6 15 C5.34 15 4.68 15 4 15 C3.52 13.44 3.04 11.88 2.56 10.31 C2.3 9.44 2.03 8.57 1.75 7.68 C1.04 5.13 0.48 2.6 0 0 Z " fill="#DF8235" transform="translate(377,279)"/>
<path d="M0 0 C-0.81 3.44 -0.81 3.44 -2 7 C-2.99 7.33 -3.98 7.66 -5 8 C-5 9.65 -5 11.3 -5 13 C-5.66 13 -6.32 13 -7 13 C-7.1 13.93 -7.21 14.86 -7.31 15.81 C-8.03 19.15 -8.57 19.83 -11 22 C-10.71 15.51 -9.44 11.49 -6 6 C-5.81 5.24 -5.63 4.47 -5.44 3.69 C-4.7 0.84 -2.81 0 0 0 Z " fill="#E36706" transform="translate(46,147)"/>
<path d="M0 0 C3.28 1.64 4.27 4.83 6 8 C6.33 8 6.66 8 7 8 C7.66 11.63 8.32 15.26 9 19 C9.66 19 10.32 19 11 19 C12.96 22.67 14.39 25.87 15 30 C11.7 26.94 9.99 23.32 8.06 19.31 C7.73 18.63 7.39 17.95 7.05 17.24 C6.37 15.86 5.7 14.48 5.03 13.1 C4.32 11.66 3.6 10.23 2.85 8.8 C2.49 8.1 2.12 7.39 1.75 6.67 C1.24 5.72 1.24 5.72 0.73 4.75 C0 3 0 3 0 0 Z " fill="#351001" transform="translate(40,338)"/>
<path d="M0 0 C6.67 6.67 13.33 13.33 20 20 C17.62 19.69 17.62 19.69 15 19 C14.34 18.01 13.68 17.02 13 16 C12.04 15.85 12.04 15.85 11.06 15.69 C9 15 9 15 7.38 12 C6.92 11.01 6.47 10.02 6 9 C5.34 8.67 4.68 8.34 4 8 C3.67 8.99 3.34 9.98 3 11 C1.67 8.33 2.33 6.83 3 4 C1.68 3.67 0.36 3.34 -1 3 C-0.67 2.01 -0.34 1.02 0 0 Z " fill="#2F0F04" transform="translate(74,406)"/>
<path d="M0 0 C0.99 0 1.98 0 3 0 C3.29 0.8 3.58 1.61 3.88 2.44 C4.73 5.13 4.73 5.13 7 6 C7.67 7.67 8.33 9.33 9 11 C9.7 12.05 10.4 13.1 11.12 14.19 C13 17 13 17 13 19 C13.99 19 14.98 19 16 19 C16.33 20.98 16.66 22.96 17 25 C12.39 20.79 9.1 16.02 5.69 10.81 C5.14 9.99 4.59 9.17 4.02 8.33 C0 2.26 0 2.26 0 0 Z " fill="#2F1001" transform="translate(55,368)"/>
<path d="M0 0 C0.33 0.66 0.66 1.32 1 2 C0.01 2 -0.98 2 -2 2 C-2.22 2.59 -2.44 3.18 -2.66 3.79 C-4.44 6.72 -6.38 7.7 -9.38 9.31 C-10.33 9.84 -11.29 10.38 -12.27 10.93 C-15.15 12.06 -16.19 12.14 -19 11 C-15.45 7.87 -12.47 6.46 -8 5 C-6.98 4.02 -5.98 3.02 -5 2 C-2.31 0.81 -2.31 0.81 0 0 Z " fill="#E36807" transform="translate(142,47)"/>
<path d="M0 0 C4.6 1.72 8.93 3.91 13.31 6.12 C14.05 6.5 14.79 6.87 15.56 7.25 C17.37 8.17 19.19 9.08 21 10 C21 10.33 21 10.66 21 11 C16.65 11.37 14.66 10.22 11 8 C10.01 8.33 9.02 8.66 8 9 C7.34 8.01 6.68 7.02 6 6 C5.15 5.69 4.31 5.38 3.44 5.06 C2.63 4.71 1.83 4.36 1 4 C0.19 1.88 0.19 1.88 0 0 Z " fill="#311103" transform="translate(132,454)"/>
<path d="M0 0 C0.33 0 0.66 0 1 0 C1.38 5.23 0.22 8.38 -2 13 C-2.66 13 -3.32 13 -4 13 C-4 15.64 -4 18.28 -4 21 C-5.32 21 -6.64 21 -8 21 C-8 21.99 -8 22.98 -8 24 C-8.66 24 -9.32 24 -10 24 C-8.36 18.68 -6.16 13.69 -3.88 8.62 C-3.5 7.79 -3.13 6.96 -2.75 6.11 C-1.83 4.07 -0.92 2.03 0 0 Z " fill="#371404" transform="translate(467,337)"/>
<path d="M0 0 C5.15 4.52 7.43 12.33 8 19 C8.4 25.59 7.5 31.58 6 38 C5.67 38 5.34 38 5 38 C5.16 36.26 5.16 36.26 5.32 34.48 C6.07 25.28 6.55 16.77 3 8 C2.34 7.34 1.68 6.68 1 6 C0.6 4.01 0.26 2.01 0 0 Z " fill="#DF8843" transform="translate(303,191)"/>
<path d="M0 0 C5.16 -0.18 9.18 -0.12 14 2 C14.33 2.66 14.66 3.32 15 4 C15.99 4.33 16.98 4.66 18 5 C17.67 5.99 17.34 6.98 17 8 C14.92 7.21 12.83 6.42 10.75 5.62 C9.59 5.18 8.43 4.74 7.23 4.29 C4.74 3.29 2.37 2.26 0 1 C0 0.67 0 0.34 0 0 Z " fill="#E56905" transform="translate(328,36)"/>
<path d="M0 0 C0.66 0.33 1.32 0.66 2 1 C-1.92 5.01 -5.85 8.93 -10.12 12.56 C-13.84 15.75 -16.91 19.21 -20 23 C-20.66 22.67 -21.32 22.34 -22 22 C-15.18 14.02 -7.98 6.82 0 0 Z " fill="#D07B32" transform="translate(99,73)"/>
<path d="M0 0 C5.88 4.62 5.88 4.62 7 8 C7.35 13.37 7.44 16.6 4 21 C3.67 21 3.34 21 3 21 C2.87 14.53 2.87 14.53 3.62 11.38 C4.11 8.31 3.34 6.76 2 4 C1.63 3.24 1.26 2.47 0.88 1.69 C0.59 1.13 0.3 0.57 0 0 Z " fill="#321203" transform="translate(276,203)"/>
<path d="M0 0 C-1.57 4.73 -4.21 8.34 -7.12 12.31 C-7.59 12.96 -8.06 13.6 -8.54 14.27 C-9.69 15.85 -10.84 17.42 -12 19 C-12.33 18.01 -12.66 17.02 -13 16 C-12.34 15.34 -11.68 14.68 -11 14 C-10.29 12.02 -9.61 10.02 -9 8 C-8.01 8 -7.02 8 -6 8 C-5.9 7.24 -5.79 6.47 -5.69 5.69 C-4.83 2.34 -3.7 0 0 0 Z " fill="#311002" transform="translate(444,370)"/>
<path d="M0 0 C0.33 0.66 0.66 1.32 1 2 C0.33 2.73 0.33 2.73 -0.36 3.47 C-3.48 6.93 -6.28 10.27 -8.62 14.31 C-10.59 17.63 -12.42 19.36 -16 21 C-14.47 15.97 -11.42 12.67 -8 8.81 C-7.18 7.87 -7.18 7.87 -6.34 6.91 C-4.28 4.54 -2.22 2.22 0 0 Z " fill="#CE782D" transform="translate(76,96)"/>
<path d="M0 0 C-0.99 0.33 -1.98 0.66 -3 1 C-3.33 1.66 -3.66 2.32 -4 3 C-6.73 3.85 -6.73 3.85 -10.19 4.62 C-11.32 4.89 -12.44 5.15 -13.61 5.41 C-16.82 5.97 -19.75 6.11 -23 6 C-19.53 3.69 -16 2.55 -12.06 1.31 C-11.35 1.07 -10.63 0.84 -9.89 0.59 C-6.16 -0.59 -3.73 -1.18 0 0 Z " fill="#301405" transform="translate(197,32)"/>
<path d="M0 0 C0.33 0 0.66 0 1 0 C1 1.98 1 3.96 1 6 C-0.08 6.12 -0.08 6.12 -1.19 6.25 C-4.55 7.15 -6.36 8.79 -9 11 C-9.66 11 -10.32 11 -11 11 C-11 11.66 -11 12.32 -11 13 C-13.31 13.33 -15.62 13.66 -18 14 C-13.91 10.9 -9.73 7.93 -5.56 4.94 C-3.51 3.39 -1.79 1.83 0 0 Z " fill="#2F1103" transform="translate(366,362)"/>
<path d="M0 0 C-0.66 1.98 -1.32 3.96 -2 6 C-2.72 6.12 -3.44 6.25 -4.19 6.38 C-6.96 6.99 -9.4 7.88 -12 9 C-12.33 8.34 -12.66 7.68 -13 7 C-11.71 6.02 -10.42 5.04 -9.12 4.06 C-8.05 3.24 -8.05 3.24 -6.95 2.41 C-4.29 0.49 -3.35 0 0 0 Z " fill="#DC6809" transform="translate(372,447)"/>
<path d="M0 0 C0.33 0 0.66 0 1 0 C2.15 8.37 -1.88 13.95 -6 21 C-6.68 22.33 -7.35 23.66 -8 25 C-9.32 24.67 -10.64 24.34 -12 24 C-11.61 23.6 -11.23 23.2 -10.83 22.79 C-4.66 16.05 -1.93 8.83 0 0 Z " fill="#D77F38" transform="translate(358,318)"/>
<path d="M0 0 C1.65 0.76 3.3 1.53 4.94 2.31 C5.85 2.74 6.77 3.17 7.71 3.61 C10 5 10 5 11 8 C8.43 9.29 7.62 8.83 4.94 7.94 C2.78 7.1 2.78 7.1 1 6 C0 2.81 0 2.81 0 0 Z " fill="#E06B0A" transform="translate(355,45)"/>
<path d="M0 0 C0.66 0.33 1.32 0.66 2 1 C1.2 1.76 0.39 2.53 -0.44 3.31 C-3.17 5.79 -3.17 5.79 -4 9 C-4.76 9.12 -5.53 9.25 -6.31 9.38 C-9.2 9.88 -9.2 9.88 -12 12 C-12.99 11.34 -13.98 10.68 -15 10 C-14.08 9.45 -13.17 8.89 -12.23 8.32 C-11.03 7.59 -9.83 6.86 -8.62 6.12 C-8.02 5.76 -7.42 5.4 -6.8 5.02 C-4.29 3.49 -2.08 2.08 0 0 Z " fill="#321102" transform="translate(372,379)"/>
<path d="M0 0 C0.33 0.66 0.66 1.32 1 2 C0.34 2 -0.32 2 -1 2 C-1 2.66 -1 3.32 -1 4 C-2.66 5.02 -4.32 6.02 -6 7 C-6.33 7.66 -6.66 8.32 -7 9 C-8.64 9.73 -10.31 10.39 -12 11 C-12.93 11.37 -13.86 11.74 -14.81 12.12 C-15.53 12.41 -16.26 12.7 -17 13 C-13.5 9.29 -9.99 6.48 -5.69 3.69 C-4.08 2.64 -4.08 2.64 -2.45 1.57 C-1.64 1.05 -0.83 0.54 0 0 Z " fill="#2F0F02" transform="translate(129,59)"/>
<path d="M0 0 C1.26 -0.04 2.52 -0.08 3.81 -0.12 C4.52 -0.15 5.23 -0.17 5.96 -0.2 C8 0 8 0 11 2 C12.66 2.38 14.32 2.73 16 3 C16.33 4.32 16.66 5.64 17 7 C11.28 5.13 5.62 3.15 0 1 C0 0.67 0 0.34 0 0 Z " fill="#341104" transform="translate(342,230)"/>
<path d="M0 0 C1.32 0 2.64 0 4 0 C6.29 3.08 7.67 6.41 9 10 C7.68 9.67 6.36 9.34 5 9 C5 8.34 5 7.68 5 7 C4.34 7 3.68 7 3 7 C3 6.34 3 5.68 3 5 C2.34 5 1.68 5 1 5 C0.67 3.35 0.34 1.7 0 0 Z " fill="#E4680A" transform="translate(420,96)"/>
<path d="M0 0 C0.66 0.66 1.32 1.32 2 2 C-1.63 5.96 -5.26 9.92 -9 14 C-9.33 12.68 -9.66 11.36 -10 10 C-9.36 9.57 -8.72 9.13 -8.06 8.69 C-5.73 7.09 -5.73 7.09 -5 4 C-4.01 4 -3.02 4 -2 4 C-1.34 2.68 -0.68 1.36 0 0 Z " fill="#320F02" transform="translate(81,87)"/>
<path d="M0 0 C2.75 0.31 2.75 0.31 6 2 C8.74 7.11 10.27 12.2 10 18 C7.41 14.12 5.49 10 3.44 5.81 C2.02 2.9 2.02 2.9 0 0 Z " fill="#DC8133" transform="translate(348,285)"/>
<path d="M0 0 C4.51 0.6 7.86 2.37 11.81 4.56 C12.71 5.06 12.71 5.06 13.62 5.56 C15.09 6.37 16.54 7.18 18 8 C16.21 8.61 16.21 8.61 14 9 C12.27 8.09 10.54 7.16 8.88 6.12 C6.04 4.43 3.06 3.25 0 2 C0 1.34 0 0.68 0 0 Z " fill="#381102" transform="translate(345,46)"/>
<path d="M0 0 C0.33 0 0.66 0 1 0 C0.88 1.42 0.76 2.83 0.62 4.25 C0.56 5.04 0.49 5.83 0.41 6.64 C-0.02 9.09 -0.79 10.85 -2 13 C-2.99 13 -3.98 13 -5 13 C-4.67 11.68 -4.34 10.36 -4 9 C-3.34 9 -2.68 9 -2 9 C-2.04 7.89 -2.08 6.77 -2.12 5.62 C-2 2 -2 2 0 0 Z " fill="#E26805" transform="translate(32,174)"/>
<path d="M0 0 C0.66 0 1.32 0 2 0 C2 1.65 2 3.3 2 5 C1.34 5 0.68 5 0 5 C0 5.66 0 6.32 0 7 C-1.38 8.62 -1.38 8.62 -3 10 C-3.66 10 -4.32 10 -5 10 C-4.5 5.62 -3.02 3.2 0 0 Z " fill="#E3690A" transform="translate(63,114)"/>
<path d="M0 0 C2.88 -0.19 2.88 -0.19 6 0 C6.66 0.99 7.32 1.98 8 3 C10.55 4.2 10.55 4.2 13 5 C12.67 5.99 12.34 6.98 12 8 C10 6.86 8 5.71 6 4.56 C4.89 3.92 3.77 3.29 2.62 2.63 C1.76 2.09 0.89 1.55 0 1 C0 0.67 0 0.34 0 0 Z " fill="#331000" transform="translate(127,443)"/>
<path d="M0 0 C0.33 0.66 0.66 1.32 1 2 C0.67 2.66 0.34 3.32 0 4 C-0.99 4 -1.98 4 -3 4 C-3.33 5.32 -3.66 6.64 -4 8 C-4.66 8 -5.32 8 -6 8 C-6 8.66 -6 9.32 -6 10 C-7.65 10 -9.3 10 -11 10 C-7.51 6.4 -3.89 3.17 0 0 Z " fill="#321205" transform="translate(403,428)"/>
<path d="M0 0 C2 2 2 2 2.38 5.75 C2.29 10.25 0.77 12.54 -2 16 C-2.33 15.01 -2.66 14.02 -3 13 C-2.34 12.01 -1.68 11.02 -1 10 C-0.54 7.49 -0.54 7.49 -0.38 4.81 C-0.3 3.91 -0.23 3.01 -0.15 2.08 C-0.1 1.39 -0.05 0.71 0 0 Z " fill="#391201" transform="translate(281,265)"/>
<path d="M0 0 C7.23 5.89 7.23 5.89 9 10 C8.34 10 7.68 10 7 10 C6.34 9.01 5.68 8.02 5 7 C4.34 7 3.68 7 3 7 C2.34 7.66 1.68 8.32 1 9 C0.67 6.03 0.34 3.06 0 0 Z " fill="#E17E2C" transform="translate(294,181)"/>
<path d="M0 0 C0.99 0.99 1.98 1.98 3 3 C2.36 3.25 1.72 3.5 1.06 3.75 C-1.19 4.82 -1.19 4.82 -1.75 7.12 C-1.83 7.74 -1.92 8.36 -2 9 C-2.66 9 -3.32 9 -4 9 C-4.33 8.01 -4.66 7.02 -5 6 C-4.34 5.01 -3.68 4.02 -3 3 C-2.34 3 -1.68 3 -1 3 C-0.67 2.01 -0.34 1.02 0 0 Z " fill="#E0680A" transform="translate(429,394)"/>
<path d="M0 0 C0.66 0.33 1.32 0.66 2 1 C1.34 2.32 0.68 3.64 0 5 C-0.66 5 -1.32 5 -2 5 C-2 5.66 -2 6.32 -2 7 C-2.62 7.14 -3.24 7.29 -3.88 7.44 C-6.03 7.93 -6.03 7.93 -8 9 C-6.42 4.73 -3.49 2.73 0 0 Z " fill="#DF6707" transform="translate(412,414)"/>
<path d="M0 0 C0.66 0 1.32 0 2 0 C0.6 4.77 -2.15 7.96 -6 11 C-6.66 11 -7.32 11 -8 11 C-8 9.68 -8 8.36 -8 7 C-7.24 6.77 -6.47 6.55 -5.69 6.31 C-2.44 4.73 -1.71 3.1 0 0 Z " fill="#D57E34" transform="translate(302,293)"/>
<path d="M0 0 C1.32 1.32 2.64 2.64 4 4 C3.34 4.66 2.68 5.32 2 6 C1.67 6.99 1.34 7.98 1 9 C-1.31 7.02 -3.62 5.04 -6 3 C-5.34 2.67 -4.68 2.34 -4 2 C-1.88 2.94 -1.88 2.94 0 4 C0 2.68 0 1.36 0 0 Z " fill="#D57B2B" transform="translate(402,75)"/>
<path d="M0 0 C1.68 2.52 2.9 4.81 4.12 7.56 C4.48 8.35 4.83 9.13 5.2 9.94 C6 12 6 12 6 14 C5.34 14 4.68 14 4 14 C1.2 11.05 0.58 8.75 0.31 4.75 C0.25 3.86 0.18 2.97 0.11 2.05 C0.08 1.37 0.04 0.7 0 0 Z " fill="#351102" transform="translate(30,332)"/>
<path d="M0 0 C2.75 3.4 6 7.48 6 12 C4 12 4 12 2.44 10.5 C0.43 7 0.33 4.01 0 0 Z " fill="#3A1404" transform="translate(36,347)"/>
<path d="M0 0 C0 3.49 -0.9 5.11 -2.5 8.19 C-2.96 9.09 -3.43 9.99 -3.91 10.92 C-4.27 11.61 -4.63 12.29 -5 13 C-6.26 9.23 -5.37 7.63 -4 4 C-3.34 4 -2.68 4 -2 4 C-1.34 2.68 -0.68 1.36 0 0 Z " fill="#3A1502" transform="translate(47,134)"/>
<path d="M0 0 C2.95 2.74 5.19 5.38 7 9 C6.67 9.66 6.34 10.32 6 11 C4.08 10.29 4.08 10.29 2 9 C1.17 6.84 1.17 6.84 0.75 4.38 C0.6 3.56 0.45 2.74 0.3 1.9 C0.15 0.96 0.15 0.96 0 0 Z " fill="#D67728" transform="translate(444,123)"/>
<path d="M0 0 C3.87 3.08 7.03 6 10 10 C9.67 10.66 9.34 11.32 9 12 C4.34 8.6 1.83 5.48 0 0 Z " fill="#CB7D34" transform="translate(424,97)"/>
<path d="M0 0 C4.28 2.31 7.72 4.33 11 8 C6.97 7.72 5.26 7.22 2.12 4.56 C0 2 0 2 0 0 Z " fill="#361103" transform="translate(111,440)"/>
<path d="M0 0 C0.33 0 0.66 0 1 0 C1 1.65 1 3.3 1 5 C1.99 5.33 2.98 5.66 4 6 C2 7 2 7 0.05 6.44 C-0.66 6.15 -1.38 5.86 -2.12 5.56 C-2.85 5.28 -3.57 4.99 -4.32 4.69 C-4.87 4.46 -5.43 4.24 -6 4 C-6 3.67 -6 3.34 -6 3 C-4.02 3 -2.04 3 0 3 C0 2.01 0 1.02 0 0 Z " fill="#321504" transform="translate(172,460)"/>
<path d="M0 0 C0.66 0.33 1.32 0.66 2 1 C0.35 4.3 -1.3 7.6 -3 11 C-4 9 -4 9 -3.06 5.88 C-2.71 4.93 -2.36 3.98 -2 3 C-1.34 3 -0.68 3 0 3 C0 2.01 0 1.02 0 0 Z " fill="#331202" transform="translate(392,343)"/>
<path d="M0 0 C2.97 0.5 2.97 0.5 6 1 C5.67 2.32 5.34 3.64 5 5 C3.68 4.67 2.36 4.34 1 4 C0.67 2.68 0.34 1.36 0 0 Z " fill="#E26909" transform="translate(116,439)"/>
<path d="M0 0 C0.99 0.33 1.98 0.66 3 1 C0.36 2.98 -2.28 4.96 -5 7 C-5.33 6.01 -5.66 5.02 -6 4 C-5.01 3.67 -4.02 3.34 -3 3 C-1.33 1.5 -1.33 1.5 0 0 Z " fill="#321101" transform="translate(385,432)"/>
<path d="M0 0 C1.46 4.52 0.27 7.52 -1 12 C-1.66 12 -2.32 12 -3 12 C-2.69 10.56 -2.38 9.12 -2.06 7.69 C-1.89 6.89 -1.71 6.09 -1.54 5.26 C-1 3 -1 3 0 0 Z " fill="#3D1102" transform="translate(36,173)"/>
<path d="M0 0 C2.04 1.62 4.04 3.29 6 5 C6 5.66 6 6.32 6 7 C4.35 6.67 2.7 6.34 1 6 C0.67 4.02 0.34 2.04 0 0 Z " fill="#341404" transform="translate(416,97)"/>
<path d="M0 0 C3.94 1.67 6.79 4.23 10 7 C6.66 7 5.93 6.52 3.31 4.62 C2.69 4.18 2.07 3.74 1.43 3.29 C0.96 2.86 0.48 2.44 0 2 C0 1.34 0 0.68 0 0 Z " fill="#CE7D31" transform="translate(389,65)"/>
<path d="M0 0 C4.39 0.66 7.98 2.19 12 4 C12 4.66 12 5.32 12 6 C7.77 4.69 3.93 3.06 0 1 C0 0.67 0 0.34 0 0 Z " fill="#D77D35" transform="translate(137,456)"/>
<path d="M0 0 C2.25 1.77 2.95 2.58 3.29 5.48 C3.26 6.37 3.22 7.27 3.19 8.19 C3.16 9.09 3.13 9.99 3.11 10.92 C3.07 11.61 3.04 12.29 3 13 C2.67 13 2.34 13 2 13 C1.66 11.58 1.33 10.17 1 8.75 C0.81 7.96 0.63 7.17 0.44 6.36 C0 4 0 4 0 0 Z " fill="#421702" transform="translate(323,195)"/>
<path d="M0 0 C2.97 0.33 5.94 0.66 9 1 C8.67 1.99 8.34 2.98 8 4 C2.25 2.25 2.25 2.25 0 0 Z " fill="#381503" transform="translate(349,40)"/>
<path d="M0 0 C3.82 0.53 6.06 1.5 9 4 C6.36 3.67 3.72 3.34 1 3 C0.67 2.01 0.34 1.02 0 0 Z " fill="#D57928" transform="translate(342,38)"/>
<path d="M0 0 C4.75 0.75 4.75 0.75 7 3 C6.01 4.49 6.01 4.49 5 6 C3.35 4.02 1.7 2.04 0 0 Z " fill="#310F01" transform="translate(93,416)"/>
<path d="M0 0 C4.88 4.75 4.88 4.75 6 7 C4.35 7 2.7 7 1 7 C0.67 4.69 0.34 2.38 0 0 Z " fill="#361B06" transform="translate(379,259)"/>
<path d="M0 0 C2.45 2.13 3.68 3.71 4 7 C3.34 7.66 2.68 8.32 2 9 C1.01 6.36 0.02 3.72 -1 1 C-0.67 0.67 -0.34 0.34 0 0 Z " fill="#381203" transform="translate(306,192)"/>
<path d="M0 0 C0.33 0.66 0.66 1.32 1 2 C-0.65 3.65 -2.3 5.3 -4 7 C-4 5.35 -4 3.7 -4 2 C-2.68 1.34 -1.36 0.68 0 0 Z " fill="#E08234" transform="translate(304,235)"/>
<path d="M0 0 C0.33 0.99 0.66 1.98 1 3 C-0.65 4.32 -2.3 5.64 -4 7 C-4.66 6.67 -5.32 6.34 -6 6 C-4.02 4.02 -2.04 2.04 0 0 Z " fill="#441701" transform="translate(84,96)"/>
</svg>
