<?xml version="1.0" encoding="UTF-8"?>
<svg version="1.1" xmlns="http://www.w3.org/2000/svg" width="50" height="50">
<path d="M0 0 C1.32 0 2.64 0 4 0 C4 1.98 4 3.96 4 6 C7.465 5.505 7.465 5.505 11 5 C9.68 4.67 8.36 4.34 7 4 C7 2.68 7 1.36 7 0 C13.75 0.75 13.75 0.75 16 3 C16.33 2.01 16.66 1.02 17 0 C18.32 0 19.64 0 21 0 C21.33 3.63 21.66 7.26 22 11 C24.31 11.33 26.62 11.66 29 12 C29 10.02 29 8.04 29 6 C27.68 5.34 26.36 4.68 25 4 C25 2.68 25 1.36 25 0 C27.97 0 30.94 0 34 0 C34.63019694 9.99562363 34.63019694 9.99562363 32 14.1875 C31.01 15.0846875 31.01 15.0846875 30 16 C31.32 16.33 32.64 16.66 34 17 C34.62757528 26.9540412 34.62757528 26.9540412 32.125 31.125 C29.05054391 33.83775537 27.43635748 34.12301492 23.4296875 34.09765625 C22.53378906 34.09443359 21.63789063 34.09121094 20.71484375 34.08789062 C19.30912109 34.07532227 19.30912109 34.07532227 17.875 34.0625 C16.45767578 34.05573242 16.45767578 34.05573242 15.01171875 34.04882812 C12.67441613 34.03702357 10.33723939 34.02055759 8 34 C8 32.68 8 31.36 8 30 C9.32 29.34 10.64 28.68 12 28 C12.042721 26.33388095 12.04063832 24.66617115 12 23 C10.9404123 21.71677453 10.9404123 21.71677453 8.5 21.875 C6.0595877 21.71677453 6.0595877 21.71677453 5 23 C4.76636119 24.84891946 4.58696365 26.70488031 4.4375 28.5625 C4.35371094 29.57441406 4.26992187 30.58632813 4.18359375 31.62890625 C4.09271484 32.80259766 4.09271484 32.80259766 4 34 C2.68 34 1.36 34 0 34 C0 22.78 0 11.56 0 0 Z M4 10 C4.99 10.99 5.98 11.98 7 13 C7.66 13 8.32 13 9 13 C8.67 14.32 8.34 15.64 8 17 C9.11375 17.2475 10.2275 17.495 11.375 17.75 C15 19 15 19 16.4375 21.125 C16.7159375 22.053125 16.7159375 22.053125 17 23 C17.226875 22.38125 17.45375 21.7625 17.6875 21.125 C19.37929835 18.38589791 20.99244161 17.94975528 24 17 C21.00468461 16.00156154 19.82744268 15.99267239 16.8125 16.4375 C15.554375 16.623125 14.29625 16.80875 13 17 C13 14.69 13 12.38 13 10 C10.03 10 7.06 10 4 10 Z M23 21 C22.67 21.66 22.34 22.32 22 23 C24.64 23 27.28 23 30 23 C30 22.34 30 21.68 30 21 C27.69 21 25.38 21 23 21 Z M21 27 C21.99 28.485 21.99 28.485 23 30 C25.97065509 29.65772428 25.97065509 29.65772428 29 29 C29.33 28.34 29.66 27.68 30 27 C27.03 27 24.06 27 21 27 Z " fill="#BB0000" transform="translate(8,10)"/>
<path d="M0 0 C4.62 0 9.24 0 14 0 C13.67 1.32 13.34 2.64 13 4 C10.03 3.67 7.06 3.34 4 3 C4 16.53 4 30.06 4 44 C16.54 44 29.08 44 42 44 C42 30.47 42 16.94 42 3 C38.7 3.33 35.4 3.66 32 4 C32 2.68 32 1.36 32 0 C36.62 0 41.24 0 46 0 C46 15.51 46 31.02 46 47 C30.82 47 15.64 47 0 47 C0 31.49 0 15.98 0 0 Z " fill="#BC0000" transform="translate(2,2)"/>
<path d="M0 0 C4.62 0 9.24 0 14 0 C14 1.65 14 3.3 14 5 C9.71 5 5.42 5 1 5 C0.67 3.35 0.34 1.7 0 0 Z " fill="#BC0000" transform="translate(18,1)"/>
</svg>
