<?xml version="1.0" encoding="UTF-8"?>
<!-- Generator: https://ezgif.com/png-to-svg -->
<svg version="1.1" xmlns="http://www.w3.org/2000/svg" width="512" height="512" viewBox="-71.538 -39.808 743.075 743.075" preserveAspectRatio="xMidYMid meet">
<path d="M0 0 C53.79 0 107.58 0 163 0 C163 209.88 163 419.76 163 636 C135.28 636 107.56 636 79 636 C71 603 71 603 71 600 C89.81 600 108.62 600 128 600 C128 413.88 128 227.76 128 36 C82.79 36 37.58 36 -9 36 C-6.75 23.6 -6.75 23.6 -5.53 18.71 C-5.27 17.67 -5.01 16.63 -4.74 15.55 C-4.34 13.98 -4.34 13.98 -3.94 12.38 C-3.53 10.74 -3.53 10.74 -3.12 9.08 C-2.86 8.05 -2.61 7.02 -2.34 5.96 C-2.11 5.03 -1.87 4.1 -1.63 3.14 C-1 1 -1 1 0 0 Z " fill="#BB0000" transform="translate(437,13)"/>
<path d="M0 0 C53.79 0 107.58 0 163 0 C166.38 10.14 166.38 10.14 167.61 15.02 C167.87 16.06 168.13 17.1 168.4 18.18 C168.66 19.23 168.92 20.29 169.19 21.38 C169.6 22.99 169.6 22.99 170.01 24.64 C170.4 26.19 170.4 26.19 170.79 27.77 C171.03 28.71 171.26 29.64 171.5 30.6 C172 33 172 33 172 36 C126.79 36 81.58 36 35 36 C35 222.12 35 408.24 35 600 C53.81 600 72.62 600 92 600 C89.59 612.05 86.85 624.04 84 636 C56.28 636 28.56 636 0 636 C0 426.12 0 216.24 0 0 Z " fill="#BA0000" transform="translate(0,13)"/>
<path d="M0 0 C1.16 -0 2.32 -0 3.52 -0 C7.35 0 11.17 0.01 15 0.02 C17.65 0.02 20.31 0.02 22.97 0.02 C29.24 0.02 35.51 0.03 41.79 0.04 C49.63 0.05 57.48 0.06 65.32 0.06 C79.31 0.07 93.3 0.09 107.28 0.11 C107.28 26.84 107.28 53.57 107.28 81.11 C95.4 81.11 83.52 81.11 71.28 81.11 C71.28 65.93 71.28 50.75 71.28 35.11 C58.85 35.23 58.85 35.23 46.42 35.37 C41.34 35.43 36.26 35.49 31.17 35.54 C27.07 35.57 22.97 35.62 18.86 35.67 C17.31 35.69 15.75 35.71 14.2 35.72 C-9.75 35.9 -31.09 39.93 -49.09 56.86 C-57.9 66.22 -62.09 76.09 -66.72 88.11 C-9.3 88.11 48.12 88.11 107.28 88.11 C107.28 128.33 101.53 155.77 72.95 184.46 C52.57 203.72 24.39 213.05 -3.37 212.36 C-20.04 211.61 -36.65 206.83 -51.22 198.74 C-51.83 198.4 -52.44 198.06 -53.07 197.71 C-58.83 194.33 -63.36 190.4 -68.72 186.11 C-69.05 194.69 -69.38 203.27 -69.72 212.11 C-81.27 212.11 -92.82 212.11 -104.72 212.11 C-104.72 185.05 -104.72 157.99 -104.72 130.11 C-91.52 130.11 -78.32 130.11 -64.72 130.11 C-62.08 135.06 -59.44 140.01 -56.72 145.11 C-44.97 161.06 -29.45 171.39 -9.85 174.82 C8.44 177.37 25.96 173.39 41.28 163.11 C44.89 160.34 48.11 157.37 51.28 154.11 C51.9 153.51 52.52 152.91 53.16 152.29 C57.15 148.17 59.89 143.56 62.59 138.55 C62.93 137.93 63.27 137.3 63.62 136.66 C65.82 132.41 66.9 128.93 68.28 124.11 C11.19 124.11 -45.9 124.11 -104.72 124.11 C-104.72 85.96 -104.72 85.96 -100.72 74.11 C-100.5 73.47 -100.29 72.82 -100.07 72.16 C-90.61 44.51 -71.37 23.69 -45.72 10.11 C-31.06 2.95 -16.19 -0.05 0 0 Z " fill="#BB0000" transform="translate(413.718505859375,340.886474609375)"/>
<path d="M0 0 C11.88 0 23.76 0 36 0 C36 29.04 36 58.08 36 88 C81.54 88 127.08 88 174 88 C166.23 68.57 158.09 55.45 140 45 C139.34 44.61 138.69 44.22 138.01 43.82 C126.76 37.62 114.73 36.39 102.12 36.25 C97.46 36.17 92.8 36.09 88 36 C88 24.12 88 12.24 88 0 C126.14 -0.51 155.69 5.61 183.68 32.58 C202.05 51.67 212.2 77.34 212.11 103.7 C212.11 104.87 212.11 106.04 212.11 107.25 C212.11 111.11 212.11 114.97 212.1 118.84 C212.1 121.52 212.09 124.2 212.09 126.88 C212.09 133.21 212.08 139.55 212.07 145.88 C212.06 153.09 212.06 160.3 212.05 167.51 C212.04 182.34 212.02 197.17 212 212 C200.12 212 188.24 212 176 212 C176 183.29 176 154.58 176 125 C130.79 125 85.58 125 39 125 C47.8 146.13 57.95 161.33 79.59 170.53 C88.93 173.91 96.84 174.73 107 176 C107 187.88 107 199.76 107 212 C71.69 212 36.38 212 0 212 C0 200.12 0 188.24 0 176 C12.38 175.5 12.38 175.5 25 175 C23.52 173.02 22.03 171.04 20.5 169 C2.5 144.15 -0.32 118.44 -0.2 88.48 C-0.19 85.92 -0.19 83.36 -0.19 80.8 C-0.18 74.79 -0.16 68.78 -0.14 62.77 C-0.12 55.92 -0.11 49.07 -0.1 42.22 C-0.08 28.15 -0.04 14.07 0 0 Z " fill="#BB0000" transform="translate(79,109)"/>
<path d="M0 0 C11.88 0 23.76 0 36 0 C36.33 8.25 36.66 16.5 37 25 C39.44 23.05 39.44 23.05 41.94 21.06 C60.78 6.69 82.65 -0.44 106.31 -0.31 C107.41 -0.31 108.5 -0.3 109.63 -0.3 C133.34 0.06 155.95 8.56 174 24 C174.8 24.67 175.6 25.33 176.42 26.02 C195.85 42.77 209.8 67.14 212 93 C212.76 106.81 212.95 120.64 209 134 C208.7 135.01 208.7 135.01 208.4 136.04 C203.9 150.87 197.07 163.14 187 175 C195.25 175.33 203.5 175.66 212 176 C212 187.88 212 199.76 212 212 C176.69 212 141.38 212 105 212 C105 200.12 105 188.24 105 176 C110.28 175.34 115.56 174.68 121 174 C141.07 168.33 156.54 158.39 167 140 C175.53 123.59 178.21 104.35 173.38 86.31 C169.66 75.52 164.56 66.54 157 58 C156.49 57.39 155.98 56.77 155.46 56.14 C144.79 44.21 128.05 37.51 112.34 36.56 C91.65 35.87 74.43 40.9 58.5 54.63 C44.06 68.32 37.14 86.43 36.51 106.05 C36.41 111.94 36.39 117.83 36.39 123.72 C36.38 126.27 36.36 128.83 36.34 131.39 C36.3 137.38 36.28 143.38 36.27 149.37 C36.25 156.21 36.21 163.05 36.17 169.88 C36.09 183.92 36.04 197.96 36 212 C24.12 212 12.24 212 0 212 C0 142.04 0 72.08 0 0 Z " fill="#BB0000" transform="translate(79,341)"/>
<path d="M0 0 C11.55 0 23.1 0 35 0 C35.03 4.79 35.03 4.79 35.06 9.68 C35.13 20.27 35.2 30.87 35.29 41.47 C35.34 47.89 35.38 54.31 35.42 60.73 C35.46 66.93 35.51 73.14 35.56 79.34 C35.58 81.7 35.59 84.06 35.6 86.41 C35.74 112.92 37.85 136.13 57.14 156.39 C71.94 169.88 90.3 175.73 110.07 175.31 C125.81 174.58 140.2 168.39 152 158 C152.75 157.36 153.5 156.71 154.27 156.05 C163.62 147.44 169.39 136.08 173 124 C173.34 122.99 173.34 122.99 173.68 121.95 C178.37 105.37 174.57 86.47 166.57 71.61 C164.3 67.84 161.8 64.4 159 61 C158.59 60.43 158.17 59.86 157.75 59.27 C148.35 46.99 131.9 39.53 117 37 C113.04 36.67 109.08 36.34 105 36 C105 24.12 105 12.24 105 0 C140.31 0 175.62 0 212 0 C212 11.88 212 23.76 212 36 C199.62 36.5 199.62 36.5 187 37 C188.98 39.51 188.98 39.51 191 42.06 C208.56 65.15 214.79 93.52 211.31 122.12 C206.72 149.61 191.88 174.45 169.62 191.25 C144.7 208.41 116.62 215.78 86.48 210.75 C68.65 206.93 49.13 199.13 36 186 C35.67 194.58 35.34 203.16 35 212 C23.45 212 11.9 212 0 212 C0 142.04 0 72.08 0 0 Z " fill="#BB0000" transform="translate(309,109)"/>
<path d="M0 0 C6.93 0 13.86 0 21 0 C21 6.6 21 13.2 21 20 C26.28 20 31.56 20 37 20 C37 13.4 37 6.8 37 0 C43.93 0 50.86 0 58 0 C58 20.46 58 40.92 58 62 C51.07 62 44.14 62 37 62 C37 54.74 37 47.48 37 40 C31.72 40 26.44 40 21 40 C21 47.26 21 54.52 21 62 C14.07 62 7.14 62 0 62 C0 41.54 0 21.08 0 0 Z " fill="#BA0000" transform="translate(269,0)"/>
<path d="M0 0 C7.89 -0.09 7.89 -0.09 15.94 -0.19 C17.58 -0.21 19.22 -0.24 20.91 -0.27 C29.83 -0.32 37.93 -0.29 45.38 5.31 C49.99 10.04 51.76 14.86 52.25 21.31 C51.77 28.41 48.95 32.18 44 37 C43.1 38.87 43.1 38.87 43 41 C43.86 43.14 43.86 43.14 45.31 45.22 C46.06 46.4 46.06 46.4 46.82 47.6 C47.36 48.41 47.89 49.23 48.44 50.06 C49.48 51.67 50.52 53.29 51.56 54.91 C52.03 55.62 52.49 56.34 52.97 57.07 C54 59 54 59 54 62 C36.16 63.46 36.16 63.46 31.51 60.31 C29.98 57.93 28.97 55.66 28 53 C27.15 51.32 26.28 49.65 25.38 48 C25.01 47.26 24.65 46.51 24.27 45.75 C22.95 43.53 22.95 43.53 19 43 C19 49.27 19 55.54 19 62 C12.73 62 6.46 62 0 62 C0 41.54 0 21.08 0 0 Z M19 16 C19 19.63 19 23.26 19 27 C20.75 27.08 22.51 27.16 24.31 27.25 C25.79 27.32 25.79 27.32 27.3 27.39 C30.1 27.25 30.1 27.25 31.9 25.18 C33.33 22.91 33.33 22.91 32.31 19.81 C31.31 16.89 31.31 16.89 29 16 C27.29 15.93 25.58 15.92 23.88 15.94 C22.27 15.96 20.66 15.98 19 16 Z " fill="#BC0000" transform="translate(335,600)"/>
<path d="M0 0 C5.68 4.62 11.6 11.03 12.81 18.49 C13.58 29.96 13 38.55 5.56 47.74 C1.21 52.45 -4.53 57.07 -11.15 57.67 C-13.56 57.74 -15.96 57.78 -18.38 57.8 C-19.2 57.83 -20.03 57.86 -20.88 57.89 C-29.33 57.98 -35.39 54.81 -41.59 49.19 C-48.5 41.85 -50.71 33.56 -50.5 23.62 C-49.61 14.62 -45.9 7.5 -39.19 1.49 C-27.47 -7.55 -12.3 -8.48 0 0 Z M-29.56 17.55 C-32.13 22.65 -32.23 28.18 -30.53 33.58 C-28.87 36.98 -27.1 38.55 -23.88 40.49 C-19.71 41.62 -17.33 41.64 -13.19 40.49 C-8.51 37.73 -6.71 34.66 -5.19 29.49 C-4.93 23.52 -6.17 19.05 -10.19 14.49 C-17.57 9.78 -24.04 10.44 -29.56 17.55 Z " fill="#BB0000" transform="translate(316.1875,604.5078125)"/>
<path d="M0 0 C15.84 0 31.68 0 48 0 C46.48 3.81 44.9 7.18 42.94 10.75 C42.41 11.71 41.88 12.68 41.34 13.67 C40 16 40 16 39 17 C37.66 17.09 36.31 17.11 34.96 17.1 C34.16 17.09 33.35 17.09 32.51 17.09 C31.66 17.08 30.81 17.07 29.94 17.06 C29.08 17.06 28.23 17.05 27.35 17.05 C25.23 17.04 23.12 17.02 21 17 C21 18.65 21 20.3 21 22 C28.92 22 36.84 22 45 22 C40.1 34.25 40.1 34.25 36 38 C30.84 38.97 26.18 38.66 21 38 C21 39.98 21 41.96 21 44 C30.24 44 39.48 44 49 44 C48.34 45.98 47.68 47.96 47 50 C46.67 51.05 46.33 52.1 45.99 53.18 C44.39 56.94 43.04 59.24 40 62 C33.51 64.02 26.23 63.11 19.56 62.75 C13.11 62.5 6.65 62.26 0 62 C0 41.54 0 21.08 0 0 Z " fill="#BB0000" transform="translate(335,0)"/>
<path d="M0 0 C15.18 0 30.36 0 46 0 C44.64 4.07 43.38 7.54 41.5 11.31 C41.08 12.17 40.65 13.04 40.22 13.93 C39 16 39 16 37 17 C35.62 17.08 34.25 17.11 32.87 17.1 C32.06 17.09 31.26 17.09 30.43 17.09 C29.58 17.08 28.74 17.07 27.88 17.06 C27.03 17.06 26.18 17.05 25.3 17.05 C23.2 17.04 21.1 17.02 19 17 C19 18.98 19 20.96 19 23 C26.59 23 34.18 23 42 23 C40.81 28.93 39.7 33.92 35 38 C29.78 39.27 24.28 38.56 19 38 C19 40.31 19 42.62 19 45 C28.24 45 37.48 45 47 45 C46 49 46 49 39 62 C26.13 62 13.26 62 0 62 C0 41.54 0 21.08 0 0 Z " fill="#BB0000" transform="translate(107,600)"/>
<path d="M0 0 C3.56 3.66 6.09 7.82 6.29 13 C6.26 13.75 6.22 14.49 6.19 15.25 C3.56 15.58 0.94 15.92 -1.69 16.25 C-2.81 16.39 -2.81 16.39 -3.95 16.54 C-9.59 17.25 -9.59 17.25 -11.81 17.25 C-12.47 15.27 -13.13 13.29 -13.81 11.25 C-16.12 11.25 -18.43 11.25 -20.81 11.25 C-20.81 12.57 -20.81 13.89 -20.81 15.25 C-16.15 17.37 -11.5 19.37 -6.69 21.12 C-1.05 23.36 3.39 26.36 6.62 31.56 C7.99 38.07 7.82 43.57 4.53 49.46 C1.59 53.39 -2.21 55.72 -6.81 57.25 C-10.04 57.53 -13.27 57.53 -16.5 57.56 C-17.37 57.59 -18.25 57.62 -19.15 57.65 C-26.24 57.72 -31.46 56.2 -36.84 51.47 C-37.28 50.9 -37.73 50.33 -38.19 49.75 C-38.65 49.18 -39.11 48.62 -39.59 48.03 C-42.39 43.96 -43.04 41.24 -42.81 36.25 C-38.46 35.41 -34.37 35.14 -29.94 35.19 C-28.79 35.2 -27.63 35.21 -26.45 35.21 C-25.58 35.23 -24.71 35.24 -23.81 35.25 C-23.15 36.9 -22.49 38.55 -21.81 40.25 C-17.33 40.97 -17.33 40.97 -12.81 41.25 C-13.05 39.31 -13.05 39.31 -13.81 37.25 C-17.24 35.25 -20.56 33.7 -24.29 32.36 C-31.05 29.9 -37.08 26.61 -41.01 20.34 C-42.92 15.36 -42.37 9.89 -40.69 4.94 C-30.76 -9.29 -13.42 -8.35 0 0 Z " fill="#BB0000" transform="translate(199.8125,604.75)"/>
<path d="M0 0 C4.16 3.01 8.6 6.39 9.63 11.66 C9.88 13.64 10.06 15.63 10.23 17.61 C7.63 17.98 5.02 18.33 2.42 18.68 C1.68 18.78 0.94 18.88 0.18 18.99 C-3.2 19.43 -5.49 19.71 -8.77 18.61 C-9.26 16.14 -9.26 16.14 -9.77 13.61 C-12.08 13.61 -14.39 13.61 -16.77 13.61 C-17.1 15.26 -17.43 16.91 -17.77 18.61 C-17.16 18.78 -16.56 18.95 -15.93 19.13 C5.25 25.26 5.25 25.26 10.11 33.99 C11.76 39.31 11.78 42.94 10.04 48.24 C6.96 53.99 3.25 57.19 -2.77 59.61 C-6.07 60.06 -9.32 60.08 -12.64 60.05 C-13.93 60.08 -13.93 60.08 -15.25 60.11 C-22.43 60.11 -27.45 58.27 -33.05 53.79 C-37.39 48.91 -38.88 45.17 -38.77 38.61 C-34.88 37.72 -31.14 37.36 -27.14 37.24 C-26.02 37.19 -24.89 37.14 -23.73 37.09 C-22.75 37.26 -21.78 37.44 -20.77 37.61 C-19.09 40.09 -19.09 40.09 -17.77 42.61 C-14.67 43.32 -11.93 43.61 -8.77 43.61 C-9.1 41.17 -9.1 41.17 -10.77 38.61 C-14.45 36.51 -18.52 35.25 -22.5 33.83 C-28.48 31.54 -32.84 28.76 -36.77 23.61 C-38.71 17.8 -38.79 11.69 -36.08 6.18 C-26.67 -4.25 -12.46 -7.21 0 0 Z " fill="#BB0000" transform="translate(481.76953125,602.38671875)"/>
<path d="M0 0 C37.89 0 37.89 0 46.34 7.98 C49.91 12.32 50.79 17.02 51.38 22.5 C50.67 29.11 49.36 34.16 44.44 38.88 C36.68 44.98 28.56 45.37 19 45 C19 50.61 19 56.22 19 62 C12.73 62 6.46 62 0 62 C0 41.54 0 21.08 0 0 Z M19 16 C19 19.96 19 23.92 19 28 C20.59 28.08 22.18 28.16 23.81 28.25 C25.15 28.32 25.15 28.32 26.52 28.39 C29.14 28.23 29.14 28.23 30.83 26.14 C32.21 24.03 32.21 24.03 31.94 21.44 C30.75 18.34 29.99 17.46 27 16 C24.28 15.76 21.74 15.86 19 16 Z " fill="#BD0000" transform="translate(212,600)"/>
<path d="M0 0 C18.15 0 36.3 0 55 0 C55 6.27 55 12.54 55 19 C49.39 19 43.78 19 38 19 C38 33.19 38 47.38 38 62 C31.07 62 24.14 62 17 62 C17 47.81 17 33.62 17 19 C11.39 19 5.78 19 0 19 C0 12.73 0 6.46 0 0 Z " fill="#BA0000" transform="translate(210,0)"/>
<path d="M0 0 C17.49 0 34.98 0 53 0 C53 5.94 53 11.88 53 18 C47.39 18 41.78 18 36 18 C36 32.52 36 47.04 36 62 C29.73 62 23.46 62 17 62 C17 47.48 17 32.96 17 18 C11.39 18 5.78 18 0 18 C0 12.06 0 6.12 0 0 Z " fill="#BB0000" transform="translate(389,600)"/>
</svg>
