<?xml version="1.0" encoding="UTF-8"?>
<!-- Generator: https://ezgif.com/webp-to-svg -->
<svg version="1.1" xmlns="http://www.w3.org/2000/svg" width="100" height="100">
<path d="M0 0 C9.97 9.24 16.29 20.75 17.33 34.45 C17.82 49.17 13.12 61.62 3.12 72.41 C-7.16 82.18 -20.02 87.26 -34.25 86.91 C-50 85.41 -62.2 77.99 -72.2 65.91 C-79.56 55.49 -82.42 42.27 -80.42 29.77 C-77.32 15.84 -70.96 5.23 -59.33 -3.19 C-40.61 -15.04 -17.33 -14.09 0 0 Z " fill="#44FB71" transform="translate(81.8828125,12.34375)"/>
<path d="M0 0 C7.6 5.81 7.6 5.81 9 10 C5.16 10.92 1.75 11.05 -2.19 10.89 C-3.38 10.86 -4.58 10.83 -5.81 10.79 C-8.28 10.72 -10.76 10.63 -13.24 10.52 C-22.98 10.33 -30.77 12.44 -38.23 18.95 C-44.26 25.1 -47.16 32.45 -47.5 41 C-47.11 50.89 -43.22 58.33 -36 65 C-29.64 70.49 -22.1 71.6 -14 73 C-14 73.33 -14 73.66 -14 74 C-26 76.68 -36.26 74.72 -46.69 68.31 C-55.62 61.94 -61.63 53.75 -64 43 C-65.16 29.69 -64.3 18.58 -55.7 7.88 C-41.02 -8.38 -18.85 -12.15 0 0 Z " fill="#010200" transform="translate(75,16)"/>
<path d="M0 0 C7.38 6.19 13.39 12.98 17 22 C17 22.99 17 23.98 17 25 C15.02 25.33 13.04 25.66 11 26 C10.67 25.01 10.34 24.02 10 23 C9.01 23.49 9.01 23.49 8 24 C4.68 24.07 1.38 24 -1.93 23.94 C-5.04 23.85 -5.04 23.85 -8 25 C-8.66 24.67 -9.32 24.34 -10 24 C-12.88 23.93 -15.74 23.91 -18.62 23.94 C-19.43 23.94 -20.23 23.95 -21.05 23.95 C-23.04 23.96 -25.02 23.98 -27 24 C-24.27 34.32 -20.35 40.87 -11.17 46.53 C-9 48 -9 48 -7 51 C-8.67 50.75 -8.67 50.75 -10.38 50.5 C-14.4 49.79 -14.4 49.79 -18 51 C-20.33 51.04 -22.67 51.04 -25 51 C-25 49.68 -25 48.36 -25 47 C-26.03 43.64 -27.65 40.97 -29.56 38.06 C-31.71 34.73 -32.7 32.02 -33 28 C-40.04 33.11 -43.85 39.09 -45.53 47.71 C-45.77 49.8 -45.9 51.9 -46 54 C-47.32 54 -48.64 54 -50 54 C-52.28 47.16 -52.04 39.27 -49.06 32.69 C-44.42 24.65 -37 18.44 -28 16 C-22.47 15.53 -16.98 15.62 -11.44 15.75 C-9.94 15.77 -8.44 15.79 -6.94 15.8 C-3.29 15.85 0.35 15.92 4 16 C-0.42 8.28 -7.44 4.01 -15.89 1.51 C-27.72 -1.35 -37.67 -0.5 -48.44 5.32 C-60.75 12.94 -65.69 23.37 -69 37 C-71.64 37.33 -74.28 37.66 -77 38 C-77.88 27.56 -74.26 17.82 -67.59 9.77 C-66.8 8.89 -66.8 8.89 -66 8 C-65.48 7.4 -64.95 6.79 -64.41 6.17 C-47.81 -11.75 -19.8 -14.07 0 0 Z " fill="#96F139" transform="translate(79,10)"/>
<path d="M0 0 C0.67 -0 1.35 -0.01 2.04 -0.01 C5.41 -0.01 8.38 0.25 11.62 1.12 C11.95 0.8 12.28 0.47 12.62 0.12 C15.16 0.05 17.66 0.03 20.19 0.06 C20.9 0.07 21.61 0.07 22.34 0.08 C24.1 0.09 25.86 0.11 27.62 0.12 C27.65 1.92 27.67 3.71 27.69 5.5 C27.7 6.5 27.71 7.5 27.72 8.52 C27.62 11.12 27.62 11.12 26.62 13.12 C26.26 15.29 25.93 17.45 25.62 19.62 C24.74 25.9 24.74 25.9 23.62 28.12 C22.63 28.12 21.64 28.12 20.62 28.12 C20.52 28.87 20.42 29.61 20.31 30.38 C19.58 33.3 18.56 34.86 16.62 37.12 C16.95 34.48 17.28 31.84 17.62 29.12 C16.78 29.25 15.93 29.37 15.06 29.5 C10.79 29.03 9.44 27.62 6.41 24.75 C4.72 23.21 3.07 22.12 1.12 20.94 C-3.71 17.56 -6.96 12.43 -9.38 7.12 C-9.57 3.78 -9.57 3.78 -9.38 1.12 C-6.37 -0.38 -3.29 -0.02 0 0 Z " fill="#010301" transform="translate(61.375,32.875)"/>
<path d="M0 0 C1.8 2.19 1.8 2.19 3 4 C1.82 4.46 1.82 4.46 0.62 4.94 C-1.92 5.93 -1.92 5.93 -4 7 C-6.07 6.07 -6.07 6.07 -8.56 4.69 C-17.71 -0.03 -27.73 -1.73 -37.89 0.69 C-49.19 4.48 -58.51 11.21 -64.25 21.81 C-66.49 26.66 -67.74 31.82 -69 37 C-71.64 37.33 -74.28 37.66 -77 38 C-77.88 27.56 -74.26 17.82 -67.59 9.77 C-66.8 8.89 -66.8 8.89 -66 8 C-65.48 7.4 -64.95 6.79 -64.41 6.17 C-47.84 -11.72 -19.8 -14.11 0 0 Z " fill="#EAF90B" transform="translate(79,10)"/>
<path d="M0 0 C0.33 0 0.66 0 1 0 C1.04 1.43 1.04 1.43 1.08 2.89 C1.68 16.51 4.57 27.14 14.88 36.75 C22.05 42.55 30.98 46.16 40.19 46.06 C41.27 46.05 42.36 46.04 43.48 46.04 C44.73 46.02 44.73 46.02 46 46 C45.34 45.34 44.68 44.68 44 44 C50.44 43.5 50.44 43.5 57 43 C57.33 43.99 57.66 44.98 58 46 C57.01 46 56.02 46 55 46 C55 46.66 55 47.32 55 48 C50.05 48 45.1 48 40 48 C39.67 48.99 39.34 49.98 39 51 C33.2 53.2 28.16 54.18 22.24 51.97 C7.72 45.27 -1.49 34.93 -7.02 20.15 C-8.54 15.27 -9.13 10.72 -9.06 5.62 C-9.05 4.75 -9.04 3.88 -9.04 2.98 C-9.02 2.32 -9.01 1.67 -9 1 C-8.67 1.99 -8.34 2.98 -8 4 C-5.36 3.67 -2.72 3.34 0 3 C0 2.01 0 1.02 0 0 Z " fill="#21F884" transform="translate(10,44)"/>
<path d="M0 0 C0.31 0.81 0.63 1.62 0.95 2.45 C1.38 3.52 1.81 4.59 2.25 5.69 C2.67 6.74 3.09 7.8 3.52 8.89 C5.01 12.02 6.73 14.39 9 17 C7.17 21.72 7.17 21.72 5.96 23.79 C3.6 29.24 3.98 36.4 6.12 41.85 C7.32 43.99 8.56 46.01 10 48 C3.91 47.69 -0.54 44.98 -5 41 C-11.05 32.99 -12.94 25.95 -12 16 C-10.62 10.5 -6.92 0 0 0 Z " fill="#010501" transform="translate(46,38)"/>
<path d="M0 0 C-7.37 14.07 -17.62 23.1 -32.77 27.87 C-40.41 29.61 -48.33 29.61 -56 28 C-53 26 -53 26 -49.38 25 C-48.26 24.67 -47.15 24.34 -46 24 C-45.67 23.34 -45.34 22.68 -45 22 C-40.05 20.95 -34.89 20.53 -30 22 C-30 21.34 -30 20.68 -30 20 C-29.34 19.67 -28.68 19.34 -28 19 C-28 18.34 -28 17.68 -28 17 C-28.66 17.33 -29.32 17.66 -30 18 C-31.87 18.07 -33.75 18.08 -35.62 18.06 C-36.63 18.05 -37.63 18.04 -38.66 18.04 C-39.43 18.02 -40.21 18.01 -41 18 C-40.01 17.67 -39.02 17.34 -38 17 C-38 15.68 -38 14.36 -38 13 C-33.37 10.8 -28.82 8.87 -23.88 7.5 C-20.79 6.62 -18.18 5.67 -15.44 4 C-5.44 -1.81 -5.44 -1.81 0 0 Z " fill="#14FE90" transform="translate(95,70)"/>
<path d="M0 0 C0.33 0 0.66 0 1 0 C1.04 1.43 1.04 1.43 1.08 2.89 C1.63 15.45 4.41 24.75 12 35 C4.23 36.56 4.23 36.56 0.25 34.75 C-7.67 25.07 -9.46 13.12 -9 1 C-8.67 1.99 -8.34 2.98 -8 4 C-5.36 3.67 -2.72 3.34 0 3 C0 2.01 0 1.02 0 0 Z " fill="#62F55A" transform="translate(10,44)"/>
<path d="M0 0 C1.83 2.41 3.51 4.81 5.12 7.38 C7.79 11.17 11.07 13.28 15.01 15.64 C17 17 17 17 19 20 C17.89 19.84 16.77 19.67 15.62 19.5 C11.6 18.79 11.6 18.79 8 20 C5.67 20.04 3.33 20.04 1 20 C1 18.68 1 17.36 1 16 C0.01 12.85 -1.28 10.58 -3.12 7.81 C-5 5 -5 5 -5 3 C-3.68 3 -2.36 3 -1 3 C-0.67 2.01 -0.34 1.02 0 0 Z " fill="#69EE52" transform="translate(53,41)"/>
<path d="M0 0 C0.33 0 0.66 0 1 0 C1 3.3 1 6.6 1 10 C1.66 10.33 2.32 10.66 3 11 C2.67 11.66 2.34 12.32 2 13 C3.32 13 4.64 13 6 13 C6 10.03 6 7.06 6 4 C6.33 4 6.66 4 7 4 C7.07 4.89 7.15 5.79 7.23 6.71 C8.12 14.91 9.37 21.73 15 28 C19.67 31.66 24.12 34.07 30 35 C27 37 27 37 23.81 36.94 C15.53 34.9 8.2 29.18 3.71 21.91 C0.86 16.39 -0.13 12.01 -0.06 5.75 C-0.05 4.13 -0.05 4.13 -0.04 2.48 C-0.02 1.66 -0.01 0.84 0 0 Z " fill="#3FF16E" transform="translate(27,51)"/>
<path d="M0 0 C0.78 0.52 1.56 1.05 2.36 1.59 C4.25 3.06 4.25 3.06 5.25 5.06 C4.47 5.37 3.68 5.68 2.88 6 C0.33 6.99 0.33 6.99 -1.75 8.06 C-3.14 7.37 -4.48 6.61 -5.81 5.81 C-13 2.01 -20.8 1.2 -28.75 0.06 C-28.75 -0.27 -28.75 -0.6 -28.75 -0.94 C-25.69 -1.47 -22.63 -1.99 -19.56 -2.5 C-18.27 -2.73 -18.27 -2.73 -16.94 -2.96 C-10.06 -4.09 -5.91 -4.05 0 0 Z " fill="#CAF71D" transform="translate(76.75,8.9375)"/>
<path d="M0 0 C0.33 0.99 0.66 1.98 1 3 C3.64 2.67 6.28 2.34 9 2 C9.03 3.81 9.05 5.62 9.06 7.44 C9.07 8.45 9.09 9.46 9.1 10.5 C9 13 9 13 8 14 C8.66 14.33 9.32 14.66 10 15 C10 15.99 10 16.98 10 18 C7.36 18.66 4.72 19.32 2 20 C0.39 13.24 -0.27 6.95 0 0 Z " fill="#98FC3C" transform="translate(1,45)"/>
<path d="M0 0 C0.66 0 1.32 0 2 0 C1.81 0.64 1.61 1.28 1.41 1.94 C-0.09 6.95 -1.58 11.97 -3 17 C-6.96 17.49 -6.96 17.49 -11 18 C-11.42 7.2 -11.42 7.2 -9 4 C-6.04 2.97 -3.09 2.43 0 2 C0 1.34 0 0.68 0 0 Z " fill="#BCF826" transform="translate(13,30)"/>
<path d="M0 0 C1.27 0.25 1.27 0.25 2.56 0.5 C6 1.13 6 1.13 9.5 0.75 C14.34 1.1 15.68 2.52 19 6 C19.66 8.17 19.66 8.17 20 10 C15.13 12 15.13 12 12 12 C7.07 9.16 3.31 4.55 0 0 Z " fill="#43FA70" transform="translate(10,78)"/>
<path d="M0 0 C0.33 0 0.66 0 1 0 C1 3.96 1 7.92 1 12 C0.34 12 -0.32 12 -1 12 C-1 14.97 -1 17.94 -1 21 C-0.01 21.33 0.98 21.66 2 22 C1.01 22.66 0.02 23.32 -1 24 C2.3 24 5.6 24 9 24 C9 24.66 9 25.32 9 26 C6.69 26.33 4.38 26.66 2 27 C2 27.66 2 28.32 2 29 C-1.67 30.96 -4.87 32.39 -9 33 C-8.01 29.53 -8.01 29.53 -7 26 C-6.01 26 -5.02 26 -4 26 C-3.87 24.94 -3.73 23.88 -3.6 22.79 C-3.42 21.4 -3.24 20.01 -3.06 18.62 C-2.98 17.93 -2.89 17.23 -2.8 16.51 C-2.11 11.23 -2.11 11.23 -1 9 C-0.78 7.46 -0.59 5.92 -0.44 4.38 C-0.35 3.56 -0.27 2.74 -0.18 1.9 C-0.12 1.27 -0.06 0.65 0 0 Z " fill="#3CFC76" transform="translate(89,35)"/>
<path d="M0 0 C0.33 0 0.66 0 1 0 C1.23 3.21 1.43 6.42 1.62 9.62 C1.69 10.53 1.75 11.43 1.82 12.36 C2.11 17.34 2.21 21.39 0 26 C-2.13 26.88 -2.13 26.88 -4 27 C-4.66 25.02 -5.32 23.04 -6 21 C-4 19 -4 19 -1.38 18.88 C-0.59 18.92 0.19 18.96 1 19 C1 18.01 1 17.02 1 16 C0.01 15.67 -0.98 15.34 -2 15 C-1.67 14.67 -1.34 14.34 -1 14 C-0.76 11.65 -0.59 9.29 -0.44 6.94 C-0.35 5.65 -0.27 4.36 -0.18 3.03 C-0.12 2.03 -0.06 1.03 0 0 Z " fill="#71DC41" transform="translate(10,44)"/>
<path d="M0 0 C0.33 0 0.66 0 1 0 C1 3.3 1 6.6 1 10 C1.66 10.33 2.32 10.66 3 11 C2.67 11.66 2.34 12.32 2 13 C3.32 13 4.64 13 6 13 C6 10.03 6 7.06 6 4 C6.33 4 6.66 4 7 4 C7.33 8.62 7.66 13.24 8 18 C7.67 17.01 7.34 16.02 7 15 C3.93 15.78 3.93 15.78 2 18 C-0.61 12.12 -0.18 6.29 0 0 Z " fill="#56C441" transform="translate(27,51)"/>
<path d="M0 0 C0.99 0.33 1.98 0.66 3 1 C3.56 2.69 3.56 2.69 4 5 C4.66 7 5.32 9 6 11 C3.62 10.69 3.62 10.69 1 10 C-1.29 6.56 -1.26 5.03 -1 1 C-0.67 0.67 -0.34 0.34 0 0 Z " fill="#2FC65B" transform="translate(63,35)"/>
<path d="M0 0 C0.99 0 1.98 0 3 0 C3 0.99 3 1.98 3 3 C3.66 3 4.32 3 5 3 C5.66 4.98 6.32 6.96 7 9 C5.68 8.67 4.36 8.34 3 8 C2.67 8.66 2.34 9.32 2 10 C-1.08 5.69 -1.08 5.69 -0.69 2.19 C-0.46 1.47 -0.23 0.74 0 0 Z " fill="#53EA5D" transform="translate(31,66)"/>
<path d="M0 0 C0.33 0 0.66 0 1 0 C1 3.96 1 7.92 1 12 C0.34 12 -0.32 12 -1 12 C-1 14.97 -1 17.94 -1 21 C-0.01 21.33 0.98 21.66 2 22 C-0.25 24.56 -0.25 24.56 -3 27 C-5.31 26.81 -5.31 26.81 -7 26 C-6.01 26 -5.02 26 -4 26 C-3.87 24.94 -3.73 23.88 -3.6 22.79 C-3.42 21.4 -3.24 20.01 -3.06 18.62 C-2.98 17.93 -2.89 17.23 -2.8 16.51 C-2.11 11.23 -2.11 11.23 -1 9 C-0.78 7.46 -0.59 5.92 -0.44 4.38 C-0.35 3.56 -0.27 2.74 -0.18 1.9 C-0.12 1.27 -0.06 0.65 0 0 Z " fill="#3DBA4A" transform="translate(89,35)"/>
<path d="M0 0 C0.33 0.99 0.66 1.98 1 3 C0.01 3 -0.98 3 -2 3 C-2 3.66 -2 4.32 -2 5 C-5.63 5 -9.26 5 -13 5 C-12.34 4.34 -11.68 3.68 -11 3 C-11.66 2.34 -12.32 1.68 -13 1 C-11.21 0.83 -9.42 0.67 -7.62 0.5 C-6.63 0.41 -5.63 0.31 -4.6 0.22 C-2 0 -2 0 0 0 Z " fill="#0BC570" transform="translate(67,87)"/>
<path d="M0 0 C0.96 0.4 0.96 0.4 1.94 0.81 C5.91 2.35 9.95 3.68 14 5 C11 7 11 7 7.69 6.81 C4.04 6.01 1.25 4.82 -2 3 C-1.34 2.67 -0.68 2.34 0 2 C0 1.34 0 0.68 0 0 Z " fill="#21D36C" transform="translate(43,81)"/>
<path d="M0 0 C-2.86 1.9 -4.93 2.69 -8.19 3.62 C-9.09 3.89 -9.99 4.15 -10.92 4.41 C-11.61 4.61 -12.29 4.8 -13 5 C-13.33 3.68 -13.66 2.36 -14 1 C-8.83 -0.79 -5.49 -1.12 0 0 Z " fill="#DBE608" transform="translate(44,9)"/>
<path d="M0 0 C0 0.66 0 1.32 0 2 C1.32 1.67 2.64 1.34 4 1 C4 1.99 4 2.98 4 4 C0.23 5.34 -2.86 4.72 -6.75 4.06 C-8.51 3.77 -8.51 3.77 -10.3 3.47 C-11.19 3.32 -12.08 3.16 -13 3 C-13 2.67 -13 2.34 -13 2 C-11.21 1.66 -9.42 1.33 -7.62 1 C-6.63 0.81 -5.63 0.63 -4.6 0.44 C-2 0 -2 0 0 0 Z " fill="#C7DF10" transform="translate(61,6)"/>
<path d="M0 0 C0.99 0.33 1.98 0.66 3 1 C2.69 2.88 2.69 2.88 2 5 C0.52 5.99 0.52 5.99 -1 7 C-1.04 5 -1.04 3 -1 1 C-0.67 0.67 -0.34 0.34 0 0 Z " fill="#A7D91F" transform="translate(63,35)"/>
</svg>
