<?xml version="1.0" encoding="UTF-8"?>
<svg version="1.1" xmlns="http://www.w3.org/2000/svg" width="50" height="50">
<path d="M0 0 C0.66 0 1.32 0 2 0 C0.24009216 5.91969002 -2.39694605 11.41634992 -5 17 C-3.35 17 -1.7 17 0 17 C-0.60975269 20.10189719 -1.60141014 22.1629936 -3.44140625 24.72265625 C-3.93914551 25.42140869 -4.43688477 26.12016113 -4.94970703 26.84008789 C-5.48192871 27.57348389 -6.01415039 28.30687988 -6.5625 29.0625 C-7.37243408 30.1906311 -7.37243408 30.1906311 -8.19873047 31.34155273 C-9.28608245 32.85449577 -10.37589822 34.36567136 -11.46826172 35.875 C-12.82789511 37.7612367 -14.17030303 39.65782276 -15.50390625 41.5625 C-16.20386719 42.5525 -16.90382813 43.5425 -17.625 44.5625 C-18.23601563 45.43003906 -18.84703125 46.29757813 -19.4765625 47.19140625 C-19.97929687 47.78824219 -20.48203125 48.38507812 -21 49 C-21.66 49 -22.32 49 -23 49 C-24.50575612 47.24379357 -25.92703429 45.41507854 -27.3125 43.5625 C-28.20147109 42.37994377 -29.09081409 41.19766705 -29.98046875 40.015625 C-30.4604834 39.37431641 -30.94049805 38.73300781 -31.43505859 38.07226562 C-33.12087891 35.83993445 -34.83288491 33.62960582 -36.55078125 31.421875 C-37.1439917 30.65673584 -37.73720215 29.89159668 -38.34838867 29.10327148 C-39.52397692 27.58746215 -40.70248496 26.07391236 -41.8840332 24.56274414 C-42.41988037 23.86785889 -42.95572754 23.17297363 -43.5078125 22.45703125 C-43.98879395 21.83803955 -44.46977539 21.21904785 -44.96533203 20.58129883 C-46 19 -46 19 -46 17 C-36.76 17 -27.52 17 -18 17 C-19 21 -19 21 -20 23 C-14.00977006 16.53455349 -8.24663553 9.98088697 -2.71484375 3.1171875 C-1 1 -1 1 0 0 Z M-23 25 C-24.65 25.66 -26.3 26.32 -28 27 C-26.21168225 30.05763218 -26.21168225 30.05763218 -24 33 C-23.01 33 -22.02 33 -21 33 C-18.78831775 30.05763218 -18.78831775 30.05763218 -17 27 C-18.65 27 -20.3 27 -22 27 C-22.33 26.34 -22.66 25.68 -23 25 Z " fill="#460593" transform="translate(47,0)"/>
<path d="M0 0 C1.77734375 0.1796875 1.77734375 0.1796875 4 1 C5.75390625 3.1953125 5.75390625 3.1953125 7.5625 6.125 C10.86811651 11.31150605 14.34172599 16.30574787 18 21.25 C18.49314697 21.91789551 18.98629395 22.58579102 19.49438477 23.27392578 C20.66072666 24.85091077 21.83003129 26.42570387 23 28 C22.67 28.66 22.34 29.32 22 30 C16.24730056 23.28003251 10.70928707 16.43198374 5.375 9.375 C4.84229492 8.67632812 4.30958984 7.97765625 3.76074219 7.2578125 C-0 2.24019718 -0 2.24019718 0 0 Z " fill="#C4C3CA" transform="translate(1,17)"/>
<path d="M0 0 C0 3.40916496 -0.31905599 3.72810249 -2.484375 6.14453125 C-3.00773437 6.73943359 -3.53109375 7.33433594 -4.0703125 7.94726562 C-4.62460937 8.56279297 -5.17890625 9.17832031 -5.75 9.8125 C-10.29699549 14.8853813 -10.29699549 14.8853813 -14.203125 20.44921875 C-14.79609375 21.29097656 -15.3890625 22.13273437 -16 23 C-16.99 23 -17.98 23 -19 23 C-17.4186938 19.26077871 -15.06769602 16.70350263 -12.3125 13.75 C-8.13151223 9.2291932 -4.02918327 4.65624159 0 0 Z " fill="#B8B4C3" transform="translate(44,4)"/>
<path d="M0 0 C3.72619658 4.62048376 7.36230673 9.30982806 11 14 C10.67 14.66 10.34 15.32 10 16 C8.32093352 14.09306022 6.65712724 12.17585058 5 10.25 C4.52304687 9.71117187 4.04609375 9.17234375 3.5546875 8.6171875 C0.80231523 5.39297999 0 4.3926567 0 0 Z " fill="#B5B1C3" transform="translate(13,31)"/>
<path d="M0 0 C-1.67401978 3.95677402 -4.13149285 6.84464213 -7 10 C-7.66 10 -8.32 10 -9 10 C-7.6834994 5.81113445 -4.97532335 0 0 0 Z " fill="#C0BFC8" transform="translate(33,26)"/>
<path d="M0 0 C0.66 0 1.32 0 2 0 C0.76067171 3.43198603 -0.50301511 6.30325632 -3 9 C-3.99 9 -4.98 9 -6 9 C-4.4722133 5.56247993 -2.49818944 2.81046312 0 0 Z " fill="#C4C3CA" transform="translate(31,18)"/>
</svg>
