<?xml version="1.0" encoding="UTF-8"?>
<svg version="1.1" xmlns="http://www.w3.org/2000/svg" width="50" height="50">
<path d="M0 0 C3.70697705 -0.26260373 7.41156358 -0.42156838 11.125 -0.5625 C12.17171875 -0.63791016 13.2184375 -0.71332031 14.296875 -0.79101562 C17.43802617 -0.88047879 19.96933058 -0.84892232 23 0 C25.72626194 2.67700756 27.41236704 5.5428058 29 9 C29.61875 8.01 30.2375 7.02 30.875 6 C31.926875 4.515 31.926875 4.515 33 3 C33.66 3 34.32 3 35 3 C36.625 5.5 36.625 5.5 38 8 C38.27972656 7.4225 38.55945312 6.845 38.84765625 6.25 C40.09120051 3.94684407 41.26190188 1.96181372 43 0 C46.8125 -0.5 46.8125 -0.5 50 0 C49.43687918 5.03844941 47.06342452 8.82763673 44.5625 13.125 C44.15451172 13.84042969 43.74652344 14.55585938 43.32617188 15.29296875 C41.62519704 18.26204391 39.8994308 21.1508538 38 24 C37.34 24 36.68 24 36 24 C35.34 22.35 34.68 20.7 34 19 C32.29159719 20.63412443 31.06546953 21.86906094 30 24 C29.34 24 28.68 24 28 24 C27.40832031 22.85660156 26.81664063 21.71320312 26.20703125 20.53515625 C25.40975842 19.04378707 24.61153136 17.55292775 23.8125 16.0625 C23.42513672 15.30775391 23.03777344 14.55300781 22.63867188 13.77539062 C20.3801631 9.34251813 20.3801631 9.34251813 16.19921875 6.99609375 C15.11060547 6.99802734 15.11060547 6.99802734 14 7 C14.0721875 7.64066406 14.144375 8.28132813 14.21875 8.94140625 C14.76107544 13.99557809 15.11048267 18.91779721 15 24 C12.69 24 10.38 24 8 24 C8 18.39 8 12.78 8 7 C5.36 7 2.72 7 0 7 C0 4.69 0 2.38 0 0 Z " fill="#FEFEFE" transform="translate(0,13)"/>
<path d="M0 0 C1.134375 0.020625 2.26875 0.04125 3.4375 0.0625 C2.87437918 5.10094941 0.50092452 8.89013673 -2 13.1875 C-2.40798828 13.90292969 -2.81597656 14.61835938 -3.23632812 15.35546875 C-4.93730296 18.32454391 -6.6630692 21.2133538 -8.5625 24.0625 C-9.2225 24.0625 -9.8825 24.0625 -10.5625 24.0625 C-12.44397109 20.18888305 -12.73023307 18.18770777 -11.5625 14.0625 C-10.45942572 11.78065026 -9.28738278 9.53134503 -8.0625 7.3125 C-7.4334375 6.16265625 -6.804375 5.0128125 -6.15625 3.828125 C-3.99055647 0.07000976 -3.99055647 0.07000976 0 0 Z " fill="#9A00CC" transform="translate(46.5625,12.9375)"/>
<path d="M0 0 C5.875 2.75 5.875 2.75 7 5 C7.04022391 7.3329866 7.04320247 9.66706666 7 12 C4.69 12 2.38 12 0 12 C0 8.04 0 4.08 0 0 Z " fill="#9900CD" transform="translate(8,25)"/>
</svg>
