<?xml version="1.0" encoding="UTF-8"?>
<!-- Generator: https://ezgif.com/png-to-svg -->
<svg version="1.1" xmlns="http://www.w3.org/2000/svg" width="512" height="512" viewBox="24.96 25.414 206.08 206.08" preserveAspectRatio="xMidYMid meet">
<path d="M0 0 C8.25 0 16.5 0 25 0 C32.43 12.95 39.79 25.93 47 39 C47.56 38.01 48.11 37.01 48.69 35.99 C53.75 26.97 58.85 17.97 64 9 C66 10 66 10 66.64 11.71 C66.94 12.82 66.94 12.82 67.25 13.94 C68.72 18.68 70.98 22.51 73.7 26.64 C75.16 29.29 75.85 30.97 76 34 C73.92 40.03 70.63 45.55 67.56 51.12 C67.04 52.07 66.52 53.02 65.99 54 C60.45 64.07 54.75 74.05 49 84 C47.16 83.76 47.16 83.76 45 83 C43.65 81.23 43.65 81.23 42.44 78.9 C41.98 78.03 41.52 77.16 41.04 76.26 C40.55 75.31 40.07 74.36 39.56 73.38 C38.49 71.35 37.42 69.32 36.34 67.29 C35.79 66.25 35.24 65.2 34.67 64.12 C32.07 59.26 29.35 54.47 26.62 49.69 C25.54 47.78 24.46 45.87 23.38 43.96 C22.56 42.52 22.56 42.52 21.72 41.04 C18.65 35.62 15.61 30.18 12.56 24.75 C12 23.74 11.43 22.73 10.84 21.69 C9.22 18.79 7.61 15.9 6 13 C5.42 11.97 4.85 10.95 4.26 9.89 C3.71 8.9 3.16 7.91 2.59 6.89 C2.09 6 1.59 5.11 1.08 4.19 C0 2 0 2 0 0 Z " fill="#FEFEFE" transform="translate(96,86)"/>
<path d="M0 0 C18.81 0 37.62 0 57 0 C67 18 67 18 68 22 C67.5 22.5 67.5 22.5 67 23 C62.05 23 57.1 23 52 23 C52 32.9 52 42.8 52 53 C49 52 49 52 47.5 49.81 C44.9 46.89 42.95 45.8 39.5 44.06 C34.9 41.62 31.96 40.04 30 35 C29.91 32.93 29.89 30.86 29.92 28.79 C29.93 27.71 29.94 26.62 29.95 25.51 C29.97 24.68 29.98 23.85 30 23 C28.69 23.01 28.69 23.01 27.35 23.02 C24.12 23.03 20.89 23.05 17.66 23.05 C16.27 23.06 14.87 23.07 13.47 23.08 C11.46 23.09 9.45 23.09 7.44 23.1 C6.23 23.1 5.02 23.11 3.78 23.11 C1 23 1 23 0 22 C0 14.74 0 7.48 0 0 Z " fill="#FEFEFE" transform="translate(36,86)"/>
<path d="M0 0 C0.98 -0 1.96 -0 2.97 -0 C4.52 0 4.52 0 6.1 0.01 C7.13 0 8.15 0 9.21 -0 C10.69 -0 10.69 -0 12.19 0 C13.54 0 13.54 0 14.93 0 C17.16 0.13 17.16 0.13 19.16 1.13 C18.56 5.36 17.09 8.44 15.02 12.16 C14.7 12.73 14.38 13.3 14.06 13.9 C13.01 15.77 11.96 17.64 10.91 19.51 C10.18 20.82 9.45 22.13 8.72 23.44 C6.54 27.34 4.35 31.24 2.16 35.13 C1.56 36.19 0.97 37.25 0.36 38.34 C-1.76 42.1 -3.89 45.86 -6.02 49.62 C-8.61 54.16 -11.17 58.71 -13.68 63.3 C-14.64 65.06 -15.61 66.82 -16.58 68.58 C-17.81 70.82 -19.04 73.07 -20.26 75.33 C-20.82 76.33 -21.37 77.34 -21.94 78.38 C-22.43 79.27 -22.92 80.17 -23.42 81.09 C-24.84 83.13 -24.84 83.13 -27.84 84.13 C-28.17 83.37 -28.17 83.37 -28.5 82.59 C-30.06 79.02 -31.62 75.53 -33.48 72.11 C-34.31 70.57 -34.31 70.57 -35.15 69.01 C-35.68 68.06 -36.22 67.11 -36.77 66.12 C-38.43 61.5 -37.79 58.23 -35.77 53.77 C-34.35 51.04 -32.86 48.37 -31.34 45.7 C-30.8 44.72 -30.25 43.75 -29.69 42.75 C-28.6 40.78 -27.49 38.82 -26.38 36.86 C-25.04 34.49 -23.71 32.12 -22.39 29.73 C-18.47 22.67 -14.43 15.67 -10.34 8.7 C-9.91 7.95 -9.47 7.21 -9.02 6.45 C-5.23 0.01 -5.23 0.01 0 0 Z " fill="#9804C8" transform="translate(200.83984375,84.8671875)"/>
<path d="M0 0 C2.24 1.02 4.46 2.07 6.69 3.12 C7.31 3.41 7.94 3.69 8.58 3.98 C13.2 6.21 16.1 8.64 19 13 C21.09 19.02 21.28 24.61 21.19 30.94 C21.19 31.8 21.19 32.66 21.19 33.55 C21.14 39.86 21.14 39.86 20 41 C17.04 41.27 14.09 41.47 11.12 41.62 C10.3 41.68 9.47 41.73 8.61 41.78 C7.42 41.85 7.42 41.85 6.2 41.91 C5.46 41.95 4.73 42 3.98 42.04 C2 42 2 42 -1 41 C-1.02 35.32 -1.04 29.64 -1.05 23.97 C-1.06 22.03 -1.07 20.1 -1.08 18.17 C-1.09 15.39 -1.09 12.62 -1.1 9.85 C-1.1 8.98 -1.11 8.11 -1.11 7.21 C-1.11 5.14 -1.06 3.07 -1 1 C-0.67 0.67 -0.34 0.34 0 0 Z " fill="#9704C6" transform="translate(68,130)"/>
<path d="M0 0 C4.45 1.98 4.45 1.98 9 4 C8.67 4.66 8.34 5.32 8 6 C5.03 5.01 2.06 4.02 -1 3 C-0.67 2.01 -0.34 1.02 0 0 Z " fill="#B325DC" transform="translate(68,130)"/>
</svg>
