<?xml version="1.0" encoding="UTF-8"?>
<!-- Generator: https://ezgif.com/png-to-svg -->
<svg version="1.1" xmlns="http://www.w3.org/2000/svg" width="512" height="512" viewBox="81.28 81.28 237.44 237.44" preserveAspectRatio="xMidYMid meet">
<path d="M0 0 C-1.56 5.57 -4.23 10.18 -7.12 15.12 C-8.22 17.01 -9.31 18.9 -10.4 20.79 C-10.98 21.79 -11.57 22.8 -12.17 23.83 C-15.05 28.81 -17.9 33.81 -20.75 38.8 C-22.44 41.78 -24.14 44.75 -25.84 47.73 C-26.54 48.94 -27.23 50.15 -27.92 51.36 C-37.95 68.9 -47.97 86.45 -58 104 C-38.2 104 -18.4 104 2 104 C-0.15 108.3 -2.53 110.27 -6.25 113.06 C-7.53 114.05 -8.81 115.03 -10.09 116.02 C-10.75 116.51 -11.4 117.01 -12.07 117.53 C-14.99 119.76 -17.87 122.04 -20.75 124.31 C-26.92 129.17 -33.12 133.98 -39.32 138.8 C-44.57 142.88 -49.8 146.98 -55.03 151.1 C-58.81 154.08 -62.62 157.01 -66.44 159.94 C-71.18 163.56 -75.85 167.26 -80.5 171 C-85.68 175.16 -90.89 179.26 -96.17 183.29 C-100.03 186.25 -103.87 189.24 -107.69 192.25 C-108.84 193.16 -110 194.07 -111.15 194.97 C-113.22 196.6 -115.28 198.22 -117.34 199.85 C-119.81 201.8 -122.28 203.74 -124.75 205.69 C-125.93 206.62 -125.93 206.62 -127.14 207.58 C-127.87 208.16 -128.6 208.73 -129.36 209.32 C-130.01 209.84 -130.67 210.36 -131.34 210.89 C-133 212 -133 212 -135 212 C-134.38 208.91 -133.38 206.78 -131.61 204.18 C-130.84 203.03 -130.84 203.03 -130.06 201.86 C-129.19 200.6 -129.19 200.6 -128.31 199.31 C-127.02 197.4 -125.73 195.48 -124.43 193.56 C-123.37 191.98 -123.37 191.98 -122.28 190.38 C-118.57 184.88 -114.9 179.36 -111.23 173.85 C-108.91 170.36 -106.59 166.88 -104.27 163.4 C-103.26 161.9 -102.26 160.39 -101.26 158.89 C-92.62 145.94 -83.99 132.98 -75.35 120.03 C-74.81 119.21 -74.27 118.4 -73.71 117.56 C-71.85 114.78 -71.85 114.78 -70 112 C-70.7 112.01 -71.39 112.03 -72.11 112.04 C-78.7 112.18 -85.29 112.32 -91.88 112.44 C-95.27 112.51 -98.66 112.58 -102.04 112.65 C-105.95 112.73 -109.85 112.81 -113.75 112.88 C-114.96 112.91 -116.16 112.93 -117.4 112.96 C-123.39 113.07 -129.08 112.95 -135 112 C-133.44 107.85 -130.4 105.53 -127.06 102.81 C-126.48 102.33 -125.9 101.85 -125.3 101.35 C-123.54 99.89 -121.77 98.45 -120 97 C-119.04 96.21 -118.07 95.41 -117.08 94.6 C-113.51 91.66 -109.92 88.75 -106.33 85.83 C-100.78 81.31 -95.29 76.72 -89.84 72.09 C-85.54 68.44 -81.18 64.87 -76.81 61.31 C-73.68 58.74 -70.59 56.12 -67.5 53.5 C-61.72 48.59 -55.88 43.78 -50 39 C-46.33 36 -42.66 33 -39 30 C-38.36 29.48 -37.73 28.95 -37.07 28.42 C-34.92 26.65 -32.77 24.89 -30.62 23.12 C-29.9 22.53 -29.17 21.93 -28.42 21.31 C-23.87 17.56 -19.36 13.77 -14.88 9.94 C-3.2 0 -3.2 0 0 0 Z " fill="#E6E4E4" transform="translate(266,94)"/>
<path d="M0 0 C-1.56 5.57 -4.23 10.18 -7.12 15.12 C-8.22 17.01 -9.31 18.9 -10.4 20.79 C-10.98 21.79 -11.57 22.8 -12.17 23.83 C-15.05 28.81 -17.9 33.81 -20.75 38.8 C-22.44 41.78 -24.14 44.75 -25.84 47.73 C-26.54 48.94 -27.23 50.15 -27.92 51.36 C-37.95 68.9 -47.97 86.45 -58 104 C-38.2 104 -18.4 104 2 104 C-0.15 108.3 -2.53 110.27 -6.25 113.06 C-7.53 114.05 -8.81 115.03 -10.09 116.02 C-10.75 116.51 -11.4 117.01 -12.07 117.53 C-14.99 119.76 -17.87 122.04 -20.75 124.31 C-26.92 129.17 -33.12 133.98 -39.32 138.8 C-44.57 142.88 -49.8 146.98 -55.03 151.1 C-58.81 154.08 -62.62 157.01 -66.44 159.94 C-71.18 163.56 -75.85 167.26 -80.5 171 C-85.68 175.16 -90.89 179.26 -96.17 183.29 C-100.03 186.25 -103.87 189.24 -107.69 192.25 C-108.84 193.16 -110 194.07 -111.15 194.97 C-113.22 196.6 -115.28 198.22 -117.34 199.85 C-119.81 201.8 -122.28 203.74 -124.75 205.69 C-125.93 206.62 -125.93 206.62 -127.14 207.58 C-127.87 208.16 -128.6 208.73 -129.36 209.32 C-130.01 209.84 -130.67 210.36 -131.34 210.89 C-133 212 -133 212 -135 212 C-134.38 208.91 -133.38 206.78 -131.61 204.18 C-130.84 203.03 -130.84 203.03 -130.06 201.86 C-129.19 200.6 -129.19 200.6 -128.31 199.31 C-127.02 197.4 -125.73 195.48 -124.43 193.56 C-123.37 191.98 -123.37 191.98 -122.28 190.38 C-118.57 184.88 -114.9 179.36 -111.23 173.85 C-108.91 170.36 -106.59 166.88 -104.27 163.4 C-103.26 161.9 -102.26 160.39 -101.26 158.89 C-92.62 145.94 -83.99 132.98 -75.35 120.03 C-74.81 119.21 -74.27 118.4 -73.71 117.56 C-71.85 114.78 -71.85 114.78 -70 112 C-70.7 112.01 -71.39 112.03 -72.11 112.04 C-78.7 112.18 -85.29 112.32 -91.88 112.44 C-95.27 112.51 -98.66 112.58 -102.04 112.65 C-105.95 112.73 -109.85 112.81 -113.75 112.88 C-114.96 112.91 -116.16 112.93 -117.4 112.96 C-123.39 113.07 -129.08 112.95 -135 112 C-133.44 107.85 -130.4 105.53 -127.06 102.81 C-126.48 102.33 -125.9 101.85 -125.3 101.35 C-123.54 99.89 -121.77 98.45 -120 97 C-119.04 96.21 -118.07 95.41 -117.08 94.6 C-113.51 91.66 -109.92 88.75 -106.33 85.83 C-100.78 81.31 -95.29 76.72 -89.84 72.09 C-85.54 68.44 -81.18 64.87 -76.81 61.31 C-73.68 58.74 -70.59 56.12 -67.5 53.5 C-61.72 48.59 -55.88 43.78 -50 39 C-46.33 36 -42.66 33 -39 30 C-38.36 29.48 -37.73 28.95 -37.07 28.42 C-34.92 26.65 -32.77 24.89 -30.62 23.12 C-29.9 22.53 -29.17 21.93 -28.42 21.31 C-23.87 17.56 -19.36 13.77 -14.88 9.94 C-3.2 0 -3.2 0 0 0 Z M-40.56 33.88 C-41.49 34.57 -41.49 34.57 -42.43 35.27 C-43.99 36.46 -45.5 37.73 -47 39 C-47 39.66 -47 40.32 -47 41 C-47.56 41.23 -48.11 41.45 -48.69 41.69 C-51.19 42.97 -51.19 42.97 -53.44 45.44 C-55.86 47.86 -58.03 49.36 -61 51 C-61.99 51.66 -62.98 52.32 -64 53 C-64 53.66 -64 54.32 -64 55 C-64.58 55.27 -65.16 55.54 -65.75 55.81 C-68.06 57.03 -70.02 58.3 -72 60 C-72 60.66 -72 61.32 -72 62 C-72.78 62.25 -73.57 62.5 -74.38 62.75 C-77.32 64.15 -77.9 65.01 -79 68 C-79.99 68 -80.98 68 -82 68 C-82 68.66 -82 69.32 -82 70 C-82.68 70.19 -83.36 70.37 -84.06 70.56 C-87.53 72.26 -89.5 74.4 -92.14 77.16 C-93.88 78.89 -95.64 80.31 -97.62 81.75 C-101.93 84.87 -105.95 88.29 -109.99 91.75 C-114.5 95.6 -119.11 99.33 -123.76 103.03 C-125.86 104.88 -127.42 106.7 -129 109 C-125.04 109.74 -121.3 110.12 -117.27 110.11 C-115.62 110.11 -115.62 110.11 -113.93 110.11 C-112.76 110.11 -111.59 110.1 -110.38 110.1 C-108.56 110.1 -108.56 110.1 -106.71 110.09 C-102.85 110.09 -98.99 110.08 -95.12 110.06 C-92.5 110.06 -89.88 110.05 -87.26 110.05 C-80.84 110.04 -74.42 110.02 -68 110 C-68 113.19 -68.51 114.27 -70 117 C-70.31 117.7 -70.62 118.4 -70.94 119.12 C-72 121 -72 121 -75 123 C-76.06 124.67 -76.06 124.67 -77 126.69 C-80.2 132.71 -84.31 138.01 -88.38 143.45 C-91.97 148.26 -95.2 153.28 -98.38 158.38 C-101.01 162.57 -103.83 166.46 -107.03 170.25 C-108.23 172 -108.23 172 -107.66 174.22 C-107.44 174.81 -107.22 175.4 -107 176 C-107.66 176.33 -108.32 176.66 -109 177 C-110.92 181.44 -112.23 186.23 -113 191 C-109.52 191 -108.95 190.46 -106.31 188.38 C-105.6 187.82 -104.88 187.26 -104.15 186.69 C-103.44 186.13 -102.73 185.57 -102 185 C-100.81 184.12 -99.63 183.25 -98.44 182.38 C-93.77 178.89 -89.26 175.21 -84.73 171.55 C-79.91 167.67 -74.97 164.04 -69.88 160.52 C-69.26 160.02 -68.64 159.52 -68 159 C-68 158.34 -68 157.68 -68 157 C-66.98 156.69 -66.98 156.69 -65.94 156.38 C-62.7 154.86 -60.55 153.02 -57.91 150.66 C-55.25 148.35 -52.39 146.33 -49.5 144.3 C-49.01 143.87 -48.51 143.44 -48 143 C-48 142.34 -48 141.68 -48 141 C-47.45 140.93 -46.91 140.86 -46.35 140.79 C-43.05 139.68 -41.05 137.72 -38.44 135.44 C-33.48 131.16 -28.38 127.31 -22.98 123.59 C-22.33 123.07 -21.67 122.54 -21 122 C-21 121.34 -21 120.68 -21 120 C-20.14 119.84 -20.14 119.84 -19.27 119.68 C-16.63 118.89 -14.94 117.72 -12.75 116.06 C-12.04 115.54 -11.34 115.01 -10.61 114.47 C-10.08 113.99 -9.55 113.5 -9 113 C-9 112.34 -9 111.68 -9 111 C-8.2 110.73 -7.39 110.46 -6.56 110.19 C-5.72 109.8 -4.87 109.4 -4 109 C-3.5 107.51 -3.5 107.51 -3 106 C-22.36 105.89 -41.66 105.93 -61 107 C-57.95 99.69 -54.28 93.1 -50.05 86.41 C-47.27 81.79 -44.96 77.02 -42.61 72.18 C-41.22 69.44 -39.74 66.89 -38.06 64.31 C-35.74 61.23 -35.74 61.23 -36 58 C-35.34 58 -34.68 58 -34 58 C-33.67 56.35 -33.34 54.7 -33 53 C-32.34 53 -31.68 53 -31 53 C-30.3 51.57 -29.62 50.13 -28.94 48.69 C-28.55 47.89 -28.17 47.09 -27.78 46.26 C-26.7 43.88 -26.7 43.88 -28 41 C-29.32 41 -30.64 41 -32 41 C-31.98 39.95 -31.96 38.9 -31.94 37.81 C-31.99 34.67 -32.27 32.03 -33 29 C-35.53 29 -38.53 32.32 -40.56 33.88 Z " fill="#FBFAFA" transform="translate(266,94)"/>
<path d="M0 0 C3.98 3.67 6.68 7.35 9.31 12.06 C9.85 12.98 9.85 12.98 10.4 13.92 C12.32 17.3 13 19.01 13 23 C9.4 23.65 5.79 24.3 2.19 24.94 C1.18 25.12 0.18 25.3 -0.86 25.49 C-7.56 26.68 -14.21 27.5 -21 28 C-21 23.24 -20.19 22.53 -17.19 19 C-15.97 17.57 -15.97 17.57 -14.73 16.1 C-9.95 10.64 -5.13 5.13 0 0 Z " fill="#FAF8F8" transform="translate(257,154)"/>
<path d="M0 0 C-0.88 4.55 -3.55 7.26 -6.56 10.62 C-7.65 11.87 -8.74 13.11 -9.83 14.36 C-10.37 14.97 -10.91 15.59 -11.46 16.22 C-14.76 20.04 -17.88 24.02 -21 28 C-23.58 27.64 -24.71 27.36 -26.37 25.3 C-26.77 24.57 -27.17 23.85 -27.58 23.11 C-28.02 22.31 -28.45 21.52 -28.91 20.71 C-29.57 19.46 -29.57 19.46 -30.25 18.19 C-30.71 17.37 -31.17 16.55 -31.64 15.7 C-35 9.54 -35 9.54 -35 5 C-30.66 4.28 -26.32 3.57 -21.98 2.86 C-20.5 2.62 -19.02 2.38 -17.55 2.14 C-15.42 1.79 -13.3 1.44 -11.17 1.09 C-9.26 0.78 -9.26 0.78 -7.3 0.46 C-4 0 -4 0 0 0 Z " fill="#FCFAFB" transform="translate(165,219)"/>
<path d="M0 0 C-4.56 6.41 -9.64 12.25 -15 18 C-15.54 18.59 -16.09 19.18 -16.64 19.79 C-18 21 -18 21 -20 21 C-19.67 19.35 -19.34 17.7 -19 16 C-18.34 16 -17.68 16 -17 16 C-17 15.34 -17 14.68 -17 14 C-17.99 14.33 -18.98 14.66 -20 15 C-19 12 -19 12 -18 11 C-18.16 10.24 -18.33 9.47 -18.5 8.69 C-19.01 5.95 -18.76 4.61 -18 2 C-11.93 0.77 -6.2 -0.28 0 0 Z " fill="#EAE5E6" transform="translate(162,222)"/>
</svg>
