<?xml version="1.0" encoding="UTF-8"?>
<svg version="1.1" xmlns="http://www.w3.org/2000/svg" width="50" height="50">
<path d="M0 0 C0.99174728 0.00707474 1.98349457 0.01414948 3.0052948 0.0214386 C6.16446217 0.04936692 9.32183957 0.11210405 12.48046875 0.17578125 C14.6256254 0.20086607 16.7708099 0.22367891 18.91601562 0.24414062 C24.16727459 0.29918798 29.41749378 0.38279815 34.66796875 0.48828125 C34.79487695 6.80520141 34.8823646 13.12179219 34.94262695 19.43969727 C34.9677516 21.58825974 35.00185736 23.7367369 35.04516602 25.88500977 C35.10590667 28.97563737 35.13419919 32.06513388 35.15625 35.15625 C35.18205643 36.11476364 35.20786285 37.07327728 35.23445129 38.06083679 C35.23626532 42.38656529 35.05688598 44.8454595 32.78320312 48.60351562 C28.28089419 51.3274831 24.50185437 51.11564644 19.3359375 50.9765625 C18.34419022 50.96948776 17.35244293 50.96241302 16.3306427 50.9551239 C13.17147533 50.92719558 10.01409793 50.86445845 6.85546875 50.80078125 C4.7103121 50.77569643 2.5651276 50.75288359 0.41992188 50.73242188 C-4.83133709 50.67737452 -10.08155628 50.59376435 -15.33203125 50.48828125 C-15.45893945 44.17136109 -15.5464271 37.85477031 -15.60668945 31.53686523 C-15.6318141 29.38830276 -15.66591986 27.2398256 -15.70922852 25.09155273 C-15.76996917 22.00092513 -15.79826169 18.91142862 -15.8203125 15.8203125 C-15.84611893 14.86179886 -15.87192535 13.90328522 -15.89851379 12.91572571 C-15.90032782 8.58999721 -15.72094848 6.131103 -13.44726562 2.37304688 C-8.94495669 -0.3509206 -5.16591687 -0.13908394 0 0 Z M-5.33203125 12.48828125 C-6.74780602 13.67252451 -6.74780602 13.67252451 -6.39453125 17.05078125 C-6.37390625 18.18515625 -6.35328125 19.31953125 -6.33203125 20.48828125 C-5.01203125 20.15828125 -3.69203125 19.82828125 -2.33203125 19.48828125 C-2.61046875 18.31265625 -2.61046875 18.31265625 -2.89453125 17.11328125 C-3.33203125 14.48828125 -3.33203125 14.48828125 -2.33203125 12.48828125 C-3.32203125 12.48828125 -4.31203125 12.48828125 -5.33203125 12.48828125 Z M21.66796875 12.48828125 C21.66796875 15.32795356 22.07064056 17.72563836 22.66796875 20.48828125 C23.65796875 20.48828125 24.64796875 20.48828125 25.66796875 20.48828125 C25.66796875 18.17828125 25.66796875 15.86828125 25.66796875 13.48828125 C24.34796875 13.15828125 23.02796875 12.82828125 21.66796875 12.48828125 Z M-6.33203125 28.48828125 C-5.95695743 31.20756642 -5.48984464 32.33046786 -3.51953125 34.30078125 C-1.44345102 35.67767825 -1.44345102 35.67767825 0.73046875 35.36328125 C3.02340487 34.32776171 4.24639084 33.58323817 5.66796875 31.48828125 C5.42591526 28.1700914 5.42591526 28.1700914 3.66796875 25.48828125 C-0.77552336 25.09330417 -3.02644913 25.43697468 -6.33203125 28.48828125 Z M13.66796875 27.48828125 C13.88171485 30.26698053 14.36900615 32.03983736 15.91796875 34.36328125 C17.67259446 35.73119354 17.67259446 35.73119354 20.16796875 35.36328125 C22.82780312 34.43233922 24.10490268 33.83288035 25.66796875 31.48828125 C25.66327669 29.38596884 25.66327669 29.38596884 24.66796875 27.48828125 C20.77793276 24.89492392 17.1887766 23.9674734 13.66796875 27.48828125 Z M8.66796875 34.48828125 C8.33796875 35.80828125 8.00796875 37.12828125 7.66796875 38.48828125 C8.98796875 38.48828125 10.30796875 38.48828125 11.66796875 38.48828125 C11.33796875 37.16828125 11.00796875 35.84828125 10.66796875 34.48828125 C10.00796875 34.48828125 9.34796875 34.48828125 8.66796875 34.48828125 Z " fill="#E41C2E" transform="translate(15.33203125,-0.48828125)"/>
</svg>
