<?xml version="1.0" encoding="UTF-8"?>
<!-- Generator: https://ezgif.com/png-to-svg -->
<svg version="1.1" xmlns="http://www.w3.org/2000/svg" width="512" height="512" viewBox="73.913 74.038 252.034 252.034" preserveAspectRatio="xMidYMid meet">
<path d="M0 0 C1.23 0 2.46 0.01 3.73 0.01 C7.63 0.03 11.53 0.07 15.43 0.11 C18.09 0.12 20.75 0.13 23.4 0.15 C29.89 0.18 36.38 0.23 42.87 0.29 C42.99 5.22 42.35 8.05 40.12 12.48 C39.46 13.83 38.81 15.18 38.15 16.54 C37.79 17.29 37.42 18.05 37.04 18.83 C34.81 23.52 32.72 28.29 30.62 33.04 C30.13 34.16 29.63 35.27 29.13 36.42 C28.02 38.92 26.91 41.43 25.8 43.94 C24 47.99 22.21 52.04 20.42 56.09 C18.75 59.85 17.09 63.6 15.43 67.36 C14.61 69.2 13.8 71.03 12.99 72.87 C8.28 83.5 3.63 94.15 -0.93 104.84 C-4.12 112.29 -7.38 119.71 -10.69 127.11 C-11.66 129.28 -12.63 131.45 -13.6 133.63 C-14.44 135.52 -15.29 137.4 -16.13 139.29 C-15.41 139.29 -14.68 139.29 -13.94 139.29 C-7.14 139.27 -0.34 139.25 6.45 139.24 C9.95 139.24 13.44 139.23 16.94 139.22 C20.96 139.2 24.97 139.2 28.99 139.2 C30.88 139.19 30.88 139.19 32.8 139.18 C33.96 139.18 35.12 139.18 36.32 139.18 C37.35 139.18 38.37 139.18 39.43 139.17 C41.87 139.29 41.87 139.29 43.87 140.29 C43.27 144.14 42.1 147.15 40.31 150.61 C39.63 151.93 39.63 151.93 38.93 153.28 C38.58 153.95 38.23 154.61 37.87 155.29 C25.47 155.62 13.06 155.87 0.65 156.02 C-5.11 156.09 -10.87 156.19 -16.63 156.35 C-22.2 156.5 -27.77 156.59 -33.34 156.62 C-35.45 156.65 -37.57 156.7 -39.68 156.77 C-57.95 157.4 -57.95 157.4 -65.56 150.44 C-71.12 144.69 -75.06 139.41 -76.13 131.29 C-76.44 130.01 -76.44 130.01 -76.75 128.7 C-78.7 120.62 -77.51 114.44 -74.09 106.87 C-73.77 106.15 -73.45 105.44 -73.13 104.7 C-72.07 102.31 -71.01 99.93 -69.94 97.54 C-68.8 94.96 -67.66 92.38 -66.52 89.8 C-65.7 87.95 -64.89 86.1 -64.07 84.25 C-60.78 76.81 -57.56 69.34 -54.35 61.87 C-53.87 60.73 -53.38 59.6 -52.88 58.43 C-50.95 53.93 -49.02 49.43 -47.09 44.92 C-30.96 7.19 -30.96 7.19 -20.37 2.52 C-13.57 -0.06 -7.21 -0.09 0 0 Z " fill="#FD2FB8" transform="translate(168.12890625,87.70703125)"/>
<path d="M0 0 C12.43 -0.09 24.86 -0.16 37.29 -0.21 C43.06 -0.23 48.84 -0.26 54.61 -0.3 C60.18 -0.35 65.75 -0.37 71.32 -0.38 C73.44 -0.39 75.57 -0.4 77.69 -0.42 C80.67 -0.45 83.64 -0.46 86.62 -0.45 C87.94 -0.48 87.94 -0.48 89.29 -0.5 C93.39 -0.47 95.45 -0.35 98.98 1.91 C100.76 3.76 102.5 5.58 104.12 7.56 C105.53 9.27 106.86 10.87 108.5 12.34 C111.23 15.36 111.75 19.32 112.75 23.19 C113.1 24.43 113.1 24.43 113.46 25.69 C113.67 26.51 113.89 27.33 114.11 28.17 C114.4 29.27 114.4 29.27 114.7 30.4 C115.43 36.77 113.87 42 111.25 47.74 C110.83 48.69 110.83 48.69 110.4 49.65 C109.78 51.01 109.17 52.37 108.54 53.73 C106.83 57.49 105.14 61.25 103.46 65.02 C103.1 65.82 102.74 66.62 102.37 67.44 C98.44 76.2 94.67 85.02 90.91 93.85 C89.01 98.3 87.1 102.75 85.2 107.2 C84.83 108.05 84.47 108.89 84.1 109.77 C83.4 111.41 82.69 113.05 81.99 114.68 C81.35 116.18 80.71 117.67 80.08 119.16 C78.27 123.38 76.45 127.6 74.62 131.81 C74.2 132.8 73.78 133.79 73.35 134.81 C69.75 143.04 65.41 149.33 56.89 152.88 C49.86 155.16 43.35 155.39 35.99 155.29 C34.18 155.29 34.18 155.29 32.34 155.28 C28.52 155.26 24.7 155.23 20.88 155.19 C18.27 155.17 15.67 155.16 13.06 155.15 C6.71 155.11 0.35 155.06 -6 155 C-5.46 149.17 -3.76 144.58 -1.34 139.28 C-0.97 138.44 -0.6 137.6 -0.21 136.74 C0.6 134.93 1.41 133.13 2.22 131.32 C3.52 128.46 4.8 125.59 6.09 122.71 C7.41 119.74 8.74 116.77 10.07 113.81 C14.4 104.13 18.65 94.41 22.88 84.69 C23.58 83.07 24.28 81.46 24.98 79.85 C28.23 72.38 31.48 64.91 34.7 57.43 C35.84 54.78 36.98 52.14 38.12 49.5 C38.39 48.88 38.66 48.26 38.94 47.62 C42.41 39.59 45.95 31.61 49.73 23.71 C50.92 21.17 51.97 18.61 53 16 C52.38 16 51.76 16 51.12 16.01 C44.63 16.03 38.14 16.04 31.65 16.05 C29.23 16.06 26.81 16.07 24.39 16.08 C20.91 16.09 17.42 16.09 13.94 16.1 C12.86 16.1 11.79 16.11 10.68 16.11 C5.02 16.11 -0.4 15.85 -6 15 C-5.4 11.15 -4.23 8.14 -2.44 4.69 C-1.98 3.8 -1.53 2.92 -1.06 2.01 C-0.53 1.02 -0.53 1.02 0 0 Z " fill="#FB31B8" transform="translate(195,157)"/>
<path d="M0 0 C1.23 0 2.46 0.01 3.73 0.01 C7.63 0.03 11.53 0.07 15.43 0.11 C18.09 0.12 20.75 0.13 23.4 0.15 C29.89 0.18 36.38 0.23 42.87 0.29 C42.99 5.22 42.35 8.05 40.12 12.48 C39.46 13.83 38.81 15.18 38.15 16.54 C37.79 17.29 37.42 18.05 37.04 18.83 C34.81 23.52 32.72 28.29 30.62 33.04 C30.13 34.16 29.63 35.27 29.13 36.42 C28.02 38.92 26.91 41.43 25.8 43.94 C24 47.99 22.21 52.04 20.42 56.09 C18.75 59.85 17.09 63.6 15.43 67.36 C14.61 69.2 13.8 71.03 12.99 72.87 C8.28 83.5 3.63 94.15 -0.93 104.84 C-4.12 112.29 -7.38 119.71 -10.69 127.11 C-11.66 129.28 -12.63 131.45 -13.6 133.63 C-14.44 135.52 -15.29 137.4 -16.13 139.29 C-15.41 139.29 -14.68 139.29 -13.94 139.29 C-7.14 139.27 -0.34 139.25 6.45 139.24 C9.95 139.24 13.44 139.23 16.94 139.22 C20.96 139.2 24.97 139.2 28.99 139.2 C30.88 139.19 30.88 139.19 32.8 139.18 C33.96 139.18 35.12 139.18 36.32 139.18 C37.35 139.18 38.37 139.18 39.43 139.17 C41.87 139.29 41.87 139.29 43.87 140.29 C43.27 144.14 42.1 147.15 40.31 150.61 C39.63 151.93 39.63 151.93 38.93 153.28 C38.58 153.95 38.23 154.61 37.87 155.29 C25.47 155.62 13.06 155.87 0.65 156.02 C-5.11 156.09 -10.87 156.19 -16.63 156.35 C-22.2 156.5 -27.77 156.59 -33.34 156.62 C-35.45 156.65 -37.57 156.7 -39.68 156.77 C-57.95 157.4 -57.95 157.4 -65.56 150.44 C-71.12 144.69 -75.06 139.41 -76.13 131.29 C-76.44 130.01 -76.44 130.01 -76.75 128.7 C-78.7 120.62 -77.51 114.44 -74.09 106.87 C-73.77 106.15 -73.45 105.44 -73.13 104.7 C-72.07 102.31 -71.01 99.93 -69.94 97.54 C-68.8 94.96 -67.66 92.38 -66.52 89.8 C-65.7 87.95 -64.89 86.1 -64.07 84.25 C-60.78 76.81 -57.56 69.34 -54.35 61.87 C-53.87 60.73 -53.38 59.6 -52.88 58.43 C-50.95 53.93 -49.02 49.43 -47.09 44.92 C-30.96 7.19 -30.96 7.19 -20.37 2.52 C-13.57 -0.06 -7.21 -0.09 0 0 Z M-19.13 5.29 C-19.13 5.95 -19.13 6.61 -19.13 7.29 C-20.12 6.96 -21.11 6.63 -22.13 6.29 C-23.67 7.67 -23.67 7.67 -25.13 9.29 C-25.13 9.95 -25.13 10.61 -25.13 11.29 C-25.69 11.5 -26.24 11.71 -26.82 11.92 C-32.36 15.21 -35.02 20.38 -37.13 26.29 C-37.29 27.37 -37.46 28.44 -37.63 29.54 C-38.13 32.29 -38.13 32.29 -39.53 33.68 C-41.43 35.59 -42.19 37.31 -43.21 39.79 C-43.59 40.68 -43.96 41.56 -44.34 42.47 C-44.92 43.87 -44.92 43.87 -45.5 45.29 C-46.3 47.2 -47.1 49.12 -47.9 51.03 C-48.28 51.94 -48.67 52.86 -49.06 53.8 C-50.33 56.76 -51.72 59.65 -53.13 62.54 C-54.96 66.49 -55.76 69.98 -55.99 74.32 C-56.14 76.41 -56.57 78.28 -57.13 80.29 C-57.79 80.29 -58.45 80.29 -59.13 80.29 C-60.99 83.43 -61.33 85.67 -61.13 89.29 C-61.79 89.29 -62.45 89.29 -63.13 89.29 C-63.42 90.1 -63.71 90.9 -64 91.73 C-65.13 94.29 -65.13 94.29 -67.13 95.29 C-68.19 97.68 -69.15 100.04 -70.07 102.48 C-70.57 103.81 -71.08 105.14 -71.59 106.46 C-71.97 107.44 -71.97 107.44 -72.35 108.43 C-73.13 110.29 -73.13 110.29 -74.83 113.43 C-78.47 121.45 -74.4 132.23 -72.13 140.29 C-71.47 140.29 -70.81 140.29 -70.13 140.29 C-70.13 140.95 -70.13 141.61 -70.13 142.29 C-69.47 142.29 -68.81 142.29 -68.13 142.29 C-68.13 142.95 -68.13 143.61 -68.13 144.29 C-67.47 144.29 -66.81 144.29 -66.13 144.29 C-65.47 145.61 -64.81 146.93 -64.13 148.29 C-63.47 148.29 -62.81 148.29 -62.13 148.29 C-61.7 149.25 -61.7 149.25 -61.25 150.23 C-60.3 152.45 -60.3 152.45 -58.13 153.29 C-55.14 153.39 -52.17 153.42 -49.18 153.41 C-47.79 153.41 -47.79 153.41 -46.37 153.41 C-43.3 153.41 -40.23 153.4 -37.15 153.39 C-35.03 153.39 -32.9 153.39 -30.77 153.39 C-25.17 153.38 -19.56 153.37 -13.95 153.36 C-8.24 153.35 -2.52 153.35 3.2 153.34 C14.42 153.33 25.65 153.31 36.87 153.29 C36.87 151.64 36.87 149.99 36.87 148.29 C37.53 148.29 38.19 148.29 38.87 148.29 C38.87 146.64 38.87 144.99 38.87 143.29 C20.06 143.29 1.25 143.29 -18.13 143.29 C-17 136.54 -17 136.54 -15.35 132.95 C-15 132.18 -14.65 131.4 -14.29 130.61 C-13.93 129.83 -13.57 129.04 -13.19 128.23 C-8.36 118.21 -8.36 118.21 -7.13 107.29 C-6.47 107.29 -5.81 107.29 -5.13 107.29 C-3.87 104.39 -3.13 102.5 -3.13 99.29 C-2.47 99.29 -1.81 99.29 -1.13 99.29 C-0.91 97.62 -0.91 97.62 -0.69 95.92 C-0.13 92.29 -0.13 92.29 0.87 90.29 C1.53 90.29 2.19 90.29 2.87 90.29 C2.87 88.64 2.87 86.99 2.87 85.29 C3.86 84.96 4.85 84.63 5.87 84.29 C7.35 81.62 7.35 81.62 8.56 78.42 C9 77.35 9.43 76.28 9.88 75.18 C11.03 72.33 11.03 72.33 10.87 69.29 C11.53 69.29 12.19 69.29 12.87 69.29 C12.87 67.64 12.87 65.99 12.87 64.29 C13.53 64.29 14.19 64.29 14.87 64.29 C16.23 61.3 17.56 58.3 18.87 55.29 C19.44 53.98 19.44 53.98 20.03 52.64 C20.39 51.79 20.75 50.93 21.12 50.04 C21.62 48.86 21.62 48.86 22.14 47.65 C22.94 45.08 23 42.97 22.87 40.29 C23.53 40.29 24.19 40.29 24.87 40.29 C25.2 37.65 25.53 35.01 25.87 32.29 C26.53 32.29 27.19 32.29 27.87 32.29 C30.67 26.95 32.87 22.39 32.87 16.29 C33.53 16.29 34.19 16.29 34.87 16.29 C34.87 15.3 34.87 14.31 34.87 13.29 C35.53 13.29 36.19 13.29 36.87 13.29 C36.87 11.31 36.87 9.33 36.87 7.29 C37.53 7.29 38.19 7.29 38.87 7.29 C38.87 5.97 38.87 4.65 38.87 3.29 C32.06 3.24 25.24 3.21 18.43 3.18 C16.12 3.17 13.8 3.16 11.49 3.14 C8.15 3.12 4.81 3.11 1.47 3.1 C0.44 3.09 -0.58 3.08 -1.64 3.07 C-7.78 3.07 -13.18 3.74 -19.13 5.29 Z " fill="#E751BF" transform="translate(168.12890625,87.70703125)"/>
<path d="M0 0 C3.78 1.29 5.79 2.71 8.53 5.57 C15.89 11.4 25.65 9.97 34.57 9.9 C36.57 9.91 38.58 9.92 40.58 9.94 C45.83 9.97 51.09 9.96 56.34 9.94 C61.71 9.93 67.08 9.96 72.45 9.99 C82.96 10.03 93.48 10.03 104 10 C105.06 13.26 105.07 13.83 103.62 17.19 C102 20 102 20 101 21 C98.6 21.12 96.23 21.18 93.82 21.19 C92.7 21.21 92.7 21.21 91.55 21.22 C89.05 21.24 86.54 21.26 84.04 21.27 C83.19 21.28 82.33 21.28 81.45 21.29 C76.91 21.32 72.37 21.34 67.83 21.35 C63.17 21.37 58.5 21.41 53.83 21.46 C50.23 21.5 46.63 21.51 43.02 21.51 C41.3 21.52 39.59 21.54 37.87 21.56 C27.27 21.7 16.57 21.73 8.08 14.33 C6.62 12.75 5.44 11.16 4.25 9.38 C3.83 8.8 3.4 8.23 2.97 7.64 C1 4.9 0 3.44 0 0 Z " fill="#E355B7" transform="translate(94,246)"/>
<path d="M0 0 C1.36 -0.03 2.71 -0.03 4.07 -0.01 C4.81 -0.02 5.55 -0.03 6.32 -0.04 C8.78 -0.06 11.23 -0.05 13.69 -0.03 C15.41 -0.03 17.12 -0.04 18.84 -0.04 C22.44 -0.05 26.05 -0.04 29.65 -0.02 C34.24 0.01 38.83 -0 43.42 -0.03 C46.97 -0.05 50.52 -0.05 54.07 -0.03 C55.76 -0.03 57.45 -0.03 59.14 -0.05 C69.52 -0.1 80.09 -0.01 88.48 7.09 C89.83 8.61 89.83 8.61 91.88 11.7 C92.59 12.72 93.29 13.74 94.02 14.8 C95.4 17.04 96.65 19.25 97.76 21.63 C93.84 21.06 91.81 19.1 88.8 16.63 C80.15 10.79 71.24 11.53 61.12 11.63 C59.14 11.63 57.16 11.62 55.18 11.6 C50.01 11.57 44.85 11.59 39.68 11.62 C34.39 11.64 29.1 11.62 23.81 11.6 C13.46 11.57 3.11 11.59 -7.24 11.63 C-6.03 1.18 -6.03 1.18 0 0 Z " fill="#E346AE" transform="translate(209.24119567871094,132.36508178710938)"/>
<path d="M0 0 C1.07 -0.01 2.14 -0.02 3.25 -0.03 C4.99 -0.03 4.99 -0.03 6.76 -0.03 C8.55 -0.03 8.55 -0.03 10.38 -0.04 C12.92 -0.04 15.45 -0.05 17.98 -0.04 C21.84 -0.04 25.7 -0.06 29.56 -0.09 C32.02 -0.09 34.49 -0.09 36.95 -0.09 C38.1 -0.1 39.24 -0.11 40.43 -0.12 C48.76 -0.07 56.98 0.99 63.75 6.27 C65.35 8.46 66.72 10.52 68.07 12.84 C68.42 13.43 68.78 14.02 69.15 14.62 C71.75 18.98 71.75 18.98 71.75 21.27 C68.14 20.7 66.66 19.38 64.18 16.77 C59.31 12.39 55.36 12.31 49 12.4 C46.73 12.37 44.46 12.35 42.18 12.32 C40.89 12.31 39.59 12.31 38.26 12.31 C32.93 12.28 27.59 12.15 22.26 12.01 C21.26 11.99 20.27 11.96 19.24 11.94 C17.22 11.89 15.19 11.84 13.17 11.79 C8.27 11.67 3.37 11.56 -1.54 11.46 C-2.86 11.43 -2.86 11.43 -4.2 11.4 C-6.22 11.36 -8.23 11.32 -10.25 11.27 C-10.58 10.61 -10.91 9.95 -11.25 9.27 C-8.89 2.68 -7.13 0.03 0 0 Z " fill="#E751B5" transform="translate(223.24658203125,108.725341796875)"/>
<path d="M0 0 C3.21 1.39 4.9 2.96 7.19 5.56 C11.11 8.97 13.9 9.49 19.05 9.68 C20.13 9.73 20.13 9.73 21.24 9.77 C23.83 9.87 26.41 9.94 29 10 C30.03 10.03 31.06 10.05 32.12 10.08 C40.43 10.29 48.75 10.43 57.06 10.56 C59.59 10.61 62.11 10.65 64.63 10.69 C70.76 10.8 76.88 10.9 83 11 C84 14 84 14 82.62 17.12 C81 20 81 20 80 21 C69.61 22.67 58.79 22.19 48.31 22.19 C45.24 22.19 42.18 22.21 39.11 22.22 C37.14 22.23 35.17 22.23 33.2 22.23 C31.85 22.24 31.85 22.24 30.46 22.25 C22.73 22.22 13.93 21.48 8 16 C0 4.99 0 4.99 0 0 Z " fill="#F634C1" transform="translate(105,269)"/>
<path d="M0 0 C0.9 2.47 1.09 3.72 0.3 6.27 C-0.29 7.53 -0.29 7.53 -0.89 8.82 C-1.35 9.81 -1.8 10.8 -2.26 11.82 C-3.03 13.45 -3.03 13.45 -3.81 15.12 C-4.92 17.56 -6.03 20 -7.14 22.44 C-7.59 23.43 -7.59 23.43 -8.05 24.44 C-11.8 32.7 -15.34 41.04 -18.89 49.38 C-20.82 53.91 -22.76 58.43 -24.7 62.96 C-25.07 63.82 -25.44 64.69 -25.83 65.59 C-26.55 67.27 -27.27 68.95 -27.99 70.63 C-28.64 72.15 -29.29 73.67 -29.93 75.19 C-31.74 79.4 -33.55 83.61 -35.38 87.81 C-36.01 89.29 -36.01 89.29 -36.65 90.81 C-40.25 99.04 -44.59 105.33 -53.11 108.88 C-60.14 111.16 -66.65 111.39 -74.01 111.29 C-75.82 111.29 -75.82 111.29 -77.66 111.28 C-81.48 111.26 -85.3 111.23 -89.12 111.19 C-91.73 111.17 -94.33 111.16 -96.94 111.15 C-103.29 111.11 -109.65 111.06 -116 111 C-115.26 104.9 -113.63 100.17 -111.12 94.62 C-110.6 93.4 -110.6 93.4 -110.06 92.14 C-109.71 91.37 -109.37 90.59 -109.01 89.79 C-108.54 88.73 -108.54 88.73 -108.06 87.65 C-107 86 -107 86 -104 85 C-104 86.65 -104 88.3 -104 90 C-104.66 90 -105.32 90 -106 90 C-106.12 90.66 -106.24 91.33 -106.37 92.01 C-106.62 93.34 -106.62 93.34 -106.88 94.69 C-107.04 95.56 -107.2 96.43 -107.37 97.32 C-108 100 -108 100 -110 105 C-105.71 105.33 -101.42 105.66 -97 106 C-97 106.33 -97 106.66 -97 107 C-82.48 107 -67.96 107 -53 107 C-53 106.34 -53 105.68 -53 105 C-51.24 104.02 -49.48 103.05 -47.73 102.07 C-44.4 100.01 -43.42 97.86 -42.06 94.31 C-41.54 92.98 -41.54 92.98 -41.01 91.62 C-40.68 90.75 -40.34 89.89 -40 89 C-37.31 82.16 -37.31 82.16 -35 81 C-32.45 73.77 -32.81 66.59 -33 59 C-32.34 59 -31.68 59 -31 59 C-31 60.98 -31 62.96 -31 65 C-30.34 65 -29.68 65 -29 65 C-28.67 62.69 -28.34 60.38 -28 58 C-27.34 58 -26.68 58 -26 58 C-25.67 57.01 -25.34 56.02 -25 55 C-24.34 55 -23.68 55 -23 55 C-22.8 54.16 -22.59 53.31 -22.38 52.45 C-22.11 51.35 -21.84 50.25 -21.56 49.12 C-21.3 48.03 -21.03 46.94 -20.75 45.82 C-20 43 -20 43 -19 41 C-18.34 41 -17.68 41 -17 41 C-16.91 39.33 -16.91 39.33 -16.81 37.62 C-16.26 32.99 -14.4 29.44 -12.16 25.39 C-10.96 22.92 -10.42 20.71 -10 18 C-9.34 18 -8.68 18 -8 18 C-7.63 17.04 -7.63 17.04 -7.25 16.06 C-5.03 10.62 -2.66 5.24 0 0 Z " fill="#E94AB8" transform="translate(305,201)"/>
<path d="M0 0 C3.37 0.59 4.99 1.72 7.49 4.01 C12.74 8.06 17.73 7.86 24.16 7.8 C25.87 7.83 25.87 7.83 27.62 7.85 C31.25 7.88 34.87 7.88 38.5 7.88 C40.97 7.89 43.44 7.91 45.91 7.94 C51.94 7.99 57.97 8.01 64 8 C64.5 8.99 64.5 8.99 65 10 C64.06 12.36 63.07 14.7 62 17 C55.31 17.13 48.62 17.21 41.93 17.27 C39.66 17.3 37.38 17.33 35.11 17.38 C31.83 17.44 28.56 17.47 25.28 17.49 C24.27 17.51 23.26 17.54 22.22 17.57 C15.57 17.57 11.12 16.37 6 12 C3.91 9.39 3.91 9.39 2.5 6.81 C1.77 5.52 1.77 5.52 1.03 4.21 C0 2 0 2 0 0 Z " fill="#DB4DAB" transform="translate(114,295)"/>
<path d="M0 0 C6.4 -0.1 12.81 -0.17 19.21 -0.22 C21.39 -0.24 23.57 -0.27 25.74 -0.3 C28.88 -0.35 32.02 -0.37 35.16 -0.39 C36.12 -0.41 37.09 -0.43 38.08 -0.45 C44.21 -0.46 48.91 0.43 54 4 C56.09 6.47 56.09 6.47 57.5 9.06 C57.98 9.92 58.47 10.78 58.97 11.66 C60 14 60 14 60 17 C57.49 15.88 55.68 14.73 53.56 12.94 C49.69 10.01 45.86 9.88 41.12 9.79 C39.71 9.76 39.71 9.76 38.27 9.73 C37.27 9.72 36.26 9.7 35.23 9.68 C34.19 9.66 33.16 9.64 32.09 9.62 C28.79 9.56 25.49 9.5 22.19 9.44 C19.95 9.39 17.7 9.35 15.46 9.31 C9.98 9.2 4.49 9.1 -1 9 C-2.08 5.13 -1.95 3.48 0 0 Z " fill="#F33AB7" transform="translate(225,88)"/>
<path d="M0 0 C28.71 0 57.42 0 87 0 C86.67 1.65 86.34 3.3 86 5 C83.05 6.48 80.46 6.07 77.16 6.02 C76.46 6.01 75.76 6 75.03 5.99 C72.71 5.96 70.38 5.92 68.05 5.88 C66.44 5.85 64.83 5.83 63.22 5.81 C58.98 5.74 54.73 5.68 50.49 5.61 C46.16 5.53 41.83 5.47 37.5 5.4 C29 5.28 20.5 5.14 12 5 C12 4.34 12 3.68 12 3 C11.39 3.01 10.77 3.02 10.14 3.04 C9.33 3.04 8.52 3.05 7.69 3.06 C6.49 3.08 6.49 3.08 5.26 3.1 C3 3 3 3 0 2 C0 1.34 0 0.68 0 0 Z " fill="#F731B6" transform="translate(108,259)"/>
<path d="M0 0 C2.91 -0.37 2.91 -0.37 6.68 -0.37 C7.36 -0.38 8.05 -0.38 8.76 -0.38 C11.04 -0.39 13.31 -0.38 15.59 -0.36 C17.18 -0.36 18.77 -0.36 20.36 -0.36 C23.69 -0.36 27.03 -0.35 30.36 -0.34 C34.62 -0.31 38.87 -0.31 43.12 -0.32 C46.4 -0.32 49.69 -0.32 52.97 -0.31 C54.54 -0.3 56.1 -0.3 57.67 -0.3 C65.96 -0.3 73.93 -0.15 82 2 C82.5 3.49 82.5 3.49 83 5 C72.21 5.05 61.43 5.08 50.64 5.1 C45.63 5.11 40.62 5.13 35.61 5.15 C30.78 5.17 25.95 5.18 21.12 5.19 C19.27 5.19 17.43 5.2 15.58 5.21 C13 5.23 10.43 5.23 7.85 5.23 C6.69 5.24 6.69 5.24 5.52 5.25 C0.23 5.23 0.23 5.23 -2 3 C-1.34 2.01 -0.68 1.02 0 0 Z " fill="#FA2FB7" transform="translate(208,136)"/>
<path d="M0 0 C3.21 1.39 4.9 2.96 7.19 5.56 C11.11 8.97 13.9 9.49 19.05 9.68 C20.13 9.73 20.13 9.73 21.24 9.77 C23.83 9.87 26.41 9.94 29 10 C30.03 10.03 31.06 10.05 32.12 10.08 C40.43 10.29 48.75 10.43 57.06 10.56 C59.59 10.61 62.11 10.65 64.63 10.69 C70.76 10.8 76.88 10.9 83 11 C83.5 12.49 83.5 12.49 84 14 C83.01 15.98 82.02 17.96 81 20 C60.54 20 40.08 20 19 20 C19 19.67 19 19.34 19 19 C38.8 19 58.6 19 79 19 C79 17.35 79 15.7 79 14 C78.06 14 78.06 14 77.11 14.01 C70.55 14.03 64 14.04 57.44 14.05 C55 14.06 52.56 14.07 50.12 14.08 C46.6 14.09 43.07 14.09 39.55 14.1 C37.93 14.11 37.93 14.11 36.29 14.11 C29.14 14.11 22.11 13.7 15 13 C15 14.32 15 15.64 15 17 C12.3 17.43 12.3 17.43 9 17 C7.01 14.7 5.62 12.77 4.12 10.19 C3.72 9.54 3.32 8.9 2.91 8.24 C0 3.47 0 3.47 0 0 Z " fill="#DE49B2" transform="translate(105,269)"/>
<path d="M0 0 C7.61 -0.05 15.21 -0.08 22.82 -0.1 C26.35 -0.11 29.88 -0.13 33.42 -0.15 C37.48 -0.18 41.54 -0.19 45.61 -0.2 C46.87 -0.21 48.13 -0.22 49.44 -0.23 C50.62 -0.23 51.8 -0.23 53.02 -0.23 C54.05 -0.23 55.09 -0.24 56.16 -0.24 C59.13 0.01 61.31 0.75 64 2 C64 2.66 64 3.32 64 4 C64.99 4.33 65.98 4.66 67 5 C44.64 5.14 22.34 4.82 0 4 C0 2.68 0 1.36 0 0 Z " fill="#FA30BA" transform="translate(217,113)"/>
<path d="M0 0 C1.39 -0.01 2.79 -0 4.18 0.03 C5.32 0.03 5.32 0.03 6.49 0.03 C9 0.03 11.52 0.07 14.03 0.11 C15.78 0.12 17.52 0.13 19.27 0.13 C23.86 0.15 28.45 0.2 33.04 0.26 C37.73 0.31 42.41 0.33 47.1 0.36 C56.29 0.41 65.48 0.5 74.68 0.6 C74.35 1.26 74.02 1.92 73.68 2.6 C48.27 2.6 22.86 2.6 -3.32 2.6 C-3.65 4.25 -3.98 5.9 -4.32 7.6 C-4.65 8.26 -4.98 8.92 -5.32 9.6 C8.87 9.6 23.06 9.6 37.68 9.6 C38.17 10.59 38.17 10.59 38.68 11.6 C23.5 11.6 8.32 11.6 -7.32 11.6 C-5.56 1.01 -5.56 1.01 0 0 Z " fill="#E966BA" transform="translate(209.3219451904297,132.3987274169922)"/>
<path d="M0 0 C6.4 -0.1 12.81 -0.17 19.21 -0.22 C21.39 -0.24 23.57 -0.27 25.74 -0.3 C28.88 -0.35 32.02 -0.37 35.16 -0.39 C36.12 -0.41 37.09 -0.43 38.08 -0.45 C44.21 -0.46 48.91 0.43 54 4 C56.09 6.47 56.09 6.47 57.5 9.06 C57.98 9.92 58.47 10.78 58.97 11.66 C60 14 60 14 60 17 C57.53 15.9 55.78 14.81 53.74 13 C45.28 6.84 29.24 8.44 19 8 C19 7.67 19 7.34 19 7 C28.57 6.67 38.14 6.34 48 6 C47.5 5.01 47.5 5.01 47 4 C44.24 3.08 42.64 2.88 39.8 2.89 C38.54 2.89 38.54 2.89 37.26 2.89 C36.35 2.89 35.45 2.9 34.52 2.9 C33.59 2.9 32.66 2.91 31.71 2.91 C28.74 2.91 25.78 2.92 22.81 2.94 C20.8 2.94 18.79 2.95 16.78 2.95 C11.86 2.96 6.93 2.98 2 3 C2 4.98 2 6.96 2 9 C0.68 8.67 -0.64 8.34 -2 8 C-1.12 2.25 -1.12 2.25 0 0 Z " fill="#DA59B0" transform="translate(225,88)"/>
<path d="M0 0 C16.5 0 33 0 50 0 C50 1.32 50 2.64 50 4 C35.15 4.33 20.3 4.66 5 5 C5.33 5.66 5.66 6.32 6 7 C1.6 6.5 -0.71 4.91 -4 2 C0.75 2.88 0.75 2.88 3 4 C2.01 2.68 1.02 1.36 0 0 Z " fill="#F634B7" transform="translate(125,305)"/>
<path d="M0 0 C17.49 0.33 34.98 0.66 53 1 C53 1.66 53 2.32 53 3 C35.51 3 18.02 3 0 3 C0 2.01 0 1.02 0 0 Z " fill="#CB51A5" transform="translate(189,309)"/>
<path d="M0 0 C0 1.65 0 3.3 0 5 C-0.99 4.34 -1.98 3.68 -3 3 C-5.32 2.67 -5.32 2.67 -7.93 2.68 C-8.93 2.66 -9.93 2.64 -10.96 2.62 C-12.04 2.61 -13.12 2.6 -14.23 2.59 C-15.34 2.57 -16.44 2.55 -17.58 2.53 C-21.12 2.47 -24.65 2.42 -28.19 2.38 C-30.58 2.34 -32.98 2.3 -35.37 2.26 C-41.25 2.16 -47.12 2.08 -53 2 C-53 1.67 -53 1.34 -53 1 C-45.61 0.86 -38.23 0.72 -30.84 0.57 C-28.32 0.52 -25.81 0.48 -23.29 0.43 C-19.69 0.36 -16.08 0.29 -12.47 0.22 C-10.77 0.19 -10.77 0.19 -9.04 0.15 C-8 0.13 -6.96 0.11 -5.89 0.09 C-4.97 0.07 -4.04 0.06 -3.09 0.04 C-1 0 -1 0 0 0 Z " fill="#CE5FAB" transform="translate(211,88)"/>
<path d="M0 0 C0.66 0 1.32 0 2 0 C2 1.65 2 3.3 2 5 C1.34 5 0.68 5 0 5 C-0.1 5.66 -0.21 6.32 -0.31 7 C-1.19 10.84 -2.57 14.33 -4 18 C-4.66 18 -5.32 18 -6 18 C-6.36 13 -5.34 10.02 -3 5.62 C-2.44 4.57 -1.89 3.51 -1.31 2.41 C-0.88 1.62 -0.45 0.82 0 0 Z " fill="#E24FAD" transform="translate(199,286)"/>
<path d="M0 0 C2.65 3.2 4.94 6.39 7 10 C3.12 9.42 0.82 7.67 -2 5 C-2.81 2.75 -2.81 2.75 -3 1 C-2.01 0.67 -1.02 0.34 0 0 Z " fill="#D25E9F" transform="translate(300,144)"/>
<path d="M0 0 C0.33 0 0.66 0 1 0 C1.12 6.62 1.12 6.62 0 10 C-0.99 10 -1.98 10 -3 10 C-3.33 11.65 -3.66 13.3 -4 15 C-4.66 15 -5.32 15 -6 15 C-4.36 9.77 -2.61 4.85 0 0 Z " fill="#E042AD" transform="translate(119,142)"/>
<path d="M0 0 C1.81 0.19 1.81 0.19 4 1 C7 5.18 7 5.18 7 8 C3.77 7.44 1.98 6.67 0 4 C0 2.68 0 1.36 0 0 Z " fill="#CF6CA2" transform="translate(288,122)"/>
<path d="M0 0 C3.96 0.57 6.67 1.81 10 4 C7 5 7 5 5.18 4.22 C3.45 3.15 1.73 2.07 0 1 C0 0.67 0 0.34 0 0 Z " fill="#EA67BC" transform="translate(121,307)"/>
</svg>
