<?xml version="1.0" encoding="UTF-8"?>
<svg version="1.1" xmlns="http://www.w3.org/2000/svg" width="50" height="50">
<path d="M0 0 C0 0.66 0 1.32 0 2 C-1.53125 3.5078125 -1.53125 3.5078125 -3.5 5.125 C-4.1496875 5.66382813 -4.799375 6.20265625 -5.46875 6.7578125 C-6.22671875 7.37269531 -6.22671875 7.37269531 -7 8 C-5.72620281 10.73806872 -4.34756812 12.96597375 -2.375 15.25 C-1.59125 16.1575 -0.8075 17.065 0 18 C0.66 17.34 1.32 16.68 2 16 C1.154375 15.2575 0.30875 14.515 -0.5625 13.75 C-1.7690625 12.38875 -1.7690625 12.38875 -3 11 C-2.64102213 6.74629949 -0.11454384 4.31499148 2.85595703 1.48388672 C6.67360133 -1.15829525 10.41699145 -1.08399014 14.9375 -0.9375 C16.2682959 -0.91780151 16.2682959 -0.91780151 17.62597656 -0.89770508 C22.89097061 -0.63387016 26.33363222 0.00198 30.25 3.8125 C32.42655461 6.55316165 33 7.45008933 33 11 C31.35 11.66 29.7 12.32 28 13 C27.34644531 12.18144531 26.69289062 11.36289062 26.01953125 10.51953125 C22.06230657 7.21757793 19.64515571 7.39952179 14.6875 7.6875 C13.94693359 7.71005859 13.20636719 7.73261719 12.44335938 7.75585938 C10.62802643 7.8144185 8.81374319 7.90409114 7 8 C7 9.32 7 10.64 7 12 C7.680625 11.2575 7.680625 11.2575 8.375 10.5 C10 9 10 9 12 9 C12.33 11.64 12.66 14.28 13 17 C13.99 17 14.98 17 16 17 C15.34 15.35 14.68 13.7 14 12 C15.25 10.4375 15.25 10.4375 17 9 C20.15747633 9 21.35264841 10.28995536 23.8125 12.3125 C26 15 26 15 25.921875 16.87109375 C24.64647647 19.81639968 22.74719383 21.53789886 20.4375 23.75 C19.61121094 24.54921875 18.78492188 25.3484375 17.93359375 26.171875 C17.29550781 26.77515625 16.65742187 27.3784375 16 28 C14.078125 27.1953125 14.078125 27.1953125 12 26 C10.75 22.875 10.75 22.875 10 20 C7.36 22.64 4.72 25.28 2 28 C-2.85902531 25.57048735 -5.98790236 22.41727709 -9.8125 18.625 C-10.87114258 17.61566406 -10.87114258 17.61566406 -11.95117188 16.5859375 C-12.61310547 15.93109375 -13.27503906 15.27625 -13.95703125 14.6015625 C-14.56522705 14.00682129 -15.17342285 13.41208008 -15.80004883 12.79931641 C-17 11 -17 11 -16.7722168 8.89501953 C-13.6176425 1.15369619 -7.83908311 -1.11986902 0 0 Z " fill="#E3EFF8" transform="translate(17,11)"/>
<path d="M0 0 C1.3307959 0.01969849 1.3307959 0.01969849 2.68847656 0.03979492 C7.95347061 0.30362984 11.39613222 0.93948 15.3125 4.75 C17.48905461 7.49066165 18.0625 8.38758933 18.0625 11.9375 C16.4125 12.5975 14.7625 13.2575 13.0625 13.9375 C12.40765625 13.12023438 11.7528125 12.30296875 11.078125 11.4609375 C7.29779513 8.29760447 4.50666519 8.31766045 -0.1875 8.5625 C-0.9196875 8.57667969 -1.651875 8.59085938 -2.40625 8.60546875 C-5.96983448 8.41502738 -5.96983448 8.41502738 -8.9375 9.9375 C-8.89625 10.906875 -8.855 11.87625 -8.8125 12.875 C-8.85375 13.885625 -8.895 14.89625 -8.9375 15.9375 C-9.9275 16.5975 -10.9175 17.2575 -11.9375 17.9375 C-12.97281726 17.03722412 -13.99044165 16.11656965 -15 15.1875 C-15.56847656 14.67703125 -16.13695312 14.1665625 -16.72265625 13.640625 C-17.9375 11.9375 -17.9375 11.9375 -17.69726562 10.06176758 C-14.74733898 1.81391677 -8.02785696 -0.26014815 0 0 Z " fill="#3CBFE8" transform="translate(31.9375,10.0625)"/>
<path d="M0 0 C3.14397871 0.10841306 4.35151428 1.28902285 6.8125 3.3125 C9 6 9 6 8.921875 7.87109375 C7.64647647 10.81639968 5.74719383 12.53789886 3.4375 14.75 C2.19806641 15.94882812 2.19806641 15.94882812 0.93359375 17.171875 C0.29550781 17.77515625 -0.34257813 18.3784375 -1 19 C-2.91796875 18.21875 -2.91796875 18.21875 -5 17 C-6.3125 13.5 -6.3125 13.5 -7 10 C-6.67 9.34 -6.34 8.68 -6 8 C-4.02 8.495 -4.02 8.495 -2 9 C-2 8.01 -2 7.02 -2 6 C-2 2 -2 2 0 0 Z " fill="#4EBEE8" transform="translate(34,20)"/>
<path d="M0 0 C3.81684226 1.55500981 6.19195732 4.03595495 9 7 C8.01 7.99 7.02 8.98 6 10 C4.125 9.4375 4.125 9.4375 2 8 C0 2.3 0 2.3 0 0 Z " fill="#22A8E2" transform="translate(27,29)"/>
<path d="M0 0 C0 0.66 0 1.32 0 2 C-1.010625 1.855625 -2.02125 1.71125 -3.0625 1.5625 C-8.48862305 2.16540256 -10.68261162 4.8579501 -14 9 C-14.33 9.66 -14.66 10.32 -15 11 C-15.66 11 -16.32 11 -17 11 C-16.23435342 6.67409682 -14.20722309 4.42710526 -11.12109375 1.41796875 C-7.56365077 -0.96021137 -4.10646092 -0.58663727 0 0 Z " fill="#CEE4F2" transform="translate(17,11)"/>
<path d="M0 0 C6.52307692 1.47692308 6.52307692 1.47692308 8.9375 4.125 C9.288125 4.74375 9.63875 5.3625 10 6 C8.68 6.33 7.36 6.66 6 7 C5.67 6.01 5.34 5.02 5 4 C3.68352881 3.30062468 2.34977849 2.63270867 1 2 C0.67 1.34 0.34 0.68 0 0 Z " fill="#3EB8E7" transform="translate(28,28)"/>
<path d="M0 0 C1.65 1.32 3.3 2.64 5 4 C4.67 5.32 4.34 6.64 4 8 C3.01 8 2.02 8 1 8 C0.67 5.36 0.34 2.72 0 0 Z " fill="#47D7F2" transform="translate(37,23)"/>
<path d="M0 0 C0.33 0 0.66 0 1 0 C1 1.98 1 3.96 1 6 C1.66 6.33 2.32 6.66 3 7 C1.68 7.33 0.36 7.66 -1 8 C-1.33 7.01 -1.66 6.02 -2 5 C-2.66 4.67 -3.32 4.34 -4 4 C-3.01 3.67 -2.02 3.34 -1 3 C-0.67 2.01 -0.34 1.02 0 0 Z " fill="#3CC7EC" transform="translate(37,25)"/>
</svg>
