<?xml version="1.0" encoding="UTF-8"?>
<!-- Generator: https://ezgif.com/png-to-svg -->
<svg version="1.1" xmlns="http://www.w3.org/2000/svg" width="119" height="119">
<path d="M0 0 C0.27 0.53 0.54 1.07 0.81 1.62 C5.6 10.73 12.28 18.27 19 26 C18.71 26.72 18.43 27.43 18.13 28.17 C17.05 30.88 15.98 33.59 14.94 36.31 C14.6 37.2 14.25 38.08 13.9 38.99 C11.69 46.38 11.87 53.85 11.94 61.5 C11.94 62.51 11.95 63.53 11.95 64.57 C11.96 67.05 11.98 69.52 12 72 C13.76 70.95 15.51 69.88 17.25 68.81 C18.22 68.22 19.2 67.63 20.2 67.02 C25.2 63.41 29.3 58.26 30.33 52.02 C30.51 49.89 30.62 47.77 30.69 45.62 C30.72 44.89 30.76 44.15 30.79 43.39 C30.87 41.6 30.94 39.8 31 38 C33.86 38.63 36.28 39.52 38.89 40.85 C39.6 41.21 40.31 41.56 41.04 41.93 C41.77 42.3 42.5 42.68 43.25 43.06 C44 43.44 44.74 43.82 45.51 44.21 C47.34 45.13 49.17 46.07 51 47 C50.65 48.91 50.65 48.91 50 51 C47.52 52.42 47.52 52.42 44.38 53.75 C37.21 57.14 32.44 61.38 29.06 68.62 C25.31 80.77 29.1 92.49 33 104 C33.5 105.52 33.5 105.52 34 107.08 C34.65 109.06 35.32 111.03 36 113 C32.37 113 28.74 113 25 113 C24.54 111.48 24.08 109.96 23.61 108.4 C22.99 106.39 22.37 104.38 21.75 102.38 C21.45 101.38 21.15 100.38 20.84 99.35 C19.16 93.96 17.55 89.42 14 85 C13.01 84.5 13.01 84.5 12 84 C12 93.57 12 103.14 12 113 C9.03 113 6.06 113 3 113 C3.01 112.28 3.01 111.56 3.02 110.81 C3.62 61.82 3.62 61.82 0 13 C-0.11 12.12 -0.21 11.24 -0.32 10.34 C-0.54 8.56 -0.77 6.78 -1 5 C-3.72 8.12 -4.47 10.38 -4.91 14.47 C-5.04 15.54 -5.16 16.6 -5.28 17.7 C-5.39 18.81 -5.51 19.92 -5.62 21.06 C-5.75 22.14 -5.87 23.23 -5.99 24.34 C-6.35 27.56 -6.68 30.78 -7 34 C-7.09 34.89 -7.19 35.78 -7.29 36.69 C-8.1 44.82 -8.39 52.96 -8.62 61.12 C-8.65 61.87 -8.67 62.62 -8.69 63.39 C-9.18 79.95 -8.72 96.45 -8 113 C-11.63 113 -15.26 113 -19 113 C-18.93 111.76 -18.86 110.52 -18.78 109.24 C-15.51 69.25 -15.51 69.25 -22.25 30.31 C-23.04 27.65 -23.04 27.65 -23 25 C-20.61 20.7 -17.63 17.24 -14.35 13.6 C-11.61 10.36 -9.55 6.67 -7.38 3.05 C-5.13 -0.29 -4.14 0 0 0 Z " fill="#971211" transform="translate(62,6)"/>
<path d="M0 0 C0.99 0.33 1.98 0.66 3 1 C2.77 3.96 2.54 6.92 2.32 9.89 C2.27 10.52 2.22 11.16 2.18 11.81 C2.05 13.36 1.91 14.91 1.74 16.45 C0.59 28.54 0.89 40.68 0.94 52.81 C0.94 55.16 0.95 57.51 0.95 59.86 C0.96 65.57 0.98 71.29 1 77 C-2.63 77 -6.26 77 -10 77 C-9.57 72 -9.06 67.21 -7.98 62.31 C-6.9 56.99 -6.63 51.86 -6.62 46.44 C-6.6 45.56 -6.58 44.68 -6.55 43.77 C-6.51 35.32 -9.15 28.74 -14.5 22.19 C-15.07 21.48 -15.63 20.77 -16.22 20.04 C-18 17.93 -18 17.93 -20.22 15.93 C-22 14 -22 14 -22 11 C-20.37 10.31 -20.37 10.31 -18.71 9.61 C-17.27 8.99 -15.82 8.37 -14.38 7.75 C-13.66 7.45 -12.95 7.15 -12.21 6.84 C-8.8 5.37 -5.69 3.88 -2.66 1.7 C-1.35 0.86 -1.35 0.86 0 0 Z " fill="#A41212" transform="translate(26,42)"/>
<path d="M0 0 C0.99 0.33 1.98 0.66 3 1 C3 1.66 3 2.32 3 3 C3.66 3 4.32 3 5 3 C10 8.48 10 8.48 10 11 C11.32 11.66 12.64 12.32 14 13 C13.4 16.52 12.45 19.5 11 22.75 C9 27.57 8.41 31.81 8 37 C7.5 37.49 7.5 37.49 7 38 C6.75 41.24 6.81 44.5 6.81 47.75 C6.8 48.66 6.79 49.56 6.78 50.5 C6.77 55.1 6.79 58.84 9 63 C9.72 62.67 10.44 62.34 11.19 62 C14.02 60.99 16.03 60.83 19 61 C19.33 60.01 19.66 59.02 20 58 C20.99 58 21.98 58 23 58 C23.06 61.27 23.09 64.54 23.12 67.81 C23.14 68.74 23.16 69.67 23.18 70.63 C23.18 71.52 23.19 72.41 23.2 73.33 C23.21 74.15 23.22 74.98 23.23 75.82 C23 78 23 78 21 81 C20.34 81 19.68 81 19 81 C19.33 78.03 19.66 75.06 20 72 C19.01 72.99 19.01 72.99 18 74 C15.37 73.62 15.37 73.62 13 73 C13 72.34 13 71.68 13 71 C11.35 70.67 9.7 70.34 8 70 C8 72.64 8 75.28 8 78 C7.34 78 6.68 78 6 78 C6 81.96 6 85.92 6 90 C3.92 85.84 3.78 84.22 3.88 79.71 C3.89 78.47 3.91 77.23 3.93 75.95 C3.94 75.29 3.95 74.64 3.96 73.97 C4.13 64.72 4.23 55.56 3 46.38 C1.93 38.27 1.81 30.24 1.81 22.06 C1.81 20.83 1.81 19.61 1.81 18.34 C1.87 8.78 1.87 8.78 3 5 C2.01 5.33 1.02 5.66 0 6 C0 4.02 0 2.04 0 0 Z " fill="#BA0909" transform="translate(65,18)"/>
<path d="M0 0 C0.66 0 1.32 0 2 0 C2 17.82 2 35.64 2 54 C0.02 54 -1.96 54 -4 54 C-9.41 36.06 -10.2 20.46 -1.75 3.19 C-1.17 2.14 -0.59 1.08 0 0 Z " fill="#931412" transform="translate(117,65)"/>
<path d="M0 0 C0.33 0 0.66 0 1 0 C1.12 7.63 1.12 7.63 0 11 C-0.19 12.76 -0.34 14.53 -0.46 16.3 C-0.54 17.36 -0.62 18.41 -0.7 19.5 C-0.78 20.61 -0.86 21.73 -0.94 22.88 C-1.59 31.67 -2.38 40.33 -4 49 C-4.66 49 -5.32 49 -6 49 C-8.06 38.58 -8.21 28.58 -8 18 C-8.66 18 -9.32 18 -10 18 C-10.33 18.66 -10.66 19.32 -11 20 C-12 19 -12 19 -12.25 16.62 C-11.95 13.51 -11.27 13 -9 11 C-8.67 10.01 -8.34 9.02 -8 8 C-4.56 5 -4.56 5 -2 5 C-1.34 3.35 -0.68 1.7 0 0 Z " fill="#C70606" transform="translate(54,15)"/>
<path d="M0 0 C6.29 6.29 7.4 14.16 7.44 22.75 C7.35 31.21 6.83 41.33 3 49 C2.01 49 1.02 49 0 49 C0 32.83 0 16.66 0 0 Z " fill="#A4100D" transform="translate(0,70)"/>
<path d="M0 0 C0.99 0.33 1.98 0.66 3 1 C2.77 3.96 2.54 6.92 2.32 9.89 C2.27 10.52 2.22 11.16 2.18 11.81 C2.05 13.36 1.91 14.91 1.74 16.45 C0.59 28.54 0.89 40.68 0.94 52.81 C0.94 55.16 0.95 57.51 0.95 59.86 C0.96 65.57 0.98 71.29 1 77 C0.67 77 0.34 77 0 77 C-0.85 66.53 -1.19 56.12 -1.19 45.62 C-1.19 43.2 -1.21 40.78 -1.22 38.36 C-1.31 13.42 -1.31 13.42 2 2 C0.68 2.79 -0.63 3.58 -1.94 4.38 C-2.67 4.82 -3.4 5.26 -4.15 5.71 C-6.14 6.88 -6.14 6.88 -7 9 C-9.27 9.6 -11.55 9.96 -13.87 10.34 C-16.37 10.87 -16.37 10.87 -18 14 C-17.67 14.99 -17.34 15.98 -17 17 C-16.01 17 -15.02 17 -14 17 C-10.82 20.27 -10 21.32 -10 26 C-9.34 26 -8.68 26 -8 26 C-4.62 33.85 -4.54 41.37 -4.61 49.77 C-4.62 52.06 -4.61 54.36 -4.59 56.65 C-4.58 63.93 -4.66 70.35 -8 77 C-8.66 77 -9.32 77 -10 77 C-9.88 75.54 -9.76 74.08 -9.62 72.62 C-9.52 71.41 -9.52 71.41 -9.41 70.16 C-9.06 67.48 -8.56 64.94 -7.98 62.31 C-6.9 56.99 -6.63 51.86 -6.62 46.44 C-6.6 45.56 -6.58 44.68 -6.55 43.77 C-6.51 35.32 -9.15 28.74 -14.5 22.19 C-15.07 21.48 -15.63 20.77 -16.22 20.04 C-18 17.93 -18 17.93 -20.22 15.93 C-22 14 -22 14 -22 11 C-20.37 10.31 -20.37 10.31 -18.71 9.61 C-17.27 8.99 -15.82 8.37 -14.38 7.75 C-13.66 7.45 -12.95 7.15 -12.21 6.84 C-8.8 5.37 -5.69 3.88 -2.66 1.7 C-1.35 0.86 -1.35 0.86 0 0 Z " fill="#8A1617" transform="translate(26,42)"/>
<path d="M0 0 C0.99 0.33 1.98 0.66 3 1 C3 6.61 3 12.22 3 18 C1.35 17.34 -0.3 16.68 -2 16 C-2.33 17.98 -2.66 19.96 -3 22 C-3.99 22 -4.98 22 -6 22 C-6.29 21.26 -6.58 20.52 -6.88 19.75 C-7.82 17.43 -8.85 15.22 -10 13 C-10.99 13 -11.98 13 -13 13 C-13.66 11.68 -14.32 10.36 -15 9 C-13.32 6.96 -12.46 6.08 -9.81 5.63 C-8.23 5.58 -6.64 5.54 -5.06 5.5 C-2.81 5.21 -2.81 5.21 -1.79 3.03 C-1.53 2.36 -1.27 1.69 -1 1 C-0.67 0.67 -0.34 0.34 0 0 Z " fill="#C30607" transform="translate(22,46)"/>
<path d="M0 0 C5.92 0.64 11.33 2.22 17 4 C19.33 4.68 21.66 5.34 24 6 C24 8.64 24 11.28 24 14 C15.69 11.95 5.64 8.85 0 2 C0 1.34 0 0.68 0 0 Z " fill="#A81511" transform="translate(95,33)"/>
<path d="M0 0 C0.66 0.33 1.32 0.66 2 1 C1.88 2.75 1.88 2.75 1 5 C-3.78 8.9 -11.76 14 -18 14 C-18 11.36 -18 8.72 -18 6 C-16.87 5.65 -15.74 5.3 -14.57 4.94 C-13.09 4.48 -11.61 4.02 -10.12 3.56 C-9.38 3.33 -8.63 3.1 -7.86 2.87 C-3.85 1.65 -3.85 1.65 0 0 Z " fill="#A61214" transform="translate(18,32)"/>
<path d="M0 0 C4.03 4.03 4.26 9.8 4.33 15.26 C4.32 16 4.32 16.74 4.31 17.5 C4.31 18.28 4.31 19.05 4.31 19.85 C4.17 27.68 3.54 36.92 0 44 C-0.99 44 -1.98 44 -3 44 C-3.12 40.62 -3.12 40.62 -3 37 C-2.34 36.34 -1.68 35.68 -1 35 C-0.6 33.01 -0.26 31.01 0 29 C0.66 29 1.32 29 2 29 C2.05 26.15 2.09 23.29 2.12 20.44 C2.14 19.64 2.16 18.84 2.18 18.01 C2.22 12.96 1.53 8.87 0 4 C0 2.68 0 1.36 0 0 Z " fill="#7F1819" transform="translate(3,75)"/>
<path d="M0 0 C1.32 0 2.64 0 4 0 C4 0.66 4 1.32 4 2 C5.64 2.22 5.64 2.22 7.31 2.44 C11 3 11 3 14 4 C13 7 13 7 10.75 8.19 C7.99 9 5.85 9.08 3 9 C2.01 9.5 2.01 9.5 1 10 C0.67 6.7 0.34 3.4 0 0 Z " fill="#BC0708" transform="translate(95,49)"/>
<path d="M0 0 C3.22 5.27 3.22 5.27 4 7 C3.67 7.66 3.34 8.32 3 9 C2.34 9 1.68 9 1 9 C0.67 10.32 0.34 11.64 0 13 C-0.33 10.36 -0.66 7.72 -1 5 C-2.32 6.32 -3.64 7.64 -5 9 C-5.33 7.68 -5.66 6.36 -6 5 C-7.65 7.31 -9.3 9.62 -11 12 C-11.33 11.34 -11.66 10.68 -12 10 C-11.05 8.52 -10.09 7.04 -9.12 5.56 C-8.32 4.33 -8.32 4.33 -7.51 3.07 C-5.1 -0.23 -4.22 0 0 0 Z " fill="#690C0B" transform="translate(62,6)"/>
<path d="M0 0 C1.44 -0.03 2.87 -0.05 4.31 -0.06 C5.51 -0.08 5.51 -0.08 6.74 -0.1 C9 0 9 0 12 1 C12 2.32 12 3.64 12 5 C10.56 4.74 9.12 4.47 7.69 4.19 C6.89 4.04 6.09 3.89 5.26 3.73 C2.77 2.92 1.68 1.98 0 0 Z " fill="#C50806" transform="translate(107,39)"/>
<path d="M0 0 C2.31 0.33 4.62 0.66 7 1 C6.01 1.66 5.02 2.32 4 3 C5.32 4.32 6.64 5.64 8 7 C4.66 5.83 2.23 4.81 0 2 C0 1.34 0 0.68 0 0 Z " fill="#761C16" transform="translate(95,33)"/>
<path d="M0 0 C0 1.32 0 2.64 0 4 C-1.32 4.33 -2.64 4.66 -4 5 C-4.66 3.68 -5.32 2.36 -6 1 C-4 0 -4 0 0 0 Z " fill="#420301" transform="translate(62,6)"/>
</svg>
