<?xml version="1.0" encoding="UTF-8"?>
<!-- Generator: https://ezgif.com/png-to-svg -->
<svg version="1.1" xmlns="http://www.w3.org/2000/svg" width="512" height="512" viewBox="-36.628 -141.626 673.097 673.097" preserveAspectRatio="xMidYMid meet">
<path d="M0 0 C2.74 2.05 5.03 4.15 7.29 6.71 C6 9.54 4.66 11.59 2.47 13.78 C1.6 14.65 1.6 14.65 0.71 15.54 C0.07 16.17 -0.56 16.79 -1.22 17.44 C-1.89 18.12 -2.57 18.79 -3.27 19.49 C-5.54 21.76 -7.82 24.02 -10.09 26.28 C-11.72 27.9 -13.35 29.52 -14.98 31.15 C-18.49 34.65 -22 38.14 -25.51 41.64 C-31.08 47.17 -36.64 52.72 -42.2 58.26 C-50 66.04 -57.8 73.82 -65.61 81.6 C-66.1 82.09 -66.6 82.58 -67.11 83.09 C-72.62 88.59 -78.14 94.08 -83.66 99.57 C-85.65 101.56 -87.65 103.54 -89.64 105.53 C-90.13 106.02 -90.63 106.51 -91.13 107.01 C-99.37 115.21 -107.6 123.42 -115.83 131.63 C-121.34 137.13 -126.86 142.63 -132.39 148.12 C-135.84 151.55 -139.29 154.99 -142.73 158.44 C-144.32 160.02 -145.91 161.6 -147.5 163.18 C-176.86 192.27 -198.58 225.71 -199.78 268.21 C-199.66 302.76 -183.55 334.13 -162.71 360.71 C-163.7 361.04 -164.69 361.37 -165.71 361.71 C-166.41 361.07 -167.11 360.43 -167.84 359.77 C-168.78 358.91 -169.73 358.04 -170.71 357.15 C-171.21 356.69 -171.72 356.23 -172.24 355.76 C-175.03 353.22 -177.84 350.73 -180.71 348.28 C-188.71 341.3 -195.95 333.75 -202.54 325.43 C-203.94 323.68 -205.38 321.95 -206.85 320.25 C-219.92 305.04 -230.2 286.92 -237.02 268.09 C-237.25 267.46 -237.48 266.83 -237.72 266.18 C-241.92 253.93 -243.22 242.2 -243.16 229.36 C-243.15 226.91 -243.18 224.48 -243.21 222.03 C-243.28 207.45 -240.62 194.03 -234.96 180.53 C-234.62 179.69 -234.27 178.85 -233.91 177.99 C-226.7 160.91 -216.02 146 -203.36 132.54 C-201.64 130.8 -201.64 130.8 -200.71 128.71 C-200.05 128.71 -199.39 128.71 -198.71 128.71 C-198.36 127.88 -198.36 127.88 -198.01 127.03 C-196.36 124.09 -194.3 122.04 -191.91 119.65 C-191.42 119.15 -190.93 118.66 -190.42 118.14 C-188.77 116.48 -187.12 114.83 -185.46 113.17 C-184.27 111.98 -183.09 110.79 -181.91 109.6 C-178.69 106.36 -175.46 103.13 -172.24 99.9 C-170.22 97.88 -168.2 95.86 -166.18 93.84 C-159.14 86.78 -152.09 79.72 -145.04 72.67 C-138.48 66.12 -131.93 59.55 -125.39 52.97 C-119.76 47.32 -114.13 41.67 -108.49 36.03 C-105.12 32.67 -101.76 29.3 -98.41 25.93 C-95.25 22.75 -92.08 19.58 -88.9 16.41 C-87.74 15.26 -86.59 14.1 -85.44 12.94 C-61.78 -10.95 -29.59 -19.94 0 0 Z " fill="#EF345D" transform="translate(242.7109375,10.28515625)"/>
<path d="M0 0 C5.06 1.51 8.1 4.55 11.81 8.12 C12.78 9.05 12.78 9.05 13.77 9.99 C15.86 11.98 17.93 13.99 20 16 C21.05 17.01 21.05 17.01 22.11 18.05 C39.15 34.61 54.02 52.82 65 74 C65.34 74.65 65.68 75.31 66.03 75.98 C75.68 94.83 80.41 113.56 80.31 134.81 C80.31 135.81 80.31 135.81 80.31 136.82 C80.25 146.6 79.85 155.59 77 165 C76.7 166.03 76.7 166.03 76.4 167.09 C66.58 200.76 44.72 225.38 20.45 249.75 C19.24 250.96 18.04 252.17 16.83 253.38 C12.93 257.31 9.03 261.23 5.12 265.15 C3.77 266.51 2.41 267.87 1.06 269.23 C-4.58 274.89 -10.22 280.55 -15.87 286.21 C-23.91 294.26 -31.94 302.33 -39.96 310.41 C-45.63 316.12 -51.31 321.82 -57 327.51 C-60.38 330.9 -63.76 334.29 -67.13 337.69 C-70.3 340.89 -73.48 344.08 -76.67 347.25 C-77.83 348.41 -78.99 349.58 -80.14 350.75 C-93.89 364.7 -107.64 372.32 -127.44 372.5 C-144.62 372.36 -157.21 367.68 -170 356 C-169.12 351.24 -166.12 348.71 -162.78 345.42 C-162.12 344.76 -161.46 344.1 -160.78 343.42 C-158.57 341.21 -156.35 339.01 -154.13 336.8 C-152.54 335.22 -150.96 333.64 -149.37 332.05 C-145.95 328.64 -142.53 325.23 -139.11 321.82 C-133.69 316.43 -128.28 311.03 -122.87 305.63 C-115.28 298.06 -107.69 290.49 -100.1 282.92 C-92.29 275.15 -84.49 267.38 -76.69 259.6 C-76.21 259.12 -75.73 258.64 -75.23 258.15 C-67.22 250.16 -59.21 242.17 -51.2 234.17 C-45.83 228.81 -40.45 223.45 -35.07 218.09 C-31.71 214.75 -28.36 211.41 -25.01 208.07 C-23.46 206.52 -21.91 204.98 -20.36 203.43 C-18.23 201.32 -16.11 199.2 -13.99 197.09 C-13.38 196.48 -12.77 195.88 -12.14 195.25 C-7.89 191 -3.91 186.56 0 182 C0.52 181.4 1.04 180.79 1.58 180.17 C24.36 153.65 38.15 120.28 36 85 C34.86 72.89 32.1 61.42 28 50 C27.64 49 27.29 48 26.92 46.97 C20.83 31.29 11.61 16.89 1.21 3.74 C0 2 0 2 0 0 Z " fill="#EF345D" transform="translate(520,27)"/>
<path d="M0 0 C5.08 3.94 9.87 8.2 14.62 12.52 C15.2 13.04 15.77 13.55 16.36 14.08 C18.9 16.42 20.45 17.88 21.56 21.21 C22.22 21.21 22.88 21.21 23.56 21.21 C37.56 36.42 37.56 36.42 37.56 41.21 C34.09 39.91 31.07 38.38 27.94 36.39 C10.57 25.9 -8.42 21.02 -28.44 25.71 C-40.93 28.98 -52.23 35.42 -62.44 43.21 C-63.16 43.75 -63.88 44.3 -64.63 44.86 C-72.05 50.61 -78.56 57.08 -85.15 63.74 C-86.39 64.99 -87.64 66.24 -88.88 67.49 C-91.55 70.16 -94.21 72.84 -96.86 75.51 C-101.07 79.76 -105.29 83.99 -109.51 88.22 C-119.99 98.74 -130.46 109.26 -140.93 119.79 C-149.07 127.98 -157.22 136.17 -165.37 144.34 C-169.56 148.54 -173.74 152.75 -177.92 156.96 C-180.53 159.59 -183.14 162.21 -185.76 164.83 C-186.96 166.04 -188.16 167.24 -189.36 168.46 C-206.8 186.11 -206.8 186.11 -218.31 190.14 C-219.36 190.52 -220.41 190.91 -221.49 191.3 C-237.77 196.33 -255.4 193.98 -270.31 186.33 C-274.84 183.73 -278.62 180.77 -282.44 177.21 C-282.13 171.77 -279 169.22 -275.33 165.61 C-274.69 164.96 -274.04 164.31 -273.38 163.64 C-271.21 161.46 -269.03 159.3 -266.85 157.14 C-265.3 155.58 -263.74 154.02 -262.19 152.46 C-257.97 148.23 -253.73 144.01 -249.5 139.8 C-245.07 135.39 -240.66 130.97 -236.24 126.55 C-228.82 119.14 -221.4 111.73 -213.97 104.32 C-206.32 96.7 -198.67 89.07 -191.04 81.44 C-190.33 80.73 -190.33 80.73 -189.61 80.01 C-188.91 79.31 -188.91 79.31 -188.19 78.59 C-179.94 70.34 -171.69 62.1 -163.43 53.86 C-159.91 50.34 -156.4 46.83 -152.88 43.32 C-148.74 39.18 -144.6 35.05 -140.46 30.93 C-138.93 29.41 -137.41 27.89 -135.89 26.37 C-133.82 24.3 -131.75 22.23 -129.67 20.17 C-129.06 19.56 -128.45 18.95 -127.83 18.32 C-123.67 14.21 -123.67 14.21 -121.44 14.21 C-121.44 13.55 -121.44 12.89 -121.44 12.21 C-118.98 9.66 -116.16 7.47 -113.44 5.21 C-112.58 4.48 -111.73 3.75 -110.84 2.99 C-75.68 -26.56 -36.56 -26.89 0 0 Z " fill="#EF345D" transform="translate(449.4375,22.79296875)"/>
<path d="M0 0 C0.89 0.36 1.78 0.72 2.69 1.1 C9.11 3.99 13.98 8.11 19 13 C17.71 15.82 16.37 17.88 14.18 20.07 C13.6 20.66 13.03 21.24 12.43 21.84 C11.8 22.47 11.16 23.1 10.51 23.75 C9.83 24.43 9.16 25.11 8.46 25.81 C6.2 28.09 3.92 30.36 1.65 32.63 C0.02 34.25 -1.6 35.88 -3.22 37.51 C-7.64 41.95 -12.07 46.37 -16.5 50.8 C-20.2 54.5 -23.89 58.2 -27.59 61.9 C-36.82 71.14 -46.05 80.37 -55.29 89.6 C-63.29 97.6 -71.28 105.6 -79.27 113.61 C-87.48 121.84 -95.7 130.07 -103.93 138.29 C-108.54 142.9 -113.15 147.52 -117.76 152.14 C-122.1 156.49 -126.44 160.83 -130.8 165.17 C-132.39 166.76 -133.97 168.35 -135.56 169.94 C-156 190.49 -179.23 209.74 -209.62 210.38 C-236.04 210.3 -259.16 195.49 -277.41 177.55 C-279.04 175.96 -280.69 174.4 -282.34 172.84 C-289.97 165.56 -296.17 157.78 -302 149 C-301.01 148.67 -300.02 148.34 -299 148 C-297.08 149.19 -297.08 149.19 -294.81 151 C-279.29 162.31 -259.97 167.28 -240.94 164.72 C-227.02 162.35 -214.68 155.95 -203.31 147.75 C-202.77 147.36 -202.22 146.96 -201.66 146.56 C-190.38 138.04 -180.45 127.59 -170.53 117.57 C-169.35 116.37 -168.17 115.18 -166.98 113.99 C-164.46 111.46 -161.95 108.92 -159.43 106.38 C-155.44 102.36 -151.44 98.34 -147.44 94.33 C-146.07 92.94 -144.69 91.56 -143.31 90.18 C-142.28 89.14 -142.28 89.14 -141.23 88.08 C-131.94 78.75 -122.66 69.42 -113.39 60.07 C-107.11 53.73 -100.82 47.4 -94.52 41.09 C-91.19 37.76 -87.88 34.42 -84.57 31.07 C-81.46 27.93 -78.34 24.79 -75.21 21.67 C-74.08 20.53 -72.94 19.38 -71.81 18.23 C-52.59 -1.33 -26.7 -11.42 0 0 Z " fill="#EF345D" transform="translate(414,187)"/>
</svg>
