<?xml version="1.0" encoding="UTF-8"?>
<svg version="1.1" xmlns="http://www.w3.org/2000/svg" width="50" height="50">
<path d="M0 0 C5.87924528 4.33207547 5.87924528 4.33207547 7 8 C7.61033636 12.06890906 7.95317009 14.50505846 5.71484375 18.015625 C3.89851562 20.11743523 1.98269444 22.05471489 0 24 C-0.68320312 24.7528125 -1.36640625 25.505625 -2.0703125 26.28125 C-7.31564125 31.94540728 -7.31564125 31.94540728 -10.7421875 32.21875 C-11.48726562 32.1465625 -12.23234375 32.074375 -13 32 C-13 28 -13 28 -10.48046875 25.23046875 C-8.84856755 23.69421011 -7.19039428 22.19012156 -5.52929688 20.68554688 C-1.68735622 17.06713731 0.42251227 14.08043843 2 9 C1.95808925 6.37637842 1.95808925 6.37637842 1.1875 4.0625 C0.97480469 3.29035156 0.76210938 2.51820312 0.54296875 1.72265625 C0.27419922 0.86994141 0.27419922 0.86994141 0 0 Z " fill="#F0345D" transform="translate(43,10)"/>
<path d="M0 0 C0 4 0 4 -2.51953125 6.76953125 C-4.15143245 8.30578989 -5.80960572 9.80987844 -7.47070312 11.31445312 C-11.31264378 14.93286269 -13.42251227 17.91956157 -15 23 C-14.95808925 25.62362158 -14.95808925 25.62362158 -14.1875 27.9375 C-13.97480469 28.70964844 -13.76210937 29.48179688 -13.54296875 30.27734375 C-13.36378906 30.84582031 -13.18460938 31.41429688 -13 32 C-18.87924528 27.66792453 -18.87924528 27.66792453 -20 24 C-20.61033636 19.93109094 -20.95317009 17.49494154 -18.71484375 13.984375 C-16.89851562 11.88256477 -14.98269444 9.94528511 -13 8 C-11.97519531 6.87078125 -11.97519531 6.87078125 -10.9296875 5.71875 C-5.16994633 -0.50089445 -5.16994633 -0.50089445 0 0 Z " fill="#EF345E" transform="translate(20,8)"/>
<path d="M0 0 C1.051875 0.185625 1.051875 0.185625 2.125 0.375 C2.125 5.43634417 0.81678375 6.22494212 -2.55859375 9.65429688 C-3.51958984 10.59885742 -3.51958984 10.59885742 -4.5 11.5625 C-5.11746094 12.20380859 -5.73492188 12.84511719 -6.37109375 13.50585938 C-9.24535554 16.37104455 -11.21121243 18.16277945 -15.125 19.4140625 C-19.00901681 19.35889181 -20.94424047 17.81729961 -23.875 15.375 C-23.875 14.715 -23.875 14.055 -23.875 13.375 C-22.885 13.519375 -21.895 13.66375 -20.875 13.8125 C-16.26581714 13.82181148 -14.00365409 11.3790669 -10.7890625 8.33203125 C-9.57968946 7.09550902 -8.3847879 5.84451226 -7.2109375 4.57421875 C-3.36141048 0.43844484 -3.36141048 0.43844484 0 0 Z " fill="#EF345F" transform="translate(32.875,22.625)"/>
<path d="M0 0 C2.375 1.4375 2.375 1.4375 4 3 C4 3.66 4 4.32 4 5 C3.01 4.855625 2.02 4.71125 1 4.5625 C-3.60918286 4.55318852 -5.87134591 6.9959331 -9.0859375 10.04296875 C-10.29531054 11.27949098 -11.4902121 12.53048774 -12.6640625 13.80078125 C-16.51358952 17.93655516 -16.51358952 17.93655516 -19.875 18.375 C-20.57625 18.25125 -21.2775 18.1275 -22 18 C-22 14 -22 14 -20.74658203 12.27661133 C-19.88589111 11.43779419 -19.88589111 11.43779419 -19.0078125 10.58203125 C-18.38519531 9.96779297 -17.76257813 9.35355469 -17.12109375 8.72070312 C-16.46238281 8.09099609 -15.80367187 7.46128906 -15.125 6.8125 C-14.47402344 6.17119141 -13.82304687 5.52988281 -13.15234375 4.86914062 C-6.55382533 -1.57291808 -6.55382533 -1.57291808 0 0 Z " fill="#F0345F" transform="translate(37,9)"/>
</svg>
