<?xml version="1.0" encoding="UTF-8"?>
<!-- Generator: https://ezgif.com/webp-to-svg -->
<svg version="1.1" xmlns="http://www.w3.org/2000/svg" width="50" height="50">
<path d="M0 0 C8.6 2.87 13.08 9.17 17 17 C17.8 25.72 18.18 33.51 12.93 40.94 C7.89 46.32 2.03 50.08 -5.36 50.39 C-13.58 50.56 -19.71 49.88 -26 44 C-32.57 35.95 -33.91 29.16 -33.26 18.99 C-32.48 13.05 -29.19 8.79 -24.67 5.1 C-16.76 -0.34 -9.46 -1.24 0 0 Z " fill="#DEE1E5" transform="translate(33,0)"/>
<path d="M0 0 C8.6 2.87 13.08 9.17 17 17 C17.8 25.72 18.18 33.51 12.93 40.94 C7.89 46.32 2.03 50.08 -5.36 50.39 C-13.58 50.56 -19.71 49.88 -26 44 C-32.57 35.95 -33.91 29.16 -33.26 18.99 C-32.48 13.05 -29.19 8.79 -24.67 5.1 C-16.76 -0.34 -9.46 -1.24 0 0 Z M-20 8 C-20.33 8.66 -20.66 9.32 -21 10 C-21.99 9.67 -22.98 9.34 -24 9 C-24.23 11.12 -24.23 11.12 -22.5 12.62 C-21.76 13.31 -21.76 13.31 -21 14 C-23.48 13.01 -23.48 13.01 -26 12 C-24.64 14.04 -24.64 14.04 -23 16 C-22.34 16 -21.68 16 -21 16 C-21.33 16.72 -21.66 17.44 -22 18.19 C-23.01 21.02 -23.17 23.03 -23 26 C-23.66 26 -24.32 26 -25 26 C-24.5 21.55 -24.5 21.55 -24 17 C-24.99 17 -25.98 17 -27 17 C-27.05 17.63 -27.1 18.25 -27.15 18.9 C-27.22 19.72 -27.3 20.53 -27.38 21.38 C-27.44 22.19 -27.51 23 -27.59 23.84 C-28 26 -28 26 -30 28 C-30 24.37 -30 20.74 -30 17 C-32.3 18.88 -32.3 18.88 -32.27 21.93 C-32.26 23.09 -32.26 24.25 -32.25 25.44 C-32.26 26.59 -32.26 27.74 -32.27 28.93 C-32.23 32.17 -32.23 32.17 -30 35 C-30 33.35 -30 31.7 -30 30 C-29.01 30 -28.02 30 -27 30 C-27.33 31.32 -27.66 32.64 -28 34 C-27.34 34 -26.68 34 -26 34 C-25.67 35.65 -25.34 37.3 -25 39 C-24.34 39 -23.68 39 -23 39 C-22.75 39.62 -22.51 40.24 -22.25 40.88 C-20.75 43.42 -19.69 43.89 -17 45 C-15.67 45.67 -14.33 46.33 -13 47 C-14.48 47.49 -14.48 47.49 -16 48 C-13.36 49.32 -11.32 49.1 -8.38 49.06 C-7.37 49.05 -6.37 49.04 -5.34 49.04 C-4.57 49.02 -3.79 49.01 -3 49 C-3 48.67 -3 48.34 -3 48 C-5.64 47.67 -8.28 47.34 -11 47 C-11 45.68 -11 44.36 -11 43 C-10.34 43 -9.68 43 -9 43 C-8.67 43.99 -8.34 44.98 -8 46 C-8.49 43.53 -8.49 43.53 -9 41 C-11.97 40.01 -14.94 39.02 -18 38 C-18 37.34 -18 36.68 -18 36 C-17.55 36.47 -17.09 36.95 -16.62 37.44 C-14.22 39.75 -13.28 39.99 -9.88 40.06 C-8.45 40.03 -8.45 40.03 -7 40 C-6.67 41.98 -6.34 43.96 -6 46 C-4.52 45.51 -4.52 45.51 -3 45 C-3.66 45 -4.32 45 -5 45 C-3.52 40.32 -3.52 40.32 -0.88 38.69 C-0.26 38.46 0.36 38.23 1 38 C1 37.34 1 36.68 1 36 C1.99 35.67 2.98 35.34 4 35 C5.23 31.99 5.23 31.99 6 29 C6.49 29.99 6.49 29.99 7 31 C6.51 31.78 6.01 32.57 5.5 33.38 C3.74 35.84 3.74 35.84 4.31 38.31 C4.54 38.87 4.77 39.43 5 40 C6.98 39.51 6.98 39.51 9 39 C9 38.01 9 37.02 9 36 C9.66 36 10.32 36 11 36 C11.59 34.05 11.59 34.05 12 32 C11.67 31.67 11.34 31.34 11 31 C11.66 30.67 12.32 30.34 13 30 C13 29.34 13 28.68 13 28 C11.02 27.67 9.04 27.34 7 27 C7 24.69 7 22.38 7 20 C7.66 20 8.32 20 9 20 C9.49 22.48 9.49 22.48 10 25 C10.66 24.34 11.32 23.68 12 23 C11.68 19.9 11.68 19.9 11 17 C9.68 16.67 8.36 16.34 7 16 C7 16.66 7 17.32 7 18 C6.39 17.51 5.77 17.01 5.14 16.5 C4.33 15.86 3.52 15.22 2.69 14.56 C1.89 13.92 1.09 13.29 0.26 12.63 C-2.92 10.34 -5.37 9.87 -9.19 9.94 C-10.45 9.96 -11.7 9.98 -13 10 C-11.35 9.67 -9.7 9.34 -8 9 C-8 7.35 -8 5.7 -8 4 C-12.41 4 -16.19 5.82 -20 8 Z " fill="#6D7A96" transform="translate(33,0)"/>
<path d="M0 0 C0.66 0.33 1.32 0.66 2 1 C1.67 3.97 1.34 6.94 1 10 C1.66 10 2.32 10 3 10 C3 8.35 3 6.7 3 5 C3.33 6.32 3.66 7.64 4 9 C5.65 9 7.3 9 9 9 C9.62 10.88 9.62 10.88 10 13 C9.34 13.66 8.68 14.32 8 15 C7.67 13.35 7.34 11.7 7 10 C6.01 10 5.02 10 4 10 C4.66 12.31 5.32 14.62 6 17 C6.99 16.67 7.98 16.34 9 16 C9.99 16 10.98 16 12 16 C12.33 15.01 12.66 14.02 13 13 C16 15 16 15 16.69 18.12 C16.79 19.07 16.89 20.02 17 21 C14.69 20.67 12.38 20.34 10 20 C9.67 20.66 9.34 21.32 9 22 C8.34 21.34 7.68 20.68 7 20 C9.24 23.36 9.93 23.58 13.62 24.69 C14.44 24.94 15.26 25.19 16.1 25.45 C16.73 25.63 17.35 25.81 18 26 C17.67 27.32 17.34 28.64 17 30 C17 29.01 17 28.02 17 27 C16.34 27 15.68 27 15 27 C15 28.32 15 29.64 15 31 C17.64 31.33 20.28 31.66 23 32 C23 32.33 23 32.66 23 33 C21.21 33.05 19.42 33.09 17.62 33.12 C16.63 33.15 15.63 33.17 14.6 33.2 C12 33 12 33 10 31 C10.99 31 11.98 31 13 31 C12.28 30.57 11.56 30.13 10.81 29.69 C9.88 29.13 8.96 28.57 8 28 C7.09 27.48 6.19 26.97 5.25 26.44 C3 25 3 25 2 23 C1.34 22.67 0.68 22.34 0 22 C0 20.68 0 19.36 0 18 C-0.66 18 -1.32 18 -2 18 C-1.67 16.68 -1.34 15.36 -1 14 C-1.99 14 -2.98 14 -4 14 C-4 15.65 -4 17.3 -4 19 C-6.39 15.42 -6.27 13.69 -6.25 9.44 C-6.26 8.28 -6.26 7.12 -6.27 5.93 C-6 3 -6 3 -4 1 C-4 4.63 -4 8.26 -4 12 C-1.6 9.6 -1.69 8.73 -1.44 5.44 C-1.1 1.1 -1.1 1.1 0 0 Z " fill="#7887A0" transform="translate(7,16)"/>
<path d="M0 0 C0.66 0.33 1.32 0.66 2 1 C1.69 1.91 1.38 2.82 1.06 3.75 C0.27 6.17 -0.43 8.53 -1 11 C-0.01 11 0.98 11 2 11 C1.51 9.02 1.51 9.02 1 7 C2.32 7.33 3.64 7.66 5 8 C5 7.34 5 6.68 5 6 C5.66 6.33 6.32 6.66 7 7 C3 13.57 3 13.57 -1 15 C-1.66 14.01 -2.32 13.02 -3 12 C-4.65 12.33 -6.3 12.66 -8 13 C-8 14.32 -8 15.64 -8 17 C-7.34 16.01 -6.68 15.02 -6 14 C-4.68 14.99 -3.36 15.98 -2 17 C-3.98 17.99 -3.98 17.99 -6 19 C-5.34 19.66 -4.68 20.32 -4 21 C-8.95 23.48 -16.58 22.73 -22 22 C-28.8 19.61 -33.74 15.4 -37 9 C-36.81 5.06 -36.81 5.06 -36 2 C-35.01 2 -34.02 2 -33 2 C-33.33 3.32 -33.66 4.64 -34 6 C-33.34 6 -32.68 6 -32 6 C-31.71 6.64 -31.42 7.28 -31.12 7.94 C-30.17 10.15 -30.17 10.15 -28 11 C-27.67 11.99 -27.34 12.98 -27 14 C-26.01 14 -25.02 14 -24 14 C-21.81 16 -21.81 16 -20 18 C-19.67 17.34 -19.34 16.68 -19 16 C-19.33 17.32 -19.66 18.64 -20 20 C-19.34 19.67 -18.68 19.34 -18 19 C-17.84 18.34 -17.67 17.68 -17.5 17 C-17.34 16.34 -17.17 15.68 -17 15 C-16.34 14.67 -15.68 14.34 -15 14 C-15.63 13.83 -16.25 13.66 -16.9 13.48 C-17.72 13.24 -18.53 13 -19.38 12.75 C-20.59 12.4 -20.59 12.4 -21.84 12.05 C-24.46 10.78 -24.99 9.68 -26 7 C-25.01 7 -24.02 7 -23 7 C-23 7.99 -23 8.98 -23 10 C-19.7 10.66 -16.4 11.32 -13 12 C-12.67 13.98 -12.34 15.96 -12 18 C-11.92 17.24 -11.84 16.47 -11.75 15.69 C-10.85 12.45 -9.86 11.65 -7 10 C-6.34 10 -5.68 10 -5 10 C-5 9.34 -5 8.68 -5 8 C-4.34 7.67 -3.68 7.34 -3 7 C-1.95 4.69 -0.94 2.36 0 0 Z " fill="#2C4472" transform="translate(39,28)"/>
<path d="M0 0 C0.66 1.32 1.32 2.64 2 4 C1.01 4.66 0.02 5.32 -1 6 C-0.34 6.66 0.32 7.32 1 8 C0.01 8.5 0.01 8.5 -1 9 C-0.67 9.66 -0.34 10.32 0 11 C-0.33 11.99 -0.66 12.98 -1 14 C-0.13 14.43 -0.13 14.43 0.75 14.88 C3.5 16.25 6.25 17.63 9 19 C8.34 20.98 7.68 22.96 7 25 C10.46 24.51 10.46 24.51 14 24 C13 27 13 27 10 29 C9.28 31.06 9.28 31.06 9 33 C9.66 33.33 10.32 33.66 11 34 C10.01 34 9.02 34 8 34 C7.67 32.02 7.34 30.04 7 28 C5.61 28.06 5.61 28.06 4.19 28.12 C1 28 1 28 -2 26 C-2 25.34 -2 24.68 -2 24 C1 23 1 23 4 23 C3.65 21.02 3.65 21.02 3 19 C2.34 18.67 1.68 18.34 1 18 C0.67 18.66 0.34 19.32 0 20 C-0.99 20 -1.98 20 -3 20 C-3.33 20.66 -3.66 21.32 -4 22 C-4.99 21.67 -5.98 21.34 -7 21 C-7.33 18.69 -7.66 16.38 -8 14 C-7.01 14 -6.02 14 -5 14 C-4.01 15.48 -4.01 15.48 -3 17 C-3 16.01 -3 15.02 -3 14 C-4.65 13.67 -6.3 13.34 -8 13 C-8.35 10.1 -8.52 7.87 -6.99 5.3 C-4.81 2.6 -3.33 1.11 0 0 Z " fill="#DDE2E6" transform="translate(19,12)"/>
<path d="M0 0 C0.66 0 1.32 0 2 0 C2.33 0.66 2.66 1.32 3 2 C3.66 1.67 4.32 1.34 5 1 C7.47 5.93 6.76 13.6 6 19 C3.72 24.9 -0.27 29.25 -6 32 C-9.38 32.25 -9.38 32.25 -12 32 C-10.68 31.01 -9.36 30.02 -8 29 C-8.66 28.67 -9.32 28.34 -10 28 C-10.66 28.33 -11.32 28.66 -12 29 C-12.33 27.68 -12.66 26.36 -13 25 C-10 23 -10 23 -7.88 23.19 C-7.26 23.46 -6.64 23.72 -6 24 C-5.67 24.99 -5.34 25.98 -5 27 C-1.76 24.61 0.51 22.8 2 19 C1.01 18.34 0.02 17.68 -1 17 C-0.34 16.67 0.32 16.34 1 16 C0.67 15.34 0.34 14.68 0 14 C0.99 14 1.98 14 3 14 C3 13.34 3 12.68 3 12 C0.03 11.5 0.03 11.5 -3 11 C-3.33 8.36 -3.66 5.72 -4 3 C-1 4 -1 4 1 7 C0.67 4.69 0.34 2.38 0 0 Z " fill="#50688B" transform="translate(43,16)"/>
<path d="M0 0 C0 1.98 0 3.96 0 6 C1.09 6.12 2.19 6.25 3.31 6.38 C7 7 7 7 10 9 C10 9.66 10 10.32 10 11 C12.47 10.66 12.47 10.66 15 10 C15.33 9.34 15.66 8.68 16 8 C15.4 7.9 14.8 7.79 14.19 7.69 C11.69 6.9 10.62 6.03 9 4 C9 3.34 9 2.68 9 2 C14.03 3.44 15.96 5.94 19 10 C19.49 10.99 19.49 10.99 20 12 C20.66 11.34 21.32 10.68 22 10 C24.57 13.84 24.23 17.81 24.12 22.25 C24.12 23 24.11 23.74 24.1 24.51 C24.07 26.34 24.04 28.17 24 30 C23.67 30 23.34 30 23 30 C22.67 25.38 22.34 20.76 22 16 C21.34 16.99 20.68 17.98 20 19 C19.51 16.03 19.51 16.03 19 13 C17.35 13 15.7 13 14 13 C14 13.66 14 14.32 14 15 C11.48 13.88 9.6 12.68 7.44 10.94 C3.87 8.1 1.23 7.88 -3.19 7.94 C-4.09 7.95 -4.99 7.96 -5.92 7.96 C-6.95 7.98 -6.95 7.98 -8 8 C-6 6 -6 6 -3.38 5.88 C-2.59 5.92 -1.81 5.96 -1 6 C-1 4.35 -1 2.7 -1 1 C-5.97 2.13 -5.97 2.13 -10 5 C-10.66 5 -11.32 5 -12 5 C-12.99 6.48 -12.99 6.48 -14 8 C-14.99 7.01 -15.98 6.02 -17 5 C-11.3 0.65 -7.15 -0.75 0 0 Z " fill="#1D3C6C" transform="translate(26,3)"/>
<path d="M0 0 C0.66 0.33 1.32 0.66 2 1 C1.01 2.48 1.01 2.48 0 4 C0.33 4.66 0.66 5.32 1 6 C1.99 6.33 2.98 6.66 4 7 C4 7.66 4 8.32 4 9 C3.01 9 2.02 9 1 9 C1.99 9.66 2.98 10.32 4 11 C3.34 14.3 2.68 17.6 2 21 C1.34 21 0.68 21 0 21 C0 18.03 0 15.06 0 12 C-2.13 15.19 -2.5 17.27 -3 21 C-2.34 21.33 -1.68 21.66 -1 22 C-2.65 22.66 -4.3 23.32 -6 24 C-6 25.98 -6 27.96 -6 30 C-9.21 26.79 -8.49 22.64 -8.52 18.32 C-8.33 10.73 -5.34 5.34 0 0 Z " fill="#234774" transform="translate(8,5)"/>
<path d="M0 0 C2.47 0.49 2.47 0.49 5 1 C5 1.66 5 2.32 5 3 C7.85 4.51 10.68 5.63 13.75 6.62 C14.55 6.89 15.35 7.15 16.17 7.41 C16.78 7.61 17.38 7.8 18 8 C17.67 9.32 17.34 10.64 17 12 C17 11.01 17 10.02 17 9 C16.34 9 15.68 9 15 9 C15 10.32 15 11.64 15 13 C17.64 13.33 20.28 13.66 23 14 C23 14.33 23 14.66 23 15 C21.21 15.05 19.42 15.09 17.62 15.12 C16.63 15.15 15.63 15.17 14.6 15.2 C12 15 12 15 10 13 C10.99 13 11.98 13 13 13 C12.28 12.57 11.56 12.13 10.81 11.69 C9.88 11.13 8.96 10.57 8 10 C7.09 9.48 6.18 8.97 5.25 8.44 C3 7 3 7 2 5 C1.34 4.67 0.68 4.34 0 4 C0 2.68 0 1.36 0 0 Z " fill="#C1C5CE" transform="translate(7,34)"/>
<path d="M0 0 C0.66 0.33 1.32 0.66 2 1 C1.67 4.3 1.34 7.6 1 11 C1.66 11 2.32 11 3 11 C2.67 11.99 2.34 12.98 2 14 C2.33 14.33 2.66 14.66 3 15 C2.01 15.33 1.02 15.66 0 16 C0 16.66 0 17.32 0 18 C-0.66 18 -1.32 18 -2 18 C-1.67 16.68 -1.34 15.36 -1 14 C-1.99 14 -2.98 14 -4 14 C-4 15.65 -4 17.3 -4 19 C-6.39 15.42 -6.27 13.69 -6.25 9.44 C-6.26 8.28 -6.26 7.12 -6.27 5.93 C-6 3 -6 3 -4 1 C-4 4.63 -4 8.26 -4 12 C-1.6 9.6 -1.69 8.73 -1.44 5.44 C-1.1 1.1 -1.1 1.1 0 0 Z " fill="#AFB5C1" transform="translate(7,16)"/>
<path d="M0 0 C1.83 3.66 2.67 5.98 3 10 C2.06 12.38 2.06 12.38 1 14 C0.34 14 -0.32 14 -1 14 C-1.33 14.66 -1.66 15.32 -2 16 C-2 15.34 -2 14.68 -2 14 C-4.64 14.66 -7.28 15.32 -10 16 C-8.95 11.81 -8.08 10.78 -5 8 C-5 8.99 -5 9.98 -5 11 C-4.01 10.67 -3.02 10.34 -2 10 C-1.34 6.7 -0.68 3.4 0 0 Z " fill="#93A5B8" transform="translate(35,22)"/>
<path d="M0 0 C0.99 0.33 1.98 0.66 3 1 C4.37 4.2 3.83 6.7 3 10 C3.82 10.62 4.65 11.24 5.5 11.88 C6.32 12.58 7.15 13.28 8 14 C8 14.66 8 15.32 8 16 C6.68 16.33 5.36 16.66 4 17 C3.38 16.2 2.76 15.39 2.12 14.56 C0.26 11.96 0.26 11.96 -2 11 C-2.98 7.69 -3.23 5.25 -2 2 C-1.34 1.34 -0.68 0.68 0 0 Z " fill="#35537A" transform="translate(20,15)"/>
<path d="M0 0 C0.66 1.32 1.32 2.64 2 4 C-1.75 7 -1.75 7 -4 7 C-3.34 9.31 -2.68 11.62 -2 14 C-4.97 13.5 -4.97 13.5 -8 13 C-8.35 10.1 -8.52 7.87 -6.99 5.3 C-4.81 2.6 -3.33 1.11 0 0 Z " fill="#F2F3F4" transform="translate(19,12)"/>
<path d="M0 0 C0.66 0.33 1.32 0.66 2 1 C1.69 1.91 1.38 2.82 1.06 3.75 C0.27 6.17 -0.43 8.53 -1 11 C-0.01 11 0.98 11 2 11 C1.67 9.68 1.34 8.36 1 7 C2.32 7.33 3.64 7.66 5 8 C5 7.34 5 6.68 5 6 C5.66 6.33 6.32 6.66 7 7 C3 13.57 3 13.57 -1 15 C-1.66 14.01 -2.32 13.02 -3 12 C-5.64 12.33 -8.28 12.66 -11 13 C-7.25 10 -7.25 10 -5 10 C-5 9.34 -5 8.68 -5 8 C-4.34 7.67 -3.68 7.34 -3 7 C-1.95 4.69 -0.94 2.36 0 0 Z " fill="#1F3F6F" transform="translate(39,28)"/>
<path d="M0 0 C1.94 0.81 1.94 0.81 3.94 3.81 C4.56 3.5 5.17 3.19 5.81 2.88 C7.19 2.19 8.56 1.5 9.94 0.81 C8.43 5.04 5.81 6.72 1.94 8.81 C-1.44 9.06 -1.44 9.06 -4.06 8.81 C-2.74 7.82 -1.42 6.83 -0.06 5.81 C-0.72 5.48 -1.38 5.15 -2.06 4.81 C-3.05 5.31 -3.05 5.31 -4.06 5.81 C-4.39 4.49 -4.72 3.17 -5.06 1.81 C-2.06 -0.19 -2.06 -0.19 0 0 Z " fill="#566289" transform="translate(35.0625,39.1875)"/>
<path d="M0 0 C2.06 0.44 2.06 0.44 4 1 C4 1.99 4 2.98 4 4 C5.32 4 6.64 4 8 4 C8 4.66 8 5.32 8 6 C9.32 6.33 10.64 6.66 12 7 C11.34 8.32 10.68 9.64 10 11 C8.68 10.67 7.36 10.34 6 10 C6 9.34 6 8.68 6 8 C4.02 7.34 2.04 6.68 0 6 C-0.38 4.34 -0.71 2.68 -1 1 C-0.67 0.67 -0.34 0.34 0 0 Z " fill="#B8BCC7" transform="translate(30,4)"/>
<path d="M0 0 C0.99 0 1.98 0 3 0 C2.75 0.7 2.5 1.4 2.25 2.12 C1.89 6.31 3.35 7.81 6 11 C8.26 12.8 10.6 14.38 13 16 C13 16.33 13 16.66 13 17 C9.24 17.55 8.06 17.04 4.88 14.81 C2.3 12.43 0.33 10.3 -1 7 C-0.69 3.19 -0.69 3.19 0 0 Z " fill="#41507C" transform="translate(3,30)"/>
<path d="M0 0 C0.66 0.33 1.32 0.66 2 1 C1.35 1.77 1.35 1.77 0.69 2.56 C-1.4 5.58 -2.63 8.6 -4 12 C-4.66 12 -5.32 12 -6 12 C-6 17.94 -6 23.88 -6 30 C-9.21 26.79 -8.49 22.64 -8.52 18.32 C-8.33 10.73 -5.34 5.34 0 0 Z " fill="#384469" transform="translate(8,5)"/>
<path d="M0 0 C3 1 3 1 5 4 C5.12 6.69 5.12 6.69 5 9 C4.01 8.67 3.02 8.34 2 8 C2.33 9.32 2.66 10.64 3 12 C0.5 9.69 0.5 9.69 -2 7 C-2 3.89 -1.46 2.65 0 0 Z " fill="#808CA3" transform="translate(28,16)"/>
<path d="M0 0 C1.18 0.53 1.18 0.53 2.38 1.06 C3.67 1.53 3.67 1.53 5 2 C5.66 1.67 6.32 1.34 7 1 C7.99 1.99 8.98 2.98 10 4 C9.01 4 8.02 4 7 4 C5.89 6.39 5.89 6.39 5 9 C5.33 9.66 5.66 10.32 6 11 C5.01 11 4.02 11 3 11 C2.67 11.66 2.34 12.32 2 13 C1.34 11.02 0.68 9.04 0 7 C0.66 6.67 1.32 6.34 2 6 C1.34 4.02 0.68 2.04 0 0 Z " fill="#CED1D8" transform="translate(21,13)"/>
<path d="M0 0 C1.94 0.62 1.94 0.62 4 2 C4.75 5.12 4.75 5.12 5 8 C2.69 7.67 0.38 7.34 -2 7 C-2.33 7.66 -2.66 8.32 -3 9 C-3.66 8.34 -4.32 7.68 -5 7 C-4.62 4.88 -4.62 4.88 -4 3 C-2.68 3 -1.36 3 0 3 C0 2.01 0 1.02 0 0 Z " fill="#9AACBC" transform="translate(19,29)"/>
<path d="M0 0 C-1 3 -1 3 -4 5 C-4.72 7.06 -4.72 7.06 -5 9 C-4.34 9.33 -3.68 9.66 -3 10 C-3.99 10 -4.98 10 -6 10 C-6.33 8.02 -6.66 6.04 -7 4 C-8.98 4 -10.96 4 -13 4 C-13 3.67 -13 3.34 -13 3 C-11.02 3 -9.04 3 -7 3 C-7 2.34 -7 1.68 -7 1 C-2.25 0 -2.25 0 0 0 Z " fill="#D4D7DD" transform="translate(33,36)"/>
<path d="M0 0 C2.48 0.99 2.48 0.99 5 2 C5 1.34 5 0.68 5 0 C5.66 0 6.32 0 7 0 C7 0.66 7 1.32 7 2 C7.66 2.33 8.32 2.66 9 3 C6.03 5.48 6.03 5.48 3 8 C1.35 6.35 -0.3 4.7 -2 3 C0.47 3.99 0.47 3.99 3 5 C2.26 4.32 2.26 4.32 1.5 3.62 C0 2 0 2 0 0 Z " fill="#818DA6" transform="translate(9,9)"/>
<path d="M0 0 C3.97 0.84 6.46 1.49 9.44 4.31 C11.12 7.21 11.38 8.71 11 12 C8.07 9.22 5.58 6.1 3 3 C2.02 1.98 1.03 0.97 0 0 Z " fill="#79819E" transform="translate(36,4)"/>
<path d="M0 0 C0.66 0.33 1.32 0.66 2 1 C1.67 4.3 1.34 7.6 1 11 C0.01 10.67 -0.98 10.34 -2 10 C-1.86 8.52 -1.71 7.04 -1.56 5.56 C-1.48 4.74 -1.4 3.92 -1.32 3.07 C-1 1 -1 1 0 0 Z " fill="#A1ABBA" transform="translate(7,16)"/>
<path d="M0 0 C1.32 0.33 2.64 0.66 4 1 C4.62 3.88 4.62 3.88 5 7 C4.34 7.66 3.68 8.32 3 9 C2.92 8.22 2.84 7.43 2.75 6.62 C2.27 3.85 2.27 3.85 -0.06 2.69 C-0.7 2.46 -1.34 2.23 -2 2 C-1.34 2 -0.68 2 0 2 C0 1.34 0 0.68 0 0 Z " fill="#A6B0BD" transform="translate(40,16)"/>
<path d="M0 0 C0.33 0.99 0.66 1.98 1 3 C0.34 3.66 -0.32 4.32 -1 5 C-1.66 5 -2.32 5 -3 5 C-3.99 6.48 -3.99 6.48 -5 8 C-5.99 7.01 -6.98 6.02 -8 5 C-5.36 3.35 -2.72 1.7 0 0 Z " fill="#1F4572" transform="translate(17,3)"/>
<path d="M0 0 C0.62 0.27 1.24 0.54 1.88 0.81 C2.2 1.8 2.53 2.79 2.88 3.81 C2.22 3.81 1.55 3.81 0.88 3.81 C0.55 3.48 0.22 3.15 -0.12 2.81 C-0.45 3.47 -0.78 4.13 -1.12 4.81 C-1.45 5.14 -1.78 5.47 -2.12 5.81 C-2.78 5.81 -3.45 5.81 -4.12 5.81 C-4.45 4.49 -4.79 3.17 -5.12 1.81 C-2.12 -0.19 -2.12 -0.19 0 0 Z " fill="#D7D9DE" transform="translate(35.125,39.1875)"/>
<path d="M0 0 C1.21 0.03 1.21 0.03 2.44 0.06 C2.11 1.05 1.78 2.04 1.44 3.06 C1.77 3.39 2.1 3.72 2.44 4.06 C1.45 4.39 0.46 4.72 -0.56 5.06 C-0.56 5.72 -0.56 6.38 -0.56 7.06 C-1.22 7.06 -1.88 7.06 -2.56 7.06 C-2.23 5.41 -1.9 3.76 -1.56 2.06 C-2.22 1.73 -2.88 1.4 -3.56 1.06 C-2.56 0.06 -2.56 0.06 0 0 Z " fill="#DDE0E4" transform="translate(7.5625,26.9375)"/>
<path d="M0 0 C3 1 3 1 5 4 C5.33 4.99 5.66 5.98 6 7 C4.35 7.33 2.7 7.66 1 8 C0.67 5.36 0.34 2.72 0 0 Z " fill="#214572" transform="translate(39,19)"/>
<path d="M0 0 C0.33 0 0.66 0 1 0 C1 1.98 1 3.96 1 6 C3.97 6.5 3.97 6.5 7 7 C7 7.66 7 8.32 7 9 C5.35 9.33 3.7 9.66 2 10 C-0.43 6.36 -0.16 4.29 0 0 Z " fill="#B6BCC5" transform="translate(39,21)"/>
<path d="M0 0 C0.66 0.33 1.32 0.66 2 1 C1.35 1.8 1.35 1.8 0.69 2.62 C-1.21 5.29 -2.59 8.05 -4 11 C-4.33 11 -4.66 11 -5 11 C-5.39 8.34 -5.41 6.61 -3.89 4.33 C-2.64 2.85 -1.32 1.42 0 0 Z " fill="#545E86" transform="translate(8,5)"/>
<path d="M0 0 C1.48 0.95 2.96 1.91 4.44 2.88 C5.67 3.68 5.67 3.68 6.93 4.49 C9 6 9 6 10 8 C7.81 8.38 7.81 8.38 5 8 C2.91 6.17 1.62 4.31 0 2 C0 1.34 0 0.68 0 0 Z " fill="#9CA1B4" transform="translate(6,39)"/>
<path d="M0 0 C0.33 0 0.66 0 1 0 C1.38 2.19 1.38 2.19 1 5 C-0.84 6.99 -2.79 8.39 -5 10 C-5.66 9.67 -6.32 9.34 -7 9 C-5.76 7.54 -4.53 6.07 -3.29 4.61 C-2.11 3.13 -1.05 1.57 0 0 Z " fill="#9BA1B3" transform="translate(46,34)"/>
<path d="M0 0 C0.66 0 1.32 0 2 0 C1.34 3.3 0.68 6.6 0 10 C-0.66 10 -1.32 10 -2 10 C-2.18 6.05 -2.09 3.4 0 0 Z " fill="#0A376A" transform="translate(10,16)"/>
<path d="M0 0 C0.99 0.33 1.98 0.66 3 1 C2.67 1.99 2.34 2.98 2 4 C1.67 4 1.34 4 1 4 C1 5.65 1 7.3 1 9 C-0.32 7.68 -1.64 6.36 -3 5 C-2.01 3.35 -1.02 1.7 0 0 Z " fill="#214371" transform="translate(28,16)"/>
<path d="M0 0 C1.18 0.53 1.18 0.53 2.38 1.06 C3.67 1.53 3.67 1.53 5 2 C5.66 1.67 6.32 1.34 7 1 C7.99 1.99 8.98 2.98 10 4 C7.36 4.33 4.72 4.66 2 5 C1.34 3.35 0.68 1.7 0 0 Z " fill="#8C94A6" transform="translate(21,13)"/>
<path d="M0 0 C1.98 0 3.96 0 6 0 C6 0.99 6 1.98 6 3 C4.68 3.33 3.36 3.66 2 4 C1.34 2.68 0.68 1.36 0 0 Z " fill="#A6ADBA" transform="translate(10,39)"/>
<path d="M0 0 C0.99 0 1.98 0 3 0 C3 2.64 3 5.28 3 8 C2.34 7.67 1.68 7.34 1 7 C0.59 4.68 0.26 2.34 0 0 Z " fill="#F0F1F3" transform="translate(11,26)"/>
<path d="M0 0 C0.99 1.32 1.98 2.64 3 4 C2.34 4.66 1.68 5.32 1 6 C0.67 5.34 0.34 4.68 0 4 C-2.02 3.35 -2.02 3.35 -4 3 C-4 2.34 -4 1.68 -4 1 C-2.68 0.67 -1.36 0.34 0 0 Z " fill="#4B6085" transform="translate(11,31)"/>
</svg>
