<?xml version="1.0" encoding="UTF-8"?>
<!-- Generator: https://ezgif.com/webp-to-svg -->
<svg version="1.1" xmlns="http://www.w3.org/2000/svg" width="100" height="100">
<path d="M0 0 C3.8 2.96 5.81 6.55 8.2 10.69 C9.73 13.42 9.73 13.42 12.81 15.19 C14.16 18.27 14.16 18.27 15.44 22 C15.86 23.22 16.29 24.45 16.73 25.71 C18.32 30.82 19.08 35.88 19.81 41.19 C21.13 39.54 22.45 37.89 23.81 36.19 C27.73 37.12 28.71 38.02 30.87 41.52 C31.49 42.86 32.1 44.21 32.69 45.56 C33.01 46.24 33.33 46.91 33.66 47.6 C35.89 52.54 35.89 52.54 35.51 55.66 C35.28 56.17 35.05 56.67 34.81 57.19 C33.16 56.86 31.51 56.53 29.81 56.19 C29.32 54.21 29.32 54.21 28.81 52.19 C25.35 52.68 25.35 52.68 21.81 53.19 C21.73 53.81 21.65 54.42 21.56 55.06 C20.81 57.19 20.81 57.19 18.75 58.44 C18.11 58.69 17.47 58.93 16.81 59.19 C17.31 61.66 17.31 61.66 17.81 64.19 C17.15 64.19 16.49 64.19 15.81 64.19 C16.02 64.87 16.22 65.55 16.44 66.25 C16.92 70.01 15.96 72.6 14.81 76.19 C14.06 79.41 13.81 81.83 13.81 85.19 C12.82 85.19 11.83 85.19 10.81 85.19 C10.32 87.17 10.32 87.17 9.81 89.19 C9.01 89.31 8.2 89.44 7.38 89.56 C6.11 89.87 6.11 89.87 4.81 90.19 C4.48 90.85 4.15 91.51 3.81 92.19 C1.5 91.53 -0.81 90.87 -3.19 90.19 C-3.19 91.18 -3.19 92.17 -3.19 93.19 C-3.85 93.19 -4.51 93.19 -5.19 93.19 C-5.52 92.53 -5.85 91.87 -6.19 91.19 C-10.15 91.19 -14.11 91.19 -18.19 91.19 C-18.52 90.2 -18.85 89.21 -19.19 88.19 C-20.51 88.19 -21.83 88.19 -23.19 88.19 C-23.19 87.2 -23.19 86.21 -23.19 85.19 C-24.67 84.69 -24.67 84.69 -26.19 84.19 C-28.48 80.75 -28.37 79.2 -28.19 75.19 C-28.85 75.19 -29.51 75.19 -30.19 75.19 C-30.18 74.58 -30.16 73.98 -30.15 73.36 C-30.14 72.56 -30.13 71.76 -30.12 70.94 C-30.11 70.15 -30.1 69.36 -30.09 68.55 C-30.18 66.26 -30.55 64.38 -31.19 62.19 C-31.54 60.95 -31.89 59.71 -32.25 58.44 C-32.56 57.37 -32.87 56.29 -33.19 55.19 C-33.68 55.7 -34.18 56.22 -34.69 56.75 C-37.86 58.57 -39.66 58.26 -43.19 57.8 C-45.86 56.98 -47.25 56.24 -49.19 54.19 C-49.7 51.55 -49.97 49.33 -50.06 46.69 C-50.11 46.01 -50.16 45.33 -50.2 44.64 C-50.4 40.87 -50.33 39.41 -48.19 36.19 C-46.23 36.74 -46.23 36.74 -44.19 38.19 C-43.58 41.45 -43.58 41.45 -43.44 45.31 C-43.38 46.59 -43.32 47.88 -43.27 49.2 C-43.24 50.18 -43.21 51.17 -43.19 52.19 C-41.21 51.69 -41.21 51.69 -39.19 51.19 C-38.86 46.57 -38.53 41.95 -38.19 37.19 C-36.21 36.69 -36.21 36.69 -34.19 36.19 C-34.14 35.46 -34.09 34.74 -34.04 33.99 C-33.28 24.18 -30.85 18.17 -25.19 10.19 C-24.69 9.45 -24.19 8.7 -23.67 7.94 C-17.55 -0.83 -10.24 -2.61 0 0 Z M-7.19 35.19 C-7.79 35.52 -8.38 35.85 -9 36.19 C-11.19 37.19 -11.19 37.19 -14.19 37.19 C-13.51 37.91 -12.83 38.63 -12.12 39.38 C-10.19 42.19 -10.19 42.19 -10.31 44.81 C-11.19 47.19 -11.19 47.19 -13.19 50.19 C-12.67 50.79 -12.16 51.38 -11.62 52 C-11.15 52.72 -10.68 53.44 -10.19 54.19 C-10.52 55.18 -10.85 56.17 -11.19 57.19 C-14.6 55.78 -16.03 54.13 -18.19 51.19 C-18.85 51.19 -19.51 51.19 -20.19 51.19 C-20.71 57.61 -20.71 57.61 -18.19 63.19 C-14.76 65.07 -14.76 65.07 -11.19 66.19 C-10.53 65.86 -9.87 65.53 -9.19 65.19 C-8.2 65.52 -7.21 65.85 -6.19 66.19 C-3.01 66 -0.11 65.45 2.81 64.19 C4.5 61.2 4.5 61.2 4.81 58.19 C4.19 57.95 3.56 57.7 2.91 57.45 C2.1 57.12 1.28 56.78 0.44 56.44 C-0.78 55.95 -0.78 55.95 -2.02 55.45 C-4.52 53.99 -5.17 52.85 -6.19 50.19 C-5.32 50.52 -4.45 50.85 -3.56 51.19 C-0.23 52.17 2.36 52.35 5.81 52.19 C4.46 49.48 3 49.23 0.25 48.06 C-0.58 47.71 -1.4 47.36 -2.25 46.99 C-2.89 46.73 -3.53 46.46 -4.19 46.19 C-4.09 44.3 -4.09 44.3 -4 42.38 C-3.95 39.02 -3.95 39.02 -5.69 36.19 C-6.18 35.86 -6.68 35.53 -7.19 35.19 Z M-20.19 42.19 C-20.19 43.18 -20.19 44.17 -20.19 45.19 C-18.54 44.86 -16.89 44.53 -15.19 44.19 C-15.52 43.2 -15.85 42.21 -16.19 41.19 C-17.56 41.13 -17.56 41.13 -20.19 42.19 Z M-0.19 43.19 C-0.19 43.52 -0.19 43.85 -0.19 44.19 C2.12 44.52 4.43 44.85 6.81 45.19 C6.48 43.87 6.15 42.55 5.81 41.19 C3.35 41.19 1.96 42.04 -0.19 43.19 Z " fill="#0B3557" transform="translate(58.1875,4.8125)"/>
<path d="M0 0 C4.35 3.46 6.38 8.23 8.75 13.19 C8.09 13.19 7.43 13.19 6.75 13.19 C6.09 16.82 5.43 20.45 4.75 24.19 C3.43 24.52 2.11 24.85 0.75 25.19 C0.75 25.85 0.75 26.51 0.75 27.19 C-0.31 27.18 -1.37 27.16 -2.46 27.15 C-3.85 27.14 -5.24 27.13 -6.62 27.12 C-7.32 27.12 -8.02 27.11 -8.74 27.1 C-12.62 27 -12.62 27 -16.25 28.19 C-17.55 28.31 -18.85 28.44 -20.19 28.56 C-22.57 28.86 -24.07 29.09 -26.19 30.25 C-27.62 32.86 -27.76 35.3 -27.94 38.25 C-28.25 40.19 -28.25 40.19 -30.25 43.19 C-30.25 44.51 -30.25 45.83 -30.25 47.19 C-30.91 47.19 -31.57 47.19 -32.25 47.19 C-32.25 42.9 -32.25 38.61 -32.25 34.19 C-31.92 34.19 -31.59 34.19 -31.25 34.19 C-31.41 33.3 -31.58 32.42 -31.75 31.51 C-32.71 24.51 -32.95 20.07 -28.62 14.25 C-27.18 12.55 -25.73 10.86 -24.25 9.19 C-23.36 7.87 -22.48 6.53 -21.62 5.19 C-15.96 -1.96 -8.34 -2.09 0 0 Z " fill="#023E69" transform="translate(58.25,4.8125)"/>
<path d="M0 0 C3 2 3 2 3.68 4.71 C4.52 13.34 4.13 21.97 3.22 30.58 C2.93 33.74 2.93 36.83 3 40 C4.32 39.34 5.64 38.68 7 38 C6.8 38.89 6.8 38.89 6.6 39.79 C6.06 42.19 5.53 44.6 5 47 C4.79 47.93 4.59 48.86 4.38 49.81 C3.89 52.29 3.89 52.29 4 56 C3.01 56 2.02 56 1 56 C0.67 57.32 0.34 58.64 0 60 C-0.8 60.12 -1.61 60.25 -2.44 60.38 C-3.28 60.58 -4.13 60.79 -5 61 C-5.49 61.99 -5.49 61.99 -6 63 C-8.31 62.34 -10.62 61.68 -13 61 C-13 61.99 -13 62.98 -13 64 C-13.66 64 -14.32 64 -15 64 C-15.33 63.34 -15.66 62.68 -16 62 C-19.96 62 -23.92 62 -28 62 C-28.5 60.52 -28.5 60.52 -29 59 C-30.32 59 -31.64 59 -33 59 C-33 58.01 -33 57.02 -33 56 C-33.99 55.67 -34.98 55.34 -36 55 C-38.29 51.56 -38.18 50.01 -38 46 C-38.66 46 -39.32 46 -40 46 C-39.99 45.4 -39.98 44.79 -39.96 44.17 C-39.96 43.37 -39.95 42.57 -39.94 41.75 C-39.93 40.96 -39.91 40.17 -39.9 39.36 C-40 37.08 -40.42 35.19 -41 33 C-41.04 31.33 -41.05 29.67 -41 28 C-40.01 27.67 -39.02 27.34 -38 27 C-38 28.32 -38 29.64 -38 31 C-37.34 31 -36.68 31 -36 31 C-35.88 32.29 -35.76 33.58 -35.63 34.9 C-35.46 36.58 -35.29 38.26 -35.12 39.94 C-35.05 40.79 -34.97 41.64 -34.89 42.51 C-34.8 43.32 -34.72 44.13 -34.63 44.96 C-34.52 46.09 -34.52 46.09 -34.41 47.23 C-34.28 47.82 -34.14 48.4 -34 49 C-31.63 50.18 -30.13 50.13 -27.5 50.12 C-26.71 50.13 -25.91 50.13 -25.09 50.13 C-22.94 50.13 -22.94 50.13 -21 49 C-19.41 48.92 -17.81 48.89 -16.21 48.9 C-15.27 48.91 -14.33 48.91 -13.36 48.91 C-12.37 48.92 -11.39 48.93 -10.38 48.94 C-8.89 48.94 -8.89 48.94 -7.37 48.95 C-4.91 48.96 -2.46 48.98 0 49 C0.15 44.95 0.29 40.89 0.43 36.84 C0.48 35.47 0.52 34.1 0.57 32.72 C1.46 16.31 1.46 16.31 0 0 Z " fill="#024D80" transform="translate(68,34)"/>
<path d="M0 0 C2.17 0.51 4 1 6 2 C6.93 4.22 7.77 6.48 8.56 8.75 C9 9.98 9.43 11.21 9.88 12.48 C11.51 17.61 12.27 22.68 13 28 C14.32 26.35 15.64 24.7 17 23 C20.92 23.94 21.9 24.83 24.05 28.34 C24.68 29.67 25.29 31.02 25.88 32.38 C26.19 33.05 26.51 33.72 26.84 34.41 C29.08 39.35 29.08 39.35 28.7 42.48 C28.47 42.98 28.24 43.48 28 44 C26.35 43.67 24.7 43.34 23 43 C22.67 41.68 22.34 40.36 22 39 C18.53 39.49 18.53 39.49 15 40 C14.92 40.62 14.84 41.24 14.75 41.88 C14 44 14 44 11.94 45.25 C11.3 45.5 10.66 45.74 10 46 C10.33 47.65 10.66 49.3 11 51 C10.34 51 9.68 51 9 51 C8.88 51.72 8.75 52.44 8.62 53.19 C8.01 55.96 7.12 58.4 6 61 C5.67 61 5.34 61 5 61 C4.91 55.18 4.89 49.42 5.5 43.62 C6.95 30.07 6.95 30.07 4 17 C0.56 14.7 -1.94 14.46 -6 14 C-6 13.34 -6 12.68 -6 12 C-5.01 11.67 -4.02 11.34 -3 11 C-2.23 8.96 -2.23 8.96 -1.88 6.56 C-1.06 2.13 -1.06 2.13 0 0 Z " fill="#024270" transform="translate(65,18)"/>
<path d="M0 0 C0.99 0 1.98 0 3 0 C3 2.31 3 4.62 3 7 C3.66 7 4.32 7 5 7 C5 5.35 5 3.7 5 2 C6.32 2 7.64 2 9 2 C9.33 3.65 9.66 5.3 10 7 C10.33 5.68 10.66 4.36 11 3 C13.44 3.38 13.44 3.38 16 4 C17.66 7.31 16.86 10.95 16.62 14.56 C16.58 15.36 16.54 16.15 16.49 16.97 C16.13 22.87 16.13 22.87 15 24 C14.76 26.69 14.58 29.36 14.44 32.06 C14.39 32.82 14.35 33.58 14.31 34.36 C14.2 36.24 14.1 38.12 14 40 C5.79 42.19 -3.51 41 -12 41 C-12 39.02 -12 37.04 -12 35 C-11.42 35.21 -10.84 35.41 -10.25 35.62 C-7.45 36.09 -6.46 35.27 -4 34 C-3.01 34.33 -2.02 34.66 -1 35 C1.29 34.91 1.29 34.91 3.69 34.56 C4.9 34.41 4.9 34.41 6.14 34.25 C6.75 34.17 7.37 34.09 8 34 C8.66 32.02 9.32 30.04 10 28 C8.74 27.73 7.48 27.46 6.19 27.19 C0.82 25.84 0.82 25.84 -1 23 C-1 22.01 -1 21.02 -1 20 C0.67 19.96 2.33 19.96 4 20 C4.33 20.33 4.66 20.66 5 21 C6.67 21.04 8.33 21.04 10 21 C9.36 20.72 8.72 20.45 8.07 20.16 C7.24 19.8 6.41 19.44 5.56 19.06 C4.74 18.7 3.92 18.34 3.07 17.97 C1 17 1 17 0 16 C-0.07 13.25 0 10.51 0.06 7.76 C0.01 5.3 -0.4 3.36 -1 1 C-0.67 0.67 -0.34 0.34 0 0 Z M5 13 C5 13.33 5 13.66 5 14 C7.31 14.33 9.62 14.66 12 15 C11.67 13.68 11.34 12.36 11 11 C8.54 11 7.15 11.85 5 13 Z " fill="#B08E84" transform="translate(53,35)"/>
<path d="M0 0 C0.33 0 0.66 0 1 0 C0.88 4.25 0.76 8.51 0.63 12.76 C0.58 14.21 0.54 15.66 0.5 17.11 C0.45 19.18 0.38 21.26 0.32 23.34 C0.28 24.59 0.24 25.84 0.21 27.13 C0 30 0 30 -1 31 C-2.54 31.07 -4.08 31.08 -5.62 31.06 C-6.56 31.05 -7.49 31.05 -8.46 31.04 C-10.44 31.01 -12.42 30.99 -14.41 30.96 C-15.34 30.95 -16.28 30.95 -17.25 30.94 C-18.11 30.93 -18.97 30.91 -19.86 30.9 C-22.05 30.86 -22.05 30.86 -24 32 C-26.06 32.17 -26.06 32.17 -28.44 32.19 C-29.22 32.2 -30 32.22 -30.81 32.23 C-33 32 -33 32 -36 30 C-36.51 27.97 -36.51 27.97 -36.69 25.5 C-36.75 24.62 -36.82 23.73 -36.88 22.82 C-37.06 18.54 -37.08 14.28 -37 10 C-35.68 9.67 -34.36 9.34 -33 9 C-32.2 10.14 -32.2 10.14 -31.38 11.31 C-28.8 14.23 -26.54 15.47 -23 17 C-23.66 17.66 -24.32 18.32 -25 19 C-25.66 18.67 -26.32 18.34 -27 18 C-27.33 19.65 -27.66 21.3 -28 23 C-27.09 22.81 -26.19 22.63 -25.25 22.44 C-22.32 22.04 -20.74 22.05 -18 23 C-17.67 22.34 -17.34 21.68 -17 21 C-15.68 21.66 -14.36 22.32 -13 23 C-12.67 21.68 -12.34 20.36 -12 19 C-12 20.32 -12 21.64 -12 23 C-10.68 23 -9.36 23 -8 23 C-7.67 22.01 -7.34 21.02 -7 20 C-6.67 20.66 -6.34 21.32 -6 22 C-5.01 22 -4.02 22 -3 22 C-2.95 20.91 -2.9 19.83 -2.85 18.71 C-2.78 17.27 -2.7 15.82 -2.62 14.38 C-2.58 13.31 -2.58 13.31 -2.53 12.21 C-2.29 7.83 -1.61 4.14 0 0 Z " fill="#96384D" transform="translate(69,53)"/>
<path d="M0 0 C0.99 0.33 1.98 0.66 3 1 C2.49 3.17 2 5 1 7 C3.31 7 5.62 7 8 7 C8 7.66 8 8.32 8 9 C8.99 8.01 9.98 7.02 11 6 C10.75 8.37 10.75 8.37 10 11 C7.94 12.31 7.94 12.31 6 13 C6 13.66 6 14.32 6 15 C6.64 15.29 7.28 15.58 7.94 15.88 C10 17 10 17 11 19 C7.92 20.45 5.24 21.14 1.88 21.44 C-1.79 21.74 -1.79 21.74 -3.94 23.06 C-5.37 25.68 -5.51 28.11 -5.69 31.06 C-6 33 -6 33 -8 36 C-8 37.32 -8 38.64 -8 40 C-8.66 40 -9.32 40 -10 40 C-10 35.71 -10 31.42 -10 27 C-9.67 27 -9.34 27 -9 27 C-9.16 26.12 -9.33 25.23 -9.5 24.32 C-10.49 17.12 -10.61 12.74 -6.19 6.75 C-4.21 4.38 -2.18 2.18 0 0 Z " fill="#014573" transform="translate(36,12)"/>
<path d="M0 0 C3 2 3 2 3.68 4.71 C4.52 13.34 4.13 21.97 3.22 30.58 C2.93 33.74 2.93 36.83 3 40 C4.32 39.34 5.64 38.68 7 38 C6.8 38.89 6.8 38.89 6.6 39.79 C6.06 42.19 5.53 44.6 5 47 C4.69 48.39 4.69 48.39 4.38 49.81 C3.89 52.29 3.89 52.29 4 56 C3.01 56 2.02 56 1 56 C0.67 57.32 0.34 58.64 0 60 C-0.8 60.12 -1.61 60.25 -2.44 60.38 C-3.28 60.58 -4.13 60.79 -5 61 C-5.33 61.66 -5.66 62.32 -6 63 C-8.31 62.34 -10.62 61.68 -13 61 C-13 61.99 -13 62.98 -13 64 C-13.66 64 -14.32 64 -15 64 C-15.33 63.34 -15.66 62.68 -16 62 C-18.64 62 -21.28 62 -24 62 C-23.34 61.34 -22.68 60.68 -22 60 C-20.68 60 -19.36 60 -18 60 C-17.67 59.34 -17.34 58.68 -17 58 C-15.52 57.5 -15.52 57.5 -14 57 C-14 57.66 -14 58.32 -14 59 C-13.34 59 -12.68 59 -12 59 C-11.67 58.01 -11.34 57.02 -11 56 C-10.67 56.66 -10.34 57.32 -10 58 C-9.01 57.5 -9.01 57.5 -8 57 C-7.34 54.47 -7.34 54.47 -7 52 C-9.31 53.32 -11.62 54.64 -14 56 C-14 55.34 -14 54.68 -14 54 C-17.96 53.67 -21.92 53.34 -26 53 C-22.11 51.06 -20.92 50.79 -16.81 50.94 C-15.21 50.99 -13.6 51.02 -12 51 C-11.5 50.5 -11.5 50.5 -11 50 C-9.15 49.77 -7.3 49.59 -5.44 49.44 C-4.43 49.35 -3.41 49.27 -2.37 49.18 C-1.2 49.09 -1.2 49.09 0 49 C0.15 44.95 0.29 40.89 0.43 36.84 C0.48 35.47 0.52 34.1 0.57 32.72 C1.46 16.31 1.46 16.31 0 0 Z " fill="#01426F" transform="translate(68,34)"/>
<path d="M0 0 C0.99 0 1.98 0 3 0 C3.27 0.91 3.54 1.81 3.81 2.75 C4.79 5.97 4.79 5.97 6.69 8.06 C8 10 8 10 7.81 12.56 C7 15 7 15 5 18 C5.99 19.32 6.98 20.64 8 22 C7.34 23.32 6.68 24.64 6 26 C3.14 24.72 0.98 23.47 -1 21 C-1 20.01 -1 19.02 -1 18 C-2.65 18 -4.3 18 -6 18 C-6 19.65 -6 21.3 -6 23 C-7.32 23 -8.64 23 -10 23 C-10.08 20.27 -10.14 17.54 -10.19 14.81 C-10.21 14.04 -10.24 13.27 -10.26 12.48 C-10.32 7.78 -9.96 4.88 -7 1 C-5.35 1.33 -3.7 1.66 -2 2 C-2 2.99 -2 3.98 -2 5 C-1.34 5 -0.68 5 0 5 C-0.28 4.04 -0.28 4.04 -0.56 3.06 C-0.71 2.38 -0.85 1.7 -1 1 C-0.67 0.67 -0.34 0.34 0 0 Z M-3 10 C-3 10.99 -3 11.98 -3 13 C-1.35 12.67 0.3 12.34 2 12 C1.67 11.01 1.34 10.02 1 9 C-0.37 8.95 -0.37 8.95 -3 10 Z " fill="#B2B1B2" transform="translate(41,37)"/>
<path d="M0 0 C17.19 0.04 17.19 0.04 21.38 2.13 C22 5.2 22 5.2 22.38 8.13 C19.9 7.64 19.9 7.64 17.38 7.13 C17.05 8.45 16.72 9.77 16.38 11.13 C15.72 10.8 15.05 10.47 14.38 10.13 C14.38 8.81 14.38 7.49 14.38 6.13 C13.72 6.13 13.05 6.13 12.38 6.13 C12.27 6.77 12.17 7.41 12.06 8.07 C11.84 8.75 11.61 9.43 11.38 10.13 C10.39 10.46 9.39 10.79 8.38 11.13 C8.7 8.82 9.03 6.51 9.38 4.13 C8.39 4.46 7.39 4.79 6.38 5.13 C6.05 6.12 5.72 7.11 5.38 8.13 C6.03 8.46 6.7 8.79 7.38 9.13 C6.72 9.79 6.05 10.45 5.38 11.13 C3.38 11.13 1.38 11.13 -0.62 11.13 C-1.28 9.48 -1.95 7.83 -2.62 6.13 C-3.62 6.46 -4.61 6.79 -5.62 7.13 C-5.62 8.45 -5.62 9.77 -5.62 11.13 C-6.28 11.13 -6.95 11.13 -7.62 11.13 C-7.62 10.14 -7.62 9.15 -7.62 8.13 C-10.04 7.88 -10.04 7.88 -12.62 8.13 C-13.28 9.12 -13.95 10.11 -14.62 11.13 C-14.94 7.82 -14.94 7.82 -14.62 4.13 C-11.13 0.94 -8.21 0.92 -3.62 1.13 C-2.62 0.13 -2.62 0.13 0 0 Z " fill="#944756" transform="translate(46.625,30.8671875)"/>
<path d="M0 0 C3.92 0.94 4.9 1.83 7.05 5.34 C7.68 6.67 8.29 8.02 8.88 9.38 C9.35 10.38 9.35 10.38 9.84 11.41 C12.08 16.35 12.08 16.35 11.7 19.48 C11.47 19.98 11.24 20.48 11 21 C9.35 20.67 7.7 20.34 6 20 C5.67 18.68 5.34 17.36 5 16 C2.69 16.33 0.38 16.66 -2 17 C-2.33 18.32 -2.66 19.64 -3 21 C-4.65 20.67 -6.3 20.34 -8 20 C-2.38 2.38 -2.38 2.38 0 0 Z " fill="#A2A4A5" transform="translate(82,41)"/>
<path d="M0 0 C0.99 0 1.98 0 3 0 C3 2.31 3 4.62 3 7 C3.66 7 4.32 7 5 7 C5 5.35 5 3.7 5 2 C6.32 2 7.64 2 9 2 C9.33 3.65 9.66 5.3 10 7 C10.33 5.68 10.66 4.36 11 3 C12.65 3.33 14.3 3.66 16 4 C16.08 8.17 15.93 11.93 15 16 C15 16.66 15 17.32 15 18 C9.56 18.22 5.13 18.1 0 16 C0.01 15.25 0.02 14.5 0.04 13.73 C0.04 12.75 0.05 11.76 0.06 10.75 C0.07 9.78 0.09 8.8 0.1 7.8 C0.01 5.34 -0.4 3.36 -1 1 C-0.67 0.67 -0.34 0.34 0 0 Z M5 13 C5 13.33 5 13.66 5 14 C7.31 14.33 9.62 14.66 12 15 C11.67 13.68 11.34 12.36 11 11 C8.54 11 7.15 11.85 5 13 Z " fill="#CFC5C1" transform="translate(53,35)"/>
<path d="M0 0 C1.95 0.55 1.95 0.55 4 2 C4.61 5.26 4.61 5.26 4.75 9.12 C4.81 10.41 4.86 11.69 4.92 13.01 C4.95 14 4.97 14.98 5 16 C6.32 15.67 7.64 15.34 9 15 C9.33 10.38 9.66 5.76 10 1 C11.32 1 12.64 1 14 1 C14.08 3.42 14.14 5.83 14.19 8.25 C14.21 8.93 14.24 9.61 14.26 10.32 C14.31 13.39 14.16 15.68 12.8 18.46 C10.42 20.5 9.04 20.48 5.94 20.38 C5.06 20.36 4.18 20.35 3.28 20.34 C1 20 1 20 -1 18 C-1.36 15.49 -1.6 13.09 -1.75 10.56 C-1.81 9.88 -1.86 9.2 -1.92 8.5 C-2.16 4.7 -2.17 3.26 0 0 Z " fill="#B7B8BA" transform="translate(10,41)"/>
<path d="M0 0 C0.33 0 0.66 0 1 0 C0.88 4.25 0.76 8.51 0.63 12.76 C0.58 14.21 0.54 15.66 0.5 17.11 C0.45 19.18 0.38 21.26 0.32 23.34 C0.28 24.59 0.24 25.84 0.21 27.13 C0 30 0 30 -1 31 C-8.64 31.56 -16.39 30.67 -24 30 C-23.01 28.52 -23.01 28.52 -22 27 C-19.43 26.71 -19.43 26.71 -16.44 26.81 C-15.45 26.84 -14.45 26.87 -13.43 26.89 C-12.63 26.93 -11.83 26.96 -11 27 C-10.67 27 -10.34 27 -10 27 C-10.33 25.68 -10.66 24.36 -11 23 C-10.01 23 -9.02 23 -8 23 C-7.67 22.01 -7.34 21.02 -7 20 C-6.67 20.66 -6.34 21.32 -6 22 C-5.01 22 -4.02 22 -3 22 C-2.95 20.91 -2.9 19.83 -2.85 18.71 C-2.78 17.27 -2.7 15.82 -2.62 14.38 C-2.58 13.31 -2.58 13.31 -2.53 12.21 C-2.29 7.83 -1.61 4.14 0 0 Z " fill="#7F364B" transform="translate(69,53)"/>
<path d="M0 0 C-1.71 2.11 -2.52 2.94 -5.26 3.29 C-6.06 3.26 -6.86 3.22 -7.69 3.19 C-8.9 3.15 -8.9 3.15 -10.14 3.11 C-10.75 3.07 -11.37 3.04 -12 3 C-10.25 3.39 -8.5 3.76 -6.75 4.12 C-5.29 4.44 -5.29 4.44 -3.8 4.76 C-0.77 5.02 0.48 4.62 3 3 C3 5.31 3 7.62 3 10 C1.68 9.34 0.36 8.68 -1 8 C-1.33 8.66 -1.66 9.32 -2 10 C-2.66 10 -3.32 10 -4 10 C-4 9.34 -4 8.68 -4 8 C-4.66 8 -5.32 8 -6 8 C-6.33 8.66 -6.66 9.32 -7 10 C-10.74 11.87 -12.61 12 -17 12 C-17.66 8.7 -18.32 5.4 -19 2 C-12.54 0.05 -6.73 -0.22 0 0 Z " fill="#065991" transform="translate(58,83)"/>
<path d="M0 0 C2.17 0.51 4 1 6 2 C6.67 4.11 6.67 4.11 7.19 6.75 C7.46 8.04 7.46 8.04 7.73 9.36 C8.02 12.15 7.69 14.29 7 17 C6.16 16.79 6.16 16.79 5.3 16.57 C2.95 15.99 0.61 15.46 -1.75 14.94 C-2.55 14.76 -3.35 14.58 -4.17 14.4 C-4.78 14.27 -5.38 14.14 -6 14 C-6 13.34 -6 12.68 -6 12 C-5.01 11.67 -4.02 11.34 -3 11 C-2.23 8.96 -2.23 8.96 -1.88 6.56 C-1.06 2.13 -1.06 2.13 0 0 Z " fill="#026AA8" transform="translate(65,18)"/>
<path d="M0 0 C0.33 0 0.66 0 1 0 C0.67 5.61 0.34 11.22 0 17 C-2.97 17.66 -5.94 18.32 -9 19 C-7.35 19.33 -5.7 19.66 -4 20 C-4.66 22.64 -5.32 25.28 -6 28 C-6.66 28 -7.32 28 -8 28 C-7.34 26.02 -6.68 24.04 -6 22 C-7.26 21.73 -8.52 21.46 -9.81 21.19 C-15.18 19.84 -15.18 19.84 -17 17 C-17 16.01 -17 15.02 -17 14 C-15.33 13.96 -13.67 13.96 -12 14 C-11.67 14.33 -11.34 14.66 -11 15 C-9.33 15.04 -7.67 15.04 -6 15 C-8.64 14.01 -11.28 13.02 -14 12 C-10.87 11.22 -8.86 10.89 -5.75 10.94 C-3.89 10.97 -3.89 10.97 -2 11 C-2.04 10.3 -2.08 9.6 -2.12 8.88 C-1.98 5.62 -1.13 3.04 0 0 Z " fill="#9A9897" transform="translate(69,41)"/>
<path d="M0 0 C0.99 0.33 1.98 0.66 3 1 C3.73 3.07 3.73 3.07 4.19 5.56 C4.35 6.39 4.5 7.22 4.67 8.07 C4.78 8.7 4.89 9.34 5 10 C6.65 10.33 8.3 10.66 10 11 C9 13 9 13 7.38 13.62 C4.23 14.12 1.17 14.06 -2 14 C-2.33 14.66 -2.66 15.32 -3 16 C-4.43 9.3 -3.59 5.79 0 0 Z " fill="#0171B2" transform="translate(32,19)"/>
<path d="M0 0 C3 2 3 2 3.68 4.71 C4.52 13.34 4.13 21.97 3.22 30.58 C2.93 33.74 2.93 36.83 3 40 C4.32 39.34 5.64 38.68 7 38 C6.87 38.59 6.73 39.18 6.6 39.79 C5.69 43.85 4.79 47.91 4 52 C2.13 50.43 1.1 49.54 0.65 47.09 C0.66 46.37 0.67 45.66 0.68 44.92 C0.68 44.1 0.68 43.28 0.69 42.44 C0.7 41.55 0.72 40.67 0.74 39.77 C0.75 38.85 0.76 37.94 0.76 37 C0.79 34.09 0.83 31.17 0.88 28.25 C0.91 25.35 0.94 22.44 0.97 19.54 C0.98 17.73 1.01 15.93 1.04 14.12 C1.09 9.29 0.82 4.76 0 0 Z " fill="#0E1E3D" transform="translate(68,34)"/>
<path d="M0 0 C0.99 0 1.98 0 3 0 C3 2.31 3 4.62 3 7 C3.66 7 4.32 7 5 7 C5 5.35 5 3.7 5 2 C6.32 2 7.64 2 9 2 C9 3.32 9 4.64 9 6 C9.66 6.66 10.32 7.32 11 8 C10.38 9.88 10.38 9.88 9 12 C5.88 13.25 5.88 13.25 3 14 C3 13.34 3 12.68 3 12 C2.34 12 1.68 12 1 12 C1.33 13.65 1.66 15.3 2 17 C1.34 16.67 0.68 16.34 0 16 C0.01 15.25 0.02 14.5 0.04 13.73 C0.04 12.75 0.05 11.76 0.06 10.75 C0.07 9.78 0.09 8.8 0.1 7.8 C0.01 5.34 -0.4 3.36 -1 1 C-0.67 0.67 -0.34 0.34 0 0 Z " fill="#B5A9A5" transform="translate(53,35)"/>
<path d="M0 0 C0.66 0 1.32 0 2 0 C2 1.98 2 3.96 2 6 C6.45 5.51 6.45 5.51 11 5 C11.66 3.35 12.32 1.7 13 0 C13.33 0 13.66 0 14 0 C14.33 4.67 13.71 7.17 11 11 C8.36 10.67 5.72 10.34 3 10 C3 11.65 3 13.3 3 15 C2.01 15.33 1.02 15.66 0 16 C0 10.72 0 5.44 0 0 Z " fill="#F4F4F4" transform="translate(32,45)"/>
<path d="M0 0 C0.66 0 1.32 0 2 0 C2.33 1.98 2.66 3.96 3 6 C3.99 5.67 4.98 5.34 6 5 C6.62 5.66 7.24 6.32 7.88 7 C9.76 9.23 9.76 9.23 12 9 C12 9.99 12 10.98 12 12 C11.37 12.13 10.75 12.27 10.1 12.4 C8.88 12.67 8.88 12.67 7.62 12.94 C6.81 13.11 6 13.29 5.16 13.46 C2.97 13.92 2.97 13.92 1 15 C1 14.34 1 13.68 1 13 C0.34 13 -0.32 13 -1 13 C-0.67 8.71 -0.34 4.42 0 0 Z " fill="#01264A" transform="translate(49,16)"/>
<path d="M0 0 C0.29 0.6 0.58 1.2 0.88 1.81 C2.05 4.19 2.05 4.19 4 7 C4.33 7.66 4.66 8.32 5 9 C0.38 9 -4.24 9 -9 9 C-9 9.99 -9 10.98 -9 12 C-10.32 12 -11.64 12 -13 12 C-12.67 10.35 -12.34 8.7 -12 7 C-11.34 7 -10.68 7 -10 7 C-10 6.01 -10 5.02 -10 4 C-8.35 4 -6.7 4 -5 4 C-4.67 3.34 -4.34 2.68 -4 2 C-2.68 2.66 -1.36 3.32 0 4 C0 2.68 0 1.36 0 0 Z " fill="#A34053" transform="translate(56,72)"/>
<path d="M0 0 C-0.33 5.61 -0.66 11.22 -1 17 C-2.32 17.33 -3.64 17.66 -5 18 C-5 16.68 -5 15.36 -5 14 C-5.66 14 -6.32 14 -7 14 C-7 13.01 -7 12.02 -7 11 C-6.34 11 -5.68 11 -5 11 C-4.67 8.69 -4.34 6.38 -4 4 C-6.48 3.01 -6.48 3.01 -9 2 C-5.54 -0.05 -4.41 0 0 0 Z " fill="#DAB1A3" transform="translate(68,58)"/>
<path d="M0 0 C1.65 0 3.3 0 5 0 C5.75 3.19 5.75 3.19 6 7 C4.06 9.94 4.06 9.94 2 12 C1.67 11.34 1.34 10.68 1 10 C-2.03 9.34 -2.03 9.34 -5 9 C-4.67 8.01 -4.34 7.02 -4 6 C-3.01 5.67 -2.02 5.34 -1 5 C-0.67 3.35 -0.34 1.7 0 0 Z " fill="#001A3B" transform="translate(42,10)"/>
<path d="M0 0 C1.65 0.33 3.3 0.66 5 1 C5.08 1.62 5.16 2.24 5.25 2.88 C5.81 5.18 5.81 5.18 8.06 6.25 C8.7 6.5 9.34 6.75 10 7 C10 7.66 10 8.32 10 9 C8.02 9.33 6.04 9.66 4 10 C4 9.34 4 8.68 4 8 C2.35 8 0.7 8 -1 8 C-1.62 5.69 -1.62 5.69 -2 3 C-1.34 2.01 -0.68 1.02 0 0 Z " fill="#001839" transform="translate(54,10)"/>
<path d="M0 0 C2.56 2.06 2.56 2.06 5 5 C4.81 8.81 4.81 8.81 4 12 C2.06 12.56 2.06 12.56 0 13 C-1 12 -1 12 -1.13 9.53 C-1.13 8.53 -1.13 7.53 -1.12 6.5 C-1.13 5.5 -1.13 4.5 -1.13 3.47 C-1 1 -1 1 0 0 Z " fill="#DBB2A2" transform="translate(35,62)"/>
<path d="M0 0 C1 2 2 4 3 6 C5.02 6.65 5.02 6.65 7 7 C6.29 7.49 6.29 7.49 5.56 8 C3.5 10.64 3.51 12.78 3.31 16.06 C3 18 3 18 1 21 C1 22.32 1 23.64 1 25 C0.34 25 -0.32 25 -1 25 C-1 20.71 -1 16.42 -1 12 C-0.67 12 -0.34 12 0 12 C0 8.04 0 4.08 0 0 Z " fill="#015991" transform="translate(27,27)"/>
<path d="M0 0 C0.99 0 1.98 0 3 0 C3.33 1.98 3.66 3.96 4 6 C-0.29 6 -4.58 6 -9 6 C-8.34 4.35 -7.68 2.7 -7 1 C-5.35 1.33 -3.7 1.66 -2 2 C-2 2.99 -2 3.98 -2 5 C-1.34 5 -0.68 5 0 5 C-0.28 4.04 -0.28 4.04 -0.56 3.06 C-0.71 2.38 -0.85 1.7 -1 1 C-0.67 0.67 -0.34 0.34 0 0 Z " fill="#D6B7AC" transform="translate(41,37)"/>
<path d="M0 0 C0.99 0 1.98 0 3 0 C3.06 0.99 3.12 1.97 3.18 2.99 C3.27 4.27 3.35 5.55 3.44 6.88 C3.52 8.15 3.6 9.43 3.68 10.74 C3.79 13.88 3.79 13.88 5 16 C3.35 15.67 1.7 15.34 0 15 C0 10.05 0 5.1 0 0 Z " fill="#F3F3F3" transform="translate(10,43)"/>
<path d="M0 0 C0.66 0 1.32 0 2 0 C2.33 6.27 2.66 12.54 3 19 C4.65 18.67 6.3 18.34 8 18 C8.33 19.32 8.66 20.64 9 22 C2.12 21.12 2.12 21.12 1 20 C-0.08 13.38 -0.13 6.69 0 0 Z " fill="#72364D" transform="translate(32,63)"/>
<path d="M0 0 C1.46 -0.03 2.92 -0.05 4.38 -0.06 C5.19 -0.07 6 -0.09 6.84 -0.1 C9 0 9 0 11 1 C11.62 4.06 11.62 4.06 12 7 C10.35 6.67 8.7 6.34 7 6 C6.67 7.32 6.34 8.64 6 10 C5.34 9.67 4.68 9.34 4 9 C4 7.35 4 5.7 4 4 C4.99 4 5.98 4 7 4 C7 3.34 7 2.68 7 2 C5.68 2.33 4.36 2.66 3 3 C3 2.34 3 1.68 3 1 C2.01 0.67 1.02 0.34 0 0 Z " fill="#904053" transform="translate(57,32)"/>
<path d="M0 0 C0 0.99 0 1.98 0 3 C1.65 3 3.3 3 5 3 C5 3.66 5 4.32 5 5 C2.69 5 0.38 5 -2 5 C-2.66 6.65 -3.32 8.3 -4 10 C-4.99 10 -5.98 10 -7 10 C-6.55 8.52 -6.09 7.04 -5.62 5.56 C-5.37 4.74 -5.11 3.92 -4.85 3.07 C-3.74 0.37 -2.88 0 0 0 Z " fill="#EDEDEF" transform="translate(81,51)"/>
<path d="M0 0 C2.06 0.44 2.06 0.44 4 1 C2.02 2.65 0.04 4.3 -2 6 C-2.33 5.34 -2.66 4.68 -3 4 C-5.82 3.53 -5.82 3.53 -9.06 3.38 C-10.72 3.26 -10.72 3.26 -12.41 3.15 C-13.26 3.1 -14.12 3.05 -15 3 C-11.79 1.09 -9.52 0.8 -5.81 0.94 C-4.21 0.99 -2.6 1.02 -1 1 C-0.67 0.67 -0.34 0.34 0 0 Z " fill="#00315A" transform="translate(57,84)"/>
<path d="M0 0 C0.33 0 0.66 0 1 0 C1.19 2.12 1.38 4.25 1.56 6.38 C1.67 7.56 1.77 8.74 1.88 9.96 C2 13 2 13 1 15 C0.67 15.99 0.34 16.98 0 18 C0 17.34 0 16.68 0 16 C-1.32 15.34 -2.64 14.68 -4 14 C-3.34 14 -2.68 14 -2 14 C-1.94 13.24 -1.88 12.48 -1.82 11.7 C-1.69 10.21 -1.69 10.21 -1.56 8.69 C-1.48 7.7 -1.4 6.72 -1.32 5.7 C-1 3 -1 3 0 0 Z " fill="#023963" transform="translate(26,27)"/>
<path d="M0 0 C0.33 0 0.66 0 1 0 C1.11 2.61 1.19 5.21 1.25 7.81 C1.3 8.92 1.3 8.92 1.35 10.05 C1.45 15.48 1.45 15.48 -0.75 18.03 C-4.46 19.63 -7.08 18.72 -11 18 C-11 17.67 -11 17.34 -11 17 C-7.97 16.76 -7.97 16.76 -4.95 16.51 C-2.6 16.13 -2.6 16.13 -1 13 C-0.54 9.8 -0.54 9.8 -0.38 6.31 C-0.3 5.13 -0.23 3.95 -0.15 2.74 C-0.1 1.83 -0.05 0.93 0 0 Z " fill="#73777C" transform="translate(24,44)"/>
<path d="M0 0 C0.66 0 1.32 0 2 0 C2.33 1.32 2.66 2.64 3 4 C3.6 4.14 4.2 4.29 4.81 4.44 C6.56 4.89 8.29 5.43 10 6 C11.19 9.06 11.19 9.06 12 12 C11.01 11.67 10.02 11.34 9 11 C9 10.34 9 9.68 9 9 C7.68 9 6.36 9 5 9 C5 8.01 5 7.02 5 6 C4.01 5.67 3.02 5.34 2 5 C0.81 2.44 0.81 2.44 0 0 Z " fill="#012849" transform="translate(30,84)"/>
<path d="M0 0 C0.66 0 1.32 0 2 0 C2 0.66 2 1.32 2 2 C3.32 2 4.64 2 6 2 C6 2.66 6 3.32 6 4 C6.95 3.96 7.9 3.92 8.88 3.88 C12 4 12 4 14 6 C12.58 6.03 11.17 6.05 9.75 6.06 C8.57 6.08 8.57 6.08 7.36 6.1 C5.09 6 3.17 5.63 1 5 C0.67 3.35 0.34 1.7 0 0 Z " fill="#F1F1F1" transform="translate(54,47)"/>
<path d="M0 0 C1.32 0.33 2.64 0.66 4 1 C4.33 2.98 4.66 4.96 5 7 C4.4 6.84 3.8 6.67 3.19 6.5 C0.89 5.89 0.89 5.89 -2 6 C-1.34 4.02 -0.68 2.04 0 0 Z " fill="#F2F2F2" transform="translate(82,43)"/>
<path d="M0 0 C2.34 2.13 3.71 4.12 5 7 C5.33 7 5.66 7 6 7 C6 8.65 6 10.3 6 12 C5.34 12 4.68 12 4 12 C3.67 12.66 3.34 13.32 3 14 C2.34 13.67 1.68 13.34 1 13 C1.01 12.4 1.02 11.79 1.04 11.17 C1.04 10.37 1.05 9.57 1.06 8.75 C1.07 7.96 1.09 7.17 1.1 6.36 C1 4.09 0.63 2.17 0 0 Z " fill="#012543" transform="translate(27,67)"/>
<path d="M0 0 C1.65 0 3.3 0 5 0 C4.01 0.49 4.01 0.49 3 1 C3.33 4.3 3.66 7.6 4 11 C0 8 0 8 -1 5 C-0.56 2.31 -0.56 2.31 0 0 Z " fill="#685F5F" transform="translate(35,55)"/>
<path d="M0 0 C1.65 0.33 3.3 0.66 5 1 C5 3.31 5 5.62 5 8 C3.02 6.68 1.04 5.36 -1 4 C-0.67 2.68 -0.34 1.36 0 0 Z " fill="#DFB6A8" transform="translate(64,38)"/>
<path d="M0 0 C2.31 0 4.62 0 7 0 C7 1.32 7 2.64 7 4 C4.69 4.33 2.38 4.66 0 5 C0 3.35 0 1.7 0 0 Z " fill="#DCB2A2" transform="translate(53,71)"/>
<path d="M0 0 C0.66 0.33 1.32 0.66 2 1 C2 1.66 2 2.32 2 3 C1.01 3 0.02 3 -1 3 C-1.33 4.32 -1.66 5.64 -2 7 C-3.65 7 -5.3 7 -7 7 C-7 6.34 -7 5.68 -7 5 C-6.34 5 -5.68 5 -5 5 C-4.67 4.01 -4.34 3.02 -4 2 C-3.34 2.33 -2.68 2.66 -2 3 C-2 2.34 -2 1.68 -2 1 C-1.34 0.67 -0.68 0.34 0 0 Z " fill="#012B4B" transform="translate(70,87)"/>
<path d="M0 0 C0.33 1.32 0.66 2.64 1 4 C1.99 4 2.98 4 4 4 C4.33 5.65 4.66 7.3 5 9 C3.68 9 2.36 9 1 9 C1 8.34 1 7.68 1 7 C0.01 7.33 -0.98 7.66 -2 8 C-1.34 5.36 -0.68 2.72 0 0 Z " fill="#86898C" transform="translate(80,44)"/>
<path d="M0 0 C1.48 0.99 1.48 0.99 3 2 C3 2.66 3 3.32 3 4 C3.66 4 4.32 4 5 4 C5.33 3.34 5.66 2.68 6 2 C6 2.66 6 3.32 6 4 C6.99 3.67 7.98 3.34 9 3 C9 3.66 9 4.32 9 5 C4.55 5.5 4.55 5.5 0 6 C-1 3 -1 3 0 0 Z " fill="#014576" transform="translate(41,89)"/>
<path d="M0 0 C0.66 0 1.32 0 2 0 C2 0.99 2 1.98 2 3 C2.66 3 3.32 3 4 3 C4.33 2.34 4.66 1.68 5 1 C5 1.66 5 2.32 5 3 C6.32 3.33 7.64 3.66 9 4 C9 4.66 9 5.32 9 6 C8.34 6 7.68 6 7 6 C7 6.66 7 7.32 7 8 C6.34 8 5.68 8 5 8 C5 6.68 5 5.36 5 4 C4.01 4.33 3.02 4.66 2 5 C1.34 3.35 0.68 1.7 0 0 Z " fill="#182A48" transform="translate(25,57)"/>
<path d="M0 0 C0.69 1.81 0.69 1.81 1 4 C-0.31 5.44 -0.31 5.44 -2 7 C-3.19 9.6 -3.19 9.6 -4 12 C-4.99 11.67 -5.98 11.34 -7 11 C-6.02 9.35 -5.04 7.71 -4.06 6.06 C-3.52 5.15 -2.97 4.23 -2.41 3.29 C-1 1 -1 1 0 0 Z " fill="#022C4B" transform="translate(33,15)"/>
<path d="M0 0 C2.48 0.5 2.48 0.5 5 1 C4.67 2.32 4.34 3.64 4 5 C2.68 5.33 1.36 5.66 0 6 C0 4.02 0 2.04 0 0 Z " fill="#D9B0A1" transform="translate(41,70)"/>
<path d="M0 0 C1.32 0.33 2.64 0.66 4 1 C4 2.65 4 4.3 4 6 C2.68 5.67 1.36 5.34 0 5 C0 3.35 0 1.7 0 0 Z " fill="#D8AFA0" transform="translate(46,35)"/>
<path d="M0 0 C1.48 0.99 1.48 0.99 3 2 C2.01 2.49 2.01 2.49 1 3 C1.33 4.65 1.66 6.3 2 8 C1.34 8 0.68 8 0 8 C-0.33 8.66 -0.66 9.32 -1 10 C-1.12 2.25 -1.12 2.25 0 0 Z " fill="#031C3C" transform="translate(74,61)"/>
<path d="M0 0 C0.99 0 1.98 0 3 0 C3.33 1.98 3.66 3.96 4 6 C2.68 5.67 1.36 5.34 0 5 C-0.56 3.06 -0.56 3.06 -1 1 C-0.67 0.67 -0.34 0.34 0 0 Z " fill="#C29F92" transform="translate(41,37)"/>
<path d="M0 0 C0.99 0.33 1.98 0.66 3 1 C2.67 2.65 2.34 4.3 2 6 C1.01 6 0.02 6 -1 6 C-1.04 4.33 -1.04 2.67 -1 1 C-0.67 0.67 -0.34 0.34 0 0 Z " fill="#CBA496" transform="translate(59,36)"/>
<path d="M0 0 C1.32 1.32 2.64 2.64 4 4 C2.35 4.66 0.7 5.32 -1 6 C-1.99 4.68 -2.98 3.36 -4 2 C-2.68 1.34 -1.36 0.68 0 0 Z " fill="#06578F" transform="translate(43,27)"/>
<path d="M0 0 C2.87 0.57 3.86 0.86 6 3 C5.01 3.5 5.01 3.5 4 4 C3.34 3.67 2.68 3.34 2 3 C1.34 4.32 0.68 5.64 0 7 C-1.04 3.87 -0.93 3.01 0 0 Z " fill="#907A72" transform="translate(40,68)"/>
<path d="M0 0 C-1.19 1.5 -1.19 1.5 -3 3 C-5.69 3.19 -5.69 3.19 -8 3 C-8.33 2.34 -8.66 1.68 -9 1 C-5.93 0.09 -3.2 -0.09 0 0 Z " fill="#F8F8F8" transform="translate(68,58)"/>
<path d="M0 0 C0.99 0 1.98 0 3 0 C3 1.98 3 3.96 3 6 C2.01 6 1.02 6 0 6 C0 4.02 0 2.04 0 0 Z " fill="#C4AFA8" transform="translate(34,45)"/>
<path d="M0 0 C0.33 0 0.66 0 1 0 C1.29 8.57 1.29 8.57 -1 12 C-2.37 7.48 -1.47 4.41 0 0 Z " fill="#A18A83" transform="translate(69,41)"/>
</svg>
