<?xml version="1.0" encoding="UTF-8"?>
<svg version="1.1" xmlns="http://www.w3.org/2000/svg" width="200" height="200">
<path d="M0 0 C0 33 0 66 0 100 C38.22702714 103.92309842 38.22702714 103.92309842 47 94 C47.73019139 91.94666369 47.73019139 91.94666369 47.63923645 89.8301239 C47.65452393 89.0323201 47.6698114 88.2345163 47.68556213 87.41253662 C47.67693649 86.55154358 47.66831085 85.69055054 47.65942383 84.8034668 C47.66990753 83.88590103 47.68039124 82.96833527 47.69119263 82.02296448 C47.71993358 78.99803819 47.71365212 75.97425707 47.70703125 72.94921875 C47.72014683 70.84884711 47.73545062 68.74848808 47.75285339 66.64814758 C47.79273233 61.1259802 47.80289575 55.60414255 47.80688477 50.08184814 C47.81785097 43.45289648 47.8657001 36.82412096 47.90737152 30.19530487 C47.96651401 20.13005507 47.97878464 10.06572312 48 0 C64.83 0 81.66 0 99 0 C99.16043524 24.71593962 99.16043524 24.71593962 99.1953125 35.25390625 C99.21922096 42.44364229 99.24750052 49.6331745 99.30175781 56.82275391 C99.34522898 62.61937061 99.36914013 68.41576872 99.37950897 74.21253586 C99.38689798 76.4237347 99.40132696 78.63492162 99.42292023 80.84602737 C99.4519704 83.944001 99.45595523 87.04107217 99.45410156 90.13916016 C99.47567322 91.50941345 99.47567322 91.50941345 99.49768066 92.90734863 C99.44504889 101.04011435 96.09832674 105.16065262 90.41503906 110.81201172 C89.51440735 111.71249237 88.61377563 112.61297302 87.68585205 113.54074097 C86.71255086 114.50383213 85.7391393 115.46681175 84.765625 116.4296875 C83.76199308 117.429584 82.75880571 118.4299269 81.75604248 119.43069458 C79.13012319 122.0490191 76.4982515 124.66127845 73.86505127 127.27227783 C71.17330694 129.94347372 68.48729538 132.6204208 65.80078125 135.296875 C60.5394164 140.53686336 55.2717435 145.77045111 50 151 C46.43310243 149.48496802 44.16244373 147.39944022 41.44677734 144.65795898 C40.55260101 143.7604039 39.65842468 142.86284882 38.7371521 141.93809509 C37.77004874 140.95745936 36.80297799 139.97679148 35.8359375 138.99609375 C34.83804564 137.99192861 33.83963497 136.98827879 32.84072876 135.98512268 C30.21674832 133.34786017 27.59839906 130.70508329 24.98162842 128.06066895 C20.78741723 123.8232776 16.586417 119.59264289 12.3821907 115.36519051 C10.91404164 113.88680667 9.44934522 112.40506421 7.98495483 110.92295837 C7.09708282 110.02855545 6.20921082 109.13415253 5.29443359 108.21264648 C4.12006241 107.02589577 4.12006241 107.02589577 2.92196655 105.81517029 C-0.92705501 102.180024 -4.89760485 102.84840052 -9.91796875 102.82421875 C-11.74805825 102.8010101 -13.57813639 102.77689235 -15.40820312 102.75195312 C-18.29377719 102.71691559 -21.17893691 102.68753996 -24.06469727 102.67407227 C-26.84963367 102.65852999 -29.63335589 102.61826981 -32.41796875 102.57421875 C-33.69960152 102.57708138 -33.69960152 102.57708138 -35.00712585 102.58000183 C-40.80126138 102.46259843 -44.3349052 101.53302294 -49 98 C-52.52518122 93.10214613 -52.3998079 88.46254008 -52.29296875 82.6640625 C-52.28994751 81.88377686 -52.28692627 81.10349121 -52.28381348 80.29956055 C-52.26821556 77.40790421 -52.226332 74.51643766 -52.1875 71.625 C-52.125625 65.14875 -52.06375 58.6725 -52 52 C-68.17 52 -84.34 52 -101 52 C-95.70593936 41.41187872 -86.09978046 32.39190297 -78.0625 23.75 C-77.53882843 23.18545105 -77.01515686 22.6209021 -76.47561646 22.03924561 C-52.43826463 -3.65837969 -36.15801555 -4.82106874 0 0 Z " fill="#00FED4" transform="translate(101,24)"/>
</svg>
