<?xml version="1.0" encoding="UTF-8"?>
<!-- Generator: https://ezgif.com/png-to-svg -->
<svg version="1.1" xmlns="http://www.w3.org/2000/svg" width="512" height="512" viewBox="-1.505 20.492 214.76 214.76" preserveAspectRatio="xMidYMid meet">
<path d="M0 0 C1.53 0.01 1.53 0.01 3.08 0.02 C6.87 0.04 10.66 0.11 14.45 0.18 C27.16 0.33 27.16 0.33 40.14 0.49 C40.14 32.17 40.14 63.85 40.14 96.49 C62.65 98.67 62.65 98.67 81.14 91.49 C81.47 90.83 81.8 90.17 82.14 89.49 C82.8 89.49 83.46 89.49 84.14 89.49 C84.14 60.12 84.14 30.75 84.14 0.49 C100.64 0.49 117.14 0.49 134.14 0.49 C134.38 24.09 134.38 24.09 134.43 34.17 C134.47 41.05 134.51 47.92 134.59 54.79 C134.65 60.34 134.69 65.88 134.71 71.42 C134.72 73.54 134.74 75.65 134.77 77.76 C134.81 80.72 134.82 83.69 134.82 86.65 C134.84 87.52 134.86 88.38 134.88 89.28 C134.8 97.16 131.17 102.08 126.05 107.83 C125.48 108.36 124.91 108.88 124.32 109.43 C121.88 111.69 121.88 111.69 120.14 114.49 C119.48 114.49 118.82 114.49 118.14 114.49 C118.14 115.15 118.14 115.81 118.14 116.49 C117.48 116.49 116.82 116.49 116.14 116.49 C115.87 117.13 115.6 117.77 115.32 118.43 C114.14 120.49 114.14 120.49 111.14 121.49 C110.85 122.07 110.56 122.64 110.26 123.24 C108.74 126.28 106.65 128.23 104.14 130.49 C103.48 130.49 102.82 130.49 102.14 130.49 C101.92 131.02 101.71 131.55 101.49 132.1 C99.61 135.42 97.09 138.02 94.45 140.74 C93.94 141.29 93.44 141.85 92.92 142.42 C90.04 145.38 88.67 146.4 84.46 147.07 C80.71 146.41 79.81 145.86 77.57 142.86 C75.4 140.09 73.26 137.54 70.7 135.11 C68.14 132.49 68.14 132.49 68.14 130.49 C67.3 130.15 67.3 130.15 66.45 129.8 C63.48 128.11 61.42 126.02 59.14 123.49 C59.14 122.83 59.14 122.17 59.14 121.49 C58.58 121.26 58.02 121.03 57.45 120.8 C52.22 117.83 48.54 112.7 44.69 108.16 C43.22 106.39 43.22 106.39 41.14 105.49 C41.14 104.83 41.14 104.17 41.14 103.49 C40.48 103.49 39.82 103.49 39.14 103.49 C38.81 102.83 38.48 102.17 38.14 101.49 C36.71 101.45 36.71 101.45 35.25 101.41 C31.68 101.32 28.1 101.22 24.53 101.12 C22.99 101.07 21.45 101.03 19.91 100.99 C-2.26 100.41 -2.26 100.41 -6.8 97.8 C-11.3 92.76 -11.14 86.99 -11.06 80.59 C-11.06 79.85 -11.05 79.11 -11.05 78.34 C-11.04 75.6 -11.01 72.86 -10.99 70.11 C-10.95 63.97 -10.91 57.82 -10.86 51.49 C-26.04 51.49 -41.22 51.49 -56.86 51.49 C-56.86 49.84 -56.86 48.19 -56.86 46.49 C-56.24 46.24 -55.63 45.99 -54.99 45.74 C-52.76 44.69 -52.76 44.69 -52.03 42.72 C-50.49 39.77 -48.44 37.86 -46.07 35.53 C-45.6 35.07 -45.12 34.6 -44.64 34.12 C-43.13 32.63 -41.62 31.15 -40.11 29.68 C-32.43 22.23 -32.43 22.23 -25.29 14.29 C-24.09 12.9 -24.09 12.9 -22.86 11.49 C-22.2 11.49 -21.54 11.49 -20.86 11.49 C-20.86 10.83 -20.86 10.17 -20.86 9.49 C-20.2 9.49 -19.54 9.49 -18.86 9.49 C-18.64 8.93 -18.41 8.37 -18.18 7.8 C-13.55 -0.35 -8.65 -0.2 0 0 Z " fill="#00FED3" transform="translate(66.86328125,54.51171875)"/>
<path d="M0 0 C0.66 0 1.32 0 2 0 C2 31.68 2 63.36 2 96 C14.21 96 26.42 96 39 96 C39 96.33 39 96.66 39 97 C34.96 97.94 31.09 98.19 26.95 98.32 C26.29 98.34 25.63 98.36 24.95 98.38 C22.86 98.44 20.78 98.5 18.69 98.56 C17.26 98.61 15.84 98.65 14.42 98.69 C10.95 98.8 7.47 98.9 4 99 C4.98 99.64 4.98 99.64 5.98 100.3 C6.65 100.86 7.31 101.42 8 102 C8.25 105.19 8.25 105.19 8 108 C9.65 108 11.3 108 13 108 C13 109.98 13 111.96 13 114 C5.75 108.07 5.75 108.07 3 105 C3 104.34 3 103.68 3 103 C2.34 103 1.68 103 1 103 C0.67 102.34 0.34 101.68 0 101 C-1.43 100.96 -1.43 100.96 -2.89 100.92 C-6.46 100.83 -10.03 100.73 -13.6 100.63 C-15.14 100.58 -16.68 100.54 -18.22 100.5 C-40.55 99.92 -40.55 99.92 -45.06 97.06 C-47 95 -47 95 -47 93 C-44.69 93 -42.38 93 -40 93 C-39.67 93.99 -39.34 94.98 -39 96 C-39.5 96.5 -39.5 96.5 -40 97 C-26.8 97 -13.6 97 0 97 C0 64.99 0 32.98 0 0 Z " fill="#24DDC6" transform="translate(105,55)"/>
<path d="M0 0 C0.33 0 0.66 0 1 0 C1.14 12.36 1.25 24.72 1.31 37.08 C1.34 42.82 1.38 48.57 1.45 54.31 C1.52 59.85 1.55 65.39 1.57 70.94 C1.58 73.05 1.6 75.16 1.63 77.27 C1.68 80.24 1.68 83.2 1.68 86.17 C1.71 87.46 1.71 87.46 1.75 88.79 C1.68 95.5 -0.63 99.93 -5 105 C-5.99 105.5 -5.99 105.5 -7 106 C-7 103.69 -7 101.38 -7 99 C-7.99 99 -8.98 99 -10 99 C-10 98.34 -10 97.68 -10 97 C-10.66 97 -11.32 97 -12 97 C-12 94.69 -12 92.38 -12 90 C-10.02 89.5 -10.02 89.5 -8 89 C-8 90.32 -8 91.64 -8 93 C-6.68 93 -5.36 93 -4 93 C-3.86 92.36 -3.71 91.72 -3.56 91.06 C-3 89 -3 89 -2 88 C-1.85 86.46 -1.77 84.92 -1.72 83.38 C-1.68 82.33 -1.65 81.27 -1.61 80.19 C-1.55 78.39 -1.55 78.39 -1.5 76.56 C-1.46 75.31 -1.42 74.05 -1.38 72.76 C-0.65 48.51 -0.38 24.25 0 0 Z " fill="#00D0B7" transform="translate(200,55)"/>
<path d="M0 0 C0.33 0.66 0.66 1.32 1 2 C-0.25 4.62 -0.25 4.62 -2 7 C-2.99 7 -3.98 7 -5 7 C-4.67 7.66 -4.34 8.32 -4 9 C-1.98 9.65 -1.98 9.65 0 10 C0 10.66 0 11.32 0 12 C-2.64 12.66 -5.28 13.32 -8 14 C-8 14.66 -8 15.32 -8 16 C-9.32 16 -10.64 16 -12 16 C-14.09 18.54 -14.09 18.54 -14 20 C-14 21.32 -14 22.64 -14 24 C-17.11 24 -19.11 23.83 -22 23 C-20.75 21.58 -19.5 20.17 -18.25 18.75 C-17.55 17.96 -16.86 17.17 -16.14 16.36 C-14.15 14.16 -12.19 12 -10 10 C-9.34 10 -8.68 10 -8 10 C-8 9.34 -8 8.68 -8 8 C-7.34 8 -6.68 8 -6 8 C-5.75 7.42 -5.5 6.84 -5.25 6.25 C-3.83 3.7 -2.12 1.98 0 0 Z " fill="#03E2BC" transform="translate(54,56)"/>
<path d="M0 0 C2.31 0 4.62 0 7 0 C7.33 0.99 7.66 1.98 8 3 C7.67 3.33 7.34 3.66 7 4 C26.8 4.5 26.8 4.5 47 5 C47 5.66 47 6.32 47 7 C42.47 7.02 37.93 7.04 33.4 7.05 C31.86 7.06 30.32 7.07 28.78 7.08 C6.89 7.2 6.89 7.2 1.94 4.06 C0 2 0 2 0 0 Z " fill="#02B5A0" transform="translate(58,148)"/>
<path d="M0 0 C0.66 0 1.32 0 2 0 C1.72 4.68 -0.33 6.75 -3.53 9.86 C-5 11 -5 11 -7 11 C-7.21 11.56 -7.41 12.11 -7.62 12.69 C-9.55 15.93 -12.04 17.68 -15 20 C-15.33 19.01 -15.66 18.02 -16 17 C-15.34 17 -14.68 17 -14 17 C-14.33 16.01 -14.66 15.02 -15 14 C-14.36 13.71 -13.72 13.42 -13.06 13.12 C-10.85 12.17 -10.85 12.17 -10 10 C-8.68 10 -7.36 10 -6 10 C-6.02 9.2 -6.04 8.39 -6.06 7.56 C-6 5 -6 5 -5 4 C-3.33 3.96 -1.67 3.96 0 4 C0 2.68 0 1.36 0 0 Z " fill="#00EDC5" transform="translate(176,174)"/>
<path d="M0 0 C0.33 0 0.66 0 1 0 C1 1.98 1 3.96 1 6 C1.99 6 2.98 6 4 6 C3.67 9.63 3.34 13.26 3 17 C2.67 17 2.34 17 2 17 C1.67 23.93 1.34 30.86 1 38 C0.67 38 0.34 38 0 38 C0 25.46 0 12.92 0 0 Z " fill="#008D7B" transform="translate(56,106)"/>
<path d="M0 0 C2.64 0.33 5.28 0.66 8 1 C8 3.31 8 5.62 8 8 C9.65 8 11.3 8 13 8 C13 9.98 13 11.96 13 14 C5.75 8.07 5.75 8.07 3 5 C3 4.34 3 3.68 3 3 C2.34 3 1.68 3 1 3 C0.67 2.01 0.34 1.02 0 0 Z " fill="#08E2BA" transform="translate(105,155)"/>
<path d="M0 0 C0.66 0.33 1.32 0.66 2 1 C1.34 2.32 0.68 3.64 0 5 C7.92 5.33 15.84 5.66 24 6 C24 6.33 24 6.66 24 7 C15.42 7 6.84 7 -2 7 C-2 2 -2 2 0 0 Z " fill="#03CDAE" transform="translate(12,99)"/>
<path d="M0 0 C2.47 0.5 2.47 0.5 5 1 C5 1.66 5 2.32 5 3 C5.99 2.67 6.98 2.34 8 2 C8.66 3.65 9.32 5.3 10 7 C9.34 7.66 8.68 8.32 8 9 C6.99 8.05 6 7.09 5 6.12 C4.44 5.59 3.89 5.06 3.31 4.51 C2 3 2 3 2 1 C1.34 0.67 0.68 0.34 0 0 Z " fill="#01D4B2" transform="translate(124,175)"/>
<path d="M0 0 C0.66 0 1.32 0 2 0 C1.67 1.32 1.34 2.64 1 4 C0.34 4 -0.32 4 -1 4 C-1 4.66 -1 5.32 -1 6 C-1.66 6 -2.32 6 -3 6 C-3.29 6.64 -3.58 7.28 -3.88 7.94 C-5 10 -5 10 -7 11 C-6.67 9.02 -6.34 7.04 -6 5 C-5.01 5 -4.02 5 -3 5 C-2.67 3.68 -2.34 2.36 -2 1 C-1.34 1.33 -0.68 1.66 0 2 C0 1.34 0 0.68 0 0 Z " fill="#01C2A3" transform="translate(186,165)"/>
<path d="M0 0 C2.31 0 4.62 0 7 0 C7.33 0.99 7.66 1.98 8 3 C7.67 3.33 7.34 3.66 7 4 C7.66 4.66 8.32 5.32 9 6 C3.51 5.39 3.51 5.39 1.12 3.56 C0 2 0 2 0 0 Z " fill="#00C19E" transform="translate(58,148)"/>
<path d="M0 0 C0.66 0.99 1.32 1.98 2 3 C0.81 5 0.81 5 -1 7 C-3.69 7.25 -3.69 7.25 -6 7 C-4.02 4.69 -2.04 2.38 0 0 Z " fill="#06C09B" transform="translate(20,91)"/>
<path d="M0 0 C0.66 0 1.32 0 2 0 C2 1.65 2 3.3 2 5 C1.01 5.33 0.02 5.66 -1 6 C-1 6.66 -1 7.32 -1 8 C-2.32 7.34 -3.64 6.68 -5 6 C-4.36 5.38 -3.72 4.76 -3.06 4.12 C-0.96 2.17 -0.96 2.17 0 0 Z " fill="#05D3AF" transform="translate(149,144)"/>
<path d="M0 0 C0.66 0 1.32 0 2 0 C1.69 3.67 1.24 4.78 -1.56 7.31 C-2.37 7.87 -3.17 8.43 -4 9 C-4.33 8.01 -4.66 7.02 -5 6 C-4.34 5.34 -3.68 4.68 -3 4 C-2.01 4 -1.02 4 0 4 C0 2.68 0 1.36 0 0 Z " fill="#01BC9F" transform="translate(176,174)"/>
<path d="M0 0 C0.66 0 1.32 0 2 0 C2.66 1.98 3.32 3.96 4 6 C2.68 5.67 1.36 5.34 0 5 C-0.33 5.66 -0.66 6.32 -1 7 C-1.66 6.01 -2.32 5.02 -3 4 C-2.34 3.67 -1.68 3.34 -1 3 C-0.67 2.01 -0.34 1.02 0 0 Z " fill="#00E4B0" transform="translate(124,168)"/>
<path d="M0 0 C1.32 0.66 2.64 1.32 4 2 C2.35 3.65 0.7 5.3 -1 7 C-1.04 5 -1.04 3 -1 1 C-0.67 0.67 -0.34 0.34 0 0 Z " fill="#00C9A7" transform="translate(194,154)"/>
<path d="M0 0 C0.33 0.66 0.66 1.32 1 2 C-0.44 4.62 -0.44 4.62 -2 7 C-3.32 6.67 -4.64 6.34 -6 6 C-4.02 4.02 -2.04 2.04 0 0 Z " fill="#01A78C" transform="translate(54,56)"/>
<path d="M0 0 C1.98 0 3.96 0 6 0 C6 1.98 6 3.96 6 6 C3.98 4.36 1.98 2.69 0 1 C0 0.67 0 0.34 0 0 Z " fill="#04CBA4" transform="translate(112,163)"/>
</svg>
