<?xml version="1.0" encoding="UTF-8"?>
<!-- Generator: https://ezgif.com/png-to-svg -->
<svg version="1.1" xmlns="http://www.w3.org/2000/svg" width="512" height="512" viewBox="-199.412 -53.512 998.894 998.894" preserveAspectRatio="xMidYMid meet">
<path d="M0 0 C198 0 396 0 600 0 C600.16 154.18 600.16 154.18 600.19 213.34 C600.2 228.81 600.21 244.27 600.22 259.74 C600.22 261.61 600.22 263.48 600.22 265.36 C600.24 295.14 600.27 324.92 600.31 354.7 C600.34 385.33 600.37 415.96 600.38 446.59 C600.38 450.92 600.38 455.26 600.38 459.59 C600.38 460.87 600.38 460.87 600.38 462.17 C600.39 475.86 600.4 489.55 600.43 503.23 C600.45 517.02 600.46 530.8 600.45 544.59 C600.45 552.76 600.46 560.93 600.48 569.11 C600.5 575.24 600.5 581.37 600.48 587.5 C600.48 589.96 600.49 592.42 600.5 594.88 C600.81 659.19 577.43 725.56 536 775 C535.1 776.09 534.2 777.19 533.3 778.28 C522.16 791.7 510.36 804.76 497 816 C496.5 816.43 495.99 816.87 495.47 817.31 C478.85 831.58 460.42 843.87 441 854 C440.37 854.33 439.74 854.67 439.08 855.01 C412.81 868.82 385.08 878.18 356 884 C355.02 884.21 354.04 884.42 353.03 884.64 C318.68 891.87 278.28 891.4 244 884 C242.93 883.79 241.86 883.57 240.75 883.35 C197.57 874.68 156.21 856.53 121 830 C120.13 829.34 120.13 829.34 119.24 828.67 C111.75 823 104.64 817.03 97.79 810.61 C95.26 808.24 92.67 805.96 90.06 803.69 C79.73 794.38 70.7 783.85 62.33 772.77 C61.45 771.6 60.56 770.43 59.67 769.26 C51.29 758.36 44 746.83 37 735 C36.61 734.35 36.22 733.69 35.82 733.02 C10.59 689.82 -0.74 638.73 -0.48 589.13 C-0.48 586.56 -0.49 584 -0.49 581.43 C-0.5 575.91 -0.49 570.4 -0.48 564.88 C-0.45 556.68 -0.45 548.48 -0.45 540.27 C-0.46 526.47 -0.45 512.66 -0.42 498.85 C-0.4 485.2 -0.38 471.55 -0.38 457.9 C-0.38 457.05 -0.38 456.2 -0.38 455.32 C-0.38 450.99 -0.38 446.67 -0.37 442.34 C-0.37 411.77 -0.34 381.2 -0.3 350.63 C-0.26 320.95 -0.24 291.27 -0.22 261.59 C-0.22 259.72 -0.22 257.85 -0.22 255.98 C-0.21 240.79 -0.2 225.59 -0.19 210.4 C-0.15 140.26 -0.07 70.13 0 0 Z " fill="#FEFDFD" transform="translate(0,0)"/>
<path d="M0 0 C198 0 396 0 600 0 C600.16 154.18 600.16 154.18 600.19 213.34 C600.2 228.81 600.21 244.27 600.22 259.74 C600.22 261.61 600.22 263.48 600.22 265.36 C600.24 295.14 600.27 324.92 600.31 354.7 C600.34 385.33 600.37 415.96 600.38 446.59 C600.38 450.92 600.38 455.26 600.38 459.59 C600.38 460.87 600.38 460.87 600.38 462.17 C600.39 475.86 600.4 489.55 600.43 503.23 C600.45 517.02 600.46 530.8 600.45 544.59 C600.45 552.76 600.46 560.93 600.48 569.11 C600.5 575.24 600.5 581.37 600.48 587.5 C600.48 589.96 600.49 592.42 600.5 594.88 C600.81 659.19 577.43 725.56 536 775 C535.1 776.09 534.2 777.19 533.3 778.28 C522.16 791.7 510.36 804.76 497 816 C496.5 816.43 495.99 816.87 495.47 817.31 C478.85 831.58 460.42 843.87 441 854 C440.37 854.33 439.74 854.67 439.08 855.01 C412.81 868.82 385.08 878.18 356 884 C355.02 884.21 354.04 884.42 353.03 884.64 C318.68 891.87 278.28 891.4 244 884 C242.93 883.79 241.86 883.57 240.75 883.35 C197.57 874.68 156.21 856.53 121 830 C120.13 829.34 120.13 829.34 119.24 828.67 C111.75 823 104.64 817.03 97.79 810.61 C95.26 808.24 92.67 805.96 90.06 803.69 C79.73 794.38 70.7 783.85 62.33 772.77 C61.45 771.6 60.56 770.43 59.67 769.26 C51.29 758.36 44 746.83 37 735 C36.61 734.35 36.22 733.69 35.82 733.02 C10.59 689.82 -0.74 638.73 -0.48 589.13 C-0.48 586.56 -0.49 584 -0.49 581.43 C-0.5 575.91 -0.49 570.4 -0.48 564.88 C-0.45 556.68 -0.45 548.48 -0.45 540.27 C-0.46 526.47 -0.45 512.66 -0.42 498.85 C-0.4 485.2 -0.38 471.55 -0.38 457.9 C-0.38 457.05 -0.38 456.2 -0.38 455.32 C-0.38 450.99 -0.38 446.67 -0.37 442.34 C-0.37 411.77 -0.34 381.2 -0.3 350.63 C-0.26 320.95 -0.24 291.27 -0.22 261.59 C-0.22 259.72 -0.22 257.85 -0.22 255.98 C-0.21 240.79 -0.2 225.59 -0.19 210.4 C-0.15 140.26 -0.07 70.13 0 0 Z M28 239 C27.94 299.06 27.88 359.12 27.81 421 C27.79 439.94 27.76 458.88 27.73 478.4 C27.72 495.43 27.72 495.43 27.71 512.45 C27.71 520.02 27.7 527.58 27.68 535.15 C27.66 543.89 27.66 552.63 27.66 561.37 C27.66 565.84 27.66 570.3 27.64 574.76 C27.58 593.39 27.98 611.56 31 630 C31.15 630.97 31.31 631.95 31.47 632.95 C33.59 646.35 36.69 659.14 41 672 C41.28 672.86 41.57 673.72 41.86 674.61 C53.2 708.69 71.07 740.18 95 767 C95.66 767.75 95.66 767.75 96.34 768.51 C106.76 780.22 117.61 791.36 130 801 C131.44 802.16 131.44 802.16 132.91 803.35 C175.67 837.37 231.89 859.4 286.77 860.31 C287.68 860.32 288.59 860.34 289.53 860.35 C313.3 860.68 335.78 859.14 359 854 C359.71 853.84 360.42 853.69 361.15 853.53 C370.29 851.5 379.25 849.21 388.12 846.19 C389.16 845.84 390.19 845.49 391.25 845.13 C398.68 842.56 405.8 839.72 412.81 836.12 C415.47 834.76 418.16 833.43 420.84 832.09 C438.81 823.04 455.38 812.7 471 800 C471.53 799.57 472.06 799.15 472.6 798.71 C487.35 786.75 501.62 773.23 513 758 C513.52 757.32 514.04 756.64 514.57 755.94 C531.4 733.87 545.12 709.99 555 684 C555.47 682.79 555.95 681.58 556.43 680.34 C560.23 670.14 562.98 659.61 565.62 649.06 C565.92 647.9 566.22 646.74 566.53 645.55 C570.94 627.99 572.16 610.48 572.12 592.43 C572.12 590.9 572.12 589.37 572.12 587.84 C572.13 583.66 572.12 579.49 572.12 575.31 C572.11 570.73 572.11 566.15 572.11 561.56 C572.11 552.68 572.11 543.8 572.1 534.91 C572.1 524.63 572.1 514.35 572.09 504.07 C572.09 476.94 572.08 449.81 572.06 422.69 C572.04 362.07 572.02 301.45 572 239 C392.48 239 212.96 239 28 239 Z " fill="#010101" transform="translate(0,0)"/>
<path d="M0 0 C112.86 0 225.72 0 342 0 C336.38 4.49 336.38 4.49 333.42 6.09 C332.75 6.45 332.07 6.82 331.38 7.19 C330.66 7.58 329.93 7.97 329.19 8.38 C321.89 12.37 314.68 16.48 307.5 20.69 C299.06 25.63 290.6 30.55 282.12 35.44 C280.53 36.36 280.53 36.36 278.89 37.3 C273.82 40.23 268.74 43.15 263.65 46.07 C261.87 47.1 260.1 48.12 258.32 49.14 C256.09 50.43 253.86 51.71 251.63 52.99 C250.61 53.57 249.6 54.16 248.55 54.76 C247.67 55.26 246.79 55.77 245.88 56.29 C244.93 56.86 243.98 57.42 243 58 C242.34 58.31 241.68 58.63 241 58.95 C236.79 61.09 236.79 61.09 234.26 64.88 C233.97 67.2 233.94 69.4 234 71.74 C233.99 72.61 233.98 73.48 233.97 74.37 C233.94 77.23 233.97 80.09 234 82.96 C233.99 84.95 233.98 86.93 233.97 88.92 C233.94 94.15 233.96 99.37 233.99 104.6 C234.01 109.94 233.98 115.27 233.96 120.61 C233.93 131.07 233.95 141.54 234 152 C245.08 152.4 256.16 152.68 267.25 152.8 C272.41 152.86 277.55 152.96 282.7 153.16 C304.29 154.95 304.29 154.95 324.27 148.84 C329.37 143.56 332.31 137.53 334.92 130.73 C336.31 127.22 338.1 124.5 340.29 121.43 C346.03 112.62 351.77 103.82 357.5 95 C359.09 92.55 360.68 90.1 362.28 87.65 C363.5 85.77 364.72 83.89 365.94 82.01 C367.96 78.9 369.98 75.79 372 72.69 C372.62 71.73 373.25 70.77 373.89 69.78 C377.15 64.77 380.41 59.78 384 55 C384.33 55 384.66 55 385 55 C385 156.97 385 258.94 385 364 C384.34 364 383.68 364 383 364 C381.7 362.19 381.7 362.19 380.12 359.56 C377.02 354.54 373.73 349.69 370.31 344.88 C369.8 344.15 369.29 343.43 368.76 342.68 C367.7 341.2 366.64 339.71 365.58 338.22 C363.04 334.66 360.52 331.08 358 327.5 C357 326.08 356 324.67 355 323.25 C349 314.75 349 314.75 347.5 312.62 C346.5 311.21 345.51 309.81 344.52 308.4 C341.93 304.73 339.34 301.07 336.75 297.4 C336.22 296.64 335.69 295.88 335.13 295.1 C334.12 293.67 333.11 292.23 332.1 290.79 C331.63 290.14 331.17 289.48 330.69 288.8 C330.02 287.86 330.02 287.86 329.34 286.89 C328.42 285.59 327.49 284.3 326.54 283.02 C323 278.2 323 278.2 323 276 C293.3 276 263.6 276 233 276 C233 304.71 233 333.42 233 363 C234.65 363.66 236.3 364.32 238 365 C240.02 366.05 242.03 367.13 244.02 368.24 C244.6 368.56 245.17 368.87 245.76 369.2 C247.64 370.23 249.51 371.27 251.38 372.31 C252.69 373.04 254 373.77 255.31 374.49 C265.01 379.87 274.68 385.31 284.33 390.79 C291.41 394.81 298.52 398.78 305.63 402.75 C310.9 405.7 316.16 408.65 321.41 411.63 C322.44 412.22 323.48 412.81 324.54 413.41 C326.49 414.52 328.44 415.63 330.39 416.74 C335.52 419.65 340.69 422.41 346 425 C346 425.66 346 426.32 346 427 C231.49 427 116.98 427 -1 427 C-1 426.34 -1 425.68 -1 425 C-0.13 424.53 -0.13 424.53 0.75 424.06 C11.01 418.52 21.24 412.95 31.27 406.99 C37.59 403.23 43.94 399.55 50.31 395.88 C51.96 394.93 51.96 394.93 53.63 393.96 C59.51 390.57 65.4 387.2 71.3 383.83 C71.91 383.48 72.51 383.14 73.14 382.78 C76.05 381.12 78.96 379.46 81.87 377.81 C84 376.59 86.11 375.36 88.22 374.11 C90.86 372.58 93.52 371.32 96.32 370.11 C104.43 366.55 104.43 366.55 109.96 360 C111.47 354.23 111.1 348.34 110.88 342.43 C110.87 340.54 110.87 338.65 110.87 336.76 C110.87 331.8 110.76 326.86 110.63 321.91 C110.52 316.85 110.5 311.79 110.47 306.73 C110.41 296.82 110.24 286.91 110 277 C98.83 276.81 87.66 276.69 76.49 276.67 C71.3 276.65 66.11 276.61 60.92 276.52 C55.91 276.42 50.9 276.4 45.89 276.42 C43.98 276.42 42.08 276.39 40.17 276.33 C30.17 275.75 30.17 275.75 21.23 279.38 C17.7 283.16 15.38 287.45 13 292 C12 293.42 10.97 294.83 9.89 296.2 C9.45 296.78 9.02 297.36 8.57 297.95 C8.13 298.52 7.7 299.1 7.25 299.69 C1.03 307.93 -5.09 316.25 -11.21 324.57 C-12.99 326.99 -14.79 329.41 -16.58 331.83 C-17.76 333.43 -18.94 335.03 -20.12 336.62 C-20.99 337.79 -20.99 337.79 -21.86 338.97 C-24.79 342.94 -27.66 346.93 -30.48 350.97 C-31.03 351.77 -31.58 352.56 -32.15 353.37 C-33.19 354.89 -34.24 356.4 -35.27 357.92 C-36.46 359.65 -37.73 361.33 -39 363 C-39.66 363 -40.32 363 -41 363 C-41 261.36 -41 159.72 -41 55 C-37.14 58.86 -34.52 62.06 -31.81 66.62 C-27.33 73.98 -22.61 81.16 -17.81 88.31 C-9.46 100.78 -1.2 113.32 7.03 125.87 C7.5 126.58 7.96 127.29 8.44 128.02 C9.35 129.4 10.26 130.79 11.16 132.17 C13.24 135.34 15.33 138.5 17.46 141.63 C18.19 142.71 18.92 143.79 19.68 144.91 C20.32 145.85 20.97 146.79 21.63 147.76 C23 150 23 150 23 152 C51.71 152 80.42 152 110 152 C110 122.63 110 93.26 110 63 C108.35 62.34 106.7 61.68 105 61 C103.28 60.11 101.58 59.18 99.89 58.23 C98.9 57.68 97.91 57.13 96.89 56.56 C95.84 55.96 94.78 55.37 93.69 54.75 C92.02 53.81 92.02 53.81 90.33 52.86 C81.89 48.1 73.52 43.23 65.16 38.32 C57.67 33.94 50.1 29.7 42.5 25.5 C29.88 18.54 17.4 11.35 5 4 C4.08 3.47 3.15 2.93 2.2 2.39 C1.11 1.7 1.11 1.7 0 1 C0 0.67 0 0.34 0 0 Z " fill="#AB1A2D" transform="translate(128,280)"/>
<path d="M0 0 C85.8 0 171.6 0 260 0 C257.19 2.81 254.92 4.33 251.5 6.27 C250.38 6.9 249.26 7.54 248.1 8.19 C247.5 8.53 246.91 8.86 246.29 9.21 C243.77 10.63 241.25 12.06 238.73 13.49 C237.42 14.23 236.12 14.97 234.81 15.7 C228.33 19.37 221.88 23.09 215.44 26.81 C214.37 27.43 213.31 28.04 212.21 28.67 C207.21 31.56 202.21 34.46 197.22 37.38 C196.34 37.9 195.45 38.42 194.54 38.95 C192.89 39.92 191.25 40.88 189.61 41.85 C184.22 45 184.22 45 182 45 C182 79.98 182 114.96 182 151 C198.91 151.21 215.82 151.41 233.25 151.62 C238.57 151.74 243.89 151.85 249.37 151.96 C254.18 151.98 254.18 151.98 258.99 151.97 C261.12 151.97 263.25 152.02 265.37 152.09 C277.45 152.84 277.45 152.84 288.13 148.22 C291.87 143.93 294.53 139.19 296.98 134.08 C298.25 131.49 299.78 129.15 301.42 126.78 C302.34 125.35 303.27 123.93 304.19 122.5 C305.26 120.84 306.34 119.18 307.41 117.52 C307.98 116.65 308.55 115.78 309.13 114.88 C312.39 109.87 315.65 104.87 318.92 99.87 C319.68 98.72 320.43 97.57 321.18 96.42 C322.23 94.8 323.29 93.19 324.35 91.57 C324.96 90.64 325.56 89.71 326.19 88.75 C327.09 87.39 327.09 87.39 328 86 C328.71 84.9 329.43 83.79 330.17 82.65 C331.07 81.34 331.07 81.34 332 80 C332.33 80 332.66 80 333 80 C333 120.26 333 160.52 333 202 C300.66 202 268.32 202 235 202 C235 206.95 235 211.9 235 217 C229.7 223.63 229.7 223.63 224.26 224.38 C223.21 224.43 222.16 224.49 221.08 224.54 C219.88 224.61 218.69 224.67 217.45 224.74 C212.66 224.93 207.86 225.09 203.07 225.2 C199.44 225.28 195.83 225.4 192.21 225.62 C167.06 227.1 167.06 227.1 157.51 219.52 C152.48 214.85 147.74 209.78 144 204 C144 203.34 144 202.68 144 202 C135.65 200.97 127.11 200.46 119 203 C115.31 206.04 112.65 209.74 109.73 213.51 C102.74 221.41 96.67 225.48 86.16 226.14 C79.67 226.34 73.21 226.1 66.72 225.73 C63.73 225.59 60.74 225.54 57.75 225.5 C54.15 225.44 50.56 225.34 46.97 225.23 C45.96 225.2 45.96 225.2 44.92 225.17 C33.03 224.78 33.03 224.78 29.69 221.55 C24.89 214.3 27 214.9 27 202 C-5.34 202 -37.68 202 -71 202 C-71 161.74 -71 121.48 -71 80 C-67.99 83.01 -66.01 85.27 -63.77 88.74 C-63.14 89.71 -62.52 90.67 -61.87 91.67 C-60.85 93.26 -60.85 93.26 -59.81 94.88 C-58.31 97.2 -56.81 99.52 -55.3 101.84 C-54.89 102.46 -54.49 103.09 -54.07 103.74 C-50.52 109.21 -46.94 114.66 -43.36 120.1 C-42.79 120.96 -42.22 121.82 -41.64 122.71 C-39.36 126.17 -37.07 129.63 -34.79 133.09 C-33.18 135.53 -31.58 137.97 -29.97 140.41 C-29.48 141.14 -28.99 141.88 -28.49 142.64 C-25.11 147.77 -25.11 147.77 -24 150 C10.32 150.33 44.64 150.66 80 151 C80 116.02 80 81.04 80 45 C78.35 44.67 76.7 44.34 75 44 C72.52 42.82 72.52 42.82 69.89 41.33 C68.4 40.5 68.4 40.5 66.89 39.65 C65.83 39.04 64.78 38.44 63.69 37.81 C62.58 37.19 61.47 36.56 60.33 35.91 C51.87 31.11 43.46 26.21 35.07 21.28 C29.74 18.15 24.38 15.08 18.97 12.08 C18.39 11.76 17.81 11.43 17.21 11.1 C14.4 9.54 11.58 7.99 8.76 6.44 C7.75 5.89 6.75 5.34 5.72 4.77 C4.83 4.28 3.94 3.79 3.03 3.29 C1 2 1 2 0 0 Z " fill="#E90A2A" transform="translate(169,291)"/>
<path d="M0 0 C179.52 0 359.04 0 544 0 C544.04 60.51 544.08 121.03 544.12 183.38 C544.14 202.48 544.16 221.58 544.18 241.26 C544.19 264.6 544.19 264.6 544.19 275.53 C544.19 283.15 544.2 290.78 544.21 298.41 C544.22 307.21 544.23 316.02 544.23 324.83 C544.23 329.33 544.23 333.82 544.24 338.32 C544.32 372.38 544.32 372.38 542 387 C541.83 388.14 541.66 389.28 541.49 390.46 C540.44 397.39 538.9 404.19 537.25 411 C536.99 412.08 536.73 413.16 536.46 414.27 C533.01 428.27 529.48 442.1 522.97 455.03 C521.78 457.44 520.66 459.87 519.53 462.31 C501.72 500.57 475.75 536.16 442 562 C441.43 562.45 440.85 562.9 440.26 563.36 C423.8 576.27 406.11 586.32 387.47 595.74 C386 596.49 384.54 597.25 383.09 598.04 C376.24 601.72 368.79 604 361.44 606.44 C360.7 606.68 359.97 606.92 359.22 607.18 C347.53 611.04 335.89 614.34 323.75 616.5 C320.97 617.01 318.2 617.59 315.43 618.18 C287.07 623.78 254.35 623.73 226 618 C225.23 617.85 224.45 617.7 223.65 617.55 C218.4 616.51 213.2 615.29 208 614 C207.24 613.82 206.48 613.63 205.69 613.45 C164.33 603.5 125.84 583.16 94 555 C93.16 554.28 92.33 553.55 91.47 552.8 C80.38 543.05 70.11 532.63 61 521 C60.09 519.93 60.09 519.93 59.17 518.84 C47.26 504.65 37.47 488.43 29 472 C28.65 471.33 28.31 470.66 27.95 469.97 C21.37 457.15 16.61 443.64 12 430 C11.74 429.23 11.47 428.45 11.2 427.66 C8.11 418.47 6.12 409.14 4.31 399.62 C4.11 398.56 3.91 397.5 3.7 396.4 C-0.07 375.54 -0.28 354.91 -0.23 333.78 C-0.22 329.23 -0.23 324.68 -0.23 320.12 C-0.23 311.31 -0.22 302.5 -0.21 293.68 C-0.19 283.48 -0.19 273.27 -0.19 263.06 C-0.18 236.14 -0.15 209.23 -0.12 182.31 C-0.08 122.15 -0.04 61.99 0 0 Z M16 16 C15.94 72.35 15.88 128.69 15.81 186.75 C15.79 204.51 15.76 222.26 15.73 240.56 C15.72 256.55 15.72 256.55 15.71 272.54 C15.71 279.63 15.7 286.73 15.68 293.82 C15.66 302.02 15.66 310.23 15.66 318.43 C15.66 322.62 15.66 326.8 15.64 330.99 C15.55 355.22 16.08 379.51 21.88 403.19 C22.13 404.29 22.39 405.39 22.66 406.53 C25.37 417.95 28.26 429.24 33 440 C33.55 441.41 34.09 442.83 34.62 444.25 C48.35 478.51 70.46 513.49 99.04 537.35 C101.26 539.22 103.37 541.2 105.5 543.19 C127.01 562.48 153.57 578.97 181.06 588.03 C183.71 588.9 186.24 589.91 188.81 591 C233.05 608.74 285.98 609.48 331.68 597.59 C333.79 597.05 335.9 596.58 338.03 596.14 C391.71 584.4 441.61 547.97 474.6 504.83 C475.52 503.63 476.44 502.44 477.37 501.25 C498.39 474.26 512.47 442 521 409 C521.18 408.31 521.36 407.62 521.55 406.91 C528.13 380.95 528.45 354.06 528.35 327.45 C528.33 323.19 528.34 318.93 528.34 314.67 C528.34 306.45 528.33 298.24 528.31 290.02 C528.29 280.49 528.29 270.95 528.28 261.42 C528.27 236.32 528.23 211.22 528.19 186.12 C528.09 101.91 528.09 101.91 528 16 C359.04 16 190.08 16 16 16 Z " fill="#A5A7AA" transform="translate(28,239)"/>
<path d="M0 0 C112.86 0 225.72 0 342 0 C336.38 4.49 336.38 4.49 333.42 6.09 C332.75 6.45 332.07 6.82 331.38 7.19 C330.66 7.58 329.93 7.97 329.19 8.38 C321.89 12.37 314.68 16.48 307.5 20.69 C299.06 25.63 290.6 30.55 282.12 35.44 C280.53 36.36 280.53 36.36 278.89 37.3 C273.82 40.23 268.74 43.15 263.65 46.07 C261.87 47.1 260.1 48.12 258.32 49.14 C256.09 50.43 253.86 51.71 251.63 52.99 C250.61 53.57 249.6 54.16 248.55 54.76 C247.67 55.26 246.79 55.77 245.88 56.29 C244.93 56.86 243.98 57.42 243 58 C242.34 58.31 241.68 58.63 241 58.95 C236.79 61.09 236.79 61.09 234.26 64.88 C233.97 67.2 233.94 69.4 234 71.74 C233.99 72.61 233.98 73.48 233.97 74.37 C233.94 77.23 233.97 80.09 234 82.96 C233.99 84.95 233.98 86.93 233.97 88.92 C233.94 94.15 233.96 99.37 233.99 104.6 C234.01 109.94 233.98 115.27 233.96 120.61 C233.93 131.07 233.95 141.54 234 152 C245.08 152.4 256.16 152.68 267.25 152.8 C272.41 152.86 277.55 152.96 282.7 153.16 C304.29 154.95 304.29 154.95 324.27 148.84 C329.37 143.56 332.31 137.53 334.92 130.73 C336.31 127.22 338.1 124.5 340.29 121.43 C346.03 112.62 351.77 103.82 357.5 95 C359.09 92.55 360.68 90.1 362.28 87.65 C363.5 85.77 364.72 83.89 365.94 82.01 C367.96 78.9 369.98 75.79 372 72.69 C372.62 71.73 373.25 70.77 373.89 69.78 C377.15 64.77 380.41 59.78 384 55 C384.33 55 384.66 55 385 55 C385 156.97 385 258.94 385 364 C384.34 364 383.68 364 383 364 C381.7 362.19 381.7 362.19 380.12 359.56 C377.02 354.54 373.73 349.69 370.31 344.88 C369.8 344.15 369.29 343.43 368.76 342.68 C367.7 341.2 366.64 339.71 365.58 338.22 C363.04 334.66 360.52 331.08 358 327.5 C357 326.08 356 324.67 355 323.25 C349 314.75 349 314.75 347.5 312.62 C346.5 311.21 345.51 309.81 344.52 308.4 C341.93 304.73 339.34 301.07 336.75 297.4 C336.22 296.64 335.69 295.88 335.13 295.1 C334.12 293.67 333.11 292.23 332.1 290.79 C331.63 290.14 331.17 289.48 330.69 288.8 C330.02 287.86 330.02 287.86 329.34 286.89 C328.42 285.59 327.49 284.3 326.54 283.02 C323 278.2 323 278.2 323 276 C293.3 276 263.6 276 233 276 C233 304.71 233 333.42 233 363 C234.65 363.66 236.3 364.32 238 365 C240.02 366.05 242.03 367.13 244.02 368.24 C244.6 368.56 245.17 368.87 245.76 369.2 C247.64 370.23 249.51 371.27 251.38 372.31 C252.69 373.04 254 373.77 255.31 374.49 C265.01 379.87 274.68 385.31 284.33 390.79 C291.41 394.81 298.52 398.78 305.63 402.75 C310.9 405.7 316.16 408.65 321.41 411.63 C322.44 412.22 323.48 412.81 324.54 413.41 C326.49 414.52 328.44 415.63 330.39 416.74 C335.52 419.65 340.69 422.41 346 425 C346 425.66 346 426.32 346 427 C231.49 427 116.98 427 -1 427 C-1 426.34 -1 425.68 -1 425 C-0.13 424.53 -0.13 424.53 0.75 424.06 C11.01 418.52 21.24 412.95 31.27 406.99 C37.59 403.23 43.94 399.55 50.31 395.88 C51.96 394.93 51.96 394.93 53.63 393.96 C59.51 390.57 65.4 387.2 71.3 383.83 C71.91 383.48 72.51 383.14 73.14 382.78 C76.05 381.12 78.96 379.46 81.87 377.81 C84 376.59 86.11 375.36 88.22 374.11 C90.86 372.58 93.52 371.32 96.32 370.11 C104.43 366.55 104.43 366.55 109.96 360 C111.47 354.23 111.1 348.34 110.88 342.43 C110.87 340.54 110.87 338.65 110.87 336.76 C110.87 331.8 110.76 326.86 110.63 321.91 C110.52 316.85 110.5 311.79 110.47 306.73 C110.41 296.82 110.24 286.91 110 277 C98.83 276.81 87.66 276.69 76.49 276.67 C71.3 276.65 66.11 276.61 60.92 276.52 C55.91 276.42 50.9 276.4 45.89 276.42 C43.98 276.42 42.08 276.39 40.17 276.33 C30.17 275.75 30.17 275.75 21.23 279.38 C17.7 283.16 15.38 287.45 13 292 C12 293.42 10.97 294.83 9.89 296.2 C9.45 296.78 9.02 297.36 8.57 297.95 C8.13 298.52 7.7 299.1 7.25 299.69 C1.03 307.93 -5.09 316.25 -11.21 324.57 C-12.99 326.99 -14.79 329.41 -16.58 331.83 C-17.76 333.43 -18.94 335.03 -20.12 336.62 C-20.99 337.79 -20.99 337.79 -21.86 338.97 C-24.79 342.94 -27.66 346.93 -30.48 350.97 C-31.03 351.77 -31.58 352.56 -32.15 353.37 C-33.19 354.89 -34.24 356.4 -35.27 357.92 C-36.46 359.65 -37.73 361.33 -39 363 C-39.66 363 -40.32 363 -41 363 C-41 261.36 -41 159.72 -41 55 C-37.14 58.86 -34.52 62.06 -31.81 66.62 C-27.33 73.98 -22.61 81.16 -17.81 88.31 C-9.46 100.78 -1.2 113.32 7.03 125.87 C7.5 126.58 7.96 127.29 8.44 128.02 C9.35 129.4 10.26 130.79 11.16 132.17 C13.24 135.34 15.33 138.5 17.46 141.63 C18.19 142.71 18.92 143.79 19.68 144.91 C20.32 145.85 20.97 146.79 21.63 147.76 C23 150 23 150 23 152 C51.71 152 80.42 152 110 152 C110 122.63 110 93.26 110 63 C108.35 62.34 106.7 61.68 105 61 C103.28 60.11 101.58 59.18 99.89 58.23 C98.9 57.68 97.91 57.13 96.89 56.56 C95.84 55.96 94.78 55.37 93.69 54.75 C92.02 53.81 92.02 53.81 90.33 52.86 C81.89 48.1 73.52 43.23 65.16 38.32 C57.67 33.94 50.1 29.7 42.5 25.5 C29.88 18.54 17.4 11.35 5 4 C4.08 3.47 3.15 2.93 2.2 2.39 C1.11 1.7 1.11 1.7 0 1 C0 0.67 0 0.34 0 0 Z M41 11 C43.69 13.69 45.65 15.07 48.92 16.86 C49.91 17.41 50.91 17.96 51.93 18.53 C53.01 19.12 54.08 19.71 55.19 20.31 C57.47 21.58 59.76 22.84 62.04 24.11 C62.63 24.44 63.21 24.76 63.81 25.09 C69.59 28.31 75.3 31.65 81 35 C89.57 40.02 98.17 44.99 106.81 49.88 C107.89 50.49 108.96 51.1 110.07 51.73 C111.06 52.29 112.06 52.85 113.08 53.43 C113.96 53.93 114.84 54.42 115.75 54.94 C118.04 56.21 118.04 56.21 121 56 C121 90.98 121 125.96 121 162 C104.05 162.16 87.09 162.33 69.62 162.5 C64.29 162.59 58.95 162.69 53.45 162.78 C46.89 162.79 46.89 162.79 43.81 162.78 C41.68 162.78 39.55 162.81 37.42 162.88 C19.87 163.34 19.87 163.34 15.08 159.44 C11.85 155.66 9.76 151.5 7.86 146.94 C6.63 144.16 4.96 141.73 3.23 139.24 C2.64 138.36 2.05 137.49 1.45 136.58 C0.84 135.69 0.24 134.79 -0.38 133.88 C-1.74 131.84 -3.1 129.81 -4.46 127.77 C-5.19 126.7 -5.91 125.63 -6.65 124.52 C-9.26 120.62 -11.85 116.7 -14.44 112.79 C-15.82 110.71 -17.2 108.63 -18.58 106.55 C-19.48 105.19 -20.39 103.82 -21.29 102.45 C-22.55 100.54 -23.82 98.63 -25.09 96.72 C-25.66 95.85 -25.66 95.85 -26.25 94.96 C-27.14 93.62 -28.07 92.31 -29 91 C-29.33 91 -29.66 91 -30 91 C-30 170.2 -30 249.4 -30 331 C-27.75 328.75 -25.99 326.75 -24.14 324.22 C-23.59 323.47 -23.04 322.72 -22.47 321.95 C-21.88 321.14 -21.29 320.33 -20.69 319.5 C-19.42 317.77 -18.15 316.04 -16.89 314.31 C-16.24 313.43 -15.59 312.54 -14.93 311.63 C-11.96 307.58 -8.98 303.54 -6 299.5 C-4.85 297.94 -3.7 296.37 -2.54 294.81 C-1.97 294.03 -1.39 293.25 -0.8 292.44 C1.1 289.87 2.99 287.3 4.89 284.72 C5.52 283.86 6.16 283 6.81 282.11 C8.03 280.45 9.25 278.8 10.47 277.14 C11.02 276.39 11.57 275.65 12.14 274.88 C12.62 274.22 13.1 273.57 13.6 272.9 C14.29 271.96 14.29 271.96 15 271 C15.32 270.31 15.64 269.62 15.98 268.92 C19.35 265.72 23.32 266.43 27.8 266.45 C28.82 266.44 29.84 266.43 30.89 266.42 C34.2 266.39 37.51 266.39 40.82 266.39 C42.87 266.38 44.91 266.36 46.95 266.34 C54.53 266.29 62.11 266.27 69.69 266.25 C86.62 266.17 103.55 266.09 121 266 C121 299.99 121 333.98 121 369 C119.02 369.66 117.04 370.32 115 371 C113.19 371.93 111.4 372.92 109.64 373.95 C108.62 374.54 107.6 375.14 106.55 375.75 C105.46 376.39 104.37 377.03 103.25 377.69 C102.09 378.36 100.94 379.04 99.78 379.71 C97.38 381.11 94.98 382.51 92.58 383.91 C88.1 386.53 83.6 389.12 79.1 391.71 C74.82 394.17 70.54 396.64 66.27 399.11 C64.02 400.41 61.78 401.71 59.53 403 C56.14 404.96 52.76 406.91 49.38 408.88 C48.33 409.48 47.29 410.08 46.21 410.7 C45.26 411.25 44.31 411.8 43.34 412.37 C42.5 412.85 41.66 413.34 40.79 413.84 C40.2 414.22 39.61 414.61 39 415 C39 415.33 39 415.66 39 416 C126.78 416 214.56 416 305 416 C302.33 413.33 300.52 412.04 297.27 410.32 C296.31 409.81 295.36 409.3 294.37 408.78 C293.34 408.23 292.31 407.69 291.25 407.12 C282.97 402.69 274.73 398.2 266.56 393.56 C257.12 388.2 247.65 382.87 238.16 377.58 C237.17 377.03 236.17 376.47 235.15 375.9 C234.27 375.41 233.4 374.92 232.5 374.42 C230.74 373.42 229.01 372.39 227.3 371.32 C225.15 369.83 225.15 369.83 223 370 C223 335.68 223 301.36 223 266 C257.98 266 292.96 266 329 266 C329.66 267.32 330.32 268.64 331 270 C332.6 272.42 334.22 274.81 335.88 277.19 C336.61 278.24 336.61 278.24 337.35 279.32 C341.79 285.74 346.3 292.11 350.8 298.48 C354.96 304.35 359.07 310.24 363.19 316.14 C364.28 317.7 365.38 319.26 366.47 320.82 C367.48 322.26 368.48 323.7 369.48 325.14 C370.63 326.78 371.81 328.39 373 330 C373.33 330 373.66 330 374 330 C374 251.13 374 172.26 374 91 C370.46 94.5 370.46 94.5 367.77 98.36 C367.39 98.99 367 99.63 366.6 100.28 C366.2 100.95 365.79 101.62 365.38 102.31 C362.03 107.76 358.63 113.14 355.06 118.44 C352.02 122.96 349.01 127.49 346.07 132.08 C345.16 133.49 344.23 134.9 343.3 136.29 C340.83 140.01 338.61 143.7 336.67 147.72 C330.61 159.49 330.61 159.49 324.57 162.01 C317.49 163.61 310.29 163.22 303.08 162.98 C301.03 162.97 298.97 162.97 296.92 162.98 C289.36 162.96 281.81 162.78 274.25 162.62 C257.34 162.42 240.43 162.21 223 162 C223 127.02 223 92.04 223 56 C225.97 55.01 225.97 55.01 229 54 C230.67 53.14 232.31 52.23 233.92 51.27 C234.85 50.72 235.78 50.17 236.74 49.61 C237.73 49.02 238.73 48.42 239.75 47.81 C241.91 46.54 244.07 45.26 246.23 43.99 C247.34 43.33 248.46 42.67 249.61 42 C255.09 38.77 260.61 35.61 266.12 32.44 C274.64 27.53 283.15 22.6 291.62 17.62 C292.57 17.07 293.52 16.52 294.5 15.95 C295.36 15.44 296.22 14.94 297.1 14.41 C297.86 13.97 298.61 13.53 299.39 13.07 C300.19 12.54 300.19 12.54 301 12 C301 11.67 301 11.34 301 11 C215.2 11 129.4 11 41 11 Z " fill="#E81230" transform="translate(128,280)"/>
<path d="M0 0 C112.86 0 225.72 0 342 0 C336.38 4.49 336.38 4.49 333.42 6.09 C332.75 6.45 332.07 6.82 331.38 7.19 C330.66 7.58 329.93 7.97 329.19 8.38 C321.89 12.37 314.68 16.48 307.5 20.69 C299.06 25.63 290.6 30.55 282.12 35.44 C280.53 36.36 280.53 36.36 278.89 37.3 C273.82 40.23 268.74 43.15 263.65 46.07 C261.87 47.1 260.1 48.12 258.32 49.14 C256.09 50.43 253.86 51.71 251.63 52.99 C250.61 53.57 249.6 54.16 248.55 54.76 C247.67 55.26 246.79 55.77 245.88 56.29 C244.93 56.86 243.98 57.42 243 58 C242.34 58.31 241.68 58.63 241 58.95 C236.79 61.09 236.79 61.09 234.26 64.88 C233.97 67.2 233.94 69.4 234 71.74 C233.99 72.61 233.98 73.48 233.97 74.37 C233.94 77.23 233.97 80.09 234 82.96 C233.99 84.95 233.98 86.93 233.97 88.92 C233.94 94.15 233.96 99.37 233.99 104.6 C234.01 109.94 233.98 115.27 233.96 120.61 C233.93 131.07 233.95 141.54 234 152 C245.08 152.4 256.16 152.68 267.25 152.8 C272.41 152.86 277.55 152.96 282.7 153.16 C304.29 154.95 304.29 154.95 324.27 148.84 C329.37 143.56 332.31 137.53 334.92 130.73 C336.31 127.22 338.1 124.5 340.29 121.43 C346.56 111.82 352.82 102.21 359.06 92.59 C362.05 88 365.04 83.4 368.04 78.82 C369.06 77.26 369.06 77.26 370.1 75.66 C371.42 73.64 372.74 71.62 374.06 69.6 C374.66 68.68 375.26 67.76 375.88 66.82 C376.41 66.01 376.94 65.2 377.49 64.36 C378.57 62.67 379.59 60.95 380.57 59.2 C381.04 58.47 381.51 57.75 382 57 C382.66 57 383.32 57 384 57 C384 108.48 384 159.96 384 213 C380.7 213 377.4 213 374 213 C373.5 153.11 373.5 153.11 373 92 C368.05 99.92 368.05 99.92 363 108 C357.81 115.82 357.81 115.82 355.69 118.96 C352.62 123.55 349.62 128.18 346.62 132.81 C342.21 139.63 337.75 146.42 333.25 153.19 C332.74 153.96 332.22 154.73 331.69 155.53 C331.22 156.23 330.75 156.94 330.27 157.67 C329.85 158.29 329.44 158.91 329.01 159.55 C328 161 328 161 327 162 C325.65 162.1 324.29 162.12 322.93 162.12 C322.06 162.12 321.18 162.12 320.28 162.12 C319.31 162.12 318.34 162.12 317.34 162.11 C316.31 162.11 315.28 162.11 314.22 162.11 C310.86 162.11 307.51 162.11 304.15 162.1 C302.09 162.1 300.02 162.1 297.96 162.09 C290.29 162.09 282.61 162.08 274.94 162.06 C249.23 162.03 249.23 162.03 223 162 C223 127.02 223 92.04 223 56 C231.91 51.05 231.91 51.05 241 46 C244.84 43.79 248.68 41.56 252.5 39.31 C254.53 38.12 256.56 36.93 258.6 35.74 C260.15 34.83 260.15 34.83 261.74 33.9 C267.46 30.56 273.2 27.25 278.94 23.94 C280.01 23.32 281.08 22.7 282.18 22.06 C283.72 21.18 283.72 21.18 285.28 20.28 C286.17 19.76 287.06 19.25 287.97 18.72 C291.96 16.45 295.99 14.23 300 12 C214.86 12 129.72 12 42 12 C50.91 16.95 59.82 21.9 69 27 C81.12 34.06 81.12 34.06 86.96 37.48 C93.54 41.33 100.17 45.08 106.81 48.81 C107.89 49.42 108.96 50.02 110.07 50.65 C111.06 51.2 112.06 51.76 113.08 52.33 C114.4 53.07 114.4 53.07 115.75 53.82 C118.07 55.11 118.07 55.11 121 56 C121 90.98 121 125.96 121 162 C104.4 162.85 87.79 163.69 70.69 164.56 C65.5 164.94 60.32 165.31 54.98 165.69 C22.12 167.08 22.12 167.08 12.33 158.31 C2.28 147.66 -3.52 133.92 -10 121 C-16.27 111.43 -22.54 101.86 -29 92 C-29.33 131.93 -29.66 171.86 -30 213 C-33.3 213 -36.6 213 -40 213 C-40 161.52 -40 110.04 -40 57 C-39.34 57 -38.68 57 -38 57 C-36.25 59.57 -34.61 62.15 -33 64.81 C-28.05 72.81 -22.93 80.69 -17.69 88.5 C-9.37 100.91 -1.16 113.38 7.03 125.87 C7.5 126.58 7.96 127.29 8.44 128.02 C9.35 129.4 10.26 130.79 11.16 132.17 C13.24 135.34 15.33 138.5 17.46 141.63 C18.19 142.71 18.92 143.79 19.68 144.91 C20.32 145.85 20.97 146.79 21.63 147.76 C23 150 23 150 23 152 C51.71 152 80.42 152 110 152 C110 122.63 110 93.26 110 63 C108.35 62.34 106.7 61.68 105 61 C103.28 60.11 101.58 59.18 99.89 58.23 C98.9 57.68 97.91 57.13 96.89 56.56 C95.84 55.96 94.78 55.37 93.69 54.75 C92.02 53.81 92.02 53.81 90.33 52.86 C81.89 48.1 73.52 43.23 65.16 38.32 C57.67 33.94 50.1 29.7 42.5 25.5 C29.88 18.54 17.4 11.35 5 4 C4.08 3.47 3.15 2.93 2.2 2.39 C1.11 1.7 1.11 1.7 0 1 C0 0.67 0 0.34 0 0 Z " fill="#AC1B2E" transform="translate(128,280)"/>
<path d="M0 0 C26.07 0 52.14 0 79 0 C79 59.07 79 118.14 79 179 C52.93 179 26.86 179 0 179 C0 119.93 0 60.86 0 0 Z " fill="#FDFDFD" transform="translate(483,32)"/>
<path d="M0 0 C26.4 0 52.8 0 80 0 C80 59.4 80 118.8 80 180 C71.42 180 62.84 180 54 180 C54 144.69 54 109.38 54 73 C44.76 73 35.52 73 26 73 C26 108.31 26 143.62 26 180 C17.42 180 8.84 180 0 180 C0 120.6 0 61.2 0 0 Z " fill="#FBFBFB" transform="translate(149,31)"/>
<path d="M0 0 C26.07 0 52.14 0 79 0 C79 10.89 79 21.78 79 33 C70.42 33 61.84 33 53 33 C53 30.69 53 28.38 53 26 C44.09 26 35.18 26 26 26 C26 31.94 26 37.88 26 44 C28.74 44.2 31.47 44.41 34.29 44.62 C36.99 44.82 39.68 45.02 42.38 45.23 C44.23 45.37 46.08 45.5 47.93 45.64 C48.82 45.71 49.72 45.78 50.64 45.85 C51.53 45.91 52.41 45.98 53.33 46.05 C55.09 46.18 56.85 46.31 58.61 46.45 C62.46 46.74 66.31 47.02 70.17 47.29 C71.35 47.37 72.52 47.45 73.74 47.54 C74.75 47.6 75.75 47.67 76.79 47.74 C79 48 79 48 80 49 C80.1 50.68 80.12 52.37 80.12 54.06 C80.12 55.7 80.12 55.7 80.12 57.37 C80.12 59.19 80.12 59.19 80.11 61.05 C80.11 62.32 80.11 63.58 80.11 64.89 C80.11 68.38 80.11 71.86 80.1 75.35 C80.1 78.99 80.09 82.63 80.09 86.27 C80.09 93.17 80.08 100.07 80.07 106.97 C80.06 116.29 80.05 125.61 80.05 134.93 C80.04 149.62 80.02 164.31 80 179 C53.6 179 27.2 179 0 179 C0 151.28 0 123.56 0 95 C8.58 95 17.16 95 26 95 C26 114.14 26 133.28 26 153 C34.91 153 43.82 153 53 153 C53 126.27 53 99.54 53 72 C49.04 72 45.08 72 41 72 C37.28 71.75 33.59 71.48 29.88 71.12 C28.98 71.05 28.09 70.97 27.17 70.89 C18.1 70.07 9.06 69.01 0 68 C0 45.56 0 23.12 0 0 Z " fill="#FAFAFA" transform="translate(262,32)"/>
<path d="M0 0 C26.4 0 52.8 0 80 0 C80 28.71 80 57.42 80 87 C71.09 87 62.18 87 53 87 C53 67.2 53 47.4 53 27 C44.42 27 35.84 27 27 27 C27 68.58 27 110.16 27 153 C35.58 153 44.16 153 53 153 C53 149.37 53 145.74 53 142 C61.91 142 70.82 142 80 142 C80 154.54 80 167.08 80 180 C53.6 180 27.2 180 0 180 C0 120.6 0 61.2 0 0 Z " fill="#F6F6F6" transform="translate(373,31)"/>
<path d="M0 0 C8.58 0 17.16 0 26 0 C25.99 3.25 25.98 6.5 25.96 9.84 C25.93 20.63 25.94 31.41 25.98 42.2 C26 48.73 26 55.26 25.97 61.8 C25.94 68.11 25.95 74.43 25.99 80.74 C26 83.14 25.99 85.54 25.97 87.94 C25.85 102.83 27.1 113.31 35 126 C36.38 128.64 37.69 131.32 39 134 C51.11 118.19 53.46 103.49 53.2 83.98 C53.2 81.55 53.21 79.11 53.22 76.67 C53.24 70.33 53.2 63.98 53.15 57.63 C53.11 51.13 53.12 44.63 53.13 38.12 C53.14 25.42 53.09 12.71 53 0 C61.91 0 70.82 0 80 0 C80.23 14.8 80.41 29.59 80.52 44.39 C80.57 51.26 80.64 58.13 80.75 65.01 C80.87 71.65 80.92 78.3 80.95 84.94 C80.97 87.47 81 89.99 81.06 92.51 C81.39 108.39 79.91 119.65 71.2 133.1 C69.59 135.64 68.27 138.29 66.95 141 C66.54 141.83 66.12 142.67 65.69 143.53 C65.08 144.76 65.08 144.76 64.46 146.01 C64.02 146.91 63.57 147.81 63.1 148.74 C61.71 151.54 60.32 154.33 58.94 157.12 C57.07 160.88 55.21 164.63 53.34 168.38 C52.92 169.24 52.49 170.09 52.06 170.97 C51.67 171.75 51.28 172.53 50.88 173.33 C50.54 174.02 50.2 174.71 49.85 175.41 C49 177 49 177 48 178 C46.66 178.09 45.31 178.11 43.96 178.1 C42.87 178.09 42.87 178.09 41.76 178.09 C40.83 178.08 39.9 178.07 38.94 178.06 C37.34 178.05 35.75 178.04 34.15 178.03 C32.77 178.02 31.38 178.01 30 178 C24.43 167 19.09 155.92 13.88 144.75 C12.85 142.56 11.82 140.36 10.8 138.17 C10.17 136.82 9.54 135.48 8.91 134.13 C8.47 133.19 8.47 133.19 8.02 132.23 C7.72 131.55 7.41 130.88 7.1 130.18 C6.03 127.93 6.03 127.93 4.45 125.76 C-2.47 114.83 -0.74 101.91 -0.59 89.45 C-0.57 86.87 -0.57 84.29 -0.56 81.7 C-0.54 75.63 -0.49 69.55 -0.43 63.47 C-0.36 56.55 -0.33 49.62 -0.3 42.69 C-0.24 28.46 -0.13 14.23 0 0 Z " fill="#F9F9F9" transform="translate(40,33)"/>
<path d="M0 0 C9.24 0 18.48 0 28 0 C28 41.91 28 83.82 28 127 C18.76 127 9.52 127 0 127 C0 85.09 0 43.18 0 0 Z " fill="#080808" transform="translate(508,58)"/>
<path d="M0 0 C1.48 -0.01 2.95 -0.02 4.43 -0.03 C7.52 -0.05 10.61 -0.04 13.7 -0.02 C17.65 -0 21.59 -0.04 25.53 -0.1 C28.58 -0.14 31.63 -0.14 34.68 -0.13 C36.13 -0.13 37.58 -0.14 39.04 -0.16 C50.34 -0.33 50.34 -0.33 54.78 2.63 C56.78 4.61 58.48 6.6 60.14 8.87 C61.21 10.05 61.21 10.05 62.31 11.26 C63.09 12.18 63.09 12.18 63.89 13.12 C66.21 15.81 68.57 18.4 71.14 20.87 C66.9 29.87 59.83 38 51.14 42.87 C41.06 45.66 30.4 44.88 20.06 44.39 C17.05 44.27 14.05 44.24 11.04 44.21 C7.43 44.17 3.82 44.08 0.21 43.99 C-0.47 43.97 -1.15 43.96 -1.85 43.95 C-13.85 43.64 -13.85 43.64 -17.18 40.42 C-20.73 35.04 -20.16 30 -20.21 23.66 C-20.23 22.3 -20.26 20.95 -20.3 19.6 C-20.35 17.64 -20.37 15.68 -20.39 13.73 C-20.41 12.56 -20.43 11.38 -20.45 10.18 C-19.87 6.89 -19.2 4.49 -16.87 2.02 C-11.91 -0.83 -5.57 -0.03 0 0 Z " fill="#FDFBFB" transform="translate(215.86328125,472.1328125)"/>
<path d="M0 0 C3.06 0.13 6.11 0.17 9.17 0.21 C12.83 0.26 16.5 0.35 20.17 0.45 C20.86 0.46 21.55 0.48 22.26 0.5 C24.21 0.55 26.17 0.64 28.12 0.73 C29.23 0.77 30.33 0.82 31.47 0.87 C35.11 1.6 36.86 2.85 39.46 5.47 C40.11 8.78 40.11 8.78 40.12 12.68 C40.13 13.38 40.13 14.07 40.14 14.78 C40.14 16.24 40.13 17.71 40.11 19.17 C40.09 21.4 40.11 23.62 40.14 25.85 C40.14 27.27 40.13 28.7 40.12 30.12 C40.12 31.41 40.11 32.7 40.11 34.03 C39.3 38.3 37.79 39.76 34.46 42.47 C27.49 45.96 16.53 44.39 8.69 44.59 C5.05 44.68 1.41 44.81 -2.22 45.03 C-27.43 46.55 -27.43 46.55 -37.08 39.06 C-42.06 34.5 -47.34 29.49 -50.54 23.47 C-50.1 16.4 -42.51 9.88 -37.63 5.43 C-27.1 -2.57 -12.55 -0.6 0 0 Z " fill="#FEFBFC" transform="translate(363.53961181640625,471.5308837890625)"/>
<path d="M0 0 C1.31 -0 2.62 -0 3.97 -0.01 C4.65 0.01 5.33 0.02 6.03 0.03 C8.09 0.07 10.15 0.05 12.21 0.03 C19.24 0.08 23.49 0.12 29.16 4.63 C32.61 11.53 31.05 23.07 31.23 30.84 C31.31 34.55 31.44 38.26 31.65 41.96 C33.09 67.81 33.09 67.81 25.88 76.86 C21.92 81.07 17.65 84.76 13 88.18 C11.04 89.51 11.04 89.51 10.16 91.63 C1.15 87.38 -6.99 80.36 -11.84 71.63 C-14.64 61.4 -13.86 50.58 -13.37 40.09 C-13.25 37.03 -13.21 33.98 -13.18 30.92 C-13.14 27.26 -13.05 23.59 -12.96 19.92 C-12.95 19.23 -12.93 18.54 -12.92 17.83 C-12.87 15.88 -12.78 13.92 -12.69 11.97 C-12.65 10.86 -12.61 9.76 -12.56 8.61 C-10.92 1.82 -6.5 -0 0 0 Z " fill="#FEFAFB" transform="translate(290.83984375,389.37109375)"/>
<path d="M0 0 C8.99 4.22 17.13 11.34 22 20 C24.76 29.92 23.97 40.43 23.47 50.61 C23.34 53.57 23.3 56.53 23.26 59.49 C23.21 63.04 23.12 66.59 23.02 70.14 C22.97 72.12 22.97 72.12 22.91 74.14 C22.86 75.36 22.8 76.58 22.74 77.84 C22.69 78.91 22.65 79.99 22.6 81.09 C21.87 84.65 20.49 86.39 18 89 C13.61 91.2 7.71 90.27 2.82 90.3 C0.64 90.31 -1.54 90.36 -3.73 90.4 C-5.12 90.41 -6.51 90.42 -7.9 90.43 C-9.16 90.44 -10.43 90.45 -11.73 90.47 C-15.56 89.92 -16.67 89.02 -19 86 C-22.45 79.1 -20.93 67.61 -21.12 59.84 C-21.21 56.13 -21.34 52.44 -21.56 48.74 C-23.11 22.52 -23.11 22.52 -15.45 13.47 C-10.74 8.44 -5.59 4.04 0 0 Z " fill="#FDFCFC" transform="translate(299,507)"/>
<path d="M0 0 C0.7 -0.03 1.41 -0.06 2.13 -0.09 C7.31 -0.15 10.12 0.96 14.25 4.31 C19.67 10.04 20.62 15.94 20.56 23.62 C20.56 24.75 20.56 24.75 20.55 25.9 C20.4 33.03 19.49 38.53 14.94 44.19 C8.86 49 4.14 49.93 -3.55 49.71 C-8.27 49.12 -11.48 47.8 -14.75 44.31 C-20.35 35.1 -20.85 24.89 -19.32 14.38 C-17.79 8.2 -15.06 4.78 -9.75 1.31 C-6.65 -0.24 -3.4 0.05 0 0 Z " fill="#AAACAF" transform="translate(299.75,733.6875)"/>
<path d="M0 0 C23 0 23 0 30 3 C34.91 8.29 35.38 11.9 35.37 18.96 C34.9 22.83 33.51 24.48 31.06 27.37 C29.46 29.82 29.78 32.09 30.34 34.88 C31.34 38.09 32.68 41.1 34.16 44.12 C35 46 35 46 35 48 C31.37 48 27.74 48 24 48 C23.35 46.08 22.71 44.17 22.06 42.25 C21.7 41.18 21.34 40.12 20.97 39.02 C20.23 36.7 19.59 34.36 19 32 C16.03 32 13.06 32 10 32 C10 37.28 10 42.56 10 48 C6.7 48 3.4 48 0 48 C0 32.16 0 16.32 0 0 Z " fill="#AAACAF" transform="translate(328,734)"/>
<path d="M0 0 C25.68 0 25.68 0 32.47 6.29 C34.47 9.83 34.53 12.38 34.5 16.44 C34.51 17.71 34.52 18.99 34.53 20.31 C33.81 25.35 31.73 28.48 27.94 31.81 C22.48 35.16 16.18 34.06 10 34 C10 38.62 10 43.24 10 48 C6.7 48 3.4 48 0 48 C0 32.16 0 16.32 0 0 Z " fill="#AAACAF" transform="translate(242,734)"/>
<path d="M0 0 C0.68 0.01 1.35 0.02 2.05 0.03 C6.47 0.13 10.71 0.62 15.06 1.31 C15.06 3.95 15.06 6.59 15.06 9.31 C14.21 9.3 14.21 9.3 13.35 9.3 C10.8 9.28 8.24 9.26 5.69 9.25 C4.8 9.24 3.91 9.23 2.99 9.22 C2.14 9.22 1.29 9.22 0.41 9.21 C-0.37 9.21 -1.16 9.2 -1.97 9.2 C-4.02 9.19 -4.02 9.19 -5.94 10.31 C-6.1 12.73 -6.1 12.73 -5.94 15.31 C-2.58 18.67 2.13 19.45 6.58 20.9 C10.61 22.53 14.06 24.32 16.06 28.31 C16.68 33.62 17.01 38.7 14 43.31 C10.26 47.64 6.55 49.12 0.97 49.55 C-5.03 49.68 -10.3 49.41 -15.94 47.31 C-15.94 44.67 -15.94 42.03 -15.94 39.31 C-15.09 39.33 -15.09 39.33 -14.23 39.34 C-11.67 39.39 -9.12 39.41 -6.56 39.44 C-5.67 39.45 -4.78 39.47 -3.87 39.49 C-3.02 39.49 -2.17 39.5 -1.29 39.51 C-0.5 39.52 0.28 39.53 1.09 39.54 C3.3 39.49 3.3 39.49 5.06 37.31 C5.65 34.86 5.65 34.86 5.06 32.31 C2.07 29.72 -1.2 28.94 -4.94 27.94 C-9.47 26.66 -11.9 25.01 -14.94 21.31 C-15.6 20.65 -16.26 19.99 -16.94 19.31 C-17.79 13.77 -17.18 8.96 -13.94 4.31 C-9.35 0.55 -5.79 -0.25 0 0 Z " fill="#ABADB0" transform="translate(421.9375,733.6875)"/>
<path d="M0 0 C9.9 0 19.8 0 30 0 C30 2.64 30 5.28 30 8 C23.07 8 16.14 8 9 8 C9 11.63 9 15.26 9 19 C14.61 19 20.22 19 26 19 C26 21.64 26 24.28 26 27 C20.39 27 14.78 27 9 27 C9 30.96 9 34.92 9 39 C15.93 39 22.86 39 30 39 C30 41.64 30 44.28 30 47 C20.1 47 10.2 47 0 47 C0 31.49 0 15.98 0 0 Z " fill="#A7A9AC" transform="translate(163,735)"/>
<path d="M0 0 C0.7 -0 1.39 -0.01 2.11 -0.01 C6.61 -0 10.87 0.39 15.31 1.12 C15.31 3.76 15.31 6.4 15.31 9.12 C14.75 9.11 14.18 9.1 13.6 9.09 C11.05 9.05 8.49 9.03 5.94 9 C4.6 8.97 4.6 8.97 3.24 8.95 C2.39 8.94 1.54 8.94 0.66 8.93 C-0.12 8.92 -0.91 8.91 -1.72 8.9 C-3.92 8.95 -3.92 8.95 -5.69 11.12 C-6.02 13.63 -6.02 13.63 -4.69 16.12 C-2.08 17.73 0.74 18.68 3.62 19.69 C13.68 23.3 13.68 23.3 16.31 27.12 C16.81 29.96 16.81 29.96 16.75 33.06 C16.75 34.08 16.75 35.1 16.75 36.15 C16.09 40.67 13.86 44.26 10.31 47.12 C2.4 50.89 -6.55 49.63 -14.69 47.12 C-14.69 44.49 -14.69 41.85 -14.69 39.12 C-13.84 39.14 -13.84 39.14 -12.98 39.16 C-10.42 39.2 -7.87 39.22 -5.31 39.25 C-4.42 39.27 -3.53 39.28 -2.62 39.3 C-1.77 39.31 -0.92 39.31 -0.04 39.32 C0.75 39.33 1.53 39.34 2.34 39.35 C4.55 39.3 4.55 39.3 6.31 37.12 C6.48 34.54 6.48 34.54 6.31 32.12 C1.92 30.12 -2.43 28.18 -7 26.62 C-10.56 25.18 -12.35 24.12 -14.69 21.12 C-16.15 16.75 -16.44 12.69 -15.69 8.12 C-11.64 1.2 -7.71 -0.04 0 0 Z " fill="#A9ABAE" transform="translate(217.6875,733.875)"/>
<path d="M0 0 C11.22 0 22.44 0 34 0 C34 2.64 34 5.28 34 8 C30.04 8 26.08 8 22 8 C22 20.87 22 33.74 22 47 C18.7 47 15.4 47 12 47 C12 34.13 12 21.26 12 8 C8.04 8 4.08 8 0 8 C0 5.36 0 2.72 0 0 Z " fill="#AAABAE" transform="translate(367,735)"/>
<path d="M0 0 C9.24 0 18.48 0 28 0 C28 7.26 28 14.52 28 22 C18.76 22 9.52 22 0 22 C0 14.74 0 7.48 0 0 Z " fill="#131313" transform="translate(175,57)"/>
<path d="M0 0 C2.89 1.62 5.46 3.54 6.65 6.75 C7.87 14.61 8.25 23.07 4 30 C0.01 32.66 -3.31 32.84 -8 32 C-12.14 28.27 -12.89 24.93 -13.2 19.54 C-13.23 17.6 -13.23 17.6 -13.25 15.62 C-13.28 14.34 -13.3 13.05 -13.33 11.73 C-12.98 7.73 -12.13 5.38 -10 2 C-6.23 -0.51 -4.47 -0.53 0 0 Z " fill="#FBFBFB" transform="translate(303,742)"/>
<path d="M0 0 C10.17 -0.48 10.17 -0.48 13.69 1.56 C15.51 4.95 15.47 7.2 15 11 C12.8 15.6 12.8 15.6 10 17 C8.29 17.07 6.58 17.08 4.88 17.06 C3.27 17.04 1.66 17.02 0 17 C0 11.39 0 5.78 0 0 Z " fill="#FBFBFB" transform="translate(252,743)"/>
<path d="M0 0 C1.9 -0.06 3.8 -0.12 5.75 -0.19 C7.35 -0.24 7.35 -0.24 8.98 -0.29 C12.35 0.03 13.69 0.55 16 3 C16.87 9.82 16.87 9.82 14.36 13.24 C10.04 16.46 5.2 15.23 0 15 C0 10.05 0 5.1 0 0 Z " fill="#F9F9F9" transform="translate(337,743)"/>
<path d="M0 0 C0.8 0.01 1.61 0.03 2.43 0.04 C3.71 0.04 3.71 0.04 5.01 0.04 C7.81 0.04 10.62 0.08 13.43 0.11 C15.38 0.11 17.32 0.12 19.27 0.12 C24.39 0.14 29.52 0.18 34.64 0.22 C40.79 0.27 46.94 0.29 53.08 0.31 C62.42 0.35 71.76 0.43 81.11 0.5 C81.11 28.55 81.11 56.6 81.11 85.5 C80.78 85.5 80.45 85.5 80.11 85.5 C80.11 57.78 80.11 30.06 80.11 1.5 C66.31 1.6 52.51 1.7 38.29 1.81 C33.94 1.84 29.58 1.86 25.09 1.89 C21.18 1.92 21.18 1.92 17.28 1.96 C15.54 1.98 13.8 1.99 12.06 1.99 C9.43 2 6.79 2.03 4.16 2.07 C3.38 2.06 2.6 2.06 1.81 2.06 C-2.34 2.1 -2.34 2.1 -5.9 4.02 C-6.23 4.51 -6.56 5 -6.89 5.5 C-7.55 5.17 -8.21 4.84 -8.89 4.5 C-6.79 0.27 -4.53 0.03 0 0 Z " fill="#FAE4E7" transform="translate(156.89439392089844,556.5023193359375)"/>
</svg>
