<?xml version="1.0" encoding="UTF-8"?>
<!-- Generator: https://ezgif.com/png-to-svg -->
<svg version="1.1" xmlns="http://www.w3.org/2000/svg" width="642" height="646">
<path d="M0 0 C2.22 1.16 4.45 2.29 6.69 3.42 C40.99 20.91 73.02 45.77 98.07 75.08 C98.9 76.03 99.72 76.98 100.57 77.95 C107.54 86 113.94 94.38 120.07 103.08 C120.48 103.66 120.89 104.24 121.32 104.84 C167.82 170.88 188.66 257.98 175.62 337.94 C166.34 391.23 147.18 441.87 114.07 485.08 C112.94 486.61 112.94 486.61 111.79 488.16 C106.11 495.79 99.91 502.76 93.39 509.67 C91.65 511.54 89.98 513.46 88.32 515.39 C82.42 522.19 75.91 528.25 69.07 534.08 C67.65 535.32 67.65 535.32 66.21 536.58 C26.38 571.05 -21.79 594.17 -72.93 606.08 C-74.28 606.4 -74.28 606.4 -75.66 606.72 C-81.39 608.02 -87.13 609.1 -92.93 610.08 C-94.15 610.31 -94.15 610.31 -95.4 610.53 C-128.71 616.44 -165.75 615.34 -198.93 609.08 C-200.07 608.87 -201.22 608.65 -202.41 608.43 C-243.53 600.51 -282.83 585 -317.93 562.08 C-318.95 561.42 -318.95 561.42 -319.99 560.74 C-333.44 551.93 -345.92 541.93 -357.77 531.06 C-359.81 529.19 -361.89 527.38 -363.99 525.58 C-371.21 519.28 -377.73 512.37 -383.93 505.08 C-384.75 504.14 -385.57 503.19 -386.42 502.22 C-393.39 494.16 -399.79 485.79 -405.93 477.08 C-406.54 476.21 -406.54 476.21 -407.17 475.33 C-435.41 435.23 -452.37 389.13 -460.93 341.08 C-461.11 340.09 -461.29 339.09 -461.47 338.07 C-466.91 306.57 -466.64 270.51 -460.93 239.08 C-460.62 237.36 -460.62 237.36 -460.31 235.61 C-451.83 189.19 -434.94 144.93 -407.93 106.08 C-407.54 105.52 -407.15 104.97 -406.76 104.39 C-398.95 93.17 -390.53 82.7 -381.26 72.64 C-379.27 70.46 -377.34 68.26 -375.43 66.02 C-368.84 58.46 -361.62 51.5 -353.93 45.08 C-353.39 44.63 -352.85 44.18 -352.3 43.71 C-276.82 -19.47 -178.21 -46.11 0 0 Z " fill="#FEFEFE" transform="translate(463.9267578125,32.91845703125)"/>
<path d="M0 0 C7.46 4.49 15.39 11.92 18.19 20.32 C18.85 20.65 19.51 20.98 20.19 21.32 C21.93 24.22 23.31 27.32 24.75 30.38 C25.37 31.63 25.37 31.63 26 32.91 C28.44 38.04 29.94 42.61 30.19 48.32 C30.24 49.39 30.3 50.46 30.35 51.57 C30.51 55.32 30.64 59.07 30.75 62.82 C30.8 64.12 30.84 65.42 30.88 66.76 C30.99 69.95 31.09 73.13 31.19 76.32 C31.75 72.14 32.3 67.97 32.85 63.79 C33.03 62.37 33.22 60.96 33.41 59.55 C34.35 52.5 35.22 45.48 35.71 38.38 C36.08 33.15 36.81 28.17 38 23.07 C38.18 22.31 38.36 21.54 38.54 20.75 C41.6 8.12 41.6 8.12 44.19 5.32 C56.43 0.4 73.04 1.74 85.01 6.76 C95.84 11.72 102 17.37 107.19 28.01 C107.52 28.66 107.85 29.32 108.19 30 C109.23 32.09 110.22 34.2 111.19 36.32 C111.54 37.08 111.89 37.85 112.25 38.64 C115.07 45.18 116.47 51.59 117.44 58.63 C117.61 59.86 117.78 61.09 117.96 62.35 C120.69 84.46 119.52 107.1 119.19 129.32 C118.2 129.32 117.21 129.32 116.19 129.32 C116.19 128.44 116.19 128.44 116.18 127.55 C116.23 93.54 116.23 93.54 113.38 59.7 C113.23 58.55 113.07 57.41 112.92 56.23 C111.46 46.82 108.25 38.81 103.47 30.62 C102.09 28.14 100.93 25.59 99.75 23.01 C96.1 15.7 89.5 13.17 82.19 10.32 C81.59 10.06 80.99 9.8 80.37 9.54 C73.49 6.86 66.94 6.98 59.63 7.13 C58.43 7.15 57.23 7.16 55.99 7.17 C53.06 7.21 50.13 7.26 47.19 7.32 C41 25.29 39.07 43.25 37.52 62.08 C37.31 64.12 37.05 66.16 36.7 68.18 C36.23 71.09 35.96 73.92 35.8 76.87 C35.71 78.46 35.71 78.46 35.62 80.08 C35.56 81.21 35.5 82.34 35.44 83.5 C35.37 84.67 35.31 85.84 35.24 87.04 C35.03 90.76 34.83 94.48 34.63 98.2 C34.49 100.72 34.35 103.25 34.21 105.77 C33.87 111.96 33.53 118.14 33.19 124.32 C32.2 124.32 31.21 124.32 30.19 124.32 C29.3 113.97 28.88 103.64 28.59 93.25 C28.39 86.51 28.39 86.51 27.69 79.8 C26.73 73.08 26.83 66.24 26.67 59.46 C26.37 49.27 25.33 40.47 20.57 31.38 C20.04 30.36 20.04 30.36 19.51 29.31 C16.3 23.21 12.48 17.72 8.19 12.32 C7.75 11.71 7.31 11.09 6.86 10.46 C2.74 4.91 -2.75 2.44 -9.43 1.38 C-13.64 1.08 -16.28 1.88 -19.81 4.32 C-24.26 9.33 -25.73 16.08 -27.81 22.32 C-28.12 23.26 -28.44 24.21 -28.76 25.18 C-31.23 32.96 -31.94 40.58 -32.09 48.7 C-32.11 49.46 -32.13 50.23 -32.15 51.02 C-32.2 53.46 -32.26 55.89 -32.31 58.32 C-32.38 61.53 -32.45 64.74 -32.53 67.95 C-32.54 68.67 -32.55 69.39 -32.57 70.13 C-32.67 74.2 -33.03 78.14 -33.58 82.19 C-34.03 86.36 -34.05 90.54 -34.12 94.73 C-34.15 95.69 -34.17 96.66 -34.19 97.65 C-34.25 100.71 -34.31 103.76 -34.37 106.82 C-34.41 108.9 -34.46 110.99 -34.5 113.07 C-34.61 118.15 -34.71 123.24 -34.81 128.32 C-36.13 127.99 -37.45 127.66 -38.81 127.32 C-38.69 121.06 -38.57 114.8 -38.44 108.53 C-38.39 106.41 -38.35 104.28 -38.31 102.15 C-38.25 99.08 -38.19 96.01 -38.12 92.95 C-38.11 92 -38.09 91.06 -38.07 90.09 C-37.99 86.08 -37.84 82.14 -37.3 78.17 C-36.78 74.12 -36.62 70.19 -36.56 66.12 C-36.53 64.57 -36.5 63.01 -36.46 61.46 C-36.42 59.05 -36.37 56.65 -36.33 54.24 C-36.02 35.92 -34.77 15.78 -22.81 0.82 C-15.74 -4.48 -7.62 -3.79 0 0 Z " fill="#070707" transform="translate(458.80859375,210.6796875)"/>
<path d="M0 0 C1.5 -0.01 3.01 -0.03 4.51 -0.06 C18 -0.33 27.88 1.59 38.05 11.15 C41.98 17.03 41.13 23.53 40.15 30.3 C39.82 30.96 39.49 31.62 39.15 32.3 C38.49 32.3 37.83 32.3 37.15 32.3 C36.49 33.62 35.83 34.94 35.15 36.3 C34.49 36.3 33.83 36.3 33.15 36.3 C32.89 36.9 32.63 37.5 32.36 38.12 C27.33 47.12 12.19 50.67 3.15 54.3 C1.78 54.85 0.41 55.41 -0.96 55.96 C-7.92 58.78 -14.92 61.47 -21.94 64.14 C-24.46 65.14 -26.9 66.21 -29.35 67.36 C-37.76 71.19 -47.34 74.5 -56.66 74.36 C-57.45 74.35 -58.24 74.34 -59.06 74.33 C-59.65 74.32 -60.24 74.31 -60.85 74.3 C-60.85 73.31 -60.85 72.32 -60.85 71.3 C-59.81 71.15 -58.77 71 -57.7 70.85 C-42.81 68.59 -29.9 63.23 -16.14 57.33 C-10.53 54.94 -4.85 52.83 0.9 50.8 C13.65 46.22 28.69 40.32 36.15 28.3 C37.26 23.75 37.33 19.83 36.15 15.3 C31.2 9.64 24.66 5.42 17.15 4.3 C12.4 3.99 7.66 3.97 2.9 3.98 C1.64 3.97 0.38 3.95 -0.92 3.93 C-10.69 3.93 -19.54 4.84 -27.85 10.3 C-28.84 10.3 -29.83 10.3 -30.85 10.3 C-30.85 10.96 -30.85 11.62 -30.85 12.3 C-32.83 12.96 -34.81 13.62 -36.85 14.3 C-36.85 14.96 -36.85 15.62 -36.85 16.3 C-37.84 16.63 -38.83 16.96 -39.85 17.3 C-41.21 18.61 -42.54 19.94 -43.85 21.3 C-44.66 21.93 -45.46 22.57 -46.29 23.23 C-49.83 26.08 -52.92 29.31 -56.04 32.61 C-57.85 34.3 -57.85 34.3 -59.85 34.3 C-60.08 35.02 -60.31 35.74 -60.54 36.48 C-61.85 39.3 -61.85 39.3 -64.09 41.43 C-67.5 44.97 -69.85 48.78 -72.35 52.98 C-72.84 53.79 -73.32 54.6 -73.82 55.43 C-84.49 73.35 -91.07 93.13 -87.85 114.3 C-86.04 118.29 -83.78 121.09 -80.85 124.3 C-80.85 124.96 -80.85 125.62 -80.85 126.3 C-79.53 126.96 -78.21 127.62 -76.85 128.3 C-76.85 128.96 -76.85 129.62 -76.85 130.3 C-76.28 130.57 -75.71 130.84 -75.12 131.12 C-72.81 132.32 -70.74 133.68 -68.6 135.17 C-50.06 147.56 -31.1 146.65 -10 142.68 C-6.61 142.07 -3.21 141.66 0.21 141.23 C11.57 139.94 11.57 139.94 21.15 134.3 C24.76 132.49 28.44 130.88 32.15 129.3 C32.48 130.62 32.81 131.94 33.15 133.3 C32.26 133.77 31.36 134.24 30.45 134.72 C29.26 135.35 28.08 135.98 26.9 136.61 C25.74 137.22 24.58 137.84 23.38 138.47 C20.28 140.06 20.28 140.06 18.49 141.81 C15.07 143.98 11.46 144.34 7.53 144.9 C6.68 145.03 5.83 145.16 4.96 145.29 C2.21 145.71 -0.54 146.1 -3.29 146.48 C-4.69 146.68 -4.69 146.68 -6.11 146.89 C-29.35 150.17 -51.76 153.09 -71.85 138.3 C-74.65 136.1 -77.43 133.92 -79.85 131.3 C-79.85 130.64 -79.85 129.98 -79.85 129.3 C-80.72 128.95 -80.72 128.95 -81.6 128.61 C-86.38 125.82 -89.85 120.39 -91.85 115.3 C-92.38 111.57 -92.33 107.92 -92.23 104.17 C-92.2 102.63 -92.2 102.63 -92.18 101.07 C-91.89 88.65 -90.07 78.61 -84.85 67.3 C-84.38 66.08 -83.9 64.86 -83.41 63.61 C-81.72 60.02 -79.69 56.93 -77.44 53.67 C-75.88 51.33 -74.53 48.94 -73.16 46.48 C-69.31 39.96 -64.1 34.7 -58.85 29.3 C-57.96 28.35 -57.06 27.41 -56.14 26.44 C-53.85 24.3 -53.85 24.3 -51.85 24.3 C-51.85 23.64 -51.85 22.98 -51.85 22.3 C-50.54 21.06 -50.54 21.06 -48.7 19.69 C-48.03 19.18 -47.36 18.68 -46.67 18.16 C-45.58 17.36 -45.58 17.36 -44.48 16.55 C-43.38 15.73 -43.38 15.73 -42.26 14.9 C-28.34 4.7 -17.32 0.09 0 0 Z " fill="#0F0F0F" transform="translate(253.8515625,193.704833984375)"/>
<path d="M0 0 C1.3 -0 1.3 -0 2.63 -0.01 C4.01 0 4.01 0 5.41 0.01 C6.35 0.01 7.29 0.02 8.25 0.02 C10.99 0.05 13.73 0.08 16.47 0.13 C17.56 0.15 17.56 0.15 18.66 0.17 C20.45 0.22 22.24 0.3 24.04 0.38 C25.49 0.45 25.49 0.45 26.98 0.52 C30.33 1.34 31.46 2.33 33.47 5.13 C34.15 7.82 34.62 10.28 34.97 13.01 C35.81 18.61 36.89 23.9 38.6 29.32 C40.4 35.27 41.05 40.88 41.3 47.07 C41.39 50.04 41.39 50.04 41.97 52.51 C42.47 55.11 42.61 57.48 42.63 60.13 C42.64 61.1 42.65 62.07 42.66 63.06 C42.67 64.1 42.67 65.14 42.68 66.21 C42.68 67.3 42.69 68.39 42.69 69.51 C42.7 71.81 42.71 74.12 42.71 76.42 C42.72 79.89 42.75 83.37 42.79 86.84 C42.86 102.34 41.97 116.48 36.47 131.13 C35.48 130.8 34.49 130.47 33.47 130.13 C33.58 129.6 33.69 129.06 33.8 128.51 C34.15 126.81 34.48 125.11 34.81 123.41 C35.25 121.24 35.72 119.07 36.24 116.91 C38.75 105.5 38.87 94.35 38.75 82.69 C38.72 79.41 38.71 76.13 38.71 72.85 C38.7 70.76 38.69 68.66 38.68 66.56 C38.67 65.58 38.67 64.61 38.66 63.61 C38.65 62.7 38.64 61.79 38.63 60.85 C38.63 60.06 38.62 59.27 38.61 58.45 C38.46 55.94 37.99 53.59 37.47 51.13 C37.18 47.5 36.97 43.86 36.75 40.21 C36.67 37.22 36.67 37.22 35.47 35.13 C35.41 35.96 35.34 36.79 35.28 37.65 C33.44 60.49 31.17 82.49 20.47 103.13 C19.95 104.16 19.95 104.16 19.41 105.21 C12.07 119.21 12.07 119.21 5.38 121.58 C4.44 121.85 4.44 121.85 3.47 122.13 C2.24 122.66 1.01 123.2 -0.21 123.76 C-1.85 124.44 -1.85 124.44 -3.53 125.13 C-4.3 125.49 -5.06 125.84 -5.86 126.2 C-14.44 129.19 -27.58 127.86 -35.81 124.09 C-43.99 118.74 -48.94 108.35 -51.53 99.13 C-51.79 96.35 -51.91 93.84 -51.84 91.07 C-51.83 90.28 -51.82 89.5 -51.81 88.68 C-51.74 85.83 -51.64 82.98 -51.53 80.13 C-51.48 78.92 -51.43 77.71 -51.38 76.47 C-51.24 73.11 -51.07 69.76 -50.89 66.41 C-50.78 64.44 -50.69 62.48 -50.59 60.51 C-49.86 48.72 -48.23 36.6 -40.89 26.96 C-39.5 25.1 -38.51 23.24 -37.53 21.13 C-36.87 21.13 -36.21 21.13 -35.53 21.13 C-35.32 20.58 -35.11 20.02 -34.9 19.45 C-33.01 16.26 -30.41 14.43 -27.53 12.13 C-26.8 11.38 -26.8 11.38 -26.06 10.61 C-24.42 9.03 -22.91 8.14 -20.88 7.12 C-20.18 6.78 -19.49 6.43 -18.77 6.07 C-18.05 5.72 -17.33 5.37 -16.59 5.01 C-15.87 4.65 -15.16 4.29 -14.42 3.92 C-9.51 1.49 -5.54 0.01 0 0 Z M-16.53 9.13 C-18.52 10.14 -20.52 11.14 -22.53 12.13 C-22.53 12.79 -22.53 13.45 -22.53 14.13 C-23.33 14.4 -24.14 14.67 -24.96 14.95 C-25.81 15.34 -26.66 15.73 -27.53 16.13 C-27.86 17.12 -28.19 18.11 -28.53 19.13 C-30.59 20.32 -30.59 20.32 -32.53 21.13 C-32.53 21.79 -32.53 22.45 -32.53 23.13 C-33.52 23.46 -34.51 23.79 -35.53 24.13 C-44.63 35.35 -46.75 49.66 -47.53 63.58 C-47.65 65.67 -47.78 67.75 -47.91 69.83 C-49 87.51 -49.38 101.93 -39.15 117.33 C-33.56 123.54 -25.42 123.7 -17.58 124.39 C-12.09 124.62 -8.27 124.08 -3.55 121.22 C-1.53 120.13 -1.53 120.13 0.84 119.57 C6.83 118.07 9.4 115.33 12.54 110.22 C27.28 84.58 31.41 58.42 31.72 29.2 C31.74 28.02 31.77 26.85 31.79 25.64 C31.81 19.3 31.53 14.71 28.47 9.13 C28.18 8.35 27.9 7.58 27.6 6.77 C26.56 4.93 26.56 4.93 24.29 4.3 C9.2 2.04 -3.03 1.38 -16.53 9.13 Z " fill="#0A0A0A" transform="translate(360.52734375,203.8671875)"/>
<path d="M0 0 C1.98 0 3.96 0 6 0 C7.65 10.19 8.29 20.06 8.21 30.37 C8.19 32.63 8.19 34.89 8.19 37.15 C8.13 61.87 8.13 61.87 6 64 C5.61 68.59 5.57 73.21 5.44 77.81 C5.42 78.52 5.4 79.23 5.37 79.96 C4.78 100.3 4.91 120.65 5 141 C5.91 141.02 6.83 141.04 7.77 141.06 C11.17 141.14 14.57 141.23 17.97 141.32 C19.44 141.36 20.91 141.39 22.38 141.42 C24.5 141.47 26.61 141.53 28.73 141.59 C30 141.62 31.28 141.65 32.59 141.68 C35.84 141.98 38.04 142.71 41 144 C43.42 144.09 45.83 144.08 48.25 144 C56.08 143.85 62.83 144.76 70 148 C70 148.66 70 149.32 70 150 C73.96 150 77.92 150 82 150 C82 150.99 82 151.98 82 153 C79.81 153.05 77.63 153.09 75.44 153.12 C74.22 153.15 73 153.17 71.75 153.2 C68 153 68 153 64.63 152.03 C60.19 150.77 56.03 150.59 51.44 150.44 C49.79 150.38 48.14 150.31 46.5 150.25 C45.42 150.21 45.42 150.21 44.31 150.17 C42 150 42 150 39.23 149.49 C35.41 148.91 31.68 148.89 27.83 148.94 C27.06 148.94 26.3 148.95 25.51 148.95 C23.09 148.96 20.67 148.98 18.25 149 C15.05 149.03 11.84 149.05 8.64 149.06 C7.9 149.07 7.17 149.08 6.41 149.09 C1.23 149.11 1.23 149.11 -1 148 C-2.22 122.95 -2.33 97.94 -1.56 72.88 C-1.52 71.59 -1.48 70.31 -1.44 68.98 C-1.24 63.14 -0.96 57.33 -0.47 51.5 C0.29 41.39 0.11 31.26 0.06 21.12 C0.06 19.07 0.05 17.01 0.05 14.96 C0.04 9.97 0.02 4.99 0 0 Z " fill="#FEFEF5" transform="translate(459,399)"/>
<path d="M0 0 C0.66 0 1.32 0 2 0 C2.07 0.93 2.15 1.86 2.23 2.81 C3.25 13.98 5.21 24.91 7.34 35.91 C9.18 45.42 10.85 54.93 12.06 64.54 C12.98 71.65 14.94 77.94 17.69 84.56 C21.94 95.42 24.19 106.86 26.7 118.21 C27.65 122.48 28.64 126.73 29.67 130.98 C32.71 143.61 35.18 156.13 36.71 169.03 C37.01 171.07 37.47 173.01 38 175 C40.85 167.72 43.6 160.44 46 153 C46.33 152.07 46.66 151.14 47 150.18 C48.06 146.81 48.71 143.54 49.31 140.06 C51.92 125.7 54.66 111.32 59.27 97.44 C60.6 93.39 61.63 89.37 62.5 85.19 C63.63 80.01 65.38 75.57 67.68 70.8 C70.1 65.66 72 60.31 74 55 C74.85 52.81 75.71 50.62 76.56 48.44 C80.12 39.14 83.13 29.8 85.69 20.19 C86.01 18.99 86.01 18.99 86.34 17.76 C87.53 13.18 88.43 8.7 89 4 C91.47 3.5 91.47 3.5 94 3 C94 3.99 94 4.98 94 6 C93.34 6 92.68 6 92 6 C92 6.55 91.99 7.1 91.99 7.67 C91.27 23.23 85.05 39.23 79.5 53.69 C79.1 54.74 78.7 55.8 78.28 56.89 C77 60 77 60 75.55 62.82 C73.6 66.83 72.14 70.92 70.69 75.12 C70.38 76 70.08 76.87 69.77 77.77 C66.57 87.1 63.68 96.51 61 106 C60.81 106.66 60.63 107.32 60.43 107.99 C57.52 118.46 55.61 129.08 53.75 139.77 C53.55 140.89 53.35 142.01 53.15 143.17 C52.97 144.17 52.8 145.17 52.62 146.21 C52.01 148.97 51.11 151.4 50 154 C49.38 155.99 48.78 158 48.19 160 C46.43 165.82 44.33 171.44 42.11 177.1 C40.86 180.37 39.87 183.61 39 187 C37.68 186.67 36.36 186.34 35 186 C34.39 182.25 33.79 178.5 33.19 174.75 C33 173.62 32.82 172.48 32.63 171.31 C31.78 166.02 30.95 160.73 30.21 155.41 C29 146.79 27.5 138.56 25.1 130.17 C23.63 124.85 22.64 119.42 21.56 114 C18.68 99.18 18.68 99.18 13.06 85.24 C9.29 77.94 8.53 70.12 7.42 62.08 C6.82 57.71 6.17 53.34 5.53 48.98 C5.4 48.11 5.27 47.25 5.14 46.36 C4.06 39.14 2.67 32.02 1.12 24.88 C-0.57 16.91 -2.08 9.18 -1 1 C-0.67 0.67 -0.34 0.34 0 0 Z " fill="#45A163" transform="translate(92,369)"/>
<path d="M0 0 C0.5 1.98 0.5 1.98 1 4 C0.31 3.98 -0.38 3.95 -1.09 3.93 C-7.42 3.81 -12.87 4.39 -19 6 C-19 6.66 -19 7.32 -19 8 C-21.64 9.78 -23.97 10.99 -27 12 C-27.33 12.99 -27.66 13.98 -28 15 C-31.44 18 -31.44 18 -34 18 C-34.1 18.72 -34.21 19.44 -34.31 20.19 C-35.27 24.09 -37.29 26.94 -39.5 30.25 C-41.19 33.34 -42.19 36.41 -43.25 39.76 C-44 42 -44 42 -45.44 45.25 C-47.82 50.64 -49.4 56.34 -51 62 C-51.36 63.23 -51.36 63.23 -51.73 64.49 C-53.97 72.63 -54.85 80.66 -55.51 89.03 C-55.69 91.3 -55.88 93.56 -56.08 95.83 C-57.91 115.34 -57.91 115.34 -54 134.31 C-53.44 135.93 -52.87 137.55 -52.31 139.18 C-52.06 139.87 -51.81 140.56 -51.55 141.27 C-51 143 -51 143 -51 145 C-50.34 145 -49.68 145 -49 145 C-48.46 146.05 -47.93 147.1 -47.38 148.19 C-45.81 150.97 -44.25 152.83 -41.75 154.81 C-40.84 155.53 -39.94 156.26 -39 157 C-39 157.66 -39 158.32 -39 159 C-38.31 159.11 -37.62 159.22 -36.91 159.34 C-33.58 160.09 -30.61 161.3 -27.44 162.56 C-20.38 165.1 -12.91 167.23 -5.73 163.97 C-2.71 161.95 -1.16 160.48 0 157 C0.66 157 1.32 157 2 157 C2.13 156.28 2.26 155.56 2.39 154.81 C2.98 152.07 3.81 149.62 4.81 147 C7.13 140.74 9.16 134.41 11 128 C11.35 126.84 11.69 125.68 12.05 124.48 C13.54 118.43 13.73 112.2 14.12 106 C14.41 101.71 14.7 97.42 15 93 C5.43 92.67 -4.14 92.34 -14 92 C-14 91.01 -14 90.02 -14 89 C-9.42 88.97 -4.83 88.95 -0.25 88.94 C1.05 88.93 2.35 88.92 3.7 88.91 C5.57 88.91 5.57 88.91 7.48 88.9 C9.21 88.89 9.21 88.89 10.98 88.89 C13.52 88.98 15.58 89.25 18 90 C18.06 93.42 18.09 96.83 18.12 100.25 C18.15 101.67 18.15 101.67 18.18 103.12 C18.25 114.72 15.83 125.45 12.69 136.56 C12.4 137.61 12.12 138.65 11.83 139.73 C9.84 146.83 7.24 153.38 4 160 C3.34 160 2.68 160 2 160 C1.75 160.58 1.5 161.15 1.25 161.75 C-0.53 164.96 -2.7 167.35 -6 169 C-20.69 169.95 -34.51 167.28 -45.98 157.27 C-47.48 155.58 -48.75 153.87 -50 152 C-50.42 151.44 -50.85 150.88 -51.29 150.31 C-55.78 143.95 -57.79 136.38 -60 129 C-60.18 128.43 -60.37 127.85 -60.55 127.27 C-61.2 123.97 -61.16 120.71 -61.14 117.37 C-61.13 116.62 -61.13 115.87 -61.13 115.1 C-61.05 106.75 -60.51 98.45 -59.81 90.12 C-59.75 89.34 -59.68 88.56 -59.62 87.75 C-58.61 75.75 -56.89 64.44 -53 53 C-52.75 52.23 -52.5 51.46 -52.25 50.67 C-50.79 46.18 -49.14 42.06 -46.96 37.88 C-46.11 36.21 -45.36 34.48 -44.62 32.75 C-43.18 29.36 -41.65 26.02 -40.06 22.69 C-39.58 21.66 -39.1 20.63 -38.6 19.57 C-36.88 16.8 -35.88 16.28 -33 15 C-32.67 14.01 -32.34 13.02 -32 12 C-31.34 12 -30.68 12 -30 12 C-30 11.34 -30 10.68 -30 10 C-20.33 1.78 -12.51 -0.56 0 0 Z " fill="#DB8C50" transform="translate(327,383)"/>
<path d="M0 0 C0.99 0 1.98 0 3 0 C3.76 5.42 4.15 10.69 4.13 16.16 C4.13 16.92 4.13 17.67 4.14 18.45 C4.14 20.04 4.13 21.63 4.13 23.22 C4.13 25.6 4.13 27.98 4.14 30.36 C4.14 38.53 3.91 46.6 3.25 54.75 C0.89 85.03 1.9 115.66 2 146 C3.52 145.76 3.52 145.76 5.07 145.51 C8.71 145.04 12.15 144.87 15.82 144.87 C17.08 144.87 18.33 144.86 19.63 144.86 C20.93 144.87 22.23 144.87 23.56 144.88 C24.86 144.87 26.17 144.87 27.51 144.86 C29.39 144.87 29.39 144.87 31.32 144.87 C33.02 144.87 33.02 144.87 34.77 144.87 C37.93 145 40.89 145.45 44 146 C45.41 146.11 46.83 146.2 48.24 146.25 C49.38 146.3 49.38 146.3 50.54 146.35 C52.09 146.41 53.64 146.46 55.19 146.52 C58.98 146.69 62.49 147.03 66.16 148 C69.68 148.92 72.88 149.38 76.5 149.62 C77.54 149.7 78.58 149.77 79.66 149.85 C80.82 149.93 80.82 149.93 82 150 C82 150.99 82 151.98 82 153 C79.81 153.05 77.63 153.09 75.44 153.12 C74.22 153.15 73 153.17 71.75 153.2 C68 153 68 153 64.63 152.03 C60.19 150.77 56.03 150.59 51.44 150.44 C49.79 150.38 48.14 150.31 46.5 150.25 C45.42 150.21 45.42 150.21 44.31 150.17 C42 150 42 150 39.23 149.49 C35.41 148.91 31.68 148.89 27.83 148.94 C27.06 148.94 26.3 148.95 25.51 148.95 C23.09 148.96 20.67 148.98 18.25 149 C15.05 149.03 11.84 149.05 8.64 149.06 C7.9 149.07 7.17 149.08 6.41 149.09 C1.23 149.11 1.23 149.11 -1 148 C-2.22 122.95 -2.33 97.94 -1.56 72.88 C-1.52 71.59 -1.48 70.31 -1.44 68.98 C-1.24 63.14 -0.96 57.33 -0.47 51.5 C0.29 41.39 0.11 31.26 0.06 21.12 C0.06 19.07 0.05 17.01 0.05 14.96 C0.04 9.97 0.02 4.99 0 0 Z " fill="#F1E94C" transform="translate(459,399)"/>
<path d="M0 0 C0.66 0.33 1.32 0.66 2 1 C2.26 6.93 1.86 12.61 1.06 18.5 C0.33 23.93 -0.24 29.35 -0.54 34.83 C-0.58 35.58 -0.62 36.34 -0.66 37.12 C-1.31 50.03 -1.37 62.97 -1.55 75.89 C-1.6 79.41 -1.66 82.93 -1.72 86.45 C-1.73 87.53 -1.75 88.6 -1.76 89.7 C-1.84 94.59 -2.13 99.18 -3 104 C-3.27 107.18 -3.44 110.36 -3.61 113.55 C-3.73 115.45 -3.84 117.36 -3.95 119.26 C-4.04 120.74 -4.04 120.74 -4.13 122.26 C-5.13 138.85 -6.37 155.16 -9.52 171.5 C-10 174 -10.43 176.51 -10.85 179.02 C-12.68 189.92 -12.68 189.92 -14.02 194.43 C-15.12 198.44 -15.67 202.32 -16.12 206.44 C-16.21 207.17 -16.3 207.9 -16.39 208.65 C-16.6 210.44 -16.8 212.22 -17 214 C-17.99 214 -18.98 214 -20 214 C-21.26 210.33 -20.82 207.36 -20.25 203.56 C-20.09 202.45 -19.93 201.34 -19.77 200.19 C-19.19 196.76 -18.4 193.41 -17.59 190.03 C-15.79 182.39 -14.57 174.69 -13.38 166.94 C-13.05 164.85 -12.72 162.77 -12.4 160.69 C-12.1 158.82 -11.81 156.96 -11.52 155.09 C-11 152 -11 152 -10.49 150.09 C-9.96 147.84 -9.77 145.73 -9.63 143.42 C-9.57 142.52 -9.51 141.62 -9.45 140.69 C-9.4 139.72 -9.34 138.75 -9.28 137.76 C-9.22 136.76 -9.16 135.76 -9.09 134.72 C-8.89 131.52 -8.69 128.32 -8.5 125.12 C-8.31 121.93 -8.11 118.74 -7.91 115.55 C-7.78 113.56 -7.66 111.58 -7.55 109.59 C-7.32 106.02 -7.1 102.55 -6.47 99.03 C-5.75 94.38 -5.8 89.75 -5.75 85.06 C-5.72 82.86 -5.69 80.65 -5.66 78.45 C-5.64 77.3 -5.63 76.16 -5.61 74.98 C-5.16 42.58 -5.16 42.58 -4.06 27.12 C-3.95 25.53 -3.95 25.53 -3.84 23.9 C-2.12 2.12 -2.12 2.12 0 0 Z " fill="#060606" transform="translate(119,122)"/>
<path d="M0 0 C0.66 0 1.32 0 2 0 C5.06 10.83 5.16 21.69 5.17 32.88 C5.17 34.18 5.17 35.47 5.18 36.81 C5.18 39.53 5.19 42.25 5.19 44.97 C5.19 48.43 5.2 51.9 5.22 55.36 C5.23 58.7 5.23 62.04 5.23 65.38 C5.24 66.61 5.24 67.85 5.25 69.11 C5.23 75.73 4.68 81.62 3 88 C2.23 92.36 1.64 96.74 1.06 101.12 C0.98 101.77 0.89 102.42 0.81 103.08 C-2.24 126.91 -2.89 151.03 -4 175 C-4.99 175 -5.98 175 -7 175 C-7.1 162.95 -6.89 150.97 -6.25 138.94 C-6.21 138.13 -6.17 137.33 -6.12 136.5 C-5.49 124.51 -4.46 112.6 -3 100.69 C-2.92 100 -2.83 99.32 -2.75 98.61 C-1.36 87.39 -1.36 87.39 0.05 81.87 C1.37 76.04 1.29 70.27 1.27 64.32 C1.27 62.51 1.27 62.51 1.27 60.66 C1.27 58.11 1.27 55.56 1.26 53.01 C1.25 49.17 1.26 45.33 1.27 41.49 C1.28 28.95 0.96 16.67 -0.67 4.23 C-0.78 3.16 -0.89 2.1 -1 1 C-0.67 0.67 -0.34 0.34 0 0 Z " fill="#90588F" transform="translate(227,380)"/>
<path d="M0 0 C0.99 0.33 1.98 0.66 3 1 C3.95 45.71 3.95 45.71 0.56 67.44 C-1.74 82.33 -2.77 96.86 -2.94 111.95 C-3.01 118.22 -3.14 124.5 -3.27 130.78 C-3.53 143.85 -3.77 156.93 -4 170 C-4.99 170 -5.98 170 -7 170 C-7.31 86.86 -7.31 86.86 -3.82 67.78 C-1.19 52.75 -0.77 38.29 -0.94 23.06 C-0.97 19.9 -0.99 16.74 -1.01 13.57 C-1.02 11.62 -1.04 9.67 -1.06 7.72 C-1.07 6.85 -1.08 5.98 -1.08 5.08 C-1.09 4.32 -1.1 3.55 -1.11 2.76 C-1 1 -1 1 0 0 Z " fill="#2C95BF" transform="translate(394,386)"/>
<path d="M0 0 C0.33 0.99 0.66 1.98 1 3 C-29.68 3.17 -60.33 2.68 -91 2 C-91 4.31 -91 6.62 -91 9 C-91.99 8.67 -92.98 8.34 -94 8 C-94 6.35 -94 4.7 -94 3 C-95.44 3.11 -95.44 3.11 -96.92 3.22 C-111.61 4.22 -126.29 4.1 -141 4 C-140.34 3.01 -139.68 2.02 -139 1 C-136.25 0.58 -133.7 0.37 -130.93 0.27 C-130.09 0.23 -129.24 0.19 -128.37 0.15 C-125.54 0.02 -122.71 -0.09 -119.88 -0.19 C-118.89 -0.23 -117.91 -0.27 -116.9 -0.31 C-77.96 -1.86 -38.93 -1.37 0 0 Z " fill="#020202" transform="translate(214,113)"/>
<path d="M0 0 C0.66 0 1.32 0 2 0 C2.02 7.64 2.04 15.28 2.05 22.92 C2.06 26.47 2.06 30.02 2.08 33.57 C2.09 37.64 2.09 41.72 2.1 45.8 C2.1 47.08 2.11 48.35 2.11 49.66 C2.11 50.85 2.11 52.03 2.11 53.24 C2.12 54.28 2.12 55.33 2.12 56.4 C2 59 2 59 1 62 C0.88 64.66 0.81 67.3 0.79 69.96 C0.78 70.77 0.77 71.58 0.76 72.41 C0.73 75.09 0.71 77.77 0.68 80.45 C0.66 82.31 0.64 84.16 0.62 86.02 C0.57 90.91 0.52 95.79 0.47 100.68 C0.42 105.67 0.36 110.66 0.31 115.64 C0.2 125.43 0.1 135.21 0 145 C0.75 144.68 1.51 144.35 2.28 144.02 C5.78 142.71 8.72 142.76 12.45 142.77 C13.15 142.77 13.85 142.77 14.58 142.77 C16.05 142.77 17.52 142.78 18.99 142.79 C21.26 142.81 23.52 142.81 25.78 142.81 C36.85 142.85 36.85 142.85 38 144 C40.33 144.02 42.67 143.99 45 143.94 C52.91 143.84 59.76 144.73 67 148 C63.86 149.01 62.15 148.81 59 148 C57.63 147.87 56.26 147.78 54.88 147.72 C54.11 147.68 53.34 147.64 52.54 147.61 C51.75 147.57 50.95 147.54 50.12 147.5 C48.54 147.43 46.96 147.36 45.38 147.28 C44.69 147.25 43.99 147.22 43.27 147.19 C41 147 41 147 38.25 146.49 C34.33 145.9 30.49 145.88 26.54 145.9 C25.35 145.9 25.35 145.9 24.14 145.91 C21.64 145.91 19.13 145.92 16.62 145.94 C14.92 145.94 13.21 145.95 11.5 145.95 C7.34 145.96 3.17 145.98 -1 146 C-2.34 121.44 -2.35 96.89 -1.56 72.31 C-1.52 71.08 -1.48 69.85 -1.44 68.58 C-1.24 62.88 -0.95 57.22 -0.47 51.54 C0.29 41.41 0.11 31.27 0.06 21.12 C0.06 19.07 0.05 17.01 0.05 14.96 C0.04 9.97 0.02 4.99 0 0 Z " fill="#FEFDBF" transform="translate(462,399)"/>
<path d="M0 0 C1.94 0.38 1.94 0.38 4 1 C4.33 1.66 4.66 2.32 5 3 C5.66 2.34 6.32 1.68 7 1 C6.44 6.39 5.02 10.98 3 16 C2.21 18.08 1.42 20.17 0.62 22.25 C-1.46 27.65 -3.64 33.01 -5.89 38.34 C-6.95 40.89 -7.98 43.44 -9 46 C-10.02 42.86 -9.94 40.96 -9 37.81 C-8.5 35.93 -8.5 35.93 -8 34 C-8.33 33.67 -8.66 33.34 -9 33 C-8.75 31.47 -8.42 29.95 -8.06 28.44 C-7.77 27.2 -7.77 27.2 -7.47 25.93 C-7.32 25.3 -7.16 24.66 -7 24 C-6.34 24 -5.68 24 -5 24 C-4.67 23.34 -4.34 22.68 -4 22 C-3.34 22 -2.68 22 -2 22 C-2 20.68 -2 19.36 -2 18 C-1.34 17.34 -0.68 16.68 0 16 C0.39 13.68 0.72 11.34 1 9 C1.31 7.66 1.63 6.32 2 5 C1.34 5 0.68 5 0 5 C0 3.35 0 1.7 0 0 Z " fill="#E2FAEC" transform="translate(168,398)"/>
<path d="M0 0 C0.78 -0.03 1.56 -0.05 2.37 -0.08 C5.1 0.33 5.9 1.09 7.56 3.25 C9.56 8.41 9.56 8.41 9.56 11.25 C10.18 11.31 10.8 11.37 11.44 11.44 C13.56 12.25 13.56 12.25 14.75 14.62 C15.02 15.49 15.29 16.36 15.56 17.25 C15.89 18.24 16.22 19.23 16.56 20.25 C13.47 19.94 12.58 19.27 10.45 16.92 C9.72 15.96 9 14.99 8.25 14 C4.66 9.44 1.48 6.3 -3.44 3.25 C-4.43 2.59 -5.42 1.93 -6.44 1.25 C-4.11 0.09 -2.59 0.05 0 0 Z " fill="#EFEFEF" transform="translate(461.4375,207.75)"/>
<path d="M0 0 C6.55 6.55 6.72 18.29 7 27 C7.66 27 8.32 27 9 27 C9.18 28.54 9.18 28.54 9.37 30.11 C9.54 31.47 9.71 32.83 9.88 34.19 C9.95 34.86 10.03 35.53 10.11 36.23 C10.61 40.12 11.39 43.43 13 47 C14 50 14 50 13.06 52.19 C12.71 52.79 12.36 53.38 12 54 C9.32 42.96 6.72 31.91 4.31 20.81 C4.01 19.42 4.01 19.42 3.7 17.99 C2.41 12.01 1.18 6.01 0 0 Z " fill="#DCF9E0" transform="translate(112,460)"/>
<path d="M0 0 C0.33 0 0.66 0 1 0 C1.14 0.72 1.28 1.43 1.43 2.17 C2.07 5.45 2.72 8.72 3.38 12 C3.6 13.13 3.82 14.25 4.05 15.41 C5.22 21.32 6.47 27.17 8 33 C7.01 32.67 6.02 32.34 5 32 C5 31.01 5 30.02 5 29 C4.34 29 3.68 29 3 29 C2.88 28.08 2.76 27.17 2.63 26.23 C2.47 25.04 2.3 23.85 2.12 22.62 C1.96 21.44 1.8 20.26 1.63 19.04 C1.27 15.9 1.27 15.9 -1 14 C-0.34 14 0.32 14 1 14 C0.84 13.41 0.69 12.82 0.53 12.21 C-1.41 4.36 -1.41 4.36 0 0 Z " fill="#E0F9E9" transform="translate(113,479)"/>
<path d="M0 0 C-1.18 3.55 -1.98 3.89 -5.06 5.81 C-9.54 8.68 -13.79 11.76 -18 15 C-19.12 10.25 -19.12 10.25 -18 8 C-16 7.33 -14 6.67 -12 6 C-11.3 5.46 -10.6 4.93 -9.88 4.38 C-8 3 -8 3 -4 3 C-4 2.34 -4 1.68 -4 1 C-2 0 -2 0 0 0 Z " fill="#E8E8E8" transform="translate(221,201)"/>
<path d="M0 0 C0.33 0 0.66 0 1 0 C1 17.16 1 34.32 1 52 C0.01 52 -0.98 52 -2 52 C-1.84 51.44 -1.68 50.88 -1.51 50.3 C-0.97 47.86 -0.84 45.65 -0.79 43.14 C-0.76 41.7 -0.76 41.7 -0.73 40.23 C-0.71 38.68 -0.71 38.68 -0.68 37.11 C-0.66 36.05 -0.64 34.99 -0.62 33.9 C-0.56 30.52 -0.5 27.13 -0.44 23.75 C-0.39 21.46 -0.35 19.16 -0.31 16.87 C-0.2 11.24 -0.1 5.62 0 0 Z " fill="#4091B2" transform="translate(389,504)"/>
<path d="M0 0 C0.33 0 0.66 0 1 0 C1.81 9.65 1.89 15.58 -4.47 23.34 C-5.23 24.16 -5.23 24.16 -6 25 C-7 23 -7 23 -6.07 19.8 C-5.62 18.49 -5.16 17.18 -4.69 15.88 C-2.86 10.62 -1.22 5.43 0 0 Z " fill="#FDEED6" transform="translate(341,511)"/>
<path d="M0 0 C2 2 2 2 3.44 5 C4.81 8.22 4.81 8.22 8 10 C9.25 12.44 9.25 12.44 10 15 C9.67 15.99 9.34 16.98 9 18 C4.2 13.89 1.13 8.97 -1 3 C-0.67 2.01 -0.34 1.02 0 0 Z " fill="#E4E4E4" transform="translate(316,306)"/>
<path d="M0 0 C4.29 0 8.58 0 13 0 C14 4 14 4 13 6 C10.45 6.31 8 6.51 5.44 6.62 C4.37 6.68 4.37 6.68 3.28 6.74 C1.52 6.84 -0.24 6.92 -2 7 C-2 6.01 -2 5.02 -2 4 C2.62 4 7.24 4 12 4 C12 3.01 12 2.02 12 1 C8.04 1 4.08 1 0 1 C0 0.67 0 0.34 0 0 Z " fill="#FDFCC0" transform="translate(529,548)"/>
<path d="M0 0 C4.34 4.66 6.53 10.22 9 16 C6.19 15.5 6.19 15.5 3 14 C0.92 10.48 0 7.07 0 3 C-0.66 3 -1.32 3 -2 3 C-1 1 -1 1 0 0 Z " fill="#EBEBEB" transform="translate(559,235)"/>
<path d="M0 0 C12.21 0 24.42 0 37 0 C37 0.33 37 0.66 37 1 C36.35 1.03 35.7 1.05 35.03 1.08 C32.08 1.19 29.13 1.31 26.19 1.44 C24.65 1.5 24.65 1.5 23.08 1.56 C22.1 1.6 21.12 1.64 20.11 1.68 C19.2 1.72 18.29 1.76 17.36 1.79 C14.85 1.92 14.85 1.92 12 3 C7.44 3.25 4.13 3 0 1 C0 0.67 0 0.34 0 0 Z " fill="#FDFEB7" transform="translate(458,547)"/>
<path d="M0 0 C2.64 0.66 5.28 1.32 8 2 C5.26 3.83 2.86 4.94 -0.19 6.12 C-1.09 6.48 -1.99 6.83 -2.92 7.2 C-3.95 7.59 -3.95 7.59 -5 8 C-4.63 5.58 -4.63 5.58 -4 3 C-1.94 1.69 -1.94 1.69 0 1 C0 0.67 0 0.34 0 0 Z " fill="#ECECEC" transform="translate(232,248)"/>
<path d="M0 0 C0.66 0 1.32 0 2 0 C2 0.66 2 1.32 2 2 C2.66 2 3.32 2 4 2 C4.33 2.66 4.66 3.32 5 4 C5.99 4 6.98 4 8 4 C8.33 5.98 8.66 7.96 9 10 C5.04 7.69 1.08 5.38 -3 3 C-2.01 2.01 -1.02 1.02 0 0 Z " fill="#E5E5E5" transform="translate(550,217)"/>
<path d="M0 0 C2.65 2.58 4.94 4.92 7 8 C4.69 8.69 4.69 8.69 2 9 C0.19 7.69 0.19 7.69 -1 6 C-1 5.34 -1 4.68 -1 4 C-1.66 3.34 -2.32 2.68 -3 2 C-2.01 1.34 -1.02 0.68 0 0 Z " fill="#E3E3E3" transform="translate(466,222)"/>
<path d="M0 0 C2.31 0 4.62 0 7 0 C4.71 3.43 3.7 3.59 0 5 C-1.36 5.96 -2.71 6.95 -4 8 C-4.33 7.34 -4.66 6.68 -5 6 C-4.34 6 -3.68 6 -3 6 C-3.33 5.01 -3.66 4.02 -4 3 C-3.34 2.67 -2.68 2.34 -2 2 C-1.34 2.33 -0.68 2.66 0 3 C0 2.01 0 1.02 0 0 Z " fill="#EBEBEB" transform="translate(437,207)"/>
<path d="M0 0 C2.5 1.38 2.5 1.38 5 3 C5 3.66 5 4.32 5 5 C4.34 5 3.68 5 3 5 C3 5.66 3 6.32 3 7 C1.02 7 -0.96 7 -3 7 C-1.12 2.25 -1.12 2.25 0 0 Z " fill="#EBEBEB" transform="translate(458,214)"/>
<path d="M0 0 C0.66 0 1.32 0 2 0 C2.19 0.96 2.19 0.96 2.38 1.94 C2.68 2.96 2.68 2.96 3 4 C3.66 4.33 4.32 4.66 5 5 C4.01 7.64 3.02 10.28 2 13 C1.67 13 1.34 13 1 13 C0.67 8.71 0.34 4.42 0 0 Z " fill="#CFFCE4" transform="translate(128,535)"/>
<path d="M0 0 C0.99 0.33 1.98 0.66 3 1 C1.68 4.3 0.36 7.6 -1 11 C-1.66 10.67 -2.32 10.34 -3 10 C-3.62 7.44 -3.62 7.44 -4 5 C-3.01 4.67 -2.02 4.34 -1 4 C-0.27 1.98 -0.27 1.98 0 0 Z " fill="#EBEBEB" transform="translate(381,290)"/>
<path d="M0 0 C3.37 0.55 5.08 1.05 8 3 C8.66 3.33 9.32 3.66 10 4 C10.62 6.06 10.62 6.06 11 8 C6.16 7.59 4.14 5.58 1 2 C0.67 1.34 0.34 0.68 0 0 Z " fill="#FDE2C9" transform="translate(282,535)"/>
<path d="M0 0 C0.99 0.33 1.98 0.66 3 1 C3.33 0.67 3.66 0.34 4 0 C4.99 0.66 5.98 1.32 7 2 C5.54 2.84 4.09 3.67 2.62 4.5 C1.41 5.2 1.41 5.2 0.16 5.91 C-2 7 -2 7 -4 7 C-4 6.34 -4 5.68 -4 5 C-3.34 5 -2.68 5 -2 5 C-1.67 4.01 -1.34 3.02 -1 2 C-0.67 1.34 -0.34 0.68 0 0 Z " fill="#EBEBEB" transform="translate(276,323)"/>
<path d="M0 0 C0.99 0.33 1.98 0.66 3 1 C1.02 3.31 -0.96 5.62 -3 8 C-3.99 7.01 -4.98 6.02 -6 5 C-5.01 4.34 -4.02 3.68 -3 3 C-2.67 2.34 -2.34 1.68 -2 1 C-1.67 1.33 -1.34 1.66 -1 2 C-0.67 1.34 -0.34 0.68 0 0 Z " fill="#E5E5E5" transform="translate(286,223)"/>
<path d="M0 0 C0.33 0.66 0.66 1.32 1 2 C1.66 2.29 2.32 2.58 3 2.88 C5 4 5 4 5.75 6.12 C5.83 6.74 5.92 7.36 6 8 C5.01 8.33 4.02 8.66 3 9 C1.68 6.36 0.36 3.72 -1 1 C-0.67 0.67 -0.34 0.34 0 0 Z " fill="#E6E6E6" transform="translate(480,233)"/>
<path d="M0 0 C0.33 0 0.66 0 1 0 C1 1.65 1 3.3 1 5 C1.66 5 2.32 5 3 5 C3 6.98 3 8.96 3 11 C2.01 11 1.02 11 0 11 C-0.19 9.54 -0.38 8.08 -0.56 6.62 C-0.67 5.81 -0.77 5 -0.88 4.16 C-1 2 -1 2 0 0 Z " fill="#29A853" transform="translate(128,543)"/>
<path d="M0 0 C1.32 0.66 2.64 1.32 4 2 C2.02 4.31 0.04 6.62 -2 9 C-3.05 5.85 -3.07 5.01 -2 2 C-1.34 1.34 -0.68 0.68 0 0 Z " fill="#E1E1E1" transform="translate(189,224)"/>
<path d="M0 0 C0.14 0.6 0.29 1.2 0.44 1.81 C0.89 3.56 1.43 5.29 2 7 C1.34 7.66 0.68 8.32 0 9 C-3 4.38 -3 4.38 -3 1 C-2.01 0.67 -1.02 0.34 0 0 Z " fill="#E7E7E7" transform="translate(570,240)"/>
<path d="M0 0 C0.33 0 0.66 0 1 0 C2.35 7.26 2.35 7.26 0.56 11 C0.05 11.66 -0.47 12.32 -1 13 C-2.13 9.62 -1.82 8.23 -1.06 4.81 C-0.87 3.91 -0.67 3.01 -0.47 2.08 C-0.32 1.39 -0.16 0.71 0 0 Z " fill="#D7F9E2" transform="translate(148,491)"/>
<path d="M0 0 C0.33 0.66 0.66 1.32 1 2 C1.99 2 2.98 2 4 2 C4 2.66 4 3.32 4 4 C4.66 4 5.32 4 6 4 C5.67 5.32 5.34 6.64 5 8 C2.5 5.69 2.5 5.69 0 3 C0 2.01 0 1.02 0 0 Z " fill="#DEDEDE" transform="translate(176,319)"/>
<path d="M0 0 C2.44 0.81 2.44 0.81 5 2 C5.33 2.99 5.66 3.98 6 5 C4.68 5 3.36 5 2 5 C2 5.66 2 6.32 2 7 C1.34 6.67 0.68 6.34 0 6 C0 4.02 0 2.04 0 0 Z " fill="#EDEDED" transform="translate(160,310)"/>
<path d="M0 0 C1.65 0 3.3 0 5 0 C5.33 0.99 5.66 1.98 6 3 C4.68 3.99 3.36 4.98 2 6 C1.34 4.02 0.68 2.04 0 0 Z " fill="#EDEDED" transform="translate(312,300)"/>
<path d="M0 0 C0.66 0.33 1.32 0.66 2 1 C0.51 4.8 -1.76 6.61 -5 9 C-4.67 7.02 -4.34 5.04 -4 3 C-3.01 3.33 -2.02 3.66 -1 4 C-0.67 2.68 -0.34 1.36 0 0 Z " fill="#E2E2E2" transform="translate(198,216)"/>
<path d="M0 0 C2.06 2.31 2.06 2.31 4 5 C3.67 5.99 3.34 6.98 3 8 C2.01 7.67 1.02 7.34 0 7 C-1.18 4.06 -1.03 3.1 0 0 Z " fill="#EDEDED" transform="translate(313,313)"/>
<path d="M0 0 C-1.19 3.38 -2.28 5.65 -5 8 C-5 5.69 -5 3.38 -5 1 C-3 0 -3 0 0 0 Z " fill="#E6E6E6" transform="translate(373,312)"/>
<path d="M0 0 C2.38 0.19 2.38 0.19 5 1 C6.31 3.56 6.31 3.56 7 6 C5.19 5.81 5.19 5.81 3 5 C1.25 2.44 1.25 2.44 0 0 Z " fill="#DFDFDF" transform="translate(471,222)"/>
<path d="M0 0 C1.78 2.67 2.88 5.03 4 8 C2.68 8 1.36 8 0 8 C-0.8 4.71 -1.1 3.29 0 0 Z " fill="#EDEDED" transform="translate(480,243)"/>
<path d="M0 0 C0.6 0.19 1.2 0.37 1.81 0.56 C4.16 1.22 4.16 1.22 7 0 C6.67 1.98 6.34 3.96 6 6 C3.98 4.36 1.98 2.69 0 1 C0 0.67 0 0.34 0 0 Z " fill="#DFDFDF" transform="translate(288,202)"/>
<path d="M0 0 C2 3 2 3 2 7 C1.01 7 0.02 7 -1 7 C-1.62 5.19 -1.62 5.19 -2 3 C-1.34 2.01 -0.68 1.02 0 0 Z " fill="#1A1A1A" transform="translate(100,329)"/>
<path d="M0 0 C3 1 3 1 4.19 3.06 C4.46 3.7 4.72 4.34 5 5 C3.68 5.33 2.36 5.66 1 6 C0.34 5.01 -0.32 4.02 -1 3 C-0.67 2.01 -0.34 1.02 0 0 Z " fill="#E0E0E0" transform="translate(554,228)"/>
<path d="M0 0 C2 1.38 2 1.38 4 3 C4 3.66 4 4.32 4 5 C3.01 5.33 2.02 5.66 1 6 C0.01 4.68 -0.98 3.36 -2 2 C-1.34 2 -0.68 2 0 2 C0 1.34 0 0.68 0 0 Z " fill="#202020" transform="translate(465,216)"/>
<path d="M0 0 C0.99 0.33 1.98 0.66 3 1 C5.14 0.61 5.14 0.61 7 0 C6.67 0.99 6.34 1.98 6 3 C3.44 4.19 3.44 4.19 1 5 C0.67 3.35 0.34 1.7 0 0 Z " fill="#EBEBEB" transform="translate(226,194)"/>
<path d="M0 0 C1.47 3.81 0.43 6.29 -1 10 C-1.33 10 -1.66 10 -2 10 C-2.25 3.38 -2.25 3.38 0 0 Z " fill="#D9F8DB" transform="translate(154,454)"/>
<path d="M0 0 C2.31 0 4.62 0 7 0 C7.33 0.99 7.66 1.98 8 3 C7.01 3 6.02 3 5 3 C5 2.34 5 1.68 5 1 C3.68 1.99 2.36 2.98 1 4 C0.67 2.68 0.34 1.36 0 0 Z " fill="#EAEAEA" transform="translate(167,323)"/>
</svg>
