<?xml version="1.0" encoding="UTF-8"?>
<!-- Generator: https://ezgif.com/png-to-svg -->
<svg version="1.1" xmlns="http://www.w3.org/2000/svg" width="512" height="512" viewBox="-108.001 -43.871 815.562 815.562" preserveAspectRatio="xMidYMid meet">
<path d="M0 0 C17.24 0 32 13.79 43.62 25.19 C76.75 58.62 96.86 110.66 97.24 157.44 C97.25 158.92 97.25 158.92 97.27 160.44 C97.59 201.2 97.59 201.2 93 219 C92.79 219.88 92.57 220.76 92.35 221.66 C84.47 253.53 68.27 281.77 52 310 C50.77 312.15 49.54 314.29 48.31 316.44 C40.83 329.46 33.25 342.42 25.58 355.33 C23.99 358.01 22.41 360.69 20.83 363.38 C13.25 376.24 5.59 389.05 -2.1 401.84 C-3.97 404.94 -5.83 408.05 -7.69 411.16 C-15.2 423.7 -22.76 436.22 -30.37 448.7 C-33.65 454.1 -36.91 459.49 -40 465 C-43.73 463.76 -43.9 462.86 -45.68 459.46 C-46.44 458.02 -46.44 458.02 -47.23 456.55 C-48.04 454.98 -48.04 454.98 -48.88 453.38 C-50.04 451.17 -51.21 448.97 -52.39 446.77 C-52.99 445.64 -53.58 444.51 -54.2 443.35 C-56.95 438.23 -59.81 433.18 -62.69 428.12 C-63.77 426.22 -64.85 424.32 -65.93 422.41 C-66.71 421.05 -66.71 421.05 -67.5 419.65 C-69.77 415.64 -72.01 411.6 -74.25 407.56 C-77.23 402.18 -80.23 396.8 -83.25 391.44 C-85.9 386.73 -88.55 382.03 -91.18 377.32 C-91.75 376.3 -92.32 375.29 -92.91 374.24 C-94.1 372.12 -95.28 369.99 -96.46 367.87 C-99.59 362.25 -102.77 356.66 -106.05 351.12 C-106.7 350 -107.35 348.88 -108.02 347.73 C-109.27 345.58 -110.54 343.45 -111.82 341.32 C-112.38 340.35 -112.95 339.37 -113.53 338.37 C-114.03 337.52 -114.53 336.68 -115.05 335.81 C-117.31 329.12 -114.28 322.26 -111.96 315.93 C-111.64 315.05 -111.32 314.17 -111 313.26 C-110.31 311.33 -109.61 309.41 -108.92 307.48 C-106.98 302.15 -105.08 296.82 -103.17 291.48 C-102.76 290.34 -102.35 289.19 -101.93 288.01 C-98.69 278.96 -95.5 269.88 -92.33 260.8 C-92.09 260.11 -91.85 259.43 -91.6 258.72 C-89.69 253.24 -87.78 247.75 -85.87 242.26 C-80.52 226.9 -75.14 211.54 -69.66 196.23 C-65.76 185.35 -61.93 174.46 -58.1 163.56 C-51.98 146.12 -45.83 128.68 -39.65 111.25 C-32.7 91.67 -25.8 72.06 -18.94 52.44 C-18.72 51.8 -18.49 51.17 -18.27 50.52 C-16.77 46.24 -15.27 41.96 -13.78 37.68 C-13.17 35.95 -13.17 35.95 -12.55 34.18 C-10.57 28.51 -8.59 22.83 -6.64 17.15 C-6.27 16.07 -5.9 15 -5.51 13.89 C-4.81 11.87 -4.12 9.84 -3.43 7.82 C-2.97 6.49 -2.97 6.49 -2.5 5.13 C-2.23 4.35 -1.96 3.57 -1.69 2.77 C-1 1 -1 1 0 0 Z " fill="#FEFE00" transform="translate(503,0)"/>
<path d="M0 0 C9.02 25.16 17.95 50.34 26.81 75.56 C31.65 89.34 36.52 103.12 41.4 116.89 C51.77 146.12 62.03 175.39 72.28 204.66 C81.58 231.18 90.87 257.7 100.25 284.19 C100.59 285.15 100.93 286.1 101.28 287.09 C101.93 288.95 102.59 290.8 103.25 292.66 C103.88 294.44 104.51 296.22 105.13 298 C106.79 302.69 108.51 307.35 110.29 312 C110.67 312.99 111.05 313.98 111.43 315 C112.16 316.9 112.89 318.79 113.64 320.67 C116.01 326.96 116.61 331.33 113.82 337.69 C113.33 338.54 112.84 339.4 112.33 340.27 C111.5 341.74 111.5 341.74 110.65 343.23 C110.04 344.27 109.44 345.31 108.81 346.38 C107.53 348.62 106.24 350.86 104.96 353.11 C104.3 354.27 103.63 355.42 102.96 356.58 C99.91 361.9 96.93 367.26 93.94 372.62 C89.48 380.59 85 388.55 80.5 396.5 C72.24 411.1 64.03 425.74 55.89 440.41 C55.55 441.02 55.2 441.64 54.85 442.27 C53.19 445.26 51.54 448.24 49.89 451.23 C49.29 452.3 48.7 453.38 48.08 454.48 C47.56 455.43 47.03 456.38 46.5 457.35 C46 458.22 45.51 459.1 45 460 C44.48 460.94 43.97 461.88 43.43 462.84 C42.96 463.56 42.49 464.27 42 465 C41.34 465 40.68 465 40 465 C38.8 463.35 38.8 463.35 37.45 461 C36.94 460.12 36.44 459.25 35.91 458.35 C35.36 457.39 34.82 456.43 34.25 455.44 C33.07 453.41 31.9 451.39 30.72 449.37 C30.11 448.32 29.5 447.27 28.87 446.18 C25.89 441.11 22.82 436.08 19.75 431.06 C18.57 429.13 17.39 427.2 16.21 425.27 C15.66 424.36 15.11 423.46 14.54 422.53 C11.39 417.35 8.28 412.15 5.17 406.95 C3.86 404.77 2.55 402.59 1.24 400.41 C-5.68 388.9 -12.54 377.34 -19.37 365.76 C-20.97 363.05 -22.58 360.34 -24.18 357.63 C-35.96 337.78 -47.49 317.79 -58.8 297.66 C-60.98 293.79 -63.19 289.93 -65.42 286.09 C-83.22 255.25 -96.97 220.96 -97.24 184.87 C-97.25 183.8 -97.25 182.74 -97.26 181.64 C-97.28 179.38 -97.29 177.13 -97.3 174.87 C-97.31 172.61 -97.33 170.35 -97.36 168.09 C-98.03 116.77 -80.09 63.3 -44 26 C-32.41 14.29 -17.39 -0.18 0 0 Z " fill="#FEFE00" transform="translate(97,0)"/>
<path d="M0 0 C3.37 1.12 3.69 1.62 5.54 4.47 C6.03 5.21 6.52 5.96 7.02 6.72 C7.55 7.54 8.07 8.37 8.62 9.21 C9.18 10.07 9.74 10.93 10.32 11.81 C11.54 13.68 12.75 15.55 13.96 17.42 C17.22 22.45 20.5 27.46 23.78 32.47 C24.8 34.03 24.8 34.03 25.83 35.61 C32.91 46.42 40.13 57.12 47.38 67.81 C55.72 80.12 64.04 92.43 71.97 105.01 C72.49 105.83 73.01 106.64 73.54 107.48 C73.98 108.17 74.41 108.86 74.86 109.57 C75.23 110.04 75.61 110.51 76 111 C76.66 111 77.32 111 78 111 C79.38 109.07 80.64 107.15 81.88 105.12 C82.68 103.83 83.5 102.54 84.31 101.25 C84.74 100.56 85.18 99.87 85.62 99.16 C88 95.42 90.47 91.74 92.94 88.06 C93.45 87.3 93.96 86.54 94.48 85.75 C95.5 84.23 96.52 82.71 97.54 81.19 C99.74 77.9 101.93 74.6 104.12 71.31 C104.94 70.09 105.75 68.87 106.56 67.66 C106.96 67.06 107.36 66.46 107.77 65.84 C111.13 60.81 114.48 55.78 117.84 50.75 C118.22 50.17 118.6 49.59 119 49 C139 19 139 19 140.98 16.04 C142.4 13.91 143.79 11.77 145.18 9.61 C145.88 8.52 146.59 7.43 147.31 6.31 C148.27 4.82 148.27 4.82 149.24 3.3 C151 1 151 1 154 0 C154.3 0.55 154.59 1.09 154.9 1.65 C161.13 13.17 167.46 24.63 173.92 36.03 C178.22 43.6 182.46 51.2 186.69 58.81 C187.32 59.96 187.96 61.1 188.61 62.28 C190.41 65.52 192.2 68.76 194 72 C200.13 83.06 200.13 83.06 206.29 94.09 C206.67 94.76 207.04 95.43 207.43 96.12 C208.18 97.45 208.94 98.78 209.71 100.1 C211.59 103.35 213.28 106.56 214.72 110.03 C220.45 123.04 230.79 128.42 242.83 135.2 C247.79 138.02 252.61 141.04 257.44 144.06 C258.27 144.57 259.1 145.09 259.96 145.61 C260.76 146.1 261.55 146.59 262.37 147.1 C263.05 147.52 263.73 147.93 264.43 148.36 C265.28 148.9 266.13 149.44 267 150 C267.74 150.4 268.48 150.79 269.24 151.2 C275.45 154.79 275.45 154.79 276.87 157.92 C277.27 160.29 277.37 162.54 277.4 164.94 C277.5 166.92 277.6 168.89 277.71 170.87 C277.77 172.55 277.77 172.55 277.83 174.26 C278.02 178.44 278.3 182.61 278.6 186.79 C279.26 195.98 279.86 205.19 280.46 214.39 C280.68 217.88 280.92 221.38 281.15 224.87 C281.37 228.28 281.6 231.7 281.82 235.11 C281.92 236.72 282.03 238.32 282.14 239.93 C282.78 249.65 283.11 259.26 283 269 C277.72 269 272.44 269 267 269 C255.37 217.05 255.37 217.05 250.77 195.31 C250.42 193.69 250.08 192.08 249.73 190.46 C249.26 188.24 248.79 186.02 248.33 183.8 C247.94 181.96 247.94 181.96 247.54 180.09 C247 177 247 177 247 173 C246.36 172.94 245.71 172.87 245.05 172.81 C242.23 172.06 240.62 171.24 238.17 169.74 C218.08 158.45 195.72 164.72 174.15 168.12 C168.76 168.95 163.36 169.72 157.96 170.5 C149.58 171.71 141.2 172.95 132.83 174.22 C122.71 175.75 112.58 177.24 102.45 178.63 C100.89 178.85 99.34 179.06 97.79 179.29 C95.66 179.59 93.54 179.88 91.41 180.17 C89.65 180.41 89.65 180.41 87.85 180.66 C78.22 181.51 69.11 180.67 59.56 179.27 C57.57 178.99 55.58 178.7 53.59 178.42 C51.47 178.12 49.35 177.82 47.23 177.51 C42.79 176.88 38.35 176.26 33.91 175.64 C32.38 175.43 30.86 175.22 29.33 175 C28.56 174.9 27.8 174.79 27.01 174.68 C16.69 173.25 6.37 171.8 -3.95 170.31 C-10.93 169.31 -17.91 168.33 -24.9 167.37 C-28.59 166.87 -32.28 166.35 -35.96 165.8 C-40.07 165.2 -44.19 164.64 -48.31 164.08 C-49.5 163.9 -50.7 163.71 -51.94 163.52 C-60.81 162.39 -66.97 164.22 -75 168 C-76.26 168.53 -77.52 169.06 -78.79 169.58 C-80.71 170.41 -82.62 171.25 -84.54 172.08 C-87 173 -87 173 -90 173 C-90.11 173.75 -90.21 174.51 -90.32 175.29 C-91.63 184.24 -93.42 193.04 -95.37 201.87 C-95.7 203.37 -96.02 204.86 -96.35 206.36 C-97.2 210.26 -98.06 214.16 -98.92 218.06 C-99.78 222 -100.64 225.94 -101.5 229.88 C-102.47 234.33 -103.45 238.78 -104.42 243.23 C-106.31 251.81 -108.16 260.4 -110 269 C-115.61 269 -121.22 269 -127 269 C-126.88 267.01 -126.76 265.03 -126.64 262.98 C-126.52 260.91 -126.4 258.84 -126.28 256.78 C-126.19 255.26 -126.1 253.75 -126.01 252.24 C-125.47 243.18 -124.95 234.12 -124.45 225.06 C-124.03 217.49 -123.59 209.92 -123.14 202.35 C-122.88 198.04 -122.63 193.72 -122.4 189.41 C-122.18 185.13 -121.92 180.85 -121.66 176.57 C-121.56 174.96 -121.47 173.36 -121.39 171.75 C-121.28 169.53 -121.14 167.31 -120.99 165.1 C-120.92 163.84 -120.85 162.59 -120.78 161.3 C-119.55 156.1 -115.94 153.41 -111.63 150.56 C-111.01 150.14 -110.4 149.73 -109.76 149.31 C-109.11 148.88 -108.46 148.46 -107.79 148.02 C-107.09 147.56 -106.4 147.1 -105.69 146.62 C-103.48 145.16 -101.27 143.7 -99.06 142.25 C-97.61 141.29 -96.17 140.33 -94.72 139.37 C-94 138.9 -93.29 138.42 -92.56 137.94 C-91.13 136.99 -89.69 136.04 -88.26 135.08 C-84.92 132.86 -81.56 130.72 -78.07 128.74 C-69.42 123.75 -64.91 118.47 -60.62 109.31 C-59.45 106.98 -58.28 104.64 -57.1 102.3 C-56.56 101.2 -56.02 100.1 -55.47 98.96 C-53.77 95.53 -51.93 92.24 -50 88.94 C-46.32 82.57 -42.72 76.17 -39.12 69.75 C-38.52 68.66 -37.91 67.58 -37.28 66.46 C-33.33 59.4 -29.4 52.32 -25.47 45.24 C-17.07 30.11 -8.52 15.06 0 0 Z " fill="#FDFE00" transform="translate(223,361)"/>
<path d="M0 0 C11.31 1.23 22.52 2.8 33.74 4.65 C36.4 5.09 39.07 5.52 41.73 5.95 C49.3 7.16 56.86 8.38 64.42 9.63 C69.08 10.4 73.74 11.15 78.4 11.89 C80.16 12.18 81.91 12.47 83.67 12.76 C101.26 15.71 116.97 13.7 134.44 10.84 C136.38 10.53 138.32 10.21 140.26 9.9 C145.33 9.09 150.4 8.27 155.46 7.44 C163.6 6.12 171.74 4.8 179.88 3.49 C182.71 3.03 185.54 2.57 188.38 2.11 C190.11 1.83 191.84 1.55 193.58 1.27 C194.75 1.08 194.75 1.08 195.95 0.88 C199.67 0.28 203.23 -0.15 207 0 C205.72 3.35 204.28 6.45 202.52 9.57 C202.03 10.45 201.53 11.34 201.01 12.25 C200.47 13.2 199.93 14.15 199.38 15.12 C198.81 16.12 198.24 17.12 197.66 18.15 C192.41 27.36 187.02 36.47 181.6 45.57 C177.7 52.13 173.85 58.7 170.09 65.33 C165.42 73.55 160.6 81.7 155.83 89.86 C154.08 92.86 152.33 95.86 150.58 98.86 C145.69 107.26 140.79 115.66 135.87 124.04 C135.34 124.94 135.34 124.94 134.8 125.86 C131.78 131 131.78 131 130.49 133.2 C126.53 139.95 122.59 146.7 118.69 153.48 C118.35 154.08 118 154.68 117.64 155.3 C116 158.16 114.37 161.02 112.73 163.88 C112.15 164.89 111.57 165.9 110.98 166.94 C110.47 167.83 109.97 168.71 109.45 169.62 C108.07 171.89 106.77 174.01 105 176 C104.01 176 103.02 176 102 176 C101.67 175.41 101.34 174.82 101 174.21 C94.18 162.03 87.24 149.96 80.03 138.02 C76.84 132.74 73.7 127.44 70.56 122.12 C70.02 121.21 69.48 120.29 68.92 119.34 C67.82 117.48 66.72 115.62 65.63 113.76 C62.98 109.28 60.34 104.79 57.69 100.31 C56.89 98.97 56.89 98.97 56.08 97.59 C51.79 90.33 47.49 83.07 43.19 75.81 C42.52 74.68 41.84 73.54 41.15 72.38 C37.78 66.68 34.4 60.99 31.02 55.3 C23.11 41.96 15.23 28.6 7.41 15.2 C7.06 14.61 6.71 14.01 6.35 13.4 C5.41 11.79 4.47 10.18 3.53 8.57 C2.41 6.68 1.22 4.83 0 3 C0 2.01 0 1.02 0 0 Z " fill="#FDFE00" transform="translate(196,552)"/>
<path d="M0 0 C0.66 0 1.32 0 2 0 C3.09 1.43 3.09 1.43 4.29 3.45 C4.73 4.18 5.17 4.92 5.63 5.69 C6.34 6.89 6.34 6.89 7.06 8.12 C8.07 9.8 9.07 11.47 10.08 13.15 C10.58 13.98 11.07 14.81 11.59 15.67 C13.78 19.3 16.08 22.85 18.39 26.41 C21.81 31.69 25.19 37 28.56 42.31 C33.08 49.41 37.6 56.51 42.13 63.6 C43.49 65.73 44.85 67.86 46.21 69.99 C49.26 74.76 52.33 79.52 55.49 84.22 C56.02 85 56.54 85.79 57.08 86.59 C58.04 88.03 59.01 89.46 59.99 90.88 C63.07 95.49 63.07 95.49 62.72 98.01 C61.56 101.21 59.7 103.97 57.88 106.81 C57.44 107.5 57 108.2 56.55 108.91 C52.08 115.94 47.51 122.91 42.95 129.87 C38.26 137.05 33.62 144.27 29 151.5 C20.12 165.41 11.19 179.29 2 193 C-1.81 191.73 -2.3 190.4 -4.41 187.03 C-5.06 185.99 -5.72 184.96 -6.39 183.89 C-7.09 182.77 -7.78 181.65 -8.5 180.5 C-9.23 179.35 -9.95 178.19 -10.68 177.04 C-12.13 174.74 -13.58 172.44 -15.02 170.14 C-17.5 166.2 -20.02 162.28 -22.56 158.38 C-22.99 157.72 -23.41 157.06 -23.85 156.38 C-26.4 152.46 -28.95 148.54 -31.52 144.62 C-38.56 133.85 -45.55 123.05 -52.43 112.18 C-52.97 111.33 -53.52 110.47 -54.07 109.59 C-54.58 108.79 -55.08 107.99 -55.6 107.17 C-56.82 105.27 -58.12 103.46 -59.46 101.63 C-61 99 -61 99 -60.74 97.08 C-59.95 94.86 -58.98 93.06 -57.74 91.06 C-57.28 90.31 -56.82 89.56 -56.34 88.79 C-55.86 88.01 -55.37 87.24 -54.88 86.44 C-54.41 85.69 -53.95 84.94 -53.48 84.17 C-47.25 74.1 -40.82 64.16 -34.44 54.19 C-29.2 46.01 -23.97 37.82 -18.75 29.62 C-18.18 28.74 -17.62 27.85 -17.04 26.94 C-14.17 22.44 -11.33 17.94 -8.53 13.41 C-7.98 12.52 -7.43 11.63 -6.86 10.71 C-5.81 9.02 -4.77 7.33 -3.73 5.64 C-3.27 4.89 -2.8 4.15 -2.33 3.38 C-1.72 2.4 -1.72 2.4 -1.11 1.4 C-0.74 0.93 -0.38 0.47 0 0 Z " fill="#FDFE00" transform="translate(299,238)"/>
<path d="M0 0 C-1.28 15.01 -2.59 30.03 -4.07 45.02 C-4.28 47.17 -4.48 49.31 -4.67 51.45 C-4.96 54.61 -5.27 57.76 -5.59 60.92 C-5.67 61.88 -5.75 62.83 -5.84 63.82 C-6.53 70.37 -6.53 70.37 -8.88 73.5 C-12.55 76.1 -12.55 76.1 -14.41 77.16 C-15.38 77.72 -15.38 77.72 -16.38 78.3 C-17.08 78.69 -17.78 79.09 -18.5 79.5 C-20.04 80.39 -21.58 81.28 -23.12 82.18 C-23.93 82.64 -24.73 83.1 -25.56 83.58 C-29.56 85.91 -33.53 88.3 -37.5 90.69 C-39.18 91.7 -40.86 92.71 -42.54 93.72 C-43.85 94.51 -43.85 94.51 -45.19 95.31 C-49.31 97.79 -53.43 100.26 -57.55 102.73 C-59.71 104.03 -61.87 105.32 -64.03 106.62 C-68.59 109.35 -73.15 112.09 -77.71 114.81 C-78.4 115.22 -79.08 115.63 -79.79 116.05 C-81.53 117.09 -83.27 118.13 -85.01 119.17 C-87.12 120.46 -89.18 121.82 -91.21 123.24 C-94 125 -94 125 -97 125 C-95.64 121.41 -94.04 118.1 -92.16 114.75 C-91.6 113.74 -91.04 112.73 -90.46 111.69 C-87.93 107.21 -85.38 102.74 -82.84 98.27 C-81.17 95.31 -79.58 92.33 -78 89.33 C-71.81 77.83 -65.24 70.93 -54.03 64.23 C-50.98 62.38 -48.07 60.34 -45.12 58.31 C-42.34 56.44 -40.19 55.06 -37 54 C-36.1 52.22 -36.1 52.22 -35.53 50.01 C-34.06 45.17 -32.32 40.48 -30.5 35.77 C-30.17 34.92 -29.85 34.08 -29.51 33.22 C-28.49 30.56 -27.46 27.91 -26.44 25.25 C-25.75 23.45 -25.05 21.66 -24.36 19.86 C-18.97 5.89 -18.97 5.89 -17 1 C-14.54 0.83 -12.08 0.67 -9.62 0.5 C-8.93 0.45 -8.23 0.4 -7.51 0.36 C-2.23 0 -2.23 0 0 0 Z " fill="#FBFC01" transform="translate(581,353)"/>
<path d="M0 0 C5.61 0 11.22 0 17 0 C17.69 1.82 17.69 1.82 18.39 3.68 C20.11 8.24 21.83 12.79 23.56 17.34 C24.3 19.3 25.05 21.26 25.79 23.23 C31.31 42.39 31.31 42.39 43.12 56.88 C44.17 57.52 45.22 58.17 46.3 58.84 C48.24 59.99 50.19 61.11 52.17 62.19 C67.48 70.68 74.31 81.25 82.22 96.62 C85.08 102.04 88.26 107.26 91.44 112.5 C92.52 114.3 93.61 116.1 94.68 117.91 C95.13 118.65 95.58 119.4 96.04 120.17 C97 122 97 122 97 124 C93.32 123.33 90.6 121.74 87.41 119.82 C86.3 119.17 85.2 118.51 84.06 117.83 C82.88 117.12 81.69 116.4 80.5 115.69 C79.28 114.96 78.06 114.23 76.83 113.5 C73.78 111.67 70.74 109.85 67.69 108.02 C65.23 106.54 62.76 105.06 60.3 103.59 C56.25 101.16 52.2 98.73 48.15 96.29 C45.54 94.72 42.92 93.15 40.3 91.58 C39.12 90.87 37.93 90.16 36.74 89.45 C33.09 87.25 29.43 85.06 25.77 82.88 C24.87 82.34 23.96 81.8 23.03 81.25 C21.25 80.19 19.48 79.13 17.7 78.07 C16.89 77.59 16.08 77.1 15.24 76.6 C14.52 76.17 13.8 75.74 13.05 75.3 C12.04 74.66 12.04 74.66 11 74 C10.32 73.61 9.64 73.22 8.94 72.82 C6.19 70.24 6.27 68.28 5.9 64.57 C5.83 63.93 5.77 63.28 5.69 62.61 C5.47 60.47 5.27 58.33 5.08 56.19 C4.93 54.7 4.78 53.21 4.62 51.73 C4.23 47.81 3.85 43.89 3.48 39.97 C3.1 35.98 2.69 32 2.29 28.02 C1.71 22.2 1.13 16.38 0.58 10.56 C0.47 9.38 0.35 8.21 0.24 7 C0 4 0 4 0 0 Z " fill="#FBFD01" transform="translate(19,354)"/>
<path d="M0 0 C-0.99 0 -1.98 0 -3 0 C-3.33 0.99 -3.66 1.98 -4 3 C-4.66 3 -5.32 3 -6 3 C-6 3.99 -6 4.98 -6 6 C-6.99 6 -7.98 6 -9 6 C-9.33 5.01 -9.66 4.02 -10 3 C-19.4 3.5 -19.4 3.5 -29 4 C-29 3.67 -29 3.34 -29 3 C-24.92 2.3 -20.83 1.62 -16.75 0.94 C-15.59 0.74 -14.43 0.54 -13.24 0.33 C-12.12 0.15 -11.01 -0.03 -9.86 -0.22 C-8.83 -0.4 -7.81 -0.57 -6.75 -0.75 C-4.15 -0.99 -2.45 -0.82 0 0 Z " fill="#E1E70A" transform="translate(351,561)"/>
<path d="M0 0 C0.33 1.32 0.66 2.64 1 4 C1.62 3.69 2.24 3.38 2.88 3.06 C7.31 0.85 10.01 0.92 15 1 C15.33 2.32 15.66 3.64 16 5 C10.72 5 5.44 5 0 5 C0 3.35 0 1.7 0 0 Z " fill="#E9EB13" transform="translate(96,625)"/>
<path d="M0 0 C0.33 1.32 0.66 2.64 1 4 C-0.27 4.51 -1.54 5 -2.81 5.5 C-3.87 5.92 -3.87 5.92 -4.96 6.34 C-7 7 -7 7 -10 7 C-6.8 4.35 -3.61 2.06 0 0 Z " fill="#E2EA04" transform="translate(81,4)"/>
<path d="M0 0 C0 0.33 0 0.66 0 1 C-1.65 1 -3.3 1 -5 1 C-5 1.66 -5 2.32 -5 3 C-8.3 2.67 -11.6 2.34 -15 2 C-15 1.67 -15 1.34 -15 1 C-13.06 0.64 -11.13 0.28 -9.19 -0.06 C-8.11 -0.26 -7.03 -0.46 -5.92 -0.66 C-3 -1 -3 -1 0 0 Z " fill="#D3E20A" transform="translate(388,555)"/>
<path d="M0 0 C0.66 0.99 1.32 1.98 2 3 C1.12 6.19 1.12 6.19 0 9 C-0.99 9 -1.98 9 -3 9 C-2.01 6.03 -1.02 3.06 0 0 Z " fill="#DBDE04" transform="translate(477,72)"/>
</svg>
