<?xml version="1.0" encoding="UTF-8"?>
<!-- Generator: https://ezgif.com/png-to-svg -->
<svg version="1.1" xmlns="http://www.w3.org/2000/svg" width="685" height="685">
<path d="M0 0 C0.86 -0.01 1.72 -0.01 2.61 -0.02 C4.04 -0.02 4.04 -0.02 5.5 -0.02 C6.5 -0.03 7.5 -0.03 8.53 -0.04 C11.85 -0.05 15.18 -0.06 18.51 -0.06 C20.82 -0.07 23.13 -0.07 25.45 -0.08 C30.32 -0.09 35.19 -0.1 40.06 -0.1 C46.26 -0.11 52.46 -0.13 58.67 -0.16 C63.46 -0.18 68.25 -0.18 73.04 -0.18 C75.33 -0.19 77.61 -0.19 79.89 -0.21 C106.65 -0.35 133.73 3.74 154 23.14 C154 23.8 154 24.46 154 25.14 C154.66 25.14 155.32 25.14 156 25.14 C156 25.8 156 26.46 156 27.14 C156.66 27.14 157.32 27.14 158 27.14 C159.54 29.05 160.94 30.93 162.31 32.95 C162.72 33.54 163.12 34.13 163.53 34.73 C174.11 50.53 177.22 68.12 174.31 86.83 C171.97 97.69 167.37 107.1 161 116.14 C160.48 116.9 159.95 117.66 159.42 118.45 C158.95 119.01 158.48 119.57 158 120.14 C157.34 120.14 156.68 120.14 156 120.14 C155.76 120.72 155.52 121.3 155.27 121.9 C148.22 134.3 130.04 140.47 117 144.14 C101.99 148.04 86.44 147.21 71.08 147.02 C68.76 147 66.45 146.97 64.14 146.95 C58.08 146.89 52.02 146.82 45.97 146.75 C39.77 146.67 33.58 146.61 27.38 146.54 C15.26 146.42 3.13 146.28 -9 146.14 C-8.51 144.11 -8.01 142.17 -7.26 140.22 C-4.07 131.53 -4.52 122.57 -4.49 113.45 C-4.47 111.64 -4.45 109.84 -4.43 108.04 C-4.39 103.33 -4.36 98.62 -4.33 93.91 C-4.3 89.09 -4.25 84.27 -4.21 79.45 C-4.12 70.01 -4.05 60.58 -4 51.14 C2.11 51.12 8.21 51.1 14.32 51.09 C16.4 51.08 18.48 51.07 20.55 51.07 C23.54 51.05 26.52 51.05 29.5 51.04 C30.9 51.04 30.9 51.04 32.33 51.03 C33.19 51.03 34.05 51.03 34.94 51.03 C35.7 51.02 36.46 51.02 37.25 51.02 C39 51.14 39 51.14 40 52.14 C40.12 53.89 40.18 55.64 40.21 57.39 C40.24 59.08 40.24 59.08 40.27 60.79 C40.28 62.01 40.3 63.23 40.32 64.49 C40.34 65.73 40.36 66.97 40.38 68.25 C40.44 71.56 40.49 74.86 40.53 78.17 C40.58 81.54 40.64 84.91 40.69 88.28 C40.8 94.9 40.9 101.52 41 108.14 C46.67 108.17 52.34 108.18 58.01 108.2 C59.93 108.2 61.85 108.21 63.77 108.22 C92.85 109.81 92.85 109.81 118 98.14 C118.66 98.14 119.32 98.14 120 98.14 C120 97.48 120 96.82 120 96.14 C120.66 96.14 121.32 96.14 122 96.14 C122.27 95.42 122.54 94.7 122.81 93.95 C124 91.14 124 91.14 125.5 88.77 C129.96 80.97 130.35 71.37 128.47 62.67 C126.95 58.38 124.56 54.85 122 51.14 C122 50.48 122 49.82 122 49.14 C121.34 49.14 120.68 49.14 120 49.14 C120 48.48 120 47.82 120 47.14 C119.44 46.86 118.87 46.58 118.29 46.3 C116.77 45.53 115.25 44.73 113.74 43.92 C112.94 43.5 112.14 43.08 111.31 42.64 C110.53 42.22 109.74 41.79 108.93 41.36 C101.7 38.35 94.48 37.84 86.72 37.84 C85.25 37.82 85.25 37.82 83.74 37.81 C80.51 37.79 77.29 37.77 74.06 37.76 C71.81 37.75 69.57 37.73 67.32 37.71 C61.42 37.66 55.52 37.63 49.62 37.6 C40.15 37.55 30.68 37.48 21.22 37.41 C17.9 37.39 14.59 37.37 11.28 37.35 C9.27 37.34 7.26 37.33 5.24 37.31 C4.32 37.31 3.39 37.31 2.44 37.31 C-3.89 37.25 -3.89 37.25 -5 36.14 C-5.1 33.56 -5.14 31 -5.13 28.42 C-5.13 27.65 -5.13 26.88 -5.13 26.08 C-5.14 24.44 -5.13 22.8 -5.13 21.17 C-5.12 18.65 -5.13 16.14 -5.14 13.62 C-5.13 12.03 -5.13 10.45 -5.13 8.86 C-5.13 8.1 -5.14 7.34 -5.14 6.56 C-5.11 0.02 -5.11 0.02 0 0 Z " fill="#F9F9F9" transform="translate(435.99879455566406,277.85955810546875)"/>
<path d="M0 0 C4.43 2.48 8.48 5.67 12.13 9.19 C12.13 9.85 12.13 10.51 12.13 11.19 C12.96 11.54 12.96 11.54 13.8 11.9 C16.73 13.53 18.88 15.58 21.32 17.88 C25.55 21.81 29.88 25.41 34.55 28.82 C35.07 29.27 35.59 29.72 36.13 30.19 C36.13 30.85 36.13 31.51 36.13 32.19 C37.02 32.6 37.02 32.6 37.93 33.02 C40.07 34.16 41.55 35.32 43.3 36.98 C43.88 37.53 44.46 38.07 45.05 38.64 C45.66 39.21 46.26 39.79 46.88 40.38 C48.13 41.56 49.38 42.74 50.64 43.91 C51.24 44.48 51.84 45.05 52.46 45.63 C56.26 49.18 60.08 52.75 64.34 55.75 C65.23 56.46 65.23 56.46 66.13 57.19 C66.13 57.85 66.13 58.51 66.13 59.19 C66.72 59.46 67.31 59.73 67.92 60 C70.15 61.2 71.69 62.46 73.52 64.2 C74.14 64.79 74.77 65.38 75.41 65.99 C76.06 66.61 76.71 67.24 77.38 67.88 C78.72 69.15 80.07 70.42 81.41 71.69 C82.05 72.29 82.69 72.9 83.36 73.53 C87.43 77.35 91.48 81.09 96.13 84.19 C96.13 56.47 96.13 28.75 96.13 0.19 C110.32 0.19 124.51 0.19 139.13 0.19 C139.26 17.51 139.37 34.82 139.44 52.14 C139.47 60.18 139.51 68.22 139.58 76.26 C139.64 83.27 139.68 90.28 139.69 97.29 C139.7 101 139.72 104.71 139.76 108.42 C139.81 112.57 139.81 116.72 139.81 120.87 C139.83 122.09 139.85 123.31 139.88 124.57 C139.82 132.29 138.49 137.46 133.13 143.19 C126.07 148.92 118.97 149.08 110.13 148.19 C101.77 146.01 95.84 139.59 89.82 133.74 C87.41 131.21 87.41 131.21 85.13 130.19 C85.13 129.53 85.13 128.87 85.13 128.19 C84.31 127.85 84.31 127.85 83.48 127.51 C80.41 125.79 78.03 123.48 75.5 121.07 C70.83 116.68 66.01 112.62 60.89 108.75 C60.31 108.24 59.73 107.72 59.13 107.19 C59.13 106.53 59.13 105.87 59.13 105.19 C58.55 104.92 57.97 104.66 57.38 104.38 C55.07 103.16 53.11 101.89 51.13 100.19 C51.13 99.53 51.13 98.87 51.13 98.19 C50.59 97.97 50.05 97.75 49.49 97.52 C46.38 95.77 43.95 93.44 41.38 91 C40.3 90 39.22 89 38.14 87.99 C37.62 87.51 37.1 87.02 36.57 86.52 C34.79 84.87 32.97 83.28 31.13 81.69 C27.12 78.22 23.22 74.62 19.34 71.01 C16.68 68.55 14.03 66.37 11.13 64.19 C10.8 91.25 10.47 118.31 10.13 146.19 C-4.06 146.19 -18.25 146.19 -32.87 146.19 C-33.91 108.36 -34.41 70.54 -33.61 32.7 C-33.58 31.17 -33.55 29.65 -33.53 28.13 C-33.37 18.46 -33.09 10.42 -25.87 3.19 C-17.63 -1.77 -9.17 -3.83 0 0 Z " fill="#FBFBFB" transform="translate(284.87109375,277.80859375)"/>
<path d="M0 0 C1.44 1.16 2.85 2.36 4.25 3.56 C4.79 4.03 5.33 4.5 5.89 4.98 C8.46 7.19 11.03 9.42 13.59 11.66 C18.13 15.64 22.78 19.42 27.59 23.07 C28.14 23.57 28.69 24.06 29.25 24.56 C29.25 25.22 29.25 25.88 29.25 26.56 C30.12 26.96 30.12 26.96 31 27.38 C33.31 28.59 35.27 29.87 37.25 31.56 C37.25 32.22 37.25 32.88 37.25 33.56 C38.12 33.96 38.12 33.96 39 34.38 C41.31 35.59 43.27 36.87 45.25 38.56 C45.25 39.22 45.25 39.88 45.25 40.56 C45.84 40.83 46.43 41.1 47.03 41.37 C49.28 42.58 50.85 43.86 52.7 45.6 C53.32 46.18 53.94 46.76 54.58 47.36 C55.53 48.26 55.53 48.26 56.5 49.19 C57.15 49.8 57.8 50.41 58.47 51.04 C60.07 52.54 61.66 54.05 63.25 55.56 C64.21 52.32 64.4 49.35 64.46 45.97 C64.48 44.85 64.5 43.73 64.52 42.57 C64.53 41.37 64.55 40.16 64.57 38.92 C64.6 37.07 64.6 37.07 64.63 35.17 C64.68 31.89 64.73 28.61 64.78 25.33 C64.83 21.98 64.89 18.63 64.94 15.27 C65.05 8.7 65.15 2.13 65.25 -4.44 C87.9 -4.51 110.56 -4.56 133.21 -4.59 C143.73 -4.61 154.25 -4.63 164.77 -4.66 C173.95 -4.69 183.12 -4.71 192.3 -4.72 C197.15 -4.72 202.01 -4.73 206.86 -4.75 C211.44 -4.78 216.02 -4.78 220.6 -4.78 C222.27 -4.78 223.94 -4.78 225.61 -4.8 C239.84 -4.89 253.84 -3.49 267.38 1.25 C268.11 1.5 268.85 1.76 269.61 2.02 C283.61 7.03 296.07 14.6 306.25 25.56 C307.23 26.54 307.23 26.54 308.23 27.53 C323.18 42.99 330.68 63.03 330.56 84.38 C330.56 85.43 330.55 86.49 330.55 87.58 C330.44 95.34 329.65 102.14 327.25 109.56 C326.98 110.54 326.72 111.51 326.44 112.51 C322.29 126.62 314.55 137.36 304.25 147.56 C303.47 148.36 302.69 149.17 301.89 149.99 C289.41 162.11 272.7 169.09 255.94 172.81 C255.22 172.98 254.49 173.14 253.75 173.31 C235.99 176.94 217.22 175.78 199.18 175.84 C197.68 175.84 196.18 175.85 194.69 175.85 C188.47 175.87 182.24 175.89 176.02 175.9 C167.17 175.92 158.32 175.95 149.48 176.01 C143.21 176.05 136.95 176.07 130.68 176.07 C126.96 176.08 123.23 176.09 119.51 176.12 C115.35 176.16 111.2 176.15 107.05 176.15 C105.84 176.16 104.63 176.18 103.38 176.2 C90.6 176.1 80.81 171.84 71.25 163.56 C69.23 161.96 67.21 160.35 65.19 158.75 C63.5 157.4 61.84 156.02 60.25 154.56 C60.25 153.9 60.25 153.24 60.25 152.56 C59.38 152.16 59.38 152.16 58.5 151.75 C56.19 150.53 54.23 149.26 52.25 147.56 C52.25 146.9 52.25 146.24 52.25 145.56 C51.68 145.32 51.12 145.07 50.54 144.82 C47.86 143.35 45.92 141.58 43.69 139.5 C40.13 136.23 36.51 133.1 32.75 130.06 C28.1 126.3 23.65 122.37 19.25 118.31 C17.37 116.51 17.37 116.51 15.25 115.56 C15.25 116.26 15.25 116.96 15.26 117.68 C15.28 124.24 15.29 130.8 15.3 137.36 C15.31 140.74 15.31 144.11 15.33 147.49 C15.34 151.36 15.34 155.24 15.35 159.12 C15.35 160.33 15.36 161.55 15.36 162.8 C15.36 164.48 15.36 164.48 15.36 166.19 C15.37 167.19 15.37 168.18 15.37 169.2 C15.25 171.56 15.25 171.56 14.25 173.56 C4.51 173.72 -5.24 173.86 -14.98 174.01 C-19.51 174.07 -24.03 174.14 -28.56 174.21 C-32.92 174.28 -37.28 174.34 -41.65 174.41 C-43.31 174.43 -44.98 174.46 -46.65 174.48 C-48.98 174.52 -51.31 174.55 -53.64 174.58 C-54.68 174.6 -54.68 174.6 -55.74 174.62 C-60.52 174.68 -60.52 174.68 -62.75 173.56 C-63.08 165.31 -63.41 157.06 -63.75 148.56 C-65.03 150.32 -66.31 152.07 -67.62 153.88 C-68.34 154.86 -69.06 155.85 -69.8 156.86 C-71.16 158.74 -72.47 160.64 -73.75 162.56 C-74.41 162.56 -75.07 162.56 -75.75 162.56 C-75.75 163.22 -75.75 163.88 -75.75 164.56 C-87.96 173.72 -99.57 176.91 -114.75 175.56 C-122.8 173.94 -129.26 170.49 -135.75 165.56 C-136.76 164.86 -137.77 164.16 -138.81 163.44 C-142.59 160.19 -145.02 155.87 -147.69 151.73 C-149.57 148.85 -151.52 146.08 -153.56 143.31 C-156.78 138.94 -159.88 134.49 -162.94 130 C-166.91 124.18 -170.98 118.45 -175.12 112.75 C-180.29 105.65 -185.29 98.44 -190.22 91.18 C-193.62 86.19 -197.1 81.27 -200.68 76.41 C-204.92 70.58 -209.04 64.67 -213.19 58.78 C-214.7 56.63 -216.21 54.5 -217.73 52.36 C-223.62 44.05 -229.43 35.69 -235.12 27.24 C-238.31 22.55 -241.66 18.04 -245.17 13.58 C-247.04 11.2 -248.78 8.75 -250.5 6.25 C-252.11 3.92 -253.7 1.62 -255.45 -0.61 C-256.75 -2.44 -256.75 -2.44 -256.75 -4.44 C-244.37 -4.69 -231.99 -4.89 -219.61 -5.01 C-213.86 -5.06 -208.12 -5.14 -202.37 -5.27 C-196.82 -5.39 -191.27 -5.45 -185.72 -5.48 C-183.6 -5.5 -181.49 -5.54 -179.37 -5.6 C-162.81 -6.05 -162.81 -6.05 -157.75 -2.09 C-155.67 0.72 -154.21 3.4 -152.75 6.56 C-151.62 8.28 -150.48 9.99 -149.29 11.67 C-148.17 13.36 -147.05 15.05 -145.94 16.75 C-141.8 22.99 -137.64 29.22 -133.38 35.38 C-128 43.13 -122.78 51 -117.58 58.88 C-113.15 65.57 -108.53 72.1 -103.75 78.56 C-100.46 77.47 -100.14 77.08 -98.33 74.33 C-97.88 73.65 -97.42 72.97 -96.96 72.27 C-96.23 71.15 -96.23 71.15 -95.49 70.01 C-94.72 68.86 -94.72 68.86 -93.94 67.68 C-92.31 65.21 -90.69 62.73 -89.06 60.25 C-87.99 58.62 -86.91 56.99 -85.84 55.37 C-83.75 52.2 -81.66 49.03 -79.58 45.86 C-77.23 42.28 -74.85 38.71 -72.47 35.15 C-69.88 31.27 -67.32 27.38 -64.79 23.46 C-64.16 22.48 -63.52 21.49 -62.86 20.48 C-61.56 18.46 -60.25 16.44 -58.96 14.42 C-58.32 13.44 -57.69 12.47 -57.04 11.46 C-56.48 10.59 -55.92 9.72 -55.34 8.82 C-53.93 6.82 -52.63 5.14 -50.75 3.56 C-50.09 3.56 -49.43 3.56 -48.75 3.56 C-48.75 2.9 -48.75 2.24 -48.75 1.56 C-46.5 0.41 -44.25 -0.73 -42 -1.88 C-41.05 -2.36 -41.05 -2.36 -40.08 -2.86 C-27.48 -9.23 -11.61 -8.21 0 0 Z M-47.12 12.31 C-49.41 15.38 -51.36 18.58 -53.3 21.87 C-57.79 29.41 -62.74 36.65 -67.62 43.94 C-68.59 45.38 -69.55 46.82 -70.52 48.27 C-72.39 51.07 -74.27 53.87 -76.14 56.67 C-80.62 63.36 -85.09 70.06 -89.54 76.77 C-90.15 77.68 -90.15 77.68 -90.76 78.61 C-91.56 79.8 -92.35 81 -93.15 82.2 C-93.94 83.39 -94.74 84.58 -95.54 85.77 C-96.39 87.03 -97.23 88.3 -98.06 89.57 C-99.21 91.29 -100.47 92.93 -101.75 94.56 C-102.74 94.56 -103.73 94.56 -104.75 94.56 C-106.1 92.86 -106.1 92.86 -107.6 90.31 C-110.9 84.89 -114.37 79.6 -117.93 74.35 C-118.51 73.5 -119.08 72.65 -119.67 71.78 C-121.51 69.06 -123.35 66.34 -125.19 63.62 C-132.8 52.38 -140.4 41.13 -147.89 29.8 C-148.44 28.97 -149 28.13 -149.57 27.26 C-152.19 23.3 -154.81 19.33 -157.42 15.36 C-158.36 13.95 -159.29 12.53 -160.23 11.12 C-160.85 10.16 -160.85 10.16 -161.49 9.18 C-163.42 6.28 -164.82 4.52 -167.75 2.56 C-170.97 2.27 -170.97 2.27 -174.7 2.34 C-175.4 2.34 -176.11 2.33 -176.83 2.33 C-179.15 2.34 -181.47 2.35 -183.79 2.37 C-185.4 2.37 -187.01 2.37 -188.62 2.38 C-192.86 2.38 -197.1 2.4 -201.33 2.43 C-205.66 2.45 -209.98 2.45 -214.3 2.46 C-222.79 2.49 -231.27 2.52 -239.75 2.56 C-240.08 3.22 -240.41 3.88 -240.75 4.56 C-240.42 5.02 -240.09 5.47 -239.75 5.95 C-232.17 16.4 -224.66 26.9 -217.23 37.46 C-215.75 39.56 -214.27 41.65 -212.79 43.74 C-207.52 51.17 -202.31 58.65 -197.19 66.19 C-192.89 72.51 -188.48 78.72 -183.92 84.85 C-179.58 90.72 -175.48 96.75 -171.38 102.79 C-167.91 107.89 -164.36 112.94 -160.7 117.91 C-158.42 121.01 -156.17 124.13 -153.94 127.25 C-153.52 127.83 -153.1 128.41 -152.67 129.01 C-150.4 132.2 -148.17 135.41 -145.98 138.66 C-137.3 151.59 -129.45 163.14 -113.75 167.56 C-104.97 168.39 -97.38 168.21 -89.75 163.56 C-88.72 162.99 -87.69 162.41 -86.62 161.81 C-78.71 155.62 -73.5 147.01 -68.1 138.68 C-66.8 136.67 -65.48 134.66 -64.16 132.66 C-63.33 131.38 -62.49 130.1 -61.66 128.82 C-61.27 128.22 -60.87 127.62 -60.47 127.01 C-58.39 124.03 -58.39 124.03 -57.75 120.56 C-56.76 120.89 -55.77 121.22 -54.75 121.56 C-54.42 136.08 -54.09 150.6 -53.75 165.56 C-46.12 166.39 -46.12 166.39 -38.56 166.69 C-37.24 166.7 -37.24 166.7 -35.88 166.7 C-34.51 166.7 -34.51 166.7 -33.11 166.7 C-32.13 166.7 -31.16 166.7 -30.16 166.7 C-28.12 166.7 -26.08 166.7 -24.04 166.69 C-20.93 166.69 -17.81 166.69 -14.7 166.7 C-12.71 166.7 -10.72 166.7 -8.73 166.7 C-7.8 166.7 -6.88 166.7 -5.92 166.7 C-5.05 166.7 -4.18 166.7 -3.29 166.69 C-2.15 166.69 -2.15 166.69 -0.99 166.69 C1.73 166.59 1.73 166.59 6.25 165.56 C6.25 142.79 6.25 120.02 6.25 96.56 C10.11 98.88 12.22 100.53 15.25 103.56 C15.91 103.56 16.57 103.56 17.25 103.56 C17.25 104.22 17.25 104.88 17.25 105.56 C18.8 106.96 20.42 108.28 22.06 109.56 C28.02 114.33 33.63 119.4 39.25 124.56 C40.76 125.94 42.28 127.32 43.81 128.69 C44.43 129.25 45.05 129.81 45.69 130.38 C47.19 131.76 47.19 131.76 49.25 131.56 C49.25 132.22 49.25 132.88 49.25 133.56 C51.13 135.26 51.13 135.26 53.56 137.06 C57.42 140.07 61.09 143.18 64.69 146.5 C80.61 161.9 80.61 161.9 101.13 167.82 C102.86 167.82 102.86 167.82 104.63 167.83 C106.51 167.83 106.51 167.83 108.42 167.82 C109.76 167.82 111.11 167.83 112.45 167.83 C116.09 167.84 119.73 167.84 123.37 167.83 C127.19 167.83 131.02 167.83 134.85 167.83 C141.28 167.84 147.72 167.83 154.16 167.82 C161.56 167.81 168.96 167.82 176.36 167.83 C182.74 167.84 189.12 167.84 195.5 167.83 C199.3 167.83 203.1 167.83 206.89 167.84 C240.91 167.89 273.05 165.72 298.93 141 C316.01 123.11 322.03 103.01 321.63 78.9 C320.81 59.18 310.88 41.25 296.78 27.75 C285.14 17.68 272.05 10.99 257.31 6.75 C256.65 6.56 255.98 6.36 255.29 6.16 C242.44 2.72 229.16 2.27 215.93 2.34 C214.37 2.34 212.81 2.34 211.25 2.33 C207.08 2.33 202.9 2.35 198.72 2.36 C194.34 2.37 189.95 2.37 185.57 2.38 C177.29 2.38 169.01 2.4 160.73 2.42 C151.29 2.44 141.85 2.45 132.42 2.46 C113.03 2.48 93.64 2.52 74.25 2.56 C72.68 5.71 73.13 9.07 73.16 12.52 C73.16 13.35 73.16 14.18 73.17 15.04 C73.24 26.78 73.5 38.51 73.75 50.25 C73.8 52.62 73.85 54.99 73.89 57.36 C74.01 63.1 74.13 68.83 74.25 74.56 C70.91 73.84 69.43 73.06 67.12 70.5 C65.68 68.86 65.68 68.86 64.25 67.56 C63.59 67.56 62.93 67.56 62.25 67.56 C62.25 66.9 62.25 66.24 62.25 65.56 C61.59 65.56 60.93 65.56 60.25 65.56 C60.25 64.9 60.25 64.24 60.25 63.56 C58.53 62.02 56.75 60.56 54.94 59.12 C49.46 54.78 49.46 54.78 47.52 52.78 C46.3 51.33 46.3 51.33 44.25 51.56 C44.25 50.9 44.25 50.24 44.25 49.56 C42.8 48.28 41.29 47.06 39.75 45.88 C33.85 41.17 28.37 36.09 22.91 30.88 C16.8 24.11 16.8 24.11 9.25 20.56 C9.25 19.9 9.25 19.24 9.25 18.56 C5.76 15.35 1.98 12.49 -1.75 9.56 C-2.51 8.95 -3.27 8.34 -4.05 7.71 C-4.71 7.18 -5.38 6.66 -6.06 6.12 C-6.92 5.45 -6.92 5.45 -7.8 4.75 C-20.79 -3.18 -37.78 1.12 -47.12 12.31 Z " fill="#DC8636" transform="translate(297.75,266.4375)"/>
<path d="M0 0 C42.73 -6.8 42.73 -6.8 55.74 1.82 C66.55 11.43 73.22 25.19 79.5 38.01 C82.47 44.07 86.06 49.51 90 55 C90.94 56.37 91.87 57.74 92.8 59.11 C93.64 60.32 94.47 61.54 95.31 62.75 C95.77 63.41 96.23 64.08 96.7 64.76 C99.09 68.24 101.5 71.72 103.9 75.19 C104.85 76.56 105.8 77.94 106.75 79.31 C107.21 79.97 107.66 80.64 108.14 81.32 C111.46 86.15 114.61 91.05 117.66 96.06 C118.86 98.13 118.86 98.13 121 99 C121.22 98.35 121.43 97.7 121.66 97.02 C123.49 92.9 125.96 89.35 128.5 85.62 C129.59 84.01 130.68 82.39 131.77 80.78 C132.31 79.97 132.86 79.17 133.42 78.34 C135.28 75.58 137.12 72.81 138.96 70.04 C143.04 63.89 147.2 57.81 151.43 51.76 C153.53 48.72 155.56 45.62 157.57 42.52 C158.2 41.56 158.83 40.6 159.47 39.61 C160.73 37.68 161.98 35.75 163.22 33.81 C163.79 32.93 164.37 32.04 164.96 31.14 C165.47 30.34 165.99 29.54 166.52 28.72 C167.01 28.15 167.5 27.59 168 27 C168.99 27 169.98 27 171 27 C171.03 34.88 171.03 42.75 170.97 50.63 C170.95 54.29 170.94 57.95 170.96 61.61 C170.97 65.15 170.96 68.69 170.92 72.23 C170.9 74.21 170.92 76.2 170.95 78.19 C170.8 87.53 168.31 93.39 163 101 C162.21 102.26 161.42 103.53 160.64 104.8 C159.99 105.77 159.35 106.75 158.69 107.75 C157.7 109.26 157.7 109.26 156.7 110.8 C156.14 111.52 155.58 112.25 155 113 C154.34 113 153.68 113 153 113 C152.91 113.55 152.82 114.11 152.73 114.68 C151.78 117.7 150.18 119.68 148.25 122.19 C145.68 125.62 143.42 128.92 141.5 132.75 C137.25 140.62 130.99 144.67 122.59 147.34 C115.77 149.07 109.31 147.97 103 145 C96.81 140.52 90.75 134.74 87 128 C87 127.01 87 126.02 87 125 C86.34 125 85.68 125 85 125 C83.67 123.38 83.67 123.38 82.18 121.13 C81.64 120.33 81.11 119.53 80.56 118.7 C80 117.85 79.45 117 78.88 116.12 C78.31 115.28 77.75 114.44 77.17 113.57 C73 107.27 73 107.27 73 105 C72.34 105 71.68 105 71 105 C69.61 103.25 69.61 103.25 68.02 100.79 C67.44 99.9 66.86 99.01 66.25 98.09 C65.63 97.13 65.01 96.18 64.38 95.19 C63.09 93.23 61.81 91.28 60.53 89.33 C59.91 88.4 59.3 87.46 58.66 86.5 C56.26 82.89 53.71 79.41 51.12 75.93 C48.16 71.84 45.34 67.67 42.5 63.5 C38.48 57.6 34.41 51.76 30.17 46.02 C26.56 40.99 23.11 35.86 19.65 30.72 C17.32 27.28 15 23.91 12.29 20.74 C10.2 18.24 8.63 15.81 7 13 C5.17 10.42 3.3 7.86 1.43 5.3 C0 3 0 3 0 0 Z " fill="#FCFCFC" transform="translate(75,278)"/>
<path d="M0 0 C22.97 -0.05 45.95 -0.08 68.92 -0.1 C79.59 -0.11 90.26 -0.13 100.92 -0.15 C110.22 -0.17 119.52 -0.18 128.82 -0.19 C133.74 -0.19 138.66 -0.2 143.59 -0.21 C148.22 -0.23 152.85 -0.23 157.49 -0.23 C159.19 -0.23 160.89 -0.23 162.59 -0.24 C164.91 -0.25 167.24 -0.25 169.56 -0.24 C171.51 -0.24 171.51 -0.24 173.5 -0.25 C177.01 0 179.72 0.77 183 2 C184.91 2.39 186.83 2.75 188.75 3.06 C193.79 3.9 193.79 3.9 196 5 C196 5.66 196 6.32 196 7 C197.65 7 199.3 7 201 7 C201 7.66 201 8.32 201 9 C201.99 9.33 202.98 9.66 204 10 C204 10.33 204 10.66 204 11 C197.95 11.2 197.95 11.2 196 11 C195.01 10.01 195.01 10.01 194 9 C175.61 4.5 156.14 5.6 137.35 5.7 C132.75 5.71 128.16 5.72 123.56 5.72 C114.89 5.73 106.22 5.75 97.55 5.78 C87.67 5.82 77.79 5.83 67.9 5.85 C47.6 5.88 27.3 5.94 7 6 C6.67 29.43 6.34 52.86 6 77 C1.05 74.03 0.03 72.55 -3 68 C-3.89 67.48 -4.77 66.97 -5.69 66.44 C-8 65 -8 65 -8.81 62.31 C-8.87 61.55 -8.94 60.79 -9 60 C-8.01 59.5 -8.01 59.5 -7 59 C-4.69 59.99 -2.38 60.98 0 62 C0 41.54 0 21.08 0 0 Z " fill="#EC943D" transform="translate(364,263)"/>
<path d="M0 0 C1.52 0.24 1.52 0.24 3.08 0.49 C6.69 0.96 10.12 1.14 13.76 1.16 C14.41 1.16 15.05 1.17 15.71 1.17 C17.85 1.19 19.98 1.2 22.11 1.21 C23.65 1.21 25.19 1.22 26.73 1.24 C30.89 1.26 35.05 1.28 39.21 1.3 C43.56 1.33 47.92 1.35 52.27 1.38 C60.51 1.43 68.75 1.47 76.98 1.52 C86.36 1.57 95.75 1.62 105.13 1.68 C124.42 1.79 143.71 1.9 163 2 C162.34 2.66 161.68 3.32 161 4 C161.33 4.66 161.66 5.32 162 6 C157.05 6.33 152.1 6.66 147 7 C147 7.33 147 7.66 147 8 C107.4 8 67.8 8 27 8 C27.66 7.01 28.32 6.02 29 5 C28.37 4.99 27.74 4.97 27.09 4.96 C24.21 4.88 21.32 4.78 18.44 4.69 C17.45 4.66 16.46 4.64 15.44 4.62 C9.57 4.4 5.22 3.73 0 1 C0 0.67 0 0.34 0 0 Z " fill="#E59241" transform="translate(385,433)"/>
<path d="M0 0 C20.93 0.5 41.05 9.93 57 23 C58.33 24.01 59.66 25.01 61 26 C60.67 26.66 60.34 27.32 60 28 C59.01 28 58.02 28 57 28 C56.67 27.01 56.34 26.02 56 25 C55.01 24.67 54.02 24.34 53 24 C52.01 23.01 52.01 23.01 51 22 C47.21 19.77 47.21 19.77 43 19 C43 19.66 43 20.32 43 21 C43.9 21.23 44.81 21.46 45.74 21.69 C49.52 23.21 50.8 24.69 53.19 27.94 C55.33 30.81 57.38 33.54 60 36 C59.67 36.66 59.34 37.32 59 38 C58.57 37.53 58.15 37.05 57.71 36.57 C45.72 23.88 30.68 15.98 14.06 11.19 C13.06 10.9 13.06 10.9 12.04 10.6 C-0.8 7.16 -14.11 6.7 -27.32 6.68 C-28.88 6.67 -30.44 6.66 -32 6.65 C-36.17 6.62 -40.35 6.61 -44.53 6.6 C-48.91 6.58 -53.3 6.55 -57.68 6.53 C-65.96 6.48 -74.24 6.44 -82.52 6.41 C-93.73 6.36 -104.93 6.3 -116.14 6.24 C-133.76 6.15 -151.38 6.08 -169 6 C-169 29.76 -169 53.52 -169 78 C-170.49 78.5 -170.49 78.5 -172 79 C-173.32 77.35 -174.64 75.7 -176 74 C-174.68 74.66 -173.36 75.32 -172 76 C-171.99 75.13 -171.98 74.25 -171.97 73.35 C-171.87 65.12 -171.77 56.9 -171.66 48.67 C-171.61 44.44 -171.55 40.21 -171.5 35.98 C-171.46 31.9 -171.4 27.83 -171.35 23.75 C-171.33 22.19 -171.31 20.63 -171.29 19.07 C-171.27 16.89 -171.24 14.72 -171.21 12.54 C-171.19 11.3 -171.17 10.06 -171.16 8.78 C-171 6 -171 6 -170 5 C-167.91 4.9 -165.81 4.86 -163.72 4.86 C-163.06 4.86 -162.39 4.85 -161.71 4.85 C-159.47 4.84 -157.22 4.84 -154.98 4.84 C-153.38 4.83 -151.78 4.83 -150.18 4.82 C-145.81 4.81 -141.44 4.8 -137.07 4.8 C-134.33 4.8 -131.6 4.79 -128.86 4.79 C-120.28 4.77 -111.7 4.76 -103.12 4.76 C-93.25 4.76 -83.39 4.74 -73.52 4.71 C-65.88 4.69 -58.24 4.68 -50.59 4.68 C-46.04 4.68 -41.49 4.67 -36.93 4.65 C2.68 4.5 2.68 4.5 17 8 C17.99 8.99 17.99 8.99 19 10 C22.58 10.17 22.58 10.17 26 10 C25.01 9.5 25.01 9.5 24 9 C24 8.34 24 7.68 24 7 C22.35 7 20.7 7 19 7 C19 6.34 19 5.68 19 5 C18.4 4.94 17.79 4.88 17.17 4.82 C15.97 4.69 15.97 4.69 14.75 4.56 C13.57 4.44 13.57 4.44 12.36 4.32 C7.76 3.7 3.9 2.6 0 0 Z " fill="#98602C" transform="translate(541,263)"/>
<path d="M0 0 C58.08 0 116.16 0 176 0 C176 0.33 176 0.66 176 1 C118.25 1 60.5 1 1 1 C1 21.46 1 41.92 1 63 C-1.67 62.33 -4.33 61.67 -7 61 C-7 62.65 -7 64.3 -7 66 C-6.42 66.08 -5.85 66.17 -5.25 66.25 C-2.3 67.23 -0.97 68.62 1 71 C1.75 73.25 1.75 73.25 2 75 C-0.5 73.62 -0.5 73.62 -3 72 C-3 71.34 -3 70.68 -3 70 C-3.66 70 -4.32 70 -5 70 C-5 69.34 -5 68.68 -5 68 C-5.55 67.76 -6.11 67.53 -6.68 67.29 C-9.56 65.69 -11.71 63.68 -14.12 61.44 C-17.32 58.36 -17.32 58.36 -21 56 C-21 55.34 -21 54.68 -21 54 C-21.53 53.79 -22.06 53.58 -22.6 53.36 C-25.98 51.44 -28.57 48.86 -31.38 46.19 C-32.49 45.14 -33.6 44.09 -34.71 43.04 C-35.25 42.53 -35.79 42.02 -36.35 41.49 C-37.98 40.01 -39.68 38.66 -41.41 37.3 C-42.27 36.54 -43.12 35.78 -44 35 C-44 34.01 -44 33.02 -44 32 C-43.01 32.33 -42.02 32.66 -41 33 C-40.71 33.66 -40.42 34.32 -40.12 35 C-39.14 37.29 -39.14 37.29 -36.38 37.75 C-35.59 37.83 -34.81 37.92 -34 38 C-34 38.99 -34 39.98 -34 41 C-33.44 41.25 -32.89 41.5 -32.31 41.75 C-30 43 -30 43 -27.5 45.12 C-24.99 47.4 -24.99 47.4 -21 47 C-21 46.34 -21 45.68 -21 45 C-21.66 45 -22.32 45 -23 45 C-23.33 44.34 -23.66 43.68 -24 43 C-24.85 42.53 -25.69 42.05 -26.56 41.56 C-27.37 41.05 -28.17 40.53 -29 40 C-29 39.01 -29 38.02 -29 37 C-30.49 37.5 -30.49 37.5 -32 38 C-31.67 36.68 -31.34 35.36 -31 34 C-30.01 34.66 -29.02 35.32 -28 36 C-28 36.66 -28 37.32 -28 38 C-27.42 38.27 -26.85 38.54 -26.25 38.81 C-23.94 40.03 -21.98 41.3 -20 43 C-20 43.66 -20 44.32 -20 45 C-19.12 45.4 -19.12 45.4 -18.22 45.81 C-15.97 47.02 -14.4 48.29 -12.55 50.04 C-11.62 50.91 -11.62 50.91 -10.67 51.8 C-10.04 52.4 -9.4 53 -8.75 53.62 C-7.78 54.54 -7.78 54.54 -6.78 55.48 C-5.18 56.98 -3.59 58.49 -2 60 C2.85 40.59 -0.36 20.01 0 0 Z " fill="#D3853A" transform="translate(363,262)"/>
<path d="M0 0 C12.48 -0.05 24.96 -0.08 37.45 -0.1 C43.24 -0.11 49.04 -0.13 54.83 -0.15 C60.42 -0.17 66.01 -0.18 71.6 -0.19 C73.74 -0.19 75.87 -0.2 78.01 -0.21 C80.99 -0.23 83.98 -0.23 86.96 -0.23 C87.85 -0.23 88.74 -0.24 89.66 -0.25 C95.77 -0.23 95.77 -0.23 98 2 C98.67 3.8 98.67 3.8 99.19 5.88 C99.37 6.55 99.55 7.23 99.73 7.93 C100.03 10.23 99.69 11.81 99 14 C96.5 12.62 96.5 12.62 94 11 C94 10.34 94 9.68 94 9 C93.34 9 92.68 9 92 9 C92 8.01 92 7.02 92 6 C66.59 6 41.18 6 15 6 C15.33 5.01 15.66 4.02 16 3 C11.05 3 6.1 3 1 3 C0.67 2.01 0.34 1.02 0 0 Z " fill="#D88E46" transform="translate(41,262)"/>
<path d="M0 0 C3.8 0.95 4.95 1.49 7.75 3.94 C8.36 4.46 8.98 4.99 9.61 5.53 C11 7 11 7 11 9 C11.86 9.38 11.86 9.38 12.73 9.77 C15.24 11.13 17.13 12.72 19.25 14.62 C19.96 15.26 20.66 15.89 21.39 16.54 C22.19 17.26 22.19 17.26 23 18 C20.31 18 18.52 17.86 16 17 C15 16 14 15 13 14 C11.45 13.29 11.45 13.29 9.88 12.56 C7 11 7 11 6.12 8.81 C6.08 8.21 6.04 7.62 6 7 C5.34 7 4.68 7 4 7 C4 7.78 4.01 8.57 4.01 9.38 C4.05 16.77 4.08 24.15 4.1 31.54 C4.11 35.34 4.13 39.13 4.15 42.93 C4.17 46.6 4.18 50.26 4.19 53.92 C4.19 55.32 4.2 56.72 4.21 58.12 C4.23 60.08 4.23 62.03 4.23 63.99 C4.23 65.1 4.24 66.22 4.24 67.37 C4 70 4 70 2 72 C-0.59 72.24 -0.59 72.24 -3.92 72.23 C-5.16 72.23 -6.4 72.23 -7.68 72.23 C-9.04 72.22 -10.4 72.21 -11.76 72.2 C-13.15 72.19 -14.53 72.19 -15.92 72.19 C-19.57 72.18 -23.23 72.16 -26.88 72.14 C-30.6 72.12 -34.33 72.11 -38.06 72.1 C-45.37 72.08 -52.69 72.04 -60 72 C-60.33 71.34 -60.66 70.68 -61 70 C-40.87 69.67 -20.74 69.34 0 69 C0 46.23 0 23.46 0 0 Z " fill="#CD8D52" transform="translate(304,363)"/>
<path d="M0 0 C1 2 1 2 0 5.06 C-2.22 9.94 -5.62 13.89 -9 18 C-9.65 18.87 -9.65 18.87 -10.32 19.77 C-13.43 23.84 -16.57 25.62 -21 28 C-21.85 28.68 -22.69 29.36 -23.56 30.06 C-26.23 32.18 -28.94 33.53 -32 35 C-35.33 37.22 -35.75 38.35 -37 42 C-38.2 41.96 -39.39 41.92 -40.62 41.88 C-44.48 41.87 -47.34 42.76 -51 44 C-59.39 45.37 -67.93 45.15 -76.41 45.15 C-77.94 45.15 -79.48 45.15 -81.01 45.16 C-85.14 45.16 -89.28 45.17 -93.42 45.17 C-96 45.17 -98.59 45.17 -101.17 45.17 C-110.19 45.18 -119.22 45.19 -128.24 45.19 C-136.65 45.18 -145.06 45.2 -153.47 45.21 C-160.7 45.22 -167.93 45.23 -175.16 45.23 C-179.47 45.23 -183.78 45.23 -188.1 45.24 C-192.15 45.25 -196.2 45.25 -200.24 45.24 C-201.73 45.24 -203.22 45.25 -204.71 45.25 C-206.73 45.26 -208.76 45.25 -210.78 45.25 C-212.49 45.25 -212.49 45.25 -214.22 45.25 C-217 45 -217 45 -220 43 C-219.28 43 -218.56 43 -217.81 43.01 C-200.19 43.05 -182.57 43.08 -164.95 43.1 C-156.42 43.11 -147.9 43.13 -139.38 43.15 C-131.94 43.17 -124.51 43.18 -117.07 43.19 C-113.14 43.19 -109.21 43.2 -105.28 43.21 C-71.39 43.33 -38.13 41.66 -12.47 16.52 C-7.71 11.4 -3.67 5.95 0 0 Z " fill="#A26C3B" transform="translate(609,390)"/>
<path d="M0 0 C5 0 5 0 6.62 1.53 C7.08 2.18 7.53 2.83 8 3.5 C10.24 6.55 10.24 6.55 13.88 7.44 C14.58 7.29 15.28 7.15 16 7 C16.33 5.68 16.66 4.36 17 3 C17.43 3.38 17.87 3.76 18.31 4.15 C20.29 5.87 22.27 7.59 24.25 9.31 C24.93 9.91 25.61 10.5 26.32 11.12 C26.98 11.69 27.64 12.27 28.33 12.86 C28.94 13.39 29.54 13.92 30.17 14.47 C32.02 16.06 32.02 16.06 34.23 17.57 C34.81 18.04 35.4 18.51 36 19 C36 19.66 36 20.32 36 21 C36.58 21.27 37.17 21.53 37.77 21.8 C40.06 23.03 41.8 24.4 43.75 26.12 C44.36 26.66 44.98 27.2 45.61 27.76 C46.07 28.17 46.53 28.58 47 29 C43.36 29 42.81 28.17 40 26 C36.14 23.78 33.48 22.61 29 23 C30.32 24.65 31.64 26.3 33 28 C29.26 26.42 26.7 24.07 23.75 21.31 C22.77 20.41 21.79 19.5 20.81 18.6 C19.88 17.74 18.95 16.88 18 16 C16.61 14.74 15.22 13.49 13.81 12.25 C13.26 11.76 12.71 11.27 12.14 10.77 C10.09 9.08 7.99 7.48 5.87 5.89 C5.14 5.35 4.42 4.81 3.67 4.25 C3.12 3.84 2.57 3.43 2 3 C2 3.7 2.01 4.39 2.01 5.11 C2.05 11.68 2.08 18.24 2.1 24.8 C2.11 28.18 2.13 31.55 2.15 34.92 C2.18 38.8 2.19 42.68 2.2 46.55 C2.21 47.77 2.22 48.98 2.23 50.24 C2.23 51.36 2.23 52.48 2.23 53.63 C2.23 54.62 2.24 55.61 2.24 56.63 C2 59 2 59 0 61 C0 40.87 0 20.74 0 0 Z " fill="#BF7535" transform="translate(311,379)"/>
<path d="M0 0 C0.33 0.66 0.66 1.32 1 2 C0.7 2.77 0.39 3.55 0.08 4.34 C-1.51 9.72 -1.31 14.94 -1.32 20.52 C-1.33 21.78 -1.34 23.04 -1.35 24.34 C-1.38 27.78 -1.39 31.22 -1.4 34.66 C-1.42 38.26 -1.45 41.86 -1.47 45.46 C-1.52 52.27 -1.56 59.08 -1.59 65.89 C-1.63 73.64 -1.68 81.4 -1.73 89.15 C-1.83 105.1 -1.92 121.05 -2 137 C11.2 137 24.4 137 38 137 C38 109.28 38 81.56 38 53 C38.99 53.33 39.98 53.66 41 54 C40.67 81.72 40.34 109.44 40 138 C25.81 138 11.62 138 -3 138 C-4.04 100.17 -4.54 62.34 -3.74 24.51 C-3.7 22.98 -3.68 21.46 -3.65 19.94 C-3.43 6.01 -3.43 6.01 0 0 Z " fill="#8A8A8B" transform="translate(255,286)"/>
<path d="M0 0 C2.97 2.81 5.26 5.66 7.5 9.08 C8.16 10.07 8.81 11.05 9.48 12.07 C10.17 13.12 10.85 14.17 11.56 15.25 C13.01 17.44 14.46 19.64 15.91 21.83 C16.61 22.89 17.32 23.96 18.04 25.06 C20.49 28.73 22.98 32.37 25.5 36 C30.84 43.7 36.01 51.5 41.17 59.31 C45.6 66.01 50.23 72.54 55 79 C57.99 78 58.95 77.25 61 75 C60.62 77.44 60.62 77.44 60 80 C59.01 80.5 59.01 80.5 58 81 C57.5 82.49 57.5 82.49 57 84 C55.68 84 54.36 84 53 84 C52.01 83.01 52.01 83.01 51 82 C50.01 81.5 50.01 81.5 49 81 C49 79.35 49 77.7 49 76 C48.01 75.5 48.01 75.5 47 75 C46.38 71.94 46.38 71.94 46 69 C45.01 68.67 44.02 68.34 43 68 C42.67 66.35 42.34 64.7 42 63 C41.01 63 40.02 63 39 63 C35.76 60.67 35.2 57.67 34 54 C33.01 53.5 33.01 53.5 32 53 C32 51.35 32 49.7 32 48 C31.36 47.71 30.72 47.42 30.06 47.12 C28 46 28 46 27 44 C26.01 43.67 25.02 43.34 24 43 C23.31 41.01 22.65 39 22 37 C20.55 34.65 19.1 32.43 17.5 30.19 C17.1 29.6 16.69 29.02 16.28 28.42 C14.11 25.2 14.11 25.2 11 23 C11 22.34 11 21.68 11 21 C10.34 21 9.68 21 9 21 C9.33 20.34 9.66 19.68 10 19 C9.67 18.67 9.34 18.34 9 18 C8.34 17.34 7.68 16.68 7 16 C6.34 16.33 5.68 16.66 5 17 C4.67 18.32 4.34 19.64 4 21 C0.7 16.05 -2.6 11.1 -6 6 C-5.34 5.67 -4.68 5.34 -4 5 C-3.55 5.47 -3.09 5.95 -2.62 6.44 C-1.07 8.09 -1.07 8.09 1 9 C0.67 6.03 0.34 3.06 0 0 Z " fill="#AF6D32" transform="translate(139,266)"/>
<path d="M0 0 C58.08 0 116.16 0 176 0 C176 0.33 176 0.66 176 1 C118.25 1 60.5 1 1 1 C1 21.46 1 41.92 1 63 C-3 62 -3 62 -6 61 C-6.47 60.18 -6.95 59.35 -7.44 58.5 C-8.75 55.84 -8.75 55.84 -11.19 55.19 C-12.08 55.09 -12.08 55.09 -13 55 C-12.67 53.68 -12.34 52.36 -12 51 C-8.7 53.97 -5.4 56.94 -2 60 C2.85 40.59 -0.36 20.01 0 0 Z " fill="#A7713E" transform="translate(363,262)"/>
<path d="M0 0 C0.66 0 1.32 0 2 0 C3.62 2.5 3.62 2.5 5 5 C5.66 4.67 6.32 4.34 7 4 C14 21.02 14 21.02 14 25 C14.66 25 15.32 25 16 25 C16.1 30.56 16.17 36.13 16.22 41.69 C16.24 43.58 16.27 45.47 16.3 47.35 C16.52 59.27 15.89 69.65 12 81 C11.01 80.67 10.02 80.34 9 80 C8.34 81.32 7.68 82.64 7 84 C6.34 84 5.68 84 5 84 C6.07 80.77 7.16 77.54 8.25 74.31 C8.69 73.02 9.13 71.73 9.56 70.44 C9.78 69.79 10 69.14 10.23 68.48 C16.65 49.41 14.07 28.18 5.38 10.31 C4.59 8.87 3.8 7.43 3 6 C2.39 4.8 1.78 3.59 1.19 2.38 C0.8 1.59 0.4 0.81 0 0 Z " fill="#A57244" transform="translate(605,306)"/>
<path d="M0 0 C3.81 3.62 6.88 7.38 9.88 11.69 C10.3 12.3 10.73 12.91 11.18 13.53 C12.45 15.35 13.73 17.18 15 19 C15.73 20.04 16.45 21.07 17.2 22.14 C18.81 24.42 20.41 26.71 22 29 C21.67 29.66 21.34 30.32 21 31 C20.34 30.67 19.68 30.34 19 30 C18.67 30.66 18.34 31.32 18 32 C17.73 31.28 17.46 30.56 17.19 29.81 C15.38 25.52 13.04 21.54 10 18 C9.01 17.67 8.02 17.34 7 17 C7.33 17.76 7.66 18.53 8 19.31 C9 22 9 22 9 25 C9.99 25.33 10.98 25.66 12 26 C12 26.99 12 27.98 12 29 C12.99 29.33 13.98 29.66 15 30 C14.67 31.32 14.34 32.64 14 34 C9.12 27.87 4.54 21.6 0.12 15.12 C-0.46 14.28 -1.04 13.44 -1.63 12.58 C-2.18 11.77 -2.74 10.96 -3.3 10.13 C-3.8 9.41 -4.29 8.69 -4.8 7.94 C-6 6 -6 6 -7 3 C-5.12 3.25 -5.12 3.25 -3 4 C-1.75 6.06 -1.75 6.06 -1 8 C-0.67 7.01 -0.34 6.02 0 5 C0.99 5.33 1.98 5.66 3 6 C2.01 5.34 1.02 4.68 0 4 C0 2.68 0 1.36 0 0 Z " fill="#F19137" transform="translate(135,382)"/>
<path d="M0 0 C0.66 0.33 1.32 0.66 2 1 C2.1 1.6 2.21 2.2 2.31 2.81 C2.85 5.24 2.85 5.24 5.38 6.81 C8.74 9.62 9.4 11.97 11 16 C11.66 16.33 12.32 16.66 13 17 C14.63 20.35 15 22.19 15 26 C15.99 26 16.98 26 18 26 C18.84 27.43 19.67 28.87 20.5 30.31 C21.2 31.51 21.2 31.51 21.91 32.74 C23 35 23 35 23 38 C18.47 37.22 15.96 36.48 13.16 32.73 C12.3 31.42 11.45 30.09 10.62 28.75 C10.19 28.09 9.75 27.44 9.3 26.76 C6.8 22.87 5.39 19.71 5 15 C4.01 14.67 3.02 14.34 2 14 C0.76 11.6 0.76 11.6 -0.31 8.62 C-0.68 7.65 -1.05 6.67 -1.43 5.66 C-1.62 4.78 -1.8 3.91 -2 3 C-1.34 2.01 -0.68 1.02 0 0 Z " fill="#EC913C" transform="translate(76,300)"/>
<path d="M0 0 C0.14 0.62 0.29 1.24 0.44 1.88 C0.93 4.03 0.93 4.03 2 6 C14.44 7.8 27.44 7.15 39.98 7.13 C42.06 7.13 44.13 7.13 46.21 7.14 C50.52 7.14 54.84 7.14 59.15 7.13 C64.68 7.12 70.2 7.13 75.73 7.13 C80 7.14 84.27 7.14 88.54 7.13 C90.58 7.13 92.62 7.13 94.66 7.14 C97.5 7.14 100.33 7.13 103.17 7.13 C104.43 7.13 104.43 7.13 105.71 7.14 C109.31 7.12 112.54 6.97 116 6 C116 5.34 116 4.68 116 4 C122.62 2.75 122.62 2.75 126 5 C126 4.34 126 3.68 126 3 C130.45 2.5 130.45 2.5 135 2 C126.12 10.88 104.27 10.09 92.44 10.15 C87.12 10.13 81.81 10.06 76.49 9.98 C74.19 9.95 71.88 9.93 69.57 9.9 C63.57 9.83 57.56 9.76 51.55 9.67 C45.4 9.59 39.24 9.52 33.09 9.45 C21.06 9.31 9.03 9.16 -3 9 C-2.26 5.86 -1.24 2.98 0 0 Z " fill="#F2F2F2" transform="translate(430,415)"/>
<path d="M0 0 C3.8 0.95 4.95 1.49 7.75 3.94 C8.36 4.46 8.98 4.99 9.61 5.53 C11 7 11 7 11 9 C11.57 9.26 12.14 9.51 12.73 9.77 C15.24 11.13 17.13 12.72 19.25 14.62 C19.96 15.26 20.66 15.89 21.39 16.54 C21.92 17.02 22.45 17.5 23 18 C20.31 18 18.52 17.86 16 17 C15 16 14 15 13 14 C11.45 13.29 11.45 13.29 9.88 12.56 C7 11 7 11 6.12 8.81 C6.08 8.21 6.04 7.62 6 7 C5.34 7 4.68 7 4 7 C4 27.79 4 48.58 4 70 C3.67 70 3.34 70 3 70 C3 48.88 3 27.76 3 6 C3.66 6 4.32 6 5 6 C4.01 4.68 3.02 3.36 2 2 C1.67 24.44 1.34 46.88 1 70 C-0.98 70 -2.96 70 -5 70 C-5 69.67 -5 69.34 -5 69 C-3.35 69 -1.7 69 0 69 C0 46.23 0 23.46 0 0 Z " fill="#995D25" transform="translate(304,363)"/>
<path d="M0 0 C9.6 -0.02 19.19 -0.04 28.79 -0.05 C33.25 -0.06 37.7 -0.06 42.16 -0.08 C46.46 -0.09 50.76 -0.09 55.05 -0.09 C56.7 -0.1 58.34 -0.1 59.98 -0.11 C62.27 -0.11 64.57 -0.11 66.87 -0.11 C68.83 -0.12 68.83 -0.12 70.83 -0.12 C74 0 74 0 77 1 C78.34 4.01 79.14 6.09 78.62 9.38 C78.42 9.91 78.21 10.45 78 11 C75.5 9.62 75.5 9.62 73 8 C73 7.34 73 6.68 73 6 C72.34 6 71.68 6 71 6 C71 5.01 71 4.02 71 3 C47.9 2.67 24.8 2.34 1 2 C0.67 1.34 0.34 0.68 0 0 Z " fill="#F39536" transform="translate(62,265)"/>
<path d="M0 0 C6.15 -0.79 9.98 1.86 15 5 C16.67 6.02 16.67 6.02 18.38 7.06 C20.9 8.92 22.5 10.26 24 13 C24.19 15.75 24.19 15.75 24 18 C24.99 18 25.98 18 27 18 C27 18.66 27 19.32 27 20 C24.36 20 21.72 20 19 20 C19 19.34 19 18.68 19 18 C18.42 17.73 17.85 17.46 17.25 17.19 C14.94 15.97 12.98 14.7 11 13 C11 12.34 11 11.68 11 11 C10.42 10.75 9.83 10.51 9.23 10.25 C6.65 8.81 5.16 7.19 3.25 4.94 C2.64 4.22 2.02 3.51 1.39 2.78 C0 1 0 1 0 0 Z " fill="#E48F3D" transform="translate(339,401)"/>
<path d="M0 0 C5.23 1.6 7.56 4.43 10.19 9.12 C11 11 11 11 12 14 C12.99 14.33 13.98 14.66 15 15 C15.33 16.65 15.66 18.3 16 20 C17.32 20 18.64 20 20 20 C19.73 19.5 19.47 19.01 19.2 18.5 C16.88 14.05 15.22 9.86 14 5 C18.07 8.71 21.09 13.08 24.25 17.56 C24.8 18.33 25.36 19.1 25.93 19.89 C26.45 20.63 26.98 21.37 27.52 22.13 C27.99 22.8 28.47 23.47 28.96 24.16 C30 26 30 26 30 29 C25.2 25.55 25.2 25.55 24.19 22.75 C24.13 22.17 24.06 21.6 24 21 C23.34 21.99 22.68 22.98 22 24 C22.77 26.54 22.77 26.54 24 29 C25 32 25 32 25 34 C26.32 34.33 27.64 34.66 29 35 C29 36.65 29 38.3 29 40 C25.14 36.39 22.22 32.58 19.38 28.12 C15.34 21.93 11.1 15.93 6.67 10.01 C4.25 6.77 2.01 3.52 0 0 Z " fill="#B67232" transform="translate(53,280)"/>
<path d="M0 0 C0.33 0.66 0.66 1.32 1 2 C0.36 2.89 -0.28 3.77 -0.94 4.69 C-2.81 7.69 -3.59 9.55 -4 13 C-4.99 13 -5.98 13 -7 13 C-7.1 13.78 -7.21 14.57 -7.31 15.38 C-8 18 -8 18 -11 20 C-11.25 23.58 -11.25 23.58 -11 27 C-10.67 26.01 -10.34 25.02 -10 24 C-9.34 24 -8.68 24 -8 24 C-7.67 23.34 -7.34 22.68 -7 22 C-6.34 22.33 -5.68 22.66 -5 23 C-4.67 21.68 -4.34 20.36 -4 19 C-3.34 19 -2.68 19 -2 19 C-2 28.9 -2 38.8 -2 49 C-2.33 49 -2.66 49 -3 49 C-3.5 36.62 -3.5 36.62 -4 24 C-5.65 25.65 -7.3 27.3 -9 29 C-10.33 30.33 -11.67 31.67 -13 33 C-13 31.68 -13 30.36 -13 29 C-16.12 30.31 -16.12 30.31 -18 33 C-18.66 33 -19.32 33 -20 33 C-20.43 33.93 -20.43 33.93 -20.88 34.88 C-22 37 -22 37 -24 39 C-26.32 39.4 -28.66 39.74 -31 40 C-29.03 37.96 -26.98 36.19 -24.75 34.44 C-21.93 32.02 -19.83 29.54 -17.73 26.48 C-17.12 25.6 -16.52 24.72 -15.9 23.81 C-12.77 19.17 -9.65 14.53 -6.56 9.88 C-5.93 8.92 -5.29 7.96 -4.63 6.98 C-3.09 4.65 -1.54 2.33 0 0 Z " fill="#925C2C" transform="translate(238,391)"/>
<path d="M0 0 C3.78 1.34 6.66 3.03 9.81 5.5 C10.6 6.11 11.39 6.72 12.21 7.34 C12.8 7.89 13.39 8.44 14 9 C14 9.66 14 10.32 14 11 C14.66 11 15.32 11 16 11 C16 11.66 16 12.32 16 13 C16.66 13 17.32 13 18 13 C19.44 14.78 20.81 16.63 22.12 18.5 C22.85 19.52 23.57 20.54 24.32 21.59 C24.87 22.39 25.43 23.18 26 24 C25.67 24.66 25.34 25.32 25 26 C21.85 25.66 20.39 25.42 18.19 23.06 C17 21 17 21 17 19 C15.35 19.33 13.7 19.66 12 20 C11.88 19.36 11.75 18.72 11.62 18.06 C11.42 17.38 11.21 16.7 11 16 C10.34 15.67 9.68 15.34 9 15 C9 13.68 9 12.36 9 11 C8.01 11 7.02 11 6 11 C5.67 10.34 5.34 9.68 5 9 C2.47 8.34 2.47 8.34 0 8 C0 5.36 0 2.72 0 0 Z " fill="#DFE0DF" transform="translate(576,292)"/>
<path d="M0 0 C0.66 0 1.32 0 2 0 C2 0.66 2 1.32 2 2 C2.88 2.4 2.88 2.4 3.78 2.81 C6.05 4.02 7.61 5.31 9.46 7.08 C10.42 7.99 10.42 7.99 11.39 8.91 C12.05 9.54 12.7 10.17 13.38 10.81 C17.8 15.03 22.25 19.14 27 23 C26.01 23.33 25.02 23.66 24 24 C23.34 23.67 22.68 23.34 22 23 C22 23.66 22 24.32 22 25 C18.93 23.46 15.98 21.71 13 20 C13.33 19.01 13.66 18.02 14 17 C11.67 16.22 9.39 15.58 7 15 C6.67 15.66 6.34 16.32 6 17 C5.01 16.67 4.02 16.34 3 16 C3.25 14.76 3.5 13.52 3.75 12.25 C4.1 10.07 4.1 10.07 4 8 C2.15 5.73 2.15 5.73 0 4 C0 2.68 0 1.36 0 0 Z " fill="#F3F4F2" transform="translate(349,335)"/>
<path d="M0 0 C4.88 3.62 4.88 3.62 6 7 C6.66 7 7.32 7 8 7 C9.26 8.58 9.26 8.58 10.69 10.81 C11.21 11.62 11.74 12.43 12.28 13.27 C13.48 15.18 14.67 17.09 15.84 19.01 C16.45 20 17.06 20.98 17.69 22 C18.53 23.39 18.53 23.39 19.39 24.81 C20.88 27.28 20.88 27.28 24 28 C24.33 30.31 24.66 32.62 25 35 C26.49 35.5 26.49 35.5 28 36 C29.65 38.6 30 39.86 30 43 C30.64 43.23 31.28 43.45 31.94 43.69 C34 45 34 45 34.69 47.38 C34.84 48.67 34.84 48.67 35 50 C35.32 51.34 35.66 52.67 36 54 C33.24 51.37 31.02 48.76 28.93 45.57 C28.36 44.7 27.79 43.83 27.2 42.94 C26.6 42.01 25.99 41.08 25.37 40.12 C24.74 39.16 24.11 38.2 23.46 37.21 C21.45 34.14 19.44 31.07 17.44 28 C15.43 24.93 13.42 21.86 11.41 18.79 C10.15 16.88 8.91 14.97 7.66 13.06 C7.09 12.19 6.52 11.32 5.94 10.43 C5.19 9.29 5.19 9.29 4.43 8.12 C3.45 6.66 2.4 5.24 1.32 3.85 C0 2 0 2 0 0 Z " fill="#A2652F" transform="translate(144,287)"/>
<path d="M0 0 C1.98 1.38 1.98 1.38 4 4 C4.57 7.32 4.47 10.58 4.38 13.94 C4.37 14.83 4.37 15.73 4.37 16.65 C4.31 21.27 3.95 24.75 2 29 C1.66 31.6 1.5 34.17 1.34 36.79 C1 39 1 39 -1 41 C-2.49 41.5 -2.49 41.5 -4 42 C-4.13 38.01 -3.79 34.91 -2.56 31.12 C0.15 21.05 -0.23 10.37 0 0 Z " fill="#EC8E39" transform="translate(623,338)"/>
<path d="M0 0 C0 0.66 0 1.32 0 2 C0.93 2.1 1.86 2.21 2.81 2.31 C6.15 3.03 6.83 3.57 9 6 C7.98 5.93 6.96 5.86 5.91 5.78 C4.48 5.69 3.05 5.59 1.62 5.5 C0.49 5.43 0.49 5.43 -0.66 5.35 C-4.8 5.11 -8.91 4.98 -13.07 5.04 C-13.88 5.05 -14.7 5.06 -15.54 5.08 C-17.12 5.11 -18.7 5.15 -20.28 5.21 C-22.46 5.26 -22.46 5.26 -26 5 C-26.66 4.01 -27.32 3.02 -28 2 C-20.5 -3 -8.57 -1.49 0 0 Z " fill="#EA923E" transform="translate(289,263)"/>
<path d="M0 0 C0.33 0 0.66 0 1 0 C1.33 18.48 1.66 36.96 2 56 C8.58 56.02 15.16 56.04 21.94 56.06 C23.98 56.07 26.01 56.08 28.11 56.09 C49.26 56.41 49.26 56.41 70 53 C69.67 54.32 69.34 55.64 69 57 C67.35 56.67 65.7 56.34 64 56 C63.5 56.99 63.5 56.99 63 58 C42.21 58 21.42 58 0 58 C0 38.86 0 19.72 0 0 Z " fill="#7F7F7F" transform="translate(475,330)"/>
<path d="M0 0 C0.99 0.33 1.98 0.66 3 1 C3.43 1.99 3.43 1.99 3.88 3 C4.86 5.29 4.86 5.29 7.62 5.75 C8.41 5.83 9.19 5.92 10 6 C10 6.99 10 7.98 10 9 C10.56 9.25 11.11 9.5 11.69 9.75 C14 11 14 11 16.5 13.12 C19.01 15.4 19.01 15.4 23 15 C23 14.34 23 13.68 23 13 C22.34 13 21.68 13 21 13 C20.67 12.34 20.34 11.68 20 11 C19.15 10.53 18.31 10.05 17.44 9.56 C16.63 9.05 15.83 8.53 15 8 C15 7.01 15 6.02 15 5 C14.01 5.33 13.02 5.66 12 6 C12.33 4.68 12.66 3.36 13 2 C13.99 2.66 14.98 3.32 16 4 C16 4.66 16 5.32 16 6 C16.87 6.4 16.87 6.4 17.75 6.81 C20.06 8.03 22.02 9.3 24 11 C24 11.66 24 12.32 24 13 C24.6 13.25 25.2 13.5 25.81 13.75 C28.29 15.16 29.43 16.65 31 19 C27.65 18.05 24.31 17.1 21 16 C21.66 16.76 22.32 17.53 23 18.31 C25 21 25 21 25 24 C24.34 24 23.68 24 23 24 C23 23.34 23 22.68 23 22 C22.47 21.79 21.94 21.58 21.4 21.36 C18.02 19.44 15.43 16.86 12.62 14.19 C11.51 13.14 10.4 12.09 9.29 11.04 C8.48 10.28 8.48 10.28 7.65 9.49 C6.02 8.01 4.32 6.66 2.59 5.3 C1.73 4.54 0.88 3.78 0 3 C0 2.01 0 1.02 0 0 Z " fill="#A36830" transform="translate(319,294)"/>
<path d="M0 0 C1.32 0.33 2.64 0.66 4 1 C4 1.66 4 2.32 4 3 C4.66 3 5.32 3 6 3 C6.33 2.34 6.66 1.68 7 1 C7.66 2.65 8.32 4.3 9 6 C10.65 6 12.3 6 14 6 C14 6.66 14 7.32 14 8 C12.68 8.33 11.36 8.66 10 9 C10.66 10.32 11.32 11.64 12 13 C12.66 12.34 13.32 11.68 14 11 C14 11.66 14 12.32 14 13 C14.99 13.33 15.98 13.66 17 14 C16.67 16.31 16.34 18.62 16 21 C16.99 21.33 17.98 21.66 19 22 C20.45 24.32 21.75 26.58 23 29 C23.43 29.76 23.87 30.53 24.31 31.31 C24.65 32.15 24.65 32.15 25 33 C24.67 33.66 24.34 34.32 24 35 C18.89 28.34 13.95 21.59 9.19 14.69 C8.73 14.03 8.28 13.37 7.81 12.7 C4.98 8.57 2.43 4.37 0 0 Z " fill="#D3D4D2" transform="translate(111,331)"/>
<path d="M0 0 C0.58 0.25 1.16 0.5 1.75 0.75 C-0.57 7.49 -4.68 13.33 -9.25 18.75 C-9.91 18.42 -10.57 18.09 -11.25 17.75 C-11.25 19.4 -11.25 21.05 -11.25 22.75 C-13.56 23.08 -15.87 23.41 -18.25 23.75 C-17.05 18.07 -15.69 16.26 -11.25 12.75 C-10.34 11.28 -9.49 9.78 -8.69 8.25 C-4.09 -0.45 -4.09 -0.45 0 0 Z " fill="#E48D3D" transform="translate(250.25,273.25)"/>
<path d="M0 0 C12.27 0.29 28.8 3.84 39 11 C40.52 13.93 41 15.69 41 19 C36.25 17.12 36.25 17.12 34 16 C34 15.34 34 14.68 34 14 C32.02 13.67 30.04 13.34 28 13 C28 12.01 28 11.02 28 10 C26.68 9.67 25.36 9.34 24 9 C24 8.34 24 7.68 24 7 C22.35 7 20.7 7 19 7 C19 6.34 19 5.68 19 5 C18.4 4.94 17.79 4.88 17.17 4.82 C16.37 4.73 15.57 4.65 14.75 4.56 C13.57 4.44 13.57 4.44 12.36 4.32 C7.76 3.7 3.9 2.6 0 0 Z " fill="#AD7236" transform="translate(541,263)"/>
<path d="M0 0 C1 2 1 2 0 5.06 C-2.22 9.94 -5.62 13.89 -9 18 C-9.44 18.58 -9.87 19.17 -10.32 19.77 C-13.43 23.84 -16.57 25.62 -21 28 C-21.87 28.7 -22.73 29.4 -23.62 30.12 C-27.63 33.29 -30.92 34.29 -36 34 C-32.95 31.35 -29.81 29.29 -26.31 27.31 C-14.83 20.48 -7.3 10.94 0 0 Z " fill="#906944" transform="translate(609,390)"/>
<path d="M0 0 C4.13 0.61 7.33 2.04 11 4 C11 4.66 11 5.32 11 6 C11.64 6.12 12.28 6.25 12.94 6.38 C13.62 6.58 14.3 6.79 15 7 C15.33 7.66 15.66 8.32 16 9 C17.66 9.68 19.33 10.35 21 11 C21.66 11.66 22.32 12.32 23 13 C22.97 15.73 22.44 18.3 22 21 C18.88 20.69 17.94 19.94 15.71 17.64 C14.94 16.66 14.17 15.69 13.38 14.69 C12.6 13.72 11.82 12.76 11.02 11.76 C9 9 9 9 7.92 6.71 C6.45 3.98 3.84 3.91 1 3 C0.67 2.01 0.34 1.02 0 0 Z " fill="#E7913C" transform="translate(583,281)"/>
<path d="M0 0 C1.32 0.73 2.63 1.49 3.94 2.25 C4.67 2.67 5.4 3.09 6.15 3.52 C8.35 5.28 8.47 6.31 9 9 C9.66 9.33 10.32 9.66 11 10 C11.29 10.78 11.58 11.57 11.88 12.38 C12.79 15.12 12.79 15.12 15.12 16.56 C15.74 17.04 16.36 17.51 17 18 C17 19.32 17 20.64 17 22 C18.32 22.66 19.64 23.32 21 24 C20.67 24.66 20.34 25.32 20 26 C19.01 25.34 18.02 24.68 17 24 C16.67 25.32 16.34 26.64 16 28 C15.57 27.03 15.13 26.06 14.69 25.06 C13.3 21.72 13.3 21.72 10 21 C9.67 19.35 9.34 17.7 9 16 C8.01 15.67 7.02 15.34 6 15 C5.21 13.3 4.44 11.59 3.76 9.84 C2.97 7.79 2.97 7.79 1.31 5.25 C0 3 0 3 0 0 Z " fill="#EC923C" transform="translate(118,364)"/>
<path d="M0 0 C25.74 0 51.48 0 78 0 C77.67 0.99 77.34 1.98 77 3 C76.01 2.5 76.01 2.5 75 2 C72.72 1.91 70.44 1.88 68.16 1.89 C67.11 1.89 67.11 1.89 66.03 1.89 C63.71 1.89 61.38 1.89 59.05 1.9 C57.44 1.9 55.83 1.91 54.22 1.91 C49.98 1.91 45.73 1.92 41.49 1.93 C37.16 1.94 32.83 1.95 28.5 1.95 C20 1.96 11.5 1.98 3 2 C5.36 5.99 7.93 9.59 10.79 13.23 C12 15 12 15 12 17 C11.01 17.33 10.02 17.66 9 18 C8.34 16.02 7.68 14.04 7 12 C6.34 12 5.68 12 5 12 C1.64 7.73 0.93 5.58 0 0 Z " fill="#AE7639" transform="translate(55,268)"/>
<path d="M0 0 C0.5 0.39 0.99 0.77 1.5 1.17 C12.78 9.82 21.6 12.8 36 12 C38.82 11.54 41.28 10.89 44 10 C42.38 13.23 40.35 13.72 37 15 C33.28 15.38 29.61 15.33 25.88 15.25 C24.89 15.24 23.9 15.24 22.88 15.23 C14.98 15.15 14.98 15.15 11 14 C10.67 14.99 10.34 15.98 10 17 C7.98 16.4 5.98 15.73 4 15 C3.67 14.34 3.34 13.68 3 13 C4.98 12.67 6.96 12.34 9 12 C8.67 10.68 8.34 9.36 8 8 C6.86 7.91 6.86 7.91 5.69 7.81 C3 7 3 7 1.19 4.56 C0 2 0 2 0 0 Z " fill="#A96B38" transform="translate(163,421)"/>
<path d="M0 0 C0.99 0.33 1.98 0.66 3 1 C3 1.66 3 2.32 3 3 C3.59 3.27 4.19 3.54 4.8 3.83 C6.94 4.97 8.42 6.13 10.17 7.79 C10.75 8.34 11.33 8.88 11.92 9.44 C12.53 10.02 13.13 10.59 13.75 11.19 C15 12.37 16.25 13.55 17.5 14.72 C18.1 15.29 18.7 15.85 19.32 16.44 C21.99 18.92 24.75 21.29 27.55 23.63 C29 25 29 25 31 28 C28.19 27.31 28.19 27.31 25 26 C23.5 23.5 23.5 23.5 22 21 C18.92 19.64 18.92 19.64 16 19 C15.67 19.66 15.34 20.32 15 21 C13.68 20.34 12.36 19.68 11 19 C11 18.01 11 17.02 11 16 C11.99 16 12.98 16 14 16 C14 15.01 14 14.02 14 13 C13.22 13.04 12.43 13.08 11.62 13.12 C9 13 9 13 7 11 C6.01 11.33 5.02 11.66 4 12 C2.54 9.35 2 8.11 2 5 C1.34 4.01 0.68 3.02 0 2 C0 1.34 0 0.68 0 0 Z " fill="#D1D2D1" transform="translate(318,307)"/>
<path d="M0 0 C1.98 0.99 1.98 0.99 4 2 C3.01 2.5 3.01 2.5 2 3 C2 3.7 2.01 4.39 2.01 5.11 C2.05 11.68 2.08 18.24 2.1 24.8 C2.11 28.18 2.13 31.55 2.15 34.92 C2.18 38.8 2.19 42.68 2.2 46.55 C2.21 47.77 2.22 48.98 2.23 50.24 C2.23 51.36 2.23 52.48 2.23 53.63 C2.23 54.62 2.24 55.61 2.24 56.63 C2 59 2 59 0 61 C0 40.87 0 20.74 0 0 Z " fill="#603210" transform="translate(311,379)"/>
<path d="M0 0 C0 3.34 -0.48 4.07 -2.38 6.69 C-2.82 7.31 -3.26 7.93 -3.71 8.57 C-4.14 9.04 -4.56 9.52 -5 10 C-5.66 10 -6.32 10 -7 10 C-7 10.66 -7 11.32 -7 12 C-9.27 13.66 -9.27 13.66 -12.25 15.5 C-13.22 16.11 -14.2 16.72 -15.2 17.34 C-20.15 20.27 -20.15 20.27 -22 21 C-22.99 20.67 -23.98 20.34 -25 20 C-23.5 16.99 -21.08 17.03 -18 16 C-17.67 15.34 -17.34 14.68 -17 14 C-17 14.66 -17 15.32 -17 16 C-16.34 16 -15.68 16 -15 16 C-15.12 14.67 -15.12 14.67 -15.25 13.31 C-14.95 9.29 -13.82 7.82 -11 5 C-10.34 5 -9.68 5 -9 5 C-8.34 3.68 -7.68 2.36 -7 1 C-6.01 1 -5.02 1 -4 1 C-3.67 1.99 -3.34 2.98 -3 4 C-2.01 2.68 -1.02 1.36 0 0 Z " fill="#D37D2E" transform="translate(229,419)"/>
<path d="M0 0 C2.95 0.32 3.93 0.93 6 3.12 C7.53 5.32 8.8 7.41 10.06 9.75 C11.67 13.25 11.67 13.25 15 14 C15.33 15.65 15.66 17.3 16 19 C15.34 18.67 14.68 18.34 14 18 C14.66 19.98 15.32 21.96 16 24 C15.01 24 14.02 24 13 24 C13 23.34 13 22.68 13 22 C12.01 22 11.02 22 10 22 C7 15.25 7 15.25 7 13 C6.34 12.67 5.68 12.34 5 12 C4.67 11.01 4.34 10.02 4 9 C3.34 8.67 2.68 8.34 2 8 C0.63 5.1 0 3.24 0 0 Z " fill="#E6913B" transform="translate(142,399)"/>
<path d="M0 0 C1.98 0.5 1.98 0.5 4 1 C4 15.52 4 30.04 4 45 C7.3 45 10.6 45 14 45 C14 45.33 14 45.66 14 46 C10.04 46 6.08 46 2 46 C2 32.14 2 18.28 2 4 C1.01 4 0.02 4 -1 4 C-0.67 2.68 -0.34 1.36 0 0 Z " fill="#754521" transform="translate(240,387)"/>
<path d="M0 0 C4.12 3.84 7.18 7.92 10.25 12.62 C10.7 13.29 11.14 13.96 11.6 14.65 C13.42 17.4 14.95 19.86 16 23 C14.68 22.67 13.36 22.34 12 22 C11.94 21.22 11.88 20.43 11.81 19.62 C11.54 18.76 11.28 17.89 11 17 C8.59 15.75 8.59 15.75 6 15 C5.34 14.34 4.68 13.68 4 13 C2.02 13.99 2.02 13.99 0 15 C0 13.68 0 12.36 0 11 C-0.19 10.22 -0.37 9.43 -0.56 8.62 C-1.08 5.52 -0.64 3.06 0 0 Z " fill="#F7F7F6" transform="translate(161,329)"/>
<path d="M0 0 C0 4.78 -2.84 7.58 -6 11 C-13.06 16.85 -19.75 19.38 -29 19 C-29 18.67 -29 18.34 -29 18 C-28.36 17.93 -27.72 17.85 -27.06 17.77 C-21.17 16.88 -17.64 15.53 -13.38 11.34 C-12 10 -12 10 -10 9 C-9.34 5.97 -9.34 5.97 -9 3 C-6.03 2.01 -3.06 1.02 0 0 Z " fill="#C7C9CA" transform="translate(217,407)"/>
<path d="M0 0 C-8.23 8.23 -28.53 8.04 -39.62 8.19 C-46.76 8.04 -53.89 7.5 -61 7 C-61 6.67 -61 6.34 -61 6 C-59.87 5.97 -58.74 5.95 -57.58 5.92 C-53.38 5.83 -49.18 5.73 -44.98 5.63 C-43.17 5.58 -41.35 5.54 -39.54 5.5 C-36.93 5.44 -34.31 5.38 -31.7 5.32 C-30.89 5.3 -30.08 5.28 -29.25 5.27 C-25.68 5.17 -22.43 4.95 -19 4 C-19 3.34 -19 2.68 -19 2 C-12.38 0.75 -12.38 0.75 -9 3 C-9 2.34 -9 1.68 -9 1 C-5.8 -0.07 -3.34 -0.07 0 0 Z " fill="#B3B3B3" transform="translate(565,417)"/>
<path d="M0 0 C0.33 0.66 0.66 1.32 1 2 C1.66 2.33 2.32 2.66 3 3 C2.01 3.5 2.01 3.5 1 4 C1.78 3.81 2.57 3.63 3.38 3.44 C6 3 6 3 8 4 C8.36 6.26 8.44 8.49 8.56 10.77 C9.1 13.48 9.8 14.37 12 16 C15.61 16.73 15.61 16.73 19 17 C18.34 17.99 17.68 18.98 17 20 C17.66 20.99 18.32 21.98 19 23 C15.08 21.38 12.29 18.69 9.25 15.81 C8.19 14.82 7.13 13.83 6.06 12.84 C5.54 12.36 5.03 11.87 4.49 11.37 C1.83 8.93 -0.92 6.58 -3.67 4.24 C-4.11 3.83 -4.55 3.42 -5 3 C-5 2.67 -5 2.34 -5 2 C-3.35 2 -1.7 2 0 2 C0 1.34 0 0.68 0 0 Z " fill="#E2E3E3" transform="translate(351,383)"/>
<path d="M0 0 C0.33 0 0.66 0 1 0 C1.19 2.31 1.19 2.31 1 5 C0.5 5.43 0.01 5.87 -0.5 6.31 C-2.68 8.77 -1.92 10.87 -1.78 13.99 C-2 16 -2 16 -4.38 19 C-7 21 -7 21 -9 21 C-9.33 21.99 -9.66 22.98 -10 24 C-10.66 24 -11.32 24 -12 24 C-12 24.99 -12 25.98 -12 27 C-13.32 26.67 -14.64 26.34 -16 26 C-15.08 24.62 -14.17 23.25 -13.25 21.88 C-12.7 21.05 -12.16 20.23 -11.59 19.38 C-10.34 17.51 -9.05 15.65 -7.75 13.81 C-5.96 10.93 -4.93 8.25 -4 5 C-3.34 5 -2.68 5 -2 5 C-1.34 3.35 -0.68 1.7 0 0 Z " fill="#E88D36" transform="translate(614,385)"/>
<path d="M0 0 C0.33 0 0.66 0 1 0 C1 20.79 1 41.58 1 63 C-3 62 -3 62 -6 61 C-6.47 60.18 -6.95 59.35 -7.44 58.5 C-8.75 55.84 -8.75 55.84 -11.19 55.19 C-12.08 55.09 -12.08 55.09 -13 55 C-12.67 53.68 -12.34 52.36 -12 51 C-8.7 53.97 -5.4 56.94 -2 60 C-1.13 56.53 -0.85 53.93 -0.79 50.41 C-0.76 48.72 -0.76 48.72 -0.73 47.01 C-0.72 45.8 -0.7 44.6 -0.68 43.36 C-0.65 41.5 -0.65 41.5 -0.62 39.61 C-0.57 36.33 -0.52 33.05 -0.47 29.77 C-0.42 26.41 -0.36 23.06 -0.31 19.71 C-0.2 13.14 -0.1 6.57 0 0 Z " fill="#5D4125" transform="translate(363,262)"/>
<path d="M0 0 C0 0.66 0 1.32 0 2 C1.32 2.33 2.64 2.66 4 3 C3.48 3.63 2.96 4.26 2.43 4.91 C-1.8 10.09 -5.59 15.25 -9 21 C-9 17.64 -8.33 16.43 -6.69 13.56 C-6.26 12.8 -5.83 12.04 -5.39 11.25 C-4 9 -4 9 -2.33 6.84 C-0.8 5.11 -0.8 5.11 -1 3 C-1.99 2.67 -2.98 2.34 -4 2 C-4.33 2.99 -4.66 3.98 -5 5 C-5.99 5.66 -6.98 6.32 -8 7 C-9.26 9.08 -9.26 9.08 -10.38 11.44 C-12.37 15.21 -13.96 17.27 -18 19 C-16.53 14.89 -14.52 11.45 -12.12 7.81 C-11.45 6.77 -10.77 5.72 -10.07 4.64 C-6.86 0.55 -5.18 0 0 0 Z " fill="#986028" transform="translate(252,271)"/>
<path d="M0 0 C3.96 1.67 6.84 4.13 10 7 C10 7.66 10 8.32 10 9 C10.58 9.27 11.17 9.53 11.77 9.8 C14.06 11.03 15.8 12.4 17.75 14.12 C18.67 14.93 18.67 14.93 19.61 15.76 C20.07 16.17 20.53 16.58 21 17 C17.36 17 16.81 16.17 14 14 C10.14 11.78 7.48 10.61 3 11 C4.32 12.65 5.64 14.3 7 16 C3.2 14.51 1.39 12.24 -1 9 C-0.67 8.34 -0.34 7.68 0 7 C0.66 7 1.32 7 2 7 C1.34 6.01 0.68 5.02 0 4 C0 2.68 0 1.36 0 0 Z " fill="#B06D2D" transform="translate(337,391)"/>
<path d="M0 0 C6.49 0.53 12.17 1.75 18.31 3.88 C19.49 4.26 19.49 4.26 20.69 4.65 C24.6 5.97 27.87 7.2 31 10 C30.01 10.33 29.02 10.66 28 11 C28 10.34 28 9.68 28 9 C24.4 9.7 24.4 9.7 20.88 10.69 C19 11 19 11 16 9 C15.67 8.01 15.34 7.02 15 6 C10.04 4.68 5.09 4.91 0 5 C0 3.33 0 1.67 0 0 Z " fill="#CDCBCE" transform="translate(540,279)"/>
<path d="M0 0 C3.81 3.62 6.88 7.38 9.88 11.69 C10.3 12.3 10.73 12.91 11.18 13.53 C12.45 15.35 13.73 17.18 15 19 C15.73 20.04 16.45 21.07 17.2 22.14 C18.81 24.42 20.41 26.71 22 29 C21.67 29.66 21.34 30.32 21 31 C20.34 30.67 19.68 30.34 19 30 C18.67 30.66 18.34 31.32 18 32 C17.73 31.28 17.46 30.56 17.19 29.81 C14.73 23.99 10.84 16.92 5 14 C4.12 11.71 3.47 9.39 2.78 7.03 C2.19 4.81 2.19 4.81 0 4 C0 2.68 0 1.36 0 0 Z " fill="#9A632C" transform="translate(135,382)"/>
<path d="M0 0 C2.64 0.33 5.28 0.66 8 1 C8.66 2.65 9.32 4.3 10 6 C10.33 5.34 10.66 4.68 11 4 C13.38 3.88 13.38 3.88 16 4 C18 6 18 6 18 9 C23.44 9.5 23.44 9.5 29 10 C29 10.33 29 10.66 29 11 C19.89 11.59 12.57 11.53 5 6 C3.03 4.09 1.58 2.27 0 0 Z " fill="#C5C7C7" transform="translate(380,415)"/>
<path d="M0 0 C0.33 0.66 0.66 1.32 1 2 C-1.23 5.36 -3.46 8.71 -5.69 12.06 C-6.31 13.01 -6.94 13.95 -7.58 14.92 C-10.97 20.01 -14.41 25.05 -18 30 C-18.33 29.34 -18.66 28.68 -19 28 C-18.57 27.43 -18.13 26.86 -17.69 26.28 C-14.06 21.25 -12.21 18.22 -13 12 C-11.35 12.33 -9.7 12.66 -8 13 C-8 11.35 -8 9.7 -8 8 C-8.66 7.67 -9.32 7.34 -10 7 C-9.34 5.68 -8.68 4.36 -8 3 C-7.01 3 -6.02 3 -5 3 C-5 2.34 -5 1.68 -5 1 C-4.34 1.33 -3.68 1.66 -3 2 C-3.33 2.66 -3.66 3.32 -4 4 C-3.34 4 -2.68 4 -2 4 C-1.34 2.68 -0.68 1.36 0 0 Z " fill="#96521B" transform="translate(215,331)"/>
<path d="M0 0 C3.78 3.45 6.45 7.38 9.25 11.62 C9.71 12.31 10.17 12.99 10.64 13.69 C14 18.75 14 18.75 14 21 C13.01 21 12.02 21 11 21 C10.67 21.99 10.34 22.98 10 24 C9.34 24 8.68 24 8 24 C7.88 23.32 7.75 22.64 7.62 21.94 C6.37 15.04 6.37 15.04 2.38 9.5 C0 7 0 7 -0.31 3.19 C-0.21 2.14 -0.11 1.08 0 0 Z " fill="#F3F3F2" transform="translate(177,352)"/>
<path d="M0 0 C4.03 3.75 6.97 7.69 9.94 12.31 C13.45 17.69 17.06 22.92 21 28 C20.67 28.66 20.34 29.32 20 30 C18 28.69 18 28.69 16 27 C16 26.01 16 25.02 16 24 C15.38 23.96 14.76 23.92 14.12 23.88 C13.07 23.44 13.07 23.44 12 23 C10.75 19.94 10.75 19.94 10 17 C9.01 17 8.02 17 7 17 C6.9 16.37 6.8 15.75 6.7 15.1 C6.55 14.28 6.4 13.47 6.25 12.62 C6.11 11.81 5.97 11 5.83 10.16 C4.76 7.38 3.62 7.21 1 6 C0.25 2.88 0.25 2.88 0 0 Z " fill="#976231" transform="translate(84,309)"/>
<path d="M0 0 C4.29 3.79 7.15 8.5 10.25 13.25 C10.8 14.09 11.36 14.93 11.93 15.8 C13.29 17.86 14.65 19.93 16 22 C15.67 22.66 15.34 23.32 15 24 C13.02 23.34 11.04 22.68 9 22 C9.33 21.01 9.66 20.02 10 19 C9.34 19 8.68 19 8 19 C7.67 17.35 7.34 15.7 7 14 C6.34 14 5.68 14 5 14 C4.67 13.34 4.34 12.68 4 12 C3.01 12.99 2.02 13.98 1 15 C0.92 11.48 0.96 8.38 2 5 C1.01 5 0.02 5 -1 5 C-0.67 3.35 -0.34 1.7 0 0 Z " fill="#D1D1D0" transform="translate(145,305)"/>
<path d="M0 0 C-1.49 4.17 -3.55 7.63 -6 11.31 C-6.7 12.38 -7.4 13.45 -8.12 14.55 C-9.05 15.76 -9.05 15.76 -10 17 C-10.66 17 -11.32 17 -12 17 C-12.1 17.56 -12.21 18.12 -12.31 18.7 C-13.13 21.44 -14.4 23.39 -16 25.75 C-16.54 26.55 -17.07 27.35 -17.62 28.17 C-18.08 28.78 -18.53 29.38 -19 30 C-19.33 30 -19.66 30 -20 30 C-20 28.35 -20 26.7 -20 25 C-19.34 24.67 -18.68 24.34 -18 24 C-17.27 22.02 -16.6 20.02 -16 18 C-15.01 18.33 -14.02 18.66 -13 19 C-13 17.02 -13 15.04 -13 13 C-12.34 13 -11.68 13 -11 13 C-10.67 12.01 -10.34 11.02 -10 10 C-9.01 10 -8.02 10 -7 10 C-6.89 9.36 -6.78 8.72 -6.67 8.07 C-6.43 6.83 -6.43 6.83 -6.19 5.56 C-6.04 4.74 -5.89 3.92 -5.73 3.07 C-5.49 2.38 -5.25 1.7 -5 1 C-2 0 -2 0 0 0 Z " fill="#939493" transform="translate(240,374)"/>
<path d="M0 0 C1.32 0 2.64 0 4 0 C4.1 0.64 4.21 1.28 4.31 1.94 C4.54 2.62 4.77 3.3 5 4 C5.99 4.33 6.98 4.66 8 5 C8.99 6.49 8.99 6.49 10 8 C10.66 7.67 11.32 7.34 12 7 C13.56 8.75 13.56 8.75 15 11 C14.69 13.25 14.69 13.25 14 15 C14.66 15 15.32 15 16 15 C15.01 17.48 15.01 17.48 14 20 C10.2 16.54 7.54 12.58 4.75 8.31 C4.29 7.62 3.83 6.93 3.36 6.22 C0 1.14 0 1.14 0 0 Z " fill="#D2D2D1" transform="translate(88,298)"/>
<path d="M0 0 C2.31 0 4.62 0 7 0 C7 1.65 7 3.3 7 5 C6.01 5.5 6.01 5.5 5 6 C6.32 6.33 7.64 6.66 9 7 C9 7.66 9 8.32 9 9 C9.93 8.81 10.86 8.63 11.81 8.44 C15 8 15 8 18 9 C18 9.66 18 10.32 18 11 C17.01 11 16.02 11 15 11 C15.99 11.66 16.98 12.32 18 13 C17.67 13.33 17.34 13.66 17 14 C18.98 14.66 20.96 15.32 23 16 C18.68 17.48 16.3 16.26 12.32 14.38 C7.36 11.43 3.07 6.87 0 2 C0 1.34 0 0.68 0 0 Z " fill="#C3C5C5" transform="translate(165,408)"/>
<path d="M0 0 C4.15 0.54 6.42 1.79 9.62 4.44 C12.05 6.42 14.39 8.26 17 10 C16.67 10.66 16.34 11.32 16 12 C15.34 12 14.68 12 14 12 C14 11.34 14 10.68 14 10 C12.35 10.66 10.7 11.32 9 12 C8.67 11.34 8.34 10.68 8 10 C7.03 9.79 6.06 9.59 5.06 9.38 C2 8 2 8 1.16 6.09 C0.68 4.08 0.33 2.04 0 0 Z " fill="#E5E5E4" transform="translate(280,277)"/>
<path d="M0 0 C0.33 0 0.66 0 1 0 C2.82 21.28 2.82 21.28 -0.41 26.1 C-1.87 27.83 -3.36 29.44 -5 31 C-5.66 30.67 -6.32 30.34 -7 30 C-7 28.35 -7 26.7 -7 25 C-6.01 24.67 -5.02 24.34 -4 24 C-3.67 23.34 -3.34 22.68 -3 22 C-2.01 21.67 -1.02 21.34 0 21 C-0.33 20.01 -0.66 19.02 -1 18 C-1.99 18 -2.98 18 -4 18 C-3.53 17.26 -3.05 16.51 -2.56 15.75 C-0.08 10.9 -0.25 5.35 0 0 Z " fill="#F9F9F9" transform="translate(421,392)"/>
<path d="M0 0 C6.93 0.5 6.93 0.5 14 1 C14 0.67 14 0.34 14 0 C16.08 -0.08 18.17 -0.14 20.25 -0.19 C21.99 -0.24 21.99 -0.24 23.77 -0.29 C27.22 0.02 28.52 0.66 31 3 C20.88 5.43 9.64 4.89 0 1 C0 0.67 0 0.34 0 0 Z " fill="#C7772A" transform="translate(173,438)"/>
<path d="M0 0 C0.66 0 1.32 0 2 0 C3.62 2.5 3.62 2.5 5 5 C5.66 4.67 6.32 4.34 7 4 C8.33 7.33 9.67 10.67 11 14 C11.36 14.78 11.72 15.57 12.09 16.38 C13.25 19.71 13.43 22.79 13.62 26.31 C13.7 27.57 13.77 28.82 13.85 30.11 C13.9 31.07 13.95 32.02 14 33 C13.67 33 13.34 33 13 33 C12.7 31.89 12.39 30.78 12.08 29.63 C9.75 21.29 7.26 13.59 3 6 C2.39 4.8 1.78 3.59 1.19 2.38 C0.8 1.59 0.4 0.81 0 0 Z " fill="#8F5F36" transform="translate(605,306)"/>
<path d="M0 0 C0 2.87 -0.12 5.7 -0.31 8.56 C-0.37 9.53 -0.43 10.5 -0.49 11.5 C-1 14 -1 14 -4 16 C-4.33 15.01 -4.66 14.02 -5 13 C-5.99 13.5 -5.99 13.5 -7 14 C-7.73 16.31 -8.4 18.65 -9 21 C-10.32 21 -11.64 21 -13 21 C-11.38 16.23 -8.75 12.38 -5.94 8.25 C-5.48 7.57 -5.02 6.88 -4.54 6.18 C-1.17 1.17 -1.17 1.17 0 0 Z " fill="#F8F8F8" transform="translate(217,344)"/>
<path d="M0 0 C0.33 1.32 0.66 2.64 1 4 C1.99 3.67 2.98 3.34 4 3 C4.33 3.66 4.66 4.32 5 5 C6.65 3.35 8.3 1.7 10 0 C8.44 4.67 5.92 8.09 3 12 C1.29 10.37 0.07 9.13 -1 7 C-4.12 8.63 -4.12 8.63 -4.69 11.12 C-4.79 11.74 -4.89 12.36 -5 13 C-5.99 13 -6.98 13 -8 13 C-6.41 7.91 -3.26 4.13 0 0 Z " fill="#AE5F1F" transform="translate(222,307)"/>
<path d="M0 0 C1.32 0.33 2.64 0.66 4 1 C-1.43 6.13 -7.17 10.85 -14 14 C-14.66 13.67 -15.32 13.34 -16 13 C-14.68 11.02 -13.36 9.04 -12 7 C-10.68 7.33 -9.36 7.66 -8 8 C-8.33 7.01 -8.66 6.02 -9 5 C-8.01 4.67 -7.02 4.34 -6 4 C-5.34 3.01 -4.68 2.02 -4 1 C-2.68 1.33 -1.36 1.66 0 2 C0 1.34 0 0.68 0 0 Z " fill="#B76420" transform="translate(596,415)"/>
<path d="M0 0 C3.79 1.59 6.38 4.02 9.38 6.81 C13.17 10.32 16.98 13.74 21 17 C19.68 17.33 18.36 17.66 17 18 C16.67 16.68 16.34 15.36 16 14 C15.01 14.33 14.02 14.66 13 15 C13 14.34 13 13.68 13 13 C12.01 13.33 11.02 13.66 10 14 C9.01 13.34 8.02 12.68 7 12 C7.33 10.35 7.66 8.7 8 7 C7.01 7 6.02 7 5 7 C4.34 6.34 3.68 5.68 3 5 C2.01 4.67 1.02 4.34 0 4 C0 2.68 0 1.36 0 0 Z " fill="#DCE0E1" transform="translate(297,289)"/>
<path d="M0 0 C0.99 0 1.98 0 3 0 C2.67 20.46 2.34 40.92 2 62 C1.67 62 1.34 62 1 62 C0.67 41.54 0.34 21.08 0 0 Z " fill="#727272" transform="translate(243,305)"/>
<path d="M0 0 C3.93 3.7 6.95 7.55 10 12 C9.67 12.66 9.34 13.32 9 14 C8.34 14 7.68 14 7 14 C6.67 13.34 6.34 12.68 6 12 C4.36 10.64 2.69 9.3 1 8 C0.67 8.66 0.34 9.32 0 10 C-0.33 10.33 -0.66 10.66 -1 11 C-2.32 9.68 -3.64 8.36 -5 7 C-4.34 6.67 -3.68 6.34 -3 6 C-2.34 6.33 -1.68 6.66 -1 7 C-0.67 4.69 -0.34 2.38 0 0 Z " fill="#BA6D2A" transform="translate(606,295)"/>
<path d="M0 0 C-0.99 0.66 -1.98 1.32 -3 2 C-3 2.66 -3 3.32 -3 4 C-4.32 3.67 -5.64 3.34 -7 3 C-7.43 4.18 -7.43 4.18 -7.88 5.38 C-9 8 -9 8 -11 10 C-13.32 10.4 -15.66 10.74 -18 11 C-17.88 9.25 -17.88 9.25 -17 7 C-14.25 4.94 -14.25 4.94 -11 3 C-10.13 2.44 -9.27 1.89 -8.38 1.31 C-3.15 -1.57 -3.15 -1.57 0 0 Z " fill="#EC8D39" transform="translate(591,419)"/>
<path d="M0 0 C0.99 0.33 1.98 0.66 3 1 C3 1.99 3 2.98 3 4 C3.99 4 4.98 4 6 4 C6 4.66 6 5.32 6 6 C6.66 6 7.32 6 8 6 C8.66 7.98 9.32 9.96 10 12 C10.99 12 11.98 12 13 12 C13.2 14.05 13.39 16.1 13.59 18.15 C13.72 18.76 13.86 19.37 14 20 C14.66 20.33 15.32 20.66 16 21 C14.21 20.82 14.21 20.82 12 20 C10.25 17.74 10.25 17.74 8.56 14.88 C6.5 11.46 4.44 8.14 2.06 4.94 C0 2 0 2 0 0 Z " fill="#925725" transform="translate(180,341)"/>
<path d="M0 0 C0.66 0 1.32 0 2 0 C2 1.65 2 3.3 2 5 C1.01 5 0.02 5 -1 5 C-1.66 6.65 -2.32 8.3 -3 10 C-3.66 10 -4.32 10 -5 10 C-5 10.66 -5 11.32 -5 12 C-4.34 12.33 -3.68 12.66 -3 13 C-3.99 13.5 -3.99 13.5 -5 14 C-5.65 16.02 -5.65 16.02 -6 18 C-6.99 18 -7.98 18 -9 18 C-9 18.66 -9 19.32 -9 20 C-10.32 20.33 -11.64 20.66 -13 21 C-11.34 16 -8.47 11.98 -5.5 7.69 C-5 6.95 -4.5 6.21 -3.99 5.44 C-3.27 4.39 -3.27 4.39 -2.53 3.32 C-2.09 2.69 -1.66 2.05 -1.21 1.39 C-0.81 0.93 -0.41 0.47 0 0 Z " fill="#C2C3C2" transform="translate(242,307)"/>
<path d="M0 0 C3.9 1.62 6.71 4.28 9.75 7.12 C10.26 7.59 10.76 8.06 11.29 8.54 C12.53 9.69 13.76 10.85 15 12 C12.15 12 9.78 11.56 7 11 C6.01 11 5.02 11 4 11 C5.98 13.97 5.98 13.97 8 17 C4.2 15.51 2.39 13.24 0 10 C1.98 10 3.96 10 6 10 C6 9.34 6 8.68 6 8 C5.01 8 4.02 8 3 8 C2.69 7.05 2.38 6.1 2.06 5.12 C1.13 2.14 1.13 2.14 0 0 Z " fill="#9A5D2B" transform="translate(360,411)"/>
<path d="M0 0 C1.32 0 2.64 0 4 0 C4.33 1.65 4.66 3.3 5 5 C3.68 5.99 2.36 6.98 1 8 C0.34 7.67 -0.32 7.34 -1 7 C-1.33 8.32 -1.66 9.64 -2 11 C-2.66 10.67 -3.32 10.34 -4 10 C-4 11.32 -4 12.64 -4 14 C-4.66 13.67 -5.32 13.34 -6 13 C-5.67 10.69 -5.34 8.38 -5 6 C-4.01 6 -3.02 6 -2 6 C-1.86 5.2 -1.71 4.39 -1.56 3.56 C-1 1 -1 1 0 0 Z " fill="#E08A3E" transform="translate(219,314)"/>
<path d="M0 0 C17.49 0 34.98 0 53 0 C53 0.33 53 0.66 53 1 C36.5 1.33 20 1.66 3 2 C3.33 3.65 3.66 5.3 4 7 C2 5.19 2 5.19 0 3 C0 2.01 0 1.02 0 0 Z " fill="#8F8F8F" transform="translate(75,278)"/>
<path d="M0 0 C2 1 4 2 6 3 C6 3.66 6 4.32 6 5 C6.57 5.26 7.14 5.51 7.73 5.77 C10.24 7.13 12.13 8.72 14.25 10.62 C14.96 11.26 15.66 11.89 16.39 12.54 C16.92 13.02 17.45 13.5 18 14 C15.31 14 13.52 13.86 11 13 C10 12 9 11 8 10 C6.45 9.29 6.45 9.29 4.88 8.56 C2 7 2 7 1.25 4.88 C1.17 4.26 1.08 3.64 1 3 C0.34 2.67 -0.32 2.34 -1 2 C-0.67 1.34 -0.34 0.68 0 0 Z " fill="#BE7D3F" transform="translate(309,367)"/>
<path d="M0 0 C0 3.63 -0.95 4.75 -3 7.69 C-3.56 8.5 -4.11 9.3 -4.69 10.14 C-5.12 10.75 -5.55 11.37 -6 12 C-6.33 11.34 -6.66 10.68 -7 10 C-8.98 10.99 -8.98 10.99 -11 12 C-11 10.35 -11 8.7 -11 7 C-11.66 7 -12.32 7 -13 7 C-11.25 2.12 -11.25 2.12 -9 1 C-9.02 2.13 -9.04 3.27 -9.06 4.44 C-9.42 7.82 -9.42 7.82 -8 9 C-8 7.68 -8 6.36 -8 5 C-7.34 5 -6.68 5 -6 5 C-5.67 4.01 -5.34 3.02 -5 2 C-3 1.38 -3 1.38 -1 1 C-0.67 0.67 -0.34 0.34 0 0 Z " fill="#BB712F" transform="translate(223,319)"/>
<path d="M0 0 C2.97 0.5 2.97 0.5 6 1 C6 1.66 6 2.32 6 3 C7.98 3.66 9.96 4.32 12 5 C12 5.99 12 6.98 12 8 C11.34 8 10.68 8 10 8 C10 8.66 10 9.32 10 10 C10.66 10 11.32 10 12 10 C12 10.66 12 11.32 12 12 C12.66 12.33 13.32 12.66 14 13 C12.68 13 11.36 13 10 13 C9.79 12.05 9.59 11.1 9.38 10.12 C8.92 9.09 8.47 8.06 8 7 C6.01 6.3 4.01 5.63 2 5 C0.62 2.38 0.62 2.38 0 0 Z " fill="#ED933B" transform="translate(294,270)"/>
<path d="M0 0 C1.88 0.19 1.88 0.19 4 1 C4.69 2.66 5.35 4.33 6 6 C8.52 8.77 8.52 8.77 11 11 C10.67 11.99 10.34 12.98 10 14 C10.99 14 11.98 14 13 14 C13 14.99 13 15.98 13 17 C13.66 17 14.32 17 15 17 C15.33 18.98 15.66 20.96 16 23 C14.62 21.71 13.29 20.37 12 19 C12 18.34 12 17.68 12 17 C11.34 17 10.68 17 10 17 C8.2 14.57 6.52 12.15 4.88 9.62 C4.17 8.58 4.17 8.58 3.46 7.51 C0 2.27 0 2.27 0 0 Z " fill="#A6A7A7" transform="translate(136,366)"/>
<path d="M0 0 C2.31 -0.19 2.31 -0.19 5 0 C6.69 1.44 6.69 1.44 8 3 C8.66 3.33 9.32 3.66 10 4 C12 6 12 6 12.12 9.62 C12.08 10.74 12.04 11.85 12 13 C11.67 12.34 11.34 11.68 11 11 C10.22 10.9 9.43 10.79 8.62 10.69 C6 10 6 10 4.19 7.56 C3 5 3 5 3 3 C2.34 3 1.68 3 1 3 C0.67 2.01 0.34 1.02 0 0 Z " fill="#F0943A" transform="translate(604,303)"/>
<path d="M0 0 C4.07 3.71 7.09 8.08 10.25 12.56 C10.8 13.33 11.36 14.1 11.93 14.89 C12.71 16 12.71 16 13.52 17.13 C13.99 17.8 14.47 18.47 14.96 19.16 C16 21 16 21 16 24 C12.51 21.49 10.87 20.2 10 16 C9.01 15.67 8.02 15.34 7 15 C3.3 10.5 1.29 5.62 0 0 Z " fill="#8C592E" transform="translate(67,285)"/>
<path d="M0 0 C0.99 0.33 1.98 0.66 3 1 C3 1.66 3 2.32 3 3 C3.66 3 4.32 3 5 3 C5.33 4.65 5.66 6.3 6 8 C6.99 8 7.98 8 9 8 C11.52 11.26 13.11 14 14 18 C14.66 18.33 15.32 18.66 16 19 C16.62 21.56 16.62 21.56 17 24 C12.73 20.03 9.51 15.7 6.25 10.88 C5.76 10.16 5.26 9.44 4.75 8.71 C2.76 5.78 1.13 3.38 0 0 Z " fill="#925A25" transform="translate(111,361)"/>
<path d="M0 0 C2.31 0 4.62 0 7 0 C5.68 0.99 4.36 1.98 3 3 C3.65 3.84 4.3 4.69 4.97 5.55 C5.81 6.66 6.66 7.77 7.5 8.88 C7.93 9.43 8.36 9.99 8.8 10.56 C12 14.77 12 14.77 12 17 C11.01 17.33 10.02 17.66 9 18 C8.34 16.02 7.68 14.04 7 12 C6.34 12 5.68 12 5 12 C1.91 8.07 0.47 4.98 0 0 Z " fill="#94622F" transform="translate(55,268)"/>
<path d="M0 0 C0.33 0 0.66 0 1 0 C3.97 13.23 3.22 29.13 -1 42 C-1.33 42 -1.66 42 -2 42 C-2.05 40.6 -2.09 39.21 -2.12 37.81 C-2.15 37.04 -2.17 36.26 -2.2 35.46 C-2 33 -2 33 -1 30.76 C0.19 27.47 0.23 24.88 0.2 21.39 C0.19 20.14 0.18 18.89 0.18 17.61 C0.15 15.67 0.15 15.67 0.12 13.69 C0.12 12.37 0.11 11.06 0.1 9.71 C0.07 6.47 0.04 3.24 0 0 Z " fill="#84400F" transform="translate(626,334)"/>
<path d="M0 0 C2.33 2.84 4.58 5.73 6.75 8.69 C7.18 9.27 7.61 9.85 8.05 10.45 C9 12 9 12 9 14 C8.34 14 7.68 14 7 14 C6.67 14.66 6.34 15.32 6 16 C6 15.34 6 14.68 6 14 C5.34 14 4.68 14 4 14 C3.71 13.36 3.42 12.72 3.12 12.06 C2.17 9.85 2.17 9.85 0 9 C0 6.03 0 3.06 0 0 Z " fill="#C3C3C2" transform="translate(128,279)"/>
<path d="M0 0 C2.48 0.99 2.48 0.99 5 2 C5 2.99 5 3.98 5 5 C5.99 5.33 6.98 5.66 8 6 C7.67 12.93 7.34 19.86 7 27 C6.67 27 6.34 27 6 27 C5.96 26.08 5.93 25.16 5.89 24.22 C5.51 17.18 4.92 11.43 2 5 C1.41 3.51 1.41 3.51 0.81 2 C0.54 1.34 0.28 0.68 0 0 Z " fill="#AEAEAE" transform="translate(560,330)"/>
<path d="M0 0 C6.73 3.25 6.73 3.25 8.25 7.5 C9 11 9 11 8 13 C4.64 11.56 2.41 9.75 0 7 C0 5 0 5 2 3 C1.34 2.01 0.68 1.02 0 0 Z " fill="#EA9444" transform="translate(330,387)"/>
<path d="M0 0 C7.75 -0.12 7.75 -0.12 10 1 C12.55 1.07 15.07 1.09 17.62 1.06 C18.33 1.06 19.04 1.05 19.77 1.05 C21.51 1.04 23.26 1.02 25 1 C25 1.33 25 1.66 25 2 C23.64 2.04 23.64 2.04 22.25 2.08 C15.39 2.4 9.79 2.93 3.67 6.16 C2 7 2 7 0 7 C0.33 5.68 0.66 4.36 1 3 C1.99 3 2.98 3 4 3 C4 2.34 4 1.68 4 1 C2.68 0.67 1.36 0.34 0 0 Z " fill="#A75F20" transform="translate(256,266)"/>
<path d="M0 0 C3.62 4.44 5.33 8.21 5 14 C3.68 14 2.36 14 1 14 C0.67 12.35 0.34 10.7 0 9 C-0.66 9 -1.32 9 -2 9 C-2 8.34 -2 7.68 -2 7 C-1.34 7 -0.68 7 0 7 C0 4.69 0 2.38 0 0 Z " fill="#F6F6F6" transform="translate(602,318)"/>
<path d="M0 0 C0.33 0.66 0.66 1.32 1 2 C0.36 2.89 -0.28 3.77 -0.94 4.69 C-2.81 7.69 -3.59 9.55 -4 13 C-4.99 13 -5.98 13 -7 13 C-7.1 13.78 -7.21 14.57 -7.31 15.38 C-8 18 -8 18 -11 20 C-11.33 20.99 -11.66 21.98 -12 23 C-12.66 23 -13.32 23 -14 23 C-12.72 19.55 -11.24 16.62 -9.18 13.57 C-8.64 12.78 -8.11 11.98 -7.56 11.16 C-7 10.35 -6.45 9.53 -5.88 8.69 C-5.31 7.85 -4.75 7.02 -4.17 6.15 C-2.78 4.1 -1.39 2.05 0 0 Z " fill="#603A1E" transform="translate(238,391)"/>
<path d="M0 0 C2.31 0 4.62 0 7 0 C7.66 1.32 8.32 2.64 9 4 C8.01 4 7.02 4 6 4 C6.33 4.99 6.66 5.98 7 7 C6.67 7.99 6.34 8.98 6 10 C6.99 10.33 7.98 10.66 9 11 C9 11.99 9 12.98 9 14 C4.71 10.27 3.34 7.47 2 2 C1.34 1.34 0.68 0.68 0 0 Z " fill="#F9FAFA" transform="translate(76,279)"/>
<path d="M0 0 C0 3.52 -0.7 4.44 -3 7 C-3.66 7 -4.32 7 -5 7 C-5.27 7.64 -5.54 8.28 -5.81 8.94 C-7 11 -7 11 -10 12 C-10.33 11.01 -10.66 10.02 -11 9 C-10.34 8.34 -9.68 7.68 -9 7 C-8.36 4.93 -8.36 4.93 -8 3 C-6.87 2.69 -5.73 2.38 -4.56 2.06 C-1.21 1.37 -1.21 1.37 0 0 Z " fill="#A2A3A1" transform="translate(597,391)"/>
<path d="M0 0 C1 3 1 3 1 5 C0.34 5 -0.32 5 -1 5 C-2.88 8.27 -3.49 11.28 -4 15 C-5.98 15.33 -7.96 15.66 -10 16 C-8.56 11.85 -6.5 8.7 -3.88 5.19 C-3.15 4.21 -2.43 3.24 -1.68 2.23 C-0.85 1.13 -0.85 1.13 0 0 Z " fill="#999898" transform="translate(228,328)"/>
<path d="M0 0 C0.66 0 1.32 0 2 0 C2 0.66 2 1.32 2 2 C2.99 1.67 3.98 1.34 5 1 C6.32 3.97 7.64 6.94 9 10 C9.66 10 10.32 10 11 10 C11.33 12.31 11.66 14.62 12 17 C6.85 12.48 3.43 6.9 0 1 C0 0.67 0 0.34 0 0 Z " fill="#A3662C" transform="translate(82,320)"/>
<path d="M0 0 C1.79 0.06 3.58 0.15 5.38 0.25 C6.87 0.32 6.87 0.32 8.4 0.39 C11 1 11 1 12.35 2.86 C13 5 13 5 13 8 C8.25 6.12 8.25 6.12 6 5 C6 4.34 6 3.68 6 3 C3.03 2.5 3.03 2.5 0 2 C0 1.34 0 0.68 0 0 Z " fill="#EE913A" transform="translate(569,274)"/>
<path d="M0 0 C-3.73 3.73 -9.49 4.82 -14.66 5.19 C-16.77 5.19 -18.89 5.1 -21 5 C-20.34 4.67 -19.68 4.34 -19 4 C-19 3.34 -19 2.68 -19 2 C-12.38 0.75 -12.38 0.75 -9 3 C-9 2.34 -9 1.68 -9 1 C-5.8 -0.07 -3.34 -0.07 0 0 Z " fill="#E0E7E5" transform="translate(565,417)"/>
<path d="M0 0 C1 2 1 2 0.21 4.71 C-3.66 14.48 -3.66 14.48 -7.31 16.25 C-8.2 16.5 -9.09 16.75 -10 17 C-8.51 12.78 -6.39 9.38 -3.88 5.69 C-3.15 4.62 -2.43 3.55 -1.68 2.45 C-0.85 1.24 -0.85 1.24 0 0 Z " fill="#98663A" transform="translate(233,290)"/>
<path d="M0 0 C0.33 0 0.66 0 1 0 C1.18 5.25 0.96 9.06 -1 14 C-1.5 15.37 -2 16.75 -2.5 18.12 C-3.52 20.84 -4.62 23.45 -6 26 C-6.66 26 -7.32 26 -8 26 C-6.93 22.77 -5.84 19.54 -4.75 16.31 C-4.31 15.02 -3.87 13.73 -3.44 12.44 C-3.22 11.79 -3 11.14 -2.77 10.48 C-1.6 7.01 -0.62 3.61 0 0 Z " fill="#664D31" transform="translate(618,364)"/>
<path d="M0 0 C2.97 2.83 5.4 5.76 7.75 9.12 C8.36 9.99 8.98 10.86 9.61 11.76 C11 14 11 14 11 16 C9.68 15.67 8.36 15.34 7 15 C6.91 13.82 6.91 13.82 6.81 12.62 C6.54 11.76 6.28 10.89 6 10 C3.52 8.63 3.52 8.63 1 8 C0.67 5.36 0.34 2.72 0 0 Z " fill="#979797" transform="translate(166,336)"/>
<path d="M0 0 C0.64 0.39 1.28 0.78 1.94 1.19 C5.91 3.54 9.95 5.77 14 8 C14 8.33 14 8.66 14 9 C10.7 8.67 7.4 8.34 4 8 C4 7.34 4 6.68 4 6 C2.68 5.34 1.36 4.68 0 4 C0 2.68 0 1.36 0 0 Z " fill="#A56932" transform="translate(375,424)"/>
<path d="M0 0 C0.33 0.99 0.66 1.98 1 3 C0.01 3 -0.98 3 -2 3 C-1.01 4.98 -0.02 6.96 1 9 C-2.21 7.62 -4.05 6.08 -6.25 3.38 C-6.77 2.74 -7.29 2.11 -7.83 1.46 C-8.21 0.98 -8.6 0.5 -9 0 C-5.7 -0.83 -3.2 -1.37 0 0 Z " fill="#C6C8C8" transform="translate(319,353)"/>
<path d="M0 0 C0.14 0.62 0.29 1.24 0.44 1.88 C0.93 4.03 0.93 4.03 2 6 C4.71 6.31 7.34 6.51 10.06 6.62 C10.82 6.66 11.58 6.7 12.36 6.74 C14.24 6.84 16.12 6.92 18 7 C18 7.33 18 7.66 18 8 C7.61 8.5 7.61 8.5 -3 9 C-2.2 5.81 -1.26 3.02 0 0 Z " fill="#D2D2D2" transform="translate(430,415)"/>
<path d="M0 0 C3.26 3.02 5.62 6.26 8 10 C7.67 10.66 7.34 11.32 7 12 C2.25 11.12 2.25 11.12 0 10 C0.33 9.01 0.66 8.02 1 7 C0.67 6.34 0.34 5.68 0 5 C-0.33 4.34 -0.66 3.68 -1 3 C-0.67 2.01 -0.34 1.02 0 0 Z " fill="#C4C3C3" transform="translate(137,293)"/>
<path d="M0 0 C0 0.33 0 0.66 0 1 C-0.76 1.12 -1.52 1.24 -2.3 1.37 C-3.79 1.62 -3.79 1.62 -5.31 1.88 C-6.3 2.04 -7.28 2.2 -8.3 2.37 C-12.25 3.29 -13.75 4.63 -16 8 C-16 7.34 -16 6.68 -16 6 C-19.12 7.31 -19.12 7.31 -21 10 C-21.66 10 -22.32 10 -23 10 C-21.49 5.76 -18.81 4.2 -15 2 C-9.97 -0.24 -5.4 -0.22 0 0 Z " fill="#9C9B9B" transform="translate(279,276)"/>
<path d="M0 0 C0.66 0 1.32 0 2 0 C2 0.66 2 1.32 2 2 C3.32 2.33 4.64 2.66 6 3 C6.33 4.65 6.66 6.3 7 8 C7.99 8.33 8.98 8.66 10 9 C10.73 10.85 10.73 10.85 11.19 13.06 C11.35 13.8 11.5 14.53 11.67 15.29 C11.78 15.85 11.89 16.42 12 17 C11.01 16.34 10.02 15.68 9 15 C9 14.01 9 13.02 9 12 C8.34 12 7.68 12 7 12 C5.27 9.63 5.27 9.63 3.38 6.56 C2.74 5.55 2.11 4.54 1.46 3.5 C0 1 0 1 0 0 Z " fill="#747474" transform="translate(153,391)"/>
<path d="M0 0 C2.48 0.99 2.48 0.99 5 2 C5 2.66 5 3.32 5 4 C6.32 4.33 7.64 4.66 9 5 C8.34 6.32 7.68 7.64 7 9 C6.34 9 5.68 9 5 9 C5 8.34 5 7.68 5 7 C4.38 6.73 3.76 6.46 3.12 6.19 C1 5 1 5 -1 2 C-0.67 1.34 -0.34 0.68 0 0 Z " fill="#D3D3D3" transform="translate(339,376)"/>
<path d="M0 0 C0.66 0 1.32 0 2 0 C3.44 1.78 4.81 3.63 6.12 5.5 C7.21 7.03 7.21 7.03 8.32 8.59 C8.87 9.39 9.43 10.18 10 11 C9.67 11.66 9.34 12.32 9 13 C7.35 12.67 5.7 12.34 4 12 C3 7.25 3 7.25 3 5 C2.01 4.67 1.02 4.34 0 4 C0 2.68 0 1.36 0 0 Z " fill="#A9A8A7" transform="translate(592,305)"/>
<path d="M0 0 C1.32 0 2.64 0 4 0 C6.04 2.08 6.04 2.08 8.06 4.81 C11.3 9.11 11.3 9.11 15 13 C14.67 13.66 14.34 14.32 14 15 C13.48 14.47 12.96 13.94 12.43 13.39 C9.4 10.32 6.45 7.36 3.06 4.69 C1 3 1 3 0 0 Z " fill="#916231" transform="translate(586,286)"/>
<path d="M0 0 C0.66 0 1.32 0 2 0 C2 0.66 2 1.32 2 2 C3.98 2 5.96 2 8 2 C8.33 5.63 8.66 9.26 9 13 C4.77 9.39 2.53 4.85 0 0 Z " fill="#B4B2B4" transform="translate(102,318)"/>
<path d="M0 0 C0.66 0.33 1.32 0.66 2 1 C1.67 1.66 1.34 2.32 1 3 C1.66 3 2.32 3 3 3 C1.25 7.88 1.25 7.88 -1 9 C-1.33 8.34 -1.66 7.68 -2 7 C-2.99 7.33 -3.98 7.66 -5 8 C-4.65 4.76 -4.44 3.38 -1.94 1.19 C-0.98 0.6 -0.98 0.6 0 0 Z " fill="#E38F42" transform="translate(227,304)"/>
<path d="M0 0 C0.5 0.39 0.99 0.77 1.5 1.17 C4.86 3.75 8.17 6.19 11.88 8.25 C15 10 15 10 17 12 C15.02 12 13.04 12 11 12 C11 11.34 11 10.68 11 10 C10.01 10 9.02 10 8 10 C8 9.34 8 8.68 8 8 C6.86 7.91 6.86 7.91 5.69 7.81 C3 7 3 7 1.19 4.56 C0 2 0 2 0 0 Z " fill="#7C562E" transform="translate(163,421)"/>
<path d="M0 0 C3.69 3.39 5.97 6.42 8 11 C8.33 11.66 8.66 12.32 9 13 C6.69 12.81 6.69 12.81 4 12 C0.95 8.3 0.46 4.69 0 0 Z " fill="#DC8E44" transform="translate(157,413)"/>
<path d="M0 0 C4.42 0.51 6.78 1.95 10 5 C11.52 7.29 12.77 9.55 14 12 C11.05 10.63 8.48 9.12 6 7 C6 6.34 6 5.68 6 5 C5.38 4.73 4.76 4.46 4.12 4.19 C2 3 2 3 0 0 Z " fill="#A1682D" transform="translate(344,407)"/>
<path d="M0 0 C1.98 0.99 1.98 0.99 4 2 C4 2.66 4 3.32 4 4 C4.58 4.27 5.17 4.53 5.77 4.8 C8.06 6.03 9.8 7.4 11.75 9.12 C12.67 9.93 12.67 9.93 13.61 10.76 C14.07 11.17 14.53 11.58 15 12 C11.33 12 10.84 11.21 8 9 C6.77 8.37 5.54 7.74 4.31 7.12 C1 5 1 5 0.06 2.25 C0.04 1.51 0.02 0.76 0 0 Z " fill="#8C572A" transform="translate(343,396)"/>
<path d="M0 0 C-0.33 1.32 -0.66 2.64 -1 4 C-3.48 3.5 -3.48 3.5 -6 3 C-6.33 3.66 -6.66 4.32 -7 5 C-13.27 4.67 -19.54 4.34 -26 4 C-26 3.67 -26 3.34 -26 3 C-24.85 2.95 -23.71 2.9 -22.53 2.85 C-21 2.78 -19.47 2.7 -17.94 2.62 C-17.19 2.59 -16.43 2.56 -15.66 2.53 C-10.36 2.26 -5.12 0 0 0 Z " fill="#848484" transform="translate(545,383)"/>
<path d="M0 0 C0.77 0.71 0.77 0.71 1.56 1.44 C0.57 1.77 -0.42 2.1 -1.44 2.44 C-1.44 1.78 -1.44 1.12 -1.44 0.44 C-5.04 1.14 -5.04 1.14 -8.56 2.12 C-10.44 2.44 -10.44 2.44 -13.44 0.44 C-13.44 -0.22 -13.44 -0.88 -13.44 -1.56 C-8.79 -3.24 -4.14 -2.65 0 0 Z " fill="#D3D6D4" transform="translate(569.4375,287.5625)"/>
<path d="M0 0 C4.54 4.14 7.72 8.82 11 14 C10.67 14.66 10.34 15.32 10 16 C7.5 13.69 7.5 13.69 5 11 C5 10.01 5 9.02 5 8 C4.36 7.79 3.72 7.59 3.06 7.38 C1 6 1 6 0.25 2.88 C0.17 1.93 0.08 0.98 0 0 Z " fill="#8B562A" transform="translate(124,366)"/>
<path d="M0 0 C0.99 0.33 1.98 0.66 3 1 C2.98 2.11 2.96 3.23 2.94 4.38 C2.74 7.83 2.74 7.83 4 10 C-0.27 8.42 -2.27 5.49 -5 2 C-3.68 2 -2.36 2 -1 2 C-0.67 2.33 -0.34 2.66 0 3 C0 2.01 0 1.02 0 0 Z " fill="#C5C6C6" transform="translate(325,360)"/>
<path d="M0 0 C3.26 3.02 5.62 6.26 8 10 C7.67 10.66 7.34 11.32 7 12 C5.19 11.81 5.19 11.81 3 11 C0.07 7.34 -0.32 4.62 0 0 Z " fill="#A2A19B" transform="translate(177,352)"/>
<path d="M0 0 C1.75 0.06 1.75 0.06 4 1 C5.5 3.34 6.77 5.53 8 8 C8.43 8.76 8.87 9.53 9.31 10.31 C9.65 11.15 9.65 11.15 10 12 C9.67 12.66 9.34 13.32 9 14 C7.49 12.05 6 10.09 4.5 8.12 C4.07 7.57 3.64 7.01 3.2 6.44 C0 2.23 0 2.23 0 0 Z " fill="#AAAAAB" transform="translate(126,352)"/>
<path d="M0 0 C1.71 1.62 3.37 3.29 5 5 C5 5.66 5 6.32 5 7 C5.62 7.04 6.24 7.08 6.88 7.12 C9 8 9 8 10.19 10.81 C10.46 11.86 10.72 12.92 11 14 C11.21 14.78 11.41 15.57 11.62 16.38 C11.75 16.91 11.87 17.45 12 18 C8.7 14.92 6.24 11.63 3.75 7.88 C3.04 6.82 2.34 5.77 1.61 4.68 C0 2 0 2 0 0 Z " fill="#683F19" transform="translate(168,323)"/>
<path d="M0 0 C0.99 0.33 1.98 0.66 3 1 C1.69 4.94 0.08 7.23 -3 10 C-3.66 9.67 -4.32 9.34 -5 9 C-5 7.35 -5 5.7 -5 4 C-4.01 3.67 -3.02 3.34 -2 3 C-1.67 2.34 -1.34 1.68 -1 1 C-0.67 0.67 -0.34 0.34 0 0 Z " fill="#C2C2C2" transform="translate(419,413)"/>
<path d="M0 0 C0.99 0 1.98 0 3 0 C3.33 1.65 3.66 3.3 4 5 C4.99 5.33 5.98 5.66 7 6 C7 6.99 7 7.98 7 9 C7.99 9.33 8.98 9.66 10 10 C9.67 11.32 9.34 12.64 9 14 C7.87 12.61 6.74 11.21 5.62 9.81 C5 9.04 4.37 8.26 3.73 7.46 C2.02 5.03 0.98 2.79 0 0 Z " fill="#915827" transform="translate(140,402)"/>
<path d="M0 0 C1.24 3.58 0.75 6.34 0 10 C-0.66 10 -1.32 10 -2 10 C-1.72 10.93 -1.72 10.93 -1.44 11.88 C-1 14 -1 14 -2 16 C-4.56 16.62 -4.56 16.62 -7 17 C-6.02 14.36 -5.01 12.01 -3.5 9.62 C-1.72 6.52 -0.88 3.46 0 0 Z " fill="#999999" transform="translate(565,357)"/>
<path d="M0 0 C3.11 0.79 6.09 1.65 9 3 C10.38 5.44 10.38 5.44 11 8 C11.96 9.36 12.95 10.71 14 12 C10.87 10.62 8.8 9.02 6.44 6.56 C5.86 5.97 5.28 5.37 4.68 4.75 C3.85 3.89 3.85 3.89 3 3 C2 2 1 1 0 0 Z " fill="#B0B0B0" transform="translate(296,341)"/>
<path d="M0 0 C0.33 0.66 0.66 1.32 1 2 C1.99 2.33 2.98 2.66 4 3 C3.67 5.31 3.34 7.62 3 10 C0 9 0 9 -2 6 C-1.65 3.72 -1.03 2.07 0 0 Z " fill="#D7DBDA" transform="translate(124,342)"/>
<path d="M0 0 C0 3 0 3 -1.75 5.04 C-2.49 5.75 -3.24 6.46 -4 7.19 C-4.74 7.9 -5.49 8.62 -6.25 9.36 C-6.83 9.9 -7.4 10.44 -8 11 C-8.33 10.34 -8.66 9.68 -9 9 C-9.66 8.67 -10.32 8.34 -11 8 C-9.68 8 -8.36 8 -7 8 C-7 7.01 -7 6.02 -7 5 C-6.34 5 -5.68 5 -5 5 C-4.67 3.68 -4.34 2.36 -4 1 C-2.68 0.67 -1.36 0.34 0 0 Z " fill="#B3611C" transform="translate(609,404)"/>
<path d="M0 0 C-4.93 4.19 -7.79 5.55 -14.28 5.18 C-14.85 5.12 -15.41 5.06 -16 5 C-13.14 3.09 -10.65 2 -7.44 0.81 C-6.47 0.45 -5.5 0.08 -4.5 -0.29 C-2 -1 -2 -1 0 0 Z " fill="#895E3A" transform="translate(573,425)"/>
<path d="M0 0 C-1.56 4.67 -4.08 8.09 -7 12 C-8.35 9.3 -7.67 8.26 -6.75 5.44 C-6.37 4.23 -6.37 4.23 -5.98 3 C-5.66 2.34 -5.33 1.68 -5 1 C-2 0 -2 0 0 0 Z " fill="#8C8C8C" transform="translate(240,374)"/>
<path d="M0 0 C3.93 3.7 6.95 7.55 10 12 C9.67 12.66 9.34 13.32 9 14 C5.17 11.88 2.72 10.34 1.37 5.96 C0.91 3.97 0.46 1.99 0 0 Z " fill="#834F24" transform="translate(114,352)"/>
<path d="M0 0 C5.44 0.34 8.94 3.7 13 7 C9.99 7.93 9.13 8.04 6 7 C4.81 4.44 4.81 4.44 4 2 C3.01 2.33 2.02 2.66 1 3 C0.67 2.01 0.34 1.02 0 0 Z " fill="#ACAEAE" transform="translate(280,277)"/>
<path d="M0 0 C0.66 0.66 1.32 1.32 2 2 C2.99 2.66 3.98 3.32 5 4 C-0.44 4.22 -4.87 4.1 -10 2 C-10 1.67 -10 1.34 -10 1 C-6.61 0.22 -3.48 -0.28 0 0 Z " fill="#BE742C" transform="translate(395,438)"/>
<path d="M0 0 C0 3.52 -0.68 4.32 -2.75 7.06 C-3.26 7.75 -3.77 8.45 -4.3 9.16 C-6.08 11.08 -7.6 11.99 -10 13 C-9.18 12.11 -8.35 11.23 -7.5 10.31 C-5.54 7.99 -5.03 7.25 -4.69 4.12 C-4.79 3.42 -4.89 2.72 -5 2 C-3.35 1.34 -1.7 0.68 0 0 Z " fill="#7A7B7B" transform="translate(217,407)"/>
<path d="M0 0 C1.88 0.19 1.88 0.19 4 1 C5.12 3.5 5.12 3.5 6 6 C6.66 6.33 7.32 6.66 8 7 C8.62 10.06 8.62 10.06 9 13 C5.48 9.74 2.47 6.11 0 2 C0 1.34 0 0.68 0 0 Z " fill="#975F2E" transform="translate(128,385)"/>
<path d="M0 0 C0.66 0 1.32 0 2 0 C2.33 1.32 2.66 2.64 3 4 C3.99 3.67 4.98 3.34 6 3 C5 5 4 7 3 9 C2.34 9 1.68 9 1 9 C0.67 8.67 0.34 8.34 0 8 C-0.66 8 -1.32 8 -2 8 C-1.34 5.36 -0.68 2.72 0 0 Z " fill="#DD8A41" transform="translate(210,326)"/>
<path d="M0 0 C0 0.66 0 1.32 0 2 C2.39 1.42 4.67 0.78 7 0 C7.33 0.66 7.66 1.32 8 2 C7.67 2.66 7.34 3.32 7 4 C7.66 4 8.32 4 9 4 C9 4.66 9 5.32 9 6 C3.72 4.68 -1.56 3.36 -7 2 C-7 1.67 -7 1.34 -7 1 C-2.25 0 -2.25 0 0 0 Z " fill="#B5B5B5" transform="translate(540,314)"/>
<path d="M0 0 C1.98 0.99 1.98 0.99 4 2 C4 2.66 4 3.32 4 4 C4.58 4.27 5.15 4.54 5.75 4.81 C8.06 6.03 10.02 7.3 12 9 C12 9.66 12 10.32 12 11 C11.01 11 10.02 11 9 11 C8.67 10.34 8.34 9.68 8 9 C7.15 8.53 6.31 8.05 5.44 7.56 C4.63 7.05 3.83 6.53 3 6 C3 5.01 3 4.02 3 3 C2.01 3.33 1.02 3.66 0 4 C0 2.68 0 1.36 0 0 Z " fill="#91572B" transform="translate(331,296)"/>
<path d="M0 0 C0.44 0.38 0.87 0.75 1.32 1.14 C5.19 4.46 9.08 7.75 13 11 C10.16 11 7.77 10.58 5 10 C4.67 10 4.34 10 4 10 C3.57 8.64 3.57 8.64 3.12 7.25 C2.23 4.67 1.25 2.41 0 0 Z " fill="#8D8981" transform="translate(352,337)"/>
<path d="M0 0 C-2.97 2.48 -2.97 2.48 -6 5 C-6.66 4.67 -7.32 4.34 -8 4 C-8 1 -8 1 -7 -1 C-3.58 -2.37 -3.26 -2.17 0 0 Z " fill="#C2C1C1" transform="translate(586,405)"/>
<path d="M0 0 C0.87 0.46 0.87 0.46 1.75 0.94 C3.91 2.05 3.91 2.05 6 2.5 C8.2 3.05 10.01 3.93 12 5 C11.34 5.66 10.68 6.32 10 7 C10.99 8.49 10.99 8.49 12 10 C8.79 8.56 6.38 6.77 3.75 4.44 C3.04 3.82 2.34 3.2 1.61 2.56 C1.08 2.04 0.55 1.53 0 1 C0 0.67 0 0.34 0 0 Z " fill="#A0A2A1" transform="translate(358,396)"/>
<path d="M0 0 C1 2 1 2 0.25 4.5 C-1 7 -1 7 -4 9 C-4.72 11.06 -4.72 11.06 -5 13 C-5.99 13 -6.98 13 -8 13 C-6.41 7.91 -3.26 4.13 0 0 Z " fill="#78502C" transform="translate(222,307)"/>
<path d="M0 0 C0 0.66 0 1.32 0 2 C-0.99 2.33 -1.98 2.66 -3 3 C-3.33 3.99 -3.66 4.98 -4 6 C-5.32 6 -6.64 6 -8 6 C-8 5.34 -8 4.68 -8 4 C-8.66 3.67 -9.32 3.34 -10 3 C-6.49 0.59 -4.27 -0.37 0 0 Z " fill="#EC8F32" transform="translate(260,267)"/>
<path d="M0 0 C-3.37 2.83 -6.87 4.5 -11 6 C-11.99 5.67 -12.98 5.34 -14 5 C-13.34 5 -12.68 5 -12 5 C-12 4.01 -12 3.02 -12 2 C-7.81 0.6 -4.44 -0.12 0 0 Z " fill="#AF5E20" transform="translate(580,429)"/>
<path d="M0 0 C2 1 4 2 6 3 C6 3.66 6 4.32 6 5 C6.96 5.43 6.96 5.43 7.94 5.88 C10 7 10 7 11 9 C5.25 7.38 5.25 7.38 3 4 C0.95 2.81 0.95 2.81 -1 2 C-0.67 1.34 -0.34 0.68 0 0 Z " fill="#976135" transform="translate(309,367)"/>
<path d="M0 0 C4.4 1.2 7.13 2.39 10 6 C10.75 8.25 10.75 8.25 11 10 C8.5 8.62 8.5 8.62 6 7 C6 6.34 6 5.68 6 5 C5.34 5 4.68 5 4 5 C4 4.34 4 3.68 4 3 C2.68 2.34 1.36 1.68 0 1 C0 0.67 0 0.34 0 0 Z " fill="#A16633" transform="translate(354,327)"/>
<path d="M0 0 C3.26 3.02 5.62 6.26 8 10 C7.67 10.66 7.34 11.32 7 12 C2.2 9.54 2.2 9.54 1.19 6.81 C1.13 6.21 1.06 5.62 1 5 C0.34 5 -0.32 5 -1 5 C-0.67 3.35 -0.34 1.7 0 0 Z " fill="#ABACA7" transform="translate(145,305)"/>
<path d="M0 0 C0 3.34 -0.48 4.07 -2.38 6.69 C-2.82 7.31 -3.26 7.93 -3.71 8.57 C-4.14 9.04 -4.56 9.52 -5 10 C-5.66 10 -6.32 10 -7 10 C-7 10.66 -7 11.32 -7 12 C-7.66 11.67 -8.32 11.34 -9 11 C-8.81 8.62 -8.81 8.62 -8 6 C-5.62 4.94 -5.62 4.94 -3 4 C-1.2 1.99 -1.2 1.99 0 0 Z " fill="#824414" transform="translate(229,419)"/>
<path d="M0 0 C0.99 0 1.98 0 3 0 C3 1.32 3 2.64 3 4 C2.04 4.37 2.04 4.37 1.06 4.75 C-1.2 5.8 -1.2 5.8 -1.56 8.06 C-1.71 8.7 -1.85 9.34 -2 10 C-2.99 10.33 -3.98 10.66 -5 11 C-4.33 6.81 -2.14 3.6 0 0 Z " fill="#CE915B" transform="translate(239,391)"/>
<path d="M0 0 C0.66 0 1.32 0 2 0 C2.33 0.99 2.66 1.98 3 3 C4.65 3 6.3 3 8 3 C8 4.98 8 6.96 8 9 C7.34 9 6.68 9 6 9 C6 8.34 6 7.68 6 7 C5.4 6.75 4.8 6.5 4.19 6.25 C1.71 4.84 0.57 3.35 -1 1 C-0.67 0.67 -0.34 0.34 0 0 Z " fill="#C0BEBC" transform="translate(330,369)"/>
<path d="M0 0 C0.99 0.5 0.99 0.5 2 1 C2 1.66 2 2.32 2 3 C2.66 3 3.32 3 4 3 C4.33 7.62 4.66 12.24 5 17 C4.67 17 4.34 17 4 17 C2.68 11.39 1.36 5.78 0 0 Z " fill="#673E22" transform="translate(614,322)"/>
<path d="M0 0 C0 3.63 -0.95 4.75 -3 7.69 C-3.84 8.9 -3.84 8.9 -4.69 10.14 C-5.12 10.75 -5.55 11.37 -6 12 C-6 8.59 -5.51 5.37 -5 2 C-4.36 1.86 -3.72 1.71 -3.06 1.56 C-1.02 1.19 -1.02 1.19 0 0 Z " fill="#884715" transform="translate(223,319)"/>
<path d="M0 0 C8.45 6.15 8.45 6.15 12 10 C11.67 10.66 11.34 11.32 11 12 C8.08 10.89 7.11 10.19 5.5 7.44 C4.24 4.83 4.24 4.83 1.81 4.19 C1.21 4.13 0.62 4.06 0 4 C0 2.68 0 1.36 0 0 Z " fill="#875220" transform="translate(350,313)"/>
<path d="M0 0 C1.32 0 2.64 0 4 0 C4.33 0.66 4.66 1.32 5 2 C5.99 2 6.98 2 8 2 C8.99 4.31 9.98 6.62 11 9 C8.05 7.63 5.48 6.12 3 4 C3 3.34 3 2.68 3 2 C2.01 1.67 1.02 1.34 0 1 C0 0.67 0 0.34 0 0 Z " fill="#9A5E2C" transform="translate(304,283)"/>
<path d="M0 0 C0.66 1.32 1.32 2.64 2 4 C1.01 4.33 0.02 4.66 -1 5 C-1 5.66 -1 6.32 -1 7 C-0.34 7.33 0.32 7.66 1 8 C-1.62 8 -3.51 7.69 -6 7 C-5.67 6.34 -5.34 5.68 -5 5 C-4.34 5.33 -3.68 5.66 -3 6 C-2.69 5.2 -2.38 4.39 -2.06 3.56 C-1 1 -1 1 0 0 Z " fill="#A8A8A8" transform="translate(199,371)"/>
<path d="M0 0 C2.99 1.36 5.29 2.95 7.75 5.12 C8.67 5.93 8.67 5.93 9.61 6.76 C10.07 7.17 10.53 7.58 11 8 C8 8 8 8 5 7 C4.34 6.34 3.68 5.68 3 5 C2.01 4.67 1.02 4.34 0 4 C0 2.68 0 1.36 0 0 Z " fill="#989898" transform="translate(297,289)"/>
<path d="M0 0 C0.66 0 1.32 0 2 0 C2 0.66 2 1.32 2 2 C2.99 2 3.98 2 5 2 C7.19 5 7.19 5 9 8 C8.67 8.66 8.34 9.32 8 10 C3.92 7.13 1.97 4.57 0 0 Z " fill="#985F26" transform="translate(153,421)"/>
<path d="M0 0 C0.64 0.25 1.28 0.5 1.94 0.75 C2.27 1.74 2.6 2.73 2.94 3.75 C2.28 3.75 1.62 3.75 0.94 3.75 C0.61 4.41 0.28 5.07 -0.06 5.75 C-1.38 5.42 -2.7 5.09 -4.06 4.75 C-4.06 3.43 -4.06 2.11 -4.06 0.75 C-2.06 -0.25 -2.06 -0.25 0 0 Z " fill="#E8EAE7" transform="translate(156.0625,386.25)"/>
<path d="M0 0 C3.39 3.13 5.61 5.57 7 10 C4.06 8.94 4.06 8.94 1 7 C0.12 3.31 0.12 3.31 0 0 Z " fill="#824D24" transform="translate(185,334)"/>
<path d="M0 0 C2.47 0.99 2.47 0.99 5 2 C5 2.66 5 3.32 5 4 C5.99 4 6.98 4 8 4 C7.34 5.65 6.68 7.3 6 9 C2.92 6.23 1.31 3.94 0 0 Z " fill="#B7B7B7" transform="translate(96,309)"/>
<path d="M0 0 C1 3 1 3 0 5.04 C-0.47 5.75 -0.95 6.46 -1.44 7.19 C-1.91 7.9 -2.38 8.62 -2.87 9.36 C-3.24 9.9 -3.62 10.44 -4 11 C-5.23 8.54 -5.07 6.72 -5 4 C-3.35 3.34 -1.7 2.68 0 2 C0 1.34 0 0.68 0 0 Z " fill="#919291" transform="translate(603,380)"/>
<path d="M0 0 C0 2.84 -0.4 5.24 -1 8 C-1.99 8.33 -2.98 8.66 -4 9 C-4.33 9.99 -4.66 10.98 -5 12 C-5.66 12 -6.32 12 -7 12 C-5.44 7.33 -2.92 3.91 0 0 Z " fill="#858383" transform="translate(217,344)"/>
<path d="M0 0 C4.83 2.41 7.7 5.86 11 10 C5.44 8.64 5.44 8.64 3.25 5.44 C2.84 4.63 2.43 3.83 2 3 C1.34 2.67 0.68 2.34 0 2 C0 1.34 0 0.68 0 0 Z " fill="#928F8D" transform="translate(338,325)"/>
<path d="M0 0 C1.44 0.28 2.88 0.58 4.31 0.88 C5.11 1.04 5.91 1.2 6.74 1.37 C9 2 9 2 12 4 C7.99 5.6 4.91 4.48 1 3 C0.67 2.01 0.34 1.02 0 0 Z " fill="#B4B2B3" transform="translate(550,281)"/>
<path d="M0 0 C0.33 0 0.66 0 1 0 C1.31 2.19 1.31 2.19 1 5 C-1.5 7.81 -1.5 7.81 -4 10 C-4.33 9.01 -4.66 8.02 -5 7 C-4.67 6.34 -4.34 5.68 -4 5 C-3.34 5 -2.68 5 -2 5 C-1.34 3.35 -0.68 1.7 0 0 Z " fill="#CD8B4B" transform="translate(614,385)"/>
<path d="M0 0 C0.66 0 1.32 0 2 0 C1.51 3.66 0.94 5.67 -2 8 C-2.33 8 -2.66 8 -3 8 C-3 6.35 -3 4.7 -3 3 C-2.34 3 -1.68 3 -1 3 C-0.67 2.01 -0.34 1.02 0 0 Z " fill="#BAB8B8" transform="translate(230,384)"/>
<path d="M0 0 C3.39 3.13 5.61 5.57 7 10 C4.06 8.38 4.06 8.38 1 6 C0.12 2.75 0.12 2.75 0 0 Z " fill="#7D4B24" transform="translate(84,309)"/>
<path d="M0 0 C1 2 1 2 0.38 4.94 C-1.22 8.48 -2.55 9.37 -6 11 C-4.55 6.89 -2.49 3.57 0 0 Z " fill="#875934" transform="translate(240,279)"/>
<path d="M0 0 C0.66 0.33 1.32 0.66 2 1 C1.67 2.65 1.34 4.3 1 6 C1.99 6.33 2.98 6.66 4 7 C4 7.99 4 8.98 4 10 C1.5 7.75 1.5 7.75 -1 5 C-1 1 -1 1 0 0 Z " fill="#BBBBBB" transform="translate(81,283)"/>
<path d="M0 0 C4.17 0.47 6.93 1.05 10 4 C10 4.66 10 5.32 10 6 C5.57 4.79 3.02 3.48 0 0 Z " fill="#A36B2B" transform="translate(374,433)"/>
<path d="M0 0 C0.66 0 1.32 0 2 0 C2 2.31 2 4.62 2 7 C0.02 7.99 0.02 7.99 -2 9 C-2.33 8.01 -2.66 7.02 -3 6 C-2.34 5.34 -1.68 4.68 -1 4 C-0.36 1.93 -0.36 1.93 0 0 Z " fill="#C5C5C5" transform="translate(589,394)"/>
<path d="M0 0 C1.3 0.93 2.59 1.87 3.88 2.81 C4.59 3.33 5.31 3.86 6.05 4.39 C8 6 8 6 10 9 C9.44 8.69 8.89 8.38 8.31 8.06 C5.87 6.94 3.64 6.44 1 6 C0.67 4.02 0.34 2.04 0 0 Z " fill="#855729" transform="translate(327,382)"/>
<path d="M0 0 C3 0 3 0 5 1 C5.63 3.07 5.63 3.07 6.12 5.56 C6.29 6.39 6.46 7.22 6.63 8.07 C6.75 8.7 6.88 9.34 7 10 C4.4 7.49 2.01 5.01 0 2 C0 1.34 0 0.68 0 0 Z " fill="#905521" transform="translate(101,347)"/>
<path d="M0 0 C1.65 1.65 3.3 3.3 5 5 C4.67 5.66 4.34 6.32 4 7 C2.35 6.67 0.7 6.34 -1 6 C-0.67 4.02 -0.34 2.04 0 0 Z " fill="#B5B7B3" transform="translate(161,329)"/>
<path d="M0 0 C3.87 0.57 6.15 2.39 9 5 C9 5.66 9 6.32 9 7 C8.01 7 7.02 7 6 7 C5.67 6.34 5.34 5.68 5 5 C4.15 4.5 3.31 4.01 2.44 3.5 C1.63 3 0.83 2.51 0 2 C0 1.34 0 0.68 0 0 Z " fill="#9C5D2F" transform="translate(318,286)"/>
<path d="M0 0 C-0.33 0.99 -0.66 1.98 -1 3 C-2.65 3.33 -4.3 3.66 -6 4 C-6.66 2.68 -7.32 1.36 -8 0 C-4.71 -1.1 -3.29 -0.8 0 0 Z " fill="#CF7A2B" transform="translate(51,265)"/>
<path d="M0 0 C3.63 0 7.26 0 11 0 C7.56 2.3 5.06 2.54 1 3 C0.67 2.01 0.34 1.02 0 0 Z " fill="#B56C1F" transform="translate(555,435)"/>
<path d="M0 0 C0.66 1.32 1.32 2.64 2 4 C1.34 4 0.68 4 0 4 C0 4.99 0 5.98 0 7 C-1.94 6.69 -1.94 6.69 -4 6 C-4.33 5.01 -4.66 4.02 -5 3 C-3.35 3 -1.7 3 0 3 C0 2.01 0 1.02 0 0 Z " fill="#C77F38" transform="translate(142,395)"/>
<path d="M0 0 C2.96 3.36 3.92 6.69 5 11 C2.5 9.44 2.5 9.44 0 7 C-0.31 3.25 -0.31 3.25 0 0 Z " fill="#868686" transform="translate(602,318)"/>
<path d="M0 0 C2.93 2.85 5.64 5.65 8 9 C7.67 9.66 7.34 10.32 7 11 C2.34 7.93 1.15 5.41 0 0 Z " fill="#6B451C" transform="translate(76,298)"/>
<path d="M0 0 C4.88 1.88 4.88 1.88 6 3 C6.04 4.67 6.04 6.33 6 8 C1.12 3.38 1.12 3.38 0 0 Z " fill="#ADADAB" transform="translate(116,338)"/>
<path d="M0 0 C-2.31 2.31 -3.48 2.5 -6.62 3.12 C-7.44 3.29 -8.26 3.46 -9.1 3.63 C-10.04 3.81 -10.04 3.81 -11 4 C-10.34 3.67 -9.68 3.34 -9 3 C-9 2.34 -9 1.68 -9 1 C-5.8 -0.07 -3.34 -0.07 0 0 Z " fill="#A2A5AA" transform="translate(565,417)"/>
<path d="M0 0 C2.88 -0.19 2.88 -0.19 6 0 C6.66 0.99 7.32 1.98 8 3 C7.34 3 6.68 3 6 3 C6 3.66 6 4.32 6 5 C2.84 3.63 2.01 3.01 0 0 Z " fill="#B5B5B5" transform="translate(374,410)"/>
<path d="M0 0 C0.33 0.66 0.66 1.32 1 2 C0.36 2.6 -0.28 3.2 -0.94 3.81 C-3.2 5.91 -3.2 5.91 -4 9 C-4.66 9 -5.32 9 -6 9 C-4.69 5.06 -3.08 2.77 0 0 Z " fill="#7C5530" transform="translate(230,405)"/>
<path d="M0 0 C0.66 0 1.32 0 2 0 C2 0.66 2 1.32 2 2 C2.64 2.1 3.28 2.21 3.94 2.31 C4.62 2.54 5.3 2.77 6 3 C6.33 3.99 6.66 4.98 7 6 C5.68 6 4.36 6 3 6 C2.01 4.02 1.02 2.04 0 0 Z " fill="#A29C9A" transform="translate(153,391)"/>
<path d="M0 0 C1.6 3.2 0.03 5.72 -1 9 C-2.32 9 -3.64 9 -5 9 C-3.75 5.54 -2.32 2.85 0 0 Z " fill="#999796" transform="translate(209,356)"/>
<path d="M0 0 C5.75 3.62 5.75 3.62 8 7 C6.35 6.67 4.7 6.34 3 6 C3 5.34 3 4.68 3 4 C2.34 4 1.68 4 1 4 C0.67 2.68 0.34 1.36 0 0 Z " fill="#909090" transform="translate(368,352)"/>
<path d="M0 0 C2.61 2.52 4.89 5.05 7 8 C6.67 8.66 6.34 9.32 6 10 C4.12 9.5 4.12 9.5 2 8 C1.02 5.35 0.54 2.79 0 0 Z " fill="#795029" transform="translate(107,342)"/>
<path d="M0 0 C0.33 1.32 0.66 2.64 1 4 C-0.32 4.99 -1.64 5.98 -3 7 C-4.32 6.34 -5.64 5.68 -7 5 C-6.67 4.34 -6.34 3.68 -6 3 C-4.68 3 -3.36 3 -2 3 C-1.34 2.01 -0.68 1.02 0 0 Z " fill="#6A4324" transform="translate(199,341)"/>
<path d="M0 0 C0.55 2.08 1 3.84 1 6 C-0.98 6.33 -2.96 6.66 -5 7 C-3.75 3.35 -3.33 2.22 0 0 Z " fill="#B6B9B7" transform="translate(223,337)"/>
<path d="M0 0 C5.75 3.62 5.75 3.62 8 7 C6.35 7 4.7 7 3 7 C3 5.68 3 4.36 3 3 C2.01 3.33 1.02 3.66 0 4 C0 2.68 0 1.36 0 0 Z " fill="#9FA0A0" transform="translate(310,300)"/>
<path d="M0 0 C3.82 1.56 6.19 4.04 9 7 C5.62 6.31 5.62 6.31 2 5 C0.56 2.38 0.56 2.38 0 0 Z " fill="#8F5825" transform="translate(305,274)"/>
<path d="M0 0 C2.5 2.31 2.5 2.31 5 5 C5 5.99 5 6.98 5 8 C3.68 7.67 2.36 7.34 1 7 C0.67 4.69 0.34 2.38 0 0 Z " fill="#815325" transform="translate(157,413)"/>
<path d="M0 0 C0.66 0 1.32 0 2 0 C2.2 2.05 2.39 4.1 2.59 6.15 C2.72 6.76 2.86 7.37 3 8 C3.66 8.33 4.32 8.66 5 9 C3.12 8.81 3.12 8.81 1 8 C-0.25 5.44 -0.25 5.44 -1 3 C-0.34 3 0.32 3 1 3 C0.67 2.01 0.34 1.02 0 0 Z " fill="#945925" transform="translate(191,353)"/>
<path d="M0 0 C2.62 0.38 2.62 0.38 5 1 C5 1.99 5 2.98 5 4 C2.69 3.34 0.38 2.68 -2 2 C-1.34 1.34 -0.68 0.68 0 0 Z " fill="#D0D4D2" transform="translate(362,349)"/>
<path d="M0 0 C0.81 1.69 0.81 1.69 1 4 C-1.44 6.75 -1.44 6.75 -4 9 C-4 5 -2.27 3.2 0 0 Z " fill="#7C552A" transform="translate(209,326)"/>
<path d="M0 0 C3.37 1.39 4.99 2.98 7 6 C5.68 6 4.36 6 3 6 C3 5.01 3 4.02 3 3 C1.68 3 0.36 3 -1 3 C-0.67 2.01 -0.34 1.02 0 0 Z " fill="#909393" transform="translate(329,317)"/>
<path d="M0 0 C2.97 0.5 2.97 0.5 6 1 C6.33 1.99 6.66 2.98 7 4 C6.01 4.33 5.02 4.66 4 5 C1.81 3.69 1.81 3.69 0 2 C0 1.34 0 0.68 0 0 Z " fill="#F19335" transform="translate(340,310)"/>
<path d="M0 0 C0.66 0 1.32 0 2 0 C2 0.66 2 1.32 2 2 C2.99 2.33 3.98 2.66 5 3 C7 6 7 6 6.62 8.19 C6.42 8.79 6.21 9.38 6 10 C3 5.25 3 5.25 3 3 C2.34 3 1.68 3 1 3 C0.67 2.01 0.34 1.02 0 0 Z " fill="#D69459" transform="translate(604,303)"/>
<path d="M0 0 C0.99 0.33 1.98 0.66 3 1 C1.69 4.94 0.08 7.23 -3 10 C-2.01 6.7 -1.02 3.4 0 0 Z " fill="#894414" transform="translate(239,291)"/>
<path d="M0 0 C3.08 2.77 4.69 5.06 6 9 C3.53 8.01 3.53 8.01 1 7 C0.67 4.69 0.34 2.38 0 0 Z " fill="#8C5327" transform="translate(143,272)"/>
<path d="M0 0 C1.88 0.56 1.88 0.56 4 2 C5.25 5.62 5.25 5.62 6 9 C2.92 6.23 1.31 3.94 0 0 Z " fill="#A5652E" transform="translate(47,270)"/>
<path d="M0 0 C0 0.33 0 0.66 0 1 C-1.65 1 -3.3 1 -5 1 C-5.33 1.99 -5.66 2.98 -6 4 C-6.66 2.68 -7.32 1.36 -8 0 C-4.71 -1.1 -3.29 -0.8 0 0 Z " fill="#E68E44" transform="translate(372,422)"/>
<path d="M0 0 C0 4 -1.73 5.8 -4 9 C-4 6.16 -3.6 3.76 -3 1 C-2.01 0.67 -1.02 0.34 0 0 Z " fill="#9F5316" transform="translate(615,395)"/>
<path d="M0 0 C1.98 0 3.96 0 6 0 C6 1.65 6 3.3 6 5 C3.98 3.7 1.98 2.36 0 1 C0 0.67 0 0.34 0 0 Z " fill="#B4B5B6" transform="translate(350,389)"/>
<path d="M0 0 C3.08 2.77 4.69 5.06 6 9 C4.68 8.67 3.36 8.34 2 8 C1.86 7.24 1.71 6.47 1.56 5.69 C1.04 2.92 1.04 2.92 0 0 Z " fill="#696967" transform="translate(185,364)"/>
<path d="M0 0 C1.88 0.62 1.88 0.62 4 2 C5.25 5.12 5.25 5.12 6 8 C4.12 7.38 4.12 7.38 2 6 C0.75 2.88 0.75 2.88 0 0 Z " fill="#B47740" transform="translate(103,338)"/>
<path d="M0 0 C0.66 0 1.32 0 2 0 C2 0.66 2 1.32 2 2 C3.32 2.33 4.64 2.66 6 3 C6 4.65 6 6.3 6 8 C1.12 3.38 1.12 3.38 0 0 Z " fill="#A25F25" transform="translate(76,312)"/>
<path d="M0 0 C2.97 0.5 2.97 0.5 6 1 C6 2.98 6 4.96 6 7 C1.12 2.25 1.12 2.25 0 0 Z " fill="#C47B39" transform="translate(313,289)"/>
<path d="M0 0 C2.47 0.5 2.47 0.5 5 1 C5.33 1.99 5.66 2.98 6 4 C5.34 4 4.68 4 4 4 C3.67 4.66 3.34 5.32 3 6 C3 5.34 3 4.68 3 4 C2.34 4 1.68 4 1 4 C0.67 2.68 0.34 1.36 0 0 Z " fill="#DADAD9" transform="translate(131,289)"/>
<path d="M0 0 C1.32 0.33 2.64 0.66 4 1 C3.67 1.99 3.34 2.98 3 4 C1.35 3.67 -0.3 3.34 -2 3 C-1.34 2.01 -0.68 1.02 0 0 Z " fill="#D3D3D5" transform="translate(203,418)"/>
<path d="M0 0 C0.33 0.99 0.66 1.98 1 3 C0.34 3 -0.32 3 -1 3 C-1.33 4.65 -1.66 6.3 -2 8 C-2.66 7.34 -3.32 6.68 -4 6 C-3.81 4 -3.81 4 -3 2 C-2.01 1.34 -1.02 0.68 0 0 Z " fill="#D17926" transform="translate(623,377)"/>
<path d="M0 0 C0.33 0.66 0.66 1.32 1 2 C1.66 2.33 2.32 2.66 3 3 C1.69 4.5 1.69 4.5 0 6 C-0.99 6 -1.98 6 -3 6 C-1.12 1.12 -1.12 1.12 0 0 Z " fill="#ACADAC" transform="translate(203,365)"/>
</svg>
