<?xml version="1.0" encoding="UTF-8"?>
<!-- Generator: https://ezgif.com/png-to-svg -->
<svg version="1.1" xmlns="http://www.w3.org/2000/svg" width="512" height="512" viewBox="-36 -179.55 672 672" preserveAspectRatio="xMidYMid meet">
<path d="M0 0 C20.57 -0.68 41.13 -1.19 61.7 -1.5 C71.26 -1.65 80.81 -1.85 90.36 -2.19 C98.69 -2.48 107.02 -2.66 115.36 -2.73 C119.77 -2.77 124.16 -2.85 128.57 -3.07 C154.6 -4.27 154.6 -4.27 161.6 1.27 C168.19 7.9 171.84 16.65 175.34 25.17 C178 31.54 181.67 37.38 185.19 43.31 C186.52 45.63 187.84 47.96 189.16 50.29 C193.32 57.57 197.54 64.81 201.77 72.04 C206.8 80.65 211.79 89.28 216.76 97.92 C220.82 104.96 224.9 111.99 229 119 C230.94 118.71 230.94 118.71 233 118 C234.48 115.82 235.68 113.76 236.88 111.44 C237.67 109.97 238.46 108.5 239.25 107.04 C239.91 105.83 239.91 105.83 240.57 104.6 C243.22 99.78 246.03 95.05 248.81 90.31 C253.25 82.73 257.65 75.13 262 67.5 C271.14 51.45 280.46 35.51 290 19.7 C293.88 13.25 297.63 6.74 301 0 C354.13 0 407.26 0 462 0 C457.38 9.24 452.88 18.07 447.26 26.66 C446.7 27.54 446.14 28.41 445.56 29.31 C444.79 30.48 444.79 30.48 444 31.68 C442.74 34.61 443.02 35.99 444 39 C444.97 40.88 444.97 40.88 446.12 42.56 C448 46 448 46 447.81 47.85 C446.75 50.65 445.39 53.16 443.94 55.77 C443.31 56.9 442.68 58.03 442.04 59.19 C441.36 60.4 440.68 61.6 440 62.81 C439.3 64.06 438.61 65.3 437.91 66.55 C433.9 73.71 429.79 80.79 425.51 87.8 C421.16 95 417.07 102.35 412.93 109.67 C409.02 116.56 404.98 123.35 400.76 130.06 C396.55 136.59 396.55 136.59 396 144 C397.33 146.9 398.96 149.59 400.62 152.31 C401.64 154.01 402.65 155.71 403.66 157.41 C404.2 158.32 404.74 159.22 405.3 160.15 C408.28 165.14 411.2 170.17 414.12 175.19 C415.02 176.72 415.02 176.72 415.94 178.29 C419.6 184.56 423.2 190.86 426.74 197.19 C430.09 203.19 433.54 209.14 436.99 215.08 C439.64 219.65 442.27 224.22 444.88 228.81 C448.42 235.03 452.05 241.21 455.69 247.38 C456.51 248.77 456.51 248.77 457.35 250.19 C457.87 251.08 458.4 251.98 458.95 252.9 C459.65 254.08 459.65 254.08 460.37 255.29 C461.17 256.63 461.17 256.63 462 258 C462.29 258.65 462.58 259.31 462.88 259.98 C464.49 263.2 465.67 265.55 469.2 266.74 C472.02 267.03 474.74 267.05 477.57 267 C478.64 267.01 479.7 267.02 480.8 267.03 C484.31 267.06 487.82 267.03 491.33 267 C493.77 267.01 496.21 267.02 498.64 267.03 C505.05 267.06 511.46 267.04 517.87 267.01 C524.41 266.99 530.96 267.02 537.5 267.04 C550.33 267.07 563.17 267.05 576 267 C576.43 267.77 576.85 268.54 577.29 269.34 C578.9 272.24 580.5 275.14 582.11 278.04 C582.8 279.29 583.49 280.54 584.18 281.79 C588.76 290.09 593.47 298.27 598.56 306.28 C600 309 600 309 600 313 C546.54 313 493.08 313 438 313 C436.02 309.37 434.04 305.74 432 302 C430.18 298.76 428.35 295.53 426.5 292.31 C425.99 291.42 425.48 290.53 424.95 289.61 C420.44 281.74 415.87 273.91 411.28 266.09 C406.75 258.32 402.31 250.5 397.9 242.66 C393.94 235.63 389.89 228.65 385.81 221.69 C380.06 211.87 374.47 201.98 369 192 C367.68 192 366.36 192 365 192 C363.16 194.29 363.16 194.29 361.62 197.31 C361.02 198.42 360.41 199.52 359.78 200.66 C359.19 201.76 358.61 202.86 358 204 C357.04 205.77 356.08 207.54 355.12 209.31 C354.64 210.21 354.16 211.1 353.66 212.02 C351.35 216.16 348.9 220.21 346.42 224.26 C344.22 227.88 342.14 231.54 340.13 235.27 C337.02 241 333.75 246.63 330.44 252.25 C326.31 259.29 322.21 266.33 318.24 273.46 C317.18 275.34 316.11 277.2 315.01 279.06 C312.05 284.11 309.51 289.06 307.38 294.51 C304.33 301.62 301.07 308.03 295 313 C284.26 317.17 272.08 316 260.77 315.53 C256.27 315.38 251.77 315.36 247.27 315.33 C238.76 315.26 230.27 315.05 221.77 314.8 C212.08 314.52 202.4 314.38 192.71 314.26 C172.8 314 152.9 313.56 133 313 C133.81 309.45 135.13 306.71 136.91 303.53 C137.51 302.46 138.11 301.4 138.72 300.3 C139.66 298.63 139.66 298.63 140.62 296.94 C141.23 295.86 141.83 294.77 142.46 293.66 C145.99 287.37 149.68 281.37 153.92 275.54 C155.31 272.96 155.31 272.96 154.31 269.87 C153.04 266.89 153.04 266.89 151 264 C150.07 258.88 152.78 255.42 155.38 251.25 C156.3 249.73 157.22 248.21 158.14 246.68 C158.62 245.91 159.09 245.13 159.58 244.33 C161.8 240.68 163.96 237 166.12 233.31 C166.54 232.6 166.96 231.89 167.4 231.15 C170.54 225.81 173.61 220.44 176.68 215.05 C179.12 210.78 181.61 206.53 184.09 202.28 C186.51 198.14 188.92 194 191.33 189.87 C192.85 187.26 194.37 184.67 195.9 182.07 C196.73 180.65 197.55 179.23 198.38 177.81 C198.75 177.18 199.13 176.56 199.51 175.91 C201.53 172.38 202.39 170.04 202 166 C200.98 163.71 200.98 163.71 199.46 161.49 C197.03 157.63 194.68 153.75 192.41 149.79 C191.8 148.72 191.18 147.64 190.54 146.54 C189.91 145.43 189.28 144.33 188.62 143.19 C184.14 135.38 179.64 127.6 174.81 120 C172.64 116.4 170.65 112.7 168.64 109 C165.87 103.93 162.96 98.94 160.06 93.94 C159.08 92.24 158.1 90.55 157.12 88.85 C156.45 87.69 155.77 86.52 155.1 85.35 C152.66 81.14 150.22 76.92 147.79 72.7 C147.28 71.82 147.28 71.82 146.76 70.91 C145.12 68.06 143.48 65.21 141.84 62.36 C141.25 61.34 140.66 60.32 140.05 59.26 C139.27 57.92 139.27 57.92 138.48 56.54 C137.45 54.78 136.39 53.03 135.31 51.3 C134 49 134 49 134 47 C98.03 46.67 62.06 46.34 25 46 C20.38 37.75 15.76 29.5 11 21 C5.66 11.9 5.66 11.9 0 3 C0 2.01 0 1.02 0 0 Z M369.73 45.26 C367.33 45.3 364.93 45.32 362.53 45.35 C359.09 45.38 355.64 45.43 352.2 45.49 C350.58 45.5 350.58 45.5 348.94 45.51 C347.94 45.53 346.94 45.55 345.91 45.57 C345.04 45.58 344.16 45.59 343.25 45.6 C340.54 46.08 339.69 46.87 338 49 C337.14 50.45 336.33 51.94 335.56 53.44 C332.11 59.93 328.32 66.2 324.49 72.48 C321.37 77.63 318.43 82.84 315.57 88.13 C312.76 93.27 309.81 98.32 306.88 103.38 C305.55 105.67 304.22 107.96 302.9 110.25 C302.24 111.38 301.59 112.52 300.91 113.68 C298.09 118.57 295.3 123.47 292.5 128.38 C288.94 134.63 285.34 140.86 281.7 147.06 C279.64 150.63 277.63 154.22 275.62 157.81 C272.69 163.06 269.68 168.24 266.56 173.38 C262.86 179.47 259.39 185.67 255.96 191.93 C252.12 198.89 248.02 205.69 243.85 212.45 C243.36 213.25 242.87 214.05 242.37 214.87 C241.94 215.57 241.5 216.27 241.06 217 C240 219 239.45 220.79 239 223 C238.19 222.93 237.38 222.86 236.55 222.79 C235.48 222.73 234.41 222.68 233.31 222.62 C232.26 222.56 231.2 222.49 230.11 222.41 C226.59 223.08 225.39 224.12 223.29 226.98 C220.53 231.3 218.03 235.76 215.56 240.25 C214.46 242.24 213.36 244.22 212.25 246.2 C211.72 247.17 211.19 248.14 210.64 249.13 C208.56 252.76 206.3 256.26 203.98 259.74 C202.58 262.38 202.58 262.38 204 267 C221.82 267 239.64 267 258 267 C258.99 263.29 258.99 263.29 259.37 260.61 C260.14 257.43 261.47 255.06 263.11 252.23 C263.75 251.11 264.4 249.98 265.07 248.82 C265.77 247.61 266.48 246.4 267.19 245.19 C267.91 243.93 268.64 242.67 269.37 241.41 C271.57 237.6 273.78 233.8 276 230 C276.64 228.9 277.28 227.81 277.93 226.68 C280.28 222.65 282.63 218.63 284.98 214.61 C289.29 207.25 293.52 199.85 297.74 192.44 C301.18 186.41 304.69 180.41 308.22 174.44 C311.45 168.97 314.61 163.46 317.75 157.94 C322.12 150.26 326.54 142.62 331 135 C336.03 126.41 341 117.79 345.93 109.13 C349.18 103.41 352.5 97.73 355.89 92.08 C357.16 90.1 357.16 90.1 357 88 C358.34 88.09 358.34 88.09 359.7 88.18 C360.87 88.22 362.04 88.27 363.25 88.31 C364.99 88.4 364.99 88.4 366.77 88.49 C370.06 88.3 370.06 88.3 372.05 86.09 C372.69 85.07 373.34 84.05 374 83 C374.67 81.95 374.67 81.95 375.35 80.87 C376.91 78.37 378.43 75.85 379.94 73.31 C380.45 72.46 380.96 71.62 381.49 70.74 C384.52 65.67 387.29 60.55 389.83 55.22 C391.03 52.95 392.41 51.01 394 49 C393.01 47.02 393.01 47.02 392 45 C384.58 45 377.15 45.15 369.73 45.26 Z " fill="#FEFEFE" transform="translate(0,0)"/>
<path d="M0 0 C0.99 0 1.98 0 3 0 C3.5 0.9 3.5 0.9 4.02 1.81 C11.11 14.39 18.24 26.95 25.51 39.44 C27.17 42.29 28.82 45.14 30.48 47.99 C35.96 57.4 41.46 66.8 47.1 76.13 C49.09 79.44 50.99 82.78 52.81 86.19 C55.69 91.57 58.84 96.78 62 102 C73.68 121.36 73.68 121.36 75 127 C67.46 127.33 59.92 127.56 52.37 127.71 C49.8 127.78 47.24 127.87 44.67 127.98 C23.92 128.87 23.92 128.87 19.08 125.77 C15.8 122.37 14.44 118.47 13 114 C12.04 112.17 11.04 110.35 10 108.56 C9.52 107.66 9.03 106.76 8.53 105.83 C3.87 97.22 -1.12 88.78 -6.05 80.31 C-7.27 78.23 -8.48 76.14 -9.69 74.06 C-12.45 69.3 -15.24 64.58 -18.16 59.92 C-18.87 58.77 -18.87 58.77 -19.59 57.6 C-20.46 56.21 -21.34 54.82 -22.24 53.44 C-24.2 50.26 -25 48.21 -24.99 44.44 C-23.89 40.61 -22.4 37.85 -20.25 34.5 C-19.44 33.21 -18.63 31.91 -17.82 30.61 C-17.38 29.89 -16.93 29.17 -16.47 28.44 C-12.95 22.61 -9.67 16.62 -6.34 10.68 C-5.81 9.73 -5.27 8.78 -4.72 7.8 C-4.25 6.94 -3.77 6.09 -3.28 5.21 C-2.25 3.44 -1.14 1.71 0 0 Z " fill="#FDFDFD" transform="translate(474,96)"/>
<path d="M0 0 C7.33 -0.51 14.65 -0.86 21.98 -1.1 C24.48 -1.2 26.96 -1.33 29.45 -1.51 C49.49 -2.87 49.49 -2.87 55.26 1.85 C59.19 6.59 61.7 11.92 64.01 17.59 C65.22 20.53 66.72 23.23 68.31 25.98 C68.97 27.22 68.97 27.22 69.65 28.49 C72.34 33.49 75.22 38.39 78.06 43.31 C78.71 44.43 79.35 45.55 80.01 46.7 C83.25 52.31 86.52 57.89 89.9 63.41 C90.51 64.4 91.12 65.4 91.74 66.43 C92.89 68.31 94.05 70.19 95.23 72.06 C96 73.32 96 73.32 96.78 74.61 C97.24 75.34 97.69 76.07 98.16 76.83 C99.27 79.7 98.94 81.08 98 84 C97.05 85.91 96.02 87.78 94.94 89.61 C94.31 90.69 93.68 91.77 93.03 92.88 C92.03 94.58 92.03 94.58 91 96.31 C90.32 97.48 89.63 98.65 88.95 99.82 C87.6 102.14 86.24 104.45 84.88 106.77 C82.4 111.03 79.97 115.32 77.56 119.62 C77.19 120.29 76.82 120.95 76.44 121.63 C75.62 123.09 74.81 124.54 74 126 C73.01 126 72.02 126 71 126 C70.65 125.37 70.3 124.74 69.94 124.09 C62.88 111.4 55.74 98.76 48.4 86.24 C43.85 78.49 39.38 70.69 34.94 62.88 C29.53 53.38 24.04 43.94 18.46 34.55 C14.85 28.47 11.34 22.34 7.91 16.16 C6.02 12.76 4.05 9.45 1.94 6.19 C0 3 0 3 0 0 Z " fill="#FDFDFD" transform="translate(51,88)"/>
</svg>
