<?xml version="1.0" encoding="UTF-8"?>
<!-- Generator: https://ezgif.com/png-to-svg -->
<svg version="1.1" xmlns="http://www.w3.org/2000/svg" width="512" height="512" viewBox="-36 -38.84 672 672" preserveAspectRatio="xMidYMid meet">
<path d="M0 0 C0.54 1.05 0.54 1.05 1.09 2.13 C7.24 14.07 13.39 25.99 19.88 37.75 C25.11 47.25 30.09 56.88 35.04 66.53 C39.26 74.75 43.53 82.92 48 91 C52.83 99.75 57.44 108.61 62 117.5 C67.03 127.31 72.16 137.06 77.49 146.71 C81.63 154.24 85.57 161.86 89.5 169.5 C94.39 179.02 99.39 188.47 104.56 197.85 C109.15 206.2 113.54 214.66 117.9 223.14 C118.42 224.15 118.94 225.17 119.48 226.21 C119.94 227.11 120.41 228.01 120.88 228.94 C121.84 230.93 121.84 230.93 123 232 C123.3 231.42 123.6 230.84 123.91 230.24 C129.42 219.6 134.97 208.99 140.75 198.5 C146.03 188.91 151.05 179.21 156.04 169.47 C160.7 160.38 165.48 151.37 170.42 142.43 C174.76 134.53 178.89 126.52 183 118.5 C188.01 108.73 193.11 99.04 198.42 89.43 C202.76 81.53 206.89 73.52 211 65.5 C216.05 55.65 221.19 45.88 226.54 36.19 C231.37 27.4 235.97 18.49 240.55 9.57 C241.11 8.47 241.68 7.37 242.26 6.23 C242.77 5.24 243.27 4.26 243.79 3.24 C245 1 245 1 246 0 C253.01 -0.68 259.47 1.42 266.19 3.25 C267.15 3.51 267.15 3.51 268.14 3.78 C294.71 10.98 320.76 20 346 31 C347.51 31.65 347.51 31.65 349.04 32.32 C370.81 41.87 392.01 52.7 412.34 65.01 C415.84 67.1 419.42 69.05 423 71 C422.41 74.87 421.26 77.72 419.33 81.11 C418.78 82.1 418.22 83.09 417.65 84.11 C417.04 85.16 416.44 86.22 415.81 87.31 C415.18 88.42 414.56 89.53 413.91 90.68 C409.13 99.08 404.28 107.44 399.39 115.77 C394.92 123.4 390.51 131.07 386.12 138.75 C385.79 139.33 385.46 139.92 385.12 140.52 C382.74 144.68 380.37 148.84 378 153 C375.29 157.75 372.59 162.5 369.88 167.25 C369.38 168.12 369.38 168.12 368.87 169.01 C363.66 178.14 358.38 187.21 353.08 196.28 C348.63 203.89 344.28 211.55 339.96 219.23 C335.29 227.5 330.55 235.73 325.8 243.96 C321.17 251.96 316.58 259.97 312 268 C306.86 277.01 301.69 286.01 296.5 295 C291.33 303.95 286.19 312.9 281.06 321.88 C280.73 322.46 280.4 323.04 280.06 323.63 C277.7 327.76 275.35 331.88 273 336 C264.92 350.16 256.83 364.32 248.69 378.44 C248.06 379.53 247.43 380.62 246.78 381.74 C246.2 382.75 245.61 383.77 245.01 384.81 C244.5 385.69 243.99 386.58 243.46 387.49 C242 390.01 240.5 392.5 239 395 C281.57 395 324.14 395 368 395 C368 436.25 368 477.5 368 520 C353.65 519.79 339.31 519.59 324.52 519.38 C315.43 519.3 306.33 519.23 297.23 519.18 C282.8 519.11 268.37 519.02 253.93 518.76 C243.42 518.58 232.91 518.47 222.39 518.47 C216.83 518.47 211.27 518.42 205.7 518.28 C183.79 516.63 183.79 516.63 163.8 523.36 C158.85 528.96 156.15 535.09 153.94 542.17 C152.65 546.07 150.76 549.22 148.59 552.7 C147.37 554.84 146.15 556.98 144.94 559.12 C142.94 562.62 140.95 566.11 138.95 569.6 C137.65 571.86 136.36 574.12 135.08 576.38 C133.29 579.51 131.49 582.63 129.69 585.75 C129.15 586.69 128.62 587.63 128.07 588.6 C127.33 589.87 127.33 589.87 126.57 591.17 C126.15 591.92 125.72 592.66 125.28 593.42 C124.86 593.94 124.44 594.46 124 595 C123.01 595 122.02 595 121 595 C120.74 594.52 120.48 594.04 120.21 593.54 C114.14 582.36 107.88 571.3 101.43 560.32 C96.35 551.65 91.42 542.89 86.53 534.11 C85.98 533.12 85.43 532.13 84.86 531.11 C84.38 530.24 83.9 529.38 83.4 528.48 C82.94 527.66 82.48 526.84 82 526 C81.64 525.14 81.28 524.27 80.91 523.38 C79.13 520.63 79.13 520.63 75.49 520.37 C74 520.34 72.5 520.34 71.01 520.36 C70.19 520.35 69.36 520.34 68.51 520.34 C65.74 520.31 62.98 520.33 60.21 520.34 C58.23 520.33 56.25 520.32 54.27 520.31 C48.88 520.28 43.49 520.28 38.11 520.29 C32.48 520.29 26.86 520.27 21.23 520.25 C10.58 520.21 -0.08 520.2 -10.74 520.19 C-22.87 520.19 -35 520.16 -47.13 520.12 C-72.09 520.05 -97.04 520.01 -122 520 C-122.98 517.06 -123.13 515.16 -123.13 512.1 C-123.13 511.09 -123.13 510.08 -123.14 509.03 C-123.13 507.93 -123.13 506.82 -123.13 505.68 C-123.13 504.51 -123.13 503.34 -123.13 502.14 C-123.14 498.27 -123.14 494.4 -123.13 490.53 C-123.13 487.85 -123.13 485.16 -123.14 482.48 C-123.14 476.86 -123.14 471.24 -123.13 465.61 C-123.12 459.11 -123.13 452.6 -123.13 446.1 C-123.14 440.51 -123.14 434.93 -123.13 429.35 C-123.13 426.01 -123.13 422.68 -123.14 419.34 C-123.14 415.63 -123.13 411.91 -123.13 408.2 C-123.13 407.08 -123.13 405.97 -123.14 404.83 C-123.13 403.82 -123.13 402.81 -123.13 401.78 C-123.13 400.9 -123.13 400.02 -123.13 399.11 C-123 397 -123 397 -122 395 C-79.76 394.67 -37.52 394.34 6 394 C-1.92 380.14 -1.92 380.14 -10 366 C-14.54 358.05 -14.54 358.05 -16.33 354.91 C-22.03 344.92 -27.75 334.95 -33.5 325 C-38.67 316.05 -43.81 307.1 -48.94 298.12 C-49.43 297.25 -49.43 297.25 -49.94 296.37 C-52.63 291.65 -55.32 286.94 -58.01 282.23 C-67.96 264.79 -77.95 247.38 -88 230 C-98.73 211.44 -109.39 192.85 -120.01 174.23 C-122.36 170.11 -124.71 165.99 -127.06 161.88 C-127.39 161.29 -127.73 160.71 -128.07 160.12 C-133.47 150.66 -138.9 141.23 -144.35 131.8 C-149.68 122.56 -154.99 113.3 -160.27 104.02 C-163.29 98.71 -166.33 93.41 -169.45 88.15 C-169.97 87.27 -170.49 86.39 -171.03 85.49 C-171.98 83.88 -172.94 82.28 -173.9 80.68 C-174.32 79.98 -174.73 79.28 -175.16 78.56 C-175.69 77.67 -175.69 77.67 -176.24 76.75 C-177 75 -177 75 -177 71 C-175.67 70.25 -175.67 70.25 -174.31 69.49 C-173.71 69.15 -173.1 68.81 -172.48 68.46 C-171.08 67.68 -169.69 66.89 -168.29 66.11 C-164.07 63.74 -159.86 61.35 -155.66 58.93 C-133.12 45.98 -110.02 34.9 -86 25 C-84.83 24.51 -83.66 24.03 -82.45 23.52 C-72.85 19.6 -63.12 16.24 -53.25 13.06 C-52.45 12.8 -51.66 12.55 -50.83 12.28 C-40.17 8.84 -29.47 5.59 -18.62 2.75 C-17.54 2.46 -16.45 2.18 -15.34 1.88 C-10.08 0.55 -5.42 -0.34 0 0 Z " fill="#131A22" transform="translate(177,0)"/>
<path d="M0 0 C0.39 0.76 0.78 1.53 1.19 2.31 C8.15 15.87 15.15 29.4 22.51 42.75 C26.46 49.94 30.24 57.21 34 64.5 C38.72 73.67 43.56 82.76 48.53 91.79 C52.86 99.68 57 107.65 61.12 115.64 C65.35 123.81 69.72 131.9 74.22 139.92 C76.59 144.21 78.67 148.25 80 153 C78.4 153.38 78.4 153.38 76.76 153.78 C50.76 160.21 25.84 169.85 2 182 C3.37 181.67 3.37 181.67 4.77 181.34 C8.56 180.43 12.35 179.55 16.15 178.66 C18.14 178.2 20.13 177.74 22.12 177.27 C36.25 173.97 50.29 171.09 64.69 169.29 C66.94 169.01 69.18 168.7 71.42 168.38 C76.99 167.59 82.36 166.96 88 167 C94.21 177.92 100.21 188.94 106.06 200.06 C107.2 202.22 108.34 204.37 109.47 206.53 C110.22 207.94 110.96 209.35 111.7 210.76 C113.56 214.29 115.43 217.8 117.34 221.29 C117.71 221.98 118.09 222.66 118.47 223.37 C119.18 224.67 119.89 225.97 120.61 227.26 C122.13 230.07 123 231.75 123 235 C121.23 235.33 121.23 235.33 119.43 235.66 C92.45 240.8 66.89 248.37 42 260 C41.2 260.37 40.39 260.75 39.57 261.13 C34.7 263.4 29.85 265.69 25 268 C25.83 267.78 26.66 267.56 27.52 267.34 C56.86 259.79 86.14 253.96 116.52 253.76 C117.78 253.75 119.03 253.74 120.32 253.73 C124.34 253.71 128.36 253.69 132.38 253.69 C133.06 253.69 133.74 253.68 134.45 253.68 C154.94 253.65 174.79 254.29 195 258 C197.11 258.34 199.23 258.68 201.34 259.02 C228.79 263.43 228.79 263.43 237.4 266.99 C239.65 267.86 241.61 268.36 243.96 268.84 C250.35 270.19 256.42 272.45 262.56 274.62 C264.36 275.26 264.36 275.26 266.2 275.9 C269.13 276.93 272.07 277.96 275 279 C273.64 282.59 272.04 285.9 270.16 289.25 C269.6 290.26 269.04 291.28 268.45 292.32 C267.85 293.39 267.25 294.46 266.62 295.56 C266.01 296.66 265.39 297.76 264.75 298.9 C248.75 327.25 248.75 327.25 246 330 C238.54 329.88 231.41 328.3 224.19 326.56 C176.84 315.9 117.15 319.39 74 343 C74.58 342.92 75.15 342.84 75.75 342.76 C78.48 342.38 81.21 342 83.94 341.62 C85.3 341.44 85.3 341.44 86.69 341.24 C88.66 340.97 90.64 340.71 92.62 340.45 C95.01 340.13 97.4 339.8 99.79 339.46 C110.43 338.01 120.94 337.69 131.67 337.74 C134.43 337.75 137.2 337.74 139.96 337.73 C156.16 337.71 171.78 339.33 187.69 342.38 C188.85 342.59 190.01 342.81 191.2 343.04 C199.6 344.65 207.78 346.62 216 349 C218.81 349.76 221.62 350.51 224.44 351.25 C226.62 351.83 228.81 352.42 231 353 C231 357.35 230.32 358.68 228.19 362.35 C227.61 363.37 227.03 364.38 226.43 365.43 C225.81 366.48 225.2 367.54 224.56 368.62 C223.36 370.72 222.15 372.82 220.94 374.91 C220.4 375.84 219.86 376.77 219.31 377.73 C218.5 379.13 217.72 380.55 217 382 C162.22 382 107.44 382 51 382 C43.08 368.14 43.08 368.14 35 354 C29.75 344.99 29.75 344.99 24.49 335.98 C15.2 320.08 6.05 304.09 -3.08 288.1 C-8.26 279.01 -13.5 269.96 -18.79 260.93 C-28.66 244.05 -38.39 227.08 -48.08 210.1 C-53.23 201.06 -58.45 192.06 -63.71 183.08 C-68.54 174.82 -73.29 166.52 -78.02 158.21 C-82.64 150.11 -87.29 142.04 -92 134 C-97.06 125.37 -102.05 116.69 -107 108 C-112.13 99 -117.29 90.01 -122.5 81.06 C-123.08 80.07 -123.65 79.09 -124.24 78.07 C-127.95 71.73 -131.76 65.47 -135.74 59.29 C-137 57 -137 57 -137 54 C-98.24 32.65 -58.33 14.25 -15.56 2.38 C-14.68 2.13 -13.79 1.88 -12.87 1.62 C-12.05 1.41 -11.23 1.19 -10.38 0.96 C-9.67 0.77 -8.97 0.59 -8.24 0.39 C-5.47 -0.09 -2.81 -0.06 0 0 Z " fill="#CC122C" transform="translate(166,25)"/>
<path d="M0 0 C0.54 1.05 0.54 1.05 1.09 2.13 C7.24 14.07 13.39 25.99 19.88 37.75 C25.11 47.25 30.09 56.88 35.04 66.53 C39.26 74.75 43.53 82.92 48 91 C52.83 99.75 57.44 108.61 62 117.5 C67.03 127.31 72.16 137.06 77.49 146.71 C81.63 154.24 85.57 161.86 89.5 169.5 C94.39 179.02 99.39 188.47 104.56 197.85 C109.15 206.2 113.54 214.66 117.9 223.14 C118.42 224.15 118.94 225.17 119.48 226.21 C119.94 227.11 120.41 228.01 120.88 228.94 C121.84 230.93 121.84 230.93 123 232 C123.3 231.42 123.6 230.84 123.91 230.24 C129.42 219.6 134.97 208.99 140.75 198.5 C146.03 188.91 151.05 179.21 156.04 169.47 C160.7 160.38 165.48 151.37 170.42 142.43 C174.76 134.53 178.89 126.52 183 118.5 C188.01 108.73 193.11 99.04 198.42 89.43 C202.76 81.53 206.89 73.52 211 65.5 C216.05 55.65 221.19 45.88 226.54 36.19 C231.37 27.4 235.97 18.49 240.55 9.57 C241.11 8.47 241.68 7.37 242.26 6.23 C242.77 5.24 243.27 4.26 243.79 3.24 C245 1 245 1 246 0 C253.01 -0.68 259.47 1.42 266.19 3.25 C267.15 3.51 267.15 3.51 268.14 3.78 C294.71 10.98 320.76 20 346 31 C347.51 31.65 347.51 31.65 349.04 32.32 C370.81 41.87 392.01 52.7 412.34 65.01 C415.84 67.1 419.42 69.05 423 71 C422.41 74.87 421.26 77.72 419.33 81.11 C418.78 82.1 418.22 83.09 417.65 84.11 C417.04 85.16 416.44 86.22 415.81 87.31 C415.18 88.42 414.56 89.53 413.91 90.68 C409.13 99.08 404.28 107.44 399.39 115.77 C394.92 123.4 390.51 131.07 386.12 138.75 C385.79 139.33 385.46 139.92 385.12 140.52 C382.74 144.68 380.37 148.84 378 153 C375.29 157.75 372.59 162.5 369.88 167.25 C369.38 168.12 369.38 168.12 368.87 169.01 C363.66 178.14 358.38 187.21 353.08 196.28 C348.63 203.89 344.28 211.55 339.96 219.23 C335.29 227.5 330.55 235.73 325.8 243.96 C321.17 251.96 316.58 259.97 312 268 C306.86 277.01 301.69 286.01 296.5 295 C291.33 303.95 286.19 312.9 281.06 321.88 C280.73 322.46 280.4 323.04 280.06 323.63 C277.7 327.76 275.35 331.88 273 336 C264.92 350.16 256.83 364.32 248.69 378.44 C248.06 379.53 247.43 380.62 246.78 381.74 C246.2 382.75 245.61 383.77 245.01 384.81 C244.5 385.69 243.99 386.58 243.46 387.49 C242 390.01 240.5 392.5 239 395 C281.57 395 324.14 395 368 395 C368 436.25 368 477.5 368 520 C353.65 519.79 339.31 519.59 324.52 519.38 C315.43 519.3 306.33 519.23 297.23 519.18 C282.8 519.11 268.37 519.02 253.93 518.76 C243.42 518.58 232.91 518.47 222.39 518.47 C216.83 518.47 211.27 518.42 205.7 518.28 C183.79 516.63 183.79 516.63 163.8 523.36 C158.85 528.96 156.15 535.09 153.94 542.17 C152.65 546.07 150.76 549.22 148.59 552.7 C147.37 554.84 146.15 556.98 144.94 559.12 C142.94 562.62 140.95 566.11 138.95 569.6 C137.65 571.86 136.36 574.12 135.08 576.38 C133.29 579.51 131.49 582.63 129.69 585.75 C129.15 586.69 128.62 587.63 128.07 588.6 C127.33 589.87 127.33 589.87 126.57 591.17 C126.15 591.92 125.72 592.66 125.28 593.42 C124.86 593.94 124.44 594.46 124 595 C123.01 595 122.02 595 121 595 C120.74 594.52 120.48 594.04 120.21 593.54 C114.14 582.36 107.88 571.3 101.43 560.32 C96.35 551.65 91.42 542.89 86.53 534.11 C85.98 533.12 85.43 532.13 84.86 531.11 C84.38 530.24 83.9 529.38 83.4 528.48 C82.94 527.66 82.48 526.84 82 526 C81.64 525.14 81.28 524.27 80.91 523.38 C79.13 520.63 79.13 520.63 75.49 520.37 C74 520.34 72.5 520.34 71.01 520.36 C70.19 520.35 69.36 520.34 68.51 520.34 C65.74 520.31 62.98 520.33 60.21 520.34 C58.23 520.33 56.25 520.32 54.27 520.31 C48.88 520.28 43.49 520.28 38.11 520.29 C32.48 520.29 26.86 520.27 21.23 520.25 C10.58 520.21 -0.08 520.2 -10.74 520.19 C-22.87 520.19 -35 520.16 -47.13 520.12 C-72.09 520.05 -97.04 520.01 -122 520 C-122.98 517.06 -123.13 515.16 -123.13 512.1 C-123.13 511.09 -123.13 510.08 -123.14 509.03 C-123.13 507.93 -123.13 506.82 -123.13 505.68 C-123.13 504.51 -123.13 503.34 -123.13 502.14 C-123.14 498.27 -123.14 494.4 -123.13 490.53 C-123.13 487.85 -123.13 485.16 -123.14 482.48 C-123.14 476.86 -123.14 471.24 -123.13 465.61 C-123.12 459.11 -123.13 452.6 -123.13 446.1 C-123.14 440.51 -123.14 434.93 -123.13 429.35 C-123.13 426.01 -123.13 422.68 -123.14 419.34 C-123.14 415.63 -123.13 411.91 -123.13 408.2 C-123.13 407.08 -123.13 405.97 -123.14 404.83 C-123.13 403.82 -123.13 402.81 -123.13 401.78 C-123.13 400.9 -123.13 400.02 -123.13 399.11 C-123 397 -123 397 -122 395 C-79.76 394.67 -37.52 394.34 6 394 C-1.92 380.14 -1.92 380.14 -10 366 C-14.54 358.05 -14.54 358.05 -16.33 354.91 C-22.03 344.92 -27.75 334.95 -33.5 325 C-38.67 316.05 -43.81 307.1 -48.94 298.12 C-49.43 297.25 -49.43 297.25 -49.94 296.37 C-52.63 291.65 -55.32 286.94 -58.01 282.23 C-67.96 264.79 -77.95 247.38 -88 230 C-98.73 211.44 -109.39 192.85 -120.01 174.23 C-122.36 170.11 -124.71 165.99 -127.06 161.88 C-127.39 161.29 -127.73 160.71 -128.07 160.12 C-133.47 150.66 -138.9 141.23 -144.35 131.8 C-149.68 122.56 -154.99 113.3 -160.27 104.02 C-163.29 98.71 -166.33 93.41 -169.45 88.15 C-169.97 87.27 -170.49 86.39 -171.03 85.49 C-171.98 83.88 -172.94 82.28 -173.9 80.68 C-174.32 79.98 -174.73 79.28 -175.16 78.56 C-175.69 77.67 -175.69 77.67 -176.24 76.75 C-177 75 -177 75 -177 71 C-175.67 70.25 -175.67 70.25 -174.31 69.49 C-173.71 69.15 -173.1 68.81 -172.48 68.46 C-171.08 67.68 -169.69 66.89 -168.29 66.11 C-164.07 63.74 -159.86 61.35 -155.66 58.93 C-133.12 45.98 -110.02 34.9 -86 25 C-84.83 24.51 -83.66 24.03 -82.45 23.52 C-72.85 19.6 -63.12 16.24 -53.25 13.06 C-52.45 12.8 -51.66 12.55 -50.83 12.28 C-40.17 8.84 -29.47 5.59 -18.62 2.75 C-17.54 2.46 -16.45 2.18 -15.34 1.88 C-10.08 0.55 -5.42 -0.34 0 0 Z M252 12 C251.67 12.64 251.34 13.28 251 13.95 C245.17 25.23 239.32 36.5 233.19 47.62 C227.93 57.17 222.93 66.83 217.96 76.53 C213.3 85.62 208.52 94.63 203.58 103.57 C199.24 111.47 195.11 119.48 191 127.5 C185.99 137.27 180.89 146.96 175.58 156.57 C171.24 164.47 167.11 172.48 163 180.5 C158 190.26 152.9 199.94 147.6 209.54 C142.32 219.14 137.33 228.9 132.34 238.66 C131.84 239.63 131.84 239.63 131.33 240.62 C130.43 242.39 129.52 244.16 128.62 245.94 C127 249 127 249 125.29 251.72 C123.75 254 123.75 254 124 257 C123.34 257 122.68 257 122 257 C121.78 256.23 121.56 255.45 121.34 254.66 C119.52 249.7 117.09 245.16 114.62 240.5 C114.09 239.48 113.55 238.46 113 237.41 C109.01 229.84 104.91 222.33 100.78 214.84 C96.02 206.13 91.49 197.3 86.96 188.47 C82.74 180.26 78.47 172.09 74 164 C68.8 154.58 63.87 145.04 58.96 135.47 C54.74 127.25 50.47 119.08 46 111 C40.8 101.58 35.87 92.04 30.96 82.47 C26.3 73.39 21.54 64.4 16.6 55.47 C11.29 45.8 6.27 35.98 1.25 26.17 C0.92 25.51 0.59 24.86 0.24 24.19 C-0.67 22.41 -1.58 20.62 -2.49 18.84 C-3.98 15.91 -3.98 15.91 -6 13 C-12.86 13.47 -19.12 14.64 -25.69 16.62 C-26.59 16.89 -27.49 17.16 -28.42 17.43 C-30.33 18 -32.23 18.57 -34.13 19.14 C-36.91 19.97 -39.7 20.77 -42.49 21.57 C-65.06 28.07 -86.76 37.03 -108 47 C-108.96 47.44 -109.92 47.89 -110.91 48.35 C-128.43 56.47 -146.06 65 -162 76 C-160.38 82.14 -157.1 87.22 -153.88 92.62 C-152.6 94.79 -151.32 96.95 -150.05 99.12 C-149.38 100.25 -148.72 101.37 -148.03 102.54 C-144.68 108.25 -141.4 114 -138.12 119.75 C-137.45 120.93 -136.78 122.11 -136.11 123.29 C-134.75 125.67 -133.39 128.05 -132.04 130.43 C-128.67 136.33 -125.31 142.23 -121.94 148.12 C-121.44 149 -121.44 149 -120.93 149.88 C-116.14 158.27 -111.33 166.64 -106.5 175 C-101.33 183.95 -96.19 192.9 -91.06 201.88 C-90.73 202.45 -90.4 203.03 -90.06 203.63 C-86.68 209.54 -83.31 215.45 -79.94 221.36 C-78.26 224.32 -76.57 227.29 -74.88 230.25 C-74.54 230.83 -74.21 231.42 -73.87 232.02 C-69.25 240.1 -64.58 248.16 -59.88 256.19 C-54.55 265.28 -49.37 274.45 -44.25 283.65 C-39.72 291.75 -35.08 299.77 -30.39 307.77 C-25.89 315.44 -21.47 323.15 -17.06 330.88 C-11.29 340.99 -5.5 351.09 0.33 361.17 C3.68 366.96 7.01 372.76 10.32 378.57 C10.68 379.2 11.04 379.84 11.41 380.49 C13.16 383.54 14.9 386.6 16.63 389.66 C17.26 390.77 17.89 391.87 18.54 393.01 C19.09 393.97 19.64 394.94 20.2 395.93 C22.39 399.67 24.71 403.33 27 407 C-18.54 407 -64.08 407 -111 407 C-111 440.66 -111 474.32 -111 509 C-45.99 509 19.02 509 86 509 C86.66 510.65 87.32 512.3 88 514 C89.03 515.92 90.08 517.82 91.17 519.7 C91.81 520.81 92.45 521.93 93.1 523.08 C93.8 524.28 94.49 525.48 95.19 526.69 C95.9 527.93 96.61 529.17 97.33 530.41 C99.18 533.63 101.03 536.85 102.89 540.07 C104.34 542.59 105.79 545.11 107.24 547.63 C110.15 552.69 113.07 557.75 115.99 562.81 C116.5 563.69 117.01 564.58 117.54 565.49 C118.02 566.32 118.5 567.15 119 568 C119.77 569.4 119.77 569.4 120.56 570.82 C121.04 571.54 121.51 572.26 122 573 C122.66 573 123.32 573 124 573 C124.57 571.96 124.57 571.96 125.15 570.9 C143.32 537.95 143.32 537.95 151.33 524.96 C153.07 522.05 153.07 522.05 154.18 518.89 C155.74 515.24 157.17 512.8 160 510 C166.26 508.18 172.4 508.42 178.88 508.55 C180.82 508.54 182.76 508.53 184.7 508.51 C189.97 508.48 195.23 508.52 200.49 508.58 C205.99 508.63 211.49 508.61 217 508.59 C227.41 508.58 237.83 508.62 248.24 508.69 C262.32 508.78 276.4 508.77 290.48 508.77 C312.65 508.77 334.82 508.89 357 509 C357 475.01 357 441.02 357 406 C311.79 406 266.58 406 220 406 C229.31 388.94 238.78 371.99 248.61 355.22 C253.08 347.59 257.49 339.93 261.88 332.25 C262.21 331.67 262.54 331.08 262.88 330.48 C264.58 327.51 266.27 324.54 267.96 321.57 C271.33 315.67 274.69 309.77 278.06 303.88 C278.39 303.29 278.73 302.71 279.07 302.12 C284.47 292.66 289.91 283.22 295.36 273.79 C299.93 265.87 304.47 257.94 309 250 C314.14 240.99 319.31 231.99 324.5 223 C329.67 214.05 334.81 205.1 339.94 196.12 C340.27 195.54 340.6 194.96 340.94 194.37 C343.3 190.24 345.65 186.12 348 182 C350.69 177.29 353.37 172.58 356.06 167.88 C356.56 167 356.56 167 357.07 166.12 C362.47 156.66 367.9 147.22 373.35 137.8 C376.6 132.18 379.83 126.56 383.04 120.92 C383.38 120.33 383.71 119.74 384.06 119.13 C385.42 116.75 386.77 114.37 388.13 111.99 C391.66 105.77 395.23 99.58 398.9 93.45 C399.81 91.92 399.81 91.92 400.74 90.37 C401.89 88.46 403.04 86.56 404.19 84.66 C404.7 83.82 405.2 82.98 405.72 82.12 C406.16 81.39 406.6 80.67 407.06 79.92 C408.22 77.91 408.22 77.91 408 75 C407.2 74.61 406.4 74.22 405.57 73.82 C398.73 70.45 392.02 66.93 385.38 63.19 C378.85 59.52 372.26 56.03 365.56 52.69 C364.77 52.29 363.98 51.9 363.16 51.49 C352.9 46.4 342.44 41.89 331.79 37.66 C329.8 36.87 327.82 36.08 325.83 35.29 C319.58 32.79 313.32 30.32 307 28 C306.32 27.75 305.63 27.49 304.93 27.23 C294.69 23.47 284.38 20.13 273.88 17.19 C272.85 16.9 271.82 16.61 270.75 16.31 C264.55 14.6 258.33 13.16 252 12 Z " fill="#FBFBFB" transform="translate(177,0)"/>
<path d="M0 0 C9.14 0.3 17.31 3.06 25.9 5.95 C28.75 6.92 31.62 7.86 34.48 8.81 C70.22 20.64 103.74 36.43 137 54 C135.58 57.79 133.85 61.2 131.83 64.7 C131.19 65.81 130.56 66.93 129.9 68.07 C129.2 69.28 128.51 70.48 127.81 71.69 C127.09 72.94 126.37 74.2 125.65 75.45 C123.79 78.68 121.94 81.91 120.08 85.13 C119.05 86.91 118.03 88.69 117 90.47 C110.18 102.33 103.33 114.18 96.44 126 C95.88 126.96 95.32 127.92 94.74 128.91 C91.61 134.28 88.43 139.61 85.18 144.91 C83.87 147.08 83.87 147.08 83 150 C78.94 149.38 75.73 148.06 72.06 146.23 C70.92 145.67 69.78 145.11 68.6 144.54 C67.4 143.94 66.2 143.35 65 142.75 C56.14 138.35 47.29 134.41 38 131 C36.68 130.49 35.37 129.98 34.05 129.47 C28.15 127.27 22.12 125.42 16.12 123.5 C14.91 123.11 13.69 122.72 12.44 122.32 C8.96 121.2 5.48 120.1 2 119 C1.05 118.7 0.1 118.4 -0.88 118.09 C-5.41 116.69 -9.8 115.56 -14.5 114.88 C-19.81 114.09 -19.81 114.09 -22 113 C-21.91 113.64 -21.82 114.28 -21.72 114.94 C-21.31 117.89 -20.9 120.85 -20.5 123.81 C-20.36 124.82 -20.21 125.82 -20.07 126.86 C-19.15 133.62 -18.82 140.18 -19 147 C-25.75 147.12 -25.75 147.12 -28 146 C-29.64 145.73 -31.28 145.51 -32.93 145.32 C-33.94 145.19 -34.96 145.07 -36 144.95 C-37.09 144.82 -38.19 144.69 -39.31 144.56 C-40.42 144.43 -41.53 144.3 -42.68 144.16 C-53.11 142.95 -63.55 141.93 -74 141 C-72.64 136.55 -70.88 132.63 -68.68 128.54 C-68.36 127.92 -68.03 127.31 -67.69 126.68 C-66.61 124.66 -65.52 122.64 -64.44 120.62 C-63.67 119.19 -62.91 117.76 -62.14 116.33 C-60.55 113.36 -58.96 110.39 -57.37 107.42 C-54.08 101.28 -50.81 95.13 -47.55 88.97 C-45.78 85.65 -44.02 82.32 -42.25 79 C-41.54 77.67 -40.83 76.33 -40.12 75 C-35.88 67 -35.88 67 -34.81 65 C-34.1 63.67 -33.39 62.33 -32.69 61 C-30.93 57.68 -29.16 54.37 -27.4 51.05 C-24.09 44.82 -20.78 38.59 -17.48 32.36 C-15.92 29.42 -14.37 26.49 -12.81 23.56 C-12.07 22.16 -11.33 20.77 -10.59 19.37 C-9.57 17.43 -8.54 15.5 -7.51 13.56 C-6.93 12.46 -6.35 11.36 -5.74 10.22 C-3.88 6.78 -1.95 3.39 0 0 Z " fill="#CC122C" transform="translate(434,25)"/>
<path d="M0 0 C7.42 1.91 14.63 4.16 21.81 6.81 C22.76 7.16 23.71 7.51 24.69 7.87 C30.26 9.94 35.82 12.04 41.31 14.31 C42.95 14.99 42.95 14.99 44.61 15.68 C47 17 47 17 48 20 C46.97 22.31 46.97 22.31 45.34 25.07 C44.74 26.1 44.14 27.13 43.52 28.19 C42.85 29.3 42.19 30.41 41.5 31.56 C40.81 32.73 40.13 33.9 39.44 35.07 C38.01 37.5 36.58 39.93 35.14 42.36 C31.84 47.96 28.61 53.61 25.38 59.25 C18.67 70.89 11.86 82.46 5 94 C-0.68 93.58 -5.08 92.28 -10.31 90.07 C-51.27 73.76 -96.69 73.45 -140 74 C-139.38 69.68 -137.83 66.36 -135.82 62.5 C-135.5 61.88 -135.18 61.26 -134.85 60.62 C-133.8 58.6 -132.75 56.58 -131.69 54.56 C-130.96 53.17 -130.24 51.77 -129.51 50.38 C-124.25 40.28 -118.86 30.27 -113.36 20.31 C-111.48 16.91 -109.7 13.49 -108 10 C-101.65 9.85 -95.8 10.34 -89.56 11.44 C-83.81 12.4 -78.12 13.32 -72.3 13.69 C-69.62 14.05 -67.05 14.73 -64.43 15.4 C-61.62 16.09 -58.8 16.68 -55.97 17.26 C-36.67 21.23 -17.85 26.31 1 32 C0.93 31.11 0.86 30.23 0.78 29.32 C0.05 19.53 -0.11 9.82 0 0 Z " fill="#CC122C" transform="translate(453,182)"/>
<path d="M0 0 C6.92 4.28 10.88 12.34 13 20 C14.21 30.85 12.21 40.85 5.94 49.88 C0.92 55.83 -6.26 59.95 -14 61 C-32.2 62.11 -32.2 62.11 -40 57 C-40.71 56.56 -41.41 56.13 -42.14 55.68 C-49.4 50.76 -52.97 44.11 -56 36 C-57.41 24.68 -56.05 14.76 -49.09 5.44 C-35.99 -9.04 -16.21 -9.38 0 0 Z " fill="#F6F6F6" transform="translate(269,430)"/>
<path d="M0 0 C40.95 0 40.95 0 50.57 9.19 C57.75 18.29 58.62 27.83 58 39 C56.73 46.36 52.86 53.66 47.18 58.57 C32.83 68.26 16.92 65 0 65 C0 43.55 0 22.1 0 0 Z " fill="#F7F7F7" transform="translate(292,425)"/>
<path d="M0 0 C8.04 -0.19 8.04 -0.19 16.25 -0.38 C17.92 -0.43 19.58 -0.48 21.3 -0.54 C31.39 -0.73 39.94 0.55 47.8 7.62 C52.26 12.66 52.36 17.48 52.27 23.92 C51.88 28.34 50.86 31.58 48 35 C41.81 40 41.81 40 38 40 C39.67 42.13 41.33 44.25 43 46.38 C43.5 47.01 43.99 47.64 44.5 48.29 C48.17 52.96 51.89 57.6 55.64 62.21 C57 64 57 64 57 65 C51.65 65.92 46.26 66.7 41 65 C34.83 60.46 30.78 53.11 27.03 46.56 C25.22 43.77 25.22 43.77 22.2 43.2 C20.74 43.16 20.74 43.16 19.25 43.12 C17.52 43.08 15.78 43.04 14 43 C14 50.26 14 57.52 14 65 C9.38 65 4.76 65 0 65 C0 43.55 0 22.1 0 0 Z " fill="#F7F7F7" transform="translate(153,425)"/>
<path d="M0 0 C5.22 -0.08 10.44 -0.17 15.81 -0.25 C18.25 -0.3 18.25 -0.3 20.73 -0.36 C30.54 -0.44 38.47 0.55 47 5.88 C51.46 10.62 52.56 15.51 52.5 21.88 C52.49 22.58 52.49 23.29 52.48 24.02 C52.31 28.95 51.66 32.6 48.63 36.52 C43.67 41.02 37.51 43.14 30.89 43.1 C30.01 43.1 29.12 43.09 28.21 43.09 C27.09 43.08 25.97 43.07 24.81 43.06 C21.24 43.04 17.68 43.02 14 43 C14 50.26 14 57.52 14 65 C9.38 65 4.76 65 0 65 C0 43.55 0 22.1 0 0 Z " fill="#F6F6F7" transform="translate(91,425)"/>
<path d="M0 0 C0 4.29 0 8.58 0 13 C-1.73 12.26 -1.73 12.26 -3.5 11.5 C-8.02 9.99 -12.39 9.66 -17.12 9.62 C-18.13 9.6 -18.13 9.6 -19.15 9.58 C-25.46 9.64 -29.98 11.29 -34.81 15.38 C-38.72 20.06 -39.28 23.97 -39.25 30 C-39.26 31.2 -39.26 32.39 -39.27 33.62 C-38.78 39.8 -36.66 42.98 -32 47 C-27.33 49.85 -23.48 50.39 -18.12 50.19 C-15.77 50.13 -13.42 50.06 -11 50 C-11 42.41 -11 34.82 -11 27 C-6.71 27 -2.42 27 2 27 C2 37.56 2 48.12 2 59 C-10.02 63.51 -23.47 65.76 -35.81 60.81 C-44.3 56.58 -49.43 51.12 -53.11 42.36 C-55.43 33.58 -55.84 21.5 -51.94 13.19 C-46.64 4.78 -39.41 -1.02 -29.71 -3.61 C-19.19 -5.12 -9.55 -4.85 0 0 Z " fill="#F7F7F7" transform="translate(439,428)"/>
<path d="M0 0 C5.28 0 10.56 0 16 0 C16.83 1.46 17.66 2.92 18.52 4.42 C19.62 6.34 20.71 8.26 21.81 10.19 C22.36 11.15 22.91 12.11 23.47 13.1 C24.27 14.49 24.27 14.49 25.08 15.92 C25.57 16.77 26.06 17.63 26.56 18.5 C27.57 20.25 28.61 21.98 29.68 23.69 C31 26 31 26 31 28 C33.88 25.46 35.5 22.58 37.36 19.24 C37.98 18.12 38.6 17 39.24 15.85 C39.89 14.67 40.54 13.49 41.19 12.31 C41.85 11.12 42.51 9.93 43.17 8.74 C44.78 5.83 46.39 2.91 48 0 C53.28 0 58.56 0 64 0 C62.33 4.17 60.59 7.53 58.26 11.33 C57.72 12.23 57.72 12.23 57.16 13.14 C56.01 15.03 54.85 16.92 53.69 18.81 C52.92 20.07 52.15 21.33 51.38 22.59 C50.82 23.51 50.82 23.51 50.25 24.44 C49.51 25.66 48.77 26.87 48.04 28.09 C46.55 30.53 45.06 32.92 43.37 35.23 C39.19 40.98 39.22 46.54 39.19 53.5 C39.16 54.61 39.14 55.72 39.11 56.86 C39.05 59.57 39.02 62.29 39 65 C34.38 65 29.76 65 25 65 C25.08 63.44 25.16 61.88 25.24 60.27 C25.6 44.1 22.22 34.36 12.73 21.4 C10.05 17.68 7.66 13.78 5.25 9.88 C4.83 9.22 4.41 8.56 3.98 7.88 C2.33 5.27 0.98 2.95 0 0 Z " fill="#F6F6F6" transform="translate(444,425)"/>
<path d="M0 0 C3.65 2.68 6.17 5.47 7.54 9.89 C7.6 11 7.66 12.12 7.72 13.27 C7.8 14.18 7.87 15.09 7.95 16.03 C8.24 22.09 8.04 26.63 4.31 31.57 C-0.77 36.98 -4.91 38.58 -12.4 38.83 C-17.84 38.62 -21.21 38.12 -25.28 34.27 C-26.67 33.06 -26.67 33.06 -28.09 31.83 C-32.85 26.26 -31.63 17.96 -31.11 11.02 C-30.22 5.65 -27.44 3.03 -23.35 -0.39 C-16.65 -4.75 -6.69 -3.9 0 0 Z " fill="#121A22" transform="translate(259.27734375,439.734375)"/>
<path d="M0 0 C19.63 0 19.63 0 25 4 C30.32 10.55 30.64 16.81 30 25 C28.49 31.39 24.57 35.38 19.12 38.81 C15 40 15 40 0 40 C0 26.8 0 13.6 0 0 Z " fill="#131B23" transform="translate(306,438)"/>
<path d="M0 0 C15.18 0 30.36 0 46 0 C39.25 13.49 39.25 13.49 36.42 18.28 C35.82 19.31 35.22 20.33 34.59 21.39 C33.99 22.42 33.38 23.44 32.75 24.5 C31.51 26.59 30.28 28.69 29.05 30.78 C28.24 32.14 28.24 32.14 27.42 33.53 C26.2 35.66 25.07 37.79 24 40 C23.34 40 22.68 40 22 40 C21.58 39.28 21.16 38.55 20.73 37.8 C19.15 35.05 17.56 32.3 15.98 29.55 C14.97 27.8 13.96 26.05 12.95 24.3 C12.29 23.16 11.64 22.03 10.96 20.86 C10.31 19.72 9.66 18.59 8.98 17.42 C7.65 15.12 6.3 12.82 4.94 10.53 C4.3 9.45 3.66 8.38 3 7.27 C2.43 6.3 1.85 5.33 1.25 4.34 C0 2 0 2 0 0 Z " fill="#CB122C" transform="translate(277,509)"/>
<path d="M0 0 C4.62 0 9.24 0 14 0 C14 21.45 14 42.9 14 65 C9.38 65 4.76 65 0 65 C0 43.55 0 22.1 0 0 Z " fill="#F5F5F6" transform="translate(360,425)"/>
<path d="M0 0 C2.68 -0.08 5.36 -0.17 8.12 -0.25 C8.96 -0.29 9.79 -0.32 10.65 -0.36 C16.07 -0.44 18.8 0.57 23 4 C24.57 5.57 24.21 7.14 24.25 9.31 C24.2 12.18 24.09 13.81 22.88 16.44 C18.29 20.26 12.83 20.27 7.12 20.12 C4.77 20.08 2.42 20.04 0 20 C0 13.4 0 6.8 0 0 Z " fill="#1E252D" transform="translate(105,437)"/>
<path d="M0 0 C3.04 -0.14 6.08 -0.23 9.12 -0.31 C10.41 -0.38 10.41 -0.38 11.72 -0.44 C16.08 -0.52 19.08 -0.44 22.58 2.33 C25 5 25 5 25.56 8 C24.93 11.35 24.09 13.31 22 16 C19.13 17.76 17.02 18.24 13.67 18.2 C12.95 18.19 12.23 18.19 11.49 18.18 C10.58 18.16 9.68 18.14 8.75 18.12 C4.42 18.06 4.42 18.06 0 18 C0 12.06 0 6.12 0 0 Z " fill="#1B222A" transform="translate(166,438)"/>
<path d="M0 0 C0.66 0.33 1.32 0.66 2 1 C-3.14 6.57 -3.14 6.57 -7 7 C-4.78 4.09 -3.07 2.05 0 0 Z " fill="#2C323A" transform="translate(238,438)"/>
<path d="M0 0 C0 0.33 0 0.66 0 1 C-1.41 1.39 -2.83 1.76 -4.25 2.12 C-5.04 2.33 -5.83 2.54 -6.64 2.76 C-9.42 3.04 -10.66 2.45 -13 1 C-8.59 -0.1 -4.52 -0.08 0 0 Z " fill="#9F152A" transform="translate(260,366)"/>
</svg>
