<?xml version="1.0" encoding="UTF-8"?>
<!-- Generator: https://ezgif.com/png-to-svg -->
<svg version="1.1" xmlns="http://www.w3.org/2000/svg" width="512" height="512" viewBox="-9.076 -9.368 116.894 116.894" preserveAspectRatio="xMidYMid meet">
<path d="M0 0 C12.11 7.85 20.03 19.35 23.27 33.43 C23.56 36.54 23.61 39.62 23.59 42.74 C23.58 44 23.58 44 23.57 45.29 C23.38 55.64 20.14 63.38 15.27 72.43 C16.59 73.75 17.91 75.07 19.27 76.43 C17.71 80.25 15.44 82.79 12.27 85.43 C9.16 85.33 7.93 84.19 5.27 82.43 C4.74 82.81 4.21 83.2 3.66 83.6 C-8.36 92 -20.14 94.69 -34.73 93.43 C-49.2 90.67 -60.45 83.16 -68.86 71.23 C-77.15 58.75 -78.79 44.55 -76.07 29.91 C-72.17 17.11 -64.19 6.46 -52.66 -0.39 C-35.56 -9.24 -16.77 -9.68 0 0 Z " fill="#F5D665" transform="translate(76.7265625,6.57421875)"/>
<path d="M0 0 C3.29 2.07 6.16 4.35 9 7 C9.66 7.6 10.32 8.21 11 8.83 C14.2 11.9 17.22 14.87 19 19 C18.56 21.14 18.56 21.14 18 23 C13.05 23.27 8.61 23.51 4 21.5 C-1.32 19.26 -6.81 18.9 -12.31 20.8 C-15.12 22.14 -17.4 23.38 -19.58 25.64 C-20.05 26.09 -20.52 26.54 -21 27 C-25.52 26.88 -28.37 24.49 -32 22 C-36.73 19.37 -41.73 19.44 -47 20 C-49.04 20.66 -50.94 21.48 -52.91 22.33 C-56.84 23.59 -60.92 23.23 -65 23 C-64.18 14.17 -57.23 8.68 -50.75 3.19 C-35.76 -7.68 -16.32 -8.38 0 0 Z " fill="#F8D967" transform="translate(73,7)"/>
<path d="M0 0 C12.11 7.85 20.03 19.35 23.27 33.43 C23.56 36.54 23.61 39.62 23.59 42.74 C23.58 44 23.58 44 23.57 45.29 C23.38 55.64 20.14 63.38 15.27 72.43 C16.59 73.75 17.91 75.07 19.27 76.43 C17.71 80.25 15.44 82.79 12.27 85.43 C9.16 85.33 7.93 84.19 5.27 82.43 C4.74 82.81 4.21 83.2 3.66 83.6 C-8.36 92 -20.14 94.69 -34.73 93.43 C-49.2 90.67 -60.45 83.16 -68.86 71.23 C-77.15 58.75 -78.79 44.55 -76.07 29.91 C-72.17 17.11 -64.19 6.46 -52.66 -0.39 C-35.56 -9.24 -16.77 -9.68 0 0 Z M-58.73 7.43 C-59.35 7.96 -59.98 8.49 -60.62 9.04 C-65.75 13.71 -68.79 19.2 -71.73 25.43 C-72.07 26.13 -72.41 26.84 -72.77 27.57 C-76.93 37.75 -75.62 50.27 -72.05 60.39 C-65.9 74.46 -56.24 83.76 -42 89.53 C-30.17 93.25 -18.05 92.32 -6.73 87.43 C-2.91 85.29 0.71 82.97 4.27 80.43 C2.96 77.68 1.52 75.17 -0.23 72.68 C-0.65 72.06 -1.07 71.45 -1.51 70.82 C-2.11 70.13 -2.11 70.13 -2.73 69.43 C-3.39 69.43 -4.05 69.43 -4.73 69.43 C-5.06 68.77 -5.39 68.11 -5.73 67.43 C-5.73 69.74 -5.73 72.05 -5.73 74.43 C-8.04 74.43 -10.35 74.43 -12.73 74.43 C-12.73 71.79 -12.73 69.15 -12.73 66.43 C-13.72 66.43 -14.71 66.43 -15.73 66.43 C-15.73 69.07 -15.73 71.71 -15.73 74.43 C-18.04 74.43 -20.35 74.43 -22.73 74.43 C-22.73 71.79 -22.73 69.15 -22.73 66.43 C-23.72 66.43 -24.71 66.43 -25.73 66.43 C-25.73 69.07 -25.73 71.71 -25.73 74.43 C-28.04 74.43 -30.35 74.43 -32.73 74.43 C-32.73 71.79 -32.73 69.15 -32.73 66.43 C-33.72 66.43 -34.71 66.43 -35.73 66.43 C-35.73 69.07 -35.73 71.71 -35.73 74.43 C-38.04 74.43 -40.35 74.43 -42.73 74.43 C-42.73 71.79 -42.73 69.15 -42.73 66.43 C-43.72 66.43 -44.71 66.43 -45.73 66.43 C-45.73 69.07 -45.73 71.71 -45.73 74.43 C-48.04 74.43 -50.35 74.43 -52.73 74.43 C-52.73 71.13 -52.73 67.83 -52.73 64.43 C-51.08 64.43 -49.43 64.43 -47.73 64.43 C-47.73 61.79 -47.73 59.15 -47.73 56.43 C-45.42 56.43 -43.11 56.43 -40.73 56.43 C-40.73 59.07 -40.73 61.71 -40.73 64.43 C-39.74 64.43 -38.75 64.43 -37.73 64.43 C-37.73 61.79 -37.73 59.15 -37.73 56.43 C-35.42 56.43 -33.11 56.43 -30.73 56.43 C-30.73 59.07 -30.73 61.71 -30.73 64.43 C-29.74 64.43 -28.75 64.43 -27.73 64.43 C-27.73 61.79 -27.73 59.15 -27.73 56.43 C-25.42 56.43 -23.11 56.43 -20.73 56.43 C-20.73 59.07 -20.73 61.71 -20.73 64.43 C-19.74 64.43 -18.75 64.43 -17.73 64.43 C-17.73 61.79 -17.73 59.15 -17.73 56.43 C-15.42 56.43 -13.11 56.43 -10.73 56.43 C-10.73 59.07 -10.73 61.71 -10.73 64.43 C-9.74 64.43 -8.75 64.43 -7.73 64.43 C-7.73 61.46 -7.73 58.49 -7.73 55.43 C-5.42 55.43 -3.11 55.43 -0.73 55.43 C-0.73 57.74 -0.73 60.05 -0.73 62.43 C0.35 63 1.42 63.58 2.52 64.18 C5.6 65.91 7.78 67.93 10.27 70.43 C11.26 70.43 12.25 70.43 13.27 70.43 C20.2 57.55 24.08 44.87 20.15 30.18 C14.96 15.73 5.68 4.83 -8.22 -1.76 C-25.83 -8.81 -44.8 -5.21 -58.73 7.43 Z " fill="#0A0905" transform="translate(76.7265625,6.57421875)"/>
<path d="M0 0 C4.47 1.67 8.61 3.61 12 7 C14.72 6.79 16.41 6.59 18.38 4.62 C22.19 0.81 26.73 -0.21 31.94 -0.38 C36.07 -0.26 39.21 0.63 42.97 2.27 C46.53 3.56 50.24 3.75 54 4 C54 6.64 54 9.28 54 12 C53.01 12 52.02 12 51 12 C50.84 12.66 50.68 13.33 50.52 14.01 C50.29 14.89 50.05 15.78 49.81 16.69 C49.48 17.99 49.48 17.99 49.14 19.32 C47.62 22.88 46.1 24.66 43 27 C40.14 27.7 37.43 27.7 34.5 27.62 C33.38 27.65 33.38 27.65 32.24 27.68 C28.12 27.65 26.45 27.35 23.11 24.72 C21.34 22.44 19.91 20.41 18.69 17.81 C18.2 16.8 18.2 16.8 17.7 15.77 C17 14 17 14 17 12 C15.35 12 13.7 12 12 12 C11.45 13 10.89 14 10.32 15.03 C9.59 16.33 8.86 17.63 8.12 18.94 C7.76 19.6 7.4 20.26 7.02 20.94 C4.23 25.89 4.23 25.89 2 27 C-0.97 27.18 -3.9 27.28 -6.88 27.31 C-7.69 27.34 -8.51 27.37 -9.35 27.4 C-15.33 27.46 -15.33 27.46 -18.44 25.3 C-20.62 22.09 -21.73 18.8 -22.97 15.14 C-23.31 14.44 -23.65 13.73 -24 13 C-24.99 12.67 -25.98 12.34 -27 12 C-27 9.36 -27 6.72 -27 4 C-26.11 3.88 -25.22 3.76 -24.3 3.63 C-22.54 3.38 -22.54 3.38 -20.75 3.12 C-19.59 2.96 -18.43 2.8 -17.23 2.63 C-2.18 -0.31 -2.18 -0.31 0 0 Z " fill="#030301" transform="translate(36,26)"/>
<path d="M0 0 C2.31 0 4.62 0 7 0 C7 2.31 7 4.62 7 7 C7.56 7.06 8.11 7.12 8.69 7.19 C11.98 8.34 13.64 10.47 16 13 C16.76 13.72 17.53 14.44 18.31 15.19 C20 17 20 17 20 19 C19.01 19.33 18.02 19.66 17 20 C16.5 22.47 16.5 22.47 16 25 C12.11 21.83 8.55 18.55 5 15 C4.34 14.67 3.68 14.34 3 14 C2.67 15.65 2.34 17.3 2 19 C-0.31 19 -2.62 19 -5 19 C-5 16.36 -5 13.72 -5 11 C-5.99 11 -6.98 11 -8 11 C-8 13.64 -8 16.28 -8 19 C-10.31 19 -12.62 19 -15 19 C-15 16.36 -15 13.72 -15 11 C-15.99 11 -16.98 11 -18 11 C-18 13.64 -18 16.28 -18 19 C-20.31 19 -22.62 19 -25 19 C-25 16.36 -25 13.72 -25 11 C-25.99 11 -26.98 11 -28 11 C-28 13.64 -28 16.28 -28 19 C-30.31 19 -32.62 19 -35 19 C-35 16.36 -35 13.72 -35 11 C-35.99 11 -36.98 11 -38 11 C-38 13.64 -38 16.28 -38 19 C-40.31 19 -42.62 19 -45 19 C-45 15.7 -45 12.4 -45 9 C-43.35 9 -41.7 9 -40 9 C-40 6.36 -40 3.72 -40 1 C-37.69 1 -35.38 1 -33 1 C-33 3.64 -33 6.28 -33 9 C-32.01 9 -31.02 9 -30 9 C-30 6.36 -30 3.72 -30 1 C-27.69 1 -25.38 1 -23 1 C-23 3.64 -23 6.28 -23 9 C-22.01 9 -21.02 9 -20 9 C-20 6.36 -20 3.72 -20 1 C-17.69 1 -15.38 1 -13 1 C-13 3.64 -13 6.28 -13 9 C-12.01 9 -11.02 9 -10 9 C-10 6.36 -10 3.72 -10 1 C-7.69 1 -5.38 1 -3 1 C-3 3.64 -3 6.28 -3 9 C-2.01 9 -1.02 9 0 9 C0 6.03 0 3.06 0 0 Z " fill="#2B200B" transform="translate(69,62)"/>
<path d="M0 0 C2.31 0 4.62 0 7 0 C7 2.31 7 4.62 7 7 C7.56 7.06 8.11 7.12 8.69 7.19 C11.98 8.34 13.64 10.47 16 13 C16.76 13.72 17.53 14.44 18.31 15.19 C20 17 20 17 20 19 C19.01 19.33 18.02 19.66 17 20 C16.67 21.65 16.34 23.3 16 25 C12.11 21.84 8.5 18.6 5 15 C4.4 14.46 3.8 13.93 3.19 13.38 C0.84 10.65 2 5.5 2 2 C3.32 1.67 4.64 1.34 6 1 C4.02 1 2.04 1 0 1 C0 0.67 0 0.34 0 0 Z " fill="#6D3406" transform="translate(69,62)"/>
<path d="M0 0 C1.98 0 3.96 0 6 0 C6 2.64 6 5.28 6 8 C6.99 8 7.98 8 9 8 C9 5.36 9 2.72 9 0 C10.98 0 12.96 0 15 0 C15 2.31 15 4.62 15 7 C14.67 7 14.34 7 14 7 C14 5.02 14 3.04 14 1 C13.01 1 12.02 1 11 1 C11 3.31 11 5.62 11 8 C11.66 8.33 12.32 8.66 13 9 C12.67 9.33 12.34 9.66 12 10 C11.77 11.35 11.59 12.7 11.44 14.06 C11.29 15.36 11.15 16.66 11 18 C8.69 18 6.38 18 4 18 C4 15.03 4 12.06 4 9 C3.01 8.67 2.02 8.34 1 8 C1.99 8 2.98 8 4 8 C4 5.69 4 3.38 4 1 C2.68 1.33 1.36 1.66 0 2 C0 1.34 0 0.68 0 0 Z " fill="#291F0A" transform="translate(60,63)"/>
<path d="M0 0 C1 2 1 2 0.33 4.17 C-0.03 5.02 -0.38 5.87 -0.75 6.75 C-1.12 7.65 -1.49 8.54 -1.87 9.47 C-3 12 -3 12 -4.81 15.25 C-6.31 17.99 -6.31 17.99 -5.38 21.06 C-5.25 22.03 -5.13 23 -5 24 C-7.44 26.88 -7.44 26.88 -10 29 C-10.99 28.34 -11.98 27.68 -13 27 C-13.19 23.88 -13.19 23.88 -13 21 C-11.68 20.67 -10.36 20.34 -9 20 C-9 19.34 -9 18.68 -9 18 C-9.99 17.67 -10.98 17.34 -12 17 C-13.19 14.94 -13.19 14.94 -14 13 C-13.01 13.33 -12.02 13.66 -11 14 C-11 14.66 -11 15.32 -11 16 C-10.01 16 -9.02 16 -8 16 C-6.98 13.46 -5.97 10.92 -5 8.36 C-4.67 7.5 -4.34 6.64 -4 5.75 C-3.67 4.88 -3.34 4.01 -3 3.11 C-2 1 -2 1 0 0 Z " fill="#100F07" transform="translate(98,61)"/>
<path d="M0 0 C1.65 0.33 3.3 0.66 5 1 C5 3.97 5 6.94 5 10 C4.01 10 3.02 10 2 10 C2 12.64 2 15.28 2 18 C0.35 17.67 -1.3 17.34 -3 17 C-3 14.03 -3 11.06 -3 8 C-2.01 8 -1.02 8 0 8 C0 5.36 0 2.72 0 0 Z " fill="#34290F" transform="translate(49,63)"/>
<path d="M0 0 C1.98 0 3.96 0 6 0 C6 5.61 6 11.22 6 17 C6.99 17 7.98 17 9 17 C9 14.69 9 12.38 9 10 C9.33 10 9.66 10 10 10 C10 12.64 10 15.28 10 18 C8.02 18 6.04 18 4 18 C4 15.03 4 12.06 4 9 C3.01 8.67 2.02 8.34 1 8 C1.99 8 2.98 8 4 8 C4 5.69 4 3.38 4 1 C2.68 1.33 1.36 1.66 0 2 C0 1.34 0 0.68 0 0 Z " fill="#1B1206" transform="translate(60,63)"/>
<path d="M0 0 C1.98 0 3.96 0 6 0 C6 5.61 6 11.22 6 17 C6.99 17 7.98 17 9 17 C9 15.02 9 13.04 9 11 C9.33 11 9.66 11 10 11 C10 13.31 10 15.62 10 18 C8.02 18 6.04 18 4 18 C3.23 12.09 2.85 6.87 4 1 C2.68 1.33 1.36 1.66 0 2 C0 1.34 0 0.68 0 0 Z " fill="#201307" transform="translate(30,63)"/>
<path d="M0 0 C2.31 0 4.62 0 7 0 C7 2.31 7 4.62 7 7 C7.66 7.33 8.32 7.66 9 8 C7.35 9.98 5.7 11.96 4 14 C1.32 9.98 2 6.81 2 2 C3.32 1.67 4.64 1.34 6 1 C4.02 1 2.04 1 0 1 C0 0.67 0 0.34 0 0 Z " fill="#B7A44D" transform="translate(69,62)"/>
<path d="M0 0 C3.79 0.54 5.55 2.12 8 5 C8 5.66 8 6.32 8 7 C7.01 7.33 6.02 7.66 5 8 C4.67 9.65 4.34 11.3 4 13 C3.34 12.67 2.68 12.34 2 12 C1.61 9.68 1.49 7.38 1.34 5.03 C1.23 4.36 1.12 3.69 1 3 C0.34 2.67 -0.32 2.34 -1 2 C-0.67 1.34 -0.34 0.68 0 0 Z " fill="#E3690A" transform="translate(81,74)"/>
<path d="M0 0 C-1.48 4.68 -1.48 4.68 -4.12 6.31 C-5.05 6.65 -5.05 6.65 -6 7 C-6.69 4.51 -7 2.62 -7 0 C-3.99 -0.93 -3.13 -1.04 0 0 Z " fill="#B3784E" transform="translate(93,83)"/>
<path d="M0 0 C1.98 0 3.96 0 6 0 C6 3.3 6 6.6 6 10 C5.01 9.67 4.02 9.34 3 9 C3.33 6.36 3.66 3.72 4 1 C2.68 1.33 1.36 1.66 0 2 C0 1.34 0 0.68 0 0 Z " fill="#20180A" transform="translate(50,63)"/>
<path d="M0 0 C0.99 0 1.98 0 3 0 C3 2.31 3 4.62 3 7 C2.01 7 1.02 7 0 7 C0 4.69 0 2.38 0 0 Z " fill="#DA650A" transform="translate(56,73)"/>
<path d="M0 0 C0.99 0 1.98 0 3 0 C3 2.31 3 4.62 3 7 C2.01 7 1.02 7 0 7 C0 4.69 0 2.38 0 0 Z " fill="#DB650A" transform="translate(46,73)"/>
<path d="M0 0 C0.99 0 1.98 0 3 0 C3 2.31 3 4.62 3 7 C2.01 7 1.02 7 0 7 C0 4.69 0 2.38 0 0 Z " fill="#DB650A" transform="translate(36,73)"/>
<path d="M0 0 C0.99 0 1.98 0 3 0 C3 2.31 3 4.62 3 7 C2.01 7 1.02 7 0 7 C0 4.69 0 2.38 0 0 Z " fill="#D9640A" transform="translate(26,73)"/>
<path d="M0 0 C0.99 0 1.98 0 3 0 C3 2.31 3 4.62 3 7 C2.01 7 1.02 7 0 7 C0 4.69 0 2.38 0 0 Z " fill="#DA650A" transform="translate(66,73)"/>
<path d="M0 0 C0.99 0 1.98 0 3 0 C3 2.31 3 4.62 3 7 C2.01 7 1.02 7 0 7 C0 4.69 0 2.38 0 0 Z " fill="#DF670A" transform="translate(71,64)"/>
<path d="M0 0 C0.99 0 1.98 0 3 0 C3 2.31 3 4.62 3 7 C2.01 7 1.02 7 0 7 C0 4.69 0 2.38 0 0 Z " fill="#DE670A" transform="translate(41,64)"/>
<path d="M0 0 C0.99 0 1.98 0 3 0 C3 2.31 3 4.62 3 7 C2.01 7 1.02 7 0 7 C0 4.69 0 2.38 0 0 Z " fill="#DD670A" transform="translate(31,64)"/>
<path d="M0 0 C0.99 0 1.98 0 3 0 C3 2.31 3 4.62 3 7 C2.01 7 1.02 7 0 7 C0 4.69 0 2.38 0 0 Z " fill="#DB660A" transform="translate(61,64)"/>
<path d="M0 0 C0.99 0 1.98 0 3 0 C3 2.31 3 4.62 3 7 C2.01 7 1.02 7 0 7 C0 4.69 0 2.38 0 0 Z " fill="#DF670A" transform="translate(51,64)"/>
<path d="M0 0 C0.33 0 0.66 0 1 0 C1 1.98 1 3.96 1 6 C0.01 6.33 -0.98 6.66 -2 7 C-2.73 9.02 -2.73 9.02 -3 11 C-3.33 10.34 -3.66 9.68 -4 9 C-3.22 6.84 -3.22 6.84 -2.06 4.38 C-1.68 3.56 -1.3 2.74 -0.91 1.9 C-0.61 1.27 -0.31 0.65 0 0 Z " fill="#CEB756" transform="translate(7,28)"/>
<path d="M0 0 C0.99 0.33 1.98 0.66 3 1 C3 2.98 3 4.96 3 7 C1.68 6.01 0.36 5.02 -1 4 C-0.67 2.68 -0.34 1.36 0 0 Z " fill="#A64D07" transform="translate(80,78)"/>
<path d="M0 0 C0.66 0.66 1.32 1.32 2 2 C0.35 2.33 -1.3 2.66 -3 3 C-3 3.99 -3 4.98 -3 6 C-2.01 6.33 -1.02 6.66 0 7 C-1.32 7.33 -2.64 7.66 -4 8 C-4 6.02 -4 4.04 -4 2 C-2.68 1.34 -1.36 0.68 0 0 Z " fill="#633E22" transform="translate(89,80)"/>
<path d="M0 0 C1.65 0.33 3.3 0.66 5 1 C4 3 4 3 0.94 4.12 C-0.03 4.41 -1 4.7 -2 5 C-1.34 3.35 -0.68 1.7 0 0 Z " fill="#D1B956" transform="translate(48,37)"/>
<path d="M0 0 C0.66 0.66 1.32 1.32 2 2 C1.01 3.65 0.02 5.3 -1 7 C-1.66 6.67 -2.32 6.34 -3 6 C-2.43 3.13 -2.14 2.14 0 0 Z " fill="#E36A0A" transform="translate(78,71)"/>
<path d="" fill="#808080" transform="translate(0,0)"/>
</svg>
