<?xml version="1.0" encoding="UTF-8"?>
<!-- Generator: https://ezgif.com/webp-to-svg -->
<svg version="1.1" xmlns="http://www.w3.org/2000/svg" width="50" height="50">
<path d="M0 0 C-0.07 0.75 -0.14 1.5 -0.22 2.27 C-0.36 3.74 -0.36 3.74 -0.5 5.25 C-0.64 6.71 -0.64 6.71 -0.78 8.2 C-0.96 10.46 -1 12.73 -1 15 C-2.64 25.75 -2.64 25.75 -6.44 29.25 C-12.51 30.53 -19.06 30.98 -25 29 C-24.48 26.24 -23.89 23.67 -23 21 C-24.32 20.67 -25.64 20.34 -27 20 C-27.95 23.7 -27.95 26.3 -27 30 C-27.7 29.67 -28.4 29.34 -29.12 29 C-32.26 27.91 -34.71 27.85 -38 28 C-38.66 26.35 -39.32 24.7 -40 23 C-40.35 23.66 -40.7 24.32 -41.06 25 C-41.7 25.66 -42.34 26.32 -43 27 C-45.31 27 -47.62 27 -50 27 C-50 19.74 -50 12.48 -50 5 C-47.36 4.67 -44.72 4.34 -42 4 C-41.67 6.97 -41.34 9.94 -41 13 C-40.01 12.01 -39.02 11.02 -38 10 C-37.34 10 -36.68 10 -36 10 C-35.01 11.48 -35.01 11.48 -34 13 C-32.68 9.7 -31.36 6.4 -30 3 C-27.36 3 -24.72 3 -22 3 C-22.57 8.54 -24.63 13.04 -27 18 C-24.98 17.36 -24.98 17.36 -23 16 C-22.08 13.67 -22.08 13.67 -21.75 11 C-21.6 10.11 -21.45 9.23 -21.3 8.31 C-20.96 6.06 -20.96 6.06 -21 4 C-14.15 0.97 -7.5 0 0 0 Z M-11 6 C-11.66 8.64 -12.32 11.28 -13 14 C-11.02 13.34 -9.04 12.68 -7 12 C-7.99 11.67 -8.98 11.34 -10 11 C-10 9.35 -10 7.7 -10 6 C-10.33 6 -10.66 6 -11 6 Z M-13 16 C-13.66 18.97 -14.32 21.94 -15 25 C-14.34 25 -13.68 25 -13 25 C-12.67 22.03 -12.34 19.06 -12 16 C-12.33 16 -12.66 16 -13 16 Z " fill="#FEFEFE" transform="translate(50,11)"/>
<path d="M0 0 C0.66 0 1.32 0 2 0 C2 0.99 2 1.98 2 3 C3.32 3 4.64 3 6 3 C6 3.66 6 4.32 6 5 C5.01 5.5 5.01 5.5 4 6 C3.34 8.53 3.34 8.53 3 11 C2.24 10.81 1.47 10.63 0.69 10.44 C-2.09 9.77 -2.09 9.77 -5 11 C-4.67 9.35 -4.34 7.7 -4 6 C-4.66 6 -5.32 6 -6 6 C-6 5.34 -6 4.68 -6 4 C-5.38 3.9 -4.76 3.79 -4.12 3.69 C-1.63 3.12 -1.63 3.12 0 0 Z " fill="#F53F3F" transform="translate(14,9)"/>
</svg>
