<?xml version="1.0" encoding="utf-8"?>
<svg xmlns="http://www.w3.org/2000/svg" width="800" height="800" viewBox="0 0 800 800" fill="none">
<g clip-path="url(#clip0_1175_2743)">
<path d="M518.446 185.541C597.684 190.62 672.691 236.898 672.691 236.898C532.99 90.4438 301.771 49.1035 194.977 219.967C194.977 219.967 110.365 238.591 46.3799 298.98C375.36 336.793 171.674 581.449 328.046 799.861H381.146C360.382 762.754 349.085 719.719 350.777 673.865C355.442 547.585 460.109 445.012 586.524 442.754C677.928 441.06 757.875 490.444 799.975 564.094V484.376C711.818 243.107 518.446 185.541 518.446 185.541Z" fill="white"/>
<path d="M365.066 217.419C366.758 221.934 367.879 226.732 367.879 231.811C367.879 253.963 349.951 271.882 327.768 271.882C305.586 271.882 287.658 253.963 287.658 231.811C287.658 226.59 288.778 221.652 290.47 216.996C279.745 219.395 270.141 222.922 262.503 227.719C262.228 231.105 262.228 234.634 262.8 238.16C267.877 272.586 300.944 298.547 336.664 295.585C372.407 292.482 403.759 265.673 406.732 236.185C406.869 234.492 406.869 232.94 406.732 231.247C395.435 225.462 381.165 220.664 365.066 217.419Z" fill="#0069FF"/>
<path opacity="0.35" d="M46.3799 298.981C122.371 307.729 169.845 327.481 200.053 355.419C218.714 346.106 239.615 331.716 249.631 319.016C205.999 275.419 194.977 219.969 194.977 219.969C194.84 219.969 110.365 238.452 46.3799 298.981Z" fill="#0069FF"/>
<path opacity="0.35" d="M380.997 799.862C360.233 762.755 348.936 719.723 350.629 673.866C353.03 607.553 383.124 547.728 429.455 505.683C401.624 381.097 246.533 269.492 46.2314 298.982C375.212 336.794 171.526 581.45 327.898 799.862H380.997Z" fill="#0069FF"/>
<path d="M800 735.943C800 771.075 771.163 800 735.855 800H381.034C360.269 762.891 348.972 719.859 350.665 674.004C355.33 547.725 459.997 445.149 586.412 442.893C677.816 441.2 757.762 490.581 799.84 564.232V735.943H800ZM46.4049 298.978C110.39 238.447 195.002 219.964 195.002 219.964C301.796 49.1006 533.015 90.4409 672.716 236.895C672.716 236.895 597.709 190.758 518.471 185.538C518.471 185.538 711.843 243.104 800 484.515V64.0563C800 28.9242 771.163 0 735.855 0L63.213 0C28.0418 0 -0.90918 28.783 -0.90918 64.0563L-0.90918 735.943C-0.90918 771.075 27.9046 800 63.213 800H328.071C171.699 581.447 375.385 336.791 46.4049 298.978Z" fill="#2A82FF"/>
</g>
<defs>
<clipPath id="clip0_1175_2743">
<rect width="800" height="800" fill="white"/>
</clipPath>
</defs>
</svg>