<?xml version="1.0" encoding="UTF-8"?>
<!-- Generator: https://ezgif.com/png-to-svg -->
<svg version="1.1" xmlns="http://www.w3.org/2000/svg" width="512" height="512" viewBox="496.985 77.56 922.88 922.88" preserveAspectRatio="xMidYMid meet">
<path d="M0 0 C0.99 0.33 1.98 0.66 3 1 C3 1.66 3 2.32 3 3 C3.58 3.26 4.16 3.53 4.76 3.8 C10.7 6.98 15.45 12.39 20.14 17.17 C21.88 18.88 23.67 20.46 25.53 22.03 C31.47 27.19 36.92 32.86 42.44 38.46 C43.85 39.89 45.27 41.32 46.69 42.75 C47.52 43.59 48.35 44.43 49.2 45.3 C51.25 47.28 53.31 49.13 55.48 50.98 C61.84 56.51 67.71 62.56 73.66 68.53 C74.98 69.84 76.29 71.16 77.61 72.48 C80.36 75.22 83.11 77.97 85.85 80.72 C89.36 84.23 92.86 87.73 96.37 91.24 C99.09 93.95 101.8 96.67 104.52 99.38 C105.81 100.67 107.1 101.97 108.39 103.26 C120.57 115.42 120.57 115.42 125.73 121.51 C127.38 123.45 129.17 125.23 131 127 C134.27 130.22 137.29 133.59 140.29 137.07 C141.96 138.95 143.7 140.73 145.5 142.5 C148.53 145.49 151.34 148.61 154.12 151.83 C156.22 154.25 158.35 156.63 160.5 159 C171.35 171.03 181.83 183.39 192 196 C192.7 196.86 193.39 197.72 194.11 198.61 C194.76 199.42 195.4 200.23 196.06 201.06 C196.63 201.78 197.2 202.49 197.79 203.22 C199 205 199 205 199 207 C211.78 199.92 224.16 192.58 236 184 C236.8 183.43 237.59 182.85 238.41 182.26 C242.78 179.04 247.02 175.63 251.25 172.22 C252.97 170.83 254.71 169.45 256.45 168.08 C263.59 162.39 270.08 156.23 276.5 149.76 C278.19 148.06 279.89 146.37 281.59 144.68 C287.84 138.44 293.68 132.08 299 125 C299.73 124.03 300.46 123.07 301.21 122.07 C303.15 119.39 305.08 116.7 307 114 C307.7 113.05 308.4 112.1 309.12 111.12 C315.98 101.57 321.49 91.36 327 81 C327.99 81 328.98 81 330 81 C353 149.22 346.64 224.86 319 291 C318.16 293.07 317.33 295.15 316.5 297.22 C311.83 308.74 306.88 320.04 301 331 C300.63 331.69 300.26 332.38 299.88 333.1 C295.06 342.03 289.99 350.83 284.81 359.56 C284.34 360.37 283.86 361.18 283.37 362.01 C277.53 371.78 272.61 378.68 262 383.38 C261.01 383.83 260.03 384.28 259.01 384.75 C246.86 390.18 234.28 394.5 221.69 398.75 C218.34 399.88 215.01 401.03 211.67 402.19 C197.68 406.99 183.51 411.1 169.26 415.08 C166.27 415.92 163.28 416.79 160.3 417.66 C151.39 420.27 142.46 422.7 133.44 424.88 C132.55 425.09 131.66 425.31 130.75 425.53 C129.92 425.72 129.1 425.92 128.25 426.12 C127.52 426.29 126.8 426.46 126.05 426.64 C124 427 124 427 120 427 C119.77 426.44 119.55 425.89 119.32 425.31 C116.98 419.55 114.62 413.8 112.26 408.06 C111.46 406.12 110.67 404.19 109.88 402.25 C102.01 382.89 92.05 364.73 81 347 C80.65 346.43 80.3 345.87 79.94 345.29 C71.04 331.01 61.2 317.36 51 304 C50.19 302.93 49.38 301.86 48.57 300.8 C41.36 291.3 33.81 282.11 25.9 273.18 C23.93 270.92 22.02 268.62 20.1 266.32 C14.71 259.85 9.06 253.86 3 248 C2 247 1 246 0 245 C-3.94 248.84 -7.59 252.68 -11 257 C-12.67 258.67 -14.33 260.33 -16 262 C-18.37 264.63 -20.69 267.31 -23 270 C-23.74 270.85 -23.74 270.85 -24.5 271.72 C-28.09 275.86 -31.53 280.12 -34.94 284.41 C-36.91 286.88 -38.89 289.35 -40.88 291.81 C-49.54 302.67 -57.75 313.75 -65.7 325.15 C-66.76 326.66 -67.84 328.17 -68.93 329.67 C-88.79 357.22 -103.7 387.92 -116 419.44 C-116.99 421.96 -117.99 424.48 -119 427 C-126.72 426.3 -134.12 424.4 -141.62 422.5 C-142.32 422.32 -143.02 422.15 -143.74 421.97 C-157.79 418.43 -171.64 414.37 -185.48 410.08 C-188.82 409.06 -192.15 408.06 -195.5 407.07 C-217.76 400.46 -240 393.01 -261.12 383.31 C-262.49 382.71 -262.49 382.71 -263.89 382.09 C-274.22 377.13 -278.96 367.8 -284.5 358.19 C-285.07 357.21 -285.63 356.24 -286.22 355.24 C-287.33 353.33 -288.44 351.42 -289.54 349.51 C-290.72 347.49 -291.91 345.47 -293.11 343.46 C-308.78 317.28 -322.15 287.18 -329.37 257.57 C-330.13 254.45 -330.94 251.35 -331.74 248.24 C-344.65 197.99 -354.15 128.8 -328 81 C-325 82 -325 82 -323.75 84.16 C-323.31 85.12 -322.88 86.08 -322.44 87.06 C-313.44 105.71 -300.9 123.33 -286.6 138.26 C-284.55 140.42 -282.6 142.62 -280.66 144.88 C-277.13 148.93 -273.37 152.65 -269.44 156.31 C-268.75 156.96 -268.06 157.6 -267.34 158.27 C-261.84 163.35 -256.12 168.04 -250.17 172.58 C-247.36 174.73 -244.61 176.94 -241.88 179.19 C-236.49 183.5 -230.79 187.27 -225 191 C-223.64 191.88 -223.64 191.88 -222.25 192.78 C-220.46 193.92 -218.67 195.06 -216.88 196.18 C-214.75 197.53 -212.65 198.89 -210.56 200.29 C-209.4 201.04 -208.23 201.8 -207.06 202.56 C-206 203.27 -204.94 203.97 -203.85 204.69 C-201.2 206.24 -201.2 206.24 -198.94 205.61 C-196.16 203.3 -194.08 200.56 -191.94 197.69 C-190.96 196.42 -189.99 195.15 -189.01 193.88 C-188.51 193.23 -188.02 192.59 -187.51 191.92 C-181.32 184.03 -174.63 176.52 -168 169 C-166.83 167.67 -165.67 166.33 -164.5 165 C-163.95 164.38 -163.41 163.75 -162.84 163.11 C-161.69 161.78 -160.53 160.46 -159.38 159.13 C-155.33 154.47 -151.18 149.92 -146.94 145.44 C-145.61 144.03 -144.29 142.62 -142.96 141.21 C-142.3 140.51 -141.64 139.8 -140.95 139.08 C-138.58 136.56 -136.23 134.03 -133.87 131.5 C-132.16 129.67 -130.45 127.83 -128.73 126 C-126.42 123.53 -124.12 121.05 -121.83 118.57 C-109.52 105.29 -96.69 92.54 -83.88 79.75 C-80.62 76.5 -77.37 73.25 -74.12 69.99 C-71.59 67.45 -69.05 64.91 -66.51 62.38 C-65.31 61.18 -64.11 59.98 -62.91 58.78 C-57.27 53.13 -51.64 47.5 -45.55 42.33 C-43.23 40.34 -41.13 38.18 -39 36 C-36.4 33.37 -33.79 30.75 -31.19 28.12 C-30.51 27.44 -29.84 26.76 -29.15 26.06 C-25.15 22.04 -21.04 18.23 -16.75 14.53 C-14.7 12.74 -12.81 10.84 -10.94 8.88 C-7.51 5.41 -4.17 2.53 0 0 Z " fill="#F42A40" transform="translate(959,342)"/>
<path d="M0 0 C1.13 2.26 1.13 3.49 1.15 6 C1.15 6.85 1.16 7.69 1.17 8.55 C1.17 9.49 1.17 10.42 1.17 11.37 C1.18 12.36 1.19 13.34 1.19 14.36 C1.21 17.68 1.23 21 1.24 24.31 C1.25 26.69 1.27 29.06 1.28 31.43 C1.32 39.24 1.35 47.04 1.38 54.85 C1.38 55.52 1.38 56.18 1.39 56.86 C1.43 70.04 1.47 83.23 1.5 96.41 C1.5 99.31 1.51 102.21 1.51 105.1 C1.52 106.19 1.52 106.19 1.52 107.29 C1.55 118.96 1.6 130.62 1.67 142.29 C1.74 154.27 1.78 166.24 1.79 178.22 C1.8 184.95 1.82 191.67 1.88 198.4 C1.93 204.73 1.94 211.05 1.92 217.38 C1.92 219.7 1.94 222.03 1.97 224.35 C2 227.52 1.99 230.69 1.97 233.86 C1.99 234.78 2.01 235.7 2.04 236.64 C1.93 242.03 0.93 244.61 -2.92 248.47 C-4.28 249.65 -5.64 250.83 -7 252 C-8.35 253.66 -9.68 255.32 -11 257 C-12.67 258.67 -14.33 260.33 -16 262 C-18.37 264.63 -20.69 267.31 -23 270 C-23.74 270.85 -23.74 270.85 -24.5 271.72 C-28.09 275.86 -31.53 280.12 -34.94 284.41 C-36.91 286.88 -38.89 289.35 -40.88 291.81 C-49.54 302.67 -57.75 313.75 -65.7 325.15 C-66.76 326.66 -67.84 328.17 -68.93 329.67 C-88.79 357.22 -103.7 387.92 -116 419.44 C-116.99 421.96 -117.99 424.48 -119 427 C-126.72 426.3 -134.12 424.4 -141.62 422.5 C-142.32 422.32 -143.02 422.15 -143.74 421.97 C-157.79 418.43 -171.64 414.37 -185.48 410.08 C-188.82 409.06 -192.15 408.06 -195.5 407.07 C-217.76 400.46 -240 393.01 -261.12 383.31 C-262.49 382.71 -262.49 382.71 -263.89 382.09 C-274.22 377.13 -278.96 367.8 -284.5 358.19 C-285.07 357.21 -285.63 356.24 -286.22 355.24 C-287.33 353.33 -288.44 351.42 -289.54 349.51 C-290.72 347.49 -291.91 345.47 -293.11 343.46 C-308.78 317.28 -322.15 287.18 -329.37 257.57 C-330.13 254.45 -330.94 251.35 -331.74 248.24 C-344.65 197.99 -354.15 128.8 -328 81 C-325 82 -325 82 -323.75 84.16 C-323.31 85.12 -322.88 86.08 -322.44 87.06 C-313.44 105.71 -300.9 123.33 -286.6 138.26 C-284.55 140.42 -282.6 142.62 -280.66 144.88 C-277.13 148.93 -273.37 152.65 -269.44 156.31 C-268.75 156.96 -268.06 157.6 -267.34 158.27 C-261.84 163.35 -256.12 168.04 -250.17 172.58 C-247.36 174.73 -244.61 176.94 -241.88 179.19 C-236.49 183.5 -230.79 187.27 -225 191 C-223.64 191.88 -223.64 191.88 -222.25 192.78 C-220.46 193.92 -218.67 195.06 -216.88 196.18 C-214.75 197.53 -212.65 198.89 -210.56 200.29 C-209.4 201.04 -208.23 201.8 -207.06 202.56 C-206 203.27 -204.94 203.97 -203.85 204.69 C-201.2 206.24 -201.2 206.24 -198.94 205.61 C-196.16 203.3 -194.08 200.56 -191.94 197.69 C-190.96 196.42 -189.99 195.15 -189.01 193.88 C-188.51 193.23 -188.02 192.59 -187.51 191.92 C-181.32 184.03 -174.63 176.52 -168 169 C-166.83 167.67 -165.67 166.33 -164.5 165 C-163.95 164.38 -163.41 163.75 -162.84 163.11 C-161.69 161.78 -160.53 160.46 -159.38 159.13 C-155.33 154.47 -151.18 149.92 -146.94 145.44 C-145.61 144.03 -144.29 142.62 -142.96 141.21 C-142.3 140.51 -141.64 139.8 -140.95 139.08 C-138.58 136.56 -136.23 134.03 -133.87 131.5 C-132.16 129.67 -130.45 127.83 -128.73 126 C-126.42 123.53 -124.12 121.05 -121.83 118.57 C-109.52 105.29 -96.69 92.54 -83.88 79.75 C-80.62 76.5 -77.37 73.25 -74.12 69.99 C-71.59 67.45 -69.05 64.91 -66.51 62.38 C-65.31 61.18 -64.11 59.98 -62.91 58.78 C-57.27 53.13 -51.64 47.5 -45.55 42.33 C-43.23 40.34 -41.13 38.18 -39 36 C-36.4 33.37 -33.79 30.75 -31.19 28.12 C-30.51 27.44 -29.84 26.76 -29.15 26.06 C-25.15 22.04 -21.04 18.23 -16.75 14.53 C-14.7 12.74 -12.81 10.84 -10.94 8.88 C-7.54 5.42 -4.03 2.69 0 0 Z " fill="#1FABF7" transform="translate(959,342)"/>
<path d="M0 0 C3.35 2.65 4.28 6.09 5.53 10.01 C5.89 11.08 5.89 11.08 6.25 12.18 C7.01 14.49 7.75 16.81 8.5 19.12 C8.97 20.57 9.44 22.01 9.91 23.45 C11.61 28.63 13.31 33.82 15 39 C18.63 49.89 22.26 60.78 26 72 C64.12 72.5 64.12 72.5 103 73 C103.33 73.66 103.66 74.32 104 75 C100.58 78.75 97.02 81.4 92.77 84.15 C89.37 86.42 86.1 88.82 82.81 91.25 C77.82 94.94 72.81 98.59 67.75 102.19 C62.62 105.84 57.51 109.53 52.42 113.24 C49.3 115.51 46.15 117.76 43 120 C43.65 125.93 45.17 131.37 46.94 137.06 C47.24 138.04 47.54 139.02 47.85 140.03 C51.32 151.2 55.04 162.28 58.77 173.37 C59.15 174.51 59.53 175.65 59.93 176.83 C60.6 178.81 61.27 180.79 61.96 182.77 C64.4 189.9 64.4 189.9 64 194 C55.66 194 45.59 183.5 39.01 178.5 C33.78 174.55 28.44 170.79 23.03 167.09 C20.06 165.04 17.15 162.94 14.25 160.81 C9.59 157.4 4.84 154.15 0 151 C-5.98 155.32 -11.93 159.68 -17.86 164.06 C-29.07 172.35 -40.36 180.5 -51.81 188.46 C-53.89 189.93 -55.95 191.43 -58 192.94 C-61 195 -61 195 -63 195 C-62.46 187.84 -60.83 181.6 -58.56 174.81 C-58.22 173.75 -57.87 172.69 -57.51 171.6 C-56.35 168.06 -55.18 164.53 -54 161 C-53.56 159.67 -53.12 158.35 -52.68 157.02 C-49.02 146.03 -49.02 146.03 -47.33 141.01 C-46.92 139.81 -46.52 138.61 -46.1 137.37 C-45.74 136.31 -45.39 135.25 -45.02 134.15 C-42.07 126.6 -42.07 126.6 -43 119 C-45.33 117.1 -47.54 115.53 -50.06 113.94 C-51.53 112.97 -53 112 -54.46 111.03 C-55.22 110.53 -55.97 110.04 -56.75 109.52 C-60.3 107.12 -63.71 104.54 -67.12 101.94 C-75.93 95.27 -84.8 88.7 -94.06 82.69 C-97.5 80.44 -100.24 78.03 -103 75 C-102.5 74.01 -102.5 74.01 -102 73 C-76.59 72.67 -51.18 72.34 -25 72 C-16.34 46.05 -16.34 46.05 -8 20 C-6.78 16.5 -5.55 13.03 -4.25 9.56 C-3.8 8.32 -3.8 8.32 -3.33 7.06 C-1.13 1.13 -1.13 1.13 0 0 Z " fill="#EBF7FD" transform="translate(959,127)"/>
<path d="M0 0 C7.17 0.47 13 2.74 19.56 5.56 C20.62 6.01 21.68 6.46 22.77 6.92 C31.12 10.51 39.14 14.46 47 19 C47.9 19.52 48.81 20.04 49.74 20.58 C55.92 24.23 61.96 28.12 68 32 C68.13 30.62 68.13 30.62 68.25 29.2 C69.03 23.81 71.04 18.83 72.94 13.75 C73.48 12.26 73.48 12.26 74.03 10.74 C76.73 3.41 76.73 3.41 79 0 C79.66 0 80.32 0 81 0 C82.45 6.28 83.13 12.31 83.21 18.76 C83.24 20.14 83.27 21.52 83.3 22.9 C83.35 25.02 83.37 27.13 83.35 29.25 C83.25 38.26 83.25 38.26 87.59 45.87 C90.63 48.17 93.68 50.12 97 52 C98.8 53.16 100.59 54.33 102.38 55.5 C103.29 56.06 104.2 56.63 105.13 57.21 C107.1 58.44 109.05 59.7 110.99 60.98 C126.16 70.98 141.74 80.36 158.88 86.55 C159.66 86.84 160.44 87.12 161.24 87.41 C161.92 87.65 162.6 87.89 163.3 88.13 C165 89 165 89 167 92 C166.67 92.66 166.34 93.32 166 94 C163.58 94.76 161.22 95.38 158.75 95.94 C158 96.11 157.25 96.28 156.48 96.46 C135.27 101.13 113.77 102.82 92.12 101.49 C91.33 101.45 90.55 101.4 89.74 101.35 C87.83 101.23 85.91 101.12 84 101 C84.17 102.03 84.34 103.06 84.52 104.11 C87.01 119.08 89.51 134.04 92 149 C87.08 148.33 85.51 146.88 82.51 143.11 C79.86 139.4 77.61 135.51 75.44 131.5 C74.96 130.63 74.48 129.75 73.99 128.85 C70.04 121.44 67.24 114.09 65 106 C64.63 104.69 64.25 103.39 63.88 102.08 C63.59 101.06 63.3 100.05 63 99 C62.18 98.86 62.18 98.86 61.35 98.71 C58.86 98.27 56.37 97.79 53.88 97.31 C53.02 97.16 52.16 97.01 51.28 96.86 C43.93 95.42 39.57 92.66 35.19 86.44 C33.53 84.1 31.86 81.84 30.04 79.62 C13.23 58.78 -1.09 27.28 0 0 Z " fill="#F9FBFB" transform="translate(730,802)"/>
<path d="M0 0 C0.99 0 1.98 0 3 0 C3.7 1.93 4.38 3.87 5.06 5.81 C5.45 6.89 5.83 7.97 6.22 9.08 C7 12 7 12 6 15 C4.02 10.05 4.02 10.05 2 5 C1.89 6.26 1.78 7.52 1.67 8.82 C1.16 14.55 0.59 20.28 0 26 C-0.1 26.93 -0.19 27.87 -0.29 28.83 C-1.66 41.52 -4.11 53.34 -8.15 65.45 C-9.04 68.13 -9.91 70.83 -10.77 73.53 C-11.37 75.38 -11.96 77.22 -12.56 79.06 C-12.83 79.89 -13.1 80.73 -13.38 81.58 C-15.49 87.94 -18.14 93.95 -21 100 C-21.42 100.9 -21.84 101.79 -22.27 102.72 C-37.92 136.11 -56.29 166.91 -79 196 C-79.55 196.78 -80.09 197.55 -80.65 198.36 C-81.32 199.17 -81.32 199.17 -82 200 C-82.66 200 -83.32 200 -84 200 C-84.43 199.11 -84.85 198.22 -85.29 197.31 C-97.41 172.4 -111.7 148.67 -129 127 C-128.51 126.01 -128.51 126.01 -128 125 C-127.17 124.73 -126.33 124.47 -125.47 124.19 C-121.05 122.67 -117.39 120.41 -113.44 117.94 C-112.25 117.2 -112.25 117.2 -111.04 116.46 C-98.73 108.78 -87.03 100.34 -75.75 91.22 C-74.03 89.83 -72.29 88.45 -70.55 87.08 C-63.41 81.39 -56.92 75.23 -50.5 68.76 C-48.81 67.06 -47.11 65.37 -45.41 63.68 C-39.16 57.44 -33.32 51.08 -28 44 C-26.9 42.55 -26.9 42.55 -25.79 41.07 C-23.85 38.39 -21.92 35.7 -20 33 C-19.3 32.05 -18.6 31.1 -17.88 30.12 C-11.02 20.57 -5.51 10.36 0 0 Z " fill="#A31F27" transform="translate(1286,423)"/>
<path d="M0 0 C2.06 2.53 3.71 5.17 5.3 8 C5.72 8.74 6.14 9.49 6.57 10.25 C7.44 11.79 8.3 13.34 9.15 14.89 C11.71 19.37 13.53 21.36 18 24 C20.4 26.84 22.5 29.89 24.62 32.94 C29.53 39.79 34.58 46.18 40.4 52.26 C42.45 54.42 44.4 56.62 46.34 58.88 C49.87 62.93 53.63 66.65 57.56 70.31 C58.6 71.28 58.6 71.28 59.66 72.27 C65.16 77.35 70.88 82.04 76.83 86.58 C79.64 88.73 82.39 90.94 85.12 93.19 C90.51 97.5 96.21 101.27 102 105 C102.91 105.59 103.82 106.17 104.75 106.78 C108.63 109.27 112.53 111.72 116.47 114.11 C117.06 114.47 117.65 114.82 118.25 115.19 C119.91 116.2 121.58 117.2 123.25 118.2 C125.5 119.67 127.23 121.01 129 123 C128.67 123.66 128.34 124.32 128 125 C127.34 125 126.68 125 126 125 C125.74 125.55 125.48 126.11 125.21 126.68 C123.85 129.3 122.28 131.67 120.62 134.11 C119.62 135.6 119.62 135.6 118.59 137.12 C117.53 138.7 117.53 138.7 116.44 140.31 C106.15 155.67 97.04 171.37 88.3 187.65 C86.92 190.14 85.48 192.57 84 195 C80.05 191.24 76.74 187.25 73.5 182.88 C72.98 182.18 72.47 181.49 71.94 180.77 C55.85 158.96 42.27 136.15 30 112 C29.22 110.47 28.43 108.94 27.64 107.41 C21.34 95.03 16.29 82.45 11.94 69.25 C11.72 68.59 11.5 67.93 11.27 67.25 C3.98 45.14 -0.83 23.38 0 0 Z " fill="#1382C5" transform="translate(632,428)"/>
<path d="M0 0 C0.24 6.76 -0.53 12.58 -2.19 19.12 C-2.42 20.04 -2.64 20.96 -2.88 21.91 C-6.39 35.77 -11.15 48.45 -18 61 C-18.35 61.65 -18.7 62.29 -19.06 62.95 C-23.75 71.45 -29.08 78.94 -35.52 86.2 C-38.02 88.87 -38.02 88.87 -39.7 91.68 C-45.78 97.81 -56.91 97.97 -65.06 99.12 C-66.85 99.38 -66.85 99.38 -68.67 99.65 C-77.8 100.92 -86.79 101.79 -96 102 C-96.66 102.02 -97.32 102.04 -98 102.06 C-114.78 102.55 -131.39 100.73 -147.94 98.06 C-148.94 97.9 -149.94 97.75 -150.97 97.58 C-156.4 96.66 -161.05 95.42 -166 93 C-165.78 91.13 -165.78 91.13 -165 89 C-163.06 87.85 -163.06 87.85 -160.5 86.91 C-159.54 86.55 -158.58 86.18 -157.6 85.8 C-156.03 85.22 -156.03 85.22 -154.44 84.62 C-135.59 77.19 -118.63 66.47 -102 55 C-100.52 54.02 -99.04 53.04 -97.56 52.06 C-93.41 49.29 -89.3 46.46 -85.19 43.62 C-76.13 37.39 -67.08 31.22 -57.63 25.59 C-55.15 24.09 -52.71 22.55 -50.27 20.99 C-39.51 14.24 -28.58 8.82 -16.81 4.12 C-16.15 3.86 -15.48 3.59 -14.79 3.31 C-12.89 2.55 -10.99 1.81 -9.08 1.07 C-7.98 0.65 -6.88 0.22 -5.75 -0.22 C-3 -1 -3 -1 0 0 Z " fill="#F9FAFB" transform="translate(1177,802)"/>
<path d="M0 0 C7.03 4.53 11.74 9.28 15 17 C15.32 17.71 15.63 18.42 15.96 19.15 C20 29.41 18.37 38.9 14.41 48.93 C10.66 57.1 3.65 62.51 -4.52 66.11 C-14.07 69.3 -23.69 68.86 -33 65 C-40.56 60.71 -45.96 55.7 -50 48 C-50.34 47.41 -50.68 46.82 -51.02 46.21 C-54.53 38.9 -54.08 28.82 -52.34 21.06 C-48.85 11.44 -42.2 3.56 -33 -1 C-23.31 -4.39 -9.2 -5.22 0 0 Z " fill="#F3FAFE" transform="translate(661,332)"/>
<path d="M0 0 C6.55 5.3 12.09 12.87 13.54 21.34 C14.48 33.27 13.43 43.41 5.79 53.21 C-1.6 60.94 -10.77 65.31 -21.46 65.71 C-32.23 65.31 -39.89 60.75 -48.15 54.21 C-55.66 44.88 -58.47 35.12 -57.46 23.34 C-55.15 13.48 -50.13 4.31 -41.63 -1.44 C-29.17 -8.44 -11.83 -7.98 0 0 Z " fill="#F2F9FE" transform="translate(1297.4609375,334.66015625)"/>
<path d="M0 0 C0.66 0 1.32 0 2 0 C2 0.66 2 1.32 2 2 C2.58 2.26 3.16 2.53 3.76 2.8 C9.7 5.98 14.45 11.39 19.14 16.17 C20.88 17.88 22.67 19.46 24.53 21.03 C30.47 26.19 35.92 31.86 41.44 37.46 C42.85 38.89 44.27 40.32 45.69 41.75 C46.52 42.59 47.35 43.43 48.2 44.3 C50.3 46.33 52.41 48.23 54.63 50.13 C60.1 54.88 65.17 60.05 70.28 65.18 C71.35 66.25 72.41 67.32 73.48 68.38 C76.25 71.16 79.03 73.95 81.8 76.73 C84.64 79.58 87.48 82.43 90.33 85.28 C95.89 90.85 101.45 96.42 107 102 C106.34 102.66 105.68 103.32 105 104 C100.4 100.25 96.52 96.39 92.68 91.87 C90.89 89.78 90.89 89.78 88 87.5 C84.95 84.96 82.56 82.26 79.99 79.25 C76.2 74.97 72.07 71.01 68 67 C67.13 66.11 66.26 65.21 65.36 64.29 C63.11 61.92 63.11 61.92 60.38 60.5 C58 59 58 59 56.61 56.68 C51.93 48.89 43.07 40.93 35.19 36.38 C33 35 33 35 31.62 32.69 C27.59 26.02 21 20.93 15.12 15.9 C11.63 12.77 8.38 9.4 5.1 6.04 C3.17 3.96 3.17 3.96 1 3 C0.67 81.54 0.34 160.08 0 241 C-0.33 241 -0.66 241 -1 241 C-1.02 210.44 -1.04 179.88 -1.05 149.33 C-1.05 145.72 -1.05 142.12 -1.05 138.52 C-1.06 137.8 -1.06 137.08 -1.06 136.34 C-1.06 124.71 -1.07 113.08 -1.08 101.44 C-1.09 89.52 -1.09 77.59 -1.09 65.66 C-1.1 58.96 -1.1 52.26 -1.11 45.55 C-1.11 39.25 -1.11 32.95 -1.11 26.65 C-1.11 24.33 -1.12 22.01 -1.12 19.69 C-1.12 16.54 -1.12 13.38 -1.12 10.23 C-1.12 9.3 -1.13 8.37 -1.13 7.41 C-1.11 1.11 -1.11 1.11 0 0 Z " fill="#C64B6F" transform="translate(960,343)"/>
<path d="M0 0 C-5.75 4 -5.75 4 -8 4 C-8.33 4.66 -8.66 5.32 -9 6 C-9.66 4.35 -10.32 2.7 -11 1 C-9.82 0.78 -9.82 0.78 -8.62 0.56 C-2.5 -0.75 -2.5 -0.75 0 0 Z " fill="#C42732" transform="translate(1168,547)"/>
<path d="M0 0 C0 3 0 3 -1.88 5.19 C-4 7 -4 7 -6 7 C-6.66 8.32 -7.32 9.64 -8 11 C-8.66 10.34 -9.32 9.68 -10 9 C-6.7 6.03 -3.4 3.06 0 0 Z " fill="#499FDE" transform="translate(956,344)"/>
<path d="M0 0 C4.43 1.39 6.96 3.52 10 7 C10 7.66 10 8.32 10 9 C6.79 7.62 4.95 6.08 2.75 3.38 C2.23 2.74 1.71 2.11 1.17 1.46 C0.79 0.98 0.4 0.5 0 0 Z " fill="#CD4C67" transform="translate(964,347)"/>
<path d="M0 0 C0 3 0 3 -1.53 4.82 C-2.18 5.44 -2.83 6.05 -3.5 6.69 C-4.15 7.31 -4.8 7.93 -5.47 8.57 C-5.97 9.04 -6.48 9.52 -7 10 C-7.66 9.67 -8.32 9.34 -9 9 C-7.88 7.68 -6.75 6.37 -5.62 5.06 C-5 4.33 -4.37 3.6 -3.73 2.85 C-2 1 -2 1 0 0 Z " fill="#4393D6" transform="translate(959,584)"/>
<path d="M0 0 C0 3.58 -1.09 5.05 -3 8 C-3.99 7.34 -4.98 6.68 -6 6 C-4.02 4.02 -2.04 2.04 0 0 Z " fill="#BB1419" transform="translate(1240,487)"/>
<path d="" fill="#FFFFFF" transform="translate(0,0)"/>
<path d="" fill="#FFFFFF" transform="translate(0,0)"/>
<path d="" fill="#BF8080" transform="translate(0,0)"/>
<path d="" fill="#8080BF" transform="translate(0,0)"/>
</svg>
