<?xml version="1.0" encoding="UTF-8"?>
<!-- Generator: https://ezgif.com/webp-to-svg -->
<svg version="1.1" xmlns="http://www.w3.org/2000/svg" width="100" height="100">
<path d="M0 0 C1.52 0 3.04 0.01 4.55 0.02 C5.35 0.02 6.15 0.02 6.97 0.02 C9.53 0.03 12.09 0.04 14.64 0.05 C16.37 0.06 18.1 0.06 19.83 0.06 C24.08 0.08 28.33 0.09 32.58 0.11 C33.76 3.66 33.44 4.47 31.94 7.8 C30.53 10.21 30.53 10.21 28.58 12.11 C24.31 13.01 20.16 12.51 15.83 12.18 C7.74 11.7 7.74 11.7 0.51 14.66 C-2.98 18.97 -4.77 23.87 -6.42 29.11 C-6.75 29.77 -7.08 30.43 -7.42 31.11 C-6.65 33.06 -6.65 33.06 -5.48 35.11 C-3.42 38.92 -3.42 38.92 -3.42 41.11 C-2.76 41.11 -2.1 41.11 -1.42 41.11 C-1.17 40.44 -0.93 39.77 -0.68 39.07 C0.85 35.47 2.74 32.17 4.71 28.8 C5.08 28.16 5.45 27.51 5.84 26.85 C6.75 25.27 7.66 23.69 8.58 22.11 C12.87 22.11 17.16 22.11 21.58 22.11 C20.66 25.82 19.55 28.22 17.7 31.52 C17.11 32.57 16.53 33.62 15.92 34.7 C15.29 35.8 14.67 36.91 14.02 38.05 C13.39 39.17 12.75 40.3 12.1 41.45 C7.77 49.12 3.33 56.7 -1.42 64.11 C-5.44 60.61 -7.66 56.48 -10.17 51.86 C-10.58 51.12 -10.99 50.37 -11.41 49.61 C-12.42 47.78 -13.42 45.95 -14.42 44.11 C-16.07 46.9 -17.71 49.7 -19.36 52.49 C-19.82 53.28 -20.29 54.08 -20.78 54.89 C-21.22 55.66 -21.67 56.42 -22.13 57.2 C-22.55 57.9 -22.96 58.6 -23.39 59.33 C-24.1 60.57 -24.78 61.83 -25.42 63.11 C-27.22 62.92 -27.22 62.92 -29.42 62.11 C-31.05 59.99 -31.05 59.99 -32.63 57.19 C-33.21 56.16 -33.8 55.14 -34.4 54.08 C-35.01 53 -35.61 51.92 -36.23 50.8 C-36.82 49.76 -37.41 48.72 -38.02 47.65 C-39.22 45.54 -40.41 43.44 -41.59 41.32 C-44.02 37.06 -46.57 32.87 -49.14 28.68 C-50.42 26.11 -50.42 26.11 -50.42 22.11 C-46.32 21.64 -42.5 21.44 -38.42 22.11 C-35.79 24.33 -34.76 27 -33.42 30.11 C-32.49 31.75 -31.56 33.37 -30.61 34.99 C-28.42 38.85 -28.42 38.85 -28.42 41.11 C-27.76 41.11 -27.1 41.11 -26.42 41.11 C-26.15 40.24 -25.88 39.37 -25.61 38.47 C-24.45 35.2 -23.07 32.4 -21.37 29.38 C-20.47 27.77 -20.47 27.77 -19.56 26.14 C-18.93 25.04 -18.31 23.94 -17.67 22.8 C-17.06 21.71 -16.45 20.62 -15.82 19.5 C-4.94 0.16 -4.94 0.16 0 0 Z " fill="#CD0000" transform="translate(65.418212890625,17.886474609375)"/>
<path d="M0 0 C4.86 -0.22 9.71 -0.39 14.57 -0.49 C16.22 -0.54 17.87 -0.6 19.52 -0.68 C33.13 -1.31 33.13 -1.31 37.72 1.9 C39.66 4.25 41.01 6.12 42 9 C41.58 12.26 40.22 14.51 38.44 17.25 C37.98 17.96 37.53 18.66 37.06 19.39 C36.53 20.19 36.53 20.19 36 21 C35.01 20.67 34.02 20.34 33 20 C32.52 18.83 32.05 17.66 31.55 16.46 C30.61 14.48 30.61 14.48 29 13 C24.03 11.95 18.91 12.53 13.86 12.8 C6.01 12.92 6.01 12.92 2.87 10.06 C1.24 7.73 -0.05 5.69 -1 3 C-0.67 2.01 -0.34 1.02 0 0 Z " fill="#D4D4D4" transform="translate(3,18)"/>
<path d="M0 0 C11.88 0 23.76 0 36 0 C37 3 37 3 36.22 4.82 C34.61 7.41 34.61 7.41 33 10 C32.5 9.01 32.5 9.01 32 8 C32.99 6.02 33.98 4.04 35 2 C23.12 2 11.24 2 -1 2 C-0.67 1.34 -0.34 0.68 0 0 Z " fill="#3E0000" transform="translate(62,18)"/>
<path d="M0 0 C0.77 -0.01 1.54 -0.01 2.33 -0.02 C3.96 -0.03 5.59 -0.03 7.22 -0.04 C9.71 -0.05 12.2 -0.08 14.7 -0.11 C16.28 -0.12 17.86 -0.12 19.44 -0.12 C20.18 -0.14 20.93 -0.15 21.7 -0.16 C26.9 -0.14 26.9 -0.14 29.35 1.72 C29.68 2.21 30.01 2.7 30.35 3.2 C30.02 3.86 29.69 4.52 29.35 5.2 C28.69 4.54 28.03 3.88 27.35 3.2 C24.78 2.96 22.3 2.83 19.72 2.79 C18.97 2.77 18.22 2.75 17.44 2.73 C15.04 2.67 12.63 2.62 10.23 2.58 C8.6 2.54 6.97 2.5 5.34 2.46 C1.34 2.36 -2.65 2.28 -6.65 2.2 C-5.99 4.18 -5.33 6.16 -4.65 8.2 C-7.12 6.05 -8.21 4.49 -8.65 1.2 C-6.66 -0.79 -2.73 0.02 0 0 Z " fill="#3E3E3E" transform="translate(10.6484375,17.796875)"/>
</svg>
