<?xml version="1.0" encoding="UTF-8"?>
<!-- Generator: https://ezgif.com/png-to-svg -->
<svg version="1.1" xmlns="http://www.w3.org/2000/svg" width="554" height="554">
<path d="M0 0 C3.02 0.02 6.04 0 9.06 -0.02 C27.37 -0.04 45.41 1.93 63.27 6.02 C64.38 6.27 65.49 6.52 66.63 6.78 C85.77 11.29 104.32 17.82 122.02 26.39 C122.7 26.71 123.38 27.04 124.08 27.37 C144.23 36.96 162.92 49.04 180.02 63.39 C180.53 63.81 181.04 64.23 181.57 64.67 C194.64 75.48 206.52 87.04 217.02 100.39 C218.52 102.18 220.02 103.98 221.52 105.77 C229.62 115.68 236.5 126.4 243.02 137.39 C243.37 137.97 243.72 138.55 244.08 139.15 C258.5 163.13 268.22 189.92 274.4 217.14 C274.74 218.63 274.74 218.63 275.08 220.14 C278.91 238.09 280.53 256.04 280.41 274.37 C280.4 277.39 280.41 280.41 280.43 283.43 C280.45 301.74 278.48 319.78 274.4 337.64 C274.02 339.3 274.02 339.3 273.64 341 C269.12 360.14 262.59 378.69 254.02 396.39 C253.7 397.07 253.37 397.75 253.04 398.45 C243.46 418.6 231.37 437.29 217.02 454.39 C216.6 454.9 216.18 455.41 215.74 455.94 C204.93 469.01 193.37 480.89 180.02 491.39 C178.23 492.89 176.44 494.39 174.65 495.89 C164.73 503.99 154.02 510.87 143.02 517.39 C142.44 517.74 141.86 518.09 141.26 518.45 C117.28 532.87 90.49 542.59 63.27 548.77 C62.28 548.99 61.29 549.22 60.27 549.45 C42.32 553.28 24.37 554.9 6.04 554.78 C3.02 554.77 0 554.78 -3.02 554.8 C-21.33 554.82 -39.37 552.85 -57.23 548.77 C-58.34 548.52 -59.45 548.26 -60.59 548.01 C-79.73 543.49 -98.28 536.96 -115.98 528.39 C-117 527.91 -117 527.91 -118.04 527.41 C-138.19 517.83 -156.88 505.74 -173.98 491.39 C-174.49 490.97 -175 490.55 -175.53 490.11 C-188.6 479.3 -200.48 467.74 -210.98 454.39 C-212.48 452.6 -213.98 450.81 -215.48 449.02 C-223.58 439.1 -230.46 428.39 -236.98 417.39 C-237.33 416.81 -237.68 416.23 -238.04 415.63 C-252.46 391.65 -262.17 364.86 -268.35 337.64 C-268.58 336.65 -268.81 335.66 -269.04 334.64 C-272.87 316.69 -274.49 298.74 -274.37 280.41 C-274.35 277.39 -274.37 274.37 -274.39 271.35 C-274.41 253.04 -272.44 235.01 -268.35 217.14 C-268.1 216.03 -267.85 214.93 -267.59 213.78 C-263.08 194.64 -256.55 176.09 -247.98 158.39 C-247.66 157.71 -247.33 157.03 -247 156.33 C-237.41 136.18 -225.33 117.49 -210.98 100.39 C-210.56 99.88 -210.14 99.37 -209.7 98.84 C-198.89 85.78 -187.33 73.89 -173.98 63.39 C-172.19 61.89 -170.4 60.39 -168.6 58.89 C-158.69 50.79 -147.97 43.92 -136.98 37.39 C-136.4 37.04 -135.82 36.69 -135.22 36.33 C-111.24 21.92 -84.45 12.2 -57.23 6.02 C-56.24 5.79 -55.25 5.56 -54.23 5.33 C-36.28 1.5 -18.33 -0.12 0 0 Z " fill="#BAA04F" transform="translate(273.9794921875,-0.39111328125)"/>
<path d="M0 0 C35.4 -0.14 70.79 0.07 106.19 0.5 C107.18 0.51 108.17 0.52 109.19 0.54 C121.46 0.69 133.73 0.84 146 1 C144.88 2.77 143.76 4.54 142.63 6.31 C142.01 7.3 141.38 8.28 140.74 9.3 C138.96 12.07 137.1 14.74 135.12 17.38 C128.38 26.53 122.02 35.93 115.74 45.4 C111.01 52.51 106.15 59.53 101.23 66.5 C100.68 67.29 100.13 68.07 99.56 68.88 C98.74 70.04 98.74 70.04 97.9 71.23 C96.37 73.46 94.89 75.69 93.41 77.95 C92.96 78.64 92.51 79.33 92.05 80.04 C91.15 81.41 90.26 82.79 89.38 84.18 C88.3 85.82 87.16 87.41 86 89 C85.34 89 84.68 89 84 89 C83.91 89.55 83.81 90.1 83.71 90.67 C82.8 93.64 81.32 95.75 79.56 98.31 C78.84 99.37 78.12 100.42 77.38 101.51 C77 102.08 76.61 102.64 76.21 103.22 C74.53 105.7 72.87 108.19 71.22 110.69 C66.91 117.2 62.5 123.62 58 130 C52.78 137.47 47.65 145 42.61 152.6 C39.6 157.13 36.52 161.61 33.38 166.05 C30.79 169.19 30.79 169.19 30.25 172.98 C31.51 176.37 33.65 179.23 35.69 182.19 C36.37 183.2 36.37 183.2 37.07 184.24 C38.38 186.16 39.69 188.08 41 190 C45.44 196.49 49.55 203.15 53.63 209.87 C56.79 215.07 60.04 220.21 63.38 225.31 C67.55 231.71 71.61 238.18 75.62 244.69 C80.66 252.85 85.78 260.95 91 269 C93.33 272.61 95.66 276.23 97.98 279.85 C99.21 281.77 100.44 283.68 101.68 285.59 C105 290.77 105 290.77 105 293 C105.66 293 106.32 293 107 293 C108.19 294.66 108.19 294.66 109.56 297.06 C110.36 298.43 110.36 298.43 111.17 299.83 C111.78 300.88 112.38 301.92 113 303 C117.97 311.44 123.08 319.77 128.41 327.98 C132.3 333.99 136.12 340.05 139.95 346.1 C140.8 347.44 140.8 347.44 141.67 348.8 C142.49 350.11 142.49 350.11 143.33 351.44 C144.45 353.16 145.61 354.86 146.8 356.53 C147.35 357.32 147.91 358.11 148.49 358.92 C149 359.61 149.5 360.3 150.02 361.02 C151 363 151 363 150.66 365.26 C150.33 366.12 150.33 366.12 150 367 C148.68 367 147.36 367 146 367 C144.21 364.94 142.75 363 141.25 360.75 C140.81 360.12 140.38 359.48 139.93 358.83 C138.6 356.9 137.3 354.95 136 353 C135.28 351.93 134.56 350.86 133.82 349.75 C132.49 347.76 131.17 345.77 129.85 343.78 C127.61 340.42 125.3 337.11 122.97 333.81 C116.8 325.01 110.74 316.15 104.81 307.19 C101.36 301.97 97.77 296.9 94.05 291.86 C91.66 288.52 89.39 285.12 87.12 281.69 C83.85 276.72 80.49 271.83 77 267 C73.68 262.39 70.45 257.74 67.31 253 C58.5 239.68 49.55 226.45 40.21 213.49 C37.62 209.89 35.13 206.24 32.69 202.54 C30.35 199.02 27.95 195.54 25.56 192.06 C25.09 191.37 24.61 190.68 24.12 189.96 C20.88 185.25 17.57 180.6 14.14 176.02 C13 174 13 174 13 170 C13.86 168.17 13.86 168.17 15.1 166.26 C15.56 165.53 16.03 164.81 16.51 164.06 C17.02 163.28 17.53 162.49 18.06 161.69 C18.59 160.87 19.11 160.05 19.66 159.21 C21.43 156.47 23.21 153.73 25 151 C25.67 149.98 26.34 148.96 27.02 147.91 C28.05 146.34 28.05 146.34 29.1 144.74 C29.78 143.7 30.46 142.66 31.16 141.59 C32.5 139.55 33.84 137.51 35.19 135.48 C35.8 134.55 36.41 133.62 37.04 132.66 C37.59 131.83 38.14 131 38.7 130.15 C40.14 127.95 40.14 127.95 41 125 C41.66 125 42.32 125 43 125 C43.33 123.68 43.66 122.36 44 121 C44.66 121 45.32 121 46 121 C46.1 120.28 46.19 119.55 46.29 118.81 C47.11 115.58 48.39 113.72 50.38 111.06 C52.99 107.47 55.19 104.05 57 100 C57.66 100 58.32 100 59 100 C59.28 99.27 59.56 98.53 59.84 97.78 C61.63 93.49 64.08 89.65 66.5 85.69 C67 84.85 67.5 84.02 68.01 83.15 C68.49 82.36 68.97 81.58 69.47 80.76 C69.91 80.04 70.34 79.32 70.79 78.57 C71.39 77.79 71.39 77.79 72 77 C72.66 77 73.32 77 74 77 C74.43 75.61 74.43 75.61 74.88 74.19 C76 71 76 71 78 68 C78.66 68 79.32 68 80 68 C80.09 67.47 80.18 66.93 80.27 66.38 C81.24 63.21 82.86 60.74 84.62 57.94 C84.98 57.37 85.33 56.8 85.7 56.22 C88.64 51.53 91.63 46.88 94.65 42.24 C96.13 39.96 96.13 39.96 97 37 C97.66 37 98.32 37 99 37 C99.27 36.28 99.53 35.57 99.8 34.83 C101.03 31.93 102.48 29.37 104.12 26.69 C104.66 25.8 105.2 24.92 105.76 24.01 C106.17 23.35 106.58 22.68 107 22 C94.88 21.81 82.77 21.69 70.65 21.67 C65.02 21.65 59.39 21.61 53.76 21.52 C48.33 21.42 42.9 21.4 37.46 21.42 C35.39 21.42 33.32 21.39 31.25 21.33 C20.74 20.62 20.74 20.62 11.37 24.36 C8.28 28.18 6.71 32.44 5 37 C3.93 38.86 2.82 40.7 1.66 42.5 C1.14 43.34 0.62 44.17 0.08 45.04 C-0.44 45.87 -0.96 46.7 -1.5 47.56 C-2.64 49.39 -3.77 51.21 -4.91 53.04 C-5.44 53.9 -5.98 54.76 -6.53 55.64 C-8.37 58.59 -10.18 61.54 -12 64.5 C-14.44 68.47 -16.89 72.43 -19.34 76.39 C-19.93 77.34 -20.52 78.3 -21.13 79.28 C-22.32 81.19 -23.51 83.11 -24.7 85.02 C-25.24 85.89 -25.78 86.77 -26.34 87.67 C-26.83 88.45 -27.32 89.24 -27.82 90.05 C-29.02 91.98 -29.02 91.98 -30 94 C-30.66 94 -31.32 94 -32 94 C-32.17 94.85 -32.17 94.85 -32.34 95.73 C-33.08 98.26 -34.12 100.13 -35.5 102.38 C-36.29 103.67 -36.29 103.67 -37.1 104.98 C-40.69 110.68 -44.34 116.35 -48 122 C-52.2 117.32 -54.79 111.93 -57.62 106.38 C-58.7 104.29 -59.77 102.21 -60.84 100.13 C-61.38 99.1 -61.91 98.06 -62.46 96.99 C-64.65 92.73 -66.89 88.49 -69.12 84.25 C-69.94 82.71 -70.75 81.16 -71.56 79.62 C-73.23 76.47 -74.89 73.31 -76.56 70.16 C-81.02 61.74 -85.41 53.29 -89.64 44.75 C-91.29 41.41 -92.97 38.08 -94.64 34.76 C-95.94 32.19 -97.23 29.63 -98.52 27.06 C-99.17 25.77 -99.82 24.49 -100.47 23.2 C-101.39 21.39 -102.31 19.57 -103.22 17.76 C-103.75 16.7 -104.29 15.64 -104.84 14.54 C-106 12 -106 12 -106 10 C-105.34 10 -104.68 10 -104 10 C-103.09 11.3 -102.19 12.6 -101.35 13.95 C-98.95 17.59 -96.25 21.03 -93.61 24.51 C-92 27 -92 27 -92 30 C-91.34 30 -90.68 30 -90 30 C-88.27 32.3 -86.65 34.6 -85.06 37 C-84.07 38.48 -83.07 39.96 -82.07 41.43 C-81.56 42.19 -81.05 42.95 -80.52 43.74 C-78.64 46.54 -76.72 49.31 -74.8 52.09 C-70.76 57.94 -66.76 63.83 -62.81 69.75 C-62.2 70.67 -62.2 70.67 -61.58 71.6 C-59.59 74.59 -57.61 77.59 -55.67 80.61 C-54.95 81.71 -54.24 82.8 -53.5 83.94 C-52.56 85.41 -52.56 85.41 -51.59 86.9 C-50.8 87.94 -50.8 87.94 -50 89 C-49.34 89 -48.68 89 -48 89 C-45.83 84.98 -43.67 80.96 -41.5 76.94 C-41.18 76.34 -40.85 75.74 -40.52 75.12 C-36.96 68.51 -33.4 61.89 -29.88 55.25 C-22.76 41.89 -15.56 28.58 -8.03 15.45 C-6.03 11.94 -4.17 8.38 -2.37 4.77 C-1.7 3.43 -1.7 3.43 -1.02 2.06 C-0.68 1.38 -0.35 0.7 0 0 Z " fill="#FCFBF4" transform="translate(325,105)"/>
<path d="M0 0 C3.4 1.41 4.92 2.89 6.94 5.94 C7.83 7.27 7.83 7.27 8.75 8.62 C9.1 9.14 9.44 9.66 9.8 10.2 C12.31 13.97 14.88 17.7 17.44 21.44 C18 22.27 18.57 23.1 19.15 23.95 C22.22 28.44 25.33 32.88 28.56 37.25 C36 47.36 36 47.36 36 51 C36.66 51 37.32 51 38 51 C40.11 53.42 41.82 56.16 43.62 58.81 C44.14 59.55 44.66 60.29 45.19 61.05 C45.67 61.76 46.16 62.47 46.66 63.21 C47.11 63.86 47.56 64.52 48.02 65.19 C49 67 49 67 49 70 C49.91 70.36 49.91 70.36 50.84 70.73 C53.46 72.27 54.19 73.59 55.62 76.25 C58.02 80.43 60.61 84.36 63.44 88.25 C67.96 94.48 72.31 100.82 76.62 107.19 C81.08 113.76 85.59 120.25 90.31 126.63 C92.79 130.11 95.03 133.72 97.3 137.34 C99.43 140.68 101.7 143.9 103.98 147.14 C106.52 150.74 109.01 154.37 111.5 158 C114.5 162.37 117.51 166.73 120.56 171.06 C125.17 177.62 129.57 184.32 134 191 C134.66 191.99 135.32 192.98 136 194 C135.68 197.91 134.27 200.55 132.16 203.81 C131.57 204.71 130.99 205.62 130.39 206.55 C129.77 207.5 129.14 208.46 128.5 209.44 C127.86 210.43 127.22 211.42 126.56 212.45 C124.71 215.3 122.86 218.15 121 221 C119.54 223.27 118.08 225.54 116.62 227.81 C115.93 228.88 115.24 229.96 114.53 231.06 C112.44 234.31 110.36 237.56 108.28 240.81 C107.6 241.87 106.93 242.93 106.23 244.02 C104.83 246.21 103.43 248.4 102.04 250.58 C98.91 255.47 95.77 260.36 92.59 265.21 C92.09 265.99 91.58 266.76 91.06 267.56 C90.13 268.97 89.21 270.38 88.27 271.79 C86.11 275.09 84.3 278.26 83 282 C82.34 282 81.68 282 81 282 C80.73 282.73 80.47 283.45 80.19 284.2 C79 287.01 77.6 289.31 75.88 291.84 C74.97 293.19 74.97 293.19 74.04 294.56 C73.41 295.49 72.78 296.42 72.12 297.38 C68.2 303.15 64.41 308.9 61 315 C59.62 317.2 58.22 319.39 56.81 321.56 C56.43 322.15 56.05 322.75 55.65 323.36 C53.59 326.55 51.52 329.73 49.45 332.91 C49.04 333.55 48.63 334.18 48.21 334.83 C47.42 336.04 46.63 337.26 45.83 338.47 C44.21 340.97 42.95 343.15 42 346 C73.02 346 104.04 346 136 346 C136.66 344.35 137.32 342.7 138 341 C138.69 339.55 139.4 338.12 140.12 336.69 C140.48 335.99 140.83 335.29 141.2 334.57 C141.59 333.79 141.59 333.79 142 333 C142.66 333 143.32 333 144 333 C144.09 332.47 144.18 331.93 144.28 331.38 C145.24 328.2 146.83 325.72 148.56 322.88 C149.13 321.94 149.13 321.94 149.71 320.99 C151.13 318.65 152.57 316.33 154 314 C154.65 312.95 155.29 311.9 155.96 310.82 C156.31 310.26 156.65 309.7 157.01 309.12 C157.73 307.95 158.45 306.78 159.17 305.62 C160.97 302.69 162.78 299.76 164.59 296.84 C165.6 295.21 165.6 295.21 166.62 293.55 C167.22 292.58 167.83 291.61 168.45 290.6 C169.74 288.44 170.91 286.28 172 284 C172.66 284 173.32 284 174 284 C174.24 283.31 174.49 282.62 174.74 281.9 C176.2 278.54 178.1 275.6 180.12 272.56 C184.07 266.56 187.68 260.43 191.18 254.16 C193 251 194.95 248.01 197 245 C202.43 251.79 206.07 259.91 210.03 267.61 C211.7 270.86 213.37 274.1 215.05 277.35 C215.39 278 215.72 278.66 216.07 279.33 C219.09 285.19 222.14 291.03 225.19 296.88 C225.67 297.8 226.15 298.72 226.64 299.67 C229.12 304.41 231.6 309.14 234.09 313.87 C241.55 328.02 248.77 342.26 255 357 C254.34 357 253.68 357 253 357 C251.69 355.49 251.69 355.49 250.21 353.39 C249.68 352.63 249.15 351.88 248.61 351.1 C248.06 350.31 247.51 349.51 246.94 348.69 C246.38 347.9 245.83 347.12 245.26 346.31 C241.14 340.41 241.14 340.41 240 337 C239.34 337 238.68 337 238 337 C237.73 336.48 237.46 335.96 237.19 335.42 C234.24 329.89 230.84 324.92 227.11 319.89 C223.57 315.04 220.3 310.02 217 305 C213.31 299.41 209.53 293.91 205.67 288.44 C203.67 285.53 201.84 282.54 200.04 279.5 C199.06 277.83 199.06 277.83 197 277 C196.74 277.7 196.47 278.4 196.2 279.12 C194.91 282.21 193.42 285.1 191.84 288.05 C191.38 288.91 191.38 288.91 190.91 289.78 C189.92 291.63 188.93 293.47 187.94 295.31 C187.25 296.59 186.57 297.86 185.89 299.13 C181.96 306.44 177.96 313.7 173.85 320.9 C171.86 324.41 170.01 327.94 168.25 331.56 C164.69 338.86 160.61 345.86 156.58 352.9 C156.03 353.86 155.49 354.82 154.93 355.8 C154.19 357.09 154.19 357.09 153.44 358.4 C151.87 361.23 150.44 364.11 149 367 C133.34 367.02 117.69 367.04 102.03 367.05 C94.76 367.06 87.48 367.06 80.21 367.08 C73.86 367.09 67.51 367.09 61.16 367.09 C57.81 367.1 54.46 367.1 51.11 367.11 C35.37 367.14 19.71 366.89 4 366 C5.61 361.77 7.64 358.4 10.25 354.69 C10.65 354.11 11.06 353.54 11.47 352.94 C13.62 349.9 15.81 346.9 18.06 343.94 C20.29 341.01 22.35 338.01 24.38 334.94 C28.44 328.78 32.65 322.73 36.88 316.69 C41.75 309.7 46.58 302.7 51.26 295.58 C55.39 289.35 59.7 283.25 64 277.14 C67.29 272.47 70.52 267.77 73.66 263 C74.97 261.05 76.31 259.15 77.69 257.25 C80 254.12 80 254.12 81.69 251.06 C82.12 250.38 82.55 249.7 83 249 C83.66 249 84.32 249 85 249 C85.1 248.45 85.2 247.89 85.3 247.32 C87.83 238.91 94.96 231.12 100 224 C102.62 220.27 105.23 216.52 107.8 212.75 C108.62 211.55 109.46 210.35 110.29 209.15 C111.59 207.3 112.86 205.43 114.12 203.56 C114.53 203 114.93 202.43 115.35 201.84 C117.22 199.03 118.01 197.3 117.94 193.89 C116.94 190.82 115.76 188.81 113.81 186.25 C110.83 182.18 108.17 178.05 105.61 173.7 C101.16 166.25 96.37 159.02 91.61 151.77 C85.85 143 80.21 134.19 74.78 125.22 C70.22 117.68 65.44 110.29 60.64 102.91 C51.02 88.12 51.02 88.12 46.65 80.71 C42.99 74.7 39.1 68.84 35.26 62.94 C28.95 53.21 22.8 43.36 16.61 33.55 C14.99 30.98 13.36 28.41 11.73 25.83 C11.2 24.99 10.67 24.15 10.12 23.28 C9.11 21.69 8.11 20.09 7.1 18.49 C6.18 17.04 5.26 15.58 4.35 14.12 C3.42 12.66 2.46 11.23 1.47 9.81 C1 9.12 0.52 8.42 0.03 7.7 C-0.41 7.08 -0.85 6.47 -1.3 5.83 C-2 4 -2 4 -1.13 1.77 C-0.75 1.19 -0.38 0.6 0 0 Z " fill="#FCFBF5" transform="translate(80,81)"/>
<path d="M0 0 C0.66 0 1.32 0 2 0 C0.24 3.75 -1.94 7.24 -4.12 10.75 C-4.5 11.35 -4.87 11.95 -5.25 12.57 C-6.17 14.05 -7.08 15.53 -8 17 C-8.33 16.34 -8.66 15.68 -9 15 C-6.8 9.69 -3.59 4.5 0 0 Z " fill="#B7A876" transform="translate(414,153)"/>
<path d="M0 0 C0.99 0.33 1.98 0.66 3 1 C2.59 1.68 2.18 2.35 1.76 3.05 C1.22 3.94 0.68 4.83 0.12 5.75 C-0.41 6.63 -0.94 7.51 -1.49 8.42 C-2.76 10.58 -3.91 12.75 -5 15 C-5.69 13.31 -5.69 13.31 -6 11 C-4.6 8.2 -3.21 6.21 -1 4 C-0.36 1.93 -0.36 1.93 0 0 Z " fill="#BDAC74" transform="translate(271,331)"/>
<path d="M0 0 C8 9.71 8 9.71 8 13 C4.03 11.72 2.7 9.29 0.73 5.85 C0 4 0 4 0 0 Z " fill="#B9A975" transform="translate(135,175)"/>
<path d="M0 0 C2.72 2.35 3.81 4.62 5 8 C4.01 8 3.02 8 2 8 C2 7.34 2 6.68 2 6 C1.34 5.67 0.68 5.34 0 5 C0 3.35 0 1.7 0 0 Z " fill="#C4B380" transform="translate(125,159)"/>
<path d="M0 0 C3.08 2.77 4.69 5.06 6 9 C3 8 3 8 1.31 5.06 C0 2 0 2 0 0 Z " fill="#BBAE7C" transform="translate(442,430)"/>
<path d="M0 0 C0.33 0.66 0.66 1.32 1 2 C1.99 2 2.98 2 4 2 C4 2.99 4 3.98 4 5 C4.66 5.33 5.32 5.66 6 6 C5.34 6.66 4.68 7.32 4 8 C0 3.38 0 3.38 0 0 Z " fill="#BEB085" transform="translate(354,276)"/>
</svg>
