<?xml version="1.0" encoding="UTF-8"?>
<!-- Generator: https://ezgif.com/png-to-svg -->
<svg version="1.1" xmlns="http://www.w3.org/2000/svg" width="512" height="512" viewBox="-12.302 -11.951 210.045 210.045" preserveAspectRatio="xMidYMid meet">
<path d="M0 0 C1.13 -0.01 2.27 -0.02 3.43 -0.02 C5.82 -0.03 8.21 -0.04 10.59 -0.03 C14.21 -0.03 17.82 -0.07 21.44 -0.12 C43.68 -0.23 43.68 -0.23 53.98 5.47 C54.68 5.8 55.37 6.14 56.09 6.48 C77.37 16.96 93.64 35.32 101.98 57.47 C108.44 77.68 110.27 100.18 102.98 120.47 C102.61 121.53 102.24 122.58 101.85 123.67 C92.63 147.49 75.42 165.25 52.48 176.22 C30.67 185.67 4.17 187.31 -18.19 178.62 C-27.64 174.75 -36.13 170 -44.02 163.47 C-44.88 162.76 -45.74 162.05 -46.62 161.32 C-61.4 148.58 -75.02 128.92 -76.59 108.94 C-76.84 103.83 -76.86 98.74 -76.8 93.63 C-76.77 90.47 -76.8 87.32 -76.84 84.16 C-76.86 71.67 -75.49 61.77 -70.02 50.47 C-69.53 49.44 -69.04 48.42 -68.54 47.36 C-59.84 29.74 -45.5 16.42 -28.39 7.16 C-27.79 6.83 -27.2 6.51 -26.58 6.17 C-17.76 1.55 -9.95 0 0 0 Z " fill="#FEFEFE" transform="translate(76.015625,-0.46875)"/>
<path d="M0 0 C1.17 0 1.17 0 2.37 0 C4.01 0.01 5.65 0.04 7.29 0.07 C9.8 0.13 12.31 0.14 14.82 0.13 C16.42 0.15 18.02 0.17 19.62 0.19 C20.37 0.19 21.12 0.19 21.89 0.2 C26.04 0.31 28.76 0.61 31.68 3.69 C32.22 7.78 31.08 11.75 29.49 15.5 C27.1 18.39 25.25 20.51 21.68 21.69 C16.99 22.02 12.37 21.92 7.68 21.69 C7.39 22.93 7.1 24.17 6.8 25.44 C5.47 31.18 5.47 31.18 3.68 33.69 C-3.69 35.64 -11.85 34.65 -19.32 33.69 C-19.98 31.71 -20.64 29.73 -21.32 27.69 C-22.06 28.52 -22.81 29.34 -23.57 30.19 C-28.11 34.08 -33.69 33.1 -39.32 32.69 C-33.9 26.19 -33.9 26.19 -31.07 23.76 C-28.84 21.84 -26.98 20.12 -25.32 17.69 C-25.18 14.39 -26.21 11.76 -27.32 8.69 C-27.57 7.34 -27.78 5.99 -27.95 4.63 C-28.07 3.66 -28.19 2.69 -28.32 1.69 C-24.36 1.69 -20.4 1.69 -16.32 1.69 C-15.66 3.34 -15 4.99 -14.32 6.69 C-13.09 5.23 -13.09 5.23 -11.84 3.73 C-8.25 0.17 -4.91 -0.14 0 0 Z " fill="#F0F0F0" transform="translate(64.3203125,70.30859375)"/>
<path d="M0 0 C0 0.66 0 1.32 0 2 C5.39 4.27 10.26 4.2 16 4 C14.55 7.79 12.85 11.39 11 15 C10.34 15 9.68 15 9 15 C8.87 15.58 8.74 16.16 8.61 16.76 C6.85 23.24 3.02 30.49 -2 35 C-7.08 36.94 -11.68 35.77 -17 35 C-17 28.4 -17 21.8 -17 15 C-19.71 13.64 -21.85 13.89 -24.88 13.9 C-26.63 13.91 -26.63 13.91 -28.42 13.91 C-29.64 13.92 -30.86 13.93 -32.12 13.94 C-33.36 13.94 -34.59 13.95 -35.86 13.95 C-38.9 13.96 -41.95 13.98 -45 14 C-44.25 7.38 -44.25 7.38 -42 4 C-39.39 3.66 -39.39 3.66 -36.12 3.71 C-34.95 3.72 -33.78 3.73 -32.58 3.74 C-31.36 3.76 -30.14 3.79 -28.88 3.81 C-27.64 3.83 -26.41 3.84 -25.14 3.85 C-22.1 3.89 -19.05 3.94 -16 4 C-15.67 4.66 -15.34 5.32 -15 6 C-14.67 5.01 -14.34 4.02 -14 3 C-12.93 2.88 -11.85 2.75 -10.75 2.62 C-6.81 1.97 -3.92 0 0 0 Z M-46 15 C-36.33 15 -26.67 15 -17 15 C-17 15.99 -17 16.98 -17 18 C-18.32 18 -19.64 18 -21 18 C-21.1 18.8 -21.21 19.61 -21.31 20.44 C-22.28 25.44 -23.71 30.43 -26 35 C-34.91 35 -43.82 35 -53 35 C-51.03 27.78 -49.21 21.6 -46 15 Z " fill="#EAEAEA" transform="translate(143,68)"/>
<path d="M0 0 C8.58 0 17.16 0 26 0 C23.74 10.16 23.74 10.16 22.44 13.94 C22.19 14.67 21.94 15.4 21.68 16.15 C21 18 21 18 20 20 C11.09 20 2.18 20 -7 20 C-4 9 -4 9 0 0 Z " fill="#0A0A0A" transform="translate(97,83)"/>
<path d="M0 0 C3.63 0 7.26 0 11 0 C11.33 1.32 11.66 2.64 12 4 C12.39 3.35 12.78 2.69 13.18 2.02 C15 0 15 0 17.48 -0.39 C18.82 -0.32 18.82 -0.32 20.19 -0.25 C21.09 -0.21 21.99 -0.18 22.92 -0.14 C23.61 -0.09 24.29 -0.05 25 0 C23.41 7.14 19.48 15.07 14 20 C9.12 21.86 4.02 20.96 -1 20 C-1.11 13.25 -0.68 6.72 0 0 Z " fill="#080808" transform="translate(127,83)"/>
<path d="M0 0 C4.95 0 9.9 0 15 0 C14.34 1.98 13.68 3.96 13 6 C13.38 8.39 13.38 8.39 14.38 10.56 C15.88 14.23 16 15.72 16 20 C12.04 20 8.08 20 4 20 C3.51 17.53 3.51 17.53 3 15 C2.26 15.83 1.52 16.65 0.75 17.5 C-3.79 21.39 -9.37 20.41 -15 20 C-11.12 15.34 -7.11 11.1 -2.64 6.99 C-0.54 4.76 -0.54 4.76 0 0 Z " fill="#050505" transform="translate(40,83)"/>
<path d="M0 0 C9.57 0 19.14 0 29 0 C27.84 4.62 26.76 5.34 23 8 C20 9.5 17.21 9.09 13.88 9.06 C12.59 9.05 11.31 9.04 9.99 9.04 C9 9.02 8.02 9.01 7 9 C6.69 10.26 6.38 11.52 6.06 12.81 C5.46 15.26 4.8 17.6 4 20 C0.37 20 -3.26 20 -7 20 C-5.16 12.72 -3.12 7.03 0 0 Z " fill="#0E0E0E" transform="translate(65,83)"/>
<path d="M0 0 C2.49 -0.37 2.49 -0.37 5.59 -0.36 C6.71 -0.36 7.82 -0.36 8.96 -0.36 C10.13 -0.35 11.3 -0.33 12.5 -0.31 C14.25 -0.32 14.25 -0.32 16.04 -0.32 C24.73 -0.27 24.73 -0.27 27 2 C26.67 4.64 26.34 7.28 26 10 C16.43 10 6.86 10 -3 10 C-2 3 -2 3 0 0 Z " fill="#040404" transform="translate(69,72)"/>
<path d="M0 0 C2.61 -0.34 2.61 -0.34 5.88 -0.29 C7.05 -0.28 8.22 -0.27 9.42 -0.26 C10.64 -0.24 11.86 -0.21 13.12 -0.19 C14.36 -0.17 15.59 -0.16 16.86 -0.15 C19.9 -0.11 22.95 -0.06 26 0 C25.47 3.92 24.8 6.39 23 10 C14.42 10 5.84 10 -3 10 C-2 3 -2 3 0 0 Z " fill="#030303" transform="translate(101,72)"/>
<path d="M0 0 C3.96 0 7.92 0 12 0 C12.66 1.65 13.32 3.3 14 5 C14.87 3.76 14.87 3.76 15.75 2.5 C17.86 0.32 18.92 0.01 22 -0.33 C25.02 -0.31 28 -0.22 31 0 C30.06 1.11 29.13 2.21 28.19 3.31 C27.67 3.93 27.14 4.54 26.61 5.18 C26.08 5.78 25.55 6.38 25 7 C24.35 7.79 24.35 7.79 23.69 8.6 C21.46 10.45 20.2 10.35 17.33 10.29 C16.44 10.28 15.55 10.27 14.63 10.26 C13.23 10.23 13.23 10.23 11.81 10.19 C10.87 10.17 9.93 10.16 8.96 10.15 C6.64 10.11 4.32 10.06 2 10 C0.68 6.38 0 3.9 0 0 Z " fill="#050505" transform="translate(36,72)"/>
<path d="M0 0 C2.64 0 5.28 0 8 0 C8 1.32 8 2.64 8 4 C8.41 3.34 8.83 2.68 9.25 2 C9.83 1.34 10.41 0.68 11 0 C12.32 0 13.64 0 15 0 C15.33 1.65 15.66 3.3 16 5 C16.66 3.35 17.32 1.7 18 0 C19.32 0 20.64 0 22 0 C22.33 0.66 22.66 1.32 23 2 C23.66 1.34 24.32 0.68 25 0 C25.99 0 26.98 0 28 0 C27.34 2.97 26.68 5.94 26 9 C24.68 8.67 23.36 8.34 22 8 C20.66 8.3 19.32 8.63 18 9 C16.34 9.08 14.68 9.11 13.02 9.1 C12.08 9.09 11.15 9.09 10.18 9.09 C9.22 9.08 8.25 9.07 7.25 9.06 C5.77 9.06 5.77 9.06 4.27 9.05 C1.85 9.04 -0.58 9.02 -3 9 C-2.01 6.03 -1.02 3.06 0 0 Z " fill="#151515" transform="translate(83,55)"/>
<path d="M0 0 C-0.33 0.66 -0.66 1.32 -1 2 C-3.64 1.67 -6.28 1.34 -9 1 C-9.14 1.76 -9.29 2.53 -9.44 3.31 C-10 6 -10 6 -11 9 C-7.77 9.03 -4.54 9.05 -1.31 9.06 C0.06 9.08 0.06 9.08 1.45 9.09 C2.78 9.09 2.78 9.09 4.14 9.1 C4.95 9.1 5.76 9.11 6.6 9.11 C9.15 8.99 11.51 8.56 14 8 C14 8.66 14 9.32 14 10 C14.99 10.33 15.98 10.66 17 11 C14.36 11.66 11.72 12.32 9 13 C9 12.34 9 11.68 9 11 C7.17 11.5 7.17 11.5 5.31 12 C-0.77 13.38 -6.8 13.17 -13 13 C-13 13.66 -13 14.32 -13 15 C-14.65 15.33 -16.3 15.66 -18 16 C-17.34 15.67 -16.68 15.34 -16 15 C-16.33 14.01 -16.66 13.02 -17 12 C-17.66 11.67 -18.32 11.34 -19 11 C-18.34 8.69 -17.68 6.38 -17 4 C-17.66 4 -18.32 4 -19 4 C-18.67 2.68 -18.34 1.36 -18 0 C-11.77 -1.04 -6.25 -0.83 0 0 Z " fill="#E0E0E0" transform="translate(92,54)"/>
<path d="M0 0 C0.66 0 1.32 0 2 0 C2 0.66 2 1.32 2 2 C11.57 2.33 21.14 2.66 31 3 C31 3.33 31 3.66 31 4 C22.42 4.33 13.84 4.66 5 5 C4.01 7.97 3.02 10.94 2 14 C10.58 14 19.16 14 28 14 C28.33 13.34 28.66 12.68 29 12 C29.33 12.99 29.66 13.98 30 15 C29.01 15.66 28.02 16.32 27 17 C27 16.34 27 15.68 27 15 C13.64 15.5 13.64 15.5 0 16 C-0.74 12.3 -1 9.65 -1 6 C-1.33 5.34 -1.66 4.68 -2 4 C-1.06 1.88 -1.06 1.88 0 0 Z " fill="#D7D7D7" transform="translate(96,68)"/>
<path d="M0 0 C11.88 0 23.76 0 36 0 C36 0.33 36 0.66 36 1 C28.41 1.33 20.82 1.66 13 2 C12.01 4.97 11.02 7.94 10 11 C19.57 11 29.14 11 39 11 C39 11.33 39 11.66 39 12 C38.1 12.01 37.2 12.03 36.28 12.04 C32.95 12.11 29.62 12.18 26.29 12.26 C24.85 12.3 23.41 12.32 21.97 12.35 C19.9 12.38 17.83 12.43 15.76 12.49 C14.51 12.51 13.27 12.54 11.98 12.57 C11 12.71 10.01 12.85 9 13 C8.01 14.48 8.01 14.48 7 16 C6 11.25 6 11.25 6 9 C4.02 9.99 4.02 9.99 2 11 C2.96 9.87 3.92 8.75 4.88 7.62 C5.41 7 5.94 6.37 6.49 5.73 C7.61 4.44 8.79 3.21 10 2 C6.7 1.67 3.4 1.34 0 1 C0 0.67 0 0.34 0 0 Z " fill="#CBCBCB" transform="translate(56,71)"/>
<path d="M0 0 C2.53 0.01 5 0.12 7.51 0.38 C6.89 2.07 6.21 3.73 5.51 5.38 C5.02 6.78 5.02 6.78 4.51 8.2 C2.51 10.38 2.51 10.38 0.09 10.7 C-2.45 10.7 -4.95 10.6 -7.49 10.38 C-5.3 0.82 -5.3 0.82 0 0 Z " fill="#080808" transform="translate(151.48828125,71.6171875)"/>
<path d="M0 0 C3.3 0 6.6 0 10 0 C10.12 6.62 10.12 6.62 9 10 C5.7 10 2.4 10 -1 10 C-1.12 3.38 -1.12 3.38 0 0 Z " fill="#080808" transform="translate(129,72)"/>
<path d="M0 0 C2.97 0 5.94 0 9 0 C8.67 0.99 8.34 1.98 8 3 C7.01 3 6.02 3 5 3 C4.67 4.98 4.34 6.96 4 9 C3.01 9 2.02 9 1 9 C1.33 7.02 1.66 5.04 2 3 C1.34 3 0.68 3 0 3 C0 2.01 0 1.02 0 0 Z " fill="#0E0E0E" transform="translate(73,55)"/>
<path d="M0 0 C0.33 0 0.66 0 1 0 C1.12 5.75 1.12 5.75 0 8 C3.3 8 6.6 8 10 8 C10 8.33 10 8.66 10 9 C2.16 9.89 -5.17 10 -13 9 C-13 8.67 -13 8.34 -13 8 C-9.37 8 -5.74 8 -2 8 C-2 6.02 -2 4.04 -2 2 C-1.34 2 -0.68 2 0 2 C0 1.34 0 0.68 0 0 Z " fill="#C6C6C6" transform="translate(58,95)"/>
<path d="M0 0 C4.95 0 9.9 0 15 0 C15 0.33 15 0.66 15 1 C9.87 3.1 5.44 3.22 0 3 C0 2.01 0 1.02 0 0 Z " fill="#212121" transform="translate(40,83)"/>
<path d="M0 0 C0.99 0 1.98 0 3 0 C3.33 0.66 3.66 1.32 4 2 C4.99 2.33 5.98 2.66 7 3 C4.36 3.66 1.72 4.32 -1 5 C-1 4.34 -1 3.68 -1 3 C-3.31 3 -5.62 3 -8 3 C-8 2.67 -8 2.34 -8 2 C-6.87 1.86 -5.73 1.71 -4.56 1.56 C-1.19 1.39 -1.19 1.39 0 0 Z " fill="#BEBEBE" transform="translate(102,62)"/>
<path d="M0 0 C1.37 0.02 1.37 0.02 2.78 0.04 C3.7 0.04 4.62 0.05 5.56 0.06 C6.27 0.07 6.98 0.09 7.71 0.1 C7.38 1.09 7.05 2.08 6.71 3.1 C6.71 2.44 6.71 1.78 6.71 1.1 C4.07 1.43 1.43 1.76 -1.29 2.1 C-1.62 3.75 -1.95 5.4 -2.29 7.1 C-3.28 6.77 -4.27 6.44 -5.29 6.1 C-2.99 0.13 -2.99 0.13 0 0 Z " fill="#303030" transform="translate(144.28515625,82.90234375)"/>
<path d="M0 0 C0.66 0.33 1.32 0.66 2 1 C2 1.66 2 2.32 2 3 C3.32 3 4.64 3 6 3 C6 3.66 6 4.32 6 5 C3.36 5 0.72 5 -2 5 C-1.34 3.35 -0.68 1.7 0 0 Z " fill="#090909" transform="translate(82,59)"/>
<path d="M0 0 C0.66 1.32 1.32 2.64 2 4 C0.75 6.75 0.75 6.75 -1 9 C-1.66 9 -2.32 9 -3 9 C-2.01 6.03 -1.02 3.06 0 0 Z " fill="#181818" transform="translate(93,94)"/>
<path d="M0 0 C2.64 0 5.28 0 8 0 C8 0.66 8 1.32 8 2 C6.02 2 4.04 2 2 2 C1.67 2.66 1.34 3.32 1 4 C0.67 2.68 0.34 1.36 0 0 Z " fill="#0C0C0C" transform="translate(83,55)"/>
<path d="M0 0 C1.21 0.03 1.21 0.03 2.44 0.06 C1.45 0.39 0.46 0.72 -0.56 1.06 C-1.79 4.57 -1.79 4.57 -2.56 8.06 C-2.89 8.06 -3.22 8.06 -3.56 8.06 C-3.6 5.73 -3.6 3.4 -3.56 1.06 C-2.56 0.06 -2.56 0.06 0 0 Z " fill="#DCDCDC" transform="translate(101.5625,53.9375)"/>
<path d="M0 0 C0.66 0.33 1.32 0.66 2 1 C0.68 3.31 -0.64 5.62 -2 8 C-2.66 7.01 -3.32 6.02 -4 5 C-3.67 4.01 -3.34 3.02 -3 2 C-2.01 2 -1.02 2 0 2 C0 1.34 0 0.68 0 0 Z " fill="#191919" transform="translate(149,86)"/>
<path d="M0 0 C2 1 2 1 5 3 C5 3.66 5 4.32 5 5 C3.35 5 1.7 5 0 5 C-0.56 3.06 -0.56 3.06 -1 1 C-0.67 0.67 -0.34 0.34 0 0 Z " fill="#272727" transform="translate(94,59)"/>
</svg>
