<?xml version="1.0" encoding="UTF-8"?>
<svg version="1.1" xmlns="http://www.w3.org/2000/svg" width="147" height="147">
<path d="M0 0 C2.46940706 1.92479463 4.82044868 3.92295635 7.1484375 6.015625 C7.75945312 6.53382812 8.37046875 7.05203125 9 7.5859375 C20.92596056 18.42276924 29.02768734 35.68895414 30.36987305 51.64868164 C31.28134117 73.5375205 27.23796563 92.53115172 12.4609375 109.5546875 C-1.02704567 123.90845338 -18.15690858 133.48261071 -38.11328125 134.3515625 C-58.73747413 134.69567513 -77.12311024 130.08845071 -92.8515625 116.015625 C-93.97304687 115.03335938 -93.97304687 115.03335938 -95.1171875 114.03125 C-107.92623502 102.09356626 -116.41308604 84.47415417 -117.1875 66.88671875 C-117.55313978 45.02026124 -112.78698249 26.63052997 -97.8515625 10.015625 C-97.33335938 9.40460937 -96.81515625 8.79359375 -96.28125 8.1640625 C-72.04361379 -18.50951704 -28.51753448 -19.84507879 0 0 Z " fill="#FCFCFC" transform="translate(116.8515625,12.984375)"/>
<path d="M0 0 C1.17162186 0.002062 1.17162186 0.002062 2.36691284 0.00416565 C4.00923432 0.01318714 5.65153361 0.0367095 7.29345703 0.07397461 C9.80463615 0.12890513 12.31250014 0.1355022 14.82421875 0.13476562 C16.4245078 0.14950879 18.02477444 0.16699277 19.625 0.1875 C20.37298859 0.19083847 21.12097717 0.19417694 21.89163208 0.19761658 C26.03958922 0.31085643 28.75760611 0.6053377 31.6796875 3.69140625 C32.22371209 7.78308416 31.07685165 11.75075431 29.4921875 15.50390625 C27.10216738 18.38841329 25.25331717 20.50881271 21.6796875 21.69140625 C16.99339193 22.02054407 12.36906148 21.92266305 7.6796875 21.69140625 C6.62472464 25.34861082 5.60297343 28.99826253 4.6796875 32.69140625 C-3.5703125 32.69140625 -11.8203125 32.69140625 -20.3203125 32.69140625 C-20.8153125 30.21640625 -20.8153125 30.21640625 -21.3203125 27.69140625 C-22.0628125 28.51640625 -22.8053125 29.34140625 -23.5703125 30.19140625 C-28.11002584 34.08415561 -33.6871972 33.10158455 -39.3203125 32.69140625 C-33.904491 26.19242045 -33.904491 26.19242045 -31.0703125 23.76171875 C-28.84439831 21.83723044 -26.98431232 20.12201845 -25.3203125 17.69140625 C-25.17773733 14.38936534 -26.2064718 11.76407025 -27.3203125 8.69140625 C-27.56562124 7.34344714 -27.77807248 5.98875952 -27.9453125 4.62890625 C-28.0690625 3.65953125 -28.1928125 2.69015625 -28.3203125 1.69140625 C-24.3603125 1.69140625 -20.4003125 1.69140625 -16.3203125 1.69140625 C-15.6603125 3.34140625 -15.0003125 4.99140625 -14.3203125 6.69140625 C-13.09272217 5.22779663 -13.09272217 5.22779663 -11.84033203 3.73461914 C-8.25163072 0.16526552 -4.91454317 -0.14240473 0 0 Z " fill="#E3E3E3" transform="translate(46.3203125,52.30859375)"/>
<path d="M0 0 C8.58 0 17.16 0 26 0 C23.74225122 10.15986949 23.74225122 10.15986949 22.4375 13.9375 C22.18871094 14.66839844 21.93992187 15.39929688 21.68359375 16.15234375 C21 18 21 18 20 20 C11.09 20 2.18 20 -7 20 C-4 9 -4 9 0 0 Z " fill="#0A0A0A" transform="translate(79,65)"/>
<path d="M0 0 C3.63 0 7.26 0 11 0 C11.33 1.32 11.66 2.64 12 4 C12.38800781 3.34515625 12.77601562 2.6903125 13.17578125 2.015625 C15 0 15 0 17.48046875 -0.390625 C18.82044922 -0.32101563 18.82044922 -0.32101563 20.1875 -0.25 C21.08855469 -0.21390625 21.98960937 -0.1778125 22.91796875 -0.140625 C23.60503906 -0.09421875 24.29210937 -0.0478125 25 0 C23.41396777 7.14210757 19.48277717 15.07316877 14 20 C9.11526707 21.86248871 4.02436118 20.96467735 -1 20 C-1.11065041 13.25032497 -0.68026044 6.7175718 0 0 Z " fill="#0C0C0C" transform="translate(109,65)"/>
<path d="M0 0 C4.95 0 9.9 0 15 0 C14.34 1.98 13.68 3.96 13 6 C13.38004117 8.39369873 13.38004117 8.39369873 14.375 10.5625 C15.87780259 14.22803153 16 15.72021162 16 20 C12.04 20 8.08 20 4 20 C3.505 17.525 3.505 17.525 3 15 C2.2575 15.825 1.515 16.65 0.75 17.5 C-3.78971334 21.39274936 -9.3668847 20.4101783 -15 20 C-11.11745713 15.34094856 -7.10596961 11.09538543 -2.63671875 6.9921875 C-0.54479486 4.76472683 -0.54479486 4.76472683 0 0 Z " fill="#080808" transform="translate(22,65)"/>
<path d="M0 0 C9.57 0 19.14 0 29 0 C27.84487227 4.6205109 26.76091548 5.33984027 23 8 C19.99686252 9.50156874 17.20932478 9.09281204 13.875 9.0625 C12.59367187 9.05347656 11.31234375 9.04445313 9.9921875 9.03515625 C9.00476563 9.02355469 8.01734375 9.01195313 7 9 C5.94503714 12.65720457 4.92328593 16.30685628 4 20 C0.37 20 -3.26 20 -7 20 C-5.15626852 12.71726067 -3.12225628 7.02507662 0 0 Z " fill="#0E0E0E" transform="translate(47,65)"/>
<path d="M0 0 C4.12494151 -0.05784708 8.24977944 -0.09354407 12.375 -0.125 C13.550625 -0.14175781 14.72625 -0.15851562 15.9375 -0.17578125 C17.61972656 -0.18544922 17.61972656 -0.18544922 19.3359375 -0.1953125 C20.37282715 -0.20578613 21.4097168 -0.21625977 22.47802734 -0.22705078 C25 0 25 0 27 2 C26.67 4.64 26.34 7.28 26 10 C16.43 10 6.86 10 -3 10 C-1.875 3.25 -1.875 3.25 0 0 Z " fill="#030303" transform="translate(51,54)"/>
<path d="M0 0 C2.61376953 -0.34057617 2.61376953 -0.34057617 5.8828125 -0.29296875 C7.04941406 -0.28330078 8.21601562 -0.27363281 9.41796875 -0.26367188 C10.64128906 -0.23853516 11.86460938 -0.21339844 13.125 -0.1875 C14.35605469 -0.17396484 15.58710937 -0.16042969 16.85546875 -0.14648438 C19.90407843 -0.11103543 22.951825 -0.06162079 26 0 C25.46599103 3.91606575 24.80330533 6.39338934 23 10 C14.42 10 5.84 10 -3 10 C-2 3 -2 3 0 0 Z " fill="#030303" transform="translate(83,54)"/>
<path d="M0 0 C3.96 0 7.92 0 12 0 C12.66 1.65 13.32 3.3 14 5 C14.5775 4.175 15.155 3.35 15.75 2.5 C17.85845994 0.3177747 18.92376489 0.00842651 22.00390625 -0.33203125 C25.01605179 -0.31424999 27.99585197 -0.21560871 31 0 C30.06409496 1.1055189 29.12620142 2.20935453 28.1875 3.3125 C27.66542969 3.92738281 27.14335938 4.54226562 26.60546875 5.17578125 C26.07566406 5.77777344 25.54585937 6.37976562 25 7 C24.35224609 7.78987305 24.35224609 7.78987305 23.69140625 8.59570312 C21.46373079 10.44523968 20.19848058 10.34774167 17.33203125 10.29296875 C16.43935547 10.28330078 15.54667969 10.27363281 14.62695312 10.26367188 C13.23379883 10.2259668 13.23379883 10.2259668 11.8125 10.1875 C10.87212891 10.17396484 9.93175781 10.16042969 8.96289062 10.14648438 C6.64134962 10.11113096 4.32096347 10.06178674 2 10 C0.68373308 6.38026598 0 3.90432869 0 0 Z " fill="#050505" transform="translate(18,54)"/>
<path d="M0 0 C2.64 0 5.28 0 8 0 C8 1.32 8 2.64 8 4 C8.4125 3.34 8.825 2.68 9.25 2 C9.8275 1.34 10.405 0.68 11 0 C12.32 0 13.64 0 15 0 C15.33 1.65 15.66 3.3 16 5 C16.66 3.35 17.32 1.7 18 0 C19.32 0 20.64 0 22 0 C22.33 0.66 22.66 1.32 23 2 C23.66 1.34 24.32 0.68 25 0 C25.99 0 26.98 0 28 0 C27.34 2.97 26.68 5.94 26 9 C24.68 8.67 23.36 8.34 22 8 C20.65845071 8.29855385 19.32489638 8.63457086 18 9 C16.34010718 9.07911543 14.6773713 9.10778885 13.015625 9.09765625 C12.08105469 9.09443359 11.14648438 9.09121094 10.18359375 9.08789062 C9.21550781 9.07951172 8.24742188 9.07113281 7.25 9.0625 C5.77466797 9.05573242 5.77466797 9.05573242 4.26953125 9.04882812 C1.84632806 9.037065 -0.57684377 9.01913018 -3 9 C-2.01 6.03 -1.02 3.06 0 0 Z " fill="#181818" transform="translate(65,37)"/>
<path d="M0 0 C2.52955222 0.00715573 4.9962192 0.12358163 7.51171875 0.3828125 C6.8867048 2.06554236 6.20994492 3.72911893 5.51171875 5.3828125 C5.01671875 6.775 5.01671875 6.775 4.51171875 8.1953125 C2.51171875 10.3828125 2.51171875 10.3828125 0.09375 10.6953125 C-2.45202267 10.6953125 -4.95210307 10.59693636 -7.48828125 10.3828125 C-5.30457241 0.81608806 -5.30457241 0.81608806 0 0 Z " fill="#070707" transform="translate(133.48828125,53.6171875)"/>
<path d="M0 0 C3.3 0 6.6 0 10 0 C10.125 6.625 10.125 6.625 9 10 C5.7 10 2.4 10 -1 10 C-1.125 3.375 -1.125 3.375 0 0 Z " fill="#080808" transform="translate(111,54)"/>
<path d="M0 0 C1.32 0 2.64 0 4 0 C4.33 0.66 4.66 1.32 5 2 C5.66 1.34 6.32 0.68 7 0 C7.99 0 8.98 0 10 0 C9.34 2.97 8.68 5.94 8 9 C6.68 8.67 5.36 8.34 4 8 C1.90178785 8.39938767 1.90178785 8.39938767 0 9 C-0.66 9 -1.32 9 -2 9 C-1.125 2.25 -1.125 2.25 0 0 Z " fill="#0D0D0D" transform="translate(83,37)"/>
<path d="M0 0 C1 3 1 3 0 7 C8.58 7 17.16 7 26 7 C26 7.99 26 8.98 26 10 C26.66 10.33 27.32 10.66 28 11 C26.02 11.99 26.02 11.99 24 13 C24.33 11.35 24.66 9.7 25 8 C11.635 8.495 11.635 8.495 -2 9 C-3 4 -3 4 -2 1 C-1.34 0.67 -0.68 0.34 0 0 Z " fill="#DCDCDC" transform="translate(80,57)"/>
<path d="M0 0 C2.97 0 5.94 0 9 0 C8.67 0.99 8.34 1.98 8 3 C7.01 3 6.02 3 5 3 C4.67 4.98 4.34 6.96 4 9 C3.01 9 2.02 9 1 9 C1.33 7.02 1.66 5.04 2 3 C1.34 3 0.68 3 0 3 C0 2.01 0 1.02 0 0 Z " fill="#0E0E0E" transform="translate(55,37)"/>
<path d="M0 0 C0.66 0.33 1.32 0.66 2 1 C-0.97 3.97 -3.94 6.94 -7 10 C-7.66 9.67 -8.32 9.34 -9 9 C-8.34 8.01 -7.68 7.02 -7 6 C-14.92 6.495 -14.92 6.495 -23 7 C-23.33 6.34 -23.66 5.68 -24 5 C-23.41508789 4.9906543 -22.83017578 4.98130859 -22.22753906 4.97167969 C-19.5675142 4.91786721 -16.90922778 4.83424551 -14.25 4.75 C-12.86941406 4.72873047 -12.86941406 4.72873047 -11.4609375 4.70703125 C-6.00181875 4.58295132 -6.00181875 4.58295132 -1.359375 1.953125 C-0.68648437 0.98632812 -0.68648437 0.98632812 0 0 Z " fill="#D4D4D4" transform="translate(44,59)"/>
<path d="M0 0 C-0.33 0.66 -0.66 1.32 -1 2 C-3.64 1.67 -6.28 1.34 -9 1 C-9.12375 1.763125 -9.2475 2.52625 -9.375 3.3125 C-10 6 -10 6 -12 9 C-12.66 7.35 -13.32 5.7 -14 4 C-13.01 3.67 -12.02 3.34 -11 3 C-10.67 2.34 -10.34 1.68 -10 1 C-12.64 1 -15.28 1 -18 1 C-18 0.67 -18 0.34 -18 0 C-11.76817361 -1.03863773 -6.25307239 -0.83288874 0 0 Z " fill="#D9D9D9" transform="translate(74,36)"/>
<path d="M0 0 C0.66 0.33 1.32 0.66 2 1 C1.75 4.375 1.75 4.375 1 8 C-0.98 8.99 -0.98 8.99 -3 10 C-2.01 6.7 -1.02 3.4 0 0 Z " fill="#D6D6D6" transform="translate(109,54)"/>
</svg>
