<?xml version="1.0" encoding="UTF-8"?>
<!-- Generator: https://ezgif.com/png-to-svg -->
<svg version="1.1" xmlns="http://www.w3.org/2000/svg" width="512" height="512" viewBox="-3.03 -2.78 56.56 56.56" preserveAspectRatio="xMidYMid meet">
<path d="M0 0 C13.53 0 27.06 0 41 0 C50.5 22.8 50.5 22.8 49 27 C48.33 26.35 47.67 25.71 46.98 25.04 C43.36 22.56 40.53 22.4 36.29 22.39 C35.57 22.37 34.84 22.36 34.09 22.34 C31.79 22.29 29.49 22.27 27.19 22.25 C25.62 22.22 24.05 22.19 22.49 22.16 C18.66 22.09 14.83 22.04 11 22 C10.51 20.79 10.51 20.79 10.01 19.55 C9.57 18.48 9.14 17.41 8.69 16.31 C8.26 15.26 7.83 14.2 7.39 13.11 C5.77 9.47 4.15 6.15 1.31 3.31 C0.88 2.88 0.45 2.45 0 2 C0 1.34 0 0.68 0 0 Z M12 6 C12.99 8.97 13.98 11.94 15 15 C23.25 15 31.5 15 40 15 C38.52 10.55 38.52 10.55 37 6 C33.7 6 30.4 6 27 6 C27.66 8.31 28.32 10.62 29 13 C27.85 12.21 26.71 11.42 25.56 10.62 C24.92 10.18 24.29 9.74 23.63 9.29 C22 8 22 8 21 6 C18.03 6 15.06 6 12 6 Z " fill="#FEFF02" transform="translate(0,12)"/>
</svg>
