<?xml version="1.0" encoding="UTF-8"?>
<!-- Generator: https://ezgif.com/png-to-svg -->
<svg version="1.1" xmlns="http://www.w3.org/2000/svg" width="512" height="512" viewBox="18.306 18.379 383.379 383.379" preserveAspectRatio="xMidYMid meet">
<path d="M0 0 C6.65 5.71 9.68 13.28 12.97 21.21 C18.01 34.59 18.01 34.59 26.75 45.56 C29.86 46.63 32.85 47.23 36.09 47.77 C38.75 48.56 38.75 48.56 40.44 50.29 C42.25 53.65 42.76 56.04 42.69 59.88 C41.75 62.56 41.75 62.56 40.22 63.89 C37.57 66.9 38.3 70.44 38.41 74.27 C39.4 83.9 44.02 92.72 48.02 101.42 C48.53 102.53 48.53 102.53 49.04 103.66 C49.35 104.31 49.65 104.97 49.97 105.65 C52.5 111.83 52.9 118.74 50.38 124.94 C49.84 125.8 49.3 126.67 48.75 127.56 C48.09 128.88 47.43 130.2 46.75 131.56 C51.7 134.04 51.7 134.04 56.75 136.56 C57.36 142.48 55.23 146.61 52.75 151.81 C52 153.42 51.25 155.03 50.5 156.64 C50.16 157.35 49.83 158.05 49.48 158.78 C48.62 160.55 48.62 160.55 48.75 162.56 C49.38 162.82 50 163.08 50.65 163.34 C53.48 164.51 56.3 165.69 59.12 166.88 C60.11 167.28 61.09 167.68 62.11 168.1 C63.05 168.5 63.99 168.89 64.96 169.3 C65.83 169.66 66.7 170.02 67.6 170.4 C69.75 171.56 69.75 171.56 71.75 174.56 C71.53 179.56 69.68 182.59 66.75 186.56 C60.19 186.09 55.17 184.29 49.25 181.5 C48.02 180.93 48.02 180.93 46.76 180.36 C44.75 179.44 42.75 178.5 40.75 177.56 C40.58 178.12 40.4 178.69 40.22 179.27 C38.56 184.47 36.59 189.28 34.06 194.12 C33.58 195.07 33.58 195.07 33.09 196.03 C32.32 197.54 31.53 199.05 30.75 200.56 C25.55 200.12 22.09 199.68 17.75 196.56 C18.01 189.09 20.37 183.3 23.47 176.6 C24.94 173.65 24.94 173.65 24.75 170.56 C24.15 170.3 23.56 170.04 22.95 169.77 C20.25 168.58 17.56 167.38 14.88 166.19 C13.94 165.78 13 165.36 12.04 164.94 C11.14 164.54 10.24 164.14 9.32 163.73 C8.49 163.36 7.67 162.99 6.81 162.62 C4.75 161.56 4.75 161.56 2.75 159.56 C2.97 153.97 4.48 150.89 7.75 146.56 C13.96 147.09 19.01 149.13 24.69 151.62 C26 152.19 26 152.19 27.34 152.77 C29.48 153.69 31.62 154.62 33.75 155.56 C33.94 154.99 34.12 154.42 34.31 153.82 C35.85 149.13 37.5 144.55 39.44 140 C39.87 138.97 40.31 137.93 40.76 136.87 C41.09 136.11 41.41 135.35 41.75 134.56 C40.99 135 40.99 135 40.21 135.44 C35.87 137.78 32.81 139.07 27.75 138.56 C22.52 128.06 22.52 128.06 23.75 123.56 C26.23 121.52 28.89 120.01 31.75 118.56 C31.19 114.44 30.25 110.99 28.57 107.18 C28.14 106.19 27.7 105.19 27.26 104.16 C26.8 103.12 26.34 102.07 25.88 101 C15.26 76.04 15.26 76.04 19.75 62.56 C19.07 62.36 18.39 62.15 17.69 61.94 C4.67 55.85 -0.16 40.94 -5.65 28.62 C-6.46 26.81 -7.29 25.01 -8.13 23.21 C-8.61 22.15 -9.09 21.09 -9.58 20 C-11.04 17.35 -11.04 17.35 -13.82 16.65 C-16.26 16.37 -16.26 16.37 -18.25 17.56 C-21.12 18 -21.12 18 -24.25 17.56 C-27.25 13.98 -30.48 9.45 -30.09 4.58 C-28.89 1.7 -27.29 1.18 -24.5 -0.12 C-23.21 -0.75 -23.21 -0.75 -21.89 -1.39 C-14.62 -4.28 -6.65 -4.52 0 0 Z " fill="#FCFCFC" transform="translate(251.25,43.4375)"/>
<path d="M0 0 C10.51 3.12 19.64 6.64 26 16 C29.4 23.09 28.48 29.15 26 36.31 C23.49 42.98 20.69 49.53 17.89 56.08 C10.07 73.07 10.07 73.07 10.82 91.07 C12.29 93.68 13.88 95.88 16 98 C15.88 100.62 15.88 100.62 15 104 C14.82 104.69 14.64 105.39 14.46 106.1 C13.58 108.56 12.83 110.11 11 112 C7.96 112.87 5.03 113.2 1.9 113.55 C-2.26 114.19 -4.52 115.75 -7 119 C-13.4 128.31 -18.7 138.26 -22.94 148.73 C-23.28 149.57 -23.62 150.41 -23.97 151.27 C-24.64 152.92 -25.29 154.58 -25.93 156.24 C-28.54 162.72 -31.9 167.84 -37.69 171.88 C-47.42 175.18 -55.4 173.99 -64.59 169.82 C-70.63 166.74 -70.63 166.74 -71.88 164.23 C-72.05 161.03 -71.08 158.77 -69.88 155.81 C-69.46 154.75 -69.04 153.68 -68.62 152.58 C-67 150 -67 150 -64.54 149.04 C-60.93 148.98 -58.28 150.57 -55 152 C-52.91 151.89 -52.91 151.89 -51 151 C-45.47 143.54 -42.06 134.67 -38.31 126.21 C-32.37 112.86 -25.91 100.29 -12 94 C-12.5 92.86 -12.5 92.86 -13 91.69 C-17.22 76.12 -9.7 60.44 -3.31 46.5 C-2.42 44.54 -1.52 42.57 -0.64 40.6 C0.15 38.83 0.95 37.07 1.76 35.31 C3.33 31.13 4.14 27.13 3.84 22.66 C3.11 20.8 3.11 20.8 0.97 20.09 C0.15 19.9 -0.66 19.7 -1.5 19.5 C-3.97 18.91 -3.97 18.91 -6 18 C-6.93 16.29 -6.93 16.29 -7 14 C-6.07 11.05 -6.07 11.05 -4.69 7.88 C-4.24 6.82 -3.79 5.77 -3.32 4.68 C-2 2 -2 2 0 0 Z " fill="#FCFCFC" transform="translate(191,181)"/>
<path d="M0 0 C6.84 0.25 13.23 2.24 19 6 C20.26 8.74 20.03 9.92 19.06 12.81 C18.33 14.39 18.33 14.39 17.58 16.02 C17.05 17.18 16.52 18.35 15.97 19.56 C15.4 20.79 14.82 22.02 14.25 23.25 C13.15 25.65 12.05 28.05 10.95 30.45 C10.18 32.15 10.18 32.15 9.39 33.87 C7.76 37.54 6.33 41.22 5 45 C6.27 45.57 6.27 45.57 7.57 46.15 C10.73 47.56 13.9 48.97 17.06 50.39 C18.43 51 19.79 51.61 21.16 52.22 C23.13 53.1 25.1 53.98 27.07 54.86 C28.25 55.39 29.44 55.92 30.66 56.47 C33.81 57.91 36.91 59.43 40 61 C39.54 66.52 38.3 71.44 35 76 C33.28 77.24 33.28 77.24 31 78 C28.3 77.28 28.3 77.28 25.24 75.93 C24.12 75.44 23 74.96 21.85 74.46 C20.68 73.94 19.51 73.41 18.31 72.88 C16.59 72.12 16.59 72.12 14.84 71.36 C11.55 69.92 8.27 68.46 5 67 C3.22 66.21 1.45 65.42 -0.33 64.63 C-1.55 64.09 -2.78 63.54 -4 63 C-4.16 63.53 -4.33 64.06 -4.5 64.61 C-6.43 70.66 -8.84 76.37 -11.5 82.12 C-12.28 83.84 -13.06 85.55 -13.84 87.26 C-14.21 88.06 -14.58 88.86 -14.96 89.69 C-16.35 92.78 -17.68 95.88 -19 99 C-24.27 99.45 -27.84 97.95 -32.38 95.5 C-33.02 95.17 -33.66 94.83 -34.32 94.49 C-35.88 93.67 -37.44 92.84 -39 92 C-38.47 87.04 -37.39 83.08 -35.31 78.55 C-34.78 77.37 -34.25 76.2 -33.7 74.98 C-33.13 73.76 -32.57 72.54 -32 71.31 C-30.89 68.89 -29.79 66.47 -28.69 64.05 C-28.2 62.99 -27.71 61.92 -27.2 60.82 C-26.22 58.52 -25.5 56.44 -25 54 C-28.72 52.35 -32.43 50.69 -36.15 49.04 C-37.41 48.48 -38.67 47.91 -39.94 47.35 C-41.76 46.54 -43.59 45.73 -45.41 44.92 C-47.05 44.19 -47.05 44.19 -48.73 43.44 C-50.45 42.68 -52.18 41.93 -53.93 41.23 C-58.89 39.24 -58.89 39.24 -60.09 36.67 C-59.98 33.37 -59.08 31.27 -57.62 28.31 C-57.16 27.36 -56.7 26.41 -56.23 25.43 C-55.82 24.63 -55.42 23.82 -55 23 C-54.67 22.34 -54.34 21.68 -54 21 C-49.78 21.57 -46.22 22.56 -42.31 24.25 C-41.27 24.7 -40.23 25.14 -39.16 25.6 C-35.37 27.28 -31.61 29.01 -27.86 30.79 C-23.98 32.43 -20.01 33.71 -16 35 C-14.81 32.33 -13.62 29.67 -12.44 27 C-12.08 26.2 -11.72 25.39 -11.35 24.56 C-9.53 20.47 -7.73 16.38 -5.95 12.28 C-5.47 11.18 -5.47 11.18 -4.98 10.06 C-4.38 8.66 -3.77 7.26 -3.17 5.87 C-1.11 1.11 -1.11 1.11 0 0 Z " fill="#FCFCFC" transform="translate(105,190)"/>
<path d="M0 0 C12 23.23 12 23.23 12 28 C12.73 27.67 13.46 27.34 14.22 27.01 C17.54 25.52 20.86 24.04 24.19 22.56 C25.34 22.05 26.49 21.53 27.67 21 C28.79 20.5 29.9 20.01 31.04 19.5 C32.06 19.05 33.09 18.59 34.14 18.12 C36.81 17.08 39.15 16.31 42 16 C46.64 19.27 48.29 24.3 49.69 29.62 C48.67 33.12 46.42 33.88 43.39 35.7 C39.38 37.88 35.22 39.6 31 41.31 C30.13 41.67 29.26 42.03 28.36 42.4 C26.24 43.27 24.12 44.14 22 45 C22.64 51.39 25.43 56.59 28.21 62.28 C30.43 67.03 31.62 70.63 31 76 C27.79 79.45 23.52 80.68 19 81.62 C16 81 16 81 13.56 78 C4 60.66 4 60.66 4 54 C-2.81 56.34 -9.46 58.65 -15.94 61.81 C-20.29 63.84 -23.24 64.89 -28 64 C-31.18 61.16 -32.61 56.97 -34 53 C-33.9 50.46 -33.9 50.46 -33 48 C-30.77 46.41 -30.77 46.41 -27.81 45.06 C-26.74 44.57 -25.66 44.07 -24.56 43.56 C-23.38 43.04 -22.21 42.53 -21 42 C-19.72 41.43 -18.44 40.86 -17.16 40.29 C-7.43 36 -7.43 36 -5 36 C-5.51 34.92 -5.51 34.92 -6.03 33.82 C-7.56 30.53 -9.06 27.23 -10.56 23.94 C-11.1 22.8 -11.63 21.67 -12.18 20.5 C-16.46 11.02 -16.46 11.02 -16.1 6.84 C-15 4 -15 4 -13.14 2.44 C-12.37 2.15 -11.61 1.86 -10.81 1.56 C-9.68 1.1 -9.68 1.1 -8.52 0.63 C-5.61 -0.1 -2.99 -0.11 0 0 Z " fill="#FCFCFC" transform="translate(195,97)"/>
<path d="M0 0 C7.48 1.83 13.55 4.32 18 11 C21.08 20.25 17.9 27.93 14.06 36.44 C13.14 38.56 12.21 40.68 11.29 42.81 C10.87 43.73 10.46 44.66 10.03 45.61 C8.4 49.38 7.82 52.36 7.75 56.44 C7.71 57.86 7.71 57.86 7.67 59.31 C8.05 62.43 9.09 63.58 11 66 C10.88 69.49 10.4 72.14 8.94 75.31 C6.52 77.42 4.26 77.78 1.13 78.21 C-4.84 80.41 -7.41 86.18 -9.94 91.56 C-10.28 92.26 -10.62 92.97 -10.98 93.69 C-12.56 96.94 -14.1 100.21 -15.6 103.5 C-21.29 115.65 -21.29 115.65 -27 118 C-34.4 119.01 -40.48 118.85 -47 115 C-47.66 114.34 -48.32 113.68 -49 113 C-48.73 108.2 -47.75 104.94 -45 101 C-41.7 101.33 -38.4 101.66 -35 102 C-34.52 101.01 -34.03 100.01 -33.53 98.99 C-20.17 71.8 -20.17 71.8 -11 65 C-10.34 64.34 -9.68 63.68 -9 63 C-9.27 61.1 -9.54 59.21 -9.82 57.31 C-10.67 46.58 -4.56 34.83 -0.34 25.18 C1.4 21.18 1.4 21.18 1 17 C-1.9 14.65 -1.9 14.65 -5 13 C-4.55 7.37 -3.32 4.39 0 0 Z " fill="#FCFCFC" transform="translate(354,170)"/>
<path d="M0 0 C5.3 3.61 7.52 7.24 10 13.06 C10.68 14.58 11.36 16.1 12.05 17.61 C12.38 18.36 12.71 19.1 13.04 19.87 C14.38 22.86 15.8 25.81 17.25 28.75 C17.69 29.65 18.13 30.55 18.58 31.48 C21.02 35.8 22.72 38.56 27.5 40.19 C28.65 40.46 29.81 40.72 31 41 C33.63 41.73 34.62 42.38 36.05 44.7 C37.04 46.85 37.71 48.64 38 51 C36.67 53 35.33 55 34 57 C32.74 67.7 38.69 79.46 43.38 88.81 C45.64 93.78 45.78 98.64 45 104 C42.68 109.85 38.04 112.06 32.75 115 C29.58 116.15 28.13 116.22 25 115 C23.57 113.29 23.57 113.29 22.56 111.19 C22.21 110.5 21.86 109.81 21.5 109.11 C21 107 21 107 21.74 104.85 C23.41 102.4 25.4 101.37 28 100 C27.41 94.36 25.33 89.69 23.06 84.56 C19.53 76.52 16.66 69.78 17.25 60.81 C17.37 57.2 17.37 57.2 17 54 C14.44 51.46 14.44 51.46 11 50 C6.18 44.87 3.17 38.73 0.31 32.38 C-0.44 30.74 -1.19 29.1 -1.95 27.46 C-2.3 26.7 -2.65 25.93 -3.01 25.14 C-5.01 20.24 -5.01 20.24 -8 16 C-9.69 16.09 -11.38 16.25 -13.06 16.44 C-14.44 16.59 -14.44 16.59 -15.85 16.75 C-16.91 16.87 -16.91 16.87 -18 17 C-20.03 13.49 -21.85 10.31 -22.31 6.25 C-19.81 1.96 -14.52 0.76 -9.95 -0.62 C-6.56 -1.28 -3.24 -1.1 0 0 Z " fill="#FCFCFC" transform="translate(284,265)"/>
<path d="M0 0 C2.58 1.73 3.18 3.26 4.35 6.12 C4.94 7.53 4.94 7.53 5.54 8.97 C5.94 9.96 6.33 10.94 6.74 11.96 C7.15 12.95 7.56 13.94 7.98 14.96 C9 17.41 10 19.87 10.99 22.33 C17.01 21.67 21.79 19.29 27.15 16.68 C27.83 16.37 28.51 16.05 29.21 15.73 C29.82 15.44 30.42 15.14 31.05 14.84 C32.99 14.33 32.99 14.33 37.99 15.33 C38.98 18.63 39.97 21.93 40.99 25.33 C34.05 30.05 26.72 33.17 18.99 36.33 C19.65 42.35 22.03 47.13 24.64 52.5 C26.07 55.58 26.99 57.74 26.97 61.18 C25.68 64 24.52 64.54 21.68 65.71 C20.51 66.21 20.51 66.21 19.31 66.73 C16.58 67.44 15.5 67.64 12.99 66.33 C11.6 64.15 10.5 62.15 9.43 59.83 C8.56 58.05 8.56 58.05 7.67 56.24 C5.78 52.05 4.36 47.71 2.99 43.33 C2.38 43.6 1.77 43.88 1.14 44.16 C-1.64 45.39 -4.42 46.61 -7.2 47.83 C-8.16 48.26 -9.12 48.69 -10.11 49.13 C-11.04 49.54 -11.97 49.94 -12.93 50.36 C-14.21 50.93 -14.21 50.93 -15.52 51.5 C-18.16 52.38 -20.24 52.49 -23.01 52.33 C-23.74 50.73 -24.44 49.13 -25.14 47.52 C-25.53 46.62 -25.93 45.73 -26.33 44.81 C-26.56 43.99 -26.78 43.17 -27.01 42.33 C-24.79 39 -23.81 38.56 -20.22 37.07 C-19.28 36.67 -18.34 36.28 -17.37 35.87 C-16.39 35.46 -15.4 35.06 -14.39 34.64 C-13.39 34.23 -12.4 33.81 -11.38 33.38 C-8.93 32.36 -6.47 31.34 -4.01 30.33 C-7.84 20.17 -7.84 20.17 -12.41 10.33 C-13.24 7.58 -13.02 6.02 -12.01 3.33 C-9.87 1.9 -9.87 1.9 -7.2 0.89 C-6.33 0.54 -5.45 0.19 -4.55 -0.17 C-2.01 -0.67 -2.01 -0.67 0 0 Z " fill="#FBFBFB" transform="translate(240.011474609375,310.669189453125)"/>
<path d="M0 0 C2.31 0 4.62 0 7 0 C7.33 0.66 7.66 1.32 8 2 C5.03 2.66 2.06 3.32 -1 4 C-0.67 2.68 -0.34 1.36 0 0 Z " fill="#E8E8E8" transform="translate(270,277)"/>
</svg>
