<?xml version="1.0" encoding="UTF-8"?>
<!-- Generator: https://ezgif.com/png-to-svg -->
<svg version="1.1" xmlns="http://www.w3.org/2000/svg" width="452" height="452">
<path d="M0 0 C6.53 5.52 9.59 13.71 12.88 21.36 C13.56 22.95 14.25 24.54 14.94 26.12 C15.45 27.31 15.45 27.31 15.97 28.51 C18.39 33.96 21.17 38.4 25 43 C25 43.66 25 44.32 25 45 C28.12 46.46 30.66 47.08 34.06 47.25 C37.62 47.63 37.87 47.85 40.44 50.75 C43.07 56.22 43.07 56.22 43 59 C41.94 60.52 41.94 60.52 40.56 62.19 C37.7 65.89 37.32 68.67 37.59 73.29 C39.06 82.92 43.56 92 47.32 100.92 C47.88 102.28 48.44 103.64 49 105 C49.29 105.7 49.58 106.4 49.88 107.11 C52.14 112.75 52.5 117.04 51 123 C49.06 126.44 49.06 126.44 47 129 C46.34 129.99 45.68 130.98 45 132 C46.05 132.15 46.05 132.15 47.12 132.31 C50.5 133.12 53.07 134.13 56 136 C57.16 138.6 57.22 140.32 56.34 143.03 C55.33 145.41 54.25 147.74 53.12 150.06 C52.37 151.66 51.63 153.25 50.88 154.85 C50.55 155.55 50.21 156.25 49.86 156.97 C49.01 158.97 48.46 160.89 48 163 C48.67 163.09 49.34 163.19 50.02 163.29 C53.8 164.19 57.14 165.77 60.62 167.44 C61.29 167.75 61.96 168.06 62.65 168.38 C65.58 169.77 68.29 171.2 71 173 C70.56 178.2 70.12 181.66 67 186 C61.42 185.49 57.28 183.97 52.31 181.44 C46.96 178.72 46.96 178.72 41 178 C40.74 178.6 40.48 179.19 40.21 179.8 C39.02 182.5 37.82 185.19 36.62 187.88 C36.21 188.81 35.8 189.75 35.38 190.71 C34.98 191.61 34.58 192.51 34.16 193.43 C33.61 194.67 33.61 194.67 33.05 195.94 C32 198 32 198 30 200 C25 199.77 21.97 197.93 18 195 C18.53 189.3 20.15 184.85 22.56 179.69 C25 175.02 25 175.02 26 170 C25.01 169.58 25.01 169.58 24 169.15 C21.01 167.86 18.04 166.56 15.06 165.25 C14.02 164.81 12.98 164.36 11.91 163.91 C10.92 163.47 9.93 163.03 8.91 162.58 C7.99 162.18 7.08 161.78 6.13 161.37 C4 160 4 160 3.16 157.98 C2.95 155.36 3.58 153.72 4.62 151.31 C4.95 150.52 5.27 149.74 5.6 148.93 C7 147 7 147 9.26 146.25 C12.61 145.94 14.27 146.66 17.3 148.09 C18.28 148.54 19.25 149 20.26 149.47 C21.27 149.95 22.27 150.44 23.31 150.94 C24.34 151.42 25.37 151.9 26.42 152.4 C28.96 153.59 31.48 154.79 34 156 C34.19 155.43 34.37 154.85 34.56 154.26 C36.72 147.68 39.29 141.37 42 135 C38.04 135.99 34.08 136.98 30 138 C26.35 133.75 24 130.59 24 124.88 C25 122 25 122 27.94 120.12 C31 119 31 119 33 119 C31.51 111.94 28.86 105.61 26 99 C21.33 88.22 18.49 79.8 19.43 68 C19.59 65.54 19.59 65.54 19 62 C16.28 59.61 16.28 59.61 13 58 C2.44 48.77 -2.47 34.57 -7.83 21.96 C-9.04 18.75 -9.04 18.75 -11 16 C-14.05 16.26 -17.08 16.65 -20.12 17.04 C-23 17 -23 17 -24.78 15.73 C-27.77 11.49 -29.47 7.21 -29 2 C-19.38 -2.51 -9.94 -5.68 0 0 Z " fill="#FBFAFA" transform="translate(251,44)"/>
<path d="M0 0 C8.85 1.06 18.19 5.43 24.25 12.06 C28.37 17.51 29.59 22.18 28.73 28.92 C27.26 35.13 24.54 40.91 21.99 46.74 C12.55 67.05 12.55 67.05 11 89 C12.36 92.31 14.48 94.48 17 97 C16.73 101.66 14.43 106.07 12 110 C9.74 111.13 8.25 111.16 5.75 111.31 C1.12 111.84 -1.47 112.78 -5 116 C-12.76 126.16 -18.08 138.42 -23.05 150.14 C-26.74 158.77 -29.99 165.92 -38.25 171 C-49.97 174.12 -59.53 170.4 -70 165 C-69.69 158.38 -68.26 153.78 -65 148 C-59.48 148.75 -59.48 148.75 -56.94 150.06 C-54.36 151.31 -52.83 151.5 -50 151 C-46.79 147.53 -44.92 143.99 -43.08 139.66 C-42.55 138.43 -42.02 137.19 -41.48 135.96 C-41.21 135.32 -40.94 134.68 -40.66 134.03 C-25.73 99.3 -25.73 99.3 -13 94 C-12.01 94 -11.02 94 -10 94 C-10.32 93.32 -10.64 92.63 -10.97 91.93 C-17.49 73.36 -4.57 51.41 2.92 34.97 C5.07 30.17 5.69 27.2 5 22 C2.88 19.97 2.88 19.97 0 19 C-0.93 18.61 -1.86 18.22 -2.81 17.81 C-3.53 17.54 -4.26 17.28 -5 17 C-5.28 12.32 -4.55 9.32 -2.5 5.12 C-2.04 4.16 -1.57 3.19 -1.09 2.2 C-0.73 1.47 -0.37 0.75 0 0 Z " fill="#FCFCFC" transform="translate(190,182)"/>
<path d="M0 0 C5.11 0.64 8.87 1.65 13.44 4.06 C14.49 4.61 15.54 5.16 16.62 5.72 C17.41 6.14 18.19 6.57 19 7 C18.5 12.82 17.33 17.31 14.84 22.56 C14.53 23.24 14.22 23.92 13.9 24.61 C12.92 26.75 11.93 28.87 10.94 31 C10.27 32.46 9.6 33.91 8.93 35.37 C7.3 38.92 5.65 42.46 4 46 C5.22 46.38 6.44 46.76 7.69 47.15 C13.94 49.24 19.92 51.9 25.94 54.56 C27.07 55.06 28.21 55.55 29.38 56.06 C30.46 56.54 31.54 57.01 32.65 57.5 C34.12 58.15 34.12 58.15 35.62 58.81 C38 60 38 60 40 62 C39.76 67.04 37.92 71.89 35 76 C33.38 77.29 33.38 77.29 31 78 C28.4 77.19 26.16 76.31 23.71 75.17 C23.02 74.86 22.32 74.55 21.6 74.22 C19.37 73.23 17.16 72.21 14.94 71.19 C12.71 70.18 10.49 69.18 8.26 68.18 C6.88 67.56 5.5 66.93 4.12 66.3 C1.43 65.07 -1.2 63.93 -4 63 C-4.37 64.19 -4.73 65.39 -5.11 66.62 C-7.34 73.3 -10.29 79.66 -13.19 86.06 C-13.75 87.32 -14.32 88.58 -14.88 89.84 C-16.25 92.9 -17.62 95.95 -19 99 C-24.31 99.18 -27.76 97.99 -32.38 95.5 C-33.02 95.17 -33.66 94.83 -34.32 94.49 C-35.88 93.67 -37.44 92.84 -39 92 C-38.41 87.23 -37.03 83.35 -35.09 78.96 C-34.81 78.31 -34.52 77.66 -34.23 76.99 C-33.33 74.93 -32.41 72.87 -31.5 70.81 C-30.59 68.74 -29.68 66.68 -28.77 64.61 C-27.95 62.74 -27.12 60.87 -26.29 59 C-24.96 56.03 -24.96 56.03 -24 53 C-24.85 52.73 -25.7 52.45 -26.58 52.17 C-30.02 50.99 -33.33 49.65 -36.68 48.21 C-37.29 47.95 -37.9 47.69 -38.53 47.42 C-39.8 46.88 -41.08 46.33 -42.36 45.78 C-44.32 44.93 -46.29 44.09 -48.25 43.26 C-49.5 42.72 -50.74 42.19 -51.99 41.65 C-53.12 41.17 -54.25 40.68 -55.41 40.18 C-58 39 -58 39 -59 38 C-58.7 32.21 -57.67 26.67 -54 22 C-52.29 21.09 -52.29 21.09 -50 21 C-47.63 21.9 -45.5 22.86 -43.25 24 C-41.92 24.65 -40.58 25.3 -39.25 25.95 C-38.55 26.28 -37.86 26.62 -37.15 26.97 C-33.57 28.69 -29.95 30.28 -26.31 31.88 C-25.64 32.17 -24.97 32.47 -24.28 32.78 C-21.21 34.12 -18.26 35.25 -15 36 C-14.63 34.81 -14.27 33.61 -13.89 32.38 C-11.66 25.7 -8.71 19.34 -5.81 12.94 C-5.25 11.68 -4.68 10.42 -4.12 9.16 C-2.75 6.1 -1.38 3.05 0 0 Z " fill="#FCFBFB" transform="translate(105,190)"/>
<path d="M0 0 C1.75 2.5 2.88 5.2 4.06 8 C4.41 8.77 4.75 9.54 5.1 10.34 C6.08 12.55 7.04 14.77 8 17 C8.83 18.86 9.66 20.71 10.5 22.56 C11 23.7 11.49 24.83 12 26 C18.86 25.38 24.63 22.09 30.74 19.15 C31.6 18.75 32.46 18.35 33.35 17.93 C34.12 17.56 34.89 17.19 35.69 16.81 C38.3 15.9 40.26 15.75 43 16 C46.65 19.23 47.64 24.47 49 29 C44.49 34.55 38.69 36.63 32.19 39.31 C31.11 39.77 30.04 40.22 28.93 40.69 C26.29 41.8 23.65 42.91 21 44 C21.59 47.53 22.53 50.46 24.07 53.69 C24.67 54.98 24.67 54.98 25.29 56.3 C26.14 58.1 26.99 59.9 27.85 61.7 C28.45 62.99 28.45 62.99 29.07 64.31 C29.44 65.09 29.81 65.87 30.19 66.68 C31.11 69.31 31.3 71.23 31 74 C28.05 76.95 25.03 78.89 21 80 C18.44 80 18.44 80 16 79 C11.68 73.44 9.47 67.08 7 60.55 C6.5 59.31 6.5 59.31 6 58.04 C5.71 57.29 5.42 56.54 5.12 55.76 C4.13 53.87 4.13 53.87 2.2 53.11 C-0.78 52.96 -2.55 53.85 -5.25 55.12 C-6.75 55.81 -6.75 55.81 -8.28 56.52 C-10.38 57.5 -12.48 58.49 -14.58 59.48 C-16.09 60.17 -16.09 60.17 -17.62 60.88 C-18.53 61.31 -19.44 61.74 -20.38 62.18 C-23.41 63.13 -25.02 63.02 -28 62 C-29.69 59.69 -29.69 59.69 -31 57 C-31.39 56.34 -31.78 55.68 -32.19 55 C-33.2 52.51 -33.28 50.67 -33 48 C-30.55 45.55 -28.45 44.93 -25.19 43.75 C-18.28 41.17 -11.66 38.17 -5 35 C-7.94 27.05 -11.12 19.44 -14.96 11.88 C-16.14 8.62 -16.33 7.19 -15 4 C-12.89 2.38 -12.89 2.38 -10.25 1.12 C-9.39 0.69 -8.53 0.26 -7.64 -0.18 C-4.41 -1.18 -3.09 -1.44 0 0 Z " fill="#FAFAFA" transform="translate(195,98)"/>
<path d="M0 0 C2.68 1.04 2.68 1.04 5.88 2.62 C6.92 3.13 7.97 3.64 9.05 4.16 C13.11 6.69 15.3 9.51 17.31 13.81 C19.48 23.84 13.86 33.45 9.38 42.15 C6.57 47.96 5.27 54.57 6 61 C7.05 62.49 7.05 62.49 8.12 64 C10 67 10 67 9.44 70.69 C7.32 75.56 7.32 75.56 5 77 C3.33 77.19 3.33 77.19 1.62 77.38 C-2.95 78.16 -4 79.51 -7 83 C-8.49 85.44 -9.72 87.97 -10.94 90.56 C-11.28 91.26 -11.62 91.97 -11.98 92.69 C-13.56 95.94 -15.1 99.21 -16.6 102.5 C-19.84 109.43 -22.93 114.46 -30 118 C-37.26 118.84 -42.63 117.45 -49 114 C-48.91 112.58 -48.8 111.17 -48.69 109.75 C-48.63 108.96 -48.57 108.17 -48.51 107.36 C-47.89 104.48 -47.06 103.11 -45 101 C-42.52 100.83 -42.52 100.83 -39.81 101.25 C-38.91 101.38 -38.01 101.51 -37.08 101.64 C-36.05 101.82 -36.05 101.82 -35 102 C-34.6 101.12 -34.6 101.12 -34.19 100.23 C-22.11 73.89 -22.11 73.89 -13.56 67.75 C-10.79 65.48 -10.07 64.6 -9.67 60.98 C-9.77 58.59 -9.89 56.2 -10.03 53.81 C-9.95 43.46 -4.38 33.19 -0.04 23.93 C1.17 21.15 1.17 21.15 0.82 18.69 C0.07 16.71 0.07 16.71 -2.56 15.69 C-3.37 15.13 -4.17 14.57 -5 14 C-5.78 8.83 -4.73 5.41 -2 1 C-1.34 0.67 -0.68 0.34 0 0 Z " fill="#FAFAFA" transform="translate(355,170)"/>
<path d="M0 0 C6.07 5.52 8.87 12.81 12.21 20.18 C17.13 31.32 17.13 31.32 25.75 39.5 C26.97 39.83 28.18 40.16 29.44 40.5 C32.75 41.5 32.75 41.5 34.75 43.81 C35.92 46.95 35.83 48.36 34.75 51.5 C34.09 52.49 33.43 53.48 32.75 54.5 C30.81 64.89 36.08 74.85 40.25 84.07 C45.51 95.77 45.51 95.77 43.05 102.39 C39.46 109.61 32.99 112.01 25.75 114.5 C22.65 110.99 21.01 108.01 19.75 103.5 C25.5 99.5 25.5 99.5 27.75 99.5 C26.58 93 24.59 87.39 21.75 81.44 C17.76 73.02 13.56 63.94 16.75 54.56 C17.08 53.88 17.41 53.2 17.75 52.5 C16.63 52.12 16.63 52.12 15.5 51.74 C3.4 46.27 -1.26 29.76 -5.95 18.34 C-7.08 15.44 -7.08 15.44 -9.25 13.5 C-11.7 13.48 -11.7 13.48 -14.38 13.88 C-15.29 13.99 -16.2 14.1 -17.13 14.21 C-18.18 14.35 -18.18 14.35 -19.25 14.5 C-23.28 8.27 -23.28 8.27 -23.15 4.91 C-22.25 2.5 -22.25 2.5 -20.28 1.14 C-13.19 -1.52 -7.12 -3.29 0 0 Z " fill="#FAF9F9" transform="translate(285.25,266.5)"/>
<path d="M0 0 C1.66 2.41 1.66 2.41 3.06 5.5 C3.56 6.58 4.06 7.66 4.57 8.77 C5.04 9.83 5.52 10.9 6 12 C6.42 12.92 6.84 13.85 7.27 14.8 C8.2 16.86 9.11 18.92 10 21 C16.52 20.41 21.48 18.15 27.3 15.26 C32.45 12.85 32.45 12.85 35.41 13.65 C37.65 15.56 38.27 17.16 39 20 C38.82 22.51 38.82 22.51 38 25 C36.1 26.41 36.1 26.41 33.62 27.5 C32.73 27.91 31.84 28.31 30.92 28.73 C29.96 29.15 28.99 29.57 28 30 C25.96 30.94 23.92 31.87 21.88 32.81 C20.25 33.54 18.63 34.27 17 35 C19.05 41.71 21.74 47.81 24.89 54.08 C26 57 26 57 25.91 59.25 C24.72 61.55 23.58 62.15 21.25 63.25 C20.24 63.75 20.24 63.75 19.2 64.27 C17 65 17 65 12 65 C8.7 57.74 5.4 50.48 2 43 C-3.3 43.84 -3.3 43.84 -7.95 45.66 C-8.63 45.98 -9.31 46.3 -10.02 46.62 C-11.43 47.3 -12.84 47.97 -14.25 48.65 C-19.48 51.06 -19.48 51.06 -22.12 50.76 C-24 50 -24 50 -25.75 47.25 C-26.95 44.12 -27.11 42.28 -27 39 C-26.44 38.77 -25.88 38.54 -25.3 38.3 C-22.76 37.24 -20.23 36.18 -17.69 35.12 C-16.81 34.76 -15.93 34.4 -15.02 34.02 C-14.17 33.67 -13.32 33.31 -12.45 32.95 C-11.28 32.46 -11.28 32.46 -10.08 31.96 C-7.77 30.96 -7.77 30.96 -5 29 C-5.73 23.05 -8.77 17.82 -11.38 12.51 C-11.74 11.73 -12.11 10.95 -12.48 10.15 C-12.82 9.45 -13.16 8.75 -13.51 8.03 C-14 6 -14 6 -13.3 3.85 C-10.2 -0.56 -4.89 -1.82 0 0 Z " fill="#F9F8F9" transform="translate(241,312)"/>
<path d="M0 0 C2.06 0.45 4.13 0.91 6.19 1.38 C7.34 1.63 8.48 1.89 9.67 2.15 C12.59 2.89 15.24 3.8 18 5 C18 5.66 18 6.32 18 7 C18.55 7.17 19.09 7.34 19.65 7.52 C25.28 9.33 30.64 11.5 36 14 C36 14.66 36 15.32 36 16 C36.99 16 37.98 16 39 16 C40.2 18.41 40.1 19.95 40.06 22.62 C40.05 23.44 40.04 24.26 40.04 25.1 C40.02 25.73 40.01 26.35 40 27 C37.95 27.53 35.97 28 33.88 28.31 C31.8 28.85 31.8 28.85 30.75 31.06 C30.5 31.7 30.25 32.34 30 33 C30.66 33.66 31.32 34.32 32 35 C31.34 35 30.68 35 30 35 C30.66 35.66 31.32 36.32 32 37 C31.75 39.06 31.75 39.06 31 41 C30.01 41.5 30.01 41.5 29 42 C29.99 42.66 30.98 43.32 32 44 C33.02 47.3 33.11 48.67 32 52 C33.32 52.33 34.64 52.66 36 53 C36 51.02 36 49.04 36 47 C36.78 46.88 37.57 46.75 38.38 46.62 C41.14 46.21 41.14 46.21 43 44 C43.64 41.93 43.64 41.93 44 40 C44.66 40 45.32 40 46 40 C46.5 39.01 46.5 39.01 47 38 C46.34 43.17 44.08 47.62 41.94 52.31 C41.37 53.57 41.37 53.57 40.79 54.85 C39.87 56.9 38.94 58.95 38 61 C32.73 61.45 29.16 59.95 24.62 57.5 C23.98 57.17 23.34 56.83 22.68 56.49 C21.12 55.67 19.56 54.84 18 54 C18.59 49.23 19.97 45.35 21.91 40.96 C22.19 40.31 22.48 39.66 22.77 38.99 C23.67 36.93 24.59 34.87 25.5 32.81 C26.41 30.74 27.32 28.68 28.23 26.61 C29.05 24.74 29.88 22.87 30.71 21 C32.04 18.03 32.04 18.03 33 15 C32.14 14.72 31.28 14.44 30.39 14.16 C24.71 12.22 19.22 9.83 13.69 7.5 C12.48 7 11.28 6.5 10.04 5.99 C8.89 5.51 7.75 5.03 6.57 4.53 C5.53 4.09 4.48 3.66 3.41 3.21 C1 2 1 2 0 0 Z " fill="#F9F8F8" transform="translate(48,228)"/>
<path d="M0 0 C0.33 0 0.66 0 1 0 C0.5 5.82 -0.67 10.31 -3.16 15.56 C-3.47 16.24 -3.78 16.92 -4.1 17.61 C-5.08 19.75 -6.07 21.87 -7.06 24 C-7.73 25.46 -8.4 26.91 -9.07 28.37 C-10.7 31.92 -12.35 35.46 -14 39 C-12.17 39.57 -12.17 39.57 -10.31 40.15 C-4.06 42.24 1.92 44.9 7.94 47.56 C9.07 48.06 10.21 48.55 11.38 49.06 C12.46 49.54 13.54 50.01 14.65 50.5 C15.63 50.94 16.61 51.37 17.62 51.81 C20 53 20 53 22 55 C21.76 60.04 19.92 64.89 17 69 C15.38 70.29 15.38 70.29 13 71 C10.4 70.19 8.16 69.31 5.71 68.17 C4.67 67.7 4.67 67.7 3.6 67.22 C1.37 66.23 -0.84 65.21 -3.06 64.19 C-5.29 63.18 -7.51 62.18 -9.74 61.18 C-11.12 60.56 -12.5 59.93 -13.88 59.3 C-16.57 58.07 -19.2 56.93 -22 56 C-22.18 56.6 -22.36 57.21 -22.55 57.83 C-25.05 65.77 -25.05 65.77 -28 69 C-27.69 67.56 -27.38 66.12 -27.06 64.69 C-26.89 63.89 -26.71 63.09 -26.54 62.26 C-26 60 -26 60 -25 57 C-24.34 57 -23.68 57 -23 57 C-23 56.01 -23 55.02 -23 54 C-13.41 55.65 -4.31 59.74 4.45 63.86 C8.22 65.54 12.06 66.77 16 68 C16.13 67.44 16.27 66.88 16.4 66.3 C17.02 63.91 17.77 61.59 18.56 59.25 C18.83 58.45 19.1 57.65 19.38 56.83 C19.58 56.22 19.79 55.62 20 55 C19.42 54.85 18.83 54.71 18.23 54.55 C12.14 52.89 6.77 50.54 1.18 47.61 C-3.28 45.35 -7.87 43.43 -12.48 41.49 C-15 40 -15 40 -15.96 38.07 C-16.01 35.59 -15.49 34.27 -14.38 32.06 C-12.56 28.29 -11.05 24.5 -9.62 20.56 C-7.66 15.35 -5.28 10.78 -2.23 6.12 C-1.03 4.05 -0.45 2.34 0 0 Z " fill="#C3BFC0" transform="translate(123,197)"/>
<path d="M0 0 C-4.95 2.31 -9.9 4.62 -15 7 C-12.95 13.71 -10.26 19.81 -7.11 26.08 C-6 29 -6 29 -6.09 31.25 C-7.28 33.55 -8.42 34.15 -10.75 35.25 C-11.43 35.59 -12.1 35.92 -12.8 36.27 C-15 37 -15 37 -20 37 C-23.3 29.74 -26.6 22.48 -30 15 C-36.23 16.04 -40.51 18.03 -46.07 20.82 C-49 22 -49 22 -52 21 C-34.4 10.73 -34.4 10.73 -29.95 11.23 C-29.3 11.48 -28.66 11.74 -28 12 C-27.27 13.92 -26.56 15.84 -25.93 17.79 C-24.39 21.47 -21.74 24.16 -19 27 C-18.5 25.51 -18.5 25.51 -18 24 C-16 26 -16 26 -16 28 C-16.66 28 -17.32 28 -18 28 C-18 28.99 -18 29.98 -18 31 C-15.58 31.17 -15.58 31.17 -13 31 C-12.34 30.34 -11.68 29.68 -11 29 C-11 29.99 -11 30.98 -11 32 C-10.01 32 -9.02 32 -8 32 C-8.3 31.32 -8.61 30.65 -8.92 29.95 C-10.29 26.89 -11.64 23.82 -13 20.75 C-13.48 19.69 -13.95 18.62 -14.45 17.53 C-15.12 15.99 -15.12 15.99 -15.81 14.42 C-16.23 13.48 -16.65 12.54 -17.08 11.57 C-18 9 -18 9 -18 5 C-14.67 3.67 -11.33 2.33 -8 1 C-7.13 0.61 -6.25 0.21 -5.36 -0.2 C-3 -1 -3 -1 0 0 Z " fill="#E6E3E4" transform="translate(273,340)"/>
<path d="M0 0 C1.3 2.6 1.56 5.14 2 8 C1.01 8.5 1.01 8.5 0 9 C0 8.34 0 7.68 0 7 C-0.66 7 -1.32 7 -2 7 C-2.1 7.72 -2.21 8.44 -2.31 9.19 C-3.34 13.39 -4.89 16.05 -8.19 18.88 C-12.23 20.49 -14.76 19.92 -19 19 C-19.33 18.34 -19.66 17.68 -20 17 C-22.02 16.35 -22.02 16.35 -24 16 C-23.54 18.36 -23.09 20.69 -22.44 23 C-21.92 25.37 -21.93 27.58 -22 30 C-18.13 31.88 -18.13 31.88 -14 31 C-13.67 31.66 -13.34 32.32 -13 33 C-10.47 33.66 -10.47 33.66 -8 34 C-8 34.33 -8 34.66 -8 35 C-4.37 35 -0.74 35 3 35 C0.01 37.99 -2.8 38.22 -6.88 38.38 C-15.23 38.33 -22.68 34.77 -30 31 C-29.69 24.38 -28.26 19.78 -25 14 C-19.48 14.75 -19.48 14.75 -16.94 16.06 C-14.36 17.31 -12.83 17.5 -10 17 C-6.84 13.55 -4.78 9.89 -2.75 5.69 C-2.23 4.62 -1.71 3.55 -1.17 2.45 C-0.59 1.24 -0.59 1.24 0 0 Z " fill="#F7F5F6" transform="translate(150,316)"/>
<path d="M0 0 C1.46 4.52 -0.15 7.52 -2 11.69 C-2.65 13.21 -3.3 14.74 -3.95 16.27 C-4.29 17.05 -4.63 17.83 -4.98 18.64 C-14.44 39 -14.44 39 -16 61 C-14.92 63.43 -13.73 64.94 -12 67 C-12 67.66 -12 68.32 -12 69 C-13.94 68.19 -13.94 68.19 -16 67 C-16.33 66.01 -16.66 65.02 -17 64 C-17.66 63.67 -18.32 63.34 -19 63 C-20.65 57.35 -21.55 51.75 -20 46 C-19.34 46 -18.68 46 -18 46 C-17.71 45 -17.42 43.99 -17.12 42.96 C-14.69 34.8 -11.99 27.38 -7.94 19.87 C-6.74 16.22 -7.48 14.44 -9 11 C-8.67 10.67 -8.34 10.34 -8 10 C-7.31 8.01 -6.64 6.01 -6 4 C-5.01 5.49 -5.01 5.49 -4 7 C-3.67 6.34 -3.34 5.68 -3 5 C-2.34 5 -1.68 5 -1 5 C-0.67 3.35 -0.34 1.7 0 0 Z " fill="#EBE9EA" transform="translate(217,210)"/>
<path d="M0 0 C1.21 3.64 0.7 4.28 -0.87 7.67 C-1.28 8.56 -1.69 9.45 -2.11 10.37 C-2.77 11.77 -2.77 11.77 -3.44 13.19 C-3.87 14.13 -4.31 15.07 -4.75 16.04 C-5.83 18.36 -6.91 20.68 -8 23 C-13.27 23.45 -16.84 21.95 -21.38 19.5 C-22.02 19.17 -22.66 18.83 -23.32 18.49 C-24.88 17.67 -26.44 16.84 -28 16 C-27.34 11.44 -26.22 8.05 -24 4 C-23.34 4 -22.68 4 -22 4 C-23.21 7.72 -24.51 11.38 -26 15 C-22.7 15.99 -19.4 16.98 -16 18 C-16 18.66 -16 19.32 -16 20 C-13.69 20.33 -11.38 20.66 -9 21 C-8.92 20.18 -8.84 19.35 -8.75 18.5 C-7.97 14.86 -6.71 12.17 -4.99 8.9 C-3.82 6.66 -2.89 4.36 -2 2 C-1.34 2 -0.68 2 0 2 C0 1.34 0 0.68 0 0 Z " fill="#B6B3B3" transform="translate(94,266)"/>
<path d="M0 0 C0.33 0 0.66 0 1 0 C1.08 4.16 0.98 7.95 0 12 C0.99 12 1.98 12 3 12 C2.69 13.58 2.69 13.58 2.38 15.19 C1.68 19.3 1.68 19.3 4 24 C-0.95 26.97 -0.95 26.97 -6 30 C-5.34 31.32 -4.68 32.64 -4 34 C-6.47 34.5 -6.47 34.5 -9 35 C-9 34.01 -9 33.02 -9 32 C-10.65 32.99 -12.3 33.98 -14 35 C-12.58 31.7 -10.88 29.68 -8.19 27.31 C-7.52 26.71 -6.85 26.11 -6.17 25.49 C-3.75 23.83 -1.88 23.38 1 23 C0.51 22 0.51 22 0.01 20.98 C-1.23 17.31 -1.23 14.24 -1.19 10.38 C-1.18 8.41 -1.18 8.41 -1.17 6.4 C-1 3 -1 3 0 0 Z " fill="#DDDCDC" transform="translate(179,253)"/>
<path d="M0 0 C0.66 0.33 1.32 0.66 2 1 C1.18 2.48 1.18 2.48 0.35 3.98 C-4.61 13.07 -8.98 22.24 -12.82 31.87 C-14.94 37.05 -17.16 40.9 -21 45 C-21.75 43.25 -21.75 43.25 -22 41 C-21.1 40.12 -21.1 40.12 -20.19 39.22 C-17.7 36.7 -16.61 34.48 -15.19 31.25 C-14.68 30.11 -14.17 28.97 -13.65 27.8 C-13.1 26.53 -12.55 25.27 -12 24 C-11.7 23.31 -11.4 22.62 -11.09 21.91 C-10.79 21.2 -10.48 20.5 -10.16 19.77 C-9.86 19.06 -9.55 18.35 -9.23 17.62 C-8.63 16.24 -8.04 14.85 -7.45 13.47 C-5.37 8.64 -2.91 4.36 0 0 Z " fill="#E0DEDF" transform="translate(178,304)"/>
<path d="M0 0 C1.21 3.64 0.67 4.33 -0.94 7.69 C-1.32 8.5 -1.7 9.3 -2.09 10.14 C-2.39 10.75 -2.69 11.37 -3 12 C-2.01 11.67 -1.02 11.34 0 11 C0 11.66 0 12.32 0 13 C0.66 13 1.32 13 2 13 C2 13.66 2 14.32 2 15 C10.82 18.92 19.54 18.28 29 18 C26.01 20.99 23.2 21.22 19.12 21.38 C10.77 21.33 3.32 17.77 -4 14 C-3.66 8.62 -3.31 4.47 0 0 Z " fill="#DCD6D8" transform="translate(124,333)"/>
<path d="M0 0 C2.06 0.45 4.13 0.91 6.19 1.38 C7.34 1.63 8.48 1.89 9.67 2.15 C12.59 2.89 15.24 3.8 18 5 C18 5.66 18 6.32 18 7 C18.56 7.17 19.11 7.34 19.69 7.52 C25.1 9.23 29.98 11.35 35 14 C35 15.32 35 16.64 35 18 C34.34 18 33.68 18 33 18 C33 17.01 33 16.02 33 15 C32.14 14.72 31.28 14.44 30.39 14.16 C24.71 12.22 19.22 9.83 13.69 7.5 C12.48 7 11.28 6.5 10.04 5.99 C8.89 5.51 7.75 5.03 6.57 4.53 C5.53 4.09 4.48 3.66 3.41 3.21 C1 2 1 2 0 0 Z " fill="#C7C4C4" transform="translate(48,228)"/>
<path d="M0 0 C1.65 0 3.3 0 5 0 C3.68 0.33 2.36 0.66 1 1 C1.34 1.9 1.34 1.9 1.69 2.81 C1.79 3.53 1.89 4.26 2 5 C1 6 0 7 -1 8 C-1.97 9.98 -1.97 9.98 -2.75 12.25 C-4.5 16.85 -6.47 21.3 -8.56 25.75 C-8.86 26.38 -9.15 27 -9.45 27.65 C-11.25 31.46 -13.1 35.24 -15 39 C-16.98 38.34 -18.96 37.68 -21 37 C-21 36.34 -21 35.68 -21 35 C-19.02 35.33 -17.04 35.66 -15 36 C-14.63 34.81 -14.27 33.61 -13.89 32.38 C-11.66 25.7 -8.71 19.34 -5.81 12.94 C-5.25 11.68 -4.68 10.42 -4.12 9.16 C-2.75 6.1 -1.38 3.05 0 0 Z " fill="#DBD6D7" transform="translate(105,190)"/>
<path d="M0 0 C4.28 0.66 8.04 2.15 11.98 3.87 C12.63 4.15 13.29 4.44 13.96 4.73 C15.34 5.32 16.71 5.92 18.08 6.52 C20.19 7.44 22.3 8.35 24.4 9.25 C25.74 9.83 27.08 10.41 28.42 11 C29.05 11.27 29.68 11.54 30.33 11.82 C32.99 12.99 34.92 13.92 37 16 C36.62 18.62 36.62 18.62 36 21 C35.34 21 34.68 21 34 21 C34.33 19.35 34.66 17.7 35 16 C34.42 15.85 33.83 15.71 33.23 15.55 C27.14 13.89 21.78 11.53 16.18 8.63 C10.87 5.91 5.43 3.47 0 1 C0 0.67 0 0.34 0 0 Z " fill="#D9D6D7" transform="translate(108,236)"/>
<path d="M0 0 C3.95 0.55 7.35 1.39 11 3 C10.01 3.66 9.02 4.32 8 5 C5.69 3.68 3.38 2.36 1 1 C1.06 1.93 1.12 2.86 1.19 3.81 C1 7 1 7 -0.38 8.56 C-0.91 9.04 -1.45 9.51 -2 10 C-3.19 12.6 -3.19 12.6 -4 15 C-3.01 14.67 -2.02 14.34 -1 14 C-0.67 14.99 -0.34 15.98 0 17 C1.99 17.7 3.99 18.37 6 19 C7.61 22.21 7.06 25.44 7 29 C6.67 29 6.34 29 6 29 C5.94 27.91 5.88 26.81 5.81 25.69 C5.39 21.92 5.39 21.92 2.75 20.19 C0.18 19.08 -2.38 17.97 -5 17 C-5.28 12.32 -4.55 9.32 -2.5 5.12 C-2.04 4.16 -1.57 3.19 -1.09 2.2 C-0.73 1.47 -0.37 0.75 0 0 Z " fill="#E6E4E5" transform="translate(190,182)"/>
<path d="M0 0 C1.3 2.6 1.56 5.14 2 8 C1.01 8.5 1.01 8.5 0 9 C0 8.34 0 7.68 0 7 C-0.66 7 -1.32 7 -2 7 C-2.1 7.72 -2.21 8.44 -2.31 9.19 C-3.34 13.39 -4.89 16.05 -8.19 18.88 C-12.23 20.49 -14.76 19.92 -19 19 C-19.33 18.34 -19.66 17.68 -20 17 C-22.53 16.34 -22.53 16.34 -25 16 C-25 15.34 -25 14.68 -25 14 C-19.48 14.75 -19.48 14.75 -16.94 16.06 C-14.36 17.31 -12.83 17.5 -10 17 C-6.84 13.55 -4.78 9.89 -2.75 5.69 C-2.23 4.62 -1.71 3.55 -1.17 2.45 C-0.59 1.24 -0.59 1.24 0 0 Z " fill="#E6E2E2" transform="translate(150,316)"/>
<path d="M0 0 C1.08 1.74 1.08 1.74 1.81 3.88 C2.07 4.57 2.32 5.27 2.58 5.99 C3 8 3 8 2 11 C0.68 8.36 -0.64 5.72 -2 3 C-8.04 3.71 -12.69 6.12 -18.07 8.82 C-21 10 -21 10 -24 9 C-5.1 -2.03 -5.1 -2.03 0 0 Z " fill="#CFCCCD" transform="translate(245,352)"/>
<path d="M0 0 C0.66 0.33 1.32 0.66 2 1 C0.68 3.64 -0.64 6.28 -2 9 C-6.97 8.5 -10.64 7.45 -15 5 C-11.93 4.09 -9.2 3.91 -6 4 C-6 3.34 -6 2.68 -6 2 C-3 3 -3 3 -2 5 C-1.34 3.35 -0.68 1.7 0 0 Z " fill="#F1F0F1" transform="translate(320,221)"/>
<path d="M0 0 C1.32 0.66 2.64 1.32 4 2 C3.67 2.99 3.34 3.98 3 5 C3.33 5.99 3.66 6.98 4 8 C2.11 10.42 1.04 10.99 -2 11.75 C-5 12 -5 12 -8 11 C-8 10.34 -8 9.68 -8 9 C-2.25 6 -2.25 6 0 6 C0 4.02 0 2.04 0 0 Z " fill="#F7F5F6" transform="translate(284,157)"/>
<path d="M0 0 C1.39 4.42 -0.06 7 -2 11 C-2.88 12.89 -3.75 14.79 -4.62 16.69 C-5.05 17.6 -5.48 18.51 -5.91 19.45 C-7.05 21.89 -7.05 21.89 -7.46 24.21 C-8 26 -8 26 -11 28 C-10.37 24.21 -9.26 20.99 -7.71 17.48 C-7.27 16.46 -6.82 15.44 -6.36 14.38 C-5.89 13.33 -5.42 12.27 -4.94 11.19 C-4.47 10.11 -3.99 9.04 -3.51 7.93 C-2.34 5.29 -1.17 2.64 0 0 Z " fill="#EBE8E9" transform="translate(195,212)"/>
<path d="M0 0 C0.33 0.66 0.66 1.32 1 2 C-1.45 7.73 -1.45 7.73 -4 9 C-5.43 9.18 -6.87 9.32 -8.31 9.44 C-11.86 9.79 -14.76 10.43 -18 12 C-16.19 10 -16.19 10 -14 8 C-13.01 8 -12.02 8 -11 8 C-11 7.34 -11 6.68 -11 6 C-5.25 5.88 -5.25 5.88 -3 7 C-3 6.34 -3 5.68 -3 5 C-3.66 4.67 -4.32 4.34 -5 4 C-3 2 -3 2 0 0 Z " fill="#E4E2E2" transform="translate(204,284)"/>
<path d="M0 0 C0.33 0 0.66 0 1 0 C1.11 4.14 0.31 7.08 -1 11 C-1.33 10.67 -1.66 10.34 -2 10 C-2.99 11.49 -2.99 11.49 -4 13 C-12.87 10.57 -12.87 10.57 -16 9 C-16.33 8.01 -16.66 7.02 -17 6 C-15.58 6.45 -14.17 6.91 -12.75 7.38 C-11.96 7.63 -11.17 7.89 -10.36 8.15 C-8.13 8.95 -6.09 9.9 -4 11 C-3.8 10.37 -3.59 9.75 -3.38 9.1 C-3.11 8.28 -2.84 7.47 -2.56 6.62 C-2.3 5.81 -2.03 5 -1.75 4.16 C-1 2 -1 2 0 0 Z " fill="#EBE9EA" transform="translate(289,189)"/>
<path d="M0 0 C0.66 0.33 1.32 0.66 2 1 C0.88 3.94 -0.25 6.88 -1.38 9.81 C-1.85 11.06 -1.85 11.06 -2.34 12.34 C-2.65 13.14 -2.95 13.94 -3.27 14.77 C-3.56 15.51 -3.84 16.25 -4.13 17.01 C-5 19 -5 19 -7 22 C-7.66 22 -8.32 22 -9 22 C-6.66 14.33 -3.45 7.23 0 0 Z " fill="#D7D5D6" transform="translate(80,247)"/>
<path d="M0 0 C1.98 0 3.96 0 6 0 C6.33 0.99 6.66 1.98 7 3 C9.5 4.22 9.5 4.22 12 5 C12 6.32 12 7.64 12 9 C11.01 9 10.02 9 9 9 C9 8.34 9 7.68 9 7 C8.26 6.77 7.51 6.55 6.75 6.31 C3.49 4.76 2.07 2.91 0 0 Z " fill="#F1F1F1" transform="translate(294,312)"/>
<path d="M0 0 C-2.97 1.32 -5.94 2.64 -9 4 C-8.67 6.31 -8.34 8.62 -8 11 C-8.99 10.67 -9.98 10.34 -11 10 C-12.12 3.38 -12.12 3.38 -11 0 C-3.38 -1.12 -3.38 -1.12 0 0 Z " fill="#EBE9EA" transform="translate(225,138)"/>
<path d="M0 0 C2.75 0.31 2.75 0.31 6 1 C8 1.33 10 1.67 12 2 C12 2.66 12 3.32 12 4 C8.04 3.67 4.08 3.34 0 3 C0 3.99 0 4.98 0 6 C-0.99 6.33 -1.98 6.66 -3 7 C-2.25 2.25 -2.25 2.25 0 0 Z " fill="#E2DFE0" transform="translate(310,271)"/>
<path d="M0 0 C0.66 0.33 1.32 0.66 2 1 C-0.97 6.61 -3.94 12.22 -7 18 C-8.28 14.16 -7.45 13.16 -5.75 9.56 C-5.31 8.62 -4.87 7.67 -4.42 6.69 C-3.13 4.24 -1.73 2.15 0 0 Z " fill="#D0CDCF" transform="translate(178,304)"/>
<path d="M0 0 C0.27 0.6 0.54 1.2 0.81 1.81 C3.03 5.89 6.01 7.73 10 10 C9.01 10.5 9.01 10.5 8 11 C6.09 10.26 6.09 10.26 3.94 9.12 C3.22 8.76 2.51 8.39 1.78 8.01 C0 7 0 7 -1 6 C-1.12 3.5 -1.12 3.5 -1 1 C-0.67 0.67 -0.34 0.34 0 0 Z " fill="#E7E6E7" transform="translate(270,233)"/>
<path d="M0 0 C6.32 1.88 14.27 4.27 19 9 C15.03 8.34 11.53 7.15 7.81 5.62 C6.77 5.2 5.72 4.78 4.64 4.35 C2 3 2 3 0 0 Z " fill="#E7E4E6" transform="translate(302,208)"/>
<path d="M0 0 C3.04 2.57 4.25 5.42 5.75 9.06 C6.42 10.66 6.42 10.66 7.11 12.29 C8 15 8 15 7 17 C5.99 15.21 5 13.42 4 11.62 C3.44 10.63 2.89 9.63 2.31 8.6 C1 6 1 6 1 4 C0.34 3.67 -0.32 3.34 -1 3 C-0.67 2.01 -0.34 1.02 0 0 Z " fill="#DFDCDD" transform="translate(240,312)"/>
<path d="M0 0 C0.66 0 1.32 0 2 0 C0.79 3.72 -0.51 7.38 -2 11 C-0.35 11.33 1.3 11.66 3 12 C3 12.33 3 12.66 3 13 C1.02 13 -0.96 13 -3 13 C-4.01 10.31 -4.23 8.58 -3.18 5.89 C-2.17 3.89 -1.12 1.94 0 0 Z " fill="#C6C2C5" transform="translate(70,270)"/>
<path d="M0 0 C1.95 0.2 1.95 0.2 4 1 C5.08 2.74 5.08 2.74 5.81 4.88 C6.07 5.57 6.32 6.27 6.58 6.99 C7 9 7 9 6 12 C5.79 11.43 5.58 10.87 5.37 10.29 C4.4 7.98 3.48 6.01 2 4 C-1.63 2.86 -1.63 2.86 -5 3 C-4.36 2.69 -3.72 2.38 -3.06 2.06 C-1.06 1.17 -1.06 1.17 0 0 Z " fill="#E2DEDF" transform="translate(241,351)"/>
<path d="M0 0 C0 0.66 0 1.32 0 2 C0.66 2.33 1.32 2.66 2 3 C2 3.66 2 4.32 2 5 C-1.3 4.01 -4.6 3.02 -8 2 C-8.33 2.99 -8.66 3.98 -9 5 C-8.62 2.56 -8.62 2.56 -8 0 C-5.14 -1.43 -3.07 -0.6 0 0 Z " fill="#EBE9E9" transform="translate(108,249)"/>
<path d="M0 0 C0.33 0 0.66 0 1 0 C0.46 6.23 -0.16 11.57 -5.19 15.88 C-5.79 16.25 -6.38 16.62 -7 17 C-6.18 12.9 -4.26 9.79 -2.16 6.22 C-1.07 4.13 -0.46 2.3 0 0 Z " fill="#D1CBCD" transform="translate(123,197)"/>
<path d="M0 0 C-0.78 1.17 -1.58 2.34 -2.38 3.5 C-2.82 4.15 -3.26 4.8 -3.71 5.47 C-4.14 5.97 -4.56 6.48 -5 7 C-5.66 7 -6.32 7 -7 7 C-7 6.01 -7 5.02 -7 4 C-7.66 4 -8.32 4 -9 4 C-9 3.34 -9 2.68 -9 2 C-8.34 2 -7.68 2 -7 2 C-6.67 1.34 -6.34 0.68 -6 0 C-2.49 -1.25 -2.49 -1.25 0 0 Z " fill="#E9E7E8" transform="translate(186,297)"/>
<path d="M0 0 C0 0.33 0 0.66 0 1 C-1.07 1.12 -2.14 1.25 -3.25 1.38 C-6.38 1.9 -8.33 2.4 -11 4 C-11 2.35 -11 0.7 -11 -1 C-7 -2.6 -3.95 -1.29 0 0 Z " fill="#E7E3E4" transform="translate(360,246)"/>
<path d="M0 0 C0.33 0.66 0.66 1.32 1 2 C0.06 4.62 0.06 4.62 -1 7 C-1.66 7 -2.32 7 -3 7 C-3.33 8.65 -3.66 10.3 -4 12 C-4.33 11.01 -4.66 10.02 -5 9 C-5.66 8.67 -6.32 8.34 -7 8 C-6.67 7.34 -6.34 6.68 -6 6 C-5.34 6 -4.68 6 -4 6 C-4 5.34 -4 4.68 -4 4 C-3.01 4 -2.02 4 -1 4 C-0.67 2.68 -0.34 1.36 0 0 Z " fill="#E9E7E8" transform="translate(95,261)"/>
<path d="M0 0 C0.33 0 0.66 0 1 0 C1 1.98 1 3.96 1 6 C1.66 6 2.32 6 3 6 C3.33 5.34 3.66 4.68 4 4 C4.33 4.99 4.66 5.98 5 7 C6.5 8.67 6.5 8.67 8 10 C0.12 9.12 0.12 9.12 -1 8 C-0.82 5.31 -0.38 2.67 0 0 Z " fill="#E2E0E1" transform="translate(47,220)"/>
<path d="M0 0 C3.85 4.43 6.77 10.2 7.25 16.06 C7.17 16.7 7.09 17.34 7 18 C6.72 17.44 6.45 16.89 6.16 16.31 C5.36 14.72 4.54 13.14 3.71 11.56 C3.27 10.72 2.83 9.87 2.38 9 C1.93 8.15 1.48 7.31 1.02 6.44 C0 4 0 4 0 0 Z " fill="#DEDBDD" transform="translate(219,154)"/>
<path d="M0 0 C3.69 0.5 6.82 1 10 3 C11.61 6.21 11.06 9.44 11 13 C10.67 13 10.34 13 10 13 C9.94 11.91 9.88 10.81 9.81 9.69 C9.39 5.91 9.39 5.91 6.69 4.19 C5.8 3.8 4.91 3.4 4 3 C3.24 2.61 2.47 2.22 1.69 1.81 C1.13 1.54 0.57 1.28 0 1 C0 0.67 0 0.34 0 0 Z " fill="#D6D3D4" transform="translate(186,198)"/>
<path d="M0 0 C5.76 0.61 10.72 2.76 16 5 C16 5.33 16 5.66 16 6 C10.03 5.49 5.36 3.61 0 1 C0 0.67 0 0.34 0 0 Z " fill="#C1BBBF" transform="translate(122,347)"/>
<path d="M0 0 C1.16 2.87 0.99 4.02 0 7.02 C-0.71 8.62 -0.71 8.62 -1.44 10.25 C-1.91 11.33 -2.38 12.41 -2.87 13.52 C-3.24 14.34 -3.62 15.16 -4 16 C-5.42 11.75 -4.19 9.28 -3 5 C-2.34 5 -1.68 5 -1 5 C-0.67 3.35 -0.34 1.7 0 0 Z " fill="#E3E1E3" transform="translate(217,210)"/>
<path d="M0 0 C0.66 0.33 1.32 0.66 2 1 C1.67 2.98 1.34 4.96 1 7 C0.34 7 -0.32 7 -1 7 C-1 7.66 -1 8.32 -1 9 C-2.98 9 -4.96 9 -7 9 C-6 7 -6 7 -2.94 5.88 C-1.48 5.44 -1.48 5.44 0 5 C0 3.35 0 1.7 0 0 Z " fill="#E8E4E5" transform="translate(313,361)"/>
<path d="M0 0 C1.21 3.64 0.67 4.33 -0.94 7.69 C-1.32 8.5 -1.7 9.3 -2.09 10.14 C-2.39 10.75 -2.69 11.37 -3 12 C-3.33 12 -3.66 12 -4 12 C-4.33 7.76 -4.44 5.64 -2 2.06 C-1.34 1.38 -0.68 0.7 0 0 Z " fill="#B6B3B1" transform="translate(118,211)"/>
<path d="M0 0 C0.33 0 0.66 0 1 0 C1.25 3.31 1.25 3.31 1 7 C-1.59 9.88 -4.24 10.48 -8 11 C-8 10.34 -8 9.68 -8 9 C-2.25 6 -2.25 6 0 6 C0 4.02 0 2.04 0 0 Z " fill="#DDDCDD" transform="translate(284,157)"/>
<path d="M0 0 C0.66 0.33 1.32 0.66 2 1 C0.68 4.3 -0.64 7.6 -2 11 C-2.99 11 -3.98 11 -5 11 C-3.35 7.37 -1.7 3.74 0 0 Z " fill="#C7C5C5" transform="translate(80,247)"/>
<path d="M0 0 C4.97 0.5 8.64 1.55 13 4 C10.45 4.93 9.26 5.09 6.64 4.22 C5.85 3.84 5.06 3.46 4.25 3.06 C3.45 2.68 2.65 2.3 1.83 1.91 C1.22 1.61 0.62 1.31 0 1 C0 0.67 0 0.34 0 0 Z " fill="#DCDBDC" transform="translate(305,225)"/>
<path d="M0 0 C2.97 0.5 2.97 0.5 6 1 C6 3.31 6 5.62 6 8 C5.01 7.67 4.02 7.34 3 7 C2.81 5.82 2.81 5.82 2.62 4.62 C2.21 1.86 2.21 1.86 0 0 Z " fill="#E7E5E5" transform="translate(268,104)"/>
<path d="M0 0 C1.26 0.12 2.52 0.25 3.81 0.38 C4.87 0.48 4.87 0.48 5.96 0.59 C8 1 8 1 11 3 C11 3.66 11 4.32 11 5 C9.54 4.55 8.08 4.09 6.62 3.62 C5.81 3.37 5 3.11 4.16 2.85 C2 2 2 2 0 0 Z " fill="#AEABAC" transform="translate(125,262)"/>
<path d="M0 0 C0.33 0.99 0.66 1.98 1 3 C-0.44 5.19 -0.44 5.19 -2 7 C-2 6.01 -2 5.02 -2 4 C-3.65 4 -5.3 4 -7 4 C-5.53 1.07 -3.26 0 0 0 Z " fill="#DAD1D6" transform="translate(295,175)"/>
<path d="M0 0 C1.98 0 3.96 0 6 0 C6 1.32 6 2.64 6 4 C5.01 4 4.02 4 3 4 C3 3.34 3 2.68 3 2 C2.01 1.67 1.02 1.34 0 1 C0 0.67 0 0.34 0 0 Z " fill="#DDDCDD" transform="translate(300,317)"/>
</svg>
